<svg xmlns="http://www.w3.org/2000/svg" width="850.394" height="850.394" viewBox="0 0 850.394 850.394" overflow="visible"><path d="M435.75 397.04c0 11.74-2.23 24.42-6.69 38.02-4.459 13.601-9.75 23.95-15.879 31.04-4.29 5-8.63 8.67-13.02 10.99-5.79 3.26-11.99 4.88-18.58 4.88-8.8 0-16.18-3.479-22.14-10.46-5.96-6.979-8.94-17.85-8.94-32.609 0-11.051 2.14-23.72 6.42-38.03 4.28-14.3 10.65-25.31 19.1-33.05 8.45-7.73 17.65-11.59 27.61-11.59 9.26 0 16.92 3.51 23 10.55 6.079 7.029 9.119 17.119 9.119 30.259z" fill="#c8c8c8"/><path d="M743.72 159.43v524.09c0 16.69-13.779 30.2-30.76 30.2H136.54c-16.96 0-30.74-13.51-30.74-30.2V159.43c0-16.67 13.78-30.19 30.74-30.19h576.42c16.98 0 30.76 13.5 30.76 30.19zM576 510.72h-37.25c-12.22 15.5-28.34 27.13-48.35 34.88-20.021 7.75-43.931 11.62-71.74 11.62-28.86 0-54.49-4.63-76.88-13.89-22.4-9.26-39.8-23.97-52.19-44.12-12.4-20.16-18.59-42.53-18.59-67.11 0-25.29 5.55-49.609 16.67-72.959 11.11-23.36 27.63-41.48 49.56-54.35 21.94-12.88 48.67-19.31 80.21-19.31 37.11 0 66.03 9.63 86.74 28.89 20.71 19.27 31.07 43.21 31.07 71.84 0 15.95-3.67 31.37-11 46.271-7.33 14.899-16.93 26.779-28.8 35.619-8.84 6.75-16.061 10.12-21.641 10.12-1.869 0-3.47-.72-4.8-2.18-1.34-1.45-2.01-3.63-2.01-6.54 0-2.33.81-7.45 2.44-15.37L495.8 328.98h-46.09l-4.36 19.51c-9.88-15.84-25.169-23.76-45.85-23.76-29.06 0-52.89 13.73-71.49 41.2-15.34 22.58-23.01 47.54-23.01 74.89 0 22.12 6.36 39.84 19.1 53.17 12.73 13.319 28.75 19.979 48.06 19.979 17.9 0 33.72-6.63 47.44-19.899 1.63 6.52 4.89 11.47 9.77 14.84 4.89 3.38 12.16 5.06 21.82 5.06 35.84 0 65.229-15.14 88.149-45.43 18.271-24 27.41-50.86 27.41-80.57 0-24.93-6.02-47.91-18.07-68.94-12.05-21.04-29.47-37.26-52.29-48.68-22.81-11.41-48.88-17.12-78.2-17.12-34.57 0-65.3 7.08-92.18 21.24-26.88 14.17-48.07 35.38-63.54 63.65-15.48 28.27-23.22 58.78-23.22 91.53 0 29.85 6.81 57.449 20.42 82.8 13.62 25.35 34.4 44.53 62.33 57.53 27.92 12.989 61.1 19.489 99.5 19.489 39.69 0 73.32-7.7 100.91-23.1C546.5 552.96 564.36 534.4 576 510.72z" fill="#c8c8c8"/><path d="M538.75 510.72H576c-11.64 23.681-29.5 42.24-53.59 55.65-27.59 15.399-61.22 23.1-100.91 23.1-38.4 0-71.58-6.5-99.5-19.489-27.93-13-48.71-32.181-62.33-57.53-13.61-25.351-20.42-52.95-20.42-82.8 0-32.75 7.74-63.26 23.22-91.53 15.47-28.27 36.66-49.48 63.54-63.65 26.88-14.16 57.61-21.24 92.18-21.24 29.32 0 55.39 5.71 78.2 17.12 22.82 11.42 40.24 27.64 52.29 48.68 12.051 21.03 18.07 44.01 18.07 68.94 0 29.71-9.14 56.57-27.41 80.57-22.92 30.29-52.31 45.43-88.149 45.43-9.66 0-16.931-1.68-21.82-5.06-4.88-3.37-8.14-8.32-9.77-14.84-13.72 13.27-29.54 19.899-47.44 19.899-19.31 0-35.33-6.66-48.06-19.979-12.74-13.33-19.1-31.05-19.1-53.17 0-27.35 7.67-52.311 23.01-74.89 18.6-27.47 42.43-41.2 71.49-41.2 20.68 0 35.97 7.92 45.85 23.76l4.36-19.51h46.09L469.44 454.13c-1.631 7.92-2.44 13.04-2.44 15.37 0 2.91.67 5.09 2.01 6.54 1.33 1.46 2.931 2.18 4.8 2.18 5.58 0 12.801-3.37 21.641-10.12 11.87-8.84 21.47-20.72 28.8-35.619 7.33-14.9 11-30.32 11-46.271 0-28.63-10.36-52.57-31.07-71.84-20.71-19.26-49.63-28.89-86.74-28.89-31.54 0-58.27 6.43-80.21 19.31-21.93 12.87-38.45 30.99-49.56 54.35C276.55 382.49 271 406.81 271 432.1c0 24.58 6.19 46.95 18.59 67.11 12.39 20.15 29.79 34.86 52.19 44.12 22.39 9.26 48.02 13.89 76.88 13.89 27.81 0 51.72-3.87 71.74-11.62 20.01-7.75 36.13-19.38 48.35-34.88zm-109.69-75.66c4.46-13.6 6.69-26.28 6.69-38.02 0-13.14-3.04-23.23-9.12-30.26-6.08-7.04-13.74-10.55-23-10.55-9.96 0-19.16 3.86-27.61 11.59-8.45 7.74-14.82 18.75-19.1 33.05-4.28 14.31-6.42 26.979-6.42 38.03 0 14.76 2.98 25.63 8.94 32.609 5.96 6.98 13.34 10.46 22.14 10.46 6.59 0 12.79-1.62 18.58-4.88 4.39-2.32 8.73-5.99 13.02-10.99 6.13-7.089 11.42-17.439 15.88-31.039z" fill="#231f20"/><g><path d="M712.96 713.72c16.98 0 30.76-13.51 30.76-30.2V159.43c0-16.69-13.779-30.19-30.76-30.19H136.54c-16.96 0-30.74 13.52-30.74 30.19v524.09c0 16.69 13.78 30.2 30.74 30.2h576.42z" fill="none" stroke="#231f20" stroke-width="21"/></g><path fill="none" d="M0 0h850.394v850.394H0z"/></svg>