<svg xmlns="http://www.w3.org/2000/svg" width="850.394" height="850.394" viewBox="0 0 850.394 850.394" overflow="visible"><path d="M555.99 428.37l-.29 1.71-90.13 17.53c.949-3.5 2.649-6.891 5.01-10.12 1.46-.11 2.92-.32 4.39-.62 5.95-1.2 12.061-3.53 12.641-8.91l39.21-7.16 29.169 7.57z" fill="#c8c8c8"/><path d="M555.7 430.08l-2.8 16.46-83.4 16.53-3.28.01a25.434 25.434 0 0 1-1.569-8.771c0-2.27.31-4.51.92-6.699l90.129-17.53z" fill="#c8c8c8"/><path d="M475.3 476.56c-4.27-4.199-7.359-8.72-9.08-13.479l3.28-.01 83.4-16.53-1.021 5.979 30.32 5.16-105.839 21.27c-.63-.391-1.25-.79-1.851-1.2l.791-1.19zM531.66 497.59l135.359-25.26c-1.67 2.11-3.619 4.15-5.819 6.11l.5.8c-21.351 13.37-54.82 21.979-92.45 21.979-13.19 0-25.87-1.06-37.69-3.02l.1-.609z" fill="#c8c8c8"/><path d="M672.5 454.77l1.35.021c-.109 6.17-2.529 12.08-6.83 17.54L531.66 497.59l-.101.61c-12.31-2.021-23.699-5.021-33.77-8.8L672.5 454.77z" fill="#c8c8c8"/><path d="M669.37 439.61c2.92 4.649 4.49 9.59 4.49 14.699 0 .16 0 .32-.011.48l-1.35-.021L497.79 489.4c-8.05-3.011-15.26-6.521-21.43-10.45l105.84-21.27 19.1 3.25 1.25-7.34 65.5-13.17 1.32-.81z" fill="#c8c8c8"/><path d="M669.37 439.61l-1.32.81-65.5 13.17 2.98-17.479 50.54-10.021c5.74 4.12 10.26 8.66 13.3 13.52z" fill="#c8c8c8"/><path d="M656.07 426.09l-50.54 10.021 2.149-12.62-9.64-1.64 36.4-7.08v-.01c8.351 3.219 15.651 7.039 21.631 11.329z" fill="#c8c8c8"/><path d="M634.44 414.76v.01l-36.4 7.08-39.79-6.78v-.01l46.05-8.41c11.02 1.89 21.18 4.65 30.14 8.11z" fill="#c8c8c8"/><path d="M604.3 406.65l-46.05 8.41-31.43 5.74-22.96-5.96c17.909-6.95 40.649-11.1 65.39-11.1 12.3 0 24.1 1.03 35.05 2.91z" fill="#c8c8c8"/><path d="M476.36 478.95c6.17 3.93 13.38 7.439 21.43 10.45 10.07 3.779 21.46 6.779 33.77 8.8 11.82 1.96 24.5 3.02 37.69 3.02 37.63 0 71.1-8.609 92.45-21.979 13.979-8.75 22.76-19.54 24.1-31.29a85.177 85.177 0 0 1 1.84 17.649c0 39.761-27.43 74.131-67.21 90.351-15.489 6.319-32.85 9.89-51.199 9.95h-.49c-18.84 0-36.65-3.69-52.471-10.28-39.359-16.34-66.439-50.51-66.439-90.021 0-4.779-.061-14.22 2.7-20.81 0 12.3 8.149 23.69 21.979 32.96.6.41 1.22.81 1.85 1.2z" fill="#be0000"/><path d="M485.62 405.43c2.34.04 5.66-.22 5.77-1.95.011-.22-.02-.45-.09-.69 20.66-8.97 47.99-14.43 77.95-14.43 64.46 0 116.73 25.26 116.73 56.43 0 1.06-.061 2.12-.181 3.16-1.34 11.75-10.12 22.54-24.1 31.29l-.5-.8c2.2-1.96 4.149-4 5.819-6.11 4.301-5.46 6.721-11.37 6.83-17.54.011-.16.011-.32.011-.48 0-5.109-1.57-10.05-4.49-14.699-3.04-4.86-7.561-9.4-13.3-13.521-5.98-4.29-13.28-8.11-21.63-11.33-8.96-3.46-19.12-6.22-30.141-8.11-10.95-1.88-22.75-2.91-35.05-2.91-24.74 0-47.48 4.15-65.39 11.1l-24.12-6.26c1.882-1.09 3.842-2.14 5.882-3.15z" fill="#be0000"/><path d="M245.27 719.55c-6.13-2.729-16.13 0-22.96-.16-4.66-.13-9.86.24-13.96-2.529-10.11-6.82-3.81-26.21-2.99-36.37l46.43 3.609c31.13 11.71 44.78 12.11 48.28 24.15.95 3.28 1.15 7.43.75 12.91-.37 5.04-15.72 8.97-23.99 8.359-18.84-1.379-23.71-6.439-31.56-9.969z"/><path d="M287.56 66.48c23.69 9.34 32.79 42.51 20.33 74.08-10.16 25.76-31.52 42.49-51.9 42.72-4.61.04-9.16-.75-13.53-2.47-8.24-3.25-14.72-9.38-19.13-17.33-8.27-14.9-9.31-36.16-1.19-56.75 12.46-31.57 41.75-49.59 65.42-40.25z" fill="#ffeec8"/><path fill="#ff001c" d="M607.68 423.49l-2.15 12.62-52.63 10.43 2.8-16.46 42.34-8.23z"/><path fill="#ff001c" d="M605.53 436.11l-2.98 17.48-20.35 4.09-30.32-5.16 1.02-5.98z"/><path fill="#fff" d="M602.55 453.59l-1.25 7.34-19.1-3.25zM555.99 428.37l2.26-13.3 39.79 6.78-42.34 8.23zM491.3 402.79c.07.24.101.47.09.69-.109 1.73-3.43 1.99-5.77 1.95 1.83-.91 3.72-1.79 5.68-2.64z"/><path d="M491.3 402.79c-1.96.85-3.85 1.73-5.68 2.64-1.28-.01-2.271-.11-2.271-.11-8.76-.4-9.449 2.15-7.33 5.52-10.96 7.02-18.6 15.311-21.8 24.34-1.04-.37-2.08-.779-3.12-1.22-9.56-4.06-11.63-9.9-17.51-18.15l2.5-13.91c2.5-13.92 12.59-19.71 12.59-19.71 8.931 4.67 16.48 7.84 26.15 10.01 3.97.89 7.38 2.28 10.39 4.27.001 0 5.341 3.66 6.081 6.32z" fill="#ffeec8"/><path d="M486.92 423.31c.64 1.76.84 3.31.69 4.65l-9.811 1.79c2.67-2.32 5.7-4.53 9.061-6.59l.06.15zM477.8 429.75l9.811-1.79c-.58 5.38-6.69 7.71-12.641 8.91-1.47.3-2.93.51-4.39.62 1.96-2.7 4.38-5.29 7.22-7.74z" fill="#fff"/><path d="M486.86 423.16c-3.36 2.06-6.391 4.27-9.061 6.59-2.84 2.45-5.26 5.04-7.22 7.74-5.58.46-11.01-.42-16.36-2.311 3.2-9.029 10.84-17.32 21.8-24.34 2.651 4.221 9.701 9.721 10.841 12.321z" fill="#ffeec8"/><path d="M297.53 342.84l.4 73.4s-6.12-.13-15.87-.33c-2.44-.06-5.1-.11-7.96-.18-29.07-.61-77.64-1.64-104.36-2.21-11.58-.24-19.06-.4-19.07-.4-1.31-.02 2.99-95.1 2.99-100.66 0-63.61 6.1-103.5 66.21-148.02l3.46-.96c4.41 7.95 10.89 14.08 19.13 17.33 4.37 1.72 8.92 2.51 13.53 2.47v.2c20.26-.6 38.31 14.77 56.32 32.78 21.62 21.62 43.34 90.58 54.35 106.72l-.08.06c12.75 19.01 78.56 54.07 78.56 54.07-15.689 11.22-8.46 42.5-24.34 39.37-7.11-1.4-98.68-38.14-106.96-49.82l-.09.07c-4.79-6.13-10.47-14.67-16.22-23.89z" fill="#a3d9ff"/><path d="M301.97 663.92c36.2 20.08 52.73 13.25 50.86 38.82-.38 5.06-16.09 8.76-24.38 8.76-8.44 0-20.68-1.58-26.64-3.44l-1.74.19c-3.5-12.04-17.15-12.44-48.28-24.15l4.21.33 5.29-2.529c.02-5.221.37-11.32.96-17.98h39.72z"/><path d="M282 418l30.51 128.41-9.48 117.51h-40.78c3.77-42.439 17.28-107.97 17.05-118.979-.19-9.101-7.13-121.07-5.3-124.94l.1-4.27c2.86.07 5.52.12 7.96.18L282 418z" fill="#787878"/><path d="M251.79 684.1l-46.43-3.609c2.9-39.391-12.6-89.32-12.68-150.49-.03-22.54-9.72-31.87-16.24-52.58-8.55-27.12-11.79-33.78-6.7-63.88v-.02c26.72.57 75.29 1.6 104.36 2.21L274 420c-1.83 3.87 5.11 115.84 5.3 124.94.23 11.01-13.28 76.54-17.05 118.979-.59 6.66-.94 12.76-.96 17.98L256 684.43l-4.21-.33z" fill="#787878"/><g fill="none" stroke="#231f20"><path d="M476.02 410.84c1.2-.77 2.44-1.53 3.721-2.26 1.88-1.09 3.84-2.14 5.88-3.15M491.3 402.79c20.66-8.97 47.99-14.43 77.95-14.43 64.46 0 116.73 25.26 116.73 56.43 0 1.06-.061 2.12-.181 3.16-1.34 11.75-10.12 22.54-24.1 31.29-21.351 13.37-54.82 21.979-92.45 21.979-13.19 0-25.87-1.06-37.69-3.02-12.31-2.021-23.699-5.021-33.77-8.8-8.05-3.011-15.26-6.521-21.43-10.45-.63-.391-1.25-.79-1.851-1.2-13.83-9.27-21.979-20.66-21.979-32.96 0-3.28.58-6.49 1.689-9.61" stroke-width="21"/><path d="M486.86 423.16c4.989-3.09 10.689-5.88 17-8.32 17.909-6.95 40.649-11.1 65.39-11.1 12.3 0 24.1 1.03 35.05 2.91 11.021 1.89 21.181 4.65 30.141 8.11 8.35 3.22 15.649 7.04 21.63 11.33 5.739 4.12 10.26 8.66 13.3 13.521 2.92 4.649 4.49 9.59 4.49 14.699 0 .16 0 .32-.011.48-.109 6.17-2.529 12.08-6.83 17.54-1.67 2.11-3.619 4.15-5.819 6.11M475.3 476.56c-4.27-4.199-7.359-8.72-9.08-13.479a25.434 25.434 0 0 1-1.569-8.771c0-2.27.31-4.51.92-6.699.949-3.5 2.649-6.891 5.01-10.12" stroke-width="7"/><path stroke-width="6.096" d="M487.61 427.96l39.21-7.16 31.43-5.74 46.05-8.41h.03"/><path stroke-width="7" d="M531.66 497.59l135.36-25.26.9-.17M598.04 421.85l36.4-7.08M465.26 447.67l.31-.06 90.13-17.53M605.53 436.11l50.54-10.02M469.5 463.07l83.4-16.53M493.26 490.3l4.53-.9 174.71-34.63M602.55 453.59l65.5-13.17M474.84 479.26l1.52-.31 105.84-21.27"/><path d="M685.8 447.95a85.177 85.177 0 0 1 1.84 17.649c0 39.761-27.43 74.131-67.21 90.351-15.489 6.319-32.85 9.89-51.199 9.95h-.49c-18.84 0-36.65-3.69-52.471-10.28-39.359-16.34-66.439-50.51-66.439-90.021 0-4.779-.061-14.22 2.7-20.81" stroke-width="21"/><path stroke-width="21" stroke-linecap="round" d="M516.27 555.62l-29.82 64.54-12.37 26.76-.91 1.97"/><path d="M504.11 646.42c.01.17.01.34.01.51 0 10.471-5.61 19.67-14.05 24.851-4.62 2.85-10.08 4.489-15.94 4.489-16.56 0-29.99-13.14-29.99-29.34 0-16.21 13.431-29.35 29.99-29.35 4.39 0 8.561.92 12.32 2.58 10.27 4.53 17.46 14.56 17.66 26.26zM587.15 742.12c7.97 5.28 13.21 14.2 13.21 24.33 0 16.21-13.41 29.35-29.98 29.35-16.56 0-29.99-13.14-29.99-29.35 0-8.76 3.931-16.63 10.16-22a30.14 30.14 0 0 1 18.7-7.311c.37-.02.75-.029 1.13-.029 6.21 0 11.98 1.85 16.77 5.01z" stroke-width="21"/><path stroke-width="21" stroke-linecap="round" d="M569.25 766.92V568.29"/><path stroke-width="21" d="M620.43 555.94v.01l40.95 86.27 6.54 13.77"/><path stroke-width="14" d="M473.17 651.48l16.9 20.3 60.48 72.67 18.7 22.47M474.13 646.94l29.98-.52 65.14-1.13 88.93-1.55"/><path stroke-width="14" d="M658.18 643.74l-71.03 98.38-17.9 24.8"/><path d="M274 420c-1.83 3.87 5.11 115.84 5.3 124.94.23 11.01-13.28 76.54-17.05 118.979-.59 6.66-.94 12.76-.96 17.98L256 684.43l-4.21-.33-46.43-3.609c2.9-39.391-12.6-89.32-12.68-150.49-.03-22.54-9.72-31.87-16.24-52.58-8.55-27.12-11.79-33.78-6.7-63.88M223.33 163.48c-8.27-14.9-9.31-36.16-1.19-56.75 12.46-31.57 41.75-49.59 65.42-40.25 23.69 9.34 32.79 42.51 20.33 74.08-10.16 25.76-31.52 42.49-51.9 42.72-4.61.04-9.16-.75-13.53-2.47-8.24-3.25-14.72-9.38-19.13-17.33zM297.53 342.84l.4 73.4s-6.12-.13-15.87-.33c-2.44-.06-5.1-.11-7.96-.18-29.07-.61-77.64-1.64-104.36-2.21-11.58-.24-19.06-.4-19.07-.4-1.31-.02 2.99-95.1 2.99-100.66 0-63.61 6.1-103.5 66.21-148.02" stroke-width="21"/><path d="M205.36 680.49c-.82 10.16-7.12 29.55 2.99 36.37 4.1 2.77 9.3 2.399 13.96 2.529 6.83.16 16.83-2.569 22.96.16 7.85 3.53 12.72 8.59 31.56 9.97 8.27.61 23.62-3.319 23.99-8.359.4-5.48.2-9.63-.75-12.91-3.5-12.04-17.15-12.44-48.28-24.15-.02 0-.04-.01-.06-.02M301.81 708.06c5.96 1.86 18.2 3.44 26.64 3.44 8.29 0 24-3.7 24.38-8.76 1.87-25.57-14.66-18.74-50.86-38.82M282 418l30.51 128.41-9.48 117.51h-40.77M313.84 366.66c8.28 11.68 99.85 48.42 106.96 49.82 15.88 3.13 8.65-28.15 24.34-39.37 0 0-65.81-35.06-78.56-54.07" stroke-width="21"/><path d="M491.3 402.79c-.74-2.66-6.08-6.32-6.08-6.32-3.01-1.99-6.42-3.38-10.39-4.27-9.67-2.17-17.22-5.34-26.15-10.01 0 0-10.09 5.79-12.59 19.71l-2.5 13.91c5.88 8.25 7.95 14.09 17.51 18.15 1.04.44 2.08.85 3.12 1.22 5.351 1.891 10.78 2.771 16.36 2.311 1.46-.11 2.92-.32 4.39-.62 5.95-1.2 12.061-3.53 12.641-8.91.149-1.34-.051-2.89-.69-4.65l-.06-.15c-1.141-2.6-8.19-8.1-10.841-12.32-2.119-3.37-1.43-5.92 7.33-5.52 0 0 .99.1 2.271.11 2.34.04 5.66-.22 5.77-1.95a2.147 2.147 0 0 0-.091-.691z" stroke-width="14"/><path d="M368.54 325.31c-.59-.57-1.21-1.35-1.88-2.33-11.01-16.14-32.73-85.1-54.35-106.72-18.01-18.01-36.06-33.38-56.32-32.78-.38.01-.77.03-1.15.05M266.09 288.1c2.88 5.55 17.38 32.18 31.44 54.73v.01c5.75 9.22 11.43 17.76 16.22 23.89.44.58.89 1.14 1.32 1.67M478.66 408.3l1.08.28 24.12 6.26 22.96 5.96 29.17 7.57" stroke-width="21"/><path stroke-width="21" d="M602.55 453.59l-1.25 7.34-19.1-3.25-30.32-5.16 1.02-5.98 2.8-16.46.29-1.71 2.26-13.3 39.79 6.78 9.64 1.64-2.15 12.62z"/></g><path fill="none" d="M0 0h850.394v850.394H0z"/></svg>