<svg xmlns="http://www.w3.org/2000/svg" width="850.394" height="850.394" viewBox="0 0 850.394 850.394" overflow="visible"><path d="M468.24 136.26v3.64h-88.32V98.01c0-8.04 6.52-14.57 14.57-14.57h59.18c8.05 0 14.57 6.53 14.57 14.57v38.25z" fill="#c8c8c8"/><path d="M526.52 154.47v608.27c0 8.04-6.52 14.56-14.569 14.56H335.3c-8.05 0-14.57-6.52-14.57-14.56V154.47c0-8.05 6.52-14.57 14.57-14.57h176.65c8.05 0 14.57 6.52 14.57 14.57z" fill="#fbee34"/><g fill="none" stroke="#231f20" stroke-width="21"><path d="M379.92 136.26V98.01c0-8.04 6.52-14.57 14.57-14.57h59.18c8.05 0 14.57 6.53 14.57 14.57v38.25M468.24 139.9h43.71c8.05 0 14.569 6.52 14.569 14.57v608.27c0 8.04-6.52 14.56-14.569 14.56H335.3c-8.05 0-14.57-6.52-14.57-14.56V154.47c0-8.05 6.52-14.57 14.57-14.57h132.94z"/></g><path fill="none" d="M0 0h850.394v850.394H0z"/></svg>