<svg id="Layer_1" xmlns="http://www.w3.org/2000/svg" viewBox="0 0 850 850"><style>.st0{fill:#ffeec8}.st1{fill:#a9d7f3}.st2{fill:#231f20}.st3{fill:none;stroke:#231f20;stroke-width:21;stroke-linecap:round;stroke-miterlimit:10}</style><path class="st0" d="M691.8 478l.7 3.5.5 3.3.3 3.2v2.8l-.3 2.7-.5 2.3-.7 2.2-.8 2-1.2 2-1.3 1.5-1.2 1.5-1.5 1.3-1.8 1.2-1.7 1-1.8.8-2 .7-4 .8-4.2.5-4.3-.3-4.2-.5-4-.7-3.8-1.3-3.5-1.5-3-1.7-1.2-1-1.3-1-2.2-3-2-3.5-2-4-1.8-4.3-1.5-4.5-1.2-4.7-1-4.5-1.8-9-1.2-7.5-1-7.3 36.7-18h.3l2 2.8 1.7 2.5 1.8 2.2 1.7 1.8 3.3 3 3 3.2 1.5 1.8 1.2 2.2 1.5 2.5 1.5 3.3 1.5 3.7 1.5 4.5 1.5 5.3zM583 222.5l-4-2-3.7-2.5-3.8-2.5-3.2-2.7-3.3-2.8-3.2-3-2.8-3.2-2.7-3.3-2.3-3.5-2.2-3.5-2-3.7-1.5-3.8-1.5-4-1.3-4-.7-4-.5-4.2-.3-3-.2-3 .2-3.5.3-3.5.5-3.3.7-3.2.8-3.3 1-3.2 1.2-3 1.3-3.3 1.7-3 1.5-2.7 2-3 2-2.5 2.3-2.8 2.2-2.5 2.3-2.5 2.7-2.5 2.8-2.2 3-2.5 3.2-2 3.3-2 3.2-2 3.5-1.8 3.8-1.5 3.5-1.5 4-1.5 3.7-1 4-1 4.3-.7 4-.8 4.2-.5 4.3-.2h8.5l4.2.2 4 .5 4 .5 4 .8 4 1 3.8 1 3.7 1.2 3.5 1.5 3.5 1.5 3.5 1.8 3.3 1.7 3.2 1.8 3.3 2.2 2.7 2 3 2.5 2.8 2.3 2.5 2.5 2.5 2.7 2.2 2.5 2 3 2 2.8 1.8 3 1.7 3 1.5 3.2 1.3 3.3 1 3.2 1 3.3.7 3.5.5 3.5.3 3.5.2 3.5-.2 3.5-.3 3.5-.5 3.5-.7 3.2-1 3.5-1 3.3-1.3 3.2-1.5 3-1.7 3-1.8 3-2 3-2 2.8-2.2 2.7-2.5 2.5-2.5 2.5-2.8 2.5-3 2.3-2.7 2.2-3.3 2-3.2 2-3.3 1.8-3.5 1.7-3.5 1.5-3.5 1.3-3.7 1.2-3.8 1-4 1-4 .8-4 .7-4 .3-4.2.5h-4.3l-5.7-.3-5.8-.5-5.5-.7-5.5-1.3-5.2-1.5-5-1.5-5-2z"/><path class="st1" d="M666.3 433h-.3l-36.7 18-47.5-81-66.3-113 13.8-41 7.2-22.7 7.3-23.3.5-.2.5 4.2.7 4 1.3 4 1.5 4 1.5 3.8 2 3.7 2.2 3.5 2.3 3.5 2.7 3.3 2.8 3.2 3.2 3 3.3 2.8 3.2 2.7 3.8 2.5 3.7 2.5 4 2 13.8 36.5 24.2 64 13.3 34 12 30.8 10 24.5 4 8.7 2.7 6z"/><path class="st1" d="M515.5 257l-10 29.3-7.7 22.5-7.3 19.7 4.8 23 5 24.5 6.2 28.5 6.8 30 3.5 14.5 3.5 13.8 3.2 12.5 3 10.7 3 8.8 1.3 3.5 1.2 3 2.5 4.7-2.5 1-45.2 19.5-1.3-2.7-2-5.5-6.2-17.3-16.8-47.7-23.2-67.5-2.8-5.8-2.2-6-1.8-6-1.5-6.2-1-6.5-.7-6.5-.5-6.5v-13.5l.5-7 .5-7 .7-7 2-14.3 2.5-14.2-4.2-.5-12 4.5-11.8 4.2-11.2 3.5-10.5 3.5-10.3 3-9.7 2.5-9.3 2.5-9 2-8.5 2-8.2 1.5-14.5 2.5-12.5 1.8-10.3 1v1.2l5.5 30.5 4.8 30 4.2 28.8 3.8 26L312 452l2.3 17.3 1.7 15.2v71.3l-5 140.7-.5 14.3-26.5 1-57.7 2-8 .2.7-86.7.8-68.8.2-50.2v-10.5l-.2-10.3-.5-10.2-.8-10.8-1.5-11.2-1.7-11.8-2.3-13-3.2-14-1.5-5.7-1.5-5.3-1.8-5.2-1.7-5-2-5-2-4.5-4.5-9.3-4.5-8.5-4.8-8.5-10-17-5-8.7-5-9.3-4.7-9.7-4.5-10.3-2-5.5-2-5.7-2-6-2-6.3-1.5-6.5-1.8-7-1.5-7-1.2-7.7-1.3-9-.5-9v-8.5l.8-8.3 1-8 1.7-7.7 2-7.3 2.8-7.2 3-6.8 3.2-6.7 3.8-6.3 4.2-6 4.3-5.7 4.7-5.5 5-5.3 5-5 5.5-4.5 5.5-4.5 5.5-4.2 5.8-4 6-3.8 5.7-3.5 5.8-3.2 6-3 5.7-2.8 5.8-2.7 5.7-2.3 5.5-2.2L261 96l9.8-2.7 10-2.5 10.2-2.5 10.5-2.3 10.5-2 10.5-2 10.8-1.5 10.5-1.5 10.7-1.5 10.8-1 10.5-1 10.7-.7 10.5-.5 10.3-.5 10.2-.3h19.8l9.7.3 9.5.5 9 .5 8.8 1 8.5 1 8.2 1 7.8 1.5 7.5 1.5 6.7 1.5 6.5 2 6 2 5.8 2 5 2.5 4.2 2.5 4 2.7 3.3 2.8 2.7 2.7 2.8 2.3 4.7 3.5 4.3 3.2 2 2 1.7 2 .5 1.5-2.7 2.5-2.3 2.5-2.2 2.5-2.3 2.8-2 2.5-2 3-1.5 2.7-1.7 3-1.3 3.3-1.2 3-1 3.2-.8 3.3-.7 3.2-.5 3.3-.3 3.5-.2 3.5.2 3 .3 3-.5.2-7.3 23.3-7.2 22.7z"/><path class="st0" d="M561 556.8l.8 4 .5 3.5v6.5l-.5 2.7-.5 2.5-.8 2.5-1 2-1.2 2-1.5 1.8-1.5 1.5-1.5 1.2-2 1.3-1.8 1-2 .7-2.2.8-2 .5-2.3.2-4.5.3-4.7-.3-4.5-.7-4.3-1-4-1.5-3.7-1.8-3-1.7-1.3-1.3-1.5-1.2-2.5-3.3-2.5-3.7-2.5-4.3-2.2-4.5-2.3-5-2-5-1.7-5-3-9.2-2.5-8-2-7.8L532 507l2.5-1 2 3.5 2 3 2 2.5 1.8 2.3 3.5 3.5 3.2 3.7 1.5 2 1.5 2.3 1.5 3 1.5 3.2 1.5 4.3 1.5 4.7 1.5 6z"/><path class="st2" d="M392.3 726.8l7.5 3.5 6.2 2.7 9.8 4 3.5 1.5 1.2 1 1.3.8.7 1 .8 1 .2 1.2.3 1.3-.3 1.7-.2 1.8-.5 1.5-.8 1.2-1 1.3-1 1.2-1.2 1.3-1.3 1-3 1.5-3.2 1.5-3.8 1-4 .7-4.2.5-4 .3h-8l-3.8-.3-3.5-.5-3-.5-2.2-.5-4.3.3-.2-1.3-.5-1-.8-1-.7-1-1.3-.7-1.2-.8-3.5-1.7-9.8-4-6.2-2.5-7.3-3.5-14.7-7.5L306 725l-22-11.7v-1.5l26.5-1 .5-14.3 26.3-.5.2 1.8 21.8 11.7 18.2 9.8z"/><path class="st2" d="M370.5 759.8v.5l-.2 1.2-.3 1-1 2.3-1.5 2-2 2-2.5 2-3 1.5-3.5 1.5-3.7 1.2-4.3 1-4.5.5-4.7.5h-5l-5.3-.5-5.2-.7-5.5-1-5.5-1.8-5.3-1.5-5-1-4.5-.7-4-.3h-4l-3.5.3-3.2.5-3 .7-5.8 1.5-5.2 2-5.3 1.3-2.5.5-2.7.5h-5.3l-5-.3-4.7-.5-2.3-.7-2.2-.8-2-.7-2-1.3-1.8-1.2-1.7-1.5-1.3-1.8-1.5-2-1-2.2-1-2.5-.2-2.5V753l.5-3.2 1.5-6.8 1.5-7 .5-3.5.5-3.2.2-3.3-.2-3-.5-2.7-1-2.5-.5-1.3-1-1-.8-1-1.2-.7 57.7-2v1.5l22 11.7 18.3 9.8 14.7 7.5 7.3 3.5 6.2 2.5 9.8 4 3.5 1.7 1.2.8 1.3.7.7 1 .8 1 .5 1z"/><path class="st1" d="M369.3 461.8l-5.5 233.5-26.5.7-26.3.5 5-140.7v-71.3l-1.7-15.2L312 452l-2.7-22.2-3.8-26-4.2-28.8-4.8-30-5.5-30.5v-1.2l10.3-1 12.5-1.8 14.5-2.5 8.2-1.5 8.5-2 .5 2 2 8 2 9.8 2.3 11 2 12 4 25.5 3.5 26 3.2 24L367 443z"/><path class="st3" d="M566.5 116l2.8-2.2 3-2.5 3.2-2 3.3-2 3.2-2 3.5-1.8 3.8-1.5 3.5-1.5 4-1.5 3.7-1 4-1 4.3-.7 4-.8 4.2-.5 4.3-.2h8.5l4.2.2 4 .5 4 .5 4 .8 4 1 3.8 1 3.7 1.2 3.5 1.5 3.5 1.5 3.5 1.8 3.3 1.7 3.2 1.8 3.3 2.2 2.7 2 3 2.5 2.8 2.3 2.5 2.5 2.5 2.7 2.2 2.5 2 3 2 2.8 1.8 3 1.7 3 1.5 3.2 1.3 3.3 1 3.2 1 3.3.7 3.5.5 3.5.3 3.5.2 3.5-.2 3.5-.3 3.5-.5 3.5-.7 3.2-1 3.5-1 3.3-1.3 3.2-1.5 3-1.7 3-1.8 3-2 3-2 2.8-2.2 2.7-2.5 2.5-2.5 2.5-2.8 2.5-3 2.3-2.7 2.2-3.3 2-3.2 2-3.3 1.8-3.5 1.7-3.5 1.5-3.5 1.3-3.7 1.2-3.8 1-4 1-4 .8-4 .7-4 .3-4.2.5h-4.3l-5.7-.3-5.8-.5-5.5-.7-5.5-1.3-5.2-1.5-5-1.5-5-2-4.8-2.5-4-2-3.7-2.5-3.8-2.5-3.2-2.7-3.3-2.8-3.2-3-2.8-3.2-2.7-3.3-2.3-3.5-2.2-3.5-2-3.7-1.5-3.8-1.5-4-1.3-4-.7-4-.5-4.2-.3-3-.2-3 .2-3.5.3-3.5.5-3.3.7-3.2.8-3.3 1-3.2 1.2-3 1.3-3.3 1.7-3 1.5-2.7 2-3 2-2.5 2.3-2.8 2.2-2.5 2.3-2.5zM284 713.3l22 11.7 18.3 9.8 14.7 7.5 7.3 3.5 6.2 2.5 9.8 4 3.5 1.7 1.2.8 1.3.7.7 1 .8 1 .5 1 .2 1.3v.5l-.2 1.2-.3 1-1 2.3-1.5 2-2 2-2.5 2-3 1.5-3.5 1.5-3.7 1.2-4.3 1-4.5.5-4.7.5h-5l-5.3-.5-5.2-.7-5.5-1-5.5-1.8-5.3-1.5-5-1-4.5-.7-4-.3h-4l-3.5.3-3.2.5-3 .7-5.8 1.5-5.2 2-5.3 1.3-2.5.5-2.7.5h-5.3l-5-.3-4.7-.5-2.3-.7-2.2-.8-2-.7-2-1.3-1.8-1.2-1.7-1.5-1.3-1.8-1.5-2-1-2.2-1-2.5-.2-2.5V753l.5-3.2 1.5-6.8 1.5-7 .5-3.5.5-3.2.2-3.3-.2-3-.5-2.7-1-2.5-.5-1.3-1-1-.8-1-1.2-.7-1.3-.8M310 696.5h1l26.3-.5 26.5-.7 5.5-233.5L367 443l-2.5-20.2-3.2-24-3.5-26-4-25.5-2-12-2.3-11-2-9.8-2-8M337.5 697.8l21.8 11.7 18.2 9.8 14.8 7.5 7.5 3.5 6.2 2.7 9.8 4 3.5 1.5 1.2 1 1.3.8.7 1 .8 1 .2 1.2.3 1.3-.3 1.7-.2 1.8-.5 1.5-.8 1.2-1 1.3-1 1.2-1.2 1.3-1.3 1-3 1.5-3.2 1.5-3.8 1-4 .7-4.2.5-4 .3h-8l-3.8-.3-3.5-.5-3-.5-2.2-.5M446.5 194.8l-1 10.5-1.2 10.5-1.5 10.5-2 10.5L437 258l-4 21.3-2.5 14.2-2 14.3-.7 7-.5 7-.5 7v13.5l.5 6.5.7 6.5 1 6.5 1.5 6.2 1.8 6 2.2 6 2.8 5.8 23.2 67.5 16.8 47.7 6.2 17.3 2 5.5 1.3 2.7 2 7.8 2.5 8 3 9.2 1.7 5 2 5 2.3 5 2.2 4.5 2.5 4.3 2.5 3.7 2.5 3.3 1.5 1.2 1.3 1.3 3 1.7 3.7 1.8 4 1.5 4.3 1 4.5.7 4.7.3 4.5-.3 2.3-.2 2-.5 2.2-.8 2-.7 1.8-1 2-1.3 1.5-1.2 1.5-1.5 1.5-1.8 1.2-2 1-2 .8-2.5.5-2.5.5-2.7v-6.5l-.5-3.5-.8-4-1.5-6.8-1.5-6-1.5-4.7-1.5-4.3-1.5-3.2-1.5-3-1.5-2.3-1.5-2-3.2-3.7-3.5-3.5-1.8-2.3-2-2.5-2-3-2-3.5-2.5-4.7-1.2-3-1.3-3.5-3-8.8-3-10.7-3.2-12.5-3.5-13.8-3.5-14.5-6.8-30-6.2-28.5-5-24.5-4.8-23 7.3-19.7 7.7-22.5 10-29.3 13.8-41 7.2-22.7 7.3-23.3"/><path class="st3" d="M515.5 257l66.3 113 47.5 81 1 7.3 1.2 7.5 1.8 9 1 4.5 1.2 4.7 1.5 4.5 1.8 4.3 2 4 2 3.5 2.2 3 1.3 1 1.2 1 3 1.7 3.5 1.5 3.8 1.3 4 .7 4.2.5 4.3.3 4.2-.5 4-.8 2-.7 1.8-.8 1.7-1 1.8-1.2 1.5-1.3 1.2-1.5 1.3-1.5 1.2-2 .8-2 .7-2.2.5-2.3.3-2.7V488l-.3-3.2-.5-3.3-.7-3.5-1.8-6.2-1.5-5.3-1.5-4.5-1.5-3.7-1.5-3.3-1.5-2.5-1.2-2.2-1.5-1.8-3-3.2-3.3-3-1.7-1.8-1.8-2.2-1.7-2.5-2-2.8-3.3-6-2.7-6-4-8.7-10-24.5-12-30.8-13.3-34-24.2-64-13.8-36.5-.7-1.7M272 314h4.8l6-.2 8.2-.5 10.3-1 12.5-1.8 14.5-2.5 8.2-1.5 8.5-2 9-2 9.3-2.5 9.7-2.5 10.3-3 10.5-3.5 11.2-3.5 11.8-4.2 12-4.5"/><path class="st3" d="M566 114.5l-1.7-2-2-2-4.3-3.2-4.7-3.5-2.8-2.3-2.7-2.7-3.3-2.8-4-2.7-4.2-2.5-5-2.5-5.8-2-6-2-6.5-2-6.7-1.5-7.5-1.5-7.8-1.5-8.2-1-8.5-1-8.8-1-9-.5-9.5-.5-9.7-.3h-19.8l-10.2.3-10.3.5-10.5.5-10.7.7-10.5 1-10.8 1-10.7 1.5-10.5 1.5-10.8 1.5-10.5 2-10.5 2-10.5 2.3-10.2 2.5-10 2.5L261 96l-10.5 3.8-5.5 2.2-5.7 2.3-5.8 2.7-5.7 2.8-6 3-5.8 3.2-5.7 3.5-6 3.8-5.8 4-5.5 4.2-5.5 4.5-5.5 4.5-5 5-5 5.3-4.7 5.5-4.3 5.7-4.2 6-3.8 6.3-3.2 6.7-3 6.8-2.8 7.2-2 7.3-1.7 7.7-1 8-.8 8.3v8.5l.5 9 1.3 9 1.2 7.7 1.5 7 1.8 7 1.5 6.5 2 6.3 2 6 2 5.7 2 5.5 4.5 10.3 4.7 9.7 5 9.3 5 8.7 10 17 4.8 8.5 4.5 8.5 4.5 9.3 2 4.5 2 5 1.7 5 1.8 5.2 1.5 5.3 1.5 5.7 3.2 14 2.3 13 1.7 11.8 1.5 11.2.8 10.8.5 10.2.2 10.3v10.5l-.2 50.2-.8 68.8-.7 86.7 8-.2 57.7-2 26.5-1 .5-14.3 5-140.7v-71.3l-1.7-15.2L312 452l-2.7-22.2-3.8-26-4.2-28.8-4.8-30-5.5-30.5M486.8 526.5L532 507M629.3 451l36.7-18"/></svg>