<svg xmlns="http://www.w3.org/2000/svg" width="850.394" height="850.394" viewBox="0 0 850.394 850.394" overflow="visible"><path fill="#ffeec8" d="M627.2 726.94l1.42-1.76 20.86 16.86-18.22 22.52-20.85-16.85zM208.51 207.29h3.85v47.69h-3.85zM627.2 635.8h56.89v47.561H627.2zM627.2 588.12h56.89v47.68H627.2z"/><path fill="#ffeec8" d="M627.2 540.56h56.89v47.561H627.2zM627.2 493h56.89v47.56H627.2zM627.2 445.33h56.89V493H627.2zM627.2 397.76h56.89v47.57H627.2zM627.2 350.08h56.89v47.68H627.2zM627.2 302.53h56.89v47.55H627.2zM627.2 254.98h56.89v47.55H627.2zM627.2 207.29h56.89v47.69H627.2zM684.09 159.73v47.56H627.2v-47.56h56.84z"/><path fill="#ffeec8" d="M684.04 88.06v71.67H161.42V88.06zM565.3 635.8h61.9v47.561h-61.9zM565.3 588.12h61.9v47.68h-61.9z"/><path fill="#ffeec8" d="M565.3 540.56h61.9v47.561h-61.9zM565.3 493h61.9v47.56h-61.9zM565.3 445.33h61.9V493h-61.9zM565.3 397.76h61.9v47.57h-61.9zM565.3 350.08h61.9v47.68h-61.9zM565.3 302.53h61.9v47.55h-61.9zM565.3 254.98h61.9v47.55h-61.9zM565.3 207.29h61.9v47.69h-61.9zM565.3 159.73h61.9v47.56h-61.9zM262.9 635.8h302.4v47.561H262.9zM262.9 588.12h302.4v47.68H262.9z"/><path fill="#ffeec8" d="M262.9 540.56h302.4v47.561H262.9zM262.9 493h302.4v47.56H262.9zM262.9 445.33h302.4V493H262.9zM262.9 397.76h302.4v47.57H262.9zM262.9 350.08h302.4v47.68H262.9zM262.9 302.53h302.4v47.55H262.9zM262.9 254.98h302.4v47.55H262.9zM262.9 207.29h302.4v47.69H262.9zM262.9 159.73h302.4v47.56H262.9zM161.43 635.8H262.9v47.561H161.43zM161.43 588.12H262.9v47.68H161.43z"/><path fill="#ffeec8" d="M161.43 540.56H262.9v47.561H161.43zM161.43 493H262.9v47.56H161.43zM161.43 445.33H262.9V493H161.43zM262.9 397.76v47.57H161.43v-47.57h47.08v20.23h3.85v-20.23zM212.36 350.08h50.54v47.68h-50.54zM212.36 302.53h50.54v47.55h-50.54zM212.36 254.98h50.54v47.55h-50.54zM212.36 207.29h50.54v47.69h-50.54zM212.36 159.73h50.54v47.56h-50.54z"/><path fill="#cb82b7" d="M208.51 159.73h3.85v47.56h-3.85z"/><path fill="#ffeec8" d="M161.43 350.08h47.08v47.68h-47.08zM161.43 302.53h47.08v47.55h-47.08zM161.43 254.98h47.08v47.55h-47.08zM161.43 207.29h47.08v47.69h-47.08zM161.43 159.73h47.08v47.56h-47.08z"/><g fill="none" stroke="#231f20"><path stroke-width="21" d="M161.43 159.73h-.01V88.06h522.62v71.67"/><path stroke-width="21" d="M212.36 159.73H684.09V683.36H161.43V159.73h47.08"/><path stroke-width="14" d="M161.43 207.29h522.66M161.43 254.98h522.66M161.43 302.53h522.66M161.43 350.08h522.66M161.43 397.76h522.66M161.43 445.33h522.66M161.43 493h522.66M161.43 540.56h522.66M161.43 588.12h522.66M161.43 635.8h522.66"/><path stroke-width="21" d="M212.36 397.76v20.23h-3.85V159.73h3.85V350.08z"/><path stroke-width="14" d="M262.9 159.73V683.36M565.3 159.73V683.36M631.26 764.56l-20.85-16.85 16.79-20.77 1.42-1.76 20.86 16.86zM627.2 159.73V730.03"/></g><path fill="none" d="M0 0h850.394v850.394H0z"/></svg>