<svg xmlns="http://www.w3.org/2000/svg" width="862.644" height="858.644" viewBox="0 0 862.644 858.644" overflow="visible"><path d="M750.69 413.39C718 484 646.41 519.79 614 536c-44 22-91.49 59.43-138 70-44 10-52.58 13.81-74 12 0 0-39.85 7.97-71.62-19.63-16.98.78-51.74-8.13-62.75-14.7l.05-.09c-66.99-51.15-152.12-96.23-171.06-190.5 2.96-59.15 13.99-123.64 45.24-154.89 65.85-65.84 219.49-141.67 347.18-117.72 127.7 23.94 179.58 53.87 225.47 139.67 22.17 41.44 32.7 98.71 36.2 153.25h-.02z" fill="#f6cc4b"/><path d="M614 536c32.41-16.21 104-52 136.69-122.61h.02c3.75 58.39-.55 113.66-7.26 143.06-9.76 42.79-196.54 108.75-282.34 146.66-85.8 37.909-152.55 28.52-189.55 7.979-53.88-29.93-106.29-82.359-136.68-112.74-27.94-27.93-34.92-80.81-34.92-80.81s-6.61-58.95-3.34-124.46c18.94 94.27 104.07 139.35 171.06 190.5l-.05.09c11.01 6.57 45.77 15.48 62.75 14.7C362.15 625.97 402 618 402 618c21.42 1.81 30-2 74-12 46.51-10.57 94-48 138-70z" fill="#ffeec8"/><g fill="none" stroke="#000" stroke-width="23.944"><path d="M750.71 413.39c3.75 58.39-.55 113.66-7.26 143.06-9.76 42.79-196.54 108.75-282.34 146.66-85.8 37.909-152.55 28.52-189.55 7.979-53.88-29.93-106.29-82.359-136.68-112.74-27.94-27.93-34.92-80.81-34.92-80.81s-6.61-58.95-3.34-124.46c2.96-59.15 13.99-123.64 45.24-154.89 65.85-65.84 219.49-141.67 347.18-117.72 127.7 23.94 179.58 53.87 225.47 139.67 22.17 41.441 32.7 98.711 36.2 153.251z"/><path d="M750.69 413.39C718 484 646.41 519.79 614 536c-44 22-91.49 59.43-138 70-44 10-52.58 13.81-74 12 0 0-39.85 7.97-71.62-19.63-.06-.061-.12-.11-.18-.16M95.91 389.37c.22 1.25.46 2.48.71 3.71 18.94 94.27 104.07 139.35 171.06 190.5M330.38 598.37c.13 0 .27-.01.4-.021" stroke-linecap="round" stroke-linejoin="round"/></g><path fill="none" d="M0 0h850.394v850.394H0z"/></svg>