<svg id="Layer_1" xmlns="http://www.w3.org/2000/svg" viewBox="0 0 850 850"><style>.st0{fill:#9c5c25}.st1{fill:#a8d7f4}.st2{fill:#231f20}.st3{fill:#797878}.st4{fill:#ffeec8}.st5{fill:none;stroke:#231f20;stroke-width:21;stroke-linecap:round;stroke-miterlimit:10}</style><path class="st0" d="M359.3 581.8l-.2-.3 3.7-7.2 3.5-7 3-6.8 2.8-6.7 2.7-6.8 4.8-13 3.7-11.7 3-10 2.3-8 1.5-6.8-2.3-.7 19.3-10.5 8.5-4.8 7-4.2 4.2-2.8 3.8-3 3.2-3 2.5-3 2.3-2.7 1.5-3 1-2.8.7-3 .3-2.7v-2.8l-.3-2.7-.5-2.5-.7-2.5-1-2.5-1.3-2.3-1.2-2.2-1.3-1.8-1.7-1.7-2.5-1.8-2.8-1.5-3-1.7-3.5-1.8-8-3.5h5.5l2-3.2 2-4.3 2.5-4.7 2.3-5.5 5-12.3 4.7-12.7 4.3-12 3.5-10.3 3.2-9.5-5.5-2.2 10.5-2.8 5.3-1.5-.3-1.7 7.3-4.8 7.5-5 8.5-5.7 8.5-6 7-5.8 3-2.5 2-2 1.2-1.7v-1.3l-2.5-7.2-2.2-5.5-1.5-3-1.8-2.8-1.7-3-2-2.7-2.3-2.5-2.5-2.3-2.7-2-3.3-1.5-1.5-.5-1.7-.2-1.8-.3-2-.2 3-5 5-21.8 9.3-42 23.5-106.5 142.7 67.3-2.2 11.2-2.8 13.3-4.2 18-5 22-6.5 26-7.5 29.5-8.8 32.5-10 35.2-11 37.5-6 19.5-6.2 20-6.8 20.3-6.7 20.5-7.3 21-7.5 21-7.7 21.5-8.3 21.2-8.2 21.5-8.8 21.8-9 21.5-9.2 21.5-10 22-9.3 19.7-8.5 17.8-7.7 15.7-7 13.5-5.8 11.3-8.5 15.5-2.7-1.3-219 7 6-5 6.2-5.5 5.5-5.5 5.8-5.7 5.5-6 5.7-6.5 8.8-10.5 8.5-11 8.5-11.3 8.2-11.5 8-11.5 7.5-11.5 7.3-11 6.7-10.7 11.8-19.8 9.2-16 6.8-11.7z"/><path class="st1" d="M481.1 241.5l-10.3 3.8-8.5 3.2-7.5 3-7 2.3-7.5 2.2-8.5 2-10.2 2-13 1.8-6 .7-5.3.3-4.5-.3-4.5-.5-4.5-.7-5-1.3-13.2-3.2-4 1.2-1.5-5-1.8-4.7-3.7-9.5-4-9-4-7.8-3.8-6.7-3-5-2.7-4.5-.3-.5 2.8-1.5 2.7-2 2.5-2 2.3-2.3 5.2 2 5.5 3.5 6.3 3.5 7.7 4 4.3 2 4.5 1.8 4.7 1.7 4.8 1.5 4.7 1 4.5.5 4.8.3h2.2l2.3-.3 6.5-1 7-1.2 13.7-3 13.8-3.3 12.7-3.2 20-5.3 7.8-2.5 2 .5-9.3 42z"/><path class="st2" d="M240.8 695.3v1.2l.3 4 .7 3.3 1 3 1.5 2.7 1.5 2.3 1.8 2 2 1.5 1.7 1.5 2 1 1.8 1 3.2 1.2 2.5 1 .5.5.3.3 3.2 2.5-5.7 6.5-5.5 6-5.8 5.7-5.5 5.5-3.5-.5-6.7-1-11.3-.7-16.7-1-4.3-.5-1.7-.3-1.5-.5-1.5-.7-1.3-.5-1.2-1-1-.8-.8-1-.7-1.2-.5-1.3-.3-1.2-.5-2.8-.2-3.2.5-3.5.7-3.8 1-4.2 1.3-4.3 3.5-9.5 3.7-10.2 41 1zM355.3 557.5l2.5 1.8 2 1.7 1.5 2 1 2.3.5 2 .3 2.2-.5 2-.8 2.3-1.5 2-1.7 1.7-2 1.8-2.8 1.2-2.7 1-3.3.8-3.5.2-3.7-.5-4.3-1-4.5-1.5-5-2-5-2.7-5.2-3-5.3-3.3-5-3.5-5-3.5-7.5-6-6.5-5.7-2.7-2.5-2.3-2.5-1.7-2.3-1-1.7v-3.3l.5-3.5.7-4.5 1.5-5 .8-2.7 1.2-2.8 1.5-2.7 1.8-2.5 2-2.8 2.2-2.2h1.5l36 19 1.8 3.5 2.2 3.7 2.8 4.5 3.7 5 2.3 2.5 2.2 2.5 2.5 2.3 2.8 2.2 2.7 1.8z"/><path class="st3" d="M356.1 462.8l-13.3 11.5-7 5.5-6.7 5.5-6.8 5-6.5 4.2-6 3.5-2.7 1.5-2.5 1-3.8 1.8-3.5 1.7-3 2.3-2.5 2.5-2.2 2.2-2 2.8-1.8 2.5-1.5 2.7-1.2 2.8-.8 2.7-1.5 5-.7 4.5-.5 3.5v3.3l1 1.7 1.7 2.3 2.3 2.5 2.7 2.5 6.5 5.7 7.5 6-1 2.3V575l-.5 7.3-1 8-.5 4-1 4.2-1 4-1 4-1.5 3.8-1.5 3.5-3.5 6.2-4 6-4 6-4 5.8-8.5 11-8.2 10.5-4 4.7-3.5 5-3.3 4.5-2.7 4.8-2.3 4.5-2 4.2-.5 2-.5 2.3-.5 2v2h-.5l-41-1 3.5-9.3 3.3-9.7 3-10 1.5-5 1-5.3 2-8.2 2.2-8 2.3-7.5 2.5-6.8 2.7-6.5 2.8-6 2.5-5.5 2.7-5 2.8-4.5 2.5-4 4.5-6.7 3.5-4.5 2.2-2.8.3-.7.2-1.3.3-4.5-.3-6.5-.5-8.2-1.5-20-2.2-22.8-2.3-22.5-2.2-19.7-2.5-20.3 1.7 2.5 1.5 2.5 2 2.3 2 2 2 1.7 2.3 1.8 2.2 1.2 2.8 1.3 4.7 2 4.5 1.7 4.8 1.3 4.7 1.2 4.8.8 4.7.7 4.5.5 4.5.3 4.5.2 4.5-.2 8.5-.5 8-1 7.5-1.5 7-1.5 6.3-2 5.7-1.8 4.8-1.7 6.5-2.8 2.5-1.2z"/><path class="st3" d="M364.3 401.3l5.5 2.2 6 2.3 12.8 4.7 13.2 4.8 12.5 4.7 8 3.5 3.5 1.8 3 1.7 2.8 1.5 2.5 1.8 1.7 1.7 1.3 1.8 1.2 2.2 1.3 2.3 1 2.5.7 2.5.5 2.5.3 2.7v2.8l-.3 2.7-.7 3-1 2.8-1.5 3-2.3 2.7-2.5 3-3.2 3-3.8 3-4.2 2.8-7 4.2-8.5 4.8-19.3 10.5-21 11.2-18.7 10-18.8 9.8-36-19h-1.5l2.5-2.5 3-2.3 3.5-1.7 3.8-1.8 2.5-1 2.7-1.5 6-3.5 6.5-4.2 6.8-5 6.7-5.5 7-5.5 13.3-11.5-.5-.5-2.5 1.2-6.5 2.8-4.8 1.7-5.7 1.8-6.3 2-7 1.5-7.5 1.5-8 1-8.5.5-4.5.2-4.5-.2-4.5-.3-4.5-.5-4.7-.7-4.8-.8-4.7-1.2-4.8-1.3-4.5-1.7-4.7-2-2.8-1.3-2.2-1.2-2.3-1.8-2-1.7-2-2-2-2.3-1.5-2.5-1.7-2.5-1.3-2.5-1.5-2.7-1.2-3-1-3-1.8-6.5-1.5-7-1.2-7.3-.8-7.7-.5-8-.2-8.3h2l3.2 1.5 4 1.8 5.3 2 6.7 2.2 7.8 2.5 8.7 2.3 9.5 2.2 10.3 1.8 5.2.5 5.5.5 5.5.5h11.5l5.8-.3 6-.7 5.7-.8 6-1.2 6-1.3 5.8-1.7 5.7-2.3 6-2.5 5.8-3z"/><path class="st4" d="M318.1 89.5h2.5l2.2.3 2.5.5 2.3.5 4.5 1.5 4.2 2 4.3 2.5 3.7 3 3.8 3.5 3.2 4 3 4.2 2.8 4.5 2.5 5 2 5.3 1.5 5.7 1.2 5.8.5 6 .3 6v3.7l-.3 3.5-.5 3.5-.5 3.5-.7 3.3-.8 3.2-1 3.3-1 3-1.2 3-1.5 2.7-1.5 2.8-1.5 2.7-1.8 2.5-1.7 2.5-2 2.3-2 2.2-2.3 2.3-2.5 2-2.7 2-2.8 1.5-4.2 2.2-2.5.8-2.3.7-2.2.5-2.5.5-2.5.3h-4.8l-2.5-.3-2.2-.5-2.5-.5-4.5-1.5-4.3-2-4-2.5-4-3-3.5-3.5-3.5-3.7-3-4.5-2.7-4.5-2.3-5-2-5.3-1.7-5.7-1-5.8-.8-6-.2-6.2.2-6 .8-6 1-5.8 1.7-5.7 2-5.3 2.3-5 2.7-4.5 3-4.2 3.3-4 3.7-3.5 3.8-3 4.2-2.5 4.3-2 4.5-1.5 2.5-.5 2.2-.5 2.5-.3zM504.3 302.5v1.3l-1.2 1.7-2 2-3 2.5-7 5.8-8.5 6-8.5 5.7-7.5 5-7.3 4.8-10-35.3 4-2.5 3-2.7 2.5-2.8 2-3 1.8-2.7 1.2-2.5 1.3-2.5 2-4.8 1.5-4 .5-1.5 1-1.5.7-1.2 1.3-.8 1.2-.5 1.5-.2 2 .2 1.8.3 1.7.2 1.5.5 3.3 1.5 2.7 2 2.5 2.3 2.3 2.5 2 2.7 1.7 3 1.8 2.8 1.5 3 2.2 5.5z"/><path class="st1" d="M366.6 356.5v2.3l-.3.5-.5 1.2-.5 4-.5 5.3-.2 6.2-.3 13.3v10.5l-1.2.7-5.8 3-6 2.5-5.7 2.3-5.8 1.7-6 1.3-6 1.2-5.7.8-6 .7-5.8.3h-11.5l-5.5-.5-5.5-.5-5.2-.5-10.3-1.8-9.5-2.2-8.7-2.3-7.8-2.5-6.7-2.2-5.3-2-4-1.8-3.2-1.5h-2v-9.2l.5-9.5.5-9.8.7-9.7 2-19.3 2.5-18.7 4.8-34 2-14 .7-6 .5-5.5.3-4.3.7-4 .8-3.7 1-3.8 1.2-3.7 1.3-3.5 1.5-3.5 1.5-3.3 1.7-3 1.8-3 4-5.5 4-5.2 4-4.5 4.2-4 4-3.5 3.5-2.8 3.3-2.5 5-3.2 1.7-1 3.5 3.7 3.5 3.5 4 3 4 2.5 4.3 2 4.5 1.5 2.5.5 2.2.5 2.5.3h4.8l2.5-.3 2.5-.5 2.2-.5 2.3-.7 2.5-.8 4.2-2.2.3.5 2.7 4.5 3 5 3.8 6.7 4 7.8 4 9 3.7 9.5 1.8 4.7 1.5 5 1 3.8 2.2 9.7 1.8 8.3 1.2 7 1 5.5.8 7.5.2 2.2 10.5 2 11 1.5 13 1.5 7 .5 6.8.3h6.7l6.3-.3 5.7-.5 2.8-.5 2.2-.7 2.3-.8 2-.7 1.7-1 1.5-1.3 10 35.3.3 1.7-5.3 1.5-10.5 2.8-16.5 4-9.7 2.2-10 2-10.5 1.8-10.5 1.5-10.3 1z"/><path class="st5" d="M284.8 192.8l-3-4.5-2.7-4.5-2.3-5-2-5.3-1.7-5.7-1-5.8-.8-6-.2-6.2.2-6 .8-6 1-5.8 1.7-5.7 2-5.3 2.3-5 2.7-4.5 3-4.2 3.3-4 3.7-3.5 3.8-3 4.2-2.5 4.3-2 4.5-1.5 2.5-.5 2.2-.5 2.5-.3h4.8l2.2.3 2.5.5 2.3.5 4.5 1.5 4.2 2 4.3 2.5 3.7 3 3.8 3.5 3.2 4 3 4.2 2.8 4.5 2.5 5 2 5.3 1.5 5.7 1.2 5.8.5 6 .3 6v3.7l-.3 3.5-.5 3.5-.5 3.5-.7 3.3-.8 3.2-1 3.3-1 3-1.2 3-1.5 2.7-1.5 2.8-1.5 2.7-1.8 2.5-1.7 2.5-2 2.3-2 2.2-2.3 2.3-2.5 2-2.7 2-2.8 1.5-4.2 2.2-2.5.8-2.3.7-2.2.5-2.5.5-2.5.3h-4.8l-2.5-.3-2.2-.5-2.5-.5-4.5-1.5-4.3-2-4-2.5-4-3-3.5-3.5zM337.1 205.8l2.7 4.5 3 5 3.8 6.7 4 7.8 4 9 3.7 9.5 1.8 4.7 1.5 5 1 3.8 2.2 9.7 1.8 8.3 1.2 7 1 5.5.8 7.5.2 2.2 10.5 2 11 1.5 13 1.5 7 .5 6.8.3h6.7l6.3-.3 5.7-.5 2.8-.5 2.2-.7 2.3-.8 2-.7 1.7-1 1.5-1.3 10 35.3 7.3-4.8 7.5-5 8.5-5.7 8.5-6 7-5.8 3-2.5 2-2 1.2-1.7v-1.3l-2.5-7.2-2.2-5.5-1.5-3-1.8-2.8-1.7-3-2-2.7-2.3-2.5-2.5-2.3-2.7-2-3.3-1.5-1.5-.5-1.7-.2-1.8-.3-2-.2-1.5.2-1.2.5-1.3.8-.7 1.2-1 1.5-.5 1.5-1.5 4-2 4.8-1.3 2.5-1.2 2.5-1.8 2.7-2 3-2.5 2.8-3 2.7M284.8 192.8l-1.7 1-5 3.2-3.3 2.5-3.5 2.8-4 3.5-4.2 4-4 4.5-4 5.2-4 5.5-1.8 3-1.7 3-1.5 3.3-1.5 3.5-1.3 3.5-1.2 3.7-1 3.8-.8 3.7-.7 4-.3 4.3-.5 5.5-.7 6-2 14-4.8 34-2.5 18.7-2 19.3-.7 9.7-.5 9.8-.5 9.5v9.2l.2 8.3.5 8 .8 7.7 1.2 7.3 1.5 7 1.8 6.5 1 3 1.2 3 1.5 2.7 1.3 2.5 1.7 2.5 1.5 2.5 2 2.3 2 2 2 1.7 2.3 1.8 2.2 1.2 2.8 1.3 4.7 2 4.5 1.7 4.8 1.3 4.7 1.2 4.8.8 4.7.7 4.5.5 4.5.3 4.5.2 4.5-.2 8.5-.5 8-1 7.5-1.5 7-1.5 6.3-2 5.7-1.8 4.8-1.7 6.5-2.8 2.5-1.2"/><path class="st5" d="M297.8 281.5l.5 2.5 2 7 1.3 4.8 1.7 5.5 2 5.7 2.5 6.3 2.8 6.2 3 6.3 3.7 6 3.8 5.7 2.2 2.8 2.3 2.5 2.2 2.2 2.5 2.3 2.5 2 2.8 1.7 2.7 1.5 3 1 2.5 1 2.8.5 3 .8 3 .2 6.7.5h7.3l9.7-.7 10.3-1 10.5-1.5 10.5-1.8 10-2 9.7-2.2 16.5-4 10.5-2.8 5.3-1.5.5-.2M366.6 358.8l-.3.5-.5 1.2-.5 4-.5 5.3-.2 6.2-.3 13.3v14.5"/><path class="st5" d="M360.6 399.5l2.5 1 1.2.8 5.5 2.2 6 2.3 12.8 4.7 13.2 4.8 12.5 4.7 8 3.5 3.5 1.8 3 1.7 2.8 1.5 2.5 1.8 1.7 1.7 1.3 1.8 1.2 2.2 1.3 2.3 1 2.5.7 2.5.5 2.5.3 2.7v2.8l-.3 2.7-.7 3-1 2.8-1.5 3-2.3 2.7-2.5 3-3.2 3-3.8 3-4.2 2.8-7 4.2-8.5 4.8-19.3 10.5-21 11.2-18.7 10-18.8 9.8 1.8 3.5 2.2 3.7 2.8 4.5 3.7 5 2.3 2.5 2.2 2.5 2.5 2.3 2.8 2.2 2.7 1.8 3 1.7 2.5 1.8 2 1.7 1.5 2 1 2.3.5 2 .3 2.2-.5 2-.8 2.3-1.5 2-1.7 1.7-2 1.8-2.8 1.2-2.7 1-3.3.8-3.5.2-3.7-.5-4.3-1-4.5-1.5-5-2-5-2.7-5.2-3-5.3-3.3-5-3.5-5-3.5-7.5-6-6.5-5.7-2.7-2.5-2.3-2.5-1.7-2.3-1-1.7v-3.3l.5-3.5.7-4.5 1.5-5 .8-2.7 1.2-2.8 1.5-2.7 1.8-2.5 2-2.8 2.2-2.2 2.5-2.5 3-2.3 3.5-1.7 3.8-1.8 2.5-1 2.7-1.5 6-3.5 6.5-4.2 6.8-5 6.7-5.5 7-5.5 13.3-11.5 8.7-8 7-6.5 6.3-6.3M236.1 452.5l2.5 20.3 2.2 19.7 2.3 22.5 2.2 22.8 1.5 20 .5 8.2.3 6.5-.3 4.5-.2 1.3-.3.7-2.2 2.8-3.5 4.5-4.5 6.7-2.5 4-2.8 4.5-2.7 5-2.5 5.5-2.8 6-2.7 6.5-2.5 6.8-2.3 7.5-2.2 8-2 8.2-1 5.3-1.5 5-3 10-3.3 9.7-3.5 9.3-3.7 10.2-3.5 9.5-1.3 4.3-1 4.2-.7 3.8-.5 3.5.2 3.2.5 2.8.3 1.2.5 1.3.7 1.2.8 1 1 .8 1.2 1 1.3.5 1.5.7 1.5.5 1.7.3 4.3.5 16.7 1 11.3.7 6.7 1 3.5.5 1 .3"/><path class="st5" d="M300.3 563.8V575l-.5 7.3-1 8-.5 4-1 4.2-1 4-1 4-1.5 3.8-1.5 3.5-3.5 6.2-4 6-4 6-4 5.8-8.5 11-8.2 10.5-4 4.7-3.5 5-3.3 4.5-2.7 4.8-2.3 4.5-2 4.2-.5 2-.5 2.3-.5 2v3.2l.3 4 .7 3.3 1 3 1.5 2.7 1.5 2.3 1.8 2 2 1.5 1.7 1.5 2 1 1.8 1 3.2 1.2 2.5 1 .5.5.3.3M515.6 93.5L492.1 200l-9.3 42-5 21.8M658.3 160.8l-2.2 11.2-2.8 13.3-4.2 18-5 22-6.5 26-7.5 29.5-8.8 32.5-10 35.2-11 37.5-6 19.5-6.2 20-6.8 20.3-6.7 20.5-7.3 21-7.5 21-7.7 21.5-8.3 21.2-8.2 21.5-8.8 21.8-9 21.5-9.2 21.5-10 22-9.3 19.7-8.5 17.8-7.7 15.7-7 13.5-5.8 11.3-8.5 15.5-3.5 6M449.3 345.5l-3.2 9.5-3.5 10.3-4.3 12-4.7 12.7-5 12.3-2.3 5.5-2.5 4.7-2 4.3-2 3.2M390.1 497.5l-1.5 6.8-2.3 8-3 10-3.7 11.7-4.8 13-2.7 6.8-2.8 6.7-3 6.8-3.5 7-3.7 7.2-2.5 4.8"/><path class="st5" d="M359.6 581l-.3.8-3.2 6-6.8 11.7-9.2 16-11.8 19.8-6.7 10.7-7.3 11-7.5 11.5-8 11.5-8.2 11.5-8.5 11.3-8.5 11-8.8 10.5-5.7 6.5-5.5 6-5.8 5.7-5.5 5.5-6.2 5.5-6 5M293.3 508.8l36 19M198.3 694.3h1l41 1M227.1 396.5l3.2 1.5 4 1.8 5.3 2 6.7 2.2 7.8 2.5 8.7 2.3 9.5 2.2 10.3 1.8 5.2.5 5.5.5 5.5.5h11.5l5.8-.3 6-.7 5.7-.8 6-1.2 6-1.3 5.8-1.7 5.7-2.3 6-2.5 5.8-3 1.2-.7 2.3-1.3M490.1 199.5l-7.8 2.5-20 5.3-12.7 3.2-13.8 3.3-13.7 3-7 1.2-6.5 1-2.3.3h-2.2l-4.8-.3-4.5-.5-4.7-1-4.8-1.5-4.7-1.7-4.5-1.8-4.3-2-7.7-4-6.3-3.5-5.5-3.5M365.6 256.8l13.2 3.2 5 1.3 4.5.7 4.5.5 4.5.3 5.3-.3 6-.7 13-1.8 10.2-2 8.5-2 7.5-2.2 7-2.3 7.5-3 8.5-3.2 10.3-3.8"/></svg>