<svg xmlns="http://www.w3.org/2000/svg" width="850.394" height="850.394" viewBox="0 0 850.394 850.394" overflow="visible"><path d="M749.06 284.04c5.07-1.78 8.391-1.56 10.931-7.98-.07 15.52-33.03 23-40.971 25.22-7.949 2.21-106.039 45.95-117.079 51.25-11.051 5.3-65.921 22.19-77.851 24.84-4.71 1.04-11.68 2.36-16.26-.32-4.311-2.52-11.65-6.19-11.65-6.19s-4.16-10.84-11.06-16.3c-4.95-3.91-6.88-5.14-6.88-5.14l10.04-3.41.989-.99 4.421 4.42 7.949 7.95s5.86-8.61 13.811-12.15c0 0 6.62-1.55 16.569-1.55 9.931 0 66.601-14.91 85.49-19.55 18.891-4.64 125.921-38.11 131.551-40.1z" fill="#c8c8c8"/><path d="M759.99 276.06c-2.54 6.42-5.86 6.2-10.931 7.98-5.63 1.99-112.659 35.46-131.55 40.1-18.89 4.64-75.56 19.55-85.49 19.55-9.949 0-16.569 1.55-16.569 1.55-7.95 3.54-13.811 12.15-13.811 12.15l-7.949-7.95-4.421-4.42-6.63-6.63s4.2-13.48 8.391-17.67c4.21-4.2 15.02-4.42 15.02-4.42l.101.15c-2.261 1.5-3.631 2.5-3.631 2.5l17.681 17.67s6.62 0 17.67-3.08c11.04-3.11 17.229-3.11 26.51-8.4 5.22-2.99 16.23-17.07 27.74-31.7 0 0 107.89-19.12 116.74-21.77 8.84-2.65 27.39-13.25 34.909-13.25 7.5 0 17.391 4.25 17.221 9.72l-.16 5.47c-.271.91-.551 1.72-.841 2.45z" fill="#c8c8c8"/><path d="M533.23 324.34c-.381.41 11.51-1.44 16.68-8.46 5.78-7.86 11.859-13.1 11.82-19.46-.061-8.94-11.351.57-14.601 3.1-6.12 4.77-12.74 11.09-19.53 14.9-3.909 0-7.069 2.68-7.069 5.97s3.16 5.96 7.069 5.96c2.19 0 4.16-.84 5.46-2.17l.171.16zm169-159.14c3.76 3.75-8.841 16.34-19.66 27.17-10.82 10.82-49.04 54.78-65.17 70.91-7.061 7.06-16.32 18.77-25.28 30.16-11.51 14.63-22.521 28.71-27.74 31.7-9.28 5.29-15.47 5.29-26.51 8.4-11.05 3.08-17.67 3.08-17.67 3.08l-17.681-17.67s1.37-1 3.631-2.5c3.739-2.5 9.92-6.4 16.26-9.43 10.149-4.86 41.53-36.23 63.84-58.54 22.31-22.32 58.99-52.36 74.01-62.08 15.02-9.72 38.21-24.96 41.97-21.2z" fill="#c8c8c8"/><path d="M566.22 563.52c6.181 6.521 3.471 19.131-6.06 28.181-9.54 9.05-22.271 11.09-28.46 4.58-6.181-6.521 7.56-7.511 17.09-16.561 9.54-9.05 11.25-22.72 17.43-16.2zM514.93 538.2c13.15 0 23.801-8.74 23.801.24 0 8.989-10.65 16.27-23.801 16.27-13.14 0-23.79-7.28-23.79-16.27 0-8.98 10.65-.24 23.79-.24zM475.82 435.92s22.199 21.93-8.54 34.01c-21.49-.33-29.12-24.88-12.351-32.97 6.65-1.01 13.49-2.1 20.511-3.29l.38 2.25zM489.35 402.03c17.61 1.34 19.07 25.76 1.07 29.02-4.79.87-9.5 1.69-14.12 2.47-13.88-2.75-20.8-20.58-11.53-30.609 12.73-.691 22.18-1.071 24.58-.881zM474.49 382.28c4.5 6.84.21 13.51-5.721 17.43-.01 0-.01 0-.02.01-.32.19-.63.38-.92.58l-.01.01c-2.63 1.57-5.49 2.6-8.011 2.88-.02.01-.029.01-.05.01-2.39.13-4.859.28-7.399.43-17.49-3.33-29.47-22.37-14.69-29.27 7.36-.23 12.8-.47 15.04-.74.001 0 15.051-1.54 21.781 8.66zM407.07 348.59c15.48 1.06 19.331 21.23 7.93 25.58l.02.77c-5.54.13-11.34.26-17.16.39v-.01c-13.1-2.41-20.41-19.71-8.26-27.05 7.58-.02 13.85.07 17.47.32z" fill="#fff"/><path d="M454.93 436.96c-16.77 8.09-9.14 32.64 12.351 32.97-25.62 10.061-66.55 14.61-80.38 20.87-13.82 6.23-59.07 46.46-73.7 63.26-6.64 7.66-13.8 18.521-18.41 28.04-5.54 11.44-7.45 20.94-.49 20.79 0 0 12.33 4.091 39.84-12.5 33.34-20.09 61.27-18.51 72.13-10.38 10.84 8.13 11.12 18.16 4.64 24.141-6.52 5.97-18.99 5.409-52.58 19.58-33.64 14.109-56.41 36.369-79.72 49.399-23.28 13.04-68.58 26.95-105.46 18.29-9.15-2.14-20.27-2.87-32.18-2.74l-55.6-134.5c30.1-19.47 31.2-32.55 54.22-65.01 0 0 40.84-78.16 61.47-91.19 20.59-13.07 106.26-47.82 123.61-48.39 12.77-.41 43.9-1.28 64.93-1.32-12.15 7.34-4.84 24.64 8.26 27.05v.01c5.82-.13 11.62-.26 17.16-.39 8.43-.19 16.26-.38 22.65-.58-14.78 6.9-2.8 25.94 14.69 29.27 2.54-.15 5.01-.3 7.399-.43.021 0 .03 0 .05-.01 1.7-.09 3.36-.19 4.96-.28-9.27 10.03-2.35 27.859 11.53 30.609-.29.051-.569.101-.859.15a1199.09 1199.09 0 0 1-20.511 3.291z" fill="#ffeec8"/><g fill="none" stroke="#231f20" stroke-width="14"><path d="M592.12 293.44c-11.51 14.63-22.521 28.71-27.74 31.7-9.28 5.29-15.47 5.29-26.51 8.4-11.05 3.08-17.67 3.08-17.67 3.08l-17.681-17.67s1.37-1 3.631-2.5c3.739-2.5 9.92-6.4 16.26-9.43 10.149-4.86 41.53-36.23 63.84-58.54 22.31-22.32 58.99-52.36 74.01-62.08 15.021-9.72 38.21-24.96 41.971-21.2 3.76 3.75-8.841 16.34-19.66 27.17-10.82 10.82-49.04 54.78-65.17 70.91-7.061 7.06-16.321 18.77-25.281 30.16z"/><path d="M527.6 314.42c3.9 0 7.07 2.68 7.07 5.97 0 1.44-.61 2.76-1.61 3.79-1.3 1.33-3.27 2.17-5.46 2.17-3.909 0-7.069-2.67-7.069-5.96s3.159-5.97 7.069-5.97z"/><path d="M527.6 314.42c6.79-3.81 13.41-10.13 19.53-14.9 3.25-2.53 14.54-12.04 14.601-3.1.039 6.36-6.04 11.6-11.82 19.46-5.17 7.02-17.061 8.87-16.68 8.46.079-.1.819-.31 2.43-.61"/><path d="M592.12 293.44s107.89-19.12 116.74-21.77c8.84-2.65 27.39-13.25 34.909-13.25 7.5 0 17.391 4.25 17.221 9.72l-.16 5.47c-.271.91-.55 1.72-.84 2.45-2.54 6.42-5.86 6.2-10.931 7.98-5.63 1.99-112.659 35.46-131.55 40.1-18.89 4.64-75.56 19.55-85.49 19.55-9.949 0-16.569 1.55-16.569 1.55-7.95 3.54-13.811 12.15-13.811 12.15l-7.949-7.95-4.421-4.42-6.63-6.63s4.2-13.48 8.391-17.67c4.21-4.2 15.02-4.42 15.02-4.42"/><path d="M488.28 346.01l-10.04 3.41s1.93 1.23 6.88 5.14c6.899 5.46 11.06 16.3 11.06 16.3s7.34 3.67 11.65 6.19c4.58 2.68 11.55 1.36 16.26.32 11.93-2.65 66.8-19.54 77.851-24.84 11.04-5.3 109.13-49.04 117.079-51.25 7.94-2.22 40.9-9.7 40.971-25.22v-.05"/><path d="M467.82 400.31c-2.63 1.57-5.49 2.6-8.011 2.88M468.75 399.72c-.3.21-.61.4-.92.58M255.59 418.81s76.2-38.85 84.57-41.05c4.35-1.11 31.19-1.82 57.7-2.43 5.82-.13 11.62-.26 17.16-.39 8.43-.19 16.26-.38 22.65-.58 7.36-.23 12.8-.47 15.04-.74 0 0 15.05-1.54 21.78 8.66 4.5 6.84.21 13.51-5.721 17.43M271.63 460.27s84.85-47.26 91.9-49.41c4.62-1.44 53.26-5.08 88.831-7.23 2.54-.15 5.01-.3 7.399-.43.021 0 .03 0 .05-.01 1.7-.09 3.36-.19 4.96-.28 12.73-.69 22.181-1.07 24.58-.88 17.61 1.34 19.07 25.76 1.07 29.02-4.79.87-9.5 1.69-14.12 2.47-.29.051-.569.101-.859.15-7.021 1.19-13.86 2.28-20.511 3.29-20.239 3.08-38.81 5.35-55.86 6.94-26.57 2.439-36.59 8.159-48.51 16.859-11.95 8.681-53.12 33.4-53.12 33.4M294.79 582.1c-5.54 11.44-7.45 20.94-.49 20.79 0 0 12.33 4.091 39.84-12.5 33.34-20.09 61.27-18.51 72.13-10.38 10.84 8.13 11.12 18.16 4.64 24.141-6.52 5.97-18.99 5.409-52.58 19.58-33.64 14.109-56.41 36.369-79.72 49.399-23.28 13.04-68.58 26.95-105.46 18.29-9.15-2.14-20.27-2.87-32.18-2.74" stroke-miterlimit="10"/><path d="M475.82 435.92s22.199 21.93-8.54 34.01c-25.62 10.061-66.55 14.61-80.38 20.87-13.82 6.23-59.07 46.46-73.7 63.26-6.64 7.66-13.8 18.521-18.41 28.04M201.06 397.98c20.59-13.07 106.26-47.82 123.61-48.39 12.77-.41 43.9-1.28 64.93-1.32 7.58-.02 13.85.07 17.47.32 15.48 1.06 19.331 21.23 7.93 25.58M85.37 554.18c30.1-19.47 31.2-32.55 54.22-65.01 0 0 40.84-78.16 61.47-91.19" stroke-miterlimit="10"/><path d="M390.41 347.8c-.28.15-.55.3-.81.47-12.15 7.34-4.84 24.64 8.26 27.05M439.33 373.66c-.59.21-1.14.44-1.66.7-14.78 6.9-2.8 25.94 14.69 29.27M469.49 399.3c-.25.13-.48.27-.721.41-.01 0-.01 0-.02.01-.32.19-.63.38-.92.58l-.01.01c-1.17.79-2.181 1.66-3.051 2.6-9.27 10.03-2.35 27.859 11.53 30.609.07.021.15.04.22.051M454.95 436.95c-.01 0-.01.01-.021.01-16.77 8.09-9.14 32.64 12.351 32.97" stroke-miterlimit="10"/><path d="M538.73 538.44c0 8.989-10.65 16.27-23.801 16.27-13.14 0-23.79-7.28-23.79-16.27 0-8.98 10.65-.24 23.79-.24 13.151 0 23.801-8.74 23.801.24zM566.22 563.52c6.181 6.521 3.471 19.131-6.06 28.181-9.54 9.05-22.271 11.09-28.46 4.58-6.181-6.521 7.56-7.511 17.09-16.561 9.54-9.05 11.25-22.72 17.43-16.2z"/></g><path fill="none" d="M0 0h850.394v850.394H0z"/></svg>