<svg xmlns="http://www.w3.org/2000/svg" width="850.89" height="850.89" viewBox="0 0 850.89 850.89" overflow="visible"><path d="M124.99 672.64c-3.5 1.561-4.9 5.23-10.64 4.561-6.92-27.53-1.14-67.771-3.04-100.32-1.85-2.21-6.07-2.04-6.08-6.09 13.33-49.5 1.34-124.31 7.6-180.88 36.52 11.84 61.92 32.31 104.89 34.96 6.67 6.97 15.27 12.01 24.27 16.66.02.02.04.04.05.06.06.021.11.04.17.05 1.95 1.011 3.93 2 5.91 2.99 3.54-3.07 9.97-4.16 15.15-1.54 0 .021 0 .04.01.07-2.78 2.859-.13 3.79.04 7.55 12.46-.3 17.58 6.74 21.28 15.2 23.29 3.17 39.17 23.7 28.88 47.12 22.87-1.83 43.07 18.37 62.32 22.8 4.97 1.15 10.29-2.08 15.2 0 .68.29 1.35.62 1.99.99 2.7 3.14 6.14 6.27 9.01 9.79 3.09 6.05 4.23 13.64 2.68 21.14-13.85 1.58-27.91-2.63-38 0-2.14 16.33 10.36 18.02 9.12 33.45 12.03 3.17 21.16 9.229 24.32 21.28 8.78-5.301 8.1 6.739 18.24 4.56.78 7.33 4.42 11.79 3.04 21.28 11.49 2.189 11.86 15.5 16.72 24.319 13.58 3.41 20.41-7.939 30.399-3.04 4.421 6.721-7.34 8.301-6.079 16.721 9.27 10.81 29.25 6.699 38 12.16-3.94 1.63-7.45 3.689-13.681 3.039 3.87 17.921 28.23 15.341 41.04 24.32-4.81 1.65-12.77-5.899-13.68 1.521 2.85 4.75 13 2.199 13.68 9.12-7.96 2.739-21.17 8.27-27.359 0-1.11-4.15 3.02-3.061 3.04-6.08-43.2-10.65-72.65-10.101-107.92-19.761-3.41-20.97-24.81-19.06-30.4-34.96.94-3.18 7.8-5.72 1.52-7.6-1.73 6.86-13.71.21-15.2-3.04-.41-3.11-1.47-6.16-2.94-9.17-4.96-10.18-14.62-19.97-19.86-30.351-16.05-2.609-35.93-8.47-51.68-12.159 2.41-2.28 1.12-6.221-1.52-7.601-4.5 9.221-12.51-2.08-15.2-4.56-2.59 1.99-2.36 5.27-4.56 10.64-.64-2.91-.55-6.55-4.56-6.08-2.63.92.11 7.21-3.04 7.601-10.47 2.819-13.54-9.71-18.24-7.601-1.02 3.82 7.59 12.69 4.92 19.021-.53.13-1.09.239-1.67.35-7.41-2.16-16.02-3.12-21.49-7.21.74 4.29 4.56 6.44 9.14 7.311l-.14 2.149c-.53 0-.44 2.41.12 5.74-18.09 6.04-32.51-.39-48.64 4.56-1.55-2-1.49-5.609-3.04-7.6-5.79-.72-9.49.64-10.64 4.56 6.37-3.67 11.62-.31 12.16 6.08 5.07-1.63 9.84-2.439 14.55-2.87l.04.49c-.42 0-.29.26.61.86 2.02 1.52 5.65 1.43 6.08 4.56 5.72-2.2 14.38 5.51 12.16 1.521-.22-.101-.49-.221-.78-.351l2.32.09c.7.721 1.55 1.23 2.39 1.431l-1.43 1.56c-.41 0-.74.53-.98 1.83 4.02 4.08 8.98 7.22 7.6 16.72-14.91 1.391-21.56 11.03-33.97 14.91-.82-.62-1.68-1.16-2.58-1.63-11.82-12.091-39.12 2.289-51.62-7.201zM518.28 688.99c-.79-1.67-.44-3.57 1.92-5.71 5.53 4.229 12.5 2.069 16.109 6.56 1.011 1.25 1.75 3.021 2.131 5.601-.79 1.729-3.12 1.939-4.99 2.6l-.23-.62c.5-.591-12.54-3.391-14.94-8.431z" fill="#fff5b4"/><path d="M751.09 155.51c-3.26-2.92-9.88-8.63-13.53-13.53 6.95.44 11.04 5.85 13.53 13.53z" fill="#fbed24"/><path d="M723.89 551.03c.67 1.47 1 2.68 1.051 3.79-.271-1.45-.86-2.801-1.681-4.08.21.1.42.2.63.29z"/><path d="M705.65 514.55c3.38 2.2 7.33 3.82 13.68 3.04 4.27 25.63 33.18 26.61 38 51.69-10.12 5.39-25.54 3.83-33.44-7.61 1.15-2.55 1.42-4.8 1.051-6.85-.051-1.11-.381-2.32-1.051-3.79-.21-.09-.42-.19-.63-.29-6.7-10.45-28.93-16.23-17.61-36.19z" fill="#fff5b4"/><path d="M705.65 514.55c-11.32 19.96 10.909 25.74 17.609 36.19-13.54-6.21-28.14-20.71-17.609-37.71 3.38 2.2 7.33 3.819 13.68 3.04 5.53 25.38 34.15 27.66 39.52 53.21-10.55 8.39-27.989 4.689-36.479-7.61 1.51-2.61 2.68-4.439 2.57-6.85.369 2.05.1 4.3-1.051 6.85 7.9 11.44 23.32 13 33.44 7.61-4.82-25.08-33.73-26.061-38-51.69-6.35.78-10.3-.84-13.68-3.04z"/><path d="M701.09 511.51c-3.99-2.29-5.63-12.649-3.04-16.72 7.55.74 3.68 11.47 3.04 16.72z" fill="#fff"/><path d="M698.05 494.79c-2.59 4.07-.95 14.43 3.04 16.72.64-5.25 4.51-15.98-3.04-16.72zm3.04 18.24c-6.229-1.88-10.22-21.53 1.521-19.761 1.709 6.451 2.359 15.071-1.521 19.761z" fill="#fff5b4"/><path d="M751.09 155.51c-2.49-7.68-6.58-13.09-13.53-13.53 3.65 4.9 10.27 10.61 13.53 13.53zm-76.89-14.24c.24-7.12 6.45-14.43 13.53-17.09 3.72 1.02 4.89 4.6 10.67 3.56 1.319-.1.439-2.41 1.43-2.85-1.62-3.36-4.271-5.69-9.97-4.98 1.72-1.1 3.04-1.49-.71-1.42 7.229-2.96 13.71.99 17.09 4.27 4.16-1.99 1.63-8 2.13-11.39 1.29-8.57 6.31-13.05 12.82-16.38 1.38 1.31-2.931 4.57 2.84 3.56-.65.97-4.46 4.56 0 4.27-.46 1.15-4.351 3.85 0 3.56-.91 1.22-2.84 1.43-3.55 2.85.31.88.909 1.46 2.13 1.42-1.29 2.03-4.051 2.6-4.98 4.99 5.38-.26 13.51-6.32 22.07-3.56.49 1.91-1.48 1.38-2.141 2.14 3.131 3.27 9.28 3.53 10.681 8.54-.83-.6-1.91-.94-3.561-.72 1.391 5.74 7.96 6.29 9.25 12.11-.63-.55-1.6-.77-2.84-.71 1.93 3.28 3.25 7.19 4.98 10.68-1.851 1.09-3.101-4.48-5.7-4.99-2.16.88.77 2.45 0 4.27-.63-.55-1.601-.76-2.84-.71 3.319 5.49 4.18 11.87 6.399 17.8 2.86 7.61 8.271 18.93.721 26.34-2.841 2.78-10.78 4.95-15.67 2.85-3.801-1.64 1.829.08 2.14 0 12.81-3.4 19.18-7.47 13.53-22.79-2.431 6.64-7.891 13.89-17.091 11.4-7.279-.79 3.58-.88 3.58-.72 5.301-1.5 12.141-6.54 11.37-14.23-.34-3.42-10.04-16.74-15.66-18.51-1.79-.57-7.01-2.22-9.97-3.56-.27 2.88 1.95 3.27 2.851 4.98-.65 1.73-2.101-1.61-4.271-.71.64 4.1 3.7 5.8 5.69 8.54-3.101 1.68.359 5.29 2.14 6.41-1.36 1.54-3.16-2.5-5.7-2.14 1.9 3.8 4.48 6.92 7.12 9.97-7.85-.45-14.15-8.62-19.93-13.53-1.521.23.109 3.11.71 3.56-2.851.94-5.74-4.21-7.12-7.12-2.18 1.55.689 4.01 0 6.41-5.17-4.55-9.59-9.87-9.25-19.93-3.57-.25-3.46 3.19-4.99 4.98-1.82-.07-1.14-2.65-2.13-3.56-2.21.4-1.87 3.35-4.27 3.56v-2.14c-1.431 1.19-3.311 1.92-3.561 4.28-1.55.12-.33-2.53-.72-3.56-1.78-.12-2.22 1.09-2.84 2.13-1.601-.3-.021-3.77-1.431-4.27-1.856 4.33-3.356-2.65-4.976 2.14z" fill="#fbed24"/><path d="M673.73 771.44c1.8 4.449 4.97-1.2 8.689-.15.15.13.3.27.45.4.22 3.18-6.89-.96-4.58 4.31-2.26-1.79-6.79-1.32-6.08-6.08 3.58-2.479 15.53-3.15 13.68 4.561-.71-.28-1.699-1.58-3.02-2.79 0-.08-.01-.16-.021-.25a4.1 4.1 0 0 0-.43-.15c-2.098-1.761-4.938-3.011-8.688.149z" fill="#fff5b4"/><path d="M660.4 780.2l1.17.359c-.17.101-.351.2-.521.301a7.912 7.912 0 0 0-.649-.66z"/><path d="M660.4 780.2c-8.24-2.62-15.221-6.5-22.57-10 6.51 1.07 16.9 4.48 22.57 10z" fill="#fff5b4"/><path d="M661.05 780.86c-9.31 5.09-17.67-4.41-23.59-10.721.12.021.24.04.37.061 7.35 3.5 14.33 7.38 22.57 10 .23.21.45.43.65.66z" fill="#fff"/><path d="M637.83 770.2c-.13-.021-.25-.04-.37-.061-.07-.069-.14-.149-.21-.22.19.091.39.181.58.281zM637.46 770.14c5.92 6.311 14.28 15.811 23.59 10.721.811.87 1.5 1.779 2.04 2.739-16.08 1.641-19.66-4.47-27.359-13.68.529.05 1.109.13 1.729.22z"/><path d="M634.21 462.87c-3.24-11.17-13.43-15.38-22.3-20.91 11.89 2.521 18.16 10.63 23.82 19.39-3.671 9.65-2 15.94-9.12 22.801-2.92 1.819-5.28-.631-7.5-3.551l.13-.1c1.39 1.72 3.649 2.58 7.37 2.13 5.77-6.24 2.63-12.33 7.6-19.76z" fill="#fff"/><path d="M623.57 742.56c-6.07.83-4.58.83-10.641 0 .031-4.69 11.401-7.51 10.641 0zM623.57 677.2c-7.11-.5-6.58-8.63-13.681-9.12 6.841-4.76 16.471.7 19.761 4.56-.42 3.13-5.67 1.43-6.08 4.56z" fill="#fff5b4"/><path d="M614.45 475.03c1.22-10.82-1.4-21.641-6.17-30.49 3.02 3.4 6.319 7.06 7.689 12.25 2.17 8.28-.45 19.1 3.271 23.71l-.13.1c-1.58-2.07-3.08-4.37-4.66-5.57zM613.99 171.28c-1.74-2.19-4.34-3.52-6.61-5.19 1.26-1.69 5.61-.26 8.08-.73 1.521-2.18 2.05-5.35 2.94-8.16 1.52 2.18 2.05 5.35 2.939 8.16h8.82c-1.61 2.57-5.18 3.17-6.61 5.92.4 3.05 2.101 4.79 2.2 8.15-1.97-1.96-4.95-2.91-6.61-5.18-2.84 1.33-5.13 3.22-7.35 5.18-.879-1.42 1.551-5.81 2.201-8.15z" fill="#fff"/><path d="M611.91 441.96c-.65-.14-1.33-.27-2.021-.37-.3-.53-.609-1.05-.939-1.57.96.67 1.95 1.32 2.96 1.94z"/><path d="M614.45 417.27c-2.87-2.2-6.74-3.4-6.08-9.12 7.19-2.1 9.19 5.56 6.08 9.12z" fill="#fff5b4"/><path d="M609.89 668.08c7.101.49 6.57 8.62 13.681 9.12.41-3.13 5.66-1.431 6.08-4.561-3.291-3.859-12.921-9.319-19.761-4.559zm-3.04 1.52c4.69-9.77 21.061-2.58 24.32 3.04-.46 4.101-6.4 2.721-7.6 6.08-7.97-.65-6.52-10.71-16.72-9.12zM602.75 436.32c2.05 2.46 3.91 5.229 5.53 8.22-2.38-2.68-4.59-5.22-5.53-8.22z"/><path d="M602.29 433.99c1.89 2.34 4.18 4.279 6.66 6.029.33.521.64 1.04.939 1.57.69.101 1.37.23 2.021.37 8.87 5.53 19.06 9.74 22.3 20.91-4.97 7.43-1.83 13.52-7.6 19.76-3.721.45-5.98-.41-7.37-2.13-3.721-4.61-1.101-15.43-3.271-23.71-1.37-5.19-4.67-8.85-7.689-12.25-1.62-2.99-3.48-5.76-5.53-8.22a9.904 9.904 0 0 1-.46-2.329z" fill="#fff5b4"/><path d="M595.33 192.57c-1.58-1.91-4.62-2.34-5.51-4.94h6.729c1.34-1.51 1.36-4.38 2.44-6.16 1.35 1.52 1.359 4.39 2.45 6.16h7.34c-1.19 2.3-4.16 2.8-5.5 4.94.08 2.79 1.489 4.24 1.83 6.78-2.19-.87-3.471-2.67-5.5-3.7-3.42.04-3.74 3.22-6.73 3.7 1.011-2.06 1.431-4.72 2.451-6.78zM588.27 223.14c-.84-3.34-4.189-4.17-6.609-5.92 1.26-1.7 5.6-.28 8.08-.75 1.74-1.95 2.42-4.97 2.939-8.14 1.74 1.94 2.42 4.96 2.94 8.14h8.82c-1.391 2.56-4.5 3.37-6.62 5.19.68 2.78 1.67 5.24 2.21 8.15-2.78-.9-4.431-2.94-6.61-4.45-2.5 1.44-5.02 2.86-6.62 5.19-1.76-1.83 1.11-5.27 1.47-7.41z" fill="#fff"/><path d="M586.09 462.31c3.72-1.489 4.93-5.5 8.601-7.04-1.83 1.74-.601 3.86 0 1.521 2.939-.6 2.22 6.93-1.521 4.56.44.511.95.931 1.54 1.29l-.04.07c-2.34-1.32-5.2-1.6-8.53-.29l-.05-.111z"/><path d="M584.05 427.91c-4.01-1.25-5.66-4.54-8.27-8.09 4.95 3.5 10.18 6.33 16.279 7.5l-.029.16c-2.6-.54-6.33.95-7.98.43zM588.27 136.46c-1.89-2.29-5.539-2.81-6.609-5.92h8.08c1.62-1.83 1.64-5.28 2.939-7.41 1.62 1.82 1.63 5.26 2.94 7.41h8.82c-1.44 2.75-5 3.35-6.62 5.92.1 3.36 1.81 5.1 2.21 8.15-2.641-1.05-4.17-3.21-6.61-4.45-4.12.06-4.49 3.88-8.09 4.45 1.22-2.47 1.72-5.68 2.94-8.15z" fill="#fff"/><path d="M570.36 414.23c2.399 1.76 4.05 3.71 5.42 5.59-4.021-2.84-7.851-6.12-11.83-9.33 2.25 1.08 4.43 2.29 6.41 3.74zM565.8 516.07c-1.17 4.37-3.2 7.92-5.819 10.87l-.261-.23c1.08-4.49.42-10.72 4.57-12.16 11.36 3.32 24.58 4.47 27.36-7.6-3.87-3.73-9.42-5.78-7.601-15.2 20.98 7.95 21.94-22.67 10.62-29.04l.04-.07c1.92 1.19 4.59 1.63 7.58 1.75 4.66 15.57-.92 33.78-16.72 28.88-1.351 8.44 4.58 9.61 7.6 13.681-4.779 11.899-15.219 15.159-27.369 9.119z"/><path d="M615.46 165.36c-2.47.47-6.82-.96-8.08.73 2.271 1.67 4.87 3 6.61 5.19-.65 2.34-3.08 6.73-2.2 8.15 2.22-1.96 4.51-3.85 7.35-5.18 1.66 2.27 4.641 3.22 6.61 5.18-.1-3.36-1.8-5.1-2.2-8.15 1.431-2.75 5-3.35 6.61-5.92h-8.82c-.89-2.81-1.42-5.98-2.939-8.16-.891 2.81-1.421 5.98-2.941 8.16zm-22.58 33.99c2.99-.48 3.311-3.66 6.73-3.7 2.029 1.03 3.31 2.83 5.5 3.7-.341-2.54-1.75-3.99-1.83-6.78 1.34-2.14 4.31-2.64 5.5-4.94h-7.34c-1.091-1.77-1.101-4.64-2.45-6.16-1.08 1.78-1.101 4.65-2.44 6.16h-6.729c.89 2.6 3.93 3.03 5.51 4.94-1.021 2.06-1.441 4.72-2.451 6.78zm-7.55-54.74c3.6-.57 3.97-4.39 8.09-4.45 2.44 1.24 3.97 3.4 6.61 4.45-.4-3.05-2.11-4.79-2.21-8.15 1.62-2.57 5.18-3.17 6.62-5.92h-8.82c-1.311-2.15-1.32-5.59-2.94-7.41-1.3 2.13-1.319 5.58-2.939 7.41h-8.08c1.07 3.11 4.72 3.63 6.609 5.92-1.22 2.47-1.72 5.68-2.94 8.15zm4.41 71.86c-2.48.47-6.82-.95-8.08.75 2.42 1.75 5.77 2.58 6.609 5.92-.359 2.14-3.229 5.58-1.47 7.41 1.601-2.33 4.12-3.75 6.62-5.19 2.18 1.51 3.83 3.55 6.61 4.45-.54-2.91-1.53-5.37-2.21-8.15 2.12-1.82 5.229-2.63 6.62-5.19h-8.82c-.521-3.18-1.2-6.2-2.94-8.14-.519 3.17-1.199 6.19-2.939 8.14zm-30.13-48.89c-2.48.47-6.83-.96-8.091.74 2.771 1.41 5.73 2.62 6.62 5.93-.88 2.08-1.659 4.25-2.21 6.66 3.311-.62 4.38-3.49 7.351-4.44 2.2 1.26 5.68 5.11 7.35 4.44-1.51-2.17-2.05-5.34-2.939-8.15 2.109-1.82 5.229-2.63 6.619-5.18h-8.819c-.521-3.18-1.2-6.21-2.94-8.15-.521 3.17-1.201 6.2-2.941 8.15zm-17.77-89.96h1.48l253.79 161.02h.949v2.7h-256.22V77.62z" fill="#231f20"/><path d="M563.95 410.49c-7.66-3.71-16.16-6.06-20.51-12.33 7.96 2.69 14.4 7.42 20.51 12.33zM559.61 167.58c1.739-1.95 2.42-4.98 2.939-8.15 1.74 1.94 2.42 4.97 2.94 8.15h8.819c-1.39 2.55-4.51 3.36-6.619 5.18.89 2.81 1.43 5.98 2.939 8.15-1.67.67-5.149-3.18-7.35-4.44-2.971.95-4.04 3.82-7.351 4.44.551-2.41 1.33-4.58 2.21-6.66-.89-3.31-3.85-4.52-6.62-5.93 1.263-1.7 5.613-.27 8.093-.74z" fill="#fff"/><path d="M541.48 648.32c.3-4.78 2.829-7.311 7.6-7.601.75 6.82-.771 11.391-1.521 16.721-.199 8.18-2.199-9.32 0-15.2-1.989.529-2.39 2.67-4.56 3.04.99 1.54 3.5 1.569 3.04 4.56-1.219-.81-2.459-1.59-4.559-1.52z" fill="#fff5b4"/><path d="M543.44 398.16c-.761-.25-1.521-.49-2.301-.7.641 0 1.261.01 1.86.05.141.22.281.44.441.65z"/><path d="M674.2 141.27c1.62-4.79 3.12 2.19 4.979-2.14 1.41.5-.17 3.97 1.431 4.27.62-1.04 1.06-2.25 2.84-2.13.39 1.03-.83 3.68.72 3.56.25-2.36 2.13-3.09 3.561-4.28v2.14c2.399-.21 2.06-3.16 4.27-3.56.99.91.31 3.49 2.13 3.56 1.53-1.79 1.42-5.23 4.99-4.98-.34 10.06 4.08 15.38 9.25 19.93.689-2.4-2.18-4.86 0-6.41 1.38 2.91 4.27 8.06 7.12 7.12-.601-.45-2.23-3.33-.71-3.56 5.779 4.91 12.08 13.08 19.93 13.53-2.64-3.05-5.22-6.17-7.12-9.97 2.54-.36 4.34 3.68 5.7 2.14-1.78-1.12-5.24-4.73-2.14-6.41-1.99-2.74-5.051-4.44-5.69-8.54 2.17-.9 3.62 2.44 4.271.71-.9-1.71-3.12-2.1-2.851-4.98 2.96 1.34 8.18 2.99 9.97 3.56 5.62 1.77 15.32 15.09 15.66 18.51.771 7.69-6.069 12.73-11.37 14.23 0-.16-10.859-.07-3.58.72 9.2 2.49 14.66-4.76 17.091-11.4 5.649 15.32-.721 19.39-13.53 22.79-.311.08-5.94-1.64-2.14 0 4.89 2.1 12.829-.07 15.67-2.85 7.55-7.41 2.14-18.73-.721-26.34-2.22-5.93-3.08-12.31-6.399-17.8 1.239-.05 2.21.16 2.84.71.77-1.82-2.16-3.39 0-4.27 2.6.51 3.85 6.08 5.7 4.99-1.73-3.49-3.051-7.4-4.98-10.68 1.24-.06 2.21.16 2.84.71-1.29-5.82-7.859-6.37-9.25-12.11 1.65-.22 2.73.12 3.561.72-1.4-5.01-7.55-5.27-10.681-8.54.66-.76 2.631-.23 2.141-2.14-8.561-2.76-16.69 3.3-22.07 3.56.93-2.39 3.69-2.96 4.98-4.99-1.221.04-1.82-.54-2.13-1.42.71-1.42 2.64-1.63 3.55-2.85-4.351.29-.46-2.41 0-3.56-4.46.29-.65-3.3 0-4.27-5.771 1.01-1.46-2.25-2.84-3.56-6.511 3.33-11.53 7.81-12.82 16.38-.5 3.39 2.03 9.4-2.13 11.39-3.38-3.28-9.86-7.23-17.09-4.27 3.75-.07 2.43.32.71 1.42 5.699-.71 8.35 1.62 9.97 4.98-.99.44-.11 2.75-1.43 2.85-5.78 1.04-6.95-2.54-10.67-3.56-7.083 2.66-13.293 9.97-13.533 17.09zM543.32 77.62h-1.48v-2.48h256.22v163.5h-.949L543.32 77.62z" fill="#ed1e29"/><path d="M524.07 63.96c2.54 1.13 5.52 1.78 8.71 1.78 3.34 0 6.45-.71 9.06-1.94v293.59h-17.28l-.49-293.43z" fill="#c8c8c8"/><path d="M538.44 734.96v6.08c-3.53-.521-7.12-.99-6.08-6.08h6.08z"/><path d="M552.12 718.24c-7.99-1.63-14.41-4.84-15.2-13.681 4.8 1.28 4.33 7.83 9.12 9.12 5.15.58 2.4-6.729 9.12-4.56.4 4.451-3.43 4.671-3.04 9.121z" fill="#fff5b4"/><path d="M533.88 406.63c-4.46-2.63 3.45-5.53 7.601-4.56.739 4.79-6.961 1.14-7.601 4.56z" fill="#fff"/><path d="M536.92 704.56c.79 8.841 7.21 12.051 15.2 13.681-.39-4.45 3.439-4.67 3.04-9.12-6.72-2.17-3.97 5.14-9.12 4.56-4.79-1.291-4.32-7.841-9.12-9.121zm3.04 12.16c-1.729-6.37-4.32-11.89-9.12-15.2-.1-2.13 1.11-2.949 2.61-3.479 1.87-.66 4.2-.87 4.99-2.6-.381-2.58-1.12-4.351-2.131-5.601l.24-.2c3.57 4.311 3.54 9.011-4.189 10.36 4.06 2.67 9.42 6.06 13.68 12.16 3.63-.94 2.5-6.62 9.12-4.561 4.99 3.811-5.18 10.011-1.521 12.16-1.559 1.951-8.039-4.029-13.679-3.039z"/><path d="M524.07 63.96c-4.811-2.14-8.03-6.01-8.03-10.42 0-6.74 7.5-12.2 16.74-12.2 9.25 0 16.739 5.46 16.739 12.2 0 4.31-3.06 8.09-7.68 10.26-2.609 1.23-5.72 1.94-9.06 1.94-3.189 0-6.169-.65-8.709-1.78z" fill="#c8c8c8"/><path d="M532.36 395.99c-5.75-3.46 9.33 1.4 6.08-4.56 20.13 11.79 41.84 22.01 59.29 36.48-1.98-.03-3.86-.24-5.671-.59-6.1-1.17-11.329-4-16.279-7.5-1.37-1.88-3.021-3.83-5.42-5.59-1.98-1.45-4.16-2.66-6.41-3.74-6.11-4.91-12.55-9.64-20.51-12.33-.16-.21-.301-.43-.44-.65-.6-.04-1.22-.05-1.86-.05-2.74-.76-5.65-1.27-8.78-1.47z" fill="#fff5b4"/><path d="M529.32 395.99c.229-3.32 3.83-3.26 7.6-3.04-1.34-2.68-6.74-2.51-3.04-6.08 25.03 17.71 58.851 26.65 75.07 53.149-2.48-1.75-4.771-3.689-6.66-6.029.06.81.22 1.59.46 2.33-2.89-3.49-6.14-6.36-9.58-8.41a3.89 3.89 0 0 0-1.14-.43l.029-.16c1.811.35 3.69.56 5.671.59-17.45-14.47-39.16-24.69-59.29-36.48 3.25 5.96-11.83 1.1-6.08 4.56 3.13.2 6.04.71 8.779 1.47-4.439.02-9.609.76-11.819-1.47z" fill="#fff"/><path d="M520.2 695.44c-.26-2.601-1.4-4.301-2.28-6.28l.36-.17c2.399 5.04 15.439 7.84 14.939 8.43-.22.25-2.91.1-9.979-.46-.15-.01-1.76-2.35-3.04-1.52z"/><path d="M520.2 683.28c-2.36 2.14-2.71 4.04-1.92 5.71l-.36.17c-.83-1.88-1.42-4.01-.76-7.4 7.18-1.17 15.47 3.12 19.39 7.88l-.24.2c-3.61-4.49-10.58-2.33-16.11-6.56z"/><path d="M498.92 385.35c4.03-7.1 22.28-6.26 19.76 6.08-9.98 1.37-15.47-1.76-19.76-6.08zM506.52 677.2c6.36.229 8.311 4.87 7.601 12.16-4.701-1.58-12.811-5.47-7.601-12.16z" fill="#fff5b4"/><path d="M514.12 689.36c.71-7.29-1.24-11.931-7.601-12.16-5.209 6.69 2.901 10.58 7.601 12.16zm1.52 0c-3.56 2.449-10.14-2.24-12.159-6.08-.081-13.42 15.609-5.47 12.159 6.08z"/><path d="M485.24 549.51c-5.601-6.55-14.891-15.09-25.84-7.59-4.431-11.78-20.04-12.39-31.92-16.729-1.171-5.721 1.859-7.261 1.52-12.16 5.44 5.3 16.07 2.1 24.26 1.79 1.95.22 3.891.41 5.82.569 2.37.74 4.13 2.29 4.88 5.24 11.84-5.17 24.59-.99 34.96-6.08-1.83-6.79-3.49-5.84 0-12.16 2.061 7.061 2.96 15.29 10.64 16.721 6.271 1.199 2.86-7.271 9.12-6.08 7.96 6.08 17.91 3.87 25.84-1.521-1.35-14.72 11.11-23.08 24.32-18.24 9.84-7.319.54-25.43-4.55-31.92 2.729-5.96 15.89-.979 18.229 3.04 1.261-.859 2.471-1.51 3.62-1.97 3.33-1.31 6.19-1.03 8.53.29 11.32 6.37 10.36 36.99-10.62 29.04-1.819 9.42 3.73 11.47 7.601 15.2-2.78 12.069-16 10.92-27.36 7.6-4.15 1.44-3.49 7.67-4.57 12.16-22.49 15.44-44.01 22.4-74.48 22.8z" fill="#fff5b4"/><path d="M518.68 391.43c2.521-12.34-15.729-13.18-19.76-6.08 4.29 4.32 9.78 7.45 19.76 6.08zm1.52 0c-10.51 5.51-19.42-2.54-24.32-7.6 8.44-6.47 24.13-8.17 24.32 7.6zM479.16 341.27c-.19-2.73 1.859-3.21 1.52-6.08 4.11 1.47 7.34 3.81 7.601 9.12-3.341-1.6-5.051.05-9.121-3.04z" fill="#fff"/><path d="M480.68 335.19c.34 2.87-1.71 3.35-1.52 6.08 4.07 3.09 5.78 1.44 9.12 3.04-.26-5.31-3.49-7.65-7.6-9.12zm0-1.52c5.971 1.13 7.32 6.87 10.641 10.64-3.57 5.97-9.49-.9-13.681-3.04-.23-3.78 2.39-4.71 3.04-7.6z" fill="#fff5b4"/><path d="M463.96 520.63c-.75-2.95-2.51-4.5-4.88-5.24 12.4 1.08 24.49 1.141 36.8-.84-1.92-5.63 2.311-12.149 4.561-21.28h7.6c-4.96 6.341-10.76 21.181 1.52 24.32 4.12-.939 3.79-6.35 9.12-6.08 25.971 19.04 22.471-29.84 48.641-19.76 2-.53 2.39-2.67 4.56-3.04.58-13.74-6.02-20.32-9.12-30.4 5.29-2.55 17.471-.739 19.76 4.561 1.431.05 2.58-.17 3.57-.561l.05.11c-1.149.46-2.359 1.11-3.62 1.97-2.34-4.02-15.5-9-18.229-3.04 5.09 6.49 14.39 24.601 4.55 31.92-13.21-4.84-25.67 3.521-24.32 18.24-7.93 5.391-17.88 7.601-25.84 1.521-6.26-1.19-2.85 7.279-9.12 6.08-7.68-1.431-8.579-9.66-10.64-16.721-3.49 6.32-1.83 5.37 0 12.16-10.373 5.09-23.123.91-34.963 6.08zM453.26 514.82c2.16-.08 4.141.04 5.82.569-1.93-.159-3.87-.349-5.82-.569z"/><path d="M425.96 525.19c-.65-6.221 1.41-9.73 3.04-13.681 8.33 1.271 16.38 2.46 24.26 3.311-8.189.31-18.819 3.51-24.26-1.79.34 4.899-2.69 6.439-1.52 12.16 11.88 4.34 27.489 4.949 31.92 16.729 10.949-7.5 20.239 1.04 25.84 7.59 30.47-.399 51.99-7.359 74.479-22.8l.261.23c-10.521 11.939-30.5 14.3-41.301 22.569-15.37-.649-20.85.09-36.479 1.521-1.141-9.83-16.431-14.431-22.8-6.07-3.73-13.999-22.23-13.249-33.44-19.769z"/><path d="M403.16 514.55c8.7.05 14.83 6.86 10.64 15.2-3.71-4.9-12.32-4.91-10.64-15.2z" fill="#fff5b4"/><path d="M403.16 514.55c-1.68 10.29 6.93 10.3 10.64 15.2 4.19-8.34-1.94-15.15-10.64-15.2zm0-1.52c7.35-.25 9.38 4.81 13.68 7.6.9 5.46-1.77 7.36-3.04 10.64-5.44-3.55-15.64-9.16-10.64-18.24zM395.31 710.69c-3.93-19.79-28.86-18.15-30.16-35.011h.01c5.59 15.9 26.99 13.99 30.4 34.96l-.25.051zM392.99 536.82c3.78 2.149 6.86 5.6 9.01 9.79-2.87-3.52-6.31-6.65-9.01-9.79z"/><path d="M383.4 365.59c-4.38 10.72-26.61-1.02-31.36 6.44-.64.09-1.22.19-1.73.33-2.22-2.43 2.29-6.28 1.17-9.81 11.24-2.92 23.19-.75 31.92 3.04zM378.84 511.51c-6.48-.149-10.09-4.09-7.6-9.12h6.08c-1.1 4.65 2.62 4.47 1.52 9.12z" fill="#fff5b4"/><path d="M369.72 502.39c1.76-1.27 4.08-2 7.6-1.52 1.35 3.72 3.54 6.59 3.04 12.16-7.88.3-13.14-4.95-10.64-10.64zm1.52 0c-2.49 5.03 1.12 8.971 7.6 9.12 1.1-4.649-2.62-4.47-1.52-9.12h-6.08zM375.8 601.2c1.24-15.431-11.26-17.12-9.12-33.45 10.09-2.63 24.15 1.58 38 0 1.55-7.5.41-15.09-2.68-21.14 4.5 5.529 7.58 12.04 4.2 21.14-8.93 2.98-25.81 1.77-34.96 0-9.81 11.11 8.01 18.79 6.08 31.93 18.16 4.63 21.75 23.84 42.56 25.84-.26 8.37 4.63 11.58 3.04 21.28 10.48 3.2 11.271 16.09 16.72 24.32 13.37 3.49 26.431-12.68 31.92 1.52-1.46 4.62-6.1 6.051-7.6 10.641 6.54 14.39 28.85 7.39 38 13.68-1.09 5.49-7.71 5.46-13.68 6.08 6.37 14.91 28.58 13.979 42.56 21.28-3.09 5.54-9.09 1.26-15.2 1.52 2.9 5.71 14.61 2.62 13.681 12.16-13.54 7.33-24.71 2.52-38-1.52 1.319-2.23 2.279-4.82 6.08-4.561-39.011-12.52-71.8-9.7-101.84-19.76-.07-.5-.15-.99-.25-1.47l.25-.051c35.27 9.66 64.72 9.11 107.92 19.761-.021 3.02-4.15 1.93-3.04 6.08 6.189 8.27 19.399 2.739 27.359 0-.68-6.921-10.83-4.37-13.68-9.12.91-7.42 8.87.13 13.68-1.521-12.81-8.979-37.17-6.399-41.04-24.32 6.23.65 9.74-1.409 13.681-3.039-8.75-5.461-28.73-1.351-38-12.16-1.261-8.42 10.5-10 6.079-16.721-9.989-4.899-16.819 6.45-30.399 3.04-4.86-8.819-5.23-22.13-16.72-24.319 1.38-9.49-2.26-13.95-3.04-21.28-10.14 2.18-9.46-9.86-18.24-4.56-3.161-12.05-12.291-18.11-24.321-21.28zM352.04 372.03c-.23.34-.42.73-.56 1.16-.51-.25-.89-.53-1.17-.83.51-.14 1.09-.24 1.73-.33z"/><path d="M348.44 373.19c-.5-5.57 1.69-8.45 3.04-12.16 13.74-6.3 31.61 7.06 36.48 0 2.86 14.01-25.04 9.51-35.92 11 4.75-7.46 26.98 4.28 31.36-6.44-8.73-3.79-20.68-5.96-31.92-3.04 1.12 3.53-3.39 7.38-1.17 9.81-.8.21-1.44.48-1.87.83z" fill="#fff"/><path d="M349.96 668.08c-1.19-6.51.22-6.2-1.52-12.16l.1-.05c1.47 3.01 2.53 6.06 2.94 9.17 1.49 3.25 13.47 9.9 15.2 3.04 6.28 1.88-.58 4.42-1.52 7.6h-.01c-.08-.949-.08-1.96.01-3.04-6.77.18-9.42-3.75-15.2-4.56z"/><path d="M321.08 481.11c-.62-3.66 2.77-3.301 1.52-7.601h4.56c.2 3.75.23 7.33-1.52 9.12-1.22-.799-2.47-1.579-4.56-1.519z" fill="#fff5b4"/><path d="M322.6 484.15c-4.25-3.19-2.21-7.78 0-12.16h4.56c2.09 1.96 1.5 6.609 1.52 10.64-2.73-.19-3.21 1.86-6.08 1.52zm0-10.64c1.25 4.3-2.14 3.94-1.52 7.601 2.09-.061 3.34.72 4.56 1.52 1.75-1.79 1.72-5.37 1.52-9.12l-4.56-.001z"/><path d="M284.6 465.91c-3.7-8.46-8.82-15.5-21.28-15.2-.17-3.76-2.82-4.69-.04-7.55.73 9.51 21.1 7.6 21.32 21.229 22.8 3.33 41 24.15 30.4 47.12 31.58 1.42 45.94 24.48 76 22.8a29.37 29.37 0 0 0 1.99 2.511c-.64-.37-1.31-.7-1.99-.99-4.91-2.08-10.23 1.15-15.2 0-19.25-4.43-39.45-24.63-62.32-22.8 10.29-23.42-5.59-43.95-28.88-47.12zM263.32 443.11c-.02.02-.03.029-.04.05-.01-.03-.01-.05-.01-.07.02 0 .03.01.05.02zM263.27 443.09c-5.18-2.62-11.61-1.53-15.15 1.54-1.98-.99-3.96-1.979-5.91-2.99 8.3 2.49 12.03-4.42 21.11-.05-.07.53-.08 1.02-.05 1.5z"/><path d="M242.21 441.64c-.06-.01-.11-.029-.17-.05a.265.265 0 0 0-.05-.06c.07.04.14.07.22.11zM234.8 624.78c-.1.25-.22.5-.36.739-.43-.14-.87-.27-1.31-.39.58-.109 1.14-.219 1.67-.349z"/><path d="M229.88 605.76c4.7-2.109 7.77 10.42 18.24 7.601 3.15-.391.41-6.681 3.04-7.601 4.01-.47 3.92 3.17 4.56 6.08 2.2-5.37 1.97-8.649 4.56-10.64 2.69 2.479 10.7 13.78 15.2 4.56 2.64 1.38 3.93 5.32 1.52 7.601 15.75 3.689 35.63 9.55 51.68 12.159 5.24 10.381 14.9 20.171 19.86 30.351l-.1.05c-9.31-6.91-13.02-19.41-19.76-28.88-13.69-2.22-31.83-7.16-48.64-10.64-1.35-2.681-6.75-2.521-3.04-6.08-8.19 1.09-13.16-1.03-16.72-4.561-5.19.63 2.3 8.33-1.52 7.601-6 1.939-3.95-4.16-6.08-6.08-5.19.63 2.3 8.33-1.52 7.6-7.67 1.08-11.1-2.08-16.72-3.04-2.48 6.63 6.68 9.391 3.04 12.16-.73.28-1.64.55-2.68.78 2.67-6.331-5.94-15.201-4.92-19.021zM211.64 617.92c5.47 4.09 14.08 5.05 21.49 7.21-3.64.64-8.29.87-12.35.101-4.58-.871-8.4-3.021-9.14-7.311zM208.6 642.24c-.59-6.17 9.47-1.681 13.68-3.04-.25 1.76.33 2.7 1.52 3.04.27 3.31-1.25 4.83-4.56 4.56 1.96 3.101 7.36 2.76 6.08 9.12-4.99-.59-6.71-4.45-10.64-6.08-2.18-4.33 5.3 3.69 9.12 3.04-2.84-4.1-7.8-7.74-13.68-4.56-.74-4.79 6.96-1.141 7.6-4.561-8.1-2 5.97-1.35 0 3.04 1.99-.54 2.39-2.68 4.56-3.04-1.91-6.419-8.22-.519-13.68-1.519z"/><path d="M204.04 640.72c4.67-1.14 2.92 4.17 7.6 3.04-.49 2.42-2.07 3.101-3.67 2.69-.84-.2-1.69-.71-2.39-1.431-1.05-1.079-1.75-2.629-1.54-4.299z" fill="#fff"/><path d="M214.68 666.56c-12.75 3.98-23.67 9.771-33.44 16.721-.65-.67-1.33-1.271-2.05-1.811 12.41-3.88 19.06-13.52 33.97-14.91 1.38-9.5-3.58-12.64-7.6-16.72.24-1.3.57-1.83.98-1.83 1.72 0 4.85 9.23 8.14 9.431v9.119zM204.04 645.28c2.22 3.989-6.44-3.721-12.16-1.521-.43-3.13-4.06-3.04-6.08-4.56-.9-.601-1.03-.86-.61-.86 1.8 0 13.65 4.67 18.07 6.59l.78.351zM176.61 679.84c.9.47 1.76 1.01 2.58 1.63-.33.101-.66.2-.99.29-.49-.71-1.02-1.35-1.59-1.92z"/><path d="M169.08 630.08c1.55 1.99 1.49 5.6 3.04 7.6 16.13-4.949 30.55 1.48 48.64-4.56-.56-3.33-.65-5.74-.12-5.74.48 0 1.5 2.04 3.16 7.26-15.36 3.38-26.86 2.12-38.65 3.21-4.71.431-9.48 1.24-14.55 2.87-.54-6.39-5.79-9.75-12.16-6.08 1.15-3.92 4.85-5.28 10.64-4.56zM114.35 678.72c-.66-1.87-1.94-3.12-4.56-3.04v-2.739l4.56 4.26c5.74.67 7.14-3 10.64-4.561 12.5 9.49 39.8-4.89 51.62 7.2-14.19-7.49-37.67 2.03-50.1-5.68-5.69-.12-4.59 6.55-12.16 4.56z"/><path d="M109.79 579.92c-.34-4.22-4.82-4.3-6.08-7.61 11.55-46.68 3.89-123.09 6.08-183.919 38.62 9.43 65.72 33.56 107.93 34.96 5.9 8.25 18.44 9.87 24.27 18.18-9-4.65-17.6-9.69-24.27-16.66-42.97-2.65-68.37-23.12-104.89-34.96-6.26 56.57 5.73 131.38-7.6 180.88.01 4.05 4.23 3.88 6.08 6.09 1.9 32.55-3.88 72.79 3.04 100.32l-4.56-4.26V579.92z"/><g fill="none" stroke="#231f20"><path stroke-width="7" d="M542.91 75.14h255.15v166.2H544.44M524.07 63.96c-4.811-2.14-8.03-6.01-8.03-10.42 0-6.74 7.5-12.2 16.74-12.2 9.25 0 16.739 5.46 16.739 12.2 0 4.31-3.06 8.09-7.68 10.26-2.609 1.23-5.72 1.94-9.06 1.94-3.189 0-6.169-.65-8.709-1.78z"/><path stroke-width="7" d="M524.07 63.62v.34l.49 293.43M541.84 63v294.39"/><path stroke-width="14" d="M745.01 179.64l5.43-3.07"/><path stroke-width="3" d="M543.32 77.62l253.79 161.02M593.42 140.16c-4.12.06-4.49 3.88-8.09 4.45 1.22-2.47 1.72-5.68 2.939-8.15-1.89-2.29-5.539-2.81-6.609-5.92h8.08c1.62-1.83 1.64-5.28 2.939-7.41 1.62 1.82 1.63 5.26 2.94 7.41h8.82c-1.44 2.75-5 3.35-6.62 5.92.1 3.36 1.81 5.1 2.21 8.15-2.639-1.05-4.169-3.21-6.609-4.45zM604.44 216.47c-1.391 2.56-4.5 3.37-6.62 5.19.68 2.78 1.67 5.24 2.21 8.15-2.78-.9-4.431-2.94-6.61-4.45-2.5 1.44-5.02 2.86-6.62 5.19-1.76-1.83 1.11-5.27 1.47-7.41-.84-3.34-4.189-4.17-6.609-5.92 1.26-1.7 5.6-.28 8.08-.75 1.74-1.95 2.42-4.97 2.939-8.14 1.74 1.94 2.42 4.96 2.94 8.14h8.82zM741.12 177.58c.01 0 .01 0 .02-.01"/><path d="M747.53 142.69c3.319 5.49 4.18 11.87 6.399 17.8 2.86 7.61 8.271 18.93.721 26.34-2.841 2.78-10.78 4.95-15.67 2.85-3.801-1.64 1.829.08 2.14 0 12.81-3.4 19.18-7.47 13.53-22.79-2.431 6.64-7.891 13.89-17.091 11.4-7.279-.79 3.58-.88 3.58-.72 5.301-1.5 12.141-6.54 11.37-14.23-.34-3.42-10.04-16.74-15.66-18.51-1.79-.57-7.01-2.22-9.97-3.56-.27 2.88 1.95 3.27 2.851 4.98-.65 1.73-2.101-1.61-4.271-.71.64 4.1 3.7 5.8 5.69 8.54-3.101 1.68.359 5.29 2.14 6.41-1.36 1.54-3.16-2.5-5.7-2.14 1.9 3.8 4.48 6.92 7.12 9.97-7.85-.45-14.15-8.62-19.93-13.53-1.521.23.109 3.11.71 3.56-2.851.94-5.74-4.21-7.12-7.12-2.18 1.55.689 4.01 0 6.41-5.17-4.55-9.59-9.87-9.25-19.93-3.57-.25-3.46 3.19-4.99 4.98-1.82-.07-1.14-2.65-2.13-3.56-2.21.4-1.87 3.35-4.27 3.56v-2.14c-1.431 1.19-3.311 1.92-3.561 4.28-1.55.12-.33-2.53-.72-3.56-1.78-.12-2.22 1.09-2.84 2.13-1.601-.3-.021-3.77-1.431-4.27-1.859 4.33-3.359-2.65-4.979 2.14.24-7.12 6.45-14.43 13.53-17.09 3.72 1.02 4.89 4.6 10.67 3.56 1.319-.1.439-2.41 1.43-2.85-1.62-3.36-4.271-5.69-9.97-4.98 1.72-1.1 3.04-1.49-.71-1.42 7.229-2.96 13.71.99 17.09 4.27 4.16-1.99 1.63-8 2.13-11.39 1.29-8.57 6.31-13.05 12.82-16.38 1.38 1.31-2.931 4.57 2.84 3.56-.65.97-4.46 4.56 0 4.27-.46 1.15-4.351 3.85 0 3.56-.91 1.22-2.84 1.43-3.55 2.85.31.88.909 1.46 2.13 1.42-1.29 2.03-4.051 2.6-4.98 4.99 5.38-.26 13.51-6.32 22.07-3.56.49 1.91-1.48 1.38-2.141 2.14 3.131 3.27 9.28 3.53 10.681 8.54-.83-.6-1.91-.94-3.561-.72 1.391 5.74 7.96 6.29 9.25 12.11-.63-.55-1.6-.77-2.84-.71 1.93 3.28 3.25 7.19 4.98 10.68-1.851 1.09-3.101-4.48-5.7-4.99-2.16.88.77 2.45 0 4.27-.627-.55-1.597-.76-2.837-.71z" stroke-width="3"/><path d="M751.09 155.51c-2.49-7.68-6.58-13.09-13.53-13.53 3.65 4.9 10.27 10.61 13.53 13.53zM630.16 165.36c-1.61 2.57-5.18 3.17-6.61 5.92.4 3.05 2.101 4.79 2.2 8.15-1.97-1.96-4.95-2.91-6.61-5.18-2.84 1.33-5.13 3.22-7.35 5.18-.88-1.42 1.55-5.81 2.2-8.15-1.74-2.19-4.34-3.52-6.61-5.19 1.26-1.69 5.61-.26 8.08-.73 1.521-2.18 2.05-5.35 2.94-8.16 1.52 2.18 2.05 5.35 2.939 8.16h8.821zM565.49 167.58h8.819c-1.39 2.55-4.51 3.36-6.619 5.18.89 2.81 1.43 5.98 2.939 8.15-1.67.67-5.149-3.18-7.35-4.44-2.971.95-4.04 3.82-7.351 4.44.551-2.41 1.33-4.58 2.21-6.66-.89-3.31-3.85-4.52-6.62-5.93 1.261-1.7 5.61-.27 8.091-.74 1.739-1.95 2.42-4.98 2.939-8.15 1.742 1.94 2.422 4.97 2.942 8.15zM608.78 187.63c-1.19 2.3-4.16 2.8-5.5 4.94.08 2.79 1.489 4.24 1.83 6.78-2.19-.87-3.471-2.67-5.5-3.7-3.42.04-3.74 3.22-6.73 3.7 1.01-2.06 1.43-4.72 2.45-6.78-1.58-1.91-4.62-2.34-5.51-4.94h6.729c1.34-1.51 1.36-4.38 2.44-6.16 1.35 1.52 1.359 4.39 2.45 6.16h7.341z" stroke-width="3"/><path d="M350.31 372.36c.28.3.66.58 1.17.83.14-.43.33-.82.56-1.16M563.95 410.49c3.979 3.21 7.81 6.49 11.83 9.33M541.14 397.46c.78.21 1.54.45 2.301.7M602.75 436.32c.94 3 3.15 5.54 5.53 8.22M611.91 441.96c-1.01-.62-2-1.27-2.96-1.94M207.97 646.45c1.6.41 3.18-.271 3.67-2.69-4.68 1.13-2.93-4.18-7.6-3.04-.21 1.67.49 3.221 1.54 4.3.7.72 1.55 1.23 2.39 1.43zM480.68 333.67c-.649 2.89-3.27 3.82-3.04 7.6 4.19 2.14 10.11 9.01 13.681 3.04-3.321-3.77-4.671-9.51-10.641-10.64z" stroke-width="5"/><path d="M352.04 372.03c10.88-1.49 38.78 3.01 35.92-11-4.87 7.06-22.74-6.3-36.48 0-1.35 3.71-3.54 6.59-3.04 12.16.43-.35 1.07-.62 1.87-.83.51-.14 1.09-.24 1.73-.33zM495.88 383.83c4.9 5.06 13.811 13.11 24.32 7.6-.19-15.77-15.88-14.07-24.32-7.6zM608.95 440.02c-16.22-26.5-50.04-35.439-75.07-53.149-3.7 3.57 1.7 3.4 3.04 6.08-3.77-.22-7.37-.28-7.6 3.04 2.21 2.23 7.38 1.49 11.819 1.47.641 0 1.261.01 1.86.05.14.22.28.44.44.65 4.35 6.27 12.85 8.62 20.51 12.33 2.25 1.08 4.43 2.29 6.41 3.74 2.399 1.76 4.05 3.71 5.42 5.59 2.609 3.55 4.26 6.84 8.27 8.09 1.65.52 5.38-.97 7.98-.43.41.09.8.229 1.14.43 3.44 2.05 6.69 4.92 9.58 8.41 2.05 2.46 3.91 5.229 5.53 8.22 4.77 8.85 7.39 19.67 6.17 30.49 1.58 1.2 3.08 3.5 4.66 5.569 2.22 2.92 4.58 5.37 7.5 3.551 7.12-6.86 5.449-13.15 9.12-22.801-5.66-8.76-11.931-16.869-23.82-19.39-.65-.14-1.33-.27-2.021-.37-.298-.53-.608-1.05-.938-1.57z" stroke-width="5"/><path d="M541.48 402.07c-4.15-.97-12.061 1.93-7.601 4.56.641-3.42 8.341.23 7.601-4.56zM223.8 652.88c-2.84-4.1-7.8-7.74-13.68-4.56-.74-4.79 6.96-1.141 7.6-4.561-8.1-2 5.97-1.35 0 3.04 1.99-.54 2.39-2.68 4.56-3.04-1.91-6.42-8.22-.52-13.68-1.52-.59-6.17 9.47-1.681 13.68-3.04-.25 1.76.33 2.7 1.52 3.04.27 3.31-1.25 4.83-4.56 4.56 1.96 3.101 7.36 2.76 6.08 9.12-4.99-.59-6.71-4.45-10.64-6.08-2.18-4.329 5.3 3.691 9.12 3.041zM203.26 644.93c.29.13.56.25.78.351 2.22 3.989-6.44-3.721-12.16-1.521-.43-3.13-4.06-3.04-6.08-4.56-.9-.601-1.03-.86-.61-.86 1.8 0 13.65 4.67 18.07 6.59z" stroke-width="5"/><path d="M185.15 637.85c-4.71.431-9.48 1.24-14.55 2.87-.54-6.39-5.79-9.75-12.16-6.08 1.15-3.92 4.85-5.279 10.64-4.56 1.55 1.99 1.49 5.6 3.04 7.6 16.13-4.949 30.55 1.48 48.64-4.56-.56-3.33-.65-5.74-.12-5.74.48 0 1.5 2.04 3.16 7.26-15.36 3.38-26.86 2.12-38.65 3.21z" stroke-width="5"/><path d="M233.13 625.13c.44.12.88.25 1.31.39.14-.239.26-.489.36-.739 2.67-6.33-5.94-15.2-4.92-19.021 4.7-2.109 7.77 10.42 18.24 7.601 3.15-.391.41-6.681 3.04-7.601 4.01-.47 3.92 3.17 4.56 6.08 2.2-5.37 1.97-8.649 4.56-10.64 2.69 2.479 10.7 13.78 15.2 4.56 2.64 1.38 3.93 5.32 1.52 7.601 15.75 3.689 35.63 9.55 51.68 12.159 5.24 10.381 14.9 20.171 19.86 30.351 1.47 3.01 2.53 6.06 2.94 9.17 1.49 3.25 13.47 9.9 15.2 3.04 6.28 1.88-.58 4.42-1.52 7.6 5.59 15.9 26.99 13.99 30.4 34.96 35.27 9.66 64.72 9.11 107.92 19.761-.021 3.02-4.15 1.93-3.04 6.08 6.189 8.27 19.399 2.739 27.359 0-.68-6.921-10.83-4.37-13.68-9.12.91-7.42 8.87.13 13.68-1.521-12.81-8.979-37.17-6.399-41.04-24.32 6.23.65 9.74-1.409 13.681-3.039-8.75-5.461-28.73-1.351-38-12.16-1.261-8.42 10.5-10 6.079-16.721-9.989-4.899-16.819 6.45-30.399 3.04-4.86-8.819-5.23-22.13-16.72-24.319 1.38-9.49-2.26-13.95-3.04-21.28-10.14 2.18-9.46-9.86-18.24-4.56-3.16-12.051-12.29-18.11-24.32-21.28 1.24-15.431-11.26-17.12-9.12-33.45 10.09-2.63 24.15 1.58 38 0 1.55-7.5.41-15.09-2.68-21.14-2.15-4.19-5.23-7.641-9.01-9.79-.64-.37-1.31-.7-1.99-.99-4.91-2.08-10.23 1.15-15.2 0-19.25-4.43-39.45-24.63-62.32-22.8 10.29-23.42-5.59-43.95-28.88-47.12-3.7-8.46-8.82-15.5-21.28-15.2-.17-3.76-2.82-4.69-.04-7.55.01-.021.02-.03.04-.05-.02-.011-.03-.021-.05-.021-5.18-2.62-11.61-1.53-15.15 1.54-1.98-.99-3.96-1.979-5.91-2.99-.08-.04-.15-.069-.22-.109-9-4.65-17.6-9.69-24.27-16.66-42.97-2.65-68.37-23.12-104.89-34.96-6.26 56.57 5.73 131.38-7.6 180.88.01 4.05 4.23 3.88 6.08 6.09 1.9 32.55-3.88 72.79 3.04 100.32 5.74.67 7.14-3 10.64-4.561 12.5 9.49 39.8-4.89 51.62 7.2.57.57 1.1 1.21 1.59 1.92.33-.09.66-.189.99-.29 12.41-3.88 19.06-13.52 33.97-14.91 1.38-9.5-3.58-12.64-7.6-16.72.24-1.3.57-1.83.98-1.83 1.72 0 4.85 9.23 8.14 9.431v9.119c-12.75 3.98-23.67 9.771-33.44 16.721-.65-.67-1.33-1.271-2.05-1.811-.82-.62-1.68-1.16-2.58-1.63-14.19-7.49-37.67 2.03-50.1-5.68-5.69-.12-4.59 6.55-12.16 4.56-.66-1.87-1.94-3.12-4.56-3.04v-2.739-93.021c-.34-4.22-4.82-4.3-6.08-7.61 11.55-46.68 3.89-123.09 6.08-183.919 38.62 9.43 65.72 33.56 107.93 34.96 5.9 8.25 18.44 9.87 24.27 18.18.02.02.04.04.05.06.06.021.11.04.17.05 8.3 2.49 12.03-4.42 21.11-.05-.07.53-.08 1.021-.05 1.5 0 .021 0 .04.01.07.73 9.51 21.1 7.6 21.32 21.229 22.8 3.33 41 24.15 30.4 47.12 31.58 1.42 45.94 24.48 76 22.8a29.37 29.37 0 0 0 1.99 2.511c2.7 3.14 6.14 6.27 9.01 9.79 4.5 5.529 7.58 12.04 4.2 21.14-8.93 2.98-25.81 1.77-34.96 0-9.81 11.11 8.01 18.79 6.08 31.93 18.16 4.63 21.75 23.84 42.56 25.84-.26 8.37 4.63 11.58 3.04 21.28 10.48 3.2 11.271 16.09 16.72 24.32 13.37 3.49 26.431-12.68 31.92 1.52-1.46 4.62-6.1 6.051-7.6 10.641 6.54 14.39 28.85 7.39 38 13.68-1.09 5.49-7.71 5.46-13.68 6.08 6.37 14.91 28.58 13.979 42.56 21.28-3.09 5.54-9.09 1.26-15.2 1.52 2.9 5.71 14.61 2.62 13.681 12.16-13.54 7.33-24.71 2.52-38-1.52 1.319-2.23 2.279-4.82 6.08-4.561-39.011-12.52-71.8-9.7-101.84-19.76-.07-.5-.15-.99-.25-1.47-3.93-19.79-28.86-18.15-30.16-35.011-.08-.949-.08-1.96.01-3.04-6.77.181-9.42-3.75-15.2-4.56-1.19-6.51.22-6.2-1.52-12.16-9.31-6.91-13.02-19.41-19.76-28.88-13.69-2.22-31.83-7.16-48.64-10.64-1.35-2.681-6.75-2.521-3.04-6.08-8.19 1.09-13.16-1.03-16.72-4.561-5.19.63 2.3 8.33-1.52 7.601-6 1.939-3.95-4.16-6.08-6.08-5.19.63 2.3 8.33-1.52 7.6-7.67 1.08-11.1-2.08-16.72-3.04-2.48 6.63 6.68 9.391 3.04 12.16-.73.28-1.64.55-2.68.78-.531.129-1.091.239-1.671.349-3.64.64-8.29.87-12.35.101-4.58-.87-8.4-3.021-9.14-7.311 5.47 4.09 14.08 5.05 21.49 7.21zM608.37 408.15c7.189-2.1 9.189 5.56 6.08 9.12-2.87-2.2-6.74-3.4-6.08-9.12zM586.09 462.31c3.72-1.489 4.93-5.5 8.601-7.04-1.83 1.74-.601 3.86 0 1.521 2.939-.6 2.22 6.93-1.521 4.56.44.511.95.931 1.54 1.29 1.92 1.19 4.59 1.63 7.58 1.75 4.66 15.57-.92 33.78-16.72 28.88-1.351 8.44 4.58 9.61 7.6 13.681-4.78 11.899-15.22 15.16-27.37 9.12-1.17 4.37-3.2 7.92-5.819 10.87-10.521 11.939-30.5 14.3-41.301 22.569-15.37-.649-20.85.09-36.479 1.521-1.141-9.83-16.431-14.431-22.8-6.07-3.73-14-22.23-13.25-33.44-19.77-.65-6.221 1.41-9.73 3.04-13.681 8.33 1.271 16.38 2.46 24.26 3.311 1.95.22 3.891.41 5.82.569 12.4 1.08 24.49 1.141 36.8-.84-1.92-5.63 2.311-12.149 4.561-21.28h7.6c-4.96 6.341-10.76 21.181 1.52 24.32 4.12-.939 3.79-6.35 9.12-6.08 25.971 19.04 22.471-29.84 48.641-19.76 2-.53 2.39-2.67 4.56-3.04.58-13.74-6.02-20.32-9.12-30.4 5.29-2.55 17.471-.739 19.76 4.561 1.427.048 2.577-.172 3.567-.562z" stroke-width="5"/><path d="M586.14 462.42c-1.149.46-2.359 1.11-3.62 1.97-2.34-4.02-15.5-9-18.229-3.04 5.09 6.49 14.39 24.601 4.55 31.92-13.21-4.84-25.67 3.521-24.32 18.24-7.93 5.391-17.88 7.601-25.84 1.521-6.26-1.19-2.85 7.279-9.12 6.08-7.68-1.431-8.579-9.66-10.64-16.721-3.49 6.32-1.83 5.37 0 12.16-10.37 5.09-23.12.91-34.96 6.08-.75-2.95-2.51-4.5-4.88-5.24-1.68-.529-3.66-.649-5.82-.569-8.189.31-18.819 3.51-24.26-1.79.34 4.899-2.69 6.439-1.52 12.16 11.88 4.34 27.489 4.949 31.92 16.729 10.949-7.5 20.239 1.04 25.84 7.59 30.47-.399 51.99-7.359 74.479-22.8 1.08-4.49.42-10.72 4.57-12.16 11.36 3.32 24.58 4.47 27.36-7.6-3.87-3.73-9.42-5.78-7.601-15.2 20.98 7.95 21.94-22.67 10.62-29.04-2.339-1.32-5.199-1.6-8.529-.29zM322.6 471.99h4.56c2.09 1.96 1.5 6.609 1.52 10.64-2.73-.189-3.21 1.86-6.08 1.521-4.25-3.191-2.21-7.781 0-12.161z" stroke-width="5"/><path d="M321.08 481.11c2.09-.061 3.34.72 4.56 1.52 1.75-1.79 1.72-5.37 1.52-9.12h-4.56c1.25 4.3-2.14 3.94-1.52 7.6zM702.61 493.27c1.71 6.45 2.359 15.07-1.521 19.761-6.229-1.881-10.219-21.531 1.521-19.761z" stroke-width="5"/><path d="M701.09 511.51c.641-5.25 4.51-15.979-3.04-16.72-2.59 4.07-.95 14.43 3.04 16.72zM369.72 502.39c1.76-1.27 4.08-2 7.6-1.52 1.35 3.72 3.54 6.59 3.04 12.16-7.88.3-13.14-4.95-10.64-10.64z" stroke-width="5"/><path d="M378.84 511.51c1.1-4.649-2.62-4.47-1.52-9.12h-6.08c-2.49 5.03 1.12 8.97 7.6 9.12zM403.16 513.03c7.35-.25 9.38 4.81 13.68 7.6.9 5.46-1.77 7.36-3.04 10.64-5.44-3.55-15.64-9.16-10.64-18.24z" stroke-width="5"/><path d="M413.8 529.75c4.19-8.34-1.94-15.15-10.64-15.2-1.68 10.29 6.93 10.3 10.64 15.2zM723.26 550.74c-13.54-6.21-28.14-20.71-17.609-37.71 3.38 2.2 7.33 3.819 13.68 3.04 5.53 25.38 34.15 27.66 39.52 53.21-10.55 8.39-27.989 4.689-36.479-7.61 1.51-2.61 2.68-4.439 2.57-6.85-.051-1.11-.381-2.32-1.051-3.79-.211-.09-.421-.19-.631-.29z" stroke-width="5"/><path d="M724.94 554.82c.369 2.05.1 4.3-1.051 6.85 7.9 11.44 23.32 13 33.44 7.61-4.82-25.08-33.73-26.061-38-51.69-6.35.78-10.3-.84-13.68-3.04-11.32 19.96 10.909 25.74 17.609 36.19.822 1.28 1.412 2.63 1.682 4.08zM541.48 648.32c.3-4.78 2.829-7.311 7.6-7.601.75 6.82-.771 11.391-1.521 16.721-.199 8.18-2.199-9.32 0-15.2-1.989.529-2.39 2.67-4.56 3.04.99 1.54 3.5 1.569 3.04 4.56-1.219-.81-2.459-1.59-4.559-1.52zM606.85 669.6c4.69-9.77 21.061-2.58 24.32 3.04-.46 4.101-6.4 2.721-7.6 6.08-7.97-.65-6.52-10.71-16.72-9.12z" stroke-width="5"/><path d="M609.89 668.08c7.101.49 6.57 8.62 13.681 9.12.41-3.13 5.66-1.431 6.08-4.561-3.291-3.859-12.921-9.319-19.761-4.559zM515.64 689.36c-3.56 2.449-10.14-2.24-12.159-6.08-.081-13.42 15.609-5.47 12.159 6.08z" stroke-width="5"/><path d="M514.12 689.36c.71-7.29-1.24-11.931-7.601-12.16-5.209 6.69 2.901 10.58 7.601 12.16zM536.55 689.64c3.57 4.311 3.54 9.011-4.189 10.36 4.06 2.67 9.42 6.06 13.68 12.16 3.63-.94 2.5-6.62 9.12-4.561 4.99 3.811-5.18 10.011-1.521 12.16-1.56 1.95-8.04-4.029-13.68-3.04-1.729-6.37-4.32-11.89-9.12-15.2-.1-2.13 1.11-2.949 2.61-3.479 1.87-.66 4.2-.87 4.99-2.6-.381-2.58-1.12-4.351-2.131-5.601-3.609-4.49-10.579-2.33-16.109-6.56-2.36 2.14-2.71 4.04-1.92 5.71 2.399 5.04 15.439 7.84 14.939 8.43-.22.25-2.91.1-9.979-.46-.15-.01-1.76-2.35-3.04-1.52-.26-2.601-1.4-4.301-2.28-6.28-.83-1.88-1.42-4.01-.76-7.4 7.18-1.169 15.47 3.121 19.39 7.881z" stroke-width="5"/><path d="M552.12 718.24c-.39-4.45 3.439-4.67 3.04-9.12-6.72-2.17-3.97 5.14-9.12 4.56-4.79-1.29-4.32-7.84-9.12-9.12.79 8.84 7.21 12.05 15.2 13.68zM532.36 734.96h6.08v6.08c-3.53-.52-7.12-.99-6.08-6.08zM612.93 742.56c.03-4.689 11.4-7.51 10.641 0-6.071.83-4.581.83-10.641 0zM661.05 780.86c.811.87 1.5 1.779 2.04 2.739-16.08 1.641-19.66-4.47-27.359-13.68.529.05 1.109.13 1.729.22.12.021.24.04.37.061 6.51 1.069 16.9 4.479 22.57 10 .23.21.45.43.65.66z" stroke-width="5"/><path d="M661.05 780.86c.17-.101.351-.2.521-.301l-1.17-.359c-8.24-2.62-15.221-6.5-22.57-10-.19-.101-.39-.19-.58-.28.07.07.14.15.21.22 5.919 6.31 14.279 15.81 23.589 10.72zM682.42 771.29c.14.04.28.09.43.15.011.09.021.17.021.25M682.42 771.29c-2.1-1.76-4.939-3.01-8.689.15 1.799 4.45 4.969-1.2 8.689-.15zM682.87 771.69c-.15-.131-.3-.271-.45-.4" stroke-width="5"/><path d="M682.87 771.69c.22 3.18-6.89-.96-4.58 4.31-2.26-1.79-6.79-1.32-6.08-6.08 3.58-2.479 15.53-3.15 13.68 4.561-.71-.281-1.7-1.581-3.02-2.791zM114.35 677.2l-4.56-4.26-43.54-40.69M109.79 388.39l-33.54-2.14" stroke-width="5"/></g><path fill="none" d="M.25.25h850.394v850.394H.25z"/></svg>