<svg xmlns="http://www.w3.org/2000/svg" width="850.89" height="850.89" viewBox="0 0 850.89 850.89" overflow="visible"><path d="M193.193 671.659c.395 3.11-.229 5.203-1.628 6.519-9.106 1.568-5.398-11.456 1.628-6.519zm-4.891 4.887h3.263c.219-2.934.202-5.633-3.263-4.887-.249 1.904-1.592 3.365 0 4.887z" fill-rule="evenodd" clip-rule="evenodd" stroke="#231f20" stroke-width="7"/><path d="M103.548 540.446c7.342 5.356 11.388 17.676 22.819 16.303 2.337 7.984 14.196 6.447 17.93 13.038-1.147 5.645-3.389 10.198-7.335 13.04 1.923 4.323 7.918 4.572 9.779 8.963-3.535 1.084-6.676 2.563-11.411 2.447-1.405 1.998 1.188 5.452.816 8.964 10.154-1.731 13.404 3.438 14.67 10.594 7.289 1.131 13.414 3.43 21.19 4.076 4.059 4.085 5.087 11.208 11.407 13.04 3.867-8.901 9.246-16.292 19.559-18.747 3.966 6.629 14.167 7.026 17.118 14.671-3.011 2.417-4.683-1.956-8.967-.816-2.543 3.161-7.534 3.877-9.779 7.336 1.993 8.33 7.355 13.29 13.039 17.931-.829 5.962-5.435 8.147-4.891 15.481-2.855 2.578-7.488 3.377-11.408 4.893-13.397 17.675 5.515 31.025 5.704 49.713 14.962.251 13.98 16.442 24.45 21.188-8.911-6.3-9.246-21.18-23.634-22.006 2.371-12.91-10.327-20.749-10.595-31.781-.142-5.787 1.934-12.776 6.52-17.114 12.054 1.455 8.108-13.083 15.483-16.299 7.786 3.353 11.108 11.169 20.374 13.039-1.644 4.059-5.123 6.283-10.591 6.52-11.049 27.478 19.173 10.138 35.857 13.854 4.596 1.024 7.021 4.634 9.779 4.887 2.958.276 4.862-1.325 7.335-.813 6.045 1.25 8.934 8.096 16.299 4.89 3.957 2.615 5.429 4.914 8.964 5.702 12.707 2.843 19.385-5.523 26.081-5.702 9.607-.259 17.321 8.13 27.707 3.26 3.336 3.729 10.555 3.574 17.93 3.26 7.06 13.297 23.319.438 34.229-1.629 5.451-10.034 14.143-16.826 22.005-24.45 7.663-5.029 16.938-3.202 27.709-4.891 6.583-1.027 11.271-6.526 17.928-8.147 7.285-1.777 15.19 1.098 23.633 0 2.511 8.888 15.736 12.635 25.266 7.334 3.131.943 2.381 5.769 5.705 6.521 4.174-1.264 6.862-4.003 11.41-4.892 2.582 18.606 19.624 22.751 40.749 22.817 4.592 17.171-2.8 27.557-8.151 39.121 2.935-6.216 9.51-13.511 10.595-21.191.597-4.215-1.22-7.417-1.629-12.223-.929-10.913 3.505-20.079 4.075-26.895.7-8.408-3.83-16.861-3.26-24.448.909-12.127 12.771-17.52 15.483-27.71-4.493-.933-5.01 6.36-8.15 4.075-.153-6.132 1.426-10.528.815-17.114 11.486-6.745 5.952-10.779 4.075-23.634 3.641-1.95 10.283-4.258 13.854-1.632-2.39 2.771-3.92 6.404-3.26 12.227 1.975 2.649 3.604 1.402 4.889 1.628-.349 5.356-6.702 4.705-6.521 10.596 4.62-1.449 6.397-5.896 12.229-7.336 8.84-2.182 20.28.34 26.076-5.703-3.343-10.805 3.658-23.263 0-31.785 8.799-.202 3.651-9.349 4.892-17.114-3.528-1.098-5.397.392-6.521 0-.188-3.174 1.749-4.225 2.447-6.52-4.732.199-4.309-11.896-1.633-13.854-.262 5.969.061 11.351 6.52 10.595 1.877-2.902 1.469-4.929.816-8.964 1.704-4.546 8.622-3.872 9.778-8.966 2.534.726 3.797 2.725 6.521 3.262 2.881-3.379 12.484-4.347 12.226-8.151-3.894 2.631-8.24 4.803-13.039 6.521-2.862-.945-4.399-3.206-8.15-3.26 2.799 6.092-6.871 5.216-8.151 9.78-.402 4.405 2.086 7.327-1.627 8.963-5.595-.382-2.401-9.551-5.707-12.224-4.563 8.791 1.764 18.587-.813 24.449 3.511-.441 2.639-2.161 6.52-.815-.77 4.394 1.724 12.048-1.633 13.854-4.388-26.863-36.713-16.772-46.452-3.259-4.234-1.155-4.44-5.08-9.779-3.261-.149 2.692.372 6.206-.815 8.964-22.172 1.436-31.712-16.573-42.377-29.338.235-2.751 4.626-1.347 4.888-4.076-.37-13.107-9.165-36.818-3.259-48.079-.635-1.814-1.712-3.181-1.629-5.708a38.71 38.71 0 0 1 5.705-5.706c3.547-23.404-4.146-45.938-13.04-61.936-1.543-.904-3.85-1.037-5.707-1.627-6.092-3.78-7.301-14.054-13.038-19.562-4.023-3.863-10.652-6.463-8.964-14.667-1.987-1.273-4.835-1.685-6.52-3.262-1.221-8.974-8.099-10.745-11.411-17.112-3.816-7.335-5.156-15.413-8.964-22.821-5.614-10.917-11.818-22.38-21.189-27.709-3.146-.159-6.005-.026-8.151.815 1.227-1.764.908-5.067 3.26-5.704 2.484-.385 5.097 6.208 5.707 2.444 3.499-1.171-1.276-5.575 2.444-6.52 2.566-2.159 5.465.567 7.335 1.628 3.426.169 3.423-3.097 6.52-3.256 9.269 6.934 11.806-1.578 17.114-4.079 5.35-2.517 10.844-.278 13.855-4.072-.335 1.962 1.489 1.771.815 4.072 12.007.763 15.98 9.557 26.078 12.227v4.076c7.534 3.143 11.154 1.943 17.114.815-.266 3.807-4.226 3.927-4.076 8.148 3.721.732 4.621-1.357 7.336-1.628-.087 2.798-.422 5.853 1.628 6.519 2.859-8.27 10.604-7.455 20.374-5.704 2.962 7.906 7.253 14.479 14.671 17.927 1.368-2.464 3.896-7.096 6.52-5.704.142 4.745 2.759 7.02 5.707 8.963-4.182 7.163-.693 20.702-5.707 28.525 1.529 2.815 2.962 5.733 3.259 9.779 8.68-4.529 10.128 10.615 17.931 12.223 2.57-.958 1.443-5.618 4.891-5.703 7.141 5.796-5.079 18.06-.815 23.633-1.348-9.079 10.413-21.299 0-24.449-3.866-.06-1.843 5.763-5.706 5.704-4.086-5.86-10.94-15.231-16.3-14.667-5.188-9.667 5.087-19.044.817-30.154.633-2.626 2.056-4.464 4.074-5.704-6.811.021-5.471-8.11-9.778-10.598-2.309 2.042-3.227 5.468-6.52 6.52-5.721-4.06-9.654-9.905-12.228-17.111-6.187.211-10.386-1.569-15.482-2.448-1.4 3.22-3.966 5.272-6.519 7.335.672-3.323.122-2.806 0-6.52-2.79.474-3.795 2.726-7.335 2.447 1.418-3.054 5.782-5.22 3.259-9.782-3.396.411-4.755 2.852-8.15 3.263-12.088-5.571-19.12-16.196-34.229-18.747-.094-2.079-.152-4.194-2.445-4.076-4.791 1.185-6.711 5.244-13.854 4.076-4.028 9.289-9.763 4.215-17.114 4.076-2.06-.04-4.043 2.315-5.704 2.443-4.092.322-7.729-3.83-10.595 0-.179 2.623 1.442 3.449.815 6.52-2.294-1.237-3.203-3.86-7.335-3.26-2.135 9.272-10.665 12.154-20.375 13.855-3.842 6.181-3.389 15.629-11.409 17.927-3.91 1.124-8.59-.882-13.04 0-3.256.65-5.726 3.472-8.963 4.078-10.601 1.977-21.91-.775-30.969 3.256-3.17 8.516-6.549 16.813-19.558 15.486-1.977-5.902-5.645-10.114-12.223-11.407-1.868-21.13-28.655 2.269-38.308-10.598-2.06 2.016-6.063 2.089-8.964 3.263-2.543-8.33-17.884-8.35-25.265-4.89-3.688-2.83-6.284-6.756-8.96-10.596h-8.151c-2.557 2.063-3.648 5.591-5.704 8.151-3.893-1.266-6.042 1.393-9.782 4.072-3.654-3.595 2.443-4.656 1.631-8.963-1.051-5.568-7.77-8.082-15.486-5.707-1.737-3.419-3.349-6.971-4.072-11.408-3.943-1.445-8.831-.689-11.411-1.631-.567-7.852-3.605-13.238-10.596-14.667-5.478 5.389-16.421 5.313-26.894 5.705 3.887-11.298-7.786-13.885-12.223-19.559-5.004-.654-7.017 1.681-10.599 2.443-7.122 1.967 6.593-.637 8.967-1.631 5.438 4.904 16.229 7.819 13.039 18.746 8.728 3.598 23.724-2.126 29.342-4.076 6.237 1.639 7.056 8.702 8.963 14.67 4.334.013 9.202-.511 11.411 1.631-.398 5.558 2.414 7.906 4.072 11.408 6.553-4.146 13.991-.169 14.67 4.891.358 2.68-4.297 2.889-4.075 5.704.139 1.738 4.434 1.19 2.443 3.26-5.941 4.702-11.294 20.082-22.002 12.223-3.518.016-3.001 4.063-6.519 4.079-12.161 2.507-14.814 14.521-23.634 20.374.843 2.143.975 5 .815 8.147-.952.137-.889 1.291-.815 2.445-13.463 3.382-8.29 25.398-22.822 27.709-2.268 2.368 2.677 2.116 1.632 5.704-3.728 6.868-9.225 11.964-13.039 18.746-.716 2.616 2.115 1.688 2.444 3.259-6.719 7.88-19.157 13.375-16.299 26.078-2.305.14-5.592-.698-5.705 1.632 1.155.777.796 5.887 0 8.964-8.097 3.525-13.947.602-24.449.815-3.313 3.207-3.996 9.044-9.779 9.78-3.097-.164-3.094-3.43-6.52-3.261-2.142-.241-.643 3.161-3.263 2.444-13.016 1.48-23.061-5.306-35.042-4.072 14.84.915 27.209 4.301 28.522 18.743 3.521 1.642 7.149 3.173 8.151 7.336 9.716-.482 7.077 11.396 12.224 15.481h2.447c2.268.368-.64-4.438 1.632-4.075 3.614 5.469-4.838 16.064.812 22.006-.772 1.673-2.629 2.259-4.075 3.26 2.526 2.119 4.589-1.445 4.891-4.075-6.812-5.621 6.447-19.993-2.444-22.003-1.807.641.153 5.044-3.262 4.072-1.963-17.32-23.969-18.945-23.631-35.856 5.283-.149 11.878 1.014 13.855-2.448 8.297 10.662 11.723-4.759 17.111-6.519 7.839-2.554 17.284 4.722 23.637 0 .209-3.591 1.3-6.302.812-10.593 2-1.263 6.029-.49 5.708-4.074-2.978-9.985 9.875-16.2 15.483-22.818-5.74-11.216 15.384-15.842 8.964-27.71 13.911-4.019 11.095-24.764 23.637-30.156v-9.776c7.362-5.133 11.653-13.34 18.743-18.747 5.757 1.41 6.396-2.294 8.963-4.075 1.705 1.559 3.894 2.629 6.523 3.263 12.303-3.874 14.421-20.852 28.522-20.374.663-3.688 2.776-5.923 4.891-8.152h7.335c2.103 4.686 4.821 8.761 9.775 10.592 6.189-3.373 12.356-1.466 20.375-.812 1.055 2.205 1.486 5.037 4.076 5.703 3.694-.109 5.898-1.708 8.964-2.444 8.886 8.052 20.483.086 32.6 0 1.939 2.948 4.786 4.995 4.891 9.78 6.964.915 10.459 5.295 12.224 11.411 12.896 3.359 17.293-8.025 22.002-15.486 9.109-4.358 20.653-.975 30.968-3.26 2.61-.574 4.75-2.832 7.336-3.26 4.126-.683 9.125 1.124 13.04 0 9.308-2.669 7.149-14.137 13.854-19.559 11.721.832 12.573-9.414 23.634-7.335 3.03.571 8.121 5.542 10.595 8.967 4.251 5.88 9.653 15.629 13.854 26.078 4.764 11.839 8.453 17.967 14.672 26.078 3.787 4.941 3.472 8.377 8.962 10.594.184 1.542-.917 1.798-.814 3.261 8.45 9.208 15.516 19.8 22.821 30.153 2.282.434 4.234 1.197 6.52 1.629 7.962 16.155 15.685 40.221 12.223 60.309-1.542 2.531-5 3.147-5.704 6.52-.689 3.406 1.587 3.851 1.63 6.521-5.254 7.584 1.23 19.07-.813 30.968 3.482 3.579 4.911 9.216 4.072 17.115-3.645-.656-4.525 1.449-4.889 4.075 1.964 2.385 6.113 2.58 4.889 8.148 10.917 9.395 20.013 24.261 40.749 21.189-1.619-3.999-.422-5.628 0-8.963 5.147-.799 4.533 4.158 8.967 4.072 8.104-15.526 43.149-23.315 44.823 3.263h-3.262c4.442 7.79-1.875 23.289 0 33.413-8.962 4.075-23.864 2.216-31.783 7.336.995-2.15 4.377-4.809 2.445-7.336-2.645-2.029-2.587 2.289-4.889-.815-1.581-7.013 3.349-7.519 3.259-13.039-5.684-2.392-11.344.74-15.485 2.444-2.604 7.928 2.984 9.935 4.075 16.298-1.856 3.034-5.714 4.065-8.15 6.521 1.114 7.753-2.232 14.991 0 21.189 1.844 1.791 3.034-3.989 5.707-4.076-3.913 10.505-12.634 13.143-13.855 24.45-.849 7.847 3.851 15.669 3.26 24.45-.484 7.179-5.271 13.605-4.892 20.375-21.982 1.607-36.161-4.588-39.116-22.007-5.501.478-8.355 3.598-13.039 4.891-.497-3.037-2.022-5.041-4.075-6.519-9.338 3.03-23.376 2.649-24.45-7.336-20.756-5.581-33.791 6.808-46.452 8.15-3.558.376-7.846-.838-12.227 0-17.27 3.307-26.3 18.966-35.856 29.338-8.955 2.187-14.459 7.82-26.078 7.336-3.174-.904-3.015-5.14-6.523-5.708-7.902.571-14.721.058-17.93-4.072-11.49 6.213-20.414-3.763-30.149-2.446-7.173.972-13.849 9.508-24.451 5.707-2.795-2.096-5.349-4.434-8.963-5.707-9.365 2.62-13.059-9.361-22.822-4.073-11.58-14.093-55.362 11.353-44.82-17.114 6.121-.396 9.988-3.05 10.591-8.967-10.94-.466-12.982-9.835-21.19-13.038-2.716-8.691-12.495-10.323-13.855-20.374 3.236-2.197 7.017-3.851 9.782-6.52 4.202.855 8.205 3.001 9.779-1.628-5.329-5.266-13.426-7.767-17.93-13.855-5.213.763-8.39 3.565-13.855 4.073 1.499 5.737-5.949 8.41-7.335 13.854-5.146-2.185-6.141-8.528-9.779-12.224-8.104-.858-15.351-2.578-22.003-4.891-.069-2.918-1.266-4.709-1.631-7.331-2.736-1.885-6.245-2.995-11.408-2.448-.875-2.111-1.983-3.996-1.631-7.335 5.067-.364 9.855-1.008 12.223-4.072-2.772-3.747-8.857-4.181-10.591-8.967 5.372-1.949 8.025-9.152 7.335-14.667-6.688-3.638-15.792-4.854-18.746-12.227-12.292 3.444-15.091-13.597-22.825-14.669zm468.608 3.264c4.51-1.466 3.82-8.135 6.52-11.411-2.199-1.604-3.9-3.707-4.893-6.52 5.679-.846 5.058-7.984 12.227-7.335 1.703-5.146 6.213-9.779 3.26-17.113 4.6-3.107 16.919-3.104 10.593-12.226 1.708-2.639 4.666-4.031 4.892-8.149-5.128-3.293-6.351-10.493-6.521-18.744 4.188-4.773 8.205-9.729 15.483-11.41 2.604 2.922.918 9.733-.813 13.04 4.883-.551 8.218-2.649 8.964-7.336 1.302.601-.185 3.988 2.444 3.259 3.492-.311 3.147-4.456 5.706-5.702-.012 5.444 5.949 4.914 8.148 8.149 3.933-.687 4.594-4.642 8.967-4.89 3.134 2.568 3.412 7.994 7.332 9.779-.172-10.463 15.268-3.012 15.487-9.779.152-4.767-14.325-2.459-13.856-9.78 1.397-1.048 3.204-1.685 3.261-4.075-5.581-6.921.229-16.545-5.704-22.817-5.213-5.515-14.481-3.058-20.374-8.967-1.008-5.353 2.424-6.268 2.444-10.592-2.643-2.688-8.344 1.599-5.705 4.073.279-2.447 2.789-5.12 4.89-3.257-1.713 2.906-2.922 6.315-2.445 11.408 11.152 4.205 28.191 6.381 22.818 24.447 1.071 2.188 2.189 4.334 3.261 6.521-.992 1.725-3.068 2.364-3.261 4.892 2.821 4.51 9.807 4.861 13.04 8.961-4.09 2.977-13.587.54-14.668 6.521-3.023-1.866-4.036-5.746-5.707-8.964-4.789.642-5.906 4.962-10.595 5.704.408-3.09-7.256-4.522-8.148-8.966-2.185 1.893-1.91 6.241-5.706 6.519-.342-1.558-.296-3.508-2.444-3.257-1.934 1.357-2.406 8.418-5.704 5.704.81-4.522 1.86-10.797-2.444-12.223-5.956 3.008-10.773 7.155-15.485 11.408-.597 10.106 1.791 17.224 6.52 22.005-3.16 2.855-6.705 7.236-3.261 12.224-1.829 4.146-9.752 2.201-12.223 5.703 2.079 8.622-.487 17.394-8.966 17.931.998 5.887-6.569 3.209-6.52 8.15.331 3.2 3.584 3.479 4.074 6.521-2.271 2.888-1.461 8.855-5.703 9.779-3.233-1.114-5.831-2.864-10.595-2.448-1.532.959-4.948 4.229-3.26 5.708 1.126-7.389 9.316-3.866 14.67-2.445z" fill-rule="evenodd" clip-rule="evenodd" fill="#fff" stroke="#231f20" stroke-width="7"/><path d="M126.37 555.12c-12.29 3.439-15.09-13.601-22.82-14.67l-.91-.99c1.79 0 3.11-2.65 3.35-4.72-6.81-5.62 6.45-19.99-2.44-22-1.81.64.15 5.04-3.26 4.069-.63-5.56-3.33-9.5-6.69-12.85-5.04-5.03-11.59-8.729-14.87-14.57-.32-.88-.7-1.699-1.13-2.47 0 0-.01-.01-.01-.02-.64-1.761-.98-3.721-.94-5.94 5.29-.15 11.88 1.01 13.86-2.45 8.3 10.66 11.72-4.76 17.11-6.52 1.8-.59 3.69-.65 5.61-.471 6.42.631 13.14 4.101 18.03.471.21-3.59 1.3-6.3.81-10.59 2-1.271 6.03-.49 5.71-4.08-2.98-9.98 9.87-16.2 15.48-22.82-5.74-11.21 15.38-15.84 8.96-27.71 12.36-3.57 11.52-20.32 19.95-27.79.63-.3 1.32-.54 2.06-.73-.02-.26-.04-.52-.04-.78.53-.31 1.08-.6 1.67-.85v-9.78c7.21-5.02 11.47-13 18.3-18.4.24-.11.48-.2.72-.29 5.5 1.23 6.16-2.38 8.69-4.13 1.7 1.56 3.89 2.63 6.52 3.26 12.3-3.87 14.42-20.85 28.52-20.37.67-3.69 2.78-5.92 4.89-8.15h7.34c2.1 4.68 4.82 8.76 9.77 10.59 6.15-3.35 12.28-1.5 20.22-.82.07.03.13.07.2.11 1.02 2.18 1.48 4.94 4.03 5.6 3.7-.11 5.9-1.71 8.97-2.44 8.79 7.97 20.24.24 32.23 0 .16.04.31.09.46.13 1.93 2.87 4.69 4.93 4.8 9.65 6.96.91 10.46 5.29 12.22 11.41 12.9 3.36 17.3-8.03 22.01-15.49 9.1-4.36 20.65-.97 30.96-3.26 2.61-.57 4.75-2.83 7.34-3.26 4.13-.68 9.13 1.13 13.04 0 9.311-2.67 7.15-14.14 13.851-19.56 11.729.83 12.579-9.41 23.64-7.33 3.03.57 8.12 5.54 10.59 8.96 4.25 5.88 9.66 15.63 13.86 26.08 1.52 3.78 2.93 6.98 4.359 9.85.63 1.63 1.341 3.24 2.16 4.82.76 1.46 1.7 2.67 2.72 3.79 1.62 2.51 3.391 4.96 5.431 7.62 1.49 1.95 2.35 3.66 3.17 5.16.04.17.06.36.09.54.13.12.26.24.41.34 1.12 1.88 2.399 3.39 5.29 4.55.18 1.55-.92 1.8-.811 3.26 8.45 9.21 15.511 19.81 22.82 30.16 2.28.43 4.23 1.2 6.521 1.63 7.96 16.149 15.68 40.22 12.22 60.31-1.54 2.53-5 3.141-5.7 6.521-.69 3.399 1.58 3.85 1.62 6.52-5.25 7.58 1.24 19.07-.811 30.96 2.12 2.181 3.48 5.141 4.03 8.9.351 2.4.37 5.14.04 8.22-3.64-.66-4.52 1.45-4.88 4.07 1.13 1.38 2.99 2.03 4.12 3.399.84 1 1.28 2.4.76 4.75 10.92 9.4 20.021 24.261 40.75 21.19-1.62-4-.42-5.63 0-8.96 5.15-.8 4.54 4.16 8.97 4.07 8.101-15.53 43.15-23.311 44.82 3.26h-3.26c4.439 7.79-1.87 23.29 0 33.42-8.96 4.07-23.86 2.21-31.78 7.33.99-2.15 4.37-4.811 2.44-7.33-2.641-2.03-2.58 2.29-4.891-.82-1.58-7.01 3.351-7.52 3.261-13.04-5.681-2.39-11.341.74-15.48 2.45-2.43 7.38 2.25 9.63 3.79 15.04.03.64 0 1.24-.11 1.83-1.97 2.6-5.479 3.65-7.76 5.95 1.12 7.75-2.229 14.99 0 21.18 1.851 1.8 3.04-3.979 5.71-4.07-3.91 10.5-12.63 13.141-13.859 24.45-.841 7.851 3.85 15.67 3.26 24.45-.48 7.18-5.271 13.6-4.891 20.37-21.979 1.61-36.159-4.58-39.109-22-5.5.47-8.36 3.59-13.04 4.89-.5-3.04-2.03-5.04-4.08-6.52-9.34 3.03-23.37 2.649-24.45-7.34-8.81-2.37-16.229-1.5-22.82.39-.819.09-1.63.23-2.439.43-2.18.53-4.15 1.48-6.04 2.551-.01 0-.021 0-.021.01-5.369 2.12-10.279 4.26-15.13 4.77-3.56.38-7.85-.83-12.229 0-17.271 3.311-26.3 18.971-35.85 29.34-8.96 2.19-14.46 7.82-26.08 7.341-3.17-.91-3.02-5.141-6.52-5.71-7.91.569-14.73.06-17.93-4.07-11.49 6.21-20.42-3.771-30.15-2.45-7.18.97-13.85 9.51-24.45 5.71-2.8-2.1-5.35-4.439-8.97-5.71-9.36 2.62-13.06-9.36-22.82-4.07-3.07-3.729-8.39-4.689-14.37-4.609-3.49-.11-7.28.319-11.02.859-.02 0-.03.011-.05.011-13.46 1.52-25.46 3.04-19.38-13.38 6.12-.391 9.99-3.051 10.59-8.961-10.94-.47-12.98-9.84-21.19-13.039-2.71-8.69-12.49-10.32-13.85-20.381 3.23-2.189 7.01-3.85 9.78-6.52 4.2.86 8.2 3.01 9.78-1.62-5.33-5.27-13.43-7.77-17.93-13.86-5.21.761-8.39 3.57-13.86 4.07 1.5 5.74-5.95 8.41-7.33 13.86-5.15-2.19-6.14-8.53-9.78-12.23-8.11-.85-15.35-2.569-22-4.89-.07-2.91-1.27-4.7-1.63-7.33-2.74-1.88-6.25-2.99-11.41-2.45-.88-2.11-1.99-3.99-1.63-7.33 5.06-.359 9.85-1.01 12.22-4.069-2.74-3.711-8.74-4.171-10.53-8.83.12-.11.23-.2.34-.301 5.1-2.159 7.6-9.13 6.93-14.51-6.692-3.631-15.792-4.851-18.742-12.221z" fill="#fff5b4"/><path fill="#ed1e29" d="M807.19 61.89v134h-67.1V61.89z"/><path fill="#fbed24" d="M740.09 195.12v.77h-68.44v-134h68.44v.58z"/><path fill="#394ea1" d="M671.65 195.89h-68.94v-134h68.94v132.53z"/><path d="M637.45 461.38c-.03.01-.07.01-.101.021 0-.03.011-.07.011-.101.03.03.06.06.09.08zM630.03 454.26c2.18 3.05 7.529 4.48 7.33 7.04-2.54-2.24-7.21-2.36-7.33-7.04z"/><path d="M637.45 461.38c4.609-.79 5.74-5.05 10.5-5.689 1.67 3.22 2.68 7.1 5.7 8.97 1.08-5.99 10.58-3.55 14.67-6.53-3.23-4.09-10.221-4.45-13.04-8.96.189-2.52 2.27-3.16 3.26-4.89-1.07-2.19-2.19-4.33-3.26-6.521 5.37-18.07-11.67-20.24-22.82-24.45-.47-5.09.73-8.5 2.45-11.4-2.101-1.87-4.61.81-4.891 3.25-.77-.72-.829-1.6-.46-2.41.891-1.97 4.29-3.56 6.16-1.66-.02 4.32-3.45 5.24-2.439 10.59 5.89 5.91 15.16 3.45 20.37 8.97 5.93 6.27.13 15.9 5.71 22.82-.061 2.391-1.87 3.021-3.261 4.07-.47 7.32 14 5.02 13.851 9.78-.22 6.77-15.66-.681-15.49 9.779-3.92-1.779-4.19-7.21-7.33-9.779-4.37.25-5.03 4.21-8.96 4.89a4.77 4.77 0 0 0-.72-.83zM630.03 454.26c-.04-.05-.08-.1-.101-.149.03-.021.061-.03.09-.051.001.07.001.14.011.2zM607.2 369.31c5.359-.57 12.21 8.8 16.3 14.66 3.86.06 1.84-5.76 5.7-5.7 10.42 3.15-1.351 15.37 0 24.45-4.26-5.58 7.96-17.84.819-23.64-3.449.09-2.319 4.75-4.89 5.71-7.81-1.61-9.25-16.75-17.93-12.23-.3-4.04-1.73-6.96-3.26-9.77 4.02-6.29 2.56-16.26 4-23.65l.069.01c4.272 11.11-5.998 20.49-.808 30.16z"/><path fill="#fff" d="M602.71 61.89v134h-.01l-1.24-134h.01z"/><path d="M595.41 55.01c2.689 0 5.2-.57 7.3-1.56v8.44h-1.25l1.24 134h.01v94.27h-13.93l-.39-236.59c2.04.92 4.45 1.44 7.02 1.44z" fill="#c8c8c8"/><path d="M601.21 601.13c.11.4.21.811.28 1.25-.12.2-.25.39-.391.58.111-.59.141-1.19.111-1.83z"/><path d="M588.39 53.57c-3.88-1.72-6.47-4.84-6.47-8.39 0-5.44 6.04-9.84 13.49-9.84 7.46 0 13.5 4.4 13.5 9.84 0 3.47-2.47 6.52-6.2 8.27-2.1.99-4.61 1.56-7.3 1.56-2.57 0-4.98-.52-7.02-1.44z" fill="#c8c8c8"/><path d="M585.81 706.45c.641 2.92 1.44 5.399 1.011 8.399-1.051 7.44-7.25 14.521-10.311 20.601 4.24-9.03 9.59-17.42 9.3-29zM585.07 699.88c.449 2.311.689 4.49.739 6.57a27.6 27.6 0 0 1-.619-3.82c-.08-.93-.12-1.85-.12-2.75zM572.16 543.71c-5.36-1.42-13.55-4.94-14.67 2.44-1.69-1.48 1.72-4.74 3.26-5.7 4.76-.42 7.36 1.33 10.59 2.439 4.24-.92 3.43-6.89 5.7-9.77-.49-3.05-3.74-3.33-4.07-6.53-.05-4.939 7.521-2.26 6.521-8.149 8.479-.53 11.04-9.301 8.96-17.931 2.47-3.5 10.399-1.55 12.229-5.7-3.449-4.989.101-9.369 3.261-12.22-4.73-4.78-7.12-11.899-6.521-22.01 4.71-4.25 9.53-8.4 15.48-11.41 4.31 1.43 3.26 7.7 2.449 12.23 3.301 2.71 3.771-4.351 5.7-5.71 2.15-.25 2.101 1.699 2.45 3.26 3.79-.28 3.52-4.63 5.7-6.521.12.61.38 1.17.729 1.681-2.46 1.3-2.17 5.34-5.62 5.649-2.63.73-1.14-2.649-2.439-3.25-.75 4.681-4.08 6.78-8.97 7.33 1.729-3.3 3.42-10.12.819-13.04-7.279 1.681-11.3 6.641-15.489 11.41.17 8.25 1.399 15.45 6.52 18.75-.22 4.11-3.18 5.51-4.89 8.15 6.33 9.12-5.99 9.109-10.591 12.22 2.95 7.34-1.56 11.97-3.26 17.11-7.17-.65-6.55 6.489-12.229 7.34 1 2.81 2.7 4.91 4.899 6.52-2.698 3.282-2.008 9.942-6.518 11.412z"/><path d="M557.1 546.46c8.101 10.11 17.561 19.49 33.801 18.44 1.189-2.761.659-6.271.81-8.971 5.34-1.819 5.55 2.11 9.78 3.261 9.74-13.511 42.069-23.601 46.46 3.26 3.35-1.8.859-9.46 1.63-13.851-3.88-1.35-3.01.37-6.521.811 2.57-5.86-3.75-15.66.811-24.45 3.31 2.68.11 11.85 5.71 12.23 3.71-1.641 1.22-4.561 1.63-8.971 1.28-4.56 10.95-3.68 8.15-9.779 3.75.06 5.279 2.319 8.149 3.26 4.8-1.71 9.141-3.891 13.04-6.521.25 3.811-9.35 4.78-12.229 8.15-2.721-.53-3.99-2.53-6.521-3.26-1.16 5.1-8.069 4.42-9.78 8.97.65 4.03 1.061 6.06-.81 8.96-6.46.76-6.79-4.62-6.52-10.59-2.681 1.96-3.101 14.05 1.63 13.85-.7 2.3-2.641 3.351-2.45 6.521 1.13.39 2.99-1.101 6.52 0-1.239 7.77 3.91 16.91-4.89 17.12 3.66 8.52-3.34 20.979 0 31.779-5.79 6.04-17.24 3.521-26.08 5.7-5.83 1.44-7.6 5.89-12.22 7.34-.19-5.89 6.17-5.239 6.52-10.59-1.29-.229-2.92 1.021-4.89-1.63-.66-5.83.87-9.46 3.26-12.23-3.57-2.63-10.22-.319-13.859 1.631.949 6.51 2.84 10.75 2.979 14.229-1.54-5.41-6.22-7.66-3.79-15.04 4.14-1.71 9.8-4.84 15.48-2.45.09 5.521-4.841 6.03-3.261 13.04 2.311 3.11 2.25-1.21 4.891.82 1.93 2.52-1.45 5.18-2.44 7.33 7.92-5.12 22.82-3.26 31.78-7.33-1.87-10.13 4.439-25.63 0-33.42h3.26c-1.67-26.57-36.72-18.79-44.82-3.26-4.43.09-3.819-4.87-8.97-4.07-.42 3.33-1.62 4.96 0 8.96-20.729 3.07-29.83-11.79-40.75-21.19.521-2.35.08-3.75-.76-4.75l.04-.029c1.72 2.2 3.44 4.48 5.23 6.72zM562.37 318.78c-2.05-.67-1.71-3.72-1.62-6.52-2.72.27-3.62 2.36-7.34 1.63-.15-4.22 3.81-4.34 4.08-8.15-5.96 1.13-9.58 2.33-17.12-.82v-3.74c2.79 1.99 5.689 3.87 8.96 5.37 3.4-.41 4.76-2.85 8.16-3.26 2.52 4.56-1.851 6.73-3.26 9.78 3.539.28 4.539-1.97 7.329-2.44.12 3.71.671 3.19 0 6.52 2.551-2.07 5.12-4.12 6.521-7.34 5.1.88 9.3 2.66 15.479 2.45 2.58 7.2 6.511 13.05 12.23 17.11 3.29-1.05 4.21-4.48 6.52-6.52 4.311 2.49 2.971 10.62 9.78 10.6-2.02 1.24-3.439 3.08-4.08 5.7l-.069-.01c.35-1.81.88-3.47 1.699-4.88-2.939-1.94-5.56-4.22-5.699-8.96-2.631-1.4-5.15 3.24-6.521 5.7-7.42-3.45-11.71-10.02-14.67-17.93-9.769-1.75-17.519-2.56-20.379 5.71zM552.61 524.07c.439 2.699.739 5.199.8 7.41-.26 2.729-4.65 1.329-4.891 4.079 1.12 1.341 2.23 2.74 3.351 4.181l-.04.029c-1.13-1.369-2.99-2.02-4.12-3.399.36-2.62 1.24-4.73 4.88-4.07.33-3.08.311-5.819-.04-8.22l.06-.01zM540.37 300.85v.33a35.3 35.3 0 0 1-.78-.56c.25.09.52.16.78.23z"/><path d="M534.67 409.24c-7.31-10.35-14.37-20.95-22.82-30.16-.109-1.46.99-1.71.811-3.26-2.891-1.16-4.17-2.67-5.29-4.55 1.7 1.31 4.27 1.75 6.11 2.93-1.69 8.2 4.939 10.8 8.96 14.66 5.739 5.51 6.949 15.79 13.04 19.57 1.859.59 4.159.72 5.71 1.62 8.89 16 16.579 38.53 13.04 61.94a38.442 38.442 0 0 0-5.711 5.71c-.079 2.52 1 3.89 1.631 5.7-4.91 9.359.34 27.34 2.46 40.67l-.061.01c-.55-3.76-1.91-6.72-4.03-8.9 2.051-11.89-4.439-23.38.811-30.96-.04-2.67-2.311-3.12-1.62-6.52.7-3.38 4.16-3.99 5.7-6.521 3.46-20.09-4.26-44.16-12.22-60.31-2.291-.429-4.241-1.199-6.521-1.629zM515.11 287.81c10.63 1.8 17.27 7.59 24.479 12.81-9.53-2.9-13.6-11.26-25.3-12 .68-2.3-1.15-2.11-.81-4.07-1.931 2.43-4.881 2.38-8.16 2.7 2.59-1.03 4.439-2.8 7.34-3.52 2.291-.12 2.351 2 2.451 4.08zM507.37 371.27c-.15-.1-.28-.22-.41-.34-.03-.18-.05-.37-.09-.54.17.3.33.59.5.88zM506.87 370.39c-.82-1.5-1.68-3.21-3.17-5.16-2.04-2.66-3.811-5.11-5.431-7.62 3.351 3.66 7.521 6.26 8.601 12.78z"/><path d="M505.32 287.25c-1.181.47-2.511.78-4.16.77 1.41-.45 2.82-.64 4.16-.77zM531.41 678.18c4.68-1.3 7.54-4.42 13.04-4.89 2.95 17.42 17.13 23.61 39.109 22-.38-6.771 4.41-13.19 4.891-20.37.59-8.78-4.101-16.6-3.26-24.45 1.229-11.31 9.949-13.95 13.859-24.45-2.67.091-3.859 5.87-5.71 4.07-2.229-6.189 1.12-13.43 0-21.18 2.28-2.3 5.79-3.351 7.76-5.95-.46 2.59-2.319 4.86-6.939 7.58.609 6.58-.97 10.979-.82 17.11 3.141 2.29 3.66-5.011 8.15-4.07-2.71 10.189-14.57 15.58-15.48 27.71-.569 7.58 3.96 16.04 3.26 24.44-.52 6.239-4.27 14.439-4.199 24.149-.19-.96-.42-1.95-.69-2.96-21.13-.07-38.17-4.21-40.75-22.82-4.55.891-7.24 3.631-11.41 4.9-3.319-.76-2.569-5.58-5.7-6.53-9.529 5.3-22.76 1.561-25.27-7.33-7.51.98-14.6-1.189-21.19-.43 6.591-1.89 14.011-2.76 22.82-.39 1.08 9.989 15.11 10.37 24.45 7.34 2.049 1.481 3.579 3.481 4.079 6.521z"/><path d="M501.16 288.02c-.51.16-1.03.36-1.54.6-.63.3-1.22.68-1.79 1.11.34-.56.67-1.2.979-1.92.851.14 1.631.21 2.351.21zM493.39 349c1.561 3.16 3.13 5.92 4.88 8.61-1.02-1.12-1.96-2.33-2.72-3.79-.82-1.58-1.53-3.19-2.16-4.82zM497.83 289.73c-1.14 1.91-2.41 2.91-3.8 3.35 1.28-1.08 2.47-2.35 3.8-3.35zM477.62 665.14c.81-.199 1.62-.34 2.439-.43-2.979.85-5.79 1.91-8.479 2.98 1.89-1.07 3.86-2.02 6.04-2.55zM481.69 291.88c4.81.09 8.939 2.3 12.34 1.2-2.78 2.36-5.92 3.81-11.521-.38-3.1.16-3.1 3.43-6.52 3.26-1.021-.58-2.36-1.66-3.78-2.17l.04-.1c1.19.39 2.44.74 3.74.64 1.661-.13 3.641-2.49 5.701-2.45z"/><path d="M468.65 294.33c-3.721.94 1.06 5.35-2.44 6.52.63-3.07-1-3.9-.82-6.52 1.96-2.62 4.28-1.51 6.86-.64l-.04.1c-1.17-.41-2.4-.44-3.56.54z"/><path d="M374.12 336.7c9.06-4.03 20.37-1.28 30.97-3.25 3.23-.61 5.7-3.43 8.96-4.08 4.45-.88 9.13 1.12 13.04 0 8.021-2.3 7.57-11.75 11.41-17.93 9.71-1.7 18.24-4.58 20.37-13.85 4.14-.6 5.05 2.02 7.34 3.26-.61 3.76-3.22-2.83-5.71-2.45-2.35.64-2.03 3.94-3.26 5.71 2.149-.84 5.01-.98 8.149-.82 9.37 5.33 15.58 16.79 21.19 27.71 2.99 5.82 4.46 12.05 6.81 18-1.43-2.87-2.84-6.07-4.359-9.85-4.2-10.45-9.61-20.2-13.86-26.08-2.47-3.42-7.56-8.39-10.59-8.96-11.061-2.08-11.91 8.16-23.64 7.33-6.7 5.42-4.54 16.89-13.851 19.56-3.91 1.13-8.91-.68-13.04 0-2.59.43-4.73 2.69-7.34 3.26-10.31 2.29-21.86-1.1-30.96 3.26-4.71 7.46-9.11 18.85-22.01 15.49-1.76-6.12-5.26-10.5-12.22-11.41-.11-4.72-2.87-6.78-4.8-9.65 3.03.93 5.14 3.43 5.62 8.83 6.57 1.3 10.24 5.51 12.22 11.41 13.011 1.33 16.391-6.97 19.561-15.49z"/><path d="M336.63 331.82c.03.04.06.09.09.13-.15-.04-.3-.09-.46-.13h.37zM336.26 331.82c-11.99.24-23.44 7.97-32.23 0-3.07.73-5.27 2.33-8.97 2.44-2.55-.66-3.01-3.42-4.03-5.6 1.94 1.12 3.39 2.69 4.03 4.79 2.91-1.18 6.91-1.25 8.97-3.26 7.06 9.41 23.29-.59 32.23 1.63z"/><path d="M290.99 328.56a.3.3 0 0 1 .04.1c-.07-.04-.13-.08-.2-.11.05 0 .11.01.16.01zM271.43 692.85c9.76-5.29 13.46 6.69 22.82 4.07 3.62 1.271 6.17 3.61 8.97 5.71 10.6 3.8 17.27-4.74 24.45-5.71 9.73-1.32 18.66 8.66 30.15 2.45 3.2 4.13 10.02 4.64 17.93 4.07 3.5.569 3.35 4.8 6.52 5.71 11.62.479 17.12-5.15 26.08-7.341 9.55-10.369 18.58-26.029 35.85-29.34 4.38-.83 8.67.38 12.229 0 4.851-.51 9.761-2.649 15.13-4.77-3.88 2.189-7.449 4.899-11.869 5.59-10.771 1.69-20.051-.14-27.71 4.89-7.86 7.62-16.55 14.41-22 24.45-10.92 2.061-27.17 14.92-34.23 1.63-7.38.311-14.6.471-17.93-3.26-10.39 4.87-18.1-3.52-27.71-3.26-6.7.18-13.38 8.54-26.08 5.7-3.54-.79-5.01-3.091-8.97-5.7-7.36 3.2-10.25-3.641-16.29-4.891-2.48-.52-4.38 1.091-7.34.811-2.76-.25-5.18-3.86-9.78-4.891-1.44-.319-2.98-.479-4.59-.529 5.98-.079 11.3.881 14.37 4.611zM246.04 689.1c3.74-.54 7.53-.97 11.02-.859-3.56.039-7.34.449-11.02.859zM220.09 347.3c-2.63-.63-4.82-1.7-6.52-3.26-2.53 1.75-3.19 5.36-8.69 4.13.93-.36 1.92-.65 2.98-.87 3.52-.01 3.01-4.06 6.52-4.08 10.71 7.86 16.06-7.52 22.01-12.22.57-.6.62-.98.4-1.26.11.15.25.3.41.45 3.74-2.68 5.89-5.34 9.78-4.08 2.06-2.56 3.15-6.09 5.71-8.15h8.15c2.68 3.84 5.27 7.77 8.96 10.6 5.46-2.56 15.26-3.21 21.03-.01-7.94-.68-14.07-2.53-20.22.82-4.95-1.83-7.67-5.91-9.77-10.59h-7.34c-2.11 2.23-4.22 4.46-4.89 8.15-14.1-.48-16.22 16.5-28.52 20.37zM209.48 666.6c0 .051.01.11.01.17-.05.04-.09.08-.14.12.04-.09.09-.19.13-.29zM204.6 348.11c.1.02.19.05.28.06-.24.09-.48.18-.72.29.15-.12.29-.24.44-.35zM204.6 720.55c14.39.83 14.73 15.71 23.64 22.01-10.47-4.75-9.49-20.939-24.45-21.189-.1-9.76-5.31-18.07-8.34-26.29 3.31 8.069 11.05 15.139 9.15 25.469zM194.61 692.65c.21.67.44 1.34.68 2.02-.27-.66-.49-1.34-.68-2.02zM198.08 671.66c3.86-1.5 8.41-2.29 11.27-4.771-1.44 3.091-3.67 5.391-8.82 4.771-4.59 4.34-6.66 11.33-6.52 17.109.03 1.261.22 2.48.54 3.671-2.02-6.65-2.12-13.33 3.53-20.78zM185.86 366.86v9.78c-.59.25-1.14.54-1.67.85-.01-.85.12-1.56.86-1.67.15-3.14.02-6-.82-8.14 7.85-5.21 10.81-15.29 19.93-19.22-6.83 5.4-11.09 13.38-18.3 18.4zM184.19 377.49c0 .26.02.52.04.78-.74.19-1.43.43-2.06.73.62-.56 1.29-1.06 2.02-1.51z"/><path d="M198.9 289.44c-5.62 1.95-20.61 7.67-29.34 4.07 3.19-10.92-7.6-13.84-13.04-18.74-2.37.99-16.09 3.59-8.97 1.63 3.58-.76 5.6-3.1 10.6-2.45 4.44 5.68 16.11 8.26 12.22 19.56 10.48-.39 21.42-.31 26.9-5.7 6.99 1.43 10.03 6.81 10.59 14.67 2.58.94 7.47.18 11.41 1.63.73 4.43 2.34 7.99 4.08 11.4 7.71-2.37 14.43.14 15.48 5.71.78 4.13-4.77 5.27-2.04 8.52-.55-.68-2.75-.77-2.85-2-.22-2.81 4.44-3.02 4.08-5.7-.68-5.06-8.12-9.04-14.67-4.89-1.66-3.51-4.47-5.85-4.08-11.41-2.2-2.14-7.07-1.62-11.41-1.63-1.9-5.97-2.72-13.03-8.96-14.67zM138.18 581.85c-.11.101-.22.19-.34.301-.02-.04-.04-.091-.06-.141.14-.05.27-.1.4-.16z"/><path d="M150.82 612.16c6.65 2.32 13.89 4.04 22 4.89 3.64 3.7 4.63 10.04 9.78 12.23 1.38-5.45 8.83-8.12 7.33-13.86 5.47-.5 8.65-3.31 13.86-4.07 4.5 6.091 12.6 8.591 17.93 13.86-1.58 4.63-5.58 2.48-9.78 1.62-2.77 2.67-6.55 4.33-9.78 6.52 1.36 10.061 11.14 11.69 13.85 20.381 8.21 3.199 10.25 12.569 21.19 13.039-.6 5.91-4.47 8.57-10.59 8.961-6.08 16.42 5.92 14.899 19.38 13.38-14.5 2.09-28.22 5.75-20.2-14.19 5.47-.24 8.95-2.46 10.6-6.52-9.27-1.87-12.59-9.69-20.38-13.04-4.12 1.8-4.71 7.14-6.53 11.239-.46-7.199 4.08-9.399 4.9-15.31-5.68-4.65-11.04-9.61-13.04-17.94 2.25-3.449 7.24-4.17 9.78-7.33 4.29-1.14 5.96 3.23 8.97.811-2.95-7.64-13.15-8.04-17.12-14.67-10.31 2.46-15.69 9.85-19.56 18.75-6.32-1.83-7.34-8.95-11.4-13.04-7.78-.65-13.91-2.94-21.19-4.08-1.27-7.15-4.52-12.32-14.67-10.59.37-3.51-2.23-6.96-.82-8.96 4.74.109 7.88-1.37 11.41-2.45-1.86-4.39-7.85-4.64-9.78-8.96.3-.22.6-.45.88-.68 1.79 4.659 7.79 5.119 10.53 8.83-2.37 3.06-7.16 3.71-12.22 4.069-.36 3.34.75 5.22 1.63 7.33 5.16-.54 8.67.57 11.41 2.45.36 2.63 1.56 4.42 1.63 7.33zM126.37 556.75c-11.43 1.37-15.48-10.95-22.82-16.3 7.73 1.069 10.53 18.109 22.82 14.67 2.95 7.37 12.05 8.59 18.74 12.22.67 5.38-1.83 12.351-6.93 14.51 3.2-2.859 5.09-7.029 6.12-12.06-3.74-6.59-15.6-5.06-17.93-13.04zM113.23 471.47c6.39.561 11.18 1.521 17.21-1.109.8-3.08 1.16-8.19 0-8.96.11-2.33 3.4-1.5 5.71-1.641-2.86-12.7 9.58-18.189 16.3-26.069-.33-1.57-3.16-.65-2.45-3.261 3.81-6.78 9.31-11.88 13.04-18.75 1.04-3.59-3.9-3.33-1.63-5.7 13.73-2.18 9.87-21.97 20.76-26.98-8.43 7.47-7.59 24.22-19.95 27.79 6.42 11.87-14.7 16.5-8.96 27.71-5.61 6.62-18.46 12.84-15.48 22.82.32 3.59-3.71 2.81-5.71 4.08.49 4.29-.6 7-.81 10.59-4.89 3.63-11.61.16-18.03-.471v-.049zM103.55 512.74c8.89 2.01-4.37 16.38 2.44 22-.24 2.069-1.56 4.72-3.35 4.72-.49 0-1-.19-1.54-.64 1.45-1 3.3-1.59 4.08-3.261-5.65-5.939 2.8-16.54-.82-22.01-2.27-.359.64 4.45-1.63 4.08h-2.44c-3.78-3.01-3.36-10.22-6.73-13.63l.04-.04c3.36 3.35 6.06 7.29 6.69 12.85 3.41.971 1.45-3.429 3.26-4.069z"/><path d="M78.73 489.39c3.28 5.841 9.83 9.54 14.87 14.57l-.04.04c-1.22-1.24-2.92-1.98-5.5-1.85-1-4.17-4.63-5.7-8.15-7.341-.18-2.009-.58-3.809-1.18-5.419zM77.6 486.92c.43.771.81 1.59 1.13 2.47-.44-.78-.83-1.6-1.13-2.47zM105.99 471.18c2.68-.06 5.05.09 7.24.29v.05c-1.92-.18-3.81-.119-5.61.471-5.39 1.76-8.81 17.18-17.11 6.52-1.98 3.46-8.57 2.3-13.86 2.45-.04 2.22.3 4.18.94 5.94-4.46-7.881-14.57-10.12-26.2-10.83 11.98-1.24 22.03 5.55 35.04 4.069 2.62.721 1.12-2.689 3.26-2.439 3.43-.17 3.43 3.09 6.52 3.26 5.79-.741 6.47-6.581 9.78-9.781z"/><g fill="none" stroke="#231f20" stroke-width="7"><path d="M601.47 61.89h205.72v134H602.7M588.39 53.57c-3.88-1.72-6.47-4.84-6.47-8.39 0-5.44 6.04-9.84 13.49-9.84 7.46 0 13.5 4.4 13.5 9.84 0 3.47-2.47 6.52-6.2 8.27-2.1.99-4.61 1.56-7.3 1.56-2.57 0-4.98-.52-7.02-1.44z"/><path d="M588.39 53.3v.27l.39 236.59M602.71 52.81V290.16M671.65 63.88v130.54M740.09 62.47v132.65M194.55 692.44c-2.02-6.65-2.12-13.33 3.53-20.78 3.86-1.5 8.41-2.29 11.27-4.771.05-.04.09-.08.14-.12 0-.06-.01-.119-.01-.17-.46-7.199 4.08-9.399 4.9-15.31-5.68-4.65-11.04-9.61-13.04-17.94 2.25-3.449 7.24-4.17 9.78-7.33 4.29-1.14 5.96 3.23 8.97.811-2.95-7.64-13.15-8.04-17.12-14.67-10.31 2.46-15.69 9.85-19.56 18.75-6.32-1.83-7.34-8.95-11.4-13.04-7.78-.65-13.91-2.94-21.19-4.08-1.27-7.15-4.52-12.32-14.67-10.59.37-3.51-2.23-6.96-.82-8.96 4.74.109 7.88-1.37 11.41-2.45-1.86-4.39-7.85-4.64-9.78-8.96.3-.22.6-.45.88-.68.12-.11.23-.2.34-.301 3.2-2.859 5.09-7.029 6.12-12.06-3.74-6.59-15.6-5.06-17.93-13.04-11.43 1.37-15.48-10.95-22.82-16.3 7.73 1.069 10.53 18.109 22.82 14.67 2.95 7.37 12.05 8.59 18.74 12.22.67 5.38-1.83 12.351-6.93 14.51-.13.061-.26.11-.4.16.02.05.04.101.06.141 1.79 4.659 7.79 5.119 10.53 8.83-2.37 3.06-7.16 3.71-12.22 4.069-.36 3.34.75 5.22 1.63 7.33 5.16-.54 8.67.57 11.41 2.45.36 2.63 1.56 4.42 1.63 7.33 6.65 2.32 13.89 4.04 22 4.89 3.64 3.7 4.63 10.04 9.78 12.23 1.38-5.45 8.83-8.12 7.33-13.86 5.47-.5 8.65-3.31 13.86-4.07 4.5 6.091 12.6 8.591 17.93 13.86-1.58 4.63-5.58 2.48-9.78 1.62-2.77 2.67-6.55 4.33-9.78 6.52 1.36 10.061 11.14 11.69 13.85 20.381 8.21 3.199 10.25 12.569 21.19 13.039-.6 5.91-4.47 8.57-10.59 8.961-6.08 16.42 5.92 14.899 19.43 13.369-.02 0-.03.011 0 0 3.68-.409 7.46-.819 11.02-.859 5.98-.08 11.3.88 14.37 4.609 9.76-5.29 13.46 6.69 22.82 4.07 3.62 1.271 6.17 3.61 8.97 5.71 10.6 3.8 17.27-4.74 24.45-5.71 9.73-1.32 18.66 8.66 30.15 2.45 3.2 4.13 10.02 4.64 17.93 4.07 3.5.569 3.35 4.8 6.52 5.71 11.62.479 17.12-5.15 26.08-7.341 9.55-10.369 18.58-26.029 35.85-29.34 4.38-.83 8.67.38 12.229 0 4.851-.51 9.761-2.649 15.15-4.779-.01 0-.021 0 0 0 2.689-1.07 5.5-2.131 8.479-2.98 6.591-1.89 14.011-2.76 22.82-.39 1.08 9.989 15.11 10.37 24.45 7.34 2.05 1.479 3.58 3.479 4.08 6.52 4.68-1.3 7.54-4.42 13.04-4.89 2.95 17.42 17.13 23.61 39.109 22-.38-6.771 4.41-13.19 4.891-20.37.59-8.78-4.101-16.6-3.26-24.45 1.229-11.31 9.949-13.95 13.859-24.45-2.67.091-3.859 5.87-5.71 4.07-2.229-6.189 1.12-13.43 0-21.18 2.28-2.3 5.79-3.351 7.76-5.95.141-.19.271-.38.391-.58-.07-.439-.17-.85-.28-1.25-1.54-5.41-6.22-7.66-3.79-15.04 4.14-1.71 9.8-4.84 15.48-2.45.09 5.521-4.841 6.03-3.261 13.04 2.311 3.11 2.25-1.21 4.891.82 1.93 2.52-1.45 5.18-2.44 7.33 7.92-5.12 22.82-3.26 31.78-7.33-1.87-10.13 4.439-25.63 0-33.42h3.26c-1.67-26.57-36.72-18.79-44.82-3.26-4.43.09-3.819-4.87-8.97-4.07-.42 3.33-1.62 4.96 0 8.96-20.729 3.07-29.83-11.79-40.75-21.19.521-2.35.08-3.75-.76-4.75-1.13-1.369-2.99-2.02-4.12-3.399.36-2.62 1.24-4.73 4.88-4.07.33-3.08.311-5.819-.04-8.22-.55-3.76-1.91-6.72-4.03-8.9 2.051-11.89-4.439-23.38.811-30.96-.04-2.67-2.311-3.12-1.62-6.52.7-3.38 4.16-3.99 5.7-6.521 3.46-20.09-4.26-44.16-12.22-60.31-2.29-.43-4.24-1.2-6.521-1.63-7.31-10.35-14.37-20.95-22.82-30.16-.109-1.46.99-1.71.811-3.26-2.891-1.16-4.17-2.67-5.29-4.55-.17-.29-.33-.58-.5-.88-.82-1.5-1.68-3.21-3.17-5.16-2.04-2.66-3.811-5.11-5.431-7.62-1.75-2.69-3.319-5.45-4.88-8.61-1.43-2.87-2.84-6.07-4.359-9.85-4.2-10.45-9.61-20.2-13.86-26.08-2.47-3.42-7.56-8.39-10.59-8.96-11.061-2.08-11.91 8.16-23.64 7.33-6.7 5.42-4.54 16.89-13.851 19.56-3.91 1.13-8.91-.68-13.04 0-2.59.43-4.73 2.69-7.34 3.26-10.31 2.29-21.86-1.1-30.96 3.26-4.71 7.46-9.11 18.85-22.01 15.49-1.76-6.12-5.26-10.5-12.22-11.41-.11-4.72-2.87-6.78-4.8-9.65-.03-.04-.06-.09-.09-.13h-.37c-11.99.24-23.44 7.97-32.23 0-3.07.73-5.27 2.33-8.97 2.44-2.55-.66-3.01-3.42-4.03-5.6a.3.3 0 0 0-.04-.1c-.05 0-.11-.01-.16-.01-7.94-.68-14.07-2.53-20.22.82-4.95-1.83-7.67-5.91-9.77-10.59h-7.34c-2.11 2.23-4.22 4.46-4.89 8.15-14.1-.48-16.22 16.5-28.52 20.37-2.63-.63-4.82-1.7-6.52-3.26-2.53 1.75-3.19 5.36-8.69 4.13-.09-.01-.18-.04-.28-.06-.15.11-.29.23-.44.35-6.83 5.4-11.09 13.38-18.3 18.4v9.78c-.59.25-1.14.54-1.67.85-.73.45-1.4.95-2.02 1.51-8.43 7.47-7.59 24.22-19.95 27.79 6.42 11.87-14.7 16.5-8.96 27.71-5.61 6.62-18.46 12.84-15.48 22.82.32 3.59-3.71 2.81-5.71 4.08.49 4.29-.6 7-.81 10.59-4.89 3.63-11.61.16-18.03-.471-1.92-.18-3.81-.119-5.61.471-5.39 1.76-8.81 17.18-17.11 6.52-1.98 3.46-8.57 2.3-13.86 2.45-.04 2.22.3 4.18.95 5.96 0 0-.01-.01 0 0 .3.87.69 1.69 1.13 2.47 3.28 5.841 9.83 9.54 14.87 14.57 3.36 3.35 6.06 7.29 6.69 12.85 3.41.971 1.45-3.43 3.26-4.069 8.89 2.01-4.37 16.38 2.44 22-.24 2.069-1.56 4.72-3.35 4.72-.49 0-1-.19-1.54-.64 1.45-1 3.3-1.59 4.08-3.261-5.65-5.939 2.8-16.54-.82-22.01-2.27-.359.64 4.45-1.63 4.08h-2.44c-3.78-3.01-3.36-10.22-6.73-13.63-1.22-1.24-2.92-1.98-5.5-1.85-1-4.17-4.63-5.7-8.15-7.341-.18-2.01-.58-3.81-1.18-5.42-.32-.88-.7-1.699-1.13-2.47M195.29 694.67c-.24-.68-.47-1.35-.68-2.02M195.45 695.08c3.31 8.07 11.05 15.14 9.15 25.47 14.39.83 14.73 15.71 23.64 22.01-10.47-4.75-9.49-20.939-24.45-21.189-.1-9.761-5.31-18.071-8.34-26.291z"/><path d="M245.99 689.11c-14.5 2.09-28.22 5.75-20.2-14.19 5.47-.24 8.95-2.46 10.6-6.52-9.27-1.87-12.59-9.69-20.38-13.04-4.12 1.8-4.71 7.14-6.53 11.239-.04.101-.09.2-.13.29-1.44 3.091-3.67 5.391-8.82 4.771-4.59 4.34-6.66 11.33-6.52 17.109.03 1.261.22 2.48.6 3.881-.02-.07-.04-.141 0 0 .19.68.41 1.359.84 2.43-.06-.14-.12-.28-.16-.41M471.56 667.7c-3.88 2.189-7.449 4.899-11.869 5.59-10.771 1.69-20.051-.14-27.71 4.89-7.86 7.62-16.55 14.41-22 24.45-10.92 2.061-27.17 14.92-34.23 1.63-7.38.311-14.6.471-17.93-3.26-10.39 4.87-18.1-3.52-27.71-3.26-6.7.18-13.38 8.54-26.08 5.7-3.54-.79-5.01-3.091-8.97-5.7-7.36 3.2-10.25-3.641-16.29-4.891-2.48-.52-4.38 1.091-7.34.811-2.76-.25-5.18-3.86-9.78-4.891-1.44-.319-2.98-.479-4.59-.529-3.49-.11-7.28.319-11.02.859M236.79 329.74c.11.15.25.3.41.45 3.74-2.68 5.89-5.34 9.78-4.08 2.06-2.56 3.15-6.09 5.71-8.15h8.15c2.68 3.84 5.27 7.77 8.96 10.6 5.46-2.56 15.26-3.21 21.03-.01.07.03.13.07.2.11 1.94 1.12 3.39 2.69 4.03 4.79 2.91-1.18 6.91-1.25 8.97-3.26 7.06 9.41 23.29-.59 32.23 1.63.16.04.31.09.46.13 3.03.93 5.14 3.43 5.62 8.83 6.57 1.3 10.24 5.51 12.22 11.41 13.01 1.33 16.39-6.97 19.56-15.49 9.06-4.03 20.37-1.28 30.97-3.25 3.23-.61 5.7-3.43 8.96-4.08 4.45-.88 9.13 1.12 13.04 0 8.021-2.3 7.57-11.75 11.41-17.93 9.71-1.7 18.24-4.58 20.37-13.85 4.14-.6 5.05 2.02 7.34 3.26.63-3.07-1-3.9-.82-6.52 1.96-2.62 4.28-1.51 6.86-.64 1.19.39 2.44.74 3.74.64 1.66-.13 3.64-2.49 5.7-2.45 4.81.09 8.939 2.3 12.34 1.2 1.39-.44 2.66-1.44 3.8-3.35.34-.56.67-1.2.979-1.92.851.14 1.631.21 2.351.21 1.649.01 2.979-.3 4.16-.77 2.59-1.03 4.439-2.8 7.34-3.52 2.29-.12 2.35 2 2.45 4.08 10.63 1.8 17.27 7.59 24.479 12.81.26.19.521.38.78.56 2.79 1.99 5.689 3.87 8.96 5.37 3.4-.41 4.76-2.85 8.16-3.26 2.52 4.56-1.851 6.73-3.26 9.78 3.539.28 4.539-1.97 7.329-2.44.12 3.71.671 3.19 0 6.52 2.551-2.07 5.12-4.12 6.521-7.34 5.1.88 9.3 2.66 15.479 2.45 2.58 7.2 6.511 13.05 12.23 17.11 3.29-1.05 4.21-4.48 6.52-6.52 4.311 2.49 2.971 10.62 9.78 10.6-2.02 1.24-3.439 3.08-4.08 5.7 4.271 11.11-6 20.49-.81 30.16 5.359-.57 12.21 8.8 16.3 14.66 3.86.06 1.84-5.76 5.7-5.7 10.42 3.15-1.351 15.37 0 24.45-4.26-5.58 7.96-17.84.819-23.64-3.449.09-2.319 4.75-4.89 5.71-7.81-1.61-9.25-16.75-17.93-12.23-.3-4.04-1.73-6.96-3.26-9.77 4.02-6.29 2.56-16.26 4-23.65.35-1.81.88-3.47 1.699-4.88-2.939-1.94-5.56-4.22-5.699-8.96-2.631-1.4-5.15 3.24-6.521 5.7-7.42-3.45-11.71-10.02-14.67-17.93-9.77-1.75-17.52-2.56-20.38 5.71-2.05-.67-1.71-3.72-1.62-6.52-2.72.27-3.62 2.36-7.34 1.63-.15-4.22 3.81-4.34 4.08-8.15-5.96 1.13-9.58 2.33-17.12-.82v-3.74-.33c-.26-.07-.53-.14-.78-.23-9.53-2.9-13.6-11.26-25.3-12 .68-2.3-1.15-2.11-.81-4.07-1.931 2.43-4.881 2.38-8.16 2.7-1.34.13-2.75.32-4.16.77-.51.16-1.03.36-1.54.6-.63.3-1.22.68-1.79 1.11-1.33 1-2.521 2.27-3.8 3.35-2.78 2.36-5.92 3.81-11.521-.38-3.1.16-3.1 3.43-6.52 3.26-1.021-.58-2.36-1.66-3.78-2.17-1.17-.41-2.4-.44-3.56.54-3.721.94 1.06 5.35-2.44 6.52-.61 3.76-3.22-2.83-5.71-2.45-2.35.64-2.03 3.94-3.26 5.71 2.149-.84 5.01-.98 8.149-.82 9.37 5.33 15.58 16.79 21.19 27.71 2.99 5.82 4.46 12.05 6.81 18 .63 1.63 1.341 3.24 2.16 4.82.76 1.46 1.7 2.67 2.72 3.79 3.351 3.66 7.521 6.26 8.601 12.78.04.17.06.36.09.54.13.12.26.24.41.34 1.7 1.31 4.27 1.75 6.11 2.93-1.69 8.2 4.939 10.8 8.96 14.66 5.739 5.51 6.949 15.79 13.04 19.57 1.859.59 4.159.72 5.71 1.62 8.89 16 16.579 38.53 13.04 61.94a38.442 38.442 0 0 0-5.711 5.71c-.079 2.52 1 3.89 1.631 5.7-4.91 9.359.34 27.34 2.46 40.67.439 2.699.739 5.199.8 7.41-.26 2.729-4.65 1.329-4.891 4.079 1.12 1.341 2.23 2.74 3.351 4.181 1.72 2.2 3.439 4.479 5.229 6.72 8.101 10.11 17.561 19.49 33.801 18.44 1.189-2.761.659-6.271.81-8.971 5.34-1.819 5.55 2.11 9.78 3.261 9.74-13.511 42.069-23.601 46.46 3.26 3.35-1.8.859-9.46 1.63-13.851-3.88-1.35-3.01.37-6.521.811 2.57-5.86-3.75-15.66.811-24.45 3.31 2.68.11 11.85 5.71 12.23 3.71-1.641 1.22-4.561 1.63-8.971 1.28-4.56 10.95-3.68 8.15-9.779 3.75.06 5.279 2.319 8.149 3.26 4.8-1.71 9.141-3.891 13.04-6.521.25 3.811-9.35 4.78-12.229 8.15-2.721-.53-3.99-2.53-6.521-3.26-1.16 5.1-8.069 4.42-9.78 8.97.65 4.03 1.061 6.06-.81 8.96-6.46.76-6.79-4.62-6.52-10.59-2.681 1.96-3.101 14.05 1.63 13.85-.7 2.3-2.641 3.351-2.45 6.521 1.13.39 2.99-1.101 6.52 0-1.239 7.77 3.91 16.91-4.89 17.12 3.66 8.52-3.34 20.979 0 31.779-5.79 6.04-17.24 3.521-26.08 5.7-5.83 1.44-7.6 5.89-12.22 7.34-.19-5.89 6.17-5.239 6.52-10.59-1.29-.229-2.92 1.021-4.89-1.63-.66-5.83.87-9.46 3.26-12.23-3.57-2.63-10.22-.319-13.859 1.631.949 6.51 2.84 10.75 2.979 14.229.03.64 0 1.24-.11 1.83-.46 2.59-2.319 4.86-6.939 7.58.609 6.58-.97 10.979-.82 17.11 3.141 2.29 3.66-5.011 8.15-4.07-2.71 10.189-14.57 15.58-15.48 27.71-.569 7.58 3.96 16.04 3.26 24.44-.52 6.239-4.27 14.439-4.199 24.149 0 .9.04 1.82.12 2.75.119 1.38.35 2.64.619 3.82.641 2.92 1.44 5.399 1.011 8.399-1.051 7.44-7.25 14.521-10.311 20.601-.09.2-.189.399 0 0 4.24-9.03 9.59-17.42 9.3-29-.05-2.08-.29-4.26-.739-6.57-.19-.96-.42-1.95-.69-2.96-21.13-.07-38.17-4.21-40.75-22.82-4.55.891-7.24 3.631-11.41 4.9-3.319-.76-2.569-5.58-5.7-6.53-9.529 5.3-22.76 1.561-25.27-7.33-7.51.98-14.6-1.189-21.19-.43-.819.09-1.63.23-2.439.43-2.18.53-4.15 1.48-6.04 2.551M236.79 329.74c-.55-.68-2.75-.77-2.85-2-.22-2.81 4.44-3.02 4.08-5.7-.68-5.06-8.12-9.04-14.67-4.89-1.66-3.51-4.47-5.85-4.08-11.41-2.2-2.14-7.07-1.62-11.41-1.63-1.9-5.97-2.72-13.03-8.96-14.67-5.62 1.95-20.61 7.67-29.34 4.07 3.19-10.92-7.6-13.84-13.04-18.74-2.37.99-16.09 3.59-8.97 1.63 3.58-.76 5.6-3.1 10.6-2.45 4.44 5.68 16.11 8.26 12.22 19.56 10.48-.39 21.42-.31 26.9-5.7 6.99 1.43 10.03 6.81 10.59 14.67 2.58.94 7.47.18 11.41 1.63.73 4.43 2.34 7.99 4.08 11.4 7.71-2.37 14.43.14 15.48 5.71.78 4.13-4.77 5.27-2.04 8.52z"/><path d="M77.59 486.9c-4.46-7.881-14.57-10.12-26.2-10.83 11.98-1.24 22.03 5.55 35.04 4.069 2.62.721 1.12-2.689 3.26-2.439 3.43-.17 3.43 3.09 6.52 3.26 5.79-.74 6.47-6.58 9.78-9.78 2.68-.06 5.05.09 7.24.29 6.39.561 11.18 1.521 17.21-1.109.8-3.08 1.16-8.19 0-8.96.11-2.33 3.4-1.5 5.71-1.641-2.86-12.7 9.58-18.189 16.3-26.069-.33-1.57-3.16-.65-2.45-3.261 3.81-6.78 9.31-11.88 13.04-18.75 1.04-3.59-3.9-3.33-1.63-5.7 13.73-2.18 9.87-21.97 20.76-26.98.63-.3 1.32-.54 2.06-.73-.02-.26-.04-.52-.04-.78-.01-.85.12-1.56.86-1.67.15-3.14.02-6-.82-8.14 7.85-5.21 10.81-15.29 19.93-19.22.24-.11.48-.2.72-.29.93-.36 1.92-.65 2.98-.87 3.52-.01 3.01-4.06 6.52-4.08 10.71 7.86 16.06-7.52 22.01-12.22.57-.6.62-.98.4-1.26M557.49 546.15c-1.69-1.48 1.72-4.74 3.26-5.7 4.76-.42 7.36 1.33 10.59 2.439 4.24-.92 3.43-6.89 5.7-9.77-.49-3.05-3.74-3.33-4.07-6.53-.05-4.939 7.521-2.26 6.521-8.149 8.479-.53 11.04-9.301 8.96-17.931 2.47-3.5 10.399-1.55 12.229-5.7-3.449-4.989.101-9.369 3.261-12.22-4.73-4.78-7.12-11.899-6.521-22.01 4.71-4.25 9.53-8.4 15.48-11.41 4.31 1.43 3.26 7.7 2.449 12.23 3.301 2.71 3.771-4.351 5.7-5.71 2.15-.25 2.101 1.699 2.45 3.26 3.79-.28 3.52-4.63 5.7-6.521.12.61.38 1.17.729 1.681.021.05.061.1.101.149 2.18 3.05 7.529 4.48 7.33 7.04 0 .03-.011.07-.011.101.03-.011.07-.011.101-.021 4.609-.79 5.74-5.05 10.5-5.689 1.67 3.22 2.68 7.1 5.7 8.97 1.08-5.99 10.58-3.55 14.67-6.53-3.23-4.09-10.221-4.45-13.04-8.96.189-2.52 2.27-3.16 3.26-4.89-1.07-2.19-2.19-4.33-3.26-6.521 5.37-18.07-11.67-20.24-22.82-24.45-.47-5.09.73-8.5 2.45-11.4-2.101-1.87-4.61.81-4.891 3.25-.77-.72-.829-1.6-.46-2.41.891-1.97 4.29-3.56 6.16-1.66-.02 4.32-3.45 5.24-2.439 10.59 5.89 5.91 15.16 3.45 20.37 8.97 5.93 6.27.13 15.9 5.71 22.82-.061 2.391-1.87 3.021-3.261 4.07-.47 7.32 14 5.02 13.851 9.78-.22 6.77-15.66-.681-15.49 9.779-3.92-1.779-4.19-7.21-7.33-9.779-4.37.25-5.03 4.21-8.96 4.89a4.77 4.77 0 0 0-.72-.83.595.595 0 0 1-.09-.08c-2.54-2.24-7.21-2.359-7.33-7.04-.011-.06-.011-.13-.011-.2-.029.021-.06.03-.09.051-2.46 1.3-2.17 5.34-5.62 5.649-2.63.73-1.14-2.649-2.439-3.25-.75 4.681-4.08 6.78-8.97 7.33 1.729-3.3 3.42-10.12.819-13.04-7.279 1.681-11.3 6.641-15.489 11.41.17 8.25 1.399 15.45 6.52 18.75-.22 4.11-3.18 5.51-4.89 8.15 6.33 9.12-5.99 9.109-10.591 12.22 2.95 7.34-1.56 11.97-3.26 17.11-7.17-.65-6.55 6.489-12.229 7.34 1 2.81 2.7 4.91 4.899 6.52-2.699 3.28-2.01 9.94-6.52 11.41-5.358-1.418-13.548-4.938-14.668 2.442z"/></g><path fill-rule="evenodd" clip-rule="evenodd" fill="none" d="M.25.25h850.394v850.394H.25z"/></svg>