<svg xmlns="http://www.w3.org/2000/svg" width="850.89" height="850.89" viewBox="0 0 850.89 850.89" overflow="visible"><path d="M751 105.39c.01.08.01.16.02.24l-.579-.12.559-.12zM750.11 108.07l.71.03-.061.3-.649-.33zM750.51 102.93l-.399.02.34-.18c.019.05.039.1.059.16zM749.89 110.71c-.06.1-.109.2-.17.3l-.6-.55.77.25zM743.11 115.06l.33.66-.301.06-.029-.72zM740.43 115.96l.12-.56.12.58c-.08-.01-.16-.01-.24-.02zM737.99 115.06l-.021.41c-.05-.02-.109-.04-.16-.06l.181-.35zM735.6 114.08l-.06.17a.197.197 0 0 1-.06-.04l.12-.13z" fill="#fff"/><path d="M547.47 488.36c-1.42 4.77-3.72 9.27-5.939 13.939 1.119-5.129 2.939-9.879 5.939-13.939zM535.34 523.19c.36-8.011 3.2-14.61 6.19-20.891-3.91 17.931.72 40.49-6.66 54.55 4.08-8.879-.06-21.859.47-33.659zM534.87 556.85a14.03 14.03 0 0 1-2.09 3.301 23.969 23.969 0 0 0 2.09-3.301zM528.73 442.2c-.98-9.01 6.939-22.88 6.609-36.36-.39-16.32-12.26-27.37-1.649-39.67-9.301-18.25-22.46-32.63-21.49-61.15a45.392 45.392 0 0 1-10.4-9.97c5.351 1.94 9.82 4.9 12.061 11.62-.82 28.36 13.58 41.51 21.479 61.15-11 11.17 1.58 24.65 1.66 39.67.07 12.73-8.14 24.979-6.61 36.359 2.23 16.641 18.44 26.29 19.83 41.32a28.444 28.444 0 0 0-2.75 3.19c.48-1.58.851-3.181 1.101-4.841C545.46 469.48 530.5 458.42 528.73 442.2zM517.16 184.36c6.81-1.11 13.63-1.63 20.53-1.77l-10.971 1.89c-3.72.35-7.45.85-11.21 1.54-5.81 1.06-11.5 3.51-17.26 6.37 5.891-3.56 12.051-6.91 18.911-8.03zM500.64 293.45c.38.54.761 1.08 1.16 1.6-6.02-2.18-13.13-3.06-19.35-6.56-2.8-1.57-5.58-3.91-8.28-6.84 6.68 6.08 15.18 10.33 26.47 11.8zM498.25 192.39c-7 4.21-13.63 8.71-20.65 10.13 7.16-2.93 13.95-6.81 20.65-10.13zM494.02 731.44c13.511 4.909 28.2 2.029 42.98 0-7.9 21.909 2.61 42.47 0 62.81h-1.66c3.021-19.85-8.27-40.07 0-61.15-15.2 3.53-29.55 3.301-44.62 0-3.58-8.92-9.31-15.699-16.939-20.56 7.679 2.58 14.779 9.6 20.239 18.9zM469.23 709.96c1.579.79 3.1 1.65 4.55 2.58-2.7-.9-5.46-1.26-8.25-.97a18.22 18.22 0 0 1 3.7-1.61z"/><path d="M95.7 665.33c-9.59-6.94-20.16-12.9-31.41-18.18-11.08-21.17-17.88-54.601-6.61-80.99 14.74-5.26 28.22-11.76 40.65-19.34 4.56-2.03 8.61-4.45 11.64-7.61 1.32-.92 2.62-1.85 3.91-2.8 3.72-18.32 18.05-29.17 14.87-54.54-1.44-11.51-8.77-21.7-9.91-31.41-5.83-49.26 31.28-74.9 51.96-113.65 1.81-2.84 3.48-5.7 5-8.6 8.51.48 13.09-2.96 22.37-1.71 8.99-13.04 18.64-25.44 33.06-33.05 30.35 3.36 34.45-19.54 62.8-18.18 15.21 5.73 4.4 37.47 19.84 42.97 4.53-1.64 9.07-3.71 13.58-6.15 3.33-1.47 6.55-3.44 9.68-5.74 0 0 .01-.01.02-.01 19.55-12.66 38.07-30.7 52.75-45.95 9.28-9.65 14.98-21.46 20.58-34.62.01-.01.01-.02.02-.03 3.66-6.55 7.04-13.65 10.14-21.5 8.69.1 18.84-5.6 25.45-1.7 2.96.11 2.771 1.44 1.601 3.27-1.62 2.49-5.091 5.9-4.9 8.3 9.09 23.87 14.11 51.81 31.36 67.52 0 0 .01.02.02.02 2.7 2.93 5.48 5.27 8.28 6.84 6.22 3.5 13.33 4.38 19.35 6.56a45.412 45.412 0 0 0 10.4 9.97c-.97 28.52 12.189 42.9 21.49 61.15-10.61 12.3 1.26 23.35 1.649 39.67.33 13.48-7.59 27.351-6.609 36.36 1.77 16.22 16.729 27.28 19.84 41.319-.25 1.66-.62 3.261-1.101 4.841-3 4.06-4.819 8.81-5.939 13.939-2.99 6.28-5.83 12.88-6.19 20.891-.53 11.8 3.61 24.779-.47 33.659a24.003 24.003 0 0 1-2.09 3.301c-2.21 2.64-5.601 4.71-10.66 6.01-16.44-14.7-40.4-2.09-56.19 6.609-16.58-4.359-22.56-19.31-36.37-26.439-7.939 4.08-14.49 7.439-28.089 13.22-13.69 5.82-26.16 19.45-34.71 19.83-20.6.93-28.22-25.189-46.28-33.05-.66 1.03-1.28 2.1-1.85 3.189-13.02 24.7-3.8 63.381-8.07 92.671-4.47 30.699-38.43 49.96-67.76 34.71-11 5.779-18.4 5.54-28.1 13.22-11.4-10.58-27.57-5.61-36.36-1.65-10.47-2.96-11.34-19.729-4.96-26.45-1.05-3.06-3.07-5.149-4.65-7.68-.37-2.47-1.05-5.02-2.21-7.66.01-.87.09-1.819.25-2.84-19.42-7.47-42.52-26.689-66.12-14.87-3.032 10.74-2.892 24.65-4.952 36.36z" fill="#fff5b4"/><path d="M465.53 711.57c-6.61 3.739-10.03 10.66-17.78 13.26-8.08-7.34-12.01-14.94-13.38-23.44 4.17 7.551 10.28 13.16 13.38 21.79 5.73-7.44 11.81-11 17.78-11.61zM447.75 205.85c-3.08 19.67 10.19 58.22 26.4 75.78-17.25-15.71-22.271-43.65-31.36-67.52-.19-2.4 3.28-5.81 4.9-8.3l.06.04z"/><path d="M421.3 202.54c18.59-7.67 34.91 4.22 56.2 0 .03-.01.07-.01.1-.02-9.14 3.73-18.899 5.89-29.85 3.33l-.06-.04c1.17-1.83 1.359-3.16-1.601-3.27-6.609-3.9-16.76 1.8-25.45 1.7.221-.56.441-1.13.661-1.7zM433.81 694.66c.03 2.31.21 4.55.561 6.729-.54-.96-1.04-1.96-1.5-3 .319-1.209.629-2.449.939-3.729z"/><path d="M419.65 204.2c.32.02.66.04.99.04-3.1 7.85-6.48 14.95-10.14 21.5 2.91-6.85 5.8-14.07 9.15-21.54zM361.8 283.53c19.55-18.56 35.84-34.8 48.68-57.76-5.6 13.16-11.3 24.97-20.58 34.62-14.68 15.25-33.2 33.29-52.75 45.95 8.74-6.42 16.77-15.33 24.65-22.81zM399.81 561.2c-14.11 6.54-25 19.96-34.71 19.84-21-.271-24.62-27.05-46.27-31.41l-.2-.11c.57-1.09 1.19-2.159 1.85-3.189 18.06 7.86 25.68 33.979 46.28 33.05 8.55-.38 21.02-14.01 34.71-19.83 13.6-5.78 20.15-9.14 28.089-13.22 13.811 7.13 19.79 22.08 36.37 26.439 15.79-8.699 39.75-21.31 56.19-6.609 5.06-1.3 8.45-3.37 10.66-6.01-2.49 3.29-5.92 5.93-10.66 7.67-70.38-32.761-75.65 74.449-88.311 126.84-.22-13.72 4.62-29.91 8.98-50.82 6.15-29.54 12.03-51.78 24.79-69.41-18.811-3.229-23.84-20.239-39.67-26.449-6.118 6.868-14.938 7.128-28.098 13.218zM327.45 312.09c3.24-1.74 6.47-3.67 9.68-5.74-3.13 2.3-6.35 4.27-9.68 5.74zM198.17 326.5c-9.28-1.25-13.86 2.19-22.37 1.71.3-.57.59-1.14.88-1.71 8.1.39 12.52-2.91 21.49-1.65 7.61-16.08 23.04-24.34 34.71-36.36 2.96-40.64-9.95-79.14-4.96-127.27 14.04-4.73 16.47-25.99 13.22-42.97h1.66c2.37 16.11 2.27 39.7-13.23 42.97-5.12 49.56 8.47 88.01 4.96 130.57 27.63 1.74 32.1-19.68 59.5-18.18 16.43 3.97 5.49 35.29 19.84 41.32 4.76.16 9.27-.92 13.58-2.84-4.51 2.44-9.05 4.51-13.58 6.15-15.44-5.5-4.63-37.24-19.84-42.97-28.35-1.36-32.45 21.54-62.8 18.18-14.42 7.61-24.07 20.01-33.06 33.05zM175.03 328.16c.26.02.52.04.77.05-1.52 2.9-3.19 5.76-5 8.6 1.51-2.81 2.92-5.69 4.23-8.65z"/><path d="M175.03 690.12c-10.83-11.83-4.37-22.811-6.3-35.78 1.58 2.53 3.6 4.62 4.65 7.68-6.38 6.721-5.51 23.49 4.96 26.45 8.79-3.96 24.96-8.93 36.36 1.65 9.7-7.68 17.1-7.44 28.1-13.22 29.33 15.25 63.29-4.011 67.76-34.71 4.27-29.29-4.95-67.971 8.07-92.671l.2.11c-11.36 28.54-1.91 66.22-6.62 94.21-3.83 22.84-27.28 42.36-52.89 41.32-13.2-.53-12.83-9.311-24.79-3.3-6.63 3.34-11.55 3.18-19.83 9.909-13.15-12.198-27.34-3.298-39.67-1.648zM166.52 646.68a29.867 29.867 0 0 1 2.21 7.66c-1.27-2.03-2.24-4.34-2.21-7.66zM113.88 536.41c-1.29.95-2.59 1.88-3.91 2.8.83-.88 1.58-1.81 2.25-2.8 3.2-16.44 13.15-24.25 14.88-39.67 1.95-17.33-8.22-30.79-9.92-47.931-4.82-48.689 32.67-78.95 53.62-112-20.68 38.75-57.79 64.39-51.96 113.65 1.14 9.71 8.47 19.9 9.91 31.41 3.18 25.371-11.15 36.221-14.87 54.541zM98.33 546.82a218.97 218.97 0 0 0 11.64-7.61c-3.03 3.16-7.08 5.58-11.64 7.61zM82.47 681.86c-.14 8.399 14.24 22.04 21.49 31.399 10.57 13.65 17.31 29.91 34.71 33.061 13.28 16.72-.3 28.989-1.65 47.93h-1.66c.3-19.95 13.82-25.44 4.96-41.32-3.48-6.239-11.94-7.67-18.18-13.22-6.46-5.76-41.34-48.66-41.32-57.85.02-9.351 10.15-9.891 8.26-18.181-6.21-8.279-17.65-9.319-25.04-16.25l.25-.279c11.25 5.279 21.82 11.239 31.41 18.18 2.06-11.71 1.92-25.62 4.95-36.36 23.6-11.819 46.7 7.4 66.12 14.87-.16 1.021-.24 1.97-.25 2.84-.4-.93-.87-1.88-1.41-2.84-19.46-5.35-41.05-25.46-62.8-13.22-6.18 11.83.6 21.32-4.96 33.06-3.63 7.65-14.72 8.8-14.88 18.18z"/><path d="M60.99 643.84c-12.19-18.399-17.96-61.189-4.96-77.68 8.14-10.32 27.8-12.87 42.3-19.34-12.43 7.58-25.91 14.08-40.65 19.34-11.27 26.39-4.47 59.82 6.61 80.99l-.25.279a19.424 19.424 0 0 1-3.05-3.589z"/><g fill="none" stroke="#231f20" stroke-width="7.682"><path d="M410.5 225.74c3.66-6.55 7.04-13.65 10.14-21.5.22-.56.44-1.13.66-1.7 18.59-7.67 34.91 4.22 56.2 0 .03-.01.07-.01.1-.02 7.021-1.42 13.65-5.92 20.65-10.13 5.89-3.56 12.05-6.91 18.91-8.03 6.81-1.11 13.63-1.63 20.53-1.77M337.15 306.34c8.74-6.42 16.77-15.33 24.65-22.81 19.55-18.56 35.84-34.8 48.68-57.76M473.78 712.54a49.218 49.218 0 0 0-4.55-2.58c-1.351.42-2.57.96-3.7 1.61-6.61 3.739-10.03 10.66-17.78 13.26-8.08-7.34-12.01-14.94-13.38-23.44-.351-2.18-.53-4.42-.561-6.729-.22-13.72 4.62-29.91 8.98-50.82 6.15-29.54 12.03-51.78 24.79-69.41-18.811-3.229-23.84-20.239-39.67-26.449-6.12 6.869-14.94 7.13-28.1 13.22-14.11 6.54-25 19.96-34.71 19.84-21-.271-24.62-27.05-46.27-31.41-11.36 28.54-1.91 66.22-6.62 94.21-3.83 22.84-27.28 42.36-52.89 41.32-13.2-.53-12.83-9.311-24.79-3.3-6.63 3.34-11.55 3.18-19.83 9.909-13.15-12.199-27.34-3.3-39.67-1.649-10.83-11.83-4.37-22.811-6.3-35.78-.37-2.47-1.05-5.02-2.21-7.66-.4-.93-.87-1.88-1.41-2.84-19.46-5.35-41.05-25.46-62.8-13.22-6.18 11.83.6 21.32-4.96 33.06-3.63 7.65-14.72 8.801-14.88 18.181-.14 8.399 14.24 22.04 21.49 31.399 10.57 13.65 17.31 29.91 34.71 33.061 13.28 16.72-.3 28.989-1.65 47.93h-1.66c.3-19.95 13.82-25.44 4.96-41.32-3.48-6.239-11.94-7.67-18.18-13.22-6.46-5.76-41.34-48.66-41.32-57.85.02-9.351 10.15-9.891 8.26-18.181-6.21-8.279-17.65-9.319-25.04-16.25a19.464 19.464 0 0 1-3.05-3.59c-12.19-18.399-17.96-61.189-4.96-77.68 8.14-10.32 27.8-12.87 42.3-19.34 4.56-2.03 8.61-4.45 11.64-7.61.83-.88 1.58-1.81 2.25-2.8 3.2-16.44 13.15-24.25 14.88-39.67 1.95-17.33-8.22-30.79-9.92-47.931-4.82-48.689 32.67-78.95 53.62-112 1.81-2.84 3.48-5.7 5-8.6.3-.57.59-1.14.88-1.71 8.1.39 12.52-2.91 21.49-1.65 7.61-16.08 23.04-24.34 34.71-36.36 2.96-40.64-9.95-79.14-4.96-127.27 14.04-4.73 16.47-25.99 13.22-42.97h1.66c2.37 16.11 2.27 39.7-13.23 42.97-5.12 49.56 8.47 88.01 4.96 130.57 27.63 1.74 32.1-19.68 59.5-18.18 16.43 3.97 5.49 35.29 19.84 41.32 4.76.16 9.27-.92 13.58-2.84 3.33-1.47 6.55-3.44 9.68-5.74M473.78 712.54c7.68 2.58 14.779 9.6 20.239 18.9 13.511 4.909 28.2 2.029 42.98 0-7.9 21.909 2.61 42.47 0 62.81h-1.66c3.021-19.85-8.27-40.07 0-61.15-15.2 3.53-29.55 3.301-44.62 0-3.579-8.92-9.309-15.7-16.939-20.56z"/><path d="M474.17 281.65c2.7 2.93 5.48 5.27 8.28 6.84 6.22 3.5 13.33 4.38 19.35 6.56 5.351 1.94 9.82 4.9 12.061 11.62-.82 28.36 13.58 41.51 21.479 61.15-11 11.17 1.58 24.65 1.66 39.67.07 12.73-8.14 24.979-6.61 36.359 2.23 16.641 18.44 26.29 19.83 41.32a28.444 28.444 0 0 0-2.75 3.19c-3 4.06-4.819 8.81-5.939 13.939-3.91 17.931.72 40.49-6.66 54.55a24.003 24.003 0 0 1-2.09 3.301c-2.49 3.29-5.92 5.93-10.66 7.67-70.38-32.761-75.65 74.449-88.311 126.84-.31 1.28-.619 2.52-.939 3.729.46 1.04.96 2.04 1.5 3 4.17 7.551 10.28 13.16 13.38 21.79 5.73-7.439 11.81-11 17.78-11.609 2.79-.29 5.55.069 8.25.97M526.72 184.48c-3.72.35-7.45.85-11.21 1.54-5.81 1.06-11.5 3.51-17.26 6.37-6.7 3.32-13.49 7.2-20.65 10.13-9.14 3.73-18.899 5.89-29.85 3.33-3.08 19.67 10.19 58.22 26.4 75.78"/><path d="M420.64 204.24c-.33 0-.67-.02-.99-.04-3.35 7.47-6.24 14.69-9.15 21.54-.01.01-.01.02-.02.03-5.6 13.16-11.3 24.97-20.58 34.62-14.68 15.25-33.2 33.29-52.75 45.95-.01 0-.02.01-.02.01-3.21 2.07-6.44 4-9.68 5.74-4.51 2.44-9.05 4.51-13.58 6.15-15.44-5.5-4.63-37.24-19.84-42.97-28.35-1.36-32.45 21.54-62.8 18.18-14.42 7.61-24.07 20.01-33.06 33.05-9.28-1.25-13.86 2.19-22.37 1.71-.25-.01-.51-.03-.77-.05-1.31 2.96-2.72 5.84-4.23 8.65-20.68 38.75-57.79 64.39-51.96 113.65 1.14 9.71 8.47 19.9 9.91 31.41 3.18 25.37-11.15 36.22-14.87 54.54-1.29.95-2.59 1.88-3.91 2.8-3.77 2.64-7.65 5.18-11.64 7.61-12.43 7.58-25.91 14.08-40.65 19.34-11.27 26.39-4.47 59.82 6.61 80.99 11.25 5.279 21.82 11.239 31.41 18.18 2.06-11.71 1.92-25.62 4.95-36.36 23.6-11.819 46.7 7.4 66.12 14.87-.16 1.021-.24 1.97-.25 2.84-.03 3.32.94 5.63 2.21 7.66 1.58 2.53 3.6 4.62 4.65 7.68-6.38 6.721-5.51 23.49 4.96 26.45 8.79-3.96 24.96-8.93 36.36 1.65 9.7-7.68 17.1-7.44 28.1-13.22 29.33 15.25 63.29-4.011 67.76-34.71 4.27-29.29-4.95-67.971 8.07-92.671.57-1.09 1.19-2.159 1.85-3.189 18.06 7.86 25.68 33.979 46.28 33.05 8.55-.38 21.02-14.01 34.71-19.83 13.6-5.78 20.15-9.14 28.089-13.22 13.811 7.13 19.79 22.08 36.37 26.439 15.79-8.699 39.75-21.31 56.19-6.609 5.06-1.3 8.45-3.37 10.66-6.01a14.03 14.03 0 0 0 2.09-3.301c4.08-8.88-.061-21.859.47-33.659.36-8.011 3.2-14.61 6.19-20.891 2.22-4.67 4.52-9.17 5.939-13.939.48-1.58.851-3.181 1.101-4.841-3.11-14.039-18.07-25.1-19.84-41.319-.98-9.01 6.939-22.88 6.609-36.36-.39-16.32-12.26-27.37-1.649-39.67-9.301-18.25-22.46-32.63-21.49-61.15a45.392 45.392 0 0 1-10.4-9.97c-.399-.52-.78-1.06-1.16-1.6-11.29-1.47-19.79-5.72-26.47-11.8-.01 0-.02-.02-.02-.02-17.25-15.71-22.271-43.65-31.36-67.52-.19-2.4 3.28-5.81 4.9-8.3 1.17-1.83 1.359-3.16-1.601-3.27-6.608-3.9-16.758 1.8-25.448 1.7z"/></g><path fill-rule="evenodd" clip-rule="evenodd" fill="none" d="M.25.25h850.394v850.394H.25z"/><g><path fill="#58b947" d="M810.215 156.241v34.483H597.973l-.32-34.483h212.496z"/><path fill="#fbed24" d="M810.215 124.017v32.224H597.653l-.293-32.224z"/><path d="M810.215 65.231v58.786H597.36l-.666-72.378h213.521v13.592zm-48.053 24.252l13.801-3.002-14.266.681a1.651 1.651 0 0 0-.052-.15l12.703-6.551-13.798 4.409a.31.31 0 0 0-.044-.059l10.726-9.748-12.333 7.928 7.928-12.333-9.861 10.85 4.464-13.966-6.72 13.032.699-14.647-3.115 14.329-3.116-14.329.699 14.647-6.72-13.032 4.464 13.966-9.861-10.85 7.928 12.333-12.333-7.928 10.851 9.861-13.967-4.464 13.032 6.719-14.646-.699 14.328 3.116-14.328 3.116 14.646-.7-13.032 6.72 13.967-4.464-10.851 9.861 12.333-7.928-7.928 12.333 9.748-10.725c.018.018.04.033.059.044l-4.409 13.797 6.551-12.703c.048.019.1.037.15.051l-.681 14.266 3.002-13.801c.077.007.154.011.231.015l2.998 13.787-.666-13.97c.096-.018.19-.04.282-.062l6.404 12.417-4.229-13.236c.099-.051.194-.103.286-.157l9.341 10.278-7.499-11.663a3.93 3.93 0 0 0 .241-.242l11.663 7.5-10.279-9.341c.056-.092.106-.187.158-.286l13.237 4.229-12.417-6.405c.021-.091.044-.187.062-.282l13.97.667-13.786-2.999c-.004-.076-.008-.153-.015-.23z" fill="#a8d7f4"/><path d="M775.963 86.48l-13.801 3.002a9.168 9.168 0 0 0-.465-2.321l14.266-.681zM775.963 92.713l-13.97-.667a9.179 9.179 0 0 0 .183-2.333l13.787 3zM774.349 80.46l-12.703 6.551a9.174 9.174 0 0 0-1.095-2.142l13.798-4.409zM774.349 98.733l-13.237-4.229c.358-.677.637-1.41.82-2.175l12.417 6.404zM771.232 75.063l-10.726 9.748a9.108 9.108 0 0 0-1.63-1.794l.022-.026 12.334-7.928zM771.232 104.13l-11.663-7.5a9.3 9.3 0 0 0 1.384-1.842l10.279 9.342z" fill="#f6cc4b"/><path d="M766.827 70.658l-7.928 12.333-.022.026a9.312 9.312 0 0 0-2.395-1.472l.483-.037 9.862-10.85zM759.328 96.873l7.499 11.663-9.341-10.278a9.452 9.452 0 0 0 1.842-1.385z" fill="#f6cc4b"/><path d="M762.177 89.714a9.179 9.179 0 0 1-.183 2.333l-.677-.033.615.315a9.31 9.31 0 0 1-.82 2.175l-.729-.234.571.52a9.3 9.3 0 0 1-1.384 1.842l-.67-.428.429.67a9.33 9.33 0 0 1-1.842 1.384l-.521-.571.234.729a9.254 9.254 0 0 1-2.175.82l-.315-.615.033.677a9.238 9.238 0 0 1-2.332.183l-.117-.542-.114.527a9.168 9.168 0 0 1-2.321-.465l.019-.381-.169.33a9.193 9.193 0 0 1-2.142-1.095l.055-.168-.113.125a9.297 9.297 0 0 1-3.83-5.869 9.265 9.265 0 0 1-.161-2.27 9.341 9.341 0 0 1 15.361-6.654 9.108 9.108 0 0 1 1.63 1.794l-.125.114.169-.055a9.174 9.174 0 0 1 1.095 2.142l-.329.168.381-.018c.249.736.41 1.512.465 2.321l-.527.114.539.115zm-3.622.435a5.708 5.708 0 1 0-11.417 0 5.71 5.71 0 0 0 11.417 0z" fill="#a8d7f4"/><path d="M762.162 89.483c.007.077.011.154.015.231l-.542-.117.527-.114zM761.993 92.046c-.018.095-.04.19-.062.282l-.615-.315.677.033zM761.646 87.011c.019.048.037.099.052.15l-.381.018.329-.168z" fill="#fff"/><path d="M761.43 67.542l-4.464 13.966-.483.037a9.248 9.248 0 0 0-1.846-.564l.073-.406 6.72-13.033zM757.2 98.414l4.229 13.237-6.404-12.417a9.254 9.254 0 0 0 2.175-.82z" fill="#f6cc4b"/><path d="M761.111 94.503a5.92 5.92 0 0 1-.158.286l-.571-.52.729.234zM760.507 84.811a.31.31 0 0 1 .044.059l-.169.055.125-.114zM759.569 96.631a3.93 3.93 0 0 1-.241.242l-.429-.67.67.428zM756.966 97.686l.521.571a5.55 5.55 0 0 1-.286.157l-.235-.728z" fill="#fff"/><circle cx="752.847" cy="90.15" r="5.709" fill="#f6cc4b"/><path d="M755.409 65.927l-.699 14.647-.073.406a9.342 9.342 0 0 0-2.269-.161l-.073-.564 3.114-14.328zM754.743 99.296l.666 13.97-2.998-13.787a9.1 9.1 0 0 0 2.332-.183z" fill="#f6cc4b"/><path d="M754.71 98.619l.315.615a6.107 6.107 0 0 1-.282.062l-.033-.677zM752.294 98.938l.117.542a3.58 3.58 0 0 1-.231-.015l.114-.527z" fill="#fff"/><path d="M752.294 80.255l.073.564a9.343 9.343 0 0 0-8.851 8.851l-.564-.073-14.328-3.116 14.646.699-13.032-6.719 13.967 4.464-10.851-9.861 12.333 7.928-7.928-12.333 9.861 10.85-4.464-13.966 6.72 13.032-.699-14.647 3.117 14.327zM752.18 99.465l-3.002 13.801.68-14.266c.737.249 1.513.41 2.322.465z" fill="#f6cc4b"/><path d="M749.877 98.619l-.019.381a2.027 2.027 0 0 1-.15-.051l.169-.33z" fill="#fff"/><path d="M749.708 98.949l-6.551 12.703 4.409-13.797c.66.453 1.377.823 2.142 1.094z" fill="#f6cc4b"/><path d="M747.621 97.686l-.055.168a.292.292 0 0 1-.059-.044l.114-.124z" fill="#fff"/><path d="M747.508 97.81l-9.748 10.725 7.928-12.333.025-.022a9.141 9.141 0 0 0 1.795 1.63z" fill="#f6cc4b"/><path d="M745.713 96.181l-.025.022-12.333 7.928 10.851-9.861.223-.07c.343.717.775 1.38 1.284 1.981zM744.428 94.199l-.223.07-13.967 4.464 13.032-6.72.407-.073c.154.795.411 1.553.751 2.259z" fill="#f6cc4b"/><path d="M743.678 91.94l-.407.073-14.646.7 14.328-3.116.564.073a9.452 9.452 0 0 0 .161 2.27z" fill="#f6cc4b"/><path d="M595.794 42.147c-2.183 1.025-4.786 1.622-7.576 1.622-2.674 0-5.171-.545-7.295-1.494-4.024-1.791-6.712-5.024-6.712-8.715 0-5.639 6.272-10.209 14.007-10.209 7.737 0 14.01 4.57 14.01 10.209 0 3.604-2.564 6.771-6.434 8.587z" fill="#c8c8c8"/><path d="M595.794 156.241v131.596h-14.461l-.41-245.561c2.124.948 4.621 1.494 7.295 1.494 2.79 0 5.394-.597 7.576-1.622v114.093z" fill="#c8c8c8"/><g fill="none" stroke="#231f20"><path stroke-width="7.69" d="M596.694 51.639h213.521v139.085H597.973M580.923 42.276c-4.024-1.791-6.712-5.024-6.712-8.715 0-5.639 6.272-10.209 14.007-10.209 7.737 0 14.01 4.57 14.01 10.209 0 3.604-2.563 6.771-6.434 8.587-2.183 1.025-4.786 1.622-7.576 1.622-2.674 0-5.171-.546-7.295-1.494z"/><path stroke-width="7.69" d="M580.923 41.994v.282l.41 245.561M595.794 41.481v246.356"/><path stroke-width="5.127" d="M808.963 65.938l1.252-.707.736-.417M596.303 124.017H811.614M596.303 156.241h213.846"/><path stroke-width="1.099" d="M747.508 97.81l-9.748 10.725 7.928-12.332-12.334 7.927 10.851-9.861-13.967 4.464 13.033-6.72-14.647.7 14.328-3.116-14.328-3.117 14.647.7-13.033-6.72 13.967 4.464-10.851-9.861 12.334 7.928-7.928-12.333 9.861 10.85-4.464-13.966 6.72 13.032-.699-14.647 3.116 14.328 3.115-14.328-.699 14.647 6.72-13.032-4.464 13.966 9.861-10.85-7.928 12.333 12.333-7.928-10.725 9.748"/><path stroke-width="1.099" d="M749.708 98.949l-6.551 12.702 4.409-13.797M752.18 99.465l-3.002 13.801.68-14.266M754.743 99.296l.666 13.97-2.998-13.787M757.2 98.414l4.23 13.237-6.405-12.417M759.328 96.873l7.499 11.662-9.341-10.278M760.953 94.789l10.279 9.341-11.663-7.499M761.932 92.328l12.417 6.405-13.238-4.23M762.177 89.714l13.786 2.999-13.97-.667M761.697 87.162l14.266-.682-13.801 3.003M760.551 84.869l13.798-4.409-12.703 6.551"/><path d="M762.177 89.714a9.179 9.179 0 0 1-.245 2.615 9.31 9.31 0 0 1-2.362 4.303 9.33 9.33 0 0 1-4.826 2.665 9.238 9.238 0 0 1-2.563.168 9.168 9.168 0 0 1-2.471-.516 9.193 9.193 0 0 1-2.201-1.139 9.297 9.297 0 0 1-3.83-5.869 9.265 9.265 0 0 1-.161-2.27 9.341 9.341 0 0 1 15.361-6.654 9.108 9.108 0 0 1 1.63 1.794 9.174 9.174 0 0 1 1.191 2.351 9.168 9.168 0 0 1 .477 2.552z" stroke-width="2.563"/><circle cx="752.846" cy="90.149" r="5.708" stroke-width="1.465"/></g></g><path fill="none" d="M546.25 41.25h256.394v256.394H546.25z"/></svg>