<svg xmlns="http://www.w3.org/2000/svg" width="850.89" height="850.89" viewBox="0 0 850.89 850.89" overflow="visible"><path d="M465.6 415.48c-20.71 4.03-52.02-8.85-80.54 4.03-15.62 15.92-28.37 34.71-36.24 58.391 10.07 6.71 25.66 7.899 30.2 20.13-12.98 33.319-51.26 41.359-66.44 72.489-16.32 11.2-41.05 13.98-48.32 34.23-4.19-1.18-6.51-4.23-10.07-6.04-16.64 27.29-15.15 69.92-54.37 66.44-2.41-.21-4.6-1.271-6.75-2.69-4.73-3.12-9.25-7.979-15.39-9.39-15.34-3.511-28.19 2.569-46.31 0 7.6-7.521 13.03-17.21 17.26-28.09 1.17-1.971 2.15-4.011 2.87-6.141 1.76-5.21 3.01-10.439 3.98-15.67 5.32-20.5 8.96-42.7 15.77-61.729 1.32-.75 2.56-1.54 3.73-2.381 22.66-10.05 21.95-42.659 32.9-71.229 9.98-26.04 28.35-35.73 18.12-70.47 6.84-3.48 14.76-1.4 22.15 0 .94-1.19 1.85-2.38 2.75-3.58.43-.12.85-.27 1.27-.45 2.75-3.69 5.02-7.55 6.89-11.56 8.32-13.78 13.5-28.67 13.25-46.83-.28-20.26-6.77-40.72 0-60.4 1.02-2.98 2.78-6.06 5.04-9.18l.01-.01c4.88-5.88 10.13-11.39 15.64-16.63l.09-.09c7.68-6.95 15.82-13.38 21.5-18.39 16.52-14.56 35.98-22.06 48.33-38.25-.7-11.39 2.32-26.49-4.03-32.22 32.6 2.33 87.24-5.51 126.85 4.03-2.45 20.37-24.92 20.71-28.19 40.27 5.94 5.8 14.521-2.83 24.16 0 26.28 13.54 23.79 48.67 38.26 80.53 2.391 5.27 10.061 15.35 10.07 14.1-.04 5.86-21.41 27.97-26.18 32.22-21.511 19.11-55.94 33.19-64.431 62.41 2.691 12.11 30.201 10.03 26.171 22.15z" fill="#fff5b4"/><path d="M358.89 155.74c36.05 7.78 91.73-6.76 128.86 8.06-2.59 20.23-24.51 21.13-28.19 40.27 8.99-2.54 16.261-2.39 22.24-.26l-.09.26c-9.64-2.83-18.22 5.8-24.16 0 3.271-19.56 25.74-19.9 28.19-40.27-39.61-9.54-94.25-1.7-126.85-4.03 6.35 5.73 3.33 20.83 4.03 32.22-12.35 16.19-31.81 23.69-48.33 38.25-5.68 5.01-13.82 11.44-21.5 18.39 21.24-20.24 46.25-36.72 67.81-56.64.01-1.41-.01-2.8-.05-4.16-.03-1.26-.07-2.5-.14-3.72-.03-.58-.06-1.15-.1-1.72-.04-.68-.09-1.35-.15-2.02-.12-1.62-.28-3.2-.46-4.76-.05-.49-.11-.97-.18-1.44-.02-.24-.05-.47-.09-.69-.06-.51-.13-1.01-.2-1.5-.01-.09-.02-.18-.04-.26-.09-.63-.18-1.26-.29-1.88-.1-.66-.21-1.32-.32-1.97-.6-3.42-1.32-6.73-2.12-9.94-.28-1.14-.58-2.27-.89-3.38-.16-.61-.33-1.21-.51-1.81-.15-.56-.32-1.12-.48-1.67-.67-2.27-1.39-4.5-2.13-6.69-.15-.45-.3-.9-.46-1.35-1.09-3.18-2.23-6.3-3.41-9.4-.15-.41-.31-.82-.47-1.23-.06-.15-.11-.31-.17-.46-.05-.14-.11-.28-.17-.43-2.17-5.66-4.4-11.24-6.51-16.95-.26-.71-.53-1.42-.78-2.14-.05-.13-.1-.26-.14-.39-3.17-8.77-5.98-17.87-7.8-27.98-.13-.71-.26-1.42-.37-2.14-.19-1.14-.37-2.3-.52-3.47-.09-.67-.18-1.35-.27-2.04v-.04c-.08-.68-.16-1.37-.23-2.07-.08-.7-.15-1.41-.21-2.12-.32-3.55-.51-7.23-.54-11.06h2.01c.26 3.68.6 7.26 1.03 10.77.02.24.05.48.09.71.21 1.78.45 3.54.72 5.29.1.69.21 1.38.32 2.07.21 1.34.43 2.67.68 3.99.12.73.25 1.45.4 2.16.04.28.09.55.15.81.11.6.23 1.19.35 1.78.09.46.18.92.28 1.37.14.71.29 1.41.45 2.11.01.06.02.11.04.16.19.91.39 1.81.61 2.71.27 1.16.54 2.32.83 3.46.16.67.33 1.34.51 2.01.23.9.47 1.8.71 2.69.48 1.79.98 3.56 1.5 5.32.1.33.19.65.29.97.16.55.33 1.1.5 1.65 2.13 6.96 4.49 13.68 6.98 20.27 0 .02.01.04.02.07.62 1.62 1.24 3.24 1.87 4.85 2.55 6.54 5.2 12.97 7.85 19.41zM192.98 662.58c-14.22-10.15-41.29-7.46-65.64-7.5-8.59 24.3-1.99 63.77-16 82.65l-.11-.091c12.45-28.71 3.68-54.22 14.1-80.54 4.87-12.319 16.87-21.22 23.3-32.119-4.23 10.88-9.66 20.569-17.26 28.09 18.12 2.569 30.97-3.511 46.31 0 6.14 1.41 10.66 6.27 15.39 9.39l-.09.12z"/><path d="M77.41 796.74z" fill="#fff"/><path d="M87.07 739.65c9.42-10.16 14.74 8.149 24.16-2.011l.11.091c-1.72 2.31-3.74 4.319-6.15 5.949-7.65-.81-7.64-9.26-16.11-4.029-.22.77-.43 1.55-.64 2.33-.14.539-.29 1.09-.42 1.64-.23.899-.44 1.8-.65 2.72-.26 1.141-.51 2.28-.74 3.44-.15.689-.29 1.39-.42 2.09-.14.7-.28 1.41-.4 2.12-.07.37-.13.729-.2 1.1-.19 1.061-.37 2.12-.55 3.19-.32 1.939-.62 3.89-.91 5.859-.03.221-.06.45-.1.681-.21 1.46-.42 2.93-.62 4.399-.11.74-.21 1.48-.31 2.21-.61 4.44-1.19 8.891-1.82 13.29-.1.74-.21 1.471-.32 2.2-.21 1.47-.43 2.92-.66 4.37-.11.729-.23 1.45-.35 2.17-.21 1.24-.42 2.47-.64 3.69-.68 3.75-1.44 7.42-2.33 10.96h-2.01c.93-3.641 1.72-7.431 2.41-11.301.01-.02.01-.05.01-.069.21-1.15.41-2.32.6-3.49.2-1.19.39-2.4.57-3.61.03-.17.06-.34.08-.51.16-1.04.31-2.08.46-3.13l.18-1.27c.21-1.471.41-2.95.61-4.431.3-2.21.59-4.439.89-6.66.29-2.22.59-4.439.9-6.64.11-.77.22-1.53.32-2.29.21-1.43.43-2.87.65-4.29.31-1.93.62-3.84.96-5.729.09-.5.18-1 .28-1.5.56-3.011 1.18-5.96 1.9-8.82.11-.48.23-.95.36-1.42.28-1.109.58-2.209.9-3.299zM501.85 334.94c-22.13 18.66-51.909 29.22-60.409 60.41 6.909 8.19 31.8 8 26.18 22.14-23.07 4.5-54.54-9.12-82.56 4.03-14.5 15.7-26.83 33.57-34.23 56.38 13.21 4.239 26.39 8.52 30.21 22.149-15.84 30.44-50.13 42.431-68.17 70.65l-.29-.181c15.18-31.13 53.46-39.17 66.44-72.489-4.54-12.23-20.13-13.42-30.2-20.13 7.87-23.681 20.62-42.471 36.24-58.391 28.52-12.88 59.83 0 80.54-4.03 4.03-12.12-23.479-10.04-26.17-22.15 8.49-29.22 42.92-43.3 64.431-62.41 4.77-4.25 26.14-26.36 26.18-32.22-.01 1.25-7.68-8.83-10.07-14.1-14.47-31.86-11.979-66.99-38.26-80.53l.09-.26c20.83 7.38 26.08 38.77 34.141 64.69 3.449 11.09 16.119 32.1 16.109 32.21-.232 3.152-21.002 26.472-30.202 34.232z"/><path d="M333.83 72.59c.22 1.79.46 3.55.72 5.29-.27-1.75-.51-3.51-.72-5.29z" fill="#fff"/><path d="M169.62 542.33c.56-.29 1.1-.58 1.63-.89-6.81 19.029-10.45 41.229-15.77 61.729 3.8-20.259 3.61-40.679 14.14-60.839zM267.6 784.88c-.47.29-.94.59-1.39.89-.17.11-.35.23-.52.341-.61.42-1.2.84-1.77 1.27-.23.18-.46.351-.68.53-.54.43-1.07.87-1.58 1.32-.39.35-.77.699-1.14 1.069-.14.13-.28.271-.41.42a20.243 20.243 0 0 0-1.44 1.57c-.21.229-.4.46-.58.7-.24.3-.47.6-.69.91-.14.18-.27.369-.4.56-.52.75-1.01 1.54-1.46 2.37-.16.27-.3.56-.44.84-.15.29-.29.58-.41.87-.14.29-.27.59-.39.89-1.06 2.551-1.79 5.42-2.13 8.681h-2.01c-.45-4.16-.09-7.53.87-10.29.01-.04.03-.09.05-.13.12-.341.24-.671.38-.98.08-.19.16-.37.25-.55.11-.23.22-.46.35-.68l.18-.33c.07-.141.15-.271.24-.4.08-.14.16-.27.25-.4.27-.42.56-.819.87-1.199.16-.19.31-.381.48-.561.15-.18.31-.35.47-.52.01-.021.03-.04.07-.061.16-.17.31-.33.47-.479.36-.34.72-.66 1.11-.971.19-.149.38-.31.58-.449.19-.15.39-.301.6-.44.2-.14.41-.28.62-.42s.42-.27.63-.4c.86-.52 1.76-1 2.69-1.449.47-.23.94-.44 1.42-.65.02-.02.04-.02.06-.03.46-.2.93-.39 1.4-.58.5-.199.99-.39 1.5-.58.5-.189 1.01-.369 1.52-.55.07-.029.14-.06.21-.08a.734.734 0 0 1 .17-.052zM368.96 799.94c.08.21.16.43.23.649-.07-.219-.15-.429-.23-.649z"/><path d="M80.32 791.29c-.12.729-.23 1.45-.35 2.17.12-.72.24-1.44.35-2.17zM81.3 784.72c-.1.74-.21 1.471-.32 2.2.11-.73.22-1.46.32-2.2z" fill="#fff"/><path fill="#ed1e29" d="M802.41 80.85v20.53H591.06l-.32-34h211.67zM798.89 171.8v31.9H592l-.3-31.9h207.19z"/><path d="M707.51 126.1c1.53-1.62 3.351.92 5.41.52-.33.47-.65.94 0 1.05-.37 1.92-2.15-.11-4.33.53-.75-.32-.08-2.02-1.08-2.1zM707.51 135.02c1.86-.24 3.03.2 4.33.52 0 .17-.03.33-.06.46-.391 1.38-2.391 1.19-4.271 1.11v-.92l.001-1.17zM706.97 119.81c2.09.59 4.75-.94 5.41 0-.18 1.62-5.66 2.69-5.41 0zM703.73 133.97c1.159.53 2.84.56 2.84 2.22 0 .26-.04.57-.141.92h-2.699v-2.09-1.05zM703.19 170.14c1.71-1.62-2.341-4.13-1.091-5.24 3.051.7 5.431 3.83 9.74 4.72v.52h-8.649zM706.97 126.62c.05 1.97-2.12 1.79-3.779 2.1a4.507 4.507 0 0 1-.28-.74c-.26-.99.05-1.52-.26-3.45 1.029.83 3.17.6 4.04 1.59.119.14.219.3.279.5zM701.57 120.33c-.33-2.07 2.96-.61 4.319-1.05.151 1.59-4.179 1.49-4.319 1.05zM701.57 135.02c-1.37.94-4.311-1.05-3.79-3.68.5-.34 1.109-.57 1.96-.57.229 0 .479.01.75.05 1.42 1.62.43 3.09 1.08 4.2z" fill="#fff"/><path d="M699.75 128.77c.39.01.82 0 1.28-.05.029-.23.029-.44 0-.64l1.88-.1c.06.22.149.46.28.74 1.659-.31 3.829-.13 3.779-2.1-.06-.2-.16-.36-.279-.5l.819-.02c1 .08.33 1.78 1.08 2.1 2.18-.64 3.96 1.39 4.33-.53l1.08.01c4.32 1.93 12.21.4 12.44 6.29-3.29-.39-4.881.86-7.57 1.05-1.78.66 4.11 2.9 1.08 3.14-1.44-1.4-4.07-1.65-6.49-2.09l-1.68-.07c.029-.13.06-.29.06-.46-1.3-.32-2.47-.76-4.33-.52v1.17h-.939c0-1.66-1.681-1.69-2.84-2.22v1.05h-2.16c-.65-1.11.34-2.58-1.08-4.2a5.07 5.07 0 0 0-.75-.05l.01-2z" fill="#58b947"/><path d="M697.24 121.38c-.2-1.76 2.34-.87 3.25-1.57.93 2.16-2.46 2.81-3.25 1.57zM698.86 147.08c.069.94-.66 1.1-.54 2.09-1.181-.08-1.16-1.32-1.08-2.62.87-.15.93.5 1.62.53zM697.24 126.1c.77-.41 3.51.14 3.79 1.98.029.2.029.41 0 .64-.46.05-.891.06-1.28.05-1.67-.08-2.7-.78-2.51-2.67zM700.49 113.52c.12 2.2-3.351.55-3.79 0-.17-2.17 3.14-.36 3.79 0z" fill="#fff"/><path d="M695.08 101.38h107.33v70.42h-3.521v-1.66h-87.05v-.52c-1.399-4.24-4.979-6.36-8.109-8.91-1.32-5.47-.801-13.24 3.239-15.21 3.88 2.36 7.73 4.74 14.601 4.2-.73-3.33-8.37-2.71-7.57-5.77 4.29 1.79 8.46 3.68 14.6 3.67-.52-2.47-3.63-2.42-4.859-4.19.84-.06 1.87.06 1.62-1.05-1.63-.13-3.58-.52-4.87-1.05.51.21.45-.85 0-1.05-1.36-.62-7.25-.32-7.03-4.19 2.42.44 5.05.69 6.49 2.09 3.03-.24-2.86-2.48-1.08-3.14 2.689-.19 4.28-1.44 7.57-1.05-.23-5.89-8.12-4.36-12.44-6.29.6-1.87 3.92-1.1 5.41-2.1-1.26-2.8-5.86-2.36-5.95-6.29.81-.09 2 .18 2.16-.53-2.58-2.39-8.51-1.53-10.271-4.72.94-.04 1.681.12 2.16.53.021-2.34-3.63-2-.54-3.15l-7.569-2.62c1.77-.05 3.33-.27 4.33-1.05-3.141-1.15-6.58-2.01-8.65-4.19v-2.18zM686.97 129.25c-.17-1.38 5.13-1.89 4.86 0h-4.86zM701.03 170.14h-22.721v-1.05c3.82-2.41 9.46-3.06 12.98-5.76 1.17 2.78 3.95 1.32 4.87 1.05-.059 3.21 5.751 3.49 4.871 5.76zM689.13 115.09c-.25-2.34 2.43-1.84 3.78-2.62-.46 1.65-2.08 2.17-3.78 2.62zM690.75 148.12c-.99-.94-2.38-3.54-.54-4.19 1.65.04 1.27 3.42.54 4.19zM688.59 120.86c-2.12-1.09 3.26-2 1.62-2.62.37-.7 1.44.26 2.7-.53-.85 1.62-3.15 1.84-4.32 3.15zM691.83 120.86c2.06 1.36-3.811 2.18-3.78 1.57-.67-2.39 3.66.05 3.78-1.57zM687.51 133.44c-.13-1.39 3.34-1.94 3.78-1.05.23 1.49-3.67 1.63-3.78 1.05zM686.97 127.15c.95-1.53 2.99-2 5.4-2.1-.98 1.5-3.3 1.69-5.4 2.1zM688.59 149.7c-1.02.43-3.54-2.15-3.79-4.2 3.42-.69 2.48 2.85 3.79 4.2zM686.43 115.61c-.38-1.75.9-1.91 2.16-2.09.25 1.64-.47 2.34-2.16 2.09zM681.56 122.95c.2-1.9 3.96-.35 4.33-2.09.73.16.44 1.31.54 2.09h-4.87zM685.89 129.25c-1.96-.98-3.609.48-4.87-.53.32-1.78 3.15-1.13 4.87-1.57v2.1zM681.56 133.97c-.43-2 2.561-.67 3.79-1.05-.92.38-3.11 2.18-3.79 1.05z" fill="#fff"/><path d="M669.67 141.31c-2.33.54-4.79.95-7.03 1.57 1.471 2.27-1.81 1.29-1.63 3.67 4.181-1.37 11.51.33 15.69-1.05-1.38 1.99-3.76 3-5.95 4.2 3.63.95 8.06-1.06 11.89-1.58 1.24 3.07 4.44 3.44 4.87 6.29.95 6.39-7.59 9.42-9.2 14.68v1.05h-86.619l-.631-68.76h104.02v2.18c-2.61 2.54-7.49 2.88-10.28 5.24 1.851-.03 3.78-.17 4.33 1.05-3.64.84-5.42 3.48-8.11 5.24 2.061.74 3.94-1.37 4.87 0-2.279 3.21-8.909 2.2-10.279 6.29 2.13.63 4.069-1.6 5.409 0-1.13.3-1.14.82-.539 1.58-2.131 1.27-6.851 2.78-6.49 4.72 1.38-1.07 4.2-1.41 5.41 0v2.62c-4.341-.36-6.29 1.59-9.19 2.62 3.64 2 8.47-1.37 9.73 1.57-.601.3-3.771-.17-5.41.53 1.029 1.97-3.25 3.37-6.49 4.19-.471 1.68 1.409 1.09 1.629 2.1z" fill="#fff"/><path d="M712.38 119.81c-.66-.94-3.32.59-5.41 0-.25 2.69 5.23 1.62 5.41 0zm-6.49-.53c-1.359.44-4.649-1.02-4.319 1.05.139.44 4.469.54 4.319-1.05zm-5.4.53c-.91.7-3.45-.19-3.25 1.57.79 1.24 4.18.59 3.25-1.57zm-2.17 29.36c-.12-.99.609-1.15.54-2.09-.69-.03-.75-.68-1.62-.53-.08 1.3-.1 2.54 1.08 2.62zm-1.62-35.65c.439.55 3.91 2.2 3.79 0-.65-.36-3.96-2.17-3.79 0zm-3.79-1.05c-1.351.78-4.03.28-3.78 2.62 1.7-.45 3.32-.97 3.78-2.62zm-2.7 31.46c-1.84.65-.45 3.25.54 4.19.73-.77 1.11-4.15-.54-4.19zm0-25.69c1.64.62-3.74 1.53-1.62 2.62 1.17-1.31 3.47-1.53 4.32-3.15-1.26.79-2.33-.17-2.7.53zm1.08 14.15c-.44-.89-3.91-.34-3.78 1.05.11.58 4.01.44 3.78-1.05zm.54-11.53c-.12 1.62-4.45-.82-3.78 1.57-.03.61 5.84-.21 3.78-1.57zm-5.4-5.25c1.69.25 2.41-.45 2.16-2.09-1.26.18-2.54.34-2.16 2.09zm5.4 13.64c.27-1.89-5.03-1.38-4.86 0h4.86zm.54-4.2c-2.41.1-4.45.57-5.4 2.1 2.1-.41 4.42-.6 5.4-2.1zm-7.57 20.45c.25 2.05 2.771 4.63 3.79 4.2-1.31-1.35-.37-4.89-3.79-4.2zm-3.24-11.53c.681 1.13 2.87-.67 3.79-1.05-1.23.38-4.22-.95-3.79 1.05zm4.33-13.11c-.37 1.74-4.13.19-4.33 2.09h4.87c-.1-.78.19-1.93-.54-2.09zm-4.87 7.86c1.261 1.01 2.91-.45 4.87.53v-2.1c-1.72.44-4.55-.21-4.87 1.57zm-11.35 12.59c-.22-1.01-2.1-.42-1.63-2.1 3.24-.82 7.52-2.22 6.49-4.19 1.64-.7 4.81-.23 5.41-.53-1.261-2.94-6.091.43-9.73-1.57 2.9-1.03 4.85-2.98 9.19-2.62v-2.62c-1.21-1.41-4.03-1.07-5.41 0-.36-1.94 4.359-3.45 6.49-4.72-.601-.76-.591-1.28.539-1.58-1.34-1.6-3.279.63-5.409 0 1.37-4.09 8-3.08 10.279-6.29-.93-1.37-2.81.74-4.87 0 2.69-1.76 4.471-4.4 8.11-5.24-.55-1.22-2.479-1.08-4.33-1.05 2.79-2.36 7.67-2.7 10.28-5.24 2.07 2.18 5.51 3.04 8.65 4.19-1 .78-2.561 1-4.33 1.05l7.569 2.62c-3.09 1.15.561.81.54 3.15-.479-.41-1.22-.57-2.16-.53 1.761 3.19 7.69 2.33 10.271 4.72-.16.71-1.351.44-2.16.53.09 3.93 4.69 3.49 5.95 6.29-1.49 1-4.811.23-5.41 2.1l-1.08-.01c-.65-.11-.33-.58 0-1.05-2.06.4-3.88-2.14-5.41-.52l-.819.02c-.87-.99-3.011-.76-4.04-1.59.31 1.93 0 2.46.26 3.45l-1.88.1c-.28-1.84-3.021-2.39-3.79-1.98-.19 1.89.84 2.59 2.51 2.67l-.01 2c-.851 0-1.46.23-1.96.57-.521 2.63 2.42 4.62 3.79 3.68h2.16v2.09h2.699c.101-.35.141-.66.141-.92h.939v.92c1.88.08 3.88.27 4.271-1.11l1.68.07c-.22 3.87 5.67 3.57 7.03 4.19.45.2.51 1.26 0 1.05 1.29.53 3.24.92 4.87 1.05.25 1.11-.78.99-1.62 1.05 1.229 1.77 4.34 1.72 4.859 4.19-6.14.01-10.31-1.88-14.6-3.67-.8 3.06 6.84 2.44 7.57 5.77-6.87.54-10.721-1.84-14.601-4.2-4.04 1.97-4.56 9.74-3.239 15.21 3.13 2.55 6.71 4.67 8.109 8.91-4.31-.89-6.689-4.02-9.74-4.72-1.25 1.11 2.801 3.62 1.091 5.24h95.699v1.66H591.7l-.01-1.66h109.34c.88-2.27-4.931-2.55-4.87-5.76-.92.27-3.7 1.73-4.87-1.05-3.521 2.7-9.16 3.35-12.98 5.76 1.61-5.26 10.15-8.29 9.2-14.68-.43-2.85-3.63-3.22-4.87-6.29-3.83.52-8.26 2.53-11.89 1.58 2.19-1.2 4.57-2.21 5.95-4.2-4.181 1.38-11.51-.32-15.69 1.05-.18-2.38 3.101-1.4 1.63-3.67 2.24-.62 4.7-1.03 7.03-1.57z" fill="#58b947"/><path d="M802.41 205.25h-210.4l-.01-1.55h206.89v-31.9h3.521v33.45z" fill="#fff"/><path d="M591.7 171.8l.3 31.9h-.74v-31.9h.44zM591.69 170.14l.01 1.66h-.44v-1.66h.43z"/><path d="M589.85 101.38v200.14h-14.34l-.4-243.42c2.109.94 4.58 1.48 7.229 1.48 2.771 0 5.351-.59 7.51-1.61v43.41z" fill="#c8c8c8"/><path d="M582.34 39.34c7.67 0 13.891 4.53 13.891 10.12 0 3.57-2.54 6.71-6.381 8.51-2.159 1.02-4.739 1.61-7.51 1.61-2.649 0-5.12-.54-7.229-1.48-3.99-1.78-6.65-4.98-6.65-8.64-.001-5.59 6.209-10.12 13.879-10.12z" fill="#c8c8c8"/><path d="M368.89 799.72c-.11-.31-.22-.62-.35-.93.13.3.24.62.35.93zM367.13 793.25zM365.4 790.67zM363.38 788.04c-.18-.23-.37-.45-.56-.67.2.22.38.45.56.67zM360.71 184.11z"/><path d="M360.61 182.39zM360 175.61c-.06-.48-.11-.96-.18-1.44.07.47.13.95.18 1.44zM359.73 173.48zM359.49 171.72c-.09-.63-.19-1.26-.29-1.88.11.62.2 1.25.29 1.88zM359.2 169.84zM355.87 154.55c.31 1.11.61 2.24.89 3.38-.29-1.14-.58-2.26-.89-3.38zM355.36 152.74c-.16-.56-.32-1.12-.48-1.67.16.55.33 1.11.48 1.67z" fill="#fff"/><path d="M354.47 779.28c-.3-.24-.6-.48-.91-.721.3.231.61.471.91.721zM352.75 144.38c-.15-.45-.3-.9-.46-1.35.16.45.31.9.46 1.35z"/><path d="M349.17 131.48c.62 1.62 1.24 3.24 1.87 4.85-.63-1.61-1.25-3.23-1.87-4.85zM348.41 132.4c.16.41.32.82.47 1.23-.15-.41-.31-.82-.47-1.23z" fill="#fff"/><path d="M348.77 775.18c-.33-.21-.67-.42-1-.63.34.2.67.41 1 .63zM348.07 131.51c.06.15.12.29.17.43-.06-.14-.11-.29-.17-.43zM346.76 773.93c-.34-.199-.68-.399-1.03-.6.34.19.69.39 1.03.6zM345.73 773.33c-.34-.2-.69-.39-1.04-.59.35.19.69.38 1.04.59z"/><path d="M342.17 111.14c2.13 6.96 4.49 13.68 6.98 20.27-2.49-6.59-4.85-13.31-6.98-20.27zM341.38 108.52c.1.32.2.64.29.97-.1-.32-.19-.64-.29-.97z" fill="#fff"/><path d="M340.78 112.42c.25.72.52 1.43.78 2.14-.26-.71-.53-1.42-.78-2.14zM340.64 112.03c.04.13.09.26.14.39-.05-.13-.1-.26-.14-.39z"/><path d="M341.38 108.52c-.52-1.76-1.02-3.53-1.5-5.32.49 1.79.99 3.56 1.5 5.32z" fill="#fff"/><path d="M340.44 770.56c-.37-.17-.73-.34-1.09-.5.36.16.73.32 1.09.5zM339.35 770.06c-.37-.17-.74-.329-1.1-.489.37.149.74.309 1.1.489z"/><path d="M338.66 98.5l.51 2.01c-.18-.67-.35-1.34-.51-2.01z" fill="#fff"/><path d="M338.25 769.57c-.37-.16-.74-.32-1.11-.471.37.151.74.301 1.11.471z"/><path d="M337.22 92.33c.19.91.4 1.81.61 2.71-.22-.9-.42-1.8-.61-2.71zM336.73 90.06c.15.71.3 1.41.45 2.11-.16-.7-.31-1.4-.45-2.11z" fill="#fff"/><path d="M337.14 769.1z"/><path d="M336.1 86.91c.11.6.23 1.19.35 1.78-.12-.59-.24-1.18-.35-1.78zM335.55 83.94zM334.55 77.88z" fill="#fff"/><path d="M335.57 772.33zM336.02 768.65c-1.12-.45-2.26-.87-3.4-1.261 1.15.391 2.28.801 3.4 1.261zM333.07 771.61c-.45-.13-.91-.25-1.36-.37.45.12.91.24 1.36.37zM331.68 76.4c.09.69.18 1.37.27 2.04-.1-.68-.19-1.36-.27-2.04zM331.45 74.29c.07.7.15 1.39.23 2.07-.09-.69-.16-1.38-.23-2.07zM332.62 767.39c-1.52-.52-3.07-.989-4.63-1.409 1.56.409 3.1.879 4.63 1.409zM327.41 770.18c-.43-.1-.85-.199-1.27-.29.43.09.85.19 1.27.29zM327.99 765.98c-.77-.211-1.56-.4-2.34-.591.79.181 1.57.371 2.34.591zM324.72 769.58c-.48-.11-.96-.21-1.44-.3.48.09.96.2 1.44.3zM323.29 764.88zM323.29 764.88c-2.77-.55-5.56-.93-8.36-1.14 2.8.2 5.6.58 8.36 1.14zM314.93 763.74c-.4-.03-.8-.061-1.2-.08.4.01.8.04 1.2.08zM307.33 763.62zM305.28 766.23l-1.26-.181 1.26.181zM301.17 767.04c.46-.39.9-.79 1.34-1.21-.43.42-.88.82-1.34 1.21zM299.77 768.18c.48-.37.94-.75 1.4-1.14-.45.4-.92.77-1.4 1.14zM298.32 769.26c.49-.35.97-.7 1.43-1.069-.46.369-.94.729-1.43 1.069zM295.19 771.29c.51-.31 1.01-.61 1.5-.93-.49.32-.99.63-1.5.93zM292.26 772.94zM277.36 265.35c4.05-5.58 9.71-11.26 15.64-16.63-5.51 5.24-10.76 10.75-15.64 16.63zM285.44 776.25c.44-.21.88-.41 1.32-.61-.44.21-.88.41-1.32.61zM270.21 783.37c.02.189.06.38.09.58-.89.3-1.78.6-2.66.91.05-.03.09-.061.13-.091.63-.38 1.27-.75 1.92-1.109.18-.1.35-.19.52-.29z"/><path d="M270.21 783.37c-.17.1-.34.189-.52.29.17-.1.35-.2.52-.29z" fill="#fff"/><path d="M272.31 334.94c.25 18.16-4.93 33.05-13.25 46.83 13.96-29.84 6.14-68.06 11.24-107.23 2.24-3.17 4.6-6.22 7.05-9.18-2.26 3.12-4.02 6.2-5.04 9.18-6.77 19.68-.28 40.14 0 60.4z"/><path d="M267.77 784.77c-.04.03-.08.061-.13.091-.01 0-.01.01-.02.01.05-.031.1-.061.15-.101z" fill="#fff"/><path d="M267.62 784.87c-.01 0-.01.01-.02.01-.06.01-.12.03-.17.05.06-.02.13-.04.19-.06zM267.22 785.01c-.51.181-1.02.36-1.52.55.5-.19 1.01-.38 1.52-.55zM260.23 717.5c4.19-11.25 6.39-24.48 7.96-38.35l.52.06c-3.27 27.56-3.13 54.38 7.63 74.54 1.71 11.77-6.39 13.75-4.03 26.17 11.08.37 17.41-14.75 32.22-16.11.93-.09 1.86-.149 2.8-.189a61.86 61.86 0 0 1 7.6.12c2.8.21 5.59.59 8.36 1.14.78.15 1.57.32 2.36.51.78.19 1.57.38 2.34.591a70.402 70.402 0 0 1 8.03 2.67c.37.14.75.29 1.12.449.37.15.74.311 1.11.471.36.16.73.319 1.1.489.36.16.72.33 1.09.5a73.94 73.94 0 0 1 4.25 2.181c.35.2.7.39 1.04.59.35.2.69.4 1.03.6.34.2.67.41 1.01.62.33.21.67.42 1 .63a67.891 67.891 0 0 1 4.79 3.38c.31.24.61.48.91.721.18.149.37.3.56.46.28.22.56.45.83.689 2 1.69 3.87 3.48 5.58 5.37.27.29.54.59.8.891.2.22.39.449.58.68.19.22.38.439.56.67.71.86 1.38 1.74 2.02 2.63.43.59.84 1.2 1.24 1.811.17.25.33.51.49.77.11.17.21.34.32.51.19.311.38.63.56.95.2.33.38.67.57 1.01.01.03.03.061.05.09.18.341.36.681.54 1.03.17.34.34.68.5 1.03.35.729.68 1.47.99 2.22a39.366 39.366 0 0 1 2.32 8.021h-2.01c-.41-2.69-1.01-5.19-1.78-7.521-.07-.22-.15-.439-.23-.649-.02-.07-.04-.141-.07-.221-.11-.31-.22-.63-.35-.93a37.004 37.004 0 0 0-4.05-7.79c-.21-.31-.43-.61-.65-.91-.19-.26-.38-.52-.58-.78-.07-.09-.14-.189-.22-.279-.19-.24-.38-.48-.59-.721-.22-.279-.46-.56-.7-.829a39.183 39.183 0 0 0-5.79-5.36c-.29-.23-.58-.45-.88-.66-.32-.229-.63-.46-.96-.67-.31-.22-.63-.44-.95-.64-.32-.21-.64-.42-.96-.61-.33-.21-.66-.41-.99-.6-.39-.23-.79-.46-1.19-.681-.28-.16-.57-.31-.85-.46a67.208 67.208 0 0 0-7.62-3.43c-.02-.01-.03-.01-.05-.021-.61-.229-1.23-.46-1.85-.68a97.89 97.89 0 0 0-6.59-2.06c-.45-.13-.91-.25-1.36-.37-.13-.04-.26-.07-.39-.101-.64-.17-1.27-.33-1.92-.489-.65-.16-1.32-.32-1.99-.471-.42-.1-.84-.199-1.27-.29-.48-.109-.95-.21-1.42-.31-.48-.1-.96-.21-1.44-.3-4.06-.84-8.25-1.561-12.49-2.221-.91-.14-1.83-.279-2.75-.42-.91-.14-1.83-.279-2.76-.409l-1.26-.181c-.5-.08-1.01-.149-1.51-.22-.44.42-.88.82-1.34 1.21s-.92.77-1.4 1.14c0 .011-.01.011-.02.011-.46.369-.94.72-1.43 1.069-.54.38-1.08.75-1.63 1.101-.49.319-.99.62-1.5.93l-.15.09c-.91.54-1.83 1.061-2.78 1.561-.95.51-1.91.989-2.88 1.46-.32.159-.65.319-.97.47-.55.27-1.1.52-1.65.77-.44.2-.88.4-1.32.61-2 .9-4.01 1.78-6.02 2.67-.5.22-1 .44-1.49.67-.5.22-1 .45-1.5.68-2.13.98-4.22 2-6.22 3.101-2.34-14.25 5.65-18.17 4.11-31.64-7.34-8.774-5.36-26.854-14.09-34.234zM265.7 785.56c-.51.19-1 .381-1.5.58.49-.2.99-.4 1.5-.58zM264.2 786.14c-.47.19-.94.38-1.4.58.46-.2.93-.4 1.4-.58zM262.74 786.75c-.48.21-.95.42-1.42.65.47-.23.94-.45 1.42-.65zM261.32 787.4c-.93.449-1.83.93-2.69 1.449.86-.529 1.76-1.009 2.69-1.449zM258 789.25c-.21.14-.42.28-.62.42.2-.15.41-.29.62-.42zM257.38 789.67c-.21.14-.41.29-.6.44.19-.16.39-.3.6-.44zM256.78 790.11c-.2.14-.39.3-.58.449.19-.159.38-.309.58-.449zM256.2 790.56c-.39.311-.75.631-1.11.971.35-.341.72-.671 1.11-.971zM255.09 791.53c-.16.149-.31.31-.47.479.14-.159.3-.319.47-.479zM254.55 792.07c-.16.17-.32.34-.47.52.14-.18.3-.35.47-.52zM254.08 792.59c-.17.18-.32.37-.48.561.15-.191.31-.381.48-.561zM259.06 381.77a65.802 65.802 0 0 1-6.89 11.56c-.42.18-.84.33-1.27.45 2.95-3.95 5.69-7.93 8.16-12.01zM252.73 794.35zM252.24 795.15l-.18.33c.05-.11.11-.22.18-.33zM251.08 797.69a12.49 12.49 0 0 0 0 0z"/><path d="M254.19 600.72c-12.78 28.16-14.53 67.351-56.38 66.45-1.37-1.77-2.99-3.28-4.83-4.59l.09-.12c2.15 1.42 4.34 2.48 6.75 2.69 39.22 3.479 37.73-39.15 54.37-66.44 3.56 1.81 5.88 4.86 10.07 6.04 7.27-20.25 32-23.03 48.32-34.23l.29.181c-.8 1.24-1.57 2.52-2.3 3.84-16.6 7.57-34.73 13.6-44.3 28.19 2.87 3.21 13.09-2.99 14.09 6.039-3.26 21.36-8.78 46.19-11.65 70.44l-.52-.06c2.81-24.7 3.63-51.4 10.16-72.391-10.27-2.479-16.19 3.791-24.16-6.039zM207.88 467.83c-10.95 28.57-10.24 61.18-32.9 71.229 19.04-13.699 20.02-39.479 30.88-69.22 9.63-26.33 28.11-38.68 18.13-74.49 9.53-4.17 18.71.99 26.91-1.57-.9 1.2-1.81 2.39-2.75 3.58-7.39-1.4-15.31-3.48-22.15 0 10.23 34.741-8.14 44.431-18.12 70.471zM171.64 540.32c1.17-.37 2.28-.79 3.34-1.261a41.489 41.489 0 0 1-3.73 2.381c.12-.37.25-.75.39-1.12zM155.48 603.17c-.97 5.23-2.22 10.46-3.98 15.67-.72 2.13-1.7 4.17-2.87 6.141 2.68-6.871 4.88-14.231 6.85-21.811zM88.44 741.98c-.14.539-.28 1.09-.42 1.64.13-.55.28-1.1.42-1.64zM87.37 746.34zM86.21 751.87c-.14.71-.27 1.41-.4 2.12.12-.71.26-1.42.4-2.12zM86.17 742.95zM85.61 755.09zM84.15 764.14c.29-1.97.59-3.92.91-5.859-.31 1.939-.62 3.889-.91 5.859zM83.91 753.19c-.1.5-.19 1-.28 1.5.09-.5.18-1 .28-1.5zM83.43 769.22zM83.12 771.43c.1-.729.2-1.47.31-2.21-.11.74-.21 1.48-.31 2.21z"/><path d="M82.67 760.42c-.22 1.42-.44 2.86-.65 4.29.21-1.44.42-2.87.65-4.29zM80.8 773.64zM79.3 784.73c.2-1.471.4-2.95.61-4.431-.2 1.481-.4 2.961-.61 4.431zM78.66 789.13c.15-1.04.31-2.08.46-3.13-.15 1.05-.3 2.09-.46 3.13zM78.01 793.25z" fill="#fff"/><g fill="none" stroke="#231f20"><path stroke-width="7" d="M590.74 67.38h211.67v137.87h-210.4M575.11 58.1c-3.99-1.78-6.65-4.98-6.65-8.64 0-5.59 6.21-10.12 13.88-10.12s13.891 4.53 13.891 10.12c0 3.57-2.54 6.71-6.381 8.51-2.159 1.02-4.739 1.61-7.51 1.61-2.65 0-5.12-.54-7.23-1.48z"/><path stroke-width="7" d="M575.11 57.82v.28l.4 243.42M589.85 57.31V301.52"/><path stroke-width="2" d="M801.16 81.56l1.25-.71.73-.41"/><path stroke-width="7" d="M589.63 101.38h212.71"/><path stroke-width="2" d="M798.89 171.8h4.9M590.36 171.8h.9"/><path d="M713.46 136.07c-.22 3.87 5.67 3.57 7.03 4.19.45.2.51 1.26 0 1.05 1.29.53 3.24.92 4.87 1.05.25 1.11-.78.99-1.62 1.05 1.229 1.77 4.34 1.72 4.859 4.19-6.14.01-10.31-1.88-14.6-3.67-.8 3.06 6.84 2.44 7.57 5.77-6.87.54-10.721-1.84-14.601-4.2-4.04 1.97-4.56 9.74-3.239 15.21 3.13 2.55 6.71 4.67 8.109 8.91-4.31-.89-6.689-4.02-9.74-4.72-1.25 1.11 2.801 3.62 1.091 5.24h95.699V203.7h-207.63v-31.9-1.66h109.771c.88-2.27-4.931-2.55-4.87-5.76-.92.27-3.7 1.73-4.87-1.05-3.521 2.7-9.16 3.35-12.98 5.76 1.61-5.26 10.15-8.29 9.2-14.68-.43-2.85-3.63-3.22-4.87-6.29-3.83.52-8.26 2.53-11.89 1.58 2.19-1.2 4.57-2.21 5.95-4.2-4.181 1.38-11.51-.32-15.69 1.05-.18-2.38 3.101-1.4 1.63-3.67 2.24-.62 4.7-1.03 7.03-1.57-.22-1.01-2.1-.42-1.63-2.1 3.24-.82 7.52-2.22 6.49-4.19 1.64-.7 4.81-.23 5.41-.53-1.261-2.94-6.091.43-9.73-1.57 2.9-1.03 4.85-2.98 9.19-2.62v-2.62c-1.21-1.41-4.03-1.07-5.41 0-.36-1.94 4.359-3.45 6.49-4.72-.601-.76-.591-1.28.539-1.58-1.34-1.6-3.279.63-5.409 0 1.37-4.09 8-3.08 10.279-6.29-.93-1.37-2.81.74-4.87 0 2.69-1.76 4.471-4.4 8.11-5.24-.55-1.22-2.479-1.08-4.33-1.05 2.79-2.36 7.67-2.7 10.28-5.24 2.07 2.18 5.51 3.04 8.65 4.19-1 .78-2.561 1-4.33 1.05l7.569 2.62c-3.09 1.15.561.81.54 3.15-.479-.41-1.22-.57-2.16-.53 1.761 3.19 7.69 2.33 10.271 4.72-.16.71-1.351.44-2.16.53.09 3.93 4.69 3.49 5.95 6.29-1.49 1-4.811.23-5.41 2.1 4.32 1.93 12.21.4 12.44 6.29-3.29-.39-4.881.86-7.57 1.05-1.78.66 4.11 2.9 1.08 3.14-1.438-1.4-4.068-1.65-6.488-2.09z"/><path d="M78.58 789.64c-.18 1.21-.37 2.41-.57 3.61-.19 1.17-.39 2.33-.6 3.49M79.12 786c-.15 1.05-.31 2.09-.46 3.13M79.91 780.3c-.21 1.48-.41 2.96-.61 4.431M81.7 767c-.31 2.2-.61 4.42-.9 6.64M82.67 760.42c-.23 1.42-.44 2.85-.65 4.29M332.47 81.91c.12.72.24 1.43.37 2.14M334.87 79.95c-.11-.69-.22-1.38-.32-2.07-.26-1.74-.5-3.5-.72-5.29M335.95 86.1c-.15-.72-.28-1.44-.4-2.16M336.45 88.69c-.12-.59-.24-1.18-.35-1.78M337.18 92.17c-.15-.7-.3-1.4-.45-2.11M337.83 95.04c-.21-.9-.42-1.8-.61-2.71M339.17 100.51l-.51-2.01M341.67 109.49c-.09-.33-.19-.65-.29-.97-.51-1.76-1.01-3.53-1.5-5.32M349.15 131.41c-2.49-6.59-4.85-13.31-6.98-20.27M351.04 136.33c-.63-1.61-1.25-3.23-1.87-4.85M355.86 780.43c-.27-.239-.55-.47-.83-.689M362.24 786.69c-.26-.301-.52-.591-.8-.891M368.58 795.72c-.18-.34-.37-.67-.57-1.01-.18-.32-.36-.64-.56-.95M369.67 797.87c-.15-.351-.32-.69-.5-1.03-.17-.35-.35-.689-.54-1.03M252.06 795.48a14.003 14.003 0 0 0-.6 1.23M252.48 794.75c-.09.13-.16.26-.24.4M80.98 786.92c.11-.729.22-1.46.32-2.2M79.97 793.46c.12-.72.24-1.44.35-2.17M363.26 789.31c.2.261.39.521.58.78.22.3.43.601.65.91M361.75 787.48c.24.27.47.55.7.829.2.23.4.48.59.721M355.08 781.46c.3.21.59.43.88.66M351.22 778.94c.33.189.66.39.99.6.32.2.64.4.96.61.32.21.64.42.95.64M349.18 777.8c.29.15.57.311.85.46M341.56 774.37c.72.27 1.44.56 2.14.85M339.66 773.67c.62.22 1.24.45 1.85.68M329.4 770.65a83.9 83.9 0 0 1 1.92.489M308.04 766.64c.92.141 1.84.28 2.75.42M288.41 774.87c.32-.15.65-.311.97-.47M276.43 780.27c.5-.229.99-.46 1.5-.68.49-.229.99-.45 1.49-.67M269.69 783.66c.17-.101.35-.2.52-.29M267.62 784.87c.05-.03.1-.061.15-.101M265.69 786.11c.17-.11.34-.23.52-.341M263.24 787.91c.22-.18.45-.36.68-.53M260.11 790.72c.13-.149.27-.29.41-.42.37-.37.75-.72 1.14-1.069M258.09 792.99c.19-.24.38-.471.58-.7.17-.22.36-.42.54-.63M257 794.46c.13-.19.26-.38.4-.56M254.69 798.54c.13-.3.27-.58.41-.87.14-.28.29-.56.44-.84" stroke-width="7"/><path d="M293.09 248.63c21.24-20.24 46.25-36.72 67.81-56.64.01-1.41-.01-2.8-.05-4.16-.03-1.26-.07-2.5-.14-3.72-.03-.58-.06-1.15-.1-1.72-.04-.68-.09-1.35-.15-2.02-.12-1.62-.28-3.2-.46-4.76-.05-.49-.11-.97-.18-1.44-.02-.24-.05-.47-.09-.69-.06-.51-.13-1.01-.2-1.5-.01-.09-.02-.18-.04-.26-.09-.63-.18-1.26-.29-1.88-.1-.66-.21-1.32-.32-1.97-.6-3.42-1.32-6.73-2.12-9.94-.28-1.14-.58-2.27-.89-3.38-.16-.61-.33-1.21-.51-1.81-.15-.56-.32-1.12-.48-1.67-.67-2.27-1.39-4.5-2.13-6.69-.15-.45-.3-.9-.46-1.35-1.09-3.18-2.23-6.3-3.41-9.4-.15-.41-.31-.82-.47-1.23-.06-.15-.11-.31-.17-.46-.06-.14-.11-.29-.17-.43-2.17-5.66-4.4-11.24-6.51-16.95-.26-.71-.53-1.42-.78-2.14-.05-.13-.1-.26-.14-.39-3.17-8.77-5.98-17.87-7.8-27.98-.13-.71-.26-1.42-.37-2.14-.19-1.14-.37-2.3-.52-3.47-.1-.68-.19-1.36-.27-2.04v-.04c-.09-.69-.16-1.38-.23-2.07-.08-.7-.15-1.41-.21-2.12-.32-3.55-.51-7.23-.54-11.06h2.01c.26 3.68.6 7.26 1.03 10.77.02.24.05.48.09.71.21 1.78.45 3.54.72 5.29.1.69.21 1.38.32 2.07.21 1.34.43 2.67.68 3.99.12.73.25 1.45.4 2.16.04.28.09.55.15.81.11.6.23 1.19.35 1.78.09.46.18.92.28 1.37.14.71.29 1.41.45 2.11.01.06.02.11.04.16.19.91.39 1.81.61 2.71.27 1.16.54 2.32.83 3.46.16.67.33 1.34.51 2.01.23.9.47 1.8.71 2.69.48 1.79.98 3.56 1.5 5.32.1.33.19.65.29.97.16.55.33 1.1.5 1.65 2.13 6.96 4.49 13.68 6.98 20.27 0 .02.01.04.02.07.62 1.62 1.24 3.24 1.87 4.85 2.55 6.54 5.2 12.97 7.85 19.41 36.05 7.78 91.73-6.76 128.86 8.06-2.59 20.23-24.51 21.13-28.19 40.27 8.99-2.54 16.261-2.39 22.24-.26 20.83 7.38 26.08 38.77 34.141 64.69 3.449 11.09 16.119 32.1 16.109 32.21-.229 3.15-21 26.47-30.2 34.23-22.13 18.66-51.909 29.22-60.409 60.41 6.909 8.19 31.8 8 26.18 22.14-23.07 4.5-54.54-9.12-82.56 4.03-14.5 15.7-26.83 33.57-34.23 56.38 13.21 4.239 26.39 8.52 30.21 22.149-15.84 30.44-50.13 42.431-68.17 70.65-.8 1.24-1.57 2.52-2.3 3.84-16.6 7.57-34.73 13.6-44.3 28.19 2.87 3.21 13.09-2.99 14.09 6.039-3.26 21.36-8.78 46.19-11.65 70.44-3.27 27.56-3.13 54.38 7.63 74.54 1.71 11.77-6.39 13.75-4.03 26.17 11.08.37 17.41-14.75 32.22-16.11.93-.09 1.86-.149 2.8-.189 2.13-.101 4.26-.08 6.4.04.4.01.8.04 1.2.08 2.8.2 5.6.58 8.36 1.14.79.15 1.58.33 2.36.51.79.181 1.57.37 2.34.591 1.56.409 3.1.88 4.63 1.409 1.15.391 2.28.801 3.4 1.261.38.14.75.29 1.12.449.37.15.74.301 1.11.471.37.149.74.31 1.1.489.36.16.73.32 1.09.5a73.94 73.94 0 0 1 4.25 2.181c.35.189.69.38 1.04.59.34.189.69.39 1.03.6.34.2.67.41 1.01.62.34.2.67.41 1 .63a67.891 67.891 0 0 1 4.79 3.38c.3.23.61.471.91.721.18.149.37.3.56.46.28.22.56.45.83.689 2 1.69 3.87 3.48 5.58 5.37.27.29.54.59.8.891.2.22.39.449.58.68.2.22.38.45.56.67.71.86 1.38 1.74 2.02 2.63.43.6.85 1.2 1.24 1.811.17.26.33.51.49.77.11.17.21.34.32.51.19.311.38.63.56.95.2.33.38.67.57 1.01.01.03.03.061.05.09.18.341.36.681.54 1.03.17.34.34.68.5 1.03.35.729.68 1.47.99 2.22a39.366 39.366 0 0 1 2.32 8.021h-2.01c-.41-2.69-1.01-5.19-1.78-7.521-.07-.22-.15-.43-.23-.649-.02-.07-.04-.141-.07-.221-.11-.31-.22-.62-.35-.93a37.004 37.004 0 0 0-4.05-7.79c-.21-.31-.43-.61-.65-.91-.19-.26-.38-.52-.58-.78-.07-.09-.14-.189-.22-.279-.19-.24-.38-.48-.59-.721-.22-.279-.46-.56-.7-.829a39.183 39.183 0 0 0-5.79-5.36c-.29-.23-.58-.45-.88-.66-.32-.229-.63-.46-.96-.67-.31-.22-.63-.44-.95-.64-.32-.21-.64-.42-.96-.61-.33-.21-.66-.41-.99-.6-.39-.23-.79-.46-1.19-.681-.28-.16-.57-.31-.85-.46a67.208 67.208 0 0 0-7.62-3.43c-.02-.01-.03-.01-.05-.021-.61-.229-1.23-.46-1.85-.68a97.89 97.89 0 0 0-6.59-2.06c-.45-.13-.91-.25-1.36-.37-.13-.04-.26-.07-.39-.101-.64-.17-1.27-.33-1.92-.489-.65-.16-1.32-.32-1.99-.471-.43-.1-.85-.199-1.27-.29-.48-.109-.95-.21-1.42-.31-.48-.11-.96-.21-1.44-.3-4.06-.84-8.25-1.561-12.49-2.221-.91-.14-1.83-.279-2.75-.42-.91-.14-1.83-.279-2.76-.409l-1.26-.181c-.5-.08-1.01-.149-1.51-.22-.43.42-.88.82-1.34 1.21-.45.4-.92.77-1.4 1.14 0 .011-.01.011-.02.011-.46.369-.94.729-1.43 1.069-.54.38-1.08.75-1.63 1.101-.49.319-.99.63-1.5.93l-.15.09c-.91.54-1.83 1.061-2.78 1.561-.95.51-1.91.989-2.88 1.46-.32.159-.65.319-.97.47-.55.27-1.1.52-1.65.77-.44.21-.88.41-1.32.61-2 .9-4.01 1.78-6.02 2.67-.5.22-1 .44-1.49.67-.5.22-1 .45-1.5.68-2.13.98-4.22 2-6.22 3.101-.17.1-.34.189-.52.29-.65.359-1.29.729-1.92 1.109-.04.03-.08.061-.15.101.01 0 .01-.01 0 0-.01 0-.01.01-.02.01-.47.29-.94.59-1.39.89-.17.11-.35.23-.52.341-.61.42-1.2.84-1.77 1.27-.23.18-.46.351-.68.53-.54.43-1.07.87-1.58 1.32-.39.35-.77.699-1.14 1.069-.14.13-.28.271-.41.42a20.243 20.243 0 0 0-1.44 1.57c-.21.229-.4.46-.58.7-.24.3-.47.6-.69.91-.14.18-.27.369-.4.56-.52.75-1.01 1.54-1.46 2.37-.16.27-.3.56-.44.84-.15.29-.29.58-.41.87-.14.29-.27.59-.39.89-1.06 2.551-1.79 5.42-2.13 8.681h-2.01c-.45-4.16-.09-7.53.87-10.29.01-.04.03-.09.05-.13.11-.341.24-.66.38-.98.08-.19.16-.37.25-.55.11-.23.22-.46.35-.68.05-.11.11-.221.18-.33.07-.141.15-.271.24-.4.08-.14.16-.27.25-.4.27-.42.56-.819.87-1.199.15-.19.31-.381.48-.561.14-.18.3-.35.47-.52.01-.021.03-.04.07-.061.14-.16.3-.319.47-.479.35-.34.72-.67 1.11-.971.19-.159.38-.31.58-.449.19-.16.39-.301.6-.44.2-.15.41-.29.62-.42.21-.14.42-.27.63-.4.86-.529 1.76-1.01 2.69-1.449.47-.23.94-.45 1.42-.65.02-.02.04-.02.06-.03.46-.2.93-.399 1.4-.58.49-.199.99-.399 1.5-.58.5-.189 1.01-.38 1.52-.55.07-.029.14-.06.21-.08.06-.02.13-.04.19-.06M277.36 265.35c4.88-5.88 10.13-11.39 15.64-16.63" stroke-width="7"/><path d="M267.64 784.86c.88-.311 1.77-.61 2.66-.91-.03-.2-.07-.391-.09-.58-2.34-14.25 5.65-18.17 4.11-31.64-7.34-8.771-5.36-26.851-14.09-34.23 4.19-11.25 6.39-24.48 7.96-38.35 2.81-24.7 3.63-51.4 10.16-72.391-10.27-2.479-16.19 3.79-24.16-6.04-12.78 28.16-14.53 67.351-56.38 66.45-1.37-1.77-2.99-3.28-4.83-4.59-14.22-10.15-41.29-7.46-65.64-7.5-8.59 24.3-1.99 63.77-16 82.65-1.72 2.31-3.74 4.319-6.15 5.949-7.65-.81-7.64-9.26-16.11-4.029-.22.77-.43 1.55-.64 2.33-.14.539-.28 1.09-.42 1.64-.23.899-.44 1.8-.65 2.72-.26 1.13-.51 2.28-.74 3.44-.15.689-.29 1.39-.42 2.09-.14.71-.27 1.41-.4 2.12-.07.37-.13.729-.2 1.1-.19 1.061-.37 2.12-.55 3.19-.31 1.939-.62 3.89-.91 5.859-.03.221-.06.45-.1.681-.21 1.46-.42 2.93-.62 4.399-.11.74-.21 1.48-.31 2.21-.61 4.44-1.19 8.891-1.82 13.29-.1.74-.21 1.471-.32 2.2-.21 1.47-.43 2.92-.66 4.37-.12.729-.23 1.45-.35 2.17-.21 1.24-.42 2.47-.64 3.69-.68 3.75-1.44 7.42-2.33 10.96h-2.01c.93-3.641 1.72-7.431 2.41-11.301.01-.02.01-.05.01-.069.21-1.15.41-2.32.6-3.49.2-1.19.39-2.4.57-3.61.03-.17.06-.34.08-.51.16-1.04.31-2.08.46-3.13l.18-1.27c.21-1.471.41-2.95.61-4.431.3-2.21.59-4.439.89-6.66.29-2.22.59-4.439.9-6.64.11-.77.22-1.53.32-2.29.21-1.43.43-2.87.65-4.29.31-1.93.62-3.84.96-5.729.09-.5.18-1 .28-1.5.56-3.011 1.18-5.96 1.9-8.82.11-.48.23-.95.36-1.42.28-1.11.58-2.21.9-3.3 9.42-10.16 14.74 8.149 24.16-2.011 12.45-28.71 3.68-54.22 14.1-80.54 4.87-12.319 16.87-21.22 23.3-32.119 1.17-1.971 2.15-4.011 2.87-6.141 1.76-5.21 3.01-10.439 3.98-15.67 3.8-20.26 3.61-40.68 14.14-60.84.56-.29 1.1-.58 1.63-.89 1.32-.75 2.56-1.54 3.73-2.381 19.04-13.699 20.02-39.479 30.88-69.22 9.63-26.33 28.11-38.68 18.13-74.49 9.53-4.17 18.71.99 26.91-1.57.43-.12.85-.27 1.27-.45 2.75-3.69 5.02-7.55 6.89-11.56 13.96-29.84 6.14-68.06 11.24-107.23 2.24-3.17 4.6-6.22 7.05-9.18" stroke-width="7"/><path d="M481.71 204.07c-9.64-2.83-18.22 5.8-24.16 0 3.271-19.56 25.74-19.9 28.19-40.27-39.61-9.54-94.25-1.7-126.85-4.03 6.35 5.73 3.33 20.83 4.03 32.22-12.35 16.19-31.81 23.69-48.33 38.25-5.68 5.01-13.82 11.44-21.5 18.39l-.09.09c-5.93 5.37-11.59 11.05-15.64 16.63l-.01.01c-2.26 3.12-4.02 6.2-5.04 9.18-6.77 19.68-.28 40.14 0 60.4.25 18.16-4.93 33.05-13.25 46.83-2.47 4.08-5.21 8.06-8.16 12.01-.9 1.2-1.81 2.39-2.75 3.58-7.39-1.4-15.31-3.48-22.15 0 10.23 34.74-8.14 44.43-18.12 70.47-10.95 28.57-10.24 61.18-32.9 71.229a31.88 31.88 0 0 1-3.34 1.261c-.14.37-.27.75-.39 1.12-6.81 19.029-10.45 41.229-15.77 61.729-1.97 7.58-4.17 14.94-6.85 21.811-4.23 10.88-9.66 20.569-17.26 28.09 18.12 2.569 30.97-3.511 46.31 0 6.14 1.41 10.66 6.27 15.39 9.39 2.15 1.42 4.34 2.48 6.75 2.69 39.22 3.479 37.73-39.15 54.37-66.44 3.56 1.81 5.88 4.86 10.07 6.04 7.27-20.25 32-23.03 48.32-34.23 15.18-31.13 53.46-39.17 66.44-72.489-4.54-12.23-20.13-13.42-30.2-20.13 7.87-23.681 20.62-42.471 36.24-58.391 28.52-12.88 59.83 0 80.54-4.03 4.03-12.12-23.479-10.04-26.17-22.15 8.49-29.22 42.92-43.3 64.431-62.41 4.77-4.25 26.14-26.36 26.18-32.22-.01 1.25-7.68-8.83-10.07-14.1-14.471-31.86-11.981-66.99-38.261-80.53z" stroke-width="7"/></g><path fill="none" d="M.25.25h850.394v850.394H.25z"/><path fill="none" stroke="#231f20" stroke-width="7" d="M591.26 171.8l207.63-1.66"/></svg>