<svg xmlns="http://www.w3.org/2000/svg" width="850.89" height="850.89" viewBox="0 0 850.89 850.89" overflow="visible"><path fill="#0071bc" d="M809.42 148.18v49.92H698.97v-49.92h108.96z"/><path fill="#fbed24" d="M809.42 116.85v31.33H698.97v49.92h-35.09v-50.63h-61.32l-.26-28.68h60.16V62.85h35.8v55.23l111.09-1.23z"/><path fill="#0071bc" d="M809.42 62.85v54h-.07l-111.09 1.23V62.85zM663.88 197.32v.78h-60.85l-.47-50.63h61.32zM662.46 62.85v55.94H602.3l-.51-55.94z"/><path d="M624.37 762.93c2.22.69 4.02 1.761 5.58 3.051a41.573 41.573 0 0 0-7.431-3.49c.621.099 1.231.249 1.851.439zM615.37 677.39l-.07.13c-1.43-.76-2.87-1.55-4.2-2.369-15.729-9.67-22.93-.551-34.67 8.85-.6 7.78 5.62 15.95 5.16 24.34-.979 17.69-19.979 21.24-30.979 11.07-.771-1.72.939-8.28-.74-11.07-7.01-3.3-16.71-3.939-14.75-16.22-8.59 3.86-22.96 8.38-27.29 19.18-1.7 4.22-.32 11.41-2.22 16.96-1.73 5.061-7.28 8.5-8.11 12.54-.18.88-.32 1.771-.4 2.66.07-7.07 1.32-12.94 8.07-16.979-1.16-23.78 13.21-32.03 30.98-36.881-4.16 15.851 21.79 9.96 15.489 28.03 13.4 8.88 30.601 4.15 28.771-15.5-.4-4.32-3.74-9.14-4.42-14.75-1.29-10.47 2.13-20.83 1.52-28.83l.391-.359c1.899 7.159-.94 15.699-1.471 22.859 9.801-2.75 11.771-10.84 20.65-11.8 8.08-.87 11.83 4.15 16.97 7.38.419.269.869.519 1.319.759z" fill="#fff"/><path d="M600.91 53.62c-2.12 1-4.65 1.58-7.37 1.58-2.6 0-5.03-.53-7.09-1.46-3.91-1.74-6.53-4.88-6.53-8.47 0-5.49 6.1-9.93 13.62-9.93 7.53 0 13.63 4.44 13.63 9.93 0 3.5-2.5 6.58-6.26 8.35z" fill="#c8c8c8"/><path d="M600.91 118.79v173.74h-14.06l-.4-238.79c2.06.93 4.49 1.46 7.09 1.46 2.72 0 5.25-.58 7.37-1.58v65.17z" fill="#c8c8c8"/><path d="M577.46 657.88c.021.22.04.44.05.67-6.899 6.16-17.3 4.58-21.3-2.3 5.03 6.5 15.68 7.74 21.25 1.63zM554.59 641.65c-.09.25-.17.489-.24.739a10.752 10.752 0 0 1-2.79-3.489c1.19.73 2.53 1.32 3.03 2.75zM555.77 643.44c-1.89 5.22-1.43 9.55.4 12.75-1.38-1.801-2.33-4.011-2.63-6.57-.24-2.17-.021-4.59.81-7.23.43.37.9.72 1.42 1.05zM547.25 628.67c.02.6 0 1.25-.03 1.91-2.02.29-3.63.15-4.5-.72-.609-.601-.87-1.551-.67-2.96 1.32-.41 3.07-.381 3.69-1.48 1.08.51 1.43 1.74 1.51 3.25z" fill="#fff"/><path d="M522.14 287.59c3.391 2.38 7.11 7.97 5.9 12.54-3.23-.33 1.39-1.56-.74-3.69-7.7 1.9-10.43 8.35-20.649 5.9-1.54.19-.21 3.24-1.48 3.69-3.87-.06-2.88-4.99-6.64-5.16-5.101 1.44-2.12 1.47-6.641 1.47-.659 12.86-4.489 22.56-15.489 25.08 1.38 4.28 3.25 8.07 7.38 9.59a104.52 104.52 0 0 1-3.44 7.56c-.399.4-.75.83-.99 1.29-.08.15-.1.43-.09.79a94.469 94.469 0 0 1-5.81 9.54c3.31 6.12 6.29 10.48 6.63 18.12-.05.13-.09.27-.14.4-4.881 2.41-4.101 10.49-10.91 10.98 1.989 4.65-1.141 10.83-.74 14.02-3.81 2.09-6.17 5.63-8.11 9.59-6.72-.08-8.67 4.61-11.8 8.11-2.85.15-5.439.03-7.38-.74-1.99 4.16-4.56 7.74-5.9 12.54-2.54 1.9-8.02.83-6.64 6.64-1.89.82-5.12.28-5.9 2.221l-.74 1.47c-1.9 1.54-2.7 4.18-2.21 8.12-3.64 3.49-7.92 6.34-10.33 11.06.1 2.601 2.11 3.3 2.22 5.9-1.2 2.24-2.28 4.61-5.17 5.16-2.07-3.45-8.52-2.181-10.33.739 6.87 7.211 4.78 24-1.47 30.24 1.4 3.521 6.61 3.23 6.64 8.12-1.82 1.99-4.09-2.729-5.9-.74-2.72 11.75.96 27.44-2.22 35.41 5.39 1.74 5.14 9.12 5.91 15.49 2.6-.11 3.29-2.12 5.9-2.22-.57 2.779.9 3.529.73 5.899 3.3 1.88 5.64-.43 8.86-.729 3.98 6.33 9.18 11.46 11.8 19.17 5.27 3.34 11.14 6.07 13.27 12.54-.38 2.569-4.43 1.47-3.68 5.17.28 3.16 4.42 2.46 5.16 5.16-2.52.189-3.55 1.859-6.64 1.47-3.931 6.41-10.99 9.67-16.97 14.02-1.35-.859-2.5-1.93-3.68-2.949.31-1.4 1.58-1.851 1.47-3.69-3.74-2.649-5.12-7.66-7.38-11.8-7.14.24-6.08 8.67-7.37 14.75-7.71-7.71-21.99-4.32-29.51 1.479 3.96 4.86 16.25-2.409 21.4 5.16 2.73.521 3.16-1.26 5.9-.739-.43 2.399.5 3.439.74 5.17 7.83 2.08 21.29-3.74 25.07 3.68-2.7 5.66-6.34 10.38-10.32 14.76.14-4.78-2.76-6.5-3.52-10.37a8.88 8.88 0 0 1-.17-1.43c-.99 1.229-3.28 1.14-4.43 2.21 1.27 6.09-.04 11.65-2.95 15.49-2.82.62-5.92.97-9.59.74.83 3.05.53 4.22-1.47 5.899-6.06.58-14.6-1.32-16.97 2.95 2.58 3.07 10.44.87 14.02 2.95.14 3.34-4.33 2.06-4.43 5.16.02 5.39 2.96 7.869 3.69 12.54-3.81 3.569-5.91 8.84-8.11 14.02.42 3.02 3.39 3.48 3.68 6.63-.55 2.9-4.89 1.99-4.42 5.91.94 2.25 4.42 1.97 4.42 5.16-7.93 9.24-1.82 30.689-11.06 39.83.24 7.27-6.78 12.979-2.95 19.18-3 1.42-3.77 5.08-7.38 5.9-2.85-3.44-10.11-6.08-14.01-2.21-4.11-3.521-12.16-3.091-18.44-4.431-1.66 2.021 1 4.46.73 7.38-5.91-.399-6.81 8.33-14.01 8.851-2.88 7.819 10.74 18.83-1.48 22.87-5.24-6.011-17.78-1.601-24.34 0-2.88-4.24-8.01.899-9.59-2.95l1.48-1.48c2.73 1.24 3.02-6.3 5.16-8.109-6.46-6.32-5.57-20-12.54-25.82.63.14.7-.29.74-.74.31-3.859 5.18-3.18 8.85-3.68-.59-2.61-1.78-4.62-4.42-5.17.96-3.22 5.8-2.561 6.63-5.9-3.65-6.67-8.99-11.66-11.06-19.91-.67-1.3-2.58-1.35-3.69-2.22.47-6.79-1.94-10.72-5.78-13.2-.04-.1-.1-.189-.15-.29-.83-6.46-3.23-11.35-2.92-18.97-1.11-1.34-3.18-1.729-4.43-2.95-2.63-13.31 9.11-15.819 6.64-26.55-1.46-1.25-4.6-.81-6.64-1.479-.4-2.29-.6-4.801-1.47-6.631-3.55-.109-3.17 3.711-7.38 2.95-1.45-3.279-.51-7.41-.73-11.81-.46-8.87-2.79-19.59.73-24.34 3.39 1.05 1.12 7.729 4.43 8.85 6.51 1.26 4.77-5 5.9-11.06 1.05-5.62 2.06-18.301 2.21-25.08 1.62-.84 3.02-1.9 5.9-1.471.01-2.47-2.4-2.52-2.21-5.17 4.05-.14 3.48-1.04 2.21-3.689 8.48-.86 10.1-8.58 14.75-13.271.72-14.72 1.19-27.79-5.16-39.83 10.02-.569 12.75-8.399 17.71-14.02-1.58-10.72-6.77-17.83-16.23-20.65 2.78-16.59-1.2-33.31-.74-49.42.15-5.01 2.91-10.899 2.95-16.229.03-4.061-1.95-7.57-1.47-11.07.84-6.21 7.13-11.41 5.16-18.44 8.25-6.99 8.69-21.8 25.82-19.91 2.04 2.13 5.13 3.22 7.37 5.16 11.31-.08 8.03-11.03 8.12-21.39-2.2-1.99-4.82-3.54-8.12-4.43 6.84-14.59 18.98-37.06 21.39-57.53.86-7.3-.38-13.12-4.42-16.97 3.46-.96 8.09-.76 12.54-.74 1.91-3.49 4.73-6.08 8.85-7.37.72-18.46 10.86-27.5 18.44-39.1-1.1-10.52-11.61-20.73 2.21-24.34-1.69-14.48 6.23-19.34 12.54-25.81 1.9 2.03 5.98 1.88 8.12 3.68 10.78-2.48 2.8-23.74 10.32-29.5 15.39-1.81 22.83 16.23 34.67 6.64-.64-3.71 2.271-7.01-.74-8.85 6.88-5.85 2.16-15.81-1.47-21.39h4.43c9.2 9.73 22.271 15.58 31.71 25.07 20.471-.29 28.21 16.04 28.03 33.94.85 2.34 2.22 4.17 4.43 5.16-.699 2.25-3.59 2.31-3.689 5.16.439 3.98 5.689 3.17 6.64 6.64-.109 3.34-3.03 3.86-2.95 7.38 3.631 5.47 5.96 12.23 9.591 17.7-1.03 5.04-1.54 6.43.729 10.33-7.692 8.789 3.028 18.029 2.218 27.289z" fill="#fff5b4"/><path d="M505.11 799.31c-.32-1.029-.65-2.09-.971-3.18-1.39-4.68-4.909-12.229-5.25-17.149 1.801 6.949 4.421 13.629 6.221 20.329zM497.1 743.46c-.029 2.69.11 5.54.181 8.54-.311-2.86-.461-5.71-.181-8.54zM480.34 344.57c-.35.7-.71 1.4-1.08 2.08-.01-.36.01-.64.09-.79.24-.46.59-.89.99-1.29zM481.57 367.25c-.21 2.27-.7 4.7-1.49 7.06-.34-7.64-3.32-12-6.63-18.12 2.1-3.02 4.03-6.2 5.81-9.54.03 1.23.38 3.37.09 4.37-1.199 4.1-5.05 3.48-5.159 5.91-.03.68 2.899 1.79 3.689 4.42 1.2 3.99 1.04 4.81 3.69 5.9zM480.08 374.31c0 .11.01.21.01.32-.05.02-.1.05-.149.08.049-.13.089-.27.139-.4zM479.94 374.71c-1.74 4.98-4.811 9.6-9.44 11.72 1.58 4.77-1.3 10.15-1.47 15.49-5.511.15-5.141 6.17-8.851 8.12-5.17.98-8.25 4.05-10.33 8.11-3.26 1.06-5.369.41-8.85 0-.42 5.85-5.16 8.34-5.16 12.541-2.07.39-3.84 1.079-5.91 1.479.74 6.14-5.51 5.94-7.37 5.9.78-1.94 4.01-1.4 5.9-2.221-1.38-5.81 4.1-4.739 6.64-6.64 1.341-4.8 3.91-8.38 5.9-12.54 1.94.77 4.53.89 7.38.74 3.13-3.5 5.08-8.19 11.8-8.11 1.94-3.96 4.301-7.5 8.11-9.59-.4-3.19 2.729-9.37.74-14.02 6.811-.489 6.031-8.569 10.911-10.979z" fill="#fff"/><path d="M451.33 685.17c.02 2.24-2.59 1.84-4.43 2.21-2.29 8.351-14.19 14.93-6.641 24.34-4.99 8.78-11.479 16.061-16.23 25.09-2.23-1.899-1.54-6.159.74-7.38-1.89-3.27-2.97-7.359-5.9-9.59-.35-2.32 1.99-1.95 2.21-3.689-2.47-16.73 9.96-18.561 13.28-29.5 4.681 8.009 8.451-5.331 16.971-1.481z" fill="#fff5b4"/><path d="M437.31 598.13c-.05 3 2.73 3.18 5.9 2.95-.07 4.6-4.729 4.61-8.11 5.9-4.899 3.71-7.449 9.77-14.75 11.06-1.3.68-1.36 2.59-2.22 3.69-.24-.16-.46-.341-.68-.521-1.56-1.229-2.88-2.72-5.22-3.17.24-1.72.89-3.04 1.48-4.42-3.26-2.64-4.38-7.42-6.64-11.061-6.74 1.12-4.03 9.471-5.16 14.75-8.14-6.199-21.05-5.699-29.51 0 1.3 2.45 4.15.99 5.16-.739 9.19-.57 11.65 5.56 21.4 4.43v3.68c3.88 2.08 11.77.66 18.17 1.07 3.59.23 6.71 1.03 8.38 3.36-2.65 7.439-7.32 12.84-11.8 18.439.09-5.5-4.99-5.84-3.69-12.54l.17-.04c.76 3.87 3.66 5.59 3.52 10.37 3.98-4.38 7.62-9.1 10.32-14.76-3.78-7.42-17.24-1.6-25.07-3.68-.24-1.73-1.17-2.771-.74-5.17-2.74-.521-3.17 1.26-5.9.739-5.15-7.569-17.44-.3-21.4-5.16 7.52-5.8 21.8-9.189 29.51-1.479 1.29-6.08.23-14.51 7.37-14.75 2.26 4.14 3.64 9.15 7.38 11.8.11 1.84-1.16 2.29-1.47 3.69 1.18 1.02 2.33 2.09 3.68 2.949 5.98-4.35 13.04-7.609 16.97-14.02 3.09.39 4.12-1.28 6.64-1.47-.74-2.7-4.88-2-5.16-5.16-.75-3.7 3.3-2.601 3.68-5.17-2.13-6.47-8-9.2-13.27-12.54-2.62-7.71-7.82-12.84-11.8-19.17-3.22.3-5.56 2.609-8.86.729.17-2.37-1.3-3.12-.73-5.899-2.61.1-3.3 2.109-5.9 2.22-.77-6.37-.52-13.75-5.91-15.49 3.18-7.97-.5-23.66 2.22-35.41 1.81-1.989 4.08 2.73 5.9.74-.03-4.89-5.24-4.6-6.64-8.12 6.25-6.24 8.34-23.029 1.47-30.24 1.81-2.92 8.26-4.189 10.33-.739 2.89-.55 3.97-2.92 5.17-5.16-.11-2.601-2.12-3.3-2.22-5.9 2.41-4.72 6.69-7.569 10.33-11.06l.13.08c-2.34 3.8-6.22 7.27-9.72 10.979 3.57 4.21 1.87 10.851-2.95 12.54-2.31-2-5.84-2.84-9.59-1.479 1.61 4.6 4.63 8.689 4.43 14.76-.21 6-2.97 11.82-5.91 15.49 1.2 3.63 7.84 5.22 5.91 9.59-2.06 1.96-3.65-.7-5.91-.74 1.19 9.99-2.95 21.01.74 28.76.64 2.86-1.8 2.63-2.21 4.431.57 3.359 3.98 3.89 5.16 6.64.57 3.521-1.15 4.75-.73 8.11 2.28 2.35 4.69-2.74 6.63-.74 1.39 1.08.09 4.83 1.48 5.91 2.66 1.24 4.75-1.32 8.11-1.48 3.95 2.44 2.51 10.28 8.85 10.33.43 12.36 12.911 12.66 16.97 21.391-.24 2.96-2.81 3.58-3.69 5.9z" fill="#fff"/><path d="M421.82 439.54c.36 3-.52 5.67-2.08 8.2l-.13-.08c-.49-3.94.31-6.58 2.21-8.12zM410.19 634.97l-.17.04c-5.51 2.12-1.79 13.46-5.9 16.971-2.25.489-7.68 1.619-8.85.729-.96 1.75-1.23 4.18-2.22 5.9-4.34 1.8-12.61-.32-16.96 1.479 3.91 1.5 8.58 2.24 14.01 2.21.83 4.521-3.19 4.19-4.42 6.641-.39 5.3 2.1 7.729 3.69 11.069-2.36 5.021-5.57 9.181-8.12 14.01-.56 4.5 3.41 4.461 3.69 8.11-1.48 1.97-3.2 3.69-5.16 5.17.72 1.98 3.59 1.811 4.42 3.69-.21.76-.42 1.5-.63 2.24l-.11-.03c0-3.19-3.48-2.91-4.42-5.16-.47-3.92 3.87-3.01 4.42-5.91-.29-3.149-3.26-3.61-3.68-6.63 2.2-5.18 4.3-10.45 8.11-14.02-.73-4.671-3.67-7.15-3.69-12.54.1-3.101 4.57-1.82 4.43-5.16-3.58-2.08-11.44.12-14.02-2.95 2.37-4.271 10.91-2.37 16.97-2.95 2-1.68 2.3-2.85 1.47-5.899 3.67.229 6.77-.12 9.59-.74 2.91-3.84 4.22-9.4 2.95-15.49 1.15-1.07 3.44-.98 4.43-2.21.02.51.08.99.17 1.43z" fill="#fff"/><path d="M393.79 714.68c5.22 10.641-4.44 20.46-8.11 31.721-2.84 8.67-2.05 18.069-8.12 23.6-1.27-6.18-.98-12.33-.73-18.44-4.62 3.16-8.23 14.66-5.91 19.91-2.32 3.09-5.2 5.61-8.11 8.12-3.64-2.78-10.14-6.729-14.75-2.22-3.42-3.95-12.08-2.67-16.97-5.16-1.58 2.12.53 5.47.74 8.11-8.69-1.061-6.88 8.359-14.75 8.12.13 9.069 8.57 15.529.73 22.859-5.13.11-8.05-2.95-13.27-2.95-5.2.011-10 2.95-14.76 2.95-1.6.01-1.08-1.899-2.95-2.21-2.15-.35-7.8 4.08-5.9-1.47 1.58 3.85 6.71-1.29 9.59 2.95 6.56-1.601 19.1-6.011 24.34 0 12.22-4.04-1.4-15.051 1.48-22.87 7.2-.521 8.1-9.25 14.01-8.851.27-2.92-2.39-5.359-.73-7.38 6.28 1.34 14.33.91 18.44 4.431 3.9-3.87 11.16-1.23 14.01 2.21 3.61-.82 4.38-4.48 7.38-5.9-3.83-6.2 3.19-11.91 2.95-19.18 9.24-9.141 3.13-30.59 11.06-39.83l.11.03c-3.08 11.39-4.75 21.239-6.01 35.38 8.3-8.42 10.75-22.69 16.23-33.93z" fill="#fff5b4"/><path d="M282.41 806.14c2.01-1.68 1.62-5.76 3.69-7.38-3.95-5.399-5.69-12.99-7.38-20.649-1.6-1.66-5.79-3.62-4.43-5.9.57-3.85 3.2-5.65 8.12-5.16 1.24-4.189-4.25-1.66-3.69-5.17 1.24-2.939 6.45-1.899 6.64-5.899-6.36-5.19-7.13-15.98-14.02-20.65-.54-5.78-2.87-9.78-5.04-13.94 3.84 2.48 6.25 6.41 5.78 13.2 1.11.87 3.02.92 3.69 2.22 2.07 8.25 7.41 13.24 11.06 19.91-.83 3.34-5.67 2.681-6.63 5.9 2.64.55 3.83 2.56 4.42 5.17-3.67.5-8.54-.18-8.85 3.68-.04.45-.11.88-.74.74 6.97 5.82 6.08 19.5 12.54 25.82-2.14 1.808-2.43 9.348-5.16 8.108zM266.15 721.1c.05.101.11.19.15.29-.04-.029-.08-.05-.12-.08l-.03-.21z" fill="#fff"/><path d="M263.23 702.13c-.31 7.62 2.09 12.51 2.92 18.97-2.49-4.8-4.7-9.88-3.66-18.229-1.77-1.14-2.95-2.37-3.69-3.69 1.25 1.219 3.32 1.609 4.43 2.949z" fill="#fff"/><g fill="none" stroke="#231f20"><path stroke-width="8" d="M601.79 62.85h207.63V198.1H603.03"/><path d="M586.45 53.74c-3.91-1.74-6.53-4.88-6.53-8.47 0-5.49 6.1-9.93 13.62-9.93 7.53 0 13.63 4.44 13.63 9.93 0 3.5-2.5 6.58-6.26 8.35-2.12 1-4.65 1.58-7.37 1.58-2.6 0-5.03-.53-7.09-1.46z" stroke-width="7"/><path stroke-width="7" d="M586.45 53.47v.27l.4 238.79M600.91 52.97v239.56M662.46 62.01v56.78h-62.48M600.69 147.47h63.19v49.85M809.35 116.85l-111.09 1.23V62.01M698.97 198.03v-49.85h108.96"/><path d="M615.3 677.52c3.15 1.671 6.19 3.16 7.601 4.271 4.21 3.34 3.8 8 8.109 8.85 2.3.46 4.19-.239 5.9-1.069M622.52 762.49c-4.52-1.61-9.699-2.55-15.85-2.51-3.18-3.711-4.3-9.48-8.11-12.54-6.189.829-7.159 10.3-14.76 11.8-7.25 1.439-15.77-4-24.34-3.69-7.61.28-23.75-.38-32.46.74-13.41 1.729-17.24 11.52-28.76 16.97 1.49-7.1-.21-14.22-.96-21.26-.311-2.86-.46-5.71-.181-8.54M642.07 775.47c-3.721-3.479-7.59-6.819-12.12-9.489" stroke-width="5"/><path d="M505.11 799.31c-.32-1.029-.65-2.09-.971-3.18-1.39-4.68-4.909-12.229-5.25-17.149-.05-.75-.029-1.431.08-2.04.95-5.11 19.25-18.671 28.771-19.91 8.149-1.061 16.97 1.55 25.08.739 2.479-.25 4.97-1.449 7.38-1.479 7.939-.1 15.229 4.8 21.39 4.43 8.96-.55 11.69-10.88 16.97-12.54 3.671 3.511 3.66 10.86 8.851 13.271 4.54 2.12 9.81.149 15.109 1.04.62.1 1.23.25 1.851.439 2.22.69 4.02 1.761 5.58 3.051 2.28 1.85 4.069 4.13 5.95 6.289" stroke-width="5"/><path d="M577.51 658.55c.61 8-2.81 18.36-1.52 28.83.68 5.61 4.02 10.43 4.42 14.75 1.83 19.65-15.37 24.38-28.771 15.5 6.301-18.07-19.649-12.18-15.489-28.03-17.771 4.851-32.141 13.101-30.98 36.881-6.75 4.039-8 9.909-8.07 16.979-.029 2.69.11 5.54.181 8.54.06 2.93.069 5.99-.221 9.15-.569 6.229.351 12.119 1.83 17.83 1.801 6.949 4.42 13.63 6.221 20.329 0 .021 0 .03.01.04 1.62 6.11 2.55 12.23 1.53 18.591-2.03 0-4.07-.011-6.101-.021M554.35 642.39c-.83 2.641-1.05 5.061-.81 7.23.3 2.56 1.25 4.77 2.63 6.57M632.25 594.26c-8.93-.75-17.92-3.99-27.5-3.51-8.35.43-15.69 6.19-23.6 9.59-16.08 6.93-33.181 6.891-32.49 28.271.07 2.149.32 4.52.77 7.14.08 1.68 1.04 2.48 2.13 3.15M238.79 618.53c-.79 4.58 4.67 4.01 6.74 8.37 5.25 11.08-1.45 30.989 4.42 42.04 4.84 1.39 3.26-3.631 7.38-2.95v5.899c1.34 1.61 6.03-.13 7.37 1.48.12 8.35-10.1 18.34-5.9 25.81.74 1.32 1.92 2.551 3.69 3.69-1.04 8.35 1.17 13.43 3.66 18.229.05.101.11.19.15.29 2.17 4.16 4.5 8.16 5.04 13.94 6.89 4.67 7.66 15.46 14.02 20.65-.19 4-5.4 2.96-6.64 5.899-.56 3.51 4.93.98 3.69 5.17-4.92-.49-7.55 1.311-8.12 5.16-1.36 2.28 2.83 4.24 4.43 5.9 1.69 7.659 3.43 15.25 7.38 20.649-2.07 1.62-1.68 5.7-3.69 7.38 2.73 1.24 3.02-6.3 5.16-8.109-6.46-6.32-5.57-20-12.54-25.82.63.14.7-.29.74-.74.31-3.859 5.18-3.18 8.85-3.68-.59-2.61-1.78-4.62-4.42-5.17.96-3.22 5.8-2.561 6.63-5.9-3.65-6.67-8.99-11.66-11.06-19.91-.67-1.3-2.58-1.35-3.69-2.22.47-6.79-1.94-10.72-5.78-13.2-.04-.029-.08-.05-.12-.08l-.03-.21c-.83-6.46-3.23-11.35-2.92-18.97-1.11-1.34-3.18-1.729-4.43-2.95-2.63-13.31 9.11-15.819 6.64-26.55-1.46-1.25-4.6-.81-6.64-1.479-.4-2.29-.6-4.801-1.47-6.631-3.55-.109-3.17 3.711-7.38 2.95-1.45-3.279-.51-7.41-.73-11.81-.46-8.87-2.79-19.59.73-24.34 3.39 1.05 1.12 7.729 4.43 8.85 6.51 1.26 4.77-5 5.9-11.06 1.05-5.62 2.06-18.301 2.21-25.08 1.62-.84 3.02-1.9 5.9-1.471.01-2.47-2.4-2.52-2.21-5.17 4.05-.14 3.48-1.04 2.21-3.689 8.48-.86 10.1-8.58 14.75-13.271.72-14.72 1.19-27.79-5.16-39.83 10.02-.569 12.75-8.399 17.71-14.02-1.58-10.72-6.77-17.83-16.23-20.65 2.78-16.59-1.2-33.31-.74-49.42.15-5.01 2.91-10.899 2.95-16.229.03-4.061-1.95-7.57-1.47-11.07.84-6.21 7.13-11.41 5.16-18.44 8.25-6.99 8.69-21.8 25.82-19.91 2.04 2.13 5.13 3.22 7.37 5.16 11.31-.08 8.03-11.03 8.12-21.39-2.2-1.99-4.82-3.54-8.12-4.43 6.84-14.59 18.98-37.06 21.39-57.53.86-7.3-.38-13.12-4.42-16.97 3.46-.96 8.09-.76 12.54-.74 1.91-3.49 4.73-6.08 8.85-7.37.72-18.46 10.86-27.5 18.44-39.1-1.1-10.52-11.61-20.73 2.21-24.34-1.69-14.48 6.23-19.34 12.54-25.81 1.9 2.03 5.98 1.88 8.12 3.68 10.78-2.48 2.8-23.74 10.32-29.5 15.39-1.81 22.83 16.23 34.67 6.64-.64-3.71 2.271-7.01-.74-8.85 6.88-5.85 2.16-15.81-1.47-21.39h4.43c9.2 9.73 22.271 15.58 31.71 25.07 20.471-.29 28.21 16.04 28.03 33.94.85 2.34 2.22 4.17 4.43 5.16-.699 2.25-3.59 2.31-3.689 5.16.439 3.98 5.689 3.17 6.64 6.64-.109 3.34-3.03 3.86-2.95 7.38 3.631 5.47 5.96 12.23 9.591 17.7-1.03 5.04-1.54 6.43.729 10.33-7.689 8.79 3.03 18.03 2.22 27.29 3.391 2.38 7.11 7.97 5.9 12.54-3.23-.33 1.39-1.56-.74-3.69-7.7 1.9-10.43 8.35-20.649 5.9-1.54.19-.21 3.24-1.48 3.69-3.87-.06-2.88-4.99-6.64-5.16-5.101 1.44-2.12 1.47-6.641 1.47-.659 12.86-4.489 22.56-15.489 25.08 1.38 4.28 3.25 8.07 7.38 9.59a104.52 104.52 0 0 1-4.52 9.64 94.469 94.469 0 0 1-5.81 9.54c3.31 6.12 6.29 10.48 6.63 18.12 0 .11.01.21.01.32-.05.02-.1.05-.149.08-4.881 2.41-4.101 10.49-10.91 10.98 1.989 4.65-1.141 10.83-.74 14.02-3.81 2.09-6.17 5.63-8.11 9.59-6.72-.08-8.67 4.61-11.8 8.11-2.85.15-5.439.03-7.38-.74-1.99 4.16-4.56 7.74-5.9 12.54-2.54 1.9-8.02.83-6.64 6.64-1.89.82-5.12.28-5.9 2.221 1.86.04 8.11.239 7.37-5.9 2.07-.4 3.84-1.09 5.91-1.479 0-4.2 4.74-6.69 5.16-12.541 3.48.41 5.59 1.06 8.85 0 2.08-4.06 5.16-7.13 10.33-8.11 3.71-1.95 3.34-7.97 8.851-8.12.17-5.34 3.05-10.72 1.47-15.49 4.63-2.12 7.7-6.74 9.44-11.72.05-.13.09-.27.14-.4.79-2.36 1.28-4.79 1.49-7.06-2.65-1.09-2.49-1.91-3.69-5.9-.79-2.63-3.72-3.74-3.689-4.42.109-2.43 3.96-1.81 5.159-5.91.29-1-.06-3.14-.09-4.37-.01-.36.01-.64.09-.79.24-.46.591-.89.99-1.29 2.01-1.99 5.49-3.4 4.92-6.08-1.39-4.77-7.279-5.02-7.38-11.07 10.19-2.35 14.66-10.41 14.75-22.87.33-3.68 1.561 1.63 3.69.74 1.59-.94-1.13-2.94 1.47-3.69 2.95 1.24 3.79 4.58 6.64 5.9 2.54-.16 2.37-3.04 3.69-4.42 7.16 2.16 13.08-1.76 16.97-5.16 3.54.26-1.58 2.2-1.479 3.68 10.949.32 20.87 6.85 29.51 11.81 1.729 3.8 2.38 11.84 0 15.49.92 3.26 5.24 3.11 5.899 6.63.7 2.67-2.899 1.03-4.43 1.48-1.17 3.19 2.92 4.88 1.48 5.9-3.221.52-3.28-2.13-5.9-2.21-8.87 3.42-8.439 14.7-12.54 22.13-3.83 6.94-9.02 12.45-11.8 19.18-.54 2.25.75 2.68.729 4.42h-5.899v8.11c-8 3.32-7.78 14.84-16.96 16.97-.55 11.25-8.12 15.48-15.49 19.92-2.5 11.271-9.21 17.49-8.86 29.5.28 9.37 11.431 19.54 2.96 27.301 4.16 7.26 10.66 9.84 11.061 18.439.1 2.16-1.82 4.33-2.21 7.37-.51 3.93 1.17 8.729.729 12.54-.79 7.05-5.13 13.8-4.42 19.18 1.17 8.9 9.91 10.04 14.011 16.96 11.229 4.17 19.68 7.09 27.289 12.54 5.421 3.88 7.881 9.971 19.921 8.86 1.84-.17 4.17-.851 5.899-1.48 10.271-3.739 23.33-11.989 36.88-18.439 6.021-2.86 12.46-6.32 18.45-9.59 8.61-4.71 14.05-8.511 22.43-9.561" stroke-width="5"/><path d="M238.79 618.53c.08-.12.12-.28.1-.49-.04.17-.08.34-.1.49z" stroke-width="5"/><path d="M406.55 118.04c1.91-.03 3.8-.07 5.68-.11 2.36 1.71-1.57 3.29-.73 5.9 3.71 2.25 1.49 7.5 5.89 11.81-3.66-.44-7.72-6.94-5.16-8.85-1.84-.75-7.48-1.1-9.59 1.47.38 3.32 4.17 3.21 3.69 7.38-4.48 1.03-1.84-5.05-5.16-5.17-4.87 1.03-3.32 8.49-3.69 14.02-4.95.22-7.48 2.85-9.59 5.9.45 2.26 1.57 3.84 2.21 5.9-.58 4.09-4.46 4.88-5.16 8.85-4.33-1.38-11.51 2.54-14.02 7.38.59 1.38 1.23 2.7 1.48 4.43 2.65-.42 7.42-1.86 8.85.73 3.05-.88 3-4.87 7.38-4.42 1.89 4.54-3.31 7.85-5.9 10.32-3.55.11-3.13-3.75-5.9-4.42-3.12 1.8-7.47 2.37-9.59 5.16.92 7.35 2.52 8.76.73 16.23-1.2 2.73-6.1 1.77-4.42 7.38-2.23-3.09-8.88-4.21-11.8-.74-1.55 5.01 5.83 4.11 3.68 7.37-3.48 2.52-3.19.83-8.85.74-.26 4.69 2.57 6.29 3.69 9.59 2.94.48 2.96-1.95 5.9-1.48.4 2.86-1.32 3.61-.74 6.64-2.42-1.4-10.36-3.3-11.8-8.11-6.26 2.09-7.62 9.1-10.33 14.75 3.76 3.56 17.84-5 16.97 3.69-3.51 2.07-9.84-1.31-14.75 0-5.41 1.44-8.73 11.17-16.97 8.11-3.39 3.02-1.09 5.3 0 8.86-.4 3.28-3.59 3.77-5.9 5.16v7.37c-1.8.66-3.2 1.72-5.9 1.48-1.59 4.84-4.26 9.34-1.48 14.75 3.36-.27 7.46-1.72 9.59.74-2.6 3.8-10.51 2.27-14.01 5.17 1.76 9.87-7.67 8.55-7.38 16.96-1.7-1.77-2.38-1.13-5.16-.74 1 4.41 1.95 8.87 2.95 13.28-3.92-1.96-7.5 1.98-8.85 6.64.5 2.59 2.55 3.63 5.16 2.21-.7 2.53-2.5 4.77 0 6.64 3.58 2.61 5.01-3.78 8.12-1.48-2 3.66-9.05 2.27-11.81 5.17-2.76-.19-1.67-4.23-5.16-3.69-4.59 6.23-12.04 9.6-16.23 16.23 5.32 3.08 6.57-4.24 12.54-2.95-1.71 4.92-6.53 6.74-10.33 9.59.4 2.55 1.98 3.92 2.22 6.63-1.54 1.61-2.11-.36-4.43 0-1.66.55-.29 4.14-.73 5.91-2.75-1.45-3.35-5.02-5.91-6.64-3.25-.31-5.7.2-7.37 1.47-3.91 9.37-11.57 14.99-14.02 25.82-3.41 1.51-9.3.53-9.59 5.16.33 3.57 4.89 1.77 7.38 1.48-1.54 3.92-2.01 8.67 0 12.54 6.81-4.26 13.54-8.59 19.92-13.28-.82-1.89-3.96-1.45-6.64-1.47 1.91-4.49 8.37-4.42 11.06-8.12 3.16 1.01-1.2 3.16-1.47 5.16 1.47 2.22 2.76 4.61 5.16 5.91-3.56 4.06-11.07 4.17-14.75 8.11-.02 3.21 2.28 4.11 1.47 8.11-8.49-2.04-11.78-.36-18.44 2.22-2.65-3-.53-10.79-2.95-14.02-5.93-.03-7.87 3.93-12.54 5.17-.67 2.68 3.2 4.59.74 6.63-3.72-1.99-2.59-4.71-6.64-4.42-4.04.29-7.97 8.21-6.64 12.54-1.62.84-3.01 1.9-5.9 1.47-1.37 3.061.59 9.44-4.43 8.86-.57 3.03 1.14 3.78.74 6.63-1.33-.12-2.19-.73-2.81-1.57-1.37-1.84-1.56-4.859-3.09-6.54-9.79 2.971-15.5-7.669-22.86-1.47-.12 3.84 6.67 4.26 2.21 8.11 8.24-.86 9.99 4.76 19.17 2.95-.23 5.42-12.59-1.28-11.06 5.899-4.29-3.18-10.07-.3-12.54-5.16-3.25 2.16-11.17-.35-10.32 5.9 6.25 2.59 8.01 9.68 14.75 11.8-2.99 1.19-4.19 4.17-6.64 5.9 1.78-5.181-.87-9.78-4.43-11.801-2.9 1.521-5.95 2.891-5.16 8.11-2.73-.71-2.26-4.63-2.95-7.37-6.16.721-5.11 8.66-8.85 11.8-4.14-.26-.36-2.529 0-4.43-6.02-5.18-15.88.72-14.75 9.59 8.36 3.11 16.85 6.2 25.81 10.33-9.61-.229-16.02-3.649-22.86-6.64-5.13 1.05-6.05 8.02-11.81 4.42-.34 3.79 1.38 5.52 5.17 5.17-.16 2.55-1.05 3.47.74 5.16-.84 2.12-3.17 2.74-5.91 2.95-.32 2.54.29 4.14.74 5.899.32 1.65 3.64.3 5.17.74-1.24 1.72-4.01 1.89-5.91 2.95-.26 4.2-.18 8.05 2.22 9.59 7.25-5.68 15.77 1.49 21.39.74 4.76-.641 3.56-4.521 8.11-6.641-2.95 7.311 4.08 9.21 8.85 11.061.23-.03.46-.07.66-.12 6.46-1.64 1.01-15.19 8.93-15.36-.73 4.101-3.19 8.851 0 14.75-1.92 1.61-5.69 1.38-8.6 2-.94.2-1.79.49-2.46.95-3.17-1.51-5.46-3.89-8.12-5.9-7.05 5.2-38.06-6.85-36.14 8.11.47 3.67 3.27 5.061 7.38 2.95-.86 1.85-2.94 2.47-2.95 5.16-1.41-.311-1.86-1.59-3.69-1.471-2.11 2.98-2.2 6.24-.74 9.591 5.37.77 7.17-5.391 10.33-4.431-1.68 2.761-6.31 2.54-5.9 7.38 4.41 2.91 6.17-3.149 9.59-3.689-.94 4.22-3 7.33-6.64 8.85-3.69.74-3.61-2.29-6.64-2.21-5.38 1.92-3.72 10.49.74 11.8 1.73-1.52 3.37-6.04 5.9-4.43.91 2.79-3.3 5.92 0 12.54 5.28.37 6-3.83 6.64-8.11 3.34-1.079 5.55-3.29 6.63-6.64 7.52-.11 11.03-4.21 16.97-5.9-.9 9.671-14.46 6.681-19.18 12.54-.63 6.261-7.1 6.671-6.64 14.011-3.03 1.16-4.92 3.439-6.64 5.91.84 4.029 3.7 4.909 8.12 3.68-4.51 4.2-10.62 6.899-15.49 3.689-5.88 1.091-8.9 10.96-5.17 16.971 4.39.699 3.37-4.011 4.43-6.641 2.59 1.34.1 7.771 2.95 8.851 5.83.64 3.67-6.24 4.43-8.851 3.81 2.261 5.56.891 9.59-2.949 2.35 4.329-6.22 4.09-5.17 9.59.63 2.569 3.64 2.76 5.9 3.68-2.22 2.45-6.06 3.28-5.9 8.12-3.67-.48-3.14-.36-5.9.74-.23 2.93 1.7 3.699 1.48 6.64 1.6 1.1 4.15 1.25 6.64 1.47-1.52 2.28-5.8-.39-5.91 4.431-4.02-1.87-6.27-5.53-10.32-7.381-5.7 3.57-2.25 11.811-2.95 19.921 1.69 3.21 5.74 4.09 8.11 6.64.43 2.88-.63 4.28-1.47 5.9 1.99 4.649 8.5 7.869 14.75 5.899 3.67 1.17-3.99 2.561-2.21 6.64 4.86 2.65 15.9 2.49 20.65 7.37 5.58-3.14 11.05-1.359 16.23-2.949 11.35-3.48 15.35-18.57 27.29-21.391.79-2.75-1.84-2.1-1.48-4.42 3.14.43 4.88-.54 7.38-.74 1.21-6.659 9.28-6.46 9.59-14.02 3.11.09 3.11 3.28 5.16 4.43 5.53-1.109 11.49-1.79 11.06-8.85 1.19-2.98 5.04-3 2.96-7.38 3.26-1.65 6.49-3.34 10.32-4.42-2.22-5.78 1.71-9.66 0-14.761 2.97-.01-.01 5.92 2.96 5.9 3.98-.93.61-9.22 3.68-11.06 2.52 7.979-1.82 18.43.74 26.55.93-.351 3.13.569 3.59-.25M419.61 447.66c-3.64 3.49-7.92 6.34-10.33 11.06.1 2.601 2.11 3.3 2.22 5.9-1.2 2.24-2.28 4.61-5.17 5.16-2.07-3.45-8.52-2.181-10.33.739 6.87 7.211 4.78 24-1.47 30.24 1.4 3.521 6.61 3.23 6.64 8.12-1.82 1.99-4.09-2.729-5.9-.74-2.72 11.75.96 27.44-2.22 35.41 5.39 1.74 5.14 9.12 5.91 15.49 2.6-.11 3.29-2.12 5.9-2.22-.57 2.779.9 3.529.73 5.899 3.3 1.88 5.64-.43 8.86-.729 3.98 6.33 9.18 11.46 11.8 19.17 5.27 3.34 11.14 6.07 13.27 12.54-.38 2.569-4.43 1.47-3.68 5.17.28 3.16 4.42 2.46 5.16 5.16-2.52.189-3.55 1.859-6.64 1.47-3.931 6.41-10.99 9.67-16.97 14.02-1.35-.859-2.5-1.93-3.68-2.949.31-1.4 1.58-1.851 1.47-3.69-3.74-2.649-5.12-7.66-7.38-11.8-7.14.24-6.08 8.67-7.37 14.75-7.71-7.71-21.99-4.32-29.51 1.479 3.96 4.86 16.25-2.409 21.4 5.16 2.73.521 3.16-1.26 5.9-.739-.43 2.399.5 3.439.74 5.17 7.83 2.08 21.29-3.74 25.07 3.68-2.7 5.66-6.34 10.38-10.32 14.76.14-4.78-2.76-6.5-3.52-10.37a8.88 8.88 0 0 1-.17-1.43c-.99 1.229-3.28 1.14-4.43 2.21 1.27 6.09-.04 11.65-2.95 15.49-2.82.62-5.92.97-9.59.74.83 3.05.53 4.22-1.47 5.899-6.06.58-14.6-1.32-16.97 2.95 2.58 3.07 10.44.87 14.02 2.95.14 3.34-4.33 2.06-4.43 5.16.02 5.39 2.96 7.869 3.69 12.54-3.81 3.569-5.91 8.84-8.11 14.02.42 3.02 3.39 3.48 3.68 6.63-.55 2.9-4.89 1.99-4.42 5.91.94 2.25 4.42 1.97 4.42 5.16-7.93 9.24-1.82 30.689-11.06 39.83.24 7.27-6.78 12.979-2.95 19.18-3 1.42-3.77 5.08-7.38 5.9-2.85-3.44-10.11-6.08-14.01-2.21-4.11-3.521-12.16-3.091-18.44-4.431-1.66 2.021 1 4.46.73 7.38-5.91-.399-6.81 8.33-14.01 8.851-2.88 7.819 10.74 18.83-1.48 22.87-5.24-6.011-17.78-1.601-24.34 0-2.88-4.24-8.01.899-9.59-2.95-1.9 5.55 3.75 1.12 5.9 1.47 1.87.311 1.35 2.22 2.95 2.21 4.76 0 9.56-2.939 14.76-2.95 5.22 0 8.14 3.061 13.27 2.95 7.84-7.33-.6-13.79-.73-22.859 7.87.239 6.06-9.181 14.75-8.12-.21-2.641-2.32-5.99-.74-8.11 4.89 2.49 13.55 1.21 16.97 5.16 4.61-4.51 11.11-.561 14.75 2.22 2.91-2.51 5.79-5.03 8.11-8.12-2.32-5.25 1.29-16.75 5.91-19.91-.25 6.11-.54 12.261.73 18.44 6.07-5.53 5.28-14.93 8.12-23.6 3.67-11.261 13.33-21.08 8.11-31.721-5.48 11.24-7.93 25.511-16.23 33.931 1.26-14.141 2.93-23.99 6.01-35.38.21-.74.42-1.48.63-2.24-.83-1.88-3.7-1.71-4.42-3.69 1.96-1.479 3.68-3.2 5.16-5.17-.28-3.649-4.25-3.61-3.69-8.11 2.55-4.829 5.76-8.989 8.12-14.01-1.59-3.34-4.08-5.77-3.69-11.069 1.23-2.45 5.25-2.12 4.42-6.641-5.43.03-10.1-.71-14.01-2.21 4.35-1.8 12.62.32 16.96-1.479.99-1.721 1.26-4.15 2.22-5.9 1.17.89 6.6-.24 8.85-.729 4.11-3.511.39-14.851 5.9-16.971-1.3 6.7 3.78 7.04 3.69 12.54 4.48-5.6 9.15-11 11.8-18.439-1.67-2.33-4.79-3.13-8.38-3.36-6.4-.41-14.29 1.01-18.17-1.07v-3.68c-9.75 1.13-12.21-5-21.4-4.43-1.01 1.729-3.86 3.189-5.16.739 8.46-5.699 21.37-6.199 29.51 0 1.13-5.279-1.58-13.63 5.16-14.75 2.26 3.641 3.38 8.421 6.64 11.061-.59 1.38-1.24 2.7-1.48 4.42 2.34.45 3.66 1.94 5.22 3.17.22.18.44.36.68.521.86-1.101.92-3.011 2.22-3.69 7.3-1.29 9.85-7.35 14.75-11.06 3.381-1.29 8.04-1.301 8.11-5.9-3.17.229-5.95.05-5.9-2.95.881-2.32 3.45-2.939 3.69-5.899-4.06-8.73-16.54-9.03-16.97-21.391-6.34-.05-4.9-7.89-8.85-10.33-3.36.16-5.45 2.721-8.11 1.48-1.39-1.08-.09-4.83-1.48-5.91-1.94-2-4.35 3.09-6.63.74-.42-3.36 1.3-4.59.73-8.11-1.18-2.75-4.59-3.28-5.16-6.64.41-1.801 2.85-1.57 2.21-4.431-3.69-7.75.45-18.77-.74-28.76 2.26.04 3.85 2.7 5.91.74 1.93-4.37-4.71-5.96-5.91-9.59 2.94-3.67 5.7-9.49 5.91-15.49.2-6.07-2.82-10.16-4.43-14.76 3.75-1.36 7.28-.521 9.59 1.479 4.82-1.689 6.52-8.33 2.95-12.54 3.5-3.71 7.38-7.18 9.72-10.979 1.56-2.53 2.44-5.2 2.08-8.2-1.9 1.538-2.7 4.178-2.21 8.118zM526.56 646.81c6.61-2.239 10.33-7.369 12.54-14.01-.51-.64-1.1-1.2-1.75-1.7-2.819-2.18-6.699-3.29-9.31-5.68-3.3 3.34-4.8 8.48-12.54 7.38-1.45 5.71 6.34 3.63 9.59 6.641 1.6 1.339-.13 6.029 1.47 7.369zM547.25 628.67c-.08-1.51-.43-2.74-1.51-3.25-.62 1.1-2.37 1.07-3.69 1.48-.2 1.409.061 2.359.67 2.96.87.87 2.48 1.01 4.5.72.03-.66.05-1.31.03-1.91zM528.39 649.75c-4.79 2.36-8.659 5.9-15.109 5.18.75 4.99 3.229 14.41 7.38 18.44-.561 4.05-6.48 8.75-1.47 11.8 3.189-4.92 7.14-9.09 7.369-16.97 12.381.09 15.301-9.28 22.87-14.01-1.06-.48-4.68-2.11-2.949-2.95h4.43c0-.431-.04-.84-.101-1.221-.59-3.64-3.729-4.739-6.55-6.159-1.71.989-2.77 2.64-3.68 4.43-5.23-1.23-8.93-.16-12.19 1.46zM434.36 686.65c-3.32 10.939-15.75 12.77-13.28 29.5-.22 1.739-2.56 1.369-2.21 3.689 2.93 2.23 4.01 6.32 5.9 9.59-2.28 1.221-2.97 5.48-.74 7.38 4.75-9.029 11.24-16.31 16.23-25.09-7.55-9.41 4.351-15.989 6.641-24.34 1.84-.37 4.449.03 4.43-2.21-8.521-3.849-12.291 9.491-16.971 1.481zM642.07 685.48c-2.7 1.85-7.7 5.069-11.801 3.689-3.5-1.189-3.31-5.4-6.64-8.12-1.05-.859-4.899-1.88-8.26-3.66-.45-.239-.9-.489-1.32-.76-5.14-3.229-8.89-8.25-16.97-7.38-8.88.96-10.85 9.05-20.65 11.8.53-7.16 3.37-15.7 1.471-22.859l-.391.359c-6.899 6.16-17.3 4.58-21.3-2.3a.21.21 0 0 0-.04-.06c-1.83-3.2-2.29-7.53-.4-12.75-.52-.33-.989-.681-1.42-1.051a10.752 10.752 0 0 1-2.79-3.489c-2.38-4.761-1.189-11.15-.949-19.07 4.25-8.95 13.729-10.64 25.819-14.75 8.17-2.79 12.87-8.71 20.65-10.33 9.38-1.95 17.28.28 26.55.74.13 1.6-2.61.33-3.68.74 6.859.659 13.85 1.39 22.12.729" stroke-width="5"/></g><path fill="none" d="M.25.25h850.394v850.394H.25z"/></svg>