<svg xmlns="http://www.w3.org/2000/svg" width="850.89" height="850.89" viewBox="0 0 850.89 850.89" overflow="visible"><path fill="#a8d7f4" d="M799.37 105.51v108.48H599.11v-.82z"/><path fill="#fbed24" d="M799.37 94.18v11.33L599.11 213.17v.82h-18.68l-.03-3.58z"/><path fill="#ed1e29" d="M799.37 84.54v9.64L580.4 210.41l-.2-21.51 217.59-117v-1.38h1.58z"/><path fill="#fbed24" d="M797.79 70.52v1.38l-217.59 117-.1-11.63L778.02 70.52z"/><path d="M778.02 70.52L580.1 177.27l-.99-106.75h198.91zM629.91 108.6l8.89-8.67-12.29-1.78-5.49-11.14-5.5 11.14-12.289 1.78 8.89 8.67-2.101 12.24 11-5.78 10.99 5.78-2.1-12.24z" fill="#a8d7f4"/><path fill="#fbed24" d="M638.8 99.93l-8.89 8.67 2.1 12.24-10.99-5.78-11 5.78 2.1-12.24-8.89-8.67 12.29-1.78 5.5-11.14 5.49 11.14z"/><path d="M578.18 60.73c-2.25 1.06-4.93 1.67-7.81 1.67-2.76 0-5.33-.56-7.53-1.54-4.149-1.85-6.92-5.18-6.92-8.99 0-5.82 6.47-10.53 14.45-10.53 7.979 0 14.45 4.71 14.45 10.53 0 3.72-2.64 6.99-6.64 8.86z" fill="#c8c8c8"/><path d="M578.18 178.3v135.87h-14.91l-.43-253.31c2.2.98 4.771 1.54 7.53 1.54 2.88 0 5.56-.61 7.81-1.67V178.3z" fill="#c8c8c8"/><path d="M575.47 368.84c-5.63 7.27-13.6 12.21-20.319 18.39v7.74c-15.391 15.59-23.71 38.23-22.271 70.65-2.75 8.85-18.55 18.62-19.35 30.01-.37 5.21 5.83 9.3 7.739 16.45 2.82 10.58-5.72 25.39-5.81 39.68-.04 7.101.4 14.61.97 19.36.681 5.72 5.74 11.26 6.78 17.42 1.06 6.34-.979 13.14 0 18.39 3.06 16.521 19.6 25.181 28.06 32.91 1.721 4.73 1.801 11.101 3.881 15.49-9.931 6.729-27.181 3.57-36.78 9.68-6.28 3.99-4.65 10.67-9.68 16.45-1.03 12.67 2.54 23.22.96 36.78-1.641 14.21-10.841 27.7-9.67 37.75 1.189 10.319 12.329 18.17 30.97 15.479 1.479 7.23.85 16.57.96 25.17-.09 4.23-3.91-1.819-5.8-1.939-18.601 5.069-31.181-10.96-37.75-24.2-12.87-1.64-21.801-7.23-29.03-14.51-22.771 7.5-44.77-.25-52.27-18.391-6.84 1.551-12.12 4.66-19.36 5.811-.74-5.4-3.39-8.87-4.84-13.561-6.17-1.92-8.99 3.54-16.45 4.841-16.37 2.869-38.17-6.19-40.65 8.72-3.05-.83-4.09-3.66-7.74-3.88 8.61-15.29-4.08-31.21-4.84-47.42-.76-15.841 3.89-45.49-3.88-60.011-7.22-1.489-16.56-.859-25.16-.97-.47-4.35.49-7.25.97-10.649-12.66.25-24.54 1.279-35.81 2.909-3.81 7.811-4.59 18.65-7.75 27.101-18.22-4.99-27.42 5.859-41.62 3.87-7.28-1.021-20.03-16.221-23.22-23.23-6.66-14.62-3.38-34.89-18.39-40.649-39.23 1.43-85.35-4.04-110.34 11.609-1.62-7.75 2.09-10.16 5.8-12.58.11-7.64 2.1-13.38 2.91-20.319 3.3-2.5 6.37-5.25 9.68-7.75 15.54 12.46 18.96-10.71 35.81-8.71-.72 4.59 1.09 6.659.97 10.649 14.62 3.66 21.14-6.31 30-13.55 10.33-8.45 19.8-14.43 23.23-30 1.71-7.76-.31-15.34.97-21.3 5.01-23.46 25.13-35.04 42.58-49.36 4.82-26.26 1.89-48.46 7.75-71.62 3.91-15.49 20.05-27.84 17.42-47.43-.53-3.75 5.61-.84 5.81-3.87-1.8-20.83 8.39-29.68 18.39-38.72 19.02-2.24 20.39 13.16 30 20.33 4.85 1.89 5.8-5.09 7.74-2.9 11.39 5.81 30.04 9.18 47.43 5.8 1.3-5.79 2.45-11.74 7.74-13.55 16.09 8.94 31.88-2.86 46.46-6.77 5.19 4.21 19.95 6.66 21.29-2.91 12.27 5.14 29.37-8.61 34.85 5.81 2.971-4.46 5.671-3.3 9.681 0 18.859-21.12 27.09 17.3 43.55 18.39 4.63-.53 5.35-4.97 9.68-5.81 6.3.12 10.36 2.74 15.49 1.94 2.99-.47 6.49-4.88 7.74-4.84 3.96.14 14.21 11.73 17.42 14.52 6.439 5.6 11.29 10.77 17.42 14.52-1.961 15.14-4.911 33.79 9.679 36.78z" fill="#fff5b4"/><g fill="none" stroke="#231f20"><path stroke-width="8" d="M579.11 70.52H799.37v143.47H580.43"/><path d="M562.84 60.86c-4.149-1.85-6.92-5.18-6.92-8.99 0-5.82 6.47-10.53 14.45-10.53 7.979 0 14.45 4.71 14.45 10.53 0 3.72-2.641 6.99-6.641 8.86-2.25 1.06-4.93 1.67-7.81 1.67-2.759 0-5.329-.56-7.529-1.54z" stroke-width="7"/><path stroke-width="7" d="M562.84 60.57v.29l.43 253.31M578.18 60.04v254.13M798.08 85.27l1.29-.73.76-.43M797.79 71.9l-217.59 117-2.02 1.08-.98.53M579.46 210.91l.94-.5L799.37 94.18l.69-.37M599.11 213.17l200.26-107.66.69-.37M577.95 178.42l.23-.12 1.92-1.03L778.02 70.52l1.64-.88M629.91 108.6l2.1 12.24-10.99-5.78-11 5.78 2.1-12.24-8.89-8.67 12.29-1.78 5.5-11.14 5.49 11.14 12.29 1.78z"/><path d="M407.06 737.6c-6.84 1.551-12.12 4.66-19.36 5.811-.74-5.4-3.39-8.87-4.84-13.561-6.17-1.92-8.99 3.54-16.45 4.841-16.37 2.869-38.17-6.19-40.65 8.72-3.05-.83-4.09-3.66-7.74-3.88 8.61-15.29-4.08-31.21-4.84-47.42-.76-15.841 3.89-45.49-3.88-60.011-7.22-1.489-16.56-.859-25.16-.97-.47-4.35.49-7.25.97-10.649-12.66.25-24.54 1.279-35.81 2.909-3.81 7.811-4.59 18.65-7.75 27.101-18.22-4.99-27.42 5.859-41.62 3.87-7.28-1.021-20.03-16.221-23.22-23.23-6.66-14.62-3.38-34.89-18.39-40.649-39.23 1.43-85.35-4.04-110.34 11.609-1.62-7.75 2.09-10.16 5.8-12.58.11-7.64 2.1-13.38 2.91-20.319 3.3-2.5 6.37-5.25 9.68-7.75 15.54 12.46 18.96-10.71 35.81-8.71-.72 4.59 1.09 6.659.97 10.649 14.62 3.66 21.14-6.31 30-13.55 10.33-8.45 19.8-14.43 23.23-30 1.71-7.76-.31-15.34.97-21.3 5.01-23.46 25.13-35.04 42.58-49.36 4.82-26.26 1.89-48.46 7.75-71.62 3.91-15.49 20.05-27.84 17.42-47.43-.53-3.75 5.61-.84 5.81-3.87-1.8-20.83 8.39-29.68 18.39-38.72 19.02-2.24 20.39 13.16 30 20.33 4.85 1.89 5.8-5.09 7.74-2.9 11.39 5.81 30.04 9.18 47.43 5.8 1.3-5.79 2.45-11.74 7.74-13.55 16.09 8.94 31.88-2.86 46.46-6.77 5.19 4.21 19.95 6.66 21.29-2.91 12.27 5.14 29.37-8.61 34.85 5.81 2.971-4.46 5.671-3.3 9.681 0 18.859-21.12 27.09 17.3 43.55 18.39 4.63-.53 5.35-4.97 9.68-5.81 6.3.12 10.36 2.74 15.49 1.94 2.99-.47 6.49-4.88 7.74-4.84 3.96.14 14.21 11.73 17.42 14.52 6.439 5.6 11.29 10.77 17.42 14.52-1.96 15.14-4.91 33.79 9.68 36.78-5.63 7.27-13.6 12.21-20.319 18.39v7.74c-15.391 15.59-23.71 38.23-22.271 70.65-2.75 8.85-18.55 18.62-19.35 30.01-.37 5.21 5.83 9.3 7.739 16.45 2.82 10.58-5.72 25.39-5.81 39.68-.04 7.101.4 14.61.97 19.36.681 5.72 5.74 11.26 6.78 17.42 1.06 6.34-.979 13.14 0 18.39 3.06 16.521 19.6 25.181 28.06 32.91 1.721 4.73 1.801 11.101 3.881 15.49-9.931 6.729-27.181 3.57-36.78 9.68-6.28 3.99-4.65 10.67-9.68 16.45-1.03 12.67 2.54 23.22.96 36.78-1.641 14.21-10.841 27.7-9.67 37.75 1.189 10.319 12.329 18.17 30.97 15.479 1.479 7.23.85 16.57.96 25.17-.09 4.23-3.91-1.819-5.8-1.939-18.601 5.069-31.181-10.96-37.75-24.2-12.87-1.64-21.801-7.23-29.03-14.51-22.771 7.499-44.771-.251-52.271-18.391zM565.79 332.06l40.46-15.81M458.25 286.25l-28-42M228.25 314.25l-52-4M407.06 737.6l-32.81 64.65M532.13 470.95H610M555.15 655.33l73.1 24.92" stroke-width="6.852"/></g><path fill="none" d="M.25.25h850.394v850.394H.25z"/></svg>