<svg xmlns="http://www.w3.org/2000/svg" width="850.394" height="850.394" viewBox="0 0 850.394 850.394" overflow="visible"><path d="M300.514 461.34c-47.826-56.572-34.464-154.853-7.354-190.355 34.762-45.522 93.065-62.085 147.463-62.093 78.189 0 141.584 35.08 141.584 78.354s-63.395 78.346-141.584 78.346c-65.867 0-134.625-30.573-155.743-100.04-21.194-69.721 3.334-164.784 76.015-195.494" fill="none" stroke="#231f20" stroke-width="28" stroke-linecap="round" stroke-linejoin="round"/><path d="M303.55 649.444c-37.113-53.608-24.742-141.584 4.366-183.24 29.317-41.954 83.15-55.484 131.757-55.484 69.869 0 126.514 31.347 126.514 70.015s-56.645 70.006-126.514 70.006c-58.852 0-125.064-26.063-139.159-89.4a161.603 161.603 0 0 1-.958-4.574" fill="none" stroke="#231f20" stroke-width="28" stroke-linecap="round" stroke-linejoin="round"/><path d="M299.66 774.524c-24.976-37.113-15.963-89.666 8.264-121.384 31.057-40.682 83.151-55.484 131.757-55.484 69.87 0 126.515 31.347 126.515 70.015 0 38.667-56.645 70.006-126.515 70.006-58.852 0-125.064-26.063-139.159-89.4-.338-1.515-.66-3.036-.958-4.575" fill="none" stroke="#231f20" stroke-width="28" stroke-linecap="round" stroke-linejoin="round"/><path fill="none" d="M0 0h850.394v850.394H0z"/></svg>