<svg xmlns="http://www.w3.org/2000/svg" width="850.394" height="850.394" viewBox="0 0 850.394 850.394" overflow="visible"><path d="M99.52 734.38l-.52 4.64c-5.25-3.3-10.62-6.699-16.58-9.71 4.26-1.26 8.68-1.52 12.96-2.54 21.82-5.199 42.18-17.869 40.68-42.38-.81-13.229-1.85-19.75 9.17-27.979 10.94-8.13 17.92-8.18 20.56-22.42 2.59-13.96 2.7-14.391 15.47-22.61 7.4-4.75 6.36-3.27 10.73-10.439 3.16-5.171 18.24-30.551 39.18-29.9 28.83.92 29.56 11.26 30.31 21.6-.09 2.71-.35 5.41-.77 8.091-4.78 30.84-29.89 59.84-46.47 79.17-41.92 48.867-80.6 58.197-114.72 54.477z" fill="#f6cc4b"/><path d="M567.77 206.46c30.94 4.15 65.881-11.73 89.11-22.17 59.46-26.7 79.11-61.68 84.93-95.86l3.351-1.62c4.479 16.12 9.33 30.78 3 49.89-3.7 11.18-9.311 18.09-17.54 26.63-2.68 2.78-7.69 5.9-10.4 9.67-.439.25-.899 1.02-1.34 2.41-.01.01-.01.03-.02.05-.19.51-.341 1.03-.42 1.56-1.16 4.96-6.95 15.76-31.23 21.82-24.26 6.08-26.68 24.27-35.19 23.06-8.479-1.21-12.119-7.28-36.38 9.7-35.37 24.76-48.609-14.74-48.56-21.72.78-.08 1.229-.11 1.229-.11-.369-.63-.659-.92-.869-.92l.329-2.39z" fill="#faa41a"/><path d="M333.94 245.25c15.26 24.47 7.09 30.84-1.1 37.2-2.3 1.43-4.69 2.71-7.15 3.86-28.29 13.18-66.35 8.43-91.64 5.4-64.71-7.76-93.9-35.29-109.64-66.17l-3.67.13c-.17-5.2-.39-10.52-1.07-16.03 3.43 2.82 6.1 6.35 9.33 9.34 16.46 15.24 38.3 25.13 57.84 10.25 10.56-8.04 15.39-12.53 28.36-7.94 12.84 4.57 16.76 10.35 30.07 4.62 13.04-5.61 13.46-5.76 27.39.28 8.08 3.51 6.25 3.47 14.64 3.12 6.06-.24 35.55-1.83 46.64 15.94z" fill="#f6cc4b"/><path d="M325.69 286.31l1.04 2.19c-.19.07-.37.43-.54 1.12 0 0 .44-.11 1.21-.27 2.14 6.6 1.29 48.32-39.87 35.23-28.22-8.98-29.89-2.11-37.63 1.58-7.76 3.69-15.5-12.95-40.46-11.51-24.98 1.45-33.73-7.14-36.32-11.53-.24-.48-.53-.94-.86-1.37-.02-.02-.03-.03-.03-.04-.86-1.22-1.54-1.82-2.03-1.92h-.01c-3.72-2.78-9.4-4.25-12.77-6.1-10.41-5.69-17.81-10.62-24.68-20.19-11.58-16.13-11.49-31.37-12-47.83l3.67-.13c15.74 30.88 44.93 58.41 109.64 66.17 25.29 3.03 63.35 7.78 91.64-5.4z" fill="#faa41a"/><path d="M763.54 305.49c-.67 5.5-.9 10.82-1.06 16.01l-3.681-.11c-15.74 30.88-44.939 58.42-109.63 66.17-25.29 3.04-63.36 7.78-91.66-5.39a68.207 68.207 0 0 1-7.149-3.86c-8.181-6.37-16.351-12.74-1.091-37.2 11.101-17.77 40.58-16.19 46.641-15.94 8.38.35 6.56.38 14.64-3.11 13.931-6.06 14.351-5.9 27.391-.29 13.31 5.73 17.229-.06 30.06-4.62 12.98-4.6 17.81-.1 28.36 7.94 19.529 14.87 41.399 5 57.85-10.25 3.219-2.99 5.899-6.52 9.329-9.35zM219.62 713.12c-12.69 21.56-24.69 24.06-29.78 23.76-.49-.07-.99-.08-1.49-.04-.03 0-.06 0-.08.01-1.56.011-2.47.261-2.83.62-4.37 1.55-8.76 5.45-12.17 7.221-10.52 5.479-18.73 8.89-30.5 9.279-18.59.63-30.82-6.84-43.77-14.95l.52-4.64c34.12 3.72 72.8-5.61 114.72-54.479 16.58-19.33 41.69-48.33 46.47-79.17l2.39.399c0 .21.2.55.64 1.021 0 0 .15-.42.45-1.141 6.69 1.891 40.87 25.79 7.1 52.721-23.16 18.46-18.37 23.67-19.6 32.149-1.24 8.5-19.39 5.67-32.07 27.24z" fill="#f6cc4b"/><path d="M758.8 321.39l3.681.11c-.521 16.47-.431 31.71-12.011 47.85-6.87 9.58-14.27 14.5-24.68 20.2-3.37 1.85-9.06 3.32-12.771 6.1-.5.09-1.189.7-2.06 1.96-.02.01-.02.03-.03.04-.33.41-.609.85-.84 1.32-2.6 4.4-11.34 12.98-36.32 11.53-24.96-1.44-32.71 15.21-40.46 11.52s-9.409-10.57-37.63-1.58c-41.17 13.09-42.01-28.63-39.87-35.24.771.16 1.21.27 1.21.27-.17-.68-.35-1.04-.539-1.12l1.029-2.18c28.3 13.17 66.37 8.43 91.66 5.39 64.691-7.75 93.891-35.29 109.631-66.17zM745.16 86.81l-3.351 1.62c-5.819 34.18-25.47 69.16-84.93 95.86-23.229 10.44-58.17 26.32-89.11 22.17-2.68-.35-5.329-.86-7.939-1.54-9.72-3.65-19.41-7.28-12.14-35.19 5.279-20.27 33.909-27.56 39.76-29.13 8.109-2.16 6.38-1.58 13.05-7.33 11.5-9.92 11.94-9.91 26.05-8.44 14.42 1.5 16.42-5.19 27.34-13.37 11-8.25 16.96-5.41 29.42-.88 23.091 8.37 41-7.57 52.15-27.03 2.2-3.82 3.7-7.99 6.12-11.7.96 5.22 2.25 10.16 3.58 14.96z" fill="#f6cc4b"/><path d="M266.7 348.86c.84-5.82 1-12.91 7.12-12.15-2.48 1.54-3.05 8.86-6.54 11.7-.19.15-.38.3-.58.45z" fill="#9c5c25"/><path d="M720.22 173c1.431-.86 2.53 4.02 1.41 10.98-1.93-1.6-3.979-1.87-3.189-6.96.14-.59.279-1.11.42-1.56.01-.02.01-.04.02-.05.319-.83.779-1.63 1.339-2.41z" fill="#231f20"/><path d="M720.22 173c-.56.78-1.02 1.58-1.34 2.41.44-1.39.9-2.16 1.34-2.41zM713.02 395.65c1.58-.29 1.16 4.67-1.97 10.93-1.359-2.11-3.25-2.98-.96-7.61.29-.5.57-.94.84-1.32.011-.01.011-.03.03-.04.57-.73 1.27-1.38 2.06-1.96z" fill="#231f20"/><path d="M713.02 395.65c-.789.58-1.489 1.23-2.06 1.96.87-1.26 1.56-1.87 2.06-1.96zM705.74 211.03a44.526 44.526 0 0 1-7.61 4.8c-3.86 1.94-7.17 3.79-9.99 5.54-2.189 1.36-4.1 2.66-5.779 3.92 2.04-3.52 4.04-7.01 7.01-9.46 6.46-5.29 5.17-2.13 13.09-3.92 1.099-.25 2.189-.54 3.279-.88zM670.76 427.36c7.73-3.13 5.57-.49 13.65.159 1.12.091 2.27.141 3.41.15-2.66 1.01-5.54 1.8-8.681 2.311-4.29.689-7.979 1.47-11.21 2.289a78.065 78.065 0 0 0-6.66 2.011c2.981-2.75 5.931-5.48 9.491-6.92zM669.37 240.04c-1.7 2.91-3.18 5.32-6.42 7.34-4.84 3.04-12.47 9.78-16.98 6.07-1.25-1.02-2.25-2.84-3.22-4.87 8.97 3.14 18.79-2.23 26.62-8.54zM644.41 444.53c-2.48 2.25-4.62 4.1-8.28 5.06-5.53 1.46-14.83 5.62-18.01.73-.88-1.351-1.3-3.391-1.62-5.62 7.6 5.68 18.56 3.5 27.91-.17z" fill="#231f20"/><path d="M614.1 246.47c2.65-3.94 13.4-8.6 18.25-7.36-5.449 2.47-3.359 17.4-8.229 21.62-9.01 7.81-24.69 5.39-35.17 6.06-7.4.48-18.94 9.08-24.28 7.28-8.82-2.96-16.67-17.73-20.62-24.27-5.8-9.63-4.74-19.2-2.43-27.9.729-2.71 2.82-4.83 5.55-6.49 2.521-.33 5.11-.57 7.771-.72-9.302 22.58 41.288 58.14 59.158 31.78z" fill="#9c5c25"/><path d="M589.77 434.15c3.711-2.95 15.36-4.2 19.62-1.57-5.93.729-8.39 15.6-14.3 18.18-10.92 4.75-25.17-2.229-35.38-4.71-7.2-1.729-20.78 3.03-25.34-.28-7.54-5.449-10.64-21.899-12.45-29.299-2.66-10.94 1.21-19.75 5.99-27.37 1.51-2.38 4.16-3.78 7.26-4.54 2.5.43 5.04.98 7.61 1.62-15.63 18.749 22.09 67.829 46.99 47.969z" fill="#faa41a"/><path d="M567.44 208.85c.21 0 .5.29.869.92 0 0-.449.03-1.229.11 0-.66.13-1.03.36-1.03zM556.48 384.35c.189.08.369.44.539 1.12 0 0-.439-.11-1.21-.27.211-.64.441-.95.671-.85z" fill="#231f20"/><path d="M547.17 215.41c6.46-3.92 16.45-5.2 19.91-5.53-.05 6.98 13.189 46.48 48.56 21.72 24.261-16.98 27.9-10.91 36.38-9.7 8.511 1.21 10.931-16.98 35.19-23.06 24.28-6.06 30.07-16.86 31.23-21.82-.79 5.09 1.26 5.36 3.189 6.96-.8 4.96-2.72 10.98-6.45 16.75a41.925 41.925 0 0 1-9.439 10.3c-1.09.34-2.181.63-3.28.88-7.92 1.79-6.63-1.37-13.09 3.92-2.97 2.45-4.97 5.94-7.01 9.46-7.98 5.97-10.681 10.81-12.99 14.75-7.83 6.31-17.65 11.68-26.62 8.54-2.54-5.31-4.8-12.03-10.4-9.47-4.85-1.24-15.6 3.42-18.25 7.36-17.869 26.36-68.46-9.2-59.159-31.78-2.661.15-5.251.39-7.771.72z" fill="#9c5c25"/><path d="M535.17 384.56c7.34-1.81 17.24-.06 20.64.64-2.14 6.61-1.3 48.33 39.87 35.24 28.221-8.99 29.88-2.11 37.63 1.58s15.5-12.96 40.46-11.52c24.98 1.45 33.721-7.13 36.32-11.53-2.29 4.63-.399 5.5.96 7.61-2.24 4.5-5.87 9.67-11.149 14.06a41.911 41.911 0 0 1-12.08 7.03 48.05 48.05 0 0 1-3.41-.15c-8.08-.649-5.92-3.29-13.65-.159-3.56 1.439-6.51 4.17-9.49 6.92-9.449 3.33-13.47 7.17-16.859 10.25-9.351 3.67-20.311 5.85-27.91.17-.83-5.82-1-12.891-7.11-12.12-4.26-2.63-15.909-1.38-19.62 1.57-24.899 19.859-62.619-29.22-46.989-47.97a105.662 105.662 0 0 0-7.613-1.621z" fill="#faa41a"/><path d="M355.29 293.24c4.8 7.63 8.66 16.43 6 27.36-1.82 7.42-4.91 23.86-12.46 29.31-4.56 3.31-18.12-1.46-25.33.29-10.21 2.48-24.47 9.47-35.4 4.71-5.89-2.59-8.35-17.45-14.28-18.2 4.25-2.61 15.91-1.37 19.62 1.58 24.9 19.86 62.6-29.19 46.98-47.97 2.58-.64 5.11-1.18 7.61-1.62 3.11.76 5.76 2.16 7.26 4.54z" fill="#9c5c25"/><path d="M340.42 290.32c15.62 18.78-22.08 67.83-46.98 47.97-3.71-2.95-15.37-4.19-19.62-1.58-6.12-.76-6.28 6.33-7.12 12.15-7.6 5.66-18.54 3.49-27.89-.17-3.39-3.09-7.41-6.93-16.87-10.27-2.98-2.74-5.93-5.47-9.49-6.91-7.74-3.14-5.57-.5-13.66.16-1.12.09-2.25.14-3.4.15a42.132 42.132 0 0 1-12.08-7.04c-5.28-4.38-8.91-9.54-11.15-14.04 1.35-2.12 3.25-2.98.96-7.62 2.59 4.39 11.34 12.98 36.32 11.53 24.96-1.44 32.7 15.2 40.46 11.51 7.74-3.69 9.41-10.56 37.63-1.58 41.16 13.09 42.01-28.63 39.87-35.23 3.41-.71 13.29-2.46 20.63-.65-2.5.44-5.03.98-7.61 1.62z" fill="#9c5c25"/><path d="M326.73 288.5c.23-.1.46.21.67.85-.77.16-1.21.27-1.21.27.17-.69.35-1.05.54-1.12z" fill="#231f20"/><path d="M272.18 590.74c24.32-2.681 44.17 56.029 13.81 65.7-4.53 1.439-12.05 10.43-12.23 15.43-4.04 4.649 1.76 8.72 6.13 12.66.5 9.489-7.43 17.39-15.7 23.109-4.44 1.101-9.86 2.32-17.86 8.301-3.94.949-7.85 1.88-11.03 4.04-6.91 4.699-3.5 4.35-7.46 11.46-.54.96-1.11 1.92-1.73 2.85a41.685 41.685 0 0 1-12.6 6.18c-6.59 1.95-12.91 2.09-17.88 1.45-.99-2.31-.67-4.36-5.79-5.04 5.09.3 17.09-2.2 29.78-23.76 12.68-21.57 30.83-18.74 32.07-27.24 1.23-8.479-3.56-13.689 19.6-32.149 33.77-26.931-.41-50.83-7.1-52.721.8-1.99 2.66-6.27 5.28-10.46l2.71.19z" fill="#faa41a"/><path d="M283.66 689c2.29 5.37-6.34 10.78-10.62 14.57-2.85 2.52-5.58 3.26-8.85 4.069 8.27-5.72 16.2-13.62 15.7-23.109 1.68 1.5 3.14 2.98 3.77 4.47z" fill="#231f20"/><path d="M269.47 590.55c3.4-5.43 8.1-10.7 13.45-10.56 9.02.24 18.49 1.93 26.09 10.22 5.15 5.64 17.09 17.36 17.44 26.65.21 5.63-11.3 14.25-13.86 21.22-3.61 9.86-5.73 25.59-15.77 32.03-5.42 3.46-19.15-2.74-23.06 1.76.18-5 7.7-13.99 12.23-15.43 30.36-9.671 10.51-68.381-13.81-65.7l-2.71-.19z" fill="#faa41a"/><path d="M266.7 348.86c-.32 2.22-.73 4.25-1.61 5.6-3.19 4.89-12.49.73-18.02-.72-3.65-.96-5.79-2.81-8.26-5.05 9.35 3.66 20.29 5.83 27.89.17zM264.19 601.01c-.3.721-.45 1.141-.45 1.141-.44-.471-.64-.811-.64-1.021 0-.29.4-.33 1.09-.12zM240.97 720.35c-2.49 2.24-5.2 4.881-8.15 8.04a44.16 44.16 0 0 1-6.71 5.9c.62-.93 1.19-1.89 1.73-2.85 3.96-7.11.55-6.761 7.46-11.46 3.18-2.16 7.09-3.091 11.03-4.04a79.04 79.04 0 0 0-5.36 4.41zM212.45 331.51c3.56 1.44 6.51 4.17 9.49 6.91-1.97-.69-4.17-1.36-6.65-2-3.24-.83-6.94-1.6-11.22-2.3-3.13-.51-6.02-1.3-8.68-2.3 1.15-.01 2.28-.06 3.4-.15 8.09-.66 5.92-3.3 13.66-.16zM188.35 736.84c.44 0 .94.01 1.49.04 5.12.68 4.8 2.73 5.79 5.04-6.94-.89-11.29-3.29-10.19-4.45.95-.34 1.89-.56 2.83-.62.02-.01.05-.01.08-.01z" fill="#231f20"/><path d="M185.44 737.47c.36-.359 1.27-.609 2.83-.62-.94.06-1.88.28-2.83.62zM173.12 303.12c2.29 4.64.39 5.5-.96 7.62-3.13-6.27-3.55-11.23-1.97-10.95h.01c.77.58 1.46 1.22 2.03 1.92 0 .01.01.02.03.04.26.39.55.85.86 1.37z" fill="#231f20"/><path d="M170.2 299.79c.49.1 1.17.7 2.03 1.92-.57-.7-1.26-1.34-2.03-1.92z" fill="#231f20"/><g fill="none" stroke="#231f20" stroke-linecap="round" stroke-linejoin="round"><path d="M454.83 230.08c4.75 22.47 9.1 43.85 10.38 66.21 1.17 20.21-.18 41.23-6.04 64.56-14.42 57.43-49.61 108.15-58.22 166.44-1.56 10.54-2.52 21.29-2.9 32.13-1.31 37.74 4.46 76.57 16.65 111.45 11.27 32.27 33.609 86.33 54.12 106.83" stroke-width="42"/><path d="M240.71 496.12c46.22 17.189 127.33 18.13 157.34 63.3 1 1.5 1.94 3.04 2.82 4.64M439.69 731.5c-4.16-120.03 154.85-101.24 223.26-167.44" stroke-width="35"/><path d="M642.75 248.58c-.23-.08-.46-.17-.69-.26-4.17-1.67-6.899-8.5-9.71-9.21M682.36 225.29c-1.74 3.03-3.53 6.06-5.98 8.47-2.05 2.01-4.42 4.2-7.01 6.28M721.63 183.98c.89.75 1.75 1.77 2.29 3.68 3.35 11.82-6.92 19.93-18.18 23.37M718.86 175.46c-.19.51-.341 1.03-.42 1.56M559.83 204.92c-9.72-3.65-19.41-7.28-12.14-35.19 5.279-20.27 33.909-27.56 39.76-29.13 8.109-2.16 6.38-1.58 13.05-7.33 11.5-9.92 11.94-9.91 26.05-8.44 14.42 1.5 16.42-5.19 27.34-13.37 11-8.25 16.96-5.41 29.42-.88 23.091 8.37 41-7.57 52.15-27.03 2.2-3.82 3.7-7.99 6.12-11.7.96 5.22 2.25 10.16 3.58 14.96 4.479 16.12 9.33 30.78 3 49.89-3.7 11.18-9.311 18.09-17.54 26.63-2.68 2.78-7.69 5.9-10.4 9.67" stroke-width="21"/><path d="M567.08 209.88c.78-.08 1.229-.11 1.229-.11-.369-.63-.659-.92-.869-.92-.23 0-.36.37-.36 1.03-.05 6.98 13.189 46.48 48.56 21.72 24.261-16.98 27.9-10.91 36.38-9.7 8.511 1.21 10.931-16.98 35.19-23.06 24.28-6.06 30.07-16.86 31.23-21.82.14-.59.279-1.11.42-1.56.01-.02.01-.04.02-.05.44-1.39.9-2.16 1.34-2.41 1.431-.86 2.53 4.02 1.41 10.98-.8 4.96-2.72 10.98-6.45 16.75a41.925 41.925 0 0 1-9.439 10.3 44.526 44.526 0 0 1-7.61 4.8c-3.86 1.94-7.17 3.79-9.99 5.54-2.189 1.36-4.1 2.66-5.779 3.92-7.98 5.97-10.681 10.81-12.99 14.75-1.7 2.91-3.18 5.32-6.42 7.34-4.84 3.04-12.47 9.78-16.98 6.07-1.25-1.02-2.25-2.84-3.22-4.87-2.54-5.31-4.8-12.03-10.4-9.47-5.449 2.47-3.359 17.4-8.229 21.62-9.01 7.81-24.69 5.39-35.17 6.06-7.4.48-18.94 9.08-24.28 7.28-8.82-2.96-16.67-17.73-20.62-24.27-5.8-9.63-4.74-19.2-2.43-27.9.729-2.71 2.82-4.83 5.55-6.49 6.457-3.92 16.447-5.2 19.907-5.53z" stroke-width="8.682"/><path d="M556.18 214.62c-.41.02-.83.04-1.239.07-2.66.15-5.25.39-7.771.72-45.27 5.82-69.66 38.54-81.96 80.88-.42 1.48-.84 2.98-1.24 4.48" stroke-width="35"/><path d="M559.83 204.92c2.61.68 5.26 1.19 7.939 1.54 30.94 4.15 65.881-11.73 89.11-22.17 59.46-26.7 79.11-61.68 84.93-95.86M616.5 444.7c-.2-.141-.38-.29-.57-.44-3.489-2.84-4.069-10.17-6.54-11.68M661.27 434.28c-2.579 2.38-5.189 4.76-8.239 6.319-2.57 1.32-5.511 2.71-8.62 3.931M711.05 406.58c.63.97 1.15 2.21 1.101 4.19-.351 12.28-12.561 16.96-24.33 16.9M710.93 397.65c-.33.41-.609.85-.84 1.32M550.36 378.31c-8.181-6.37-16.351-12.74-1.091-37.2 11.101-17.77 40.58-16.19 46.641-15.94 8.38.35 6.56.38 14.64-3.11 13.931-6.06 14.351-5.9 27.391-.29 13.31 5.73 17.229-.06 30.06-4.62 12.98-4.6 17.81-.1 28.36 7.94 19.529 14.87 41.399 5 57.85-10.25 3.22-2.99 5.9-6.52 9.33-9.35-.67 5.5-.9 10.82-1.06 16.01-.521 16.47-.431 31.71-12.011 47.85-6.87 9.58-14.27 14.5-24.68 20.2-3.37 1.85-9.06 3.32-12.771 6.1" stroke-width="21"/><path d="M555.81 385.2c.771.16 1.21.27 1.21.27-.17-.68-.35-1.04-.539-1.12-.231-.1-.461.21-.671.85-2.14 6.61-1.3 48.33 39.87 35.24 28.221-8.99 29.88-2.11 37.63 1.58s15.5-12.96 40.46-11.52c24.98 1.45 33.721-7.13 36.32-11.53.29-.5.57-.94.84-1.32.011-.01.011-.03.03-.04.87-1.26 1.56-1.87 2.06-1.96 1.58-.29 1.16 4.67-1.97 10.93-2.24 4.5-5.87 9.67-11.149 14.06a41.911 41.911 0 0 1-12.08 7.03c-2.66 1.01-5.54 1.8-8.681 2.311-4.29.689-7.979 1.47-11.21 2.289a78.065 78.065 0 0 0-6.66 2.011c-9.449 3.33-13.47 7.17-16.859 10.25-2.48 2.25-4.62 4.1-8.28 5.06-5.53 1.46-14.83 5.62-18.01.73-.88-1.351-1.3-3.391-1.62-5.62-.83-5.82-1-12.891-7.11-12.12-5.93.729-8.39 15.6-14.3 18.18-10.92 4.75-25.17-2.229-35.38-4.71-7.2-1.729-20.78 3.03-25.34-.28-7.54-5.449-10.64-21.899-12.45-29.299-2.66-10.94 1.21-19.75 5.99-27.37 1.51-2.38 4.16-3.78 7.26-4.54 7.339-1.812 17.239-.062 20.639.638z" stroke-width="8.682"/><path d="M543.99 386.49c-.4-.11-.811-.21-1.21-.31-2.57-.64-5.11-1.19-7.61-1.62-46.53-8.24-80.27 17.73-104.89 56.66" stroke-width="35"/><path d="M550.36 378.31c2.3 1.43 4.689 2.71 7.149 3.86 28.3 13.17 66.37 8.43 91.66 5.39 64.69-7.75 93.89-35.29 109.63-66.17M266.7 348.86c.2-.15.39-.3.58-.45 3.49-2.84 4.06-10.16 6.54-11.7M221.94 338.42c2.57 2.38 5.18 4.76 8.23 6.33 2.58 1.32 5.52 2.71 8.64 3.94M172.16 310.74c-.63.97-1.14 2.2-1.09 4.17.34 12.28 12.56 16.96 24.32 16.91M172.26 301.75c.33.43.62.89.86 1.37M332.84 282.45c8.19-6.36 16.36-12.73 1.1-37.2-11.09-17.77-40.58-16.18-46.64-15.94-8.39.35-6.56.39-14.64-3.12-13.93-6.04-14.35-5.89-27.39-.28-13.31 5.73-17.23-.05-30.07-4.62-12.97-4.59-17.8-.1-28.36 7.94-19.54 14.88-41.38 4.99-57.84-10.25-3.23-2.99-5.9-6.52-9.33-9.34.68 5.51.9 10.83 1.07 16.03.51 16.46.42 31.7 12 47.83 6.87 9.57 14.27 14.5 24.68 20.19 3.37 1.85 9.05 3.32 12.77 6.1" stroke-width="21"/><path d="M327.4 289.35c-.77.16-1.21.27-1.21.27.17-.69.35-1.05.54-1.12.23-.1.46.21.67.85 2.14 6.6 1.29 48.32-39.87 35.23-28.22-8.98-29.89-2.11-37.63 1.58-7.76 3.69-15.5-12.95-40.46-11.51-24.98 1.45-33.73-7.14-36.32-11.53-.31-.52-.6-.98-.86-1.37-.02-.02-.03-.03-.03-.04-.86-1.22-1.54-1.82-2.03-1.92h-.01c-1.58-.28-1.16 4.68 1.97 10.95 2.24 4.5 5.87 9.66 11.15 14.04 3.34 2.78 7.35 5.25 12.08 7.04 2.66 1 5.55 1.79 8.68 2.3 4.28.7 7.98 1.47 11.22 2.3 2.48.64 4.68 1.31 6.65 2 9.46 3.34 13.48 7.18 16.87 10.27 2.47 2.24 4.61 4.09 8.26 5.05 5.53 1.45 14.83 5.61 18.02.72.88-1.35 1.29-3.38 1.61-5.6.84-5.82 1-12.91 7.12-12.15 5.93.75 8.39 15.61 14.28 18.2 10.93 4.76 25.19-2.23 35.4-4.71 7.21-1.75 20.77 3.02 25.33-.29 7.55-5.45 10.64-21.89 12.46-29.31 2.66-10.93-1.2-19.73-6-27.36-1.5-2.38-4.15-3.78-7.26-4.54-7.34-1.81-17.22-.06-20.63.65z" stroke-width="8.682"/><path d="M339.22 290.63c.4-.1.8-.21 1.2-.31 2.58-.64 5.11-1.18 7.61-1.62 46.53-8.24 80.291 17.73 104.9 56.67" stroke-width="35"/><path d="M332.84 282.45c-2.3 1.43-4.69 2.71-7.15 3.86-28.29 13.18-66.35 8.43-91.64 5.4-64.71-7.76-93.9-35.29-109.64-66.17M279.89 684.53c-.01-.24-.03-.48-.05-.721-.41-4.47-6.19-9.029-6.08-11.939M246.33 715.94c3.4-.83 6.84-1.671 9.84-3.341 2.51-1.399 5.29-3.06 8.02-4.96M195.63 741.92c.46 1.061 1.2 2.18 2.88 3.24 10.41 6.55 21.12-1.05 27.6-10.87M188.35 736.84c.5-.04 1-.03 1.49.04M261.48 592.64c-.75-10.34-1.48-20.68-30.31-21.6-20.94-.65-36.02 24.729-39.18 29.9-4.37 7.17-3.33 5.689-10.73 10.439-12.77 8.22-12.88 8.65-15.47 22.61-2.64 14.24-9.62 14.29-20.56 22.42-11.02 8.229-9.98 14.75-9.17 27.979 1.5 24.511-18.86 37.181-40.68 42.38-4.28 1.021-8.7 1.28-12.96 2.54 5.96 3.011 11.33 6.41 16.58 9.71 12.95 8.11 25.18 15.58 43.77 14.95 11.77-.39 19.98-3.8 30.5-9.279 3.41-1.771 7.8-5.671 12.17-7.221" stroke-width="21"/><path d="M264.19 601.01c-.3.721-.45 1.141-.45 1.141-.44-.471-.64-.811-.64-1.021 0-.29.4-.33 1.09-.12 6.69 1.891 40.87 25.79 7.1 52.721-23.16 18.46-18.37 23.67-19.6 32.149-1.24 8.5-19.39 5.67-32.07 27.24-12.69 21.56-24.69 24.06-29.78 23.76-.55-.03-1.05-.04-1.49-.04-.03 0-.06 0-.08.01-1.56.011-2.47.261-2.83.62-1.1 1.16 3.25 3.561 10.19 4.45 4.97.64 11.29.5 17.88-1.45a41.661 41.661 0 0 0 12.6-6.18 44.27 44.27 0 0 0 6.71-5.9c2.95-3.159 5.66-5.8 8.15-8.04a79.004 79.004 0 0 1 5.36-4.409c8-5.98 13.42-7.2 17.86-8.301 3.27-.81 6-1.55 8.85-4.069 4.28-3.79 12.91-9.2 10.62-14.57-.63-1.49-2.09-2.97-3.77-4.47-4.37-3.94-10.17-8.011-6.13-12.66 3.91-4.5 17.64 1.7 23.06-1.76 10.04-6.44 12.16-22.17 15.77-32.03 2.56-6.97 14.07-15.59 13.86-21.22-.35-9.29-12.29-21.011-17.44-26.65-7.6-8.29-17.07-9.979-26.09-10.22-5.35-.141-10.05 5.13-13.45 10.56-2.62 4.189-4.48 8.469-5.28 10.459z" stroke-width="8.682"/><path d="M261.48 592.64c-.09 2.71-.35 5.41-.77 8.091-4.78 30.84-29.89 59.84-46.47 79.17-41.92 48.869-80.6 58.199-114.72 54.479-.42-.04-.83-.09-1.25-.14" stroke-width="21"/></g><path fill="none" d="M0 0h850.394v850.394H0z"/></svg>