<svg xmlns="http://www.w3.org/2000/svg" width="850.394" height="850.394" viewBox="0 0 850.394 850.394" overflow="visible"><path d="M396.77 376.53c-12.52-23.3-34.23-38.28-36.9-40.06 2.56-1.71 5.01-4.47 7.46-7.63l5.88-10.11.07.02s20.75 19.25 48.09 26.24c37.13 9.48 24.46 45.07 24.46 45.07s-31.52 19.12-49.06-13.53z" fill="#fbed24"/><path d="M139.74 152.43c-17.09 21.91-34.75 36.73-39.53 33.21l-.05-.04h-.01c-4.71-3.67 5.36-24.48 22.52-46.48 17.15-22 34.87-36.84 39.58-33.16 4.72 3.67-5.36 24.47-22.51 46.47zM369.39 308.64c2.99 2.33 4.2 4.82 4.2 7.45l-.38 2.64-5.88 10.11c-2.45 3.16-4.9 5.92-7.46 7.63h-.01c-3.53 2.34-7.28 2.68-11.61-.7l-88.97-69.38-2.96-.46c3.75-4.09 7.63-8.66 11.48-13.6 3.58-4.58 6.84-9.11 9.73-13.45l2.91.38 88.95 69.38z" fill="#ef947d"/><path d="M228.46 285.66L100.21 185.64c4.78 3.52 22.44-11.3 39.53-33.21 17.15-22 27.23-42.8 22.51-46.47l128.01 99.81.06.08c3.73 2.91-1.81 16.56-12.79 33.03-2.89 4.34-6.15 8.87-9.73 13.45-3.85 4.94-7.73 9.51-11.48 13.6-12.68 13.82-23.94 22.05-27.86 19.73z" fill="#ef947d"/><path d="M769.49 442.81L768 444l-27.02 123.7c-3.211-3.88-6.54-7.66-9.99-11.311-16.271-17.239-35.2-31.76-56.38-40.92-16.17-7-33.65-10.88-52.25-10.479-21.79.5-44.021 7.79-62.851 19.87-15.6 10.01-28.87 23.3-37.609 38.729-3.32 5.88-7.28 10.67-7.761 14.84L510 578l-12-16-5.06-3.2c2.069 0 4.239-.62 6.43-2.03 9.84-6.319 5.17-18.369-.061-25.079-4.89-6.28-5.979-11.4.03-22.221l-.899-.71c-5.36 3.46-9.761 7.33-13.061 11.79L484 520l-9.55-51.56c49.68-76.84 158.319-90.88 226.66-68.63 33.38 10.87 57.16 32.06 68.38 43z" fill="#ffeec8"/><path d="M730.99 556.39l-1.681.67c-22.54 20.891-48.56 39.49-78.609 50.181-18.181 6.5-43.21 7.63-62.22 3.72-8.11-1.67-18.04-3.65-25.48-7.09-6.25-2.89-11.64-9.62-17.48-12.41-8.76-4.03-18.579-.43-26.739-5.51-3.79-2.33-4.96-4.8-4.641-7.521.48-4.17 4.44-8.96 7.761-14.84 8.739-15.43 22.01-28.72 37.609-38.729l4.49 3.64c-3.53 7.06-1.29 6.3-1.29 14.67 0 30.13 25.58 54.59 57.17 54.59 31.62 0 57.22-24.46 57.22-54.59 0-11.31 1.07-14.229-5.1-22.96l2.61-4.74c21.18 9.159 40.11 23.679 56.38 40.919z" fill="#fff"/><path d="M672 520.21c6.17 8.73 5.1 11.65 5.1 22.96 0 30.13-25.6 54.59-57.22 54.59-31.59 0-57.17-24.46-57.17-54.59 0-8.37-2.24-7.61 1.29-14.67l-4.49-3.64c18.83-12.08 41.061-19.37 62.851-19.87 18.6-.4 36.08 3.479 52.25 10.479L672 520.21zm-16.71 25.01c0-16.899-15.59-30.609-34.89-30.609-19.221 0-34.75 13.71-34.75 30.609 0 16.96 15.529 30.66 34.75 30.66 19.3 0 34.89-13.7 34.89-30.66z" fill="#abd150"/><path d="M620.4 514.61c19.3 0 34.89 13.71 34.89 30.609 0 16.96-15.59 30.66-34.89 30.66-19.221 0-34.75-13.7-34.75-30.66 0-16.899 15.53-30.609 34.75-30.609zm12.54 30.61c0-7.51-5.57-13.569-12.5-13.569-6.91 0-12.48 6.06-12.48 13.569 0 7.55 5.57 13.66 12.48 13.66 6.93 0 12.5-6.11 12.5-13.66z" fill="#231f20"/><path d="M620.44 531.65c6.93 0 12.5 6.06 12.5 13.569 0 7.55-5.57 13.66-12.5 13.66-6.91 0-12.48-6.11-12.48-13.66 0-7.509 5.57-13.569 12.48-13.569z" fill="#231f20"/><path d="M499.31 531.69c5.23 6.71 9.9 18.76.061 25.079-2.19 1.41-4.36 2.03-6.43 2.03-8.04 0-14.53-9.319-14.36-17.649.17-8.12 2.56-14.86 6.8-20.601 3.3-4.46 7.7-8.33 13.061-11.79l.899.71c-6.011 10.821-4.921 15.941-.031 22.221z" fill="#fbed24"/><g fill="none" stroke="#231f20"><path d="M100.21 185.64c4.78 3.52 22.44-11.3 39.53-33.21 17.15-22 27.23-42.8 22.51-46.47-4.71-3.68-22.43 11.16-39.58 33.16-17.16 22-27.23 42.81-22.52 46.48h.01" stroke-width="14"/><path d="M100.16 185.6l.05.04S228.46 285.66 228.2 285.5c.08.07.17.12.26.16 3.92 2.32 15.18-5.91 27.86-19.73 3.75-4.09 7.63-8.66 11.48-13.6 3.58-4.58 6.84-9.11 9.73-13.45 10.98-16.47 16.52-30.12 12.79-33.03l-.06-.08-128.01-99.81M359.87 336.47c2.56-1.71 5.01-4.47 7.46-7.63l5.88-10.11.38-2.64c0-2.63-1.21-5.12-4.2-7.45l-88.95-69.38M259.28 266.39l88.97 69.38c4.33 3.38 8.08 3.04 11.61.7" stroke-width="14"/><path d="M359.6 336.29s.09.06.26.18h.01c2.67 1.78 24.38 16.76 36.9 40.06 17.54 32.65 49.06 13.53 49.06 13.53s12.67-35.59-24.46-45.07c-27.34-6.99-48.09-26.24-48.09-26.24" stroke-width="14"/><path d="M471.77 472.73c.87-1.45 1.761-2.881 2.681-4.29 49.68-76.84 158.319-90.88 226.66-68.63 33.38 10.87 57.159 32.06 68.38 43 1.16 1.141 2.189 2.16 3.08 3.051" stroke-width="21"/><path d="M740.98 567.7c-3.211-3.88-6.54-7.66-9.99-11.311-16.271-17.239-35.2-31.76-56.38-40.92-16.17-7-33.65-10.88-52.25-10.479-21.79.5-44.021 7.79-62.851 19.87-15.6 10.01-28.87 23.3-37.609 38.729-3.32 5.88-7.28 10.67-7.761 14.84-.319 2.721.851 5.19 4.641 7.521 8.16 5.08 17.979 1.479 26.739 5.51 5.841 2.79 11.23 9.521 17.48 12.41 7.44 3.439 17.37 5.42 25.48 7.09 19.01 3.91 44.039 2.78 62.22-3.72 30.05-10.69 56.069-29.29 78.609-50.181" stroke-width="14" stroke-linecap="square" stroke-miterlimit="10"/><path d="M564 528.5c-3.53 7.06-1.29 6.3-1.29 14.67 0 30.13 25.58 54.59 57.17 54.59 31.62 0 57.22-24.46 57.22-54.59 0-11.31 1.07-14.229-5.1-22.96" stroke-width="13" stroke-linecap="square" stroke-miterlimit="10"/><path d="M492.94 558.8c2.069 0 4.239-.62 6.43-2.03 9.84-6.319 5.17-18.369-.061-25.079-4.89-6.28-5.979-11.4.03-22.221l-.899-.71c-5.36 3.46-9.761 7.33-13.061 11.79-4.24 5.74-6.63 12.48-6.8 20.601-.169 8.329 6.321 17.649 14.361 17.649z" stroke-width="7"/></g><path fill="none" d="M0 0h850.394v850.394H0z"/><path d="M460.44 404.76c-12.23 7.9-19.561 17.95-19.86 32.391-.22 10.479 10.1 22.51 20.79 15.619 9.84-6.319 5.17-18.369-.061-25.079-4.89-6.28-5.979-11.4.03-22.221l-.899-.71z" fill="#fbed24" stroke="#000" stroke-width="7" stroke-linecap="round" stroke-linejoin="round"/></svg>