<svg id="Layer_1" xmlns="http://www.w3.org/2000/svg" viewBox="0 0 850 850"><style>.st0{fill:#ffeec8}.st1{fill:#a9d7f3}.st2{fill:#7a7878}.st3{fill:none;stroke:#231f20;stroke-width:14;stroke-linecap:round;stroke-miterlimit:10}</style><path class="st0" d="M279.3 599.3V597l.5-2.2 1-2 1-2 1.2-1.5 1.8-1.5 1.7-1.5 2-1 2.3-1.3 2.5-.7 2.5-.8 2.5-.7 5.5-1 5.5-.5 5.7-.3h10.5l4.5.3 7 .7 2.5.3 2.5-1.3 3-1.7 7.8-5 7.5-5.3 5.7-3.7 4-2.5 4.3-3.5 4.7-4 5.3-4.8 5.2-5.2 5.5-5.8 11.5-12 11-12.5 10.3-11.7L443 484l1.5-1.7 6 7.5 8 9.7 10.8 12.5 6.2 7.3 7.3 7.7-3 4.5-5.3 4-5.5 4-12.5 8.5-27.5 17.8-13.5 9-6.5 4.5-6 4.5-5.5 4.5-5.2 4.2-4.5 4.3-3.8 4-1.7 2.2-1.8 3.5-1.7 3.3-1.8 3.2-2.2 3-2.3 2.8-2.5 2.5-2.7 2.2-3.3 2-3.5 1.8-4 1.2-4.5.8-5 .5h-5.5l-6-.5-6.7-1.3-7.3-1.5-3.7-.7-3.5-.8-6.3-.7-5.7-.3-4.8.3-4 .2-3.5.5-2.7.5H285l-2-.2-.7-.3-.5-.5-.5-.7-.5-.8-.8-2.5-.5-3.2-.2-4.5z"/><path class="st1" d="M333.3 437l-.8-1 9.3-9.5 22-23.5 13.5-14.5 13.7-15.2 13-15 6-7 5.3-6.5 3.2-3.8 3.3-3.7 3.2-3.5 3.5-3.3 3.5-3.2 3.5-2.8 3.8-2.7 3.5-2.5 3.7-2.3 3.8-2.2 3.7-2 4-1.8 3.8-1.5 3.7-1.2 4-1 4-1 3.8-.5 4-.5 4-.3 3.7.3 4 .2 3.8.5 4 .8 3.7.7 3.8 1.3 3.7 1.5 3.8 1.7 3.5 2 3.5 2.3 3.7 2.5 3.3 2.5 3.5 3 44 40.7 62 56.8 79.5 72.5-15.8 16.2-16.5 16.8-19.7 20-21 21-10.5 10-10 9.2-9.3 8.5-8.5 7.5-7.2 5.8-3 2.5-2.8 1.7-2.5 1.5-2.5 1.3-2.2.7-2.3.5-2.5.3-2.5-.3-3-.7-3-1.5-3.2-2-3.5-2.5-4-3.3-4.5-4-10.8-10.2-13.2-13.3-36.5-37-15.5-16-7.3-7.7-6.2-7.3-10.8-12.5-8-9.7-6-7.5-3.7-4.5-3-3.3-1.5-1-1.3-.7-1-.5-1.2-.3-1 .3-1.3.2-1.2.8-1.5.7-3.3 2.5-4.2 3.3-8 6-7 4.7-6.3 3.8-5.2 2.7-4 2-3.3 1.3-2.5 1-9.5-12z"/><path class="st2" d="M768.8 537.5L635.3 714l-.8-3.7-.7-3.8-2-7.7-2.5-7.5-3-7.5-3.3-7.5-3.7-7.3-3.8-7-4-6.7-4-6.5-3.7-6-7.5-10.8-6.5-8.5-4.8-6 2.3-.5 2.2-.7 2.5-1.3 2.5-1.5 2.8-1.7 3-2.5 7.2-5.8 8.5-7.5 9.3-8.5 10-9.2 10.5-10 21-21 19.7-20 16.5-16.8 15.8-16.2z"/><path class="st0" d="M161.3 513.5l.5 3-7.3.8h-4.7l-4.3-3-4.7-3-6-3.5-1.5-4.5-.8-3.5-.5-3.8-.2-3.7.2-1.8.3-1.7.5-1.5.7-1.3.8-1.2 1.2-1 2-1 .8-.3h.7l1 .3.8.2 1.2 1 1.3 1.5 1.2 1.8 2.5 5 2.5 5.5 1.5 2.7 1.5 3 1.8 2.8 2.2 2.7 2.3 2.5z"/><path class="st0" d="M134.8 507.8l6 3.5 4.7 3 4.3 3h4.7l7.3-.8 11-1.2 8.2-.8 2.5-.2 3-.3 7-1.5 7.8-1.7 8.5-2.5 9-3 9.2-3.3 18.8-6.7 17.7-6.8 14.5-6 13.8-5.7 40.5-39.8 41.2 52.3-2.5 2-5.2 5.5-5.8 6-7.5 7.2-8.2 7.5-4.3 3.8-4.5 3.5-4.2 3.5-4.3 3-4.2 2.7-4 2.3-2 .7-2.5 1-6 1.5-7.3 1.3-8.5 1-9 1-10 .7-20.7 1.5-21.5 1.5-10.5 1-10 1-9.5 1.3-8.5 1.5-7.5 1.7-3.5 1-3 1.3-2.5 1.2-3 2.3-3.3 2-3 2-3.2 1.7-3.5 1.3-3.3 1.2-3.7.5-3.8.3-3.7-.3-4.3-.7-4.2-1.3-4.5-1.7-4.8-2.8-5.2-3.2-5.5-4-5.8-5-2.7-2.3-2.8-2.2-5.5-3.8-4.7-2.7-4.3-2-3.7-1.8-3.3-1-2.7-1-2-1-1.5-1-.5-.7-.5-.8-.3-.7v-1l.5-2.5 1.3-3.3 2-4 6-12 1.7-2.5 2-2 2.3-1.5 2.5-1.2 2.7-.5 3-.3h3.3l3.2.5 3.3.8 3.5.7 3.2 1.3 3.5 1.2 6.5 3zM466.8 204.3l1.7 4.7 1.5 4.8 1.3 4.5 1.2 4.7 1 4.8.8 4.7.5 4.8.5 4.5v13.5l-.5 4.5-.5 4.2-.8 4.3-1 4.2-1 4-1.2 4-1.3 4-1.7 3.8-1.8 3.5-1.7 3.5-2.3 3.5-2.2 3-2.3 3.2-2.5 2.8-2.7 2.7-3 2.5-3 2.5-3 2-3.3 2-3.5 1.8-3.5 1.5-3.7 1.5-3.8 1-3.7.7-3.8.5-3.7.5h-7.5l-4-.5-3.8-.5-3.7-.7-4-1.3-3.8-1.2-3.7-1.3-3.8-1.7-3.5-1.8-3.7-2-3.5-2.2-3.5-2.5-3.5-2.8-3.3-2.7-3.5-3-3-3-3.2-3.3-3-3.5-2.8-3.7-2.7-3.8-2.8-4-2.5-4-2.5-4.2-2.2-4.3-2-4.5-2-4.7-1.8-4.8-1.5-4.7-1.2-4.8-1.3-4.7-1-4.5-.7-4.8-.5-4.7-.5-4.5v-13.8l.5-4.2.5-4.5.7-4.3.8-4 1.2-4.2 1.3-4 1.2-3.8 1.8-3.7 1.7-3.8 1.8-3.2 2.2-3.5 2.3-3.3 2.2-3 2.5-2.7 2.8-2.8 2.7-2.7 3-2.3 3.3-2.2 3.2-1.8 3.5-2 3.5-1.5 3.8-1.2 3.7-1 3.8-.8 3.7-.7 3.8-.3h7.5l4 .5 3.7.5 3.8.8 4 1 3.7 1.2 3.8 1.5 3.7 1.8 3.5 1.7 3.8 2 3.5 2.3 3.5 2.5 3.5 2.5 3.2 3 3.3 2.7 3.2 3.3 3.3 3.2 3 3.5 2.7 3.8 2.8 3.7 2.7 3.8 2.5 4.2 2.5 4.3 2.3 4.2 2 4.5z"/><path class="st3" d="M718.8 494.3L703 510.5l-16.5 16.8-19.7 20-21 21-10.5 10-10 9.2-9.3 8.5-8.5 7.5-7.2 5.8-3 2.5-2.8 1.7-2.5 1.5-2.5 1.3-2.2.7-2.3.5-2.5.3-2.5-.3-3-.7-3-1.5-3.2-2-3.5-2.5-4-3.3-4.5-4-10.8-10.2-13.2-13.3-36.5-37-15.5-16-7.3-7.7-6.2-7.3-10.8-12.5-8-9.7-6-7.5-3.7-4.5-3-3.3-1.5-1-1.3-.7-1-.5-1.2-.3-1 .3-1.3.2-1.2.8-1.5.7-3.3 2.5-4.2 3.3-8 6-7 4.7-6.3 3.8-5.2 2.7-4 2-3.3 1.3-2.5 1-9.5-12-41.2-52.3-.8-1 9.3-9.5 22-23.5 13.5-14.5 13.7-15.2 13-15 6-7 5.3-6.5 3.2-3.8 3.3-3.7 3.2-3.5 3.5-3.3 3.5-3.2 3.5-2.8 3.8-2.7 3.5-2.5 3.7-2.3 3.8-2.2 3.7-2 4-1.8 3.8-1.5 3.7-1.2 4-1 4-1 3.8-.5 4-.5 4-.3 3.7.3 4 .2 3.8.5 4 .8 3.7.7 3.8 1.3 3.7 1.5 3.8 1.7 3.5 2 3.5 2.3 3.7 2.5 3.3 2.5 3.5 3 44 40.7 62 56.8zM466.8 204.3l1.7 4.7 1.5 4.8 1.3 4.5 1.2 4.7 1 4.8.8 4.7.5 4.8.5 4.5v13.5l-.5 4.5-.5 4.2-.8 4.3-1 4.2-1 4-1.2 4-1.3 4-1.7 3.8-1.8 3.5-1.7 3.5-2.3 3.5-2.2 3-2.3 3.2-2.5 2.8-2.7 2.7-3 2.5-3 2.5-3 2-3.3 2-3.5 1.8-3.5 1.5-3.7 1.5-3.8 1-3.7.7-3.8.5-3.7.5h-7.5l-4-.5-3.8-.5-3.7-.7-4-1.3-3.8-1.2-3.7-1.3-3.8-1.7-3.5-1.8-3.7-2-3.5-2.2-3.5-2.5-3.5-2.8-3.3-2.7-3.5-3-3-3-3.2-3.3-3-3.5-2.8-3.7-2.7-3.8-2.8-4-2.5-4-2.5-4.2-2.2-4.3-2-4.5-2-4.7-1.8-4.8-1.5-4.7-1.2-4.8-1.3-4.7-1-4.5-.7-4.8-.5-4.7-.5-4.5v-13.8l.5-4.2.5-4.5.7-4.3.8-4 1.2-4.2 1.3-4 1.2-3.8 1.8-3.7 1.7-3.8 1.8-3.2 2.2-3.5 2.3-3.3 2.2-3 2.5-2.7 2.8-2.8 2.7-2.7 3-2.3 3.3-2.2 3.2-1.8 3.5-2 3.5-1.5 3.8-1.2 3.7-1 3.8-.8 3.7-.7 3.8-.3h7.5l4 .5 3.7.5 3.8.8 4 1 3.7 1.2 3.8 1.5 3.7 1.8 3.5 1.7 3.8 2 3.5 2.3 3.5 2.5 3.5 2.5 3.2 3 3.3 2.7 3.2 3.3 3.3 3.2 3 3.5 2.7 3.8 2.8 3.7 2.7 3.8 2.5 4.2 2.5 4.3 2.3 4.2 2 4.5z"/><path class="st3" d="M337.8 432.5l-4.5 4.5-40.5 39.8-13.8 5.7-14.5 6-17.7 6.8L228 502l-9.2 3.3-9 3-8.5 2.5-7.8 1.7-7 1.5-3 .3-2.5.2-8.2.8-11 1.2-7.3.8h-4.7l-4.3-3-4.7-3-6-3.5-6.3-3.3-6.5-3-3.5-1.2-3.2-1.3-3.5-.7-3.3-.8-3.2-.5H102l-3 .3-2.7.5-2.5 1.2-2.3 1.5-2 2-1.7 2.5-6 12-2 4-1.3 3.3-.5 2.5v1l.3.7.5.8.5.7 1.5 1 2 1 2.7 1 3.3 1 3.7 1.8 4.3 2 4.7 2.7 5.5 3.8 2.8 2.2 2.7 2.3 5.8 5 5.5 4 5.2 3.2 4.8 2.8 4.5 1.7 4.2 1.3 4.3.7 3.7.3 3.8-.3 3.7-.5 3.3-1.2 3.5-1.3 3.2-1.7 3-2 3.3-2 3-2.3 2.5-1.2 3-1.3 3.5-1 7.5-1.7 8.5-1.5 9.5-1.3 10-1 10.5-1 21.5-1.5 20.7-1.5 10-.7 9-1 8.5-1 7.3-1.3 6-1.5 2.5-1 2-.7 4-2.3 4.2-2.7 4.3-3 4.2-3.5 4.5-3.5 4.3-3.8 8.2-7.5 7.5-7.2 5.8-6 5.2-5.5M443 484l-15.2 18.3-10.3 11.7-11 12.5-11.5 12-5.5 5.8-5.2 5.2-5.3 4.8-4.7 4-4.3 3.5-4 2.5-5.7 3.7-7.5 5.3-7.8 5-3 1.7-2.5 1.3-2.5-.3-7-.7-4.5-.3H315l-5.7.3-5.5.5-5.5 1-2.5.7-2.5.8-2.5.7-2.3 1.3-2 1-1.7 1.5-1.8 1.5-1.2 1.5-1 2-1 2-.5 2.2v15.8l.2 4.5.5 3.2.8 2.5.5.8.5.7.5.5.7.3 2 .2h2.3l2.7-.5 3.5-.5 4-.2 4.8-.3 5.7.3 6.3.7 3.5.8 3.7.7 7.3 1.5 6.7 1.3 6 .5h5.5l5-.5 4.5-.8 4-1.2 3.5-1.8 3.3-2 2.7-2.2 2.5-2.5 2.3-2.8 2.2-3 1.8-3.2 1.7-3.3 1.8-3.5 1.7-2.2 3.8-4 4.5-4.3 5.2-4.2 5.5-4.5 6-4.5 6.5-4.5 13.5-9 27.5-17.8 12.5-8.5 5.5-4 5.3-4M582.5 614.5l2.5 3 4.8 6 6.5 8.5 7.5 10.8 3.7 6 4 6.5 4 6.7 3.8 7 3.7 7.3 3.3 7.5 3 7.5 2.5 7.5 2 7.7.7 3.8.8 3.7"/><path class="st3" d="M135 508.5l-.2-.7-1.5-4.5-.8-3.5-.5-3.8-.2-3.7.2-1.8.3-1.7.5-1.5.7-1.3.8-1.2 1.2-1 2-1 .8-.3h.7l1 .3.8.2 1.2 1 1.3 1.5 1.2 1.8 2.5 5 2.5 5.5 1.5 2.7 1.5 3 1.8 2.8 2.2 2.7 2.3 2.5 2.5 2M303 269.5L167.8 407.8M233.5 407.3l-66.5 1 5.5-66M718.8 494.3l50 43.2"/></svg>