<svg xmlns="http://www.w3.org/2000/svg" width="850.394" height="850.394" viewBox="0 0 850.394 850.394" overflow="visible"><path fill="#0d72ba" d="M157.9 520.01v-70.6H745.6v71.11l-583.6-.51z"/><path d="M157.9 449.41V786.7h-39.64L118 114.01c5.63 2.38 12.17 3.73 19.14 3.73 7.65 0 14.78-1.63 20.76-4.45v336.12z" fill="#c8c8c8"/><path d="M433.35 273.8c-9.359-6.37-26.09-5.2-26.09-5.2l-.38-.16c-19.35 8.13-22.01 23.85-18.03 37.31 2.83 9.57 29.93 25.6 29.93 25.6s7.6-6.61 16.19-16.29c14.79-16.68 7.73-34.89-1.62-41.26zm35.82 43.72c4.49 5.09 9.34 9.01 3.58 15.88-5.6 6.67-11.68 9.24-10.83 18.8.5 5.62.021 8.57-4.79 11.83-3.27 2.21-9.63 2.92-9.979 6.95-.551 6.39 18.279 14.67 7.02 17.51-3.97 1-9.97.2-11.86 5.24-1.829 4.86 1.761 9.3 5.261 11.83 4.01 2.89 10.08 5.1 13.58 6.11l.01.09c-.97.07-1.95.13-2.93.18-85.69 4.46-142.221-83.77-142.221-83.77s12.69-20.31 35.33-41.1c22.84-20.97 55.82-42.43 96.12-44.01l.14 3.35c-1.989 9.92-2.18 16.53 4.16 24.92 2.681 3.54 4.49 6.25 4.58 10.93.11 5.46-1.06 7.79 3.18 11.7 3.301 3.03 4.83 4.14 5.131 9.19.29 4.74-.131 8.5 2.83 12.34.538.7 1.108 1.38 1.688 2.03z" fill="#231f20"/><path d="M623.05 289.26v.14l16.16 9.04 20.13-9.59-19.31-10.68-16.36 11.09h-.62zm59.03 53.19c-6.41-9.32-22.44-14.28-22.44-14.28v-1.32h-.29v1.03c-20.989.58-29.149 14.28-30.31 28.27-.83 9.94 18.65 34.68 18.65 34.68s9.47-3.41 20.979-9.33c19.831-10.2 19.831-29.73 13.411-39.05zm-411.24-14.57l-.3.29s-16.02 4.96-22.44 14.28c-6.41 9.32-6.41 28.85 13.41 39.05 11.51 5.92 20.98 9.33 20.98 9.33s19.48-24.74 18.66-34.68c-1.17-13.99-9.33-27.69-30.31-28.27zm277.52-38.62c-25.87-21.7-60.53-44.97-91.29-46.2-3.25-.13-6.46-.13-9.61 0-40.3 1.58-73.28 23.04-96.12 44.01-22.64 20.79-35.33 41.1-35.33 41.1s56.53 88.23 142.221 83.77c.979-.05 1.96-.11 2.93-.18 43.439-3.21 76.87-27.33 126.47-84.91l.01-.01s-6-6.76-15.949-16.45h33.52l15.64 8.74 20.131-9.58-19.311-10.68-15.21 10.31-.17-.25h-35.41l-.33.35c-6.152-5.95-13.702-12.9-22.192-20.02zm197.24-56.69v191.78H157.9V232.57h587.7z" fill="#ed1d31"/><path fill="#fbee34" d="M745.6 424.35v25.06H157.9v-25.06H744zM745.6 207.51v25.06H157.9v-25.06h586.12z"/><path fill="#0d72ba" d="M745.6 139.31v68.2H157.9v-68.2h2.47zM682.08 342.45c6.42 9.32 6.42 28.85-13.41 39.05-11.51 5.92-20.979 9.33-20.979 9.33s-19.48-24.74-18.65-34.68c1.16-13.99 9.32-27.69 30.31-28.27v-1.03h.29v1.32c-.001 0 16.029 4.96 22.439 14.28z"/><path fill="#fff" d="M623.67 289.26l16.36-11.09 19.31 10.68-20.13 9.59-16.16-9.04v-.14zM606.46 309.18l15.21-10.31 19.311 10.68-20.131 9.58-15.64-8.74h-33.52c-.37-.37-.75-.74-1.141-1.11l.33-.35h35.41l.171.25z"/><path d="M571.69 310.39c9.949 9.69 15.949 16.45 15.949 16.45l-.01.01c-49.6 57.58-83.03 81.7-126.47 84.91l-.01-.09c-3.5-1.01-9.57-3.22-13.58-6.11-3.5-2.53-7.09-6.97-5.261-11.83 1.891-5.04 7.891-4.24 11.86-5.24 11.26-2.84-7.57-11.12-7.02-17.51.35-4.03 6.71-4.74 9.979-6.95 4.811-3.26 5.29-6.21 4.79-11.83-.85-9.56 5.23-12.13 10.83-18.8 5.76-6.87.91-10.79-3.58-15.88a36.62 36.62 0 0 1-1.689-2.03c-2.961-3.84-2.54-7.6-2.83-12.34-.301-5.05-1.83-6.16-5.131-9.19-4.239-3.91-3.069-6.24-3.18-11.7-.09-4.68-1.899-7.39-4.58-10.93-6.34-8.39-6.149-15-4.16-24.92l-.14-3.35c3.15-.13 6.36-.13 9.61 0 30.76 1.23 65.42 24.5 91.29 46.2a424.435 424.435 0 0 1 22.189 20.02c.394.37.774.74 1.144 1.11z" fill="#fff"/><path d="M433.35 273.8c9.351 6.37 16.41 24.58 1.62 41.26-8.59 9.68-16.19 16.29-16.19 16.29s-27.1-16.03-29.93-25.6c-3.98-13.46-1.32-29.18 18.03-37.31l.38.16s16.73-1.17 26.09 5.2zM301.15 356.15c.82 9.94-18.66 34.68-18.66 34.68s-9.47-3.41-20.98-9.33c-19.82-10.2-19.82-29.73-13.41-39.05 6.42-9.32 22.44-14.28 22.44-14.28l.3-.29c20.98.58 29.14 14.28 30.31 28.27z" fill="#0d72ba"/><path d="M157.9 113.29c-5.98 2.82-13.11 4.45-20.76 4.45-6.97 0-13.51-1.35-19.14-3.73-11.51-4.83-19.25-13.88-19.25-24.25 0-15.45 17.19-27.98 38.39-27.98 21.21 0 38.39 12.53 38.39 27.98 0 9.88-7.02 18.56-17.63 23.53z" fill="#c8c8c8"/><g fill="none"><path stroke="#231f20" stroke-width="21" d="M160.37 139.31H745.6V520.52l-583.6-.51M118 114.01c-11.51-4.83-19.25-13.88-19.25-24.25 0-15.45 17.19-27.98 38.39-27.98 21.21 0 38.39 12.53 38.39 27.98 0 9.88-7.02 18.56-17.63 23.53-5.98 2.82-13.11 4.45-20.76 4.45-6.97 0-13.51-1.35-19.14-3.73z"/><path stroke="#231f20" stroke-width="21" d="M118 114v.01l.26 672.69M157.9 111.47V786.7"/><path d="M571.69 310.39c9.949 9.69 15.949 16.45 15.949 16.45l-.01.01c-49.6 57.58-83.03 81.7-126.47 84.91-.97.07-1.95.13-2.93.18-85.69 4.46-142.221-83.77-142.221-83.77s12.69-20.31 35.33-41.1c22.84-20.97 55.82-42.43 96.12-44.01 3.15-.13 6.36-.13 9.61 0 30.76 1.23 65.42 24.5 91.29 46.2a424.435 424.435 0 0 1 22.189 20.02c.393.37.773.74 1.143 1.11z" stroke="#231f20" stroke-width="13.99"/><path d="M447.6 246.41c-1.989 9.92-2.18 16.53 4.16 24.92 2.681 3.54 4.49 6.25 4.58 10.93.11 5.46-1.06 7.79 3.18 11.7 3.301 3.03 4.83 4.14 5.131 9.19.29 4.74-.131 8.5 2.83 12.34.539.7 1.109 1.38 1.689 2.03 4.49 5.09 9.34 9.01 3.58 15.88-5.6 6.67-11.68 9.24-10.83 18.8.5 5.62.021 8.57-4.79 11.83-3.27 2.21-9.63 2.92-9.979 6.95-.551 6.39 18.279 14.67 7.02 17.51-3.97 1-9.97.2-11.86 5.24-1.829 4.86 1.761 9.3 5.261 11.83 4.01 2.89 10.08 5.1 13.58 6.11" stroke="#231f20" stroke-width="6.995"/><path stroke="#fff" stroke-width="6.995" d="M371.24 341.14v23.61M384.06 341.29v23.6M397.17 341.29v23.6M410.29 341.14v23.61M423.4 341.14v23.61M436.96 340.99v23.61"/><path stroke="#231f20" stroke-width="6.995" d="M468.3 341.14v23.61M481.11 341.29v23.6M494.23 341.29v23.6M507.34 341.14v23.61M520.46 341.14v23.61M534.01 340.99v23.61"/><path stroke="#fff" stroke-width="6.995" d="M372.11 294.36v23.61M384.94 294.51v23.6"/><path stroke="#231f20" stroke-width="6.995" d="M469.17 294.36v23.61M481.99 294.51v23.6M495.1 294.51v23.6M508.22 294.36v23.61M521.33 294.36v23.61M534.88 294.21v23.61M287.45 287.07h64.12M267.92 307.48h60.91M227.12 327h88.89M270.54 328.17s-16.02 4.96-22.44 14.28c-6.41 9.32-6.41 28.85 13.41 39.05 11.51 5.92 20.98 9.33 20.98 9.33s19.48-24.74 18.66-34.68c-1.17-13.99-9.33-27.69-30.31-28.27M659.64 328.17s16.03 4.96 22.44 14.28c6.42 9.32 6.42 28.85-13.41 39.05-11.51 5.92-20.979 9.33-20.979 9.33s-19.48-24.74-18.65-34.68c1.16-13.99 9.32-27.69 30.31-28.27M547.71 289.26H626.4M570.88 308.93h35.41M571.32 310.39H606.73M584.43 326.85h106.68M623.46 289.4l.21-.14 16.36-11.09 19.31 10.68-20.13 9.59-16.16-9.04M605.1 310.1l1.36-.92 15.21-10.31 19.31 10.68-20.13 9.58-15.64-8.74-.52-.29"/><path stroke="#231f20" stroke-width="7" d="M158 207.51h586.02M157.46 232.57h591.07M163.29 424.35H744M159.8 449.41h591.06"/><path d="M407.26 268.6s16.73-1.17 26.09 5.2c9.351 6.37 16.41 24.58 1.62 41.26-8.59 9.68-16.19 16.29-16.19 16.29s-27.1-16.03-29.93-25.6c-3.98-13.46-1.32-29.18 18.03-37.31" stroke="#231f20" stroke-width="6.995"/></g><path fill="none" d="M0 0h850.394v850.394H0z"/></svg>