<svg xmlns="http://www.w3.org/2000/svg" width="850.394" height="850.394" viewBox="0 0 850.394 850.394" overflow="visible"><path d="M152.11 128.54v656.84h-28.99l10.5-.02-1.1-656.7c3.03.46 6.18.69 9.4.69 3.51 0 6.92-.28 10.19-.81z" fill="#c8c8c8"/><path fill="#231f20" d="M758.68 520.17v10.5H173.11v-10.5h575.07V185.44l.03.05 5.43-3.08h5.04zM758.68 140.34v42.07h-5.04l-3.45-6.09-2.01-3.55v-32.43H173.11v-10.5h585.57z"/><path fill="#231f20" d="M750.19 176.32l3.45 6.09-5.43 3.08-.03-.05v-7.98zM748.18 172.77l2.01 3.55-2.01 1.14zM748.18 509.67v10.5h-10.5zM748.18 185.44v324.23h-10.5V173.3h3.63l3.45 6.09zM748.18 177.46v7.98l-3.42-6.05z"/><path fill="#231f20" d="M748.18 172.77v4.69l-3.42 1.93-3.45-6.09 5.43-3.07z"/><path fill="#231f20" d="M748.18 150.84v21.93l-1.44-2.54-5.43 3.07h-3.63v-22.46zM748.18 140.34v10.5l-10.5-10.5zM748.18 509.67l-10.5 10.5v-10.5z"/><path fill="#231f20" d="M748.18 150.84h-10.5v-10.5zM173.11 509.67h564.57v10.5H173.11z"/><path d="M458.99 152.42v-1.58h278.69v358.83H173.11v-171.5h285.88V152.42zm274.66 190.55l-11.99-14.1 2.83-19.92-14.82 9.41-14.82-9.41 2.83 19.92-11.989 14.1 16.569 2.91 7.41 18.12 7.41-18.12 16.57-2.91zm-14.44-138.88l-2.14-2.38-11-12.21 2.6-17.29.561-3.67-3.19 1.91-13.37 8.01-13.38-8.01-3.19-1.91.561 3.67 2.6 17.3-11 12.2-2.14 2.38 3.16.52 15.02 2.48 6.76 15.61 1.61 3.71 1.6-3.71 6.761-15.61 15.02-2.48 3.157-.52zm-47.41 38.92l-2.27-2.52-11.65-12.94 2.75-18.32.59-3.89-3.38 2.02-14.17 8.49-14.18-8.49-3.38-2.02.59 3.89 2.76 18.32-11.66 12.94-2.27 2.52 3.35.56 15.92 2.64 7.16 16.53 1.71 3.93 1.7-3.93 7.16-16.53 15.93-2.64 3.34-.56zm-54.65 28.66l-2.2-2.43-11.24-12.49 2.66-17.69.56-3.75-3.26 1.95-13.68 8.2-13.69-8.2-3.26-1.95.57 3.75 2.659 17.69-11.25 12.49-2.189 2.43 3.229.54 15.37 2.54 6.91 15.96 1.65 3.8 1.64-3.8 6.92-15.96 15.37-2.54 3.231-.54zm-48.89 102.85l-2.439-2.49-11.63-11.91 2.739-16.84.59-3.63-3.21 1.78-14.31 7.9-14.31-7.9-3.221-1.78.601 3.63 2.739 16.84-11.63 11.91-2.439 2.49 3.439.53 16.021 2.44 7.18 15.27 1.62 3.44 1.62-3.44 7.18-15.27 16.021-2.44 3.439-.53zm-1.34 74.23l-2.06-2.29-10.591-11.75 2.5-16.66.54-3.54-3.069 1.84-12.88 7.71-12.891-7.71-3.069-1.84.54 3.54 2.5 16.66-10.591 11.75-2.06 2.29 3.04.5 14.47 2.4 6.51 15.02 1.551 3.57 1.54-3.57 6.51-15.02 14.47-2.4 3.04-.5zm-68.56 25.8l-2.32-2.58-11.94-13.27 2.82-18.76.6-3.99-3.449 2.069-14.53 8.7-14.521-8.7-3.46-2.069.601 3.99 2.83 18.77-11.95 13.26-2.32 2.58 3.431.57 16.31 2.7 7.34 16.939 1.74 4.021 1.75-4.021 7.34-16.939 16.311-2.7 3.417-.57z" fill="#a8d7f4"/><path fill="#231f20" d="M737.68 140.34v10.5H458.99v-2.52H350.94V140.34z"/><path fill="#fbed24" d="M721.66 328.87l11.99 14.1-16.57 2.91-7.41 18.12-7.41-18.12-16.57-2.91 11.99-14.1-2.83-19.92 14.82 9.41 14.82-9.41z"/><path d="M717.07 201.71l2.14 2.38-3.16.52-15.02 2.48.38-.87-1.32 1.03.94-.16-6.761 15.61-1.6 3.71-1.61-3.71-6.76-15.61.94.16-1.32-1.03.38.87-15.02-2.48-3.16-.52 2.14-2.38 11-12.2.12.81.44-1.43-.561.62-2.6-17.3-.561-3.67 3.19 1.91 13.38 8.01-.9.54h1.801l-.9-.54 13.37-8.01 3.19-1.91-.561 3.67-2.6 17.29-.551-.61.431 1.43.12-.82 11.003 12.21zm-1.3 1.17l-.64-.71.351-1.01-1.101.18-10.16-11.28 2.38-15.87 1.24-.74-1.02-.68.12-.82-.71.42-1.021-.68-.21 1.43-12.33 7.38-12.34-7.39-.21-1.42-1.021.68-.71-.42.12.82-1.02.68 1.24.74 2.39 15.87-10.16 11.28-1.11-.18.36 1.01-.64.71.939.16.36 1.02.76-.84 13.9 2.3 6.18 14.27-.65 1.51h1.311l.3.7.3-.7h1.3l-.649-1.5 6.18-14.28 13.91-2.3.76.84.36-1.02.941-.16z" fill="#231f20"/><path fill="#231f20" d="M715.13 202.17l.64.71-.94.16zM715.48 201.16l-.35 1.01-.75-.83z"/><path fill="#231f20" d="M714.38 201.34l.75.83-.3.87-1.12.18-1.38-1.54z"/><path fill="#231f20" d="M714.83 203.04l-.36 1.02-.76-.84zM704.22 190.06l10.16 11.28-2.05.34-9.41-10.45-.56-.61.12-.82 2.18-14.44 1.94-1.17zM712.33 201.68l1.38 1.54-13.91 2.3-6.18 14.28-.95-2.2 5.53-12.77.38-.88.94-.15z"/><path fill="#fbed24" d="M712.33 201.68l-12.81 2.12-.94.15-.38.88-5.53 12.77-5.53-12.77-.38-.88-.94-.15-12.81-2.12 9.41-10.45.55-.61-.12-.82-2.18-14.44 11.1 6.64.9.54.9-.54 11.09-6.64-2.18 14.44-.12.82.56.61z"/><path fill="#231f20" d="M707.84 173.45l-1.24.74.22-1.42zM706.94 171.95l-.12.82-.59-.4z"/><path fill="#231f20" d="M706.23 172.37l.59.4-.22 1.42-1.94 1.17.34-2.24z"/><path fill="#231f20" d="M706.23 172.37l-1.23.75.21-1.43zM706.07 189.5l-.12.82-.43-1.43zM705 173.12l-.34 2.24-11.09 6.64-.9.54-.9-.54-11.1-6.64-.34-2.25 12.34 7.39zM701.41 206.22l-.38.87-.94.16zM693.62 219.8l.65 1.5h-1.3zM692.67 217.6l.95 2.2-.65 1.5h-.6l-.66-1.51z"/><path fill="#231f20" d="M693.57 179h-1.8l.9-.54zM692.97 221.3l-.3.7-.3-.7zM687.14 204.83l5.53 12.77-.96 2.19-6.18-14.27-13.9-2.3 1.38-1.54 12.81 2.12.94.15zM692.37 221.3h-1.31l.65-1.51z"/><path fill="#231f20" d="M685.24 207.25l-.94-.16-.38-.87zM682.85 189.8l.12.82-.55.61-9.41 10.45-2.05-.34 10.16-11.28-2.39-15.87 1.94 1.17z"/><path fill="#231f20" d="M680.67 175.36l-1.94-1.17-.22-1.42.59-.4 1.23.74zM680.12 171.69l.21 1.42-1.23-.74zM679.82 188.89l-.44 1.43-.12-.81z"/><path fill="#231f20" d="M679.1 172.37l-.59.4-.12-.82zM678.51 172.77l.22 1.42-1.24-.74zM673.01 201.68l-1.38 1.54-1.12-.18-.3-.87.75-.83zM669.53 240.49l2.27 2.52-3.34.56-15.93 2.64.399-.94-1.399 1.1 1-.16-7.16 16.53-1.7 3.93-1.71-3.93-7.16-16.53 1 .16-1.399-1.1.399.94-15.92-2.64-3.35-.56 2.27-2.52 11.66-12.94.13.87.45-1.52-.58.65-2.76-18.32-.59-3.89 3.38 2.02 14.18 8.49-.96.57h1.91l-.95-.57 14.17-8.49 3.38-2.02-.59 3.89-2.75 18.32-.59-.65.46 1.52.13-.87 11.65 12.94zm-1.38 1.25l-.681-.75.38-1.08-1.17.19-10.77-11.96 2.53-16.82 1.31-.78-1.08-.72.13-.87-.75.45-1.09-.73-.229 1.52-13.061 7.82-13.07-7.82-.229-1.52-1.09.73-.75-.45.13.87-1.08.72 1.31.78 2.53 16.82-10.77 11.96-1.17-.19.38 1.08-.681.75 1 .17.38 1.07.79-.88 14.75 2.44 6.551 15.12-.69 1.6h1.39l.32.74.32-.74h1.38l-.69-1.59 6.551-15.13 14.75-2.44.789.88.381-1.07.999-.17z"/><path fill="#231f20" d="M671.63 203.22l-.76.84-.36-1.02zM670.96 201.34l-.75.83-.36-1.01zM670.51 203.04l-.94-.16.64-.71zM667.47 240.99l.68.75-1 .17zM667.85 239.91l-.38 1.08-.79-.89zM666.68 240.1l.79.89-.32.92-1.17.19-1.48-1.64zM667.15 241.91l-.38 1.07-.79-.88z"/><path fill="#231f20" d="M666.68 240.1l-2.18.36-9.97-11.07-.59-.66.13-.86 2.3-15.31 2.07-1.24-2.53 16.82zM665.98 242.1l-14.75 2.44-6.55 15.13-1.01-2.34 5.86-13.53.4-.93 1-.16 13.57-2.25z"/><path fill="#fbed24" d="M654.53 229.39l9.97 11.07-13.57 2.25-1 .16-.4.93-5.86 13.53-5.87-13.53-.4-.93-1-.16-13.57-2.25 9.97-11.07.59-.66-.13-.86-2.3-15.31 11.75 7.05.96.57.95-.57 11.75-7.05-2.3 15.31-.13.86z"/><path fill="#231f20" d="M659.75 210.54l-1.31.78.23-1.5zM658.8 208.95l-.13.87-.62-.42z"/><path fill="#231f20" d="M658.05 209.4l.62.42-.23 1.5-2.07 1.24.36-2.37z"/><path fill="#231f20" d="M658.05 209.4l-1.32.79.23-1.52zM657.88 227.55l-.13.87-.46-1.52zM656.73 210.19l-.36 2.37-11.75 7.05-.95.57-.96-.57-11.75-7.05-.36-2.37 13.07 7.82zM652.93 245.27l-.4.94-1 .16zM644.68 259.67l.69 1.59h-1.38zM643.67 257.33l1.01 2.34-.69 1.59h-.64l-.7-1.6z"/><path fill="#231f20" d="M644.62 216.42h-1.91l.96-.57zM643.99 261.26l-.32.74-.32-.74zM643.67 257.33l-1.02 2.33-6.55-15.12-14.75-2.44 1.48-1.64 13.57 2.25 1 .16.4.93z"/><path fill="#231f20" d="M642.65 259.66l.7 1.6h-1.39zM635.8 246.37l-1-.16-.4-.94zM633.26 227.87l.13.86-.59.66-9.97 11.07-2.18-.36 10.77-11.96-2.53-16.82 2.07 1.24z"/><path fill="#231f20" d="M630.96 212.56l-2.07-1.24-.23-1.5.62-.42 1.32.79z"/><path fill="#231f20" d="M630.37 208.67l.23 1.52-1.32-.79zM630.04 226.9l-.45 1.52-.13-.87zM629.28 209.4l-.62.42-.13-.87zM628.66 209.82l.23 1.5-1.31-.78zM622.83 240.46l-1.48 1.64-1.17-.19-.32-.92.79-.89z"/><path fill="#231f20" d="M621.35 242.1l-.79.88-.38-1.07zM620.65 240.1l-.79.89-.38-1.08zM619.86 240.99l.32.92-1-.17zM614.95 269.24l2.2 2.43-3.23.54-15.37 2.54.391-.89-1.36 1.05.97-.16-6.92 15.96-1.64 3.8-1.65-3.8-6.91-15.96.96.16-1.35-1.05.39.89-15.37-2.54-3.229-.54 2.189-2.43 11.25-12.49.131.84.439-1.47-.57.63-2.659-17.69-.57-3.75 3.26 1.95 13.69 8.2-.92.55h1.84l-.92-.55 13.68-8.2 3.26-1.95-.56 3.75-2.66 17.69-.57-.63.44 1.47.13-.84 11.238 12.49zm-1.33 1.2l-.65-.73.36-1.04-1.13.19-10.391-11.54 2.44-16.23 1.27-.76-1.05-.7.12-.83-.72.43-1.05-.7-.221 1.46-12.609 7.55-12.62-7.55-.22-1.46-1.051.7-.72-.43.13.83-1.05.7 1.26.76 2.45 16.23-10.39 11.54-1.13-.19.359 1.04-.649.73.97.16.36 1.04.77-.85 14.23 2.35 6.319 14.6-.67 1.55h1.34l.311.71.31-.71h1.33l-.67-1.54 6.33-14.61 14.229-2.35.771.85.36-1.04.972-.16z"/><path fill="#231f20" d="M612.97 269.71l.65.73-.97.16z"/><path fill="#231f20" d="M613.33 268.67l-.36 1.04-.77-.85z"/><path fill="#231f20" d="M612.97 269.71l-.32.89-1.13.19-1.42-1.58 2.1-.35zM612.65 270.6l-.36 1.04-.77-.85z"/><path fill="#231f20" d="M612.2 268.86l-2.1.35-9.63-10.69-.56-.63.12-.84 2.22-14.76 2-1.2-2.44 16.23z"/><path fill="#231f20" d="M610.1 269.21l1.42 1.58-14.23 2.35-6.33 14.61-.97-2.26 5.66-13.06.39-.89.96-.16z"/><path fill="#fbed24" d="M600.47 258.52l9.63 10.69-13.1 2.17-.96.16-.39.89-5.66 13.06-5.66-13.06-.39-.89-.96-.16-13.1-2.17 9.62-10.69.57-.63-.13-.84-2.23-14.77 11.36 6.8.92.55.92-.55 11.34-6.79-2.22 14.76-.12.84z"/><path fill="#231f20" d="M605.52 240.33l-1.27.76.22-1.46z"/><path fill="#231f20" d="M604.59 238.8l-.12.83-.6-.4z"/><path fill="#231f20" d="M604.47 239.63l-.22 1.46-2 1.2.35-2.3 1.27-.76z"/><path fill="#231f20" d="M603.87 239.23l-1.27.76.22-1.46zM603.71 256.75l-.13.84-.44-1.47zM602.6 239.99l-.35 2.3-11.34 6.79-.92.55-.92-.55-11.36-6.8-.34-2.29 12.62 7.55zM598.94 273.86l-.39.89-.97.16zM590.96 287.75l.67 1.54h-1.33z"/><path fill="#231f20" d="M589.99 285.49l.97 2.26-.66 1.54h-.62l-.67-1.55zM590.91 246.01h-1.84l.92-.55zM590.3 289.29l-.31.71-.31-.71zM589.99 285.49l-.98 2.25-6.32-14.6-14.23-2.35 1.42-1.58 13.1 2.17.96.16.39.89zM589.01 287.74l.67 1.55h-1.34z"/><path fill="#231f20" d="M582.39 274.91l-.96-.16-.39-.89zM579.94 257.05l.13.84-.57.63-9.62 10.69-2.1-.35 10.39-11.54-2.45-16.23 1.99 1.19zM577.37 239.99l.34 2.29-1.99-1.19-.21-1.46.59-.4z"/><path fill="#231f20" d="M577.15 238.53l.22 1.46-1.27-.76zM576.84 256.12l-.44 1.47-.13-.84zM576.1 239.23l-.59.4-.13-.83zM575.72 241.09l-1.26-.76 1.05-.7zM569.88 269.21l-1.42 1.58-1.13-.19-.32-.89.77-.85zM568.46 270.79l-.77.85-.36-1.04zM565.82 372.03l2.439 2.49-3.439.53-16.021 2.44.4-.86-1.351 1 .95-.14-7.18 15.27L540 396.2l-1.62-3.44-7.18-15.27.95.14-1.351-1 .4.86-16.021-2.44-3.439-.53 2.439-2.49 11.63-11.91.15.89.49-1.54-.641.65-2.739-16.84-.601-3.63 3.221 1.78 14.31 7.9-.86.47h1.721l-.86-.47 14.31-7.9 3.21-1.78-.59 3.63-2.739 16.84-.641-.65.49 1.54.15-.89 11.631 11.91zm-1.27 1.25l-.64-.66.37-1.11-1.271.19-10.74-10.98 2.53-15.48 1.23-.68-1-.71.14-.86-.76.42-1-.71-.23 1.39L540 351.36l-13.18-7.27-.23-1.39-1 .71-.76-.42.14.86-1 .71 1.23.68 2.53 15.48-10.74 10.98-1.271-.19.37 1.11-.64.66.91.14.37 1.11.899-.92 14.79 2.26 6.59 14.03-.63 1.34h1.26l.362.76.36-.76h1.26l-.63-1.34 6.59-14.03 14.79-2.26.899.92.37-1.11.911-.14z"/><path fill="#231f20" d="M567.78 268.86l-.77.85-.36-1.04z"/><path fill="#231f20" d="M567.33 270.6l-.97-.16.65-.73zM564.86 446.46l2.06 2.29-3.04.5-14.47 2.4.37-.851-1.28 1 .91-.149-6.51 15.02-1.54 3.57-1.551-3.57-6.51-15.02.91.149-1.28-1 .37.851-14.47-2.4-3.04-.5 2.06-2.29 10.591-11.75.119.78.421-1.38-.54.6-2.5-16.66-.54-3.54 3.069 1.84 12.891 7.71-.87.52h1.729l-.859-.52 12.88-7.71 3.069-1.84-.54 3.54-2.5 16.66-.539-.6.42 1.38.119-.78 10.591 11.75zm-1.25 1.13l-.62-.689.34-.98-1.07.18-9.779-10.859 2.3-15.29 1.189-.71-.979-.66.12-.79-.69.41-.979-.66-.21 1.38-11.87 7.11-11.88-7.12-.211-1.37-.979.66-.69-.41.12.79-.979.66 1.189.71 2.301 15.29-9.78 10.859-1.07-.18.351.99-.62.68.909.15.341.979.72-.8 13.4 2.21 5.96 13.75-.631 1.45h1.261l.29.67.29-.67h1.25l-.62-1.44 5.95-13.76 13.399-2.21.72.8.341-.979.916-.151zM563.91 372.62l.64.66-.91.14zM564.28 371.51l-.37 1.11-.9-.92z"/><path fill="#231f20" d="M563.91 372.62l-.27.8-1.27.19-1.54-1.57 2.18-.34z"/><path fill="#231f20" d="M563.64 373.42l-.37 1.11-.9-.92zM562.99 446.9l.62.69-.92.15z"/><path fill="#231f20" d="M563.33 445.92l-.34.98-.73-.8zM563.01 371.7l-2.18.34-9.83-10.07-.64-.64.15-.9 2.31-14.1 1.98-1.09-2.53 15.48z"/><path fill="#231f20" d="M562.99 446.9l-.3.84-1.06.18-1.34-1.5 1.97-.32zM562.69 447.74l-.34.98-.72-.8zM560.83 372.04l1.54 1.57-14.79 2.26-6.59 14.03-.99-2.1 5.97-12.69.4-.87.94-.14z"/><path fill="#231f20" d="M552.48 435.24l9.78 10.86-1.97.32-9.06-10.06-.54-.59.12-.79 2.1-13.9 1.87-1.13zM560.29 446.42l1.34 1.5-13.4 2.21-5.95 13.76-.92-2.13 5.32-12.3.37-.84.9-.15z"/><path fill="#fbed24" d="M551 361.97l9.83 10.07-13.52 2.06-.94.14-.4.87L540 387.8l-5.97-12.69-.4-.87-.95-.14-13.51-2.06 9.83-10.07.64-.64-.15-.9-2.31-14.1 11.96 6.6.86.47.86-.47 11.96-6.6-2.31 14.1-.15.9zM560.29 446.42l-12.34 2.05-.9.15-.37.84-5.32 12.3-5.33-12.3-.37-.84-.9-.15-12.34-2.05 9.06-10.06.54-.59-.12-.79-2.1-13.9 10.69 6.4.87.52.86-.52 10.69-6.4-2.1 13.9-.12.79.54.59z"/><path fill="#231f20" d="M556.03 344.56l-1.23.68.23-1.39zM555.97 419.24l-1.19.71.21-1.37zM555.17 342.99l-.14.86-.62-.44z"/><path fill="#231f20" d="M555.11 417.79l-.12.79-.57-.38zM555.03 343.85l-.23 1.39-1.98 1.09.36-2.24 1.23-.68z"/><path fill="#231f20" d="M554.99 418.58l-.21 1.37-1.87 1.13.32-2.16 1.19-.72zM554.42 418.2l-1.19.72.21-1.38zM554.41 343.41l-1.23.68.23-1.39zM553.73 434.11l.54.6-.12.78zM554.19 360.12l-.15.89-.49-1.54z"/><path fill="#231f20" d="M553.23 418.92l-.32 2.16-10.69 6.4-.86.52-.87-.52-10.69-6.4-.32-2.17 11.88 7.12zM553.18 344.09l-.36 2.24-11.96 6.6-.86.47-.86-.47-11.96-6.6-.36-2.24 13.18 7.27zM549.78 450.8l-.37.85-.91.15zM549.2 376.63l-.4.86-.95.14zM542.28 463.89l.62 1.44h-1.25z"/><path fill="#231f20" d="M542.28 463.89l-.63 1.44h-.58l-.63-1.45.92-2.12zM542.22 424.58h-1.73l.87-.52zM541.65 465.33l-.29.67-.29-.67zM540.99 389.9l.63 1.34h-1.26z"/><path fill="#231f20" d="M541.36 461.76l-.92 2.12-5.96-13.75-13.4-2.21 1.34-1.5 12.34 2.05.9.15.37.84zM540.44 463.88l.63 1.45h-1.26zM540 387.8l.99 2.1-.63 1.34h-.72l-.63-1.34zM540.86 349.8h-1.72l.86-.47zM540.36 391.24l-.36.76-.36-.76z"/><path fill="#231f20" d="M534.03 375.11L540 387.8l-.99 2.1-6.59-14.03-14.79-2.26 1.54-1.57 13.51 2.06.95.14z"/><path fill="#231f20" d="M539.01 389.9l.63 1.34h-1.26zM534.21 451.8l-.91-.15-.37-.85zM532.15 377.63l-.95-.14-.4-.86zM531.9 434.98l.12.79-.54.59-9.06 10.06-1.97-.32 9.78-10.86-2.3-15.29 1.87 1.13z"/><path fill="#231f20" d="M529.8 421.08l-1.87-1.13-.21-1.37.57-.38 1.19.71zM529.49 360.43l.15.9-.64.64-9.83 10.07-2.18-.34 10.74-10.98-2.53-15.48 1.98 1.09z"/><path fill="#231f20" d="M529.27 417.54l.21 1.37-1.19-.71zM528.98 434.11l-.42 1.38-.12-.78zM528.29 418.2l-.57.38-.12-.79zM527.93 419.95l-1.19-.71.98-.66zM526.82 344.09l.36 2.24-1.98-1.09-.23-1.39.62-.44zM526.59 342.7l.23 1.39-1.23-.68zM526.45 359.47l-.49 1.54-.15-.89z"/><path fill="#231f20" d="M525.59 343.41l-.62.44-.14-.86zM524.97 343.85l.23 1.39-1.23-.68zM522.42 446.42l-1.34 1.5-1.06-.18-.29-.83.72-.81z"/><path fill="#231f20" d="M520.02 447.74l1.06.18-.72.8zM520.45 446.1l-.72.81-.35-.99zM519.73 446.91l.29.83-.91-.15zM519.17 372.04l-1.54 1.57-1.27-.19-.27-.8.9-.92z"/><path fill="#231f20" d="M517.63 373.61l-.9.92-.37-1.11zM516.99 371.7l-.9.92-.37-1.11zM516.09 372.62l.27.8-.91-.14zM496.04 471.97l2.32 2.58-3.42.57-16.311 2.7.41-.95-1.44 1.12 1.03-.17-7.34 16.939-1.75 4.021-1.74-4.021-7.34-16.939 1.021.17-1.431-1.12.41.95-16.31-2.7-3.431-.57 2.32-2.58 11.95-13.26.13.89.47-1.56-.6.67-2.83-18.77-.601-3.99 3.46 2.069 14.521 8.7-.98.59h1.96l-.979-.59 14.53-8.7 3.449-2.069-.6 3.99-2.82 18.76-.6-.66.46 1.56.14-.899 11.942 13.269zm-1.41 1.27l-.7-.771.391-1.1-1.2.2-11.04-12.25 2.59-17.221 1.35-.81-1.109-.75.13-.89-.771.46-1.109-.74-.23 1.55-13.39 8.021-13.39-8.021-.23-1.55-1.11.74-.77-.46.13.89-1.11.75 1.351.81L457 459.32l-11.03 12.25-1.2-.2.381 1.1-.69.771 1.021.17.39 1.1.81-.899 15.11 2.5 6.72 15.5-.71 1.63h1.41l.33.76.33-.76h1.42l-.71-1.641 6.71-15.489 15.11-2.5.81.899.39-1.1 1.028-.171z"/><path fill="#231f20" d="M493.93 472.47l.7.77-1.03.17zM494.32 471.37l-.39 1.1-.81-.9z"/><path fill="#231f20" d="M493.12 471.57l.81.9-.33.94-1.2.2-1.51-1.67zM493.6 473.41l-.39 1.1-.81-.9z"/><path fill="#231f20" d="M482.08 459.32l11.04 12.25-2.23.37-10.22-11.35-.6-.67.13-.89 2.36-15.67 2.11-1.26zM492.4 473.61l-15.11 2.5-6.71 15.49-1.03-2.39 6-13.86.41-.95 1.02-.17 13.91-2.29z"/><path fill="#fbed24" d="M480.67 460.59l10.22 11.35-13.91 2.29-1.02.17-.41.95-6 13.86-6.01-13.86-.42-.95-1.02-.17-13.91-2.3 10.22-11.34.6-.67-.13-.89-2.36-15.67 12.04 7.21.98.59.98-.59 12.04-7.21-2.36 15.67-.13.89z"/><path fill="#231f20" d="M486.02 441.29l-1.35.81.24-1.56zM485.04 439.65l-.13.89-.64-.43z"/><path fill="#231f20" d="M484.91 440.54l-.24 1.56-2.11 1.26.37-2.44 1.34-.81z"/><path fill="#231f20" d="M484.27 440.11l-1.34.81.23-1.55zM484.1 458.7l-.14.9-.46-1.56zM482.93 440.92l-.37 2.44-12.04 7.21-.98.59-.98-.59-12.04-7.21-.37-2.44 13.39 8.02zM479.04 476.87l-.41.95-1.03.17zM470.58 491.6l.71 1.64h-1.42z"/><path fill="#231f20" d="M469.55 489.21l1.03 2.39-.71 1.64h-.66l-.7-1.63zM470.52 447.31h-1.96l.98-.59zM469.87 493.24l-.33.76-.33-.76z"/><path fill="#231f20" d="M469.55 489.21l-1.04 2.4-6.72-15.5-15.11-2.5 1.51-1.68 13.91 2.3 1.02.17.42.95zM468.51 491.61l.7 1.63h-1.41z"/><path fill="#231f20" d="M461.48 477.99l-1.02-.17-.41-.95zM458.88 459.03l.13.89-.6.67-10.22 11.34-2.22-.36L457 459.32l-2.59-17.22 2.11 1.26z"/><path fill="#ed1e29" d="M458.99 328.09v10.08l-90.06-57.07v-1h18v1l71.97 46.99z"/><path fill="#fff" d="M458.99 318.09v10h-.09l-71.97-46.99v-1h13.99v1l57.98 36.99z"/><path fill="#394ea1" d="M458.99 280.1v37.99h-.09l-57.98-36.99v-1h57.98z"/><path fill="#fff" d="M458.99 265.11v14.99H350.94v58.07h-15v-73.06H458.9z"/><path fill="#ed1e29" d="M458.99 225.85v39.26H335.94v73.06h-47.25v-74.06H173.11v-37.26h113.58v-76.01h49.25v75.01z"/><path fill="#fff" d="M371.34 210.86H458.99v14.99H335.94v-75.01h15V210.86h5z"/><path fill="#394ea1" d="M458.99 170.14v40.72h-64.07v-.73l63.98-39.99z"/><path fill="#fff" d="M458.99 152.42v17.72h-.09l-63.98 39.99v.73h-23.58z"/><path fill="#ed1e29" d="M458.99 150.84v1.58l-87.65 58.44h-15.4v-.73l89.42-59.29zM458.99 148.32v2.52h-13.63l2.55-1.69v-.83z"/><path fill="#fff" d="M458.99 338.17h-26.08v-1.08l-81.97-49.99v-7h17.99v1z"/><path fill="#231f20" d="M456.15 440.92l.37 2.44-2.11-1.26-.24-1.56.64-.43zM456.15 440.92l-1.34-.81 1.11-.74zM455.59 458.04l-.47 1.56-.13-.89z"/><path fill="#231f20" d="M454.81 440.11l-.64.43-.13-.89zM454.17 440.54l.24 1.56-1.35-.81zM448.19 471.93l-1.51 1.68-1.2-.2-.33-.94.82-.9z"/><path fill="#fff" d="M447.91 148.32v.83l-2.55 1.69h-12.03l2.58-1.69v-.83z"/><path fill="#231f20" d="M446.68 473.61l-.81.9-.39-1.1zM445.97 471.57l-.82.9-.38-1.1zM445.15 472.47l.33.94-1.02-.17z"/><path fill="#fff" d="M445.36 150.84l-89.42 59.29v.73h-5v-6.73h1l81.39-53.29z"/><path fill="#394ea1" d="M435.91 148.32v.83l-2.58 1.69h-82.39v-2.52zM433.33 150.84l-81.39 53.29h-1v-53.29zM432.91 337.09v1.08h-81.97V287.1z"/><path fill="#fff" d="M335.94 148.32h15v2.52h-15z"/><path fill="#231f20" d="M286.69 148.32h-15V140.34h79.25V148.32h-15zM286.69 148.32h49.25v2.52h-49.25z"/><path fill="#fff" d="M288.69 338.09v.08h-14v-60.06H173.11v-14h115.58zM286.69 150.84v76.01H173.11v-14.99h98.58V150.84z"/><path fill="#231f20" d="M271.69 148.32h15v2.52h-15z"/><path fill="#394ea1" d="M274.69 337.09v1.08h-80.7v-.08l78.97-45.99h1.73z"/><path fill="#fff" d="M274.69 283.75v8.35h-1.73l-78.97 45.99v.08h-9v-2.08l89.03-52.34z"/><path fill="#ed1e29" d="M274.69 278.11v5.64h-.67l-89.03 52.34v2.08h-11.88v-7.14l90.86-51.92v-1z"/><path fill="#fff" d="M271.69 206.13v5.73h-17.72v-.73l-80.86-58.76v-1.53h24.13l73.73 55.29z"/><path fill="#394ea1" d="M271.69 150.84v55.29h-.72l-73.73-55.29zM271.69 148.32v2.52h-74.45l-2.25-1.69v-.83z"/><path fill="#231f20" d="M271.69 146.15v2.17h-98.58v-7.98h98.58z"/><path fill="#fff" d="M263.97 278.11v1l-90.86 51.92v-15.47l64.87-37.45z"/><path fill="#ed1e29" d="M253.97 211.13v.73h-17.99v-.73l-62.87-45.56v-13.2z"/><path fill="#394ea1" d="M237.98 278.11l-64.87 37.45v-37.45z"/><path fill="#fff" d="M235.98 211.13v.73h-12v-.73l-50.87-36.59v-8.97z"/><path fill="#394ea1" d="M223.98 211.13v.73h-50.87v-37.32z"/><path fill="#fff" d="M194.99 149.15l2.25 1.69h-24.13v-2.52h21.88z"/><path d="M141.92 52.59c27.34 0 48.76 16.86 48.76 38.38 0 12.1-6.77 22.73-17.57 29.71v-8.08h-7.07c8.63-5.1 14.14-12.9 14.14-21.63 0-15.4-17.13-27.88-38.26-27.88-21.12 0-38.25 12.48-38.25 27.88 0 9.57 6.62 18.01 16.7 23.03l-8.87.02.01 7.16c-11.24-6.98-18.34-17.82-18.34-30.21 0-21.52 21.42-38.38 48.75-38.38z" fill="#231f20"/><path d="M166.85 334.6l1.71 185.57v10.5h4.55v254.71h-10.5V125.85c3.8-1.37 7.33-3.11 10.5-5.17v9.16h-8.04v21h.1l.09 10.32.08 9 .39 41.7.13 14.99.35 37.26.13 14 .37 40.98.14 15.51z" fill="#231f20"/><path fill="#231f20" d="M168.56 520.17h4.55v10.5h-4.55z"/><path fill="#231f20" d="M168.56 509.67h4.55v10.5h-4.55z"/><path fill="#231f20" d="M173.11 338.17v171.5h-4.55v10.5l-1.71-185.57 6.26-3.57zM173.11 315.56v15.47l-6.26 3.57-.14-15.51h.29z"/><path fill="#231f20" d="M173.11 278.11v37.45l-6.11 3.53h-.29l-.37-40.98z"/><path fill="#231f20" d="M173.11 264.11v14h-6.77l-.13-14zM173.11 226.85v37.26h-6.9l-.35-37.26h.14z"/><path fill="#231f20" d="M173.11 211.86v14.99h-7.25l-.13-14.99h.27zM173.11 174.54v37.32H165.73l-.39-41.7 1.66-.02z"/><path fill="#231f20" d="M173.11 165.57v8.97l-6.11-4.4-1.66.02-.08-9 1.74-.02z"/><path fill="#231f20" d="M173.11 152.37v13.2l-6.11-4.43-1.74.02-.09-10.32H171z"/><path fill="#fff" d="M173.11 150.84v1.53l-2.11-1.53zM173.11 148.32v2.52H171l-3.47-2.52z"/><path fill="#231f20" d="M173.11 140.34v7.98h-5.58l3.47 2.52h-5.83l-.1-10.5zM165.07 129.84h8.04v10.5h-8.04zM173.11 112.6v8.08c-3.17 2.06-6.7 3.8-10.5 5.17v-11.43c1.19-.56 2.34-1.16 3.43-1.82h7.07zM141.92 63.09c21.13 0 38.26 12.48 38.26 27.88 0 8.73-5.51 16.53-14.14 21.63h-13.93v5.24c-3.24.66-6.66 1.01-10.19 1.01-3.25 0-6.4-.29-9.41-.86l-.01-4.01-10.5.02h-1.63c-10.08-5.02-16.7-13.46-16.7-23.03 0-15.4 17.13-27.88 38.25-27.88zm27.76 27.88c0-9.26-12.97-17.38-27.76-17.38-14.78 0-27.75 8.12-27.75 17.38s12.97 17.38 27.75 17.38c14.79 0 27.76-8.12 27.76-17.38z"/><path d="M162.61 112.6h3.43c-1.09.66-2.24 1.26-3.43 1.82v-1.82zM165.07 140.34l.1 10.5h-.1zM162.61 125.85v659.53h-10.5V128.54c3.68-.59 7.2-1.5 10.5-2.69z" fill="#231f20"/><path d="M162.61 114.42v11.43c-3.3 1.19-6.82 2.1-10.5 2.69v-10.7c3.77-.75 7.3-1.91 10.5-3.42z" fill="#231f20"/><path d="M162.61 112.6v1.82c-3.2 1.51-6.73 2.67-10.5 3.42v-5.24h10.5z" fill="#231f20"/><path d="M141.92 73.59c14.79 0 27.76 8.12 27.76 17.38s-12.97 17.38-27.76 17.38c-14.78 0-27.75-8.12-27.75-17.38s12.97-17.38 27.75-17.38z" fill="#c8c8c8"/><path d="M152.11 117.84v10.7c-3.27.53-6.68.81-10.19.81-3.22 0-6.37-.23-9.4-.69l-.01-10.67c3.01.57 6.16.86 9.41.86 3.53 0 6.95-.35 10.19-1.01zM132.52 128.66l1.1 656.7-10.5.02-1.1-659.26c3.31 1.14 6.83 2 10.5 2.54z" fill="#231f20"/><path d="M132.51 117.99l.01 10.67c-3.67-.54-7.19-1.4-10.5-2.54l-.02-11.35c3.22 1.44 6.76 2.54 10.51 3.22z" fill="#231f20"/><path d="M132.5 113.98l.01 4.01c-3.75-.68-7.29-1.78-10.51-3.22V114l10.5-.02zM122.02 126.12l1.1 659.26-10.5.021-1.11-664.22c3.19 1.979 6.72 3.649 10.51 4.939z" fill="#231f20"/><path d="M122 114.77l.02 11.35c-3.79-1.29-7.32-2.96-10.51-4.94l-.01-7.16 8.87-.02c.53.27 1.08.53 1.63.77z" fill="#231f20"/><path d="M122 114v.77c-.55-.24-1.1-.5-1.63-.77H122z" fill="#231f20"/><g fill="none" stroke="#231f20"><path stroke-width="10.497" d="M276.88 338.17h-107.6M167.53 148.32h291.46V338.17H276.88"/><path stroke-width="3.499" d="M459.9 225.85H335.94v-79.7M286.69 147.15v79.7H166M166 264.11h122.69v73.98M335.94 336.09v-70.98H458.9"/><path stroke-width="3.499" d="M271.69 146.15v65.71H166M459.9 210.86H350.94v-64.71M165 278.11h109.69V337.09M350.94 337.09V280.1H458.9"/><path stroke-width="3.499" d="M194.99 149.15l2.25 1.69 73.73 55.29M167.53 148.32l3.47 2.52 2.11 1.53 80.86 58.76M167 161.14l6.11 4.43 62.87 45.56M167 170.14l6.11 4.4 50.87 36.59M351.94 204.13l81.39-53.29 2.58-1.69M355.94 210.13l89.42-59.29 2.55-1.69M370.93 211.13l.41-.27 87.65-58.44 1.91-1.27M394.92 210.13l63.98-39.99M184.99 336.09l89.03-52.34M166 335.09l.85-.49 6.26-3.57 90.86-51.92M272.96 292.1l-78.97 45.99M167 319.09l6.11-3.53 64.87-37.45M458.99 338.17l-90.06-57.07M350.94 287.1l81.97 49.99M386.93 281.1l71.97 46.99M400.92 281.1l57.98 36.99"/><path stroke-width="4" d="M692.67 178.46l-.9.54h1.8z"/><path stroke-width="4" d="M706.07 189.5l2.6-17.29.56-3.67-3.19 1.91-13.37 8.01"/><path stroke-width="4" d="M706.07 189.5l-.55-.61.43 1.43z"/><path stroke-width="4" d="M701.03 207.09l15.02-2.48 3.16-.52-2.14-2.38-11-12.21"/><path stroke-width="4" d="M701.03 207.09l.38-.87-1.32 1.03z"/><path stroke-width="4" d="M684.3 207.09l6.76 15.61 1.61 3.71 1.6-3.71 6.76-15.61"/><path stroke-width="4" d="M684.3 207.09l.94.16-1.32-1.03z"/><path stroke-width="4" d="M679.26 189.51l-11 12.2-2.14 2.38 3.16.52 15.02 2.48"/><path stroke-width="4" d="M679.26 189.51l.12.81.44-1.43z"/><path stroke-width="4" d="M692.67 178.46l-13.38-8.01-3.19-1.91.56 3.67 2.6 17.3M643.67 215.85l-.96.57h1.91z"/><path stroke-width="4" d="M657.88 227.55l2.75-18.32.59-3.89-3.38 2.02-14.17 8.49"/><path stroke-width="4" d="M657.88 227.55l-.59-.65.46 1.52z"/><path stroke-width="4" d="M652.53 246.21l15.93-2.64 3.34-.56-2.27-2.52-11.65-12.94"/><path stroke-width="4" d="M652.53 246.21l.4-.94-1.4 1.1z"/><path stroke-width="4" d="M634.8 246.21l7.16 16.53 1.71 3.93 1.7-3.93 7.16-16.53"/><path stroke-width="4" d="M634.8 246.21l1 .16-1.4-1.1z"/><path stroke-width="4" d="M629.46 227.55l-11.66 12.94-2.27 2.52 3.35.56 15.92 2.64"/><path stroke-width="4" d="M629.46 227.55l.13.87.45-1.52z"/><path stroke-width="4" d="M643.67 215.85l-14.18-8.49-3.38-2.02.59 3.89 2.76 18.32M589.99 245.46l-.92.55h1.84z"/><path stroke-width="4" d="M603.71 256.75l2.66-17.69.56-3.75-3.26 1.95-13.68 8.2"/><path stroke-width="4" d="M603.71 256.75l-.57-.63.44 1.47z"/><path stroke-width="4" d="M598.55 274.75l15.37-2.54 3.23-.54-2.2-2.43-11.24-12.49"/><path stroke-width="4" d="M598.55 274.75l.39-.89-1.36 1.05z"/><path stroke-width="4" d="M581.43 274.75l6.91 15.96 1.65 3.8 1.64-3.8 6.92-15.96"/><path stroke-width="4" d="M581.43 274.75l.96.16-1.35-1.05z"/><path stroke-width="4" d="M576.27 256.75l-11.25 12.49-2.19 2.43 3.23.54 15.37 2.54"/><path stroke-width="4" d="M576.27 256.75l.13.84.44-1.47z"/><path stroke-width="4" d="M589.99 245.46l-13.69-8.2-3.26-1.95.57 3.75 2.66 17.69M709.67 318.36l-14.82-9.41 2.83 19.92-11.99 14.1 16.57 2.91 7.41 18.12 7.41-18.12 16.57-2.91-11.99-14.1 2.83-19.92zM541.36 424.06l-.87.52h1.73z"/><path stroke-width="4" d="M554.27 434.71l2.5-16.66.54-3.54-3.07 1.84-12.88 7.71"/><path stroke-width="4" d="M554.27 434.71l-.54-.6.42 1.38z"/><path stroke-width="4" d="M549.41 451.65l14.47-2.4 3.04-.5-2.06-2.29-10.59-11.75"/><path stroke-width="4" d="M549.41 451.65l.37-.85-1.28 1z"/><path stroke-width="4" d="M533.3 451.65l6.51 15.02 1.55 3.57 1.54-3.57 6.51-15.02"/><path stroke-width="4" d="M533.3 451.65l.91.15-1.28-1z"/><path stroke-width="4" d="M528.44 434.71l-10.59 11.75-2.06 2.29 3.04.5 14.47 2.4"/><path stroke-width="4" d="M528.44 434.71l.12.78.42-1.38z"/><path stroke-width="4" d="M541.36 424.06l-12.89-7.71-3.07-1.84.54 3.54 2.5 16.66M469.54 446.72l-.98.59h1.96z"/><path stroke-width="4" d="M484.1 458.7l2.82-18.76.6-3.99-3.45 2.07-14.53 8.7"/><path stroke-width="4" d="M484.1 458.7l-.6-.66.46 1.56z"/><path stroke-width="4" d="M478.63 477.82l16.31-2.7 3.42-.57-2.32-2.58-11.94-13.27"/><path stroke-width="4" d="M478.63 477.82l.41-.95-1.44 1.12z"/><path stroke-width="4" d="M460.46 477.82l7.34 16.94 1.74 4.02 1.75-4.02 7.34-16.94"/><path stroke-width="4" d="M460.46 477.82l1.02.17-1.43-1.12z"/><path stroke-width="4" d="M454.99 458.71l-11.95 13.26-2.32 2.58 3.43.57 16.31 2.7"/><path stroke-width="4" d="M454.99 458.71l.13.89.47-1.56z"/><path stroke-width="4" d="M469.54 446.72l-14.52-8.7-3.46-2.07.6 3.99 2.83 18.77M540 349.33l-.86.47h1.72z"/><path stroke-width="4" d="M554.19 360.12l2.74-16.84.59-3.63-3.21 1.78-14.31 7.9"/><path stroke-width="4" d="M554.19 360.12l-.64-.65.49 1.54z"/><path stroke-width="4" d="M548.8 377.49l16.02-2.44 3.44-.53-2.44-2.49-11.63-11.91"/><path stroke-width="4" d="M548.8 377.49l.4-.86-1.35 1z"/><path stroke-width="4" d="M531.2 377.49l7.18 15.27 1.62 3.44 1.62-3.44 7.18-15.27"/><path stroke-width="4" d="M531.2 377.49l.95.14-1.35-1z"/><path stroke-width="4" d="M525.81 360.12l-11.63 11.91-2.44 2.49 3.44.53 16.02 2.44"/><path stroke-width="4" d="M525.81 360.12l.15.89.49-1.54z"/><path stroke-width="4" d="M540 349.33l-14.31-7.9-3.22-1.78.6 3.63 2.74 16.84"/></g><path fill="#fbed24" stroke="#000" stroke-width="4" stroke-linecap="round" stroke-linejoin="round" d="M657.67 362.359l-14.82-9.409 2.83 19.92-11.99 14.101 16.57 2.909 7.41 18.12 7.41-18.12 16.57-2.909-11.99-14.101 2.83-19.92z"/><path fill="#faec25" stroke="#000" stroke-width="4" stroke-linecap="round" stroke-linejoin="round" d="M607.67 392.359l-14.82-9.409 2.83 19.92-11.99 14.101 16.57 2.909 7.41 18.12 7.41-18.12 16.57-2.909-11.99-14.101 2.83-19.92z"/><path fill="none" d="M0 0h850.394v850.394H0z"/></svg>