<svg xmlns="http://www.w3.org/2000/svg" width="850.394" height="850.394" viewBox="0 0 850.394 850.394" overflow="visible"><path d="M436.52 420.62c.54.37 1.03.79 1.431 1.29-11.12-.72-17.46 3.33-19.49 11.689 13.87 2.19 16.4-6.989 25.34-9.74 5.181 1.32 9.92 3.07 13.641 5.85.22 4.3-14.921 3.021-7.801 7.79 6.07-11.38 21.92-.33 27.29-1.95-2.79-3.05-10.16-1.53-9.739-7.79 6.119-1.02 10.869-3.42 15.59-5.85 4.75 6.939 9.979 13.41 23.39 11.689-.79-10.26-11.97-10.12-19.49-13.64l-4.04.37-38.84 3.53-7.282-3.238zm311.66-243.16v342.71H168.56l-3.49-379.83h583.11v37.12zM422.09 414.84l-1.02-.21c4.04-9.74-.81-23.09-10.41-23.91-2.88 13.28 7.92 12.88 7.8 23.39-9.97-.22-16.17 3.32-19.49 9.75 11.26 3.99 18.52-3.85 27.28-7.8 1.68 1.56 4.3 2.19 6.74 3l3.51 1.55c-1.02-.67-2.24-1.13-3.51-1.55l-6.74-3-4.38-1.1c.07-.04.14-.08.22-.12zm.01 0l9 1.8c1.98.98 4.16 1.78 6.851 1.37h1.95c.979-12.03-2.7-19.39-11.7-21.44-1.351 11.75 4.88 15.91 9.75 21.44l-6.851-1.37c-3.16-1.56-5.77-3.58-9-1.8zm183.61-194.82h-.41c-.03-.17-.069-.34-.109-.52-3.95 1.58-18.48 7.02-21.221 8.8-1.85 1.2-3.22 3.31-5.17 4.66-5.35 3.69-13.47 7.23-20.71 10.87-11.609 5.84-19.29 10.81-34.67 10.35-12.07 11.45-36.61 8.26-54.86 6.21-12.439-1.4-20.38-3.79-25.359 2.59-.681 10.7-1.15 22.41-10.36 22.25-5.07-.08-11.11-6.15-18.11-5.69-3.86.25-5.61 2.56-9.83 2.59-4.59 5.57-7.33 17.28-17.08 15.52-4.71-.85-4.06-5.58-9.32-6.73-1.41 15.51 7.51 29.33 12.42 41.93 3.94 3.39 8.63 5.54 14.49 7.76.3.11.61.24.93.37 4.92 2.03 10.71 5.6 15.64 5.32 3.67-.2 6.62-3.36 10.86-3.62 6.54-.39 13.66 2.82 19.15 1.55 3.41-.78 5.24-4.25 8.8-5.17 1.01-.26 2.44-.45 3.63-.52.98-.06 1.95-.1 2.91-.14h.01c1.18.11 2.42.21 3.8.14 1.62-.08 3.2-.25 4.761-.51 3.609-.27 7.159-.81 10.77-2.08 5.37-1.89 20.271-8.63 23.29-11.9 4.1-4.43.9-12.89 6.21-16.56 4.82-3.34 13.66-1.51 18.12 3.1 3.2-.46 4.02-3.59 7.24-4.66 5.29-1.74 10.189.79 15.529 1.56-1.96-13.15-16.939-14.73-18.63-26.92-.97-6.98 2.54-12.81 6.21-16.04 7.23-6.39 18.21-11.79 28.641-17.96.02-.01.029-.02.05-.03 1.33-.69 2.64-1.42 3.91-2.2 1.5-.91 2.95-1.93 4.359-3 4.2-2.76 8.431-5.7 12.21-8.38 4.4-3.12 11.04-6.24 11.551-11.22 0-.01 0-.02.01-.03.158-.53.278-1.09.338-1.69zm-41.07 155.11c10.561.12 17.78-13.34 15.591-19.49-6.371 5.33-14.641 8.75-15.591 19.49zm11.69 11.7c-7.99-5.94-13.58-1.39-23.38 0 4.28-3.59 9.3-16.59 3.89-23.39-6.63 5.38-8.7 13.62-6.63 23.93a46 46 0 0 0 .79 3.35c8.75 2.45 21.47 3.62 25.33-3.89zm-38.98 13.64c6.471 3.88 18.721 9.18 25.341 1.95-4.61-5.78-16.011-4.78-23.391-7.8 3.07-4.73 7.271-8.32 5.851-17.54-2.58-.02-1.78-3.42-3.9-3.9-6.651 5.15-6.911 17.7-3.901 27.29zm-19.49 7.8c4.21 5.59 18.069 11.74 27.29 5.84-10-7.46-16.96-5.4-19.49-11.69.39.96 7.33-9.1 1.95-19.49-7.66 4.03-7.3 16.09-9.75 25.34zm5.85 15.59c.4-10.74-22.53-6.54-17.54-15.59 7.04-1.41 7-9.89 7.79-17.55-12.11.63-12.04 21.59-17.26 26.34-.71.2-1.45.51-2.23.95.851-.02 1.58-.36 2.23-.95 8.73-2.5 12.32 11.38 27.01 6.8zm-37.03-7.8c7.271.04 10.82-13.75 5.84-19.49-5.14 9.68-10.579 8.37-7.789 23.39l1.949-3.9zm-79.92-9.74c-.58-1.61-1.04-3.35-1.44-5.14-1.76-7.75-2.69-16.32-10.25-18.25-4.25 7.25 3.11 23.89 5.85 19.49-3.94 7.11-18 4.09-19.49 13.64 13.32-.13 18.83-.4 25.33-9.74zm-21.58-7.22c5.6-8.05 5.67-20.26-3.75-25.92-6 8.42 1.67 17.01 3.89 23.39-.16-.06-.33-.12-.5-.18-6.14-1.98-20.14 1.24-22.89 7.98 10.06 5.3 18.59 1.46 23.25-5.27zm-11.01-12.02c1.46-10.89.67-19.47-8.34-23.64-3.15 10.72 4.65 19.89 4.01 23.04-.02.13-.06.24-.11.35-6.92-3.31-17.48-5.72-21.44 1.95 6.52 4.46 16.71 4.5 25.34 1.94.2-1.24.39-2.45.54-3.64zm-31.73-29.49c2.78 8.92 6.75 16.64 17.55 17.54-.8-9.65-11.14-19.99-17.55-17.54z" fill="#fff"/><path d="M605.3 220.02h.41c-.06.6-.18 1.16-.34 1.69.05-.54.03-1.1-.07-1.69z"/><path d="M605.3 220.02c.101.59.12 1.15.07 1.69-.01.01-.01.02-.01.03-1.65 5.24-8.13 7.69-13.11 11.22-3.45 2.45-6.93 5.58-10.65 8.38-1.29.86-2.569 1.69-3.84 2.49-1.46.92-2.939 1.82-4.43 2.71-.021.01-.03.02-.05.03-4.38 2.3-8.98 4.32-13.11 7.09-8.84 5.92-24.37 11.72-22.26 26.91 1.64 11.8 15.85 13.97 18.63 25.88-4.67.13-9.53-2.8-15.01-1.03-3.37 1.09-3.98 4.06-7.24 4.65-3.23-3.65-9.72-5.61-15.01-4.65-8.761 1.58-5.891 13.12-9.84 18.63-9.671 4.13-20.601 11.86-33.54 13.98-2.79.21-5.62.26-8.561.37h-.01c-2.2-.2-4.21-.46-6.54.14-3.62.94-5 4.3-8.8 5.18-5.61 1.29-12.91-1.93-19.15-1.56-4.16.25-7.85 3.46-10.86 3.63-4.5.25-10.91-2.92-15.64-4.81-.32-.13-.63-.26-.93-.37-5.47-2.08-10.18-5.28-13.97-7.76-4.88-12.43-13.67-26.28-12.42-41.41 4.45 1.64 4.41 5.94 8.8 6.73 9.42 1.7 13.07-9.82 17.08-15.53 4.21-.02 6-2.33 9.83-2.58 7-.47 13.01 5.6 18.11 5.69 9.43.16 10.28-11.75 10.87-22.77 4.69-5.87 13.58-3.34 24.85-2.07 17.91 2.01 42.83 5.28 54.86-6.22 15.05.57 23.34-4.65 34.67-10.35 7.311-3.67 15.23-7.16 20.71-10.86 1.96-1.33 3.271-3.42 5.17-4.66 6.12-3.99 13.82-4.86 20.19-8.8h1.141z" fill="#f6cc4b"/><path d="M605.3 220.02H604.16c-6.37 3.94-14.07 4.81-20.19 8.8-1.899 1.24-3.21 3.33-5.17 4.66-5.479 3.7-13.399 7.19-20.71 10.86-11.33 5.7-19.62 10.92-34.67 10.35-12.03 11.5-36.95 8.23-54.86 6.22-11.27-1.27-20.159-3.8-24.85 2.07-.59 11.02-1.44 22.93-10.87 22.77-5.1-.09-11.11-6.16-18.11-5.69-3.83.25-5.62 2.56-9.83 2.58-4.01 5.71-7.66 17.23-17.08 15.53-4.39-.79-4.35-5.09-8.8-6.73-1.25 15.13 7.54 28.98 12.42 41.41 3.79 2.48 8.5 5.68 13.97 7.76-5.86-2.22-10.55-4.37-14.49-7.76-4.91-12.6-13.83-26.42-12.42-41.93 5.26 1.15 4.61 5.88 9.32 6.73 9.75 1.76 12.49-9.95 17.08-15.52 4.22-.03 5.97-2.34 9.83-2.59 7-.46 13.04 5.61 18.11 5.69 9.21.16 9.68-11.55 10.36-22.25 4.979-6.38 12.92-3.99 25.359-2.59 18.25 2.05 42.79 5.24 54.86-6.21 15.38.46 23.061-4.51 34.67-10.35 7.24-3.64 15.36-7.18 20.71-10.87 1.95-1.35 3.32-3.46 5.17-4.66 2.74-1.78 17.271-7.22 21.221-8.8.04.18.08.35.11.52zM592.25 232.96c4.98-3.53 11.46-5.98 13.11-11.22-.511 4.98-7.15 8.1-11.551 11.22-3.779 2.68-8.01 5.62-12.21 8.38 3.721-2.8 7.201-5.93 10.651-8.38z"/><path d="M580.23 355.64c2.189 6.15-5.03 19.61-15.591 19.49.951-10.74 9.221-14.16 15.591-19.49z" fill="#58b947"/><path d="M577.76 243.83c1.271-.8 2.55-1.63 3.84-2.49-1.409 1.07-2.859 2.09-4.359 3a62.51 62.51 0 0 1-3.91 2.2c1.489-.89 2.969-1.79 4.429-2.71zM560.17 253.66c4.13-2.77 8.73-4.79 13.11-7.09-10.431 6.17-21.41 11.57-28.641 17.96-3.67 3.23-7.18 9.06-6.21 16.04 1.69 12.19 16.67 13.77 18.63 26.92-5.34-.77-10.239-3.3-15.529-1.56-3.221 1.07-4.04 4.2-7.24 4.66-4.46-4.61-13.3-6.44-18.12-3.1-5.31 3.67-2.11 12.13-6.21 16.56-3.02 3.27-17.92 10.01-23.29 11.9-3.61 1.27-7.16 1.81-10.77 2.08 12.939-2.12 23.869-9.85 33.54-13.98 3.949-5.51 1.079-17.05 9.84-18.63 5.29-.96 11.779 1 15.01 4.65 3.26-.59 3.87-3.56 7.24-4.65 5.479-1.77 10.34 1.16 15.01 1.03-2.78-11.91-16.99-14.08-18.63-25.88-2.11-15.19 13.42-20.99 22.26-26.91z"/><path d="M552.95 386.83c9.8-1.39 15.39-5.94 23.38 0-3.86 7.51-16.58 6.34-25.33 3.89a46 46 0 0 1-.79-3.35l2.74-.54z" fill="#58b947"/><path d="M556.84 363.44c5.41 6.8.391 19.8-3.89 23.39l-2.74.54c-2.07-10.31 0-18.55 6.63-23.93z" fill="#58b947"/><path d="M562.69 402.42c-6.62 7.23-18.87 1.93-25.341-1.95-3.01-9.59-2.75-22.14 3.9-27.29l-1.95 21.44c7.381 3.02 18.781 2.02 23.391 7.8z" fill="#58b947"/><path d="M545.15 377.08c1.42 9.22-2.78 12.81-5.851 17.54l1.95-21.44c2.121.48 1.321 3.88 3.901 3.9zM545.15 414.11c-9.221 5.9-23.08-.25-27.29-5.84 2.449-9.25 2.09-21.31 9.75-25.34 5.38 10.39-1.561 20.45-1.95 19.49 2.53 6.29 9.49 4.23 19.49 11.69z" fill="#58b947"/><path d="M506.17 408.27c-4.99 9.05 17.94 4.85 17.54 15.59-14.69 4.581-18.28-9.3-27.01-6.8 5.22-4.75 5.149-25.71 17.26-26.34-.79 7.66-.75 16.14-7.79 17.55zM506.17 433.6c-13.41 1.721-18.64-4.75-23.39-11.689l-.141-1.58 4.04-.37c7.521 3.519 18.701 3.379 19.491 13.639z" fill="#58b947"/><path d="M494.47 418.01c.78-.44 1.521-.75 2.23-.95-.65.59-1.38.93-2.23.95z" fill="#fff"/><path d="M492.52 396.57c4.98 5.74 1.431 19.53-5.84 19.49l-1.949 3.9c-2.791-15.02 2.649-13.71 7.789-23.39z" fill="#58b947"/><path d="M482.64 420.33l.141 1.58c-4.721 2.43-9.471 4.83-15.59 5.85-.421 6.26 6.949 4.74 9.739 7.79-5.37 1.62-21.22-9.43-27.29 1.95-7.12-4.77 8.021-3.49 7.801-7.79-3.721-2.78-8.46-4.53-13.641-5.85l38.84-3.53z" fill="#fff"/><path d="M467.34 338.4c2.94-.11 5.771-.16 8.561-.37-1.561.26-3.141.43-4.761.51-1.38.07-2.62-.03-3.8-.14zM467.33 338.4c-.96.04-1.93.08-2.91.14-1.189.07-2.62.26-3.63.52-3.56.92-5.39 4.39-8.8 5.17-5.49 1.27-12.61-1.94-19.15-1.55-4.24.26-7.19 3.42-10.86 3.62-4.93.28-10.72-3.29-15.64-5.32 4.73 1.89 11.14 5.06 15.64 4.81 3.01-.17 6.7-3.38 10.86-3.63 6.24-.37 13.54 2.85 19.15 1.56 3.8-.88 5.18-4.24 8.8-5.18 2.33-.6 4.34-.34 6.54-.14z"/><path d="M436.52 420.62l7.28 3.24c-8.939 2.75-11.47 11.93-25.34 9.74 2.03-8.359 8.37-12.41 19.49-11.689-.4-.501-.89-.921-1.43-1.291zM428.2 396.57c9 2.05 12.68 9.41 11.7 21.44h-1.95c-4.87-5.53-11.1-9.69-9.75-21.44z" fill="#58b947"/><path d="M431.1 416.64l6.851 1.37c-2.691.41-4.871-.39-6.851-1.37zM436.5 420.61l-3.51-1.55c1.27.42 2.49.88 3.51 1.55zM426.25 416.06l6.74 3c-2.44-.81-5.06-1.44-6.74-3zM431.1 416.64l-9-1.8c3.23-1.78 5.84.24 9 1.8z" fill="#fff"/><path d="M421.87 414.96l4.38 1.1c-8.76 3.95-16.02 11.79-27.28 7.8 3.32-6.43 9.52-9.97 19.49-9.75l2.56.64c-.18.45-.38.88-.61 1.31.5-.45.99-.81 1.46-1.1z" fill="#58b947"/><path d="M422.09 414.84c-.08.04-.15.08-.22.12l-.85-.21c.03-.04.04-.08.05-.12l1.02.21z" fill="#fff"/><path d="M421.02 414.75l.85.21c-.47.29-.96.65-1.46 1.1.23-.43.43-.86.61-1.31z" fill="#fff"/><path d="M410.66 390.72c9.6.82 14.45 14.17 10.41 23.91l-2.61-.52c.12-10.51-10.68-10.11-7.8-23.39z" fill="#58b947"/><path d="M421.07 414.63c-.01.04-.02.08-.05.12l-2.56-.64 2.61.52z" fill="#fff"/><path d="M405.32 401.18c.4 1.79.86 3.53 1.44 5.14-6.5 9.34-12.01 9.61-25.33 9.74 1.49-9.55 15.55-6.53 19.49-13.64l4.4-1.24z" fill="#58b947"/><path d="M405.32 401.18l-4.4 1.24c-2.74 4.4-10.1-12.24-5.85-19.49 7.56 1.93 8.49 10.5 10.25 18.25zM381.43 373.18c9.42 5.66 9.35 17.87 3.75 25.92l-.36-2.71c.17.06.34.12.5.18-2.22-6.38-9.89-14.97-3.89-23.39z" fill="#58b947"/><path d="M384.82 396.39l.36 2.71c-4.66 6.73-13.19 10.57-23.25 5.27 2.75-6.74 16.75-9.96 22.89-7.98zM365.83 363.44c9.01 4.17 9.8 12.75 8.34 23.64l-4.33-.6c.64-3.15-7.16-12.32-4.01-23.04z" fill="#58b947"/><path d="M369.84 386.48l4.33.6c-.15 1.19-.34 2.4-.54 3.64-8.63 2.56-18.82 2.52-25.34-1.94 3.96-7.67 14.52-5.26 21.44-1.95.05-.11.09-.22.11-.35zM359.99 375.13c-10.8-.9-14.77-8.62-17.55-17.54 6.41-2.45 16.75 7.89 17.55 17.54z" fill="#58b947"/><path d="M162.61 114.42c-5.96 2.8-13.07 4.43-20.69 4.43-7.3 0-14.12-1.49-19.92-4.08-10.99-4.89-18.33-13.72-18.33-23.8 0-15.4 17.13-27.88 38.25-27.88 21.13 0 38.26 12.48 38.26 27.88 0 9.84-7 18.49-17.57 23.45z" fill="#c8c8c8"/><path d="M162.61 114.42v670.96h-39.49L122 114.77c5.8 2.59 12.62 4.08 19.92 4.08 7.62 0 14.73-1.63 20.69-4.43z" fill="#c8c8c8"/><g fill="none" stroke="#231f20"><path stroke-width="21" d="M165.07 140.34h583.11v379.83H168.56M122 114.77c-10.99-4.89-18.33-13.72-18.33-23.8 0-15.4 17.13-27.88 38.25-27.88 21.13 0 38.26 12.48 38.26 27.88 0 9.84-7 18.49-17.57 23.45-5.96 2.8-13.07 4.43-20.69 4.43-7.3 0-14.12-1.49-19.92-4.08z"/><path stroke-width="21" d="M122 114v.77l1.12 670.61M162.61 112.6V785.38"/><path stroke-width="14" d="M744.76 179.39l3.42-1.93 2.01-1.14"/><path d="M359.99 375.13c-.8-9.65-11.14-19.99-17.55-17.54 2.78 8.92 6.75 16.64 17.55 17.54zM564.64 375.13c10.561.12 17.78-13.34 15.591-19.49-6.371 5.33-14.641 8.75-15.591 19.49z" stroke-width="4"/><path d="M373.63 390.72c.2-1.24.39-2.45.54-3.64 1.46-10.89.67-19.47-8.34-23.64-3.15 10.72 4.65 19.89 4.01 23.04-.02.13-.06.24-.11.35-6.92-3.31-17.48-5.72-21.44 1.95 6.52 4.46 16.71 4.5 25.34 1.94M552.95 386.83c4.28-3.59 9.3-16.59 3.89-23.39-6.63 5.38-8.7 13.62-6.63 23.93a46 46 0 0 0 .79 3.35c8.75 2.45 21.47 3.62 25.33-3.89-7.99-5.94-13.58-1.39-23.38 0" stroke-width="4"/><path d="M385.18 399.1c5.6-8.05 5.67-20.26-3.75-25.92-6 8.42 1.67 17.01 3.89 23.39-.16-.06-.33-.12-.5-.18-6.14-1.98-20.14 1.24-22.89 7.98 10.06 5.3 18.59 1.46 23.25-5.27zM541.25 373.18c-6.65 5.15-6.91 17.7-3.9 27.29 6.471 3.88 18.721 9.18 25.341 1.95-4.61-5.78-16.011-4.78-23.391-7.8" stroke-width="4"/><path d="M539.3 394.62c3.07-4.73 7.271-8.32 5.851-17.54-2.58-.02-1.78-3.42-3.9-3.9M406.76 406.32c-.58-1.61-1.04-3.35-1.44-5.14-1.76-7.75-2.69-16.32-10.25-18.25-4.25 7.25 3.11 23.89 5.85 19.49-3.94 7.11-18 4.09-19.49 13.64 13.32-.13 18.83-.4 25.33-9.74M525.66 402.42c.39.96 7.33-9.1 1.95-19.49-7.66 4.03-7.301 16.09-9.75 25.34 4.21 5.59 18.069 11.74 27.29 5.84-10-7.46-16.96-5.4-19.49-11.69zM421.02 414.75c.03-.04.04-.08.05-.12 4.04-9.74-.81-23.09-10.41-23.91-2.88 13.28 7.92 12.88 7.8 23.39M422.09 414.84c-.08.04-.15.08-.22.12M437.95 418.01c-2.69.41-4.87-.39-6.851-1.37-3.159-1.56-5.77-3.58-9-1.8M422.09 414.84h.01M439.9 418.01c.979-12.03-2.7-19.39-11.7-21.44-1.351 11.75 4.88 15.91 9.75 21.44M486.68 416.06c7.271.04 10.82-13.75 5.84-19.49-5.14 9.68-10.579 8.37-7.789 23.39M443.8 423.86c5.181 1.32 9.92 3.07 13.641 5.85.22 4.3-14.921 3.021-7.801 7.79 6.07-11.38 21.92-.33 27.29-1.95-2.79-3.05-10.16-1.53-9.739-7.79 6.119-1.02 10.869-3.42 15.59-5.85 4.75 6.939 9.979 13.41 23.39 11.689-.79-10.26-11.97-10.12-19.49-13.64M436.52 420.62c.54.37 1.03.79 1.431 1.29-11.12-.72-17.46 3.33-19.49 11.689 13.87 2.19 16.4-6.989 25.34-9.74M426.25 416.06c1.68 1.56 4.3 2.19 6.74 3 1.27.42 2.49.88 3.51 1.55M436.52 420.62l-.02-.01M418.46 414.11c-9.97-.22-16.17 3.32-19.49 9.75 11.26 3.99 18.52-3.85 27.28-7.8M496.7 417.06c-.71.2-1.45.51-2.23.95.85-.02 1.58-.36 2.23-.95z" stroke-width="4"/><path d="M496.7 417.06c5.22-4.75 5.149-25.71 17.26-26.34-.79 7.66-.75 16.14-7.79 17.55-4.99 9.05 17.94 4.85 17.54 15.59-14.69 4.58-18.28-9.3-27.01-6.8z" stroke-width="4"/><path d="M467.33 338.4c-.96.04-1.93.08-2.91.14-1.189.07-2.62.26-3.63.52-3.56.92-5.39 4.39-8.8 5.17-5.49 1.27-12.61-1.94-19.15-1.55-4.24.26-7.19 3.42-10.86 3.62-4.93.28-10.72-3.29-15.64-5.32M573.28 246.57c-10.431 6.17-21.41 11.57-28.641 17.96-3.67 3.23-7.18 9.06-6.21 16.04 1.69 12.19 16.67 13.77 18.63 26.92-5.34-.77-10.239-3.3-15.529-1.56-3.221 1.07-4.04 4.2-7.24 4.66-4.46-4.61-13.3-6.44-18.12-3.1-5.31 3.67-2.11 12.13-6.21 16.56-3.02 3.27-17.92 10.01-23.29 11.9-3.61 1.27-7.16 1.81-10.77 2.08-2.79.21-5.62.26-8.561.37M605.36 221.74c-.511 4.98-7.15 8.1-11.551 11.22-3.779 2.68-8.01 5.62-12.21 8.38-1.29.86-2.569 1.69-3.84 2.49-1.46.92-2.939 1.82-4.43 2.71M405.41 340.61c-5.86-2.22-10.55-4.37-14.49-7.76-4.91-12.6-13.83-26.42-12.42-41.93 5.26 1.15 4.61 5.88 9.32 6.73 9.75 1.76 12.49-9.95 17.08-15.52 4.22-.03 5.97-2.34 9.83-2.59 7-.46 13.04 5.61 18.11 5.69 9.21.16 9.68-11.55 10.36-22.25 4.979-6.38 12.92-3.99 25.359-2.59 18.25 2.05 42.79 5.24 54.86-6.21 15.38.46 23.061-4.51 34.67-10.35 7.24-3.64 15.36-7.18 20.71-10.87 1.95-1.35 3.32-3.46 5.17-4.66 2.74-1.78 17.271-7.22 21.221-8.8.04.18.079.35.109.52.101.59.12 1.15.07 1.69" stroke-width="7.018"/><path d="M605.3 220.02H604.16c-6.37 3.94-14.07 4.81-20.19 8.8-1.899 1.24-3.21 3.33-5.17 4.66-5.479 3.7-13.399 7.19-20.71 10.86-11.33 5.7-19.62 10.92-34.67 10.35-12.03 11.5-36.95 8.23-54.86 6.22-11.27-1.27-20.159-3.8-24.85 2.07-.59 11.02-1.44 22.93-10.87 22.77-5.1-.09-11.11-6.16-18.11-5.69-3.83.25-5.62 2.56-9.83 2.58-4.01 5.71-7.66 17.23-17.08 15.53-4.39-.79-4.35-5.09-8.8-6.73-1.25 15.13 7.54 28.98 12.42 41.41 3.79 2.48 8.5 5.68 13.97 7.76.3.11.61.24.93.37 4.73 1.89 11.14 5.06 15.64 4.81 3.01-.17 6.7-3.38 10.86-3.63 6.24-.37 13.54 2.85 19.15 1.56 3.8-.88 5.18-4.24 8.8-5.18 2.33-.6 4.34-.34 6.54-.14h.01c1.18.11 2.42.21 3.8.14 1.62-.08 3.2-.25 4.761-.51 12.939-2.12 23.869-9.85 33.54-13.98 3.949-5.51 1.079-17.05 9.84-18.63 5.29-.96 11.779 1 15.01 4.65 3.26-.59 3.87-3.56 7.24-4.65 5.479-1.77 10.34 1.16 15.01 1.03-2.78-11.91-16.99-14.08-18.63-25.88-2.11-15.19 13.42-20.99 22.26-26.91 4.13-2.77 8.73-4.79 13.11-7.09.02-.01.029-.02.05-.03 1.33-.69 2.64-1.42 3.91-2.2 1.5-.91 2.95-1.93 4.359-3 3.721-2.8 7.2-5.93 10.65-8.38 4.98-3.53 11.46-5.98 13.11-11.22 0-.01 0-.02.01-.03.16-.53.28-1.09.34-1.69h-.41z" stroke-width="7.018"/></g><path fill-rule="evenodd" clip-rule="evenodd" fill="none" d="M0 0h850.394v850.394H0z"/></svg>