<svg xmlns="http://www.w3.org/2000/svg" width="850.394" height="850.394" viewBox="0 0 850.394 850.394" overflow="visible"><path d="M748.18 177.46v342.71H168.56l-3.49-379.83h583.11v37.12zM543.2 336.43c0-43.32-35.19-78.43-78.601-78.43-43.41 0-78.6 35.11-78.6 78.43 0 43.31 35.19 78.42 78.6 78.42 43.411 0 78.601-35.11 78.601-78.42z" fill="#fff"/><path d="M162.61 114.42v670.96h-39.49L122 114.77c5.8 2.59 12.62 4.08 19.92 4.08 7.62 0 14.73-1.63 20.69-4.43z" fill="#c8c8c8"/><path d="M543.2 336.43c0 43.31-35.19 78.42-78.601 78.42-43.41 0-78.6-35.11-78.6-78.42 0 0 46 61.57 78.6 0 .001 0 39.401-64.43 78.601 0z" fill="#394ea1"/><path d="M543.2 336.43c-39.2-64.43-78.601 0-78.601 0-32.6 61.57-78.6 0-78.6 0 0-43.32 35.19-78.43 78.6-78.43 43.411 0 78.601 35.11 78.601 78.43z" fill="#ed1e29"/><path d="M162.61 114.42c-5.96 2.8-13.07 4.43-20.69 4.43-7.3 0-14.12-1.49-19.92-4.08-10.99-4.89-18.33-13.72-18.33-23.8 0-15.4 17.13-27.88 38.25-27.88 21.13 0 38.26 12.48 38.26 27.88 0 9.84-7 18.49-17.57 23.45z" fill="#c8c8c8"/><g fill="none" stroke="#231f20"><path stroke-width="21" d="M165.07 140.34h583.11v379.83H168.56M122 114.77c-10.99-4.89-18.33-13.72-18.33-23.8 0-15.4 17.13-27.88 38.25-27.88 21.13 0 38.26 12.48 38.26 27.88 0 9.84-7 18.49-17.57 23.45-5.96 2.8-13.07 4.43-20.69 4.43-7.3 0-14.12-1.49-19.92-4.08z"/><path stroke-width="21" d="M122 114v.77l1.12 670.61M162.61 112.6V785.38"/><path stroke-width="14" d="M744.76 179.39l3.42-1.93 2.01-1.14"/><path d="M543.2 336.43c0 43.31-35.19 78.42-78.601 78.42-43.41 0-78.6-35.11-78.6-78.42 0-43.32 35.19-78.43 78.6-78.43 43.411 0 78.601 35.11 78.601 78.43zM386 336.43s46 61.57 78.6 0M464.6 336.43s39.4-64.43 78.601 0" stroke-width="7"/><path stroke-width="14" d="M282 414l84 64M319.95 370.13l81.51 63.95M302 392l36 28M346 426l37.83 27.75M345.38 187.85L274 256M389.72 230.93L322 296M366 206l-70 70M568 206l74 74M592.98 264.98L622 294M550 222l32 32M623 227l35 35M584 188l28 28M593 423l-29 29M634 382l-31 31M570.87 406.88L542 436M614.66 362.73l-33.83 34.11M617.18 445.09l-27.44 28.82M657.11 403.15l-29.25 30.72"/></g><path fill="none" d="M0 0h850.394v850.394H0z"/><path fill="none" d="M0 0h850.394v850.394H0z"/></svg>