<svg xmlns="http://www.w3.org/2000/svg" width="850.394" height="850.394" viewBox="0 0 850.394 850.394" overflow="visible"><path d="M162.61 234v551.38h-39.49L122 114.77c5.8 2.59 12.62 4.08 19.92 4.08 7.62 0 14.73-1.63 20.69-4.43V234z" fill="#c8c8c8"/><path fill="#ed1e29" d="M748.18 177.46V234H165.93l-.86-93.66h583.11zM738.5 428v87.88H168.52l-.81-87.88H738.5z"/><path d="M486.76 302.11c4.221-4.47 9.23 2.52 14.9 1.44-.92 1.29-1.8 2.59 0 2.89-1.021 5.27-5.93-.31-11.92 1.45-2.07-.89-.23-5.56-2.98-5.78zM498.68 422v1.44h-23.84c4.71-4.48-6.43-11.39-2.979-14.44 8.399 1.92 14.949 10.54 26.819 13zM498.68 328.11c-.01.47-.069.9-.18 1.28-1.05 3.8-6.56 3.26-11.74 3.05v-2.55-3.22c5.12-.64 8.35.57 11.92 1.44zM485.27 284.78c5.75 1.62 13.08-2.6 14.9 0-.5 4.46-15.59 7.4-14.9 0z" fill="#fff"/><path d="M480.8 268.89c2.601-.11 4.641.32 5.96 1.44.05-6.43-10-5.49-1.49-8.66-6.76-2.6-14.319-4.41-20.85-7.23 4.84-.12 9.16-.74 11.91-2.88-8.64-3.18-18.11-5.55-23.83-11.56v-6h295.68v194h-9.68v-4.56H498.68V422c-3.85-11.68-13.72-17.52-22.35-24.56-3.64-15.07-2.2-36.47 8.939-41.89 10.681 6.5 21.29 13.06 40.221 11.56-2.01-9.15-23.061-7.46-20.851-15.89 11.801 4.93 23.29 10.15 40.21 10.11-1.43-6.79-9.989-6.68-13.399-11.55 2.34-.14 5.16.19 4.47-2.89-4.47-.36-9.87-1.43-13.41-2.89 1.41.58 1.24-2.33 0-2.89-3.76-1.71-19.97-.87-19.359-11.56 6.68 1.23 13.899 1.93 17.869 5.78 8.351-.66-7.89-6.83-2.979-8.66 7.42-.51 11.79-3.98 20.86-2.89-.641-16.24-22.37-12.01-34.261-17.34 1.641-5.14 10.78-3.02 14.891-5.77-3.48-7.71-16.13-6.51-16.38-17.34 2.229-.24 5.489.52 5.949-1.44-7.1-6.59-23.45-4.22-28.3-13z" fill="#fff"/><path d="M485.27 303.55c.12 5.41-5.84 4.93-10.43 5.78-.359-.79-.6-1.45-.76-2.05-.73-2.73.15-4.17-.73-9.5 2.841 2.3 8.74 1.64 11.131 4.37.339.39.609.85.789 1.4zM484.16 329.89c0 .72-.12 1.57-.38 2.55h-7.45v-5.77-2.89c3.19 1.47 7.83 1.54 7.83 6.11zM470.38 286.22c-.91-5.7 8.17-1.7 11.91-2.89.42 4.36-11.53 4.1-11.91 2.89zM467.4 315.11c3.92 4.46 1.199 8.51 2.979 11.56-3.76 2.6-11.87-2.89-10.43-10.12 1.359-.95 3.05-1.58 5.399-1.58.632 0 1.322.04 2.052.14zM455.48 407.55c-.16 8.85 15.84 9.64 13.409 15.89h-62.57v-2.89c10.5-6.67 26.041-8.46 35.75-15.89 3.221 7.67 10.871 3.64 13.411 2.89zM468.9 307.56c.08.55.08 1.14-.011 1.77-1.26.12-2.439.17-3.52.12-4.61-.21-7.44-2.14-6.91-7.34 2.131-1.12 9.681.38 10.441 5.45zM458.46 289.11c-.54-4.86 6.45-2.41 8.94-4.33 2.56 5.96-6.76 7.74-8.94 4.33zM467.4 267.44c.34 6.08-9.21 1.52-10.431 0-.469-5.96 8.651-.98 10.431 0z" fill="#fff"/><path d="M468.89 309.33a6.15 6.15 0 0 0 .011-1.77l5.18-.28c.16.6.4 1.26.76 2.05 4.59-.85 10.55-.37 10.43-5.78a3.988 3.988 0 0 0-.789-1.4l2.279-.04c2.75.22.91 4.89 2.98 5.78 5.99-1.76 10.899 3.82 11.92-1.45h2.979c11.891 5.33 33.62 1.1 34.261 17.34-9.07-1.09-13.44 2.38-20.86 2.89-4.91 1.83 11.33 8 2.979 8.66-3.97-3.85-11.189-4.55-17.869-5.78l-4.65-.16c.11-.38.17-.81.18-1.28-3.569-.87-6.8-2.08-11.92-1.44v3.22h-2.6c0-4.57-4.641-4.64-7.83-6.11v2.89h-5.95c-1.78-3.05.94-7.1-2.979-11.56-.73-.1-1.42-.14-2.051-.14l.021-5.52c1.078.05 2.258 0 3.518-.12z" fill="#58b947"/><path d="M462.93 359.89c.19 2.59-1.83 3.04-1.489 5.77-3.261-.21-3.2-3.63-2.98-7.22 2.399-.4 2.559 1.37 4.469 1.45zM434.62 287.67c-5.83-3 8.979-5.52 4.47-7.23 1.03-1.93 3.98.72 7.45-1.44-2.36 4.45-8.68 5.07-11.92 8.67zM430.16 310.78c-.45-3.79 14.149-5.19 13.399 0H430.16zM446.54 264.56c-1.271 4.54-5.74 5.98-10.43 7.22-.69-6.45 6.7-5.07 10.43-7.22zM442.07 319.44c.64 4.1-10.11 4.48-10.42 2.89-.35-3.82 9.2-5.36 10.42-2.89zM439.09 351.22c4.54.12 3.49 9.44 1.49 11.56-2.73-2.59-6.56-9.76-1.49-11.56zM433.14 292c-1.84-6.59 10.07.13 10.42-4.33 5.67 3.74-10.51 6-10.42 4.33zM434.62 367.11c-2.8 1.21-9.74-5.91-10.42-11.56 9.4-1.89 6.81 7.84 10.42 11.56zM434.62 267.44c.7 4.53-1.29 6.45-5.95 5.78-1.03-4.84 2.5-5.28 5.95-5.78zM430.16 305c2.609-4.21 8.229-5.5 14.89-5.78-2.7 4.12-9.1 4.66-14.89 5.78z" fill="#fff"/><path d="M485.27 284.78c-.689 7.4 14.4 4.46 14.9 0-1.82-2.6-9.15 1.62-14.9 0zm-50.65 82.33c-3.61-3.72-1.021-13.45-10.42-11.56.68 5.65 7.62 12.77 10.42 11.56zM430.16 305c5.79-1.12 12.189-1.66 14.89-5.78-6.66.28-12.28 1.57-14.89 5.78zm-1.49-31.78c4.66.67 6.65-1.25 5.95-5.78-3.45.5-6.98.94-5.95 5.78zm14.89 37.56c.75-5.19-13.85-3.79-13.399 0h13.399zm-7.45-39c4.689-1.24 9.159-2.68 10.43-7.22-3.73 2.15-11.12.77-10.43 7.22zm-1.49 15.89c3.24-3.6 9.56-4.22 11.92-8.67-3.47 2.16-6.42-.49-7.45 1.44 4.51 1.71-10.3 4.23-4.47 7.23zm4.47 63.55c-5.07 1.8-1.24 8.97 1.49 11.56 2-2.12 3.05-11.44-1.49-11.56zm4.47-63.55c-.35 4.46-12.26-2.26-10.42 4.33-.09 1.67 16.09-.59 10.42-4.33zm38.73-4.34c-3.74 1.19-12.82-2.81-11.91 2.89.38 1.21 12.33 1.47 11.91-2.89zm-23.83 5.78c2.18 3.41 11.5 1.63 8.94-4.33-2.49 1.92-9.48-.53-8.94 4.33zm-46.18 4.33c-1.66-2.08-1.6-3.52 1.49-4.33-3.7-4.42-9.04 1.73-14.89 0 3.76-11.28 22.02-8.49 28.3-17.33-2.56-3.78-7.709 2.03-13.41 0 7.41-4.86 12.33-12.12 22.34-14.45-1.521-3.34-6.841-2.99-11.91-2.89 7.68-6.51 21.12-7.44 28.3-14.44 5.72 6.01 15.19 8.38 23.83 11.56-2.75 2.14-7.07 2.76-11.91 2.88 6.53 2.82 14.09 4.63 20.85 7.23-8.51 3.17 1.54 2.23 1.49 8.66-1.319-1.12-3.359-1.55-5.96-1.44 4.851 8.78 21.2 6.41 28.3 13-.46 1.96-3.72 1.2-5.949 1.44.25 10.83 12.899 9.63 16.38 17.34-4.11 2.75-13.25.63-14.891 5.77h-2.979c-1.8-.3-.92-1.6 0-2.89-5.67 1.08-10.68-5.91-14.9-1.44l-2.279.04c-2.391-2.73-8.29-2.07-11.131-4.37.881 5.33 0 6.77.73 9.5l-5.18.28c-.761-5.07-8.311-6.57-10.44-5.45-.53 5.2 2.3 7.13 6.91 7.34l-.021 5.52c-2.35 0-4.04.63-5.399 1.58-1.44 7.23 6.67 12.72 10.43 10.12h5.95v5.77h7.45c.26-.98.38-1.83.38-2.55h2.6v2.55c5.181.21 10.69.75 11.74-3.05l4.65.16c-.61 10.69 15.6 9.85 19.359 11.56 1.24.56 1.41 3.47 0 2.89 3.54 1.46 8.94 2.53 13.41 2.89.69 3.08-2.13 2.75-4.47 2.89 3.41 4.87 11.97 4.76 13.399 11.55-16.92.04-28.409-5.18-40.21-10.11-2.21 8.43 18.841 6.74 20.851 15.89-18.931 1.5-29.54-5.06-40.221-11.56-11.14 5.42-12.579 26.82-8.939 41.89 8.63 7.04 18.5 12.88 22.35 24.56-11.87-2.46-18.42-11.08-26.819-13-3.45 3.05 7.689 9.96 2.979 14.44H738.5V428H167.71l-.04-4.56h301.22c2.431-6.25-13.569-7.04-13.409-15.89-2.54.75-10.19 4.78-13.41-2.89-9.71 7.43-25.25 9.22-35.75 15.89 4.41-14.5 27.95-22.84 25.331-40.44-1.181-7.85-10.021-8.88-13.41-17.33-10.56 1.43-22.76 6.95-32.77 4.33 6.04-3.29 12.59-6.09 16.38-11.56-11.49 3.79-31.7-.89-43.19 2.89-.51-6.55 8.52-3.85 4.46-10.11 6.18-1.72 12.97-2.84 19.37-4.33-.61-2.79-5.78-1.14-4.47-5.78 8.91-2.26 20.71-6.11 17.88-11.55 4.51-1.93 13.25-.63 14.89-1.45-3.47-8.1-16.78 1.19-26.81-4.33 8-2.84 13.38-8.21 25.32-7.22v-7.23c-3.32-3.87-11.08-2.92-14.89 0-1.002-5.33 12.008-9.5 17.868-13zm14.9 11.56c-4.72 1.2-12.52-.58-13.41 4.33 3.47 2.78 8.03-1.25 13.41 1.45V305zm-11.92 18.78c1.88 3.11 7.92-1.84 10.43-2.89-3.38 1.05-11.62-2.61-10.43 2.89zm13.41-30.34c-.26-2.16.53-5.33-1.49-5.77-1.02 4.78-11.37.53-11.92 5.77h13.41zm28.3-26c1.221 1.52 10.771 6.08 10.431 0-1.781-.98-10.901-5.96-10.431 0zm4.47 98.22c-.341-2.73 1.68-3.18 1.489-5.77-1.91-.08-2.069-1.85-4.47-1.45-.219 3.59-.279 7.01 2.981 7.22zm-29.79-43.33c.31 1.59 11.06 1.21 10.42-2.89-1.22-2.47-10.77-.93-10.42 2.89z" fill="#58b947"/><path d="M428.67 293.44h-13.41c.55-5.24 10.9-.99 11.92-5.77 2.02.44 1.23 3.61 1.49 5.77zM427.18 305v5.78c-5.38-2.7-9.939 1.33-13.41-1.45.89-4.91 8.69-3.13 13.41-4.33zM415.26 323.78c-1.19-5.5 7.05-1.84 10.43-2.89-2.51 1.05-8.55 6-10.43 2.89z" fill="#fff"/><path d="M395.9 326.67c2.83 5.44-8.97 9.29-17.88 11.55-1.31 4.64 3.86 2.99 4.47 5.78-6.4 1.49-13.19 2.61-19.37 4.33 4.06 6.26-4.97 3.56-4.46 10.11 11.49-3.78 31.7.9 43.19-2.89-3.79 5.47-10.34 8.27-16.38 11.56 10.01 2.62 22.21-2.9 32.77-4.33 3.39 8.45 12.229 9.48 13.41 17.33 2.619 17.6-20.92 25.94-25.331 40.44v2.89h-238.65L165.93 234H452.5v6c-7.18 7-20.62 7.93-28.3 14.44 5.069-.1 10.39-.45 11.91 2.89-10.011 2.33-14.93 9.59-22.34 14.45 5.7 2.03 10.85-3.78 13.41 0-6.28 8.84-24.54 6.05-28.3 17.33 5.85 1.73 11.19-4.42 14.89 0-3.09.81-3.15 2.25-1.49 4.33-5.86 3.5-18.87 7.67-17.87 13 3.81-2.92 11.57-3.87 14.89 0v7.23c-11.94-.99-17.32 4.38-25.32 7.22 10.03 5.52 23.34-3.77 26.81 4.33-1.64.82-10.38-.48-14.89 1.45z" fill="#fff"/><path d="M162.61 114.42c-5.96 2.8-13.07 4.43-20.69 4.43-7.3 0-14.12-1.49-19.92-4.08-10.99-4.89-18.33-13.72-18.33-23.8 0-15.4 17.13-27.88 38.25-27.88 21.13 0 38.26 12.48 38.26 27.88 0 9.84-7 18.49-17.57 23.45z" fill="#c8c8c8"/><path d="M168.52 515.88H738.5V428h9.68v92.17H168.56l-.04-4.29z" fill="#fff"/><path d="M167.71 428l.81 87.88h-2.02V428h1.21zM167.67 423.44l.04 4.56h-1.21v-4.56h1.17z"/><g fill="none" stroke="#231f20"><path stroke-width="21" d="M165.07 140.34h583.11v379.83H168.56M122 114.77c-10.99-4.89-18.33-13.72-18.33-23.8 0-15.4 17.13-27.88 38.25-27.88 21.13 0 38.26 12.48 38.26 27.88 0 9.84-7 18.49-17.57 23.45-5.96 2.8-13.07 4.43-20.69 4.43-7.3 0-14.12-1.49-19.92-4.08z"/><path stroke-width="21" d="M122 114v.77l1.12 670.61M162.61 112.6v672.78"/><path stroke-width="14" d="M744.76 179.39l3.42-1.93 2.01-1.14M162 234h586M738.5 428H752M164 428h2.5"/><path d="M503.15 329.55c-.61 10.69 15.6 9.85 19.359 11.56 1.24.56 1.41 3.47 0 2.89 3.54 1.46 8.94 2.53 13.41 2.89.69 3.08-2.13 2.75-4.47 2.89 3.41 4.87 11.97 4.76 13.399 11.55-16.92.04-28.409-5.18-40.21-10.11-2.21 8.43 18.841 6.74 20.851 15.89-18.931 1.5-29.54-5.06-40.221-11.56-11.14 5.42-12.579 26.82-8.939 41.89 8.63 7.04 18.5 12.88 22.35 24.56-11.87-2.46-18.42-11.08-26.819-13-3.45 3.05 7.689 9.96 2.979 14.44H738.499v92.44h-572V428v-4.56h302.39c2.431-6.25-13.569-7.04-13.409-15.89-2.54.75-10.19 4.78-13.41-2.89-9.71 7.43-25.25 9.22-35.75 15.89 4.41-14.5 27.95-22.84 25.331-40.44-1.181-7.85-10.021-8.88-13.41-17.33-10.56 1.43-22.76 6.95-32.77 4.33 6.04-3.29 12.59-6.09 16.38-11.56-11.49 3.79-31.7-.89-43.19 2.89-.51-6.55 8.52-3.85 4.46-10.11 6.18-1.72 12.97-2.84 19.37-4.33-.61-2.79-5.78-1.14-4.47-5.78 8.91-2.26 20.71-6.11 17.88-11.55 4.51-1.93 13.25-.63 14.89-1.45-3.47-8.1-16.78 1.19-26.81-4.33 8-2.84 13.38-8.21 25.32-7.22v-7.23c-3.32-3.87-11.08-2.92-14.89 0-1-5.33 12.01-9.5 17.87-13-1.66-2.08-1.6-3.52 1.49-4.33-3.7-4.42-9.04 1.73-14.89 0 3.76-11.28 22.02-8.49 28.3-17.33-2.56-3.78-7.709 2.03-13.41 0 7.41-4.86 12.33-12.12 22.34-14.45-1.521-3.34-6.841-2.99-11.91-2.89 7.68-6.51 21.12-7.44 28.3-14.44 5.72 6.01 15.19 8.38 23.83 11.56-2.75 2.14-7.07 2.76-11.91 2.88 6.53 2.82 14.09 4.63 20.85 7.23-8.51 3.17 1.54 2.23 1.49 8.66-1.319-1.12-3.359-1.55-5.96-1.44 4.851 8.78 21.2 6.41 28.3 13-.46 1.96-3.72 1.2-5.949 1.44.25 10.83 12.899 9.63 16.38 17.34-4.11 2.75-13.25.63-14.891 5.77 11.891 5.33 33.62 1.1 34.261 17.34-9.07-1.09-13.44 2.38-20.86 2.89-4.91 1.83 11.33 8 2.979 8.66-3.971-3.85-11.191-4.55-17.871-5.78z"/></g><path fill="none" stroke="#231f20" stroke-width="14" d="M166.5 423.441L744 424"/><path fill="none" d="M0 0h850.394v850.394H0z"/></svg>