<svg xmlns="http://www.w3.org/2000/svg" width="850.89" height="850.89" viewBox="0 0 850.89 850.89" overflow="visible"><path fill="#ed1e29" d="M168.55 492.25h579.88v26H162.86v-26z"/><path fill="#fff" d="M748.43 518.25v34.17H162.86v-34.17h583.39z"/><path fill="#ed1e29" d="M748.43 262.24v26.01H440.25l-1.28-.01.24-27.98zM748.43 202.25v30H440.25l-.8-.01.25-29.99z"/><path fill="#fff" d="M748.43 172.25v30H439.7l.26-30h.29z"/><path fill="#ed1e29" d="M748.43 140.59v31.66H439.96l.27-31.66z"/><path fill="#fff" d="M748.43 232.25v29.99l-309.22-1.98.24-28.02.8.01h308zM748.43 288.25v26H440.25l-1.5-.01.22-26 1.28.01h308z"/><path fill="#ed1e29" d="M748.43 314.25v28H438.51l.24-28.01 1.5.01h308z"/><path fill="#fff" d="M748.43 342.25v32H438.25v-2l.26-30h309.74z"/><path fill="#ed1e29" d="M748.43 374.25v26H167.71l-.24-26h580.78z"/><path fill="#fff" d="M748.43 400.25v32H168l-.29-32h580.54z"/><path fill="#ed1e29" d="M748.43 432.25v32H168.29l-.29-32h578.25z"/><path fill="#fff" d="M748.43 464.25v28H168.55l-.26-28h577.96z"/><path d="M342.25 208.25c-173.27 28.54-70.76 126-14 126 7.74 0-134-56 14-126zm96 166H167.47l-2.15-233.66h274.91l-.271 31.66-.26 30-.25 29.99-.24 28.02-.24 27.98-.22 26-.24 28.01-.26 30v2zm-44.88-104.23l27.23-3.97-27.23-3.97 22.81-15.4-26.26 8.24 13.87-23.78-20.09 18.82 2.19-27.44-9.93 25.67-9.94-25.67 2.19 27.44-20.09-18.82 13.87 23.78-26.26-8.24 22.81 15.4-27.23 3.97 27.23 3.97-22.81 15.4 26.26-8.24-13.87 23.78 20.09-18.82-2.19 27.44 9.94-25.67 9.93 25.67-2.19-27.44 20.09 18.82-13.87-23.78 26.26 8.24-22.81-15.4z" fill="#394ea1"/><path fill="#fbed24" d="M420.6 266.05l-27.23 3.97 22.81 15.4-26.26-8.24 13.87 23.78-20.09-18.82 2.19 27.44-9.93-25.67-9.94 25.67 2.19-27.44-20.09 18.82 13.87-23.78-26.26 8.24 22.81-15.4-27.23-3.97 27.23-3.97-22.81-15.4 26.26 8.24-13.87-23.78 20.09 18.82-2.19-27.44 9.94 25.67 9.93-25.67-2.19 27.44 20.09-18.82-13.87 23.78 26.26-8.24-22.81 15.4z"/><path d="M342.25 208.25c-148 70-6.26 126-14 126-56.76 0-159.27-97.46 14-126z" fill="#fbed24"/><path d="M142.17 63.34c21.13 0 38.26 12.48 38.26 27.88 0 9.84-7 18.49-17.57 23.45-5.96 2.8-13.07 4.43-20.69 4.43-7.3 0-14.12-1.49-19.92-4.08-10.99-4.89-18.33-13.72-18.33-23.8 0-15.4 17.13-27.88 38.25-27.88z" fill="#c8c8c8"/><path d="M142.17 119.1c7.62 0 14.73-1.63 20.69-4.43v670.96h-39.49l-1.12-670.61c5.8 2.59 12.62 4.08 19.92 4.08z" fill="#c8c8c8"/><g fill="none" stroke="#231f20"><path stroke-width="21" d="M165.32 140.59h583.11v411.83H168.81M122.25 115.02c-10.99-4.89-18.33-13.72-18.33-23.8 0-15.4 17.13-27.88 38.25-27.88 21.13 0 38.26 12.48 38.26 27.88 0 9.84-7 18.49-17.57 23.45-5.96 2.8-13.07 4.43-20.69 4.43-7.3 0-14.12-1.49-19.92-4.08z"/><path stroke-width="21" d="M122.25 114.25v.77l1.12 670.61M162.86 112.85v672.78"/><path stroke-width="14" d="M745.01 179.64l3.42-1.93 2.01-1.14"/><path stroke-width="7" d="M164.25 374.25h584M440.25 138.25l-.02 2.34-.27 31.66-.26 30-.25 29.99-.24 28.02-.24 27.98-.22 26-.24 28.01-.26 30M164.25 400.25h584M160.25 432.25h586M164.25 464.25h582M162.25 492.25h588M438.25 202.25h312M440.25 232.25h308M440.25 172.25h310"/><path stroke-width="7" d="M438.25 260.25l.96.01 309.22 1.98 1.82.01M440.25 288.25h308M440.25 314.25h308M438.25 342.25h310M342.25 208.25c-173.27 28.54-70.76 126-14 126M342.25 208.25c-148 70-6.26 126-14 126"/><path stroke-width="4" d="M393.37 270.02l22.81 15.4-26.26-8.24 13.87 23.78-20.09-18.82 2.19 27.44-9.93-25.67-9.94 25.67 2.19-27.44-20.09 18.82 13.87-23.78-26.26 8.24 22.81-15.4-27.23-3.97 27.23-3.97-22.81-15.4 26.26 8.24-13.87-23.78 20.09 18.82-2.19-27.44 9.94 25.67 9.93-25.67-2.19 27.44 20.09-18.82-13.87 23.78 26.26-8.24-22.81 15.4 27.23 3.97z"/><path stroke-width="7" d="M166.25 518.25h580"/></g><path fill="none" d="M.25.25h850.394v850.394H.25z"/></svg>