<svg xmlns="http://www.w3.org/2000/svg" width="850.394" height="850.394" viewBox="0 0 850.394 850.394" overflow="visible"><path d="M162.61 114.42v670.96h-39.49L122 114.77c5.8 2.59 12.62 4.08 19.92 4.08 7.62 0 14.73-1.63 20.69-4.43z" fill="#c8c8c8"/><path d="M537.94 295.48c-2.57 3.68-3.57 6.87 1.43 8.58-2.061 2.7-9.21.32-8.58 5.72-1.58-3.19-2.521-7.01-7.15-7.15 2.07-2.23 5.761-2.82 4.29-8.58 2.75 2.9 5.75 3.33 10.01 1.43zM516.5 374.1c2.63 1.81-2.6 8.53 4.29 8.58-3.65 3.69-9.11-2.74-8.58 5.71-2.11-3.13-3.08-7.4-8.58-7.14 4.96-2.17 6.48-3.51 4.29-10.01 2.55.45 5.6 7.56 8.58 2.86z" fill="#ed1e29"/><path d="M472.18 328.36c65.03-20.79 91.23 80.34 41.46 105.77 8.49-32.67-33.01-23.99-30.02-58.6.84-9.73 8.47-15.68 5.72-28.59-1.54-7.21-8.63-13.48-17.16-15.72 15.301-3.84 26.03 9.23 34.311 17.15-6.831-11.28-17.101-19.12-34.311-20.01zm40.03 60.03c-.53-8.45 4.93-2.02 8.58-5.71-6.89-.05-1.66-6.77-4.29-8.58-2.98 4.7-6.03-2.41-8.58-2.86 2.19 6.5.67 7.84-4.29 10.01 5.5-.26 6.47 4.01 8.58 7.14z" fill="#fff"/><path d="M472.21 320.67c.98-9.38 13.75-21.97 22.84-20.9-10.45 3.27-17.67 9.76-21.649 19.5-.401.44-.791.91-1.191 1.4z"/><path d="M472.21 320.67c.4-.49.79-.96 1.19-1.4-.45 1.08-.86 2.21-1.221 3.37-.059-.64-.049-1.3.031-1.97z"/><path d="M470.75 322.64c-2.43.53-2.69-1.12-2.85-2.86 4.84-58.64 109.09-62.07 114.35-1.43-17.28-18.81-28.44 7.38-41.45 11.44-24.08 7.51-47.85-32.23-67.399-10.52 3.979-9.74 11.199-16.23 21.649-19.5-9.09-1.07-21.859 11.52-22.84 20.9-.48.61-.97 1.27-1.46 1.97zm68.62-18.58c-5-1.71-4-4.9-1.43-8.58-4.261 1.9-7.261 1.47-10.011-1.43 1.471 5.76-2.22 6.35-4.29 8.58 4.63.14 5.57 3.96 7.15 7.15-.629-5.4 6.521-3.02 8.581-5.72zM469.33 354.09c-2.74 3.1-.91-10.45-1.43-14.3 2.74-3.1.9 10.45 1.43 14.3z" fill="#fff"/><path d="M465.04 335.5c1.76 1.6 2.93 1.25 2.86-1.43 35.859 55.91-43.28 113.541-88.63 71.48 2.59-3.13 11.2-.25 14.3-2.86 11.54-5.63 6.89-19.47 11.43-28.59 12.7-25.53 61.99.67 60.04-38.6zm2.86 4.29c.52 3.85-1.311 17.4 1.43 14.3-.53-3.85 1.31-17.4-1.43-14.3zm-15.73 41.46c4.28-4.57 16-16.05 12.87-18.59-1.32 8.24-13.2 13.45-12.87 18.59zm-21.44 15.72c-1.57-7.37 8.52-2.07 8.579-4.29-5.399-1.5-4.189-6.46-1.43-10-6.03 2.48-7.229 2.85-11.439-1.43 3.81 6.1-2.07 6.21-4.28 10 7.34-2.58 4.37 5.15 8.57 5.72z" fill="#fff"/><path d="M466.47 252.6c2.91 1.53-2.55 8.48 2.86 10-.73 1.56-9.1-2.03-8.58 4.29-2.32-2.45-1.33-8.2-7.15-7.14 2.83-1.94 5.561-3.97 4.29-10.01 2.44 2.87 5.3 8.37 8.58 2.86z" fill="#ed1e29"/><path d="M465.04 362.66c3.13 2.54-8.59 14.02-12.87 18.59-.33-5.14 11.55-10.35 12.87-18.59z" fill="#fff"/><path d="M472.18 322.64a38.3 38.3 0 0 1 1.221-3.37c19.55-21.71 43.319 18.03 67.399 10.52 13.01-4.06 24.17-30.25 41.45-11.44-5.26-60.64-109.51-57.21-114.35 1.43.159 1.74.42 3.39 2.85 2.86.49-.7.98-1.36 1.46-1.97-.08.67-.09 1.33-.03 1.97zm276-145.18v342.71H168.56l-3.49-379.83h583.11v37.12zM506.49 348.37c-8.28-7.92-19.01-20.99-34.311-17.15 8.53 2.24 15.62 8.51 17.16 15.72 2.75 12.91-4.88 18.86-5.72 28.59-2.99 34.61 38.51 25.93 30.02 58.6 49.771-25.43 23.57-126.56-41.46-105.77 17.211.89 27.481 8.73 34.311 20.01zm-44.31-15.72c-3.649-1.55-5.01 6.15-7.149 1.42 2.46.08 3.67-1.09 4.29-2.85-39.36 8.59-25.03-42.79-55.75-47.17-7.95-1.14-11.46 2.96-22.87 1.43-6.49-3.52-10.72-9.3-12.86-17.16C337.16 330 423.64 378.44 462.18 332.65zm0-8.58c-21.51-42.32 33.48-30.97 28.59-70.04-.909-7.23-8.699-13.12-7.149-22.87 1.1-6.97 6.729-9.85 12.86-14.3-72.271-15.87-86.871 93.22-35.73 107.21-4.09-3.56-12.26-10.56-10.01-15.72 2.039 7.01 6.379 11.72 11.439 15.72zm5.72 10c.069 2.68-1.101 3.03-2.86 1.43 1.95 39.27-47.34 13.07-60.04 38.6-4.54 9.12.11 22.96-11.43 28.59-3.1 2.61-11.71-.27-14.3 2.86 45.35 42.06 124.49-15.57 88.63-71.48z" fill="#ed1e29"/><path d="M490.77 254.03c4.891 39.07-50.1 27.72-28.59 70.04-5.06-4-9.399-8.71-11.439-15.72-2.25 5.16 5.92 12.16 10.01 15.72-51.14-13.99-36.54-123.08 35.73-107.21-6.131 4.45-11.761 7.33-12.86 14.3-1.551 9.75 6.239 15.64 7.149 22.87zm-30.02 12.86c-.52-6.32 7.85-2.73 8.58-4.29-5.41-1.52.05-8.47-2.86-10-3.279 5.51-6.14.01-8.58-2.86 1.271 6.04-1.46 8.07-4.29 10.01 5.82-1.06 4.83 4.69 7.15 7.14z" fill="#fff"/><path d="M455.03 334.07c2.14 4.73 3.5-2.97 7.149-1.42-38.54 45.79-125.02-2.65-94.34-64.33 2.14 7.86 6.37 13.64 12.86 17.16 11.41 1.53 14.92-2.57 22.87-1.43 30.72 4.38 16.39 55.76 55.75 47.17-.619 1.76-1.829 2.93-4.289 2.85zM405 315.49c-6.31-.41.77-7.56-2.86-8.57-2.98 4.7-6.03-2.42-8.57-2.86 1.65 7.73.14 6.61-4.29 10 6.96-2.19 4.29 5.24 7.15 7.15.98-6.84 4.9-3.31 8.57-5.72z" fill="#fff"/><path d="M439.31 392.68c-.06 2.22-10.149-3.08-8.579 4.29-4.2-.57-1.23-8.3-8.57-5.72 2.21-3.79 8.09-3.9 4.28-10 4.21 4.28 5.409 3.91 11.439 1.43-2.76 3.54-3.97 8.5 1.43 10zM402.14 306.92c3.63 1.01-3.45 8.16 2.86 8.57-3.67 2.41-7.59-1.12-8.57 5.72-2.86-1.91-.19-9.34-7.15-7.15 4.43-3.39 5.94-2.27 4.29-10 2.54.44 5.59 7.56 8.57 2.86z" fill="#ed1e29"/><path d="M162.61 114.42c-5.96 2.8-13.07 4.43-20.69 4.43-7.3 0-14.12-1.49-19.92-4.08-10.99-4.89-18.33-13.72-18.33-23.8 0-15.4 17.13-27.88 38.25-27.88 21.13 0 38.26 12.48 38.26 27.88 0 9.84-7 18.49-17.57 23.45z" fill="#c8c8c8"/><g fill="none" stroke="#231f20"><path stroke-width="21" d="M165.07 140.34h583.11v379.83H168.56M122 114.77c-10.99-4.89-18.33-13.72-18.33-23.8 0-15.4 17.13-27.88 38.25-27.88 21.13 0 38.26 12.48 38.26 27.88 0 9.84-7 18.49-17.57 23.45-5.96 2.8-13.07 4.43-20.69 4.43-7.3 0-14.12-1.49-19.92-4.08z"/><path stroke-width="21" d="M122 114v.77l1.12 670.61M162.61 112.6V785.38"/><path stroke-width="14" d="M744.76 179.39l3.42-1.93 2.01-1.14"/><path d="M450.74 308.35c-2.25 5.16 5.92 12.16 10.01 15.72-51.14-13.99-36.54-123.08 35.73-107.21-6.131 4.45-11.761 7.33-12.86 14.3-1.55 9.75 6.24 15.64 7.149 22.87 4.891 39.07-50.1 27.72-28.59 70.04-5.059-4-9.399-8.71-11.439-15.72z" stroke-width="5"/><path d="M469.33 262.6c-5.41-1.52.05-8.47-2.86-10-3.279 5.51-6.14.01-8.58-2.86 1.271 6.04-1.46 8.07-4.29 10.01 5.82-1.06 4.83 4.69 7.15 7.14-.52-6.32 7.85-2.73 8.58-4.29zM472.21 320.67c-.479.61-.97 1.27-1.46 1.97-2.43.53-2.69-1.12-2.85-2.86 4.84-58.64 109.09-62.07 114.35-1.43-17.28-18.81-28.44 7.38-41.45 11.44-24.08 7.51-47.85-32.23-67.399-10.52" stroke-width="5"/><path d="M523.64 302.63c4.63.14 5.57 3.96 7.15 7.15-.63-5.4 6.52-3.02 8.58-5.72-5-1.71-4-4.9-1.43-8.58-4.261 1.9-7.261 1.47-10.011-1.43 1.471 5.76-2.219 6.35-4.289 8.58zM472.18 322.64c-.06-.64-.05-1.3.03-1.97.98-9.38 13.75-21.97 22.84-20.9-10.45 3.27-17.67 9.76-21.649 19.5a37.981 37.981 0 0 0-1.221 3.37M455.03 334.07c2.14 4.73 3.5-2.97 7.149-1.42-38.54 45.79-125.02-2.65-94.34-64.33 2.14 7.86 6.37 13.64 12.86 17.16 11.41 1.53 14.92-2.57 22.87-1.43 30.72 4.38 16.39 55.76 55.75 47.17-.619 1.76-1.829 2.93-4.289 2.85z" stroke-width="5"/><path d="M389.28 314.06c6.96-2.19 4.29 5.24 7.15 7.15.98-6.84 4.9-3.31 8.57-5.72-6.31-.41.77-7.56-2.86-8.57-2.98 4.7-6.03-2.42-8.57-2.86 1.65 7.73.14 6.61-4.29 10zM506.49 348.37c-6.83-11.28-17.101-19.12-34.311-20.01 65.03-20.79 91.23 80.34 41.46 105.77 8.49-32.67-33.01-23.99-30.02-58.6.84-9.73 8.47-15.68 5.72-28.59-1.54-7.21-8.63-13.48-17.16-15.72 15.301-3.84 26.031 9.23 34.311 17.15z" stroke-width="5"/><path d="M503.63 381.25c5.5-.26 6.47 4.01 8.58 7.14-.53-8.45 4.93-2.02 8.58-5.71-6.89-.05-1.66-6.77-4.29-8.58-2.98 4.7-6.03-2.41-8.58-2.86 2.19 6.5.67 7.84-4.29 10.01zM467.9 334.07c35.859 55.91-43.28 113.541-88.63 71.48 2.59-3.13 11.2-.25 14.3-2.86 11.54-5.63 6.89-19.47 11.43-28.59 12.7-25.53 61.99.67 60.04-38.6 1.76 1.6 2.93 1.25 2.86-1.43z" stroke-width="5"/><path d="M469.33 354.09c-.53-3.85 1.31-17.4-1.43-14.3.52 3.85-1.31 17.4 1.43 14.3zM465.04 362.66c-1.32 8.24-13.2 13.45-12.87 18.59 4.28-4.57 16-16.05 12.87-18.59zM439.31 392.68c-5.399-1.5-4.189-6.46-1.43-10-6.03 2.48-7.229 2.85-11.439-1.43 3.81 6.1-2.07 6.21-4.28 10 7.34-2.58 4.37 5.15 8.57 5.72-1.571-7.37 8.519-2.07 8.579-4.29z" stroke-width="5"/></g><path fill="none" d="M0 0h850.394v850.394H0z"/></svg>