<svg xmlns="http://www.w3.org/2000/svg" width="850.394" height="850.394" viewBox="0 0 850.394 850.394" overflow="visible"><path d="M673.89 420.8v29.46c0 26.8-77.17 48.061-172.939 48.061-95.78 0-174.1-21.04-174.1-47.84v-30.25c0-44.75 12.84-72.78 12.84-72.78 0 24.99 72.38 45.24 161.66 45.24 84.58 0 154-18.18 161.051-41.35 2.619 6.86 8.3 24.03 10.55 48.65.588 6.439.938 13.399.938 20.809z" fill="#f6cc4b"/><path d="M544.02 697.19c22.851-1.66 43.73-4.681 61.48-8.75 53.85-9.221 68.39-65.721 68.39-65.721l-.1 2.681-3.34 87.949c-9.47 16.631-28.4 38.721-98.09 56.78-69.69 18.07-166.061 0-187.57-11.18-21.51-11.19-50.77-10.33-50.77-10.33H155.91s-57.65 7.75-57.65-36.99V470.71s.34-4.44 1.04-11.479h173.06c0-28.101.42-37.291 4.59-58.5 4.61-23.52 10.32-54.05 10.32-54.05H125.16c2.89-8.21 4.52-12.31 4.52-12.31s13.33-40.05 52.05-40.05h141.11s30.11 1.72 30.11 19.79h-5.16s-31.73 5.39-41 61.09c-5.87 35.26-9.77 45.6-9.77 80.02v193.59s-4.3 36.141 36.14 36.141c28.49 0 41.54-1.49 48.27-1.17h.01a79.78 79.78 0 0 0 10.8 2.6l.04-.07c17.37 4.591 38.371 8.11 61.68 10.2 15.54 1.391 32.09 2.141 49.28 2.141 14.09-.003 27.75-.513 40.78-1.463z" fill="#f6cc4b"/><path d="M636.31 330.06c1.32-1.7 2.021-3.49 2.021-5.34l1.38-.68c14.78 6.83 23.28 14.84 23.28 23.41 0 1.31-.2 2.61-.59 3.89-7.051 23.17-76.471 41.35-161.051 41.35-89.28 0-161.66-20.25-161.66-45.24 0-6.65 5.13-12.97 14.35-18.66 18.87-11.65 54.87-20.67 99-24.53h4.02v5.55s8.82 15.48 37 15.48c28.181 0 28.181-3.44 28.181-3.44v2.87c0 11.25 25.99 20.36 58.04 20.36 26.789 0 49.339-6.36 56.029-15.02z" fill="#f6cc4b"/><path d="M653.52 624.72c0 8.32-29.539-18.64-57.069-18.64s-48.181 12.05-48.181 12.05l-3.55-.03.32-35.54h.4s43.56-.569 64.779 9.761C631.44 602.64 653.52 616.4 653.52 624.72z" fill="#c8c8c8"/><path d="M522.24 106.64c-10.36-5.6-19.96-.73-34.391-.75-8.989-.02-25.47-2.88-30.79-8.75-1.1-1.2-1.72-2.52-1.72-3.97 0-14.88 24.97-19.46 36.5-20.34 19.811-1.51 40.62-2.79 56.57 8.96 18.38 13.55 39.439-4.01 67.72 5.13 8.94 2.88 21.32 9.45 20.18 19.7-2.579 23.08-40.22 24.72-56.229 23.34-19.96-1.72-37.68-5.68-51.78-18.86-2.07-1.94-4.08-3.39-6.06-4.46z" fill="#fff"/><path d="M636.31 106.62v223.44c-6.689 8.66-29.239 15.02-56.029 15.02-32.05 0-58.04-9.11-58.04-20.36V106.64c1.979 1.07 3.99 2.52 6.06 4.46 14.101 13.18 31.82 17.14 51.78 18.86 16.009 1.38 53.649-.26 56.229-23.34z" fill="#f6cc4b"/><path d="M455.63 611.06l.79-41.54.62-32.329c0-8.33 8.729-15.11 19.5-15.11h49.38c10.78 0 19.521 6.78 19.521 15.11l-.4 45.369-.32 35.54-.7 79.091a562.682 562.682 0 0 1-40.779 1.46c-17.19 0-33.74-.75-49.28-2.141L454 696l1.63-84.94z" fill="#fff"/><path d="M522.24 106.64v215.21s0 3.44-28.181 3.44c-28.18 0-37-15.48-37-15.48V97.14c5.32 5.87 21.801 8.73 30.79 8.75 14.431.02 24.031-4.85 34.391.75z" fill="#f6cc4b"/><path d="M456.42 569.52l-.79 41.54c-1.82.021-43.97.41-64.73-11.409-21.22-12.08-43.3-28.181-43.3-37.931 0-9.729 29.54 21.82 57.07 21.82s48.18-14.09 48.18-14.09l3.57.07z" fill="#c8c8c8"/><path d="M381.43 683.78c-6.73-.32-19.78 1.17-48.27 1.17-40.44 0-36.14-36.141-36.14-36.141v-193.59c0-34.42 3.9-44.76 9.77-80.02 9.27-55.7 41-61.09 41-61.09h5.16v12.04l1.09 2.64c-9.22 5.69-14.35 12.01-14.35 18.66 0 0-12.84 28.03-12.84 72.78v201.909s9.9 47.552 54.58 61.642z" fill="#f6cc4b"/><path d="M236 346.68h51.27s-5.71 30.53-10.32 54.05c-4.17 21.21-4.59 30.4-4.59 58.5h-57.07v-.561s.29-27.82 5.74-47.61C224.83 397.24 236 348 236 348v-1.32z" fill="#c8c8c8"/><path d="M236 346.68V348s-11.17 49.24-14.97 63.06c-5.45 19.79-5.74 47.61-5.74 47.61v.561H156V454s-.62-20.29 4.83-40.08c3.81-13.83 16.63-67.24 16.63-67.24H236z" fill="#c8c8c8"/><path d="M125.16 346.68h52.3s-12.82 53.41-16.63 67.24C155.38 433.71 156 454 156 454v5.23H99.3c1.69-16.771 5.49-48.28 11.87-69.4 5.92-19.56 10.75-33.94 13.99-43.15z" fill="#c8c8c8"/><g fill="none" stroke="#231f20"><path d="M381.44 683.78c2.8.13 4.51.58 5.78 1.59.01 0 .01 0 .02.01M347.79 314.11s-31.73 5.39-41 61.09c-5.87 35.26-9.77 45.6-9.77 80.02v193.59s-4.3 36.141 36.14 36.141c28.49 0 41.54-1.49 48.27-1.17M457.06 96.87V309.81s8.82 15.48 37 15.48c28.181 0 28.181-3.44 28.181-3.44" stroke-width="21"/><path d="M457.06 97.14c-1.1-1.2-1.72-2.52-1.72-3.97 0-14.88 24.97-19.46 36.5-20.34 19.811-1.51 40.62-2.79 56.57 8.96 18.38 13.55 39.439-4.01 67.72 5.13 8.94 2.88 21.32 9.45 20.18 19.7-2.579 23.08-40.22 24.72-56.229 23.34-19.96-1.72-37.68-5.68-51.78-18.86-2.069-1.94-4.08-3.39-6.06-4.46-10.36-5.6-19.96-.73-34.391-.75-8.99-.02-25.47-2.88-30.79-8.75zM522.24 106.25v228.51M636.31 106.62v224.7M639.71 324.04c14.78 6.83 23.28 14.84 23.28 23.41 0 1.31-.2 2.61-.59 3.89-7.051 23.17-76.471 41.35-161.051 41.35-89.28 0-161.66-20.25-161.66-45.24 0-6.65 5.13-12.97 14.35-18.66 18.87-11.65 54.87-20.67 99-24.53" stroke-width="21"/><path d="M544.02 697.19a562.682 562.682 0 0 1-40.779 1.46c-17.19 0-33.74-.75-49.28-2.141-23.31-2.09-44.31-5.609-61.68-10.2l-.04.07a79.78 79.78 0 0 1-10.8-2.6h-.01c-44.68-14.09-54.58-61.641-54.58-61.641V450.479v-30.25c0-44.75 12.84-72.78 12.84-72.78M605.5 688.44l2.91-.681c-.96.231-1.93.461-2.91.681z" stroke-width="21"/><path d="M661.05 348.02s.521 1.14 1.351 3.32c2.619 6.86 8.3 24.03 10.55 48.65.59 6.44.939 13.4.939 20.81V622.72s-14.54 56.5-68.39 65.721c-17.75 4.069-38.63 7.09-61.48 8.75" stroke-width="21"/><path d="M544 700l.02-2.81.7-79.091.32-35.54.4-45.369c0-8.33-8.74-15.11-19.521-15.11h-49.38c-10.771 0-19.5 6.78-19.5 15.11l-.62 32.329-.79 41.54L454 696" stroke-width="21"/><path d="M545.44 582.56s43.56-.569 64.779 9.761c21.221 10.319 43.3 24.08 43.3 32.399 0 8.32-29.539-18.64-57.069-18.64s-48.181 12.05-48.181 12.05" stroke-width="14"/><path d="M455.69 611.06h-.061c-1.82.021-43.97.41-64.73-11.409-21.22-12.08-43.3-28.181-43.3-37.931 0-9.729 29.54 21.82 57.07 21.82s48.18-14.09 48.18-14.09" stroke-width="14.581"/><path d="M673.89 622.72l-.1 2.681-3.34 87.949c-9.47 16.631-28.4 38.721-98.09 56.78-69.69 18.07-166.061 0-187.57-11.18-21.51-11.19-50.77-10.33-50.77-10.33H155.91s-57.65 7.75-57.65-36.99V470.71s.34-4.44 1.04-11.479c1.69-16.771 5.49-48.28 11.87-69.4 5.92-19.56 10.75-33.94 13.99-43.15 2.89-8.21 4.52-12.31 4.52-12.31s13.33-40.05 52.05-40.05h141.11s30.11 1.72 30.11 19.79v12.04" stroke-width="21"/><path d="M125.16 346.68h162.11s-5.71 30.53-10.32 54.05c-4.17 21.21-4.59 30.4-4.59 58.5H99.31" stroke-width="21"/><path d="M177.46 346.68s-12.82 53.41-16.63 67.24C155.38 433.71 156 454 156 454M236 348s-11.17 49.24-14.97 63.06c-5.45 19.79-5.74 47.61-5.74 47.61M678.64 399.46h51.45c10.78 0 19.521 8.73 19.521 19.51v187.1c0 10.77-8.74 19.51-19.521 19.51h-51.45M673.89 450.26c0 26.8-77.17 48.061-172.939 48.061-95.78 0-174.1-21.04-174.1-47.84M638.33 324.72c0 1.85-.7 3.64-2.021 5.34-6.689 8.66-29.239 15.02-56.029 15.02-32.05 0-58.04-9.11-58.04-20.36" stroke-width="21"/></g><path fill="none" d="M0 0h850.394v850.394H0z"/></svg>