<svg xmlns="http://www.w3.org/2000/svg" width="850.394" height="850.394" viewBox="0 0 850.394 850.394" overflow="visible"><path d="M550.346 166.982l24.524 26.172-28.194 31.939-5.083-5.5c1.081-8.131-3.349-31.767 8.753-52.611z" fill="#0071bc"/><path d="M463.014 137.065l-39.943-27.231c3.917-9.255 7.714-19.752 11.395-31.607l49.594 18.04 66.286 70.715c-12.102 20.843-7.672 44.479-8.753 52.611l-72.513-78.387-6.066-4.141z" fill="#fff"/><path fill="#0071bc" d="M541.593 219.594l5.083 5.499-27.242 30.869-44.789-43.291-3.2-20.8-8.431-54.806 6.066 4.142zM519.134 758.867l3.917 18.115s-44.812 20.501-135.782 33.319l-2.525-18.854 134.39-32.58z"/><path d="M473.456 547.32l45.678 211.547-134.39 32.581-8.795-65.762s-3.392-20.501-14.701-20.501h-3.264c-11.31 0-14.702 20.501-14.702 20.501l-8.56 63.996-.46-.063-134.358-29.854 45.764-211.932 225.553-.032 2.235-.481z" fill="#fff"/><path fill="#0071bc" d="M474.676 404.413l.418 65.322-228.518-.096.428-65.216H473.36z"/><path fill="#fff" d="M474.345 353.064l.331 51.349-1.316.01H247.004l.332-51.381 3.467.022z"/><path fill="#0071bc" d="M471.445 191.871l3.2 20.8-1.221-1.177.225 34.571H248.032l.224-34.657 1.156-18.842H466.94zM473.98 297.425l.365 55.639H250.803l-3.467-.022.364-55.617h225.66z"/><path fill="#fff" d="M473.649 246.065l.331 51.36H247.7l.332-51.36zM473.456 547.32l-2.236.482-225.553.032 9.63-44.587h208.637zM463.014 137.065l8.432 54.805-4.505.695H249.412l3.531-57.779 40.659-23.54 1.327-.664c22.609 45.432 82.207 108.208 128.142-.749l39.943 27.232z"/><path d="M423.071 109.834c-45.935 108.957-105.533 46.181-128.142.749-6.977-14.006-10.433-26.365-8.881-31.533l29.21-10.047c-4.098 6.077-6.42 13.054-6.42 20.469 0 23.604 36.187 73.091 66.083 53.874 29.959-19.26 32.1-34.24 39.183-53.874 2.312-6.398 1.327-12.669-1.947-18.34l1.284-.545 21.025 7.64c-3.681 11.856-7.479 22.352-11.395 31.607z" fill="#fff"/><path d="M315.259 69.004c8.935-13.247 26.268-22.245 46.202-22.245 20.683 0 42.639 10.39 50.696 24.374 3.274 5.671 4.259 11.941 1.947 18.34-7.083 19.634-9.223 34.614-39.183 53.874-29.896 19.217-66.083-30.27-66.083-53.874.001-7.415 2.323-14.392 6.421-20.469z" fill="#fff"/><path d="M334.722 789.683l-2.76 20.619c-90.981-12.818-135.771-33.319-135.771-33.319l3.713-17.217 134.358 29.854.46.063z" fill="#0071bc"/><path d="M294.929 110.583l-1.327.664-40.659 23.54-73.69 73.69c.642-10.197 1.701-27.734-14.156-34.4l77.146-79.95 43.806-15.076c-1.552 5.168 1.904 17.526 8.88 31.532z" fill="#fff"/><path d="M179.253 208.487v-.011l73.69-73.69-3.531 57.779-1.155 18.842-46.021 44.458-33.126-37.535 2.514-2.226 7.629-7.617z" fill="#0071bc"/><path d="M165.097 174.077c15.857 6.666 14.798 24.203 14.156 34.4v.011l-7.629 7.618-2.514 2.226-22.31-25.284 18.297-18.971z" fill="#0071bc"/><g fill="none" stroke="#231f20"><path d="M412.157 71.133c3.274 5.671 4.259 11.941 1.947 18.34-7.083 19.634-9.223 34.614-39.183 53.874-29.896 19.217-66.083-30.27-66.083-53.874 0-7.415 2.322-14.392 6.42-20.469 8.935-13.247 26.268-22.245 46.202-22.245 20.684 0 42.64 10.389 50.697 24.374z" stroke-width="14"/><path stroke-width="14" d="M413.441 70.587l21.025 7.64 49.594 18.04 66.286 70.715 24.524 26.172-28.194 31.939-27.242 30.869-44.789-43.291-1.221-1.177.225 34.571.331 51.36.365 55.639.331 51.349.418 65.322-228.518-.096.428-65.216.332-51.381.364-55.617.332-51.36.224-34.657-46.02 44.458-33.127-37.535-22.309-25.284 18.297-18.97 77.146-79.95 43.805-15.076 29.211-10.047h.011M245.667 547.834l9.63-44.587h208.637l9.522 44.073 45.678 211.547 3.917 18.115s-44.812 20.501-135.782 33.319l-2.525-18.854-8.795-65.762s-3.392-20.501-14.701-20.501h-3.264c-11.31 0-14.702 20.501-14.702 20.501l-8.56 63.996-2.76 20.619c-90.981-12.818-135.771-33.319-135.771-33.319l3.713-17.217 45.763-211.93z"/><path stroke-width="14" d="M244.137 547.834h1.53l225.553-.032"/><path d="M291.462 77.007c-2.942-1.177-4.697-.321-5.414 2.043-1.552 5.168 1.904 17.526 8.881 31.533 22.609 45.432 82.207 108.208 128.142-.749 3.917-9.255 7.714-19.752 11.395-31.607.129-.407.246-.813.375-1.22M293.602 111.247l-40.659 23.54M179.253 208.487l-7.629 7.618M252.943 134.787l-73.69 73.69" stroke-width="7.49"/><path stroke-width="7.49" d="M422 109.107l1.071.727 39.943 27.231 6.066 4.142M469.08 141.207l72.513 78.387 5.083 5.499 1.583 1.713M163.064 173.306a26.3 26.3 0 0 1 2.033.771c15.857 6.666 14.798 24.203 14.156 34.4v.011c-.289 4.537-.492 7.618.931 7.618"/><path d="M550.399 166.886c-.021.032-.032.064-.054.096-12.102 20.843-7.672 44.479-8.753 52.611-.246 1.883-.791 2.932-1.894 2.932M252.943 134.787l-3.531 57.779-1.156 18.842M462.66 134.787l.354 2.278 8.431 54.806 3.2 20.8.855 5.575M248.663 192.566H466.94M246.523 246.065H475.5M246.523 297.425H473.36M250.803 353.064H477.64M246.523 404.423H473.36M199.443 759.659l.46.107 134.359 29.853M383.481 791.759l1.263-.311 134.39-32.581 5.586-1.347" stroke-width="7.49"/></g><path fill="none" d="M0 0h850.394v850.394H0z"/><g><path d="M809.037 182.69c2.96 6.384 3.076 16.216-3.388 8.379-3.118-3.784-7.866-9.85-14.312-9.276l-.07-1.227-2.828-9.539-1.791-.15c5.725-1.477 10.424-6.222 14.592-4.687 3.356 1.236 2.295 6.662 3.141 8.74 1.433 3.547 3.078 4.346 4.656 7.76z" fill="#9c5c25"/><path d="M759.907 197.634c-9.893 7.772-15.367 10.595-21.195 2.118-1.874-2.722-3.934-5.929-5.871-9.029l18.501-11.657h.003c.642 1.15 2.371 3.747 4.324 2.493 2.472-1.59 6.71-10.421 19.252-10.073l8.548-.183c1.095 0 2.154-.159 3.18-.424l1.791.15 2.828 9.539.07 1.227a9.787 9.787 0 0 0-.872.119c0-.001-17.446 5.415-30.559 15.72zM776.456 125.682c.049.323.092 1.102-.47 1.532-.714.559-1.853.772-2.447.687l-.138-.037c-.165.696-1.031.998-1.679.54-.613-.427-1.235-2.353-3.256-5.071a27.502 27.502 0 0 0-1.227-1.532c-1.291-1.493-2.755-2.786-3.668-4.071-.415-.583-.717-1.166-.833-1.761-.482-2.429.104-4.352-.259-8.532 2.456-1.272 4.968-3.756 9.496-4.666 1.52 1.358 4.946 3.887 5.868 5.639.192.366 2.877 8.331 2.816 12.377-.013.827-.586 2.252-1.014 2.969a1.574 1.574 0 0 1-.774 1.325c-.901.546-1.918 1.236-2.415.601z" fill="#ffeec8"/><path d="M765.107 126.573c.586-3.067-.073-6.1-1.843-8.624l.308-.22c.913 1.285 2.377 2.578 3.668 4.071.458.534.867 1.046 1.227 1.532-.308 1.657-1.605 4.117-3.36 3.241z" fill="#ffeec8"/><path d="M751.748 103.476c-9.329-5.642-14.952-10.54-20.32-11.406a9.9 9.9 0 0 0-4.959.43c-12.785-3.97-13.726-22.755-13.726-22.755l.016-.619c7.372.204 15.31 2.289 25.443 6.429 18.736 7.659 26.872 16.311 33.774 27.217-4.528.909-7.04 3.393-9.496 4.666-.69.354-1.374.616-2.097.72-2.816.402-6.502-3.385-8.635-4.682zM732.841 190.722a535.777 535.777 0 0 1-7.638-12.627l-.156-.204c2.558-1.956 5.285-4.346 8.541-7.461l.54-.541c7.604-7.021 15.17-15.361 17.241-19.987 1.841 4.953 2.469 19.744 4.389 26.383l-4.413 2.78h-.003l-18.501 11.657z" fill="#fff"/><path d="M722.081 180.021l-.152-.229-26.53-18.453-.141-.098s6.781-10.396 9.552-15.496l.256-.436c.583.317 1.297.574 2.188.778 5.386 1.224 11.84-2.057 16.624-3.481 8.364-2.493 20.87-8.624 20.635-17.592 1.682 2.6 3.424 5.108 4.873 7.623 3.101 5.367 4.883 10.775 1.983 17.265-2.071 4.626-9.637 12.966-17.241 19.987l-.54.541c-3.256 3.115-5.983 5.505-8.541 7.461a55.488 55.488 0 0 1-2.966 2.13z" fill="#fff"/><path d="M679.497 111.358c-4.144-5.582-9.433-20.943-10.5-28.815 1.422-.952 2.893-1.462 4.382-1.313l.033-.125c1.157.317 2.356.482 3.586.482 5.179 0 9.808-2.942 12.874-7.562l.263.177c8.117-3.534 15.074-5.292 22.624-5.078l-.016.619s.94 18.785 13.726 22.755a9.9 9.9 0 0 1 4.959-.43l-.22 1.59c5.279 12.261 11.202 19.651 13.134 29.749.104.543.162 1.08.171 1.605.235 8.969-12.271 15.099-20.635 17.592-4.784 1.425-11.238 4.705-16.624 3.481-.892-.204-1.605-.46-2.188-.778-2.291-1.245-2.608-3.391-4.095-6.659-5.523-12.154-12.319-18.837-22.02-27.204.144-.003.286-.003.433-.003l.113-.083z" fill="#fff"/><path d="M695.081 208.583c-1.943 15.544-9.893 21.724-11.306 32.151-.046.342-.089.674-.125 1.004l-.488-.052-8.831-2.121-1.254-.162c.115-.867.14-1.822.066-2.877 0 0 .742-6.219.388-14.696s0-31.968 1.767-37.622c1.764-5.654 19.43-21.904 19.43-21.904l.671-.964 26.53 18.453.152.229c-3.006 2.026-5.966 3.595-9.515 5.246-4.84 2.258-11.034 4.226-15.282 7.146-4.769 3.282-1.544 10.896-2.203 16.169z" fill="#ffeec8"/><path d="M683.65 241.737c-1.188 10.201 1.211 14.995-4.849 16.619-2.566.689-6.22-1.526-8.401-2.044-3.72-.891-5.328-.019-9.023-.72-6.911-1.3-14.982-6.921-4.843-7.623 4.66-.327 15.358.479 16.543-8.566l1.254.162 8.831 2.121.488.051z" fill="#9c5c25"/><path d="M668.997 82.543c1.067 7.873 6.356 23.234 10.5 28.815l-.113.085c-.146 0-.289 0-.433.003-13.412.128-12.414 12.249-21.623 16.692-9.253 4.467-11.229-1.108-15.667-8.694-.106-.183-.217-.369-.326-.556h.003c2.499-1.996 6.57-6.121 6.823-9.768l.5.003c6.408 2.157 5.219-2.401 7.846-7.925 2.011-4.228 6.86-14.902 12.49-18.655z" fill="#fff"/><path d="M693.717 60.694c0 5.069-1.443 9.713-3.845 13.332-3.066 4.62-7.695 7.562-12.874 7.562-1.229 0-2.429-.165-3.586-.482-7.513-2.051-13.137-10.409-13.137-20.412 0-11.541 7.485-20.9 16.723-20.9 9.233 0 16.719 9.359 16.719 20.9z" fill="#ffeec8"/><path d="M634.588 212.711c10.632 0 19.252 8.624 19.252 19.255 0 10.638-8.62 19.255-19.252 19.255-10.635 0-19.255-8.618-19.255-19.255 0-10.631 8.62-19.255 19.255-19.255z" fill="#fff"/><path d="M638.323 104.511c-.922 2.139-2.71 1.437-3.22 1.062a2.966 2.966 0 0 0-.396-.339c-1.275-.918-2.289-2.466-3.714-3.158-.247-.119-.412-.256-.507-.403-.451-.693.647-1.639 1.508-2.42.939-.836 1.947-.366 2.163-.25l.007-.015c.488.214 1.376.69 2.225 1.34.25.729.659 1.339 1.245 1.779.191.144.399.247.61.32.308.653.39 1.357.079 2.084z" fill="#ffeec8"/><path d="M628.72 101.715c.613-.448 1.395-.204 1.767-.042.095.146.26.284.507.403 1.425.692 2.438 2.24 3.714 3.158.138.098.271.21.396.339.827.83 1.267 2.188-.396 2.875-1.386.564-2.225.335-3.101-.327a11.14 11.14 0 0 1-.909-.799l-.695.073c-2.731-1.511-2.594-2.35-3.892-2.368h-.018l1.071-.854c.104-.682.707-1.857 1.556-2.458z" fill="#ffeec8"/><path d="M640.728 119.503c-5.13-1.639-5.12-1.26-9.835-3.741-1.968-1.041-3.473-2.951-4.736-4.706a29.36 29.36 0 0 1-.937-1.382l.891-.177c.696.711 3.089 2.362 4.639 1.383.977-.61 1.334-1.648.857-2.759.876.662 1.715.891 3.101.327 1.663-.687 1.224-2.045.396-2.875.51.375 2.298 1.077 3.22-1.062.311-.727.229-1.431-.079-2.084-.382-.799-1.103-1.52-1.855-2.099-.208-.601-.306-1.288-.306-2.026 0-.689 1.27-.711 2.618-.427h.003c3.895 1.245 5.7 2.896 6.018 3.21 1.764 1.715 1.844 3.811 3.089 6.136l.073-.027c.244.617.323 1.267.277 1.929-.253 3.646-4.324 7.772-6.823 9.768h-.003c.109.187.22.373.326.556l-.934.056z" fill="#ffeec8"/><path d="M630.749 110.879c-1.55.979-3.942-.671-4.639-1.383l-.891.177c-.431-.681-.842-1.413-1.02-1.953-.351-1.05.647-2.694 1.893-2.694h.018c1.298.018 1.16.857 3.892 2.368l.695-.073c.32.305.616.577.909.799.477 1.111.12 2.149-.857 2.759z" fill="#ffeec8"/><g fill="none" stroke="#231f20"><path d="M673.412 81.105c-7.513-2.051-13.137-10.409-13.137-20.412 0-11.541 7.485-20.9 16.723-20.9 9.233 0 16.719 9.359 16.719 20.9 0 5.069-1.443 9.713-3.845 13.332-3.066 4.62-7.695 7.562-12.874 7.562a13.457 13.457 0 0 1-3.586-.482zM673.379 81.23c-1.489-.149-2.96.36-4.382 1.313-5.63 3.753-10.479 14.427-12.49 18.657-2.627 5.523-1.438 10.082-7.846 7.925M641.335 118.889c.109.187.22.373.326.556 4.438 7.586 6.414 13.161 15.667 8.694 9.209-4.443 8.211-16.564 21.623-16.692.144-.003.286-.003.433-.003" stroke-width="6.408"/><path d="M677.435 110.144c.513.439 1.019.873 1.517 1.303 9.7 8.367 16.496 15.05 22.02 27.204 1.486 3.268 1.804 5.414 4.095 6.659.583.317 1.297.574 2.188.778 5.386 1.224 11.84-2.057 16.624-3.481 8.364-2.493 20.87-8.624 20.635-17.592a9.398 9.398 0 0 0-.171-1.605c-1.932-10.098-7.854-17.488-13.134-29.749" stroke-width="6.408"/><path d="M690.135 74.203c8.117-3.534 15.074-5.292 22.624-5.078 7.372.204 15.31 2.289 25.443 6.429 18.736 7.659 26.872 16.311 33.774 27.217-4.528.909-7.04 3.393-9.496 4.666-.69.354-1.374.616-2.097.72-2.816.403-6.503-3.384-8.636-4.681-9.329-5.642-14.952-10.54-20.32-11.406a9.9 9.9 0 0 0-4.959.43c-.448.152-.899.338-1.36.562" stroke-width="6.408"/><path d="M749.386 132.637c-1.449-2.515-3.191-5.023-4.873-7.623l-.006-.009" stroke-width="7.066"/><path d="M694.728 162.303s-17.666 16.25-19.43 21.904c-1.767 5.654-2.12 29.145-1.767 37.622.354 8.477-.388 14.696-.388 14.696a14.357 14.357 0 0 1-.066 2.877c-1.185 9.045-11.883 8.239-16.543 8.566-10.14.702-2.068 6.323 4.843 7.623 3.695.702 5.304-.171 9.023.72 2.182.519 5.835 2.734 8.401 2.044 6.06-1.624 3.661-6.417 4.849-16.619.036-.33.079-.662.125-1.004 1.413-10.427 9.362-16.606 11.306-32.151.659-5.273-2.566-12.886 2.203-16.17 4.248-2.92 10.442-4.889 15.282-7.146 3.549-1.651 6.509-3.219 9.515-5.246a55.329 55.329 0 0 0 2.966-2.13c2.558-1.956 5.285-4.346 8.541-7.461l.54-.541c7.604-7.021 15.17-15.361 17.241-19.987 2.899-6.49 1.117-11.898-1.983-17.265M751.342 179.065l-18.501 11.657-.312.195M751.369 149.902c1.841 4.953 2.469 19.744 4.389 26.383l-4.413 2.78M668.938 82.109c.019.141.037.287.059.434 1.067 7.873 6.356 23.234 10.5 28.815.598.812 1.175 1.416 1.712 1.761" stroke-width="6.408"/><path d="M638.701 97.874c-.25-.083-.513-.162-.781-.238-1.412-.4-4.485 1.034-3.759 1.349l.003.003c.488.214 1.376.69 2.225 1.34.753.58 1.474 1.3 1.855 2.099.308.653.39 1.358.079 2.084-.922 2.139-2.71 1.437-3.22 1.062-.015-.012-.03-.021-.043-.034M647.811 107.22c-1.245-2.325-1.325-4.421-3.089-6.136-.317-.314-2.123-1.965-6.018-3.21" stroke-width="2.136"/><path d="M634.2 99.027l-.043-.024c-.216-.116-1.224-.585-2.163.25-.86.781-1.959 1.727-1.508 2.42.095.146.26.284.507.403 1.425.692 2.438 2.24 3.714 3.158.138.098.271.21.396.339.827.83 1.267 2.188-.396 2.875-1.386.564-2.225.335-3.101-.327a11.14 11.14 0 0 1-.909-.799c-.479-.452-1.01-.983-1.669-1.544" stroke-width="2.136"/><path d="M630.7 101.776s-.079-.045-.214-.104c-.372-.162-1.153-.406-1.767.042-.849.601-1.452 1.776-1.556 2.457M640.728 119.503c-5.13-1.639-5.12-1.26-9.835-3.741-1.968-1.041-3.473-2.951-4.736-4.706a29.36 29.36 0 0 1-.937-1.382c-.431-.681-.842-1.413-1.02-1.953-.351-1.05.647-2.694 1.893-2.694h.018c1.298.018 1.16.857 3.892 2.368" stroke-width="2.136"/><path d="M630.209 106.415c.702.556 1.156 1.139 1.397 1.706.477 1.111.119 2.148-.857 2.759-1.55.979-3.942-.671-4.639-1.383" stroke-width="2.136"/><path d="M771.977 102.771c1.52 1.358 4.946 3.887 5.868 5.639.192.366 2.877 8.331 2.816 12.377-.013.827-.586 2.252-1.014 2.969-.237.394-.43.574-.46.33-.102-.772.104-.955-.922-5.056-.306-1.242-2.374-4.715-2.374-4.715" stroke-width="2.136" stroke-miterlimit="10"/><path d="M779.605 123.29s.052.192.042.467a1.574 1.574 0 0 1-.774 1.325c-.903.546-1.92 1.236-2.417.601a1.32 1.32 0 0 1-.208-.467c-.378-1.538-.396-2.484-1.864-5.383-.921-1.819-2.328-4.696-2.328-4.696" stroke-width="2.136" stroke-miterlimit="10"/><path d="M776.432 125.536s.012.055.024.146c.049.323.092 1.102-.47 1.532-.714.559-1.853.772-2.447.687M762.407 106.653c.027.271.055.531.073.784.362 4.181-.224 6.103.259 8.532.116.595.418 1.178.833 1.761.913 1.285 2.377 2.578 3.668 4.071.458.534.867 1.046 1.227 1.532 2.021 2.719 2.643 4.645 3.256 5.071.647.458 1.514.156 1.679-.54a1.13 1.13 0 0 0-.012-.552c-.303-1.229.039-1.437-1.81-5.011-.593-1.132-1.004-2.746-3.946-6.255" stroke-width="2.136" stroke-miterlimit="10"/><path d="M641.338 118.889c2.499-1.996 6.57-6.121 6.823-9.768a4.369 4.369 0 0 0-.452-2.323" stroke-width="4.272" stroke-miterlimit="10"/><path d="M763.097 117.711c.058.08.112.159.168.238 1.77 2.523 2.429 5.557 1.843 8.624 1.755.875 3.052-1.584 3.359-3.241.016-.073.027-.144.037-.214M641.555 99c-.546-.445-1.725-.891-2.851-1.126h-.003c-1.349-.284-2.618-.262-2.618.427 0 .738.098 1.425.306 2.026.25.729.659 1.339 1.245 1.779.191.144.399.247.61.32 1.385.482 3.021-.293 3.021 1.016 0 4.541 1.291 5.334 2.658 6.701" stroke-width="2.136"/><path d="M751.076 178.553s.095.205.266.513h.003c.642 1.15 2.371 3.747 4.324 2.493 2.472-1.59 6.71-10.421 19.252-10.073l8.548-.183c1.095 0 2.154-.159 3.18-.424 5.725-1.477 10.424-6.222 14.592-4.687 3.356 1.236 2.295 6.662 3.141 8.74 1.434 3.546 3.078 4.345 4.656 7.76 2.96 6.384 3.076 16.216-3.388 8.379-3.118-3.784-7.866-9.85-14.312-9.276a9.787 9.787 0 0 0-.872.119s-17.446 5.416-30.559 15.721c-9.893 7.772-15.367 10.595-21.195 2.118-1.874-2.722-3.934-5.929-5.871-9.029a535.777 535.777 0 0 1-7.638-12.627M721.929 179.792l-26.53-18.453-.141-.098s6.781-10.396 9.552-15.496M712.743 69.745s.94 18.785 13.726 22.755c.797.247 1.636.436 2.527.562" stroke-width="6.408"/><path stroke-width="7.066" d="M674.331 239.564l8.831 2.122M788.439 171.028l2.829 9.538"/><path d="M653.84 231.966c0 10.638-8.62 19.255-19.252 19.255-10.635 0-19.255-8.618-19.255-19.255 0-10.631 8.62-19.255 19.255-19.255 10.632 0 19.252 8.624 19.252 19.255z" stroke-width="6.408"/></g></g></svg>