<svg id="Layer_1" xmlns="http://www.w3.org/2000/svg" viewBox="0 0 850 850"><style>.st0{fill:#ffeec8}.st1{fill:#a9d7f3}.st2{fill:#231f20}.st3{fill:#7a7878}.st4{fill:#6ebe44}.st5{fill:#fff}.st6{fill:#c8c8c8}.st7{fill:#faa41f}.st10,.st8,.st9{fill:none;stroke:#231f20;stroke-width:14;stroke-linecap:round;stroke-miterlimit:10}.st10,.st9{stroke-width:7}.st10{stroke-width:21}</style><path class="st0" d="M763.8 452.8l1 5.2.5 5.3v6l-.3 1.2-.7 1.3-1 1.5-.8.5-.7.2-1 .3h-.8l-.7-.3-.8-.7-.5-1-.5-1.3-.7-2.2-.8-2-.5.2-.5.3-.2 1-.3 1-.2.2-.5.3-.8-1.3-.5-1.7-.2-2.3v-5.2l.2-2.8.3-2.2.5-1.5h9.5z"/><path class="st1" d="M763 450.3l.8 2.5h-10.5l-19-41.3L732 435l1.8 5.3 1 4.2 1 5h-54.5l-2.3-.2 1-6 .8-4.3 1-4-1.8-23.7-19 41.2-9.7-2.5 3.5-11.7 2.7-10.3 2.5-9.2 1.8-5.8 2.2-6.5 2.5-6.2 2.5-6.3 4.5-10 2-4 2.8-2.2 3-2.5 6.7-4.8 5.5-3.2 2.5-1.5 2.3 1.7 2.2 1.5 2.8 1h1.2l1.3.3 1.5-.3 1.2-.2 2.8-.8 2.2-1.5 2.3-2 2.5.5 2.2 1.3 5.8 3.5 6.7 4.7 3 2.5 2.8 2.3 2 4 4.5 10 2.5 6 2.5 6.5 2.2 6.5 1.8 5.7 2.5 9.3 2.7 10.2z"/><path class="st2" d="M731.5 551.8l.3 1.2.7 1 1.3 1.3 1.5 1.2 3.7 2.3 4 2 1 .7 1 .8.8 1 .7 1 .3 1.2.2 1v2.5l-.7 1-.8.8-1.2.7-1.5.3-1.5.5h-1.5l-1.5-.3-1.3-.5-2.5-1.7-.7-.5-.8-.5-1.7-.8-5-1.7-1.8-.8-1.5-.7-1-.8-1-1.2-.5-1.8-.2-2.2z"/><path class="st0" d="M696 365.8l-1.2-1.5-1-1.8-1-1.7-1-2-.5-2-.5-2-.3-2.5-.2-2.3.2-2 .3-2 .2-2 .5-1.7.8-1.8.7-1.7.8-1.5 1-1.5 1.2-1.3 1.3-1.2 1.2-1 1.3-.8 1.5-.7 1.5-.5 1.5-.3 1.5-.2 1.7.2 1.5.3 1.5.5 1.5.7 1.3.8 1.2 1 1.3 1.2 1 1.3 1 1.5 1 1.5.7 1.7.8 1.8.5 1.7.2 2 .3 2 .2 2-.2 2.3-.3 2.2-.5 2.3-.5 2-1 2-1 1.7-1 1.5-1.2 1.5-2.3 2-2.2 1.5-2.8.8-1.2.2-1.5.3-1.3-.3h-1.2l-2.8-1-2.2-1.5z"/><path class="st2" d="M692.8 558.8l2.2.5-.5 1.7-.5 1.5-1 1-1 .8-1.5.5-1.7.7-4.8 1.8-1.7.7-.5.3-.8.7-2.7 1.8-1.3.5h-3l-1.5-.3-1.2-.5-1.3-.5-1-1-.5-1-.2-1v-1.2l.2-1.3.5-1 .5-1 1-1 1-.7 1-.8 3.8-2 3.7-2.2 1.5-1 1.3-1.3 1-1.2.2-1 .3-.5z"/><path class="st3" d="M695.5 554.5l-.5 4.8-2.2-.5-8.5-8-.3.5-3-41.8-2-27.7-.5-11-.2-7.8.2-7.2.5-6.5 2.3.2h54.5l.7 6.5.3 3.5V471l-.8 11.5-1.7 28-2.8 41.3-11.2 7-.5-3.3-1-7.2L710 470h-4.5l-9.2 78.5z"/><path class="st0" d="M661 452.5l.3 1.5.5 2.3.2 2.7v5.3l-.2 2.2-.5 1.8-.3.7-.5.5h-.5l-.2-.5-.3-.7-.2-1-.5-.5-.5-.3-.8 2-.7 2.5-.5 1-.5 1-.8.8-.7.5h-.8l-1-.3-.7-.5-.8-.5-1-1.5-.7-1.2-.3-1.5V462l.8-6 .7-3 .8-3z"/><path class="st4" d="M582.5 552.5l-162.7 14.8-3-.3.5-52.2 8.2.5 21.3.5 14.2.2h16.3l17.2-.5 18-.7 9.5-.5 8.8-.8 7.7-1 7.3-.7 6.2-1 5.8-1 9.2-2 6.8-2 4.5-1.5 2.7-1.3.8-.2z"/><path class="st5" d="M580 398l1.8 104.8-.8.2-2.7 1.3-4.5 1.5-6.8 2-9.2 2-5.8 1-6.2 1-7.3.7-7.7 1-8.8.8-9.5.5-18 .7-17.2.5H461l-14.2-.2-21.3-.5-8.2-.5 1.2-120.5H444l26 .5 45.8 1.2z"/><path class="st6" d="M580 382v16l-64.2-2-45.8-1.2-26-.5h-25.5V375l.3-3.5.5-3 .5-2.7 1-2.5 1-2.3 1.2-2 1.3-1.7 1.2-1.5 2.5-2.5 2.3-1.5 1.7-1 1-.3 13.5-.5 14.5-.2 15.8.2 16.2.5 16.8 1 8.2.8 8.3 1 8.2 1 8.3 1.2 8 1.3 7.7 1.7h1l2.5.5 3.3 1 2 .8 2 1 2 1.5 2 1.5 1.7 2 1.5 2.2 1.5 2.5 1 3 .8 3.5z"/><path class="st7" d="M547 558.5l1.5.3 1.5.2 1.3.8 1 1 1 1 .7 1.2.3 1.5.2 1.5-.2 1.5-.3 1.5-.7 1.3-1 1-1 1-1.3.7-1.5.3-1.5.2-1.5-.2-1.5-.3-1.2-.7-1-1-1-1-.8-1.3-.2-1.5-.3-1.5.3-1.5.2-1.5.8-1.2 1-1 1-1 1.2-.8 1.5-.2z"/><path class="st6" d="M547 558.5l-1.5.3-1.5.2-1.3.8-1 1-1 1-.7 1.2-.3 1.5-.3 1.5.3 1.5.3 1.5.8 1.3 1 1 1 1 1.3.8 1.5.3 1.5.3 1.5-.3 1.5-.3 1.3-.8 1-1 1-1 .8-1.3.3-1.5.3-1.5-.3-1.5-.5-1.5-.8-1.3-1-1-1-1-1.2-.7-1.5-.3-1.5-.2zm-127.2 8.8l162.8-14.8.3 16.5.3.8.3 2.3v3.3l-.5 1.6-.3 1.8-.5 2-1 2-1 2-1.5 1.8-2 1.8-2.3 1.5-2.8 1.3-3.3 1-5 1-7 1.3-20 3.3L512 601l-26.8 4-47.8 6.5-21.3 3 .5-47.5 3.2.3zm49.5 10.2l-.3-1.5-.3-1.3-.8-1.3-1-1.3-1-.8-1.3-.8-1.5-.5-1.5-.3-1.5.3-1.5.5-1.3.8-1 .8-1 1.3-.5 1.3-.5 1.3-.3 1.5.3 1.8.5 1.3.5 1.3 1 1.3 1 .8 1.3.8 1.5.5h3l1.5-.5 1.3-.8 1-.8 1-1.3.8-1.3.3-1.3.3-1.8z"/><path class="st7" d="M461.8 570l1.5.3 1.5.5 1.2.7 1 .8 1 1.2.8 1.3.2 1.2.3 1.5-.3 1.8-.2 1.2-.8 1.3-1 1.2-1 .8-1.2.7-1.5.5h-3l-1.5-.5-1.3-.7-1-.8-1-1.2-.5-1.3-.5-1.2-.2-1.8.2-1.5.5-1.2.5-1.3 1-1.2 1-.8 1.3-.7 1.5-.5z"/><path class="st4" d="M127.8 403.8L92.5 405H89v-26.2L394.8 353l10.5-1 12-.7 15.7-.8-1 .3-1.7 1-2.3 1.5-2.5 2.5-1.2 1.5-1.3 1.7-1.2 2-1 2.3-1 2.5-.5 2.7-.5 3-.3 3.5v19.3l-69.2 2.2-58.5 2-48 1.5-43 1.5-35.3 1z"/><path class="st5" d="M418.5 394.3l-1.2 120.5-67.8-8.3v-106l-.2-4z"/><path class="st4" d="M127.8 479l36.7 4.5 34.8 4.3 43.7 5.5 47.8 6 58.7 7.2 67.8 8.3-.5 52.2-.5 47.5-73.3-18 1-5.5.5-4.5V578l-.2-2.7-.3-4.8-.7-4.5-1-4.2-1.3-3.8-1.5-3.5-1.7-3-1.8-3-2-2.5-2.2-2.2-2.3-1.8-2.5-1.7-2.5-1.3-2.5-1-2.5-.7-2.7-.5h-5l-2.5.7-2.5 1-2.3 1.3-2 1.5-2 2-2 2.2-1.7 2.5-1.8 2.8-1.2 3-1.3 3.2-1 3.3-1 3.5-.5 3.7-.5 3.8v5.7l-.5 2.5-.5 2.5-.5 2-124.5-36.2.5-6.8.3-5.5-.3-2.7-.2-2.8-.5-2.7-.8-2.5-.7-2.5-1-2.3-1.3-2.2-1.2-2-1.5-1.8-1.5-1.5-1.5-1.5-2-1-1.8-1-2-.7-2-.5h-4l-2 .5-2 .7-1.7 1-1.8 1-1.7 1.5-1.5 1.5-1.5 1.8-1.3 2-1 2.2-1 2.3-1 2.5-.7 2.5-.5 2.7-.3 2.8v5.2l.3 2.3-15-5.8-20.3-20v-40h3z"/><path class="st5" d="M349.5 506.5l-58.7-7.2V398.5l58.5-2 .2 4zM290.8 398.5v100.8l-47.8-6V403l-.2-3z"/><path class="st3" d="M290.3 577l.2-3.2.5-3.3.8-3 1-3 1.2-2.7 1.3-2.5 1.5-2.5 1.5-2.3 2-2 1.7-1.7 2.3-1.5 2-1.5 2.2-1 2.5-.8 2.3-.5h5.2l2.3.5 2.5.8 2.2 1.2 2.3 1.3 2 1.7 2 1.8 1.7 2.2 1.8 2.3 1.5 2.5 1.2 2.7 1.3 2.8.7 3 .8 3.2.5 3.3.2 3.2v5.5l-.5 3.3-.5 3.2-1 3.3-1 3-1.2 2.7-1.5 2.8-1.8 2.5-1.7 2.2-2 2-2.3 1.8-2.2 1.2-2.3 1.3-2.5.7-2.5.5-2.7.3-2.5-.3-2.5-.5-2.5-.7-2.5-1.3-2.3-1.2-2-1.8-2-2-1.7-2.2-1.8-2.5-1.5-2.8-1.2-2.7-1.3-3-.7-3.3-.8-3.2-.2-3.3-.3-3.7z"/><path class="st5" d="M243 493.3l-43.7-5.5.5-3v-83.3l43-1.5.2 3z"/><path class="st5" d="M199.8 401.5v83.3l-.5 3-34.8-4.3v-81zM164.5 406.3v77.2l-36.7-4.5v-75.2l36.7-1.3z"/><path class="st3" d="M162.5 539.8l-.2 1.2v2.3l-.5 2.5-.5 2-.5 2.2-.8 2-1 2-1 1.8-1.2 1.5-1.3 1.5-1.2 1.2-1.5 1.3-1.5 1-1.8.7-1.7.5-1.8.3-1.7.2-1.8-.2-1.7-.3-1.8-.5-1.7-1-1.5-1-1.5-1-1.3-1.5-1.2-1.5-1.3-1.7-1-1.8-1-2-.7-2-.5-2.2-.5-2.3-.3-2.5-.2-2.5v-2.7l.2-2.3.5-2.5.8-2.2.7-2 .8-2 1.2-1.8 1-1.7 1.3-1.8 1.5-1.2 1.5-1.3 1.5-1 1.7-.7 1.8-.8 1.7-.2 1.8-.3 2 .3 1.7.2 1.8.8 1.5.7 1.7 1 1.5 1.3 1.3 1.2 1.2 1.8 1.3 1.7 1 1.8 1 2 .7 2 .5 2.2.5 2.5.3 2.3z"/><path class="st5" d="M127.8 403.8V479L92 474.5h-3V405h3.5z"/><path class="st8" d="M433 350.5l-1 .3-1.7 1-2.3 1.5-2.5 2.5-1.2 1.5-1.3 1.7-1.2 2-1 2.3-1 2.5-.5 2.7-.5 3-.3 3.5v19.3l-1.2 120.5-.5 52.2-.5 47.5"/><path class="st8" d="M92.5 405l35.3-1.2 36.7-1.3 35.3-1 43-1.5 48-1.5 58.5-2 69.2-2.2H444l26 .5 45.8 1.2 64.2 2M290.8 499.3l58.7 7.2 67.8 8.3 8.2.5 21.3.5 14.2.2h16.3l17.2-.5 18-.7 9.5-.5 8.8-.8 7.7-1 7.3-.7 6.2-1 5.8-1 9.2-2 6.8-2 4.5-1.5 2.7-1.3.8-.2M92 474.5l35.8 4.5 36.7 4.5 34.8 4.3 43.7 5.5 47.8 6M127.8 403.8v76M164.5 406.3v77.2M199.8 401.5v83.3M243 403v90.3M290.8 398.5v100.8M349.5 400.5v106M419.8 567.3l162.7-14.8"/><path class="st9" d="M469.3 577.5l-.3 1.8-.2 1.2-.8 1.3-1 1.2-1 .8-1.2.7-1.5.5h-3l-1.5-.5-1.3-.7-1-.8-1-1.2-.5-1.3-.5-1.2-.2-1.8.2-1.5.5-1.2.5-1.3 1-1.2 1-.8 1.3-.7 1.5-.5 1.5-.3 1.5.3 1.5.5 1.2.7 1 .8 1 1.2.8 1.3.2 1.2zM554.5 566l-.2 1.5-.3 1.5-.7 1.3-1 1-1 1-1.3.7-1.5.3-1.5.2-1.5-.2-1.5-.3-1.2-.7-1-1-1-1-.8-1.3-.2-1.5-.3-1.5.3-1.5.2-1.5.8-1.2 1-1 1-1 1.2-.8 1.5-.2 1.5-.3 1.5.3 1.5.2 1.3.8 1 1 1 1 .7 1.2.3 1.5z"/><path class="st8" d="M416.3 614.5l21.2-3 47.8-6.5 26.7-4 24.5-3.5 20-3.2 7-1.3 5-1 3.3-1 2.7-1.2 2.3-1.5 2-1.8 1.5-1.7 1-2 1-2 .5-2 .2-1.8.3-1.7V572l-.3-2.2-.2-.8-.3-16.5-.7-49.7L580 398v-16l-.2-4-.8-3.5-1-3-1.5-2.5-1.5-2.2-1.7-2-2-1.5-2-1.5-2-1-2-.8-3.3-1-2.5-.5h-1l-7.7-1.7-8-1.3-8.3-1.2-8.2-1-8.3-1-8.2-.8-16.8-1-16.2-.5-15.8-.2-14.5.2-13.5.5-15.7.8-12 .7-10.5 1L89 378.8v135.7l20.3 20 15 5.8-.3-2.3v-5.2l.3-2.8.5-2.7.7-2.5 1-2.5 1-2.3 1-2.2 1.3-2 1.5-1.8 1.5-1.5 1.7-1.5 1.8-1 1.7-1 2-.7 2-.5h4l2 .5 2 .7 1.8 1 2 1 1.5 1.5 1.5 1.5 1.5 1.8 1.2 2 1.3 2.2 1 2.3.7 2.5.8 2.5.5 2.7.2 2.8.3 2.7-.3 5.5-.5 6.8L288 584l.5-2 .5-2.5.5-2.5v-5.7l.5-3.8.5-3.7 1-3.5 1-3.3 1.3-3.2 1.2-3 1.8-2.8 1.7-2.5 2-2.2 2-2 2-1.5 2.3-1.3 2.5-1 2.5-.7h5l2.7.5 2.5.7 2.5 1 2.5 1.3 2.5 1.7 2.3 1.8 2.2 2.2 2 2.5 1.8 3 1.7 3 1.5 3.5 1.3 3.8 1 4.2.7 4.5.3 4.8.2 2.7v8.5l-.5 4.5-1 5.5z"/><path class="st10" d="M126.3 540v-2.7l.2-2.3.5-2.5.8-2.2.7-2 .8-2 1.2-1.8 1-1.7 1.3-1.8 1.5-1.2 1.5-1.3 1.5-1 1.7-.7 1.8-.8 1.7-.2 1.8-.3 2 .3 1.7.2 1.8.8 1.5.7 1.7 1 1.5 1.3 1.3 1.2 1.2 1.8 1.3 1.7 1 1.8 1 2 .7 2 .5 2.2.5 2.5.3 2.3.2 2.5-.2 1.2v2.3l-.5 2.5-.5 2-.5 2.2-.8 2-1 2-1 1.8-1.2 1.5-1.3 1.5-1.2 1.2-1.5 1.3-1.5 1-1.8.7-1.7.5-1.8.3-1.7.2-1.8-.2-1.7-.3-1.8-.5-1.7-1-1.5-1-1.5-1-1.3-1.5-1.2-1.5-1.3-1.7-1-1.8-1-2-.7-2-.5-2.2-.5-2.3-.3-2.5zM341.5 578v5.5l-.5 3.3-.5 3.2-1 3.3-1 3-1.2 2.7-1.5 2.8-1.8 2.5-1.7 2.2-2 2-2.3 1.8-2.2 1.2-2.3 1.3-2.5.7-2.5.5-2.7.3-2.5-.3-2.5-.5-2.5-.7-2.5-1.3-2.3-1.2-2-1.8-2-2-1.7-2.2-1.8-2.5-1.5-2.8-1.2-2.7-1.3-3-.7-3.3-.8-3.2-.2-3.3-.3-3.7.3-2.8.2-3.2.5-3.3.8-3 1-3 1.2-2.7 1.3-2.5 1.5-2.5 1.5-2.3 2-2 1.7-1.7 2.3-1.5 2-1.5 2.2-1 2.5-.8 2.3-.5h5.2l2.3.5 2.5.8 2.2 1.2 2.3 1.3 2 1.7 2 1.8 1.7 2.2 1.8 2.3 1.5 2.5 1.2 2.7 1.3 2.8.7 3 .8 3.2.5 3.3z"/><path class="st9" d="M696 365.8l-1.2-1.5-1-1.8-1-1.7-1-2-.5-2-.5-2-.3-2.5-.2-2.3.2-2 .3-2 .2-2 .5-1.7.8-1.8.7-1.7.8-1.5 1-1.5 1.2-1.3 1.3-1.2 1.2-1 1.3-.8 1.5-.7 1.5-.5 1.5-.3 1.5-.2 1.7.2 1.5.3 1.5.5 1.5.7 1.3.8 1.2 1 1.3 1.2 1 1.3 1 1.5 1 1.5.7 1.7.8 1.8.5 1.7.2 2 .3 2 .2 2-.2 2.3-.3 2.2-.5 2.3-.5 2-1 2-1 1.7-1 1.5-1.2 1.5-2.3 2-2.2 1.5-2.8.8-1.2.2-1.5.3-1.3-.3h-1.2l-2.8-1-2.2-1.5zM651.3 450l3.5-11.7 2.7-10.3 2.5-9.2 1.8-5.8 2.2-6.5 2.5-6.2 2.5-6.3 4.5-10 2-4 2.8-2.2 3-2.5 6.7-4.8 5.5-3.2 2.5-1.5M684 551.3l-3-41.8-2-27.7-.5-11-.2-7.8.2-7.2.5-6.5 1-6 .8-4.3 1-4-1.8-23.7-19 41.2.3 1.5.5 2.3.2 2.7v5.3l-.2 2.2-.5 1.8-.3.7-.5.5h-.5l-.2-.5-.3-.7-.2-1-.5-.5-.5-.3-.8 2-.7 2.5-.5 1-.5 1-.8.8-.7.5h-.8l-1-.3-.7-.5-.8-.5-1-1.5-.7-1.2-.3-1.5V462l.8-6 .7-3 .8-3M684.3 552l-.3-.7M763 450.3l-3.5-11.8-2.7-10.2-2.5-9.3-1.8-5.7-2.2-6.5-2.5-6.5-2.5-6-4.5-10-2-4-2.8-2.3-3-2.5-6.7-4.7-5.8-3.5-2.2-1.3M732 436v-1l2.3-23.5 19 41.3-.5 1.5-.3 2.2-.2 2.8v5.2l.2 2.3.5 1.7.8 1.3.5-.3.2-.2.3-1 .2-1 .5-.3.5-.2.8 2 .7 2.2.5 1.3.5 1 .8.7.7.3h.8l1-.3.7-.2.8-.5 1-1.5.7-1.3.3-1.2v-6l-.5-5.3-1-5.2-.8-2.5"/><path class="st9" d="M731.5 552.3v-.5l2.8-41.3 1.7-28 .8-11.5v-11.5l-.3-3.5-.7-6.5-1-5-1-4.2-1.8-5.3-.2-.7M696.3 548.3v.2l-.8 6-.5 4.8-.5 1.7-.5 1.5-1 1-1 .8-1.5.5-1.7.7-4.8 1.8-1.7.7-.5.3-.8.7-2.7 1.8-1.3.5h-3l-1.5-.3-1.2-.5-1.3-.5-1-1-.5-1-.2-1v-1.2l.2-1.3.5-1 .5-1 1-1 1-.7 1-.8 3.8-2 3.7-2.2 1.5-1 1.3-1.3 1-1.2.2-1 .3-.5"/><path class="st9" d="M718.8 548.3l1 7.2.5 3.3.2 2.2.5 1.8 1 1.2 1 .8 1.5.7 1.8.8 5 1.7 1.7.8.8.5.7.5 2.5 1.7 1.3.5 1.5.3h1.5l1.5-.5 1.5-.3 1.2-.7.8-.8.7-1v-2.5l-.2-1-.3-1.2-.7-1-.8-1-1-.8-1-.7-4-2-3.7-2.3-1.5-1.2-1.3-1.3-.7-1-.3-1.2M718.8 548.8v-.5L710 470h-4.5l-9.2 78.5M681.3 449.5H735M651.3 450l9.7 2.5M753.3 452.8h9.5M684.3 550.8l8.5 8"/><path class="st9" d="M719.8 558.8h.5l11.2-7"/><path class="st10" d="M548.8 248.3l18 56.5 53.7-25"/><path class="st10" d="M689.3 283.5l-1.3-4.7-1.7-4.5-2-4.5-2.5-4.3-2.8-4-3.2-3.7-3.3-3.8-3.7-3.2-4-3-4-2.8-4.5-2.5-4.5-2-4.5-1.7-4.8-1.3-4.7-.7-4.8-.3h-3.2l-3 .3-3 .2-3 .5-2.8.8-3 .7-5.5 1.8-5.5 2.5-5 3.2-4.7 3.5-4.5 4-4.3 4.5-3.5 4.8-1.7 2.5-1.5 2.7-1.5 2.8-1.3 3-1.2 3-1 3-1 3.2-.8 3.3-.5 3.2-.5 3.5-.2 3.5-.3 3.5"/></svg>