<svg id="Layer_1" xmlns="http://www.w3.org/2000/svg" viewBox="0 0 850 850"><style>.st0{fill:#ffffc2}.st1{fill:#f6cc4b}.st2{fill:#fff}.st3{fill:#9e5c26}.st4{fill:#ffeec8}.st5{fill:#a9d7f3}.st6{fill:#231f20}.st7{fill:#7a7878}.st10,.st8,.st9{fill:none;stroke:#231f20;stroke-width:14;stroke-linecap:round;stroke-miterlimit:10}.st10,.st9{stroke-width:7}.st10{stroke-width:21}</style><path class="st0" d="M343 618.5l-5.2 5.8v-8.8z"/><path class="st1" d="M659.3 536.3L735 617l-17.2 5.3v4h-186l-178.3-1.8-10.5-6 76.3-82.2h240z"/><path class="st1" d="M353.5 624.5l-15.7-.2 5.2-5.8z"/><path class="st0" d="M337.8 615.5l-1-186.7L336 239l12.3-4 71 82.3v219L343 618.5z"/><path class="st1" d="M743.8 626.3h-26v-4L735 617z"/><path class="st0" d="M744 238.3l-.2 376-8.8 2.7-75.7-80.7V317.8h.5l77-82z"/><path class="st2" d="M736.8 235.8l-77 82h-.5v-.8h-89.8l-8-28.5h-43.7l-8 28.5h-90.5v.3l-71-82.3 12.5-3.7 179-.3 181.7-.5z"/><path class="st0" d="M743.8 614.3v12L735 617zM419.3 317.3v-.3h90.5l-5.5 20.3H575l-5.5-20.3h89.8v219.3h-26.5V399.5h-71v136.8H419.3v-219zM512 461.5v-63h-71v63h71z"/><path class="st3" d="M632.8 533.5v2.8h-71V399.5h71z"/><path class="st1" d="M569.5 317l5.5 20.3h-70.7l5.5-20.3zM539.3 288.5h22.2l8 28.5h-59.7l8-28.5z"/><path class="st2" d="M512 425.5v36h-35.5v-36zM512 398.5v27h-35.5v-27zM476.5 458.3v3.2H441v-63h35.5v27z"/><path class="st4" d="M242.8 451.3l.7 3.5.8 3.5.5 6.5.2 5.5-.2 2-.3 1.7-.5.8-.5 1-1.5 1.7-1 .8-1 .5-1 .5h-1l-.5-.3-.5-.2-1-1-.7-1.3-.5-1.5-1-3.2-.5-1.5-.5-1-.8.2-.5.5-.2.5-.3.8-.5 1.2-.2.5h-.5l-.5-.5-.5-1-.5-2.2-.5-3v-7l.5-3.5.2-3 .5-1.8z"/><path class="st5" d="M201.5 427.8l.8 2.7 1.2 4 1.5 5.5 1.3 6.5-1 .3H135l-3-.3 1-8 1.3-5.7 1.2-5-2.5-31-24.5 54-12.7-3.3L100 432l3.8-13.5 3.2-12 1-3.7 1.3-4 3-8.3 3.2-8.5 3.5-8 6-13 2.5-5.2 3.3-3 4.2-3.3 4.5-3.2 4.3-2.8 7.2-4.5 3.3-2 1.5 1.3 1.2 1.2 1.5 1 1.8.8 1.5.7 1.7.5 1.8.3 1.7.2 2-.2 1.8-.3 1.7-.5 1.5-.7 1.8-.8 1.5-1 1.5-1.2 1.2-1.5 3.3.5 3 2 7.5 4.5 4.2 3 4.5 3 4 3.2 3.5 3 2.5 5.3 6 13 3.5 8 3.3 8.5 3 8.5 1.2 3.7 1 3.8 3 12 3.8 13.5 4.5 15.5 1 3.5-13.8-.3-24.7-54z"/><path class="st6" d="M215.5 592.3l1.5 1 1.3 1 1 1.2.7 1.3.8 1.5.2 1.5v1.5l-.2 1.5-.3.7-.5.5-1.2 1.3-1.5.7-1.8.8-2 .2h-2l-2-.2-1.7-.5-3.3-2.3-1-1-.7-.5-2.5-1-6-2.2-2.3-.8-2-.7-1.5-1-1-1.3-1-2-.5-2.2 15.8-8h.2l1 1.2 1.5 1 3.3 2.3z"/><path class="st7" d="M200.5 580.3h.3v.7l.2.8 1 1.5h-.2l-15.8 8-.2-2.8-.3-3.2-1.5-9.5-11.7-102.5h-5.8l-12 102.7-1 8-.2 3.5-.3 3-1.2-.2-13-11v.2l-1.8-19.7-2.5-34.5L132 489l-.7-14.7-.3-10v-5l.3-4.5.7-8.3 3 .3h70.3l1-.3.5 4.3.5 4.2.2 4.5.3 5-.5 10.3-.8 15-2.2 36.7z"/><path class="st4" d="M154.3 337l-1.5-2-1.5-2-1.3-2.5-1.2-2.5-.8-2.5-.7-3-.3-3-.2-3v-2.7l.5-2.5.5-2.5.5-2.5 1-2.3 1-2.2 1.2-2 1.3-1.8 1.5-1.7 1.5-1.5 1.7-1.5 1.8-1 1.7-1 2-.5 2-.5h4.3l2 .5 2 .5 1.7 1 1.8 1 1.7 1.5 1.5 1.5 1.5 1.7 1.3 1.8 1.2 2 1 2.2.8 2.3.7 2.5.5 2.5.3 2.5.2 2.7-.2 3-.3 3-.7 2.8-.8 2.7-1.2 2.5-1.3 2.3-1.2 2.2-1.8 1.8-1.2 1.5-1.5 1.2-1.5 1-1.8.8-1.5.7-1.7.5-1.8.3-2 .2-1.7-.2-1.8-.3-1.7-.5-1.5-.7-1.8-.8-1.5-1-1.2-1.2z"/><path class="st6" d="M138.8 579.5v-.2l13 11 1.2.2-.7 2.3-.8 1.7-1.2 1.3-1.3 1-2 .7-2.2.8-6 2.2-2.5 1-.8.5-1 1-3.5 2-1.5.8-2 .2h-2l-2-.5-1.7-.5-1.8-1-1-1-.5-.5-.2-.7-.3-1.5v-1.8l.3-1.2.5-1.5 1-1.3 1-1.2 1.2-1.3 1.5-.7 5-2.8 4.8-3 2-1.2 1.7-1.5 1-1.5.5-.8z"/><path class="st4" d="M108.5 450.8l.5 1.7.3 3 .5 3.5v7l-.5 2.8-.5 2.5-.5.7-.5.8h-.5l-.3-.5-.5-1.3-.5-1.2-.5-.5-.7-.5-.5 1.2-.5 1.3-1 3.5-.5 1.5-.8 1.2-1 1-.5.3-.5.2-1-.2-1-.3-1-.5-1-.7-1.5-1.8-.5-1-.5-.7-.2-2-.3-2.5v-3l.3-3.5.5-3.8.5-3.7 1-4 1-3.8z"/><path class="st8" d="M569.5 317h89.8v219.3h-240V317h90.5M659.3 536.3L735 617l8.8 9.3h-212l-178.3-1.8-15.7-.2 5.2-5.8 76.3-82.2"/><path class="st8" d="M419.8 317.8l-.5-.5-71-82.3-3.3-3.7h15.8l179-.3 181.7-.5 20.3-.2-5 5.5-77 82M335.8 229.3l.2 9.7.8 189.8 1 186.7v8.8M744 238.3l-.2 376v12M744 225v13.3M512 425.5v36h-71v-63h71zM561.8 533.5v-134h71v134"/><path class="st9" d="M476.5 399.5v58.8M476.5 425.5H512"/><path class="st8" d="M539.3 256.5v32M509.8 317l-5.5 20.3H575l-5.5-20.3-8-28.5h-43.7z"/><path class="st9" d="M154.3 337l-1.5-2-1.5-2-1.3-2.5-1.2-2.5-.8-2.5-.7-3-.3-3-.2-3v-2.7l.5-2.5.5-2.5.5-2.5 1-2.3 1-2.2 1.2-2 1.3-1.8 1.5-1.7 1.5-1.5 1.7-1.5 1.8-1 1.7-1 2-.5 2-.5h4.3l2 .5 2 .5 1.7 1 1.8 1 1.7 1.5 1.5 1.5 1.5 1.7 1.3 1.8 1.2 2 1 2.2.8 2.3.7 2.5.5 2.5.3 2.5.2 2.7-.2 3-.3 3-.7 2.8-.8 2.7-1.2 2.5-1.3 2.3-1.2 2.2-1.8 1.8-1.2 1.5-1.5 1.2-1.5 1-1.8.8-1.5.7-1.7.5-1.8.3-2 .2-1.7-.2-1.8-.3-1.7-.5-1.5-.7-1.8-.8-1.5-1-1.2-1.2zM95.8 447.5L100 432l3.8-13.5 3.2-12 1-3.7 1.3-4 3-8.3 3.2-8.5 3.5-8 6-13 2.5-5.2 3.3-3 4.2-3.3 4.5-3.2 4.3-2.8 7.2-4.5 3.3-2M138.8 579.5l-1.8-19.7-2.5-34.5L132 489l-.7-14.7-.3-10v-5l.3-4.5.7-8.3 1-8 1.3-5.7 1.2-5-2.5-31-24.5 54 .5 1.7.3 3 .5 3.5v7l-.5 2.8-.5 2.5-.5.7-.5.8h-.5l-.3-.5-.5-1.3-.5-1.2-.5-.5-.7-.5-.5 1.2-.5 1.3-1 3.5-.5 1.5-.8 1.2-1 1-.5.3-.5.2-1-.2-1-.3-1-.5-1-.7-1.5-1.8-.5-1-.5-.7-.2-2-.3-2.5v-3l.3-3.5.5-3.8.5-3.7 1-4 1-3.8M138.8 580.8v-1.3M241.8 447.8l-4.5-15.5-3.8-13.5-3-12-1-3.8-1.2-3.7-3-8.5-3.3-8.5-3.5-8-6-13-2.5-5.3-3.5-3-4-3.2-4.5-3-4.2-3-7.5-4.5-3-2M201.3 428.8l.2-1 2.8-30.8 24.7 54-.5 1.8-.2 3-.5 3.5v7l.5 3 .5 2.2.5 1 .5.5h.5l.2-.5.5-1.2.3-.8.2-.5.5-.5.8-.2.5 1 .5 1.5 1 3.2.5 1.5.7 1.3 1 1 .5.2.5.3h1l1-.5 1-.5 1-.8 1.5-1.7.5-1 .5-.8.3-1.7.2-2-.2-5.5-.5-6.5-.8-3.5-.7-3.5-1-3.5"/><path class="st9" d="M200.5 581v-.7l3.8-53.8 2.2-36.7.8-15 .5-10.3-.3-5-.2-4.5-.5-4.2-.5-4.3-1.3-6.5-1.5-5.5-1.2-4-.8-2.7-.5-1M154.8 575.8l-.3.2-1 8-.2 3.5-.3 3-.7 2.3-.8 1.7-1.2 1.3-1.3 1-2 .7-2.2.8-6 2.2-2.5 1-.8.5-1 1-3.5 2-1.5.8-2 .2h-2l-2-.5-1.7-.5-1.8-1-1-1-.5-.5-.2-.7-.3-1.5v-1.8l.3-1.2.5-1.5 1-1.3 1-1.2 1.2-1.3 1.5-.7 5-2.8 4.8-3 2-1.2 1.7-1.5 1-1.5.5-.8.3-1v-.2"/><path class="st9" d="M184 575.8l1.5 9.5.3 3.2.2 2.8.5 2.2 1 2 1 1.3 1.5 1 2 .7 2.3.8 6 2.2 2.5 1 .7.5 1 1 3.3 2.3 1.7.5 2 .2h2l2-.2 1.8-.8 1.5-.7 1.2-1.3.5-.5.3-.7.2-1.5v-1.5l-.2-1.5-.8-1.5-.7-1.3-1-1.2-1.3-1-1.5-1-7.7-4.5-3.3-2.3-1.5-1-1-1.2-1-1.5-.2-.8v-.7M184 576.3v-.5l-11.7-102.5h-5.8l-12 102.7M135 446.8h70.3"/><path class="st10" d="M394 428.8H254M355.5 393.3l39.3 35.7-39.3 35.8"/><path class="st8" d="M744 238.3"/><path class="st9" d="M95.8 447.5l12.7 3.3M229 451l13.8.3h1M138.8 579.3l13 11M185.8 591.3h.2l15.8-8"/></svg>