<svg xmlns="http://www.w3.org/2000/svg" width="850.394" height="850.394" viewBox="0 0 850.394 850.394" overflow="visible"><path d="M590.62 287.5c6.51 13.02 19.32 19.99 29.439 16.38l.131 1.38c-10.101.65-19.351 10.76-21.57 24.37-1.34 8.21.149 16.02 3.59 21.77-2.74-3.14-6.229-5.27-10.229-5.92-4.82-.78-9.61.69-13.73 3.8l-.76-3.89c11.39-1.9 18.609-15.72 16.12-30.93-2.48-15.23-13.75-26.06-25.17-24.19-.32.05-.641.11-.96.19l-.851-3.33c6.38-3.53 11.811-10.6 14.24-19.57 4.01-14.9-1.78-29.41-12.95-32.42-.34-.09-.68-.17-1.03-.24l.25-1.08c1.38.37 2.811.57 4.28.56 6.13-.03 11.62-3.57 15.42-9.17l4.83.86c-5.86 7.01-6.59 19.12-1.05 30.21l1.05 1.01c-5.86 7.01-6.59 19.12-1.05 30.21zM399.51 379.61l-35.13 333.53c0 36.88-51.06 66.771-114.06 66.771-62.99 0-114.07-29.891-114.07-66.771l-35.19-334.07.17-.02c2.04 22.36 67.99 40.33 149.04 40.33 80.41 0 145.96-17.69 148.99-39.8l.25.03z" fill="#a800d4"/><path d="M619.5 87.4c4.97 15.14 4.78 47.33-2.3 68.93-4.7.69-9.16 3.42-12.73 7.56l-2.67-2.37c7.681-24.28-.76-66.45-3.609-73.12-1.74-4.07-5.48-18.42-13.7-26.65L608 64l2.33-.97c5.99 11.87 7.19 18.37 9.17 24.37z" fill="#00e800"/><path d="M551.47 197.31c1.141-4.47 3.12-8.42 5.681-11.53 3.689-4.49 8.609-7.24 14.01-7.26 11.57-.06 21 12.4 21.08 27.83.029 7.25-2.021 13.87-5.4 18.86-3.8 5.6-9.29 9.14-15.42 9.17-1.47.01-2.9-.19-4.28-.56-9.52-2.59-16.729-13.8-16.8-27.27-.021-3.24.379-6.35 1.129-9.24z" fill="#a800d4"/><path d="M567.14 233.82l-.25 1.08c-9.649-1.94-19.939 5.31-24.859 17.06l-4.57-.48c.83-1.83 1.54-3.77 2.09-5.81 4.01-14.88-1.78-29.41-12.939-32.42-3.96-1.07-8.061-.55-11.891 1.24v-.01c-3.859-5.08-6.239-12.17-6.21-19.99.09-15.43 9.521-27.88 21.09-27.83 11.551.06 21.9 15.26 21.87 30.65-.75 2.89-1.149 6-1.13 9.24.069 13.47 7.279 24.68 16.799 27.27z" fill="#a800d4"/><path d="M526.61 213.25c11.159 3.01 16.949 17.54 12.939 32.42-.55 2.04-1.26 3.98-2.09 5.81-5.28 11.49-15.77 18.3-25.41 15.7-3.01-.81-5.63-2.47-7.78-4.74-5.8-6.14-8.1-16.81-5.17-27.68 2.591-9.62 8.65-17.04 15.62-20.27 3.831-1.79 7.931-2.31 11.891-1.24zM567.92 235.14c11.17 3.01 16.96 17.52 12.95 32.42-2.43 8.97-7.86 16.04-14.24 19.57-4.2 2.33-8.82 3.13-13.25 1.94-4.1-1.11-7.479-3.76-9.91-7.42-4.2-6.31-5.58-15.58-3.05-25 .44-1.63.98-3.2 1.61-4.69 4.92-11.75 15.21-19 24.859-17.06.351.07.691.15 1.031.24zM628.1 237.56c2.86 5.73 4.051 11.72 3.721 17.14-.24 4.05-1.33 7.79-3.19 10.85l-2.14.33c-7.3-11.85-20.01-17.52-29.601-12.73-2.04 1.02-3.779 2.43-5.22 4.14l-1.05-1.01c-5.54-11.09-4.811-23.2 1.05-30.21 1.44-1.71 3.18-3.12 5.22-4.14 10.34-5.17 24.32 1.83 31.21 15.63z" fill="#a800d4"/><path d="M628.1 268.78c6.881 13.8 4.08 29.18-6.27 34.34-.58.29-1.17.54-1.771.76-10.119 3.61-22.93-3.36-29.439-16.38-5.54-11.09-4.811-23.2 1.05-30.21 1.44-1.71 3.18-3.12 5.22-4.14 9.591-4.79 22.301.88 29.601 12.73.569.93 1.109 1.9 1.609 2.9zM501.05 263.13c4.22 5.26 6.74 12.88 6.45 21.28-.1 2.85-.51 5.58-1.19 8.15-2.689 10.1-9.529 17.58-17.67 18.85-.989.16-2 .22-3.02.19-11.561-.39-20.51-13.21-19.98-28.63.521-15.41 10.32-27.59 21.891-27.19 5.259.18 9.989 2.94 13.519 7.35zM543.06 281.93c3.811 5.22 6.04 12.45 5.771 20.37-.54 15.42-10.34 27.59-21.9 27.2-11.56-.4-20.5-13.21-19.979-28.63.1-2.84.51-5.58 1.189-8.14 3.021-11.34 11.28-19.39 20.7-19.06 5.619.19 10.629 3.33 14.219 8.26zM513.62 338.44c1 6.14.41 12.06-1.39 17.05-2.66 7.4-7.98 12.78-14.79 13.89-11.421 1.85-22.681-8.98-25.181-24.21-2.47-15.21 4.771-29.07 16.19-30.93.21-.04.43-.07.64-.09 11.191-1.36 22.091 9.35 24.531 24.29z" fill="#a800d4"/><path d="M567.48 290.46c-10.841 2.46-17.62 15.95-15.221 30.74 2.5 15.23 13.771 26.05 25.181 24.2.02 0 .029-.01.05-.01l.76 3.89c-5.64 4.26-10.01 11.59-11.45 20.4-1.47 9.03.48 17.58 4.7 23.43l-2.36.2c-2.25-2.6-5.08-4.48-8.38-5.36-4.439-1.19-9.05-.38-13.24 1.96l-5.17-.66c6.391-3.55 11.811-10.63 14.21-19.63 3.99-14.9-1.84-29.4-13.02-32.38-10.56-2.83-22.12 5.66-26.72 19.18l-4.59-.93c1.8-4.99 2.39-10.91 1.39-17.05-2.44-14.94-13.34-25.65-24.53-24.29l-.45-2.74c8.141-1.27 14.98-8.75 17.67-18.85l1.83.17c-.68 2.56-1.09 5.3-1.189 8.14-.521 15.42 8.42 28.23 19.979 28.63 11.561.39 21.36-11.78 21.9-27.2.27-7.92-1.96-15.15-5.771-20.37l.41-.28c2.431 3.66 5.811 6.31 9.91 7.42 4.43 1.19 9.05.39 13.25-1.94l.851 3.33zM639.69 323.2c.88 4.07 1.029 8.56.279 13.18-1.08 6.6-3.81 12.37-7.489 16.65-4.801 5.58-11.221 8.59-17.69 7.54-4-.65-7.49-2.78-10.23-5.92 0-.01-.01-.01-.01-.02a22.47 22.47 0 0 0-2.33-3.21c0-.01 0-.02-.01-.02-3.44-5.75-4.93-13.56-3.59-21.77 2.22-13.61 11.47-23.72 21.57-24.37 1.189-.07 2.399-.02 3.6.18 7.95 1.3 13.87 8.41 15.9 17.76z" fill="#a800d4"/><path d="M593.61 314.46c2.489 15.21-4.73 29.03-16.12 30.93-.021 0-.03.01-.05.01-11.41 1.85-22.681-8.97-25.181-24.2-2.399-14.79 4.38-28.28 15.221-30.74.319-.08.64-.14.96-.19 11.42-1.87 22.69 8.96 25.17 24.19zM543.54 337.24c11.18 2.98 17.01 17.48 13.02 32.38-2.399 9-7.819 16.08-14.21 19.63-4.189 2.33-8.79 3.14-13.22 1.96-11.189-2.99-17.02-17.49-13.04-32.39.22-.82.46-1.62.73-2.4 4.6-13.52 16.16-22.01 26.72-19.18zM569.14 393.31c5.38 6.21 7.45 16.52 4.641 27.02-.36 1.34-.78 2.65-1.28 3.9-.01 0-.01.01-.01.01-2.48 2.55-4.44 5.88-5.7 9.7-.01 0-.01.01-.01.01-5.601 6.569-13.24 9.88-20.431 7.97-11.18-2.99-17.02-17.49-13.04-32.39 2.4-8.99 7.82-16.08 14.21-19.62 4.19-2.34 8.801-3.15 13.24-1.96 3.3.88 6.13 2.76 8.38 5.36zM604.56 354.65c3.44 5.75 4.931 13.55 3.591 21.76-.931 5.72-3.101 10.83-6.061 14.87-4.91 6.71-11.979 10.49-19.109 9.33-4.641-.75-8.591-3.49-11.48-7.5-4.22-5.85-6.17-14.4-4.7-23.43 1.44-8.81 5.811-16.14 11.45-20.4 4.12-3.11 8.91-4.58 13.73-3.8 4 .65 7.489 2.78 10.229 5.92.01 0 .01.01.01.02.7 1.16 1.48 2.23 2.33 3.21 0 .01.01.01.01.02z" fill="#a800d4"/><path d="M573.78 420.33c2.81-10.5.739-20.81-4.641-27.02l2.36-.2c2.89 4.01 6.84 6.75 11.48 7.5 7.13 1.16 14.199-2.62 19.109-9.33l3.91.9c-5.47 5.77-8.22 15.41-6.55 25.68.729 4.47 2.22 8.56 4.24 12.06l-1.221.73c-4.729-7.94-12.29-12.7-20.06-11.621-3.8.53-7.18 2.39-9.91 5.2a34.215 34.215 0 0 0 1.283-3.899z" fill="#a800d4"/><path d="M606.99 443.81c.89 6.391.08 12.5-2 17.561-2.891 7.04-8.24 12.05-14.91 12.99-11.45 1.59-22.46-9.5-24.58-24.79-.78-5.59-.25-10.971 1.28-15.62 0 0 0-.01.01-.01 2.31-2.721 4.28-6 5.7-9.7 0 0 0-.01.01-.01 2.73-2.81 6.11-4.67 9.91-5.2 7.77-1.08 15.33 3.68 20.06 11.621 2.24 3.758 3.84 8.238 4.52 13.158zM647.47 472.93c2.48 15.23-4.76 29.08-16.18 30.94s-22.68-8.97-25.17-24.19c-1.061-6.56-.33-12.859 1.77-18.06 2.761-6.87 7.91-11.82 14.41-12.88 7.681-1.25 15.28 3.229 20.2 10.93 2.4 3.75 4.16 8.27 4.97 13.26zM640.79 411.12c1.07 6.56.33 12.86-1.76 18.07-2.771 6.869-7.91 11.81-14.41 12.869-8.07 1.311-16.05-3.71-20.93-12.14-2.021-3.5-3.511-7.59-4.24-12.06-1.67-10.27 1.08-19.91 6.55-25.68 2.64-2.77 5.91-4.65 9.62-5.25 6.47-1.05 12.899 1.96 17.7 7.54 3.68 4.281 6.4 10.051 7.47 16.651z" fill="#a800d4"/><path d="M668.24 388.14c-3.76 6.82-4.141 16.57-.3 25.94a34.57 34.57 0 0 0 1.76 3.69c-3.07-2.44-6.65-3.85-10.48-3.89-8.319-.08-15.58 6.33-19.06 15.67l-1.13-.359c2.09-5.21 2.83-11.51 1.76-18.07-1.07-6.6-3.79-12.37-7.47-16.65l.59-.49c2.83 3.53 6.54 5.93 10.84 6.63 8.43 1.38 16.8-4.19 21.59-13.35l1.9.879z" fill="#a800d4"/><path d="M676.59 426.68c2.141 4.42 3.34 9.7 3.28 15.36-.16 15.42-9.66 27.82-21.23 27.7-6.449-.07-12.18-4.021-15.96-10.181-3-4.88-4.77-11.149-4.699-17.979.05-4.311.829-8.39 2.18-12.03 3.479-9.34 10.74-15.75 19.06-15.67 3.83.04 7.41 1.45 10.48 3.89 1.879 3.49 4.249 6.49 6.889 8.91zM632.48 353.03h3.56c-3.68 4.27-6.41 10.05-7.48 16.65-1.55 9.49.681 18.45 5.351 24.3l-.59.49c-4.801-5.58-11.23-8.59-17.7-7.54-3.71.6-6.98 2.48-9.62 5.25l-3.91-.9c2.96-4.04 5.13-9.15 6.061-14.87 1.34-8.21-.15-16.01-3.591-21.76 2.74 3.14 6.23 5.27 10.23 5.92 6.469 1.05 12.889-1.96 17.689-7.54z" fill="#a800d4"/><path d="M661.26 348.83c6.84 5.35 10.521 16.07 8.65 27.58-.65 3.96-1.891 7.63-3.57 10.85-4.79 9.16-13.16 14.73-21.59 13.35-4.3-.7-8.01-3.1-10.84-6.63-4.67-5.85-6.9-14.81-5.351-24.3 1.07-6.6 3.801-12.38 7.48-16.65 4.8-5.59 11.22-8.6 17.69-7.55 2.791.45 5.331 1.62 7.531 3.35zM683.77 314.49c1.271 7.79-.01 15.23-3.09 20.88-2.939 5.39-7.52 9.15-13.09 10.06-1.88.31-3.76.27-5.6-.08-8.971-1.7-16.92-10.74-19.32-22.81-.09-.43-.17-.87-.24-1.31-2.479-15.22 4.761-29.07 16.17-30.93.4-.07.801-.12 1.2-.15 8.36-.72 16.48 5.23 20.95 14.59a36.17 36.17 0 0 1 3.02 9.75z" fill="#a800d4"/><path d="M621.83 303.12c10.35-5.16 13.15-20.54 6.27-34.34-.5-1-1.04-1.97-1.609-2.9l2.14-.33c1.86-3.06 2.95-6.8 3.19-10.85l.25.02c-.2 2.7-.08 5.53.39 8.41 2.49 15.23 13.75 26.05 25.17 24.2.62-.1 1.23-.24 1.82-.41l.35 3.23c-.399.03-.8.08-1.2.15-11.409 1.86-18.649 15.71-16.17 30.93.07.44.15.88.24 1.31l-2.979.66c-2.03-9.35-7.95-16.46-15.9-17.76-1.2-.2-2.41-.25-3.6-.18l-.131-1.38a17.22 17.22 0 0 0 1.769-.76zM617.2 156.33c1.63-.25 3.3-.25 4.96.02 8.34 1.36 14.45 9.11 16.18 19.12.63 3.7.67 7.7 0 11.81-.43 2.64-1.13 5.15-2.04 7.48-4.359 11.12-13.689 18.26-23.13 16.72-11.42-1.87-18.66-15.71-16.18-30.94.13-.78.279-1.54.45-2.29 1.279-5.64 3.79-10.58 7.029-14.36 3.571-4.14 8.031-6.87 12.731-7.56z" fill="#a800d4"/><path d="M648.64 232.19c1.851-.3 3.69-.27 5.5.06 9.341 1.7 17.591 11.37 19.66 24.14 2.36 14.4-3.99 27.56-14.35 30.53-.59.17-1.2.31-1.82.41-11.42 1.85-22.68-8.97-25.17-24.2-.47-2.88-.59-5.71-.39-8.41.8-11.62 7.31-21.01 16.57-22.53z" fill="#a800d4"/><path d="M631.82 254.7c.33-5.42-.86-11.41-3.721-17.14-6.89-13.8-20.869-20.8-31.21-15.63-2.04 1.02-3.779 2.43-5.22 4.14l-4.83-.86c3.38-4.99 5.43-11.61 5.4-18.86-.08-15.43-9.51-27.89-21.08-27.83-5.4.02-10.32 2.77-14.01 7.26l-2.15-1.45c-6.89-13.81-3.22-37.25 7.13-42.41 10.34-5.17 24.32 1.83 31.22 15.63 3.471 6.95 4.48 14.29 3.311 20.53l.78.17c-.171.75-.32 1.51-.45 2.29-2.48 15.23 4.76 29.07 16.18 30.94 9.44 1.54 18.771-5.6 23.13-16.72l4.97.59c-.46 1.11-.88 2.27-1.239 3.46-4.511 14.75.81 29.44 11.87 32.83.75.23 1.5.4 2.26.52l-.021.09c-1.81-.33-3.649-.36-5.5-.06-9.26 1.52-15.77 10.91-16.569 22.53l-.251-.02z" fill="#a800d4"/><path d="M681.62 198.3c.28 4.05-.19 8.4-1.521 12.75a36.29 36.29 0 0 1-3.35 7.69c-5.38 9.25-14.24 14.69-22.59 13.42a16.4 16.4 0 0 1-2.26-.52c-11.061-3.39-16.381-18.08-11.87-32.83.359-1.19.779-2.35 1.239-3.46 5.301-12.7 16.78-20.24 26.94-17.13 7.812 2.38 12.752 10.39 13.412 20.08z" fill="#a800d4"/><path d="M681.27 181.48l4.171 2.38c-2.351 4.44-3.801 9.43-3.82 14.44-.66-9.69-5.601-17.7-13.41-20.08-10.16-3.11-21.64 4.43-26.94 17.13l-4.97-.59c.91-2.33 1.61-4.84 2.04-7.48.67-4.11.63-8.11 0-11.81l1.271-.24c-1.17-6.24-.16-13.58 3.31-20.53 6.89-13.8 20.86-20.8 31.21-15.63 10.358 5.16 14.028 28.61 7.138 42.41z" fill="#a800d4"/><path d="M727.75 195.63c.04 7.83-5.4 17.97-9.26 23.06-2.15-5.94-6.24-10.45-11.771-12.14-8.989-2.74-18.989 2.82-24.859 12.9l-5.11-.71c1.36-2.33 2.5-4.91 3.35-7.69 1.33-4.35 1.801-8.7 1.521-12.75.02-5.01 1.47-10 3.82-14.44 4.829-9.16 13.47-16.02 21.22-16.06 11.579-.05 21.009 12.41 21.089 27.83z" fill="#a800d4"/><path d="M718.49 218.69c2.149 5.95 2.359 13.32.1 20.7-3.8 12.41-13.33 20.91-22.859 21.27-1.79.07-3.58-.15-5.33-.68-11.07-3.39-16.381-18.09-11.881-32.84.851-2.78 1.98-5.36 3.341-7.69 5.87-10.08 15.87-15.64 24.859-12.9 5.53 1.69 9.62 6.2 11.77 12.14zM746.74 241.19c11.069 3.38 16.38 18.08 11.87 32.84-4.5 14.74-17.12 23.97-28.19 20.58-11.06-3.38-16.38-18.08-11.87-32.83s17.14-23.97 28.19-20.59zM681.18 304.53c4.78 9.24 13.19 14.88 21.681 13.5 5.569-.91 10.149-4.67 13.08-10.06l2.76.8c-3.75 6.82-4.141 16.56-.3 25.93 1.04 2.55 2.33 4.89 3.79 7.01l-5.07.21c-6.71-10.35-17.72-15.54-26.79-11.83-2.99 1.22-5.45 3.28-7.311 5.93l-2.34-.65c3.08-5.65 4.36-13.09 3.09-20.88a36.1 36.1 0 0 0-3.02-9.75l.43-.21z" fill="#a800d4"/><path d="M719.04 287.09c1.26 7.8-.01 15.23-3.1 20.88-2.931 5.39-7.511 9.15-13.08 10.06-8.49 1.38-16.9-4.26-21.681-13.5-1.649-3.19-2.859-6.8-3.5-10.7-2.47-15.23 4.771-29.07 16.19-30.93.64-.1 1.29-.17 1.93-.2 10.721-.43 20.881 10.02 23.241 24.39zM696.66 380.89l-5.09.3c-4.88-2.34-10.11-2.82-14.82-.89-3.67 1.5-6.55 4.27-8.51 7.84l-1.9-.88c1.68-3.22 2.92-6.89 3.57-10.85 1.87-11.51-1.811-22.23-8.65-27.58l.73-3.48c1.84.35 3.72.39 5.6.08 5.57-.91 10.15-4.67 13.09-10.06l2.34.65c-4.829 6.83-5.71 17.56-1.51 27.85 3.29 8 8.94 14.03 15.15 17.02z" fill="#a800d4"/><path d="M706.72 398.22c5.83 14.27 1.891 29.39-8.819 33.78-6.9 2.81-14.92.49-21.311-5.32-1.729-3.64-4.1-6.7-6.89-8.91-.65-1.18-1.24-2.41-1.76-3.69-3.841-9.37-3.46-19.12.3-25.94 1.96-3.57 4.84-6.34 8.51-7.84 4.71-1.93 9.94-1.45 14.82.89 6.22 2.99 11.87 9.03 15.15 17.03zM720.29 348.01c5.85 14.27 1.9 29.39-8.81 33.78-4.711 1.92-9.94 1.45-14.82-.9-6.21-2.99-11.86-9.02-15.15-17.02-4.2-10.29-3.319-21.02 1.51-27.85 1.86-2.65 4.32-4.71 7.311-5.93 9.07-3.71 20.08 1.48 26.79 11.83a36.944 36.944 0 0 1 3.169 6.09zM757.18 318.84c5.84 14.27 1.891 29.4-8.81 33.79-8.8 3.59-19.42-1.18-26.18-10.92a36.978 36.978 0 0 1-3.79-7.01c-3.841-9.37-3.45-19.11.3-25.93 1.96-3.57 4.84-6.33 8.51-7.84 10.71-4.39 24.12 3.63 29.97 17.91z" fill="#a800d4"/><g fill="none" stroke="#231f20"><path d="M407.03 308.25c0 .86-.09 1.72-.27 2.57-4.78 22.84-72.99 40.95-156.44 40.95-83.46 0-151.67-18.11-156.45-40.95-.18-.85-.27-1.71-.27-2.57 0-24.03 70.16-43.52 156.72-43.52 86.55 0 156.71 19.49 156.71 43.52zM399.37 377.98c0 .54-.04 1.07-.11 1.6-3.03 22.11-68.58 39.8-148.99 39.8-81.05 0-147-17.97-149.04-40.33-.03-.36-.05-.71-.05-1.07" stroke-width="21"/><path d="M93.6 308.25l.27 2.57 7.19 68.25 35.19 334.07c0 36.88 51.08 66.771 114.07 66.771 63 0 114.06-29.891 114.06-66.771l35.13-333.53 7.25-68.79.27-2.57" stroke-width="21"/><path d="M661.26 348.83c6.84 5.35 10.521 16.07 8.65 27.58-.65 3.96-1.891 7.63-3.57 10.85-4.79 9.16-13.16 14.73-21.59 13.35-4.3-.7-8.01-3.1-10.84-6.63-4.67-5.85-6.9-14.81-5.351-24.3 1.07-6.6 3.801-12.38 7.48-16.65 4.8-5.59 11.22-8.6 17.69-7.55 2.791.45 5.331 1.62 7.531 3.35zM602.22 351.42c.851.97 1.63 2.05 2.33 3.21" stroke-width="14"/><path d="M604.56 354.65c3.44 5.75 4.931 13.55 3.591 21.76-.931 5.72-3.101 10.83-6.061 14.87-4.91 6.71-11.979 10.49-19.109 9.33-4.641-.75-8.591-3.49-11.48-7.5-4.22-5.85-6.17-14.4-4.7-23.43 1.44-8.81 5.811-16.14 11.45-20.4 4.12-3.11 8.91-4.58 13.73-3.8 4 .65 7.489 2.78 10.229 5.92" stroke-width="14"/><path d="M639.69 323.2c.88 4.07 1.029 8.56.279 13.18-1.08 6.6-3.81 12.37-7.489 16.65-4.801 5.58-11.221 8.59-17.69 7.54-4-.65-7.49-2.78-10.23-5.92 0-.01-.01-.01-.01-.02a23.13 23.13 0 0 1-2.33-3.21c0-.01 0-.02-.01-.02-3.44-5.75-4.93-13.56-3.59-21.77 2.22-13.61 11.47-23.72 21.57-24.37 1.189-.07 2.399-.02 3.6.18 7.95 1.3 13.87 8.41 15.9 17.76z" stroke-width="14"/><path d="M626.49 265.88c.569.93 1.109 1.9 1.609 2.9 6.881 13.8 4.08 29.18-6.27 34.34-.58.29-1.17.54-1.771.76-10.119 3.61-22.93-3.36-29.439-16.38-5.54-11.09-4.811-23.2 1.05-30.21 1.44-1.71 3.18-3.12 5.22-4.14 9.591-4.79 22.301.88 29.601 12.73z" stroke-width="14"/><path d="M590.62 256.28c-5.54-11.09-4.811-23.2 1.05-30.21 1.44-1.71 3.18-3.12 5.22-4.14 10.341-5.17 24.32 1.83 31.21 15.63 2.86 5.73 4.051 11.72 3.721 17.14-.24 4.05-1.33 7.79-3.19 10.85M555 184.33c-6.89-13.81-3.22-37.25 7.13-42.41 10.34-5.17 24.32 1.83 31.22 15.63 3.471 6.95 4.48 14.29 3.311 20.53-.521 2.74-1.46 5.27-2.79 7.46M659.8 290.15c-.399.03-.8.08-1.2.15-11.409 1.86-18.649 15.71-16.17 30.93.07.44.15.88.24 1.31 2.4 12.07 10.35 21.11 19.32 22.81 1.84.35 3.72.39 5.6.08 5.57-.91 10.15-4.67 13.09-10.06 3.08-5.65 4.36-13.09 3.09-20.88a36.1 36.1 0 0 0-3.02-9.75c-4.47-9.36-12.59-15.31-20.95-14.59zM632.07 254.72c-.2 2.7-.08 5.53.39 8.41 2.49 15.23 13.75 26.05 25.17 24.2.62-.1 1.23-.24 1.82-.41 10.359-2.97 16.71-16.13 14.35-30.53-2.069-12.77-10.319-22.44-19.66-24.14-1.81-.33-3.649-.36-5.5-.06-9.26 1.52-15.77 10.91-16.57 22.53zM695.8 262.7c-.64.03-1.29.1-1.93.2-11.42 1.86-18.66 15.7-16.19 30.93.641 3.9 1.851 7.51 3.5 10.7 4.78 9.24 13.19 14.88 21.681 13.5 5.569-.91 10.149-4.67 13.08-10.06 3.09-5.65 4.359-13.08 3.1-20.88-2.361-14.37-12.521-24.82-23.241-24.39zM683.02 336.02c-4.829 6.83-5.71 17.56-1.51 27.85 3.29 8 8.94 14.03 15.15 17.02 4.88 2.35 10.109 2.82 14.82.9 10.71-4.39 14.659-19.51 8.81-33.78-.89-2.18-1.96-4.22-3.17-6.09-6.71-10.35-17.72-15.54-26.79-11.83-2.99 1.22-5.45 3.28-7.31 5.93zM718.7 308.77c-3.75 6.82-4.141 16.56-.3 25.93 1.04 2.55 2.33 4.89 3.79 7.01 6.76 9.74 17.38 14.51 26.18 10.92 10.7-4.39 14.649-19.52 8.81-33.79-5.85-14.28-19.26-22.3-29.97-17.91-3.67 1.51-6.55 4.27-8.51 7.84zM668.24 388.14c-3.76 6.82-4.141 16.57-.3 25.94a34.57 34.57 0 0 0 1.76 3.69c1.88 3.49 4.25 6.49 6.89 8.91 6.391 5.811 14.41 8.13 21.311 5.32 10.71-4.39 14.649-19.51 8.819-33.78-3.279-8-8.93-14.04-15.149-17.03-4.88-2.34-10.11-2.82-14.82-.89-3.671 1.5-6.551 4.27-8.511 7.84z" stroke-width="14"/><path d="M640.16 429.55c-1.351 3.641-2.13 7.72-2.18 12.03-.07 6.83 1.699 13.1 4.699 17.979 3.78 6.16 9.511 10.11 15.96 10.181 11.57.12 21.07-12.28 21.23-27.7.06-5.66-1.14-10.94-3.28-15.36-1.729-3.64-4.1-6.7-6.89-8.91-3.07-2.44-6.65-3.85-10.48-3.89-8.319-.08-15.579 6.33-19.059 15.67zM543.06 281.93c3.811 5.22 6.04 12.45 5.771 20.37-.54 15.42-10.34 27.59-21.9 27.2-11.56-.4-20.5-13.21-19.979-28.63.1-2.84.51-5.58 1.189-8.14 3.021-11.34 11.28-19.39 20.7-19.06 5.619.19 10.629 3.33 14.219 8.26zM566.89 234.9c.351.07.69.15 1.03.24 11.17 3.01 16.96 17.52 12.95 32.42-2.43 8.97-7.86 16.04-14.24 19.57-4.2 2.33-8.82 3.13-13.25 1.94-4.1-1.11-7.479-3.76-9.91-7.42-4.2-6.31-5.58-15.58-3.05-25 .44-1.63.98-3.2 1.61-4.69 4.92-11.75 15.21-19 24.86-17.06zM516.82 356.42c4.6-13.52 16.16-22.01 26.72-19.18 11.18 2.98 17.01 17.48 13.02 32.38-2.399 9-7.819 16.08-14.21 19.63-4.189 2.33-8.79 3.14-13.22 1.96-11.189-2.99-17.02-17.49-13.04-32.39.22-.82.46-1.62.73-2.4zM566.78 433.95c-5.601 6.569-13.24 9.88-20.431 7.97-11.18-2.99-17.02-17.49-13.04-32.39 2.4-8.99 7.82-16.08 14.21-19.62 4.19-2.34 8.801-3.15 13.24-1.96 3.3.88 6.13 2.76 8.38 5.36 5.38 6.21 7.45 16.52 4.641 27.02-.36 1.34-.78 2.65-1.28 3.9M572.49 424.24c-1.42 3.7-3.391 6.979-5.7 9.7" stroke-width="14"/><path d="M602.47 430.65c2.24 3.76 3.84 8.239 4.521 13.159.89 6.391.08 12.5-2 17.561-2.891 7.04-8.24 12.05-14.91 12.99-11.45 1.59-22.46-9.5-24.58-24.79-.78-5.59-.25-10.971 1.28-15.62 0 0 0-.01.01-.01 1.26-3.82 3.22-7.15 5.7-9.7 0 0 0-.01.01-.01 2.73-2.81 6.11-4.67 9.91-5.2 7.769-1.08 15.329 3.68 20.059 11.62zM606 392.18c-5.47 5.77-8.22 15.41-6.55 25.68.729 4.47 2.22 8.56 4.24 12.06 4.88 8.43 12.859 13.45 20.93 12.14 6.5-1.06 11.64-6 14.41-12.869 2.09-5.21 2.83-11.51 1.76-18.07-1.07-6.6-3.79-12.37-7.47-16.65-4.801-5.58-11.23-8.59-17.7-7.54-3.71.599-6.98 2.479-9.62 5.249zM607.89 461.62c-2.1 5.2-2.83 11.5-1.77 18.06 2.49 15.221 13.75 26.051 25.17 24.19s18.66-15.71 16.18-30.94c-.81-4.989-2.569-9.51-4.97-13.26-4.92-7.7-12.52-12.18-20.2-10.93-6.5 1.06-11.65 6.01-14.41 12.88zM567.48 290.46c-10.841 2.46-17.62 15.95-15.221 30.74 2.5 15.23 13.771 26.05 25.181 24.2.02 0 .029-.01.05-.01 11.39-1.9 18.609-15.72 16.12-30.93-2.48-15.23-13.75-26.06-25.17-24.19-.32.05-.64.11-.96.19zM638.34 175.47c.63 3.7.67 7.7 0 11.81-.43 2.64-1.13 5.15-2.04 7.48-4.359 11.12-13.689 18.26-23.13 16.72-11.42-1.87-18.66-15.71-16.18-30.94.13-.78.279-1.54.45-2.29 1.279-5.64 3.79-10.58 7.029-14.36 3.57-4.14 8.03-6.87 12.73-7.56 1.63-.25 3.3-.25 4.96.02 8.341 1.36 14.451 9.11 16.181 19.12zM557.15 185.78c3.689-4.49 8.609-7.24 14.01-7.26 11.57-.06 21 12.4 21.08 27.83.029 7.25-2.021 13.87-5.4 18.86-3.8 5.6-9.29 9.14-15.42 9.17-1.47.01-2.9-.19-4.28-.56-9.52-2.59-16.729-13.8-16.8-27.27-.02-3.24.38-6.35 1.13-9.24 1.14-4.47 3.12-8.42 5.68-11.53z" stroke-width="14"/><path d="M551.47 197.4v-.09c.03-15.39-10.319-30.59-21.87-30.65-11.569-.05-21 12.4-21.09 27.83-.029 7.82 2.351 14.91 6.21 19.99M681.27 181.48c6.891-13.8 3.221-37.25-7.14-42.41-10.35-5.17-24.32 1.83-31.21 15.63-3.47 6.95-4.479 14.29-3.31 20.53.51 2.74 1.449 5.27 2.779 7.46M681.62 198.54v-.24c.02-5.01 1.47-10 3.82-14.44 4.829-9.16 13.47-16.02 21.22-16.06 11.58-.05 21.01 12.41 21.09 27.83.04 7.83-5.4 17.97-9.26 23.06M489.09 314.15c-.21.02-.43.05-.64.09-11.42 1.86-18.66 15.72-16.19 30.93 2.5 15.23 13.76 26.06 25.181 24.21 6.81-1.11 12.13-6.49 14.79-13.89 1.8-4.99 2.39-10.91 1.39-17.05-2.441-14.94-13.341-25.65-24.531-24.29z" stroke-width="14"/><path d="M681.86 219.45a36.373 36.373 0 0 0-3.341 7.69c-4.5 14.75.811 29.45 11.881 32.84 1.75.53 3.54.75 5.33.68 9.529-.36 19.06-8.86 22.859-21.27 2.26-7.38 2.05-14.75-.1-20.7-2.15-5.94-6.24-10.45-11.771-12.14-8.988-2.74-18.988 2.82-24.858 12.9zM718.55 261.78c-4.51 14.75.811 29.45 11.87 32.83 11.07 3.39 23.69-5.84 28.19-20.58 4.51-14.76-.801-29.46-11.87-32.84-11.05-3.38-23.68 5.84-28.19 20.59zM641.27 195.35c-.46 1.11-.88 2.27-1.239 3.46-4.511 14.75.81 29.44 11.87 32.83.75.23 1.5.4 2.26.52 8.35 1.27 17.21-4.17 22.59-13.42 1.36-2.33 2.5-4.91 3.35-7.69 1.33-4.35 1.801-8.7 1.521-12.75-.66-9.69-5.601-17.7-13.41-20.08-10.162-3.11-21.642 4.43-26.942 17.13zM501.05 263.13c4.22 5.26 6.74 12.88 6.45 21.28-.1 2.85-.51 5.58-1.19 8.15-2.689 10.1-9.529 17.58-17.67 18.85-.989.16-2 .22-3.02.19-11.561-.39-20.51-13.21-19.98-28.63.521-15.41 10.32-27.59 21.891-27.19 5.259.18 9.989 2.94 13.519 7.35zM514.72 214.49c3.83-1.79 7.931-2.31 11.891-1.24 11.159 3.01 16.949 17.54 12.939 32.42-.55 2.04-1.26 3.98-2.09 5.81-5.28 11.49-15.77 18.3-25.41 15.7-3.01-.81-5.63-2.47-7.78-4.74-5.8-6.14-8.1-16.81-5.17-27.68 2.59-9.62 8.65-17.04 15.62-20.27zM601.8 161.52c7.681-24.28-.76-66.45-3.609-73.12-1.74-4.07-5.48-18.42-13.7-26.65M617.19 156.35c0-.01 0-.01.01-.02 7.08-21.6 7.27-53.79 2.3-68.93-1.98-6-3.18-12.5-9.17-24.37-.62-1.23-1.29-2.52-2.021-3.87" stroke-width="14"/></g><path fill="none" d="M0 0h850.394v850.394H0z"/></svg>