<svg xmlns="http://www.w3.org/2000/svg" width="850.394" height="850.394" viewBox="0 0 850.394 850.394" overflow="visible"><path d="M690.98 471.03H600V466l-1.79-29.25 147.25.22h.04c-.52 8.971-2.97 17.71-9.13 23.87-9.68 9.68-45.39 10.19-45.39 10.19z" fill="#c8c8c8"/><path d="M739.55 399.42s7.01 19.24 5.95 37.55h-.04l-147.25-.22-2.28-37.33h143.62zM593.72 363.38h137.891c4.779 20.96 7.939 36.03 7.939 36.03v.01H595.93l-2.21-36.04z" fill="#c8c8c8"/><path d="M731.6 363.38H593.72l-2.25-36.79h131.41c3.21 13.01 6.2 25.72 8.73 36.79h-.01z" fill="#c8c8c8"/><path d="M589.22 289.79h121.06l2.76-.77c3.36 11.97 6.71 24.91 9.84 37.57H591.47l-2.25-36.8z" fill="#c8c8c8"/><path d="M710.28 289.79H589.22L587 253.55h114.74c3.58 9.29 7.45 21.74 11.3 35.47l-2.76.77zM585.16 223.43v-1.27h43.399s57.551-4.87 70.96 25.93c.73 1.67 1.471 3.49 2.221 5.46H587l-1.84-30.12z" fill="#c8c8c8"/><path fill="#c8c8c8" d="M585.16 223.43l1.84 30.12H458.34l-.22-28.15v-3.24h127.04zM587 253.55l2.22 36.24h-130.6l-.28-36.24zM589.22 289.79l2.25 36.8H458.9l-.28-36.8z"/><path fill="#c8c8c8" d="M591.47 326.59l2.25 36.79H459.19l-.29-36.79zM593.72 363.38l2.21 36.04H459.47l-.28-36.04zM459.47 399.42l.29 37.12-65.59-.1.21-37.02z"/><path fill="#c8c8c8" d="M595.93 399.42l2.28 37.33-138.45-.21-.29-37.12z"/><path fill="#c8c8c8" d="M600 466v5.03H460V468l-.24-31.46 138.45.21z"/><path fill="#c8c8c8" d="M460 468v3.03h-66V468l.17-31.56 65.59.1zM459.19 363.38l.28 36.04h-65.09l.2-36.04zM458.9 326.59l.29 36.79h-64.61l.2-36.79z"/><path fill="#c8c8c8" d="M458.62 289.79l.28 36.8h-64.12l.21-36.8zM458.34 253.55l.28 36.24h-63.63l.2-36.24zM458.12 225.4l.22 28.15h-63.15l.17-31.39H458.12z"/><path fill="#c8c8c8" d="M395.36 222.16l-.17 31.39H263.91l2.67-31.39zM395.19 253.55l-.2 36.24H260.82l3.09-36.24zM394.99 289.79l-.21 36.8H257.69l3.13-36.8z"/><path fill="#c8c8c8" d="M394.78 326.59l-.2 36.79H254.56l3.13-36.79zM394.58 363.38l-.2 36.04H251.5l3.06-36.04z"/><path fill="#c8c8c8" d="M394.38 399.42l-.21 37.02-145.81-.23 3.14-36.79z"/><path d="M248.36 436.21l145.81.23L394 468v3.03H157.82s-35.72-.511-45.39-10.19c-6.32-6.32-8.74-15.38-9.17-24.6L108 436l140.36.21z" fill="#c8c8c8"/><path d="M251.5 399.42l-3.14 36.79L108 436l-4.74.24c-.84-18.09 5.98-36.82 5.98-36.82H251.5zM254.56 363.38l-3.06 36.04H109.24s3.95-15.19 9.47-36.34l4.16.3h131.69z" fill="#c8c8c8"/><path d="M257.69 326.59l-3.13 36.79H122.87l-4.16-.3c2.87-10.98 6.17-23.58 9.57-36.49h129.41z" fill="#c8c8c8"/><path d="M260.82 289.79l-3.13 36.8H128.28c3.27-12.45 6.64-25.19 9.79-37.05l3.2.25h119.55z" fill="#c8c8c8"/><path d="M263.91 253.55l-3.09 36.24H141.27l-3.2-.25c3.67-13.8 7.06-26.41 9.69-35.99h116.15zM266.58 222.16l-2.67 31.39H147.76c.54-1.95 1.04-3.78 1.51-5.46 8.93-32.04 70.97-25.93 70.97-25.93h46.34z" fill="#c8c8c8"/><path d="M386.86 556.55C384.31 526.58 382 502 382 502v-2.26h84V502s-2.32 24.05-4.9 53.58c-2.39 27.52-5.01 59.8-6.159 81.79-1.811 34.62-22.08 37.83-30.48 37.66 1.54-.09 2.46-.28 2.46-.28l-6.07-.04s1.37.271 3.55.32c-7.57.439-29.67-1.4-31.56-37.61-1.141-21.74-3.651-53.55-5.981-80.87z"/><path d="M600 471.03h90.98s35.71-.511 45.39-10.19c6.16-6.16 8.61-14.899 9.13-23.87 1.06-18.31-5.95-37.55-5.95-37.55v-.01s-3.16-15.07-7.939-36.03c-2.53-11.07-5.521-23.78-8.73-36.79-3.13-12.66-6.479-25.6-9.84-37.57-3.85-13.73-7.72-26.18-11.3-35.47-.75-1.97-1.49-3.79-2.221-5.46-13.409-30.8-70.96-25.93-70.96-25.93H220.24s-62.04-6.11-70.97 25.93c-.47 1.68-.97 3.51-1.51 5.46-2.63 9.58-6.02 22.19-9.69 35.99-3.15 11.86-6.52 24.6-9.79 37.05-3.4 12.91-6.7 25.51-9.57 36.49-5.52 21.15-9.47 36.34-9.47 36.34s-6.82 18.73-5.98 36.82c.43 9.22 2.85 18.279 9.17 24.6 9.67 9.68 45.39 10.19 45.39 10.19H600zm169.79-57.32s20.39 61.63-27.98 81.17c-5.449 2.21-11.77 3.87-19.09 4.86H125.86c-7.11-.96-13.27-2.561-18.61-4.67-48.98-19.33-28.47-81.36-28.47-81.36S108 277.35 122.61 231.9c14.61-45.45 92.53-38.96 92.53-38.96h418.3s77.92-6.49 92.529 38.96c14.611 45.45 43.821 181.81 43.821 181.81z" fill="#be0000"/><path d="M386.86 556.55H138.34l-31.38-60.74.29-.739c5.34 2.109 11.5 3.71 18.61 4.67H382V502s2.31 24.58 4.86 54.55zM741.81 494.88l.391.93-31.38 60.74L466 556l-4.9-.42C463.68 526.05 466 502 466 502v-2.26h256.72c7.32-.99 13.64-2.65 19.09-4.86z" fill="#be0000"/><g fill="none" stroke="#231f20" stroke-width="21"><path d="M382 499.74H125.86c-7.11-.96-13.27-2.561-18.61-4.67-48.98-19.33-28.47-81.36-28.47-81.36S108 277.35 122.61 231.9c14.61-45.45 92.53-38.96 92.53-38.96h418.3s77.92-6.49 92.529 38.96c14.61 45.45 43.82 181.81 43.82 181.81s20.39 61.63-27.98 81.17c-5.449 2.21-11.77 3.87-19.09 4.86H382z"/><path d="M394 471.03h296.98s35.71-.511 45.39-10.19c6.16-6.16 8.61-14.899 9.13-23.87 1.06-18.31-5.95-37.55-5.95-37.55v-.01s-3.16-15.07-7.939-36.03c-2.53-11.07-5.521-23.78-8.73-36.79-3.13-12.66-6.479-25.6-9.84-37.57-3.85-13.73-7.72-26.18-11.3-35.47-.75-1.97-1.49-3.79-2.221-5.46-13.409-30.8-70.96-25.93-70.96-25.93H220.24s-62.04-6.11-70.97 25.93c-.47 1.68-.97 3.51-1.51 5.46-2.63 9.58-6.02 22.19-9.69 35.99-3.15 11.86-6.52 24.6-9.79 37.05-3.4 12.91-6.7 25.51-9.57 36.49-5.52 21.15-9.47 36.34-9.47 36.34s-6.82 18.73-5.98 36.82c.43 9.22 2.85 18.279 9.17 24.6 9.67 9.68 45.39 10.19 45.39 10.19H394z"/><path d="M266.58 222.16l-2.67 31.39-3.09 36.24-3.13 36.8-3.13 36.79-3.06 36.04-3.14 36.79L246 464M585.16 223.43l1.84 30.12 2.22 36.24 2.25 36.8 2.25 36.79 2.21 36.04 2.28 37.33L600 466M395.36 222.16l-.17 31.39-.2 36.24-.21 36.8-.2 36.79-.2 36.04-.21 37.02L394 468M458.12 225.4l.22 28.15.28 36.24.28 36.8.29 36.79.28 36.04.29 37.12L460 468M147.76 253.55h556.15M141.27 289.79h569.01M128.28 326.59h594.6M122.87 363.38H731.6M113.14 399.42H739.55"/><path d="M108 436l140.36.21 145.81.23 65.59.1 138.45.21 147.25.22M424.46 675.03c8.4.17 28.67-3.04 30.48-37.66 1.149-21.99 3.77-54.271 6.159-81.79C463.68 526.05 466 502 466 502"/><path d="M382 502s2.31 24.58 4.86 54.55c2.33 27.32 4.84 59.13 5.98 80.87 1.89 36.21 23.99 38.05 31.56 37.61h.06c1.54-.09 2.46-.28 2.46-.28l-6.07-.04s1.37.271 3.55.32"/><path d="M387.02 556.55H138.34l-31.38-60.74M742.2 495.81l-31.38 60.74L466 556"/></g><path fill="none" d="M0 0h850.394v850.394H0z"/></svg>