<svg xmlns="http://www.w3.org/2000/svg" width="850.394" height="850.394" viewBox="0 0 850.394 850.394" overflow="visible"><path d="M684.34 520c-13.14 65.77 35.5 129.49 35.5 129.49-38.39 11.479-75.729-23.891-94.67-41.681-22.52-21.149-58.76-85.239-59.16-160.52 12.45-35.69 6.4-92.07 6.21-94.9-5.16-76.98-36.87-137.05-73.46-175.84l.88-.84c14.091-16.39 4.11-41.47-10.71-54.18-18.199-15.61-39.64-13.9-59.399-5.48 56.43-61.31 130.149-55.01 189.25-13.86C680.76 145.35 716 217.97 716 318.22c0 83.44-27.39 180.46-31.66 201.78z" fill="#fff400"/><path d="M566.01 447.29c-6.27 17.99-17.23 30.72-36.01 28.71l-2.97-.15c1.56-29.119-1.91-61.72-21-80.82C464 353 386.24 270.55 370.7 254.05c-1.79-1.89-2.75-2.92-2.75-2.92l-.39.27c-42.76 29.95-142.64 77.6-161 91.09-12.56 9.22-22.55 22.29-29.07 36.96-5.86 13.16-8.94 27.61-8.59 41.73.56 23.01 6.98 33.87 9.22 60.53-31.98-41.3-47.89-67.57-39.81-143.7 0 0 10.67-73.97 36.77-110.19 53.82-74.7 119.19-119.99 236.62-101.78 2.7.42 5.43.87 8.19 1.36 23.35 4.12 52.39 21.06 78.87 49.15 36.59 38.79 68.3 98.86 73.46 175.84.19 2.83 6.24 59.21-6.21 94.9z" fill="#fff400"/><path d="M430.12 413.4c-5.44-5.74-11.77-10.56-18.85-13.58-5.35-2.3-11.12-3.56-17.27-3.43-7.06.16-14.26 2.46-20.42 6.28-5.45 3.38-10.09 7.94-13.11 13.28-1.83 3.24-4.25 5.49-1.05 7.47 2.72 1.69 6.01.49 8.93 1.85 1.96.92 3.74 3.17 5.83 4.13 2.49 1.149 5.81 1.81 8.5 2.369 3.66.75 7.98.94 12.14.561 3.07-.29 6.06-.89 8.64-1.8 10.03-3.57 18.72-9.78 26.25-16.75l.41-.38zm-252 68.31c-2.24-26.66-8.66-37.52-9.22-60.53-.35-14.12 2.73-28.57 8.59-41.73 6.52-14.67 16.51-27.74 29.07-36.96 18.36-13.49 118.24-61.14 161-91.09.63 1.36 1.68 2.25 3.14 2.65 15.54 16.5 93.3 98.95 135.33 140.98 19.09 19.1 22.56 51.701 21 80.82-1.65 30.7-8.88 57.521-9.311 60.57-.72 5.17-2.29 9.96-4.489 14.46-7.19 14.72-21.131 26.33-34.15 37.62-30.19 26.14-46.98 72.26-90.36 77.55-32.49 3.97-73.36 15.79-101.37-7.6a23.055 23.055 0 0 0-3.61-2.98.304.304 0 0 0-.07-.05c-16.8-13.7-36.81-26.74-50.24-43.65-9.01-11.34-54.55-64.46-54.55-110.609 0-7.381-.29-13.781-.76-19.451zm15.08-62.97l.42.39c7.53 6.96 16.22 13.18 26.25 16.75 2.58.91 5.57 1.51 8.64 1.8 4.16.38 8.48.19 12.14-.56 2.69-.561 6.01-1.23 8.5-2.38 2.09-.96 3.88-3.21 5.84-4.13 2.92-1.351 6.2-.15 8.92-1.841 3.21-1.97.78-4.229-1.05-7.47-3.01-5.33-7.65-9.9-13.09-13.28-6.17-3.82-13.37-6.13-20.44-6.29-6.15-.13-11.92 1.14-17.27 3.43-7.08 3.031-13.41 7.851-18.86 13.581zm190.89 131.93c-11.12 1.14-52.92-8.49-58.95 6.62-3.74 1.53-9.81-2.45-13.95-3.4-7.81-1.8-16.89-.08-24.49 2.11-12.21 3.54-12.82 8.36-8.97 13.43 3.99 5.25 12.75 10.761 18.37 15.41 15.18 12.54 34.93 14.141 53.37 5.99 13.6-6.01 21.62-19.18 29.27-31.66 1.78-2.9 3.54-5.77 5.35-8.5z" fill="#ffeec8"/><path d="M241.6 415.17c0-5.65-5.2-10.23-11.62-10.23-6.43 0-11.64 4.58-11.64 10.23 0 5.66 5.21 10.23 11.64 10.23 6.42 0 11.62-4.57 11.62-10.23zm7.21-5.58c1.18 2.35.43 2.1.43 4.89 0 10.06-8.54 18.23-19.09 18.23-.43 0-.86-.01-1.28-.04-9.95-.63-17.81-8.54-17.81-18.19 0-3.78-.36-4.75 1.69-7.66l-.69-1.66c5.35-2.29 11.12-3.56 17.27-3.43 7.07.16 14.27 2.47 20.44 6.29l-.96 1.57zM404.99 409.82c0-5.64-5.2-10.22-11.63-10.22-6.43 0-11.62 4.58-11.62 10.22 0 5.66 5.19 10.23 11.62 10.23 6.43 0 11.63-4.57 11.63-10.23zm-31.41-7.15c6.16-3.82 13.36-6.12 20.42-6.28 6.15-.13 11.92 1.13 17.27 3.43l-.69 1.65c2.05 2.91 1.69 3.88 1.69 7.67 0 9.64-7.86 17.56-17.81 18.19-.42.03-.85.04-1.28.04-10.54 0-19.09-8.18-19.09-18.23 0-2.8-.75-2.55.43-4.9l-.94-1.57z" fill="#abda4d"/><path d="M228.87 432.67l-.36 5.01c-3.07-.29-6.06-.89-8.64-1.8-10.03-3.57-18.72-9.79-26.25-16.75l-.42-.39c5.45-5.73 11.78-10.55 18.86-13.58l.69 1.66c-2.05 2.91-1.69 3.88-1.69 7.66 0 9.65 7.86 17.56 17.81 18.19zM249.77 408.02c5.44 3.38 10.08 7.95 13.09 13.28 1.83 3.24 4.26 5.5 1.05 7.47-2.72 1.69-6 .49-8.92 1.841-1.96.92-3.75 3.17-5.84 4.13-2.49 1.149-5.81 1.819-8.5 2.38-3.66.75-7.98.939-12.14.56l.36-5.01c.42.03.85.04 1.28.04 10.55 0 19.09-8.17 19.09-18.23 0-2.79.75-2.54-.43-4.89l.96-1.571zM430.12 413.4l-.41.38c-7.53 6.97-16.22 13.18-26.25 16.75-2.58.91-5.57 1.51-8.64 1.8l-.36-5c9.95-.63 17.81-8.55 17.81-18.19 0-3.79.36-4.76-1.69-7.67l.69-1.65c7.08 3.02 13.41 7.84 18.85 13.58z" fill="#fff"/><path d="M393.18 427.37c.43 0 .86-.01 1.28-.04l.36 5c-4.16.38-8.48.189-12.14-.561-2.69-.56-6.01-1.22-8.5-2.369-2.09-.96-3.87-3.21-5.83-4.13-2.92-1.36-6.21-.16-8.93-1.85-3.2-1.98-.78-4.23 1.05-7.47 3.02-5.34 7.66-9.9 13.11-13.28l.94 1.57c-1.18 2.35-.43 2.1-.43 4.9 0 10.05 8.55 18.23 19.09 18.23z" fill="#fff"/><path d="M488.93 121.53c14.82 12.71 24.801 37.79 10.71 54.18l-.88.84c-26.479-28.09-55.52-45.03-78.87-49.15 3.15-4.02 6.36-7.8 9.64-11.35 19.76-8.42 41.2-10.13 59.4 5.48z" fill="#f0037f"/><path d="M325.14 557.29c6.03-15.11 47.83-5.48 58.95-6.62-1.81 2.73-3.57 5.6-5.35 8.5-21.33 9.64-33.68 9.75-48.79 10.95-15.02 1.18-37.25 3.689-52.21-.7l-.01.01c-3.85-5.069-3.24-9.89 8.97-13.43 7.6-2.19 16.68-3.91 24.49-2.11 4.14.95 10.21 4.93 13.95 3.4z" fill="#f0947d"/><path d="M378.74 559.17c-7.65 12.48-15.67 25.65-29.27 31.66-18.44 8.15-38.19 6.55-53.37-5.99-5.62-4.649-14.38-10.16-18.37-15.41l.01-.01c14.96 4.39 37.19 1.88 52.21.7 15.11-1.2 27.46-1.31 48.79-10.95z" fill="#f0947d"/><path d="M514.64 551.13c-.3 18.39 25.9 82.39 25.9 82.39 20.72 24.07 57.66 25.101 83.229 41.08L219.49 782.92c22.47-18.03 43.82-35.45 49.96-40.52 18.36-15.15 28.56-16.641 28.56-43.881 0-12.84-1-30.329-10.66-40.069 28.01 23.39 68.88 11.569 101.37 7.6 43.379-5.29 60.169-51.41 90.36-77.55 13.02-11.29 26.96-22.9 34.15-37.62l1.41.25z" fill="#ffeec8"/><path d="M393.36 405.28c2.31 0 4.17 2.04 4.17 4.54 0 2.52-1.86 4.56-4.17 4.56-2.3 0-4.16-2.04-4.16-4.56 0-2.5 1.86-4.54 4.16-4.54z"/><path d="M393.36 414.38c2.31 0 4.17-2.04 4.17-4.56 0-2.5-1.86-4.54-4.17-4.54-2.3 0-4.16 2.04-4.16 4.54 0 2.52 1.86 4.56 4.16 4.56zm0-14.78c6.43 0 11.63 4.58 11.63 10.22 0 5.66-5.2 10.23-11.63 10.23-6.43 0-11.62-4.57-11.62-10.23 0-5.64 5.19-10.22 11.62-10.22z" fill="#231f20"/><path d="M229.97 410.63c2.3 0 4.17 2.04 4.17 4.54 0 2.52-1.87 4.56-4.17 4.56-2.31 0-4.17-2.04-4.17-4.56 0-2.5 1.86-4.54 4.17-4.54z"/><path d="M229.97 419.73c2.3 0 4.17-2.04 4.17-4.56 0-2.5-1.87-4.54-4.17-4.54-2.31 0-4.17 2.04-4.17 4.54 0 2.52 1.86 4.56 4.17 4.56zm.01-14.79c6.42 0 11.62 4.58 11.62 10.23 0 5.66-5.2 10.23-11.62 10.23-6.43 0-11.64-4.57-11.64-10.23 0-5.65 5.21-10.23 11.64-10.23z" fill="#231f20"/><g fill="none" stroke="#231f20"><path d="M343.73 385.61c16.14-26.89 55.4-31.18 77.86-22.41 12.05 4.71 19.391 10.28 22.561 13.45M259.02 375.69c-21.36-19.06-62.99-16.15-81.53 3.76-.99 1.04-1.9 2.14-2.74 3.28M285.68 391.44c23.43 17.53 11.03 76.89 5.13 94.59-1.88 5.649-9.96 15.66-4.28 21.52 2.76 2.83 6.29 1.3 9.73 1.84 3.57.561 5.71.92 9.82 2.45 7.92 2.95 13.7 4.73 20.85-.46 7.74-5.61 7.16-9.58 18.58-9.03 9.61.46 20.24 3.17 19.76-11.63-.32-10.18-7.99-10.06-13.47-17.239M324.49 559.89c.11-.939.33-1.8.65-2.6 6.03-15.11 47.83-5.48 58.95-6.62-1.81 2.73-3.57 5.6-5.35 8.5-7.65 12.48-15.67 25.65-29.27 31.66-18.44 8.15-38.19 6.55-53.37-5.99-5.62-4.649-14.38-10.16-18.37-15.41-3.85-5.069-3.24-9.89 8.97-13.43 7.6-2.19 16.68-3.91 24.49-2.11 4.14.95 10.21 4.931 13.95 3.4.64-.25 1.2-.66 1.68-1.271" stroke-width="14"/><path d="M277.74 569.42c14.96 4.39 37.19 1.88 52.21.7 15.11-1.2 27.46-1.311 48.79-10.95" stroke-width="7"/><path d="M283.74 655.47c1.32.88 2.52 1.88 3.61 2.98 9.66 9.74 10.66 27.229 10.66 40.069" stroke-width="19.111"/><path d="M370.7 254.05c15.54 16.5 93.3 98.95 135.33 140.98 19.09 19.1 22.56 51.701 21 80.82-1.65 30.7-8.88 57.521-9.311 60.57-.72 5.17-2.29 9.96-4.489 14.46-7.19 14.72-21.131 26.33-34.15 37.62-30.19 26.14-46.98 72.26-90.36 77.55-32.49 3.97-73.36 15.79-101.37-7.6-.1-.07-.19-.15-.29-.23-1.09-.92-2.2-1.84-3.32-2.75a.304.304 0 0 0-.07-.05c-16.8-13.7-36.81-26.74-50.24-43.65-9.01-11.34-54.55-64.46-54.55-110.609 0-7.38-.29-13.78-.76-19.45-2.24-26.66-8.66-37.52-9.22-60.53-.35-14.12 2.73-28.57 8.59-41.73 6.52-14.67 16.51-27.74 29.07-36.96 18.36-13.49 118.24-61.14 161-91.09l.39-.27c0-.001.96 1.029 2.75 2.919zM219.49 782.92c22.47-18.03 43.82-35.45 49.96-40.52 18.36-15.15 28.56-16.641 28.56-43.881" stroke-width="21"/><path d="M189.72 422.67c1.12-1.35 2.28-2.66 3.48-3.93 5.45-5.73 11.78-10.55 18.86-13.58 5.35-2.29 11.12-3.56 17.27-3.43 7.07.16 14.27 2.47 20.44 6.29 5.44 3.38 10.08 7.95 13.09 13.28 1.83 3.24 4.26 5.5 1.05 7.47-2.72 1.69-6 .49-8.92 1.841-1.96.92-3.75 3.17-5.84 4.13-2.49 1.149-5.81 1.819-8.5 2.38-3.66.75-7.98.939-12.14.56-3.07-.29-6.06-.89-8.64-1.8-10.03-3.57-18.72-9.79-26.25-16.75" stroke-width="7" stroke-linecap="square" stroke-miterlimit="10"/><path d="M248.81 409.59c1.18 2.35.43 2.1.43 4.89 0 10.06-8.54 18.23-19.09 18.23-.43 0-.86-.01-1.28-.04-9.95-.63-17.81-8.54-17.81-18.19 0-3.78-.36-4.75 1.69-7.66" stroke-width="6.37" stroke-linecap="square" stroke-miterlimit="10"/><path d="M234.14 415.17c0 2.52-1.87 4.56-4.17 4.56-2.31 0-4.17-2.04-4.17-4.56 0-2.5 1.86-4.54 4.17-4.54 2.3 0 4.17 2.04 4.17 4.54z" stroke-width="6.37"/><path d="M433.61 417.33a76.494 76.494 0 0 0-3.49-3.93c-5.44-5.74-11.77-10.56-18.85-13.58-5.35-2.3-11.12-3.56-17.27-3.43-7.06.16-14.26 2.46-20.42 6.28-5.45 3.38-10.09 7.94-13.11 13.28-1.83 3.24-4.25 5.49-1.05 7.47 2.72 1.69 6.01.49 8.93 1.85 1.96.92 3.74 3.17 5.83 4.13 2.49 1.149 5.81 1.81 8.5 2.369 3.66.75 7.98.94 12.14.561 3.07-.29 6.06-.89 8.64-1.8 10.03-3.57 18.72-9.78 26.25-16.75" stroke-width="7" stroke-linecap="square" stroke-miterlimit="10"/><path d="M374.52 404.24c-1.18 2.35-.43 2.1-.43 4.9 0 10.05 8.55 18.23 19.09 18.23.43 0 .86-.01 1.28-.04 9.95-.63 17.81-8.55 17.81-18.19 0-3.79.36-4.76-1.69-7.67" stroke-width="6.37" stroke-linecap="square" stroke-miterlimit="10"/><path d="M389.2 409.82c0 2.52 1.86 4.56 4.16 4.56 2.31 0 4.17-2.04 4.17-4.56 0-2.5-1.86-4.54-4.17-4.54-2.3 0-4.16 2.04-4.16 4.54z" stroke-width="6.37"/><path d="M372.93 254.32c-.83.01-1.57-.08-2.23-.27-1.46-.4-2.51-1.29-3.14-2.65-.09-.17-.16-.35-.23-.53 13.15-12.81 19.59-33.09 23.53-50.34M514.64 551.13c-.3 18.39 25.9 82.39 25.9 82.39 20.72 24.07 57.66 25.101 83.229 41.08a63.741 63.741 0 0 1 6.86 4.91" stroke-width="21"/><path d="M530 476c18.78 2.01 29.74-10.72 36.01-28.71 12.45-35.69 6.4-92.07 6.21-94.9-5.16-76.98-36.87-137.05-73.46-175.84-26.479-28.09-55.52-45.03-78.87-49.15-2.76-.49-5.49-.94-8.19-1.36-117.43-18.21-182.8 27.08-236.62 101.78-26.1 36.22-36.77 110.19-36.77 110.19-8.08 76.13 7.83 102.4 39.81 143.7.69.9 1.4 1.81 2.11 2.72" stroke-width="21"/><path d="M419.89 127.4c3.15-4.02 6.36-7.8 9.64-11.35 56.43-61.31 130.149-55.01 189.25-13.86C680.76 145.35 716 217.97 716 318.22c0 83.44-27.39 180.459-31.66 201.78-13.14 65.77 35.5 129.49 35.5 129.49-38.39 11.479-75.729-23.891-94.67-41.681-22.52-21.149-58.76-85.239-59.16-160.52-.01-.429-.01-.859-.01-1.289" stroke-width="21"/><path d="M411.78 125.5c5.66-3.58 11.62-6.84 17.75-9.45 19.76-8.42 41.2-10.13 59.399 5.48 14.82 12.71 24.801 37.79 10.71 54.18" stroke-width="21"/></g><path fill="none" d="M0 0h850.394v850.394H0z"/></svg>