<svg xmlns="http://www.w3.org/2000/svg" width="850.394" height="850.394" viewBox="0 0 850.394 850.394" overflow="visible"><path fill="#fff" d="M533.02 226.61l.38 9.44-81.34 68.89v-14.55z"/><path fill="#fff" d="M532.56 215.5l.46 11.11-80.96 63.78v-13.12z"/><path fill="#c8c8c8" d="M533.46 237.39l-61.18 50.77-20.22 16.78 81.34-68.89z"/><path d="M674.15 379.89c-3.511 0-6.341 2.84-6.341 6.34s2.83 6.34 6.341 6.34c3.5 0 6.33-2.84 6.33-6.34s-2.83-6.34-6.33-6.34zm-14.31 12.77c3.5 0 6.33-2.84 6.33-6.34 0-3.49-2.83-6.34-6.33-6.34s-6.33 2.85-6.33 6.34c0 3.5 2.83 6.34 6.33 6.34zm36.68-161.65v155.07c0 8.57-6.949 15.51-15.52 15.51H467.57c-8.58 0-15.511-6.94-15.511-15.51v-81.14l20.221-16.78 2.87 3.45v78.97h198.86V237.39H533.46l-.06-1.34 24.27-20.55H681c8.57 0 15.52 6.95 15.52 15.51z" fill="#c8c8c8"/><path fill="#fff" d="M475.15 291.61l-2.87-3.45 61.18-50.77h140.55v133.19H475.15z"/><path d="M278.34 412.83c3.51-1.86 7.05-3.1 10.58-3.25l.35.02c-.07 1.65-.09 3.29-.13 4.9-.71-1.03-1.75-1.68-2.9-1.68-2.16 0-3.92 2.28-3.92 5.1s1.76 5.11 3.92 5.11c.91 0 1.76-.41 2.42-1.1-.32 2.21-.88 4.23-1.89 5.94l-.03-.021c-3.26 1.25-8.73.771-10.48-1.91-3.02-4.61-1.21-9.31 2.11-13.05l-.03-.059z" fill="#a3d9ff"/><path d="M289.27 409.6l-.35-.02c-3.53.15-7.07 1.39-10.58 3.25-10.28 5.45-20.29 16.29-29.13 21.01 5.98-.01 26.15 1.23 32.84-1.8 2.18-.99 3.68-2.42 4.72-4.17 1.01-1.71 1.57-3.73 1.89-5.94.91-.93 1.5-2.38 1.5-4.01 0-1.32-.38-2.51-1.02-3.42.04-1.61.06-3.25.13-4.9zm-112.22 82.29c-7.61.73-15.12-9.13-15.52-14.409-.89-11.82 2.31-17.521-4.67-33.021-2.86-6.37-4.27-19.14 6.16-20.96 3.95-.69 7.43.24 10.32 2.16l.78-.36c11.17.05 21.74 5.851 30.92-1.07 7.6-5.74 12.26-23.03 17.31-31.25 15.93-25.92 23.07-39.65 80.77-45.99 9.05 10.24 10.17 23.7 8.66 38.6-1.95 19.29 6.24 24.22 20.14 38.12 4.34 4.34 11.78 11.97 12.76 18.26 2.21 14.08-13.35 8.48-17.47 17.37-3.42 7.37 5.21 14.72.81 21.37-1.03 1.56-3.45 2.42-6.4 2.96l5.27 2.29c5.79 2.58 3.27 11.07-2.41 11.07-.28 0-2.82 4.029-2.59 5.989.35 2.82 3.24 7.761 3.97 9.511 4.75 11.45-2.42 19.149-8.56 20.569-10.84 2.5-23.56 5.181-32.69 12.771-10.97 9.12-11.32 23.01-11.23 36.12L272 582l-47.63 3.01c-21.54-16.35-48.07-23.8-72.49-17.63 5.85-11.24 2.66-27.76 4.75-39.96l-2.84-.3c12-6.11 20.79-24.79 23.26-35.23z" fill="#ffeec8"/><path d="M772.7 611.28c1.54 11.91-5.851 13.069-13.061 13.069H390.7c-7.21 0-14.6-1.159-13.06-13.06l12.29-47.61c1.87-9.1 5.84-13.069 13.07-13.069H747.35c7.221 0 11.2 3.97 13.061 13.05l12.289 47.62z" fill="#c8c8c8"/><path fill="#787878" d="M772.57 624.35v26.12H377.92v-26.12H759.64zM730.7 546.2v4.41H418.45V441.34H730.7V546.2zm-27.07-25.92v-17.29h-96.22v17.29h96.22zm0-38.61v-17.29h-59.92v17.29h59.92z"/><path fill="#fff" d="M607.41 502.99h96.22v17.29h-96.22zM643.71 464.38h59.92v17.29h-59.92z"/><path d="M674.15 379.89c3.5 0 6.33 2.84 6.33 6.34s-2.83 6.34-6.33 6.34c-3.511 0-6.341-2.84-6.341-6.34s2.831-6.34 6.341-6.34zM659.84 379.98c3.5 0 6.33 2.85 6.33 6.34 0 3.5-2.83 6.34-6.33 6.34s-6.33-2.84-6.33-6.34c0-3.49 2.83-6.34 6.33-6.34z" fill="#231f20"/><path d="M607.95 200.91v1.53c0 7.21-5.86 13.06-13.07 13.06h-20.94v-3.7c3.359 0 6.09-4.44 6.09-9.92 0-4.2-1.61-7.8-3.88-9.24l3.88-3.06v-1.73h14.85c7.21 0 13.07 5.85 13.07 13.06z" fill="#ff001c"/><path d="M580.03 187.85v1.73l-3.88 3.06c-.681-.44-1.431-.68-2.21-.68-2.73 0-5.051 2.95-5.811 7L548.4 214.5c-4.73-1.96-8.051-6.63-8.051-12.06v-1.53c0-7.21 5.851-13.06 13.061-13.06h26.62z" fill="#ff001c"/><path d="M576.15 192.64c2.27 1.44 3.88 5.04 3.88 9.24 0 5.48-2.73 9.92-6.09 9.92-3.351 0-6.08-4.44-6.08-9.92 0-1.02.09-2 .27-2.92l8.02-6.32z" fill="#231f20"/><path d="M576.15 192.64l-8.021 6.32c.76-4.05 3.08-7 5.811-7 .78 0 1.53.24 2.21.68z" fill="#231f20"/><path d="M573.94 211.8v3.7h-20.53c-1.78 0-3.47-.35-5.01-1l19.729-15.54c-.18.92-.27 1.9-.27 2.92.001 5.48 2.731 9.92 6.081 9.92z" fill="#fff"/><path d="M532.56 215.5l-80.5 61.77v-46.26c0-8.56 6.931-15.51 15.511-15.51h64.989zm-57.41 41.27l28.71-19.38h-28.71v19.38z" fill="#c8c8c8"/><path fill="#fff" d="M503.86 237.39l-28.71 19.38v-19.38z"/><path d="M281.64 298.99c16.41 7.85 37.44 29.63 34.11 49.5-5.81-.12-6.93-1.01-13.03-1.95.14.15.27.3.4.45-57.7 6.34-64.84 20.07-80.77 45.99-5.05 8.22-9.71 25.51-17.31 31.25-9.18 6.92-19.75 1.12-30.92 1.07l-.78.36c-2.89-1.92-6.37-2.85-10.32-2.16-10.43 1.82-9.02 14.59-6.16 20.96 6.98 15.5 3.78 21.2 4.67 33.021.4 5.279 7.91 15.14 15.52 14.409-2.47 10.44-11.26 29.12-23.26 35.23-4.8 2.45-10.12 2.88-15.75-.03-13-50.68-75.47-93.47-58.96-152.85 14.73-52.95 30.27-71.81 85.11-85.11 29.27-7.1 89.28-3.61 117.45 9.86z" fill="#9c5b16"/><path d="M289.14 414.5c.64.91 1.02 2.1 1.02 3.42 0 1.63-.59 3.08-1.5 4.01.35-2.31.43-4.83.48-7.43z" fill="#231f20"/><path d="M286.24 412.82c1.15 0 2.19.65 2.9 1.68-.05 2.6-.13 5.12-.48 7.43-.66.69-1.51 1.1-2.42 1.1-2.16 0-3.92-2.29-3.92-5.11 0-2.82 1.76-5.1 3.92-5.1z" fill="#231f20"/><path d="M286.74 427.85l.03.021c-1.04 1.75-2.54 3.18-4.72 4.17-6.69 3.03-26.86 1.79-32.84 1.8 8.84-4.72 18.85-15.56 29.13-21.01l.03.06c-3.32 3.74-5.13 8.44-2.11 13.05 1.75 2.679 7.22 3.159 10.48 1.909z" fill="#fff"/><g fill="none" stroke="#231f20"><path d="M452.06 277.27v-46.26c0-8.56 6.931-15.51 15.511-15.51h64.989M594.88 215.5H681c8.57 0 15.52 6.95 15.52 15.51v155.07c0 8.57-6.949 15.51-15.52 15.51H467.57c-8.58 0-15.511-6.94-15.511-15.51v-81.14" stroke-width="21"/><path stroke-width="14" d="M533.46 237.39h140.55v133.19H475.15v-78.97"/><path stroke-width="12.868" d="M475.15 256.77v-19.38h28.71"/><path stroke-width="21" d="M530.79 441.34v-32.83h87.58v32.83M418.45 546.2V441.34H730.7V546.2"/><path stroke-width="14" d="M607.41 502.99h96.22v17.29h-96.22zM643.71 464.38h59.92v17.29h-59.92z"/><path d="M390.7 624.35c-7.21 0-14.6-1.159-13.06-13.06l12.29-47.61c1.87-9.1 5.84-13.069 13.07-13.069h332.96M759.64 624.35c7.21 0 14.601-1.159 13.061-13.069l-12.29-47.62c-1.86-9.08-5.84-13.05-13.061-13.05h-11.39" stroke-width="21"/><path stroke-width="14" stroke-dasharray="19.302" d="M415.76 570.19h318.8M415.76 588.62h318.8M664.45 608.99h79.32"/><path stroke-width="14" d="M490.46 608.99h164.78"/><path stroke-width="14" stroke-dasharray="19.302" d="M415.76 608.99h74.7"/><path stroke-width="21" d="M759.64 624.35h12.93v26.12H377.92v-26.12H744.83zM580.03 187.85h14.85c7.21 0 13.07 5.85 13.07 13.06v1.53c0 7.21-5.86 13.06-13.07 13.06h-41.47c-1.78 0-3.47-.35-5.01-1-4.73-1.96-8.051-6.63-8.051-12.06v-1.53c0-7.21 5.851-13.06 13.061-13.06h26.62z"/><path d="M576.15 192.64c2.27 1.44 3.88 5.04 3.88 9.24 0 5.48-2.73 9.92-6.09 9.92-3.351 0-6.08-4.44-6.08-9.92 0-1.02.09-2 .27-2.92.76-4.05 3.08-7 5.811-7 .779 0 1.529.24 2.209.68zM182.05 447.45c1.6-7.12-1.87-17.23-8.71-21.79-2.89-1.92-6.37-2.85-10.32-2.16-10.43 1.82-9.02 14.59-6.16 20.96 6.98 15.5 3.78 21.2 4.67 33.021.4 5.279 7.91 15.14 15.52 14.409 1.93-.18 3.87-1.05 5.7-2.85M302.72 346.54c.14.15.27.3.4.45 9.05 10.24 10.17 23.7 8.66 38.6-1.95 19.29 6.24 24.22 20.14 38.12 4.34 4.34 11.78 11.97 12.76 18.26 2.21 14.08-13.35 8.48-17.47 17.37-3.42 7.37 5.21 14.72.81 21.37-1.03 1.56-3.45 2.42-6.4 2.96-5.64 1.04-13.2.92-16.72 2.29M326.89 485.96c5.79 2.58 3.27 11.07-2.41 11.07-.28 0-2.82 4.029-2.59 5.989.35 2.82 3.24 7.761 3.97 9.511 4.75 11.45-2.42 19.149-8.56 20.569-10.84 2.5-23.56 5.181-32.69 12.771-10.97 9.12-11.32 23.01-11.23 36.12.01 1.81.03 3.609.03 5.37" stroke-width="14"/><path d="M288.66 421.93c-.32 2.21-.88 4.23-1.89 5.94-1.04 1.75-2.54 3.18-4.72 4.17-6.69 3.03-26.86 1.79-32.84 1.8 8.84-4.72 18.85-15.56 29.13-21.01 3.51-1.86 7.05-3.1 10.58-3.25M290.25 401.65c-.62 2.55-.86 5.25-.98 7.95-.07 1.65-.09 3.29-.13 4.9" stroke-width="7"/><path d="M304.32 346.86c-.4.04-.8.09-1.2.13-57.7 6.34-64.84 20.07-80.77 45.99-5.05 8.22-9.71 25.51-17.31 31.25-9.18 6.92-19.75 1.12-30.92 1.07" stroke-width="14"/><path d="M302.72 346.54c6.1.94 7.22 1.83 13.03 1.95 3.33-19.87-17.7-41.65-34.11-49.5-28.17-13.47-88.18-16.96-117.45-9.86-54.84 13.3-70.38 32.16-85.11 85.11-16.51 59.38 45.96 102.17 58.96 152.85 5.63 2.91 10.95 2.48 15.75.03 12-6.11 20.79-24.79 23.26-35.23.01-.01.01-.02.01-.029" stroke-width="14"/><path d="M289.06 392.22s-8.04-4.99-23.85 3.29c-9.21 4.83-14 10.03-17.03 14.08" stroke-width="7" stroke-linecap="round" stroke-linejoin="round"/><path d="M156.63 527.42c-2.09 12.2 1.1 28.72-4.75 39.96-.28.561-.59 1.11-.93 1.65" stroke-width="14"/><path d="M278.37 412.89c-3.32 3.74-5.13 8.44-2.11 13.05 1.75 2.68 7.22 3.16 10.48 1.91" stroke-width="6.434"/><path d="M224.37 585.01c-21.54-16.35-48.07-23.8-72.49-17.63-25.01 6.311-47.8 26.9-60.76 66.83" stroke-width="14"/><path stroke-width="14" stroke-dasharray="12.868" d="M326.19 389.54l125.87-99.15 80.96-63.78 15.38-12.11 19.73-15.54 8.02-6.32 3.88-3.06"/></g><path fill="none" d="M0 0h850.394v850.394H0zM442 268l-2 44"/></svg>