<svg xmlns="http://www.w3.org/2000/svg" width="850.394" height="850.394" viewBox="0 0 850.394 850.394" overflow="visible"><path d="M594.852 418.412l-.327.156-.914 1.089 1.241-1.245zm-407.725-30.571l-2.874-9.957-1.372 20.77c1.307-3.501 2.679-7.157 4.246-10.813zm-7.642 15.947l-15.481-54.297c1.502-5.523 3.658-11.124 6.532-16.88a129.715 129.715 0 0 1 6.336-11.435c5.16-8.401 11.562-16.958 19.073-25.437 2.417-2.878 4.964-5.601 7.642-8.401 10.125-10.579 21.817-21.158 34.815-31.349 2.09-1.634 4.246-3.267 6.401-4.901 1.045-.855 2.155-1.633 3.201-2.412a571.927 571.927 0 0 1 13.129-9.334c3.332-2.256 6.793-4.512 10.255-6.768 1.567-1.011 3.07-2.022 4.638-2.956.065-.078.13-.078.196-.155a446.56 446.56 0 0 1 19.922-11.747c4.115-2.333 8.361-4.667 12.672-6.845.065-.078.131-.078.196-.156l1.437 3.812-.588-4.278c8.034-4.123 16.33-8.168 24.756-11.979 3.201-1.4 6.401-2.801 9.667-4.201a387.933 387.933 0 0 1 11.953-4.901c4.246-1.633 8.557-3.267 12.868-4.745 1.633-.622 3.266-1.245 4.964-1.789 2.352-.855 4.703-1.634 7.054-2.412 3.723-1.245 7.512-2.411 11.366-3.578 6.075-1.789 12.149-3.5 18.29-4.979l-1.633 12.835 15.154-16.024c.98-.233 1.959-.467 3.004-.622 4.769-1.011 9.472-1.945 14.306-2.723 4.572-.778 9.145-1.478 13.717-2.022 11.627-1.556 23.319-2.412 34.881-2.723 4.311-.078 8.557-.078 12.802 0l-11.822 19.758 25.735-18.747v-.389c5.03.312 9.994.778 14.958 1.4 3.397.467 6.794.934 10.125 1.556 12.346 2.022 24.364 4.979 36.057 8.946.718.311 1.502.544 2.221.778 9.341 3.345 18.485 7.234 27.304 11.824 2.351 1.245 4.702 2.567 7.054 3.889a205.551 205.551 0 0 1 25.018 17.036c1.764 1.4 3.527 2.878 5.226 4.356 8.296 7.001 16.199 14.936 23.646 23.647a233.402 233.402 0 0 1 3.724 4.512c2.547 3.189 5.095 6.456 7.512 9.879l.457.544c6.467 9.023 12.541 18.903 18.224 29.56a253.655 253.655 0 0 1 5.03 9.957 277.437 277.437 0 0 1 7.642 17.27c2.222 5.445 4.312 11.046 6.337 16.802 1.828 5.134 3.526 10.501 5.16 15.947.522 1.711.979 3.422 1.502 5.134 1.502 5.368 2.939 10.968 4.312 16.647.783 3.189 1.502 6.457 2.221 9.724a536.688 536.688 0 0 1 3.135 15.635c.915 5.057 1.829 10.269 2.613 15.558.914 5.99 1.698 12.057 2.417 18.28a480.395 480.395 0 0 1 1.894 17.658c.588 6.301 1.046 12.758 1.438 19.292.326 5.212.588 10.424.783 15.791.065.312.065.622 0 1.012l-7.381 5.134c.131 2.723.131 5.445.065 8.245-.196 6.69-.849 11.513-2.09 15.48-2.352 7.623-6.858 12.213-14.306 21.314-9.014 10.968-18.55 22.092-28.675 32.204-10.777 10.735-22.339 20.303-34.881 27.07-1.894 1.012-3.723 1.945-5.552 2.723-12.934 5.912-24.364 6.924-35.534 5.367-12.802-1.633-25.344-6.768-39.583-12.057-.065 0-.131-.078-.196-.078-30.438-11.201-62.249-11.979-95.104-8.323-13.391 1.478-22.34 10.269-35.665 15.246l-3.2-.855c-3.266 14.158-10.125 48.151-3.005 51.029 4.703 1.867 8.165 3.579 10.713 5.135l-25.214.934-16.134 14.624c.196-.7 1.307-4.979-5.552-11.513-5.421-5.134-29.981 2.645-31.026 3.5l-2.744-.155c1.698-3.733 5.879-8.401 15.089-10.269l-.131-1.322c4.376-.7 8.296-1.633 11.3-3.656 8.818-5.834 7.838-34.382 6.336-46.518l-1.502-.855-3.07 7.779c-1.959.544-2.613.855-2.678 1.089.196.233 1.045.155-2.548.233-7.969.311-14.893 1.634-23.58 1.011 0 0-14.109 27.771-5.095 31.038 4.637 1.634 8.034 3.189 10.582 4.59l-25.148 1.011-16.199 13.38c.261-.7 1.372-4.512-5.487-10.424-5.356-4.667-29.917 2.567-30.961 3.345l-2.809-.155c1.829-3.656 6.401-8.168 16.852-9.724l-.13-1.167c3.723-.622 7.054-1.478 9.667-3.111 12.346-7.39 6.206-30.415 6.206-30.415l-2.352-4.59c-14.109-2.645-23.58-6.768-35.665-10.424-11.692-3.656-22.143-4.823-33.117-3.733-12.345 1.166-25.213 5.212-41.216 11.979a294.686 294.686 0 0 0-10.909 4.667l-11.365 7.468-8.426 5.601-6.663 4.356c-.065-6.846-3.527-17.27-7.773-24.504-4.964-8.401-12.084-10.657-19.008-16.103l-5.356-.699c1.633-4.823 3.07-7.935 3.07-7.935s.065-.545.261-1.634c1.437-8.79 8.884-51.885 20.968-100.426 0 0 2.874-22.869 13.782-54.141l-1.309-.62zm67.932 100.114c0-6.612-4.181-11.979-9.341-11.979-5.095 0-9.275 5.367-9.275 11.979 0 6.611 4.181 11.979 9.275 11.979 5.161.001 9.341-5.367 9.341-11.979z" fill="#f6cc4b"/><path d="M787.086 444.472l-44.939 12.368c-.392-6.534-.85-12.991-1.438-19.292l46.377 6.924zM782.188 488.5l-38.604 11.279a927.189 927.189 0 0 0-.392-19.603l38.996 8.324zM773.173 330.511l-44.743 30.182a483.57 483.57 0 0 0-4.312-16.647l10.06-5.134 38.995-8.401zM773.173 409.466l-34.357 10.424c-.719-6.223-1.503-12.291-2.417-18.28l36.774 7.856zM764.485 370.417l-30.7 15.635a529.456 529.456 0 0 0-3.135-15.635h33.835zM749.984 301.029l-32.528 21.937c-2.025-5.756-4.115-11.357-6.337-16.802l38.865-5.135zM629.013 639.255c6.01-.856 11.627-1.789 15.611-5.057 8.427-6.846 7.12-33.061 5.487-48.385 1.829-.777 3.658-1.711 5.552-2.723 12.542-6.768 24.104-16.335 34.881-27.07l1.96 2.723s-13.26 74.833-4.181 79.422c4.703 2.412 8.23 4.59 10.777 6.612l-25.147.778-16.134 18.047s2.024-5.445-5.618-14.469c-5.486-6.456-29.851 2.878-30.961 3.967l-2.743-.467c1.502-4.045 4.898-8.867 11.757-11.435-.195-.466-.588-1.166-1.241-1.943zM542.465 641.666c1.764-4.667 5.813-10.346 14.958-12.524l-.195-1.633c4.376-.778 8.426-1.867 11.431-4.356 12.215-9.957 5.552-41.617 5.552-41.617l.588-2.489c.065 0 .131.078.196.078 14.239 5.289 26.781 10.424 39.583 12.057-3.396 11.047-8.948 32.517-2.221 35.938 4.638 2.334 8.1 4.512 10.713 6.534l-25.083.856-16.134 18.047s2.025-5.445-5.617-14.469c-5.487-6.534-29.852 2.878-30.962 3.89l-2.809-.312zM415.092 137.283l-4.311 34.383c-6.14 1.478-12.215 3.189-18.29 4.979l22.601-39.362zM373.353 139.384l.588 36.327-4.833 8.712c-4.311 1.478-8.622 3.112-12.868 4.745l17.113-49.784zM298.628 183.101l10.255 27.382-.065.389c-4.311 2.178-8.557 4.512-12.672 6.845l2.482-34.616zM261.134 239.342l2.874-40.761 9.537 24.114-2.155 9.879c-3.462 2.257-6.924 4.512-10.256 6.768z" fill="#f6cc4b"/><path d="M238.077 491.923c5.16 0 9.341 5.367 9.341 11.979 0 6.611-4.181 11.979-9.341 11.979-5.095 0-9.275-5.368-9.275-11.979-.001-6.612 4.18-11.979 9.275-11.979z" fill="#9c5c25"/><path d="M167.075 585.347c4.246 7.234 7.708 17.658 7.773 24.504l-11.235 7.39s-26.781 3.578-25.801-24.814c.327-8.713 2.809-17.658 4.899-23.881l5.356.699c6.923 5.444 14.043 7.7 19.008 16.102z" fill="#231f20"/><g fill="none" stroke="#231f20"><path stroke-width="10.692" d="M240.624 430.858l-1.437-48.384 22.535 57.096M171.059 351.125l-.522-18.514-.915-29.871 7.251 18.436 10.32 26.137 4.964 12.524M196.468 313.942l-.522-18.203-.915-30.182 8.557 21.781 12.084 30.571 1.894 4.745M233.439 256.845l3.462-48.152 11.104 39.984 5.487 19.914M260.612 246.732l.522-7.39 2.874-40.761 9.537 24.114 2.286 5.912.392.856 6.075 15.402M295.166 231.252l.98-13.535 2.482-34.616 10.255 27.382.131.233 1.437 3.812 4.833 12.912M181.118 426.113l1.764-27.459 1.371-20.77 2.874 9.957 14.175 49.785M207.703 401.61l3.07-48.229 17.049 59.742M236.444 368.005l3.07-48.151 17.113 59.664M262.637 326.077l10.19-46.829 7.903 62.387M283.278 359.759l10.189-46.751 7.97 62.309M258.26 383.096l10.19-46.751 7.969 62.309M294.317 308.497l10.189-46.83 7.97 62.387M315.023 333.078l10.19-46.829 7.969 62.387M159.367 392.275l3.07-48.229 1.567 5.445 15.481 54.297"/><path stroke-width="10.692" d="M185.887 367.771l1.306-20.458 1.829-27.771 17.048 59.742M214.627 334.167l1.045-16.258 2.09-31.971 17.049 59.742M232.655 282.515l5.748-26.526 4.442-20.303 1.96 15.402 6.009 46.985M264.335 264.857l7.055-32.282 2.155-9.88.98-4.589 1.306 10.501.196 1.012 6.467 50.874M299.346 254.278l9.471-43.406.066-.389.653-2.956.327 2.723.588 4.278 6.989 55.307M333.247 217.095l1.372-18.825 2.09-29.327 7.577 25.126 5.748 19.214"/><path d="M322.208 589.937c-14.109-2.645-23.58-6.768-35.665-10.424-11.692-3.656-22.143-4.823-33.117-3.733-12.345 1.166-25.213 5.212-41.216 11.979a294.686 294.686 0 0 0-10.909 4.667l-11.365 7.468-8.426 5.601-6.663 4.356-11.235 7.39s-26.781 3.578-25.801-24.814c.327-8.713 2.809-17.658 4.899-23.881 1.633-4.823 3.07-7.935 3.07-7.935s.065-.545.261-1.634c1.437-8.79 8.884-51.885 20.968-100.426 0 0 2.874-22.869 13.782-54.141.653-1.867 1.372-3.734 2.09-5.756 1.306-3.5 2.678-7.157 4.246-10.813 1.045-2.723 2.221-5.445 3.462-8.246M395.888 593.826c-1.959.544-2.613.855-2.743 1.089 0 .078 0 .078.065 0 .196.233 1.045.155-2.548.233-7.969.311-14.893 1.634-23.58 1.011M735.483 477.765c0 .312.065.7.065 1.012.131 2.723.131 5.445.065 8.245-.196 6.69-.849 11.513-2.09 15.48-2.352 7.623-6.858 12.213-14.306 21.314-9.014 10.968-18.55 22.092-28.675 32.204-10.777 10.735-22.339 20.303-34.881 27.07-1.894 1.012-3.723 1.945-5.552 2.723-12.934 5.912-24.364 6.924-35.534 5.367-12.802-1.633-25.344-6.768-39.583-12.057-.065 0-.131-.078-.196-.078-30.438-11.201-62.249-11.979-95.104-8.323-13.391 1.478-22.34 10.269-35.665 15.246" stroke-width="21"/><path d="M190.589 379.596a360.183 360.183 0 0 1 6.728-14.235" stroke-width="21.385"/><path stroke-width="10.692" d="M353.3 197.803l2.939-8.635 17.114-49.784.588 36.327.131 6.923.196 12.602M385.96 188.08l6.532-11.435 22.6-39.362-4.311 34.383-1.633 12.835-1.306 10.58M431.684 180.301l9.928-15.169 23.253-35.472-9.536 33.449-6.075 21.237-1.437 5.056M479.04 170.577l11.17-10.19 28.152-25.748-15.35 25.748-11.823 19.758-3.527 5.99M516.795 173.455l15.088-11.046 19.531-14.235-9.406 15.791-17.637 29.638-3.592 6.067M548.147 194.691l29.917-21.78 4.703-3.423-2.482 4.2-24.56 41.229-3.593 5.989M361.269 233.664l30.308-32.127-22.535 57.097M394.647 237.942l30.374-32.127-22.536 57.097M434.949 237.553l30.309-32.127-22.535 57.097M478.256 228.997l34.619-25.204-30.7 51.418M511.308 242.532l34.619-25.204-30.635 51.419M542.661 263.846l34.619-25.282-30.634 51.497M577.999 280.648l34.619-25.281-30.635 51.496M611.115 294.184l34.62-25.204-30.634 51.418M642.469 315.498l34.619-25.282-30.635 51.496"/><path stroke-width="10.692" d="M365.319 191.269l3.788-6.846 4.834-8.712 13.652-24.581-6.467 29.093-8.034 36.016M398.697 195.547l10.451-11.046 15.154-16.024 4.768-5.057-1.763 4.434-20.772 52.664M438.999 195.236l10.255-10.89 20.054-21.314-22.536 57.096M482.306 186.679l8.883-6.534 25.736-18.747-30.7 51.418M515.357 200.214l9.014-6.611 25.606-18.67-30.635 51.496M546.711 221.451l9.014-6.534 25.605-18.669-30.635 51.418M582.049 238.253l34.619-25.203-30.635 51.418M615.165 251.866l34.62-25.281-30.635 51.418M646.519 273.103l33.248-24.27 1.371-1.012-.914 1.556-29.721 49.94M586.359 194.225l21.23-8.712 17.179-7.001-10.125 10.89-29.198 31.427M616.211 216.006l23.449-9.568 14.958-6.068-9.732 10.424-29.59 31.815M642.861 244.943l25.67-10.502 12.738-5.211-9.014 9.724-30.309 32.593M329.393 265.868L356.5 229.93l-17.048 59.742M361.334 289.049l27.173-35.938-17.113 59.742M411.108 281.426l27.107-36.016-17.048 59.742M452.193 281.504l34.62-25.281-30.635 51.496M485.311 295.039l34.619-25.204-30.635 51.419M516.599 316.353l34.619-25.281-30.635 51.496M345.004 394.22l30.309-32.205-22.536 57.097M378.383 398.498l30.373-32.126-22.535 57.096M418.62 398.109l30.373-32.127-22.535 57.098M449.973 381.773l34.619-25.281-30.635 51.496M483.09 395.309l34.619-25.282-30.7 51.497M337.036 344.046l30.373-32.127-22.535 57.019"/><path stroke-width="10.692" d="M370.479 348.324l30.308-32.126-22.535 57.096M410.716 347.936l30.373-32.127-22.6 57.097M454.022 339.379l34.62-25.282-30.635 51.497M487.14 352.914l34.619-25.281-30.7 51.496M518.428 374.228l34.619-25.281-30.635 51.496M551.414 335.723l34.619-25.204-30.635 51.419M355.456 454.817l27.107-35.938-12.476 43.795-4.572 15.947M389.03 454.662l27.107-35.939-15.284 53.596-1.764 6.146M429.005 448.905l27.107-35.938-17.048 59.742M490.21 431.559l34.619-25.282-27.631 46.44-3.004 5.056M508.107 456.762l34.62-25.282-27.108 45.507-3.593 5.99M352.516 516.971l30.374-32.127-22.536 57.096M385.96 521.327l10.712-11.357 19.596-20.77-22.535 57.019M426.196 520.938l30.309-32.127-22.535 57.097M314.435 564.966l30.308-32.126-22.535 57.097M347.813 569.244l30.374-32.126-22.536 57.097M388.115 568.855l30.308-32.126-19.465 49.318-3.07 7.779M469.503 512.381l34.619-25.281-30.635 51.496"/><path stroke-width="10.692" d="M443.376 547.386l34.619-25.282-30.635 51.497M502.555 525.916l34.619-25.281-30.635 51.496M588.58 345.68l34.62-25.282-30.635 51.497M315.219 481.11l30.308-32.127-22.535 57.019M348.597 485.389l21.49-22.715 8.884-9.412-22.535 57.096M388.899 484.999l11.954-12.68 18.355-19.446-22.536 57.097M473.553 469.986l23.645-17.269 10.974-8.012-30.635 51.496M450.691 463.529l34.62-25.281-30.635 51.419M506.604 483.521l9.015-6.534 25.67-18.747-30.7 51.496M671.732 283.371l26.715-4.434 26.39-4.434-21.359 14.391-24.756 16.724M709.617 306.396l1.502-.233 38.865-5.134-32.528 21.936-13.587 9.18M734.178 338.912l38.995-8.401-44.743 30.182-1.372.933M634.5 354.547h40.629L626.4 379.362M657.101 384.185h40.563l-43.829 22.325-4.834 2.49M687.344 415.767h40.628l-48.728 24.815M546.515 524.05l39.975 8.556-51.668 14.158M594.394 549.953l39.975 8.557-51.602 14.157M742.212 479.943l.979.234 38.997 8.323-38.605 11.279-9.732 2.878"/><path stroke-width="10.692" d="M671.014 309.197h40.629l-48.729 24.814M693.549 338.912h40.629l-10.06 5.134-38.669 19.681M723.856 370.417h40.629l-30.7 15.635-18.028 9.179M733.197 400.91l3.201.7 36.775 7.856-34.358 10.424-5.813 1.789M737.052 437.004l3.657.544 46.377 6.924-44.94 12.368-6.663 1.867M548.801 393.364l37.232-19.291-36.317 45.895M579.436 409.855l37.232-19.369-22.144 28.082-.914 1.089-13.259 16.802M617.778 424.324l37.233-19.292-1.176 1.478-35.143 44.418M674.736 462.596l40.303-5.911-40.433 28.003-5.356 3.734M704.457 478.31l38.473-5.679 1.829-.234-1.829 1.246-7.381 5.133-36.579 25.36M537.632 469.286l38.734-14.313-40.368 40.839M566.503 489.667l38.799-14.235-40.367 40.839M603.277 509.191l38.8-14.235-40.432 40.762M647.825 528.017l40.302-5.913-45.789 31.661"/><path stroke-width="10.692" d="M556.052 432.726l38.472-14.158.328-.156-1.242 1.245-39.192 39.594M584.923 453.105l38.8-14.235-40.369 40.84M621.697 472.631l38.8-14.235-40.367 40.761M664.09 486.244l10.516-1.556 29.786-4.356-45.789 31.66"/><path d="M324.56 594.526s6.14 23.025-6.206 30.415c-2.613 1.634-5.944 2.489-9.667 3.111-9.145 1.556-20.51 1.556-28.675 6.768-1.698 1.167-3.266 2.489-4.638 4.123M367.083 596.159s-14.109 27.771-5.095 31.038c4.637 1.634 8.034 3.189 10.582 4.59 5.291 2.878 6.858 5.056 7.185 5.679.131.155.131.233.131.233" stroke-width="14" stroke-linecap="round" stroke-linejoin="round"/><path d="M290.855 643.61c-.196-.622-.065-2.489 1.11-4.667 1.829-3.656 6.401-8.168 16.852-9.724.392-.078.784-.078 1.176-.155" stroke-width="14.256" stroke-linecap="round" stroke-linejoin="round"/><path d="M294.774 639.099c1.045-.777 25.605-8.012 30.961-3.345 6.858 5.912 5.748 9.724 5.421 10.502l.065-.078 16.199-13.38 25.148-1.011h.196" stroke-width="14" stroke-linecap="round" stroke-linejoin="round"/><path d="M400.46 586.902c1.502 12.136 2.482 40.684-6.336 46.518-3.004 2.023-6.924 2.956-11.3 3.656-.979.156-2.025.233-3.07.39-10.125 1.322-21.621 2.178-28.479 11.046M442.265 578.968s-.588 2.412-1.437 6.146c-3.266 14.158-10.125 48.151-3.005 51.029 4.703 1.867 8.165 3.579 10.713 5.135 6.336 3.889 7.25 6.534 7.25 6.534" stroke-width="14" stroke-linecap="round" stroke-linejoin="round"/><path d="M366.756 653.801c-.196-.7-.065-2.723 1.11-5.134 1.698-3.733 5.879-8.401 15.089-10.269.915-.155 1.829-.311 2.874-.466" stroke-width="14" stroke-linecap="round" stroke-linejoin="round"/><path d="M370.61 648.822c1.045-.855 25.605-8.634 31.026-3.5 6.859 6.534 5.748 10.813 5.487 11.591l.065-.078 16.134-14.624 25.214-.934h.13M574.21 581.535s6.663 31.66-5.552 41.617c-3.005 2.489-7.055 3.578-11.431 4.356-10.778 1.944-23.973 1.711-31.354 13.846M616.733 584.646s-.915 2.567-2.156 6.534c-3.396 11.047-8.948 32.517-2.221 35.938 4.638 2.334 8.1 4.512 10.713 6.534 3.005 2.256 4.833 4.123 5.943 5.602.653.777 1.046 1.478 1.241 1.944.262.467.327.7.327.7" stroke-width="14" stroke-linecap="round" stroke-linejoin="round"/><path d="M541.42 648.122c-.196-.855-.065-3.422 1.045-6.456 1.764-4.667 5.813-10.346 14.958-12.524.915-.233 1.829-.389 2.874-.544" stroke-width="14" stroke-linecap="round" stroke-linejoin="round"/><path d="M545.273 641.978c1.11-1.012 25.475-10.424 30.962-3.89 7.643 9.023 5.617 14.469 5.617 14.469l16.134-18.047 25.083-.856h.195" stroke-width="14" stroke-linecap="round" stroke-linejoin="round"/><path d="M649.98 584.803c.065.311.065.7.131 1.011 1.633 15.324 2.939 41.539-5.487 48.385-3.984 3.268-9.602 4.2-15.611 5.057-9.798 1.399-20.706 2.566-27.173 13.146M692.504 558.743s-13.26 74.833-4.181 79.422c4.703 2.412 8.23 4.59 10.777 6.612 6.467 4.823 7.446 8.168 7.446 8.168M617.451 659.246c-.195-.855-.064-3.5 1.046-6.612 1.502-4.045 4.898-8.867 11.757-11.435 1.764-.7 3.724-1.244 6.01-1.556" stroke-width="14" stroke-linecap="round" stroke-linejoin="round"/><path d="M621.24 653.101c1.11-1.089 25.475-10.423 30.961-3.967 7.643 9.023 5.618 14.469 5.618 14.469l16.134-18.047 25.147-.778h.131" stroke-width="14" stroke-linecap="round" stroke-linejoin="round"/><path d="M247.417 503.902c0 6.611-4.181 11.979-9.341 11.979-5.095 0-9.275-5.368-9.275-11.979 0-6.612 4.181-11.979 9.275-11.979 5.161 0 9.341 5.367 9.341 11.979z" stroke-width="14.256"/><path d="M277.856 408.222s29.002-38.894 39.453-38.894c10.386 0 7.446 28.315 5.944 54.841-1.502 26.604-11.169 38.117-28.283 46.985" stroke-width="21"/><path d="M187.454 599.115c.784.312 1.633.623 2.482.778 7.512 2.256 16.46 1.634 23.972 3.5 10.908 2.723 21.816 5.99 32.333 10.347 12.541 5.056 23.776 11.823 33.77 21.08 4.833 4.356 9.406 9.413 13.717 15.091M190.786 605.883c17.244 10.269 30.308 29.171 32.79 52.119 2.547 23.259-4.311 42.861-7.708 65.109" stroke-width="7.128" stroke-linecap="round" stroke-linejoin="round"/><path d="M180.922 604.561l.588.934c6.924 11.046 14.501 24.114 17.31 37.572 2.678 12.602 1.633 24.893.196 37.416M146.629 550.653c-6.597-2.567-12.802-9.18-19.138-12.68-8.361-4.667-16.853-8.868-25.605-12.213-15.35-5.912-30.178-7.779-46.115-4.123M141.6 553.143c-15.546-3.345-31.941 1.4-43.111 15.013-11.3 13.769-14.893 30.727-21.817 47.296" stroke-width="7.128" stroke-linecap="round" stroke-linejoin="round"/><path d="M148.654 558.043c-.849.312-1.764.622-2.613.934-8.688 3.111-18.159 7.234-25.083 13.924-6.924 6.69-11.366 15.402-15.611 24.426" stroke-width="7.128" stroke-linecap="round" stroke-linejoin="round"/><path d="M212.21 587.759s18.877-2.412 41.216-11.979c24.625-10.502 53.366-29.638 65.842-63.632M148.066 569.244c6.924 5.445 14.044 7.701 19.008 16.103 4.246 7.234 7.708 17.658 7.773 24.504v.077" stroke-width="21.385"/></g><path fill="none" d="M0 0h850.394v850.394H0z"/></svg>