<svg xmlns="http://www.w3.org/2000/svg" width="850.394" height="850.394" viewBox="0 0 850.394 850.394" overflow="visible"><g fill="#ff6b00"><path d="M109.21 501.287s53.84-161.82 66.76-201.771c12.93-39.95 20.27-62.98 62.39-62.98 7.52 0 13.71 1.65 18.82 4.41 25.16 13.54 23.9 53.68 23.9 53.68-5.15 8.76-9.34 19.62-13.45 32.33-12.92 39.96-46.57 207.64-46.57 207.64s3.24 42.48 44.44 54.41c63.54 18.399 85.52-18.22 85.97-18.98 5.09 12.811 18.17 35.2 48.19 39.24 11.23 1.51 20.83 1.82 28.97 1.4 0 0 18.19.37 29.41-1.141 30.29-4.08 43.33-26.85 48.33-39.6 1.47 2.39 23.899 36.81 85.89 18.86 22.21-6.44 33.391-21.75 38.98-34.49 0 0 24.7 14.1 72.87 1.17 41.43-11.13 44.449-54.41 44.449-54.41 19.671 8.8 36.54 29.17 36.54 46.03 0 64.66-160.88 117.069-359.33 117.069-198.47 0-359.35-52.409-359.35-117.069.001-20.599 14.121-28.988 42.791-45.798z"/><path d="M592.47 250.957l-.08-.07c2.98-3.4 6.45-6.79 10.69-9.44 4.46-2.79 9.78-4.77 16.32-5.13 42.13-2.31 49.47 23.02 62.39 62.97 12.92 39.96 66.77 201.77 66.77 201.77s-3.02 43.28-44.449 54.41c-48.17 12.93-72.87-1.17-72.87-1.17 4.779-10.9 5.47-19.92 5.47-19.92s-33.65-167.68-46.58-207.64c-4.689-14.5-9.47-26.59-15.67-35.89-.001 0 4.069-23.82 18.009-39.89z"/><path d="M636.71 534.377s-.69 9.02-5.47 19.92c-5.59 12.74-16.771 28.05-38.98 34.49-61.99 17.949-84.42-16.471-85.89-18.86 2.01-5.14 2.72-8.65 2.72-8.65s-11.859-170.62-19.56-211.899c-3.74-20.11-7.94-36.02-16.12-47.15.16-.43 5.27-13.87 23-24.29 6.87-4.04 15.24-7.22 25.24-8.31 26.689-2.89 41.93 4.87 52.81 21.22 6.2 9.3 10.98 21.39 15.67 35.89 12.93 39.959 46.58 207.639 46.58 207.639z"/><path d="M473.41 302.227c8.18 11.13 12.38 27.04 16.12 47.15 7.7 41.28 19.56 211.899 19.56 211.899s-.71 3.511-2.72 8.65c-5 12.75-18.04 35.52-48.33 39.6-11.22 1.511-29.41 1.141-29.41 1.141-8.14.42-17.74.109-28.97-1.4-30.02-4.04-43.1-26.43-48.19-39.24-.01-.01 0-.01 0-.01-2.13-5.33-2.86-9-2.86-9s11.85-170.62 19.55-211.91c3.69-19.82 8.09-35.49 16.34-46.51 8.92-11.95 22.35-18.45 44.25-18.91l1.37-.08c21.61.45 34.66 6.89 43.29 18.62zM592.39 250.887l.08.07c-13.939 16.07-18.01 39.89-18.01 39.89-10.88-16.35-26.12-24.11-52.81-21.22-10 1.09-18.37 4.27-25.24 8.31-1.93-18.5-3.811-26.89-5.51-36a360.59 360.59 0 0 0-1.73-8.78l1.33-.28c8.27-23.82 22.25-36.96 53.71-37.61l1.37-.08c33.65.7 49.75 19.11 57.5 46.26-4.24 2.65-7.71 6.04-10.69 9.44z"/><path d="M490.9 241.937c1.699 9.11 3.58 17.5 5.51 36-17.73 10.42-22.84 23.86-23 24.29-8.63-11.73-21.68-18.17-43.29-18.62l-1.37.08c-21.9.46-35.33 6.96-44.25 18.91 0 0-5.65-13.38-20.7-23.13 1.99-19.26 3.97-28.38 5.72-37.8.43-2.32.87-4.58 1.32-6.78 7.68-37.04 19.52-57.81 59.271-58.63l1.37-.08c39.029.81 50.149 21.14 57.689 56.98.6 2.83 1.17 5.76 1.73 8.78z"/><path d="M363.8 279.467c15.05 9.75 20.7 23.13 20.7 23.13-8.25 11.02-12.65 26.69-16.34 46.51-7.7 41.29-19.55 211.91-19.55 211.91s.73 3.67 2.86 9c0 0-.01 0 0 .01-.45.761-22.43 37.38-85.97 18.98-41.2-11.93-44.44-54.41-44.44-54.41s33.65-167.68 46.57-207.64c4.11-12.71 8.3-23.57 13.45-32.33 11.03-18.76 26.48-27.86 55.03-24.77 11.54 1.25 20.65 5.03 27.69 9.61z"/><path d="M369.52 234.617l1.32.27c-.45 2.2-.89 4.46-1.32 6.78-1.75 9.42-3.73 18.54-5.72 37.8-7.04-4.58-16.15-8.36-27.69-9.61-28.55-3.09-44 6.01-55.03 24.77 0 0 1.26-40.14-23.9-53.68l.08-.15c14.82-33.76 18.67-46.13 56.52-46.92l1.37-.08c29.73.62 46.28 15.53 54.37 40.82z"/></g><g fill="none" stroke="#000" stroke-width="21.152"><path d="M281.08 294.627s1.26-40.14-23.9-53.68c-5.11-2.76-11.3-4.41-18.82-4.41-42.12 0-49.46 23.03-62.39 62.98-12.92 39.95-66.76 201.771-66.76 201.771s3.02 43.279 44.44 54.399c48.18 12.931 68.15-1.17 68.15-1.17"/><path d="M384.5 302.597s-5.65-13.38-20.7-23.13c-7.04-4.58-16.15-8.36-27.69-9.61-28.55-3.09-44 6.01-55.03 24.77-5.15 8.76-9.34 19.62-13.45 32.33-12.92 39.96-46.57 207.64-46.57 207.64s3.24 42.48 44.44 54.41c63.54 18.399 85.52-18.22 85.97-18.98"/><path d="M428.63 610.667s18.19.37 29.41-1.141c30.29-4.08 43.33-26.85 48.33-39.6 2.01-5.14 2.72-8.65 2.72-8.65s-11.859-170.62-19.56-211.899c-3.74-20.11-7.94-36.02-16.12-47.15-8.63-11.73-21.68-18.17-43.29-18.62l-1.37.08c-21.9.46-35.33 6.96-44.25 18.91-8.25 11.02-12.65 26.69-16.34 46.51-7.7 41.29-19.55 211.91-19.55 211.91s.73 3.67 2.86 9c0 0-.01 0 0 .01 5.09 12.811 18.17 35.2 48.19 39.24 11.23 1.509 20.83 1.82 28.97 1.4M369.52 234.617c-8.09-25.29-24.64-40.2-54.37-40.82l-1.37.08c-37.85.79-41.7 13.16-56.52 46.92M369.52 241.667c-1.75 9.42-3.73 18.54-5.72 37.8-.01.06-.01.13-.02.2M496.41 277.937c-1.93-18.5-3.811-26.89-5.51-36a360.59 360.59 0 0 0-1.73-8.78c-7.54-35.84-18.66-56.17-57.689-56.98l-1.37.08c-39.75.82-51.59 21.59-59.271 58.63-.45 2.2-.89 4.46-1.32 6.78M591.97 251.357c.141-.16.271-.31.42-.47 2.98-3.4 6.45-6.79 10.69-9.44 4.46-2.79 9.78-4.77 16.32-5.13 42.13-2.31 49.47 23.02 62.39 62.97 12.92 39.96 66.77 201.77 66.77 201.77s-3.02 43.28-44.449 54.41c-48.17 12.93-72.87-1.17-72.87-1.17"/><path d="M574.46 290.847s4.07-23.82 18.01-39.89c1.99-2.3 4.19-4.44 6.601-6.33"/><path d="M496.41 277.937c6.87-4.04 15.24-7.22 25.24-8.31 26.689-2.89 41.93 4.87 52.81 21.22 6.2 9.3 10.98 21.39 15.67 35.89 12.93 39.96 46.58 207.64 46.58 207.64s-.69 9.02-5.47 19.92c-5.59 12.74-16.771 28.05-38.98 34.49-61.99 17.949-84.42-16.471-85.89-18.86-.05-.09-.08-.13-.08-.13M473.41 302.237v-.01c.16-.43 5.27-13.87 23-24.29"/><path d="M748.56 501.057c19.671 8.8 36.54 29.17 36.54 46.03 0 64.66-160.88 117.069-359.33 117.069-198.47 0-359.35-52.409-359.35-117.069 0-20.601 14.12-28.99 42.79-45.8M603.08 241.447c-7.75-27.15-23.85-45.56-57.5-46.26l-1.37.08c-31.46.65-45.44 13.79-53.71 37.61"/></g><path fill="none" d="M0 0h850.394v850.394H0z"/></svg>