<svg xmlns="http://www.w3.org/2000/svg" width="850.394" height="850.394" viewBox="0 0 850.394 850.394" overflow="visible"><path fill="none" d="M368 368.249h113.386v113.386H368z"/><g fill="#cb82b7"><path d="M768.74 608.12l1.689 15.47-27.13 4.2-11.67-62.01-6.02-32.011s-2.011-8.439-2.011-14.409c0-37.181 15.851-52.971 15.851-52.971v-.01c10.74 6.94 14.6 28.79 14.6 28.79L768.74 608.12zM702.57 455.38c1.399 2.57 2.17 5.43 2.17 8.45 0 11.15-10.351 23.45-23.38 23.45-13.03 0-23.811-12.3-23.811-23.45 0-3 .76-5.85 2.141-8.41 3.72-6.96 11.93-11.79 21.46-11.79 9.5 0 17.7 4.81 21.42 11.75z"/><path d="M702.57 455.38c3.41 1.21 7.859 2.64 12.38 4l-.36 1.19c.05.67.08 1.35.08 2.029 0 16.221-14.91 33.971-33.31 33.971-18.41 0-33.32-17.75-33.32-33.971 0-.569.02-1.149.08-1.739l-4.92-.24c5.819-1.68 12.04-3.62 16.49-5.2a17.624 17.624 0 0 0-2.141 8.41c0 11.15 10.78 23.45 23.811 23.45 13.029 0 23.38-12.3 23.38-23.45 0-3.02-.77-5.88-2.17-8.45z"/><path d="M714.95 459.38c8.069 2.42 16.34 4.63 19.2 5 1.93.25 3.689.95 5.3 2v.01s-15.851 15.79-15.851 52.971c0 5.97 2.011 14.409 2.011 14.409l6.02 32.011-5.1 77.77h-89.34l-6.53-77.77 6.02-32.011s2.011-8.439 2.011-14.409c0-37.181-15.86-52.971-15.86-52.971 1.61-1.05 3.38-1.76 5.32-2.01 2.359-.31 8.449-1.86 15.05-3.76l4.92.24c-.061.59-.08 1.17-.08 1.739 0 16.221 14.91 33.971 33.32 33.971 18.399 0 33.31-17.75 33.31-33.971 0-.68-.03-1.359-.08-2.029l.359-1.19z"/><path d="M638.69 519.36c0 5.97-2.011 14.409-2.011 14.409l-6.02 32.011-11.67 62.01-27.13-4.2 1.68-15.47 14.7-112.95s3.85-21.83 14.59-28.78c.001 0 15.861 15.79 15.861 52.97zM560.19 600.46l1.979 18.16-31.87 4.93-13.7-72.8v-.02l-7.08-37.601s-2.35-9.91-2.35-16.91c0-43.68 18.62-62.22 18.62-62.22 12.61 8.16 17.14 33.81 17.14 33.81L560.19 600.46zM497 425.76l-.42 1.4c.07.79.1 1.59.1 2.39 0 19.05-17.52 39.9-39.13 39.9-21.609 0-39.13-20.851-39.13-39.9 0-.67.03-1.35.1-2.04l-5.78-.29c6.84-1.97 14.16-4.25 19.38-6.12-1.62 3.01-2.521 6.36-2.521 9.89 0 13.1 12.65 27.54 27.95 27.54 15.311 0 27.46-14.44 27.46-27.54 0-3.55-.91-6.92-2.55-9.94 4.001 1.43 9.231 3.11 14.541 4.71z"/><path d="M482.46 421.05c1.64 3.02 2.55 6.391 2.55 9.94 0 13.1-12.149 27.54-27.46 27.54-15.3 0-27.95-14.44-27.95-27.54 0-3.53.9-6.88 2.521-9.89h.01c4.36-8.16 13.99-13.83 25.17-13.83 11.159 0 20.779 5.64 25.159 13.78z"/><path d="M519.55 431.64c2.271.29 4.351 1.13 6.24 2.36 0 0-18.62 18.54-18.62 62.22 0 7 2.35 16.91 2.35 16.91l7.08 37.601v.02l-5.989 91.32H405.67l-7.66-91.34H398l7.08-37.601s2.36-9.91 2.36-16.91c0-43.68-18.62-62.22-18.62-62.22 1.89-1.24 3.97-2.07 6.24-2.36 2.78-.359 9.92-2.189 17.68-4.42l5.78.29c-.07.69-.1 1.37-.1 2.04 0 19.05 17.521 39.9 39.13 39.9 21.61 0 39.13-20.851 39.13-39.9 0-.8-.029-1.6-.1-2.39l.42-1.4c9.48 2.85 19.19 5.44 22.55 5.88z"/><path d="M407.44 496.22c0 7-2.36 16.91-2.36 16.91l-7.08 37.6-13.7 72.819-31.86-4.93 1.97-18.16 17.27-132.65s4.53-25.659 17.14-33.81c0 .001 18.62 18.541 18.62 62.221zM318.37 593.24l2.28 20.96-36.74 5.68-15.8-83.979-8.16-43.36s-2.72-11.43-2.72-19.5c0-50.37 21.47-71.75 21.47-71.75l.01-.01c14.54 9.43 19.76 38.99 19.76 38.99l19.9 152.969zM228.75 386.37c1.88 3.48 2.93 7.36 2.93 11.45 0 15.11-14.02 31.76-31.67 31.76-17.64 0-32.23-16.65-32.23-31.76 0-4.07 1.04-7.93 2.9-11.4 5.04-9.41 16.15-15.95 29.04-15.95 12.87 0 23.97 6.51 29.03 15.9z"/><path d="M245.51 391.79l-.48 1.61c.06.92.1 1.84.1 2.76 0 21.97-20.2 46-45.12 46-24.92 0-45.12-24.03-45.12-46 0-.77.03-1.56.11-2.36l-5.08-.79c7.41-2.15 15.14-4.58 20.76-6.59-1.86 3.47-2.9 7.33-2.9 11.4 0 15.11 14.59 31.76 32.23 31.76 17.65 0 31.67-16.65 31.67-31.76 0-4.09-1.05-7.97-2.93-11.45 4.62 1.65 10.65 3.58 16.76 5.42zM142.22 473.04c0 8.07-2.71 19.5-2.71 19.5l-8.16 43.36-15.81 83.979L78.8 614.2l2.28-20.96 19.9-152.971s5.22-29.56 19.76-38.99l.01.01c0 .001 21.47 21.381 21.47 71.751z"/><path d="M154.89 396.16c0 21.97 20.2 46 45.12 46 24.92 0 45.12-24.03 45.12-46 0-.92-.04-1.84-.1-2.76l.48-1.61c10.93 3.29 22.13 6.28 25.99 6.77 2.62.34 5.02 1.3 7.21 2.72l-.01.01s-21.47 21.38-21.47 71.75c0 8.07 2.72 19.5 2.72 19.5l8.16 43.36h-.01l-6.91 105.33h-121l-8.84-105.33 8.16-43.36s2.71-11.43 2.71-19.5c0-50.37-21.47-71.75-21.47-71.75l-.01-.01c2.19-1.42 4.59-2.38 7.21-2.72 3.39-.43 12.43-2.77 21.97-5.55l5.08.79c-.08.8-.11 1.59-.11 2.36z"/></g><g fill="none" stroke="#000"><path d="M228.75 386.37c1.88 3.48 2.93 7.36 2.93 11.45 0 15.11-14.02 31.76-31.67 31.76-17.64 0-32.23-16.65-32.23-31.76 0-4.07 1.04-7.93 2.9-11.4 5.04-9.41 16.15-15.95 29.04-15.95 12.87 0 23.97 6.51 29.03 15.9z" stroke-width="14"/><path d="M245.03 393.4c.06.92.1 1.84.1 2.76 0 21.97-20.2 46-45.12 46-24.92 0-45.12-24.03-45.12-46 0-.77.03-1.56.11-2.36" stroke-width="5"/><path d="M120.75 401.29s21.47 21.38 21.47 71.75c0 8.07-2.71 19.5-2.71 19.5l-8.16 43.36-15.81 83.979L78.8 614.2l2.28-20.96 19.9-152.971s5.22-29.56 19.76-38.99c2.19-1.42 4.59-2.38 7.21-2.72 3.39-.43 12.43-2.77 21.97-5.55 7.41-2.15 15.14-4.58 20.76-6.59.01-.01.01-.01.02-.01M278.7 401.29s-21.47 21.38-21.47 71.75c0 8.07 2.72 19.5 2.72 19.5l8.16 43.36 15.8 83.979 36.74-5.68-2.28-20.96-19.9-152.971s-5.22-29.56-19.76-38.99c-2.19-1.42-4.59-2.38-7.21-2.72-3.86-.49-15.06-3.48-25.99-6.77-6.11-1.84-12.14-3.77-16.76-5.42-.01-.01-.01-.01-.02-.01" stroke-width="14"/><path stroke-width="14" d="M268.1 535.9l-6.91 105.33h-121l-8.84-105.33M432.13 421.1c4.36-8.16 13.99-13.83 25.17-13.83 11.16 0 20.78 5.64 25.16 13.78 1.64 3.02 2.55 6.391 2.55 9.94 0 13.1-12.149 27.54-27.46 27.54-15.3 0-27.95-14.44-27.95-27.54 0-3.53.9-6.88 2.521-9.89"/><path d="M496.58 427.16c.07.79.1 1.59.1 2.39 0 19.05-17.52 39.9-39.13 39.9-21.609 0-39.13-20.851-39.13-39.9 0-.67.03-1.35.1-2.04" stroke-width="5"/><path d="M388.82 434s18.62 18.54 18.62 62.22c0 7-2.36 16.91-2.36 16.91l-7.08 37.6-13.7 72.819-31.86-4.93 1.97-18.16 17.27-132.65c0 .001 4.53-25.659 17.14-33.809 1.89-1.24 3.97-2.07 6.24-2.36 2.78-.359 9.92-2.189 17.68-4.42 6.84-1.97 14.16-4.25 19.38-6.12h.01M516.6 550.75l13.7 72.8 31.87-4.93-1.979-18.16-17.261-132.65s-4.529-25.649-17.14-33.81c-1.89-1.23-3.97-2.07-6.24-2.36-3.359-.439-13.069-3.029-22.55-5.88-5.31-1.6-10.54-3.28-14.54-4.71" stroke-width="14"/><path d="M525.79 434s-18.62 18.54-18.62 62.22c0 7 2.35 16.91 2.35 16.91l7.08 37.601" stroke-width="14"/><path stroke-width="14" d="M516.6 550.73v.02l-5.99 91.32H405.67l-7.66-91.34"/><path d="M702.57 455.38c1.399 2.57 2.17 5.43 2.17 8.45 0 11.15-10.351 23.45-23.38 23.45-13.03 0-23.811-12.3-23.811-23.45 0-3 .76-5.85 2.141-8.41 3.72-6.96 11.93-11.79 21.46-11.79 9.5 0 17.7 4.81 21.42 11.75z" stroke-width="13"/><path d="M714.59 460.57c.05.67.08 1.35.08 2.029 0 16.221-14.91 33.971-33.31 33.971-18.41 0-33.32-17.75-33.32-33.971 0-.569.02-1.149.08-1.739" stroke-width="5"/><path d="M622.83 466.39s15.86 15.79 15.86 52.971c0 5.97-2.011 14.409-2.011 14.409l-6.02 32.011-11.67 62.01-27.13-4.2 1.68-15.47 14.7-112.95c.001-.001 3.851-21.831 14.591-28.781 1.61-1.05 3.38-1.76 5.32-2.01 2.359-.31 8.449-1.86 15.05-3.76 5.819-1.68 12.04-3.62 16.49-5.2.01-.01.01-.01.02-.01M739.45 466.39s-15.851 15.79-15.851 52.971c0 5.97 2.011 14.409 2.011 14.409l6.02 32.011 11.67 62.01 27.13-4.2-1.689-15.47-14.69-112.95s-3.859-21.85-14.6-28.79c-1.61-1.05-3.37-1.75-5.3-2-2.86-.37-11.131-2.58-19.2-5-4.521-1.36-8.97-2.79-12.38-4l-.011-.01" stroke-width="14"/><path stroke-width="14" d="M731.63 565.78l-5.1 77.77h-89.34l-6.53-77.77"/><path stroke-width="21" d="M199.9 182.87v146.05M232.61 293.45l-32.83 36.16-32.83-36.22"/></g><path fill="none" d="M0 0h850.394v850.394H0z"/></svg>