<svg xmlns="http://www.w3.org/2000/svg" width="850.394" height="850.394" viewBox="0 0 850.394 850.394" overflow="visible"><path d="M772.39 146.38l-24.51 232.67c0 25.69-35.57 46.5-79.45 46.5-43.859 0-79.439-20.81-79.439-46.5l-24.51-232.68.109-.01c1.43 15.58 47.36 28.1 103.811 28.1 56.449 0 102.39-12.52 103.819-28.1l.17.02z" fill="#f6cc4b"/><path d="M578.48 423.3c88.859 36.3 140.859 83.09 140.859 162.49 0 108.22-145.07 195.95-324.03 195.95-178.95 0-324.03-87.73-324.03-195.95 0-58.46 42.32-110.93 109.44-146.83l.02.01c-9.63 14.53-21.47 35.96-23.87 56.431-.67 5.68-.46 11.92.37 18.42l-.44.05c-8.24 15.47-20.74 41.939-20.94 63.6-.37 39.13 42.48 99.42 42.48 99.42 23.79 34.19 37.66 46.551 66.62 53.891l9.94 2.17c34.97 7.26 60.22 1.069 81.67-11.061 19.71 6.33 37.53 5.61 58.74 5.61 78.34 0 150.99-7.55 189.74-46.3v-.01c13.66-.73 24.29-1.12 30.271-1.12 35.42 0 20.22-52.58 19.76-54.13.78-2.33.85-4.95.01-7.881-.7-2.439-6.74-15.149-8.34-18.859l-5.53-1.5c29.91-4.021 16.11-52.09 15.59-53.86.78-2.33.851-4.939.011-7.859-5.261-18.29-37.63-74.921-58.92-112.351l.579-.331z" fill="#abd153"/><path d="M636.81 543.84c-5.67 17.04-49.03 19.16-49.03 19.16s-134.04 13.53-189.25 21.39c-55.19 7.891-70.19 18.41-76.59 24.801-19.71 19.699-43.96 22.29-60.82 19.14-24.93-4.65-43.93-24.79-69.01-85.89-22.23-54.171-17.57-94.75 1.45-120.931 2.44-3.36 5.12-6.48 8-9.36 17.43-17.43 57.82-9.32 69.02-9.32 11.22 0 189.01-31.55 224.979-41.94 35.98-10.38 53.2 9.5 66.25 34.03 3.24 6.1 9.061 16.36 16.091 28.71 21.29 37.43 53.659 94.061 58.92 112.351.84 2.919.77 5.529-.01 7.859z" fill="#ffffc2"/><path d="M608.14 598.14c-50.58 1.601-219.459 14.15-251.95 30.221-1.17.569-2.16 1.149-2.96 1.739-24.78 18.04-52.69 37.37-96.09 28.36-11.44-2.36-21.03-6.06-29.6-11.65-14.62-9.529-26.27-24.59-39.08-48 0 0-22.77-40.67-29.89-76.88-.54-2.739-.99-5.449-1.33-8.109-.83-6.5-1.04-12.74-.37-18.42 2.4-20.471 14.24-41.9 23.87-56.431 6.33-9.56 11.71-16.13 12.82-17.46-19.02 26.181-23.68 66.76-1.45 120.931 25.08 61.1 44.08 81.239 69.01 85.89 16.86 3.15 41.11.56 60.82-19.14 6.4-6.391 21.4-16.91 76.59-24.801C453.74 576.53 587.78 563 587.78 563s43.359-2.12 49.029-19.16c.521 1.771 14.32 49.84-15.59 53.86-1.3.18-2.689.27-4.17.27-2.309 0-5.309.06-8.909.17z" fill="#f6cc4b"/><path d="M635.08 625.94c-5.67 17.05-49.03 19.149-49.03 19.149s-28.16 2.84-63.97 6.67c2.42-2.08 3.37-4.47 6.26-7.26 3.891-3.76 4.22-2.63 10.78-4.91 9.64-3.34 14.33-7.649 13.54-16.229 10.359-2.33 18.32.04 25.75-20.811 7.41 3.271 20.55 1.22 29.729-4.41 3.601-.109 6.601-.17 8.91-.17 1.48 0 2.87-.09 4.17-.27l5.53 1.5c1.6 3.71 7.64 16.42 8.34 18.859.841 2.932.771 5.552-.009 7.882z" fill="#ffffc2"/><path d="M635.08 625.94c.46 1.55 15.66 54.13-19.76 54.13-5.98 0-16.61.39-30.271 1.12-68.38 3.67-212.91 15.939-233.55 31-4.81 3.51-9.76 6.779-14.93 9.699-21.45 12.13-46.7 18.32-81.67 11.061l-9.94-2.17c-28.96-7.34-42.83-19.7-66.62-53.891 0 0-42.85-60.29-42.48-99.42.2-21.66 12.7-48.13 20.94-63.6l.44-.05c.34 2.66.79 5.37 1.33 8.109l-2.84.54c-5.93 25.9-1 58.88 20.2 97.98 29.7 54.78 43.1 69.29 70.76 78.37 0 0 26.86 9.09 55.74.21V699c23.37-.56 44.01-10.74 56.92-25.11 9.74-2.649 21.97-5.189 37.45-7.409 5.99-.841 11.65-1.521 19.04-2.461 9.13 3.53 16.09-2.119 24.49-4.34 9.15-2.399 14.02 4.88 23.07 5.11 10.399.3 13.51-10.13 20.819-12.15 11.011-3 21.86 6.971 34.21 1.37 1.561-.71 2.721-1.46 3.65-2.25 35.81-3.83 63.97-6.67 63.97-6.67s43.362-2.1 49.032-19.15z" fill="#f6cc4b"/><path d="M522.08 651.76c-.93.79-2.09 1.54-3.65 2.25-12.35 5.601-23.199-4.37-34.21-1.37-7.31 2.021-10.42 12.45-20.819 12.15-9.051-.23-13.92-7.51-23.07-5.11-8.4 2.221-15.36 7.87-24.49 4.34-.75-.289-1.52-.64-2.3-1.06-5.2-2.8-7.26-10.64-12.05-13.06-4.29-2.19-6.85.38-11.28-.351-7.03-1.16-11.68-3.97-15.37-7.979-2.87-3.12-5.16-6.971-7.56-11.351-4.56.641-8.17-.02-11.09-1.859 32.49-16.07 201.37-28.62 251.95-30.221-9.18 5.63-22.319 7.681-29.729 4.41-7.43 20.851-15.391 18.48-25.75 20.811.79 8.58-3.9 12.89-13.54 16.229-6.561 2.28-6.89 1.15-10.78 4.91-2.892 2.791-3.842 5.181-6.262 7.261z" fill="#9e5c26"/><path d="M585.05 681.19v.01c-38.75 38.75-111.399 46.3-189.74 46.3-21.21 0-39.03.72-58.74-5.61 5.17-2.92 10.12-6.189 14.93-9.699 20.64-15.061 165.17-27.331 233.55-31.001zM413.54 662.96c.78.42 1.55.771 2.3 1.06-7.39.94-13.05 1.62-19.04 2.461-15.48 2.22-27.71 4.76-37.45 7.409 8.25-9.189 13.34-20.08 13.96-31.26l1.53-1.06c3.69 4.01 8.34 6.819 15.37 7.979 4.43.73 6.99-1.84 11.28.351 4.79 2.42 6.85 10.26 12.05 13.06z" fill="#ffffc2"/><path d="M359.35 673.89c-12.91 14.37-33.55 24.551-56.92 25.11-.68.02-1.36.03-2.05.03-39.14 0-71.07-23.15-72.84-52.221 8.57 5.591 18.16 9.29 29.6 11.65 43.4 9.01 71.31-10.32 96.09-28.36.8-.59 1.79-1.17 2.96-1.739 2.92 1.84 6.53 2.5 11.09 1.859 2.4 4.38 4.69 8.23 7.56 11.351l-1.53 1.06c-.62 11.18-5.71 22.07-13.96 31.26z" fill="#ed1d31"/><path d="M268.94 138.17c1.04-.48 2.02-.99 2.92-1.54 16.37-9.92 38.7-15.38 55.56 2.48 16.87 17.86 36.22 64 25.31 100.7-10.92 36.71-38.21 87.81-45.65 100.22-7.44 12.4-27.36 30.56-36.71 34.23-8.36 3.28-18.22 3.9-25.19-1.64-6.06-4.82-12.01-12.25-20.94-12.25-14.81 0-22.93 14.89-37.31 12.5-14.01-2.32-22.22-14-31.15-29.86 0 0-43.16-81.87-44.65-112.62-1.49-30.76 6.66-87.95 38.2-101.2 10.01-4.2 17.92-4.45 24.76-2.83 10.13 2.41 17.95 8.9 26.83 12.75 5.06 2.2 12.99 3.76 21.9 4.47 2.87.23 5.84.37 8.85.42 13.59.22 27.96-1.5 37.27-5.83z" fill="#abd153"/><path d="M302.43 699v.03c-28.88 8.88-55.74-.21-55.74-.21-27.66-9.08-41.06-23.59-70.76-78.37-21.2-39.101-26.13-72.08-20.2-97.98l2.84-.54c7.12 36.21 29.89 76.88 29.89 76.88 12.81 23.41 24.46 38.471 39.08 48 1.77 29.07 33.7 52.221 72.84 52.221.69-.001 1.37-.011 2.05-.031z" fill="#ffffc2"/><path d="M299.64 79.58s1.49 16.87-3.47 28.28c-4.71 10.85-15.03 23.2-27.23 30.31-9.31 4.33-23.68 6.05-37.27 5.83l.01-1.42s-1.64-4.02-3.71-9.38l.73-.1s3.85-25.97 26.79-39.13c18.05-10.36 44.15-14.39 44.15-14.39z" fill="#33a048"/><path d="M215.05 125.15l7.77 18.43c-8.91-.71-16.84-2.27-21.9-4.47-8.88-3.85-16.7-10.34-26.83-12.75l.04-.15s21.96-2.74 39.74-.56l1.18-.5z" fill="#abd153"/><g fill="none" stroke="#231f20" stroke-width="14"><path d="M578.48 423.3c88.859 36.3 140.859 83.09 140.859 162.49 0 108.22-145.07 195.95-324.03 195.95-178.95 0-324.03-87.73-324.03-195.95 0-58.46 42.32-110.93 109.44-146.83"/><path d="M585.05 681.2c-38.75 38.75-111.399 46.3-189.74 46.3-21.21 0-39.03.72-58.74-5.61M519.57 652.03l2.51-.271c35.81-3.83 63.97-6.67 63.97-6.67s43.36-2.1 49.03-19.149c.78-2.33.85-4.95.01-7.881-.7-2.439-6.74-15.149-8.34-18.859M359.26 673.91c.03-.01.06-.021.09-.021 9.74-2.649 21.97-5.189 37.45-7.409 5.99-.841 11.65-1.521 19.04-2.461.58-.069 1.16-.14 1.76-.22M155.73 522.47c-5.93 25.9-1 58.88 20.2 97.98 29.7 54.78 43.1 69.29 70.76 78.37 0 0 26.86 9.09 55.74.21"/><path d="M635.07 625.9s0 .01.01.04c.46 1.55 15.66 54.13-19.76 54.13-5.98 0-16.61.39-30.271 1.12-68.38 3.67-212.91 15.939-233.55 31-4.81 3.51-9.76 6.779-14.93 9.699-21.45 12.13-46.7 18.32-81.67 11.061l-9.94-2.17c-28.96-7.34-42.83-19.7-66.62-53.891 0 0-42.85-60.29-42.48-99.42.2-21.66 12.7-48.13 20.94-63.6"/><path d="M193.56 421.51c-19.02 26.181-23.68 66.76-1.45 120.931 25.08 61.1 44.08 81.239 69.01 85.89 16.86 3.15 41.11.56 60.82-19.14 6.4-6.391 21.4-16.91 76.59-24.801C453.74 576.53 587.78 563 587.78 563s43.359-2.12 49.029-19.16c.78-2.33.851-4.939.011-7.859-5.261-18.29-37.63-74.921-58.92-112.351-7.03-12.35-12.851-22.61-16.091-28.71-13.05-24.53-30.27-44.41-66.25-34.03-35.97 10.39-213.76 41.94-224.979 41.94-11.2 0-51.59-8.11-69.02 9.32-2.88 2.88-5.56 6-8 9.36z"/><path d="M636.8 543.79s.01.02.01.05c.521 1.771 14.32 49.84-15.59 53.86-1.3.18-2.689.27-4.17.27-2.31 0-5.31.061-8.91.17-50.58 1.601-219.459 14.15-251.95 30.221-1.17.569-2.16 1.149-2.96 1.739-24.78 18.04-52.69 37.37-96.09 28.36-11.44-2.36-21.03-6.06-29.6-11.65-14.62-9.529-26.27-24.59-39.08-48 0 0-22.77-40.67-29.89-76.88-.54-2.739-.99-5.449-1.33-8.109-.83-6.5-1.04-12.74-.37-18.42 2.4-20.471 14.24-41.9 23.87-56.431 6.33-9.56 11.71-16.13 12.82-17.46.14-.17.21-.25.21-.25"/><path d="M355.71 628.06c.16.11.32.21.48.301 2.92 1.84 6.53 2.5 11.09 1.859 2.4 4.38 4.69 8.23 7.56 11.351 3.69 4.01 8.34 6.819 15.37 7.979 4.43.73 6.99-1.84 11.28.351 4.79 2.42 6.85 10.26 12.05 13.06.78.42 1.55.771 2.3 1.06 9.13 3.53 16.09-2.119 24.49-4.34 9.15-2.399 14.02 4.88 23.07 5.11 10.399.3 13.51-10.13 20.819-12.15 11.011-3 21.86 6.971 34.21 1.37 1.561-.71 2.721-1.46 3.65-2.25 2.42-2.08 3.37-4.47 6.26-7.26 3.891-3.76 4.22-2.63 10.78-4.91 9.64-3.34 14.33-7.649 13.54-16.229 10.359-2.33 18.32.04 25.75-20.811 7.41 3.271 20.55 1.22 29.729-4.41.36-.22.721-.449 1.07-.68M373.31 642.63c-.62 11.18-5.71 22.07-13.96 31.26-12.91 14.37-33.55 24.551-56.92 25.11-.68.02-1.36.03-2.05.03-39.14 0-71.07-23.15-72.84-52.221-.02-.29-.04-.59-.05-.88M777.59 97.06c0 .59-.06 1.17-.18 1.75-3.271 15.93-50.811 28.55-108.98 28.55-58.16 0-105.699-12.62-108.97-28.55-.12-.58-.18-1.16-.18-1.75 0-16.74 48.87-30.32 109.149-30.32 60.291 0 109.161 13.58 109.161 30.32zM772.25 145.62c0 .25-.01.5-.03.74-1.43 15.58-47.37 28.1-103.819 28.1-56.45 0-102.381-12.52-103.811-28.1a8.97 8.97 0 0 1-.03-.74"/><path d="M559.28 97.06l.18 1.75 5.021 47.56 24.51 232.68c0 25.69 35.58 46.5 79.439 46.5 43.88 0 79.45-20.81 79.45-46.5l24.51-232.67 5.021-47.57.18-1.75M268.94 138.17c1.04-.48 2.02-.99 2.92-1.54 16.37-9.92 38.7-15.38 55.56 2.48 16.87 17.86 36.22 64 25.31 100.7-10.92 36.71-38.21 87.81-45.65 100.22-7.44 12.4-27.36 30.56-36.71 34.23-8.36 3.28-18.22 3.9-25.19-1.64-6.06-4.82-12.01-12.25-20.94-12.25-14.81 0-22.93 14.89-37.31 12.5-14.01-2.32-22.22-14-31.15-29.86 0 0-43.16-81.87-44.65-112.62-1.49-30.76 6.66-87.95 38.2-101.2 10.01-4.2 17.92-4.45 24.76-2.83 10.13 2.41 17.95 8.9 26.83 12.75 5.06 2.2 12.99 3.76 21.9 4.47 2.87.23 5.84.37 8.85.42 13.59.22 27.96-1.5 37.27-5.83zM174.13 126.21s21.96-2.74 39.74-.56"/><path d="M223.24 144.57l-.42-.99-7.77-18.43-10.65-25.23s-2.49-9.42 8.43-8.93c10.91.5 3.96 10.92 9.42 26.79 1.7 4.94 3.88 10.7 5.72 15.42 2.07 5.36 3.71 9.38 3.71 9.38"/><path d="M228.7 133.1s3.85-25.97 26.79-39.13c18.05-10.36 44.15-14.39 44.15-14.39s1.49 16.87-3.47 28.28c-4.71 10.85-15.03 23.2-27.23 30.31-.63.37-1.27.73-1.92 1.07"/></g><path fill="none" d="M0 0h850.394v850.394H0z"/></svg>