<svg xmlns="http://www.w3.org/2000/svg" width="850.394" height="850.394" viewBox="0 0 850.394 850.394" overflow="visible"><path fill="#c8c8c8" d="M284.05 392.19h41.93v25.06h-41.93zM179.23 392.19h41.92v25.06h-41.92zM240.59 279.95h25.05v41.93h-25.05z"/><path d="M716.13 373.02c.51 19.43 0 66.98 0 66.98s-1.479 26.02-29.14 27.1c-13.45.521-25.79.91-37.57 1.17-22.59.49-43.16.49-65.74 0-11.8-.26-24.14-.649-37.6-1.17-27.66-1.08-29.14-27.1-29.14-27.1s-.511-47.55 0-66.98c.51-19.43 13.8-35.8 33.75-66.48 19.939-30.68 30.68-30.68 30.68-30.68h70.33s10.74 0 30.68 30.68c19.95 30.68 33.24 47.05 33.75 66.48z" fill="#fff"/><path d="M649.42 468.27l.11 4.65-8 52.67-4.271 28.12h-41.42l-4.2-27.67-8.069-53.12.109-4.65c22.581.49 43.151.49 65.741 0z" fill="#231f20"/><path fill="#ffffc2" d="M373.61 249.27h37.85v105.4h-37.85zM439.49 250.23h37.84v105.4h-37.84z"/><path d="M742.72 174.1v339.79c0 6.78-5.59 12.271-12.479 12.271H645.31l-3.779-.57 8-52.67-.11-4.65c11.78-.26 24.12-.649 37.57-1.17 27.66-1.08 29.14-27.1 29.14-27.1s.51-47.55 0-66.98-13.8-35.8-33.75-66.48c-19.939-30.68-30.68-30.68-30.68-30.68h-70.33s-10.74 0-30.68 30.68c-19.95 30.68-33.24 47.05-33.75 66.48-.511 19.43 0 66.98 0 66.98s1.479 26.02 29.14 27.1c13.46.521 25.8.91 37.6 1.17l-.109 4.65 8.069 53.12-.79.12H120.89c-6.9 0-12.49-5.49-12.49-12.271V174.1c0-6.77 5.59-12.27 12.49-12.27h609.35c6.89 0 12.48 5.5 12.48 12.27zM477.33 355.63v-105.4h-37.84v105.4h37.84zm-65.87-.96v-105.4h-37.85v105.4h37.85zm-85.48 62.58v-25.06h-41.93v25.06h41.93zm-60.34-95.37v-41.93h-25.05v41.93h25.05zm-44.49 95.37v-25.06h-41.92v25.06h41.92z" fill="#ffffc2"/><g fill="none" stroke="#231f20"><path d="M583.68 468.27c-11.8-.26-24.14-.649-37.6-1.17-27.66-1.08-29.14-27.1-29.14-27.1s-.511-47.55 0-66.98c.51-19.43 13.8-35.8 33.75-66.48 19.939-30.68 30.68-30.68 30.68-30.68h70.33s10.74 0 30.68 30.68c19.95 30.68 33.24 47.05 33.75 66.48s0 66.98 0 66.98-1.479 26.02-29.14 27.1c-13.45.521-25.79.91-37.57 1.17-22.59.49-43.16.49-65.74 0zM649.53 472.92l-8 52.67-4.27 28.12h-41.42l-4.2-27.67-8.07-53.12M615.91 556.08s2.55 47.55 59.31 146.75" stroke-width="21"/><path stroke-width="14" d="M439.49 250.23h37.84v105.4h-37.84zM373.61 249.27h37.85v105.4h-37.85zM240.59 279.95h25.05v41.93h-25.05zM179.23 392.19h41.92v25.06h-41.92zM284.05 392.19h41.93v25.06h-41.93z"/><path d="M590.85 526.16H120.89c-6.9 0-12.49-5.49-12.49-12.271V174.1c0-6.77 5.59-12.27 12.49-12.27h609.35c6.89 0 12.479 5.5 12.479 12.27v339.79c0 6.78-5.59 12.271-12.479 12.271h-84.93" stroke-width="21"/></g><path fill="none" d="M0 0h850.394v850.394H0z"/></svg>