<svg xmlns="http://www.w3.org/2000/svg" width="850.394" height="850.394" viewBox="0 0 850.394 850.394" overflow="visible"><path d="M360.37 174.62c-1.22 1.31-3.26 3.63-5.68 6.93a97.975 97.975 0 0 0-10.29 17.89 99.682 99.682 0 0 0-6.45 19.91c-5.44-5.2-14.58-17.35-12.29-38.74 3.22-30.04-19.31-60.07-19.31-60.07L253.8 70.12l13.94-18.23s15.02 8.58 36.47 22.52c54.71 35.56 75.08 38.62 84.74 60.07 6.21 13.8 2.21 22.28-1.44 26.56-14.23 3.73-23.5 9.91-23.5 9.91l-2.41 2.42s-.45.42-1.23 1.25z" fill="#33a048"/><path d="M337.95 219.35a99.682 99.682 0 0 1 6.45-19.91c2.59 9.09 17.94 59.6 50.99 102.37 21.83 28.27 22.76 114.15 18.34 181.63C409.31 550.9 351.77 680.97 370 770l-.32.36c-21.76-20.091-37.38-52.2-29-99.83 17.7-100.561 32.18-241.34 31.38-285.59-.81-44.25-34.55-106.21-36.21-138.37-.52-10.02.38-19.12 2.1-27.22z" fill="#abd153"/><path d="M447.94 608.58C437.74 656.54 414 794 414 794l-.26.92c-14.13-3.979-30.32-11.87-44.06-24.56l.32-.36c-18.23-89.03 39.31-219.1 43.73-286.56 4.42-67.48 3.49-153.36-18.34-181.63-33.05-42.77-48.4-93.28-50.99-102.37a97.975 97.975 0 0 1 10.29-17.89c14.51 8.67 83.791 54.35 110.291 150.13 29.659 107.25-6.831 228.95-17.041 276.9z" fill="#33a048"/><path d="M414 794s23.74-137.46 33.94-185.42c10.21-47.95 46.699-169.65 17.04-276.9-26.5-95.78-95.78-141.46-110.291-150.13 2.42-3.3 4.46-5.62 5.68-6.93 11.34-2.3 58.99-7.42 105.81 55.33 50.42 67.57 75.88 203.06 57.351 307.62-18.54 104.55-58.43 251.21-58.43 251.21l.631 3.62c-8.891 2.84-17.381 3.869-25.301 5.229-6.399 1.101-15.95.33-26.689-2.71L414 794z" fill="#abd153"/><path d="M466.18 229.95c-46.82-62.75-94.47-57.63-105.81-55.33.78-.83 1.23-1.25 1.23-1.25l2.41-2.42s9.27-6.18 23.5-9.91c17.41-4.57 42.25-5.47 66.601 13.13 44.25 33.79 86.43 99.95 102.17 194.15 17.16 102.71 16.89 240.26-17.7 331.97-24.86 65.92-50.14 84.87-72.85 92.11l-.631-3.62s39.891-146.66 58.431-251.21c18.529-104.56-6.931-240.05-57.351-307.62z" fill="#33a048"/><g fill="none" stroke="#231f20"><path d="M360.37 174.62c.78-.83 1.23-1.25 1.23-1.25l2.41-2.42s9.27-6.18 23.5-9.91c17.41-4.57 42.25-5.47 66.601 13.13 44.25 33.79 86.43 99.95 102.17 194.15 17.16 102.71 16.89 240.26-17.7 331.97-24.86 65.92-50.14 84.87-72.85 92.11-8.891 2.84-17.381 3.869-25.301 5.229-6.399 1.101-15.95.33-26.689-2.71-14.13-3.979-30.32-11.87-44.06-24.56-21.76-20.091-37.38-52.2-29-99.83 17.7-100.561 32.18-241.34 31.38-285.59-.81-44.25-34.55-106.21-36.21-138.37-.52-10.02.38-19.12 2.1-27.22a99.682 99.682 0 0 1 6.45-19.91 97.975 97.975 0 0 1 10.29-17.89c2.419-3.299 4.459-5.619 5.679-6.929z" stroke-width="21"/><path d="M357.84 175.24s.88-.28 2.53-.62c11.34-2.3 58.99-7.42 105.81 55.33 50.42 67.57 75.88 203.06 57.351 307.62C504.99 642.12 465.1 788.78 465.1 788.78" stroke-width="14"/><path d="M352 180s.95.51 2.69 1.55c14.51 8.67 83.791 54.35 110.291 150.13 29.659 107.25-6.83 228.95-17.04 276.9C437.74 656.54 414 794 414 794" stroke-width="14"/><path d="M344 198s.13.5.4 1.44c2.59 9.09 17.94 59.6 50.99 102.37 21.83 28.27 22.76 114.15 18.34 181.63C409.31 550.9 351.77 680.97 370 770" stroke-width="14"/><path d="M383.58 164.51s1.91-1.09 3.93-3.47c3.65-4.28 7.65-12.76 1.44-26.56-9.66-21.45-30.03-24.51-84.74-60.07-21.45-13.94-36.47-22.52-36.47-22.52L253.8 70.12l52.55 50.42s22.53 30.03 19.31 60.07c-2.29 21.39 6.85 33.54 12.29 38.74 2.2 2.11 3.8 3.09 3.8 3.09" stroke-width="21"/></g><path fill="none" d="M0 0h850.394v850.394H0z"/></svg>