<svg xmlns="http://www.w3.org/2000/svg" width="850.394" height="850.394" viewBox="0 0 850.394 850.394" overflow="visible"><path d="M296.9 381.01c4.38.47 8.6 1.29 12.4 2.76l-1.66 3.3c0 10.46-8.89 18.96-19.86 18.96-.68 0-1.36-.03-2.03-.1-10.01-.97-17.82-9.05-17.82-18.86 0-1.16-.03-2.07-.02-2.85l-5.01-.68c4.88-1.74 10.18-2.64 15.83-2.98-2 1.91-3.22 4.45-3.22 7.23 0 5.88 5.41 10.64 12.09 10.64s12.08-4.76 12.08-10.64c0-2.57-1.04-4.94-2.78-6.78zM466.35 375.01c3.78.22 7.391.7 10.841 1.51l-.021 2.48c0 .7-.03 1.52-.03 2.51 0 9.81-7.8 17.89-17.819 18.86-.67.07-1.34.1-2.03.1-10.96 0-19.85-8.5-19.85-18.96 0-.48-.021-.86-.051-1.2l-5.85-.07c4.76-2.81 10.55-4.14 16.62-4.79-1.73 1.84-2.771 4.21-2.771 6.78 0 5.88 5.4 10.63 12.08 10.63 6.69 0 12.101-4.75 12.101-10.63 0-2.78-1.22-5.32-3.22-7.22z" fill="#a8d7f4"/><path d="M285.75 405.93l-.53 5.17c-2.89-.32-5.69-.91-8.13-1.78-10.43-3.71-19.46-10.18-27.29-17.42l-.29-.3c4.02-3.72 8.5-6.32 13.39-8.06l5.01.68c-.01.78.02 1.69.02 2.85 0 9.81 7.81 17.89 17.82 18.86z" fill="#fff"/><path d="M287.78 406.03c10.97 0 19.86-8.5 19.86-18.96l1.66-3.3c5.18 2 9.57 5.21 12.49 10.39 1.9 3.37 4.43 5.72 1.09 7.77-2.82 1.75-6.24.51-9.27 1.91-2.04.96-3.9 3.3-6.07 4.29-2.59 1.2-6.04 1.89-8.84 2.48-4.05.83-8.89 1-13.48.49l.53-5.17c.67.07 1.35.1 2.03.1zM459.86 405.54c-4.601.51-9.44.34-13.49-.49-2.79-.58-6.24-1.27-8.83-2.47-2.18-1-4.03-3.34-6.07-4.3-3.04-1.41-6.45-.16-9.28-1.92-3.33-2.05-.81-4.39 1.09-7.76 2.09-3.7 4.92-6.39 8.26-8.36l5.85.07c.03.34.051.72.051 1.2 0 10.46 8.89 18.96 19.85 18.96.69 0 1.36-.03 2.03-.1l.539 5.17z" fill="#fff"/><path d="M495.56 386.04l-.29.3c-7.829 7.24-16.859 13.7-27.289 17.42-2.44.87-5.23 1.46-8.12 1.78l-.54-5.17c10.02-.97 17.819-9.05 17.819-18.86 0-.99.03-1.81.03-2.51l.021-2.48c6.859 1.61 13.019 4.56 18.369 9.52z" fill="#fff"/><path d="M430.65 217.51c-44.44 31.14-148.3 80.69-167.4 94.7-24.78 18.19-39.91 50.78-39.15 81.82.71 29.03 10.37 39.47 10.37 83.17 0 33.55 23.15 70.63 40.27 93.939-62.76 13.101-147.33-69.47-142.41-209 0 0 24.91-133.22 54.65-173.87 49.67-67.89 85.55-92.72 167.24-109.28l41.95-2.1 29.8 5.41c26.5 8.83 39.19 26.49 39.19 26.49 38.09-33.11 82.79-6.62 82.79-6.62 59.01 30.13 109.25 86 117.569 210.29 0 0 1.66 102.64-3.31 134.13-9.71 61.45-70.51 78.66-73.36 79.43l-5.06-.939c1.41-3.561 2.44-7.29 2.99-11.22.859-6.17 28.609-106.23-12.16-147.01-43.7-43.71-124.53-129.4-140.71-146.58-1.86-1.97-2.86-3.04-2.86-3.04-.129.09-.259.19-.399.28z" fill="#c8c8c8"/><path d="M389.04 552.47c6.28-9.08 49.71-3.3 61.28-3.979-7.83 6.85-18.011 19.54-36 24.14-19.17 4.9-39.7 3.94-55.49-3.61-11.49-5.479-35.59-13-9.77-17.319 7.9-1.32 17.34-2.351 25.47-1.271 4.3.569 10.62 2.959 14.51 2.039z" fill="#ef947d"/><path d="M583.57 529.15c-.311 19.119 26.93 85.659 26.93 85.659 22.23 25.82 62.44 26.131 89.05 44.36L276.69 770.14c23.37-18.739 45.57-36.85 51.96-42.12 19.08-15.76 29.69-17.31 29.69-45.63 0-13.34-1.04-31.54-11.1-41.67 29.13 24.34 71.63 12.04 105.41 7.91 45.1-5.5 62.56-53.45 93.949-80.63 13.53-11.73 28.021-23.82 35.511-39.11l1.46.26z" fill="#ffeec8"/><path d="M495.56 386.04c-5.35-4.96-11.51-7.91-18.369-9.52-3.45-.81-7.061-1.29-10.841-1.51-2.21-2.11-5.369-3.42-8.88-3.42-3.75 0-7.09 1.5-9.31 3.86-6.07.65-11.86 1.98-16.62 4.79-3.34 1.97-6.17 4.66-8.26 8.36-1.9 3.37-4.42 5.71-1.09 7.76 2.83 1.76 6.24.51 9.28 1.92 2.04.96 3.891 3.3 6.07 4.3 2.59 1.2 6.04 1.89 8.83 2.47 4.05.83 8.89 1 13.49.49 2.89-.32 5.68-.91 8.12-1.78 10.43-3.72 19.46-10.18 27.289-17.42l.291-.3zm-232.31-73.83c19.1-14.01 122.96-63.56 167.4-94.7.659 1.41 1.739 2.33 3.26 2.76 16.18 17.18 97.01 102.87 140.71 146.58 40.77 40.78 13.02 140.84 12.16 147.01-.55 3.93-1.58 7.659-2.99 11.22-.51 1.29-1.07 2.56-1.68 3.81-7.49 15.29-21.98 27.38-35.511 39.11-31.39 27.18-48.85 75.13-93.949 80.63-33.78 4.13-76.28 16.43-105.41-7.91a23.611 23.611 0 0 0-3.68-3.04c-.02-.02-.04-.04-.06-.05-17.48-14.26-38.32-27.83-52.31-45.43-2.82-3.55-9.08-11.03-16.45-21.061-17.12-23.31-40.27-60.39-40.27-93.939 0-43.7-9.66-54.14-10.37-83.17-.76-31.04 14.37-63.63 39.15-81.82zm58.54 81.95c-2.92-5.18-7.31-8.39-12.49-10.39-3.8-1.47-8.02-2.29-12.4-2.76-2.21-2.36-5.55-3.86-9.3-3.86-3.51 0-6.66 1.31-8.87 3.41-5.65.34-10.95 1.24-15.83 2.98-4.89 1.74-9.37 4.34-13.39 8.06l.29.3c7.83 7.24 16.86 13.71 27.29 17.42 2.44.87 5.24 1.46 8.13 1.78 4.59.51 9.43.34 13.48-.49 2.8-.59 6.25-1.28 8.84-2.48 2.17-.99 4.03-3.33 6.07-4.29 3.03-1.4 6.45-.16 9.27-1.91 3.34-2.05.81-4.4-1.09-7.77zm27.27 157.54c-25.82 4.319-1.72 11.84 9.77 17.319 15.79 7.551 36.32 8.511 55.49 3.61 17.99-4.6 28.17-17.29 36-24.14-11.57.68-55-5.101-61.28 3.979-3.89.92-10.21-1.47-14.51-2.04-8.13-1.078-17.57-.048-25.47 1.272z" fill="#ffeec8"/><path d="M457.48 377.51c2.399 0 4.329 2.11 4.329 4.72s-1.93 4.73-4.329 4.73c-2.391 0-4.33-2.12-4.33-4.73s1.94-4.72 4.33-4.72zM457.47 371.59c3.511 0 6.67 1.31 8.88 3.42-2.659-.16-5.399-.19-8.21-.13-3.33.08-6.699.23-9.979.57 2.219-2.36 5.559-3.86 9.309-3.86z" fill="#231f20"/><path d="M461.81 382.23c0-2.61-1.93-4.72-4.329-4.72-2.391 0-4.33 2.11-4.33 4.72s1.939 4.73 4.33 4.73c2.399 0 4.329-2.12 4.329-4.73zm-3.67-7.35c2.811-.06 5.551-.03 8.21.13 2 1.9 3.221 4.44 3.221 7.22 0 5.88-5.41 10.63-12.101 10.63-6.68 0-12.08-4.75-12.08-10.63 0-2.57 1.04-4.94 2.771-6.78 3.279-.34 6.649-.49 9.979-.57zM287.59 383.07c2.4 0 4.34 2.11 4.34 4.72 0 2.62-1.94 4.73-4.34 4.73s-4.33-2.11-4.33-4.73c0-2.61 1.93-4.72 4.33-4.72zM286.93 380.44c-2.81-.06-5.54-.03-8.2.12 2.21-2.1 5.36-3.41 8.87-3.41 3.75 0 7.09 1.5 9.3 3.86-3.27-.34-6.64-.49-9.97-.57z" fill="#231f20"/><path d="M287.59 392.52c2.4 0 4.34-2.11 4.34-4.73 0-2.61-1.94-4.72-4.34-4.72s-4.33 2.11-4.33 4.72c0 2.62 1.93 4.73 4.33 4.73zm-.66-12.08c3.33.08 6.7.23 9.97.57 1.74 1.84 2.78 4.21 2.78 6.78 0 5.88-5.4 10.64-12.08 10.64s-12.09-4.76-12.09-10.64c0-2.78 1.22-5.32 3.22-7.23 2.66-.15 5.39-.18 8.2-.12z" fill="#231f20"/><g fill="none" stroke="#231f20"><path d="M405.88 370.3c41.89-42.65 101.11-12.61 104.4-9.32M317.8 359.98c-42.23-14.12-67.07-6.67-87.62 7.33M345.52 376.36c24.36 18.23 11.47 79.94 5.33 98.35-1.95 5.87-10.35 16.28-4.44 22.37 2.86 2.95 6.53 1.36 10.11 1.91 3.71.59 5.94.96 10.21 2.55 8.24 3.07 14.24 4.92 21.67-.48 8.05-5.829 7.45-9.96 19.32-9.39 10 .48 21.049 3.3 20.549-12.08-.34-10.6-8.31-10.47-14-17.93M389.04 552.47c.65-.149 1.24-.39 1.73-.76" stroke-width="14"/><path d="M389.04 552.47c6.28-9.08 49.71-3.3 61.28-3.979-7.83 6.85-18.011 19.54-36 24.14-19.17 4.9-39.7 3.94-55.49-3.61-11.49-5.479-35.59-13-9.77-17.319 7.9-1.32 17.34-2.351 25.47-1.271 4.3.569 10.62 2.959 14.51 2.039zM388.36 554.04a4 4 0 0 1 .68-1.57" stroke-width="14"/><path d="M343.56 637.68c1.35.9 2.57 1.92 3.68 3.04 10.06 10.13 11.1 28.33 11.1 41.67M343.42 637.58c.03.02.05.04.08.05" stroke-width="19.87"/><path d="M433.91 220.27c16.18 17.18 97.01 102.87 140.71 146.58 40.77 40.78 13.02 140.84 12.16 147.01-.55 3.93-1.58 7.659-2.99 11.22-.51 1.29-1.07 2.56-1.68 3.81-7.49 15.29-21.98 27.38-35.511 39.11-31.39 27.18-48.85 75.13-93.949 80.63-33.78 4.13-76.28 16.43-105.41-7.91-.1-.069-.19-.149-.29-.229-1.11-.94-2.24-1.88-3.39-2.811-.02-.02-.04-.04-.06-.05-17.48-14.26-38.32-27.83-52.31-45.43-2.82-3.55-9.08-11.03-16.45-21.061-17.12-23.31-40.27-60.39-40.27-93.939 0-43.7-9.66-54.14-10.37-83.17-.76-31.04 14.37-63.63 39.15-81.82 19.1-14.01 122.96-63.56 167.4-94.7.14-.09.27-.19.399-.28.001 0 1.001 1.07 2.861 3.04zM276.69 770.14c23.37-18.739 45.57-36.85 51.96-42.12 19.08-15.76 29.69-17.31 29.69-45.63" stroke-width="21"/><path d="M296.9 381.01c4.38.47 8.6 1.29 12.4 2.76 5.18 2 9.57 5.21 12.49 10.39 1.9 3.37 4.43 5.72 1.09 7.77-2.82 1.75-6.24.51-9.27 1.91-2.04.96-3.9 3.3-6.07 4.29-2.59 1.2-6.04 1.89-8.84 2.48-4.05.83-8.89 1-13.48.49-2.89-.32-5.69-.91-8.13-1.78-10.43-3.71-19.46-10.18-27.29-17.42" stroke-width="9.935" stroke-linecap="square" stroke-miterlimit="10"/><path d="M245.75 395.59c1.21-1.46 2.46-2.78 3.76-3.99 4.02-3.72 8.5-6.32 13.39-8.06 4.88-1.74 10.18-2.64 15.83-2.98" stroke-width="9.935" stroke-linecap="square" stroke-miterlimit="10"/><path d="M307.64 387.07c0 10.46-8.89 18.96-19.86 18.96-.68 0-1.36-.03-2.03-.1-10.01-.97-17.82-9.05-17.82-18.86 0-1.16-.03-2.07-.02-2.85" stroke-width="6.623" stroke-linecap="square" stroke-miterlimit="10"/><path d="M291.93 387.79c0 2.62-1.94 4.73-4.34 4.73s-4.33-2.11-4.33-4.73c0-2.61 1.93-4.72 4.33-4.72 2.4 0 4.34 2.11 4.34 4.72z" stroke-width="6.623"/><path d="M448.16 375.45c-6.07.65-11.86 1.98-16.62 4.79-3.34 1.97-6.17 4.66-8.26 8.36-1.9 3.37-4.42 5.71-1.09 7.76 2.83 1.76 6.24.51 9.28 1.92 2.04.96 3.891 3.3 6.07 4.3 2.59 1.2 6.04 1.89 8.83 2.47 4.05.83 8.89 1 13.49.49 2.89-.32 5.68-.91 8.12-1.78 10.43-3.72 19.46-10.18 27.289-17.42" stroke-width="9.935" stroke-linecap="square" stroke-miterlimit="10"/><path d="M499.33 390.03a39.906 39.906 0 0 0-3.771-3.99c-5.35-4.96-11.51-7.91-18.369-9.52-3.45-.81-7.061-1.29-10.841-1.51" stroke-width="9.935" stroke-linecap="square" stroke-miterlimit="10"/><path d="M437.39 380.31c.03.34.051.72.051 1.2 0 10.46 8.89 18.96 19.85 18.96.69 0 1.36-.03 2.03-.1 10.02-.97 17.819-9.05 17.819-18.86 0-.99.03-1.81.03-2.51" stroke-width="6.623" stroke-linecap="square" stroke-miterlimit="10"/><path d="M453.15 382.23c0 2.61 1.939 4.73 4.33 4.73 2.399 0 4.329-2.12 4.329-4.73s-1.93-4.72-4.329-4.72c-2.39 0-4.33 2.11-4.33 4.72z" stroke-width="6.623"/><path d="M436.24 220.55c-.87.01-1.641-.08-2.33-.28-1.521-.43-2.601-1.35-3.26-2.76-.091-.18-.17-.36-.24-.55 13.67-13.32 20.37-34.4 24.47-52.34M583.57 529.15c-.311 19.119 26.93 85.659 26.93 85.659 22.23 25.82 62.44 26.131 89.05 44.36 1.59 1.08 3.13 2.24 4.62 3.46" stroke-width="21"/><path d="M276.39 570.78c-.55.13-1.1.25-1.65.359-62.76 13.101-147.33-69.47-142.41-209 0 0 24.91-133.22 54.65-173.87 49.67-67.89 85.55-92.72 167.24-109.28l41.95-2.1 29.8 5.41c26.5 8.83 39.19 26.49 39.19 26.49 38.09-33.11 82.79-6.62 82.79-6.62 59.01 30.13 109.25 86 117.569 210.29 0 0 1.66 102.64-3.31 134.13-9.71 61.45-70.51 78.66-73.36 79.43l-.1.03" stroke-width="21"/><path d="M333.25 396.91s-6.63 34.78-56.3 44.71M413.28 394.71s13.8 36.43 65.13 40.84M342.08 499.58s-15.34 19.93-23.19 29.8c-17.11 21.53-14.35 44.15-11.04 57.96M446.67 500.68s15.34 19.94 23.18 29.811c17.12 21.52 14.351 44.149 11.04 57.95" stroke-width="7"/><path d="M374.64 599.48s20.42-15.45 50.78-3.311" stroke-width="6.623"/><path stroke-width="7" d="M364.15 327.37l-9.93 54.09M379.61 328.47l11.04 51.88M319.49 285.52c5.09 1.88 10.35 3.72 17.09 3.21 13.42-1.03 23.16-8.07 35.6-11.04 11.95-2.85 23.44-1.96 35.63 1.9 5.86 1.85 39.14 22.39 61.22.31"/><path d="M339.32 551.74s-27.33 11.17-18.22 26.21M452.74 546.35s24.43-10.35 16.56 18.221" stroke-width="6.623"/><path d="M361.95 677.31s37.53 26.49 96.04 13.25" stroke-width="14"/><path d="M422.11 386.56s5.47-19.2 31.05-21.52c27.32-2.49 37.25 4.55 53.399 18.21M324.83 394.84s-2.49-19.45-25.25-24.01c-22.77-4.55-35.6-1.24-44.3 2.9-8.69 4.14-17.8 12.42-17.8 12.42" stroke-width="6.623"/></g><path fill="none" d="M0 0h850.394v850.394H0z"/></svg>