<svg id="Layer_1" xmlns="http://www.w3.org/2000/svg" viewBox="0 0 850 850" width="850" height="850"><style>.st0{fill:#a9d7f3}.st1{fill:none;stroke:#231f20;stroke-width:21;stroke-linecap:round;stroke-miterlimit:10}</style><path class="st0" d="M750.3 392.5L673 719h-15l10-326.5z"/><path class="st0" d="M83.5 333H668v59.5H165.8L88.5 719H658 83.5z"/><path class="st0" d="M668 392.5L658 719H88.5l77.3-326.5zM289.8 332v1H83.5v-73.5H266z"/><path class="st1" d="M658 719H83.5V333H668v59.5"/><path class="st1" d="M668 392.5h82.3L673 719H88.5l77.3-326.5zM83.5 339v-79.5H266l23.8 72.5M763 168.8L711.3 324l-147.5-71.2"/><path class="st1" d="M366.3 327l-.5-9.5V308l.5-9.2 1-9.5 1.5-9 2-9.3 2.2-8.7 2.8-8.8 3.2-8.7 3.5-8.3 4-8.2 4.3-8 4.7-7.8 5-7.2 5.3-7.3 5.7-7 5.8-6.5 6.2-6.5 6.5-5.7 6.8-5.8 7-5.2 7-4.8 7.5-4.5 7.5-4 7.7-3.7 8-3 8-2.8 8-2.2 8.3-1.8 8.5-1.2 8.5-.8h8.5l8.2.3 8.5.7 8.3 1 8.2 1.8 8 1.7 8 2.5 7.8 2.5 7.5 3.3 7.5 3.2 7.2 3.8 7.3 4.2 6.7 4.5 6.8 4.8 6.5 5 6.2 5.5 5.8 5.7 5.7 6 5.5 6.5 5 6.5 5 7 4.5 7.3 4 7.5 4 7.7 3.5 8 3 8.3 2.8 8.5 2.5 8.7 1.7 9 1.8 9 1 9.5.7 9.5.3 9.8"/></svg>
