<svg id="Layer_1" xmlns="http://www.w3.org/2000/svg" viewBox="0 0 850 850"><style>.st0{fill:#fff}.st1{fill:#a9d7f3}.st2{fill:#ffeec8}.st3{fill:#f6cc4b}.st4{fill:#231f20}.st5,.st6,.st7{fill:none;stroke:#231f20;stroke-width:7;stroke-linecap:round;stroke-miterlimit:10}.st6,.st7{stroke-width:14}.st7{stroke-width:6.75}</style><path class="st0" d="M449.2 366.8l2 2.2 1.3 1.3 1.2 1 1.5 1 1.5.7 2 .8 2.3.2.5.8-1.8.7-2.5.8-3.2.5-4.3.2-9.7.3h-12l-14.5-.3-.3-.2-.2-.5-.3-1v-.5l.3-.8.5-.7.7-.8 1.3-1 1.5-1 1.7-1 2.5-1.2 6.3-2.3 3.2-1.5 3.5-1.2 6-3.3 5.5-3.2 4.8-3-.8 2-1 3.7-.2 2v2l.2 1.8.3.7z"/><path class="st1" d="M461 367.5h1l1.3-.5 1-.8.8-.8.8-1.3.5-1.3.3-1.3v-1.3l-.3-1.5-.3-1.3-.8-1.3-.8-1-.8-.8-1-.8-1.3-.3h-2.3l-1.3.5-.8.8-1 1-.5 1-.5 1.3-.3 1.3-.3 1.5.3 1.3.5 1.3.5 1.3.8 1 1 .8 1 .8 1 .3 1.5.1zm-.5-22.2l1.5 1.8 1.5 2.3 1.5 2.8 1.3 3.5.3 1.8.5 2v4l-.5 2.3-.5 2.3-1.5 3.5-1 2-.8.5v.3l-1.3.8-.5-1.2-2.3-.3-2-.8-1.5-.8-1.5-1-1.3-1-1.3-1.3-2-2.3-.1-.5-.3-.8-.3-1.8v-2l.3-2 1-3.8.8-2 4.3-3.3 3.3-2.8 2.4-2.2zM461.7 625.5l44.3 50.3-424.8 56 1.5-4.5 2-4.3 2-4 2.3-4 2.5-3.7 2.5-3.8 2.7-3.7 3-3.5 3.3-3.3 3.2-3.2 3.5-3.3 3.8-3 7.5-6 8.2-5.7 8.5-5.3 9-5.2 9.3-5 9.5-4.8 19.2-9.2 19.8-9.3 8-3.5 4-2 4-1.7 3.7-2.3 3.5-2.2 3.3-2.8 3-3 2 .3 1.2 1 3.5 2.7 6 4.3 7.8 5.5 4.7 2.7 5.3 3 5.5 3 6 3 6.5 3 6.7 3 7.3 2.5 7.5 2.5 7.7 2 8.3 1.8 8.5 1.5 8.7 1 9 .2h9l4.8-.5 4.7-.2 4.8-.8 5-.7 4.7-1 5-1.3 4.8-1.2 5-1.8 5.2-1.7 5-2 5-2.3 5.3-2.5 5-2.5 5.2-3 5-3.2 5.3-3.5 5.2-3.5 5.3-4 5.2-4.3 5.3-4.7 2.2-.8 1.5 4.3z"/><path class="st2" d="M450.5 353.8l-4.8 3-5.5 3.3-6 3.3-3.5 1.3-3.3 1.5-6.3 2.3-2.5 1.3-1.8 1-1.5 1-1.3 1-.8.8-.2.4-.3.8v.5l.3 1 .3.5.3.3 14.5.3h12l9.8-.3 4.3-.3 3.3-.5 2.5-.8 1.8-.8 1.3-.8v-.3l.8-.5 1-2 1.5-3.5.5-2.3.5-2.3v-4l-.5-2-.3-1.8-1.6-3.2-1.5-2.8-1.5-2.2-1.5-1.8-2.5 2.5-3.3 2.8-4.2 3.3zm29.7 220.7l-4.3 1-3.8 1.3-3.5 1.8-1.5.8-1.3 1-2.3 2-2 2-1.8 2.3-1.3 2.3-1.3 2.3-.8 2.3-.8 2.3-.5 2.3-.3 2.5v4.8l.5 2.5 1 4.8 1.5 4.8-2.3.8-5.3 4.8-5.3 4.3-5.3 4-5.3 3.5-5.3 3.5-5 3.3-5.3 3-5 2.5-5.3 2.5-5 2.3-5 2-4.3.9-5 1.8-4.8 1.3-5 1.3-4.8 1-5 .8-4.8.8H360l-4.8.5h-9l-9-.3-8.8-1-8.5-1.5-8.3-1.8-7.8-2-7.5-2.5-7.3-2.5-6.8-3-6.5-3-6-3-5.5-3-5.3-3-4.8-2.8-7.8-5.5-6-4.3-3.5-2.8-1.3-1-2-.3 2.3-3 2.3-3.8 1.5-3.8 1.3-4.8.8-4.5.5-4.8v-4.8l-.3-4.8-.5-5-.8-4.8-2-9.8-2.5-9.8-2.3-9.5-2.3-9.3-.8-4.5-.5-4.3 1.8-.8 1.8-.8 1.3-1 1.3-1.3 1-1.3.8-1.3.8-1.5.5-1.8 1-4 1-4.3 1.3-5 1.5-5.8 10.8-35.3-1.3-4-1.8-3.8-2-3.5-2.3-3.3-2.3-3.3-2.4-1.8-5.3-6.3-5.5-6.5-2.5-3.5-2.5-3.5-2.3-3.8-2-3.8-1.5-4.3-1.4-4.3-1-5-.5-5.3-.3-4.8.3-4.5.8-4.3 1.3-4.3 1.5-4 1.8-3.5 2.3-3.5 2.5-3.3 2.8-3 3-2.8 3.3-2.5 3.3-2.5 3.8-2 3.8-1.8 3.8-1.5 3.5-.8 3.3-.3 3 .3 2.8.8 2.8 1.3 2.3 1.8 2.5 2.3 2.3 2.3 2 2.8 2 3.3 2 3.3 3.8 7.5 4 8 .3 2.3.8 1.5.3.8.8.5.5.5h1l1-.3 1-.8 1.5-1.5 1.5-1.8 1.8-2.5 2-3.5 2-3.8 1.8-4 1.3-4.3 1.3-4.5 1-4.8.8-4.8 1.3-10 .8-10 1-10.3 1-10 .5-5 .8-4.8.5-2.3.8-2 .8-2 .8-1.8 1-1.5 1-1.3 1.3-1.3 1.3-1 1.3-1 1.5-.8 3.5-1.5 3.8-1 4.3-.8 4.8-.5 5.5-.5 11.8-.8 6.8-.8 7.3-.8 7.8-1 8.3-1.5 15.5-3 13.3-2 9.1-.7 9.8-1.5 4.3-1 4.3-1 4-1.3 4-1.3 3.8-1.8 4-2 4-2.5 4-2.8 4.8-3.8 4.3-4 3.5-4.3 3.3-4.3 1.5.3 3 2.5 2.8 2.5 2.5 3 2.5 3.8 2 4.3 2.3 5.5 2 6.8 2 8.3 1.3 6.3.8 5.8.5 5v4.8l-.3 4.8-.5 5-1 11.5-.3 5.8-.3 5.3.3 2.8.3 2.5.5 2.5.8 2.5.8 2.3 1 2.5 1.5 2.5 1.5 2.5 1.8 2.8 2.3 2.5 2.5 2.8 2.8 2.8 11.8 11 8.3 7.3 6.8 6 7.3 5.8 1.8 1.8 1.3 2 1.3 2 .8 2 .3 2 .3 2-.3 2-.3 2-.8 2-.8 1.8-.8 1.8-1.3 1.5-1 1.5-1.3 1-1.5 1-1.3.5-6 2-3 1-3.8.5-8.8 1.5-1 .5-1 .8-1 1-.8 1.5-.8 1.5-.5 1.8-.3 1.8-.3 2v4l.3 1.8.5 2 .5 1.8.8 1.5.8 1.3 1 1.3 4 3.5 1.8 1.8.8 1 .5.8.3 1v1l-.3.8-.5 1-.8.8-1.3 1-1.8 1-2 .8-6.3 2.8-5.5 2.8-5.5 2.8-5.3 3-5.8 3.5-5.8 3.8-14 9.3 6 2.3 14.3 4.8 8.3 2.8 8.5 2.3 7.8 2 3.5.8 3 .5-1.3 5.5-1.8 8-.8 4.3-.3 4v3.3l.3 1.5.3 1.3 1 2.8.5 3.5.3 4v2.3l-.3 2-1 .2-.5 2.3-1 2.3-1 2-1 2.3-1.5 2-1.8 1.8-2 1.8-4.2 1.5-5 2.3-6.8 2.3-3.5 1-3.5 1-7.5 1.5-6.5 1-4 .4z"/><path class="st3" d="M230.7 528.8l-2 .5-2.2.2-5 .5h-4l-3.5-.2-3.5-.5-3-.8-3.3-1.2-3.2-1.8-3.3-2-3.2-2.2-3.5-3-3.8-3.3-8.5-8-22.7-22.2-4-3.8-3.5-4-3.5-4-3.3-4.2-3-4.3-3-4.2-2.7-4.3-2.5-4.5-5-9-4-9-3.8-9.2-3.2-9-2.8-9-2.5-8.8-2-8.5-1.7-8-2.8-14.5-2-12.2-.7-6-.5-6.8-.5-7.2-.5-8.3-.3-8.5.3-9 .2-9 .5-9.5.8-9.2 1.2-9.3 1.5-9 1.8-8.5 2.2-8.2 1.3-3.8 1.2-3.7 1.5-3.5 1.5-3.5 1.8-3 1.7-3 7.3-10.8 7-9.7 6.5-8.5 6-7.5 8.5-10.3 3.5-3.5 2.7-2.7 8.3-6.8 5.5-4.5 6.7-5 7.3-5.2 8-5.8 8.7-5.5 9-5.5 9.3-5 9.5-4.7 4.7-2 4.8-2 4.7-1.5 4.8-1.5 4.5-1.3 4.7-.7 4.5-.8 4.3-.2 17.2-.5 16.8-.8 16.2-.7 15.5-.3 7.5.3 7.3.2 7 .8 7 .7 6.5 1.3 6.2 1.5 6 2 5.8 2.2 5.7 3 6.3 3.3 6.5 4 6.5 4.2 7 4.5 6.7 4.8 7 5 6.8 5.2 13.2 10.5 12 10.5 5.3 5 5 4.5 4.5 4.5 3.7 4 2.3 2.8 1.7 2.7 1.8 2.8 1.2 3 1.3 2.7.7 3 .5 2.8.3 3v3l-.3 3-.5 2.7-.7 3-1 2.8-1.3 2.7-1.2 3-1.8 2.8-3.2 4.2-3.5 4.3-4.3 4-4.7 3.7-4 2.8-4 2.5-4 2-3.8 1.7-4 1.3-4 1.2-4.2 1-4.3 1-9.7 1.5-11.3 1.5-13.2 2-15.5 3-8.3 1.5-7.7 1-7.3.8-6.7.7-11.8.8-5.5.5-4.7.5-4.3.7-3.7 1-3.5 1.5-1.5.8-1.3 1-1.2 1-1.3 1.2-1 1.3-1 1.5-.7 1.7-.8 2-.7 2-.5 2.3-.8 4.7-.5 5-1 10-1 10.3-.7 10-1.3 10-.7 4.7-1 4.8-1.3 4.5-1.2 4.2-1.8 4-2 3.8-2 3.5-1.7 2.5-1.5 1.7-1.5 1.5-1 .8-1 .2h-1l-.5-.5-.8-.5-.2-.7-.8-1.5-.2-2.3-4-8-3.8-7.5-2-3.2-2-3.3-2-2.7-2.2-2.3-2.5-2.2-2.3-1.8-2.7-1.2-2.8-.8-3-.2-3.2.2-3.5.8-3.8 1.5-3.7 1.7-3.8 2-3.2 2.5-3.3 2.5-3 2.8-2.7 3-2.5 3.2-2.3 3.5-1.7 3.5-1.5 4-1.3 4.3-.7 4.2-.3 4.5.3 4.8.5 5.2 1 5 1.5 4.5 1.5 4.3 2 3.7 2.2 3.8 2.5 3.5 2.5 3.5 5.5 6.5 5.3 6.2 2.7 3.3 2.3 3.2 2.2 3.3 2 3.5 1.8 3.7 1.2 4-10.7 35.3-1.5 5.7-1.3 5-1 4.3-1 4-.5 1.7-.7 1.5-.8 1.3-1 1.2-1.2 1.3-1.3 1-1.7.7z"/><path class="st4" d="M466.5 360.5v1.3l-.3 1.2-.5 1.3-.7 1.2-.8.8-1 .7-1.2.5h-2.3l-1-.2-1-.8-1-.7-.7-1-.5-1.3-.5-1.2-.3-1.3.3-1.5.2-1.2.5-1.3.5-1 1-1 .8-.7 1.2-.5h2.3l1.2.2 1 .8.8.7.7 1 .8 1.3.2 1.2z"/><path class="st5" d="M461.5 374.8l1.2-.8v-.2l.8-.5 1-2 1.5-3.5.5-2.3.5-2.2v-4l-.5-2-.3-1.8-1.2-3.5-1.5-2.7-1.5-2.3-1.5-1.7-2.5 2.5-3.3 2.7-4.2 3.3-4.8 3-5.5 3.2-6 3.3-3.5 1.2-3.2 1.5-6.3 2.3-2.5 1.2-1.7 1-1.5 1-1.3 1-.7.8-.5.7-.3.8v.5l.3 1 .2.5.3.2 14.5.3h12l9.7-.3 4.3-.2 3.2-.5 2.5-.8z"/><path class="st6" d="M473.2 321.3l-.7-.5-2.3-.5-3.5-.8-5.2-.5h-3l-3.8.3-3.7.2-4.5.8-4.8 1-5 1.2-5.5 1.5-6 2-7 2.8-6 2.7-5.2 3-4.8 3-4.2 3-3.8 2.8-3.2 3-2.8 2.7"/><path class="st7" d="M450.5 353.5v.3l-.8 2-1 3.7-.2 2v2l.2 1.8.3.7.2.8 2 2.2 1.3 1.3 1.2 1 1.5 1 1.5.7 2 .8 2.3.2"/><path class="st6" d="M484.7 239.8l-3.2 4.2-3.5 4.3-4.3 4-4.7 3.7-4 2.8-4 2.5-4 2-3.8 1.7-4 1.3-4 1.2-4.2 1-4.3 1-9.7 1.5-11.3 1.5-13.2 2-15.5 3-8.3 1.5-7.7 1-7.3.8-6.7.7-11.8.8-5.5.5-4.7.5-4.3.7-3.7 1-3.5 1.5-1.5.8-1.3 1-1.2 1-1.3 1.2-1 1.3-1 1.5-.7 1.7-.8 2-.7 2-.5 2.3-.8 4.7-.5 5-1 10-1 10.3-.7 10-1.3 10-.7 4.7-1 4.8-1.3 4.5-1.2 4.2-1.8 4-2 3.8-2 3.5-1.7 2.5-1.5 1.7-1.5 1.5-1 .8-1 .2h-1l-.5-.5-.8-.5-.2-.7-.8-1.5-.2-2.3-4-8-3.8-7.5-2-3.2-2-3.3-2-2.7-2.2-2.3-2.5-2.2-2.3-1.8-2.7-1.2-2.8-.8-3-.2-3.2.2-3.5.8-3.8 1.5-3.7 1.7-3.8 2-3.2 2.5-3.3 2.5-3 2.8-2.7 3-2.5 3.2-2.3 3.5-1.7 3.5-1.5 4-1.3 4.3-.7 4.2-.3 4.5.3 4.8.5 5.2 1 5 1.5 4.5 1.5 4.3 2 3.7 2.2 3.8 2.5 3.5 2.5 3.5 5.5 6.5 5.3 6.2 2.7 3.3 2.3 3.2 2.2 3.3 2 3.5 1.8 3.7 1.2 4-10.7 35.3-1.5 5.7-1.3 5-1 4.3-1 4-.5 1.7-.7 1.5-.8 1.3-1 1.2-1.2 1.3-1.3 1-1.7.7-1.8.8-2 .5-2.2.2-5 .5h-4l-3.5-.2-3.5-.5-3-.8-3.3-1.2-3.2-1.8-3.3-2-3.2-2.2-3.5-3-3.8-3.3-8.5-8-22.7-22.2-4-3.8-3.5-4-3.5-4-3.3-4.2-3-4.3-3-4.2-2.7-4.3-2.5-4.5-5-9-4-9-3.8-9.2-3.2-9-2.8-9-2.5-8.8-2-8.5-1.7-8-2.8-14.5-2-12.2-.7-6-.5-6.8-.5-7.2-.5-8.3-.3-8.5.3-9 .2-9 .5-9.5.8-9.2 1.2-9.3 1.5-9 1.8-8.5 2.2-8.2 1.3-3.8 1.2-3.7 1.5-3.5 1.5-3.5 1.8-3 1.7-3 7.3-10.8 7-9.7 6.5-8.5 6-7.5 8.5-10.3 3.5-3.5 2.7-2.7 8.3-6.8 5.5-4.5 6.7-5 7.3-5.2 8-5.8 8.7-5.5 9-5.5 9.3-5 9.5-4.7 4.7-2 4.8-2 4.7-1.5 4.8-1.5 4.5-1.3 4.7-.7 4.5-.8 4.3-.2 17.2-.5 16.8-.8 16.2-.7 15.5-.3 7.5.3 7.3.2 7 .8 7 .7 6.5 1.3 6.2 1.5 6 2 5.8 2.2 5.7 3 6.3 3.3 6.5 4 6.5 4.2 7 4.5 6.7 4.8 7 5 6.8 5.2 13.2 10.5 12 10.5 5.3 5 5 4.5 4.5 4.5 3.7 4 2.3 2.8 1.7 2.7 1.8 2.8 1.2 3 1.3 2.7.7 3 .5 2.8.3 3v3l-.3 3-.5 2.7-.7 3-1 2.8-1.3 2.7-1.2 3z"/><path class="st6" d="M230.2 522.5v3l.5 3.3.5 4.2.8 4.5 2.2 9.3 2.3 9.5 2.5 9.7 2 9.8.7 4.7.5 5 .3 4.8v4.7l-.5 4.8-.8 4.5-1.2 4.7-1.5 3.8-2.3 3.7-2.2 3-3 3-3.3 2.8-3.5 2.2-3.7 2.3-4 1.7-4 2-8 3.5-19.8 9.3-19.2 9.2-9.5 4.8-9.3 5-9 5.2-8.5 5.3-8.2 5.7-7.5 6-3.8 3-3.5 3.3-3.2 3.2-3.3 3.3-3 3.5-2.7 3.7-2.5 3.8L89 715l-2.3 4-2 4-2 4.3-1.5 4.5-1.5 5M480.2 574.5l2-.2M506 675.8l-44.3-50.3-2-4.2-1.5-4.3-1.5-4.7-1-4.8-.5-2.5v-4.7l.3-2.5.5-2.3.7-2.2.8-2.3 1.2-2.2 1.3-2.3 1.7-2.2 2-2 2.3-2 1.2-1 1.5-.8 3.5-1.7 3.8-1.3 4.2-1"/><path class="st6" d="M385.7 578.3l9 .5 10 .2 12.8.3 14.5-.3 7.7-.2 8-.5 8-.5 8.3-.8 8-1 7.7-1.2.5-.3 4-.5 6.5-1 7.5-1.5 3.5-1 3.5-1 6.8-2.2 5-2.3 4.2-1.7 2-1.8 1.8-1.7 1.5-2 1-2.3 1-2 1-2.2.5-2.3.5-2.2.2-2v-2.3l-.2-4-.5-3.5-1-2.7-.3-1.3-.2-1.5v-3.2l.2-4 .8-4.3 1.7-8 1.3-5.5-3-.5-3.5-.7-7.8-2-8.5-2.3-8.2-2.7-14.3-4.8-6-2.2 14-9.3 5.8-3.7 5.7-3.5 5.3-3 5.5-2.8 5.5-2.7 6.2-2.8 2-.7 1.8-1 1.2-1 .8-.8.5-1 .2-.7v-1l-.2-1-.5-.8-.8-1-1.7-1.7-4-3.5-1-1.3-.8-1.2-.7-1.5-.5-1.8-.5-2-.3-1.7v-4l.3-2 .2-1.8.5-1.7.8-1.5.7-1.5 1-1 1-.8 1-.5 8.8-1.5 3.7-.5 3-1 6-2 1.3-.5 1.5-1 1.2-1 1-1.5 1.3-1.5.7-1.7.8-1.8.7-2 .3-2 .2-2-.2-2-.3-2-.7-2-1.3-2-1.2-2-1.8-1.7-7.2-5.8-6.8-6-8.2-7.2-11.8-11-2.7-2.8-2.5-2.7-2.3-2.5-1.7-2.8-1.5-2.5-1.5-2.5-1-2.5-.8-2.2-.7-2.5-.5-2.5-.3-2.5-.2-2.8.2-5.2.3-5.8 1-11.5.5-5 .2-4.7v-4.8l-.5-5-.7-5.7-1.3-6.3-2-8.2-2-6.8-2.2-5.5-2-4.2-2.5-3.8-2.5-3-2.8-2.5-3-2.5M573 449.3l177.7-120.5M573 506.8l196 85.7M236 619.8l1.2 1 3.5 2.7 6 4.3 7.8 5.5 4.7 2.7 5.3 3 5.5 3 6 3 6.5 3 6.7 3 7.3 2.5 7.5 2.5 7.7 2 8.3 1.8 8.5 1.5 8.7 1 9 .2h9l4.8-.5 4.7-.2 4.8-.8 5-.7 4.7-1 5-1.3 4.8-1.2 5-1.8 5.2-1.7 5-2 5-2.3 5.3-2.5 5-2.5 5.2-3 5-3.2 5.3-3.5 5.2-3.5 5.3-4 5.2-4.3 5.3-4.7"/></svg>