<svg xmlns="http://www.w3.org/2000/svg" width="850.394" height="850.394" viewBox="0 0 850.394 850.394" overflow="visible"><path d="M728.45 364.32c27.97 13.47 32.939 30.39 23.5 44.58l-71.48 1.37-96.29 1.84-19.93.38c.92-6.03 1.4-12.2 1.4-18.47 0-6.52-.511-12.93-1.511-19.19l11.67-2.62 93.971-21.1 9.569-2.15c19.341 4.36 36.871 9.47 49.101 15.36z" fill="#eedceb"/><path d="M625.44 447.87c-23.391 1.6-47.15 1.31-71.91-.75 5.21-10.84 8.87-22.47 10.72-34.63l19.93-.38 96.29-1.84 71.48-1.37c-6.8 10.23-21.09 19.05-39.66 24.14-29.17 7.99-57.72 12.87-86.85 14.83z" fill="#eedceb"/><path d="M544.2 476.33l-6.21-4.55c5.08-6.351 9.56-13.141 13.34-20.3l21.37 4.449 79.37 16.53c23.89 22.83 48.46 48.76 60.37 68.82 27.239 45.939-7.851 62.72-51.511 48.29-20.25-6.7-56.949-26.78-82.149-40.49-3.09-1.68-6.011-3.271-8.71-4.72l-.12.04c-6.771-21.87-16.09-44.57-28.62-64.16l2.87-3.909z" fill="#fff"/><path d="M679.35 348.96l-9.569 2.15-93.971 21.1-11.67 2.62c-1.84-11.62-5.33-22.73-10.239-33.13l15.68-8.37 2.31-1.23c5.67.62 12.221 1.38 19.4 2.27 25.499 3.16 58.849 8.01 88.059 14.59zM626.45 144.47c41.27-21.72 57.92 2.91 50.39 38.06l-53.8 46.69-72.73 63.13-18.84 16.35c-8.08-8.66-17.359-16.33-27.6-22.77l14.45-18.85 58.6-76.43 18.54-24.19c11.25-9.43 21.89-17.2 30.99-21.99z" fill="#eedceb"/><path d="M623.04 229.22l53.8-46.69c-1.09 5.09-2.689 10.4-4.8 15.83-16.56 42.68-38.01 79.97-66.24 115.64l-33.91 18.1c-13.319-1.46-21.72-2.19-21.72-2.19l-2.28.55c-4.68-7.78-10.189-15.06-16.42-21.76l18.84-16.35 72.73-63.13z" fill="#eedceb"/><path d="M652.07 472.46l-79.37-16.53-21.37-4.449c.77-1.44 1.5-2.891 2.2-4.36 24.76 2.06 48.52 2.35 71.91.75 8.26 7.389 17.39 15.759 26.63 24.589zM595.46 166.46l-18.54 24.19-58.6 76.43-14.45 18.85c-5.23-3.29-10.7-6.26-16.4-8.88l1.23-3.12 1.78.7s26.529-31.49 58.3-64.09c15.14-15.54 31.47-31.32 46.68-44.08z" fill="#fff"/><path d="M576.32 567.56c7.35 30.36 9.779 55.94 9.37 64.45-1.15 24.04-10.011 35.51-21.74 37.2l-27.32-48.61-47.189-83.97-12.061-21.46c12.53-4.65 24.17-10.939 34.62-18.57l18.02 19.881 46.3 51.079z" fill="#eedceb"/><path d="M576.32 567.56l-46.3-51.08L512 496.6c9.8-7.17 18.55-15.52 25.99-24.819l6.21 4.55-2.87 3.91c12.53 19.59 21.85 42.29 28.62 64.16a376.12 376.12 0 0 1 6.37 23.159z" fill="#eedceb"/><path d="M564.14 374.83c1 6.26 1.511 12.67 1.511 19.19 0 6.27-.48 12.44-1.4 18.47l-46.66.89-.04-2.23c.11 0 .23 0 .34-.02 4.15-.61 5.94-12.36 4.25-26.86l41.999-9.44z" fill="#8c469b"/><path d="M553.53 447.12c-.7 1.47-1.431 2.92-2.2 4.36l-56.14-11.7c5.8-3.561 9.52-9.061 9.52-15.23 0-4.01-1.58-7.74-4.28-10.84l17.16-.33 46.66-.89c-1.85 12.16-5.51 23.79-10.72 34.63zM564.14 374.83l-42 9.44c-.12-1-.25-2.01-.399-3.03-1.13-7.75-3.01-14.65-5.16-19.61l37.32-19.93c4.909 10.4 8.399 21.51 10.239 33.13z" fill="#8c469b"/><path d="M536.63 620.6l27.32 48.61c-12.3 1.78-27.79-7.19-40.891-23.69-5.13-6.47-25.649-35.689-46.31-68.689-11.14-17.8-22.32-36.7-31.16-53.73a147.347 147.347 0 0 0 31.79-7.93l12.061 21.46 47.19 83.969z" fill="#eedceb"/><path d="M553.9 341.7l-37.32 19.93c-2.26-5.2-4.811-8.26-7.09-7.93-2.851.41-4.59 6.09-4.84 14.3l-18.11 9.66a64.727 64.727 0 0 0-9.72-21.54l.05-.03 54.6-47.39c6.23 6.7 11.74 13.98 16.42 21.76 2.19 3.64 4.2 7.39 6.01 11.24zM496.54 441.41l-1.83-1.34c.16-.09.32-.19.48-.29l56.14 11.7c-3.78 7.159-8.26 13.949-13.34 20.3l-41.45-30.37z" fill="#8c469b"/><path d="M545.63 208.31l3.15 2.23c-31.771 32.6-58.3 64.09-58.3 64.09l-1.78-.7 9.49-24.11 35.3-89.61 5.58-14.17c2.8 6.77 4.66 14.92 5.38 23.99 1.02 12.94 1.41 25.66 1.18 38.28z" fill="#fff"/><path d="M456.15 236.35l.8-5.25 7.38-48.56c6.72-14.22 13.74-27.04 20.62-36.27 22.95-30.79 44.28-24.09 54.12-.23l-5.58 14.17-35.3 89.61-9.49 24.11-1.23 3.12a146.762 146.762 0 0 0-35.8-11.17l4.48-29.53z" fill="#fff"/><path d="M496.54 441.41l41.45 30.37c-7.44 9.3-16.19 17.649-25.99 24.819l-47.29-52.17-.49-.62c.931-.739 1.83-1.52 2.71-2.319 3.681 1.63 7.95 2.55 12.49 2.55 5.66 0 10.89-1.43 15.1-3.85l2.02 1.22zM462.94 339.31l14.579-19.01c4.141-.14 6.891-1.11 7.471-2.92.39-1.26-.29-2.78-1.851-4.42l20.73-27.03c10.24 6.44 19.52 14.11 27.6 22.77l-54.6 47.39-.05.03a65.248 65.248 0 0 0-14.971-15.38l1.092-1.43z" fill="#8c469b"/><path d="M522.14 384.27c1.69 14.5-.1 26.25-4.25 26.86-.109.02-.229.02-.34.02-3.979 0-8.68-9.95-11.2-23.33l15.79-3.55z" fill="#abd153"/><path d="M522.14 384.27l-15.79 3.55c-.26-1.37-.5-2.79-.71-4.23-.83-5.67-1.14-11.02-.989-15.59l11.93-6.37c2.15 4.96 4.03 11.86 5.16 19.61.149 1.02.279 2.03.399 3.03z" fill="#abd153"/><path d="M517.55 411.15l.04 2.23-17.16.33c-3.14-3.61-7.8-6.36-13.279-7.71.83-4.14 1.26-8.43 1.26-12.81 0-.45 0-.89-.021-1.34l17.96-4.03c2.52 13.38 7.22 23.33 11.2 23.33zM516.58 361.63L504.65 368c.25-8.21 1.989-13.89 4.84-14.3 2.28-.33 4.83 2.73 7.09 7.93zM464.71 444.43L512 496.6c-10.45 7.631-22.09 13.92-34.62 18.57l-13.72-24.42c7.66-3.66 12.31-8.32 11.47-12.35-1.05-5.011-10.28-7.53-22.09-6.561l-9.44-16.8a64.744 64.744 0 0 0 20.62-11.23l.49.621zM503.87 285.93l-20.73 27.03c-1.649-1.75-4.29-3.65-7.649-5.5l11.979-30.41c5.7 2.62 11.17 5.59 16.4 8.88z" fill="#8c469b"/><path d="M500.43 413.71c2.7 3.1 4.28 6.83 4.28 10.84 0 6.17-3.72 11.67-9.52 15.23l-1.21-.25-15.69-11.49c2.88-4.53 5.22-9.43 6.91-14.63l1.75.56 13.48-.26z" fill="#abd153"/><path d="M500.43 413.71l-13.479.26-1.75-.56c.79-2.41 1.439-4.88 1.95-7.41 5.479 1.35 10.139 4.1 13.279 7.71z" fill="#abd153"/><path d="M495.19 439.78c-.16.1-.32.2-.48.29l-.729-.54 1.209.25zM493.98 439.53l.729.54c-.06.04-.12.08-.19.12l-1.369-.83.83.17z" fill="#fff"/><path d="M493.15 439.36l1.369.83c-4.21 2.42-9.439 3.85-15.1 3.85-4.54 0-8.81-.92-12.49-2.55a65.11 65.11 0 0 0 10.261-11.771l15.96 9.641zM493.98 439.53l-.83-.17-15.96-9.641c.38-.56.75-1.12 1.1-1.68l15.69 11.491z" fill="#abd153"/><path d="M423.68 393.8l64.31-8.01c.229 1.99.37 4.01.399 6.06.021.45.021.89.021 1.34 0 4.38-.43 8.67-1.26 12.81-2.44-.6-5.03-.93-7.73-.93-10.47 0-19.47 4.91-23.31 11.91l-31.13-18.81-2.61.75-.7-2.41-.49-1.55-.2-.63.96-.31 1.74-.22z" fill="#ffffc2"/><path d="M461.85 340.74a65.267 65.267 0 0 1 14.971 15.38 64.727 64.727 0 0 1 11.17 29.67l-64.31 8.01 21.51-61.92a64.964 64.964 0 0 1 16.659 8.86z" fill="#ffffc2"/><path d="M487.47 277.05l-11.979 30.41c-4.26-2.37-9.681-4.68-15.721-6.59-4.569-1.45-8.97-2.5-12.939-3.15l4.84-31.84a146.781 146.781 0 0 1 35.799 11.17z" fill="#8c469b"/><path d="M478.29 428.04c-.35.56-.72 1.12-1.1 1.68l-21.08-12.74c3.84-7 12.84-11.91 23.31-11.91 2.7 0 5.29.33 7.73.93-.511 2.53-1.16 5-1.95 7.41-1.69 5.2-4.03 10.1-6.91 14.63z" fill="#abd153"/><path d="M483.14 312.96c1.561 1.64 2.24 3.16 1.851 4.42-.58 1.81-3.33 2.78-7.471 2.92l5.62-7.34z" fill="#231f20"/><path d="M483.14 312.96l-5.62 7.34c-2.01.07-4.35-.05-6.939-.37l4.91-12.47c3.359 1.85 5.999 3.75 7.649 5.5z" fill="#abd153"/><path d="M477.52 320.3l-14.579 19.01 7.64-19.38c2.589.32 4.929.44 6.939.37zM445.59 523.1c-5.1.69-10.29 1.12-15.56 1.28l2.3-27.47c4.88.32 10.66-.101 16.729-1.37 5.48-1.14 10.48-2.82 14.601-4.79l13.72 24.42a147.405 147.405 0 0 1-31.79 7.93z" fill="#8c469b"/><path d="M456.11 416.98l21.08 12.74a65.138 65.138 0 0 1-10.261 11.771c-7.64-3.34-12.8-9.681-12.8-16.94.001-2.691.711-5.251 1.981-7.571z" fill="#abd153"/><path d="M476.75 576.83l-2.38 1.5c-5.39 37.65-13.67 69.42-15.98 78.53-7.27 28.649-24.89 45.699-42.52 36.76l4.01-47.84 8.03-95.98 2.12-25.42c5.27-.16 10.46-.59 15.56-1.28 8.84 17.03 20.02 35.93 31.16 53.73z" fill="#fff"/><path d="M475.49 307.46l-4.91 12.47c-4.64-.57-10.061-1.75-15.72-3.54-1.351-.43-2.681-.88-3.96-1.34a89.994 89.994 0 0 1-6.311-2.55l2.24-14.78c3.97.65 8.37 1.7 12.939 3.15 6.042 1.91 11.462 4.22 15.722 6.59zM475.13 478.4c.84 4.029-3.81 8.689-11.47 12.35l-10.62-18.91c11.81-.97 21.04 1.55 22.09 6.56z" fill="#abd153"/><path d="M470.58 319.93l-7.64 19.38-1.091 1.43a64.948 64.948 0 0 0-16.659-8.86l5.489-15.79.221-1.04c1.279.46 2.609.91 3.96 1.34 5.66 1.79 11.08 2.97 15.72 3.54z" fill="#8c469b"/><path d="M443.6 455.04c-1.39.46-2.8.87-4.229 1.229-7.43-23.619-17.5-55.1-18.53-55.62l-.34-1.19 1.87-.54 2.61-.75 31.13 18.81c-1.271 2.32-1.98 4.88-1.98 7.57 0 7.26 5.16 13.601 12.8 16.94-.88.8-1.779 1.58-2.71 2.319A64.747 64.747 0 0 1 443.6 455.04z" fill="#ffffc2"/><path d="M444.62 473.07a71.64 71.64 0 0 1 8.42-1.23l10.62 18.91c-4.12 1.97-9.12 3.65-14.601 4.79-6.069 1.27-11.85 1.69-16.729 1.37l1.729-20.82c3.131-1.189 6.61-2.2 10.311-2.97.08-.02.17-.03.25-.05z" fill="#abd153"/><path d="M450.36 214.84c2.08 7.05 4 14.21 5.79 21.51l-4.48 29.53c-8.55-1.51-17.38-2.3-26.4-2.3-2.5 0-4.99.06-7.46.18l-1.6-31.16-4.92-96.18-.8-15.61c17.08 29.95 30.08 60.73 39.87 94.03z" fill="#eedceb"/><path d="M444.59 312.5c1.97.89 4.08 1.74 6.311 2.55l-.221 1.04-5.489 15.79a64.501 64.501 0 0 0-11.641-2.97c-2.46-4.56-7.109-8.24-12.93-10.26l-2.81-54.89c2.47-.12 4.96-.18 7.46-.18 9.02 0 17.85.79 26.4 2.3l-4.84 31.84c-9.32-1.53-16.24-.85-17.19 2.16-1.02 3.24 5.22 8.28 14.95 12.62z" fill="#8c469b"/><path d="M446.83 297.72l-2.24 14.78c-9.729-4.34-15.97-9.38-14.95-12.62.95-3.01 7.87-3.69 17.19-2.16z" fill="#abd153"/><path d="M445.19 331.88l-21.51 61.92-1.74.22-.96.31-12.2-38.49c.47.03.94.04 1.42.04 13.97 0 25.29-8.72 25.29-19.48 0-2.66-.69-5.19-1.94-7.49 4.01.63 7.91 1.64 11.64 2.97zM435.65 457.1c-3.99.771-8.11 1.17-12.331 1.17-4 0-7.92-.359-11.73-1.06-5.01-.91-9.82-2.39-14.35-4.39-2.13-.92-4.19-1.96-6.18-3.101-4.69-2.68-9-5.92-12.86-9.63 4.13-4.979 8.94-10.77 13.63-16.38 2.99-2.15 5.3-4.86 6.65-7.92 4.67-5.56 8.78-10.37 11.32-13.24l10.7-3.09.34 1.19c1.03.52 11.101 32 18.53 55.62a56.425 56.425 0 0 1-3.719.831z" fill="#ffffc2"/><path d="M412 523.88c-7.02-.61-13.89-1.7-20.57-3.229l20.16-63.44c3.81.7 7.73 1.06 11.73 1.06 4.22 0 8.34-.399 12.331-1.17l-1.591 18.99c-10.149 3.83-16.74 9.43-15.75 14.17.79 3.79 6.28 6.15 14.02 6.65l-2.3 27.47c-1.58.061-3.17.08-4.76.08-4.48-.001-8.9-.191-13.27-.581z" fill="#8c469b"/><path d="M434.06 476.09l-1.729 20.82c-7.74-.5-13.23-2.86-14.02-6.65-.991-4.74 5.599-10.34 15.749-14.17zM421.11 328.15a65.083 65.083 0 0 1 12.44.76c1.25 2.3 1.94 4.83 1.94 7.49 0 10.76-11.32 19.48-25.29 19.48-.48 0-.95-.01-1.42-.04l-7.57-23.88a43.1 43.1 0 0 1 2.01-.68 64.472 64.472 0 0 1 17.89-3.13z" fill="#abd153"/><path d="M430.03 524.38l-2.12 25.42-8.03 95.98-4.01 47.84c-6.92-3.5-13.84-11.01-20.14-23.4-9.29-18.239-17.09-47.729-23.04-75.95l-1.59-1.119c15.13-21.221 28.57-44.101 40.9-69.271 4.37.39 8.79.58 13.27.58 1.59 0 3.18-.02 4.76-.08z" fill="#fff"/><path d="M420.62 318.65c5.82 2.02 10.47 5.7 12.93 10.26a65.083 65.083 0 0 0-12.44-.76l-.49-9.5z" fill="#abd153"/><path d="M409.8 402.55l-10.48 3.02c-2.36-8.88-12.56-15.56-24.77-15.56-6.21 0-11.9 1.72-16.29 4.59-.01-.47-.02-.94-.02-1.41 0-4.86.53-9.6 1.55-14.16 1.08-4.92 2.73-9.62 4.87-14.05l4.5.85 49.75 29.85 2.27-.72.49 1.55.7 2.41-1.87.54-10.7 3.09z" fill="#ffffc2"/><path d="M370 359.3l-1.4-1.35a65.48 65.48 0 0 1 15.78-16.91c.34-.25.68-.5 1.03-.75 2.25 8.55 11.76 15.06 23.37 15.55l12.2 38.49.2.63-2.27.72-49.75-29.85-4.5-.85c1.09-2.27 2.31-4.47 3.65-6.58l1.69.9z" fill="#ffffc2"/><path d="M420.62 318.65l.49 9.5c-6.23.2-12.23 1.29-17.89 3.13l-4.8-12.12c3.52-1.43 7.53-2.24 11.78-2.24 3.71 0 7.24.62 10.42 1.73z" fill="#abd153"/><path d="M417.81 263.76l2.81 54.89c-3.18-1.11-6.71-1.73-10.42-1.73-4.25 0-8.26.81-11.78 2.24l-19.18-48.41c12.18-3.92 25.12-6.33 38.57-6.99z" fill="#8c469b"/><path d="M416.21 232.6l1.6 31.16c-13.45.66-26.39 3.07-38.57 6.99l-11.07-27.92-35.49-89.53-6.07-15.31c-.25-12 .16-23 1.51-32.06 7.89-52.82 45.69-43.67 70.42-4.91 4.19 6.57 8.17 13.16 11.95 19.79l.8 15.61 4.92 96.18z" fill="#eedceb"/><path d="M411.59 457.21l-20.16 63.44c-11.76-2.71-22.92-6.78-33.3-12.04l16.03-28.681c8.1 5.82 15.02 8.46 17.26 6.09 2.5-2.67-1.67-10.85-9.63-19.72l1.64-2.939 13.56-9.971.25-.569c4.53 2 9.34 3.48 14.35 4.39z" fill="#8c469b"/><path d="M401.21 331.96l7.57 23.88c-11.61-.49-21.12-7-23.37-15.55a64.641 64.641 0 0 1 15.8-8.33zM398.42 319.16l4.8 12.12c-.68.21-1.35.44-2.01.68l-3.9-12.32c.36-.17.73-.33 1.11-.48z" fill="#abd153"/><path d="M397.31 319.64l3.9 12.32a64.641 64.641 0 0 0-15.8 8.33c-.33-1.26-.5-2.56-.5-3.89 0-7.13 4.97-13.37 12.4-16.76zM399.32 405.57a15.352 15.352 0 0 1-.84 10.22c-2.13 2.52-4.38 5.2-6.65 7.92-4.52 3.271-10.6 5.271-17.28 5.271-2.05 0-4.04-.19-5.95-.551a64.533 64.533 0 0 1-6.17-12.22l36.89-10.64zM399.32 405.57l-36.89 10.64c-1.63-4.3-2.81-8.82-3.49-13.5h-.01a63.66 63.66 0 0 1-.67-8.11c4.39-2.87 10.08-4.59 16.29-4.59 12.21 0 22.41 6.68 24.77 15.56z" fill="#abd153"/><path d="M397.31 319.64c-7.43 3.39-12.4 9.63-12.4 16.76 0 1.33.17 2.63.5 3.89-.35.25-.69.5-1.03.75l-.65-1.26-8.87-13.56-26.89-41.11c9.66-5.92 20.15-10.77 31.27-14.36l19.18 48.41c-.38.15-.75.31-1.11.48z" fill="#8c469b"/><path d="M398.48 415.79c-1.35 3.06-3.66 5.77-6.65 7.92 2.27-2.72 4.52-5.4 6.65-7.92z" fill="#fff"/><path d="M391.43 520.65a150.616 150.616 0 0 0 20.57 3.229c-12.33 25.17-25.77 48.05-40.9 69.271-1.59 2.239-3.2 4.46-4.84 6.659l16.37-51.479 8.8-27.68z" fill="#eedceb"/><path d="M381.79 466.3c7.96 8.87 12.13 17.05 9.63 19.72-2.24 2.37-9.16-.27-17.26-6.09l7.63-13.63z" fill="#abd153"/><path d="M391.43 520.65l-8.8 27.68-16.37 51.479c-16.61 22.421-35.23 43.011-56.56 62.561-17.11 15.67-35.49 23.2-48.72 20l38.8-69.36 46.98-84.069 11.37-20.33c10.38 5.259 21.54 9.329 33.3 12.039z" fill="#eedceb"/><path d="M391.06 449.72l-7.63 13.641-2.59 1.899a99.28 99.28 0 0 0-5.01-5.04 98.253 98.253 0 0 0-8.41-7.08c1.35-1.64 5.51-6.68 10.78-13.05 3.86 3.71 8.17 6.95 12.86 9.63z" fill="#8c469b"/><path d="M381.79 466.3l-7.63 13.63a88.452 88.452 0 0 1-6.38-5.069l13.06-9.601c.32.35.64.69.95 1.04z" fill="#abd153"/><path d="M367.42 453.14c2.73 2.04 5.58 4.42 8.41 7.08a99.28 99.28 0 0 1 5.01 5.04l-13.06 9.601a87.041 87.041 0 0 1-3.09-2.78c-8.6-8.07-14.65-16.47-16.01-21.65l8.3-3.6c3.02 1.299 6.62 3.469 10.44 6.309z" fill="#abd153"/><path d="M334.8 221.74c-3.91-26.18-7.64-57.39-8.19-83.75l6.07 15.31 35.49 89.53 11.07 27.92a145.247 145.247 0 0 0-31.27 14.36l-4.69-7.17 1.12-.73s-4.92-24.13-9.6-55.47z" fill="#eedceb"/><path d="M376.48 438.37l-19.5 8.46c-3.74-1.62-6.59-1.92-7.88-.55-.81.87-.92 2.31-.42 4.149l-39.4 17.101c-7.01-9.521-12.69-19.95-16.79-31.05l1.22-.45 58.81-16.96c3.4 4.63 9.19 8.09 16.08 9.36 2.3 3.57 4.94 6.9 7.88 9.94zM347.97 285.11l26.89 41.11-1.03.68c-.28-.43-.63-.75-1.04-.95-3.66-1.8-11.4 6.33-18.07 18.62l-36.39-35.07c8.58-9.36 18.56-17.58 29.64-24.39zM349.73 488.13l18.05-13.27c2.16 1.88 4.31 3.58 6.38 5.069l-16.03 28.681a141.562 141.562 0 0 1-19.76-12.13l11.36-8.35z" fill="#8c469b"/><path d="M373.83 326.9c2.45 3.76-.16 15.77-6.48 28.69l-.39.78-12.24-11.8c6.67-12.29 14.41-20.42 18.07-18.62.41.2.76.52 1.04.95z" fill="#abd153"/><path d="M367.78 474.86l-18.05 13.27a509.42 509.42 0 0 1-13.12 7.04c-10.48-7.939-19.69-17.25-27.33-27.64l39.4-17.101c1.36 5.181 7.41 13.58 16.01 21.65a85.17 85.17 0 0 0 3.09 2.781z" fill="#8c469b"/><path d="M354.72 344.57l12.24 11.8c-.17.35-.35.7-.53 1.04l-14.34-7.62c.2-.45.42-.9.64-1.35.65-1.33 1.32-2.62 1.99-3.87zM352.09 349.79l14.34 7.62c-4.7 9.17-10.11 16.34-14.3 19.36l-6.66-1.96c-.74-4.97 1.7-14.62 6.62-25.02z" fill="#abd153"/><path d="M362.43 416.21c1.63 4.31 3.7 8.4 6.17 12.22-6.89-1.27-12.68-4.729-16.08-9.36l9.91-2.86z" fill="#fff"/><path d="M362.43 416.21l-9.91 2.86c-2.08-2.83-3.26-6.09-3.26-9.57 0-2.47.6-4.83 1.68-7l6.89.37 1.1-.16h.01c.68 4.68 1.86 9.2 3.49 13.5z" fill="#abd153"/><path d="M284.97 389.36c.4-10.65 2.18-20.98 5.17-30.83l55.33 16.28c.25 1.65.85 2.79 1.82 3.27 1.22.6 2.9.09 4.84-1.31l7.66 2.26c-1.02 4.56-1.55 9.3-1.55 14.16 0 .47.01.94.02 1.41-3.23 2.09-5.77 4.8-7.32 7.9l-65.96-3.54c-.07-1.64-.1-3.29-.1-4.94 0-1.56.03-3.11.09-4.66z" fill="#8c469b"/><path d="M358.93 402.71l-1.1.16-6.89-.37c1.55-3.1 4.09-5.81 7.32-7.9.05 2.75.28 5.46.67 8.11z" fill="#fff"/><path d="M358.13 508.61l-11.37 20.33-46.98 84.069-38.8 69.36c-12.99-3.15-21.03-16.64-18.05-42.92 2.83-25.01 16.31-62.28 29.77-94.69l45.94-33.779 19.73-14.5c6.19 4.54 12.79 8.6 19.76 12.13z" fill="#eedceb"/><path d="M356.98 446.83l-8.3 3.6c-.5-1.84-.39-3.279.42-4.149 1.29-1.371 4.14-1.071 7.88.549z" fill="#231f20"/><path d="M318.33 309.5l36.39 35.07c-.67 1.25-1.34 2.54-1.99 3.87-.22.45-.44.9-.64 1.35l-46.16-24.51c3.71-5.55 7.86-10.82 12.4-15.78z" fill="#50264b"/><path d="M352.52 419.07l-58.81 16.96-1.22.45a121.504 121.504 0 0 1-7.51-37.521l65.96 3.54c-1.08 2.17-1.68 4.53-1.68 7 0 3.481 1.18 6.741 3.26 9.571z" fill="#8c469b"/><path d="M345.47 374.81l6.66 1.96c-1.94 1.4-3.62 1.91-4.84 1.31-.97-.48-1.57-1.62-1.82-3.27z" fill="#231f20"/><path d="M305.93 325.28l46.16 24.51c-4.92 10.4-7.36 20.05-6.62 25.02l-55.33-16.28c3.6-11.85 8.95-23.02 15.79-33.25z" fill="#8c469b"/><path d="M286.97 279.26l-39.72-38.28c-1.14-2.98-2.26-5.99-3.35-9.03-12.98-36.27-.4-66 36.58-50.01l50.01 76.45 12.79 19.55 4.69 7.17c-11.08 6.81-21.06 15.03-29.64 24.39l-17.57-16.94-13.79-13.3z" fill="#fff"/><path d="M344.4 277.21l-1.12.73-12.79-19.55-50.01-76.45a87 87 0 0 1 7.94 3.94c13.61 7.58 30.13 21.02 46.38 35.86 4.68 31.34 9.6 55.47 9.6 55.47z" fill="#fff"/><path d="M283.98 518.57c-27.37 10.149-55.42 17.41-85.3 22.09-18.68 2.92-35.06.87-45.49-5.38l48.45-21.03 88.35-38.35 19.29-8.37c7.64 10.39 16.85 19.7 27.33 27.64-17.47 9.06-34.91 16.84-52.63 23.4zM300.76 292.56l17.57 16.94c-4.54 4.96-8.69 10.23-12.4 15.78l-16.3-8.66-85.06-45.16-55.22-29.33c2.89-.11 5.99-.07 9.29.14 25.99 1.61 65.68 13.93 99.5 26.14 10.35 3.73 20.15 7.46 28.83 10.85l13.79 13.3z" fill="#eedceb"/><path d="M186.28 456.09c27.01-21.689 61.39-43.87 84.17-57.91l.08.01 14.45.77c.52 13.09 3.12 25.69 7.51 37.521 4.1 11.1 9.78 21.529 16.79 31.05l-19.29 8.37-88.35 38.35-48.45 21.03c-14.95-8.971-17.69-26.601 2.57-50.67 7.46-8.861 18.22-18.641 30.52-28.521zM289.63 316.62l16.3 8.66c-6.84 10.23-12.19 21.4-15.79 33.25l-19.12-5.63-92.39-27.2-33.6-9.89c-1.97-1.87-3.94-3.77-5.89-5.7-30.71-30.27-33.55-66.36 10.21-67.98l55.22 29.33 85.06 45.16z" fill="#eedceb"/><path d="M271.02 352.9l19.12 5.63c-2.99 9.85-4.77 20.18-5.17 30.83-3.93 2.36-8.87 5.34-14.52 8.82l-4.14-.25c-46.23-21.58-85.23-47.79-121.28-82.12l33.6 9.89 92.39 27.2z" fill="#eedceb"/><g fill="none" stroke="#231f20"><path d="M490.48 274.63s26.529-31.49 58.3-64.09c15.14-15.54 31.47-31.32 46.68-44.08 11.25-9.43 21.89-17.2 30.99-21.99 41.27-21.72 57.92 2.91 50.39 38.06-1.09 5.09-2.689 10.4-4.8 15.83-16.56 42.68-38.01 79.97-66.24 115.64-4.52 5.72-9.229 11.4-14.109 17.05M449.41 217.24c.32-.8.63-1.6.95-2.4 4.38-10.95 9.1-22 13.97-32.3 6.72-14.22 13.74-27.04 20.62-36.27 22.95-30.79 44.28-24.09 54.12-.23 2.8 6.77 4.66 14.92 5.38 23.99 1.02 12.94 1.41 25.66 1.18 38.28M541.33 480.24c12.53 19.59 21.85 42.29 28.62 64.16 2.45 7.89 4.56 15.67 6.37 23.159 7.35 30.36 9.779 55.94 9.37 64.45-1.15 24.04-10.011 35.51-21.74 37.2-12.3 1.78-27.79-7.19-40.891-23.69-5.13-6.47-25.649-35.689-46.31-68.689-11.14-17.8-22.32-36.7-31.16-53.73a295.58 295.58 0 0 1-1.59-3.1M550.17 329.91s8.4.73 21.72 2.19c5.67.62 12.221 1.38 19.4 2.27 25.5 3.16 58.85 8.01 88.06 14.59 19.341 4.36 36.87 9.47 49.101 15.36 27.97 13.47 32.939 30.39 23.5 44.58-6.8 10.23-21.09 19.05-39.66 24.14-29.17 7.99-57.72 12.87-86.85 14.83-23.391 1.6-47.15 1.31-71.91-.75-5.15-.43-10.351-.93-15.59-1.51" stroke-width="14"/><path d="M623.8 446.41c.54.479 1.09.97 1.641 1.46 8.26 7.39 17.39 15.76 26.63 24.59 23.89 22.83 48.46 48.76 60.37 68.82 27.239 45.939-7.851 62.72-51.511 48.29-20.25-6.7-56.949-26.78-82.149-40.49-3.09-1.68-6.011-3.271-8.71-4.72M344.4 277.21s-4.92-24.13-9.6-55.47c-3.91-26.18-7.64-57.39-8.19-83.75-.25-12 .16-23 1.51-32.06 7.89-52.82 45.69-43.67 70.42-4.91 4.19 6.57 8.17 13.16 11.95 19.79 17.08 29.95 30.08 60.73 39.87 94.03 2.08 7.05 4 14.21 5.79 21.51 2.21 8.95 4.199 18.1 6.01 27.48" stroke-width="14"/><path stroke-width="13.265" d="M494.52 440.19l2.02 1.22 3.89 2.35M399.32 405.57l10.48-3.02 10.7-3.09 1.87-.54 2.61-.75 31.13 18.81M293.71 436.03l58.81-16.96M397.31 319.64l-4.11-12.95M421.67 396.51l-.49-1.55-.2-.63-12.2-38.49M483.14 312.96c1.561 1.64 2.24 3.16 1.851 4.42-.58 1.81-3.33 2.78-7.471 2.92-2.01.07-4.35-.05-6.939-.37-4.64-.57-10.061-1.75-15.72-3.54-1.351-.43-2.681-.88-3.96-1.34a89.994 89.994 0 0 1-6.311-2.55c-9.729-4.34-15.97-9.38-14.95-12.62.95-3.01 7.87-3.69 17.19-2.16 3.97.65 8.37 1.7 12.939 3.15 6.04 1.91 11.461 4.22 15.721 6.59 3.36 1.85 6 3.75 7.65 5.5zM522.14 384.27c1.69 14.5-.1 26.25-4.25 26.86-.109.02-.229.02-.34.02-3.979 0-8.68-9.95-11.2-23.33-.26-1.37-.5-2.79-.71-4.23-.83-5.67-1.14-11.02-.989-15.59.25-8.21 1.989-13.89 4.84-14.3 2.279-.33 4.83 2.73 7.09 7.93 2.15 4.96 4.03 11.86 5.16 19.61.149 1.02.279 2.03.399 3.03zM450.68 316.09l-5.49 15.79-21.51 61.92-.36 1.05"/><path stroke-width="13.265" d="M421.94 394.02l1.74-.22 64.31-8.01 17.65-2.2M369.16 365.83l49.75 29.85M398.48 415.79c4.67-5.56 8.78-10.37 11.32-13.24 1.84-2.06 2.87-3.12 2.74-2.73M367.42 453.14c1.35-1.64 5.51-6.68 10.78-13.05 4.13-4.979 8.94-10.77 13.63-16.38M420.84 400.65c1.03.52 11.101 32 18.53 55.62 2.02 6.45 3.86 12.311 5.25 16.801"/><path d="M433.55 328.91c4.01.63 7.91 1.64 11.641 2.97a64.948 64.948 0 0 1 16.659 8.86 65.267 65.267 0 0 1 14.971 15.38 64.727 64.727 0 0 1 11.17 29.67c.229 1.99.37 4.01.399 6.06.021.45.021.89.021 1.34 0 4.38-.43 8.67-1.26 12.81M358.26 394.6c-.01-.47-.02-.94-.02-1.41 0-4.86.53-9.6 1.55-14.16 1.08-4.92 2.73-9.62 4.87-14.05 1.09-2.27 2.31-4.47 3.65-6.58.09-.15.19-.3.29-.45a65.48 65.48 0 0 1 15.78-16.91c.34-.25.68-.5 1.03-.75M466.93 441.49c-.88.8-1.779 1.58-2.71 2.319a64.744 64.744 0 0 1-20.62 11.23c-1.39.46-2.8.87-4.229 1.229-1.22.32-2.47.591-3.72.83-3.99.771-8.11 1.17-12.331 1.17-4 0-7.92-.359-11.73-1.06-5.01-.91-9.82-2.39-14.35-4.39-2.13-.92-4.19-1.96-6.18-3.101a65.332 65.332 0 0 1-22.46-21.29" stroke-width="13.265"/><path d="M322.76 293.92s-14.62-6.38-35.79-14.66c-8.68-3.39-18.48-7.12-28.83-10.85-33.82-12.21-73.51-24.53-99.5-26.14-3.3-.21-6.4-.25-9.29-.14-43.76 1.62-40.92 37.71-10.21 67.98 1.95 1.93 3.92 3.83 5.89 5.7 36.05 34.33 75.05 60.54 121.28 82.12.17.08.35.17.53.25M335.18 222.09l-.38-.35c-16.25-14.84-32.77-28.28-46.38-35.86a87 87 0 0 0-7.94-3.94c-36.98-15.99-49.56 13.74-36.58 50.01 1.09 3.04 2.21 6.05 3.35 9.03 3.47 9.02 7.22 17.79 11.27 26.36M372.69 594.27c5.95 28.221 13.75 57.711 23.04 75.95 6.3 12.391 13.22 19.9 20.14 23.4 17.63 8.939 35.25-8.11 42.52-36.76 2.311-9.11 10.591-40.88 15.98-78.53M294.96 383.48s-3.72 2.14-9.99 5.88c-3.93 2.36-8.87 5.34-14.52 8.82-22.78 14.04-57.16 36.22-84.17 57.91-12.3 9.88-23.06 19.66-30.52 28.521-20.26 24.069-17.52 41.699-2.57 50.67 10.43 6.25 26.81 8.3 45.49 5.38 29.88-4.68 57.93-11.94 85.3-22.09 17.72-6.561 35.16-14.34 52.63-23.4 4.37-2.26 8.74-4.61 13.12-7.04 4.36-2.42 8.73-4.92 13.11-7.5" stroke-width="14"/><path d="M284.87 516.57c-.29.66-.59 1.33-.89 2-3.59 8.069-7.43 16.93-11.28 26.189-13.46 32.41-26.94 69.681-29.77 94.69-2.98 26.28 5.06 39.77 18.05 42.92 13.23 3.2 31.61-4.33 48.72-20 21.33-19.55 39.95-40.14 56.56-62.561 1.64-2.199 3.25-4.42 4.84-6.659 15.13-21.221 28.57-44.101 40.9-69.271.4-.8.79-1.6 1.18-2.399" stroke-width="14"/><path d="M578 552s9.75 13.04 19.64 39.07c14.78 38.88 29.891 106.75 13.33 203.46" stroke-width="21"/><path stroke-width="13.265" d="M416.21 232.6l1.6 31.16 2.81 54.89M411.29 136.42l4.92 96.18M407.22 57.04l3.27 63.77.8 15.61M456.95 231.1l-.8 5.25-4.48 29.53-4.84 31.84-2.24 14.78-2.24 14.75M471.42 135.89l-7.09 46.65-7.38 48.56M483.35 57.31l-11.93 78.58M498.19 249.82l-9.49 24.11-1.23 3.12-11.98 30.41-4.91 12.47-7.64 19.38-.39 1M533.49 160.21l-35.3 89.61M562.61 86.26l-23.54 59.78-5.58 14.17"/><path stroke-width="13.265" d="M518.32 267.08l-14.45 18.85-20.73 27.03-5.62 7.34-14.58 19.01-1.09 1.43-2.7 3.52M576.92 190.65l-58.6 76.43M625.27 127.57l-29.81 38.89-18.54 24.19M550.31 292.35l-18.84 16.35-54.6 47.39M623.04 229.22l-72.73 63.13M683.07 177.12l-6.23 5.41-53.8 46.69M569.58 333.33l-15.68 8.37-37.32 19.93-11.93 6.37-18.11 9.66-2.75 1.47M654.54 287.98L605.8 314l-33.91 18.1-2.31 1.23M724.66 250.54l-70.12 37.44M575.81 372.21l-11.67 2.62-42 9.44-15.79 3.55-17.96 4.03-7.46 1.68M669.78 351.11l-93.97 21.1M747.33 333.67l-67.98 15.29-9.57 2.15M584.18 412.11l-19.93.38-46.66.89-17.16.33M680.47 410.27l-96.29 1.84M759.94 408.75l-7.99.15-71.48 1.37M572.7 455.93l-21.37-4.45-56.14-11.7M666.99 475.57l-14.92-3.11-79.37-16.53M744.8 491.77l-77.81-16.2M554.58 483.94l-10.38-7.61-6.21-4.55-41.45-30.37-1.83-1.34M632.25 540.89l-77.67-56.95M696.37 587.85l-64.12-46.96M530.02 516.48L512 496.6l-47.29-52.17M594.7 587.83l-18.38-20.27-46.3-51.08M648.08 646.71l-50.44-55.64-2.94-3.24M453.04 471.84l-9.44-16.8-1.79-3.18M489.44 536.63l-12.06-21.46-13.72-24.42M536.63 620.6l-47.19-83.97M575.57 689.88l-11.62-20.67-27.32-48.61M368.17 242.83l11.07 27.92 19.18 48.41M332.68 153.3l35.49 89.53M303.39 79.41l23.22 58.58 6.07 15.31M330.49 258.39l12.79 19.55 4.69 7.17 26.89 41.11 8.87 13.56M277.77 177.8l2.71 4.14 50.01 76.45M234.26 111.29l43.51 66.51M366.96 356.37l1.64 1.58 1.4 1.35.78.75M300.76 292.56l17.57 16.94 36.39 35.07M231.42 225.72l15.83 15.26 39.72 38.28 13.79 13.3M174.19 170.56l57.23 55.16"/><path stroke-width="13.265" d="M366.43 357.41l1.88.99 1.69.9 5.52 2.93M289.63 316.62l16.3 8.66 46.16 24.51M204.57 271.46l85.06 45.16M134.37 234.17l14.98 7.96 55.22 29.33M352.13 376.77l7.66 2.26 4.53 1.33M271.02 352.9l19.12 5.63 55.33 16.28M178.63 325.7l92.39 27.2M102.39 303.26l42.64 12.55 33.6 9.89M270.53 398.19l14.45.77 65.96 3.54M174.4 392.24l91.91 5.69 4.14.25.08.01M95.07 387.32l79.33 4.92M186.78 455.99l94.24-19.85M109 472.35l77.28-16.26.5-.1M356.98 446.83l19.5-8.46 2.71-1.18M289.99 475.9l19.29-8.37 39.4-17.1M201.64 514.25l88.35-38.35M128.73 545.89l24.46-10.61 48.45-21.03M380.84 465.26l2.59-1.9 13.56-9.97M318.64 510.98l19.73-14.5 11.36-8.35 18.05-13.27M241.04 568.04l31.66-23.28 45.94-33.78M177 615.12l64.04-47.08"/><path stroke-width="13.265" d="M381.79 466.3l1.64-2.94 7.63-13.64 3.16-5.66M346.76 528.94l11.37-20.33 16.03-28.68M299.78 613.01l46.98-84.07M260.98 682.38v-.01l38.8-69.36M382.63 548.33l8.8-27.68 20.16-63.44.5-1.56M353.44 640.11l12.82-40.3 16.37-51.48M329.36 715.86l24.08-75.75M434.06 476.09l1.59-18.99.35-4.21M427.91 549.8l2.12-25.42 2.3-27.47M419.88 645.78l8.03-95.98M413.25 724.98l2.62-31.36 4.01-47.84"/><path d="M433.55 328.91c1.25 2.3 1.94 4.83 1.94 7.49 0 10.76-11.32 19.48-25.29 19.48-.48 0-.95-.01-1.42-.04-11.61-.49-21.12-7-23.37-15.55-.33-1.26-.5-2.56-.5-3.89 0-7.13 4.97-13.37 12.4-16.76.36-.17.73-.33 1.11-.48 3.52-1.43 7.53-2.24 11.78-2.24 3.71 0 7.24.62 10.42 1.73 5.82 2.02 10.47 5.7 12.93 10.26z" stroke-width="6.633"/><path d="M352.13 376.77c-1.94 1.4-3.62 1.91-4.84 1.31-.97-.48-1.57-1.62-1.82-3.27-.74-4.97 1.7-14.62 6.62-25.02.2-.45.42-.9.64-1.35.65-1.33 1.32-2.62 1.99-3.87 6.67-12.29 14.41-20.42 18.07-18.62.41.2.76.52 1.04.95 2.45 3.76-.16 15.77-6.48 28.69l-.39.78c-.17.35-.35.7-.53 1.04-4.7 9.17-10.11 16.34-14.3 19.36z" stroke-width="13.265"/><path d="M500.43 413.71c2.7 3.1 4.28 6.83 4.28 10.84 0 6.17-3.72 11.67-9.52 15.23-.16.1-.32.2-.48.29-.06.04-.12.08-.19.12-4.21 2.42-9.439 3.85-15.1 3.85-4.54 0-8.81-.92-12.49-2.55-7.64-3.34-12.8-9.681-12.8-16.94 0-2.69.71-5.25 1.98-7.57 3.84-7 12.84-11.91 23.31-11.91 2.7 0 5.29.33 7.73.93 5.48 1.35 10.14 4.1 13.28 7.71z" stroke-width="6.633"/><path d="M453.04 471.84c11.81-.97 21.04 1.55 22.09 6.561.84 4.029-3.81 8.689-11.47 12.35-4.12 1.97-9.12 3.65-14.601 4.79-6.069 1.27-11.85 1.69-16.729 1.37-7.74-.5-13.23-2.86-14.02-6.65-.99-4.74 5.6-10.34 15.75-14.17 3.131-1.189 6.61-2.2 10.311-2.97.08-.021.17-.03.25-.05a71.663 71.663 0 0 1 8.419-1.231zM381.79 466.3c7.96 8.87 12.13 17.05 9.63 19.72-2.24 2.37-9.16-.27-17.26-6.09a88.452 88.452 0 0 1-6.38-5.069 87.041 87.041 0 0 1-3.09-2.78c-8.6-8.07-14.65-16.47-16.01-21.65-.5-1.84-.39-3.279.42-4.149 1.29-1.37 4.14-1.07 7.88.55 3.02 1.3 6.62 3.47 10.44 6.31 2.73 2.04 5.58 4.42 8.41 7.08a99.28 99.28 0 0 1 5.01 5.04c.32.348.64.688.95 1.038zM399.32 405.57a15.352 15.352 0 0 1-.84 10.22c-1.35 3.06-3.66 5.77-6.65 7.92-4.52 3.271-10.6 5.271-17.28 5.271-2.05 0-4.04-.19-5.95-.551-6.89-1.27-12.68-4.729-16.08-9.36-2.08-2.83-3.26-6.09-3.26-9.57 0-2.47.6-4.83 1.68-7 1.55-3.1 4.09-5.81 7.32-7.9 4.39-2.87 10.08-4.59 16.29-4.59 12.21 0 22.41 6.68 24.77 15.56z" stroke-width="13.265"/><path d="M564.14 374.83c1 6.26 1.511 12.67 1.511 19.19 0 6.27-.48 12.44-1.4 18.47-1.85 12.16-5.51 23.79-10.72 34.63-.7 1.47-1.431 2.92-2.2 4.36-3.78 7.159-8.26 13.949-13.34 20.3-7.44 9.3-16.19 17.649-25.99 24.819-10.45 7.631-22.09 13.92-34.62 18.57a147.405 147.405 0 0 1-31.79 7.93c-5.1.69-10.29 1.12-15.56 1.28-1.58.061-3.17.08-4.76.08-4.48 0-8.9-.19-13.27-.58-7.02-.61-13.89-1.7-20.57-3.229-11.76-2.71-22.92-6.78-33.3-12.04a141.562 141.562 0 0 1-21.52-13.441c-10.48-7.939-19.69-17.25-27.33-27.64-7.01-9.521-12.69-19.95-16.79-31.05a121.504 121.504 0 0 1-7.51-37.521c-.07-1.64-.1-3.29-.1-4.94 0-1.56.03-3.11.09-4.66.4-10.65 2.18-20.98 5.17-30.83 3.6-11.85 8.95-23.02 15.79-33.25 3.71-5.55 7.86-10.82 12.4-15.78 8.58-9.36 18.56-17.58 29.64-24.39 9.66-5.92 20.15-10.77 31.27-14.36 12.18-3.92 25.12-6.33 38.57-6.99 2.47-.12 4.96-.18 7.46-.18 9.02 0 17.85.79 26.4 2.3 12.61 2.23 24.63 6.03 35.8 11.17 5.7 2.62 11.17 5.59 16.4 8.88 10.24 6.44 19.52 14.11 27.6 22.77 6.23 6.7 11.74 13.98 16.42 21.76 2.19 3.64 4.2 7.39 6.011 11.24 4.908 10.402 8.398 21.512 10.238 33.132z" stroke-width="21"/></g><path fill="none" d="M0 0h850.394v850.394H0z"/></svg>