<svg xmlns="http://www.w3.org/2000/svg" width="850.89" height="850.89" viewBox="0 0 850.89 850.89" overflow="visible"><path d="M234.52 108.66c5.2 20.3 89.54 36.45 192.84 36.45 102.97 0 187.12-16.05 192.77-36.27l1.021.29v76.57c0 5.68-6.2 11.08-17.32 15.93-30.41 13.28-97.68 22.51-175.76 22.51-81.51 0-151.22-10.06-179.55-24.28-8.73-4.38-13.53-9.16-13.53-14.16l-.471-77.04z" fill="#fbee34"/><path d="M586.5 397.85c12.38-4.54 21.74-2.23 21.74 7.41v233.9c0 9.649-9.36 23.64-21.74 30.05-99.25 47.16-212.17 47.18-311.42 0-12.4-6.43-21.74-20.4-21.74-30.05v-233.9c0-9.64 9.34-11.95 21.74-7.41 101.29 31.63 210.13 31.63 311.42 0z" fill="#6ebe44"/><path d="M275.08 397.85c-12.4-4.54-21.74-2.23-21.74 7.41v233.9c0 9.649 9.34 23.62 21.74 30.05 99.25 47.18 212.17 47.16 311.42 0 12.38-6.41 21.74-20.4 21.74-30.05v-233.9c0-9.64-9.36-11.95-21.74-7.41-101.29 31.63-210.13 31.63-311.42 0zm382.6-84.8l-1.12 369.82s-2.22 47.05-47.14 66.96c0 0-83.729 33.86-181.6 30.25h-3.291c-97.87 3.61-181.6-30.25-181.6-30.25-44.92-19.91-47.14-66.96-47.14-66.96l-1.12-370.49c49.991 14.7 195.401 83.2 463.011.67z" fill="#f6cc4b"/><path d="M427.36 68.24c106.63 0 193.069 17.21 193.069 38.43 0 .73-.1 1.45-.3 2.17-5.649 20.22-89.8 36.27-192.77 36.27-103.3 0-187.64-16.15-192.84-36.45a8.41 8.41 0 0 1-.25-1.99c.001-21.22 86.441-38.43 193.091-38.43z" fill="#fbee34"/><g fill="none" stroke="#000"><path d="M234.52 108.66a8.41 8.41 0 0 1-.25-1.99c0-21.22 86.44-38.43 193.09-38.43 106.63 0 193.069 17.21 193.069 38.43 0 .73-.1 1.45-.3 2.17-5.649 20.22-89.8 36.27-192.77 36.27-103.299 0-187.639-16.15-192.839-36.45z" stroke-width="20.991"/><path d="M234.52 108.66l.47 77.04c0 5 4.8 9.78 13.53 14.16 28.33 14.22 98.04 24.28 179.55 24.28 78.08 0 145.35-9.23 175.76-22.51 11.12-4.85 17.32-10.25 17.32-15.93v-76.57" stroke-width="20.991"/><path d="M603.83 201.63s3.2 25.83 23.84 36.67c20.64 10.84 30.05 21.25 30.05 60.91l-.04 13.84-1.12 369.82s-2.22 47.05-47.14 66.96c0 0-83.729 33.86-181.6 30.25h-3.291c-97.87 3.61-181.6-30.25-181.6-30.25-44.92-19.91-47.14-66.96-47.14-66.96l-1.12-370.49-.04-13.17c0-39.66 9.41-50.07 30.05-60.91 20.64-10.84 23.84-38.44 23.84-38.44" stroke-width="20.991"/><path d="M253.34 405.26c0-9.64 9.34-11.95 21.74-7.41 101.29 31.63 210.13 31.63 311.42 0 12.38-4.54 21.74-2.23 21.74 7.41v233.9c0 9.649-9.36 23.64-21.74 30.05-99.25 47.16-212.17 47.18-311.42 0-12.4-6.43-21.74-20.4-21.74-30.05v-233.9zM194.25 312.25c.14.04.28.08.42.13 49.99 14.7 195.4 83.2 463.01.67.86-.27 1.71-.53 2.57-.8" stroke-width="7" stroke-linecap="round" stroke-linejoin="round"/></g><path fill="none" d="M268.25 374.25h325.395v325.395H268.25z"/><path fill="none" d="M.25.25h850.394v850.394H.25z"/><path fill="none" d="M291.25 410.25h280v280h-280z"/><path fill="none" d="M291.25 410.25h280v280h-280z"/><g><path d="M538.236 586.252l-.011-.007a8.718 8.718 0 0 1-1.212-.397c-4.226-1.771-5.003-6.571-4.328-10.739l-.247-.041c-.438-2.805 1.761-3.682 3.732-4.335 1.997-.654 3.356-1.038 5.593-1.6 1.188-.302 2.175-.404 3-.343-1.462 6.171-3.643 12.099-6.527 17.462zM512.632 588.225c-1.048-3.227 7.489-11.64 10.612-11.814 1.925-.113 4.739 2.448 6.729 5.267 1.332 1.887 2.295 3.887 2.367 5.28.328 6.164-5.936 12.396-8.572 12.771-.325.048-.596.003-.791-.141-3.571-2.627-9.01-7.462-10.78-11.171l.435-.192zM510.573 510.02l-.219.12a3.947 3.947 0 0 1-.812-1.021c-.859-1.616.109-3.264 1.055-4.691 1.153-1.757 1.986-2.9 3.394-4.723 1.209-1.572 2.321-2.418 3.369-2.736.247.179.497.353.747.531 2.966 2.096 5.732 4.144 8.287 6.235l-.007.007c.87 1.695 1.63 5.295.356 7.25-1.374 2.103-3.634 4.078-6.12 4.771-4.409 1.229-7.995-2.055-10.05-5.743zM525.99 550.127l-.243-.041c-.441-2.805 1.757-3.682 3.729-4.335 1.996-.654 3.355-1.038 5.592-1.6 7.353-1.846 7.103 3.726 6.736 9.585-.22 3.455-.4 6.062-3.729 7.182-2.376.798-5.376.944-7.756-.052-4.226-1.766-5.004-6.571-4.329-10.739z" fill="#f6cc4b"/><path d="M537.072 588.316c-.041.072-.082.145-.124.213-3.979 6.698-8.297 10.438-12.947 11.94l-.233-.742c2.637-.374 8.9-6.606 8.572-12.771-.072-1.394-1.035-3.394-2.367-5.28l.791-.559a48.444 48.444 0 0 0 5.85 6.932l.458.267zM520.59 530.364c-1.277-2.534.548-4.041 2.229-5.264 1.702-1.232 2.88-2.013 4.835-3.232 6.438-4 7.9 1.384 9.339 7.078.846 3.353 1.469 5.891-1.359 7.969-2.021 1.49-4.832 2.545-7.4 2.322-4.568-.397-6.773-4.736-7.4-8.91l-.244.037zM512.827 551.761c3.153.616 6.883 9.061 6.201 12.472-1.356 6.805-10.801 11.63-12.198 9.921-2.763-3.37-6.742-9.253-7.636-13.277l.448-.099c-.64-3.343 10.058-9.631 13.185-9.017zM507.913 524.046c3.157.613 6.886 9.058 6.205 12.469-1.356 6.805-10.801 11.63-12.202 9.924-2.764-3.369-6.739-9.249-7.633-13.276l.448-.103c-.643-3.343 10.055-9.626 13.182-9.014z" fill="#f6cc4b"/><path d="M538.236 586.252a61.676 61.676 0 0 1-1.164 2.064l-.459-.267a48.389 48.389 0 0 1-5.85-6.932c-9.156-13.19-10.335-28.964-13.19-45.265-1.65-9.403-4.298-18.358-8.462-26.516l.432-.219c.182.343.448.682.812 1.021l.219-.12c2.055 3.688 5.641 6.973 10.051 5.743 2.486-.692 4.746-2.668 6.12-4.771 1.273-1.955.514-5.555-.356-7.25l.007-.007c9.137 7.5 15.547 15.637 18.674 28.961 2.667 11.38 2.521 24.188-.305 36.094-.825-.062-1.812.041-3 .343-2.236.562-3.596.945-5.593 1.6-1.972.653-4.171 1.53-3.732 4.335l.247.041c-.675 4.168.103 8.969 4.328 10.739.391.161.798.295 1.212.397l.009.009zm3.569-32.516c.366-5.859.616-11.431-6.736-9.585-2.236.562-3.596.945-5.592 1.6-1.973.653-4.171 1.53-3.729 4.335l.243.041c-.675 4.168.103 8.973 4.329 10.739 2.38.996 5.38.85 7.756.052 3.328-1.12 3.509-3.727 3.729-7.182zm-6.171-16.821c2.828-2.078 2.205-4.616 1.359-7.969-1.438-5.694-2.9-11.078-9.339-7.078-1.955 1.22-3.133 2-4.835 3.232-1.682 1.223-3.507 2.729-2.229 5.264l.243-.037c.627 4.174 2.832 8.513 7.4 8.91 2.569.223 5.38-.832 7.401-2.322zM492.051 484.381l-.22.119c-2.082-1.928-.904-3.979.243-5.712 1.157-1.757 1.986-2.9 3.394-4.726 1.116-1.448 2.158-2.284 3.134-2.646 1.397 4.081 2.664 8.067 5.023 12.022a32.994 32.994 0 0 0 2.836 4.045c-1.243 1.212-2.75 2.191-4.356 2.64-4.415 1.23-8-2.055-10.054-5.742zM483.078 510.581c-1.523-3.027 6.12-12.448 9.219-12.969 3.171-.537 9.637 6.052 10.201 9.482 1.131 6.846-6.003 14.688-7.917 13.585-3.839-2.219-9.773-6.424-11.941-9.913l.438-.185zM523.021 600.755c-7.312 1.855-15.414-1.593-24.245-7.641a20.95 20.95 0 0 0 3.085-2.312c2.318-2.123 2.846-3.486 1.514-6.462l.706-.339c4.164 8.688 10.355 16.194 18.937 16.746l.003.008z" fill="#f6cc4b"/><path d="M448.118 470.803c.959 3.51 4.314 12.756 8.017 11.167 1.691-.723 3.01-3.661 4.209-5.021.996-1.13 3.201-2.78 3.678-4.242.876-2.692-5.559-9.312-8.28-9.62-4.155-.469-6.956 4.281-7.624 7.716zm13.972 19.889c2.168 3.489 8.103 7.694 11.941 9.913 1.91 1.106 9.047-6.739 7.917-13.585-.565-3.431-7.03-10.017-10.201-9.482-3.103.521-10.743 9.945-9.219 12.973l-.438.181zm20.55 20.075c2.168 3.489 8.103 7.694 11.941 9.913 1.914 1.103 9.048-6.739 7.917-13.585-.564-3.431-7.03-10.02-10.201-9.482-3.099.521-10.742 9.941-9.219 12.969l-.438.185zm11.643 22.395c.894 4.027 4.869 9.907 7.633 13.276 1.401 1.706 10.846-3.119 12.202-9.924.681-3.411-3.048-11.855-6.205-12.469-3.127-.612-13.825 5.671-13.182 9.014l-.448.103zm18.544 18.599c-3.127-.613-13.825 5.674-13.185 9.017l-.448.099c.894 4.024 4.873 9.907 7.636 13.277 1.397 1.709 10.842-3.116 12.198-9.921.682-3.412-3.048-11.856-6.201-12.472zm11.174 48.709c-.325.106-.65.199-.979.285l-.004-.007c-8.581-.552-14.772-8.059-18.937-16.746-3.527-7.355-5.603-15.558-6.445-21.099-2.832-18.611-3.729-37.737-16.081-52.709-4.185-5.071-10.027-8.685-15.797-12.346-1.288-1.01-2.784-1.944-4.302-2.783-5.962-4-11.358-8.479-14.146-15.229-3.257-7.883-6.003-14.804-11.896-17.968 7.376 3.668 10.503-7.342 4.616-11.855 5.205 1.164 10.657 3.626 16.379 6.931 7.25 4.186 11.791 10.887 18.27 15.938 5.593 4.363 13.521 11.712 18.935 16.441 6.681 5.839 11.715 12.599 15.499 20.016 4.164 8.157 6.812 17.112 8.462 26.516 2.855 16.301 4.034 32.074 13.19 45.265l-.791.559c-1.989-2.818-4.804-5.38-6.729-5.267-3.123.175-11.66 8.588-10.612 11.814l-.436.191c1.771 3.709 7.209 8.544 10.78 11.171.195.144.466.188.791.141l.233.741zM472.678 467.015l-.215.12c-2.082-1.928-.904-3.979.243-5.715 1.157-1.75 1.985-2.897 3.394-4.723 4.623-6.003 7.883-1.476 11.225 3.349 1.97 2.843 3.445 5.004 1.527 7.941-1.369 2.103-3.633 4.079-6.115 4.771-4.416 1.229-8.001-2.055-10.059-5.743z" fill="#f6cc4b"/><path d="M472.24 618.219c8.869 4.161 15.197 12.476 14.331 21.9-.445 4.89-8.812 11.479-12.667 13.488-6.273 3.264-12.485 5.873-19.53 6.76-11.294 1.425-31.454-1.749-37.484-8.831-7.353-8.637-2.441-19.273 3.917-24.41 6.147-4.965 15.479-9.479 23.061-10.951 8.685-1.685 20.115-1.832 28.372 2.044z" fill="#ffeec8"/><path d="M495.215 590.57c-4.877-3.616-8.346-8.462-10.814-13.735 5.582-3.757 9.185-6.216 14.153 0 1.798 2.242 3.671 4.924 4.821 7.506 1.332 2.976.805 4.339-1.514 6.462a21.02 21.02 0 0 1-3.085 2.312 115.683 115.683 0 0 1-3.561-2.545zM462.528 490.511c-1.524-3.027 6.116-12.452 9.219-12.973 3.171-.534 9.636 6.052 10.201 9.482 1.13 6.846-6.007 14.691-7.917 13.585-3.839-2.219-9.773-6.424-11.941-9.913l.438-.181zM478.938 555.969c-.356-3.116-.151-6.726-.113-10.324 6.346-2.247 10.824-3.859 14.088 3.396 1.179 2.62 2.325 5.688 2.798 8.473.545 3.216-.305 4.404-3.078 5.88-3.302 1.757-8.935 3.26-12.144 1.801-.729-3.174-1.218-6.301-1.551-9.226zM466.031 521.382c3.109-5.314 5.732-8.831 12.396-5.688 2.596 1.229 5.459 2.818 7.627 4.63 2.503 2.089 2.63 3.548 1.479 6.469-1.712 4.362-5.441 11.033-9.588 9.417l-.004-.003a14.164 14.164 0 0 0-1.198-3.018c-2.236-4.099-6.473-8.246-10.712-11.804v-.003zM459.956 440.619c4.764 2.75 10.859 2.052 10.349 8.305-.335 4.167-2.619 9.085-6.992 6.767-3.414-1.812-6.609-4.489-9.966-6.619-3.017-4.299 2.456-10.853 6.609-8.453zM466.25 498.25c2.504 2.089 2.627 3.548 1.479 6.469-1.869 4.764-7.376 11.992-11.745 8.52-2.634-2.089-5.103-4.044-7.014-5.846-1.911-1.801-3.264-3.451-3.664-4.935l-.425-.859c3.366-5.832 6.544-11.372 13.739-7.976a54.21 54.21 0 0 1 2.835 1.442c1.411.948 2.853 1.866 4.302 2.783.168.134.333.268.493.402zM455.741 463.087c2.722.309 9.156 6.928 8.28 9.62-.477 1.462-2.682 3.112-3.678 4.242-1.199 1.359-2.518 4.298-4.209 5.021-3.702 1.589-7.058-7.657-8.017-11.167.669-3.435 3.47-8.185 7.624-7.716z" fill="#f6cc4b"/><path d="M478.428 515.694c-6.664-3.144-9.287.373-12.396 5.688-2.123-1.78-4.25-3.417-6.126-4.825-3.932-2.951-7.634-5.989-10.959-9.14l.024-.024c1.911 1.802 4.38 3.757 7.014 5.846 4.369 3.473 9.876-3.756 11.745-8.52 1.147-2.921 1.024-4.38-1.479-6.469-.16-.134-.325-.268-.492-.401 5.77 3.661 11.612 7.274 15.797 12.346 12.352 14.972 13.249 34.098 16.081 52.709.843 5.541 2.918 13.743 6.445 21.099l-.706.339c-1.15-2.582-3.023-5.264-4.821-7.506-4.969-6.216-8.571-3.757-14.153 0-1.764-3.757-3.018-7.736-3.911-11.641 3.209 1.459 8.842-.044 12.144-1.801 2.773-1.476 3.623-2.664 3.078-5.88-.473-2.784-1.619-5.853-2.798-8.473-3.264-7.256-7.742-5.644-14.088-3.396.031-3.277-.079-6.548-.88-9.435 4.146 1.616 7.876-5.055 9.588-9.417 1.151-2.921 1.024-4.38-1.479-6.469-2.169-1.811-5.033-3.4-7.628-4.63zM446.857 483.299c.938 3.814-4.174 8.485-7.794 8.811-2.517.227-2.534-1.571-3.537-3.985-.802-1.925-1.277-5.346-2.414-7.106-.004 0-.004-.003-.004-.003v-.004c.318-4.308 3.469-7.403 7.917-6.235 2.079.546 5.326 6.456 5.832 8.522z" fill="#f6cc4b"/><path d="M448.946 507.417c-7.188-6.805-12.605-14.112-14.749-22.108-.363-1.353-.709-2.808-1.085-4.291 1.137 1.761 1.612 5.182 2.414 7.106 1.003 2.414 1.021 4.212 3.537 3.985 3.62-.325 8.732-4.996 7.794-8.811-.507-2.065-3.753-7.976-5.832-8.523-4.448-1.168-7.599 1.928-7.917 6.235-1.023-4.023-2.284-8.256-4.723-11.208-3.636-4.404-10.739-2.113-13.496-6.099 1.315-.37 7.708-3.284 9.198-3.463 4.64-.555 8.184.034 11.016 1.466.031.018.063.034.093.048.059.034.116.065.175.093l.041.021c5.894 3.164 8.64 10.085 11.896 17.968 2.788 6.75 8.185 11.229 14.146 15.229a53.444 53.444 0 0 0-2.835-1.442c-7.195-3.396-10.373 2.144-13.739 7.976l.425.859c.4 1.483 1.753 3.134 3.664 4.935l-.023.024zM406.644 502.28c4.955 2.616 14.061 3.606 11.277 10.739-1.801 4.616-2.9 2.989-7.023 7.109-6.524 6.523-6.921 13.153-7.072 24.393-.167 12.358-5.948 26.663-16.105 38.864-4.592 5.517-13.013 11.849-14.896 18.756-1.925 7.047 2.332 16.009 3.191 23.152 1.418 11.805 1.144 27.354-8.017 38.231-13.451 15.972-26.283 24.016-41.963 7.811-13.185-13.619-21.184-34.556-21.232-53.575-.044-17.89 7.26-28.602 18.496-41.341 4.904-5.562 8.821-10.226 11.078-17.39 2.13-6.76 1.113-13.153 3.048-19.937 6.609-23.208 17.403-31.081 30.632-37.813 13.197-6.711 25.546-5.882 38.586 1.001zm-14.345 39.601c.87-7.273 8.938-16.396 3.661-23.725-3.335-4.634-10.318-6.503-15.722-6.346-8.318.243-14.249 3.4-20.694 9.421-13.184 12.311-15.842 30.656-14.931 38.521.486 4.198 5.626 19.608 16.393 22.954 4.88 1.518 12.814-.157 16.249-3.637 10.233-10.361 13.171-21.507 15.044-37.188z" fill="#f6cc4b"/><path d="M414.89 463.704a7.211 7.211 0 0 1-1.301-3.977h.007c8.068-9.588 16.831-11.862 26.434-9.715 5.887 4.514 2.76 15.523-4.616 11.855l-.041-.021a2.472 2.472 0 0 0-.175-.093 1.18 1.18 0 0 1-.093-.048c-2.832-1.432-6.376-2.021-11.016-1.466-1.49.181-7.884 3.095-9.199 3.465z" fill="#f6cc4b"/><path d="M453.347 449.071c3.356 2.13 6.552 4.808 9.966 6.619 4.373 2.318 6.657-2.6 6.992-6.767.511-6.253-5.585-5.555-10.349-8.305-4.153-2.399-9.626 4.155-6.609 8.453zm57.251 55.357c-.945 1.428-1.914 3.075-1.055 4.691l-.432.219c-3.784-7.417-8.818-14.177-15.499-20.016-5.414-4.729-13.342-12.078-18.935-16.441-6.479-5.051-11.02-11.752-18.27-15.938-5.722-3.305-11.174-5.767-16.379-6.931-9.603-2.147-18.365.127-26.434 9.715h-.007c-.147-5.353 5.089-11.14 8.38-14.016 7.431-6.5 15.197-10.229 23.875-10.843 4.004-.284 8.202.093 12.65 1.172 14.122 3.421 31.652 15.304 37.724 29.094.936 2.123 1.675 4.216 2.384 6.281-.976.362-2.018 1.198-3.134 2.646-1.407 1.825-2.236 2.969-3.394 4.726-1.147 1.733-2.325 3.784-.243 5.712l.22-.119c2.055 3.688 5.64 6.972 10.054 5.742 1.606-.448 3.113-1.428 4.356-2.64 3.071 3.76 6.688 6.496 10.899 9.485-1.048.318-2.16 1.164-3.369 2.736-1.405 1.824-2.238 2.968-3.391 4.725zm-21.746-36.441c1.918-2.938.442-5.099-1.527-7.941-3.342-4.824-6.602-9.352-11.225-3.349-1.408 1.825-2.236 2.973-3.394 4.723-1.147 1.735-2.325 3.787-.243 5.715l.215-.12c2.059 3.688 5.644 6.973 10.059 5.743 2.482-.692 4.745-2.668 6.115-4.771z" fill="#f6cc4b"/><path d="M395.96 518.156c5.277 7.328-2.791 16.451-3.661 23.725-1.873 15.681-4.811 26.827-15.043 37.189-3.435 3.479-11.369 5.154-16.249 3.637-10.767-3.346-15.907-18.756-16.393-22.954-.911-7.865 1.747-26.211 14.931-38.521 6.445-6.021 12.376-9.178 20.694-9.421 5.403-.158 12.386 1.711 15.721 6.345z" fill="#ffeec8"/><g fill="none" stroke="#000"><path d="M466.031 521.382c-2.123-1.78-4.25-3.417-6.126-4.825-3.932-2.951-7.634-5.989-10.959-9.14-7.188-6.805-12.605-14.112-14.749-22.108-.363-1.353-.709-2.808-1.085-4.291M477.941 536.207a14.164 14.164 0 0 0-1.198-3.018c-2.236-4.099-6.473-8.246-10.712-11.804" stroke-width="6.386"/><path d="M433.108 481.011c-1.023-4.023-2.284-8.256-4.723-11.208-3.636-4.404-10.739-2.113-13.496-6.099a7.211 7.211 0 0 1-1.301-3.977c-.147-5.353 5.089-11.14 8.38-14.016 7.431-6.5 15.197-10.229 23.875-10.843 4.004-.284 8.202.093 12.65 1.172 14.122 3.421 31.652 15.304 37.724 29.094.936 2.123 1.675 4.216 2.384 6.281 1.397 4.081 2.664 8.067 5.023 12.022a32.994 32.994 0 0 0 2.836 4.045c3.071 3.76 6.688 6.496 10.899 9.485.247.179.497.353.747.531 2.966 2.096 5.732 4.144 8.287 6.235 9.137 7.5 15.547 15.637 18.674 28.961 2.667 11.38 2.521 24.188-.305 36.094-1.463 6.171-3.644 12.099-6.527 17.462a61.676 61.676 0 0 1-1.164 2.064c-.041.072-.082.145-.124.213-3.979 6.698-8.297 10.438-12.947 11.94-.325.106-.65.199-.979.285-7.312 1.855-15.414-1.593-24.245-7.641a115.649 115.649 0 0 1-3.562-2.544c-4.877-3.616-8.346-8.462-10.814-13.735-1.764-3.757-3.018-7.736-3.911-11.641-.729-3.174-1.219-6.301-1.551-9.226-.356-3.116-.151-6.726-.113-10.324.031-3.277-.079-6.548-.88-9.435" stroke-width="6.386"/><path d="M403.826 544.521c.151-11.239.548-17.869 7.072-24.393 4.123-4.12 5.222-2.493 7.023-7.109 2.784-7.133-6.322-8.123-11.277-10.739-13.041-6.883-25.389-7.712-38.587-1-13.229 6.732-24.022 14.605-30.632 37.813-1.935 6.783-.918 13.177-3.048 19.937-2.257 7.164-6.174 11.828-11.078 17.39-11.236 12.739-18.54 23.451-18.496 41.341.048 19.02 8.047 39.956 21.232 53.575 15.681 16.205 28.512 8.161 41.963-7.811 9.161-10.877 9.435-26.427 8.017-38.231-.859-7.144-5.116-16.105-3.191-23.152 1.883-6.907 10.304-13.239 14.896-18.756 10.157-12.201 15.938-26.506 16.106-38.865z" stroke-width="6.523"/><path d="M435.104 461.707c-2.832-1.432-6.376-2.021-11.016-1.466-1.49.179-7.883 3.093-9.198 3.463M435.372 461.848a2.472 2.472 0 0 0-.175-.093M523.018 600.748c-8.581-.552-14.772-8.059-18.937-16.746-3.527-7.355-5.603-15.558-6.445-21.099-2.832-18.611-3.729-37.737-16.081-52.709-4.185-5.071-10.027-8.685-15.797-12.346a187.516 187.516 0 0 1-4.302-2.783c-5.962-4-11.358-8.479-14.146-15.229-3.257-7.883-6.003-14.804-11.896-17.968" stroke-width="6.386"/><path d="M536.613 588.05a48.389 48.389 0 0 1-5.85-6.932c-9.156-13.19-10.335-28.964-13.19-45.265-1.65-9.403-4.298-18.358-8.462-26.516-3.784-7.417-8.818-14.177-15.499-20.016-5.414-4.729-13.342-12.078-18.935-16.441-6.479-5.051-11.02-11.752-18.27-15.938-5.722-3.305-11.174-5.767-16.379-6.931-9.603-2.147-18.365.127-26.434 9.715" stroke-width="6.386"/><path d="M461.278 488.638c.071.637.359 1.332.812 2.055 2.168 3.489 8.103 7.694 11.941 9.913 1.91 1.106 9.047-6.739 7.917-13.585-.565-3.431-7.03-10.017-10.201-9.482-3.103.521-10.743 9.945-9.219 12.973.017.037.041.075.062.112M481.828 508.708c.072.637.359 1.332.812 2.059 2.168 3.489 8.103 7.694 11.941 9.913 1.914 1.103 9.048-6.739 7.917-13.585-.564-3.431-7.03-10.02-10.201-9.482-3.099.521-10.742 9.941-9.219 12.969.018.038.038.075.062.113M494.204 530.737c-.171.675-.126 1.5.079 2.425.894 4.027 4.869 9.907 7.633 13.276 1.401 1.706 10.846-3.119 12.202-9.924.681-3.411-3.048-11.855-6.205-12.469-3.127-.612-13.825 5.671-13.182 9.014M499.115 558.455c-.171.675-.127 1.5.079 2.421.894 4.024 4.873 9.907 7.636 13.277 1.397 1.709 10.842-3.116 12.198-9.921.682-3.411-3.048-11.855-6.201-12.472-3.127-.613-13.825 5.674-13.185 9.017M511.618 586.286c.003.644.212 1.363.578 2.13 1.771 3.709 7.209 8.544 10.78 11.171.195.144.466.188.791.141 2.637-.374 8.9-6.606 8.572-12.771-.072-1.394-1.035-3.394-2.367-5.28-1.989-2.818-4.804-5.38-6.729-5.267-3.123.175-11.66 8.588-10.612 11.814.021.062.044.119.071.178M448.118 470.803a8.548 8.548 0 0 0-.134.941M448.118 470.803c.959 3.51 4.314 12.756 8.017 11.167 1.691-.723 3.01-3.661 4.209-5.021.996-1.13 3.201-2.78 3.678-4.242.876-2.692-5.559-9.312-8.28-9.62-4.155-.469-6.956 4.281-7.624 7.716zM447.96 470.193c.042.174.093.38.158.609M453.347 449.071l.004.007M453.347 449.071c3.356 2.13 6.552 4.808 9.966 6.619 4.373 2.318 6.657-2.6 6.992-6.767.511-6.253-5.585-5.555-10.349-8.305-4.153-2.399-9.626 4.155-6.609 8.453zM452.183 448.358c.391.229.777.466 1.164.713M471.647 464.82a17.68 17.68 0 0 0 1.03 2.194c2.059 3.688 5.644 6.973 10.059 5.743 2.482-.691 4.746-2.668 6.115-4.771 1.918-2.938.442-5.099-1.527-7.941-3.342-4.824-6.602-9.352-11.225-3.349-1.408 1.825-2.236 2.973-3.394 4.723-1.147 1.735-2.325 3.787-.243 5.715M520.638 527.912c.007.777.072 1.593.195 2.415.627 4.174 2.832 8.513 7.4 8.91 2.568.223 5.38-.832 7.4-2.322 2.828-2.078 2.205-4.616 1.359-7.969-1.438-5.694-2.9-11.078-9.339-7.078-1.955 1.22-3.133 2-4.835 3.232-1.682 1.223-3.507 2.729-2.229 5.264M526.542 547.764a17.178 17.178 0 0 0-.552 2.363c-.675 4.168.103 8.973 4.329 10.739 2.38.996 5.38.85 7.756.052 3.329-1.12 3.51-3.727 3.729-7.182.366-5.859.616-11.431-6.736-9.585-2.236.562-3.596.945-5.592 1.6-1.973.653-4.171 1.53-3.729 4.335M544.771 568.79h-.007c-.825-.062-1.812.041-3 .343-2.236.562-3.596.945-5.593 1.6-1.972.653-4.171 1.53-3.732 4.335" stroke-width="6.386"/><path d="M533.236 572.746a17.198 17.198 0 0 0-.551 2.362c-.675 4.168.103 8.969 4.328 10.739.391.161.798.295 1.212.397M517.378 496.966c-.007 0-.011.003-.018.003-1.048.318-2.16 1.164-3.369 2.736-1.407 1.822-2.24 2.966-3.394 4.723-.945 1.428-1.914 3.075-1.055 4.691.182.343.448.682.812 1.021" stroke-width="6.386"/><path d="M509.539 507.824c.281.727.627 1.47 1.034 2.195 2.055 3.688 5.641 6.973 10.051 5.743 2.486-.692 4.746-2.668 6.12-4.771 1.273-1.955.514-5.555-.356-7.25M498.704 471.374a.676.676 0 0 0-.103.042c-.976.362-2.018 1.198-3.134 2.646-1.407 1.825-2.236 2.969-3.394 4.726-1.147 1.733-2.325 3.784-.243 5.712" stroke-width="6.386"/><path d="M491.017 482.186c.28.726.626 1.469 1.034 2.195 2.055 3.688 5.64 6.972 10.054 5.742 1.606-.448 3.113-1.428 4.356-2.64h.003M435.104 461.707c.031.018.063.034.093.048.059.034.116.065.175.093l.041.021c7.376 3.668 10.503-7.342 4.616-11.855a7.123 7.123 0 0 0-.559-.391M429.006 442.353c6.476 3.742 16.906 3.174 16.838-7.483v-.003M433.108 481.015v-.004c.318-4.308 3.469-7.403 7.917-6.235 2.079.548 5.325 6.458 5.832 8.523.938 3.814-4.174 8.485-7.794 8.811-2.517.227-2.534-1.571-3.537-3.985-.802-1.925-1.277-5.346-2.414-7.106-.004-.001-.004-.004-.004-.004M444.882 501.599c3.366-5.832 6.544-11.372 13.739-7.976a54.21 54.21 0 0 1 2.835 1.442c1.518.839 3.014 1.773 4.302 2.783.167.134.332.268.492.401 2.504 2.089 2.627 3.548 1.479 6.469-1.869 4.764-7.376 11.992-11.745 8.52-2.634-2.089-5.103-4.044-7.014-5.846-1.911-1.801-3.264-3.451-3.664-4.935M484.396 576.838s.004 0 .004-.003c5.582-3.757 9.185-6.216 14.153 0 1.798 2.242 3.671 4.924 4.821 7.506 1.332 2.976.805 4.339-1.514 6.462a21.02 21.02 0 0 1-3.085 2.312M478.821 545.645h.004c6.346-2.247 10.824-3.859 14.088 3.396 1.179 2.62 2.325 5.688 2.798 8.473.545 3.216-.305 4.404-3.078 5.88-3.302 1.757-8.935 3.26-12.144 1.801l-.01-.003M466.031 521.386v-.004c3.109-5.314 5.732-8.831 12.396-5.688 2.596 1.229 5.459 2.818 7.627 4.63 2.503 2.089 2.63 3.548 1.479 6.469-1.712 4.362-5.441 11.033-9.588 9.417l-.004-.003" stroke-width="6.386"/><path d="M486.571 640.119c.866-9.425-5.462-17.739-14.331-21.9-8.257-3.876-19.688-3.729-28.372-2.044-7.582 1.473-16.913 5.986-23.061 10.951-6.359 5.137-11.27 15.773-3.917 24.41 6.03 7.082 26.19 10.256 37.484 8.831 7.045-.887 13.257-3.496 19.53-6.76 3.856-2.009 12.222-8.598 12.667-13.488z" stroke-width="5.611"/><path d="M361.006 582.707c4.88 1.518 12.814-.157 16.249-3.637 10.232-10.362 13.17-21.509 15.043-37.189.87-7.273 8.938-16.396 3.661-23.725-3.335-4.634-10.318-6.503-15.722-6.346-8.318.243-14.249 3.4-20.694 9.421-13.184 12.311-15.842 30.656-14.931 38.521.488 4.199 5.628 19.609 16.394 22.955z" stroke-width="5.875"/></g></g></svg>