<svg xmlns="http://www.w3.org/2000/svg" width="850.394" height="850.394" viewBox="0 0 850.394 850.394" overflow="visible"><path d="M615.56 222.46c-.29.61-.1.54-.1 1.27 0 2.6 2.21 4.71 4.93 4.71 2.721 0 4.92-2.11 4.92-4.71 0-.98.101-1.23-.43-1.98l.17-.43c1.83.77 3.47 2.02 4.891 3.51l-.11.1c-1.95 1.8-4.19 3.4-6.78 4.33-1.58.55-3.729.65-5.38.32-.689-.15-1.55-.32-2.189-.62-.54-.24-1.011-.82-1.511-1.07-.75-.35-1.6-.03-2.31-.47-.811-.51-.19-1.09.28-1.93.779-1.37 1.97-2.55 3.38-3.42l.239.39zM561.82 390.18h114.72V506.6H560v-.6z" fill="#fff"/><path d="M212.37 219.91c1.07 0 1.94-.78 1.94-1.73 0-.96-.87-1.73-1.94-1.73-1.07 0-1.95.77-1.95 1.73 0 .95.88 1.73 1.95 1.73zm23.25 32.16c-.06.02-.14.03-.21.04l.45-.03c-.08 0-.16 0-.24-.01zm23.05-33.9c0-.95-.87-1.73-1.94-1.73s-1.93.78-1.93 1.73.86 1.73 1.93 1.73 1.94-.78 1.94-1.73zm-51.81 54.89c-7.04-8.2-13.48-19.42-17.07-31.99-1.89-6.58-2.99-13.52-2.99-20.6 0-3.66.01-11.61.12-16.62l-.48-.37c5.1-6.54 12.47-14.13 12.47-14.13 1.2-.87 4.77-2.4 9.47-4.28v-.09h54.26v.37c1.66 2.04 3.41 4.29 5.23 6.8 2.12 2.92 10.37 9.4 12.26 17.01.13 4.7.18 7.41.18 11.31 0 6.9-1.09 13.68-2.94 20.12-3.7 12.92-10.45 24.46-17.56 32.78-3.85 4.51-7.81 8.06-11.44 10.38-5.08 2.45-8.95 2.1-14.82 2.1-5.43 0-8.91.54-13.67-1.57-4.22-2.36-8.73-6.23-13.02-11.22z" fill="#ffeec8"/><path d="M676.54 390.18H561.82L560 506v.6h-19.42l-2.51-.189c3.189-40.771 3.35-72.88 3.35-72.88l-64.8 124.68-29.75-10.88c4.62-16.021 18.91-65.82 25.36-91.87C483.47 410.04 520.64 335.1 520.64 335.1c1.67-3.1 6.641-8.39 13.83-14.62l2.7.03 82.7 55.3 2.08.23c-.08.36-.16.71-.23 1.05l58.46-37.79-19.26-50.02.19-.25c8.89 6.89 19.63 15.68 29.34 23.84 12.31 10.35 22.97 19.69 26.21 22.92 0 0 37.18 74.94 48.42 120.37 7.29 29.54 24.689 89.62 26.65 96.37l-30.9 11.3c.27-1.29.54-2.33.81-3.061L695.66 436.07l4.51 70.489-.689.04h-22.94V390.18z" fill="#33a048"/><path d="M560 506.6H699.48l.689-.04.54 8.521 35.74 248.84-229.44 5.79s27.851-224.62 30.641-258.08c.149-1.75.29-3.5.42-5.22l2.51.189H560z" fill="#fff"/><path d="M629.94 224.83c-1.421-1.49-3.061-2.74-4.891-3.51a10.52 10.52 0 0 0-4.439-.89c-1.83.04-3.7.64-5.29 1.64-1.41.87-2.601 2.05-3.38 3.42-.471.84-1.091 1.42-.28 1.93.71.44 1.56.12 2.31.47.5.25.971.83 1.511 1.07.64.3 1.5.47 2.189.62 1.65.33 3.8.23 5.38-.32 2.59-.93 4.83-2.53 6.78-4.33l.11-.1zm-13.3 37.67c.471-.75.931-1.5 1.4-2.21-2.87.29-13.66-2.19-15.22 1.71-.96.4-2.54-.63-3.62-.87-2.01-.47-4.36-.03-6.32.54-3.149.92-3.31 2.16-2.3 3.47v.01c1.04 1.35 3.28 2.78 4.729 3.97 3.921 3.24 9.021 3.65 13.79 1.55 3.501-1.56 5.571-4.95 7.541-8.17zm-56.03-38.28c-.17-7.26-.49-15.03 8.439-21.4l-.2-.38c4.521-2.36 10.03-4.32 16.771-5.57 0 0 22.93-5.1 43.33 2.97 2.52 1 4.8 1.94 6.88 2.86 5.15 5.38 10.27 10.64 14.21 14.59 10.39 10.4 3.32 35.92 3.1 37.5-.18 1.33-.58 2.58-1.149 3.74-1.891 3.95-5.62 7.05-9.11 10.07-8 6.93-12.46 19.17-23.96 20.56-7.9.97-17.65 3.68-24.95-.64-.7-.41-1.37-.88-2.02-1.43-1.15-.97-2.38-1.93-3.63-2.9-3.761-2.89-7.74-5.83-10.58-9.42-2.38-3.01-14.48-17.1-14.48-29.34-.001-11.14-2.451-13.81-2.651-21.21zm9.66.62l.101.09c1.939 1.8 4.189 3.4 6.78 4.33 1.569.55 3.729.65 5.369.32.69-.15 1.561-.32 2.2-.62.54-.24 1-.82 1.5-1.07.761-.35 1.61-.03 2.311-.47.83-.51.2-1.09-.261-1.93-1.67-2.94-5.229-4.98-8.67-5.06-3.7-.08-6.87 1.8-9.33 4.41zM791.91 553.15c7.43 23.72 8.84 52.939 6.24 62.199-1.53 5.471-8.61 13.2-15.29 12.42-7.4-.8-9.091-18.22-12.66-23.77-5.59 1.15-2.72 9.31-6.86 9.31-3.58-3.569-4.78-13.42-4.78-23.72 0-9.87 1.101-20.16 2.271-25.76l30.9-11.3.179.621z" fill="#ffeec8"/><path d="M660.92 289.28l19.26 50.02-58.46 37.79c.07-.34.15-.69.23-1.05 4.89-21.48 26.92-77.58 32.49-92.07 1.949 1.44 4.069 3.05 6.31 4.78.12.09.24.18.36.28l-.19.25zM551.2 201.54c2.55-3.26 3.8-10.48 7.74-11.99 3.909-1.5 8.329.43 12.26-.73 4-1.2 7.12-7 11.439-7.67 7.061-1.1 8.99 3.76 13.25 4.25 6.49.74 9.82-4.98 15.98-4.68 4.79.24 7.57 5.12 12.52 5.11 5.351-.01 9.79-3.74 14.641-.44 3.739 2.54 4.6 7.46 9.479 8.5 4.26.9 14.431 2.55 17.83 18.7l1.34-.11c.23 2.88.351 5.76.351 8.6 0 4.16.05 9.5.05 14.88h-.05c-12.29-20.86-17.391-26.7-32.2-33.26-2.08-.92-4.36-1.86-6.88-2.86-20.4-8.07-43.33-2.97-43.33-2.97-6.74 1.25-12.25 3.21-16.771 5.57-18.55 9.66-20.199 25.87-20.199 25.87l-.2.02c-.32-3.41-.44-5.75-.49-6.49-.42-5.98.25-13.25 1.74-20.61l1.5.31z" fill="#fff"/><path d="M668.03 235.96h.05c-.01 9.94-.22 20.06-1.32 23.36 0 0-3.39 15.3-7.64 23.37l-2.21-.02c-2.53-5.01-5.25-13.08-4.601-23.98l-.319-.16c.569-1.16.97-2.41 1.149-3.74.221-1.58 7.29-27.1-3.1-37.5-3.94-3.95-9.06-9.21-14.21-14.59 14.811 6.56 19.911 12.4 32.201 33.26z" fill="#33a048"/><path d="M667.68 212.48l-1.34.11c-3.399-16.15-13.57-17.8-17.83-18.7-4.88-1.04-5.74-5.96-9.479-8.5-4.851-3.3-9.29.43-14.641.44-4.949.01-7.729-4.87-12.52-5.11-6.16-.3-9.49 5.42-15.98 4.68-4.26-.49-6.189-5.35-13.25-4.25-4.319.67-7.439 6.47-11.439 7.67-3.931 1.16-8.351-.77-12.26.73-3.94 1.51-5.19 8.73-7.74 11.99l-1.5-.31c2.09-10.36 5.79-20.91 10.33-28.29 13.06-21.28 34.359-30.46 67.16-26.64 22.309 2.61 38.009 34.84 40.489 66.18z" fill="#33a048"/><path d="M654.44 283.97c-5.57 14.49-27.601 70.59-32.49 92.07l-2.08-.23-26.61-85.9.71-1.39c7.3 4.32 17.05 1.61 24.95.64 11.5-1.39 15.96-13.63 23.96-20.56 3.49-3.02 7.22-6.12 9.11-10.07l.319.16c-.649 10.9 2.07 18.97 4.601 23.98 2 3.97 3.89 6.01 3.89 6.01l-.05.07c-2.24-1.73-4.36-3.34-6.31-4.78z" fill="#ffeec8"/><path d="M624.88 221.75c.53.75.43 1 .43 1.98 0 2.6-2.199 4.71-4.92 4.71-2.72 0-4.93-2.11-4.93-4.71 0-.73-.19-.66.1-1.27l-.239-.39c1.59-1 3.46-1.6 5.29-1.64 1.58-.03 3.06.29 4.439.89l-.17.43zm-4.45 4.8c1.66 0 3.011-1.18 3.011-2.64s-1.351-2.65-3.011-2.65-2.989 1.19-2.989 2.65 1.329 2.64 2.989 2.64z" fill="#fff"/><path d="M623.44 223.91c0 1.46-1.351 2.64-3.011 2.64s-2.989-1.18-2.989-2.64 1.329-2.65 2.989-2.65 3.011 1.19 3.011 2.65zm-1.93 0c0-.65-.479-1.18-1.08-1.18-.59 0-1.069.53-1.069 1.18 0 .65.479 1.17 1.069 1.17.6 0 1.08-.52 1.08-1.17z" fill="#231f20"/><path d="M620.43 222.73c.601 0 1.08.53 1.08 1.18 0 .65-.479 1.17-1.08 1.17-.59 0-1.069-.52-1.069-1.17-.001-.65.479-1.18 1.069-1.18zM593.26 289.91l26.61 85.9-82.7-55.3-2.7-.03c2.82-2.43 5.98-5.01 9.41-7.66 9.16-7.06 20.28-14.62 32.18-21.28 3.96-2.22 8.011-4.34 12.101-6.3l.16-1.05c1.25.97 2.479 1.93 3.63 2.9.649.55 1.319 1.02 2.02 1.43l-.711 1.39z" fill="#fff"/><path d="M602.82 262c1.56-3.9 12.35-1.42 15.22-1.71-.47.71-.93 1.46-1.4 2.21-5.5 2.48-8.68 2.51-12.59 2.82-3.859.3-9.6.95-13.47-.17v-.01c-1.01-1.31-.85-2.55 2.3-3.47 1.96-.57 4.311-1.01 6.32-.54 1.08.24 2.66 1.27 3.62.87z" fill="#ee947d"/><path d="M616.64 262.5c-1.97 3.22-4.04 6.61-7.54 8.17-4.77 2.1-9.869 1.69-13.79-1.55-1.449-1.19-3.689-2.62-4.729-3.97 3.87 1.12 9.61.47 13.47.17 3.909-.31 7.089-.34 12.589-2.82z" fill="#ee947d"/><path d="M588.27 225.49c.461.84 1.091 1.42.261 1.93-.7.44-1.55.12-2.311.47-.5.25-.96.83-1.5 1.07-.64.3-1.51.47-2.2.62-1.64.33-3.8.23-5.369-.32-2.591-.93-4.841-2.53-6.78-4.33l-.101-.09c2.461-2.61 5.631-4.49 9.33-4.41 3.44.08 7 2.12 8.67 5.06zm-8.5 1.06c1.65 0 3-1.18 3-2.64s-1.35-2.65-3-2.65c-1.68 0-3.01 1.19-3.01 2.65s1.33 2.64 3.01 2.64z" fill="#fff"/><path d="M582.77 223.91c0 1.46-1.35 2.64-3 2.64-1.68 0-3.01-1.18-3.01-2.64s1.33-2.65 3.01-2.65c1.65 0 3 1.19 3 2.65zm-1.93 0c0-.65-.479-1.18-1.07-1.18-.6 0-1.09.53-1.09 1.18 0 .65.49 1.17 1.09 1.17.59 0 1.07-.52 1.07-1.17z" fill="#fff"/><path d="M579.77 222.73c.591 0 1.07.53 1.07 1.18 0 .65-.479 1.17-1.07 1.17-.6 0-1.09-.52-1.09-1.17 0-.65.49-1.18 1.09-1.18z" fill="#fff"/><path d="M476.62 558.21l-.97 1.86c2.619 7.149 6.1 44.76-1.7 52.55-4.101 0-1.25-8.18-6.86-9.311-3.57 5.54-5.26 22.95-12.649 23.761-6.671.8-13.761-6.96-15.29-12.41-2.601-9.28-1.21-38.49 6.239-62.23l1.48-5.1 29.75 10.88zM405.93 535.3c7.44 23.72 8.85 52.95 6.24 62.2-1.52 5.48-8.59 13.2-15.28 12.43-7.39-.81-9.09-18.229-12.66-23.779-5.59 1.17-2.73 9.31-6.86 9.31-3.58-3.57-4.78-13.41-4.78-23.71 0-11.96 1.62-24.53 3.02-28.63l27.64-8.9 2.2-.569c.31 1.068.48 1.648.48 1.648z" fill="#ffeec8"/><path d="M405.45 533.65l-2.2.569-27.64 8.9c.02-.07.05-.14.07-.2L317.2 414.95l.01.2c-23.58-69.75-11.1-108.25-8.69-114.54 8.65 5.81 16.69 11.85 22.17 17.33 0 0 37.17 74.95 48.41 120.38 7.01 28.39 23.35 84.97 26.35 95.33z" fill="#fff"/><path d="M323.7 540.17l.24-.01c.6 10.189 1 21.83 1 34.78 0 14.52-1.59 151.81-3.83 186.76l-73.29-3.26-6.58-162.36-13.98-.07-7.15 161.2L148 754l-1.17.06c-2.18-41.109-3.7-165.54-3.7-179.779 0-10.92.22-24.351.58-38.75l3.11.01H320.9l2.55-.13.25 4.759z" fill="#231f20"/><path d="M317.21 415.15l6.24 120.26-2.55.13h-86.66V309.89l-.03-1.89c18.06-.35 33.38-10.97 39.43-25.8l.77-2.27c4.33 2.41 9.51 5.37 15.03 8.65 6.19 3.69 12.8 7.8 19.08 12.03-2.41 6.29-14.89 44.79 8.69 114.54zM278.8 180.72v4.26h-91.72v-4.26l21.67-88.37h48.38z" fill="#9e5c26"/><path d="M274.41 279.93l-.77 2.27c-6.05 14.83-21.37 25.45-39.43 25.8-.31.02-.62.02-.94.02-18.44 0-34.17-10.7-40.35-25.75l-3.44-.44a577.74 577.74 0 0 1 17.38-8.77c4.29 4.99 8.8 8.86 13.02 11.22 4.76 2.11 8.24 1.57 13.67 1.57 5.87 0 9.74.35 14.82-2.1 3.63-2.32 7.59-5.87 11.44-10.38l2.57.05s4.82 2.5 12.03 6.51z" fill="#ffeec8"/><path d="M234.24 309.89v225.65h-87.42l-3.11-.01c1.21-49.351 3.94-110.05 4.39-119.9 21.22-70.5 4.56-109.57 4.56-109.57l-2.88-.9c8.76-6.03 19.01-12.06 28.42-17.27 3.96-2.19 7.78-4.23 11.28-6.06l3.44.44c6.18 15.05 21.91 25.75 40.35 25.75.32 0 .63 0 .94-.02l.03 1.89z" fill="#9e5c26"/><path d="M152.66 306.06s16.66 39.07-4.56 109.57l.06-1.38-58.47 127.98-28.8-9.28-.99-.01c3-10.36 19.33-66.94 26.36-95.32 11.24-45.42 48.4-120.38 48.4-120.38 3.84-3.84 9.13-7.96 15.12-12.08l2.88.9z" fill="#fff"/><path d="M89.69 542.23c1.41 3.869 3.08 16.64 3.08 28.779 0 10.32-1.2 20.19-4.79 23.771-4.11 0-1.26-8.181-6.87-9.32-3.56 5.54-5.26 22.96-12.65 23.771-6.66.789-13.75-6.971-15.28-12.421-2.6-9.27-1.21-38.479 6.24-62.22 0 0 .17-.58.48-1.649l.99.01 28.8 9.279z" fill="#ffeec8"/><g fill="none" stroke="#231f20"><path d="M59.42 534.59s.17-.58.48-1.649c3-10.36 19.33-66.94 26.36-95.32 11.24-45.42 48.4-120.38 48.4-120.38 3.84-3.84 9.13-7.96 15.12-12.08 8.76-6.03 19.01-12.06 28.42-17.27 3.96-2.19 7.78-4.23 11.28-6.06a577.74 577.74 0 0 1 17.38-8.77c.45-.22.69-.33.69-.33" stroke-width="14"/><path d="M147.09 758.41c-.09-1.32-.17-2.771-.26-4.351-2.18-41.109-3.7-165.54-3.7-179.779 0-10.92.22-24.351.58-38.75 1.21-49.351 3.94-110.05 4.39-119.9l.06-1.38-58.47 127.98c1.41 3.869 3.08 16.64 3.08 28.779 0 10.32-1.2 20.19-4.79 23.771-4.11 0-1.26-8.181-6.87-9.32-3.56 5.54-5.26 22.96-12.65 23.771-6.66.789-13.75-6.971-15.28-12.421-2.6-9.27-1.21-38.479 6.24-62.22M405.93 535.3s-.17-.58-.48-1.649c-3-10.36-19.34-66.94-26.35-95.33-11.24-45.43-48.41-120.38-48.41-120.38-5.48-5.48-13.52-11.52-22.17-17.33-6.28-4.23-12.89-8.34-19.08-12.03-5.52-3.28-10.7-6.24-15.03-8.65-7.21-4.01-12.03-6.51-12.03-6.51" stroke-width="14"/><path d="M323.88 543.67l-.18-3.5-.25-4.76-6.24-120.26-.01-.2 58.48 127.97c-.02.061-.05.13-.07.2-1.4 4.1-3.02 16.67-3.02 28.63 0 10.3 1.2 20.14 4.78 23.71 4.13 0 1.27-8.14 6.86-9.31 3.57 5.55 5.27 22.97 12.66 23.779 6.69.771 13.76-6.949 15.28-12.43 2.61-9.25 1.2-38.48-6.24-62.2" stroke-width="14"/><path d="M321.11 761.7c2.24-34.95 3.83-172.24 3.83-186.76 0-12.95-.4-24.591-1-34.78M248 762.98l-.18-4.54-6.58-162.36-13.98-.07-7.15 161.2-.26 5.77M146.82 535.54H320.9" stroke-width="14"/><path d="M201.02 220.59c2.81-3.4 6.61-5.99 11.13-5.89 3.75.08 7.62 2.3 9.43 5.5" stroke-width="6.726" stroke-linecap="square" stroke-miterlimit="10"/><path d="M217.75 218.28c0 2.83-2.4 5.13-5.36 5.13-2.97 0-5.38-2.3-5.38-5.13 0-.7-.04-1.06.1-1.45" stroke-width="3.363" stroke-linecap="square" stroke-miterlimit="10"/><path d="M268.13 220.43c-2.81-3.4-6.62-5.99-11.14-5.89-3.74.09-7.62 2.3-9.43 5.5" stroke-width="6.726" stroke-linecap="square" stroke-miterlimit="10"/><path d="M251.33 217.37c.01.17.06.35.06.75 0 2.83 2.41 5.13 5.37 5.13s5.37-2.3 5.37-5.13c0-.77.05-1.13-.14-1.58" stroke-width="3.363" stroke-linecap="square" stroke-miterlimit="10"/><path d="M186.2 210.05c-1.18-.43-2.5-.57-3.94-.34-5.5.88-4.76 7.05-3.24 10.13 3.66 7.49 1.98 10.24 2.45 15.96.18 2.18 2.66 6.4 7.83 5.41M280.74 209.5c.85-.3 1.78-.46 2.78-.43.38 0 .77.04 1.17.1 5.5.88 4.76 7.05 3.24 10.13-3.67 7.48-1.99 10.24-2.45 15.96-.18 2.17-2.66 6.4-7.83 5.41M222.59 265.71c6.75 2.7 17.48 2.38 23.22-.13" stroke-width="6.726"/><path d="M280.11 208.59c.01.19.01.38.02.57.13 4.7.18 7.41.18 11.31 0 6.9-1.09 13.68-2.94 20.12-3.7 12.92-10.45 24.46-17.56 32.78-3.85 4.51-7.81 8.06-11.44 10.38-5.08 2.45-8.95 2.1-14.82 2.1-5.43 0-8.91.54-13.67-1.57-4.22-2.36-8.73-6.23-13.02-11.22-7.04-8.2-13.48-19.42-17.07-31.99-1.89-6.58-2.99-13.52-2.99-20.6 0-3.66.01-11.61.12-16.62" stroke-width="13.451"/><path d="M235.62 252.07c2.55-.48 2.09-1.98 4.84-1.32 2.37.57 4.88 1.75 5.47-1.95.41-2.55-1.51-2.88-2.53-4.93M235.62 252.07c.08.01.16.01.24.01l-.45.03c.07-.01.15-.02.21-.04zM227.61 220.31c4.24 4.66 2.96 15.61 1.06 21.31l-.8 2.23c-1.02 2.04-2.93 2.37-2.53 4.92.59 3.7 3.1 2.52 5.47 1.95 2.74-.66 2.12 1.25 4.81 1.35" stroke-width="6.726"/><path d="M214.31 218.18c0 .95-.87 1.73-1.94 1.73-1.07 0-1.95-.78-1.95-1.73 0-.96.88-1.73 1.95-1.73 1.07 0 1.94.77 1.94 1.73zM258.67 218.17c0 .95-.87 1.73-1.94 1.73s-1.93-.78-1.93-1.73.86-1.73 1.93-1.73 1.94.78 1.94 1.73z" stroke-width="3.363"/><path d="M224.79 211.75c-2.29-4.83-11.25-6.7-15.8-5.8-4.26.85-6.37 1.36-10.83 4.81M243.37 210.69c2.29-4.82 11.25-6.7 15.79-5.8 4.27.85 6.38 1.37 10.83 4.82" stroke-width="6.726"/><path d="M262.64 185.35c1.66 2.04 3.41 4.29 5.23 6.8 2.12 2.92 10.37 9.4 12.26 17.01.04.15.07.3.1.45.15.66.24 1.32.27 1.99M182.65 185.31c-.56 2.77-.87 5.72-.87 8.82l.48 15.58c.8-1.68 2.34-3.89 4.18-6.23 5.1-6.54 12.47-14.13 12.47-14.13 1.2-.87 4.77-2.4 9.47-4.28M283.47 209.35c.01-.09.03-.18.05-.28.77-4.38 3.16-10.42 2.67-14.47a70.8 70.8 0 0 0-1.8-9.62c-.09-.37-.19-.73-.29-1.1" stroke-width="13.451"/><path d="M273.64 282.2c-6.05 14.83-21.37 25.45-39.43 25.8-.31.02-.62.02-.94.02-18.44 0-34.17-10.7-40.35-25.75M445.39 552.43l1.48-5.1c4.62-16.021 18.91-65.82 25.36-91.87 11.24-45.42 48.41-120.36 48.41-120.36 1.67-3.1 6.641-8.39 13.83-14.62 2.82-2.43 5.98-5.01 9.41-7.66 9.16-7.06 20.28-14.62 32.18-21.28 3.96-2.22 8.011-4.34 12.101-6.3M445.39 552.43c-7.449 23.74-8.84 52.95-6.239 62.23 1.529 5.45 8.619 13.21 15.29 12.41 7.39-.811 9.079-18.221 12.649-23.761 5.61 1.131 2.76 9.311 6.86 9.311 7.8-7.79 4.319-45.4 1.7-52.55l.97-1.86 64.8-124.68s-.16 32.109-3.35 72.88c-.13 1.72-.271 3.47-.42 5.22-2.79 33.46-30.641 258.08-30.641 258.08M791.91 553.15l-.18-.62c-1.961-6.75-19.36-66.83-26.65-96.37-11.24-45.43-48.42-120.37-48.42-120.37-3.24-3.23-13.9-12.57-26.21-22.92-9.71-8.16-20.45-16.95-29.34-23.84-.12-.1-.24-.19-.36-.28-2.24-1.73-4.36-3.34-6.31-4.78M736.45 763.92l-35.74-248.84-.54-8.521-4.51-70.489 65.98 124.7c-.27.73-.54 1.771-.81 3.061-1.17 5.6-2.271 15.89-2.271 25.76 0 10.3 1.2 20.15 4.78 23.72 4.141 0 1.271-8.159 6.86-9.31 3.569 5.55 5.26 22.97 12.66 23.77 6.68.78 13.76-6.949 15.29-12.42 2.6-9.26 1.189-38.479-6.24-62.199" stroke-width="14"/><path stroke-width="14" d="M443.64 546.15l3.23 1.18 29.75 10.88 7.65 2.8M796.65 550.73l-4.92 1.8-30.9 11.3-4.81 1.76"/><path stroke-width="13.451" d="M593.26 289.91l26.61 85.9-82.7-55.3M655.18 282.05c-.199.52-.439 1.16-.739 1.92-5.57 14.49-27.601 70.59-32.49 92.07-.08.36-.16.71-.23 1.05l58.46-37.79-19.26-50.02"/><path d="M607.61 217.65c4.17-6.95 14.31-8.05 20.109-5.79 3.13 1.22 5.021 2.66 5.84 3.47M585.73 215.09c-5.811-5.18-17.421-4.07-21.771 1.82M592.62 219.16c6.05 4.53 2.85 19.86 1.31 24.44-.47 1.45-2.56 4.03-1.09 5.55.71.74 1.62.34 2.51.48.931.14 1.471.24 2.54.63 2.051.76 3.54 1.22 5.391-.12 2-1.45 1.84-2.47 4.79-2.33 2.489.11 5.239.81 5.109-3-.09-2.64-2.069-2.6-3.479-4.46" stroke-width="6.726"/><path d="M590.58 265.14c-1.01-1.31-.85-2.55 2.3-3.47 1.96-.57 4.311-1.01 6.32-.54 1.08.24 2.66 1.27 3.62.87.16-.06.31-.17.43-.32" stroke-width="5.044"/><path d="M602.64 262.68c.03-.25.091-.47.181-.68 1.56-3.9 12.35-1.42 15.22-1.71-.47.71-.93 1.46-1.4 2.21-1.97 3.22-4.04 6.61-7.54 8.17-4.77 2.1-9.869 1.69-13.79-1.55-1.449-1.19-3.689-2.62-4.729-3.97" stroke-width="5.044"/><path d="M590.56 265.14h.021v.01c3.87 1.12 9.61.47 13.47.17 3.91-.31 7.09-.34 12.59-2.82.011 0 .011-.01.021-.01" stroke-width="5.044"/><path d="M630.84 225.85c-.29-.35-.59-.69-.899-1.02-1.421-1.49-3.061-2.74-4.891-3.51a10.52 10.52 0 0 0-4.439-.89c-1.83.04-3.7.64-5.29 1.64-1.41.87-2.601 2.05-3.38 3.42-.471.84-1.091 1.42-.28 1.93.71.44 1.56.12 2.31.47.5.25.971.83 1.511 1.07.64.3 1.5.47 2.189.62 1.65.33 3.8.23 5.38-.32 2.59-.93 4.83-2.53 6.78-4.33" stroke-width="3.363" stroke-linecap="square" stroke-miterlimit="10"/><path d="M615.56 222.46c-.29.61-.1.54-.1 1.27 0 2.6 2.21 4.71 4.93 4.71 2.721 0 4.92-2.11 4.92-4.71 0-.98.101-1.23-.43-1.98" stroke-width="1.681" stroke-linecap="square" stroke-miterlimit="10"/><path d="M617.44 223.91c0 1.46 1.329 2.64 2.989 2.64s3.011-1.18 3.011-2.64-1.351-2.65-3.011-2.65-2.989 1.19-2.989 2.65z" stroke-width="1.681"/><path d="M619.36 223.91c0 .65.479 1.17 1.069 1.17.601 0 1.08-.52 1.08-1.17 0-.65-.479-1.18-1.08-1.18-.589 0-1.069.53-1.069 1.18z" stroke-width="1.681"/><path d="M569.37 225.85c.29-.35.58-.69.899-1.01 2.461-2.61 5.631-4.49 9.33-4.41 3.44.08 7 2.12 8.67 5.06.461.84 1.091 1.42.261 1.93-.7.44-1.55.12-2.311.47-.5.25-.96.83-1.5 1.07-.64.3-1.51.47-2.2.62-1.64.33-3.8.23-5.369-.32-2.591-.93-4.841-2.53-6.78-4.33" stroke-width="3.363" stroke-linecap="square" stroke-miterlimit="10"/><path d="M584.63 222.46c.3.61.12.54.12 1.27 0 2.6-2.23 4.71-4.94 4.71-2.72 0-4.939-2.11-4.939-4.71 0-.98-.09-1.23.439-1.98" stroke-width="1.681" stroke-linecap="square" stroke-miterlimit="10"/><path d="M582.77 223.91c0 1.46-1.35 2.64-3 2.64-1.68 0-3.01-1.18-3.01-2.64s1.33-2.65 3.01-2.65c1.65 0 3 1.19 3 2.65z" stroke-width="1.681"/><path d="M580.84 223.91c0 .65-.479 1.17-1.07 1.17-.6 0-1.09-.52-1.09-1.17 0-.65.49-1.18 1.09-1.18.59 0 1.07.53 1.07 1.18z" stroke-width="1.681"/><path d="M635.42 202.28c.13.14.271.28.41.42 5.15 5.38 10.27 10.64 14.21 14.59 10.39 10.4 3.32 35.92 3.1 37.5-.18 1.33-.58 2.58-1.149 3.74-1.891 3.95-5.62 7.05-9.11 10.07-8 6.93-12.46 19.17-23.96 20.56-7.9.97-17.65 3.68-24.95-.64-.7-.41-1.37-.88-2.02-1.43-1.15-.97-2.38-1.93-3.63-2.9-3.761-2.89-7.74-5.83-10.58-9.42-2.38-3.01-14.48-17.1-14.48-29.34 0-11.14-2.45-13.81-2.649-21.21-.17-7.26-.49-15.03 8.439-21.4" stroke-width="13.451"/><path d="M574.56 289.07c-19.619-12.05-24.72-46.17-26.109-60.74-.32-3.41-.44-5.75-.49-6.49-.42-5.98.25-13.25 1.74-20.61 2.09-10.36 5.79-20.91 10.33-28.29 13.06-21.28 34.359-30.46 67.16-26.64 22.31 2.61 38.01 34.84 40.489 66.18.23 2.88.351 5.76.351 8.6 0 4.16.05 9.5.05 14.88-.01 9.94-.22 20.06-1.32 23.36 0 0-3.39 15.3-7.64 23.37" stroke-width="13.451"/><path d="M652.31 258.69c-.649 10.9 2.07 18.97 4.601 23.98 2 3.97 3.89 6.01 3.89 6.01 1.061.7 2.12 1.36 3.141 1.99" stroke-width="13.451"/><path d="M152.66 306.06s16.66 39.07-4.56 109.57c-1.13 3.75-2.37 7.59-3.72 11.521M308.89 299.69s-.14.31-.37.92c-2.41 6.29-14.89 44.79 8.69 114.54.2.6.4 1.2.61 1.8M234.24 309.89v226.87M60.89 532.95l28.8 9.28M403.25 534.22l-27.64 8.9-1.16.37M560 506l1.82-115.82h114.72v113.01M540.58 506.6h158.9" stroke-width="14"/><path d="M548.65 228.31s1.649-16.21 20.199-25.87c4.521-2.36 10.03-4.32 16.771-5.57 0 0 22.93-5.1 43.33 2.97 2.52 1 4.8 1.94 6.88 2.86 14.81 6.56 19.91 12.4 32.2 33.26" stroke-width="13.451"/><path d="M550.36 207.91c-.49.13 3.479-4.68.84-6.37 2.55-3.26 3.8-10.48 7.74-11.99 3.909-1.5 8.329.43 12.26-.73 4-1.2 7.12-7 11.439-7.67 7.061-1.1 8.99 3.76 13.25 4.25 6.49.74 9.82-4.98 15.98-4.68 4.79.24 7.57 5.12 12.52 5.11 5.351-.01 9.79-3.74 14.641-.44 3.739 2.54 4.6 7.46 9.479 8.5 4.26.9 14.431 2.55 17.83 18.7" stroke-width="6.726"/><path stroke-width="20.176" stroke-linecap="round" stroke-linejoin="round" d="M285.65 184.98h13.59"/><path stroke-width="14" stroke-linecap="round" stroke-linejoin="round" d="M182.83 184.98H285.65"/><path stroke-width="20.176" stroke-linecap="round" stroke-linejoin="round" d="M167.53 184.98H182.83"/><path stroke-width="14" d="M278.8 180.72l-21.67-88.37h-48.38l-21.67 88.37"/></g><path fill="none" d="M0 0h850.394v850.394H0z"/></svg>