<svg id="Layer_1" xmlns="http://www.w3.org/2000/svg" viewBox="0 0 850 850"><style>.st0{fill:#ffeec8}.st1{fill:#7a7878}.st2{fill:#ffffc2}.st3{fill:#c8c8c8}.st4{fill:#fff}.st5,.st6{fill:none;stroke:#231f20;stroke-width:21;stroke-linecap:round;stroke-miterlimit:10}.st6{stroke-width:7}</style><path class="st0" d="M557.1 361.8l-.7-2.5-.5-2.3v-4.2l.2-2.3.3-2 .7-1.7.8-1.8 1-1.7 1-1.8 1.2-1.2 1.3-1.5 1.5-1.3 1.5-1 3.2-2 3.5-1.2 1.8-.5 1.7-.3h5.5l1.8.5 1.5.5 1.7.8 1.5.7 1.5 1.3 1.3 1.2 1.2 1.3 1 1.7 1 1.8 6.3 14.5 8.5 18.7 12.7 29 15 32.8 15.5 33.2 7.5 16 7.3 14.8 8.7 17 3.8 7.2 3.5 6.3 3.2 5.2 2.5 4 2.3 2.5.7.8.8.2 1 .3 1-.3.7-.2.8-.8.5-.7.7-1 .8-2.5.7-3.3.5-3.5.3-4v-12l-.5-7.2-.8-7-1-4.3-.5-4.2-.5-3.8v-6.5l.3-2.7.5-2.5.7-2.5.8-2.3 1-2 1-1.7 1.2-1.8 1.3-1.5 1.2-1.2 1.5-1.3 1.5-1.2 3.3-1.5 3.2-1.3 3.3-.5h3l3 .3 2.7 1 2.3 1.2 1 .8.7 1 .8 1 .5 1 .5 1.2v1.3l.5 3.2.5 3.8 1.5 8.7 2.2 10 2.8 11 5.5 22.3 2.5 10.5 1.7 9.5.8 4.5.7 5.2.5 5.5.5 6 .3 12.8v13l-.3 6.7-.5 6.3-.5 6.5-.7 6-1 5.5-1 5.2-1.3 4.8-1.5 4.2-.5 1.8-.5 1.7-.2 4.5-.3 4.8.5 5.2.8 5.8 1 6 1.5 6.2 1.5 6.3 3.2 12.2 3.5 11.5 3.5 9.8 2.5 7.5-143.2 44-4-4.8-11-13-7.8-9.2-8.5-10.8-9.2-12-9.8-13.5-10-14.2-10.2-15-9.8-15.8-4.7-8-4.8-8.2-4.5-8.3-4.2-8.2-4-8.3-3.8-8.2-3.5-8.3-3.2-8-2.8-8.2-2.2-8-4-13.8-4.8-14.7-5.2-21.8-4.8-20.5-4.2-18.5-1.5-8.5-1.5-8-1.3-7.2-.7-6.8-.5-5.7v-5l.2-4.3.3-1.7.5-1.8.5-1.2.5-1 .7-.8 1-.5 6-2.7 4.8-1.5 2-.3 1.7-.2h1.5l1.3.5 1.5.5 1.2.7 2.5 2.3 6.5 6.7-11.5-32.5-1-2.2-2.5-7.3-1.5-6-.5-2.7-.5-2.3v-3.7l.3-1.8.2-1.5 1.3-3 1.5-2.7 2-3 2.7-1.5 3.3-1 3.7-1 2-.3h2.3l2 .3 2 .5 2 .7 1.7 1.3 1.8 1.5 1.2 2 2.8 5.2-2.3-6-1.7-5.7-1.3-5.3-.7-4.7-.5-4.5.2-4.3.8-3.7 1.2-3.5 1-2 1-2 1.5-1.8 1.5-1.7 2.5-1 2.8-1.3 3.2-1 3.8-.7 2-.3h2l1.7.3 2 .2 1.5.8 1.8 1 .7.7 1 1 .8 1 .5 1.3z"/><path class="st1" d="M646.9 286.3l49.7 15-.5 2.2-.5 2.5-1.2 3-1.5 3.3-1 1.5-1.3 1.5-1.5 1.5-1.7 1.5-1.8 1-2.2 1-25 11.5-53 24.5-5.5.5-6.3-14.5-1-1.8-1-1.7-1.2-1.3-1.3-1.2-1.5-1.3-1.5-.7-1.7-.8-1.5-.5-1.8-.5h-5.5l-1.7.3-1.8.5-3.5 1.2-3.2 2-1.5 1-1.5 1.3-1.3 1.5-1.2 1.2-1 1.8-1 1.7-.8 1.8-.7 1.7-.3 2-.2 2.3v4.2l.5 2.3.7 2.5-11.2-25-.5-1.3-.8-1-1-1-.7-.7-1.5-3.3 105.2-43z"/><path class="st2" d="M541.4 329.5l1.5 3.3-1.8-1-1.5-.8-2-.3-1.8-.3h-2l-2 .3-3.8.8-3.3 1-2.8 1.3-2.5 1-1.5 1.8-1.5 1.8-1 2-1 2-2.5-.8-162.8 66.8L114.4 298v-51.5L395.9 174v36.3l86 26 165 50-.3.3-105.2 42.9zm-9.5-45.2l-.3-3.3-.8-3.3-1.3-3-1.5-3.3-2-3-2.5-3-2.8-3-3.3-3-3.8-2.8-4-2.8-4.5-2.5-4.5-2.8-5.3-2.5-5.3-2.3-5.8-2.3-6-2.3-6.3-2.3-6.8-2-6.8-1.8-7.3-1.8-7.3-1.8-7.8-1.5-7.8-1.5-8-1.3-8.3-1-8.5-1-8.8-1-8.8-.5-9-.8-9-.3-9.3-.3-9.3-.3-9.5.3-9.3.3-9 .3-9 .8-8.8.5-8.8 1-8.3 1-8.3 1-8.3 1.3-7.8 1.5-7.5 1.5-7.5 1.8-7 1.8-7 1.8-6.5 2-6.5 2.3-6 2.3-5.8 2.3-5.3 2.3-5 2.5-4.8 2.8-4.5 2.5-4 2.8-3.5 2.8-3.3 3-3 3-2.5 3-2 3-1.5 3.3-1.3 3-.8 3.3-.3 3.3.3 3.3.8 3.3 1.3 3.3 1.5 3.3 2 3 2.5 3 3 3 3.3 2.8 3.5 2.8 4 2.8 4.5 2.8 4.8 2.5 5 2.5 5.3 2.5 5.8 2.3 6 2.3 6.5 2 6.5 2 7 2 7 1.8 7.5 1.8 7.5 1.5 7.8 1.3 8.3 1.3 8.3 1.3 8.3 1 8.8.8 8.8.8 9 .5 9 .5 9.3.3h18.8l9.3-.3 9-.5 9-.5 8.8-.8 8.8-.8 8.5-1 8.3-1.3 8-1.3 7.8-1.3 7.8-1.5 7.3-1.8 7.3-1.8 6.8-2 6.8-2 6.3-2 6-2.3 5.8-2.3 5.3-2.5 5.3-2.5 4.5-2.5 4.5-2.8 4-2.8 3.8-2.8 3.3-2.8 2.8-3 2.5-3 2-3 1.5-3.3 1.3-3.3.8-3.3.3-3.3z"/><path class="st1" d="M518.9 380l-2.8-5.2-1.2-2-1.8-1.5-1.7-1.3-2-.7-2-.5-2-.3h-2.3l-2 .3-3.7 1-3.3 1-2.7 1.5-2 3-1.5 2.7-1.3 3-.2 1.5-.3 1.8v3.7l.5 2.3.5 2.7 1.5 6 2.5 7.3 1 2.2-3.2 1.8-70 32.5-1.8-2.8-67.7-31.7 162.7-66.8 2.5.8-1.2 3.5-.8 3.7-.2 4.3.5 4.5.7 4.7 1.3 5.3 1.7 5.7z"/><path class="st1" d="M482.4 82.3V235l-.5 1.3-86-26V174l-281.5 72.5V298l235 110.3 67.7 31.7 1.8 2.8-14.3 6.7L109.1 307l-3.2.3L90.4 177l-.5-2z"/><path class="st3" d="M350.1 220.8l9.3.3 9.3.3 9 .3 9 .8 8.8.5 8.8 1 8.5 1 8.3 1 8 1.3 7.8 1.5 7.8 1.5 7.3 1.8 7.3 1.8 6.8 1.8 6.8 2 6.3 2.3 6 2.3 5.8 2.3 5.3 2.3 5.3 2.5 4.5 2.8 4.5 2.5 4 2.8 3.8 2.8 3.3 3 2.8 3 2.5 3 2 3 1.5 3.3 1.3 3 .8 3.3.3 3.3-.3 3.3-.8 3.3-1.3 3.3-1.5 3.3-2 3-2.5 3-2.8 3-3.3 2.8-3.8 2.8-4 2.8-4.5 2.8-4.5 2.5-5.3 2.5-5.3 2.5-5.8 2.3-6 2.3-6.3 2-6.8 2-6.8 2-7.3 1.8-7.3 1.8-7.8 1.5-7.8 1.3-8 1.3-8.3 1.3-8.5 1-8.8.8-8.8.8-9 .5-9 .5-9.3.3h-18.8l-9.3-.3-9-.5-9-.5-8.8-.8-8.8-.8-8.3-1-8.3-1.3-8.3-1.3-7.8-1.3-7.5-1.5-7.5-1.8-7-1.8-7-2-6.5-2-6.5-2-6-2.3-5.8-2.3-5.3-2.5-5-2.5-4.8-2.5-4.5-2.8-4-2.8-3.5-2.8-3.3-2.8-3-3-2.5-3-2-3-1.5-3.3-1.3-3.3-.8-3.3-.3-3.3.3-3.3.8-3.3 1.3-3 1.5-3.3 2-3 2.5-3 3-3 3.3-3 3.5-2.8 4-2.8 4.5-2.5 4.8-2.8 5-2.5 5.3-2.3 5.8-2.3 6-2.3 6.5-2.3 6.5-2 7-1.8 7-1.8 7.5-1.8 7.5-1.5 7.8-1.5 8.3-1.3 8.3-1 8.3-1 8.8-1 8.8-.5 9-.8 9-.3 9.3-.3 9.5-.3zm23.5 55.5v-.8l-.5-.8-.5-.8-.8-.8-2-1.3-2.5-1.3-3.3-1-3.8-.8-4-.5h-8.8l-4.3.5-3.5.8-3.3 1-2.8 1.3-2 1.3-.8.8-.5.8-.3.8-.3.8.3 1 .3.8.5.8.8.8 2 1.3 2.8 1.3 3.3 1 3.5.8 4.3.5h8.8l4-.5 3.8-.8 3.3-1 2.5-1.3 2-1.3.8-.8.5-.8.5-.8v-1z"/><path class="st4" d="M351.9 268.5h4.5l4 .5 3.7.8 3.3 1 2.5 1.2 2 1.3.7.7.5.8.5.7v1.8l-.5.7-.5.8-.7.7-2 1.3-2.5 1.2-3.3 1-3.7.8-4 .5h-8.8l-4.2-.5-3.5-.8-3.3-1-2.7-1.2-2-1.3-.8-.7-.5-.8-.2-.7-.3-1 .3-.8.2-.7.5-.8.8-.7 2-1.3 2.7-1.2 3.3-1 3.5-.8 4.2-.5z"/><path class="st5" d="M488.9 410.3l-70 32.5-14.3 6.7M417.1 440l-67.7-31.7-235-110.3v-51.5L395.9 174v36.3l86 26 165 50 49.7 15-.5 2.2-.5 2.5-1.2 3-1.5 3.3-1 1.5-1.3 1.5-1.5 1.5-1.7 1.5-1.8 1-2.2 1-25 11.5-53 24.5"/><path class="st5" d="M541.1 329.5h.3l105.2-43M349.4 408.3l162.7-66.8"/><path class="st6" d="M373.6 276.3v1l-.5.7-.5.8-.7.7-2 1.3-2.5 1.2-3.3 1-3.7.8-4 .5h-8.8l-4.2-.5-3.5-.8-3.3-1-2.7-1.2-2-1.3-.8-.7-.5-.8-.2-.7-.3-1 .3-.8.2-.7.5-.8.8-.7 2-1.3 2.7-1.2 3.3-1 3.5-.8 4.2-.5h8.8l4 .5 3.7.8 3.3 1 2.5 1.2 2 1.3.7.7.5.8.5.7z"/><path class="st5" d="M531.9 284.3l-.3 3.2-.7 3.3-1.3 3.2-1.5 3.3-2 3-2.5 3-2.7 3-3.3 2.7-3.7 2.8-4 2.7-4.5 2.8-4.5 2.5-5.3 2.5-5.2 2.5-5.8 2.2-6 2.3-6.2 2-6.8 2-6.7 2-7.3 1.7-7.2 1.8-7.8 1.5-7.7 1.2-8 1.3-8.3 1.2-8.5 1-8.7.8-8.8.7-9 .5-9 .5-9.2.3h-18.8l-9.2-.3-9-.5-9-.5-8.8-.7-8.7-.8-8.3-1-8.2-1.2-8.3-1.3-7.7-1.2-7.5-1.5-7.5-1.8-7-1.7-7-2-6.5-2-6.5-2-6-2.3-5.8-2.2-5.2-2.5-5-2.5-4.8-2.5-4.5-2.8-4-2.7-3.5-2.8-3.2-2.7-3-3-2.5-3-2-3-1.5-3.3-1.3-3.2-.7-3.3-.3-3.2.3-3.3.7-3.2 1.3-3 1.5-3.3 2-3 2.5-3 3-3 3.2-3 3.5-2.7 4-2.8 4.5-2.5 4.8-2.7 5-2.5 5.2-2.3 5.8-2.2 6-2.3 6.5-2.2 6.5-2 7-1.8 7-1.7 7.5-1.8 7.5-1.5 7.7-1.5 8.3-1.2 8.2-1 8.3-1 8.7-1 8.8-.5 9-.8 9-.2 9.2-.3 9.5-.2 9.3.2 9.2.3 9 .2 9 .8 8.8.5 8.7 1 8.5 1 8.3 1 8 1.2 7.7 1.5 7.8 1.5 7.2 1.8 7.3 1.7 6.7 1.8 6.8 2 6.2 2.2 6 2.3 5.8 2.2 5.2 2.3 5.3 2.5 4.5 2.7 4.5 2.5 4 2.8 3.7 2.7 3.3 3 2.7 3 2.5 3 2 3 1.5 3.3 1.3 3 .7 3.2zM109.1 307l295.5 142.5M608.4 375.5l-8.5-18.7-6.3-14.5-1-1.8-1-1.7-1.2-1.3-1.3-1.2-1.5-1.3-1.5-.7-1.7-.8-1.5-.5-1.8-.5h-5.5l-1.7.3-1.8.5-3.5 1.2-3.2 2-1.5 1-1.5 1.3-1.3 1.5-1.2 1.2-1 1.8-1 1.7-.8 1.8-.7 1.7-.3 2-.2 2.3v4.2l.5 2.3.7 2.5M666.4 501.3l-7.3-14.8-7.5-16-15.5-33.2-15-32.8-12.7-29M695.6 486.5v3.5l.5 3.8.5 4.2 1 4.3.8 7 .5 7.2v12l-.3 4-.5 3.5-.7 3.3-.8 2.5-.7 1-.5.7-.8.8-.7.2-1 .3-1-.3-.8-.2-.7-.8-2.3-2.5-2.5-4-3.2-5.2-3.5-6.3-3.8-7.2-8.7-17M762.6 727.5l-2-4.7-2.5-7.5-3.5-9.8-3.5-11.5-3.2-12.2-1.5-6.3-1.5-6.2-1-6-.8-5.8-.5-5.2.3-4.8.2-4.5.5-1.7.5-1.8 1.5-4.2 1.3-4.8 1-5.2 1-5.5.7-6 .5-6.5.5-6.3.3-6.7v-13l-.3-12.8-.5-6-.5-5.5-.7-5.2-.8-4.5-1.7-9.5-2.5-10.5-5.5-22.3-2.8-11-2.2-10-1.5-8.7-.5-3.8-.5-3.2V467l-.5-1.2-.5-1-.8-1-.7-1-1-.8-2.3-1.2-2.7-1-3-.3h-3l-3.3.5-3.2 1.3-3.3 1.5-1.5 1.2-1.5 1.3-1.2 1.2-1.3 1.5-1.2 1.8-1 1.7-1 2-.8 2.3-.7 2.5-.5 2.5-.3 2.7v3M490.6 548.3l-5.2-21.8-4.8-20.5-4.2-18.5-1.5-8.5-1.5-8-1.3-7.2-.7-6.8-.5-5.7v-5l.2-4.3.3-1.7.5-1.8.5-1.2.5-1 .7-.8 1-.5 6-2.7 4.8-1.5 2-.3 1.7-.2h1.5l1.3.5 1.5.5 1.2.7 2.5 2.3 6.5 6.7.8.5M617.4 766.8l-4-4.8-11-13-7.8-9.2-8.5-10.8-9.2-12-9.8-13.5-10-14.2-10.2-15-9.8-15.8-4.7-8-4.8-8.2-4.5-8.3-4.2-8.2-4-8.3-3.8-8.2-3.5-8.3-3.2-8-2.8-8.2-2.2-8-4-13.8-4.8-14.7"/><path class="st5" d="M550.4 573.8l-16-45.8-15-43.2-15.8-43.8-11.5-32.5-1-2.2-2.5-7.3-1.5-6-.5-2.7-.5-2.3v-3.7l.3-1.8.2-1.5 1.3-3 1.5-2.7 2-3 2.7-1.5 3.3-1 3.7-1 2-.3h2.3l2 .3 2 .5 2 .7 1.7 1.3 1.8 1.5 1.2 2 2.8 5.2 3.2 6.8 3.8 8.2 8.5 19.5 9.5 22.3 9.5 23 16 39 6.7 16.7"/><path class="st5" d="M519.1 380.5l-.2-.5-2.3-6-1.7-5.7-1.3-5.3-.7-4.7-.5-4.5.2-4.3.8-3.7 1.2-3.5 1-2 1-2 1.5-1.8 1.5-1.7 2.5-1 2.8-1.3 3.2-1 3.8-.7 2-.3h2l1.7.3 2 .2 1.5.8 1.8 1 .7.7 1 1 .8 1 .5 1.3 11.2 25L636.4 540M84.6 176.3l5.3-1.3 392.5-92.7V235"/></svg>