<svg xmlns="http://www.w3.org/2000/svg" width="850.394" height="850.394" viewBox="0 0 850.394 850.394" overflow="visible"><path d="M264.942 512.433l69.5-11c3.906 27.922 14.797 49.32 32.656 64.195s42.828 22.305 74.906 22.305c32.328 0 56.32-6.57 71.969-19.711 15.641-13.141 23.469-28.563 23.469-46.266 0-15.875-6.898-28.367-20.68-37.477-9.625-6.242-33.633-14.18-72.023-23.813-51.718-13.031-87.546-24.313-107.492-33.828s-35.063-22.68-45.359-39.5c-10.297-16.813-15.445-35.391-15.445-55.734 0-18.508 4.242-35.648 12.727-51.422s20.031-28.875 34.656-39.313c10.969-8.078 25.914-14.914 44.844-20.523 18.922-5.609 39.227-8.414 60.898-8.414 32.633 0 61.289 4.695 85.961 14.078s42.883 22.086 54.633 38.117 19.844 37.461 24.281 64.305l-69 9.5c-3.141-21.359-12.219-38.039-27.234-50.023s-36.234-17.977-63.656-17.977c-32.39 0-55.5 5.336-69.343 16.008s-20.766 23.156-20.766 37.469c0 9.109 2.867 17.313 8.617 24.594 5.742 7.547 14.75 13.789 27.031 18.734 7.047 2.602 27.813 8.586 62.296 17.953 49.883 13.297 84.672 24.188 104.367 32.656 19.688 8.477 35.141 20.797 46.359 36.961s16.828 36.234 16.828 60.219c0 23.469-6.852 45.57-20.539 66.297s-33.445 36.758-59.258 48.102c-25.82 11.336-55.023 17.008-87.617 17.008-53.984 0-95.117-11.219-123.414-33.664s-46.352-55.727-54.172-99.836z" fill="#50264c"/><path fill="none" d="M0 0h850.394v850.394H0z"/></svg>