<svg xmlns="http://www.w3.org/2000/svg" width="850.394" height="850.394" viewBox="0 0 850.394 850.394" overflow="visible"><path d="M771.05 340.39v306.76c0 7.109-5.84 12.88-13.05 12.88H90.87c-7.2 0-13.05-5.771-13.05-12.88V340.39c0-7.12 5.85-12.88 13.05-12.88H758c7.21 0 13.05 5.76 13.05 12.88zm-24.47 207.99V415.64c0-6.41-5.2-11.61-11.61-11.61H617.46c-6.41 0-11.6 5.2-11.6 11.61v132.74c0 6.41 5.189 11.61 11.6 11.61h117.51c6.41 0 11.61-5.2 11.61-11.61zm-65-179.21c0-2.5-2.03-4.53-4.53-4.53-2.51 0-4.53 2.03-4.53 4.53s2.021 4.53 4.53 4.53c2.5 0 4.53-2.03 4.53-4.53zM579.74 547.66V414.91c0-6.41-5.2-11.61-11.61-11.61H450.62c-6.41 0-11.601 5.2-11.601 11.61v132.75c0 6.41 5.19 11.609 11.601 11.609h117.51c6.41.001 11.61-5.199 11.61-11.609zm-64.83-178.69a4.524 4.524 0 1 0-9.05 0 4.524 4.524 0 1 0 9.05 0zM411.15 548.99V416.24c0-6.41-5.19-11.6-11.6-11.6H282.03c-6.41 0-11.6 5.19-11.6 11.6v132.75c0 6.41 5.19 11.6 11.6 11.6h117.52c6.41 0 11.6-5.19 11.6-11.6zm-65.52-180.22c0-2.5-2.03-4.53-4.53-4.53s-4.53 2.03-4.53 4.53 2.03 4.53 4.53 4.53 4.53-2.03 4.53-4.53zM244.31 548.26V415.52c0-6.41-5.19-11.61-11.6-11.61H115.19c-6.41 0-11.6 5.2-11.6 11.61v132.74c0 6.41 5.19 11.61 11.6 11.61h117.52c6.41 0 11.6-5.2 11.6-11.61zm-65.74-179.49c0-2.5-2.03-4.53-4.53-4.53s-4.53 2.03-4.53 4.53 2.03 4.53 4.53 4.53 4.53-2.03 4.53-4.53z" fill="#c8c8c8"/><path d="M709.47 431.54c.59.7.94 1.75 1.07 3.15h-9.32c.101-1.45.59-2.61 1.471-3.48.89-.87 1.979-1.3 3.279-1.3 1.43 0 2.6.54 3.5 1.63z" fill="#ffffc2"/><path d="M701.22 434.69h9.32c-.13-1.4-.48-2.45-1.07-3.15-.899-1.09-2.069-1.63-3.5-1.63-1.3 0-2.39.43-3.279 1.3-.881.87-1.371 2.03-1.471 3.48zm10.2-4.84c1.41 1.521 2.12 3.66 2.12 6.431 0 .16-.01.42-.021.75H701.07c.1 1.83.62 3.229 1.55 4.2.93.97 2.1 1.46 3.49 1.46 1.04 0 1.92-.271 2.649-.82.74-.55 1.32-1.42 1.75-2.62l2.931.38c-.46 1.71-1.311 3.04-2.561 3.98-1.24.949-2.84 1.42-4.77 1.42-2.44 0-4.38-.75-5.801-2.261-1.43-1.5-2.149-3.609-2.149-6.329 0-2.811.72-4.99 2.17-6.551 1.439-1.55 3.32-2.33 5.62-2.33 2.231 0 4.051.77 5.471 2.29z" fill="#231f20"/><path d="M677.05 364.64c2.5 0 4.53 2.03 4.53 4.53s-2.03 4.53-4.53 4.53c-2.51 0-4.53-2.03-4.53-4.53s2.02-4.53 4.53-4.53z" fill="#fff"/><path d="M693.64 428.94c.9.92 1.351 2.329 1.351 4.239v11.48h-2.84V434.14c0-1.13-.101-1.949-.28-2.449-.19-.5-.521-.9-1-1.2-.49-.3-1.061-.46-1.71-.46-1.18 0-2.16.39-2.94 1.18-.779.78-1.17 2.03-1.17 3.75v9.7h-2.84V433.81c0-1.26-.229-2.199-.69-2.829-.47-.631-1.22-.95-2.27-.95-.8 0-1.53.21-2.21.63s-1.17 1.04-1.47 1.84c-.301.81-.46 1.97-.46 3.49v8.67h-2.841v-16.72h2.53v2.359a6.046 6.046 0 0 1 2.101-1.979c.869-.5 1.859-.761 2.979-.761 1.24 0 2.26.261 3.05.78a4.22 4.22 0 0 1 1.681 2.16c1.33-1.96 3.06-2.94 5.189-2.94 1.67 0 2.95.46 3.84 1.38z" fill="#231f20"/><path d="M666.05 436.2c0 2.189-.47 3.819-1.399 4.89-.94 1.07-2.11 1.601-3.521 1.601s-2.59-.53-3.52-1.601c-.94-1.06-1.41-2.66-1.41-4.8s.47-3.74 1.41-4.79c.93-1.06 2.109-1.59 3.52-1.59 1.4 0 2.57.53 3.51 1.59.94 1.07 1.41 2.63 1.41 4.7z" fill="#ffffc2"/><path d="M664.65 441.09c.93-1.07 1.399-2.7 1.399-4.89 0-2.07-.47-3.63-1.41-4.7-.939-1.06-2.109-1.59-3.51-1.59-1.41 0-2.59.53-3.52 1.59-.94 1.05-1.41 2.65-1.41 4.79s.47 3.74 1.41 4.8c.93 1.07 2.109 1.601 3.52 1.601s2.581-.531 3.521-1.601zm3.34.05a6.902 6.902 0 0 1-2.82 2.87c-1.229.681-2.58 1.021-4.04 1.021-2.34 0-4.229-.75-5.67-2.25s-2.16-3.66-2.16-6.48c0-3.1.86-5.39 2.58-6.88 1.44-1.24 3.19-1.86 5.25-1.86 2.3 0 4.18.761 5.64 2.261 1.45 1.51 2.181 3.59 2.181 6.239-.001 2.149-.321 3.849-.961 5.079z" fill="#231f20"/><path d="M694.99 444.66v-11.48c0-1.91-.45-3.319-1.351-4.239-.89-.921-2.17-1.381-3.84-1.381-2.13 0-3.859.98-5.189 2.94-.33-.92-.891-1.64-1.681-2.16-.79-.52-1.81-.78-3.05-.78-1.12 0-2.11.261-2.979.761-.87.5-1.57 1.16-2.101 1.979v-2.359h-2.53v16.72h2.841v-8.67c0-1.521.159-2.681.46-3.49.3-.8.79-1.42 1.47-1.84s1.41-.63 2.21-.63c1.05 0 1.8.319 2.27.95.461.63.69 1.569.69 2.829v10.851h2.84v-9.7c0-1.72.391-2.97 1.17-3.75.78-.79 1.761-1.18 2.94-1.18.649 0 1.22.16 1.71.46.479.3.81.7 1 1.2.18.5.28 1.319.28 2.449v10.521h2.84zm6.08-7.63h12.449c.011-.33.021-.59.021-.75 0-2.771-.71-4.91-2.12-6.431-1.42-1.52-3.24-2.29-5.47-2.29-2.3 0-4.181.78-5.62 2.33-1.45 1.561-2.17 3.74-2.17 6.551 0 2.72.72 4.829 2.149 6.329 1.421 1.511 3.36 2.261 5.801 2.261 1.93 0 3.529-.471 4.77-1.42 1.25-.94 2.101-2.271 2.561-3.98l-2.931-.38c-.43 1.2-1.01 2.07-1.75 2.62-.729.55-1.609.82-2.649.82-1.391 0-2.561-.49-3.49-1.46-.931-.97-1.451-2.37-1.551-4.2zm-51.06 7.63v-10.59c0-1.641-.189-2.891-.59-3.75-.39-.86-1.04-1.54-1.939-2.021-.91-.49-1.98-.74-3.211-.74-2 0-3.659.771-4.979 2.301v-8.26h-2.84v23.06h2.84v-9.15c0-1.31.16-2.34.47-3.08.311-.75.83-1.34 1.57-1.77.729-.44 1.51-.66 2.34-.66 1.12 0 1.98.33 2.58.97.61.65.92 1.681.92 3.09v10.601h2.839zm17.98-3.52c.64-1.229.96-2.93.96-5.08 0-2.649-.73-4.729-2.181-6.239-1.46-1.5-3.34-2.261-5.64-2.261-2.06 0-3.81.62-5.25 1.86-1.72 1.49-2.58 3.78-2.58 6.88 0 2.82.72 4.98 2.16 6.48s3.33 2.25 5.67 2.25c1.46 0 2.811-.34 4.04-1.021a6.89 6.89 0 0 0 2.821-2.869zm78.59-25.5v132.74c0 6.41-5.2 11.61-11.61 11.61H617.46c-6.41 0-11.6-5.2-11.6-11.61V415.64c0-6.41 5.189-11.61 11.6-11.61h117.51c6.41 0 11.61 5.2 11.61 11.61z" fill="#ffffc2"/><path d="M650.01 434.07v10.59h-2.84v-10.6c0-1.409-.31-2.439-.92-3.09-.6-.64-1.46-.97-2.58-.97-.83 0-1.61.22-2.34.66-.74.43-1.26 1.02-1.57 1.77-.31.74-.47 1.771-.47 3.08v9.15h-2.84V421.6h2.84v8.26c1.32-1.53 2.979-2.301 4.979-2.301 1.23 0 2.301.25 3.211.74.899.48 1.55 1.16 1.939 2.021.401.86.591 2.11.591 3.75zM526.32 442.12l.37 2.5c-.79.17-1.511.26-2.131.26-1.029 0-1.829-.17-2.39-.49-.57-.33-.97-.76-1.2-1.29-.229-.529-.34-1.64-.34-3.35v-9.62h-2.09v-2.189h2.09V423.8l2.84-1.7v5.84h2.851v2.189h-2.851v9.78c0 .8.05 1.32.15 1.55.1.24.26.42.49.56.22.131.55.2.97.2.311.001.721-.029 1.241-.099z" fill="#231f20"/><path d="M510.38 364.44c2.51 0 4.53 2.03 4.53 4.53s-2.021 4.53-4.53 4.53c-2.5 0-4.52-2.03-4.52-4.53s2.02-4.53 4.52-4.53z" fill="#fff"/><path d="M505.79 437.89c.479-.21 1.3-.399 2.46-.56 2.06-.3 3.6-.66 4.62-1.08l.02 1.04c0 1.26-.149 2.2-.46 2.85-.399.83-1.02 1.48-1.87 1.96-.85.48-1.819.71-2.909.71-1.101 0-1.94-.25-2.511-.75-.569-.51-.859-1.14-.859-1.899 0-.49.13-.94.39-1.34.259-.411.639-.721 1.119-.931z" fill="#ffffc2"/><path d="M512.89 437.29l-.02-1.04c-1.021.42-2.561.78-4.62 1.08-1.16.16-1.98.35-2.46.56-.48.21-.86.521-1.12.931-.26.399-.39.85-.39 1.34 0 .76.29 1.39.859 1.899.57.5 1.41.75 2.511.75 1.09 0 2.06-.229 2.909-.71.851-.479 1.471-1.13 1.87-1.96.311-.65.461-1.59.461-2.85zm2.86-3.41v3.78c0 2.63.06 4.29.17 4.99a6.7 6.7 0 0 0 .7 2.01h-2.96c-.28-.601-.46-1.3-.54-2.101-1.04.91-2.05 1.54-3.03 1.921a8.7 8.7 0 0 1-3.12.55c-1.84 0-3.25-.45-4.239-1.34-.99-.9-1.48-2.051-1.48-3.45 0-.82.18-1.57.56-2.24.37-.68.86-1.22 1.46-1.63.61-.41 1.29-.72 2.04-.93.561-.15 1.4-.29 2.521-.431 2.29-.27 3.979-.6 5.06-.979.011-.38.021-.63.021-.73 0-1.149-.271-1.97-.811-2.439-.72-.63-1.79-.95-3.22-.95-1.33 0-2.31.229-2.939.7-.641.47-1.11 1.3-1.41 2.489l-2.78-.38c.25-1.189.67-2.149 1.24-2.88.58-.729 1.41-1.29 2.5-1.68 1.09-.4 2.359-.601 3.79-.601 1.43 0 2.59.171 3.479.511.891.34 1.55.76 1.971 1.27.42.51.71 1.15.88 1.93.087.48.137 1.35.137 2.61z" fill="#231f20"/><path d="M522.17 444.39c.561.32 1.36.49 2.39.49.62 0 1.341-.09 2.131-.26l-.37-2.5c-.521.07-.931.1-1.24.1-.42 0-.75-.069-.97-.2a1.149 1.149 0 0 1-.49-.56c-.101-.229-.15-.75-.15-1.55v-9.78h2.851v-2.189h-2.851v-5.84l-2.84 1.7v4.141h-2.09v2.189h2.09v9.62c0 1.71.11 2.82.34 3.35.229.529.629.959 1.199 1.289zm-6.42-6.73v-3.78c0-1.26-.05-2.13-.14-2.61-.17-.779-.46-1.42-.88-1.93-.421-.51-1.08-.93-1.971-1.27-.89-.34-2.05-.511-3.479-.511-1.431 0-2.7.2-3.79.601-1.09.39-1.92.95-2.5 1.68-.57.73-.99 1.69-1.24 2.88l2.78.38c.3-1.189.77-2.02 1.41-2.489.63-.471 1.609-.7 2.939-.7 1.43 0 2.5.32 3.22.95.54.47.811 1.29.811 2.439 0 .101-.01.351-.021.73-1.08.38-2.77.71-5.06.979-1.12.141-1.96.28-2.521.431-.75.21-1.43.52-2.04.93-.6.41-1.09.95-1.46 1.63-.38.67-.56 1.42-.56 2.24 0 1.399.49 2.55 1.48 3.45.989.89 2.399 1.34 4.239 1.34a8.7 8.7 0 0 0 3.12-.55c.98-.381 1.99-1.011 3.03-1.921.08.801.26 1.5.54 2.101h2.96a6.7 6.7 0 0 1-.7-2.01c-.107-.7-.167-2.36-.167-4.99zm-19.13-7.81c-1.41-1.52-3.23-2.29-5.46-2.29-2.311 0-4.18.78-5.62 2.33-1.45 1.561-2.17 3.74-2.17 6.551 0 2.72.71 4.829 2.14 6.329 1.431 1.511 3.37 2.261 5.811 2.261 1.93 0 3.52-.471 4.77-1.42 1.24-.94 2.101-2.271 2.561-3.98l-2.94-.38c-.43 1.2-1.01 2.07-1.74 2.62-.729.55-1.62.82-2.649.82-1.4 0-2.561-.49-3.49-1.46-.93-.971-1.45-2.37-1.55-4.2h12.45c.01-.33.01-.59.01-.75-.003-2.771-.703-4.911-2.123-6.431zm83.12-14.94v132.75c0 6.41-5.2 11.609-11.61 11.609H450.62c-6.41 0-11.601-5.199-11.601-11.609V414.91c0-6.41 5.19-11.61 11.601-11.61h117.51c6.41 0 11.61 5.2 11.61 11.61z" fill="#ffffc2"/><path d="M495.74 434.69h-9.311c.101-1.45.58-2.61 1.471-3.48.88-.87 1.979-1.3 3.27-1.3 1.44 0 2.61.54 3.51 1.63.58.7.94 1.75 1.06 3.15z" fill="#ffffc2"/><path d="M494.68 431.54c-.899-1.09-2.069-1.63-3.51-1.63-1.29 0-2.39.43-3.27 1.3-.891.87-1.37 2.03-1.471 3.48h9.311c-.12-1.4-.48-2.45-1.06-3.15zm1.41 12.07c-1.25.949-2.84 1.42-4.77 1.42-2.44 0-4.38-.75-5.811-2.261-1.43-1.5-2.14-3.609-2.14-6.329 0-2.811.72-4.99 2.17-6.551 1.44-1.55 3.31-2.33 5.62-2.33 2.229 0 4.05.771 5.46 2.29 1.42 1.521 2.12 3.66 2.12 6.431 0 .16 0 .42-.01.75h-12.45c.1 1.83.62 3.229 1.55 4.2.93.97 2.09 1.46 3.49 1.46 1.029 0 1.92-.271 2.649-.82.73-.55 1.311-1.42 1.74-2.62l2.94.38c-.458 1.71-1.318 3.04-2.558 3.98zM365.66 436.1l-1.97 1.92v6.64h-2.84V421.6h2.84v13.11l6.69-6.77h3.67l-6.39 6.21 7.05 10.51h-3.5zM356.33 431.63c.1.521.15 1.44.15 2.75v10.28h-2.84V434.5c0-1.15-.11-2.02-.33-2.59-.22-.57-.61-1.021-1.17-1.37-.56-.34-1.21-.51-1.96-.51-1.2 0-2.24.39-3.11 1.149-.87.771-1.31 2.221-1.31 4.36v9.12h-2.84v-16.72h2.56v2.38c1.23-1.84 2.99-2.761 5.31-2.761 1 0 1.92.19 2.77.551.84.359 1.47.83 1.89 1.42.41.591.71 1.291.88 2.101z" fill="#231f20"/><circle cx="341.1" cy="368.77" r="4.53" fill="#fff"/><path fill="#231f20" d="M335.76 427.94h2.85v16.72h-2.85zM335.76 421.6h2.85v3.21h-2.85z"/><path d="M335.76 424.81h2.85v-3.21h-2.85v3.21zm2.85 19.85v-16.72h-2.85v16.72h2.85zm17.87-10.28c0-1.31-.05-2.229-.15-2.75a5.69 5.69 0 0 0-.88-2.1c-.42-.59-1.05-1.061-1.89-1.42a7.023 7.023 0 0 0-2.77-.551c-2.32 0-4.08.921-5.31 2.761v-2.38h-2.56v16.72h2.84v-9.12c0-2.14.44-3.59 1.31-4.36.87-.76 1.91-1.149 3.11-1.149.75 0 1.4.17 1.96.51.56.35.95.8 1.17 1.37.22.57.33 1.439.33 2.59v10.16h2.84V434.38zm4.37-12.78v23.06h2.84v-6.641l1.97-1.92 5.55 8.561h3.5l-7.05-10.51 6.39-6.21h-3.67l-6.69 6.77V421.6h-2.84zm-40.28 23.06V421.6h-2.85v8.26c-.49-.681-1.13-1.23-1.91-1.66-.79-.42-1.69-.641-2.69-.641-1.37 0-2.61.37-3.72 1.091-1.11.72-1.95 1.77-2.5 3.119-.56 1.36-.83 2.881-.83 4.54 0 1.71.3 3.23.92 4.54.61 1.32 1.48 2.351 2.6 3.08a6.484 6.484 0 0 0 3.67 1.101c2.06 0 3.62-.83 4.68-2.5v2.13h2.63zm4.44-16.72v16.72h2.84v-8.75c0-1.19.16-2.29.47-3.3.21-.66.56-1.181 1.05-1.551.49-.369 1.04-.56 1.66-.56.69 0 1.38.2 2.07.6l.97-2.619c-.98-.61-1.95-.921-2.9-.921-.65 0-1.26.19-1.81.57-.54.38-1.14 1.17-1.79 2.36v-2.55h-2.56zm86.14-11.7v132.75c0 6.41-5.19 11.6-11.6 11.6H282.03c-6.41 0-11.6-5.189-11.6-11.6V416.24c0-6.41 5.19-11.6 11.6-11.6h117.52c6.41 0 11.6 5.19 11.6 11.6z" fill="#ffffc2"/><path d="M325.01 444.66v-16.72h2.56v2.55c.65-1.19 1.25-1.98 1.79-2.36.55-.38 1.16-.57 1.81-.57.95 0 1.92.311 2.9.921l-.97 2.619c-.69-.399-1.38-.6-2.07-.6-.62 0-1.17.19-1.66.56-.49.37-.84.891-1.05 1.551-.31 1.01-.47 2.109-.47 3.3v8.75h-2.84z" fill="#231f20"/><path d="M318.03 436.54c0 2.08-.43 3.62-1.3 4.63s-1.93 1.521-3.18 1.521c-1.24 0-2.31-.53-3.22-1.591-.9-1.06-1.36-2.659-1.36-4.79 0-2.21.43-3.829 1.28-4.859s1.91-1.54 3.17-1.54c1.3 0 2.4.53 3.28 1.6.89 1.069 1.33 2.749 1.33 5.029z" fill="#ffffc2"/><path d="M316.73 441.17c.87-1.01 1.3-2.55 1.3-4.63 0-2.28-.44-3.96-1.33-5.03-.88-1.069-1.98-1.6-3.28-1.6-1.26 0-2.32.51-3.17 1.54s-1.28 2.649-1.28 4.859c0 2.131.46 3.73 1.36 4.79.91 1.061 1.98 1.591 3.22 1.591 1.25 0 2.31-.51 3.18-1.52zm3.84-19.57v23.06h-2.63v-2.13c-1.06 1.67-2.62 2.5-4.68 2.5-1.33 0-2.56-.36-3.67-1.101-1.12-.729-1.99-1.76-2.6-3.08-.62-1.31-.92-2.83-.92-4.54 0-1.659.27-3.18.83-4.54.55-1.35 1.39-2.399 2.5-3.119a6.691 6.691 0 0 1 3.72-1.091c1 0 1.9.221 2.69.641.78.43 1.42.979 1.91 1.66v-8.26h2.85z" fill="#231f20"/><path d="M202.28 436.2c0 2.189-.46 3.819-1.4 4.89-.93 1.07-2.1 1.601-3.51 1.601-1.42 0-2.59-.53-3.53-1.601-.93-1.06-1.4-2.66-1.4-4.8s.47-3.74 1.4-4.79c.94-1.06 2.11-1.59 3.53-1.59 1.4 0 2.56.53 3.5 1.59.94 1.07 1.41 2.63 1.41 4.7z" fill="#ffffc2"/><path d="M200.88 441.09c.94-1.07 1.4-2.7 1.4-4.89 0-2.07-.47-3.63-1.41-4.7-.94-1.06-2.1-1.59-3.5-1.59-1.42 0-2.59.53-3.53 1.59-.93 1.05-1.4 2.65-1.4 4.79s.47 3.74 1.4 4.8c.94 1.07 2.11 1.601 3.53 1.601 1.41-.001 2.58-.531 3.51-1.601zm4.31-5.03c0 2.15-.32 3.851-.97 5.08a6.82 6.82 0 0 1-2.81 2.87 8.238 8.238 0 0 1-4.04 1.021c-2.34 0-4.23-.75-5.67-2.25-1.44-1.5-2.17-3.66-2.17-6.48 0-3.1.86-5.39 2.58-6.88 1.44-1.24 3.19-1.86 5.26-1.86 2.3 0 4.17.761 5.63 2.261 1.46 1.508 2.19 3.588 2.19 6.238zM183.38 421.6h2.84v23.06h-2.84zM176.22 421.6h2.85v23.06h-2.85z" fill="#231f20"/><circle cx="174.04" cy="368.77" r="4.53" fill="#fff"/><path d="M169.81 434.69h-9.31c.09-1.45.58-2.61 1.47-3.48.88-.87 1.97-1.3 3.27-1.3 1.44 0 2.6.54 3.51 1.63.58.7.94 1.75 1.06 3.15z" fill="#ffffc2"/><path d="M169.81 434.69c-.12-1.4-.48-2.45-1.06-3.15-.91-1.09-2.07-1.63-3.51-1.63-1.3 0-2.39.43-3.27 1.3-.89.87-1.38 2.03-1.47 3.48h9.31zm.35 8.92c-1.25.949-2.84 1.42-4.78 1.42-2.44 0-4.37-.75-5.8-2.261-1.43-1.5-2.14-3.609-2.14-6.329 0-2.811.72-4.99 2.16-6.551 1.45-1.55 3.32-2.33 5.63-2.33 2.23 0 4.05.771 5.46 2.29 1.42 1.521 2.12 3.66 2.12 6.431 0 .16 0 .42-.01.75h-12.46c.11 1.83.63 3.229 1.56 4.2.93.97 2.09 1.46 3.48 1.46 1.04 0 1.93-.271 2.66-.82s1.31-1.42 1.74-2.62l2.94.38c-.46 1.71-1.32 3.04-2.56 3.98z" fill="#231f20"/><path d="M179.07 444.66V421.6h-2.85v23.06h2.85zm7.15 0V421.6h-2.84v23.06h2.84zm3.31-8.36c0 2.82.73 4.98 2.17 6.48s3.33 2.25 5.67 2.25c1.46 0 2.8-.34 4.04-1.021a6.82 6.82 0 0 0 2.81-2.87c.65-1.229.97-2.93.97-5.08 0-2.649-.73-4.729-2.19-6.239-1.46-1.5-3.33-2.261-5.63-2.261-2.07 0-3.82.62-5.26 1.86-1.72 1.491-2.58 3.781-2.58 6.881zm-35.5 8.36v-10.59c0-1.641-.2-2.891-.59-3.75-.39-.86-1.04-1.54-1.95-2.021-.91-.49-1.98-.74-3.21-.74-2 0-3.66.771-4.97 2.301v-8.26h-2.85v23.06h2.85v-9.15c0-1.31.15-2.34.47-3.08.31-.75.83-1.34 1.56-1.77.74-.44 1.52-.66 2.35-.66 1.11 0 1.97.33 2.58.97.61.65.91 1.681.91 3.09v10.601h2.85zm16.13-1.05c1.24-.94 2.1-2.271 2.56-3.98l-2.94-.38c-.43 1.2-1.01 2.07-1.74 2.62s-1.62.82-2.66.82c-1.39 0-2.55-.49-3.48-1.46-.93-.971-1.45-2.37-1.56-4.2h12.46c.01-.33.01-.59.01-.75 0-2.771-.7-4.91-2.12-6.431-1.41-1.52-3.23-2.29-5.46-2.29-2.31 0-4.18.78-5.63 2.33-1.44 1.561-2.16 3.74-2.16 6.551 0 2.72.71 4.829 2.14 6.329 1.43 1.511 3.36 2.261 5.8 2.261 1.94 0 3.53-.47 4.78-1.42zm74.15-28.09v132.74c0 6.41-5.19 11.61-11.6 11.61H115.19c-6.41 0-11.6-5.2-11.6-11.61V415.52c0-6.41 5.19-11.61 11.6-11.61h117.52c6.41 0 11.6 5.2 11.6 11.61z" fill="#ffffc2"/><path d="M153.44 430.32c.39.859.59 2.109.59 3.75v10.59h-2.85v-10.6c0-1.409-.3-2.439-.91-3.09-.61-.64-1.47-.97-2.58-.97-.83 0-1.61.22-2.35.66-.73.43-1.25 1.02-1.56 1.77-.32.74-.47 1.771-.47 3.08v9.15h-2.85V421.6h2.85v8.26c1.31-1.53 2.97-2.301 4.97-2.301 1.23 0 2.3.25 3.21.74.91.481 1.56 1.161 1.95 2.021z" fill="#231f20"/><g fill="none" stroke="#231f20"><path d="M771.05 647.15c0 7.109-5.84 12.88-13.05 12.88H90.87c-7.2 0-13.05-5.771-13.05-12.88V340.39c0-7.12 5.85-12.88 13.05-12.88H758c7.21 0 13.05 5.76 13.05 12.88v306.76z" stroke-width="21"/><path d="M244.31 548.26c0 6.41-5.19 11.61-11.6 11.61H115.19c-6.41 0-11.6-5.2-11.6-11.61V415.52c0-6.41 5.19-11.61 11.6-11.61h117.52c6.41 0 11.6 5.2 11.6 11.61v132.74zM411.15 548.99c0 6.41-5.19 11.6-11.6 11.6H282.03c-6.41 0-11.6-5.189-11.6-11.6V416.24c0-6.41 5.19-11.6 11.6-11.6h117.52c6.41 0 11.6 5.19 11.6 11.6v132.75zM579.74 547.66c0 6.41-5.2 11.609-11.61 11.609H450.62c-6.41 0-11.601-5.199-11.601-11.609V414.91c0-6.41 5.19-11.61 11.601-11.61h117.51c6.41 0 11.61 5.2 11.61 11.61v132.75zM746.58 548.38c0 6.41-5.2 11.61-11.61 11.61H617.46c-6.41 0-11.6-5.2-11.6-11.61V415.64c0-6.41 5.189-11.61 11.6-11.61h117.51c6.41 0 11.61 5.2 11.61 11.61v132.74z" stroke-width="14"/><circle cx="174.04" cy="368.77" r="4.53" stroke-width="19.323"/><circle cx="341.1" cy="368.77" r="4.53" stroke-width="19.323"/><path d="M514.91 368.97a4.524 4.524 0 1 1-9.05 0 4.524 4.524 0 1 1 9.05 0zM681.58 369.17c0 2.5-2.03 4.53-4.53 4.53-2.51 0-4.53-2.03-4.53-4.53s2.021-4.53 4.53-4.53c2.5 0 4.53 2.03 4.53 4.53zM155.3 467.14c-8.67 4.891-32.64 30.511-9.63 31.07 12.54.3 33.23-30.96 48.51-19.2 11.33 8.73-8.88 20.2-6.92 32.2 3.1 18.99 25.07 8.37 29.52-2.63M316.35 540.41l16.99-39.65-13.31-39.26" stroke-width="19.323"/><path stroke-width="25.765" d="M355.81 461.5l-22.47 39.26M375.07 495.45l-41.73 5.31"/><path d="M489.16 467.14c-8.67 4.891-32.641 30.5-9.62 31.07 12.53.3 33.229-30.96 48.5-19.2 11.34 8.73-8.87 20.2-6.92 32.19 3.11 19 25.07 8.37 29.53-2.63M650.22 540.4l16.98-39.64-13.31-39.26" stroke-width="19.323"/><path stroke-width="25.765" d="M689.67 461.5l-22.47 39.26M708.93 495.45l-41.73 5.31"/><path stroke-width="21" d="M340.81 167.8v130.37M375.61 260.44l-34.92 38.46-34.91-38.52"/></g><path fill="none" d="M0 0h850.394v850.394H0z"/></svg>