<svg xmlns="http://www.w3.org/2000/svg" width="850.394" height="850.394" viewBox="0 0 850.394 850.394" overflow="visible"><path d="M487.67 213.31l-12.49 50.15-50.459-.09h-50.31l-12.5-50.17 4.91-.24 15.69-22.06L386 186l3.46-4.41c9.31 9.39 21.68 15.11 35.26 15.11 11.76 0 22.629-4.3 31.379-11.55L462 186l4.13 5.38 16.63 21.69 4.91.24z" fill="#ff001c"/><path d="M456.1 185.15c12.79-10.6 21.061-27.52 21.061-46.59 0-32.11-23.47-42.51-52.44-42.51-28.96 0-52.44 10.4-52.44 42.51 0 17.06 6.63 32.4 17.18 43.03L386 186l-3.49 4.9-2.14-1.52c-12.41-5.33-20.68-6.26-31.68-17.25-11.54-11.54-17.89-20.69-20.93-34.54-4.43-20.29-1.5-45.05 19.14-56.15 8.44-4.54 17.78-7.2 27.19-8.94 6.59-1.23 15-.14 20.92-3.6 6.03-3.53 9.51-7.31 15.27-12.24 4.64-3.96 14.13-3.47 14.13-3.47 4.93-.22 9.8.64 14.43 3.46 6.49 3.93 9.25 8.71 15.271 12.23 5.93 3.46 14.34 2.38 20.93 3.6 9.41 1.74 18.75 4.41 27.19 8.94 20.64 11.11 23.569 35.87 19.13 56.15-3.03 13.86-9.391 23.01-20.92 34.54-10.99 11-19.28 11.93-31.69 17.26l-2.62 2.01L462 186l-5.9-.85z" fill="#abda4d"/><path d="M477.16 138.56c0 19.07-8.271 35.99-21.061 46.59-8.75 7.25-19.619 11.55-31.379 11.55-13.58 0-25.95-5.72-35.26-15.11-10.55-10.63-17.18-25.97-17.18-43.03 0-32.11 23.48-42.51 52.44-42.51 28.97 0 52.44 10.4 52.44 42.51zm-23.18-7.38a7.75 7.75 0 0 0-7.75-7.75c-4.29 0-7.771 3.47-7.771 7.75 0 4.28 3.48 7.76 7.771 7.76 4.28 0 7.75-3.48 7.75-7.76zm-20.39 16.06l-4.63-8.03-4.65-8.03-4.62 8.03-4.64 8.03h18.54zm-22.8-16.29a7.75 7.75 0 0 0-7.75-7.75c-4.29 0-7.76 3.47-7.76 7.75a7.76 7.76 0 0 0 7.76 7.76c4.28 0 7.75-3.48 7.75-7.76z" fill="#f6cc4b"/><path d="M167.82 237.31c-.02-.58 0-1.16.07-1.74 1.27-10.25 7.82-17.12 14.3-24.8 2.13-2.53 3.73-4.26 5.27-5.35 3.18-2.27 6.11-1.82 12.98-.17 7.63 1.83 15.27 3.66 22.9 5.5 10.61 2.54 21.22 5.09 31.83 7.63l106.74-5.18 12.5 50.17h-3.79l-35.78 91.06s-4.6-47.42-8.67-51.49-52.57 2.17-64.5-.55c-11.92-2.71-86.45-51.76-86.45-51.76-2.4-1.31-7.21-7.23-7.4-13.32zM681.77 237.41c-.189 6.08-5 12.01-7.399 13.33 0 0-74.53 49.04-86.46 51.76-11.92 2.71-60.43-3.53-64.5.54-4.061 4.07-8.66 51.49-8.66 51.49l-35.78-91.06-3.79-.01 12.49-50.15 106.75 5.18c10.61-2.55 21.22-5.1 31.83-7.64 7.63-1.83 15.26-3.67 22.9-5.5 5.58-1.34 8.56-1.88 11.189-.82 2.17.87 4.101 2.83 7.061 6.34 6.479 7.68 13.029 14.55 14.3 24.81.069.58.089 1.15.069 1.73z" fill="#ff001c"/><path d="M376.13 732.13c-2.74 4.03-7.24 6.65-12.33 6.65h-39.62c-3.66 0-7.02-1.36-9.63-3.62-3.37-2.91-5.52-7.311-5.52-12.24 0-4.38 1.69-8.34 4.44-11.21 1.62-1.7 3.6-3.01 5.82-3.79l31.25-.85h13.26c8.37 0 15.15 7.1 15.15 15.85 0 3.44-1.04 6.61-2.82 9.21zM473.45 732.23c-1.771-2.591-2.811-5.771-2.811-9.2 0-8.761 6.78-15.86 15.141-15.86h13.27l31.25.85c2.22.79 4.2 2.101 5.82 3.801 2.74 2.859 4.439 6.83 4.439 11.21 0 6.3-3.51 11.729-8.579 14.29a14.59 14.59 0 0 1-6.57 1.56h-39.63c-5.08-.001-9.58-2.621-12.33-6.651z" fill="#0b00ea"/><path d="M475.18 263.46l3.79.01 35.78 91.06 5.68 157.72s16.271 86.18 16.271 100.01v95.931l-6.4-.171c-1.53-.55-3.18-.85-4.89-.85h-26.36l-22.52-.61L435.47 533.8h-10.6l-.15-.1h-10.61l-41.06 172.76-22.51.61h-26.36c-1.71 0-3.36.3-4.89.85l-6.4.17v-95.939c0-13.82 16.26-100 16.26-100l5.69-157.72 35.78-91.06h54.1l50.46.089z" fill="#c8c8c8"/><path d="M737.51 240.2c-7.1 4.2-14.83-7.71-22.01-4.34.08 3.79 3.13 6.79 2.89 10.55-2.949-.1-5.09-2.81-7.399-4.46-5.181-3.68-10.58-6.71-17.11-6.6-3.74.06-8.189.94-12.11 2.06.021-.58 0-1.15-.069-1.73-1.271-10.26-7.82-17.13-14.3-24.81-2.96-3.51-4.891-5.47-7.061-6.34 11-4.1 25.36-15.57 31.66-21.12 3.95-3.48 7.96-4.45 12.49-6.93 4.97-2.73 8.52-6.7 12.7-10.25 2.369 4.44-3.36 6.67-5.23 9.41 3.58-.56 7.91-.84 11.35-1.98 3.811-1.26 6.551-4.19 10.551-5.24 2.93 5.36-9.69 7.65-8.53 12.91 7.74.72 14.91-3.41 22.24-4.74-4.71 3.11-7.03 7.17-8.46 12.43 5.52.82 12.09-2.17 17.149-.28-3.46 3.35-13.41 5.61-13.96 10.88 6.101 4.26 13.74 3.79 20.681 5.33-5.431-.07-11.461.33-16.511 2.41 1.851 5.14 13.94 4.78 17.2 10.24-2.09 2.28-5.92.62-8.729.32-5.87-.62-12.011-.78-17.87.08 3.449 5.65 13.399 6.21 15.58 12.95-8.811-.63-17.32-6.6-26.471-3.67 2.239 5.31 7.889 8.54 11.329 12.92zM537.68 738.65c6.721 6.71 14.58 19.979 13.96 29.819-3.52-1.26-6.199-4.33-10.27-4.27-2.78 4.41-.97 9.85-.74 14.71-2.58-2.561-4.08-5.87-6.84-8.23-3.56 2.69-4.62 13.021-5.92 17.931-4.79-1.92-7.62-11.99-11.79-12.551-5.23-.71-9.84 7.551-12.7 11.24-3.399-2.85-4.2-8.189-5.2-12.3-2.42 3.36-4.319 19.76-10.439 19.52-7.061-.27-6.96-13.949-11-17.3-3.71 4.21-4.141 10.62-9.36 13.101-2.63-7.48 1.88-15.49.43-22.78-1.979 6.16-6.319 13.229-11.56 16.87-4.38-14.65 7.3-39.78 17.2-52.18 2.75 4.029 7.25 6.649 12.33 6.649h39.63c2.35 0 4.58-.56 6.57-1.56l5.699 1.331zM376.13 732.13c9.9 12.4 21.59 37.54 17.2 52.18-5.23-3.649-9.57-10.72-11.56-16.869-1.45 7.279 3.07 15.3.44 22.77-5.22-2.479-5.66-8.89-9.37-13.09-4.04 3.34-3.93 17.03-10.99 17.3-6.13.23-8.02-16.17-10.45-19.53-1 4.12-1.8 9.45-5.19 12.311-2.87-3.7-7.48-11.95-12.7-11.25-4.17.56-7.01 10.64-11.79 12.55-1.3-4.9-2.37-15.24-5.92-17.93-2.76 2.359-4.27 5.68-6.84 8.239.23-4.859 2.04-10.31-.74-14.72-4.08-.05-6.76 3.021-10.27 4.28-.63-9.84 7.24-23.11 13.95-29.83l2.65-3.38c2.61 2.26 5.97 3.62 9.63 3.62h39.62c5.09-.001 9.59-2.621 12.33-6.651zM167.89 235.57c-.07.58-.09 1.16-.07 1.74-3.92-1.12-8.37-2-12.11-2.06-6.53-.11-11.93 2.92-17.11 6.6-2.32 1.65-4.45 4.36-7.4 4.45-.24-3.76 2.81-6.76 2.88-10.55-7.18-3.37-14.9 8.55-22.01 4.35 3.44-4.38 9.1-7.61 11.34-12.92-9.15-2.93-17.67 3.04-26.47 3.67 2.17-6.74 12.12-7.3 15.57-12.95-5.85-.87-12-.7-17.87-.08-2.8.3-6.63 1.96-8.72-.32 3.25-5.46 15.35-5.1 17.2-10.24-5.06-2.08-11.09-2.49-16.51-2.42 6.93-1.54 14.58-1.06 20.68-5.32-.55-5.27-10.51-7.53-13.96-10.88 5.05-1.89 11.62 1.1 17.14.28-1.43-5.26-3.74-9.32-8.46-12.44 7.35 1.33 14.51 5.46 22.24 4.75 1.16-5.27-11.45-7.55-8.52-12.91 4 1.05 6.74 3.98 10.55 5.24 3.44 1.14 7.77 1.42 11.36 1.97-1.89-2.73-7.62-4.96-5.24-9.4 4.18 3.55 7.72 7.52 12.69 10.25 4.53 2.48 8.55 3.45 12.49 6.93 7.62 6.71 16.27 17.75 27.26 18.27l2.62 3.84c-1.54 1.09-3.14 2.82-5.27 5.35-6.48 7.68-13.03 14.55-14.3 24.8z" fill="#fff400"/><path d="M446.23 123.43a7.75 7.75 0 0 1 7.75 7.75c0 4.28-3.471 7.76-7.75 7.76-4.29 0-7.771-3.48-7.771-7.76.001-4.28 3.481-7.75 7.771-7.75zM428.96 139.21l4.63 8.03h-18.54l4.64-8.03 4.62-8.03zM403.04 123.2a7.75 7.75 0 0 1 7.75 7.75c0 4.28-3.47 7.76-7.75 7.76a7.76 7.76 0 0 1-7.76-7.76c0-4.28 3.47-7.75 7.76-7.75z" fill="#231f20"/><g fill="none" stroke="#231f20"><path d="M389.46 181.59c-10.55-10.63-17.18-25.97-17.18-43.03 0-32.11 23.48-42.51 52.44-42.51 28.97 0 52.44 10.4 52.44 42.51 0 19.07-8.271 35.99-21.061 46.59-8.75 7.25-19.619 11.55-31.379 11.55-13.58 0-25.95-5.72-35.26-15.11z" stroke-width="14"/><path d="M468.75 189.37c12.41-5.33 20.7-6.26 31.69-17.26 11.529-11.53 17.89-20.68 20.92-34.54 4.439-20.28 1.51-45.04-19.13-56.15-8.44-4.53-17.78-7.2-27.19-8.94-6.59-1.22-15-.14-20.93-3.6-6.021-3.52-8.78-8.3-15.271-12.23-4.63-2.82-9.5-3.68-14.43-3.46 0 0-9.49-.49-14.13 3.47-5.76 4.93-9.24 8.71-15.27 12.24-5.92 3.46-14.33 2.37-20.92 3.6-9.41 1.74-18.75 4.4-27.19 8.94-20.64 11.1-23.57 35.86-19.14 56.15 3.04 13.85 9.39 23 20.93 34.54 11 10.99 19.27 11.92 31.68 17.25" stroke-width="14"/><path d="M442.28 159.02c0 7.07-7.641 12.8-17.07 12.8-9.43 0-17.07-5.73-17.07-12.8" stroke-width="14" stroke-linecap="round" stroke-linejoin="round"/><path d="M386 186l-3.49 4.9-15.69 22.06-4.91.24-106.74 5.18c-10.61-2.54-21.22-5.09-31.83-7.63-7.63-1.84-15.27-3.67-22.9-5.5-6.87-1.65-9.8-2.1-12.98.17-1.54 1.09-3.14 2.82-5.27 5.35-6.48 7.68-13.03 14.55-14.3 24.8-.07.58-.09 1.16-.07 1.74.19 6.09 5 12.01 7.4 13.32 0 0 74.53 49.05 86.45 51.76 11.93 2.72 60.43-3.52 64.5.55s8.67 51.49 8.67 51.49" stroke-width="21"/><path d="M184.84 201.58c-10.99-.52-19.64-11.56-27.26-18.27-3.94-3.48-7.96-4.45-12.49-6.93-4.97-2.73-8.51-6.7-12.69-10.25-2.38 4.44 3.35 6.67 5.24 9.4-3.59-.55-7.92-.83-11.36-1.97-3.81-1.26-6.55-4.19-10.55-5.24-2.93 5.36 9.68 7.64 8.52 12.91-7.73.71-14.89-3.42-22.24-4.75 4.72 3.12 7.03 7.18 8.46 12.44-5.52.82-12.09-2.17-17.14-.28 3.45 3.35 13.41 5.61 13.96 10.88-6.1 4.26-13.75 3.78-20.68 5.32 5.42-.07 11.45.34 16.51 2.42-1.85 5.14-13.95 4.78-17.2 10.24 2.09 2.28 5.92.62 8.72.32 5.87-.62 12.02-.79 17.87.08-3.45 5.65-13.4 6.21-15.57 12.95 8.8-.63 17.32-6.6 26.47-3.67-2.24 5.31-7.9 8.54-11.34 12.92 7.11 4.2 14.83-7.72 22.01-4.35-.07 3.79-3.12 6.79-2.88 10.55 2.95-.09 5.08-2.8 7.4-4.45 5.18-3.68 10.58-6.71 17.11-6.6 3.74.06 8.19.94 12.11 2.06.97.28 1.9.56 2.79.86" stroke-width="7"/><path d="M350.54 707.07h13.26c8.37 0 15.15 7.1 15.15 15.85 0 3.44-1.04 6.61-2.82 9.21-2.74 4.03-7.24 6.65-12.33 6.65h-39.62c-3.66 0-7.02-1.36-9.63-3.62-3.37-2.91-5.52-7.311-5.52-12.24 0-4.38 1.69-8.34 4.44-11.21 1.62-1.7 3.6-3.01 5.82-3.79 1.53-.55 3.18-.85 4.89-.85h26.36zM361.91 213.2l12.5 50.17" stroke-width="21"/><path d="M311.9 738.54c-6.71 6.72-14.58 19.99-13.95 29.83 3.51-1.26 6.19-4.33 10.27-4.28 2.78 4.41.97 9.86.74 14.72 2.57-2.56 4.08-5.88 6.84-8.239 3.55 2.689 4.62 13.029 5.92 17.93 4.78-1.91 7.62-11.99 11.79-12.55 5.22-.7 9.83 7.55 12.7 11.25 3.39-2.86 4.19-8.19 5.19-12.311 2.43 3.36 4.32 19.761 10.45 19.53 7.06-.27 6.95-13.96 10.99-17.3 3.71 4.2 4.15 10.61 9.37 13.09 2.63-7.47-1.89-15.49-.44-22.77 1.99 6.149 6.33 13.22 11.56 16.869 4.39-14.64-7.3-39.779-17.2-52.18-.39-.5-.78-.97-1.17-1.43" stroke-width="7"/><path d="M462 186l4.13 5.38 16.63 21.69 4.91.24 106.75 5.18c10.61-2.55 21.22-5.1 31.83-7.64 7.63-1.83 15.26-3.67 22.9-5.5 5.58-1.34 8.56-1.88 11.189-.82 2.17.87 4.101 2.83 7.061 6.34 6.479 7.68 13.029 14.55 14.3 24.81.069.58.09 1.15.069 1.73-.189 6.08-5 12.01-7.399 13.33 0 0-74.53 49.04-86.46 51.76-11.92 2.71-60.43-3.53-64.5.54-4.061 4.07-8.66 51.49-8.66 51.49" stroke-width="21"/><path d="M654 206c1.9-.09 4.05-.62 6.34-1.47 11-4.1 25.36-15.57 31.66-21.12 3.95-3.48 7.96-4.45 12.49-6.93 4.97-2.73 8.52-6.7 12.7-10.25 2.369 4.44-3.36 6.67-5.23 9.41 3.58-.56 7.91-.84 11.35-1.98 3.811-1.26 6.551-4.19 10.551-5.24 2.93 5.36-9.69 7.65-8.53 12.91 7.74.72 14.91-3.41 22.24-4.74-4.71 3.11-7.03 7.17-8.46 12.43 5.52.82 12.09-2.17 17.149-.28-3.46 3.35-13.41 5.61-13.96 10.88 6.101 4.26 13.74 3.79 20.681 5.33-5.431-.07-11.461.33-16.511 2.41 1.851 5.14 13.94 4.78 17.2 10.24-2.09 2.28-5.92.62-8.729.32-5.87-.62-12.011-.78-17.87.08 3.449 5.65 13.399 6.21 15.58 12.95-8.811-.63-17.32-6.6-26.471-3.67 2.24 5.31 7.891 8.54 11.33 12.92-7.1 4.2-14.83-7.71-22.01-4.34.08 3.79 3.13 6.79 2.89 10.55-2.949-.1-5.09-2.81-7.399-4.46-5.181-3.68-10.58-6.71-17.11-6.6-3.74.06-8.189.94-12.11 2.06-.97.27-1.909.56-2.8.86" stroke-width="7"/><path d="M424.87 533.8h10.6l41.061 172.76 22.52.61 31.25.85 6.4.171V612.26c0-13.83-16.271-100.01-16.271-100.01l-5.68-157.72-35.78-91.06-3.79-.01-50.459-.09h-54.1l-35.78 91.06-5.69 157.72s-16.26 86.18-16.26 100v95.939l6.4-.17 31.25-.85 22.51-.61 41.06-172.76h10.61" stroke-width="21"/><path d="M499.05 707.17h-13.27c-8.36 0-15.141 7.1-15.141 15.86 0 3.43 1.04 6.609 2.811 9.2 2.75 4.029 7.25 6.649 12.33 6.649h39.63c2.35 0 4.58-.56 6.57-1.56 5.069-2.561 8.579-7.99 8.579-14.29 0-4.38-1.699-8.351-4.439-11.21a14.989 14.989 0 0 0-5.82-3.801c-1.53-.55-3.18-.85-4.89-.85h-26.36zM487.67 213.3v.01l-12.49 50.15v.01" stroke-width="21"/><path d="M537.68 738.65c6.721 6.71 14.58 19.979 13.96 29.819-3.52-1.26-6.199-4.33-10.27-4.27-2.78 4.41-.97 9.85-.74 14.71-2.58-2.561-4.08-5.87-6.84-8.23-3.56 2.69-4.62 13.021-5.92 17.931-4.79-1.92-7.62-11.99-11.79-12.551-5.23-.71-9.84 7.551-12.7 11.24-3.399-2.85-4.2-8.189-5.2-12.3-2.42 3.36-4.319 19.76-10.439 19.52-7.061-.27-6.96-13.949-11-17.3-3.71 4.21-4.141 10.62-9.36 13.101-2.63-7.48 1.88-15.49.43-22.78-1.979 6.16-6.319 13.229-11.56 16.87-4.38-14.65 7.3-39.78 17.2-52.18.399-.5.79-.971 1.18-1.431" stroke-width="7"/><path stroke-width="21" stroke-linecap="round" stroke-linejoin="round" d="M63.84 253.61H178.6M674.37 253.61h108.52"/></g><path fill="none" d="M0 0h850.394v850.394H0z"/></svg>