<svg xmlns="http://www.w3.org/2000/svg" width="850.394" height="850.394" viewBox="0 0 850.394 850.394" overflow="visible"><path d="M322.31 211.89l8.21 4.43c-2.77 12.9-24.14 15.32-29.38.16l10.81-4.39 5.72 2.22 4.64-2.42z" fill="#ef947d"/><path d="M206.63 405.92l-.17-.01-48.9 167.3L120 564l-2.04-.24c1.91-23.109 7.57-85.42 15.26-117.35 27.32-113.3 56.38-164.42 56.38-164.42 11.98-11.97 35.02-26.04 55.08-37.13 4.7-2.6 9.24-5.03 13.43-7.23l5.18.11c7.82 19.05 27.72 32.58 51.04 32.58 23.35 0 43.27-13.57 51.07-32.66l1.62-3.08c21.7 11.3 59.84 32.39 76.48 49.03 0 0 24.83 50.95 52.15 164.25 7.6 31.529 13.21 92.67 15.189 116.46L476 574l-4.51 1.32-49.08-167.96-1.81.09 7.8 150.49-3.22.17h-220.2l-3.93-.03c1.55-63.34 5.08-141.47 5.58-152.16z" fill="#fff"/><path d="M428.71 563.97l.31-.02c.771 12.88 1.271 27.609 1.271 44 0 18.359-2.01 132.47-4.85 176.68L334 782l-1.28.07-8.31-147.391-17.68-.09-9.37 151.66L208 776l-2.95.04c-2.78-47.57-4.73-150.81-4.73-168.93 0-13.82.28-30.811.73-49.03l3.93.03h220.2l3.22-.17.31 6.03z" fill="#797878"/><path d="M270.88 120.21s-9.69 9.98-16.15 18.35c-2.16 2.79-3.95 5.4-4.92 7.4l-.61-19.7c0-31.43 25.66-49.68 25.66-49.68 2.96-2.01 4.95-3.03 4.95-3.03 13.08-7.78 30.01-10.53 51.59-8.01 26.07 3.03 46.06 28.99 49.87 61.31.59 4.88-.24 13.01-1.08 18.6-.26-.07-.53-.13-.81-.17-1.83-.29-3.5-.12-5 .42l-.64.14c-.04-.2-.09-.4-.13-.59v-.01c-2.42-9.61-12.84-17.79-15.51-21.48-14.47-19.98-25.41-27.47-28.07-29.1-.41-.26-.62-.37-.62-.37-.03.02-.05.04-.08.05-12.16 8.5-53.23 22.04-58.45 25.87z" fill="#9c5c25"/><path d="M317.26 199.55c-.07.02-.14.03-.22.04l.57-.03c-.12 0-.24 0-.35-.01zm19.99-42.94c0 3.57 3.05 6.48 6.8 6.48 3.74 0 6.79-2.91 6.79-6.48 0-.98.07-1.44-.17-2.01l.47-1c-2.08-1.01-4.36-1.58-6.8-1.53-3.25.08-6.59 1.42-9.1 3.58l1.94.01c.01.21.07.44.07.95zm-41.38-1.44c-2.38-1.75-5.35-2.83-8.24-2.9-2.49-.05-4.8.54-6.91 1.58l.52 1.12c-.17.5-.12.95-.12 1.84 0 3.58 3.05 6.48 6.8 6.48 3.36 0 7.19-4.59 7.95-8.12zm-14.93 70.93c-8.91-10.36-17.06-24.56-21.61-40.46-2.38-8.32-3.78-17.12-3.78-26.07 0-2.97 0-8.16.04-13.17.03-2.81.07-5.57.12-7.84h-.98c6.46-8.37 16.15-18.35 16.15-18.35 5.22-3.83 46.29-17.37 58.45-25.87.14.12.39.22.7.32 2.66 1.63 13.6 9.12 28.07 29.1 2.67 3.69 13.09 11.87 15.51 21.48v.01c.16 5.96.22 9.38.22 14.32 0 8.72-1.38 17.3-3.71 25.45-4.69 16.34-13.22 30.94-22.22 41.47-4.87 5.7-9.87 10.2-14.47 13.13-6.42 3.1-11.31 2.65-18.74 2.65-6.86 0-11.26.69-17.29-1.98-5.34-3-11.04-7.88-16.46-14.19zm49.58-9.78l-8.21-4.43-4.64 2.42-5.72-2.22-10.81 4.39c5.24 15.16 26.61 12.74 29.38-.16z" fill="#ffeec8"/><path d="M380.19 145.45c6.06 1.57 5.12 8.9 3.29 12.64-4.64 9.47-2.52 12.96-3.11 20.19-.22 2.75-3.36 8.09-9.9 6.84l-.35-.1c2.33-8.15 3.71-16.73 3.71-25.45 0-4.94-.06-8.36-.22-14.32.04.19.09.39.13.59l.64-.14c1.5-.54 3.17-.71 5-.42.28.04.55.1.81.17z" fill="#ffeec8"/><path d="M344.01 154.47c1.36 0 2.45.99 2.45 2.19 0 1.21-1.09 2.19-2.45 2.19-1.35 0-2.45-.98-2.45-2.19 0-1.2 1.1-2.19 2.45-2.19zM287.9 154.49c1.35 0 2.44.98 2.44 2.19s-1.09 2.18-2.44 2.18c-1.36 0-2.46-.97-2.46-2.18s1.1-2.19 2.46-2.19z" fill="#231f20"/><path d="M346.46 156.66c0-1.2-1.09-2.19-2.45-2.19-1.35 0-2.45.99-2.45 2.19 0 1.21 1.1 2.19 2.45 2.19 1.36 0 2.45-.98 2.45-2.19zm4.21-2.06c.24.57.17 1.03.17 2.01 0 3.57-3.05 6.48-6.79 6.48-3.75 0-6.8-2.91-6.8-6.48 0-.51-.06-.74-.07-.95l-1.94-.01c2.51-2.16 5.85-3.5 9.1-3.58 2.44-.05 4.72.52 6.8 1.53l-.47 1zM290.34 156.68c0-1.21-1.09-2.19-2.44-2.19-1.36 0-2.46.98-2.46 2.19s1.1 2.18 2.46 2.18c1.35 0 2.44-.97 2.44-2.18zm-2.71-4.41c2.89.07 5.86 1.15 8.24 2.9-.76 3.53-4.59 8.12-7.95 8.12-3.75 0-6.8-2.9-6.8-6.48 0-.89-.05-1.34.12-1.84l-.52-1.12c2.11-1.04 4.42-1.63 6.91-1.58z" fill="#fff"/><path d="M255.55 159.57c0 8.95 1.4 17.75 3.78 26.07l-.61.17c-6.54 1.25-9.68-4.09-9.9-6.84-.6-7.23 1.53-10.72-3.11-20.19-1.91-3.9-2.85-11.7 4.1-12.82 1.82-.29 3.5-.1 4.99.43l.79.01c-.04 5.01-.04 10.2-.04 13.17zM367.02 234.58l-1.62 3.08c-7.8 19.09-27.72 32.66-51.07 32.66-23.32 0-43.22-13.53-51.04-32.58l-5.18-.11c11.33-5.96 20.13-10.24 22.83-11.53 5.42 6.31 11.12 11.19 16.46 14.19 6.03 2.67 10.43 1.98 17.29 1.98 7.43 0 12.32.45 18.74-2.65 4.6-2.93 9.6-7.43 14.47-13.13l3.26.06s6.35 3.07 15.86 8.03zM166.96 628.38c0 6.32-.85 11.561-3.01 14.44-5.14.75-3.06-10-10.29-10.41-3.45 7.59-2.41 29.7-11.52 32.06-8.2 2.2-18.48-6.22-21.39-12.77-4.94-11.141-8.51-47.96-3.5-79.021 0 0 .24-3.3.71-8.92L120 564l37.56 9.21-1.03 3.521c3.39 6.299 10.43 33.469 10.43 51.649zM511.62 574.13c5.01 31.061 1.45 67.88-3.49 79.021-2.91 6.55-13.2 14.97-21.399 12.77-9.101-2.36-8.061-24.479-11.511-32.06-7.229.399-5.149 11.149-10.29 10.409-2.16-2.89-3.01-8.119-3.01-14.449 0-18.181 7.04-45.351 10.41-51.641l-.84-2.859L476 574l34.84-9.68c.51 6.16.78 9.81.78 9.81z" fill="#ffeec8"/><path d="M711.15 176.52h3.3c.899 2.58 1.39 5.4 1.39 8.36 0 12.08-8.229 21.88-18.37 21.88-10.149 0-18.37-9.8-18.37-21.88 0-2.96.49-5.78 1.391-8.36h30.659z" fill="#231f20"/><path d="M714.45 176.52h-3.3v-6.25c1.38 1.83 2.5 3.94 3.3 6.25zM711.15 170.27v6.25h-30.66c2.75-7.94 9.319-13.53 16.979-13.53 5.431 0 10.311 2.81 13.681 7.28zM634.52 185.08c2.931 3.88 4.721 9.01 4.721 14.65 0 3.99-.891 7.72-2.46 10.93h-31.82c-1.57-3.21-2.46-6.94-2.46-10.93 0-12.09 8.23-21.89 18.37-21.89 5.409 0 10.289 2.79 13.649 7.24z" fill="#231f20"/><path d="M604.96 210.66h31.82c-3.17 6.55-9.11 10.95-15.91 10.95s-12.74-4.4-15.91-10.95zM560.15 245.83h.76c2.47 3.72 3.95 8.43 3.95 13.54 0 9.77-5.351 18.03-12.761 20.85h-11.22c-7.399-2.83-12.75-11.09-12.75-20.85 0-5.11 1.47-9.82 3.94-13.54h28.081zM560.91 245.83h-.76v-1.09c.26.35.52.72.76 1.09zM560.15 244.74v1.09h-28.08c3.359-5.08 8.569-8.34 14.42-8.34 5.42 0 10.3 2.8 13.66 7.25zM540.88 280.22h11.22c-1.77.68-3.649 1.04-5.609 1.04s-3.841-.37-5.611-1.04z" fill="#231f20"/><g fill="none" stroke="#231f20"><path d="M205.32 780.47c-.09-1.41-.18-2.89-.27-4.43-2.78-47.57-4.73-150.81-4.73-168.93 0-13.82.28-30.811.73-49.03 1.55-63.34 5.08-141.47 5.58-152.16.03-.81.05-1.23.05-1.23M428.94 568.39l-.23-4.42-.31-6.03-7.8-150.49-.1-1.88M425.44 784.63c2.84-44.21 4.85-158.32 4.85-176.68 0-16.391-.5-31.12-1.271-44M332.96 786.25l-.24-4.18-8.31-147.39-17.68-.09-9.37 151.66M204.98 558.11h220.2" stroke-width="14"/><path d="M273.54 159.72c2.01-2.43 4.42-4.53 7.18-5.87 2.11-1.04 4.42-1.63 6.91-1.58 2.89.07 5.86 1.15 8.24 2.9 1.51 1.11 2.79 2.49 3.68 4.06" stroke-width="6.449" stroke-linecap="square" stroke-miterlimit="10"/><path d="M296 154c0 .37-.05.76-.13 1.17-.76 3.53-4.59 8.12-7.95 8.12-3.75 0-6.8-2.9-6.8-6.48 0-.89-.05-1.34.12-1.84" stroke-width="3.224" stroke-linecap="square" stroke-miterlimit="10"/><path d="M358.43 159.52c-2.03-2.46-4.49-4.58-7.29-5.92-2.08-1.01-4.36-1.58-6.8-1.53-3.25.08-6.59 1.42-9.1 3.58-1.14.98-2.11 2.12-2.83 3.39" stroke-width="6.449" stroke-linecap="square" stroke-miterlimit="10"/><path d="M337.18 155.66c.01.21.07.44.07.95 0 3.57 3.05 6.48 6.8 6.48 3.74 0 6.79-2.91 6.79-6.48 0-.98.07-1.44-.17-2.01" stroke-width="3.224" stroke-linecap="square" stroke-miterlimit="10"/><path d="M254.8 146.39c-1.49-.53-3.17-.72-4.99-.43-6.95 1.12-6.01 8.92-4.1 12.82 4.64 9.47 2.51 12.96 3.11 20.19.22 2.75 3.36 8.09 9.9 6.84M374.38 145.7c1.5-.54 3.17-.71 5-.42.28.04.55.1.81.17 6.06 1.57 5.12 8.9 3.29 12.64-4.64 9.47-2.52 12.96-3.11 20.19-.22 2.75-3.36 8.09-9.9 6.84" stroke-width="6.449"/><path d="M330.52 216.32c-2.77 12.9-24.14 15.32-29.38.16l10.81-4.39 5.72 2.22 4.64-2.42 8.21 4.43z" stroke-width="7"/><path d="M373.61 145.25c.16 5.96.22 9.38.22 14.32 0 8.72-1.38 17.3-3.71 25.45-4.69 16.34-13.22 30.94-22.22 41.47-4.87 5.7-9.87 10.2-14.47 13.13-6.42 3.1-11.31 2.65-18.74 2.65-6.86 0-11.26.69-17.29-1.98-5.34-3-11.04-7.88-16.46-14.19-8.91-10.36-17.06-24.56-21.61-40.46-2.38-8.32-3.78-17.12-3.78-26.07 0-2.97 0-8.16.04-13.17.03-2.81.07-5.57.12-7.84M373.59 144.54c.01.24.01.47.02.7" stroke-width="14"/><path d="M317.26 199.55c3.28-.59 2.69-2.52 6.17-1.68 2.99.73 6.17 2.22 6.92-2.46.52-3.22-1.91-3.65-3.2-6.24M317.26 199.55c.11.01.23.01.35.01l-.57.03c.08-.01.15-.02.22-.04z" stroke-width="7"/><path d="M307.17 159.37c5.37 5.9 3.75 19.75 1.34 26.96l-1.01 2.81c-1.29 2.59-3.71 3.01-3.19 6.24.74 4.67 3.92 3.18 6.91 2.46 3.45-.83 2.68 1.56 6.04 1.71" stroke-width="7"/><path d="M290.34 156.68c0 1.21-1.09 2.18-2.44 2.18-1.36 0-2.46-.97-2.46-2.18s1.1-2.19 2.46-2.19c1.35 0 2.44.98 2.44 2.19zM346.46 156.66c0 1.21-1.09 2.19-2.45 2.19-1.35 0-2.45-.98-2.45-2.19 0-1.2 1.1-2.19 2.45-2.19 1.36 0 2.45.99 2.45 2.19z" stroke-width="3.224"/><path d="M303.61 148.55c-2.9-6.11-14.24-8.49-19.98-7.34-5.39 1.08-8.07 1.72-13.7 6.08M327.11 147.21c2.9-6.1 14.24-8.48 19.97-7.34 5.4 1.08 8.08 1.73 13.7 6.09" stroke-width="7"/><path d="M380 146.67c.06-.39.13-.8.19-1.22.84-5.59 1.67-13.72 1.08-18.6-3.81-32.32-23.8-58.28-49.87-61.31-21.58-2.52-38.51.23-51.59 8.01 0 0-1.99 1.02-4.95 3.03 0 0-25.66 18.25-25.66 49.68l.61 19.7c.97-2 2.76-4.61 4.92-7.4 6.46-8.37 16.15-18.35 16.15-18.35 5.22-3.83 46.29-17.37 58.45-25.87.03-.01.05-.03.08-.05 0 0 .21.11.62.37 2.66 1.63 13.6 9.12 28.07 29.1 2.67 3.69 13.09 11.87 15.51 21.48v.01c.04.19.09.39.13.59.18.83.3 1.67.34 2.52" stroke-width="14"/><path d="M334.16 95.19c-.62.01-2.9-.17-4.13-.53-.31-.1-.56-.2-.7-.32a.305.305 0 0 1-.1-.13c3.73-3.63 6.68-9.56 6.68-15.58M117.25 572.68s.24-3.3.71-8.92c1.91-23.109 7.57-85.42 15.26-117.35 27.32-113.3 56.38-164.42 56.38-164.42 11.98-11.97 35.02-26.04 55.08-37.13 4.7-2.6 9.24-5.03 13.43-7.23 11.33-5.96 20.13-10.24 22.83-11.53.56-.28.86-.42.86-.42" stroke-width="14"/><path d="M206.46 405.91l-48.9 167.3-1.03 3.521c3.39 6.3 10.43 33.47 10.43 51.649 0 6.32-.85 11.561-3.01 14.44-5.14.75-3.06-10-10.29-10.41-3.45 7.59-2.41 29.7-11.52 32.06-8.2 2.2-18.48-6.22-21.39-12.77-4.94-11.141-8.51-47.96-3.5-79.021" stroke-width="14"/><path stroke-width="14" d="M120 564l37.56 9.21 2.18.53M511.62 574.13s-.271-3.649-.78-9.81c-1.979-23.79-7.59-84.931-15.189-116.46-27.32-113.3-52.15-164.25-52.15-164.25-16.64-16.64-54.78-37.73-76.48-49.03-9.51-4.96-15.86-8.03-15.86-8.03"/><path d="M422.41 407.36l49.08 167.96.84 2.859c-3.37 6.29-10.41 33.46-10.41 51.641 0 6.33.85 11.56 3.01 14.449 5.141.74 3.061-10.01 10.29-10.409 3.45 7.58 2.41 29.699 11.511 32.06 8.199 2.2 18.489-6.22 21.399-12.77 4.94-11.141 8.5-47.96 3.49-79.021" stroke-width="14"/><path stroke-width="14" d="M512 564l-1.16.32L476 574M365.4 237.66c-7.8 19.09-27.72 32.66-51.07 32.66-23.32 0-43.22-13.53-51.04-32.58"/><path d="M634.52 185.08c2.931 3.88 4.721 9.01 4.721 14.65 0 3.99-.891 7.72-2.46 10.93-3.17 6.55-9.11 10.95-15.91 10.95s-12.74-4.4-15.91-10.95c-1.57-3.21-2.46-6.94-2.46-10.93 0-12.09 8.23-21.89 18.37-21.89 5.409 0 10.289 2.79 13.649 7.24zM714.45 176.52c.899 2.58 1.39 5.4 1.39 8.36 0 12.08-8.229 21.88-18.37 21.88-10.149 0-18.37-9.8-18.37-21.88 0-2.96.49-5.78 1.391-8.36 2.75-7.94 9.319-13.53 16.979-13.53 5.431 0 10.311 2.81 13.681 7.28 1.379 1.83 2.499 3.94 3.299 6.25z" stroke-width="6.449"/><path stroke-width="12.898" d="M634.52 199.9V99.85l76.63-21.89v106.92"/><path d="M560.91 245.83c2.47 3.72 3.95 8.43 3.95 13.54 0 9.77-5.351 18.03-12.761 20.85-1.77.68-3.649 1.04-5.609 1.04s-3.84-.37-5.61-1.04c-7.399-2.83-12.75-11.09-12.75-20.85 0-5.11 1.47-9.82 3.94-13.54 3.359-5.08 8.569-8.34 14.42-8.34 5.42 0 10.3 2.8 13.66 7.25.26.35.52.72.76 1.09z" stroke-width="6.449"/><path stroke-width="12.898" d="M560.15 259.54V159.5"/><path stroke-width="7" d="M478.86 176.52H738.36M478.86 210.66h259.5M478.86 245.83h259.5M478.86 280.22h259.5"/></g><path fill="none" d="M0 0h850.394v850.394H0z"/></svg>