<svg xmlns="http://www.w3.org/2000/svg" width="850.394" height="850.394" viewBox="0 0 850.394 850.394" overflow="visible"><g fill="#ffeec8"><path d="M459.04 604.13c-5.81.44-13.36-.92-22.72-4.93a88.584 88.584 0 0 0-10.44-3.75c-15.42-4.45-25.16-2.101-28.83-.78 3.97-2.49 7.45-5.96 9.56-10.5.79-1.7-.46-4.82-3.02-8.75l.67-.11c4.79 2.23 19.93-5.93 20.07-15.26.04-2.45-1.51-6.08-4.03-10.34l.68-.39 32.52 12.8.2-.101c2.3 4.551 4.609 8.91 6.92 12.881 2.6 4.439 7.32 6.979 12.55 7.949 3.49 9.771-.81 20.251-14.13 21.281z"/><path d="M374.14 598.64c.8 1.73 1.04 3.17.55 4.23-4.21 9.05-15.04 12.18-26.45 12.28 0 0-20.81-1.641-14.83-11.591 4.24-7.05-18.65-19.56-36.51-18.779-17.84.8-19.28 5.83-36.09 5.77-16.78-.08-35.68-12.1-50.04-19.859-14.81-7.971-26.92-21.9-45.35-14.931l30.27-117.52s105.9 3.319 120.07 3.51c48.26.61 80.15 5.16 100.21 9.69 1.6.369 3.13.729 4.59 1.1 17.93 4.43 24.72 8.54 24.72 8.54s12.979 15.76 37.92 72.32c4.34 9.859 9.05 20.97 14.12 33.439 4.609 11.351-11.32 18.391-24.15 16.01-5.229-.97-9.95-3.51-12.55-7.949-2.311-3.971-4.62-8.33-6.92-12.881-12.87-25.409-25.44-56.5-36.56-56.189-13.12.35-32.64-.59-32.64-.59s25.69 27.29 35.8 44.47c2.52 4.26 4.07 7.89 4.03 10.34-.14 9.33-15.28 17.49-20.07 15.26l-.67.11c2.56 3.93 3.81 7.05 3.02 8.75-2.11 4.54-5.59 8.01-9.56 10.5-8.11 5.1-18.26 6.13-22.9 3.97h-.01z"/><path d="M459.04 604.13c13.32-1.03 17.62-11.51 14.13-21.28 12.83 2.381 28.76-4.659 24.15-16.01-5.07-12.47-9.78-23.58-14.12-33.439l3-.86c38.87-39.98 72.819-73.32 83.189-79.01 0 0-54.04-80.79-93.069-147.31-38.61-27.83-52.24 78.98-54.17 99.49-.9 9.71-1.14 25.63-.99 44.39l-.6 2.44c-1.46-.37-2.99-.73-4.59-1.1l-22.9-384.4c38.25 6.62 101.89 16.28 118.371 25.18 20.6 11.14 69.42 74.01 115.239 180.38 41.7 96.83 64.811 171.93 67.271 206.4 2.95 41.18-232.75 261.63-303.87 302.69L388 778l-51.26-87.03s41.16-44.689 89.1-95.38l.04-.14c3.23.93 6.71 2.149 10.44 3.75 9.36 4.01 16.91 5.37 22.72 4.93z"/></g><g fill="none" stroke="#231f20" stroke-width="14"><path d="M476.35 306.24c-.01-.01-.02-.01-.029-.02-38.61-27.83-52.24 78.98-54.17 99.49-.9 9.71-1.14 25.63-.99 44.39M425.84 595.59c-47.94 50.69-89.1 95.38-89.1 95.38"/><path d="M445.74 249.87c7.149 15.25 18.1 35.07 30.58 56.35 39.029 66.52 93.069 147.31 93.069 147.31-10.37 5.689-44.319 39.029-83.189 79.01"/><path d="M393.07 67.04c38.25 6.62 101.89 16.28 118.371 25.18 20.6 11.14 69.42 74.01 115.239 180.38 41.7 96.83 64.811 171.93 67.271 206.4 2.95 41.18-232.75 261.63-303.87 302.69-.56.319-1.1.63-1.64.93"/><path d="M404.26 575.31c4.79 2.23 19.93-5.93 20.07-15.26.04-2.45-1.51-6.08-4.03-10.34-10.11-17.18-35.8-44.47-35.8-44.47s19.52.939 32.64.59c11.12-.311 23.69 30.78 36.56 56.189 2.3 4.551 4.609 8.91 6.92 12.881 2.6 4.439 7.32 6.979 12.55 7.949 12.83 2.381 28.76-4.659 24.15-16.01-5.07-12.47-9.78-23.58-14.12-33.439-24.94-56.561-37.92-72.32-37.92-72.32s-6.79-4.11-24.72-8.54c-1.46-.37-2.99-.73-4.59-1.1-20.06-4.53-51.95-9.08-100.21-9.69-14.17-.19-120.07-3.51-120.07-3.51"/><path d="M357.23 526.19s35.33 32.25 46.36 49.229c2.56 3.93 3.81 7.05 3.02 8.75-2.11 4.54-5.59 8.01-9.56 10.5-8.11 5.1-18.26 6.13-22.9 3.97M329.44 556.22s38.6 29.351 44.7 42.42c.8 1.73 1.04 3.17.55 4.23-4.21 9.05-15.04 12.18-26.45 12.28 0 0-20.81-1.641-14.83-11.591 4.24-7.05-18.65-19.56-36.51-18.779-17.84.8-19.28 5.83-36.09 5.77-16.78-.08-35.68-12.1-50.04-19.859-14.81-7.971-26.92-21.9-45.35-14.931"/><path d="M395.39 595.36s.56-.301 1.66-.69c3.67-1.32 13.41-3.67 28.83.78 3.23.93 6.71 2.149 10.44 3.75 9.359 4.01 16.91 5.37 22.72 4.93 13.32-1.03 17.62-11.51 14.13-21.28-.01-.04-.03-.069-.04-.109M420.98 549.32l32.52 12.8"/><path d="M458.94 602.85s.05.45.1 1.28c.34 5.93.39 31.42-21.25 55.12M476.56 591.1s7.061 16.45 56.41 9.4"/></g><path fill="none" d="M0 0h850.394v850.394H0z"/></svg>