<svg xmlns="http://www.w3.org/2000/svg" width="850.394" height="850.394" viewBox="0 0 850.394 850.394" overflow="visible"><path d="M611.91 51.03c93.51 0 169.31 75.81 169.31 169.31 0 46.76-18.95 89.08-49.59 119.72L730 338c-9.74-10.65-38-17.66-47.78-29.03 0 0-14.81-25.64-14.68-33.01l-.03-.02c4.01-6.23 6.61-11.41 6.96-13.9.11-.82 1.54-6.57 2.811-14.38 7.83 7.67 17.939-4.31 18.38-10.03.77-10.23-2-15.18 4.05-28.61 1.94-4.33 3.12-12.06-.82-15.96 7.92-67.49-23.5-100.6-60.3-104.89-49.55-5.78-84.54-3-112.51 37.37-12.75 18.41-11.68 60.75-10.12 82.48 3.771 11.59.53 19.99 1.96 28.15.73 4.25 5.42 12.39 12.24 12.91 2.35 16.23 11.37 25.24 14.5 30.92 2.899 5.29 15.56 25.31 22.81 31.46.57.49 1.19.94 1.84 1.36l-.39.94c-1.09 7.73-20.91 31.33-38.92 50.24l-5.87 1.13c-48.88-29.69-81.52-83.42-81.52-144.79-.001-93.5 75.799-169.31 169.299-169.31z" fill="#ffffc2"/><path d="M730 338l1.63 2.06c-30.64 30.63-72.97 49.58-119.72 49.58-32.141 0-62.19-8.96-87.78-24.51L530 364c18.01-18.91 37.83-42.51 38.92-50.24l.39-.94c12.561 8.1 38.54 4.05 51.561 4.05 15 0 35.899-24.22 46.64-40.93l.03.02c-.13 7.37 14.68 33.01 14.68 33.01C692 320.34 720.26 327.35 730 338zM698.89 193.06c3.94 3.9 2.761 11.63.82 15.96-6.05 13.43-3.28 18.38-4.05 28.61-.44 5.72-10.55 17.7-18.38 10.03 1.1-6.74 2.069-15.01 1.979-22.99-.05-4.68-.46-9.25-1.439-13.35-1.75-8.78 5.12-22.46 16.56-20.46 1.95.34 3.42 1.12 4.51 2.2z" fill="#ffeec8"/><path d="M677.82 211.32c.979 4.1 1.39 8.67 1.439 13.35-7.899-7.89-4.729-47.4-14.79-57.46-10.069-10.06-17.25-37.37-17.25-37.37-.17-.11-.35-.2-.54-.26-4.25-1.56-11.39 7.28-15.26 9.46-6.04 3.4-13.35 5.03-19.95 6.77-17.08 4.51-39.33-24.23-76.31 12.78l-8.63 14.31c0 17.85-1.58 27.35-1.58 35.46 0 3.15.3 6.34.74 9.56-7.2-7.2-9.73-9.9-9.73-9.9-1.56-21.73-2.63-64.07 10.12-82.48 27.97-40.37 62.96-43.15 112.51-37.37 36.8 4.29 68.22 37.4 60.3 104.89-1.09-1.08-2.56-1.86-4.51-2.2-11.439-2-18.309 11.68-16.559 20.46z" fill="#9e5c26"/><path d="M530.16 249.08c-.22-1.49-.38-3.04-.47-4.66-.53-8.89-2.811-17.81-4-26.5-.44-3.22-.74-6.41-.74-9.56 0-8.11 1.58-17.61 1.58-35.46l8.63-14.31c36.979-37.01 59.229-8.27 76.31-12.78 6.601-1.74 13.91-3.37 19.95-6.77 3.87-2.18 11.01-11.02 15.26-9.46.19.06.37.15.54.26 0 0 7.181 27.31 17.25 37.37 10.061 10.06 6.891 49.57 14.79 57.46.09 7.98-.88 16.25-1.979 22.99-1.271 7.81-2.7 13.56-2.811 14.38-.35 2.49-2.95 7.67-6.96 13.9-10.74 16.71-31.64 40.93-46.64 40.93-13.021 0-39 4.05-51.561-4.05a16.92 16.92 0 0 1-1.84-1.36c-7.25-6.15-19.91-26.17-22.81-31.46-3.129-5.68-12.149-14.69-14.499-30.92zm9.13-44.69l.18.17c3.29 3.05 7.101 5.79 11.5 7.35 2.67.95 6.33 1.11 9.12.54 1.17-.24 2.63-.53 3.72-1.04.931-.42 1.71-1.41 2.561-1.81 1.29-.6 2.72-.07 3.92-.81 1.4-.86.35-1.85-.47-3.27-1.311-2.34-3.351-4.35-5.73-5.81-2.7-1.69-5.87-2.7-8.97-2.77-2.69-.06-5.22.49-7.561 1.49-3.11 1.33-5.89 3.44-8.27 5.96zm45.4 48.84c-8.181-4.3-5.95-14.6-4.75-20.54-.381 1.07-6.261 6.78-6.921 8.64-.939 2.62-.6 6.41.87 7.93 1.24 1.26 4.86 2.64 6.41 2.88 1.601.24 2.541.41 4.391 1.09zm42.05 23.67c-9.36.17-16.53-2.29-22.63-3.11l.08-.67c-3.24-6.34-5.11-16.8-5.2-21.56 2.24-.89 4.39-.69 8.12-.51.51.02 1.029 0 1.55-.06-3.29-1.51-7.74-2.48-10.47.92-.57.29-1.16.66-1.79 1.12-2.141 1.55-5.091 1.7-7.86 1.24.04 3.75-1.73 15.23-3.05 18.68l.02.67c-5.56.1-10.47 4.18-16.13 5.79-1.33.37-2.7.61-4.13.63 4.36 1.48 8.36 3.68 12.92 4.76 6.46 1.56 13.8.34 20.37-.22 10.24-.89 19.479.19 27.29-6.83.31-.26.61-.55.91-.85zm17.2-72.41c-2.391-2.52-5.171-4.63-8.271-5.96-2.34-1-4.87-1.55-7.56-1.49-3.091.07-6.25 1.07-8.96 2.75-2.391 1.48-4.431 3.48-5.74 5.83-.82 1.42-1.87 2.4-.48 3.27 1.19.74 2.65.21 3.92.81.86.4 1.641 1.39 2.57 1.81 1.09.5 2.55.8 3.71 1.04 2.78.58 6.46.41 9.12-.54 4.39-1.56 8.21-4.3 11.51-7.35l.181-.17zm-59.22 93.29l19.94-1.62c-7.02-5.32-15.09-3.24-19.94 1.62z" fill="#ffeec8"/><path d="M643.94 204.49l-.181.17c-3.3 3.05-7.12 5.79-11.51 7.35-2.66.95-6.34 1.12-9.12.54-1.16-.24-2.62-.54-3.71-1.04-.93-.42-1.71-1.41-2.57-1.81-1.27-.6-2.729-.07-3.92-.81-1.39-.87-.34-1.85.48-3.27 1.31-2.35 3.35-4.35 5.74-5.83l.42.68c-.521 1.04-.2.93-.2 2.15 0 4.42 3.74 8 8.38 8 4.62 0 8.37-3.58 8.37-8 0-1.65.149-2.08-.75-3.35l.3-.74c3.101 1.33 5.881 3.44 8.271 5.96z" fill="#fff"/><path d="M635.37 199.27c.899 1.27.75 1.7.75 3.35 0 4.42-3.75 8-8.37 8-4.64 0-8.38-3.58-8.38-8 0-1.22-.32-1.11.2-2.15l-.42-.68c2.71-1.68 5.869-2.68 8.96-2.75 2.689-.06 5.22.49 7.56 1.49l-.3.74zm-2.45 3.65c0-2.46-2.27-4.48-5.09-4.48-2.83 0-5.12 2.02-5.12 4.48 0 2.48 2.29 4.49 5.12 4.49 2.82 0 5.09-2.01 5.09-4.49z" fill="#9e5c26"/><path d="M627.83 198.44c2.82 0 5.09 2.02 5.09 4.48 0 2.48-2.27 4.49-5.09 4.49-2.83 0-5.12-2.01-5.12-4.49 0-2.46 2.29-4.48 5.12-4.48zm1.83 4.49c0-1.11-.83-1.99-1.83-1.99-1.021 0-1.82.88-1.82 1.99 0 1.1.8 1.99 1.82 1.99 1 0 1.83-.89 1.83-1.99z" fill="#231f20"/><path d="M627.83 200.94c1 0 1.83.88 1.83 1.99 0 1.1-.83 1.99-1.83 1.99-1.021 0-1.82-.89-1.82-1.99 0-1.11.8-1.99 1.82-1.99z" fill="#231f20"/><path d="M604.11 273.79c6.1.82 13.27 3.28 22.63 3.11-.3.3-.601.59-.91.85-16 1.34-39.7 2.42-56.21 2.42l-.24-.76c5.66-1.61 10.57-5.69 16.13-5.79 1.59-.04 3.24.26 4.971 1.03 4.75 2.13 7.479-1.53 12.71-.97.299.03.609.07.919.11z" fill="#ee947d"/><path d="M625.83 277.75c-7.811 7.02-17.05 5.94-27.29 6.83-6.57.56-13.91 1.78-20.37.22-4.56-1.08-8.56-3.28-12.92-4.76 1.43-.02 2.8-.26 4.13-.63l.24.76c16.51 0 40.21-1.08 56.21-2.42z" fill="#ee947d"/><path d="M604.66 296.16l-19.94 1.62c4.85-4.86 12.92-6.94 19.94-1.62z" fill="#fff"/><path d="M598.19 251.91c.27-.13.529-.25.8-.35.09 4.76 1.96 15.22 5.2 21.56l-.08.67c-.311-.04-.62-.08-.92-.11-5.23-.56-7.96 3.1-12.71.97-1.73-.77-3.381-1.07-4.971-1.03l-.02-.67c1.319-3.45 3.09-14.93 3.05-18.68 2.77.46 5.72.31 7.86-1.24.631-.46 1.221-.83 1.791-1.12z" fill="#ffeec8"/><path d="M569.82 205.52c.819 1.42 1.87 2.41.47 3.27-1.2.74-2.63.21-3.92.81-.851.4-1.63 1.39-2.561 1.81-1.09.51-2.55.8-3.72 1.04-2.79.57-6.45.41-9.12-.54-4.399-1.56-8.21-4.3-11.5-7.35l-.18-.17c2.38-2.52 5.16-4.63 8.27-5.96l.301.74c-.9 1.27-.75 1.7-.75 3.35 0 4.42 3.75 8 8.37 8 4.619 0 8.369-3.58 8.369-8 0-1.22.341-1.11-.18-2.14l.42-.67c2.381 1.46 4.421 3.47 5.731 5.81z" fill="#fff"/><path d="M564.09 199.71l-.42.67c.521 1.03.18.92.18 2.14 0 4.42-3.75 8-8.369 8-4.62 0-8.37-3.58-8.37-8 0-1.65-.15-2.08.75-3.35l-.301-.74c2.341-1 4.87-1.55 7.561-1.49 3.099.07 6.269 1.08 8.969 2.77zm-3.58 3.11c0-2.46-2.279-4.48-5.109-4.48-2.82 0-5.101 2.02-5.101 4.48 0 2.48 2.28 4.5 5.101 4.5 2.829 0 5.109-2.02 5.109-4.5z" fill="#9e5c26"/><path d="M555.4 198.34c2.83 0 5.109 2.02 5.109 4.48 0 2.48-2.279 4.5-5.109 4.5-2.82 0-5.101-2.02-5.101-4.5.001-2.46 2.281-4.48 5.101-4.48zm1.82 4.5c0-1.11-.819-2-1.819-2-1.011 0-1.82.89-1.82 2 0 1.09.81 1.98 1.82 1.98.999 0 1.819-.89 1.819-1.98z" fill="#231f20"/><path d="M555.4 200.84c1 0 1.819.89 1.819 2 0 1.09-.819 1.98-1.819 1.98-1.011 0-1.82-.89-1.82-1.98 0-1.11.81-2 1.82-2z" fill="#231f20"/><path d="M529.69 244.42c.09 1.62.25 3.17.47 4.66-6.82-.52-11.51-8.66-12.24-12.91-1.43-8.16 1.811-16.56-1.96-28.15 0 0 2.53 2.7 9.73 9.9 1.19 8.69 3.47 17.61 4 26.5z" fill="#ffeec8"/><path d="M419.47 491.79c84.4 0 152.82 68.42 152.82 152.82 0 58.029-32.34 108.5-79.97 134.38L490 776c-16.25-17.07-30.75-40.09-31.72-47.05l-1.59-.15c1.05-.569 2.01-1.22 2.88-1.95 6.56-5.529 17.979-23.609 20.6-28.39 2.82-5.12 10.97-13.24 13.1-27.9 6.15-.479 10.381-7.829 11.051-11.659 1.279-7.37-1.65-14.95 1.77-25.4 1.41-19.63 2.36-57.83-9.149-74.46-25.24-36.44-56.83-38.93-101.55-33.72-33.21 3.859-61.6 33.76-54.43 94.68-3.55 3.52-2.49 10.5-.74 14.39 5.45 12.13 2.96 16.591 3.65 25.841.4 5.159 9.54 15.989 16.6 9.029 1.15 7.061 2.44 12.26 2.54 12.99.32 2.25 2.66 6.93 6.28 12.55l-.03.021c.12 6.64-13.25 29.8-13.25 29.8-8.84 10.26-39.22 13.77-48.01 23.38l-.58.53c-25.29-27.261-40.77-63.78-40.77-103.92C266.65 560.21 335.07 491.79 419.47 491.79z" fill="#ffffc2"/><path d="M388.08 562.7c-.16.05-.32.13-.48.229 0 0-6.48 24.65-15.56 33.71-9.09 9.101-6.22 44.761-13.36 51.891.04-4.13.4-8.181 1.24-11.83.01-.03.02-.061.02-.09 1.7-7.931-4.53-20.42-14.9-18.601-1.77.311-3.1 1.01-4.08 1.99-7.17-60.92 21.22-90.82 54.43-94.68 44.72-5.21 76.31-2.721 101.55 33.72 11.51 16.63 10.56 54.83 9.149 74.46 0 0-2.29 2.44-8.79 8.94.4-2.91.67-5.79.67-8.641 0-7.319-1.43-15.899-1.43-32.01l-7.79-12.92c-33.39-33.4-53.47-7.46-68.88-11.521-5.95-1.58-12.56-3.05-18.01-6.119-3.499-1.968-9.939-9.948-13.779-8.528z" fill="#9e5c26"/><path d="M497.3 642.44c6.5-6.5 8.79-8.94 8.79-8.94-3.42 10.45-.49 18.03-1.77 25.4-.67 3.83-4.9 11.18-11.051 11.659.2-1.34.341-2.739.431-4.199.46-8.02 2.52-16.07 3.6-23.92z" fill="#ffeec8"/><path d="M461.59 698.5c-1.3-.02-2.54-.23-3.75-.58-5.109-1.45-9.53-5.13-14.54-5.21l.021-.61c-1.19-3.119-2.79-13.51-2.75-16.869-2.511.43-5.17.3-7.11-1.11-.56-.41-1.09-.74-1.6-1-2.46-3.08-6.45-2.21-9.43-.84.45.06.91.08 1.37.06 3.37-.18 5.311-.359 7.33.45-.08 4.32-1.77 13.75-4.689 19.47l.069.59c-5.5.74-11.96 2.96-20.42 2.82.27.271.54.521.81.771 7.05 6.319 15.39 5.359 24.65 6.149 5.92.521 12.55 1.62 18.38.22 4.109-.991 7.729-2.971 11.659-4.311zm-13.28-42.8c1.08 5.359 3.141 14.71-4.27 18.6 1.66-.62 2.53-.77 3.96-.979 1.4-.221 4.67-1.46 5.78-2.61 1.34-1.36 1.64-4.78.79-7.15-.601-1.68-5.94-6.859-6.24-7.8-.01-.021-.01-.041-.02-.061zm36.72-25.48c-2.15-2.27-4.66-4.18-7.46-5.37-2.12-.92-4.41-1.42-6.84-1.369-2.801.069-5.65.979-8.08 2.5-2.16 1.329-4.011 3.14-5.2 5.25-.72 1.289-1.681 2.18-.41 2.96 1.07.659 2.38.18 3.53.729.779.36 1.489 1.26 2.31 1.63.99.47 2.3.71 3.37.94 2.52.529 5.82.359 8.23-.49 3.96-1.41 7.399-3.87 10.38-6.62l.17-.16zm-96.95-67.52c3.84-1.42 10.28 6.56 13.78 8.53 5.45 3.069 12.06 4.539 18.01 6.119 15.41 4.061 35.49-21.88 68.88 11.521l7.79 12.92c0 16.11 1.43 24.69 1.43 32.01 0 2.851-.27 5.73-.67 8.641-1.08 7.85-3.14 15.899-3.6 23.92a48.42 48.42 0 0 1-.431 4.199c-2.13 14.66-10.279 22.78-13.1 27.9-2.62 4.78-14.04 22.86-20.6 28.39-.87.73-1.83 1.381-2.88 1.95-11.73 6.351-33.97 2.95-45.311 2.95-13.54 0-32.4-21.87-42.09-36.95-3.62-5.62-5.96-10.3-6.28-12.55-.1-.73-1.39-5.93-2.54-12.99-.99-6.08-1.87-13.54-1.79-20.729 7.14-7.13 4.27-42.79 13.36-51.891 9.08-9.06 15.56-33.71 15.56-33.71.162-.1.322-.18.482-.23zm2.47 67.6l.17.16c2.97 2.76 6.42 5.22 10.39 6.63 2.4.86 5.71 1.01 8.23.5 1.06-.229 2.37-.49 3.36-.96.83-.37 1.53-1.26 2.31-1.62 1.16-.54 2.46-.06 3.54-.74 1.26-.77.3-1.67-.42-2.939-1.19-2.11-3.03-3.92-5.18-5.25-2.44-1.53-5.29-2.45-8.09-2.51-2.44-.051-4.73.449-6.85 1.37-2.8 1.189-5.3 3.089-7.46 5.359zm35.47 82.75l18 1.46c-4.39-4.4-11.66-6.26-18-1.46z" fill="#ffeec8"/><path d="M490 776l2.32 2.99c-21.66 11.76-46.48 18.439-72.85 18.439-44.27 0-84.14-18.819-112.05-48.899l.58-.53c8.79-9.61 39.17-13.12 48.01-23.38 0 0 13.37-23.16 13.25-29.8l.03-.021c9.69 15.08 28.55 36.95 42.09 36.95 11.34 0 33.58 3.4 45.311-2.95l1.59.15C459.25 735.91 473.75 758.93 490 776z" fill="#ffeec8"/><path d="M485.03 630.22l-.17.16c-2.98 2.75-6.42 5.21-10.38 6.62-2.41.85-5.711 1.02-8.23.49-1.07-.23-2.38-.471-3.37-.94-.82-.37-1.53-1.27-2.31-1.63-1.15-.55-2.46-.07-3.53-.729-1.271-.78-.31-1.671.41-2.96 1.189-2.11 3.04-3.921 5.2-5.25l.369.609c-.47.95-.18.84-.18 1.95 0 3.979 3.4 7.22 7.561 7.22 4.18 0 7.56-3.24 7.56-7.22 0-1.5.14-1.89-.67-3.03l.28-.66c2.8 1.19 5.31 3.1 7.46 5.37z" fill="#fff"/><path d="M477.29 625.51c.81 1.141.67 1.53.67 3.03 0 3.979-3.38 7.22-7.56 7.22-4.16 0-7.561-3.24-7.561-7.22 0-1.11-.29-1 .18-1.95l-.369-.609c2.43-1.521 5.279-2.431 8.08-2.5 2.43-.051 4.72.449 6.84 1.369l-.28.66zm-2.21 3.29c0-2.22-2.061-4.05-4.6-4.05-2.551 0-4.61 1.83-4.61 4.05 0 2.25 2.06 4.061 4.61 4.061 2.54-.001 4.6-1.811 4.6-4.061z" fill="#9e5c26"/><path d="M470.48 624.75c2.539 0 4.6 1.83 4.6 4.05 0 2.25-2.061 4.061-4.6 4.061-2.551 0-4.61-1.811-4.61-4.061 0-2.22 2.06-4.05 4.61-4.05zm1.64 4.05c0-.99-.74-1.79-1.64-1.79-.921 0-1.65.8-1.65 1.79 0 1 .729 1.811 1.65 1.811.9-.001 1.64-.811 1.64-1.811z" fill="#231f20"/><path d="M470.48 627.01c.899 0 1.64.8 1.64 1.79 0 1-.74 1.811-1.64 1.811-.921 0-1.65-.811-1.65-1.811 0-.99.73-1.79 1.65-1.79z" fill="#231f20"/><path d="M461.59 698.5c-3.93 1.34-7.55 3.32-11.66 4.31-5.83 1.4-12.46.301-18.38-.22-9.26-.79-17.6.17-24.65-6.149l.01-.011c14.44 1.21 35.84 2.181 50.72 2.181l.21-.69c1.21.349 2.45.559 3.75.579z" fill="#ee947d"/><path d="M457.84 697.92l-.21.69c-14.88 0-36.28-.971-50.72-2.181l-.01.011c-.27-.25-.54-.5-.81-.771 8.46.14 14.92-2.08 20.42-2.82.28-.04.561-.069.83-.1 4.73-.49 7.18 2.82 11.48.89 1.56-.699 3.04-.96 4.479-.93 5.011.081 9.431 3.761 14.541 5.211z" fill="#ee947d"/><path d="M444.02 714.51l-18-1.46c6.34-4.8 13.61-2.94 18 1.46z" fill="#fff"/><path d="M431.86 673.12c.51.26 1.04.59 1.6 1 1.94 1.41 4.6 1.54 7.11 1.11-.04 3.359 1.56 13.75 2.75 16.869l-.021.61c-1.439-.03-2.92.23-4.479.93-4.301 1.931-6.75-1.38-11.48-.89-.27.03-.55.06-.83.1l-.069-.59c2.92-5.72 4.609-15.149 4.689-19.47.24.091.48.201.73.331z" fill="#ffeec8"/><path d="M418.13 631.33c.72 1.27 1.68 2.17.42 2.939-1.08.681-2.38.2-3.54.74-.78.36-1.48 1.25-2.31 1.62-.99.47-2.3.73-3.36.96-2.52.51-5.83.36-8.23-.5-3.97-1.41-7.42-3.87-10.39-6.63l-.17-.16c2.16-2.27 4.66-4.17 7.46-5.359l.28.649c-.81 1.16-.67 1.54-.67 3.03 0 3.979 3.38 7.22 7.56 7.22s7.56-3.24 7.56-7.22c0-1.101.3-1.01-.17-1.94l.38-.6c2.15 1.331 3.99 3.141 5.18 5.251z" fill="#fff"/><path d="M404.86 623.57c2.8.06 5.65.979 8.09 2.51l-.38.6c.47.931.17.84.17 1.94 0 3.979-3.38 7.22-7.56 7.22s-7.56-3.24-7.56-7.22c0-1.49-.14-1.87.67-3.03l-.28-.649c2.12-.921 4.41-1.421 6.85-1.371zm4.86 5.32c0-2.22-2.07-4.04-4.61-4.04-2.55 0-4.61 1.82-4.61 4.04 0 2.24 2.06 4.051 4.61 4.051 2.54-.001 4.61-1.811 4.61-4.051z" fill="#9e5c26"/><path d="M405.11 624.85c2.54 0 4.61 1.82 4.61 4.04 0 2.24-2.07 4.051-4.61 4.051-2.55 0-4.61-1.811-4.61-4.051 0-2.22 2.06-4.04 4.61-4.04zm1.65 4.05c0-1-.74-1.801-1.65-1.801-.91 0-1.65.801-1.65 1.801s.74 1.8 1.65 1.8c.91 0 1.65-.8 1.65-1.8z" fill="#231f20"/><path d="M405.11 627.1c.91 0 1.65.801 1.65 1.801s-.74 1.8-1.65 1.8c-.91 0-1.65-.8-1.65-1.8s.74-1.801 1.65-1.801z" fill="#231f20"/><path d="M406.6 220.34c0 40.92-14.51 78.43-38.66 107.7L366 326l-19.74-21.71c.65-7.86-1.98-17.93-6.73-22.67-11.45-11.45-18.61-47.94-19.68-57.52-1.9-16.67 4.69-35.15 4.69-51.87 0-47.72-31.45-85.37-65.87-89.38-46.34-5.41-76.43 7.56-94.91 37.63-10.95 17.86-18.5 48.76-17.05 69.11.57 7.88 6.82 61.88-.16 79.76-1.81 4.63-4.4 15.16-6.99 23.8-9.15 30.54 13.33 36 19.89 49.4L144 358l-4.72.41c-43.15-30.68-71.3-81.09-71.3-138.07 0-93.5 75.81-169.31 169.31-169.31S406.6 126.84 406.6 220.34z" fill="#ffffc2"/><path d="M366 326l1.94 2.04c-31.06 37.62-78.06 61.6-130.65 61.6-36.52 0-70.35-11.57-98.01-31.23L144 358l15.45-15.45c.55 1.13.99 2.31 1.29 3.57 4.8-2.83 36.56-28.67 41.56-32.78 6.86-5.69 11.58-16.15 11.58-26.36l.73-1.75c9.91 4.01 22.23.73 32.37-.51 16.25-1.99 22.55-19.27 33.87-29.07 4.92-4.26 10.18-8.65 12.86-14.23l.46.23c-1.65 27.62 11.98 42.38 11.98 42.38 17.73 11.5 30.34 16.01 39.35 24.56.38-1.31.63-2.76.76-4.3L366 326zM340.96 620c.98-.98 2.31-1.68 4.08-1.99 10.37-1.819 16.6 10.67 14.9 18.601 0 .029-.01.06-.02.09-.84 3.649-1.2 7.7-1.24 11.83-.08 7.189.8 14.649 1.79 20.729-7.06 6.96-16.2-3.87-16.6-9.029-.69-9.25 1.8-13.711-3.65-25.841-1.75-3.89-2.81-10.87.74-14.39z" fill="#ffeec8"/><path d="M239.05 129.32c-16 11.22-53.46 29.08-60.33 34.14-8.93 6.56-14.39 18.31-14.12 29.49.26 10.46 3.74 14.23 3.74 29.97 0 17.29 17.07 37.21 20.45 41.45 5.36 6.77 13.56 11.89 20.09 17.42 1.78 1.51 3.71 2.63 5.73 3.44l-.73 1.75c0 10.21-4.72 20.67-11.58 26.36-5 4.11-36.76 29.95-41.56 32.78-.3-1.26-.74-2.44-1.29-3.57-6.56-13.4-29.04-18.86-19.89-49.4 2.59-8.64 5.18-19.17 6.99-23.8 6.98-17.88.73-71.88.16-79.76-1.45-20.35 6.1-51.25 17.05-69.11 18.48-30.07 48.57-43.04 94.91-37.63 34.42 4.01 65.87 41.66 65.87 89.38 0 16.72-6.59 35.2-4.69 51.87 1.07 9.58 8.23 46.07 19.68 57.52 4.75 4.74 7.38 14.81 6.73 22.67-.13 1.54-.38 2.99-.76 4.3-9.01-8.55-21.62-13.06-39.35-24.56 0 0-13.63-14.76-11.98-42.38l-.46-.23c.79-1.65 1.36-3.4 1.62-5.28.32-2.23 10.32-38.29-4.38-52.99-15.76-15.74-44.89-46.63-50.73-52.83-.67-.71-1.03-1.1-1.03-1.1-.05.03-.09.06-.14.1z" fill="#fbee34"/><path d="M262.53 193.81c-1.99-2.1-4.3-3.86-6.88-4.96-1.95-.84-4.06-1.31-6.3-1.26-2.58.07-5.21.91-7.46 2.31-1.99 1.22-3.68 2.89-4.78 4.84-.66 1.19-1.54 2-.38 2.73.99.62 2.2.17 3.26.67.71.34 1.36 1.16 2.13 1.5.9.43 2.12.68 3.1.88 2.32.47 5.37.33 7.59-.46 3.67-1.3 6.83-3.57 9.58-6.12l.14-.13zm-84.29 0l.14.13c2.74 2.55 5.92 4.82 9.58 6.12 2.22.79 5.26.93 7.59.46.98-.2 2.19-.45 3.1-.88.77-.34 1.42-1.16 2.13-1.5 1.07-.5 2.27-.05 3.27-.67 1.15-.73.27-1.54-.39-2.73-1.1-1.95-2.8-3.61-4.78-4.84-2.25-1.4-4.88-2.24-7.47-2.31-2.24-.05-4.34.42-6.29 1.26-2.58 1.1-4.89 2.86-6.88 4.96zm112.71-10.66c14.7 14.7 4.7 50.76 4.38 52.99-.26 1.88-.83 3.63-1.62 5.28-2.68 5.58-7.94 9.97-12.86 14.23-11.32 9.8-17.62 27.08-33.87 29.07-10.14 1.24-22.46 4.52-32.37.51-2.02-.81-3.95-1.93-5.73-3.44-6.53-5.53-14.73-10.65-20.09-17.42-3.38-4.24-20.45-24.16-20.45-41.45 0-15.74-3.48-19.51-3.74-29.97-.27-11.18 5.19-22.93 14.12-29.49 6.87-5.06 44.33-22.92 60.33-34.14.24.51.63.84 1.17 1 5.84 6.2 34.97 37.09 50.73 52.83zm-45.21 60.76c-4.07.42-19.32-3.1-21.52 2.43-1.37.56-3.58-.9-5.1-1.25-2.85-.66-6.16-.03-8.94.77-4.45 1.29-4.67 3.05-3.28 4.91 1.47 1.92 4.67 3.93 6.72 5.62 5.54 4.59 12.74 5.17 19.48 2.19 4.97-2.2 7.89-7 10.68-11.56.66-1.06 1.3-2.11 1.96-3.11z" fill="#ffeec8"/><path d="M262.53 193.81l-.14.13c-2.75 2.55-5.91 4.82-9.58 6.12-2.22.79-5.27.93-7.59.46-.98-.2-2.2-.45-3.1-.88-.77-.34-1.42-1.16-2.13-1.5-1.06-.5-2.27-.05-3.26-.67-1.16-.73-.28-1.54.38-2.73 1.1-1.95 2.79-3.62 4.78-4.84l.35.57c-.43.85-.15.76-.15 1.78 0 3.68 3.12 6.66 6.96 6.66 3.85 0 6.97-2.98 6.97-6.66 0-1.37.13-1.74-.61-2.8l.24-.6c2.58 1.1 4.89 2.86 6.88 4.96z" fill="#fff"/><path d="M255.41 189.45c.74 1.06.61 1.43.61 2.8 0 3.68-3.12 6.66-6.97 6.66-3.84 0-6.96-2.98-6.96-6.66 0-1.02-.28-.93.15-1.78l-.35-.57c2.25-1.4 4.88-2.24 7.46-2.31 2.24-.05 4.35.42 6.3 1.26l-.24.6zm-6.3 6.79c2.35 0 4.25-1.67 4.25-3.74 0-2.06-1.9-3.73-4.25-3.73-2.34 0-4.24 1.67-4.24 3.73 0 2.07 1.9 3.74 4.24 3.74z" fill="#6ebe44"/><path d="M253.36 192.5c0 2.07-1.9 3.74-4.25 3.74-2.34 0-4.24-1.67-4.24-3.74 0-2.06 1.9-3.73 4.24-3.73 2.35 0 4.25 1.67 4.25 3.73zm-2.71 0c0-.91-.69-1.65-1.53-1.65-.84 0-1.52.74-1.52 1.65 0 .92.68 1.67 1.52 1.67s1.53-.75 1.53-1.67z" fill="#231f20"/><path d="M249.12 190.85c.84 0 1.53.74 1.53 1.65 0 .92-.69 1.67-1.53 1.67-.84 0-1.52-.75-1.52-1.67 0-.91.68-1.65 1.52-1.65z" fill="#231f20"/><path d="M224.22 246.34c2.2-5.53 17.45-2.01 21.52-2.43-.66 1-1.3 2.05-1.96 3.11-7.78 3.52-12.29 3.56-17.8 4-5.49.43-13.6 1.35-19.07-.26l-.01.01c-1.39-1.86-1.17-3.62 3.28-4.91 2.78-.8 6.09-1.43 8.94-.77 1.52.35 3.73 1.81 5.1 1.25z" fill="#ee947d"/><path d="M243.78 247.02c-2.79 4.56-5.71 9.36-10.68 11.56-6.74 2.98-13.94 2.4-19.48-2.19-2.05-1.69-5.25-3.7-6.72-5.62l.01-.01c5.47 1.61 13.58.69 19.07.26 5.51-.44 10.02-.48 17.8-4z" fill="#ee947d"/><path d="M203.66 194.74c.66 1.19 1.54 2 .39 2.73-1 .62-2.2.17-3.27.67-.71.34-1.36 1.16-2.13 1.5-.91.43-2.12.68-3.1.88-2.33.47-5.37.33-7.59-.46-3.66-1.3-6.84-3.57-9.58-6.12l-.14-.13c1.99-2.1 4.3-3.86 6.88-4.96l.24.6c-.75 1.06-.62 1.43-.62 2.8 0 3.68 3.12 6.66 6.98 6.66 3.84 0 6.96-2.98 6.96-6.66 0-1.02.28-.93-.15-1.78l.35-.57c1.98 1.23 3.68 2.89 4.78 4.84z" fill="#fff"/><path d="M198.88 189.9l-.35.57c.43.85.15.76.15 1.78 0 3.68-3.12 6.66-6.96 6.66-3.86 0-6.98-2.98-6.98-6.66 0-1.37-.13-1.74.62-2.8l-.24-.6c1.95-.84 4.05-1.31 6.29-1.26 2.59.07 5.22.91 7.47 2.31zm-7.23 6.34c2.35 0 4.25-1.67 4.25-3.74 0-2.06-1.9-3.73-4.25-3.73s-4.25 1.67-4.25 3.73c0 2.07 1.9 3.74 4.25 3.74z" fill="#6ebe44"/><path d="M195.9 192.5c0 2.07-1.9 3.74-4.25 3.74s-4.25-1.67-4.25-3.74c0-2.06 1.9-3.73 4.25-3.73s4.25 1.67 4.25 3.73zm-2.73 0c0-.91-.68-1.65-1.52-1.65s-1.52.74-1.52 1.65c0 .92.68 1.67 1.52 1.67s1.52-.75 1.52-1.67z" fill="#231f20"/><path d="M191.65 190.85c.84 0 1.52.74 1.52 1.65 0 .92-.68 1.67-1.52 1.67s-1.52-.75-1.52-1.67c0-.91.68-1.65 1.52-1.65z" fill="#231f20"/><g fill="none"><path d="M139.28 358.41c-43.15-30.68-71.3-81.09-71.3-138.07 0-93.5 75.81-169.31 169.31-169.31S406.6 126.84 406.6 220.34c0 40.92-14.51 78.43-38.66 107.7-31.06 37.62-78.06 61.6-130.65 61.6-36.52 0-70.35-11.57-98.01-31.23z" stroke="#231f20" stroke-width="14"/><path d="M231 183.66c5.9-9.81 20.23-11.38 28.43-8.18 4.41 1.72 7.07 3.76 8.23 4.91M200.08 180.04c-8.21-7.31-24.61-5.75-30.76 2.57M209.81 185.8c8.56 6.39 4.03 28.06 1.87 34.52-.68 2.07-3.63 5.71-1.56 7.86 1.01 1.04 2.3.47 3.55.67 1.31.2 2.09.34 3.59.89 2.9 1.07 5.01 1.73 7.61-.17 2.83-2.04 2.61-3.49 6.78-3.29 3.51.17 7.39 1.15 7.22-4.25-.13-3.71-2.92-3.67-4.92-6.29" stroke="#231f20" stroke-width="6.974"/><path d="M223.98 247.29c.04-.34.12-.66.24-.95 2.2-5.53 17.45-2.01 21.52-2.43-.66 1-1.3 2.05-1.96 3.11-2.79 4.56-5.71 9.36-10.68 11.56-6.74 2.98-13.94 2.4-19.48-2.19-2.05-1.69-5.25-3.7-6.72-5.62-1.39-1.86-1.17-3.62 3.28-4.91 2.78-.8 6.09-1.43 8.94-.77 1.52.35 3.73 1.81 5.1 1.25.23-.1.44-.25.61-.47" stroke="#231f20" stroke-width="5.231"/><path d="M206.91 250.76c5.47 1.61 13.58.69 19.07.26 5.51-.44 10.02-.48 17.8-4" stroke="#231f20" stroke-width="5.231"/><path d="M263.82 195.25c-.41-.5-.84-.98-1.29-1.44-1.99-2.1-4.3-3.86-6.88-4.96-1.95-.84-4.06-1.31-6.3-1.26-2.58.07-5.21.91-7.46 2.31-1.99 1.22-3.68 2.89-4.78 4.84-.66 1.19-1.54 2-.38 2.73.99.62 2.2.17 3.26.67.71.34 1.36 1.16 2.13 1.5.9.43 2.12.68 3.1.88 2.32.47 5.37.33 7.59-.46 3.67-1.3 6.83-3.57 9.58-6.12" stroke="#231f20" stroke-width="3.487" stroke-linecap="square" stroke-miterlimit="10"/><path d="M242.24 190.47c-.43.85-.15.76-.15 1.78 0 3.68 3.12 6.66 6.96 6.66 3.85 0 6.97-2.98 6.97-6.66 0-1.37.13-1.74-.61-2.8" stroke="#231f20" stroke-width="1.744" stroke-linecap="square" stroke-miterlimit="10"/><path d="M244.87 192.5c0 2.07 1.9 3.74 4.24 3.74 2.35 0 4.25-1.67 4.25-3.74 0-2.06-1.9-3.73-4.25-3.73-2.34 0-4.24 1.67-4.24 3.73z" stroke="#231f20" stroke-width="1.744"/><path d="M247.6 192.5c0 .92.68 1.67 1.52 1.67s1.53-.75 1.53-1.67c0-.91-.69-1.65-1.53-1.65-.84 0-1.52.74-1.52 1.65z" stroke="#231f20" stroke-width="1.744"/><path d="M176.96 195.25c.41-.5.84-.98 1.28-1.44 1.99-2.1 4.3-3.86 6.88-4.96 1.95-.84 4.05-1.31 6.29-1.26 2.59.07 5.22.91 7.47 2.31 1.98 1.23 3.68 2.89 4.78 4.84.66 1.19 1.54 2 .39 2.73-1 .62-2.2.17-3.27.67-.71.34-1.36 1.16-2.13 1.5-.91.43-2.12.68-3.1.88-2.33.47-5.37.33-7.59-.46-3.66-1.3-6.84-3.57-9.58-6.12" stroke="#231f20" stroke-width="3.487" stroke-linecap="square" stroke-miterlimit="10"/><path d="M198.53 190.47c.43.85.15.76.15 1.78 0 3.68-3.12 6.66-6.96 6.66-3.86 0-6.98-2.98-6.98-6.66 0-1.37-.13-1.74.62-2.8" stroke="#231f20" stroke-width="1.744" stroke-linecap="square" stroke-miterlimit="10"/><path d="M195.9 192.5c0 2.07-1.9 3.74-4.25 3.74s-4.25-1.67-4.25-3.74c0-2.06 1.9-3.73 4.25-3.73s4.25 1.67 4.25 3.73z" stroke="#231f20" stroke-width="1.744"/><path d="M193.17 192.5c0 .92-.68 1.67-1.52 1.67s-1.52-.75-1.52-1.67c0-.91.68-1.65 1.52-1.65s1.52.74 1.52 1.65z" stroke="#231f20" stroke-width="1.744"/><path d="M240.22 130.32c5.84 6.2 34.97 37.09 50.73 52.83 14.7 14.7 4.7 50.76 4.38 52.99-.26 1.88-.83 3.63-1.62 5.28-2.68 5.58-7.94 9.97-12.86 14.23-11.32 9.8-17.62 27.08-33.87 29.07-10.14 1.24-22.46 4.52-32.37.51-2.02-.81-3.95-1.93-5.73-3.44-6.53-5.53-14.73-10.65-20.09-17.42-3.38-4.24-20.45-24.16-20.45-41.45 0-15.74-3.48-19.51-3.74-29.97-.27-11.18 5.19-22.93 14.12-29.49 6.87-5.06 44.33-22.92 60.33-34.14.05-.04.09-.07.14-.1 0 0 .36.39 1.03 1.1z" stroke="#231f20" stroke-width="7"/><path d="M294.17 241.65c-1.65 27.62 11.98 42.38 11.98 42.38 17.73 11.5 30.34 16.01 39.35 24.56.38-1.31.63-2.76.76-4.3.65-7.86-1.98-17.93-6.73-22.67-11.45-11.45-18.61-47.94-19.68-57.52-1.9-16.67 4.69-35.15 4.69-51.87 0-47.72-31.45-85.37-65.87-89.38-46.34-5.41-76.43 7.56-94.91 37.63-10.95 17.86-18.5 48.76-17.05 69.11.57 7.88 6.82 61.88-.16 79.76-1.81 4.63-4.4 15.16-6.99 23.8-9.15 30.54 13.33 36 19.89 49.4.55 1.13.99 2.31 1.29 3.57 4.8-2.83 36.56-28.67 41.56-32.78 6.86-5.69 11.58-16.15 11.58-26.36" stroke="#231f20" stroke-width="7"/><path d="M241.06 130.42c-.31 0-.59-.03-.84-.1a1.8 1.8 0 0 1-1.17-1c-.04-.06-.06-.13-.09-.2 4.93-4.8 7.35-12.4 8.83-18.86" stroke="#231f20" stroke-width="7"/><path d="M575.25 192.08c-3.78-7.95-18.59-11.06-26.06-9.56-7.03 1.4-10.521 2.24-17.881 7.94M604.62 190.69c3.78-7.95 18.57-11.06 26.06-9.56 7.051 1.39 10.54 2.24 17.87 7.93" stroke="#231f20" stroke-width="6.974"/><path d="M537.76 206.12c.49-.59 1-1.17 1.53-1.73 2.38-2.52 5.16-4.63 8.27-5.96 2.341-1 4.87-1.55 7.561-1.49 3.1.07 6.27 1.08 8.97 2.77 2.38 1.46 4.42 3.47 5.73 5.81.819 1.42 1.87 2.41.47 3.27-1.2.74-2.63.21-3.92.81-.851.4-1.63 1.39-2.561 1.81-1.09.51-2.55.8-3.72 1.04-2.79.57-6.45.41-9.12-.54-4.399-1.56-8.21-4.3-11.5-7.35" stroke="#231f20" stroke-width="5" stroke-linecap="square" stroke-miterlimit="10"/><path d="M563.67 200.38c.521 1.03.18.92.18 2.14 0 4.42-3.75 8-8.369 8-4.62 0-8.37-3.58-8.37-8 0-1.65-.15-2.08.75-3.35" stroke="#231f20" stroke-width="3.487" stroke-linecap="square" stroke-miterlimit="10"/><path d="M645.47 206.22c-.489-.59-1-1.17-1.529-1.73-2.391-2.52-5.171-4.63-8.271-5.96-2.34-1-4.87-1.55-7.56-1.49-3.091.07-6.25 1.07-8.96 2.75-2.391 1.48-4.431 3.48-5.74 5.83-.82 1.42-1.87 2.4-.48 3.27 1.19.74 2.65.21 3.92.81.86.4 1.641 1.39 2.57 1.81 1.09.5 2.55.8 3.71 1.04 2.78.58 6.46.41 9.12-.54 4.39-1.56 8.21-4.3 11.51-7.35" stroke="#231f20" stroke-width="5" stroke-linecap="square" stroke-miterlimit="10"/><path d="M619.57 200.47c-.521 1.04-.2.93-.2 2.15 0 4.42 3.74 8 8.38 8 4.62 0 8.37-3.58 8.37-8 0-1.65.149-2.08-.75-3.35" stroke="#231f20" stroke-width="3.487" stroke-linecap="square" stroke-miterlimit="10"/><path d="M698.88 193.14c0-.03.01-.05.01-.08 7.92-67.49-23.5-100.6-60.3-104.89-49.55-5.78-84.54-3-112.51 37.37-12.75 18.41-11.68 60.75-10.12 82.48 0 0 2.53 2.7 9.73 9.9" stroke="#231f20" stroke-width="7"/><path d="M679.26 224.67c-7.899-7.89-4.729-47.4-14.79-57.46-10.069-10.06-17.25-37.37-17.25-37.37-.17-.11-.35-.2-.54-.26-4.25-1.56-11.39 7.28-15.26 9.46-6.04 3.4-13.35 5.03-19.95 6.77-17.08 4.51-39.33-24.23-76.31 12.78l-8.63 14.31c0 17.85-1.58 27.35-1.58 35.46 0 3.15.3 6.34.74 9.56 1.189 8.69 3.47 17.61 4 26.5.09 1.62.25 3.17.47 4.66 2.35 16.23 11.37 25.24 14.5 30.92 2.899 5.29 15.56 25.31 22.81 31.46.57.49 1.19.94 1.84 1.36 12.561 8.1 38.54 4.05 51.561 4.05 15 0 35.899-24.22 46.64-40.93 4.01-6.23 6.61-11.41 6.96-13.9.11-.82 1.54-6.57 2.811-14.38 1.098-6.74 2.068-15.01 1.978-22.99-.05-4.68-.46-9.25-1.439-13.35-.32-1.35-.7-2.65-1.15-3.88" stroke="#231f20" stroke-width="7"/><path d="M645.79 132c.28-.79.57-1.6.89-2.42 3.28-8.49 8.66-18.44 14.19-24.59" stroke="#231f20" stroke-width="7"/><path d="M565.25 280.04c1.43-.02 2.8-.26 4.13-.63 5.66-1.61 10.57-5.69 16.13-5.79 1.59-.04 3.24.26 4.971 1.03 4.75 2.13 7.479-1.53 12.71-.97.3.03.609.07.92.11 6.1.82 13.27 3.28 22.63 3.11 1.01-.02 2.06-.06 3.13-.15" stroke="#231f20" stroke-width="5.231"/><path d="M562.21 279.16c1.04.24 2.05.54 3.04.88 4.36 1.48 8.36 3.68 12.92 4.76 6.46 1.56 13.8.34 20.37-.22 10.24-.89 19.479.19 27.29-6.83.31-.26.61-.55.91-.85.25-.24.49-.49.729-.75M569.62 280.17c16.51 0 40.21-1.08 56.21-2.42" stroke="#231f20" stroke-width="5.231"/><path d="M579.94 232.69c-.381 1.07-6.261 6.78-6.921 8.64-.939 2.62-.6 6.41.87 7.93 1.24 1.26 4.86 2.64 6.41 2.88 1.601.24 2.54.41 4.391 1.09 1.159.43 2.479.81 3.85 1.04 2.77.46 5.72.31 7.86-1.24.63-.46 1.22-.83 1.79-1.12.27-.13.529-.25.8-.35 2.24-.89 4.39-.69 8.12-.51.51.02 1.029 0 1.55-.06 3.81-.48 7.46-3.43 7.28-9.25-.15-4.56-3.57-2.34-6.021-5.55M576.95 195.69c10.47 7.82 5.64 29.05 3 36.97" stroke="#231f20" stroke-width="6.974"/><path d="M588.54 254.25v.02c.04 3.75-1.73 15.23-3.05 18.68M598.98 251.2c0 .11 0 .23.01.36.09 4.76 1.96 15.22 5.2 21.56M580.04 232.19c-.03.15-.06.31-.09.47-.01.01-.01.02-.01.03-1.2 5.94-3.431 16.24 4.75 20.54" stroke="#231f20" stroke-width="6.974"/><path d="M677.87 211.61c-.021-.09-.04-.19-.05-.29-1.75-8.78 5.12-22.46 16.56-20.46 1.95.34 3.42 1.12 4.51 2.2 3.94 3.9 2.761 11.63.82 15.96-6.05 13.43-3.28 18.38-4.05 28.61-.44 5.72-10.55 17.7-18.38 10.03l-.011-.01M515.96 208.02c3.771 11.59.53 19.99 1.96 28.15.73 4.25 5.42 12.39 12.24 12.91.229.01.45.02.68.02M667.54 275.96c-.13 7.37 14.68 33.01 14.68 33.01C692 320.34 720.26 327.35 730 338M568.92 313.76c-1.09 7.73-20.91 31.33-38.92 50.24" stroke="#231f20" stroke-width="7"/><path d="M597.47 252.99c.221-.4.471-.76.721-1.08 2.729-3.4 7.18-2.43 10.47-.92.22.1.43.21.64.31M584.72 297.78c4.851-4.86 12.92-6.94 19.94-1.62" stroke="#231f20" stroke-width="6.974"/><path d="M524.13 365.13c-48.88-29.69-81.52-83.42-81.52-144.79 0-93.5 75.8-169.31 169.3-169.31 93.51 0 169.31 75.81 169.31 169.31 0 46.76-18.95 89.08-49.59 119.72-30.64 30.63-72.97 49.58-119.72 49.58-32.14 0-62.19-8.96-87.78-24.51zM296.19 379.55l58.88 124.33M546 378l-55.96 120.15" stroke="#231f20" stroke-width="14"/><path d="M452.57 619.11c3.41-7.17 16.76-9.99 23.51-8.63 6.36 1.26 9.51 2.02 16.13 7.149M426.05 617.85c-3.42-7.17-16.76-9.979-23.52-8.64-6.36 1.271-9.5 2.03-16.13 7.17" stroke="#231f20" stroke-width="6.974"/><path d="M486.41 631.78c-.44-.54-.9-1.061-1.38-1.561-2.15-2.27-4.66-4.18-7.46-5.37-2.12-.92-4.41-1.42-6.84-1.369-2.801.069-5.65.979-8.08 2.5-2.16 1.329-4.011 3.14-5.2 5.25-.72 1.289-1.681 2.18-.41 2.96 1.07.659 2.38.18 3.53.729.779.36 1.489 1.26 2.31 1.63.99.47 2.3.71 3.37.94 2.52.529 5.82.359 8.23-.49 3.96-1.41 7.399-3.87 10.38-6.62" stroke="#231f20" stroke-width="5" stroke-linecap="square" stroke-miterlimit="10"/><path d="M463.02 626.59c-.47.95-.18.84-.18 1.95 0 3.979 3.4 7.22 7.561 7.22 4.18 0 7.56-3.24 7.56-7.22 0-1.5.14-1.89-.67-3.03" stroke="#231f20" stroke-width="3.487" stroke-linecap="square" stroke-miterlimit="10"/><path d="M389.17 631.86c.44-.54.91-1.061 1.38-1.561 2.16-2.27 4.66-4.17 7.46-5.359 2.12-.921 4.41-1.421 6.85-1.37 2.8.06 5.65.979 8.09 2.51 2.15 1.33 3.99 3.14 5.18 5.25.72 1.27 1.68 2.17.42 2.939-1.08.681-2.38.2-3.54.74-.78.36-1.48 1.25-2.31 1.62-.99.47-2.3.73-3.36.96-2.52.51-5.83.36-8.23-.5-3.97-1.41-7.42-3.87-10.39-6.63" stroke="#231f20" stroke-width="5" stroke-linecap="square" stroke-miterlimit="10"/><path d="M412.57 626.68c.47.931.17.84.17 1.94 0 3.979-3.38 7.22-7.56 7.22s-7.56-3.24-7.56-7.22c0-1.49-.14-1.87.67-3.03" stroke="#231f20" stroke-width="3.487" stroke-linecap="square" stroke-miterlimit="10"/><path d="M340.97 620.06c0-.02 0-.04-.01-.06-7.17-60.92 21.22-90.82 54.43-94.68 44.72-5.21 76.31-2.721 101.55 33.72 11.51 16.63 10.56 54.83 9.149 74.46 0 0-2.29 2.44-8.79 8.94M359.94 636.61c.3-1.271.65-2.49 1.07-3.641" stroke="#231f20" stroke-width="7"/><path d="M358.68 648.53c7.14-7.13 4.27-42.79 13.36-51.891 9.08-9.06 15.56-33.71 15.56-33.71.16-.1.32-.18.48-.229 3.84-1.42 10.28 6.56 13.78 8.53 5.45 3.069 12.06 4.539 18.01 6.119 15.41 4.061 35.49-21.88 68.88 11.521l7.79 12.92c0 16.11 1.43 24.69 1.43 32.01 0 2.851-.27 5.73-.67 8.641-1.08 7.85-3.14 15.899-3.6 23.92a48.42 48.42 0 0 1-.431 4.199c-2.13 14.66-10.279 22.78-13.1 27.9-2.62 4.78-14.04 22.86-20.6 28.39-.87.73-1.83 1.381-2.88 1.95-11.73 6.351-33.97 2.95-45.311 2.95-13.54 0-32.4-21.87-42.09-36.95-3.62-5.62-5.96-10.3-6.28-12.55-.1-.73-1.39-5.93-2.54-12.99-.988-6.08-1.868-13.54-1.788-20.73.04-4.13.4-8.181 1.24-11.83" stroke="#231f20" stroke-width="7"/><path d="M388.9 564.89c-.25-.71-.52-1.449-.82-2.189-2.95-7.681-7.81-16.66-12.81-22.2" stroke="#231f20" stroke-width="7"/><path d="M461.59 698.5c-1.3-.02-2.54-.23-3.75-.58-5.109-1.45-9.53-5.13-14.54-5.21-1.439-.03-2.92.23-4.479.93-4.301 1.931-6.75-1.38-11.48-.89-.27.03-.55.06-.83.1-5.5.74-11.96 2.96-20.42 2.82-.92-.01-1.86-.05-2.84-.13" stroke="#231f20" stroke-width="5.231"/><path d="M464.34 697.71c-.939.22-1.85.49-2.75.79-3.93 1.34-7.55 3.32-11.66 4.31-5.83 1.4-12.46.301-18.38-.22-9.26-.79-17.6.17-24.65-6.149-.27-.25-.54-.5-.81-.771-.22-.22-.44-.45-.66-.68M457.63 698.61c-14.88 0-36.28-.971-50.72-2.181" stroke="#231f20" stroke-width="5.231"/><path d="M451.02 622.36c-9.42 7.05-5.1 26.149-2.71 33.34.011.02.011.04.021.06.3.94 5.64 6.12 6.24 7.8.85 2.37.55 5.79-.79 7.15-1.11 1.15-4.38 2.39-5.78 2.61-1.43.21-2.3.359-3.96.979-1.05.391-2.24.73-3.47.931-2.511.43-5.17.3-7.11-1.11-.56-.41-1.09-.74-1.6-1a6.62 6.62 0 0 0-.73-.33c-2.02-.81-3.96-.63-7.33-.45-.46.021-.92 0-1.37-.06-3.45-.431-6.76-3.08-6.6-8.34.14-4.12 3.22-2.12 5.43-5.021M440.57 675.23c-.04 3.359 1.56 13.75 2.75 16.869" stroke="#231f20" stroke-width="6.974"/><path d="M431.14 672.46c0 .11 0 .22-.01.33-.08 4.32-1.77 13.75-4.689 19.47M448.23 655.3c.029.13.05.26.079.4 1.08 5.359 3.141 14.71-4.27 18.6" stroke="#231f20" stroke-width="6.974"/><path d="M359.92 636.73v-.03c.01-.03.02-.061.02-.09 1.7-7.931-4.53-20.42-14.9-18.601-1.77.311-3.1 1.01-4.08 1.99-3.55 3.52-2.49 10.5-.74 14.39 5.45 12.13 2.96 16.591 3.65 25.841.4 5.159 9.54 15.989 16.6 9.029M506.09 633.5c-3.42 10.45-.49 18.03-1.77 25.4-.67 3.83-4.9 11.18-11.051 11.659-.21.011-.42.021-.63.021M369.26 694.82c.12 6.64-13.25 29.8-13.25 29.8-8.84 10.26-39.22 13.77-48.01 23.38M458.28 728.95c.97 6.96 15.47 29.979 31.72 47.05" stroke="#231f20" stroke-width="7"/><path d="M432.51 674.09c-.2-.359-.42-.68-.649-.97-2.46-3.08-6.45-2.21-9.43-.84-.2.1-.41.189-.6.29M444.02 714.51c-4.39-4.399-11.659-6.26-18-1.46" stroke="#231f20" stroke-width="6.974"/><path stroke="#231f20" stroke-width="7" d="M160 342l-.55.55L144 358M346 304l.26.29L366 326"/><path d="M492.32 778.99c47.63-25.88 79.97-76.351 79.97-134.38 0-84.4-68.42-152.82-152.82-152.82-84.4 0-152.82 68.42-152.82 152.82 0 40.14 15.48 76.659 40.77 103.92 27.91 30.08 67.78 48.899 112.05 48.899 26.37.001 51.19-6.679 72.85-18.439z" stroke="#394ea1" stroke-width="26" stroke-linecap="round" stroke-linejoin="round" stroke-dasharray="0 32.1033"/></g><path fill="none" d="M0 0h850.394v850.394H0z"/></svg>