<svg xmlns="http://www.w3.org/2000/svg" width="850.394" height="850.394" viewBox="0 0 850.394 850.394" overflow="visible"><path d="M368.55 193.02c15.64-9.22 36.71-13.97 56.56-13.06 0 0 36.98-1.63 56.03 13.41 1.04.83 2.03 1.7 2.96 2.63 7.24 7.24 15.2 13.69 23.46 19.87 10.761 8.02 24.421 9.02 37.521 10.29 17.85 1.72 31.7 3.97 40.9 14.4 3.8 4.31 6.81 10.02 8.979 17.68 2.78 9.89 6.97 18.61 25.57 27.11 11.22 5.12 36.63 19.79 41.31 31.84 7.07 18.2 9.88 43-1.439 61.33-4.24 6.86-10.471 12.82-19.19 17.18-13.56 6.77-50.24 11.51-64.43 15.87-18.42 5.62-25.55 14.31-33.931 24.17a320.66 320.66 0 0 1-2.659 3.09c-29.45 33.95-78.57 40.77-112.051 37.04l-7.919-.24c-33.47 3.71-82.6-3.1-112.04-37.05-5.77-6.62-10.44-12.84-17.57-18.08l-.57-.4c-36.8-21.87-106.1 2.76-133.04-36.81-7.92-11.64-7.83-25.25-1.01-39.1 8.45-17.14 27.23-34.64 53.92-49.23 7.03-3.83 13.46-7.83 17.92-9.87 18.61-8.5 22.79-17.21 25.58-27.1 1.92-6.81 4.51-12.08 7.75-16.2 18.13-5.77 37.37-10.6 57.51-14.39l-.6-3.2c8.15-1.3 16.01-3.58 22.72-8.59 8.28-6.17 15.05-14.05 23.47-19.86a70.806 70.806 0 0 1 4.289-2.73zM608.6 351.25c4.21-2.27.811-13.35-4.569-13.9-3.311-.35-2.721 3.69-4.98 4.49-2.43.85-5.79-1.68-7.68-.18-4.67 3.7-1.42 10.25 2.8 11.31 3.059.77 6.959 2.29 14.429-1.72zm-44.43-46.79c4.2-2.27.82-13.34-4.57-13.9-3.31-.35-2.72 3.69-4.979 4.49-2.42.85-5.79-1.68-7.67-.18-4.681 3.7-1.42 10.25 2.79 11.31 3.059.77 6.959 2.3 14.429-1.72zm-41.7 41.99c4.21-2.27.83-13.34-4.569-13.9-3.311-.35-2.721 3.7-4.98 4.49-2.41.85-5.78-1.68-7.67-.18-4.67 3.71-1.41 10.26 2.79 11.32 3.069.77 6.959 2.28 14.429-1.73zm-32.95 83.92c4.211-2.26.811-13.34-4.569-13.89-3.311-.35-2.72 3.69-4.98 4.48-2.43.86-5.79-1.68-7.68-.17-4.67 3.7-1.42 10.25 2.8 11.3 3.059.77 6.959 2.3 14.429-1.72zm-15.28-136.99c4.21-2.27.819-13.34-4.57-13.9-3.3-.35-2.71 3.69-4.979 4.49-2.421.85-5.78-1.68-7.671-.17-4.67 3.69-1.42 10.25 2.801 11.3 3.059.77 6.949 2.3 14.419-1.72zm-29.15 90.2c4.2-2.26.82-13.34-4.57-13.89-3.31-.35-2.72 3.69-4.979 4.49-2.42.84-5.79-1.68-7.68-.18-4.67 3.7-1.41 10.25 2.8 11.3 3.059.77 6.959 2.3 14.429-1.72zm-15.27-136.99c4.199-2.27.81-13.34-4.57-13.9-3.31-.34-2.72 3.7-4.98 4.49-2.42.85-5.79-1.68-7.68-.18-4.68 3.7-1.42 10.26 2.8 11.31 3.06.77 6.96 2.3 14.43-1.72zm-26.43 178.98c4.21-2.26.82-13.34-4.57-13.89-3.31-.35-2.72 3.69-4.98 4.48-2.41.86-5.78-1.68-7.67-.17-4.68 3.7-1.42 10.25 2.79 11.31 3.07.77 6.96 2.29 14.43-1.73zm-15.27-136.99c4.21-2.27.82-13.34-4.57-13.9-3.31-.34-2.72 3.7-4.98 4.49-2.41.85-5.78-1.68-7.68-.17-4.67 3.7-1.41 10.25 2.8 11.31 3.06.77 6.96 2.29 14.43-1.73zm-53.79 60.83c5.28-2.76 3.31-9.81-.64-11.63-2.86-1.33-6.4-3.55-14.49-1-4.56 1.44-3.3 12.95 1.89 14.51 3.19.95 3.36-3.12 5.73-3.48 2.54-.39 5.37 2.73 7.51 1.6zm-48.8 33.47c5.27-2.77 3.3-9.81-.64-11.64-2.87-1.32-6.41-3.55-14.5-1-4.55 1.44-3.29 12.95 1.9 14.51 3.18.96 3.36-3.12 5.73-3.48 2.53-.39 5.36 2.73 7.51 1.61zm-34.91-54.27c5.28-2.77 3.31-9.81-.64-11.64-2.86-1.32-6.4-3.55-14.49-1-4.55 1.44-3.3 12.95 1.9 14.51 3.18.96 3.36-3.12 5.72-3.48 2.54-.39 5.37 2.73 7.51 1.61z" fill="#bd2226"/><path d="M665.81 381.03l-5.409-2.51c11.319-18.33 8.51-43.13 1.439-61.33-4.68-12.05-30.09-26.72-41.31-31.84-18.601-8.5-22.79-17.22-25.57-27.11-2.17-7.66-5.18-13.37-8.979-17.68 98.93 30.43 165.689 88.14 165.689 154.33 0 97.89-146.03 177.24-326.15 177.24-180.12 0-326.13-79.35-326.13-177.24 0-65.3 65-122.36 161.77-153.1-3.24 4.12-5.83 9.39-7.75 16.2-2.79 9.89-6.97 18.6-25.58 27.1-4.46 2.04-10.89 6.04-17.92 9.87-26.69 14.59-45.47 32.09-53.92 49.23l-5.11-.17c-14.19 5.72-26.68 13.5-33.63 25.2-15.1 25.46 5.01 48.4 31.6 47.35 18.7-.75 51.18 4.66 35.7 31.06-5.34 9.08-12.69 13.13-14.07 24.561-1.38 11.409 1.35 17.54 9.76 24.6 15.29 12.8 36.43 19.71 56.26 14.49 16.33-4.29 32.68-16.011 46.16-1.471l3.21 2.601c-9.58 19 1.19 39.229 26.51 37.96 12.14-.61 23.54-9 29.5-20.061 6.52 2.7 12.83 4.53 21.63 3 8.39-1.449 18.41-4.96 27.2-9.319 7.75 19.09 34.64 30.979 54.59 27.1 17.63-3.43 28-19.89 38.24-33.14 1.96-2.53 4.93-6.21 8.69-10.22 9.449 7.029 18.71 14.439 28.489 19.39 18.46 9.31 51.261 8.7 66.311-12.04 8.189 2.56 16.45 2.79 23.92-.55 15.88-7.101 22.63-19.521 26.54-33.58 6.72 1.149 13.72.26 20.14-3.42 20-11.45 10.13-38.69 4.39-58.89-1.31-4.6-2.399-8.84-2.88-12.44-1.03-7.791 1.71-17.241 6.67-25.171z" fill="#ffffc2"/><path d="M548.46 485.89c9.28 12.431 23.81 24.591 38.57 29.19-15.05 20.74-47.851 21.35-66.311 12.04-9.779-4.95-19.04-12.36-28.489-19.39 12.56-13.381 33.92-30.511 56-21.66l.23-.18z" fill="#ffffc2"/><path d="M390.71 523.99c-8.79 4.359-18.81 7.87-27.2 9.319-8.8 1.53-15.11-.3-21.63-3-5.96 11.061-17.36 19.45-29.5 20.061-25.32 1.27-36.09-18.96-26.51-37.96l-3.21-2.601c-13.48-14.54-29.83-2.819-46.16 1.471-19.83 5.22-40.97-1.69-56.26-14.49-8.41-7.06-11.14-13.19-9.76-24.6 1.38-11.431 8.73-15.48 14.07-24.561 15.48-26.4-17-31.81-35.7-31.06-26.59 1.05-46.7-21.89-31.6-47.35 6.95-11.7 19.44-19.48 33.63-25.2l5.11.17c-6.82 13.85-6.91 27.46 1.01 39.1 26.94 39.57 96.24 14.94 133.04 36.81l.57.4c7.13 5.24 11.8 11.46 17.57 18.08 29.44 33.95 78.57 40.76 112.04 37.05l7.919.24c33.48 3.729 82.601-3.09 112.051-37.04.909-1.04 1.79-2.07 2.659-3.09l1.79.26c-6.58 8.3-9.43 20.88-4.79 34.4 1.66 4.84 4.66 10.189 8.61 15.489l-.229.181c-22.08-8.851-43.44 8.279-56 21.66-9.711-7.23-19.631-14.061-30.561-17.421-28.52-8.75-39.04 12.37-59.08 26.69-3.419 2.452-7.499 4.832-11.879 6.992zM662.02 418.64c5.74 20.2 15.61 47.44-4.39 58.89-6.42 3.68-13.42 4.569-20.14 3.42 4.06-14.61 5.04-30.98 9.979-44.98 1.36-3.859 2.9-6.979 4.58-9.47 2.941-4.35 6.321-6.77 9.971-7.86z" fill="#ffffc2"/><path d="M544.64 436l-1.79-.26c8.381-9.86 15.511-18.55 33.931-24.17 14.189-4.36 50.87-9.1 64.43-15.87 8.72-4.36 14.95-10.32 19.19-17.18l5.409 2.51c-4.96 7.93-7.699 17.38-6.67 25.17.48 3.6 1.57 7.84 2.88 12.44-3.649 1.09-7.029 3.51-9.97 7.86l-.46-.29c-21.649-16.93-47.95-5.76-45.1 23.17 1.51 15.34 15.47 28.91 31 31.57-3.91 14.06-10.66 26.479-26.54 33.58-7.47 3.34-15.73 3.109-23.92.55-14.761-4.6-29.29-16.76-38.57-29.19-3.95-5.3-6.95-10.649-8.61-15.489-4.64-13.521-1.79-26.101 4.79-34.401z" fill="#ffffc2"/><path d="M651.59 426.21l.46.29c-1.68 2.49-3.22 5.61-4.58 9.47-4.939 14-5.92 30.37-9.979 44.98-15.53-2.66-29.49-16.23-31-31.57-2.851-28.93 23.449-40.1 45.099-23.17zM461.67 490.31c10.93 3.36 20.85 10.19 30.561 17.421a142.6 142.6 0 0 0-8.69 10.22c-10.24 13.25-20.61 29.71-38.24 33.14-19.95 3.88-46.84-8.01-54.59-27.1 4.38-2.16 8.46-4.54 11.88-6.99 20.039-14.321 30.559-35.441 59.079-26.691z" fill="#ffffc2"/><path d="M134.26 519.63c-42.63-34.149-67.74-76.11-67.74-121.46 0-44.68 24.37-86.06 65.83-119.93 54.61-44.63 138.88-76.25 236.2-85.22-1.48.87-2.91 1.78-4.29 2.73-8.42 5.81-15.19 13.69-23.47 19.86-6.71 5.01-14.57 7.29-22.72 8.59-4.88.79-9.87 1.23-14.77 1.7-18.68 1.8-32.98 4.18-42.14 15.89-96.77 30.74-161.77 87.8-161.77 153.1 0 97.89 146.01 177.24 326.13 177.24s326.15-79.35 326.15-177.24c0-66.19-66.76-123.9-165.689-154.33-9.2-10.43-23.051-12.68-40.9-14.4-13.1-1.27-26.76-2.27-37.521-10.29-8.26-6.18-16.22-12.63-23.46-19.87-.93-.93-1.92-1.8-2.96-2.63l4.101-.1C655.1 209.72 784.56 295.19 784.56 398.17c0 42.18-21.72 81.42-59.05 114.18-64.21 56.36-174.59 93.561-299.97 93.561-119.9-.001-226.08-34.011-291.28-86.281z" fill="#f6cc4b"/><path d="M425.54 605.91c125.38 0 235.76-37.2 299.97-93.561-27.85 93.66-150.14 164.19-296.819 164.19-142.831 0-262.561-66.9-294.431-156.91 65.2 52.271 171.38 86.281 291.28 86.281z" fill="#f6cc4b"/><path d="M604.03 337.35c5.38.55 8.779 11.63 4.569 13.9-7.47 4.01-11.369 2.49-14.43 1.72-4.22-1.06-7.47-7.61-2.8-11.31 1.89-1.5 5.25 1.03 7.68.18 2.261-.8 1.671-4.84 4.981-4.49zM559.6 290.56c5.391.56 8.771 11.63 4.57 13.9-7.47 4.02-11.37 2.49-14.43 1.72-4.21-1.06-7.471-7.61-2.79-11.31 1.88-1.5 5.25 1.03 7.67.18 2.26-.8 1.67-4.84 4.98-4.49zM517.9 332.55c5.399.56 8.779 11.63 4.569 13.9-7.47 4.01-11.359 2.5-14.43 1.73-4.2-1.06-7.46-7.61-2.79-11.32 1.89-1.5 5.26 1.03 7.67.18 2.261-.79 1.671-4.84 4.981-4.49zM484.95 416.48c5.38.55 8.78 11.63 4.569 13.89-7.47 4.02-11.369 2.49-14.43 1.72-4.22-1.05-7.47-7.6-2.8-11.3 1.89-1.51 5.25 1.03 7.68.17 2.261-.79 1.671-4.83 4.981-4.48zM469.67 279.48c5.39.56 8.78 11.63 4.57 13.9-7.471 4.02-11.36 2.49-14.42 1.72-4.221-1.05-7.471-7.61-2.801-11.3 1.891-1.51 5.25 1.02 7.671.17 2.27-.8 1.68-4.84 4.98-4.49zM440.52 369.69c5.391.55 8.771 11.63 4.57 13.89-7.47 4.02-11.37 2.49-14.43 1.72-4.21-1.05-7.47-7.6-2.8-11.3 1.89-1.5 5.26 1.02 7.68.18 2.26-.8 1.67-4.84 4.98-4.49zM425.25 232.69c5.38.56 8.77 11.63 4.57 13.9-7.47 4.02-11.37 2.49-14.43 1.72-4.22-1.05-7.48-7.61-2.8-11.31 1.89-1.5 5.26 1.03 7.68.18 2.26-.79 1.67-4.83 4.98-4.49zM398.82 411.68c5.39.55 8.78 11.63 4.57 13.89-7.47 4.02-11.36 2.5-14.43 1.73-4.21-1.06-7.47-7.61-2.79-11.31 1.89-1.51 5.26 1.03 7.67.17 2.26-.79 1.67-4.83 4.98-4.48zM383.55 274.68c5.39.56 8.78 11.63 4.57 13.9-7.47 4.02-11.37 2.5-14.43 1.73-4.21-1.06-7.47-7.61-2.8-11.31 1.9-1.51 5.27 1.02 7.68.17 2.26-.79 1.67-4.83 4.98-4.49zM333.69 337.78c3.95 1.82 5.92 8.87.64 11.63-2.14 1.13-4.97-1.99-7.51-1.6-2.37.36-2.54 4.43-5.73 3.48-5.19-1.56-6.45-13.07-1.89-14.51 8.09-2.55 11.63-.33 14.49 1zM284.89 371.24c3.94 1.83 5.91 8.87.64 11.64-2.15 1.12-4.98-2-7.51-1.61-2.37.36-2.55 4.44-5.73 3.48-5.19-1.56-6.45-13.07-1.9-14.51 8.09-2.55 11.63-.32 14.5 1zM249.98 316.97c3.95 1.83 5.92 8.87.64 11.64-2.14 1.12-4.97-2-7.51-1.61-2.36.36-2.54 4.44-5.72 3.48-5.2-1.56-6.45-13.07-1.9-14.51 8.09-2.55 11.63-.32 14.49 1z" fill="#231f20"/><g fill="none" stroke="#231f20"><path d="M585.94 240.55c.01 0 .029.01.04.01 98.93 30.43 165.689 88.14 165.689 154.33 0 97.89-146.03 177.24-326.15 177.24-180.12 0-326.13-79.35-326.13-177.24 0-65.3 65-122.36 161.77-153.1 18.13-5.77 37.37-10.6 57.51-14.39 2.82-.54 5.65-1.05 8.5-1.54" stroke-width="14"/><path d="M132.35 278.24c54.61-44.63 138.88-76.25 236.2-85.22h.02M485.24 193.27c169.86 16.45 299.32 101.92 299.32 204.9 0 42.18-21.72 81.42-59.05 114.18-64.21 56.36-174.59 93.561-299.97 93.561-119.9 0-226.08-34.01-291.28-86.28-42.63-34.149-67.74-76.11-67.74-121.46 0-44.68 24.37-86.06 65.83-119.93" stroke-width="21"/><path d="M725.54 512.25l-.03.1c-27.85 93.66-150.14 164.19-296.819 164.19-142.831 0-262.561-66.9-294.431-156.91-.22-.62-.44-1.25-.65-1.87M155.99 344.19c-6.82 13.85-6.91 27.46 1.01 39.1 26.94 39.57 96.24 14.94 133.04 36.81l.57.4c7.13 5.24 11.8 11.46 17.57 18.08 29.44 33.95 78.57 40.76 112.04 37.05l7.919.24c33.48 3.729 82.601-3.09 112.051-37.04.909-1.04 1.79-2.07 2.659-3.09 8.381-9.86 15.511-18.55 33.931-24.17 14.189-4.36 50.87-9.1 64.43-15.87 8.72-4.36 14.95-10.32 19.19-17.18 11.319-18.33 8.51-43.13 1.439-61.33-4.68-12.05-30.09-26.72-41.31-31.84-18.601-8.5-22.79-17.22-25.57-27.11-2.17-7.66-5.18-13.37-8.979-17.68-9.2-10.43-23.051-12.68-40.9-14.4-13.1-1.27-26.76-2.27-37.521-10.29-8.26-6.18-16.22-12.63-23.46-19.87-.93-.93-1.92-1.8-2.96-2.63-19.05-15.04-56.03-13.41-56.03-13.41-19.85-.91-40.92 3.84-56.56 13.06-1.48.87-2.91 1.78-4.29 2.73-8.42 5.81-15.19 13.69-23.47 19.86-6.71 5.01-14.57 7.29-22.72 8.59-4.88.79-9.87 1.23-14.77 1.7-18.68 1.8-32.98 4.18-42.14 15.89-3.24 4.12-5.83 9.39-7.75 16.2-2.79 9.89-6.97 18.6-25.58 27.1-4.46 2.04-10.89 6.04-17.92 9.87-26.689 14.59-45.469 32.09-53.919 49.23z" stroke-width="21"/><path d="M741.01 386.12c-3.99 15.04-12.88 35.02-27.43 42.729-12.98 6.881-35.08-15.14-51.561-10.209-3.649 1.09-7.029 3.51-9.97 7.86-1.68 2.49-3.22 5.61-4.58 9.47-4.939 14-5.92 30.37-9.979 44.98-3.91 14.06-10.66 26.479-26.54 33.58-7.47 3.34-15.73 3.109-23.92.55-14.761-4.6-29.29-16.76-38.57-29.19-3.95-5.3-6.95-10.649-8.61-15.489-4.64-13.521-1.79-26.101 4.79-34.4 7.301-9.21 19.181-13.15 30.53-7.26M150.88 344.02c-14.19 5.72-26.68 13.5-33.63 25.2-15.1 25.46 5.01 48.4 31.6 47.35 18.7-.75 51.18 4.66 35.7 31.06-5.34 9.08-12.69 13.13-14.07 24.561-1.38 11.409 1.35 17.54 9.76 24.6 15.29 12.8 36.43 19.71 56.26 14.49 16.33-4.29 32.68-16.011 46.16-1.471" stroke-width="21" stroke-linecap="round" stroke-linejoin="round"/><path d="M329.18 524.99c4.71 1.729 8.74 3.68 12.7 5.319 6.52 2.7 12.83 4.53 21.63 3 8.39-1.449 18.41-4.96 27.2-9.319 4.38-2.16 8.46-4.54 11.88-6.99 20.04-14.32 30.561-35.44 59.08-26.69 10.93 3.36 20.85 10.19 30.561 17.421 9.449 7.029 18.71 14.439 28.489 19.39 18.46 9.31 51.261 8.7 66.311-12.04a37.849 37.849 0 0 0 3.43-5.73c5.69-11.68 1.76-22.119-6.8-30.529" stroke-width="21" stroke-linecap="round" stroke-linejoin="round"/><path d="M291.4 504.21c-2.29 2.66-4.13 5.41-5.53 8.2-9.58 19 1.19 39.229 26.51 37.96 12.14-.61 23.54-9 29.5-20.061 4.86-9.04 6.08-19.869 1.07-29.68-12.87-25.2-51.68-6.56-71.18-4.91-21.51 1.82-54.12-25.439-33.93-46.31 12.83-13.26 40.19-11.21 40.54 9.82M651.59 426.21c-21.649-16.93-47.95-5.76-45.1 23.17 1.51 15.34 15.47 28.91 31 31.57 6.72 1.149 13.72.26 20.14-3.42 20-11.45 10.13-38.69 4.39-58.89-1.31-4.6-2.399-8.84-2.88-12.44-1.029-7.79 1.71-17.24 6.67-25.17 8.671-13.86 24.091-23.12 37.96-10.93 13.86 12.18 13.12 39.6-7.869 40.96" stroke-width="21" stroke-linecap="round" stroke-linejoin="round"/><path d="M235.49 315.97c-4.55 1.44-3.3 12.95 1.9 14.51 3.18.96 3.36-3.12 5.72-3.48 2.54-.39 5.37 2.73 7.51 1.61 5.28-2.77 3.31-9.81-.64-11.64-2.86-1.32-6.4-3.55-14.49-1zM270.39 370.24c-4.55 1.44-3.29 12.95 1.9 14.51 3.18.96 3.36-3.12 5.73-3.48 2.53-.39 5.36 2.73 7.51 1.61 5.27-2.77 3.3-9.81-.64-11.64-2.87-1.32-6.41-3.55-14.5-1zM319.2 336.78c-4.56 1.44-3.3 12.95 1.89 14.51 3.19.95 3.36-3.12 5.73-3.48 2.54-.39 5.37 2.73 7.51 1.6 5.28-2.76 3.31-9.81-.64-11.63-2.86-1.33-6.4-3.55-14.49-1zM489.52 430.37c4.211-2.26.811-13.34-4.569-13.89-3.311-.35-2.72 3.69-4.98 4.48-2.43.86-5.79-1.68-7.68-.17-4.67 3.7-1.42 10.25 2.8 11.3 3.059.77 6.959 2.3 14.429-1.72zM445.09 383.58c4.2-2.26.82-13.34-4.57-13.89-3.31-.35-2.72 3.69-4.979 4.49-2.42.84-5.79-1.68-7.68-.18-4.67 3.7-1.41 10.25 2.8 11.3 3.059.77 6.959 2.3 14.429-1.72zM403.39 425.57c4.21-2.26.82-13.34-4.57-13.89-3.31-.35-2.72 3.69-4.98 4.48-2.41.86-5.78-1.68-7.67-.17-4.68 3.7-1.42 10.25 2.79 11.31 3.07.77 6.96 2.29 14.43-1.73zM474.24 293.38c4.21-2.27.819-13.34-4.57-13.9-3.3-.35-2.71 3.69-4.979 4.49-2.421.85-5.78-1.68-7.671-.17-4.67 3.69-1.42 10.25 2.801 11.3 3.059.77 6.949 2.3 14.419-1.72zM429.82 246.59c4.199-2.27.81-13.34-4.57-13.9-3.31-.34-2.72 3.7-4.98 4.49-2.42.85-5.79-1.68-7.68-.18-4.68 3.7-1.42 10.26 2.8 11.31 3.06.77 6.96 2.3 14.43-1.72zM388.12 288.58c4.21-2.27.82-13.34-4.57-13.9-3.31-.34-2.72 3.7-4.98 4.49-2.41.85-5.78-1.68-7.68-.17-4.67 3.7-1.41 10.25 2.8 11.31 3.06.77 6.96 2.29 14.43-1.73zM608.6 351.25c4.21-2.27.811-13.35-4.569-13.9-3.311-.35-2.721 3.69-4.98 4.49-2.43.85-5.79-1.68-7.68-.18-4.67 3.7-1.42 10.25 2.8 11.31 3.059.77 6.959 2.29 14.429-1.72zM564.17 304.46c4.2-2.27.82-13.34-4.57-13.9-3.31-.35-2.72 3.69-4.979 4.49-2.42.85-5.79-1.68-7.67-.18-4.681 3.7-1.42 10.25 2.79 11.31 3.059.77 6.959 2.3 14.429-1.72zM522.47 346.45c4.21-2.27.83-13.34-4.569-13.9-3.311-.35-2.721 3.7-4.98 4.49-2.41.85-5.78-1.68-7.67-.18-4.67 3.71-1.41 10.26 2.79 11.32 3.069.77 6.959 2.28 14.429-1.73z" stroke-width="21"/><path d="M394.47 494.28c-6.85 10.85-7.28 21.029-3.76 29.71 7.75 19.09 34.64 30.979 54.59 27.1 17.63-3.43 28-19.89 38.24-33.14 1.96-2.53 4.93-6.21 8.69-10.22 12.56-13.381 33.92-30.511 56-21.66" stroke-width="21" stroke-linecap="round" stroke-linejoin="round"/></g><path fill="none" d="M0 0h850.394v850.394H0z"/></svg>