<svg xmlns="http://www.w3.org/2000/svg" width="850.394" height="850.394" viewBox="0 0 850.394 850.394" overflow="visible"><path d="M501.83 138.92c12.479 42.78 8.92 65.05-5.34 93.57-14.26 28.52-46.07 66.8-46.07 66.8-3.79 5.96-6.78 12.72-8.29 20.83-3.57 19.01 7.13 51.99 7.13 51.99l.891 427.47-52.44-.22.89-427.48s10.69-32.97 7.13-51.98c-1.52-8.11-4.51-14.87-8.3-20.84 0 0-31.8-38.27-46.06-66.79-14.26-28.52-17.83-50.8-5.35-93.57 12.48-42.78 27.03-69.86 49.91-80.21 13.61-6.16 29.1-6.78 29.1-6.78 9.34.37 15.38 1.79 26.9 7.01 22.879 10.34 37.429 37.42 49.899 80.2z" fill="#c8c8c8"/><path d="M425.03 51.71c9.34.37 15.38 1.79 26.9 7.01 22.88 10.34 37.431 37.42 49.9 80.2 12.479 42.78 8.92 65.05-5.34 93.57-14.26 28.52-46.07 66.8-46.07 66.8-3.79 5.96-6.78 12.72-8.29 20.83-3.57 19.01 7.13 51.99 7.13 51.99l.891 427.47-52.44-.22.89-427.48s10.69-32.97 7.13-51.98c-1.52-8.11-4.51-14.87-8.3-20.84 0 0-31.8-38.27-46.06-66.79-14.26-28.52-17.83-50.8-5.35-93.57 12.48-42.78 27.03-69.86 49.91-80.21 13.609-6.16 29.099-6.78 29.099-6.78z" fill="none" stroke="#000" stroke-width="21.388"/><path fill="none" d="M0 0h850.394v850.394H0z"/></svg>