<svg xmlns="http://www.w3.org/2000/svg" width="850.394" height="850.394" viewBox="0 0 850.394 850.394" overflow="visible"><g fill="#ffeec8"><path d="M167.79 222.32c.73 5.93.53 12.85-.3 19.79-.92 7.69-2.61 15.4-4.68 21.81-.56 1.76-1.15 3.41-1.76 4.94-8.73 21.84-51.55 44.56-51.55 44.56s-5.64 37.19 18.35 66.41c24.07 29.32 34.55 57.54 39.01 78.41L168 458s-4-86 82-82c68.19 3.17 64-20 94.55-37.24 27.77-15.67 32.33-30.58 32.33-30.58l.98-1.58c13.41 12.09 29.8 19.2 47.51 19.2 14.17 0 27.49-4.55 39.12-12.56l5.51.76s4.21 5.86 30.51 23.89C524 354 521.9 389.26 580 382c96-12 96 74 96 74l2.38.53c4.57-20.78 15.09-48.65 38.83-77.58 23.99-29.22 18.35-66.4 18.35-66.4s-42.819-22.72-51.55-44.57c-.609-1.53-1.2-3.18-1.76-4.93-2.07-6.41-3.76-14.12-4.68-21.81-.801-6.72-1.011-13.43-.37-19.23 1.3-11.67 6.05-19.7 16.42-16.94 39.32 10.49 67.28 27.96 67.28 27.96s22.72 8.74 16.6 110.97c-6.12 102.23-24.47 230.68-97.86 217.57-73.399-13.11-93.38-80.011-118.84-67.28-5.24 2.62-5.24 246.4-5.24 246.4l-266.06.88s0-243.78-5.24-246.4c-25.46-12.74-45.44 54.17-118.84 67.28-73.39 13.1-91.74-115.34-97.86-217.57-6.12-102.23 16.6-110.97 16.6-110.97s27.96-17.48 67.28-27.96c10.2-2.72 14.97 5.01 16.35 16.37z"/><path d="M677.57 241.24c.92 7.69 2.609 15.4 4.68 21.81l-1.74.57s-22.72-9.62-27.96-23.6c-5.09-13.58 21.83-17.78 23.38-18.01h1.271c-.641 5.8-.431 12.51.369 19.23zM425.37 117.69c45.33 0 82.07 46.58 82.07 104.05 0 39.51-17.37 73.88-42.95 91.5-11.63 8.01-24.95 12.56-39.12 12.56-17.71 0-34.1-7.11-47.51-19.2-20.92-18.86-34.56-49.84-34.56-84.86 0-57.47 36.74-104.05 82.07-104.05zM167.49 242.11c.83-6.94 1.03-13.86.3-19.79 6.63 1.29 29.2 6.62 24.72 18.58-5.24 13.98-27.96 23.59-27.96 23.59l-1.74-.57c2.07-6.41 3.76-14.12 4.68-21.81z"/></g><g fill="none" stroke="#231f20"><path d="M377.86 306.6c-20.92-18.86-34.56-49.84-34.56-84.86 0-57.47 36.74-104.05 82.07-104.05s82.07 46.58 82.07 104.05c0 39.51-17.37 73.88-42.95 91.5-11.63 8.01-24.95 12.56-39.12 12.56-17.71 0-34.1-7.11-47.51-19.2zM376.88 308.18s-4.56 14.91-32.33 30.58C314 356 318.19 379.17 250 376c-86-4-82 82-82 82" stroke-width="21"/><path d="M169.79 492.54s1.53-13.5-2.93-34.3c-4.46-20.87-14.94-49.09-39.01-78.41-23.99-29.22-18.35-66.41-18.35-66.41s42.82-22.72 51.55-44.56c.61-1.53 1.2-3.18 1.76-4.94 2.07-6.41 3.76-14.12 4.68-21.81.83-6.94 1.03-13.86.3-19.79-1.38-11.36-6.15-19.09-16.35-16.37-39.32 10.48-67.28 27.96-67.28 27.96s-22.72 8.74-16.6 110.97c6.12 102.23 24.47 230.67 97.86 217.57 73.4-13.11 93.38-80.021 118.84-67.28 5.24 2.62 5.24 246.4 5.24 246.4" stroke-width="21"/><path d="M124.36 235.66s36.75-6.53 43.13 6.45c.22.45.4.92.55 1.41M127.85 262.74s35.83-9.61 32.33 3.5" stroke-width="14"/><path d="M166 222s.67.1 1.79.32c6.63 1.29 29.2 6.62 24.72 18.58-5.24 13.98-27.96 23.59-27.96 23.59" stroke-width="14"/><path d="M470 314s4.21 5.86 30.51 23.89C524 354 521.9 389.26 580 382c96-12 96 74 96 74" stroke-width="21"/><path d="M675.27 491.67s-1.569-13.86 3.11-35.14c4.57-20.78 15.09-48.65 38.83-77.58 23.99-29.22 18.35-66.4 18.35-66.4s-42.819-22.72-51.55-44.57c-.609-1.53-1.2-3.18-1.76-4.93-2.07-6.41-3.76-14.12-4.68-21.81-.801-6.72-1.011-13.43-.37-19.23 1.3-11.67 6.05-19.7 16.42-16.94 39.32 10.49 67.28 27.96 67.28 27.96s22.72 8.74 16.6 110.97c-6.12 102.23-24.47 230.68-97.86 217.57-73.399-13.11-93.38-80.011-118.84-67.28-5.24 2.62-5.24 246.4-5.24 246.4" stroke-width="21"/><path d="M720.7 234.78s-36.75-6.53-43.13 6.46c-.221.45-.4.92-.551 1.41M717.21 261.87s-35.83-9.61-32.33 3.49" stroke-width="14"/><path d="M676 222s-.02 0-.07.01c-1.55.23-28.47 4.43-23.38 18.01 5.24 13.98 27.96 23.6 27.96 23.6" stroke-width="14"/></g><path fill="none" d="M0 0h850.394v850.394H0z"/></svg>