<svg xmlns="http://www.w3.org/2000/svg" width="850.89" height="850.89" viewBox="0 0 850.89 850.89" overflow="visible"><path d="M635.97 649.71l-1.72 2.53-105.53-.55c.42-11.471-.01-19.83-.189-22.561v-.01c.01-.29.02-.58.02-.87 0-.17 0-.34-.01-.51-.01-.03-.01-.061-.01-.09 0 0 .01-.011 0-.021-.061-1.72-.431-3.42-1.07-5.09l.79-.29c8 4 22 2 36-6l1.15-3.61C590 625.45 617.14 636.11 635.97 649.71z" fill="#a9d7f3"/><path d="M577.81 298.44l1.881-.02a27.316 27.316 0 0 1 9.239-1.59c1.551 0 3.141.13 4.771.39 19.51 3.13 16.88 25.03 11.52 35.94-13.029 26.59-7.069 36.38-8.72 56.66-.62 7.49-8.94 21.85-26.29 19.42 5.17-22.43 7.94-46.56 7.94-71.9 0-13.5-.17-22.96-.591-38.9h.25z" fill="#ffeec8"/><path d="M455.31 155.24c-1.18-.74-1.79-1.06-1.79-1.06-.079.05-.14.1-.22.15-34.13 23.84-149.34 61.82-163.99 72.57 0 0-26.15 26.95-44.26 50.14-6.5 8.34-11.97 16.18-14.84 22.12l-1.7-55.28c0-88.19 71.96-139.37 71.96-139.37 8.34-5.66 13.9-8.5 13.9-8.5 36.72-21.84 84.19-29.54 144.74-22.48 73.109 8.52 129.22 81.35 139.92 171.99 1.739 14.74-2.44 30.32-4.99 45.92l-5.11 5.39c-3.3 0-6.38.57-9.239 1.59l-1.881.02c-.09-.42-.18-.82-.279-1.22-6.73-27-36.011-49.99-43.53-60.37-40.501-55.93-71.161-76.97-78.691-81.61z" fill="#9c5b16"/><path d="M311.51 312.45l6.59 1.36c-.12 1.01-.04 2.15-.04 3.87 0 10.06 8.54 18.2 19.06 18.2 10.53 0 19.05-8.14 19.05-18.2l3.68-4.27c-6.77-5.11-15.25-8.26-23.54-8.45-9.15-.19-17.48 2.72-24.8 7.49zm-56.84 98.56c-5.43-22.93-8.34-47.67-8.34-73.67 0-8.32.01-22.91.13-36.98.06-7.88.16-15.6.31-21.98l-1.72-1.34c18.11-23.19 44.26-50.14 44.26-50.14 14.65-10.75 129.86-48.73 163.99-72.57.38.34 1.09.64 2.01.91 7.53 4.64 38.19 25.68 78.69 81.61 7.52 10.38 36.8 33.37 43.53 60.37l.029 1.22c.421 15.94.591 25.4.591 38.9 0 25.34-2.771 49.47-7.94 71.9-11.1 48.18-33.28 88.47-62.979 115.75-14.551 13.38-30.91 23.63-48.641 30.17l-1.01-.25c.75-3.12 1.45-6.37 2.09-9.62.71-3.59 1.34-7.18 1.9-10.6l.33.05c8.109-9.061 12.159-28.141 12.159-28.141-.38-1.09-5.189-7.54-5.189-7.54-6.15-8.22-22.2-22.85-29.39-27.029-8.58-5.021-21.23 4.76-21.23 4.76s-13.35-9.78-21.94-4.76c-8.58 5-31 30.04-32.43 34.09 0 0 4.05 16.229 12.16 25.29l.5-.08c1.39 8.9 3.32 19.37 5.73 28.25l-.9.25c-25.34-5.98-48.3-19.26-67.8-38.29-27.5-26.85-48.14-65.13-58.9-110.53zm215.21-96.59l5.42.05c.04.6.23 1.22.23 2.65 0 10.05 8.529 18.2 19.069 18.2 10.511 0 19.051-8.15 19.051-18.2 0-2.74.18-4.01-.49-5.61l.939-3.04c-5.75-2.7-12-4.21-18.689-4.07-9.12.21-18.49 3.99-25.53 10.02zM419.54 437.6c-.24.04-.47.07-.72.11l1.62-.1c-.31 0-.62 0-.9-.01z" fill="#ffeec8"/><path d="M524.4 617.09c-4.82-6.42-13.551-12.21-24.49-16.97 6.35 11.27 11.12 27.04 9.35 42.399-4.859-18.789-3.899-23.17-11.35-36.399-1.08-1.93-2.3-3.66-3.37-5.36-9.45-15.04-24.24-25.93-41.14-31.819 1.54-3.98 2.939-8.841 4.18-14.03l1.01.25c17.73-6.54 34.09-16.79 48.641-30.17l.989 1.06c-9.7 44.25 20.96 67.74 57.181 86.59l-1.15 3.61c-14 8-28 10-36 6l-.79.29c-.691-1.861-1.721-3.681-3.061-5.451z" fill="#ffeec8"/><path d="M528.53 629.13c.18 2.73.609 11.09.189 22.561l-18.05-.101c10.901-6.42 17.421-14.14 17.861-22.46z" fill="#fff"/><path d="M510.67 651.59l18.05.101c-1.14 31.27-8.63 85.739-45 112.93-14.5 10.84-33.59 17.35-58.7 16.32l.26.079c-88.88 3.65-102.36-87.13-103.75-130.42l16.7.08s0 .011.01.011c.3.189.61.38.93.569 9.5 5.73 22.44 10.44 37.62 13.67 14.44 3.09 30.91 4.83 48.4 4.83 33.1 0 62.58-6.26 81.5-15.979a78.894 78.894 0 0 0 3.98-2.191z" fill="#fbee34"/><path d="M509.26 642.52c1.771-15.359-3-31.13-9.35-42.399 10.939 4.76 19.67 10.55 24.49 16.97 2.399 3.891 3.939 7.61 4.13 10.54.01.01 0 .021 0 .021.01.029.01.06.01.09.01.17.01.34.01.51 0 .29-.01.58-.02.87v.01c-.44 8.32-6.96 16.04-17.86 22.46l-3.27-.02c.91-2.972 1.51-6.002 1.86-9.052z" fill="#ffffc2"/><path d="M528.53 627.65c0 .029 0 .06.01.09 0-.03 0-.06-.01-.09z" fill="#ffeec8"/><path d="M527.46 622.54c.64 1.67 1.01 3.37 1.07 5.09-.19-2.93-1.73-6.649-4.13-10.54 1.34 1.77 2.37 3.59 3.06 5.45z" fill="#9e5b16"/><path d="M514.1 308.47l-.939 3.04c.67 1.6.49 2.87.49 5.61 0 10.05-8.54 18.2-19.051 18.2-10.54 0-19.069-8.15-19.069-18.2 0-1.43-.19-2.05-.23-2.65l-5.42-.05c7.04-6.03 16.41-9.81 25.53-10.02 6.689-.14 12.939 1.37 18.689 4.07zm-12.73 8.81c0-3.38-3.08-6.13-6.88-6.13s-6.88 2.75-6.88 6.13c0 3.39 3.08 6.13 6.88 6.13s6.88-2.74 6.88-6.13z" fill="#abda4d"/><path d="M507.4 651.57l3.27.02c-1.27.75-2.6 1.48-3.979 2.19l-.011-.011c.26-.729.5-1.459.72-2.199z" fill="#9e5b16"/><path d="M509.26 642.52c-.35 3.051-.95 6.08-1.859 9.051l-169.16-.88c-.01 0-.01 0-.01-.011-.36-.22-.71-.439-1.06-.67a53.25 53.25 0 0 1-4.88-3.55l1.96-.21c3.73-20.71 11.29-37.17 21.25-49.77 8.8-11.12 19.46-19.23 31.01-24.57.01.01.01.03.02.04 8.19 17.569 21.61 20.729 32.8 20.03 11.189.699 24.61-2.461 32.8-20.03.43-.931.86-1.94 1.271-3.01 16.899 5.89 31.689 16.779 41.14 31.819 1.07 1.7 2.29 3.431 3.37 5.36 7.448 13.231 6.488 17.611 11.348 36.401z" fill="#ffffc2"/><path d="M338.24 650.69l169.16.88c-.221.739-.46 1.47-.721 2.199l.011.011c-18.921 9.72-48.4 15.979-81.5 15.979-17.49 0-33.96-1.74-48.4-4.83-15.18-3.229-28.12-7.939-37.62-13.67a35.09 35.09 0 0 1-.93-.569z" fill="#ffffc2"/><path d="M494.49 311.15c3.8 0 6.88 2.75 6.88 6.13 0 3.39-3.08 6.13-6.88 6.13s-6.88-2.74-6.88-6.13c0-3.38 3.08-6.13 6.88-6.13z"/><path d="M468.87 499.06s4.81 6.45 5.189 7.54c0 0-4.05 19.08-12.159 28.141l-.33-.05c2.09-12.66 3.189-23.08 3.189-23.08s-7.39-8.591-18.13-15.03c-8.979-5.39-16.21-1.43-20.02 0-3.831 1.439-13.12 1.67-16.94.24-3.82-1.431-11.05-5.391-20.04 0-10.72 6.449-15.74 14.79-15.74 14.79s.92 8.63 2.65 19.72l-.5.08c-8.11-9.061-12.16-25.29-12.16-25.29 1.43-4.05 23.85-29.09 32.43-34.09 8.59-5.021 21.94 4.76 21.94 4.76s12.65-9.78 21.23-4.76c7.191 4.179 23.241 18.809 29.391 27.029z" fill="#ee947d"/><path d="M464.76 511.61s-1.1 10.42-3.189 23.08c-.561 3.42-1.19 7.01-1.9 10.6-.64 3.25-1.34 6.5-2.09 9.62-1.24 5.189-2.64 10.05-4.18 14.03-21.11-7.37-45.51-6.931-66.891 2.97-1.55-3.34-2.97-7.61-4.24-12.33-2.41-8.88-4.34-19.35-5.73-28.25-1.73-11.09-2.65-19.72-2.65-19.72s5.02-8.341 15.74-14.79c8.99-5.391 16.22-1.431 20.04 0 3.82 1.43 13.11 1.199 16.94-.24 3.81-1.43 11.04-5.39 20.02 0 10.74 6.44 18.13 15.03 18.13 15.03z" fill="#ee947d"/><path d="M453.4 568.94a49.327 49.327 0 0 1-1.271 3.01c-8.189 17.569-21.61 20.729-32.8 20.03.04-.011.08-.011.12-.011h-.24c.04 0 .08 0 .12.011-11.19.699-24.61-2.461-32.8-20.03-.01-.01-.01-.03-.02-.04 21.381-9.9 45.781-10.34 66.891-2.97z" fill="#ffffc2"/><path d="M419.45 591.97c-.04 0-.08 0-.12.011-.04-.011-.08-.011-.12-.011h.24z" fill="#9e5b16"/><path d="M382.27 559.58c1.27 4.72 2.69 8.99 4.24 12.33-11.55 5.34-22.21 13.45-31.01 24.57l-3.25-.23c-26.95 7.53-28 16-30.42 32-30.72 0-59.58-3.63-59.58-18l-4.12-1.75c35.18-18.65 64.3-42.07 54.82-85.35l.62-1.61c19.5 19.03 42.46 32.31 67.8 38.29l.9-.25z" fill="#ffeec8"/><path d="M318.1 313.81l-6.59-1.36c7.32-4.77 15.65-7.68 24.8-7.49 8.29.19 16.77 3.34 23.54 8.45l-3.68 4.27c0 10.06-8.52 18.2-19.05 18.2-10.52 0-19.06-8.14-19.06-18.2 0-1.72-.08-2.86.04-3.87zm18.96 9.64c3.79 0 6.87-2.74 6.87-6.12 0-3.39-3.08-6.15-6.87-6.15-3.81 0-6.87 2.76-6.87 6.15 0 3.38 3.06 6.12 6.87 6.12z" fill="#abda4d"/><path d="M352.25 596.25l3.25.23c-9.96 12.6-17.52 29.06-21.25 49.77l-1.96.21c-6.7-5.5-10.46-11.68-10.46-18.21 2.42-16 3.47-24.47 30.42-32z" fill="#ffffc2"/><path d="M343.93 317.33c0 3.38-3.08 6.12-6.87 6.12-3.81 0-6.87-2.74-6.87-6.12 0-3.39 3.06-6.15 6.87-6.15 3.79 0 6.87 2.76 6.87 6.15z"/><path d="M338.23 650.68c0 .011 0 .011.01.011-.01-.001-.01-.011-.01-.011z" fill="#ffffc2"/><path d="M338.23 650.68l-16.7-.08c-.31-9.659-.02-16.949.17-20.31.09 5.729 4.19 11.24 10.46 16.18 1.54 1.221 3.23 2.4 5.01 3.54.35.23.7.45 1.06.67z" fill="#fff"/><path d="M337.17 650.01c-1.78-1.14-3.47-2.319-5.01-3.54l.13-.01a53.44 53.44 0 0 0 4.88 3.55z" fill="#fff"/><path d="M332.29 646.46l-.13.01c-6.27-4.939-10.37-10.45-10.46-16.18.05-.99.1-1.64.12-1.9.01-.09.01-.14.01-.14 0 6.53 3.76 12.71 10.46 18.21z" fill="#fff"/><path d="M321.83 628.25s0 .05-.01.14c-.1.641-.14 1.271-.12 1.9-.19 3.36-.48 10.65-.17 20.31l-140.36-.739c19.4-15.53 49.96-27.04 76.96-41.36l4.12 1.75c0 14.369 28.86 17.999 59.58 17.999z" fill="#a9d7f3"/><path d="M321.7 630.29c-.02-.63.02-1.26.12-1.9-.02.26-.07.91-.12 1.9z" fill="#a9d7f3"/><path d="M254.67 411.01c-18 3.12-26.62-11.63-27.24-19.27-1.67-20.29 4.3-30.06-8.73-56.64-5.36-10.92-7.99-32.82 11.51-35.94 5.13-.83 9.83-.31 14.02 1.19l2.23.01c-.12 14.07-.13 28.66-.13 36.98 0 26 2.91 50.74 8.34 73.67z" fill="#ffeec8"/><g fill="none"><path d="M296.77 325.86c4.29-5.16 9.22-9.82 14.74-13.41 7.32-4.77 15.65-7.68 24.8-7.49 8.29.19 16.77 3.34 23.54 8.45 4.06 3.05 7.51 6.83 9.91 11.08" stroke="#231f20" stroke-width="9.059" stroke-linecap="square" stroke-miterlimit="10"/><path d="M356.17 317.68c0 10.06-8.52 18.2-19.05 18.2-10.52 0-19.06-8.14-19.06-18.2 0-1.72-.08-2.86.04-3.87.07-.44.14-.87.3-1.29M534.94 325.29c-5.801-7.01-12.83-13.07-20.841-16.82-5.75-2.7-12-4.21-18.689-4.07-9.12.21-18.49 3.99-25.53 10.02-3.21 2.74-5.93 5.97-7.93 9.51" stroke="#231f20" stroke-width="9.059" stroke-linecap="square" stroke-miterlimit="10"/><path d="M475.3 314.47c.04.6.23 1.22.23 2.65 0 10.05 8.529 18.2 19.069 18.2 10.511 0 19.051-8.15 19.051-18.2 0-2.74.18-4.01-.49-5.61" stroke="#231f20" stroke-width="9.059" stroke-linecap="square" stroke-miterlimit="10"/><path d="M244.23 300.35c-4.19-1.5-8.89-2.02-14.02-1.19-19.5 3.12-16.87 25.02-11.51 35.94 13.03 26.58 7.06 36.35 8.73 56.64.62 7.64 9.24 22.39 27.24 19.27.17-.02.35-.05.54-.09M579.69 298.42a27.316 27.316 0 0 1 9.239-1.59c1.551 0 3.141.13 4.771.39 19.51 3.13 16.88 25.03 11.52 35.94-13.029 26.59-7.069 36.38-8.72 56.66-.62 7.49-8.94 21.85-26.29 19.42-.49-.06-.99-.14-1.51-.24" stroke="#231f20" stroke-width="14"/><path d="M381.37 559.83c-25.34-5.98-48.3-19.26-67.8-38.29-27.5-26.85-48.14-65.13-58.9-110.53-5.43-22.93-8.34-47.67-8.34-73.67 0-8.32.01-22.91.13-36.98.06-7.88.16-15.6.31-21.98M577.47 295.16c.021.7.04 1.39.061 2.06l.029 1.22c.421 15.94.591 25.4.591 38.9 0 25.34-2.771 49.47-7.94 71.9-11.1 48.18-33.28 88.47-62.979 115.75-14.551 13.38-30.91 23.63-48.641 30.17M419.54 437.6c9.09-1.689 7.46-7.069 17.21-4.699 8.4 2.029 17.31 6.21 19.41-6.92 1.439-9.04-5.36-10.24-8.97-17.5M419.54 437.6c.28.011.59.011.9.011l-1.62.1c.25-.041.48-.071.72-.111zM391.13 324.88c15.08 16.54 10.51 55.4 3.77 75.63l-2.84 7.89c-3.61 7.25-10.4 8.44-8.97 17.48 2.1 13.13 11.02 8.93 19.41 6.91 9.7-2.34 7.51 4.41 17.04 4.81" stroke="#231f20" stroke-width="14"/><path d="M343.93 317.33c0 3.38-3.08 6.12-6.87 6.12-3.81 0-6.87-2.74-6.87-6.12 0-3.39 3.06-6.15 6.87-6.15 3.79 0 6.87 2.76 6.87 6.15zM494.49 323.41c-3.8 0-6.88-2.74-6.88-6.13 0-3.38 3.08-6.13 6.88-6.13s6.88 2.75 6.88 6.13c0 3.39-3.08 6.13-6.88 6.13z" stroke="#231f20" stroke-width="7.602"/><path d="M381.14 294.52c-8.13-17.13-39.94-23.8-56.05-20.58-15.13 3.01-22.64 4.83-38.42 17.07M447.06 290.78c8.141-17.14 39.95-23.82 56.051-20.59 15.159 3.01 22.659 4.82 38.43 17.07" stroke="#231f20" stroke-width="14"/><path d="M594.04 291.44c2.55-15.6 6.729-31.18 4.99-45.92-10.7-90.64-66.811-163.47-139.92-171.99-60.55-7.06-108.021.64-144.74 22.48 0 0-5.56 2.84-13.9 8.5 0 0-71.96 51.18-71.96 139.37l1.7 55.28c2.87-5.94 8.34-13.78 14.84-22.12 18.11-23.19 44.26-50.14 44.26-50.14 14.65-10.75 129.86-48.73 163.99-72.57.08-.05.141-.1.22-.15 0 0 .61.32 1.79 1.06 7.53 4.64 38.19 25.68 78.69 81.61 7.52 10.38 36.8 33.37 43.53 60.37.1.4.189.8.279 1.22.54 2.44.91 4.93 1.04 7.44" stroke="#231f20" stroke-width="14"/><path d="M466.84 156.73c-1.71.01-8.07-.48-11.53-1.49-.92-.27-1.63-.57-2.01-.91a.9.9 0 0 1-.27-.36c10.47-10.2 18.72-26.83 18.72-43.7M312.95 523.15c9.48 43.279-19.64 66.699-54.82 85.35-27 14.32-57.56 25.83-76.96 41.36M508.22 526.05c-9.7 44.25 20.96 67.74 57.181 86.59 24.6 12.811 51.739 23.471 70.569 37.07 1.38.99 2.73 2.021 4.021 3.05" stroke="#231f20" stroke-width="14"/><path d="M461.9 534.74c8.109-9.061 12.159-28.141 12.159-28.141-.38-1.09-5.189-7.54-5.189-7.54-6.15-8.22-22.2-22.85-29.39-27.029-8.58-5.021-21.23 4.76-21.23 4.76s-13.35-9.78-21.94-4.76c-8.58 5-31 30.04-32.43 34.09 0 0 4.05 16.229 12.16 25.29" stroke="#000" stroke-width="7" stroke-linecap="round" stroke-linejoin="round"/><path d="M386.51 571.91c-1.55-3.34-2.97-7.61-4.24-12.33-2.41-8.88-4.34-19.35-5.73-28.25-1.73-11.09-2.65-19.72-2.65-19.72s5.02-8.341 15.74-14.79c8.99-5.391 16.22-1.431 20.04 0 3.82 1.43 13.11 1.199 16.94-.24 3.81-1.43 11.04-5.39 20.02 0 10.74 6.439 18.13 15.03 18.13 15.03s-1.1 10.42-3.189 23.08c-.561 3.42-1.19 7.01-1.9 10.6" stroke="#000" stroke-width="7" stroke-linecap="round" stroke-linejoin="round"/><path d="M459.67 545.29c-.64 3.25-1.34 6.5-2.09 9.62-1.24 5.189-2.64 10.05-4.18 14.03M418.25 498.25s4.77 27.43 2.39 51.28" stroke="#000" stroke-width="7" stroke-linecap="round" stroke-linejoin="round"/><path d="M321.83 628.25c0 6.53 3.76 12.71 10.46 18.21a53.44 53.44 0 0 0 4.88 3.55" stroke="#000" stroke-width="14"/><path d="M528.53 627.65c.01.029.01.06.01.09M506.69 653.78l-.011-.011a50.507 50.507 0 0 0 2.58-11.25c1.771-15.359-3-31.13-9.35-42.399 10.939 4.76 19.67 10.55 24.49 16.97 1.34 1.771 2.369 3.59 3.06 5.45.64 1.67 1.01 3.37 1.07 5.09" stroke="#000" stroke-width="10.324"/><path d="M321.83 628.25c2.42-16 3.47-24.47 30.42-32M528.53 629.13c-.44 8.32-6.96 16.04-17.86 22.46-1.27.75-2.6 1.48-3.979 2.19-18.921 9.72-48.4 15.979-81.5 15.979-17.49 0-33.96-1.74-48.4-4.83-15.18-3.229-28.12-7.939-37.62-13.67-.32-.189-.63-.38-.93-.569-.01 0-.01 0-.01-.011-.36-.22-.71-.439-1.06-.67-1.78-1.14-3.47-2.319-5.01-3.54-6.27-4.939-10.37-10.45-10.46-16.18-.02-.63.02-1.26.12-1.9" stroke="#000" stroke-width="14"/><path d="M494.25 594.25c10.1 0 23.49 12.05 30.15 22.84 2.399 3.891 3.939 7.61 4.13 10.54.01.01 0 .021 0 .021 0 .029 0 .06.01.09.01.17.01.34.01.51 0 .29-.01.58-.02.87" stroke="#000" stroke-width="10.324"/><path d="M321.7 630.29c.05-.99.1-1.64.12-1.9.01-.09.01-.14.01-.14" stroke="#000" stroke-width="14"/><path d="M483.72 764.62c-14.5 10.84-33.59 17.35-58.7 16.32l.26.079c-88.88 3.65-102.36-87.13-103.75-130.42-.31-9.659-.02-16.949.17-20.31" stroke="#000" stroke-width="10.324"/><path d="M528.46 628.17s.03.33.07.95v.01c.18 2.73.609 11.09.189 22.561-1.14 31.27-8.63 85.739-45 112.93" stroke="#000" stroke-width="10.324"/><path d="M334.25 646.25c3.73-20.71 11.29-37.17 21.25-49.77 8.8-11.12 19.46-19.23 31.01-24.57 21.38-9.9 45.78-10.34 66.891-2.97 16.899 5.89 31.689 16.779 41.14 31.819 1.07 1.7 2.29 3.431 3.37 5.36 7.45 13.229 6.49 17.61 11.35 36.399.3 1.181.63 2.421.99 3.73" stroke="#000" stroke-width="14"/><path d="M262.25 610.25c0 14.37 28.86 18 59.58 18M528.25 622.25c8 4 22 2 36-6" stroke="#231f20" stroke-width="14"/></g><path fill="none" d="M.25.25h850.394v850.394H.25z"/></svg>