<svg xmlns="http://www.w3.org/2000/svg" width="850.394" height="850.394" viewBox="0 0 850.394 850.394" overflow="visible"><path fill="#fff" d="M480.1 190.28v33.81h-79.49v-33.81h.63zM480.1 157.75v32.53h-79.49v-33.01h.87l78.44.48z"/><path fill="#fff" d="M480.1 120.68v37.07h-.18l-78.44-.48h-.87v-36.59H479.68zM480.1 87.56v33.12H400.61V87.56H479.16zM480.1 56.11v31.45H400.61V56.11z"/><path d="M427.46 394.36V782.5s-1.83 24.72-19.22 24.72c-18.31 0-19.83-27.16-19.83-27.16l1.21-382.04c0-26.84 0-40.28-17.08-89.09-17.09-48.83-7.32-101.92-7.32-101.92V67.86c0-9.77 7.92-17.7 17.69-17.7 4.89 0 9.31 1.98 12.52 5.19 3.2 3.2 5.18 7.63 5.18 12.51V207.01s-9.76 62.85 8.55 98.25c18.3 35.4 18.3 53.7 18.3 89.1z" fill="#00e800"/><g fill="none" stroke="#000" stroke-width="19.051"><path d="M400.61 207.01s-9.76 62.85 8.55 98.25c18.3 35.4 18.3 53.7 18.3 89.1V782.5s-1.83 24.72-19.22 24.72c-18.31 0-19.83-27.16-19.83-27.16l1.21-382.04c0-26.84 0-40.28-17.08-89.09-17.09-48.83-7.32-101.92-7.32-101.92V67.86c0-9.77 7.92-17.7 17.69-17.7 4.89 0 9.31 1.98 12.52 5.19 3.2 3.2 5.18 7.63 5.18 12.51"/><path d="M480.1 190.28v33.81h-79.49V56.11h79.49V157.75zM479.68 120.68H401M479.92 157.75l-78.44-.48M480.16 190.28h-78.92M479.16 87.56h-77.4"/></g><path fill="none" d="M0 0h850.394v850.394H0z"/></svg>