<svg id="Layer_1" xmlns="http://www.w3.org/2000/svg" viewBox="0 0 850 850"><style>.st0{fill:#f6cc4b}.st1{fill:#ffeec8}.st2{fill:none;stroke:#231f20;stroke-width:21;stroke-linecap:round;stroke-miterlimit:10}</style><path class="st0" d="M263.3 243.8h4.7l4.8.5 4.5.5 4.7.7 4.3 1 4.5 1 4.2 1.5 4.3 1.5 4 1.8 4 1.7 3.7 2 3.8 2.3 3.5 2.5 3.5 2.5 3.5 2.7 3 2.8 3.2 3 2.8 3 2.7 3.2 2.5 3.5 2.5 3.3 2.3 3.7 2 3.5 1.7 4 1.8 3.8 1.5 4 1.2 4 1 4.2.8 4 .5 4.5.5 4.3v8.7l-.5 4.3-.5 4.2-.8 4.3-1 4.2-1.2 4-1.5 4-1.8 3.8-1.7 3.7-2 3.8-2.3 3.7-2.5 3.3-2.5 3.5-2.7 3.2-2.8 3-3.2 3-3 2.8-3.5 2.7-3.5 2.5-3.5 2.5-3.8 2-3.7 2.3-4 1.7-4 1.8-4.3 1.5-4.2 1.5-4.5 1-4.3 1-4.7.7-4.5.5-4.8.3-4.7.2-4.5-.2-4.8-.3-4.7-.5-4.5-.7-4.3-1-4.5-1-4.2-1.5-4.3-1.5-4-1.8-4-1.7-3.7-2.3-3.8-2-3.7-2.5-3.3-2.5-3.5-2.7-3.2-2.8-3-3-2.8-3-2.7-3.2-2.8-3.5-2.2-3.3-2.3-3.7-2-3.8-1.7-3.7-1.8-3.8-1.5-4-1.2-4-1-4.2-.8-4.3-.5-4.2-.5-4.3v-8.7l.5-4.3.5-4.5.8-4 1-4.2 1.2-4 1.5-4 1.8-3.8 1.7-4 2-3.5 2.3-3.7 2.2-3.3 2.8-3.5 2.7-3.2 2.8-3 3-3 3.2-2.8 3.5-2.7 3.3-2.5 3.7-2.5 3.8-2.3 3.7-2 4-1.7 4-1.8 4.3-1.5 4.2-1.5 4.5-1 4.3-1 4.5-.7 4.7-.5 4.8-.5z"/><path class="st1" d="M536.5 308.5l2.8 1.3 3.2 1.5 6.8 4 7.5 4.7 8 5.8 8.2 6.2 8.5 6.8 8.3 7 8.2 6.7 15 13.5 12.5 11.3 11.5 11 4.3 9.5 3.5 9 3 9 2.5 8.7 1.7 8.3 1.5 8.2 1 8.3.8 8.2.5 8 .5 8.3.2 16.7.5 17.5.3 9.3.5 9.5 1.2 20.5 1.3 14.7 1.2 16.8 2.3 18.7 2.5 20 1.7 10.8 1.8 10.7 2.2 11 2.3 11h-.8L470 783l-7.2-6.5-7-6.5-6.5-6.5-6.3-6.5-5.7-6.5-5.8-6.5-5.2-6.2-5-6.5-5-6.3-4.5-6.2L403 706l-8.2-12.2-7.8-12.3-15-23.7-7.5-11.5-7.7-11.3-4-5.5-4.3-5.5-4.5-5.2-4.5-5.3-4.7-5.2-5-5-5.3-5.3-5.2-4.7-2.8-2.8-2.7-3-2.5-3.7-2.5-4-2.5-4.5-2.5-4.5-4.8-9.8-4.7-10.2-4.3-9.5-4-9-3.7-7.3-7-12.7-3.8-6.8-4.2-7.2-4.5-7.5-5.3-8-5.7-8.3-6.8-8.7-4.5-6.3-3.5-5.5-1.2-2.7-1-2.3-1-2.2-.5-2-.5-2-.3-1.8v-3.2l.3-1.5.5-1.3.5-1.2.7-1 1.5-2 2-1.5 2.3-1.5 2.2-1 4.8-1.5 4-1.3 3.5-1 3.5-.7 3.5-.3h6.7l3.3.5 3.2.8 3 1 3 1 3 1.2 2.8 1.5 2.5 1.8 2.5 1.7 2.2 1.8 2 2 1.8 2 3.5 4.5 3.5 4.2 6.2 9 6 9 6.3 8.8 3.5 4 3.2 4 3.8 3.7 3.7 3.5 4.3 3.3 4.5 3 4.7 2.7 5.3 2.3 2.5.7 3.5 1 8.2 1.8 13 2.2 1.8 1 2 .5 1.7.5h2l1.8-.2 2-.3 2-.7 2-.8 2-1 2-1.2 4-3 4-3.5 3.7-4.3 4-4.5 3.5-5.2 3.5-5.3 3.3-5.7 3-6 2.7-6 2.3-6 2-6 .2-2.5.3-3.3v-4.2l-.5-5.3-1-6.2-1.5-7.3-1-4-1.3-4.2-.7-1.8-1.3-2.2-4-6.5-6-8.5-7-10.3-17.7-24.7-20.3-28-20.5-28.8-9.7-14-8.8-13-7.7-12.2-6.5-10.8-2.8-4.5-2.2-4.2-1.8-3.8-1.2-3.2-.5-2.3-.5-2.2-.3-2.5-.2-2.3V222l.2-2.5.8-4.7 1.2-4.8 2-4.5 2.3-4 1.2-2 1.3-1.7 1.5-1.8 1.5-1.5 1.7-1.2 1.8-1.3 1.7-.7 1.8-.8 2-.7 2-.3h2l2 .3 2 .2 2 .8 2.2 1.2 2 1.3 2.3 1.7 2.2 2 6 6.8 9 10.5 11 13.5 12.8 16 28.7 36.7 30.3 38.8.7-.5 2.8-3 3.2-2.5 3.8-2.3 1.7-.7 2-.8 2-.5 2.3-.5 2-.2h2.2l2 .2 2.3.5 2 .8 2.2 1 3.8 2.5.2-2 .8-2 1.5-1.8 1.7-1.7 2-1.8 2.5-1.2 2.8-1.3 3-1 3-.7 3.5-.5 3.2-.3h3.5l3.5.5 3.5.8 3.3 1 3.2 1.5 3.8 2.2 4.7 3.5z"/><path class="st2" d="M355.3 329v4.5l-.5 4.3-.5 4.2-.8 4.3-1 4.2-1.2 4-1.5 4-1.8 3.8-1.7 3.7-2 3.8-2.3 3.7-2.5 3.3-2.5 3.5-2.7 3.2-2.8 3-3.2 3-3 2.8-3.5 2.7-3.5 2.5-3.5 2.5-3.8 2-3.7 2.3-4 1.7-4 1.8-4.3 1.5-4.2 1.5-4.5 1-4.3 1-4.7.7-4.5.5-4.8.3-4.7.2-4.5-.2-4.8-.3-4.7-.5-4.5-.7-4.3-1-4.5-1-4.2-1.5-4.3-1.5-4-1.8-4-1.7-3.7-2.3-3.8-2-3.7-2.5-3.3-2.5-3.5-2.7-3.2-2.8-3-3-2.8-3-2.7-3.2-2.8-3.5-2.2-3.3-2.3-3.7-2-3.8-1.7-3.7-1.8-3.8-1.5-4-1.2-4-1-4.2-.8-4.3-.5-4.2-.5-4.3v-8.7l.5-4.3.5-4.5.8-4 1-4.2 1.2-4 1.5-4 1.8-3.8 1.7-4 2-3.5 2.3-3.7 2.2-3.3 2.8-3.5 2.7-3.2 2.8-3 3-3 3.2-2.8 3.5-2.7 3.3-2.5 3.7-2.5 3.8-2.3 3.7-2 4-1.7 4-1.8 4.3-1.5 4.2-1.5 4.5-1 4.3-1 4.5-.7 4.7-.5 4.8-.5h9.2l4.8.5 4.5.5 4.7.7 4.3 1 4.5 1 4.2 1.5 4.3 1.5 4 1.8 4 1.7 3.7 2 3.8 2.3 3.5 2.5 3.5 2.5 3.5 2.7 3 2.8 3.2 3 2.8 3 2.7 3.2 2.5 3.5 2.5 3.3 2.3 3.7 2 3.5 1.7 4 1.8 3.8 1.5 4 1.2 4 1 4.2.8 4 .5 4.5.5 4.3z"/><path class="st2" d="M512.8 494.8l.5-95-18.5-24.3-43-56.2-30.3-38.8-28.7-36.7-12.8-16-11-13.5-9-10.5-6-6.8-2.2-2-2.3-1.7-2-1.3-2.2-1.2-2-.8-2-.2-2-.3h-2l-2 .3-2 .7-1.8.8-1.7.7-1.8 1.3-1.7 1.2-1.5 1.5-1.5 1.8-1.3 1.7-1.2 2-2.3 4-2 4.5-1.2 4.8-.8 4.7-.2 2.5v2.5l.2 2.3.3 2.5.5 2.2.5 2.3 1.2 3.2 1.8 3.8 2.2 4.2 2.8 4.5 6.5 10.8 7.7 12.2 8.8 13 9.7 14 20.5 28.8 20.3 28L415 381l7 10.3 6 8.5 4 6.5 1.3 2.2.7 1.8 1.3 4.2 1 4 1.5 7.3 1 6.2.5 5.3v4.2l-.3 3.3-.2 2.5-2 6-2.3 6-2.7 6-3 6-3.3 5.7-3.5 5.3-3.5 5.2-4 4.5-3.7 4.3-4 3.5-4 3-2 1.2-2 1-2 .8-2 .7-2 .3-1.8.2h-2l-1.7-.5-2-.5-1.8-1-13-2.2-8.2-1.8-3.5-1-2.5-.7-5.3-2.3-4.7-2.7-4.5-3-4.3-3.3-3.7-3.5-3.8-3.7-3.2-4-3.5-4-6.3-8.8-6-9-6.2-9-3.5-4.2-3.5-4.5-1.8-2-2-2-2.2-1.8-2.5-1.7-2.5-1.8-2.8-1.5-3-1.2-3-1-3-1-3.2-.8-3.3-.5h-6.7l-3.5.3-3.5.7-3.5 1-4 1.3-4.8 1.5-2.2 1-2.3 1.5-2 1.5-1.5 2-.7 1-.5 1.2-.5 1.3-.3 1.5v3.2l.3 1.8.5 2 .5 2 1 2.2 1 2.3 1.2 2.7 3.5 5.5 4.5 6.3 6.8 8.7 5.7 8.3 5.3 8 4.5 7.5 4.2 7.2 3.8 6.8 7 12.7 3.7 7.3 4 9 4.3 9.5L299 561l4.8 9.8 2.5 4.5 2.5 4.5 2.5 4 2.5 3.7 2.7 3 2.8 2.8 5.2 4.7 5.3 5.3 5 5 4.7 5.2 4.5 5.3 4.5 5.2 4.3 5.5 4 5.5 7.7 11.3 7.5 11.5 15 23.7 7.8 12.3L403 706l8.8 12.8 4.5 6.2 5 6.3 5 6.5 5.2 6.2 5.8 6.5 5.7 6.5 6.3 6.5 6.5 6.5 7 6.5 7.2 6.5M573.3 463l-9.8-81-9.2-8.7-21.8-20.3-12.7-11.7L507 330l-11.2-9.7-5-3.8-4-3.2-3.8-2.5-2.2-1-2-.8-2.3-.5-2-.2h-2.2l-2 .2-2.3.5-2 .5-2 .8-1.7.7-3.8 2.3-3.2 2.5-2.8 3M536.5 308.5l-4.7-3.5-3.8-2.2-3.2-1.5-3.3-1-3.5-.8-3.5-.5H511l-3.2.3-3.5.5-3 .7-3 1-2.8 1.3-2.5 1.2-2 1.8-1.7 1.7-1.5 1.8-.8 2-.2 2M612.8 450l-9.3-85.5-7.5-6.5-17.7-15.5-11-9.2-11-9.3-10.8-8.5-9-7"/><path class="st2" d="M675.3 665.8l-1-4.8-2.3-11-2.2-11-1.8-10.7-1.7-10.8-2.5-20-2.3-18.7-1.2-16.8-1.3-14.7-1.2-20.5-.5-9.5-.3-9.3-.5-17.5-.2-16.7-.5-8.3-.5-8-.8-8.2-1-8.3-1.5-8.2-1.7-8.3-2.5-8.7-3-9-3.5-9-4.3-9.5-11.5-11L613 366l-15-13.5-8.2-6.7-8.3-7-8.5-6.8-8.2-6.2-8-5.8-7.5-4.7-6.8-4-3.2-1.5-2.8-1.3M486.8 234.3l.5-6 .2-6v-6l-.2-6-.3-6-.7-6-.8-5.8-1.2-6-1.3-5.7-1.5-5.8-1.7-5.7-2-5.5-2-5.5-2.5-5.5-2.5-5.5-2.8-5.3-3-5.2-3-5-3.5-5-3.5-4.8-3.5-4.7-4-4.5-4-4.3-4.2-4.2-4.3-4.3-4.7-3.7-4.5-3.8-5-3.5-5-3.5-5.3-3-5.2-3-5.5-2.7-5.3-2.5-5.2-2-5-1.8-5.3-1.7-5.2-1.5-5.3-1-5.2-1-5.3-.8-5.2-.5-5.3-.5H337l-5 .3-5.2.5-5 .7-5 1"/><path class="st2" d="M545.3 175.8l-60.3 74-58-73"/></svg>