<svg xmlns="http://www.w3.org/2000/svg" width="850.394" height="850.394" viewBox="0 0 850.394 850.394" overflow="visible"><g fill="#00e800"><path d="M464 400.02c9.46-10.38 44.11-48.86 74.99-89.64 17.87-23.6 19.81-27.61 19.81-27.61l-1.66-3.05 7.45-4.07-11.68 40.37 11.21 6.78-1.84 10.5s11.63 2.95 18.5 2.24l-1.021 1.24c-10.52 9.9-27.7 23.98-27.7 23.98l20.58 8.27-2.68 7.08 23 10.94-27.37 9.67 10.51 13.66-25.89 2.13-.479 14.521-14.011 4.81-2.04 18.15-20.93-2.07-10.53 7.9s-15.149-9.21-30.02-21.28c-12.95-10.49-10.53-28.41-9.681-32.91.392-.421.882-.961 1.482-1.611z"/><path d="M538.99 310.38c-30.88 40.78-65.53 79.26-74.99 89.64-.6.65-1.09 1.19-1.48 1.61.131-.68.221-1.05.221-1.05s-18.51 10.19-33.38-1.88c-14.88-12.06-27.021-24.99-27.021-24.99l5.57-11.94-6.34-20.06 17.32-5.74 1.83-14.7 14.11-3.45-3.26-25.77 15.54 7.46 3.81-28.78 15.44 20.25 6.39-4.08 12.34 18.43s10.21-19.72 17.74-32.06l1.01-1.24c.7 6.86 6 17.64 6 17.64l9.9-3.98 8.939 9.57 28.46-15.54 1.66 3.05c.001 0-1.939 4.01-19.809 27.61zM506.64 492.28c-5.989 16.609-27.689 78.1-43.909 140.45-9.391 36.079-9.721 41.68-9.721 41.68l3.42 2.75-6.699 8.33-5.921-52.59-16.31-2.471-2.91-13.1s-14.97 2.189-22.6 6.33l.58-1.93c7.45-16.591 20.63-41.271 20.63-41.271l-27.91.33-.32-9.521-32.02-1.619 27.16-24.46-18.82-10.811 29.08-14.979-6.46-17.12 13.96-12.351-6.39-22.09 25.34-7.7 8.42-14.279s22.069 3.39 45.189 10.239c20.11 5.95 25.971 27.931 27.16 33.58-.249.683-.569 1.553-.949 2.603z"/><path d="M462.73 632.73c16.22-62.351 37.92-123.841 43.909-140.45.38-1.05.7-1.92.95-2.601.18.86.25 1.34.25 1.34s16.59-20.779 39.72-13.93c23.131 6.851 43.48 16.021 43.48 16.021l-.71 16.569 17.06 20.261-17.38 15.04 4.98 17.97-14.74 10.84 16.23 28.39L574.81 601l9.48 35.3-27.74-16.069-5.46 7.819-23.25-15.47s-2.359 27.86-5.149 45.85l-.57 1.92c-4.14-7.63-15.49-17.609-15.49-17.609l-9.59 9.399-15.021-6.81-25.59 31.83-3.42-2.75s.33-5.6 9.72-41.68zM714.98 616.9c-4.23-37.631-5.261-75.95-5.471-86.351-.02-.649-.029-1.2-.029-1.62.27.42.409.67.409.67s4.75-14.92 18.88-16.01c5.101-.41 10.08-.57 14.351-.609l13.26 1.31 2.74 8.18 13.63 7.53-6.37 11.92 6.51 8.811-5.81 9.06 14.89 12.17-12.14 3.91 12.63 17.39-18.62-2.979-1.34 5.439-16.02-3.6s4.569 15.8 6.819 26.26l.101 1.18c-3.881-3.319-12.23-6.409-12.23-6.409l-3.27 7.18-9.69-.58-7.34 22.86-2.45-.79c0-.002-1.01-3.142-3.44-24.922z"/><path d="M709.51 530.55c.21 10.4 1.24 48.72 5.471 86.351 2.43 21.779 3.439 24.92 3.439 24.92l2.45.79-1.93 5.989-14.32-27.619-9.47 2.069-4.37-6.569s-7.74 4.34-11.07 8.22l-.08-1.181c.59-10.68 2.63-27 2.63-27L667 602.58l-2.17-5.16-17.92 5.85 9.75-19.149-12.61-1.96 12.82-14.351-7.16-8.04 5.07-9.729-8.15-10.78 12.29-9.56 1.61-9.63s12.83-2.771 26.97-3.88c12.3-.971 20.15 9.899 21.98 12.739 0 .42.01.97.03 1.62z"/></g><g fill="none" stroke="#231f20"><path d="M507.59 489.68c-1.189-5.649-7.05-27.63-27.16-33.58-23.12-6.85-45.189-10.239-45.189-10.239l-8.42 14.279-25.34 7.7 6.39 22.09-13.96 12.351 6.46 17.12-29.08 14.979 18.82 10.811-27.16 24.46 32.02 1.619.32 9.521 27.91-.33s-13.18 24.68-20.63 41.271l-.58 1.93c7.63-4.141 22.6-6.33 22.6-6.33l2.91 13.1 16.31 2.471 5.921 52.59 6.699-8.33 25.59-31.83 15.021 6.81 9.59-9.399s11.351 9.979 15.49 17.609l.57-1.92c2.79-17.989 5.149-45.85 5.149-45.85l23.25 15.47 5.46-7.819 27.74 16.069-9.48-35.3 21.671 1.18-16.23-28.39 14.74-10.84-4.98-17.97 17.38-15.04-17.06-20.261.71-16.569s-20.35-9.17-43.48-16.021c-23.13-6.85-39.72 13.93-39.72 13.93s-.072-.482-.252-1.342z" stroke-width="14"/><path d="M506.95 492.24c-.101.01-.21.02-.311.04-34.81 3.81-68.659 28.279-85.729 56M506.96 493.98c27.271 22.119 42.44 61.199 41.67 93.84" stroke-width="7"/><path d="M508.23 487.91l-.641 1.77c-.25.681-.57 1.551-.95 2.601-5.989 16.609-27.689 78.1-43.909 140.45-9.391 36.079-9.721 41.68-9.721 41.68" stroke-width="7"/><path d="M462.52 401.63c-.85 4.5-3.27 22.42 9.681 32.91 14.87 12.07 30.02 21.28 30.02 21.28l10.53-7.9 20.93 2.07 2.04-18.15 14.011-4.81.479-14.521 25.89-2.13-10.51-13.66 27.37-9.67-23-10.94 2.68-7.08-20.58-8.27s17.181-14.08 27.7-23.98l1.021-1.24c-6.87.71-18.5-2.24-18.5-2.24l1.84-10.5-11.21-6.78 11.68-40.37-7.45 4.07-28.46 15.54-8.939-9.57-9.9 3.98s-5.3-10.78-6-17.64l-1.01 1.24c-7.53 12.34-17.74 32.06-17.74 32.06l-12.34-18.43-6.39 4.08-15.44-20.25-3.81 28.78-15.54-7.46 3.26 25.77-14.11 3.45-1.83 14.7-17.32 5.74 6.34 20.06-5.57 11.94s12.14 12.93 27.021 24.99c14.87 12.07 33.38 1.88 33.38 1.88s-.094.371-.224 1.051z" stroke-width="14"/><path d="M463.76 399.95c.08.02.16.05.24.07 26.69 7.81 58.97.17 79.94-14.96M464.27 398.68c-13.27-24.53-12.479-57.82-1.97-81.53" stroke-width="7"/><path d="M461.49 402.75s.359-.38 1.029-1.12c.391-.42.881-.96 1.48-1.61 9.46-10.38 44.11-48.86 74.99-89.64 17.87-23.6 19.81-27.61 19.81-27.61" stroke-width="7"/><path d="M709.48 528.93c-1.83-2.84-9.681-13.71-21.98-12.739-14.14 1.109-26.97 3.88-26.97 3.88l-1.61 9.63-12.29 9.56 8.15 10.78-5.07 9.729 7.16 8.04-12.82 14.351 12.61 1.96-9.75 19.149 17.92-5.85 2.17 5.16 15.26-6.061s-2.04 16.32-2.63 27l.08 1.181c3.33-3.88 11.07-8.22 11.07-8.22l4.37 6.569 9.47-2.069 14.32 27.619 1.93-5.989 7.34-22.86 9.69.58 3.27-7.18s8.35 3.09 12.23 6.409l-.101-1.18c-2.25-10.46-6.819-26.26-6.819-26.26l16.02 3.6 1.34-5.439 18.62 2.979-12.63-17.39 12.14-3.91-14.89-12.17 5.81-9.06-6.51-8.811 6.37-11.92-13.63-7.53-2.74-8.18-.36-1.07s-5.35-.31-12.899-.239c-4.271.039-9.25.199-14.351.609-14.13 1.09-18.88 16.01-18.88 16.01s-.14-.248-.41-.668z" stroke-width="14"/><path d="M709.67 530.46c-.05.03-.11.06-.16.09-18.31 9.42-31.75 29.98-35.29 48.79M710.04 531.41c19.63 6.39 36.18 24.66 42.64 42.74" stroke-width="7"/><path d="M709.46 527.8s0 .391.021 1.13c0 .42.01.971.029 1.62.21 10.4 1.24 48.72 5.471 86.351 2.43 21.779 3.439 24.92 3.439 24.92" stroke-width="7"/><path d="M89.99 187.32s48.15-25.22 82.07 8.7c33.93 33.92 83.78 127 107.9 137.55 12.27 5.37 58.48 32.97 100.93 58.8 41 24.96 78.49 48.25 78.49 48.25l164.05 60.6 119.69 11.761 13.26 1.31L773.8 516" stroke-width="21"/><path d="M144.27 307.19c17.02 10.33 20.18-19.87 12.94-29.37-15.41-20.24-50.94 2.53-43.1 27.1 13.97 43.78 16.44 58.51 46.74 75.39 2.95 1.65 6.8 3.11 11.39 4.4 53.74 15.19 208.65 7.66 208.65 7.66M77.91 427.19c-9.31 13.979-11.44 37 9.03 41.01 21.9 4.27 27.27-25.36 12.1-26.07" stroke-width="21"/><path d="M77.91 427.19c-.55.939-1.04 1.89-1.49 2.869l1.49-2.869zM172.24 384.71s-74.95 8.67-94.31 42.44l-.02.04" stroke-width="21"/></g><path fill="none" d="M0 0h850.394v850.394H0z"/></svg>