<svg id="Layer_1" xmlns="http://www.w3.org/2000/svg" viewBox="0 0 850 850"><style>.st0{fill:#a9d7f3}.st1{fill:#ffeec8}.st2{fill:#c8c8c8}.st3{fill:#f6cc4b}.st4{fill:#fff}.st5{fill:none;stroke:#231f20;stroke-width:14;stroke-linecap:round;stroke-miterlimit:10}</style><path class="st0" d="M589.8 387.5l.5 1.5 4.5 11.3 4.2 11.2-63.5 29.3-2.2-5 .2 6 1.5 46.5 1.3 36.7 1 42.8v4.5L300 573.5l-.2-2.5.7-23 .8-22.2 1.7-40 1.5-31.3 1.3-19.2.2-4.5-1.7 4-65.3-22.5 6.5-16.5 6.8-16.5 6.5-15.5 6.5-14.8 11.5-25 8-17.2 3.2-6.3 5.3-5 6.2-5 6.8-5 7.7-5 7.8-5.2 8.2-4.8 8.3-5 8-4.5 11-5.7 9.7-5.3 14.5-7.2 4.3-2 .7-2.5 4 2.5 4 2.2 4 1.8 4.3 1.5 4.5 1.2 4.5.8 4.5.7h8.7l4.3-.5 4-.7 4-1 4-1.3 4-1.7 3.7-1.8 3.5-2 5.8 2.8 14.2 7.2 9 4.8 10.3 5.5 8 4.5 8.2 4.7 8.3 5 8 5 7.5 5.3 7 5 6 5 5.5 4.7 3.5 7.5 9.2 19.3 6 13.2 6.5 15 7 16z"/><path class="st1" d="M241.5 572l-14 30.5.8 2.5.7 3.5.8 4.3.5 5 .5 5.5.5 5.7.2 6.3.3 6-.3 5.2-.2 5-.5 4.8-.5 4.2-1 4.3-1 3.2-1.5 3-.8 1.3-.7 1-1-.3-.8-.2-.5-.5-.5-.8-.7-2-.5-2-.5-2.2-1-2-.5-.8-1-.7-1-.8-1.3-.2-1 2-1 2.2-2 6-2 6.5-1.2 3.3-1.3 3-30.7-28.3.2-7 .5-7.5 1-7.7 1-8 1.3-8.3 1.7-8.5 2-8 2.3-8.2 5.5-18.8 15.5-55 8.2-30.2 7-26.3 3-11.5 3.8-12.2 4.5-12.8 4.7-13.2 65.3 22.5z"/><path class="st2" d="M593.3 571.8l-56 .5v-4.5l-1-42.8-1.3-36.7-1.5-46.5 2-1L596 570.5zM245.3 573.8l-3.8-1.8 62.8-137.2 1.5.5-1.3 19.2-1.5 31.3-1.7 40-.8 22.2-.7 23 .2 2.5z"/><path class="st3" d="M241.5 572l3.8 1.8 54.7-.3 237.3-1.2 56-.5 2.7-1.3 14.5 31.3-.7 2.5-.8 3.5-.5 4.2-.7 5-.5 5.5-.5 5.8-.3 6v11.2l.3 5 .5 4.8.5 4.5 1 4 1 3.5 1.5 3 .7 1 .8 1h1l.7-.5.5-.5.5-.8.8-1.7.5-2 .5-2.3 1-2 .7-1 .8-.7 1-.5 1.2-.5 1 1.7.8 1.8 1.5 4.5 1.7 5.2 1.8 5.3 1.7 4.7 1.3 2.3 1.2 2 1.3 1.7 1.5 1.3 1.5 1 1.7.5h1.8l1.7-.3 1.5-.2 1.8-.8 1.5-.7 1.7-1 3-2.3 2.5-2.7 2.3-2.8 1.7-3 1-3 .8-2.5.5-3.2.2-3.8.3-4.2-.3-9.8-.5-11-1.2-11.7-1-6.3-1-6.2-1.3-6.3-1.5-6.2-1.5-6.3-1.7-6-5.5-18.7 3.5-1 133.2 1.2.8 184.8h-234l-1.8.5-36-155H330L293.8 760l-.5-.2h-228L66 573h124.3l2 .5-5.5 18.8-2.3 8.2-2 8-1.7 8.5-1.3 8.3-1 8-1 7.7-.5 7.5-.2 7 .2 6.3.3 5.7.5 4.8.7 3.7 1 2.8 1.8 3 2.2 3 2.8 2.7 2.7 2.3 1.8 1 1.5.7 1.7.5 1.5.5 1.8.3 1.7-.3 1.3-.2 1.5-.5 1-1 1.2-1 1-1.3.8-1.5 1.7-3.2 1.3-3 1.2-3.3 2-6.5 2-6 1-2.2 1-2 1.3.2 1 .8 1 .7.5.8 1 2 .5 2.2.5 2 .7 2 .5.8.5.5.8.2 1 .3.7-1 .8-1.3 1.5-3 1-3.2 1-4.3.5-4.2.5-4.8.2-5 .3-5.2-.3-6-.2-6.3-.5-5.7-.5-5.5-.5-5-.8-4.3-.7-3.5-.8-2.5z"/><path class="st1" d="M615.3 461.3l6.7 26 8.3 30.2 15.5 55.3 5.5 18.7 1.7 6 1.5 6.3 1.5 6.2 1.3 6.3 1 6.2 1 6.3 1.2 11.7.5 11 .3 9.8-.3 4.2-.2 3.8-.5 3.2-.8 2.5-1 3-1.7 3-2.3 2.8-2.5 2.7-3 2.3-1.7 1-1.5.7-1.8.8-1.5.2-1.7.3H639l-1.7-.5-1.5-1-1.5-1.3-1.3-1.7-1.2-2-1.3-2.3-1.7-4.7-1.8-5.3-1.7-5.2-1.5-4.5-.8-1.8-1-1.7-1.2.5-1 .5-.8.7-.7 1-1 2-.5 2.3-.5 2-.8 1.7-.5.8-.5.5-.7.5h-1l-.8-1-.7-1-1.5-3-1-3.5-1-4-.5-4.5-.5-4.8-.3-5v-11.2l.3-6 .5-5.8.5-5.5.7-5 .5-4.2.8-3.5.7-2.5-14.5-31.3-60.5-129.7 63.5-29.3 4.8 13 4.5 13 3.7 12.3z"/><path class="st2" d="M533.3 435.8l2.2 5-2 1zM589.8 258.5v129l-7.3-17-7-16-6.5-15-6-13.2-9.2-19.3-3.5-7.5-5.5-4.7-6-5-7-5-7.5-5.3-8-5-8.3-5-8.2-4.7-8-4.5-10.3-5.5-9-4.8-14.2-7.2.2-.5h121.8l1 .2 1 .5 1 .5 1.7 1.5 1.5 2 1.5 2.5 1 2.8.5 3z"/><path class="st4" d="M547.5 758.3l5.3 21.7H289l4.8-20L330 603.3h181.5z"/><path class="st1" d="M452.5 240l-3.5 2-3.7 1.8-4 1.7-4 1.3-4 1-4 .7-4.3.5h-8.7l-4.5-.7-4.5-.8-4.5-1.2-4.3-1.5-4-1.8-4-2.2-4-2.5-4-3-4-3.3-3.7-3.5-3.5-4-3.3-4.2-3.2-4.5-2.8-4.8-2.7-4.7-2.3-5.3-2-5.2-1.7-5.8-1.5-5.5-1.3-6-.7-6-.8-6.2v-10.8l.3-4.5.5-4.5.7-4.5.8-4.2 1-4.3 1-4 1.2-4.2 1.5-3.8 1.5-4 1.8-3.7 2-3.5 2-3.5 2-3.5 2.2-3.3 2.5-3 2.5-3 2.5-2.7 2.8-2.5 3-2.5 2.7-2.5 3-2 3.3-2 3-1.8 3.2-1.7 3.5-1.3 3.3-1.2 3.5-1 3.7-.8 3.5-.5 3.8-.5h7.2l3.8.5 3.5.5 3.5.8 3.5 1 3.5 1.2 3.2 1.3 3.3 1.7 3.2 1.8 3 2 3 2 3 2.5 2.8 2.5 2.7 2.5 2.8 2.7 2.5 3 2.2 3 2.3 3.3 2.2 3.5 2 3.5 1.8 3.5 1.7 3.7 1.8 4 1.2 3.8 1.3 4.2 1.2 4 1 4.3.8 4.2.7 4.5.3 4.5.5 4.5v4.5l-.3 6.5-.5 6.5-1 6.3-1.2 6-1.5 6-2 5.7-2.3 5.5-2.5 5.3-2.7 5-3 4.7-3.3 4.5-3.7 4.3-3.8 4-4 3.5-4 3.2z"/><path class="st2" d="M381 242.3l.5.5L367 250l-9.7 5.3-11 5.7-8 4.5-8.3 5-8.2 4.8-7.8 5.2-7.7 5-6.8 5-6.2 5-5.3 5-3.2 6.3-8 17.2-11.5 25-6.5 14.8-6.5 15.5-.3-.3V258.5l.3-3.2.5-3 1-2.8 1.2-2.5 1.5-2 2-1.5 1-.5 1-.5 1-.2h1z"/><path class="st1" d="M176.8 655.5l30.7 28.3-1.7 3.2-.8 1.5-1 1.3-1.2 1-1 1-1.5.5-1.3.2-1.7.3-1.8-.3-1.5-.5-1.7-.5-1.5-.7-1.8-1-2.7-2.3-2.8-2.7-2.2-3-1.8-3-1-2.8-.7-3.7-.5-4.8-.3-5.7z"/><path class="st5" d="M649.3 571.8l133.2 1.2M245.3 573.8l54.7-.3 237.3-1.2 56-.5M66 573h124.3"/><path class="st5" d="M299.8 571l.7-23 .8-22.2 1.7-40 1.5-31.3 1.3-19.2.2-4.5-1.7 4L241.5 572l-14 30.5.8 2.5.7 3.5.8 4.3.5 5 .5 5.5.5 5.7.2 6.3.3 6-.3 5.2-.2 5-.5 4.8-.5 4.2-1 4.3-1 3.2-1.5 3-.8 1.3-.7 1-1-.3-.8-.2-.5-.5-.5-.8-.7-2-.5-2-.5-2.2-1-2-.5-.8-1-.7-1-.8-1.3-.2-1 2-1 2.2-2 6-2 6.5-1.2 3.3-1.3 3-1.7 3.2-.8 1.5-1 1.3-1.2 1-1 1-1.5.5-1.3.2-1.7.3-1.8-.3-1.5-.5-1.7-.5-1.5-.7-1.8-1-2.7-2.3-2.8-2.7-2.2-3-1.8-3-1-2.8-.7-3.7-.5-4.8-.3-5.7-.2-6.3.2-7 .5-7.5 1-7.7 1-8 1.3-8.3 1.7-8.5 2-8 2.3-8.2"/><path class="st5" d="M239 412.3l65.3 22.5 1.5.5 1.5.5M386.5 238.3l-4-3-4-3.3-3.7-3.5-3.5-4-3.3-4.2-3.2-4.5-2.8-4.8-2.7-4.7-2.3-5.3-2-5.2-1.7-5.8-1.5-5.5-1.3-6-.7-6-.8-6.2v-10.8l.3-4.5.5-4.5.7-4.5.8-4.2 1-4.3 1-4 1.2-4.2 1.5-3.8 1.5-4 1.8-3.7 2-3.5 2-3.5 2-3.5 2.2-3.3 2.5-3 2.5-3 2.5-2.7 2.8-2.5 3-2.5 2.7-2.5 3-2 3.3-2 3-1.8 3.2-1.7 3.5-1.3 3.3-1.2 3.5-1 3.7-.8 3.5-.5 3.8-.5h7.2l3.8.5 3.5.5 3.5.8 3.5 1 3.5 1.2 3.2 1.3 3.3 1.7 3.2 1.8 3 2 3 2 3 2.5 2.8 2.5 2.7 2.5 2.8 2.7 2.5 3 2.2 3 2.3 3.3 2.2 3.5 2 3.5 1.8 3.5 1.7 3.7 1.8 4 1.2 3.8 1.3 4.2 1.2 4 1 4.3.8 4.2.7 4.5.3 4.5.5 4.5v4.5l-.3 6.5-.5 6.5-1 6.3-1.2 6-1.5 6-2 5.7-2.3 5.5-2.5 5.3-2.7 5-3 4.7-3.3 4.5-3.7 4.3-3.8 4-4 3.5-4 3.2-4.5 3-3.5 2-3.7 1.8-4 1.7-4 1.3-4 1-4 .7-4.3.5h-8.7l-4.5-.7-4.5-.8-4.5-1.2-4.3-1.5-4-1.8-4-2.2z"/><path class="st5" d="M590.3 389l-.5-1.5-7.3-17-7-16-6.5-15-6-13.2-9.2-19.3-3.5-7.5-5.5-4.7-6-5-7-5-7.5-5.3-8-5-8.3-5-8.2-4.7-8-4.5-10.3-5.5-9-4.8-14.2-7.2-5.8-2.8-.2-.2M651.3 591.5l-5.5-18.7-15.5-55.3-8.3-30.2-6.7-26-3.3-11.5-3.7-12.3-4.5-13-4.8-13-4.2-11.2-4.5-11.3M537.3 567.8l-1-42.8-1.3-36.7-1.5-46.5-.2-6 2.2 5L596 570.5l14.5 31.3-.7 2.5-.8 3.5-.5 4.2-.7 5-.5 5.5-.5 5.8-.3 6v11.2l.3 5 .5 4.8.5 4.5 1 4 1 3.5 1.5 3 .7 1 .8 1h1l.7-.5.5-.5.5-.8.8-1.7.5-2 .5-2.3 1-2 .7-1 .8-.7 1-.5 1.2-.5 1 1.7.8 1.8 1.5 4.5 1.7 5.2 1.8 5.3 1.7 4.7 1.3 2.3 1.2 2 1.3 1.7 1.5 1.3 1.5 1 1.7.5h1.8l1.7-.3 1.5-.2 1.8-.8 1.5-.7 1.7-1 3-2.3 2.5-2.7 2.3-2.8 1.7-3 1-3 .8-2.5.5-3.2.2-3.8.3-4.2-.3-9.8-.5-11-1.2-11.7-1-6.3-1-6.2-1.3-6.3-1.5-6.2-1.5-6.3-1.7-6"/><path class="st5" d="M599 411.5l-63.5 29.3-2 1h-.2M186.8 592.3l5.5-18.8 15.5-55 8.2-30.2 7-26.3 3-11.5 3.8-12.2 4.5-12.8 4.7-13.2 6.5-16.5 6.8-16.5 6.5-15.5 6.5-14.8 11.5-25 8-17.2 3.2-6.3 5.3-5 6.2-5 6.8-5 7.7-5 7.8-5.2 8.2-4.8 8.3-5 8-4.5 11-5.7 9.7-5.3 14.5-7.2 4.3-2M547.5 758.3l5.3 21.7H289l4.8-20L330 603.3h181.5zM145.8 626.8l31 28.7 30.7 28.3 12.5 11.5M458.5 242.3h121.8l1 .2 1 .5 1 .5 1.7 1.5 1.5 2 1.5 2.5 1 2.8.5 3 .3 3.2v130.8"/><path class="st5" d="M252 379V258.5l.3-3.2.5-3 1-2.8 1.2-2.5 1.5-2 2-1.5 1-.5 1-.5 1-.2H381"/></svg>