<svg xmlns="http://www.w3.org/2000/svg" width="850.394" height="850.394" viewBox="0 0 850.394 850.394" overflow="visible"><path d="M197.47 526.96c3.75 0 6.8 2.71 6.8 6.06 0 3.351-3.05 6.061-6.8 6.061s-6.8-2.71-6.8-6.061c0-3.35 3.05-6.06 6.8-6.06zM353.11 526.91c3.75 0 6.79 2.71 6.79 6.06 0 3.351-3.04 6.07-6.79 6.07s-6.8-2.72-6.8-6.07 3.05-6.06 6.8-6.06z" fill="#231f20"/><path d="M178.84 528.9l-5.46-1.44c6.95-4.28 14.78-6.84 23.35-6.66 8.2.19 16.59 3.3 23.28 8.351l-3.64 4.22c0 9.939-8.43 17.99-18.83 17.99s-18.85-8.051-18.85-17.99c0-2.081-.11-3.301.15-4.471zm25.43 4.12c0-3.35-3.05-6.06-6.8-6.06s-6.8 2.71-6.8 6.06c0 3.351 3.05 6.061 6.8 6.061s6.8-2.711 6.8-6.061zM372.49 524.26l-.93 3.01c.67 1.58.48 2.83.48 5.54 0 9.94-8.44 17.99-18.82 17.99-10.41 0-18.84-8.05-18.84-17.99 0-1.399-.2-2.029-.23-2.619l-5.37-.03c6.96-5.97 16.21-9.71 25.24-9.92 6.61-.141 12.79 1.359 18.47 4.019zm-12.59 8.71c0-3.35-3.04-6.06-6.79-6.06s-6.8 2.71-6.8 6.06c0 3.351 3.05 6.07 6.8 6.07s6.79-2.72 6.79-6.07z" fill="#fff"/><path d="M453.76 501.95c16.471 4.55 13.87 24.689 8.82 34.979-12.88 26.28-6.99 35.95-8.62 56-.63 7.62-9.33 22.431-27.479 18.971l-.971-.28c6.48-22.59 10.3-46.39 10.3-70.58 0-13.33-.17-22.68-.569-38.45h.24l1.859-.01c4.15-1.49 8.79-1.99 13.851-1.19.899.15 1.759.33 2.569.56zM118.24 613.32l-1.68.489c-18.16 3.46-26.85-11.35-27.48-18.97-1.63-20.05 4.26-29.72-8.62-56.01-5.3-10.79-7.89-32.43 11.38-35.53 5.07-.8 9.71-.29 13.86 1.181l2.2.02c-.12 13.91-.13 28.32-.13 36.54 0 24.82 3.87 49.2 10.47 72.28z" fill="#ffeec8"/><path d="M220.01 529.15c-6.69-5.051-15.08-8.16-23.28-8.351-8.57-.18-16.4 2.38-23.35 6.66l5.46 1.44c-.26 1.17-.15 2.39-.15 4.47 0 9.939 8.45 17.99 18.85 17.99s18.83-8.051 18.83-17.99l3.64-4.219zm59.04 122.77c-.01-.01-.01-.01-.01 0-.24.04-.49.08-.74.12l1.6-.1c-.29 0-.58-.01-.85-.02zm93.44-127.66c-5.68-2.66-11.86-4.16-18.47-4.02-9.03.21-18.28 3.95-25.24 9.92l5.37.03c.03.59.23 1.22.23 2.619 0 9.94 8.43 17.99 18.84 17.99 10.38 0 18.82-8.05 18.82-17.99 0-2.71.19-3.96-.48-5.54l.93-3.009zm62.75-21.67c.399 15.771.569 25.12.569 38.45 0 24.19-3.819 47.99-10.3 70.58-20.03 69.89-65.46 128.3-101.73 151.42-17.81 8.6-31.39 7.37-51.99 7.37-19.05 0-31.25 1.899-47.95-5.5-39.16-21.94-85.3-80.65-105.6-151.59-6.6-23.08-10.47-47.46-10.47-72.28 0-8.22.01-22.63.13-36.54.07-7.79.16-15.43.31-21.74l-1.69-1.319c17.91-22.931 43.75-49.57 43.75-49.57 14.47-10.62 128.35-48.17 162.11-71.74.38.33 1.11.64 2.04.9 7.52 4.67 37.79 25.49 77.75 80.67 7.44 10.26 36.42 33.02 43.04 59.72l.031 1.169z" fill="#ffeec8"/><path d="M437.34 502.58l-1.859.01c-.08-.39-.171-.78-.271-1.17-6.62-26.7-35.6-49.46-43.04-59.72-39.96-55.18-70.23-76-77.75-80.67-1.19-.73-1.81-1.06-1.81-1.06-.08.05-.15.11-.23.16-33.76 23.57-147.64 61.12-162.11 71.74 0 0-25.84 26.64-43.75 49.57-6.44 8.229-11.86 15.989-14.68 21.859l-1.69-54.64c0-87.19 71.16-137.79 71.16-137.79 8.23-5.59 13.73-8.4 13.73-8.4 36.29-21.59 83.23-29.2 143.09-22.23 72.29 8.43 127.76 80.42 138.33 170.04 1.58 13.42-.41 36.13-2.7 51.67-.81-.23-1.67-.41-2.569-.561-5.061-.798-9.701-.298-13.851 1.192z" fill="#9c5c25"/><path d="M634.3 79.28c76.08 0 137.771 65.54 137.771 146.39 0 80.86-61.69 146.4-137.771 146.4-74.16 0-134.63-62.24-137.66-140.25 15.641-6.49 26.721-22.66 26.721-41.57 0-12.07-4.511-23.03-11.851-31.05 22.79-47.44 69.22-79.92 122.79-79.92z" fill="#fff"/><path d="M511.51 159.2c7.34 8.02 11.851 18.98 11.851 31.05 0 18.91-11.08 35.08-26.721 41.57-.08-2.04-.12-4.09-.12-6.15 0-23.94 5.41-46.53 14.99-66.47z" fill="#fff"/><path d="M481.39 145.65c11.82 0 22.5 5.19 30.12 13.55-9.58 19.94-14.99 42.53-14.99 66.47 0 2.06.04 4.11.12 6.15a39.887 39.887 0 0 1-15.25 3.03c-23.18 0-41.979-19.97-41.979-44.6s18.799-44.6 41.979-44.6zM400.76 220.11c14.29 0 25.86 12.3 25.86 27.48s-11.57 27.48-25.86 27.48-25.87-12.3-25.87-27.48 11.58-27.48 25.87-27.48z" fill="#fff"/><g fill="none" stroke="#231f20"><path d="M511.51 159.2c22.79-47.44 69.221-79.92 122.79-79.92 76.08 0 137.771 65.54 137.771 146.39 0 80.86-61.69 146.4-137.771 146.4-74.16 0-134.63-62.24-137.66-140.25" stroke-width="14"/><path d="M511.51 159.2c7.34 8.02 11.851 18.98 11.851 31.05 0 18.91-11.08 35.08-26.721 41.57a39.887 39.887 0 0 1-15.25 3.03c-23.18 0-41.979-19.97-41.979-44.6s18.8-44.6 41.979-44.6c11.82 0 22.5 5.19 30.12 13.55zM426.62 247.59c0 15.18-11.57 27.48-25.86 27.48s-25.87-12.3-25.87-27.48 11.58-27.48 25.87-27.48c14.29 0 25.86 12.3 25.86 27.48z" stroke-width="14"/><path d="M157.65 541.46c4.53-5.479 9.81-10.36 15.73-14 6.95-4.28 14.78-6.84 23.35-6.66 8.2.19 16.59 3.3 23.28 8.351 4.01 3.02 7.41 6.75 9.79 10.96" stroke-width="7" stroke-linecap="square" stroke-miterlimit="10"/><path d="M216.37 533.37c0 9.939-8.43 17.99-18.83 17.99s-18.85-8.051-18.85-17.99c0-2.08-.11-3.3.15-4.47.05-.21.1-.42.18-.641M393.1 540.89c-5.74-6.93-12.68-12.909-20.61-16.63-5.68-2.66-11.86-4.16-18.47-4.02-9.03.21-18.28 3.95-25.24 9.92-3.16 2.71-5.85 5.88-7.84 9.39" stroke-width="7" stroke-linecap="square" stroke-miterlimit="10"/><path d="M334.15 530.19c.03.59.23 1.22.23 2.619 0 9.94 8.43 17.99 18.84 17.99 10.38 0 18.82-8.05 18.82-17.99 0-2.71.19-3.96-.48-5.54" stroke-width="7" stroke-linecap="square" stroke-miterlimit="10"/><path d="M105.7 504.48c-4.15-1.471-8.79-1.98-13.86-1.181-19.27 3.101-16.68 24.74-11.38 35.53 12.88 26.29 6.99 35.96 8.62 56.01.63 7.62 9.32 22.43 27.48 18.97M437.34 502.58c4.15-1.49 8.79-1.99 13.851-1.19.899.15 1.76.33 2.569.561 16.471 4.55 13.87 24.689 8.82 34.979-12.88 26.28-6.99 35.95-8.62 56-.63 7.62-9.33 22.431-27.479 18.971M233.34 709.68c23.69-15.39 61.3-13.6 81.46.74" stroke-width="14"/><path d="M435.16 499.35c.02.7.04 1.391.05 2.07l.03 1.17c.399 15.771.569 25.12.569 38.45 0 24.19-3.819 47.99-10.3 70.58-20.03 69.89-65.46 128.3-101.73 151.42-17.81 8.6-31.39 7.37-51.99 7.37-19.05 0-31.25 1.899-47.95-5.5-39.16-21.94-85.3-80.65-105.6-151.59-6.6-23.08-10.47-47.46-10.47-72.28 0-8.22.01-22.63.13-36.54.07-7.79.16-15.43.31-21.74" stroke-width="14"/><path d="M279.05 651.92c8.95-1.67 7.36-6.979 16.97-4.65 8.31 2.011 17.13 6.16 19.19-6.829 1.43-8.94-5.28-10.11-8.86-17.29" stroke-width="14"/><path d="M250.93 540.49c14.9 16.35 10.39 54.77 3.72 74.77l-2.8 7.79c-3.57 7.181-10.29 8.351-8.86 17.29 2.06 12.99 10.88 8.84 19.18 6.84 9.6-2.319 7.42 4.36 16.87 4.74 0-.01 0-.01.01 0 .27.01.56.021.85.021l-1.6.1c.25-.04.5-.08.74-.12" stroke-width="14"/><path d="M204.27 533.02c0 3.351-3.05 6.061-6.8 6.061s-6.8-2.71-6.8-6.061c0-3.35 3.05-6.06 6.8-6.06s6.8 2.71 6.8 6.06zM359.9 532.97c0 3.351-3.04 6.07-6.79 6.07s-6.8-2.72-6.8-6.07 3.05-6.06 6.8-6.06 6.79 2.71 6.79 6.06z" stroke-width="6.305"/><path d="M241.05 510.47c-8.04-16.93-39.49-23.529-55.41-20.35-14.96 2.99-22.38 4.78-37.99 16.89M306.22 506.76c8.04-16.92 39.5-23.52 55.41-20.35 14.99 2.99 22.4 4.78 38 16.87" stroke-width="14"/><path d="M453.17 505.75c.2-1.21.39-2.48.59-3.8 2.29-15.54 4.28-38.25 2.7-51.67-10.57-89.62-66.04-161.61-138.33-170.04-59.86-6.97-106.8.64-143.09 22.23 0 0-5.5 2.81-13.73 8.4 0 0-71.16 50.6-71.16 137.79l1.69 54.64c2.82-5.87 8.24-13.63 14.68-21.859 17.91-22.931 43.75-49.57 43.75-49.57 14.47-10.62 128.35-48.17 162.11-71.74.08-.05.15-.11.23-.16 0 0 .62.33 1.81 1.06 7.52 4.67 37.79 25.49 77.75 80.67 7.44 10.26 36.42 33.02 43.04 59.72.1.39.19.78.271 1.17.55 2.43.899 4.88 1.029 7.36" stroke-width="14"/><path d="M325.77 362.49c-1.67.01-7.9-.47-11.35-1.46-.93-.26-1.66-.57-2.04-.9a.908.908 0 0 1-.26-.36c10.35-10.08 18.52-26.53 18.52-43.21" stroke-width="14"/><path stroke-width="21" stroke-linecap="round" stroke-linejoin="round" d="M569.34 155.76l66.39 65.78 71.72 71.07"/><path stroke-width="21" stroke-linecap="round" stroke-linejoin="round" d="M563.81 294.12l71.92-72.58 64.93-65.53"/></g><path fill="none" d="M0 0h850.394v850.394H0z"/></svg>