<?xml version="1.0" encoding="iso-8859-1"?>
<!-- Generator: Adobe Illustrator 12.0.1, SVG Export Plug-In . SVG Version: 6.00 Build 51448)  -->
<!DOCTYPE svg PUBLIC "-//W3C//DTD SVG 1.1//EN" "http://www.w3.org/Graphics/SVG/1.1/DTD/svg11.dtd" [
	<!ENTITY ns_svg "http://www.w3.org/2000/svg">
	<!ENTITY ns_xlink "http://www.w3.org/1999/xlink">
]>
<svg  version="1.1" id="Layer_1" xmlns="&ns_svg;" xmlns:xlink="&ns_xlink;" width="850.394" height="850.394"
	 viewBox="0 0 850.394 850.394" style="overflow:visible;enable-background:new 0 0 850.394 850.394;" xml:space="preserve">
<g>
	<path style="fill:#50264C;" d="M638,576.394v42.29c0,0-5.252,9.158-24.406,14.138c-18.729,4.869-30.844,3.917-30.844,3.917
		s-30.313,0.111-44.007-12.862s-16.69-39.516-16.69-39.516c-26.344,41.281-65.078,61.922-116.203,61.922
		c-33.125,0-63.579-9.125-91.36-27.367c-27.781-18.25-49.297-43.727-64.555-76.438s-22.883-70.313-22.883-112.805
		c0-41.438,6.891-79.039,20.68-112.797c13.781-33.758,34.461-59.633,62.031-77.617s58.391-26.977,92.469-26.977
		c24.969,0,47.211,5.258,66.719,15.766c19.508,10.516,35.375,24.203,47.602,41.07v-47.095h70.5v349.911
		c0,0-0.813,15.146,17.673,17.667C630.266,593.083,638,576.394,638,576.394z M299.552,429.478
		c0,53.203,11.195,92.969,33.602,119.305c22.398,26.336,48.836,39.5,79.321,39.5c30.734,0,56.852-12.578,78.344-37.742
		c21.484-25.164,32.234-63.563,32.234-115.195c0-56.844-10.945-98.563-32.82-125.164c-21.883-26.594-48.844-39.898-80.883-39.898
		c-31.266,0-57.375,12.781-78.344,38.336S299.552,374.462,299.552,429.478z"/>
</g>
<rect style="fill:none;" width="850.394" height="850.394"/>
</svg>
