<?xml version="1.0" encoding="iso-8859-1"?>
<!-- Generator: Adobe Illustrator 12.0.1, SVG Export Plug-In . SVG Version: 6.00 Build 51448)  -->
<!DOCTYPE svg PUBLIC "-//W3C//DTD SVG 1.1//EN" "http://www.w3.org/Graphics/SVG/1.1/DTD/svg11.dtd" [
	<!ENTITY ns_svg "http://www.w3.org/2000/svg">
	<!ENTITY ns_xlink "http://www.w3.org/1999/xlink">
]>
<svg  version="1.1" id="Layer_1" xmlns="&ns_svg;" xmlns:xlink="&ns_xlink;" width="850.394" height="850.394"
	 viewBox="0 0 850.394 850.394" style="overflow:visible;enable-background:new 0 0 850.394 850.394;" xml:space="preserve">
<rect style="fill:none;" width="850.394" height="850.394"/>
<g>
	<g id="XMLID_5_">
		<g>
			<path style="fill:#C8C8C8;" d="M803.733,61.164v188.26c0,5.567-4.515,10.082-10.082,10.082H538.945
				c-5.567,0-10.082-4.515-10.082-10.082V61.164c0-5.567,4.515-10.078,10.082-10.078h254.706
				C799.219,51.085,803.733,55.596,803.733,61.164z M774.909,216.737V80.563c0-5.611-4.515-10.158-10.086-10.158H566.261
				c-5.567,0-10.082,4.547-10.082,10.158v136.175c0,5.611,4.515,10.162,10.082,10.162h198.563
				C770.395,226.899,774.909,222.348,774.909,216.737z M771.647,243.196c0-3.762-3.054-6.82-6.816-6.82
				c-3.762,0-6.815,3.058-6.815,6.82s3.054,6.816,6.815,6.816C768.594,250.012,771.647,246.958,771.647,243.196z M747.941,250.901
				v-15.409h-31.418v15.409H747.941z"/>
			<path style="fill:#231F20;" d="M764.831,236.376c3.763,0,6.816,3.058,6.816,6.82s-3.054,6.816-6.816,6.816
				c-3.762,0-6.815-3.054-6.815-6.816S761.069,236.376,764.831,236.376z"/>
			<path style="fill:#FFFFFF;" d="M756.118,114.882v31.966c0,5.155-4.179,9.333-9.333,9.333H704.66c0,0-13.228,20.796-24.081,18.319
				c0,0,9.385-8.849,8.853-26.139v-1.513v-31.966c0-5.155,4.179-9.337,9.334-9.337h48.02
				C751.939,105.545,756.118,109.728,756.118,114.882z"/>
			<rect x="716.523" y="235.492" style="fill:#231F20;" width="31.418" height="15.409"/>
			<path style="fill:#FFFFC2;" d="M670.801,135.054c-0.076-3.834,0.244-7.737-0.813-11.175
				c-6.508-21.168-23.073-36.101-40.896-34.948c-14.752,0.96-25.746,4.867-33.555,11.679c0,0-1.205,0.924-2.946,2.637
				c0,0-14.944,15.353-11.098,36.397l2.821,13.116c-4.519,1.605-2.938,6.712-1.185,9.085c4.271,5.775,3.273,8.369,4.555,13.131
				c0.488,1.817,3.237,5.007,7.468,3.37l0.385-0.188c8.028,16.226,21.756,28.36,32.178,31.931c4.363,1.048,7.221,0.052,11.819-0.789
				c4.975-0.909,8.305-1.208,12.223-4.07c7.732-7.18,16.126-23.286,17.879-41.04l0.244,0.024c4.534,0.032,5.979-3.922,5.795-5.792
				c-0.484-4.915-2.333-6.988-0.384-13.9c0.796-2.842,0.472-8.181-4.318-8.077c-0.032,0-0.068,0-0.101,0.004L670.801,135.054z
				 M774.909,80.563v136.175c0,5.611-4.515,10.162-10.086,10.162H566.261c-5.567,0-10.082-4.551-10.082-10.162V80.563
				c0-5.611,4.515-10.158,10.082-10.158h198.563C770.395,70.405,774.909,74.952,774.909,80.563z M756.118,146.849v-31.966
				c0-5.155-4.179-9.337-9.333-9.337h-48.02c-5.155,0-9.334,4.183-9.334,9.337v31.966v1.513c0.532,17.29-8.853,26.139-8.853,26.139
				c10.854,2.477,24.081-18.319,24.081-18.319h42.125C751.939,156.182,756.118,152.004,756.118,146.849z"/>
			<path style="fill:#FFEEC8;" d="M675.676,158.423c0.185,1.869-1.261,5.824-5.795,5.792l-0.244-0.024
				c0.564-5.739,0.44-11.651-0.629-17.49c-0.588-3.222-1.04-5.471-1.833-9.257l0.057-0.012l0.444-0.084
				c0.916-0.528,1.98-0.856,3.197-0.896c0.032-0.004,0.068-0.004,0.101-0.004c4.79-0.104,5.114,5.235,4.318,8.077
				C673.343,151.436,675.191,153.509,675.676,158.423z"/>
			<path style="fill:#EE947D;" d="M651.218,185.715c-1.905,4.659-4.29,9.542-7.956,10.694c-2.798,0.885-7.329,2.682-12.275,1.021
				c-2.426-0.813-5.352-4.095-8.241-6.1c6.092,1.305,8.434-2.61,12.499-1.621c2.258,0.552,3.154-1.272,5.504-1.449
				C643.293,188.073,647.984,188.068,651.218,185.715z"/>
			<path style="fill:#FFEEC8;" d="M636.053,180.38c-0.056,0.024-0.111,0.044-0.172,0.064l0.385-0.096
				c-0.072,0.012-0.141,0.024-0.209,0.032C636.053,180.384,636.053,180.38,636.053,180.38z M651.33,185.631
				c-0.021-0.012-0.04-0.028-0.061-0.04c-0.016,0.04-0.031,0.084-0.052,0.124c-3.233,2.353-7.925,2.357-10.47,2.545
				c-2.35,0.176-3.246,2.001-5.504,1.449c-4.065-0.989-6.407,2.926-12.499,1.621c2.89,2.005,5.815,5.287,8.241,6.1
				c4.946,1.661,9.478-0.136,12.275-1.021c3.666-1.152,6.051-6.035,7.956-10.694C651.258,185.691,651.294,185.663,651.33,185.631z
				 M669.008,146.701c1.069,5.839,1.193,11.751,0.629,17.49c-1.753,17.754-10.146,33.859-17.879,41.04
				c-3.918,2.862-7.248,3.162-12.223,4.07c-4.599,0.84-7.456,1.837-11.819,0.789c-10.422-3.57-24.149-15.705-32.178-31.931
				c-2.614-5.279-4.623-10.994-5.72-16.986c-0.36-1.989-0.992-5.471-1.577-8.833c-0.328-1.885-0.64-3.734-0.884-5.259l-0.465-0.244
				c3.311-6.328,8.373-13.896,8.373-13.896c3.021-3.198,28.868-17.298,35.969-24.47c0.104,0.064,0.284,0.1,0.504,0.124h0.004
				c1.981,0.776,10.223,4.447,22.354,16.049c2.241,2.149,10.241,6.364,13.02,12.515c0.02,0.096,0.04,0.188,0.06,0.284
				C667.968,141.229,668.42,143.479,669.008,146.701z"/>
			<path style="fill:#FFEEC8;" d="M595.538,178.159l-0.385,0.188c-4.23,1.637-6.979-1.553-7.468-3.37
				c-1.281-4.763-0.284-7.356-4.555-13.131c-1.753-2.374-3.334-7.48,1.185-9.085c1.181-0.42,2.325-0.5,3.394-0.324l0.532-0.096
				c0.585,3.362,1.217,6.844,1.577,8.833C590.915,167.165,592.924,172.88,595.538,178.159z"/>
			<path style="fill:#9E5C26;" d="M667.231,137.432c-0.036-0.092-0.076-0.18-0.116-0.272c-2.778-6.151-10.778-10.366-13.02-12.515
				c-12.131-11.603-20.372-15.273-22.354-16.049h-0.004c-0.304-0.116-0.46-0.168-0.46-0.168c-0.016,0.016-0.028,0.028-0.044,0.044
				c-7.101,7.172-32.947,21.272-35.969,24.47c0,0-5.063,7.568-8.373,13.896c-1.192,2.269-2.157,4.382-2.577,5.923l-2.821-13.116
				c-3.847-21.044,11.098-36.397,11.098-36.397c1.741-1.713,2.946-2.637,2.946-2.637c7.809-6.812,18.803-10.718,33.555-11.679
				c17.822-1.153,34.388,13.78,40.896,34.948c1.057,3.438,0.736,7.34,0.813,11.175l0.072,1.396c-1.217,0.04-2.281,0.368-3.197,0.896
				L667.231,137.432z"/>
		</g>
		<g>
			<path style="fill:none;stroke:#231F20;stroke-width:8.4048;" d="M803.733,249.424c0,5.567-4.515,10.082-10.082,10.082H538.945
				c-5.567,0-10.082-4.515-10.082-10.082V61.164c0-5.567,4.515-10.078,10.082-10.078h254.706c5.567,0,10.082,4.511,10.082,10.078
				V249.424z"/>
			<path style="fill:none;stroke:#231F20;stroke-width:8.4048;" d="M774.909,216.737c0,5.611-4.515,10.162-10.086,10.162H566.261
				c-5.567,0-10.082-4.551-10.082-10.162V80.563c0-5.611,4.515-10.158,10.082-10.158h198.563c5.571,0,10.086,4.547,10.086,10.158
				V216.737z"/>
			<path style="fill:none;stroke:#231F20;stroke-width:2.8016;stroke-linecap:square;stroke-miterlimit:10;" d="M603.307,160.453
				c1.82-2.646,4.35-4.73,7.616-5.255c3.178-0.508,6.808,0.772,8.833,3.198"/>
			<path style="fill:none;stroke:#231F20;stroke-width:2.8016;stroke-linecap:square;stroke-miterlimit:10;" d="M657.689,150.231
				c-2.605-1.757-5.651-2.758-8.825-2.109c-3.157,0.652-6.1,3.13-7.132,6.12"/>
			<path style="fill:none;stroke:#231F20;stroke-width:5.6032;" d="M587.709,152.436c-1.068-0.176-2.213-0.096-3.394,0.324
				c-4.519,1.605-2.938,6.712-1.185,9.085c4.271,5.775,3.273,8.369,4.555,13.131c0.488,1.817,3.237,5.007,7.468,3.37"/>
			<path style="fill:none;stroke:#231F20;stroke-width:5.6032;" d="M667.676,137.347c0.916-0.528,1.98-0.856,3.197-0.896
				c0.032-0.004,0.068-0.004,0.101-0.004c4.79-0.104,5.114,5.235,4.318,8.077c-1.949,6.912-0.101,8.985,0.384,13.9
				c0.185,1.869-1.261,5.824-5.795,5.792"/>
			<path style="fill:none;stroke:#231F20;stroke-width:5.6032;" d="M667.011,136.663c0.036,0.168,0.068,0.332,0.104,0.496
				c0.02,0.096,0.04,0.188,0.06,0.284c0.793,3.786,1.245,6.036,1.833,9.257c1.069,5.839,1.193,11.751,0.629,17.49
				c-1.753,17.754-10.146,33.859-17.879,41.04c-3.918,2.862-7.248,3.162-12.223,4.07c-4.599,0.84-7.456,1.837-11.819,0.789
				c-10.422-3.57-24.149-15.705-32.178-31.931c-2.614-5.279-4.623-10.994-5.72-16.986c-0.36-1.989-0.992-5.471-1.577-8.833
				c-0.328-1.885-0.64-3.734-0.884-5.259"/>
			<path style="fill:none;stroke:#231F20;stroke-width:2.8016;" d="M636.057,180.38c2.086-0.801,1.474-2.013,3.895-1.874
				c2.094,0.12,4.402,0.729,4.331-2.497c-0.053-2.221-1.722-2.206-2.902-3.782"/>
			<path style="fill:none;stroke:#231F20;stroke-width:2.8016;" d="M624.354,154.717c4.318,3.294,4.927,12.768,4.198,17.886
				l-0.332,2.005c-0.549,1.889-2.113,2.469-1.381,4.566c1.072,3.038,3.021,1.649,4.935,0.805c2.214-0.989,1.981,0.72,4.278,0.4
				c0,0,0,0.004,0.004,0c0.068-0.008,0.137-0.02,0.209-0.032l-0.385,0.096c0.061-0.02,0.116-0.04,0.172-0.064"/>
			<path style="fill:none;stroke:#231F20;stroke-width:5.6032;" d="M620.645,147.91c-2.686-3.734-10.566-3.938-14.269-2.466
				c-3.482,1.377-5.195,2.137-8.429,5.748"/>
			<path style="fill:none;stroke:#231F20;stroke-width:5.6032;" d="M636.217,144.139c1.193-4.438,8.493-7.42,12.476-7.356
				c3.746,0.06,5.615,0.168,9.918,2.397"/>
			<path style="fill:none;stroke:#231F20;stroke-width:5.6032;" d="M631.742,108.595c1.981,0.776,10.223,4.447,22.354,16.049
				c2.241,2.149,10.241,6.364,13.02,12.515c0.04,0.092,0.08,0.18,0.116,0.272c0.239,0.56,0.432,1.136,0.572,1.729"/>
			<path style="fill:none;stroke:#231F20;stroke-width:5.6032;" d="M670.801,135.054c-0.076-3.834,0.244-7.737-0.813-11.175
				c-6.508-21.168-23.073-36.101-40.896-34.948c-14.752,0.96-25.746,4.867-33.555,11.679c0,0-1.205,0.924-2.946,2.637
				c0,0-14.944,15.353-11.098,36.397l2.821,13.116c0.42-1.541,1.385-3.654,2.577-5.923c3.311-6.328,8.373-13.896,8.373-13.896
				c3.021-3.198,28.868-17.298,35.969-24.47c0.016-0.016,0.028-0.028,0.044-0.044c0,0,0.156,0.052,0.46,0.168"/>
			<path style="fill:none;stroke:#231F20;stroke-width:5.6032;" d="M634.568,108.451c-0.404,0.076-1.949,0.236-2.826,0.144h-0.004
				c-0.22-0.024-0.4-0.06-0.504-0.124c-0.04-0.02-0.068-0.048-0.084-0.076c2.053-2.89,3.302-7.216,2.569-11.246"/>
			<path style="fill:none;stroke:#231F20;stroke-width:2.8016;" d="M621.284,190.938c0.028,0.008,0.061,0.02,0.089,0.024
				c0.479,0.156,0.937,0.276,1.372,0.368c6.092,1.305,8.434-2.61,12.499-1.621c2.258,0.552,3.154-1.272,5.504-1.449
				c2.545-0.188,7.236-0.192,10.47-2.545c0.04-0.024,0.076-0.052,0.112-0.084c0.152-0.108,0.3-0.229,0.444-0.353"/>
			<path style="fill:none;stroke:#231F20;stroke-width:2.8016;" d="M622.714,191.307c0.012,0.008,0.02,0.016,0.031,0.024
				c2.89,2.005,5.815,5.287,8.241,6.1c4.946,1.661,9.478-0.136,12.275-1.021c3.666-1.152,6.051-6.035,7.956-10.694
				c0.021-0.04,0.036-0.084,0.052-0.124"/>
			<path style="fill:none;stroke:#231F20;stroke-width:2.8016;" d="M617.742,194.296c1.245-0.772,2.594-1.958,3.631-3.334
				c1.236-1.645,2.037-3.566,1.704-5.403"/>
			<path style="fill:none;stroke:#231F20;stroke-width:2.8016;" d="M656.272,187.708c-1.561-0.308-3.401-1.025-4.942-2.077
				c-0.021-0.012-0.04-0.028-0.061-0.04c-1.545-1.073-2.77-2.481-3.077-4.175"/>
			<path style="fill:none;stroke:#231F20;stroke-width:5.6032;" d="M704.66,156.182h42.125c5.154,0,9.333-4.178,9.333-9.333v-31.966
				c0-5.155-4.179-9.337-9.333-9.337h-48.02c-5.155,0-9.334,4.183-9.334,9.337v31.966v1.513c0.532,17.29-8.853,26.139-8.853,26.139
				C691.433,176.978,704.66,156.182,704.66,156.182z"/>
			<path style="fill:none;stroke:#231F20;stroke-width:2.8016;" d="M594.321,213.059c-4.059-2.465-5.255-7.961-3.883-12.067"/>
			<path style="fill:none;stroke:#231F20;stroke-width:2.8016;" d="M588.918,215.108c-4.063-2.465-5.259-7.952-3.887-12.063"/>
			<path style="fill:none;stroke:#231F20;stroke-width:2.8016;" d="M669.997,86.262c4.727-0.472,8.993,3.186,10.365,7.292"/>
			<path style="fill:none;stroke:#231F20;stroke-width:2.8016;" d="M673.078,81.367c4.723-0.472,8.989,3.186,10.362,7.292"/>
		</g>
	</g>
</g>
<g id="XMLID_2_">
	<g>
		<path style="fill:#FFFFFF;" d="M58.665,256.506c0.592-0.354,0.5-1.734-0.215-3.083l-9.812-18.497
			c-0.707-1.34-1.759-2.137-2.359-1.775l-9.135,5.549c-0.584,0.354-0.5,1.743,0.215,3.075l9.812,18.497
			c0.699,1.34,1.767,2.138,2.359,1.776l4.449-2.696L58.665,256.506z"/>
		<path style="fill:#C8C8C8;" d="M213.487,570.714c-15.429,7.243-30.25,16.047-35.39,24.86
			c-12.217,20.913,25.209,46.669,17.111,150.786c-1.629,20.913-3.265,29.627-3.265,29.627c-3.25,1.743,42.367,20.322,42.367,20.322
			s24.441-46.464,48.06-56.05c37.096-15.061,182.475-26.158,194.699-17.436c12.217,8.714,29.328,35.735,29.328,35.735
			s26.262,8.541,18.731-37.479c-5.701-34.864-11.31-70.156-39.907-111.564c-17.772-25.731-39.916-46.439-60.815-57.505
			c-11.356-6.018-22.344-9.19-32.063-8.78l-0.169-4.159c-3.918,2.244-8.183,3.601-12.693,3.896l-57.949,3.807
			c4.887,2.614,8.329,7.933,8.536,14.205l0.715,20.897c0.007,0.205,0.007,0.411,0.007,0.616c0,8.871-6.562,16.212-14.914,16.541
			c-8.536,0.328-15.72-6.808-16.027-15.957l-0.715-20.889c-0.008-0.206-0.008-0.411-0.008-0.625c0-5.714,2.728-10.794,6.9-13.77
			l-49.066,3.222l0.153,2.713C257.113,553.729,234.716,560.742,213.487,570.714z"/>
		<path style="fill:#7A7878;" d="M299.126,561.564c0,0.214,0,0.419,0.008,0.625l0.715,20.889
			c0.307,9.149,7.491,16.285,16.027,15.957c8.352-0.329,14.914-7.67,14.914-16.541c0-0.205,0-0.411-0.007-0.616l-0.715-20.897
			c-0.208-6.272-3.649-11.591-8.536-14.205l-15.505,1.02C301.854,550.771,299.126,555.851,299.126,561.564z"/>
		<path style="fill:#FFFFFF;" d="M506.327,248.541l4.955,1.504c0.653,0.197,1.507-0.847,1.898-2.327l5.432-20.461
			c0.393-1.48,0.17-2.844-0.476-3.05l-10.104-3.066c-0.66-0.197-1.514,0.847-1.905,2.326l-5.425,20.454
			c-0.392,1.488-0.177,2.853,0.469,3.058L506.327,248.541z"/>
	</g>
	<g>
		<path style="fill:none;stroke:#231F20;stroke-width:15.7165;" d="M47.17,260.271c0.699,1.34,1.767,2.138,2.359,1.776l4.449-2.696
			l4.687-2.845c0.592-0.354,0.5-1.734-0.215-3.083l-9.812-18.497c-0.707-1.34-1.759-2.137-2.359-1.775l-9.135,5.549
			c-0.584,0.354-0.5,1.743,0.215,3.075L47.17,260.271z"/>
		<polyline style="fill:none;stroke:#231F20;stroke-width:16.69;stroke-linecap:round;stroke-linejoin:round;" points="
			53.225,257.888 53.978,259.351 213.487,570.714 230.237,603.416 		"/>
		<path style="fill:none;stroke:#231F20;stroke-width:15.7165;" d="M513.181,247.718c-0.392,1.48-1.245,2.524-1.898,2.327
			l-4.955-1.504l-5.156-1.562c-0.646-0.206-0.86-1.57-0.469-3.058l5.425-20.454c0.392-1.479,1.245-2.523,1.905-2.326l10.104,3.066
			c0.646,0.206,0.868,1.57,0.476,3.05L513.181,247.718z"/>
		<polyline style="fill:none;stroke:#231F20;stroke-width:16.69;stroke-linecap:round;stroke-linejoin:round;" points="
			506.765,246.929 506.327,248.541 424.406,552.012 416,583.136 		"/>
		<path style="fill:none;stroke:#231F20;stroke-width:22.2533;" d="M392.173,539.072c14.944-8.542,24.795-29.916,23.404-54.191
			l-10.472-182.576c-1.76-30.647-20.776-54.348-42.467-52.926l-127.668,8.385c-21.706,1.422-37.864,27.433-36.104,58.088
			l10.472,182.567c1.76,30.655,20.769,54.356,42.475,52.935l5.148-0.338l49.066-3.222l15.505-1.02l57.949-3.807
			C383.991,542.673,388.255,541.316,392.173,539.072z"/>
		<path style="fill:none;stroke:#231F20;stroke-width:16.69;" d="M306.026,547.795c-4.172,2.976-6.9,8.056-6.9,13.77
			c0,0.214,0,0.419,0.008,0.625l0.715,20.889c0.307,9.149,7.491,16.285,16.027,15.957c8.352-0.329,14.914-7.67,14.914-16.541
			c0-0.205,0-0.411-0.007-0.616l-0.715-20.897c-0.208-6.272-3.649-11.591-8.536-14.205c-2.251-1.217-4.802-1.85-7.491-1.743
			C311.067,545.147,308.324,546.15,306.026,547.795z"/>
		<path style="fill:none;stroke:#231F20;stroke-width:16.69;" d="M257.113,553.729c0,0-22.397,7.013-43.626,16.984
			c-15.429,7.243-30.25,16.047-35.39,24.86c-12.217,20.913,25.209,46.669,17.111,150.786c-1.629,20.913-3.265,29.627-3.265,29.627
			c-3.25,1.743,42.367,20.322,42.367,20.322s24.441-46.464,48.06-56.05c37.096-15.061,182.475-26.158,194.699-17.436
			c12.217,8.714,29.328,35.735,29.328,35.735s26.262,8.541,18.731-37.479c-5.701-34.864-11.31-70.156-39.907-111.564
			c-17.772-25.731-39.916-46.439-60.815-57.505c-11.356-6.018-22.344-9.19-32.063-8.78c-0.269,0.009-0.538,0.025-0.807,0.042"/>
	</g>
</g>
<path style="fill:none;stroke:#231F20;stroke-width:14;" d="M440.688,561.875C599.971,557.795,816.029,646.205,760,262"/>
</svg>
