<svg xmlns="http://www.w3.org/2000/svg" width="850.394" height="850.394" viewBox="0 0 850.394 850.394" overflow="visible"><path d="M548.91 593.86c13.38 27.17 15.2 32.159 1.06 55.88-5.37 9-10.17 16.89-14.5 24.18l-.779-.46c-15.82 2.63-40.601-15.82-40.601-15.82l-2.24-.069c3.98-8.221 8.2-14.41 11.2-18.9 7.37-11.07 12.12-20.56 4.22-23.72-7.909-3.17-33.739-25.311-50.079-49.55-16.351-24.261-17.921-36.381-36.9-37.44-25.31-1.41-46.94 46.62-73.28 70.64-30.05 27.42-37.95 27.94-44.81 40.591-3.31 6.13-10.96 16.51-19.95 26.779l-2.19-2-32.39-31.88c9.21-13.53 15.02-20.359 23.17-29.53 8.44-9.489 10.54-9.76 26.89-38.75 16.33-28.989 41.37-69.579 54.02-83.81 5.93-6.68 9.32-19.14 11.24-30.5L366 450s25.03 22.88 116.23 5.48l3.289.029c-.18 15.99 1.101 28.25 4.351 32.4 13.19 16.861 41.91 71.161 59.04 105.951z" fill="#8c469b"/><path d="M426.34 268.15l-.46-.1s1.26-6.3 6-24.75c1.021-3.94 2.44-8.84 4.14-14.17l1.381.44c-8.16 25.9.06 51.65 18.699 57.93 6.881 2.32 14.24 1.67 21.24-1.38l.41.94c-1.03 12.31 7.79 31.88 28.47 44.81l.931.88c-11.221 17.06-21.17 82.03-21.631 122.76l-3.289-.029C391.03 472.88 366 450 366 450l-3.01-.5c2.17-12.87 2.47-24.33 2.47-24.33s-4.21-93.83-1.58-119.66c.44-4.31 1.12-8.86 2.03-13.61l2.19.43c35.58 2.68 53.01-17.64 58.24-24.18z" fill="#8c469b"/><path d="M669.79 118.49c.31-.31.58-.57.81-.77 1.95-1.75 4.551 1.04 4.551 1.04.449 1.82.71 2.64-2.021 6.02-1.16 1.42-2.64 3.27-4.28 5.33 2.57-1.26 2.71-1.86 5.471.71 1.489 1.39-4.021 8.3-8.71 14.62-1.17 1.58-2.29 3.12-3.23 4.53-4.729 7.06-33.649 32.72-33.649 32.72l-3.931-.2c1.05-1.58 1.61-2.44 1.61-2.44l-20.49-14.97s8.7-10.31 8.55-14.42c-.16-4.13 2.681-12.69 4.851-16.54 2.16-3.84 6.67-10.12 7.79-12.86 1.01-2.4 7.05-.36 5.159 5.34-.279.81-.71 1.7-1.35 2.66 0 0-3.66 7.64-1.51 7.81.64.04 3.45-2.49 7.09-6.1 5.55-5.51 13.05-13.51 17.82-18.67 2.46-2.65 4.199-4.55 4.58-4.96 2.89-3.12 8.31 1.55 5.31 5.57l3.42-3.68c1.8-1.93 4.78 1.25 4.78 1.25 1.069 2.39.189 4.73-2.621 8.01zM499.16 108.94s26.6-28.06 33.82-32.56c1.43-.9 3.02-1.96 4.619-3.08 6.48-4.48 13.561-9.76 14.91-8.23 2.48 2.86 1.88 2.97.521 5.51 2.12-1.58 4.02-3 5.479-4.11 3.46-2.63 4.28-2.33 6.08-1.83 0 0 2.7 2.69.88 4.59-.21.22-.479.48-.8.78 3.37-2.7 5.75-3.51 8.1-2.36 0 0 3.08 3.09 1.091 4.82-.891.77-2.221 1.93-3.83 3.33 4.12-2.94 8.66 2.66 5.439 5.46-.43.37-2.38 2.04-5.109 4.41-5.311 4.61-13.561 11.83-19.25 17.2-3.721 3.52-6.341 6.24-6.32 6.89.09 2.15 7.86-1.26 7.86-1.26.97-.6 1.869-1.01 2.689-1.25 5.771-1.71 7.59 4.4 5.17 5.32-2.77 1.04-9.2 5.34-13.109 7.37-3.92 2.04-12.57 4.59-16.69 4.31-2.72-.2-8.28 3.4-11.729 5.85l-15.931-20.17c-.63.4-1.439.89-2.41 1.46l-1.48-2.45zM497.93 268.49c-5.729 8.19-12.949 14.33-20.59 17.63-7 3.05-14.359 3.7-21.24 1.38-18.64-6.28-26.859-32.03-18.699-57.93.14-.45.29-.9.439-1.35 8.88-26.35 31.45-42.53 50.4-36.14 18.97 6.39 27.14 32.93 18.27 59.28-2.14 6.36-5.08 12.13-8.58 17.13zM280.06 663.97l2.19 2c-9.56 10.931-20.63 21.74-29.6 27.181-17.39 10.55-12.12 22.14-12.12 22.14 1.58 24.25-12.65 16.34-23.2 18.45-10.54 2.109-7.38 13.18-25.83 17.93-18.44 4.74-24.77-13.71-13.18-24.25 7.75-7.04 26.36-27.07 49.56-64.5 8.35-13.479 14.6-23.21 19.79-30.83l32.39 31.879zM494.09 657.64s24.78 18.45 40.601 15.82l.779.46c-10.14 17.05-17.71 30.87-23.979 48.22-7.95 21.96.75 24.36 18.45 39.91 17.39 15.29-4.221 38.12-36.9 10.7-11.54-9.67-22.15-3.16-26.36-22.14-2.64-11.88 13.28-13.141 13.71-42.7.311-21.91 5.641-38.311 11.46-50.34l2.239.07z" fill="#ffeec8"/><path d="M605.92 165.08l20.49 14.97s-.561.86-1.61 2.44c-6.37 9.64-30.609 46.11-52.99 76.88-22.79 31.35-46.619 53.78-62.96 71.18-.569.61-1.14 1.34-1.699 2.2l-.931-.88c-20.68-12.93-29.5-32.5-28.47-44.81l-.41-.94c7.641-3.3 14.86-9.44 20.59-17.63 11.46-13.43 34.49-28.69 43.07-33.63 0 0 40.57-44.94 64.92-69.78zM518.98 130.1l1.829 2.32s-53.609 41.3-62.04 47.1c-6.63 4.55-16.529 29.98-22.75 49.61-1.699 5.33-3.119 10.23-4.14 14.17-4.74 18.45-6 24.75-6 24.75l.46.1c-5.23 6.54-22.66 26.86-58.24 24.18l-2.19-.43c4.53-23.71 14.85-52.48 30.66-82.34 18.97-35.84 39.01-62.2 39.01-62.2s50.5-27.33 65.06-35.97a83.73 83.73 0 0 0 2.41-1.46l15.931 20.17z" fill="#cb82b7"/><g fill="none" stroke="#231f20"><path d="M437.4 229.57c.14-.45.29-.9.439-1.35 8.88-26.35 31.45-42.53 50.4-36.14 18.97 6.39 27.14 32.93 18.27 59.28-2.14 6.36-5.08 12.13-8.58 17.13-5.729 8.19-12.949 14.33-20.59 17.63-7 3.05-14.359 3.7-21.24 1.38-18.639-6.28-26.859-32.03-18.699-57.93zM247.38 631.81l.29.28 32.39 31.88M494.09 657.64s24.78 18.45 40.601 15.82M366 450s25.03 22.88 116.23 5.48" stroke-width="14"/><path d="M496.95 269.67c.319-.39.64-.79.979-1.18 11.46-13.43 34.49-28.69 43.07-33.63 0 0 40.57-44.94 64.92-69.78l20.49 14.97s-.561.86-1.61 2.44c-6.37 9.64-30.609 46.11-52.99 76.88-22.79 31.35-46.619 53.78-62.96 71.18-.569.61-1.14 1.34-1.699 2.2-11.221 17.06-21.17 82.03-21.631 122.76-.18 15.99 1.101 28.25 4.351 32.4 13.189 16.859 41.91 71.16 59.04 105.95 13.38 27.17 15.2 32.159 1.06 55.88-5.37 9-10.17 16.89-14.5 24.18-10.14 17.05-17.71 30.87-23.979 48.22-7.95 21.96.75 24.36 18.45 39.91 17.39 15.29-4.221 38.12-36.9 10.7-11.54-9.67-22.15-3.16-26.36-22.14-2.64-11.88 13.28-13.141 13.71-42.7.311-21.91 5.641-38.311 11.46-50.34 3.98-8.221 8.2-14.41 11.2-18.9 7.37-11.07 12.12-20.56 4.22-23.72-7.909-3.17-33.739-25.311-50.079-49.55-16.351-24.261-17.921-36.381-36.9-37.44-25.31-1.41-46.94 46.62-73.28 70.64-30.05 27.42-37.95 27.94-44.81 40.591-3.31 6.13-10.96 16.51-19.95 26.779-9.56 10.931-20.63 21.74-29.6 27.181-17.39 10.55-12.12 22.14-12.12 22.14 1.58 24.25-12.65 16.34-23.2 18.45-10.54 2.109-7.38 13.18-25.83 17.93-18.44 4.74-24.77-13.71-13.18-24.25 7.75-7.04 26.36-27.07 49.56-64.5 8.35-13.479 14.6-23.21 19.79-30.83 9.21-13.53 15.02-20.359 23.17-29.53 8.44-9.489 10.54-9.76 26.89-38.75 16.33-28.989 41.37-69.579 54.02-83.81 5.93-6.68 9.32-19.14 11.24-30.5 2.17-12.87 2.47-24.33 2.47-24.33s-4.21-93.83-1.58-119.66c.44-4.31 1.12-8.86 2.03-13.61 4.53-23.71 14.85-52.48 30.66-82.34 18.97-35.84 39.01-62.2 39.01-62.2s50.5-27.33 65.06-35.97a83.73 83.73 0 0 0 2.41-1.46l15.931 20.17 1.829 2.32s-53.609 41.3-62.04 47.1c-6.63 4.55-16.529 29.98-22.75 49.61-1.699 5.33-3.119 10.23-4.14 14.17-4.74 18.45-6 24.75-6 24.75" stroke-width="14"/><path d="M427.67 266.5c-.29.33-.729.9-1.33 1.65-5.23 6.54-22.66 26.86-58.24 24.18M477.75 287.06c-1.03 12.31 7.79 31.88 28.47 44.81" stroke-width="14"/><path d="M570.36 85.67c2.729-2.37 4.68-4.04 5.109-4.41 3.221-2.8-1.319-8.4-5.439-5.46M551.11 102.87c5.689-5.37 13.939-12.59 19.25-17.2M555.34 107.25c-.82.24-1.72.65-2.689 1.25 0 0-7.771 3.41-7.86 1.26-.021-.65 2.6-3.37 6.32-6.89" stroke-width="7"/><path d="M516.01 132.31s1.21-.95 2.971-2.21c3.449-2.45 9.01-6.05 11.729-5.85 4.12.28 12.771-2.27 16.69-4.31 3.909-2.03 10.34-6.33 13.109-7.37 2.42-.92.601-7.03-5.17-5.32M537.6 73.3c6.48-4.48 13.561-9.76 14.91-8.23 2.48 2.86 1.88 2.97.521 5.51-.03.06-.061.11-.09.17M499.16 108.94s26.6-28.06 33.82-32.56c1.43-.9 3.02-1.96 4.619-3.08M564.64 70.04c-4.819 4.55-20.979 17.53-20.979 17.53" stroke-width="7"/><path d="M531.9 86.15s12.399-9.06 21.13-15.57c2.12-1.58 4.02-3 5.479-4.11 3.46-2.63 4.28-2.33 6.08-1.83 0 0 2.7 2.69.88 4.59-.21.22-.479.48-.8.78M564.64 70.04a.424.424 0 0 0 .03-.03c3.37-2.7 5.75-3.51 8.1-2.36 0 0 3.08 3.09 1.091 4.82-.891.77-2.221 1.93-3.83 3.33L542.6 99.63M654.32 112.3c2.46-2.65 4.199-4.55 4.58-4.96 2.89-3.12 8.31 1.55 5.31 5.57-.01.02-.02.03-.03.05M636.5 130.97c5.55-5.51 13.05-13.51 17.82-18.67M632.27 126.6c-.279.81-.71 1.7-1.35 2.66 0 0-3.66 7.64-1.51 7.81.64.04 3.45-2.49 7.09-6.1M605.92 165.08s8.7-10.31 8.55-14.42c-.16-4.13 2.681-12.69 4.851-16.54 2.16-3.84 6.67-10.12 7.79-12.86 1.01-2.4 7.05-.36 5.159 5.34M665.61 145.44c4.689-6.32 10.199-13.23 8.71-14.62-2.761-2.57-2.9-1.97-5.471-.71-.06.03-.13.06-.189.09M628.73 182.69s28.92-25.66 33.649-32.72c.94-1.41 2.061-2.95 3.23-4.53M669.75 118.53c-4.71 4.69-18.2 20.4-18.2 20.4" stroke-width="7"/><path d="M652.58 150.72s9.47-12.1 16.27-20.61c1.641-2.06 3.12-3.91 4.28-5.33 2.73-3.38 2.47-4.2 2.021-6.02 0 0-2.601-2.79-4.551-1.04-.229.2-.5.46-.81.77M669.75 118.53c.01-.01.02-.03.04-.04 2.81-3.28 3.69-5.62 2.62-8.01 0 0-2.98-3.18-4.78-1.25l-3.42 3.68c-8.22 8.85-24.75 26.67-24.75 26.67" stroke-width="7"/></g><path fill="none" d="M0 0h850.394v850.394H0z"/></svg>