<svg xmlns="http://www.w3.org/2000/svg" width="850.394" height="850.394" viewBox="0 0 850.394 850.394" overflow="visible"><path fill="none" d="M423.266 322.319h197.313v197.298H423.266z"/><circle cx="423.265" cy="470.292" r="21.438" fill="#5668af"/><circle cx="423.265" cy="420.967" r="21.438" fill="#5668af"/><circle cx="423.265" cy="371.643" r="21.438" fill="#5668af"/><circle cx="472.594" cy="322.319" r="21.438" fill="#5668af"/><circle cx="521.923" cy="322.319" r="21.438" fill="#5668af"/><circle cx="571.251" cy="322.319" r="21.438" fill="#5668af"/><circle cx="620.578" cy="371.644" r="21.438" fill="#5668af"/><circle cx="620.578" cy="420.969" r="21.438" fill="#5668af"/><circle cx="620.578" cy="470.294" r="21.438" fill="#5668af"/><circle cx="571.25" cy="519.617" r="21.438" fill="#5668af"/><circle cx="521.921" cy="519.617" r="21.438" fill="#5668af"/><circle cx="472.593" cy="519.617" r="21.438" fill="#5668af"/><circle cx="423.267" cy="322.319" r="21.438" fill="#5668af"/><circle cx="620.578" cy="322.319" r="21.438" fill="#5668af"/><circle cx="620.577" cy="519.617" r="21.438" fill="#5668af"/><circle cx="423.265" cy="519.616" r="21.438" fill="#5668af"/><path fill="none" stroke="#231f20" stroke-width="28" d="M263.217 80.109v684.026"/><path fill="none" d="M0 0h850.394v850.394H0z"/></svg>