<svg xmlns="http://www.w3.org/2000/svg" width="850.394" height="850.394" viewBox="0 0 850.394 850.394" overflow="visible"><path fill="#f6cc4b" d="M670.81 608.07l-2.99 170.49-29.13-.55 30.76-170.19h.01zM354.58 545.18l-.02.07-.54 86.48-9.25 140.859L318 772l-.22-.02 10.67-146.78-2.48-86.92 3.57-.101c0 .001 10 3.501 25.04 7.001z"/><path d="M325.97 538.28l2.48 86.92-10.67 146.78-.75 10.39-32.08-.54s11.42-129.44 5.44-174.58c-3.84-28.9-13.24-66.94-19.51-90.58l-1.19.311c-22.37-6.16-79.57-45.69-69.58-125.63 7.61-60.92 18.49-93.55 10.33-122.37-1.51-5.35-2.04-21.4-2.15-38.26 1.4 18.95 17.05 30.21 27.21 33.89 15.15 5.48 31.34-7.13 39.12-19.02l.76.11c-1.25 8.36-2.79 15.76-4.57 21.1-9.64 28.91.54 65.81 17.94 72.88 17.41 7.07 73.96 26.1 136.51 25.02 62.55-1.09 143.58-32.09 206.12-3.81 38.57 17.43 41.33 81.03 34.271 120.73-7.07 39.7-59.841 45.14-47.87 67.99 11.97 22.84 52.76 52.21 52.76 52.21l-1.08 6h-.01L638.69 778.01l-.79 4.36-26.641.55s18.49-145.75 16.311-156.63c-2.181-10.88-63.08-46.771-108.761-84.84-7.5-6.25-13.5-12.101-18.29-17.51l-1.3 1.189s-7.069 9.25-54.93 22.84c-29.35 8.34-65.86 2.771-89.71-2.79-15.04-3.5-25.04-7-25.04-7l-3.569.101z" fill="#9c5c25"/><path d="M267.99 198.55c5.07-.58 6.63-4.52 9.91-6.5l1-.02c.34 15.85-.99 36.74-3.52 53.67l-.76-.11c-7.78 11.89-23.97 24.5-39.12 19.02-10.16-3.68-25.81-14.94-27.21-33.89-.09-14.62.13-29.83.32-39.16l2.52.08c3.29 1.98 4.84 5.92 9.92 6.51 5.71.66-2.94-14.96-5.24-15.69-1.69-.54-5.01-1.22-5.01-1.66l-1.93-.1c.55-9.33 5.4-14.52 10.72-17.41 6.98-3.79 14.78-3.62 14.78-3.62s16.46-.98 28.91 2.33c6.07 1.62 11.18 4.26 12.97 8.54.93 2.22 1.6 5.81 2.05 10.35 0 .1.01.21.02.31l-.09.01c0 .44-3.31 1.12-5 1.66-2.31.73-10.96 16.34-5.24 15.68zm-23.6 41.16c2.45-.88 4.3-8.64 4.3-8.64s-11.53-.66-11.93-.66c0 0 1.67 5.31 2.16 6.42.49 1.11 3.03 3.77 5.47 2.88z" fill="#9c5c25"/><path d="M208.87 180.7c-.02.19-.03.39-.03.6-1.42-.6-3.12-.96-4.5-1.64-11.73-5.72-26.97-14.5-31.67-27.1-2.57-6.89-5.22-22.35-.11-29.25 6.85-9.26 22.59 4.79 28.85 8.79 6.09 3.89 9.61 6.67 11.92 13.66 1.92 5.83 3.84 11.47 6.11 16.62l.15.91c-5.32 2.89-10.17 8.08-10.72 17.41zM283.19 179.12c-1.47.72-3.29 1.08-4.77 1.76l-.12.01c-.45-4.54-1.12-8.13-2.05-10.35-1.79-4.28-6.9-6.92-12.97-8.54l4.81-.16c2.27-5.15 4.19-10.79 6.12-16.62 2.31-6.99 5.83-9.77 11.92-13.66 6.26-4 21.99-18.05 28.85-8.79 5.11 6.91 2.45 22.36-.12 29.25-4.7 12.6-19.94 21.38-31.67 27.1z" fill="#f6cc4b"/><g fill="none" stroke="#231f20"><path d="M482.91 479.99s-6.84 16.34 17.609 43.95c4.79 5.409 10.79 11.26 18.29 17.51 45.681 38.069 106.58 73.96 108.761 84.84 2.18 10.88-16.311 156.63-16.311 156.63l26.641-.55.79-4.36 30.76-170.189h.01l1.08-6s-40.79-29.37-52.76-52.21c-11.971-22.851 40.8-28.29 47.87-67.99 7.06-39.7 4.3-103.3-34.271-120.73-62.54-28.28-143.57 2.72-206.12 3.81-62.55 1.08-119.1-17.95-136.51-25.02-17.4-7.07-27.58-43.97-17.94-72.88 1.78-5.34 3.32-12.74 4.57-21.1 2.53-16.93 3.86-37.82 3.52-53.67-.09-3.97-.28-7.63-.58-10.83-.01-.1-.02-.21-.02-.31-.45-4.54-1.12-8.13-2.05-10.35-1.79-4.28-6.9-6.92-12.97-8.54-12.45-3.31-28.91-2.33-28.91-2.33s-7.8-.17-14.78 3.62c-5.32 2.89-10.17 8.08-10.72 17.41-.02.19-.03.39-.03.6-.02.39-.03.8-.03 1.21 0 0-.09 3.48-.2 9.05-.19 9.33-.41 24.54-.32 39.16.11 16.86.64 32.91 2.15 38.26 8.16 28.82-2.72 61.45-10.33 122.37-9.99 79.94 47.21 119.47 69.58 125.63" stroke-width="14"/><path d="M208.26 230.36l.03.36c1.4 18.95 17.05 30.21 27.21 33.89 15.15 5.48 31.34-7.13 39.12-19.02" stroke-width="13.052"/><path d="M268.09 161.84c2.27-5.15 4.19-10.79 6.12-16.62 2.31-6.99 5.83-9.77 11.92-13.66 6.26-4 21.99-18.05 28.85-8.79 5.11 6.91 2.45 22.36-.12 29.25-4.7 12.6-19.94 21.38-31.67 27.1-1.47.72-3.29 1.08-4.77 1.76" stroke-width="14"/><path d="M262.65 159.67c4.59-3.88 7.62-31.04 10.33-57.11.69-6.59.28-30.19-2.17-35.89" stroke-width="21" stroke-linecap="round" stroke-linejoin="round"/><path d="M219.44 162.38c-2.27-5.15-4.19-10.79-6.11-16.62-2.31-6.99-5.83-9.77-11.92-13.66-6.26-4-22-18.05-28.85-8.79-5.11 6.9-2.46 22.36.11 29.25 4.7 12.6 19.94 21.38 31.67 27.1 1.38.68 3.08 1.04 4.5 1.64.09.03.18.07.27.11" stroke-width="14"/><path d="M224.88 160.2c-4.59-3.87-7.61-31.03-10.33-57.1-.68-6.59-.28-30.19 2.18-35.89" stroke-width="21" stroke-linecap="round" stroke-linejoin="round"/><path d="M264.82 494.67s2.54 8.73 6.06 22c6.27 23.64 15.67 61.68 19.51 90.58 5.98 45.14-5.44 174.58-5.44 174.58l32.08.54.75-10.39 10.67-146.78-2.48-86.92-.78-27.29M329.54 538.18s10 3.5 25.04 7c23.85 5.561 60.36 11.13 89.71 2.79 47.86-13.59 54.93-22.84 54.93-22.84M354.56 545.25l-.54 86.48-9.25 140.86L318 772M670.81 608.07l-2.99 170.49-29.13-.55-.69-.01" stroke-width="14"/><path d="M277.9 181c.23.06.33.13.33.21 0 .44-3.31 1.12-5 1.66-2.31.73-10.96 16.34-5.24 15.68 5.07-.58 6.63-4.52 9.91-6.5M211.13 180.59c-.23.06-.33.13-.33.21 0 .44 3.32 1.12 5.01 1.66 2.3.73 10.95 16.35 5.24 15.69-5.08-.59-6.63-4.53-9.92-6.51M236.76 230.41c.4 0 11.93.66 11.93.66s-1.85 7.76-4.3 8.64c-2.44.89-4.98-1.77-5.47-2.88-.49-1.11-2.16-6.42-2.16-6.42z" stroke-width="13.052"/><path d="M226.21 247.49c10.2-1.22 22.42-1.12 33.45 1.23" stroke-width="7"/></g><path fill="none" d="M0 0h850.394v850.394H0z"/></svg>