<?xml version="1.0" encoding="iso-8859-1"?>
<!-- Generator: Adobe Illustrator 12.0.1, SVG Export Plug-In . SVG Version: 6.00 Build 51448)  -->
<!DOCTYPE svg PUBLIC "-//W3C//DTD SVG 1.1//EN" "http://www.w3.org/Graphics/SVG/1.1/DTD/svg11.dtd" [
	<!ENTITY ns_svg "http://www.w3.org/2000/svg">
	<!ENTITY ns_xlink "http://www.w3.org/1999/xlink">
]>
<svg  version="1.1" id="Layer_1" xmlns="&ns_svg;" xmlns:xlink="&ns_xlink;" width="850.394" height="850.394"
	 viewBox="0 0 850.394 850.394" style="overflow:visible;enable-background:new 0 0 850.394 850.394;" xml:space="preserve">
<g id="XMLID_3_">
	<g>
		<path style="fill:#A3D9FF;" d="M372.88,754.31c0.47,1.69,0.97,3.351,1.52,4.99L154,752l-0.37-0.11l-43.08-13.159
			c12.25-52.91,25.19-186.87,31.7-198.171c1.31-2.27,4.88-5.239,9.76-8.55h0.01c15.25-10.35,43.2-23.92,54.45-29.25
			c1.14,1.83,2.23,3.59,3.27,5.271c12.5,20.21,19.18,30.05,46.15,30.05c22.37,0,35.73-7.69,51.93-26.55
			c1.92-2.23,3.88-4.62,5.9-7.181c10.47,4.9,36.56,17.381,53.05,27.66c6.98,4.351,12.24,8.311,13.87,11.13
			c6.24,10.82,19.7,133.11,31.59,189.841L374,754L372.88,754.31z"/>
		<path style="fill:#FFEEC8;" d="M255.89,538.08c-26.97,0-33.65-9.84-46.15-30.05c15.3-7.45,15.84-18.82,15.84-28.641l1.94-1.43
			c8.85,10.13,20.29,16.45,33.01,17.03c11.67,0.52,22.7-3.86,31.95-11.771c0,9.681,0.57,20.88,15.34,28.311
			C291.62,530.39,278.26,538.08,255.89,538.08z"/>
		<path style="fill:#FFA500;" d="M657.2,356.68c0.12,5.64,7.46,13.4,12.85,26.43c6.2,14.94-2.18,13.85-12.399,11.66
			c-10.2-2.19-25.521-12.76-36.091-20.05c-1.5-1.03-2.96-1.43-4.52-1.43l3.43-0.01c6.931-11.09,6.99-21.22,0.36-32.08l-1.9-0.03
			c0.021-0.16,0.03-0.33,0.021-0.49c-0.01-0.22-0.021-0.44-0.05-0.65c0.96-0.37,1.85-0.83,2.659-1.39
			c10.57-7.29,25.891-17.86,36.091-20.05c10.22-2.18,18.6-3.28,12.399,11.67C664.66,343.28,657.32,351.05,657.2,356.68z"/>
		<path style="fill:#F73900;" d="M618.93,341.17l1.9,0.03c6.63,10.86,6.57,20.99-0.36,32.08l-3.43,0.01c-3.14,0-6.69,1.58-11.8,2.82
			c-0.28,0.07-0.57,0.13-0.86,0.2c0,0-15.07,5.61-26.09,9.55c-0.87,0.31-1.74,0.64-2.62,0.98c-3.6,1.37-7.46,2.95-12.59,4.43
			c-7.26,2.1-17.03,3.99-32.07,4.8c-5,0.27-10.58,0.42-16.85,0.42c-0.34,0-0.67,0-0.99,0c-19.84-0.09-36.93-2.78-51.45-5.87
			c-10.29-2.18-19.29-4.56-27.05-6.34c-18.89-4.32-19.68-10.62-19.68-10.62s-3.74-11.61,11.41-20.86
			c19.1-11.65,31.479-18.49,43.68-23.21c9.58-3.71,30.87-8.63,51-9.04c5.5-0.13,10.92,0.09,15.99,0.77
			c17.46,2.33,11.05,5.04,64.72,18.55c6.71,1.48,12.65,1.86,17.11,0.16c0.029,0.21,0.04,0.43,0.05,0.65
			C618.96,340.84,618.95,341.01,618.93,341.17z M449.51,357.73c0-3-2.35-5.43-5.229-5.43s-5.23,2.43-5.23,5.43s2.351,5.42,5.23,5.42
			S449.51,360.73,449.51,357.73z"/>
		<path style="fill:#FFA500;" d="M618.9,340.03c-4.46,1.7-10.4,1.32-17.11-0.16c-53.67-13.51-47.26-16.22-64.72-18.55
			c-5.07-0.68-10.49-0.9-15.99-0.77l-0.03-1.27c7.771-7.15,20.87-14.65,26.28-17.61c10.439-5.73,50.32,19.93,51.5,20.51
			C606.28,325.84,617.99,330.37,618.9,340.03z"/>
		<path style="fill:#FFA500;" d="M605.24,376.11c1.89,4.94,6.96,13.39,2.25,16.86c-7.471,5.5-22.94-0.61-31.82-6.13
			c0.88-0.34,1.75-0.67,2.62-0.98c11.02-3.94,26.09-9.55,26.09-9.55C604.67,376.24,604.96,376.18,605.24,376.11z"/>
		<path style="fill:#FFA500;" d="M563.34,392.16c0.32,4.69,5.061,15.72-0.78,18.49c1.921-0.92-19.069-0.97-31.489-13.38l-0.061-1.2
			c15.04-0.81,24.811-2.7,32.07-4.8L563.34,392.16z"/>
		<path style="fill:#FFA500;" d="M472.06,196.84c0.131,5.64,7.46,13.4,12.851,26.42c6.2,14.95-2.18,13.85-12.4,11.67
			c-10.2-2.19-25.51-12.76-36.08-20.05c-1.5-1.04-2.97-1.43-4.529-1.43l3.43-0.02c6.93-11.09,6.99-21.22,0.36-32.08l-1.9-0.03
			c0.02-0.16,0.03-0.33,0.02-0.49c-0.01-0.22-0.02-0.43-0.05-0.64c0.96-0.37,1.851-0.83,2.67-1.39
			c10.57-7.29,25.88-17.86,36.08-20.05c10.221-2.19,18.601-3.28,12.4,11.67C479.51,183.45,472.18,191.21,472.06,196.84z"/>
		<path style="fill:#231F20;" d="M444.28,352.3c2.88,0,5.229,2.43,5.229,5.43s-2.35,5.42-5.229,5.42s-5.23-2.42-5.23-5.42
			S441.4,352.3,444.28,352.3z"/>
		<path style="fill:#F73900;" d="M433.79,181.32l1.9,0.03c6.63,10.86,6.569,20.99-0.36,32.08l-3.43,0.02
			c-3.141,0-6.69,1.58-11.8,2.81c-0.28,0.07-0.57,0.13-0.86,0.2c0,0-15.07,5.62-26.08,9.55c-0.87,0.31-1.74,0.64-2.63,0.98
			c-3.6,1.38-7.47,2.96-12.59,4.43c-7.26,2.1-17.03,3.99-32.07,4.8c-5,0.27-10.58,0.42-16.85,0.42c-0.33,0-0.67,0-0.99,0
			c-19.83-0.09-36.93-2.78-51.45-5.87c-10.29-2.18-19.29-4.55-27.06-6.33c-18.88-4.33-19.67-10.63-19.67-10.63
			s-3.74-11.6,11.41-20.85c19.1-11.66,31.48-18.5,43.68-23.22c10.48-4.05,30.53-9.56,50.94-9.03c3.36,0.08,6.72,0.32,10.05,0.77
			c17.46,2.32,17.06,5.04,70.72,18.55c6.71,1.48,12.64,1.85,17.11,0.16c0.03,0.21,0.04,0.42,0.05,0.64
			C433.82,180.99,433.81,181.16,433.79,181.32z M264.36,197.89c0-3.01-2.34-5.43-5.22-5.43c-2.88,0-5.22,2.42-5.22,5.43
			c0,2.99,2.34,5.42,5.22,5.42C262.02,203.31,264.36,200.88,264.36,197.89z"/>
		<path style="fill:#FFA500;" d="M433.76,180.19c-4.47,1.69-10.4,1.32-17.11-0.16c-53.66-13.51-53.26-16.23-70.72-18.55
			c-3.33-0.45-6.69-0.69-10.05-0.77l0.03-1.28c7.77-7.15,20.87-14.64,26.28-17.61c2.88-1.58,41.89,15.79,51.5,20.52
			C421.15,166,432.85,170.53,433.76,180.19z"/>
		<path style="fill:#FFA500;" d="M420.1,216.26c1.9,4.95,6.97,13.39,2.25,16.86c-7.47,5.5-22.93-0.6-31.82-6.13
			c0.89-0.34,1.76-0.67,2.63-0.98c11.01-3.93,26.08-9.55,26.08-9.55C419.53,216.39,419.82,216.33,420.1,216.26z"/>
		<path style="fill:#FFA500;" d="M378.2,232.31c0.32,4.69,5.06,15.72-0.78,18.49c-8.92,4.25-24.23-6.13-31.49-13.37l-0.06-1.21
			c15.04-0.81,24.81-2.7,32.07-4.8L378.2,232.31z"/>
		<path style="fill:#FFEEC8;" d="M292.48,483.22c-9.25,7.91-20.28,12.29-31.95,11.771c-12.72-0.58-24.16-6.9-33.01-17.03
			c-12.16-13.92-19.42-35.04-18.37-58.35c1.82-40.26,27.76-71.78,57.96-70.42c30.19,1.36,53.2,35.1,51.38,75.36
			C317.37,449.26,307.18,470.68,292.48,483.22z"/>
		<path style="fill:#231F20;" d="M259.14,192.46c2.88,0,5.22,2.42,5.22,5.43c0,2.99-2.34,5.42-5.22,5.42
			c-2.88,0-5.22-2.43-5.22-5.42C253.92,194.88,256.26,192.46,259.14,192.46z"/>
	</g>
	<g>
		<polyline style="fill:none;stroke:#231F20;stroke-width:21;" points="152.01,532.01 89.53,532.01 89.53,89.78 760.22,89.78 
			760.22,532.01 366.77,532.01 		"/>
		<path style="fill:none;stroke:#231F20;stroke-width:21;" d="M227.52,477.96c-12.16-13.92-19.42-35.04-18.37-58.35
			c1.82-40.26,27.76-71.78,57.96-70.42c30.19,1.36,53.2,35.1,51.38,75.36c-1.12,24.71-11.31,46.13-26.01,58.67
			c-9.25,7.91-20.28,12.29-31.95,11.771C247.81,494.41,236.37,488.09,227.52,477.96z"/>
		<path style="fill:none;stroke:#231F20;stroke-width:21;" d="M152.15,756.72c0.53-1.59,1.02-3.2,1.48-4.83
			c7.86-28.159,4.63-61.54,4.63-61.54"/>
		<path style="fill:none;stroke:#231F20;stroke-width:21;" d="M211.35,500.48c0,0-1.82,0.84-4.88,2.279
			c-11.25,5.33-39.2,18.9-54.45,29.25h-0.01c-4.88,3.311-8.45,6.28-9.76,8.55c-6.51,11.301-19.45,145.261-31.7,198.171"/>
		<path style="fill:none;stroke:#231F20;stroke-width:21;" d="M374.4,759.3c-0.55-1.64-1.05-3.3-1.52-4.99
			c-7.79-28.119-4.58-61.39-4.58-61.39"/>
		<path style="fill:none;stroke:#231F20;stroke-width:21;" d="M309.15,502.23c0,0,1.7,0.77,4.57,2.119
			c10.47,4.9,36.56,17.381,53.05,27.66c6.98,4.351,12.24,8.311,13.87,11.13c6.24,10.82,19.7,133.11,31.59,189.841
			c0.52,2.46,1.03,4.789,1.54,6.989"/>
		<path style="fill:none;stroke:#231F20;stroke-width:21;" d="M206,502c0.16,0.25,0.32,0.51,0.47,0.76
			c1.14,1.83,2.23,3.59,3.27,5.271c12.5,20.21,19.18,30.05,46.15,30.05c22.37,0,35.73-7.69,51.93-26.55
			c1.92-2.23,3.88-4.62,5.9-7.181c0.09-0.109,0.19-0.229,0.28-0.35"/>
		<path style="fill:none;stroke:#231F20;stroke-width:21;" d="M225.58,479.39c0,9.82-0.54,21.19-15.84,28.641
			c-0.12,0.06-0.25,0.12-0.38,0.18"/>
		<path style="fill:none;stroke:#231F20;stroke-width:21;" d="M292.48,483.13c0,0.03,0,0.061,0,0.09
			c0,9.681,0.57,20.88,15.34,28.311c0.29,0.14,0.58,0.29,0.88,0.43"/>
		<path style="fill:none;stroke:#231F20;stroke-width:14;" d="M335.91,159.43c7.77-7.15,20.87-14.64,26.28-17.61
			c2.88-1.58,41.89,15.79,51.5,20.52c7.46,3.66,19.16,8.19,20.07,17.85c0.03,0.21,0.04,0.42,0.05,0.64c0.011,0.16,0,0.33-0.02,0.49
			c-0.07,0.93-0.41,1.87-0.34,2.86"/>
		<path style="fill:none;stroke:#231F20;stroke-width:14;" d="M435.69,181.35c6.63,10.86,6.569,20.99-0.36,32.08"/>
		<path style="fill:none;stroke:#231F20;stroke-width:7;" d="M264.36,197.89c0,2.99-2.34,5.42-5.22,5.42
			c-2.88,0-5.22-2.43-5.22-5.42c0-3.01,2.34-5.43,5.22-5.43C262.02,192.46,264.36,194.88,264.36,197.89z"/>
		<path style="fill:none;stroke:#231F20;stroke-width:14;stroke-linecap:round;stroke-linejoin:round;" d="M291.26,188.28
			c4.18,4.34,6.8,10.66,6.8,17.69c0,13.11-10.2,24.8-21.48,24.8"/>
		<path style="fill:none;stroke:#231F20;stroke-width:14;" d="M328.03,236.64c0.32,0,0.66,0,0.99,0c6.27,0,11.85-0.15,16.85-0.42
			c15.04-0.81,24.81-2.7,32.07-4.8c5.12-1.47,8.99-3.05,12.59-4.43c0.89-0.34,1.76-0.67,2.63-0.98c11.01-3.93,26.08-9.55,26.08-9.55
			c0.29-0.07,0.58-0.13,0.86-0.2c5.11-1.23,8.66-2.81,11.8-2.81c1.56,0,3.029,0.39,4.529,1.43c10.57,7.29,25.88,17.86,36.08,20.05
			c10.221,2.18,18.601,3.28,12.4-11.67c-5.391-13.02-12.72-20.78-12.851-26.42c0-0.03,0-0.05,0,0.07c0-0.02,0-0.05,0-0.07
			c0.12-5.63,7.45-13.39,12.851-26.42c6.2-14.95-2.18-13.86-12.4-11.67c-10.2,2.19-25.51,12.76-36.08,20.05
			c-0.819,0.56-1.71,1.02-2.67,1.39c-4.47,1.69-10.4,1.32-17.11-0.16c-53.66-13.51-53.26-16.23-70.72-18.55
			c-3.33-0.45-6.69-0.69-10.05-0.77c-20.41-0.53-40.46,4.98-50.94,9.03c-12.2,4.72-24.58,11.56-43.68,23.22
			c-15.15,9.25-11.41,20.85-11.41,20.85s0.79,6.3,19.67,10.63c7.77,1.78,16.77,4.15,27.06,6.33
			C291.1,233.86,308.2,236.55,328.03,236.64"/>
		<path style="fill:none;stroke:#231F20;stroke-width:14;" d="M345.93,237.43c7.26,7.24,22.57,17.62,31.49,13.37
			c5.84-2.77,1.1-13.8,0.78-18.49"/>
		<path style="fill:none;stroke:#231F20;stroke-width:14;" d="M388.9,225.94c0.51,0.35,1.06,0.7,1.63,1.05
			c8.89,5.53,24.35,11.63,31.82,6.13c4.72-3.47-0.35-11.91-2.25-16.86c-0.2-0.53-0.36-1.01-0.48-1.45"/>
		<path style="fill:none;stroke:#231F20;stroke-width:14;" d="M521.05,319.28c7.771-7.15,20.87-14.65,26.28-17.61
			c10.439-5.73,50.32,19.93,51.5,20.51c7.45,3.66,19.16,8.19,20.07,17.85c0.029,0.21,0.04,0.43,0.05,0.65
			c0.01,0.16,0,0.33-0.021,0.49c-0.069,0.93-0.41,1.87-0.34,2.86"/>
		<path style="fill:none;stroke:#231F20;stroke-width:14;" d="M620.83,341.2c6.63,10.86,6.57,20.99-0.36,32.08"/>
		<path style="fill:none;stroke:#231F20;stroke-width:7;" d="M449.51,357.73c0,3-2.35,5.42-5.229,5.42s-5.23-2.42-5.23-5.42
			s2.351-5.43,5.23-5.43S449.51,354.73,449.51,357.73z"/>
		<path style="fill:none;stroke:#231F20;stroke-width:14;stroke-linecap:round;stroke-linejoin:round;" d="M476.4,348.12
			c4.18,4.34,6.8,10.66,6.8,17.7c0,13.11-10.2,24.8-21.48,24.8"/>
		<path style="fill:none;stroke:#231F20;stroke-width:14;" d="M513.17,396.49c0.32,0,0.65,0,0.99,0c6.27,0,11.85-0.15,16.85-0.42
			c15.04-0.81,24.811-2.7,32.07-4.8c5.13-1.48,8.99-3.06,12.59-4.43c0.88-0.34,1.75-0.67,2.62-0.98
			c11.02-3.94,26.09-9.55,26.09-9.55c0.29-0.07,0.58-0.13,0.86-0.2c5.109-1.24,8.66-2.82,11.8-2.82c1.56,0,3.02,0.4,4.52,1.43
			c10.57,7.29,25.891,17.86,36.091,20.05c10.22,2.19,18.6,3.28,12.399-11.66c-5.39-13.03-12.729-20.79-12.85-26.43
			c0-0.03,0-0.05,0,0.08c0-0.03,0-0.05,0-0.08c0.12-5.63,7.46-13.4,12.85-26.42c6.2-14.95-2.18-13.85-12.399-11.67
			c-10.2,2.19-25.521,12.76-36.091,20.05c-0.81,0.56-1.699,1.02-2.659,1.39c-4.46,1.7-10.4,1.32-17.11-0.16
			c-53.67-13.51-47.26-16.22-64.72-18.55c-5.07-0.68-10.49-0.9-15.99-0.77c-20.13,0.41-41.42,5.33-51,9.04
			c-12.2,4.72-24.58,11.56-43.68,23.21c-15.15,9.25-11.41,20.86-11.41,20.86s0.79,6.3,19.68,10.62c7.76,1.78,16.76,4.16,27.05,6.34
			C476.24,393.71,493.33,396.4,513.17,396.49"/>
		<path style="fill:none;stroke:#231F20;stroke-width:14;" d="M531.07,397.27c12.42,12.41,33.41,12.46,31.489,13.38
			c5.841-2.77,1.101-13.8,0.78-18.49"/>
		<path style="fill:none;stroke:#231F20;stroke-width:14;" d="M574.04,385.79c0.51,0.35,1.06,0.7,1.63,1.05
			c8.88,5.52,24.35,11.63,31.82,6.13c4.71-3.47-0.36-11.92-2.25-16.86c-0.2-0.53-0.37-1.01-0.48-1.45"/>
	</g>
</g>
<rect style="fill:none;" width="850.394" height="850.394"/>
</svg>
