<?xml version="1.0" encoding="iso-8859-1"?>
<!-- Generator: Adobe Illustrator 12.0.1, SVG Export Plug-In . SVG Version: 6.00 Build 51448)  -->
<!DOCTYPE svg PUBLIC "-//W3C//DTD SVG 1.1//EN" "http://www.w3.org/Graphics/SVG/1.1/DTD/svg11.dtd" [
	<!ENTITY ns_svg "http://www.w3.org/2000/svg">
	<!ENTITY ns_xlink "http://www.w3.org/1999/xlink">
]>
<svg  version="1.1" id="Layer_1" xmlns="&ns_svg;" xmlns:xlink="&ns_xlink;" width="850.394" height="850.394"
	 viewBox="0 0 850.394 850.394" style="overflow:visible;enable-background:new 0 0 850.394 850.394;" xml:space="preserve">
<g>
	<g id="XMLID_7_">
		<g>
			<path style="fill:#FFFFC2;" d="M764.21,379.28c4.6,6.5,7.37,14.86,7.37,23.98l-7.72,290.061c0,19.31-12.4,35.21-28.33,37.279
				c-1.16,0.15-2.34,0.23-3.54,0.23H691.6c-17.6,0-31.88-16.79-31.88-37.51V403.26c0-4.81,0.771-9.42,2.181-13.65
				c4.64-13.97,16.189-23.86,29.699-23.86H739.7C749.55,365.75,758.36,371.01,764.21,379.28z"/>
			<path style="fill:#FFFFC2;" d="M764.21,379.28c-5.85-8.27-14.66-13.53-24.51-13.53H691.6c-13.51,0-25.06,9.89-29.699,23.86
				l-0.25-0.08c-7.71-30.85-70.051-64.92-70.051-64.92c6.431-32.14,64.261-29.57,75.83-37.28c0.96-0.64,1.79-2.03,2.511-4.07
				l2.649,0.21C672.59,283.47,753.54,340.61,764.21,379.28z"/>
			<path style="fill:#9E5C26;" d="M735.53,730.6L736,734c0,18.45-8.14,35.07-23.4,35.07c-15.26,0-21-19.79-21-38.24h40.391
				C733.19,730.83,734.37,730.75,735.53,730.6z"/>
			<path style="fill:#FFFFC2;" d="M419.16,91.88c24.18-0.42,223.51-2.82,238,32.19c14.149,34.2,20.72,136.55,12.78,159.19
				c-0.721,2.04-1.551,3.43-2.511,4.07c-11.569,7.71-69.399,5.14-75.83,37.28c-6.43,32.14-3.859,81-3.859,81l-0.78,1.36
				c-24.37-13.78-35.22-12.94-35.22-12.94l-132.62-2.5L294,394.03c0,0-10.84-0.84-35.22,12.95L258,405.6c0,0,2.58-48.85-3.85-80.99
				c-6.43-32.14-64.28-29.57-75.85-37.28c-1.02-0.68-1.9-2.22-2.64-4.48c-7.72-23.44-1.14-124.78,12.93-158.78
				c14.48-35.01,207.01-32.61,230.37-32.19C419.02,91.89,419.09,91.88,419.16,91.88z"/>
			<path style="fill:#FFFFC2;" d="M656.51,693.32v16.939H191.16V693.32h-5.14V403.26c0-4.81-0.77-9.42-2.18-13.65l0.25-0.08
				c7.71-30.85,70.06-64.92,70.06-64.92c6.43,32.14,3.85,80.99,3.85,80.99l0.78,1.38c-5.89,3.33-12.56,7.51-20.06,12.76
				c-36.11,25.27-36.79,47.279-36.73,49.979c-2.82,6.29-4.41,13.46-4.41,21.07v21.16c0,25.03,17.27,45.33,38.57,45.33h371.52
				c21.3,0,38.561-20.3,38.561-45.33v-21.16c0-8.91-2.181-17.21-5.95-24.22c-0.04-7.431-3.53-26.03-33.25-46.83
				c-7.5-5.25-14.181-9.44-20.07-12.77l0.78-1.36c0,0-2.57-48.86,3.859-81c0,0,62.341,34.07,70.051,64.92l0.25,0.08
				c-1.41,4.23-2.181,8.84-2.181,13.65V693.32H656.51z"/>
			<path style="fill:#FFFFC2;" d="M640.28,466.57c3.77,7.01,5.95,15.31,5.95,24.22v21.16c0,25.03-17.261,45.33-38.561,45.33H236.15
				c-21.3,0-38.57-20.3-38.57-45.33v-21.16c0-7.61,1.59-14.78,4.41-21.07c6.46-14.43,19.33-24.27,34.16-24.27h371.52
				C621.39,445.45,633.44,453.88,640.28,466.57z"/>
			<path style="fill:#FFFFC2;" d="M640.28,466.57c-6.84-12.69-18.891-21.12-32.61-21.12H236.15c-14.83,0-27.7,9.84-34.16,24.27
				c-0.06-2.7,0.62-24.71,36.73-49.979c7.5-5.25,14.17-9.43,20.06-12.76c24.38-13.79,35.22-12.95,35.22-12.95l125.12-2.5l132.62,2.5
				c0,0,10.85-0.84,35.22,12.94c5.89,3.33,12.57,7.52,20.07,12.77C636.75,440.54,640.24,459.14,640.28,466.57z"/>
			<path style="fill:#FFFFC2;" d="M254.15,324.61c0,0-62.35,34.07-70.06,64.92l-0.25,0.08c-4.64-13.97-16.19-23.86-29.7-23.86
				h-48.09c-9.87,0-18.69,5.28-24.53,13.57c10.64-38.67,91.64-95.85,91.64-95.85l2.5-0.62c0.74,2.26,1.62,3.8,2.64,4.48
				C189.87,295.04,247.72,292.47,254.15,324.61z"/>
			<path style="fill:#FFFFC2;" d="M81.52,379.32c5.84-8.29,14.66-13.57,24.53-13.57h48.09c13.51,0,25.06,9.89,29.7,23.86
				c1.41,4.23,2.18,8.84,2.18,13.65V693.32c0,17.56-10.26,32.3-24.1,36.39c-2.49,0.73-5.1,1.12-7.78,1.12h-40.38
				c-1.92,0-3.81-0.2-5.64-0.59c-14.91-3.13-26.23-18.471-26.23-36.92L74.18,403.26C74.18,394.16,76.94,385.81,81.52,379.32z"/>
			<path style="fill:#9E5C26;" d="M161.92,729.71L162,730c0,18.46-13.59,39.07-28.85,39.07c-15.27,0-25.15-18.61-25.15-37.07
				l0.12-1.76c1.83,0.39,3.72,0.59,5.64,0.59h40.38C156.82,730.83,159.43,730.44,161.92,729.71z"/>
		</g>
		<g>
			<path style="fill:none;stroke:#231F20;stroke-width:21;" d="M640.28,466.57c3.77,7.01,5.95,15.31,5.95,24.22v21.16
				c0,25.03-17.261,45.33-38.561,45.33H236.15c-21.3,0-38.57-20.3-38.57-45.33v-21.16c0-7.61,1.59-14.78,4.41-21.07
				c6.46-14.43,19.33-24.27,34.16-24.27h371.52C621.39,445.45,633.44,453.88,640.28,466.57z"/>
			<polyline style="fill:none;stroke:#231F20;stroke-width:21;" points="656.51,544.43 656.51,693.32 656.51,710.26 191.16,710.26 
				191.16,693.32 191.16,544.43 195.02,544.43 			"/>
			<path style="fill:none;stroke:#231F20;stroke-width:21;" d="M418.96,91.88c-23.36-0.42-215.89-2.82-230.37,32.19
				c-14.07,34-20.65,135.34-12.93,158.78c0.74,2.26,1.62,3.8,2.64,4.48c11.57,7.71,69.42,5.14,75.85,37.28
				c6.43,32.14,3.85,80.99,3.85,80.99"/>
			<path style="fill:none;stroke:#231F20;stroke-width:21;" d="M421.27,91.93c0,0-0.73-0.02-2.11-0.05"/>
			<path style="fill:none;stroke:#231F20;stroke-width:21;" d="M186.02,693.32c0,17.56-10.26,32.3-24.1,36.39
				c-2.49,0.73-5.1,1.12-7.78,1.12h-40.38c-1.92,0-3.81-0.2-5.64-0.59c-14.91-3.13-26.23-18.471-26.23-36.92L74.18,403.26
				c0-9.1,2.76-17.45,7.34-23.94c5.84-8.29,14.66-13.57,24.53-13.57h48.09c13.51,0,25.06,9.89,29.7,23.86
				c1.41,4.23,2.18,8.84,2.18,13.65V693.32z"/>
			<path style="fill:none;stroke:#231F20;stroke-width:21;" d="M173.16,283.47c0,0-81,57.18-91.64,95.85
				c-0.42,1.5-0.73,2.98-0.92,4.42"/>
			<path style="fill:none;stroke:#231F20;stroke-width:21;" d="M254.15,324.61c0,0-62.35,34.07-70.06,64.92"/>
			<path style="fill:none;stroke:#231F20;stroke-width:21;" d="M422.55,391.46l-3.43,0.07L294,394.03c0,0-10.84-0.84-35.22,12.95
				c-5.89,3.33-12.56,7.51-20.06,12.76c-36.11,25.27-36.79,47.279-36.73,49.979c0,0.181,0.01,0.28,0.01,0.28"/>
			<path style="fill:none;stroke:#231F20;stroke-width:21;" d="M162,730c0,18.46-13.59,39.07-28.85,39.07
				c-15.27,0-25.15-18.61-25.15-37.07"/>
			<path style="fill:none;stroke:#231F20;stroke-width:21;" d="M416.76,91.93c0,0,0.76-0.02,2.2-0.05c0.06,0.01,0.13,0,0.2,0
				c24.18-0.42,223.51-2.82,238,32.19c14.149,34.2,20.72,136.55,12.78,159.19c-0.721,2.04-1.551,3.43-2.511,4.07
				c-11.569,7.71-69.399,5.14-75.83,37.28c-6.43,32.14-3.859,81-3.859,81"/>
			<path style="fill:none;stroke:#231F20;stroke-width:21;" d="M659.72,693.32c0,20.72,14.28,37.51,31.88,37.51h40.391
				c1.2,0,2.38-0.08,3.54-0.23c15.93-2.069,28.33-17.97,28.33-37.279l7.72-290.061c0-9.12-2.771-17.48-7.37-23.98
				c-5.85-8.27-14.66-13.53-24.51-13.53H691.6c-13.51,0-25.06,9.89-29.699,23.86c-1.41,4.23-2.181,8.84-2.181,13.65V693.32z"/>
			<path style="fill:none;stroke:#231F20;stroke-width:21;" d="M672.59,283.47c0,0,80.95,57.14,91.62,95.81
				c0.43,1.52,0.74,3.01,0.93,4.46"/>
			<path style="fill:none;stroke:#231F20;stroke-width:21;" d="M591.6,324.61c0,0,62.341,34.07,70.051,64.92"/>
			<path style="fill:none;stroke:#231F20;stroke-width:21;" d="M415.48,391.46l3.64,0.07l132.62,2.5c0,0,10.85-0.84,35.22,12.94
				c5.89,3.33,12.57,7.52,20.07,12.77c29.72,20.8,33.21,39.399,33.25,46.83c0.01,2.21-0.28,3.43-0.28,3.43"/>
			<path style="fill:none;stroke:#231F20;stroke-width:21;" d="M691.6,730.83c0,18.45,5.74,38.24,21,38.24
				c15.261,0,23.4-16.62,23.4-35.07"/>
		</g>
	</g>
</g>
<rect style="fill:none;" width="850.394" height="850.394"/>
</svg>
