<svg xmlns="http://www.w3.org/2000/svg" width="850.394" height="850.394" viewBox="0 0 850.394 850.394" overflow="visible"><path fill="none" d="M368 368.249h113.386v113.386H368z"/><path d="M570 676c.16-.04.3-.08.42-.11-.09.04-.18.08-.27.11-.15.05-.311.1-.49.15.11-.05.23-.1.34-.15z" fill="#f6cc4b"/><path d="M764.17 364.73C777.53 508.51 706 606 600 660c-9.95 6.45-20.67 11.94-29.58 15.89-.12.03-.26.07-.42.11-.11.05-.23.1-.34.15-3.29 1-10.62 3.33-15.66 5.85 2.72-.68 6.84-2.11 11.81-4.15-163.46 70.53-489.86-23.73-501.9-175.13-9.67-121.43 96.47-10.42 166.83-67.39l-2.51 2.11c-2.24 1.59-4.49 3.18-4.11 3.439l4.11-3.439c2.25-1.591 4.5-3.171 4.11-3.44 15.66-8 19.66-18 26.27-42.18 5.79-49.76-16.61-71.24-37.01-94.74-5.81-94.62 167.19-142.28 257.85-142.59 133.75-.45 272.51 78.97 284.72 210.24zM717 378c0-32.58-26.42-59-59-59s-59 26.42-59 59 26.42 59 59 59 59-26.42 59-59zm-80 164c0-32.58-26.42-59-59-59s-59 26.42-59 59 26.42 59 59 59 59-26.42 59-59zm-71-283c0-32.58-26.42-59-59-59s-59 26.42-59 59 26.42 59 59 59 59-26.42 59-59zM443 596c0-32.58-26.42-59-59-59s-59 26.42-59 59 26.42 59 59 59 59-26.42 59-59zm-63.25-199.09c58.51-18.36 41.44-100.51-10.69-105.32-78.04-7.19-86.02 135.66 10.69 105.32zM271 546c0-32.58-26.42-59-59-59s-59 26.42-59 59 26.42 59 59 59 59-26.42 59-59z" fill="#f6cc4b"/><path d="M569.66 676.15c.18-.051.34-.101.49-.15-1.311.58-2.57 1.12-3.79 1.62 1.11-.48 2.21-.97 3.3-1.47z" fill="#f6cc4b"/><path d="M658 319c32.58 0 59 26.42 59 59s-26.42 59-59 59-59-26.42-59-59 26.42-59 59-59z" fill="#faa41f"/><path d="M578 483c32.58 0 59 26.42 59 59s-26.42 59-59 59-59-26.42-59-59 26.42-59 59-59z" fill="#fbee34"/><path d="M507 200c32.58 0 59 26.42 59 59s-26.42 59-59 59-59-26.42-59-59 26.42-59 59-59z" fill="#ed1d31"/><path d="M384 537c32.58 0 59 26.42 59 59s-26.42 59-59 59-59-26.42-59-59 26.42-59 59-59z" fill="#33a048"/><path d="M212 487c32.58 0 59 26.42 59 59s-26.42 59-59 59-59-26.42-59-59 26.42-59 59-59z" fill="#0d72ba"/><g fill="none" stroke="#231f20" stroke-width="14"><path d="M232.34 434c.39.27-1.86 1.85-4.11 3.44-2.24 1.59-4.49 3.18-4.11 3.439"/><path d="M565.81 677.85c-163.46 70.53-489.86-23.73-501.9-175.13-9.67-121.43 96.47-10.42 166.83-67.39"/><path d="M232.34 434c15.66-8 19.66-18 26.27-42.18 5.79-49.76-16.61-71.24-37.01-94.74-5.81-94.62 167.19-142.28 257.85-142.59 133.75-.45 272.51 78.97 284.72 210.24C777.53 508.51 706 606 600 660c-9.95 6.45-20.67 11.94-29.58 15.89-.09.04-.18.08-.27.11-1.311.58-2.57 1.12-3.79 1.62-.19.08-.37.16-.551.229-4.97 2.04-9.09 3.471-11.81 4.15 5.04-2.52 12.37-4.85 15.66-5.85.18-.051.34-.101.49-.15.64-.19 1.06-.31 1.18-.35.03-.011.04-.011 0 0-.1.02-.39.1-.91.239-.12.03-.26.07-.42.11-.11.05-.23.1-.34.15-1.09.5-2.19.989-3.3 1.47M230.74 435.33l1.6-1.33"/><path d="M369.06 291.59c-78.04-7.19-86.02 135.66 10.69 105.32 58.51-18.36 41.44-100.51-10.69-105.32zM566 259c0 32.58-26.42 59-59 59s-59-26.42-59-59 26.42-59 59-59 59 26.42 59 59zM717 378c0 32.58-26.42 59-59 59s-59-26.42-59-59 26.42-59 59-59 59 26.42 59 59zM637 542c0 32.58-26.42 59-59 59s-59-26.42-59-59 26.42-59 59-59 59 26.42 59 59zM443 596c0 32.58-26.42 59-59 59s-59-26.42-59-59 26.42-59 59-59 59 26.42 59 59zM271 546c0 32.58-26.42 59-59 59s-59-26.42-59-59 26.42-59 59-59 59 26.42 59 59z"/></g><path fill="none" d="M0 0h850.394v850.394H0z"/></svg>