<?xml version="1.0" encoding="iso-8859-1"?>
<!-- Generator: Adobe Illustrator 12.0.1, SVG Export Plug-In . SVG Version: 6.00 Build 51448)  -->
<!DOCTYPE svg PUBLIC "-//W3C//DTD SVG 1.1//EN" "http://www.w3.org/Graphics/SVG/1.1/DTD/svg11.dtd" [
	<!ENTITY ns_svg "http://www.w3.org/2000/svg">
	<!ENTITY ns_xlink "http://www.w3.org/1999/xlink">
]>
<svg  version="1.1" id="Layer_1" xmlns="&ns_svg;" xmlns:xlink="&ns_xlink;" width="850.394" height="850.394"
	 viewBox="0 0 850.394 850.394" style="overflow:visible;enable-background:new 0 0 850.394 850.394;" xml:space="preserve">
<g id="XMLID_6_">
	<g>
		<path style="fill:#9E5C26;" d="M232.38,132.42c-9.64,1.31-17.37,6.06-22.58,14.74c-2.93,4.89-5.24,30.92-3.45,35.23l-0.77,0.27
			c-4.15-2.66-8.35-3.59-12-1.01c-13,9.18-3.83,45.88-2.3,68.05c0.89,12.83,3.05,29.51,10.06,38.91l-0.12,0.09
			c0,0-5.5,3.07-14.96,8.39c-1.02-18.71-21.71-73.7-29.96-95.93c-20.34-54.75,6.26-125.14,6.26-125.14l342.2,5.48
			c4.82,20,8.391,38.83,10.79,56.28L514,138c-7.48,4.07-14.05,3.3-22.46,3.64c-41.17,1.64-80.04,13.14-99.04,14.16
			c-32.58,1.74-49.81,0.74-80.49-10.99C286.64,135.11,259.88,128.68,232.38,132.42z"/>
		<path style="fill:#FFEEC8;" d="M486.35,295.01l-23.46,3.13C462.89,298.14,473.84,299.7,486.35,295.01z M211.68,295.58
			c-4.29-0.85-7.67-3.38-10.34-6.97c-7.01-9.4-9.17-26.08-10.06-38.91c-1.53-22.17-10.7-58.87,2.3-68.05
			c3.65-2.58,7.85-1.65,12,1.01l0.77-0.27c-1.79-4.31,0.52-30.34,3.45-35.23c5.21-8.68,12.94-13.43,22.58-14.74
			c27.5-3.74,54.26,2.69,79.63,12.39c30.68,11.73,47.91,12.73,80.49,10.99c19-1.02,57.87-12.52,99.04-14.16
			c8.41-0.34,14.979,0.43,22.46-3.64l1.55-0.22c2.57,18.72,3.79,35.86,3.76,51.13c-23.54-8.32-45.729-7.42-57.64,6.35
			c-8.92,10.32-11.93,17.79-5.66,24.05c6.29,6.27,18.851,6.26,52.021,21.85c-2.38,7.68-0.37,11.2-4.03,16.19
			c-8.64,11.75-12.99,29.51-19.55,56.93c-1.28,5.36-2.65,11.1-4.15,17.23c-9.18,37.47-24.479,69.58-42.819,91.75
			c-18.351,22.17-59.641,49.7-81.811,54.29c-22.18,4.58-90.99-48.939-118.51-78.76c-27.53-29.81-26-97.86-26-97.86L211.68,295.58z"
			/>
		<path style="fill:#FFEEC8;" d="M683.97,317.96c-35.819,4.06-76.54-10.66-97.93-23.84c-22.88-14.05-44.81-37.33-78.01-52.96
			c-33.17-15.59-45.73-15.58-52.021-21.85c-6.27-6.26-3.26-13.73,5.66-24.05c11.91-13.77,34.1-14.67,57.64-6.35
			c9.671,3.43,19.57,8.41,29.08,14.69c26.19,17.28,56.761-7.9,58.721-29.65c0.069-0.63,0.1-1.27,0.109-1.89
			c0,0,1.271-11.07,1.021-16.32c-0.3-6.44-1.03-12.87-2.101-18.39c-2.939-15.01-10.859-42.74-18.43-62.77L787,342l-38.23,55.95
			c-18.01-30.59-39.8-66.69-64.789-79.89L683.97,317.96z"/>
		<path style="fill:#FFEEC8;" d="M499.02,650.34c-6.96,3.34-14.369,6.891-21.479,9.62c-11.63,4.47-22.48,6.73-29.36,2.23
			c-11.08-7.261-2.68-18.351-2.68-18.351s40.53-24.84,52.38-32.109c11.851-7.261,22.94-9.561,39.38-9.94
			c16.431-0.38,43.57,9.18,43.57,9.18c14.91-0.39,12.24-15.68,12.24-15.68c-4.96-4.41-13.63-16.43-23.261-24.79l1.851-0.44
			c1.14-0.55,3.689-3.14,5.03-5.92l1.979,0.311c0,0,36.19,24.22,54.54,69.069c0,0,40.15,77.301,55.31,131.761
			c0.61,2.18,1.181,4.319,1.7,6.42L689,772H548.44c-2.29-17.51-10.091-60.79-12.431-73.65c-1-0.42-1.979-0.88-2.96-1.369
			C513.93,687.42,499.02,650.34,499.02,650.34z"/>
		<path style="fill:#FFEEC8;" d="M569.81,570.5c9.631,8.36,18.301,20.38,23.261,24.79c0,0,2.67,15.29-12.24,15.68
			c0,0-27.14-9.56-43.57-9.18c-16.439,0.38-27.529,2.68-39.38,9.94C486.03,619,445.5,643.84,445.5,643.84s-8.4,11.09,2.68,18.351
			c6.88,4.5,17.73,2.239,29.36-2.23c-2.49,5.61-10.771,22.21-26.68,36.26c-18.58,16.391-32.271,20.8-47.41,28.95
			c-13.46,7.25-23.63,32.91-27.73,44.79l-178.23-5.81c25.06-23.23,132.56-123.181,144.03-139.04
			c13-17.971,42.06-83.341,42.06-83.341l2.62-2.01c4.9,5.83,18,10.931,31.4-4.49l0.05,0.04l-23.73,28.83c0,0-8.02,27.44,15.54,24.24
			c4.37-0.59,8.56-2.31,12.49-4.689L479.31,523.8c0,0,19.21-19.42,34.101-18.41c2.189,0.15,4.6,0.49,7.14,0.99
			c11.771,2.271,26.4,7.71,35.47,11.68c2.311,1.021,4.25,1.931,5.7,2.681c8.38,4.34,11.471,25.24,15.67,39
			c0.41,1.319,0.03,2.89-0.699,4.399c-1.341,2.78-3.891,5.37-5.03,5.92L569.81,570.5z M562.61,565.18l1.63-0.38
			c0,0-8.681-25.34-32.01-30.16c-23.341-4.81-27-1.88-27-1.88l-78.261,57.32c0,0-14.55,24.61,9.07,27.33
			c4.39,0.51,8.87-0.11,13.26-1.46l70.391-43.84c0,0,23.409-14.08,37.6-9.41C559.06,563.28,560.84,564.13,562.61,565.18z"/>
		<path style="fill:#FFEEC8;" d="M564.24,564.8l-1.63,0.38c-1.771-1.05-3.551-1.899-5.32-2.479c-14.19-4.67-37.6,9.41-37.6,9.41
			L449.3,615.95c-4.39,1.35-8.87,1.97-13.26,1.46c-23.62-2.72-9.07-27.33-9.07-27.33l78.261-57.32c0,0,3.659-2.93,27,1.88
			C555.56,539.46,564.24,564.8,564.24,564.8z"/>
		<path style="fill:#FFEEC8;" d="M553.69,501.63c3.739,2.62,8.22,10.72,2.329,16.43c-9.069-3.97-23.699-9.409-35.47-11.68l0.12-0.66
			c0,0-14.66-22.41-38.47-21.31c-3.141,0.149-5.92,0.34-8.37,0.56l-0.04-0.54c0,0,14.54-15.29,25.62-10.71
			C510.49,478.31,549.87,498.95,553.69,501.63z"/>
		<path style="fill:#FFEEC8;" d="M455.24,489.67l0.33-0.41c0,0,2.13-2.819,18.26-4.29c2.45-0.22,5.229-0.41,8.37-0.56
			c23.81-1.101,38.47,21.31,38.47,21.31l-0.12,0.66c-2.54-0.5-4.95-0.84-7.14-0.99c-14.891-1.01-34.101,18.41-34.101,18.41
			L421.95,583.69c-3.93,2.38-8.12,4.1-12.49,4.689c-23.56,3.2-15.54-24.24-15.54-24.24l23.73-28.83l37.581-45.64
			C455.24,489.66,455.24,489.66,455.24,489.67z"/>
		<path style="fill:#FFFFFF;" d="M462.89,298.14l23.46-3.13C473.84,299.7,462.89,298.14,462.89,298.14z"/>
		<path style="fill:#FFEEC8;" d="M455.23,489.67l-37.581,45.64l-0.05-0.04c-13.4,15.421-26.5,10.32-31.4,4.49
			c-1.59-1.88-2.32-3.84-1.93-5.21c1.59-5.59,15.59-24.49,28-42.649C420.67,479.6,446.96,486.96,455.23,489.67z"/>
		<path style="fill:#ABD153;" d="M545,772l-168-2l-1.28-0.04c4.1-11.88,14.27-37.54,27.73-44.79c15.14-8.15,28.83-12.56,47.41-28.95
			c15.909-14.05,24.189-30.649,26.68-36.26c7.11-2.729,14.52-6.28,21.479-9.62c0,0,14.91,37.08,34.03,46.641
			c0.98,0.489,1.96,0.949,2.96,1.369c2.34,12.86,10.141,56.141,12.431,73.65H545z"/>
		<path style="fill:#ABD153;" d="M211.16,300.93c0,0-1.53,68.05,26,97.86c27.52,29.82,96.33,83.34,118.51,78.76
			c22.17-4.59,63.46-32.12,81.811-54.29c18.34-22.17,33.64-54.28,42.819-91.75c1.5-6.13,2.87-11.87,4.15-17.23
			c20.12,5.52,123.93,35.55,153.34,74.78c29.36,39.13,42.41,96.79,55.21,208.709l-2,0.23l2,166l-4.48,1.28
			c-15.159-54.46-55.31-131.761-55.31-131.761c-18.35-44.85-54.54-69.069-54.54-69.069l-1.979-0.311
			c0.729-1.51,1.109-3.08,0.699-4.399c-4.199-13.76-7.29-34.66-15.67-39c-1.45-0.75-3.39-1.66-5.7-2.681
			c5.891-5.71,1.41-13.81-2.329-16.43c-3.82-2.68-43.2-23.32-54.28-27.91c-11.08-4.58-25.62,10.71-25.62,10.71l0.04,0.54
			c-16.13,1.471-18.26,4.29-18.26,4.29l-0.33,0.41c0-0.01,0-0.01-0.01,0c-8.271-2.71-34.561-10.07-42.96,2.23
			c-12.41,18.159-26.41,37.06-28,42.649c-0.39,1.37,0.34,3.33,1.93,5.21l-2.62,2.01c0,0-29.06,65.37-42.06,83.341
			c-11.47,15.859-118.97,115.81-144.03,139.04L193,764L54.23,372.54c52.84-30.76,106.68-61.18,132.03-75.45
			c9.46-5.32,14.96-8.39,14.96-8.39l0.12-0.09c2.67,3.59,6.05,6.12,10.34,6.97L211.16,300.93z"/>
	</g>
	<g>
		<path style="fill:none;stroke:#231F20;stroke-width:14;" d="M455.23,489.67l-37.581,45.64l-23.73,28.83
			c0,0-8.02,27.44,15.54,24.24c4.37-0.59,8.56-2.31,12.49-4.689L479.31,523.8c0,0,19.21-19.42,34.101-18.41
			c2.189,0.15,4.6,0.49,7.14,0.99c11.771,2.271,26.4,7.71,35.47,11.68c2.311,1.021,4.25,1.931,5.7,2.681
			c8.38,4.34,11.471,25.24,15.67,39c0.41,1.319,0.03,2.89-0.699,4.399c-1.341,2.78-3.891,5.37-5.03,5.92"/>
		<path style="fill:none;stroke:#231F20;stroke-width:14;" d="M520.67,505.72c0,0-14.66-22.41-38.47-21.31
			c-3.141,0.149-5.92,0.34-8.37,0.56c-16.13,1.471-18.26,4.29-18.26,4.29l-0.33,0.41"/>
		<path style="fill:none;stroke:#231F20;stroke-width:14;" d="M564.24,564.8c0,0-8.681-25.34-32.01-30.16
			c-23.341-4.81-27-1.88-27-1.88l-78.261,57.32c0,0-14.55,24.61,9.07,27.33c4.39,0.51,8.87-0.11,13.26-1.46l70.391-43.84
			c0,0,23.409-14.08,37.6-9.41c1.77,0.58,3.55,1.43,5.32,2.479c2.43,1.45,4.84,3.271,7.199,5.32
			c9.631,8.36,18.301,20.38,23.261,24.79c0,0,2.67,15.29-12.24,15.68c0,0-27.14-9.56-43.57-9.18
			c-16.439,0.38-27.529,2.68-39.38,9.94C486.03,619,445.5,643.84,445.5,643.84s-8.4,11.09,2.68,18.351
			c6.88,4.5,17.73,2.239,29.36-2.23c7.11-2.729,14.52-6.28,21.479-9.62c18.351-8.79,38.24-13.76,47.79-10.7"/>
		<path style="fill:none;stroke:#231F20;stroke-width:14;" d="M457.75,490.53c0,0-0.92-0.351-2.51-0.86c0-0.01,0-0.01-0.01,0
			c-8.271-2.71-34.561-10.07-42.96,2.23c-12.41,18.159-26.41,37.06-28,42.649c-0.39,1.37,0.34,3.33,1.93,5.21
			c4.9,5.83,18,10.931,31.4-4.49"/>
		<path style="fill:none;stroke:#231F20;stroke-width:14;" d="M473.79,484.43c0,0,14.54-15.29,25.62-10.71
			c11.08,4.59,50.46,25.23,54.28,27.91c3.739,2.62,8.22,10.72,2.329,16.43c-0.14,0.131-0.279,0.261-0.42,0.391"/>
		<path style="fill:none;stroke:#231F20;stroke-width:14;" d="M383.58,541.77c0,0-29.06,65.37-42.06,83.341
			c-11.47,15.859-118.97,115.81-144.03,139.04c-3.34,3.09-5.21,4.819-5.21,4.819"/>
		<path style="fill:none;stroke:#231F20;stroke-width:14;" d="M373.73,776.08c0,0,0.69-2.38,1.99-6.12
			c4.1-11.88,14.27-37.54,27.73-44.79c15.14-8.15,28.83-12.56,47.41-28.95c15.909-14.05,24.189-30.649,26.68-36.26
			c0.57-1.26,0.84-1.97,0.84-1.97"/>
		<path style="fill:none;stroke:#231F20;stroke-width:14;" d="M499.02,650.34c0,0,14.91,37.08,34.03,46.641
			c0.98,0.489,1.96,0.949,2.96,1.369c18.49,8.101,40.05,7.15,57.82,2.07"/>
		<path style="fill:none;stroke:#231F20;stroke-width:14;" d="M535.34,694.69c0,0,0.24,1.329,0.67,3.659
			c2.34,12.86,10.141,56.141,12.431,73.65c0.21,1.59,0.369,2.96,0.479,4.08"/>
		<path style="fill:none;stroke:#231F20;stroke-width:14;" d="M578.67,564.45c0,0,36.19,24.22,54.54,69.069
			c0,0,40.15,77.301,55.31,131.761c0.61,2.18,1.181,4.319,1.7,6.42c0.37,1.479,0.721,2.939,1.04,4.38"/>
		<path style="fill:none;stroke:#231F20;stroke-width:14;" d="M226.45,207.65c0,0-10.27-18.17-20.87-24.99
			c-4.15-2.66-8.35-3.59-12-1.01c-13,9.18-3.83,45.88-2.3,68.05c0.89,12.83,3.05,29.51,10.06,38.91c2.67,3.59,6.05,6.12,10.34,6.97
			c3.88,0.76,8.5,0.15,14.01-2.3"/>
		<path style="fill:none;stroke:#231F20;stroke-width:14;" d="M519.3,190.21c0-0.43,0-0.87,0.01-1.3
			c0.03-15.27-1.189-32.41-3.76-51.13c-2.399-17.45-5.97-36.28-10.79-56.28"/>
		<path style="fill:none;stroke:#231F20;stroke-width:14;" d="M211.16,300.93c0,0-1.53,68.05,26,97.86
			c27.52,29.82,96.33,83.34,118.51,78.76c22.17-4.59,63.46-32.12,81.811-54.29c18.34-22.17,33.64-54.28,42.819-91.75
			c1.5-6.13,2.87-11.87,4.15-17.23c6.56-27.42,10.91-45.18,19.55-56.93c3.66-4.99,1.65-8.51,4.03-16.19"/>
		<path style="fill:none;stroke:#231F20;stroke-width:14;" d="M497.12,261.17c0,0-47.41-3.06-52,23.7
			c-4.58,26.76-2.29,69.58-3.82,86.4s-13,22.94-25.23,14.53c-12.23-8.41-48.94-8.41-37.47-35.17"/>
		<path style="fill:none;stroke:#231F20;stroke-width:14;" d="M339.61,408.74c0,0,32.11,4.58,46.64,7.64s21.41,13.76,54.29,0"/>
		<path style="fill:none;stroke:#231F20;stroke-width:14;" d="M314.38,256.58c0,0,57.34,22.18,99.39,12.24"/>
		<path style="fill:none;stroke:#231F20;stroke-width:14;" d="M327.38,290.22c0,0,24.47,24.47,64.23,13"/>
		<path style="fill:none;stroke:#231F20;stroke-width:14;" d="M201.22,288.7c0,0-5.5,3.07-14.96,8.39
			c-25.35,14.27-79.19,44.69-132.03,75.45"/>
		<path style="fill:none;stroke:#231F20;stroke-width:14;" d="M481.06,313.37c0,0,1.2,0.31,3.391,0.91
			c20.12,5.52,123.93,35.55,153.34,74.78c29.36,39.13,42.41,96.79,55.21,208.709c0.2,1.78,0.41,3.57,0.61,5.37"/>
		<path style="fill:none;stroke:#231F20;stroke-width:14;" d="M514,138c-7.48,4.07-14.05,3.3-22.46,3.64
			c-41.17,1.64-80.04,13.14-99.04,14.16c-32.58,1.74-49.81,0.74-80.49-10.99c-25.37-9.7-52.13-16.13-79.63-12.39
			c-9.64,1.31-17.37,6.06-22.58,14.74c-2.93,4.89-5.24,30.92-3.45,35.23"/>
		<path style="fill:none;stroke:#231F20;stroke-width:14;" d="M162.56,76.02c0,0-26.6,70.39-6.26,125.14
			c8.25,22.23,28.94,77.22,29.96,95.93c0.1,1.72,0.02,3.13-0.24,4.18"/>
		<path style="fill:none;stroke:#231F20;stroke-width:14;" d="M462.89,298.14c0,0,10.95,1.56,23.46-3.13"/>
		<path style="fill:none;stroke:#231F20;stroke-width:14;stroke-miterlimit:10;" d="M683.98,318.06
			c24.989,13.2,46.779,49.3,64.789,79.89"/>
		<path style="fill:none;stroke:#231F20;stroke-width:14;stroke-miterlimit:10;" d="M607.11,173.95
			c-1.96,21.75-32.53,46.93-58.721,29.65c-9.51-6.28-19.409-11.26-29.08-14.69c-23.54-8.32-45.729-7.42-57.64,6.35
			c-8.92,10.32-11.93,17.79-5.66,24.05c6.29,6.27,18.851,6.26,52.021,21.85c33.2,15.63,55.13,38.91,78.01,52.96
			c21.39,13.18,62.11,27.9,97.93,23.84c2.45-0.27,4.87-0.63,7.261-1.09c3.02-0.56,6.34-0.81,9.89-0.81"/>
		<path style="fill:none;stroke:#231F20;stroke-width:14;stroke-miterlimit:10;" d="M587.71,74.58
			c7.57,20.03,15.49,47.76,18.43,62.77c1.07,5.52,1.801,11.95,2.101,18.39c0.25,5.25-1.021,16.32-1.021,16.32
			c-0.01,0.62-0.04,1.26-0.109,1.89"/>
		<path style="fill:none;stroke:#231F20;stroke-width:14;" d="M417.91,170.66c0,0,4.87,16.01,6.25,38.75
			c0.7,11.34,0.52,24.35-1.56,37.89"/>
		<path style="fill:none;stroke:#231F20;stroke-width:14;" d="M382.71,206.63c0,0,21.21,2.73,41.45,2.78
			c10.37,0.02,20.49-0.66,27.38-2.78"/>
	</g>
</g>
<rect style="fill:none;" width="850.394" height="850.394"/>
</svg>
