<svg xmlns="http://www.w3.org/2000/svg" width="850.394" height="850.394" viewBox="0 0 850.394 850.394" overflow="visible"><path d="M717.21 792.32H562.52l-1.17-.261c.15-10.949.771-22.489 2.12-33.85 4.73-39.729 18.431-77.21 52.61-79.25 7.31 5.48 15.91 8.64 25.11 8.64 7.819 0 15.21-2.279 21.739-6.34 48.211-3.909 53.941 60.451 54.281 111.061z" fill="#0b00ea"/><path d="M410.68 711.14c5.53-36.819 19.57-69.81 51.58-71.72 7.32 5.48 15.92 8.64 25.12 8.64 7.82 0 15.21-2.279 21.74-6.34 49.95-4.05 54.29 65.181 54.29 116.48l.06.01c-1.35 11.36-1.97 22.9-2.12 33.85L407.5 758.2c0-14.97.82-31.36 3.18-47.06zM571.89 590.37l-36.22-1.64c0-32.761-21.63-59.33-48.29-59.33-26.68 0-48.3 26.569-48.3 59.33l-21.65 1.829-1.41-.88c.15-11.01.76-22.63 2.12-34.06 4.73-39.73 18.419-77.22 52.6-79.26 7.319 5.479 15.92 8.64 25.12 8.64 7.819 0 15.199-2.28 21.729-6.33 48.441-3.949 54.001 61.011 54.301 111.701z" fill="#0b00ea"/><path d="M362.23 588.86c49.93-4.061 48.45 71.01 48.45 122.279-2.36 15.7-3.18 32.091-3.18 47.061l-146.89-52.86c0-50.1 9.12-116.05 54.76-118.79 7.31 5.49 15.92 8.66 25.12 8.66 7.82 0 15.21-2.29 21.74-6.35zM265.34 508.54c5.53-36.81 19.58-69.8 51.58-71.72 7.31 5.489 15.92 8.649 25.12 8.649 7.83 0 15.21-2.279 21.75-6.34 49.95-4.05 54.29 65.19 54.29 116.48l.06.01c-1.36 11.43-1.97 23.05-2.12 34.06L381.16 567.9h-.01c4.83-9.24 7.63-20.23 7.63-32.03 0-32.771-21.62-59.33-48.29-59.33-26.68 0-48.3 26.56-48.3 59.33 0 6.14.76 12.07 2.17 17.64l-3.88.78-28.28-4.35c.19-13.39 1.07-27.66 3.14-41.4z" fill="#0b00ea"/><path d="M262.2 549.94c-.03 1.909-.04 3.8-.04 5.67L115.3 498.26c.54-49.46 10.44-111.64 54.73-114.3 7.32 5.49 15.92 8.65 25.12 8.65 7.82 0 15.21-2.28 21.74-6.34 49.94-4.06 48.45 70.99 48.45 122.27-2.07 13.74-2.95 28.01-3.14 41.4z" fill="#0b00ea"/><path d="M687.36 272.05c49.96-4.06 48.449 71.03 48.449 122.33l-150.069-5.85c0-50.1 9.109-116.05 54.75-118.79 7.319 5.49 15.93 8.65 25.13 8.65 7.82 0 15.21-2.28 21.74-6.34z" fill="#ff001c"/><path d="M584.47 229.2c-27.609 6.28-61.26-46.6-61.26-46.6H416.06c-13.12 0-23.75-10.63-23.75-23.75V77.54c0-13.11 10.63-23.75 23.75-23.75H538.2c13.12 0 23.76 10.64 23.76 23.75v85.16c-1.37 43.98 22.51 66.5 22.51 66.5z" fill="#fff"/><path d="M216.89 386.27c-6.53 4.06-13.92 6.34-21.74 6.34-9.2 0-17.8-3.16-25.12-8.65-13.89-10.42-23.17-29.22-23.17-50.68 0-32.77 21.62-59.33 48.29-59.33s48.3 26.56 48.3 59.33c0 23.16-10.8 43.22-26.56 52.99zM362.23 588.86c-6.53 4.06-13.92 6.35-21.74 6.35-9.2 0-17.81-3.17-25.12-8.66-9.93-7.43-17.49-19.14-21.01-33.04-1.41-5.569-2.17-11.5-2.17-17.64 0-32.771 21.62-59.33 48.3-59.33 26.67 0 48.29 26.56 48.29 59.33 0 11.8-2.8 22.79-7.63 32.03-4.66 8.9-11.19 16.17-18.92 20.96zM316.92 436.82c-13.9-10.42-23.18-29.22-23.18-50.68 0-32.77 21.63-59.33 48.3-59.33s48.29 26.56 48.29 59.33c0 23.16-10.8 43.22-26.54 52.99-6.54 4.061-13.92 6.34-21.75 6.34-9.2 0-17.81-3.16-25.12-8.65zM517.59 478.67c-6.53 4.05-13.91 6.33-21.729 6.33-9.2 0-17.801-3.16-25.12-8.64-13.9-10.41-23.181-29.21-23.181-50.69 0-32.76 21.61-59.32 48.301-59.32 26.67 0 48.29 26.56 48.29 59.32-.001 23.18-10.811 43.24-26.561 53zM509.12 641.72c-6.53 4.061-13.92 6.34-21.74 6.34-9.2 0-17.8-3.159-25.12-8.64-13.9-10.42-23.18-29.23-23.18-50.69 0-32.761 21.62-59.33 48.3-59.33 26.66 0 48.29 26.569 48.29 59.33 0 23.15-10.8 43.21-26.55 52.99zM662.93 681.26c-6.529 4.061-13.92 6.34-21.739 6.34-9.2 0-17.801-3.159-25.11-8.64-13.91-10.42-23.19-29.229-23.19-50.69 0-32.77 21.62-59.329 48.301-59.329 26.67 0 48.3 26.56 48.3 59.329-.002 23.15-10.802 43.21-26.562 52.99zM687.36 272.05c-6.53 4.06-13.92 6.34-21.74 6.34-9.2 0-17.811-3.16-25.13-8.65-13.891-10.42-23.17-29.22-23.17-50.68 0-32.77 21.62-59.33 48.3-59.33 26.66 0 48.29 26.56 48.29 59.33 0 23.16-10.8 43.22-26.55 52.99z" fill="#ffeec8"/><g fill="none" stroke="#231f20" stroke-width="20.402"><path d="M170.03 383.96c-13.89-10.42-23.17-29.22-23.17-50.68 0-32.77 21.62-59.33 48.29-59.33s48.3 26.56 48.3 59.33c0 23.16-10.8 43.22-26.56 52.99-6.53 4.06-13.92 6.34-21.74 6.34-9.2 0-17.8-3.16-25.12-8.65z"/><path d="M216.85 386.27h.04c49.94-4.06 48.45 70.99 48.45 122.27v.06M115.27 502.75c0-1.48.01-2.98.03-4.49.54-49.46 10.44-111.64 54.73-114.3.98-.06 1.97-.09 2.98-.09M316.92 436.82c-13.9-10.42-23.18-29.22-23.18-50.68 0-32.77 21.63-59.33 48.3-59.33s48.29 26.56 48.29 59.33c0 23.16-10.8 43.22-26.54 52.99-6.54 4.061-13.92 6.34-21.75 6.34-9.2 0-17.81-3.16-25.12-8.65z"/><path d="M363.74 439.13h.05c49.95-4.05 54.29 65.19 54.29 116.48M262.16 555.61c0-1.87.01-3.761.04-5.67.19-13.391 1.07-27.66 3.14-41.4 5.53-36.81 19.58-69.8 51.58-71.72.98-.061 1.97-.09 2.98-.09M470.74 476.36c-13.9-10.41-23.181-29.21-23.181-50.69 0-32.76 21.61-59.32 48.301-59.32 26.67 0 48.29 26.56 48.29 59.32 0 23.18-10.811 43.24-26.561 53-6.53 4.05-13.91 6.33-21.729 6.33-9.2 0-17.8-3.16-25.12-8.64z"/><path d="M517.56 478.67h.03c48.44-3.95 54 61.01 54.3 111.7.011 1.61.011 3.2.011 4.77M415.98 595.14c0-1.8.01-3.62.04-5.46.15-11.01.76-22.63 2.12-34.06 4.73-39.73 18.419-77.22 52.6-79.26.97-.061 1.96-.091 2.97-.091M640.49 269.74c-13.891-10.42-23.17-29.22-23.17-50.68 0-32.77 21.62-59.33 48.3-59.33 26.66 0 48.29 26.56 48.29 59.33 0 23.16-10.8 43.22-26.55 52.99-6.53 4.06-13.92 6.34-21.74 6.34-9.2 0-17.81-3.16-25.13-8.65z"/><path d="M687.32 272.05h.04c49.96-4.06 48.449 71.03 48.449 122.33M585.74 388.53c0-50.1 9.109-116.05 54.75-118.79.979-.06 1.97-.09 2.979-.09M294.36 553.51c-1.41-5.569-2.17-11.5-2.17-17.64 0-32.771 21.62-59.33 48.3-59.33 26.67 0 48.29 26.56 48.29 59.33 0 11.8-2.8 22.79-7.63 32.03-4.66 8.899-11.19 16.17-18.92 20.96-6.53 4.06-13.92 6.35-21.74 6.35-9.2 0-17.81-3.17-25.12-8.66-9.93-7.43-17.49-19.14-21.01-33.04z"/><path d="M362.19 588.86h.04c49.93-4.061 48.45 71.01 48.45 122.279v.051M260.61 705.34c0-50.1 9.12-116.05 54.76-118.79.98-.06 1.97-.09 2.98-.09M535.67 588.73c0 23.149-10.8 43.21-26.55 52.989-6.53 4.061-13.92 6.34-21.74 6.34-9.2 0-17.8-3.159-25.12-8.64-13.9-10.419-23.18-29.229-23.18-50.689 0-32.761 21.62-59.33 48.3-59.33 26.66 0 48.29 26.57 48.29 59.33z"/><path d="M509.08 641.72h.04c49.95-4.05 54.29 65.181 54.29 116.48M407.5 758.2c0-14.97.82-31.36 3.18-47.061 5.53-36.819 19.57-69.81 51.58-71.72.971-.06 1.96-.09 2.971-.09M616.08 678.96c-13.91-10.42-23.19-29.229-23.19-50.69 0-32.77 21.62-59.329 48.301-59.329 26.67 0 48.3 26.56 48.3 59.329 0 23.15-10.8 43.211-26.561 52.99-6.529 4.061-13.92 6.34-21.739 6.34-9.201 0-17.801-3.16-25.111-8.64z"/><path d="M662.89 681.26h.04c48.21-3.91 53.94 60.45 54.28 111.061.01 1.83.021 3.63.021 5.42M561.31 797.74c0-1.87.011-3.771.04-5.681.15-10.949.771-22.489 2.12-33.85 4.73-39.729 18.431-77.21 52.61-79.25.97-.06 1.96-.09 2.97-.09M523.21 182.6H416.06c-13.12 0-23.75-10.63-23.75-23.75V77.54c0-13.11 10.63-23.75 23.75-23.75H538.2c13.12 0 23.76 10.64 23.76 23.75v85.16c-1.37 43.98 22.51 66.5 22.51 66.5-27.61 6.28-61.26-46.6-61.26-46.6z"/></g><path fill="none" d="M0 0h850.394v850.394H0z"/></svg>