<?xml version="1.0" encoding="iso-8859-1"?>
<!-- Generator: Adobe Illustrator 12.0.1, SVG Export Plug-In . SVG Version: 6.00 Build 51448)  -->
<!DOCTYPE svg PUBLIC "-//W3C//DTD SVG 1.1//EN" "http://www.w3.org/Graphics/SVG/1.1/DTD/svg11.dtd" [
	<!ENTITY ns_svg "http://www.w3.org/2000/svg">
	<!ENTITY ns_xlink "http://www.w3.org/1999/xlink">
]>
<svg  version="1.1" id="Layer_1" xmlns="&ns_svg;" xmlns:xlink="&ns_xlink;" width="850.394" height="850.394"
	 viewBox="0 0 850.394 850.394" style="overflow:visible;enable-background:new 0 0 850.394 850.394;" xml:space="preserve">
<g>
	<path style="fill:#50264C;" d="M316.621,635.857h-65.5v-573h70.5v204.539c29.688-37.359,67.586-56.039,113.688-56.039
		c25.523,0,49.68,5.148,72.477,15.445c22.789,10.297,41.539,24.766,56.258,43.398c14.711,18.641,26.234,41.117,34.57,67.445
		s12.508,54.484,12.508,84.453c0,71.164-17.578,126.164-52.734,165c-35.156,38.844-77.336,58.258-126.547,58.258
		c-48.954,0-87.36-20.508-115.219-61.523V635.857z M315.621,425.232c0,49.75,6.758,85.688,20.273,107.82
		c22.094,36.203,51.977,54.305,89.664,54.305c30.672,0,57.18-13.344,79.532-40.039s33.531-66.477,33.531-119.352
		c0-54.172-10.727-94.148-32.164-119.93c-21.445-25.781-47.367-38.68-77.773-38.68c-30.672,0-57.188,13.352-79.54,40.047
		S315.621,374.709,315.621,425.232z"/>
</g>
<rect style="fill:none;" width="850.394" height="850.394"/>
</svg>
