<?xml version="1.0" encoding="iso-8859-1"?>
<!-- Generator: Adobe Illustrator 12.0.1, SVG Export Plug-In . SVG Version: 6.00 Build 51448)  -->
<!DOCTYPE svg PUBLIC "-//W3C//DTD SVG 1.1//EN" "http://www.w3.org/Graphics/SVG/1.1/DTD/svg11.dtd" [
	<!ENTITY ns_svg "http://www.w3.org/2000/svg">
	<!ENTITY ns_xlink "http://www.w3.org/1999/xlink">
]>
<svg  version="1.1" id="Layer_1" xmlns="&ns_svg;" xmlns:xlink="&ns_xlink;" width="850.394" height="850.394"
	 viewBox="0 0 850.394 850.394" style="overflow:visible;enable-background:new 0 0 850.394 850.394;" xml:space="preserve">
<g>
	<g id="XMLID_23_">
		<g>
			<path style="fill:#A3D9FF;" d="M475.81,186.88v-0.01c0.03-0.06,0.051-0.11,0.08-0.17c21.28,4.37,42.07,7.99,58.66,21.89
				c43.3,36.27,43.3,76.05,36.28,107.64c-7.021,31.59-2.35,129.87,3.51,166.14c5.84,36.27,12.86,141.57,5.84,201.24
				c-7.02,59.67-28.66,81.319-28.66,81.319s-31.689,34.44-130.56,34.44c-104.71,0-131.04-34.521-131.04-34.521
				s-21.64-21.649-28.67-81.319c-7.02-59.67,0-164.971,5.86-201.24c5.85-36.26,10.53-134.55,3.5-166.14
				c-7.02-31.59-7.01-71.38,36.28-107.64c14.43-12.1,33.87-19.57,52.7-24.18h0.01c3.05,18.69,29.4,34.56,61.37,32.95
				C456.66,215.49,468.55,202.76,475.81,186.88z M506.64,485.92c23.931-23.8,3.45-55-15.37-70.79
				c-17.59-14.77-23.77-28.55-13.359-62.73l-2.97-1.48c-29.721,29.72-44.33,62.51-36.46,103.42
				C444.2,484.12,480.6,511.83,506.64,485.92z M407.01,559.75c23.92-23.8,3.44-55-15.37-70.78
				c-17.61-14.77-23.78-28.55-13.37-62.729l-2.98-1.49c-29.71,29.73-44.32,62.52-36.45,103.44
				C344.56,557.96,380.96,585.66,407.01,559.75z"/>
			<path style="fill:#FBEE34;" d="M491.27,415.13c18.82,15.79,39.301,46.99,15.37,70.79c-26.04,25.91-62.439-1.8-68.159-31.58
				c-7.87-40.91,6.739-73.7,36.46-103.42l2.97,1.48C467.5,386.58,473.68,400.36,491.27,415.13z"/>
			<path style="fill:#0B00EA;" d="M364.36,183.53v-98.6c0-2.48,0.49-4.9,1.43-7.22l2.74,0.81c0,8.99,23.48,16.27,52.43,16.27
				c28.96,0,52.43-7.28,52.43-16.27l0.99-0.81c0.94,2.32,1.43,4.74,1.43,7.22v101.94v0.01c-7.26,15.88-19.149,28.61-54.839,30.4
				c-31.97,1.61-58.32-14.26-61.37-32.95c1.12-0.28,2.23-0.55,3.35-0.8H364.36z"/>
			<path style="fill:#0B00EA;" d="M474.38,77.71l-0.99,0.81c0,8.99-23.47,16.27-52.43,16.27c-28.95,0-52.43-7.28-52.43-16.27
				l-2.74-0.81c5.7-14.17,27.85-24.73,54.29-24.73C446.53,52.98,468.68,63.54,474.38,77.71z"/>
			<path style="fill:#FBEE34;" d="M391.64,488.97c18.81,15.78,39.29,46.98,15.37,70.78c-26.05,25.91-62.45-1.79-68.17-31.56
				c-7.87-40.921,6.74-73.71,36.45-103.44l2.98,1.49C367.86,460.42,374.03,474.2,391.64,488.97z"/>
		</g>
		<g>
			<line style="fill:none;stroke:#000000;stroke-width:21.0604;" x1="475.81" y1="186.88" x2="475.81" y2="194.47"/>
			<path style="fill:none;stroke:#000000;stroke-width:21.0604;" d="M364.36,191.98v-8.45v-98.6c0-2.48,0.49-4.9,1.43-7.22
				c5.7-14.17,27.85-24.73,54.29-24.73c26.45,0,48.6,10.56,54.3,24.73c0.94,2.32,1.43,4.74,1.43,7.22v101.94"/>
			<path style="fill:none;stroke:#000000;stroke-width:21.0604;" d="M359.59,184.33c-18.83,4.61-38.27,12.08-52.7,24.18
				c-43.29,36.26-43.3,76.05-36.28,107.64c7.03,31.59,2.35,129.88-3.5,166.14c-5.86,36.27-12.88,141.57-5.86,201.24
				c7.03,59.67,28.67,81.319,28.67,81.319s26.33,34.521,131.04,34.521c98.87,0,130.56-34.44,130.56-34.44
				s21.641-21.649,28.66-81.319c7.021-59.67,0-164.971-5.84-201.24c-5.859-36.271-10.53-134.55-3.51-166.14
				c7.02-31.59,7.02-71.37-36.28-107.64c-16.59-13.9-37.38-17.52-58.66-21.89"/>
			<path style="fill:none;stroke:#000000;stroke-width:21.0604;" d="M362.95,183.53c-1.12,0.25-2.23,0.52-3.35,0.8"/>
			<path style="fill:none;stroke:#000000;stroke-width:21.0604;" d="M473.39,78.52c0,8.99-23.47,16.27-52.43,16.27
				c-28.95,0-52.43-7.28-52.43-16.27"/>
			<path style="fill:none;stroke:#000000;stroke-width:21.0604;" d="M475.89,186.7c-0.029,0.06-0.05,0.11-0.08,0.17v0.01
				c-7.26,15.88-19.149,28.61-54.839,30.4c-31.97,1.61-58.32-14.26-61.37-32.95h-0.01c-0.19-1.19-0.29-2.4-0.29-3.62"/>
			<path style="fill:none;stroke:#000000;stroke-width:14.0403;" d="M375.29,424.75c-29.71,29.73-44.32,62.52-36.45,103.44
				c5.72,29.77,42.12,57.47,68.17,31.56c23.92-23.8,3.44-55-15.37-70.78c-17.61-14.77-23.78-28.55-13.37-62.729L375.29,424.75z"/>
			<path style="fill:none;stroke:#000000;stroke-width:14.0403;" d="M474.94,350.92c-29.721,29.72-44.33,62.51-36.46,103.42
				c5.72,29.78,42.119,57.49,68.159,31.58c23.931-23.8,3.45-55-15.37-70.79c-17.59-14.77-23.77-28.55-13.359-62.73L474.94,350.92z"
				/>
		</g>
	</g>
</g>
<rect style="fill:none;" width="850.394" height="850.394"/>
<g id="XMLID_1_">
	<g>
		<path style="fill:#FFEEC8;" d="M755.03,292.563c-1.659-1.961-2.76-4.469-3.62-6.905c0.234-0.088,0.36-0.134,0.36-0.134
			s-1.503-9.114-0.638-17.758c0.386-3.86,1.247-7.627,2.923-10.45c5.435-9.131,11.604-18.266,17.527-17.031
			c1.592,0.332,2.763,0.466,3.624,0.483l22.315,35.608c0,0,5.183,13.331,0,21.479c-5.188,8.144-20.245,13.57-27.897,16.04
			c-5.876,1.894-9.416,3.356-12.986,2.587c0.219,2.146,0.979,6.686,3.608,12.474c3.704,8.144-3.701,16.044-7.896,16.044
			c-4.196,0-5.927-5.926-6.422-9.875c-0.491-3.948-8.022-4.569-12.835-9.383c-4.813-4.813-2.218-14.07,0.247-16.536
			c2.47-2.469,20.24-15.305,20.24-15.305L755.03,292.563z"/>
		<path style="fill:#FFFFFF;" d="M751.41,285.658c-2.079,0.76-12.777,4.49-22.529,4.49c-10.865,0-25.163-3.058-25.163-3.058
			s-0.269-1.814-1.134-5.363c-0.294-1.201-0.659-2.608-1.104-4.208l0.739-0.202c2.163-3.738,2.646-13.402,8.32-15.011
			c4.994-1.415,10.173,2.276,14.633,3.709c5.834,1.869,10.765,0.743,15.805-2.579c3.386-2.238,8.804,0.05,10.156,4.331
			c-0.865,8.644,0.638,17.758,0.638,17.758S751.645,285.569,751.41,285.658z"/>
		<path style="fill:#FFEEC8;" d="M738.927,123.62c-2.406-2.071-2.78-1.235-2.78-1.235s-2.322-0.126-5.275,0.147
			c2.411-0.332,12.067-2.176,18.989-11.189l1.793,0.134l15.679,8.194l23.252,23.193c-1.772-0.991-3.772-1.68-6.031-1.961
			c-13.252-1.643-36.928-2.655-39.334-5.406C742.968,132.932,741.241,125.598,738.927,123.62z"/>
		<path style="fill:#FFEEC8;" d="M717.036,105.568c-3.255,0.479-4.607,2.612-8.24,4.624c1.878,6.388,19.144,5.695,17.599-1.075
			c-1.475-0.559-3.806-2.335-5.175-2.927C719.947,105.631,718.452,105.362,717.036,105.568z M679.682,186.373
			c12.344-8.324,21.827-37.531,21.827-37.531c1.747-1.748,4.545,3.566,11.756-3.65c7.216-7.211-3.335-26.586-3.335-26.586
			c-3.326-3.326-10.256-1.785-14.452-0.412c0,0-17.904,2.113-17.904-36.099c0-12.819,3.107-27.422,18.972-38.657
			c6.552-4.637,25.427-9.27,39.988-0.626c14.562,8.64,18.984,23.793,20.198,34.835c1.818,16.59-1.789,27.078-6.871,33.697
			c-6.922,9.013-16.578,10.857-18.989,11.189c-0.059,0.008-0.121,0.013-0.181,0.021c-4.321,0.42-9.895,1.709-11.558,5.468
			c0,0-2.848,21.878,6.48,26.002s14.994-0.84,14.994-0.84s16.674,23.818,31.181,27.128c1.739,0.395,3.541,0.634,5.359,0.735
			l-0.139,2.037c0.429,2.529,0.773,5.154,0.995,7.833c1.798,21.719-0.386,49.095-0.386,49.095s-0.059,0.806-2.411,0.756
			c-0.861-0.017-2.032-0.151-3.624-0.483c-5.923-1.235-12.093,7.9-17.527,17.031c-1.676,2.822-2.537,6.59-2.923,10.45
			c-1.353-4.28-6.771-6.569-10.156-4.331c-5.04,3.322-9.971,4.448-15.805,2.579c-4.46-1.433-9.639-5.124-14.633-3.709
			c-5.674,1.609-6.157,11.273-8.32,15.011l-0.739,0.202c-0.789-2.831-1.835-6.275-3.209-10.324
			c-4.443-13.083-17.526-25.918-17.526-25.918s-1.495-1.025-3.092-3.516c-2.045-3.175-4.254-8.74-3.742-17.598
			c0.546-9.387,1.604-22.58,2.378-31.807C677.468,187.759,678.606,187.1,679.682,186.373z"/>
		<path style="fill:#FFEEC8;" d="M730.69,122.553c0.06-0.008,0.122-0.013,0.181-0.021c2.953-0.273,5.275-0.147,5.275-0.147
			s0.374-0.836,2.78,1.235c2.314,1.978,4.041,9.312,6.292,11.877c2.406,2.751,26.082,3.763,39.334,5.406
			c2.259,0.281,4.259,0.97,6.031,1.961c8.605,4.805,11.76,16.729,12.864,23.478c1.386,8.476-12.948,15.418-26.301,14.704
			c-1.818-0.101-3.62-0.34-5.359-0.735c-14.507-3.31-31.181-27.128-31.181-27.128s-5.666,4.964-14.994,0.84
			s-6.48-26.002-6.48-26.002C720.796,124.263,726.369,122.973,730.69,122.553z"/>
		<path style="fill:#FFEEC8;" d="M697.481,289.686l2.271,0.462c0,0,17.771,12.835,20.24,15.305
			c2.466,2.465,5.062,11.722,0.248,16.535c-4.813,4.813-12.344,5.435-12.84,9.383c-0.491,3.948-2.222,9.874-6.417,9.874
			c-4.192,0-11.601-7.9-7.896-16.044c2.629-5.788,3.394-10.328,3.612-12.474c-3.566,0.772-7.115-0.689-12.995-2.587
			c-7.652-2.47-22.71-7.896-27.893-16.04c-5.183-8.148,0-21.479,0-21.479l21.84-34.86c1.597,2.491,3.092,3.516,3.092,3.516
			s13.083,12.835,17.526,25.918c1.374,4.049,2.42,7.493,3.209,10.324c0.445,1.6,0.811,3.007,1.104,4.208l-0.608,0.029
			C700.976,284.62,699.648,287.594,697.481,289.686z"/>
		<path style="fill:#F0947D;" d="M708.796,110.192c3.633-2.012,4.985-4.146,8.24-4.624c1.416-0.206,2.911,0.063,4.184,0.622
			c1.369,0.592,3.7,2.369,5.175,2.927C727.939,115.888,710.674,116.581,708.796,110.192z"/>
		<path style="fill:#FFEEC8;" d="M689.875,121.642c-1.44,2.684-1.584,10.765-1.584,13.348c0,3.654-22.961,12.919-34.729,19.236
			c-1.794,0.962-3.276,2.155-4.486,3.511l-0.004-0.004l25.394-34.491l15.767-2.23C690.118,121.196,690.001,121.406,689.875,121.642z
			"/>
		<path style="fill:#FFEEC8;" d="M701.509,148.841c0,0-9.483,29.207-21.827,37.531c-1.075,0.727-2.214,1.386-3.394,1.982
			c-12.336,6.208-29.342,5.128-31.169-3.586c-1.437-6.838-2.826-19.488,3.956-27.032c1.21-1.356,2.692-2.549,4.486-3.511
			c11.769-6.317,34.729-15.582,34.729-19.236c0-2.583,0.144-10.664,1.584-13.348c0.126-0.235,0.243-0.445,0.356-0.63
			c1.252-2.066,1.794-1.521,1.794-1.521s1.398-0.63,3.452-1.298c4.196-1.374,11.126-2.915,14.452,0.412
			c0,0,10.551,19.375,3.335,26.586C706.054,152.407,703.256,147.094,701.509,148.841z"/>
	</g>
	<g>
		<path style="fill:none;stroke:#231F20;stroke-width:8.8201;" d="M695.478,118.193c4.196-1.374,11.126-2.915,14.452,0.412
			c0,0,10.551,19.375,3.335,26.586c-7.211,7.216-10.009,1.902-11.756,3.65c0,0-9.483,29.207-21.827,37.531
			c-1.075,0.727-2.214,1.386-3.394,1.982c-12.336,6.208-29.342,5.128-31.169-3.586c-1.437-6.838-2.826-19.488,3.956-27.032
			c1.21-1.356,2.692-2.549,4.486-3.511c11.769-6.317,34.729-15.582,34.729-19.236c0-2.583,0.144-10.664,1.584-13.348
			c0.126-0.235,0.243-0.445,0.356-0.63c1.252-2.066,1.794-1.521,1.794-1.521S693.424,118.861,695.478,118.193z"/>
		<polyline style="fill:none;stroke:#231F20;stroke-width:8.8201;" points="649.071,157.732 674.465,123.242 690.231,121.012 
			690.24,121.012 		"/>
		<polyline style="fill:none;stroke:#231F20;stroke-width:8.8201;" points="796.174,148.438 790.584,142.865 767.332,119.672 
			751.653,111.478 		"/>
		<path style="fill:none;stroke:#231F20;stroke-width:8.8201;" d="M730.69,122.553c-0.247,0.034-0.382,0.042-0.382,0.042"/>
		<path style="fill:none;stroke:#231F20;stroke-width:8.8201;" d="M695.478,118.193c0,0-17.904,2.113-17.904-36.099
			c0-12.819,3.107-27.422,18.972-38.657c6.552-4.637,25.427-9.27,39.988-0.626c14.562,8.64,18.984,23.793,20.198,34.835
			c1.818,16.59-1.789,27.078-6.871,33.697c-6.922,9.013-16.578,10.857-18.989,11.189"/>
		<path style="fill:none;stroke:#231F20;stroke-width:2.94;" d="M708.796,110.192c3.633-2.012,4.985-4.146,8.24-4.624
			c1.416-0.206,2.911,0.063,4.184,0.622c1.369,0.592,3.7,2.369,5.175,2.927C727.939,115.888,710.674,116.581,708.796,110.192z"/>
		<path style="fill:none;stroke:#231F20;stroke-width:8.8201;" d="M676.288,188.334c0,0.009,0,0.013,0,0.021
			c-0.773,9.228-1.832,22.42-2.378,31.807c-0.512,8.858,1.697,14.423,3.742,17.598c1.597,2.491,3.092,3.516,3.092,3.516
			s13.083,12.835,17.526,25.918c1.374,4.049,2.42,7.493,3.209,10.324c0.445,1.6,0.811,3.007,1.104,4.208
			c0.865,3.549,1.134,5.363,1.134,5.363s14.298,3.058,25.163,3.058c9.752,0,20.45-3.729,22.529-4.49
			c0.234-0.088,0.36-0.134,0.36-0.134s-1.503-9.114-0.638-17.758c0.386-3.86,1.247-7.627,2.923-10.45
			c5.435-9.131,11.604-18.266,17.527-17.031c1.592,0.332,2.763,0.466,3.624,0.483c2.353,0.05,2.411-0.756,2.411-0.756
			s2.184-27.376,0.386-49.095c-0.222-2.679-0.566-5.304-0.995-7.833"/>
		<path style="fill:none;stroke:#231F20;stroke-width:8.8201;" d="M702.219,277.316c2.163-3.738,2.646-13.402,8.32-15.011
			c4.994-1.415,10.173,2.276,14.633,3.709c5.834,1.869,10.765,0.743,15.805-2.579c3.386-2.238,8.804,0.05,10.156,4.331
			c0.004,0.004,0.004,0.004,0.004,0.008"/>
		<path style="fill:none;stroke:#231F20;stroke-width:8.8201;" d="M678.123,237.013l-0.471,0.748l-21.84,34.86
			c0,0-5.183,13.331,0,21.479c5.183,8.144,20.24,13.57,27.893,16.04c5.88,1.898,9.429,3.36,12.995,2.587
			c1.075-0.231,2.154-0.664,3.297-1.353c4.939-2.961,5.679-3.7,5.679-3.7"/>
		<path style="fill:none;stroke:#231F20;stroke-width:8.8201;" d="M679.757,299.283c5.237-0.303,13.474-5.905,17.279-9.19
			c0.151-0.13,0.302-0.265,0.445-0.407c2.167-2.092,3.494-5.065,4.494-7.93"/>
		<path style="fill:none;stroke:#231F20;stroke-width:8.8201;" d="M699.753,290.147c0,0,17.771,12.835,20.24,15.305
			c2.466,2.465,5.062,11.722,0.248,16.535c-4.813,4.813-12.344,5.435-12.84,9.383c-0.491,3.948-2.222,9.874-6.417,9.874
			c-4.192,0-11.601-7.9-7.896-16.044c2.629-5.788,3.394-10.328,3.612-12.474c0.092-0.874,0.092-1.353,0.092-1.353"/>
		<path style="fill:none;stroke:#231F20;stroke-width:8.8201;" d="M775.207,240.768l22.315,35.608c0,0,5.183,13.331,0,21.479
			c-5.188,8.144-20.245,13.57-27.897,16.04c-5.876,1.894-9.416,3.356-12.986,2.587c-1.075-0.227-2.159-0.664-3.306-1.353
			c-4.935-2.961-5.674-3.7-5.674-3.7"/>
		<path style="fill:none;stroke:#231F20;stroke-width:8.8201;" d="M773.577,303.038c-5.237-0.303-13.474-5.905-17.283-9.19
			c-0.453-0.395-0.873-0.827-1.264-1.285c-1.659-1.961-2.76-4.469-3.62-6.905c-0.018-0.05-0.034-0.097-0.051-0.147"/>
		<path style="fill:none;stroke:#231F20;stroke-width:8.8201;" d="M753.581,293.902c0,0-17.771,12.835-20.24,15.305
			c-2.465,2.466-5.061,11.723-0.247,16.536c4.813,4.813,12.344,5.435,12.835,9.383c0.495,3.948,2.226,9.875,6.422,9.875
			c4.195,0,11.601-7.9,7.896-16.044c-2.63-5.788-3.39-10.328-3.608-12.474c-0.093-0.874-0.093-1.353-0.093-1.353"/>
		<path style="fill:none;stroke:#231F20;stroke-width:5.8801;" d="M695.768,83.93c6.124,2.856,11.252,1.394,15.363-1.487"/>
		<path style="fill:none;stroke:#231F20;stroke-width:5.8801;" d="M742.11,83.93c-6.119,2.856-11.247,1.394-15.363-1.487"/>
		<path style="fill:none;stroke:#231F20;stroke-width:8.8201;" d="M730.69,122.553c-4.321,0.42-9.895,1.709-11.558,5.468
			c0,0-2.848,21.878,6.48,26.002s14.994-0.84,14.994-0.84s16.674,23.818,31.181,27.128c1.739,0.395,3.541,0.634,5.359,0.735
			c13.353,0.714,27.687-6.229,26.301-14.704c-1.104-6.75-4.259-18.673-12.864-23.478c-1.772-0.991-3.772-1.68-6.031-1.961
			c-13.252-1.643-36.928-2.655-39.334-5.406c-2.251-2.566-3.978-9.899-6.292-11.877c-2.406-2.071-2.78-1.235-2.78-1.235
			s-2.322-0.126-5.275,0.147C730.813,122.541,730.75,122.545,730.69,122.553z"/>
		<path style="fill:none;stroke:#231F20;stroke-width:5.8801;" d="M714.5,96.702c1.835,2.579,5.258,2.978,7.9,1.235"/>
	</g>
</g>
</svg>
