<svg xmlns="http://www.w3.org/2000/svg" width="850.394" height="850.394" viewBox="0 0 850.394 850.394" overflow="visible"><path d="M752.635 129.02c24.996 14.896 28.604 51.658 11.721 73.625-9.083 11.806-44.018 31.653-70.15.613.161-.992.168-1.997.047-2.996l2.049.035c1.763-3.488 8.154-23.662 19.733-23.662 24.976-5.885 43.5-9.663 28.584-51.424l.005-.028a48.568 48.568 0 0 1 8.011 3.837z"/><path d="M694.55 168.992c-.544-.535-5.068-5.415-2.202-17.495 1.087-4.556 2.858-8.652 5.188-12.223l.012.016 22.913 8.462 8.323-24.695-.008-.597c5.191-.105 10.562.785 15.847 2.723l-.005.028c14.916 41.761-3.608 45.539-28.584 51.424-11.579 0-17.971 20.174-19.733 23.662l-2.049-.035c-1.229-10.237-15.778-20.796-19.303-27.654-3.013-5.902-4.124-13.426-3.961-23.275 7.33 5.048 22.533 18.741 23.562 19.659z" fill="#fff"/><path d="M728.776 122.46l.008.597-8.323 24.695-22.913-8.462-.012-.016c6.869-10.581 18.546-16.601 31.24-16.814z"/><path d="M694.205 203.258c-.499 3.073-2.435 6.09-6.477 8.921-3.8 2.661-8.021 2.327-12.277.103-13.121-6.849-26.538-31.636-28.956-41.714-2.089-8.73 2.084-17.122 4.676-24.587 1.363-3.955 2.286-7.661 1.602-11.014-1.239-6.072.344-21.723 2.53-23.832 4.835-4.675 23.226-15.009 16.948 20.591-.709 6.593-1.17 12.422-1.263 17.607-.163 9.85.948 17.373 3.961 23.275 3.524 6.858 18.074 17.417 19.303 27.654.121.999.114 2.004-.047 2.996z" fill="#fff"/><path d="M646.495 170.567c2.418 10.078 15.835 34.865 28.956 41.714-15.541 9.604-56.656 10.008-73.796 1.033 7.844-4.456 13.963-10.066 17.423-13.453 8.333-8.112 15.578-40.679 2.863-50.475 5.418-.986 23.936-3.844 29.229-3.406-2.591 7.465-6.764 15.857-4.675 24.587z" fill="#fff"/><path d="M601.655 213.314c-14.733 8.4-35.5 12.76-56.019-9.282-11.236-12.072-10.447-27.24-1.268-42.005l.041.007c-2.413 16.582 6.405 21.708 19.271 23.977 14.006 2.47 27.811-16.738 31.892-25.897.192-.448.398-.894.586-1.314 5.617.693 15.901-3.375 22.465-11.26a12.293 12.293 0 0 1 3.317 1.846c12.715 9.796 5.47 42.363-2.863 50.475-3.459 3.387-9.578 8.997-17.422 13.453z" fill="#fff"/><path d="M618.624 147.54c-6.563 7.885-16.848 11.953-22.465 11.26 7.347-15.783 14.983-19.468 9.101-40.361-2.334-8.306-8.067-8.098-15.915-11.338-2.021-.838-4.483-1.74-7.174-2.64 6.342-14.826 8.107-16.641 18.389-34.84-12.03 21.208 3.97 25.63 3.982 33.838 14.274 6.5 22.45 16.799 19.735 32.194-.809 4.592-2.9 8.574-5.653 11.887z" fill="#fff"/><path d="M582.171 104.461c2.69.899 5.153 1.801 7.174 2.64 7.848 3.24 13.581 3.032 15.915 11.338 5.883 20.893-1.754 24.578-9.101 40.361-.188.42-.394.866-.586 1.314-4.081 9.159-17.886 28.367-31.892 25.897-12.866-2.269-21.685-7.395-19.271-23.977.207-1.495.519-3.098.931-4.796 4.73-19.674 18.076-24.946 25.258-29.987-10.881-2.599-28.965-3.321-34.592-12.803-5.699-9.636 7.629-35.391 19.212-50.044-4.158 6.141-.795 26.774 2.104 34.854 6.59 0 16.773 2.532 24.848 5.203z" fill="#fff"/><path d="M424.515 271.312l.071-.001-.004 426.105c.008 48.346-67.18 87.535-150.048 87.535-82.627 0-149.667-38.976-150.048-87.132-.017-.145-.009-.271-.012-.413l.001-426.092s-4.411-60.346 52.964-80.942c0 0 11.811-4.933 30.329-8.272l.304-1.081c16.261 4.554 39.679 7.422 65.701 7.418 24.859.003 47.33-2.61 63.479-6.821l.014.002c19.538 3.332 32.116 8.597 32.116 8.597 53.943 19.363 55.181 74.557 55.133 81.097z" fill="#a3d9ff"/><path d="M362.564 121.977l.003 45.155c-1.402 5.62-10.787 10.698-25.302 14.488l-.014-.002c-16.148 4.21-38.62 6.824-63.479 6.821-26.022.003-49.44-2.864-65.701-7.418-14.464-4.053-23.292-9.45-23.296-15.375l-.228.002.006-43.68c-.01 12.598 39.845 22.8 88.995 22.807 49.168-.005 89.008-10.214 89.016-22.798z" fill="#fff"/><path d="M362.564 121.977c-.008 12.584-39.848 22.793-89.015 22.798-49.15-.007-89.005-10.209-88.995-22.807-.006-12.586 39.834-22.796 89-22.8 49.154-.008 89.007 10.208 89.01 22.809zm-31.505.312c5.498.005 9.973-2.224 9.976-4.973s-4.465-4.982-9.977-4.991c-5.528.003-10.003 2.233-10.006 4.982.012 2.752 4.479 4.985 10.007 4.982zm-26.729 9.077c5.515-.006 9.976-2.238 9.979-4.987s-4.465-4.982-9.979-4.977c-5.528.003-9.989 2.235-9.992 4.984-.003 2.75 4.467 4.969 9.992 4.98zm-21.334-10.664c5.514-.006 9.989-2.235 9.992-4.984-.011-2.751-4.479-4.985-9.993-4.979-5.514.006-9.989 2.235-9.992 4.984s4.481 4.971 9.993 4.979zm-22.685 10.655c5.512.008 9.987-2.222 9.99-4.971s-4.479-4.985-9.979-4.977c-5.525-.01-10 2.219-10.003 4.968.011 2.752 4.478 4.985 9.992 4.98zm-22.183-9.312c5.514-.005 9.989-2.235 9.976-4.973.005-2.763-4.464-4.982-9.976-4.99-5.528.003-9.989 2.235-9.992 4.984s4.465 4.983 9.992 4.979zm-25.985 6.871c5.5-.008 9.975-2.238 9.978-4.987s-4.48-4.971-9.979-4.977c-5.528.003-10.002 2.233-10.005 4.982.01 2.751 4.48 4.971 10.006 4.982z" fill="#fff"/><path d="M341.035 117.316c-.003 2.749-4.478 4.979-9.976 4.973-5.528.003-9.995-2.23-10.006-4.982.003-2.749 4.478-4.979 10.006-4.982 5.511.008 9.979 2.242 9.976 4.991zM314.309 126.379c-.003 2.749-4.464 4.981-9.979 4.987-5.525-.011-9.995-2.23-9.992-4.979.002-2.749 4.464-4.981 9.992-4.984 5.514-.006 9.982 2.227 9.979 4.976zM292.988 115.718c-.003 2.749-4.478 4.979-9.992 4.984-5.512-.008-9.996-2.23-9.993-4.979s4.478-4.979 9.992-4.984c5.514-.006 9.982 2.227 9.993 4.979zM270.301 126.386c-.003 2.749-4.478 4.979-9.99 4.971-5.514.005-9.981-2.228-9.993-4.979.003-2.749 4.478-4.979 10.003-4.968 5.501-.009 9.983 2.227 9.98 4.976zM248.104 117.072c.014 2.738-4.461 4.968-9.976 4.973-5.528.003-9.996-2.23-9.993-4.979s4.464-4.981 9.992-4.984c5.513.008 9.982 2.228 9.977 4.99zM222.121 123.929c-.003 2.749-4.478 4.979-9.978 4.987-5.526-.011-9.996-2.23-10.006-4.982.003-2.749 4.478-4.979 10.005-4.982 5.499.006 9.982 2.228 9.979 4.977z"/><g fill="none" stroke="#000"><path stroke-width="17.654" d="M424.59 704.93l-.008-7.514.004-426.105M124.486 697.819l-.006 5.498M207.768 182.1c-18.518 3.339-30.329 8.272-30.329 8.272-57.375 20.596-52.964 80.942-52.964 80.942l-.001 426.092M424.502 271.948s.011-.225.013-.636c.048-6.54-1.19-61.734-55.133-81.096 0 0-12.578-5.265-32.116-8.597M362.564 121.977c-.008 12.584-39.848 22.793-89.015 22.798-49.15-.007-89.005-10.209-88.995-22.807-.006-12.586 39.834-22.796 89-22.8 49.154-.008 89.007 10.208 89.01 22.809zM337.251 181.617c-16.148 4.21-38.62 6.824-63.479 6.821-26.022.003-49.44-2.864-65.701-7.418-14.464-4.053-23.292-9.45-23.296-15.375"/><path d="M362.774 165.638a5.433 5.433 0 0 1-.207 1.494c-1.402 5.62-10.787 10.698-25.302 14.488l-.014-.002M184.555 121.967l-.007 43.68.001 1.928M362.564 121.977l.003 45.155M424.582 697.416c.008 48.346-67.18 87.535-150.048 87.535-82.627 0-149.667-38.976-150.048-87.132-.017-.145-.009-.271-.012-.413" stroke-width="17.654"/><path d="M544.41 162.035c-2.413 16.582 6.405 21.708 19.271 23.977 14.006 2.47 27.811-16.738 31.892-25.897.192-.448.398-.894.586-1.314 7.347-15.783 14.983-19.468 9.101-40.361-2.334-8.306-8.067-8.098-15.915-11.338-2.021-.838-4.483-1.74-7.174-2.64-8.075-2.671-18.258-5.204-24.849-5.204-2.898-8.08-6.262-28.713-2.104-34.854-11.583 14.653-24.911 40.408-19.212 50.044 5.627 9.482 23.711 10.205 34.592 12.803-7.182 5.041-20.527 10.313-25.258 29.987a49.26 49.26 0 0 0-.93 4.797z" stroke-width="8"/><path d="M581.786 105.357c.125-.304.263-.606.385-.896 6.342-14.826 8.107-16.641 18.389-34.84-12.03 21.208 3.97 25.63 3.982 33.838 14.274 6.5 22.45 16.799 19.735 32.194-.81 4.591-2.9 8.573-5.653 11.886-6.563 7.885-16.848 11.953-22.465 11.26" stroke-width="8"/><path d="M616.728 146.964c.668.146 1.3.343 1.896.576a12.293 12.293 0 0 1 3.317 1.846c12.715 9.796 5.47 42.363-2.863 50.475-3.46 3.387-9.579 8.997-17.423 13.453-14.733 8.4-35.5 12.76-56.019-9.282-11.236-12.072-10.447-27.24-1.268-42.005" stroke-width="8"/><path d="M600.596 212.731c.347.203.696.392 1.06.583 17.14 8.975 58.255 8.571 73.796-1.033M621.941 149.386c5.418-.986 23.936-3.844 29.229-3.406" stroke-width="8"/><path d="M670.988 149.333c.093-5.185.554-11.014 1.263-17.607 6.277-35.601-12.113-25.266-16.948-20.591-2.187 2.109-3.77 17.76-2.53 23.832.685 3.353-.238 7.059-1.602 11.014-2.592 7.465-6.765 15.857-4.676 24.587 2.418 10.078 15.835 34.865 28.956 41.714 4.256 2.225 8.478 2.558 12.277-.103 4.042-2.831 5.978-5.848 6.477-8.921.161-.992.168-1.997.047-2.996-1.229-10.237-15.778-20.796-19.303-27.654-3.012-5.902-4.124-13.426-3.961-23.275z" stroke-width="8"/><path d="M669.338 148.248c.488.285 1.033.65 1.65 1.085 7.33 5.048 22.533 18.741 23.609 19.71 0 0-.012-.016-.048-.051-.544-.535-5.068-5.415-2.202-17.495 1.087-4.556 2.858-8.652 5.188-12.223 6.869-10.581 18.546-16.601 31.24-16.814 5.191-.105 10.562.785 15.847 2.723a48.613 48.613 0 0 1 8.012 3.836c24.996 14.896 28.604 51.658 11.721 73.625-9.083 11.806-44.018 31.653-70.15.613l-.011-.016" stroke-width="8"/></g><path fill="none" d="M0 0h850.394v850.394H0z"/></svg>