<?xml version="1.0" encoding="iso-8859-1"?>
<!-- Generator: Adobe Illustrator 12.0.1, SVG Export Plug-In . SVG Version: 6.00 Build 51448)  -->
<!DOCTYPE svg PUBLIC "-//W3C//DTD SVG 1.1//EN" "http://www.w3.org/Graphics/SVG/1.1/DTD/svg11.dtd" [
	<!ENTITY ns_svg "http://www.w3.org/2000/svg">
	<!ENTITY ns_xlink "http://www.w3.org/1999/xlink">
]>
<svg  version="1.1" id="Layer_1" xmlns="&ns_svg;" xmlns:xlink="&ns_xlink;" width="850.394" height="850.394"
	 viewBox="0 0 850.394 850.394" style="overflow:visible;enable-background:new 0 0 850.394 850.394;" xml:space="preserve">
<g id="XMLID_4_">
	<g>
		<path style="fill:#FFFFC2;" d="M462.67,403.1c165.22,0,299.15,81,299.15,180.9c0,99.91-133.931,180.9-299.15,180.9
			c-165.21,0-299.14-80.99-299.14-180.9c0-4.77,0.31-9.49,0.9-14.17c1.07-8.33,3.07-16.51,5.95-24.49
			c25.91-71.96,122.65-127.94,243.85-139.88C429.99,403.91,446.18,403.1,462.67,403.1z M681.15,513.99
			c4.39-13.62-10.53-30.65-33.341-38.03c-18.13-5.86-35.79-3.87-44.489,4.03c-39.311-16.04-87.96-25.521-140.65-25.521
			c-28.41,0-55.65,2.761-80.89,7.82c-0.4-0.43-0.81-0.86-1.23-1.28c-16.91-17.02-38.85-22.63-49-12.54
			c-6.31,6.271-6.6,17.12-1.85,28.521c-12.13,4.54-23.45,9.7-33.81,15.37c-21.96,1.3-39.1,12.359-39.1,25.81
			c0,0.75,0.05,1.5,0.16,2.23c-19.58,18.96-30.76,40.88-30.76,64.25c0,24.619,12.41,47.63,33.98,67.26
			c-3.57,9.63-3.15,18.67,2.07,24.45c6.93,7.659,20.39,7.5,34.04,0.79c33.08,18.04,75.78,30.729,123.5,35.54
			c13.911,1.409,28.24,2.14,42.89,2.14c130.61,0,236.48-58.28,236.48-130.18c0-21.811-9.74-42.37-26.971-60.42
			C676.58,521.76,679.75,518.3,681.15,513.99z"/>
		<path style="fill:#FAA41F;" d="M335.77,631.81c-0.07,11.271,8.1,25.46,22.01,36.2c13.67,10.57,29.16,14.92,40.02,12.29
			c-3.41,5.141-4.77,10.601-3.43,15.75c2.35,9.01,12.36,14.851,25.46,16.17l-0.05,0.471c-47.72-4.811-90.42-17.5-123.5-35.54
			c5.29-2.591,10.6-6.181,15.57-10.67c11.88-10.74,18.78-23.961,19.2-34.73L335.77,631.81z"/>
		<path style="fill:#FAA41F;" d="M418.66,586.86c-6.31,0.6-11.5,3.069-14.66,7.479c-8.34,11.641,0.72,32.4,20.23,46.351
			c9.88,7.069,20.54,11.029,29.74,11.71l-0.649,5.67c-7.13-0.761-15.2-0.181-23.45,1.96c-7.15,1.859-13.61,4.68-19.01,8.1
			c3.06-11.8-5.34-28.76-21.38-41.16c-18.98-14.649-41.47-17.35-50.21-6.02c-2.34,3.03-3.47,6.75-3.5,10.859l-4.72-0.06
			c0.21-5.35-1.19-10.1-4.38-13.63c-4.71-5.22-12.47-6.811-21.25-5.17l-0.56-2.99c6.85-1.32,12.21-4.6,14.91-9.79
			c2.25-4.31,2.36-9.39,0.69-14.65l4.76-0.56c1.08,3.83,3.08,7.04,6.02,9.31c11.32,8.771,32.4,0.5,47.09-18.46
			c6.96-9,11.24-18.79,12.6-27.529l2.65,0.43c-2.62,15.15,1.09,28.271,10.5,32.72c4.22,2.011,9.08,2.021,14.06,0.36L418.66,586.86z"
			/>
		<path style="fill:#FAA41F;" d="M492.35,636.52c-12.069,20.73-11.83,43.36,0.551,50.58c12.359,7.2,32.18-3.739,44.26-24.47
			c12.07-20.72,11.84-43.36-0.53-50.57C524.27,604.85,504.44,615.8,492.35,636.52z M505.62,613.43
			c12.77-6.47,14.34-29.06,3.49-50.449c-10.851-21.391-29.99-33.48-42.761-27.011c-12.77,6.48-14.34,29.07-3.489,50.46
			C473.71,607.82,492.85,619.91,505.62,613.43z M590.1,540.99c10.28-21.681,8.11-44.21-4.819-50.351
			c-12.94-6.14-31.761,6.45-42.04,28.12c-10.26,21.681-8.11,44.23,4.83,50.351C561,575.25,579.83,562.66,590.1,540.99z
			 M419.83,712.22c7.04,0.7,14.97,0.11,23.08-2c23.21-6.029,39.109-22.149,35.51-36.02c-2.32-8.931-12.17-14.74-25.1-16.13
			l0.649-5.67c8.971,0.67,16.55-1.79,20.66-7.54c8.34-11.65-0.72-32.391-20.229-46.351c-12.12-8.66-25.41-12.67-35.74-11.649
			l-0.52-5.07c10.26-3.42,21.05-13.9,27.959-28.48c10.28-21.67,8.12-44.21-4.81-50.34c-12.94-6.149-31.76,6.45-42.04,28.12
			c-2.81,5.93-4.69,11.92-5.67,17.62l-2.65-0.43c1.5-9.681-0.58-18.08-6.53-22.681c-11.32-8.77-32.4-0.5-47.08,18.471
			c-10.86,14.029-15.18,29.989-12.1,40.89l-4.76,0.56c-3.23-10.199-13.17-21.09-27.2-28.42c-21.27-11.09-43.88-9.79-50.49,2.91
			c-6.63,12.69,5.24,31.971,26.5,43.07c12.59,6.56,25.65,8.79,35.59,6.88l0.56,2.99c-9.1,1.7-19.29,6.87-28.34,15.06
			c-8.12,7.33-13.91,15.82-16.91,23.9c-21.57-19.63-33.98-42.641-33.98-67.26c0-23.37,11.18-45.29,30.76-64.25
			c1.89,13.27,20.53,23.689,43.26,23.689c23.98,0,43.43-11.609,43.43-25.92c0-14.32-19.45-25.93-43.43-25.93
			c-1.46,0-2.9,0.04-4.32,0.12c10.36-5.67,21.68-10.83,33.81-15.37c2.88,6.95,7.64,14.109,14.05,20.56
			c16.9,17.021,38.84,22.63,49,12.54c9.91-9.84,4.95-30.99-10.97-47.8c25.24-5.06,52.48-7.82,80.89-7.82
			c52.69,0,101.34,9.48,140.65,25.521c-2.25,2.029-3.91,4.47-4.811,7.27c-4.41,13.63,10.521,30.66,33.34,38.04
			c15.591,5.04,30.841,4.271,40.33-1.069c17.23,18.05,26.971,38.609,26.971,60.42c0,71.899-105.87,130.18-236.48,130.18
			c-14.65,0-28.979-0.73-42.89-2.14L419.83,712.22z M652.78,612.18c12.77-6.47,14.33-29.06,3.489-50.449
			c-10.85-21.381-29.989-33.48-42.76-27.011c-12.779,6.48-14.34,29.07-3.49,50.46C620.86,606.57,640.01,618.66,652.78,612.18z
			 M621.79,643.61c8.34-11.641-0.72-32.391-20.23-46.351c-19.52-13.95-42.069-15.81-50.399-4.17
			c-8.34,11.641,0.72,32.4,20.229,46.351C590.9,653.39,613.47,655.26,621.79,643.61z M533.99,515.24
			c4.39-13.62-10.53-30.66-33.34-38.03c-22.82-7.38-44.9-2.32-49.301,11.3c-4.409,13.63,10.521,30.66,33.341,38.04
			C507.51,533.93,529.58,528.86,533.99,515.24z"/>
		<path style="fill:#F6CC4B;" d="M385.77,129.73c0,14.13-56.37,25.62-126.57,25.97c-1.11,0.01-2.23,0.01-3.35,0.01
			c-2.24,0-4.47-0.01-6.69-0.03c-68.65-0.7-123.24-12.05-123.24-25.95c0-14.35,58.17-25.99,129.93-25.99
			C327.6,103.74,385.77,115.38,385.77,129.73z"/>
		<path style="fill:#7A7878;" d="M95.74,518.74c10.58,11.109,37.55,20.52,73.8,26.37l0.84,0.229c-2.88,7.98-4.88,16.16-5.95,24.49
			l-0.23-0.03c-43.13-7.64-71.49-20.59-71.49-35.27c0-2.48,1.35-5.45,3.03-7.94V518.74z"/>
		<path style="fill:#7A7878;" d="M259.2,155.7c70.2-0.35,126.57-11.84,126.57-25.97c0-14.35-58.17-25.99-129.92-25.99
			c-71.76,0-129.93,11.64-129.93,25.99c0,13.9,54.59,25.25,123.24,25.95c-74.37-0.65-136.04-11.54-153.42-26.1
			c-3.2-2.68-4.9-5.48-4.9-8.37c0-19.05,74.02-34.5,165.34-34.5c91.31,0,165.34,15.45,165.34,34.5c0,4.17-3.54,8.16-10.03,11.86
			C388.63,146.1,329.23,155.44,259.2,155.7z"/>
		<path style="fill:#7A7878;" d="M414.21,133.15v27.89c-20.82,14.09-83.7,24.32-158.03,24.32c-77.48,0-142.52-11.12-160.44-26.13
			v-29.65c17.38,14.56,79.05,25.45,153.42,26.1c2.22,0.02,4.45,0.03,6.69,0.03c1.12,0,2.24,0,3.35-0.01
			c70.03-0.26,129.43-9.6,152.29-22.63L414.21,133.15z"/>
		<path style="fill:#ABD153;" d="M414.21,405.28l0.02,0.18c-121.2,11.94-217.94,67.92-243.85,139.88l-0.84-0.229
			c-36.25-5.851-63.22-15.261-73.8-26.37V159.23c17.92,15.01,82.96,26.13,160.44,26.13c74.33,0,137.21-10.23,158.03-24.32V405.28z"
			/>
		<path style="fill:#F6CC4B;" d="M647.81,475.96c22.811,7.38,37.73,24.41,33.341,38.03c-1.4,4.31-4.57,7.77-8.971,10.24
			c-16.64-17.461-40.279-32.58-68.859-44.24C612.02,472.09,629.68,470.1,647.81,475.96z"/>
		<path style="fill:#F6CC4B;" d="M656.27,561.73c10.841,21.39,9.28,43.979-3.489,50.449c-12.771,6.48-31.92-5.609-42.761-27
			c-10.85-21.39-9.289-43.979,3.49-50.46C626.28,528.25,645.42,540.35,656.27,561.73z"/>
		<path style="fill:#F6CC4B;" d="M672.18,524.23c-9.489,5.34-24.739,6.109-40.33,1.069c-22.819-7.38-37.75-24.41-33.34-38.04
			c0.9-2.8,2.561-5.24,4.811-7.27C631.9,491.65,655.54,506.77,672.18,524.23z"/>
		<path style="fill:#F6CC4B;" d="M601.56,597.26c19.511,13.96,28.57,34.71,20.23,46.351c-8.32,11.649-30.89,9.779-50.4-4.17
			c-19.51-13.95-28.569-34.71-20.229-46.351C559.49,581.45,582.04,583.31,601.56,597.26z"/>
		<path style="fill:#F6CC4B;" d="M585.28,490.64c12.93,6.141,15.1,28.67,4.819,50.351c-10.27,21.67-29.1,34.26-42.029,28.12
			c-12.94-6.12-15.09-28.67-4.83-50.351C553.52,497.09,572.34,484.5,585.28,490.64z"/>
		<path style="fill:#F6CC4B;" d="M536.63,612.06c12.37,7.21,12.601,29.851,0.53,50.57c-12.08,20.73-31.9,31.67-44.26,24.47
			c-12.381-7.22-12.62-29.85-0.551-50.58C504.44,615.8,524.27,604.85,536.63,612.06z"/>
		<path style="fill:#F6CC4B;" d="M500.65,477.21c22.81,7.37,37.729,24.41,33.34,38.03c-4.41,13.62-26.48,18.689-49.3,11.31
			c-22.82-7.38-37.75-24.41-33.341-38.04C455.75,474.89,477.83,469.83,500.65,477.21z"/>
		<path style="fill:#F6CC4B;" d="M509.11,562.98c10.85,21.39,9.279,43.979-3.49,50.449c-12.771,6.48-31.91-5.609-42.76-27
			c-10.851-21.39-9.28-43.979,3.489-50.46C479.12,529.5,498.26,541.59,509.11,562.98z"/>
		<path style="fill:#F6CC4B;" d="M454.4,598.51c19.51,13.96,28.569,34.7,20.229,46.351c-4.11,5.75-11.689,8.21-20.66,7.54
			c-9.2-0.681-19.859-4.641-29.74-11.71c-19.51-13.95-28.57-34.71-20.23-46.351c3.16-4.41,8.35-6.88,14.66-7.479
			C428.99,585.84,442.28,589.85,454.4,598.51z"/>
		<path style="fill:#F6CC4B;" d="M453.32,658.07c12.93,1.39,22.779,7.199,25.1,16.13c3.6,13.87-12.3,29.99-35.51,36.02
			c-8.11,2.11-16.04,2.7-23.08,2c-13.1-1.319-23.11-7.16-25.46-16.17c-1.34-5.149,0.02-10.609,3.43-15.75
			c4.22-1.01,7.75-3.08,10.19-6.25c1.36-1.76,2.31-3.75,2.87-5.92c5.4-3.42,11.86-6.24,19.01-8.1
			C438.12,657.89,446.19,657.31,453.32,658.07z"/>
		<path style="fill:#F6CC4B;" d="M441.29,502.97c12.93,6.13,15.09,28.67,4.81,50.34c-6.909,14.58-17.699,25.061-27.959,28.48
			c-4.98,1.66-9.84,1.65-14.06-0.36c-9.41-4.449-13.12-17.569-10.5-32.72c0.98-5.7,2.86-11.69,5.67-17.62
			C409.53,509.42,428.35,496.82,441.29,502.97z"/>
		<path style="fill:#F6CC4B;" d="M389.48,626.97c16.04,12.4,24.44,29.36,21.38,41.16c-5.62,3.55-10.11,7.74-13.06,12.17
			c-10.86,2.63-26.35-1.72-40.02-12.29c-13.91-10.74-22.08-24.93-22.01-36.2c0.03-4.109,1.16-7.829,3.5-10.859
			C348.01,609.62,370.5,612.32,389.48,626.97z"/>
		<path style="fill:#FFFFFF;" d="M410.86,668.13c-0.56,2.17-1.51,4.16-2.87,5.92c-2.44,3.17-5.97,5.24-10.19,6.25
			C400.75,675.87,405.24,671.68,410.86,668.13z"/>
		<path style="fill:#F6CC4B;" d="M381.78,462.29c15.92,16.81,20.88,37.96,10.97,47.8c-10.16,10.09-32.1,4.48-49-12.54
			c-6.41-6.45-11.17-13.609-14.05-20.56C345.75,470.96,363.23,466,381.78,462.29z"/>
		<path style="fill:#F6CC4B;" d="M384.4,525.6c5.95,4.601,8.03,13,6.53,22.681c-1.36,8.739-5.64,18.529-12.6,27.529
			c-14.69,18.96-35.77,27.23-47.09,18.46c-2.94-2.27-4.94-5.479-6.02-9.31c-3.08-10.9,1.24-26.86,12.1-40.89
			C352,525.1,373.08,516.83,384.4,525.6z"/>
		<path style="fill:#F6CC4B;" d="M380.55,461.01c0.42,0.42,0.83,0.851,1.23,1.28c-18.55,3.71-36.03,8.67-52.08,14.7
			c-4.75-11.4-4.46-22.25,1.85-28.521C341.7,438.38,363.64,443.99,380.55,461.01z"/>
		<path style="fill:#F6CC4B;" d="M300.21,492.24c23.98,0,43.43,11.609,43.43,25.93c0,14.311-19.45,25.92-43.43,25.92
			c-22.73,0-41.37-10.42-43.26-23.689c10.64-10.301,23.77-19.73,38.94-28.04C297.31,492.28,298.75,492.24,300.21,492.24z"/>
		<path style="fill:#F6CC4B;" d="M326.67,618.12c3.19,3.53,4.59,8.28,4.38,13.63c-0.42,10.77-7.32,23.99-19.2,34.73
			c-4.97,4.489-10.28,8.079-15.57,10.67c-13.84-7.54-25.99-16.011-36.11-25.24c3-8.08,8.79-16.57,16.91-23.9
			c9.05-8.189,19.24-13.359,28.34-15.06C314.2,611.31,321.96,612.9,326.67,618.12z"/>
		<path style="fill:#F6CC4B;" d="M320.46,585.52c1.67,5.261,1.56,10.341-0.69,14.65c-2.7,5.19-8.06,8.47-14.91,9.79
			c-9.94,1.91-23-0.32-35.59-6.88c-21.26-11.1-33.13-30.38-26.5-43.07c6.61-12.7,29.22-14,50.49-2.91
			C307.29,564.43,317.23,575.32,320.46,585.52z"/>
		<path style="fill:#F6CC4B;" d="M260.17,651.91c10.12,9.229,22.27,17.7,36.11,25.24c-13.65,6.71-27.11,6.869-34.04-0.79
			C257.02,670.58,256.6,661.54,260.17,651.91z"/>
		<path style="fill:#FFFFFF;" d="M295.89,492.36c-15.17,8.31-28.3,17.739-38.94,28.04c-0.11-0.73-0.16-1.48-0.16-2.23
			C256.79,504.72,273.93,493.66,295.89,492.36z"/>
	</g>
	<g>
		<path style="fill:none;stroke:#231F20;stroke-width:21;" d="M414.23,405.46c15.76-1.55,31.95-2.36,48.44-2.36
			c165.22,0,299.15,81,299.15,180.9c0,99.91-133.931,180.9-299.15,180.9c-165.21,0-299.14-80.99-299.14-180.9
			c0-4.77,0.31-9.49,0.9-14.17c1.07-8.33,3.07-16.51,5.95-24.49C196.29,473.38,293.03,417.4,414.23,405.46z"/>
		<path style="fill:none;stroke:#231F20;stroke-width:14;" d="M381.78,462.29c25.24-5.06,52.48-7.82,80.89-7.82
			c52.69,0,101.34,9.48,140.65,25.521"/>
		<path style="fill:none;stroke:#231F20;stroke-width:14;" d="M295.89,492.36c10.36-5.67,21.68-10.83,33.81-15.37"/>
		<path style="fill:none;stroke:#231F20;stroke-width:14;" d="M260.17,651.91c-21.57-19.63-33.98-42.641-33.98-67.26
			c0-23.37,11.18-45.29,30.76-64.25"/>
		<path style="fill:none;stroke:#231F20;stroke-width:14;" d="M672.18,524.23c17.23,18.05,26.971,38.609,26.971,60.42
			c0,71.899-105.87,130.18-236.48,130.18c-14.65,0-28.979-0.73-42.89-2.14c-47.72-4.811-90.42-17.5-123.5-35.54"/>
		<polyline style="fill:none;stroke:#231F20;stroke-width:21;" points="95.74,129.58 95.74,159.23 95.74,518.74 95.74,526.59 
			95.74,530.36 		"/>
		<path style="fill:none;stroke:#231F20;stroke-width:21;" d="M249.16,155.68c-74.37-0.65-136.04-11.54-153.42-26.1
			c-3.2-2.68-4.9-5.48-4.9-8.37c0-19.05,74.02-34.5,165.34-34.5c91.31,0,165.34,15.45,165.34,34.5c0,4.17-3.54,8.16-10.03,11.86
			c-22.86,13.03-82.26,22.37-152.29,22.63"/>
		<path style="fill:none;stroke:#231F20;stroke-width:14;" d="M414.22,161.03c0,0-0.01,0-0.01,0.01
			c-20.82,14.09-83.7,24.32-158.03,24.32c-77.48,0-142.52-11.12-160.44-26.13l-0.01-0.01"/>
		<path style="fill:none;stroke:#231F20;stroke-width:14;" d="M169.54,545.11c-36.25-5.851-63.22-15.261-73.8-26.37l-0.01-0.01"/>
		<polyline style="fill:none;stroke:#231F20;stroke-width:21;" points="414.21,133.15 414.21,161.04 414.21,405.28 		"/>
		<path style="fill:none;stroke:#231F20;stroke-width:21;" d="M164.2,569.8c-43.13-7.64-71.49-20.59-71.49-35.27
			c0-2.48,1.35-5.45,3.03-7.94c0.23-0.33,0.46-0.66,0.69-0.97"/>
		<path style="fill:none;stroke:#231F20;stroke-width:14;" d="M249.16,155.68c-68.65-0.7-123.24-12.05-123.24-25.95
			c0-14.35,58.17-25.99,129.93-25.99c71.75,0,129.92,11.64,129.92,25.99c0,14.13-56.37,25.62-126.57,25.97
			c-1.11,0.01-2.23,0.01-3.35,0.01C253.61,155.71,251.38,155.7,249.16,155.68z"/>
		<path style="fill:none;stroke:#231F20;stroke-width:14;" d="M295.89,492.36c1.42-0.08,2.86-0.12,4.32-0.12
			c23.98,0,43.43,11.609,43.43,25.93c0,14.311-19.45,25.92-43.43,25.92c-22.73,0-41.37-10.42-43.26-23.689
			c-0.11-0.73-0.16-1.48-0.16-2.23C256.79,504.72,273.93,493.66,295.89,492.36z"/>
		<path style="fill:none;stroke:#231F20;stroke-width:14;" d="M381.78,462.29c15.92,16.81,20.88,37.96,10.97,47.8
			c-10.16,10.09-32.1,4.48-49-12.54c-6.41-6.45-11.17-13.609-14.05-20.56c-4.75-11.4-4.46-22.25,1.85-28.521
			c10.15-10.09,32.09-4.479,49,12.54C380.97,461.43,381.38,461.86,381.78,462.29z"/>
		<path style="fill:none;stroke:#231F20;stroke-width:14;" d="M325.22,584.96c-3.08-10.9,1.24-26.86,12.1-40.89
			C352,525.1,373.08,516.83,384.4,525.6c5.95,4.601,8.03,13,6.53,22.681c-1.36,8.739-5.64,18.529-12.6,27.529
			c-14.69,18.96-35.77,27.23-47.09,18.46C328.3,592,326.3,588.79,325.22,584.96z"/>
		<path style="fill:none;stroke:#231F20;stroke-width:14;" d="M320.46,585.52c1.67,5.261,1.56,10.341-0.69,14.65
			c-2.7,5.19-8.06,8.47-14.91,9.79c-9.94,1.91-23-0.32-35.59-6.88c-21.26-11.1-33.13-30.38-26.5-43.07
			c6.61-12.7,29.22-14,50.49-2.91C307.29,564.43,317.23,575.32,320.46,585.52z"/>
		<path style="fill:none;stroke:#231F20;stroke-width:14;" d="M466.35,535.97c-12.77,6.48-14.34,29.07-3.489,50.46
			c10.85,21.391,29.989,33.48,42.76,27c12.77-6.47,14.34-29.06,3.49-50.449C498.26,541.59,479.12,529.5,466.35,535.97z"/>
		<path style="fill:none;stroke:#231F20;stroke-width:14;" d="M451.35,488.51c-4.409,13.63,10.521,30.66,33.341,38.04
			c22.819,7.38,44.89,2.311,49.3-11.31c4.39-13.62-10.53-30.66-33.34-38.03C477.83,469.83,455.75,474.89,451.35,488.51z"/>
		<path style="fill:none;stroke:#231F20;stroke-width:14;" d="M418.14,581.79c10.26-3.42,21.05-13.9,27.959-28.48
			c10.28-21.67,8.12-44.21-4.81-50.34c-12.94-6.149-31.76,6.45-42.04,28.12c-2.81,5.93-4.69,11.92-5.67,17.62
			c-2.62,15.15,1.09,28.271,10.5,32.72C408.3,583.44,413.16,583.45,418.14,581.79z"/>
		<path style="fill:none;stroke:#231F20;stroke-width:14;" d="M418.66,586.86c-6.31,0.6-11.5,3.069-14.66,7.479
			c-8.34,11.641,0.72,32.4,20.23,46.351c9.88,7.069,20.54,11.029,29.74,11.71c8.971,0.67,16.55-1.79,20.66-7.54
			c8.34-11.65-0.72-32.391-20.229-46.351C442.28,589.85,428.99,585.84,418.66,586.86z"/>
		<path style="fill:none;stroke:#231F20;stroke-width:14;" d="M397.8,680.3c-3.41,5.141-4.77,10.601-3.43,15.75
			c2.35,9.01,12.36,14.851,25.46,16.17c7.04,0.7,14.97,0.11,23.08-2c23.21-6.029,39.109-22.149,35.51-36.02
			c-2.32-8.931-12.17-14.74-25.1-16.13c-7.13-0.761-15.2-0.181-23.45,1.96c-7.15,1.859-13.61,4.68-19.01,8.1"/>
		<path style="fill:none;stroke:#231F20;stroke-width:14;" d="M536.63,612.06c-12.36-7.21-32.189,3.74-44.28,24.46
			c-12.069,20.73-11.83,43.36,0.551,50.58c12.359,7.2,32.18-3.739,44.26-24.47C549.23,641.91,549,619.27,536.63,612.06z"/>
		<path style="fill:none;stroke:#231F20;stroke-width:14;" d="M397.8,680.3c4.22-1.01,7.75-3.08,10.19-6.25
			c1.36-1.76,2.31-3.75,2.87-5.92c3.06-11.8-5.34-28.76-21.38-41.16c-18.98-14.649-41.47-17.35-50.21-6.02
			c-2.34,3.03-3.47,6.75-3.5,10.859c-0.07,11.271,8.1,25.46,22.01,36.2C371.45,678.58,386.94,682.93,397.8,680.3z"/>
		<path style="fill:none;stroke:#231F20;stroke-width:14;" d="M331.05,631.75c0.21-5.35-1.19-10.1-4.38-13.63
			c-4.71-5.22-12.47-6.811-21.25-5.17c-9.1,1.7-19.29,6.87-28.34,15.06c-8.12,7.33-13.91,15.82-16.91,23.9
			c-3.57,9.63-3.15,18.67,2.07,24.45c6.93,7.659,20.39,7.5,34.04,0.79c5.29-2.591,10.6-6.181,15.57-10.67
			C323.73,655.74,330.63,642.52,331.05,631.75z"/>
		<path style="fill:none;stroke:#231F20;stroke-width:14;" d="M613.51,534.72c-12.779,6.48-14.34,29.07-3.49,50.46
			c10.841,21.391,29.99,33.48,42.761,27c12.77-6.47,14.33-29.06,3.489-50.449C645.42,540.35,626.28,528.25,613.51,534.72z"/>
		<path style="fill:none;stroke:#231F20;stroke-width:14;" d="M603.32,479.99c-2.25,2.029-3.91,4.47-4.811,7.27
			c-4.41,13.63,10.521,30.66,33.34,38.04c15.591,5.04,30.841,4.271,40.33-1.069c4.4-2.471,7.57-5.931,8.971-10.24
			c4.39-13.62-10.53-30.65-33.341-38.03C629.68,470.1,612.02,472.09,603.32,479.99z"/>
		<path style="fill:none;stroke:#231F20;stroke-width:14;" d="M585.28,490.64c-12.94-6.14-31.761,6.45-42.04,28.12
			c-10.26,21.681-8.11,44.23,4.83,50.351c12.93,6.14,31.76-6.45,42.029-28.12C600.38,519.31,598.21,496.78,585.28,490.64z"/>
		<path style="fill:none;stroke:#231F20;stroke-width:14;" d="M551.16,593.09c-8.34,11.641,0.72,32.4,20.229,46.351
			c19.511,13.949,42.08,15.819,50.4,4.17c8.34-11.641-0.72-32.391-20.23-46.351C582.04,583.31,559.49,581.45,551.16,593.09z"/>
	</g>
</g>
<line style="fill:none;stroke:#231F20;stroke-width:21;" x1="232" y1="155" x2="282" y2="155"/>
<rect style="fill:none;" width="850.394" height="850.394"/>
</svg>
