<svg xmlns="http://www.w3.org/2000/svg" width="850.394" height="850.394" viewBox="0 0 850.394 850.394" overflow="visible"><path d="M267.36 564.06v21.33h-3.05l-.47-3.199c-.66.1-1.2.149-1.61.149-.54 0-.96-.09-1.25-.26-.29-.18-.5-.41-.63-.71-.13-.29-.19-.96-.19-1.99v-12.51h3.68v-2.811h3.52zM212.41 564.21v12.9h-4.87c0-1.58-.41-2.98-1.23-4.19-.81-1.22-2.08-2.22-3.8-3.01-1.18-.54-3.36-1.16-6.54-1.88-3.18-.721-5.15-1.42-5.9-2.11-.77-.68-1.15-1.56-1.15-2.62 0-1.22.54-2.26 1.62-3.13s2.81-1.3 5.18-1.3c2.27 0 3.99.47 5.15 1.42 1.16.95 1.84 2.35 2.05 4.21l3.75-.29h5.74zM374.28 496.68c.47 1.73.7 4.9.7 9.511 0 4.619-.26 7.89-.78 9.819-.39 1.5-.94 2.54-1.65 3.13-.71.58-1.52.87-2.43.87-.91 0-1.71-.29-2.42-.859-.7-.57-1.28-1.721-1.75-3.45-.46-1.72-.69-4.891-.69-9.51 0-4.61.26-7.891.77-9.841.4-1.5.95-2.55 1.66-3.13s1.52-.87 2.43-.87c.91 0 1.71.29 2.42.87.7.58 1.28 1.74 1.74 3.46zM326.33 497.61v13.49h-9.05zM295.76 497.61v13.49h-9.05zM221.48 496.68c.46 1.73.69 4.9.69 9.511 0 4.619-.26 7.89-.77 9.819-.4 1.5-.95 2.54-1.66 3.13-.71.58-1.52.87-2.43.87s-1.71-.29-2.42-.859c-.7-.57-1.28-1.721-1.74-3.45-.47-1.72-.7-4.891-.7-9.51 0-4.61.26-7.891.78-9.841.39-1.5.94-2.55 1.65-3.13s1.52-.87 2.43-.87 1.71.29 2.42.87c.7.58 1.28 1.74 1.75 3.46zM173.52 497.61v13.49h-9.05zM142.95 497.61v13.49h-9.04zM526.04 404.62c.52 1.94.79 5.51.79 10.7s-.3 8.87-.88 11.05c-.45 1.689-1.07 2.86-1.87 3.52-.811.65-1.73.98-2.75.98-1.03 0-1.94-.33-2.74-.97-.8-.641-1.46-1.94-1.979-3.881-.521-1.939-.78-5.51-.78-10.7s.29-8.89.87-11.08c.439-1.69 1.069-2.86 1.88-3.52.8-.65 1.72-.98 2.75-.98 1.02 0 1.93.33 2.729.98.8.661 1.46 1.951 1.98 3.901zM489.25 405.7v15.1h-10.17zM454.86 405.7v15.1H444.7zM371.31 404.62c.52 1.94.78 5.51.78 10.7s-.29 8.87-.87 11.05c-.45 1.689-1.07 2.86-1.88 3.52-.8.65-1.72.98-2.75.98-1.02 0-1.94-.33-2.73-.97-.8-.641-1.46-1.94-1.98-3.881-.52-1.939-.79-5.51-.79-10.7s.3-8.89.88-11.08c.44-1.69 1.07-2.86 1.87-3.52.81-.65 1.73-.98 2.75-.98 1.03 0 1.94.33 2.74.98.79.661 1.45 1.951 1.98 3.901zM334.52 405.7v15.1h-10.17zM300.13 405.7v15.1h-10.16zM216.58 404.62c.52 1.94.78 5.51.78 10.7s-.29 8.87-.87 11.05c-.45 1.689-1.07 2.86-1.88 3.52-.8.65-1.72.98-2.75.98-1.02 0-1.94-.33-2.73-.97-.8-.641-1.46-1.94-1.98-3.881-.52-1.939-.79-5.51-.79-10.7s.3-8.89.88-11.08c.44-1.69 1.07-2.86 1.87-3.52.81-.65 1.73-.98 2.75-.98 1.03 0 1.94.33 2.74.98.79.661 1.45 1.951 1.98 3.901zM179.79 405.7v15.1h-10.17z" fill="#0071bc"/><path d="M754.74 278.28v306.27c0 23.88-18.46 43.24-41.221 43.24H132.99c-22.77 0-41.23-19.36-41.23-43.24V278.28c0-23.88 18.46-43.23 41.23-43.23h580.53c22.76 0 41.22 19.35 41.22 43.23zm-41.22 312.59v-87.6H592.43v87.601h121.09zm-1.14-127.1v-87.6H591.29v87.6h121.09zM570.4 399.65v-6.16h-29.03v7.88h19.31c-3.979 5.01-7.17 10.7-9.55 17.06-2.39 6.36-3.649 12.6-3.79 18.72h8.19c-.03-3.91.609-8.341 1.91-13.3 1.3-4.96 3.18-9.65 5.659-14.06 2.471-4.41 4.911-7.79 7.301-10.14zm-34.7 15.67c0-8.39-1.44-14.4-4.32-18.02-2.41-3.06-5.77-4.59-10.05-4.59-4.29 0-7.64 1.51-10.03 4.53-2.899 3.66-4.35 9.66-4.35 17.99 0 8.49 1.319 14.39 3.96 17.7 2.63 3.311 6.109 4.971 10.42 4.971 4.28 0 7.63-1.511 10.02-4.53 2.9-3.661 4.35-9.681 4.35-18.051zm-32.73 12.92v-7.44h-5.5v-28.09h-7.13l-19.22 28.12v7.41h18.13v8.91h8.22v-8.91h5.5zm-34.39 0v-7.44h-5.5v-28.09h-7.13l-19.21 28.12v7.41h18.12v8.91h8.22v-8.91h5.5zm-52.91-28.59v-6.16h-29.03v7.88h19.31c-3.98 5.01-7.17 10.7-9.55 17.06-2.39 6.36-3.65 12.6-3.79 18.72h8.18c-.02-3.91.62-8.341 1.92-13.3 1.3-4.96 3.18-9.65 5.66-14.06 2.47-4.41 4.91-7.79 7.3-10.14zm-1.94 92.58v-5.471h-25.78v7h17.15c-3.54 4.46-6.38 9.521-8.5 15.181-2.12 5.659-3.24 11.21-3.37 16.659h7.28c-.01-3.479.55-7.42 1.71-11.84a53.16 53.16 0 0 1 5.02-12.51c2.2-3.919 4.37-6.929 6.49-9.019zm-30.85 13.96c0-7.45-1.27-12.79-3.83-16.011-2.15-2.72-5.12-4.08-8.93-4.08s-6.78 1.341-8.9 4.021c-2.58 3.26-3.87 8.59-3.87 15.99 0 7.55 1.17 12.79 3.52 15.729 2.34 2.95 5.42 4.42 9.25 4.42 3.81 0 6.78-1.34 8.9-4.029 2.58-3.25 3.86-8.6 3.86-16.04zm-1.91-90.87c0-8.39-1.44-14.4-4.32-18.02-2.42-3.06-5.77-4.59-10.06-4.59-4.28 0-7.63 1.51-10.02 4.53-2.9 3.66-4.35 9.66-4.35 17.99 0 8.49 1.32 14.39 3.95 17.7 2.64 3.311 6.12 4.971 10.42 4.971 4.29 0 7.63-1.511 10.03-4.53 2.9-3.661 4.35-9.681 4.35-18.051zm-35.73 110.94l9.87-40.689h-5.66l-9.78 40.689h5.57zm3-98.02v-7.44h-5.5v-28.09h-7.13l-19.22 28.12v7.41h18.13v8.91h8.22v-8.91h5.5zm-9.72 89.45v-6.59h-4.88v-25h-6.34l-17.06 25.03v6.561h16.09v7.909h7.31v-7.909h4.88zm-24.67-89.45v-7.44h-5.5v-28.09h-7.13l-19.21 28.12v7.41h18.12v8.91h8.22v-8.91h5.5zm-5.9 89.45v-6.59h-4.88v-25h-6.34l-17.06 25.03v6.561h16.09v7.909h7.31v-7.909h4.88zm-23.22 67.74V571.9c0-2.101-.25-3.69-.75-4.79-.5-1.101-1.33-1.96-2.5-2.591-1.16-.619-2.53-.93-4.11-.93-2.57 0-4.7.98-6.39 2.94V555.93h-3.62v8.13h-7.2v-7.47l-3.63 2.17v5.3h-2.69v2.811h2.69v12.3c0 2.17.15 3.6.45 4.28.29.68.8 1.22 1.53 1.64.72.42 1.74.62 3.06.62.81 0 1.72-.1 2.74-.32h3.05v.04h3.62v-11.68c0-1.67.2-2.99.61-3.94.4-.949 1.07-1.71 2.01-2.26a5.81 5.81 0 0 1 3.02-.84c1.43 0 2.53.42 3.32 1.24.78.819 1.17 2.14 1.17 3.95v13.529h3.62zm-23.79-185.78v-6.16h-29.03v7.88h19.31c-3.98 5.01-7.17 10.7-9.55 17.06-2.39 6.36-3.65 12.6-3.79 18.72h8.18c-.02-3.91.62-8.341 1.92-13.3 1.3-4.96 3.18-9.65 5.66-14.06 2.47-4.41 4.91-7.79 7.3-10.14zm-.01 92.58v-5.471h-25.79v7h17.15c-3.54 4.46-6.37 9.521-8.5 15.181-2.12 5.659-3.24 11.21-3.36 16.659h7.28c-.02-3.479.55-7.42 1.7-11.84 1.15-4.41 2.83-8.58 5.03-12.51 2.19-3.919 4.36-6.929 6.49-9.019zm-10.53 93.2v-21.37h-3.62v21.37h3.62zm0-25.37v-4.13h-3.62v4.13h3.62zm-8.99 25.37v-14.66c0-2.439-.57-4.25-1.72-5.42-1.14-1.17-2.78-1.76-4.91-1.76-2.72 0-4.93 1.24-6.62 3.73-.42-1.181-1.13-2.09-2.14-2.75-1.01-.65-2.31-.98-3.89-.98-1.42 0-2.69.32-3.8.95-1.11.64-2 1.47-2.67 2.52v-3h-3.25v.15h-5.74c-.07-1.729-.55-3.28-1.45-4.64-.9-1.37-2.19-2.41-3.86-3.11-1.68-.71-3.61-1.06-5.8-1.06-1.98 0-3.79.34-5.42 1.01-1.62.67-2.86 1.66-3.7 2.96-.85 1.3-1.27 2.689-1.27 4.18 0 1.36.34 2.59 1.03 3.69.69 1.09 1.74 2.01 3.15 2.75 1.08.58 2.98 1.189 5.7 1.85 2.72.65 4.47 1.13 5.26 1.44 1.24.47 2.13 1.05 2.67 1.729.54.69.81 1.5.81 2.42 0 .91-.28 1.761-.83 2.53-.56.78-1.41 1.39-2.55 1.84-1.14.44-2.45.66-3.94.66-1.68 0-3.18-.29-4.53-.88-1.34-.58-2.33-1.35-2.96-2.311-.64-.949-1.04-2.17-1.22-3.649l-3.69.31c.06 1.98.6 3.75 1.62 5.32 1.03 1.56 2.44 2.73 4.25 3.51 1.8.78 4.03 1.17 6.7 1.17 2.11 0 4-.38 5.68-1.149 1.69-.771 2.98-1.851 3.87-3.24.9-1.39 1.35-2.87 1.35-4.43h4.87v8.319h3.62v-11.09c0-1.939.2-3.43.59-4.47.39-1.03 1.01-1.811 1.88-2.351a5.21 5.21 0 0 1 2.82-.81c1.34 0 2.3.41 2.89 1.21.59.811.89 2.01.89 3.62v13.89h3.62v-12.42c0-2.2.5-3.8 1.5-4.8.99-1 2.24-1.5 3.75-1.5.83 0 1.56.2 2.18.59.62.391 1.05.9 1.28 1.54.24.641.35 1.68.35 3.13v13.46h3.63zm-11.33-79.24c0-7.45-1.28-12.79-3.84-16.011-2.14-2.72-5.12-4.08-8.93-4.08s-6.78 1.341-8.9 4.021c-2.58 3.26-3.86 8.59-3.86 15.99 0 7.55 1.17 12.79 3.51 15.729 2.34 2.95 5.42 4.42 9.25 4.42 3.81 0 6.78-1.34 8.9-4.029 2.58-3.25 3.87-8.6 3.87-16.04zm-3.84-90.87c0-8.39-1.44-14.4-4.32-18.02-2.42-3.06-5.77-4.59-10.06-4.59-4.28 0-7.63 1.51-10.02 4.53-2.9 3.66-4.35 9.66-4.35 17.99 0 8.49 1.32 14.39 3.95 17.7 2.64 3.311 6.12 4.971 10.42 4.971 4.29 0 7.63-1.511 10.03-4.53 2.9-3.661 4.35-9.681 4.35-18.051zm-33.81 110.94l9.88-40.689h-5.67l-9.77 40.689h5.56zm1.08-98.02v-7.44h-5.5v-28.09h-7.13l-19.22 28.12v7.41h18.13v8.91h8.22v-8.91h5.5zm-7.8 89.45v-6.59h-4.88v-25h-6.34l-17.06 25.03v6.561h16.09v7.909h7.31v-7.909h4.88zm-15.67 50.41l1.26-3.35c-1.26-.78-2.5-1.16-3.72-1.16-.84 0-1.62.24-2.32.73-.71.479-1.47 1.479-2.3 3v-3.261h-3.25v21.37h3.62v-11.18c0-1.52.2-2.93.6-4.22.27-.84.72-1.5 1.35-1.98.62-.47 1.33-.71 2.12-.71.88.001 1.76.251 2.64.761zm-10.92-139.86v-7.44h-5.5v-28.09h-7.13l-19.21 28.12v7.41h18.12v8.91h8.22v-8.91h5.5zm-3.98 89.45v-6.59h-4.87v-25h-6.35l-17.06 25.03v6.561h16.09v7.909h7.32v-7.909h4.87zm-1.24 67.74v-29.5h-5.23l-7.09 20.53c-.71 2.08-1.23 3.66-1.57 4.73-.3-.96-.77-2.421-1.41-4.37l-7.01-20.891h-5.85v29.5h3.75v-25.12l8.55 25.12h3.52l8.59-24.68v24.68h3.75z" fill="#0071bc"/><path fill="#ed1e29" d="M592.43 503.27h121.09v87.601H592.43z"/><path fill="#c8c8c8" d="M591.29 376.17h121.09v87.6H591.29z"/><path d="M570.4 393.49v6.16c-2.391 2.35-4.83 5.73-7.301 10.14-2.479 4.41-4.359 9.1-5.659 14.06-1.301 4.959-1.94 9.39-1.91 13.3h-8.19c.141-6.12 1.4-12.36 3.79-18.72 2.38-6.36 5.57-12.05 9.55-17.06h-19.31v-7.88h29.03zM531.38 397.3c2.88 3.62 4.32 9.63 4.32 18.02 0 8.37-1.45 14.39-4.351 18.05-2.39 3.02-5.739 4.53-10.02 4.53-4.311 0-7.79-1.66-10.42-4.971-2.641-3.31-3.96-9.209-3.96-17.7 0-8.33 1.45-14.33 4.35-17.99 2.391-3.02 5.74-4.53 10.03-4.53 4.281.001 7.641 1.531 10.051 4.591zm-4.55 18.02c0-5.19-.271-8.76-.79-10.7-.521-1.95-1.18-3.24-1.98-3.9-.8-.65-1.71-.98-2.729-.98-1.03 0-1.95.33-2.75.98-.811.66-1.44 1.83-1.88 3.52-.58 2.19-.87 5.89-.87 11.08s.26 8.76.78 10.7c.52 1.94 1.18 3.24 1.979 3.881.8.64 1.71.97 2.74.97 1.02 0 1.939-.33 2.75-.98.8-.659 1.42-1.83 1.87-3.52.58-2.181.88-5.861.88-11.051zM502.97 420.8v7.44h-5.5v8.91h-8.22v-8.91h-18.13v-7.41l19.22-28.12h7.13v28.09h5.5zm-13.72 0v-15.1l-10.17 15.1h10.17zM468.58 420.8v7.44h-5.5v8.91h-8.22v-8.91h-18.12v-7.41l19.21-28.12h7.13v28.09h5.5zm-13.72 0v-15.1l-10.16 15.1h10.16zM415.67 393.49v6.16c-2.39 2.35-4.83 5.73-7.3 10.14-2.48 4.41-4.36 9.1-5.66 14.06-1.3 4.959-1.94 9.39-1.92 13.3h-8.18c.14-6.12 1.4-12.36 3.79-18.72 2.38-6.36 5.57-12.05 9.55-17.06h-19.31v-7.88h29.03zM413.73 486.76v5.471c-2.12 2.09-4.29 5.1-6.49 9.02a53.16 53.16 0 0 0-5.02 12.51c-1.16 4.42-1.72 8.36-1.71 11.84h-7.28c.13-5.449 1.25-11 3.37-16.659 2.12-5.66 4.96-10.721 8.5-15.181h-17.15v-7h25.78zM379.05 490.18c2.56 3.221 3.83 8.561 3.83 16.011 0 7.439-1.28 12.79-3.86 16.04-2.12 2.689-5.09 4.029-8.9 4.029-3.83 0-6.91-1.47-9.25-4.42-2.35-2.939-3.52-8.18-3.52-15.729 0-7.4 1.29-12.73 3.87-15.99 2.12-2.68 5.09-4.021 8.9-4.021s6.78 1.36 8.93 4.08zm-4.07 16.01c0-4.61-.23-7.78-.7-9.511-.46-1.72-1.04-2.88-1.74-3.46-.71-.58-1.51-.87-2.42-.87-.91 0-1.72.29-2.43.87s-1.26 1.63-1.66 3.13c-.51 1.95-.77 5.23-.77 9.841 0 4.619.23 7.79.69 9.51.47 1.729 1.05 2.88 1.75 3.45.71.569 1.51.859 2.42.859.91 0 1.72-.29 2.43-.87.71-.59 1.26-1.63 1.65-3.13.52-1.929.78-5.199.78-9.819zM376.65 397.3c2.88 3.62 4.32 9.63 4.32 18.02 0 8.37-1.45 14.39-4.35 18.05-2.4 3.02-5.74 4.53-10.03 4.53-4.3 0-7.78-1.66-10.42-4.971-2.63-3.31-3.95-9.209-3.95-17.7 0-8.33 1.45-14.33 4.35-17.99 2.39-3.02 5.74-4.53 10.02-4.53 4.29.001 7.64 1.531 10.06 4.591zm-4.56 18.02c0-5.19-.26-8.76-.78-10.7-.53-1.95-1.19-3.24-1.98-3.9-.8-.65-1.71-.98-2.74-.98-1.02 0-1.94.33-2.75.98-.8.66-1.43 1.83-1.87 3.52-.58 2.19-.88 5.89-.88 11.08s.27 8.76.79 10.7c.52 1.94 1.18 3.24 1.98 3.881.79.64 1.71.97 2.73.97 1.03 0 1.95-.33 2.75-.98.81-.659 1.43-1.83 1.88-3.52.58-2.181.87-5.861.87-11.051zM355.11 485.57l-9.87 40.69h-5.57l9.78-40.69zM348.24 420.8v7.44h-5.5v8.91h-8.22v-8.91h-18.13v-7.41l19.22-28.12h7.13v28.09h5.5zm-13.72 0v-15.1l-10.17 15.1h10.17zM338.52 511.1v6.591h-4.88v7.909h-7.31v-7.909h-16.09v-6.561l17.06-25.03h6.34v25h4.88zm-12.19 0v-13.49l-9.05 13.489h9.05zM313.85 420.8v7.44h-5.5v8.91h-8.22v-8.91h-18.12v-7.41l19.21-28.12h7.13v28.09h5.5zm-13.72 0v-15.1l-10.16 15.1h10.16zM307.95 511.1v6.591h-4.88v7.909h-7.31v-7.909h-16.09v-6.561l17.06-25.03h6.34v25h4.88zm-12.19 0v-13.49l-9.05 13.489h9.05zM284.73 571.9v13.529h-3.62V571.9c0-1.811-.39-3.131-1.17-3.95-.79-.82-1.89-1.24-3.32-1.24-1.07 0-2.08.28-3.02.84-.94.55-1.61 1.311-2.01 2.26-.41.95-.61 2.271-.61 3.94v11.68h-3.62v-29.5h3.62v10.601c1.69-1.96 3.82-2.94 6.39-2.94 1.58 0 2.95.311 4.11.93 1.17.631 2 1.49 2.5 2.591.5 1.098.75 2.688.75 4.788zM263.84 582.19l.47 3.199c-1.02.221-1.93.32-2.74.32-1.32 0-2.34-.2-3.06-.62-.73-.42-1.24-.96-1.53-1.64-.3-.681-.45-2.11-.45-4.28v-12.3h-2.69v-2.811h2.69v-5.3l3.63-2.17v7.47h3.68v2.811h-3.68v12.51c0 1.03.06 1.7.19 1.99.13.3.34.53.63.71.29.17.71.26 1.25.26.41.001.95-.049 1.61-.149zM260.94 393.49v6.16c-2.39 2.35-4.83 5.73-7.3 10.14-2.48 4.41-4.36 9.1-5.66 14.06-1.3 4.959-1.94 9.39-1.92 13.3h-8.18c.14-6.12 1.4-12.36 3.79-18.72 2.38-6.36 5.57-12.05 9.55-17.06h-19.31v-7.88h29.03zM260.93 486.76v5.471c-2.13 2.09-4.3 5.1-6.49 9.02-2.2 3.93-3.88 8.1-5.03 12.51-1.15 4.42-1.72 8.36-1.7 11.84h-7.28c.12-5.449 1.24-11 3.36-16.659 2.13-5.66 4.96-10.721 8.5-15.181h-17.15v-7h25.79zM246.78 564.06h3.62v21.37h-3.62zM246.78 555.93h3.62v4.13h-3.62zM241.41 570.77v14.66h-3.63v-13.46c0-1.45-.11-2.489-.35-3.13-.23-.64-.66-1.149-1.28-1.54-.62-.39-1.35-.59-2.18-.59-1.51 0-2.76.5-3.75 1.5-1 1-1.5 2.6-1.5 4.8v12.42h-3.62v-13.89c0-1.61-.3-2.81-.89-3.62-.59-.8-1.55-1.21-2.89-1.21a5.21 5.21 0 0 0-2.82.81c-.87.54-1.49 1.32-1.88 2.351-.39 1.04-.59 2.53-.59 4.47v11.09h-3.62v-21.369h3.25v3c.67-1.05 1.56-1.88 2.67-2.52 1.11-.63 2.38-.95 3.8-.95 1.58 0 2.88.33 3.89.98 1.01.66 1.72 1.569 2.14 2.75 1.69-2.49 3.9-3.73 6.62-3.73 2.13 0 3.77.59 4.91 1.76 1.15 1.168 1.72 2.978 1.72 5.418zM226.24 490.18c2.56 3.221 3.84 8.561 3.84 16.011 0 7.439-1.29 12.79-3.87 16.04-2.12 2.689-5.09 4.029-8.9 4.029-3.83 0-6.91-1.47-9.25-4.42-2.34-2.939-3.51-8.18-3.51-15.729 0-7.4 1.28-12.73 3.86-15.99 2.12-2.68 5.09-4.021 8.9-4.021s6.79 1.36 8.93 4.08zm-4.07 16.01c0-4.61-.23-7.78-.69-9.511-.47-1.72-1.05-2.88-1.75-3.46-.71-.58-1.51-.87-2.42-.87s-1.72.29-2.43.87-1.26 1.63-1.65 3.13c-.52 1.95-.78 5.23-.78 9.841 0 4.619.23 7.79.7 9.51.46 1.729 1.04 2.88 1.74 3.45.71.569 1.51.859 2.42.859s1.72-.29 2.43-.87c.71-.59 1.26-1.63 1.66-3.13.51-1.929.77-5.199.77-9.819zM221.92 397.3c2.88 3.62 4.32 9.63 4.32 18.02 0 8.37-1.45 14.39-4.35 18.05-2.4 3.02-5.74 4.53-10.03 4.53-4.3 0-7.78-1.66-10.42-4.971-2.63-3.31-3.95-9.209-3.95-17.7 0-8.33 1.45-14.33 4.35-17.99 2.39-3.02 5.74-4.53 10.02-4.53 4.29.001 7.64 1.531 10.06 4.591zm-4.56 18.02c0-5.19-.26-8.76-.78-10.7-.53-1.95-1.19-3.24-1.98-3.9-.8-.65-1.71-.98-2.74-.98-1.02 0-1.94.33-2.75.98-.8.66-1.43 1.83-1.87 3.52-.58 2.19-.88 5.89-.88 11.08s.27 8.76.79 10.7c.52 1.94 1.18 3.24 1.98 3.881.79.64 1.71.97 2.73.97 1.03 0 1.95-.33 2.75-.98.81-.659 1.43-1.83 1.88-3.52.58-2.181.87-5.861.87-11.051zM206.67 564.21l-3.75.29c-.21-1.86-.89-3.26-2.05-4.21-1.16-.95-2.88-1.42-5.15-1.42-2.37 0-4.1.43-5.18 1.3s-1.62 1.91-1.62 3.13c0 1.061.38 1.94 1.15 2.62.75.69 2.72 1.39 5.9 2.11s5.36 1.34 6.54 1.88c1.72.79 2.99 1.79 3.8 3.01.82 1.21 1.23 2.61 1.23 4.19 0 1.56-.45 3.04-1.35 4.43-.89 1.39-2.18 2.47-3.87 3.24-1.68.77-3.57 1.149-5.68 1.149-2.67 0-4.9-.39-6.7-1.17-1.81-.779-3.22-1.95-4.25-3.51-1.02-1.57-1.56-3.34-1.62-5.32l3.69-.31c.18 1.479.58 2.7 1.22 3.649.63.961 1.62 1.73 2.96 2.311 1.35.59 2.85.88 4.53.88 1.49 0 2.8-.22 3.94-.66 1.14-.45 1.99-1.06 2.55-1.84.55-.77.83-1.62.83-2.53 0-.92-.27-1.729-.81-2.42-.54-.68-1.43-1.26-2.67-1.729-.79-.311-2.54-.79-5.26-1.44-2.72-.66-4.62-1.27-5.7-1.85-1.41-.74-2.46-1.66-3.15-2.75-.69-1.101-1.03-2.33-1.03-3.69 0-1.49.42-2.88 1.27-4.18.84-1.3 2.08-2.29 3.7-2.96 1.63-.67 3.44-1.01 5.42-1.01 2.19 0 4.12.35 5.8 1.06 1.67.7 2.96 1.74 3.86 3.11.9 1.36 1.38 2.91 1.45 4.64zM202.31 485.57l-9.88 40.69h-5.56l9.77-40.69zM193.51 420.8v7.44h-5.5v8.91h-8.22v-8.91h-18.13v-7.41l19.22-28.12h7.13v28.09h5.5zm-13.72 0v-15.1l-10.17 15.1h10.17zM185.71 511.1v6.591h-4.88v7.909h-7.31v-7.909h-16.09v-6.561l17.06-25.03h6.34v25h4.88zm-12.19 0v-13.49l-9.05 13.489h9.05zM171.3 564.75l-1.26 3.35c-.88-.51-1.76-.76-2.64-.76-.79 0-1.5.24-2.12.71-.63.48-1.08 1.141-1.35 1.98-.4 1.29-.6 2.7-.6 4.22v11.18h-3.62v-21.37h3.25v3.261c.83-1.521 1.59-2.521 2.3-3 .7-.49 1.48-.73 2.32-.73 1.22-.001 2.46.379 3.72 1.159zM159.12 420.8v7.44h-5.5v8.91h-8.22v-8.91h-18.12v-7.41l19.21-28.12h7.13v28.09h5.5zm-13.72 0v-15.1l-10.16 15.1h10.16zM155.14 511.1v6.591h-4.87v7.909h-7.32v-7.909h-16.09v-6.561l17.06-25.03h6.35v25h4.87zm-12.19 0v-13.49l-9.04 13.489h9.04zM153.9 555.93v29.5h-3.75v-24.68l-8.59 24.68h-3.52l-8.55-25.12v25.12h-3.75v-29.5h5.85l7.01 20.891c.64 1.949 1.11 3.41 1.41 4.37.34-1.07.86-2.65 1.57-4.73l7.09-20.53h5.23z" fill="#231f20"/><path fill="#0071bc" d="M145.4 405.7v15.1h-10.16z"/><g fill="none" stroke="#231f20"><path d="M754.74 584.55c0 23.88-18.46 43.24-41.221 43.24H132.99c-22.77 0-41.23-19.36-41.23-43.24V278.28c0-23.88 18.46-43.23 41.23-43.23h580.53c22.761 0 41.221 19.35 41.221 43.23v306.27z" stroke-width="21"/><path stroke-width="21" d="M592.43 503.27h121.09v87.601H592.43zM591.29 376.17h121.09v87.6H591.29z"/><path stroke-width="13.74" d="M607.24 526.46h91.89M607.46 568.33h91.89"/></g><path fill="none" d="M0 0h850.394v850.394H0z"/></svg>