<svg xmlns="http://www.w3.org/2000/svg" width="850.394" height="850.394" viewBox="0 0 850.394 850.394" overflow="visible"><g fill="#f6cc4b"><path d="M406.01 560v-37.01h37.67V603.19h-37.67zM406.01 560v43.19h-60.88v-43.71c14.91.24 36.76.52 56.87.52h4.01z"/><path d="M307.97 559.66v-84.21c5.17-.12 10.46-.26 15.87-.42h21.29v84.45c-10.97-.171-18.19-.32-18.19-.32-6.5.2-12.82.37-18.97.5z"/><path d="M345.13 603.19v8.25c0 10.22-8.15 18.489-18.2 18.489h-.76c-10.05 0-18.2-8.27-18.2-18.489v-51.78c6.15-.13 12.47-.3 18.97-.5 0 0 7.22.149 18.19.32v43.71zM345.13 559.48v-84.45h60.88V560H402c-20.11 0-41.96-.28-56.87-.52zM504.18 559.49v43.7h-60.5V560H448c19.98 0 41.47-.28 56.18-.51z"/><path d="M443.68 522.99v-47.96h60.5v84.46c-14.71.23-36.2.51-56.18.51h-4.32v-37.01zM541.34 599.27v12.171c0 10.21-8.149 18.489-18.2 18.489h-.76c-10.05 0-18.2-8.279-18.2-18.489v-51.95c10.99-.181 18.2-.33 18.2-.33 6.49.2 12.82.37 18.96.5v39.609z"/><path d="M522.38 559.16s-7.21.149-18.2.33v-84.46h21.29c5.41.16 10.7.3 15.87.42v84.21c-6.14-.13-12.47-.3-18.96-.5zM708.22 515.19c-17.899 1.84-39.739 3.899-69.93 4.949v-45.38h3.27c57.61-2.5 85.141-8.149 91.45-9.609-6.37 15.439-13.359 32.119-20.51 48.64l-4.28 1.4zM600.74 520.81v39.25h-4.04c-16.67.15-35.09.051-55.36-.399V520H546c20.41.63 38.53.86 54.74.81zM638.29 474.76v45.38c-11.271.391-23.71.63-37.55.67v-85.85c13.59.05 26.08-.05 37.55-.29v40.09z"/><path d="M708.22 515.19l4.28-1.4c-6.16 14.26-12.44 28.4-18.52 41.53-13.61 1.39-31.181 2.76-53.181 3.67h-2.51v-38.85c30.191-1.05 52.031-3.11 69.931-4.95z"/><path d="M638.29 558.99v40.85c-11.521.26-24.021.4-37.55.391V520.81c13.84-.04 26.279-.279 37.55-.67v38.85zM600.74 475.87v44.939c-16.21.051-34.33-.18-54.74-.81h-4.66v-44.55c20.55.47 39.22.58 56.101.42h3.299zM766.13 316.56c17.2 13.99 5.48 65.68 5.48 65.68s-2.95 7.49-13.551 11.73c-2.71 1.08-5.909 1.95-9.68 2.43-7.66.97-64.43 1.54-128.5 1.88-32.439.16-66.76.27-97.51.35-45.54.1-83.271.12-95.59.12h-4.25c-12.32 0-50.06-.02-95.6-.13-30.76-.07-65.07-.18-97.5-.34-64.07-.34-120.84-.91-128.5-1.88-5.23-.66-9.35-2.07-12.57-3.76-8.25-4.3-10.65-10.4-10.65-10.4s-11.73-51.7 5.47-65.69c1.69 1.95 6.63 5.72 20.07 7.42 5.26.67 33.12 1.15 70.39 1.49 94.45.87 249.27.87 249.27.87h3.49s154.819 0 249.27-.87c37.271-.34 65.14-.82 70.39-1.49 13.431-1.7 18.361-5.45 20.071-7.41z"/><path d="M758.06 393.97l3.421.22c-.561 1.46-5.16 13.29-12.19 30.87-6.74 1.61-38.22 8.14-111 9.61V419c0-10.32-8.25-18.67-18.4-18.67l-.01-2.05c64.07-.34 120.84-.91 128.5-1.88 3.769-.48 6.969-1.35 9.679-2.43z"/><path d="M749.29 425.06c-4.55 11.37-10.12 25.15-16.28 40.09-6.31 1.46-33.84 7.109-91.45 9.609h-3.27v-40.09c72.78-1.469 104.26-7.999 111-9.609zM693.98 555.32c-7.4 15.989-14.511 30.5-20.79 41.92l-2.15 1.42c-9.9.5-20.8.91-32.75 1.18v-40.85h2.51c22-.91 39.57-2.28 53.18-3.67z"/><path d="M671.04 598.66l2.15-1.42c-6.79 12.37-12.601 21.13-16.721 24.24-12.81 9.649-21.43 12.359-35.51 12.899l-.13-2.899c9.72-.511 17.46-8.671 17.46-18.66v-12.98c11.951-.27 22.851-.68 32.751-1.18z"/><path d="M638.29 599.84v12.98c0 9.989-7.74 18.149-17.46 18.66-.311.01-.62.02-.94.02h-.77c-10.15 0-18.38-8.37-18.38-18.68v-12.59c13.53.01 26.03-.13 37.55-.39zM638.29 419v15.67c-11.47.24-23.96.34-37.55.29V419c0-10.32 8.229-18.67 18.38-18.67h.77c10.15 0 18.4 8.35 18.4 18.67z"/><path d="M620.83 631.48l.13 2.899c-12.3.48-28.77-.689-55.83-.32-13.14.171-27.54.261-41.979.29l-.011-4.42c10.051 0 18.2-8.279 18.2-18.489v-12.17h1.93c20.931.641 40.051.931 57.471.961v12.59c0 10.31 8.229 18.68 18.38 18.68h.77c.319-.001.629-.011.939-.021zM600.74 434.96v40.91h-3.3c-16.881.16-35.551.05-56.101-.42v-55.84c0-10.23-8.149-18.5-18.2-18.5h-.76l-.01-2.48c30.75-.08 65.07-.19 97.51-.35l.01 2.05h-.77c-10.15 0-18.38 8.35-18.38 18.67v15.96z"/><path d="M600.74 560.06v40.171c-17.42-.03-36.54-.32-57.471-.961h-1.93v-39.61c20.271.45 38.69.55 55.36.399h4.041zM541.34 419.61v55.84c-5.17-.12-10.46-.26-15.87-.42h-21.29v-55.42c0-10.23 8.15-18.5 18.2-18.5h.76c10.05 0 18.2 8.27 18.2 18.5zM523.14 629.93l.011 4.42c-42.33.08-84.891-.34-96.181-.46-1.21-.01-2.06-.02-2.51-.029h.77c10.18 0 18.45-8.391 18.45-18.74v-11.93h60.5v8.25c0 10.21 8.15 18.489 18.2 18.489h.76z"/><path d="M522.37 398.63l.01 2.48c-10.05 0-18.2 8.27-18.2 18.5v18.46h-60.5v-17.42c0-10.36-8.27-18.75-18.45-18.75v-3.15h1.55c12.32 0 50.05-.02 95.59-.12zM504.18 438.07v36.96h-60.5v-36.96h56.25zM443.68 603.19v11.93c0 10.35-8.27 18.74-18.45 18.74h-.77c-10.18 0-18.45-8.391-18.45-18.74v-11.93h37.67zM443.68 475.03v47.96h-37.67v-84.92h37.67z"/><path d="M443.68 420.65v17.42h-37.67v-17.42c0-10.36 8.27-18.75 18.45-18.75h.77c10.18 0 18.45 8.39 18.45 18.75zM424.46 633.86c.45.01 1.3.02 2.51.029v.17s-50.32.48-100.05.311l.01-4.44c10.05 0 18.2-8.27 18.2-18.489v-8.25h60.88v11.93c0 10.349 8.27 18.739 18.45 18.739z"/><path d="M425.23 398.75v3.15h-.77c-10.18 0-18.45 8.39-18.45 18.75v17.42h-60.88v-18.46c0-10.22-8.15-18.5-18.2-18.5v-2.49c45.54.11 83.28.13 95.6.13h2.7zM406.01 438.07v36.96h-60.88v-36.96h4.25z"/><path d="M307.97 434.15v-14.54c0-10.22 8.15-18.5 18.2-18.5h.76c10.05 0 18.2 8.28 18.2 18.5v55.42h-21.29c-5.41.16-10.7.3-15.87.42v-41.3z"/><path d="M326.93 398.62v2.49h-.76c-10.05 0-18.2 8.28-18.2 18.5v14.541c-21.71.659-41.47.949-59.4.949v-16.09c0-10.32-8.24-18.68-18.39-18.68h-.76l.01-2.05c32.43.16 66.74.27 97.5.34zM326.93 629.93l-.01 4.44c-13.47-.05-26.9-.14-39.27-.311-29.75-.399-46.69 1.051-59.37.131l.19-2.71c.32.01.63.02.95.02h.76c10.15 0 18.39-8.36 18.39-18.68v-12.59c17.42-.03 36.55-.32 57.47-.961h1.93v12.171c0 10.22 8.15 18.489 18.2 18.489h.76z"/><path d="M307.97 559.66v39.609h-1.93c-20.92.641-40.05.931-57.47.961v-40.17h4.04c16.67.15 35.08.05 55.36-.4z"/><path d="M307.97 520v39.66c-20.28.45-38.69.55-55.36.399h-4.04v-39.25c17.04.08 36.07-.149 57.43-.81h1.97z"/><path d="M307.97 475.45V520H306c-21.36.66-40.39.89-57.43.81v-44.94h3.3c16.88.16 35.54.05 56.1-.42z"/><path d="M307.97 434.15v41.3c-20.56.47-39.22.58-56.1.42h-3.3V435.1c17.93 0 37.69-.29 59.4-.95zM248.57 600.23v12.59c0 10.319-8.24 18.68-18.39 18.68h-.76c-.32 0-.63-.01-.95-.02-9.72-.5-17.44-8.66-17.44-18.66v-12.98c11.52.27 24.02.41 37.54.39z"/><path d="M248.57 560.06v40.171c-13.52.02-26.02-.12-37.54-.391V520.1c11.33.391 23.79.65 37.54.71v39.25z"/><path d="M248.57 475.87v44.939c-13.75-.06-26.21-.319-37.54-.71V434.65c11.5.29 24 .449 37.54.449v40.771z"/><path d="M248.57 419.01v16.09c-13.54 0-26.04-.159-37.54-.449V419.01c0-10.32 8.23-18.68 18.39-18.68h.76c10.15 0 18.39 8.36 18.39 18.68z"/><path d="M229.43 398.28l-.01 2.05c-10.16 0-18.39 8.36-18.39 18.68v15.641c-69.2-1.7-102.44-7.811-110.46-9.51-7.85-18.84-12.8-31.1-12.8-31.1l.59-1.4c3.22 1.69 7.34 3.1 12.57 3.76 7.66.969 64.43 1.539 128.5 1.879zM228.47 631.48l-.19 2.71c-12.06-.87-20.27-3.891-31.96-12.71-3.95-2.98-9.55-11.141-16.14-22.711 9.39.44 19.66.82 30.85 1.07v12.98c0 10.001 7.72 18.161 17.44 18.661z"/><path d="M211.03 558.99v40.85c-11.19-.25-21.46-.63-30.85-1.07-6.6-11.579-14.19-26.569-22.14-43.17 13.2 1.301 29.9 2.54 50.47 3.391h2.52z"/><path d="M211.03 520.1v38.891h-2.52c-20.57-.851-37.27-2.09-50.47-3.391-6.02-12.59-12.24-26.1-18.38-39.77l1.43-.64c17.6 1.81 39.81 3.84 69.94 4.91z"/><path d="M211.03 474.76v45.34c-30.13-1.069-52.34-3.1-69.94-4.909l-1.43.64c-7.67-17.09-15.22-34.4-22.08-50.39 8.25 1.8 35.83 6.97 90.17 9.319h3.28z"/><path d="M211.03 434.65v40.109h-3.28c-54.34-2.35-81.92-7.52-90.17-9.319a4347.379 4347.379 0 0 1-17.01-40.3c8.02 1.7 41.26 7.81 110.46 9.51z"/></g><g fill="none" stroke="#231f20" stroke-width="21"><path d="M251.87 475.87c16.88.16 35.54.05 56.1-.42 5.17-.12 10.46-.26 15.87-.42h80.5M114.86 464.8s.88.24 2.72.641c8.25 1.8 35.83 6.97 90.17 9.319"/><path d="M422.91 326.33s-154.82 0-249.27-.87c-37.27-.34-65.13-.82-70.39-1.49-13.44-1.7-18.38-5.47-20.07-7.42-.65-.74-.83-1.22-.83-1.22" stroke-linecap="round" stroke-linejoin="round"/><path d="M422.53 398.75c-12.32 0-50.06-.02-95.6-.13-30.76-.07-65.07-.18-97.5-.34-64.07-.34-120.84-.91-128.5-1.88-5.23-.66-9.35-2.07-12.57-3.76-8.25-4.3-10.65-10.4-10.65-10.4s-11.73-51.7 5.47-65.69c.5-.42 1.04-.8 1.6-1.14 1.14-.71 2.39-1.27 3.76-1.66M87.77 394.04s4.95 12.26 12.8 31.1c4.76 11.43 10.58 25.29 17.01 40.3 6.86 15.989 14.41 33.3 22.08 50.39 6.14 13.67 12.36 27.18 18.38 39.77 7.95 16.601 15.54 31.591 22.14 43.17 6.59 11.57 12.19 19.73 16.14 22.711 11.69 8.819 19.9 11.84 31.96 12.71 12.68.92 29.62-.53 59.37-.131 12.37.171 25.8.261 39.27.311 49.73.17 100.05-.311 100.05-.311"/><path d="M248.57 600.23v12.59c0 10.319-8.24 18.68-18.39 18.68h-.76c-.32 0-.63-.01-.95-.02-9.72-.5-17.44-8.66-17.44-18.66V419.01c0-10.32 8.23-18.68 18.39-18.68h.76c10.15 0 18.39 8.36 18.39 18.68V600.23zM345.13 603.19v8.25c0 10.22-8.15 18.489-18.2 18.489h-.76c-10.05 0-18.2-8.27-18.2-18.489V419.61c0-10.22 8.15-18.5 18.2-18.5h.76c10.05 0 18.2 8.28 18.2 18.5v183.58zM443.68 603.19v11.93c0 10.35-8.27 18.74-18.45 18.74h-.77c-10.18 0-18.45-8.391-18.45-18.74V420.65c0-10.36 8.27-18.75 18.45-18.75h.77c10.18 0 18.45 8.39 18.45 18.75v182.54z"/><path d="M98.61 424.7s.64.16 1.96.44c8.02 1.7 41.26 7.81 110.46 9.51 11.5.29 24 .449 37.54.449 17.93 0 37.69-.29 59.4-.949.13 0 .26-.011.39-.011M349.38 438.07H406.28M141.09 515.19c17.6 1.81 39.81 3.84 69.94 4.909 11.33.391 23.79.65 37.54.71 17.04.08 36.07-.149 57.43-.81M354.03 522.99h47.6M252.61 560.06c16.67.15 35.08.051 55.36-.399 6.15-.13 12.47-.3 18.97-.5 0 0 7.22.149 18.19.32 14.91.239 36.76.519 56.87.519M155.02 555.29c.98.1 1.99.2 3.02.31 13.2 1.301 29.9 2.54 50.47 3.391M178.27 598.67c.63.03 1.27.061 1.91.1 9.39.44 19.66.82 30.85 1.07 11.52.271 24.02.41 37.54.391 17.42-.03 36.55-.32 57.47-.961M347.06 603.19H408.6M90.09 320.04s-2.1-1.69-5.31-4.63c-14.41-13.25-51.12-51.77-19.46-75.57 38.7-29.09 84.37 14.15 108.36 81.78M597.44 475.87c-16.881.16-35.551.05-56.101-.42-5.17-.12-10.46-.26-15.87-.42h-80.5M734.45 464.8s-.47.13-1.44.351c-6.31 1.46-33.84 7.109-91.45 9.609"/><path d="M426.4 326.33s154.819 0 249.27-.87c37.271-.34 65.14-.82 70.39-1.49 13.431-1.7 18.36-5.45 20.07-7.41.65-.75.83-1.23.83-1.23" stroke-linecap="round" stroke-linejoin="round"/><path d="M422.53 398.75h4.25c12.319 0 50.05-.02 95.59-.12 30.75-.08 65.07-.19 97.51-.35 64.07-.34 120.84-.91 128.5-1.88 3.771-.48 6.97-1.35 9.68-2.43 10.601-4.24 13.551-11.73 13.551-11.73s11.72-51.69-5.48-65.68c-.51-.43-1.04-.81-1.61-1.15-1.14-.71-2.39-1.27-3.76-1.66M761.54 394.04l-.06.15c-.561 1.46-5.16 13.29-12.19 30.87-4.55 11.37-10.12 25.15-16.28 40.09-6.37 15.439-13.359 32.119-20.51 48.64-6.16 14.26-12.44 28.4-18.52 41.53-7.4 15.989-14.511 30.5-20.79 41.92-6.79 12.37-12.601 21.13-16.721 24.24-12.81 9.649-21.43 12.359-35.51 12.899-12.3.48-28.77-.689-55.83-.32-13.14.171-27.54.261-41.979.29-42.33.08-84.891-.34-96.181-.46-1.21-.01-2.06-.02-2.51-.029h-.38"/><path d="M600.74 600.23v12.59c0 10.31 8.229 18.68 18.38 18.68h.77c.32 0 .63-.01.94-.02 9.72-.511 17.46-8.671 17.46-18.66V419c0-10.32-8.25-18.67-18.4-18.67h-.77c-10.15 0-18.38 8.35-18.38 18.67v181.23zM504.18 603.19v8.25c0 10.21 8.15 18.489 18.2 18.489h.76c10.051 0 18.2-8.279 18.2-18.489V419.61c0-10.23-8.149-18.5-18.2-18.5h-.76c-10.05 0-18.2 8.27-18.2 18.5V603.19z"/><path d="M750.71 424.7s-.46.13-1.42.36c-6.74 1.61-38.22 8.14-111 9.61-11.47.24-23.96.34-37.55.29-16.021-.07-33.57-.37-52.74-.96M499.93 438.07h-93.65M708.22 515.19c-17.899 1.84-39.739 3.899-69.93 4.949-11.271.391-23.71.63-37.55.67-16.21.051-34.33-.18-54.74-.81M495.29 522.99h-93.66M596.7 560.06c-16.67.15-35.09.051-55.36-.399-6.14-.13-12.47-.3-18.96-.5 0 0-7.21.149-18.2.33-14.71.229-36.2.509-56.18.509M694.29 555.29l-.31.03c-13.61 1.39-31.181 2.76-53.181 3.67M671.04 598.66c-9.9.5-20.8.91-32.75 1.18-11.521.26-24.021.4-37.55.391-17.42-.03-36.54-.32-57.471-.961M502.25 603.19H408.6M759.22 320.04s2.101-1.69 5.3-4.63c14.4-13.23 51.12-51.77 19.471-75.57-38.7-29.09-84.37 14.15-108.36 81.78"/></g><path fill="none" d="M0 0h850.394v850.394H0z"/></svg>