<svg xmlns="http://www.w3.org/2000/svg" width="850.394" height="850.394" viewBox="0 0 850.394 850.394" overflow="visible"><path d="M363.28 88.2c6.89 0 12.48 5.59 12.48 12.48 0 6.6-5.11 11.99-11.59 12.44-.29.03-.59.04-.89.04h-78.46c-6.89 0-12.48-5.58-12.48-12.48 0-3.44 1.4-6.56 3.66-8.82 2.26-2.26 5.38-3.66 8.82-3.66h78.46z" fill="#c8c8c8"/><path d="M364.17 113.16v31.21h-79.35v-31.21h78.46c.3 0 .6-.01.89-.04v.04zM537.57 101.57L536 142v2.37h-72V144l1.36-42.43c0-7.87 6.39-14.26 14.26-14.26h43.689c7.881 0 14.261 6.39 14.261 14.26z" fill="#c8c8c8"/><path d="M590.92 158.63v597.93c0 7.881-6.39 14.261-14.27 14.261H254.51c-7.88 0-14.26-6.38-14.26-14.261V158.63c0-7.87 6.38-14.26 14.26-14.26h322.14c7.88 0 14.27 6.39 14.27 14.26z" fill="#fbee34"/><g fill="none" stroke="#231f20" stroke-width="21.397"><path d="M536 144.37h40.65c7.88 0 14.27 6.39 14.27 14.26v597.93c0 7.881-6.39 14.261-14.27 14.261H254.51c-7.88 0-14.26-6.38-14.26-14.261V158.63c0-7.87 6.38-14.26 14.26-14.26H536zM464 144l1.36-42.43c0-7.87 6.39-14.26 14.26-14.26h43.689c7.881 0 14.261 6.39 14.261 14.26L536 142M284.82 113.16c-6.89 0-12.48-5.58-12.48-12.48 0-3.44 1.4-6.56 3.66-8.82 2.26-2.26 5.38-3.66 8.82-3.66h78.46c6.89 0 12.48 5.59 12.48 12.48 0 6.6-5.11 11.99-11.59 12.44-.29.03-.59.04-.89.04h-78.46zM284.82 113.16v30.32M364.17 113.16v30.32"/></g><path fill="none" d="M0 0h850.394v850.394H0z"/></svg>