<?xml version="1.0" encoding="iso-8859-1"?>
<!-- Generator: Adobe Illustrator 12.0.1, SVG Export Plug-In . SVG Version: 6.00 Build 51448)  -->
<!DOCTYPE svg PUBLIC "-//W3C//DTD SVG 1.1//EN" "http://www.w3.org/Graphics/SVG/1.1/DTD/svg11.dtd" [
	<!ENTITY ns_svg "http://www.w3.org/2000/svg">
	<!ENTITY ns_xlink "http://www.w3.org/1999/xlink">
]>
<svg  version="1.1" id="Layer_1" xmlns="&ns_svg;" xmlns:xlink="&ns_xlink;" width="850.394" height="850.394"
	 viewBox="0 0 850.394 850.394" style="overflow:visible;enable-background:new 0 0 850.394 850.394;" xml:space="preserve">
<g id="XMLID_1_">
	<g>
		<path style="fill:#9E5B16;" d="M763.83,320.27c-2.311,11.37-13.811,22.12-32.63,31.75l-0.021-0.03
			c-51.34-26.54-158.02-44.78-281.3-44.78c-122.88,0-229.27,18.12-280.8,44.52l-0.02,0.04c-18.74-9.7-30.11-20.5-32.2-31.92v-0.02
			c-0.24-1.27-0.36-2.54-0.36-3.83c0-44.48,140.53-80.54,313.88-80.54c173.351,0,313.89,36.06,313.89,80.54
			C764.27,317.43,764.12,318.86,763.83,320.27z"/>
		<path style="fill:#9E5B16;" d="M537.51,439.07V432.3c0-15.24-8.46-28.81-21.609-37.51c94.439-5.14,173.189-21.19,215.3-42.77
			c18.819-9.63,30.319-20.38,32.63-31.75v79.12c0,38.1-103.08,70.02-241.58,78.4c9.47-8.51,15.26-19.99,15.26-32.6V439.07z
			 M667.69,418.54c0-5.82-4.71-10.54-10.54-10.54c-5.82,0-10.54,4.72-10.54,10.54c0,5.83,4.72,10.54,10.54,10.54
			C662.98,429.08,667.69,424.37,667.69,418.54z M610.15,429.97c0-5.82-4.721-10.53-10.551-10.53c-5.81,0-10.54,4.71-10.54,10.53
			c0,5.83,4.73,10.54,10.54,10.54C605.43,440.51,610.15,435.8,610.15,429.97z"/>
		<path style="fill:#9E5B16;" d="M510.95,439.07c-0.34-6.62-5.811-11.87-12.51-11.87c-6.921,0-12.53,5.609-12.53,12.53
			c0,6.92,5.609,12.529,12.53,12.529c6.92,0,12.529-5.609,12.529-12.529C510.97,439.51,510.96,439.29,510.95,439.07z M537.51,439.07
			v6.12c0,12.609-5.79,24.09-15.26,32.6c-23.21,1.41-47.42,2.15-72.3,2.15c-23.32,0-46.04-0.641-67.9-1.86
			c-0.32,0.01-1.71,0.07-4.04,0.16c-9.75-8.561-15.75-20.221-15.75-33.05V432.3c0-15.16,8.37-28.66,21.39-37.37l1.39-0.13h0.02
			c21.07,1.15,42.92,1.75,65.32,1.75c22.47,0,44.39-0.61,65.521-1.76c13.149,8.7,21.609,22.27,21.609,37.51V439.07z M427.44,441.27
			c0-5.81-4.71-10.539-10.541-10.539c-5.81,0-10.54,4.729-10.54,10.539c0,5.83,4.73,10.54,10.54,10.54
			C422.73,451.81,427.44,447.1,427.44,441.27z"/>
		<path style="fill:#FFFFFF;" d="M522.25,477.79c-10.23,9.22-24.75,14.97-40.85,14.97H418.36c-15.84,0-30.15-5.569-40.35-14.52
			c2.33-0.09,3.72-0.15,4.04-0.16c21.86,1.22,44.58,1.86,67.9,1.86C474.83,479.94,499.04,479.2,522.25,477.79z"/>
		<path style="fill:#FF7F00;" d="M510.95,439.07c0.01,0.22,0.02,0.439,0.02,0.66c0,6.92-5.609,12.529-12.529,12.529
			c-6.921,0-12.53-5.609-12.53-12.529c0-6.921,5.609-12.53,12.53-12.53C505.14,427.2,510.61,432.45,510.95,439.07z"/>
		<path style="fill:#FFFFFF;" d="M481.4,384.73c13.01,0,24.979,3.76,34.5,10.06c-21.131,1.15-43.051,1.76-65.521,1.76
			c-22.399,0-44.25-0.6-65.32-1.75h-0.02c-0.37-0.02-0.74-0.04-1.11-0.06c9.5-6.27,21.46-10.01,34.43-10.01H481.4z"/>
		<path style="fill:#FFFFFF;" d="M385.04,394.8l-1.39,0.13c0.09-0.07,0.19-0.13,0.28-0.19C384.3,394.76,384.67,394.78,385.04,394.8z
			"/>
		<path style="fill:#9E5B16;" d="M383.93,394.74c-0.09,0.06-0.19,0.12-0.28,0.19l-240.44,21.46v-0.01
			c-4.16-5.22-6.35-10.64-6.35-16.2v-80.33c2.09,11.42,13.46,22.22,32.2,31.92C210.91,373.4,289.52,389.52,383.93,394.74z"/>
		<path style="fill:#9E5B16;" d="M143.21,416.39l240.44-21.46c-13.02,8.71-21.39,22.21-21.39,37.37v12.891
			c0,12.829,6,24.489,15.75,33.05c-32.25,1.21-244.16,9.13-270.61,9.13c-20.03,0-37.09,0.09-41.67-30.7
			c-5.22-35.14,51.31-37.94,51.31-37.94L143.21,416.39z M326.41,443.89c0-5.819-4.72-10.54-10.54-10.54
			c-5.82,0-10.54,4.721-10.54,10.54c0,5.82,4.72,10.54,10.54,10.54C321.69,454.43,326.41,449.71,326.41,443.89z"/>
	</g>
	<g>
		<path style="fill:none;stroke:#000000;stroke-width:19.7926;" d="M383.93,394.74c-94.41-5.22-173.02-21.34-214.87-42.97
			c-18.74-9.7-30.11-20.5-32.2-31.92"/>
		<path style="fill:none;stroke:#000000;stroke-width:19.7926;" d="M136.86,319.83c-0.24-1.27-0.36-2.54-0.36-3.83
			c0-44.48,140.53-80.54,313.88-80.54c173.351,0,313.89,36.06,313.89,80.54c0,1.43-0.149,2.86-0.439,4.27
			c-2.311,11.37-13.811,22.12-32.63,31.75c-42.11,21.58-120.86,37.63-215.3,42.77"/>
		<path style="fill:none;stroke:#000000;stroke-width:19.7926;" d="M169.08,351.73c51.53-26.4,157.92-44.52,280.8-44.52
			c123.28,0,229.96,18.24,281.3,44.78"/>
		<path style="fill:none;stroke:#000000;stroke-width:19.7926;" d="M522.25,477.79c138.5-8.38,241.58-40.3,241.58-78.4v-79.12v-0.03
			"/>
		<path style="fill:none;stroke:#000000;stroke-width:19.7926;" d="M136.86,319.83v0.02c0,0,0,80.33,0,83.57v-3.24
			c0,5.56,2.19,10.98,6.35,16.2"/>
		<path style="fill:none;stroke:#000000;stroke-width:19.7926;" d="M383.65,394.93l-240.44,21.46l-26.17,2.34
			c0,0-56.53,2.8-51.31,37.94c4.58,30.79,21.64,30.7,41.67,30.7c26.45,0,238.36-7.92,270.61-9.13"/>
		<path style="fill:none;stroke:#000000;stroke-width:26.3901;" d="M537.51,439.07v6.12c0,12.609-5.79,24.09-15.26,32.6
			c-10.23,9.22-24.75,14.97-40.85,14.97H418.36c-15.84,0-30.15-5.569-40.35-14.52c-9.75-8.561-15.75-20.221-15.75-33.05V432.3
			c0-15.16,8.37-28.66,21.39-37.37c0.09-0.07,0.19-0.13,0.28-0.19c9.5-6.27,21.46-10.01,34.43-10.01H481.4
			c13.01,0,24.979,3.76,34.5,10.06c13.149,8.7,21.609,22.27,21.609,37.51V439.07z"/>
		<path style="fill:none;stroke:#000000;stroke-width:13.195;" d="M510.97,439.73c0,6.92-5.609,12.529-12.529,12.529
			c-6.921,0-12.53-5.609-12.53-12.529c0-6.921,5.609-12.53,12.53-12.53c6.699,0,12.17,5.25,12.51,11.87
			C510.96,439.29,510.97,439.51,510.97,439.73z"/>
		<path style="fill:none;stroke:#000000;stroke-width:13.195;" d="M610.15,429.97c0,5.83-4.721,10.54-10.551,10.54
			c-5.81,0-10.54-4.71-10.54-10.54c0-5.82,4.73-10.53,10.54-10.53C605.43,419.44,610.15,424.15,610.15,429.97z"/>
		<path style="fill:none;stroke:#000000;stroke-width:13.195;" d="M427.44,441.27c0,5.83-4.71,10.54-10.541,10.54
			c-5.81,0-10.54-4.71-10.54-10.54c0-5.81,4.73-10.539,10.54-10.539C422.73,430.73,427.44,435.46,427.44,441.27z"/>
		<circle style="fill:none;stroke:#000000;stroke-width:13.195;" cx="315.87" cy="443.89" r="10.54"/>
		<path style="fill:none;stroke:#000000;stroke-width:13.195;" d="M667.69,418.54c0,5.83-4.71,10.54-10.54,10.54
			c-5.82,0-10.54-4.71-10.54-10.54c0-5.82,4.72-10.54,10.54-10.54C662.98,408,667.69,412.72,667.69,418.54z"/>
		<polyline style="fill:none;stroke:#000000;stroke-width:19.7926;stroke-linecap:round;stroke-linejoin:round;" points="
			494.97,439.07 510.95,439.07 537.51,439.07 551.59,439.07 		"/>
	</g>
</g>
<rect style="fill:none;" width="850.394" height="850.394"/>
</svg>
