<?xml version="1.0" encoding="iso-8859-1"?>
<!-- Generator: Adobe Illustrator 12.0.1, SVG Export Plug-In . SVG Version: 6.00 Build 51448)  -->
<!DOCTYPE svg PUBLIC "-//W3C//DTD SVG 1.1//EN" "http://www.w3.org/Graphics/SVG/1.1/DTD/svg11.dtd" [
	<!ENTITY ns_svg "http://www.w3.org/2000/svg">
	<!ENTITY ns_xlink "http://www.w3.org/1999/xlink">
]>
<svg  version="1.1" id="Layer_1" xmlns="&ns_svg;" xmlns:xlink="&ns_xlink;" width="850.394" height="850.394"
	 viewBox="0 0 850.394 850.394" style="overflow:visible;enable-background:new 0 0 850.394 850.394;" xml:space="preserve">
<g>
	<g id="XMLID_1_">
		<g>
			<path style="fill:#FFF400;" d="M362.41,111.19l9.73,12.77l-5.61,9.98l-12.55-1.4l-21.69-2.41c0,0-9.55-4.59-0.18-8.36
				c13.31-5.37,21.56-8.96,25.42-10.68L362.41,111.19z"/>
			<path style="fill:#9C5B16;" d="M661.83,303.32l115.96,83.72l-118.38-57.4c0,0-38.29-8.46-62.67-13.12
				c-24.38-4.68-12.94-7.26-37.891,4.25c-24.96,11.51-70.05,15.24-70.05,15.24c-27.47,2.6-74.59,3.48-111.84-24.88
				c-39.71-30.26-33.25-94.34-33.25-94.34s0.83-23.53,8.99-38.1c8.15-14.55,13.28-17.44,13.1-28.54
				c-0.23-15.62-11.82-17.6-11.82-17.6v-0.01l12.55,1.4l5.61-9.98l-9.73-12.77l-4.88-0.1c1.75-0.79,2.6-1.18,2.6-1.18
				s6.53-15.66,26.13-21.17c19.59-5.52,37.14-2.05,52.641,17.15c15.5,19.18,26.01,57.32,33.71,61.65c0,0,54.35,26.34,75.46,46.68
				c9.88,9.51,26.09,22.36,41.6,33.93c17.65,13.16,34.38,24.66,39.85,27.73c10.28,5.76,48.721,27.31,48.721,27.31L661.83,303.32z
				 M400.6,120.04c5.32-1.51,10.7-6.38,10.7-6.38c-4.28-5.78-6.83-10.58-14.85-8.33c-8.01,2.25-11.28,9.43-11.28,9.43
				S395.24,121.54,400.6,120.04z"/>
			<circle style="fill:#F6CC4B;" cx="392.46" cy="666.1" r="11.95"/>
			<path style="fill:#F6CC4B;" d="M315.06,607.67c6.6,0,11.95,5.35,11.95,11.96c0,6.59-5.35,11.94-11.95,11.94
				s-11.95-5.351-11.95-11.94C303.11,613.02,308.46,607.67,315.06,607.67z"/>
			<path style="fill:#F6CC4B;" d="M173.68,658.9c3.35,5.689,1.45,13.02-4.24,16.369c-5.69,3.341-13.01,1.44-16.36-4.239
				c-3.35-5.69-1.45-13.011,4.23-16.36C163,651.32,170.33,653.21,173.68,658.9z"/>
			<path style="fill:#F6CC4B;" d="M174.46,568.62c3.35,5.689,1.46,13.01-4.24,16.37c-5.68,3.34-13.01,1.45-16.36-4.24
				c-3.34-5.69-1.45-13.02,4.24-16.36C163.79,561.04,171.12,562.94,174.46,568.62z"/>
			<circle style="fill:#F6CC4B;" cx="267.81" cy="507.9" r="11.95"/>
			<path style="fill:#F6CC4B;" d="M345.21,449.47c6.6,0,11.95,5.351,11.95,11.96c0,6.59-5.35,11.94-11.95,11.94
				s-11.95-5.351-11.95-11.94C333.26,454.82,338.61,449.47,345.21,449.47z"/>
			<path style="fill:#FFF400;" d="M417,584.53c23.81-3.87,8.58,17.83-1.59,27.819c-9.06,8.881-30.59,23.011-42.19,11.28
				c-11.38-11.5-5.73-22.86,5.73-28.51C394.85,587.28,406.21,586.29,417,584.53z"/>
			<path style="fill:#FFF400;" d="M416.5,712.06c11.45,5.65,17.1,17,5.73,28.511c-11.61,11.729-33.14-2.4-42.19-11.29
				c-10.18-9.98-25.4-31.69-1.6-27.82C389.24,703.22,400.59,704.22,416.5,712.06z"/>
			<path style="fill:#FFF400;" d="M135.96,708.99c1.7,22.899,6.61,26.55-21.66,19.399c-15.99-4.05-14.74-29.77-11.67-42.069
				c3.44-13.851,14.42-37.971,23.16-15.5C129.76,681.02,134.66,691.31,135.96,708.99z"/>
			<path style="fill:#FFF400;" d="M246.12,644.74c25.84,31.1-8.11,17.22-24.78,12.729c-12.25-3.29-35.35-14.68-31.13-30.63
				c4.15-15.64,16.8-16.53,27.48-9.53C232.51,627.05,239.13,636.33,246.12,644.74z"/>
			<path style="fill:#FFF400;" d="M281.83,543.26c56.05-9.109-10.34,36.41-1.6,27.82c-9.05,8.88-30.58,23.02-42.18,11.29
				c-11.38-11.51-5.73-22.87,5.72-28.51C259.68,546.02,271.03,545.02,281.83,543.26z"/>
			<path style="fill:#FFF400;" d="M281.33,436.92c11.45,5.65,17.1,17.01,5.72,28.51c-11.6,11.73-33.13-2.399-42.18-11.279
				c-10.18-9.99-25.4-31.69-1.61-27.82C254.07,428.08,265.42,429.08,281.33,436.92z"/>
			<path d="M411.3,113.66c0,0-5.38,4.87-10.7,6.38c-5.36,1.5-15.43-5.28-15.43-5.28s3.27-7.18,11.28-9.43
				C404.47,103.08,407.02,107.88,411.3,113.66z"/>
		</g>
		<g>
			<path style="fill:none;stroke:#231F20;stroke-width:14;" d="M353.98,132.55c0,0,11.59,1.98,11.82,17.6
				c0.18,11.1-4.95,13.99-13.1,28.54c-8.16,14.57-8.99,38.1-8.99,38.1s-6.46,64.08,33.25,94.34
				c37.25,28.36,84.37,27.48,111.84,24.88c0,0,45.09-3.73,70.05-15.24c24.95-11.51,13.511-8.93,37.891-4.25
				c24.38,4.66,62.67,13.12,62.67,13.12l118.38,57.4l-115.96-83.72"/>
			<path style="fill:none;stroke:#231F20;stroke-width:14;" d="M362.41,111.19l9.73,12.77l-5.61,9.98l-12.55-1.4l-21.69-2.41
				c0,0-9.55-4.59-0.18-8.36c13.31-5.37,21.56-8.96,25.42-10.68c1.75-0.79,2.6-1.18,2.6-1.18s6.53-15.66,26.13-21.17
				c19.59-5.52,37.14-2.05,52.641,17.15c15.5,19.18,26.01,57.32,33.71,61.65c0,0,54.35,26.34,75.46,46.68
				c9.88,9.51,26.09,22.36,41.6,33.93c17.65,13.16,34.38,24.66,39.85,27.73c10.28,5.76,48.721,27.31,48.721,27.31l-16.41,0.13h-0.01
				l-11.74,0.1c0,0-79.25-12.94-99.42-11.74c-20.17,1.19-91.41,4.26-131.75-18.34c-26.63-14.95-36.14-40.78-36.32-61.88"/>
			<path style="fill:none;stroke:#231F20;stroke-width:7;" d="M385.17,114.76c0,0,3.27-7.18,11.28-9.43
				c8.02-2.25,10.57,2.55,14.85,8.33c0,0-5.38,4.87-10.7,6.38C395.24,121.54,385.17,114.76,385.17,114.76z"/>
			<path style="fill:none;stroke:#231F20;stroke-width:14;" d="M417.37,246.07c0,0,30.32,19.08,69.5,19.35
				c32.97,0.21,56.11-5.55,56.11-5.55l-4.011-14.24l50.7,2.52"/>
			<path style="fill:none;stroke:#231F20;stroke-width:14;stroke-linecap:round;stroke-linejoin:round;" d="M504.06,337.51
				L491.4,371.23l-1.92,2.32l-0.841,1.01c-6.1,1.71-10.449,5.41-15.779,8.78c0.47,3.25,4.79,10.19,4.79,10.19"/>
			<path style="fill:none;stroke:#231F20;stroke-width:14;stroke-linecap:round;stroke-linejoin:round;" d="M489.87,373.74
				c-0.13-0.06-0.26-0.13-0.39-0.19c-5.62-2.54-15.301-1.74-21.051-0.5c-4.779,1.03-5.59,1.14-6.97,5.73
				c-1.03,3.35,0.44,8.5,1.53,11.87"/>
			<path style="fill:none;stroke:#231F20;stroke-width:14;stroke-linecap:round;stroke-linejoin:round;" d="M475.29,338.04
				l-15.59,27.79l-1.92,2.34l-0.83,1c-6.11,1.71-10.47,5.4-15.8,8.77c0.47,3.26,4.79,10.18,4.79,10.18"/>
			<path style="fill:none;stroke:#231F20;stroke-width:14;stroke-linecap:round;stroke-linejoin:round;" d="M458.16,368.35
				c-0.12-0.06-0.25-0.12-0.38-0.18c-5.61-2.56-15.29-1.76-21.061-0.51c-4.79,1.02-5.58,1.11-6.97,5.72
				c-1.02,3.35-1.53,6.92-0.44,10.29"/>
			<path style="fill:none;stroke:#231F20;stroke-width:21;" d="M243.77,553.86c-11.45,5.64-17.1,17-5.72,28.51
				c11.6,11.729,33.13-2.41,42.18-11.29c-8.74,8.59,57.65-36.93,1.6-27.82C271.03,545.02,259.68,546.02,243.77,553.86z"/>
			<path style="fill:none;stroke:#231F20;stroke-width:21;" d="M281.33,436.92c11.45,5.65,17.1,17.01,5.72,28.51
				c-11.6,11.73-33.13-2.399-42.18-11.279c-10.18-9.99-25.4-31.69-1.61-27.82C254.07,428.08,265.42,429.08,281.33,436.92z"/>
			<circle style="fill:none;stroke:#231F20;stroke-width:14;" cx="267.81" cy="507.9" r="11.95"/>
			<path style="fill:none;stroke:#231F20;stroke-width:14;" d="M357.16,461.43c0,6.59-5.35,11.94-11.95,11.94
				s-11.95-5.351-11.95-11.94c0-6.609,5.35-11.96,11.95-11.96S357.16,454.82,357.16,461.43z"/>
			<path style="fill:none;stroke:#231F20;stroke-width:21;" d="M234.57,492.05c0,3.49-14.75,6.311-32.95,6.311
				c-18.2,0-32.95-2.82-32.95-6.311c0-3.479,14.75-6.3,32.95-6.3C219.82,485.75,234.57,488.57,234.57,492.05z"/>
			<path style="fill:none;stroke:#231F20;stroke-width:21;" d="M342.53,549.07c-3.15,1.479-11.98-10.67-19.72-27.141
				c-7.74-16.47-11.46-31.02-8.31-32.5c3.16-1.479,11.99,10.67,19.73,27.141C341.96,533.04,345.69,547.58,342.53,549.07z"/>
			<path style="fill:none;stroke:#231F20;stroke-width:21;" d="M416.5,712.06c11.45,5.65,17.1,17,5.73,28.511
				c-11.61,11.729-33.14-2.4-42.19-11.29c-10.18-9.98-25.4-31.69-1.6-27.82C389.24,703.22,400.59,704.22,416.5,712.06z"/>
			<path style="fill:none;stroke:#231F20;stroke-width:21;" d="M378.95,595.12c-11.46,5.649-17.11,17.01-5.73,28.51
				c11.6,11.73,33.13-2.399,42.19-11.28c10.17-9.989,25.399-31.689,1.59-27.819C406.21,586.29,394.85,587.28,378.95,595.12z"/>
			<circle style="fill:none;stroke:#231F20;stroke-width:14;" cx="392.46" cy="666.1" r="11.95"/>
			<path style="fill:none;stroke:#231F20;stroke-width:14;" d="M303.11,619.63c0,6.59,5.35,11.94,11.95,11.94
				s11.95-5.351,11.95-11.94c0-6.61-5.35-11.96-11.95-11.96S303.11,613.02,303.11,619.63z"/>
			<path style="fill:none;stroke:#231F20;stroke-width:21;" d="M425.7,650.26c0,3.48,14.75,6.3,32.95,6.3
				c18.189,0,32.949-2.819,32.949-6.3c0-3.49-14.76-6.31-32.949-6.31C440.45,643.95,425.7,646.77,425.7,650.26z"/>
			<path style="fill:none;stroke:#231F20;stroke-width:21;" d="M317.74,707.27c19.22,9.011,9.26-4.869,19.72-27.14
				c7.74-16.47,11.46-31.02,8.3-32.5c-3.15-1.479-11.97,10.67-19.71,27.14C318.31,691.24,314.59,705.79,317.74,707.27z"/>
			<path style="fill:none;stroke:#231F20;stroke-width:21;" d="M135.96,708.99c1.7,22.899,6.61,26.55-21.66,19.399
				c-15.99-4.05-14.74-29.77-11.67-42.069c3.44-13.851,14.42-37.971,23.16-15.5C129.76,681.02,134.66,691.31,135.96,708.99z"/>
			<path style="fill:none;stroke:#231F20;stroke-width:21;" d="M217.69,617.31c-10.68-7-23.33-6.109-27.48,9.53
				c-4.22,15.95,18.88,27.34,31.13,30.63c16.67,4.49,50.62,18.37,24.78-12.729C239.13,636.33,232.51,627.05,217.69,617.31z"/>
			<path style="fill:none;stroke:#231F20;stroke-width:14;" d="M157.31,654.67c-5.68,3.35-7.58,10.67-4.23,16.36
				c3.35,5.68,10.67,7.58,16.36,4.239c5.69-3.35,7.59-10.68,4.24-16.369C170.33,653.21,163,651.32,157.31,654.67z"/>
			<path style="fill:none;stroke:#231F20;stroke-width:14;" d="M158.1,564.39c-5.69,3.341-7.58,10.67-4.24,16.36
				c3.35,5.69,10.68,7.58,16.36,4.24c5.7-3.36,7.59-10.681,4.24-16.37C171.12,562.94,163.79,561.04,158.1,564.39z"/>
			<path style="fill:none;stroke:#231F20;stroke-width:21;" d="M193.89,685.57c-3,1.77,7.05,20.91,16.28,36.6
				c9.23,15.68,14.15,21.96,17.15,20.19c3.01-1.761-2.05-15.91-11.28-31.591C206.81,695.09,196.9,683.8,193.89,685.57z"/>
			<path style="fill:none;stroke:#231F20;stroke-width:21;" d="M90,621.46c0.32,3.47,15.27,4.91,33.38,3.23
				c30.12-2.811,33.89,8.59,32.23-9.341c-0.32-3.46-15.27-4.899-33.39-3.22C104.09,613.82,89.67,617.98,90,621.46z"/>
		</g>
	</g>
</g>
<rect style="fill:none;" width="850.394" height="850.394"/>
</svg>
