<?xml version="1.0" encoding="iso-8859-1"?>
<!-- Generator: Adobe Illustrator 12.0.1, SVG Export Plug-In . SVG Version: 6.00 Build 51448)  -->
<!DOCTYPE svg PUBLIC "-//W3C//DTD SVG 1.1//EN" "http://www.w3.org/Graphics/SVG/1.1/DTD/svg11.dtd" [
	<!ENTITY ns_svg "http://www.w3.org/2000/svg">
	<!ENTITY ns_xlink "http://www.w3.org/1999/xlink">
]>
<svg  version="1.1" id="Layer_1" xmlns="&ns_svg;" xmlns:xlink="&ns_xlink;" width="850.394" height="850.394"
	 viewBox="0 0 850.394 850.394" style="overflow:visible;enable-background:new 0 0 850.394 850.394;" xml:space="preserve">
<g>
	<g id="XMLID_4_">
		<g>
			<path style="fill:#FFF400;" d="M73.09,245.41c0,0-15.23-7.31-0.3-13.32c30.86-12.45,44.65-18.9,44.65-18.9s0.92-2.2,3.02-5.52
				L122,208l14.59,27.58l-8.93,15.91l-20.02-2.23L73.09,245.41z"/>
			<path style="fill:#9C5B16;" d="M107.64,249.26l20.02,2.23l8.93-15.91L122,208l-1.54-0.33c5-7.87,16.66-22.04,38.62-28.22
				c31.23-8.8,59.21-3.27,83.91,27.32c24.7,30.58,41.43,91.36,53.71,98.25c0,0,86.64,42,120.28,74.4
				c15.74,15.16,41.58,35.64,66.3,54.08c28.109,20.98,54.79,39.32,63.5,44.2c16.38,9.189,77.62,43.52,77.62,43.52l-26.15,0.221
				l184.84,133.42l-188.7-91.49c0,0-60.989-13.48-99.85-20.91c-38.85-7.45-20.62-11.56-60.39,6.79
				c-39.78,18.34-111.65,24.27-111.65,24.27c-43.77,4.16-118.86,5.561-178.22-39.659C80.97,485.63,91.29,383.53,91.29,383.53
				s1.31-37.52,14.31-60.72c13-23.19,21.17-27.8,20.89-45.49c-0.38-24.89-18.85-28.05-18.85-28.05V249.26z M181.93,229.32
				c8.51-2.4,17.05-10.16,17.05-10.16c-6.8-9.2-10.87-16.86-23.65-13.26c-12.77,3.59-17.98,15.02-17.98,15.02
				S173.41,231.72,181.93,229.32z"/>
			<path d="M198.98,219.16c0,0-8.54,7.76-17.05,10.16c-8.52,2.4-24.58-8.4-24.58-8.4s5.21-11.43,17.98-15.02
				C188.11,202.3,192.18,209.96,198.98,219.16z"/>
		</g>
		<g>
			<path style="fill:none;stroke:#231F20;stroke-width:21;" d="M107.64,249.27c0,0,18.47,3.16,18.85,28.05
				c0.28,17.69-7.89,22.3-20.89,45.49c-13,23.2-14.31,60.72-14.31,60.72s-10.32,102.1,52.99,150.331
				c59.36,45.22,134.45,43.819,178.22,39.659c0,0,71.87-5.93,111.65-24.27c39.77-18.35,21.54-14.24,60.39-6.79
				c38.86,7.43,99.85,20.91,99.85,20.91l188.7,91.49L598.25,521.44l-0.01-0.011"/>
			<path style="fill:none;stroke:#231F20;stroke-width:21;" d="M122,208l14.59,27.58l-8.93,15.91l-20.02-2.23l-34.55-3.85
				c0,0-15.23-7.31-0.3-13.32c30.86-12.45,44.65-18.9,44.65-18.9s0.92-2.2,3.02-5.52c5-7.87,16.66-22.04,38.62-28.22
				c31.23-8.8,59.21-3.27,83.91,27.32c24.7,30.58,41.43,91.36,53.71,98.25c0,0,86.64,42,120.28,74.4
				c15.74,15.16,41.58,35.64,66.3,54.08c28.109,20.98,54.79,39.32,63.5,44.2c16.38,9.189,77.62,43.52,77.62,43.52l-26.15,0.221
				l-18.69,0.149c0,0-126.319-20.63-158.459-18.72c-32.16,1.91-145.68,6.81-209.97-29.23c-42.44-23.8-57.61-64.99-57.89-98.61"/>
			<path style="fill:none;stroke:#231F20;stroke-width:7;" d="M157.35,220.92c0,0,5.21-11.43,17.98-15.02
				c12.78-3.6,16.85,4.06,23.65,13.26c0,0-8.54,7.76-17.05,10.16C173.41,231.72,157.35,220.92,157.35,220.92z"/>
			<path style="fill:none;stroke:#231F20;stroke-width:21;" d="M208.66,430.19c0,0,48.33,30.409,110.77,30.829
				c52.55,0.341,89.43-8.829,89.43-8.829l-6.39-22.721l80.81,4.03"/>
			<path style="fill:none;stroke:#231F20;stroke-width:14;stroke-linecap:round;stroke-linejoin:round;" d="M346.83,575.92
				l-20.17,53.74l-3.06,3.71l-1.33,1.6c-9.73,2.73-16.66,8.61-25.17,13.99c0.75,5.19,7.63,16.23,7.63,16.23"/>
			<path style="fill:none;stroke:#231F20;stroke-width:14;stroke-linecap:round;stroke-linejoin:round;" d="M324.2,633.65
				c-0.2-0.101-0.4-0.19-0.6-0.28c-8.93-4.07-24.37-2.79-33.56-0.8c-7.63,1.63-8.9,1.8-11.11,9.12
				c-1.62,5.34,0.71,13.55,2.47,18.909"/>
			<path style="fill:none;stroke:#231F20;stroke-width:14;stroke-linecap:round;stroke-linejoin:round;" d="M300.96,576.76
				l-24.83,44.29l-3.07,3.73l-1.32,1.59c-9.73,2.72-16.66,8.61-25.17,13.979c0.76,5.19,7.64,16.23,7.64,16.23"/>
			<path style="fill:none;stroke:#231F20;stroke-width:14;stroke-linecap:round;stroke-linejoin:round;" d="M273.67,625.06
				c-0.2-0.1-0.4-0.199-0.61-0.279c-8.93-4.09-24.37-2.811-33.56-0.83c-7.61,1.649-8.89,1.81-11.11,9.13
				c-1.61,5.34-2.44,11.04-0.7,16.41"/>
		</g>
	</g>
</g>
<rect style="fill:none;" width="850.394" height="850.394"/>
</svg>
