<?xml version="1.0" encoding="iso-8859-1"?>
<!-- Generator: Adobe Illustrator 12.0.1, SVG Export Plug-In . SVG Version: 6.00 Build 51448)  -->
<!DOCTYPE svg PUBLIC "-//W3C//DTD SVG 1.1//EN" "http://www.w3.org/Graphics/SVG/1.1/DTD/svg11.dtd" [
	<!ENTITY ns_svg "http://www.w3.org/2000/svg">
	<!ENTITY ns_xlink "http://www.w3.org/1999/xlink">
]>
<svg  version="1.1" id="Layer_1" xmlns="&ns_svg;" xmlns:xlink="&ns_xlink;" width="850.394" height="850.394"
	 viewBox="0 0 850.394 850.394" style="overflow:visible;enable-background:new 0 0 850.394 850.394;" xml:space="preserve">
<g id="XMLID_3_">
	<g>
		<path style="fill:#9E5C26;" d="M583.105,526.682V773.09H73.263V526.682H583.105z M559.362,747.52V553.178H95.217V747.52H559.362z"
			/>
		<polygon style="fill:#F6CC4B;" points="583.105,526.682 73.263,526.682 71.061,524.392 76.015,519.638 145.032,453.235 
			326.039,453.235 512.662,453.298 579.015,517.824 585.545,524.167 		"/>
		<path style="fill:#9E5C26;" d="M516.803,258.455v193.404H326.039H137.776V254.74h379.026V258.455z M491.058,428.591V280.873
			H161.47v147.718H491.058z"/>
		<rect x="95.217" y="553.178" style="fill:#FAA41F;" width="464.145" height="194.342"/>
		<rect x="161.47" y="280.873" style="fill:#F6CC4B;" width="329.587" height="147.718"/>
	</g>
	<g>
		<rect x="73.263" y="526.682" style="fill:none;stroke:#231F20;stroke-width:17.5139;" width="509.843" height="246.408"/>
		<polyline style="fill:none;stroke:#231F20;stroke-width:17.5139;" points="586.021,524.63 585.545,524.167 579.015,517.824 
			512.662,453.298 326.039,453.235 145.032,453.235 76.015,519.638 71.061,524.392 70.46,524.979 		"/>
		<polygon style="fill:none;stroke:#231F20;stroke-width:17.5139;" points="516.803,258.455 516.803,451.859 326.039,451.859 
			137.776,451.859 137.776,254.74 516.803,254.74 		"/>
		<rect x="95.217" y="553.178" style="fill:none;stroke:#231F20;stroke-width:8.757;" width="464.145" height="194.342"/>
		<rect x="161.47" y="280.873" style="fill:none;stroke:#231F20;stroke-width:8.757;" width="329.587" height="147.718"/>
		<line style="fill:none;stroke:#231F20;stroke-width:8.1367;" x1="137.776" y1="254.74" x2="74.614" y2="518.175"/>
		<polyline style="fill:none;stroke:#231F20;stroke-width:8.1367;" points="516.34,256.529 516.803,258.455 579.015,517.824 
			579.528,519.951 		"/>
	</g>
</g>
<rect style="fill:none;" width="850.394" height="850.394"/>
<g>
	<g id="XMLID_1_">
		<g>
			<path style="fill:#EEDCEB;" d="M684.367,171.87c-13.164-27.207-55.291-58.802-59.679-86.886l-2.348-0.816
				c20.115-9.781,63.826-29.418,63.826-29.418s24.503-11.94,32.134-5.27c3.072,2.686,3.937,7.359,1.396,18.176
				c-0.789,3.37-1.908,7.337-3.4,12.028c-0.299,0.935-0.61,1.9-0.935,2.892c-3.923,11.953-20.05,58.205-30.933,89.317
				L684.367,171.87z"/>
			<path style="fill:#CC82B7;" d="M684.429,171.892c-3.458,9.9-6.389,18.268-8.224,23.507c0.452-4.835-1.466-11.049-6.897-19.009
				c-0.799-1.172-1.677-2.387-2.634-3.638c-27.294-35.698-38.984-49.521-38.984-49.521s-26.601-28.181-11.326-36.084
				c0.566-0.294,1.181-0.605,1.848-0.943c1.225-0.614,2.606-1.299,4.13-2.036l2.348,0.816c4.388,28.084,46.515,59.679,59.679,86.886
				L684.429,171.892z"/>
			<path style="fill:#FFFFC2;" d="M674.147,201.267c0,0,0.755-2.146,2.058-5.867c-0.206,2.243-0.926,4.191-2.04,5.88
				L674.147,201.267z"/>
			<path style="fill:#EEDCEB;" d="M660.526,209.63c5.806-1.606,10.913-4.204,13.639-8.351c1.114-1.689,1.834-3.638,2.04-5.88
				c1.835-5.239,4.766-13.607,8.224-23.507c10.883-31.112,27.01-77.364,30.933-89.317c0.324-0.992,0.636-1.957,0.935-2.892
				l0.417,0.132c3.94,3.787,8.162,7.517,11.962,11.374c24.148,24.513,39.945,39.432,55.84,51.627
				c31.068,23.841-0.097,24.666-8.873,29.054c-3.488,1.742-63.856,24.53-114.843,38.743L660.526,209.63z"/>
			<path style="fill:#EEDCEB;" d="M629.796,211.737c0,0,17.25,1.619,30.73-2.106l0.272,0.983
				c-23.513,6.552-45.032,11.282-58.052,11.282c-11.409,0-10.531,0-20.186-4.388l-2.606-0.285c2.598-3.326,7.267-5.485,12.44-5.485
				C599.241,211.737,629.796,211.737,629.796,211.737z"/>
			<path style="fill:#EEDCEB;" d="M592.869,260.709c-8.604,3.151-16.807,2.041-23.354-2.831l0.229-0.312
				c-6.429-10.541,1.202-16.359,11.168-17.807c7.135-1.036,24.529,3.989,33.596-2.273h0.004c4.445-0.439,9.102-1.146,13.85-2.071
				c-4.722,1.997-14.17,9.72-17.597,13.274C605.564,254.083,599.938,258.125,592.869,260.709z"/>
			<path style="fill:#CC82B7;" d="M614.508,237.487c-14.188,1.417-26.241,0.158-32.319-5.222c-0.724-0.632-1.36-1.33-1.909-2.089
				c-3.483-4.827-3.015-9.513-0.324-12.954l2.606,0.285c9.654,4.388,8.776,4.388,20.186,4.388c13.02,0,34.539-4.73,58.052-11.282
				c50.986-14.213,111.354-37.001,114.843-38.743c8.776-4.388,39.941-5.213,8.873-29.054c-15.895-12.195-31.691-27.114-55.84-51.627
				c-3.8-3.857-8.021-7.587-11.962-11.374l-0.417-0.132c1.492-4.691,2.611-8.658,3.4-12.028
				c8.171,0.013,24.386,17.741,39.696,31.872c12.594,11.624,45.83,35.82,55.839,51.627c10.005,15.806,2.633,22.125-8.956,25.815
				c-5.683,1.808-152.771,53.207-175.426,57.946c-0.834,0.176-1.664,0.342-2.488,0.5c-4.748,0.926-9.404,1.632-13.85,2.071H614.508z
				"/>
			<path style="fill:#CC82B7;" d="M582.188,232.265c-3.321-0.268-7.543-4.112-11.273-8.329c-3.089-3.493-5.845-7.241-7.469-9.426
				c-0.965-1.299-1.904-2.615-2.821-3.949l1.751-0.075c28.698-34.785,101.345,1.953,106.932-34.096
				c5.432,7.96,7.35,14.174,6.897,19.009c-1.303,3.721-2.058,5.867-2.058,5.867l0.018,0.013c-2.726,4.147-7.833,6.745-13.639,8.351
				c-13.48,3.726-30.73,2.106-30.73,2.106s-30.555,0-37.4,0c-5.174,0-9.843,2.159-12.44,5.485c-2.69,3.44-3.159,8.127,0.324,12.954
				C580.828,230.935,581.465,231.633,582.188,232.265z"/>
			<path style="fill:#CC82B7;" d="M554.596,238.158c1.237-4.994-5.683-7.649,15.679-13.63l0.641-0.592
				c3.73,4.217,7.952,8.061,11.273,8.329c6.078,5.38,18.132,6.64,32.319,5.222c-9.066,6.262-26.461,1.237-33.596,2.273
				c-9.966,1.448-17.597,7.267-11.168,17.807l-0.229,0.312c-2.146-1.597-4.116-3.598-5.862-5.99
				C560.432,247.487,557.452,242.875,554.596,238.158z"/>
			<path style="fill:#EEDCEB;" d="M521.435,151.693c-5.038-6.561-20.011-23.433-23.648-8.228h-0.013
				c0.035-1.088,0.145-2.203,0.324-3.348c3.046-19.154,25.166-26.798,41.508-31.634c12.204-3.616,24.245-6.442,36.606-9.338
				c11.923-2.795,30.704-7.32,41.986-12.967l0.013,0.026c-0.667,0.338-1.281,0.649-1.848,0.943
				c-15.274,7.903,11.326,36.084,11.326,36.084s11.69,13.823,38.984,49.521c0.957,1.25,1.835,2.466,2.634,3.638
				c-5.587,36.049-78.233-0.689-106.932,34.096l-1.751,0.075c-6.42-9.325-11.756-19.427-17.724-28.98
				C536.517,171.357,528.723,161.194,521.435,151.693z"/>
			<path style="fill:#EEDCEB;" d="M497.786,143.465c3.638-15.205,18.61,1.667,23.648,8.228c7.288,9.5,15.082,19.664,21.467,29.888
				c5.968,9.553,11.304,19.655,17.724,28.98c0.917,1.334,1.856,2.65,2.821,3.949c1.624,2.185,4.38,5.933,7.469,9.426l-0.641,0.592
				c-21.361,5.981-14.441,8.636-15.679,13.63c-7.21-11.901-13.639-24.473-21.116-36.062c-6.797-10.536-13.88-20.208-21.699-29.871
				c-7.061-8.728-14.411-17.215-14.007-28.76H497.786z"/>
		</g>
		<g>
			<path style="fill:none;stroke:#231F20;stroke-width:9.285;" d="M614.512,237.487c4.445-0.439,9.102-1.146,13.85-2.071
				c0.824-0.158,1.654-0.325,2.488-0.5c22.655-4.739,169.743-56.138,175.426-57.946c11.589-3.69,18.961-10.009,8.956-25.815
				c-10.009-15.807-43.245-40.003-55.839-51.627c-15.311-14.13-31.525-31.858-39.696-31.872c-0.004,0-0.004,0-0.009,0"/>
			<path style="fill:none;stroke:#231F20;stroke-width:9.285;" d="M674.147,201.267c0,0,0.755-2.146,2.058-5.867
				c1.835-5.239,4.766-13.607,8.224-23.507c10.883-31.112,27.01-77.364,30.933-89.317c0.324-0.992,0.636-1.957,0.935-2.892
				c1.492-4.691,2.611-8.658,3.4-12.028c2.541-10.817,1.677-15.49-1.396-18.176c-7.631-6.67-32.134,5.27-32.134,5.27
				s-43.711,19.637-63.826,29.418c-1.523,0.737-2.905,1.422-4.13,2.036c-0.667,0.338-1.281,0.649-1.848,0.943
				c-15.274,7.903,11.326,36.084,11.326,36.084s11.69,13.823,38.984,49.521c0.957,1.25,1.835,2.466,2.634,3.638
				c5.432,7.96,7.35,14.174,6.897,19.009c-0.206,2.243-0.926,4.191-2.04,5.88c-2.726,4.147-7.833,6.745-13.639,8.351
				c-13.48,3.726-30.73,2.106-30.73,2.106s-30.555,0-37.4,0c-5.174,0-9.843,2.159-12.44,5.485c-2.69,3.44-3.159,8.127,0.324,12.954
				c0.549,0.759,1.186,1.457,1.909,2.089c6.078,5.38,18.132,6.64,32.319,5.222"/>
			<path style="fill:none;stroke:#231F20;stroke-width:9.285;" d="M618.729,85.91c-0.175,0.092-0.351,0.18-0.53,0.268
				c-11.282,5.647-30.063,10.172-41.986,12.967c-12.361,2.896-24.402,5.722-36.606,9.338c-16.342,4.836-38.462,12.48-41.508,31.634
				c-0.18,1.146-0.289,2.26-0.324,3.348c-0.404,11.545,6.946,20.032,14.007,28.76c7.819,9.663,14.902,19.334,21.699,29.871
				c7.478,11.589,13.906,24.161,21.116,36.062c2.856,4.717,5.836,9.329,9.058,13.73c1.746,2.392,3.717,4.393,5.862,5.99
				c6.547,4.871,14.749,5.981,23.354,2.831c7.069-2.584,12.695-6.626,17.896-12.019c3.427-3.555,12.875-11.278,17.597-13.274
				c0.018-0.009,0.035-0.013,0.053-0.022"/>
			<path style="fill:none;stroke:#231F20;stroke-width:9.285;" d="M569.744,257.567c-6.429-10.541,1.202-16.359,11.168-17.807
				c7.135-1.036,24.529,3.989,33.596-2.273h0.004"/>
			<path style="fill:none;stroke:#231F20;stroke-width:9.285;" d="M497.786,143.465c3.638-15.205,18.61,1.667,23.648,8.228
				c7.288,9.5,15.082,19.664,21.467,29.888c5.968,9.553,11.304,19.655,17.724,28.98c0.917,1.334,1.856,2.65,2.821,3.949
				c1.624,2.185,4.38,5.933,7.469,9.426c3.73,4.217,7.952,8.061,11.273,8.329c0.066,0.009,0.132,0.009,0.197,0.013"/>
			<path style="fill:none;stroke:#231F20;stroke-width:6.1435;" d="M624.688,84.984c4.388,28.084,46.515,59.679,59.679,86.886"/>
			<path style="fill:none;stroke:#231F20;stroke-width:6.1435;" d="M669.447,175.381c-0.039,0.342-0.088,0.68-0.14,1.009
				c-5.587,36.049-78.233-0.689-106.932,34.096"/>
			<path style="fill:none;stroke:#231F20;stroke-width:6.1435;" d="M570.274,224.528c-21.361,5.981-14.441,8.636-15.679,13.63
				c-0.03,0.136-0.07,0.272-0.118,0.413"/>
			<path style="fill:none;stroke:#231F20;stroke-width:6.1435;stroke-linecap:round;stroke-linejoin:round;" d="M582.562,217.507
				c9.654,4.388,8.776,4.388,20.186,4.388c13.02,0,34.539-4.73,58.052-11.282c50.986-14.213,111.354-37.001,114.843-38.743
				c8.776-4.388,39.941-5.213,8.873-29.054c-15.895-12.195-31.691-27.114-55.84-51.627c-3.8-3.857-8.021-7.587-11.962-11.374"/>
		</g>
	</g>
</g>
</svg>
