<svg id="Layer_1" xmlns="http://www.w3.org/2000/svg" viewBox="0 0 850 850"><style>.st0{fill:#ffeec8}.st1{fill:#ed1e29}.st2{fill:#231f20}.st3{fill:#fff}.st4{fill:#9c5c25}.st5,.st6,.st7,.st8{fill:none;stroke:#231f20;stroke-width:13.5;stroke-linecap:round;stroke-miterlimit:10}.st6,.st7,.st8{stroke-width:21}.st7,.st8{stroke-width:14}.st8{stroke-width:6.75}</style><path class="st0" d="M299.4 663.3l4-2.3 8 8.3 8 7.7 7.7 7.5 8 6.8 7.8 6.2 7.5 5.5 7.2 4.8 7.3 4.5 4 1.5 3.7 1.5 3.8 1 3.5 1 3.7.7 3.5.5 7.3.8 7.2.2h7.5l16.8-.2h13l1.5.2 4.5.3h7l4.2-.3 4.8-.5 5-1 5.5-1.2 5.7-1.8 6-2.2 6.3-2.8 6.5-3.2 6.2-4.3 3.3-2.2 3.2-2.5 3.8-3 3.5-3.3 3.2-3.2 3-3.3 5.5-6.2 4.5-6 3.5-5.3 2.8-4 2-3.5 4.7-5.5 1.8 1.8.2 2.5.5 6.5 1.3 9.7.7 5.5 1.3 5.8 1.2 6 1.5 6 2 5.7 2 5.8 2.5 5 1.5 2.2 1.3 2.3 1.7 2 1.5 1.7 1.8 1.5 2 1.5 2.5 1.5 3.5 1.5 9.2 4.3 11.5 4.5 13.3 5.2 14.7 5.3 15.3 5.5 30.7 10.7-1.2 4.8-486.8-5.8.3-4.2 29.5-10.5 28.2-10.3 12.5-4.7 10.8-4.5 8.5-3.8 3.2-1.5 2.5-1.5 1.8-1.2 1.7-1.5 1.8-1.8 1.5-1.7 1.5-1.8 1.2-2.2 2.3-4.3 2.2-4.7 1.5-5 1.5-5 1.3-5 1-5 .5-4.5 1-8 .5-5.3z"/><path class="st0" d="M303.4 661l-6.5-7.5-6.8-7.8-6.5-8-6.3-8.3-6.3-8.5-6.3-9-6-9-5.7-9.3-5.5-9.5-5.3-9.8-5-10-4.8-10-4.5-10.3-4-10.5-3.8-10.5-3.5-10.5-3-11-1-5-.8-5-.5-5v-10l.3-5 1-10.3 2.5-20.5 1.3-10.5.3-5.3V420l.3-46.5.3-27.8-2-1.8 9-11 9.3-11 9.3-10.8 9-9.8 13.7-14.8 5.5-5.8 2-1.5 2.8-1.5 7.5-3.8 10-4.3 11.8-4.8 28-11.3 32-12.5 33.3-13.5 16-6.8 15.5-6.8 14.3-6.5 13-6.5 6-3.3 5.3-3 5-3 4.3-2.8 1 .5 1.5.5 5 3.3 7.5 5.5 4.5 3.5 5.3 4.5 5.5 4.8 6.3 5.8 6.8 6.5 7.3 7.3 7.5 8 8 9 8.5 9.8 8.8 10.8 9 11.8 9.5 12.8 2 2.5 2.8 3 6.8 7 7.8 8.3 8.5 9.5 4.3 5 4.3 5.3 4 5.5 3.8 5.8 3.5 5.8 3 6 2.5 6.3 1 3.3.8 3 .3 1.5.5 25.8V420l.3 5.3.3 5.3 1 10.3 2.5 20.3 1 10.3.3 5 .3 5-.3 5-.5 5-.8 4.8-1 5-3 10.5-3.8 10.5-4 10.3-4.5 10.3-4.8 10-5.3 9.8-5.5 9.5-5.8 9.5-6 9.3-6.3 8.8-6.3 8.8-6.3 8.5-6.5 8.3-12.8 15.5-12.3 14.3-4.8 5.5-2 3.5-2.8 4-3.5 5.3-4.5 6-5.5 6.3-3 3.3-3.3 3.3-3.5 3.3-3.8 3-3.3 2.5-3.3 2.3-6.3 4.3-6.5 3.3-6.3 2.8-6 2.3-5.8 1.8-5.5 1.3-5 1-4.8.5-4.3.3h-7.1l-4.5-.3-1.5-.3h-13l-16.8.3h-7.5l-7.3-.3-7.3-.8-3.5-.5-3.8-.8-3.5-1-3.8-1-3.8-1.5-4-1.5-7.3-4.5-7.3-4.8-7.5-5.5-7.8-6.3-8-6.8-7.8-7.5-8-7.8-7.4-9.2zm125-106.5l-1 .3h2.3l-1.3-.3zM529.1 432l2.5-.3 2.5-.3 2.3-.8 2.3-.8 2.3-1 2-1 2-1.5 1.8-1.5 1.5-1.5 1.5-2 1.3-1.8 1-2 .8-2.3.8-2.3.3-2.3.3-2.5-.3-2.3-.3-2.3-.8-1.8-.8-1.8-1-1.5-1.3-1.5-1.5-1-1.5-1.3-1.8-.8-2-.8-2-.5-2.3-.5-4.5-.8h-10l-4.8.8-2.3.5-2 .5-1.8.8-2 .8-1.5 1.3-1.5 1-1.3 1.5-1 1.5-.8 1.8-.8 1.8-.3 2.3-.3 2.3.3 2.5.3 2.3.8 2.3.8 2.3 1 2 1.3 1.8 1.5 2 1.5 1.5 2 1.5 1.8 1.5 2 1 2.3 1 2.3.8 2.5.8 2.3.3 2.6.3zm-197.5-39l-5 .3-4.5.5-2.3.5-2 .5-2 .8-1.8 1-1.5 1-1.5 1.3-1.3 1.3-1 1.5-.8 1.8-.8 2-.3 2-.3 2.5.3 2.3.3 2.3.8 2.3.8 2.3 1 2 1.3 2 1.5 1.8 1.5 1.8 1.8 1.5 2 1.3 2 1.3 2.3 1 2.3.8 2.3.5 2.5.5h5.3l2.3-.5 2.5-.5 2.3-.8 2.3-1 2-1.3 2-1.3 1.8-1.5 1.5-1.8 1.5-1.8 1.3-2 1-2 .8-2.3.8-2.3.3-2.3.3-2.3-.3-2.5-.3-2-.8-2-.8-1.8-1-1.5-1.3-1.3-1.5-1.3-1.5-1-1.8-1-2-.8-2-.5-2.3-.5-4.8-.5-5.2-.3zm134.8 231.5l-1-2.3-2-3.3-2.8-4.3-3.5-4.8-3.5-4.8-3.5-4.3-3.3-3.8-2.8-2.5-1.3-.8-1.3-.3-1.3-.3h-1.3l-1.3.3-1.3.5-2.5 1-2.3 1.5-1.8 1.3-1.8 1.5-1.5-1.5-1.8-1.3-2.3-1.5-2.5-1-1.3-.5-1.5-.3h-1.3l-1.3.3-1.3.3-1.3.8-2.8 2.5-3.3 3.8-3.5 4.3-3.5 4.8-3.3 4.8-3 4.3-2 3.3-1 2.3.8 2.3 2 6 2.3 5.5 3.3 6.5 1 1.8 1.3 2 2 2.3 4.3 2.8-.5.5v.8l.5.3 1.8.8 3.3.8 3.8 1.5 3.5 1.5 4 1 1.8.5h4l2.3-.3 4.3-.8 4.3-1.5 4-1.5 3.5-1.8 2.8-1.5 2.5-1.5 2.8-2.8 1.8-2.5 1.3-2.3 2.8-5.3 2-4.5 1.3-4 1-3 1.2-3.6z"/><path class="st1" d="M393.9 632.5l-.3-.7v-1l.5-2.5 1.3-1.5 1-.8 11.5-9.2 2.2-1.5 2.3-1 2-.3 2 .3 1.7.5 1.5.5 2.5 1.5 1.8.7 1.5.8 1.5.2 1.5.3 1.5-.3 1.5-.2 1.5-.8 1.7-.7 2.5-1.5 1.5-.5 1.8-.5 2-.3 2 .3 2.2 1 2.3 1.5 12 9-.5 2.5-.8 2-.7 2-1.3 1.5-2.2 2.7-1 1.5-1 1.3-.5.7-.8.5-2.7 1.3-3.5 1-4.5 1.2-10.3 2.5-10.5 2.5-7.5-4-3.7-2.2-3.5-2.5-3.5-2.8-3-2.7-2.8-3-2-3.3.8 5h-.5l-.5-.2z"/><path class="st0" d="M412.1 656.5l-3.2-.7-1.8-.8-.5-.2v-.8l.5-.5z"/><path class="st2" d="M396.4 626l-1 .8-1.3 1.5.5-2.8 1-2.7 2.3-6 2.2-4.8 1.3-2.7 1.7-2.3 1.5-2 1.8-1.7 1.7-1.3 1.5-.7 2-.5h1.8l2 .7 4.2 1.8 2.3.7 2.2.5 2.3.5h2.2l2.3-.2 2.2-.3 2.5-.5h2.5l2.5.5 2.3.5 2.2 1 2.5 1.3 5 2.7 2.5 1.8 1.3 1 1.5 1.2 1 1.8 1 2 .7 2.5.3 3.2v2.3l-12-9-2.3-1.5-2.2-1-2-.3-2 .3-1.8.5-1.5.5-2.5 1.5-1.7.7-1.5.8-1.5.2-1.5.3-1.5-.3-1.5-.2-1.5-.8-1.8-.7-2.5-1.5-1.5-.5-1.7-.5-2-.3-2 .3-2.3 1-2.2 1.5zM331.1 402l1.8.3 1.7.5 1.5.7 1.3.8 1 1.2.7 1.3.5 1.5.3 1.5-.3 1.7-.5 1.3-.7 1.5-1 1-1.3 1-1.5.7-1.7.5h-3.5l-1.5-.5-1.5-.7-1.3-1-1-1-1-1.5-.5-1.3v-3.2l.5-1.5 1-1.3 1-1.2 1.3-.8 1.5-.7 1.5-.5zM529.6 401l1.8.3 1.5.2 1.5.8 1.2 1 1 1.2 1 1.3.5 1.5v3l-.5 1.5-1 1.2-1 1.3-1.2.7-1.5.8-1.5.5-1.8.2-1.7-.2-1.8-.5-1.5-.8-1.2-.7-1-1.3-.8-1.2-.5-1.5-.2-1.5.2-1.5.5-1.5.8-1.3 1-1.2 1.2-1 1.5-.8 1.8-.2z"/><path class="st3" d="M529.1 392h5l4.5.8 2.3.5 2 .5 2 .8 1.8.8 1.5 1.3 1.5 1 1.3 1.5 1 1.5.8 1.8.8 1.8.3 2.3.3 2.3-.3 2.5-.3 2.3-.8 2.3-.8 2.3-1 2-1.3 1.8-1.5 2-1.5 1.5-1.8 1.5-2 1.5-2 1-2.3 1-2.3.8-2.3.8-2.5.3-2.5.3-2.8-.3-2.3-.3-2.5-.8-2.3-.8-2.3-1-2-1-1.8-1.5-2-1.5-1.5-1.5-1.5-2-1.3-1.8-1-2-.8-2.3-.8-2.3-.3-2.3-.3-2.5.3-2.3.3-2.3.8-1.8.8-1.8 1-1.5 1.3-1.5 1.5-1 1.5-1.3 2-.8 1.8-.8 2-.5 2.3-.5 4.8-.8h5.2zm9 16.8v-1.5l-.5-1.5-1-1.3-1-1.3-1.3-1-1.5-.8-1.5-.3-1.8-.3-1.8.3-1.8.3-1.5.8-1.3 1-1 1.3-.8 1.3-.5 1.5-.3 1.5.3 1.5.5 1.5.8 1.3 1 1.3 1.3.8 1.5.8 1.8.5 1.8.3 1.8-.3 1.5-.5 1.5-.8 1.3-.8 1-1.3 1-1.3.5-1.5v-1.5zM331.6 393l5 .3 4.8.5 2.3.5 2 .5 2 .8 1.8 1 1.5 1 1.5 1.3 1.3 1.3 1 1.5.8 1.8.8 2 .3 2 .3 2.5-.3 2.3-.3 2.3-.8 2.3-.8 2.3-1 2-1.3 2-1.5 1.8-1.5 1.8-1.8 1.5-2 1.3-2 1.3-2.3 1-2.3.8-2.5.5-2.3.5H329l-2.5-.5-2.3-.5-2.3-.8-2.3-1-2-1.3-2-1.3-1.8-1.5-1.5-1.8-1.5-1.8-1.3-2-1-2-.8-2.3-.8-2.3-.3-2.3-.3-2.3.3-2.5.3-2 .8-2 .8-1.8 1-1.5 1.3-1.3 1.5-1.3 1.5-1 1.8-1 2-.8 2-.5 2.3-.5 4.5-.5 5.2-.3zm8.3 16.8l-.3-1.5-.5-1.5-.8-1.3-1-1.3-1.3-.8-1.5-.8-1.8-.5-1.8-.3-1.8.3-1.5.5-1.5.8-1.3.8-1 1.3-1 1.3-.5 1.5v3.3l.5 1.3 1 1.5 1 1 1.3 1 1.5.8 1.5.5h3.6l1.8-.5 1.5-.8 1.3-1 1-1 .8-1.5.5-1.3.3-1.8z"/><path class="st0" d="M214.4 373.5h2.7l-.2 46.5v5.3l-.3 5.2-1.2 10.5-2.5 20.5-1 10.3-.3 5v10l.5 5 .8 5 1 5 3 11-.8.2-2.7-.7-2.5-.8-2.5-1-2-1.2-2.3-1.5-1.7-1.5-1.8-1.8-1.5-1.7-1.2-1.8-1.3-2-1.7-3.7-1.3-3.5-.5-3-.2-4.8-.3-4.5.3-8 .2-7.7-.2-7.8-.3-4-.5-4.2-.5-4.3-1.2-4.5-1.3-5-2-5-2.2-5.7-2.8-6-1.2-2.8-1-3-1-3.2-.8-3.3-.5-3.5-.5-3.5.3-3.5.2-3.5.8-3.5 1-3 1.7-3 2-2.7 1-1.3 1.5-1 1.5-1 1.5-1 1.8-.7 2-.8 2-.5 2.2-.5 4.8-.5h4.5l4.2.8zM634.6 371h2.3l4.2-1.2 4.3-.5 4.5-.3 4.7.5 2.3.5 2 .5 2 .8 1.7.7 1.5 1 1.5 1 1.3 1 1.2 1.3 2 2.7 1.8 3 1 3.3.7 3.2.3 3.5v3.5l-.3 3.5-.5 3.5-.7 3.3-1 3.2-1 3-1.3 2.8-2.7 6-2.3 5.7-2 5.3-1.2 4.7-1.3 4.5-.7 4.5-.5 4-.3 4v7.8l.3 7.7.2 8.3-.2 4.2-.3 4.8-.2 1.2-.5 1.5-1.5 3.3-2.5 3.7-3 3.8-3.5 3.5-3.8 3.2-4 3-2 1.3-2 1-.2-.3 3-10.5 1-5 .7-4.7.5-5 .3-5-.3-5-.2-5-1-10.3-2.5-20.2-1-10.3-.3-5.2-.2-5.3v-23.2l-.5-25.8z"/><path class="st4" d="M477.6 189.5l-4.2 2.8-5 3-5.3 3-6 3.2-13 6.5-14.2 6.5-15.5 6.8-16 6.7-33.3 13.5-32 12.5-28 11.3-11.7 4.7-10 4.3-7.5 3.7-2.8 1.5-2 1.5-5.5 5.8-13.7 14.7-9 9.8-9.3 10.7-9.2 11-9 11-6 7.8-5.3 7.5-4.2 6.7-1.8 3-1.5 3-2.2-69.7.2-10.3.8-10 1.2-9.7 1.8-9.5 2-9 2.5-9 2.7-8.5 3-8.3 3.3-8 3.5-7.7 3.7-7.3 4-7 4-6.7 4.3-6.5 4.2-6 4.3-6 4.2-5.3 4.3-5.2 4-4.8 4-4.5 7.7-8 6.8-6.5 6-5 4.2-3.7 4-3 7.3-4.8 5.5-3.2 4.7-2.8 8.8-5 9.2-4.5 9.5-4 9.8-3.7 10.2-3.3 10.5-3 10.8-2.2 11.2-2 11.5-1.8 11.8-1 12.2-.7 12.8-.3 13 .3 13.2.5 13.8 1 14.2 1.5 8.5 1.2 8.5 1.5 8.3 2.3 8 2.7 8 3 8 3.3 7.7 4 7.5 4.2 7.3 4.8 7.2 5 6.8 5.2 6.7 5.8 6.8 6.2 6.2 6.5 6.3 6.8 5.7 7 5.8 7.2 5.5 7.8 5 8 5 8.2 4.7 8.5 4.5 8.8 4 9 4 9 3.5 9.5 3.3 9.7 3 9.8 2.7 10 2.5 10.2 2 10.3 1.8 10.5 1.5 10.7.2 3.5.3 3.8-.3 8-.7 8.2-1 8.5-1.3 8.8-1.2 8.5-2.8 15.7-4.7-.5-4.5.3-4.3.5-4.2 1.2h-2.3l-.5-1.5-.7-3-1-3.2-2.5-6.3-3-6-3.5-5.7-3.8-5.8-4-5.5-4.2-5.2-4.3-5-8.5-9.5-7.7-8.3-6.8-7-2.7-3-2-2.5-9.5-12.7-9-11.8-8.8-10.7-8.5-9.8-8-9-7.5-8-7.2-7.2-6.8-6.5-6.2-5.8-5.5-4.7-5.3-4.5-4.5-3.5-7.5-5.5-5-3.3-2.2-1.2z"/><path class="st5" d="M281.6 411.5l2.5-2.7 2.5-2.5 2.5-2.3 2.8-2 2.7-1.7 3-1.8 3-1.2 3-1.3 3.3-1 3.2-1 3.3-.7 3.5-.5 3.5-.5 3.5-.3h7.5l6.2.3 6.3.7 6 1 3 .8 2.7 1 2.8 1 2.7 1.2 2.5 1.5 2.3 1.5 2.2 2 2 2 1.8 2.3 1.7 2.5"/><path class="st6" d="M214.4 373.5l-4.3-1.2-4.2-.8h-4.5l-4.8.5-2.2.5-2 .5-2 .8-1.8.7-1.5 1-1.5 1-1.5 1-1 1.3-2 2.7-1.7 3-1 3-.8 3.5-.2 3.5-.3 3.5.5 3.5.5 3.5.8 3.3 1 3.2 1 3 1.2 2.8 2.8 6 2.2 5.7 2 5 1.3 5 1.2 4.5.5 4.3.5 4.2.3 4 .2 7.8-.2 7.7-.3 8 .3 4.5.2 4.8.5 3 1.3 3.5 1.7 3.7 1.3 2 1.2 1.8 1.5 1.7 1.8 1.8 1.7 1.5 2.3 1.5 2 1.2 2.5 1 2.5.8 2.7.7M636.9 371l4.2-1.2 4.3-.5 4.5-.3 4.7.5 2.3.5 2 .5 2 .8 1.7.7 1.5 1 1.5 1 1.3 1 1.2 1.3 2 2.7 1.8 3 1 3.3.7 3.2.3 3.5v3.5l-.3 3.5-.5 3.5-.7 3.3-1 3.2-1 3-1.3 2.8-2.7 6-2.3 5.7-2 5.3-1.2 4.7-1.3 4.5-.7 4.5-.5 4-.3 4v7.8l.3 7.7.2 8.3-.2 4.2-.3 4.8-.2 1.2-.5 1.5-1.5 3.3-2.5 3.7-3 3.8-3.5 3.5-3.8 3.2-4 3-2 1.3-2 1"/><path class="st6" d="M217.4 345.8l-.3 27.7-.2 46.5v5.3l-.3 5.2-1.2 10.5-2.5 20.5-1 10.3-.3 5v10l.5 5 .8 5 1 5 3 11 3.5 10.5 3.7 10.5 4 10.5 4.5 10.2 4.8 10 5 10 5.2 9.8 5.5 9.5 5.8 9.2 6 9 6.2 9 6.3 8.5 6.2 8.3 6.5 8 6.8 7.7 6.5 7.5 8 8.3 8 7.7 7.7 7.5 8 6.8 7.8 6.2 7.5 5.5 7.2 4.8 7.3 4.5 4 1.5 3.7 1.5 3.8 1 3.5 1 3.7.7 3.5.5 7.3.8 7.2.2h7.5l16.8-.2h13l1.5.2 4.5.3h7l4.2-.3 4.8-.5 5-1 5.5-1.2 5.7-1.8 6-2.2 6.3-2.8 6.5-3.2 6.2-4.3 3.3-2.2 3.2-2.5 3.8-3 3.5-3.3 3.2-3.2 3-3.3 5.5-6.2 4.5-6 3.5-5.3 2.8-4 2-3.5 4.7-5.5 12.3-14.2 12.7-15.5 6.5-8.3 6.3-8.5 6.2-8.7 6.3-8.8 6-9.2 5.7-9.5 5.5-9.5 5.3-9.8 4.7-10 4.5-10.2 4-10.3 3.8-10.5 3-10.5 1-5 .7-4.7.5-5 .3-5-.3-5-.2-5-1-10.3-2.5-20.2-1-10.3-.3-5.2-.2-5.3v-23.2l-.5-25.8-.3-1.5V367"/><path class="st7" d="M428.4 554.5l2-.2 1.7-.8 2.8-1.2 2.2-1.3 1.8-1.2 2-1 1-.5 1.2-.3h3l1.8.3 2.2.5 7.8 2 4 .7h3.5l1.5-.2 1.5-.5 1.5-1 1.2-1 1-1.5 1-2 .8-2.5.7-2.8.3-2.5-.3-2M428.4 554.5l1.2.3h-2.2z"/><path class="st7" d="M392.6 412.5l1.8 2 1.5 2.3 1.5 2.5 1.2 2.2 1.3 2.8 1 2.7 1.7 5.8 1.3 6 .7 6.5.5 6.5.3 6.7-.3 6.8-.5 6.7-.7 6.8-1 6.5-1.3 6.2-1.2 5.8-1.5 5.5-1.5 5.2-3.5 9.8-1 1.7-1 1.5-2 2.5-4.3 4.5-1.5 2.3-.7 1.2-.5 1.5-.5 1.3v5.5l.7 3 .8 2.2 1 2 1 1.5 1.2 1.3 1.5.7 1.5.5 1.5.3 1.8.2 1.7-.2 4-.8 7.8-2 2.2-.2 1.8-.3h1.5l1.2.3 1.3.2 1 .5 1.7 1.3 2 1.5 2 1.2 1.3.5 1.5.5 2 .5h2"/><path class="st8" d="M339.9 409.8l-.3 1.7-.5 1.3-.7 1.5-1 1-1.3 1-1.5.7-1.7.5h-3.5l-1.5-.5-1.5-.7-1.3-1-1-1-1-1.5-.5-1.3v-3.2l.5-1.5 1-1.3 1-1.2 1.3-.8 1.5-.7 1.5-.5 1.7-.3 1.8.3 1.7.5 1.5.7 1.3.8 1 1.2.7 1.3.5 1.5z"/><path class="st7" d="M386.9 360.8l-1.3-2-1-1.8-1.5-2-1.5-1.7-3.5-3.3-3.7-3-4.5-2.5-4.5-2.5-5-2-5.3-1.7-5-1.5-5.5-1.3-5.2-.7-5-.5-5-.3h-4.8l-4.5.3-4 .5-6.7 1.5-6 1.5-5.8 1.5-5.2 2-5.5 2.5-5.8 3.2-6.5 4.3-7 5.2M469.9 356l1-2 1.2-1.7 1.3-2 1.5-1.8 3.5-3.2 4-3 4.2-2.5 4.8-2.5 5-2 5-1.8 5.2-1.5 5.3-1 5.2-1 5.3-.5 5-.2h4.7l4.3.2 4 .8 6.7 1.2 6.3 1.5 5.5 1.5 5.5 2 5.5 2.5 5.7 3.3 6.3 4.2 7 5.3"/><path class="st6" d="M654.6 369.5l2.8-15.7 1.2-8.5 1.3-8.8 1-8.5.7-8.2.3-8-.3-3.8-.2-3.5-1.5-10.7-1.8-10.5-2-10.3-2.5-10.2-2.7-10-3-9.8-3.3-9.7-3.5-9.5-4-9-4-9-4.5-8.8-4.7-8.5-5-8.2-5-8-5.5-7.8-5.8-7.2-5.7-7-6.3-6.8-6.2-6.5-6.8-6.2-6.7-5.8-6.8-5.2-7.2-5-7.3-4.8-7.5-4.2-7.7-4-8-3.3-8-3-8-2.7-8.3-2.3-8.5-1.5-8.5-1.2-14.2-1.5-13.8-1-13.2-.5-13-.3-12.8.3-12.2.7-11.8 1-11.5 1.8-11.2 2-10.8 2.2-10.5 3-10.2 3.3-9.8 3.7-9.5 4-9.2 4.5-8.8 5-4.7 2.8-5.5 3.2-7.3 4.8-4 3-4.2 3.7-6 5-6.8 6.5-7.7 8-4 4.5-4 4.8-4.3 5.2-4.2 5.3-4.3 6-4.2 6-4.3 6.5-4 6.7-4 7-3.7 7.3-3.5 7.7-3.3 8-3 8.3-2.7 8.5-2.5 9-2 9-1.8 9.5-1.2 9.7-.8 10-.2 10.3 2.2 69.7 1.5-3 1.8-3 4.2-6.7 5.3-7.5 6-7.8 9-11 9.2-11 9.3-10.7 9-9.8 13.7-14.7 5.5-5.8 2-1.5 2.8-1.5 7.5-3.7 10-4.3 11.7-4.7 28-11.3 32-12.5 33.3-13.5 16-6.7 15.5-6.8 14.2-6.5 13-6.5 6-3.2 5.3-3 5-3 4.2-2.8.3-.2 2.2 1.2 5 3.3 7.5 5.5 4.5 3.5 5.3 4.5 5.5 4.7 6.2 5.8 6.8 6.5 7.2 7.2 7.5 8 8 9 8.5 9.8 8.8 10.7 9 11.8 9.5 12.7 2 2.5 2.7 3 6.8 7 7.7 8.3 8.5 9.5 4.3 5 4.2 5.2 4 5.5 3.8 5.8 3.5 5.7 3 6 2.5 6.3 1 3.2.7 3 .5 1.5.8 4.8.5 4.7"/><path class="st6" d="M494.6 192.5h-2.5l-3.7-.5-4.3-.5-4-1-1.5-.5-1-.5-.2-.5 2.5-2.5 2.2-2.7 2.3-2.8 2.2-3 2-3.2 2-3.3 1.8-3.2 1.7-3.5 1.5-3.8 1.3-3.7 1.2-3.8 1-3.7.8-4 .5-3.8.5-4v-4M299.4 663.3v2.2l-.5 5.3-1 8-.5 4.5-1 5-1.3 5-1.5 5-1.5 5-2.2 4.7-2.3 4.3-1.2 2.2-1.5 1.8-1.5 1.7-1.8 1.8-1.7 1.5-1.8 1.2-2.5 1.5-3.2 1.5-8.5 3.8-10.8 4.5-12.5 4.7-28.2 10.3-29.5 10.5-5.8 1.7M546.9 656.3l.2 2.5.5 6.5 1.3 9.7.7 5.5 1.3 5.8 1.2 6 1.5 6 2 5.7 2 5.8 2.5 5 1.5 2.2 1.3 2.3 1.7 2 1.5 1.7 1.8 1.5 2 1.5 2.5 1.5 3.5 1.5 9.2 4.3 11.5 4.5 13.3 5.2 14.7 5.3 15.3 5.5 30.7 10.7"/><path class="st5" d="M356.6 409.8l-.2 2.2-.3 2.3-.7 2.2-.8 2.3-1 2-1.2 2-1.5 1.7-1.5 1.8-1.8 1.5-2 1.2-2 1.3-2.2 1-2.3.7-2.5.5-2.2.5h-5.3l-2.5-.5-2.2-.5-2.3-.7-2.2-1-2-1.3-2-1.2-1.8-1.5-1.5-1.8-1.5-1.7-1.2-2-1-2-.8-2.3-.7-2.2-.3-2.3-.2-2.2.2-2.5.3-2 .7-2 .8-1.8 1-1.5 1.2-1.2 1.5-1.3 1.5-1 1.8-1 2-.7 2-.5 2.2-.5 4.5-.5 5-.3 5 .3 4.8.5 2.2.5 2 .5 2 .7 1.8 1 1.5 1 1.5 1.3 1.2 1.2 1 1.5.8 1.8.7 2 .3 2zM579.1 410.5l-2.2-2.7-2.8-2.5-2.5-2.3-2.7-2-2.8-2-3-1.5-3-1.5-3-1.2-3.2-1-3.3-.8-3.2-.7-3.5-.8-3.5-.2-3.5-.3h-7.5l-6.3.3-6.2.5-6 1.2-3 .8-2.8.7-2.7 1.3-2.8 1.2-2.5 1.3-2.2 1.7-2.3 1.8-2 2-1.7 2.5-1.8 2.5"/><path class="st8" d="M520.9 408.8l.2 1.5.5 1.5.8 1.2 1 1.3 1.2.7 1.5.8 1.8.5 1.7.2 1.8-.2 1.5-.5 1.5-.8 1.2-.7 1-1.3 1-1.2.5-1.5v-3l-.5-1.5-1-1.3-1-1.2-1.2-1-1.5-.8-1.5-.2-1.8-.3-1.7.3-1.8.2-1.5.8-1.2 1-1 1.2-.8 1.3-.5 1.5z"/><path class="st5" d="M504.1 408.5l.3 2.5.2 2.3.8 2.2.7 2.3 1 2 1.3 1.7 1.5 2 1.5 1.5 2 1.5 1.7 1.5 2 1 2.3 1 2.2.8 2.5.7 2.3.3 2.7.2 2.5-.2 2.5-.3 2.3-.7 2.2-.8 2.3-1 2-1 2-1.5 1.7-1.5 1.5-1.5 1.5-2 1.3-1.7 1-2 .7-2.3.8-2.2.2-2.3.3-2.5-.3-2.2-.2-2.3-.8-1.7-.7-1.8-1-1.5-1.3-1.5-1.5-1-1.5-1.2-1.7-.8-2-.7-2-.5-2.3-.5-4.5-.8h-10l-4.7.8-2.3.5-2 .5-1.7.7-2 .8-1.5 1.2-1.5 1-1.3 1.5-1 1.5-.7 1.8-.8 1.7-.2 2.3zM491.9 445.3l1-1 3.2-2 2.5-1.5 3.3-1.3 3.5-1.5 4.2-1.5 5-1.2 5.5-1 6.3-.8 6.7-.2 7.5.2 8.3.5 9 1.3 9.5 2M366.6 445.3l-1-1-3.2-2-2.5-1.5-3-1.3-3.8-1.5-4.2-1.5-5-1.2-5.5-1-6.3-.8-6.7-.2-7.5.2-8.3.5-9 1.3-9.5 2"/><path class="st7" d="M283.1 572.5l2.5 1.5 2.8 1.3 2.5 1 2.7.7 2.8.8 3 .2 2.7.3 3-.3 3-.2 3-.3 2.8-.7 3-.8 3-1 3-1 5.7-2.5 5.5-3 5-3.5 4.8-4 4.2-4 3.8-4.5 1.7-2.2 1.3-2.3 1.2-2.2 1.3-2.3.7-2.5.8-2.2M575.4 570.3l-2.5 1.5-2.8 1.2-2.5 1-2.7.8-2.8.7-3 .3-2.7.2-3-.2-3-.3-3-.2-2.8-.8-3-.7-3-1-3-1-5.7-2.5-5.5-3-5-3.5-4.8-4-4.2-4-3.8-4.5-1.7-2.3-1.3-2.2-1.2-2.3-1.3-2.2-.7-2.5-.8-2.3"/><path class="st5" d="M394.1 628.3l-.5 1-.2.5M464.1 628.3l-.2-.3-3-2.2"/><path class="st5" d="M412.1 656.5l3.8 1.5 3.5 1.5 4 1 1.7.5h4l2.3-.2 4.2-.8 4.3-1.5 4-1.5 3.5-1.7 2.7-1.5 2.5-1.5 2.8-2.8 1.7-2.5 1.3-2.2 2.7-5.3 2-4.5 1.3-4 1-3 1-3.5-1-2.2-2-3.3-2.8-4.2-3.5-4.8-3.5-4.7-3.5-4.3-3.2-3.7-2.8-2.5-1.2-.8-1.3-.2-1.2-.3h-1.3l-1.2.3-1.3.5-2.5 1-2.2 1.5-1.8 1.2-1.7 1.5-1.5-1.5-1.8-1.2-2.2-1.5-2.5-1-1.3-.5-1.5-.3h-1.2l-1.3.3-1.2.2-1.3.8-2.7 2.5-3.3 3.7-3.5 4.3-3.5 4.7-3.2 4.8-3 4.2-2 3.3-1 2.2.7 2.3 2 6 2.3 5.5 3.2 6.5 1 1.7 1.3 2 2 2.3 4.2 2.7z"/><path class="st5" d="M394.6 628.5l2 3.3 2.8 3 3 2.7 3.5 2.8 3.5 2.5 3.7 2.2 7.5 4 7.8 4 5.7 2.8 1.8 1 .2.2.3.5h-.3l-.2.3h-2l-13-.5-5-.5-3.8-.3-3.2-.7-1.8-.8-.5-.2v-.8l.5-.5 2-1 3-1 4-1.2 4.5-1.3 10.5-2.5 10.3-2.5 4.5-1.2 3.5-1 2.7-1.3.8-.5.5-.7 1-1.3 1-1.5 2.2-2.7 1.3-1.5.7-2 .8-2 .5-2.5v-2.3l-.3-3.2-.7-2.5-1-2-1-1.8-1.5-1.2-1.3-1-2.5-1.8-5-2.7-2.5-1.3-2.2-1-2.3-.5-2.5-.5h-2.5l-2.5.5-2.2.3-2.3.2h-2.2l-2.3-.5-2.2-.5-2.3-.7-4.2-1.8-2-.7h-1.8l-2 .5-1.5.7-1.7 1.3-1.8 1.7-1.5 2-1.7 2.3-1.3 2.7-2.2 4.8-2.3 6-1 2.7-.5 2.8-.5 2.5v1l.3.7.5.8.5.2h.5"/></svg>