<?xml version="1.0" encoding="iso-8859-1"?>
<!-- Generator: Adobe Illustrator 12.0.1, SVG Export Plug-In . SVG Version: 6.00 Build 51448)  -->
<!DOCTYPE svg PUBLIC "-//W3C//DTD SVG 1.1//EN" "http://www.w3.org/Graphics/SVG/1.1/DTD/svg11.dtd" [
	<!ENTITY ns_svg "http://www.w3.org/2000/svg">
	<!ENTITY ns_xlink "http://www.w3.org/1999/xlink">
]>
<svg  version="1.1" id="Layer_1" xmlns="&ns_svg;" xmlns:xlink="&ns_xlink;" width="850.394" height="850.394"
	 viewBox="0 0 850.394 850.394" style="overflow:visible;enable-background:new 0 0 850.394 850.394;" xml:space="preserve">
<g>
	<g id="XMLID_1_">
		<g>
			<path style="fill:#FFF5B4;" d="M766.88,150.07c6.72,77.94-92.05,82.9-119.01,94.81c-25.58,11.3-22.4,7.2-79.5,69.85
				c-119.11,130.72-246.29,280.1-246.29,280.1l-4.97,6.87c-29.22,33.51-51.05,58.79-51.05,58.79
				c-9.98,13.33-25.07,28.779-22.24,51.06c1.95,15.38,12.04,30.65,7.01,47.29c-5.54,18.351-25.53,32.26-53.75,33.59
				c-18.09,0.86-41.29-20.85-42.72-41.27c-1.52-21.61-27.07-51.11-42.41-23.92c-13.36-2.13-26.94-9.55-30.76-29.94
				c-13.12-70.16,84.56-86.3,111.41-98.49c23.92-10.869,22.09-8.06,76.7-72.899c11.14-13.23,307.57-345.54,307.57-345.54
				c10.49-12.91,26.17-27.76,24.229-50.15c-1.35-15.44-10.189-32.34,0-46.44c6.431-8.89,24.62-25.32,44.04-26.98
				c24.98-2.15,50.091,16.11,50.74,36.6c0.28,9.07,1.75,17.96,5.34,24.45c4.41,7.98,12.021,12.33,24.54,8.86
				c2.351-2.33,3.721-5.46,3.771-7.97C746.18,121.37,765.06,129.03,766.88,150.07z"/>
		</g>
		<g>
			<path style="fill:none;stroke:#231F20;stroke-width:21;" d="M141.98,725.24c0,0-14.87,4.399-30.03,2
				c-13.36-2.13-26.94-9.55-30.76-29.94c-13.12-70.16,84.56-86.3,111.41-98.49c23.92-10.869,22.09-8.06,76.7-72.899
				c11.14-13.23,307.57-345.54,307.57-345.54c10.49-12.91,26.17-27.76,24.229-50.15c-1.35-15.44-10.189-32.34,0-46.44
				c6.431-8.89,24.62-25.32,44.04-26.98c24.98-2.15,50.091,16.11,50.74,36.6c0.28,9.07,1.75,17.96,5.34,24.45
				c4.41,7.98,12.021,12.33,24.54,8.86c2.351-2.33,3.721-5.46,3.771-7.97c0.01-0.16,0.01-0.32,0-0.47"/>
			<path style="fill:none;stroke:#231F20;stroke-width:21;" d="M109.98,731.17c0.63-1.42,1.29-2.729,1.97-3.93
				c15.34-27.19,40.89,2.31,42.41,23.92c1.43,20.42,24.63,42.13,42.72,41.27c28.22-1.33,48.21-15.239,53.75-33.59
				c5.03-16.64-5.06-31.91-7.01-47.29c-2.83-22.28,12.26-37.729,22.24-51.06c0,0,21.83-25.28,51.05-58.79l4.97-6.87
				c0,0,127.18-149.38,246.29-280.1c57.1-62.65,53.92-58.55,79.5-69.85c26.96-11.91,125.729-16.87,119.01-94.81
				c-1.82-21.04-20.7-28.7-37.35-31.33c-13.66-2.16-25.811-0.93-25.811-0.93"/>
		</g>
	</g>
</g>
<rect style="fill:none;" width="850.394" height="850.394"/>
</svg>
