<?xml version="1.0" encoding="iso-8859-1"?>
<!-- Generator: Adobe Illustrator 12.0.1, SVG Export Plug-In . SVG Version: 6.00 Build 51448)  -->
<!DOCTYPE svg PUBLIC "-//W3C//DTD SVG 1.1//EN" "http://www.w3.org/Graphics/SVG/1.1/DTD/svg11.dtd" [
	<!ENTITY ns_svg "http://www.w3.org/2000/svg">
	<!ENTITY ns_xlink "http://www.w3.org/1999/xlink">
]>
<svg  version="1.1" id="Layer_1" xmlns="&ns_svg;" xmlns:xlink="&ns_xlink;" width="850.394" height="850.394"
	 viewBox="0 0 850.394 850.394" style="overflow:visible;enable-background:new 0 0 850.394 850.394;" xml:space="preserve">
<g id="XMLID_9_">
	<g>
		<path style="fill:#797878;" d="M605.44,458.84c0.09,0,0.189,0,0.279,0c87.4,0,158.25,70.851,158.25,158.25
			c0,87.4-70.85,158.25-158.25,158.25c-87.399,0-158.25-70.85-158.25-158.25c0-12.51,1.45-24.67,4.19-36.34h0.01
			C468.06,510.95,530.67,458.97,605.44,458.84z M733.83,632.32c0-8.69-4.12-15.74-9.21-15.74s-9.21,7.05-9.21,15.74
			c0,8.699,4.12,15.75,9.21,15.75S733.83,641.02,733.83,632.32z M649.75,496.77c2.72-4.729-0.61-11.77-7.45-15.72
			c-6.85-3.95-14.6-3.319-17.34,1.41c-2.729,4.72,0.62,11.76,7.45,15.71C639.25,502.12,647.01,501.49,649.75,496.77z M630.42,517.45
			c0-6.55-7.68-11.86-17.16-11.86c-9.479,0-17.17,5.311-17.17,11.86s7.69,11.859,17.17,11.859
			C622.74,529.31,630.42,524,630.42,517.45z"/>
		<path style="fill:#ED1E29;" d="M492.13,233.32h51.07l5.439-16.74l3.67,0.64c-2.51,14.56-4.439,26.87-4.439,34.42
			c0,0-0.38,11.66,1.189,27.68l-4.6,0.48h-48.57l-5.76-0.68c1.53-15.86,1.16-27.37,1.16-27.37c0-7.64-1.98-20.16-4.54-34.96
			l1.19-0.21L492.13,233.32z"/>
		<path style="fill:#ED1E29;" d="M321.74,347.9l-5.77-0.6c1.53-15.9,1.16-27.45,1.16-27.45c0-7.64-1.98-20.16-4.54-34.96l1.19-0.21
			l4.19,16.74h51.07l5.45-16.74l3.66,0.64c-2.51,14.56-4.44,26.87-4.44,34.42c0,0-0.38,11.66,1.19,27.68l-4.6,0.48H321.74z"/>
		<path style="fill:#ED1E29;" d="M148.27,232.21h51.08l5.44-16.75l3.67,0.64c-2.51,14.56-4.44,26.87-4.44,34.42
			c0,0-0.38,11.66,1.19,27.68l-4.6,0.48h-48.57l-5.76-0.68c1.53-15.86,1.16-27.37,1.16-27.37c0-7.64-1.98-20.16-4.54-34.96
			l1.19-0.21L148.27,232.21z"/>
		<path style="fill:#FFFFFF;" d="M144.09,215.46l-1.19,0.21c-6.41-37.09-16.46-88.51-8.02-113.24c9.42-27.63,30.61-30.3,40.62-29.91
			l1.14-0.03c11.09,0.11,30.52,2.2,39.94,29.83c8.47,24.85-1.71,76.65-8.12,113.78l-3.67-0.64H144.09z"/>
		<path style="fill:#FFFFFF;" d="M313.78,284.68l-1.19,0.21c-6.41-37.1-16.45-88.51-8.02-113.24c9.42-27.64,30.62-30.3,40.63-29.91
			l1.13-0.03c11.1,0.11,30.52,2.2,39.94,29.83c8.48,24.85-1.71,76.65-8.12,113.78l-3.66-0.64H313.78z"/>
		<path style="fill:#FFFFFF;" d="M487.94,216.58l-1.19,0.21c-6.41-37.1-16.46-88.51-8.02-113.24
			c9.42-27.63,30.609-30.3,40.619-29.91l1.141-0.03c11.09,0.11,30.52,2.2,39.939,29.83c8.48,24.85-1.71,76.65-8.12,113.78
			l-3.67-0.64H487.94z"/>
		<path style="fill:#FFFFFF;" d="M564.62,338.72c12.3,23.48,36.81,59.38,40.82,120.12c-74.771,0.13-137.381,52.11-153.771,121.91
			h-0.01l-1.391-0.34c-7.39-27.9-12.569-52.36-12.569-52.36c-17.58-104.66,20.46-157.96,36.84-189.22
			c9.74-18.61,13.87-41.9,15.59-59.71l5.76,0.68l3.351,16.74H540.1l4.36-16.74l4.6-0.48C550.8,297.09,554.93,320.23,564.62,338.72z"
			/>
		<path style="fill:#FFFFFF;" d="M390.46,406.82c16.38,31.27,54.42,84.57,36.84,189.23c0,0-24.28,114.71-42.7,130.62
			s-59.93,16.01-78.35,0.1c-18.42-15.899-42.71-130.609-42.71-130.609c-17.58-104.67,20.47-157.97,36.84-189.23
			c9.74-18.58,13.86-41.83,15.59-59.63l5.77,0.6l3.34,16.74h40.87l4.35-16.74l4.6-0.48C376.64,365.19,380.77,388.33,390.46,406.82z"
			/>
		<path style="fill:#FFFFFF;" d="M220.77,337.6c16.38,31.27,54.42,84.57,36.84,189.23c0,0-24.28,114.71-42.7,130.62
			c-18.43,15.91-59.94,16.01-78.36,0.1c-18.42-15.91-42.7-130.62-42.7-130.62c-17.58-104.65,20.46-157.95,36.84-189.22
			c9.74-18.61,13.87-41.9,15.59-59.71l5.76,0.68l3.35,16.74h40.86l4.36-16.74l4.6-0.48C206.95,295.97,211.08,319.11,220.77,337.6z"
			/>
		<path style="fill:#231F20;" d="M724.62,616.58c5.09,0,9.21,7.05,9.21,15.74c0,8.699-4.12,15.75-9.21,15.75s-9.21-7.051-9.21-15.75
			C715.41,623.63,719.53,616.58,724.62,616.58z"/>
		<path style="fill:#231F20;" d="M642.3,481.05c6.84,3.95,10.17,10.99,7.45,15.72c-2.74,4.721-10.5,5.351-17.34,1.4
			c-6.83-3.95-10.18-10.99-7.45-15.71C627.7,477.73,635.45,477.1,642.3,481.05z"/>
		<path style="fill:#231F20;" d="M613.26,505.59c9.48,0,17.16,5.311,17.16,11.86s-7.68,11.859-17.16,11.859
			c-9.479,0-17.17-5.31-17.17-11.859S603.78,505.59,613.26,505.59z"/>
		<polygon style="fill:#231F20;" points="548.64,216.58 543.2,233.32 492.13,233.32 487.94,216.58 		"/>
		<polygon style="fill:#231F20;" points="544.46,279.8 540.1,296.54 499.24,296.54 495.89,279.8 		"/>
		<polygon style="fill:#231F20;" points="374.49,284.68 369.04,301.42 317.97,301.42 313.78,284.68 		"/>
		<polygon style="fill:#231F20;" points="370.3,347.9 365.95,364.64 325.08,364.64 321.74,347.9 		"/>
		<polygon style="fill:#231F20;" points="204.79,215.46 199.35,232.21 148.27,232.21 144.09,215.46 		"/>
		<polygon style="fill:#231F20;" points="200.61,278.68 196.25,295.42 155.39,295.42 152.04,278.68 		"/>
	</g>
	<g>
		<path style="fill:none;stroke:#231F20;stroke-width:21;" d="M315.97,347.3c-1.73,17.8-5.85,41.05-15.59,59.63
			c-16.37,31.26-54.42,84.56-36.84,189.23c0,0,24.29,114.71,42.71,130.609c18.42,15.91,59.93,15.811,78.35-0.1
			s42.7-130.62,42.7-130.62c17.58-104.66-20.46-157.96-36.84-189.23c-9.69-18.49-13.82-41.63-15.56-59.4
			c-1.57-16.02-1.19-27.68-1.19-27.68c0-7.55,1.93-19.86,4.44-34.42c6.41-37.13,16.6-88.93,8.12-113.78
			c-9.42-27.63-28.84-29.72-39.94-29.83l-1.13,0.03c-10.01-0.39-31.21,2.27-40.63,29.91c-8.43,24.73,1.61,76.14,8.02,113.24
			c2.56,14.8,4.54,27.32,4.54,34.96C317.13,319.85,317.5,331.4,315.97,347.3z"/>
		<polygon style="fill:none;stroke:#231F20;stroke-width:21;" points="374.49,284.68 313.78,284.68 317.97,301.42 369.04,301.42 		
			"/>
		<polygon style="fill:none;stroke:#231F20;stroke-width:21;" points="370.3,347.9 321.74,347.9 325.08,364.64 365.95,364.64 		"/>
		<path style="fill:none;stroke:#231F20;stroke-width:21;" d="M146.28,278c-1.72,17.81-5.85,41.1-15.59,59.71
			c-16.38,31.27-54.42,84.57-36.84,189.22c0,0,24.28,114.71,42.7,130.62c18.42,15.91,59.93,15.811,78.36-0.1
			c18.42-15.91,42.7-130.62,42.7-130.62c17.58-104.66-20.46-157.96-36.84-189.23c-9.69-18.49-13.82-41.63-15.56-59.4
			c-1.57-16.02-1.19-27.68-1.19-27.68c0-7.55,1.93-19.86,4.44-34.42c6.41-37.13,16.59-88.93,8.12-113.78
			c-9.42-27.63-28.85-29.72-39.94-29.83l-1.14,0.03c-10.01-0.39-31.2,2.28-40.62,29.91c-8.44,24.73,1.61,76.15,8.02,113.24
			c2.56,14.8,4.54,27.32,4.54,34.96C147.44,250.63,147.81,262.14,146.28,278z"/>
		<polygon style="fill:none;stroke:#231F20;stroke-width:21;" points="204.79,215.46 144.09,215.46 148.27,232.21 199.35,232.21 		
			"/>
		<polygon style="fill:none;stroke:#231F20;stroke-width:21;" points="200.61,278.68 152.04,278.68 155.39,295.42 196.25,295.42 		
			"/>
		<path style="fill:none;stroke:#231F20;stroke-width:21;" d="M605.44,458.85v-0.01c-4.011-60.74-28.521-96.64-40.82-120.12
			c-9.69-18.49-13.82-41.63-15.561-59.4c-1.569-16.02-1.189-27.68-1.189-27.68c0-7.55,1.93-19.86,4.439-34.42
			c6.41-37.13,16.601-88.93,8.12-113.78c-9.42-27.63-28.85-29.72-39.939-29.83l-1.141,0.03c-10.01-0.39-31.199,2.28-40.619,29.91
			c-8.44,24.73,1.609,76.14,8.02,113.24c2.56,14.8,4.54,27.32,4.54,34.96c0,0,0.37,11.51-1.16,27.37
			c-1.72,17.81-5.85,41.1-15.59,59.71c-16.38,31.26-54.42,84.56-36.84,189.22c0,0,5.18,24.46,12.569,52.36"/>
		<polygon style="fill:none;stroke:#231F20;stroke-width:21;" points="548.64,216.58 487.94,216.58 492.13,233.32 543.2,233.32 		
			"/>
		<polygon style="fill:none;stroke:#231F20;stroke-width:21;" points="544.46,279.8 495.89,279.8 499.24,296.54 540.1,296.54 		"/>
		<path style="fill:none;stroke:#231F20;stroke-width:21;" d="M605.44,458.84c0.09,0,0.189,0,0.279,0
			c87.4,0,158.25,70.851,158.25,158.25c0,87.4-70.85,158.25-158.25,158.25c-87.399,0-158.25-70.85-158.25-158.25
			c0-12.51,1.45-24.67,4.19-36.34h0.01C468.06,510.95,530.67,458.97,605.44,458.84z"/>
		<path style="fill:none;stroke:#231F20;stroke-width:21;" d="M630.42,517.45c0,6.55-7.68,11.859-17.16,11.859
			c-9.479,0-17.17-5.31-17.17-11.859s7.69-11.86,17.17-11.86C622.74,505.59,630.42,510.9,630.42,517.45z"/>
		<path style="fill:none;stroke:#231F20;stroke-width:21;" d="M649.75,496.77c-2.74,4.721-10.5,5.351-17.34,1.4
			c-6.83-3.95-10.18-10.99-7.45-15.71c2.74-4.729,10.49-5.36,17.34-1.41C649.14,485,652.47,492.04,649.75,496.77z"/>
		<path style="fill:none;stroke:#231F20;stroke-width:21;" d="M733.83,632.32c0,8.699-4.12,15.75-9.21,15.75s-9.21-7.051-9.21-15.75
			c0-8.69,4.12-15.74,9.21-15.74S733.83,623.63,733.83,632.32z"/>
	</g>
</g>
<rect style="fill:none;" width="850.394" height="850.394"/>
</svg>
