<svg xmlns="http://www.w3.org/2000/svg" width="850.394" height="850.394" viewBox="0 0 850.394 850.394" overflow="visible"><path d="M215.55 584.02c-45.79-32.97-77.25-82.38-90.89-152.279l-15.51-66.75.14-.22c60.38 38.68 181.07 65.06 320.11 65.06 140.92 0 262.989-27.1 322.52-66.64l.13.19-16.49 68.34C721.91 501.61 690.46 551.03 644.67 584 591 622.66 517.61 638.73 430.1 638.73v.01c-87.5 0-160.88-16.07-214.55-54.72z" fill="#c8c8c8"/><path d="M787.83 293.37c1.84 4.96 2.78 10.01 2.78 15.13 0 19.67-13.94 38.26-38.69 54.69-59.53 39.54-181.6 66.64-322.52 66.64-139.041 0-259.73-26.38-320.11-65.06-26.26-16.82-41.11-35.97-41.11-56.27 0-5.12.94-10.16 2.78-15.11l.02.01C93.2 353.26 245.2 399.57 429.4 399.57c184.24 0 336.25-46.33 358.43-106.2z" fill="#fff"/><path d="M430.1 638.74v-.01c87.511 0 160.9-16.07 214.57-54.73 3.98 5.14 6.09 10.5 6.09 16.02 0 37.761-98.77 77.87-220.64 77.87-121.85 0-220.65-40.109-220.65-77.87 0-5.51 2.1-10.869 6.08-16 53.67 38.65 127.05 54.72 214.55 54.72z" fill="#c8c8c8"/><path d="M429.4 187.16c184.25 0 336.27 46.33 358.43 106.21-22.18 59.87-174.19 106.2-358.43 106.2-184.2 0-336.2-46.31-358.42-106.17l-.02-.01C93.09 233.5 245.13 187.16 429.4 187.16z" fill="#fff"/><g fill="none" stroke="#000" stroke-width="21.353"><path d="M787.83 293.37c1.84 4.96 2.78 10.01 2.78 15.13 0 19.67-13.94 38.26-38.69 54.69-59.53 39.54-181.6 66.64-322.52 66.64-139.041 0-259.73-26.38-320.11-65.06-26.26-16.82-41.11-35.97-41.11-56.27 0-5.12.94-10.16 2.78-15.11C93.09 233.5 245.13 187.16 429.4 187.16c184.25 0 336.27 46.33 358.43 106.21z"/><path d="M788.75 290.64c-.28.91-.58 1.82-.92 2.73-22.18 59.87-174.19 106.2-358.43 106.2-184.2 0-336.2-46.31-358.42-106.17M430.12 638.74h-.021c-87.5 0-160.879-16.07-214.55-54.721-45.79-32.97-77.25-82.38-90.89-152.279l-15.51-66.75"/><path d="M430.1 638.73c87.511 0 160.9-16.07 214.57-54.73 45.79-32.97 77.24-82.39 90.89-152.28l16.49-68.34"/><path d="M644.64 583.96c.011.01.021.03.03.04 3.98 5.14 6.09 10.5 6.09 16.02 0 37.761-98.77 77.87-220.64 77.87-121.85 0-220.65-40.109-220.65-77.87 0-5.51 2.1-10.869 6.08-16 0-.01 0-.01.01-.02"/></g><path fill="none" d="M0 0h850.394v850.394H0z"/></svg>