<svg xmlns="http://www.w3.org/2000/svg" width="850.394" height="850.394" viewBox="0 0 850.394 850.394" overflow="visible"><path fill="none" d="M368 368.249h113.386v113.386H368z"/><path d="M569.54 599.35c0 3.381-.42 6.69-1.21 9.891v-.471c-5.6 17.131-29.8 30.011-58.83 30.011-29.86 0-55.67-13.41-59.26-31.521a40.636 40.636 0 0 1-.771-7.91c0-27.119 26.88-49.1 60.03-49.1 33.161 0 60.041 21.98 60.041 49.1z" fill="#fbee34"/><path d="M607.37 647.75c2.8 29.08-38.44 23.88-49.65 43.57-3.51 6.16-3.229 13.5-5.489 21.069-3.99 13.351-15.891 27.261-34.551 32.04-23.189 5.92-38.3 4.48-53.29-5.739-14.89-10.15-18.239-21.061-41.6-21.061-16.14 0-30.28 12.101-45.71 16.87-38 11.7-92.34-48.15-51.92-85.57 10.58-9.779 47.78-18.979 34.74-50.189-18.43-44.13 53.1-50.03 65.9-53.76 57.32-16.711 100.97-12.141 128.25-.79 37.561 15.63 48.07 29.899 48.07 58.29 0 8.369-4.48 14.439-4.38 22.46.09 8.62 8.79 14.07 9.63 22.81zm-39.04-38.51c.79-3.2 1.21-6.51 1.21-9.891 0-27.119-26.88-49.1-60.04-49.1-33.15 0-60.03 21.98-60.03 49.1 0 2.69.261 5.341.771 7.91 3.59 18.11 29.399 31.521 59.26 31.521 29.03 0 53.23-12.88 58.83-30.011v.471z" fill="#fff"/><path d="M541.47 498.75c-7.04 1.39-12.71 11.81-12.41 18.95l-.84 2.51c-2.79-.92-5.6-1.82-8.399-2.68l.76-2.45c0-14.43-2.75-19.48-16.3-22.86-11.63-2.91-21.33-3.1-33.88-2.58-13.78.58-24.181-6.899-37.49-5.89-12.07.92-27.79 25.95-35.06 34.58l-.09-.07c.55-.68 1.02-1.34 1.4-1.97 4.63-7.6 9.16-19.11 9.65-27.96.79-14.12-10.97-33.39-25.34-38.38v-.01c70.78 8.729 94.04 4.64 121.18 9.659 42.689 7.891 110.67 40.87 110.67 40.87l.02.011c-2.56 8.27-8.3 17.829-15.29 25.01 0-19.91-24.77-15.42-37.68-20.33-6.521-2.48-13.491-7.88-20.901-6.41z" fill="#ffffc2"/><path d="M615.88 487.19c1.43 3.29 1.09 8.029-.54 13.29l-.02-.011s-67.98-32.979-110.67-40.87c-27.141-5.02-50.4-.93-121.18-9.659-2.37-.29-4.8-.601-7.29-.921-43.64-5.659-92.34-15.31-121.03-10.72-28.71 4.601-66.84 44.8-66.84 44.8h-.54c.15-11.819.54-22.359.54-22.359s16.51-25.44 45.79-35.45c29.28-10.02 48.41-10.87 114.14-1.66 0 0 99.87 13.78 121.43 13.78 21.53 0 73.75 11.55 98.55 21.109 24.81 9.571 41.69 14.961 47.66 28.671z" fill="#ffffc2"/><path d="M562.37 505.16c12.91 4.91 37.68.42 37.68 20.33-7.08 7.3-15.45 12.14-23.09 10.71-9.77-1.83-28.88-9.431-48.74-15.99l.84-2.51c-.3-7.141 5.37-17.561 12.41-18.95 7.41-1.47 14.38 3.93 20.9 6.41zM520.58 515.08l-.76 2.45c-17.95-5.53-35.511-9.42-46.34-6.67-24.53 6.229-56.94 10.8-77.311 17.439-3.92 1.28-8.85 3.19-14.45 5.49 3.31-3.55 11.82-10.23 16.04-15.53l.09.07c7.27-8.63 22.99-33.66 35.06-34.58 13.31-1.01 23.71 6.47 37.49 5.89 12.55-.52 22.25-.33 33.88 2.58 13.551 3.381 16.301 8.431 16.301 22.861z" fill="#ee947d"/><path d="M383.47 449.95c14.37 4.99 26.13 24.26 25.34 38.38-.49 8.85-5.02 20.36-9.65 27.96-.38.63-.85 1.29-1.4 1.97-4.22 5.3-12.73 11.98-16.04 15.53-23.47 9.62-58.76 26-81.58 31.11 0 0-49.81 6.319-70.05-4.12-20.23-10.44-38.51-17.63-41.78-50.271-.62-6.18-.67-17.27-.54-27.41h.54s38.13-40.199 66.84-44.8c28.69-4.59 77.39 5.061 121.03 10.72 2.49.32 4.92.631 7.29.921v.01z" fill="#ee947d"/><path d="M298.38 698.45c1.13 7.33-6.49 21.87-20.59 26.109-14.11 4.24-31.43 5.78-56.62-6.39-4.62-2.229-9.05-4.84-13.36-7.63-12.51-8.09-22.58-13.04-47.65-42.271-15.28-17.829-27.07-41.539-27.76-43.09-10.65-24.27-12.69-33.06-14.69-59.71-2.08-27.899 3.55-43.93 12.67-55.5 9.12-11.569 25.44-13.319 31.85-9.59 11.09 6.45 7.99 10.07 10.32 29.33 2.31 19.26 4.6 50.17 16.92 72.7.58 1.05 1.12 2.03 1.63 2.979l-.64-.87c9.87 14.79 7.98 11.75 24.43 31.48 16.45 19.74 42.92 32.89 59.99 42.1 17.07 9.213 21.57 7.663 23.5 20.353zM693.52 140.26c-21.449 10.09-53.329 16.48-88.939 16.48-39.55 0-74.51-7.89-95.66-19.97-.84-1.4-1.27-2.85-1.27-4.32 0-14.76 43.04-26.72 96.13-26.72 53.1 0 96.14 11.96 96.14 26.72-.001 2.71-3.691 5.33-6.401 7.81z" fill="#9e5c26"/><path d="M381.72 533.79c5.6-2.3 10.53-4.21 14.45-5.49 20.37-6.64 52.78-11.21 77.311-17.439 10.829-2.75 28.39 1.14 46.34 6.67 2.8.859 5.609 1.76 8.399 2.68 19.86 6.56 38.971 14.16 48.74 15.99 7.64 1.43 16.01-3.41 23.09-10.71 6.99-7.181 12.73-16.74 15.29-25.01 1.63-5.261 1.97-10 .54-13.29-5.97-13.71-22.85-19.101-47.66-28.671-24.8-9.56-77.02-21.109-98.55-21.109-21.56 0-121.43-13.78-121.43-13.78-65.73-9.21-84.86-8.36-114.14 1.66-29.28 10.01-45.79 35.45-45.79 35.45s-.39 10.54-.54 22.359c-.13 10.141-.08 21.23.54 27.41 3.27 32.641 21.55 39.83 41.78 50.271 20.24 10.439 70.05 4.12 70.05 4.12 22.82-5.111 58.11-21.491 81.58-31.111zm-5.26-166.76c169.1 0 306.19 93.99 306.19 209.951 0 115.939-137.091 209.939-306.19 209.939-169.11 0-306.19-94-306.19-209.939 0-115.961 137.08-209.951 306.19-209.951zm181.26 324.29c11.21-19.69 52.45-14.49 49.65-43.57-.84-8.74-9.54-14.19-9.63-22.81-.101-8.021 4.38-14.091 4.38-22.46 0-28.391-10.51-42.66-48.07-58.29-27.28-11.351-70.93-15.921-128.25.79-12.8 3.729-84.33 9.63-65.9 53.76 13.04 31.21-24.16 40.41-34.74 50.189-40.42 37.42 13.92 97.271 51.92 85.57 15.43-4.77 29.57-16.87 45.71-16.87 23.36 0 26.71 10.91 41.6 21.061 14.99 10.22 30.101 11.659 53.29 5.739 18.66-4.779 30.561-18.689 34.551-32.04 2.259-7.569 1.979-14.909 5.489-21.069zm-279.93 33.24c14.1-4.239 21.72-18.779 20.59-26.109-1.93-12.69-6.43-11.141-23.5-20.351-17.07-9.21-43.54-22.359-59.99-42.1-16.45-19.73-14.56-16.69-24.43-31.48l.64.87c-.51-.949-1.05-1.93-1.63-2.979-12.32-22.53-14.61-53.44-16.92-72.7-2.33-19.26.77-22.88-10.32-29.33-6.41-3.729-22.73-1.979-31.85 9.59-9.12 11.57-14.75 27.601-12.67 55.5 2 26.65 4.04 35.44 14.69 59.71.69 1.551 12.48 25.261 27.76 43.09 25.07 29.23 35.14 34.181 47.65 42.271 4.31 2.79 8.74 5.4 13.36 7.63 25.19 12.168 42.51 10.628 56.62 6.388zM672.05 263.09c5.36 4.22 8.4 9.02 8.4 14.11 0 17.03-33.92 30.83-75.76 30.83-41.83 0-75.75-13.8-75.75-30.83 0-5.03 2.949-9.77 8.189-13.96 16.54 12.78 38.48 20.53 67.561 19.33l-.301-.09c28.4 1.17 50-6.19 66.41-18.45.42-.31.83-.63 1.24-.95l.011.01zM721.5 109.79c0 .29-.01.59-.03.88-.51 11.29-10.95 21.61-27.95 29.59 2.711-2.48 6.4-5.1 6.4-7.81 0-14.76-43.04-26.72-96.14-26.72-53.09 0-96.13 11.96-96.13 26.72 0 1.47.43 2.92 1.27 4.32-13.37-7.63-21.229-16.93-21.229-26.98 0-25.93 52.34-46.95 116.89-46.95 64.579 0 116.919 21.02 116.919 46.95z" fill="#fff"/><path d="M703.52 221.86c45.48 14.48 75.261 38.59 75.261 65.91 0 44.29-78.351 80.2-175 80.2-96.641 0-174.98-35.91-174.98-80.2 0-27.57 30.33-51.88 76.521-66.32 7.34 16.02 17.569 30.77 31.81 41.79-5.24 4.19-8.189 8.93-8.189 13.96 0 17.03 33.92 30.83 75.75 30.83 41.84 0 75.76-13.8 75.76-30.83 0-5.09-3.04-9.89-8.4-14.11l-.01-.01c14.047-10.89 24.187-25.42 31.477-41.22z" fill="#ffffc2"/><path d="M537.13 263.24c-14.24-11.02-24.47-25.77-31.81-41.79-22.78-49.74-17.63-111.66-17.63-111.66 0 10.05 7.859 19.35 21.229 26.98 21.15 12.08 56.11 19.97 95.66 19.97 35.61 0 67.49-6.39 88.939-16.48 17-7.98 27.44-18.3 27.95-29.59.09 1.4.261 4.28.351 8.32.42 17.45-.45 56.55-13.811 92.15-1.359 3.62-2.85 7.2-4.49 10.72-7.289 15.8-17.43 30.33-31.479 41.22-.41.32-.82.64-1.24.95-16.41 12.26-38.01 19.62-66.41 18.45l.301.09c-29.08 1.2-51.02-6.55-67.56-19.33z" fill="#ffffc2"/><g fill="none" stroke="#231f20"><path d="M682.65 576.98c0 115.939-137.091 209.939-306.19 209.939-169.11 0-306.19-94-306.19-209.939 0-115.961 137.08-209.951 306.19-209.951 169.1.001 306.19 93.991 306.19 209.951z" stroke-width="21"/><path d="M568.33 608.77c-5.6 17.131-29.8 30.011-58.83 30.011-29.86 0-55.67-13.41-59.26-31.521a40.636 40.636 0 0 1-.771-7.91c0-27.119 26.88-49.1 60.03-49.1 33.16 0 60.04 21.98 60.04 49.1 0 3.381-.42 6.69-1.21 9.891v-.471z" stroke-width="14"/><path d="M325.16 648.93c10.58-9.779 47.78-18.979 34.74-50.189-18.43-44.13 53.1-50.03 65.9-53.76 57.32-16.711 100.97-12.141 128.25-.79 37.561 15.63 48.07 29.899 48.07 58.29 0 8.369-4.48 14.439-4.38 22.46.09 8.619 8.79 14.069 9.63 22.81 2.8 29.08-38.44 23.88-49.65 43.57-3.51 6.16-3.229 13.5-5.489 21.069-3.99 13.351-15.891 27.261-34.551 32.04-23.189 5.92-38.3 4.48-53.29-5.739-14.89-10.15-18.239-21.061-41.6-21.061-16.14 0-30.28 12.101-45.71 16.87-38 11.7-92.34-48.15-51.92-85.57zM221.17 718.17c25.19 12.17 42.51 10.63 56.62 6.39 14.1-4.239 21.72-18.779 20.59-26.109-1.93-12.69-6.43-11.141-23.5-20.351-17.07-9.21-43.54-22.359-59.99-42.1-16.45-19.73-14.56-16.69-24.43-31.48l.64.87c-.51-.949-1.05-1.93-1.63-2.979-12.32-22.53-14.61-53.44-16.92-72.7-2.33-19.26.77-22.88-10.32-29.33-6.41-3.729-22.73-1.979-31.85 9.59-9.12 11.57-14.75 27.601-12.67 55.5 2 26.65 4.04 35.44 14.69 59.71.69 1.551 12.48 25.261 27.76 43.09 25.07 29.23 35.14 34.181 47.65 42.271 4.31 2.788 8.74 5.398 13.36 7.628z" stroke-width="14"/><path d="M187.77 483.1c.15-11.819.54-22.359.54-22.359s16.51-25.44 45.79-35.45c29.28-10.02 48.41-10.87 114.14-1.66 0 0 99.87 13.78 121.43 13.78 21.53 0 73.75 11.55 98.55 21.109 24.811 9.57 41.69 14.961 47.66 28.671 1.43 3.29 1.09 8.029-.54 13.29-2.56 8.27-8.3 17.829-15.29 25.01-7.08 7.3-15.45 12.14-23.09 10.71-9.77-1.83-28.88-9.431-48.74-15.99-2.79-.92-5.6-1.82-8.399-2.68-17.95-5.53-35.511-9.42-46.34-6.67-24.53 6.229-56.94 10.8-77.311 17.439-3.92 1.28-8.85 3.19-14.45 5.49-23.47 9.62-58.76 26-81.58 31.11 0 0-49.81 6.319-70.05-4.12-20.23-10.44-38.51-17.63-41.78-50.271-.62-6.179-.67-17.269-.54-27.409z" stroke-width="14"/><path d="M188.31 483.1s38.13-40.199 66.84-44.8c28.69-4.59 77.39 5.061 121.03 10.72 2.49.32 4.92.631 7.29.921 70.78 8.729 94.04 4.64 121.18 9.659 42.689 7.891 110.67 40.87 110.67 40.87" stroke-width="14"/><path d="M383.47 449.95c14.37 4.99 26.13 24.26 25.34 38.38-.49 8.85-5.02 20.36-9.65 27.96-.38.63-.85 1.29-1.4 1.97-4.22 5.3-12.73 11.98-16.04 15.53-.19.19-.35.38-.5.55M397.85 518.33c7.27-8.63 22.99-33.66 35.06-34.58 13.31-1.01 23.71 6.47 37.49 5.89 12.55-.52 22.25-.33 33.88 2.58 13.55 3.38 16.3 8.431 16.3 22.86M529.06 517.7c-.3-7.141 5.37-17.561 12.41-18.95 7.41-1.47 14.38 3.93 20.9 6.41 12.91 4.91 37.68.42 37.68 20.33" stroke-width="14"/><path d="M709.72 211.79c16.84-5.07 28-13.72 44.79-44.9 5.88-10.92 11.86-23.88 13.95-33.56 0 0 3.16-13.24-2.34-13.48-14.13-.61-44.22-.86-44.22-.86" stroke-width="28"/><path d="M487.69 109.79c0-25.93 52.34-46.95 116.89-46.95 64.58 0 116.92 21.02 116.92 46.95 0 .29-.01.59-.03.88-.51 11.29-10.95 21.61-27.95 29.59-21.449 10.09-53.329 16.48-88.939 16.48-39.55 0-74.51-7.89-95.66-19.97-13.371-7.63-21.231-16.93-21.231-26.98zM700.48 220.91c1.02.31 2.039.63 3.039.95 45.48 14.48 75.261 38.59 75.261 65.91 0 44.29-78.351 80.2-175 80.2-96.641 0-174.98-35.91-174.98-80.2 0-27.57 30.33-51.88 76.521-66.32h.01" stroke-width="21"/><path d="M670.8 264.03c-16.41 12.26-38.01 19.62-66.41 18.45l.301.09c-29.08 1.2-51.021-6.55-67.561-19.33-14.24-11.02-24.47-25.77-31.81-41.79-22.78-49.74-17.63-111.66-17.63-111.66" stroke-width="21"/><path d="M721.4 109.7s.029.33.069.97c.09 1.4.261 4.28.351 8.32.42 17.45-.45 56.55-13.811 92.15-1.359 3.62-2.85 7.2-4.49 10.72-7.289 15.8-17.43 30.33-31.479 41.22-.41.32-.82.64-1.24.95" stroke-width="21"/><path d="M672.05 263.09c5.36 4.22 8.4 9.02 8.4 14.11 0 17.03-33.92 30.83-75.76 30.83-41.83 0-75.75-13.8-75.75-30.83 0-5.03 2.949-9.77 8.189-13.96l.01-.01M509.61 137.83c-.261-.35-.49-.7-.69-1.06-.84-1.4-1.27-2.85-1.27-4.32 0-14.76 43.04-26.72 96.13-26.72 53.1 0 96.14 11.96 96.14 26.72 0 2.71-3.689 5.33-6.4 7.81" stroke-width="14"/></g><path fill="none" d="M0 0h850.394v850.394H0z"/></svg>