<svg xmlns="http://www.w3.org/2000/svg" width="850.394" height="850.394" viewBox="0 0 850.394 850.394" overflow="visible"><path d="M448.94 542.74c-1.2.01-2.36.01-3.511-.01v-.011c3.82-13.7-9.33-36.6-21.09-38.39-5.27-.79-10.02 2.479-15.24 2.15-4.14-.28-7.36-3.78-11.21-3.98-7.05-.38-12.13.85-15.8 2.88-9.31-11-14.16-21.07-13.88-31.17.09-3.21.64-6.37 1.29-9.09 1.15-4.73 2.63-8.12 2.63-8.12 2.62-4.87 4.92-7.7 10.67-12.46 11.4-9.48 29.53-10.21 55.46-5.78 25.931 4.42 36.83 12.07 48.29 27 11.45 14.94 23.561 41.71 23.561 41.71 2.18 3.561 4.989 6.88 8.909 9.78 9.171 6.8 29.431 9.64 29.431 9.64l69.05 33.42.03.011 24.8 12 133.26 64.51-13.649 27.78-128.41-62.82-23.16-11.33-18.16-8.89-56.96-27.86s-2.44-2.34-6.06-5.32c-1.73-1.42-3.73-2.979-5.87-4.5-4.41-3.159-9.42-6.159-13.82-7.37-4.7-1.3-9.05-1.449-13.21-.979 0 0-24.15 5.92-42.67 7.03-1.611.089-3.181.149-4.681.169z" fill="#c8c8c8"/><path d="M434.27 597.25c-.239 6.05-6.77 10.3-4.869 17.36 1.39 5.109 5.159 5.21 7.97 8.89 1.71 2.24 1.41 5.77 3.06 7.72 8.2 9.7 22.891 12.46 34.351 7.95 6.04-2.37 8.85-6.84 13.87-9.95 4.699-2.89 11.02-2.859 15.06-6.96 11.39-11.52-4.15-42.12-17.81-44.189-5.271-.801-10.03 2.479-15.24 2.149-4.15-.279-7.36-3.79-11.21-3.989-27.202-1.461-25.182 21.019-25.182 21.019zm-159.99 31.26c9.04 14.67-70.09-56.27-68.64 9.971.55 25.109 20.03 39.279 43.19 33.43 17.87-4.521 38.34-23.101 25.45-43.401zm67.07-17.57c11.39-11.511-4.15-42.11-17.81-44.19-5.27-.79-10.03 2.48-15.25 2.15-4.14-.28-7.35-3.78-11.21-3.98-27.19-1.46-25.17 21.01-25.17 21.01-.25 6.061-6.77 10.301-4.87 17.36 1.38 5.12 5.16 5.21 7.96 8.89 1.72 2.24 1.42 5.771 3.06 7.73 8.21 9.7 22.89 12.46 34.36 7.95 6.04-2.37 8.85-6.851 13.87-9.95 4.69-2.89 11.01-2.87 15.06-6.97zM420 631.08c11.38-11.5-4.16-42.11-17.81-44.18-5.27-.801-10.03 2.47-15.25 2.13-4.15-.261-7.36-3.771-11.21-3.971-27.19-1.46-25.18 21.011-25.18 21.011-.24 6.06-6.76 10.29-4.86 17.359 1.38 5.11 5.16 5.2 7.96 8.88 1.72 2.25 1.42 5.79 3.06 7.74 8.2 9.7 22.89 12.44 34.35 7.95 6.05-2.38 8.86-6.85 13.88-9.95 4.69-2.899 11.01-2.879 15.06-6.969zm78.92 41.61l1.2 3.67c-13.4 4.47-27.71 8.279-42.75 11.38l-.01-.061c3.899-12.42 10.909-20.47 3.08-32.359-5.73-8.721-69.26-31.28-68.351 10.399.27 12.561 9.05 16.471 16.88 28.98l.03.31c-16.59 1.61-33.78 2.45-51.42 2.45-4.25 0-8.47-.06-12.66-.16l.06-2.38c6.05-11.729 20.11-23.16 9.29-39.6-5.73-8.721-69.27-31.28-68.36 10.399.24 10.82 6.4 17.221 8.21 27.5C181.18 677.81 97.54 622.23 97.54 556.03c0-78.13 116.42-141.44 260.04-141.44s260.04 63.31 260.04 141.44c0 1.43-.04 2.859-.12 4.279l-69.05-33.42s-20.26-2.84-29.431-9.64c-3.92-2.9-6.729-6.22-8.909-9.78 0 0-12.11-26.77-23.561-41.71-11.46-14.93-22.359-22.58-48.29-27-25.93-4.43-44.06-3.7-55.46 5.78-5.75 4.76-8.05 7.59-10.67 12.46 0 0-1.48 3.39-2.63 8.12-.65 2.72-1.2 5.88-1.29 9.09-.28 10.1 4.57 20.17 13.88 31.17-10.48 5.8-9.37 18.13-9.37 18.13-.25 6.05-6.78 10.3-4.87 17.36 1.38 5.11 5.16 5.21 7.96 8.88 1.71 2.25 1.42 5.79 3.05 7.74 8.21 9.7 22.9 12.46 34.36 7.95 6.05-2.381 8.85-6.851 13.879-9.95 4.69-2.9 11.011-2.87 15.061-6.971 1.59-1.6 2.649-3.569 3.27-5.789 1.15.02 2.311.02 3.511.01 1.5-.021 3.069-.08 4.68-.17l.01.229c4.41 19.46 21.87 27.67 42.13 22.55 11-2.779 22.99-10.89 27.561-21.46 2.14 1.521 4.14 3.08 5.87 4.5l-2.48 3.11c-7.479 6.22-6.57 15.22-6.57 15.22-.25 6.061-6.779 10.311-4.88 17.37 1.391 5.12 5.16 5.2 7.971 8.87 1.72 2.25 1.409 5.79 3.05 7.73 8.21 9.71 22.89 12.46 34.359 7.96 6.051-2.381 8.851-6.851 13.88-9.96 4.69-2.891 11-2.86 15.061-6.95.71-.721 1.92-8.87 2.42-9.74l.21-.43 18.16 8.89-.03.07c-7.58 20.14-22.83 38.13-44.06 53.35l-1.66-2.33c-1.95-4.88-5.72-9.18-11.87-12.24-9.332-4.658-75.592 7.792-53.832 43.382zm-300.26-92.72c7.48 12.13-45.59-34.489-63.15-13.09-3.62 4.42-5.74 11.73-5.49 23.061.55 25.109 20.03 39.29 43.19 33.439 17.86-4.52 38.33-23.1 25.45-43.41zm154.88-42.61c13.48-13.63 9.78-40.04-17.81-44.2-5.27-.8-10.02 2.47-15.24 2.14-4.15-.27-7.35-3.78-11.21-3.99-27.19-1.449-25.17 21.03-25.17 21.03-.25 6.04-6.78 10.3-4.87 17.36 1.38 5.109 5.16 5.2 7.96 8.88 1.72 2.25 1.42 5.79 3.05 7.72 8.21 9.71 22.9 12.47 34.36 7.96 6.05-2.38 8.86-6.84 13.88-9.95 4.69-2.9 11.01-2.86 15.05-6.95zm-85.35 19.76c11.39-11.521-4.15-42.14-17.82-44.2-5.26-.79-10.02 2.48-15.24 2.13-4.14-.26-1.35-3.76-5.21-3.97-27.19-1.46-31.17 21.01-31.17 21.01-.24 6.07-6.77 10.311-4.86 17.37 1.37 5.1 5.15 5.21 7.96 8.87 1.71 2.26 1.41 5.79 3.05 7.729 8.21 9.721 22.9 12.46 34.36 7.96 6.04-2.369 8.85-6.85 13.87-9.96 4.69-2.889 11.02-2.849 15.06-6.939z" fill="#fff"/><path d="M460.44 655.32c7.829 11.89.819 19.939-3.08 32.359l.01.061c-15.4 3.189-31.57 5.63-48.37 7.27l-.03-.31c-7.83-12.51-16.61-16.42-16.88-28.98-.91-41.68 62.62-19.12 68.35-10.4z" fill="#f6cc4b"/><path d="M617.62 556.03c0-78.13-116.42-141.44-260.04-141.44S97.54 477.9 97.54 556.03c0 66.2 83.64 121.779 196.58 137.189 16.37 2.23 33.36 3.62 50.8 4.08 4.19.101 8.41.16 12.66.16 17.64 0 34.83-.84 51.42-2.45 16.8-1.64 32.97-4.08 48.37-7.27 15.04-3.101 29.35-6.91 42.75-11.38 25.689-8.561 48.09-19.511 66.16-32.48 21.229-15.22 36.479-33.21 44.06-53.35l.03-.07 23.16 11.33-.181.38c-7.729 19.19-21 36.69-38.81 52.07-50.29 43.439-136.8 69.979-236.96 69.979-95.61 0-180.27-27.17-232.26-68.91-33.97-27.279-53.99-60.779-53.99-97 0-91.619 128.16-165.89 286.25-165.89 158.1 0 286.25 74.271 286.25 165.89 0 5.73-.5 8.391-1.48 13.971l-.02.04-24.8-12-.03-.011c.081-1.418.121-2.848.121-4.278z" fill="#ffffc2"/><path d="M498.92 672.69c-21.76-35.591 44.5-48.04 53.83-43.381 6.15 3.061 9.92 7.36 11.87 12.24l1.66 2.33c-18.07 12.97-40.471 23.92-66.16 32.48l-1.2-3.669zM523.23 592.96c-2.811-3.67-6.58-3.75-7.971-8.87-1.899-7.06 4.63-11.31 4.88-17.37 0 0-.909-9 6.57-15.22l2.48-3.11c3.619 2.98 6.06 5.32 6.06 5.32l56.96 27.86-.209.43c-.5.87-1.71 9.02-2.42 9.74-4.061 4.09-10.37 4.06-15.061 6.95-5.029 3.109-7.829 7.579-13.88 9.96-11.47 4.5-26.149 1.75-34.359-7.96-1.64-1.94-1.33-5.48-3.05-7.73zM523.32 543.89c-4.57 10.57-16.561 18.681-27.561 21.46-20.26 5.12-37.72-3.09-42.13-22.55l-.01-.229c18.52-1.11 42.67-7.03 42.67-7.03 4.16-.47 8.51-.32 13.21.979 4.401 1.21 9.411 4.21 13.821 7.37zM485.9 578.07c13.659 2.069 29.199 32.67 17.81 44.189-4.04 4.101-10.36 4.07-15.06 6.96-5.021 3.11-7.83 7.58-13.87 9.95-11.46 4.51-26.15 1.75-34.351-7.95-1.649-1.95-1.35-5.479-3.06-7.72-2.811-3.68-6.58-3.78-7.97-8.89-1.9-7.061 4.63-11.311 4.869-17.36 0 0-2.02-22.48 25.181-21.02 3.85.199 7.06 3.71 11.21 3.989 5.211.332 9.971-2.948 15.241-2.148zM354.27 655.32c10.82 16.439-3.24 27.87-9.29 39.6l-.06 2.38c-17.44-.46-34.43-1.85-50.8-4.08-1.81-10.279-7.97-16.68-8.21-27.5-.91-41.68 62.63-19.12 68.36-10.4zM402.19 586.9c13.65 2.069 29.19 32.68 17.81 44.18-4.05 4.09-10.37 4.07-15.06 6.97-5.02 3.101-7.83 7.57-13.88 9.95-11.46 4.49-26.15 1.75-34.35-7.95-1.64-1.95-1.34-5.49-3.06-7.74-2.8-3.68-6.58-3.77-7.96-8.88-1.9-7.069 4.62-11.3 4.86-17.359 0 0-2.01-22.471 25.18-21.011 3.85.2 7.06 3.71 11.21 3.971 5.22.339 9.98-2.931 15.25-2.131zM382.09 505.38c3.67-2.03 8.75-3.26 15.8-2.88 3.85.2 7.07 3.7 11.21 3.98 5.22.329 9.97-2.94 15.24-2.15 11.76 1.79 24.91 24.689 21.09 38.39v.011c-.62 2.22-1.68 4.189-3.27 5.789-4.05 4.101-10.37 4.07-15.061 6.971-5.03 3.1-7.83 7.569-13.879 9.95-11.46 4.51-26.15 1.75-34.36-7.95-1.63-1.95-1.34-5.49-3.05-7.74-2.8-3.67-6.58-3.77-7.96-8.88-1.91-7.061 4.62-11.311 4.87-17.36 0-.001-1.11-12.331 9.37-18.131zM335.73 493.16c27.59 4.16 31.29 30.57 17.81 44.2-4.04 4.09-10.36 4.05-15.05 6.949-5.02 3.11-7.83 7.57-13.88 9.95-11.46 4.51-26.15 1.75-34.36-7.96-1.63-1.93-1.33-5.47-3.05-7.72-2.8-3.68-6.58-3.771-7.96-8.88-1.91-7.061 4.62-11.32 4.87-17.36 0 0-2.02-22.479 25.17-21.03 3.86.21 7.06 3.721 11.21 3.99 5.22.331 9.97-2.939 15.24-2.139zM323.54 566.75c13.66 2.08 29.2 32.68 17.81 44.19-4.05 4.1-10.37 4.079-15.06 6.97-5.02 3.1-7.83 7.58-13.87 9.95-11.47 4.51-26.15 1.75-34.36-7.95-1.64-1.96-1.34-5.49-3.06-7.73-2.8-3.68-6.58-3.77-7.96-8.89-1.9-7.06 4.62-11.3 4.87-17.36 0 0-2.02-22.47 25.17-21.01 3.86.2 7.07 3.7 11.21 3.98 5.22.33 9.98-2.94 15.25-2.15zM205.64 638.48c-1.45-66.24 77.68 4.699 68.64-9.971 12.89 20.3-7.58 38.88-25.45 43.4-23.16 5.851-42.64-8.319-43.19-33.429zM250.37 512.92c13.67 2.061 29.21 32.68 17.82 44.2-4.04 4.09-10.37 4.05-15.06 6.939-5.02 3.11-7.83 7.591-13.87 9.96-11.46 4.5-26.15 1.761-34.36-7.96-1.64-1.939-1.34-5.47-3.05-7.729-2.81-3.66-6.59-3.771-7.96-8.87-1.91-7.06 4.62-11.3 4.86-17.37 0 0 3.98-22.47 31.17-21.01 3.86.21 1.07 3.71 5.21 3.97 5.22.35 9.98-2.92 15.24-2.13zM135.51 566.88c17.56-21.399 70.63 25.22 63.15 13.09 12.88 20.311-7.59 38.891-25.45 43.41-23.16 5.851-42.64-8.33-43.19-33.439-.25-11.331 1.87-18.641 5.49-23.061z" fill="#f6cc4b"/><path d="M357.58 724.22c100.16 0 186.67-26.54 236.96-69.979-22.6 74.3-117.87 126.22-234.44 126.22-113.92 0-209.41-53.37-234.78-125.15 51.99 41.739 136.65 68.909 232.26 68.909zM763.23 148.86l-24.88 236.25c0 26.09-36.109 47.22-80.67 47.22-44.54 0-80.66-21.13-80.66-47.22l-24.89-236.26.11-.01c1.45 15.82 48.08 28.52 105.41 28.52 57.319 0 103.96-12.7 105.409-28.52l.171.02z" fill="#ffffc2"/><g fill="none" stroke="#231f20"><path d="M382.11 505.4l-.02-.021c-9.31-11-14.16-21.07-13.88-31.17.09-3.21.64-6.37 1.29-9.09 1.15-4.73 2.63-8.12 2.63-8.12 2.62-4.87 4.92-7.7 10.67-12.46 11.4-9.48 29.53-10.21 55.46-5.78 25.931 4.42 36.83 12.07 48.29 27 11.45 14.94 23.561 41.71 23.561 41.71 2.18 3.561 4.989 6.88 8.909 9.78 9.171 6.8 29.431 9.64 29.431 9.64l69.05 33.42.03.011M617.53 560.32l24.8 12 133.26 64.51-13.649 27.78-128.41-62.82-23.16-11.33-18.16-8.89-56.96-27.86s-2.44-2.34-6.06-5.32c-1.73-1.42-3.73-2.979-5.87-4.5-4.41-3.159-9.42-6.159-13.82-7.37-4.7-1.3-9.05-1.449-13.21-.979 0 0-24.15 5.92-42.67 7.03-1.61.09-3.18.149-4.68.17-1.2.01-2.36.01-3.511-.01" stroke-width="21"/><path d="M633.35 602.17c-7.729 19.19-21 36.69-38.81 52.07-50.29 43.439-136.8 69.979-236.96 69.979-95.61 0-180.27-27.17-232.26-68.91-33.97-27.279-53.99-60.779-53.99-97 0-91.619 128.16-165.89 286.25-165.89 158.1 0 286.25 74.271 286.25 165.89 0 5.73-.5 8.391-1.48 13.971" stroke-width="21"/><path d="M610.34 590.53c-7.58 20.14-22.83 38.13-44.06 53.35-18.07 12.97-40.471 23.92-66.16 32.48-13.4 4.47-27.71 8.279-42.75 11.38-15.4 3.189-31.57 5.63-48.37 7.27-16.59 1.61-33.78 2.45-51.42 2.45-4.25 0-8.47-.06-12.66-.16-17.44-.46-34.43-1.85-50.8-4.08-112.94-15.41-196.58-70.99-196.58-137.19 0-78.13 116.42-141.44 260.04-141.44s260.04 63.31 260.04 141.44c0 1.43-.04 2.859-.12 4.279-.05.98-.12 1.96-.21 2.931" stroke-width="14"/><path d="M594.78 653.46l-.24.78c-22.6 74.3-117.87 126.22-234.44 126.22-113.92 0-209.41-53.37-234.78-125.15-.17-.479-.34-.949-.5-1.43" stroke-width="21"/><path d="M135.51 566.88c-3.62 4.42-5.74 11.73-5.49 23.061.55 25.109 20.03 39.29 43.19 33.439 17.86-4.52 38.33-23.1 25.17-43.85.08.13.16.25.24.37.01.02.03.05.04.069 7.48 12.131-45.59-34.489-63.15-13.089zM274 628.07c.08.13.16.25.24.37.02.02.03.05.04.069M274.28 628.51c9.04 14.67-70.09-56.27-68.64 9.971.55 25.109 20.03 39.279 43.19 33.43 17.87-4.521 38.34-23.101 25.45-43.401zM453.63 542.8c4.41 19.46 21.87 27.67 42.13 22.55 11-2.779 22.99-10.89 27.561-21.46l.01-.01M344.98 694.92c6.05-11.729 20.11-23.16 9.29-39.6-5.73-8.721-69.27-31.28-68.36 10.399.24 10.82 6.4 17.221 8.21 27.5M457.36 687.68c3.899-12.42 10.909-20.47 3.08-32.359-5.73-8.721-69.26-31.28-68.351 10.399.27 12.561 9.05 16.471 16.88 28.98M564.62 641.55c-1.95-4.88-5.72-9.18-11.87-12.24-9.33-4.659-75.59 7.79-53.83 43.381M297.08 564.92c3.86.2 7.07 3.7 11.21 3.98 5.22.33 9.98-2.94 15.25-2.15 13.66 2.08 29.2 32.68 17.81 44.19-4.05 4.1-10.37 4.079-15.06 6.97-5.02 3.1-7.83 7.58-13.87 9.95-11.47 4.51-26.15 1.75-34.36-7.95-1.64-1.96-1.34-5.49-3.06-7.73-2.8-3.68-6.58-3.77-7.96-8.89-1.9-7.06 4.62-11.3 4.87-17.36 0 0-2.02-22.47 25.17-21.01zM229.92 511.08c3.86.21 1.07 3.71 5.21 3.97 5.22.351 9.98-2.92 15.24-2.13 13.67 2.061 29.21 32.68 17.82 44.2-4.04 4.09-10.37 4.05-15.06 6.939-5.02 3.11-7.83 7.591-13.87 9.96-11.46 4.5-26.15 1.761-34.36-7.96-1.64-1.939-1.34-5.47-3.05-7.729-2.81-3.66-6.59-3.771-7.96-8.87-1.91-7.06 4.62-11.3 4.86-17.37 0 0 3.98-22.47 31.17-21.01zM309.28 491.31c3.86.21 7.06 3.721 11.21 3.99 5.22.33 9.97-2.939 15.24-2.14 27.59 4.16 31.29 30.57 17.81 44.2-4.04 4.09-10.36 4.05-15.05 6.949-5.02 3.11-7.83 7.57-13.88 9.95-11.46 4.51-26.15 1.75-34.36-7.96-1.63-1.93-1.33-5.47-3.05-7.72-2.8-3.68-6.58-3.771-7.96-8.88-1.91-7.061 4.62-11.32 4.87-17.36 0 .001-2.02-22.479 25.17-21.029z" stroke-width="14"/><path d="M375.73 585.06c3.85.2 7.06 3.71 11.21 3.971 5.22.34 9.98-2.931 15.25-2.13 13.65 2.069 29.19 32.68 17.81 44.18-4.05 4.09-10.37 4.07-15.06 6.97-5.02 3.101-7.83 7.57-13.88 9.95-11.46 4.49-26.15 1.75-34.35-7.95-1.64-1.95-1.34-5.49-3.06-7.74-2.8-3.68-6.58-3.77-7.96-8.88-1.9-7.069 4.62-11.3 4.86-17.359 0-.002-2.01-22.472 25.18-21.012zM445.43 542.72v.011c-.62 2.22-1.68 4.189-3.27 5.789-4.05 4.101-10.37 4.07-15.061 6.971-5.03 3.1-7.83 7.569-13.879 9.95-11.46 4.51-26.15 1.75-34.36-7.95-1.63-1.95-1.34-5.49-3.05-7.74-2.8-3.67-6.58-3.77-7.96-8.88-1.91-7.061 4.62-11.311 4.87-17.36 0 0-1.11-12.33 9.37-18.13 3.67-2.03 8.75-3.26 15.8-2.88 3.85.2 7.07 3.7 11.21 3.98 5.22.329 9.97-2.94 15.24-2.15 11.76 1.789 24.91 24.689 21.09 38.389M592 582c-.5.87-1.71 9.02-2.42 9.74-4.061 4.09-10.37 4.06-15.061 6.95-5.029 3.109-7.829 7.579-13.88 9.96-11.47 4.5-26.149 1.75-34.359-7.96-1.641-1.94-1.33-5.48-3.05-7.73-2.811-3.67-6.58-3.75-7.971-8.87-1.899-7.06 4.63-11.31 4.88-17.37 0 0-.909-9 6.57-15.22M459.45 576.23c3.85.199 7.06 3.71 11.21 3.989 5.21.33 9.97-2.95 15.24-2.149 13.659 2.069 29.199 32.67 17.81 44.189-4.04 4.101-10.36 4.07-15.06 6.96-5.021 3.11-7.83 7.58-13.87 9.95-11.46 4.51-26.15 1.75-34.351-7.95-1.649-1.95-1.35-5.479-3.06-7.72-2.811-3.68-6.58-3.78-7.97-8.89-1.9-7.061 4.63-11.311 4.869-17.36.002.001-2.018-22.479 25.182-21.019zM134.97 569.4c.16-.841.34-1.681.54-2.521C149.04 509.4 242.4 464.9 355.57 464.9c4.68 0 9.32.069 13.93.22" stroke-width="14"/><path d="M768.51 98.78c0 .61-.06 1.21-.189 1.8-3.36 16.15-51.601 28.97-110.641 28.97-59.029 0-107.279-12.82-110.64-28.97-.13-.59-.19-1.19-.19-1.8 0-17.01 49.62-30.79 110.83-30.79 61.22 0 110.83 13.78 110.83 30.79z" stroke-width="21"/><path d="M763.09 148.08c0 .25-.01.5-.03.76-1.449 15.82-48.09 28.52-105.409 28.52-57.33 0-103.96-12.7-105.41-28.52-.021-.26-.03-.51-.03-.76" stroke-width="14"/><path d="M546.85 98.78l.19 1.8 5.09 48.27 24.89 236.26c0 26.09 36.12 47.22 80.66 47.22 44.561 0 80.67-21.13 80.67-47.22l24.881-236.25h.01l5.08-48.28.189-1.8" stroke-width="21"/></g><path fill="none" d="M0 0h850.394v850.394H0z"/></svg>