<?xml version="1.0" encoding="iso-8859-1"?>
<!-- Generator: Adobe Illustrator 12.0.1, SVG Export Plug-In . SVG Version: 6.00 Build 51448)  -->
<!DOCTYPE svg PUBLIC "-//W3C//DTD SVG 1.1//EN" "http://www.w3.org/Graphics/SVG/1.1/DTD/svg11.dtd" [
	<!ENTITY ns_svg "http://www.w3.org/2000/svg">
	<!ENTITY ns_xlink "http://www.w3.org/1999/xlink">
]>
<svg  version="1.1" id="Layer_1" xmlns="&ns_svg;" xmlns:xlink="&ns_xlink;" width="850.394" height="850.394"
	 viewBox="0 0 850.394 850.394" style="overflow:visible;enable-background:new 0 0 850.394 850.394;" xml:space="preserve">
<g id="XMLID_4_">
	<g>
		<path style="fill:#FFFFC2;" d="M145.63,583.09l0.2-0.31c0,0,129.38,60.439,194.55,54.779c65.16-5.67,99.83-23.279,132.21-36.829
			c40.61-17,252.15-107.66,273.87-119.94l0.76,0.37c-27.529,56.85-55.529,78.01-55.529,78.01S402.7,681.94,373.43,686.67
			c-29.28,4.72-207.77-4.729-259.71-80.28c-23.14-33.649-34.84-68.8-38.78-102.27L76,504C98.4,530.13,108.6,559.75,145.63,583.09z"
			/>
		<path style="fill:#F6CC4B;" d="M145.63,583.09C108.6,559.75,98.4,530.13,76,504l-1.06,0.12c-4.93-41.69,2.18-80.78,14.23-111.16
			c21.72-54.77,100.96-136.4,201.15-173.76c111.44-41.56,193.6-56.67,193.6-56.67s101.05-16.99,184.16,42.5
			c83.1,59.5,124.66,160.55,93.49,242.71c-4.66,12.3-9.5,23.41-14.351,33.42l-0.76-0.37c-21.72,12.28-233.26,102.94-273.87,119.94
			c-32.38,13.55-67.05,31.159-132.21,36.829c-65.17,5.66-194.55-54.779-194.55-54.779L145.63,583.09z"/>
	</g>
	<g>
		<path style="fill:none;stroke:#231F20;stroke-width:21;" d="M74.94,504.12c-4.93-41.69,2.18-80.78,14.23-111.16
			c21.72-54.77,100.96-136.4,201.15-173.76c111.44-41.56,193.6-56.67,193.6-56.67s101.05-16.99,184.16,42.5
			c83.1,59.5,124.66,160.55,93.49,242.71c-4.66,12.3-9.5,23.41-14.351,33.42c-27.529,56.85-55.529,78.01-55.529,78.01
			S402.7,681.94,373.43,686.67c-29.28,4.72-207.77-4.729-259.71-80.28C90.58,572.74,78.88,537.59,74.94,504.12z"/>
		<path style="fill:none;stroke:#231F20;stroke-width:21;" d="M145.83,582.78c0,0,129.38,60.439,194.55,54.779
			c65.16-5.67,99.83-23.279,132.21-36.829c40.61-17,252.15-107.66,273.87-119.94"/>
	</g>
</g>
<rect style="fill:none;" width="850.394" height="850.394"/>
</svg>
