<?xml version="1.0" encoding="iso-8859-1"?>
<!-- Generator: Adobe Illustrator 12.0.1, SVG Export Plug-In . SVG Version: 6.00 Build 51448)  -->
<!DOCTYPE svg PUBLIC "-//W3C//DTD SVG 1.1//EN" "http://www.w3.org/Graphics/SVG/1.1/DTD/svg11.dtd" [
	<!ENTITY ns_svg "http://www.w3.org/2000/svg">
	<!ENTITY ns_xlink "http://www.w3.org/1999/xlink">
]>
<svg  version="1.1" id="Layer_1" xmlns="&ns_svg;" xmlns:xlink="&ns_xlink;" width="850.394" height="850.394"
	 viewBox="0 0 850.394 850.394" style="overflow:visible;enable-background:new 0 0 850.394 850.394;" xml:space="preserve">
<g>
	<g>
		<g id="XMLID_11_">
			<g>
				<path style="fill:#33A02C;" d="M312.27,460.69c-2.44-1.631-4.85-3.25-7.25-4.851c-32.3-21.64-60.74-40.78-81.63-54.96
					l290.6,185.67c-1.71,1.811-3.16,3.71-4.351,5.7c-50.43-33.49-108.63-72.24-161.6-107.63
					C335.78,476.43,323.81,468.42,312.27,460.69z"/>
				<path style="fill:#33A02C;" d="M145.68,330.77c16.74,10.98,34.73,23.59,46.24,32.55c-12.24,1.9-28.53,2.4-35.32-0.59
					c-7.1-3.13-23.51-15.98-39.32-29.27L145.68,330.77z"/>
				<path style="fill:#33A02C;" d="M114.49,373.97c-2.9-1.6-5.6-3.01-8.2-4.37c-10.83-5.67-15.57-8.47-15.57-11.48v-10.47
					c12.4,10.7,28.89,24.37,41.84,33.19C124.12,378.36,117.54,375.65,114.49,373.97z"/>
				<path style="fill:#33A02C;" d="M527.12,641.42c26.72,22.33,77.39,56.96,92.57,66.92l0.43,6.78
					c-35.67-24.8-78.811-55.58-86.54-63.3C530.36,648.59,528.31,645.02,527.12,641.42z"/>
				<polygon style="fill:#33A02C;" points="736.17,667.6 736.17,680.12 643,720.72 642.21,708.62 				"/>
				<path style="fill:#33A02C;" d="M710.82,648.12l-79.24,34.59c-30.01-19.67-89.561-62.95-96.7-71.94
					c-0.01-0.01-0.01-0.01-0.01-0.02c-0.01-0.01-0.01-0.01-0.01-0.01l-0.011-0.01c-0.279-0.45-0.51-0.86-0.689-1.221
					c-0.74-1.45-0.8-2.229-0.75-2.359c0.01-0.03,1.13-3.42,11.7-8.181c31.159-14.04,65.909-8.359,112.659,18.4l19.86,11.62
					C688.54,635.44,699.65,642.01,710.82,648.12z"/>
				<path style="fill:#231F20;" d="M730.77,146.48c24.351,24.35,37.771,56.73,37.771,91.17c0,34.43-13.42,66.81-37.771,91.16
					c-24.35,24.35-56.729,37.77-91.17,37.77c-71.09,0-128.92-57.84-128.92-128.93c0-71.09,57.83-128.93,128.92-128.93
					C674.04,108.72,706.42,122.13,730.77,146.48z M761.54,237.65c0-67.34-54.59-121.93-121.94-121.93
					c-67.34,0-121.92,54.59-121.92,121.93c0,67.33,54.58,121.93,121.92,121.93C706.95,359.58,761.54,304.98,761.54,237.65z"/>
				<path style="fill:#231F20;" d="M757.17,653v33.99c0,4.18-2.47,7.96-6.3,9.63l-113.91,49.64c-3.32,1.45-7.15,1.08-10.14-0.97
					c-0.9-0.62-2.471-1.7-4.58-3.15l-0.311-4.8l22.051-1.43L643,720.72l93.17-40.6v6.87c0-4.181,2.48-7.95,6.311-9.62l-6.311,2.75
					V667.6l13.18-5.75C753.2,660.17,756.02,656.9,757.17,653z"/>
				<path style="fill:#231F20;" d="M736.17,680.12l6.311-2.75c-3.83,1.67-6.311,5.439-6.311,9.62V680.12z"/>
				<path style="fill:#231F20;" d="M749.35,661.85l-13.18,5.75v-6.649c0.62,0.29,1.24,0.569,1.86,0.85
					c-0.65-0.29-1.271-0.63-1.86-1.01v-8.63c0-5.8,4.7-10.5,10.5-10.5c2.9,0,5.53,1.18,7.43,3.08l3.07,7.42V653
					C756.02,656.9,753.2,660.17,749.35,661.85z"/>
				<path style="fill:#231F20;" d="M710.82,648.12l27.33-11.93c-5.08,2.22-8.37,7.22-8.4,12.76c-0.02,4.83,2.44,9.27,6.42,11.84
					v0.16C727.73,657.11,719.26,652.74,710.82,648.12z"/>
				<path style="fill:#231F20;" d="M738.03,661.8c-0.62-0.28-1.24-0.56-1.86-0.85v-0.16C736.76,661.17,737.38,661.51,738.03,661.8z"
					/>
				<path style="fill:#231F20;" d="M745.15,240.33c0.699,1.02,1.05,2.3,1.05,3.83c0,2.23-0.66,4.08-1.99,5.54s-2.92,2.19-4.75,2.19
					c-1.76,0-3.25-0.61-4.47-1.84c-1.221-1.23-1.931-2.91-2.13-5.03l3.72-0.56c0.1,1.15,0.42,2.03,0.95,2.64
					c0.529,0.61,1.16,0.92,1.89,0.92c0.78,0,1.45-0.36,2-1.09c0.54-0.72,0.811-1.72,0.811-3c0-1.19-0.261-2.12-0.78-2.8
					c-0.521-0.68-1.16-1.02-1.9-1.02c-0.49,0-1.069,0.12-1.75,0.35l0.41-3.82c1.01,0.03,1.8-0.24,2.38-0.8
					c0.58-0.55,0.86-1.33,0.86-2.34c0-0.85-0.2-1.51-0.62-1.99c-0.41-0.47-0.94-0.71-1.59-0.71c-0.65,0-1.21,0.28-1.69,0.83
					c-0.47,0.55-0.76,1.37-0.85,2.45l-3.561-0.75c0.37-2.23,1.091-3.85,2.16-4.86c1.07-1.01,2.42-1.51,4.05-1.51
					c1.83,0,3.29,0.64,4.36,1.94c1.08,1.3,1.62,2.74,1.62,4.32c0,1.06-0.24,2.02-0.73,2.88c-0.479,0.85-1.21,1.6-2.18,2.24
					C743.54,238.64,744.45,239.31,745.15,240.33z"/>
				<polygon style="fill:#231F20;" points="731.25,190.1 736.45,203.09 706.8,214.96 701.6,201.96 				"/>
				
					<rect x="706.124" y="267.573" transform="matrix(0.3714 -0.9285 0.9285 0.3714 185.0095 840.349)" style="fill:#231F20;" width="14.002" height="31.934"/>
				<path style="fill:#231F20;" d="M639.6,115.72c67.351,0,121.94,54.59,121.94,121.93c0,67.33-54.59,121.93-121.94,121.93
					c-67.34,0-121.92-54.6-121.92-121.93C517.68,170.31,572.26,115.72,639.6,115.72z M754.54,237.65c0-30.7-11.96-59.56-33.67-81.27
					c-21.7-21.71-50.57-33.66-81.271-33.66c-63.369,0-114.92,51.56-114.92,114.93S576.23,352.58,639.6,352.58
					c30.7,0,59.57-11.96,81.271-33.67C742.58,297.2,754.54,268.34,754.54,237.65z"/>
				
					<rect x="679.926" y="161.555" transform="matrix(0.5998 -0.8001 0.8001 0.5998 143.1491 623.3368)" style="fill:#231F20;" width="29.658" height="14"/>
				<polygon style="fill:#231F20;" points="685.56,301.45 703.36,325.17 692.16,333.57 674.36,309.85 				"/>
				<path style="fill:#231F20;" d="M693.74,230.67v14h-43.17c2.16-2.29,3.489-5.36,3.489-8.76c0-1.87-0.399-3.64-1.13-5.24H693.74z"
					/>
				<path style="fill:#231F20;" d="M652.93,230.67c0.73,1.6,1.13,3.37,1.13,5.24c0,3.4-1.329,6.47-3.489,8.76h-11.42v-10.65h7.27
					v-3.35H652.93z"/>
				<path style="fill:#231F20;" d="M652.93,230.67h-6.51v-6.45C649.31,225.49,651.64,227.8,652.93,230.67z"/>
				<rect x="639.15" y="230.67" style="fill:#231F20;" width="7.27" height="3.35"/>
				<path style="fill:#231F20;" d="M646.42,224.22v6.45h-7.27v3.35h-6.73v-7.26c2.3-2.24,5.43-3.61,8.88-3.61
					C643.12,223.15,644.86,223.53,646.42,224.22z"/>
				<path style="fill:#231F20;" d="M646.42,160.42v63.8c-1.56-0.69-3.3-1.07-5.12-1.07c-3.45,0-6.58,1.37-8.88,3.61v-66.34H646.42z"
					/>
				<path style="fill:#231F20;" d="M647.94,135.14c0.579-0.99,0.869-1.99,0.869-2.99c0-1.06-0.239-1.87-0.72-2.42
					c-0.49-0.54-1.12-0.81-1.91-0.81c-1.71,0-2.64,1.27-2.779,3.81l-3.811-0.5c0.24-2.47,0.93-4.29,2.08-5.45
					c1.16-1.16,2.69-1.74,4.61-1.74c2.109,0,3.7,0.69,4.77,2.05c1.07,1.37,1.601,2.94,1.601,4.7c0,1-0.131,1.97-0.4,2.91
					c-0.28,0.94-0.7,1.89-1.27,2.84c-0.57,0.95-1.511,2.16-2.841,3.64c-1.239,1.39-2.02,2.31-2.35,2.75
					c-0.33,0.45-0.59,0.88-0.79,1.3h7.65v4.34h-13.5c0.149-1.64,0.59-3.2,1.34-4.69c0.74-1.48,2.18-3.43,4.319-5.84
					C646.51,137.11,647.55,135.81,647.94,135.14z"/>
				<path style="fill:#231F20;" d="M638.72,727.99c-1.56-1.08-3.16-2.181-4.8-3.311l9.08-3.96l0.98,15.19l-22.051,1.43l-0.37,0.021
					l-1.439-22.24c4.77,3.32,9.399,6.53,13.8,9.56l-5.35,2.33C631.9,725.57,635.73,725.93,638.72,727.99z"/>
				<path style="fill:#A3D9FF;" d="M642.63,337.78c0.51,0.74,0.771,1.9,0.771,3.5c0,1.54-0.24,2.65-0.71,3.33
					c-0.48,0.67-1.07,1.01-1.78,1.01c-0.74,0-1.391-0.4-1.97-1.22c-0.57-0.82-0.86-1.99-0.86-3.54c0-1.38,0.26-2.43,0.77-3.13
					c0.511-0.69,1.141-1.04,1.87-1.04C641.48,336.69,642.11,337.05,642.63,337.78z"/>
				<path style="fill:#231F20;" d="M641.51,697.81l0.7,10.811l-6.31,2.75c-4.24,1.85-9.131,1.479-13.051-0.98
					c-0.75-0.47-1.81-1.159-3.159-2.05l-0.591-9.08L641.51,697.81z"/>
				<path style="fill:#231F20;" d="M641.3,248.67c-7.04,0-12.76-5.71-12.76-12.76c0-3.6,1.49-6.84,3.88-9.15v7.26h6.73v10.65h11.42
					C648.25,247.14,644.95,248.67,641.3,248.67z"/>
				<path d="M643.4,341.28c0-1.6-0.261-2.76-0.771-3.5c-0.52-0.73-1.149-1.09-1.91-1.09c-0.729,0-1.359,0.35-1.87,1.04
					c-0.51,0.7-0.77,1.75-0.77,3.13c0,1.55,0.29,2.72,0.86,3.54c0.579,0.82,1.229,1.22,1.97,1.22c0.71,0,1.3-0.34,1.78-1.01
					C643.16,343.93,643.4,342.82,643.4,341.28z M633.77,337.17c0-4.47,0.69-7.69,2.061-9.66c1.37-1.97,3.13-2.95,5.27-2.95
					c1.49,0,2.74,0.5,3.761,1.5c1.01,1.01,1.659,2.53,1.939,4.56l-3.72,0.5c-0.18-1.81-0.91-2.72-2.19-2.72
					c-0.84,0-1.54,0.46-2.09,1.37c-0.56,0.91-0.899,2.75-1.05,5.52c0.48-0.69,1.01-1.21,1.6-1.56c0.591-0.34,1.25-0.51,1.96-0.51
					c1.57,0,2.94,0.73,4.11,2.19s1.76,3.4,1.76,5.82c0,2.58-0.62,4.6-1.859,6.07c-1.23,1.47-2.761,2.2-4.59,2.2
					c-2,0-3.66-0.95-4.98-2.86C634.43,344.74,633.77,341.58,633.77,337.17z"/>
				<path style="fill:#231F20;" d="M633.92,724.68c1.64,1.13,3.24,2.23,4.8,3.311c-2.989-2.061-6.819-2.42-10.149-0.98
					L633.92,724.68z"/>
				<path style="fill:#231F20;" d="M630.06,131.86c-1.43,1.61-3.09,2.8-4.97,3.56v-4.25c1.07-0.43,2.18-1.2,3.32-2.31
					c1.149-1.1,1.939-2.38,2.39-3.82h3.101v24.53h-3.841V131.86z"/>
				<path style="fill:#A3D9FF;" d="M692.16,333.57l11.2-8.4l-17.801-23.72l-11.199,8.4L692.16,333.57z M741.45,241.13
					c0.52,0.68,0.78,1.61,0.78,2.8c0,1.28-0.271,2.28-0.811,3c-0.55,0.73-1.22,1.09-2,1.09c-0.729,0-1.36-0.31-1.89-0.92
					c-0.53-0.61-0.851-1.49-0.95-2.64l-3.72,0.56c0.199,2.12,0.909,3.8,2.13,5.03c1.22,1.23,2.71,1.84,4.47,1.84
					c1.83,0,3.42-0.73,4.75-2.19s1.99-3.31,1.99-5.54c0-1.53-0.351-2.81-1.05-3.83c-0.7-1.02-1.61-1.69-2.73-1.99
					c0.97-0.64,1.7-1.39,2.18-2.24c0.49-0.86,0.73-1.82,0.73-2.88c0-1.58-0.54-3.02-1.62-4.32c-1.07-1.3-2.53-1.94-4.36-1.94
					c-1.63,0-2.979,0.5-4.05,1.51c-1.069,1.01-1.79,2.63-2.16,4.86l3.561,0.75c0.09-1.08,0.38-1.9,0.85-2.45
					c0.48-0.55,1.04-0.83,1.69-0.83c0.649,0,1.18,0.24,1.59,0.71c0.42,0.48,0.62,1.14,0.62,1.99c0,1.01-0.28,1.79-0.86,2.34
					c-0.58,0.56-1.37,0.83-2.38,0.8l-0.41,3.82c0.681-0.23,1.26-0.35,1.75-0.35C740.29,240.11,740.93,240.45,741.45,241.13z
					 M645.32,347.3c1.239-1.47,1.859-3.49,1.859-6.07c0-2.42-0.59-4.36-1.76-5.82s-2.54-2.19-4.11-2.19
					c-0.71,0-1.369,0.17-1.96,0.51c-0.59,0.35-1.119,0.87-1.6,1.56c0.15-2.77,0.49-4.61,1.05-5.52c0.55-0.91,1.25-1.37,2.09-1.37
					c1.28,0,2.011,0.91,2.19,2.72l3.72-0.5c-0.28-2.03-0.93-3.55-1.939-4.56c-1.021-1-2.271-1.5-3.761-1.5
					c-2.14,0-3.899,0.98-5.27,2.95c-1.37,1.97-2.061,5.19-2.061,9.66c0,4.41,0.66,7.57,1.98,9.47c1.32,1.91,2.98,2.86,4.98,2.86
					C642.56,349.5,644.09,348.77,645.32,347.3z M648.81,132.15c0,1-0.29,2-0.869,2.99c-0.391,0.67-1.431,1.97-3.131,3.9
					c-2.14,2.41-3.579,4.36-4.319,5.84c-0.75,1.49-1.19,3.05-1.34,4.69h13.5v-4.34H645c0.2-0.42,0.46-0.85,0.79-1.3
					c0.33-0.44,1.11-1.36,2.35-2.75c1.33-1.48,2.271-2.69,2.841-3.64c0.569-0.95,0.989-1.9,1.27-2.84c0.27-0.94,0.4-1.91,0.4-2.91
					c0-1.76-0.53-3.33-1.601-4.7c-1.069-1.36-2.66-2.05-4.77-2.05c-1.92,0-3.45,0.58-4.61,1.74c-1.15,1.16-1.84,2.98-2.08,5.45
					l3.811,0.5c0.14-2.54,1.069-3.81,2.779-3.81c0.79,0,1.42,0.27,1.91,0.81C648.57,130.28,648.81,131.09,648.81,132.15z
					 M534.39,241.57c1.17,1.45,2.521,2.18,4.04,2.18c0.74,0,1.41-0.17,2.011-0.52c0.6-0.34,1.14-0.85,1.619-1.53
					c-0.159,2.76-0.51,4.6-1.06,5.51c-0.54,0.9-1.25,1.35-2.1,1.35c-1.28,0-2-0.9-2.181-2.72l-3.72,0.5c0.28,2.07,0.91,3.61,1.9,4.6
					c0.979,1,2.239,1.5,3.75,1.5c2.18,0,3.96-0.98,5.33-2.95c1.369-1.96,2.05-5.19,2.05-9.67c0-4.41-0.65-7.56-1.971-9.47
					c-1.31-1.9-2.979-2.85-5-2.85c-1.819,0-3.34,0.74-4.579,2.21c-1.23,1.48-1.851,3.5-1.851,6.07
					C532.63,238.19,533.21,240.12,534.39,241.57z M630.8,125.04c-0.45,1.44-1.24,2.72-2.39,3.82c-1.141,1.11-2.25,1.88-3.32,2.31
					v4.25c1.88-0.76,3.54-1.95,4.97-3.56v17.71h3.841v-24.53H630.8z M639.6,352.58c-63.369,0-114.92-51.56-114.92-114.93
					S576.23,122.72,639.6,122.72c30.7,0,59.57,11.95,81.271,33.66c21.71,21.71,33.67,50.57,33.67,81.27
					c0,30.69-11.96,59.55-33.67,81.26C699.17,340.62,670.3,352.58,639.6,352.58z M736.45,203.09l-5.2-12.99l-29.65,11.86l5.2,13
					L736.45,203.09z M725.35,295.97l5.2-13L700.9,271.11l-5.2,13L725.35,295.97z M691.46,184.62l17.79-23.73l-11.2-8.4l-17.79,23.73
					L691.46,184.62z M693.74,244.67v-14H652.93c-1.29-2.87-3.62-5.18-6.51-6.45v-63.8h-14v66.34c-2.39,2.31-3.88,5.55-3.88,9.15
					c0,7.05,5.72,12.76,12.76,12.76c3.65,0,6.95-1.53,9.271-4H693.74z M585.81,329.59l17.801-23.72l-11.2-8.4l-17.8,23.72
					L585.81,329.59z M596.49,176.85l-17.79-23.73l-11.2,8.4l17.79,23.73L596.49,176.85z M582.27,280.12l-5.199-12.99l-29.65,11.86
					l5.2,13L582.27,280.12z M569.96,215.59l5.2-13l-29.67-11.87l-5.2,13L569.96,215.59z"/>
				<path style="fill:#231F20;" d="M631.58,682.71c2.24,1.47,4.31,2.8,6.18,3.98c-3.92-2.471-8.81-2.841-13.06-0.98L631.58,682.71z"
					/>
				<path style="fill:#231F20;" d="M620.12,715.12l-0.43-6.78c1.35,0.891,2.409,1.58,3.159,2.05c3.92,2.46,8.811,2.83,13.051,0.98
					l6.31-2.75l0.79,12.1l-9.08,3.96C629.52,721.65,624.89,718.44,620.12,715.12z"/>
				<path style="fill:#231F20;" d="M621.56,737.36l0.37-0.021l0.311,4.8c-20.38-14.06-91.311-63.29-103.51-75.47
					c-9.78-9.8-13.87-22.25-13.87-33.97c0-3.22,0.31-6.38,0.899-9.42c3.74,2.489,5.82,3.87,5.95,3.95l0.25-0.381
					c2.59,3.511,8.021,8.601,15.16,14.57c1.189,3.6,3.24,7.17,6.46,10.4c7.729,7.72,50.87,38.5,86.54,63.3L621.56,737.36z"/>
				<polygon style="fill:#231F20;" points="603.61,305.87 585.81,329.59 574.61,321.19 592.41,297.47 				"/>
				
					<rect x="567.166" y="162.185" transform="matrix(-0.5998 -0.8001 0.8001 -0.5998 795.7302 736.3351)" style="fill:#231F20;" width="29.658" height="14"/>
				<polygon style="fill:#231F20;" points="577.07,267.13 582.27,280.12 552.62,291.99 547.42,278.99 				"/>
				
					<rect x="550.724" y="187.177" transform="matrix(0.3714 -0.9285 0.9285 0.3714 161.9608 645.5348)" style="fill:#231F20;" width="14.002" height="31.956"/>
				<polygon style="fill:#231F20;" points="558.27,404.1 562.21,424.73 507.29,435.22 507.91,427.23 486.97,425.61 485.91,439.31 
					429.82,450.03 425.88,429.41 				"/>
				<path style="fill:#A3D9FF;" d="M536.41,235.76c0-1.57,0.24-2.7,0.71-3.37c0.47-0.68,1.06-1.01,1.77-1.01
					c0.73,0,1.391,0.41,1.971,1.22c0.569,0.82,0.859,2,0.859,3.53c0,1.39-0.26,2.44-0.77,3.14c-0.521,0.69-1.141,1.04-1.86,1.04
					c-0.76,0-1.39-0.36-1.91-1.09C536.67,238.49,536.41,237.33,536.41,235.76z"/>
				<path style="fill:#231F20;" d="M533.61,573.44c2.39-1.08,4.8-2.07,7.229-2.96l1.63,1.039l-15.08,23.591l-13.399-8.561
					C518.62,581.6,525.13,577.26,533.61,573.44z"/>
				<path style="fill:#231F20;" d="M540.84,570.48c-2.43,0.89-4.84,1.88-7.229,2.96c-8.48,3.819-14.99,8.159-19.62,13.109
					l-290.6-185.67c-6.62-4.5-12.49-8.49-17.47-11.92c5.45-1.39,10.19-3.1,13.68-5.05l13.18-1.47l-1.05-9.46l247.12,157.89
					l-1.81,23.42l20.94,1.62l0.939-12.21L540.84,570.48z"/>
				<path style="fill:#231F20;" d="M537.18,239.22c0.521,0.73,1.15,1.09,1.91,1.09c0.72,0,1.34-0.35,1.86-1.04
					c0.51-0.7,0.77-1.75,0.77-3.14c0-1.53-0.29-2.71-0.859-3.53c-0.58-0.81-1.24-1.22-1.971-1.22c-0.71,0-1.3,0.33-1.77,1.01
					c-0.47,0.67-0.71,1.8-0.71,3.37C536.41,237.33,536.67,238.49,537.18,239.22z M546.03,239.82c0,4.48-0.681,7.71-2.05,9.67
					c-1.37,1.97-3.15,2.95-5.33,2.95c-1.511,0-2.771-0.5-3.75-1.5c-0.99-0.99-1.62-2.53-1.9-4.6l3.72-0.5
					c0.181,1.82,0.9,2.72,2.181,2.72c0.85,0,1.56-0.45,2.1-1.35c0.55-0.91,0.9-2.75,1.06-5.51c-0.479,0.68-1.02,1.19-1.619,1.53
					c-0.601,0.35-1.271,0.52-2.011,0.52c-1.52,0-2.87-0.73-4.04-2.18c-1.18-1.45-1.76-3.38-1.76-5.79c0-2.57,0.62-4.59,1.851-6.07
					c1.239-1.47,2.76-2.21,4.579-2.21c2.021,0,3.69,0.95,5,2.85C545.38,232.26,546.03,235.41,546.03,239.82z"/>
				<path d="M534.85,610.73l0.011,0.01c0,0,0,0,0.01,0.01c0,0.01,0,0.01,0.01,0.02c7.14,8.99,66.69,52.271,96.7,71.94l-6.88,3
					c4.25-1.86,9.14-1.49,13.06,0.98c-1.87-1.181-3.939-2.511-6.18-3.98l79.24-34.59c8.439,4.62,16.91,8.99,25.35,12.83v6.649
					l-93.96,41.021l-0.7-10.811l-22.41,1.45l0.591,9.08c-15.181-9.96-65.851-44.59-92.57-66.92c-2.63-8-1-16.12,1.56-20.85
					c0.86-1.59,1.271-3.311,1.271-5c0-1.86-0.5-3.7-1.431-5.311l5.641-0.75C534.34,609.87,534.57,610.28,534.85,610.73z"/>
				<path style="fill:#231F20;" d="M528.52,610.26c-0.789-1.35-1.89-2.54-3.26-3.439l1.931-2.91c-5.73-3.8-11.58-7.69-17.551-11.66
					c1.19-1.99,2.641-3.89,4.351-5.7l13.399,8.561l15.08-23.591l-1.63-1.039c37.73-14.04,79.561-6.761,130.84,22.59l20.2,11.819
					c19.09,11.28,38.83,22.95,57.601,31.351c5.05,2.27,8.3,7.3,8.27,12.85c0,1.351-0.2,2.66-0.58,3.91v-0.84l-3.07-7.42
					c-1.899-1.9-4.529-3.08-7.43-3.08c-5.8,0-10.5,4.7-10.5,10.5v8.63c-3.979-2.57-6.439-7.01-6.42-11.84
					c0.03-5.54,3.32-10.54,8.4-12.76l-27.33,11.93c-11.17-6.11-22.28-12.68-33.19-19.13l-19.86-11.62
					c-46.75-26.76-81.5-32.44-112.659-18.4c-10.57,4.761-11.69,8.15-11.7,8.181c-0.05,0.13,0.01,0.909,0.75,2.359L528.52,610.26z"/>
				<path style="fill:#231F20;" d="M528.52,610.26c0.931,1.61,1.431,3.45,1.431,5.311c0,1.689-0.41,3.41-1.271,5
					c-2.56,4.729-4.189,12.85-1.56,20.85c-7.14-5.97-12.57-11.06-15.16-14.57l13.3-20.029
					C526.63,607.72,527.73,608.91,528.52,610.26z"/>
				<path style="fill:#231F20;" d="M527.19,603.91l-1.931,2.91c-0.26-0.181-0.529-0.34-0.81-0.49c-5.101-2.75-11.48-0.86-14.24,4.24
					c-1.18,2.18-2.18,4.529-2.979,7.02c-2.681-7.63-1.98-14.04-0.641-18.49c0.72-2.39,1.73-4.67,3.05-6.85
					C515.61,596.22,521.46,600.11,527.19,603.91z"/>
				<path style="fill:#231F20;" d="M525.26,606.82l-13.3,20.029c-0.26-0.35-0.49-0.689-0.69-1.01c-1.819-2.87-3.13-5.63-4.039-8.25
					c0.8-2.49,1.8-4.84,2.979-7.02c2.76-5.101,9.14-6.99,14.24-4.24C524.73,606.48,525,606.64,525.26,606.82z"/>
				<path style="fill:#231F20;" d="M511.96,626.85l-0.25,0.381c-0.13-0.08-2.21-1.461-5.95-3.95c0.37-1.96,0.86-3.86,1.471-5.69
					c0.909,2.62,2.22,5.38,4.039,8.25C511.47,626.16,511.7,626.5,511.96,626.85z"/>
				<polygon style="fill:#231F20;" points="507.91,427.23 507.29,435.22 485.91,439.31 486.97,425.61 				"/>
				<polygon style="fill:#231F20;" points="485.91,439.31 507.29,435.22 498.92,543.7 478.85,530.87 				"/>
				<path style="fill:#231F20;" d="M509.64,592.25c-1.319,2.18-2.33,4.46-3.05,6.85c-1.34,4.45-2.04,10.86,0.641,18.49
					c-0.61,1.83-1.101,3.73-1.471,5.69c-19.609-13.021-84.75-56.29-151.96-101.15l-1.21-23.7c-0.24-4.67-2.74-8.699-6.4-11.06
					l1.85-2.75C401.01,520.01,459.21,558.76,509.64,592.25z"/>
				<polygon style="fill:#231F20;" points="498.92,543.7 497.98,555.91 477.04,554.29 478.85,530.87 				"/>
				<path style="fill:#231F20;" d="M357.12,586.98c0.4,7.72-5.54,14.3-13.26,14.699c-0.24,0.011-0.48,0.021-0.72,0.021
					c-7.4,0-13.59-5.811-13.98-13.29l-4.38-85.66c6.13,4.1,12.5,8.36,19.13,12.78c3.3,2.2,6.6,4.399,9.89,6.6L357.12,586.98z"/>
				<path style="fill:#231F20;" d="M352.59,498.43l1.21,23.7c-3.29-2.2-6.59-4.399-9.89-6.6c-6.63-4.42-13-8.681-19.13-12.78
					l-0.15-2.89c-0.4-7.721,5.54-14.301,13.26-14.7c0.24-0.01,0.48-0.021,0.72-0.021c2.78,0,5.39,0.82,7.58,2.23
					C349.85,489.73,352.35,493.76,352.59,498.43z"/>
				<path style="fill:#231F20;" d="M312.27,460.69c11.54,7.729,23.51,15.739,35.77,23.93l-1.85,2.75c-2.19-1.41-4.8-2.23-7.58-2.23
					c-0.24,0-0.48,0.011-0.72,0.021c-7.72,0.399-13.66,6.979-13.26,14.7l0.15,2.89c-10.56-7.06-20.4-13.64-29.57-19.78
					c0.55-0.02,1.1-0.04,1.64-0.06c7.58-0.24,13.57-6.45,13.57-13.98c0-0.14-0.01-0.29-0.01-0.439c-0.14-4.74-2.63-8.86-6.31-11.28
					l0.92-1.37C307.42,457.44,309.83,459.06,312.27,460.69z"/>
				<path style="fill:#231F20;" d="M310.41,468.49c0,0.149,0.01,0.3,0.01,0.439c0,7.53-5.99,13.74-13.57,13.98
					c-0.54,0.02-1.09,0.04-1.64,0.06c-13.73-9.189-25.95-17.39-36.84-24.71c3.38-0.529,7.17-1.029,11.43-1.49
					c13.46-1.449,25.68-1.829,26.19-1.85c2.99-0.09,5.79,0.76,8.11,2.29C307.78,459.63,310.27,463.75,310.41,468.49z"/>
				<path style="fill:#231F20;" d="M305.02,455.84l-0.92,1.37c-2.32-1.53-5.12-2.38-8.11-2.29c-0.51,0.021-12.73,0.4-26.19,1.85
					c-4.26,0.461-8.05,0.961-11.43,1.49c-42.09-28.29-64.23-43.38-76.06-51.62c0.45-0.06,0.89-0.12,1.34-0.19
					c5.21-0.79,8.94-5.27,8.94-10.38c0-0.52-0.04-1.04-0.12-1.57c-0.15-1.02-0.45-1.98-0.86-2.87c4.73-0.61,9.29-1.44,13.45-2.46
					l18.33,11.71C244.28,415.06,272.72,434.2,305.02,455.84z"/>
				<path style="fill:#231F20;" d="M249.02,489.28c0.09-0.05,0.18-0.101,0.28-0.15c-5.35,5.37-11.12,12.22-9.95,43.53
					c0.85,22.87,2.05,43.04,3.04,57.55c0.99,14.5,1.77,23.33,1.78,23.5c0.69,7.7-5,14.5-12.7,15.19c-0.42,0.04-0.85,0.06-1.26,0.06
					c-7.17,0-13.28-5.479-13.93-12.76c-0.03-0.351-3.18-35.99-4.91-82.5c-1.39-37.311,5.8-52.061,18.68-64.92
					c3.8-3.811,10.04-7.66,28.32-10.521c10.89,7.32,23.11,15.521,36.84,24.71c-19.86,0.721-40.68,3.521-45.91,6.16
					c0.1-0.1,0.21-0.21,0.31-0.31C249.34,489.05,249.13,489.21,249.02,489.28z"/>
				<path style="fill:#231F20;" d="M265.46,277.88l1.21,20.96l-42.88,2.47l-0.55-4.96l-20.87,2.32l0.43,3.85l-45.19,2.6h-0.01
					c-0.43-0.28-0.69-0.45-0.76-0.5c-0.86-0.56-1.77-1.01-2.72-1.37l-1.09-18.91L265.46,277.88z"/>
				<path style="fill:#231F20;" d="M249.61,488.82c-0.1,0.1-0.21,0.21-0.31,0.31c-0.1,0.05-0.19,0.101-0.28,0.15
					C249.13,489.21,249.34,489.05,249.61,488.82z"/>
				<path style="fill:#231F20;" d="M231.73,372.98l1.05,9.46l-13.18,1.47c0.53-0.3,1.04-0.6,1.51-0.91
					c5.5-3.59,7.68-7.94,8.48-11.39L231.73,372.98z"/>
				<path style="fill:#231F20;" d="M214.54,345.62c10.04,8.37,15.47,14.4,15.47,22.31c0,1-0.1,2.27-0.42,3.68L209,358.46l-2.1-18.95
					C209.76,341.73,212.32,343.76,214.54,345.62z"/>
				<path style="fill:#231F20;" d="M223.79,301.31l7.94,71.67l-2.14-1.37c0.32-1.41,0.42-2.68,0.42-3.68
					c0-7.91-5.43-13.94-15.47-22.31c-2.22-1.86-4.78-3.89-7.64-6.11l-4.1-36.99L223.79,301.31z"/>
				<path style="fill:#231F20;" d="M209,358.46l20.59,13.15c-0.8,3.45-2.98,7.8-8.48,11.39c-0.47,0.31-0.98,0.61-1.51,0.91
					l-7.69,0.85L209,358.46z"/>
				<polygon style="fill:#231F20;" points="223.24,296.35 223.79,301.31 202.8,302.52 202.37,298.67 				"/>
				<path style="fill:#231F20;" d="M223.39,400.88l-18.33-11.71c0.29-0.07,0.58-0.14,0.86-0.21
					C210.9,392.39,216.77,396.38,223.39,400.88z"/>
				<path style="fill:#231F20;" d="M202.01,367.93c0-4.54,2.57-7.61,3.81-8.39c-0.7,0.44-1.69,0.87-2.89,1.29l2.83-4.44l3.24,2.07
					l2.91,26.3l7.69-0.85c-3.49,1.95-8.23,3.66-13.68,5.05c-6.33-4.35-11.25-7.77-14.51-10.09l6.71-10.52
					c2.59,2.19,4.43,3.96,5.32,5.14C203.15,373.02,202.01,371.04,202.01,367.93z"/>
				<path style="fill:#231F20;" d="M205.92,388.96c-0.28,0.07-0.57,0.14-0.86,0.21l-14.37-9.18l0.72-1.12
					C194.67,381.19,199.59,384.61,205.92,388.96z"/>
				<path style="fill:#231F20;" d="M205.82,359.54c-1.24,0.78-3.81,3.85-3.81,8.39c0,3.11,1.14,5.09,1.43,5.56
					c-0.89-1.18-2.73-2.95-5.32-5.14l4.8-7.52h0.01C204.13,360.41,205.12,359.98,205.82,359.54z"/>
				<path style="fill:#231F20;" d="M198.12,368.35c-1.75-1.49-3.84-3.18-6.2-5.03c4.4-0.68,8.27-1.54,11-2.49L198.12,368.35z"/>
				<path style="fill:#231F20;" d="M187.32,375.83c0.08,0.07,0.26,0.23,0.49,0.45l-9.72,9.72c-15.64,1.81-32.74-1.4-45.53-5.16
					c-12.95-8.82-29.44-22.49-41.84-33.19v-11.67l26.56-2.52c15.81,13.29,32.22,26.14,39.32,29.27c6.79,2.99,23.08,2.49,35.32,0.59
					c2.36,1.85,4.45,3.54,6.2,5.03l-6.71,10.52C189.38,377.41,188,376.39,187.32,375.83z"/>
				<path style="fill:#231F20;" d="M192.47,394.5c0.08,0.53,0.12,1.05,0.12,1.57c0,5.11-3.73,9.59-8.94,10.38
					c-0.45,0.07-0.89,0.13-1.34,0.19c-12.31-8.58-13.45-9.72-14.3-10.56l3.28-3.28c6.69,0.11,13.67-0.31,20.32-1.17
					C192.02,392.52,192.32,393.48,192.47,394.5z"/>
				<path style="fill:#231F20;" d="M180.52,385.68c4.71-0.71,9.17,1.83,11.09,5.95c-6.65,0.86-13.63,1.28-20.32,1.17l6.8-6.8
					C178.9,385.91,179.71,385.8,180.52,385.68z"/>
				<path style="fill:#231F20;" d="M178.09,386l9.72-9.72c-0.23-0.22-0.41-0.38-0.49-0.45c0.68,0.56,2.06,1.58,4.09,3.04l-0.72,1.12
					l14.37,9.18c-4.16,1.02-8.72,1.85-13.45,2.46c-1.92-4.12-6.38-6.66-11.09-5.95C179.71,385.8,178.9,385.91,178.09,386z"/>
				<path style="fill:#231F20;" d="M145.32,388.36c6.59,2.9,15.95,4.27,25.97,4.44l-3.28,3.28c0.85,0.84,1.99,1.98,14.3,10.56
					c-31.21,4.22-66.47-7.96-77.95-14.28c-2.71-1.49-5.3-2.84-7.81-4.16c-13.8-7.22-26.83-14.04-26.83-30.08v-32.91
					c0.55,2.94,2.05,5.69,4.36,7.78c2.71,2.44,8.87,7.97,16.64,14.66v10.47c0,3.01,4.74,5.81,15.57,11.48
					c2.6,1.36,5.3,2.77,8.2,4.37c3.05,1.68,9.63,4.39,18.07,6.87C137.45,384.19,141.84,386.83,145.32,388.36z"/>
				<path style="fill:#231F20;" d="M157.6,305.12l-3.36,0.19l-0.12-2.06c0.95,0.36,1.86,0.81,2.72,1.37
					C156.91,304.67,157.17,304.84,157.6,305.12z"/>
				<path style="fill:#231F20;" d="M132.56,380.84c12.79,3.76,29.89,6.97,45.53,5.16l-6.8,6.8c-10.02-0.17-19.38-1.54-25.97-4.44
					C141.84,386.83,137.45,384.19,132.56,380.84z"/>
				<path style="fill:#231F20;" d="M150.55,330.31l-4.87,0.46c-1.36-0.9-2.72-1.78-4.06-2.65
					C144.26,329.83,147.41,330.6,150.55,330.31z"/>
				<path style="fill:#231F20;" d="M96.76,327c1.74-5.27,0.21-11.07-3.91-14.79c6.77,6.11,15.5,13.75,24.43,21.25l-26.56,2.52v-1.41
					C93.51,332.88,95.69,330.22,96.76,327z"/>
				<path style="fill:#231F20;" d="M90.72,334.57v1.41l-5.93,0.56C86.93,336.34,88.95,335.65,90.72,334.57z"/>
				<path style="fill:#231F20;" d="M90.72,347.65c-7.77-6.69-13.93-12.22-16.64-14.66c-2.31-2.09-3.81-4.84-4.36-7.78v-3.78
					c0-5.8,4.7-10.5,10.5-10.5c2.9,0,5.52,1.17,7.42,3.07l3.08,7.43v13.14c-1.77,1.08-3.79,1.77-5.93,1.97l5.93-0.56V347.65z"/>
				<path style="fill:#231F20;" d="M70.18,318.19c1.75-5.27,6.44-9,11.97-9.53l65.76-6.23c2.11-0.2,4.24,0.09,6.21,0.82l0.12,2.06
					l3.36-0.19h0.01c3.52,2.3,18.2,11.91,33.11,22.5c6.16,4.37,11.57,8.35,16.18,11.89l2.1,18.95l-3.24-2.07l-2.83,4.44h-0.01
					c-2.73,0.95-6.6,1.81-11,2.49c-11.51-8.96-29.5-21.57-46.24-32.55l4.87-0.46c-3.14,0.29-6.29-0.48-8.93-2.19
					c1.34,0.87,2.7,1.75,4.06,2.65l-28.4,2.69c-8.93-7.5-17.66-15.14-24.43-21.25c4.12,3.72,5.65,9.52,3.91,14.79
					c-1.07,3.22-3.25,5.88-6.04,7.57v-13.14L87.64,314c-1.9-1.9-4.52-3.07-7.42-3.07c-5.8,0-10.5,4.7-10.5,10.5v3.78
					C69.28,322.92,69.41,320.5,70.18,318.19z"/>
			</g>
			<g>
			</g>
		</g>
	</g>
</g>
<rect style="fill:none;" width="850.394" height="850.394"/>
</svg>
