<?xml version="1.0" encoding="iso-8859-1"?>
<!-- Generator: Adobe Illustrator 12.0.1, SVG Export Plug-In . SVG Version: 6.00 Build 51448)  -->
<!DOCTYPE svg PUBLIC "-//W3C//DTD SVG 1.1//EN" "http://www.w3.org/Graphics/SVG/1.1/DTD/svg11.dtd" [
	<!ENTITY ns_svg "http://www.w3.org/2000/svg">
	<!ENTITY ns_xlink "http://www.w3.org/1999/xlink">
]>
<svg  version="1.1" id="Layer_1" xmlns="&ns_svg;" xmlns:xlink="&ns_xlink;" width="850.394" height="850.394"
	 viewBox="0 0 850.394 850.394" style="overflow:visible;enable-background:new 0 0 850.394 850.394;" xml:space="preserve">
<g>
	<g id="XMLID_7_">
		<g>
			<path style="fill:#FFFFC2;" d="M412.63,681.7c0.59,2.06,0.54,3.899,0,5.55c-4,12.02-34.59,13.51-34.59,13.51
				s-94.51,9.53-133.44,15.09c-38.91,5.561-49.49,12.971-54,17.48c-13.9,13.89-31,15.72-42.89,13.49
				c-17.59-3.271-30.98-17.46-48.67-60.561c-15.67-38.18-12.39-66.79,1.02-85.26c0.01-0.01,0.01-0.01,0.01-0.01
				c1.72-2.37,3.61-4.57,5.64-6.601c6.89-6.88,18.86-8.12,29.44-7.87l2.72,1.49c6.46,24.63,18.62,49.84,18.62,49.84
				c14.32,26.181,26.59,37.53,48.43,42.061c30.61,6.35,50.29-7.28,67.76-20c10.92-7.97,71.01-14.83,120.71-18.86l0.11,1.34
				C402.68,659.18,410.58,674.57,412.63,681.7z"/>
			<path style="fill:#FFFFC2;" d="M472.65,586.22c0.59,2.061,0.55,3.9,0,5.55c-4,12.021-34.58,13.511-34.58,13.511
				s-94.521,9.529-133.44,15.09c-38.92,5.56-49.51,12.979-54.02,17.479c-13.89,13.9-30.99,15.721-42.88,13.49
				c-17.58-3.27-30.98-17.47-48.67-60.56c-15.67-38.181-12.39-66.8,1.02-85.261c0.01-0.01,0.01-0.01,0.01-0.01
				c1.72-2.37,3.61-4.569,5.64-6.6c12.29-12.29,40.77-6.57,48.67-6.57c7.91,0,133.28-22.25,158.65-29.58
				c25.37-7.31,37.51,6.7,46.71,24C428.96,504.08,467.72,569.08,472.65,586.22z"/>
			<path style="fill:#FFFFC2;" d="M561.05,455.62c-5.729,3.75-12.92,6.45-21.7,6.45c-32.72,0-67.8-12.811-99.08-21.141
				c-12.26-3.26-32.049-7.92-44.04-12.63c-25.49-10.03-27.18-39.44-27.58-55.91c-0.35-14.44,0.71-29.25,0.31-43.84
				c-0.83-30.4,0.55-65.73-9.9-94.76c-10.19-28.32-11.98-63.08,8.05-77.9c2.9-2.15,6.26-3.88,10.11-5.11
				c30.48-9.72,119.669-10.05,173.799,44.1c30.48,30.48,35.021,53.18,35.021,99.87c0,3.17-0.15,8.61-0.41,15.56
				c-1.42,38.51-6.09,123.23-6.09,123.23S573.95,447.21,561.05,455.62z"/>
			<path style="fill:#F6CC4B;" d="M776.71,294.75c0,60.97,2.59,49.94-14.92,59.02c-2.95,1.52-18.271,9.31-39.39,20.03l-0.521-1.03
				c0,0,2.17-87.21,2.88-127.68l35.08-16.49C759.84,240.28,776.71,220.82,776.71,294.75z"/>
			<path style="fill:#F6CC4B;" d="M631.36,288.99l49.31-23.18c-1.5,44.18-5.29,128.8-5.29,128.8l1.23,2.43
				c-16.48,8.35-33.591,17.03-49.641,25.17l-1.5-2.95C625.47,419.26,629.75,332.73,631.36,288.99z"/>
			<path style="fill:#F6CC4B;" d="M680.67,265.81l44.09-20.72c-0.71,40.47-2.88,127.68-2.88,127.68l0.521,1.03
				c-13.471,6.84-29.311,14.88-45.79,23.24l-1.23-2.43C675.38,394.61,679.17,309.99,680.67,265.81z"/>
			<path style="fill:#F6CC4B;" d="M585.97,310.32l45.391-21.33c-1.61,43.74-5.891,130.27-5.891,130.27l1.5,2.95
				c-28.529,14.45-53.689,27.21-65.92,33.41c12.9-8.41,18.49-22.08,18.49-22.08s4.67-84.72,6.09-123.23L585.97,310.32z"/>
			<path style="fill:#FAA41F;" d="M160.08,505.52c-13.41,18.461-16.69,47.08-1.02,85.261c17.69,43.09,31.09,57.29,48.67,60.56
				c11.89,2.23,28.99,0.41,42.88-13.49c4.51-4.5,15.1-11.92,54.02-17.479c38.92-5.561,133.44-15.09,133.44-15.09
				s30.58-1.49,34.58-13.511c0.319,1.311,11.029,45.48-13.94,45.48c-9.5,0-35.54,1.39-65.32,3.8
				c-49.7,4.03-109.79,10.891-120.71,18.86c-17.47,12.72-37.15,26.35-67.76,20c-21.84-4.53-34.11-15.88-48.43-42.061
				c0,0-12.16-25.21-18.62-49.84c-2.89-11.02-4.64-21.92-3.65-30.39C137.03,533.72,158.07,507.94,160.08,505.52z"/>
			<path style="fill:#FAA41F;" d="M100.06,601c-13.41,18.47-16.69,47.08-1.02,85.26c17.69,43.101,31.08,57.29,48.67,60.561
				c11.89,2.229,28.99,0.399,42.89-13.49c4.51-4.51,15.09-11.92,54-17.48c38.93-5.56,133.44-15.09,133.44-15.09
				s30.59-1.49,34.59-13.51c0.32,1.31,11.03,45.49-13.94,45.49c-25.34,0-168.57,9.91-186.04,22.64
				c-17.46,12.73-37.14,26.351-67.75,20.01c-21.84-4.529-34.1-15.88-48.42-42.069c0,0-25.49-52.82-22.28-80.221
				C77,629.2,98.05,603.42,100.06,601z"/>
			<path style="fill:#FAA41F;" d="M681.27,242.39c0,4.1-0.229,12.53-0.6,23.42l-49.31,23.18c0.38-10.18,0.609-18.04,0.609-21.96
				c0-46.69-4.55-69.39-35.01-99.87c-54.16-54.14-144.34-57.34-174.81-47.62l-0.79-1.36c14.28-8.32,30.6-16.62,47.98-23.3l0.44,1.14
				c30.47-9.73,122.33-7.65,176.46,46.49C676.72,173,681.27,195.7,681.27,242.39z"/>
			<path style="fill:#FAA41F;" d="M724.97,227.83c0,3.36-0.08,9.43-0.21,17.26l-44.09,20.72c0.37-10.89,0.6-19.32,0.6-23.42
				c0-46.69-4.55-69.39-35.029-99.88c-54.13-54.14-145.99-56.22-176.46-46.49l-0.44-1.14c10.9-4.19,22.21-7.74,33.7-10.25
				c14.13-3.08,27.69-5.61,40.729-7.52c40.86-1.72,104.41,9.07,146.181,50.84C720.42,158.43,724.97,181.13,724.97,227.83z"/>
			<path style="fill:#FAA41F;" d="M367.11,155.89c0,0,21.89-18.87,54.25-37.71l0.79,1.36c30.47-9.72,120.65-6.52,174.81,47.62
				c30.46,30.48,35.01,53.18,35.01,99.87c0,3.92-0.229,11.78-0.609,21.96l-45.391,21.33l-0.34-0.01c0.26-6.95,0.41-12.39,0.41-15.56
				c0-46.69-4.54-69.39-35.021-99.87c-54.13-54.15-143.319-53.82-173.799-44.1C373.37,152.01,370.01,153.74,367.11,155.89z"/>
			<path style="fill:#FAA41F;" d="M768.93,181.91c0,37.62-9.09,35.02-9.09,46.69l-35.08,16.49c0.13-7.83,0.21-13.9,0.21-17.26
				c0-46.7-4.55-69.4-35.02-99.88C648.18,86.18,584.63,75.39,543.77,77.11c52.801-7.74,96.921-5.49,134.36,10.12
				C724.83,106.68,768.93,144.3,768.93,181.91z"/>
		</g>
		<g>
			<path style="fill:none;stroke:#231F20;stroke-width:14;" d="M100.06,601c-13.41,18.47-16.69,47.08-1.02,85.26
				c17.69,43.101,31.08,57.29,48.67,60.561c11.89,2.229,28.99,0.399,42.89-13.49c4.51-4.51,15.09-11.92,54-17.48
				c38.93-5.56,133.44-15.09,133.44-15.09s30.59-1.49,34.59-13.51c0.54-1.65,0.59-3.49,0-5.55c-2.05-7.13-9.95-22.521-19.13-39.311"
				/>
			<path style="fill:none;stroke:#231F20;stroke-width:14;" d="M135.15,586.52c-10.58-0.25-22.55,0.99-29.44,7.87
				c-2.03,2.03-3.92,4.23-5.64,6.601"/>
			<path style="fill:none;stroke:#231F20;stroke-width:14;" d="M412.62,687.22c0,0,0,0.011,0.01,0.03
				c0.32,1.31,11.03,45.49-13.94,45.49c-25.34,0-168.57,9.91-186.04,22.64c-17.46,12.73-37.14,26.351-67.75,20.01
				c-21.84-4.529-34.1-15.88-48.42-42.069c0,0-25.49-52.82-22.28-80.221C77,629.2,98.05,603.42,100.06,601
				c0.01-0.01,0.01-0.01,0.01-0.01c0.1-0.12,0.15-0.181,0.15-0.181"/>
			<path style="fill:none;stroke:#231F20;stroke-width:14;" d="M561.05,455.62c-5.729,3.75-12.92,6.45-21.7,6.45
				c-32.72,0-67.8-12.811-99.08-21.141c-12.26-3.26-32.049-7.92-44.04-12.63c-25.49-10.03-27.18-39.44-27.58-55.91
				c-0.35-14.44,0.71-29.25,0.31-43.84c-0.83-30.4,0.55-65.73-9.9-94.76c-10.19-28.32-11.98-63.08,8.05-77.9
				c2.9-2.15,6.26-3.88,10.11-5.11c30.48-9.72,119.669-10.05,173.799,44.1c30.48,30.48,35.021,53.18,35.021,99.87
				c0,3.17-0.15,8.61-0.41,15.56c-1.42,38.51-6.09,123.23-6.09,123.23S573.95,447.21,561.05,455.62z"/>
			<path style="fill:none;stroke:#231F20;stroke-width:7;" d="M422.15,119.54c30.47-9.72,120.65-6.52,174.81,47.62
				c30.46,30.48,35.01,53.18,35.01,99.87c0,3.92-0.229,11.78-0.609,21.96c-1.61,43.74-5.891,130.27-5.891,130.27"/>
			<path style="fill:none;stroke:#231F20;stroke-width:7;" d="M469.78,96.02c30.47-9.73,122.33-7.65,176.46,46.49
				C676.72,173,681.27,195.7,681.27,242.39c0,4.1-0.229,12.53-0.6,23.42c-1.5,44.18-5.29,128.8-5.29,128.8"/>
			<path style="fill:none;stroke:#231F20;stroke-width:7;" d="M514.59,81.45c6.96-2.23,17.08-3.83,29.18-4.34
				c40.86-1.72,104.41,9.07,146.181,50.84c30.47,30.48,35.02,53.18,35.02,99.88c0,3.36-0.08,9.43-0.21,17.26
				c-0.71,40.47-2.88,127.68-2.88,127.68"/>
			<path style="fill:none;stroke:#231F20;stroke-width:14;" d="M367.11,155.89c0,0,21.89-18.87,54.25-37.71
				c14.28-8.32,30.6-16.62,47.98-23.3c10.9-4.19,22.21-7.74,33.7-10.25c14.13-3.08,27.69-5.61,40.729-7.52
				c52.801-7.74,96.921-5.49,134.36,10.12c46.7,19.45,90.8,57.07,90.8,94.68c0,37.62-9.09,35.02-9.09,46.69
				c0,11.68,16.87-7.78,16.87,66.15c0,60.97,2.59,49.94-14.92,59.02c-2.95,1.52-18.271,9.31-39.39,20.03
				c-13.471,6.84-29.311,14.88-45.79,23.24c-16.48,8.35-33.591,17.03-49.641,25.17c-28.529,14.45-53.689,27.21-65.92,33.41
				c-5.01,2.53-7.85,3.97-7.85,3.97"/>
			<polyline style="fill:none;stroke:#231F20;stroke-width:14;" points="759.84,228.6 724.76,245.09 680.67,265.81 631.36,288.99 
				585.97,310.32 			"/>
			<path style="fill:none;stroke:#231F20;stroke-width:14;" d="M160.08,505.52c-13.41,18.461-16.69,47.08-1.02,85.261
				c17.69,43.09,31.09,57.29,48.67,60.56c11.89,2.23,28.99,0.41,42.88-13.49c4.51-4.5,15.1-11.92,54.02-17.479
				c38.92-5.561,133.44-15.09,133.44-15.09s30.58-1.49,34.58-13.511c0.55-1.649,0.59-3.489,0-5.55
				c-4.931-17.14-43.69-82.14-52.891-99.46c-9.2-17.3-21.34-31.31-46.71-24c-25.37,7.33-150.74,29.58-158.65,29.58
				c-7.9,0-36.38-5.72-48.67,6.57c-2.03,2.03-3.92,4.229-5.64,6.6"/>
			<path style="fill:none;stroke:#231F20;stroke-width:14;" d="M472.64,591.74c0,0,0,0.01,0.011,0.029
				c0.319,1.311,11.029,45.48-13.94,45.48c-9.5,0-35.54,1.39-65.32,3.8c-49.7,4.03-109.79,10.891-120.71,18.86
				c-17.47,12.72-37.15,26.35-67.76,20c-21.84-4.53-34.11-15.88-48.43-42.061c0,0-12.16-25.21-18.62-49.84
				c-2.89-11.02-4.64-21.92-3.65-30.39c2.81-23.9,23.85-49.68,25.86-52.101c0.01-0.01,0.01-0.01,0.01-0.01
				c0.1-0.12,0.15-0.18,0.15-0.18"/>
		</g>
	</g>
</g>
<rect style="fill:none;" width="850.394" height="850.394"/>
</svg>
