<svg xmlns="http://www.w3.org/2000/svg" width="850.394" height="850.394" viewBox="0 0 850.394 850.394" overflow="visible"><g fill="#9c5c25"><path d="M223.49 201.97c3.08-.44 6.22-.74 9.32-.95 17.55-1.17 34.11.81 34.11.81s48.31 1.14 113.55 2.88c48.12 1.28 105.47 2.89 159.419 4.62 91.851 2.94 173.891 6.22 183.92 8.78 23.9 6.11 20.681 42.23 20.681 42.23l-1.86 360.23-557.02 99.86-1.63-397.51c-.37-27.98-3.82-93.87 12.97-110.66 5.76-5.76 15.82-8.8 26.54-10.29z"/><path d="M223.49 201.97c-10.72 1.49-20.78 4.53-26.54 10.29-16.79 16.79-13.34 82.68-12.97 110.66l1.63 397.51-17.66 3.17-6.02-5.39.3-.34s-3.69-446.33-3.69-476.86c0-30.53 29.52-39.55 29.52-39.55v-.01c10.82-.08 22.83.04 35.43.52z"/><path d="M188.06 201.45v.01s-29.52 9.02-29.52 39.55c0 30.53 3.69 476.86 3.69 476.86l-.3.34-52.75-47.27-5.02-409.581s-2.61-50.87 34.02-58c0 .001 20.58-1.689 49.88-1.909z"/></g><g fill="none" stroke="#000"><path d="M185.61 720.44v-.011l-1.63-397.51c-.37-27.98-3.82-93.87 12.97-110.66 5.76-5.76 15.82-8.8 26.54-10.29 3.08-.44 6.22-.74 9.32-.95 17.55-1.17 34.11.81 34.11.81s48.31 1.14 113.55 2.88c48.12 1.28 105.47 2.89 159.419 4.62 91.851 2.94 173.891 6.22 183.92 8.78 23.9 6.11 20.681 42.23 20.681 42.23l-1.86 360.23-557.02 99.861-17.66 3.17-6.02-5.39-52.75-47.27-5.02-409.581s-2.61-50.87 34.02-58c0 0 20.58-1.69 49.88-1.91 10.82-.08 22.83.04 35.43.52h.12" stroke-width="21"/><path d="M188.06 201.46s-29.52 9.02-29.52 39.55c0 30.53 3.69 476.86 3.69 476.86" stroke-width="21"/><path d="M380.56 201.34s-1.14-60.67 14.44-60.67c39.18 0 124.19 4.6 124.19 4.6S540 139.22 540 206" stroke-width="28"/></g><path fill="none" d="M0 0h850.394v850.394H0z"/></svg>