<svg xmlns="http://www.w3.org/2000/svg" width="850.394" height="850.394" viewBox="0 0 850.394 850.394" overflow="visible"><path d="M532.45 429.17v69.14l-70.061 9.931V435.02c23.711-1.98 47.331-3.95 70.061-5.85z" fill="#fbed24"/><path d="M157.84 253.27C146.98 234 146.98 234 136.85 228.51c-16.37-8.87-27.25-6-39.48 5.3.7-15.4 5.13-72.14 32.31-63.09 10.97 3.65 19.28 22 26.44 54.7 0 0 .76 10.37 2.03 27.83l-.31.02z" fill="#f6cc4b"/><path d="M750.33 584.52s1.91 11.45.59 24.091h-.03l-509.45 83.54c0-44.94-20.11-237.521-20.11-237.521 42.36-3.17 142.4-11.399 241.06-19.61v73.221l70.061-9.931v-69.14c97.33-8.14 178.17-14.98 178.17-14.98s10.1-.92 20.83-3.62l5.3 2.58 13.579 171.37z" fill="#9c5c25"/><path d="M156.12 225.42c7.93 36.13 14.45 89.8 21.58 160.56 0 0 5.22 70.01 22.99 70.01 1.7 0 8.99-.49 20.64-1.36 0 0 20.11 192.58 20.11 237.521l509.45-83.54h.03c-1.439 13.819-6.72 29.069-22.54 32.34-30.3 6.27-519.33 86.729-519.33 86.729s-18.89 7.23-36.06-9.93c-18.55-18.55-58.37-25.67-58.37-25.67s-17.38 3.21-17.38-44.86V237.6s.02-1.4.13-3.79c12.23-11.3 23.11-14.17 39.48-5.3 10.13 5.49 10.13 5.49 20.99 24.76l.31-.02c-1.27-17.46-2.03-27.83-2.03-27.83z" fill="#9c5c25"/><path d="M720.02 189.53c13.641 32.59 36.57 187.05 36.57 203.76 0 8.88-12.97 14.23-25.14 17.28-10.73 2.7-20.83 3.62-20.83 3.62s-80.84 6.84-178.17 14.98c-22.73 1.9-46.351 3.87-70.061 5.85-98.66 8.211-198.7 16.44-241.06 19.61-11.65.87-18.94 1.36-20.64 1.36-17.77 0-22.99-70.01-22.99-70.01-7.13-70.76-13.65-124.43-21.58-160.56-7.16-32.7-15.47-51.05-26.44-54.7l203.25-2.75 196.39-2.67 140.55-1.9c.001 0 36.521-6.46 50.151 26.13z" fill="#9c5c25"/><g fill="none" stroke="#000" stroke-width="21"><path d="M156.12 225.42s.76 10.37 2.03 27.83c6.33 86.42 25.43 346.52 28.91 382.16 4.18 42.84 5.28 88.07 5.28 88.07M221.33 454.63s20.11 192.58 20.11 237.521l509.45-83.54M462.39 435.02v73.22l70.06-9.93v-69.14"/><path d="M313.02 129.97s5.15-.93 14.21-2.25c34.25-4.97 124.31-15.37 202.89-1.21 7.16 1.29 14.22 2.78 21.14 4.5M332.87 129.44v33.96" stroke-linecap="round" stroke-linejoin="round"/><path d="M529.32 131.01v34.23M129.68 170.72l203.25-2.75 196.39-2.67 140.55-1.9s36.52-6.46 50.149 26.13c13.641 32.59 36.57 187.05 36.57 203.76 0 8.88-12.97 14.23-25.14 17.28-10.73 2.7-20.83 3.62-20.83 3.62s-80.84 6.84-178.17 14.98c-22.73 1.9-46.351 3.87-70.061 5.85-98.66 8.211-198.7 16.44-241.06 19.61-11.65.87-18.94 1.36-20.64 1.36-17.77 0-22.99-70.01-22.99-70.01-7.13-70.76-13.65-124.43-21.58-160.56-7.158-32.7-15.468-51.05-26.438-54.7-27.18-9.05-31.61 47.69-32.31 63.09-.11 2.39-.13 3.79-.13 3.79v409.62c0 48.07 17.38 44.86 17.38 44.86s39.82 7.12 58.37 25.67c17.17 17.16 36.06 9.93 36.06 9.93s489.03-80.46 519.33-86.729c15.82-3.271 21.101-18.521 22.54-32.34 1.32-12.641-.59-24.091-.59-24.091l-13.58-171.37"/><path d="M97.37 233.81c12.23-11.3 23.11-14.17 39.48-5.3 10.13 5.49 10.13 5.49 20.99 24.76"/></g><path fill="none" d="M0 0h850.394v850.394H0z"/></svg>