<svg xmlns="http://www.w3.org/2000/svg" width="850.394" height="850.394" viewBox="0 0 850.394 850.394" overflow="visible"><path fill="#fff5b4" d="M229.31 246.08v355.05L114.37 734.37 99.1 719.1V120.11l14.09-8.61zM229.31 246.08v-.67h146.62l-9.18 32.88h115.02l-9.18-32.88h145.54V601.13H229.31zM750.15 117.12V726.7l-17.66 6.73-114.22-132.38h-.14V246.79h.82l117.47-136.17z"/><path fill="#f6cc4b" d="M618.27 601.05l114.22 132.38-21.67 8.26-287.1.08H107.98l6.39-7.4 114.94-133.24h388.82v-.08z"/><path fill="#fff" d="M736.42 110.62L618.95 246.79h-.82v-1.38H472.59l-12.88-46.11h-70.9l-12.88 46.11H229.31v.67L113.19 111.5l8.61-5.26 302.74-.09h302.44z"/><path fill="#fbed24" d="M472.59 245.41l9.18 32.88H366.75l9.18-32.88z"/><path fill="#fbed24" d="M423.84 199.3h35.87l12.88 46.11h-96.66l12.88-46.11z"/><g fill="none" stroke="#231f20"><path stroke-width="18.761" d="M472.59 245.41h145.54V601.13H229.31V245.41h146.62"/><path stroke-width="18.761" d="M618.27 601.05l114.22 132.38 7.11 8.25-28.78.01-287.1.08H107.98l6.39-7.4 114.94-133.24M229.99 246.87l-.68-.79L113.19 111.5l-4.54-5.26h13.15l302.74-.09h315.74l-3.86 4.47-117.47 136.17M99.1 98.05v651.91M750.15 97.88V749.79M423.84 147.2v52.1"/><path stroke-width="18.761" d="M375.93 245.41l-9.18 32.88h115.02l-9.18-32.88-12.88-46.11h-70.9z"/><path stroke-width="6.253" d="M422.8 349.69v142.96M357.14 304.06l-84.94 52.12M380.59 338.98l-68.27 107.87M496.28 302.5l84.95 52.11M472.83 337.42l68.27 107.87"/></g><path fill="none" d="M0 0h850.394v850.394H0z"/></svg>