<?xml version="1.0" encoding="iso-8859-1"?>
<!-- Generator: Adobe Illustrator 12.0.1, SVG Export Plug-In . SVG Version: 6.00 Build 51448)  -->
<!DOCTYPE svg PUBLIC "-//W3C//DTD SVG 1.1//EN" "http://www.w3.org/Graphics/SVG/1.1/DTD/svg11.dtd" [
	<!ENTITY ns_svg "http://www.w3.org/2000/svg">
	<!ENTITY ns_xlink "http://www.w3.org/1999/xlink">
]>
<svg  version="1.1" id="Layer_1" xmlns="&ns_svg;" xmlns:xlink="&ns_xlink;" width="850.394" height="850.394"
	 viewBox="0 0 850.394 850.394" style="overflow:visible;enable-background:new 0 0 850.394 850.394;" xml:space="preserve">
<g id="XMLID_2_">
	<g>
		<path style="fill:#FFF5B4;" d="M413.26,455.18l21.601,2.94C366.51,535.72,312.9,598.71,312.9,598.71l-4.5,6.22
			c-26.46,30.33-46.22,53.23-46.22,53.23c-9.03,12.06-22.7,26.05-20.14,46.22c1.77,13.93,10.9,27.75,6.35,42.82
			c-5.02,16.609-23.12,29.21-48.67,30.42c-16.37,0.77-37.38-18.88-38.68-37.37c-1.38-19.57-24.5-46.29-38.39-21.66
			c-12.1-1.92-24.4-8.64-27.85-27.109c-11.89-63.521,76.56-78.131,100.87-89.171c21.66-9.84,19.99-7.3,69.44-66.01
			c4.33-5.149,56.39-63.66,114.34-128.73l3.7,39.4l45.63-28.29L413.26,455.18z"/>
		<path style="fill:#FFF5B4;" d="M747.56,160.42c6.091,70.58-83.34,75.07-107.75,85.85c-23.159,10.23-20.279,6.52-71.979,63.24
			c-26.42,29-53.271,59.01-78.771,87.8l-16.479-3.27l23.729-62.05l-50.199,34.67l0.38-34.08
			c66.08-74.14,129.04-144.72,129.04-144.72c9.489-11.69,23.7-25.13,21.93-45.4c-1.21-13.98-9.22-29.28,0-42.05
			c5.82-8.05,22.3-22.92,39.88-24.43c22.61-1.95,45.351,14.59,45.93,33.14c0.261,8.21,1.601,16.26,4.841,22.13
			c4,7.23,10.89,11.16,22.22,8.03c2.14-2.11,3.37-4.94,3.43-7.21C728.83,134.45,745.92,141.38,747.56,160.42z"/>
	</g>
	<g>
		<path style="fill:none;stroke:#231F20;stroke-width:21;" d="M713.75,131.64c0.01,0.14,0.01,0.28,0.01,0.43
			c-0.06,2.27-1.29,5.1-3.43,7.21c-11.33,3.13-18.22-0.8-22.22-8.03c-3.24-5.87-4.58-13.92-4.841-22.13
			c-0.579-18.55-23.319-35.09-45.93-33.14c-17.58,1.51-34.06,16.38-39.88,24.43c-9.22,12.77-1.21,28.07,0,42.05
			c1.771,20.27-12.44,33.71-21.93,45.4c0,0-62.96,70.58-129.04,144.72l-0.38,34.08l50.199-34.67l-23.729,62.05l16.479,3.27
			c25.5-28.79,52.351-58.8,78.771-87.8c51.7-56.72,48.82-53.01,71.979-63.24c24.41-10.78,113.841-15.27,107.75-85.85
			c-1.64-19.04-18.729-25.97-33.8-28.35c-12.37-1.96-23.38-0.85-23.38-0.85"/>
		<path style="fill:none;stroke:#231F20;stroke-width:21;" d="M122.65,718.59c-0.62,1.08-1.22,2.26-1.79,3.55"/>
		<path style="fill:none;stroke:#231F20;stroke-width:21;" d="M122.65,718.59c-12.1-1.92-24.4-8.64-27.85-27.109
			c-11.89-63.521,76.56-78.131,100.87-89.171c21.66-9.84,19.99-7.3,69.44-66.01c4.33-5.149,56.39-63.66,114.34-128.73l3.7,39.4
			l45.63-28.29l-15.521,36.5l21.601,2.94C366.51,535.72,312.9,598.71,312.9,598.71l-4.5,6.22c-26.46,30.33-46.22,53.23-46.22,53.23
			c-9.03,12.06-22.7,26.05-20.14,46.22c1.77,13.93,10.9,27.75,6.35,42.82c-5.02,16.609-23.12,29.21-48.67,30.42
			c-16.37,0.77-37.38-18.88-38.68-37.37C159.66,720.68,136.54,693.96,122.65,718.59z"/>
		<path style="fill:none;stroke:#231F20;stroke-width:21;" d="M149.83,716.78c0,0-13.46,3.979-27.18,1.81"/>
	</g>
</g>
<rect style="fill:none;" width="850.394" height="850.394"/>
</svg>
