<svg xmlns="http://www.w3.org/2000/svg" width="848.98" height="848.98" viewBox="0 0 848.98 848.98" overflow="visible"><path d="M701.17 340.78c16.17-25.24 51.39-31.43 78.63-13.86 27.34 17.46 36.31 52.08 20.05 77.32-16.17 25.14-51.38 31.43-78.62 13.87-27.34-17.46-36.319-52.08-20.06-77.33zM666.951 181.04c16.17-25.24 51.38-31.43 78.72-13.97 27.25 17.56 36.22 52.19 20.05 77.33-16.16 25.24-51.48 31.43-78.71 13.97-27.251-17.57-36.22-52.18-20.06-77.33zM627.24 280.52c16.86 10.87 22.351 32.33 12.37 47.89-9.979 15.57-31.72 19.36-48.59 8.58-16.87-10.87-22.45-32.23-12.47-47.79 9.98-15.57 31.83-19.46 48.69-8.68zM533.55 373.21c28.43 0 51.38 25.24 51.38 56.47s-22.95 56.48-51.38 56.48c-11.38 0-21.95-4.101-30.43-10.98l-4.891-2.5c2.891-6.28 4.49-13.86 4.49-22.05 0-17.65-7.88-32.62-18.46-37.11 6.391-23.25 26.041-40.31 49.291-40.31z" fill="#a3d9ff"/><path d="M147.82 385.88c4.09 20.55 23.14 30.73 27.33 48.79l-10.18 29.13c-7.38 23.35-10.67 21.35-24.84 20.76-1.29-.1-2.79-.1-4.39-.1-18.06 0-31.13 1.399-49.99-32.82-23.34-42.31-32.82-91-35.52-115.15-2.69-24.24-.3-83.01 17.17-107.16 17.56-24.25 34.12-40.71 34.12-40.71s57.17-47.09 95.98-46.39c38.82.69 74.73-2.5 99.18 9.97 24.45 12.58 63.16 46.8 77.53 64.46 10.08 12.37 9.18 26.24 1.2 37.82-3.4 4.98-8.19 9.57-13.97 13.47-19.26 12.87-31.13 8.98-69.35 14.96-38.11 5.89-57.37-3.69-62.16 17.16-4.79 20.86-3.79 47.1-13.97 63.16-10.17 15.97-10.37 3.49-10.37 3.49-8.09-19.06-14.47-34.12-32.13-27.33-17.56 6.88-30.43 22.45-25.64 46.49z" fill="#9e5b16"/><path d="M351.06 350.56c2.69 0 4.89-2.59 4.89-5.89 0-3.19-2.2-5.78-4.89-5.78s-4.89 2.59-4.89 5.78c0 3.3 2.2 5.89 4.89 5.89zm-.2 5.29c-5.09-.7-7.68-3.99-9.48-6.48-1.8-2.5.8-9.49 1.3-10.78.1-.1.1-.2.1-.2 5.48-3.49 8.78-6.58 8.78-6.58.32.38 7.7 9.57 3.69 18.95-2.2 5.09-3 5.09-3 5.09s-.34.26-1.11.6l-.28-.6z" fill="#fff"/><path d="M351.06 350.56c-2.69 0-4.89-2.59-4.89-5.89 0-3.19 2.2-5.78 4.89-5.78s4.89 2.59 4.89 5.78c0 3.3-2.2 5.89-4.89 5.89z"/><path d="M341.38 349.37c1.8 2.49 4.39 5.78 9.48 6.48l.28.6c-1.47.65-4.52 1.59-9.76 1.59-8.08 0-30.23-1.39-30.23-1.39s-4.79-3.69 11.97-8.79c7.88-2.39 14.57-6.08 19.56-9.27-.5 1.29-3.1 8.28-1.3 10.78z" fill="#fff"/><path d="M311.15 356.65s22.15 1.39 30.23 1.39c5.24 0 8.29-.94 9.76-1.59.77-.34 1.11-.6 1.11-.6s.8 0 3-5.09c4.01-9.38-3.37-18.57-3.69-18.95 0 0-3.3 3.09-8.78 6.58 0 0 0 .1-.1.2-4.99 3.19-11.68 6.88-19.56 9.27-16.76 5.1-11.97 8.79-11.97 8.79zM140.13 484.661v-.101c14.17.59 17.46 2.59 24.84-20.76l10.18-29.13c-4.19-18.06-23.24-28.24-27.33-48.79-4.79-24.04 8.08-39.61 25.64-46.49 17.66-6.79 24.04 8.27 32.13 27.33 0 0 .2 12.48 10.37-3.49 10.18-16.06 9.18-42.3 13.97-63.16 4.79-20.85 24.05-11.27 62.16-17.16 38.22-5.98 50.09-2.09 69.35-14.96 5.78-3.9 10.57-8.49 13.97-13.47l.99.79c6.79 5.79 9.78 15.97 14.57 31.14 4.69 15.06.7 21.45-1 35.91-1.6 13.37-1.6 22.35 11.18 35.52 15.06 15.57 18.56 18.56 27.24 26.45 8.58 7.78 2.29 20.25-3.9 22.14-9.68 2.9-4.39 1.5-17.95 3.39-5.69.8-8.39 9.69-3.9 14.07 4.39 4.5 10.38 8.29.1 12.08-14.77 5.48-14.77 5.48-33.72 15.06 0 0-3.19 1.4 3.79 3.5 6.49 2 23.65 6.591 35.72 8.57-.2.8-.4 1.601-.7 2.4-.9 3.39-2 7.479-.6 11.27 2.3 6.29 6.19 19.561-4.79 25.84-10.97 6.301-31.33 5.5-38.41 14.17-13.37 16.37-9.08 18.37-9.38 34.431V558h-33.23v12.67H150.61v-2.69c6.29-15.479 6.09-29.14 6.09-43.41 0-24.85-16.57-39.909-16.57-39.909z" fill="#ffeec8"/><g fill="none" stroke="#000"><path d="M406.93 465.31c.4.09.6.09.9.19.1.1.2.1.3.1M376.4 255.27c6.79 5.79 9.78 15.97 14.57 31.14 4.69 15.06.7 21.45-1 35.91-1.6 13.37-1.6 22.35 11.18 35.52 15.06 15.57 18.56 18.56 27.24 26.45 8.58 7.78 2.29 20.25-3.9 22.14-9.68 2.9-4.39 1.5-17.95 3.39-5.69.8-8.39 9.69-3.9 14.07 4.39 4.5 10.38 8.29.1 12.08-14.77 5.48-14.77 5.48-33.72 15.06 0 0-3.19 1.4 3.79 3.5 6.49 2 23.65 6.591 35.72 8.57" stroke-width="13.034"/><path d="M408.53 463.1c-.2.8-.4 1.601-.7 2.4-.9 3.39-2 7.479-.6 11.27 2.3 6.29 6.19 19.561-4.79 25.84-10.97 6.301-31.33 5.5-38.41 14.17-13.37 16.37-9.08 18.37-9.38 34.431" stroke-width="13.034" stroke-linecap="round" stroke-linejoin="round"/><path d="M342.68 338.59c-4.99 3.19-11.68 6.88-19.56 9.27-16.76 5.1-11.97 8.79-11.97 8.79s22.15 1.39 30.23 1.39c5.24 0 8.29-.94 9.76-1.59.77-.34 1.11-.6 1.11-.6s.8 0 3-5.09c4.01-9.38-3.37-18.57-3.69-18.96v.01s-3.3 3.09-8.78 6.58" stroke-width="8.69"/><path d="M340.18 296.48s-13.86.1-34.52 20.95c-11.97 12.08-16.86 22.65-19.65 30.43" stroke-width="13.034" stroke-linecap="round" stroke-linejoin="round"/><path d="M342.78 338.39s0 .1-.1.2c-.5 1.29-3.1 8.28-1.3 10.78 1.8 2.49 4.39 5.78 9.48 6.48" stroke-width="8.69"/><path d="M375.41 254.48c-3.4 4.98-8.19 9.57-13.97 13.47-19.26 12.87-31.13 8.98-69.35 14.96-38.11 5.89-57.37-3.69-62.16 17.16-4.79 20.86-3.79 47.1-13.97 63.16-10.17 15.97-10.37 3.49-10.37 3.49-8.09-19.06-14.47-34.12-32.13-27.33-17.56 6.88-30.43 22.45-25.64 46.49 4.09 20.55 23.14 30.73 27.33 48.79l-10.18 29.13c-7.38 23.35-10.67 21.35-24.84 20.76-1.29-.1-2.79-.1-4.39-.1-18.06 0-31.13 1.399-49.99-32.82-23.34-42.31-32.82-91-35.52-115.15-2.69-24.24-.3-83.01 17.17-107.16 17.56-24.25 34.12-40.71 34.12-40.71s57.17-47.09 95.98-46.39c38.82.69 74.73-2.5 99.18 9.97 24.45 12.58 63.16 46.8 77.53 64.46 10.08 12.37 9.18 26.24 1.2 37.82z" stroke-width="17.38"/><path d="M140.13 484.661s16.57 15.06 16.57 39.909c0 14.271.2 27.931-6.09 43.41" stroke-width="17.38"/><path d="M353.45 410.82s2.1 36.52-20.65 60.47" stroke-width="13.034" stroke-linecap="round" stroke-linejoin="round"/><path d="M484.26 413.52c10.58 4.49 18.46 19.46 18.46 37.11 0 8.189-1.6 15.77-4.49 22.05-4.59 9.98-12.279 16.57-20.85 16.57-14.07 0-25.45-17.261-25.45-38.62 0-21.25 11.38-38.61 25.45-38.61 2.39 0 4.68.5 6.88 1.5zM477.38 489.25v143.38" stroke-width="17.38" stroke-linecap="square" stroke-miterlimit="10"/><path d="M484.26 413.62v-.1c6.39-23.25 26.04-40.31 49.29-40.31 28.43 0 51.38 25.24 51.38 56.47s-22.95 56.48-51.38 56.48c-11.38 0-21.95-4.101-30.43-10.98" stroke-width="17.38" stroke-linecap="square" stroke-miterlimit="10"/><path d="M773.74 214.99c.33 10.2-2.229 20.41-8.02 29.41-16.16 25.24-51.48 31.43-78.71 13.97-27.25-17.57-36.22-52.18-20.06-77.33 16.17-25.24 51.38-31.43 78.72-13.97 17.5 11.28 27.46 29.59 28.07 47.92zM807.93 374.71c.33 10.23-2.25 20.48-8.08 29.53-16.17 25.14-51.38 31.43-78.62 13.87-27.34-17.46-36.319-52.08-20.06-77.33 16.17-25.24 51.39-31.43 78.63-13.86 17.54 11.2 27.52 29.47 28.13 47.79zM627.24 280.52c16.86 10.87 22.351 32.33 12.37 47.89-9.979 15.57-31.72 19.36-48.59 8.58-16.87-10.87-22.45-32.23-12.47-47.79 9.98-15.57 31.83-19.46 48.69-8.68z" stroke-width="17.38"/><path stroke-width="8.69" stroke-linecap="round" stroke-linejoin="round" stroke-miterlimit="10" d="M422.9 437.97l24.641-9.38M438.661 456.32l-24.641-9.48"/></g><path fill="none" d="M.25.25h848.48v848.48H.25z"/><g stroke="#231f20" stroke-width="21"><path fill="#fff" d="M662.117 713.97V503.958"/><path fill="none" d="M566.924 572.624l95.548-69.999 95.509 70.108"/></g></svg>