<?xml version="1.0" encoding="iso-8859-1"?>
<!-- Generator: Adobe Illustrator 12.0.1, SVG Export Plug-In . SVG Version: 6.00 Build 51448)  -->
<!DOCTYPE svg PUBLIC "-//W3C//DTD SVG 1.1//EN" "http://www.w3.org/Graphics/SVG/1.1/DTD/svg11.dtd" [
	<!ENTITY ns_svg "http://www.w3.org/2000/svg">
	<!ENTITY ns_xlink "http://www.w3.org/1999/xlink">
]>
<svg  version="1.1" id="Layer_1" xmlns="&ns_svg;" xmlns:xlink="&ns_xlink;" width="850.394" height="850.394"
	 viewBox="0 0 850.394 850.394" style="overflow:visible;enable-background:new 0 0 850.394 850.394;" xml:space="preserve">
<g id="XMLID_450_">
	<g>
		<path style="fill:#F73900;" d="M404.07,586.11l-0.97-1.61c5.22,3.32,10.66,7.39,16.32,12c-14.66,8.15-29.07,7.25-45.48,0
			c-8.84-3.91-15.45-10.69-21.1-18.4c-3.21-4.359-6.11-9.029-8.94-13.64l1.08-0.66c4.8,8.36,30.66,20.83,36.49,22
			C389.28,587.36,395.96,586.97,404.07,586.11z"/>
		<path style="fill:#FFEEC8;" d="M385.81,414.46c-8.51-7.8-16.33-15.22-26.16-19.45c-4.74-2.06-9.96-3.37-15.94-3.62
			c-5.25-0.22-10.56,0.09-15.74,0.98c-12.41,2.13-24.12,7.57-32.79,16.99c10.1,10.16,32.72,14.84,46.52,16.791
			C348.63,427.13,391.07,428.46,385.81,414.46z M458.25,474.45c-12.47,17.59-30.22,47.59-58.24,76.58
			c-4.36-17.471-47.15-1.931-62.58,3.1c2.18,3.311,4.31,6.8,6.47,10.33c2.83,4.61,5.73,9.28,8.94,13.64
			c5.65,7.71,12.26,14.49,21.1,18.4c16.41,7.25,30.82,8.15,45.48,0c13.98,11.4,29.26,26.12,45.9,41.13
			c-5.13,7.23-10.63,15.58-14.2,18.601c-29.56,25-72.85,12.449-107.23,8.26c-45.76-5.59-63.47-54.24-95.3-81.811
			c-13.65-11.819-21.69-24-26.17-39.38c-1.42-4.83-2.48-9.979-3.25-15.54c-0.88-6.26-6.16-27.029-8.52-35.83l-0.67-1.479
			c-0.63-35.51-2.24-54.61,21.53-89.13c28.16-40.91,54.1-70.2,96.46-95.5c17.63-10.53,37.21-18.65,54.9-30.33
			c21.36-14.09,58.729-30.46,45.74-51.8c10.569,16.48,16.689,37.61,46.979,63.19c18.8,15.88,40.99,22.06,60.43,36.32
			c24.011,17.62,39.091,48.59,39.721,78.77c-8.2,1.67-16.42,3.79-24.78,6.24c-1.41,0.42-2.82,0.85-4.24,1.28
			c-7.35,2.25-13.979,4.53-20.06,6.94c-2.021-1.22-4.16-2.31-6.46-3.23c-2.75-1.11-5.72-1.98-8.96-2.56
			c-5.181-0.93-10.48-1.34-15.73-1.16c-12.59,0.43-24.92,4.25-34.77,12.4c5.59,7.41,16.7,13.25,27.479,17.47
			C478.07,448.33,468.8,459.57,458.25,474.45z"/>
		<path style="fill:#FFD3F7;" d="M400.01,551.03c28.021-28.99,45.771-58.99,58.24-76.58c10.55-14.88,19.82-26.12,29.97-35.101
			c2.221-1.97,4.48-3.83,6.811-5.59c9.109-6.91,19.2-12.4,31.63-17.33c6.08-2.41,12.71-4.69,20.06-6.94
			c1.42-0.43,2.83-0.86,4.24-1.28c8.36-2.45,16.58-4.57,24.78-6.24c10.49-2.15,20.97-3.57,31.68-4.05
			c25.16-1.14,51.63,2.87,82.75,14.75c56.74,21.65,81.22,70.34,90.11,111c8.819,40.3,1.76,78.1-21.561,112.5
			c-28.689,42.3-90.63,64.5-138,71.37c-61.2,8.89-112.75-31.45-155.399-69.91c-16.641-15.01-31.92-29.729-45.9-41.13
			c-5.66-4.61-11.1-8.68-16.32-12l-13.81-22.94C393.02,558.08,396.59,554.56,400.01,551.03z"/>
		<path style="fill:#FFFFFF;" d="M510.93,416.76c4.23,0.58-9.12,9.601-8.609,5.81C502.84,418.78,506.69,416.18,510.93,416.76z"/>
		<path style="fill:#9E5B16;" d="M520.2,413.2c2.3,0.92,4.439,2.01,6.46,3.23c-12.43,4.93-22.521,10.419-31.63,17.33
			c-5.521-7.16-7.16-19.31,0.479-24.25v-0.03c5.25-0.18,10.55,0.23,15.73,1.16C514.48,411.22,517.45,412.09,520.2,413.2z
			 M502.32,422.57c-0.511,3.791,12.84-5.23,8.609-5.81C506.69,416.18,502.84,418.78,502.32,422.57z"/>
		<path style="fill:#FFFFFF;" d="M495.51,409.48v0.03c-7.64,4.94-6,17.09-0.479,24.25c-2.33,1.76-4.59,3.62-6.811,5.59
			c-10.779-4.22-21.89-10.06-27.479-17.47C470.59,413.73,482.92,409.91,495.51,409.48z"/>
		<path style="fill:#FFFFFF;" d="M345.29,397.5c4.86,0,8.8,3.94,8.8,8.8c0,4.86-3.94,8.8-8.8,8.8c-4.87,0-8.81-3.94-8.81-8.8
			C336.48,401.44,340.42,397.5,345.29,397.5z"/>
		<path style="fill:#9E5B16;" d="M359.18,396.12c7.21,14.57-6.24,26.29-20.52,24.58c-10.66-1.27-20.09-20.24-10.69-28.31v-0.02
			c5.18-0.89,10.49-1.2,15.74-0.98c5.98,0.25,11.2,1.56,15.94,3.62L359.18,396.12z M354.09,406.3c0-4.86-3.94-8.8-8.8-8.8
			c-4.87,0-8.81,3.94-8.81,8.8c0,4.86,3.94,8.8,8.81,8.8C350.15,415.1,354.09,411.16,354.09,406.3z"/>
		<path style="fill:#FFFFFF;" d="M385.81,414.46c5.26,14-37.18,12.67-44.11,11.69c-13.8-1.95-36.42-6.63-46.52-16.791
			c8.67-9.42,20.38-14.86,32.79-16.99v0.02c-9.4,8.07,0.03,27.04,10.69,28.31c14.28,1.71,27.73-10.01,20.52-24.58l0.47-1.11
			C369.48,399.24,377.3,406.66,385.81,414.46z"/>
		<path style="fill:#9E5B16;" d="M428.61,223.69c12.989,21.34-24.38,37.71-45.74,51.8c-17.69,11.68-37.27,19.8-54.9,30.33
			c-42.36,25.3-68.3,54.59-96.46,95.5c-23.77,34.52-22.16,53.621-21.53,89.13l0.67,1.479c2.36,8.801,7.64,29.57,8.52,35.83
			c0.77,5.561,1.83,10.71,3.25,15.54c0.29,19.42-38.66,86.87-38.66,86.87c-29.63,34.41-90.72,24.16-110.72,69.12
			c-6.68-22.6,6.33-55.91,16.78-75.93c11.13-21.33,29.85-36.03,40.1-58.13c11.08-23.86,24.53-44.391,27.58-71.341
			c5.32-46.92-14.88-93.26-14.88-140.33c0-103.82,87-213.55,174.07-222.3c83.79-8.42,182.1-22.05,255.72,84.23
			c33.57,48.48,39.07,124,34.96,181.24l0.05,1.19c-10.71,0.48-21.189,1.9-31.68,4.05c-0.63-30.18-15.71-61.15-39.721-78.77
			c-19.439-14.26-41.63-20.44-60.43-36.32C445.3,261.3,439.18,240.17,428.61,223.69z"/>
		<path style="fill:#FFD3F7;" d="M403.1,584.5l0.97,1.61c-8.11,0.859-14.79,1.25-22.6-0.311c-5.83-1.17-31.69-13.64-36.49-22
			c-0.74-1.28-0.98-2.46-0.58-3.49c0,0,7.99,5.511,18.09,3.19c8.51-1.95,18.91-5.82,26.68-2.15l0.12,0.21L403.1,584.5z"/>
		<path style="fill:#F73900;" d="M400.01,551.03c-3.42,3.529-6.99,7.05-10.72,10.529l-0.12-0.21c-7.77-3.67-18.17,0.2-26.68,2.15
			c-10.1,2.32-18.09-3.19-18.09-3.19c-0.4,1.03-0.16,2.21,0.58,3.49l-1.08,0.66c-2.16-3.53-4.29-7.02-6.47-10.33
			C352.86,549.1,395.65,533.56,400.01,551.03z"/>
	</g>
	<g>
		<path style="fill:none;stroke:#000000;stroke-width:11.3482;" d="M397.01,391.39c-17.02-28.37-73.59-24.04-82.12-23.64
			c-5.74,0.27-15.73,6.07-19.07,4.73"/>
		<path style="fill:none;stroke:#000000;stroke-width:11.3482;" d="M466.04,390.44c20.47-12.87,68.81-6.25,84.92,17.77
			c0.67,0.98,1.271,2,1.82,3.04"/>
		<path style="fill:none;stroke:#000000;stroke-width:11.3482;" d="M388.5,416.92c-0.91-0.82-1.8-1.64-2.69-2.46
			c-8.51-7.8-16.33-15.22-26.16-19.45c-4.74-2.06-9.96-3.37-15.94-3.62c-5.25-0.22-10.56,0.09-15.74,0.98
			c-12.41,2.13-24.12,7.57-32.79,16.99c10.1,10.16,32.72,14.84,46.52,16.791c6.93,0.979,49.37,2.31,44.11-11.69
			c-0.05-0.12-0.1-0.24-0.15-0.37"/>
		<path style="fill:none;stroke:#000000;stroke-width:11.3482;" d="M359.18,396.12c7.21,14.57-6.24,26.29-20.52,24.58
			c-10.66-1.27-20.09-20.24-10.69-28.31"/>
		<path style="fill:none;stroke:#000000;stroke-width:5.6741;" d="M336.48,406.3c0,4.86,3.94,8.8,8.81,8.8c4.86,0,8.8-3.94,8.8-8.8
			c0-4.86-3.94-8.8-8.8-8.8C340.42,397.5,336.48,401.44,336.48,406.3z"/>
		<path style="fill:none;stroke:#000000;stroke-width:11.3482;" d="M520.2,413.2c-2.75-1.11-5.72-1.98-8.96-2.56
			c-5.181-0.93-10.48-1.34-15.73-1.16c-12.59,0.43-24.92,4.25-34.77,12.4c5.59,7.41,16.7,13.25,27.479,17.47
			c1.221,0.48,2.44,0.931,3.641,1.37"/>
		<path style="fill:none;stroke:#000000;stroke-width:11.3482;" d="M531.13,419.5c-1.43-1.1-2.91-2.12-4.47-3.07
			c-2.021-1.22-4.16-2.31-6.46-3.23"/>
		<path style="fill:none;stroke:#000000;stroke-width:11.3482;" d="M498.58,437.23c-1.3-0.921-2.49-2.101-3.55-3.471
			c-5.521-7.16-7.16-19.31,0.479-24.25"/>
		<path style="fill:none;stroke:#000000;stroke-width:5.6741;" d="M502.32,422.57c-0.511,3.791,12.84-5.23,8.609-5.81
			C506.69,416.18,502.84,418.78,502.32,422.57z"/>
		<path style="fill:none;stroke:#000000;stroke-width:11.3482;" d="M431.05,513.17c-8.36,3.11-14.45,4.99-21.99-0.479
			c-8.16-5.921-7.55-10.101-19.6-9.521c-10.13,0.48-21.35,3.34-20.85-12.27c0.35-10.75,8.44-10.61,14.21-18.181"/>
		<path style="fill:none;stroke:#000000;stroke-width:11.3482;" d="M456.11,408.89c-18.49,18.49-15.181,58.39-8.95,77.07"/>
		<path style="fill:none;stroke:#000000;stroke-width:11.3482;" d="M400.28,552.51c-0.06-0.52-0.15-1.01-0.27-1.479
			c-4.36-17.471-47.15-1.931-62.58,3.1c2.18,3.311,4.31,6.8,6.47,10.33c2.83,4.61,5.73,9.28,8.94,13.64
			c5.65,7.71,12.26,14.49,21.1,18.4c16.41,7.25,30.82,8.15,45.48,0"/>
		<path style="fill:none;stroke:#000000;stroke-width:17.0223;" d="M575.74,402c0-0.01,0-0.02,0-0.03
			c-0.63-30.18-15.71-61.15-39.721-78.77c-19.439-14.26-41.63-20.44-60.43-36.32c-30.29-25.58-36.41-46.71-47.38-63.82
			c0.14,0.21,0.271,0.42,0.4,0.63c12.989,21.34-24.38,37.71-45.74,51.8c-17.69,11.68-37.27,19.8-54.9,30.33
			c-42.36,25.3-68.3,54.59-96.46,95.5c-23.77,34.52-22.16,53.621-21.53,89.13l0.67,1.479c2.36,8.801,7.64,29.57,8.52,35.83
			c0.77,5.561,1.83,10.71,3.25,15.54c4.48,15.38,12.52,27.561,26.17,39.38c31.83,27.57,49.54,76.221,95.3,81.811
			c34.38,4.189,77.67,16.74,107.23-8.26c3.57-3.021,9.07-11.37,14.2-18.601"/>
		<path style="fill:none;stroke:#000000;stroke-width:17.0223;" d="M222.42,543.28c0,0.01,0,0.01,0,0.02
			c0.29,19.42-38.66,86.87-38.66,86.87c-29.63,34.41-90.72,24.16-110.72,69.12c-6.68-22.6,6.33-55.91,16.78-75.93
			c11.13-21.33,29.85-36.03,40.1-58.13c11.08-23.86,24.53-44.391,27.58-71.341c5.32-46.92-14.88-93.26-14.88-140.33
			c0-103.82,87-213.55,174.07-222.3c83.79-8.42,182.1-22.05,255.72,84.23c33.57,48.48,39.07,124,34.96,181.24"/>
		<path style="fill:none;stroke:#000000;stroke-width:11.3482;" d="M389.17,561.35c-7.77-3.67-18.17,0.2-26.68,2.15
			c-10.1,2.32-18.09-3.19-18.09-3.19c-0.4,1.03-0.16,2.21,0.58,3.49c4.8,8.36,30.66,20.83,36.49,22
			c7.81,1.561,14.49,1.17,22.6,0.311"/>
		<path style="fill:none;stroke:#000000;stroke-width:17.0223;" d="M385.39,565.13c1.32-1.18,2.62-2.37,3.9-3.57
			c3.73-3.479,7.3-7,10.72-10.529c28.021-28.99,45.771-58.99,58.24-76.58c10.55-14.88,19.82-26.12,29.97-35.101
			c2.221-1.97,4.48-3.83,6.811-5.59c9.109-6.91,19.2-12.4,31.63-17.33c6.08-2.41,12.71-4.69,20.06-6.94
			c1.42-0.43,2.83-0.86,4.24-1.28c8.36-2.45,16.58-4.57,24.78-6.24c10.49-2.15,20.97-3.57,31.68-4.05
			c25.16-1.14,51.63,2.87,82.75,14.75c56.74,21.65,81.22,70.34,90.11,111c8.819,40.3,1.76,78.1-21.561,112.5
			c-28.689,42.3-90.63,64.5-138,71.37c-61.2,8.89-112.75-31.45-155.399-69.91c-16.641-15.01-31.92-29.729-45.9-41.13
			c-5.66-4.61-11.1-8.68-16.32-12c-4.05-2.58-7.97-4.72-11.77-6.31"/>
		<path style="fill:none;stroke:#000000;stroke-width:17.0223;stroke-linecap:round;stroke-linejoin:round;" d="M475.97,574.85
			c-30.64-20.42-51.9-13.58-76.57-5.67"/>
		<path style="fill:none;stroke:#000000;stroke-width:11.3482;stroke-linecap:round;stroke-linejoin:round;" d="M346.89,512.44
			c-12.51,23.409-49.56,37.81-64.31,34.04"/>
	</g>
</g>
<rect style="fill:none;" width="850.394" height="850.394"/>
</svg>
