<svg xmlns="http://www.w3.org/2000/svg" width="850.394" height="850.394" viewBox="0 0 850.394 850.394" overflow="visible"><path fill="#ffff4b" d="M521.06 340.17l-.46.31-317.18-184.32h-1.8v-1.55l192.92-91.59 312.28 153.83.33 155.41.05 23.53-183.94 143.93-1.76-2.25V340.83z"/><path fill="#ffeec8" d="M772.81 401.77L521.83 601.19 128.55 375.2l73.39-42.94.06 30.19 319.08 178.97 2.18-1.7L707.2 395.79l-.05-23.53h1.46z"/><path fill="#ffff4b" d="M521.5 340.83v196.64l1.76 2.25-2.18 1.7L202 362.45l-.06-30.19-.32-176.1h1.8L520.6 340.48l.46-.31z"/><path d="M654.64 747.84c1.591 10.05-.79 22.94-10.64 30.47-18.76 14.351-46.36-.659-49.73-14.04-3.35-13.35-24.92-32.989-47.279-38.52-22.37-5.51-52.15-23.36-52.15-23.36-34.3-20.58-32.71-30.63-57.28-46.149l.16-.26 20.91-34.87L634.9 726.8s17.15 4.57 19.74 21.04z" fill="#9e5b16"/><path d="M458.63 621.11l-20.91 34.87-.16.26c-.92-.58-1.869-1.16-2.869-1.76-27.601-16.54-44.561 34.189-44.561 34.189L281.42 623.5c-27.59-16.57-109.54-74.79-151.47-111.87-43.87-38.82-52.84-78.11-52.84-78.11 16.07-1.569 40.85-1.18 40.85-1.18 37.19 5.49 73.41 28.54 73.41 28.54l267.26 160.23z" fill="#c8c8c8"/><g fill="none" stroke="#000" stroke-width="26.424"><path d="M203.42 156.16L520.6 340.48l.46-.31 180.62-120.9"/><path d="M523.26 539.72l-2.18 1.7L202 362.45l-.06-30.19-.32-176.1v-1.55l192.92-91.59 312.28 153.83.33 155.41.05 23.53zM521.5 340.83v196.64"/><path d="M708.61 372.26l64.2 29.51-250.98 199.42L128.55 375.2l73.39-42.94M437.56 656.24c24.57 15.52 22.98 25.569 57.28 46.149 0 0 29.78 17.851 52.15 23.36 22.359 5.53 43.93 25.17 47.279 38.52 3.37 13.381 30.971 28.391 49.73 14.04 9.85-7.529 12.23-20.42 10.64-30.47-2.59-16.47-19.739-21.04-19.739-21.04L458.63 621.11 191.37 460.88s-36.22-23.05-73.41-28.54c0 0-24.78-.39-40.85 1.18 0 0 8.97 39.29 52.84 78.11 41.93 37.08 123.88 95.3 151.47 111.87l108.71 65.17s16.96-50.729 44.561-34.189c.999.599 1.949 1.179 2.869 1.759z"/><path d="M437.72 655.98l20.91-34.87.76-1.27"/></g><path fill="none" d="M0 0h850.394v850.394H0z"/></svg>