<?xml version="1.0" encoding="iso-8859-1"?>
<!-- Generator: Adobe Illustrator 12.0.1, SVG Export Plug-In . SVG Version: 6.00 Build 51448)  -->
<!DOCTYPE svg PUBLIC "-//W3C//DTD SVG 1.1//EN" "http://www.w3.org/Graphics/SVG/1.1/DTD/svg11.dtd" [
	<!ENTITY ns_svg "http://www.w3.org/2000/svg">
	<!ENTITY ns_xlink "http://www.w3.org/1999/xlink">
]>
<svg  version="1.1" id="Layer_1" xmlns="&ns_svg;" xmlns:xlink="&ns_xlink;" width="850.394" height="850.394"
	 viewBox="0 0 850.394 850.394" style="overflow:visible;enable-background:new 0 0 850.394 850.394;" xml:space="preserve">
<g id="XMLID_82_">
	<g>
		<polygon style="fill:#FFFF4B;" points="521.06,340.17 520.6,340.48 203.42,156.16 201.62,156.16 201.62,154.61 394.54,63.02 
			706.82,216.85 707.15,372.26 707.2,395.79 523.26,539.72 521.5,537.47 521.5,340.83 		"/>
		<polygon style="fill:#FFEEC8;" points="772.81,401.77 521.83,601.19 128.55,375.2 201.94,332.26 202,362.45 521.08,541.42 
			523.26,539.72 707.2,395.79 707.15,372.26 708.61,372.26 		"/>
		<polygon style="fill:#FFFF4B;" points="521.5,340.83 521.5,537.47 523.26,539.72 521.08,541.42 202,362.45 201.94,332.26 
			201.62,156.16 203.42,156.16 520.6,340.48 521.06,340.17 		"/>
		<path style="fill:#9E5B16;" d="M654.64,747.84c1.591,10.05-0.79,22.94-10.64,30.47c-18.76,14.351-46.36-0.659-49.73-14.04
			c-3.35-13.35-24.92-32.989-47.279-38.52c-22.37-5.51-52.15-23.36-52.15-23.36c-34.3-20.58-32.71-30.63-57.28-46.149l0.16-0.26
			l20.91-34.87L634.9,726.8C634.9,726.8,652.05,731.37,654.64,747.84z"/>
		<path style="fill:#C8C8C8;" d="M458.63,621.11l-20.91,34.87l-0.16,0.26c-0.92-0.58-1.869-1.16-2.869-1.76
			c-27.601-16.54-44.561,34.189-44.561,34.189L281.42,623.5c-27.59-16.57-109.54-74.79-151.47-111.87
			c-43.87-38.82-52.84-78.11-52.84-78.11c16.07-1.569,40.85-1.18,40.85-1.18c37.19,5.49,73.41,28.54,73.41,28.54L458.63,621.11z"/>
	</g>
	<g>
		<polyline style="fill:none;stroke:#000000;stroke-width:26.4238;" points="203.42,156.16 520.6,340.48 521.06,340.17 
			701.68,219.27 		"/>
		<polygon style="fill:none;stroke:#000000;stroke-width:26.4238;" points="523.26,539.72 521.08,541.42 202,362.45 201.94,332.26 
			201.62,156.16 201.62,154.61 394.54,63.02 706.82,216.85 707.15,372.26 707.2,395.79 		"/>
		<line style="fill:none;stroke:#000000;stroke-width:26.4238;" x1="521.5" y1="340.83" x2="521.5" y2="537.47"/>
		<polyline style="fill:none;stroke:#000000;stroke-width:26.4238;" points="708.61,372.26 772.81,401.77 521.83,601.19 
			128.55,375.2 201.94,332.26 		"/>
		<path style="fill:none;stroke:#000000;stroke-width:26.4238;" d="M437.56,656.24c24.57,15.52,22.98,25.569,57.28,46.149
			c0,0,29.78,17.851,52.15,23.36c22.359,5.53,43.93,25.17,47.279,38.52c3.37,13.381,30.971,28.391,49.73,14.04
			c9.85-7.529,12.23-20.42,10.64-30.47c-2.59-16.47-19.739-21.04-19.739-21.04L458.63,621.11L191.37,460.88
			c0,0-36.22-23.05-73.41-28.54c0,0-24.78-0.39-40.85,1.18c0,0,8.97,39.29,52.84,78.11c41.93,37.08,123.88,95.3,151.47,111.87
			l108.71,65.17c0,0,16.96-50.729,44.561-34.189C435.69,655.08,436.64,655.66,437.56,656.24z"/>
		<polyline style="fill:none;stroke:#000000;stroke-width:26.4238;" points="437.72,655.98 458.63,621.11 459.39,619.84 		"/>
	</g>
</g>
<rect style="fill:none;" width="850.394" height="850.394"/>
</svg>
