<svg xmlns="http://www.w3.org/2000/svg" width="850.89" height="850.89" viewBox="0 0 850.89 850.89" overflow="visible"><path d="M422.59 338.61c-17.24 17.64-37.92 37.6-42.63 62.66-5 26.58-3.17 49.32-15.17 74.9-7.64 16.3-27.71 51.561-47.17 63.78-14.95-6.04-30.1-10.99-46.52-11.95-3.43-.2-6.73-.16-9.86.1 24.25-24.26 34.28-68.27 42.38-100.859 11.63-46.81 24.21-93.29 35.36-140.32 2.34-9.87 9.12-21.32 11.35-31.58l.01-.01c27.79-22.38 73.5-23.86 83.79-22.52 31.82 4.15 33.16 8.71 49.21 15.26-3.51 38.459-34.85 64.049-60.75 90.539z" fill="#00e800"/><path d="M317.62 539.95c19.46-12.22 39.53-47.48 47.17-63.78 12-25.58 10.17-48.32 15.17-74.9 4.71-25.06 25.39-45.02 42.63-62.66 25.9-26.49 57.24-52.08 60.75-90.54 5.32 2.17 12.26 4.56 22.46 7.22 30.53 7.98 59.59 19.98 83.88 39.72-23.279-15.33-68.38-12.36-90.34 2.63-23.76 16.22-32.55 44.75-34.649 72.18-2.631 34.29 7.279 64.69 28.96 90.911 9.55 11.529 21.39 20.779 32.779 30.5 8.261 7.039 20.94 14.81 26.17 24.569-5.439 1.88-10.569 4.11-15.239 6.641C515.72 534.14 497.5 552.34 475.35 562.88c-21.72 10.351-47.409 7.23-70.47 3.58-25.93-4.08-48.52-9.91-72.88-20.44-4.8-2.07-9.58-4.13-14.38-6.07z" fill="#00e800"/><path d="M271.1 528c16.42.96 31.57 5.91 46.52 11.95 4.8 1.939 9.58 4 14.38 6.069 24.36 10.53 46.95 16.36 72.88 20.44 23.061 3.65 48.75 6.771 70.47-3.58 22.15-10.54 40.37-28.74 62.011-40.439 4.67-2.53 9.8-4.761 15.239-6.641 33.87-11.75 79.521-9.819 99.311 21.24l.57.29c-4.7 9.01-8.601 18.4-9.61 28.55-.5 5.04 3.09 25.29 6.18 30.36-.92.359-1.85.74-2.78 1.14-9.1 3.95-18.89 11.19-24.6 19.86-2.229 3.399-3.85 7.01-4.55 10.729-6.91 36.58-79.67 91.82-158.33 91.82-70.69 0-127.25-52.96-143.1-75.54-14.34-20.44-70.65-41.31-82.51-63.43-14.39-26.83-3.03-46.601 20.79-51.67 2.31-.5 4.74-.851 7.27-1.051A70.501 70.501 0 0 1 271.1 528z" fill="#00e800"/><path d="M664.73 267.05c-65.181-65.19-84.351-20.86-116.351-41.22-18.76-11.94-80.649-75.69-129.45-75.69-25.33 0-55.65 15.66-66.78 39.82-6.93 15.05-4.43 33.93-2.79 50.97-2.78-7.58-8.5-15.19-12.93-20.53-3.95-4.74-62.22 7.88-73.37 11.93-43.24 15.7-67.82 93.1-75.46 133.8-9.33 49.72 14.46 70.95 24.5 103.54-41.36-7.21-66.33 5.88-80.62 26.24-12.18-24.86-40.95-51.41-46.05-69.33-30-105.52 40.03-170.86 80.34-192.44 35.94-19.24 59.83-24.2 94.32-41.18 33.7-16.59 44.18-46.98 65.11-76 27.98-38.78 65.96-32.59 109.979-40.19 43.301-7.48 81.13 3.36 109.17 31.4 21.61 21.61 92.631 96.71 123.551 104.44 21.43 5.36 54.09 17.56 62.72 42.65-30.54 16.72-57.021 37.57-57.38 73.84-.141 13.64-1.431 28.26-.03 41.79 1.81 17.38 9.82 33.08 11.53 50.63 3.59 36.7-5.181 67.02-22.76 98.68-3.12 5.63-6.48 11.31-9.5 17.13l-.57-.29c-19.79-31.06-65.44-32.99-99.311-21.24-5.229-9.76-17.909-17.53-26.17-24.569-11.39-9.721-23.229-18.971-32.779-30.5-21.681-26.221-31.591-56.621-28.96-90.911 2.1-27.43 10.89-55.96 34.649-72.18 21.96-14.99 67.061-17.96 90.34-2.63.011 0 .011.01.021.01 6.08 4.93 11.87 10.35 17.3 16.32 20.28 22.26 31.86 42.51 60.21 54.04-6.519-25.64 17.331-78.52-2.479-98.33z" fill="#33a02c"/><path d="M350.33 255.34h-.01c-.07-4.55-.48-9.4-.96-14.41 1.1 2.96 1.74 5.91 1.69 8.72-.03 1.84-.29 3.74-.71 5.68l-.01.01zM767.54 346.17c16.74 48.69 14.3 98.72-4.26 146.35-15.55 39.89-37.89 67.8-75.39 89.68-12.72 7.41-25.76 8.93-38.84 14.04-3.09-5.07-6.68-25.32-6.18-30.36 1.01-10.149 4.91-19.54 9.61-28.55 3.02-5.82 6.38-11.5 9.5-17.13 17.579-31.66 26.35-61.98 22.76-98.68-1.71-17.55-9.721-33.25-11.53-50.63-1.4-13.53-.11-28.15.03-41.79.359-36.27 26.84-57.12 57.38-73.84 1.2 3.49 1.939 7.22 2.12 11.23.29 6.69 11.04 18.59 13.779 26.97 5.861 17.94 14.851 34.77 21.021 52.71z" fill="#33a02c"/><path d="M607 311.34a157.005 157.005 0 0 0-17.3-16.32c-.01 0-.01-.01-.021-.01-24.29-19.74-53.35-31.74-83.88-39.72-10.2-2.66-17.14-5.05-22.46-7.22-16.05-6.55-17.39-11.11-49.21-15.26-10.29-1.34-56 .14-83.79 22.52.42-1.94.68-3.84.71-5.68.05-2.81-.59-5.76-1.69-8.72-1.64-17.04-4.14-35.92 2.79-50.97 11.13-24.16 41.45-39.82 66.78-39.82 48.8 0 110.69 63.75 129.45 75.69 32 20.36 51.17-23.97 116.351 41.22 19.81 19.81-4.04 72.69 2.479 98.33C638.86 353.85 627.28 333.6 607 311.34z" fill="#00e800"/><path d="M350.33 255.34c-2.23 10.26-9.01 21.71-11.35 31.58-11.15 47.03-23.73 93.51-35.36 140.32-8.1 32.59-18.13 76.6-42.38 100.859-2.53.2-4.96.551-7.27 1.051-20.66-18.341-33.15-31.15-41.87-59.48-10.04-32.59-33.83-53.82-24.5-103.54 7.64-40.7 32.22-118.1 75.46-133.8 11.15-4.05 69.42-16.67 73.37-11.93 4.43 5.34 10.15 12.95 12.93 20.53.48 5.01.89 9.86.96 14.41h.01z" fill="#00e800"/><path d="M131.48 495.91c14.29-20.36 39.26-33.45 80.62-26.24 8.72 28.33 21.21 41.14 41.87 59.48-23.82 5.069-35.18 24.84-20.79 51.67 11.86 22.12 68.17 42.989 82.51 63.43 15.85 22.58 72.41 75.54 143.1 75.54 78.66 0 151.42-55.24 158.33-91.82.7-3.72 2.32-7.33 4.55-10.729l1.54.81c.03 71.53-23.29 127.3-93.64 145.78-75.96 19.939-180.97 19.95-232.45-50.57-13.31-18.22-18.83-34.97-44.05-35.89-26.52-.97-51.77 6.35-77.45-5.57-21.44-9.939-41.23-52.17-53.81-74.96-8.62-15.601-13.56-67.861 9.67-100.931z" fill="#00e800"/><g fill="none" stroke="#000" stroke-width="20.715"><path d="M212.1 469.67c-41.36-7.21-66.33 5.88-80.62 26.24-23.23 33.07-18.29 85.33-9.67 100.93 12.58 22.79 32.37 65.021 53.81 74.96 25.68 11.92 50.93 4.601 77.45 5.57 25.22.92 30.74 17.67 44.05 35.89 51.48 70.521 156.49 70.51 232.45 50.57 70.35-18.48 93.67-74.25 93.64-145.78M730.62 255.26c-30.54 16.72-57.021 37.57-57.38 73.84-.141 13.64-1.431 28.26-.03 41.79 1.81 17.38 9.82 33.08 11.53 50.63 3.59 36.7-5.181 67.02-22.76 98.68-3.12 5.63-6.48 11.31-9.5 17.13-4.7 9.01-8.601 18.4-9.61 28.55-.5 5.04 3.09 25.29 6.18 30.36.51.83 1 1.25 1.46 1.14"/><path d="M651.91 537.04c-19.79-31.06-65.44-32.99-99.311-21.24-5.439 1.88-10.569 4.11-15.239 6.641-21.64 11.699-39.86 29.899-62.01 40.439-21.72 10.351-47.409 7.23-70.47 3.58-25.93-4.08-48.52-9.91-72.88-20.44-4.8-2.069-9.58-4.13-14.38-6.069-14.95-6.04-30.1-10.99-46.52-11.95-3.43-.2-6.73-.16-9.86.1-2.53.2-4.96.551-7.27 1.051-23.82 5.069-35.18 24.84-20.79 51.67 11.86 22.12 68.17 42.989 82.51 63.43 15.85 22.58 72.41 75.54 143.1 75.54 78.66 0 151.42-55.24 158.33-91.82.7-3.72 2.32-7.33 4.55-10.729 5.71-8.67 15.5-15.91 24.6-19.86.931-.399 1.86-.78 2.78-1.14 13.08-5.11 26.12-6.63 38.84-14.04 37.5-21.88 59.841-49.79 75.391-89.681 18.56-47.63 21-97.66 4.26-146.35-6.17-17.94-15.16-34.77-21.021-52.71-2.739-8.38-13.489-20.28-13.779-26.97-.181-4.01-.92-7.74-2.12-11.23-8.63-25.09-41.29-37.29-62.72-42.65-30.92-7.73-101.94-82.83-123.551-104.44-28.04-28.04-65.869-38.88-109.17-31.4-44.02 7.6-82 1.41-109.979 40.19-20.93 29.02-31.41 59.41-65.11 76-34.49 16.98-58.38 21.94-94.32 41.18-40.31 21.58-110.34 86.92-80.34 192.44 5.1 17.92 33.87 44.47 46.05 69.33.01.02.02.03.03.05"/><path d="M553.12 516.83c-.16-.35-.34-.69-.521-1.03-5.229-9.76-17.909-17.53-26.17-24.569-11.39-9.721-23.229-18.971-32.779-30.5-21.681-26.221-31.591-56.621-28.96-90.911 2.1-27.43 10.89-55.96 34.649-72.18 21.96-14.99 67.061-17.96 90.34-2.63M317.62 539.95c19.46-12.22 39.53-47.48 47.17-63.78 12-25.58 10.17-48.32 15.17-74.9 4.71-25.06 25.39-45.02 42.63-62.66 25.9-26.49 57.24-52.08 60.75-90.54M350.34 255.33c.42-1.94.68-3.84.71-5.68.05-2.81-.59-5.76-1.69-8.72-2.78-7.58-8.5-15.19-12.93-20.53-3.95-4.74-62.22 7.88-73.37 11.93-43.24 15.7-67.82 93.1-75.46 133.8-9.33 49.72 14.46 70.95 24.5 103.54 8.72 28.33 21.21 41.14 41.87 59.48.01 0 .02.01.03.02"/><path d="M261.24 528.1c24.25-24.26 34.28-68.27 42.38-100.859 11.63-46.81 24.21-93.29 35.36-140.32 2.34-9.87 9.12-21.32 11.35-31.58"/><path d="M350.32 255.34c-.07-4.55-.48-9.4-.96-14.41-1.64-17.04-4.14-35.92 2.79-50.97 11.13-24.16 41.45-39.82 66.78-39.82 48.8 0 110.69 63.75 129.45 75.69 32 20.36 51.17-23.97 116.351 41.22 19.81 19.81-4.04 72.69 2.479 98.33-28.35-11.53-39.93-31.78-60.21-54.04a157.005 157.005 0 0 0-17.3-16.32c-.01 0-.01-.01-.021-.01-24.29-19.74-53.35-31.74-83.88-39.72-10.2-2.66-17.14-5.05-22.46-7.22-16.05-6.55-17.39-11.11-49.21-15.26-10.29-1.34-56 .14-83.79 22.52l-.01.01h-.009"/></g><path fill="none" d="M.25.25h850.394v850.394H.25z"/></svg>