<?xml version="1.0" encoding="iso-8859-1"?>
<!-- Generator: Adobe Illustrator 12.0.1, SVG Export Plug-In . SVG Version: 6.00 Build 51448)  -->
<!DOCTYPE svg PUBLIC "-//W3C//DTD SVG 1.1//EN" "http://www.w3.org/Graphics/SVG/1.1/DTD/svg11.dtd" [
	<!ENTITY ns_svg "http://www.w3.org/2000/svg">
	<!ENTITY ns_xlink "http://www.w3.org/1999/xlink">
]>
<svg  version="1.1" id="Layer_1" xmlns="&ns_svg;" xmlns:xlink="&ns_xlink;" width="850.394" height="850.394"
	 viewBox="0 0 850.394 850.394" style="overflow:visible;enable-background:new 0 0 850.394 850.394;" xml:space="preserve">
<g>
	<g id="XMLID_83_">
		<g>
			<g id="XMLID_84_">
				<g>
					<g id="XMLID_11_">
						<g>
							<polygon style="fill:#FBEE34;" points="689.157,477.038 689.157,416.063 689.157,349.377 689.157,291.028 771.32,262.458 
								771.32,567.264 689.157,538.683 689.157,538.067 							"/>
							<path style="fill:#9E5B16;" d="M432.024,426.851c56.986,0,104.802-19.673,112.479-46.717h0.692l0.197,32.415
								c-1.461,34.59-53.438,62.479-113.886,62.479c-61.326,0-111.898-28.592-111.898-63.863v-34.842
								C324.838,404.662,373.181,426.851,432.024,426.851z"/>
							<path style="fill:#9E5B16;" d="M523.743,377.476l-91.719-6.261l87.018-35.447c0-0.011-0.011-0.011-0.011-0.011
								c-0.011-0.011-0.021-0.011-0.033-0.022c0.362,0,4.098,0.67,4.734,0.681h0.011v41.038V377.476z"/>
							<path style="fill:#FFFFFF;" d="M518.01,335.164c-0.659-0.384-1.329-0.758-2.01-1.131
								C516.681,334.395,517.351,334.779,518.01,335.164z"/>
							<path style="fill:#9E5B16;" d="M357.088,375.125c3.328,1.922,7.964,2.449,11.204,1.746c2.691-0.582,5.558-1.604,7.634-3.471
								c2.537-2.285,4.141-5.723,4.152-8.931c0-6.283-2.691-9.523-8.029-12.566c-1.077-0.604-6.206-2.658-7.404-1.099
								c-0.868,1.121,1.846,4.68,1.846,7.371c0,2.702-3.592,3.592-3.592,3.592c-1.274,0.473-4.218,0.319-6.239,1.055
								c-2.658,0.978-3.855,3.405-3.735,6.129C353.057,371.742,354.749,373.774,357.088,375.125z M421.853,351.223
								c3.339,1.933,7.975,2.45,11.204,1.758c2.691-0.583,5.558-1.615,7.634-3.471c2.537-2.296,4.142-5.734,4.152-8.93
								c0.011-6.294-2.691-9.535-8.029-12.566c-1.077-0.615-6.206-2.658-7.404-1.109c-0.867,1.121,1.846,4.679,1.846,7.381
								c0,2.691-3.592,3.581-3.592,3.581c-1.274,0.472-4.218,0.318-6.239,1.065c-2.658,0.978-3.855,3.405-3.724,6.129
								C417.821,347.839,419.524,349.883,421.853,351.223z M421.424,409.978c3.329,1.922,7.975,2.45,11.204,1.758
								c2.691-0.583,5.559-1.615,7.623-3.482c2.549-2.285,4.152-5.734,4.163-8.919c0.012-6.294-2.69-9.535-8.04-12.577
								c-1.065-0.604-6.195-2.647-7.403-1.099c-0.857,1.121,1.845,4.68,1.845,7.382c0,2.691-3.581,3.581-3.581,3.581
								c-1.285,0.473-4.218,0.319-6.239,1.055c-2.658,0.978-3.867,3.405-3.735,6.14
								C417.393,406.595,419.084,408.627,421.424,409.978z M484.814,322.026c0.956,0.242,1.9,0.494,2.846,0.758
								c0.318,0.088,0.626,0.176,0.944,0.274c2.329,0.659,4.603,1.373,6.832,2.12c0.33,0.11,0.659,0.22,0.989,0.34
								c1.109,0.374,2.196,0.758,3.262,1.154c0.253,0.088,0.494,0.187,0.736,0.274c0.813,0.308,1.614,0.615,2.405,0.923
								c0.77,0.308,1.538,0.626,2.285,0.944c1.955,0.813,3.845,1.659,5.679,2.538c0.703,0.34,1.406,0.692,2.098,1.033
								c1.055,0.538,2.099,1.087,3.109,1.647c0.681,0.374,1.351,0.747,2.01,1.131c0.329,0.187,0.648,0.374,0.978,0.571
								c0,0,0,0,0.011,0c0.012,0.011,0.022,0.011,0.033,0.022c0,0,0.011,0,0.011,0.011l-87.018,35.447l91.719,6.261l21.453,1.472
								v1.187h-0.692c-7.678,27.043-55.493,46.717-112.479,46.717c-58.844,0-107.186-22.189-112.415-50.528
								c-0.308-1.681-0.473-3.383-0.473-5.108c0-30.734,50.55-55.636,112.887-55.636c5.602,0,11.104,0.198,16.487,0.582
								c0.725,0.055,1.45,0.11,2.175,0.176c0.429,0.033,0.856,0.066,1.274,0.11c0.296,0.022,0.593,0.044,0.89,0.077
								c1.691,0.154,3.372,0.33,5.03,0.517c1.396,0.165,2.779,0.34,4.142,0.516c7.052,0.967,13.829,2.241,20.255,3.822
								C483.135,321.587,483.98,321.807,484.814,322.026z"/>
							<path style="fill:#9E5B16;" d="M484.814,322.026c-0.834-0.22-1.68-0.439-2.537-0.648
								C483.135,321.587,483.98,321.795,484.814,322.026z"/>
							<path style="fill:#FBEE34;" d="M689.157,477.038v61.029H152.164v-61.645v-60.985v-66.675v-58.338h536.994v0.604v58.349
								v66.686V477.038z M431.508,510.54c61.314,0,112.305-28.592,114.072-65.632l-0.187-32.36l-0.197-32.415v-1.187l-21.453-1.472
								v-0.022v-41.038h-0.011c-0.637-0.011-4.372-0.681-4.734-0.681c-0.011,0-0.011,0-0.011,0
								c-0.329-0.198-0.648-0.385-0.978-0.571c-0.659-0.384-1.329-0.769-2.01-1.131c-1.011-0.56-2.055-1.109-3.109-1.647
								c-0.691-0.341-1.395-0.692-2.098-1.033c-1.834-0.879-3.724-1.725-5.679-2.538c-0.747-0.318-1.516-0.637-2.285-0.944
								c-0.791-0.308-1.593-0.615-2.405-0.923c-0.242-0.088-0.483-0.187-0.736-0.274c-1.065-0.396-2.152-0.78-3.262-1.154
								c-0.33-0.121-0.659-0.23-0.989-0.34c-2.229-0.747-4.503-1.461-6.832-2.12c-0.318-0.099-0.626-0.187-0.944-0.274
								c-0.945-0.264-1.89-0.516-2.846-0.758c-0.834-0.231-1.68-0.439-2.537-0.648c-6.426-1.582-13.203-2.855-20.255-3.822
								c-1.362-0.176-2.746-0.352-4.142-0.516c-1.658-0.187-3.339-0.363-5.03-0.517c-0.297-0.033-0.594-0.055-0.89-0.077
								c-0.418-0.044-0.846-0.077-1.274-0.11c-0.725-0.066-1.45-0.121-2.175-0.176c-5.383-0.384-10.886-0.582-16.487-0.582
								c-62.337,0-112.887,24.901-112.887,55.636c0,1.725,0.165,3.427,0.473,5.108v34.842v0.571c0,0,0,28.417,0,34.941
								C319.61,481.948,370.182,510.54,431.508,510.54z"/>
							<path style="fill:#FFD3F7;" d="M436.45,342.369c5.163-5.173-0.769-14.323-7.041-15.466c1.198-1.549,6.327,0.494,7.404,1.109
								c5.338,3.032,8.04,6.272,8.029,12.566c-0.011,3.196-1.615,6.634-4.152,8.93c-2.076,1.856-4.942,2.889-7.634,3.471
								c-3.229,0.692-7.865,0.175-11.204-1.758C423.478,343.237,431.859,346.95,436.45,342.369z"/>
							<path style="fill:#FFD3F7;" d="M436.374,386.757c5.35,3.042,8.052,6.283,8.04,12.577c-0.011,3.186-1.614,6.634-4.163,8.919
								c-2.064,1.867-4.932,2.899-7.623,3.482c-3.229,0.692-7.875,0.165-11.204-1.758c1.615-7.985,10.007-4.284,14.588-8.864
								c5.173-5.163-0.759-14.313-7.041-15.455C430.179,384.11,435.309,386.153,436.374,386.757z"/>
							<path style="fill:#FFD3F7;" d="M429.409,326.903c6.272,1.143,12.204,10.292,7.041,15.466
								c-4.591,4.581-12.972,0.868-14.598,8.854c-2.329-1.34-4.031-3.383-4.152-6.162c-0.132-2.724,1.065-5.152,3.724-6.129
								c2.021-0.747,4.965-0.593,6.239-1.065c0,0,3.592-0.89,3.592-3.581C431.255,331.583,428.542,328.024,429.409,326.903z"/>
							<path style="fill:#FFD3F7;" d="M428.971,385.659c6.282,1.143,12.214,10.292,7.041,15.455
								c-4.581,4.581-12.973,0.879-14.588,8.864c-2.339-1.351-4.031-3.383-4.163-6.162c-0.132-2.735,1.077-5.163,3.735-6.14
								c2.021-0.736,4.954-0.582,6.239-1.055c0,0,3.581-0.89,3.581-3.581C430.815,390.338,428.113,386.779,428.971,385.659z"/>
							<path style="fill:#FFD3F7;" d="M372.049,351.904c5.338,3.042,8.029,6.283,8.029,12.566c-0.011,3.208-1.615,6.646-4.152,8.931
								c-2.076,1.867-4.943,2.889-7.634,3.471c-3.24,0.703-7.876,0.176-11.204-1.746c1.626-7.986,10.007-4.273,14.598-8.865
								c5.163-5.173-0.769-14.313-7.041-15.455C365.843,349.246,370.973,351.3,372.049,351.904z"/>
							<path style="fill:#FFD3F7;" d="M364.646,350.805c6.272,1.143,12.204,10.282,7.041,15.455
								c-4.591,4.592-12.972,0.879-14.598,8.865c-2.339-1.351-4.031-3.383-4.163-6.173c-0.121-2.724,1.077-5.152,3.735-6.129
								c2.021-0.736,4.965-0.582,6.239-1.055c0,0,3.592-0.89,3.592-3.592C366.491,355.485,363.778,351.926,364.646,350.805z"/>
							<path style="fill:#9E5B16;" d="M431.508,475.027c60.447,0,112.425-27.889,113.886-62.479l0.187,32.36
								c-1.768,37.04-52.758,65.632-114.072,65.632c-61.326,0-111.898-28.592-111.898-63.863c0-6.524,0-34.941,0-34.941v-0.571
								C319.61,446.436,370.182,475.027,431.508,475.027z"/>
							<polygon style="fill:#FBEE34;" points="152.164,476.423 152.164,538.067 70,566.648 70,261.843 152.164,290.413 
								152.164,290.424 152.164,348.762 152.164,415.438 							"/>
						</g>
						<g>
							<polyline style="fill:none;stroke:#231F20;stroke-width:23.0672;" points="152.164,290.424 689.157,290.424 689.157,291.028 
															"/>
							<line style="fill:none;stroke:#231F20;stroke-width:23.0672;" x1="689.157" y1="538.067" x2="152.164" y2="538.067"/>
							<polygon style="fill:none;stroke:#231F20;stroke-width:23.0672;" points="152.164,538.067 70,566.648 70,261.843 
								152.164,290.413 152.164,290.424 152.164,348.762 152.164,415.438 152.164,476.423 							"/>
							<line style="fill:none;stroke:#231F20;stroke-width:15.3781;" x1="103.349" y1="415.438" x2="152.164" y2="415.438"/>
							<line style="fill:none;stroke:#231F20;stroke-width:15.3781;" x1="100.965" y1="329.122" x2="152.164" y2="348.762"/>
							<line style="fill:none;stroke:#231F20;stroke-width:15.3781;" x1="152.164" y1="476.423" x2="100.965" y2="496.074"/>
							<polygon style="fill:none;stroke:#231F20;stroke-width:23.0672;" points="689.157,538.067 689.157,538.683 771.32,567.264 
								771.32,262.458 689.157,291.028 689.157,349.377 689.157,416.063 689.157,477.038 							"/>
							<line style="fill:none;stroke:#231F20;stroke-width:15.3781;" x1="737.972" y1="416.063" x2="689.157" y2="416.063"/>
							<line style="fill:none;stroke:#231F20;stroke-width:15.3781;" x1="740.355" y1="329.737" x2="689.157" y2="349.377"/>
							<polyline style="fill:none;stroke:#231F20;stroke-width:15.3781;" points="689.146,477.038 689.157,477.038 740.345,496.689 
															"/>
							<path style="fill:none;stroke:#231F20;stroke-width:15.3781;stroke-linecap:round;stroke-linejoin:round;" d="
								M187.544,322.564c19.256,0,34.864,41.576,34.864,92.873c0,51.286-15.608,92.873-34.864,92.873
								c-0.835,0-1.669-0.066-2.494-0.22"/>
							<path style="fill:none;stroke:#231F20;stroke-width:15.3781;stroke-linecap:round;stroke-linejoin:round;" d="
								M654.15,322.564c-19.256,0-34.876,41.576-34.876,92.873c0,51.286,15.62,92.873,34.876,92.873c0.835,0,1.67-0.066,2.493-0.22"
								/>
							<path style="fill:none;stroke:#000000;stroke-width:7.6891;" d="M319.61,411.165c0,35.271,50.572,63.863,111.898,63.863
								c60.447,0,112.425-27.889,113.886-62.479c0.022-0.494,0.033-1,0.033-1.494"/>
							<polyline style="fill:none;stroke:#000000;stroke-width:7.4184;" points="523.743,336.361 523.743,336.416 523.743,377.454 
															"/>
							<path style="fill:none;stroke:#000000;stroke-width:7.6891;" d="M518.987,335.735c-0.329-0.198-0.648-0.385-0.978-0.571
								c-0.659-0.384-1.329-0.758-2.01-1.131c-1.011-0.56-2.055-1.109-3.109-1.647c-0.691-0.341-1.395-0.692-2.098-1.033
								c-1.834-0.879-3.724-1.725-5.679-2.538c-0.747-0.318-1.516-0.637-2.285-0.944c-0.791-0.308-1.593-0.615-2.405-0.923
								c-0.242-0.088-0.483-0.187-0.736-0.274c-1.065-0.396-2.152-0.78-3.262-1.154c-0.33-0.121-0.659-0.23-0.989-0.34
								c-2.229-0.747-4.503-1.461-6.832-2.12c-0.318-0.099-0.626-0.187-0.944-0.274c-0.945-0.264-1.89-0.516-2.846-0.758
								c-0.834-0.231-1.68-0.439-2.537-0.648c-6.426-1.582-13.203-2.855-20.255-3.822c-1.362-0.176-2.746-0.352-4.142-0.516
								c-1.658-0.187-3.339-0.363-5.03-0.517c-0.297-0.033-0.594-0.055-0.89-0.077c-0.418-0.044-0.846-0.077-1.274-0.11
								c-0.725-0.066-1.45-0.121-2.175-0.176c-5.383-0.384-10.886-0.582-16.487-0.582c-62.337,0-112.887,24.901-112.887,55.636
								c0,1.725,0.165,3.427,0.473,5.108c5.229,28.339,53.571,50.528,112.415,50.528c56.986,0,104.802-19.673,112.479-46.717"/>
							<path style="fill:none;stroke:#000000;stroke-width:7.6891;" d="M319.61,376.157v0.165v34.842v0.571c0,0,0,28.417,0,35.512
								v-0.571c0,35.271,50.572,63.863,111.898,63.863c61.314,0,112.305-28.592,114.072-65.632l-0.187-32.36l-0.197-32.415v-1.187
								l-21.453-1.472l-91.719-6.261l87.018-35.447c0-0.011-0.011-0.011-0.011-0.011c-0.011-0.011-0.021-0.011-0.033-0.022"/>
							<path style="fill:none;stroke:#000000;stroke-width:4.9456;" d="M364.646,350.805c1.198-1.56,6.327,0.495,7.404,1.099
								c5.338,3.042,8.029,6.283,8.029,12.566c-0.011,3.208-1.615,6.646-4.152,8.931c-2.076,1.867-4.943,2.889-7.634,3.471
								c-3.24,0.703-7.876,0.176-11.204-1.746c-2.339-1.351-4.031-3.383-4.163-6.173c-0.121-2.724,1.077-5.152,3.735-6.129
								c2.021-0.736,4.965-0.582,6.239-1.055c0,0,3.592-0.89,3.592-3.592C366.491,355.485,363.778,351.926,364.646,350.805z"/>
							<path style="fill:none;stroke:#000000;stroke-width:4.9456;" d="M357.088,375.125c1.626-7.986,10.007-4.273,14.598-8.865
								c5.163-5.173-0.769-14.313-7.041-15.455"/>
							<path style="fill:none;stroke:#000000;stroke-width:4.9456;" d="M429.409,326.903c1.198-1.549,6.327,0.494,7.404,1.109
								c5.338,3.032,8.04,6.272,8.029,12.566c-0.011,3.196-1.615,6.634-4.152,8.93c-2.076,1.856-4.942,2.889-7.634,3.471
								c-3.229,0.692-7.865,0.175-11.204-1.758c-2.329-1.34-4.031-3.383-4.152-6.162c-0.132-2.724,1.065-5.152,3.724-6.129
								c2.021-0.747,4.965-0.593,6.239-1.065c0,0,3.592-0.89,3.592-3.581C431.255,331.583,428.542,328.024,429.409,326.903z"/>
							<path style="fill:none;stroke:#000000;stroke-width:4.9456;" d="M421.853,351.223c1.625-7.985,10.007-4.273,14.598-8.854
								c5.163-5.173-0.769-14.323-7.041-15.466"/>
							<path style="fill:none;stroke:#000000;stroke-width:4.9456;" d="M428.971,385.659c1.208-1.549,6.338,0.495,7.403,1.099
								c5.35,3.042,8.052,6.283,8.04,12.577c-0.011,3.186-1.614,6.634-4.163,8.919c-2.064,1.867-4.932,2.899-7.623,3.482
								c-3.229,0.692-7.875,0.165-11.204-1.758c-2.339-1.351-4.031-3.383-4.163-6.162c-0.132-2.735,1.077-5.163,3.735-6.14
								c2.021-0.736,4.954-0.582,6.239-1.055c0,0,3.581-0.89,3.581-3.581C430.815,390.338,428.113,386.779,428.971,385.659z"/>
							<path style="fill:none;stroke:#000000;stroke-width:4.9456;" d="M421.424,409.978c1.615-7.985,10.007-4.284,14.588-8.864
								c5.173-5.163-0.759-14.313-7.041-15.455"/>
							<path style="fill:none;stroke:#000000;stroke-width:7.4184;" d="M518.998,335.735c-0.011,0-0.011,0-0.011,0"/>
						</g>
					</g>
				</g>
			</g>
		</g>
	</g>
</g>
<rect style="fill:none;" width="850.394" height="850.394"/>
</svg>
