<svg xmlns="http://www.w3.org/2000/svg" width="850.394" height="850.394" viewBox="0 0 850.394 850.394" overflow="visible"><path d="M762.81 368.78l-14.56 208.11s-6.26 45.95-52.21 91.891c-45.95 45.95-90.64 73.819-154.56 87.729-52.73 11.471-102.311 13.07-112.78 13.23 0 0-60.75-1.59-113.49-13.07-63.91-13.91-108.6-41.77-154.55-87.72-45.95-45.95-52.22-91.9-52.22-91.9L93.97 370.13C142.11 452.91 273.48 512.3 428 512.3c155.35 0 287.3-60.04 334.81-143.52z" fill="#f73900"/><path d="M762.81 368.78C715.3 452.26 583.35 512.3 428 512.3c-154.52 0-285.89-59.39-334.03-142.17-12.73-21.86-19.64-45.36-19.64-69.82C74.33 183.23 232.67 88.32 428 88.32c195.32 0 353.66 94.91 353.66 211.99 0 23.96-6.63 46.99-18.85 68.47z" fill="#c8c8c8"/><g fill="none" stroke="#000"><path d="M93.97 370.13c-12.73-21.86-19.64-45.36-19.64-69.82C74.33 183.23 232.67 88.32 428 88.32c195.32 0 353.66 94.91 353.66 211.99 0 23.96-6.63 46.99-18.851 68.47C715.3 452.26 583.35 512.3 428 512.3c-154.52 0-285.89-59.39-334.03-142.17z" stroke-width="33.417"/><path d="M763.28 361.99l-.471 6.79-14.56 208.11s-6.26 45.95-52.21 91.891c-45.95 45.95-90.64 73.819-154.56 87.729-52.73 11.471-102.311 13.07-112.78 13.23 0 0-60.75-1.59-113.49-13.07-63.91-13.91-108.6-41.77-154.55-87.72-45.95-45.95-52.22-91.9-52.22-91.9L93.97 370.13l-.56-7.98" stroke-width="25.063"/><path d="M146.03 424.26c32.48-67.11 145.74-116.64 280.49-116.64 134.811 0 248.131 49.59 280.551 116.76" stroke-width="25.063"/></g><path fill="none" d="M0 0h850.394v850.394H0z"/></svg>