<?xml version="1.0" encoding="iso-8859-1"?>
<!-- Generator: Adobe Illustrator 12.0.1, SVG Export Plug-In . SVG Version: 6.00 Build 51448)  -->
<!DOCTYPE svg PUBLIC "-//W3C//DTD SVG 1.1//EN" "http://www.w3.org/Graphics/SVG/1.1/DTD/svg11.dtd" [
	<!ENTITY ns_svg "http://www.w3.org/2000/svg">
	<!ENTITY ns_xlink "http://www.w3.org/1999/xlink">
]>
<svg  version="1.1" id="Layer_1" xmlns="&ns_svg;" xmlns:xlink="&ns_xlink;" width="851.2" height="851.2"
	 viewBox="0 0 851.2 851.2" style="overflow:visible;enable-background:new 0 0 851.2 851.2;" xml:space="preserve">
<g id="XMLID_7_">
	<g>
		<path style="fill:#C8C8C8;" d="M608.47,55.97c41.62,0,75.33,35.21,75.33,78.53v590.91c0,43.32-33.71,78.53-75.33,78.53H243.04
			c-41.62,0-75.43-35.21-75.43-78.53V134.5c0-43.32,33.81-78.53,75.43-78.53H608.47z M633.88,740.32v-65.53h-73.12v65.53H633.88z
			 M633.88,635.48V569.96h-73.12v65.521H633.88z M633.88,530.14v-65.52h-73.12v65.52H633.88z M633.88,424.8v-65.52h-73.12v65.52
			H633.88z M623.87,229.64V116.59H229.33v113.05H623.87z M623.07,310.36v-30.71h-75.32v30.71H623.07z M520.63,740.021V674.5h-73.02
			v65.521H520.63z M520.63,635.18v-65.52h-73.02v65.52H520.63z M520.63,529.85V464.32h-73.02v65.529H520.63z M520.63,424.51v-65.63
			h-73.02v65.63H520.63z M407.8,740.021V674.5h-73.13v65.521H407.8z M407.8,635.18v-65.52h-73.13v65.52H407.8z M407.8,529.85V464.32
			h-73.13v65.529H407.8z M407.8,424.51v-65.63h-73.13v65.63H407.8z M295.36,740.021V674.39h-73.03v65.631H295.36z M295.36,635.08
			v-65.52h-73.03v65.52H295.36z M295.36,529.74V464.22h-73.03v65.521H295.36z M295.36,424.4v-65.52h-73.03v65.52H295.36z"/>
		<rect x="560.76" y="674.79" style="fill:#A800D4;" width="73.12" height="65.53"/>
		<rect x="560.76" y="569.96" style="fill:#0B00EA;" width="73.12" height="65.521"/>
		<rect x="560.76" y="464.62" style="fill:#0B00EA;" width="73.12" height="65.52"/>
		<rect x="560.76" y="359.28" style="fill:#0B00EA;" width="73.12" height="65.52"/>
		<rect x="229.33" y="116.59" style="fill:#A3D9FF;" width="394.54" height="113.05"/>
		<rect x="547.75" y="279.65" width="75.32" height="30.71"/>
		<rect x="447.61" y="674.5" style="fill:#F73900;" width="73.02" height="65.521"/>
		<rect x="447.61" y="569.66" style="fill:#0B00EA;" width="73.02" height="65.52"/>
		<rect x="447.61" y="464.32" style="fill:#0B00EA;" width="73.02" height="65.529"/>
		<rect x="447.61" y="358.88" style="fill:#0B00EA;" width="73.02" height="65.63"/>
		<rect x="334.67" y="674.5" style="fill:#F73900;" width="73.13" height="65.521"/>
		<rect x="334.67" y="569.66" style="fill:#0B00EA;" width="73.13" height="65.52"/>
		<rect x="334.67" y="464.32" style="fill:#0B00EA;" width="73.13" height="65.529"/>
		<rect x="334.67" y="358.88" style="fill:#0B00EA;" width="73.13" height="65.63"/>
		<rect x="222.33" y="674.39" style="fill:#F73900;" width="73.03" height="65.631"/>
		<rect x="222.33" y="569.561" style="fill:#F73900;" width="73.03" height="65.52"/>
		<rect x="222.33" y="464.22" style="fill:#0B00EA;" width="73.03" height="65.521"/>
		<rect x="222.33" y="358.88" style="fill:#0B00EA;" width="73.03" height="65.52"/>
	</g>
	<g>
		<path style="fill:none;stroke:#000000;stroke-width:27.6854;" d="M683.8,134.5v590.91c0,43.32-33.71,78.53-75.33,78.53H243.04
			c-41.62,0-75.43-35.21-75.43-78.53V134.5c0-43.32,33.81-78.53,75.43-78.53h365.43C650.09,55.97,683.8,91.18,683.8,134.5z"/>
		<rect x="229.33" y="116.59" style="fill:none;stroke:#000000;stroke-width:27.6854;" width="394.54" height="113.05"/>
		<rect x="547.75" y="279.65" style="fill:none;stroke:#000000;stroke-width:27.6854;" width="75.32" height="30.71"/>
		<rect x="222.33" y="358.88" style="fill:none;stroke:#000000;stroke-width:27.6854;" width="73.03" height="65.52"/>
		<rect x="334.67" y="358.88" style="fill:none;stroke:#000000;stroke-width:27.6854;" width="73.13" height="65.63"/>
		<rect x="447.61" y="358.88" style="fill:none;stroke:#000000;stroke-width:27.6854;" width="73.02" height="65.63"/>
		<rect x="560.76" y="359.28" style="fill:none;stroke:#000000;stroke-width:27.6854;" width="73.12" height="65.52"/>
		<rect x="222.33" y="464.22" style="fill:none;stroke:#000000;stroke-width:27.6854;" width="73.03" height="65.521"/>
		<rect x="334.67" y="464.32" style="fill:none;stroke:#000000;stroke-width:27.6854;" width="73.13" height="65.529"/>
		<rect x="447.61" y="464.32" style="fill:none;stroke:#000000;stroke-width:27.6854;" width="73.02" height="65.529"/>
		<rect x="560.76" y="464.62" style="fill:none;stroke:#000000;stroke-width:27.6854;" width="73.12" height="65.52"/>
		<rect x="222.33" y="569.561" style="fill:none;stroke:#000000;stroke-width:27.6854;" width="73.03" height="65.52"/>
		<rect x="334.67" y="569.66" style="fill:none;stroke:#000000;stroke-width:27.6854;" width="73.13" height="65.52"/>
		<rect x="447.61" y="569.66" style="fill:none;stroke:#000000;stroke-width:27.6854;" width="73.02" height="65.52"/>
		<rect x="560.76" y="569.96" style="fill:none;stroke:#000000;stroke-width:27.6854;" width="73.12" height="65.521"/>
		<rect x="222.33" y="674.39" style="fill:none;stroke:#000000;stroke-width:27.6854;" width="73.03" height="65.631"/>
		<rect x="334.67" y="674.5" style="fill:none;stroke:#000000;stroke-width:27.6854;" width="73.13" height="65.521"/>
		<rect x="447.61" y="674.5" style="fill:none;stroke:#000000;stroke-width:27.6854;" width="73.02" height="65.521"/>
		<rect x="560.76" y="674.79" style="fill:none;stroke:#000000;stroke-width:27.6854;" width="73.12" height="65.53"/>
	</g>
</g>
<rect x="0.25" y="0.25" style="fill:none;" width="850.7" height="850.7"/>
</svg>
