<svg xmlns="http://www.w3.org/2000/svg" width="850.394" height="850.394" viewBox="0 0 850.394 850.394" overflow="visible"><path d="M757.66 449.42s1.33.59 3.07 1.94l-1.03.92c-2.75 1.09-5.42 2.04-8.07 2.859l-.1-3.68c-5.891-2.49-17.15-8.09-20.59-13.84-7.641-12.74 10.829-11.43 18.96-11.47l3.02.14c6.85 12.011 4.74 23.131 4.74 23.131z" fill="orange"/><path d="M92.88 393.2c.64.94 15.61 23.25 15.61 28.05 0 4.9-4.9 9.8-17.15 9.8l-3.36-.34c1-10.26 2.89-27.77 4.59-33.14.43-1.37.47-2.85.31-4.37z" fill="#ff001c"/><path d="M217.63 481.69c8.64 0 15.64 7.369 15.64 16.46 0 9.09-7 16.47-15.64 16.47-8.65 0-15.66-7.38-15.66-16.47s7.01-16.46 15.66-16.46z" fill="#c8c8c8"/><path d="M217.63 455.96c23.3 0 42.18 18.89 42.18 42.2 0 23.29-18.88 42.18-42.18 42.18s-42.19-18.89-42.19-42.18c0-23.31 18.89-42.2 42.19-42.2zm15.64 42.19c0-9.091-7-16.46-15.64-16.46-8.65 0-15.66 7.369-15.66 16.46 0 9.09 7.01 16.47 15.66 16.47 8.64 0 15.64-7.38 15.64-16.47zM674.23 476.37c8.649 0 15.649 7.37 15.649 16.46s-7 16.47-15.649 16.47c-8.641 0-15.65-7.38-15.65-16.47s7.01-16.46 15.65-16.46z" fill="#c8c8c8"/><path d="M674.23 450.64c23.31 0 42.189 18.891 42.189 42.2 0 23.29-18.88 42.18-42.189 42.18-23.301 0-42.181-18.89-42.181-42.18.001-23.31 18.881-42.2 42.181-42.2zm15.65 42.19c0-9.09-7-16.46-15.649-16.46-8.641 0-15.65 7.37-15.65 16.46s7.01 16.47 15.65 16.47c8.649 0 15.649-7.38 15.649-16.47z" fill="#c8c8c8"/><path d="M87.26 438.4l89.42 8.89c-27.14 17.54-24.77 57.04-24.77 57.04l-59.34-6.73s-6.53-18.779-11.84-34.71c-5.31-15.92 6.53-24.49 6.53-24.49zM760.73 451.36c3.729 2.87 9.359 9.189 7.949 20.52-3.319 26.67-3.67 37.561-3.67 37.561s-7.35 5.3-22.87 5.3l-8.569-.13c5.819-27.891-4.04-47.2-9.63-55.42l3.1-.381c8.92 0 16.65-1.229 24.59-3.67 2.65-.819 5.32-1.77 8.07-2.859l1.03-.921z" fill="#787878"/><path d="M353.05 388.86l-.09 3.39-4.27-.12-123.57-3.27-7.82-16.33s54.09-33.21 111.8-38.11c3.73-.32 7.45-.61 11.14-.87l.29 4.14 12.52 51.17z" fill="#fff"/><path d="M553.92 397.57l-200.96-5.32.09-3.39-12.52-51.17-.29-4.14c53.43-3.81 102.46-1.85 131.479 13.94 31.031 16.87 82.201 50.08 82.201 50.08z" fill="#fff"/><path d="M344.89 458.81c17.14 39.74 26.12 59.681 26.12 59.681-49.19-1.721-89.41-3.34-89.41-3.34 0-4.49-1.43-40.21-18.8-57.58a103.05 103.05 0 0 0-3.2-3.07l84.01 1.18a99.4 99.4 0 0 0 1.28 3.129zM566.9 458.81l56.72.79c-24.73 29.23-15.8 62.9-15.8 62.9h-48.181l5.721-35.93c1.38-8.7 1.76-18.27 1.54-27.76z" fill="#00e800"/><path d="M566.9 458.81c.22 9.49-.16 19.061-1.54 27.761l-5.721 35.93H526.98c-33.36 0-100.391-2.07-155.971-4.01 0 0-8.98-19.94-26.12-59.681-.45-1.05-.88-2.1-1.28-3.13l223.291 3.13z" fill="#00e800"/><path d="M348.69 392.13l4.27.12 200.96 5.32s-51.17-33.21-82.2-50.08c-29.02-15.79-78.05-17.75-131.479-13.94-3.69.26-7.41.55-11.14.87-57.71 4.9-111.8 38.11-111.8 38.11l7.82 16.33 123.569 3.27zm397.53 25.44c2.86 2.86 5.05 5.82 6.7 8.72l-3.02-.14c-8.131.04-26.601-1.271-18.96 11.47 3.439 5.75 14.699 11.35 20.59 13.84l.1 3.68c-7.939 2.44-15.67 3.67-24.59 3.67l-3.1.381c-1.99-2.94-3.44-4.46-3.44-4.46-20.14-22.32-59.06-26.171-83.29-7.891-5.39 4.07-9.87 8.36-13.59 12.76l-56.72-.79-223.291-3.13-84.01-1.18h-.01c-15.24-13.96-37.28-24.86-73.12-12.02-3.63 1.3-6.88 2.93-9.79 4.81l-89.42-8.89s.27-3.131.72-7.69l3.36.34c12.25 0 17.15-4.899 17.15-9.8 0-4.8-14.97-27.11-15.61-28.05v-.01c-.74-7.07-5.76-14.81 5-14.81 13.06 0 64.5-6.13 64.5-6.13s82.38-35.24 97.58-41.23c20.21-7.96 66.18-26.09 144.26-19.46 56.549 4.8 75.26 13.43 89.28 21.73 0 0 63 33.02 97.58 55.3.001 0 140.451 14.29 155.141 28.98zm-372.04-5.61c12.66 0 15.21-2.14 13.57-3.78-1.63-1.63-4.32-1.54-4.32-1.54s-23.85-1.93-27.93-1.93-7.65 1.94-6.33 5.51c1.33 3.58 12.35 1.74 25.01 1.74z" fill="#00e800"/><g fill="none" stroke="#231f20"><path d="M92.88 393.2c.16 1.52.12 3-.31 4.37-1.7 5.37-3.59 22.88-4.59 33.14-.45 4.56-.72 7.69-.72 7.69l89.42 8.89" stroke-width="21"/><path d="M259.6 454.5c1.1 1.01 2.17 2.04 3.2 3.07 17.37 17.37 18.8 53.09 18.8 57.58 0 0 40.22 1.619 89.41 3.34 55.58 1.939 122.61 4.01 155.971 4.01h80.84s-8.931-33.67 15.8-62.9c3.72-4.399 8.2-8.689 13.59-12.76 24.23-18.28 63.15-14.43 83.29 7.891 0 0 1.45 1.52 3.44 4.46 5.59 8.22 15.449 27.529 9.63 55.42l8.569.13c15.521 0 22.87-5.3 22.87-5.3s.351-10.891 3.67-37.561c1.41-11.33-4.22-17.649-7.949-20.52-1.74-1.351-3.07-1.94-3.07-1.94s2.109-11.12-4.74-23.13c-1.65-2.9-3.84-5.86-6.7-8.72-14.689-14.69-155.14-28.98-155.14-28.98-34.58-22.28-97.58-55.3-97.58-55.3-14.02-8.3-32.73-16.93-89.28-21.73-78.08-6.63-124.05 11.5-144.26 19.46-15.2 5.99-97.58 41.23-97.58 41.23s-51.44 6.13-64.5 6.13c-10.76 0-5.74 7.74-5 14.81" stroke-width="21"/><path d="M87.26 438.4s-11.84 8.569-6.53 24.489c5.31 15.931 11.84 34.71 11.84 34.71l59.34 6.73s-2.37-39.5 24.77-57.04c2.91-1.88 6.16-3.51 9.79-4.81 35.84-12.841 57.88-1.94 73.12 12.02" stroke-width="21"/><path d="M259.81 498.16c0 23.29-18.88 42.18-42.18 42.18s-42.19-18.89-42.19-42.18c0-23.311 18.89-42.2 42.19-42.2 23.3 0 42.18 18.89 42.18 42.2z" stroke-width="28"/><path d="M233.27 498.15c0 9.09-7 16.47-15.64 16.47-8.65 0-15.66-7.38-15.66-16.47 0-9.091 7.01-16.46 15.66-16.46 8.64 0 15.64 7.37 15.64 16.46z" stroke-width="14"/><path d="M716.42 492.84c0 23.29-18.88 42.18-42.189 42.18-23.301 0-42.181-18.89-42.181-42.18 0-23.31 18.88-42.2 42.181-42.2 23.309 0 42.189 18.89 42.189 42.2z" stroke-width="28"/><path d="M689.88 492.83c0 9.09-7 16.47-15.649 16.47-8.641 0-15.65-7.38-15.65-16.47s7.01-16.46 15.65-16.46c8.649 0 15.649 7.37 15.649 16.46zM92.87 393.17s0 .01.01.02v.01c.64.94 15.61 23.25 15.61 28.05 0 4.9-4.9 9.8-17.15 9.8M340.24 333.55c53.43-3.81 102.46-1.85 131.479 13.94 31.03 16.87 82.2 50.08 82.2 50.08l-200.96-5.32-4.27-.12-123.57-3.27-7.82-16.33s54.09-33.21 111.8-38.11c3.731-.32 7.451-.61 11.141-.87z" stroke-width="14"/><path stroke-width="13.065" d="M340.53 337.69l12.52 51.17"/><path d="M348.69 392.13s-19.85 25.53-5.08 63.55c.4 1.03.83 2.08 1.28 3.13 17.14 39.74 26.12 59.681 26.12 59.681M559.64 400.02s6.57 29.07 7.261 58.79c.22 9.49-.16 19.061-1.54 27.761l-5.721 35.93" stroke-width="7"/><path stroke-width="14" d="M259.59 454.5h.01l84.01 1.18 223.29 3.13 56.72.79h.01M727.04 458.81c8.92 0 16.65-1.229 24.59-3.67 2.65-.819 5.32-1.77 8.07-2.859M749.9 426.15c-8.131.04-26.601-1.271-18.96 11.47 3.439 5.75 14.699 11.35 20.59 13.84"/><path d="M383.43 406.64s-23.85-1.93-27.93-1.93-7.65 1.94-6.33 5.51c1.33 3.58 12.35 1.74 25.01 1.74 12.66 0 15.21-2.14 13.57-3.78-1.63-1.63-4.32-1.54-4.32-1.54z" stroke-width="7"/></g><path fill="none" d="M0 0h850.394v850.394H0z"/></svg>