<svg xmlns="http://www.w3.org/2000/svg" width="850.394" height="850.394" viewBox="0 0 850.394 850.394" overflow="visible"><path d="M748.01 194.41c1.67 1.37 3.96 4.18 3.36 9.05-1.5 11.98-1.66 16.88-1.66 16.88s-3.3 2.38-10.27 2.38l-3.86-.05c2.62-12.54-1.811-21.22-4.32-24.91l1.391-.18c4.01 0 7.479-.55 11.05-1.65 1.189-.37 2.399-.79 3.63-1.28l.679-.24z" fill="#797878"/><path d="M570.17 284.45l4.75-15.26 1.99-6.38s7.46-.16 14.87 6.03c4.529 3.78 10.319 7.78 12.87 8.9 4.069 1.77 11.6 3.9 17.64 3.9 10.94 0 62.81-1.43 62.81-1.43l39.341-1.75s13.779-1.38 19.93 3.08c0 0 1.51.7 3.149 4.42.74 1.69.891 3.3.9 4.26 0 0 .33 2.25-.85 4.95-1.65 3.71-3.15 4.42-3.15 4.42-6 4.72-20.02 3.35-20.02 3.35l-39.33-1.75s-51.87-1.42-62.811-1.42c-10.95 0-18.72 3.65-25.85 5.87-7.141 2.22-24.67 9.75-24.67 9.75-13.09 3.01-21.65-3.57-21.65-3.57-7.85-5-8.41-17.13-8.41-17.13l23.48 5.87 5.011-16.11zm15.48-2.68a8.882 8.882 0 0 0-1.11 2.4l-.64 2.19-.69 2.38c-.21.74-.33 1.46-.36 2.18-.14 3.08 1.36 5.79 3.851 6.52l4.899 1.43c2.41.71 5.03-.65 6.601-3.15.42-.69.78-1.46 1.02-2.3l.65-2.22.689-2.35c.29-.99.4-1.97.36-2.9-.11-2.78-1.55-5.13-3.85-5.79l-4.891-1.43c-2.379-.7-4.959.61-6.529 3.04zm154.31 8.96c0-2.81-2.37-5.08-5.29-5.08-2.91 0-5.27 2.27-5.27 5.08 0 2.8 2.359 5.07 5.27 5.07 2.92 0 5.29-2.27 5.29-5.07z" fill="#c8c8c8"/><path d="M742.81 182.91v-2.12c4.83 6.15 3.601 12.58 3.601 12.58s.71.32 1.6 1.04l-.68.24c-1.23.49-2.44.91-3.63 1.28l-.04-1.65c-2.66-1.12-7.71-3.63-9.26-6.22-3.401-5.67 4.709-5.14 8.409-5.15z" fill="#ef3e23"/><path d="M743.66 194.28l.04 1.65c-3.57 1.1-7.04 1.65-11.05 1.65l-1.391.18c-.899-1.32-1.55-2.01-1.55-2.01-9.05-10.03-26.55-11.76-37.43-3.55-2.42 1.83-4.44 3.76-6.11 5.74l-25.5-.36c-.31-13.36-3.26-26.42-3.26-26.42l-2.561-1.1s-23.01-14.92-36.949-22.51c-13.051-7.09-35.08-7.98-59.101-6.26-1.66.12-3.319.25-5 .39-25.939 2.2-50.25 17.13-50.25 17.13l3.521 7.34 55.529 1.47s-8.93 11.48-2.279 28.56l-37.761-.53c-6.85-6.27-16.75-11.17-32.859-5.41a20.99 20.99 0 0 0-4.4 2.18v-.01l-40.189-4s.12-1.4.319-3.45l1.511.15c5.51 0 7.71-2.2 7.71-4.41 0-2.2-7.021-12.61-7.021-12.61-.33-3.17-2.58-6.65 2.25-6.65 5.87 0 28.99-2.76 28.99-2.76s37.02-15.84 43.86-18.53c9.079-3.58 29.739-11.72 64.829-8.74 25.421 2.15 33.83 6.03 40.12 9.76 0 0 28.32 14.84 43.86 24.85 0 0 63.12 6.42 69.729 13.03.57.57 1.08 1.15 1.54 1.74v2.12c-3.699.01-11.81-.52-8.409 5.15 1.552 2.59 6.602 5.1 9.262 6.22z" fill="#abd150"/><path d="M734.67 285.65c2.92 0 5.29 2.27 5.29 5.08 0 2.8-2.37 5.07-5.29 5.07-2.91 0-5.27-2.27-5.27-5.07 0-2.81 2.36-5.08 5.27-5.08zM708.92 193.91c10.47 0 18.95 8.5 18.95 18.97 0 10.47-8.48 18.95-18.95 18.95-10.479 0-18.97-8.48-18.97-18.95 0-10.47 8.49-18.97 18.97-18.97zm7.03 18.96c0-4.08-3.15-7.39-7.03-7.39-3.89 0-7.04 3.31-7.04 7.39 0 4.09 3.15 7.41 7.04 7.41 3.88 0 7.03-3.32 7.03-7.41z" fill="#797878"/><path d="M708.92 205.48c3.88 0 7.03 3.31 7.03 7.39 0 4.09-3.15 7.41-7.03 7.41-3.89 0-7.04-3.32-7.04-7.41 0-4.08 3.15-7.39 7.04-7.39z" fill="#797878"/><path d="M660.67 197.58l25.5.36c-11.12 13.14-7.1 28.27-7.1 28.27h-21.66l2.57-16.15c.62-3.91.79-8.21.69-12.48z" fill="#abd150"/><path d="M660.67 197.58c.1 4.27-.07 8.57-.689 12.48l-2.57 16.15h-14.68c-14.99 0-45.11-.93-70.091-1.8 0 0-4.04-8.97-11.75-26.83-.199-.47-.39-.94-.569-1.4l100.349 1.4z" fill="#abd150"/><path d="M660.67 197.58l-100.35-1.4c-6.65-17.08 2.279-28.56 2.279-28.56l1.92.05 90.33 2.39 2.561 1.1s2.95 13.06 3.26 26.42zm-86.61-21.05c5.69 0 6.83-.96 6.101-1.7-.73-.73-1.95-.69-1.95-.69s-10.71-.87-12.54-.87c-1.84 0-3.45.88-2.85 2.48.599 1.61 5.549.78 11.239.78z" fill="#abd150"/><path d="M654.85 170.06l-90.33-2.39.04-1.52-5.619-23-.141-1.86c24.021-1.72 46.05-.83 59.101 6.26 13.939 7.59 36.949 22.51 36.949 22.51z" fill="#fff"/><path d="M600.92 285.95c.04.93-.07 1.91-.36 2.9l-.689 2.35-1.82-.53-14.149-4.31.64-2.19c.26-.88.64-1.69 1.11-2.4l13.92 4.23 1.348-.05z" fill="#797878"/><path d="M600.92 285.95l-1.35.05-13.92-4.23c1.569-2.43 4.149-3.74 6.529-3.04l4.891 1.43c2.3.66 3.74 3.01 3.85 5.79zM599.87 291.2l-.65 2.22c-.239.84-.6 1.61-1.02 2.3l-1.21-.5-14.141-4.3c.03-.72.15-1.44.36-2.18l.69-2.38 14.149 4.31 1.822.53z" fill="#797878"/><path d="M596.99 295.22l1.21.5c-1.57 2.5-4.19 3.86-6.601 3.15l-4.899-1.43c-2.49-.73-3.99-3.44-3.851-6.52l14.141 4.3z" fill="#797878"/><path d="M574.92 269.19l-4.75 15.26-21.9-6.72s6.75-10.11 16.051-10.33c-.001 0 4.659-.52 10.599 1.79z" fill="#c8c8c8"/><path d="M560.89 197.58c7.71 17.86 11.75 26.83 11.75 26.83-22.1-.77-40.189-1.5-40.189-1.5 0-2.02-.641-18.07-8.45-25.88-.46-.46-.94-.92-1.44-1.38l37.761.53c.178.46.368.93.568 1.4z" fill="#abd150"/><path d="M558.94 143.15l5.619 23-.04 1.52-1.92-.05-55.529-1.47-3.521-7.34s24.311-14.93 50.25-17.13c1.681-.14 3.34-.27 5-.39l.141 1.86z" fill="#fff"/><path d="M532.3 554.22c9.15 29.181 10.891 65.15 7.681 76.54-1.87 6.74-10.591 16.25-18.811 15.28-9.1-.98-11.189-22.42-15.59-29.25-6.88 1.43-3.35 11.46-8.43 11.46-4.41-4.39-5.891-16.5-5.891-29.18 0-14.2 1.86-29.11 3.54-34.66L528 546l1.7-.75c1.63 5.64 2.6 8.97 2.6 8.97z" fill="#9c5c25"/><path d="M529.7 545.25l-1.7.75-33.2 18.41c.08-.3.17-.57.26-.811l-71.95-157.49 7.68 148.24-3.13.16H213.44l-3.83-.02c1.62-66.29 5.47-149.24 5.47-149.24L144.56 559.6 110 548l-2.55-.11c5.42-18.77 23.4-81.359 31.46-113.89 13.83-55.89 59.56-148.12 59.56-148.12 11.65-11.64 34.07-25.34 53.59-36.12 4.57-2.53 8.99-4.89 13.06-7.04l5.04.12c7.61 18.52 26.97 31.69 49.65 31.69 22.72 0 42.1-13.2 49.69-31.77l1.62-2.42a690.08 690.08 0 0 1 17.82 10.27c18.1 10.79 39.12 24.49 50.76 36.13 0 0 45.75 92.23 59.58 148.13 7.59 30.72 24.05 88.27 30.42 110.38z" fill="#58b947"/><path d="M503.7 196.31c10.47 0 18.96 8.49 18.96 18.96s-8.49 18.96-18.96 18.96-18.96-8.49-18.96-18.96 8.49-18.96 18.96-18.96zm7.03 18.96c0-4.09-3.15-7.4-7.03-7.4-3.891 0-7.04 3.31-7.04 7.4 0 4.08 3.149 7.4 7.04 7.4 3.88 0 7.03-3.32 7.03-7.4z" fill="#797878"/><path d="M503.7 207.87c3.88 0 7.03 3.31 7.03 7.4 0 4.08-3.15 7.4-7.03 7.4-3.891 0-7.04-3.32-7.04-7.4 0-4.09 3.15-7.4 7.04-7.4zM485.3 192.41v.01c-12.21 7.87-11.14 25.63-11.14 25.63l-26.67-3.03s-2.931-8.44-5.32-15.6c-2.38-7.16 2.94-11.01 2.94-11.01l40.19 4z" fill="#797878"/><path d="M454.65 180.7c0 2.21-2.2 4.41-7.71 4.41l-1.511-.15c.45-4.61 1.301-12.48 2.061-14.9.2-.62.21-1.29.14-1.97 0 0 7.02 10.41 7.02 12.61z" fill="#ed1e29"/><path d="M431.1 560.21l.301-.02c.739 12.54 1.229 26.869 1.229 42.8 0 17.229-1.82 121.06-4.43 167.02l-.2-.01-90 2-.31.02L329.62 629l-17.2-.08L303.7 770l-89.94.84c-2.84-44.02-4.86-150.46-4.86-168.649 0-13.44.27-29.971.71-47.7l3.83.02h214.22l3.13-.16.31 5.859z" fill="#797878"/><path d="M377.61 153.43l.63-.14c1.45-.52 3.08-.69 4.86-.41.04.01.09.01.13.03.07.09.15.1.25.05 6.34 1.29 5.43 8.66 3.61 12.38-4.52 9.22-2.45 12.61-3.02 19.65-.23 2.67-3.28 7.87-9.64 6.65l-.35-.1c2.28-7.93 3.62-16.27 3.62-24.76 0-4.78-.06-8.11-.21-13.89l.12.54z" fill="#9c5c25"/><path d="M377.49 152.89c-2.32-9.37-12.49-17.35-15.1-20.95-14.08-19.45-24.74-26.73-27.31-28.32-.4-.24-.6-.35-.6-.35-.02.02-.05.03-.07.05-11.82 8.26-51.79 21.44-56.87 25.17 0 0-9.07 9.35-15.34 17.39-2.27 2.89-4.17 5.61-5.16 7.67l-.59-19.17c0-30.58 24.96-48.33 24.96-48.33 2.88-1.96 4.82-2.95 4.82-2.95 12.73-7.58 29.2-10.25 50.19-7.8 25.36 2.96 44.81 28.21 48.52 59.65 1.37 11.43-.58 17.53-1.46 18.01-.08-.03-.17-.04-.25-.05-.04-.02-.09-.02-.13-.03-1.78-.28-3.41-.11-4.86.41l-.63.14-.12-.54z" fill="#231f20"/><path d="M383.23 152.91c.08.01.17.02.25.05-.1.05-.18.04-.25-.05z" fill="#ffeec8"/><path d="M287.33 231.5c-8.67-10.08-16.6-23.89-21.02-39.36-2.32-8.09-3.68-16.65-3.68-25.36 0-2.88 0-7.93.04-12.81.03-2.73.07-5.41.12-7.63l-.59-.46c6.27-8.04 15.34-17.39 15.34-17.39 5.08-3.73 45.05-16.91 56.87-25.17.13.12.37.22.67.3 2.57 1.59 13.23 8.87 27.31 28.32 2.61 3.6 12.78 11.58 15.1 20.95.15 5.78.21 9.11.21 13.89 0 8.49-1.34 16.83-3.62 24.76-4.55 15.9-12.86 30.1-21.6 40.34-4.74 5.54-9.61 9.93-14.08 12.78-6.25 3.01-11.01 2.58-18.23 2.58-6.68 0-10.96.67-16.83-1.93-5.19-2.91-10.74-7.67-16.01-13.81zm16.63-67.08c-2.5-2.81-6.37-4.65-10.13-4.73-2.42-.06-4.67.51-6.72 1.53l.51 1.08c-.17.49-.11.93-.11 1.79 0 3.49 2.96 6.31 6.61 6.31 3.5 0 9.38-2.68 9.84-5.98zm18.77 41.25c-.09.02-.18.04-.28.05l.56-.04c-.1 0-.19 0-.28-.01zm32.89-44.7c-2.02-.98-4.24-1.53-6.61-1.48-3.16.08-6.41 1.38-8.85 3.48l1.88.01c.01.21.08.43.08.92 0 3.48 2.96 6.31 6.61 6.31 3.64 0 6.6-2.83 6.6-6.31 0-.95.07-1.39-.17-1.95l.46-.98z" fill="#9c5c25"/><path d="M371.12 240.34l-1.62 2.42c-7.59 18.57-26.97 31.77-49.69 31.77-22.68 0-42.04-13.17-49.65-31.69l-5.04-.12c11.02-5.79 19.59-9.96 22.21-11.22 5.27 6.14 10.82 10.9 16.01 13.81 5.87 2.6 10.15 1.93 16.83 1.93 7.22 0 11.98.43 18.23-2.58 4.47-2.85 9.34-7.24 14.08-12.78l3.16.06s6.24 3.23 15.48 8.4z" fill="#9c5c25"/><path d="M355.62 160.97l-.46.98c.24.56.17 1 .17 1.95 0 3.48-2.96 6.31-6.6 6.31-3.65 0-6.61-2.83-6.61-6.31 0-.49-.07-.71-.08-.92l-1.88-.01c2.44-2.1 5.69-3.4 8.85-3.48 2.37-.05 4.59.5 6.61 1.48zm-6.93 5.11c1.32 0 2.39-.95 2.39-2.12 0-1.18-1.07-2.13-2.39-2.13s-2.38.95-2.38 2.13c0 1.17 1.06 2.12 2.38 2.12z" fill="#fff"/><path d="M351.08 163.96c0 1.17-1.07 2.12-2.39 2.12s-2.38-.95-2.38-2.12c0-1.18 1.06-2.13 2.38-2.13s2.39.95 2.39 2.13z" fill="#231f20"/><path d="M293.83 159.69c3.76.08 7.63 1.92 10.13 4.73-.46 3.3-6.34 5.98-9.84 5.98-3.65 0-6.61-2.82-6.61-6.31 0-.86-.06-1.3.11-1.79l-.51-1.08c2.05-1.02 4.3-1.59 6.72-1.53zm.27 6.41c1.31 0 2.38-.96 2.38-2.13 0-1.18-1.07-2.13-2.38-2.13-1.32 0-2.39.95-2.39 2.13 0 1.17 1.07 2.13 2.39 2.13z" fill="#fff"/><path d="M296.48 163.97c0 1.17-1.07 2.13-2.38 2.13-1.32 0-2.39-.96-2.39-2.13 0-1.18 1.07-2.13 2.39-2.13 1.31 0 2.38.95 2.38 2.13z" fill="#231f20"/><path d="M266.31 192.14l-.6.17c-6.36 1.21-9.41-3.98-9.63-6.65-.58-7.04 1.49-10.43-3.03-19.65-1.86-3.79-2.77-11.38 3.99-12.46 1.78-.29 3.41-.11 4.86.41l.77.01c-.04 4.88-.04 9.93-.04 12.81 0 8.71 1.36 17.27 3.68 25.36zM144.56 559.6l-1.43 3.131c1.74 4.77 3.79 20.5 3.79 35.449 0 12.69-1.48 24.82-5.89 29.221-5.05 0-1.55-10.061-8.45-11.46-4.38 6.819-6.47 28.25-15.57 29.25-8.2.979-16.93-8.57-18.81-15.28-3.2-11.41-1.49-47.36 7.67-76.57 0 0 .57-1.97 1.58-5.45L110 548l34.56 11.6z" fill="#9c5c25"/><g fill="none" stroke="#231f20"><path d="M105.87 553.34s.57-1.97 1.58-5.45c5.42-18.77 23.4-81.359 31.46-113.89 13.83-55.89 59.56-148.12 59.56-148.12 11.65-11.64 34.07-25.34 53.59-36.12 4.57-2.53 8.99-4.89 13.06-7.04 11.02-5.79 19.59-9.96 22.21-11.22.55-.26.84-.4.84-.4M213.76 770.84c-2.84-44.02-4.86-150.46-4.86-168.649 0-13.44.27-29.971.71-47.7 1.62-66.29 5.47-149.24 5.47-149.24L144.56 559.6l-1.43 3.131c1.74 4.77 3.79 20.5 3.79 35.449 0 12.69-1.48 24.82-5.89 29.221-5.05 0-1.55-10.061-8.45-11.46-4.38 6.819-6.47 28.25-15.57 29.25-8.2.979-16.93-8.57-18.81-15.28-3.2-11.41-1.49-47.36 7.67-76.57M532.3 554.22s-.97-3.33-2.6-8.97c-6.37-22.11-22.83-79.66-30.42-110.38-13.83-55.9-59.58-148.13-59.58-148.13-11.641-11.64-32.66-25.34-50.76-36.13a690.08 690.08 0 0 0-17.82-10.27c-9.24-5.17-15.48-8.4-15.48-8.4M431.32 564.52l-.221-4.31-.31-5.86-7.68-148.24 71.95 157.49c-.09.24-.18.511-.26.811-1.68 5.55-3.54 20.46-3.54 34.66 0 12.68 1.48 24.79 5.891 29.18 5.08 0 1.55-10.03 8.43-11.46 4.4 6.83 6.49 28.27 15.59 29.25 8.22.97 16.94-8.54 18.811-15.28 3.21-11.39 1.47-47.359-7.681-76.54" stroke-width="14"/><path d="M427.91 774.88c.1-1.54.2-3.16.29-4.87 2.609-45.96 4.43-149.79 4.43-167.02 0-15.931-.49-30.26-1.229-42.8M337.94 776.46l-.25-4.44L329.62 629l-17.2-.08L303.7 770l-.4 6.46M213.44 554.51h214.22" stroke-width="14"/><path d="M280.13 166.93c1.95-2.37 4.3-4.41 6.98-5.71 2.05-1.02 4.3-1.59 6.72-1.53 3.76.08 7.63 1.92 10.13 4.73.57.63 1.07 1.32 1.48 2.04" stroke-width="6.274" stroke-linecap="square" stroke-miterlimit="10"/><path d="M304 164c0 .14-.01.28-.04.42-.46 3.3-6.34 5.98-9.84 5.98-3.65 0-6.61-2.82-6.61-6.31 0-.86-.06-1.3.11-1.79" stroke-width="3.137" stroke-linecap="square" stroke-miterlimit="10"/><path d="M362.72 166.74c-1.98-2.39-4.37-4.46-7.1-5.77-2.02-.98-4.24-1.53-6.61-1.48-3.16.08-6.41 1.38-8.85 3.48-1.11.95-2.06 2.07-2.76 3.3" stroke-width="6.274" stroke-linecap="square" stroke-miterlimit="10"/><path d="M342.04 162.98c.01.21.08.43.08.92 0 3.48 2.96 6.31 6.61 6.31 3.64 0 6.6-2.83 6.6-6.31 0-.95.07-1.39-.17-1.95" stroke-width="3.137" stroke-linecap="square" stroke-miterlimit="10"/><path d="M261.9 153.96c-1.45-.52-3.08-.7-4.86-.41-6.76 1.08-5.85 8.67-3.99 12.46 4.52 9.22 2.45 12.61 3.03 19.65.22 2.67 3.27 7.86 9.63 6.65M378.24 153.29c1.45-.52 3.08-.69 4.86-.41.04.01.09.01.13.03.08.01.17.02.25.05 6.34 1.29 5.43 8.66 3.61 12.38-4.52 9.22-2.45 12.61-3.02 19.65-.23 2.67-3.28 7.87-9.64 6.65M306.67 222.46c8.32 3.32 21.51 2.93 28.58-.16" stroke-width="7"/><path d="M377.47 152.16c.01.25.01.49.02.73.15 5.78.21 9.11.21 13.89 0 8.49-1.34 16.83-3.62 24.76-4.55 15.9-12.86 30.1-21.6 40.34-4.74 5.54-9.61 9.93-14.08 12.78-6.25 3.01-11.01 2.58-18.23 2.58-6.68 0-10.96.67-16.83-1.93-5.19-2.91-10.74-7.67-16.01-13.81-8.67-10.08-16.6-23.89-21.02-39.36-2.32-8.09-3.68-16.65-3.68-25.36 0-2.88 0-7.93.04-12.81.03-2.73.07-5.41.12-7.63" stroke-width="14"/><path d="M322.73 205.67c3.12-.59 2.57-2.44 5.93-1.63 2.92.71 6.01 2.17 6.74-2.39.5-3.13-1.86-3.55-3.11-6.07" stroke-width="7"/><path d="M322.73 205.67c.09.01.18.01.28.01l-.56.04c.1-.01.19-.03.28-.05zM312.85 166.59c5.23 5.74 3.64 19.21 1.31 26.23l-.99 2.73c-1.25 2.52-3.61 2.93-3.1 6.07.72 4.55 3.81 3.1 6.72 2.39 3.38-.81 2.6 1.54 5.94 1.66" stroke-width="7"/><path d="M296.48 163.97c0 1.17-1.07 2.13-2.38 2.13-1.32 0-2.39-.96-2.39-2.13 0-1.18 1.07-2.13 2.39-2.13 1.31 0 2.38.95 2.38 2.13zM351.08 163.96c0 1.17-1.07 2.12-2.39 2.12s-2.38-.95-2.38-2.12c0-1.18 1.06-2.13 2.38-2.13s2.39.95 2.39 2.13z" stroke-width="3.137"/><path d="M309.39 156.06c-2.82-5.94-13.85-8.25-19.44-7.14-5.25 1.05-7.85 1.68-13.33 5.92M332.25 154.76c2.82-5.94 13.85-8.25 19.43-7.14 5.25 1.05 7.86 1.68 13.32 5.93" stroke-width="7"/><path d="M383.21 150.87c-.19 1.15-.15 1.83.02 2.04.07.09.15.1.25.05.88-.48 2.83-6.58 1.46-18.01-3.71-31.44-23.16-56.69-48.52-59.65-20.99-2.45-37.46.22-50.19 7.8 0 0-1.94.99-4.82 2.95 0 0-24.96 17.75-24.96 48.33l.59 19.17c.99-2.06 2.89-4.78 5.16-7.67 6.27-8.04 15.34-17.39 15.34-17.39 5.08-3.73 45.05-16.91 56.87-25.17.02-.02.05-.03.07-.05 0 0 .2.11.6.35 2.57 1.59 13.23 8.87 27.31 28.32 2.61 3.6 12.78 11.58 15.1 20.95l.12.54c.17.81.29 1.62.33 2.45" stroke-width="14"/><path d="M339.1 104.15c-.6.01-2.82-.17-4.02-.53-.3-.08-.54-.18-.67-.3a.28.28 0 0 1-.1-.12c3.63-3.54 6.5-9.31 6.5-15.16" stroke-width="12.548"/><path stroke-width="14" d="M110 548l34.56 11.6 2.08.7M528 546l-33.2 18.41-1.23.68M369.5 242.76c-7.59 18.57-26.97 31.77-49.69 31.77-22.68 0-42.04-13.17-49.65-31.69"/><path d="M574.92 269.19l1.99-6.38s7.46-.16 14.87 6.03c4.529 3.78 10.319 7.78 12.87 8.9 4.069 1.77 11.6 3.9 17.64 3.9 10.94 0 62.81-1.43 62.81-1.43l39.341-1.75s13.779-1.38 19.93 3.08c0 0 1.51.7 3.149 4.42.74 1.69.891 3.3.9 4.26 0 0 .33 2.25-.85 4.95-1.65 3.71-3.15 4.42-3.15 4.42-6 4.72-20.02 3.35-20.02 3.35l-39.33-1.75s-51.87-1.42-62.811-1.42c-10.95 0-18.72 3.65-25.85 5.87-7.141 2.22-24.67 9.75-24.67 9.75-13.09 3.01-21.65-3.57-21.65-3.57-7.85-5-8.41-17.13-8.41-17.13l23.48 5.87 5.01-16.11 4.751-15.26z" stroke-width="7"/><path d="M571.41 284.83l-1.24-.38-21.9-6.72s6.75-10.11 16.051-10.33c0 0 4.66-.52 10.6 1.79M734.67 285.65c2.92 0 5.29 2.27 5.29 5.08 0 2.8-2.37 5.07-5.29 5.07-2.91 0-5.27-2.27-5.27-5.07 0-2.81 2.36-5.08 5.27-5.08zM585.65 281.77c1.569-2.43 4.149-3.74 6.529-3.04l4.891 1.43c2.3.66 3.739 3.01 3.85 5.79.04.93-.07 1.91-.36 2.9l-.689 2.35-.65 2.22c-.239.84-.6 1.61-1.02 2.3-1.57 2.5-4.19 3.86-6.601 3.15l-4.899-1.43c-2.49-.73-3.99-3.44-3.851-6.52.03-.72.15-1.44.36-2.18l.69-2.38.64-2.19c.26-.88.64-1.69 1.11-2.4z" stroke-width="7"/><path stroke-width="4.706" d="M582.39 290.78l.46.14 14.14 4.3M583.43 286.22l.47.14 14.15 4.31"/><path stroke-width="7" d="M584.96 281.56l.69.21 13.92 4.23M445.11 188.41s-5.32 3.85-2.94 11.01c2.39 7.16 5.32 15.6 5.32 15.6l26.67 3.03s-1.07-17.76 11.14-25.63a21.038 21.038 0 0 1 4.4-2.18c16.109-5.76 26.01-.86 32.859 5.41.5.46.98.92 1.44 1.38 7.81 7.81 8.45 23.86 8.45 25.88 0 0 18.09.73 40.189 1.5 24.98.87 55.101 1.8 70.091 1.8h36.34s-4.021-15.13 7.1-28.27c1.67-1.98 3.69-3.91 6.11-5.74 10.88-8.21 28.38-6.48 37.43 3.55 0 0 .65.69 1.55 2.01 2.51 3.69 6.94 12.37 4.32 24.91l3.86.05c6.97 0 10.27-2.38 10.27-2.38s.16-4.9 1.66-16.88c.6-4.87-1.69-7.68-3.36-9.05-.89-.72-1.6-1.04-1.6-1.04s1.229-6.43-3.601-12.58c-.46-.59-.97-1.17-1.54-1.74-6.609-6.61-69.729-13.03-69.729-13.03-15.54-10.01-43.86-24.85-43.86-24.85-6.29-3.73-14.699-7.61-40.12-9.76-35.09-2.98-55.75 5.16-64.829 8.74-6.841 2.69-43.86 18.53-43.86 18.53s-23.12 2.76-28.99 2.76c-4.83 0-2.58 3.48-2.25 6.65.07.68.061 1.35-.14 1.97-.76 2.42-1.61 10.29-2.061 14.9a340.74 340.74 0 0 0-.319 3.45l40.189 4"/><circle cx="503.7" cy="215.27" r="18.96" stroke-width="12.548"/><path d="M510.73 215.27c0 4.08-3.15 7.4-7.03 7.4-3.891 0-7.04-3.32-7.04-7.4 0-4.09 3.149-7.4 7.04-7.4 3.88 0 7.03 3.31 7.03 7.4z" stroke-width="6.274"/><path d="M727.87 212.88c0 10.47-8.48 18.95-18.95 18.95-10.479 0-18.97-8.48-18.97-18.95 0-10.47 8.49-18.97 18.97-18.97 10.47 0 18.95 8.5 18.95 18.97z" stroke-width="12.548"/><path d="M715.95 212.87c0 4.09-3.15 7.41-7.03 7.41-3.89 0-7.04-3.32-7.04-7.41 0-4.08 3.15-7.39 7.04-7.39 3.88 0 7.03 3.31 7.03 7.39z" stroke-width="6.274"/><path d="M447.63 168.09s7.021 10.41 7.021 12.61c0 2.21-2.2 4.41-7.71 4.41M654.85 170.06l-90.33-2.39-1.92-.05-55.529-1.47-3.521-7.34s24.311-14.93 50.25-17.13c1.681-.14 3.34-.27 5-.39 24.021-1.72 46.05-.83 59.101 6.26 13.939 7.59 36.949 22.51 36.949 22.51z" stroke-width="7"/><path stroke-width="6.274" d="M558.94 143.15l5.62 23"/><path d="M562.6 167.62s-8.93 11.48-2.279 28.56c.18.46.37.93.569 1.4 7.71 17.86 11.75 26.83 11.75 26.83M657.41 171.16s2.95 13.06 3.26 26.42c.1 4.27-.07 8.57-.689 12.48l-2.57 16.15" stroke-width="7"/><path stroke-width="7" d="M522.56 195.65l37.76.53 100.35 1.4 25.5.36"/><path d="M732.65 197.58c4.01 0 7.479-.55 11.05-1.65 1.189-.37 2.399-.79 3.63-1.28" stroke-width="12.548"/><path d="M742.92 182.91h-.11c-3.699.01-11.81-.52-8.409 5.15 1.55 2.59 6.6 5.1 9.26 6.22M578.21 174.14s-10.71-.87-12.54-.87c-1.84 0-3.45.88-2.85 2.48.6 1.61 5.55.78 11.239.78 5.69 0 6.83-.96 6.101-1.7-.73-.73-1.95-.69-1.95-.69z" stroke-width="7"/></g><path fill="none" d="M0 0h850.394v850.394H0z"/></svg>