<svg xmlns="http://www.w3.org/2000/svg" width="853.64" height="853.644" viewBox="0 0 853.64 853.644" overflow="visible"><path d="M488.86 595.25c-3.63.03-6.62 2.39-8.28 9.18-1.97 8.03 3.68 13.28 9.28 18.54l.319-.05c.73 5.13 3.181 9.61 8.83 12.28 10.19 4.81 68.99 9.91 74.3.479l-3.8-39.81c-16.43 2.07-39.109-11.42-53.62-9.25-17.409 2.57-19.33 2.85-21.43 9.97-1.959-.829-3.859-1.349-5.599-1.339zm-90.57-43.63c10.91-42.93 27.89-123.94 54.26-168.87 10.101-17.2 21.57-29.11 34.61-31.58L546 336.25l.77-.57c.931 1.33 1.73 2.48 2.29 3.49 2.171 3.95 11.591 18.88 17.011 23.46 8.71 7.37 29.6 4.04 39.79 4.04 7.08 0 15.939-7.24 23.489-15.72l4.301 4.3c6.02 7.09 43.869 33.51 56.84 29.9 2.5-4.39-7.891-6.26-5.771-12.9 5.63-.31 16.88 3.86 24.95 3.86l.94 2.25c29.69 44.74 61.38 216.08 61.38 216.08.12 10.859-1.28 12.56-2.66 17.14-6.96 22.91-66 30.729-90.311 34.189-4.039.57-9.52.841-15.88.9h-.02c-25.16.24-64-2.85-80.9-4.32l-.3 3.761-2.09 21.92-.57 5.92s-80.24 7.67-105.14 4.17c-23.5-3.34-79.43-10.76-89.44-31.93-.35-.74-.65-1.49-.88-2.261-1.38-4.58-2.78-6.279-2.67-17.14 0 0 6.81-44.18 17.07-75.19l.091.021z" fill="#f6cc4b"/><path d="M652.18 323.29c-.12-.04-.29-.08-.399-.1-.011-.01-.03-.01-.04-.01.01.01.02.01.04.01.05.02.12.04.22.06.05.01.09.02.12.03.019 0 .039.01.059.01zm-18.53 31.96l-4.301-4.3c8.851-9.89 15.95-21.47 16.471-25.16.06-.45.649-2.91 1.34-6.51 2.92.69 5.84 1.48 8.76 2.33 3.561 1.41 8.73 3.72 14.49 6.38 17.85 8.27 41.439 19.98 40.63 19.12 1.04.81 1.91 1.57 2.62 2.29 4.899 4.93 8.84 17.11 3.96 23.74-1.47 2.04-4.021 2.84-7.12 2.95-.27.01-.55.02-.83.02-8.07 0-19.32-4.17-24.95-3.86-2.12 6.64 8.271 8.51 5.771 12.9-12.971 3.61-50.821-22.81-56.841-29.9z" fill="#9c5c25"/><path d="M711.04 347.11c.81.86-22.78-10.85-40.63-19.12 9.54 2.75 17.34 5.75 23.83 8.87 6.49 3.33 11.92 6.6 15.689 9.4.37.27.721.54 1.051.8.02.02.04.03.06.05z" fill="#ffeec8"/><path d="M709.93 346.26c-3.77-2.8-9.199-6.07-15.689-9.4 6.369 3.06 11.469 6.23 15.689 9.4zM694.24 336.86c-6.49-3.12-14.29-6.12-23.83-8.87-5.76-2.66-10.93-4.97-14.49-6.38 13.93 4.06 27.58 9.75 38.32 15.25zM664.02 274.39c2.931 2.9 2.07 8.65.61 11.88-4.49 10.01-2.439 13.7-3.01 21.33-.33 4.26-7.87 13.2-13.71 7.46.82-5.02 1.54-11.18 1.479-17.12-.029-3.42-.33-6.76-1.02-9.77a.357.357 0 0 1-.021-.1c-1.38-6.55 3.771-16.83 12.301-15.34 1.461.25 2.561.84 3.371 1.66z" fill="#ffeec8"/><path d="M648.37 288.17c.689 3.01.99 6.35 1.02 9.77-5.899-5.89-3.54-35.34-11.029-42.84-7.49-7.5-12.851-27.84-12.851-27.84a2.223 2.223 0 0 0-.35-.18c3.1-7.02 11.14-18.51 15.29-23.12l.02-.03c16.79 11.16 27.83 34.13 23.55 70.46-.81-.82-1.909-1.41-3.369-1.66-8.53-1.49-13.681 8.79-12.301 15.34 0 .03.01.07.02.1z" fill="#fbed24"/><path d="M663.18 650.87c.17 6.89-1.84 13.27-9.05 16.68-10.21 4.811-69.01 9.91-74.3.48l2.09-21.92.3-3.761c16.9 1.471 55.74 4.561 80.9 4.32h.02l.04 4.201zM652.18 323.29c-.02 0-.04-.01-.06-.01-.03-.01-.07-.02-.12-.03-.1-.02-.17-.04-.22-.06.11.02.28.06.4.1zM651.74 323.18c.01 0 .029 0 .04.01-.02 0-.03 0-.04-.01zM623.07 282.89c-1.79-1.88-3.86-3.45-6.17-4.43-1.75-.76-3.631-1.17-5.631-1.12-2.319.05-4.67.8-6.68 2.05 0 .01-.01.01-.01.01-1.78 1.1-3.29 2.59-4.28 4.33-.59 1.07-1.399 1.8-.34 2.44.88.56 1.96.16 2.91.61.649.3 1.229 1.03 1.91 1.35.819.37 1.899.59 2.79.78 2.06.42 4.79.29 6.79-.41 3.27-1.17 6.109-3.2 8.569-5.48l.142-.13zm-34.09 35.34c1.899-.95 3.529-.78 6.64-.64.37.02.75.01 1.13-.04-2.44-1.13-5.74-1.84-7.77.68zm-10.08 1c-6.131-3.21-4.42-10.96-3.521-15.38-.01.02-.01.04-.02.06-.25.78-4.66 5.05-5.16 6.45-.69 1.95-.45 4.77.649 5.91.92.94 3.62 1.96 4.771 2.14 1.201.18 1.911.31 3.281.82zm-16.73 14.86c4.16 4.16 7.7 7.67 11.87 8.67 4.81 1.16 10.29 1.66 15.18 1.24 8.09-.7 15.33-4.14 21.351-10.54-.63.31-1.29.56-1.96.77-.011 0-.011.01-.021.01-5.62 1.78-12.12.63-15.899.23-3.91-.42-5.931 2.31-9.48.72-5.56-2.48-10.1 1.56-17.53 0a19.193 19.193 0 0 1-3.511-1.1zm-23.91-17.96c-.17-1.1-.29-2.26-.359-3.46-.391-6.63-2.091-13.28-2.98-19.76-.34-2.4-.56-4.78-.56-7.13 0-6.04 1.18-13.13 1.18-26.44l6.44-10.67c27.569-27.57 44.159-6.15 56.89-9.52 4.91-1.29 10.36-2.51 14.87-5.04 2.89-1.63 8.25-8.29 11.42-7.03.12.05.24.11.35.18 0 0 5.36 20.34 12.851 27.84 7.489 7.5 5.13 36.95 11.029 42.84.061 5.94-.659 12.1-1.479 17.12-.25 1.53-.5 2.95-.75 4.22-.69 3.6-1.28 6.06-1.34 6.51-.521 3.69-7.62 15.27-16.471 25.16-7.55 8.48-16.409 15.72-23.489 15.72-10.19 0-31.08 3.33-39.79-4.04-5.42-4.58-14.84-19.51-17.011-23.46-.56-1.01-1.359-2.16-2.29-3.49-2.971-4.25-7.191-10.34-8.511-19.55zm6.79-33.31l.141.13c2.46 2.28 5.29 4.31 8.579 5.47 1.98.71 4.721.84 6.79.41.881-.18 1.971-.4 2.78-.78.68-.31 1.271-1.05 1.9-1.35.96-.44 2.029-.05 2.92-.6 1.05-.65.26-1.38-.34-2.44-.98-1.74-2.5-3.24-4.28-4.34-2.021-1.25-4.37-2.01-6.68-2.06-2-.04-3.891.37-5.63 1.11-2.32.99-4.4 2.57-6.18 4.45z" fill="#ffeec8"/><path d="M640.47 203.93l-.02.03c-4.15 4.61-12.19 16.1-15.29 23.12-3.17-1.26-8.53 5.4-11.42 7.03-4.51 2.53-9.96 3.75-14.87 5.04-12.73 3.37-29.32-18.05-56.89 9.52l-6.44 10.67c0 13.31-1.18 20.4-1.18 26.44 0 2.35.22 4.73.56 7.13-5.189-5.2-7.14-7.25-7.25-7.36-.01-.01-.01-.01-.01-.02-1.17-16.21-1.96-47.76 7.55-61.49 20.84-30.09 46.93-32.16 83.87-27.85 7.62.89 14.93 3.44 21.39 7.74z" fill="#fbed24"/><path d="M623.07 282.89l-.141.13c-2.46 2.28-5.3 4.31-8.569 5.48-2 .7-4.73.83-6.79.41-.891-.19-1.971-.41-2.79-.78-.681-.32-1.261-1.05-1.91-1.35-.95-.45-2.03-.05-2.91-.61-1.06-.64-.25-1.37.34-2.44.99-1.74 2.5-3.23 4.28-4.33 0 0 .01 0 .01-.01l.3.52c-.38.76-.13.68-.13 1.6 0 3.29 2.78 5.95 6.23 5.95s6.25-2.66 6.25-5.95c0-1.24.109-1.56-.561-2.51l.221-.54c2.31.98 4.38 2.55 6.17 4.43z" fill="#fff"/><path d="M616.68 279c.67.95.561 1.27.561 2.51 0 3.29-2.8 5.95-6.25 5.95s-6.23-2.66-6.23-5.95c0-.92-.25-.84.13-1.6l-.3-.52c2.01-1.25 4.36-2 6.68-2.05 2-.05 3.881.36 5.631 1.12l-.222.54zm-5.62 6.07c2.091 0 3.79-1.5 3.79-3.34 0-1.85-1.699-3.35-3.79-3.35-2.109 0-3.81 1.5-3.81 3.35 0 1.84 1.7 3.34 3.81 3.34z" fill="#fff"/><path d="M614.85 281.73c0 1.84-1.699 3.34-3.79 3.34-2.109 0-3.81-1.5-3.81-3.34 0-1.85 1.7-3.35 3.81-3.35 2.09 0 3.79 1.5 3.79 3.35zm-2.43 0c0-.82-.61-1.48-1.36-1.48-.76 0-1.359.66-1.359 1.48s.6 1.49 1.359 1.49c.75 0 1.36-.67 1.36-1.49z" fill="#231f20"/><path d="M611.06 280.25c.75 0 1.36.66 1.36 1.48s-.61 1.49-1.36 1.49c-.76 0-1.359-.67-1.359-1.49s.599-1.48 1.359-1.48z" fill="#231f20"/><path d="M608.61 334.23c.67-.21 1.33-.46 1.96-.77-6.021 6.4-13.261 9.84-21.351 10.54-4.89.42-10.37-.08-15.18-1.24-4.17-1-7.71-4.51-11.87-8.67 1.24.52 2.41.87 3.51 1.1 6.521 6.52 29.19 6.77 42.91-.95.011 0 .011-.01.021-.01z" fill="#ef947d"/><path d="M592.69 334.47c3.779.4 10.279 1.55 15.899-.23-13.72 7.72-36.39 7.47-42.91.95 7.431 1.56 11.971-2.48 17.53 0 3.551 1.59 5.571-1.14 9.481-.72z" fill="#ef947d"/><path d="M578.9 319.23c-1.37-.51-2.08-.64-3.28-.82-1.15-.18-3.851-1.2-4.771-2.14-1.1-1.14-1.34-3.96-.649-5.91.5-1.4 4.91-5.67 5.16-6.45.01-.02.01-.04.02-.06-.9 4.42-2.61 12.17 3.52 15.38zM494.46 596.59c2.1-7.12 4.021-7.399 21.43-9.97 14.511-2.17 37.19 11.32 53.62 9.25l3.8 39.81c-5.31 9.431-64.109 4.33-74.3-.479-5.649-2.67-8.1-7.15-8.83-12.28-1.08-7.62 1.67-16.689 3.46-23.35.3-1.111.56-2.101.82-2.981z" fill="#ffeec8"/><path d="M567.82 283.66c.6 1.06 1.39 1.79.34 2.44-.891.55-1.96.16-2.92.6-.63.3-1.221 1.04-1.9 1.35-.81.38-1.899.6-2.78.78-2.069.43-4.81.3-6.79-.41-3.289-1.16-6.119-3.19-8.579-5.47l-.141-.13c1.78-1.88 3.86-3.46 6.181-4.45 1.739-.74 3.63-1.15 5.63-1.11 2.31.05 4.659.81 6.68 2.06 1.779 1.1 3.299 2.6 4.279 4.34zm-6.95-2c0-1.85-1.69-3.35-3.8-3.35-2.101 0-3.801 1.5-3.801 3.35 0 1.84 1.7 3.34 3.801 3.34 2.11 0 3.8-1.5 3.8-3.34z" fill="#fff"/><path d="M557.07 278.31c2.109 0 3.8 1.5 3.8 3.35 0 1.84-1.69 3.34-3.8 3.34-2.101 0-3.801-1.5-3.801-3.34.001-1.85 1.701-3.35 3.801-3.35zm1.36 3.35c0-.82-.609-1.49-1.359-1.49-.761 0-1.37.67-1.37 1.49s.609 1.48 1.37 1.48c.749 0 1.359-.66 1.359-1.48z" fill="#231f20"/><path d="M557.07 280.17c.75 0 1.359.67 1.359 1.49s-.609 1.48-1.359 1.48c-.761 0-1.37-.66-1.37-1.48s.61-1.49 1.37-1.49z" fill="#231f20"/><path d="M546.77 335.68l-.77.57-58.84 14.92c-13.04 2.47-24.51 14.38-34.61 31.58l-.97-.57v-79.09l.03-.99 29.56.99c16.6 1 38.21 5.76 50.05 8.21 1.601 2.42 4.05 4.61 7.04 4.83 1.32 9.21 5.54 15.3 8.51 19.55z" fill="#9c5c25"/><path d="M531.22 311.3c-1.14-1.69-1.88-3.48-2.1-4.79-1.061-6.09 1.36-12.33-1.45-20.96.11.11 2.061 2.16 7.25 7.36.89 6.48 2.59 13.13 2.98 19.76.069 1.2.189 2.36.359 3.46-2.989-.22-5.439-2.41-7.039-4.83z" fill="#ffeec8"/><path d="M451.58 382.18l.97.57c-26.37 44.93-43.35 125.94-54.26 168.87l-.09-.021c-10.26 31.011-17.07 75.19-17.07 75.19-.11 10.86 1.29 12.56 2.67 17.14.23.771.53 1.521.88 2.261l-195.12-1.54c1.1-57.5 4.52-143.801 5.52-168.301l2.91 2.891.01.01c0-.01-.01-.03-.02-.05 0-.021-.01-.04-.03-.07-.02-.07-.05-.16-.1-.28-.01-.02-.01-.04-.02-.069-.03-.08-.07-.17-.1-.271-.08-.189-.16-.399-.24-.63l-.15-.36c-.21-.5-.44-1.06-.68-1.579l-.21-.421c-.63-1.239-1.24-1.97-1.32-.399.15-3.53.23-5.47.23-5.47l-2.19 4.8c-3.45-1.26-10.95-4-19.47-7.12l-2.04-.74-1.38-.51c-.68-.25-1.38-.5-2.08-.76l-1.4-.511-1.4-.51-2.1-.77-1.4-.511-1.39-.51c-.23-.08-.46-.17-.69-.25l-1.38-.51c-1.61-.59-3.18-1.16-4.72-1.72l-1.31-.48c-.86-.319-1.7-.63-2.53-.93l-1.23-.45c-8.27-3.02-14.3-5.229-14.3-5.229h-.01c18.6-49.5 44.52-101.8 44.52-101.8 11.56-11.55 33.83-25.15 53.2-35.86 6.75-3.73 13.15-7.11 18.63-9.94l53.95 86.04L348 299.25l.02-.63 103.59 3.48-.03.99v79.09z" fill="#abd153"/><path d="M307.79 186.34c-.48-.51-.91-.97-1.28-1.36-.35-.37-.65-.69-.9-.95-.54-.57-.83-.88-.83-.88l-.11.08c-13.01 9.12-43.44 23.64-49.03 27.74-3.83 2.81-6.88 6.8-8.86 11.28-1.78 4.01-2.71 8.4-2.61 12.69.21 8.5 3.04 11.56 3.04 24.36 0 6.44 2.91 13.31 6.32 19.2.46.8.93 1.57 1.41 2.33l-24.07 12.66c4.44-8.87 2.89-19.83 2.89-19.83-.17-16.86-2.23-35.26-2.52-39.24-1.18-16.53 4.95-41.64 13.86-56.14 15.01-24.45 39.45-34.98 77.11-30.59 27.97 3.26 53.53 33.86 53.53 72.63 0 13.59-6.03 28.61.76 42.15l-27.54 16.96c1.55-2.14 2.67-4.5 3.04-7.18.25-1.75 7.97-29.59-2.65-42.07-.01-.01-.02-.02-.02-.03-.71-1.15-1.54-2.22-2.49-3.17-11.42-11.41-31.48-32.62-39.05-40.64z" fill="#231f20"/><path d="M349.35 230.18c10.62 12.48 2.9 40.32 2.65 42.07-.37 2.68-1.49 5.04-3.04 7.18 1.55-2.14 1.06-6.72 1.43-9.4.24-1.66 7.13-26.57-1.04-39.85z" fill="#ffeec8"/><path d="M325.33 234.8c-1.65-1.76-3.59-3.23-5.74-4.15-1.63-.7-3.39-1.08-5.26-1.04-2.16.05-4.33.75-6.2 1.91h-.01c0 .01-.01.01-.01.01-1.66 1.02-3.07 2.41-3.99 4.04-.56.98-1.29 1.67-.32 2.27.83.52 1.82.15 2.72.56.59.28 1.14.97 1.77 1.26.76.35 1.77.56 2.59.72 1.94.4 4.48.28 6.33-.37 3.05-1.09 5.7-2.98 8-5.1l.12-.11zm-76.94-10.33c1.98-4.48 5.03-8.47 8.86-11.28 5.59-4.1 36.02-18.62 49.03-27.74.19.41.5.68.94.8 4.71 5 28.41 30.14 41.23 42.95.3.3.6.62.88.95 0 .01.01.02.02.03 8.17 13.28 1.28 38.19 1.04 39.85-.37 2.68.12 7.26-1.43 9.4-2.33 3.23-2.57 7.6-2.57 7.6-4.39 4.22-1.7 5.8-4.38 9.21l-.01.01c-5.13 6.53-22.22 12.2-30.89 13.26-9.93 1.21-22.42 4.83-30.96-2.39-3.45-2.91-7.46-5.68-11.04-8.77-1.27-1.1-2.49-2.23-3.61-3.43a30.7 30.7 0 0 1-1.68-1.94c-1.32-1.66-5.2-6.25-8.88-12.15l.2-.11c-3.41-5.89-6.32-12.76-6.32-19.2 0-12.8-2.83-15.86-3.04-24.36-.1-4.29.83-8.68 2.61-12.69zm4.8 11.95l.12.12c2.29 2.11 4.93 4 7.99 5.1 1.85.65 4.39.77 6.33.37.81-.17 1.83-.37 2.59-.72.64-.29 1.18-.98 1.77-1.26.89-.41 1.9-.04 2.72-.56.98-.6.24-1.29-.32-2.27-.92-1.62-2.32-3.01-3.98-4.04 0 0-.01 0-.01-.01h-.01c-1.88-1.16-4.05-1.86-6.21-1.91-1.87-.04-3.63.34-5.26 1.04-2.15.92-4.07 2.38-5.73 4.14zm58.12 40.17c-3.39.34-16.12-2.58-17.94 2.02-1.14.47-3-.75-4.26-1.03-2.38-.56-5.15-.03-7.46.63-3.72 1.08-3.9 2.56-2.73 4.1 1.22 1.6 3.89 3.28 5.6 4.69 4.62 3.82 10.63 4.31 16.25 1.82 4.14-1.82 6.58-5.83 8.91-9.64.54-.88 1.08-1.76 1.63-2.59z" fill="#9c5c25"/><path fill="#a8d7f4" d="M348.02 298.62l-.02.63-43.36 92.13 38.97-92.91z"/><path d="M343.41 296.12l.2 2.35-38.97 92.91-53.95-86.04c8.22-2.9 10.26-3.73 10.37-3.93.01-.01 0-.01 0-.01l8.05-3.05c3.58 3.09 7.59 5.86 11.04 8.77 8.54 7.22 21.03 3.6 30.96 2.39 8.67-1.06 25.76-6.73 30.89-13.26l.01-.01 1.4-.12z" fill="#9c5c25"/><path d="M325.33 234.8l-.12.11c-2.3 2.12-4.95 4.01-8 5.1-1.85.65-4.39.77-6.33.37-.82-.16-1.83-.37-2.59-.72-.63-.29-1.18-.98-1.77-1.26-.9-.41-1.89-.04-2.72-.56-.97-.6-.24-1.29.32-2.27.92-1.63 2.33-3.02 3.99-4.04 0 0 .01 0 .01-.01h.01c1.87-1.16 4.04-1.86 6.2-1.91 1.87-.04 3.63.34 5.26 1.04 2.15.92 4.09 2.39 5.74 4.15zm-7.66-1.1c0-1.72-1.58-3.11-3.54-3.11-1.95 0-3.54 1.39-3.54 3.11s1.59 3.11 3.54 3.11c1.96 0 3.54-1.39 3.54-3.11z" fill="#fff"/><path d="M314.13 230.59c1.96 0 3.54 1.39 3.54 3.11s-1.58 3.11-3.54 3.11c-1.95 0-3.54-1.39-3.54-3.11s1.59-3.11 3.54-3.11zm1.28 3.11c0-.76-.57-1.38-1.28-1.38-.7 0-1.26.62-1.26 1.38 0 .76.56 1.39 1.26 1.39.71 0 1.28-.63 1.28-1.39z" fill="#231f20"/><path d="M314.13 232.32c.71 0 1.28.62 1.28 1.38 0 .76-.57 1.39-1.28 1.39-.7 0-1.26-.63-1.26-1.39 0-.76.56-1.38 1.26-1.38z" fill="#231f20"/><path d="M293.37 278.61c1.82-4.6 14.55-1.68 17.94-2.02-.55.83-1.09 1.71-1.63 2.59-6.5 2.94-10.26 2.97-14.86 3.34-4.57.36-11.34 1.12-15.89-.22l-.01.01c-1.17-1.54-.99-3.02 2.73-4.1 2.31-.66 5.08-1.19 7.46-.63 1.26.28 3.12 1.5 4.26 1.03z" fill="#ef947d"/><path d="M309.68 279.18c-2.33 3.81-4.77 7.82-8.91 9.64-5.62 2.49-11.63 2-16.25-1.82-1.71-1.41-4.38-3.09-5.6-4.69l.01-.01c4.55 1.34 11.32.58 15.89.22 4.6-.37 8.36-.4 14.86-3.34z" fill="#ef947d"/><path d="M274.39 237.2c.56.98 1.3 1.67.32 2.27-.82.52-1.83.15-2.72.56-.59.28-1.13.97-1.77 1.26-.76.35-1.78.55-2.59.72-1.94.4-4.48.28-6.33-.37-3.06-1.1-5.7-2.99-7.99-5.1l-.12-.12c1.66-1.76 3.58-3.22 5.73-4.14 1.63-.7 3.39-1.08 5.26-1.04 2.16.05 4.33.75 6.21 1.91h.01c0 .01.01.01.01.01 1.66 1.03 3.06 2.42 3.98 4.04zm-6.48-1.87c0-1.72-1.58-3.12-3.54-3.12-1.95 0-3.53 1.4-3.53 3.12 0 1.72 1.58 3.11 3.53 3.11 1.96 0 3.54-1.39 3.54-3.11z" fill="#fff"/><path d="M264.37 232.21c1.96 0 3.54 1.4 3.54 3.12 0 1.72-1.58 3.11-3.54 3.11-1.95 0-3.53-1.39-3.53-3.11s1.58-3.12 3.53-3.12zm1.28 3.12c0-.76-.57-1.38-1.28-1.38-.7 0-1.26.62-1.26 1.38 0 .77.56 1.39 1.26 1.39.71 0 1.28-.62 1.28-1.39z" fill="#231f20"/><path d="M264.37 233.95c.71 0 1.28.62 1.28 1.38 0 .77-.57 1.39-1.28 1.39-.7 0-1.26-.62-1.26-1.39 0-.76.56-1.38 1.26-1.38z" fill="#231f20"/><path d="M250.69 305.34l10.37-3.93c-.11.2-2.15 1.03-10.37 3.93zM250.69 305.34c-5.48 2.83-11.88 6.21-18.63 9.94 6.75-3.73 12.81-7.89 18.63-9.94z" fill="#ffeec8"/><path d="M198 479.25l-.01-.01c0-.01-.01-.021-.01-.04.01.02.02.04.02.05z" fill="#a8d7f4"/><path d="M197.98 479.2c0 .02.01.03.01.04l-2.91-2.891c.02-.409.03-.8.05-1.18v-.05c.08-1.57.69-.84 1.32.399l.21.421c.24.52.47 1.079.68 1.579l.15.36c.08.23.16.44.24.63.03.101.06.19.1.271.01.029.01.05.02.069.04.12.08.221.1.28.02.032.03.052.03.072z" fill="#a8d7f4"/><path d="M197.85 478.85c.05.12.08.21.1.28-.02-.06-.06-.16-.1-.28zM197.73 478.51c.03.101.07.19.1.271a1.743 1.743 0 0 1-.1-.271zM197.34 477.52l.15.36-.15-.36zM196.45 475.52l.21.421-.21-.421z" fill="#a8d7f4"/><path d="M195.04 475.14c.04.011.07.021.09.03-.02.38-.03.771-.05 1.18l-1.9-1.899.21.08c.15.06.3.109.43.16l.23.079c.05.021.09.04.13.051l.31.12.09.029.32.12c.02 0 .05.01.07.021l.07.029z" fill="#ffeec8"/><path d="M193.17 474.45l-69.24 151.56c1.72 4.73 3.75 20.33 3.75 35.17 0 12.61-1.46 24.66-5.84 29.03-5.02 0-1.54-9.99-8.4-11.37-4.34 6.76-6.42 28.04-15.45 29.04-8.14.96-16.81-8.52-18.68-15.17-3.18-11.34-1.47-47.03 7.62-76.03 0 0 23.32-80.21 32.8-118.47 3.36-13.56 8.6-29.27 14.61-45.27h.01s6.03 2.21 14.3 5.229l1.23.45c.83.3 1.67.61 2.53.93.44.16.87.32 1.31.48 1.54.56 3.11 1.13 4.72 1.72.45.17.91.34 1.38.51.23.08.46.17.69.25.46.17.93.34 1.39.51.47.171.93.341 1.4.511.7.25 1.41.51 2.1.77.47.17.94.34 1.4.51.47.171.94.341 1.4.511.7.26 1.4.51 2.08.76.47.17.92.34 1.38.51.69.25 1.37.5 2.04.74 8.52 3.119 16.02 5.859 19.47 7.119z" fill="#9c5c25"/><path d="M171.66 466.59l2.04.74c-.67-.24-1.35-.49-2.04-.74zM170.28 466.08l1.38.51c-.46-.17-.91-.34-1.38-.51zM166.8 464.81l1.4.511c-.46-.171-.93-.341-1.4-.511zM165.4 464.3l1.4.51c-.46-.17-.93-.34-1.4-.51zM163.3 463.53l2.1.77c-.69-.26-1.4-.52-2.1-.77zM161.9 463.02l1.4.511c-.47-.171-.93-.341-1.4-.511zM160.51 462.51l1.39.51c-.46-.17-.93-.34-1.39-.51zM158.44 461.75l1.38.51c-.47-.17-.93-.34-1.38-.51zM152.41 459.55l1.31.48c-.44-.16-.87-.32-1.31-.48zM148.65 458.17l1.23.45-1.23-.45z" fill="#ffeec8"/><g fill="none" stroke="#231f20"><path d="M647.16 319.28c2.92.69 5.84 1.48 8.76 2.33 13.93 4.06 27.58 9.75 38.32 15.25 6.49 3.33 11.92 6.6 15.689 9.4" stroke-width="10"/><path d="M652.18 323.29c-.02 0-.04-.01-.06-.01-.03-.01-.07-.02-.12-.03-.1-.02-.17-.04-.22-.06" stroke-width="14"/><path stroke-width="10" d="M629.35 350.95l4.3 4.3"/><path d="M232.06 315.28c6.75-3.73 13.15-7.11 18.63-9.94M195.13 475.12c.15-3.53.23-5.47.23-5.47l-2.19 4.8" stroke-width="14"/><path d="M652 320.25c.86.2 2.2.68 3.92 1.36 3.561 1.41 8.73 3.72 14.49 6.38 17.85 8.27 41.439 19.98 40.63 19.12" stroke-width="10"/><path d="M349.33 230.15c-.28-.33-.58-.65-.88-.95-12.82-12.81-36.52-37.95-41.23-42.95-.54-.57-.83-.88-.83-.88l-.11.08c-13.01 9.12-43.44 23.64-49.03 27.74-3.83 2.81-6.88 6.8-8.86 11.28-1.78 4.01-2.71 8.4-2.61 12.69.21 8.5 3.04 11.56 3.04 24.36 0 6.44 2.91 13.31 6.32 19.2M348.96 279.43c1.55-2.14 2.67-4.5 3.04-7.18.25-1.75 7.97-29.59-2.65-42.07" stroke-width="7"/><path stroke-width="14" d="M304.64 391.38l38.97-92.91M535.68 312.2c-1.25-.24-2.76-.54-4.46-.9-11.84-2.45-33.45-7.21-50.05-8.21l-29.56-.99-103.59-3.48-4.41-.15"/><path d="M636 357.25l-2.35-2c6.02 7.09 43.869 33.51 56.84 29.9 2.5-4.39-7.891-6.26-5.771-12.9 5.63-.31 16.88 3.86 24.95 3.86.28 0 .561-.01.83-.02 3.1-.11 5.65-.91 7.12-2.95 4.88-6.63.939-18.81-3.96-23.74-.71-.72-1.58-1.48-2.62-2.29-.021-.02-.04-.03-.06-.05-.33-.26-.681-.53-1.051-.8-4.22-3.17-9.319-6.34-15.689-9.4-6.49-3.12-14.29-6.12-23.83-8.87-3.26-.95-6.73-1.86-10.41-2.74-.02 0-2.98-2-3-2-.03-.01-2.95.01-3 0-.16-.04-2.25-.06-2.32-.09 0 .01.011.01.03.01.01 0 .021.01.03.01s.029 0 .04.01c.109.02.279.06.54.13 0-.01-.021-.01-.04-.01-.011 0-.021 0-.04-.01-.01 0-.021 0-.04-.01h-.021" stroke-width="10"/><path d="M261.06 301.4c.07-.19-1.86.28-.82-.27-.01.01-.02.01-.03.02-.01.01-.03.02-.06.03-.01 0-.01 0-.02.01-.01 0-.02.01-.03.01-.05.02-.1.05-.1.05M86.93 616.68s23.32-80.21 32.8-118.47c3.36-13.56 8.6-29.27 14.61-45.27 18.6-49.5 44.52-101.8 44.52-101.8 11.56-11.55 33.83-25.15 53.2-35.86 6.75-3.73 12.81-7.89 18.63-9.94 8.22-2.9 10.26-3.73 10.37-3.93" stroke-width="14"/><path d="M193.17 474.45l-69.24 151.56c1.72 4.73 3.75 20.33 3.75 35.17 0 12.61-1.46 24.66-5.84 29.03-5.02 0-1.54-9.99-8.4-11.37-4.34 6.76-6.42 28.04-15.45 29.04-8.14.96-16.81-8.52-18.68-15.17-3.18-11.34-1.47-47.03 7.62-76.03M386.78 646.21l-2.1-.02-195.12-1.54c1.1-57.5 4.52-143.801 5.52-168.301.02-.409.03-.8.05-1.18v-.05c.08-1.57.69-.84 1.32.399l.21.421c.24.52.47 1.079.68 1.579l.15.36c.08.23.16.44.24.63.03.101.07.19.1.271.01.029.01.05.02.069.05.12.08.21.1.28.02.03.03.05.03.07.01.02.02.04.02.05l-.01-.01-2.91-2.891-1.9-1.899" stroke-width="14"/><path d="M134.35 452.94s6.03 2.21 14.3 5.229l1.23.45c.83.3 1.67.61 2.53.93.44.16.87.32 1.31.48 1.54.56 3.11 1.13 4.72 1.72.45.17.91.34 1.38.51.23.08.46.17.69.25.46.17.93.34 1.39.51.47.171.93.341 1.4.511.7.25 1.41.51 2.1.77.47.17.94.34 1.4.51.47.171.94.341 1.4.511.7.26 1.4.51 2.08.76.47.17.92.34 1.38.51.69.25 1.37.5 2.04.74 8.52 3.12 16.02 5.86 19.48 7.12 0 0-.01 0 1.95.72a.465.465 0 0 0-.09-.03l-.07-.029a.17.17 0 0 0-.07-.021l-.32-.12-.09-.029-.31-.12c-.04-.011-.08-.03-.13-.051l-.23-.079c-.13-.051-.28-.101-.43-.16l-.21-.08M250.69 305.34l53.95 86.04L348 299.25M396.37 559c.62-2.31 1.26-4.77 1.92-7.38 10.91-42.93 27.89-123.94 54.26-168.87 10.101-17.2 21.57-29.11 34.61-31.58L546 336.25M752.44 535.5l-183.26 56.96.33 3.41 3.8 39.81.57 5.92s3.13.301 8.34.75c16.9 1.471 55.74 4.561 80.9 4.32h.02c6.36-.06 11.841-.33 15.88-.9 24.311-3.46 83.351-11.279 90.311-34.189 1.38-4.58 2.78-6.28 2.66-17.14 0 0-31.69-171.34-61.38-216.081" stroke-width="14"/><path d="M493.64 599.57c-1.79 6.66-4.54 15.729-3.46 23.35.73 5.13 3.181 9.61 8.83 12.28 10.19 4.81 68.99 9.91 74.3.479M573.31 595.07c-1.22.37-2.489.64-3.8.8-16.43 2.07-39.109-11.42-53.62-9.25-17.409 2.57-19.33 2.85-21.43 9.97-.26.88-.52 1.87-.82 2.98" stroke-width="14"/><path d="M495.27 596.95l-.81-.36c-1.96-.83-3.86-1.35-5.6-1.34-3.63.03-6.62 2.39-8.28 9.18-1.97 8.03 3.68 13.28 9.28 18.54" stroke-width="14"/><path d="M581.92 646.11l-2.09 21.92-.57 5.92s-80.24 7.67-105.14 4.17c-23.5-3.34-79.43-10.76-89.44-31.93-.35-.74-.65-1.49-.88-2.261-1.38-4.58-2.78-6.279-2.67-17.14 0 0 6.81-44.18 17.07-75.19" stroke-width="14"/><path stroke-width="14" d="M400.68 567.84l88.18 27.41 2.92.91M663.18 650.87c.17 6.89-1.84 13.27-9.05 16.68-10.21 4.811-69.01 9.91-74.3.48M451.58 303.09v79.09"/><path d="M570.3 264.24c-4.729-4.57-15.85-2.86-20.689.15-4.54 2.83-6.761 4.33-10.38 10.23M597.04 264.93c4.67-4.63 15.83-3.09 20.71-.15 4.59 2.76 6.81 4.22 10.54 10.07M527.67 285.55c.11.11 2.061 2.16 7.25 7.36" stroke-width="7"/><path d="M664.02 274.43v-.04c4.28-36.33-6.76-59.3-23.55-70.46-6.46-4.3-13.77-6.85-21.39-7.74-36.94-4.31-63.03-2.24-83.87 27.85-9.51 13.73-8.72 45.28-7.55 61.49" stroke-width="10"/><path d="M648.35 288.07a28.8 28.8 0 0 0-.88-2.98" stroke-width="7"/><path d="M649.39 297.94c-5.899-5.89-3.54-35.34-11.029-42.84-7.49-7.5-12.851-27.84-12.851-27.84a2.223 2.223 0 0 0-.35-.18c-3.17-1.26-8.53 5.4-11.42 7.03-4.51 2.53-9.96 3.75-14.87 5.04-12.73 3.37-29.32-18.05-56.89 9.52l-6.44 10.67c0 13.31-1.18 20.4-1.18 26.44 0 2.35.22 4.73.56 7.13.89 6.48 2.59 13.13 2.98 19.76.069 1.2.189 2.36.359 3.46 1.32 9.21 5.54 15.3 8.51 19.55.931 1.33 1.73 2.48 2.29 3.49 2.171 3.95 11.591 18.88 17.011 23.46 8.71 7.37 29.6 4.04 39.79 4.04 7.08 0 15.939-7.24 23.489-15.72 8.851-9.89 15.95-21.47 16.471-25.16.06-.45.649-2.91 1.34-6.51.25-1.27.5-2.69.75-4.22.82-5.02 1.54-11.18 1.48-17.12-.029-3.42-.33-6.76-1.02-9.77" stroke-width="10"/><path d="M624.44 228.86c.189-.55.43-1.15.72-1.78 3.1-7.02 11.14-18.51 15.29-23.12" stroke-width="10"/><path d="M608.61 334.23c.67-.21 1.33-.46 1.96-.77.39-.17.77-.37 1.14-.59M559.91 333.02c.78.42 1.53.78 2.26 1.07 1.24.52 2.41.87 3.51 1.1 7.431 1.56 11.971-2.48 17.53 0 3.55 1.59 5.57-1.14 9.48-.72 3.779.4 10.279 1.55 15.899-.23" stroke-width="4"/><path d="M562.14 334.06l.03.03c4.16 4.16 7.7 7.67 11.87 8.67 4.81 1.16 10.29 1.66 15.18 1.24 8.09-.7 15.33-4.14 21.351-10.54.08-.07.149-.15.22-.22" stroke-width="4"/><path d="M565.68 335.19c6.521 6.52 29.19 6.77 42.91-.95.01 0 .01-.01.021-.01" stroke-width="3.115"/><path d="M648.37 288.2v-.03a.357.357 0 0 1-.021-.1c-1.38-6.55 3.771-16.83 12.301-15.34 1.46.25 2.56.84 3.369 1.66 2.931 2.9 2.07 8.65.61 11.88-4.49 10.01-2.439 13.7-3.01 21.33-.33 4.26-7.87 13.2-13.71 7.46M527.66 285.53c0 .01 0 .01.01.02 2.811 8.63.39 14.87 1.45 20.96.22 1.31.96 3.1 2.1 4.79 1.601 2.42 4.05 4.61 7.04 4.83.16.01.33.02.49.02" stroke-width="7"/><path d="M543.91 284.11a35 35 0 0 1 1.14-1.29c1.78-1.88 3.86-3.46 6.181-4.45 1.739-.74 3.63-1.15 5.63-1.11 2.31.05 4.659.81 6.68 2.06 1.78 1.1 3.3 2.6 4.28 4.34.6 1.06 1.39 1.79.34 2.44-.891.55-1.96.16-2.92.6-.63.3-1.221 1.04-1.9 1.35-.81.38-1.899.6-2.78.78-2.069.43-4.81.3-6.79-.41-3.289-1.16-6.119-3.19-8.579-5.47" stroke-width="3.115" stroke-linecap="square" stroke-miterlimit="10"/><path d="M563.22 279.83c.391.77.15.69.15 1.6 0 3.29-2.8 5.96-6.24 5.96-3.45 0-6.25-2.67-6.25-5.96 0-1.24-.12-1.56.561-2.51" stroke-width="1.557" stroke-linecap="square" stroke-miterlimit="10"/><path d="M560.87 281.66c0 1.84-1.69 3.34-3.8 3.34-2.101 0-3.801-1.5-3.801-3.34 0-1.85 1.7-3.35 3.801-3.35 2.11 0 3.8 1.5 3.8 3.35z" stroke-width="1.557"/><path d="M558.43 281.66c0 .82-.609 1.48-1.359 1.48-.761 0-1.37-.66-1.37-1.48s.609-1.49 1.37-1.49c.749 0 1.359.67 1.359 1.49z" stroke-width="1.557"/><path d="M624.21 284.18c-.37-.44-.75-.88-1.14-1.29-1.79-1.88-3.86-3.45-6.17-4.43-1.75-.76-3.631-1.17-5.631-1.12-2.319.05-4.67.8-6.68 2.05 0 .01-.01.01-.01.01-1.78 1.1-3.29 2.59-4.28 4.33-.59 1.07-1.399 1.8-.34 2.44.88.56 1.96.16 2.91.61.649.3 1.229 1.03 1.91 1.35.819.37 1.899.59 2.79.78 2.06.42 4.79.29 6.79-.41 3.27-1.17 6.109-3.2 8.569-5.48" stroke-width="3.115" stroke-linecap="square" stroke-miterlimit="10"/><path d="M604.89 279.91c-.38.76-.13.68-.13 1.6 0 3.29 2.78 5.95 6.23 5.95s6.25-2.66 6.25-5.95c0-1.24.109-1.56-.561-2.51" stroke-width="1.557" stroke-linecap="square" stroke-miterlimit="10"/><path d="M611.06 285.07c2.091 0 3.79-1.5 3.79-3.34 0-1.85-1.699-3.35-3.79-3.35-2.109 0-3.81 1.5-3.81 3.35 0 1.84 1.7 3.34 3.81 3.34z" stroke-width="1.557"/><path d="M612.42 281.73c0-.82-.61-1.48-1.36-1.48-.76 0-1.359.66-1.359 1.48s.6 1.49 1.359 1.49c.75 0 1.36-.67 1.36-1.49z" stroke-width="1.557"/><path d="M573.14 276.33c7.761 5.82 4.2 21.58 2.24 27.52-.01.02-.01.04-.02.06-.25.78-4.66 5.05-5.16 6.45-.69 1.95-.45 4.77.649 5.91.92.94 3.62 1.96 4.771 2.14 1.2.18 1.91.31 3.28.82 2.63.98 6.35 1.57 8.729-.16.48-.35.92-.62 1.351-.84 1.899-.95 3.529-.78 6.64-.64.37.02.75.01 1.13-.04 2.85-.34 5.58-2.54 5.44-6.89-.11-3.39-2.65-1.74-4.48-4.13" stroke-width="4"/><path d="M575.44 303.54c-.021.1-.04.2-.061.31-.899 4.42-2.61 12.17 3.521 15.38" stroke-width="4"/><path d="M588.42 319.05c.17-.31.36-.58.561-.82 2.029-2.52 5.329-1.81 7.77-.68.17.08.33.16.49.24" stroke-width="6.229"/><path d="M299.02 226.33c4.92-8.19 16.87-9.5 23.71-6.82 3.67 1.43 5.91 3.12 6.87 4.09M273.22 223.3c-6.5-5.8-19.2-4.91-24.83 1.17-.31.31-.58.64-.83.98" stroke-width="7"/><path d="M281.34 228.1c7.14 5.34 3.36 23.42 1.56 28.81-.57 1.72-3.03 4.76-1.3 6.55.84.86 1.91.4 2.96.56 1.09.17 1.74.28 2.99.74 2.42.91 4.18 1.45 6.35-.13 2.36-1.71 2.18-2.92 5.66-2.75 2.93.14 6.16.96 6.02-3.55-.1-3.1-2.43-3.06-4.1-5.24" stroke-width="4"/><path d="M293.16 279.4c.03-.29.1-.55.21-.79 1.82-4.6 14.55-1.68 17.94-2.02-.55.83-1.09 1.71-1.63 2.59-2.33 3.81-4.77 7.82-8.91 9.64-5.62 2.49-11.63 2-16.25-1.82-1.71-1.41-4.38-3.09-5.6-4.69-1.17-1.54-.99-3.02 2.73-4.1 2.31-.66 5.08-1.19 7.46-.63 1.26.28 3.12 1.5 4.26 1.03.19-.08.36-.21.5-.39" stroke-width="3.037"/><path d="M278.93 282.3c4.55 1.34 11.32.58 15.89.22 4.6-.37 8.36-.4 14.86-3.34" stroke-width="3.037"/><path d="M254.94 280.83c-.48-.76-.95-1.53-1.41-2.33-3.41-5.89-6.32-12.76-6.32-19.2 0-12.8-2.83-15.86-3.04-24.36-.1-4.29.83-8.68 2.61-12.69 1.98-4.48 5.03-8.47 8.86-11.28 5.59-4.1 36.02-18.62 49.03-27.74l.11-.08s.29.31.83.88c.25.26.55.58.9.95.37.39.8.85 1.28 1.36 7.57 8.02 27.63 29.23 39.05 40.64.95.95 1.78 2.02 2.49 3.17 0 .01.01.02.02.03 8.17 13.28 1.28 38.19 1.04 39.85-.37 2.68.12 7.26-1.43 9.4-2.33 3.23-2.57 7.6-2.57 7.6-4.39 4.22-1.7 5.8-4.38 9.21l-.01.01c-5.13 6.53-22.22 12.2-30.89 13.26-9.93 1.21-22.42 4.83-30.96-2.39-3.45-2.91-7.46-5.68-11.04-8.77-1.27-1.1-2.49-2.23-3.61-3.43a30.7 30.7 0 0 1-1.68-1.94c-1.32-1.66-5.2-6.25-8.88-12.15z" stroke-width="10"/><path d="M255.14 280.72l-.2.11-24.07 12.66c4.44-8.87 2.89-19.83 2.89-19.83-.17-16.86-2.23-35.26-2.52-39.24-1.18-16.53 4.95-41.64 13.86-56.14 15.01-24.45 39.45-34.98 77.11-30.59 27.97 3.26 53.53 33.86 53.53 72.63 0 13.59-6.03 28.61.76 42.15l-27.54 16.96-.05.03" stroke-width="10"/><path d="M252.12 237.62c.34-.41.69-.81 1.06-1.2h.01c1.66-1.76 3.58-3.22 5.73-4.14 1.63-.7 3.39-1.08 5.26-1.04 2.16.05 4.33.75 6.21 1.91h.01c0 .01.01.01.01.01 1.66 1.03 3.06 2.42 3.98 4.04.56.98 1.3 1.67.32 2.27-.82.52-1.83.15-2.72.56-.59.28-1.13.97-1.77 1.26-.76.35-1.78.55-2.59.72-1.94.4-4.48.28-6.33-.37-3.06-1.1-5.7-2.99-7.99-5.1" stroke-width="3.037" stroke-linecap="square" stroke-miterlimit="10"/><path d="M270.12 233.63c.35.72.12.63.12 1.49 0 3.06-2.6 5.55-5.81 5.55s-5.82-2.49-5.82-5.55c0-1.15-.11-1.45.52-2.33M326.39 235.99c-.34-.41-.69-.81-1.06-1.19-1.65-1.76-3.59-3.23-5.74-4.15-1.63-.7-3.39-1.08-5.26-1.04-2.16.05-4.33.75-6.2 1.91h-.01c0 .01-.01.01-.01.01-1.66 1.02-3.07 2.41-3.99 4.04-.56.98-1.29 1.67-.32 2.27.83.52 1.82.15 2.72.56.59.28 1.14.97 1.77 1.26.76.35 1.77.56 2.59.72 1.94.4 4.48.28 6.33-.37 3.05-1.09 5.7-2.98 8-5.1" stroke-width="3.037" stroke-linecap="square" stroke-miterlimit="10"/><path d="M308.4 232c-.37.72-.14.64-.14 1.49 0 3.06 2.61 5.55 5.82 5.55s5.81-2.49 5.81-5.55c0-1.15.11-1.45-.51-2.33" stroke-width="3.037" stroke-linecap="square" stroke-miterlimit="10"/><path d="M307.91 186.34h-.12c-.21 0-.4-.03-.57-.09-.44-.12-.75-.39-.94-.8a.774.774 0 0 1-.07-.16c.1-.1.21-.21.3-.31 3.8-3.91 5.69-9.9 6.86-15.02" stroke-width="10"/></g><path fill="none" d="M0 3.25h850.394v850.394H0z"/></svg>