<?xml version="1.0" encoding="iso-8859-1"?>
<!-- Generator: Adobe Illustrator 12.0.1, SVG Export Plug-In . SVG Version: 6.00 Build 51448)  -->
<!DOCTYPE svg PUBLIC "-//W3C//DTD SVG 1.1//EN" "http://www.w3.org/Graphics/SVG/1.1/DTD/svg11.dtd" [
	<!ENTITY ns_svg "http://www.w3.org/2000/svg">
	<!ENTITY ns_xlink "http://www.w3.org/1999/xlink">
]>
<svg  version="1.1" id="Layer_1" xmlns="&ns_svg;" xmlns:xlink="&ns_xlink;" width="850.394" height="850.394"
	 viewBox="0 0 850.394 850.394" style="overflow:visible;enable-background:new 0 0 850.394 850.394;" xml:space="preserve">
<g id="XMLID_8_">
	<g>
		<polygon style="fill:#FBED24;" points="735.42,160.35 739.68,167.37 650.75,221.46 649.18,218.88 648.9,218.43 648.9,218.42 
			646.48,214.45 712.36,174.38 719.09,170.28 		"/>
		<polygon style="fill:#FBED24;" points="730.74,155.07 734.35,160.99 719.09,170.28 712.36,174.38 708.76,168.45 711.25,166.93 
			715.5,164.35 724.36,158.95 724.37,158.96 728.62,156.37 728.62,156.36 		"/>
		<path style="fill:#FBED24;" d="M650.75,221.46l7.75,12.76c0,0-3.75,4.62-9.36,10c-2.43,2.34-5.14,6.48-9.069,5.65
			c-0.17-4.52-0.931-8.89-2.2-13.04c1.24-1.97,0.41-6.3-2.17-10.52c-2.07-3.42-4.72-5.85-6.88-6.56c-2.96-3.69-6.42-6.96-10.28-9.72
			c1.979-1.9,5.42-2.39,7.85-3.21c7.341-2.49,13.19-3.72,13.19-3.72l6.9,11.35h-0.011l2.431,3.97v0.01l0.279,0.45L650.75,221.46z"/>
		<polygon style="fill:#FFFFFF;" points="648.9,218.42 646.47,214.45 646.48,214.45 		"/>
		<path style="fill:#FBED24;" d="M640.07,249.87c-0.051,0-0.11-0.02-0.17-0.03c-6.841-1.66-14.91-13.3-16.42-15.56
			c0-0.01-0.011-0.02-0.021-0.03c-1.17-2.13-8-14.88-6.31-21.82c0.239-1,0.739-1.78,1.39-2.4c3.86,2.76,7.32,6.03,10.28,9.72
			c-0.95-0.32-1.801-0.31-2.471,0.1c-2.21,1.33-1.569,6.39,1.42,11.29c2.98,4.9,7.181,7.79,9.36,6.45
			c0.311-0.18,0.561-0.44,0.74-0.76C639.14,240.98,639.9,245.35,640.07,249.87z"/>
		<path style="fill:#FFFFFF;" d="M635.7,226.31c2.58,4.22,3.41,8.55,2.17,10.52c-1.92-6.29-5.021-12.07-9.05-17.08
			C630.98,220.46,633.63,222.89,635.7,226.31z"/>
		<path style="fill:#FFFFFF;" d="M637.87,236.83c-0.18,0.32-0.43,0.58-0.74,0.76c-2.18,1.34-6.38-1.55-9.36-6.45
			c-2.989-4.9-3.63-9.96-1.42-11.29c0.67-0.41,1.521-0.42,2.471-0.1C632.85,224.76,635.95,230.54,637.87,236.83z"/>
		<path style="fill:#FFFFFF;" d="M623.48,234.28c0.039,0.06,0.06,0.11,0.079,0.15l-0.17-0.28c0.021,0.03,0.051,0.06,0.07,0.1
			C623.47,234.26,623.48,234.27,623.48,234.28z"/>
		<path style="fill:#FBED24;" d="M608.35,192.96c0.75,3.34,2.931,7.9,0,10.82c-0.149,0.15-0.3,0.29-0.46,0.42
			c-3.739-1.5-7.699-2.58-11.819-3.17c0.26-0.4,0.39-0.82,0.39-1.25c0-2.57-4.65-4.65-10.39-4.65c-5.74,0-10.391,2.08-10.391,4.65
			c0,0.76,0.41,1.48,1.141,2.12c-3.5,0.83-6.86,2.01-10.04,3.53c-0.851-0.49-1.601-1.04-2.21-1.65c-2.92-2.92-0.75-7.48,0-10.82
			c1.699-7.57,3.68-13.19,3.68-13.19h13.29h4.65h0.529h3.03h14.92C604.67,179.77,606.67,185.39,608.35,192.96z"/>
		<path style="fill:#FBED24;" d="M596.07,201.03c4.12,0.59,8.08,1.67,11.819,3.17c-5.33,4.61-18.739,5.41-21.37,5.52
			c-2.06-0.07-13.55-0.69-19.739-4.29c3.18-1.52,6.54-2.7,10.04-3.53c1.72,1.5,5.22,2.53,9.25,2.53
			C590.84,204.43,594.86,202.99,596.07,201.03z"/>
		<path style="fill:#FFFFFF;" d="M596.46,199.78c0,0.43-0.13,0.85-0.39,1.25c-2.4-0.34-4.851-0.52-7.34-0.52
			c-4.101,0-8.091,0.48-11.91,1.39c-0.73-0.64-1.141-1.36-1.141-2.12c0-2.57,4.65-4.65,10.391-4.65
			C591.81,195.13,596.46,197.21,596.46,199.78z"/>
		<path style="fill:#FFFFFF;" d="M596.07,201.03c-1.21,1.96-5.23,3.4-10,3.4c-4.03,0-7.53-1.03-9.25-2.53
			c3.819-0.91,7.81-1.39,11.91-1.39C591.22,200.51,593.67,200.69,596.07,201.03z"/>
		<polygon style="fill:#FBED24;" points="589.75,75.67 589.75,179.77 586.72,179.77 586.19,179.77 581.54,179.77 581.54,102.65 
			581.54,76.91 581.54,75.67 		"/>
		<path style="fill:#FFFFFF;" d="M586.84,209.74h-0.77c0,0,0.16,0,0.449-0.02C586.73,209.74,586.84,209.74,586.84,209.74z"/>
		<polygon style="fill:#FBED24;" points="581.54,76.91 581.54,102.65 574.61,102.65 574.61,99.73 574.61,94.76 574.61,84.38 
			574.61,79.4 574.61,76.91 		"/>
		<path style="fill:#FFEEC8;" d="M554.8,553.4c9.12,29.05,10.84,64.859,7.65,76.199c-1.87,6.71-10.54,16.181-18.73,15.221
			c-9.06-0.99-11.14-22.33-15.51-29.13c-6.85,1.43-3.34,11.409-8.4,11.409c-4.39-4.369-5.859-16.43-5.859-29.05
			c0-14.89,2.05-30.569,3.78-35.31L554.8,553.4z"/>
		<path style="fill:#34A047;" d="M554.8,553.4l-37.069,9.34L446.1,405.95l7.33,93.66l25.83,170.229l-25.24-0.26l-95.99-0.98
			L344,668.45V668l-0.02-297.73l47.78-64.56l-12.02-27.64l38.19,13.35l-18.62-43.7c3.56,1.73,7.37,3.63,11.31,5.65
			c18.76,9.63,40.41,22.16,52,33.75c0,0,45.54,91.81,59.31,147.46C531.41,472.96,554.8,553.4,554.8,553.4z"/>
		<path style="fill:#797878;" d="M454.02,669.58L454,672c-0.69,26.07-1.84,87.05-2.84,102.65h-89.85L358,672l0.03-3.4L454.02,669.58
			z"/>
		<path style="fill:#34A047;" d="M399.31,247.72l18.62,43.7l-38.19-13.35l12.02,27.64l-47.78,64.56v-3.74l32-129.45L376,237
			C376,237,385.9,241.21,399.31,247.72z"/>
		<path style="fill:#FFEEC8;" d="M400.8,154.4l0.63-0.14c0.94-0.34,1.96-0.52,3.04-0.53c0.58-0.02,1.18,0.02,1.8,0.12
			c6.73,1.08,5.82,8.64,3.97,12.41c-4.5,9.18-2.44,12.56-3.01,19.56c-0.22,2.66-3.26,7.83-9.59,6.62l-0.34-0.1
			c2.27-7.89,3.6-16.19,3.6-24.64c0-4.76-0.06-8.07-0.21-13.8C400.73,154.07,400.77,154.23,400.8,154.4z"/>
		<path style="fill:#9C5C25;" d="M357.8,104.52c-11.77,8.22-51.56,21.34-56.62,25.06c0,0-9.38,9.66-15.64,17.77
			c-2.09,2.7-3.83,5.23-4.76,7.17l-0.59-19.09c0-30.44,24.85-48.11,24.85-48.11c2.87-1.95,4.79-2.94,4.79-2.94
			c12.67-7.54,29.07-10.19,49.97-7.76c25.25,2.94,44.61,28.09,48.3,59.38c0.53,4.43-2.31,12.23-3.63,17.73
			c-1.08,0.01-2.1,0.19-3.04,0.53l-0.63,0.14c-0.03-0.17-0.07-0.33-0.11-0.5c-2.29-9.34-12.44-17.3-15.03-20.89
			c-14.04-19.39-24.66-26.63-27.2-28.2c-0.39-0.23-0.59-0.34-0.59-0.34C357.85,104.49,357.82,104.5,357.8,104.52z"/>
		<path style="fill:#FFEEC8;" d="M378.92,161.91c-2.02-0.98-4.22-1.53-6.59-1.48c-3.15,0.08-6.38,1.38-8.81,3.47l1.88,0.01
			c0.01,0.21,0.07,0.42,0.07,0.92c0,3.46,2.95,6.27,6.58,6.27c3.63,0,6.58-2.81,6.58-6.27c0-0.95,0.06-1.39-0.17-1.94L378.92,161.91
			z M325.91,163.85c-2.39-1.95-5.48-3.15-8.51-3.22c-2.4-0.05-4.64,0.52-6.68,1.53l0.5,1.08c-0.17,0.48-0.12,0.92-0.12,1.78
			c0,3.47,2.96,6.28,6.59,6.28C321.03,171.3,325.27,167.2,325.91,163.85z M346.17,206.41c-0.09,0.02-0.18,0.04-0.28,0.05l0.56-0.04
			C346.35,206.42,346.26,206.42,346.17,206.41z M400.69,153.9c0.15,5.73,0.21,9.04,0.21,13.8c0,8.45-1.33,16.75-3.6,24.64
			c-5.11,17.85-14.97,33.56-24.86,43.87c-3.63,3.79-7.27,6.85-10.67,9.02c-6.22,2.99-10.96,2.56-18.15,2.56
			c-6.65,0-10.91,0.67-16.75-1.92c-3.11-1.74-6.36-4.15-9.59-7.13c-1.47-1.35-2.93-2.82-4.39-4.4
			c-9.38-10.18-18.15-24.83-22.89-41.39c-2.31-8.06-3.66-16.58-3.66-25.25c0-2.87,0-7.9,0.04-12.76c0.02-2.72,0.06-5.38,0.11-7.59
			h-0.95c6.26-8.11,15.64-17.77,15.64-17.77c5.06-3.72,44.85-16.84,56.62-25.06c0.13,0.11,0.36,0.21,0.66,0.29
			c2.54,1.57,13.16,8.81,27.2,28.2C388.25,136.6,398.4,144.56,400.69,153.9z"/>
		<path style="fill:#FFFFFF;" d="M378.92,161.91l-0.46,0.98c0.23,0.55,0.17,0.99,0.17,1.94c0,3.46-2.95,6.27-6.58,6.27
			c-3.63,0-6.58-2.81-6.58-6.27c0-0.5-0.06-0.71-0.07-0.92l-1.88-0.01c2.43-2.09,5.66-3.39,8.81-3.47
			C374.7,160.38,376.9,160.93,378.92,161.91z M372.01,167c1.32,0,2.38-0.95,2.38-2.12s-1.06-2.12-2.38-2.12
			c-1.31,0-2.37,0.95-2.37,2.12S370.7,167,372.01,167z"/>
		<path style="fill:#FFFFFF;" d="M343.98,366.53l-1.39,5.62L316,241l1.28-2.26c3.23,2.98,6.48,5.39,9.59,7.13
			c5.84,2.59,10.1,1.92,16.75,1.92c7.19,0,11.93,0.43,18.15-2.56c3.4-2.17,7.04-5.23,10.67-9.02l3.54,0.87L343.98,366.53z"/>
		<path style="fill:#231F20;" d="M374.39,164.88c0,1.17-1.06,2.12-2.38,2.12c-1.31,0-2.37-0.95-2.37-2.12s1.06-2.12,2.37-2.12
			C373.33,162.76,374.39,163.71,374.39,164.88z"/>
		<path style="fill:#34A047;" d="M239.96,405.14L239,405.1l-71.62,156.78L136,548l-4.3-0.39c5.22-18.03,23.38-81.21,31.47-113.891
			c13.77-55.64,59.29-147.46,59.29-147.46c11.6-11.58,33.98-24.15,53.47-33.82c1.83-0.91,3.63-1.79,5.39-2.64l2.5,0.78l-12.9,41.56
			l38.18-13.34l-12.02,27.63l45.51,65.72l1.39-1.88L344,668v0.45l-15.96-0.16l-94.01-0.97l-21.65-0.221l22.65-160.109l0.94-6.66
			L239.96,405.14z"/>
		<path style="fill:#34A047;" d="M283.82,250.58l-2.5-0.78C298.38,241.56,312,236,312,236l0.89-1.66c1.46,1.58,2.92,3.05,4.39,4.4
			L316,241l26.59,131.15l-45.51-65.72l12.02-27.63l-38.18,13.34L283.82,250.58z"/>
		<path style="fill:#797878;" d="M328.04,668.29L328,672l-1.17,102.65l-89.14,0.649c-1.15-17.819-2.9-75.79-3.69-105.3l0.03-2.68
			L328.04,668.29z"/>
		<path style="fill:#FFFFFF;" d="M317.4,160.63c3.03,0.07,6.12,1.27,8.51,3.22c-0.64,3.35-4.88,7.45-8.22,7.45
			c-3.63,0-6.59-2.81-6.59-6.28c0-0.86-0.05-1.3,0.12-1.78l-0.5-1.08C312.76,161.15,315,160.58,317.4,160.63z M317.67,167.01
			c1.3,0,2.37-0.95,2.37-2.11c0-1.18-1.07-2.12-2.37-2.12c-1.32,0-2.38,0.94-2.38,2.12C315.29,166.06,316.35,167.01,317.67,167.01z"
			/>
		<path style="fill:#231F20;" d="M320.04,164.9c0,1.16-1.07,2.11-2.37,2.11c-1.32,0-2.38-0.95-2.38-2.11c0-1.18,1.06-2.12,2.38-2.12
			C318.97,162.78,320.04,163.72,320.04,164.9z"/>
		<path style="fill:#FFEEC8;" d="M290,192.95l-0.59,0.16c-6.34,1.21-9.38-3.96-9.59-6.62c-0.58-7.01,1.48-10.38-3.02-19.56
			c-1.85-3.78-2.76-11.33,3.98-12.41c1.76-0.28,3.39-0.11,4.84,0.41l0.76,0.01c-0.04,4.86-0.04,9.89-0.04,12.76
			C286.34,176.37,287.69,184.89,290,192.95z"/>
		<path style="fill:#FFEEC8;" d="M167.38,561.88c1.72,4.74,3.76,20.38,3.76,35.25c0,12.65-1.47,24.74-5.86,29.12
			c-5.03,0-1.54-10.01-8.41-11.4c-4.37,6.79-6.44,28.12-15.5,29.12c-8.17,0.971-16.85-8.54-18.73-15.21
			c-3.19-11.37-1.48-47.16,7.64-76.229c0,0,0.52-1.771,1.42-4.92L136,548L167.38,561.88z"/>
	</g>
	<g>
		<path style="fill:none;stroke:#231F20;stroke-width:14;" d="M607.89,204.2c3.801,1.53,7.37,3.49,10.65,5.83"/>
		<path style="fill:none;stroke:#231F20;stroke-width:14;" d="M640.07,249.87c0.04,0.68,0.05,1.36,0.05,2.04
			c0,28.38-23.01,51.39-51.39,51.39c-28.381,0-51.4-23.01-51.4-51.39c0-20.53,12.04-38.25,29.45-46.48"/>
		<path style="fill:none;stroke:#231F20;stroke-width:14;" d="M130.28,552.53c0,0,0.52-1.771,1.42-4.92
			c5.22-18.03,23.38-81.21,31.47-113.891c13.77-55.64,59.29-147.46,59.29-147.46c11.6-11.58,33.98-24.15,53.47-33.82
			c1.83-0.91,3.63-1.79,5.39-2.64C298.38,241.56,312,236,312,236"/>
		<path style="fill:none;stroke:#231F20;stroke-width:14;" d="M239,405.1l-71.62,156.78c1.72,4.74,3.76,20.38,3.76,35.25
			c0,12.65-1.47,24.74-5.86,29.12c-5.03,0-1.54-10.01-8.41-11.4c-4.37,6.79-6.44,28.12-15.5,29.12
			c-8.17,0.971-16.85-8.54-18.73-15.21c-3.19-11.37-1.48-47.16,7.64-76.229"/>
		<path style="fill:none;stroke:#231F20;stroke-width:14;" d="M237.69,775.3c-1.15-17.819-2.9-75.79-3.69-105.3"/>
		<path style="fill:none;stroke:#231F20;stroke-width:14;" d="M554.8,553.4c0,0-23.39-80.44-32.87-118.82
			c-13.77-55.65-59.31-147.46-59.31-147.46c-11.59-11.59-33.24-24.12-52-33.75c-3.94-2.02-7.75-3.92-11.31-5.65
			C385.9,241.21,376,237,376,237"/>
		<path style="fill:none;stroke:#231F20;stroke-width:14;" d="M451.16,774.65c1-15.601,2.149-76.58,2.84-102.65"/>
		<line style="fill:none;stroke:#231F20;stroke-width:14;" x1="328" y1="672" x2="326.83" y2="774.65"/>
		<line style="fill:none;stroke:#231F20;stroke-width:14;" x1="361.31" y1="774.65" x2="358" y2="672"/>
		<path style="fill:none;stroke:#231F20;stroke-width:14;" d="M240.14,400.86l-0.18,4.28l-3.99,95.19l-0.94,6.66L212.38,667.1
			l21.65,0.221l94.01,0.97l15.96,0.16l14.03,0.149l95.99,0.98l25.24,0.26L453.43,499.61l-7.33-93.66l71.631,156.79
			c-1.73,4.74-3.78,20.42-3.78,35.31c0,12.62,1.47,24.681,5.859,29.05c5.061,0,1.551-9.979,8.4-11.409
			c4.37,6.8,6.45,28.14,15.51,29.13c8.19,0.96,16.86-8.511,18.73-15.221c3.189-11.34,1.47-47.149-7.65-76.199"/>
		<path style="fill:none;stroke:#231F20;stroke-width:4.6846;stroke-linecap:square;stroke-miterlimit:10;" d="M303.76,167.85
			c1.95-2.35,4.29-4.39,6.96-5.69c2.04-1.01,4.28-1.58,6.68-1.53c3.03,0.07,6.12,1.27,8.51,3.22c1.23,0.99,2.28,2.18,3.04,3.52"/>
		<path style="fill:none;stroke:#231F20;stroke-width:3.1231;stroke-linecap:square;stroke-miterlimit:10;" d="M326,163
			c0,0.28-0.03,0.56-0.09,0.85c-0.64,3.35-4.88,7.45-8.22,7.45c-3.63,0-6.59-2.81-6.59-6.28c0-0.86-0.05-1.3,0.12-1.78"/>
		<path style="fill:none;stroke:#231F20;stroke-width:4.6846;stroke-linecap:square;stroke-miterlimit:10;" d="M385.98,167.65
			c-1.97-2.38-4.35-4.44-7.06-5.74c-2.02-0.98-4.22-1.53-6.59-1.48c-3.15,0.08-6.38,1.38-8.81,3.47c-1.11,0.95-2.05,2.06-2.74,3.28"
			/>
		<path style="fill:none;stroke:#231F20;stroke-width:3.1231;stroke-linecap:square;stroke-miterlimit:10;" d="M365.4,163.91
			c0.01,0.21,0.07,0.42,0.07,0.92c0,3.46,2.95,6.27,6.58,6.27c3.63,0,6.58-2.81,6.58-6.27c0-0.95,0.06-1.39-0.17-1.94"/>
		<path style="fill:none;stroke:#231F20;stroke-width:7;" d="M285.62,154.93c-1.45-0.52-3.08-0.69-4.84-0.41
			c-6.74,1.08-5.83,8.63-3.98,12.41c4.5,9.18,2.44,12.55,3.02,19.56c0.21,2.66,3.25,7.83,9.59,6.62"/>
		<path style="fill:none;stroke:#231F20;stroke-width:7;" d="M401.43,154.26c0.94-0.34,1.96-0.52,3.04-0.53
			c0.58-0.02,1.18,0.02,1.8,0.12c6.73,1.08,5.82,8.64,3.97,12.41c-4.5,9.18-2.44,12.56-3.01,19.56c-0.22,2.66-3.26,7.83-9.59,6.62"
			/>
		<path style="fill:none;stroke:#231F20;stroke-width:7;" d="M330.19,223.13c8.27,3.3,21.41,2.91,28.45-0.16"/>
		<path style="fill:none;stroke:#231F20;stroke-width:7;" d="M400.67,153.14c0.01,0.26,0.01,0.51,0.02,0.76
			c0.15,5.73,0.21,9.04,0.21,13.8c0,8.45-1.33,16.75-3.6,24.64c-5.11,17.85-14.97,33.56-24.86,43.87
			c-3.63,3.79-7.27,6.85-10.67,9.02c-6.22,2.99-10.96,2.56-18.15,2.56c-6.65,0-10.91,0.67-16.75-1.92
			c-3.11-1.74-6.36-4.15-9.59-7.13c-1.47-1.35-2.93-2.82-4.39-4.4c-9.38-10.18-18.15-24.83-22.89-41.39
			c-2.31-8.06-3.66-16.58-3.66-25.25c0-2.87,0-7.9,0.04-12.76c0.02-2.72,0.06-5.38,0.11-7.59"/>
		<path style="fill:none;stroke:#231F20;stroke-width:7;" d="M346.17,206.41c3.1-0.59,2.56-2.43,5.91-1.62
			c2.9,0.71,5.98,2.15,6.7-2.38c0.5-3.12-1.85-3.54-3.09-6.05"/>
		<path style="fill:none;stroke:#231F20;stroke-width:7;" d="M346.17,206.41c0.09,0.01,0.18,0.01,0.28,0.01l-0.56,0.04
			C345.99,206.45,346.08,206.43,346.17,206.41z"/>
		<path style="fill:none;stroke:#231F20;stroke-width:7;" d="M336.34,167.5c5.2,5.72,3.62,19.13,1.29,26.11l-0.98,2.73
			c-1.24,2.5-3.59,2.91-3.09,6.04c0.72,4.52,3.8,3.08,6.7,2.38c3.36-0.81,2.59,1.53,5.91,1.65"/>
		<path style="fill:none;stroke:#231F20;stroke-width:3.1231;" d="M320.04,164.9c0,1.16-1.07,2.11-2.37,2.11
			c-1.32,0-2.38-0.95-2.38-2.11c0-1.18,1.06-2.12,2.38-2.12C318.97,162.78,320.04,163.72,320.04,164.9z"/>
		<path style="fill:none;stroke:#231F20;stroke-width:3.1231;" d="M374.39,164.88c0,1.17-1.06,2.12-2.38,2.12
			c-1.31,0-2.37-0.95-2.37-2.12s1.06-2.12,2.37-2.12C373.33,162.76,374.39,163.71,374.39,164.88z"/>
		<path style="fill:none;stroke:#231F20;stroke-width:7;" d="M332.88,157.02c-2.8-5.91-13.78-8.21-19.35-7.11
			c-5.22,1.05-7.81,1.67-13.27,5.9"/>
		<path style="fill:none;stroke:#231F20;stroke-width:7;" d="M355.64,155.73c2.81-5.92,13.79-8.22,19.35-7.11
			c5.23,1.04,7.82,1.67,13.27,5.9"/>
		<path style="fill:none;stroke:#231F20;stroke-width:7;" d="M404,156c0.11-0.69,0.28-1.46,0.47-2.27c1.32-5.5,4.16-13.3,3.63-17.73
			c-3.69-31.29-23.05-56.44-48.3-59.38c-20.9-2.43-37.3,0.22-49.97,7.76c0,0-1.92,0.99-4.79,2.94c0,0-24.85,17.67-24.85,48.11
			l0.59,19.09c0.93-1.94,2.67-4.47,4.76-7.17c6.26-8.11,15.64-17.77,15.64-17.77c5.06-3.72,44.85-16.84,56.62-25.06
			c0.02-0.02,0.05-0.03,0.07-0.05c0,0,0.2,0.11,0.59,0.34c2.54,1.57,13.16,8.81,27.2,28.2c2.59,3.59,12.74,11.55,15.03,20.89
			c0.04,0.17,0.08,0.33,0.11,0.5c0.18,0.8,0.29,1.62,0.33,2.44"/>
		<path style="fill:none;stroke:#231F20;stroke-width:7;" d="M362.47,105.34c-0.6,0.01-2.82-0.17-4.01-0.53
			c-0.3-0.08-0.53-0.18-0.66-0.29c-0.05-0.04-0.08-0.09-0.1-0.13c3.61-3.52,6.47-9.26,6.47-15.08"/>
		<polyline style="fill:none;stroke:#231F20;stroke-width:14;" points="343.98,361.56 343.98,366.53 343.98,370.27 344,668 		"/>
		<line style="fill:none;stroke:#231F20;stroke-width:14;" x1="136" y1="548" x2="167.38" y2="561.88"/>
		<line style="fill:none;stroke:#231F20;stroke-width:18.7384;" x1="554.8" y1="553.4" x2="517.73" y2="562.74"/>
		<polyline style="fill:none;stroke:#231F20;stroke-width:14;" points="235,507 235.03,506.99 301.15,473.83 		"/>
		<line style="fill:none;stroke:#231F20;stroke-width:14;" x1="451.81" y1="507.29" x2="389" y2="474"/>
		<polyline style="fill:none;stroke:#231F20;stroke-width:14;" points="316,241 342.59,372.15 297.08,306.43 309.1,278.8 
			270.92,292.14 283.82,250.58 284,250 		"/>
		<polyline style="fill:none;stroke:#231F20;stroke-width:14;" points="376,237 375.98,237.08 343.98,366.53 342.59,372.15 
			343.98,370.27 391.76,305.71 379.74,278.07 417.93,291.42 399.31,247.72 399,247 		"/>
		<line style="fill:none;stroke:#231F20;stroke-width:6.2461;" x1="581.54" y1="179.77" x2="581.54" y2="102.65"/>
		<polyline style="fill:none;stroke:#231F20;stroke-width:6.2461;" points="581.54,76.91 581.54,75.67 589.75,75.67 589.75,179.77 
					"/>
		<path style="fill:none;stroke:#231F20;stroke-width:6.2461;" d="M586.84,209.74c0,0-0.109,0-0.32-0.02
			c-2.06-0.07-13.55-0.69-19.739-4.29c-0.851-0.49-1.601-1.04-2.21-1.65c-2.92-2.92-0.75-7.48,0-10.82
			c1.699-7.57,3.68-13.19,3.68-13.19h13.29h4.65h0.529h3.03h14.92c0,0,2,5.62,3.68,13.19c0.75,3.34,2.931,7.9,0,10.82
			c-0.149,0.15-0.3,0.29-0.46,0.42c-5.33,4.61-18.739,5.41-21.37,5.52c-0.289,0.02-0.449,0.02-0.449,0.02"/>
		<path style="fill:none;stroke:#231F20;stroke-width:6.2461;" d="M576.82,201.9c-0.73-0.64-1.141-1.36-1.141-2.12
			c0-2.57,4.65-4.65,10.391-4.65c5.739,0,10.39,2.08,10.39,4.65c0,0.43-0.13,0.85-0.39,1.25c-1.21,1.96-5.23,3.4-10,3.4
			C582.04,204.43,578.54,203.4,576.82,201.9z"/>
		<line style="fill:none;stroke:#231F20;stroke-width:6.2461;" x1="574.61" y1="94.76" x2="574.61" y2="84.38"/>
		<polyline style="fill:none;stroke:#231F20;stroke-width:6.2461;" points="574.61,79.4 574.61,76.91 581.54,76.91 581.54,102.65 
			574.61,102.65 574.61,99.73 		"/>
		<rect x="561.95" y="94.76" style="fill:none;stroke:#231F20;stroke-width:6.2461;" width="12.66" height="4.97"/>
		<rect x="561.95" y="79.4" style="fill:none;stroke:#231F20;stroke-width:6.2461;" width="12.66" height="4.98"/>
		<line style="fill:none;stroke:#231F20;stroke-width:6.2461;" x1="646.48" y1="214.45" x2="712.36" y2="174.38"/>
		<polyline style="fill:none;stroke:#231F20;stroke-width:6.2461;" points="719.09,170.28 735.42,160.35 739.68,167.37 
			650.75,221.46 		"/>
		<path style="fill:none;stroke:#231F20;stroke-width:6.2461;" d="M623.46,234.25c-0.02-0.04-0.05-0.07-0.07-0.1"/>
		<path style="fill:none;stroke:#231F20;stroke-width:6.2461;" d="M623.56,234.43c-0.02-0.04-0.04-0.09-0.079-0.15
			c0-0.01-0.011-0.02-0.021-0.03c-1.17-2.13-8-14.88-6.31-21.82c0.239-1,0.739-1.78,1.39-2.4c1.979-1.9,5.42-2.39,7.85-3.21
			c7.341-2.49,13.19-3.72,13.19-3.72l6.9,11.35l2.42,3.97v0.01l0.279,0.45l1.57,2.58l7.75,12.76c0,0-3.75,4.62-9.36,10
			c-2.43,2.34-5.14,6.48-9.069,5.65c-0.051,0-0.11-0.02-0.17-0.03c-6.841-1.66-14.91-13.3-16.42-15.56"/>
		<line style="fill:none;stroke:#231F20;stroke-width:6.2461;" x1="623.64" y1="234.56" x2="623.56" y2="234.43"/>
		<line style="fill:none;stroke:#231F20;stroke-width:6.2461;" x1="623.23" y1="233.9" x2="623.39" y2="234.15"/>
		<path style="fill:none;stroke:#231F20;stroke-width:6.2461;" d="M637.87,236.83c-0.18,0.32-0.43,0.58-0.74,0.76
			c-2.18,1.34-6.38-1.55-9.36-6.45c-2.989-4.9-3.63-9.96-1.42-11.29c0.67-0.41,1.521-0.42,2.471-0.1c2.16,0.71,4.81,3.14,6.88,6.56
			C638.28,230.53,639.11,234.86,637.87,236.83z"/>
		<polyline style="fill:none;stroke:#231F20;stroke-width:6.2461;" points="715.5,164.35 724.36,158.95 728.62,156.36 
			730.74,155.07 734.35,160.99 719.09,170.28 712.36,174.38 708.76,168.45 711.25,166.93 		"/>
		<polygon style="fill:none;stroke:#231F20;stroke-width:6.2461;" points="711.25,166.93 704.68,156.12 708.92,153.54 715.5,164.35 
					"/>
		<polygon style="fill:none;stroke:#231F20;stroke-width:6.2461;" points="724.36,158.95 717.8,148.15 722.05,145.56 728.62,156.36 
			728.62,156.37 724.37,158.96 		"/>
	</g>
</g>
<rect style="fill:none;" width="850.394" height="850.394"/>
</svg>
