<svg xmlns="http://www.w3.org/2000/svg" width="850.394" height="850.394" viewBox="0 0 850.394 850.394" overflow="visible"><path d="M458.05 416.99l6.97 144.43-3.239.16H242.24l-4.13-.061C239.28 495.69 242 416 242 416l.75-2.04-61.8-22.61c19.19-51.09 45.95-105.07 45.95-105.07 14.94-14.93 20.7-21.38 30.23-27.65 7.89-5.2 18.38-10.28 38.8-19.97l5.11.34 49.34 82.46 53.01-82.1 1.46-2.1c5.46 3.31 12.99 7.96 21.26 13.37 16.54 10.81 36.069 24.6 48 36.53 0 0 27 54.43 46.21 105.71l-.38.15-61.54 23.83-.4-.85.05.99z" fill="#abd153"/><path d="M530.85 570.89L458.4 416.85l61.54-23.83.38-.15h.01c6.1 16.3 11.42 32.28 14.84 46.09 9.76 39.51 33.84 122.31 33.84 122.31 9.38 29.91 11.16 66.771 7.88 78.44-1.93 6.91-10.85 16.66-19.29 15.67-9.319-1.01-11.46-22.979-15.97-29.979-7.05 1.47-3.43 11.75-8.64 11.75-4.521-4.5-6.03-16.91-6.03-29.9 0-15.341 2.11-31.481 3.89-36.361zM383.25 161.09c-1.9-2-4.11-3.68-6.58-4.73-1.85-.8-3.86-1.24-6-1.19-2.46.05-4.97.85-7.11 2.2-1.9 1.16-3.51 2.75-4.56 4.61-.63 1.13-1.48 1.91-.36 2.6.94.6 2.09.17 3.1.64.68.32 1.3 1.1 2.03 1.44.87.4 2.02.64 2.96.82 2.22.46 5.13.33 7.24-.42 3.49-1.25 6.52-3.41 9.14-5.84l.14-.13zm-80.23 52.52c-3.91-6.74-7.23-14.61-7.23-21.96 0-14.64-3.23-18.13-3.48-27.85-.12-4.9.95-9.93 2.98-14.5 2.28-5.12 5.76-9.68 10.14-12.89 6.39-4.7 41.19-21.29 56.05-31.71.21.46.57.77 1.06.91 5.38 5.71 32.48 34.44 47.14 49.09 13.64 13.65 4.35 47.15 4.06 49.21-.43 3.06-1.72 5.76-3.5 8.22-2.65 3.68-6.4 6.84-9.95 9.91-3.28 2.84-6.11 6.37-8.91 9.92-6.15 7.83-12.16 15.82-22.54 17.08-11.35 1.39-25.64 5.53-35.4-2.72-6.06-5.14-13.67-9.88-18.66-16.17-.25-.31-.57-.7-.96-1.18-2.29-2.84-6.85-8.53-10.8-15.36zm-2.25-50.65l.15.13c2.62 2.42 5.64 4.58 9.13 5.83 2.12.75 5.03.88 7.24.43.94-.2 2.1-.42 2.96-.83.74-.33 1.35-1.11 2.03-1.43 1.02-.48 2.17-.06 3.11-.65 1.11-.68.26-1.47-.36-2.6-1.05-1.85-2.66-3.44-4.55-4.61-2.15-1.34-4.66-2.14-7.13-2.2-2.14-.05-4.14.39-6 1.19-2.47 1.05-4.68 2.74-6.58 4.74zm66.45 45.92c-3.87.39-18.41-2.96-20.51 2.3-1.3.53-3.42-.85-4.87-1.18-2.72-.63-5.88-.03-8.52.73-4.25 1.23-4.46 2.91-3.12 4.68h.01c1.38 1.82 4.42 3.74 6.38 5.36 5.29 4.37 12.17 4.93 18.59 2.09 4.73-2.09 7.52-6.69 10.18-11.03.63-1.01 1.24-2 1.86-2.95z" fill="#9c5c25"/><path d="M584.16 246.24c.09-.58.26-1.13.5-1.65 1.149-2.46 3.84-4.19 6.97-4.19 2.86 0 5.351 1.44 6.63 3.56.24.39.44.81.59 1.24.23.66.351 1.35.351 2.07 0 3.8-3.391 6.88-7.57 6.88-2.7 0-5.07-1.29-6.399-3.23-.131-.18-.25-.36-.341-.55 0 0-.01 0-.01-.01-.52-.93-.81-1.98-.81-3.09-.001-.35.029-.7.089-1.03z" fill="#231f20"/><path d="M660.58 218.93c3.86 8.91 6 18.72 6 29.03 0 12.1-2.95 23.52-8.17 33.61-12.391 23.87-37.55 40.21-66.57 40.21-41.28 0-74.74-33.06-74.74-73.82 0-21.02 8.9-39.99 23.17-53.44 13.421-12.63 31.57-20.39 51.57-20.39 15.101 0 29.16 4.43 40.91 12.04v.01c12.25 7.92 22 19.3 27.83 32.75zm-62.32 87.09a59.856 59.856 0 0 0 30.16-12.12c3.65-2.81 6.96-6.03 9.85-9.59a58.55 58.55 0 0 0 8.16-13.26 57.96 57.96 0 0 0 4.641-16.86 58.58 58.58 0 0 0 0-13.83 57.681 57.681 0 0 0-4.101-15.64 58.632 58.632 0 0 0-8.1-13.74 59.249 59.249 0 0 0-9.7-9.75 59.89 59.89 0 0 0-30.91-12.7c-2.17-.25-4.38-.37-6.62-.37-2.42 0-4.8.14-7.14.43a59.826 59.826 0 0 0-29.78 12.16 58.933 58.933 0 0 0-9.83 9.63 58.515 58.515 0 0 0-8.26 13.57 58.212 58.212 0 0 0-4.439 16.45 59.7 59.7 0 0 0-.4 6.87c0 2.33.14 4.62.41 6.88.72 6.22 2.43 12.14 4.96 17.62 2.189 4.75 5 9.16 8.33 13.14 2.95 3.52 6.3 6.7 9.979 9.45a59.683 59.683 0 0 0 28.84 11.58c2.4.3 4.851.45 7.33.45 2.24 0 4.45-.12 6.62-.37z" fill="#797878"/><path d="M306.99 161.47c0 3.5 2.98 6.34 6.65 6.34s6.64-2.84 6.64-6.34c0-.98.26-.89-.14-1.7l.34-.54c1.89 1.17 3.5 2.76 4.55 4.61.62 1.13 1.47 1.92.36 2.6-.94.59-2.09.17-3.11.65-.68.32-1.29 1.1-2.03 1.43-.86.41-2.02.63-2.96.83-2.21.45-5.12.32-7.24-.43-3.49-1.25-6.51-3.41-9.13-5.83l-.15-.13c1.9-2 4.11-3.69 6.58-4.74l.23.58c-.72 1.01-.59 1.35-.59 2.67z" fill="#fff"/><path d="M465.31 567.41l.301-.01c.76 12.84 1.26 27.529 1.26 43.859 0 18.311-2 132.08-4.84 176.16l-92.2 1.61-8.52-151.11-17.63-.09-9.05 146.33L332 784l-89.43-.73c-2.91-45.109-4.98-154.189-4.98-172.84 0-14 .2-30.939.52-48.91l4.13.061h219.54l3.239-.16.291 5.989z" fill="#797878"/><path d="M295.29 149.3c-2.03 4.57-3.1 9.6-2.98 14.5.25 9.72 3.48 13.21 3.48 27.85 0 7.35 3.32 15.22 7.23 21.96l-27.75 14.58c5.07-10.14 3.31-22.67 3.31-22.67-.2-19.27-2.55-40.3-2.88-44.85-1.36-18.89 5.66-47.59 15.85-64.18 17.14-27.94 45.09-39.98 88.14-34.95 31.96 3.72 61.19 38.69 61.19 83.02 0 15.53-6.899 32.69.86 48.18l-31.5 19.39c1.78-2.46 3.07-5.16 3.5-8.22.29-2.06 9.58-35.56-4.06-49.21-14.66-14.65-41.76-43.38-47.14-49.09l-.94-1-.12.09c-14.86 10.42-49.66 27.01-56.05 31.71-4.38 3.21-7.86 7.77-10.14 12.89z" fill="#231f20"/><path d="M404.85 237.26l-1.46 2.1-53.01 82.1L301.04 239l-5.11-.34c4.24-2.01 8.91-4.21 14.07-6.66l3.82-3.03c.39.48.71.87.96 1.18 4.99 6.29 12.6 11.03 18.66 16.17 9.76 8.25 24.05 4.11 35.4 2.72 10.38-1.26 16.39-9.25 22.54-17.08l4.62.04s3.39 1.96 8.85 5.26z" fill="#9c5c25"/><path d="M383.25 161.09l-.14.13c-2.62 2.43-5.65 4.59-9.14 5.84-2.11.75-5.02.88-7.24.42-.94-.18-2.09-.42-2.96-.82-.73-.34-1.35-1.12-2.03-1.44-1.01-.47-2.16-.04-3.1-.64-1.12-.69-.27-1.47.36-2.6 1.05-1.86 2.66-3.45 4.56-4.61l.33.53c-.41.82-.15.73-.15 1.71 0 3.5 2.98 6.34 6.65 6.34s6.64-2.84 6.64-6.34c0-1.32.13-1.66-.59-2.67l.23-.58c2.47 1.05 4.68 2.73 6.58 4.73z" fill="#fff"/><path d="M376.44 156.94c.72 1.01.59 1.35.59 2.67 0 3.5-2.97 6.34-6.64 6.34s-6.65-2.84-6.65-6.34c0-.98-.26-.89.15-1.71l-.33-.53c2.14-1.35 4.65-2.15 7.11-2.2 2.14-.05 4.15.39 6 1.19l-.23.58zm-1.94 2.91c0-1.97-1.81-3.56-4.05-3.56-2.24 0-4.05 1.59-4.05 3.56s1.81 3.56 4.05 3.56c2.24 0 4.05-1.59 4.05-3.56z" fill="#abd150"/><path d="M370.45 156.29c2.24 0 4.05 1.59 4.05 3.56s-1.81 3.56-4.05 3.56c-2.24 0-4.05-1.59-4.05-3.56s1.81-3.56 4.05-3.56zm1.46 3.56c0-.88-.65-1.58-1.46-1.58-.8 0-1.45.7-1.45 1.58 0 .87.65 1.58 1.45 1.58.81 0 1.46-.71 1.46-1.58z" fill="#231f20"/><path d="M370.45 158.27c.81 0 1.46.7 1.46 1.58 0 .87-.65 1.58-1.46 1.58-.8 0-1.45-.71-1.45-1.58 0-.88.65-1.58 1.45-1.58z" fill="#231f20"/><path d="M346.71 211.18c2.1-5.26 16.64-1.91 20.51-2.3-.62.95-1.23 1.94-1.86 2.95-7.42 3.36-11.72 3.4-16.98 3.82-5.23.41-12.96 1.28-18.17-.24h-.01c-1.34-1.77-1.13-3.45 3.12-4.68 2.64-.76 5.8-1.36 8.52-.73 1.45.33 3.57 1.71 4.87 1.18z" fill="#ef947d"/><path d="M365.36 211.83c-2.66 4.34-5.45 8.94-10.18 11.03-6.42 2.84-13.3 2.28-18.59-2.09-1.96-1.62-5-3.54-6.38-5.36 5.21 1.52 12.94.65 18.17.24 5.26-.42 9.56-.46 16.98-3.82z" fill="#ef947d"/><path d="M320.48 159.23l-.34.54c.4.81.14.72.14 1.7 0 3.5-2.97 6.34-6.64 6.34s-6.65-2.84-6.65-6.34c0-1.32-.13-1.66.59-2.67l-.23-.58c1.86-.8 3.86-1.24 6-1.19 2.47.06 4.98.86 7.13 2.2zm-2.86 2.48c0-1.97-1.81-3.56-4.04-3.56-2.24 0-4.05 1.59-4.05 3.56s1.81 3.56 4.05 3.56c2.23 0 4.04-1.59 4.04-3.56z" fill="#abd150"/><path d="M313.58 158.15c2.23 0 4.04 1.59 4.04 3.56s-1.81 3.56-4.04 3.56c-2.24 0-4.05-1.59-4.05-3.56s1.81-3.56 4.05-3.56zm1.45 3.56c0-.87-.65-1.58-1.45-1.58-.81 0-1.45.71-1.45 1.58s.64 1.58 1.45 1.58c.8 0 1.45-.71 1.45-1.58z" fill="#231f20"/><path d="M313.58 160.13c.8 0 1.45.71 1.45 1.58s-.65 1.58-1.45 1.58c-.81 0-1.45-.71-1.45-1.58s.64-1.58 1.45-1.58z" fill="#231f20"/><path d="M242.75 413.96L242 416l-71.81 154c1.78 4.88 3.88 20.99 3.88 36.3 0 13.021-1.52 25.46-6.04 29.97-5.18 0-1.58-10.31-8.66-11.739-4.49 6.989-6.63 28.95-15.95 29.979-8.41 1-17.35-8.79-19.28-15.66-3.28-11.699-1.52-48.54 7.86-78.47 0 0 24.08-82.8 33.86-122.3 3.46-13.99 8.88-30.21 15.09-46.73l61.8 22.61z" fill="#9c5c25"/><g fill="none" stroke="#231f20"><path d="M132 560.38s24.08-82.8 33.86-122.3c3.46-13.99 8.88-30.21 15.09-46.73 19.19-51.09 45.95-105.07 45.95-105.07 14.94-14.93 20.7-21.38 30.23-27.65 7.89-5.2 18.38-10.28 38.8-19.97 4.24-2.01 8.91-4.21 14.07-6.66M242.57 783.27c-2.91-45.109-4.98-154.189-4.98-172.84 0-14 .2-30.939.52-48.91C239.28 495.69 242 416 242 416l-71.81 154c1.78 4.88 3.88 20.99 3.88 36.3 0 13.021-1.52 25.46-6.04 29.97-5.18 0-1.58-10.31-8.66-11.739-4.49 6.989-6.63 28.95-15.95 29.979-8.41 1-17.35-8.79-19.28-15.66-3.28-11.699-1.52-48.54 7.86-78.47M569.01 561.27s-24.08-82.8-33.84-122.31c-3.42-13.81-8.74-29.79-14.84-46.09h-.01c-19.21-51.28-46.21-105.71-46.21-105.71-11.931-11.93-31.46-25.72-48-36.53a739.506 739.506 0 0 0-21.26-13.37c-5.46-3.3-8.85-5.26-8.85-5.26M465.52 571.83l-.21-4.42-.29-5.99-6.97-144.43-.05-.99.4.85 72.449 154.04c-1.779 4.88-3.89 21.021-3.89 36.36 0 12.99 1.51 25.4 6.03 29.9 5.21 0 1.59-10.28 8.64-11.75 4.51 7 6.65 28.97 15.97 29.979 8.44.99 17.36-8.76 19.29-15.67 3.28-11.67 1.5-48.53-7.88-78.44" stroke-width="14"/><path d="M462.03 787.42c2.84-44.08 4.84-157.85 4.84-176.16 0-16.33-.5-31.02-1.26-43.859M369.83 789.03l-8.52-151.11-17.63-.09-9.05 146.33-.3 4.87M242.24 561.58h219.54M180.95 391.35l61.8 22.61 10.29 3.77M519.94 393.02l-61.54 23.83-.35.14-6.2 2.4M301.04 239l49.34 82.46 53.01-82.1M632.75 186.18c12.25 7.92 22 19.3 27.83 32.75 3.86 8.91 6 18.72 6 29.03 0 12.1-2.95 23.52-8.17 33.61-12.391 23.87-37.55 40.21-66.57 40.21-41.28 0-74.74-33.06-74.74-73.82 0-21.02 8.9-39.99 23.17-53.44 13.421-12.63 31.57-20.39 51.57-20.39 15.101 0 29.16 4.43 40.91 12.04" stroke-width="14"/><path d="M651.07 240.36a58.411 58.411 0 0 1 0 13.83 57.93 57.93 0 0 1-4.641 16.86 58.55 58.55 0 0 1-8.16 13.26 59.173 59.173 0 0 1-9.85 9.59 59.856 59.856 0 0 1-30.16 12.12c-2.17.25-4.38.37-6.62.37-2.479 0-4.93-.15-7.33-.45a59.683 59.683 0 0 1-28.84-11.58 59.538 59.538 0 0 1-9.979-9.45 58.896 58.896 0 0 1-8.33-13.14 57.848 57.848 0 0 1-4.96-17.62c-.271-2.26-.41-4.55-.41-6.88 0-2.32.14-4.62.4-6.87.68-5.78 2.199-11.3 4.439-16.45 2.13-4.9 4.92-9.46 8.26-13.57 2.88-3.58 6.19-6.81 9.83-9.63a59.826 59.826 0 0 1 29.78-12.16c2.34-.29 4.72-.43 7.14-.43 2.24 0 4.45.12 6.62.37a59.89 59.89 0 0 1 30.91 12.7c3.61 2.87 6.86 6.14 9.7 9.75 3.29 4.17 6.03 8.78 8.1 13.74a57.645 57.645 0 0 1 4.101 15.64zM531.57 240.4h119.15M531.57 254.15h119.15M584.5 243.72V188.21M584.5 304.25V251.97M598.26 244.44v-56.23M598.26 307.35v-56.07" stroke-width="6.43"/><path stroke-width="6.43" d="M638.87 210.98l-29.43 29.42-.5.51-7.03 7.03-2.92 2.92-.73.72-2.57 2.57-3.52 3.51-7.67 7.68-29.03 29.02M584.5 245.9l-.34.34-1.7 1.7-6.21 6.21-1.17 1.17-29.59 29.59M629.17 201.23l-30.91 30.91-6.08 6.08-2.18 2.18"/><path stroke-width="6.43" d="M588.66 254.15l3.51 3.51 6.09 6.09 30.15 30.14M544.89 210.38l29.95 29.95.08.07 7.54 7.54 2.42 2.42M599.51 245.54l2.4 2.4 6.21 6.21 1.03 1.04 29.12 29.12M554.73 200.76l29.77 29.78 7.68 7.68 2.18 2.18"/><path stroke-width="6.43" d="M598.99 250.86l7.73 3.29 2.43 1.04 37.28 15.86M536.64 223.95l38.2 16.38.18.07 9.49 4.07M585.23 250.92l-7.45 3.23-2.7 1.17-37.92 16.45M646.96 224.72l-36.83 15.68-1.19.51-10.09 4.29"/><path d="M598.85 245.2c.23.66.351 1.35.351 2.07 0 3.8-3.391 6.88-7.57 6.88-2.7 0-5.07-1.29-6.399-3.23-.131-.18-.25-.36-.341-.55 0 0-.01 0-.01-.01-.52-.93-.81-1.98-.81-3.09 0-.35.029-.7.09-1.03.09-.58.26-1.13.5-1.65 1.149-2.46 3.84-4.19 6.97-4.19 2.86 0 5.351 1.44 6.63 3.56.239.39.439.81.589 1.24z" stroke-width="6.43"/><path d="M539.69 141.21V73.75s1.939-12.8-35.671 7.75M539.69 193.08v-45.66" stroke-width="14" stroke-linecap="round" stroke-linejoin="round"/><path stroke-width="14" d="M660.57 218.93h29.57l13.87 55.87 8.61 34.69h21.71M539.69 141.21h108.57v6.21H539.69zM632.75 147.42v38.76"/><path d="M698.36 278.82a19.992 19.992 0 0 1 3.739 11.69c0 11.14-9.02 20.16-20.149 20.16-11.141 0-20.17-9.02-20.17-20.16 0-2.79.56-5.44 1.59-7.85 3.06-7.23 10.229-12.31 18.58-12.31 6.77 0 12.76 3.34 16.41 8.47z" stroke-width="12.86"/><path stroke-width="12.86" stroke-linecap="round" stroke-linejoin="round" d="M681.95 290.51l16.41-11.69 5.65-4.02"/><path d="M353.17 151.42c5.62-9.36 19.29-10.85 27.1-7.8 4.2 1.64 6.76 3.57 7.86 4.68M323.69 147.96c-7.45-6.63-21.97-5.61-28.4 1.34-.34.36-.65.73-.94 1.12" stroke-width="7"/><path d="M332.97 153.44c8.16 6.11 3.84 26.78 1.78 32.94-.65 1.96-3.46 5.45-1.48 7.49.95.98 2.18.45 3.38.64 1.25.19 1.99.32 3.41.84 2.77 1.03 4.78 1.66 7.26-.16 2.7-1.95 2.5-3.33 6.47-3.14 3.35.16 7.05 1.1 6.88-4.04-.11-3.55-2.78-3.5-4.68-6.01M330.2 215.41c-1.34-1.77-1.13-3.45 3.12-4.68 2.64-.76 5.8-1.36 8.52-.73 1.45.33 3.57 1.71 4.87 1.18.22-.09.41-.23.58-.44" stroke-width="3.471"/><path d="M346.48 212.09c.04-.33.11-.63.23-.91 2.1-5.26 16.64-1.91 20.51-2.3-.62.95-1.23 1.94-1.86 2.95-2.66 4.34-5.45 8.94-10.18 11.03-6.42 2.84-13.3 2.28-18.59-2.09-1.96-1.62-5-3.54-6.38-5.36" stroke-width="3.471"/><path d="M330.2 215.41h.01c5.21 1.52 12.94.65 18.17.24 5.26-.42 9.56-.46 16.98-3.82" stroke-width="3.471"/><path d="M362.54 105.61c5.38 5.71 32.48 34.44 47.14 49.09 13.64 13.65 4.35 47.15 4.06 49.21-.43 3.06-1.72 5.76-3.5 8.22-2.65 3.68-6.4 6.84-9.95 9.91-3.28 2.84-6.11 6.37-8.91 9.92-6.15 7.83-12.16 15.82-22.54 17.08-11.35 1.39-25.64 5.53-35.4-2.72-6.06-5.14-13.67-9.88-18.66-16.17-.25-.31-.57-.7-.96-1.18-2.29-2.84-6.85-8.53-10.8-15.36-3.91-6.74-7.23-14.61-7.23-21.96 0-14.64-3.23-18.13-3.48-27.85-.12-4.9.95-9.93 2.98-14.5 2.28-5.12 5.76-9.68 10.14-12.89 6.39-4.7 41.19-21.29 56.05-31.71l.12-.09.94 1z" stroke-width="7"/><path d="M303.03 213.6l-.01.01-27.75 14.58c5.07-10.14 3.31-22.67 3.31-22.67-.2-19.27-2.55-40.3-2.88-44.85-1.36-18.89 5.66-47.59 15.85-64.18 17.14-27.94 45.09-39.98 88.14-34.95 31.96 3.72 61.19 38.69 61.19 83.02 0 15.53-6.899 32.69.86 48.18l-31.5 19.39-.04.03" stroke-width="7"/><path d="M299.57 164.32c.39-.47.79-.92 1.2-1.36 1.9-2 4.11-3.69 6.58-4.74 1.86-.8 3.86-1.24 6-1.19 2.47.06 4.98.86 7.13 2.2 1.89 1.17 3.5 2.76 4.55 4.61.62 1.13 1.47 1.92.36 2.6-.94.59-2.09.17-3.11.65-.68.32-1.29 1.1-2.03 1.43-.86.41-2.02.63-2.96.83-2.21.45-5.12.32-7.24-.43-3.49-1.25-6.51-3.41-9.13-5.83" stroke-width="3.471" stroke-linecap="square" stroke-miterlimit="10"/><path d="M320.14 159.77c.4.81.14.72.14 1.7 0 3.5-2.97 6.34-6.64 6.34s-6.65-2.84-6.65-6.34c0-1.32-.13-1.66.59-2.67M384.46 162.46c-.39-.47-.79-.93-1.21-1.37-1.9-2-4.11-3.68-6.58-4.73-1.85-.8-3.86-1.24-6-1.19-2.46.05-4.97.85-7.11 2.2-1.9 1.16-3.51 2.75-4.56 4.61-.63 1.13-1.48 1.91-.36 2.6.94.6 2.09.17 3.1.64.68.32 1.3 1.1 2.03 1.44.87.4 2.02.64 2.96.82 2.22.46 5.13.33 7.24-.42 3.49-1.25 6.52-3.41 9.14-5.84" stroke-width="3.471" stroke-linecap="square" stroke-miterlimit="10"/><path d="M363.89 157.9c-.41.82-.15.73-.15 1.71 0 3.5 2.98 6.34 6.65 6.34s6.64-2.84 6.64-6.34c0-1.32.13-1.66-.59-2.67" stroke-width="3.471" stroke-linecap="square" stroke-miterlimit="10"/><path d="M363.35 105.72c-.3 0-.57-.03-.81-.11a1.61 1.61 0 0 1-1.06-.91.663.663 0 0 1-.09-.19c4.58-4.45 6.82-11.51 8.19-17.52" stroke-width="7"/></g><path fill="none" d="M0 0h850.394v850.394H0z"/></svg>