<svg xmlns="http://www.w3.org/2000/svg" width="850.394" height="850.394" viewBox="0 0 850.394 850.394" overflow="visible"><path fill="#fbed24" d="M717.9 172.42l4.15-2.53v-.01l2.07-1.26 3.53 5.79-21.51 13.09-3.52-5.8 2.45-1.49v.01l4.15-2.52-.01-.01 8.68-5.28z"/><path fill="#fbed24" d="M644.36 231.02l-.28-.44-2.37-3.89 64.43-39.19 21.51-13.09 1.04-.63 4.18 6.87-86.97 52.9z"/><path d="M635.45 261.33c-.16-4.42-.9-8.69-2.15-12.75 1.21-1.92.41-6.16-2.12-10.29-2.02-3.34-4.62-5.72-6.729-6.42-2.9-3.61-6.28-6.81-10.061-9.5 1.94-1.85 5.301-2.34 7.69-3.14 7.17-2.43 12.89-3.64 12.89-3.64l6.74 11.1 2.37 3.89.28.44 1.54 2.53 7.58 12.47s-3.681 4.53-9.16 9.78c-2.39 2.29-5.03 6.34-8.87 5.53z" fill="#fbed24"/><path d="M633.3 248.58a50.08 50.08 0 0 0-8.85-16.71c2.109.7 4.71 3.08 6.729 6.42 2.531 4.13 3.331 8.37 2.121 10.29z" fill="#fff"/><path d="M623.42 243.01c-2.92-4.79-3.54-9.74-1.39-11.04.649-.4 1.489-.41 2.42-.1a50.08 50.08 0 0 1 8.85 16.71c-.18.31-.42.56-.72.74-2.13 1.31-6.25-1.51-9.16-6.31zM619.28 246.18l-.19-.31c.021.02.04.05.061.08.01.01.01.02.02.03.049.08.079.15.109.2z" fill="#fff"/><path d="M635.28 261.3c-6.8-1.65-14.83-13.39-16.11-15.32-.01-.01-.01-.02-.02-.03-1.311-2.38-7.74-14.56-6.12-21.23a4.76 4.76 0 0 1 1.359-2.35 50.4 50.4 0 0 1 10.061 9.5c-.931-.31-1.771-.3-2.42.1-2.15 1.3-1.53 6.25 1.39 11.04 2.91 4.8 7.03 7.62 9.16 6.31.3-.18.54-.43.72-.74 1.25 4.06 1.99 8.33 2.15 12.75-.06 0-.11-.02-.17-.03zM586.24 90.97v101.81h-8.03V90.97z" fill="#fbed24"/><path d="M583.08 222.06c.21.02.32.02.32.02h-.761c.001 0 .161 0 .441-.02z" fill="#fff"/><path fill="#fbed24" d="M578.21 92.18v25.18h-6.78V92.18z"/><path d="M582.64 207.79c5.61 0 10.16 2.04 10.16 4.55 0 .43-.13.84-.38 1.23-2.34-.34-4.74-.51-7.18-.51-4.01 0-7.91.47-11.641 1.36-.72-.63-1.119-1.33-1.119-2.08 0-2.51 4.55-4.55 10.16-4.55z" fill="#fff"/><path d="M592.42 213.57c-1.189 1.91-5.12 3.32-9.78 3.32-3.939 0-7.359-1.01-9.04-2.47 3.73-.89 7.631-1.36 11.641-1.36 2.439 0 4.839.17 7.179.51z" fill="#fff"/><path d="M582.64 216.89c4.66 0 8.591-1.41 9.78-3.32 4.03.57 7.9 1.63 11.561 3.1-5.221 4.5-18.33 5.28-20.9 5.39-2.03-.07-13.26-.68-19.311-4.2 3.11-1.47 6.4-2.63 9.83-3.44 1.68 1.46 5.1 2.47 9.04 2.47z" fill="#fbed24"/><path d="M573.6 214.42c-3.43.81-6.72 1.97-9.83 3.44-.829-.47-1.56-1-2.159-1.6-2.851-2.86-.73-7.32 0-10.58 1.67-7.41 3.6-12.9 3.6-12.9h35.621s1.96 5.49 3.6 12.9c.73 3.26 2.86 7.72 0 10.58-.14.14-.29.28-.449.41a49.646 49.646 0 0 0-11.561-3.1c.25-.39.38-.8.38-1.23 0-2.51-4.55-4.55-10.16-4.55-5.609 0-10.159 2.04-10.159 4.55-.003.75.397 1.45 1.117 2.08z" fill="#fbed24"/><path d="M548 558l3.73-.96c.22.74.329 1.13.329 1.13 8.91 28.41 10.601 63.43 7.48 74.521-1.82 6.56-10.31 15.829-18.32 14.88-8.859-.96-10.89-21.83-15.17-28.48-6.7 1.391-3.26 11.16-8.21 11.16-4.29-4.28-5.729-16.07-5.729-28.42 0-14.561 2.01-29.89 3.699-34.53L548 558z" fill="#9c5c25"/><path d="M551.73 557.04L548 558l-32.19 9.3-70.06-153.33 7.17 91.589 1.26 8.341 24 158.14-26.14-.271-90.03-.93-16.02-.16.01-.679-.11-298.15v-.71h4.5l42.23-55.2-11.76-27.03 37.35 13.05-19.65-47.45c4.25 2.39 8.98 5.12 13.93 8.07 17.63 10.51 38.09 23.84 49.42 35.18 0 0 44.54 89.79 58 144.21 8.62 34.9 29 105.34 31.82 115.07z" fill="#34a047"/><path d="M452.04 671.77L452 676c-.62 23.44-.37 74.16-1.08 94.05l-88.09 4.49L362 672l.01-1.16 90.03.93z" fill="#797878"/><path d="M374.7 248.55c1.65-1.42 3.19-3.03 4.67-4.74l.7.6s7.65 3.96 18.49 10.1l19.65 47.45-37.35-13.05 11.76 27.03-42.23 55.2 24.31-122.59z" fill="#34a047"/><path d="M364.14 166.9c.77 0 1.4.68 1.4 1.52s-.63 1.53-1.4 1.53-1.39-.69-1.39-1.53.62-1.52 1.39-1.52z" fill="#231f20"/><path d="M368.04 168.42c0 1.9-1.75 3.42-3.9 3.42s-3.9-1.52-3.9-3.42c0-1.89 1.75-3.42 3.9-3.42s3.9 1.53 3.9 3.42zm-3.9 1.53c.77 0 1.4-.69 1.4-1.53s-.63-1.52-1.4-1.52-1.39.68-1.39 1.52.62 1.53 1.39 1.53z" fill="#231f20"/><path d="M364.14 171.84c2.15 0 3.9-1.52 3.9-3.42 0-1.89-1.75-3.42-3.9-3.42s-3.9 1.53-3.9 3.42c0 1.9 1.75 3.42 3.9 3.42zm.21-7.92c2.05-.04 3.98.38 5.77 1.14 2.37 1.01 4.5 2.62 6.33 4.55l-.14.13c-2.53 2.34-5.43 4.42-8.79 5.61-2.03.73-4.83.85-6.96.42-.89-.19-2.01-.41-2.84-.8-.71-.32-1.3-1.07-1.95-1.38-.99-.45-2.08-.05-2.99-.62-1.07-.66-.26-1.41.35-2.49 1.01-1.79 2.56-3.32 4.38-4.44 2.06-1.29 4.47-2.06 6.84-2.12z" fill="#fff"/><path d="M297.15 171.41l.13.13c2.51 2.33 5.43 4.4 8.79 5.6 2.03.73 4.83.86 6.95.42.9-.19 2.02-.41 2.85-.8.7-.31 1.3-1.07 1.95-1.38.98-.45 2.08-.06 2.99-.62 1.07-.66.25-1.41-.35-2.5-1.01-1.78-2.56-3.3-4.38-4.43-2.06-1.29-4.47-2.06-6.84-2.11-2.05-.05-3.98.37-5.77 1.14-2.38 1.01-4.49 2.62-6.32 4.55zm62.08 47.01c.6-.98 1.19-1.94 1.8-2.86-3.72.38-17.72-2.84-19.72 2.23-1.25.51-3.29-.82-4.67-1.15-2.62-.6-5.66-.03-8.21.71-4.08 1.18-4.29 2.8-2.99 4.49 1.33 1.75 4.26 3.6 6.14 5.16 5.08 4.2 11.7 4.74 17.87 2.01 4.55-2.01 7.23-6.41 9.78-10.59zm43.18.27c-2.56 3.54-6.16 6.57-9.57 9.53-5.06 4.38-8.99 10.42-13.47 15.59-1.48 1.71-3.02 3.32-4.67 4.74-3.38 2.91-7.25 5.04-12.12 5.64-10.9 1.33-24.64 5.31-34.02-2.62-2.56-2.16-5.39-4.25-8.17-6.42-1.59-1.24-3.17-2.51-4.66-3.84-1.87-1.66-3.62-3.4-5.12-5.29-1.64-2.06-6.87-8.24-11.32-15.92-3.75-6.48-6.94-14.04-6.94-21.1 0-14.07-3.11-17.44-3.35-26.78-.11-4.73.92-9.56 2.88-13.97 2.19-4.91 5.53-9.28 9.73-12.37 6.15-4.51 39.58-20.46 53.89-30.49.21.46.56.75 1.05.89 5.21 5.53 31.23 33.13 45.3 47.19 13.13 13.13 4.2 45.34 3.91 47.32-.41 2.95-1.65 5.54-3.35 7.9zm-25.96-49.08c-1.83-1.93-3.96-3.54-6.33-4.55-1.79-.76-3.72-1.18-5.77-1.14-2.37.06-4.78.83-6.84 2.12-1.82 1.12-3.37 2.65-4.38 4.44-.61 1.08-1.42 1.83-.35 2.49.91.57 2 .17 2.99.62.65.31 1.24 1.06 1.95 1.38.83.39 1.95.61 2.84.8 2.13.43 4.93.31 6.96-.42 3.36-1.19 6.26-3.27 8.79-5.61l.14-.13z" fill="#9c5c25"/><path d="M356.55 116.28l-.92-.98c-.04.03-.09.06-.13.09-14.31 10.03-47.74 25.98-53.89 30.49-4.2 3.09-7.54 7.46-9.73 12.37-1.96 4.41-2.99 9.24-2.88 13.97.24 9.34 3.35 12.71 3.35 26.78 0 7.06 3.19 14.62 6.94 21.1l-26.67 14.04c4.88-9.75 3.18-21.79 3.18-21.79-.19-18.54-2.45-38.76-2.77-43.13-1.3-18.17 5.44-45.77 15.24-61.72 16.49-26.87 43.35-38.44 84.75-33.61 30.74 3.59 58.83 37.21 58.83 79.83 0 14.93-6.62 31.44.841 46.33l-30.28 18.64c1.7-2.36 2.94-4.95 3.35-7.9.29-1.98 9.22-34.19-3.91-47.32-14.071-14.06-40.091-41.66-45.301-47.19z" fill="#231f20"/><path d="M342.25 371.85h3.64L346 670l-.01.68-11.95-.12-96.02-.989-20.84-.21 21.9-154.73 1.18-8.36 3.89-93.089-.93-.04-67.9 148.62L142 550l-2.93-.19c5.93-20.54 22.44-78.189 29.99-108.68 13.47-54.42 57.99-144.21 57.99-144.21 11.34-11.33 33.17-24.66 52.17-35.17 4.75-2.63 9.32-5.07 13.51-7.27l1.4.58-19.69 47.61 37.34-13.05-11.76 27.03 42.23 55.2z" fill="#34a047"/><path d="M334.04 670.56L334 674l-4.68 96.15-87.38 5.029c-1.13-17.42-3.16-74.319-3.94-103.18l.02-2.43 96.02.991z" fill="#797878"/><path d="M331.58 227c-1.88-1.56-4.81-3.41-6.14-5.16 5.01 1.47 12.45.63 17.48.24 5.05-.4 9.17-.44 16.31-3.66-2.55 4.18-5.23 8.58-9.78 10.59-6.17 2.73-12.79 2.19-17.87-2.01z" fill="#ef947d"/><path d="M341.31 217.79c2-5.07 16-1.85 19.72-2.23-.61.92-1.2 1.88-1.8 2.86-7.14 3.22-11.26 3.26-16.31 3.66-5.03.39-12.47 1.23-17.48-.24-1.3-1.69-1.09-3.31 2.99-4.49 2.55-.74 5.59-1.31 8.21-.71 1.38.33 3.42 1.66 4.67 1.15z" fill="#ef947d"/><path d="M342.25 371.85l-24.47-123.36 2.61-3.34c2.78 2.17 5.61 4.26 8.17 6.42 9.38 7.93 23.12 3.95 34.02 2.62 4.87-.6 8.74-2.73 12.12-5.64l-24.31 122.59h-4.5v.71h-3.64z" fill="#fff"/><path d="M317.78 248.49l24.47 123.36-42.23-55.2 11.76-27.03-37.34 13.05 19.69-47.61-1.4-.58c12.56-6.59 21.65-10.9 21.65-10.9l1.35-2.27c1.49 1.33 3.07 2.6 4.66 3.84l-2.61 3.34z" fill="#34a047"/><path d="M309.45 171.73c-.78 0-1.39-.68-1.39-1.52s.61-1.52 1.39-1.52c.77 0 1.39.68 1.39 1.52s-.62 1.52-1.39 1.52z" fill="#231f20"/><path d="M308.06 170.21c0 .84.61 1.52 1.39 1.52.77 0 1.39-.68 1.39-1.52s-.62-1.52-1.39-1.52c-.78 0-1.39.68-1.39 1.52zm1.39-3.42c2.15 0 3.88 1.53 3.88 3.42 0 1.9-1.73 3.43-3.88 3.43s-3.89-1.53-3.89-3.43c0-1.89 1.74-3.42 3.89-3.42z" fill="#231f20"/><path d="M317.82 175.38c-.65.31-1.25 1.07-1.95 1.38-.83.39-1.95.61-2.85.8-2.12.44-4.92.31-6.95-.42-3.36-1.2-6.28-3.27-8.79-5.6l-.13-.13c1.83-1.93 3.94-3.54 6.32-4.55 1.79-.77 3.72-1.19 5.77-1.14 2.37.05 4.78.82 6.84 2.11 1.82 1.13 3.37 2.65 4.38 4.43.6 1.09 1.42 1.84.35 2.5-.91.56-2.01.17-2.99.62zm-4.49-5.17c0-1.89-1.73-3.42-3.88-3.42s-3.89 1.53-3.89 3.42c0 1.9 1.74 3.43 3.89 3.43 2.15 0 3.88-1.53 3.88-3.43z" fill="#fff"/><path d="M139.07 549.81l2.93.19 33.32 11.76-2.15 4.7c1.69 4.64 3.69 19.95 3.69 34.51 0 12.36-1.44 24.17-5.73 28.45-4.92 0-1.51-9.79-8.24-11.15-4.26 6.641-6.29 27.5-15.15 28.471-7.98.95-16.48-8.34-18.32-14.87-3.11-11.12-1.44-46.12 7.48-74.55 0-.001.8-2.761 2.17-7.511z" fill="#9c5c25"/><g fill="none" stroke="#231f20"><path d="M603.98 216.67a50.021 50.021 0 0 1 10.409 5.7M635.45 261.33c.04.66.05 1.32.05 1.99 0 27.76-22.5 50.26-50.26 50.26s-50.26-22.5-50.26-50.26c0-20.08 11.77-37.4 28.789-45.46M136.9 557.32s.8-2.761 2.17-7.511c5.93-20.54 22.44-78.189 29.99-108.68 13.47-54.42 57.99-144.21 57.99-144.21 11.34-11.33 33.17-24.66 52.17-35.17 4.75-2.63 9.32-5.07 13.51-7.27 12.56-6.59 21.65-10.9 21.65-10.9M243.22 413.14l-67.9 148.62-2.15 4.7c1.69 4.64 3.69 19.95 3.69 34.51 0 12.36-1.44 24.17-5.73 28.45-4.92 0-1.51-9.79-8.24-11.15-4.26 6.641-6.29 27.5-15.15 28.471-7.98.95-16.48-8.34-18.32-14.87-3.11-11.12-1.44-46.12 7.48-74.55M241.94 775.18c-1.13-17.42-3.16-74.319-3.94-103.18M552.06 558.17s-.109-.39-.329-1.13c-2.82-9.73-23.2-80.17-31.82-115.07-13.46-54.42-58-144.21-58-144.21-11.33-11.34-31.79-24.67-49.42-35.18-4.95-2.95-9.68-5.68-13.93-8.07-10.84-6.14-18.49-10.1-18.49-10.1M450.71 774.54c.08-1.23.15-2.74.21-4.49.71-19.89.46-70.609 1.08-94.05M334 674l-4.68 96.15-.21 4.39M362.83 774.54L362 672" stroke-width="14"/><path d="M244.33 408.99l-.18 4.19-3.89 93.089-1.18 8.36-21.9 154.73 20.84.21 96.02.989 11.95.12 16.02.16 90.03.93 26.14.271-24-158.14-1.26-8.341-7.17-91.589 70.06 153.33c-1.689 4.641-3.699 19.97-3.699 34.53 0 12.35 1.439 24.14 5.729 28.42 4.95 0 1.51-9.77 8.21-11.16 4.28 6.65 6.311 27.521 15.17 28.48 8.011.949 16.5-8.32 18.32-14.88 3.12-11.091 1.43-46.11-7.48-74.521" stroke-width="14"/><path stroke-width="14" d="M345.89 370.56v1.29L346 670M142 550l33.32 11.76.68.24"/><path stroke-width="18.325" d="M548 558l-32.19 9.3"/><path stroke-width="14" d="M246 512l-6.92 2.63 64.91-34.27M454.18 513.9l-64.97-34.29M317.78 248.49l24.47 123.36-42.23-55.2 11.76-27.03-37.34 13.05 19.69-47.61.15-.37M374.85 247.78l-.15.77-24.31 122.59 42.23-55.2-11.76-27.03 37.35 13.05-19.65-47.45-.21-.52"/><path stroke-width="6.109" d="M578.21 192.78v-75.42M578.21 92.18v-1.21h8.03v101.81"/><path d="M583.4 222.08s-.11 0-.32-.02c-2.03-.07-13.26-.68-19.311-4.2-.829-.47-1.56-1-2.159-1.6-2.851-2.86-.73-7.32 0-10.58 1.67-7.41 3.6-12.9 3.6-12.9h35.621s1.96 5.49 3.6 12.9c.73 3.26 2.86 7.72 0 10.58-.14.14-.29.28-.449.41-5.221 4.5-18.33 5.28-20.9 5.39-.28.02-.44.02-.44.02" stroke-width="6.109"/><path d="M573.6 214.42c-.72-.63-1.119-1.33-1.119-2.08 0-2.51 4.55-4.55 10.159-4.55 5.61 0 10.16 2.04 10.16 4.55 0 .43-.13.84-.38 1.23-1.189 1.91-5.12 3.32-9.78 3.32-3.94 0-7.36-1.01-9.04-2.47zM571.43 109.64V99.49M571.43 94.62v-2.44h6.78v25.18h-6.78v-2.86M559.05 109.64h12.38v4.86h-12.38zM559.05 94.62h12.38v4.87h-12.38zM641.71 226.69l64.43-39.19M727.65 174.41l1.04-.63 4.18 6.87-86.97 52.9M619.15 245.95c-.021-.03-.04-.06-.061-.08" stroke-width="6.109"/><path d="M619.35 246.31c-.01-.03-.04-.07-.069-.13-.03-.05-.061-.12-.11-.2-.01-.01-.01-.02-.02-.03-1.311-2.38-7.74-14.56-6.12-21.23a4.76 4.76 0 0 1 1.359-2.35c1.94-1.85 5.301-2.34 7.69-3.14 7.17-2.43 12.89-3.64 12.89-3.64l6.74 11.1 2.37 3.89.28.44 1.54 2.53 7.58 12.47s-3.681 4.53-9.16 9.78c-2.391 2.29-5.03 6.34-8.87 5.53-.061 0-.11-.02-.17-.03-6.8-1.65-14.83-13.39-16.11-15.32M619.38 246.36l-.03-.05M618.99 245.71l.1.16" stroke-width="6.109"/><path d="M633.3 248.58c-.18.31-.42.56-.72.74-2.13 1.31-6.25-1.51-9.16-6.31-2.92-4.79-3.54-9.74-1.39-11.04.649-.4 1.489-.41 2.42-.1 2.109.7 4.71 3.08 6.729 6.42 2.531 4.13 3.331 8.37 2.121 10.29zM722.05 169.88l2.07-1.26 3.53 5.79-21.51 13.09-3.52-5.8 2.45-1.49 4.14-2.52 8.68-5.28z" stroke-width="6.109"/><path stroke-width="6.109" d="M705.07 180.21l-6.43-10.56 4.14-2.53 6.43 10.57.01.01-4.15 2.52zM717.89 172.41l-6.42-10.56 4.15-2.53 6.43 10.56v.01l-4.15 2.53z"/><path d="M347.52 160.32c5.41-9 18.55-10.44 26.07-7.5 4.03 1.57 6.49 3.43 7.55 4.5M319.18 156.99c-7.15-6.36-21.09-5.39-27.3 1.26-.33.35-.64.72-.92 1.1M328.1 162.27c7.84 5.87 3.69 25.74 1.72 31.66-.64 1.89-3.34 5.24-1.44 7.21.93.94 2.1.43 3.26.6 1.19.2 1.91.32 3.28.83 2.66.99 4.59 1.58 6.98-.16 2.59-1.88 2.4-3.2 6.22-3.02 3.21.16 6.78 1.06 6.61-3.89-.11-3.41-2.67-3.37-4.5-5.77" stroke-width="7"/><path d="M341.09 218.65c.04-.31.11-.6.22-.86 2-5.07 16-1.85 19.72-2.23-.61.92-1.2 1.88-1.8 2.86-2.55 4.18-5.23 8.58-9.78 10.59-6.17 2.73-12.79 2.19-17.87-2.01-1.88-1.56-4.81-3.41-6.14-5.16-1.3-1.69-1.09-3.31 2.99-4.49 2.55-.74 5.59-1.31 8.21-.71 1.38.33 3.42 1.66 4.67 1.15.21-.09.4-.23.56-.43" stroke-width="4"/><path d="M325.44 221.84c5.01 1.47 12.45.63 17.48.24 5.05-.4 9.17-.44 16.31-3.66.01 0 .01-.01.02-.01" stroke-width="4"/><path d="M356.55 116.28c5.21 5.53 31.23 33.13 45.3 47.19 13.13 13.13 4.2 45.34 3.91 47.32-.41 2.95-1.65 5.54-3.35 7.9-2.56 3.54-6.16 6.57-9.57 9.53-5.06 4.38-8.99 10.42-13.47 15.59-1.48 1.71-3.02 3.32-4.67 4.74-3.38 2.91-7.25 5.04-12.12 5.64-10.9 1.33-24.64 5.31-34.02-2.62-2.56-2.16-5.39-4.25-8.17-6.42-1.59-1.24-3.17-2.51-4.66-3.84-1.87-1.66-3.62-3.4-5.12-5.29-1.64-2.06-6.87-8.24-11.32-15.92-3.75-6.48-6.94-14.04-6.94-21.1 0-14.07-3.11-17.44-3.35-26.78-.11-4.73.92-9.56 2.88-13.97 2.19-4.91 5.53-9.28 9.73-12.37 6.15-4.51 39.58-20.46 53.89-30.49.04-.03.09-.06.13-.09l.92.98z" stroke-width="14"/><path d="M299.3 220.1h-.01l-26.67 14.04c4.88-9.75 3.18-21.79 3.18-21.79-.19-18.54-2.45-38.76-2.77-43.13-1.3-18.17 5.44-45.77 15.24-61.72 16.49-26.87 43.35-38.44 84.75-33.61 30.74 3.59 58.83 37.21 58.83 79.83 0 14.93-6.62 31.44.841 46.33l-30.28 18.64-.05.03" stroke-width="14"/><path d="M295.98 172.73c.37-.45.76-.89 1.16-1.31l.01-.01c1.83-1.93 3.94-3.54 6.32-4.55 1.79-.77 3.72-1.19 5.77-1.14 2.37.05 4.78.82 6.84 2.11 1.82 1.13 3.37 2.65 4.38 4.43.6 1.09 1.42 1.84.35 2.5-.91.56-2.01.17-2.99.62-.65.31-1.25 1.07-1.95 1.38-.83.39-1.95.61-2.85.8-2.12.44-4.92.31-6.95-.42-3.36-1.2-6.28-3.27-8.79-5.6" stroke-width="3.338" stroke-linecap="square" stroke-miterlimit="10"/><path d="M315.76 168.35c.39.78.14.7.14 1.63 0 3.37-2.86 6.1-6.39 6.1s-6.4-2.73-6.4-6.1c0-1.27-.11-1.59.58-2.57M377.62 170.93c-.38-.45-.77-.9-1.17-1.32-1.83-1.93-3.96-3.54-6.33-4.55-1.79-.76-3.72-1.18-5.77-1.14-2.37.06-4.78.83-6.84 2.12-1.82 1.12-3.37 2.65-4.38 4.44-.61 1.08-1.42 1.83-.35 2.49.91.57 2 .17 2.99.62.65.31 1.24 1.06 1.95 1.38.83.39 1.95.61 2.84.8 2.13.43 4.93.31 6.96-.42 3.36-1.19 6.26-3.27 8.79-5.61" stroke-width="3.338" stroke-linecap="square" stroke-miterlimit="10"/><path d="M357.83 166.55c-.4.79-.14.71-.14 1.64 0 3.37 2.86 6.11 6.39 6.11s6.39-2.74 6.39-6.11c0-1.26.12-1.59-.57-2.57" stroke-width="3.338" stroke-linecap="square" stroke-miterlimit="10"/><path d="M357.3 116.37c-.28 0-.53-.03-.75-.09-.49-.14-.84-.43-1.05-.89-.02-.05-.05-.11-.07-.17 4.39-4.29 6.56-11.08 7.87-16.86" stroke-width="14"/></g><path fill="none" d="M0 0h850.394v850.394H0z"/></svg>