<svg xmlns="http://www.w3.org/2000/svg" width="850.394" height="850.394" viewBox="0 0 850.394 850.394" overflow="visible"><g fill="#fff5b4"><path d="M677.52 299.42l3.24-.3v425.93l-373.23 53.94V333.57z"/><path d="M618.29 171.91l55.93 102.74 3.3 24.77-369.99 34.15-72.19-147.24.3-.02 373.75-30.74z"/><path d="M605.7 117.37l12.59 54.54-8.9-16.34-373.75 30.74-.3-3.67v-49.22s3.29-25.84 25.84-25.84c22.56 0 326.07-22.56 326.07-22.56s18.45 4.94 18.45 18.47v13.88zM307.53 333.57v445.42L172.18 668.25V269.11l.31-2.65z"/><path d="M235.34 186.33l72.19 147.24-135.04-67.11 2.25-19.53z"/></g><g fill="none" stroke="#231f20" stroke-width="28"><path d="M307.53 778.99V333.57l-135.04-67.11-.31-.15v401.94l135.35 110.74 373.23-53.94V299.12l-3.24.3-369.99 34.15M167.67 254l7.07-7.07 60.6-60.6.3-.02 373.75-30.74 8.9 16.34 55.93 102.74 8.69 15.96M235.34 186.33l72.19 147.24M235.34 182.64v-49.22s3.29-25.84 25.84-25.84c22.56 0 326.07-22.56 326.07-22.56s18.45 4.94 18.45 18.47v41.42"/></g><path fill="none" d="M0 0h850.394v850.394H0z"/></svg>