<?xml version="1.0" encoding="iso-8859-1"?>
<!-- Generator: Adobe Illustrator 12.0.1, SVG Export Plug-In . SVG Version: 6.00 Build 51448)  -->
<!DOCTYPE svg PUBLIC "-//W3C//DTD SVG 1.1//EN" "http://www.w3.org/Graphics/SVG/1.1/DTD/svg11.dtd" [
	<!ENTITY ns_svg "http://www.w3.org/2000/svg">
	<!ENTITY ns_xlink "http://www.w3.org/1999/xlink">
]>
<svg  version="1.1" id="Layer_1" xmlns="&ns_svg;" xmlns:xlink="&ns_xlink;" width="850.394" height="850.394"
	 viewBox="0 0 850.394 850.394" style="overflow:visible;enable-background:new 0 0 850.394 850.394;" xml:space="preserve">
<g>
	<g id="XMLID_5_">
		<g>
			<path d="M612.83,123.37c4.5,7.04-11.88,9.82-15.88,9.82c-0.57-1.91-0.34-3.89,0.45-5.64c1.01-2.25,2.92-4.12,5.199-5.01
				c0.561-0.22,1.37-0.44,2.301-0.61c-1.71,0.48-2.971,2.15-2.971,4.13c0,2.36,1.78,4.28,3.98,4.28c2.189,0,3.97-1.92,3.97-4.28
				s-1.78-4.27-3.97-4.27c-0.04,0-0.09,0-0.13,0.01C608.47,121.45,611.71,121.63,612.83,123.37z"/>
			<path d="M568.45,118.04c1.729,0.48,3.02,2.26,3.02,4.37c0,2.47-1.779,4.49-3.97,4.49c-0.41,0-0.81-0.07-1.18-0.2
				c-1.62-0.57-2.79-2.28-2.79-4.29c0-2.48,1.77-4.5,3.97-4.5C567.83,117.91,568.15,117.96,568.45,118.04z"/>
			<path style="fill:#F6CC4B;" d="M585.05,151.18c2.3,1.08,6.97-1.56,7.04-5.29l-0.689-1.06c-3.57-1.21-10.561-1.74-9.521,1.41
				C583.16,150.06,583.55,150.47,585.05,151.18z M597.4,127.55c-0.79,1.75-1.021,3.73-0.45,5.64c4,0,20.38-2.78,15.88-9.82
				c-1.12-1.74-4.36-1.92-7.05-1.57c-0.29,0-0.58,0.05-0.851,0.13c-0.01-0.01-0.02,0-0.029,0c-0.931,0.17-1.74,0.39-2.301,0.61
				C600.32,123.43,598.41,125.3,597.4,127.55z M637.54,69.47c0,0,2.46,9.83-3.67,23.95c-6.15,14.13-6.15,19.65-6.15,19.65
				s5.82,21.19,0,27.02c-0.989,0.99-1.79,2.21-2.41,3.59c-8.1,8.06-33.43,28.64-51.75,19.96c-8.06-3.82-13.52-11.18-21.899-14.75
				c-5.79-2.47-19.19-6-23.62-15.08c-0.59-2.63-1.21-5.62-1.79-9.22c-2.34-14.62,9.98-23.19,9.98-36.7c0-13.5,5.51-30.08,7.67-32.24
				c2.14-2.14,27.319,27.34,27.319,27.34s23.12-2.77,33.141,3.67C612.04,91.6,637.54,69.47,637.54,69.47z M575.32,128.42
				c1.29-4.37-1.63-9.07-5.66-10.64c-0.29-0.11-0.641-0.22-1.04-0.33c-2.75-0.73-7.75-1.11-9.19,1.15
				c-2.63,4.11,1.86,6.77,6.84,8.27C569.83,127.94,573.65,128.42,575.32,128.42z"/>
			<path style="fill:#F6CC4B;" d="M540.97,367.3c-19.59,1.36-18.25-1.19-20.14-4.84c-3.54-6.83,3.71-18.5,9.86-18.5
				c6.14,0,6.1-15.38,6.1-15.38s-2.4-64.44-2.4-85.32c0-20.89-3.699-25.18-10.449-45.45c-6.75-20.26,6.75-39.91,6.75-47.9
				c0-5.61-1.24-9.85-2.65-16.1c4.43,9.08,17.83,12.61,23.62,15.08c8.38,3.57,13.84,10.93,21.899,14.75
				c18.32,8.68,43.65-11.9,51.75-19.96c-3.05,6.8-1.72,17.46,3.631,22.81c6.449,6.45,40.689,11.53,59.569,56.19
				c0,0,9.83,23.03,9.83,67.86c0,0,0.32,26.92,9.2,31.11c9.84,4.62,18.47,23.86,8.11,38.49c-13.92,19.65-37.891,15.65-74.73,16.06
				c-15.39,0.17-66.86-0.32-91.189-5.46C545.89,369.93,543,368.72,540.97,367.3z"/>
			<path style="fill:#9C5B16;" d="M503.13,657.18h0.19c17.59,0,31.84,14.25,31.84,31.851c0,8.79-3.561,16.75-9.32,22.51
				s-13.72,9.33-22.52,9.33h-0.181v0.59c0,17.58-14.25,31.84-31.84,31.84c-8.79,0-16.75-3.56-22.51-9.33
				c-5.771-5.76-9.33-13.72-9.33-22.51v-0.59c-17.51-0.101-31.66-14.32-31.66-31.84c0-8.8,3.56-16.761,9.32-22.53
				c5.72-5.72,13.62-9.27,22.35-9.32c0.311-17.319,14.45-31.25,31.83-31.25c8.8,0,16.76,3.561,22.521,9.32
				C499.45,640.89,502.98,648.62,503.13,657.18z"/>
			<path style="fill:#9C5B16;" d="M223.79,694.42c17.59,0,31.84,14.24,31.84,31.84c0,8.79-3.56,16.75-9.32,22.51
				c-5.77,5.771-13.73,9.33-22.52,9.33h-0.18v0.591c0,17.579-14.25,31.84-31.84,31.84c-8.79,0-16.75-3.57-22.52-9.33
				c-5.76-5.76-9.32-13.72-9.32-22.51V758.1c-17.51-0.1-31.66-14.319-31.66-31.84c0-8.8,3.56-16.76,9.32-22.52
				c5.73-5.721,13.63-9.271,22.35-9.32c0.31-17.31,14.43-31.26,31.83-31.26c8.79,0,16.75,3.56,22.52,9.33
				c5.63,5.63,9.16,13.37,9.31,21.93H223.79z"/>
			<path style="fill:#9C5B16;" d="M351.45,585.39c17.59,0,31.84,14.25,31.84,31.851c0,8.79-3.56,16.75-9.32,22.51
				c-5.77,5.77-13.73,9.33-22.52,9.33h-0.18v0.59c0,17.58-14.25,31.84-31.84,31.84c-8.79,0-16.75-3.569-22.52-9.33
				c-5.76-5.76-9.32-13.72-9.32-22.51v-0.59c-17.51-0.1-31.67-14.32-31.67-31.84c0-8.8,3.56-16.76,9.33-22.521
				c5.72-5.729,13.63-9.279,22.35-9.33c0.31-17.319,14.44-31.25,31.83-31.25c8.79,0,16.75,3.561,22.52,9.32
				c5.63,5.63,9.16,13.36,9.31,21.93H351.45z"/>
			<path style="fill:#9C5B16;" d="M466.63,455.72c17.59,0,31.851,14.25,31.851,31.84c0,8.801-3.561,16.761-9.33,22.521
				c-5.761,5.76-13.73,9.32-22.521,9.32h-0.18v0.59c0,17.58-14.25,31.84-31.84,31.84c-8.791,0-16.75-3.57-22.51-9.33
				c-5.76-5.76-9.33-13.72-9.33-22.51v-0.59c-17.51-0.101-31.66-14.311-31.66-31.841c0-8.8,3.56-16.76,9.32-22.52
				c5.73-5.72,13.63-9.271,22.35-9.32c0.31-17.31,14.44-31.26,31.831-31.26c8.79,0,16.75,3.56,22.52,9.33
				c5.63,5.63,9.16,13.37,9.311,21.93H466.63z"/>
			<path style="fill:#9C5B16;" d="M249.64,435.48c17.59,0,31.85,14.25,31.85,31.84c0,8.8-3.57,16.76-9.33,22.52
				c-5.76,5.76-13.72,9.32-22.52,9.32h-0.18v0.59c0,17.58-14.25,31.84-31.84,31.84c-8.79,0-16.75-3.57-22.51-9.33
				c-5.77-5.76-9.33-13.72-9.33-22.51v-0.59c-17.51-0.101-31.66-14.311-31.66-31.84c0-8.801,3.56-16.761,9.32-22.521
				c5.72-5.72,13.62-9.27,22.35-9.319c0.31-17.311,14.44-31.26,31.83-31.26c8.8,0,16.76,3.56,22.52,9.33
				c5.63,5.63,9.16,13.37,9.31,21.931H249.64z"/>
			<path d="M591.4,144.83l0.689,1.06c-0.07,3.73-4.74,6.37-7.04,5.29c-1.5-0.71-1.89-1.12-3.17-4.94
				C580.84,143.09,587.83,143.62,591.4,144.83z"/>
		</g>
		<g>
			<path style="fill:none;stroke:#231F20;stroke-width:14;" d="M701.1,344.25c-4.6,4.61-66.64,7.71-80.14,7.71
				c-7.14,0-20.89,0.39-33.81,0.54c-11.511,0.15-22.36,0.11-27.24-0.54c-19.04-2.54-28.4,8.71-18.94,15.34
				c2.03,1.42,4.92,2.63,8.761,3.44c24.329,5.14,75.8,5.63,91.189,5.46c36.84-0.41,60.811,3.59,74.73-16.06
				c10.359-14.63,1.729-33.87-8.11-38.49c-8.88-4.19-9.2-31.11-9.2-31.11c0-44.83-9.83-67.86-9.83-67.86
				c-18.88-44.66-53.12-49.74-59.569-56.19c-5.351-5.35-6.681-16.01-3.631-22.81c0.62-1.38,1.421-2.6,2.41-3.59
				c5.82-5.83,0-27.02,0-27.02s0-5.52,6.15-19.65c6.13-14.12,3.67-23.95,3.67-23.95s-25.5,22.13-33.18,17.19
				c-10.021-6.44-33.141-3.67-33.141-3.67S546.04,53.51,543.9,55.65c-2.16,2.16-7.67,18.74-7.67,32.24
				c0,13.51-12.32,22.08-9.98,36.7c0.58,3.6,1.2,6.59,1.79,9.22c1.41,6.25,2.65,10.49,2.65,16.1c0,7.99-13.5,27.64-6.75,47.9
				c6.75,20.27,10.449,24.56,10.449,45.45c0,20.88,2.4,85.32,2.4,85.32s0.04,15.38-6.1,15.38c-6.15,0-13.4,11.67-9.86,18.5
				c1.89,3.65,0.55,6.2,20.14,4.84c0.011,0,0.011,0,0.021,0"/>
			<path style="fill:none;stroke:#231F20;stroke-width:14;" d="M635.1,246.95c0,0-15.359,28.85-23.97,47.89
				c-8.59,19.04-23.979,57.66-23.979,57.66"/>
			<line style="fill:none;stroke:#231F20;stroke-width:14;" x1="569.72" y1="290.26" x2="562.01" y2="352.17"/>
			<path style="fill:none;stroke:#231F20;stroke-width:14;" d="M675.61,277.03c-39.79-3.37-67.98,41.6-68.431,74.99"/>
			<path style="fill:none;stroke:#231F20;stroke-width:5.307;" d="M566.27,126.87c3.561,1.07,7.381,1.55,9.051,1.55
				c1.29-4.37-1.63-9.07-5.66-10.64c-0.29-0.11-0.641-0.22-1.04-0.33c-2.75-0.73-7.75-1.11-9.19,1.15
				C556.8,122.71,561.29,125.37,566.27,126.87z"/>
			<path style="fill:none;stroke:#231F20;stroke-width:7.076;" d="M604.93,121.93c0.28-0.05,0.561-0.1,0.851-0.13
				c2.689-0.35,5.93-0.17,7.05,1.57c4.5,7.04-11.88,9.82-15.88,9.82c-0.57-1.91-0.34-3.89,0.45-5.64c1.01-2.25,2.92-4.12,5.199-5.01
				c0.561-0.22,1.37-0.44,2.301-0.61"/>
			<path style="fill:none;stroke:#231F20;stroke-width:7;" d="M591.4,144.83c-3.57-1.21-10.561-1.74-9.521,1.41
				c1.28,3.82,1.67,4.23,3.17,4.94c2.3,1.08,6.97-1.56,7.04-5.29L591.4,144.83z"/>
			<path style="fill:none;stroke:#231F20;stroke-width:14;" d="M625.37,143.62c-0.021,0.02-0.04,0.04-0.061,0.06
				c-8.1,8.06-33.43,28.64-51.75,19.96c-8.06-3.82-13.52-11.18-21.899-14.75c-5.79-2.47-19.19-6-23.62-15.08
				c-0.84-1.72-1.36-3.64-1.44-5.79"/>
			<path style="fill:none;stroke:#231F20;stroke-width:7;" d="M568.45,118.04c1.729,0.48,3.02,2.26,3.02,4.37
				c0,2.47-1.779,4.49-3.97,4.49c-0.41,0-0.81-0.07-1.18-0.2c-1.62-0.57-2.79-2.28-2.79-4.29c0-2.48,1.77-4.5,3.97-4.5
				C567.83,117.91,568.15,117.96,568.45,118.04z"/>
			<path style="fill:none;stroke:#231F20;stroke-width:7;" d="M605.78,121.8c0.04-0.01,0.09-0.01,0.13-0.01
				c2.189,0,3.97,1.91,3.97,4.27s-1.78,4.28-3.97,4.28c-2.2,0-3.98-1.92-3.98-4.28c0-1.98,1.261-3.65,2.971-4.13
				c0.01,0,0.02-0.01,0.029,0C605.2,121.85,605.49,121.8,605.78,121.8z"/>
			<path style="fill:none;stroke:#231F20;stroke-width:7;" d="M597.5,127.4c-0.04,0.05-0.07,0.1-0.1,0.15
				c-4.53,6.38-5.271,18.37-5.37,19.39c0,0.05,0,0.07,0,0.07"/>
			<path style="fill:none;stroke:#231F20;stroke-width:21;" d="M466.45,516.78v2.62v0.59c0,17.58-14.25,31.84-31.84,31.84
				c-8.791,0-16.75-3.57-22.51-9.33c-5.76-5.76-9.33-13.72-9.33-22.51v-0.59v-4.061"/>
			<line style="fill:none;stroke:#231F20;stroke-width:21.2281;" x1="466.45" y1="456.3" x2="466.45" y2="466.62"/>
			<path style="fill:none;stroke:#231F20;stroke-width:21;" d="M402.77,456.3c0-0.189,0-0.39,0.01-0.58
				c0.31-17.31,14.44-31.26,31.831-31.26c8.79,0,16.75,3.56,22.52,9.33c5.63,5.63,9.16,13.37,9.311,21.93
				c0.01,0.19,0.01,0.391,0.01,0.58"/>
			<path style="fill:none;stroke:#231F20;stroke-width:21;" d="M413.6,519.4h-10.65c-0.06,0-0.12,0-0.18,0
				c-17.51-0.101-31.66-14.311-31.66-31.841c0-8.8,3.56-16.76,9.32-22.52c5.73-5.72,13.63-9.271,22.35-9.32c0.06,0,0.11,0,0.17,0
				h10.32"/>
			<path style="fill:none;stroke:#231F20;stroke-width:21;" d="M456.43,455.72h10.011h0.189c17.59,0,31.851,14.25,31.851,31.84
				c0,8.801-3.561,16.761-9.33,22.521c-5.761,5.76-13.73,9.32-22.521,9.32h-0.18h-10.72"/>
			<path style="fill:none;stroke:#231F20;stroke-width:21;" d="M503.14,718.25v2.62v0.59c0,17.58-14.25,31.84-31.84,31.84
				c-8.79,0-16.75-3.56-22.51-9.33c-5.771-5.76-9.33-13.72-9.33-22.51v-0.59v-4.061"/>
			<line style="fill:none;stroke:#231F20;stroke-width:21.2281;" x1="503.14" y1="657.77" x2="503.14" y2="668.09"/>
			<path style="fill:none;stroke:#231F20;stroke-width:21;" d="M439.46,657.77c0-0.199,0-0.39,0.01-0.59
				c0.311-17.319,14.45-31.25,31.83-31.25c8.8,0,16.76,3.561,22.521,9.32c5.63,5.64,9.16,13.37,9.31,21.93
				c0.01,0.2,0.01,0.391,0.01,0.59"/>
			<path style="fill:none;stroke:#231F20;stroke-width:21;" d="M450.29,720.87h-10.65c-0.06,0-0.12,0-0.18,0
				c-17.51-0.101-31.66-14.32-31.66-31.84c0-8.8,3.56-16.761,9.32-22.53c5.72-5.72,13.62-9.27,22.35-9.32c0.061,0,0.11,0,0.17,0
				h10.32"/>
			<path style="fill:none;stroke:#231F20;stroke-width:21;" d="M493.12,657.18h10.01h0.19c17.59,0,31.84,14.25,31.84,31.851
				c0,8.79-3.561,16.75-9.32,22.51s-13.72,9.33-22.52,9.33h-0.181h-10.72"/>
			<path style="fill:none;stroke:#231F20;stroke-width:21;" d="M351.27,646.46v2.62v0.59c0,17.58-14.25,31.84-31.84,31.84
				c-8.79,0-16.75-3.569-22.52-9.33c-5.76-5.76-9.32-13.72-9.32-22.51v-0.59v-4.061"/>
			<line style="fill:none;stroke:#231F20;stroke-width:21.2281;" x1="351.27" y1="585.98" x2="351.27" y2="596.3"/>
			<path style="fill:none;stroke:#231F20;stroke-width:21;" d="M287.59,585.98c0-0.2,0-0.4,0.01-0.591
				c0.31-17.319,14.44-31.25,31.83-31.25c8.79,0,16.75,3.561,22.52,9.32c5.63,5.63,9.16,13.36,9.31,21.93
				c0.01,0.19,0.01,0.391,0.01,0.591"/>
			<path style="fill:none;stroke:#231F20;stroke-width:21;" d="M298.42,649.08h-10.65c-0.06,0-0.12,0-0.18,0
				c-17.51-0.1-31.67-14.32-31.67-31.84c0-8.8,3.56-16.76,9.33-22.521c5.72-5.729,13.63-9.279,22.35-9.33c0.06,0,0.11,0,0.17,0
				h10.32"/>
			<path style="fill:none;stroke:#231F20;stroke-width:21;" d="M341.24,585.39h10.02h0.19c17.59,0,31.84,14.25,31.84,31.851
				c0,8.79-3.56,16.75-9.32,22.51c-5.77,5.77-13.73,9.33-22.52,9.33h-0.18h-10.72"/>
			<path style="fill:none;stroke:#231F20;stroke-width:21;" d="M249.46,496.54v2.62v0.59c0,17.58-14.25,31.84-31.84,31.84
				c-8.79,0-16.75-3.57-22.51-9.33c-5.77-5.76-9.33-13.72-9.33-22.51v-0.59V495.1"/>
			<line style="fill:none;stroke:#231F20;stroke-width:21.2281;" x1="249.46" y1="436.06" x2="249.46" y2="446.38"/>
			<path style="fill:none;stroke:#231F20;stroke-width:21;" d="M185.78,436.06c0-0.189,0-0.39,0.01-0.579
				c0.31-17.311,14.44-31.26,31.83-31.26c8.8,0,16.76,3.56,22.52,9.33c5.63,5.63,9.16,13.37,9.31,21.931
				c0.01,0.189,0.01,0.39,0.01,0.579"/>
			<path style="fill:none;stroke:#231F20;stroke-width:21;" d="M196.61,499.16h-10.65c-0.06,0-0.12,0-0.18,0
				c-17.51-0.101-31.66-14.311-31.66-31.84c0-8.801,3.56-16.761,9.32-22.521c5.72-5.72,13.62-9.27,22.35-9.319c0.06,0,0.11,0,0.17,0
				h10.32"/>
			<path style="fill:none;stroke:#231F20;stroke-width:21;" d="M239.44,435.48h10.01h0.19c17.59,0,31.85,14.25,31.85,31.84
				c0,8.8-3.57,16.76-9.33,22.52c-5.76,5.76-13.72,9.32-22.52,9.32h-0.18h-10.72"/>
			<path style="fill:none;stroke:#231F20;stroke-width:21;" d="M223.61,755.48v2.619v0.591c0,17.579-14.25,31.84-31.84,31.84
				c-8.79,0-16.75-3.57-22.52-9.33c-5.76-5.76-9.32-13.72-9.32-22.51V758.1v-4.06"/>
			<line style="fill:none;stroke:#231F20;stroke-width:21.2281;" x1="223.61" y1="695" x2="223.61" y2="705.32"/>
			<path style="fill:none;stroke:#231F20;stroke-width:21;" d="M159.93,695c0-0.19,0-0.39,0.01-0.58
				c0.31-17.31,14.43-31.26,31.83-31.26c8.79,0,16.75,3.56,22.52,9.33c5.63,5.63,9.16,13.37,9.31,21.93
				c0.01,0.19,0.01,0.39,0.01,0.58"/>
			<path style="fill:none;stroke:#231F20;stroke-width:21;" d="M170.76,758.1h-10.65c-0.06,0-0.12,0-0.18,0
				c-17.51-0.1-31.66-14.319-31.66-31.84c0-8.8,3.56-16.76,9.32-22.52c5.73-5.721,13.63-9.271,22.35-9.32c0.06,0,0.11,0,0.17,0
				h10.32"/>
			<path style="fill:none;stroke:#231F20;stroke-width:21;" d="M213.59,694.42h10.01h0.19c17.59,0,31.84,14.24,31.84,31.84
				c0,8.79-3.56,16.75-9.32,22.51c-5.77,5.771-13.73,9.33-22.52,9.33h-0.18h-10.72"/>
		</g>
	</g>
</g>
<rect style="fill:none;" width="850.394" height="850.394"/>
</svg>
