<?xml version="1.0" encoding="iso-8859-1"?>
<!-- Generator: Adobe Illustrator 12.0.1, SVG Export Plug-In . SVG Version: 6.00 Build 51448)  -->
<!DOCTYPE svg PUBLIC "-//W3C//DTD SVG 1.1//EN" "http://www.w3.org/Graphics/SVG/1.1/DTD/svg11.dtd" [
	<!ENTITY ns_svg "http://www.w3.org/2000/svg">
	<!ENTITY ns_xlink "http://www.w3.org/1999/xlink">
]>
<svg  version="1.1" id="Layer_1" xmlns="&ns_svg;" xmlns:xlink="&ns_xlink;" width="850.394" height="850.394"
	 viewBox="0 0 850.394 850.394" style="overflow:visible;enable-background:new 0 0 850.394 850.394;" xml:space="preserve">
<g id="XMLID_8_">
	<g>
	</g>
	<g>
		<g id="XMLID_9_">
			<g>
				<path style="fill:#C8C8C8;" d="M277.72,126.88c23.72,5.73,249.06,74.2,400.6,118.2c-0.59-0.15-1.181-0.29-1.78-0.42
					c-58.73-13.13-114.56,13.04-129.38,79.32l-31.99,163.83h-0.01l-4.891-0.96L382.16,441.46l-1.68-0.58L264,400.3L91.18,339.07
					c0,0,30.31-149.23,60.62-180.71C182.12,126.88,243.9,118.72,277.72,126.88z"/>
				<path style="fill:#7A7878;" d="M290.54,643.37c-5.79,0-10.76-3.521-12.89-8.55c-0.71-1.67-1.1-3.511-1.1-5.44l-4.86-78.12
					l-9.13-146.89l1.44-4.07l116.48,40.58l-0.16,0.46l-0.16,0.12l-13.83,187.92c0,7.73-6.27,13.99-13.99,13.99H290.54z"/>
				<path style="fill:#7A7878;" d="M274.22,636.38c-34.98,3.49-68.79,47.79-83.94,75.78c-15.16,27.979-41.98,15.149-41.98,15.149
					S111,662.03,90.01,606.06c-20.98-55.96,4.66-54.8,4.66-54.8h176.72h0.3l4.86,78.12c0,1.93,0.39,3.771,1.1,5.44L274.22,636.38z"
					/>
				<path style="fill:#C8C8C8;" d="M619.32,301.47c-28.65,0-51.88,25.06-51.88,55.96c0,30.91,23.229,55.97,51.88,55.97
					c28.66,0,51.89-25.06,51.89-55.97C671.21,326.53,647.98,301.47,619.32,301.47z M542.56,449.44l21.511-110.15
					c9.949-44.49,47.42-62.05,86.83-53.24c39.409,8.81,65.83,40.67,55.89,85.16l-20.87,96.31L542.56,449.44z"/>
				<path style="fill:#FFFFC2;" d="M619.32,301.47c28.66,0,51.89,25.06,51.89,55.96c0,30.91-23.229,55.97-51.89,55.97
					c-28.65,0-51.88-25.06-51.88-55.97C567.44,326.53,590.67,301.47,619.32,301.47z"/>
				<path style="fill:#7A7878;" d="M676.54,244.66c0.6,0.13,1.19,0.27,1.78,0.42c4.449,1.29,8.84,2.56,13.149,3.8
					c50.24,17.35,81.84,62.16,68.32,122.65l-31.08,143.5l-213.6-26.94l0.05-0.28h0.01l31.99-163.83
					C561.98,257.7,617.81,231.53,676.54,244.66z M706.79,371.21c9.94-44.49-16.48-76.35-55.89-85.16
					c-39.41-8.81-76.881,8.75-86.83,53.24L542.56,449.44l143.36,18.079L706.79,371.21z"/>
			</g>
			<g>
				<path style="fill:none;stroke:#020202;stroke-width:21;" d="M510.27,486.85L382.16,441.46l-1.68-0.58L264,400.3L91.18,339.07
					c0,0,30.31-149.23,60.62-180.71c30.32-31.48,92.1-39.64,125.92-31.48c23.72,5.73,249.06,74.2,400.6,118.2
					c4.449,1.29,8.84,2.56,13.149,3.8c0.141,0.05,0.29,0.09,0.431,0.13"/>
				<path style="fill:none;stroke:#020202;stroke-width:21;" d="M380.32,441.34l-0.16,0.12l-13.83,187.92
					c0,7.73-6.27,13.99-13.99,13.99h-61.8c-5.79,0-10.76-3.521-12.89-8.55c-0.71-1.67-1.1-3.511-1.1-5.44l-4.86-78.12l-9.13-146.89"
					/>
				<path style="fill:none;stroke:#020202;stroke-width:21;" d="M271.69,551.26h-0.3H94.67c0,0-25.64-1.16-4.66,54.8
					C111,662.03,148.3,727.31,148.3,727.31s26.82,12.83,41.98-15.149c15.15-27.99,48.96-72.29,83.94-75.78"/>
				<path style="fill:none;stroke:#020202;stroke-width:21;" d="M671.21,357.43c0,30.91-23.229,55.97-51.89,55.97
					c-28.65,0-51.88-25.06-51.88-55.97c0-30.9,23.229-55.96,51.88-55.96C647.98,301.47,671.21,326.53,671.21,357.43z"/>
				<path style="fill:none;stroke:#020202;stroke-width:21;" d="M706.79,371.21c9.94-44.49-16.48-76.35-55.89-85.16
					c-39.41-8.81-76.881,8.75-86.83,53.24L542.56,449.44l143.36,18.079L706.79,371.21z"/>
				<path style="fill:none;stroke:#020202;stroke-width:21;" d="M678.32,245.08c-0.59-0.15-1.181-0.29-1.78-0.42
					c-58.73-13.13-114.56,13.04-129.38,79.32l-31.99,163.83h-0.01l-0.05,0.28l213.6,26.94l31.08-143.5
					c13.52-60.49-18.08-105.3-68.32-122.65C687.21,247.41,682.83,246.14,678.32,245.08z"/>
			</g>
		</g>
	</g>
</g>
<rect style="fill:none;" width="850.394" height="850.394"/>
</svg>
