<svg xmlns="http://www.w3.org/2000/svg" width="850.394" height="850.394" viewBox="0 0 850.394 850.394" overflow="visible"><path d="M370.59 586.56c9.65 2.051 17.73 7.48 22.03 15.851 5.09 9.92 3.73 21.76-2.52 32.07-.53.869-1.1 1.72-1.7 2.569-4.43 6.271-10.72 11.84-18.51 15.83-7.4 3.811-15.18 5.69-22.53 5.811-13.76.229-26.05-5.71-31.73-16.761-4.31-8.38-4-18.12-.02-27.16 4.06-9.26 11.98-17.779 22.74-23.31 10.78-5.53 22.33-7 32.24-4.9z" fill="#fbee34"/><path d="M390.1 634.48c6.25-10.311 7.61-22.15 2.52-32.07-4.3-8.37-12.38-13.8-22.03-15.851l36.69-18.829c13.36 11.92 27.88 25.59 40.53 39.17l-.6.55-58.33 29.93-.48-.33c.6-.85 1.17-1.7 1.7-2.57zM347.36 658.69L289.9 688.2l-3.96.729c-3.69-18.56-6.32-38.68-8.21-56.64l4.7-.48 33.18-17.04c-3.98 9.04-4.29 18.78.02 27.16 5.68 11.051 17.97 16.991 31.73 16.761z" fill="#fbee34"/><path d="M533.01 754.9l-204.32 38.83c-14.36-28.2-26.08-51.841-30.89-63.061-4.83-11.26-8.73-25.939-11.86-41.74l3.96-.729 57.46-29.51c7.35-.12 15.13-2 22.53-5.811 7.79-3.99 14.08-9.56 18.51-15.83l.48.33 58.33-29.93.6-.55c10.73 11.52 20.12 22.979 26.33 33.25 2.9 4.821 53.76 105.251 58.87 114.751zM301.21 441.64c-2.16 2.73-4.91 5.54-8.16 8.32l-3.28-4.18s-3.3-8.561-7.24-24.21c11.57-2.23 20.5-.87 23.22 4.43 2.07 4.03.21 9.63-4.54 15.64z" fill="#33a048"/><path d="M256.16 431.11c.12-.07.24-.13.36-.19 9.14-4.689 18.18-7.84 26.01-9.35 3.94 15.65 7.24 24.21 7.24 24.21l3.28 4.18c-5.43 4.64-12.24 9.2-19.99 13.18-8.93 4.58-17.77 7.7-25.47 9.24l-.25-1.29s-5.53-8.13-16.95-21.04c5.86-6.51 14.88-13.31 25.77-18.94z" fill="#33a048"/><path d="M407.28 567.73l-36.69 18.829c-9.91-2.1-21.46-.63-32.24 4.9-10.76 5.53-18.68 14.05-22.74 23.31l-33.18 17.04-4.7.48c-2.2-21.14-3.36-39.3-3.94-48.48-3.19-51.06-30.57-99.52-37.02-110.3 3.21.05 6.87-.33 10.82-1.13 7.7-1.54 16.54-4.66 25.47-9.24 7.75-3.979 14.56-8.54 19.99-13.18 3.25-2.78 6-5.59 8.16-8.32 5.81 13.17 29.02 61.88 67.61 93.41 7.32 5.981 22.01 18.011 38.46 32.681z" fill="#33a048"/><path d="M605.57 533.37c-.07 3.33.01 9.68 1.35 15 1.89 7.59 17.521 14.27 8.22 20.25-8.859 5.689-17.72 5.06-17.72 5.06l-.71-.02s-8.85.63-17.72-5.07c-9.29-5.97 6.33-12.649 8.229-20.24 1.9-7.6 1.271-17.31 1.271-17.31l.18-3.08 7.28.42.01.12 9.55-.44.141 3.011c-.001-.001-.061.869-.081 2.299z" fill="#ed177f"/><path d="M779.44 246.21s3.84 90.45-54.41 179.36c-43.471 66.34-82.8 101.96-108.09 101.96l-11.431.529-9.55.44-.01-.12-7.28-.42-10.93-.63c-25.29 0-64.61-35.61-108.07-101.95-58.26-88.91-54.43-179.36-54.43-179.36 0-104.14 81.17-188.57 181.279-188.57l2.44.1C699.08 57.55 779.44 142.07 779.44 246.21z" fill="#ed177f"/><path d="M185.85 222.85l57.2 67.39s10.87 11.35-7.44 27.38c-11.3 9.9-26.41 17.14-26.41 17.14l-.28.11s-.2.11-.59.31c-2.87 1.52-15.83 8.15-28.73 11.16-23.72 5.54-26.59-9.91-26.59-9.91l-21.41-85.77-.38-.87c.34-.15.68-.31 1.01-.48l52.28-26.83c.29-.15.57-.3.85-.46l.49.83z" fill="#f6cc4b"/><path d="M193.98 193.05c5.36 10.46 1.49 23.22-8.62 28.97-.28.16-.56.31-.85.46l-52.28 26.83c-.33.17-.67.33-1.01.48-10.54 4.77-23.07.47-28.41-9.95l-14.15-27.55c-5.52-10.74-1.28-23.92 9.46-29.43l52.28-26.84c10.74-5.5 23.92-1.27 29.43 9.48l14.15 27.55z" fill="#f6cc4b"/><g fill="none" stroke="#231f20"><path d="M131.22 249.79c-10.54 4.77-23.07.47-28.41-9.95l-14.15-27.55c-5.52-10.74-1.28-23.92 9.46-29.43l52.28-26.84c10.74-5.5 23.92-1.27 29.43 9.48l14.15 27.55c5.36 10.46 1.49 23.22-8.62 28.97-.28.16-.56.31-.85.46l-52.28 26.83c-.33.17-.67.33-1.01.48zM185.85 222.85l57.2 67.39s10.87 11.35-7.44 27.38c-11.3 9.9-26.41 17.14-26.41 17.14l-.28.11s-.2.11-.59.31c-2.87 1.52-15.83 8.15-28.73 11.16-23.72 5.54-26.59-9.91-26.59-9.91l-21.41-85.77M328.69 793.73c-14.36-28.2-26.08-51.841-30.89-63.061-4.83-11.26-8.73-25.939-11.86-41.74-3.69-18.56-6.32-38.68-8.21-56.64-2.2-21.14-3.36-39.3-3.94-48.48-3.19-51.06-30.57-99.52-37.02-110.3-.87-1.45-1.36-2.22-1.36-2.22M299.77 438.26s.48 1.21 1.44 3.38c5.81 13.17 29.02 61.88 67.61 93.41 7.32 5.98 22.01 18.01 38.46 32.681 13.36 11.92 27.88 25.59 40.53 39.17 10.73 11.52 20.12 22.979 26.33 33.25 2.9 4.819 53.761 105.25 58.87 114.75" stroke-width="14"/><path stroke-width="14" d="M348.22 658.25l-.86.44-57.46 29.51M447.21 607.45l-58.33 29.93M369.75 586.99l.84-.43 36.69-18.83.47-.24M282.43 631.81l33.18-17.04 2.14-1.1"/><path d="M390.1 634.48c-.53.869-1.1 1.72-1.7 2.569-4.43 6.271-10.72 11.84-18.51 15.83-7.4 3.811-15.18 5.69-22.53 5.811-13.76.229-26.05-5.71-31.73-16.761-4.31-8.38-4-18.12-.02-27.16 4.06-9.26 11.98-17.779 22.74-23.31 10.78-5.53 22.33-7 32.24-4.9 9.65 2.051 17.73 7.48 22.03 15.851 5.09 9.92 3.73 21.76-2.52 32.07M282.53 421.57c11.57-2.23 20.5-.87 23.22 4.43 2.07 4.03.21 9.63-4.54 15.64-2.16 2.73-4.91 5.54-8.16 8.32-5.43 4.64-12.24 9.2-19.99 13.18-8.93 4.58-17.77 7.7-25.47 9.24-3.95.8-7.61 1.18-10.82 1.13-6.41-.08-11.1-1.88-12.94-5.46-2.33-4.55.35-11.12 6.56-18 5.86-6.51 14.88-13.31 25.77-18.939.12-.07.24-.13.36-.19 9.14-4.691 18.18-7.841 26.01-9.351z" stroke-width="14"/><path d="M247.34 471.09s-5.53-8.13-16.95-21.04c-24.45-27.63-75.9-77.18-157.81-115.66M289.77 445.78s-3.3-8.561-7.24-24.21c-8.88-35.28-20.98-106.6-5.78-197.27M263.67 446.17l-7.51-15.06-47.83-95.93-32.97-66.13" stroke-width="19.795" stroke-linecap="round" stroke-linejoin="round" stroke-dasharray="13.1965 65.9827"/><path d="M594.14 528.58l1.82-.08 9.55-.44 11.431-.529c25.29 0 64.619-35.62 108.09-101.96 58.25-88.91 54.41-179.36 54.41-179.36 0-104.14-80.36-188.66-180.48-188.66l-2.44-.1c-100.109 0-181.279 84.43-181.279 188.57 0 0-3.83 90.45 54.43 179.36 43.46 66.34 82.78 101.95 108.07 101.95l10.93.63 7.28.42M605.65 531.07s-.061.87-.08 2.3c-.07 3.33.01 9.68 1.35 15 1.89 7.59 17.521 14.27 8.22 20.25-8.859 5.689-17.72 5.06-17.72 5.06l-.71-.02s-8.85.63-17.72-5.07c-9.29-5.97 6.33-12.649 8.229-20.24 1.9-7.6 1.271-17.31 1.271-17.31" stroke-width="14"/><path d="M598.99 532.2c2.229.27 4.42.66 6.58 1.17 44.18 10.26 74.02 67.68 54.87 107.75-10.771 22.5-24.11 42.1-35.15 64.29-18.05 36.29-13.1 67.63 21.54 88.32" stroke-width="21"/></g><path fill="none" d="M0 0h850.394v850.394H0z"/></svg>