<svg xmlns="http://www.w3.org/2000/svg" width="850.394" height="850.394" viewBox="0 0 850.394 850.394" overflow="visible"><path d="M600.54 428.63l-5.44-.68s-7.46-133.42 0-161.38 25.75-54.84 47.25-54.84c17.141 0 66.721 2.39 86.15 3.36l-.12 5.24s-29.03 19.35-29.03 60.22v155.94l-.54 4.37-98.27-12.23z" fill="#ef3e23"/><path d="M762.8 271.95v147.33l-55.92 22.581-8.07-1 .54-4.37v-155.94c0-40.87 29.03-60.22 29.03-60.22l.12-5.24c4.95.24 7.95.4 7.95.4s26.35 15.589 26.35 56.459z" fill="#ef3e23"/><path d="M646.22 570.6l19.25 39.48-44.72 23.58c-1.28-4.05-1.96-7.69-1.96-10.58 0-22.66 11.09-42.38 27.43-52.48zM525.94 630.6c28.949 0 52.42 10.73 52.42 59.69 0 32.96-23.471 59.68-52.42 59.68-28.96 0-52.431-26.72-52.431-59.68s23.471-59.69 52.431-59.69z" fill="#797878"/><path d="M671.21 563.39c28.96 0 52.43 26.73 52.43 59.69s-23.47 59.68-52.43 59.68c-24.02 0-44.26-29.399-50.46-49.1l44.72-23.58-19.25-39.48c7.43-4.6 15.95-7.21 24.99-7.21z" fill="#797878"/><path d="M417.04 115.11c5.86 2.72 11.13 6.46 15.61 11.23 25.76 27.46 15.52 78.89-22.831 114.86-38.36 35.96-90.33 42.85-116.07 15.4-12.79-13.64-16.71-33.19-12.71-53.82.01-.01.01-.02.01-.02 4.04-20.9 16.22-42.92 35.52-61.02 31.691-29.71 72.661-39.58 100.471-26.63z" fill="#c8c8c8"/><path d="M514.95 148.73c6.189 16.44 9.58 29.95 9.58 48.59 0 82.3-66.061 149.03-147.55 149.03-43.53 0-74.87-11.25-101.88-41.53-13.09-46.53 5.51-100.78 5.94-102.04-4 20.63-.08 40.18 12.71 53.82 25.74 27.45 77.71 20.56 116.07-15.4 38.35-35.97 48.59-87.4 22.831-114.86-4.48-4.77-9.75-8.51-15.61-11.23 1.41-.07 39.29-1.67 96.8 32.62 0 0 .4.33 1.12.99l-.011.01z" fill="#ef3e23"/><path d="M540.35 187.09c9.101 22.72 13.87 55.09-.159 96.69 0 0-24.74 84.95-123.681 100.01-30.52 4.65-55.34.4-75.08-7.9-36.78-15.49-55.94-45.1-61.54-57.7-1.93-4.35-3.51-8.82-4.79-13.37 27.01 30.28 58.35 41.53 101.88 41.53 81.49 0 147.55-66.73 147.55-149.03 0-18.64-3.391-32.15-9.58-48.59l.01-.01c3.82 3.54 16.62 16.46 25.39 38.37z" fill="#ef3e23"/><path d="M574.6 268.72c13.98 45.17 4.301 86.04-29.04 119.37-33.329 33.34-101.09 37.64-101.09 37.64l-103.04-49.84c19.74 8.3 44.56 12.55 75.08 7.9 98.94-15.06 123.681-100.01 123.681-100.01 14.029-41.6 9.26-73.97.159-96.69l34.25 81.63z" fill="#ef3e23"/><path d="M157.71 182.52l-9.42 9.27-65.86-66.93 18.29-18 65.87 66.93z"/><g fill="none" stroke="#000"><path d="M281.05 202.76c4.04-20.9 16.22-42.92 35.52-61.02 31.69-29.71 72.66-39.58 100.47-26.63 5.86 2.72 11.13 6.46 15.61 11.23 25.76 27.46 15.52 78.89-22.831 114.86-38.36 35.96-90.33 42.85-116.07 15.4-12.79-13.64-16.71-33.19-12.71-53.82" stroke-width="21"/><path d="M417 115.11h.04c1.41-.07 39.29-1.67 96.8 32.62 0 0 .4.33 1.12.99 3.82 3.54 16.62 16.46 25.39 38.37 9.101 22.72 13.87 55.09-.159 96.69 0 0-24.74 84.95-123.681 100.01-30.52 4.65-55.34.4-75.08-7.9-36.78-15.49-55.94-45.1-61.54-57.7-1.93-4.35-3.51-8.82-4.79-13.37-13.09-46.53 5.51-100.78 5.94-102.04.01-.01.01-.02.01-.02" stroke-width="21"/><path d="M514.95 148.73c6.189 16.44 9.58 29.95 9.58 48.59 0 82.3-66.061 149.03-147.55 149.03-43.53 0-74.87-11.25-101.88-41.53" stroke-width="14"/><path d="M539.69 185.51l.659 1.58 34.25 81.63c13.98 45.17 4.301 86.04-29.04 119.37-33.329 33.34-101.09 37.64-101.09 37.64l-103.04-49.84-10.82-5.24" stroke-width="21"/><path stroke-width="28" d="M273.48 467.67l321.01 10.14-46.78 145.18M576.75 656.86l44-23.2 44.72-23.58-19.25-39.48-45.68-93.65v-54.44M578.36 690.29c0 32.96-23.471 59.68-52.42 59.68-28.96 0-52.431-26.72-52.431-59.68s23.471-59.69 52.431-59.69c28.95 0 52.42 10.73 52.42 59.69z"/><path d="M646.22 570.6c7.431-4.6 15.95-7.21 24.99-7.21 28.96 0 52.43 26.73 52.43 59.69s-23.47 59.68-52.43 59.68c-24.02 0-44.26-29.399-50.46-49.1-1.28-4.05-1.96-7.69-1.96-10.58 0-22.66 11.09-42.38 27.43-52.48zM157.71 182.52l96.41 96.42 11.29 221-10.86 164.54-.43 6.45M214.33 664.48H299.29" stroke-width="28"/><path stroke-width="12.905" d="M166.59 173.79l-8.88 8.73-9.42 9.27-65.86-66.93 18.29-18z"/><path d="M762.8 271.95v147.33l-55.92 22.581-8.07-1-98.27-12.23-5.44-.68s-7.46-133.42 0-161.38 25.75-54.84 47.25-54.84c17.141 0 66.721 2.39 86.15 3.36 4.95.24 7.95.4 7.95.4s26.35 15.589 26.35 56.459" stroke-width="28"/><path d="M728.38 220.33s-29.03 19.35-29.03 60.22v155.94" stroke-width="28"/></g><path fill="none" d="M0 0h850.394v850.394H0z"/></svg>