<?xml version="1.0" encoding="iso-8859-1"?>
<!-- Generator: Adobe Illustrator 12.0.1, SVG Export Plug-In . SVG Version: 6.00 Build 51448)  -->
<!DOCTYPE svg PUBLIC "-//W3C//DTD SVG 1.1//EN" "http://www.w3.org/Graphics/SVG/1.1/DTD/svg11.dtd" [
	<!ENTITY ns_svg "http://www.w3.org/2000/svg">
	<!ENTITY ns_xlink "http://www.w3.org/1999/xlink">
]>
<svg  version="1.1" id="Layer_1" xmlns="&ns_svg;" xmlns:xlink="&ns_xlink;" width="850.394" height="850.394"
	 viewBox="0 0 850.394 850.394" style="overflow:visible;enable-background:new 0 0 850.394 850.394;" xml:space="preserve">
<g>
	<g id="XMLID_2_">
		<g>
			<path style="fill:#9E5C26;" d="M571.63,291.55c8.63,12.03,43.58,29.68,27.34,46.05c-17.75,17.87-37.38-23.28-58.279-20.37
				c-9.591,1.33-14.46,9.79-25.351,9.72c-9.81-0.08-17.75-4.66-22.29-13.19c-10.939-20.58,21.101-49.96,49.73-40.86
				C558.34,277.85,562.25,278.48,571.63,291.55z"/>
			<path style="fill:#F6CC4B;" d="M740.41,439.61c-8.62,4.26-31.641,6.27-34.811-4.45C696.61,404.69,771.28,424.36,740.41,439.61z"
				/>
			<path style="fill:#F6CC4B;" d="M640.62,492.87c-14.76,1.17-47.96,21.93-53.54-0.45c-6.11-24.43,39.26-19.93,47.59-39.3
				c3.82-8.91-0.88-17.45,4.82-26.73c5.13-8.35,13.16-12.77,22.81-12.24c23.271,1.29,31.811,43.93,9.21,63.69
				C659.22,488.6,656.66,491.62,640.62,492.87z"/>
			<path style="fill:#9E5C26;" d="M606.44,446.11c-9.45,6.25-35.16,2.08-42.46-6.79c-5.591-6.78,1.359-19.37,10.979-24.49
				c0,0,13.521-10.14,26.84,2.19C611.51,426,619.23,437.65,606.44,446.11z"/>
			<path style="fill:#9E5C26;" d="M573.77,545.23c-9.439,6.25-35.159,2.09-42.46-6.78c-5.579-6.78,1.37-19.38,10.99-24.5
				c0,0,13.51-10.13,26.84,2.2C578.84,525.13,586.57,536.77,573.77,545.23z"/>
			<path style="fill:#F6CC4B;" d="M533.41,388.61c-8.62,4.26-31.641,6.27-34.811-4.45C489.61,353.69,564.28,373.36,533.41,388.61z"
				/>
			<path style="fill:#9E5C26;" d="M433.62,441.87c-14.76,1.17-47.96,21.93-53.54-0.45c-6.11-24.43,39.26-19.93,47.59-39.3
				c3.82-8.91-0.88-17.45,4.82-26.73c5.13-8.35,13.16-12.77,22.81-12.24c23.271,1.29,31.811,43.93,9.21,63.69
				C452.22,437.6,449.66,440.62,433.62,441.87z"/>
			<path style="fill:#F6CC4B;" d="M366.77,494.23c-9.44,6.25-35.16,2.09-42.46-6.78c-5.58-6.78,1.37-19.38,10.99-24.5
				c0,0,13.51-10.13,26.84,2.2C371.84,474.13,379.57,485.77,366.77,494.23z"/>
			<path style="fill:#F6CC4B;" d="M304.49,348.37c-8.62,4.25-31.65,6.26-34.81-4.45C260.69,313.45,335.36,333.12,304.49,348.37z"/>
			<path style="fill:#9E5C26;" d="M242.6,377.4c-9.44,6.25-35.15,2.08-42.46-6.79c-5.58-6.78,1.37-19.38,10.99-24.5
				c0,0,13.52-10.13,26.84,2.2C247.67,357.29,255.4,368.94,242.6,377.4z"/>
			<path style="fill:#9E5C26;" d="M232.53,517.33c-8.62,4.26-31.65,6.27-34.81-4.45C188.73,482.41,263.4,502.08,232.53,517.33z"/>
			<path style="fill:#FFFFC2;" d="M705.6,435.16c3.17,10.72,26.19,8.71,34.811,4.45C771.28,424.36,696.61,404.69,705.6,435.16z
				 M563.98,439.32c7.3,8.87,33.01,13.04,42.46,6.79c12.79-8.46,5.069-20.11-4.641-29.09c-13.319-12.33-26.84-2.19-26.84-2.19
				C565.34,419.95,558.39,432.54,563.98,439.32z M587.08,492.42c5.58,22.38,38.78,1.62,53.54,0.45
				c16.04-1.25,18.6-4.271,30.89-15.03c22.601-19.76,14.061-62.4-9.21-63.69c-9.649-0.53-17.68,3.89-22.81,12.24
				c-5.7,9.28-1,17.82-4.82,26.73C626.34,472.49,580.97,467.99,587.08,492.42z M531.31,538.45c7.301,8.87,33.021,13.03,42.46,6.78
				c12.801-8.461,5.07-20.101-4.63-29.08c-13.33-12.33-26.84-2.2-26.84-2.2C532.68,519.07,525.73,531.67,531.31,538.45z
				 M498.6,384.16c3.17,10.72,26.19,8.71,34.811,4.45C564.28,373.36,489.61,353.69,498.6,384.16z M380.08,441.42
				c5.58,22.38,38.78,1.62,53.54,0.45c16.04-1.25,18.6-4.271,30.89-15.03c22.601-19.76,14.061-62.4-9.21-63.69
				c-9.649-0.53-17.68,3.89-22.81,12.24c-5.7,9.28-1,17.82-4.82,26.73C419.34,421.49,373.97,416.99,380.08,441.42z M324.31,487.45
				c7.3,8.87,33.02,13.03,42.46,6.78c12.8-8.461,5.07-20.101-4.63-29.08c-13.33-12.33-26.84-2.2-26.84-2.2
				C325.68,468.07,318.73,480.67,324.31,487.45z M269.68,343.92c3.16,10.71,26.19,8.7,34.81,4.45
				C335.36,333.12,260.69,313.45,269.68,343.92z M224.96,241.36c33.76,0.04,66.58,4.5,99.89,4.5c39.39,0,77.41-11.88,116.91-10.13
				c75.391,3.32,152.681,15.51,225.57,36.32c29.25,8.35,46.93,23.72,68.15,45.02c19.22,19.3,33.97,37.91,35.479,66.5
				c1.4,26.61,1.34,61.19-13.77,84.2c-17.221,26.221-52.73,45.711-80.33,59.44c-33.37,16.62-65.221,35.12-97.971,51.54
				c-32.97,16.54-66.989,18.85-103.06,24.13c-61.95,9.07-141.92-6.7-241.24-32.649c-39.62-10.351-72.48-21.44-102.24-50.591
				C86.47,474.72,80.21,412.41,77.34,350.56C73.88,276.18,166.46,241.28,224.96,241.36z M200.14,370.61
				c7.31,8.87,33.02,13.04,42.46,6.79c12.8-8.46,5.07-20.11-4.63-29.09c-13.32-12.33-26.84-2.2-26.84-2.2
				C201.51,351.23,194.56,363.83,200.14,370.61z M197.72,512.88c3.16,10.72,26.19,8.71,34.81,4.45
				C263.4,502.08,188.73,482.41,197.72,512.88z M152.55,342.48c8.2,5.11,17.36,5.1,25.89,0.25c9.46-5.39,9.44-15.15,17.08-21.11
				c16.63-12.98,54.23,12.8,60.64-11.56c5.86-22.3-33.23-20.07-46.72-26.16c-14.67-6.61-18.37-5.2-34.32-1.69
				C145.79,288.67,132.77,330.15,152.55,342.48z M137.89,470.08c3.16,10.71,26.19,8.71,34.81,4.45
				C203.57,459.28,128.9,439.61,137.89,470.08z M598.97,337.6c16.24-16.37-18.71-34.02-27.34-46.05
				c-9.38-13.07-13.29-13.7-28.85-18.65c-28.63-9.1-60.67,20.28-49.73,40.86c4.54,8.53,12.48,13.11,22.29,13.19
				c10.891,0.07,15.76-8.39,25.351-9.72C561.59,314.32,581.22,355.47,598.97,337.6z"/>
			<path style="fill:#F6CC4B;" d="M178.44,342.73c-8.53,4.85-17.69,4.86-25.89-0.25c-19.78-12.33-6.76-53.81,22.57-60.27
				c15.95-3.51,19.65-4.92,34.32,1.69c13.49,6.09,52.58,3.86,46.72,26.16c-6.41,24.36-44.01-1.42-60.64,11.56
				C187.88,327.58,187.9,337.34,178.44,342.73z"/>
			<path style="fill:#F6CC4B;" d="M172.7,474.53c-8.62,4.26-31.65,6.26-34.81-4.45C128.9,439.61,203.57,459.28,172.7,474.53z"/>
		</g>
		<g>
			<path style="fill:none;stroke:#231F20;stroke-width:21;" d="M234.59,570.23c-39.62-10.351-72.48-21.44-102.24-50.591
				C86.47,474.72,80.21,412.41,77.34,350.56c-3.46-74.38,89.12-109.28,147.62-109.2c33.76,0.04,66.58,4.5,99.89,4.5
				c39.39,0,77.41-11.88,116.91-10.13c75.391,3.32,152.681,15.51,225.57,36.32c29.25,8.35,46.93,23.72,68.15,45.02
				c19.22,19.3,33.97,37.91,35.479,66.5c1.4,26.61,1.34,61.19-13.77,84.2c-17.221,26.221-52.73,45.711-80.33,59.44
				c-33.37,16.62-65.221,35.12-97.971,51.54c-32.97,16.54-66.989,18.85-103.06,24.13C413.88,611.95,333.91,596.18,234.59,570.23z"/>
			<path style="fill:none;stroke:#231F20;stroke-width:14;" d="M256.16,310.06c-6.41,24.36-44.01-1.42-60.64,11.56
				c-7.64,5.96-7.62,15.72-17.08,21.11c-8.53,4.85-17.69,4.86-25.89-0.25c-19.78-12.33-6.76-53.81,22.57-60.27
				c15.95-3.51,19.65-4.92,34.32,1.69C222.93,289.99,262.02,287.76,256.16,310.06z"/>
			<path style="fill:none;stroke:#231F20;stroke-width:14;" d="M671.51,477.84c-12.29,10.76-14.85,13.78-30.89,15.03
				c-14.76,1.17-47.96,21.93-53.54-0.45c-6.11-24.43,39.26-19.93,47.59-39.3c3.82-8.91-0.88-17.45,4.82-26.73
				c5.13-8.35,13.16-12.77,22.81-12.24C685.57,415.44,694.11,458.08,671.51,477.84z"/>
			<path style="fill:none;stroke:#231F20;stroke-width:14;" d="M211.13,346.11c-9.62,5.12-16.57,17.72-10.99,24.5
				c7.31,8.87,33.02,13.04,42.46,6.79c12.8-8.46,5.07-20.11-4.63-29.09C224.65,335.98,211.13,346.11,211.13,346.11z"/>
			<path style="fill:none;stroke:#231F20;stroke-width:14;" d="M269.68,343.92c3.16,10.71,26.19,8.7,34.81,4.45
				C335.36,333.12,260.69,313.45,269.68,343.92z"/>
			<path style="fill:none;stroke:#231F20;stroke-width:14;" d="M137.89,470.08c3.16,10.71,26.19,8.71,34.81,4.45
				C203.57,459.28,128.9,439.61,137.89,470.08z"/>
			<path style="fill:none;stroke:#231F20;stroke-width:14;" d="M197.72,512.88c3.16,10.72,26.19,8.71,34.81,4.45
				C263.4,502.08,188.73,482.41,197.72,512.88z"/>
			<path style="fill:none;stroke:#231F20;stroke-width:14;" d="M542.3,513.95c-9.62,5.12-16.569,17.72-10.99,24.5
				c7.301,8.87,33.021,13.03,42.46,6.78c12.801-8.461,5.07-20.101-4.63-29.08C555.81,503.82,542.3,513.95,542.3,513.95z"/>
			<path style="fill:none;stroke:#231F20;stroke-width:14;" d="M574.96,414.83c-9.62,5.12-16.57,17.71-10.979,24.49
				c7.3,8.87,33.01,13.04,42.46,6.79c12.79-8.46,5.069-20.11-4.641-29.09C588.48,404.69,574.96,414.83,574.96,414.83z"/>
			<path style="fill:none;stroke:#231F20;stroke-width:14;" d="M705.6,435.16c3.17,10.72,26.19,8.71,34.811,4.45
				C771.28,424.36,696.61,404.69,705.6,435.16z"/>
			<path style="fill:none;stroke:#231F20;stroke-width:14;stroke-linecap:round;stroke-linejoin:round;" d="M455.3,363.15
				c23.271,1.29,31.811,43.93,9.21,63.69c-12.29,10.76-14.85,13.78-30.89,15.03c-14.76,1.17-47.96,21.93-53.54-0.45
				c-6.11-24.43,39.26-19.93,47.59-39.3c3.82-8.91-0.88-17.45,4.82-26.73C437.62,367.04,445.65,362.62,455.3,363.15z"/>
			<path style="fill:none;stroke:#231F20;stroke-width:14;stroke-linecap:round;stroke-linejoin:round;" d="M335.3,462.95
				c-9.62,5.12-16.57,17.72-10.99,24.5c7.3,8.87,33.02,13.03,42.46,6.78c12.8-8.461,5.07-20.101-4.63-29.08
				C348.81,452.82,335.3,462.95,335.3,462.95z"/>
			<path style="fill:none;stroke:#231F20;stroke-width:14;stroke-linecap:round;stroke-linejoin:round;" d="M498.6,384.16
				c3.17,10.72,26.19,8.71,34.811,4.45C564.28,373.36,489.61,353.69,498.6,384.16z"/>
			<path style="fill:none;stroke:#231F20;stroke-width:14;stroke-linecap:round;stroke-linejoin:round;" d="M542.78,272.9
				c15.56,4.95,19.47,5.58,28.85,18.65c8.63,12.03,43.58,29.68,27.34,46.05c-17.75,17.87-37.38-23.28-58.279-20.37
				c-9.591,1.33-14.46,9.79-25.351,9.72c-9.81-0.08-17.75-4.66-22.29-13.19C482.11,293.18,514.15,263.8,542.78,272.9z"/>
		</g>
	</g>
</g>
<rect style="fill:none;" width="850.394" height="850.394"/>
</svg>
