<?xml version="1.0" encoding="iso-8859-1"?>
<!-- Generator: Adobe Illustrator 12.0.1, SVG Export Plug-In . SVG Version: 6.00 Build 51448)  -->
<!DOCTYPE svg PUBLIC "-//W3C//DTD SVG 1.1//EN" "http://www.w3.org/Graphics/SVG/1.1/DTD/svg11.dtd" [
	<!ENTITY ns_svg "http://www.w3.org/2000/svg">
	<!ENTITY ns_xlink "http://www.w3.org/1999/xlink">
]>
<svg  version="1.1" id="Layer_1" xmlns="&ns_svg;" xmlns:xlink="&ns_xlink;" width="850.394" height="850.394"
	 viewBox="0 0 850.394 850.394" style="overflow:visible;enable-background:new 0 0 850.394 850.394;" xml:space="preserve">
<g id="XMLID_13_">
	<g>
		<path style="fill:#ABD153;" d="M224.36,252.77c12.59,1.19,22.4,11.12,22.4,23.19c0,12.87-11.16,23.31-24.95,23.31
			c-0.86,0-1.71-0.04-2.55-0.12c-12.57-1.19-22.39-11.12-22.39-23.19c0-12.87,11.17-23.31,24.94-23.31
			C222.67,252.65,223.52,252.69,224.36,252.77z M229.47,273.51c0-5.02-3.72-9.07-8.32-9.07c-4.61,0-8.33,4.05-8.33,9.07
			c0,5.01,3.72,9.08,8.33,9.08C225.75,282.59,229.47,278.52,229.47,273.51z"/>
		<path style="fill:#ABD153;" d="M475.38,252.64c13.78,0,24.96,10.44,24.96,23.32c0,12.07-9.83,22-22.41,23.19
			c-0.84,0.08-1.689,0.12-2.55,0.12c-13.78,0-24.95-10.44-24.95-23.31c0-12.08,9.82-22.01,22.4-23.2
			C473.67,252.68,474.52,252.64,475.38,252.64z M484.38,273.5c0-5.01-3.729-9.06-8.34-9.06c-4.59,0-8.32,4.05-8.32,9.06
			s3.73,9.08,8.32,9.08C480.65,282.58,484.38,278.51,484.38,273.5z"/>
		<path style="fill:#FFFFFF;" d="M221.01,249.54c1.19,0.03,2.38,0.09,3.58,0.19l-0.23,3.04c-0.84-0.08-1.69-0.12-2.55-0.12
			c-13.77,0-24.94,10.44-24.94,23.31c0,12.07,9.82,22,22.39,23.19l-0.46,4.48c-5.3-0.53-10.4-1.56-14.66-3.08
			c-17.87-6.36-33.34-7.61-46.76-20.03l-1-0.4C173.45,262.03,195.43,248.99,221.01,249.54z"/>
		<path style="fill:#FFFFFF;" d="M221.81,299.27c13.79,0,24.95-10.44,24.95-23.31c0-12.07-9.81-22-22.4-23.19l0.23-3.04
			c22.54,1.79,45.27,15.42,56.14,34.68c3.25,5.77,7.58,9.77,1.88,13.29c-4.85,3.01-10.7-8.95-15.9-6.52
			c-3.49,1.63-5.38,5.64-9.12,7.35c-4.42,2.06-10.34,3.23-15.13,4.23c-6.86,1.41-15.51,1.71-23.66,0.87l0.46-4.48
			C220.1,299.23,220.95,299.27,221.81,299.27z"/>
		<path style="fill:#FFFFFF;" d="M478.42,303.68c-7.65,0.78-15.65,0.46-22.39-0.92c-4.79-1-10.71-2.18-15.13-4.24
			c-3.73-1.7-6.931-5.71-10.41-7.34c-5.2-2.43-11.05,9.53-15.92,6.52c-5.69-3.53-1.36-7.52,1.9-13.3
			c10.87-19.26,33.589-32.89,56.129-34.67l0.23,3.03c-12.58,1.19-22.4,11.12-22.4,23.2c0,12.87,11.17,23.31,24.95,23.31
			c0.86,0,1.71-0.04,2.55-0.12L478.42,303.68z"/>
		<path style="fill:#FFFFFF;" d="M476.19,249.54c25.569-0.55,47.55,12.49,64.63,30.57l-1,0.41
			c-13.42,12.41-28.88,13.67-46.761,20.02c-4.38,1.57-9.43,2.61-14.64,3.14l-0.49-4.53c12.58-1.19,22.41-11.12,22.41-23.19
			c0-12.88-11.18-23.32-24.96-23.32c-0.86,0-1.71,0.04-2.55,0.12l-0.23-3.03C473.8,249.63,475,249.57,476.19,249.54z"/>
		<path style="fill:#EE947D;" d="M457.4,551.62c1.63,1.64-59.72,24.55-74.44,28.62c-14.73,4.08-28.64,2.47-28.64,2.47
			s-15.54,1.61-30.26-2.47c-14.72-4.07-76.07-26.98-74.44-28.62c0,0,31.09,2.47,58.9-7.351c27.81-9.829,41.72,5.711,41.72,5.711
			h6.54c0,0,13.89-15.54,41.72-5.721C426.31,554.06,457.4,551.62,457.4,551.62z"/>
		<path style="fill:#FFEEC8;" d="M540.82,280.11c-17.08-18.08-39.061-31.12-64.63-30.57c-1.19,0.03-2.391,0.09-3.591,0.19
			c-22.54,1.78-45.26,15.41-56.129,34.67c-3.26,5.78-7.59,9.77-1.9,13.3c4.87,3.01,10.72-8.95,15.92-6.52
			c3.479,1.63,6.68,5.64,10.41,7.34c4.42,2.06,10.34,3.24,15.13,4.24c6.739,1.38,14.739,1.7,22.39,0.92
			c5.21-0.53,10.26-1.57,14.64-3.14c17.881-6.35,33.341-7.61,46.761-20.02L540.82,280.11z M608.32,403.6
			c-0.94,14.51-2.011,26.72-2.87,35.95c-3.69,39.271-40.49,159.5-82.22,206.13c-41.711,46.62-71.58,80.17-152.541,84.261h-44.18
			c-80.97-4.08-110.83-37.641-152.55-84.261c-41.71-46.63-78.52-166.859-82.21-206.13c-3.67-39.26-11.04-132.5,3.69-226.98
			c1.74-11.19,2.95-21.93,3.86-32.24l498.63,0.31c0.9,10.22,2.101,20.85,3.83,31.92C613.03,284.83,611.37,356.39,608.32,403.6z
			 M156.38,280.12l1,0.4c13.42,12.42,28.89,13.67,46.76,20.03c4.26,1.52,9.36,2.55,14.66,3.08c8.15,0.84,16.8,0.54,23.66-0.87
			c4.79-1,10.71-2.17,15.13-4.23c3.74-1.71,5.63-5.72,9.12-7.35c5.2-2.43,11.05,9.53,15.9,6.52c5.7-3.52,1.37-7.52-1.88-13.29
			c-10.87-19.26-33.6-32.89-56.14-34.68c-1.2-0.1-2.39-0.16-3.58-0.19C195.43,248.99,173.45,262.03,156.38,280.12z M382.96,580.24
			c14.72-4.07,76.07-26.98,74.44-28.62c0,0-31.091,2.439-58.9-7.36c-27.83-9.819-41.72,5.721-41.72,5.721h-6.54
			c0,0-13.91-15.54-41.72-5.711c-27.81,9.82-58.9,7.351-58.9,7.351c-1.63,1.64,59.72,24.55,74.44,28.62
			c14.72,4.08,30.26,2.47,30.26,2.47S368.23,584.32,382.96,580.24z"/>
		<path style="fill:#231F20;" d="M476.04,264.44c4.61,0,8.34,4.05,8.34,9.06s-3.729,9.08-8.34,9.08c-4.59,0-8.32-4.07-8.32-9.08
			S471.45,264.44,476.04,264.44z"/>
		<path style="fill:#231F20;" d="M221.15,264.44c4.6,0,8.32,4.05,8.32,9.07c0,5.01-3.72,9.08-8.32,9.08c-4.61,0-8.33-4.07-8.33-9.08
			C212.82,268.49,216.54,264.44,221.15,264.44z"/>
	</g>
	<g>
		<path style="fill:none;stroke:#231F20;stroke-width:14.1942;" d="M415.17,229.09c13.07-6.5,59.78-26.97,107.67-14.48
			c20.18,5.26,43.34,17.17,43.34,17.17"/>
		<path style="fill:none;stroke:#231F20;stroke-width:14.1942;" d="M411.58,230.96c0,0,1.24-0.71,3.55-1.85"/>
		<path style="fill:none;stroke:#231F20;stroke-width:14.1942;" d="M357.72,469.12c4.49,0.189,10.17-1.15,14.6-7.48
			c11.45-16.359,27.82-22.09,32.72-12.27c4.92,9.81-3.27,18.81,5.71,13.89c9.01-4.899,20.47-26.17-4.08-54.79
			c-24.53-28.63-20.45-51.55-20.45-99.81c0,0-5.24-57.06,28.91-79.55c0.01-0.01,0.03-0.02,0.04-0.02c3.97-2.62,8.48-4.77,13.59-6.3"
			/>
		<path style="fill:none;stroke:#231F20;stroke-width:14.1942;" d="M350.23,467.35c0,0,3.17,1.57,7.43,1.771"/>
		<path style="fill:none;stroke:#231F20;stroke-width:14.1942;stroke-linecap:square;stroke-miterlimit:10;" d="M546.76,286.84
			c-1.91-2.31-3.89-4.56-5.939-6.73c-17.08-18.08-39.061-31.12-64.63-30.57c-1.19,0.03-2.391,0.09-3.591,0.19
			c-22.54,1.78-45.26,15.41-56.129,34.67c-3.26,5.78-7.59,9.77-1.9,13.3c4.87,3.01,10.72-8.95,15.92-6.52
			c3.479,1.63,6.68,5.64,10.41,7.34c4.42,2.06,10.34,3.24,15.13,4.24c6.739,1.38,14.739,1.7,22.39,0.92
			c5.21-0.53,10.26-1.57,14.64-3.14c17.881-6.35,33.341-7.61,46.761-20.02"/>
		<path style="fill:none;stroke:#231F20;stroke-width:7.0971;" d="M467.72,273.5c0,5.01,3.73,9.08,8.32,9.08
			c4.61,0,8.34-4.07,8.34-9.08s-3.729-9.06-8.34-9.06C471.45,264.44,467.72,268.49,467.72,273.5z"/>
		<path style="fill:none;stroke:#231F20;stroke-width:7.0971;" d="M472.83,252.76c0.84-0.08,1.689-0.12,2.55-0.12
			c13.78,0,24.96,10.44,24.96,23.32c0,12.07-9.83,22-22.41,23.19c-0.84,0.08-1.689,0.12-2.55,0.12c-13.78,0-24.95-10.44-24.95-23.31
			C450.43,263.88,460.25,253.95,472.83,252.76z"/>
		<path style="fill:none;stroke:#231F20;stroke-width:14.1942;" d="M285.62,230.97c0,0-54.81-31.08-111.25-16.36
			c-20.18,5.26-43.35,17.18-43.35,17.18"/>
		<path style="fill:none;stroke:#231F20;stroke-width:14.1942;" d="M364.96,467.37c0,0-3.08,1.52-7.24,1.75c-0.02,0-0.04,0-0.06,0
			c-4.52,0.24-10.3-1.061-14.79-7.48c-11.45-16.35-27.81-22.09-32.72-12.27c-4.91,9.81,3.28,18.81-5.72,13.89
			c-9-4.899-20.46-26.17,4.09-54.78c24.54-28.64,20.45-51.54,20.45-99.81"/>
		<path style="fill:none;stroke:#231F20;stroke-width:14.1942;stroke-linecap:square;stroke-miterlimit:10;" d="M150.44,286.85
			c1.91-2.31,3.89-4.56,5.94-6.73c17.07-18.09,39.05-31.13,64.63-30.58c1.19,0.03,2.38,0.09,3.58,0.19
			c22.54,1.79,45.27,15.42,56.14,34.68c3.25,5.77,7.58,9.77,1.88,13.29c-4.85,3.01-10.7-8.95-15.9-6.52
			c-3.49,1.63-5.38,5.64-9.12,7.35c-4.42,2.06-10.34,3.23-15.13,4.23c-6.86,1.41-15.51,1.71-23.66,0.87
			c-5.3-0.53-10.4-1.56-14.66-3.08c-17.87-6.36-33.34-7.61-46.76-20.03"/>
		<path style="fill:none;stroke:#231F20;stroke-width:7.0971;" d="M229.47,273.51c0,5.01-3.72,9.08-8.32,9.08
			c-4.61,0-8.33-4.07-8.33-9.08c0-5.02,3.72-9.07,8.33-9.07C225.75,264.44,229.47,268.49,229.47,273.51z"/>
		<path style="fill:none;stroke:#231F20;stroke-width:21.2913;" d="M597.93,180.64c0.9,10.22,2.101,20.85,3.83,31.92
			c11.271,72.27,9.61,143.83,6.561,191.04c-0.94,14.51-2.011,26.72-2.87,35.95c-3.69,39.271-40.49,159.5-82.22,206.13
			c-41.711,46.62-71.58,80.17-152.541,84.261h-44.18c-80.97-4.08-110.83-37.641-152.55-84.261
			c-41.71-46.63-78.52-166.859-82.21-206.13c-3.67-39.26-11.04-132.5,3.69-226.98c1.74-11.19,2.95-21.93,3.86-32.24"/>
		<path style="fill:none;stroke:#231F20;stroke-width:7.0971;" d="M224.36,252.77c-0.84-0.08-1.69-0.12-2.55-0.12
			c-13.77,0-24.94,10.44-24.94,23.31c0,12.07,9.82,22,22.39,23.19c0.84,0.08,1.69,0.12,2.55,0.12c13.79,0,24.95-10.44,24.95-23.31
			C246.76,263.89,236.95,253.96,224.36,252.77z"/>
		<path style="fill:none;stroke:#231F20;stroke-width:14.1942;" d="M303.61,626.05c0,0,56.44-9,110.42,2.46"/>
		<path style="fill:none;stroke:#231F20;stroke-width:14.1942;" d="M350.24,549.98c0,0-13.91-15.54-41.72-5.711
			c-27.81,9.82-58.9,7.351-58.9,7.351c-1.63,1.64,59.72,24.55,74.44,28.62c14.72,4.08,30.26,2.47,30.26,2.47s13.91,1.61,28.64-2.47
			c14.72-4.07,76.07-26.98,74.44-28.62c0,0-31.091,2.439-58.9-7.36c-27.83-9.819-41.72,5.721-41.72,5.721H350.24z"/>
		<path style="fill:none;stroke:#231F20;stroke-width:14.1942;" d="M128.43,482.24c0,0,67.52,57.33,136.31-19.11"/>
		<path style="fill:none;stroke:#231F20;stroke-width:14.1942;" d="M574.13,483.77c0,0-67.52,57.311-136.3-19.109"/>
		<polyline style="fill:none;stroke:#231F20;stroke-width:21.2913;" points="757.6,403.6 608.32,403.6 523.61,403.6 		"/>
		<polyline style="fill:none;stroke:#231F20;stroke-width:21.2913;" points="582.99,348.83 522.45,403.8 583.09,458.75 		"/>
	</g>
</g>
<rect style="fill:none;" width="850.394" height="850.394"/>
</svg>
