<?xml version="1.0" encoding="iso-8859-1"?>
<!-- Generator: Adobe Illustrator 12.0.1, SVG Export Plug-In . SVG Version: 6.00 Build 51448)  -->
<!DOCTYPE svg PUBLIC "-//W3C//DTD SVG 1.1//EN" "http://www.w3.org/Graphics/SVG/1.1/DTD/svg11.dtd" [
	<!ENTITY ns_svg "http://www.w3.org/2000/svg">
	<!ENTITY ns_xlink "http://www.w3.org/1999/xlink">
]>
<svg  version="1.1" id="Layer_1" xmlns="&ns_svg;" xmlns:xlink="&ns_xlink;" width="850.394" height="850.394"
	 viewBox="0 0 850.394 850.394" style="overflow:visible;enable-background:new 0 0 850.394 850.394;" xml:space="preserve">
<g id="XMLID_4_">
	<g>
		<path style="fill:#F6CC4B;" d="M476.03,613.19l1.12,0.38c-1.511,4.399-3.311,8.33-5.37,11.689
			c-15.62,25.57-102.24,83.79-186.03,104.44c-23.75,5.85-66.82,6.95-94.81,2.33l0.38-2.33c0,0-4.26-37.69,24.14-54.73
			s80.94-14.91,110.77-26.27c20.43-7.79,46.29-31.45,64.84-44.25C420.9,583.85,463.96,584.56,476.03,613.19z"/>
		<path style="fill:#F6CC4B;" d="M611.9,442.12c31.72,17.52,50.27,56.399,30.01,79.96l0.149,1.16c-4.609,0.609-8.92,0.75-12.85,0.41
			c-29.85-2.601-120.55-54.221-176.37-120.03c-15.83-18.66-35.98-56.73-44.32-83.85l2.26-0.69c0,0,31.84-20.6,59.76-2.77
			c27.9,17.84,49.4,65.83,72.85,87.47C559.48,418.6,592.16,431.21,611.9,442.12z"/>
		<path style="fill:#9E5C26;" d="M782.74,326.44c5.84,45.74-8.2,87.63-39.73,131.07c-27.37,37.721-70.52,61.771-100.95,65.73
			l-0.149-1.16c20.26-23.561,1.71-62.44-30.01-79.96c-19.74-10.91-52.42-23.52-68.511-38.34c-23.449-21.64-44.949-69.63-72.85-87.47
			c-27.92-17.83-59.76,2.77-59.76,2.77l-2.26,0.69c-1.19-3.87-2.14-7.52-2.8-10.86c-5.29-26.71-17.78-87.38,46.36-141.24
			c64.939-54.52,106.78-43.64,152.81-35.58c27.5,4.82,73.82,25.01,91.71,26.53c19.051,1.63,35.881-2.79,44.78-5.63
			c5.41-1.73,11.44-5.69,10.16-0.29c-1.28,5.39-1.29,11.74-1.29,11.74s-6.19,26.88,1.16,54.94
			C755.95,236.67,777.84,288.02,782.74,326.44z"/>
		<path style="fill:#9E5C26;" d="M463.26,493.92c21.57,41.3,23.88,90.65,13.891,119.65l-1.12-0.38
			c-12.07-28.631-55.13-29.341-84.96-8.74c-18.55,12.8-44.41,36.46-64.84,44.25c-29.83,11.359-82.37,9.229-110.77,26.27
			s-24.14,54.73-24.14,54.73l-0.38,2.33c-4-0.66-7.7-1.431-10.98-2.33c-26.27-7.16-86.14-23.021-105.79-104.44
			c-19.88-82.42,8.5-115.029,36.21-152.64c16.57-22.49,55.28-54.95,64.61-70.29c9.94-16.34,13.49-33.38,14.91-42.61
			c0.87-5.61,0-12.78,4.26-9.23c4.26,3.55,9.94,6.39,9.94,6.39s21.3,17.52,49.71,23.43c17.49,3.65,73.22,6.92,109.81,19.65
			C407.17,415.11,438.41,446.34,463.26,493.92z"/>
	</g>
	<g>
		<path style="fill:none;stroke:#231F20;stroke-width:21;" d="M190.94,732.03c-4-0.66-7.7-1.431-10.98-2.33
			c-26.27-7.16-86.14-23.021-105.79-104.44c-19.88-82.42,8.5-115.029,36.21-152.64c16.57-22.49,55.28-54.95,64.61-70.29
			c9.94-16.34,13.49-33.38,14.91-42.61c0.87-5.61,0-12.78,4.26-9.23c4.26,3.55,9.94,6.39,9.94,6.39s21.3,17.52,49.71,23.43
			c17.49,3.65,73.22,6.92,109.81,19.65c43.55,15.15,74.79,46.38,99.64,93.96c21.57,41.3,23.88,90.65,13.891,119.65
			c-1.511,4.399-3.311,8.33-5.37,11.689c-15.62,25.57-102.24,83.79-186.03,104.44C262,735.55,218.93,736.65,190.94,732.03z"/>
		<path style="fill:none;stroke:#231F20;stroke-width:21;" d="M191.32,729.7c0,0-4.26-37.69,24.14-54.73s80.94-14.91,110.77-26.27
			c20.43-7.79,46.29-31.45,64.84-44.25c29.83-20.601,72.89-19.891,84.96,8.74"/>
		<path style="fill:none;stroke:#231F20;stroke-width:21;" d="M408.52,319.77c-1.19-3.87-2.14-7.52-2.8-10.86
			c-5.29-26.71-17.78-87.38,46.36-141.24c64.939-54.52,106.78-43.64,152.81-35.58c27.5,4.82,73.82,25.01,91.71,26.53
			c19.051,1.63,35.881-2.79,44.78-5.63c5.41-1.73,11.44-5.69,10.16-0.29c-1.28,5.39-1.29,11.74-1.29,11.74s-6.19,26.88,1.16,54.94
			c4.54,17.29,26.43,68.64,31.33,107.06c5.84,45.74-8.2,87.63-39.73,131.07c-27.37,37.721-70.52,61.771-100.95,65.73
			c-4.609,0.609-8.92,0.75-12.85,0.41c-29.85-2.601-120.55-54.221-176.37-120.03C437.01,384.96,416.86,346.89,408.52,319.77z"/>
		<path style="fill:none;stroke:#231F20;stroke-width:21;" d="M410.78,319.08c0,0,31.84-20.6,59.76-2.77
			c27.9,17.84,49.4,65.83,72.85,87.47c16.091,14.82,48.771,27.43,68.511,38.34c31.72,17.52,50.27,56.399,30.01,79.96"/>
	</g>
</g>
<rect style="fill:none;" width="850.394" height="850.394"/>
</svg>
