<?xml version="1.0" encoding="iso-8859-1"?>
<!-- Generator: Adobe Illustrator 12.0.1, SVG Export Plug-In . SVG Version: 6.00 Build 51448)  -->
<!DOCTYPE svg PUBLIC "-//W3C//DTD SVG 1.1//EN" "http://www.w3.org/Graphics/SVG/1.1/DTD/svg11.dtd" [
	<!ENTITY ns_svg "http://www.w3.org/2000/svg">
	<!ENTITY ns_xlink "http://www.w3.org/1999/xlink">
]>
<svg  version="1.1" id="Layer_1" xmlns="&ns_svg;" xmlns:xlink="&ns_xlink;" width="850.394" height="850.394"
	 viewBox="0 0 850.394 850.394" style="overflow:visible;enable-background:new 0 0 850.394 850.394;" xml:space="preserve">
<g id="XMLID_2_">
	<g>
		<path style="fill:#9C5B16;" d="M249.32,171.3c-2.89-1.3-6.31-2.3-10.38-2.88c-12.61-1.77-14.66,8.44-14.66,8.44
			c5.42,9.43,16.9,10.48,24.38-4.25L249.32,171.3z M700.31,269.29c1.891-0.64,3.78-1.14,5.66-1.48
			c1.34,32.97-1.51,69.82-19.88,98.33c-8.13,12.63-7.97,21.19-10.74,36.32c-2.31,12.64-8.699,32.53-20.18,44.021
			c0,0-5.96,44.13-25.95,85.1c-26.87,55.07-91.05,97.57-137.7,97.57c-32.239,0-59.84,22.39-66.24,39.83
			c-8.76,23.89-31.78,24.829-36.77,1.939c-4.23-19.41-39.31-57.229-48.77-66.689c-9.45-9.45-70.75-24.98-110.47-64.69
			c-23.38-23.37-37.44-54.49-44.1-88.45c-9.17-46.81-5.92-97.91,4.92-134.58c7.82-26.46,10.25-32.76,26.11-73.9
			c0-15.17-2.02-33.54-5.84-37.85c-7.95-8.94-12.15-12.6-25.07-13.35c-0.02,0-0.04,0-0.06,0c-1.76-0.1-3.68-0.15-5.79-0.15v0.01
			c-11.78-0.34-28.4-1.07-28.4-1.07c9.32-21.2,22.65-29.95,30.93-33.49c4.55-1.94,7.57-2.31,7.57-2.31s23.07-32.31,63.05-24.34
			c0,0,11.24,1.54,24.14,12.39c11.24,9.46,23.75,25.98,31.16,54.72c0,0,18.41,87.08,31.85,100.52
			c13.44,13.44,54.74,33.84,104.51,25.88c49.75-7.97,101.71-11.17,108.48-25.88c11.439-24.88,24.39-58.22,40.8-74.64
			c25.38-25.38,44.79-30.86,44.79-30.86s12.6,6.97,24.529,16.86c4.881-2.48,9.521-4.38,13.82-5.69c0,0,11.521,29.62,6.98,34.16
			c5.56,0.09,11.46,1.34,18.21,3.61c-1.271,5.36-2.21,19.37-2.66,24.71L700.31,269.29z"/>
		<path style="fill:#7BD3F7;" d="M493.94,718.76l-24.19-10.74C480.61,708.83,486.66,713.13,493.94,718.76z"/>
		<path style="fill:#7BD3F7;" d="M401.07,768.33l-24.18-10.75C387.75,758.39,393.81,762.69,401.07,768.33z"/>
		<path style="fill:#FF001C;" d="M268.58,77.24c15.3,3.33,26.47,14.95,26.43,39.23c-0.02,11.33-7.48,21.47-18.28,25.98
			c-12.9-10.85-24.14-12.39-24.14-12.39c-39.98-7.97-63.05,24.34-63.05,24.34s-3.02,0.37-7.57,2.31
			c-17.31-4.48-15.46-20.19-8.41-27.24c5.83-5.83,10.13-0.73,15.4-7.87c2.48-3.37,2.17-10.83,6.45-13.8
			c3.69-2.57,7.74-0.13,11.21-2.94c5.93-4.82,3.04-16.74,10.68-19.46c15.22-5.41,17.18,1.38,21.05,1.3
			c4.98-0.12,6.35-10.33,11.6-12.17C260.24,70.93,259.18,75.2,268.58,77.24z"/>
		<path style="fill:#FFF400;" d="M249.32,171.3l-0.66,1.31c-7.48,14.73-18.96,13.68-24.38,4.25c0,0,2.05-10.21,14.66-8.44
			C243.01,169,246.43,170,249.32,171.3z"/>
		<path style="fill:#FF001C;" d="M210.36,204.76c3.82,4.31,5.84,22.68,5.84,37.85c0,0-41.69-5.66-36.76-51.34
			c2.13,0.06,4.1,0.11,5.79,0.14c0.02,0,0.04,0,0.06,0C198.21,192.16,202.41,195.82,210.36,204.76z"/>
	</g>
	<g>
		<path style="fill:none;stroke:#231F20;stroke-width:21;" d="M185.29,191.41c1.12,0.02,2.11,0.03,2.93,0.03"/>
		<path style="fill:none;stroke:#231F20;stroke-width:21;" d="M663.05,209.22c-0.069-0.06-0.13-0.11-0.2-0.17
			c-11.93-9.89-24.529-16.86-24.529-16.86s-19.41,5.48-44.79,30.86c-16.41,16.42-29.36,49.76-40.8,74.64
			C545.96,312.4,494,315.6,444.25,323.57c-49.77,7.96-91.07-12.44-104.51-25.88c-13.44-13.44-31.85-100.52-31.85-100.52
			c-7.41-28.74-19.92-45.26-31.16-54.72c-12.9-10.85-24.14-12.39-24.14-12.39c-39.98-7.97-63.05,24.34-63.05,24.34
			s-3.02,0.37-7.57,2.31c-8.28,3.54-21.61,12.29-30.93,33.49c0,0,16.62,0.73,28.4,1.07c2.13,0.06,4.1,0.11,5.79,0.14"/>
		<path style="fill:none;stroke:#231F20;stroke-width:21;" d="M597.02,315.11c12.561-11.2,21.271-25.46,32.381-38.3
			c8.97-10.4,15.439-21.09,26.58-29.15c9.869-7.15,18.279-10.3,27.67-10.14c5.56,0.09,11.46,1.34,18.21,3.61
			c-1.271,5.36-2.21,19.37-2.66,24.71"/>
		<path style="fill:none;stroke:#231F20;stroke-width:21;" d="M587.57,284.75c20.899-36.74,50.949-63.32,75.279-75.7
			c4.881-2.48,9.521-4.38,13.82-5.69c0,0,11.521,29.62,6.98,34.16"/>
		<path style="fill:none;stroke:#231F20;stroke-width:21;" d="M276.05,492.76c0,0,29.85,40.811,118.43,40.811
			c81.61,0,144.82-1.5,157.25-13.931c12.439-12.439-40.801-59.72-68.671-78.63c-27.869-18.91-62.7-43.79-62.7-43.79"/>
		<path style="fill:none;stroke:#231F20;stroke-width:21;stroke-linecap:round;stroke-linejoin:round;" d="M395.93,694.11
			c0,0-16.13,55.18-22.85,55.18c-6.71,0-25.38-2.99-30.98,2.61"/>
		<path style="fill:none;stroke:#231F20;stroke-width:21;stroke-linecap:round;stroke-linejoin:round;" d="M336.63,776.23
			c16.48-9.591,30.43-16.19,42.57-20.971c8.32-3.27,27.38-59.31,30.79-67.92"/>
		<path style="fill:none;stroke:#231F20;stroke-width:21;stroke-linecap:round;stroke-linejoin:round;" d="M376.89,757.58
			c10.86,0.81,16.92,5.11,24.18,10.75"/>
		<path style="fill:none;stroke:#231F20;stroke-width:21;stroke-linecap:round;stroke-linejoin:round;" d="M491.52,635.55
			c0,0.021-18.789,64.181-25.579,64.181c-6.71,0-25.37-2.99-30.971,2.609"/>
		<path style="fill:none;stroke:#231F20;stroke-width:21;stroke-linecap:round;stroke-linejoin:round;" d="M429.49,726.66
			c16.479-9.58,30.319-16.19,42.47-20.96c8.31-3.28,27.78-64.33,31.18-72.94"/>
		<path style="fill:none;stroke:#231F20;stroke-width:21;stroke-linecap:round;stroke-linejoin:round;" d="M469.75,708.02
			c10.86,0.811,16.91,5.11,24.19,10.74"/>
		<path style="fill:none;stroke:#231F20;stroke-width:21;" d="M179.44,191.26v0.01c-4.93,45.68,36.76,51.34,36.76,51.34
			c-15.86,41.14-18.29,47.44-26.11,73.9c-10.84,36.67-14.09,87.77-4.92,134.58c6.66,33.96,20.72,65.08,44.1,88.45
			c39.72,39.71,101.02,55.24,110.47,64.69c9.46,9.46,44.54,47.279,48.77,66.689c4.99,22.89,28.01,21.95,36.77-1.939
			c6.4-17.44,34-39.83,66.24-39.83c46.65,0,110.83-42.5,137.7-97.57c19.99-40.97,25.95-85.1,25.95-85.1
			c11.48-11.49,17.87-31.38,20.18-44.021c2.771-15.13,2.61-23.69,10.74-36.32c18.37-28.51,21.22-65.36,19.88-98.33
			c-1.88,0.34-3.77,0.84-5.66,1.48c-13.199,4.47-26.27,15.73-36.09,24.64c-15.93,14.46-27.479,32.8-44.31,49.63"/>
		<path style="fill:none;stroke:#231F20;stroke-width:14;" d="M248.66,172.61c-7.48,14.73-18.96,13.68-24.38,4.25
			c0,0,2.05-10.21,14.66-8.44c4.07,0.58,7.49,1.58,10.38,2.88c2.25,1.02,4.18,2.23,5.83,3.57"/>
		<path style="fill:none;stroke:#231F20;stroke-width:21;" d="M179.44,191.26c2.11,0,4.03,0.05,5.79,0.15c0.02,0,0.04,0,0.06,0
			c12.92,0.75,17.12,4.41,25.07,13.35c3.82,4.31,5.84,22.68,5.84,37.85"/>
		<path style="fill:none;stroke:#231F20;stroke-width:21;" d="M183.1,156.98c-0.38-0.08-0.76-0.17-1.13-0.27
			c-17.31-4.48-15.46-20.19-8.41-27.24c5.83-5.83,10.13-0.73,15.4-7.87c2.48-3.37,2.17-10.83,6.45-13.8
			c3.69-2.57,7.74-0.13,11.21-2.94c5.93-4.82,3.04-16.74,10.68-19.46c15.22-5.41,17.18,1.38,21.05,1.3
			c4.98-0.12,6.35-10.33,11.6-12.17c10.29-3.6,9.23,0.67,18.63,2.71c15.3,3.33,26.47,14.95,26.43,39.23
			c-0.02,11.33-7.48,21.47-18.28,25.98c-0.55,0.23-1.11,0.45-1.68,0.65"/>
	</g>
</g>
<rect style="fill:none;" width="850.394" height="850.394"/>
</svg>
