<?xml version="1.0" encoding="iso-8859-1"?>
<!-- Generator: Adobe Illustrator 12.0.1, SVG Export Plug-In . SVG Version: 6.00 Build 51448)  -->
<!DOCTYPE svg PUBLIC "-//W3C//DTD SVG 1.1//EN" "http://www.w3.org/Graphics/SVG/1.1/DTD/svg11.dtd" [
	<!ENTITY ns_svg "http://www.w3.org/2000/svg">
	<!ENTITY ns_xlink "http://www.w3.org/1999/xlink">
]>
<svg  version="1.1" id="Layer_1" xmlns="&ns_svg;" xmlns:xlink="&ns_xlink;" width="850.394" height="850.394"
	 viewBox="0 0 850.394 850.394" style="overflow:visible;enable-background:new 0 0 850.394 850.394;" xml:space="preserve">
<g id="XMLID_4_">
	<g>
		<path style="fill:#FFEEC8;" d="M754.1,399.39c40.61,0,28.181,31.03,19.48,47.2c-8.71,16.17,8.7,8.71,8.71,39.38
			c0,19.07-24.75,29.75-54.72,13.28c-33.16-18.24-61.061-19.34-105.29-12.42c-11.021,1.72-20.75,3.8-29.62,6.2
			c27.58-15.641,21.359-64.37-1.44-85.37c32.971,5.62,44.87,4.55,94.061,4.54C732.42,412.19,754.1,399.39,754.1,399.39z"/>
		<path style="fill:#F6CC4B;" d="M591.22,407.66c22.8,21,29.021,69.729,1.44,85.37c-33.87,9.12-55.26,22.81-88.101,38.59
			c-41.449,19.899-135.95,58.05-135.95,58.05s-36.48,9.95-81.25,24.88c-44.76,14.931-124.87-14.39-160.84-29.819
			c-37.59-16.12-61.37-94.5-61.37-127.66c-0.01-33.17,29.83-91.21,71.28-114.43c41.45-23.22,100.53-30.84,203.11-17.44
			c88.72,11.59,165,65.47,223.04,77.07C573.93,404.54,583.2,406.3,591.22,407.66z"/>
	</g>
	<g>
		<path style="fill:none;stroke:#000000;stroke-width:19.8976;" d="M591.22,407.66c-8.02-1.36-17.29-3.12-28.64-5.39
			c-58.04-11.6-134.32-65.48-223.04-77.07c-102.58-13.4-161.66-5.78-203.11,17.44c-41.45,23.22-71.29,81.26-71.28,114.43
			c0,33.16,23.78,111.54,61.37,127.66c35.97,15.43,116.08,44.75,160.84,29.819c44.77-14.93,81.25-24.88,81.25-24.88
			s94.5-38.15,135.95-58.05c32.841-15.78,54.23-29.47,88.101-38.59c8.87-2.4,18.6-4.48,29.62-6.2
			c44.229-6.92,72.13-5.82,105.29,12.42c29.97,16.47,54.72,5.79,54.72-13.28c-0.01-30.67-17.42-23.21-8.71-39.38
			c8.7-16.17,21.13-47.2-19.48-47.2c0,0-21.68,12.8-68.819,12.81C636.09,412.21,624.19,413.28,591.22,407.66z"/>
		<path style="fill:none;stroke:#000000;stroke-width:19.8976;" d="M592.57,493.08c0.029-0.021,0.06-0.03,0.09-0.05
			c27.58-15.641,21.359-64.37-1.44-85.37c-0.149-0.14-0.3-0.28-0.46-0.42"/>
	</g>
</g>
<g id="XMLID_1_">
	<g>
		<path style="fill:#FFFFFF;" d="M661.67,137.998c-4.79,0-8.67,3.88-8.67,8.67c0,4.78,3.88,8.66,8.67,8.66
			c4.78,0,8.66-3.88,8.66-8.66C670.33,141.878,666.45,137.998,661.67,137.998z M640.5,80.498c9.5-5.5,14.86,27.73,15,33.5
			c1-10.5,11.79-44.55,21.5-44.5c10.79,0.06,2.98,29.51,2.6,44.21c7.24-14.56,19.091-42.92,30.78-38.69
			c9.62,3.48-2.439,23.77-7.88,36.48c10.14-11.95,30.39-32.11,40.5-22c4.5,4.5-18.5,33.5-28,42.5c22,35.73,34,81.33,31.33,115.33
			c-15.521,7.93-29.4,11.9-52.01,11.9c-21.021,0-29.351-0.4-50.37-13.49l-0.601-0.35c12.92-22.37,9.591-39.59,2.98-61.39
			c0.67,6.95,4.16,20.63,0,26.67c-7.78,11.3-21.33,11.33-29.33,2c-8.09-9.44-0.03-27.6,4.67-37.34c-18.67,2-26-0.66-49.34-8.66
			c15.83-17.39,25.34-24,50.67-24.67c0,0-9.53-38.8-3.03-40.51c6.851-1.8,17.391,17.49,18.03,22.01
			C637,114.498,634.5,85.498,640.5,80.498z"/>
		<path style="fill:#FFFFFF;" d="M653,146.668c0-4.79,3.88-8.67,8.67-8.67c4.78,0,8.66,3.88,8.66,8.67c0,4.78-3.88,8.66-8.66,8.66
			C656.88,155.328,653,151.448,653,146.668z"/>
	</g>
	<g>
		<path style="fill:none;stroke:#000000;stroke-width:8;" d="M670.33,146.668c0,4.78-3.88,8.66-8.66,8.66
			c-4.79,0-8.67-3.88-8.67-8.66c0-4.79,3.88-8.67,8.67-8.67C666.45,137.998,670.33,141.878,670.33,146.668z"/>
		<path style="fill:none;stroke:#000000;stroke-width:8;" d="M580,166.498c24.5-6.5,31.09-5.83,41.67-5.83"/>
		<path style="fill:none;stroke:#000000;stroke-width:13;" d="M643,245.998c0.12-0.2,0.24-0.41,0.35-0.61
			c12.92-22.37,9.591-39.59,2.98-61.39c0.67,6.95,4.16,20.63,0,26.67c-7.78,11.3-21.33,11.33-29.33,2
			c-8.09-9.44-0.03-27.6,4.67-37.34c-18.67,2-26-0.66-49.34-8.66c15.83-17.39,25.34-24,50.67-24.67c0,0-9.53-38.8-3.03-40.51
			c6.851-1.8,17.391,17.49,18.03,22.01c-1-9-3.5-38,2.5-43c9.5-5.5,14.86,27.73,15,33.5c1-10.5,11.79-44.55,21.5-44.5
			c10.79,0.06,2.98,29.51,2.6,44.21c7.24-14.56,19.091-42.92,30.78-38.69c9.62,3.48-2.439,23.77-7.88,36.48
			c10.14-11.95,30.39-32.11,40.5-22c4.5,4.5-18.5,33.5-28,42.5c22,35.73,34,81.33,31.33,115.33"/>
	</g>
</g>
<rect style="fill:none;" width="850.394" height="850.394"/>
<rect style="fill:none;" width="850.394" height="850.394"/>
</svg>
