<?xml version="1.0" encoding="iso-8859-1"?>
<!-- Generator: Adobe Illustrator 12.0.1, SVG Export Plug-In . SVG Version: 6.00 Build 51448)  -->
<!DOCTYPE svg PUBLIC "-//W3C//DTD SVG 1.1//EN" "http://www.w3.org/Graphics/SVG/1.1/DTD/svg11.dtd" [
	<!ENTITY ns_svg "http://www.w3.org/2000/svg">
	<!ENTITY ns_xlink "http://www.w3.org/1999/xlink">
]>
<svg  version="1.1" id="Layer_1" xmlns="&ns_svg;" xmlns:xlink="&ns_xlink;" width="850.394" height="850.394"
	 viewBox="0 0 850.394 850.394" style="overflow:visible;enable-background:new 0 0 850.394 850.394;" xml:space="preserve">
<g>
	<g id="XMLID_87_">
		<g>
			<path style="fill:#F6CC4B;" d="M436.94,618.18c-2.181-2.21,30.89,20.4,14.069,53.5c-10.77,21.19-20.319,14.58-31.14,25.66
				c-11.16,11.44-28.58,9.57-37.92,23.97c-9.85,15.2-13.37,29.271-34.16,32.101c-10.05,1.359-19.54,0.52-29.39-1.37
				c-9.92-1.89-19.31-0.85-29.3-1.18c-17.73-0.61-26.91-11.221-39.68-22.79c-15.83-14.33-32.88-26.351-38.5-47.59
				c-5.13-19.44-12.93-35.65-25.51-51.631c-9.36-11.89-24.13-18.38-27.95-33.88c-1.58-6.39-12.19-25.33-14.84-30.35
				c-6.16-11.75,10.86-28.38-0.53-34.16c-13.14-6.67-5.79-37.96-0.44-41.83c6.96-5.01,9.8-8.22,13.62-15.79
				c5.51-10.92,12.6-25.02,26.61-24.52c10.85,0.39,44.83-2.7,53.39,2.399c7.37,4.4,8.9,13.82,14.52,17.75
				c5.48,3.84,13.37,0.07,19.45,2.37c12.58,4.74,30.06,29.86,35.02,45.09c4.97,15.23,33.02,29.49,45.36,35.761
				c12.35,6.27,24.6,5.3,44.14,30.75C413.3,607.9,436.94,618.18,436.94,618.18z"/>
			<path style="fill:#F6CC4B;" d="M716.4,398.33c8.75,22.09-2.53,24.88-1.391,40.33c1.19,15.939-11.75,27.76-7.14,44.28
				c4.88,17.449,13.09,29.409,1.45,46.859c-5.63,8.44-12.551,14.99-20.49,21.12c-7.98,6.18-13.42,13.91-20.28,21.17
				c-12.2,12.891-26.22,12.75-43.34,14.66c-21.24,2.38-41.53,7.2-61.17-2.65c-17.97-9.02-35.28-13.909-55.58-15.06
				c-15.1-0.86-29.75,5.92-43.9-1.48c-5.829-3.04-27.05-7.63-32.569-8.979c-12.88-3.15-14.08-26.91-25.95-22.2
				c-13.7,5.42-32.29-20.8-31.64-27.37c0.85-8.529,0.32-12.79-2.81-20.67c-4.54-11.35-10.42-26.01-0.77-36.17
				c7.47-7.87,27.65-35.38,37.15-38.43c8.16-2.61,16.25,2.48,22.91,0.87c6.5-1.57,8.91-9.97,14.66-13.01
				c11.87-6.29,42.27-2.76,56.97,3.6c14.71,6.36,43.96-5.22,56.83-10.32c12.88-5.1,20.26-14.94,52.271-12.71
				c32.01,2.2,55.37-8.71,55.37-8.71C663.88,373.63,702.73,363.81,716.4,398.33z"/>
			<path style="fill:#F6CC4B;" d="M508.92,298.17c1.99,15.37,13.6,15.83,9.48,39.23c-6.45,36.56-46.48,34.76-43.4,34.3
				c0,0-25.08-5.99-55.99,2.62c-30.92,8.61-40.13,0.46-53.76-1.94c-13.64-2.41-44.62-7.87-57.75,1.32
				c-13.12,9.19-42.18,18.77-55.09,14.99c-6.24-1.82-10.29-9.57-16.97-9.8c-6.85-0.24-13.74,6.38-22.27,5.46
				c-9.91-1.07-35.21-23.96-44.12-30.17c-11.5-8.01-8.68-23.55-6.53-35.59c1.5-8.33,1.15-12.61-1.39-20.8
				c-1.96-6.3,10.97-35.73,25.48-33.17c12.58,2.22,8.97-21.29,20.95-26.97c5.14-2.44,25-11.2,30.1-15.36
				c12.38-10.09,28.09-6.4,42.71-10.27c19.65-5.21,35.63-13.49,51.41-25.94c17.26-13.6,38.11-12.95,59.38-14.9
				c17.16-1.57,30.87-4.53,45.399,5.63c8.19,5.73,15.07,12.21,24.141,16.66c9,4.42,17.1,9.45,24.31,16.58
				c14.91,14.75,9.28,28.11,8.01,46.18C491.83,273.35,506.88,282.32,508.92,298.17z"/>
		</g>
		<g>
			<path style="fill:none;stroke:#000000;stroke-width:17.4114;" d="M252.41,388.69c-6.24-1.82-10.29-9.57-16.97-9.8
				c-6.85-0.24-13.74,6.38-22.27,5.46c-9.91-1.07-35.21-23.96-44.12-30.17c-11.5-8.01-8.68-23.55-6.53-35.59
				c1.5-8.33,1.15-12.61-1.39-20.8c-1.96-6.3,10.97-35.73,25.48-33.17c12.58,2.22,8.97-21.29,20.95-26.97
				c5.14-2.44,25-11.2,30.1-15.36c12.38-10.09,28.09-6.4,42.71-10.27c19.65-5.21,35.63-13.49,51.41-25.94
				c17.26-13.6,38.11-12.95,59.38-14.9c17.16-1.57,30.87-4.53,45.399,5.63c8.19,5.73,15.07,12.21,24.141,16.66
				c9,4.42,17.1,9.45,24.31,16.58c14.91,14.75,9.28,28.11,8.01,46.18c-1.189,17.12,13.86,26.09,15.9,41.94
				c1.99,15.37,13.6,15.83,9.48,39.23c-6.45,36.56-46.48,34.76-43.4,34.3c0,0-25.08-5.99-55.99,2.62
				c-30.92,8.61-40.13,0.46-53.76-1.94c-13.64-2.41-44.62-7.87-57.75,1.32C294.38,382.89,265.32,392.47,252.41,388.69z"/>
			<path style="fill:none;stroke:#000000;stroke-width:17.4114;" d="M217.64,266.24c10.39-5.3,22.19-7.37,27.45,6.85
				c3.69,9.97-2.11,13.6,10.87,16.26c9.16,1.87,27.85,8.05,34.79,22.03c3.11,6.27,0.27,14.11-4.72,21.55"/>
			<path style="fill:none;stroke:#000000;stroke-width:17.4114;" d="M409.5,338.86c10.79-25.97-21.33-34.39-16.04-49.42
				c3.51-9.95,8.15-19.26,17.68-17.58c16.669,2.94,27.5-21.21,19.74-34.89"/>
			<path style="fill:none;stroke:#000000;stroke-width:17.4114;" d="M445.54,401.6c-5.75,3.04-8.16,11.44-14.66,13.01
				c-6.66,1.61-14.75-3.48-22.91-0.87c-9.5,3.05-29.68,30.56-37.15,38.43c-9.65,10.16-3.77,24.82,0.77,36.17
				c3.13,7.88,3.66,12.141,2.81,20.67c-0.65,6.57,17.94,32.79,31.64,27.37c11.87-4.71,13.07,19.05,25.95,22.2
				c5.52,1.35,26.74,5.939,32.569,8.979c14.15,7.4,28.801,0.62,43.9,1.48c20.3,1.15,37.61,6.04,55.58,15.06
				c19.64,9.851,39.93,5.03,61.17,2.65c17.12-1.91,31.14-1.77,43.34-14.66c6.86-7.26,12.3-14.99,20.28-21.17
				c7.939-6.13,14.86-12.68,20.49-21.12c11.64-17.45,3.43-29.41-1.45-46.859c-4.61-16.521,8.33-28.341,7.14-44.28
				c-1.14-15.45,10.141-18.24,1.391-40.33c-13.67-34.52-52.521-24.7-49.42-24.87c0,0-23.36,10.91-55.37,8.71
				c-32.011-2.23-39.391,7.61-52.271,12.71c-12.87,5.1-42.12,16.68-56.83,10.32C487.81,398.84,457.41,395.31,445.54,401.6z"/>
			<path style="fill:none;stroke:#000000;stroke-width:17.4114;" d="M436.11,528.54c11.239,3.1,23.21,2.75,25.51-12.22
				c1.6-10.521-4.8-12.91,7.37-18.13c8.59-3.681,25.66-13.49,29.64-28.57c1.8-6.771-2.56-13.88-8.95-20.16"/>
			<path style="fill:none;stroke:#000000;stroke-width:17.4114;" d="M609.43,418.81c15.801,23.26-13.97,37.959-5.76,51.63
				c5.43,9.04,11.86,17.229,20.85,13.67c15.74-6.24,31.2,15.229,26.351,30.199"/>
			<path style="fill:none;stroke:#000000;stroke-width:17.4114;" d="M269.24,470.84c-6.08-2.3-13.97,1.47-19.45-2.37
				c-5.62-3.93-7.15-13.35-14.52-17.75c-8.56-5.1-42.54-2.01-53.39-2.399c-14.01-0.5-21.1,13.6-26.61,24.52
				c-3.82,7.57-6.66,10.78-13.62,15.79c-5.35,3.87-12.7,35.16,0.44,41.83c11.39,5.78-5.63,22.41,0.53,34.16
				c2.65,5.02,13.26,23.96,14.84,30.35c3.82,15.5,18.59,21.99,27.95,33.88c12.58,15.98,20.38,32.19,25.51,51.631
				c5.62,21.239,22.67,33.26,38.5,47.59c12.77,11.569,21.95,22.18,39.68,22.79c9.99,0.33,19.38-0.71,29.3,1.18
				c9.85,1.89,19.34,2.729,29.39,1.37c20.79-2.83,24.31-16.9,34.16-32.101c9.34-14.399,26.76-12.529,37.92-23.97
				c10.82-11.08,20.37-4.47,31.14-25.66c16.82-33.1-16.25-55.71-14.069-53.5c0,0-23.641-10.279-43.181-35.739
				c-19.54-25.45-31.79-24.48-44.14-30.75c-12.34-6.271-40.39-20.53-45.36-35.761C299.3,500.7,281.82,475.58,269.24,470.84z"/>
			<path style="fill:none;stroke:#000000;stroke-width:17.4114;" d="M167.86,547.81c5.12,10.48,13.31,19.221,26.06,11.03
				c8.94-5.76,6.49-12.149,18.46-6.479c8.45,4.01,27.09,10.31,41.04,3.31c6.26-3.13,8.7-11.11,9.18-20.06"/>
			<path style="fill:none;stroke:#000000;stroke-width:17.4114;" d="M364.85,605.07c-6.97,27.239-37.71,14.66-42.51,29.859
				c-3.18,10.061-5.06,20.29,3.56,24.681c15.09,7.67,9.23,33.47-5.19,39.75"/>
		</g>
	</g>
</g>
<g id="XMLID_1_">
	<g>
		<path style="fill:#FFFFFF;" d="M661.67,137.998c4.78,0,8.66,3.88,8.66,8.67c0,4.78-3.88,8.66-8.66,8.66
			c-4.79,0-8.67-3.88-8.67-8.66C653,141.878,656.88,137.998,661.67,137.998z"/>
		<path style="fill:#FFFFFF;" d="M646.33,183.998c0.67,6.95,4.16,20.63,0,26.67c-7.78,11.3-21.33,11.33-29.33,2
			c-8.09-9.44-0.03-27.6,4.67-37.34c-18.67,2-26-0.66-49.34-8.66c15.83-17.39,25.34-24,50.67-24.67c0,0-9.53-38.8-3.03-40.51
			c6.851-1.8,17.391,17.49,18.03,22.01c-1-9-3.5-38,2.5-43c9.5-5.5,14.86,27.73,15,33.5c1-10.5,11.79-44.55,21.5-44.5
			c10.79,0.06,2.98,29.51,2.6,44.21c7.24-14.56,19.091-42.92,30.78-38.69c9.62,3.48-2.439,23.77-7.88,36.48
			c10.14-11.95,30.39-32.11,40.5-22c4.5,4.5-18.5,33.5-28,42.5c22,35.73,34,81.33,31.33,115.33c-15.521,7.93-29.4,11.9-52.01,11.9
			c-21.021,0-29.351-0.4-50.37-13.49l-0.601-0.35C656.27,223.018,652.94,205.798,646.33,183.998z M670.33,146.668
			c0-4.79-3.88-8.67-8.66-8.67c-4.79,0-8.67,3.88-8.67,8.67c0,4.78,3.88,8.66,8.67,8.66
			C666.45,155.328,670.33,151.448,670.33,146.668z"/>
	</g>
	<g>
		<path style="fill:none;stroke:#000000;stroke-width:8;" d="M670.33,146.668c0,4.78-3.88,8.66-8.66,8.66
			c-4.79,0-8.67-3.88-8.67-8.66c0-4.79,3.88-8.67,8.67-8.67C666.45,137.998,670.33,141.878,670.33,146.668z"/>
		<path style="fill:none;stroke:#000000;stroke-width:8;" d="M580,166.498c24.5-6.5,31.09-5.83,41.67-5.83"/>
		<path style="fill:none;stroke:#000000;stroke-width:13;" d="M643,245.998c0.12-0.2,0.24-0.41,0.35-0.61
			c12.92-22.37,9.591-39.59,2.98-61.39c0.67,6.95,4.16,20.63,0,26.67c-7.78,11.3-21.33,11.33-29.33,2
			c-8.09-9.44-0.03-27.6,4.67-37.34c-18.67,2-26-0.66-49.34-8.66c15.83-17.39,25.34-24,50.67-24.67c0,0-9.53-38.8-3.03-40.51
			c6.851-1.8,17.391,17.49,18.03,22.01c-1-9-3.5-38,2.5-43c9.5-5.5,14.86,27.73,15,33.5c1-10.5,11.79-44.55,21.5-44.5
			c10.79,0.06,2.98,29.51,2.6,44.21c7.24-14.56,19.091-42.92,30.78-38.69c9.62,3.48-2.439,23.77-7.88,36.48
			c10.14-11.95,30.39-32.11,40.5-22c4.5,4.5-18.5,33.5-28,42.5c22,35.73,34,81.33,31.33,115.33"/>
	</g>
</g>
<rect style="fill:none;" width="850.394" height="850.394"/>
</svg>
