<svg xmlns="http://www.w3.org/2000/svg" width="850.394" height="850.394" viewBox="0 0 850.394 850.394" overflow="visible"><path d="M358.19 341.44c8.97 14.07 17.42 27.33 24.86 38.99l-.51.33s-38.03 7.95-69.61-9.61c-11.73-6.52-24.38.3-24.38.3s12.47-21.19 2.03-33.28c-11.08-12.83-14.24-7.34-38.89-8.18 0 0 19.69-21.51 4.26-47.63l.65.69c-5.9-9.87-25.1-16.97-25.1-16.97s15.99-11.42 12.9-25.11c-3.27-14.51-7.36-11.53-24.21-22.24 0 0 19.63-.49 19.45-19.76-.01-1.34-.09-2.4-1.23-4.53l3.01-.43c2.02 1.55 27.66 21.59 57.98 59.86a476.267 476.267 0 0 1 28.23 39.66c10.38 16.28 20.78 32.58 30.56 47.91z" fill="#33a048"/><path d="M237.53 188.49c2.5 1.07 6.95 2.67 9.22 3.29 18.59 5.03 24.02-13.83 24.02-13.83 6.12 19.01 2.2 22.21 15.41 29.04 12.47 6.44 27.55-6.14 27.55-6.14s1.01 10.11 4.43 18.95c-4.09 3.94-18.27 18.72-18.76 34.07-30.32-38.27-55.96-58.31-57.98-59.86l-3.01.43c-.75-1.4-1.96-3.26-3.93-5.98l3.05.03z" fill="#33a048"/><path d="M384.71 380.72l-1.05.67c-.21-.32-.41-.64-.61-.96-7.44-11.66-15.89-24.92-24.86-38.99-9.78-15.33-20.18-31.63-30.56-47.91a476.267 476.267 0 0 0-28.23-39.66c.49-15.35 14.67-30.13 18.76-34.07 1.43 3.71 3.28 7.2 5.66 9.62l-.5-.81c21.37 21.53 47.15 7.9 47.15 7.9-5.41 24.07-11.51 25.74-1.9 39.7 9.06 13.16 32.72 6.44 32.72 6.44s-9.8 10.52-6.45 23.52c9.01 34.99-10.13 74.55-10.13 74.55zM551.52 260.62c30.311-38.26 55.961-58.31 57.98-59.86h3.25c-1.37 2.42-1.47 3.54-1.48 4.97-.18 19.26 19.45 19.75 19.45 19.75-16.85 10.72-20.939 7.74-24.21 22.25-3.09 13.69 12.91 25.1 12.91 25.1s-19.2 7.11-25.1 16.97l.649-.68c-15.43 26.11 4.25 47.62 4.25 47.62-24.64.84-27.8-4.64-38.88 8.18-10.45 12.1 2.021 33.29 2.021 33.29s-12.641-6.83-24.37-.31c-31.59 17.57-69.62 9.61-69.62 9.61l-.5-.32c7.439-11.66 15.89-24.91 24.86-38.99 9.779-15.33 20.17-31.63 30.56-47.92 9.49-14.88 19.07-28.1 28.23-39.66z" fill="#33a048"/><path d="M604.16 198.53c2.77-.75 8.76-2.97 10.55-3.9l.92-.86 2.03-.24c-2.47 3.35-3.98 5.59-4.91 7.23h-3.25c-2.02 1.55-27.67 21.6-57.98 59.86-.5-15.33-14.659-30.09-18.76-34.05 3.42-8.85 4.42-18.97 4.42-18.97s15.09 12.58 27.561 6.15c13.21-6.84 9.29-10.04 15.41-29.05-.001 0 5.429 18.86 24.009 13.83z" fill="#33a048"/><path d="M523.29 300.28c-10.39 16.29-20.78 32.59-30.56 47.92-8.971 14.08-17.421 27.33-24.86 38.99-.2.32-.4.63-.61.95l-1.05-.67s-19.15-39.56-10.13-74.55c3.35-12.99-6.45-23.51-6.45-23.51s23.66 6.72 32.72-6.45c9.61-13.96 3.511-15.63-1.909-39.69 0 0 25.79 13.62 47.159-7.9l-.5.8c2.381-2.42 4.23-5.9 5.66-9.6 4.101 3.96 18.26 18.72 18.76 34.05a476.267 476.267 0 0 0-28.23 39.66z" fill="#33a048"/><path d="M777.49 422.18l-.05 111.669c0 110.931-160.881 200.841-354.4 200.841-193.51 0-353.08-89.91-353.08-200.841V422.18c0 110.93 159.57 200.839 353.08 200.839 193.52 0 354.4-89.909 354.4-200.839h.05z" fill="#fff"/><path d="M777.55 307.42l-.06 114.76h-.05c0 110.93-160.881 200.839-354.4 200.839-193.51 0-353.08-89.909-353.08-200.839V312.13l.71-.14c16.47 88.97 168.26 158.67 353.08 158.67 187.97 0 341.77-72.09 353.8-163.24z" fill="#fff"/><path d="M777.55 307.42c-12.03 91.15-165.83 163.24-353.8 163.24-184.82 0-336.61-69.7-353.08-158.67a88.26 88.26 0 0 1-1.48-16.08c0-96.51 158.74-174.75 354.56-174.75s354.56 78.24 354.56 174.75c0 3.87-.26 7.71-.76 11.51zM461.88 397.2c.53-.84.96-1.72 1.28-2.62.02-.01.02-.02.02-.03 2.311-6.26.011-13.5-5.88-17.18-6.74-4.2-15.62-2.15-19.83 4.59-4.2 6.74-2.149 15.62 4.59 19.82 5.801 3.63 13.2 2.61 17.82-2.06.74-.74 1.42-1.58 2-2.52zm20.36-5.42c-6.74-4.21-15.62-2.16-19.84 4.58-4.2 6.74-2.15 15.62 4.6 19.83 6.74 4.21 15.61 2.15 19.82-4.59 4.21-6.74 2.16-15.61-4.58-19.82zm132.47-197.15c-1.79.93-7.78 3.15-10.55 3.9-18.58 5.03-24.01-13.83-24.01-13.83-6.12 19.01-2.2 22.21-15.41 29.05-12.471 6.43-27.561-6.15-27.561-6.15s-1 10.12-4.42 18.97c-1.43 3.7-3.279 7.18-5.66 9.6l.5-.8c-21.369 21.52-47.159 7.9-47.159 7.9 5.42 24.06 11.52 25.73 1.909 39.69-9.06 13.17-32.72 6.45-32.72 6.45s9.8 10.52 6.45 23.51c-9.021 34.99 10.13 74.55 10.13 74.55l1.05.67c.21-.32.41-.63.61-.95l.5.32s38.03 7.96 69.62-9.61c11.729-6.52 24.37.31 24.37.31s-12.471-21.19-2.021-33.29c11.08-12.82 14.24-7.34 38.88-8.18 0 0-19.68-21.51-4.25-47.62l-.649.68c5.899-9.86 25.1-16.97 25.1-16.97s-16-11.41-12.91-25.1c3.271-14.51 7.36-11.53 24.21-22.25 0 0-19.63-.49-19.45-19.75.011-1.43.11-2.55 1.48-4.97.93-1.64 2.44-3.88 4.91-7.23l5.04-.61 14.1-19.42-34.1 21.83 12.93-1.56-.919.86zm-230 186.09s19.14-39.56 10.13-74.55c-3.35-13 6.45-23.52 6.45-23.52s-23.66 6.72-32.72-6.44c-9.61-13.96-3.51-15.63 1.9-39.7 0 0-25.78 13.63-47.15-7.9l.5.81c-2.38-2.42-4.23-5.91-5.66-9.62-3.42-8.84-4.43-18.95-4.43-18.95s-15.08 12.58-27.55 6.14c-13.21-6.83-9.29-10.03-15.41-29.04 0 0-5.43 18.86-24.02 13.83-2.27-.62-6.72-2.22-9.22-3.29l10.69.09-34.11-21.83 16.04 21.67 4.33.04c1.97 2.72 3.18 4.58 3.93 5.98 1.14 2.13 1.22 3.19 1.23 4.53.18 19.27-19.45 19.76-19.45 19.76 16.85 10.71 20.94 7.73 24.21 22.24 3.09 13.69-12.9 25.11-12.9 25.11s19.2 7.1 25.1 16.97l-.65-.69c15.43 26.12-4.26 47.63-4.26 47.63 24.65.84 27.81-4.65 38.89 8.18 10.44 12.09-2.03 33.28-2.03 33.28s12.65-6.82 24.38-.3c31.58 17.56 69.61 9.61 69.61 9.61l.51-.33c.2.32.4.64.61.96l1.05-.67zm-.79 28.71c6.74-4.2 8.79-13.08 4.59-19.82-4.21-6.74-13.09-8.79-19.83-4.58-6.74 4.21-8.79 13.08-4.58 19.82 4.21 6.74 13.08 8.79 19.82 4.58zm3.8-21.67c.33.92.77 1.82 1.31 2.69.59.94 1.27 1.79 2.02 2.54 4.63 4.65 12.01 5.66 17.81 2.04 6.74-4.21 8.79-13.08 4.58-19.82-4.21-6.75-13.08-8.8-19.82-4.59-5.87 3.67-8.19 10.89-5.9 17.14z" fill="#fff"/><path d="M621.92 187.89l-6.29 5.88-12.93 1.56 34.1-21.83-14.1 19.42-5.04.61c1.19-1.61 2.59-3.47 4.26-5.64z" fill="#231f20"/><path d="M615.63 193.77l6.29-5.88c-1.67 2.17-3.07 4.03-4.26 5.64l-2.03.24z" fill="#231f20"/><path d="M482.24 391.78c6.74 4.21 8.79 13.08 4.58 19.82-4.21 6.74-13.08 8.8-19.82 4.59-6.75-4.21-8.8-13.09-4.6-19.83 4.22-6.74 13.1-8.79 19.84-4.58zM457.3 377.37c5.891 3.68 8.19 10.92 5.88 17.18 0 .01 0 .02-.02.03-1.12 1.76-2.22 3.48-3.28 5.14-4.62 4.67-12.02 5.69-17.82 2.06-6.739-4.2-8.79-13.08-4.59-19.82 4.21-6.74 13.09-8.79 19.83-4.59z" fill="#ed1d31"/><path d="M459.88 399.72c1.061-1.66 2.16-3.38 3.28-5.14-.32.9-.75 1.78-1.28 2.62-.58.94-1.26 1.78-2 2.52z" fill="#fff"/><path d="M413.44 375.21c4.21 6.74 2.16 15.61-4.58 19.82-5.8 3.62-13.18 2.61-17.81-2.04-1.08-1.69-2.19-3.44-3.33-5.23-2.29-6.25.03-13.47 5.9-17.14 6.74-4.21 15.61-2.16 19.82 4.59zM388.51 389.61c4.2 6.74 2.15 15.62-4.59 19.82-6.74 4.21-15.61 2.16-19.82-4.58-4.21-6.74-2.16-15.61 4.58-19.82 6.74-4.21 15.62-2.16 19.83 4.58z" fill="#ed1d31"/><path d="M387.72 387.76c1.14 1.79 2.25 3.54 3.33 5.23-.75-.75-1.43-1.6-2.02-2.54a14.2 14.2 0 0 1-1.31-2.69z" fill="#fff"/><path d="M237.53 188.49l-3.05-.03c-1.4-1.95-3.2-4.34-5.49-7.32l7.22 6.73c.32.17.77.38 1.32.62z" fill="#231f20"/><path d="M230.15 188.42l-16.04-21.67 34.11 21.83-10.69-.09c-.55-.24-1-.45-1.32-.62l-7.22-6.73c2.29 2.98 4.09 5.37 5.49 7.32l-4.33-.04z" fill="#231f20"/><g fill="none" stroke="#231f20"><path d="M70.67 311.99a88.26 88.26 0 0 1-1.48-16.08c0-96.51 158.74-174.75 354.56-174.75s354.56 78.24 354.56 174.75c0 3.87-.26 7.71-.76 11.51-12.03 91.15-165.83 163.24-353.8 163.24-184.82 0-336.61-69.7-353.08-158.67z" stroke-width="21"/><path d="M69.96 424v111.68-1.83c0 110.931 159.57 200.841 353.08 200.841 193.52 0 354.4-89.91 354.4-200.841l.05-111.669.06-114.76v-.96M69.96 312.13v110.05" stroke-width="21"/><path d="M69.96 424v-1.82c0 110.93 159.57 200.839 353.08 200.839 193.52 0 354.4-89.909 354.4-200.839" stroke-width="21"/><path d="M391.05 392.99c12.91 20.25 21.21 33.26 21.21 33.26M241.29 193.91l.13.1c2.02 1.55 27.66 21.59 57.98 59.86a476.267 476.267 0 0 1 28.23 39.66c10.38 16.28 20.78 32.58 30.56 47.91 8.97 14.07 17.42 27.33 24.86 38.99.2.32.4.64.61.96l4.06 6.37" stroke-width="14"/><path d="M234.48 188.46c1.97 2.72 3.18 4.58 3.93 5.98 1.14 2.13 1.22 3.19 1.23 4.53.18 19.27-19.45 19.76-19.45 19.76 16.85 10.71 20.94 7.73 24.21 22.24 3.09 13.69-12.9 25.11-12.9 25.11s19.2 7.1 25.1 16.97l-.65-.69c15.43 26.12-4.26 47.63-4.26 47.63 24.65.84 27.81-4.65 38.89 8.18 10.44 12.09-2.03 33.28-2.03 33.28s12.65-6.82 24.38-.3c31.58 17.56 69.61 9.61 69.61 9.61M384.71 380.72s19.14-39.56 10.13-74.55c-3.35-13 6.45-23.52 6.45-23.52s-23.66 6.72-32.72-6.44c-9.61-13.96-3.51-15.63 1.9-39.7 0 0-25.78 13.63-47.15-7.9l.5.81c-2.38-2.42-4.23-5.91-5.66-9.62-3.42-8.84-4.43-18.95-4.43-18.95s-15.08 12.58-27.55 6.14c-13.21-6.83-9.29-10.03-15.41-29.04 0 0-5.43 18.86-24.02 13.83-2.27-.62-6.72-2.22-9.22-3.29M247.19 262.6s31.82-14.6 50.91-8.39M275.96 305.93s30.93-16.41 50.34-11.31" stroke-width="14"/><path d="M307.75 351.13s31.23-14.33 50.36-8.55c.18.05.36.1.54.16M319.25 218.77s-.4.36-1.09 1.03c-4.09 3.94-18.27 18.72-18.76 34.07-.01.24-.02.47-.02.71M350.65 259.87s-20.98 16.01-22.02 33.89" stroke-width="14"/><path d="M377.96 307.87s-18.2 16.2-19.77 33.57c-.04.38-.07.76-.08 1.14-.03.37-.04.74-.04 1.11M388.51 389.61c4.2 6.74 2.15 15.62-4.59 19.82-6.74 4.21-15.61 2.16-19.82-4.58-4.21-6.74-2.16-15.61 4.58-19.82 6.74-4.21 15.62-2.16 19.83 4.58z" stroke-width="14"/><path d="M387.72 387.76c-2.29-6.25.03-13.47 5.9-17.14 6.74-4.21 15.61-2.16 19.82 4.59 4.21 6.74 2.16 15.61-4.58 19.82-5.8 3.62-13.18 2.61-17.81-2.04-.75-.75-1.43-1.6-2.02-2.54a14.2 14.2 0 0 1-1.31-2.69z" stroke-width="14"/><path stroke-width="6.754" d="M234.48 188.46l-4.33-.04-16.04-21.67 34.11 21.83-10.69-.09z"/><path d="M459.88 399.72C446.96 419.98 438.66 433 438.66 433M609.63 200.66l-.13.1c-2.02 1.55-27.67 21.6-57.98 59.86a476.503 476.503 0 0 0-28.229 39.66c-10.39 16.29-20.78 32.59-30.56 47.92-8.971 14.08-17.421 27.33-24.86 38.99-.2.32-.4.63-.61.95-1.39 2.2-2.76 4.33-4.08 6.41" stroke-width="14"/><path d="M617.66 193.53c-2.47 3.35-3.98 5.59-4.91 7.23-1.37 2.42-1.47 3.54-1.48 4.97-.18 19.26 19.45 19.75 19.45 19.75-16.85 10.72-20.939 7.74-24.21 22.25-3.09 13.69 12.91 25.1 12.91 25.1s-19.2 7.11-25.1 16.97l.649-.68c-15.43 26.11 4.25 47.62 4.25 47.62-24.64.84-27.8-4.64-38.88 8.18-10.45 12.1 2.021 33.29 2.021 33.29s-12.641-6.83-24.37-.31c-31.59 17.57-69.62 9.61-69.62 9.61M466.21 387.47s-19.15-39.56-10.13-74.55c3.35-12.99-6.45-23.51-6.45-23.51s23.66 6.72 32.72-6.45c9.61-13.96 3.511-15.63-1.909-39.69 0 0 25.79 13.62 47.159-7.9l-.5.8c2.381-2.42 4.23-5.9 5.66-9.6 3.42-8.85 4.42-18.97 4.42-18.97s15.09 12.58 27.561 6.15c13.21-6.84 9.29-10.04 15.41-29.05 0 0 5.43 18.86 24.01 13.83 2.77-.75 8.76-2.97 10.55-3.9l.92-.86M603.72 269.36s-31.81-14.61-50.91-8.4M574.95 312.68s-30.931-16.41-50.34-11.3" stroke-width="14"/><path d="M543.17 357.89s-31.22-14.33-50.36-8.55c-.189.04-.369.1-.55.16M531.66 225.53s.41.36 1.1 1.04c4.101 3.96 18.26 18.72 18.76 34.05.011.24.021.48.021.72M500.26 266.62s20.99 16.01 22.021 33.89" stroke-width="14"/><path d="M472.96 314.63s18.2 16.21 19.771 33.57c.039.38.06.76.079 1.14.021.37.03.73.03 1.1M462.4 396.36c-4.2 6.74-2.15 15.62 4.6 19.83 6.74 4.21 15.61 2.15 19.82-4.59 4.21-6.74 2.16-15.61-4.58-19.82-6.74-4.21-15.62-2.16-19.84 4.58z" stroke-width="14"/><path d="M463.18 394.55c2.311-6.26.011-13.5-5.88-17.18-6.74-4.2-15.62-2.15-19.83 4.59-4.2 6.74-2.149 15.62 4.59 19.82 5.801 3.63 13.2 2.61 17.82-2.06.74-.74 1.42-1.58 2-2.52.53-.84.96-1.72 1.28-2.62.02-.01.02-.02.02-.03z" stroke-width="14"/><path stroke-width="6.754" d="M617.66 193.53l5.04-.61 14.1-19.42-34.1 21.83 12.93-1.56z"/></g><path fill="none" d="M0 0h850.394v850.394H0z"/></svg>