<svg xmlns="http://www.w3.org/2000/svg" width="850.394" height="850.394" viewBox="0 0 850.394 850.394" overflow="visible"><path d="M346.88 171.67c-12.83-9.73-26.48-20.09-40.12-30.43a422.169 422.169 0 0 0-35.64-24.28c-4.3-12.89 2.92-29.51 5.12-34.06 2.32 2.64 4.93 4.96 7.65 6.24l-.66-.52c24.37 11.33 41.61-7.91 41.61-7.91 2.89 21.65-1.66 24.91 10.61 33.56 11.39 8.03 28.6-4.29 29.15-4.69-.17.42-4.76 11.92 1.88 21.51.4.58.8 1.17 1.18 1.77 16.9 26.24 13.32 63.29 13.32 63.29l-.66.87c-.27-.19-.54-.4-.81-.61-9.76-7.39-20.85-15.81-32.63-24.74z" fill="#33a048"/><path d="M271.12 116.96a422.169 422.169 0 0 1 35.64 24.28c13.64 10.34 27.29 20.7 40.12 30.43 11.78 8.93 22.87 17.35 32.63 24.74l-.32.43s-29.16 18.3-60.79 13.41c-11.75-1.81-20.17 7.74-20.17 7.74s3.86-21.44-8.54-28.28c-13.15-7.25-14.08-1.72-34.82 5.15 0 0 5.84-14.32-1.19-28.66-2.05-4.19-5.2-8.38-9.91-12.21l.75.37c-7.94-6.39-26.07-6.39-26.07-6.39s9.78-14.4 3.01-24.83c-7.17-11.05-9.66-7.31-26.95-11.04 0 0 16.16-6.44 10.09-22.39-.91-2.37-1.66-3.58-14.33-11.54l8.06 3.37c1.09.14 3.65.2 6.05.16l.02 3.29s28.21 8.55 66.72 31.97z" fill="#33a048"/><path d="M266.74 68.5s3.94 8.1 9.5 14.4c-2.2 4.55-9.42 21.17-5.12 34.06-38.51-23.42-66.72-31.97-66.72-31.97l-.02-3.29c1.5-.02 2.94-.06 3.91-.15C225.28 80.01 224 62.67 224 62.67c10.92 13.92 8.65 17.79 21.73 19.4 12.34 1.52 21.01-13.57 21.01-13.57zM645 82.23l-.02 3.29s-28.211 8.54-66.721 31.97c4.3-12.89-2.92-29.51-5.12-34.07 5.561-6.3 9.5-14.4 9.5-14.4s8.67 15.1 21.011 13.58c13.08-1.62 10.81-5.48 21.739-19.4 0 0-1.29 17.34 15.7 18.87.981.08 2.411.14 3.911.16z" fill="#33a048"/><path d="M578.26 117.49c38.51-23.43 66.721-31.97 66.721-31.97l.02-3.29c2.4.04 4.96-.02 6.05-.16l8.07-3.38c-12.68 7.97-13.43 9.18-14.34 11.54-6.07 15.96 10.09 22.39 10.09 22.39-17.29 3.73-19.771 0-26.95 11.05-6.78 10.43 3.021 24.83 3.021 24.83s-18.141 0-26.07 6.38l.74-.37c-4.04 3.29-6.931 6.83-8.96 10.41-8.48 14.92-2.131 30.47-2.131 30.47-20.739-6.88-21.68-12.4-34.829-5.15-12.4 6.84-8.54 28.28-8.54 28.28s-8.41-9.56-20.16-7.74c-31.641 4.89-60.8-13.41-60.8-13.41l-.32-.42c9.76-7.4 20.86-15.82 32.64-24.75 12.83-9.74 26.48-20.09 40.11-30.43a421.833 421.833 0 0 1 35.638-24.28z" fill="#33a048"/><path d="M502.51 172.2c-11.779 8.93-22.88 17.35-32.64 24.75-.271.21-.54.41-.8.61l-.67-.89s-3.71-38.47 14.3-64.76l.2-.29c6.64-9.59 2.05-21.09 1.88-21.51.55.4 17.76 12.71 29.149 4.68 12.271-8.64 7.721-11.9 10.62-33.56 0 0 17.23 19.24 41.601 7.92l-.66.52c2.72-1.28 5.33-3.61 7.649-6.25 2.2 4.56 9.42 21.18 5.12 34.07a422.169 422.169 0 0 0-35.64 24.28c-13.629 10.34-27.279 20.69-40.109 30.43z" fill="#33a048"/><path d="M697.7 322.82c41.33 95.94 86.35 325.64 70.819 355.43C735.74 741.21 560.87 786.78 425.78 782.84l-1.6.09c-135.08 3.93-310.83-41.97-343.62-104.92-15.51-29.8 29.5-259.49 70.83-355.43 32.96-76.51 70.01-120.54 77.26-128.76-.8 2.66-1.2 5.36-1.2 8.1 0 4.08.9 8.09 2.64 11.99-26.59 37.45-37.26 66-49.85 124.08-9.33 43.06-8.62 86.81-6.86 132.33.27 6.91 2.14 20.21 4.38 26.97 6.41 19.4 30.02 18.74 37.24 2.35 7.49-17.029 10.49-32.13 14.42-53.779 9.42-51.8 27.74-112.84 77.89-109.081 45.64 3.43 70.15 72.81 80.39 108.01 7.09 24.38 15.99 48.14 29.9 69.56 12.01 18.471 36.58 52.57 60.59 40.36 14.819-7.53 18.159-21.04 13.409-36.85-2.72-9.061-9.93-16.08-12.54-25.49-2.75-9.97-4.72-22.13-5.239-32.43-.65-12.811 2.18-24.181 5.63-36.391 6.72-23.8 25.43-52.14 50.49-60.31 27.09-8.83 50.35-.83 75.739 8.41 18.88 6.87 47.41 22.03 58.9-4.73 4.07-9.48 10.7-49.25 8.21-95.82l.01-.01c8.131 15.181 16.591 32.441 24.901 51.731zm18.07 306.49c.181-1.52-1.279-3.149-1.42-4.699-.119-1.17.16-1.551-.6-2.92-.7-1.261-1.66-2.641-2.7-3.761-.819-.88-1.8-1.55-2.58-2.46-.689-.8-.939-1.43-1.37-2.279-.909-1.75-2.21-2.261-3.29-3.79-.72-1.03-1.02-2.04-2.229-2.681-1.09-.569-1.24-1.149-2.33-1.62-1.91-.81-3.23-.04-3.23-.04-.42.521-1.89 1.311-1.88 1.82.03.76-.17 1.101-.489 1.63-.631 1.05-.46 2.92.649 4.58.46.68 1.15 1.08 1.66 1.75.6.78.69 1.48 1 2.3.69 1.801 1.87 3.851 3.58 5.07.88.63 1.07.62 1.72 1.43.57.73.98 1.601 1.57 2.32 1.32 1.66 3.33 3.72 5.13 4.6 1.3.65 2.18.101 3.29.19 1.689.13 3.289.39 3.519-1.44zm-93.86-117.97c1.109-1.66 1.28-3.54.649-4.59-.319-.53-.52-.86-.5-1.62.021-.51-1.46-1.31-1.869-1.82 0 0-1.32-.779-3.23.04-1.09.471-1.24 1.051-2.33 1.62-1.22.641-1.51 1.641-2.24 2.67-1.069 1.53-2.38 2.051-3.279 3.801-.431.85-.69 1.479-1.37 2.27-.78.92-1.771 1.59-2.59 2.47-1.03 1.11-2 2.5-2.69 3.761-.77 1.369-.479 1.75-.6 2.92-.141 1.54-1.601 3.18-1.431 4.689.23 1.83 1.84 1.58 3.53 1.44 1.11-.08 1.98.46 3.28-.181 1.8-.89 3.81-2.949 5.14-4.609.58-.72 1-1.59 1.57-2.311.64-.81.83-.81 1.72-1.43 1.71-1.229 2.89-3.27 3.58-5.07.31-.819.4-1.52 1-2.31.5-.66 1.2-1.06 1.66-1.74zm-71.05 178.41c1.109-1.66 1.279-3.54.649-4.59-.319-.53-.52-.86-.5-1.62.03-.521-1.46-1.31-1.859-1.82 0 0-1.33-.779-3.23.04-1.09.471-1.25 1.05-2.34 1.62-1.21.64-1.5 1.64-2.23 2.67-1.08 1.53-2.39 2.05-3.29 3.8-.43.841-.689 1.471-1.359 2.271-.79.92-1.771 1.59-2.59 2.47-1.04 1.11-2 2.5-2.7 3.76-.76 1.37-.48 1.75-.601 2.92-.14 1.54-1.6 3.181-1.42 4.69.221 1.83 1.841 1.58 3.53 1.44 1.1-.08 1.98.46 3.28-.181 1.8-.89 3.81-2.95 5.14-4.609.58-.721 1-1.591 1.57-2.311.63-.81.83-.81 1.71-1.43 1.71-1.23 2.899-3.271 3.58-5.07.319-.819.41-1.52 1.01-2.31.5-.67 1.2-1.07 1.65-1.74zm-111.44-70.23c.18-1.52-1.28-3.149-1.43-4.699-.11-1.17.17-1.551-.59-2.92a20.46 20.46 0 0 0-2.7-3.761c-.83-.88-1.8-1.55-2.59-2.46-.681-.8-.94-1.43-1.37-2.279-.9-1.75-2.21-2.261-3.28-3.79-.729-1.03-1.03-2.04-2.23-2.681-1.1-.569-1.25-1.149-2.34-1.62-1.91-.81-3.23-.04-3.23-.04-.41.521-1.89 1.311-1.87 1.82.03.76-.17 1.09-.5 1.62-.63 1.06-.46 2.93.65 4.59.46.681 1.16 1.08 1.66 1.75.6.78.69 1.48 1 2.3.69 1.801 1.87 3.851 3.58 5.07.88.63 1.08.62 1.72 1.43.57.73.99 1.601 1.57 2.32 1.32 1.66 3.34 3.72 5.141 4.6 1.3.65 2.18.101 3.279.19 1.69.13 3.3.39 3.53-1.44zM335 731.78c.18-1.521-1.28-3.15-1.42-4.7-.12-1.17.16-1.55-.59-2.92-.71-1.26-1.67-2.641-2.71-3.76-.82-.881-1.8-1.551-2.58-2.46-.69-.801-.94-1.431-1.37-2.28-.9-1.75-2.21-2.271-3.28-3.79-.73-1.03-1.03-2.04-2.24-2.68-1.09-.57-1.24-1.15-2.33-1.62-1.91-.82-3.23-.04-3.23-.04-.41.52-1.89 1.31-1.87 1.819.02.761-.17 1.091-.5 1.62-.63 1.061-.46 2.931.65 4.59.46.681 1.15 1.08 1.65 1.75.61.78.7 1.48 1.01 2.301.68 1.8 1.87 3.84 3.58 5.069.88.63 1.08.62 1.72 1.431.57.72.99 1.59 1.57 2.319 1.32 1.66 3.34 3.721 5.13 4.601 1.31.64 2.18.1 3.29.18 1.69.14 3.3.4 3.52-1.43zM288.18 561.7c.18-1.521-1.28-3.15-1.42-4.7-.12-1.17.16-1.55-.59-2.92-.71-1.26-1.67-2.64-2.7-3.76-.83-.88-1.81-1.551-2.59-2.46-.68-.801-.94-1.431-1.37-2.28-.9-1.75-2.21-2.26-3.28-3.79-.73-1.03-1.03-2.04-2.24-2.68-1.09-.57-1.24-1.15-2.33-1.62-1.91-.811-3.23-.04-3.23-.04-.41.52-1.89 1.31-1.87 1.819.03.761-.17 1.101-.5 1.631-.63 1.05-.46 2.92.65 4.58.46.68 1.16 1.079 1.65 1.75.61.779.7 1.479 1.01 2.3.69 1.8 1.87 3.85 3.58 5.069.88.631 1.08.62 1.72 1.431.57.729.99 1.59 1.57 2.319 1.32 1.66 3.34 3.721 5.14 4.601 1.3.649 2.17.1 3.28.18 1.69.14 3.3.4 3.52-1.43zm-118.09 77.21c1.12-1.66 1.29-3.54.65-4.59-.32-.53-.52-.86-.49-1.62.01-.521-1.46-1.311-1.87-1.82 0 0-1.32-.78-3.23.03-1.09.47-1.24 1.06-2.34 1.63-1.21.63-1.51 1.64-2.23 2.67-1.08 1.53-2.38 2.04-3.28 3.8-.43.84-.69 1.471-1.37 2.271-.79.92-1.76 1.58-2.59 2.47-1.04 1.11-2 2.5-2.7 3.76-.76 1.36-.48 1.75-.59 2.92-.15 1.54-1.61 3.181-1.43 4.69.23 1.83 1.84 1.58 3.53 1.439 1.1-.09 1.98.46 3.28-.189 1.8-.88 3.81-2.94 5.14-4.601.58-.72 1-1.59 1.56-2.31.65-.82.84-.81 1.72-1.43 1.72-1.23 2.9-3.28 3.58-5.07.32-.83.41-1.53 1.01-2.31.5-.67 1.2-1.07 1.65-1.74z" fill="#9e5c26"/><path d="M463.7 201.64c3.85-4.49 4.17-11.23.41-16.1-4.311-5.56-12.311-6.59-17.891-2.27-5.569 4.3-6.6 12.31-2.279 17.88 3.699 4.78 10.119 6.21 15.39 3.79a12.78 12.78 0 0 0 4.37-3.3zm-83.38-4.62l.66-.87s3.58-37.05-13.32-63.29l3.42-1.54c17.49-1.86 35.97-2.85 55.07-2.85 19.38 0 38.1 1.03 55.8 2.94l.75.5c-18.01 26.29-14.3 64.76-14.3 64.76l.67.89c.26-.2.529-.4.8-.61l.32.42s29.159 18.3 60.8 13.41c11.75-1.82 20.16 7.74 20.16 7.74s-3.86-21.44 8.54-28.28c13.149-7.25 14.09-1.73 34.829 5.15 0 0-6.35-15.55 2.131-30.47l1.56.24c14.021 8.95 23.08 19.09 25.78 29.92a27.8 27.8 0 0 1 .859 6.84c0 40.56-88.96 73.44-198.699 73.44-98.69 0-180.57-26.59-196.061-61.45-1.74-3.9-2.64-7.91-2.64-11.99 0-2.74.4-5.44 1.2-8.1 2.76-9.32 10.24-18.11 21.52-26.04l3.51-1.58c7.03 14.34 1.19 28.66 1.19 28.66 20.74-6.87 21.67-12.4 34.82-5.15 12.4 6.84 8.54 28.28 8.54 28.28s8.42-9.55 20.17-7.74c31.63 4.89 60.79-13.41 60.79-13.41l.32-.43c.271.21.541.42.811.61zm9.74 7.39c5.26 2.42 11.69.99 15.38-3.79 4.32-5.57 3.29-13.58-2.28-17.88-5.57-4.31-13.57-3.29-17.88 2.28-3.77 4.87-3.45 11.61.41 16.09a12.3 12.3 0 0 0 1.88 1.79c.79.61 1.62 1.12 2.49 1.51zm88.06 18.65c5.57-4.31 6.59-12.31 2.28-17.88-4.311-5.57-12.311-6.59-17.891-2.29-5.55 4.31-6.58 12.32-2.279 17.89 4.31 5.55 12.31 6.59 17.89 2.28zm-88.97-2.81c4.3-5.57 3.27-13.57-2.27-17.89-5.58-4.3-13.59-3.28-17.9 2.29-4.31 5.57-3.28 13.57 2.29 17.88 5.57 4.31 13.58 3.28 17.88-2.28z" fill="#ffffc2"/><path d="M672.79 271.1c2.49 46.57-4.14 86.34-8.21 95.82-11.49 26.76-40.021 11.6-58.9 4.73-25.39-9.24-48.649-17.24-75.739-8.41-25.061 8.17-43.771 36.51-50.49 60.31-3.45 12.21-6.28 23.58-5.63 36.391.52 10.3 2.489 22.46 5.239 32.43 2.61 9.41 9.82 16.43 12.54 25.49 4.75 15.81 1.41 29.319-13.409 36.85-24.011 12.21-48.58-21.89-60.59-40.36-13.91-21.42-22.81-45.18-29.9-69.56-10.24-35.2-34.75-104.58-80.39-108.01-50.15-3.76-68.47 57.28-77.89 109.081-3.93 21.649-6.93 36.75-14.42 53.779-7.22 16.391-30.83 17.051-37.24-2.35-2.24-6.76-4.11-20.06-4.38-26.97-1.76-45.521-2.47-89.271 6.86-132.33 12.59-58.08 23.26-86.63 49.85-124.08 15.49 34.86 97.37 61.45 196.061 61.45 109.739 0 198.699-32.88 198.699-73.44 0-2.31-.29-4.59-.859-6.84 7.02 8.75 26.649 34.58 48.81 76.01l-.012.009z" fill="#ffffc2"/><path d="M480.4 205.18c4.31 5.57 3.29 13.57-2.28 17.88-5.58 4.31-13.58 3.27-17.89-2.28-4.301-5.57-3.271-13.58 2.279-17.89 5.581-4.3 13.581-3.28 17.891 2.29zM464.11 185.54c3.76 4.87 3.439 11.61-.41 16.1-1.5 1.13-2.96 2.24-4.37 3.3-5.271 2.42-11.69.99-15.39-3.79-4.32-5.57-3.29-13.58 2.279-17.88 5.581-4.32 13.581-3.29 17.891 2.27z" fill="#ed1d31"/><path d="M463.7 201.64a12.88 12.88 0 0 1-1.88 1.79c-.79.61-1.63 1.12-2.49 1.51 1.41-1.06 2.87-2.17 4.37-3.3z" fill="#fff"/><path d="M403.16 182.74c5.57 4.3 6.6 12.31 2.28 17.88-3.69 4.78-10.12 6.21-15.38 3.79-1.41-1.06-2.87-2.17-4.37-3.3-3.86-4.48-4.18-11.22-.41-16.09 4.31-5.57 12.31-6.59 17.88-2.28zM386.88 202.36c5.54 4.32 6.57 12.32 2.27 17.89-4.3 5.56-12.31 6.59-17.88 2.28-5.57-4.31-6.6-12.31-2.29-17.88 4.31-5.57 12.32-6.59 17.9-2.29z" fill="#ed1d31"/><path d="M390.06 204.41c-.87-.39-1.7-.9-2.49-1.51a12.3 12.3 0 0 1-1.88-1.79c1.5 1.13 2.96 2.24 4.37 3.3z" fill="#fff"/><g fill="none" stroke="#231f20"><path d="M598.21 165.16c14.021 8.95 23.08 19.09 25.78 29.92a27.8 27.8 0 0 1 .859 6.84c0 40.56-88.96 73.44-198.699 73.44-98.69 0-180.57-26.59-196.061-61.45-1.74-3.9-2.64-7.91-2.64-11.99 0-2.74.4-5.44 1.2-8.1 2.76-9.32 10.24-18.11 21.52-26.04M371.08 131.32c17.49-1.86 35.97-2.85 55.07-2.85 19.38 0 38.1 1.03 55.8 2.94" stroke-width="21"/><path d="M621.24 191.75s.97 1.12 2.75 3.33c7.02 8.75 26.649 34.58 48.81 76.01 8.13 15.18 16.59 32.44 24.9 51.73 41.33 95.94 86.35 325.64 70.819 355.43C735.74 741.21 560.87 786.78 425.78 782.84l-1.6.09c-135.08 3.93-310.83-41.97-343.62-104.92-15.51-29.8 29.5-259.49 70.83-355.43 32.96-76.51 70.01-120.54 77.26-128.76.82-.94 1.26-1.41 1.26-1.41" stroke-width="21"/><path d="M180.24 337.99c-9.33 43.06-8.62 86.81-6.86 132.33.27 6.91 2.14 20.21 4.38 26.97 6.41 19.4 30.02 18.74 37.24 2.35 7.49-17.029 10.49-32.13 14.42-53.779 9.42-51.8 27.74-112.84 77.89-109.081 45.64 3.43 70.15 72.81 80.39 108.01 7.09 24.38 15.99 48.14 29.9 69.56 12.01 18.471 36.58 52.57 60.59 40.36 14.819-7.53 18.159-21.04 13.409-36.85-2.72-9.061-9.93-16.08-12.54-25.49-2.75-9.97-4.72-22.13-5.239-32.43-.65-12.811 2.18-24.181 5.63-36.391 6.72-23.8 25.43-52.14 50.49-60.31 27.09-8.83 50.35-.83 75.739 8.41 18.88 6.87 47.41 22.03 58.9-4.73 4.07-9.48 10.7-49.25 8.21-95.82" stroke-width="21"/><path d="M231.39 212.08c-.44.61-.88 1.22-1.3 1.83-26.59 37.45-37.26 66-49.85 124.08M271.66 537.49c1.09.47 1.24 1.05 2.33 1.62 1.21.64 1.51 1.649 2.24 2.68 1.07 1.53 2.38 2.04 3.28 3.79.43.85.69 1.479 1.37 2.28.78.909 1.76 1.58 2.59 2.46 1.03 1.12 1.99 2.5 2.7 3.76.75 1.37.47 1.75.59 2.92.14 1.55 1.6 3.18 1.42 4.7-.22 1.83-1.83 1.569-3.52 1.43-1.11-.08-1.98.47-3.28-.18-1.8-.88-3.82-2.94-5.14-4.601-.58-.729-1-1.59-1.57-2.319-.64-.811-.84-.8-1.72-1.431-1.71-1.22-2.89-3.27-3.58-5.069-.31-.82-.4-1.521-1.01-2.3-.49-.671-1.19-1.07-1.65-1.75-1.11-1.66-1.28-3.53-.65-4.58.33-.53.53-.87.5-1.631-.02-.51 1.46-1.3 1.87-1.819 0 0 1.32-.77 3.23.04zM422.89 595.31c1.09.471 1.24 1.051 2.34 1.62 1.2.641 1.5 1.65 2.23 2.681 1.07 1.529 2.38 2.04 3.28 3.79.43.85.689 1.479 1.37 2.279.79.91 1.76 1.58 2.59 2.46 1.03 1.12 2 2.5 2.7 3.761.76 1.369.479 1.75.59 2.92.149 1.55 1.609 3.18 1.43 4.699-.229 1.83-1.84 1.57-3.53 1.44-1.1-.09-1.979.46-3.279-.19-1.801-.88-3.82-2.939-5.141-4.6-.58-.72-1-1.59-1.57-2.32-.64-.81-.84-.8-1.72-1.43-1.71-1.22-2.89-3.27-3.58-5.07-.31-.819-.4-1.52-1-2.3-.5-.67-1.2-1.069-1.66-1.75-1.11-1.66-1.28-3.53-.65-4.59.33-.53.53-.86.5-1.62-.02-.51 1.46-1.3 1.87-1.82 0 0 1.32-.77 3.23.04zM318.48 707.57c1.09.47 1.24 1.05 2.33 1.62 1.21.64 1.51 1.649 2.24 2.68 1.07 1.52 2.38 2.04 3.28 3.79.43.85.68 1.479 1.37 2.28.78.909 1.76 1.579 2.58 2.46 1.04 1.119 2 2.5 2.71 3.76.75 1.37.47 1.75.59 2.92.14 1.55 1.6 3.18 1.42 4.7-.22 1.83-1.83 1.569-3.52 1.43-1.11-.08-1.98.46-3.29-.18-1.79-.88-3.81-2.94-5.13-4.601-.58-.729-1-1.6-1.57-2.319-.64-.811-.84-.801-1.72-1.431-1.71-1.229-2.9-3.27-3.58-5.069-.31-.82-.4-1.521-1.01-2.301-.5-.67-1.19-1.069-1.65-1.75-1.11-1.659-1.28-3.529-.65-4.59.33-.529.52-.859.5-1.62-.02-.51 1.46-1.3 1.87-1.819 0 0 1.32-.78 3.23.04zM165.15 630.91c-1.09.47-1.24 1.06-2.34 1.63-1.21.63-1.51 1.64-2.23 2.67-1.08 1.53-2.38 2.04-3.28 3.8-.43.84-.69 1.471-1.37 2.271-.79.92-1.76 1.58-2.59 2.47-1.04 1.11-2 2.5-2.7 3.76-.76 1.36-.48 1.75-.59 2.92-.15 1.54-1.61 3.181-1.43 4.69.23 1.83 1.84 1.58 3.53 1.439 1.1-.09 1.98.46 3.28-.189 1.8-.88 3.81-2.94 5.14-4.601.58-.72 1-1.59 1.56-2.31.65-.82.84-.81 1.72-1.43 1.72-1.23 2.9-3.28 3.58-5.07.32-.83.41-1.53 1.01-2.31.5-.67 1.2-1.07 1.65-1.74 1.12-1.66 1.29-3.54.65-4.59-.32-.53-.52-.86-.49-1.62.01-.521-1.46-1.311-1.87-1.82 0 0-1.32-.78-3.23.03zM616.96 503.35c-1.09.471-1.24 1.051-2.33 1.62-1.22.641-1.51 1.641-2.24 2.67-1.069 1.53-2.38 2.051-3.279 3.801-.431.85-.69 1.479-1.37 2.27-.78.92-1.771 1.59-2.59 2.47-1.03 1.11-2 2.5-2.69 3.761-.77 1.369-.479 1.75-.6 2.92-.141 1.54-1.601 3.18-1.431 4.689.23 1.83 1.84 1.58 3.53 1.44 1.11-.08 1.98.46 3.28-.181 1.8-.89 3.81-2.949 5.14-4.609.58-.72 1-1.59 1.57-2.311.64-.81.83-.81 1.72-1.43 1.71-1.229 2.89-3.27 3.58-5.07.31-.819.4-1.52 1-2.31.5-.66 1.2-1.061 1.66-1.74 1.109-1.66 1.28-3.54.649-4.59-.319-.53-.52-.86-.5-1.62.021-.51-1.46-1.31-1.869-1.82 0 0-1.32-.78-3.23.04zM545.92 681.76c-1.09.471-1.25 1.05-2.34 1.62-1.21.64-1.5 1.64-2.23 2.67-1.08 1.53-2.39 2.05-3.29 3.8-.43.841-.689 1.471-1.359 2.271-.79.92-1.771 1.59-2.59 2.47-1.04 1.11-2 2.5-2.7 3.76-.76 1.37-.48 1.75-.601 2.92-.14 1.54-1.6 3.181-1.42 4.69.221 1.83 1.841 1.58 3.53 1.44 1.1-.08 1.98.46 3.28-.181 1.8-.89 3.81-2.95 5.14-4.609.58-.721 1-1.591 1.57-2.311.63-.81.83-.81 1.71-1.43 1.71-1.23 2.899-3.271 3.58-5.07.319-.819.41-1.52 1.01-2.31.5-.67 1.2-1.07 1.65-1.74 1.109-1.66 1.279-3.54.649-4.59-.319-.53-.52-.86-.5-1.62.03-.521-1.46-1.31-1.859-1.82 0 0-1.33-.78-3.23.04zM699.25 605.1c1.09.471 1.24 1.051 2.33 1.62 1.21.641 1.51 1.65 2.229 2.681 1.08 1.529 2.381 2.04 3.29 3.79.431.85.681 1.479 1.37 2.279.78.91 1.761 1.58 2.58 2.46 1.04 1.12 2 2.5 2.7 3.761.76 1.369.48 1.75.6 2.92.141 1.55 1.601 3.18 1.42 4.699-.229 1.83-1.829 1.57-3.52 1.44-1.11-.09-1.99.46-3.29-.19-1.8-.88-3.81-2.939-5.13-4.6-.59-.72-1-1.59-1.57-2.32-.649-.81-.84-.8-1.72-1.43-1.71-1.22-2.89-3.27-3.58-5.07-.31-.819-.4-1.52-1-2.3-.51-.67-1.2-1.07-1.66-1.75-1.109-1.66-1.28-3.53-.649-4.58.319-.529.52-.87.489-1.63-.01-.51 1.46-1.3 1.88-1.82.001 0 1.321-.77 3.231.04z" stroke-width="23.608"/><path d="M390.06 204.41c16.93 12.85 27.81 21.1 27.81 21.1M204.4 84.99s28.21 8.55 66.72 31.97a422.169 422.169 0 0 1 35.64 24.28c13.64 10.34 27.29 20.7 40.12 30.43 11.78 8.93 22.87 17.35 32.63 24.74.27.21.54.42.81.61 1.84 1.4 3.63 2.76 5.37 4.09" stroke-width="14"/><path d="M380.98 196.15s3.58-37.05-13.32-63.29c-.38-.6-.78-1.19-1.18-1.77-6.64-9.59-2.05-21.09-1.87-21.52l-.01.01c-.55.4-17.76 12.72-29.15 4.69-12.27-8.65-7.72-11.91-10.61-33.56 0 0-17.24 19.24-41.61 7.91l.66.52c-2.72-1.28-5.33-3.6-7.65-6.24-5.56-6.3-9.5-14.4-9.5-14.4s-8.67 15.09-21.01 13.57c-13.08-1.61-10.81-5.48-21.73-19.4 0 0 1.28 17.34-15.71 18.88-.97.09-2.41.13-3.91.15-2.4.04-4.96-.02-6.05-.16l-8.06-3.37c12.67 7.96 13.42 9.17 14.33 11.54 6.07 15.95-10.09 22.39-10.09 22.39 17.29 3.73 19.78-.01 26.95 11.04 6.77 10.43-3.01 24.83-3.01 24.83s18.13 0 26.07 6.39l-.75-.37c4.71 3.83 7.86 8.02 9.91 12.21 7.03 14.34 1.19 28.66 1.19 28.66 20.74-6.87 21.67-12.4 34.82-5.15 12.4 6.84 8.54 28.28 8.54 28.28s8.42-9.55 20.17-7.74c31.63 4.89 60.79-13.41 60.79-13.41M230.42 140.25s21.95-21.9 39.72-22.61M267.64 167.42s20.66-23.14 38.35-24.86" stroke-width="14"/><path d="M307.94 195.21s21.54-21.5 39.22-22.58c.17-.02.33-.02.5-.03M276.83 81.7s-.23.43-.59 1.2c-2.2 4.55-9.42 21.17-5.12 34.06.06.2.13.4.2.6M315.55 106.2s-12.52 19.75-7.89 34.92" stroke-width="14"/><path d="M352.99 137.7s-10.15 19.06-6.11 33.97c.08.33.18.65.28.96.09.32.2.62.31.93M386.88 202.36c5.54 4.32 6.57 12.32 2.27 17.89-4.3 5.56-12.31 6.59-17.88 2.28-5.57-4.31-6.6-12.31-2.29-17.88 4.31-5.57 12.32-6.59 17.9-2.29z" stroke-width="14"/><path d="M385.69 201.11c-3.86-4.48-4.18-11.22-.41-16.09 4.31-5.57 12.31-6.59 17.88-2.28 5.57 4.3 6.6 12.31 2.28 17.88-3.69 4.78-10.12 6.21-15.38 3.79-.87-.39-1.7-.9-2.49-1.51a12.3 12.3 0 0 1-1.88-1.79zM459.33 204.94c-16.93 12.85-27.811 21.1-27.811 21.1M644.98 85.52s-28.211 8.54-66.721 31.97a422.169 422.169 0 0 0-35.64 24.28c-13.63 10.34-27.28 20.69-40.11 30.43-11.779 8.93-22.88 17.35-32.64 24.75-.271.21-.54.41-.8.61-1.84 1.39-3.63 2.75-5.37 4.08" stroke-width="14"/><path d="M468.4 196.67s-3.71-38.47 14.3-64.76l.2-.29c6.64-9.59 2.05-21.09 1.869-21.52l.011.01c.55.4 17.76 12.71 29.149 4.68 12.271-8.64 7.721-11.9 10.62-33.56 0 0 17.23 19.24 41.601 7.92l-.66.52c2.72-1.28 5.33-3.61 7.649-6.25 5.561-6.3 9.5-14.4 9.5-14.4s8.67 15.1 21.011 13.58c13.08-1.62 10.81-5.48 21.739-19.4 0 0-1.29 17.34 15.7 18.87.98.08 2.41.14 3.91.16 2.4.04 4.96-.02 6.05-.16l8.07-3.38c-12.68 7.97-13.43 9.18-14.34 11.54-6.07 15.96 10.09 22.39 10.09 22.39-17.29 3.73-19.771 0-26.95 11.05-6.78 10.43 3.021 24.83 3.021 24.83s-18.141 0-26.07 6.38l.74-.37c-4.04 3.29-6.931 6.83-8.96 10.41-8.48 14.92-2.131 30.47-2.131 30.47-20.739-6.88-21.68-12.4-34.829-5.15-12.4 6.84-8.54 28.28-8.54 28.28s-8.41-9.56-20.16-7.74c-31.641 4.89-60.8-13.41-60.8-13.41M618.96 140.78s-21.95-21.91-39.72-22.61M581.74 167.95s-20.66-23.14-38.351-24.87" stroke-width="14"/><path d="M541.44 195.73s-21.54-21.49-39.21-22.57l-.511-.03M572.55 82.22s.23.43.59 1.2c2.2 4.56 9.42 21.18 5.12 34.07-.06.2-.13.4-.2.6M533.83 106.72s12.53 19.76 7.88 34.93" stroke-width="14"/><path d="M496.4 138.22s10.149 19.07 6.109 33.98c-.08.33-.18.65-.279.96-.091.32-.2.62-.311.93M462.51 202.89c-5.55 4.31-6.58 12.32-2.279 17.89 4.31 5.55 12.31 6.59 17.89 2.28 5.57-4.31 6.59-12.31 2.28-17.88-4.311-5.57-12.311-6.59-17.891-2.29z" stroke-width="14"/><path d="M463.7 201.64c3.85-4.49 4.17-11.23.41-16.1-4.311-5.56-12.311-6.59-17.891-2.27-5.569 4.3-6.6 12.31-2.279 17.88 3.699 4.78 10.119 6.21 15.39 3.79a12.78 12.78 0 0 0 4.37-3.3z" stroke-width="14"/></g><path fill="none" d="M0 0h850.394v850.394H0z"/></svg>