<svg xmlns="http://www.w3.org/2000/svg" width="850.394" height="850.394" viewBox="0 0 850.394 850.394" overflow="visible"><path d="M683.67 401.35c4.72 0 8.54 1.7 11.35 5.02 2.801 3.41 4.211 7.22 4.211 11.33 0 2.81-.61 5.32-1.91 7.53-1.2 2.21-3.11 4.21-5.61 5.82 2.91.8 5.31 2.5 7.12 5.21 1.9 2.71 2.8 6.03 2.8 10.04 0 5.811-1.8 10.63-5.21 14.44-3.52 3.91-7.62 5.819-12.439 5.819-4.62 0-8.53-1.6-11.641-4.909-3.21-3.21-5.12-7.631-5.62-13.141l9.73-1.41c.3 3.011 1.109 5.32 2.51 6.82 1.4 1.61 3.01 2.41 4.92 2.41 2.101 0 3.811-.91 5.21-2.811 1.51-1.909 2.21-4.51 2.21-7.829 0-3.101-.7-5.511-2.1-7.32-1.32-1.8-3.021-2.61-4.92-2.61-1.3 0-2.811.3-4.61.91l1.09-10.04c2.62.11 4.62-.6 6.13-2.1 1.5-1.41 2.311-3.52 2.311-6.12 0-2.21-.61-3.92-1.71-5.22-1.101-1.2-2.41-1.81-4.11-1.81-1.71 0-3.22.7-4.42 2.11-1.3 1.41-2.01 3.61-2.3 6.42l-9.23-1.9c1-5.82 2.801-10.04 5.61-12.75 2.808-2.609 6.318-3.909 10.628-3.909z"/><path d="M423.22 55.32c206.58 0 374.03 167.45 374.03 373.92 0 206.58-167.45 374.02-374.03 374.02-206.58 0-374.03-167.439-374.03-374.02 0-206.47 167.45-373.92 374.03-373.92zm318.45 373.92c0-175.77-142.57-318.34-318.45-318.34-175.77 0-318.34 142.57-318.34 318.34 0 175.87 142.57 318.45 318.34 318.45 175.88 0 318.45-142.58 318.45-318.45z" fill="#f73900"/><path d="M428.64 139.69c3.011-3.01 7.021-4.51 12.04-4.51 5.511 0 9.63 1.8 12.44 5.31 2.81 3.61 4.12 7.73 4.12 12.34 0 2.62-.311 5.12-1.01 7.63-.7 2.41-1.811 4.92-3.311 7.33-1.5 2.5-3.91 5.71-7.42 9.52-3.21 3.62-5.22 6.03-6.12 7.23a19.59 19.59 0 0 0-2.01 3.41h19.87v11.34h-35.12c.3-4.31 1.5-8.33 3.41-12.24 1.911-3.92 5.72-8.93 11.34-15.25 4.42-5.02 7.12-8.43 8.12-10.24 1.51-2.5 2.21-5.11 2.21-7.72 0-2.81-.601-4.92-1.811-6.32-1.3-1.41-2.909-2.11-5.02-2.11-4.4 0-6.82 3.31-7.11 9.93l-10.04-1.3c.612-6.52 2.412-11.24 5.422-14.35zM426.13 721.4c-5.21 0-9.53-2.511-13.04-7.521-3.41-4.92-5.12-13.25-5.12-24.68 0-11.74 1.81-20.181 5.32-25.29 3.61-5.21 8.23-7.72 13.84-7.72 3.82 0 7.13 1.3 9.74 3.909 2.7 2.61 4.42 6.62 5.11 11.94l-9.73 1.3c-.5-4.72-2.41-7.12-5.71-7.12-2.21 0-4.02 1.21-5.42 3.511-1.41 2.409-2.31 7.22-2.71 14.55 1.2-1.8 2.6-3.21 4.21-4.12 1.5-.9 3.21-1.3 5.02-1.3 4.11 0 7.721 1.899 10.73 5.72 3.11 3.81 4.62 8.83 4.62 15.25 0 6.72-1.61 11.939-4.82 15.85-3.21 3.811-7.22 5.721-12.04 5.721zm-4.61-13.45c1.5 2.22 3.21 3.21 5.11 3.21 1.811 0 3.41-.9 4.62-2.601 1.3-1.8 1.9-4.71 1.9-8.729 0-4.21-.7-7.22-2-9.13-1.41-1.9-3.011-2.91-5.021-2.91-1.9 0-3.51 1.01-4.92 2.81-1.3 1.801-2 4.521-2 8.12.001 4.02.801 7.12 2.311 9.23z"/><path d="M672.34 461.65c3.11 3.31 7.021 4.909 11.641 4.909 4.819 0 8.92-1.909 12.439-5.819 3.41-3.811 5.21-8.63 5.21-14.44 0-4.01-.899-7.33-2.8-10.04-1.811-2.71-4.21-4.41-7.12-5.21 2.5-1.609 4.41-3.609 5.61-5.82 1.3-2.21 1.91-4.72 1.91-7.53 0-4.11-1.41-7.92-4.211-11.33-2.81-3.32-6.63-5.02-11.35-5.02-4.31 0-7.82 1.3-10.63 3.91-2.81 2.71-4.61 6.93-5.61 12.75l9.23 1.9c.29-2.81 1-5.01 2.3-6.42 1.2-1.41 2.71-2.11 4.42-2.11 1.7 0 3.01.61 4.11 1.81 1.1 1.3 1.71 3.01 1.71 5.22 0 2.6-.811 4.71-2.311 6.12-1.51 1.5-3.51 2.21-6.13 2.1l-1.09 10.04c1.8-.61 3.311-.91 4.61-.91 1.899 0 3.6.811 4.92 2.61 1.399 1.81 2.1 4.22 2.1 7.32 0 3.319-.7 5.92-2.21 7.829-1.399 1.9-3.109 2.811-5.21 2.811-1.91 0-3.52-.8-4.92-2.41-1.4-1.5-2.21-3.81-2.51-6.82l-9.73 1.41c.502 5.51 2.412 9.93 5.622 13.14zM440.37 145.41c2.11 0 3.72.7 5.02 2.11 1.21 1.4 1.811 3.51 1.811 6.32 0 2.61-.7 5.22-2.21 7.72-1 1.81-3.7 5.22-8.12 10.24-5.62 6.32-9.43 11.33-11.34 15.25-1.91 3.91-3.11 7.93-3.41 12.24h35.12v-11.34h-19.87c.5-1.1 1.2-2.31 2.01-3.41.9-1.2 2.91-3.61 6.12-7.23 3.51-3.81 5.92-7.02 7.42-9.52 1.5-2.41 2.61-4.92 3.311-7.33.699-2.51 1.01-5.01 1.01-7.63 0-4.61-1.311-8.73-4.12-12.34-2.811-3.51-6.93-5.31-12.44-5.31-5.02 0-9.029 1.5-12.04 4.51-3.01 3.11-4.81 7.83-5.419 14.35l10.04 1.3c.287-6.62 2.707-9.93 7.107-9.93zm-39.22 284.13c0 12.04 9.73 21.78 21.67 21.78 12.041 0 21.67-9.74 21.67-21.78v-.2c-.101-11.84-9.73-21.47-21.67-21.47h-.1c-11.94.1-21.57 9.73-21.57 21.67zm11.94 284.34c3.51 5.01 7.83 7.521 13.04 7.521 4.82 0 8.83-1.91 12.04-5.721 3.21-3.91 4.82-9.13 4.82-15.85 0-6.42-1.51-11.44-4.62-15.25-3.01-3.82-6.62-5.72-10.73-5.72-1.81 0-3.52.399-5.02 1.3-1.61.91-3.01 2.32-4.21 4.12.4-7.33 1.3-12.141 2.71-14.55 1.4-2.301 3.21-3.511 5.42-3.511 3.3 0 5.21 2.4 5.71 7.12l9.73-1.3c-.69-5.32-2.41-9.33-5.11-11.94-2.61-2.609-5.92-3.909-9.74-3.909-5.61 0-10.23 2.51-13.84 7.72-3.51 5.109-5.32 13.55-5.32 25.29 0 11.43 1.71 19.76 5.12 24.68zM149.83 464.06c2.6 2.601 5.82 3.9 9.83 3.9 5.72 0 10.33-2.6 13.84-7.72 3.61-5.11 5.42-13.54 5.42-25.28 0-11.54-1.7-19.77-5.12-24.78-3.51-5.02-7.82-7.42-13.14-7.42-4.71 0-8.73 1.9-11.94 5.71-3.21 3.92-4.82 9.23-4.82 15.95 0 6.33 1.51 11.34 4.62 15.15 3.01 3.819 6.62 5.72 10.54 5.72 1.9 0 3.71-.5 5.31-1.4 1.51-.899 2.91-2.199 4.21-4.01-.39 7.22-1.3 12.04-2.8 14.45-1.41 2.3-3.21 3.5-5.52 3.5-3.31 0-5.22-2.41-5.62-7.12l-9.73 1.3c.7 5.42 2.41 9.44 4.92 12.05zM423.22 110.9c175.879 0 318.45 142.57 318.45 318.34 0 175.87-142.57 318.45-318.45 318.45-175.77 0-318.34-142.58-318.34-318.45 0-175.77 142.57-318.34 318.34-318.34zm-14.84 88.39v-64.11h-8.13c-1.1 3.81-3.22 7.12-6.22 10.03-3.01 2.91-5.92 4.92-8.63 6.02v11.14c4.91-2.01 9.23-5.02 12.94-9.23v46.15h10.04z" fill="#a3d9ff"/><path d="M426.13 687.79c2.01 0 3.61 1.01 5.021 2.91 1.3 1.91 2 4.92 2 9.13 0 4.02-.601 6.93-1.9 8.729-1.21 1.7-2.81 2.601-4.62 2.601-1.9 0-3.61-.99-5.11-3.21-1.51-2.11-2.31-5.21-2.31-9.23 0-3.6.7-6.319 2-8.12 1.409-1.8 3.019-2.81 4.919-2.81z" fill="#a3d9ff"/><path d="M422.72 407.87h.1c11.94 0 21.57 9.63 21.67 21.47v.2c0 12.04-9.63 21.78-21.67 21.78-11.94 0-21.67-9.74-21.67-21.78 0-11.94 9.63-21.57 21.57-21.67zM408.38 135.18v64.11h-10.04v-46.15c-3.71 4.21-8.03 7.22-12.94 9.23v-11.14c2.71-1.1 5.62-3.11 8.63-6.02 3-2.91 5.12-6.22 6.22-10.03h8.13zM160.76 436.26c1.91 0 3.51-.899 4.92-2.71 1.3-1.8 2-4.609 2-8.22 0-4.01-.7-7.02-2.2-9.23-1.61-2.11-3.31-3.21-5.22-3.21-1.9 0-3.41.9-4.61 2.71-1.31 1.7-1.91 4.61-1.91 8.73 0 4.11.7 7.12 2.01 9.13 1.4 1.9 3.11 2.8 5.01 2.8zm-1.1 31.7c-4.01 0-7.23-1.3-9.83-3.9-2.51-2.609-4.22-6.63-4.92-12.05l9.73-1.3c.4 4.71 2.31 7.12 5.62 7.12 2.31 0 4.11-1.2 5.52-3.5 1.5-2.41 2.41-7.23 2.8-14.45-1.3 1.811-2.7 3.11-4.21 4.01-1.6.9-3.41 1.4-5.31 1.4-3.92 0-7.53-1.9-10.54-5.72-3.11-3.811-4.62-8.82-4.62-15.15 0-6.72 1.61-12.03 4.82-15.95 3.21-3.81 7.23-5.71 11.94-5.71 5.32 0 9.63 2.4 13.14 7.42 3.42 5.01 5.12 13.24 5.12 24.78 0 11.74-1.81 20.17-5.42 25.28-3.51 5.12-8.12 7.72-13.84 7.72z"/><path d="M160.26 412.89c1.91 0 3.61 1.1 5.22 3.21 1.5 2.21 2.2 5.22 2.2 9.23 0 3.61-.7 6.42-2 8.22-1.41 1.811-3.01 2.71-4.92 2.71-1.9 0-3.61-.899-5.01-2.8-1.31-2.01-2.01-5.02-2.01-9.13 0-4.12.6-7.03 1.91-8.73 1.2-1.81 2.71-2.71 4.61-2.71z" fill="#a3d9ff"/><g fill="none" stroke="#000"><path d="M741.67 429.24c0 175.87-142.57 318.45-318.45 318.45-175.77 0-318.34-142.58-318.34-318.45 0-175.77 142.57-318.34 318.34-318.34 175.88 0 318.45 142.57 318.45 318.34z" stroke-width="25.345"/><path d="M423.22 55.32c206.58 0 374.03 167.45 374.03 373.92 0 206.58-167.45 374.02-374.03 374.02-206.58 0-374.03-167.439-374.03-374.02 0-206.47 167.45-373.92 374.03-373.92z" stroke-width="25.345"/><path stroke-width="16.897" d="M170.7 323.7l77.45 31M249.55 219.55L296 281.46M669.33 322.09l-77.45 31M590.47 217.85l-46.46 62M176.71 541.61l77.46-31.01M255.57 645.75l46.46-61.9M675.34 543.21l-77.45-31M596.49 647.46l-46.45-62.01"/><path stroke-width="25.345" d="M422.72 227.58v192.23M564.59 429.34H422.02"/></g><path fill="none" d="M0 0h850.394v850.394H0z"/></svg>