<?xml version="1.0" encoding="iso-8859-1"?>
<!-- Generator: Adobe Illustrator 12.0.1, SVG Export Plug-In . SVG Version: 6.00 Build 51448)  -->
<!DOCTYPE svg PUBLIC "-//W3C//DTD SVG 1.1//EN" "http://www.w3.org/Graphics/SVG/1.1/DTD/svg11.dtd" [
	<!ENTITY ns_svg "http://www.w3.org/2000/svg">
	<!ENTITY ns_xlink "http://www.w3.org/1999/xlink">
]>
<svg  version="1.1" id="Layer_1" xmlns="&ns_svg;" xmlns:xlink="&ns_xlink;" width="850.394" height="850.394"
	 viewBox="0 0 850.394 850.394" style="overflow:visible;enable-background:new 0 0 850.394 850.394;" xml:space="preserve">
<g id="XMLID_3_">
	<g>
		<path style="fill:#FFFFFF;" d="M233.34,430.41c-44.28-96.68-34.28-217.07-34.28-217.07c0,19.51,15.25,37.59,41.23,52.42h0.01
			c41.12,23.49,109.11,38.83,186.01,38.83c69.21,0,131.19-12.42,172.87-32.03c32.931-15.47,53.19-35.43,54.33-57.27
			c1.08,16.53,6.45,126.58-34.859,215.9c-14.2,30.699-33.91,58.96-61.21,80.13c-0.801,0.62-1.61,1.239-2.431,1.85
			c-31.89,23.84-73.87,38.15-129.08,35.88l0.57,0.16c-56.52,2.32-99.17-12.72-131.32-37.58C267.5,490.22,247.6,461.54,233.34,430.41
			z"/>
		<path style="fill:#FFFFFF;" d="M426.31,122.08c125.511,0,227.25,40.86,227.25,91.26c0,0.64-0.02,1.28-0.05,1.92
			c0,0.01,0,0.02,0,0.03c-1.14,21.84-21.399,41.8-54.33,57.27c5.271-4.8,12.44-9.9,12.44-15.17c0-28.69-83.66-51.95-186.87-51.95
			s-186.87,23.26-186.87,51.95c0,3.57-0.06,5,2.41,8.37c-25.98-14.83-41.23-32.91-41.23-52.42
			C199.06,162.94,300.81,122.08,426.31,122.08z"/>
		<path style="fill:#9E5B16;" d="M240.29,265.76c-2.47-3.37-2.41-4.8-2.41-8.37c0-28.69,83.66-51.95,186.87-51.95
			s186.87,23.26,186.87,51.95c0,5.27-7.17,10.37-12.44,15.17c-41.68,19.61-103.66,32.03-172.87,32.03
			c-76.899,0-144.89-15.34-186.01-38.83H240.29z"/>
		<path style="fill:#FFFFFF;" d="M618.65,431.19c91.729,27.92,146.26,73.859,146.26,128.13c0,86.09-152.29,155.899-340.16,155.899
			S84.58,645.41,84.58,559.32c0-53.58,58.97-100.851,148.76-128.91c14.26,31.13,34.16,59.81,61.84,81.22
			c-10.19,8.15-15.93,17.37-15.93,27.14c0,33.101,65.92,59.931,147.25,59.931s147.26-26.83,147.26-59.931
			c0-9.89-5.89-19.22-16.31-27.439l-0.01-0.01C584.74,490.15,604.45,461.89,618.65,431.19z"/>
		<path style="fill:#FFFFFF;" d="M557.45,511.33c10.42,8.22,16.31,17.55,16.31,27.439c0,33.101-65.93,59.931-147.26,59.931
			s-147.25-26.83-147.25-59.931c0-9.77,5.74-18.989,15.93-27.14c32.15,24.86,74.8,39.9,131.32,37.58l-0.57-0.16
			c55.209,2.271,97.19-12.04,129.08-35.88c0.82-0.61,1.63-1.229,2.431-1.85L557.45,511.33z"/>
	</g>
	<g>
		<path style="fill:none;stroke:#000000;stroke-width:35.0989;" d="M632.36,422.4c20.359-6.11,60.739-36.18,91.38-93.06
			c11.43-21.23,23.04-46.42,27.13-65.24c0,0,6.13-25.74-4.55-26.2c-30.24-1.3-29.15-1.19-85.98-1.67"/>
		<path style="fill:none;stroke:#000000;stroke-width:21.0594;" d="M240.29,265.76c-25.98-14.83-41.23-32.91-41.23-52.42
			c0-50.4,101.75-91.26,227.25-91.26c125.511,0,227.25,40.86,227.25,91.26c0,0.64-0.02,1.28-0.05,1.92"/>
		<path style="fill:none;stroke:#000000;stroke-width:21.0594;" d="M653.51,215.29c-1.14,21.84-21.399,41.8-54.33,57.27
			c-41.68,19.61-103.66,32.03-172.87,32.03c-76.899,0-144.89-15.34-186.01-38.83"/>
		<path style="fill:none;stroke:#000000;stroke-width:21.0594;" d="M618.65,431.19c91.729,27.92,146.26,73.859,146.26,128.13
			c0,86.09-152.29,155.899-340.16,155.899S84.58,645.41,84.58,559.32c0-53.58,58.97-100.851,148.76-128.91
			c0.01,0,0.02-0.01,0.03-0.01"/>
		<path style="fill:none;stroke:#000000;stroke-width:21.0594;" d="M555.01,513.17c-31.89,23.84-73.87,38.15-129.08,35.88l0.57,0.16
			c-56.52,2.32-99.17-12.72-131.32-37.58c-27.68-21.41-47.58-50.09-61.84-81.22c-44.28-96.68-34.28-217.07-34.28-217.07"/>
		<path style="fill:none;stroke:#000000;stroke-width:21.0594;" d="M653.36,213.17c0,0,0.06,0.72,0.149,2.09c0,0.01,0,0.02,0,0.03
			c1.08,16.53,6.45,126.58-34.859,215.9c-14.2,30.699-33.91,58.96-61.21,80.13c-0.801,0.62-1.61,1.239-2.431,1.85"/>
		<path style="fill:none;stroke:#000000;stroke-width:21.0594;" d="M557.45,511.33c10.42,8.22,16.31,17.55,16.31,27.439
			c0,33.101-65.93,59.931-147.26,59.931s-147.25-26.83-147.25-59.931c0-9.77,5.74-18.989,15.93-27.14l0.01-0.01"/>
		<path style="fill:none;stroke:#000000;stroke-width:21.0594;" d="M240.31,265.78c-0.01-0.01-0.01-0.01-0.01-0.02h-0.01
			c-2.47-3.37-2.41-4.8-2.41-8.37c0-28.69,83.66-51.95,186.87-51.95s186.87,23.26,186.87,51.95c0,5.27-7.17,10.37-12.44,15.17"/>
	</g>
</g>
<rect style="fill:none;" width="850.394" height="850.394"/>
</svg>
