<?xml version="1.0" encoding="iso-8859-1"?>
<!-- Generator: Adobe Illustrator 12.0.1, SVG Export Plug-In . SVG Version: 6.00 Build 51448)  -->
<!DOCTYPE svg PUBLIC "-//W3C//DTD SVG 1.1//EN" "http://www.w3.org/Graphics/SVG/1.1/DTD/svg11.dtd" [
	<!ENTITY ns_svg "http://www.w3.org/2000/svg">
	<!ENTITY ns_xlink "http://www.w3.org/1999/xlink">
]>
<svg  version="1.1" id="Layer_1" xmlns="&ns_svg;" xmlns:xlink="&ns_xlink;" width="850.89" height="850.89"
	 viewBox="0 0 850.89 850.89" style="overflow:visible;enable-background:new 0 0 850.89 850.89;" xml:space="preserve">
<g>
	<g id="XMLID_1_">
		<g>
			<path style="fill:#0D72BA;" d="M647.68,217.54c-1.81,7.34-17.67,13.87-41.83,18.3c-8.33,1.54-17.64,2.83-27.699,3.82l0.06-4.43
				c6.15-0.51,12.021-1.07,17.56-1.68c1.61-0.18,3.2-0.36,4.75-0.55C627.52,229.76,645.69,225.1,647.68,217.54z"/>
			<path style="fill:#FAA41F;" d="M478.71,256.11c10.32,1.21,21.25,2.07,32.61,2.53l-9.07,257.61c-1.61,0.78-3.29,1.56-5.03,2.35
				c-12.6-1.569-26.79-3.96-40.16-7.069c1.811-0.44,3.54-0.87,5.19-1.28L478.71,256.11z"/>
			<path style="fill:#FBEE34;" d="M502.25,516.25l9.07-257.61c6.31,0.26,12.77,0.39,19.319,0.39c4.53,0,9.021-0.06,13.44-0.2
				l-1.83,259.42c-1.06,0.75-2.17,1.51-3.32,2.27c-1.359,0.051-2.64,0.07-3.83,0.07l-9.199,0.18c-7.03,0-17.19-0.75-28.681-2.17
				C498.96,517.81,500.64,517.03,502.25,516.25z"/>
			<path style="fill:#0D72BA;" d="M573.46,517.09c11.64-1.729,24.05-4.08,35.59-6.979c-0.12,1.08-1.109,1.68-1.569,2.38
				C525.32,637.88,244.71,663.32,135.87,637.17C385.89,616.67,523.66,569.8,573.46,517.09z"/>
			<path style="fill:#0D72BA;" d="M578.15,239.66c10.06-0.99,19.369-2.28,27.699-3.82l0.471,2.58c0.81,2.62,1.649,7.29,2.5,13.61
				c-9.54,1.89-19.91,3.44-30.91,4.59L578.15,239.66z"/>
			<path style="fill:#FAA41F;" d="M595.77,233.55c-5.539,0.61-11.409,1.17-17.56,1.68l0.021-1.51L595.77,233.55z"/>
			<path style="fill:#0D72BA;" d="M451.75,234.91c8.39,1.44,17.85,2.55,28.12,3.26l-0.09,1.28c-11.011-1.14-21.09-2.63-29.91-4.42
				c0.05-0.03,0.09-0.07,0.14-0.11h0.67L451.75,234.91z"/>
			<path style="fill:#FBEE34;" d="M497.22,518.6c11.49,1.42,21.65,2.17,28.681,2.17l9.199-0.18c1.19,0,2.471-0.02,3.83-0.07
				c-50.72,33.73-186.03,78.23-432.04,103.66l0.29,2.82c-12.6-6.84-17.85-15.29-13.35-25.03l2.42,0.28
				C313.57,577.03,440.53,544.27,497.22,518.6z"/>
			<path style="fill:#0D72BA;" d="M577.91,256.62c11-1.15,21.37-2.7,30.91-4.59c-0.38,37.61,2.18,127.01,2.359,191.03
				c-0.35,31.66-1.06,57.07-2.13,67.051c-11.54,2.899-23.95,5.25-35.59,6.979c0.271-0.28,0.53-0.56,0.79-0.84L577.91,256.62z"/>
			<path style="fill:#ED1D31;" d="M449.87,235.03c8.82,1.79,18.899,3.28,29.91,4.42l-1.07,16.66c-12.72-1.49-24.52-3.51-35.1-5.97
				C445.3,242.47,447.35,237.16,449.87,235.03z"/>
			<path style="fill:#FBEE34;" d="M511.92,241.6c5.88,0.2,11.91,0.3,18.04,0.3c4.82,0,9.57-0.06,14.24-0.19l-0.12,17.12
				c-4.42,0.14-8.91,0.2-13.44,0.2c-6.55,0-13.01-0.13-19.319-0.39L511.92,241.6z"/>
			<path style="fill:#FAA41F;" d="M457.06,511.53c13.37,3.109,27.561,5.5,40.16,7.069c-56.689,25.67-183.65,58.431-400.97,83.65
				l-2.42-0.28c2.48-5.39,7.93-11.17,16.77-17.29C262.53,556.03,398.8,525.88,457.06,511.53z"/>
			<path style="fill:#FFFFFF;" d="M389.93,219.05c-0.05-0.53-0.1-1.07-0.1-1.6c0-22.97,63.04-41.6,140.81-41.6
				c77.75,0,140.79,18.63,140.79,41.6c0,0.98-0.12,1.97-0.35,2.94c-3.13,13.2-27.1,24.7-62.26,31.64
				c-0.36-6.37-1.69-10.99-2.5-13.61l-0.471-2.58c24.16-4.43,40.021-10.96,41.83-18.3c0-0.01,0-0.02,0.011-0.03
				c0.06-0.23,0.1-0.47,0.13-0.71c0.02-0.21,0.04-0.44,0.04-0.66c0-1.89-0.94-3.74-2.7-5.51c-0.21-0.21-0.42-0.41-0.66-0.62
				c-0.12-0.1-0.23-0.21-0.35-0.31c-0.37-0.31-0.761-0.62-1.17-0.92c-0.551-0.41-1.15-0.81-1.79-1.2c-0.32-0.2-0.65-0.4-0.99-0.6
				c-0.34-0.19-0.69-0.39-1.05-0.58c-0.37-0.19-0.74-0.38-1.12-0.58c-0.58-0.29-1.181-0.57-1.8-0.85c-1.24-0.57-2.58-1.12-4-1.65
				c-0.7-0.28-1.431-0.54-2.181-0.8c-0.51-0.18-1.02-0.35-1.54-0.53c-0.52-0.17-1.05-0.34-1.59-0.51s-1.09-0.34-1.64-0.51
				c-0.561-0.16-1.13-0.32-1.7-0.49c-21.55-6.14-55.47-10.1-93.62-10.1s-72.07,3.96-93.62,10.1c-0.58,0.17-1.149,0.33-1.7,0.49
				c-0.56,0.17-1.1,0.34-1.64,0.51c-0.55,0.17-1.07,0.34-1.59,0.51c-0.53,0.18-1.04,0.35-1.54,0.53c-0.75,0.26-1.48,0.52-2.19,0.8
				c-1.42,0.53-2.75,1.08-3.99,1.65c-0.62,0.28-1.22,0.56-1.8,0.85c-0.38,0.2-0.75,0.39-1.12,0.58c-0.36,0.19-0.71,0.39-1.05,0.58
				c-0.34,0.2-0.68,0.4-0.99,0.6c-0.64,0.39-1.24,0.79-1.79,1.2c-0.41,0.3-0.8,0.61-1.17,0.92c-0.12,0.1-0.23,0.21-0.35,0.31
				c-0.12,0.1-0.23,0.21-0.34,0.31c-1.97,1.87-3.02,3.81-3.02,5.82c0,0.19,0.01,0.37,0.04,0.56c0,0.04,0,0.07,0,0.1
				c0.02,0.17,0.05,0.34,0.08,0.5c0,0.01,0.01,0.03,0.01,0.04c0.02,0.11,0.05,0.21,0.08,0.32c0.02,0.1,0.05,0.2,0.08,0.3
				c0.04,0.12,0.09,0.26,0.15,0.39c0.09,0.25,0.2,0.5,0.33,0.74c0.08,0.14,0.15,0.28,0.23,0.42c0.05,0.08,0.09,0.15,0.15,0.23
				c0.13,0.21,0.28,0.43,0.45,0.64c0.15,0.22,0.32,0.42,0.52,0.63c0.17,0.21,0.36,0.42,0.58,0.63c0.09,0.11,0.2,0.21,0.32,0.31
				c0.11,0.11,0.22,0.22,0.34,0.32c0.09,0.09,0.18,0.16,0.28,0.25c0.06,0.05,0.12,0.1,0.18,0.14c0.21,0.18,0.43,0.36,0.66,0.52
				c0.56,0.45,1.18,0.87,1.84,1.29c0.21,0.13,0.42,0.27,0.64,0.39c6.46,3.93,17.14,7.4,30.85,10.17
				c-2.521,2.13-4.57,7.44-6.26,15.11C412.19,242.83,391.56,231.66,389.93,219.05z"/>
			<path style="fill:#C8C8C8;" d="M671.08,457.79c0,0,0.13,24.979-28.92,40.6c-8.46,4.551-20.25,8.48-33.11,11.721
				c5.2-25.86,7.07-203.82-0.229-258.081c35.16-6.94,59.13-18.44,62.26-31.64v23.98V457.79z"/>
			<path style="fill:#C8C8C8;" d="M480.1,234.54l-28.38,0.36c-14.609-2.5-25.96-5.98-32.7-10.04c-0.22-0.13-0.43-0.26-0.64-0.39
				c-0.66-0.42-1.28-0.84-1.84-1.29c-0.24-0.17-0.45-0.35-0.66-0.52c-0.06-0.04-0.12-0.09-0.18-0.14c-0.1-0.09-0.19-0.16-0.28-0.25
				c-0.12-0.1-0.23-0.21-0.34-0.32c-0.11-0.1-0.21-0.21-0.32-0.31c-0.21-0.21-0.4-0.42-0.58-0.63c-0.2-0.21-0.37-0.41-0.52-0.63
				c-0.17-0.21-0.32-0.43-0.45-0.64c-0.06-0.08-0.1-0.15-0.15-0.23c-0.08-0.14-0.15-0.28-0.23-0.42c-0.13-0.24-0.24-0.49-0.33-0.74
				c-0.06-0.13-0.11-0.27-0.15-0.39c-0.03-0.1-0.06-0.2-0.08-0.3c-0.03-0.11-0.06-0.21-0.08-0.32c0-0.01-0.01-0.03-0.01-0.04
				c-0.03-0.16-0.06-0.33-0.08-0.5c0-0.03,0-0.06,0-0.1c-0.03-0.19-0.04-0.37-0.04-0.56c0-2.01,1.05-3.95,3.02-5.82
				c0.11-0.1,0.22-0.21,0.34-0.31c0.12-0.1,0.23-0.21,0.35-0.31c0.37-0.31,0.76-0.62,1.17-0.92c0.55-0.41,1.15-0.81,1.79-1.2
				c0.31-0.19,0.65-0.39,0.99-0.6c0.34-0.19,0.69-0.39,1.05-0.58c0.37-0.19,0.74-0.38,1.12-0.58c0.58-0.28,1.18-0.56,1.8-0.85
				c1.24-0.57,2.57-1.12,3.99-1.65c0.71-0.27,1.44-0.54,2.19-0.8c0.5-0.18,1.01-0.35,1.54-0.53c0.52-0.17,1.04-0.34,1.59-0.51
				c0.54-0.17,1.08-0.34,1.64-0.51c0.551-0.16,1.12-0.32,1.7-0.49c21.55-6.14,55.47-10.1,93.62-10.1s72.07,3.96,93.62,10.1
				c0.57,0.17,1.14,0.33,1.7,0.49c0.55,0.17,1.1,0.34,1.64,0.51s1.07,0.34,1.59,0.51c0.521,0.18,1.03,0.35,1.54,0.53
				c0.75,0.26,1.48,0.53,2.181,0.8c1.42,0.53,2.76,1.08,4,1.65c0.619,0.29,1.22,0.57,1.8,0.85c0.38,0.2,0.75,0.39,1.12,0.58
				c0.359,0.19,0.71,0.39,1.05,0.58c0.34,0.2,0.67,0.4,0.99,0.6c0.64,0.39,1.239,0.79,1.79,1.2c0.409,0.3,0.8,0.61,1.17,0.92
				c0.119,0.1,0.229,0.21,0.35,0.31c0.24,0.21,0.45,0.41,0.66,0.62c1.76,1.77,2.7,3.62,2.7,5.51c0,0.22-0.021,0.45-0.04,0.66
				c-0.03,0.24-0.07,0.48-0.13,0.71c-0.011,0.01-0.011,0.02-0.011,0.03c-1.989,7.56-20.16,12.22-47.16,15.46l-22.279,0.28
				l-66.061,0.85L480.1,234.54z"/>
			<path style="fill:#0D72BA;" d="M647.82,216.8c-0.03,0.24-0.07,0.48-0.13,0.71C647.75,217.28,647.79,217.04,647.82,216.8z"/>
			<path style="fill:#C8C8C8;" d="M636.23,204.97c0.619,0.28,1.22,0.56,1.8,0.85C637.45,205.54,636.85,205.26,636.23,204.97z"/>
			<path style="fill:#C8C8C8;" d="M630.05,202.52c0.75,0.26,1.48,0.52,2.181,0.8C631.53,203.05,630.8,202.78,630.05,202.52z"/>
			<path style="fill:#C8C8C8;" d="M608.82,252.03c2.279,40.09,3.05,127.96,2.359,191.03C611,379.04,608.44,289.64,608.82,252.03z"/>
			<path style="fill:#33A048;" d="M611.18,443.06c0.69-63.069-0.08-150.939-2.359-191.03c7.3,54.26,5.43,232.22,0.229,258.081
				C610.77,500.22,611.27,474.75,611.18,443.06z"/>
			<path style="fill:#FFFFFF;" d="M606.32,238.42c0.81,2.62,2.14,7.24,2.5,13.61C607.97,245.71,607.13,241.04,606.32,238.42z"/>
			<path style="fill:#FAA41F;" d="M578.24,233.28L600.52,233c-1.55,0.19-3.14,0.37-4.75,0.55l-17.539,0.17L578.24,233.28z"/>
			<polygon style="fill:#FAA41F;" points="578.24,233.28 578.23,233.72 544.25,234.04 512.18,234.34 512.18,234.13 			"/>
			<path style="fill:#FAA41F;" d="M578.23,233.72l-0.021,1.51c-10.61,0.89-22.03,1.66-33.979,2.37l0.02-3.35v-0.21L578.23,233.72z"
				/>
			<path style="fill:#0D72BA;" d="M578.21,235.23l-0.06,4.43c-10.58,1.03-21.99,1.74-33.95,2.05l0.03-4.11
				C556.18,236.89,567.6,236.12,578.21,235.23z"/>
			<path style="fill:#33A048;" d="M578.15,239.66l-0.24,16.96c-10.73,1.14-22.07,1.89-33.83,2.21l0.12-17.12
				C556.16,241.4,567.57,240.69,578.15,239.66z"/>
			<path style="fill:#33A048;" d="M577.91,256.62l-3.66,259.63c-0.26,0.28-0.52,0.56-0.79,0.84c-13.33,1.99-25.66,3.16-34.53,3.43
				c1.15-0.76,2.261-1.52,3.32-2.27l1.83-259.42C555.84,258.51,567.18,257.76,577.91,256.62z"/>
			<path style="fill:#33A048;" d="M538.93,520.52c8.87-0.27,21.2-1.439,34.53-3.43c-49.8,52.71-187.57,99.58-437.59,120.08
				c-11.7-2.81-21.42-6.22-28.69-10.17l-0.29-2.82C352.9,598.75,488.21,554.25,538.93,520.52z"/>
			<path style="fill:#FAA41F;" d="M544.25,234.04v0.21l-0.02,3.35c-4.83,0.28-9.75,0.55-14.73,0.82
				c-5.95,0.32-11.79,0.51-17.49,0.59l0.17-4.67L544.25,234.04z"/>
			<path style="fill:#0D72BA;" d="M544.23,237.6l-0.03,4.11c-4.67,0.13-9.42,0.19-14.24,0.19c-6.13,0-12.16-0.1-18.04-0.3l0.09-2.59
				c5.7-0.08,11.54-0.27,17.49-0.59C534.48,238.15,539.4,237.88,544.23,237.6z"/>
			<polygon style="fill:#FAA41F;" points="512.18,234.13 512.18,234.34 480.1,234.64 480.1,234.54 			"/>
			<path style="fill:#FAA41F;" d="M512.18,234.34l-0.17,4.67c-11.33,0.16-22.12-0.15-32.14-0.84l0.229-3.53L512.18,234.34z"/>
			<path style="fill:#0D72BA;" d="M512.01,239.01l-0.09,2.59c-11.33-0.38-22.12-1.12-32.14-2.15l0.09-1.28
				C489.89,238.86,500.68,239.17,512.01,239.01z"/>
			<path style="fill:#FAA41F;" d="M511.92,241.6l-0.6,17.04c-11.36-0.46-22.29-1.32-32.61-2.53l1.07-16.66
				C489.8,240.48,500.59,241.22,511.92,241.6z"/>
			<path style="fill:#FAA41F;" d="M480.1,234.54v0.1l-28.35,0.27c-0.01,0-0.02,0-0.03-0.01L480.1,234.54z"/>
			<path style="fill:#FAA41F;" d="M480.1,234.64l-0.229,3.53c-10.271-0.71-19.73-1.82-28.12-3.26L480.1,234.64z"/>
			<path style="fill:#ED1D31;" d="M478.71,256.11l-16.46,254.14c-1.65,0.41-3.38,0.84-5.19,1.28
				c-14.819-3.46-28.64-7.811-38.2-12.95c-1.47-0.79-2.86-1.61-4.18-2.44c22.99-6.59,16.54-189.899,28.93-246
				C454.19,252.6,465.99,254.62,478.71,256.11z"/>
			<path style="fill:#ED1D31;" d="M451.75,234.91l-1.07,0.01l1.04-0.02C451.73,234.91,451.74,234.91,451.75,234.91z"/>
			<path style="fill:#FFFFFF;" d="M451.72,234.9l-1.04,0.02h-0.67c-0.05,0.04-0.09,0.08-0.14,0.11
				c-13.71-2.77-24.39-6.24-30.85-10.17C425.76,228.92,437.11,232.4,451.72,234.9z"/>
			<path style="fill:#C8C8C8;" d="M389.93,244.31v-25.26c1.63,12.61,22.26,23.78,53.68,31.09c-12.391,56.1-5.94,239.41-28.93,246
				c-24.86-15.63-24.75-38.159-24.75-38.159V244.31z"/>
			<path style="fill:#C8C8C8;" d="M427.68,203.32c0.71-0.28,1.44-0.54,2.19-0.8C429.12,202.78,428.39,203.05,427.68,203.32z"/>
			<path style="fill:#C8C8C8;" d="M421.89,205.82c0.58-0.29,1.18-0.57,1.8-0.85C423.07,205.26,422.47,205.54,421.89,205.82z"/>
			<path style="fill:#ED1D31;" d="M418.86,498.58c9.56,5.14,23.38,9.49,38.2,12.95c-58.26,14.35-194.53,44.5-346.459,73.149
				c36-24.96,128.1-55.63,303.65-88.43c0.15-0.03,0.29-0.06,0.43-0.11C416,496.97,417.39,497.79,418.86,498.58z"/>
			<path style="fill:#C8C8C8;" d="M418.73,207.58c0.31-0.2,0.65-0.4,0.99-0.6C419.38,207.19,419.04,207.39,418.73,207.58z"/>
			<path style="fill:#FFFFFF;" d="M418.38,224.47c0.21,0.13,0.42,0.26,0.64,0.39C418.8,224.74,418.59,224.6,418.38,224.47z"/>
			<path style="fill:#ED1D31;" d="M415.88,222.66c0.21,0.17,0.42,0.35,0.66,0.52C416.31,223.02,416.09,222.84,415.88,222.66z"/>
			<path style="fill:#ED1D31;" d="M414.76,221.64c0.11,0.1,0.21,0.21,0.32,0.31C414.96,221.85,414.85,221.75,414.76,221.64z"/>
			<path style="fill:#ED1D31;" d="M414.18,221.01c0.18,0.21,0.37,0.42,0.58,0.63C414.54,221.43,414.35,221.22,414.18,221.01z"/>
		</g>
		<g>
			<path style="fill:none;stroke:#000000;stroke-width:14;" d="M608.82,252.03c7.3,54.26,5.43,232.22,0.229,258.081"/>
			<path style="fill:none;stroke:#000000;stroke-width:14;" d="M606.32,238.42c0.81,2.62,1.649,7.29,2.5,13.61"/>
			<path style="fill:none;stroke:#000000;stroke-width:14;" d="M609.05,510.11c1.72-9.891,2.22-35.36,2.13-67.051
				c-0.18-64.02-2.739-153.419-2.359-191.03"/>
			<path style="fill:none;stroke:#000000;stroke-width:10.5592;" d="M427.68,203.32c0.71-0.27,1.44-0.54,2.19-0.8"/>
			<path style="fill:none;stroke:#000000;stroke-width:10.5592;" d="M421.89,205.82c0.58-0.28,1.18-0.56,1.8-0.85"/>
			<path style="fill:none;stroke:#000000;stroke-width:10.5592;" d="M418.73,207.58c0.31-0.19,0.65-0.39,0.99-0.6"/>
			<path style="fill:none;stroke:#000000;stroke-width:10.5592;" d="M415.08,221.95c-0.11-0.1-0.21-0.21-0.32-0.31
				c-0.21-0.21-0.4-0.42-0.58-0.63"/>
			<path style="fill:none;stroke:#000000;stroke-width:10.5592;" d="M416.54,223.18c-0.24-0.17-0.45-0.35-0.66-0.52"/>
			<path style="fill:none;stroke:#000000;stroke-width:10.5592;" d="M449.87,235.03c-13.71-2.77-24.39-6.24-30.85-10.17
				c-0.22-0.12-0.43-0.26-0.64-0.39"/>
			<path style="fill:none;stroke:#000000;stroke-width:10.5592;" d="M647.68,217.54c-1.81,7.34-17.67,13.87-41.83,18.3"/>
			<path style="fill:none;stroke:#000000;stroke-width:10.5592;" d="M647.82,216.8c-0.03,0.24-0.07,0.48-0.13,0.71"/>
			<path style="fill:none;stroke:#000000;stroke-width:10.5592;" d="M636.23,204.97c0.619,0.29,1.22,0.57,1.8,0.85"/>
			<path style="fill:none;stroke:#000000;stroke-width:10.5592;" d="M630.05,202.52c0.75,0.26,1.48,0.53,2.181,0.8"/>
			<path style="fill:none;stroke:#000000;stroke-width:10.5592;" d="M443.61,250.14c-31.42-7.31-52.05-18.48-53.68-31.09
				c-0.05-0.53-0.1-1.07-0.1-1.6c0-22.97,63.04-41.6,140.81-41.6c77.75,0,140.79,18.63,140.79,41.6c0,0.98-0.12,1.97-0.35,2.94
				c-3.13,13.2-27.1,24.7-62.26,31.64"/>
			<path style="fill:none;stroke:#000000;stroke-width:10.5592;" d="M412.1,216.7c-0.03-0.19-0.04-0.37-0.04-0.56
				c0-2.01,1.05-3.95,3.02-5.82c0.11-0.1,0.22-0.21,0.34-0.31c0.12-0.1,0.23-0.21,0.35-0.31c0.37-0.31,0.76-0.62,1.17-0.92
				c0.55-0.41,1.15-0.81,1.79-1.2c0.31-0.2,0.65-0.4,0.99-0.6c0.34-0.19,0.69-0.39,1.05-0.58c0.37-0.19,0.74-0.38,1.12-0.58
				c0.58-0.29,1.18-0.57,1.8-0.85c1.24-0.57,2.57-1.12,3.99-1.65c0.71-0.28,1.44-0.54,2.19-0.8c0.5-0.18,1.01-0.35,1.54-0.53
				c0.52-0.17,1.04-0.34,1.59-0.51c0.54-0.17,1.08-0.34,1.64-0.51c0.551-0.16,1.12-0.32,1.7-0.49c21.55-6.14,55.47-10.1,93.62-10.1
				s72.07,3.96,93.62,10.1c0.57,0.17,1.14,0.33,1.7,0.49c0.55,0.17,1.1,0.34,1.64,0.51s1.07,0.34,1.59,0.51
				c0.521,0.18,1.03,0.35,1.54,0.53c0.75,0.26,1.48,0.52,2.181,0.8c1.42,0.53,2.76,1.08,4,1.65c0.619,0.28,1.22,0.56,1.8,0.85
				c0.38,0.2,0.75,0.39,1.12,0.58c0.359,0.19,0.71,0.39,1.05,0.58c0.34,0.2,0.67,0.4,0.99,0.6c0.64,0.39,1.239,0.79,1.79,1.2
				c0.409,0.3,0.8,0.61,1.17,0.92c0.119,0.1,0.229,0.21,0.35,0.31c0.24,0.21,0.45,0.41,0.66,0.62c1.76,1.77,2.7,3.62,2.7,5.51
				c0,0.22-0.021,0.45-0.04,0.66c-0.03,0.24-0.07,0.48-0.13,0.71c-0.011,0.01-0.011,0.02-0.011,0.03
				c-1.989,7.56-20.16,12.22-47.16,15.46"/>
			<path style="fill:none;stroke:#000000;stroke-width:10.5592;" d="M413.66,220.38c-0.17-0.21-0.32-0.43-0.45-0.64"/>
			<path style="fill:none;stroke:#000000;stroke-width:10.5592;" d="M415.08,221.95c-0.12-0.1-0.23-0.2-0.32-0.31
				c-0.22-0.21-0.41-0.42-0.58-0.63"/>
			<path style="fill:none;stroke:#000000;stroke-width:10.5592;" d="M451.75,234.91c-0.01,0-0.02,0-0.03-0.01
				c-14.609-2.5-25.96-5.98-32.7-10.04c-0.22-0.13-0.43-0.26-0.64-0.39c-0.66-0.42-1.28-0.84-1.84-1.29
				c-0.23-0.16-0.45-0.34-0.66-0.52c-0.06-0.04-0.12-0.09-0.18-0.14c-0.1-0.09-0.19-0.16-0.28-0.25"/>
			<path style="fill:none;stroke:#000000;stroke-width:10.5592;" d="M414.68,496.14c-24.86-15.63-24.75-38.159-24.75-38.159V244.31
				v-25.26v-1.87"/>
			<path style="fill:none;stroke:#000000;stroke-width:10.5592;" d="M671.08,218.35v2.04v23.98v213.42c0,0,0.13,24.979-28.92,40.6
				c-8.46,4.551-20.25,8.48-33.11,11.721"/>
			<path style="fill:none;stroke:#000000;stroke-width:10.5592;" d="M671.65,244.37h15.159v-28.22
				c0-80.28-69.17-145.37-154.5-145.37l-2.729-0.06c-85.33,0-154.52,65.1-154.52,145.37v28.22h14.87h0.31"/>
			<path style="fill:none;stroke:#000000;stroke-width:14;" d="M450.01,234.92c-0.05,0.04-0.09,0.08-0.14,0.11
				c-2.521,2.13-4.57,7.44-6.26,15.11c-12.391,56.1-5.94,239.41-28.93,246c-0.14,0.051-0.28,0.08-0.43,0.11
				c-175.55,32.8-267.65,63.47-303.65,88.43c-8.84,6.12-14.29,11.9-16.77,17.29c-4.5,9.74,0.75,18.19,13.35,25.03
				c7.27,3.95,16.99,7.36,28.69,10.17c108.84,26.15,389.45,0.71,471.61-124.68c0.46-0.7,1.449-1.3,1.569-2.38
				c1.07-9.98,1.78-35.391,2.13-67.051c0.69-63.069-0.08-150.939-2.359-191.03c-0.36-6.37-1.69-10.99-2.5-13.61"/>
			<polyline style="fill:none;stroke:#000000;stroke-width:11.6904;" points="603.54,232.96 600.52,233 578.24,233.28 
				512.18,234.13 480.1,234.54 451.72,234.9 450.68,234.92 			"/>
			<polyline style="fill:none;stroke:#000000;stroke-width:11.6904;" points="450.01,234.92 450.68,234.92 451.75,234.91 
				480.1,234.64 512.18,234.34 544.25,234.04 578.23,233.72 595.77,233.55 609.66,233.41 			"/>
			<polyline style="fill:none;stroke:#000000;stroke-width:7;" points="578.25,232.25 578.24,233.28 578.23,233.72 578.21,235.23 
				578.15,239.66 577.91,256.62 574.25,516.25 			"/>
			<path style="fill:none;stroke:#000000;stroke-width:7;" d="M574.25,516.25c-0.26,0.28-0.52,0.56-0.79,0.84
				c-49.8,52.71-187.57,99.58-437.59,120.08c-4.5,0.37-9.04,0.73-13.62,1.08"/>
			<polyline style="fill:none;stroke:#000000;stroke-width:7;" points="544.25,234.25 544.23,237.6 544.2,241.71 544.08,258.83 
				542.25,518.25 			"/>
			<polyline style="fill:none;stroke:#000000;stroke-width:7;" points="512.25,232.25 512.18,234.13 512.18,234.34 512.01,239.01 
				511.92,241.6 511.32,258.64 502.25,516.25 			"/>
			<polyline style="fill:none;stroke:#000000;stroke-width:7;" points="480.25,232.25 480.1,234.54 480.1,234.64 479.87,238.17 
				479.78,239.45 478.71,256.11 462.25,510.25 			"/>
			<path style="fill:none;stroke:#000000;stroke-width:7;" d="M542.25,518.25c-1.06,0.75-2.17,1.51-3.32,2.27
				c-50.72,33.73-186.03,78.23-432.04,103.66c-0.21,0.03-0.43,0.051-0.64,0.07"/>
			<path style="fill:none;stroke:#000000;stroke-width:7;" d="M502.25,516.25c-1.61,0.78-3.29,1.56-5.03,2.35
				c-56.689,25.67-183.65,58.431-400.97,83.65"/>
			<path style="fill:none;stroke:#000000;stroke-width:7;" d="M462.25,510.25c-1.65,0.41-3.38,0.84-5.19,1.28
				c-58.26,14.35-194.53,44.5-346.459,73.149c-2.78,0.521-5.56,1.051-8.35,1.57"/>
		</g>
	</g>
</g>
<rect x="0.25" y="0.25" style="fill:none;" width="850.394" height="850.394"/>
</svg>
