<?xml version="1.0" encoding="iso-8859-1"?>
<!-- Generator: Adobe Illustrator 12.0.1, SVG Export Plug-In . SVG Version: 6.00 Build 51448)  -->
<!DOCTYPE svg PUBLIC "-//W3C//DTD SVG 1.1//EN" "http://www.w3.org/Graphics/SVG/1.1/DTD/svg11.dtd" [
	<!ENTITY ns_svg "http://www.w3.org/2000/svg">
	<!ENTITY ns_xlink "http://www.w3.org/1999/xlink">
]>
<svg  version="1.1" id="Layer_1" xmlns="&ns_svg;" xmlns:xlink="&ns_xlink;" width="850.394" height="850.394"
	 viewBox="0 0 850.394 850.394" style="overflow:visible;enable-background:new 0 0 850.394 850.394;" xml:space="preserve">
<g id="XMLID_15_">
	<g>
		<polygon style="fill:#F8D2E5;" points="745.56,415.66 761.9,496.56 696.33,508.92 680,428.11 		"/>
		<polygon style="fill:#A3D9FF;" points="729.12,334.95 745.56,415.66 680,428.11 663.65,347.31 		"/>
		<polygon style="fill:#F8D2E5;" points="712.78,254.05 729.12,334.95 663.65,347.31 647.22,266.5 		"/>
		<polygon style="fill:#FFF400;" points="696.43,173.24 712.78,254.05 647.22,266.5 630.88,185.7 		"/>
		<path style="fill:#FFEEC8;" d="M711.68,155.21c4.391,22.61,63.271,332.19,67.65,355.31c-22.811,4.07-275.59,49.021-297.811,53
			c-0.8-4.09-18.529-96.75-18.529-96.75l-15.54-81.399l-15.851-83.3l-15.939-83.59l-1.89-10.26
			C436.49,204.13,689.46,159.2,711.68,155.21z M761.9,496.56L745.56,415.66l-16.439-80.71l-16.34-80.9l-16.351-80.81l-65.55,12.46
			l-65.56,12.35l-65.471,12.36l-65.56,12.45l16.34,80.81l16.44,80.8l16.34,80.81l16.35,80.8l65.561-12.35l65.56-12.351v-0.1
			l65.45-12.36L761.9,496.56z"/>
		<polygon style="fill:#FFEEC8;" points="680,428.11 696.33,508.92 630.88,521.28 614.44,440.47 		"/>
		<polygon style="fill:#FFF400;" points="663.65,347.31 680,428.11 614.44,440.47 598.1,359.76 		"/>
		<polygon style="fill:#FFEEC8;" points="647.22,266.5 663.65,347.31 598.1,359.76 581.66,278.86 		"/>
		<polygon style="fill:#FFEEC8;" points="630.88,185.7 647.22,266.5 581.66,278.86 565.32,198.05 		"/>
		<polygon style="fill:#FFEEC8;" points="630.88,521.28 630.88,521.38 565.32,533.73 548.97,452.92 614.44,440.47 		"/>
		<polygon style="fill:#FFEEC8;" points="598.1,359.76 614.44,440.47 548.97,452.92 532.63,372.12 		"/>
		<polygon style="fill:#A3D9FF;" points="581.66,278.86 598.1,359.76 532.63,372.12 516.19,291.21 		"/>
		<polygon style="fill:#F8D2E5;" points="565.32,198.05 581.66,278.86 516.19,291.21 499.85,210.41 		"/>
		<polygon style="fill:#FFF400;" points="548.97,452.92 565.32,533.73 499.76,546.08 483.41,465.28 		"/>
		<polygon style="fill:#FFF400;" points="532.63,372.12 548.97,452.92 483.41,465.28 467.07,384.47 		"/>
		<polygon style="fill:#A3D9FF;" points="516.19,291.21 532.63,372.12 467.07,384.47 450.63,303.67 		"/>
		<polygon style="fill:#FFF400;" points="499.85,210.41 516.19,291.21 450.63,303.67 434.29,222.86 		"/>
		<polygon style="fill:#FFEEC8;" points="471.35,547.08 474.15,566.21 468.97,567.01 467.17,557.45 465.38,547.98 465.78,547.88 		
			"/>
		<polygon style="fill:#FFEEC8;" points="467.17,557.45 468.97,567.01 468.46,567.11 459.3,568.3 457.3,558.04 455.61,549.27 
			465.38,547.98 		"/>
		<polygon points="459.3,568.3 463.99,592.91 460.89,593.41 456.21,568.7 		"/>
		<path d="M451.53,595.1l-336.28,59.78L37.84,248.77l322.52-57.29c0,0,6.48,2.99,12.95,3.98c5.09,0.8,9.67,0.5,12.36,0.2
			c-0.2,0.1-0.3,0.1-0.3,0.1l3.19,17.34l-9.37,1.3l-0.5,0.09l-2.39-12.75L52.98,259.23l72.53,380.71l323.33-57.49l-2.399-12.55
			l9.77-1.2l4.68,24.71L451.53,595.1z"/>
		<polygon style="fill:#FFEEC8;" points="457.3,558.04 459.3,568.3 456.21,568.7 454.52,559.83 452.53,549.67 455.61,549.27 		"/>
		<polygon style="fill:#FFEEC8;" points="455.32,458.7 458.1,477.83 452.13,478.63 450.34,469.16 448.54,459.7 448.94,459.6 		"/>
		<polygon style="fill:#FFEEC8;" points="454.52,559.83 456.21,568.7 446.44,569.9 444.65,560.43 442.86,550.97 443.36,550.87 
			452.53,549.67 		"/>
		<polygon points="442.36,480.02 455.61,549.27 452.53,549.67 439.37,480.42 		"/>
		<polygon points="439.37,480.42 452.53,549.67 443.36,550.87 442.86,550.97 429.61,481.72 		"/>
		<polygon style="fill:#FFEEC8;" points="450.34,469.16 452.13,478.63 451.63,478.73 442.36,480.02 440.47,469.87 438.78,460.99 
			448.54,459.7 		"/>
		<polygon points="452.13,478.63 465.38,547.98 455.61,549.27 442.36,480.02 451.63,478.73 		"/>
		<path d="M462.99,466.77c0,0,17.729,92.66,18.529,96.75c22.221-3.979,275-48.93,297.811-53c-4.38-23.119-63.26-332.7-67.65-355.31
			c-22.22,3.99-275.189,48.92-297.91,53.01l1.89,10.26l15.939,83.59l15.851,83.3L462.99,466.77z M448.54,459.7l-11.96-62.48
			l4.689-0.59l-2.6-19.13l-5.18,0.7l-0.49,0.09l-12.26-64.26l4.08-0.5l-2.58-19.23l-4.59,0.6l-0.5,0.1l-12.35-64.67l5.98-0.79
			l-2.59-19.13l-6.98,0.99l-2.59-13.65l323.42-57.48l72.44,380.71L471.16,578.46l-2.19-11.45l5.181-0.8l-2.801-19.13l-5.569,0.8
			l-0.4,0.101l-13.25-69.351l5.97-0.8l-2.779-19.13l-6.38,0.899L448.54,459.7z"/>
		<polygon style="fill:#FFEEC8;" points="444.65,560.43 446.44,569.9 446.05,570 441.27,570.7 438.48,551.56 442.86,550.97 		"/>
		<polygon style="fill:#FFEEC8;" points="440.47,469.87 442.36,480.02 439.37,480.42 435.69,461.39 438.78,460.99 		"/>
		<polygon style="fill:#FFEEC8;" points="435.69,461.39 439.37,480.42 429.61,481.72 427.82,472.25 426.02,462.79 426.52,462.68 		
			"/>
		<polygon points="426.92,398.62 438.78,460.99 435.69,461.39 423.83,399.12 		"/>
		<polygon points="436.58,397.22 448.54,459.7 438.78,460.99 426.92,398.62 436.18,397.33 		"/>
		<polygon style="fill:#FFEEC8;" points="434.79,387.76 436.58,397.22 436.18,397.33 426.92,398.62 425.02,388.56 423.33,379.59 
			433,378.29 		"/>
		<polygon style="fill:#FFEEC8;" points="433.49,378.2 438.67,377.5 441.27,396.63 436.58,397.22 434.79,387.76 433,378.29 		"/>
		<polygon style="fill:#FFEEC8;" points="427.82,472.25 429.61,481.72 429.01,481.81 425.02,482.42 422.63,463.19 426.02,462.79 		
			"/>
		<polygon style="fill:#FFEEC8;" points="425.02,388.56 426.92,398.62 423.83,399.12 422.13,390.15 420.24,380.09 423.33,379.59 		
			"/>
		<polygon points="426.02,462.79 414.16,400.42 423.83,399.12 435.69,461.39 426.52,462.68 		"/>
		<polygon style="fill:#FFEEC8;" points="422.24,294.3 424.82,313.53 420.74,314.03 418.95,304.47 417.15,295 417.65,294.9 		"/>
		<polygon style="fill:#FFEEC8;" points="422.13,390.15 423.83,399.12 414.16,400.42 412.37,390.95 410.58,381.49 410.98,381.38 
			420.24,380.09 		"/>
		<polygon points="410.98,315.33 423.33,379.59 420.24,380.09 407.99,315.72 		"/>
		<polygon style="fill:#FFEEC8;" points="418.95,304.47 420.74,314.03 420.34,314.03 410.98,315.33 409.09,305.26 407.39,296.4 
			417.15,295 		"/>
		<polygon points="420.74,314.03 433,378.29 423.33,379.59 410.98,315.33 420.34,314.03 		"/>
		<polygon points="404.8,230.33 417.15,295 407.39,296.4 395.04,231.73 		"/>
		<polygon style="fill:#FFEEC8;" points="412.37,390.95 414.16,400.42 413.67,400.51 408.39,401.21 405.8,382.08 410.58,381.49 		
			"/>
		<polygon style="fill:#F8D2E5;" points="396.23,477.53 412.67,558.44 347.11,570.8 330.77,489.89 		"/>
		<polygon style="fill:#FFEEC8;" points="409.09,305.26 410.98,315.33 407.99,315.72 406.29,306.86 404.4,296.79 407.39,296.4 		"/>
		<polygon points="410.98,381.38 410.58,381.49 398.22,317.12 407.99,315.72 420.24,380.09 		"/>
		<polygon style="fill:#FFEEC8;" points="408.19,210.41 410.78,229.54 404.8,230.33 403,220.87 401.21,211.4 		"/>
		<polygon style="fill:#FFEEC8;" points="406.29,306.86 407.99,315.72 398.22,317.12 396.43,307.65 394.64,298.19 395.04,298.09 
			404.4,296.79 		"/>
		<polygon points="395.04,231.73 407.39,296.4 404.4,296.79 392.04,232.13 		"/>
		<polygon style="fill:#FFEEC8;" points="403,220.87 404.8,230.33 395.04,231.73 393.14,221.57 391.45,212.7 401.21,211.4 		"/>
		<polygon points="392.04,232.13 404.4,296.79 395.04,298.09 394.64,298.19 382.28,233.52 		"/>
		<polygon style="fill:#FFEEC8;" points="396.43,307.65 398.22,317.12 397.73,317.22 391.95,318.02 389.36,298.89 394.64,298.19 		
			"/>
		<polygon style="fill:#F8D2E5;" points="379.89,396.73 396.23,477.53 330.77,489.89 314.33,409.09 		"/>
		<polygon style="fill:#FFEEC8;" points="393.14,221.57 395.04,231.73 392.04,232.13 390.35,223.26 388.56,213.1 391.45,212.7 		"/>
		<polygon style="fill:#FFEEC8;" points="390.35,223.26 392.04,232.13 382.28,233.52 380.49,223.96 378.69,214.49 379.19,214.4 
			388.56,213.1 		"/>
		<path d="M386.96,195.46c2.4-0.59,7.18-1.89,11.56-4.18c6.18-3.29,8.97-8.27,8.97-8.27l324.91-57.69l77.22,406.121L476.14,590.72
			l-12.149,2.19l-4.69-24.61l9.16-1.189l0.51-0.101l2.19,11.45l323.32-57.479l-72.44-380.71l-323.42,57.48l2.59,13.65l-9.76,1.3
			l-3.19-17.44C388.26,195.26,387.76,195.36,386.96,195.46z"/>
		<path d="M388.26,195.26l3.19,17.44l-2.89,0.4l-3.19-17.34c0,0,0.1,0,0.3-0.1c0.06,0,0.12,0,0.17-0.02
			c0.17-0.01,0.34-0.04,0.5-0.06c0.07-0.01,0.15-0.02,0.22-0.02c0.11-0.1,0.2-0.1,0.4-0.1
			C387.76,195.36,388.26,195.26,388.26,195.26z"/>
		<path d="M385.84,195.64c0.14-0.02,0.3-0.05,0.5-0.06C386.18,195.6,386.01,195.63,385.84,195.64z"/>
		<polygon style="fill:#FFEEC8;" points="380.49,223.96 382.28,233.52 381.69,233.62 377.8,234.12 375.4,214.89 378.69,214.49 		"/>
		<path style="fill:#FFEEC8;" d="M365.94,216.69c0.9,4.78,1.89,9.66,1.89,9.66l15.95,83.69l15.94,83.3l15.44,81.3L432,562.83
			l1.69,9.16c-22.811,4.09-275.59,49.02-297.911,53c-4.29-22.61-63.27-332.18-67.65-355.3C90.94,265.6,343.62,220.67,365.94,216.69z
			 M134.18,527.16l16.35,80.8l65.46-12.35l65.56-12.36l65.56-12.45l65.56-12.359l-16.44-80.91l-16.34-80.8l-16.34-80.81h-0.1
			l-16.34-80.8l-65.46,12.35l-65.56,12.46l-65.56,12.35l-65.57,12.36l16.44,80.8l16.35,80.91l16.34,80.811H134.18z"/>
		<polygon style="fill:#F8D2E5;" points="363.55,315.92 379.89,396.73 314.33,409.09 297.99,328.28 363.45,315.92 		"/>
		<polygon style="fill:#FFF400;" points="347.11,235.12 363.45,315.92 297.99,328.28 281.65,247.47 		"/>
		<polygon style="fill:#FFEEC8;" points="330.77,489.89 347.11,570.8 281.55,583.25 281.55,583.15 265.21,502.34 		"/>
		<polygon style="fill:#FFEEC8;" points="314.33,409.09 330.77,489.89 265.21,502.34 248.87,421.54 		"/>
		<polygon style="fill:#FFEEC8;" points="297.99,328.28 314.33,409.09 248.87,421.54 232.43,340.73 		"/>
		<polygon style="fill:#FFEEC8;" points="281.65,247.47 297.99,328.28 232.43,340.73 216.09,259.93 		"/>
		<polygon style="fill:#A3D9FF;" points="281.55,583.15 281.55,583.25 215.99,595.61 215.99,595.5 199.65,514.7 265.21,502.34 		"/>
		<polygon style="fill:#A3D9FF;" points="248.87,421.54 265.21,502.34 199.65,514.7 183.31,434 		"/>
		<polygon style="fill:#FFEEC8;" points="232.43,340.73 248.87,421.54 183.31,434 166.87,353.09 		"/>
		<polygon style="fill:#FFEEC8;" points="216.09,259.93 232.43,340.73 166.87,353.09 150.53,272.28 		"/>
		<polygon style="fill:#A3D9FF;" points="215.99,595.61 150.53,607.96 134.18,527.16 199.65,514.7 215.99,595.5 		"/>
		<polygon style="fill:#A3D9FF;" points="183.31,434 199.65,514.7 134.18,527.16 134.09,527.16 117.75,446.35 		"/>
		<polygon style="fill:#FFF400;" points="166.87,353.09 183.31,434 117.75,446.35 101.4,365.44 		"/>
		<polygon style="fill:#FFF400;" points="150.53,272.28 166.87,353.09 101.4,365.44 84.96,284.64 		"/>
		<path d="M68.13,269.69c4.38,23.12,63.36,332.69,67.65,355.3c22.32-3.98,275.1-48.91,297.911-53l-1.69-9.16l-16.84-88.19
			l-15.44-81.3l-15.94-83.3l-15.95-83.69c0,0-0.99-4.88-1.89-9.66C343.62,220.67,90.94,265.6,68.13,269.69z M446.44,569.9
			l2.399,12.55l-323.33,57.49L52.98,259.23l323.32-57.49l2.39,12.75l-3.29,0.4l2.4,19.23l3.89-0.5l0.59-0.1l12.36,64.67l-5.28,0.7
			l2.59,19.13l5.78-0.8l0.49-0.1l12.36,64.37l-4.78,0.59l2.59,19.13l5.28-0.7l0.49-0.09l11.859,62.37l-3.39,0.4l2.39,19.229
			l3.99-0.61l0.601-0.09l13.25,69.25l-4.38,0.59l2.789,19.141l4.78-0.7L446.44,569.9z"/>
	</g>
	<g>
		<polyline style="fill:none;stroke:#000000;stroke-width:12.9252;" points="134.09,527.16 117.75,446.35 101.4,365.44 
			84.96,284.64 150.53,272.28 216.09,259.93 281.65,247.47 347.11,235.12 363.45,315.92 		"/>
		<polyline style="fill:none;stroke:#000000;stroke-width:12.9252;" points="363.55,315.92 379.89,396.73 396.23,477.53 
			412.67,558.44 347.11,570.8 281.55,583.25 215.99,595.61 150.53,607.96 134.18,527.16 		"/>
		<polyline style="fill:none;stroke:#000000;stroke-width:12.9252;" points="134.09,527.16 134.18,527.16 199.65,514.7 
			265.21,502.34 330.77,489.89 396.23,477.53 		"/>
		<polyline style="fill:none;stroke:#000000;stroke-width:12.9252;" points="117.75,446.35 183.31,434 248.87,421.54 314.33,409.09 
			379.89,396.73 		"/>
		<polyline style="fill:none;stroke:#000000;stroke-width:12.9252;" points="101.4,365.44 166.87,353.09 232.43,340.73 
			297.99,328.28 363.45,315.92 363.55,315.92 		"/>
		<polyline style="fill:none;stroke:#000000;stroke-width:12.9252;" points="281.65,247.47 297.99,328.28 314.33,409.09 
			330.77,489.89 347.11,570.8 		"/>
		<polyline style="fill:none;stroke:#000000;stroke-width:12.9252;" points="216.09,259.93 232.43,340.73 248.87,421.54 
			265.21,502.34 281.55,583.15 		"/>
		<polyline style="fill:none;stroke:#000000;stroke-width:12.9252;" points="150.53,272.28 166.87,353.09 183.31,434 199.65,514.7 
			215.99,595.5 		"/>
		<polyline style="fill:none;stroke:#000000;stroke-width:12.9252;" points="630.88,521.38 565.32,533.73 499.76,546.08 
			483.41,465.28 467.07,384.47 450.63,303.67 434.29,222.86 499.85,210.41 565.32,198.05 630.88,185.7 696.43,173.24 712.78,254.05 
			729.12,334.95 745.56,415.66 761.9,496.56 696.33,508.92 630.88,521.28 		"/>
		<polyline style="fill:none;stroke:#000000;stroke-width:12.9252;" points="483.41,465.28 548.97,452.92 614.44,440.47 680,428.11 
			745.56,415.66 		"/>
		<polyline style="fill:none;stroke:#000000;stroke-width:12.9252;" points="467.07,384.47 532.63,372.12 598.1,359.76 
			663.65,347.31 729.12,334.95 		"/>
		<polyline style="fill:none;stroke:#000000;stroke-width:12.9252;" points="450.63,303.67 516.19,291.21 581.66,278.86 
			647.22,266.5 712.78,254.05 		"/>
		<polyline style="fill:none;stroke:#000000;stroke-width:12.9252;" points="630.88,185.7 647.22,266.5 663.65,347.31 680,428.11 
			696.33,508.92 		"/>
		<polyline style="fill:none;stroke:#000000;stroke-width:12.9252;" points="565.32,198.05 581.66,278.86 598.1,359.76 
			614.44,440.47 630.88,521.28 630.88,521.38 		"/>
		<polyline style="fill:none;stroke:#000000;stroke-width:12.9252;" points="499.85,210.41 516.19,291.21 532.63,372.12 
			548.97,452.92 565.32,533.73 		"/>
		<path style="fill:none;stroke:#000000;stroke-width:19.3878;" d="M434.09,588.33c5.78,2.79,11.46,5.58,17.44,6.77
			c5.18,1.2,10.56,1.301,16.14-0.59c3.09-0.99,5.88-2.3,8.47-3.79c4.28-2.489,7.67-5.979,10.061-10.859"/>
	</g>
</g>
<polyline style="fill:none;" points="850.394,0 850.394,850.394 0,850.394 "/>
<rect style="fill:none;" width="850.394" height="850.394"/>
</svg>
