<?xml version="1.0" encoding="iso-8859-1"?>
<!-- Generator: Adobe Illustrator 12.0.1, SVG Export Plug-In . SVG Version: 6.00 Build 51448)  -->
<!DOCTYPE svg PUBLIC "-//W3C//DTD SVG 1.1//EN" "http://www.w3.org/Graphics/SVG/1.1/DTD/svg11.dtd" [
	<!ENTITY ns_svg "http://www.w3.org/2000/svg">
	<!ENTITY ns_xlink "http://www.w3.org/1999/xlink">
]>
<svg  version="1.1" id="Layer_1" xmlns="&ns_svg;" xmlns:xlink="&ns_xlink;" width="945.875" height="850.394"
	 viewBox="0 0 945.875 850.394" style="overflow:visible;enable-background:new 0 0 945.875 850.394;" xml:space="preserve">
<g id="XMLID_1_">
	<g>
		<rect x="719.85" y="374.92" style="fill:#231F20;" width="57.9" height="26.22"/>
		<path style="fill:#A8D7F4;" d="M716.3,260.2v189.29c0,2.25-0.28,4.43-0.819,6.51v-65.95V320.4c0-14.48-11.74-28.29-26.221-30.84
			l-240.09-42.34c-12.24-2.15-22.52,4.41-25.41,15.23v-2.25c0-14.49,11.74-26.23,26.221-26.23h240.1
			C704.56,233.97,716.3,245.71,716.3,260.2z"/>
		<path style="fill:#FFF5B4;" d="M715.48,509.69v69.649c0,14.48-11.74,21.78-26.221,16.311L449.17,504.9
			c-14.49-5.48-26.23-21.66-26.23-36.141V458.11c0,14.479,11.74,28.29,26.23,30.84l240.09,42.34
			C703.74,533.84,715.48,524.17,715.48,509.69z"/>
		<path style="fill:#FFF5B4;" d="M715.48,456v53.69c0,14.479-11.74,24.149-26.221,21.6l-240.09-42.34
			c-14.49-2.55-26.23-16.36-26.23-30.84V279.47c0-2.24,0.28-4.31,0.82-6.19v176.21c0,14.479,11.74,26.22,26.221,26.22h240.1
			C702.31,475.71,712.59,467.33,715.48,456z"/>
		<path style="fill:#FFF5B4;" d="M715.48,390.05V456c-2.891,11.33-13.171,19.71-25.4,19.71h-240.1
			c-14.48,0-26.221-11.74-26.221-26.22V273.28c2.88-10.25,13.16-14.75,25.41-10.12l240.09,90.76
			C703.74,359.38,715.48,375.57,715.48,390.05z"/>
		<path style="fill:#ABD150;" d="M715.48,320.4v69.65c0-14.48-11.74-30.67-26.221-36.13l-240.09-90.76
			c-12.25-4.63-22.53-0.13-25.41,10.12v-10.83c2.891-10.82,13.17-17.38,25.41-15.23l240.09,42.34
			C703.74,292.11,715.48,305.92,715.48,320.4z"/>
		<path style="fill:#FFF5B4;" d="M418.85,458.11v10.649c0,14.48-11.75,30.66-26.23,36.141l-240.09,90.75
			c-14.48,5.47-26.22-1.83-26.22-16.311V509.69c0,14.479,11.74,24.149,26.22,21.6l240.09-42.34
			C407.1,486.4,418.85,472.59,418.85,458.11z"/>
		<path style="fill:#FFF5B4;" d="M418.85,279.47v178.64c0,14.479-11.75,28.29-26.23,30.84l-240.09,42.34
			c-14.48,2.55-26.22-7.12-26.22-21.6v-53.65c2.92,11.31,13.18,19.67,25.4,19.67H391.8c14.49,0,26.23-11.74,26.23-26.22V273.28
			C418.57,275.16,418.85,277.23,418.85,279.47z"/>
		<path style="fill:#FFF5B4;" d="M418.03,273.28v176.21c0,14.479-11.74,26.22-26.23,26.22H151.71c-12.22,0-22.48-8.36-25.4-19.67
			v-65.99c0-14.48,11.74-30.67,26.22-36.13l240.09-90.76C404.86,258.53,415.15,263.03,418.03,273.28z"/>
		<path style="fill:#ABD150;" d="M418.03,262.45v10.83c-2.88-10.25-13.17-14.75-25.41-10.12l-240.09,90.76
			c-14.48,5.46-26.22,21.65-26.22,36.13V320.4c0-14.48,11.74-28.29,26.22-30.84l240.09-42.34
			C404.85,245.07,415.13,251.63,418.03,262.45z"/>
		<path style="fill:#A8D7F4;" d="M418.03,260.2v2.25c-2.9-10.82-13.18-17.38-25.41-15.23l-240.09,42.34
			c-14.48,2.55-26.22,16.36-26.22,30.84v69.65v65.99c-0.53-2.09-0.82-4.29-0.82-6.55V260.2c0-14.49,11.74-26.23,26.22-26.23H391.8
			C406.29,233.97,418.03,245.71,418.03,260.2z"/>
		<rect x="62.66" y="374.37" style="fill:#231F20;" width="57.91" height="26.22"/>
	</g>
	<g>
		<path style="fill:none;stroke:#231F20;stroke-width:19.6666;" d="M126.31,456.04c-0.53-2.09-0.82-4.29-0.82-6.55V260.2
			c0-14.49,11.74-26.23,26.22-26.23H391.8c14.49,0,26.23,11.74,26.23,26.23v2.25v10.83"/>
		<path style="fill:none;stroke:#231F20;stroke-width:19.6666;" d="M418.85,279.47v-10.65c0-2.25-0.28-4.38-0.82-6.37
			c-2.9-10.82-13.18-17.38-25.41-15.23l-240.09,42.34c-14.48,2.55-26.22,16.36-26.22,30.84v69.65"/>
		<path style="fill:none;stroke:#231F20;stroke-width:19.6666;" d="M418.85,458.11v10.649c0,14.48-11.75,30.66-26.23,36.141
			l-240.09,90.75c-14.48,5.47-26.22-1.83-26.22-16.311V509.69v-53.65v-65.99c0-14.48,11.74-30.67,26.22-36.13l240.09-90.76
			c12.24-4.63,22.53-0.13,25.41,10.12c0.54,1.88,0.82,3.95,0.82,6.19V458.11z"/>
		<path style="fill:none;stroke:#231F20;stroke-width:19.6666;" d="M715.48,456c0.539-2.08,0.819-4.26,0.819-6.51V260.2
			c0-14.49-11.74-26.23-26.22-26.23h-240.1c-14.48,0-26.221,11.74-26.221,26.23v2.25v10.83"/>
		<path style="fill:none;stroke:#231F20;stroke-width:19.6666;" d="M422.94,279.47v-10.65c0-2.25,0.28-4.38,0.82-6.37
			c2.891-10.82,13.17-17.38,25.41-15.23l240.09,42.34c14.48,2.55,26.221,16.36,26.221,30.84v69.65"/>
		<path style="fill:none;stroke:#231F20;stroke-width:19.6666;" d="M422.94,458.11v10.649c0,14.48,11.74,30.66,26.23,36.141
			l240.09,90.75c14.48,5.47,26.221-1.83,26.221-16.311V509.69V456v-65.95c0-14.48-11.74-30.67-26.221-36.13l-240.09-90.76
			c-12.25-4.63-22.53-0.13-25.41,10.12c-0.54,1.88-0.82,3.95-0.82,6.19V458.11z"/>
		<rect x="62.66" y="374.37" style="fill:none;stroke:#231F20;stroke-width:19.6666;" width="57.91" height="26.22"/>
		<rect x="719.85" y="374.92" style="fill:none;stroke:#231F20;stroke-width:19.6666;" width="57.9" height="26.22"/>
	</g>
</g>
<rect style="fill:none;" width="850.394" height="850.394"/>
<line style="fill:none;stroke:#231F20;stroke-width:14;" x1="130" y1="456" x2="422" y2="340"/>
<line style="fill:none;stroke:#231F20;stroke-width:14;" x1="134" y1="532" x2="418" y2="414"/>
<line style="fill:none;stroke:#231F20;stroke-width:14;" x1="422" y1="340" x2="720.3" y2="451.49"/>
<line style="fill:none;stroke:#231F20;stroke-width:14;" x1="428" y1="416" x2="718" y2="526"/>
<line style="fill:none;stroke:#231F20;stroke-width:14;" x1="286" y1="308" x2="286" y2="542"/>
<line style="fill:none;stroke:#231F20;stroke-width:14;" x1="572" y1="310" x2="572" y2="548"/>
<line style="fill:none;stroke:#231F20;stroke-width:14;" x1="280" y1="266" x2="280" y2="304"/>
<line style="fill:none;stroke:#231F20;stroke-width:14;" x1="568" y1="270" x2="566" y2="306"/>
<line style="fill:none;stroke:#231F20;stroke-width:14;" x1="945.875" y1="410" x2="945.75" y2="410"/>
<line style="fill:none;stroke:#231F20;stroke-width:14;" x1="594" y1="238" x2="592" y2="272"/>
<line style="fill:none;stroke:#231F20;stroke-width:14;" x1="258" y1="236" x2="258" y2="270"/>
<g id="XMLID_2_">
	<g>
		<path style="fill:#BD2025;" d="M242.242,390.391l-58.108,23.819c1.074-0.612,2.202-1.416,3.335-2.372
			c3.373-2.843,3.205-12.344,3.267-17.322c0.05-4,0.18-7.856,0.18-7.856c0.011-0.155,0.011-0.576,0.042-1.148
			c0.762-2.509,3.568-3.773,3.786-3.81l7.09-1.556c0,0,4.632-0.882,4.797-3.626c1.334,1.24,2.929,2.19,4.667,2.769
			c0.339,0.113,0.935,0.188,1.242,0.237l2.92,0.077c1.048,0,2.274-0.042,3.312-0.418c1.483-0.538,2.855-1.35,4.044-2.383
			l0.197,0.043c0,2.863,4.802,3.778,4.802,3.778c2.413,0.53,4.943,0.726,7.301,1.404
			C237.505,382.714,240.924,386.201,242.242,390.391z"/>
		<path style="fill:#FFEEC8;" d="M228.297,365.133c1.443,0.174,1.249,1.391,0.852,1.999c-0.963,1.478-0.522,2.021-0.644,3.149
			c-0.047,0.424-0.683,1.244-2.013,1.071c0.422-1.245,0.654-2.584,0.654-3.99c0-0.77-0.013-1.305-0.045-2.234
			c0.01,0.03,0.02,0.06,0.027,0.09l0.133-0.018c0.21-0.057,0.44-0.089,0.683-0.089C228.06,365.111,228.177,365.118,228.297,365.133z
			"/>
		<path style="fill:#9C5C25;" d="M228.691,362.259c0.129,0.82-0.179,1.686-0.369,2.552l-0.377,0.3c-0.243,0-0.473,0.032-0.683,0.089
			l-0.133,0.018c-0.008-0.03-0.017-0.06-0.027-0.09c-0.5-1.498-2.662-2.775-3.218-3.351c-2.992-3.108-5.258-4.277-5.816-4.537
			c-0.088-0.041-0.133-0.06-0.133-0.06c-0.006,0.003-0.012,0.006-0.018,0.009c-2.524,1.326-11.04,3.438-12.121,4.033
			c0,0-1.933,1.499-3.272,2.789c-0.481,0.463-0.887,0.899-1.097,1.229l-0.126-3.073c0-4.902,5.321-7.747,5.321-7.747
			c0.616-0.315,1.028-0.473,1.028-0.473c2.713-1.214,6.222-1.643,10.699-1.25C223.753,353.171,227.901,357.22,228.691,362.259z"/>
		<ellipse style="fill:#231F20;" cx="220.963" cy="366.248" rx="0.508" ry="0.34"/>
		<path style="fill:#FFFFFF;" d="M221.471,366.248c0-0.189-0.227-0.341-0.508-0.341c-0.28,0-0.508,0.152-0.508,0.341
			c0,0.188,0.228,0.34,0.508,0.34C221.244,366.588,221.471,366.436,221.471,366.248z M220.973,367.25c-0.779,0-1.41-0.453-1.41-1.01
			c0-0.079-0.015-0.115-0.018-0.147l-0.4-0.004c0.521-0.336,1.212-0.545,1.888-0.557c0.494-0.009,0.957,0.076,1.382,0.226
			l-0.07,0.169c0.05,0.089,0.035,0.16,0.035,0.313C222.379,366.797,221.748,367.25,220.973,367.25z"/>
		<path style="fill:#FFEEC8;" d="M206.631,376.52c-1.481-1.374-2.645-3.103-3.329-5.072c-0.442-1.272-0.684-2.644-0.684-4.086
			c0-0.462,0.001-1.272,0.01-2.054c0.005-0.439,0.013-0.868,0.023-1.223l-0.127-0.074c1.339-1.29,3.272-2.789,3.272-2.789
			c1.081-0.595,9.597-2.708,12.121-4.033c0.029,0.019,0.082,0.036,0.15,0.051c0.558,0.259,2.824,1.428,5.816,4.537
			c0.556,0.576,2.718,1.853,3.218,3.351c0.032,0.929,0.045,1.464,0.045,2.234c0,1.406-0.231,2.745-0.654,3.99
			c-0.728,2.146-2.023,4.012-3.677,5.45c-1.188,1.033-2.561,1.845-4.044,2.383c-1.038,0.376-2.264,0.418-3.312,0.418l-2.92-0.077
			c-0.307-0.049-0.903-0.124-1.242-0.237C209.56,378.71,207.965,377.76,206.631,376.52z M215.37,372.942l0.121-0.005
			c-0.023,0-0.046,0-0.068-0.001C215.405,372.938,215.388,372.94,215.37,372.942z M221.033,365.532
			c-0.676,0.011-1.367,0.221-1.888,0.557l0.4,0.004c0.002,0.032,0.018,0.068,0.018,0.147c0,0.558,0.631,1.01,1.41,1.01
			c0.774,0,1.406-0.453,1.406-1.01c0-0.152,0.015-0.224-0.035-0.313l0.07-0.169C221.99,365.607,221.527,365.523,221.033,365.532z
			 M207.933,366.018c-0.019,0.065-0.01,0.134-0.01,0.251c0,0.56,0.632,1.011,1.409,1.011c0.779,0,1.408-0.452,1.408-1.011
			l0.272-0.237c-0.5-0.284-1.127-0.459-1.741-0.469c-0.677-0.011-1.292,0.15-1.833,0.416L207.933,366.018z"/>
		<ellipse style="fill:#231F20;" cx="209.326" cy="366.25" rx="0.508" ry="0.341"/>
		<path style="fill:#FFFFFF;" d="M209.326,365.909c-0.281,0-0.509,0.152-0.509,0.341c0,0.188,0.228,0.34,0.509,0.34
			c0.28,0,0.508-0.152,0.508-0.34C209.834,366.062,209.606,365.909,209.326,365.909z M207.438,365.979
			c0.541-0.266,1.156-0.427,1.833-0.416c0.614,0.01,1.241,0.185,1.741,0.469l-0.272,0.237c0,0.56-0.629,1.011-1.408,1.011
			c-0.777,0-1.409-0.452-1.409-1.011c0-0.117-0.008-0.186,0.01-0.251L207.438,365.979z"/>
		<path style="fill:#FFEEC8;" d="M202.618,367.362c0,1.442,0.242,2.814,0.684,4.086l-0.027,0.005
			c-1.357,0.195-2.007-0.637-2.054-1.065c-0.122-1.128,0.319-1.672-0.645-3.15c-0.396-0.606-0.59-1.822,0.851-1.998h0.001
			c0.378-0.046,0.726-0.017,1.037,0.066l0.163,0.001C202.619,366.089,202.618,366.9,202.618,367.362z"/>
		<path style="fill:#BD2025;" d="M184.134,414.209c-1.727,0.984-3.312,1.474-4.538,1.298c-3.321-0.475-4.825-4.531-5.331-7.402
			c-0.45-2.561,1.469-8.076,1.469-8.076l6.415-13.984l0.105,0.007l8.662,0.608c0,0-0.13,3.856-0.18,7.856
			c-0.063,4.978,0.105,14.479-3.267,17.322C186.336,412.793,185.208,413.598,184.134,414.209z"/>
		<path style="fill:#FFEEC8;" d="M192.199,373.501c0.605-0.935,0.641-2.385,0.912-2.921c0,0,0.509-0.841,1.292-1.013
			c0.456-0.101,1.318-0.366,1.226,1.309c-0.007,0.125-0.014,0.257-0.02,0.392c0,0-0.207,1.575-0.183,2.965
			c0.02,1.104-0.534,3.409-0.694,3.632c-1.015,1.419-1.899,1.5-2.617,2.695c-0.081,0.134-0.16,0.283-0.236,0.448
			c-0.674,1.463-0.86,3.312-0.921,4.504c-0.03,0.572-0.03,0.994-0.042,1.148l-8.662-0.608l0.041-0.326
			c0.093-0.535,0.133-1.061,0.126-1.55c-0.019-1.144-0.008-2.813-0.514-3.947c-0.816-1.829-1.342-3.203-0.171-9.398
			c0,0,1.633-5.408,2.16-5.887c0.587-0.536,1.647-0.334,1.881,0.042c0.163-0.589,0.308-0.997,0.415-1.093
			c0.595-0.544,1.676-0.328,1.891,0.058l0.041,0.005c0.178-0.758,0.341-1.293,0.463-1.404c0.596-0.543,1.642-0.398,2.008,0.121
			c0,0,0.195,1.461,0.007,2.279l0.063,0.008c0.011-0.046,0.022-0.088,0.032-0.125c0.348-1.288,2.009-0.916,2.022-0.097
			c0.008,0.48-0.48,7.551-0.587,8.75L192.199,373.501z"/>
	</g>
	<g>
		<path style="fill:none;stroke:#231F20;stroke-width:0.6605;stroke-linecap:square;stroke-miterlimit:10;" d="M206.348,366.725
			c0.317-0.287,0.682-0.545,1.089-0.746c0.541-0.266,1.156-0.427,1.833-0.416c0.614,0.01,1.241,0.185,1.741,0.469
			c0.301,0.169,0.555,0.379,0.733,0.616"/>
		<path style="fill:none;stroke:#231F20;stroke-width:0.6605;stroke-linecap:square;stroke-miterlimit:10;" d="M210.739,366.27
			c0,0.56-0.629,1.011-1.408,1.011c-0.777,0-1.409-0.452-1.409-1.011c0-0.117-0.008-0.186,0.01-0.251
			c0.004-0.012,0.008-0.023,0.014-0.036"/>
		<path style="fill:none;stroke:#231F20;stroke-width:0.6605;stroke-linecap:square;stroke-miterlimit:10;" d="M223.955,366.692
			c-0.43-0.389-0.948-0.726-1.54-0.935c-0.425-0.15-0.888-0.235-1.382-0.226c-0.676,0.011-1.367,0.221-1.888,0.557c0,0,0,0-0.001,0
			c-0.236,0.152-0.438,0.331-0.586,0.528"/>
		<path style="fill:none;stroke:#231F20;stroke-width:0.6605;stroke-linecap:square;stroke-miterlimit:10;" d="M219.546,366.092
			c0.002,0.032,0.018,0.068,0.018,0.147c0,0.558,0.631,1.01,1.41,1.01c0.774,0,1.406-0.453,1.406-1.01
			c0-0.152,0.015-0.224-0.035-0.313"/>
		<path style="fill:none;stroke:#231F20;stroke-width:1.321;" d="M202.465,365.307c-0.312-0.083-0.659-0.112-1.037-0.066h-0.001
			c-1.441,0.175-1.247,1.391-0.851,1.998c0.964,1.478,0.523,2.022,0.645,3.15c0.047,0.428,0.697,1.26,2.054,1.065"/>
		<path style="fill:none;stroke:#231F20;stroke-width:1.321;" d="M227.262,365.2c0.21-0.057,0.44-0.089,0.683-0.089
			c0.114,0,0.231,0.007,0.352,0.021c1.443,0.174,1.249,1.391,0.852,1.999c-0.963,1.478-0.522,2.021-0.644,3.149
			c-0.047,0.424-0.683,1.244-2.013,1.071c-0.014-0.001-0.028-0.003-0.042-0.005"/>
		<path style="fill:none;stroke:#231F20;stroke-width:2.1076;" d="M211.297,379.289c-1.737-0.579-3.332-1.529-4.667-2.769
			c-1.481-1.374-2.645-3.103-3.329-5.072c-0.442-1.272-0.684-2.644-0.684-4.086c0-0.462,0.001-1.272,0.01-2.054
			c0.005-0.439,0.013-0.868,0.023-1.223"/>
		<path style="fill:none;stroke:#231F20;stroke-width:2.1076;" d="M218.771,379.184c-1.038,0.376-2.264,0.418-3.312,0.418
			l-2.92-0.077c-0.307-0.049-0.903-0.124-1.242-0.237"/>
		<path style="fill:none;stroke:#231F20;stroke-width:2.1076;" d="M227.098,365.018c0.001,0.038,0.002,0.074,0.004,0.11
			c0.032,0.929,0.045,1.464,0.045,2.234c0,1.406-0.231,2.745-0.654,3.99c-0.728,2.146-2.023,4.012-3.677,5.45
			c-1.188,1.033-2.561,1.845-4.044,2.383"/>
		<path style="fill:none;stroke:#231F20;stroke-width:1.4051;" d="M215.422,372.936c0.673-0.092,0.553-0.392,1.273-0.262
			c0.621,0.113,1.281,0.346,1.434-0.384c0.106-0.503-0.396-0.569-0.662-0.972"/>
		<path style="fill:none;stroke:#231F20;stroke-width:1.4051;" d="M215.422,372.936c0.022,0.001,0.045,0.001,0.068,0.001
			l-0.121,0.005C215.388,372.94,215.405,372.938,215.422,372.936z"/>
		<path style="fill:none;stroke:#231F20;stroke-width:1.4051;" d="M213.323,366.67c1.115,0.92,0.776,3.08,0.279,4.205l-0.209,0.438
			c-0.267,0.404-0.77,0.469-0.663,0.973c0.155,0.729,0.813,0.496,1.435,0.384c0.716-0.13,0.555,0.245,1.258,0.267"/>
		<ellipse style="fill:none;stroke:#231F20;stroke-width:0.4954;" cx="209.326" cy="366.25" rx="0.509" ry="0.34"/>
		<ellipse style="fill:none;stroke:#231F20;stroke-width:0.4954;" cx="220.963" cy="366.248" rx="0.508" ry="0.34"/>
		<path style="fill:none;stroke:#231F20;stroke-width:1.4051;" d="M212.584,364.982c-0.601-0.952-2.953-1.323-4.144-1.144
			c-1.119,0.167-1.674,0.268-2.84,0.949"/>
		<path style="fill:none;stroke:#231F20;stroke-width:1.4051;" d="M217.458,364.774c0.601-0.952,2.954-1.324,4.142-1.145
			c1.122,0.168,1.675,0.269,2.842,0.949"/>
		<path style="fill:none;stroke:#231F20;stroke-width:2.1076;" d="M228.322,364.811c0.19-0.866,0.498-1.732,0.369-2.552
			c-0.791-5.039-4.938-9.088-10.343-9.562c-4.477-0.393-7.986,0.036-10.699,1.25c0,0-0.412,0.157-1.028,0.473
			c0,0-5.321,2.845-5.321,7.747l0.126,3.073c0.21-0.33,0.616-0.766,1.097-1.229c1.339-1.29,3.272-2.789,3.272-2.789
			c1.081-0.595,9.597-2.708,12.121-4.033c0.006-0.002,0.012-0.006,0.018-0.009c0,0,0.045,0.019,0.133,0.06
			c0.558,0.259,2.824,1.428,5.816,4.537c0.556,0.576,2.718,1.853,3.218,3.351c0.01,0.03,0.02,0.06,0.027,0.09
			c0.039,0.13,0.063,0.262,0.072,0.395"/>
		<path style="fill:none;stroke:#231F20;stroke-width:2.1076;" d="M218.918,357.323c-0.125,0.001-0.594-0.027-0.851-0.083
			c-0.068-0.015-0.122-0.032-0.15-0.051c-0.009-0.006-0.016-0.013-0.02-0.02c0.773-0.566,1.385-1.492,1.385-2.43"/>
		<path style="fill:none;stroke:#231F20;stroke-width:2.1076;" d="M190.851,385.936c0.029-0.145,0.065-0.287,0.106-0.424
			c0.762-2.509,3.568-3.773,3.786-3.81l7.09-1.556c0,0,4.632-0.882,4.797-3.626c0.003-0.05,0.004-0.101,0.004-0.152"/>
		<path style="fill:none;stroke:#231F20;stroke-width:2.1076;" d="M242.436,391.068c-0.058-0.228-0.123-0.454-0.193-0.678
			c-1.318-4.19-4.737-7.676-7.127-8.364c-2.358-0.678-4.888-0.874-7.301-1.404c0,0-4.802-0.915-4.802-3.778"/>
		<path style="fill:none;stroke:#231F20;stroke-width:2.1076;" d="M184.134,414.209c-1.727,0.984-3.312,1.474-4.538,1.298
			c-3.321-0.475-4.825-4.531-5.331-7.402c-0.45-2.561,1.469-8.076,1.469-8.076l6.415-13.984l0.105,0.007l8.662,0.608
			c0,0-0.13,3.856-0.18,7.856c-0.063,4.978,0.105,14.479-3.267,17.322C186.336,412.793,185.208,413.598,184.134,414.209z"/>
		<path style="fill:none;stroke:#231F20;stroke-width:1.4051;" d="M192.13,373.488c0.106-1.199,0.595-8.269,0.587-8.75
			c-0.013-0.819-1.674-1.191-2.022,0.097c-0.01,0.037-0.021,0.079-0.032,0.125c-0.354,1.441-1.365,7.208-1.365,7.208"/>
		<path style="fill:none;stroke:#231F20;stroke-width:1.4051;" d="M186.763,371.452c0,0,0.766-4.977,1.359-7.496
			c0.178-0.758,0.341-1.293,0.463-1.404c0.596-0.543,1.642-0.398,2.008,0.121c0,0,0.195,1.461,0.007,2.279
			c-0.006,0.029-0.013,0.057-0.021,0.083"/>
		<path style="fill:none;stroke:#231F20;stroke-width:1.4051;" d="M184.18,372.549c0,0,0.947-5.219,1.596-7.562
			c0.163-0.589,0.308-0.997,0.415-1.093c0.595-0.544,1.676-0.328,1.891,0.058"/>
		<path style="fill:none;stroke:#231F20;stroke-width:1.4051;" d="M182.294,385.727c0.093-0.535,0.133-1.061,0.126-1.55
			c-0.019-1.144-0.008-2.813-0.514-3.947c-0.816-1.829-1.342-3.203-0.171-9.398c0,0,1.633-5.408,2.16-5.887
			c0.587-0.536,1.647-0.334,1.881,0.042c0.005,0.005,0.007,0.01,0.01,0.016"/>
		<path style="fill:none;stroke:#231F20;stroke-width:1.321;" d="M192.115,380.56c-0.081,0.134-0.16,0.283-0.236,0.448
			c-0.674,1.463-0.86,3.312-0.921,4.504c-0.03,0.572-0.03,0.994-0.042,1.148"/>
		<path style="fill:none;stroke:#231F20;stroke-width:1.4051;" d="M190.663,374.338c0.745,0.001,1.22-0.347,1.537-0.837
			c0.605-0.935,0.641-2.385,0.912-2.921c0,0,0.509-0.841,1.292-1.013c0.456-0.101,1.318-0.366,1.226,1.309
			c-0.007,0.125-0.014,0.257-0.02,0.392c0,0-0.207,1.575-0.183,2.965c0.02,1.104-0.534,3.409-0.694,3.632
			c-1.015,1.419-1.899,1.5-2.617,2.695"/>
		<path style="fill:none;stroke:#231F20;stroke-width:1.4051;" d="M191.182,374.233c0,0-3.26,0.381-4.795,2.726"/>
		<path style="fill:none;stroke:#231F20;stroke-width:1.4051;stroke-linecap:round;stroke-linejoin:round;" d="M219.268,375.104
			c-0.601,0.83-2.111,1.418-3.878,1.418c-1.809,0-3.347-0.615-3.92-1.476"/>
	</g>
</g>
<g id="XMLID_5_">
	<g>
		<path style="fill:#C8C8C8;" d="M502.576,329.455c-2.269-1.681-2.74-4.216,0.668-6.146c2.174-1.229,6.599-1.527,6.599-1.527
			s0,0-0.001,0l13.497-0.025c0,0,6.351,0.179,8.891-1.703c0.908-0.672,1.528-1.48,1.728-2.332c1.021,0.082,1.695,0.228,1.695,0.228
			c3.398,0.87,4.049,2.117,4.049,2.117c1.371-0.52,2.952-0.192,2.952-0.192c3.834,0.75,2.466,2.935,2.466,2.935
			s4.191-0.336,6.598,1.528c1.541,1.197,2.871,3.334,0.713,5.175c-2.15,1.841-8.553,1.702-8.553,1.702l-32.41-0.062
			C511.467,331.154,505.113,331.335,502.576,329.455z"/>
		<path style="fill:#FFFFFF;" d="M527.033,319.234l-0.168-0.005c0.05-0.037,0.101-0.072,0.151-0.106
			C527.03,319.194,527.033,319.234,527.033,319.234z"/>
		<path style="fill:#C8C8C8;" d="M515.625,319.263c-0.344-0.205-0.71-0.336-1.065-0.417l12.306,0.382
			c-0.236,0.172-0.462,0.362-0.676,0.571L515.625,319.263z"/>
		<path style="fill:#C8C8C8;" d="M514.556,318.845c-0.018-0.003-0.034-0.007-0.051-0.011c0.343-1.92,3.005-2.666,5.082-2.771
			c1.488-0.075,2.835,0.12,2.835,0.12c3.881,0.445,4.501,2.441,4.595,2.938c0,0,0,0,0,0.001c-0.051,0.034-0.102,0.069-0.151,0.106
			l-12.306-0.382L514.556,318.845z"/>
		<path style="fill:#FFFFFF;" d="M514.556,318.845l-0.054-0.001c0-0.003,0.002-0.006,0.003-0.01
			C514.521,318.838,514.538,318.842,514.556,318.845z"/>
		<path style="fill:#C8C8C8;" d="M531.559,313.908c2.047,1.159,2.697,2.536,2.398,3.814c-1.83-0.147-4.772-0.086-6.94,1.399
			c-0.094-0.497-0.714-2.493-4.595-2.938c0,0-1.347-0.195-2.835-0.12c-2.077,0.105-4.739,0.851-5.082,2.771
			c-1.077-0.228-2.05-0.004-2.05-0.004c-3.744,0.719-2.64,2.898-2.613,2.951l-18.917,0.035c0,0-6.398,0.138-8.556-1.702
			c-2.151-1.84-0.818-3.98,0.722-5.175c2.405-1.864,6.596-1.528,6.596-1.528s-1.368-2.186,2.466-2.938c0,0,1.581-0.328,2.954,0.192
			c0,0,0.648-1.247,4.045-2.115c0,0,5.261-1.144,8.638,1.17c0.096-0.5,0.717-2.494,4.591-2.938c0,0,1.352-0.193,2.838-0.12
			c2.078,0.104,4.742,0.849,5.083,2.771c1.077-0.228,2.05-0.005,2.05-0.005c3.787,0.729,2.612,2.952,2.612,2.952
			S529.386,312.678,531.559,313.908z"/>
		<path style="fill:#C8C8C8;" d="M509.842,321.781c-0.026-0.053-1.131-2.232,2.613-2.951c0,0,0.973-0.224,2.05,0.004
			c-0.001,0.003-0.003,0.006-0.003,0.01l0.054,0.001l0.004,0.001c0.355,0.08,0.722,0.211,1.065,0.417l10.564,0.537
			c0.214-0.209,0.439-0.399,0.676-0.571l0.168,0.005c0,0-0.003-0.04-0.017-0.111c0-0.001,0-0.001,0-0.001
			c2.168-1.485,5.11-1.547,6.94-1.399c-0.199,0.851-0.819,1.66-1.728,2.332c-2.54,1.881-8.891,1.703-8.891,1.703L509.842,321.781z"
			/>
	</g>
	<g>
		<path style="fill:none;stroke:#231F20;stroke-width:1.9453;" d="M507.789,309.722c-0.014,0.072-0.017,0.113-0.017,0.113"/>
		<path style="fill:none;stroke:#231F20;stroke-width:1.9453;" d="M520.302,309.443c0-0.003-0.001-0.006-0.001-0.008
			c-0.341-1.921-3.005-2.667-5.083-2.771c-1.486-0.074-2.838,0.12-2.838,0.12c-3.874,0.444-4.495,2.438-4.591,2.938"/>
		<path style="fill:none;stroke:#231F20;stroke-width:1.9453;" d="M533.957,317.722c0.299-1.279-0.352-2.655-2.398-3.814
			c-2.173-1.229-6.596-1.526-6.596-1.526s1.175-2.224-2.612-2.952c0,0-0.973-0.223-2.05,0.005c-0.373,0.078-0.758,0.211-1.12,0.426"
			/>
		<path style="fill:none;stroke:#231F20;stroke-width:1.9453;" d="M508.616,310.399c-0.258-0.253-0.535-0.479-0.827-0.678
			c0,0,0,0,0,0c-3.377-2.314-8.638-1.17-8.638-1.17c-3.396,0.868-4.045,2.115-4.045,2.115c-1.373-0.52-2.954-0.192-2.954-0.192
			c-3.834,0.751-2.466,2.938-2.466,2.938s-4.19-0.336-6.596,1.528c-1.54,1.195-2.873,3.334-0.722,5.175
			c2.157,1.84,8.556,1.702,8.556,1.702l18.917-0.035"/>
		<path style="fill:none;stroke:#231F20;stroke-width:1.9453;" d="M514.502,318.844c0-0.003,0.002-0.006,0.003-0.01
			c0.343-1.92,3.005-2.666,5.082-2.771c1.488-0.075,2.835,0.12,2.835,0.12c3.881,0.445,4.501,2.441,4.595,2.938"/>
		<path style="fill:none;stroke:#231F20;stroke-width:1.9453;" d="M526.189,319.8c0.214-0.209,0.439-0.399,0.676-0.571
			c0.05-0.037,0.101-0.072,0.151-0.106c0-0.001,0-0.001,0-0.001c2.168-1.485,5.11-1.547,6.94-1.399
			c1.021,0.082,1.695,0.228,1.695,0.228c3.398,0.87,4.049,2.117,4.049,2.117c1.371-0.52,2.952-0.192,2.952-0.192
			c3.834,0.75,2.466,2.935,2.466,2.935s4.191-0.336,6.598,1.528c1.541,1.197,2.871,3.334,0.713,5.175
			c-2.15,1.841-8.553,1.702-8.553,1.702l-32.41-0.062c0,0-6.354,0.181-8.891-1.699c-2.269-1.681-2.74-4.216,0.668-6.146
			c2.174-1.229,6.599-1.527,6.599-1.527s0,0-0.001,0c-0.026-0.053-1.131-2.232,2.613-2.951c0,0,0.973-0.224,2.05,0.004
			c0.017,0.003,0.033,0.007,0.051,0.011l0.004,0.001c0.355,0.08,0.722,0.211,1.065,0.417"/>
		
			<line style="fill:none;stroke:#231F20;stroke-width:1.9453;stroke-linecap:round;stroke-linejoin:round;stroke-dasharray:1.2717 3.8151;" x1="497.966" y1="329.729" x2="485.32" y2="350.363"/>
		
			<line style="fill:none;stroke:#231F20;stroke-width:1.9453;stroke-linecap:round;stroke-linejoin:round;stroke-dasharray:1.2717 3.8151;" x1="507.992" y1="333.964" x2="495.352" y2="354.599"/>
		
			<line style="fill:none;stroke:#231F20;stroke-width:1.9453;stroke-linecap:round;stroke-linejoin:round;stroke-dasharray:1.2717 3.8151;" x1="521.29" y1="333.964" x2="508.646" y2="354.599"/>
		
			<line style="fill:none;stroke:#231F20;stroke-width:1.9453;stroke-linecap:round;stroke-linejoin:round;stroke-dasharray:1.2717 3.8151;" x1="533.95" y1="335.484" x2="524.124" y2="351.522"/>
	</g>
</g>
<g>
	<g id="XMLID_6_">
		<g>
			<path style="fill:#FFFFFF;" d="M527.934,429.159c0,0-5.525-0.928-7.213-3.772c-1.411-2.379-1.265-5.425,1.597-7.301
				c0.194-0.127,0.402-0.249,0.622-0.365c2.204-1.163,6.097-0.738,6.097-0.738s-0.035-0.251-0.002-0.614
				c0.08-0.898,0.575-2.484,3.041-2.652c0,0,0.899-0.105,1.769,0.379c-0.001,0.004-0.004,0.008-0.005,0.012l0.044,0.012
				c0.288,0.166,0.57,0.398,0.813,0.723l8.966,2.601c0.239-0.225,0.484-0.425,0.733-0.599l0.146,0.037c0,0,0.007-0.052,0.016-0.146
				c3.53-2.318,7.761,0.084,7.761,0.084c2.695,1.718,2.926,3.419,2.926,3.419c1.322-0.41,2.595,0.293,2.595,0.293
				c3.108,1.647,1.347,4.17,1.347,4.17s3.702,0.333,5.278,3.133c1.01,1.796,1.588,4.747-0.762,6.688
				c-2.352,1.939-7.831,0.602-7.831,0.602L527.934,429.159z"/>
			<path style="fill:#FFFFFF;" d="M544.542,416.881l-0.146-0.037c0.054-0.038,0.107-0.075,0.162-0.109
				C544.549,416.829,544.542,416.881,544.542,416.881z"/>
			<path style="fill:#FFFFFF;" d="M544.396,416.844l-10.513-2.724c-0.013-0.009-0.026-0.016-0.039-0.024
				c0.201-0.589,0.505-1.061,0.879-1.433c1.127-1.124,2.878-1.336,4.243-1.153c1.303,0.176,2.418,0.667,2.418,0.667
				c0.233,0.091,0.45,0.191,0.65,0.296c2.571,1.343,2.57,3.66,2.523,4.261C544.503,416.77,544.449,416.807,544.396,416.844z"/>
			<path style="fill:#FFFFFF;" d="M533.883,414.12l10.513,2.724c-0.249,0.174-0.494,0.374-0.733,0.599l-8.966-2.601
				C534.453,414.519,534.171,414.286,533.883,414.12z"/>
			<path style="fill:#FFFFFF;" d="M533.883,414.12l-0.044-0.012c0.001-0.004,0.004-0.008,0.005-0.012
				C533.856,414.104,533.87,414.111,533.883,414.12z"/>
			<path style="fill:#FAA41A;" d="M476.751,407.289c2.178-10.327,14.495-19.413,33.646-15.902
				c13.701,2.512,22.454,12.13,24.086,21.188l0.239,0.089c-0.374,0.373-0.678,0.844-0.879,1.433
				c-0.869-0.484-1.769-0.379-1.769-0.379c-2.466,0.167-2.961,1.753-3.041,2.652l-0.076-0.01
				c0.628-8.701-8.057-18.138-19.349-20.518c-11.429-2.409-23.331,2.869-26.09,11.253c-0.509-0.055-0.85-0.054-0.85-0.054
				c-0.213-0.01-0.408-0.009-0.603,0.001c-2.986,0.139-3.944,2.305-4.148,2.885c-0.478-0.739-1.067-1.303-1.7-1.732l0.363,0.059
				C476.631,407.932,476.686,407.609,476.751,407.289z"/>
			<path style="fill:#0071BC;" d="M522.131,417.943c1.537-7.292-4.45-15.593-13.583-17.518c-9.136-1.925-17.962,3.254-19.498,10.546
				l-0.282-0.01c-0.275-1.958-2.078-3.109-3.624-3.557c-0.592-0.172-1.173-0.263-1.624-0.31c2.759-8.384,14.661-13.662,26.09-11.253
				c11.292,2.379,19.977,11.817,19.349,20.518l0.076,0.01c-0.033,0.363,0.002,0.614,0.002,0.614s-3.893-0.425-6.097,0.738
				c-0.22,0.116-0.428,0.238-0.622,0.365L522.131,417.943z"/>
			<path style="fill:#ED1E29;" d="M510.397,391.386c-19.151-3.51-31.469,5.575-33.646,15.902c-0.065,0.32-0.12,0.644-0.169,0.965
				l-0.363-0.059c-2.4-1.629-5.432-1.322-5.432-1.322c-0.445,0.068-0.847,0.156-1.205,0.255
				c3.516-14.401,22.043-25.414,42.264-21.153c15.727,3.314,27.526,15.023,30.188,26.498c-0.2-0.105-0.417-0.205-0.65-0.296
				c0,0-1.115-0.492-2.418-0.667c-1.365-0.184-3.116,0.029-4.243,1.153l-0.239-0.089
				C532.852,403.517,524.099,393.898,510.397,391.386z"/>
			<path style="fill:#FFFFFF;" d="M460.148,422.188c0,0-5.559-0.986-6.924-3.709c-1.367-2.724,0.354-5.194,2.003-6.427
				c2.57-1.927,6.096-0.738,6.096-0.738s-0.596-3.02,2.912-3.273c0,0,1.448-0.128,2.493,0.783c0,0,0.661-1.083,2.854-1.695
				c0.358-0.099,0.76-0.187,1.205-0.255c0,0,3.031-0.307,5.432,1.322c0.633,0.429,1.223,0.993,1.7,1.732
				c0.204-0.58,1.162-2.746,4.148-2.885c0.194-0.01,0.39-0.012,0.603-0.001c0,0,0.341-0.001,0.85,0.054
				c0.451,0.047,1.032,0.138,1.624,0.31c1.546,0.448,3.349,1.599,3.624,3.557c0.041,0.276,0.05,0.568,0.022,0.876
				c0.987-0.092,1.766,0.367,1.766,0.367c3.074,1.611,1.464,4.215,1.464,4.215s3.735,1.182,5.281,3.134
				c2.426,3.067,1.344,6.193-1.063,7.909c-2.693,1.923-8.121,0.542-8.121,0.542L460.148,422.188z"/>
		</g>
		<g>
			<path style="fill:none;stroke:#231F20;stroke-width:2.9791;" d="M482.067,407.042c-2.986,0.139-3.944,2.305-4.148,2.885
				c-0.03,0.09-0.045,0.142-0.045,0.142"/>
			<path style="fill:none;stroke:#231F20;stroke-width:2.9791;" d="M488.79,411.837c0.027-0.308,0.019-0.6-0.022-0.876
				c-0.275-1.958-2.078-3.109-3.624-3.557c-0.592-0.172-1.173-0.263-1.624-0.31c-0.509-0.055-0.85-0.054-0.85-0.054
				c-0.213-0.01-0.408-0.009-0.603,0.001"/>
			<line style="fill:none;stroke:#231F20;stroke-width:2.9791;" x1="488.789" y1="411.85" x2="488.79" y2="411.838"/>
			<path style="fill:none;stroke:#231F20;stroke-width:2.9791;" d="M478.452,410.938c-0.155-0.369-0.334-0.705-0.533-1.011
				c-0.478-0.739-1.067-1.303-1.7-1.732c-2.4-1.629-5.432-1.322-5.432-1.322c-0.445,0.068-0.847,0.156-1.205,0.255
				c-2.192,0.612-2.854,1.695-2.854,1.695c-1.045-0.911-2.493-0.783-2.493-0.783c-3.508,0.254-2.912,3.273-2.912,3.273
				s-3.525-1.189-6.096,0.738c-1.649,1.233-3.37,3.703-2.003,6.427c1.365,2.723,6.924,3.709,6.924,3.709l27.969,5.815
				c0,0,5.428,1.381,8.121-0.542c2.406-1.716,3.488-4.842,1.063-7.909c-1.546-1.952-5.281-3.134-5.281-3.134s1.61-2.604-1.464-4.215
				c0,0-0.778-0.459-1.766-0.367c0,0,0,0,0,0.001c-0.343,0.031-0.713,0.129-1.083,0.337"/>
			<path style="fill:none;stroke:#231F20;stroke-width:2.9791;" d="M533.844,414.096c0.201-0.589,0.505-1.061,0.879-1.433
				c1.127-1.124,2.878-1.336,4.243-1.153c1.303,0.176,2.418,0.667,2.418,0.667c0.233,0.091,0.45,0.191,0.65,0.296
				c2.571,1.343,2.57,3.66,2.523,4.261"/>
			<path style="fill:none;stroke:#231F20;stroke-width:2.9791;" d="M543.662,417.443c0.239-0.225,0.484-0.425,0.733-0.599
				c0.054-0.038,0.107-0.075,0.162-0.109c3.53-2.318,7.761,0.084,7.761,0.084c2.695,1.718,2.926,3.419,2.926,3.419
				c1.322-0.41,2.595,0.293,2.595,0.293c3.108,1.647,1.347,4.17,1.347,4.17s3.702,0.333,5.278,3.133
				c1.01,1.796,1.588,4.747-0.762,6.688c-2.352,1.939-7.831,0.602-7.831,0.602l-27.938-5.966c0,0-5.525-0.928-7.213-3.772
				c-1.411-2.379-1.265-5.425,1.597-7.301c0.194-0.127,0.402-0.249,0.622-0.365c2.204-1.163,6.097-0.738,6.097-0.738
				s-0.035-0.251-0.002-0.614c0.08-0.898,0.575-2.484,3.041-2.652c0,0,0.899-0.105,1.769,0.379c0.013,0.008,0.026,0.015,0.039,0.024
				c0.288,0.166,0.57,0.398,0.813,0.723"/>
			<path style="fill:none;stroke:#231F20;stroke-width:2.9791;" d="M489.05,410.972c1.536-7.292,10.362-12.472,19.498-10.546
				c9.133,1.925,15.12,10.225,13.583,17.518"/>
			<path style="fill:none;stroke:#231F20;stroke-width:2.9791;" d="M483.47,407.246c0.016-0.05,0.032-0.101,0.05-0.151
				c2.759-8.384,14.661-13.662,26.09-11.253c11.292,2.379,19.977,11.817,19.349,20.518c-0.01,0.13-0.021,0.261-0.035,0.391"/>
			<path style="fill:none;stroke:#231F20;stroke-width:2.9791;" d="M476.582,408.254c0.049-0.322,0.104-0.645,0.169-0.965
				c2.178-10.327,14.495-19.413,33.646-15.902c13.701,2.512,22.454,12.13,24.086,21.188"/>
			<path style="fill:none;stroke:#231F20;stroke-width:2.9791;" d="M542.091,412.727c-0.018-0.084-0.038-0.169-0.057-0.253
				c-2.662-11.475-14.462-23.184-30.188-26.498c-20.221-4.261-38.748,6.751-42.264,21.153c-0.009,0.034-0.016,0.067-0.024,0.101"/>
		</g>
	</g>
</g>
<path style="fill:#231F20;stroke:#231F20;stroke-width:2.3041;" d="M329.569,504.591l4.917,11.427
	c0.351,0.813-0.004,1.72-0.794,2.021l0,0c-0.789,0.301-1.713-0.116-2.064-0.933l-4.918-11.424"/>
<path style="fill:#EC008C;stroke:#231F20;stroke-width:2.3041;" d="M313.498,489.311l-0.144,11.457
	c-0.012,0.915-0.455,1.722-0.99,1.804l0,0c-0.535,0.083-0.96-0.589-0.948-1.501l0.144-11.456"/>
<polyline style="fill:#231F20;stroke:#231F20;stroke-width:2.3041;" points="326.704,480.36 346.185,498.861 332.326,504.149 
	332.171,504.21 318.313,509.498 318.618,483.447 "/>
<path style="fill:#231F20;stroke:#231F20;stroke-width:2.3041;" d="M334.511,502.706l4.917,11.423
	c0.352,0.818,1.276,1.235,2.065,0.934l0,0c0.789-0.302,1.144-1.207,0.792-2.022l-4.917-11.427"/>
<path style="fill:#231F20;stroke:#231F20;stroke-width:2.3041;" d="M367.646,482.32l7.715,17.926
	c0.351,0.816-0.004,1.722-0.793,2.022l0,0c-0.79,0.303-1.713-0.116-2.065-0.932l-7.714-17.927"/>
<path style="fill:#231F20;stroke:#231F20;stroke-width:2.3041;" d="M376.2,479.744l7.461,17.335
	c0.351,0.814,1.276,1.232,2.064,0.932l0,0c0.791-0.302,1.146-1.206,0.794-2.022l-7.46-17.334"/>
<path style="fill:#EC008C;stroke:#231F20;stroke-width:2.3041;" d="M334.75,481.201l8.574,8.129c0.683,0.65,1.598,0.938,2.044,0.646
	l0,0c0.445-0.292,0.252-1.051-0.43-1.699l-8.573-8.128"/>
<path style="fill:none;stroke:#231F20;stroke-width:2.3041;" d="M336.501,480.272c-3.242-2.893-6.501-1.188-6.501-1.188l-7.287,2.78
	l-0.084,0.029l-7.288,2.784c0,0-3.598,0.914-3.788,5.113"/>
<path style="fill:#231F20;stroke:#231F20;stroke-width:2.3041;" d="M325.525,471.33c1.025,2.379-0.944,5.377-4.397,6.695
	c-3.452,1.316-7.081,0.455-8.105-1.924c-1.024-2.378,0.945-5.377,4.397-6.696C320.871,468.09,324.501,468.951,325.525,471.33z"/>
<path style="fill:#231F20;stroke:#231F20;stroke-width:2.3041;" d="M368.072,455.096c1.024,2.379-0.946,5.375-4.397,6.694
	c-3.452,1.316-7.083,0.455-8.107-1.924c-1.024-2.379,0.947-5.377,4.398-6.696C363.417,451.854,367.047,452.716,368.072,455.096z"/>
<path style="fill:#231F20;stroke:#231F20;stroke-width:2.3041;" d="M379.013,478.485c0.562,1.304-0.202,2.828-1.706,3.402
	l-8.593,3.279c-1.504,0.574-3.178-0.02-3.741-1.325l-5.881-13.668c-0.562-1.304,0.202-2.828,1.707-3.401l8.591-3.28
	c1.505-0.573,3.18,0.02,3.741,1.325L379.013,478.485z"/>
<g>
	<path style="fill:#EC008C;stroke:#231F20;stroke-width:2.3041;" d="M377.736,464.729l4.649,10.148
		c0.372,0.811,1.084,1.303,1.596,1.1l0,0c0.51-0.2,0.624-1.021,0.253-1.829l-4.649-10.149"/>
	<path style="fill:none;stroke:#231F20;stroke-width:2.3041;" d="M379.66,464.152c-1.827-3.649-5.35-2.536-5.35-2.536l-4.899,1.87"
		/>
	<path style="fill:none;stroke:#231F20;stroke-width:2.3041;" d="M377.991,465.259c-1.827-3.649-5.398-2.612-5.398-2.612
		l-2.163,0.536"/>
	<path style="fill:none;stroke:#231F20;stroke-width:2.3041;" d="M378.478,465.479"/>
	<path style="fill:#EC008C;stroke:#231F20;stroke-width:2.3041;" d="M378.635,466.55c0,0-1.76-2.59-5.27-0.724l-1.029-2.302
		l5.379,0.459L378.635,466.55z"/>
</g>
<g>
	<path style="fill:#EC008C;stroke:#231F20;stroke-width:2.3041;" d="M355.739,473.1l4.167,10.333
		c0.331,0.826,0.183,1.646-0.333,1.836l0,0c-0.516,0.191-1.202-0.323-1.535-1.146l-4.167-10.335"/>
	<path style="fill:none;stroke:#231F20;stroke-width:2.3041;" d="M353.934,473.95c-1.388-3.818,1.964-5.328,1.964-5.328l4.899-1.869
		"/>
	<path style="fill:none;stroke:#231F20;stroke-width:2.3041;" d="M355.947,473.649c-1.386-3.818,1.946-5.416,1.946-5.416
		l1.283-0.691"/>
	<path style="fill:none;stroke:#231F20;stroke-width:2.3041;" d="M355.762,474.126"/>
	<path style="fill:#EC008C;stroke:#231F20;stroke-width:2.3041;" d="M356.442,474.997c0,0-0.653-3.013,3.247-3.973l-0.962-2.328
		l-3.522,3.855L356.442,474.997z"/>
</g>
<g id="XMLID_19_">
	<g>
		<path style="fill:#CA81B6;" d="M637.434,506.779c0,0,11.182,4.466,17.154,9.386c1.94,1.598,3.914,3.669,5.751,5.821
			c3.022,3.54,5.68,7.301,7.228,9.546l-0.328,0.141h-0.001c0,0-5.155,1.164-8.568,3.084c-3.374,1.899-5.216,4.427-5.259,4.485
			c-0.027-0.107-2.058-8.416-5.001-16.61c-2.408-6.699-8.886-13.544-11.232-15.876L637.434,506.779z"/>
		<path style="fill:#CA81B6;" d="M653.41,539.243c0,0-7.501-2.91-22.75-5.673l-0.934-0.172c-15.06-3.654-23.095-4.035-23.095-4.035
			s5.25-6.819,11.302-13.158c4.966-5.198,13.782-8.851,16.792-9.995c0.659-0.25,1.039-0.381,1.039-0.381l0.249-0.077l0.3,0.168
			c0,0,0.321,0.298,0.862,0.836c0.001,0,0.001,0,0.001,0c2.347,2.332,8.824,9.177,11.232,15.876
			C651.353,530.826,653.383,539.135,653.41,539.243C653.41,539.243,653.41,539.243,653.41,539.243z"/>
		<path style="fill:#CA81B6;" d="M654.588,516.165c-5.973-4.92-17.154-9.386-17.154-9.386l-0.257-0.023c0,0,0,0-0.001,0
			c-0.541-0.538-0.862-0.836-0.862-0.836l-0.3-0.168l0.037-0.173l0.005-0.024l0.129,0.027c15.078,4.52,13.992,4.439,15.258,5.563
			c3.009,2.67,8.749,10.58,8.927,10.827l-0.03,0.015C658.502,519.834,656.528,517.763,654.588,516.165z"/>
		<path style="fill:#CA81B6;" d="M634.726,506.21c-3.01,1.145-11.826,4.797-16.792,9.995c-6.052,6.339-11.302,13.158-11.302,13.158
			s-0.649-3.092-2.991-6.23c-2.342-3.14-6.584-6.293-6.584-6.293l-0.421-0.152c2.296-1.411,6.343-3.842,10.647-5.904
			c2.555-1.225,5.199-2.318,7.623-2.993c7.453-2.077,19.486-1.629,19.486-1.629L634.726,506.21z"/>
		<path style="fill:#CA81B6;" d="M634.393,506.161c0,0-12.033-0.448-19.486,1.629c-2.424,0.675-5.068,1.769-7.623,2.993
			l-0.021-0.024c0,0,8.661-5.043,12.555-6.283c1.611-0.515,0.585-0.882,16.201,1.097h0.001l0.031,0.007l-0.037,0.173l-0.249,0.077
			c0,0-0.38,0.131-1.039,0.381L634.393,506.161z"/>
	</g>
	<g>
		<path style="fill:none;stroke:#231F20;stroke-width:1.9582;stroke-linecap:round;stroke-linejoin:round;" d="M634.393,506.161
			c0,0-12.033-0.448-19.486,1.629c-2.424,0.675-5.068,1.769-7.623,2.993c-4.305,2.063-8.352,4.493-10.647,5.904
			c-0.058,0.035-0.114,0.07-0.17,0.104"/>
		<path style="fill:none;stroke:#231F20;stroke-width:1.9582;stroke-linecap:round;stroke-linejoin:round;" d="M607.263,510.759
			c0,0,8.661-5.043,12.555-6.283c1.611-0.515,0.585-0.882,16.201,1.097"/>
		<path style="fill:none;stroke:#231F20;stroke-width:1.9582;stroke-linecap:round;stroke-linejoin:round;" d="M597.057,516.84
			c0,0,4.242,3.153,6.584,6.293c2.342,3.139,2.991,6.23,2.991,6.23s5.25-6.819,11.302-13.158c4.966-5.198,13.782-8.851,16.792-9.995
			c0.659-0.25,1.039-0.381,1.039-0.381"/>
		<path style="fill:none;stroke:#231F20;stroke-width:1.9582;stroke-linecap:round;stroke-linejoin:round;" d="M637.434,506.779
			c0,0,11.182,4.466,17.154,9.386c1.94,1.598,3.914,3.669,5.751,5.821c3.022,3.54,5.68,7.301,7.228,9.546
			c0.08,0.117,0.157,0.229,0.231,0.337"/>
		<path style="fill:none;stroke:#231F20;stroke-width:1.9582;stroke-linecap:round;stroke-linejoin:round;" d="M660.373,521.978
			c0,0-0.001-0.002-0.004-0.006c-0.178-0.247-5.918-8.157-8.927-10.827c-1.266-1.123-0.18-1.043-15.258-5.563"/>
		<path style="fill:none;stroke:#231F20;stroke-width:1.9582;stroke-linecap:round;stroke-linejoin:round;" d="M667.237,531.673
			c0,0-5.155,1.164-8.568,3.084c-3.374,1.899-5.216,4.427-5.259,4.486c0,0,0,0,0-0.001c-0.027-0.107-2.058-8.416-5.001-16.61
			c-2.408-6.699-8.886-13.544-11.232-15.876c0,0,0,0-0.001,0c-0.541-0.538-0.862-0.836-0.862-0.836"/>
		<path style="fill:none;stroke:#231F20;stroke-width:1.9582;stroke-linecap:round;stroke-linejoin:round;" d="M653.41,539.243
			c0,0-7.501-2.91-22.75-5.673l-0.934-0.172c-15.06-3.654-23.095-4.035-23.095-4.035"/>
		<polyline style="fill:none;stroke:#231F20;stroke-width:1.9582;stroke-linecap:round;stroke-linejoin:round;" points="
			636.513,503.396 636.056,505.555 636.051,505.579 636.014,505.752 		"/>
		<path style="fill:none;stroke:#231F20;stroke-width:1.9582;stroke-linecap:round;stroke-linejoin:round;" d="M630,534
			l-4.947,23.369c0,0-0.237,3.254-4.13,2.468c-3.075-0.619-2.948-2.879-2.704-4.435"/>
	</g>
</g>
<g>
	<g id="XMLID_3_">
		<g>
			<path style="fill:#FFF400;" d="M363.869,314.33c-0.899-0.004-1.518,0.303-1.999,0.782l-0.007-0.01
				c2.447-3.109,2.958-6.807,0.736-10.346c-0.856-1.367-2.174-2.337-3.501-3.186c-0.279-0.18-0.89-0.63-1.576-1.104v-0.001h0.001
				l0.027-0.039c0.315-4.584,1.738-8.531,5.397-11.63c1.511-1.282,3.288-2.246,5.136-2.822c1.455-0.45,3.295-0.623,4.593-1.479
				c1.187-0.78,1.203-1.597,2.821-1.517c1.575,0.082,2.201,1.052,2.522,2.56c0.3,1.413,0.263,2.485,1.016,3.82
				c0.962,1.696,1.998,3.294,2.327,5.329c0.905,5.624-2.496,11.917-6.803,15.369C372.273,311.895,367.229,315.058,363.869,314.33z"
				/>
			<path style="fill:#ABDA4D;" d="M356.049,308.454c-0.592-1.077-3.041-9.061-1.271-9.414c0.453-0.086,1.687,0.696,2.745,1.425
				v0.001c0.686,0.473,1.297,0.924,1.576,1.104c1.328,0.849,2.645,1.819,3.501,3.186c2.222,3.539,1.711,7.236-0.736,10.346
				l-0.099-0.168C361.153,312.692,357.339,310.798,356.049,308.454z"/>
			<path style="fill:#FFFFFF;" d="M334.699,340.948c-0.805,0.055-1.413,0.751-1.359,1.555c0.054,0.803,0.75,1.411,1.554,1.358
				c0.804-0.054,1.412-0.75,1.359-1.555C336.2,341.504,335.503,340.896,334.699,340.948z M324.063,327.766
				c-0.805,0.053-1.414,0.748-1.359,1.553c0.054,0.805,0.75,1.412,1.554,1.359c0.804-0.055,1.413-0.75,1.359-1.555
				C325.562,328.318,324.867,327.712,324.063,327.766z M315,317.45l0.019-0.003c0.37,2.318,7.376,3.731,15.831,3.165
				c8.455-0.567,15.21-2.901,15.267-5.25l0.027,0.001l-1.335,35.098c0.257,3.847-4.861,7.322-11.433,7.763
				c-6.572,0.44-12.109-2.32-12.367-6.168L315,317.45z M330.819,352.18c-0.055-0.803-0.749-1.412-1.553-1.358
				c-0.805,0.054-1.413,0.749-1.359,1.553c0.054,0.806,0.75,1.413,1.553,1.359C330.265,353.681,330.873,352.986,330.819,352.18z
				 M334.014,325.268c-0.805,0.054-1.413,0.75-1.359,1.554c0.054,0.805,0.75,1.413,1.555,1.36c0.804-0.055,1.413-0.751,1.359-1.556
				C335.514,325.823,334.818,325.215,334.014,325.268z M339.406,331.142c-0.804,0.052-1.412,0.748-1.358,1.553
				c0.054,0.804,0.75,1.411,1.553,1.358c0.805-0.054,1.413-0.75,1.359-1.554C340.906,331.695,340.21,331.086,339.406,331.142z
				 M328.921,338.411c-0.054-0.806-0.75-1.414-1.554-1.36c-0.804,0.054-1.412,0.75-1.358,1.556c0.054,0.804,0.749,1.412,1.553,1.357
				C328.367,339.91,328.975,339.215,328.921,338.411z"/>
			<circle style="fill:#FFFFFF;" cx="339.503" cy="332.598" r="1.459"/>
			<circle style="fill:#FFFFFF;" cx="334.112" cy="326.724" r="1.46"/>
			<circle style="fill:#FFFFFF;" cx="334.797" cy="342.405" r="1.46"/>
			<circle style="fill:#FFFFFF;" cx="327.464" cy="338.507" r="1.46"/>
			<circle style="fill:#FFFFFF;" cx="329.363" cy="352.278" r="1.459"/>
			<circle style="fill:#FFFFFF;" cx="324.16" cy="329.22" r="1.46"/>
		</g>
		<g>
			<path style="fill:none;stroke:#231F20;stroke-width:2.0786;" d="M313.729,310.126c0-0.004,0-0.007-0.001-0.011
				c-0.168-2.506,7.016-5.031,16.045-5.638c9.028-0.604,16.485,0.938,16.652,3.445c0,0.004,0,0.007,0.001,0.011
				c0.004,0.082,0.002,0.164-0.01,0.246c-0.313,2.421-7.313,4.793-16.035,5.378c-8.724,0.584-15.98-0.833-16.611-3.192
				C313.749,310.286,313.735,310.207,313.729,310.126z"/>
			<path style="fill:none;stroke:#231F20;stroke-width:2.0786;" d="M346.114,315.25c0.002,0.038,0.003,0.074,0.002,0.112
				c-0.057,2.349-6.812,4.684-15.267,5.25c-8.455,0.566-15.461-0.847-15.831-3.165c-0.005-0.038-0.01-0.075-0.012-0.112"/>
			<path style="fill:none;stroke:#231F20;stroke-width:2.0786;" d="M313.727,310.115l0.002,0.011l0.042,0.239l1.23,7.085
				l6.009,34.605c0.258,3.848,5.795,6.608,12.367,6.168c6.571-0.441,11.689-3.917,11.433-7.763l1.335-35.098l0.273-7.184l0.01-0.246
				v-0.011"/>
			<circle style="fill:none;stroke:#231F20;stroke-width:0.6929;" cx="334.112" cy="326.724" r="1.46"/>
			<circle style="fill:none;stroke:#231F20;stroke-width:0.6929;" cx="339.504" cy="332.597" r="1.46"/>
			<path style="fill:none;stroke:#231F20;stroke-width:0.6929;" d="M328.921,338.411c0.054,0.804-0.554,1.499-1.359,1.552
				c-0.804,0.055-1.5-0.553-1.553-1.357c-0.054-0.806,0.554-1.501,1.358-1.556C328.171,336.997,328.867,337.605,328.921,338.411z"/>
			<circle style="fill:none;stroke:#231F20;stroke-width:0.6929;" cx="334.797" cy="342.405" r="1.46"/>
			<circle style="fill:none;stroke:#231F20;stroke-width:0.6929;" cx="329.363" cy="352.278" r="1.459"/>
			<circle style="fill:none;stroke:#231F20;stroke-width:0.6929;" cx="324.16" cy="329.22" r="1.46"/>
			<path style="fill:none;stroke:#231F20;stroke-width:2.0786;" d="M361.833,315.141c0.01-0.014,0.021-0.026,0.031-0.04
				c2.447-3.109,2.958-6.807,0.736-10.346c-0.856-1.367-2.174-2.337-3.501-3.186c-0.279-0.18-0.89-0.63-1.576-1.104v-0.001
				c-1.058-0.729-2.292-1.511-2.745-1.425c-1.769,0.353,0.68,8.336,1.271,9.414c1.29,2.344,5.104,4.238,5.716,6.48"/>
			<path style="fill:none;stroke:#231F20;stroke-width:2.0786;" d="M357.55,300.427c0.315-4.584,1.738-8.531,5.397-11.63
				c1.511-1.282,3.288-2.246,5.136-2.822c1.455-0.45,3.295-0.623,4.593-1.479c1.187-0.78,1.203-1.597,2.821-1.517
				c1.575,0.082,2.201,1.052,2.522,2.56c0.3,1.413,0.263,2.485,1.016,3.82c0.962,1.696,1.998,3.294,2.327,5.329
				c0.905,5.624-2.496,11.917-6.803,15.369c-2.288,1.839-7.332,5.002-10.691,4.274c-0.174-0.038-0.343-0.085-0.507-0.145"/>
			<path style="fill:none;stroke:#231F20;stroke-width:2.0786;" d="M360.538,317.24c0.405-0.792,0.776-1.574,1.333-2.128
				c0.481-0.479,1.1-0.786,1.999-0.782c0.038,0,0.077,0.001,0.115,0.002"/>
		</g>
	</g>
</g>
</svg>
