<?xml version="1.0" encoding="iso-8859-1"?>
<!-- Generator: Adobe Illustrator 12.0.1, SVG Export Plug-In . SVG Version: 6.00 Build 51448)  -->
<!DOCTYPE svg PUBLIC "-//W3C//DTD SVG 1.1//EN" "http://www.w3.org/Graphics/SVG/1.1/DTD/svg11.dtd" [
	<!ENTITY ns_svg "http://www.w3.org/2000/svg">
	<!ENTITY ns_xlink "http://www.w3.org/1999/xlink">
]>
<svg  version="1.1" id="Layer_1" xmlns="&ns_svg;" xmlns:xlink="&ns_xlink;" width="850.394" height="850.394"
	 viewBox="0 0 850.394 850.394" style="overflow:visible;enable-background:new 0 0 850.394 850.394;" xml:space="preserve">
<g id="XMLID_2_">
	<g>
		<path style="fill:#C8C8C8;" d="M747.23,70.84c25.289,0,45.909,20.61,45.909,45.9V575.97c0,25.391-20.62,45.9-45.909,45.9H523.19
			H338.59H115.15c-25.39,0-46-20.51-46-45.9V116.74c0-25.29,20.61-45.9,46-45.9H747.23z M726.92,595.19
			c10.35,0,18.72-8.36,18.72-18.83c0-10.341-8.37-18.71-18.72-18.71c-10.46,0-18.82,8.369-18.82,18.71
			C708.1,586.83,716.46,595.19,726.92,595.19z M684.5,595.49c10.36,0,18.82-8.471,18.82-18.82c0-10.36-8.46-18.72-18.82-18.72
			c-10.35,0-18.72,8.359-18.72,18.72C665.78,587.02,674.15,595.49,684.5,595.49z M726.42,530.07V135.66H137.56v394.41H726.42z"/>
		<path d="M726.92,557.65c10.35,0,18.72,8.369,18.72,18.71c0,10.47-8.37,18.83-18.72,18.83c-10.46,0-18.82-8.36-18.82-18.83
			C708.1,566.02,716.46,557.65,726.92,557.65z"/>
		<rect x="137.56" y="135.66" style="fill:#00EFDC;" width="588.86" height="394.41"/>
		<path d="M684.5,557.95c10.36,0,18.82,8.359,18.82,18.72c0,10.35-8.46,18.82-18.82,18.82c-10.35,0-18.72-8.471-18.72-18.82
			C665.78,566.31,674.15,557.95,684.5,557.95z"/>
		<path style="fill:#787878;" d="M523.19,712.38c0,0,21.609,28.48,96.689,39.54v31.66l-132.229,0.3H241.91v-31.56
			c75.08-11.061,96.68-39.54,96.68-39.54v-90.91H523.19V712.38z"/>
	</g>
	<g>
		<path style="fill:none;stroke:#000000;stroke-width:40.9466;" d="M338.59,621.87H115.15c-25.39,0-46-20.51-46-45.9V116.74
			c0-25.29,20.61-45.9,46-45.9H747.23c25.289,0,45.909,20.61,45.909,45.9V575.97c0,25.391-20.62,45.9-45.909,45.9H523.19H338.59z"/>
		<rect x="137.56" y="135.66" style="fill:none;stroke:#000000;stroke-width:40.9466;" width="588.86" height="394.41"/>
		<path style="fill:none;stroke:#000000;stroke-width:40.9466;" d="M523.19,621.87v90.51c0,0,21.609,28.48,96.689,39.54v31.66
			l-132.229,0.3H241.91v-31.56c75.08-11.061,96.68-39.54,96.68-39.54v-90.91"/>
	</g>
</g>
<rect style="fill:none;" width="850.394" height="850.394"/>
</svg>
