<?xml version="1.0" encoding="iso-8859-1"?>
<!-- Generator: Adobe Illustrator 12.0.1, SVG Export Plug-In . SVG Version: 6.00 Build 51448)  -->
<!DOCTYPE svg PUBLIC "-//W3C//DTD SVG 1.1//EN" "http://www.w3.org/Graphics/SVG/1.1/DTD/svg11.dtd" [
	<!ENTITY ns_svg "http://www.w3.org/2000/svg">
	<!ENTITY ns_xlink "http://www.w3.org/1999/xlink">
]>
<svg  version="1.1" id="Layer_1" xmlns="&ns_svg;" xmlns:xlink="&ns_xlink;" width="851.999" height="851.289"
	 viewBox="0 0 851.999 851.289" style="overflow:visible;enable-background:new 0 0 851.999 851.289;" xml:space="preserve">
<g id="XMLID_1_">
	<g>
		<path style="fill:#9E5B16;" d="M469.665,365.866c0,10.92-9.279,19.78-20.729,19.78c-11.44,0-20.71-8.86-20.71-19.78
			c0-3.03,7.16-16.61,21.6-16.61C462.165,349.255,469.665,361.766,469.665,365.866z M461.755,366.616c0-6.13-5.65-11.1-12.62-11.1
			c-6.98,0-12.61,4.97-12.61,11.1c0,6.14,5.63,11.1,12.61,11.1C456.105,377.715,461.755,372.755,461.755,366.616z"/>
		<path style="fill:#FFFFFF;" d="M413.445,373.266c6.98-12.35,21.95-24.9,36.38-25.24c15.57-0.33,28.95,10.78,39.351,22.48
			l-0.59,0.4c-8.171,7.56-17.601,14.3-28.48,18.18c-6.59,2.34-15.66,2.76-22.56,1.35c-2.921-0.61-6.521-1.33-9.221-2.59
			c-2.27-1.03-4.21-3.48-6.34-4.48c-3.17-1.46-6.73-0.16-9.69-2C408.825,379.226,411.465,376.786,413.445,373.266z M469.665,365.866
			c0-4.1-7.5-16.61-19.84-16.61c-14.439,0-21.6,13.58-21.6,16.61c0,10.92,9.27,19.78,20.71,19.78
			C460.385,385.646,469.665,376.786,469.665,365.866z"/>
		<path style="fill:#FFEEC8;" d="M245.115,376.295l0.49,0.44c7.82,7.24,16.85,13.71,27.28,17.41c6.32,2.26,15,2.65,21.6,1.3
			c2.8-0.58,6.25-1.27,8.84-2.48c2.17-0.99,4.03-3.33,6.07-4.29c3.03-1.4,6.45-0.15,9.28-1.91c3.32-2.06,0.8-4.39-1.1-7.76
			c-4.44-7.87-12.27-15.45-21.09-19.75c-4.44-2.17-9.12-3.49-13.76-3.6c-1.86-0.04-3.68,0.08-5.47,0.35
			C264.705,357.835,253.815,366.655,245.115,376.295z M232.725,346.525c-2.55-18.96-2.77-36.53,13.69-52.99
			c17.28-17.28,168.61-76.84,189.38-120.64c-11.65,32.67,86.1,109.52,124.899,165.01c30.66,43.86,19.46,151.101,14.59,166.09
			c-3.68,11.32-8.859,20.94-15.02,29.851c-6.99,10.08-15.23,19.229-23.95,28.83c-32.75,36.05-44.93,44.029-92.22,70.33
			c-30.81,17.13-83.11,23.51-109.81,3.56c-0.17-0.12-0.34-0.25-0.51-0.38c-22.5-17.31-41.03-39.78-52.36-62.08
			c-21.38-42.1-36.89-58.28-47.65-108.37c-9.59-44.59,3.66-55.02,2.92-85.31C236.395,368.636,234.175,357.355,232.725,346.525z
			 M489.175,370.505c-10.4-11.7-23.78-22.81-39.351-22.48c-14.43,0.34-29.4,12.89-36.38,25.24c-1.98,3.52-4.62,5.96-1.15,8.1
			c2.96,1.84,6.52,0.54,9.69,2c2.13,1,4.07,3.45,6.34,4.48c2.7,1.26,6.3,1.98,9.221,2.59c6.899,1.41,15.97,0.99,22.56-1.35
			c10.88-3.88,20.31-10.62,28.48-18.18L489.175,370.505z M427.155,548.665c4.16,0.19,8.55,0.801,13.78,1.561
			c-14-14-59.6-31.061-69.3-21.36c-4.7,4.69-10.25-2.93-14.51-3.899c-6.83-1.58-21.58,4.87-36.84,3.04
			c-3.7-0.44-7.42-1.37-11.08-3.021c12.18,12.18,24.89,24.141,32.75,27.51c11.74,5.051,32.82,13.12,56.71,2.561
			C410.905,549.636,418.575,548.266,427.155,548.665z"/>
		<path style="fill:#9E5B16;" d="M296.205,359.835c3.82,1.72,7.22,9.26,7.22,12.08c0,10.46-8.89,18.94-19.85,18.94
			c-10.96,0-19.85-8.48-19.85-18.94c0-3.93,3.52-12.93,13.53-15.91c1.79-0.27,3.61-0.39,5.47-0.35c4.64,0.11,9.32,1.43,13.76,3.6
			L296.205,359.835z M295.475,372.625c0-5.87-5.4-10.63-12.08-10.63s-12.1,4.76-12.1,10.63c0,5.89,5.42,10.63,12.1,10.63
			S295.475,378.516,295.475,372.625z"/>
		<path style="fill:#FFFFFF;" d="M277.255,356.005c-10.01,2.98-13.53,11.98-13.53,15.91c0,10.46,8.89,18.94,19.85,18.94
			c10.96,0,19.85-8.48,19.85-18.94c0-2.82-3.4-10.36-7.22-12.08l0.28-0.58c8.82,4.3,16.65,11.88,21.09,19.75
			c1.9,3.37,4.42,5.7,1.1,7.76c-2.83,1.76-6.25,0.51-9.28,1.91c-2.04,0.96-3.9,3.3-6.07,4.29c-2.59,1.21-6.04,1.9-8.84,2.48
			c-6.6,1.35-15.28,0.96-21.6-1.3c-10.43-3.7-19.46-10.17-27.28-17.41l-0.49-0.44C253.815,366.655,264.705,357.835,277.255,356.005z
			"/>
		<path style="fill:#FAD7D9;" d="M371.625,543.615c-16.35,0-37.13-3.319-51.6-13.489l0.26-2.12c15.26,1.83,30.01-4.62,36.84-3.04
			c4.26,0.97,9.81,8.59,14.51,3.899c9.7-9.7,55.3,7.36,69.3,21.36c-5.23-0.76-9.62-1.37-13.78-1.561l0.12-2.77
			C404.125,535.565,388.015,543.615,371.625,543.615z"/>
		<path style="fill:#FAD7D9;" d="M320.025,530.126c14.47,10.17,35.25,13.489,51.6,13.489c16.39,0,32.5-8.05,55.65,2.28l-0.12,2.77
			c-8.58-0.399-16.25,0.971-28.49,6.391c-23.89,10.56-44.97,2.49-56.71-2.561c-7.86-3.369-20.57-15.33-32.75-27.51
			c3.66,1.65,7.38,2.58,11.08,3.021L320.025,530.126z"/>
		<path style="fill:#9E5B16;" d="M232.725,346.525c1.45,10.83,3.67,22.11,3.96,33.9c0.74,30.29-12.51,40.72-2.92,85.31
			c10.76,50.09,26.27,66.271,47.65,108.37c11.33,22.3,29.86,44.771,52.36,62.08c0.17,0.13,0.34,0.26,0.51,0.38
			c10.96,10.75,14.53,30.4,11.37,43.35c-4.23,17.341-12.65,25.66-29.2,37.83c-15.08,11.091-117.95,42.971-131.88,51.15
			c-11.09-47.01-80.25-3.93-51.52-99.8c7.5-25.03,15-55.521,20.22-68.92c20.2-51.79,2.12-208.14,0.47-230.99
			c-4.23-58.9,17.64-148.4,49.39-200.09c53.48-87.1,140.58-124.63,274.791-108.98c99.68,11.62,190.77,120.65,190.77,258.82
			c0,48.42-19.09,101.95-13.62,150.22c3.141,27.73,9.061,90.07,42.2,123.21c16.43,16.431,19.16,78.07,12.29,101.32
			c-46.34-18.85-106.56-28.57-122.78-44.79c-35.59-35.59-24.479-94.24-24.16-114.19l-2.359-0.859
			c6.16-8.91,11.34-18.53,15.02-29.851c4.87-14.989,16.07-122.229-14.59-166.09c-38.8-55.49-136.55-132.34-124.899-165.01
			c0.319-0.66,0.6-1.31,0.85-1.96c-0.33,0.63-0.62,1.29-0.85,1.96c-20.771,43.8-172.101,103.36-189.38,120.64
			C229.955,309.996,230.175,327.565,232.725,346.525z"/>
		<path style="fill:#FFEEC8;" d="M586.785,648.896c16.221,16.22,76.44,25.94,122.78,44.79c-66.05,152.8-524.99,75.21-524.99,75.21
			c13.93-8.18,116.8-40.06,131.88-51.15c16.55-12.17,24.97-20.489,29.2-37.83c3.16-12.949-0.41-32.6-11.37-43.35
			c26.7,19.95,79,13.57,109.81-3.56c47.29-26.301,59.47-34.28,92.22-70.33c8.72-9.601,16.96-18.75,23.95-28.83l2.359,0.859
			C562.305,554.655,551.195,613.306,586.785,648.896z"/>
		<path d="M449.135,355.516c6.97,0,12.62,4.97,12.62,11.1c0,6.14-5.65,11.1-12.62,11.1c-6.98,0-12.61-4.96-12.61-11.1
			C436.525,360.485,442.155,355.516,449.135,355.516z M453.665,366.616c0-2.72-2.02-4.93-4.529-4.93c-2.49,0-4.521,2.21-4.521,4.93
			c0,2.73,2.03,4.94,4.521,4.94C451.645,371.556,453.665,369.346,453.665,366.616z"/>
		<path style="fill:#FFFFFF;" d="M449.135,361.686c2.51,0,4.529,2.21,4.529,4.93c0,2.73-2.02,4.94-4.529,4.94
			c-2.49,0-4.521-2.21-4.521-4.94C444.615,363.896,446.645,361.686,449.135,361.686z"/>
		<path d="M283.395,361.996c6.68,0,12.08,4.76,12.08,10.63c0,5.89-5.4,10.63-12.08,10.63s-12.1-4.74-12.1-10.63
			C271.295,366.755,276.715,361.996,283.395,361.996z M287.715,372.625c0-2.6-1.94-4.72-4.33-4.72c-2.4,0-4.33,2.12-4.33,4.72
			c0,2.62,1.93,4.74,4.33,4.74C285.775,377.366,287.715,375.246,287.715,372.625z"/>
		<path style="fill:#FFFFFF;" d="M283.385,367.905c2.39,0,4.33,2.12,4.33,4.72c0,2.62-1.94,4.74-4.33,4.74
			c-2.4,0-4.33-2.12-4.33-4.74C279.055,370.025,280.985,367.905,283.385,367.905z"/>
	</g>
	<g>
		<path style="fill:none;stroke:#000000;stroke-width:11.6761;" d="M390.335,295.996c10.86,47.49,65.06,10.5,89.44,20.02
			c13.07,5.11,21.04,11.16,24.48,14.59"/>
		<path style="fill:none;stroke:#000000;stroke-width:11.6761;" d="M345.695,298.206c-2.28,5.54,2.22,18.39-16.73,21.33
			c-43.43,6.75-74.14-5.67-96.24,26.99c-0.33,0.47-0.65,0.96-0.97,1.46"/>
		<path style="fill:none;stroke:#000000;stroke-width:11.6761;" d="M407.895,437.995c8.17,4.9,10.76,8.631,10.76,16.41
			c0,16.061-21.45,13.45-30.41,15c-5.78,1-10.34,4-17.74,7.271c-13.82,6.1-26.34,3.6-37.3-4.011c-7.28-5.05-9.34-13.42-7.3-19.55
			c4.32-12.939,24.29-67.31,24.29-109.52"/>
		<path style="fill:none;stroke:#000000;stroke-width:11.6761;" d="M320.285,528.006c15.26,1.83,30.01-4.62,36.84-3.04
			c4.26,0.97,9.81,8.59,14.51,3.899c9.7-9.7,55.3,7.36,69.3,21.36c-5.23-0.76-9.62-1.37-13.78-1.561
			c-8.58-0.399-16.25,0.971-28.49,6.391c-23.89,10.56-44.97,2.49-56.71-2.561c-7.86-3.369-20.57-15.33-32.75-27.51
			C312.865,526.636,316.585,527.565,320.285,528.006z"/>
		<path style="fill:none;stroke:#000000;stroke-width:11.6761;" d="M320.025,530.126c14.47,10.17,35.25,13.489,51.6,13.489
			c16.39,0,32.5-8.05,55.65,2.28"/>
		<path style="fill:none;stroke:#000000;stroke-width:17.5141;" d="M435.795,172.896c-11.65,32.67,86.1,109.52,124.899,165.01
			c30.66,43.86,19.46,151.101,14.59,166.09c-3.68,11.32-8.859,20.94-15.02,29.851c-6.99,10.08-15.23,19.229-23.95,28.83
			c-32.75,36.05-44.93,44.029-92.22,70.33c-30.81,17.13-83.11,23.51-109.81,3.56c-0.17-0.12-0.34-0.25-0.51-0.38
			c-22.5-17.31-41.03-39.78-52.36-62.08c-21.38-42.1-36.89-58.28-47.65-108.37c-9.59-44.59,3.66-55.02,2.92-85.31
			c-0.29-11.79-2.51-23.07-3.96-33.9c-2.55-18.96-2.77-36.53,13.69-52.99C263.695,276.255,415.025,216.695,435.795,172.896
			c0.319-0.66,0.6-1.31,0.85-1.96C436.315,171.565,436.025,172.226,435.795,172.896z"/>
		<path style="fill:none;stroke:#000000;stroke-width:11.1843;stroke-linecap:square;stroke-miterlimit:10;" d="M241.545,380.425
			c1.14-1.38,2.33-2.76,3.57-4.13c8.7-9.64,19.59-18.46,32.14-20.29c1.79-0.27,3.61-0.39,5.47-0.35c4.64,0.11,9.32,1.43,13.76,3.6
			c8.82,4.3,16.65,11.88,21.09,19.75c1.9,3.37,4.42,5.7,1.1,7.76c-2.83,1.76-6.25,0.51-9.28,1.91c-2.04,0.96-3.9,3.3-6.07,4.29
			c-2.59,1.21-6.04,1.9-8.84,2.48c-6.6,1.35-15.28,0.96-21.6-1.3c-10.43-3.7-19.46-10.17-27.28-17.41"/>
		<path style="fill:none;stroke:#000000;stroke-width:5.5922;stroke-linecap:square;stroke-miterlimit:10;" d="M295.835,359.686
			c0.12,0.04,0.25,0.09,0.37,0.15c3.82,1.72,7.22,9.26,7.22,12.08c0,10.46-8.89,18.94-19.85,18.94c-10.96,0-19.85-8.48-19.85-18.94
			c0-3.93,3.52-12.93,13.53-15.91"/>
		<path style="fill:none;stroke:#000000;stroke-width:17.5141;" d="M562.625,534.705c-0.319,19.95-11.43,78.601,24.16,114.19
			c16.221,16.22,76.44,25.94,122.78,44.79c6.87-23.25,4.14-84.89-12.29-101.32c-33.14-33.14-39.06-95.479-42.2-123.21
			c-5.47-48.27,13.62-101.8,13.62-150.22c0-138.17-91.09-247.2-190.77-258.82c-134.21-15.65-221.311,21.88-274.791,108.98
			c-31.75,51.69-53.62,141.19-49.39,200.09c1.65,22.85,19.73,179.2-0.47,230.99c-5.22,13.399-12.72,43.89-20.22,68.92
			c-28.73,95.87,40.43,52.79,51.52,99.8c13.93-8.18,116.8-40.06,131.88-51.15c16.55-12.17,24.97-20.489,29.2-37.83
			c3.16-12.949-0.41-32.6-11.37-43.35c-1.29-1.28-2.69-2.42-4.19-3.42"/>
		<path style="fill:none;stroke:#000000;stroke-width:11.6761;stroke-linecap:square;stroke-miterlimit:10;" d="M492.815,374.755
			c-1.17-1.41-2.38-2.84-3.64-4.25c-10.4-11.7-23.78-22.81-39.351-22.48c-14.43,0.34-29.4,12.89-36.38,25.24
			c-1.98,3.52-4.62,5.96-1.15,8.1c2.96,1.84,6.52,0.54,9.69,2c2.13,1,4.07,3.45,6.34,4.48c2.7,1.26,6.3,1.98,9.221,2.59
			c6.899,1.41,15.97,0.99,22.56-1.35c10.88-3.88,20.31-10.62,28.48-18.18"/>
		<path style="fill:none;stroke:#000000;stroke-width:5.838;stroke-linecap:square;stroke-miterlimit:10;" d="M449.825,349.255
			c-14.439,0-21.6,13.58-21.6,16.61c0,10.92,9.27,19.78,20.71,19.78c11.45,0,20.729-8.86,20.729-19.78
			C469.665,361.766,462.165,349.255,449.825,349.255z"/>
		<path style="fill:none;stroke:#000000;stroke-width:17.5141;" d="M436.645,170.936c8.17-13.11,13.84-27.36,18.11-46.09"/>
	</g>
</g>
<rect x="1.605" y="0.896" style="fill:none;" width="850.394" height="850.394"/>
</svg>
