<?xml version="1.0" encoding="iso-8859-1"?>
<!-- Generator: Adobe Illustrator 12.0.1, SVG Export Plug-In . SVG Version: 6.00 Build 51448)  -->
<!DOCTYPE svg PUBLIC "-//W3C//DTD SVG 1.1//EN" "http://www.w3.org/Graphics/SVG/1.1/DTD/svg11.dtd" [
	<!ENTITY ns_svg "http://www.w3.org/2000/svg">
	<!ENTITY ns_xlink "http://www.w3.org/1999/xlink">
]>
<svg  version="1.1" id="Layer_1" xmlns="&ns_svg;" xmlns:xlink="&ns_xlink;" width="850.394" height="850.394"
	 viewBox="0 0 850.394 850.394" style="overflow:visible;enable-background:new 0 0 850.394 850.394;" xml:space="preserve">
<g id="XMLID_2_">
	<g>
		<path style="fill:#BD2025;" d="M622.57,330.69v-0.01c23.949,0,44.029-4.4,58.72-14.98c1.08,1.42,1.66,2.88,1.66,4.4
			c0,10.33-27.021,21.3-60.37,21.3s-60.39-10.97-60.39-21.3c0-1.52,0.579-2.98,1.68-4.39C578.55,326.29,598.63,330.69,622.57,330.69
			z"/>
		<path style="fill:#BD2025;" d="M720.46,236.2c0.49,1.35,0.75,2.73,0.75,4.12c0,5.73-4.32,11.12-11.93,15.83
			c-16.73,10.35-49.37,17.37-86.9,17.37c-37.81,0-70.66-7.13-87.28-17.61c-7.38-4.64-11.56-9.95-11.56-15.59
			c0-1.4,0.26-2.78,0.76-4.13c6.08,16.38,47.67,29.05,98.08,29.05C672.78,265.24,714.37,252.57,720.46,236.2z"/>
		<path style="fill:#BD2025;" d="M681.29,315.7c-14.69,10.58-34.771,14.98-58.72,14.98v0.01c-23.94,0-44.021-4.4-58.7-14.98
			c-12.54-9.02-21.14-22.54-24.88-41.67l-4.36-17.39l0.47-0.74c16.62,10.48,49.471,17.61,87.28,17.61c37.53,0,70.17-7.02,86.9-17.37
			l1.239,0.5l-4.359,17.39C702.42,293.17,693.82,306.69,681.29,315.7z"/>
		<path style="fill:#FFF5B4;" d="M622.38,207.12c50.44,0,92.04,12.69,98.08,29.08c-6.09,16.37-47.68,29.04-98.08,29.04
			c-50.41,0-92-12.67-98.08-29.05C530.35,219.8,571.95,207.12,622.38,207.12z"/>
		<path style="fill:#F6CC4B;" d="M569.89,128.04c1.83,12.31-2.5,22.85-9.159,34.27c0,0-8.24,12.61-17.11,14.94
			c-8.86,2.34-16.46-0.58-21.03,7.26c-0.06,0.11-0.13,0.23-0.2,0.34c-0.27,0.46-0.55,0.95-0.84,1.45
			c-4.66,7.89-11.87,19.39-11.87,19.39s-52.47,90.2-55.84,95.98c-4.109,7.06-10.41,4.18-10.41,4.18s-5.59-3.93-1.479-10.99
			c3.37-5.79,55.96-95.92,55.96-95.92s7.95-13.67,12.52-21.51c4.57-7.84-1.71-13.01-4.05-21.88c-2.35-8.86,4.55-22.25,4.55-22.25
			c6.66-11.43,13.69-20.38,25.301-24.87c1.119-0.44,10.35-3.87,17.97-0.19c0,0,1.67,0.6,2.87,1.3l1.58,0.92
			c1.199,0.69,2.54,1.85,2.54,1.85C568.15,117.12,569.72,126.85,569.89,128.04z"/>
		<path style="fill:#9C5C25;" d="M532.08,632.03c8.38,27.489,9.95,60.87,6.939,71.54c-1.779,6.399-10.039,15.43-17.859,14.51
			c-8.641-0.93-10.62-21.29-14.79-27.771c-6.53,1.36-3.18,10.881-8.01,10.881c-4.181-4.16-5.591-15.66-5.591-27.7
			c0-11.48,1.28-23.44,2.641-29.99L498,644l33.73-13.09C531.85,631.28,531.96,631.66,532.08,632.03z"/>
		<path style="fill:#FFFFFF;" d="M326.86,398.47l51.35-65.83l0.84-1.74c5.57,3.07,12.79,7.14,20.58,11.78
			c17.19,10.24,37.14,23.24,48.19,34.3c0,0,43.439,87.55,56.569,140.63c9.04,36.6,31.341,113.3,31.341,113.3l-3.65,1.12
			c-0.12-0.37-0.23-0.75-0.35-1.12L498,644l-2.59-0.5c0.32-1.57,0.649-2.82,0.97-3.69L428.07,490.3L441.3,738.24l-2.95,0.16h-3.02
			h-97.68h-13.4H228h-4.94l-3.61-0.08c1.93-70.221,11.13-248.83,11.13-248.83l-68.3,149.5L130,624l-1.3-0.13
			c5.47-18.98,22.06-76.78,29.56-107.09c13.14-53.061,56.55-140.62,56.55-140.62c11.06-11.05,32.35-24.05,50.87-34.29
			c8.19-4.52,15.83-8.51,21.81-11.55L326.86,398.47z M375.98,470.67c0-4.52-3.67-8.189-8.19-8.189s-8.19,3.67-8.19,8.189
			c0,4.53,3.67,8.19,8.19,8.19S375.98,475.2,375.98,470.67z M375.98,552.95c0-4.53-3.67-8.2-8.19-8.2s-8.19,3.67-8.19,8.2
			c0,4.52,3.67,8.189,8.19,8.189S375.98,557.47,375.98,552.95z M298.18,470.67c0-4.52-3.67-8.189-8.19-8.189
			c-4.53,0-8.19,3.67-8.19,8.189c0,4.53,3.66,8.19,8.19,8.19C294.51,478.86,298.18,475.2,298.18,470.67z M298.18,552.95
			c0-4.53-3.67-8.2-8.19-8.2c-4.53,0-8.19,3.67-8.19,8.2c0,4.52,3.66,8.189,8.19,8.189C294.51,561.14,298.18,557.47,298.18,552.95z"
			/>
		<path style="fill:#231F20;" d="M435.33,738.4v4.39c-0.32,12.04-0.67,32.19-1.07,51.45h-91.61l-5-52.101V738.4H435.33z"/>
		<path style="fill:#FFFFFF;" d="M394.34,93.38c6.69,11,6.08,23.71-1.95,33.8c-2.98,3.74-8.99,6.38-10.98,10.61
			c-1.46,3.12-0.41,8.76-0.41,12.15c0,10.27,0,23.1,0,34.99h-0.02H280.01v17.13c0-14.98-0.61-37.14-0.61-52.12
			c0-3.38,1.05-9.03-0.42-12.14c-1.99-4.23-8-6.87-10.98-10.61c-8.03-10.1-8.63-22.81-1.95-33.81c7.07-11.65,15.67-11.61,26.74-7.58
			c15.19,5.53,7.77-14.75,17.32-22.65c5.87-4.86,12.94-6.81,20.11-6.68l0.21-0.01c7.09-0.08,14.05,1.88,19.86,6.69
			c9.55,7.89,2.12,28.17,17.31,22.65C378.68,81.76,387.28,81.72,394.34,93.38z"/>
		<path style="fill:#9C5C25;" d="M390.08,249.89c6.43,1.03,5.56,8.24,3.8,11.84c-4.29,8.75-2.33,11.97-2.88,18.65
			c-0.2,2.53-3.1,7.47-9.14,6.31l-0.33-0.09c2.16-7.52,3.43-15.44,3.43-23.5c0-2.23-0.3-7.33-0.64-12.74l1.15-0.07
			C386.85,249.79,388.4,249.63,390.08,249.89z"/>
		<path style="fill:#9C5C25;" d="M332.73,300.02c-0.07,0.02-0.14,0.03-0.22,0.04l0.53-0.03
			C332.93,300.03,332.83,300.03,332.73,300.02z M364,257.58c-1.92-0.93-4.02-1.46-6.27-1.41c-3,0.07-6.09,1.31-8.41,3.3l1.79,0.01
			c0.01,0.2,0.07,0.41,0.07,0.88c0,3.31,2.82,5.99,6.28,5.99s6.27-2.68,6.27-5.99c0-0.91,0.06-1.32-0.16-1.85L364,257.58z
			 M299.17,324.53c-8.23-9.57-15.76-22.68-19.96-37.36c-2.2-7.68-3.49-15.8-3.49-24.07c0-2.14,0.37-7.05,0.76-12.16
			c0.39-5.1,0.8-10.4,0.86-13.33l2.67-4.39h100.97l2.44,1.43c0.09,3.14,0.52,9.61,0.9,15.71c0.34,5.41,0.64,10.51,0.64,12.74
			c0,8.06-1.27,15.98-3.43,23.5c-4.05,14.14-11.22,26.86-18.93,36.4c-4.99,6.17-10.21,11.01-14.95,14.03
			c-5.93,2.86-10.45,2.45-17.31,2.45c-6.34,0-10.4,0.63-15.97-1.83C309.44,334.88,304.17,330.36,299.17,324.53z M312.9,259
			c-2.19-1.6-4.9-2.58-7.55-2.64c-2.29-0.05-4.43,0.49-6.38,1.45l0.48,1.03c-0.16,0.47-0.11,0.88-0.11,1.7c0,3.31,2.81,6,6.28,6
			C308.75,266.54,312.25,262.26,312.9,259z"/>
		<polygon style="fill:#FFFFFF;" points="380.98,184.93 380.98,233.22 280.01,233.22 280.01,202.06 280.01,184.93 		"/>
		<path style="fill:#9C5C25;" d="M379.05,330.9l-0.84,1.74l-51.35,65.83l-39.37-68.15c5.77-2.93,10-4.98,11.68-5.79
			c5,5.83,10.27,10.35,15.2,13.12c5.57,2.46,9.63,1.83,15.97,1.83c6.86,0,11.38,0.41,17.31-2.45c4.74-3.02,9.96-7.86,14.95-14.03
			l5.42,1.96C368.02,324.96,372.33,327.2,379.05,330.9z"/>
		<path style="fill:#231F20;" d="M367.79,462.48c4.52,0,8.19,3.67,8.19,8.189c0,4.53-3.67,8.19-8.19,8.19s-8.19-3.66-8.19-8.19
			C359.6,466.15,363.27,462.48,367.79,462.48z"/>
		<path style="fill:#231F20;" d="M367.79,544.75c4.52,0,8.19,3.67,8.19,8.2c0,4.52-3.67,8.189-8.19,8.189s-8.19-3.67-8.19-8.189
			C359.6,548.42,363.27,544.75,367.79,544.75z"/>
		<path style="fill:#FFFFFF;" d="M364,257.58l-0.43,0.93c0.22,0.53,0.16,0.94,0.16,1.85c0,3.31-2.81,5.99-6.27,5.99
			s-6.28-2.68-6.28-5.99c0-0.47-0.06-0.68-0.07-0.88l-1.79-0.01c2.32-1.99,5.41-3.23,8.41-3.3
			C359.98,256.12,362.08,256.65,364,257.58z M359.69,260.41c0-1.11-1.02-2.02-2.27-2.02s-2.26,0.91-2.26,2.02
			c0,1.12,1.01,2.02,2.26,2.02S359.69,261.53,359.69,260.41z"/>
		<path style="fill:#231F20;" d="M357.42,258.39c1.25,0,2.27,0.91,2.27,2.02c0,1.12-1.02,2.02-2.27,2.02s-2.26-0.9-2.26-2.02
			C355.16,259.3,356.17,258.39,357.42,258.39z"/>
		<path style="fill:#231F20;" d="M324.25,738.4v3.659l-5.18,52.181h-91.24c-0.49-22.05,0.56-37.76,0.17-52.24v-3.6H324.25z"/>
		<path style="fill:#FFFFFF;" d="M305.35,256.36c2.65,0.06,5.36,1.04,7.55,2.64c-0.65,3.26-4.15,7.54-7.28,7.54
			c-3.47,0-6.28-2.69-6.28-6c0-0.82-0.05-1.23,0.11-1.7l-0.48-1.03C300.92,256.85,303.06,256.31,305.35,256.36z M305.6,262.44
			c1.24,0,2.26-0.9,2.26-2.02c0-1.11-1.02-2.01-2.26-2.01c-1.25,0-2.27,0.9-2.27,2.01C303.33,261.54,304.35,262.44,305.6,262.44z"/>
		<path style="fill:#231F20;" d="M307.86,260.42c0,1.12-1.02,2.02-2.26,2.02c-1.25,0-2.27-0.9-2.27-2.02c0-1.11,1.02-2.01,2.27-2.01
			C306.84,258.41,307.86,259.31,307.86,260.42z"/>
		<path style="fill:#231F20;" d="M289.99,462.48c4.52,0,8.19,3.67,8.19,8.189c0,4.53-3.67,8.19-8.19,8.19
			c-4.53,0-8.19-3.66-8.19-8.19C281.8,466.15,285.46,462.48,289.99,462.48z"/>
		<path style="fill:#231F20;" d="M289.99,544.75c4.52,0,8.19,3.67,8.19,8.2c0,4.52-3.67,8.189-8.19,8.189
			c-4.53,0-8.19-3.67-8.19-8.189C281.8,548.42,285.46,544.75,289.99,544.75z"/>
		<path style="fill:#9C5C25;" d="M279.21,287.17l-0.56,0.16c-6.04,1.15-8.94-3.78-9.15-6.32c-0.55-6.68,1.42-9.89-2.87-18.65
			c-1.77-3.59-2.63-10.8,3.79-11.83c1.68-0.27,3.23-0.1,4.61,0.39l1.45,0.02c-0.39,5.11-0.76,10.02-0.76,12.16
			C275.72,271.37,277.01,279.49,279.21,287.17z"/>
		<path style="fill:#9C5C25;" d="M162.28,638.99c1.64,4.52,3.59,19.45,3.59,33.64c0,12.05-1.4,23.58-5.59,27.76
			c-4.8,0-1.47-9.56-8.03-10.88c-4.16,6.471-6.14,26.82-14.77,27.771c-7.79,0.92-16.08-8.141-17.86-14.511
			c-3.04-10.84-1.41-44.96,7.28-72.699c0,0,0.66-2.271,1.8-6.2L130,624L162.28,638.99z"/>
	</g>
	<g>
		<path style="fill:none;stroke:#231F20;stroke-width:14;" d="M126.9,630.07c0,0,0.66-2.271,1.8-6.2
			c5.47-18.98,22.06-76.78,29.56-107.09c13.14-53.061,56.55-140.62,56.55-140.62c11.06-11.05,32.35-24.05,50.87-34.29
			c8.19-4.52,15.83-8.51,21.81-11.55c5.77-2.93,10-4.98,11.68-5.79c0.52-0.25,0.8-0.38,0.8-0.38"/>
		<path style="fill:none;stroke:#231F20;stroke-width:14;" d="M219.26,745.77c0.05-2.319,0.11-4.81,0.19-7.449
			c1.93-70.221,11.13-248.83,11.13-248.83l-68.3,149.5c1.64,4.52,3.59,19.45,3.59,33.64c0,12.05-1.4,23.58-5.59,27.76
			c-4.8,0-1.47-9.56-8.03-10.88c-4.16,6.471-6.14,26.82-14.77,27.771c-7.79,0.92-16.08-8.141-17.86-14.511
			c-3.04-10.84-1.41-44.96,7.28-72.699"/>
		<path style="fill:none;stroke:#231F20;stroke-width:14;" d="M227.83,794.24c-0.49-22.05,0.56-37.76,0.17-52.24"/>
		<path style="fill:none;stroke:#231F20;stroke-width:14;" d="M535.73,630.91c0,0-22.301-76.7-31.341-113.3
			c-13.13-53.08-56.569-140.63-56.569-140.63c-11.051-11.06-31-24.06-48.19-34.3c-7.79-4.64-15.01-8.71-20.58-11.78
			c-6.72-3.7-11.03-5.94-11.03-5.94"/>
		<path style="fill:none;stroke:#231F20;stroke-width:14;" d="M441.82,747.9l-0.521-9.66L428.07,490.3l68.31,149.51
			c-0.32,0.87-0.649,2.12-0.97,3.69c-1.36,6.55-2.641,18.51-2.641,29.99c0,12.04,1.41,23.54,5.591,27.7
			c4.83,0,1.479-9.521,8.01-10.881c4.17,6.48,6.149,26.841,14.79,27.771c7.82,0.92,16.08-8.11,17.859-14.51
			c3.011-10.67,1.44-44.051-6.939-71.54c-0.12-0.37-0.23-0.75-0.35-1.12"/>
		<path style="fill:none;stroke:#231F20;stroke-width:14;" d="M434.26,794.24c0.4-19.26,0.75-39.41,1.07-51.45"/>
		<line style="fill:none;stroke:#231F20;stroke-width:14;" x1="324.25" y1="742.06" x2="319.07" y2="794.24"/>
		<line style="fill:none;stroke:#231F20;stroke-width:14;" x1="342.65" y1="794.24" x2="337.65" y2="742.14"/>
		<polyline style="fill:none;stroke:#231F20;stroke-width:14;" points="223.06,738.4 228,738.4 324.25,738.4 337.65,738.4 
			435.33,738.4 438.35,738.4 		"/>
		<path style="fill:none;stroke:#231F20;stroke-width:4.9374;stroke-linecap:square;stroke-miterlimit:10;" d="M292.33,263.24
			c1.86-2.25,4.09-4.19,6.64-5.43c1.95-0.96,4.09-1.5,6.38-1.45c2.65,0.06,5.36,1.04,7.55,2.64c1.42,1.03,2.63,2.32,3.46,3.78"/>
		<path style="fill:none;stroke:#231F20;stroke-width:3.2916;stroke-linecap:square;stroke-miterlimit:10;" d="M313,258
			c0,0.32-0.04,0.65-0.1,1c-0.65,3.26-4.15,7.54-7.28,7.54c-3.47,0-6.28-2.69-6.28-6c0-0.82-0.05-1.23,0.11-1.7"/>
		<path style="fill:none;stroke:#231F20;stroke-width:4.9374;stroke-linecap:square;stroke-miterlimit:10;" d="M370.74,263.05
			c-1.88-2.27-4.15-4.24-6.74-5.47c-1.92-0.93-4.02-1.46-6.27-1.41c-3,0.07-6.09,1.31-8.41,3.3c-1.06,0.91-1.95,1.96-2.61,3.13"/>
		<path style="fill:none;stroke:#231F20;stroke-width:3.2916;stroke-linecap:square;stroke-miterlimit:10;" d="M351.11,259.48
			c0.01,0.2,0.07,0.41,0.07,0.88c0,3.31,2.82,5.99,6.28,5.99s6.27-2.68,6.27-5.99c0-0.91,0.06-1.32-0.16-1.85"/>
		<path style="fill:none;stroke:#231F20;stroke-width:4.9374;" d="M275.03,250.92c-1.38-0.49-2.93-0.66-4.61-0.39
			c-6.42,1.03-5.56,8.24-3.79,11.83c4.29,8.76,2.32,11.97,2.87,18.65c0.21,2.54,3.11,7.47,9.15,6.32"/>
		<path style="fill:none;stroke:#231F20;stroke-width:4.9374;" d="M385.47,250.29c1.38-0.5,2.93-0.66,4.61-0.4
			c6.43,1.03,5.56,8.24,3.8,11.84c-4.29,8.75-2.33,11.97-2.88,18.65c-0.2,2.53-3.1,7.47-9.14,6.31"/>
		<path style="fill:none;stroke:#231F20;stroke-width:6.5832;" d="M317.53,315.95c7.9,3.15,20.42,2.79,27.14-0.15"/>
		<path style="fill:none;stroke:#231F20;stroke-width:14;" d="M383.42,234.65c0.09,3.14,0.52,9.61,0.9,15.71
			c0.34,5.41,0.64,10.51,0.64,12.74c0,8.06-1.27,15.98-3.43,23.5c-4.05,14.14-11.22,26.86-18.93,36.4
			c-4.99,6.17-10.21,11.01-14.95,14.03c-5.93,2.86-10.45,2.45-17.31,2.45c-6.34,0-10.4,0.63-15.97-1.83
			c-4.93-2.77-10.2-7.29-15.2-13.12c-8.23-9.57-15.76-22.68-19.96-37.36c-2.2-7.68-3.49-15.8-3.49-24.07
			c0-2.14,0.37-7.05,0.76-12.16c0.39-5.1,0.8-10.4,0.86-13.33"/>
		<path style="fill:none;stroke:#231F20;stroke-width:6.5832;" d="M332.73,300.02c3.01-0.55,2.47-2.32,5.68-1.55
			c2.77,0.67,5.7,2.06,6.39-2.27c0.48-2.98-1.76-3.37-2.95-5.76"/>
		<path style="fill:none;stroke:#231F20;stroke-width:6.5832;" d="M332.73,300.02c0.1,0.01,0.2,0.01,0.31,0.01l-0.53,0.03
			C332.59,300.05,332.66,300.04,332.73,300.02z"/>
		<path style="fill:none;stroke:#231F20;stroke-width:6.5832;" d="M323.4,262.91c4.96,5.45,3.46,18.24,1.24,24.9l-0.94,2.6
			c-1.19,2.39-3.43,2.77-2.95,5.76c0.69,4.32,3.63,2.94,6.39,2.27c3.19-0.77,2.47,1.45,5.59,1.58"/>
		<path style="fill:none;stroke:#231F20;stroke-width:3.2916;" d="M307.86,260.42c0,1.12-1.02,2.02-2.26,2.02
			c-1.25,0-2.27-0.9-2.27-2.02c0-1.11,1.02-2.01,2.27-2.01C306.84,258.41,307.86,259.31,307.86,260.42z"/>
		<path style="fill:none;stroke:#231F20;stroke-width:3.2916;" d="M359.69,260.41c0,1.12-1.02,2.02-2.27,2.02s-2.26-0.9-2.26-2.02
			c0-1.11,1.01-2.02,2.26-2.02S359.69,259.3,359.69,260.41z"/>
		<path style="fill:none;stroke:#231F20;stroke-width:6.5832;" d="M320.11,252.92c-2.68-5.64-13.15-7.84-18.46-6.78
			c-4.97,0.99-7.45,1.59-12.65,5.62"/>
		<path style="fill:none;stroke:#231F20;stroke-width:6.5832;" d="M341.81,251.68c2.68-5.64,13.15-7.83,18.45-6.77
			c4.99,0.99,7.46,1.59,12.65,5.62"/>
		<line style="fill:none;stroke:#231F20;stroke-width:14;" x1="130" y1="624" x2="162.28" y2="638.99"/>
		<line style="fill:none;stroke:#231F20;stroke-width:14;" x1="531.73" y1="630.91" x2="498" y2="644"/>
		<polyline style="fill:none;stroke:#231F20;stroke-width:14;" points="392.12,729.4 392.12,436.67 326.86,398.47 287.49,330.32 		
			"/>
		<line style="fill:none;stroke:#231F20;stroke-width:14;" x1="326.86" y1="398.47" x2="378.21" y2="332.64"/>
		<path style="fill:none;stroke:#231F20;stroke-width:6.5832;" d="M375.98,470.67c0,4.53-3.67,8.19-8.19,8.19s-8.19-3.66-8.19-8.19
			c0-4.52,3.67-8.189,8.19-8.189S375.98,466.15,375.98,470.67z"/>
		<path style="fill:none;stroke:#231F20;stroke-width:6.5832;" d="M375.98,552.95c0,4.52-3.67,8.189-8.19,8.189
			s-8.19-3.67-8.19-8.189c0-4.53,3.67-8.2,8.19-8.2S375.98,548.42,375.98,552.95z"/>
		<path style="fill:none;stroke:#231F20;stroke-width:6.5832;" d="M298.18,470.67c0,4.53-3.67,8.19-8.19,8.19
			c-4.53,0-8.19-3.66-8.19-8.19c0-4.52,3.66-8.189,8.19-8.189C294.51,462.48,298.18,466.15,298.18,470.67z"/>
		<path style="fill:none;stroke:#231F20;stroke-width:6.5832;" d="M298.18,552.95c0,4.52-3.67,8.189-8.19,8.189
			c-4.53,0-8.19-3.67-8.19-8.189c0-4.53,3.66-8.2,8.19-8.2C294.51,544.75,298.18,548.42,298.18,552.95z"/>
		<path style="fill:none;stroke:#231F20;stroke-width:14;" d="M381,200.36c0-4.71,0-9.97,0-15.43c0-11.89,0-24.72,0-34.99
			c0-3.39-1.05-9.03,0.41-12.15c1.99-4.23,8-6.87,10.98-10.61c8.03-10.09,8.64-22.8,1.95-33.8c-7.06-11.66-15.66-11.62-26.74-7.58
			c-15.19,5.52-7.76-14.76-17.31-22.65c-5.81-4.81-12.77-6.77-19.86-6.69l-0.21,0.01c-7.17-0.13-14.24,1.82-20.11,6.68
			c-9.55,7.9-2.13,28.18-17.32,22.65c-11.07-4.03-19.67-4.07-26.74,7.58c-6.68,11-6.08,23.71,1.95,33.81
			c2.98,3.74,8.99,6.38,10.98,10.61c1.47,3.11,0.42,8.76,0.42,12.14c0,14.98,0.61,37.14,0.61,52.12"/>
		<polygon style="fill:none;stroke:#231F20;stroke-width:14;" points="380.98,233.22 280.01,233.22 280.01,202.06 280.01,184.93 
			380.98,184.93 		"/>
		<path style="fill:none;stroke:#231F20;stroke-width:13.1665;" d="M522.39,184.85c0.07-0.11,0.141-0.23,0.2-0.34"/>
		<path style="fill:none;stroke:#231F20;stroke-width:9;" d="M522.39,184.85c-0.27,0.46-0.55,0.95-0.84,1.45
			c-4.66,7.89-11.87,19.39-11.87,19.39s-52.47,90.2-55.84,95.98c-4.109,7.06-10.41,4.18-10.41,4.18s-5.59-3.93-1.479-10.99
			c3.37-5.79,55.96-95.92,55.96-95.92s7.95-13.67,12.52-21.51c4.57-7.84-1.71-13.01-4.05-21.88c-2.35-8.86,4.55-22.25,4.55-22.25
			c6.66-11.43,13.69-20.38,25.301-24.87c1.119-0.44,10.35-3.87,17.97-0.19c0,0,1.67,0.6,2.87,1.3l1.58,0.92
			c1.199,0.69,2.54,1.85,2.54,1.85c6.96,4.81,8.529,14.54,8.699,15.73c1.83,12.31-2.5,22.85-9.159,34.27c0,0-8.24,12.61-17.11,14.94
			c-8.86,2.34-16.46-0.58-21.03,7.26"/>
		<path style="fill:none;stroke:#231F20;stroke-width:7;" d="M720.46,236.2c0.49,1.35,0.75,2.73,0.75,4.12
			c0,5.73-4.32,11.12-11.93,15.83c-16.73,10.35-49.37,17.37-86.9,17.37c-37.81,0-70.66-7.13-87.28-17.61
			c-7.38-4.64-11.56-9.95-11.56-15.59c0-1.4,0.26-2.78,0.76-4.13c6.05-16.39,47.65-29.07,98.08-29.07
			C672.82,207.12,714.42,219.81,720.46,236.2z"/>
		<path style="fill:none;stroke:#231F20;stroke-width:7;" d="M720.71,235.44c-0.08,0.25-0.16,0.51-0.25,0.76
			c-6.09,16.37-47.68,29.04-98.08,29.04c-50.41,0-92-12.67-98.08-29.05"/>
		<path style="fill:none;stroke:#231F20;stroke-width:7;" d="M622.58,330.69h-0.01c-23.94,0-44.021-4.4-58.7-14.98
			c-12.54-9.02-21.14-22.54-24.88-41.67l-4.36-17.39"/>
		<path style="fill:none;stroke:#231F20;stroke-width:7;" d="M622.57,330.68c23.949,0,44.029-4.4,58.72-14.98
			c12.53-9.01,21.13-22.53,24.87-41.66l4.359-17.39"/>
		<path style="fill:none;stroke:#231F20;stroke-width:7;" d="M681.28,315.69l0.01,0.01c1.08,1.42,1.66,2.88,1.66,4.4
			c0,10.33-27.021,21.3-60.37,21.3s-60.39-10.97-60.39-21.3c0-1.52,0.579-2.98,1.68-4.39"/>
	</g>
</g>
<rect style="fill:none;" width="850.394" height="850.394"/>
</svg>
