<?xml version="1.0" encoding="iso-8859-1"?>
<!-- Generator: Adobe Illustrator 12.0.1, SVG Export Plug-In . SVG Version: 6.00 Build 51448)  -->
<!DOCTYPE svg PUBLIC "-//W3C//DTD SVG 1.1//EN" "http://www.w3.org/Graphics/SVG/1.1/DTD/svg11.dtd" [
	<!ENTITY ns_svg "http://www.w3.org/2000/svg">
	<!ENTITY ns_xlink "http://www.w3.org/1999/xlink">
]>
<svg  version="1.1" id="Layer_1" xmlns="&ns_svg;" xmlns:xlink="&ns_xlink;" width="850.394" height="850.394"
	 viewBox="0 0 850.394 850.394" style="overflow:visible;enable-background:new 0 0 850.394 850.394;" xml:space="preserve">
<g id="XMLID_1_">
	<g>
		<path style="fill:#797878;" d="M202.91,793.48c-1.19-18.49-4.08-64.86-4.91-95.48l0.04-3.62l105.99,1.09L304,698l-8.59,94.8
			L202.91,793.48z"/>
		<path style="fill:#FFFFFF;" d="M304.03,695.47l-105.99-1.09l-21.39-0.22l27.9-267.641l31.14-161.069l6.78-3.81
			c5.67-3.13,11.1-6.03,15.98-8.57l5.19,0.47c7.86,19.15,27.86,32.75,51.3,32.75c23.46,0,43.49-13.64,51.32-32.83l0.47-0.85
			c5.08,2.85,10.95,6.22,17.15,9.91c2.14,1.27,4.31,2.59,6.51,3.93l-0.36,0.6l29.45,158.5L453.59,697l-25.56-0.26l-106.01-1.09
			L304.03,695.47z"/>
		<path style="fill:#797878;" d="M428.03,696.74L428,700c-0.72,27.05-2.53,76.61-3.57,92.8h-93.24L322,698l0.02-2.35L428.03,696.74z
			"/>
		<path style="fill:#FFF5B4;" d="M531.98,576.17c9.46,30.15,11.25,67.3,7.939,79.07c-1.939,6.96-10.939,16.79-19.439,15.79
			c-9.4-1.021-11.561-23.16-16.101-30.221c-7.1,1.48-3.46,11.841-8.71,11.841c-4.55-4.54-6.08-17.051-6.08-30.141
			c0-15.46,2.13-31.729,3.93-36.649L531.98,576.17z"/>
		<path style="fill:#FFEEC8;" d="M493.52,585.86L420.99,427.12l4.21-1.92l55.64-20.3l1.38-0.3c6.44,17.05,12.08,33.84,15.65,48.27
			c9.84,39.83,34.11,123.3,34.11,123.3L493.52,585.86z"/>
		<path style="fill:#FFEEC8;" d="M93.09,569.63c5.6-19.39,24.17-84.05,32.49-117.649c3.88-15.65,10.17-34.061,17.3-52.59l1.04,0.4
			l60.35,22.49l-74.32,162.69L96,570L93.09,569.63z"/>
		<path style="fill:#FFF5B4;" d="M93.09,569.63L96,570l33.95,14.97c1.79,4.92,3.91,21.16,3.91,36.61c0,13.11-1.53,25.65-6.08,30.189
			c-5.23,0-1.61-10.39-8.74-11.829c-4.52,7.04-6.68,29.18-16.08,30.21c-8.47,1.01-17.49-8.851-19.44-15.78
			c-3.3-11.79-1.53-48.93,7.94-79.11C91.46,575.26,92.05,573.22,93.09,569.63z"/>
		<path style="fill:#0071BC;" d="M482.22,404.6l-1.38,0.3l-55.64,20.3l-4.21,1.92l-1.81-3.96l0.3,2.39l-29.45-158.5l0.36-0.6
			c17.03,10.43,35.28,22.74,45.93,33.4C436.32,299.85,462.9,353.44,482.22,404.6z"/>
		<path style="fill:#0071BC;" d="M204.98,422.35l-0.71-0.07l-60.35-22.49l-1.04-0.4c19.14-49.81,44.23-100.43,44.23-100.43
			c10.7-10.69,30.21-23.07,48.58-33.51L204.55,426.52L204.98,422.35z"/>
		<path style="fill:#F6CC4B;" d="M605.88,81.43c2.01,13.55-2.75,25.13-10.08,37.7c0,0-9.069,13.87-18.81,16.43
			c-9.76,2.58-18.11-0.63-23.141,7.99c-0.069,0.12-0.14,0.24-0.21,0.37c-0.159,0.27-0.33,0.55-0.479,0.83
			c-0.061,0.1-0.12,0.2-0.18,0.3c-5.12,8.69-13.33,21.79-13.33,21.79s-57.721,99.22-61.431,105.59c-4.51,7.76-11.45,4.59-11.45,4.59
			s-6.149-4.32-1.619-12.09c3.71-6.36,61.55-105.51,61.55-105.51s8.75-15.04,13.78-23.66c5.02-8.62-1.891-14.31-4.471-24.06
			c-2.569-9.75,5.021-24.48,5.021-24.48c7.319-12.57,15.05-22.43,27.819-27.36c1.24-0.48,11.4-4.26,19.761-0.21
			c0,0,1.85,0.66,3.17,1.43l1.729,1.02c1.32,0.76,2.8,2.03,2.8,2.03C603.96,69.42,605.69,80.12,605.88,81.43z"/>
		<path style="fill:#FFF5B4;" d="M771.5,200.4c-6.69,18.01-52.44,31.95-107.88,31.95c-55.45,0-101.2-13.94-107.89-31.95h-0.011
			c6.66-18.03,52.431-31.98,107.9-31.98S764.84,182.37,771.5,200.4z"/>
		<path style="fill:#BD2025;" d="M728.42,287.86c1.19,1.55,1.82,3.16,1.82,4.83c0,11.37-29.721,23.44-66.41,23.44
			c-36.68,0-66.42-12.07-66.42-23.44c0-1.66,0.64-3.28,1.84-4.82c16.15,11.63,38.24,16.47,64.57,16.47h0.01
			C690.18,304.34,712.27,299.5,728.42,287.86z"/>
		<path style="fill:#BD2025;" d="M772.33,204.94c0,6.3-4.75,12.23-13.12,17.41c-18.4,11.38-54.31,19.11-95.59,19.11
			c-41.59,0-77.73-7.84-96.01-19.37c-8.12-5.11-12.721-10.95-12.721-17.15c0-1.54,0.28-3.05,0.83-4.54h0.011
			c6.689,18.01,52.439,31.95,107.89,31.95c55.439,0,101.189-13.94,107.88-31.95C772.05,201.89,772.33,203.4,772.33,204.94z"/>
		<path style="fill:#BD2025;" d="M728.42,287.86c-16.15,11.64-38.24,16.48-64.59,16.48h-0.01c-26.33,0-48.42-4.84-64.57-16.47
			c-13.78-9.92-23.25-24.8-27.37-45.84l-4.79-19.13l0.521-0.81c18.279,11.53,54.42,19.37,96.01,19.37
			c41.28,0,77.189-7.73,95.59-19.11l1.36,0.55l-4.801,19.13C751.66,263.06,742.2,277.93,728.42,287.86z"/>
		<path style="fill:#231F20;" d="M288.36,173.02c0,1.21-1.1,2.19-2.46,2.19s-2.46-0.98-2.46-2.19c0-1.22,1.1-2.2,2.46-2.2
			S288.36,171.8,288.36,173.02z"/>
		<path style="fill:#231F20;" d="M344.77,173c0,1.21-1.11,2.2-2.47,2.2c-1.36,0-2.46-0.99-2.46-2.2s1.1-2.2,2.46-2.2
			C343.66,170.8,344.77,171.79,344.77,173z"/>
		<path style="fill:#FFFFFF;" d="M344.77,173c0-1.21-1.11-2.2-2.47-2.2c-1.36,0-2.46,0.99-2.46,2.2s1.1,2.2,2.46,2.2
			C343.66,175.2,344.77,174.21,344.77,173z M342.63,168.38c2.45-0.05,4.74,0.52,6.83,1.54l-0.47,1.01c0.24,0.57,0.17,1.03,0.17,2.01
			c0,3.6-3.06,6.52-6.82,6.52c-3.77,0-6.83-2.92-6.83-6.52c0-0.5-0.07-0.73-0.07-0.95l-1.96-0.01
			C336.01,169.82,339.36,168.46,342.63,168.38z"/>
		<path style="fill:#FFFFFF;" d="M285.9,175.21c1.36,0,2.46-0.98,2.46-2.19c0-1.22-1.1-2.2-2.46-2.2s-2.46,0.98-2.46,2.2
			C283.44,174.23,284.54,175.21,285.9,175.21z M278.68,170.18c2.13-1.05,4.45-1.65,6.95-1.59c2.73,0.06,5.51,1.01,7.82,2.57
			l-0.12,0.17c0,3.61-3.63,8.33-7.4,8.33s-6.84-2.91-6.84-6.52c0-0.89-0.05-1.34,0.12-1.84L278.68,170.18z"/>
		<path style="fill:#FFEEC8;" d="M315.48,216.1c-0.01,0-0.02,0-0.02,0c-0.08,0.02-0.17,0.04-0.26,0.05l0.57-0.04
			C315.67,216.11,315.57,216.11,315.48,216.1z M349.46,169.92c-2.09-1.02-4.38-1.59-6.83-1.54c-3.27,0.08-6.62,1.44-9.15,3.6
			l1.96,0.01c0,0.22,0.07,0.45,0.07,0.95c0,3.6,3.06,6.52,6.83,6.52c3.76,0,6.82-2.92,6.82-6.52c0-0.98,0.07-1.44-0.17-2.01
			L349.46,169.92z M278.91,242.78c-5.44-6.32-10.59-14.06-14.82-22.74c-6.4-13.12-10.69-28.37-10.69-44.12
			c0-3.79-0.09-31.11-0.05-44.51l3.86,0.02c0,14.77,25.6,26.74,57.18,26.74s57.19-11.97,57.19-26.74
			c0.17,6.45,0.69,39.34,0.69,44.49c0,14.81-3.95,29.21-9.83,41.8c-4.56,9.81-10.3,18.51-16.22,25.46
			c-4.9,5.73-9.93,10.25-14.55,13.2c-6.45,3.11-11.37,2.66-18.84,2.66c-6.89,0-11.32,0.69-17.38-1.99
			C290.08,254.04,284.35,249.12,278.91,242.78z M279.09,173.14c0,3.61,3.07,6.52,6.84,6.52s7.4-4.72,7.4-8.33l0.12-0.17
			c-2.31-1.56-5.09-2.51-7.82-2.57c-2.5-0.06-4.82,0.54-6.95,1.59l0.53,1.12C279.04,171.8,279.09,172.25,279.09,173.14z"/>
		<path style="fill:#FFEEC8;" d="M366.73,252.61l-0.47,0.85c-7.83,19.19-27.86,32.83-51.32,32.83c-23.44,0-43.44-13.6-51.3-32.75
			l-5.19-0.47c10.17-5.31,17.94-9.08,20.46-10.29c5.44,6.34,11.17,11.26,16.54,14.27c6.06,2.68,10.49,1.99,17.38,1.99
			c7.47,0,12.39,0.45,18.84-2.66c4.62-2.95,9.65-7.47,14.55-13.2l3.26,0.06C349.48,243.24,356.49,246.88,366.73,252.61z"/>
		<path style="fill:#FFFFFF;" d="M371.58,131.43c0,14.77-25.61,26.74-57.19,26.74s-57.18-11.97-57.18-26.74H371.58z"/>
		<path style="fill:#FFFFFF;" d="M253.35,131.41c-0.04,13.4,0.05,40.72,0.05,44.51c0,15.75,4.29,31,10.69,44.12
			c-30.98-6.1-42.25-41.66-42.25-70.49c0-48.18,41.13-74.7,91.87-74.7c50.75,0,91.88,29.86,91.88,74.7
			c0,29.63-14.84,61.96-43.15,68.17c5.88-12.59,9.83-26.99,9.83-41.8c0-5.15-0.52-38.04-0.69-44.49H257.21L253.35,131.41z"/>
	</g>
	<g>
		<path style="fill:none;stroke:#231F20;stroke-width:14;" d="M91.46,575.26c0,0,0.59-2.04,1.63-5.63
			c5.6-19.39,24.17-84.05,32.49-117.649c3.88-15.65,10.17-34.061,17.3-52.59c19.14-49.81,44.23-100.43,44.23-100.43
			c10.7-10.69,30.21-23.07,48.58-33.51l6.78-3.81c5.67-3.13,11.1-6.03,15.98-8.57c10.17-5.31,17.94-9.08,20.46-10.29
			c0.57-0.28,0.87-0.42,0.87-0.42"/>
		<path style="fill:none;stroke:#231F20;stroke-width:14;" d="M204.27,422.28l-74.32,162.69c1.79,4.92,3.91,21.16,3.91,36.61
			c0,13.11-1.53,25.65-6.08,30.189c-5.23,0-1.61-10.39-8.74-11.829c-4.52,7.04-6.68,29.18-16.08,30.21
			c-8.47,1.01-17.49-8.851-19.44-15.78c-3.3-11.79-1.53-48.93,7.94-79.11"/>
		<path style="fill:none;stroke:#231F20;stroke-width:14;" d="M202.91,793.48c-1.19-18.49-4.08-64.86-4.91-95.48"/>
		<path style="fill:none;stroke:#231F20;stroke-width:14;" d="M531.98,576.17c0,0-24.271-83.47-34.11-123.3
			c-3.57-14.43-9.21-31.22-15.65-48.27C462.9,353.44,436.32,299.85,436.32,299.85c-10.65-10.66-28.9-22.97-45.93-33.4
			c-2.2-1.34-4.37-2.66-6.51-3.93c-6.2-3.69-12.07-7.06-17.15-9.91c-10.24-5.73-17.25-9.37-17.25-9.37"/>
		<path style="fill:none;stroke:#231F20;stroke-width:14;" d="M424.43,792.8c1.04-16.189,2.85-65.75,3.57-92.8"/>
		<line style="fill:none;stroke:#231F20;stroke-width:14;" x1="304" y1="698" x2="295.41" y2="792.8"/>
		<line style="fill:none;stroke:#231F20;stroke-width:14;" x1="331.19" y1="792.8" x2="322" y2="698"/>
		<path style="fill:none;stroke:#231F20;stroke-width:14;" d="M205.45,417.88l-0.47,4.47l-0.43,4.169l-27.9,267.641l21.39,0.22
			l105.99,1.09l17.99,0.181l106.01,1.09l25.56,0.26l-34.11-271.45l-0.3-2.39l1.81,3.96l72.529,158.74
			c-1.8,4.92-3.93,21.189-3.93,36.649c0,13.09,1.53,25.601,6.08,30.141c5.25,0,1.61-10.36,8.71-11.841
			c4.54,7.061,6.7,29.2,16.101,30.221c8.5,1,17.5-8.83,19.439-15.79c3.311-11.771,1.521-48.92-7.939-79.07"/>
		<path style="fill:none;stroke:#231F20;stroke-width:4.8612;stroke-linecap:square;stroke-miterlimit:10;" d="M271.47,176.08
			c2.02-2.44,4.44-4.56,7.21-5.9c2.13-1.05,4.45-1.65,6.95-1.59c2.73,0.06,5.51,1.01,7.82,2.57c1.72,1.18,3.19,2.68,4.17,4.42"/>
		<path style="fill:none;stroke:#231F20;stroke-width:3.2408;stroke-linecap:square;stroke-miterlimit:10;" d="M293.33,171.33
			c0,3.61-3.63,8.33-7.4,8.33s-6.84-2.91-6.84-6.52c0-0.89-0.05-1.34,0.12-1.84"/>
		<path style="fill:none;stroke:#231F20;stroke-width:4.8612;stroke-linecap:square;stroke-miterlimit:10;" d="M356.79,175.88
			c-2.05-2.48-4.51-4.62-7.33-5.96c-2.09-1.02-4.38-1.59-6.83-1.54c-3.27,0.08-6.62,1.44-9.15,3.6c-1.14,0.98-2.12,2.14-2.84,3.41"
			/>
		<path style="fill:none;stroke:#231F20;stroke-width:3.2408;stroke-linecap:square;stroke-miterlimit:10;" d="M335.44,171.99
			c0,0.22,0.07,0.45,0.07,0.95c0,3.6,3.06,6.52,6.83,6.52c3.76,0,6.82-2.92,6.82-6.52c0-0.98,0.07-1.44-0.17-2.01"/>
		<path style="fill:none;stroke:#231F20;stroke-width:7;" d="M298.9,233.44c8.59,3.43,22.21,3.03,29.52-0.16"/>
		<path style="fill:none;stroke:#231F20;stroke-width:14;" d="M371.58,131.43c0.17,6.45,0.69,39.34,0.69,44.49
			c0,14.81-3.95,29.21-9.83,41.8c-4.56,9.81-10.3,18.51-16.22,25.46c-4.9,5.73-9.93,10.25-14.55,13.2
			c-6.45,3.11-11.37,2.66-18.84,2.66c-6.89,0-11.32,0.69-17.38-1.99c-5.37-3.01-11.1-7.93-16.54-14.27
			c-5.44-6.32-10.59-14.06-14.82-22.74c-6.4-13.12-10.69-28.37-10.69-44.12c0-3.79-0.09-31.11-0.05-44.51
			c0.02-3.03,0.03-5.35,0.06-6.52"/>
		<path style="fill:none;stroke:#231F20;stroke-width:7;" d="M315.48,216.1c3.22-0.61,2.65-2.53,6.13-1.68
			c3.02,0.73,6.21,2.23,6.96-2.48c0.52-3.24-1.92-3.66-3.21-6.27"/>
		<path style="fill:none;stroke:#231F20;stroke-width:7;" d="M305.28,175.72c5.4,5.93,3.76,19.85,1.35,27.1l-1.02,2.82
			c-1.3,2.61-3.73,3.02-3.21,6.27c0.75,4.7,3.94,3.2,6.95,2.48c3.48-0.85,2.68,1.57,6.11,1.71c0,0,0.01,0,0.02,0
			c0.09,0.01,0.19,0.01,0.29,0.01l-0.57,0.04c0.09-0.01,0.18-0.03,0.26-0.05"/>
		<path style="fill:none;stroke:#231F20;stroke-width:3.2408;" d="M288.36,173.02c0,1.21-1.1,2.19-2.46,2.19s-2.46-0.98-2.46-2.19
			c0-1.22,1.1-2.2,2.46-2.2S288.36,171.8,288.36,173.02z"/>
		<path style="fill:none;stroke:#231F20;stroke-width:3.2408;" d="M344.77,173c0,1.21-1.11,2.2-2.47,2.2c-1.36,0-2.46-0.99-2.46-2.2
			s1.1-2.2,2.46-2.2C343.66,170.8,344.77,171.79,344.77,173z"/>
		<line style="fill:none;stroke:#231F20;stroke-width:14;" x1="96" y1="570" x2="129.95" y2="584.97"/>
		<line style="fill:none;stroke:#231F20;stroke-width:19.4449;" x1="531.98" y1="576.17" x2="493.52" y2="585.86"/>
		<line style="fill:none;stroke:#231F20;stroke-width:14;" x1="143.92" y1="399.79" x2="204.27" y2="422.28"/>
		<line style="fill:none;stroke:#231F20;stroke-width:14;" x1="480.84" y1="404.9" x2="425.2" y2="425.2"/>
		<path style="fill:none;stroke:#231F20;stroke-width:14;" d="M366.26,253.46c-7.83,19.19-27.86,32.83-51.32,32.83
			c-23.44,0-43.44-13.6-51.3-32.75"/>
		<line style="fill:none;stroke:#231F20;stroke-width:14;" x1="235.69" y1="265.45" x2="204.55" y2="426.52"/>
		<polyline style="fill:none;stroke:#231F20;stroke-width:14;" points="390.03,267.05 419.48,425.55 421.16,434.59 		"/>
		<path style="fill:none;stroke:#231F20;stroke-width:14;" d="M264.1,220.04h-0.01c-30.98-6.1-42.25-41.66-42.25-70.49
			c0-48.18,41.13-74.7,91.87-74.7c50.75,0,91.88,29.86,91.88,74.7c0,29.63-14.84,61.96-43.15,68.17c-0.12,0.03-0.24,0.05-0.36,0.08"
			/>
		<path style="fill:none;stroke:#231F20;stroke-width:14;" d="M371.58,131.43c0,14.77-25.61,26.74-57.19,26.74
			s-57.18-11.97-57.18-26.74H371.58z"/>
		<path style="fill:none;stroke:#231F20;stroke-width:12.9633;" d="M553.16,144.75c0.149-0.28,0.32-0.56,0.479-0.83
			c0.07-0.13,0.141-0.25,0.21-0.37"/>
		<path style="fill:none;stroke:#231F20;stroke-width:12.9633;" d="M552.71,145.52c0.09-0.16,0.18-0.32,0.271-0.47"/>
		<path style="fill:none;stroke:#231F20;stroke-width:7;" d="M553.64,143.92c-0.159,0.27-0.319,0.55-0.479,0.83
			c-0.061,0.1-0.12,0.2-0.18,0.3c-5.12,8.69-13.33,21.79-13.33,21.79s-57.721,99.22-61.431,105.59c-4.51,7.76-11.45,4.59-11.45,4.59
			s-6.149-4.32-1.619-12.09c3.71-6.36,61.55-105.51,61.55-105.51s8.75-15.04,13.78-23.66c5.02-8.62-1.891-14.31-4.471-24.06
			c-2.569-9.75,5.021-24.48,5.021-24.48c7.319-12.57,15.05-22.43,27.819-27.36c1.24-0.48,11.4-4.26,19.761-0.21
			c0,0,1.85,0.66,3.17,1.43l1.729,1.02c1.32,0.76,2.8,2.03,2.8,2.03c7.65,5.29,9.381,15.99,9.57,17.3
			c2.01,13.55-2.75,25.13-10.08,37.7c0,0-9.069,13.87-18.81,16.43c-9.76,2.58-18.11-0.63-23.141,7.99"/>
		<path style="fill:none;stroke:#231F20;stroke-width:7;" d="M771.5,200.4c0.55,1.49,0.83,3,0.83,4.54c0,6.3-4.75,12.23-13.12,17.41
			c-18.4,11.38-54.31,19.11-95.59,19.11c-41.59,0-77.73-7.84-96.01-19.37c-8.12-5.11-12.721-10.95-12.721-17.15
			c0-1.54,0.28-3.05,0.83-4.54c6.66-18.03,52.431-31.98,107.9-31.98S764.84,182.37,771.5,200.4z"/>
		<path style="fill:none;stroke:#231F20;stroke-width:7;" d="M771.78,199.57c-0.08,0.28-0.181,0.55-0.28,0.83
			c-6.69,18.01-52.44,31.95-107.88,31.95c-55.45,0-101.2-13.94-107.89-31.95"/>
		<path style="fill:none;stroke:#231F20;stroke-width:7;" d="M663.82,304.34c-26.33,0-48.42-4.84-64.57-16.47
			c-13.78-9.92-23.25-24.8-27.37-45.84l-4.79-19.13"/>
		<path style="fill:none;stroke:#231F20;stroke-width:7;" d="M663.82,304.34h0.01c26.35,0,48.439-4.84,64.59-16.48
			c13.78-9.93,23.24-24.8,27.35-45.83l4.801-19.13"/>
		<path style="fill:none;stroke:#231F20;stroke-width:7;" d="M728.41,287.85l0.01,0.01c1.19,1.55,1.82,3.16,1.82,4.83
			c0,11.37-29.721,23.44-66.41,23.44c-36.68,0-66.42-12.07-66.42-23.44c0-1.66,0.64-3.28,1.84-4.82"/>
	</g>
</g>
<rect style="fill:none;" width="850.394" height="850.394"/>
<rect style="fill:none;" width="850.394" height="850.394"/>
</svg>
