<?xml version="1.0" encoding="iso-8859-1"?>
<!-- Generator: Adobe Illustrator 12.0.1, SVG Export Plug-In . SVG Version: 6.00 Build 51448)  -->
<!DOCTYPE svg PUBLIC "-//W3C//DTD SVG 1.1//EN" "http://www.w3.org/Graphics/SVG/1.1/DTD/svg11.dtd" [
	<!ENTITY ns_svg "http://www.w3.org/2000/svg">
	<!ENTITY ns_xlink "http://www.w3.org/1999/xlink">
]>
<svg  version="1.1" id="Layer_1" xmlns="&ns_svg;" xmlns:xlink="&ns_xlink;" width="850.394" height="850.394"
	 viewBox="0 0 850.394 850.394" style="overflow:visible;enable-background:new 0 0 850.394 850.394;" xml:space="preserve">
<g id="XMLID_4_">
	<g>
		<g id="XMLID_5_">
			<g>
				<path style="fill:#FFD3F7;" d="M353.74,167.73c3.42,4.3,7.88,7.9,12.96,10.83c16.19,9.35,38.7,11.9,54.38,8.51
					c13.09-2.83,26.99-7.82,37.06-16.87c5.96-5.36,10.841-12,14.311-19.2h0.01c18.26-3.89,40.36,12.19,45.35,34.45
					c3.07,13.67,2.46,24.96-0.64,34.58c-4.85,15.04-15.8,25.98-28.35,35.46c-37.271,28.14-117.08,30.78-163.22-24.2
					c5.24-8.53,4.96-18.12,3.86-29.74C328.2,188.27,336.7,168.23,353.74,167.73z"/>
				<path style="fill:#FFD3F7;" d="M403.38,60.49c5.82-7.52,30.75,2.41,35.93,5.36c25.931,14.77,39.021,30.47,38.98,61.01
					c-0.01,8.05-2.1,16.41-5.84,24.14c-3.47,7.2-8.351,13.84-14.311,19.2c-10.069,9.05-23.97,14.04-37.06,16.87
					c-15.68,3.39-38.19,0.84-54.38-8.51c7.88-38.75,48.59-20.77,70.84-43.02C462.62,110.46,433.83,66.04,403.38,60.49z"/>
				<path style="fill:#FFEEC8;" d="M308.2,328.05c23.42,30.65,66.58,45.15,106.25,45.05c43-0.11,94.43-7.4,122.91-43.62
					c1.18-1.5,2.3-3.05,3.35-4.62L509.88,433.15c-3.62,13.909-11.32,23.79-22.75,30.51c-14.71,8.66-35.6,12.08-61.93,12.08
					c-27.19,0-49.8-4.86-64.89-14.48c-10.85-6.92-17.81-16.3-19.78-28.109l-32.49-104.98L308.2,328.05z"/>
				<path style="fill:#FFD3F7;" d="M366.7,178.56c-5.08-2.93-9.54-6.53-12.96-10.83c-4.23-5.29-6.89-11.64-7.24-19.1
					c-0.62-13.25,5.22-25.04,18.13-29.77c9.82-3.59,24.09-2.87,30.29-5.15c0,0,17.4-4.3,17.4-17.4c0-13.09-13.14-30.36-8.94-35.82
					c30.45,5.55,59.24,49.97,34.16,75.05C415.29,157.79,374.58,139.81,366.7,178.56z"/>
				<path style="fill:#FFEEC8;" d="M360.31,461.26c15.09,9.62,37.7,14.48,64.89,14.48c26.33,0,47.22-3.42,61.93-12.08v0.01
					L457.98,745.52c0,0-2.36,23.48-8.58,32.061c0,0-1.95,4.189-12.32,8.78c-4.74,2.1-9.24,2.51-11.9,2.529c0,0-6.28,0.94-13.8-2.39
					c-10.36-4.56-12.31-8.77-12.31-8.77c-6.51-8.24-8.87-21.94-9.6-33.7L360.31,461.26z"/>
				<path style="fill:#FFD3F7;" d="M318.94,239.17c0.44-0.27,0.79-0.5-0.18-0.01c2.95-2.53,5.17-5.15,6.84-7.87
					c46.14,54.98,125.95,52.34,163.22,24.2c12.55-9.48,23.5-20.42,28.35-35.46c13.65,5.63,34.51,19.5,36.811,49.66
					c1.52,19.88-2.591,39.21-13.271,55.17c-1.05,1.57-2.17,3.12-3.35,4.62c-28.48,36.22-79.91,43.51-122.91,43.62
					c-39.67,0.1-82.83-14.4-106.25-45.05c-3.22-4.22-6.07-8.74-8.49-13.58c-10.24-20.48-4.87-63.13,18.84-75.2
					c0.07-0.04,0.14-0.07,0.2-0.1c-0.12,0.11-0.24,0.21-0.36,0.32c0,0.01-0.01,0.01-0.02,0.02c0.09-0.05,0.24-0.14,0.41-0.24
					c0,0,0,0,0.01-0.01C318.84,239.23,318.89,239.2,318.94,239.17z"/>
				<path style="fill:#FFFFFF;" d="M318.94,239.17c-0.05,0.03-0.1,0.06-0.15,0.09C318.84,239.23,318.89,239.2,318.94,239.17z"/>
				<path style="fill:#FFFFFF;" d="M318.39,239.49c0.07-0.04,0.23-0.13,0.39-0.22c-0.17,0.1-0.32,0.19-0.41,0.24
					C318.38,239.5,318.39,239.5,318.39,239.49z"/>
			</g>
			<g>
				<path style="fill:none;stroke:#000000;stroke-width:19.8651;" d="M403.38,60.49c5.82-7.52,30.75,2.41,35.93,5.36
					c25.931,14.77,39.021,30.47,38.98,61.01c-0.01,8.05-2.1,16.41-5.84,24.14c-3.47,7.2-8.351,13.84-14.311,19.2
					c-10.069,9.05-23.97,14.04-37.06,16.87c-15.68,3.39-38.19,0.84-54.38-8.51c-5.08-2.93-9.54-6.53-12.96-10.83
					c-4.23-5.29-6.89-11.64-7.24-19.1c-0.62-13.25,5.22-25.04,18.13-29.77c9.82-3.59,24.09-2.87,30.29-5.15c0,0,17.4-4.3,17.4-17.4
					C412.32,83.22,399.18,65.95,403.38,60.49z"/>
				<path style="fill:none;stroke:#000000;stroke-width:19.8651;stroke-linecap:round;stroke-linejoin:round;" d="M472.46,151
					c18.26-3.89,40.36,12.19,45.35,34.45c3.07,13.67,2.46,24.96-0.64,34.58c-4.85,15.04-15.8,25.98-28.35,35.46
					c-37.271,28.14-117.08,30.78-163.22-24.2"/>
				<path style="fill:none;stroke:#000000;stroke-width:19.8651;" d="M318.76,239.16c2.95-2.53,5.17-5.15,6.84-7.87
					c5.24-8.53,4.96-18.12,3.86-29.74c-1.26-13.28,7.24-33.32,24.28-33.82"/>
				<path style="fill:none;stroke:#000000;stroke-width:19.8651;" d="M517.16,220.02l0.01,0.01c13.65,5.63,34.51,19.5,36.811,49.66
					c1.52,19.88-2.591,39.21-13.271,55.17c-1.05,1.57-2.17,3.12-3.35,4.62c-28.48,36.22-79.91,43.51-122.91,43.62
					c-39.67,0.1-82.83-14.4-106.25-45.05c-3.22-4.22-6.07-8.74-8.49-13.58c-10.24-20.48-4.87-63.13,18.84-75.2
					c0.07-0.04,0.14-0.07,0.2-0.1c0,0,0.01,0,0.01-0.01c0.97-0.49,0.62-0.26,0.18,0.01c-0.05,0.03-0.1,0.06-0.15,0.09
					c-0.01,0.01-0.01,0.01-0.01,0.01c-0.17,0.1-0.32,0.19-0.43,0.25c0.01-0.01,0.01-0.01,0.02-0.01c0.01-0.01,0.02-0.01,0.02-0.02
					c0.12-0.11,0.24-0.21,0.36-0.32"/>
				<path style="fill:none;stroke:#000000;stroke-width:19.8651;" d="M366.7,178.57v-0.01c7.88-38.75,48.59-20.77,70.84-43.02
					c25.08-25.08-3.71-69.5-34.16-75.05"/>
				<path style="fill:none;stroke:#000000;stroke-width:19.8651;" d="M487.13,463.67L457.98,745.52c0,0-2.36,23.48-8.58,32.061
					c0,0-1.95,4.189-12.32,8.78c-4.74,2.1-9.24,2.51-11.9,2.529c0,0-6.28,0.94-13.8-2.39c-10.36-4.56-12.31-8.77-12.31-8.77
					c-6.51-8.24-8.87-21.94-9.6-33.7L360.31,461.26"/>
				<path style="fill:none;stroke:#000000;stroke-width:19.8651;" d="M540.73,324.79l-0.021,0.07L509.88,433.15
					c-3.62,13.909-11.32,23.79-22.75,30.51c-14.71,8.66-35.6,12.08-61.93,12.08c-27.19,0-49.8-4.86-64.89-14.48
					c-10.85-6.92-17.81-16.3-19.78-28.109l-32.49-104.98"/>
			</g>
		</g>
	</g>
</g>
<rect style="fill:none;" width="850.394" height="850.394"/>
</svg>
