<?xml version="1.0" encoding="iso-8859-1"?>
<!-- Generator: Adobe Illustrator 12.0.1, SVG Export Plug-In . SVG Version: 6.00 Build 51448)  -->
<!DOCTYPE svg PUBLIC "-//W3C//DTD SVG 1.1//EN" "http://www.w3.org/Graphics/SVG/1.1/DTD/svg11.dtd" [
	<!ENTITY ns_svg "http://www.w3.org/2000/svg">
	<!ENTITY ns_xlink "http://www.w3.org/1999/xlink">
]>
<svg  version="1.1" id="Layer_1" xmlns="&ns_svg;" xmlns:xlink="&ns_xlink;" width="850.394" height="850.394"
	 viewBox="0 0 850.394 850.394" style="overflow:visible;enable-background:new 0 0 850.394 850.394;" xml:space="preserve">
<g id="XMLID_3_">
	<g>
		<polygon style="fill:#FFF5B4;" points="688.7,400.03 688.7,363.6 730,374 731.8,377.44 		"/>
		<polygon style="fill:#FFEEC8;" points="600.03,248.74 600.03,341.28 512.92,319.35 512.92,281.41 511.45,277.22 599.2,246.38 		
			"/>
		<polygon style="fill:#FFF5B4;" points="688.7,363.6 688.7,400.03 600.03,446.5 600.03,341.28 		"/>
		<polygon style="fill:#FFF5B4;" points="600.03,341.28 600.03,446.5 512.92,492.15 512.92,319.35 		"/>
		<polygon style="fill:#FFEEC8;" points="688.7,214.92 688.7,363.6 600.03,341.28 600.03,248.74 599.2,246.38 		"/>
		<polygon style="fill:#FFF5B4;" points="512.92,319.35 512.92,492.15 427.65,536.84 427.65,309.4 426.8,306.97 443.66,301.04 
			444,302 		"/>
		<polygon style="fill:#FFEEC8;" points="743.14,196.33 743.14,371.5 731.8,377.44 730,374 688.7,363.6 688.7,214.92 741.59,196.33 
					"/>
		<polygon style="fill:#FFF5B4;" points="427.65,309.4 427.65,536.84 372,566 369.81,566 369.81,329.66 369.81,327 395.44,317.99 
			426.8,306.97 		"/>
		<polygon style="fill:#FFF5B4;" points="427.65,536.84 427.65,628.16 369.81,659.89 369.81,566 372,566 		"/>
		<polygon style="fill:#FFF5B4;" points="512.92,492.15 512.92,581.39 427.65,628.16 427.65,536.84 		"/>
		<polygon style="fill:#FFF5B4;" points="600.03,446.5 600.03,533.61 512.92,581.39 512.92,492.15 		"/>
		<polygon style="fill:#FFF5B4;" points="688.7,400.03 688.7,484.97 600.03,533.61 600.03,446.5 		"/>
		<polygon style="fill:#FFF5B4;" points="743.14,371.5 743.14,457.67 738.48,457.67 688.7,484.97 688.7,400.03 731.8,377.44 		"/>
		<path style="fill:#FFEEC8;" d="M369.81,566v93.89L105.36,565V264.33l0.1-0.02c3.2-0.68,80.66-16.73,147.68,0.02
			c23.63,5.9,44.85,15.52,62.51,25.58c33.48,19.08,54.16,39.75,54.16,39.75V566z M329.07,613.16l2.79-272.86
			c-17.17-17.17-48.16-39.99-78.44-47.56c-38.67-9.67-80.66-13.08-112.49-0.23V544.86L329.07,613.16z"/>
		<path style="fill:#EF947D;" d="M331.86,340.3l-2.79,272.86l-188.14-68.3V292.51c31.83-12.85,73.82-9.44,112.49,0.23
			C283.7,300.31,314.69,323.13,331.86,340.3z"/>
		<path style="fill:#FFEEC8;" d="M502.03,167.16v-16.84h1.18c0,0,67.2-25.56,129.42-19.69s105.38,37.64,105.38,37.64h5.13v28.06
			h-1.55l-52.89,18.59l-89.5,31.46l-87.75,30.84l-9.25,3.25l-0.17-0.49V167.16z"/>
	</g>
	<g>
		<polyline style="fill:none;stroke:#231F20;stroke-width:21;" points="105.36,638.11 105.36,565 105.36,264.33 105.36,210.33 		"/>
		<polyline style="fill:none;stroke:#231F20;stroke-width:21;" points="369.81,280.33 369.81,327 369.81,329.66 369.81,566 
			369.81,659.89 369.81,733 		"/>
		<polyline style="fill:none;stroke:#231F20;stroke-width:21;" points="743.14,127.89 743.14,168.27 743.14,196.33 743.14,371.5 
			743.14,457.67 743.14,555.67 		"/>
		<polyline style="fill:none;stroke:#231F20;stroke-width:21;" points="738.48,457.67 688.7,484.97 600.03,533.61 512.92,581.39 
			427.65,628.16 369.81,659.89 105.36,565 		"/>
		<path style="fill:none;stroke:#231F20;stroke-width:21;" d="M105.46,264.31c3.2-0.68,80.66-16.73,147.68,0.02
			c23.63,5.9,44.85,15.52,62.51,25.58c33.48,19.08,54.16,39.75,54.16,39.75"/>
		<path style="fill:none;stroke:#231F20;stroke-width:14;" d="M331.86,340.3c-17.17-17.17-48.16-39.99-78.44-47.56
			c-38.67-9.67-80.66-13.08-112.49-0.23V544.86l188.14,68.3L331.86,340.3z"/>
		<path style="fill:none;stroke:#231F20;stroke-width:21;" d="M503.21,150.32c0,0,67.2-25.56,129.42-19.69
			s105.38,37.64,105.38,37.64"/>
		<polyline style="fill:none;stroke:#231F20;stroke-width:21;" points="105.36,264.33 105.46,264.31 316,212.73 394.04,193.62 
			461.44,177.1 502.03,167.16 503.59,166.78 		"/>
		<polyline style="fill:none;stroke:#231F20;stroke-width:21;" points="369.81,327 395.44,317.99 426.8,306.97 443.66,301.04 
			461.58,294.75 502.2,280.47 511.45,277.22 599.2,246.38 688.7,214.92 741.59,196.33 		"/>
		<polyline style="fill:none;stroke:#231F20;stroke-width:21;" points="502.03,117 502.03,150.32 502.03,167.16 502.03,279.98 		"/>
		<polyline style="fill:none;stroke:#231F20;stroke-width:21;" points="427.65,309.4 427.65,536.84 427.65,628.16 427.65,628.43 		
			"/>
		<polyline style="fill:none;stroke:#231F20;stroke-width:21;" points="512.92,281.41 512.92,319.35 512.92,492.15 512.92,581.39 
			512.92,587.98 		"/>
		<polyline style="fill:none;stroke:#231F20;stroke-width:21;" points="600.03,248.74 600.03,341.28 600.03,446.5 600.03,533.61 
			600.03,536.65 		"/>
		<polyline style="fill:none;stroke:#231F20;stroke-width:21;" points="688.7,214.52 688.7,214.92 688.7,363.6 688.7,400.03 
			688.7,484.97 688.7,489.98 		"/>
		<line style="fill:none;stroke:#231F20;stroke-width:21;" x1="316.92" y1="216.5" x2="316.92" y2="287.71"/>
		<line style="fill:none;stroke:#231F20;stroke-width:21;" x1="394.7" y1="196.33" x2="394.7" y2="315.9"/>
		<polyline style="fill:none;stroke:#231F20;stroke-width:21;" points="461.58,177.67 461.58,294.75 461.58,297.23 		"/>
		<polyline style="fill:none;stroke:#231F20;stroke-width:7;" points="372,566 427.65,536.84 512.92,492.15 600.03,446.5 
			688.7,400.03 731.8,377.44 743.14,371.5 746,370 		"/>
		<polyline style="fill:none;stroke:#231F20;stroke-width:7;" points="730,374 688.7,363.6 600.03,341.28 512.92,319.35 444,302 		
			"/>
	</g>
</g>
<rect style="fill:none;" width="850.394" height="850.394"/>
</svg>
