<?xml version="1.0" encoding="iso-8859-1"?>
<!-- Generator: Adobe Illustrator 12.0.1, SVG Export Plug-In . SVG Version: 6.00 Build 51448)  -->
<!DOCTYPE svg PUBLIC "-//W3C//DTD SVG 1.1//EN" "http://www.w3.org/Graphics/SVG/1.1/DTD/svg11.dtd" [
	<!ENTITY ns_svg "http://www.w3.org/2000/svg">
	<!ENTITY ns_xlink "http://www.w3.org/1999/xlink">
]>
<svg  version="1.1" id="Layer_1" xmlns="&ns_svg;" xmlns:xlink="&ns_xlink;" width="850.394" height="850.394"
	 viewBox="0 0 850.394 850.394" style="overflow:visible;enable-background:new 0 0 850.394 850.394;" xml:space="preserve">
<g id="XMLID_9_">
	<g>
		<path style="fill:#F6CC4B;" d="M436.95,215.85v-99.81c0.859,7.84,8.95,14.93,8.95,14.93l214.8,179.15l-0.05,0.12L436.95,215.85z"
			/>
		<path style="fill:#F6CC4B;" d="M436.95,116.04c-0.51-4.59,1.45-9.43,8.95-13.26c16.88-8.61,77.14-29.86,77.14-29.86
			s16.57-5.81,34,4.97c17.42,10.79,219.78,170.85,219.78,170.85l-51.851,27.4l-0.41-0.78c0-10.38-10.159-18.8-22.689-18.8
			s-22.69,8.42-22.69,18.8c0,7.1,4.75,13.28,11.74,16.47l0.96,1.81l-31.18,16.48L445.9,130.97
			C445.9,130.97,437.81,123.88,436.95,116.04z M693.37,206.1c0-5.5-5.38-9.95-12.01-9.95s-12.021,4.45-12.021,9.95
			s5.391,9.96,12.021,9.96S693.37,211.6,693.37,206.1z M631.33,218.35c0-7.35-7.18-13.31-16.05-13.31
			c-8.851,0-16.05,5.96-16.05,13.31s7.199,13.31,16.05,13.31C624.15,231.66,631.33,225.7,631.33,218.35z M596.38,147.78
			c0-10.39-10.16-18.8-22.689-18.8c-12.53,0-22.681,8.41-22.681,18.8c0,10.39,10.15,18.81,22.681,18.81
			C586.22,166.59,596.38,158.17,596.38,147.78z M507.66,121.65c0-5.49-5.38-9.95-12.01-9.95c-6.631,0-12,4.46-12,9.95
			c0,5.5,5.369,9.96,12,9.96C502.28,131.61,507.66,127.15,507.66,121.65z"/>
		<path style="fill:#F6CC4B;" d="M724.97,276.14l-33.09,17.5l-0.96-1.81c-6.99-3.19-11.74-9.37-11.74-16.47
			c0-10.38,10.16-18.8,22.69-18.8s22.689,8.42,22.689,18.8L724.97,276.14z"/>
		<path style="fill:#F6CC4B;" d="M681.36,196.15c6.63,0,12.01,4.45,12.01,9.95s-5.38,9.96-12.01,9.96s-12.021-4.46-12.021-9.96
			S674.73,196.15,681.36,196.15z"/>
		<path style="fill:#F6CC4B;" d="M615.28,205.04c8.87,0,16.05,5.96,16.05,13.31s-7.18,13.31-16.05,13.31
			c-8.851,0-16.05-5.96-16.05-13.31S606.43,205.04,615.28,205.04z"/>
		<path style="fill:#F6CC4B;" d="M573.69,128.98c12.529,0,22.689,8.41,22.689,18.8c0,10.39-10.16,18.81-22.689,18.81
			c-12.53,0-22.681-8.42-22.681-18.81C551.01,137.39,561.16,128.98,573.69,128.98z"/>
		<path style="fill:#FFFFFF;" d="M560.3,448.99c-39.319,21.8-128.859,37.029-233.03,37.029c-103.36,0-192.32-15-232.1-36.539
			c-14.28-7.73-22.23-16.301-22.23-25.331v-65.48h0.05c2.56,33.63,115.42,60.7,254.28,60.7c138.43,0,251.02-26.9,254.27-60.38
			l0.07,0.01v65.15C581.61,432.98,574,441.38,560.3,448.99z"/>
		<path style="fill:#FFFFFF;" d="M581.61,357.5c0,0.5-0.021,0.99-0.07,1.49c-3.25,33.48-115.84,60.38-254.27,60.38
			c-138.86,0-251.72-27.07-254.28-60.7c-0.04-0.39-0.05-0.78-0.05-1.17c0-34.17,113.87-61.88,254.33-61.88
			C467.74,295.62,581.61,323.33,581.61,357.5z M523.22,357.2c0-20.63-87.72-37.35-195.94-37.35c-108.22,0-195.95,16.72-195.95,37.35
			c0,20.63,87.73,37.36,195.95,37.36C435.5,394.56,523.22,377.83,523.22,357.2z"/>
		<path style="fill:#A3D9FF;" d="M560.3,448.99L533.24,684.56c0,0-5.24,34.86-42.71,55.7c-53.8,29.91-102.78,36.101-159.24,36.101
			l-8.25,0.109c-56.45,0-104.32-6.05-158.12-35.96c-37.47-20.84-42.71-55.71-42.71-55.71L95.17,449.48
			c39.78,21.539,128.74,36.539,232.1,36.539C431.44,486.02,520.98,470.79,560.3,448.99z"/>
		<path style="fill:#F6CC4B;" d="M495.65,111.7c6.63,0,12.01,4.46,12.01,9.95c0,5.5-5.38,9.96-12.01,9.96c-6.631,0-12-4.46-12-9.96
			C483.65,116.16,489.02,111.7,495.65,111.7z"/>
		<path style="fill:#FFFFFF;" d="M327.28,319.85c108.22,0,195.94,16.72,195.94,37.35c0,20.63-87.72,37.36-195.94,37.36
			c-108.22,0-195.95-16.73-195.95-37.36C131.33,336.57,219.06,319.85,327.28,319.85z"/>
	</g>
	<g>
		<path style="fill:none;stroke:#000000;stroke-width:19.91;" d="M72.99,358.67c-0.04-0.39-0.05-0.78-0.05-1.17
			c0-34.17,113.87-61.88,254.33-61.88c140.47,0,254.34,27.71,254.34,61.88c0,0.5-0.021,0.99-0.07,1.49
			c-3.25,33.48-115.84,60.38-254.27,60.38C188.41,419.37,75.55,392.3,72.99,358.67z"/>
		<path style="fill:none;stroke:#000000;stroke-width:19.91;" d="M523.22,357.2c0,20.63-87.72,37.36-195.94,37.36
			c-108.22,0-195.95-16.73-195.95-37.36c0-20.63,87.73-37.35,195.95-37.35C435.5,319.85,523.22,336.57,523.22,357.2z"/>
		<path style="fill:none;stroke:#000000;stroke-width:19.91;" d="M72.94,358.67v65.48c0,9.03,7.95,17.6,22.23,25.331
			c39.78,21.539,128.74,36.539,232.1,36.539c104.17,0,193.71-15.229,233.03-37.029c13.7-7.61,21.311-16.01,21.311-24.84V359"/>
		<path style="fill:none;stroke:#000000;stroke-width:19.91;" d="M560.3,448.96v0.03L533.24,684.56c0,0-5.24,34.86-42.71,55.7
			c-53.8,29.91-102.78,36.101-159.24,36.101l-8.25,0.109c-56.45,0-104.32-6.05-158.12-35.96c-37.47-20.84-42.71-55.71-42.71-55.71
			L95.17,449.48l-0.18-1.58"/>
		<path style="fill:none;stroke:#000000;stroke-width:19.91;" d="M436.95,116.04c-0.51-4.59,1.45-9.43,8.95-13.26
			c16.88-8.61,77.14-29.86,77.14-29.86s16.57-5.81,34,4.97c17.42,10.79,219.78,170.85,219.78,170.85l-51.851,27.4l-33.09,17.5
			l-31.18,16.48L445.9,130.97C445.9,130.97,437.81,123.88,436.95,116.04z"/>
		<polyline style="fill:none;stroke:#000000;stroke-width:19.91;" points="436.95,115.9 436.95,116.04 436.95,215.85 660.65,310.24 
			661.5,310.6 		"/>
		<path style="fill:none;stroke:#000000;stroke-width:19.91;" d="M596.38,147.78c0,10.39-10.16,18.81-22.689,18.81
			c-12.53,0-22.681-8.42-22.681-18.81c0-10.39,10.15-18.8,22.681-18.8C586.22,128.98,596.38,137.39,596.38,147.78z"/>
		<path style="fill:none;stroke:#000000;stroke-width:19.91;" d="M690.92,291.83c-6.99-3.19-11.74-9.37-11.74-16.47
			c0-10.38,10.16-18.8,22.69-18.8s22.689,8.42,22.689,18.8"/>
		<path style="fill:none;stroke:#000000;stroke-width:19.91;" d="M631.33,218.35c0,7.35-7.18,13.31-16.05,13.31
			c-8.851,0-16.05-5.96-16.05-13.31s7.199-13.31,16.05-13.31C624.15,205.04,631.33,211,631.33,218.35z"/>
		<path style="fill:none;stroke:#000000;stroke-width:13.2733;" d="M693.37,206.1c0,5.5-5.38,9.96-12.01,9.96
			s-12.021-4.46-12.021-9.96s5.391-9.95,12.021-9.95S693.37,200.6,693.37,206.1z"/>
		<path style="fill:none;stroke:#000000;stroke-width:13.2733;" d="M507.66,121.65c0,5.5-5.38,9.96-12.01,9.96
			c-6.631,0-12-4.46-12-9.96c0-5.49,5.369-9.95,12-9.95C502.28,111.7,507.66,116.16,507.66,121.65z"/>
	</g>
</g>
<rect style="fill:none;" width="850.394" height="850.394"/>
</svg>
