<svg xmlns="http://www.w3.org/2000/svg" width="850.89" height="850.89" viewBox="0 0 850.89 850.89" overflow="visible"><path d="M127.76 413.56c-.34.56-.38 1.15.21 1.85 4.43-6.15 17.65-5.92 14.07-15.63 21.18-9.1 39.43-23.85 59.38-29.69 3.46 7.06 6.18 3.01 10.94 0-.49 3.62.26 6 1.57 7.81 8.51-2.98 15.5 1.25 26.57 0 .87 7.98 3.35 14.36 7.81 18.76 14.63.02 24.04 5.53 34.1.15.13.01.26.02.39.04 3.72 6.16 11.68 2.66 18.32 5.33 1.15.68 2.3 1.44 3.45 2.29.03-.02.07-.04.1-.05.51.47.99 1 1.46 1.61 7.56-1.82 8.77-9.98 18.75-9.37.87-6.43 4.48-10.11 4.69-17.19-17.3-11.23-6.89-31.5 1.57-42.2 5.92.56 9.07-6.03 9.69-11.09l1.25.15c1.33.48 2.67.95 4.03 1.42 9.61 4.18 17.87 12.98 30.06 10.04 1.02.34 2.05.68 3.07 1.02 8.59 9.75 23.26 5.48 33.16 14.09-3.83 6.49 2.12 16.59 1.56 25 7.41 7.18 19.64 9.54 28.13 15.63 16.86-2.49 39.78-19.23 59.391-6.25 1.85-1.8 5.52-1.77 9.38-1.56 2.819 3.42 6.52 5.97 7.81 10.94 5.74 1.03 11.88 1.66 17.19 3.12-1.82 12.76 8.18 13.69 14.06 18.73 0 .01.01.02.01.03h.021c.55.48 1.069.99 1.54 1.56 14.5-2.74 30.819 5.84 46.88 6.25 12.25-9.85 32.91-11.609 48.45-14.07.08-6 10.939-15.68 19.489-21.07 3.62-2.27 6.83-3.78 8.641-3.93 12.189-.98 15.2 12.31 25 14.06 5.88 1.05 12.56-3.88 17.84-4.17h.01c1.7.49 3.351 1.14 4.98 1.92.819.89 1.56 2.13 2.18 3.82-10.78 20.28-13.8 38.81-25.01 57.82 1.979 4.789 5.33 8.22 7.819 12.5 8-8.101 23.511-7.301 32.721.109.58.45 1.13.94 1.66 1.46 3.35-3.43 4.29-9.25 7.81-12.51 26.021 3.16 38.2 20.15 45.32 42.2-9.011 2.439-15.2 1.93-21.88-3.13-8.79.199-22.82 8.51-29.69 4.689-3.63 1.061-2.28 7.101-6.25 7.82-13.7-2.82-21.56 5.52-21.88 20.31-7.19 6.79-20.63 10.25-32.3 9.69a8.63 8.63 0 0 1-.521-.311c-.06.101-.109.19-.17.28-1-.07-1.979-.16-2.95-.28-2.609 10.931-12.81 14.271-20.319 20.311-17.58-.66-22.03-11.65-37.511-10.94-4.739 7.24-9.069 14.891-10.939 25.011 4.54 5.369 8.729 11.069 12.51 17.189-14.41 6.33-25.71 15.76-34.26 27.96-.4.36-.82.71-1.23 1.061-17.449 13.399-41.89 5.399-62.97 8.489-21.26 3.12-37.84 16.69-53.13 25-.53-.06-1.03-.159-1.49-.279-3.62-1.03-5.21-4.07-7.66-6.23-.54-.49-1.13-.93-1.79-1.3-21.439 6.45-31.39-11.04-51.57-10.94-9.69-20.09-40.78-9.979-56.26-9.38-22.19.86-44.65-10.399-65.64-6.25-.52-.6-1.02-1.22-1.5-1.85 0-.44-.01-.87-.06-1.28-.46-.18-.89-.38-1.31-.6-7.61-11.03-11.39-25.88-20.57-35.34 2.89-.23.95-5.29 3.12-6.25h-12.5c-5.89-8.221-14.14-13.28-23.49-16.65-2.37-1.58-4.91-2.87-7.77-3.67-2.67-.74-5.73-.8-8.91-.68-16.49-3.11-34.04-3.95-47.35-8.69-7.93-10.85 2.77-16.23 4.69-25.01.32-1.48-.87-3.141-1.87-4.74-.26-1.74-.58-3.64-.81-5.58 1.4-4.28 5.5-7.6 2.68-13.12-10.15-8.08-14.2-22.26-20.31-34.38-5.35.63-11.39 3.54-10.94-4.689-21.92 4.329-28.48-18.91-39.07-26.57.72-8.65 7.33-11.41 9.37-18.75 5.06-.83 13.78 2.01 15.41-2.24l1.568.39z" fill="#fff5b4"/><path fill="#ed1e29" d="M797.42 66.04v144.84h-72.53V66.04z"/><path fill="#a8d7f4" d="M724.89 210.06v.82h-73.98V66.04h73.98v.63z"/><path d="M717.8 397.17c1.87-.09 3.561.39 4.98 1.92a32.16 32.16 0 0 0-4.98-1.92zM740.58 473.23c4.57-2.211 4.96-8.58 7.82-12.5 28.51 2.22 40.79 20.68 48.449 43.76-5.43 5-19.58 3.91-23.449-1.561-7.521.15-23.12 8.48-28.131 4.681-4 .159-2.51 5.83-4.689 7.819-15.29-1.239-24.061 4.061-23.44 18.75-7.87 5.91-22.75 16.011-33.859 9.69 11.67.56 25.109-2.9 32.3-9.69.32-14.79 8.18-23.13 21.88-20.31 3.97-.72 2.62-6.76 6.25-7.82 6.87 3.82 20.9-4.49 29.69-4.689 6.68 5.06 12.869 5.569 21.88 3.13-7.12-22.05-19.3-39.04-45.32-42.2-3.52 3.26-4.46 9.08-7.81 12.51a19.05 19.05 0 0 0-1.66-1.46l.089-.11z"/><path d="M751.53 413.85c-8.261-3.21-18.13-4.8-25.011-9.38-12.06 17.97-12.479 38.08-25 54.7.341 5.91 4.91 7.59 6.25 12.5 7.2-8.04 25.9-8.27 32.811 1.561l-.09.109c-9.21-7.41-24.721-8.21-32.721-.109-2.489-4.28-5.84-7.711-7.819-12.5 11.21-19.011 14.229-37.541 25.01-57.82-.62-1.69-1.36-2.93-2.18-3.82 8.46 4.01 16.189 11.09 27.18 13.19 12.25-6.76 14.54-17.61 31.26-17.19-.43-4.38 4.41-9.96-3.13-9.37 8.53-15.36 11.28-29.6 19.99-42.18l1.96-.75c-7.68 11.34-10.84 27.2-18.82 38.24 4.24 5.95 3.44 11.19-1.56 17.19-16.23-1.641-19.16 10.009-28.13 15.629zM682.76 543.56c.17.11.34.21.521.311l-.69-.03c.059-.091.109-.181.169-.281zM698.39 399.78c7.7-3.99 13.841-4.2 19.4-2.61-5.28.29-11.96 5.22-17.84 4.17-9.8-1.75-12.811-15.04-25-14.06-1.811.15-5.021 1.66-8.641 3.93l-.159-.26c2.569-1.59 5.04-3.27 7.239-5.23 13.641-.62 17.611 8.43 25.001 14.06z"/><path d="M641.25 123.73v64.23c-4.23 1.52-9.39-.45-12.44.54.311-21.41-.609-44.25.46-64.77h11.98zM603.93 169.76h21.66c-.2 2.45.46 5.9-.46 7.5h-21.2v-7.5z" fill="#fbed24"/><path d="M624.94 596.69c-16.061 4.68-24.71 16.77-35.82 26.399 8.55-12.2 19.85-21.63 34.26-27.96-3.78-6.12-7.97-11.82-12.51-17.189 1.87-10.12 6.2-17.771 10.939-25.011 15.48-.71 19.931 10.28 37.511 10.94 7.51-6.04 17.71-9.38 20.319-20.311.971.12 1.95.21 2.95.28-5.649 9.311-13.7 16.21-23.27 21.601-16.84-.54-22.46-10.801-35.94-10.94-6.34 4.6-7.43 14.44-10.939 21.88 2.87 8.061 10.32 11.551 12.5 20.311z"/><path d="M613.61 114.63c-6.71-.94-7.92-14 .46-14.99 9.37-1.1 8.59 16.26-.46 14.99z" fill="#fbed24"/><path d="M612.69 163.88c-1.021-3.68 3.199-4.18 3.68-1.61-.02 2.74-2.34 3.1-3.68 1.61zM612.69 149.96c-.87-3.51 3.189-4.2 3.68-1.61.14 2.13-.88 2.9-2.76 2.68-.21-.48-.41-.96-.92-1.07z"/><path d="M616.37 162.27c-.48-2.57-4.7-2.07-3.68 1.61 1.34 1.49 3.66 1.13 3.68-1.61zm-5.53 4.82c-10.149-10.12 17.18-10.75 9.22-22.48 3.99 2.93 6.101 6.76 5.53 12.84-.64 6.74-8.96 15.4-14.75 9.64zM610.38 85.73c1.76-.44 1.79 1.14 2.311 2.14.529-.68 2.1-2.85.92-3.75.72-.98 2.63 1.19 2.3 3.21.93 1.22 1.53-2.47 3.229-2.14 2.28 14.39-10.23 15.44-8.76.54z" fill="#fbed24"/><path d="M612.69 149.96c.51.11.71.59.92 1.07 1.88.22 2.899-.55 2.76-2.68-.49-2.59-4.55-1.9-3.68 1.61zM609 166.55c-10.68-5.1-4-28.36 7.83-23.55 1.54.63 4 4.9 2.31 9.1-4.65 3.25-13.84 4.81-10.14 14.45z" fill="#fbed24"/><path d="M625.59 140.86c-6.04.69-14.33-.12-21.66.54v-7.5h21.66v6.96zM605.31 109.28c1.671 8.89 16.671 10.46 17.971 0 3.709 16.05-20.351 16.9-17.971 0zM603.93 179.93c6.15-1.24 14.29-.17 21.2-.53-3.08 3.2-6.88 5.56-10.14 8.56-4.52-1.71-6.85-5.95-11.06-8.03z" fill="#fbed24"/><path d="M603.93 124.27c6.15-1.25 14.29-.18 21.2-.54-3.27 3.16-6.729 6.11-10.6 8.57-3.97-2.17-6.76-5.71-10.6-8.03zM600.7 124.27v63.69c-2.41.76-8.061.49-12.44.54.311-21.41-.609-44.25.471-64.77 3.869.31 8.849-.65 11.969.54z" fill="#fbed24"/><path d="M629.27 123.73c-1.069 20.52-.149 43.36-.46 64.77 3.051-.99 8.21.98 12.44-.54v-64.23h-11.98zm-16.58-35.86c-.521-1-.551-2.58-2.311-2.14-1.47 14.9 11.04 13.85 8.76-.54-1.699-.33-2.3 3.36-3.229 2.14.33-2.02-1.58-4.19-2.3-3.21 1.18.9-.39 3.07-.92 3.75zm7.37 56.74c7.96 11.73-19.369 12.36-9.22 22.48 5.79 5.76 14.11-2.9 14.75-9.64.57-6.08-1.54-9.91-5.53-12.84zm-5.99-44.97c-8.38.99-7.17 14.05-.46 14.99 9.05 1.27 9.83-16.09.46-14.99zm9.21 9.64c-1.3 10.46-16.3 8.89-17.971 0-2.379 16.9 21.681 16.05 17.971 0zm-22.58 78.68v-63.69c-3.12-1.19-8.101-.23-11.97-.54-1.08 20.52-.16 43.36-.471 64.77 4.381-.05 10.031.22 12.441-.54zM616.83 143c-11.83-4.81-18.51 18.45-7.83 23.55-3.7-9.64 5.49-11.2 10.14-14.45 1.69-4.2-.77-8.47-2.31-9.1zm8.76-9.1h-21.66v7.5c7.33-.66 15.62.15 21.66-.54v-6.96zm-21.66 43.36h21.2c.92-1.6.26-5.05.46-7.5h-21.66v7.5zm21.2-53.53c-6.91.36-15.05-.71-21.2.54 3.84 2.32 6.63 5.86 10.601 8.03 3.869-2.46 7.329-5.41 10.599-8.57zm0 55.67c-6.91.36-15.05-.71-21.2.53 4.21 2.08 6.54 6.32 11.061 8.03 3.259-3 7.059-5.36 10.139-8.56zm25.78 31.48H576.4V66.04h74.51v144.84z" fill="#ed1e29"/><path d="M589.12 623.09c-.04.061-.08.11-.12.17-.37.311-.74.601-1.11.891.41-.351.83-.701 1.23-1.061z"/><path fill="#fff" d="M576.4 66.04v144.84h-.02l-1.33-144.84z"/><path d="M576.4 210.88v101.91h-15.06l-.43-255.74c2.21.99 4.81 1.55 7.6 1.55 2.9 0 5.61-.62 7.891-1.68v9.12h-1.351l1.33 144.84h.02z" fill="#c8c8c8"/><path d="M568.51 37.34c8.05 0 14.59 4.76 14.59 10.63 0 3.76-2.67 7.05-6.699 8.95-2.28 1.06-4.99 1.68-7.891 1.68-2.79 0-5.39-.56-7.6-1.55-4.19-1.87-6.99-5.23-6.99-9.08 0-5.87 6.53-10.63 14.59-10.63z" fill="#c8c8c8"/><path d="M549.95 418.54c15.31-3.04 30.46 4.84 45.3 6.25 14.03-8.13 34.27-12.01 50.01-14.07 3.29-10.26 12.54-14.57 20.891-19.77l.159.26c-8.55 5.39-19.409 15.07-19.489 21.07-15.54 2.46-36.2 4.22-48.45 14.07-16.061-.41-32.38-8.99-46.88-6.25a13.44 13.44 0 0 0-1.541-1.56z"/><path d="M549.95 418.54h-.021c0-.01-.01-.02-.01-.03l.031.03zM524.92 632.64c21.08-3.09 45.521 4.91 62.97-8.489-5.029 4.199-10.62 7.84-17.649 10.05-39.53-1.94-73.38 4.3-96.891 25a8.953 8.953 0 0 0-3.17-1.45l.12-.39c.46.12.96.22 1.49.279 15.29-8.31 31.87-21.88 53.13-25zM462.64 651.13c2.45 2.16 4.04 5.2 7.66 6.23l-.12.39c-1.29-.3-2.8-.36-4.64-.11-.68-2.449-4.92-1.33-3.13-6.25l.23-.26zM537.42 398.22c-3.189 14.11 9.49 12.36 12.5 20.29-5.88-5.04-15.88-5.97-14.06-18.73-5.311-1.46-11.45-2.09-17.19-3.12-1.29-4.97-4.99-7.52-7.81-10.94-3.86-.21-7.53-.24-9.38 1.56-19.61-12.98-42.53 3.76-59.391 6.25-8.49-6.09-20.72-8.45-28.13-15.63.56-8.41-5.39-18.51-1.56-25-9.9-8.61-24.57-4.34-33.16-14.09 11.72 3.9 23.51 7.97 34.72 12.52-4.98 8.09 4.1 19.12 1.57 25.01 14.19 8.65 21.621 16.91 35.94 14.06 14.86-2.95 31.351-18.58 48.45-4.68 3.67-.5 5.86-2.47 10.94-1.57 5.751 7.8 12.781 14.31 26.561 14.07zM379.24 338.81c-1.02-.34-2.05-.68-3.07-1.02.61-.14 1.22-.31 1.85-.52.39.55.8 1.06 1.22 1.54zM376.17 337.79c-12.19 2.94-20.45-5.86-30.06-10.04 9.62 3.36 19.79 6.64 30.06 10.04zM346.11 327.75c-1.36-.47-2.7-.94-4.03-1.42 1.38.36 2.72.85 4.03 1.42zM340.83 326.18c-.62 5.06-3.77 11.65-9.69 11.09l-.03-.03c4.24-4.91 8.11-9.89 9.4-15.6.44 1.02.55 2.68.32 4.54z"/><path d="M329.57 379.47c-.21 7.08-3.82 10.76-4.69 17.19-9.98-.61-11.19 7.55-18.75 9.37-.47-.61-.95-1.14-1.46-1.61 9.84-5.21 21.33-8.78 23.34-21.83-3.63-8.1-10.25-10.8-10.94-18.75-.92-10.64 7.06-18.52 14.04-26.6l.03.03c-8.46 10.7-18.87 30.97-1.57 42.2zM304.67 404.42c-.03.01-.07.03-.1.05-1.15-.85-2.3-1.61-3.45-2.29 1.24.49 2.44 1.21 3.55 2.24zM301.12 402.18c-6.64-2.67-14.6.83-18.32-5.33 6.36.5 12.37 1.82 18.32 5.33zM353.02 629.51c15.48-.6 46.57-10.71 56.26 9.38 20.18-.1 30.13 17.391 51.57 10.94.66.37 1.25.81 1.79 1.3l-.229.26c-22.45 6.641-32.54-10.71-53.13-10.939-9.23-19.26-36.94-10.36-54.7-9.38-22.5 1.25-45.16-11.65-67.2-4.69-1.76-.399-1.49-2.82-1.5-4.97.48.63.98 1.25 1.5 1.85 20.989-4.151 43.449 7.109 65.639 6.249zM285.82 620.13c.05.41.06.84.06 1.28-.47-.61-.93-1.24-1.37-1.88.42.22.85.42 1.31.6zM282.69 396.66c.04.07.07.13.11.19-.13-.02-.26-.03-.39-.04.09-.05.19-.1.28-.15zM263.94 584.19c9.18 9.46 12.96 24.31 20.57 35.34-11.93-6.19-9.37-26.87-22.14-32.21-.2-2.811 1.92-3.301 1.57-6.261-15.62-.689-22.61-12.93-32.87-19.77 9.35 3.37 17.6 8.43 23.49 16.65h12.5c-2.17.961-.23 6.021-3.12 6.251zM223.3 557.62c2.86.8 5.4 2.09 7.77 3.67-5.28-1.9-10.91-3.271-16.68-4.35 3.18-.12 6.24-.06 8.91.68zM169.05 512.92c.23 1.94.55 3.84.81 5.58-.67-1.08-1.26-2.12-1.25-3.07.01-.88.18-1.71.44-2.51zM170.17 524.8c.35-1.52.08-3.74-.31-6.3 1 1.6 2.19 3.26 1.87 4.74-1.92 8.779-12.62 14.16-4.69 25.01 13.31 4.74 30.86 5.58 47.35 8.69-7.35.279-15.36 1.529-20.78-2.44-14.59 2.76-29.44-2.96-31.25-12.5-1.38-7.22 6.2-10.14 7.81-17.2zM212.36 370.09c-4.76 3.01-7.48 7.06-10.94 0-19.95 5.84-38.2 20.59-59.38 29.69 3.58 9.71-9.64 9.48-14.07 15.63-.59-.7-.55-1.29-.21-1.85.95-1.56 4.27-2.9 3.34-5.96 5.53 2.73 3.84-1.05 9.38-1.57v-7.81c15.97-7.99 33.71-14.21 45.32-26.57 9.2 3.61 16.67-9.17 18.75 1.56 3.72-.96 2.57-6.81 9.38-4.68v7.81c8.75-2.94 16.6 1.33 28.13 0 .54 7.79 2.87 13.8 6.25 18.75 12.95 2.23 23.96.97 34.1 1.72-10.06 5.38-19.47-.13-34.1-.15-4.46-4.4-6.94-10.78-7.81-18.76-11.07 1.25-18.06-2.98-26.57 0-1.31-1.81-2.06-4.19-1.57-7.81z"/><path d="M171.73 499.8c2.82 5.521-1.28 8.84-2.68 13.12-.48-4.02-.56-8.229 1.12-11.56-9.29-8.94-13.31-23.15-20.32-34.38-3.5 3.05-11.23.84-10.94-4.69-19.3 6.4-20.24-16.59-35.94-18.75 6.16-5.82-7.68-7.41-1.56-18.75-6.37-1.16-5.38 5.03-12.51 3.12 2.15-6.07 21.31-.59 20.32-14.06 7.42.64 13.56.01 17.19-3.13.11 1 .03 1.81-.22 2.45-1.63 4.25-10.35 1.41-15.41 2.24-2.04 7.34-8.65 10.1-9.37 18.75 10.59 7.66 17.15 30.899 39.07 26.57-.45 8.229 5.59 5.319 10.94 4.689 6.11 12.121 10.16 26.301 20.31 34.381z"/><path d="M90.47 424.79c-7.38-1.48-8.53-9.19-14.07-12.51 0-.52-4.15-13.51-4.15-14.03 5.99 3.39 12.58 22.8 18.22 26.54zM77.96 429.47c-.87-4.64 8.53-6.93 10.94-3.12-5.7-1.02-8.32 1.05-10.94 3.12zM77.96 429.47c.95 3.44-8.22 13.92-13.71 14.78 0-4.17 12.15-10.61 12.15-14.78h1.56z"/><g fill="none" stroke="#231f20"><path stroke-width="7" d="M575.05 66.04h222.37v144.84H576.38M560.91 57.05c-4.19-1.87-6.99-5.23-6.99-9.08 0-5.87 6.53-10.63 14.59-10.63 8.05 0 14.59 4.76 14.59 10.63 0 3.76-2.67 7.05-6.699 8.95-2.28 1.06-4.99 1.68-7.891 1.68-2.79 0-5.39-.56-7.6-1.55z"/><path stroke-width="7" d="M560.91 56.75v.3l.43 255.74M576.4 56.22v256.57"/><path stroke-width="5" d="M650.91 68.2v141.09M724.89 66.67v143.39"/><path d="M614.07 99.64c9.37-1.1 8.59 16.26-.46 14.99-6.71-.94-7.92-14 .46-14.99z" stroke-width="3"/><path d="M623.28 109.28c3.71 16.05-20.351 16.9-17.971 0 1.671 8.89 16.671 10.46 17.971 0zM600.7 124.27v63.69c-2.41.76-8.061.49-12.44.54.311-21.41-.609-44.25.471-64.77 3.869.31 8.849-.65 11.969.54z" stroke-width="3"/><path d="M625.13 123.73c-3.27 3.16-6.729 6.11-10.6 8.57-3.971-2.17-6.761-5.71-10.601-8.03 6.151-1.25 14.291-.18 21.201-.54zM641.25 187.96c-4.23 1.52-9.39-.45-12.44.54.311-21.41-.609-44.25.46-64.77h11.98v64.23zM603.93 141.4v-7.5h21.66v6.96c-6.04.69-14.33-.12-21.66.54z" stroke-width="3"/><path d="M609 166.55c-10.68-5.1-4-28.36 7.83-23.55 1.54.63 4 4.9 2.31 9.1-4.65 3.25-13.84 4.81-10.14 14.45z" stroke-width="3"/><path d="M620.06 144.61c3.99 2.93 6.101 6.76 5.53 12.84-.64 6.74-8.96 15.4-14.75 9.64-10.15-10.12 17.18-10.75 9.22-22.48z" stroke-width="3"/><path d="M613.61 151.03c-.21-.48-.41-.96-.92-1.07-.87-3.51 3.189-4.2 3.68-1.61.14 2.13-.88 2.9-2.76 2.68zM612.69 163.88c-1.021-3.68 3.199-4.18 3.68-1.61-.02 2.74-2.34 3.1-3.68 1.61zM603.93 177.26v-7.5h21.66c-.2 2.45.46 5.9-.46 7.5h-21.2zM625.13 179.4c-3.08 3.2-6.88 5.56-10.14 8.56-4.521-1.71-6.851-5.95-11.061-8.03 6.151-1.24 14.291-.17 21.201-.53zM610.38 85.73c1.76-.44 1.79 1.14 2.311 2.14.529-.68 2.1-2.85.92-3.75.72-.98 2.63 1.19 2.3 3.21.93 1.22 1.53-2.47 3.229-2.14 2.28 14.39-10.23 15.44-8.76.54z" stroke-width="3"/><path d="M717.8 397.17c1.87-.09 3.561.39 4.98 1.92.819.89 1.56 2.13 2.18 3.82-10.78 20.28-13.8 38.81-25.01 57.82 1.979 4.789 5.33 8.22 7.819 12.5 8-8.101 23.511-7.301 32.721.109.58.45 1.13.94 1.66 1.46 3.35-3.43 4.29-9.25 7.81-12.51 26.021 3.16 38.2 20.15 45.32 42.2-9.011 2.439-15.2 1.93-21.88-3.13-8.79.199-22.82 8.51-29.69 4.689-3.63 1.061-2.28 7.101-6.25 7.82-13.7-2.82-21.56 5.52-21.88 20.31-7.19 6.79-20.63 10.25-32.3 9.69l-.69-.03c-1-.07-1.979-.16-2.95-.28-2.609 10.931-12.81 14.271-20.319 20.311-17.58-.66-22.03-11.65-37.511-10.94-4.739 7.24-9.069 14.891-10.939 25.011 4.54 5.369 8.729 11.069 12.51 17.189-14.41 6.33-25.71 15.76-34.26 27.96-.04.061-.08.11-.12.17-.37.311-.74.601-1.11.891-17.449 13.399-41.89 5.399-62.97 8.489-21.26 3.12-37.84 16.69-53.13 25-.53-.06-1.03-.159-1.49-.279-3.62-1.03-5.21-4.07-7.66-6.23-.54-.49-1.13-.93-1.79-1.3-21.439 6.45-31.39-11.04-51.57-10.94-9.69-20.09-40.78-9.979-56.26-9.38-22.19.86-44.65-10.399-65.64-6.25-.52-.6-1.02-1.22-1.5-1.85-.47-.61-.93-1.24-1.37-1.88-7.61-11.03-11.39-25.88-20.57-35.34 2.89-.23.95-5.29 3.12-6.25h-12.5c-5.89-8.221-14.14-13.28-23.49-16.65-5.28-1.9-10.91-3.271-16.68-4.35-16.49-3.11-34.04-3.95-47.35-8.69-7.93-10.85 2.77-16.23 4.69-25.01.32-1.48-.87-3.141-1.87-4.74-.67-1.08-1.26-2.12-1.25-3.07.01-.88.18-1.71.44-2.51 1.4-4.28 5.5-7.6 2.68-13.12-10.15-8.08-14.2-22.26-20.31-34.38-5.35.63-11.39 3.54-10.94-4.689-21.92 4.329-28.48-18.91-39.07-26.57.72-8.65 7.33-11.41 9.37-18.75 5.06-.83 13.78 2.01 15.41-2.24.25-.64.33-1.45.22-2.45-3.63 3.14-9.77 3.77-17.19 3.13.99 13.47-18.17 7.99-20.32 14.06 7.13 1.91 6.14-4.28 12.51-3.12-6.12 11.34 7.72 12.93 1.56 18.75 15.7 2.16 16.64 25.15 35.94 18.75-.29 5.53 7.44 7.74 10.94 4.69 7.01 11.229 11.03 25.439 20.32 34.38-1.68 3.33-1.6 7.54-1.12 11.56.23 1.94.55 3.84.81 5.58.39 2.56.66 4.78.31 6.3-1.61 7.061-9.19 9.98-7.81 17.2 1.81 9.54 16.66 15.26 31.25 12.5 5.42 3.97 13.43 2.72 20.78 2.44 3.18-.12 6.24-.061 8.91.68 2.86.8 5.4 2.09 7.77 3.67 10.26 6.84 17.25 19.08 32.87 19.77.35 2.96-1.77 3.45-1.57 6.261 12.77 5.34 10.21 26.02 22.14 32.21.42.22.85.42 1.31.6.05.41.06.84.06 1.28.01 2.149-.26 4.57 1.5 4.97 22.04-6.96 44.7 5.94 67.2 4.69 17.76-.98 45.47-9.88 54.7 9.38 20.59.229 30.68 17.58 53.13 10.939-1.79 4.92 2.45 3.801 3.13 6.25 1.84-.25 3.35-.189 4.64.11 1.25.3 2.271.81 3.17 1.45 23.511-20.7 57.36-26.94 96.891-25 7.029-2.21 12.62-5.851 17.649-10.05.41-.351.83-.7 1.23-1.061 11.11-9.63 19.76-21.72 35.82-26.399-2.181-8.761-9.631-12.25-12.5-20.311 3.51-7.439 4.6-17.28 10.939-21.88 13.48.14 19.101 10.4 35.94 10.94 9.569-5.391 17.62-12.29 23.27-21.601.061-.09.11-.18.17-.28.17.11.34.21.521.311 11.109 6.32 25.989-3.78 33.859-9.69-.62-14.689 8.15-19.989 23.44-18.75 2.18-1.989.689-7.66 4.689-7.819 5.011 3.8 20.61-4.53 28.131-4.681 3.869 5.471 18.02 6.561 23.449 1.561-7.659-23.08-19.939-41.54-48.449-43.76-2.86 3.92-3.25 10.289-7.82 12.5-6.91-9.83-25.61-9.601-32.811-1.561-1.34-4.91-5.909-6.59-6.25-12.5 12.521-16.62 12.94-36.73 25-54.7 6.881 4.58 16.75 6.17 25.011 9.38 8.97-5.62 11.899-17.27 28.13-15.63 5-6 5.8-11.24 1.56-17.19 7.98-11.04 11.141-26.9 18.82-38.24" stroke-width="7"/><path d="M798.08 343.54c-8.71 12.58-11.46 26.82-19.99 42.18 7.54-.59 2.7 4.99 3.13 9.37-16.72-.42-19.01 10.43-31.26 17.19-10.99-2.1-18.72-9.18-27.18-13.19-1.63-.78-3.28-1.43-4.99-1.92 0 0 .01 0 0 0-5.56-1.59-11.7-1.38-19.4 2.61-7.39-5.63-11.359-14.68-25-14.06-2.199 1.96-4.67 3.64-7.239 5.23-8.351 5.2-17.601 9.51-20.891 19.77-15.74 2.06-35.979 5.94-50.01 14.07-14.84-1.41-29.99-9.29-45.3-6.25h-.021c0-.01-.01-.02-.01-.03-3.01-7.93-15.689-6.18-12.5-20.29-13.78.24-20.81-6.27-26.56-14.07-5.08-.9-7.271 1.07-10.94 1.57-17.1-13.9-33.59 1.73-48.45 4.68-14.319 2.85-21.75-5.41-35.94-14.06 2.53-5.89-6.55-16.92-1.57-25.01-11.21-4.55-23-8.62-34.72-12.52-1.02-.34-2.05-.68-3.07-1.02-10.27-3.4-20.44-6.68-30.06-10.04-1.36-.47-2.7-.94-4.03-1.42 1.38.36 2.72.85 4.03 1.42 9.61 4.18 17.87 12.98 30.06 10.04.61-.14 1.22-.31 1.85-.52.39.55.8 1.06 1.22 1.54 8.59 9.75 23.26 5.48 33.16 14.09-3.83 6.49 2.12 16.59 1.56 25 7.41 7.18 19.64 9.54 28.13 15.63 16.86-2.49 39.78-19.23 59.391-6.25 1.85-1.8 5.52-1.77 9.38-1.56 2.819 3.42 6.52 5.97 7.81 10.94 5.74 1.03 11.88 1.66 17.19 3.12-1.82 12.76 8.18 13.69 14.06 18.73l.03.03c.55.48 1.069.99 1.54 1.56 14.5-2.74 30.819 5.84 46.88 6.25 12.25-9.85 32.91-11.609 48.45-14.07.08-6 10.939-15.68 19.489-21.07 3.62-2.27 6.83-3.78 8.641-3.93 12.189-.98 15.2 12.31 25 14.06 5.88 1.05 12.56-3.88 17.84-4.17M331.14 337.27c5.92.56 9.07-6.03 9.69-11.09.23-1.86.12-3.52-.32-4.54-1.29 5.71-5.16 10.69-9.4 15.6-6.98 8.08-14.96 15.96-14.04 26.6.69 7.95 7.31 10.65 10.94 18.75-2.01 13.05-13.5 16.62-23.34 21.83-.03.01-.07.03-.1.05-1.15-.85-2.3-1.61-3.45-2.29-5.95-3.51-11.96-4.83-18.32-5.33-.13-.02-.26-.03-.39-.04-10.14-.75-21.15.51-34.1-1.72-3.38-4.95-5.71-10.96-6.25-18.75-11.53 1.33-19.38-2.94-28.13 0v-7.81c-6.81-2.13-5.66 3.72-9.38 4.68-2.08-10.73-9.55 2.05-18.75-1.56-11.61 12.36-29.35 18.58-45.32 26.57v7.81c-5.54.52-3.85 4.3-9.38 1.57.93 3.06-2.39 4.4-3.34 5.96-.34.56-.38 1.15.21 1.85 4.43-6.15 17.65-5.92 14.07-15.63 21.18-9.1 39.43-23.85 59.38-29.69 3.46 7.06 6.18 3.01 10.94 0-.49 3.62.26 6 1.57 7.81 8.51-2.98 15.5 1.25 26.57 0 .87 7.98 3.35 14.36 7.81 18.76 14.63.02 24.04 5.53 34.1.15.09-.05.19-.1.28-.15.04.07.07.13.11.19 3.72 6.16 11.68 2.66 18.32 5.33 1.24.49 2.44 1.21 3.55 2.24.51.47.99 1 1.46 1.61 7.56-1.82 8.77-9.98 18.75-9.37.87-6.43 4.48-10.11 4.69-17.19-17.3-11.23-6.89-31.5 1.57-42.2zM72.25 398.25c5.99 3.39 12.58 22.8 18.22 26.54-7.38-1.48-8.53-9.19-14.07-12.51 0-.52-4.15-13.51-4.15-14.03zM77.96 429.47c-.87-4.64 8.53-6.93 10.94-3.12-5.7-1.02-8.32 1.05-10.94 3.12zM77.96 429.47c.95 3.44-8.22 13.92-13.71 14.78 0-4.17 12.15-10.61 12.15-14.78h1.56z" stroke-width="7"/></g><path fill-rule="evenodd" clip-rule="evenodd" fill="none" d="M.25.25h850.394v850.394H.25z"/></svg>