<?xml version="1.0" encoding="iso-8859-1"?>
<!-- Generator: Adobe Illustrator 12.0.1, SVG Export Plug-In . SVG Version: 6.00 Build 51448)  -->
<!DOCTYPE svg PUBLIC "-//W3C//DTD SVG 1.1//EN" "http://www.w3.org/Graphics/SVG/1.1/DTD/svg11.dtd" [
	<!ENTITY ns_svg "http://www.w3.org/2000/svg">
	<!ENTITY ns_xlink "http://www.w3.org/1999/xlink">
]>
<svg  version="1.1" id="Layer_1" xmlns="&ns_svg;" xmlns:xlink="&ns_xlink;" width="850.89" height="850.89"
	 viewBox="0 0 850.89 850.89" style="overflow:visible;enable-background:new 0 0 850.89 850.89;" xml:space="preserve">
<g>
	<g id="XMLID_2_">
		<g>
			<path style="fill:#FFF5B4;" d="M178.78,585.02c-17.28-2.39-28.49-9.64-44.92-8.64c-3.86-8.81-8.9-16.43-8.63-29.37
				c-0.53-0.59-1.07-1.2-1.61-1.83c-10.2-11.67-23.17-28.89-13.18-39.91c2.44-1.479,4.89-2.949,6.89-4.869
				c1.33-0.641,2.81-1.23,4.44-1.771c1.44-12.95-5.17-17.85-6.91-27.64c1.68-7.53,5.99-12.44,8.64-19
				c-4.53-11.92-4.33-28.34-5.18-44.35c-1.01-19.07-3.51-37.56-17.28-47.21c11.57-8.98,30.4-14.05,32.82-31.1
				c0.97-6.78-2-11.2-3.37-16.49c-0.72-2.75-1-5.74-0.08-9.43c6.74-10.95,18.58-12.69,25.91-25.91c7.3-3.65,14.55-7.33,22.46-10.37
				c-2.81-9.72-4.88-19.8-1.73-31.09c15.43,7.59,37.97,23.88,58.74,10.36c25.41,5.12,42.42,18.63,69.11,22.46
				c3.22,10.86,5.24,22.71,10.35,31.89c0.17,0.32,0.35,0.64,0.54,0.95c3.88,6.57,9.49,11.64,18.48,13.81
				c5.05,1.21,10.72,0.23,16.36-0.14c7.8,1.22,15.84,2.28,22.99,3.69c13.63,4.18,27.69,10.69,34.94,15.45
				c10.55,6.94,17.02,20.01,29.36,20.73c12.71,0.74,36.54-14.97,38.01-32.82c1.15-13.85-9.5-22.15-6.91-36.28
				c1.2-6.54,7.99-15.81,13.9-21.08c0.021-0.01,0.03-0.02,0.04-0.03c1.36-1.09,2.76-2.14,4.21-3.14c9.13-5.59,20.18-5.11,30.23-8.58
				c1.479-0.51,4.609-4.39,7.04-6.11c4.739-0.73,9.569-1.11,14.409-1.09c12.46,1.63,24.631,7.98,37.28,10.66
				c-0.38,5.49-0.49,10.73,1.311,14.05c0.819,1.54,2.06,2.67,3.88,3.22c19.72,4.78,38.489,12.67,60.46,10.37
				c2.6,3.74,1.93,10.75,6.91,12.09c-2.19,5.87-8.971,7.15-10.36,13.83c-0.51,9.72,1.979,16.44,5.18,22.45
				c-1.64,9.88-6.609,16.43-10.37,24.19c19.101,62.39,6.53,154.089,10.37,236.68c0.07,1.52,0.141,3.04,0.2,4.56v0.01
				c-0.229,17.851-0.18,35.46,0.4,52.511c-0.48,32.489-1.75,64.68-0.601,96.68c-10.939,0-21.88,0-32.819,0
				c-4.431,1.91-3.4,9.28-3.46,15.55c-90.86-49.07-181.811-98.06-274.69-145.12c-19.17,11.351-43.11,17.93-60.47,31.101
				c-17.54-19.891-46.28-28.58-79.47-32.83c-1.4-4.48-3.3-8.471-5.3-12.351C184.22,597.76,180.89,592,178.78,585.02z"/>
			<polygon style="fill:#007647;" points="811.41,60.45 811.41,183.91 623.01,183.91 621.88,60.45 			"/>
			<path d="M702.25,303.41c0,0.58,0,1.16,0,1.73c-16.26-1.5-31.59-9.42-44.92,0c-1.32-0.97-2.55-1.72-3.7-2.28
				C670.36,296.92,684.16,299.71,702.25,303.41z"/>
			<path d="M653.63,302.86c-0.49,0.18-0.979,0.36-1.479,0.55c-0.16-0.45-0.32-0.9-0.49-1.34
				C652.29,302.27,652.94,302.53,653.63,302.86z"/>
			<path d="M645.24,674.85c-1.12,23.561,2.12,51.49-1.431,72.61l-0.3-0.05c-1.149-32,0.12-64.19,0.601-96.68
				c0.26,7.579,0.63,15.06,1.13,22.39c19,0,38.01,0,57.01,0c0,0.58,0,1.16,0,1.729C683.25,674.85,664.24,674.85,645.24,674.85z"/>
			<path d="M643.71,598.22c0.69,17.601,0.66,35.101,0.4,52.511C643.53,633.68,643.48,616.07,643.71,598.22z"/>
			<path d="M651.66,302.07c-12.22-3.84-13.09,17.44-8.01,30.66l-0.141,0.05c-3.2-6.01-5.689-12.73-5.18-22.45
				c1.39-6.68,8.17-7.96,10.36-13.83c-4.98-1.34-4.311-8.35-6.91-12.09l0.02-0.17c0.57,0.06,1.141,0.12,1.71,0.17
				C646.09,290.43,649.32,295.81,651.66,302.07z"/>
			<path d="M634.87,360.43c16.88,62.61,9.88,153,8.84,237.78c-0.06-1.52-0.13-3.04-0.2-4.56c-3.84-82.591,8.73-174.291-10.37-236.68
				c3.761-7.76,8.73-14.31,10.37-24.19l0.141-0.05c0.479,1.25,1.01,2.43,1.59,3.51C642.39,344.91,636.58,350.61,634.87,360.43z"/>
			<path style="fill:#C8C8C8;" d="M614.35,35.34c6.87,0,12.44,4.06,12.44,9.06c0,3.2-2.28,6.01-5.71,7.63
				c-1.94,0.91-4.25,1.44-6.73,1.44c-2.369,0-4.59-0.49-6.47-1.33c-3.57-1.59-5.96-4.46-5.96-7.74
				C601.92,39.4,607.49,35.34,614.35,35.34z"/>
			<path style="fill:#C8C8C8;" d="M614.35,53.47c2.48,0,4.79-0.53,6.73-1.44v218.09h-12.84l-0.36-217.98
				C609.76,52.98,611.98,53.47,614.35,53.47z"/>
			<path d="M577.86,270.59c19.42,7.63,43.17,11.57,63.939,13.64v0.01l-0.02,0.17c-21.971,2.3-40.74-5.59-60.46-10.37
				c-1.82-0.55-3.061-1.68-3.88-3.22L577.86,270.59z"/>
			<path d="M577.44,270.82c-1.801-3.32-1.69-8.56-1.311-14.05c-12.649-2.68-24.82-9.03-37.28-10.66c14,0.06,28.12,3.39,40.74,10.66
				c-2.67,2.51-1.52,8.84-1.729,13.82L577.44,270.82z"/>
			<path d="M538.85,246.11c-4.84-0.02-9.67,0.36-14.409,1.09c0.579-0.41,1.119-0.7,1.59-0.8
				C530.36,245.54,534.62,245.55,538.85,246.11z"/>
			<path d="M524.44,247.2c-2.431,1.72-5.561,5.6-7.04,6.11c-10.051,3.47-21.101,2.99-30.23,8.58
				C497.89,254.42,510.83,249.31,524.44,247.2z"/>
			<path d="M484.57,263.68c0.85-0.66,1.71-1.26,2.6-1.79c-1.45,1-2.85,2.05-4.21,3.14C483.51,264.54,484.05,264.09,484.57,263.68z"
				/>
			<path d="M469.02,286.14c-2.59,14.13,8.061,22.43,6.91,36.28c-1.47,17.85-25.3,33.56-38.01,32.82
				c-12.34-0.72-18.81-13.79-29.36-20.73c-7.25-4.76-21.31-11.27-34.94-15.45c4.64,0.92,8.91,1.99,12.48,3.36
				c8.15,3.12,19.73,7.38,24.18,10.36c12.17,8.15,13.96,20.56,29.371,20.74c16.71,0.18,34.01-16.81,34.56-32.83
				c0.39-11.82-11.76-23.44-6.92-38.01c4.01-6.65,9.35-12.58,15.63-17.62C477.01,270.33,470.22,279.6,469.02,286.14z"/>
			<path d="M358.45,315.51c4.72,0.68,9.91,1.94,15.17,3.55c-7.15-1.41-15.19-2.47-22.99-3.69
				C353.27,315.19,355.89,315.14,358.45,315.51z"/>
			<path d="M316.99,303.41c5.6,6.83,19.21,9.69,33.64,11.96c-5.64,0.37-11.31,1.35-16.36,0.14c-8.99-2.17-14.6-7.24-18.48-13.81
				C316.16,302.31,316.56,302.89,316.99,303.41z"/>
			<path d="M315.25,300.75c0.17,0.32,0.35,0.64,0.54,0.95C315.6,301.39,315.42,301.07,315.25,300.75z"/>
			<path d="M177.05,236.04c-3.15,11.29-1.08,21.37,1.73,31.09c-7.91,3.04-15.16,6.72-22.46,10.37l-0.06-0.09
				c6.13-4.45,12.95-8.51,20.79-12c-4.59-7.55-3.71-19.51-1.72-29.37c-6.38,1.34-9.75-0.34-11.69-3.44
				c27.26,1.47,44.98,28.17,73.88,12.08c24.17,6.92,44.45,17.74,69.11,24.18c3.93,5.01,3.6,22.42,8.62,31.89
				c-5.11-9.18-7.13-21.03-10.35-31.89c-26.69-3.83-43.7-17.34-69.11-22.46C215.02,259.92,192.48,243.63,177.05,236.04z"/>
			<path d="M163.64,232.6c-0.14-0.01-0.27-0.01-0.41-0.02c0-0.21,0-0.43,0.01-0.64C163.37,232.17,163.49,232.39,163.64,232.6z"/>
			<path d="M154.6,220.49c-0.73-3.3-0.63-7.44-5.19-6.91c0.87,5.42-4.07,7.06,1.73,8.64C151.52,220.87,152.59,220.21,154.6,220.49z
				 M159.78,208.4c-3.42-0.57-12.34-5.35-10.37,3.45C154.38,212.21,158.19,211.41,159.78,208.4z M159.78,206.67
				c5.01,4.98-4.69,4.08-5.18,8.64c10.47-2.05,8.8,8.05,8.64,16.63c-2.13-3.99-2.34-9.91-3.46-14.91c-5.9,1.65-6.7,9.43-13.82,5.19
				c-1.03-3.08,5.06-7.18,0-8.64c-1.1,0.95-2.26,1.56-3.43,1.88l-0.03-0.15C147.73,211.49,149.01,199.85,159.78,206.67z"/>
			<path d="M125.23,196.3c1.98,10.12,7.76,16.43,17.27,19.01l0.03,0.15c-8.3,2.3-17.75-9.72-19.03-19.16
				C124.08,196.3,124.65,196.3,125.23,196.3z"/>
			<path d="M135.59,578.1c-0.68-0.46-1.32-0.96-1.93-1.489l0.2-0.23c16.43-1,27.64,6.25,44.92,8.64c2.11,6.98,5.44,12.74,8.52,18.74
				l-0.02,0.01C178.32,585.79,157.47,577.55,135.59,578.1z"/>
			<path d="M190.88,616.11c-36.18,27.17-77.53,49.17-115.75,74.29c0-0.58,0-1.15,0-1.73c38.22-25.12,79.57-47.12,115.75-74.28
				c-0.78-3.859-2-7.399-3.6-10.62l0.02-0.01c2,3.88,3.9,7.87,5.3,12.351c33.19,4.25,61.93,12.939,79.47,32.83
				c17.36-13.171,41.3-19.75,60.47-31.101c92.88,47.061,183.83,96.05,274.69,145.12c0.06-6.27-0.971-13.64,3.46-15.55
				c10.939,0,21.88,0,32.819,0l0.3,0.05c-0.1,0.57-0.199,1.13-0.3,1.68c-10.939,0-21.88,0-32.819,0
				c-3.171,14.851-0.94,31.601-1.73,51.83c-0.58,0-1.15,0-1.729,0c0-12.1,0-24.189,0-36.279
				c-91.61-48.9-181.811-99.221-276.42-145.12c-9.77,6.92-22.08,11.31-32.82,17.27c2.37,17.79,8.14,32.17,6.91,53.561
				c14.07,14.22,12.82,33.17,27.64,46.64c-12.77,13.16-11.12,40.72-13.82,63.93c-0.58,0-1.15,0-1.73,0
				c2.7-23.21,1.06-50.77,13.82-63.93c-15.05-13.39-13.73-32.48-27.64-46.64c1.24-21.391-4.54-35.771-6.91-53.561
				c-9.39,3.86-17.33,9.16-25.91,13.83C255.33,627.68,220.99,624.01,190.88,616.11z"/>
			<path d="M130.41,303.41c-0.92,3.69-0.64,6.68,0.08,9.43l-0.38,0.11c-0.76-2.66-1.81-5.29-3.16-7.81
				c8.87-9.82,17.9-19.45,29.31-27.73l0.06,0.09C148.99,290.72,137.15,292.46,130.41,303.41z"/>
			<path d="M125.23,547.01c-0.27,12.94,4.77,20.561,8.63,29.37l-0.2,0.23c-7.4-6.42-9.84-17.811-10.16-31.33l0.12-0.101
				C124.16,545.81,124.7,546.42,125.23,547.01z"/>
			<path d="M114.86,470.99c1.74,9.79,8.35,14.689,6.91,27.64c-1.63,0.54-3.11,1.13-4.44,1.771c1.05-1.011,1.98-2.15,2.71-3.49
				c1.23-12.74-6.36-16.68-6.91-27.641c2.65-6.569,6.96-11.47,8.64-19.01c-0.87-7.189-6.04-10.08-6.91-17.27
				c2.87-8.36,3.84-16.98,3.4-25.35h0.06c0.85,16.01,0.65,32.43,5.18,44.35C120.85,458.55,116.54,463.46,114.86,470.99z"/>
			<path d="M117.33,500.4c-2,1.92-4.45,3.39-6.89,4.869C112.08,503.46,114.34,501.82,117.33,500.4z"/>
			<path d="M110.44,505.27c-9.99,11.021,2.98,28.24,13.18,39.91l-0.12,0.101c-8.99-8.86-15.93-19.771-22.46-31.101
				C102.92,509.95,106.65,507.59,110.44,505.27z"/>
			<path d="M107.95,351.79c18.99-1.63,27.17-21.07,22.16-38.84l0.38-0.11c1.37,5.29,4.34,9.71,3.37,16.49
				c-2.42,17.05-21.25,22.12-32.82,31.1c13.77,9.65,16.27,28.14,17.28,47.21h-0.06c-1-19.09-9.3-36.87-18.95-47.21
				c0.85-4.91,9.03-2.49,6.91-10.37c-6.24-21.16-10.25-44.55-14.85-67.36C101.02,301.61,99.84,331.34,107.95,351.79z"/>
			<path d="M90.67,279.23c0.24,1.15,0.47,2.31,0.7,3.47c-0.77-1.51-1.6-2.95-2.52-4.31C89.43,278.71,90.04,278.98,90.67,279.23z"/>
			<path d="M88.85,278.39c-5.13-2.61-8.57-6.93-13.72-9.53c0-0.57,0-1.15,0-1.73C81.09,269.49,85.5,273.41,88.85,278.39z"/>
		</g>
		<g>
			<polyline style="fill:none;stroke:#231F20;stroke-width:7;" points="621.88,60.45 811.41,60.45 811.41,183.91 623.01,183.91 			
				"/>
			<path style="fill:none;stroke:#231F20;stroke-width:7;" d="M607.88,52.14c-3.57-1.59-5.96-4.46-5.96-7.74
				c0-5,5.57-9.06,12.43-9.06c6.87,0,12.44,4.06,12.44,9.06c0,3.2-2.28,6.01-5.71,7.63c-1.94,0.91-4.25,1.44-6.73,1.44
				C611.98,53.47,609.76,52.98,607.88,52.14z"/>
			<polyline style="fill:none;stroke:#231F20;stroke-width:7;" points="607.88,51.89 607.88,52.14 608.24,270.12 			"/>
			<polyline style="fill:none;stroke:#231F20;stroke-width:7;" points="621.08,51.43 621.08,52.03 621.08,270.12 			"/>
			<path style="fill:none;stroke:#231F20;stroke-width:7;" d="M88.85,278.39c0.92,1.36,1.75,2.8,2.52,4.31
				c9.65,18.91,8.47,48.64,16.58,69.09c18.99-1.63,27.17-21.07,22.16-38.84c-0.76-2.66-1.81-5.29-3.16-7.81
				c8.87-9.82,17.9-19.45,29.31-27.73c6.13-4.45,12.95-8.51,20.79-12c-4.59-7.55-3.71-19.51-1.72-29.37
				c-6.38,1.34-9.75-0.34-11.69-3.44c-0.15-0.21-0.27-0.43-0.4-0.66c-2.13-3.99-2.34-9.91-3.46-14.91c-5.9,1.65-6.7,9.43-13.82,5.19
				c-1.03-3.08,5.06-7.18,0-8.64c-1.1,0.95-2.26,1.56-3.43,1.88c-8.3,2.3-17.75-9.72-19.03-19.16c0.58,0,1.15,0,1.73,0
				c1.98,10.12,7.76,16.43,17.27,19.01c5.23-3.82,6.51-15.46,17.28-8.64c5.01,4.98-4.69,4.08-5.18,8.64
				c10.47-2.05,8.8,8.05,8.64,16.63c-0.01,0.21-0.01,0.43-0.01,0.64c0.14,0.01,0.27,0.01,0.41,0.02
				c27.26,1.47,44.98,28.17,73.88,12.08c24.17,6.92,44.45,17.74,69.11,24.18c3.93,5.01,3.6,22.42,8.62,31.89
				c0.17,0.32,0.35,0.64,0.54,0.95c0.37,0.61,0.77,1.19,1.2,1.71c5.6,6.83,19.21,9.69,33.64,11.96c7.8,1.22,15.84,2.28,22.99,3.69
				c4.64,0.92,8.91,1.99,12.48,3.36c8.15,3.12,19.73,7.38,24.18,10.36c12.17,8.15,13.96,20.56,29.371,20.74
				c16.71,0.18,34.01-16.81,34.56-32.83c0.39-11.82-11.76-23.44-6.92-38.01c4.01-6.65,9.35-12.58,15.63-17.62"/>
			<path style="fill:none;stroke:#231F20;stroke-width:7;" d="M88.85,278.39c-5.13-2.61-8.57-6.93-13.72-9.53c0-0.57,0-1.15,0-1.73
				C81.09,269.49,85.5,273.41,88.85,278.39z"/>
			<path style="fill:none;stroke:#231F20;stroke-width:7;" d="M643.71,598.22c-0.229,17.851-0.18,35.46,0.4,52.511
				c0.26,7.579,0.63,15.06,1.13,22.39c19,0,38.01,0,57.01,0c0,0.58,0,1.16,0,1.729c-19,0-38.01,0-57.01,0
				c-1.12,23.561,2.12,51.49-1.431,72.61c-0.1,0.57-0.199,1.13-0.3,1.68c-10.939,0-21.88,0-32.819,0
				c-3.171,14.851-0.94,31.601-1.73,51.83c-0.58,0-1.15,0-1.729,0c0-12.1,0-24.189,0-36.279
				c-91.61-48.9-181.811-99.221-276.42-145.12c-9.77,6.92-22.08,11.31-32.82,17.27c2.37,17.79,8.14,32.17,6.91,53.561
				c14.07,14.22,12.82,33.17,27.64,46.64c-12.77,13.16-11.12,40.72-13.82,63.93c-0.58,0-1.15,0-1.73,0
				c2.7-23.21,1.06-50.77,13.82-63.93c-15.05-13.39-13.73-32.48-27.64-46.64c1.24-21.391-4.54-35.771-6.91-53.561
				c-9.39,3.86-17.33,9.16-25.91,13.83c-15.02-22.99-49.36-26.66-79.47-34.56c-36.18,27.17-77.53,49.17-115.75,74.29
				c0-0.58,0-1.15,0-1.73c38.22-25.12,79.57-47.12,115.75-74.28c-0.78-3.859-2-7.399-3.6-10.62
				c-8.96-17.979-29.81-26.22-51.69-25.67c-0.68-0.46-1.32-0.96-1.93-1.489c-7.4-6.42-9.84-17.811-10.16-31.33
				c-8.99-8.86-15.93-19.771-22.46-31.101c1.88-4.229,5.61-6.59,9.4-8.91c2.44-1.479,4.89-2.949,6.89-4.869
				c1.05-1.011,1.98-2.15,2.71-3.49c1.23-12.74-6.36-16.68-6.91-27.641c2.65-6.569,6.96-11.47,8.64-19.01
				c-0.87-7.189-6.04-10.08-6.91-17.27c2.87-8.36,3.84-16.98,3.4-25.35c-1-19.09-9.3-36.87-18.95-47.21
				c0.85-4.91,9.03-2.49,6.91-10.37c-6.24-21.16-10.25-44.55-14.85-67.36c-0.23-1.16-0.46-2.32-0.7-3.47
				c-0.63-0.25-1.24-0.52-1.82-0.84"/>
			<path style="fill:none;stroke:#231F20;stroke-width:7;" d="M653.63,302.86c-0.689-0.33-1.34-0.59-1.97-0.79
				c-12.22-3.84-13.09,17.44-8.01,30.66c0.479,1.25,1.01,2.43,1.59,3.51c-2.851,8.67-8.66,14.37-10.37,24.19
				c16.88,62.61,9.88,153,8.84,237.78"/>
			<path style="fill:none;stroke:#231F20;stroke-width:7;" d="M653.63,302.86c16.73-5.94,30.53-3.15,48.62,0.55
				c0,0.58,0,1.16,0,1.73c-16.26-1.5-31.59-9.42-44.92,0C656.01,304.17,654.78,303.42,653.63,302.86z"/>
			<path style="fill:none;stroke:#231F20;stroke-width:7;" d="M482.96,265.03c1.36-1.09,2.76-2.14,4.21-3.14
				c10.72-7.47,23.66-12.58,37.271-14.69c4.739-0.73,9.569-1.11,14.409-1.09c14,0.06,28.12,3.39,40.74,10.66
				c-2.67,2.51-1.52,8.84-1.729,13.82c19.42,7.63,43.17,11.57,63.939,13.64v0.01c0.57,0.06,1.141,0.12,1.71,0.17
				c2.58,6.02,5.811,11.4,8.15,17.66c0.17,0.44,0.33,0.89,0.49,1.34c0.5-0.19,0.989-0.37,1.479-0.55"/>
			<path style="fill:none;stroke:#231F20;stroke-width:7;" d="M315.25,300.75c-5.11-9.18-7.13-21.03-10.35-31.89
				c-26.69-3.83-43.7-17.34-69.11-22.46c-20.77,13.52-43.31-2.77-58.74-10.36c-3.15,11.29-1.08,21.37,1.73,31.09
				c-7.91,3.04-15.16,6.72-22.46,10.37c-7.33,13.22-19.17,14.96-25.91,25.91c-0.92,3.69-0.64,6.68,0.08,9.43
				c1.37,5.29,4.34,9.71,3.37,16.49c-2.42,17.05-21.25,22.12-32.82,31.1c13.77,9.65,16.27,28.14,17.28,47.21
				c0.85,16.01,0.65,32.43,5.18,44.35c-2.65,6.56-6.96,11.47-8.64,19c1.74,9.79,8.35,14.689,6.91,27.64
				c-1.63,0.54-3.11,1.13-4.44,1.771c-2.99,1.42-5.25,3.06-6.89,4.869c-9.99,11.021,2.98,28.24,13.18,39.91
				c0.54,0.63,1.08,1.24,1.61,1.83c-0.27,12.94,4.77,20.561,8.63,29.37c16.43-1,27.64,6.25,44.92,8.64
				c2.11,6.98,5.44,12.74,8.52,18.74c2,3.88,3.9,7.87,5.3,12.351c33.19,4.25,61.93,12.939,79.47,32.83
				c17.36-13.171,41.3-19.75,60.47-31.101c92.88,47.061,183.83,96.05,274.69,145.12c0.06-6.27-0.971-13.64,3.46-15.55
				c10.939,0,21.88,0,32.819,0c-1.149-32,0.12-64.19,0.601-96.68c0.26-17.41,0.29-34.91-0.4-52.511v-0.01
				c-0.06-1.52-0.13-3.04-0.2-4.56c-3.84-82.591,8.73-174.291-10.37-236.68c3.761-7.76,8.73-14.31,10.37-24.19
				c-3.2-6.01-5.689-12.73-5.18-22.45c1.39-6.68,8.17-7.96,10.36-13.83c-4.98-1.34-4.311-8.35-6.91-12.09
				c-21.971,2.3-40.74-5.59-60.46-10.37c-1.82-0.55-3.061-1.68-3.88-3.22c-1.801-3.32-1.69-8.56-1.311-14.05
				c-12.649-2.68-24.82-9.03-37.28-10.66c-4.229-0.56-8.489-0.57-12.819,0.29c-0.471,0.1-1.011,0.39-1.59,0.8
				c-2.431,1.72-5.561,5.6-7.04,6.11c-10.051,3.47-21.101,2.99-30.23,8.58c-0.89,0.53-1.75,1.13-2.6,1.79
				c-0.521,0.41-1.061,0.86-1.61,1.35c-0.01,0.01-0.02,0.02-0.04,0.03c-5.91,5.27-12.7,14.54-13.9,21.08
				c-2.59,14.13,8.061,22.43,6.91,36.28c-1.47,17.85-25.3,33.56-38.01,32.82c-12.34-0.72-18.81-13.79-29.36-20.73
				c-7.25-4.76-21.31-11.27-34.94-15.45c-5.26-1.61-10.45-2.87-15.17-3.55c-2.56-0.37-5.18-0.32-7.82-0.14
				c-5.64,0.37-11.31,1.35-16.36,0.14c-8.99-2.17-14.6-7.24-18.48-13.81C315.6,301.39,315.42,301.07,315.25,300.75z"/>
			<path style="fill:none;stroke:#231F20;stroke-width:7;" d="M149.41,211.85c4.97,0.36,8.78-0.44,10.37-3.45
				C156.36,207.83,147.44,203.05,149.41,211.85z"/>
			<path style="fill:none;stroke:#231F20;stroke-width:7;" d="M149.41,213.58c0.87,5.42-4.07,7.06,1.73,8.64
				c0.38-1.35,1.45-2.01,3.46-1.73C153.87,217.19,153.97,213.05,149.41,213.58z"/>
		</g>
	</g>
</g>
<rect x="0.25" y="0.25" style="fill-rule:evenodd;clip-rule:evenodd;fill:none;" width="850.394" height="850.394"/>
</svg>
