<?xml version="1.0" encoding="iso-8859-1"?>
<!-- Generator: Adobe Illustrator 12.0.1, SVG Export Plug-In . SVG Version: 6.00 Build 51448)  -->
<!DOCTYPE svg PUBLIC "-//W3C//DTD SVG 1.1//EN" "http://www.w3.org/Graphics/SVG/1.1/DTD/svg11.dtd" [
	<!ENTITY ns_svg "http://www.w3.org/2000/svg">
	<!ENTITY ns_xlink "http://www.w3.org/1999/xlink">
]>
<svg  version="1.1" id="Layer_1" xmlns="&ns_svg;" xmlns:xlink="&ns_xlink;" width="850.89" height="850.89"
	 viewBox="0 0 850.89 850.89" style="overflow:visible;enable-background:new 0 0 850.89 850.89;" xml:space="preserve">
<g>
	<g id="XMLID_1_">
		<g>
			<path d="M511.82,456.81c11.96,11.971,0.71,57.391-13.29,61.011c-13.87,3.59-35.59-12.16-44.29,4.979
				c5.85,8.74,17.319,3.641,24.359,7.47c8.91,4.851,7.471,18.78,13.29,27.4c7.2,10.65,15.431,10.62,27.681,14.94
				c4.87,12.12,21.819,40.37,34.33,41.09c6.279,0.359,11.449-7.44,18.819-7.47c11.62-0.061,20.62,6.71,29.03,14.52
				c-10.4-5.17-19.03-14.4-31.24-13.28c-6.93,0.641-11.569,8.23-17.72,7.471c-11.98-1.471-29.1-29.5-33.22-41.091
				c-14.19-3.619-24.69-7.71-31-21.159c-2.931-6.24-3.11-16.21-7.761-19.921c-8.319-6.659-23.359,2.051-27.68-11.21
				c7.88-14.8,35.21-3.1,48.72-6.229c9.11-11.49,20.021-39.93,9.971-57.271c-4.57-0.159-6.931,2.16-12.181,1.24
				c-33.85-23.359-66.729-47.81-79.729-94.62c1.29-5.45,3.53-9.83,6.53-13.37c-2.84,4.23-2.521,8.99-5.42,14.61
				c13.17,44.96,45.38,68.51,77.51,92.14C504.08,458.9,507.1,456.91,511.82,456.81z"/>
			<path d="M293.67,557.67c-3.76-5.83-5.82-12.41-8.64-18.67c8.18,14.32,17.07,27.84,28.21,38.82
				C306.27,571.44,298.8,565.61,293.67,557.67z"/>
			<path style="fill:#FFF5B4;" d="M501.85,515.33c-13.51,3.13-40.84-8.57-48.72,6.229c4.32,13.261,19.36,4.551,27.68,11.21
				c4.65,3.711,4.83,13.681,7.761,19.921c6.31,13.449,16.81,17.54,31,21.159c4.12,11.591,21.239,39.62,33.22,41.091
				c6.15,0.76,10.79-6.83,17.72-7.471c12.21-1.12,20.84,8.11,31.24,13.28c0.35,0.31,0.7,0.64,1.04,0.97
				c1.8,6.66-3.12,13.04-4.6,19.37c-6.29,3.71-15.71,3.91-19.931,9.96c0.19,1.2,0.431,2.351,0.71,3.47c0,0.011,0,0.011,0,0.011
				c-0.319,4.77,2.561,9.399,6.141,13.439c0,0,0.01,0.011,0.01,0.021c7.64,10.99,19.6,17.96,28.33,27.49c0.79,1,1.55,2.05,2.27,3.17
				c-9.05,13.38-18.56,1.489-31.92,3.449c-0.64,12.341,5.42,17.15,12.181,21.17c4.5,8.051,3.529,16.82,2.34,25.58
				c-0.82,3.62-1.471,7.46-1.23,11.771c0,0.01,0,0.03,0,0.04c-0.21,6.05,0.66,11.93,4.43,17.39c-7.93-3.12-14.869-4.939-21.239-5.35
				c0,0,0,0-0.011,0c-2.26-0.71-4.71-1.101-7.55-0.87c-2.479,0.2-4.75,1.24-6.899,2.71c-0.011,0-0.011,0-0.021,0.01
				c-6.29,2.16-12.29,6.181-18.55,12.22c-6.55-8.1-12.76-22.43-18.82-37.359c-7.949-19.58-22.439-38.93-8.859-56.021
				c-5.71-9.77-15.32-15.159-24.36-21.17c-3.02-14.46-5.6-29.399-5.54-47.319c-10.65-11.36-23.03-7.311-32.11-3.73
				c-5.229,2.061-16.779,15.88-24.359,16.18c-4.33,0.17-18.18-7.319-22.15-11.199c-5.38-5.271-12.96-21.04-19.93-29.891
				c-5.12-6.49-17.36-24.72-23.26-24.899c-8.13-0.24-12.99,14.14-18.82,13.699c-8.21-2.14-18.18-1.149-24.36,2.49
				c-2.82-2.04-5.51-4.229-8.07-6.55c-1.1-1.09-2.23-2.14-3.37-3.18c-11.14-10.98-20.03-24.5-28.21-38.82
				c-1.31-2.92-2.79-5.77-4.69-8.45c-0.73-1.33-1.45-2.67-2.17-4.01c-11.42-1.3-18.55-15.94-32.11-17.43
				c-18.68-2.061-35.96,13.79-57.59,7.47c-4.97-1.45-9.27-3.41-13.29-5.67c-3-2-5.88-4-8.75-5.48c-6.13-4.13-12.28-8.6-20.04-12.51
				c0.21-6.41,4.9-7.77,9.97-8.71c-3.19-26.19-37.3-71.87-8.86-88.41c16.92-24.14,16.56-64.76,2.09-91.14
				c-1.42-3.03-3.09-5.56-4.98-7.75c-6.42-8.55-14.74-14.7-24.79-16.9c-1.39-5.13-3.03-10-3.99-15.63c0.23-1.41,0.5-2.81,0.73-4.2
				c13.12-12.11,29.42,2.85,46.44-0.09c4.71-0.82,8.21-5.46,12.08-8.93c1.75-1.57,3.58-2.9,5.64-3.52
				c10.68-3.22,27.09,0.37,39.87-3.74c7.22-2.33,13.24-9.14,18.82-9.96c14.3-2.09,32.93,10.99,52.05,8.72
				c8.44-1.01,15.63-5.25,23.25-6.23c6.96-0.9,13.66,1.35,19.93,0c4.21-0.9,7.82-3.04,11.27-5.72c4.21-2.72,7.98-6.24,11.54-10.02
				c1.21-1.01,2.46-2,3.77-2.94c4.28,2.66,3.51,11,5.54,16.19c11.26,3.12,26.38,8.51,25.47,21.17c-3.02,7.87-13.57-0.38-19.94,3.73
				c-7.61,18.91,30.58,20.67,43.19,27.39c4.35,2.32,8.35,5.12,12.07,8.1c0.021,0.01,0.04,0.03,0.061,0.05
				c2.899,2.83,5.81,5.71,8.909,8.04c0.381,0.29,0.79,0.58,1.221,0.88c0,0,0.01,0,0.01,0.01c6.67,6.23,12.63,12.11,18.7,15.3
				c0.6,9.05-2.44,14.01-5.2,19.29c-0.55,0.33-1.13,0.65-1.73,0.95h-0.01c-6.72,1.59-12.779,3.92-17.72,7.53
				c-1.54,0.94-2.94,2.04-4.13,3.35c-0.47,0.52-0.87,1.04-1.22,1.58c-3,3.54-5.24,7.92-6.53,13.37
				c13,46.81,45.88,71.26,79.729,94.62c5.25,0.92,7.61-1.399,12.181-1.24C521.87,475.4,510.96,503.84,501.85,515.33z"/>
			<polygon style="fill:#394EA1;" points="572.23,116.16 788.21,115.42 788.28,115.42 788.28,164.98 787.47,164.98 573.71,164.98 
				571.72,164.98 571.72,116.16 			"/>
			<polygon style="fill:#FAA41A;" points="573.71,164.98 787.47,164.98 788.28,164.98 788.28,212.38 573.92,212.38 571.72,212.38 
				571.72,164.98 			"/>
			<path style="fill:#FFFFFF;" d="M706.72,662.25c0,3.32,0,6.64,0,9.97c-4.39,1.44-8.279,3.471-11.62,6.101L706.72,662.25z"/>
			<path style="fill:#FFFFFF;" d="M694.28,680.29l-7.261,9.42c0.141-0.28,0.28-0.56,0.45-0.83l4.8-6.64
				C692.9,681.56,693.58,680.91,694.28,680.29z"/>
			<path style="fill:#FFFFFF;" d="M684.43,693.08l2.58-3.35c-2.45,4.779-4.02,10.539-4.66,17.35c-0.439,0.02-0.85,0.08-1.239,0.18
				c0.05-0.06,0.1-0.12,0.14-0.18C681.77,701.81,682.85,697.16,684.43,693.08z"/>
			<path style="fill:#FFFFFF;" d="M692.27,682.24c-1.85,1.939-3.46,4.149-4.8,6.64l-3.04,4.2c2.41-6.21,6.011-11.09,10.67-14.76
				L692.27,682.24z"/>
			<path style="fill:#FFFFFF;" d="M681.11,707.26c-1.66,2.25-3.551,3.55-5.591,4.26C677.16,709.68,678.71,707.83,681.11,707.26z"/>
			<path d="M615.91,698.36c-0.061,0.1-0.13,0.199-0.19,0.29c-0.72-1.12-1.479-2.17-2.27-3.17
				C614.3,696.41,615.12,697.37,615.91,698.36z"/>
			<path d="M595.98,678.44c6.579,6.829,12.72,11.1,17.47,17.04c-8.73-9.53-20.69-16.5-28.33-27.49
				C588.98,672.34,593.64,676.01,595.98,678.44z"/>
			<path style="fill:#FFFFFF;" d="M635.85,740.7c-12.51,12.08-23.31,26.09-34.33,39.84c9.311-15.26,21.421-27.37,33.221-39.84
				c4.33-10.811,9.54-25.931,19.93-28.641c6.771-1.77,14.51,1.671,20.85-0.54c-1.71,1.91-3.51,3.82-6.46,4.28
				c-4.5,0.7-8.46-3.569-13.279-2.49C645.16,715.68,640,729.24,635.85,740.7z"/>
			<path d="M602.63,621.17c0.061,0.18,0.11,0.36,0.16,0.55c-0.34-0.33-0.69-0.66-1.04-0.97
				C602.04,620.89,602.33,621.03,602.63,621.17z"/>
			<path d="M601.52,779.3c-9.029,1.12-14.119-4.33-21.239-6.6c6.37,0.41,13.31,2.229,21.239,5.35c-3.77-5.46-4.64-11.34-4.43-17.39
				C597.49,767.19,603.86,772.53,601.52,779.3z"/>
			<path d="M598.32,748.85c-0.53,3.95-1.101,7.891-1.23,11.771C596.85,756.31,597.5,752.47,598.32,748.85z"/>
			<path d="M598.19,642.33c-5.66,5.62-16.721,2.7-18.82,9.96c-0.22,0.75-0.34,1.49-0.4,2.229c-0.279-1.119-0.52-2.27-0.71-3.47
				c4.221-6.05,13.641-6.25,19.931-9.96c1.479-6.33,6.399-12.71,4.6-19.37c0.69,0.641,1.37,1.29,2.05,1.94
				C600.99,632.21,603.84,636.74,598.19,642.33z"/>
			<path d="M583.8,702.1c13.36-1.96,22.87,9.931,31.92-3.449c0.45,0.699,0.88,1.439,1.3,2.199c-11.34,10.57-18.8,1.92-32.109,2.49
				c-1.98,14.67,9.06,13.4,13.28,21.17c4.85,8.91,2.02,16.04,0.13,24.34c1.189-8.76,2.16-17.529-2.34-25.58
				C589.22,719.25,583.16,714.44,583.8,702.1z"/>
			<path d="M578.97,654.53c1.29,5.17,3.44,9.56,6.141,13.439C581.53,663.93,578.65,659.3,578.97,654.53z"/>
			<path d="M572.72,771.83c2.84-0.23,5.29,0.16,7.55,0.87c-5.119-0.33-9.859,0.26-14.449,1.84
				C567.97,773.07,570.24,772.03,572.72,771.83z"/>
			<polygon style="fill:#ED1E29;" points="572.63,71.91 788.28,71.91 788.28,115.42 788.21,115.42 572.23,116.16 571.72,116.16 
				571.72,71.91 			"/>
			<path style="fill:#C8C8C8;" d="M556.7,62.45c-4.07-1.81-6.78-5.07-6.78-8.8c0-5.69,6.34-10.31,14.15-10.31
				c7.81,0,14.14,4.62,14.14,10.31c0,3.64-2.58,6.84-6.49,8.67c-2.21,1.04-4.83,1.64-7.649,1.64
				C561.37,63.96,558.85,63.41,556.7,62.45z"/>
			<path style="fill:#C8C8C8;" d="M556.7,62.45c2.149,0.96,4.67,1.51,7.37,1.51c2.819,0,5.439-0.6,7.649-1.64v9.59v44.25v48.82v47.4
				v98.08H557.11L556.7,62.45z"/>
			<path d="M451.25,337.9c-0.11,0.21-0.22,0.42-0.33,0.63c-0.47,0.1-0.939,0.21-1.4,0.32C450.12,338.55,450.7,338.23,451.25,337.9z"
				/>
			<path d="M456.45,318.61c-6.07-3.19-12.03-9.07-18.7-15.3c6.51,4.48,18.4,10.33,19.81,16.54c2.271,10-1.01,14.88-6.31,18.05
				C454.01,332.62,457.05,327.66,456.45,318.61z"/>
			<path d="M437.74,303.3c-0.431-0.3-0.84-0.59-1.221-0.88c-3.1-2.33-6.01-5.21-8.909-8.04
				C431.21,297.26,434.55,300.32,437.74,303.3z"/>
			<path d="M431.79,346.38c4.94-3.61,11-5.94,17.72-7.53C444.07,341.59,437.12,343.09,431.79,346.38z"/>
			<path d="M431.79,346.38c-1.98,1.42-3.771,3.06-5.35,4.93c0.35-0.54,0.75-1.06,1.22-1.58
				C428.85,348.42,430.25,347.32,431.79,346.38z"/>
			<path d="M366.76,233.94c-2.03-5.19-1.26-13.53-5.54-16.19c-1.31,0.94-2.56,1.93-3.77,2.94c7.25-7.66,13.7-16.39,21.49-21.61
				c0.37,0,0.74,0,1.11,0c-4.95,6.88-13.42,9.82-16.61,18.67c2.3,4.05,2.52,10.45,4.42,14.94c11.59,4.41,24.03,7.85,26.58,22.42
				c-2.52,10.26-17.83-1.56-21.04,7.47c-3.62,9.99,8.98,11.47,15.5,13.69c8.11,2.76,17.75,5.12,24.37,7.47
				c5.19,1.85,9.73,6.15,14.28,10.59c-3.72-2.98-7.72-5.78-12.07-8.1c-12.61-6.72-50.8-8.48-43.19-27.39
				c6.37-4.11,16.92,4.14,19.94-3.73C393.14,242.45,378.02,237.06,366.76,233.94z"/>
			<path d="M345.91,230.71c3.82-2.98,7.46-6.62,11.54-10.02C353.89,224.47,350.12,227.99,345.91,230.71z"/>
			<path d="M313.24,577.82c1.14,1.04,2.27,2.09,3.37,3.18C315.46,579.97,314.34,578.91,313.24,577.82z"/>
			<path d="M318.03,588.8c3.26,3.5,5.93,10.01,8.77,12.69l-0.08,0.08c-8.25-7.83-14.62-17.78-23.56-24.851l0.06-0.069
				C307.91,580.6,313.74,584.18,318.03,588.8z"/>
			<path d="M280.34,530.55c1.9,2.681,3.38,5.53,4.69,8.45C283.44,536.21,281.88,533.39,280.34,530.55z"/>
			<path style="fill:#FFFFFF;" d="M266.52,654.91c-0.22,0.26-0.46,0.51-0.7,0.75C266.06,655.42,266.3,655.17,266.52,654.91z"/>
			<path d="M264.37,656.94c0.33-0.261,0.65-0.54,0.97-0.83C265.02,656.41,264.7,656.68,264.37,656.94z"/>
			<path d="M263.57,657.52c0.27-0.18,0.54-0.38,0.8-0.579C264.11,657.15,263.84,657.34,263.57,657.52z"/>
			<path d="M261.8,658.59c0.36-0.189,0.71-0.38,1.05-0.59C262.5,658.21,262.15,658.41,261.8,658.59z"/>
			<path d="M259.19,659.65c0.28-0.08,0.56-0.181,0.84-0.28C259.75,659.47,259.47,659.57,259.19,659.65z"/>
			<path d="M221.17,655.32c16.59-0.761,36.56,12.21,47.03-4.271c1.78-20.16,9.36-38.49,6.65-59.76
				c6.89-7.61,15.03-13.81,23.25-19.93c1.37,1.899,3.14,3.62,5.12,5.29l-0.06,0.069c-1.92-1.52-3.97-2.91-6.17-4.109
				c-6.38,7.34-15.97,11.09-21.04,19.92c2.62,20.52-4.98,38.81-6.64,58.52c-0.86,1.49-1.79,2.771-2.79,3.86
				c-0.22,0.26-0.46,0.51-0.7,0.75c-0.16,0.16-0.32,0.31-0.48,0.45c-0.32,0.29-0.64,0.569-0.97,0.83
				c-0.26,0.199-0.53,0.399-0.8,0.579c-0.24,0.171-0.48,0.33-0.72,0.48c-0.34,0.21-0.69,0.4-1.05,0.59
				c-0.58,0.3-1.17,0.55-1.77,0.78c-0.28,0.1-0.56,0.2-0.84,0.28c-10.61,3.34-24.53-3.42-37.07-3.03c-0.64,0.02-1.27,0.05-1.9,0.11
				c-0.13,0.02-0.25,0.029-0.37,0.039c-0.28,0.03-0.55,0.061-0.82,0.101c-0.37,0.05-0.73,0.11-1.1,0.18
				c-0.34,0.061-0.67,0.13-1.01,0.21c-0.5,0.11-1,0.24-1.49,0.391L221.17,655.32z"/>
			<path style="fill:#FFFFFF;" d="M222.12,656.62c-0.64,0.02-1.27,0.05-1.9,0.11C220.85,656.67,221.48,656.64,222.12,656.62z"/>
			<path style="fill:#FFFFFF;" d="M219.85,656.77c-0.28,0.03-0.55,0.061-0.82,0.101C219.3,656.83,219.57,656.8,219.85,656.77z"/>
			<path style="fill:#FFFFFF;" d="M217.93,657.05c-0.34,0.061-0.68,0.13-1.01,0.21C217.26,657.18,217.59,657.11,217.93,657.05z"/>
			<path d="M215.43,657.65l-0.05,0.02c-0.17,0.04-0.33,0.09-0.49,0.15C215.07,657.76,215.25,657.7,215.43,657.65z"/>
			<path d="M215.38,657.67l-3.6,1.46c0.12-0.07,0.23-0.12,0.35-0.18c0.24-0.12,0.48-0.24,0.72-0.34c0.42-0.19,0.84-0.36,1.27-0.521
				c0.26-0.1,0.51-0.189,0.77-0.27C215.05,657.76,215.21,657.71,215.38,657.67z"/>
			<path d="M214.89,657.82c-0.26,0.08-0.51,0.17-0.77,0.27C214.37,657.99,214.63,657.9,214.89,657.82z"/>
			<path d="M212.85,658.61c-0.24,0.1-0.48,0.22-0.72,0.34C212.37,658.83,212.61,658.72,212.85,658.61z"/>
			<path d="M188.47,516.58c21.63,6.32,38.91-9.53,57.59-7.47c13.56,1.489,20.69,16.13,32.11,17.43c0.72,1.34,1.44,2.68,2.17,4.01
				c-0.67-0.939-1.39-1.859-2.17-2.76c-11.36-1.58-19.58-16.41-33.22-17.44c-19.01-1.43-35.51,13.601-56.48,7.471
				c-4.86-1.42-9.19-4.16-13.29-6.91C179.2,513.17,183.5,515.13,188.47,516.58z"/>
			<path d="M291.46,242.66c-19.12,2.27-37.75-10.81-52.05-8.72c-5.58,0.82-11.6,7.63-18.82,9.96c-12.78,4.11-29.19,0.52-39.87,3.74
				c-2.06,0.62-3.89,1.95-5.64,3.52l-0.08-0.09c2.35-2.09,4.88-3.96,7.94-4.68c10.88-2.56,25.98,0.54,38.75-3.73
				c7.31-2.45,13.65-9.45,19.94-9.97c15.88-1.29,31.68,10.88,49.83,8.72c8.81-1.05,17.01-5.32,25.47-6.23
				c6.02-0.64,12.8,1.48,18.82,0c3.7-0.91,7.05-2.47,10.16-4.47c-3.45,2.68-7.06,4.82-11.27,5.72c-6.27,1.35-12.97-0.9-19.93,0
				C307.09,237.41,299.9,241.65,291.46,242.66z"/>
			<path d="M175.18,510.91c-3.02-1.68-5.88-3.54-8.75-5.48C169.3,506.91,172.18,508.91,175.18,510.91z"/>
			<path d="M147.5,395.8c-28.44,16.54,5.67,62.22,8.86,88.41c-5.07,0.94-9.76,2.3-9.97,8.71c7.76,3.91,13.91,8.38,20.04,12.51
				c-0.04-0.02-0.07-0.04-0.11-0.06c-6.97-3.561-16.12-4.48-21.03-13.69c0.31-6.699,6.95-6.3,9.96-9.96
				c-2.93-20.21-25.73-51.12-19.93-73.47c1.6-6.15,7.29-9.27,11.07-14.94c15.39-23,17.54-57.73,3.32-88.4
				c-0.04-0.09-0.08-0.17-0.12-0.25C164.06,331.04,164.42,371.66,147.5,395.8z"/>
			<path d="M149.59,304.66c-1.5-2.75-3.16-5.35-4.98-7.75C146.5,299.1,148.17,301.63,149.59,304.66z"/>
			<path d="M119.82,280.01c10.05,2.2,18.37,8.35,24.79,16.9c-6.55-7.64-15.66-11.16-25.9-16.9c-4.11-4.89-3.75-10.29-2.88-15.63
				C116.79,270.01,118.43,274.88,119.82,280.01z"/>
			<path d="M117.6,258.84c12.27-12.72,29.28,3.67,46.51,0c4.08-0.87,7.28-4.57,10.89-7.77l0.08,0.09
				c-3.87,3.47-7.37,8.11-12.08,8.93c-17.02,2.94-33.32-12.02-46.44,0.09c0.59-3.5,0.95-6.9-0.07-10.05
				c-0.6-1.86-1.47-3.43-2.57-4.75C117.28,248.95,118.88,253.58,117.6,258.84z"/>
			<path d="M115.39,261.33c0.39-0.41,0.77-0.8,1.17-1.15c-0.23,1.39-0.5,2.79-0.73,4.2C115.66,263.39,115.51,262.37,115.39,261.33z"
				/>
			<path d="M113.92,245.38c-1.15-1.24-2.52-2.35-4.06-3.31C111.43,242.93,112.79,244.02,113.92,245.38z"/>
			<path d="M109.8,242.03c-7.27-3.95-18.71-2.99-29.85-0.62c-7-8.73-11.3-20.5-17.72-29.88c0-0.42,0-0.83,0-1.25
				c7.46,8.64,10.52,22.21,18.83,29.89C90.9,236.04,102.29,237.33,109.8,242.03z"/>
		</g>
		<g>
			<polyline style="fill:none;stroke:#231F20;stroke-width:7;" points="572.63,71.91 788.28,71.91 788.28,115.42 788.28,164.98 
				788.28,212.38 573.92,212.38 			"/>
			<path style="fill:none;stroke:#231F20;stroke-width:7;" d="M556.7,62.45c-4.07-1.81-6.78-5.07-6.78-8.8
				c0-5.69,6.34-10.31,14.15-10.31c7.81,0,14.14,4.62,14.14,10.31c0,3.64-2.58,6.84-6.49,8.67c-2.21,1.04-4.83,1.64-7.649,1.64
				C561.37,63.96,558.85,63.41,556.7,62.45z"/>
			<polyline style="fill:none;stroke:#231F20;stroke-width:7;" points="556.7,62.17 556.7,62.45 557.11,310.46 			"/>
			<polyline style="fill:none;stroke:#231F20;stroke-width:7;" points="571.72,61.65 571.72,62.32 571.72,71.91 571.72,116.16 
				571.72,164.98 571.72,212.38 571.72,310.46 			"/>
			<line style="fill:none;stroke:#231F20;stroke-width:7;" x1="572.23" y1="116.16" x2="788.21" y2="115.42"/>
			<line style="fill:none;stroke:#231F20;stroke-width:7;" x1="573.71" y1="164.98" x2="787.47" y2="164.98"/>
			<path style="fill:none;stroke:#231F20;stroke-width:7;" d="M380.05,199.08c27.68,0,55.36,0,83.05,0c1.681,3.5,7.9,1.91,8.86,6.22
				c0,4.15,0,8.3,0,12.45c12.91,12.36,32.13,32.64,55.36,28.64c3.979-0.68,7.88-3.65,12.1-5.98"/>
			<path style="fill:none;stroke:#231F20;stroke-width:7;" d="M265.82,655.66c0.24-0.24,0.48-0.49,0.7-0.75"/>
			<path style="fill:none;stroke:#231F20;stroke-width:7;" d="M220.22,656.73c0.63-0.061,1.26-0.091,1.9-0.11"/>
			<path style="fill:none;stroke:#231F20;stroke-width:7;" d="M219.03,656.87c0.27-0.04,0.54-0.07,0.82-0.101"/>
			<path style="fill:none;stroke:#231F20;stroke-width:7;" d="M216.92,657.26c0.33-0.08,0.67-0.149,1.01-0.21"/>
			<path style="fill:none;stroke:#231F20;stroke-width:7;" d="M207.3,662.26c1.43-1.29,2.91-2.319,4.45-3.12"/>
			<path style="fill:none;stroke:#231F20;stroke-width:7;" d="M687.02,689.71c0.141-0.28,0.28-0.56,0.45-0.83
				c1.34-2.49,2.95-4.7,4.8-6.64c0.631-0.681,1.311-1.33,2.011-1.95"/>
			<path style="fill:none;stroke:#231F20;stroke-width:7;" d="M675.52,711.52c1.641-1.84,3.19-3.689,5.591-4.26
				c0.39-0.1,0.8-0.16,1.239-0.18c0.641-6.811,2.21-12.57,4.66-17.35"/>
			<path style="fill:none;stroke:#231F20;stroke-width:7;" d="M675.52,711.52c-6.34,2.211-14.079-1.229-20.85,0.54
				c-10.39,2.71-15.6,17.83-19.93,28.641c-11.8,12.47-23.91,24.58-33.221,39.84c11.021-13.75,21.82-27.76,34.33-39.84
				c4.15-11.46,9.311-25.021,19.931-27.391c4.819-1.079,8.779,3.19,13.279,2.49C672.01,715.34,673.81,713.43,675.52,711.52z"/>
			<path style="fill:none;stroke:#231F20;stroke-width:7;" d="M684.43,693.08c-1.58,4.08-2.66,8.729-3.18,14
				c-0.04,0.06-0.09,0.12-0.14,0.18c-1.66,2.25-3.551,3.55-5.591,4.26"/>
			<line style="fill:none;stroke:#231F20;stroke-width:7;" x1="687.02" y1="689.71" x2="687.01" y2="689.73"/>
			<path style="fill:none;stroke:#231F20;stroke-width:7;" d="M706.72,662.25c0,3.32,0,6.64,0,9.97
				c-4.39,1.44-8.279,3.471-11.62,6.101c-4.659,3.67-8.26,8.55-10.67,14.76"/>
			<path style="fill:none;stroke:#231F20;stroke-width:7;" d="M440.95,379.62c5.59-2.44,10.78-5.31,12.18-12.45
				C443.69,357.96,429.91,372.4,440.95,379.62z"/>
			<path style="fill:none;stroke:#231F20;stroke-width:7;" d="M565.8,774.55c-6.689,4.561-12.25,13.23-19.649,13.46
				c-5.21,0.17-11.45-6.06-16.61-7.47c-33.42-9.13-77.58-10.17-102.99-32.37c-2.72-18.93-10.68-31.99-21.04-42.34
				c-6.51,5.4-18.53-1.61-24.36-4.98c-1.49-17.119-5.03-27.38-13.29-37.35c-4.92-5.95-13.39-7.52-17.71-13.7
				c-6.9-9.819-4.11-23.7-8.86-38.59c-5.72-2.24-10.39-5.67-14.57-9.64c-8.25-7.83-14.62-17.78-23.56-24.851
				c-1.92-1.52-3.97-2.91-6.17-4.109c-6.38,7.34-15.97,11.09-21.04,19.92c2.62,20.52-4.98,38.81-6.64,58.52
				c-0.86,1.49-1.79,2.771-2.79,3.86c-0.22,0.26-0.46,0.51-0.7,0.75c-0.16,0.16-0.32,0.31-0.48,0.45c-0.32,0.3-0.64,0.569-0.97,0.83
				c-0.26,0.21-0.53,0.399-0.8,0.579c-0.24,0.171-0.48,0.33-0.72,0.48c-0.35,0.21-0.7,0.41-1.05,0.59c-0.58,0.3-1.17,0.55-1.77,0.78
				c-0.28,0.1-0.56,0.2-0.84,0.28c-10.61,3.34-24.53-3.42-37.07-3.03c-0.64,0.02-1.27,0.05-1.9,0.11
				c-0.13,0.02-0.25,0.029-0.37,0.039c-0.28,0.03-0.55,0.061-0.82,0.101c-0.37,0.05-0.73,0.11-1.1,0.18
				c-0.34,0.061-0.67,0.13-1.01,0.21c-0.5,0.11-1,0.24-1.49,0.391c-0.18,0.05-0.36,0.109-0.54,0.17c-0.26,0.08-0.52,0.17-0.77,0.27
				c-0.43,0.16-0.85,0.33-1.27,0.521c-0.24,0.109-0.48,0.22-0.72,0.34c-0.12,0.06-0.23,0.109-0.35,0.18"/>
			<path style="fill:none;stroke:#231F20;stroke-width:7;" d="M580.27,772.7c-2.26-0.71-4.71-1.101-7.55-0.87
				c-2.479,0.2-4.75,1.24-6.899,2.71"/>
			<path style="fill:none;stroke:#231F20;stroke-width:7;" d="M597.09,760.66c0.4,6.53,6.771,11.87,4.43,18.64
				c-9.029,1.12-14.119-4.33-21.239-6.6"/>
			<path style="fill:none;stroke:#231F20;stroke-width:7;" d="M585.12,667.99c3.86,4.35,8.52,8.02,10.86,10.45
				c6.579,6.829,12.72,11.1,17.47,17.04c0.79,1,1.55,2.05,2.27,3.17c0.45,0.699,0.88,1.439,1.3,2.199
				c-11.34,10.57-18.8,1.92-32.109,2.49c-1.98,14.67,9.06,13.4,13.28,21.17c4.85,8.91,2.02,16.04,0.13,24.34
				c-0.82,3.62-1.471,7.46-1.23,11.771"/>
			<path style="fill:none;stroke:#231F20;stroke-width:7;" d="M578.97,654.53c-0.319,4.77,2.561,9.399,6.141,13.439"/>
			<path style="fill:none;stroke:#231F20;stroke-width:7;" d="M449.51,338.85c-5.439,2.74-12.39,4.24-17.72,7.53
				c-1.54,0.94-2.94,2.04-4.13,3.35c-0.47,0.52-0.87,1.04-1.22,1.58c-2.84,4.23-2.521,8.99-5.42,14.61
				c13.17,44.96,45.38,68.51,77.51,92.14c5.55,0.841,8.569-1.149,13.29-1.25c11.96,11.971,0.71,57.391-13.29,61.011
				c-13.87,3.59-35.59-12.16-44.29,4.979c5.85,8.74,17.319,3.641,24.359,7.47c8.91,4.851,7.471,18.78,13.29,27.4
				c7.2,10.65,15.431,10.62,27.681,14.94c4.87,12.12,21.819,40.37,34.33,41.09c6.279,0.359,11.449-7.44,18.819-7.47
				c11.62-0.061,20.62,6.71,29.03,14.52c0.35,0.31,0.7,0.64,1.04,0.97c0.69,0.641,1.37,1.29,2.05,1.94
				c-3.85,8.55-1,13.08-6.649,18.67c-5.66,5.62-16.721,2.7-18.82,9.96c-0.22,0.75-0.34,1.49-0.4,2.229"/>
			<path style="fill:none;stroke:#231F20;stroke-width:7;" d="M437.75,303.31c6.51,4.48,18.4,10.33,19.81,16.54
				c2.271,10-1.01,14.88-6.31,18.05c-0.55,0.33-1.13,0.65-1.73,0.95"/>
			<path style="fill:none;stroke:#231F20;stroke-width:7;" d="M427.61,294.38c2.899,2.83,5.81,5.71,8.909,8.04
				c0.381,0.29,0.79,0.58,1.221,0.88"/>
			<path style="fill:none;stroke:#231F20;stroke-width:7;" d="M109.86,242.07c1.54,0.96,2.91,2.07,4.06,3.31
				c3.36,3.57,4.96,8.2,3.68,13.46c12.27-12.72,29.28,3.67,46.51,0c4.08-0.87,7.28-4.57,10.89-7.77c2.35-2.09,4.88-3.96,7.94-4.68
				c10.88-2.56,25.98,0.54,38.75-3.73c7.31-2.45,13.65-9.45,19.94-9.97c15.88-1.29,31.68,10.88,49.83,8.72
				c8.81-1.05,17.01-5.32,25.47-6.23c6.02-0.64,12.8,1.48,18.82,0c3.7-0.91,7.05-2.47,10.16-4.47c4.21-2.72,7.98-6.24,11.54-10.02
				c7.25-7.66,13.7-16.39,21.49-21.61c0.37,0,0.74,0,1.11,0c-4.95,6.88-13.42,9.82-16.61,18.67c2.3,4.05,2.52,10.45,4.42,14.94
				c11.59,4.41,24.03,7.85,26.58,22.42c-2.52,10.26-17.83-1.56-21.04,7.47c-3.62,9.99,8.98,11.47,15.5,13.69
				c8.11,2.76,17.75,5.12,24.37,7.47c5.19,1.85,9.73,6.15,14.28,10.59"/>
			<path style="fill:none;stroke:#231F20;stroke-width:7;" d="M109.8,242.03c-7.27-3.95-18.71-2.99-29.85-0.62
				c-7-8.73-11.3-20.5-17.72-29.88c0-0.42,0-0.83,0-1.25c7.46,8.64,10.52,22.21,18.83,29.89C90.9,236.04,102.29,237.33,109.8,242.03
				z"/>
			<path style="fill:none;stroke:#231F20;stroke-width:7;" d="M221.17,655.32c16.59-0.761,36.56,12.21,47.03-4.271
				c1.78-20.16,9.36-38.49,6.65-59.76c6.89-7.61,15.03-13.81,23.25-19.93c1.37,1.899,3.14,3.62,5.12,5.29
				c4.69,3.949,10.52,7.529,14.81,12.149c3.26,3.5,5.93,10.01,8.77,12.69c1.1,1.029,2.22,1.5,3.41,1
				c-2.53-9.12-7.7-15.681-13.6-21.49c-1.1-1.09-2.23-2.14-3.37-3.18c-6.97-6.38-14.44-12.21-19.57-20.15
				c-3.76-5.83-5.82-12.41-8.64-18.67c-1.31-2.92-2.79-5.77-4.69-8.45c-0.67-0.939-1.39-1.859-2.17-2.76
				c-11.36-1.58-19.58-16.41-33.22-17.44c-19.01-1.43-35.51,13.601-56.48,7.471c-4.86-1.42-9.19-4.16-13.29-6.91
				c-3-2-5.88-4-8.75-5.48c-0.04-0.02-0.07-0.04-0.11-0.06c-6.97-3.561-16.12-4.48-21.03-13.69c0.31-6.699,6.95-6.3,9.96-9.96
				c-2.93-20.21-25.73-51.12-19.93-73.47c1.6-6.15,7.29-9.27,11.07-14.94c15.39-23,17.54-57.73,3.32-88.4
				c-0.04-0.09-0.08-0.17-0.12-0.25c-1.42-3.03-3.09-5.56-4.98-7.75c-6.55-7.64-15.66-11.16-25.9-16.9
				c-4.11-4.89-3.75-10.29-2.88-15.63c0.23-1.41,0.5-2.81,0.73-4.2c0.59-3.5,0.95-6.9-0.07-10.05c-0.6-1.86-1.47-3.43-2.57-4.75
				c-1.13-1.36-2.49-2.45-4.12-3.35c0.02,0.01,0.04,0.02,0.06,0.04"/>
			<line style="fill:none;stroke:#231F20;stroke-width:7;" x1="211.75" y1="659.14" x2="211.78" y2="659.13"/>
			<path style="fill:none;stroke:#231F20;stroke-width:7;" d="M427.55,294.33c-3.72-2.98-7.72-5.78-12.07-8.1
				c-12.61-6.72-50.8-8.48-43.19-27.39c6.37-4.11,16.92,4.14,19.94-3.73c0.91-12.66-14.21-18.05-25.47-21.17
				c-2.03-5.19-1.26-13.53-5.54-16.19c-1.31,0.94-2.56,1.93-3.77,2.94c-4.08,3.4-7.72,7.04-11.54,10.02
				c-3.45,2.68-7.06,4.82-11.27,5.72c-6.27,1.35-12.97-0.9-19.93,0c-7.62,0.98-14.81,5.22-23.25,6.23
				c-19.12,2.27-37.75-10.81-52.05-8.72c-5.58,0.82-11.6,7.63-18.82,9.96c-12.78,4.11-29.19,0.52-39.87,3.74
				c-2.06,0.62-3.89,1.95-5.64,3.52c-3.87,3.47-7.37,8.11-12.08,8.93c-17.02,2.94-33.32-12.02-46.44,0.09
				c-0.4,0.35-0.78,0.74-1.17,1.15c0.12,1.04,0.27,2.06,0.44,3.05c0.96,5.63,2.6,10.5,3.99,15.63c10.05,2.2,18.37,8.35,24.79,16.9
				c1.82,2.4,3.48,5,4.98,7.75c14.47,26.38,14.83,67-2.09,91.14c-28.44,16.54,5.67,62.22,8.86,88.41c-5.07,0.94-9.76,2.3-9.97,8.71
				c7.76,3.91,13.91,8.38,20.04,12.51c2.87,1.94,5.73,3.801,8.75,5.48c4.02,2.26,8.32,4.22,13.29,5.67
				c21.63,6.32,38.91-9.53,57.59-7.47c13.56,1.489,20.69,16.13,32.11,17.43c0.72,1.34,1.44,2.68,2.17,4.01
				c1.54,2.84,3.1,5.66,4.69,8.45c8.18,14.32,17.07,27.84,28.21,38.82c1.1,1.09,2.22,2.149,3.37,3.18c2.56,2.32,5.25,4.51,8.07,6.55
				c6.18-3.64,16.15-4.63,24.36-2.49c5.83,0.44,10.69-13.939,18.82-13.699c5.9,0.18,18.14,18.409,23.26,24.899
				c6.97,8.851,14.55,24.62,19.93,29.891c3.97,3.88,17.82,11.369,22.15,11.199c7.58-0.3,19.13-14.119,24.359-16.18
				c9.08-3.58,21.46-7.63,32.11,3.73c-0.06,17.92,2.521,32.859,5.54,47.319c9.04,6.011,18.65,11.4,24.36,21.17
				c-13.58,17.091,0.91,36.44,8.859,56.021c6.061,14.93,12.271,29.26,18.82,37.359c6.26-6.039,12.26-10.06,18.55-12.22
				c0.01-0.01,0.01-0.01,0.021-0.01c4.59-1.58,9.33-2.17,14.449-1.84c0.011,0,0.011,0,0.011,0c6.37,0.41,13.31,2.229,21.239,5.35
				c-3.77-5.46-4.64-11.34-4.43-17.39c0-0.01,0-0.03,0-0.04c0.13-3.88,0.7-7.82,1.23-11.771c1.189-8.76,2.16-17.529-2.34-25.58
				c-6.761-4.02-12.82-8.829-12.181-21.17c13.36-1.96,22.87,9.931,31.92-3.449c0.061-0.091,0.13-0.19,0.19-0.29
				c-0.79-0.99-1.61-1.95-2.46-2.88c-8.73-9.53-20.69-16.5-28.33-27.49c0-0.01-0.01-0.021-0.01-0.021
				c-2.7-3.88-4.851-8.27-6.141-13.439c0,0,0,0,0-0.011c-0.279-1.119-0.52-2.27-0.71-3.47c4.221-6.05,13.641-6.25,19.931-9.96
				c1.479-6.33,6.399-12.71,4.6-19.37c-0.05-0.189-0.1-0.37-0.16-0.55c-0.3-0.14-0.59-0.28-0.88-0.42
				c-10.4-5.17-19.03-14.4-31.24-13.28c-6.93,0.641-11.569,8.23-17.72,7.471c-11.98-1.471-29.1-29.5-33.22-41.091
				c-14.19-3.619-24.69-7.71-31-21.159c-2.931-6.24-3.11-16.21-7.761-19.921c-8.319-6.659-23.359,2.051-27.68-11.21
				c7.88-14.8,35.21-3.1,48.72-6.229c9.11-11.49,20.021-39.93,9.971-57.271c-4.57-0.159-6.931,2.16-12.181,1.24
				c-33.85-23.359-66.729-47.81-79.729-94.62c1.29-5.45,3.53-9.83,6.53-13.37c1.579-1.87,3.369-3.51,5.35-4.93
				c4.94-3.61,11-5.94,17.72-7.53h0.01c0.461-0.11,0.931-0.22,1.4-0.32c0.11-0.21,0.22-0.42,0.33-0.63
				c2.76-5.28,5.8-10.24,5.2-19.29c-6.07-3.19-12.03-9.07-18.7-15.3c0-0.01-0.01-0.01-0.01-0.01c-3.19-2.98-6.53-6.04-10.13-8.92
				C427.59,294.36,427.57,294.34,427.55,294.33z"/>
		</g>
	</g>
</g>
<rect x="0.25" y="0.25" style="fill:none;" width="850.394" height="850.394"/>
</svg>
