<svg xmlns="http://www.w3.org/2000/svg" width="850.89" height="850.89" viewBox="0 0 850.89 850.89" overflow="visible"><path d="M223.02 627.86c1.35-.86 1.99-1.681 2.27-2.49.28 3.54.7 7.05-2.91 9.08.13-1.55.46-4.18.64-6.59zM223.05 623.65c.14 1.01.09 2.56-.03 4.21-.2.13-.41.26-.64.39.14-1.64.5-3.37.67-4.6zM223.05 623.65c-.14-1.08-.5-1.54-1.23-.83 1.34-1.5 1.45-.77 1.23.83zM225.21 621.9c-.15-1.41.04-2.91 2.14-4.65-1.48 1.3-2.01 2.92-2.14 4.65zM225.29 625.37c-.09-1.17-.17-2.34-.08-3.47.11 1.19.47 2.32.08 3.47z"/><path d="M219.34 534.03c4.56-4.99 5.15-10.55 6.08-15.98 6.61.76 4.01 8.2 1.53 11.41.61 1.93 3.13 1.95 4.56 3.05.41 2.69-2.69 1.87-2.28 4.561 3.38.68 4.89 3.22 5.32 6.85-.58 3.84-2.1-2.4-4.56-1.52.44 7.779 1.8 19.399-3.04 26.619.74 2.561 2.95 3.65 3.8 6.091-.47 2.31-1.69 3.89-4.56 3.8-.01 2.07 3.19 3.57 0 4.57 9.96 3.289 12.7 14.399.76 17.5v4.56c2.12 1.42 6.44.66 6.84 3.8-1.01 2.17-3.38-.58-4.56-.76-2.19.86-2.83 3.27-3.04 6.09.69 1.61 3.05-1.439 5.32-.76-.93 3.12-4.45 3.66-5.32 6.85.83 6.88 1.08 13.17-4.57 15.21.41-4.46.01-8.13-3.8-8.37-.17-2.449 1.34-3.22.76-6.08-2.08-3.489-13.04-1.149-13.7 3.801 1.38 2.75 2.1-1.34 3.81-.761-.68 7.44-7.85 8.391-10.65 13.69-.21 3 .29 5.29 2.28 6.09l-.04.101c-9.2-3.551 3.12-13.54 6.89-16.841-1.77-.59-2.86-.3-3.81-3.04 1.4-6.67 9.23-2.34 12.18-7.609 4.43 2.38 4.15 6.79 3.8 10.649 3.8-.739 4.34-4.619 2.28-4.56.07-.08.14-.16.2-.22.73-.71 1.09-.25 1.23.83-.17 1.229-.53 2.96-.67 4.6.23-.13.44-.26.64-.39-.18 2.409-.51 5.04-.64 6.59 3.61-2.03 3.19-5.54 2.91-9.08.39-1.15.03-2.28-.08-3.47.13-1.73.66-3.351 2.14-4.65.11-.1.23-.2.36-.3-2.52-.78-4.88-1.71-3.81-6.08 1.03.229.63 1.899.76 3.04 1.77-1.53 1.02-5.58 3.81-6.09-.12-1.4-2.58-.46-3.05-1.521-1.29-6.77 5.78-7.96 9.13-12.17-.77-5.82-5.64-7.54-9.89-9.89 1.6-2.38 1.11-2.45.76-6.09 2.95.67 2.71-1.86 4.57-2.28-1.1-1.95-2.24-3.851-3.8-5.32 3.64-9.25 4.26-19.88 2.28-28.149.97-1.04 3.59-1.04 4.56 0 .23-3.53-2.91-3.69-5.32-4.57-.04-2.311 1.6-2.96 2.28-4.561-.61-1.68-3.58-.989-3.8-3.039.84-3.7 3.97-7.99.76-11.421-1 5.57-2.83 11.5-7.61 16.74-2.97.181-3.95-1.63-6.09-2.28.62-6.199-2.86-8.3-5.32-11.409 1.88-6.98 2.31-14.091 2.28-24.351.64-.54 1.21-1.09 1.72-1.63-.39.99-.73 2.04-.96 3.16-1.7 8.16 1.72 15.3-2.28 22.06 5.85 2 2.7 13.02 10.65 12.93z"/><path d="M323.56 804.86a.567.567 0 0 0-.27-.13c.12.04.22.08.27.13zm-25.68.84c-.21-.01-.42-.01-.63-.01-.55 0-1.1 0-1.64-.011-.53.011-1.05 0-1.58-.01h-.09c-.48-.01-.97-.02-1.46-.05h-.11c1.8 2.42-.58 3.11 0 4.56.88 2.24 7.57 5.261 7.61 6.851 3.36.1.57-3.851-.76-3.8.89-.931 5.4 1.819 3.04 4.56-4.79 1.81-7.18-4.85-10.65-6.84.42-1.8-.84-5.29.6-6.07.57 0 1.13 0 1.68-.02-.78-.221-1.32-.19-1.68.02-7.42-.04-16.38-1.81-22.66-4.59-.68-2.45 2.48-1.06 3.04-2.28-.94-3.569-2.59-8.91.76-10.649a.858.858 0 0 0-.16-.48c4.02 1.271 8.6 4.14 9.29 2-.25 3.65 15.31 1.42 16.66 8.43.04.221.07.46.08.7-2.87-6-12.99-4.76-19.02-7.6-1.71 1.76 4.06 2.49 3.04 6.08-4.77-.811-4.06-7.09-9.13-7.61-4.39 1.8 2.12 10.561-3.04 10.65.31.13.61.25.92.37.14.06.28.109.41.159.1.04.19.08.29.11.39.15.77.29 1.15.42.31.11.62.21.93.311.31.109.62.21.93.3.08.03.17.06.26.08.22.069.45.14.67.2l.94.27.35.09c.45.12.89.23 1.34.34.54.13 1.08.25 1.62.36 1.23.27 2.47.49 3.71.69l.59.09c.32.05.65.09.97.14.51.07 1.03.14 1.55.2.03 0 .05 0 .07.01.24.03.49.061.74.08 1.54.18 3.09.32 4.67.43.61.051 1.23.09 1.85.13.06 0 .13.011.2.011 1 .069 2.01.12 3.02.17 1.32.069 2.64.12 3.98.18 1.52.061 3.05.12 4.6.19.15-3.29.17-6.771.1-10.37-.19-12.51-1.37-26.5-1.63-39.08l2.9 5.22-.1.05a6.009 6.009 0 0 0-1.27-1.47c.35 15.11 2.08 28.85 2.28 44.13 8.5-1.28 22.04-2.03 26.62 3.04 3.66-7.649 13.79.33 15.22-9.13-2.35-.01-4.58-.22-6.69-.61 2.98-.25 5.65-1.25 7.45-.149.42 5.63-6.59 12.97-10.46 9.76-3.45 1.87-5.18.47-7.8 3.17.31 2.57 2.95-2.02 2.28 1.53-4.33 1.05-3-2.67-1.52-3.811-4.27-3.489-8.14-.93-12.93-1.52-.05-.01 1.15-1.021 1.94-.91-2.14-.65-12.22-.59-12.59.15-.08.17-3.24.22-4.99 1.43H305.55c-1.46-.271-2.86-.41-4.21-.49a66.02 66.02 0 0 0-3.46-.102z" fill="#fff"/><path d="M308.35 766.82c8.28 11.109 17.19 24.199 31.65 28.76 0 0 0 .01.01 0 .36.3.71.6 1.05.91 1.09.22 2.16.229 3.2.149 2.11.391 4.34.601 6.69.61-1.43 9.46-11.56 1.48-15.22 9.13-4.58-5.07-18.12-4.32-26.62-3.04-.2-15.28-1.93-29.02-2.28-44.13.53.45.95.94 1.27 1.47.98 1.651.98 3.701.25 6.141z" fill="#fff5b4"/><path d="M340 795.58c-14.46-4.561-23.37-17.65-31.65-28.76.73-2.44.73-4.49-.25-6.141l.1-.05 1.61 2.89c-.02.82-.23 1.66-.7 2.54.6 1.681 1.52 3.04 3.8 3.04 3.89 13.971 17.37 18.341 27.09 26.481z" fill="#fff"/><path d="M255.09 739.43c-2.28-5.63 1.31-15.63-2.28-22.819-3.78.779-6.99 2.14-9.13 4.569-4.39-6.609-8.79-13.21-9.36-23.64-.12-2.32-.06-4.82.23-7.55 9.02-2.65 9.3-14.03 13.7-21.311-1.25-2.63-1.96-5.33-2.17-8.02 1 2.649 3.19 4.109 2.93 8.02-1.19 3.63-4.36 5.29-3.05 11.41-5.05 2.05-4 10.2-10.65 10.66-1.78 13.95 4.32 20.02 7.61 28.9 3.42-1.4 5.71-3.931 10.65-3.801 2.56 5.67 1.83 14.771 1.52 21.301 2.91 2.17 5.5 4.649 8.37 6.85 15.21-3.67 34.15-.24 43.37 3.8-6.65-6.97-12.9-19.85-11.42-31.95 1.29-10.449 10.82-12.449 16.74-18.26-.95-7.7.08-13.43 2.23-18.04-2.07 8.34 1.35 13.351-2.23 19.561-4.18 7.27-15.29 6.06-15.98 18.26-.71 12.649 5.55 23.729 12.94 31.95-2.08.71-1.79 3.8-3.05 5.33.84 2.76 3.82 5.59 3.75 8.869l-1.61-2.89-2.9-5.22-1.97-1.55c.65-.021 1.31.189 1.97.79.55-1.73.68-3.891 1.53-5.33-3.11-.25-6.16-.07-9.85-.45l-2.33-1.83c2.45.34 4.12 1.46 6.85 1.52-8.12-7.899-25.48-4.5-38.8-3.8-2.9-1.409-3.58-5.039-7.61-5.329z" fill="#fff"/><path d="M344.26 796.64c-1.04.08-2.11.07-3.2-.149-.34-.311-.69-.61-1.05-.91 1.36.439 2.78.789 4.25 1.059z"/><path d="M304.54 807.9c-1.56-.011-.19-1.57 1.01-1.61h.02c.01 0 .03 0 .05.01-.56.41-.97.92-1.08 1.6z" fill="#fff"/><path d="M305.64 806.29c0 .01-.01.01-.01.01h-.01c-.02-.01-.04-.01-.05-.01h.07zM277.57 801.75c.11.03.23.06.35.09l-.35-.09zM295.03 804.31c-.62-.04-1.24-.079-1.85-.13.61.05 1.23.09 1.85.13zM296.17 135.39c5.99 5.87-.72 17.53-1.52 25.87-8.52 4.41-18.22 7.64-23.58 15.21 1.04 4.04 3.69 6.45 5.32 9.89-7.59 6.17 4.09 20.26-2.28 28.15 1.52 3.8 4.84 5.82 3.81 12.17-2.01.79-4.67.91-7.61.76-2.44 11.84-12.97 21.17-15.22 32.72-1.17 6 .69 11.07-4.56 15.21 3.35 5.02 4.39 12.34 6.08 19.02-9.6 4.91-8.33 16.26-10.6 27.88-2.41-9.83 2.97-24.64 9.08-28.64-.86-7.25-2.61-13.62-6.08-18.26 5.63-4.25 4.07-9.64 5.32-15.97 2.31-11.63 12.92-20.92 15.22-32.72 3.24.45 5.03-.54 7.61-.76.58-5.66-2.49-7.65-3.81-11.41 5.61-10.09-5.22-22.2 1.52-28.91-1.97-3.1-3.99-6.15-5.32-9.89 6.31-6.87 15.62-10.74 24.34-15.21.23-8.29 8.02-20 .76-24.35-5.02.45-8.86 3.46-12.93.76.11-8.22-1.89-14.34-6.85-17.49 1.91-7.83-1.69-9.83-1.52-17.5.64 3.17 4.03 10.16 3.04 17.5 4.51 3.1 6.18 9.03 6.09 16.73 3.56 2.19 7.76-.6 11.41-.76 1.64-1.18 2.86-2.77 3.97-4.48l.06.04a13.39 13.39 0 0 0-1.75 4.44z" fill="#fff"/><path d="M223.9 271.57c3.43 2.93 8.39 16.66 3.89 22.12l-.08-.06c1.61-8.93-.12-16.47-4.57-21.3 1.47-5.74 2.98-11.85 4.38-18.11-.34 6.85 1.12 12.93-3.62 17.35z"/><path d="M474.95 121.7c2.109-6.27 2.72-14.02 4.569-20.54.601 4.92-1.96 13.25-3.05 19.02 6.61 4.54 21.73 7.99 29.67 2.28 4.21 4.43 11.25 3.86 13.7 9.89 3.391 8.37-2.39 23.27 4.561 31.19.89-.12 1.359.17 1.52.76 6.22.64 8.37-2.79 12.94-3.8 11.859 7.48 1.149 25.67-2.29 35.75 1.43 4.33 6.27.79 10.649 1.52 7.5 8.88 3.721 21.33.771 32.72-9.29 5.7-19.23 8.55-27.851 14.26 7.61-6.14 16.181-11.28 27.08-15.02 2.74-9.6 5.82-22.12 0-30.43-6.26 1.75-10.89-1.89-12.17-.76.59 21.92-15.3 25.09-23.58 37.27-1.859-1.69-4.31-2.79-8.37-2.28-2.319.47-1.489 4.09-3.8 4.56-1.13-1.26-2.96-2.1-5.08-2.64l.04-.15c1.681.43 3.351.85 5.04 1.27 1.41-1.38 1.891-3.68 3.8-4.56 3.061.49 6.28.82 8.37 2.28 5.66-9.05 16.601-12.81 21.3-22.82-2.64-19.88 19.841-35.24 6.091-49.45-6.73 2.08-12.16 5.1-15.98 1.52-5.46-5.12-1.28-21.22-3.8-29.67-2.21-7.39-9.79-5.79-12.94-10.65-9.09 6.96-21.48 1.23-31.19-1.52zM322.8 636.73c-5.2-7.721-15.51-13.74-11.41-25.86.92-2.72 3.04-4.89 5.21-7.13-7.48 10.609-4.37 24.31 7.72 32.229 7.53-.68 13.44.261 15.98 4.57-.94 3.94-4.69 9.44-1.52 12.93-6.71 9.91-17.32 15.92-24.2 25.65 5.34-11.01 17.03-15.69 22.67-26.41-2.22-4.04 1.46-7.979 1.53-12.17-3.08-5.139-9.1-2.609-15.98-3.809zM311.19 119.5c1.48-1.65 2.07-4.2 2.48-6.93 3.9 1.93 8.26 3.41 9.89 7.61 5.98-1.55 15.96-.84 22.06 0 3.17 2.91 3.96 8.21 4.57 13.69 2.96-6.43 5.26-13.51 9.89-18.26 8.04 1.34 19.73-.97 23.58 4.57 2.7-5.67 2.13-14.61 6.09-19.02-2.06 6.56-3.26 13.98-5.33 20.54 1.73 2.58 4.64 3.98 8.37 4.56 1.54 14.95 17.24 15.73 22.06 27.39 2.26 1.09 4.58 2.11 7.01 3.03l-.02.06c-2.48-.88-5.05-1.67-7.75-2.33-4.75-11.74-20.37-12.6-22.06-27.39-6.29-.81-9.15-5.05-12.17-9.13-5.9-1.2-13.55-.65-20.54-.76-3.64 6-6.36 12.92-9.13 19.78-1.59-5.51-1.47-12.73-5.33-15.97-6.27-.8-15.16-1.43-21.3 0-2.49-2.84-4.98-5.68-9.13-6.85-.68 2.2-1.83 3.93-3.24 5.41zM303.33 753.86l1.97 1.55c-5.21-.22-7.5 3.09-10.65-.76-3.27 5.58-17.75 11.02-9.13 19.02 4.9 1.09 6.69-4.13 10.65-1.52-.33 6.51-7.91 5.77-9.13 11.409-.61 7.051 14.96 7.261 14.96 11.011 0 .729-.6 1.6-2.02 2.68 4.83-6.41-13.97-4.04-13.7-13.69.17-5.659 6.47-5.27 9.13-9.89-2.32-3.229-8.48 4.34-13.69.76.72-4.1-2.12-11.76 3.04-11.41.13-2.159-2.57-1.489-1.52-4.569 4.3 1.609 8.35.2 8.37-4.561-4.35 1.23-7.55 3.61-12.93 3.801-1.3 8.199-1.19 17.949-1.52 25.109-2.04 1.561-4.05 1.97-6 1.75-2.82-.319-5.52-1.979-8.04-3.46l.05-.08c3.82 2.26 9.65 2.82 13.22 1.03-1.04-6.65.36-11.32.8-17.48a45.15 45.15 0 0 0-.03-6.869c6.67-2.71 16.13-2.631 17.49-10.65l2.33 1.83c-.75-.08-1.52-.18-2.33-.311.97 2.32-2.6 3.881-.76 4.57.05-.47.12-.899.76-.76 1.14 1.14 3.21 1.36 3.81 3.04 1.64-.16 3.25-1.53 4.87-1.55z" fill="#fff"/><path d="M303.33 753.86c-1.62.02-3.23 1.39-4.87 1.55-.6-1.68-2.67-1.9-3.81-3.04-.64-.14-.71.29-.76.76-1.84-.689 1.73-2.25.76-4.57.81.131 1.58.23 2.33.311l6.35 4.989z" fill="#fff"/><path d="M295.41 715.85c-1.48 12.101 4.77 24.98 11.42 31.95-9.22-4.04-28.16-7.47-43.37-3.8-2.87-2.2-5.46-4.68-8.37-6.85.31-6.53 1.04-15.631-1.52-21.301-4.94-.13-7.23 2.4-10.65 3.801-3.29-8.881-9.39-14.95-7.61-28.9 6.65-.46 5.6-8.61 10.65-10.66-1.31-6.12 1.86-7.78 3.05-11.41.26-3.91-1.93-5.37-2.93-8.02-.02-.15-.03-.3-.04-.46 3.15-4.41 1.53-13.57 6.77-15.86-3.69-3.939.82-6.24 1.52-11.41 1.49-10.939-6.12-22.58 2.28-28.91-.32-6.27-8.11-5.079-10.65-9.13 4.11.04 6.94-1.18 10.65-1.52 1.56-1.49.98-5.11 2.29-6.851-2.06-2-6.61-1.51-10.65-1.52.84-7 1.65-13.37-3.05-19.02-.16-2.69 3.57-1.5 3.05-4.561-.63-2.93-6.73-.38-7.61-3.05-.39-6.73.43-12.24.76-18.25 2.5-.04 3.74-1.34 4.56-3.05-4.3-10.891-7.16-28.24-3.04-41.08-.95-1.84-1.88-3.69-2.28-6.08 6.44-4.73 2.64-19.68 11.41-22.07-4.75-11.76-11.57-36.41-2.61-48 1.45-1.88 3.31-3.41 5.65-4.49.8-7 2.98-14.4-3.04-17.5 4.32-11.52 11.7-23.65 8.37-40.32-.25-2.28-4.18-.89-4.56-3.04 4.35-10.7-9.24-15.92-3.81-25.1-2.15-1.99-4.29-3.98-5.88-6.52-.06-.2-.11-.4-.16-.6 2.27-11.62 1-22.97 10.6-27.88-1.69-6.68-2.73-14-6.08-19.02 5.25-4.14 3.39-9.21 4.56-15.21 2.25-11.55 12.78-20.88 15.22-32.72 2.94.15 5.6.03 7.61-.76 1.03-6.35-2.29-8.37-3.81-12.17 6.37-7.89-5.31-21.98 2.28-28.15-1.63-3.44-4.28-5.85-5.32-9.89 5.36-7.57 15.06-10.8 23.58-15.21.8-8.34 7.51-20 1.52-25.87.35-1.71.96-3.17 1.75-4.44 3.09-4.96 8.98-7.13 12.99-11.17.1-.08.19-.18.28-.28 1.41-1.48 2.56-3.21 3.24-5.41 4.15 1.17 6.64 4.01 9.13 6.85 6.14-1.43 15.03-.8 21.3 0 3.86 3.24 3.74 10.46 5.33 15.97 2.77-6.86 5.49-13.78 9.13-19.78 6.99.11 14.64-.44 20.54.76 3.02 4.08 5.88 8.32 12.17 9.13 1.69 14.79 17.31 15.65 22.06 27.39 2.7.66 5.27 1.45 7.75 2.33 17.3 6.22 29.62 17.43 44.74 25.82 3.63-.59 4.9 1.19 8.37.76 1.1 3.47 2.62 6.51 4.569 9.13-3.89 6.25-6.729 13.56-12.939 17.5.729 9.35-4.88 12.37-7.7 18.2-.24.5-.46 1.03-.66 1.58 8.15.41 18.971.15 24.34 5.32 3.25-.51 7.91-.54 11.66.4 2.12.54 3.95 1.38 5.08 2.64 2.311-.47 1.48-4.09 3.8-4.56 4.061-.51 6.511.59 8.37 2.28 8.28-12.18 24.17-15.35 23.58-37.27 1.28-1.13 5.91 2.51 12.17.76 5.82 8.31 2.74 20.83 0 30.43-10.899 3.74-19.47 8.88-27.08 15.02-.02 0-.029.01-.04.03-.09.05-.17.1-.26.16-4.35 2.93-8.72 7.33-13.08 12.27-6.529 6.79-12.95 14.22-20.399 21.97-2.13 2.21-6.17 4.05-7.601 6.08-2.93 4.16-5.979 8.77-9.89 12.93 2.46 8.3-5.14 12.43-3.811 22.07-.01 3.28-3.79 2.8-3.8 6.08.33 2.07.5 4.06.57 6.01.18 5.49-.45 10.7-.57 16.82-2.12.92-4.189 1.89-5.33 3.8.351 12.83-3.08 20.76 0 30.43 8.221 2.95 15.36 6.96 19.021 14.45-1.69 4.4-4.65 7.53-5.32 12.94 4.2 2.76 6.101 7.94 11.41 7.6 2.53 20.03-14.59 20.41-16.74 35.76-10.78 6.149-30.689 12.88-47.93 14.449-3.84.36-9.99 1.301-13.69.771-.33-.05-.66-.12-.98-.2-5.39-1.41-8.83-7.479-15-5.89-1.66 7.489 5.84 8.359 6.09 14.45.22 5.319-12.98 19.189-3.8 25.869-3.48 4.551-9.73 8.29-15.22 9.131-10.15 1.539-18.98-7.82-29.67-6.851 1.71 7.09-.87 17.101.76 23.58 1.63 6.45 8.93 5.19 10.65 10.66.51 0 1.04.01 1.56.02l-.03 1.5c-4 .311-8.1.521-8.37 4.561.86 3.71 5.81 3.319 8.37 5.33-10.32 3.02-16.82 13.399-12.94 28.14-5.32 1.03-5.71 6.97-6.08 12.94-2.64.609-2.93-1.141-5.33-.761-4.52 1.311-6.76 4.9-11.41 6.08-.32.59-.68 1.16-1.07 1.7-.01.01-.01.021-.02.021a25.629 25.629 0 0 0-3.59 4.09c-2.17 2.24-4.29 4.41-5.21 7.13-4.1 12.12 6.21 18.14 11.41 25.86 6.88 1.199 12.9-1.33 15.98 3.81-.07 4.19-3.75 8.13-1.53 12.17-5.64 10.72-17.33 15.4-22.67 26.41l-.15.21c-.02.07-.04.15-.05.22-2.15 4.61-3.18 10.34-2.23 18.04-5.92 5.812-15.45 7.812-16.74 18.262z" fill="#fff5b4"/><path d="M461.26 326.34c.01-3.28 3.79-2.8 3.8-6.08-1.329-9.64 6.271-13.77 3.811-22.07 3.91-4.16 6.96-8.77 9.89-12.93 1.431-2.03 5.471-3.87 7.601-6.08 7.449-7.75 13.87-15.18 20.399-21.97-6.83 7.71-13.649 16.74-20.399 23.49-4.011 4.02-8.07 5.82-10.65 11.41 5.56 1.24 5.76-2.87 9.89-3.05 8.82 3.62 14.131 10.73 16.74 20.55 3.62.07 3.61-3.5 6.851-3.81 3.529 1.78 4.119 6.55 6.84 9.13a31.053 31.053 0 0 0 3.479 2.81c-4.34-2.54-8.319-5.3-9.56-10.42-3.76.31-4.75 3.37-8.37 3.81-2.25-10.43-7.71-17.65-16.74-21.3-3.399 1.55-5.92 4.93-10.649 3.04-3.96 2.59-2.771 6.15-3.801 11.41-.609 3.11-3.909 6.91-4.569 10.65-.45 2.6.529 5.38 0 6.85-.88 2.48-3.36 3.45-3.801 6.08-.239 1.44-.26 2.94-.18 4.49h-.01a49.523 49.523 0 0 0-.572-6.01z" fill="#fff"/><path d="M222.38 295.15c2.73.45 3.68-.88 5.33-1.52l.08.06c-1.01 1.24-2.52 2.06-4.65 2.22.92 13.04 4.28 25.32 6.39 37.31-3.25-11.96-8.84-24.2-7.15-38.07z"/><path fill="#a8d7f4" d="M804.57 166.96v50.24H579.46v-50.24h112.8z"/><path d="M699.33 147.69c.27-.76.41-1.59.41-2.44v-.12a7.186 7.186 0 0 0-.601-2.81 7.424 7.424 0 0 0-6.819-4.5c-.04 0-.07 0-.11.01v-14.41h112.36v43.54H692.26v-14.29h.061a7.38 7.38 0 0 0 5.39-2.32 7.344 7.344 0 0 0 1.619-2.66z" fill="#fff"/><path fill="#a8d7f4" d="M804.57 71.17v52.25H579.46V71.17h.95z"/><path d="M687.14 139.93a7.28 7.28 0 0 1 2.33-1.54 6.997 6.997 0 0 1 2.74-.56c.04-.01.07-.01.11-.01 3.06 0 5.689 1.86 6.819 4.5.38.87.591 1.82.601 2.81v.12c0 .85-.141 1.68-.41 2.44-.35 1-.9 1.91-1.62 2.66a7.38 7.38 0 0 1-5.39 2.32h-.061c-.96-.01-1.87-.2-2.71-.54-.95-.38-1.8-.95-2.5-1.66a7.332 7.332 0 0 1-1.689-2.64 7.31 7.31 0 0 1-.46-2.58c0-1.02.199-1.99.569-2.87.391-.93.961-1.76 1.671-2.45z" fill="#fbed24"/><path d="M689.47 138.39c-.87.36-1.66.88-2.33 1.54a7.423 7.423 0 0 0-1.67 2.45c-.37.88-.569 1.85-.569 2.87 0 .91.159 1.78.46 2.58.37 1 .949 1.9 1.689 2.64.7.71 1.55 1.28 2.5 1.66.84.34 1.75.53 2.71.54v14.29h-112.8v-43.54h112.75V137.83c-.97 0-1.89.2-2.74.56zM627.01 277.07l-.22.17c-2.16 1.25-4.11 2.75-5.9 4.43-.359.35-.72.7-1.08 1.06-.35.36-.71.73-1.05 1.11a49.777 49.777 0 0 0-2.939 3.55 73.641 73.641 0 0 0-3.851 5.63c-.38.6-.75 1.2-1.12 1.82-.189.3-.369.61-.55.92-.34.56-.68 1.13-1.01 1.71-.78 1.34-1.56 2.7-2.33 4.07-.33.58-.67 1.17-1 1.75-.18.31-.36.63-.54.94-.45.8-.91 1.59-1.37 2.37-.09.15-.18.31-.28.47-.34.58-.68 1.15-1.02 1.72-.6.98-1.21 1.96-1.84 2.92-.391.6-.79 1.21-1.2 1.8-.21.3-.41.6-.62.89-.21.3-.42.59-.63.88-.42.58-.86 1.16-1.3 1.72-.22.28-.44.56-.67.84-.45.56-.91 1.11-1.38 1.64-.24.27-.471.54-.721.8-.96 1.06-1.97 2.06-3.04 3.02-6.319 5.66-15.29 9.4-22.069 14.12 5.89-4.77 12.609-8.93 19.029-14.12 15.031-12.18 20.381-35.96 38.701-46.23z" fill="#fff"/><path d="M626.79 277.24l-5.9 4.43c1.79-1.68 3.74-3.18 5.9-4.43zM620.89 281.67c-.37.35-.729.7-1.08 1.06.36-.36.72-.71 1.08-1.06zM619.81 282.73c-.359.36-.71.73-1.05 1.11.34-.38.7-.75 1.05-1.11zM616.77 286.17z"/><path d="M611.97 293.02zM610.3 295.76c-.34.57-.67 1.14-1.01 1.71.33-.58.67-1.15 1.01-1.71zM605.96 303.29c.33-.58.67-1.17 1-1.75-.33.58-.66 1.16-1 1.75zM604.05 306.6c.46-.78.92-1.57 1.37-2.37-.45.79-.91 1.58-1.37 2.37zM603.77 307.07c-.34.57-.68 1.15-1.02 1.72.34-.57.68-1.14 1.02-1.72z" fill="#fff"/><path d="M600.91 311.71a70.312 70.312 0 0 0 0 0zM598.46 315.28c.21-.29.42-.58.63-.88-.2.3-.41.59-.63.88zM596.49 317.84c.229-.28.45-.56.67-.84-.21.29-.44.57-.67.84zM594.39 320.28c.25-.26.48-.53.721-.8-.231.27-.471.54-.721.8z"/><path d="M579.46 61.21c-2.3 1.08-5.02 1.71-7.95 1.71-2.54 0-4.93-.47-7.01-1.3-4.59-1.82-7.7-5.35-7.7-9.43 0-5.92 6.58-10.71 14.71-10.71 8.12 0 14.7 4.79 14.7 10.71 0 3.79-2.69 7.12-6.75 9.02z" fill="#c8c8c8"/><path d="M579.46 217.2v101.95h-15.19l-.76-255.84.99-1.69c2.08.83 4.47 1.3 7.01 1.3 2.931 0 5.65-.63 7.95-1.71V217.2z" fill="#c8c8c8"/><path d="M569.28 337.42c-2.38 1.92-4.62 3.94-6.66 6.17 1.69-2.32 4.01-4.32 6.66-6.17zM562.62 343.59c-.061.08-.12.17-.18.25-3.591 5.1-4.4 12.2-7.61 17.5-17.45 4.94-21.11 29.21-40.32 30.43-7.22.46-12.359-6.44-20.54-1.52-12.149-2.05-15.31-13.09-30.43-12.18-1.71-2.09-2.55-5.05-4.56-6.84-5.73.24-3.12 6.9-2.29 10.65 6.21 4.23 18.6 7.74 19.02 15.97.24 4.71-4.71 6.04-4.56 12.18 3 3.07 4.71 8.02 10.649 6.08 4.7 20.8-13.92 23.17-16.74 38.8-11.05 6.63-32.76 13.56-50.97 15.22-5.03.46-8.96.04-12.42-.86l.03-.1c.32.08.65.15.98.2 3.7.53 9.85-.41 13.69-.771 17.24-1.569 37.149-8.3 47.93-14.449 2.15-15.351 19.271-15.73 16.74-35.76-5.31.34-7.21-4.84-11.41-7.6.67-5.41 3.63-8.54 5.32-12.94-3.66-7.49-10.8-11.5-19.021-14.45-3.08-9.67.351-17.6 0-30.43 1.141-1.91 3.21-2.88 5.33-3.8.12-6.12.75-11.33.57-16.82h.01c.3 5.52 1.98 11.66.18 17.58-2.449.59-4.17 1.91-5.329 3.8.85 5.86-1.931 10.62 0 15.21 3.899 1.43 5.56 5.1 7.609 8.37 11.98-2.33 18.45 10.14 28.91 11.41 3.76.46 8.21-1.4 12.17-.76 3.32.55 5.2 3.13 8.37 3.05 3.52-.1 9.49-2.93 12.17-4.57 6.9-4.2 11.16-12.94 15.98-19.02-2.641-2.18-2.351-7.29-2.28-12.17 1.71-3.55 6.53-4 8.31-7.5.261.23.53.44.82.65-2.13 3.21-6.62 4.04-8.37 7.61-.32 4.88.61 8.52 2.28 11.41 3.53-2.05 6.64-4.51 10.649-6.08 1.713-7.49 5.053-13.07 9.313-17.75z" fill="#fff"/><path d="M547.99 347.64c-.021.04-.04.08-.061.11-.109-.08-.22-.17-.319-.27.13.06.25.11.38.16z"/><path d="M539.62 335.47c3.3 4.12 4.32 8.7 7.99 12.01-2.04-.85-3.761-2.12-4.95-3.64-3.59-4.59-6.12-9.84-9.521-14.7 1.711 2.23 4.461 3.82 6.481 6.33zM532.51 328.26c-.529-.73-1.09-1.45-1.68-2.16.59.65 1.15 1.37 1.68 2.16z" fill="#fff"/><path d="M529.73 324.82c.38.42.75.85 1.1 1.28-3.41-3.88-7.39-5.61-11.32-8.36 3.61 2.1 7.48 4.06 10.22 7.08zM519.84 244.94c.09-.06.17-.11.26-.16-4.71 3.79-9.05 7.97-13.34 12.43 4.36-4.94 8.73-9.34 13.08-12.27z"/><path d="M494.26 235.3l-.04.15c-3.75-.94-8.41-.91-11.66-.4-5.369-5.17-16.189-4.91-24.34-5.32.2-.55.42-1.08.66-1.58l.101.05c12.879 1.24 24.029 4.22 35.279 7.1z" fill="#fff"/><path d="M475.71 182.56c1 3.82 3.14 6.5 4.57 9.89-3.521 6.88-6.851 13.94-12.94 18.26.33 8.94-4.12 13.12-8.359 17.49l-.101-.05c2.82-5.83 8.43-8.85 7.7-18.2 6.21-3.94 9.05-11.25 12.939-17.5-1.949-2.62-3.47-5.66-4.569-9.13-3.47.43-4.74-1.35-8.37-.76-15.12-8.39-27.44-19.6-44.74-25.82l.02-.06a73.85 73.85 0 0 0 14.291 3.82c8.409 6.3 15.09 14.33 26.63 17.49 1.62 1.18 2.83 2.75 4.56 3.81 3.419-.37 5.709.38 8.369.76zM401.7 469.17l-.03.1c-4.55-1.189-8.3-3.22-12.68-5.229-3.07 7.11 4.7 8.15 4.56 14.45-.1 4.479-10.66 17.359-4.51 25.069l-.05.04c-9.18-6.68 4.02-20.55 3.8-25.869-.25-6.091-7.75-6.961-6.09-14.45 6.17-1.591 9.61 4.479 15 5.889z" fill="#fff"/><path d="M389.04 503.56c.21.271.45.54.71.801-2.83 4.09-12 9.29-17.5 9.89-9.29 1.01-17.15-8.2-26.63-7.61-1.8 7.641 1.4 16.851 1.53 25.11 2.53 3.04 7.97 3.18 9.12 7.6 2.33.561 2.24-1.31 4.57-.76.12-2.14-2.15-1.899-3.04-3.04 2.52-1.79 5.76-2.859 9.12-3.8 3.25 1.82.07 10.08 2.29 12.93-1.76 3.311-5.92 4.23-11.41 3.801.44-2.471-.52-3.53-.76-5.32-3.84-.28-7.37-.271-7.61 3.04 1.97 3.35 8.15 2.51 9.13 6.85-12.85 1.62-16.21 12.3-13.7 27.391-5.13.77-6.61 8.13-5.32 12.93-1.82-.46-5.52.95-6.09-.76-4.73 1.359-6.96 5.21-12.17 6.08-.37.31-.72.619-1.07.939.39-.54.75-1.11 1.07-1.7 4.65-1.18 6.89-4.77 11.41-6.08 2.4-.38 2.69 1.37 5.33.761.37-5.971.76-11.91 6.08-12.94-3.88-14.74 2.62-25.12 12.94-28.14-2.56-2.011-7.51-1.62-8.37-5.33.27-4.04 4.37-4.25 8.37-4.561 1.3 1.48 1.32 4.25 2.28 6.08 4.14.59 5.93-1.17 8.37-2.279-.37-3.94.82-9.44-.77-12.171-1.76-1.539-3.24 1.82-6.08 1.521-2.31 1.36 2.81 2.979 0 4.56-.73.79-2.22.82-3.77.79-.52-.01-1.05-.02-1.56-.02-1.72-5.47-9.02-4.21-10.65-10.66-1.63-6.479.95-16.49-.76-23.58 10.69-.97 19.52 8.39 29.67 6.851 5.49-.841 11.74-4.58 15.22-9.131l.05-.043z" fill="#fff"/><path d="M366.92 533.27c1.59 2.73.4 8.23.77 12.171-2.44 1.109-4.23 2.869-8.37 2.279-.96-1.83-.98-4.6-2.28-6.08l.03-1.5c1.55.03 3.04 0 3.77-.79 2.81-1.58-2.31-3.199 0-4.56 2.84.3 4.32-3.06 6.08-1.52z" fill="#fff"/><path d="M320.19 599.65c-1.06 1.47-2.33 2.79-3.59 4.09 1-1.43 2.2-2.8 3.59-4.09zM314.43 679.33l.15-.21c-.07.14-.14.28-.2.43.01-.07.03-.15.05-.22z"/><path d="M310.63 107.24c2.38-.35 3.39.67 3.04 3.05h-3.04v-3.05zM309.11 120.94c.71-.28 1.3-.67 1.8-1.16-4.01 4.04-9.9 6.21-12.99 11.17l-.06-.04c2.78-4.29 4.87-9.28 11.25-9.97zM306.83 813.99c1.09.17.26 2.27 1.52 2.279-4.13 3.091-4.37-4.229-7.61-4.56.69-2.76 2.24-.47 4.56-.76-1.76 1.75 1.41 2.45.76 5.319.9-.118.65-1.388.77-2.278zM306.83 749.32c-.85 1.439-.98 3.6-1.53 5.33-.66-.601-1.32-.811-1.97-.79l-6.35-4.99c3.69.38 6.74.2 9.85.45zM273.19 786.88c-.49-.149-.97-.28-1.43-.38.64-.03 1.18.03 1.43.38zM271.76 786.5c-1.01.05-2.25.34-2.97.1.61-.26 1.34-.31 2.13-.229.27.029.55.069.84.129zM260.42 357.53c3.33 16.67-4.05 28.8-8.37 40.32 6.02 3.1 3.84 10.5 3.04 17.5-2.34 1.08-4.2 2.61-5.65 4.49l-.01-.01c5.28-6.77 9.59-16.42 1.1-21.98 5.59-10.64 10.39-22.06 9.13-39.56-.25-2.28-4.18-.89-4.57-3.04 3.88-9.06-8.38-17.26-4.56-25.86-2.19-1.52-3.59-3.81-4.36-6.52 1.59 2.54 3.73 4.53 5.88 6.52-5.43 9.18 8.16 14.4 3.81 25.1.38 2.15 4.31.76 4.56 3.04z" fill="#fff"/><path d="M258.14 786.6c.93.58.29 1.46-.76 2.271-.21-1.221.71-1.301.76-2.271z"/><path d="M258.9 586.52c-1.31 1.74-.73 5.36-2.29 6.851-3.71.34-6.54 1.56-10.65 1.52 2.54 4.051 10.33 2.86 10.65 9.13-8.4 6.33-.79 17.971-2.28 28.91-.7 5.17-5.21 7.471-1.52 11.41-5.24 2.29-3.62 11.45-6.77 15.86-.31-5.54 1.53-10.931 5.25-15.101-2.18-4.52.76-7.14 1.52-11.409 2.1-11.82-5.91-23.051 3.05-29.671-1.1-6.01-9.53-4.68-12.18-9.13 3.43-1.39 8-1.64 12.18-2.279.59-1.69 1.59-2.971 1.52-5.33-1.31-2.5-6.41-1.2-9.89-1.521.31-8.47 1.32-12.939-3.05-19.779-.97-3 2.22-1.841 2.28-3.801-.55-2.739-5.99-.6-6.84-3.05.26-4.82-.38-10.54.26-14.979.22-1.53.6-2.91 1.21-4.051l.05.021c-.33 6.01-1.15 11.52-.76 18.25.88 2.67 6.98.12 7.61 3.05.52 3.061-3.21 1.87-3.05 4.561 4.7 5.649 3.89 12.02 3.05 19.02 4.04.008 8.59-.482 10.65 1.518z" fill="#fff"/><path d="M257.35 788.9c-2.36 1.8-6.67 3.21 0 0z"/><path d="M249.43 419.83l.01.01c-8.96 11.59-2.14 36.24 2.61 48-8.77 2.391-4.97 17.34-11.41 22.07.4 2.39 1.33 4.24 2.28 6.08-4.12 12.84-1.26 30.189 3.04 41.08-.82 1.71-2.06 3.01-4.56 3.05l-.05-.021c.8-1.489 2.02-2.569 3.85-3.029-8.04-12.931-2.14-35.061-6.08-49.45 8.49-2.41 2.85-18.95 12.17-20.54-4.68-11.55-8.65-23.811-6.85-41.84 1.5-1.35 3.3-3.23 4.99-5.41z" fill="#fff"/><path d="M246.17 322.87c-.08-.11-.14-.22-.21-.33.02-.09.04-.18.05-.27.05.2.1.4.16.6zM246.08 660.66c-.04-.11-.08-.22-.12-.34.03-.04.06-.08.08-.12.01.16.02.31.04.46zM235.31 737.91c2.01 4.08 7.67 4.51 7.61 10.649-4.87 1.9-9.26-2.77-13.69-3.8 3.67-.34 8.91 2.88 12.17 3.8.56-6.13-4.91-6.239-6.85-9.89.24-2.3 2.36-2.71 1.52-6.08-4.5.61-7.85-4.229-8.36-9.89 1.01.76 1.49 2.05 3.04 2.28.57-3.65-4.88-5.221-2.28-8.37-3.49-1.841-5.84-4.811-8.37-7.61-.36-.79 4.13-.16 4.56.76 3.42-4.08.19-5.66 0-11.41-1.9-1.899-5.66-1.939-4.56-6.84 1.71.32.02 4.03 1.52 4.561-.44-6.04.94-17.59-1.52-22.82-.14-1.66.62-2.42 2.28-2.28-1.65-1.29-3.52-5.05-1.52-7.609 3.84.39 6.74 1.729 9.73 2.97.03.04.07.08.1.11-2.7 1.81-4.83-3.261-9.83-1.561-.57 4.12 2.63 4.47 3.8 6.851.13 1.649-2.7.34-3.8.76 4.01 4.35-.37 19.51 3.04 24.34 3.15-1.67.5-9.13 2.29-12.17 4.03 3.21-.69 10.96 3.8 12.93-.02.09-.04.18-.08.25-.63 1.29-3.99-.149-4.49 1.271 2.78 4.47.93 6.88 1.53 12.18-1.9.11-2.36-1.2-3.81-1.53-.31 1.86 3.82 5.8 7.61 6.09-3.56 2.19-1.05 5.5 1.52 7.61 2.13-.41 1.41-3.67 2.28-5.33 6.11 1.24.4 9-5.32 7.61.53 4.029 3.69 5.43 7.61 6.09.36 2.898-.22 4.848-1.53 6.078zM234.55 104.2c6.42.04 1.2 13.79 1.52 25.87.22 8.04 2.15 13.88-4.56 15.97-.69 4.75.44 7.68 3.04 9.13-3.84 9.15-.76 28.45 3.05 37.28-1.64 2.42-4.27 3.85-5.33 6.85 3.66 8.06 2.14 16.24.76 28.14-.44 3.87-1.48 7.89-2.53 11.86.69-3.98 1.3-7.96 1.77-11.86 1.36-11.15 2.03-19.7-.76-29.67 1.34-1.95 3.31-3.28 4.56-5.32-2.5-9.33-6.67-27.74-2.28-36.52-3.53-1.03-3.33-5.8-3.04-10.65 7.52-2.04 3.74-11.57 4.56-22.82.73-10.02 3.95-13.9-.76-18.26zM229.53 333.22c1.59 5.84 2.62 11.61 1.98 17.47-.06.55-.14 1.1-.23 1.64.16-6.34-.61-12.68-1.75-19.11z"/><path d="M230.69 666.44c.02-.011.04-.03.06-.04-.05-.021-.11-.04-.16-.07-1.27-1.32-2.43-3.19-1.36-6.01-2.54-.011-2.6 2.47-5.33 2.279-3.45-1.869-4.84-5.81-7.61-8.369.19-.561.41-1.08.65-1.58l.12.06c-.22 2.75 3.33 1.74 4.56 3.04-3.18 1.58.56 4.85 3.04 5.33 3.04.49 2.18-2.9 2.29-5.33 3.37 3.34 4.12 8.91 5.32 12.17-.4-.41-.99-.88-1.58-1.48z"/><path d="M230.75 666.4c-.02.01-.04.029-.06.04-.03-.03-.07-.07-.1-.11.05.03.11.05.16.07zM227.71 251.79c.47-3.94 1.64-8.18 2.79-12.49-.88 4.99-1.9 10-2.98 14.92.03-.8.09-1.61.19-2.43zM226.19 374.27c.3 1.47 2.94.6 2.28 3.04-1-.27-1.2-1.34-2.28-1.52-1.39.9-.6 3.97-1.53 5.33 1.01.98 2.83 1 3.05-.76 2.24 1.09-.91 3.06-3.05 2.28v6.08c-6.61 12.67-4.96 33.58-13.69 44.129v9.131h-6.09c-2 8.949 8.04 16.739 3.81 25.859 1.22 5.92 6.81 8.76 7.6 14.46.36 2.54-.27 4.74-1.24 6.91.62-6.99-5.85-13.99-7.12-20.61-.46-2.399.97-5.399.76-7.6-.65-6.84-6.58-12.38-5.33-19.78 2.38-.16 5.59.511 6.85-.76-.81-3.17-.2-3.36 0-6.85 7.83-16.12 10.79-37.43 14.45-56.3-.67-2.05-2.12 1.32-1.52 3.05-1.81-1.38-.17-5.71 2.28-5.33.34-8.62 4.57-15.31 5.86-22.7-.18 7.291-1.58 14.561-5.09 21.941zM223.9 744c1.59 2.74-2.41-3.45-2.28-1.52-1.7-.11.99-1.921 0-3.811-.6-2.339 1.49 4.161 2.28 5.331zM223.14 645.1c-.84 3.721-4.62 4.511-6.08 7.61l-.12-.06c3-6.41 8.53-8.181-1.4-12.881-1.23 4.311-10.72 2.49-9.14-3.039-1.55.729-3.01 1.56-4.56 2.279.46 1.83 1.09 3.48.76 6.09-.89-.18-1.66-.399-2.32-.659l.04-.101c1.71-.57.3-4.27.76-6.09 2.85-.7 4-3.1 6.85-3.8-1.23 4.45-.11 6.64 4.56 6.85 2.71 1.181.46-2.59 2.28-2.29 4.62.201 6.03 3.611 8.37 6.091zM219.34 613.15c.38.13 2.01 4.89-1.52 4.56v-2.28c.74.021.59.931.76 1.521.74-.021.59-.931.76-1.521-.17-1.1-2.27-.26-2.28-1.52-2.51-1.87 2.25 1.56 2.28-.76zM216.29 602.5c2.39-.85 10.57.38-.75 2.28-2.52 1.92 1.88-2.65 0-2.28.14-.87.76-.42.75 0zM217.15 704.74c-.03.14-.06.279-.08.42.06-.13.08-.28.08-.42zm0-.02c.95-4.84 2.26-3.34.67 1.24-1.76.23-.85-2.2-2.28-2.28 0-1.57 1.6-.17 1.61 1.04zM215.05 489.21c-.18 2.23-1.09 4.45-3.12 6.67.93-2.42 2.18-4.53 3.12-6.67z"/><g fill="none" stroke="#231f20"><path stroke-width="7" d="M580.41 71.17h224.16V217.2H581.74M564.5 61.62c-4.59-1.82-7.7-5.35-7.7-9.43 0-5.92 6.58-10.71 14.71-10.71 8.12 0 14.7 4.79 14.7 10.71 0 3.79-2.69 7.12-6.75 9.02-2.3 1.08-5.02 1.71-7.95 1.71-2.54 0-4.93-.47-7.01-1.3zM563.51 63.31l.76 255.84M579.46 60.51v258.64M580.18 123.42h224.39M581.3 166.96h224.39"/><path d="M699.74 145.13v.12c0 .85-.141 1.68-.41 2.44-.35 1-.9 1.91-1.62 2.66a7.38 7.38 0 0 1-5.39 2.32h-.061c-.96-.01-1.87-.2-2.71-.54-.95-.38-1.8-.95-2.5-1.66a7.332 7.332 0 0 1-1.689-2.64 7.31 7.31 0 0 1-.46-2.58c0-1.02.199-1.99.569-2.87.391-.93.96-1.76 1.67-2.45a7.28 7.28 0 0 1 2.33-1.54 6.997 6.997 0 0 1 2.74-.56c.04-.01.07-.01.11-.01 3.06 0 5.689 1.86 6.819 4.5.382.87.592 1.82.602 2.81z" stroke-width="5.359"/><path stroke-width="2.679" stroke-linecap="round" stroke-linejoin="round" d="M692.21 128.61v9.16M685.77 130.07l3.7 8.32.02.04M680.32 133.8l6.82 6.13.1.08M677.08 139.1l8.39 3.28.23.09M686.05 159.99l3.5-7.86.22-.5M680.6 156.26l6.45-5.79.47-.42M677.37 150.95l7.99-3.12.62-.24M692.26 152.45v9.15M685.28 145.25h-9.15M698.99 129.96l-3.71 8.36M704.45 133.69l-6.92 6.21M707.68 138.99l-8.54 3.33-.08.03M698.72 159.88l-3.47-7.81-.25-.55M704.17 156.15l-6.46-5.8-.46-.42M707.41 150.84l-8.08-3.15-.54-.21M699.48 145.13h9.16"/><path d="M313.67 110.29h-3.04v-3.05c2.38-.35 3.39.67 3.04 3.05zM547.61 347.48c.13.06.25.11.38.16-.021.04-.04.08-.061.11M519.51 317.74c3.61 2.1 7.48 4.06 10.221 7.08.38.42.75.85 1.1 1.28M340.01 795.58c1.36.439 2.78.79 4.25 1.06M308.1 760.68c.98 1.65.98 3.7.25 6.141 8.28 11.109 17.19 24.199 31.65 28.76" stroke-width="7"/><path d="M305.3 810.95c-1.76 1.75 1.41 2.45.76 5.319.9-.119.65-1.39.77-2.279 1.09.17.26 2.27 1.52 2.279-4.13 3.091-4.37-4.229-7.61-4.56.69-2.759 2.24-.469 4.56-.759zM295.23 804.32c1 .069 2.01.12 3.02.17M293.18 804.18c.61.051 1.23.09 1.85.13" stroke-width="3"/><path d="M287.77 803.67c.24.03.49.061.74.08M286.15 803.46c.51.07 1.03.14 1.55.2M284.59 803.23l.59.09M279.26 802.18c.54.13 1.08.25 1.62.36" stroke-width="7"/><path d="M277.57 801.75c.11.03.23.06.35.09" stroke-width="3"/><path d="M275.96 801.28c.22.069.45.14.67.2M274.77 800.9c.31.109.62.21.93.3M272.69 800.17c.39.15.77.29 1.15.42M271.99 799.9c.14.06.28.109.41.159M293.94 805.67c-.48-.01-.97-.02-1.46-.05M295.61 805.68c-.53.011-1.05 0-1.58-.01M297.88 805.7c-.21-.01-.42-.01-.63-.01M305.55 806.29c-1.46-.271-2.86-.41-4.21-.49M305.62 806.3c-.02-.01-.04-.01-.05-.01" stroke-width="7"/><path d="M323.22 804.71c-2.14-.65-12.22-.59-12.59.15-.08.17-3.24.22-4.99 1.43 0 .01-.01.01-.01.01h-.01c-.56.41-.97.92-1.08 1.601-1.56-.011-.19-1.57 1.03-1.61-.01 0-.01 0 0 0h.07c.15.01.28.04.42.09-.14-.03-.29-.05-.43-.08M323.29 804.73c.1.02.19.06.27.13-.05-.05-.15-.09-.27-.13z" stroke-width="7"/><path d="M312.91 769.1c3.89 13.971 17.37 18.341 27.09 26.48 0 0 0 .01.01 0 .36.3.71.6 1.05.91 1.09.22 2.16.229 3.2.149 2.98-.25 5.65-1.25 7.45-.149.42 5.63-6.59 12.97-10.46 9.76-3.45 1.87-5.18.47-7.8 3.17.31 2.57 2.95-2.02 2.28 1.53-4.33 1.05-3-2.67-1.52-3.811-4.27-3.489-8.14-.93-12.93-1.52-.05-.01 1.15-1.021 2.01-.89-.02-.011-.04-.011-.07-.021M595.11 319.48c-.23.27-.471.54-.721.8M597.16 317c-.21.29-.44.57-.67.84M599.09 314.4c-.2.3-.41.59-.63.88M600.91 311.71c-.391.6-.79 1.2-1.2 1.8M616.77 286.17c-.319.4-.64.81-.949 1.22M620.89 281.67c-.37.35-.729.7-1.08 1.06-.359.36-.71.73-1.05 1.11M520.14 244.75c7.61-6.14 16.181-11.28 27.08-15.02 2.74-9.6 5.82-22.12 0-30.43-6.26 1.75-10.89-1.89-12.17-.76.59 21.92-15.3 25.09-23.58 37.27-1.859-1.69-4.31-2.79-8.37-2.28-2.319.47-1.489 4.09-3.8 4.56-1.13-1.26-2.96-2.1-5.08-2.64-3.75-.94-8.41-.91-11.66-.4-5.369-5.17-16.189-4.91-24.34-5.32.2-.55.42-1.08.66-1.58 2.82-5.83 8.43-8.85 7.7-18.2 6.21-3.94 9.05-11.25 12.939-17.5-1.949-2.62-3.47-5.66-4.569-9.13-3.47.43-4.74-1.35-8.37-.76-15.12-8.39-27.44-19.6-44.74-25.82-2.48-.88-5.05-1.67-7.75-2.33-4.75-11.74-20.37-12.6-22.06-27.39-6.29-.81-9.15-5.05-12.17-9.13-5.9-1.2-13.55-.65-20.54-.76-3.64 6-6.36 12.92-9.13 19.78-1.59-5.51-1.47-12.73-5.33-15.97-6.27-.8-15.16-1.43-21.3 0-2.49-2.84-4.98-5.68-9.13-6.85-.68 2.2-1.83 3.93-3.24 5.41M320.21 599.63c.39-.54.75-1.11 1.07-1.7 4.65-1.18 6.89-4.77 11.41-6.08 2.4-.38 2.69 1.37 5.33.761.37-5.971.76-11.91 6.08-12.94-3.88-14.74 2.62-25.12 12.94-28.14-2.56-2.011-7.51-1.62-8.37-5.33.27-4.04 4.37-4.25 8.37-4.561 1.3 1.48 1.32 4.25 2.28 6.08 4.14.59 5.93-1.17 8.37-2.279-.37-3.94.82-9.44-.77-12.171-1.76-1.539-3.24 1.82-6.08 1.521-2.31 1.36 2.81 2.979 0 4.56-.73.79-2.22.82-3.77.79-.52-.01-1.05-.02-1.56-.02-1.72-5.47-9.02-4.21-10.65-10.66-1.63-6.479.95-16.49-.76-23.58 10.69-.97 19.52 8.39 29.67 6.851 5.49-.841 11.74-4.58 15.22-9.131-9.18-6.68 4.02-20.55 3.8-25.869-.25-6.091-7.75-6.961-6.09-14.45 6.17-1.59 9.61 4.479 15 5.89.32.08.65.15.98.2 3.7.53 9.85-.41 13.69-.771 17.24-1.569 37.149-8.3 47.93-14.449 2.15-15.351 19.271-15.73 16.74-35.76-5.31.34-7.21-4.84-11.41-7.6.67-5.41 3.63-8.54 5.32-12.94-3.66-7.49-10.8-11.5-19.021-14.45-3.08-9.67.351-17.6 0-30.43 1.141-1.91 3.21-2.88 5.33-3.8.12-6.12.75-11.33.57-16.82-.07-1.95-.24-3.94-.57-6.01.01-3.28 3.79-2.8 3.8-6.08-1.329-9.64 6.271-13.77 3.811-22.07 3.91-4.16 6.96-8.77 9.89-12.93 1.431-2.03 5.471-3.87 7.601-6.08 7.449-7.75 13.87-15.18 20.399-21.97 4.29-4.46 8.63-8.64 13.34-12.43" stroke-width="7"/><path d="M310.91 119.78c-4.01 4.04-9.9 6.21-12.99 11.17a13.39 13.39 0 0 0-1.75 4.44c5.99 5.87-.72 17.53-1.52 25.87-8.52 4.41-18.22 7.64-23.58 15.21 1.04 4.04 3.69 6.45 5.32 9.89-7.59 6.17 4.09 20.26-2.28 28.15 1.52 3.8 4.84 5.82 3.81 12.17-2.01.79-4.67.91-7.61.76-2.44 11.84-12.97 21.17-15.22 32.72-1.17 6 .69 11.07-4.56 15.21 3.35 5.02 4.39 12.34 6.08 19.02-9.6 4.91-8.33 16.26-10.6 27.88-.01.09-.03.18-.05.27.07.11.13.22.21.33 1.59 2.54 3.73 4.53 5.88 6.52-5.43 9.18 8.16 14.4 3.81 25.1.38 2.15 4.31.76 4.56 3.04 3.33 16.67-4.05 28.8-8.37 40.32 6.02 3.1 3.84 10.5 3.04 17.5-2.34 1.08-4.2 2.61-5.65 4.49-8.96 11.59-2.14 36.24 2.61 48-8.77 2.391-4.97 17.34-11.41 22.07.4 2.39 1.33 4.24 2.28 6.08-4.12 12.84-1.26 30.189 3.04 41.08-.82 1.71-2.06 3.01-4.56 3.05-.33 6.01-1.15 11.52-.76 18.25.88 2.67 6.98.12 7.61 3.05.52 3.061-3.21 1.87-3.05 4.561 4.7 5.649 3.89 12.02 3.05 19.02 4.04.01 8.59-.48 10.65 1.52-1.31 1.74-.73 5.36-2.29 6.851-3.71.34-6.54 1.56-10.65 1.52 2.54 4.051 10.33 2.86 10.65 9.13-8.4 6.33-.79 17.971-2.28 28.91-.7 5.17-5.21 7.471-1.52 11.41-5.24 2.29-3.62 11.45-6.77 15.86-.02.04-.05.08-.08.12.04.12.08.229.12.34 1 2.649 3.19 4.109 2.93 8.02-1.19 3.63-4.36 5.29-3.05 11.41-5.05 2.05-4 10.2-10.65 10.66-1.78 13.95 4.32 20.02 7.61 28.9 3.42-1.4 5.71-3.931 10.65-3.801 2.56 5.67 1.83 14.771 1.52 21.301 2.91 2.17 5.5 4.649 8.37 6.85 15.21-3.67 34.15-.24 43.37 3.8-6.65-6.97-12.9-19.85-11.42-31.95 1.29-10.449 10.82-12.449 16.74-18.26-.95-7.7.08-13.43 2.23-18.04.06-.149.13-.29.2-.43 5.34-11.01 17.03-15.69 22.67-26.41-2.22-4.04 1.46-7.979 1.53-12.17-3.08-5.14-9.1-2.61-15.98-3.81-5.2-7.721-15.51-13.74-11.41-25.86.92-2.72 3.04-4.89 5.21-7.13 1.26-1.3 2.53-2.62 3.59-4.09M296.98 748.87c-.75-.08-1.52-.18-2.33-.311.97 2.32-2.6 3.881-.76 4.57.05-.47.12-.899.76-.76 1.14 1.14 3.21 1.36 3.81 3.04 1.64-.16 3.25-1.53 4.87-1.55.65-.021 1.31.189 1.97.79.55-1.73.68-3.891 1.53-5.33-3.11-.249-6.16-.069-9.85-.449z" stroke-width="7"/><path d="M312.91 769.1c-2.28 0-3.2-1.359-3.8-3.04.47-.88.68-1.72.7-2.54.07-3.279-2.91-6.109-3.75-8.869 1.26-1.53.97-4.62 3.05-5.33-7.39-8.221-13.65-19.301-12.94-31.95.69-12.2 11.8-10.99 15.98-18.26 3.58-6.21.16-11.221 2.23-19.561.01-.069.03-.149.05-.22l.15-.21c6.88-9.73 17.49-15.74 24.2-25.65-3.17-3.489.58-8.989 1.52-12.93-2.54-4.31-8.45-5.25-15.98-4.57-12.09-7.92-15.2-21.62-7.72-32.229 1-1.431 2.2-2.8 3.59-4.09.01 0 .01-.011.02-.021.35-.32.7-.63 1.07-.939 5.21-.87 7.44-4.721 12.17-6.08.57 1.71 4.27.3 6.09.76-1.29-4.8.19-12.16 5.32-12.93-2.51-15.091.85-25.771 13.7-27.391-.98-4.34-7.16-3.5-9.13-6.85.24-3.311 3.77-3.32 7.61-3.04.24 1.79 1.2 2.85.76 5.32 5.49.43 9.65-.49 11.41-3.801-2.22-2.85.96-11.109-2.29-12.93-3.36.94-6.6 2.01-9.12 3.8.89 1.141 3.16.9 3.04 3.04-2.33-.55-2.24 1.32-4.57.76-1.15-4.42-6.59-4.56-9.12-7.6-.13-8.26-3.33-17.47-1.53-25.11 9.48-.59 17.34 8.62 26.63 7.61 5.5-.6 14.67-5.8 17.5-9.89-.26-.261-.5-.53-.71-.801-6.15-7.71 4.41-20.59 4.51-25.069.14-6.3-7.63-7.34-4.56-14.45 4.38 2.01 8.13 4.04 12.68 5.229 3.46.9 7.39 1.32 12.42.86 18.21-1.66 39.92-8.59 50.97-15.22 2.82-15.63 21.44-18 16.74-38.8-5.939 1.94-7.649-3.01-10.649-6.08-.15-6.14 4.8-7.47 4.56-12.18-.42-8.23-12.81-11.74-19.02-15.97-.83-3.75-3.44-10.41 2.29-10.65 2.01 1.79 2.85 4.75 4.56 6.84 15.12-.91 18.28 10.13 30.43 12.18 8.181-4.92 13.32 1.98 20.54 1.52 19.21-1.22 22.87-25.49 40.32-30.43 3.21-5.3 4.02-12.4 7.61-17.5.06-.08.119-.17.18-.25 1.689-2.32 4.01-4.32 6.66-6.17 6.779-4.72 15.75-8.46 22.069-14.12 1.07-.96 2.08-1.96 3.04-3.02.25-.26.48-.53.721-.8.47-.53.93-1.08 1.38-1.64a56.935 56.935 0 0 0 1.97-2.56c.21-.29.42-.58.63-.88.21-.29.41-.59.62-.89.41-.59.81-1.2 1.2-1.8.63-.96 1.24-1.94 1.84-2.92.34-.57.68-1.15 1.02-1.72.101-.16.19-.32.28-.47.46-.79.92-1.58 1.37-2.37.18-.31.36-.63.54-.94.34-.59.67-1.17 1-1.75.771-1.37 1.55-2.73 2.33-4.07.34-.57.67-1.14 1.01-1.71.181-.31.36-.62.55-.92.37-.61.74-1.22 1.12-1.82a73.354 73.354 0 0 1 3.851-5.63 51.01 51.01 0 0 1 2.939-3.55c.34-.38.7-.75 1.05-1.11.36-.36.721-.71 1.08-1.06 1.79-1.68 3.74-3.18 5.9-4.43 2.57-1.51 5.43-2.67 8.68-3.39.92-4.66 2.8-8.36 4.83-11.9" stroke-width="7"/><path d="M292.21 804.88c-1.44.78-.18 4.271-.6 6.07 3.47 1.99 5.86 8.649 10.65 6.84 2.36-2.74-2.15-5.49-3.04-4.56 1.33-.051 4.12 3.899.76 3.8-.04-1.59-6.73-4.61-7.61-6.851-.58-1.449 1.8-2.14 0-4.56h.11c.49.03.97.04 1.46.05h.09c.52.01 1.05.021 1.58.01.54.011 1.09.011 1.64.011.21 0 .42 0 .63.01 1.13.01 2.28.03 3.46.1M292.21 804.88c.57 0 1.13 0 1.68-.02-.78-.22-1.32-.19-1.68.02z" stroke-width="3"/><path d="M298.25 804.49c-1.01-.05-2.02-.11-3.02-.17-.07 0-.14-.011-.2-.011-.62-.04-1.24-.079-1.85-.13-1.58-.109-3.13-.25-4.67-.43-.25-.02-.49-.05-.74-.08-.02-.01-.04-.01-.07-.01-.52-.061-1.03-.13-1.55-.2-.32-.05-.65-.09-.97-.14-.2-.03-.39-.061-.59-.09a68.15 68.15 0 0 1-3.71-.69c-.54-.11-1.08-.23-1.62-.36-.45-.109-.89-.22-1.34-.34l-.35-.09-.94-.27c-.23-.061-.45-.131-.67-.2-.09-.021-.18-.05-.26-.08-.31-.09-.62-.19-.93-.3-.31-.101-.62-.2-.93-.311-.39-.13-.77-.27-1.15-.42-.1-.03-.19-.07-.29-.11-.14-.05-.27-.1-.41-.159-.31-.12-.61-.24-.92-.37 5.16-.09-1.35-8.851 3.04-10.65 5.07.521 4.36 6.8 9.13 7.61 1.02-3.59-4.75-4.32-3.04-6.08 6.03 2.84 16.15 1.6 19.02 7.6-.01-.24-.04-.479-.08-.7-1.35-7.01-16.91-4.779-16.66-8.43-.69 2.14-5.27-.729-9.29-2-.49-.149-.97-.28-1.43-.38-.29-.06-.57-.1-.84-.13-.79-.08-1.52-.03-2.13.229.72.24 1.96-.05 2.97-.1.64-.03 1.18.03 1.43.38.09.12.15.28.16.48-3.35 1.739-1.7 7.08-.76 10.649-.56 1.221-3.72-.17-3.04 2.28 6.28 2.78 15.24 4.55 22.66 4.59" stroke-width="3"/><path d="M302.23 804.67c-1.34-.06-2.66-.11-3.98-.18M305.3 755.41c.26 12.58 1.44 26.57 1.63 39.08.07 3.6.05 7.08-.1 10.37-1.55-.07-3.08-.13-4.6-.19" stroke-width="7"/><path d="M294.65 747.04c-1.36 8.02-10.82 7.94-17.49 10.65.21 2.55.17 4.8.03 6.869-.44 6.16-1.84 10.83-.8 17.48-3.57 1.79-9.4 1.229-13.22-1.03-2.78-1.63-4.49-4.16-3.51-7.34 3.67 1.32 8.46-5.13 12.17-8.37-4.57 2.29-9.39 8.351-14.45 7.61v-3.811c5.72-.859 9.39-3.79 12.93-6.84-4.9 1.69-7.47 5.721-13.7 6.08-.35 3.28-.72 7.7-.75 9.13-1.61-1.18-4.22-1.359-4.57-3.8 1.19-.07 2.64.1 2.28-1.52-6.99-9.641 9.06-10.92 14.46-15.221-5.49-2.26-12.05.511-16.74 1.521 1.08 4.069-1.33 7.97-3.8 10.649-4.73-.47-.34-5.34-1.53-9.13-1.94-.58-3.49 2.98-4.56.771 2.44-8.87-8.11-11.57-12.24-15.9-.7-.729-1.21-1.5-1.45-2.359-.6 3.38-.29 6.489-3.81 8.369 3.5.271 2.15-1.3 4.57-3.05 2.28 1.271 5.69 1.41 6.84 3.811-5.41-1.99 1.04 3.159-1.52 4.56-2.86-.43-.84-5.75-4.56-5.32.66 4.32 4.64 7.57 6.84 6.08-.63 1.65-1.97 2.601-1.52 5.33 3.12 2.561 7.69.351 9.89.76.61 2.641-1.13 2.921-.76 5.32 2.87 1.8 3.37 6.73 6.85 9.13 2.33 1.61 4.71.33 8.37 1.521 1.34.439 2.75 1.24 4.22 2.1 2.52 1.48 5.22 3.141 8.04 3.46 1.95.22 3.96-.189 6-1.75.33-7.16.22-16.91 1.52-25.109 5.38-.19 8.58-2.57 12.93-3.801-.02 4.761-4.07 6.17-8.37 4.561-1.05 3.08 1.65 2.41 1.52 4.569-5.16-.35-2.32 7.311-3.04 11.41 5.21 3.58 11.37-3.989 13.69-.76-2.66 4.62-8.96 4.23-9.13 9.89-.27 9.65 18.53 7.28 13.7 13.69 1.42-1.08 2.02-1.95 2.02-2.68 0-3.75-15.57-3.96-14.96-11.011 1.22-5.64 8.8-4.899 9.13-11.409-3.96-2.61-5.75 2.609-10.65 1.52-8.62-8 5.86-13.439 9.13-19.02 3.15 3.85 5.44.54 10.65.76" stroke-width="3"/><path d="M627.01 277.07c-18.319 10.27-23.67 34.05-38.7 46.23-6.42 5.19-13.14 9.35-19.029 14.12-2.38 1.92-4.62 3.94-6.66 6.17-4.26 4.68-7.601 10.26-9.311 17.75-4.01 1.57-7.119 4.03-10.649 6.08-1.67-2.89-2.601-6.53-2.28-11.41 1.75-3.57 6.24-4.4 8.37-7.61-.29-.21-.56-.42-.82-.65-.109-.08-.22-.17-.319-.27-3.67-3.31-4.69-7.89-7.99-12.01-2.021-2.51-4.771-4.1-6.48-6.33-.13-.17-.25-.34-.37-.51-.079-.13-.17-.25-.26-.37a18.63 18.63 0 0 0-1.68-2.16c-3.41-3.88-7.39-5.61-11.32-8.36-1.17-.82-2.33-1.73-3.479-2.81-2.721-2.58-3.311-7.35-6.84-9.13-3.24.31-3.23 3.88-6.851 3.81-2.609-9.82-7.92-16.93-16.74-20.55-4.13.18-4.33 4.29-9.89 3.05 2.58-5.59 6.64-7.39 10.65-11.41 6.75-6.75 13.569-15.78 20.399-23.49 4.36-4.94 8.73-9.34 13.08-12.27.09-.06.17-.11.26-.16.011-.02.021-.03.04-.03 8.62-5.71 18.561-8.56 27.851-14.26 2.95-11.39 6.729-23.84-.771-32.72-4.38-.73-9.22 2.81-10.649-1.52 3.439-10.08 14.149-28.27 2.29-35.75-4.57 1.01-6.721 4.44-12.94 3.8-.16-.59-.63-.88-1.52-.76-6.95-7.92-1.17-22.82-4.561-31.19-2.45-6.03-9.49-5.46-13.7-9.89-7.939 5.71-23.06 2.26-29.67-2.28 1.09-5.77 3.65-14.1 3.05-19.02-1.85 6.52-2.46 14.27-4.569 20.54 9.71 2.75 22.1 8.48 31.189 1.52 3.15 4.86 10.73 3.26 12.94 10.65 2.52 8.45-1.66 24.55 3.8 29.67 3.82 3.58 9.25.56 15.98-1.52 13.75 14.21-8.73 29.57-6.091 49.45-4.699 10.01-15.64 13.77-21.3 22.82-2.09-1.46-5.31-1.79-8.37-2.28-1.909.88-2.39 3.18-3.8 4.56a772.84 772.84 0 0 1-5.04-1.27c-11.25-2.88-22.399-5.86-35.279-7.1 4.239-4.37 8.689-8.55 8.359-17.49 6.09-4.32 9.42-11.38 12.94-18.26-1.431-3.39-3.57-6.07-4.57-9.89-2.66-.38-4.95-1.13-8.37-.76-1.729-1.06-2.939-2.63-4.56-3.81-11.54-3.16-18.221-11.19-26.63-17.49a73.89 73.89 0 0 1-14.291-3.82c-2.43-.92-4.75-1.94-7.01-3.03-4.82-11.66-20.52-12.44-22.06-27.39-3.73-.58-6.64-1.98-8.37-4.56 2.07-6.56 3.27-13.98 5.33-20.54-3.96 4.41-3.39 13.35-6.09 19.02-3.85-5.54-15.54-3.23-23.58-4.57-4.63 4.75-6.93 11.83-9.89 18.26-.61-5.48-1.4-10.78-4.57-13.69-6.1-.84-16.08-1.55-22.06 0-1.63-4.2-5.99-5.68-9.89-7.61-.41 2.73-1 5.28-2.48 6.93-.09.1-.18.2-.28.28-.5.49-1.09.88-1.8 1.16-6.38.69-8.47 5.68-11.25 9.97-1.11 1.71-2.33 3.3-3.97 4.48-3.65.16-7.85 2.95-11.41.76.09-7.7-1.58-13.63-6.09-16.73.99-7.34-2.4-14.33-3.04-17.5-.17 7.67 3.43 9.67 1.52 17.5 4.96 3.15 6.96 9.27 6.85 17.49 4.07 2.7 7.91-.31 12.93-.76 7.26 4.35-.53 16.06-.76 24.35-8.72 4.47-18.03 8.34-24.34 15.21 1.33 3.74 3.35 6.79 5.32 9.89-6.74 6.71 4.09 18.82-1.52 28.91 1.32 3.76 4.39 5.75 3.81 11.41-2.58.22-4.37 1.21-7.61.76-2.3 11.8-12.91 21.09-15.22 32.72-1.25 6.33.31 11.72-5.32 15.97 3.47 4.64 5.22 11.01 6.08 18.26-6.11 4-11.49 18.81-9.08 28.64.05.2.1.4.16.6.77 2.71 2.17 5 4.36 6.52-3.82 8.6 8.44 16.8 4.56 25.86.39 2.15 4.32.76 4.57 3.04 1.26 17.5-3.54 28.92-9.13 39.56 8.49 5.56 4.18 15.21-1.1 21.98-1.69 2.18-3.49 4.06-4.99 5.41-1.8 18.029 2.17 30.29 6.85 41.84-9.32 1.59-3.68 18.13-12.17 20.54 3.94 14.39-1.96 36.52 6.08 49.45-1.83.46-3.05 1.54-3.85 3.029-.61 1.141-.99 2.521-1.21 4.051-.64 4.439 0 10.159-.26 14.979.85 2.45 6.29.311 6.84 3.05-.06 1.96-3.25.801-2.28 3.801 4.37 6.84 3.36 11.31 3.05 19.779 3.48.32 8.58-.979 9.89 1.521.07 2.359-.93 3.64-1.52 5.33-4.18.64-8.75.89-12.18 2.279 2.65 4.45 11.08 3.12 12.18 9.13-8.96 6.62-.95 17.851-3.05 29.671-.76 4.27-3.7 6.89-1.52 11.409-3.72 4.17-5.56 9.561-5.25 15.101.01.16.02.31.04.46.21 2.689.92 5.39 2.17 8.02-4.4 7.28-4.68 18.66-13.7 21.311-.29 2.729-.35 5.229-.23 7.55.57 10.43 4.97 17.03 9.36 23.64 2.14-2.43 5.35-3.79 9.13-4.569 3.59 7.189 0 17.189 2.28 22.819 4.03.29 4.71 3.92 7.61 5.33 13.32-.7 30.68-4.1 38.8 3.8-2.73-.06-4.4-1.18-6.85-1.52" stroke-width="7"/><path d="M227.35 617.25c-1.48 1.3-2.01 2.92-2.14 4.65-.09 1.13-.01 2.3.08 3.47.28 3.54.7 7.05-2.91 9.08.13-1.55.46-4.181.64-6.59.12-1.65.17-3.2.03-4.21-.14-1.08-.5-1.54-1.23-.83" stroke-width="5"/><path d="M230.69 666.44c-2.7 1.81-4.83-3.261-9.83-1.561-.57 4.12 2.63 4.47 3.8 6.851.13 1.649-2.7.34-3.8.76 4.01 4.35-.37 19.51 3.04 24.34 3.15-1.67.5-9.13 2.29-12.17 4.03 3.21-.69 10.96 3.8 12.93-.02.09-.04.18-.08.25-.63 1.29-3.99-.149-4.49 1.271 2.78 4.47.93 6.88 1.53 12.18-1.9.11-2.36-1.2-3.81-1.53-.31 1.86 3.82 5.8 7.61 6.09-3.56 2.19-1.05 5.5 1.52 7.61 2.13-.41 1.41-3.67 2.28-5.33 6.11 1.24.4 9-5.32 7.61.53 4.029 3.69 5.43 7.61 6.09.36 2.9-.22 4.85-1.53 6.08 2.01 4.08 7.67 4.51 7.61 10.649-4.87 1.9-9.26-2.77-13.69-3.8 3.67-.34 8.91 2.88 12.17 3.8.56-6.13-4.91-6.239-6.85-9.89.24-2.3 2.36-2.71 1.52-6.08-4.5.61-7.85-4.229-8.36-9.89 1.01.76 1.49 2.05 3.04 2.28.57-3.65-4.88-5.221-2.28-8.37-3.49-1.841-5.84-4.811-8.37-7.61-.36-.79 4.13-.16 4.56.76 3.42-4.08.19-5.66 0-11.41-1.9-1.899-5.66-1.939-4.56-6.84 1.71.32.02 4.03 1.52 4.561-.44-6.04.94-17.59-1.52-22.82-.14-1.66.62-2.42 2.28-2.28-1.65-1.29-3.52-5.05-1.52-7.609 3.84.39 6.74 1.729 9.73 2.97" stroke-width="2"/><path d="M230.5 239.3c-1.15 4.31-2.32 8.55-2.79 12.49-.1.82-.16 1.63-.19 2.43-.34 6.85 1.12 12.93-3.62 17.35 3.43 2.93 8.39 16.66 3.89 22.12-1.01 1.24-2.52 2.06-4.65 2.22.92 13.04 4.28 25.32 6.39 37.31 1.14 6.43 1.91 12.77 1.75 19.11-.18 7.29-1.58 14.56-5.09 21.94.3 1.47 2.94.6 2.28 3.04-1-.27-1.2-1.34-2.28-1.52-1.39.9-.6 3.97-1.53 5.33 1.01.98 2.83 1 3.05-.76 2.24 1.09-.91 3.06-3.05 2.28v6.08c-6.61 12.67-4.96 33.58-13.69 44.129v9.131h-6.09c-2 8.949 8.04 16.739 3.81 25.859 1.22 5.92 6.81 8.76 7.6 14.46.36 2.54-.27 4.74-1.24 6.91-.94 2.14-2.19 4.25-3.12 6.67-.39.99-.73 2.04-.96 3.16-1.7 8.16 1.72 15.3-2.28 22.06 5.85 2 2.7 13.021 10.65 12.931 4.56-4.99 5.15-10.55 6.08-15.98 6.61.76 4.01 8.2 1.53 11.41.61 1.93 3.13 1.95 4.56 3.05.41 2.69-2.69 1.87-2.28 4.561 3.38.68 4.89 3.22 5.32 6.85-.58 3.84-2.1-2.4-4.56-1.52.44 7.779 1.8 19.399-3.04 26.619.74 2.561 2.95 3.65 3.8 6.091-.47 2.31-1.69 3.89-4.56 3.8-.01 2.07 3.19 3.57 0 4.57 9.96 3.289 12.7 14.399.76 17.5v4.56c2.12 1.42 6.44.66 6.84 3.8-1.01 2.17-3.38-.58-4.56-.76-2.19.86-2.83 3.27-3.04 6.09.69 1.61 3.05-1.439 5.32-.76-.93 3.12-4.45 3.66-5.32 6.85.83 6.88 1.08 13.17-4.57 15.21.41-4.46.01-8.13-3.8-8.37-.17-2.449 1.34-3.22.76-6.08-2.08-3.489-13.04-1.149-13.7 3.801 1.38 2.75 2.1-1.34 3.81-.761-.68 7.44-7.85 8.391-10.65 13.69-.21 3 .29 5.29 2.28 6.09 1.71-.57.3-4.27.76-6.09 2.85-.7 4-3.1 6.85-3.8-1.23 4.45-.11 6.64 4.56 6.85 2.71 1.181.46-2.59 2.28-2.29 4.62.2 6.03 3.61 8.37 6.09-.84 3.721-4.62 4.511-6.08 7.61-.22 2.75 3.33 1.74 4.56 3.04-3.18 1.58.56 4.85 3.04 5.33 3.04.49 2.18-2.9 2.29-5.33 3.37 3.34 4.12 8.91 5.32 12.17-.4-.41-.99-.88-1.58-1.479-.03-.03-.07-.07-.1-.11-1.27-1.32-2.43-3.19-1.36-6.01-2.54-.011-2.6 2.47-5.33 2.279-3.45-1.869-4.84-5.81-7.61-8.369.19-.561.41-1.08.65-1.58 3-6.41 8.53-8.181-1.4-12.881-1.23 4.311-10.72 2.49-9.14-3.039-1.55.729-3.01 1.56-4.56 2.279.46 1.83 1.09 3.48.76 6.09-.89-.18-1.66-.399-2.32-.659-9.2-3.551 3.12-13.54 6.89-16.841-1.77-.59-2.86-.3-3.81-3.04 1.4-6.67 9.23-2.34 12.18-7.609 4.43 2.38 4.15 6.79 3.8 10.649 3.8-.739 4.34-4.619 2.28-4.56.07-.08.14-.16.2-.22 1.34-1.5 1.45-.771 1.23.83-.17 1.229-.53 2.96-.67 4.6.23-.13.44-.26.64-.39 1.35-.86 1.99-1.681 2.27-2.49.39-1.15.03-2.28-.08-3.47-.15-1.41.04-2.91 2.14-4.65.11-.1.23-.2.36-.3-2.52-.78-4.88-1.71-3.81-6.08 1.03.229.63 1.899.76 3.04 1.77-1.53 1.02-5.58 3.81-6.09-.12-1.4-2.58-.46-3.05-1.521-1.29-6.77 5.78-7.96 9.13-12.17-.77-5.82-5.64-7.54-9.89-9.89 1.6-2.38 1.11-2.45.76-6.09 2.95.67 2.71-1.86 4.57-2.28-1.1-1.95-2.24-3.851-3.8-5.32 3.64-9.25 4.26-19.88 2.28-28.149.97-1.04 3.59-1.04 4.56 0 .23-3.53-2.91-3.69-5.32-4.57-.04-2.311 1.6-2.96 2.28-4.561-.61-1.68-3.58-.989-3.8-3.039.84-3.7 3.97-7.99.76-11.421-1 5.57-2.83 11.5-7.61 16.74-2.97.181-3.95-1.63-6.09-2.28.62-6.199-2.86-8.3-5.32-11.409 1.88-6.98 2.31-14.091 2.28-24.351.64-.54 1.21-1.09 1.72-1.63 2.03-2.22 2.94-4.439 3.12-6.67.62-6.99-5.85-13.99-7.12-20.61-.46-2.399.97-5.399.76-7.6-.65-6.84-6.58-12.38-5.33-19.78 2.38-.16 5.59.511 6.85-.76-.81-3.17-.2-3.36 0-6.85 7.83-16.12 10.79-37.43 14.45-56.3-.67-2.05-2.12 1.32-1.52 3.05-1.81-1.38-.17-5.71 2.28-5.33.34-8.62 4.57-15.31 5.86-22.7.09-.54.17-1.09.23-1.64.64-5.86-.39-11.63-1.98-17.47-3.25-11.96-8.84-24.2-7.15-38.07 2.73.45 3.68-.88 5.33-1.52 1.61-8.93-.12-16.47-4.57-21.3 1.47-5.74 2.98-11.85 4.38-18.11 1.08-4.92 2.1-9.93 2.98-14.92M230.5 239.3c.69-3.98 1.3-7.96 1.77-11.86 1.36-11.15 2.03-19.7-.76-29.67 1.34-1.95 3.31-3.28 4.56-5.32-2.5-9.33-6.67-27.74-2.28-36.52-3.53-1.03-3.33-5.8-3.04-10.65 7.52-2.04 3.74-11.57 4.56-22.82.73-10.02 3.95-13.9-.76-18.26 6.42.04 1.2 13.79 1.52 25.87.22 8.04 2.15 13.88-4.56 15.97-.69 4.75.44 7.68 3.04 9.13-3.84 9.15-.76 28.45 3.05 37.28-1.64 2.42-4.27 3.85-5.33 6.85 3.66 8.06 2.14 16.24.76 28.14-.44 3.87-1.48 7.89-2.53 11.86z" stroke-width="3"/><path d="M215.54 602.5c.14-.87.76-.42.75 0 2.39-.85 10.57.38-.75 2.28-2.52 1.92 1.88-2.65 0-2.28z" stroke-width="3"/><path d="M217.06 613.91c-2.51-1.87 2.25 1.56 2.28-.76.38.13 2.01 4.89-1.52 4.56v-2.28c.74.021.59.931.76 1.521.74-.021.59-.931.76-1.521-.17-1.1-2.27-.26-2.28-1.52z" stroke-width="7"/><path d="M217.15 704.74c0-.01 0-.01 0 0 0 .14-.02.29-.09.46.01-.01.01-.03.01-.04.02-.14.05-.28.08-.42" stroke-width="3"/><path d="M217.15 704.72c.95-4.84 2.26-3.34.67 1.24-1.76.23-.85-2.2-2.28-2.28 0-1.57 1.6-.17 1.61 1.04zM221.62 738.67c-.6-2.34 1.49 4.16 2.28 5.33 1.59 2.74-2.41-3.45-2.28-1.52-1.7-.11.99-1.92 0-3.81zM257.35 788.9c-2.36 1.8-6.67 3.21 0 0zM257.35 788.9c.01-.011.02-.011.03-.021v-.01" stroke-width="3"/><path d="M257.38 788.87c-.21-1.22.71-1.3.76-2.271.93.581.29 1.461-.76 2.271z" stroke-width="3"/></g><path fill="none" d="M.25.25h850.394v850.394H.25z"/></svg>