<?xml version="1.0" encoding="iso-8859-1"?>
<!-- Generator: Adobe Illustrator 12.0.1, SVG Export Plug-In . SVG Version: 6.00 Build 51448)  -->
<!DOCTYPE svg PUBLIC "-//W3C//DTD SVG 1.1//EN" "http://www.w3.org/Graphics/SVG/1.1/DTD/svg11.dtd" [
	<!ENTITY ns_svg "http://www.w3.org/2000/svg">
	<!ENTITY ns_xlink "http://www.w3.org/1999/xlink">
]>
<svg  version="1.1" id="Layer_1" xmlns="&ns_svg;" xmlns:xlink="&ns_xlink;" width="850.89" height="850.89"
	 viewBox="0 0 850.89 850.89" style="overflow:visible;enable-background:new 0 0 850.89 850.89;" xml:space="preserve">
<g>
	<g id="XMLID_1_">
		<g>
			<path style="fill:#FFFFFF;" d="M104.25,488.25c-2.21-0.74-3.57-1.52-4.17-2.28C101.81,486.65,103.24,487.4,104.25,488.25z"/>
			<path style="fill:#FFFFFF;" d="M82.56,480.9c5.82,0.83,12.85,0.119,20.66-0.54c7.81,9.42,11.67,22.779,10.33,41.34
				c5.39,2.41,12.94,2.649,18.77,0.72c-4.76,4.72-10.99,6.2-20.83-0.72c1.31-17.15-2.18-29.521-8.27-39.271
				c-2.96,0.95-4.16,2.23-3.14,3.54C95.47,484.14,88.79,482.76,82.56,480.9z"/>
			<path style="fill:#FFF5B4;" d="M135.77,518.18c-1.08,1.57-2.21,3.011-3.45,4.24c-5.83,1.93-13.38,1.69-18.77-0.72
				c1.34-18.561-2.52-31.92-10.33-41.34c-7.81,0.659-14.84,1.37-20.66,0.54c-3.22-0.96-6.31-2.04-8.93-3.381
				c-2.28-1.71-4.15-4.119-5.54-7.489c29.94,3.08,52-1.721,55.8-24.8c4.98-0.841,4.49,3.779,10.33,2.069
				c2.87,2.641,1.26,9.76,4.13,12.4c29.69-6.271,30.96,15.88,37.2,33.06c-16.88-6.47-18.81,3.8-22.73,12.41
				c-10.22-0.72,1.72-5.43,0-10.34C140.05,495.52,139.44,508.38,135.77,518.18z"/>
			<path style="fill:#FFFFFF;" d="M123.89,445.23c-3.8,23.079-25.86,27.88-55.8,24.8c1.39,3.37,3.26,5.779,5.54,7.489
				c-4.46-2.26-7.56-5.239-7.61-9.55c30.11,3.33,51.99-1.529,57.42-22.859L123.89,445.23z"/>
			<path style="fill:#FFFFFF;" d="M73.63,477.52c2.62,1.341,5.71,2.421,8.93,3.381C79.14,480.41,76.14,479.39,73.63,477.52z"/>
			<path style="fill:#FFF5B4;" d="M221.02,461.77l5.45,1.091c-4.63,1.37-8.85,1.06-9.59-7.29c-0.94,0.109-1.5,0.609-1.83,1.34
				l-2.3-1.34c9.41-10.46,11.47-22.38,8.27-41.34c6.48-4.86,16.84-11.05,26.86-6.2c3.45-18.63,18.46-5.77,31-10.33
				c4.71-4.24,0.07-17.84,4.13-22.73c10.46-0.81,13.4,5.89,18.6,10.33c8.06-7.1,11.17-19.14,16.54-28.93
				c13.2,1.27,22.94,5.99,39.26,4.13c5.29-4.35,7.08-12.2,6.2-22.73c10.98-1.33,11.78,7.51,16.54,12.4
				c18.83-7.72,34.5-5.64,49.59,4.13c10.2-4.27,11-17.94,10.34-33.06c3.8-7.85,14.229,11.37,18.59,16.53
				c12.14-0.66,1.4-11.35,4.14-20.67c6.681-2.97,13.54,9.19,20.66,12.4c23.3-14.69,56.11,21.71,82.67,10.34
				c12.4,4.38,21.94,23.11,47.53,24.8c11.23,0.73,26.25-3.38,39.271-2.07c28.659,2.88,54.279,20.09,64.06-6.2
				c12.96,7.55,27.37,25.55,14.47,41.33c-5.439,2.14-12.689,2.48-20.67,2.07c-16.22,14.55-7.7,24.58-14.47,43.4
				c-9.5,26.43-41.12,34.82-43.39,59.93c-2.28,25.16,14.109,51.12,14.46,82.66c-14.71,20.2-9.061,58.61,14.47,64.07
				c-3.021,21.61,4.02,33.17,14.46,41.33c-1.99,12.47-17.63,11.29-28.93,14.46c-8.69,14.14-28.561,36.49-18.601,55.8
				c-22.319,12.521-36.46-17.52-51.66-18.6c-13.42-0.94-23.33,14.46-35.14,22.739c-40.57-4.89-42.35-48.569-68.19-68.199
				c-38.3-0.971-49.93-28.601-72.33-45.471c-2.73,3.44,3.34,17.24-6.2,18.601c-6.02-2.931-5.67-12.24-8.27-18.601
				c-19.79,13.301-45.3,15.851-66.13,26.87c-9.15,4.84-13.51,19.62-26.87,16.53c4.24-29.021,20.52-46.771,16.54-78.53
				c-1.56-7.76,7.89-4.5,8.26-10.33c-1.65-11.439-6.66-19.52-20.66-18.6c-5.48,6.229-6.79,16.63-10.34,24.8
				c-7.59,0.67-11.43,5.101-18.6,6.2c-5.27-13.34-20.52-25.35-35.13-22.74c-13.98-10.81-9.29-40.3-28.93-45.46
				c-0.1-14.77-5-28.47,2.07-39.27c11.73,4.529,26.76-0.95,35.13-6.19c-26.21,3.47-52.13-7.34-45.47-35.14
				c9.11,1.6,16.03,0.83,20.64-4.96l4.16,0.83c-1.98-6.29-2.43-14.101-8.26-16.53C234.07,453.96,236,463.69,221.02,461.77z"/>
			<polygon style="fill:#394EA1;" points="801.97,65.07 801.97,110.35 801.9,110.35 577.97,111.12 577.55,65.07 			"/>
			<polygon style="fill:#231F20;" points="801.97,110.35 801.97,161.93 801.13,161.93 578.68,161.93 578.44,161.93 577.97,111.12 
				801.9,110.35 			"/>
			<polygon style="fill:#FFFFFF;" points="578.68,161.93 801.13,161.93 801.97,161.93 801.97,211.25 578.89,211.25 578.44,161.93 
							"/>
			<path style="fill:#C8C8C8;" d="M560.97,55.23c-4.22-1.88-7.05-5.28-7.05-9.16c0-5.93,6.59-10.73,14.72-10.73
				s14.73,4.8,14.73,10.73c0,3.79-2.7,7.12-6.771,9.02c-2.29,1.08-5.029,1.71-7.96,1.71C565.83,56.8,563.21,56.23,560.97,55.23z"/>
			<path style="fill:#C8C8C8;" d="M568.64,56.8c2.931,0,5.67-0.63,7.96-1.71v258.23H561.41l-0.44-258.09
				C563.21,56.23,565.83,56.8,568.64,56.8z"/>
			<path d="M226.47,462.86c5.61-1.66,11.82-5.801,13.15-1.091c-0.64,1.25-1.34,2.341-2.1,3.301L226.47,462.86z"/>
			<path style="fill:#FFFFFF;" d="M239.62,461.77c-1.33-4.71-7.54-0.569-13.15,1.091l-5.45-1.091
				c14.98,1.921,13.05-7.81,12.4-12.399c5.83,2.43,6.28,10.24,8.26,16.53l-4.16-0.83C238.28,464.11,238.98,463.02,239.62,461.77z"/>
			<path style="fill:#FFF5B4;" d="M212.75,455.57l2.3,1.34c-1.18,2.58,0.49,8.01-2.3,8.99c-7.55,1.399-15.03,2.88-24.8,2.069
				c-1.76-5.819-6.68-8.479-6.2-16.54C189.2,449.63,211.41,445.02,212.75,455.57z"/>
			<path style="fill:#FFF5B4;" d="M173.49,546.5c8.45-24.52,40.6-21.55,39.26,10.33c-6.2,0-12.4,0-18.6,0
				c-3.96,6.53,11.82,8,10.33,18.6c-8.03-1.81-14.44,0.021-20.11,3.79c-0.01,0-0.02,0.011-0.02,0.011
				c-0.18,0.1-0.35,0.21-0.53,0.329c-0.29,0.19-0.56,0.391-0.8,0.58c-0.02,0.021-0.04,0.03-0.06,0.051
				c-14.78,10.829-24.86,34.35-46.67,38.64c-17.75,3.49-32.92-6.88-45.47,10.33c-0.37,2.97-0.72,5.939-1.09,8.899l-5.11-0.63
				c-15.64-8.47-33.31-14.91-39.26-33.069c2.45-7.181,13.27-6.021,18.6-10.33c-3.6-10.9-14.97-24.94-16.54-31
				c7.37-4.811,21.15-1.33,24.8,4.13C87.36,543.98,144.22,535.61,173.49,546.5z"/>
			<path style="fill:#FFFFFF;" d="M183.82,579.56c0.18-0.119,0.35-0.229,0.53-0.329c-0.45,0.289-0.89,0.6-1.33,0.909
				C183.26,579.95,183.53,579.75,183.82,579.56z"/>
			<path style="fill:#FFFFFF;" d="M135.77,518.18c-0.45,1.23-0.96,2.41-1.55,3.521c-0.61,0.27-1.24,0.52-1.9,0.72
				C133.56,521.19,134.69,519.75,135.77,518.18z"/>
			<path style="fill:#FFFFFF;" d="M134.22,447.3c-5.84,1.71-5.35-2.91-10.33-2.069l-0.45-0.12c0.17-0.63,0.32-1.28,0.45-1.94
				c5.85,0.34,8.61,3.79,14.46,4.13c0,3.44,0,6.891,0,10.33c31.39-5.89,33.5,17.48,39.27,37.2c-6.73,4.8-10.74-6.75-18.6,0
				c-0.26,3.42,0.67,16.05-12.4,12.4c-1.77-6.591,1.8-7.841,4.13-10.33c-6.23,3.739-9.93,13.92-14.98,21.279
				c3.67-9.8,4.28-22.66,17.05-23.35c1.72,4.91-10.22,9.62,0,10.34c3.92-8.61,5.85-18.88,22.73-12.41
				c-6.24-17.18-7.51-39.33-37.2-33.06C135.48,457.06,137.09,449.94,134.22,447.3z"/>
			<path style="fill:#FFF5B4;" d="M84.62,637.43l5.11,0.63c-2.83,22.08-7.01,42.82-27.84,46.9
				C58.64,658.29,78.97,655.19,84.62,637.43z"/>
			<path style="fill:#FFFFFF;" d="M136.29,620.89c-16.15,3.181-30.78-6.92-43.4,8.271c-2.92,26.7-6.58,52.66-31,57.87
				c-7.83-22.57,11.88-34.761,20.67-47.54c-14.77-10.03-33.17-16.431-39.27-35.13c2.77-1.36,3.85-4.42,4.13-8.271
				c6.71,1.2,9.62-1.399,14.47-2.06c-4.54-12.681-12.92-21.521-18.6-33.07c9.86-2.88,23.91-3.35,28.93,4.14
				c14.95-23.39,72.14-31.42,101.27-20.67c8.59-27.01,42.95-19.069,41.33,12.4c-3.01,3.189-10.58,1.82-16.54,2.07
				c-4.33,3.14,13.24,12.75,8.27,16.529c-8.56,5.5-13.91-1.21-22.18,3.79c5.67-3.77,12.08-5.6,20.11-3.79
				c1.49-10.6-14.29-12.069-10.33-18.6c6.2,0,12.4,0,18.6,0c1.34-31.88-30.81-34.85-39.26-10.33
				c-29.27-10.89-86.13-2.52-101.27,20.66c-3.65-5.46-17.43-8.94-24.8-4.13c1.57,6.06,12.94,20.1,16.54,31
				c-5.33,4.31-16.15,3.149-18.6,10.33c5.95,18.159,23.62,24.6,39.26,33.069c-5.65,17.761-25.98,20.86-22.73,47.53
				c20.83-4.08,25.01-24.82,27.84-46.9c0.37-2.96,0.72-5.93,1.09-8.899c12.55-17.21,27.72-6.84,45.47-10.33
				c21.81-4.29,31.89-27.811,46.67-38.64c-3.9,3.199-2.08,7.189-5.34,11.77C171.01,601.25,147.45,618.7,136.29,620.89z"/>
		</g>
		<g>
			<polyline style="fill:none;stroke:#231F20;stroke-width:7;" points="577.55,65.07 801.97,65.07 801.97,110.35 801.97,161.93 
				801.97,211.25 578.89,211.25 			"/>
			<path style="fill:none;stroke:#231F20;stroke-width:7;" d="M560.97,55.23c-4.22-1.88-7.05-5.28-7.05-9.16
				c0-5.93,6.59-10.73,14.72-10.73s14.73,4.8,14.73,10.73c0,3.79-2.7,7.12-6.771,9.02c-2.29,1.08-5.029,1.71-7.96,1.71
				C565.83,56.8,563.21,56.23,560.97,55.23z"/>
			<polyline style="fill:none;stroke:#231F20;stroke-width:7;" points="560.97,54.93 560.97,55.23 561.41,313.32 			"/>
			<polyline style="fill:none;stroke:#231F20;stroke-width:7;" points="576.6,54.39 576.6,55.09 576.6,313.32 			"/>
			<polyline style="fill:none;stroke:#231F20;stroke-width:7;" points="577.14,111.12 577.97,111.12 801.9,110.35 			"/>
			<line style="fill:none;stroke:#231F20;stroke-width:7;" x1="578.68" y1="161.93" x2="801.13" y2="161.93"/>
			<path style="fill:none;stroke:#231F20;stroke-width:7;" d="M82.56,480.9c-3.42-0.49-6.42-1.511-8.93-3.381"/>
			<path style="fill:none;stroke:#231F20;stroke-width:7;" d="M135.77,518.18c-0.45,1.23-0.96,2.41-1.55,3.521
				c-0.61,0.27-1.24,0.52-1.9,0.72"/>
			<path style="fill:none;stroke:#231F20;stroke-width:7;" d="M100.08,485.97c-1.02-1.31,0.18-2.59,3.14-3.54
				c6.09,9.75,9.58,22.12,8.27,39.271c9.84,6.92,16.07,5.439,20.83,0.72c1.24-1.229,2.37-2.67,3.45-4.24
				c5.05-7.359,8.75-17.54,14.98-21.279c-2.33,2.489-5.9,3.739-4.13,10.33c13.07,3.649,12.14-8.98,12.4-12.4
				c7.86-6.75,11.87,4.8,18.6,0c-5.77-19.72-7.88-43.09-39.27-37.2c0-3.439,0-6.89,0-10.33c-5.85-0.34-8.61-3.79-14.46-4.13
				c-0.13,0.66-0.28,1.311-0.45,1.94c-5.43,21.33-27.31,26.189-57.42,22.859c0.05,4.311,3.15,7.29,7.61,9.55
				c2.62,1.341,5.71,2.421,8.93,3.381C88.79,482.76,95.47,484.14,100.08,485.97"/>
			<path style="fill:none;stroke:#231F20;stroke-width:7;" d="M100.08,485.97c1.73,0.681,3.16,1.431,4.17,2.28
				C102.04,487.51,100.68,486.73,100.08,485.97z"/>
			<path style="fill:none;stroke:#231F20;stroke-width:7;" d="M717,356.37c-9.78,26.29-35.4,9.08-64.06,6.2
				c-13.021-1.31-28.04,2.8-39.271,2.07c-25.59-1.69-35.13-20.42-47.53-24.8c-26.56,11.37-59.37-25.03-82.67-10.34
				c-7.12-3.21-13.979-15.37-20.66-12.4c-2.739,9.32,8,20.01-4.14,20.67c-4.36-5.16-14.79-24.38-18.59-16.53
				c0.66,15.12-0.14,28.79-10.34,33.06c-15.09-9.77-30.76-11.85-49.59-4.13c-4.76-4.89-5.56-13.73-16.54-12.4
				c0.88,10.53-0.91,18.38-6.2,22.73c-16.32,1.86-26.06-2.86-39.26-4.13c-5.37,9.79-8.48,21.83-16.54,28.93
				c-5.2-4.44-8.14-11.14-18.6-10.33c-4.06,4.89,0.58,18.49-4.13,22.73c-12.54,4.56-27.55-8.3-31,10.33
				c-10.02-4.85-20.38,1.34-26.86,6.2c3.2,18.96,1.14,30.88-8.27,41.34c-1.34-10.551-23.55-5.94-31-4.141
				c-0.48,8.061,4.44,10.721,6.2,16.54c9.77,0.811,17.25-0.67,24.8-2.069c2.79-0.98,1.12-6.41,2.3-8.99
				c0.33-0.73,0.89-1.23,1.83-1.34c0.74,8.35,4.96,8.66,9.59,7.29c5.61-1.66,11.82-5.801,13.15-1.091
				c-0.64,1.25-1.34,2.341-2.1,3.301c-4.61,5.79-11.53,6.56-20.64,4.96c-6.66,27.8,19.26,38.609,45.47,35.14
				c-8.37,5.24-23.4,10.72-35.13,6.19c-7.07,10.8-2.17,24.5-2.07,39.27c19.64,5.16,14.95,34.65,28.93,45.46
				c14.61-2.609,29.86,9.4,35.13,22.74c7.17-1.1,11.01-5.53,18.6-6.2c3.55-8.17,4.86-18.57,10.34-24.8
				c14-0.92,19.01,7.16,20.66,18.6c-0.37,5.83-9.82,2.57-8.26,10.33c3.98,31.76-12.3,49.51-16.54,78.53
				c13.36,3.09,17.72-11.69,26.87-16.53c20.83-11.02,46.34-13.569,66.13-26.87c2.6,6.36,2.25,15.67,8.27,18.601
				c9.54-1.36,3.47-15.16,6.2-18.601c22.4,16.87,34.03,44.5,72.33,45.471c25.841,19.63,27.62,63.31,68.19,68.199
				c11.81-8.279,21.72-23.68,35.14-22.739c15.2,1.08,29.341,31.12,51.66,18.6c-9.96-19.31,9.91-41.66,18.601-55.8
				c11.3-3.17,26.939-1.99,28.93-14.46c-10.44-8.16-17.48-19.72-14.46-41.33c-23.53-5.46-29.18-43.87-14.47-64.07
				c-0.351-31.54-16.74-57.5-14.46-82.66c2.27-25.109,33.89-33.5,43.39-59.93c6.77-18.82-1.75-28.85,14.47-43.4
				c7.98,0.41,15.23,0.07,20.67-2.07C744.37,381.92,729.96,363.92,717,356.37z"/>
			<path style="fill:none;stroke:#231F20;stroke-width:7;" d="M184.37,579.22c8.27-5,13.62,1.71,22.18-3.79
				c4.97-3.779-12.6-13.39-8.27-16.529c5.96-0.25,13.53,1.119,16.54-2.07c1.62-31.47-32.74-39.41-41.33-12.4
				c-29.13-10.75-86.32-2.72-101.27,20.67c-5.02-7.489-19.07-7.02-28.93-4.14c5.68,11.55,14.06,20.39,18.6,33.07
				c-4.85,0.66-7.76,3.26-14.47,2.06c-0.28,3.851-1.36,6.91-4.13,8.271c6.1,18.699,24.5,25.1,39.27,35.13
				c-8.79,12.779-28.5,24.97-20.67,47.54c24.42-5.21,28.08-31.17,31-57.87c12.62-15.19,27.25-5.09,43.4-8.271
				c11.16-2.189,34.72-19.64,41.33-28.93c3.26-4.58,1.44-8.57,5.34-11.77"/>
			<path style="fill:none;stroke:#231F20;stroke-width:7;" d="M84.62,637.43c-15.64-8.47-33.31-14.91-39.26-33.069
				c2.45-7.181,13.27-6.021,18.6-10.33c-3.6-10.9-14.97-24.94-16.54-31c7.37-4.811,21.15-1.33,24.8,4.13
				c15.14-23.18,72-31.55,101.27-20.66c8.45-24.52,40.6-21.55,39.26,10.33c-6.2,0-12.4,0-18.6,0c-3.96,6.53,11.82,8,10.33,18.6
				c-8.03-1.81-14.44,0.021-20.11,3.79c-0.01,0-0.02,0.011-0.02,0.011c-0.45,0.289-0.89,0.6-1.33,0.909
				c-0.02,0.021-0.04,0.03-0.06,0.051c-14.78,10.829-24.86,34.35-46.67,38.64c-17.75,3.49-32.92-6.88-45.47,10.33
				c-0.37,2.97-0.72,5.939-1.09,8.899c-2.83,22.08-7.01,42.82-27.84,46.9C58.64,658.29,78.97,655.19,84.62,637.43z"/>
			<line style="fill:none;stroke:#231F20;stroke-width:7;" x1="314.01" y1="695.29" x2="282.25" y2="750.25"/>
			<line style="fill:none;stroke:#231F20;stroke-width:7;" x1="648.8" y1="761.42" x2="714.25" y2="796.25"/>
			<line style="fill:none;stroke:#231F20;stroke-width:7;" x1="717" y1="356.37" x2="740.25" y2="310.25"/>
			<line style="fill:none;stroke:#231F20;stroke-width:7;" x1="731.47" y1="397.7" x2="732.25" y2="452.25"/>
		</g>
	</g>
</g>
<rect x="0.25" y="0.25" style="fill:none;" width="850.394" height="850.394"/>
</svg>
