<?xml version="1.0" encoding="iso-8859-1"?>
<!-- Generator: Adobe Illustrator 12.0.1, SVG Export Plug-In . SVG Version: 6.00 Build 51448)  -->
<!DOCTYPE svg PUBLIC "-//W3C//DTD SVG 1.1//EN" "http://www.w3.org/Graphics/SVG/1.1/DTD/svg11.dtd" [
	<!ENTITY ns_svg "http://www.w3.org/2000/svg">
	<!ENTITY ns_xlink "http://www.w3.org/1999/xlink">
]>
<svg  version="1.1" id="Layer_1" xmlns="&ns_svg;" xmlns:xlink="&ns_xlink;" width="850.394" height="850.394"
	 viewBox="0 0 850.394 850.394" style="overflow:visible;enable-background:new 0 0 850.394 850.394;" xml:space="preserve">
<g>
	<g id="XMLID_1_">
		<g>
			<g id="XMLID_2_">
				<g>
					<path style="fill:#FFF5B4;" d="M60.85,494.55c4.59,9.45,19.06,9.03,23.6,18.53c2.37-3.84,4.67-7.75,7.01-11.63
						c4.6-7.67,9.33-15.2,14.99-21.82c1.57-1.84,3.22-3.62,4.96-5.3c4.22-23.5,0.32-34.96,0.02-54.86c0.34-0.89,0.76-1.77,1.24-2.64
						c4.27-0.13,1.17,7.11,2.11,10.31c1.05,0.62,2.17,1.21,3.34,1.75c12.75,5.98,32.05,7.511,43.85,1.62
						c-16.49,0.2-22.23-10.36-37.08-11.8c-2.55-9.24-7.3-16.29-13.48-21.9c0.47-7.96,11.29-5.57,16.85-8.43
						c5.29,5.55,3.02,10.24,5.06,16.85c0.65-0.49,1.22-1.05,1.72-1.65c7.69-9.13,0.06-29.81-3.41-38.79
						c7.5-14.11,22.7-4.45,30.34,3.37c6.32,1.27,3.67-6.44,8.42-6.74c37.08,0,74.15,0,111.23,0c1.96-36.65-3.33-73.63,0-106.17
						c13.81-1,27.98-1.39,42.26-1.39c23.28,0.01,46.86,1.07,69.71,2.27c2.58,0.49,5.14,0.8,7.68,0.8c1.14,0,2.32-0.07,3.52-0.19
						c12.51,0.67,24.74,1.35,36.52,1.86c0.16,0.16,0.33,0.33,0.49,0.49c0.91,4.99,0.58,8.73-0.46,11.76
						c-0.149,0.38-0.3,0.76-0.46,1.16c-0.06,0.14-0.11,0.28-0.17,0.42c-2.15,4.7-6.03,7.67-9.11,11.46
						c1.62,4.25,1.58,7.26,0.881,9.91c-1.421,5.37-5.58,9.23-4.25,18.74c3.38,6.18,8.26,10.85,10.109,18.54
						c1.78,6.27-5.68,3.31-6.74,6.74c0.641,0.51,1.29,0.96,1.94,1.36c-0.22,0.54-0.32,1.19-0.25,2.01c1.04-0.18,2.07-0.36,3.1-0.54
						c10.36,4.24,21.891-2.23,33.391-7.89c4.2-1.46,8.189-3.13,11.899-5.11c0.011,0,0.011-0.01,0.021-0.01
						c2.43-0.8,4.83-1.37,7.2-1.61c11.479-1.16,18.92,7.69,30.33,3.37c5.079,16.27,12.409,30.28,21.909,42.13
						c-4.84,9.61-9.739,19.17-16.63,26.72c-0.16,0.08-0.33,0.16-0.49,0.24c-4.97,0-9.93,0-14.899,0c-0.601,0.52-1.17,1.06-1.72,1.65
						h-0.011c-7.199,7.4-10.489,18.72-16.81,27c5.6,13.17,5.92,24.58-3.37,33.7c4.37,10.74,12.4,0.561,23.6,6.74
						c0.091,5.53,4.79,6.45,3.37,13.49c1.061-0.11,2.141-0.19,3.24-0.24c0.04,0.08,0.08,0.16,0.13,0.24
						c0.19-0.09,0.391-0.181,0.58-0.261c10.83-0.29,22.71,2.99,24.7,13.74c1.55,8.38-8.61,19.66-8.43,32.021
						c0.05,3.229,1.439,6.439,2.949,9.68c0,0.01,0.011,0.01,0.011,0.02c0,0,0,0,0,0.011c1.109,4.21,2.72,8.17,3.949,12.439
						c1.2,18.96-12.609,35.98-5.22,52c-2.34,4.4-8.71,4.771-13.49,6.74c-0.01,1.63-0.069,3.32-0.189,5.04
						c-0.891,13.21-4.95,28.53-11.601,38.77c-6.68-0.619-16.149,1.551-20.229-1.68c4.64-14.24-4.37-21.75-8.42-32.02
						c-0.38,0.84-0.78,1.66-1.2,2.46c-0.16-0.261-0.33-0.511-0.49-0.771c-0.109,0.84-0.26,1.65-0.439,2.431
						c-5.83,10.05-14.82,16.96-23.141,24.52l-0.01,0.01c-14.689-0.479-20.89-9.439-37.07-8.43c-0.99-1.23-1.89-2.55-2.72-3.93
						c-0.48-1.82-1.45-3.431-2.66-4.96c-3.42-7.141-5.97-15.141-10.1-21.561c0.08-0.51,0.19-1.03,0.31-1.57
						c-0.65-0.17-1.26-0.38-1.84-0.619c-3.5-4.66-8.13-8.2-15.01-9.49c-10.54,2.27-9.9,9.77-18.54,6.74
						c0.87,14.67,10.58,20.97,3.37,35.39c-14.18,1.19-34.2,12.3-42.13,0c-7.42,0.71-12.11,4.15-17.9,6.49
						c-0.42-0.021-0.85-0.07-1.27-0.13c-3.53-2.311-4.71-6.971-11.17-6.36c-0.03,0.55-0.04,1.11-0.02,1.69
						c0.11,12.779,7.62,31.029-5.03,40.439c1.27,0.03,2.55,0.18,3.82,0.46c-0.16,0.42-0.31,0.83-0.45,1.23
						c0.42-0.4,0.84-0.75,1.26-1.051c5.46,1.381,10.84,4.96,15.76,10.931c0.45,0.77,0.89,1.51,1.3,2.22
						c-3.26,4.43-9.86,5.521-8.21,14.86c6.12,4.279,14.16,6.66,20.95,10.279c0.62,0.891,1.03,1.841,1.21,2.87
						c-4.51,4.681-6.67,11.7-10.36,17.19c-2.19,6.25,10.63,6.03,5.05,10.109c-11.15,9.7-23.81-7.409-30.33-13.479
						c-15.88,6.58-28.95,15.979-32.02,35.38c-1.12-0.95-2.19-1.95-3.21-3c-0.03-0.03-0.06-0.07-0.09-0.1
						c-0.92-1.04-1.83-2.08-2.78-3.141c-0.32-0.359-0.64-0.72-0.96-1.08c-9.19-11.3-15.56-25.42-30.04-31.43
						c-14.11-36.45-58.35-51.75-75.83-79.21c9.58,0.53,14.34,5.88,18.54,11.8c5.94-0.24,7.53-4.83,13.48-5.06
						c-2.59-10.49-11.62-8.08-18.54-3.37c-0.03-6.15-4.79-7.57-6.74-11.8c-1.16,0.66-2.15,1.21-3.04,1.66
						c-0.11,0-0.22,0.02-0.33,0.029c0.01,0.05,0.01,0.101,0.01,0.141c-5.21,2.62-6.51,1.71-15.18-0.141
						c-1.45-6.319-3.72-11.81-6.56-16.75c-0.07-0.58-0.13-1.18-0.18-1.79c-0.79-0.83-1.61-1.64-2.45-2.42
						c-5.02-7.399-11.29-13.55-17.77-19.49c9.12-5.699,13.31,7.99,18.54,11.801c0.65-0.561,1.14-1.16,1.49-1.79
						c0.06,0.04,0.13,0.069,0.19,0.1c-0.02-0.11-0.04-0.21-0.07-0.31c3.45-6.681-7.72-16.67-13.41-19.91
						c-5.19-1.26-2.05,5.81-8.43,3.37c-4.56-4.42-3.56-14.41-5.05-21.91c1.2,1.27,2.31,2.24,3.38,2.97c0,0.13,0,0.271-0.01,0.41
						c0.16-0.03,0.32-0.06,0.48-0.1c5.88,3.699,10.44,0.13,19.74-1.591c-0.99-3.51-3.54-5.449-5.05-8.43
						c-5.64,0.43-9.26,8.44-15.17,3.37c-5.21-9.46,12.41-11.98,5.05-23.59c-0.15,2.96-0.91,6.84-2.18,10.28c0,0,0,0.01-0.01,0.01
						c-0.04,0.02-0.07,0.03-0.09,0.03c-0.01,0-0.02,0-0.03,0.01c-6.96,2.14-14.54-0.391-20.51-5.13c-0.62-0.511-1.23-1.03-1.82-1.57
						c-0.38-0.35-0.75-0.71-1.11-1.08c-0.38-0.38-0.74-0.77-1.09-1.17c-0.35-0.39-0.69-0.79-1.01-1.19c0,0,0,0-0.01-0.01
						c-0.04-0.05-0.08-0.09-0.11-0.14c-0.12-0.15-0.25-0.311-0.37-0.47l1.13-0.36c0.09,0.26,0.17,0.53,0.25,0.79
						C84.86,531.2,63.63,517.61,60.85,494.55z"/>
					<polygon style="fill:#58B947;" points="801.6,71.68 801.6,122.17 801.52,122.17 556.04,122.17 555.58,71.68 					"/>
					<polygon style="fill:#FBED24;" points="801.6,122.17 801.6,177.86 800.68,177.86 556.81,177.86 556.55,177.86 556.04,122.17 
						801.52,122.17 					"/>
					<polygon style="fill:#394EA1;" points="556.81,177.86 800.68,177.86 801.6,177.86 801.6,231.94 557.05,231.94 556.55,177.86 
											"/>
					<path style="fill:#C8C8C8;" d="M537.4,60.89c-4.631-2.06-7.73-5.79-7.73-10.04c0-6.5,7.23-11.76,16.14-11.76
						c8.91,0,16.141,5.26,16.141,11.76c0,4.15-2.95,7.8-7.41,9.9c-2.521,1.18-5.521,1.86-8.73,1.86
						C542.73,62.61,539.85,61.99,537.4,60.89z"/>
					<path style="fill:#C8C8C8;" d="M537.88,343.83L537.4,60.89c2.449,1.1,5.33,1.72,8.409,1.72c3.21,0,6.21-0.68,8.73-1.86v283.08
						H537.88z"/>
					<path style="fill:#FFFFFF;" d="M537.36,536.28c1.609,3.45,3.359,6.93,3.779,10.51c0.08,0.65,0.13,1.29,0.17,1.93
						C540.08,544.45,538.47,540.49,537.36,536.28z"/>
					<path style="fill:#FFFFFF;" d="M518.13,480.81c12.78-5.579,25.16,5.521,26.38,15.421c1.141,9.159-8.85,21.06-8.42,32.02
						c0.11,2.82,0.59,5.44,1.26,8c-1.51-3.24-2.899-6.45-2.949-9.68c-0.181-12.36,9.979-23.641,8.43-32.021
						C540.84,483.8,528.96,480.52,518.13,480.81z"/>
					<path style="fill:#FFFFFF;" d="M524.51,398.25c-0.069,0.08-0.149,0.16-0.22,0.24c-0.09,0-0.18,0-0.271,0
						C524.18,398.41,524.35,398.33,524.51,398.25z"/>
					<path style="fill:#FFFFFF;" d="M522.6,607.46c4.78-1.97,11.15-2.34,13.49-6.74c-7.39-16.02,6.42-33.04,5.22-52
						c1.86,6.46,2.841,13.61-0.17,23.351c-1.649,5.359-10.229,17.38-3.37,30.33c-4.14,4.279-13.119,3.729-15.17,10.109l-0.189-0.01
						C522.53,610.78,522.59,609.09,522.6,607.46z"/>
					<path style="fill:#FFFFFF;" d="M518.13,480.81c-0.189,0.08-0.39,0.171-0.58,0.261c-0.05-0.08-0.09-0.16-0.13-0.24
						C517.65,480.82,517.89,480.81,518.13,480.81z"/>
					<path style="fill:#FFFFFF;" d="M522.6,612.51c2.74,13.271-3.63,30.16-11.77,38.78l-0.021-0.021
						c6.65-10.239,10.71-25.56,11.601-38.77L522.6,612.51z"/>
					<path style="fill:#FFFFFF;" d="M480.96,620.03c0.42-0.8,0.82-1.62,1.2-2.46c4.05,10.27,13.06,17.779,8.42,32.02
						c4.08,3.23,13.55,1.061,20.229,1.68l0.021,0.021c-0.561,0.6-1.13,1.16-1.71,1.67c-7.3-0.57-17.65,1.92-20.22-3.37
						C492.91,636.63,486.28,628.28,480.96,620.03z"/>
					<path style="fill:#FFFFFF;" d="M481.68,327.65c-3.71,1.98-7.699,3.65-11.899,5.11C473.77,330.79,477.75,328.93,481.68,327.65z"
						/>
					<path style="fill:#FFFFFF;" d="M480.96,620.03c-0.3,0.56-0.61,1.12-0.93,1.66c0.18-0.78,0.33-1.591,0.439-2.431
						C480.63,619.52,480.8,619.77,480.96,620.03z"/>
					<path style="fill:#FFFFFF;" d="M480.03,621.69c-2.92,12.96-14.141,17.649-22.99,24.68l-0.15-0.16
						C465.21,638.65,474.2,631.74,480.03,621.69z"/>
					<path style="fill:#FFFFFF;" d="M441.71,258.62c0.03,0.16,0.06,0.32,0.09,0.47c-0.16-0.16-0.33-0.33-0.49-0.49
						C441.44,258.61,441.58,258.61,441.71,258.62z"/>
					<path style="fill:#FFFFFF;" d="M440.88,272.01c0.16-0.4,0.311-0.78,0.46-1.16c-0.18,0.52-0.38,1.02-0.59,1.5
						C440.79,272.24,440.84,272.12,440.88,272.01z"/>
					<path style="fill:#FFFFFF;" d="M436.39,340.65c-1.029,0.18-2.06,0.36-3.1,0.54c-0.07-0.82,0.03-1.47,0.25-2.01
						C434.48,339.77,435.43,340.26,436.39,340.65z"/>
					<path style="fill:#FFFFFF;" d="M416.44,641.16c1.1-2.86,1.18-5.22,0.65-7.3c0.83,1.38,1.73,2.699,2.72,3.93
						c16.18-1.01,22.38,7.95,37.07,8.43l0.01-0.01l0.15,0.16c-0.63,0.5-1.24,1.01-1.84,1.53
						C442.67,645.48,425.71,636.45,416.44,641.16z"/>
					<path style="fill:#FFFFFF;" d="M414.43,628.9c1.21,1.529,2.18,3.14,2.66,4.96C416.12,632.28,415.25,630.62,414.43,628.9z"/>
					<path style="fill:#FFFFFF;" d="M404.79,256.74c-1.2,0.12-2.38,0.19-3.52,0.19c-2.54,0-5.1-0.31-7.68-0.8
						C397.35,256.33,401.08,256.53,404.79,256.74z"/>
					<path style="fill:#FFFFFF;" d="M404.64,605.77c-0.12,0.54-0.23,1.061-0.31,1.57c-0.49-0.75-0.99-1.479-1.53-2.189
						C403.38,605.39,403.99,605.6,404.64,605.77z"/>
					<path style="fill:#FFFFFF;" d="M329.53,718.85c0.9,0.48,1.79,0.99,2.64,1.521c-0.51,0.42-0.99,0.88-1.43,1.35
						C330.56,720.69,330.15,719.74,329.53,718.85z"/>
					<path style="fill:#FFFFFF;" d="M317.01,693.41c-0.07,0.1-0.14,0.2-0.22,0.3c-0.41-0.71-0.85-1.45-1.3-2.22
						C316.01,692.1,316.51,692.74,317.01,693.41z"/>
					<path style="fill:#FFFFFF;" d="M311.32,644.15c0.42,0.06,0.85,0.109,1.27,0.13c-0.21,0.08-0.42,0.17-0.64,0.25
						C311.73,644.41,311.52,644.29,311.32,644.15z"/>
					<path style="fill:#FFFFFF;" d="M298.92,680.38c0.27,0.05,0.54,0.12,0.81,0.18c-0.42,0.301-0.84,0.65-1.26,1.051
						C298.61,681.21,298.76,680.8,298.92,680.38z"/>
					<path style="fill:#FFFFFF;" d="M296.78,808c-11.48-10.83-21.81-22.81-32.22-34.72c15.45,7.41,20.47,25.279,33.91,34.72
						C298.47,808,297.66,808,296.78,808z"/>
					<path style="fill:#FFFFFF;" d="M263.3,771.83c0.42,0.479,0.85,0.96,1.26,1.45c-0.48-0.24-0.98-0.46-1.48-0.67
						C263.15,772.35,263.22,772.09,263.3,771.83z"/>
					<path style="fill:#FFFFFF;" d="M257,764.68c0.95,1.061,1.86,2.101,2.78,3.141c-1.3-1.32-2.51-2.71-3.68-4.141
						C256.4,764.01,256.7,764.35,257,764.68z"/>
					<path style="fill:#FFFFFF;" d="M178.82,656.33c-0.67,4.979-8.34,8.02-11.8,5.05C165.54,653.17,176.11,650.9,178.82,656.33z"/>
					<path style="fill:#FFFFFF;" d="M154.94,255.7c1.04,0.92,2.16,1.77,3.35,2.56c-1.05-0.42-2.07-0.86-3.06-1.33
						C155.13,256.52,155.03,256.11,154.94,255.7z"/>
					<path style="fill:#FFFFFF;" d="M153.87,646.19c-0.11,0.06-0.22,0.119-0.32,0.17c0-0.04,0-0.091-0.01-0.141
						C153.65,646.21,153.76,646.19,153.87,646.19z"/>
					<path style="fill:#FFFFFF;" d="M161.97,652.96c-2.29,5.39-9.89-6.7-13.49,0c-4.99-2.49,5.5-3.01,5.07-6.6
						c0.1-0.051,0.21-0.11,0.32-0.17C159.28,645.74,158.67,651.3,161.97,652.96z"/>
					<path style="fill:#FFFFFF;" d="M178.82,656.33c-2.71-5.43-13.28-3.16-11.8,5.05C170.48,664.35,178.15,661.31,178.82,656.33z
						 M170.39,678.24c-7.48-13.87-23.04-19.65-32.05-32l0.03-0.021c8.67,1.851,9.97,2.761,15.18,0.141
						c0.43,3.59-10.06,4.109-5.07,6.6c3.6-6.7,11.2,5.39,13.49,0c-3.3-1.66-2.69-7.22-8.1-6.77c0.89-0.45,1.88-1,3.04-1.66
						c1.95,4.229,6.71,5.649,6.74,11.8c6.92-4.71,15.95-7.12,18.54,3.37c-5.95,0.229-7.54,4.819-13.48,5.06
						c-4.2-5.92-8.96-11.27-18.54-11.8c17.48,27.46,61.72,42.76,75.83,79.21c14.48,6.01,20.85,20.13,30.04,31.43
						c-9.41-10.529-19.13-20.729-30.04-29.75C213.56,709.22,194.32,691.38,170.39,678.24z"/>
					<path style="fill:#FFFFFF;" d="M138.37,646.22l-0.03,0.021c-3.28-4.49-5.69-9.84-6.53-16.771
						C134.65,634.41,136.92,639.9,138.37,646.22z"/>
					<path style="fill:#FFFFFF;" d="M131.56,615.57c0.03,0.1,0.05,0.199,0.07,0.31c-0.06-0.03-0.13-0.06-0.19-0.1
						C131.49,615.71,131.52,615.64,131.56,615.57z"/>
					<path style="fill:#FFFFFF;" d="M131.63,627.68c0.05,0.61,0.11,1.21,0.18,1.79c-0.83-1.45-1.71-2.85-2.63-4.21
						C130.02,626.04,130.84,626.85,131.63,627.68z"/>
					<path style="fill:#FFFFFF;" d="M116.26,349.87c-1.21-0.94-2.27-2.13-3.17-3.62c14.27-23.74,25.2-40.67,38.76-64.04
						c-8.01-27.87,3.04-62.31,8.43-87.63h1.69c-4.21,17.4-12.02,39.49-7.03,61.12c-1.83-1.61-3.42-3.43-4.77-5.51
						c-0.47,12.83-0.06,24.78,3.37,33.7c-12.86,22.52-30.28,41.22-37.08,65.73L116.26,349.87z"/>
					<path style="fill:#FFFFFF;" d="M112.67,416.83c0.6-1.07,1.3-2.13,2.11-3.17c2.2,3.97,0.71,11.64,3.37,15.16l-0.03,0.069
						c-1.17-0.54-2.29-1.13-3.34-1.75C113.84,423.94,116.94,416.7,112.67,416.83z"/>
					<path style="fill:#FFFFFF;" d="M111.43,419.47c-0.01-0.8-0.02-1.61-0.02-2.44c0.48-0.13,0.9-0.19,1.26-0.2
						C112.19,417.7,111.77,418.58,111.43,419.47z"/>
					<path style="fill:#FFFFFF;" d="M124.89,420.4c-4.27-8.09-7.49-17.23-15.17-21.91c0-1.68,0-3.37,0-5.06
						c3.86-4.56,12.24-4.61,18.54-6.74c5.37,5.13,5.62,10.94,6.74,16.86l0.04,0.03c-0.5,0.6-1.07,1.16-1.72,1.65
						c-2.04-6.61,0.23-11.3-5.06-16.85c-5.56,2.86-16.38,0.47-16.85,8.43c6.18,5.61,10.93,12.66,13.48,21.9
						c14.85,1.44,20.59,12,37.08,11.8c-11.8,5.891-31.1,4.36-43.85-1.62l0.03-0.069c11.81,0.3,27.6,7.71,35.39,1.689
						C139.52,431.61,139.16,419.05,124.89,420.4z"/>
					<path style="fill:#FFFFFF;" d="M111.41,605.77c6.48,5.94,12.75,12.091,17.77,19.49c-6.41-6.04-13.83-11.08-17.98-19.38
						L111.41,605.77z"/>
					<path style="fill:#FFFFFF;" d="M111.2,605.88c-0.56-1.1-1.05-2.26-1.48-3.479c0.42-0.061,0.82-0.11,1.22-0.141
						c0.12-0.02,0.24-0.029,0.36-0.04c12.17-0.93,12.68,9.8,20.14,13.561c-0.35,0.63-0.84,1.229-1.49,1.79
						c-5.23-3.811-9.42-17.5-18.54-11.801L111.2,605.88z"/>
					<path style="fill:#FFFFFF;" d="M110.91,560.44c0.02-0.011,0.04-0.011,0.06-0.021c-0.06,0.03-0.07,0.03-0.07,0.03
						C110.91,560.45,110.91,560.44,110.91,560.44z"/>
					<path style="fill:#FFFFFF;" d="M108.52,580.4c-0.16,0.04-0.32,0.069-0.48,0.1c0.01-0.14,0.01-0.28,0.01-0.41
						C108.21,580.21,108.36,580.31,108.52,580.4z"/>
					<path style="fill:#FFFFFF;" d="M106.26,479.46c1.32-1.54,2.51-3.21,3.46-5.13c7.19-21.58-4.31-39.73,1.71-54.86
						c0.3,19.9,4.2,31.36-0.02,54.86c-1.74,1.68-3.39,3.46-4.96,5.3L106.26,479.46z"/>
					<path style="fill:#FFFFFF;" d="M108.05,580.09c-0.01-2.68-2.06-3.3-1.7-6.34c5.56,10.77,16.64-9.34,18.54,3.37
						c-7.87,2.36-8.61,1.78-16.37,3.28C108.36,580.31,108.21,580.21,108.05,580.09z"/>
					<path style="fill:#FFFFFF;" d="M106.45,479.63c-5.66,6.62-10.39,14.15-14.99,21.82l-0.27-0.16
						c1.27-11.021,9.37-15.22,15.07-21.83L106.45,479.63z"/>
					<path style="fill:#FFFFFF;" d="M85.24,550.35c0.32,0.4,0.66,0.801,1.01,1.19C85.9,551.15,85.57,550.76,85.24,550.35z"/>
					<path style="fill:#FFFFFF;" d="M84.45,508.03c-3.93-3.37-4.14-10.521,0-13.48C89.41,496.88,88.16,505.48,84.45,508.03z"/>
					<path style="fill:#FFFFFF;" d="M85.12,550.2c0.03,0.05,0.07,0.09,0.11,0.14C85.2,550.3,85.16,550.25,85.12,550.2z"/>
					<path style="fill:#FFFFFF;" d="M85.12,550.2c0.04,0.05,0.08,0.1,0.11,0.14c0.01,0.01,0.01,0.01,0.01,0.01
						c0.33,0.41,0.66,0.801,1.01,1.19c0.35,0.4,0.71,0.79,1.09,1.17c0.36,0.37,0.73,0.73,1.11,1.08c0.59,0.54,1.2,1.06,1.82,1.57
						c5.99,4.779,13.55,7.33,20.29,5.199c-4.33,1.471-9.03,2.58-12.63,4.771c5.89,7.07,10.44,1.939,12.97-4.88c0,0,0.01,0,0.07-0.03
						c-0.02,0.01-0.04,0.01-0.06,0.021c1.27-3.44,2.03-7.32,2.18-10.28c7.36,11.609-10.26,14.13-5.05,23.59
						c5.91,5.07,9.53-2.94,15.17-3.37c1.51,2.98,4.06,4.92,5.05,8.43c-9.3,1.721-13.86,5.29-19.74,1.591
						c7.76-1.5,8.5-0.92,16.37-3.28c-1.9-12.71-12.98,7.399-18.54-3.37c-0.36,3.04,1.69,3.66,1.7,6.34
						c-1.07-0.729-2.18-1.7-3.38-2.97c1.49,7.5,0.49,17.49,5.05,21.91c6.38,2.439,3.24-4.63,8.43-3.37
						c5.69,3.24,16.86,13.229,13.41,19.91c-1.6-7.261-5.61-12.101-10.04-16.54c-4.51-2.4-6.59,1.17-10.31,1.43
						c-0.15,0.01-0.3,0.021-0.45,0.021c-1.24,0-2.67-0.381-4.41-1.45c0.8-28.141-21.05-36.641-23.59-52.24
						c0.6,1.01,1.27,1.99,1.99,2.94C84.87,549.89,85,550.05,85.12,550.2z"/>
					<path style="fill:#FFFFFF;" d="M84.45,494.55c-4.14,2.96-3.93,10.11,0,13.48C88.16,505.48,89.41,496.88,84.45,494.55z
						 M84.45,513.08c-4.54-9.5-19.01-9.08-23.6-18.53c2.78,23.061,24.01,36.65,25.28,55.61c-0.08-0.26-0.16-0.53-0.25-0.79
						c-6.69-21.601-24.47-32.13-26.71-58.19c5.67,6.681,12.99,11.721,21.9,15.16c-3.5-6.31-0.03-11.21,5.06-13.479
						c1.97,2.52,2.1,6.89,5.06,8.43l0.27,0.16C89.12,505.33,86.82,509.24,84.45,513.08z"/>
				</g>
				<g>
					<polyline style="fill:none;stroke:#231F20;stroke-width:7;" points="555.58,71.68 801.6,71.68 801.6,122.17 801.6,177.86 
						801.6,231.94 557.05,231.94 					"/>
					<path style="fill:none;stroke:#231F20;stroke-width:7;" d="M537.4,60.89c-4.631-2.06-7.73-5.79-7.73-10.04
						c0-6.5,7.23-11.76,16.14-11.76c8.91,0,16.141,5.26,16.141,11.76c0,4.15-2.95,7.8-7.41,9.9c-2.521,1.18-5.521,1.86-8.73,1.86
						C542.73,62.61,539.85,61.99,537.4,60.89z"/>
					<polyline style="fill:none;stroke:#231F20;stroke-width:7;" points="537.4,60.57 537.4,60.89 537.88,343.83 					"/>
					<polyline style="fill:none;stroke:#231F20;stroke-width:7;" points="554.54,59.98 554.54,60.75 554.54,343.83 					"/>
					<polyline style="fill:none;stroke:#231F20;stroke-width:7;" points="555.12,122.17 556.04,122.17 801.52,122.17 					"/>
					<line style="fill:none;stroke:#231F20;stroke-width:7;" x1="556.81" y1="177.86" x2="800.68" y2="177.86"/>
					<path style="fill:none;stroke:#231F20;stroke-width:7;" d="M491.35,265.2c9.78-0.13,19.36-0.18,28.591,0.07"/>
					<path style="fill:none;stroke:#231F20;stroke-width:7;" d="M483.99,265.29c2.279-0.03,4.55-0.06,6.81-0.09"/>
					<line style="fill:none;stroke:#231F20;stroke-width:7;" x1="298.47" y1="808" x2="299.19" y2="808"/>
					<line style="fill:none;stroke:#231F20;stroke-width:7;" x1="294.96" y1="808" x2="296.78" y2="808"/>
					<path style="fill:none;stroke:#231F20;stroke-width:7;" d="M159.64,194.58c0,0,0.18,0,0.64,0"/>
					<line style="fill:none;stroke:#231F20;stroke-width:7;" x1="162.61" y1="194.58" x2="161.97" y2="194.58"/>
					<path style="fill:none;stroke:#231F20;stroke-width:7;" d="M440.75,272.35c0.21-0.48,0.41-0.98,0.59-1.5
						c1.04-3.03,1.37-6.77,0.46-11.76c-0.03-0.15-0.06-0.31-0.09-0.47c-0.13-0.01-0.27-0.01-0.4-0.02
						c-11.779-0.51-24.01-1.19-36.52-1.86c-3.71-0.21-7.44-0.41-11.2-0.61c-22.85-1.2-46.43-2.26-69.71-2.27
						c-14.28,0-28.45,0.39-42.26,1.39c-3.33,32.54,1.96,69.52,0,106.17c-37.08,0-74.15,0-111.23,0c-4.75,0.3-2.1,8.01-8.42,6.74
						c-7.64-7.82-22.84-17.48-30.34-3.37c3.47,8.98,11.1,29.66,3.41,38.79c-0.5,0.6-1.07,1.16-1.72,1.65
						c-2.04-6.61,0.23-11.3-5.06-16.85c-5.56,2.86-16.38,0.47-16.85,8.43c6.18,5.61,10.93,12.66,13.48,21.9
						c14.85,1.44,20.59,12,37.08,11.8c-11.8,5.891-31.1,4.36-43.85-1.62c-1.17-0.54-2.29-1.13-3.34-1.75
						c-0.94-3.2,2.16-10.439-2.11-10.31c-0.36,0.01-0.78,0.07-1.26,0.2c0,0.83,0.01,1.64,0.02,2.44c0.3,19.9,4.2,31.36-0.02,54.86
						c-1.74,1.68-3.39,3.46-4.96,5.3c-5.66,6.62-10.39,14.15-14.99,21.82c-2.34,3.88-4.64,7.79-7.01,11.63
						c-4.54-9.5-19.01-9.08-23.6-18.53c2.78,23.061,24.01,36.65,25.28,55.61c-0.08-0.26-0.16-0.53-0.25-0.79
						c-6.69-21.601-24.47-32.13-26.71-58.19c5.67,6.681,12.99,11.721,21.9,15.16c-3.5-6.31-0.03-11.21,5.06-13.479
						c1.97,2.52,2.1,6.89,5.06,8.43c1.27-11.021,9.37-15.22,15.07-21.83c1.32-1.54,2.51-3.21,3.46-5.13
						c7.19-21.58-4.31-39.73,1.71-54.86c0.34-0.89,0.76-1.77,1.24-2.64c0.6-1.07,1.3-2.13,2.11-3.17c2.2,3.97,0.71,11.64,3.37,15.16
						c11.81,0.3,27.6,7.71,35.39,1.689c-14.02,1.101-14.38-11.46-28.65-10.11c-4.27-8.09-7.49-17.23-15.17-21.91
						c0-1.68,0-3.37,0-5.06c3.86-4.56,12.24-4.61,18.54-6.74c5.37,5.13,5.62,10.94,6.74,16.86c3.84-12.61-0.75-28.94-5.05-38.76
						c3.1-7.96,14.59-12.48,21.9-6.75c-8.45-8.05-26.18-0.76-35.59-8.17c-1.21-0.94-2.27-2.13-3.17-3.62
						c14.27-23.74,25.2-40.67,38.76-64.04c-8.01-27.87,3.04-62.31,8.43-87.63h1.69c-4.21,17.4-12.02,39.49-7.03,61.12
						c0.09,0.41,0.19,0.82,0.29,1.23c0.99,0.47,2.01,0.91,3.06,1.33c29.48,11.74,80.03,2.43,118.27,5.41
						c6.25-0.49,0.76-12.72,8.43-11.79c11.41-4.47,21.89,0.76,33.7,1.68c1.73,0.14,3.46,0.2,5.19,0.2c14.01,0,27.81-3.97,42-3.57
						c9.2,0.26,18.52,4.21,27.71,5.94c2.58,0.49,5.14,0.8,7.68,0.8c1.14,0,2.32-0.07,3.52-0.19c9.28-0.95,20.01-5.05,28.5-3.18
						c3.61,0.79,5.87,2.91,8.02,5.04c0.16,0.16,0.33,0.33,0.49,0.49c1.92,1.92,3.84,3.77,6.65,4.58c24.1,0.99,48.939-0.54,71.55-0.2
						"/>
					<path style="fill:none;stroke:#231F20;stroke-width:7;" d="M481.68,327.65c-3.93,1.28-7.91,3.14-11.899,5.11
						c-11.5,5.66-23.03,12.13-33.391,7.89c-0.96-0.39-1.909-0.88-2.85-1.47c-0.65-0.4-1.3-0.85-1.94-1.36
						c1.061-3.43,8.521-0.47,6.74-6.74c-1.85-7.69-6.729-12.36-10.109-18.54c-1.33-9.51,2.829-13.37,4.25-18.74
						c0.699-2.65,0.739-5.66-0.881-9.91c3.08-3.79,6.96-6.76,9.11-11.46"/>
					<path style="fill:none;stroke:#231F20;stroke-width:7;" d="M537.35,536.25c-1.51-3.24-2.899-6.45-2.949-9.68
						c-0.181-12.36,9.979-23.641,8.43-32.021c-1.99-10.75-13.87-14.03-24.7-13.74c-0.24,0-0.479,0.011-0.71,0.021
						c-1.1,0.05-2.18,0.13-3.24,0.24c1.42-7.04-3.279-7.96-3.37-13.49c-11.199-6.18-19.229,4-23.6-6.74
						c9.29-9.12,8.97-20.53,3.37-33.7c6.32-8.28,9.61-19.6,16.81-27h0.011c0.55-0.59,1.119-1.13,1.72-1.65c4.97,0,9.93,0,14.899,0
						c0.091,0,0.181,0,0.271,0c0.07-0.08,0.15-0.16,0.22-0.24c6.891-7.55,11.79-17.11,16.63-26.72
						c-9.5-11.85-16.83-25.86-21.909-42.13c-11.41,4.32-18.851-4.53-30.33-3.37c-2.37,0.24-4.771,0.81-7.2,1.61"/>
					<path style="fill:none;stroke:#231F20;stroke-width:7;" d="M259.87,767.92c1.02,1.05,2.09,2.05,3.21,3
						c3.07-19.4,16.14-28.8,32.02-35.38c6.52,6.07,19.18,23.18,30.33,13.479c5.58-4.079-7.24-3.859-5.05-10.109
						c3.69-5.49,5.85-12.51,10.36-17.19c0.44-0.47,0.92-0.93,1.43-1.35c-0.85-0.53-1.74-1.04-2.64-1.521
						c-6.79-3.619-14.83-6-20.95-10.279c-1.65-9.34,4.95-10.431,8.21-14.86c0.08-0.1,0.15-0.2,0.22-0.3c-0.5-0.67-1-1.311-1.52-1.92
						c-4.92-5.971-10.3-9.55-15.76-10.931c-0.27-0.06-0.54-0.13-0.81-0.18c-1.27-0.28-2.55-0.43-3.82-0.46
						c12.65-9.41,5.14-27.66,5.03-40.439c-0.02-0.58-0.01-1.141,0.02-1.69c6.46-0.61,7.64,4.05,11.17,6.36
						c0.2,0.14,0.41,0.26,0.63,0.38c0.22-0.08,0.43-0.17,0.64-0.25c5.79-2.34,10.48-5.78,17.9-6.49c7.93,12.3,27.95,1.19,42.13,0
						c7.21-14.42-2.5-20.72-3.37-35.39c8.64,3.029,8-4.471,18.54-6.74c6.88,1.29,11.51,4.83,15.01,9.49
						c0.54,0.71,1.04,1.439,1.53,2.189c4.13,6.42,6.68,14.42,10.1,21.561c0.82,1.72,1.69,3.38,2.66,4.96
						c0.83,1.38,1.73,2.699,2.72,3.93c16.18-1.01,22.38,7.95,37.07,8.43l0.01-0.01c8.32-7.56,17.311-14.47,23.141-24.52
						c0.319-0.54,0.63-1.101,0.93-1.66c0.42-0.8,0.82-1.62,1.2-2.46c4.05,10.27,13.06,17.779,8.42,32.02
						c4.08,3.23,13.55,1.061,20.229,1.68c6.65-10.239,10.71-25.56,11.601-38.77c0.12-1.72,0.18-3.41,0.189-5.04
						c4.78-1.97,11.15-2.34,13.49-6.74c-7.39-16.02,6.42-33.04,5.22-52c-0.04-0.64-0.09-1.279-0.17-1.93
						c-0.42-3.58-2.17-7.06-3.779-10.51"/>
					<path style="fill:none;stroke:#231F20;stroke-width:7;" d="M256.1,763.68c1.17,1.431,2.38,2.82,3.68,4.141"/>
					<path style="fill:none;stroke:#231F20;stroke-width:7;" d="M153.87,646.19c0.89-0.45,1.88-1,3.04-1.66
						c1.95,4.229,6.71,5.649,6.74,11.8c6.92-4.71,15.95-7.12,18.54,3.37c-5.95,0.229-7.54,4.819-13.48,5.06
						c-4.2-5.92-8.96-11.27-18.54-11.8c17.48,27.46,61.72,42.76,75.83,79.21c14.48,6.01,20.85,20.13,30.04,31.43"/>
					<path style="fill:none;stroke:#231F20;stroke-width:7;" d="M110.91,560.44c1.27-3.44,2.03-7.32,2.18-10.28
						c7.36,11.609-10.26,14.13-5.05,23.59c5.91,5.07,9.53-2.94,15.17-3.37c1.51,2.98,4.06,4.92,5.05,8.43
						c-9.3,1.721-13.86,5.29-19.74,1.591c-0.16-0.091-0.31-0.19-0.47-0.311c-1.07-0.729-2.18-1.7-3.38-2.97
						c1.49,7.5,0.49,17.49,5.05,21.91c6.38,2.439,3.24-4.63,8.43-3.37c5.69,3.24,16.86,13.229,13.41,19.91
						c-0.04,0.069-0.07,0.14-0.12,0.21c-0.35,0.63-0.84,1.229-1.49,1.79c-5.23-3.811-9.42-17.5-18.54-11.801
						c6.48,5.94,12.75,12.091,17.77,19.49c0.92,1.36,1.8,2.76,2.63,4.21c2.84,4.94,5.11,10.431,6.56,16.75
						c8.67,1.851,9.97,2.761,15.18,0.141"/>
					<path style="fill:none;stroke:#231F20;stroke-width:7;" d="M110.56,560.56c-4.33,1.471-9.03,2.58-12.63,4.771
						c5.89,7.07,10.44,1.939,12.97-4.88"/>
					<path style="fill:none;stroke:#231F20;stroke-width:7;" d="M110.9,560.45c0,0,0.01,0,0.51-0.181
						c-0.25,0.091-0.37,0.131-0.44,0.15c-0.02,0.01-0.04,0.01-0.06,0.021"/>
					<path style="fill:none;stroke:#231F20;stroke-width:7;" d="M505.98,265.1c-4.811-0.01-9.69,0.04-14.631,0.1
						c-0.18,0-0.369,0-0.55,0c-2.26,0.03-4.53,0.06-6.81,0.09c-2.46,0.04-4.931,0.07-7.41,0.1c-10.96,0.15-22.08,0.24-33.18-0.03
						c-0.69,1.94-1.381,3.76-2.061,5.49c-0.149,0.38-0.3,0.76-0.46,1.16c-0.06,0.14-0.11,0.28-0.149,0.39c0,0-0.011,0.01-0.021,0.03
						c-3.1,7.75-6,13.88-8.02,21.43c-1.5,5.59-2.511,11.97-2.771,20.37c6.29,3.26,7.66,11.44,10.11,18.54
						c-0.17,4.13-5.261,3.34-6.49,6.41c-0.22,0.54-0.32,1.19-0.25,2.01c1.04-0.18,2.07-0.36,3.1-0.54
						c11.7-2.06,23.181-4.34,33.391-7.89c4.2-1.46,8.189-3.13,11.92-5.12c-0.01,0-0.01,0.01,0,0c1.92-1.02,3.76-2.11,5.51-3.3
						c14.95-0.51,17.44,6.96,32.021,3.37c7.869,14.04,11.369,32.45,23.6,42.13c-5.4,10.18-8.021,23.13-18.32,28.41
						c-0.16,0.08-0.33,0.16-0.49,0.24c-4.119,1.97-9.439,2.74-16.579,1.69c-3.86,10.74-11.44,17.77-15.171,28.64
						c7.94,12.93,3.11,23.14-3.369,33.71c5.1,4.66,12.229-1.8,21.909,3.37c3.051,4.13,4.03,10.33,6.61,14.93
						c0.04,0.08,0.08,0.16,0.13,0.24c0.19-0.09,0.391-0.181,0.58-0.261c12.78-5.579,25.16,5.521,26.38,15.421
						c1.141,9.159-8.85,21.06-8.42,32.02c0.11,2.82,0.59,5.44,1.26,8c0,0.01,0.011,0.01,0.011,0.02c0,0,0,0,0,0.011
						c1.109,4.21,2.72,8.17,3.949,12.439c1.86,6.46,2.841,13.61-0.17,23.351c-1.649,5.359-10.229,17.38-3.37,30.33
						c-4.14,4.279-13.119,3.729-15.17,10.109c2.74,13.271-3.63,30.16-11.77,38.78c-0.561,0.6-1.13,1.16-1.71,1.67
						c-7.3-0.57-17.65,1.92-20.22-3.37c4.01-12.96-2.62-21.31-7.94-29.56c-0.16-0.261-0.33-0.511-0.49-0.771
						c-0.109,0.84-0.26,1.65-0.439,2.431c-2.92,12.96-14.141,17.649-22.99,24.68c-0.63,0.5-1.24,1.01-1.84,1.53
						c-12.53-2.42-29.49-11.45-38.76-6.74c1.1-2.86,1.18-5.22,0.65-7.3c-0.48-1.82-1.45-3.431-2.66-4.96
						c-4.4-5.631-11.95-10.33-10.1-21.561c0.08-0.51,0.19-1.03,0.31-1.57c-0.65-0.17-1.26-0.38-1.84-0.619
						c-5.8-2.36-8.62-7.721-16.7-7.801c-6.96,5.61-11.05,6.761-15.17,8.42c3.54,11.551,10.22,22.33,1.69,33.711
						c-15.34,2.06-34.01,11.329-43.82,0c-6.88,3.27-11.49,5.079-16.21,4.8c-0.42-0.021-0.85-0.07-1.27-0.13
						c-3.3-0.46-6.76-1.94-11.17-4.67c8.19,14.76,2.32,31.14-1.23,40.899c-0.16,0.42-0.31,0.83-0.45,1.23
						c0.42-0.4,0.84-0.75,1.26-1.051c6.31-4.409,11.7,4.011,15.76,10.931c0.45,0.77,0.89,1.51,1.3,2.22c0.68,1.15,1.31,2.2,1.9,3.07
						c-5.75,0.42-8.75,3.6-8.42,10.109c9.68,5.03,16.53,8.021,19.26,11.96c0.62,0.891,1.03,1.841,1.21,2.87
						c0.67,3.891-1.94,8.99-8.68,17.19c-0.93,6.58,11.1,5.25,5.06,11.79c-13.29,10.319-24.91-8.271-33.71-13.48
						c-14.92,6.65-25.37,17.78-30.11,34.61c-0.08,0.26-0.15,0.52-0.22,0.78c0.5,0.21,1,0.43,1.48,0.67
						c15.45,7.41,20.47,25.279,33.91,34.72c0,0-0.81,0-1.69,0c-11.48-10.83-21.81-22.81-32.22-34.72
						c-0.41-0.49-0.84-0.971-1.26-1.45c-1.11-1.28-2.23-2.55-3.43-3.91c-0.03-0.03-0.06-0.07-0.09-0.1
						c-0.92-1.04-1.83-2.08-3.74-4.221c0.32,0.36,0.64,0.721,0,0c-9.41-10.529-19.13-20.729-30.04-29.75
						c-12.44-24.63-31.68-42.47-55.61-55.609c-7.48-13.87-23.04-19.65-32.05-32c-3.28-4.49-5.69-9.84-6.53-16.771
						c-0.07-0.58-0.13-1.18-0.18-1.79c-0.79-0.83-1.61-1.64-2.45-2.42c-6.41-6.04-13.83-11.08-17.98-19.38
						c-0.56-1.1-1.05-2.26-1.48-3.479c0.42-0.061,0.82-0.11,1.22-0.141c0.12-0.02,0.24-0.029,0.36-0.04
						c12.17-0.93,12.68,9.8,20.14,13.561c0.06,0.04,0.13,0.069,0.19,0.1c-0.02-0.11-0.04-0.21-0.07-0.31
						c-1.6-7.261-5.61-12.101-10.04-16.54c-4.51-2.4-6.59,1.17-10.31,1.43c-0.15,0.01-0.3,0.021-0.45,0.021
						c-1.24,0-2.67-0.381-4.41-1.45c0.8-28.141-21.05-36.641-23.59-52.24c0.6,1.01,1.27,1.99,1.99,2.94
						c0.12,0.159,0.25,0.319,0.37,0.47c0.04,0.05,0.08,0.1,0.11,0.14c0.01,0.01,0.01,0.01,0.01,0.01c0.33,0.41,0.66,0.801,1.01,1.19
						c0.35,0.4,0.71,0.79,1.09,1.17c0.36,0.37,0.73,0.73,1.11,1.08c0.59,0.54,1.2,1.06,1.82,1.57c5.97,4.739,13.55,7.27,20.51,5.13
						c0.01-0.01,0.02-0.01,0.12-0.04c-0.04,0.02-0.07,0.03-0.1,0.04c0,0,0.01-0.01,0,0c-0.01,0-0.01,0-0.02,0
						c-0.01,0.01-0.01,0.01,0.02,0"/>
					<path style="fill:none;stroke:#231F20;stroke-width:7;" d="M154.94,255.7c-1.83-1.61-3.42-3.43-4.77-5.51
						c-0.47,12.83-0.06,24.78,3.37,33.7c-12.86,22.52-30.28,41.22-37.08,65.73c13.01,2.69,24.25,1.84,37.08,5.05
						c-2.34,3.92,2.81,7.5,8.43,11.8c6.44,1.38,1.98-8.12,8.42-6.74c36.51,0,73.03,0,109.54,0c0.55-32.57-0.33-63.71-1.68-94.37
						c-37.31-5.05-94.42,9.7-119.96-7.1C157.1,257.47,155.98,256.62,154.94,255.7z"/>
					<path style="fill:none;stroke:#231F20;stroke-width:7;" d="M178.82,656.33c-2.71-5.43-13.28-3.16-11.8,5.05
						C170.48,664.35,178.15,661.31,178.82,656.33z"/>
					<path style="fill:none;stroke:#231F20;stroke-width:7;" d="M108.52,580.4c7.76-1.5,8.5-0.92,16.37-3.28
						c-1.9-12.71-12.98,7.399-18.54-3.37c-0.36,3.04,1.69,3.66,1.7,6.34c0,0.13,0,0.271-0.01,0.41
						C108.2,580.47,108.36,580.44,108.52,580.4z"/>
					<path style="fill:none;stroke:#231F20;stroke-width:7;" d="M84.45,494.55c-4.14,2.96-3.93,10.11,0,13.48
						C88.16,505.48,89.41,496.88,84.45,494.55z"/>
					<path style="fill:none;stroke:#231F20;stroke-width:7;" d="M153.55,646.36c0-0.04,0-0.091-0.01-0.141
						c0.11-0.01,0.22-0.029,0.33-0.029c5.41-0.45,4.8,5.109,8.1,6.77c-2.29,5.39-9.89-6.7-13.49,0
						C143.49,650.47,153.98,649.95,153.55,646.36z"/>
				</g>
			</g>
		</g>
	</g>
</g>
<rect style="fill:none;" width="850.394" height="850.394"/>
</svg>
