<svg xmlns="http://www.w3.org/2000/svg" width="850.89" height="850.89" viewBox="0 0 850.89 850.89" overflow="visible"><path d="M284.46 351.74c.52-.53 1.05-1.05 1.58-1.57.06.04.11.08.17.12l.57-.84c5.13-5.02 10.47-9.84 15.36-15.09 28.53 7.57 41.35 30.85 62.11 46.19 13.63-4.95 22.36-14.8 33.45-22.3-14.16-39.88 51.899-56.06 78.04-71.67 7.319 8.08 13.55 17.26 19.899 26.32 10.051 14.36 20.391 28.43 35.841 37.39.85 10.11 3.85 20.57 7.52 31.18 1.16 6.32 2.71 12.53 5.23 18.19.84 1.9 1.979 3.54 3.22 5.06 9.33 26.04 16.17 52.07-.88 75.169-.011.011-.011.021-.021.03-.319.38-.64.76-.979 1.13a27.95 27.95 0 0 1-5.49 2.69c-.6.189-1.19.39-1.79.59h-.01c-10.69 3.2-23.2 1.33-37.061 6.12-17.359 5.99-28.149 38.45-47.779 44.59-12.721 3.979-26.46 1.66-38.22 4.78-6.65 1.76-12.81 4.12-18.43 7.08-4.64 1.729-9.13 4.05-13.43 7.25-3.13 2.369-5.54 5.67-7.54 9.449-7.87 9.311-13.41 21-16.35 35.15-15.09 11.11-30.16-5.5-44.59-3.19 2.11 15.74 20.82 42.23 44.59 23.9 2.25-2.11-2.42-6.04-2.51-9.36 1.04-1.39 2.48-2.699 4.23-3.93 21.8-6.77 50.31-14.689 87.47-12.2 6.45.44 14.49.69 21.609 1.16 6.29.42 11.87 1 15.03 2.03 13.36 4.33 17.181 20.35 25.48 27.07-23.92 45.1-56.7 81.34-79.641 127.42-11.49 5.949-29.64 5.52-41.97.439-.43-.27-.84-.53-1.24-.81-3.61-6.29-5.68-14.11-9.34-20.34-35.66-16.83-61.87 7.35-101.94 15.93-22.08 4.729-46.21 1.16-63.7 4.78-13.33 2.76-23.29 14.449-35.04 15.93-20.15 2.51-37.65-7.58-54.15-12.75 1.66-35.87 7.98-71.63 0-108.3-2.34-10.721-9.41-22.12-9.56-31.851-.38-24.34 16.41-42.649 19.11-65.3 12.4-4.04 21.97-10.68 29.99-18.99.09-.04.18-.09.27-.13.08-.14.17-.279.25-.42 12.14-12.77 20.74-29.38 30.35-46.57 9.28-13.46 18.73-26.819 27.77-39.989 3.07-3.23 6.06-6.5 8.53-10.17 5.63-8.37 8.88-18.96 14.33-25.48 5.46-6.53 14.15-9.94 17.52-15.93 3.26-5.79 3.48-13.27 6.37-19.11 3.92-7.94 9.42-14.42 15.39-20.47l.54-.24a1.712 1.712 0 0 1-.158-.137z" fill="#fff5b4"/><path d="M268.69 372.59c-2.89 5.84-3.11 13.32-6.37 19.11-3.37 5.99-12.06 9.4-17.52 15.93-5.45 6.52-8.7 17.11-14.33 25.48-2.47 3.67-5.46 6.939-8.53 10.17 2.35-3.4 4.66-6.79 6.93-10.17 5.49-8.15 8.6-18.541 14.34-25.48 4.95-5.99 13.62-9.12 17.52-15.93 7.91-13.81 7.01-32.07 23.35-39.58-5.97 6.05-11.47 12.53-15.39 20.47z"/><path d="M378.59 732.54c-35.3-16.87-62.29 7.43-101.94 15.92-22.34 4.79-45.91 1.1-63.7 4.78-12.89 2.67-23.62 14.5-35.04 15.93-20.43 2.55-39.65-7.31-55.75-14.34 1.67-35.87 7.99-71.63 0-108.3-2.33-10.721-9.4-22.12-9.55-31.851-.39-24.34 16.41-42.649 19.11-65.3 11.93-4.93 20.12-13.59 31.58-18.99-8.02 8.311-17.59 14.95-29.99 18.99-2.7 22.65-19.49 40.96-19.11 65.3.15 9.73 7.22 21.13 9.56 31.851 7.98 36.67 1.66 72.43 0 108.3 16.5 5.17 34 15.26 54.15 12.75 11.75-1.48 21.71-13.17 35.04-15.93 17.49-3.62 41.62-.051 63.7-4.78 40.07-8.58 66.28-32.76 101.94-15.93 3.66 6.229 5.73 14.05 9.34 20.34-5.82-4-9.62-10.06-9.34-18.74z" fill="#fff"/><path fill="#a8d7f4" d="M790.49 76.24v80.68H648.8l-91.58-80.68z"/><path fill="#58b947" d="M790.49 156.92v71.27h-231.3v-2.47l89.61-68.8h140.82z"/><path fill="#231f20" d="M601.78 154.23l.13.73-.53.51zM597.82 142.37l.32.65-1.05-.76zM591.85 162.39l-.65.34-.66-.34zM584.57 142.37l.73-.11-1.05.76zM580.61 154.23l.4 1.24-.52-.51z"/><path fill="#ed1e29" d="M609.81 144.11l2.81.41-2.03 1.98-8.68 8.46-.13-.73-.4 1.24.53-.51 2.05 11.94.48 2.8-2.51-1.32-10.73-5.65.65-.34h-1.31l.66.34-10.73 5.65-2.51 1.32.48-2.8 2.05-11.94.52.51-.4-1.24-.12.73-8.68-8.46-2.03-1.98 2.8-.41 11.99-1.74-.32.65 1.05-.76-.73.11 5.37-10.88 1.26-2.54 1.25 2.54 5.37 10.88-.73-.11 1.05.76-.32-.65z"/><path d="M622.27 278.62c-26.59-15.03-31.579 24.56-54.149 12.74 1.53-12.27 6.57-21.03 6.37-35.04h1.59c.21 14.01-4.84 22.77-6.37 35.04 22.92 6.31 26.1-28.4 52.56-14.33l-.001 1.59zM546.57 479.89c17.05-23.1 10.21-49.13.88-75.169 2.97 3.66 6.51 6.63 7.92 10.87 7.44 22.409 4.31 48.599-8.8 64.299z"/><path d="M601.93 168.38l2.511 1.32-.48-2.8-2.05-11.94 8.68-8.46 2.03-1.98-2.811-.41-11.989-1.74-5.37-10.88-1.25-2.54-1.26 2.54-5.37 10.88-11.99 1.74-2.8.41 2.029 1.98 8.681 8.46-2.05 11.94-.48 2.8 2.51-1.32 10.73-5.65 10.729 5.65zm-42.74 57.34v2.47H556.24V76.24h.979l91.58 80.68-89.609 68.8z" fill="#fff"/><path d="M547.96 45.34c8.45 0 15.31 4.99 15.31 11.15 0 3.94-2.8 7.4-7.029 9.38-2.391 1.12-5.23 1.78-8.28 1.78-2.92 0-5.65-.6-7.97-1.64-4.4-1.95-7.33-5.48-7.33-9.52-.001-6.16 6.849-11.15 15.299-11.15z" fill="#c8c8c8"/><path d="M547.96 67.65c3.05 0 5.89-.66 8.28-1.78V334.29h-15.8l-.45-268.28c2.32 1.04 5.05 1.64 7.97 1.64z" fill="#c8c8c8"/><path d="M546.55 479.92c-.24.33-.479.65-.729.97-.08.051-.17.11-.25.16.339-.37.659-.75.979-1.13zM545.57 481.05c-.431.49-.88.96-1.34 1.431-1.41.39-2.79.81-4.15 1.26a27.956 27.956 0 0 0 5.49-2.691zM547.45 404.72c-1.24-1.52-2.38-3.16-3.22-5.06-2.521-5.66-4.07-11.87-5.23-18.19 2.66 7.7 5.67 15.48 8.45 23.25zM538.29 484.33c.6-.2 1.19-.4 1.79-.59-.59.21-1.19.41-1.79.59zM533.08 348.7c3.02 9.57 3.83 21.35 5.92 32.77-3.67-10.61-6.67-21.07-7.52-31.18-15.45-8.96-25.79-23.03-35.841-37.39l.23-.16c10.151 14.24 22.481 26.3 37.211 35.96zM486.89 595.56c8.96 8.561 18.5 16.54 23.891 28.671-8.3-6.721-12.12-22.74-25.48-27.07-3.16-1.03-8.74-1.61-15.03-2.03l.011-.12c5.928.429 11.528.689 16.608.549zM448.66 593.97c-37.16-2.489-65.67 5.431-87.47 12.2 10.87-7.68 33.6-12.4 46.06-13.79 20.24-2.25 43.45 1.18 63.03 2.63l-.011.12c-7.119-.47-15.159-.72-21.609-1.16zM439.11 256.32c-5.761 6.91-20.14 4.52-27.081 0h4.78v1.59c7.87-.3 14.35 3.91 19.11-1.59h3.191zM451.85 536.63c-19 5.39-38.04 3.9-55.06 10.271 5.62-2.96 11.78-5.32 18.43-7.08 11.76-3.12 25.5-.801 38.22-4.78 19.63-6.14 30.42-38.6 47.779-44.59 13.86-4.79 26.37-2.92 37.061-6.12-11.561 3.89-22.16 8.75-38.65 7.71-18.53 10.479-24.35 37.949-47.78 44.589zM429.55 754.83c-10.74 3.97-28.89 4.26-40.38-2.74 12.33 5.08 30.48 5.51 41.97-.439 22.94-46.08 55.721-82.32 79.641-127.42 23.609 6.649 35.29 25.239 57.34 33.449 9.1 40.271 31.87 66.87 54.149 93.971v1.59c-22.02-27.36-46.649-52.101-54.149-93.971-20.66-8.539-34.07-24.34-54.16-33.439-22.27 33.62-46.45 66.28-68.479 101.93-7.301 11.811-11.381 26.07-19.11 36.63-4.04 5.511-10.48 8.96-15.87 13.11 6.658-7.251 13.258-14.551 19.048-22.671z"/><path d="M405.66 781.91c1.42-1.61 3.08-3.05 4.84-4.41-3.44 3.75-6.9 7.49-10.27 11.32 1.72-2.43 3.52-4.75 5.43-6.91z" fill="#fff"/><path d="M400.23 788.82c-6.46 9.069-11.92 19.54-18.46 28.13h-1.59c5.45-10.6 12.53-19.6 20.05-28.13z"/><path d="M389.17 752.09c-.35-.14-.69-.29-1.03-.439-.07-.12-.14-.24-.21-.37.4.279.81.539 1.24.809z" fill="#fff"/><path d="M383.36 554.15c4.3-3.2 8.79-5.521 13.43-7.25-8.17 4.279-15.2 9.84-20.97 16.699 2-3.779 4.41-7.079 7.54-9.449zM375.82 563.6c-6.07 11.42-8.5 27.221-16.27 35.221l-.08-.07c2.94-14.151 8.48-25.841 16.35-35.151zM359.47 606.71c.57-.18 1.14-.36 1.72-.54-1.75 1.23-3.19 2.54-4.23 3.93-.05-1.26.58-2.44 2.51-3.39z"/><path d="M356.96 610.1c.09 3.32 4.76 7.25 2.51 9.36-23.77 18.33-42.48-8.16-44.59-23.9 14.43-2.31 29.5 14.301 44.59 3.19l.08.07c-.53.54-1.09 1.05-1.67 1.52-12.88 10.36-25.81-3.63-41.41-3.18 2.25 11.97 19.29 37.88 39.82 22.3-1.93-3.42-1.45-6.55.67-9.36zM286.78 349.45c4.28-6.39 7.95-13.4 15.36-16.68 29.25 7.38 41.16 32.1 63.7 46.19 11.37-5.63 20.03-13.95 30.26-20.71-2.05-7.24-4.42-14.31-1.59-22.29 19.78-25.35 53.61-36.65 82.82-52.56-3.33-8.88-7-17.42-9.55-27.08h1.59c6.28 21.36 15 40.28 26.5 56.42l-.23.16c-6.35-9.06-12.58-18.24-19.899-26.32-26.141 15.61-92.2 31.79-78.04 71.67-11.09 7.5-19.82 17.35-33.45 22.3-20.76-15.34-33.58-38.62-62.11-46.19-4.891 5.25-10.231 10.07-15.361 15.09z"/><path d="M286.78 349.45l-.57.84c-.06-.04-.11-.08-.17-.12.24-.25.49-.49.74-.72z"/><path d="M284.62 351.88l-.54.24c.12-.13.25-.25.38-.38.05.05.11.1.16.14z" fill="#fff"/><path d="M284.46 351.74c-32.14-26.68-42.21-75.44-81.07-95.42h1.59c39.49 18.82 47.37 69.23 81.06 93.85-.53.52-1.06 1.04-1.58 1.57zM211.35 455.41c3.14-4.41 6.93-8.24 10.59-12.13-9.04 13.17-18.49 26.529-27.77 39.989 5.2-9.289 10.68-18.749 17.18-27.859z"/><path d="M194.17 483.27c-9.61 17.19-18.21 33.801-30.35 46.57 9.29-15.55 19.7-31.13 30.35-46.57z" fill="#fff"/><path d="M163.82 529.84c-.08.141-.17.28-.25.42-.09.04-.18.09-.27.13.18-.18.36-.37.52-.55z"/><g fill="none" stroke="#231f20"><path stroke-width="7" d="M557.22 76.24h233.27v151.95H558.62M539.99 66.01c-4.4-1.95-7.33-5.48-7.33-9.52 0-6.16 6.85-11.15 15.3-11.15s15.31 4.99 15.31 11.15c0 3.94-2.8 7.4-7.029 9.38-2.391 1.12-5.23 1.78-8.28 1.78-2.921 0-5.651-.6-7.971-1.64z"/><path stroke-width="7" d="M539.99 65.71v.3l.45 268.28M556.24 65.15v269.14M648.8 156.92l-91.58-80.68M648.8 156.92l-89.61 68.8M648.8 156.92h140.82"/><path stroke-width="5" d="M591.2 162.73l.65-.34h-1.31z"/><path stroke-width="5" d="M580.49 154.96l-2.05 11.94-.48 2.8 2.51-1.32 10.73-5.65"/><path stroke-width="5" d="M580.61 154.23l-.12.73.52.51z"/><path stroke-width="5" d="M584.57 142.37l-11.99 1.74-2.8.41 2.03 1.98 8.68 8.46"/><path stroke-width="5" d="M585.3 142.26l-.73.11-.32.65z"/><path stroke-width="5" d="M597.82 142.37l-5.37-10.88-1.25-2.54-1.26 2.54-5.37 10.88"/><path stroke-width="5" d="M597.82 142.37l-.73-.11 1.05.76z"/><path stroke-width="5" d="M601.91 154.96l8.68-8.46 2.03-1.98-2.81-.41-11.99-1.74"/><path stroke-width="5" d="M601.91 154.96l-.13-.73-.4 1.24z"/><path stroke-width="5" d="M591.2 162.73l10.73 5.65 2.51 1.32-.48-2.8-2.05-11.94"/><path d="M538.28 484.33c-11.561 3.89-22.16 8.75-38.65 7.71-18.53 10.479-24.35 37.95-47.78 44.59-19 5.39-38.04 3.9-55.06 10.271-4.64 1.729-9.13 4.05-13.43 7.25-3.13 2.369-5.54 5.67-7.54 9.449-6.07 11.42-8.5 27.221-16.27 35.221-.53.54-1.09 1.05-1.67 1.52-12.88 10.36-25.81-3.63-41.41-3.18 2.25 11.97 19.29 37.88 39.82 22.3-1.93-3.42-1.45-6.55.67-9.36 1.04-1.39 2.48-2.699 4.23-3.93 10.87-7.68 33.6-12.4 46.06-13.79 20.24-2.25 43.45 1.18 63.03 2.63 5.93.431 11.529.69 16.609.55 8.96 8.561 18.5 16.54 23.891 28.671 23.609 6.649 35.29 25.239 57.34 33.449 9.1 40.271 31.87 66.87 54.149 93.971v1.59c-22.02-27.36-46.649-52.101-54.149-93.971-20.66-8.539-34.07-24.34-54.16-33.439-22.27 33.62-46.45 66.28-68.479 101.93-7.301 11.811-11.381 26.07-19.11 36.63-4.04 5.511-10.48 8.96-15.87 13.11M546.55 479.92c-.319.38-.64.76-.979 1.13-.431.49-.88.96-1.34 1.431-1.41.39-2.79.81-4.15 1.26-.6.189-1.19.39-1.79.59M203.39 256.32h1.59c39.49 18.82 47.37 69.23 81.06 93.85.06.04.11.08.17.12l.57-.84c4.28-6.39 7.95-13.4 15.36-16.68 29.25 7.38 41.16 32.1 63.7 46.19 11.37-5.63 20.03-13.95 30.26-20.71-2.05-7.24-4.42-14.31-1.59-22.29 19.78-25.35 53.61-36.65 82.82-52.56-3.33-8.88-7-17.42-9.55-27.08h1.59c6.28 21.36 15 40.28 26.5 56.42 10.149 14.24 22.479 26.3 37.21 35.96 3.02 9.57 3.83 21.35 5.92 32.77 1.16 6.32 2.71 12.53 5.23 18.19.84 1.9 1.979 3.54 3.22 5.06 2.97 3.66 6.51 6.63 7.92 10.87 7.439 22.41 4.31 48.601-8.8 64.3" stroke-width="7"/><path d="M389.17 752.09c12.33 5.08 30.48 5.51 41.97-.439 22.94-46.08 55.721-82.32 79.641-127.42-8.3-6.721-12.12-22.74-25.48-27.07-3.16-1.03-8.74-1.61-15.03-2.03-7.119-.47-15.159-.72-21.609-1.16-37.16-2.489-65.67 5.431-87.47 12.2-.58.18-1.15.36-1.72.54-1.93.95-2.56 2.13-2.51 3.39.09 3.32 4.76 7.25 2.51 9.36-23.77 18.33-42.48-8.16-44.59-23.9 14.43-2.31 29.5 14.301 44.59 3.19 2.94-14.15 8.48-25.84 16.35-35.15 5.77-6.859 12.8-12.42 20.97-16.699 5.62-2.96 11.78-5.32 18.43-7.08 11.76-3.12 25.5-.801 38.22-4.78 19.63-6.14 30.42-38.6 47.779-44.59 13.86-4.79 26.37-2.92 37.061-6.12h.01c.6-.18 1.2-.38 1.79-.59 1.89-.69 3.72-1.561 5.49-2.69.08-.05.17-.109.25-.16.25-.319.489-.64.729-.97.01-.01.01-.02.021-.03 17.05-23.1 10.21-49.13.88-75.169-2.78-7.77-5.79-15.55-8.45-23.25-3.67-10.61-6.67-21.07-7.52-31.18-15.45-8.96-25.79-23.03-35.841-37.39-6.35-9.06-12.58-18.24-19.899-26.32-26.141 15.61-92.2 31.79-78.04 71.67-11.09 7.5-19.82 17.35-33.45 22.3-20.76-15.34-33.58-38.62-62.11-46.19-4.89 5.25-10.23 10.07-15.36 15.09-.25.23-.5.47-.74.72-.53.52-1.06 1.04-1.58 1.57M163.82 529.84c-.16.18-.34.37-.52.55M284.08 352.12c-5.97 6.05-11.47 12.53-15.39 20.47-2.89 5.84-3.11 13.32-6.37 19.11-3.37 5.99-12.06 9.4-17.52 15.93-5.45 6.52-8.7 17.11-14.33 25.48-2.47 3.67-5.46 6.939-8.53 10.17-3.66 3.89-7.45 7.72-10.59 12.13-6.5 9.109-11.98 18.57-17.18 27.859" stroke-width="7"/><path d="M194.25 248.25c3.05 0 6.09 8.07 9.14 8.07 38.86 19.98 48.93 68.74 81.07 95.42.05.05.11.1.16.14l-.54.24c-16.34 7.51-15.44 25.77-23.35 39.58-3.9 6.81-12.57 9.94-17.52 15.93-5.74 6.94-8.85 17.33-14.34 25.48-2.27 3.38-4.58 6.77-6.93 10.17-9.04 13.17-18.49 26.529-27.77 39.989-10.65 15.44-21.06 31.021-30.35 46.57-.08.141-.17.28-.25.42-.09.04-.18.09-.27.13-11.46 5.4-19.65 14.061-31.58 18.99-2.7 22.65-19.5 40.96-19.11 65.3.15 9.73 7.22 21.13 9.55 31.851 7.99 36.67 1.67 72.43 0 108.3 16.1 7.03 35.32 16.89 55.75 14.34 11.42-1.43 22.15-13.26 35.04-15.93 17.79-3.681 41.36.01 63.7-4.78 39.65-8.49 66.64-32.79 101.94-15.92-.28 8.68 3.52 14.74 9.34 18.74.4.279.81.54 1.24.81 11.49 7 29.64 6.71 40.38 2.74-5.79 8.12-12.39 15.42-19.05 22.67-3.44 3.75-6.9 7.49-10.27 11.32-7.52 8.529-14.6 17.529-21.39 28.13 0 0 1.34 0 21.39-28.13-6.46 9.069-11.92 19.54-18.46 28.13h-1.59M412.03 256.32h4.78v1.59c7.87-.3 14.35 3.91 19.11-1.59h3.19c-5.76 6.91-20.14 4.52-27.08 0zM574.49 256.32h1.59c.21 14.01-4.84 22.77-6.37 35.04 22.92 6.31 26.1-28.4 52.56-14.33v1.59c-26.59-15.03-31.579 24.56-54.149 12.74 1.529-12.27 6.569-21.03 6.369-35.04z" stroke-width="7"/></g><path fill="none" d="M.25.25h850.394v850.394H.25z"/></svg>