<svg xmlns="http://www.w3.org/2000/svg" width="850.89" height="850.89" viewBox="0 0 850.89 850.89" overflow="visible"><path d="M104.25 488.25c-2.21-.74-3.57-1.52-4.17-2.28 1.73.68 3.16 1.43 4.17 2.28z" fill="#fff"/><path d="M82.56 480.9c5.82.83 12.85.119 20.66-.54 7.81 9.42 11.67 22.779 10.33 41.34 5.39 2.41 12.94 2.649 18.77.72-4.76 4.72-10.99 6.2-20.83-.72 1.31-17.15-2.18-29.521-8.27-39.271-2.96.95-4.16 2.23-3.14 3.54-4.61-1.829-11.29-3.209-17.52-5.069z" fill="#fff"/><path d="M135.77 518.18c-1.08 1.57-2.21 3.011-3.45 4.24-5.83 1.93-13.38 1.69-18.77-.72 1.34-18.561-2.52-31.92-10.33-41.34-7.81.659-14.84 1.37-20.66.54-3.22-.96-6.31-2.04-8.93-3.381-2.28-1.71-4.15-4.119-5.54-7.489 29.94 3.08 52-1.721 55.8-24.8 4.98-.841 4.49 3.779 10.33 2.069 2.87 2.641 1.26 9.76 4.13 12.4 29.69-6.271 30.96 15.88 37.2 33.06-16.88-6.47-18.81 3.8-22.73 12.41-10.22-.72 1.72-5.43 0-10.34-12.77.691-13.38 13.551-17.05 23.351z" fill="#fff5b4"/><path d="M123.89 445.23c-3.8 23.079-25.86 27.88-55.8 24.8 1.39 3.37 3.26 5.779 5.54 7.489-4.46-2.26-7.56-5.239-7.61-9.55 30.11 3.33 51.99-1.529 57.42-22.859l.45.12zM73.63 477.52c2.62 1.341 5.71 2.421 8.93 3.381-3.42-.491-6.42-1.511-8.93-3.381z" fill="#fff"/><path d="M221.02 461.77l5.45 1.091c-4.63 1.37-8.85 1.06-9.59-7.29-.94.109-1.5.609-1.83 1.34l-2.3-1.34c9.41-10.46 11.47-22.38 8.27-41.34 6.48-4.86 16.84-11.05 26.86-6.2 3.45-18.63 18.46-5.77 31-10.33 4.71-4.24.07-17.84 4.13-22.73 10.46-.81 13.4 5.89 18.6 10.33 8.06-7.1 11.17-19.14 16.54-28.93 13.2 1.27 22.94 5.99 39.26 4.13 5.29-4.35 7.08-12.2 6.2-22.73 10.98-1.33 11.78 7.51 16.54 12.4 18.83-7.72 34.5-5.64 49.59 4.13 10.2-4.27 11-17.94 10.34-33.06 3.8-7.85 14.229 11.37 18.59 16.53 12.14-.66 1.4-11.35 4.14-20.67 6.681-2.97 13.54 9.19 20.66 12.4 23.3-14.69 56.11 21.71 82.67 10.34 12.4 4.38 21.94 23.11 47.53 24.8 11.23.73 26.25-3.38 39.271-2.07 28.659 2.88 54.279 20.09 64.06-6.2 12.96 7.55 27.37 25.55 14.47 41.33-5.439 2.14-12.689 2.48-20.67 2.07-16.22 14.55-7.7 24.58-14.47 43.4-9.5 26.43-41.12 34.82-43.39 59.93-2.28 25.16 14.109 51.12 14.46 82.66-14.71 20.2-9.061 58.61 14.47 64.07-3.021 21.61 4.02 33.17 14.46 41.33-1.99 12.47-17.63 11.29-28.93 14.46-8.69 14.14-28.561 36.49-18.601 55.8-22.319 12.521-36.46-17.52-51.66-18.6-13.42-.94-23.33 14.46-35.14 22.739-40.57-4.89-42.35-48.569-68.19-68.199-38.3-.971-49.93-28.601-72.33-45.471-2.73 3.44 3.34 17.24-6.2 18.601-6.02-2.931-5.67-12.24-8.27-18.601-19.79 13.301-45.3 15.851-66.13 26.87-9.15 4.84-13.51 19.62-26.87 16.53 4.24-29.021 20.52-46.771 16.54-78.53-1.56-7.76 7.89-4.5 8.26-10.33-1.65-11.439-6.66-19.52-20.66-18.6-5.48 6.229-6.79 16.63-10.34 24.8-7.59.67-11.43 5.101-18.6 6.2-5.27-13.34-20.52-25.35-35.13-22.74-13.98-10.81-9.29-40.3-28.93-45.46-.1-14.77-5-28.47 2.07-39.27 11.73 4.529 26.76-.95 35.13-6.19-26.21 3.47-52.13-7.34-45.47-35.14 9.11 1.6 16.03.83 20.64-4.96l4.16.83c-1.98-6.29-2.43-14.101-8.26-16.53.65 4.59 2.58 14.32-12.4 12.4z" fill="#fff5b4"/><path fill="#394ea1" d="M801.97 65.07v45.28h-.07l-223.93.77-.42-46.05z"/><path fill="#231f20" d="M801.97 110.35v51.58H578.44l-.47-50.81 223.93-.77z"/><path fill="#fff" d="M578.68 161.93h223.29v49.32H578.89l-.45-49.32z"/><path d="M560.97 55.23c-4.22-1.88-7.05-5.28-7.05-9.16 0-5.93 6.59-10.73 14.72-10.73s14.73 4.8 14.73 10.73c0 3.79-2.7 7.12-6.771 9.02-2.29 1.08-5.029 1.71-7.96 1.71-2.809 0-5.429-.57-7.669-1.57z" fill="#c8c8c8"/><path d="M568.64 56.8c2.931 0 5.67-.63 7.96-1.71v258.23h-15.19l-.44-258.09c2.24 1 4.86 1.57 7.67 1.57z" fill="#c8c8c8"/><path d="M226.47 462.86c5.61-1.66 11.82-5.801 13.15-1.091a19.885 19.885 0 0 1-2.1 3.301l-11.05-2.21z"/><path d="M239.62 461.77c-1.33-4.71-7.54-.569-13.15 1.091l-5.45-1.091c14.98 1.921 13.05-7.81 12.4-12.399 5.83 2.43 6.28 10.24 8.26 16.53l-4.16-.83c.76-.961 1.46-2.051 2.1-3.301z" fill="#fff"/><path d="M212.75 455.57l2.3 1.34c-1.18 2.58.49 8.01-2.3 8.99-7.55 1.399-15.03 2.88-24.8 2.069-1.76-5.819-6.68-8.479-6.2-16.54 7.45-1.799 29.66-6.409 31 4.141zM173.49 546.5c8.45-24.52 40.6-21.55 39.26 10.33h-18.6c-3.96 6.53 11.82 8 10.33 18.6-8.03-1.81-14.44.021-20.11 3.79-.01 0-.02.011-.02.011a11.399 11.399 0 0 0-1.33.909c-.02.021-.04.03-.06.051-14.78 10.829-24.86 34.35-46.67 38.64-17.75 3.49-32.92-6.88-45.47 10.33-.37 2.97-.72 5.939-1.09 8.899l-5.11-.63c-15.64-8.47-33.31-14.91-39.26-33.069 2.45-7.181 13.27-6.021 18.6-10.33-3.6-10.9-14.97-24.94-16.54-31 7.37-4.811 21.15-1.33 24.8 4.13 15.14-23.181 72-31.551 101.27-20.661z" fill="#fff5b4"/><path d="M183.82 579.56c.18-.119.35-.229.53-.329-.45.289-.89.6-1.33.909.24-.19.51-.39.8-.58zM135.77 518.18c-.45 1.23-.96 2.41-1.55 3.521-.61.27-1.24.52-1.9.72 1.24-1.231 2.37-2.671 3.45-4.241zM134.22 447.3c-5.84 1.71-5.35-2.91-10.33-2.069l-.45-.12c.17-.63.32-1.28.45-1.94 5.85.34 8.61 3.79 14.46 4.13v10.33c31.39-5.89 33.5 17.48 39.27 37.2-6.73 4.8-10.74-6.75-18.6 0-.26 3.42.67 16.05-12.4 12.4-1.77-6.591 1.8-7.841 4.13-10.33-6.23 3.739-9.93 13.92-14.98 21.279 3.67-9.8 4.28-22.66 17.05-23.35 1.72 4.91-10.22 9.62 0 10.34 3.92-8.61 5.85-18.88 22.73-12.41-6.24-17.18-7.51-39.33-37.2-33.06-2.87-2.64-1.26-9.76-4.13-12.4z" fill="#fff"/><path d="M84.62 637.43l5.11.63c-2.83 22.08-7.01 42.82-27.84 46.9-3.25-26.67 17.08-29.77 22.73-47.53z" fill="#fff5b4"/><path d="M136.29 620.89c-16.15 3.181-30.78-6.92-43.4 8.271-2.92 26.7-6.58 52.66-31 57.87-7.83-22.57 11.88-34.761 20.67-47.54-14.77-10.03-33.17-16.431-39.27-35.13 2.77-1.36 3.85-4.42 4.13-8.271 6.71 1.2 9.62-1.399 14.47-2.06-4.54-12.681-12.92-21.521-18.6-33.07 9.86-2.88 23.91-3.35 28.93 4.14 14.95-23.39 72.14-31.42 101.27-20.67 8.59-27.01 42.95-19.069 41.33 12.4-3.01 3.189-10.58 1.82-16.54 2.07-4.33 3.14 13.24 12.75 8.27 16.529-8.56 5.5-13.91-1.21-22.18 3.79 5.67-3.77 12.08-5.6 20.11-3.79 1.49-10.6-14.29-12.069-10.33-18.6h18.6c1.34-31.88-30.81-34.85-39.26-10.33-29.27-10.89-86.13-2.52-101.27 20.66-3.65-5.46-17.43-8.94-24.8-4.13 1.57 6.06 12.94 20.1 16.54 31-5.33 4.31-16.15 3.149-18.6 10.33 5.95 18.159 23.62 24.6 39.26 33.069-5.65 17.761-25.98 20.86-22.73 47.53 20.83-4.08 25.01-24.82 27.84-46.9.37-2.96.72-5.93 1.09-8.899 12.55-17.21 27.72-6.84 45.47-10.33 21.81-4.29 31.89-27.811 46.67-38.64-3.9 3.199-2.08 7.189-5.34 11.77-6.61 9.291-30.17 26.741-41.33 28.931z" fill="#fff"/><g fill="none" stroke="#231f20" stroke-width="7"><path d="M577.55 65.07h224.42v146.18H578.89M560.97 55.23c-4.22-1.88-7.05-5.28-7.05-9.16 0-5.93 6.59-10.73 14.72-10.73s14.73 4.8 14.73 10.73c0 3.79-2.7 7.12-6.771 9.02-2.29 1.08-5.029 1.71-7.96 1.71-2.809 0-5.429-.57-7.669-1.57z"/><path d="M560.97 54.93v.3l.44 258.09M576.6 54.39v258.93M577.14 111.12h.83l223.93-.77M578.68 161.93h222.45M82.56 480.9c-3.42-.49-6.42-1.511-8.93-3.381M135.77 518.18c-.45 1.23-.96 2.41-1.55 3.521-.61.27-1.24.52-1.9.72"/><path d="M100.08 485.97c-1.02-1.31.18-2.59 3.14-3.54 6.09 9.75 9.58 22.12 8.27 39.271 9.84 6.92 16.07 5.439 20.83.72 1.24-1.229 2.37-2.67 3.45-4.24 5.05-7.359 8.75-17.54 14.98-21.279-2.33 2.489-5.9 3.739-4.13 10.33 13.07 3.649 12.14-8.98 12.4-12.4 7.86-6.75 11.87 4.8 18.6 0-5.77-19.72-7.88-43.09-39.27-37.2v-10.33c-5.85-.34-8.61-3.79-14.46-4.13-.13.66-.28 1.311-.45 1.94-5.43 21.33-27.31 26.189-57.42 22.859.05 4.311 3.15 7.29 7.61 9.55 2.62 1.341 5.71 2.421 8.93 3.381 6.23 1.858 12.91 3.238 17.52 5.068"/><path d="M100.08 485.97c1.73.681 3.16 1.431 4.17 2.28-2.21-.74-3.57-1.52-4.17-2.28zM717 356.37c-9.78 26.29-35.4 9.08-64.06 6.2-13.021-1.31-28.04 2.8-39.271 2.07-25.59-1.69-35.13-20.42-47.53-24.8-26.56 11.37-59.37-25.03-82.67-10.34-7.12-3.21-13.979-15.37-20.66-12.4-2.739 9.32 8 20.01-4.14 20.67-4.36-5.16-14.79-24.38-18.59-16.53.66 15.12-.14 28.79-10.34 33.06-15.09-9.77-30.76-11.85-49.59-4.13-4.76-4.89-5.56-13.73-16.54-12.4.88 10.53-.91 18.38-6.2 22.73-16.32 1.86-26.06-2.86-39.26-4.13-5.37 9.79-8.48 21.83-16.54 28.93-5.2-4.44-8.14-11.14-18.6-10.33-4.06 4.89.58 18.49-4.13 22.73-12.54 4.56-27.55-8.3-31 10.33-10.02-4.85-20.38 1.34-26.86 6.2 3.2 18.96 1.14 30.88-8.27 41.34-1.34-10.551-23.55-5.94-31-4.141-.48 8.061 4.44 10.721 6.2 16.54 9.77.811 17.25-.67 24.8-2.069 2.79-.98 1.12-6.41 2.3-8.99.33-.73.89-1.23 1.83-1.34.74 8.35 4.96 8.66 9.59 7.29 5.61-1.66 11.82-5.801 13.15-1.091a19.885 19.885 0 0 1-2.1 3.301c-4.61 5.79-11.53 6.56-20.64 4.96-6.66 27.8 19.26 38.609 45.47 35.14-8.37 5.24-23.4 10.72-35.13 6.19-7.07 10.8-2.17 24.5-2.07 39.27 19.64 5.16 14.95 34.65 28.93 45.46 14.61-2.609 29.86 9.4 35.13 22.74 7.17-1.1 11.01-5.53 18.6-6.2 3.55-8.17 4.86-18.57 10.34-24.8 14-.92 19.01 7.16 20.66 18.6-.37 5.83-9.82 2.57-8.26 10.33 3.98 31.76-12.3 49.51-16.54 78.53 13.36 3.09 17.72-11.69 26.87-16.53 20.83-11.02 46.34-13.569 66.13-26.87 2.6 6.36 2.25 15.67 8.27 18.601 9.54-1.36 3.47-15.16 6.2-18.601 22.4 16.87 34.03 44.5 72.33 45.471 25.841 19.63 27.62 63.31 68.19 68.199 11.81-8.279 21.72-23.68 35.14-22.739 15.2 1.08 29.341 31.12 51.66 18.6-9.96-19.31 9.91-41.66 18.601-55.8 11.3-3.17 26.939-1.99 28.93-14.46-10.44-8.16-17.48-19.72-14.46-41.33-23.53-5.46-29.18-43.87-14.47-64.07-.351-31.54-16.74-57.5-14.46-82.66 2.27-25.109 33.89-33.5 43.39-59.93 6.77-18.82-1.75-28.85 14.47-43.4 7.98.41 15.23.07 20.67-2.07 12.9-15.781-1.51-33.781-14.47-41.331zM184.37 579.22c8.27-5 13.62 1.71 22.18-3.79 4.97-3.779-12.6-13.39-8.27-16.529 5.96-.25 13.53 1.119 16.54-2.07 1.62-31.47-32.74-39.41-41.33-12.4-29.13-10.75-86.32-2.72-101.27 20.67-5.02-7.489-19.07-7.02-28.93-4.14 5.68 11.55 14.06 20.39 18.6 33.07-4.85.66-7.76 3.26-14.47 2.06-.28 3.851-1.36 6.91-4.13 8.271 6.1 18.699 24.5 25.1 39.27 35.13-8.79 12.779-28.5 24.97-20.67 47.54 24.42-5.21 28.08-31.17 31-57.87 12.62-15.19 27.25-5.09 43.4-8.271 11.16-2.189 34.72-19.64 41.33-28.93 3.26-4.58 1.44-8.57 5.34-11.77"/><path d="M84.62 637.43c-15.64-8.47-33.31-14.91-39.26-33.069 2.45-7.181 13.27-6.021 18.6-10.33-3.6-10.9-14.97-24.94-16.54-31 7.37-4.811 21.15-1.33 24.8 4.13 15.14-23.18 72-31.55 101.27-20.66 8.45-24.52 40.6-21.55 39.26 10.33h-18.6c-3.96 6.53 11.82 8 10.33 18.6-8.03-1.81-14.44.021-20.11 3.79-.01 0-.02.011-.02.011-.45.289-.89.6-1.33.909-.02.021-.04.03-.06.051-14.78 10.829-24.86 34.35-46.67 38.64-17.75 3.49-32.92-6.88-45.47 10.33-.37 2.97-.72 5.939-1.09 8.899-2.83 22.08-7.01 42.82-27.84 46.9-3.25-26.671 17.08-29.771 22.73-47.531zM314.01 695.29l-31.76 54.96M648.8 761.42l65.45 34.83M717 356.37l23.25-46.12M731.47 397.7l.78 54.55"/></g><path fill="none" d="M.25.25h850.394v850.394H.25z"/></svg>