<svg xmlns="http://www.w3.org/2000/svg" width="850.89" height="850.89" viewBox="0 0 850.89 850.89" overflow="visible"><path d="M249.37 574.95c-.84 4.5-6.4 12.92.79 14.1-1.83-6.24 4.61-11.44-.79-14.1zm.79 14.88c-4.96.66-4.76-5.82-4.7-7.83-4.1 4.23-12.35 6.58-15.67 0 1.55-2 4.92-5.01 6.16-7.12l.11.07c.29 4.47-3.42 4.93-4.71 7.83 4.06 4.84 10.11.359 14.11-1.57-.28-1.99-.24-3.99-.02-6 .76-6.91 3.6-13.9 2.37-20.64-.56-3.03-3.69-5.011-3.92-7.83-.69-8.41 5.92-14.07 13.32-14.891-1.37 4.25-7.54 6.9-7.84 13.32-.01.19 0 .38.02.57l-.22.029c-.18-1.42-.38-2.909-.58-4.52.79-2.58 7.76-6.54 4.7-7.83-3.93 3.38-8.18 6.44-8.62 13.32 7.29 6.13 1.42 21.5 3.14 30.55-.12-1.94.4-3.25 1.56-3.91 6.54 3.132 1.5 11.242.79 16.452z" fill="#fff5b4"/><path d="M225.87 650.94c3.3-1.921 3.25-7.19 6.27-9.4 1.61.22 1.56 2.09 2.35 3.13 13.34-4.15 11.74-24.729 16.74-40.76 1.25-2.87 2.6-5.67 3.83-8.391 0-.01.01-.02.02-.029 4.26-6.88 9.1-11.04 5.26-19.76-1.14-.2-2.12-.551-2.95-1.03-6.37-3.601-4.39-14.36-5.66-22.48-.34-2.1-2.12-4.39-2.34-6.479-.02-.19-.03-.38-.02-.57.3-6.42 6.47-9.07 7.84-13.32-7.4.82-14.01 6.48-13.32 14.891.23 2.819 3.36 4.8 3.92 7.83 1.23 6.739-1.61 13.729-2.37 20.64l-2.33-.26c-2.35-2.4-6.31-4.45-9.16-2.53h-.24c-.03-6.76 4.51-8.95 7.05-13.14-3.33-1.48-7.78 2.649-10.97 3.91.37 13.18-7.81 17.79-14.1 24.29-1.7-.66-2.68-2.03-5.49-1.57-.65 4.83 2.25 6.12 2.35 10.189-18.32-4.659-26.71-19.26-39.17-29.77-9.14.51-11.68-5.57-20.37-5.49-2.05-3.689-3.3-8.189-6.27-10.97 9.29.87 17.51-5.23 21.15-12.53-.56-5.58-1.74-10.89 2.35-13.32-4.52-9.579-6.19-22.01-12.53-29.77 5.46-6.3 6.43-17.07 9.4-25.86-.22-.279-.45-.56-.68-.859-6.84-8.471-20.24-22.7-7.94-33.61 7.24-.37 11.72-1.46 18.02-.79 3.53-1.25 5.88-3.67 7.62-6.7.02-.029.04-.06.05-.1.06-.08.12-.17.17-.25 0-.02.01-.03.01-.05 4.27-7.72 4.89-19.09 10.95-25.02.82 4.72 11.59 6.78 15.67 3.13-1.59-1.79-6.5-.28-9.4-.78-1.91-6.8-13.25-14.07-11.75-21.15 1.03-4.88 8.3-3.91 10.19-9.41-.52-7.83 5.06-9.56 10.96-10.97 9.95-11.32 24.99-21.23 20.09-43.36-.05-.76-.13-1.53-.22-2.32 1.84-1.37 2.46 2.23 4.42 2.59 3.22-5.98-3.52-9.08-3.92-14.88-.19-2.8 2.17-4.35 2.36-7.05.39-5.86-2.33-7.83-7.84-10.97-1.46-4.85.68-11.49 3.92-14.11h7.05c6.95-3.7 15.85-5.45 19.53-12.43.1-.06.2-.11.31-.16 9.58-2.33 23.78-.04 27.17-8.56 8.48-.19 15.79-.84 21.85-2.71 1.42-.23 2.77-.6 4-1.21.71-.35 1.32-.75 1.85-1.2 4.12-2.21 7.43-5.34 9.91-9.77 3.46 1.5 4.58 5.35 5.48 9.41 6.22-1.48 2.54-13.3 0-15.67 2.83-1.36 3.5-4.86 6.27-6.27 2.36.95-.12 6.84 2.35 9.4 4.72-1.2 5.17-4.54 2.35-7.84 3.35-1.08 4.19-4.69 4.7-8.61 5.5 3.12 8.23 9 10.97 14.88 7.2-.93 9.54 3 11.75 7.05h7.05c9.66 11.77 26.51 16.33 36.83 27.43 2.8-.42 4.99-.23 7 .14 2.84.53 5.32 1.41 8.67 1.42-1.39 6.62 5.521 4.93 7.83 7.84 2.63-3.12 7.1-4.39 11.75-5.49 2.91 2.32 3.85 6.6 3.92 11.76 4.37 3.73 10.66 7.5 16.45 5.48 1.13 6.97 1.01 15.19 3.14 21.16 7.63 5.11 19.38 11.07 31.34 7.05 2.46.67 3.25 3.01 3.921 5.48 8.1-1.05 12.739 1.36 16.449 4.7 5.261-1.32 9.101-1.72 13.32.78 2.03-.66-1.51-3.43.78-4.7 6.319-.04 9.59 2.96 13.319 5.49 4.66-1.09 9.011-2.48 14.891-2.35v-12.54c5.16.96 7.24-1.17 9.97-2.64.64 0 1.271.02 1.9.07 3.67 2.16 8.34 3.62 13.199 2.57.561 2.31.891 4.85 2.351 6.27 3.09 1.84 2.39-1.47 5.479-1.57 2.13 5.19 7.21 7.43 7.841 14.11 7.119 1.48 11.85 8.18 18.26 11.3.18.16.359.31.54.45.109-.02.22-.04.33-.05 3.739 1.58 8.08 1.87 13.77-.73 5.04 9.05 19.8 8.38 26.62 15.64-.07.04-.14.09-.21.12-5.22 2.36-7.45-1.15-11.521 2.26-5.26-3.01-10.17-6.31-18.8-3.92-.239 2.85.12 5.1.78 7.05 6.57-.83 8.17 3.32 13.32 3.92-.07 8.82 3.109 14.38 7.529 18.71 4.021 3.95 9.07 6.87 13.62 10.28 1.66 5.58-4.01 7.62-4.7 11.75-1.579 9.54 5.101 17.7 7.061 26.64-7-.76-13.47.42-17.24-4.71-4.16 19.09-9.54 36.96-14.1 55.63a72.57 72.57 0 0 0-2.11 1.8c-.38.141-.72.33-1.03.551-.199.319-.409.63-.619.939-16.36 15.12-24.591 33.95-40.12 49.21-9.681 9.51-22.551 17.92-33.69 26.641-6.14 4.8-11.59 9.539-17.24 13.31-6.21 4.17-13.27 5.979-21.149 8.62-14.45 4.85-29.28 10.13-44.66 15.67-14.061 5.08-30.851 8.25-44.66 15.67-6.7 3.6-11.06 12.27-18.02 16.46-1.05 1.56-1.49 3.73-2.35 5.48h-3.13c-2.21 5.369-6.94 8.21-10.19 12.54.2 3.71 2.87 4.96 3.92 7.829-1.69 2.75-2.9 5.98-7.05 6.271.2-2.67 1.98-3.771 1.56-7.05-.52-.271-1.02-.5-1.49-.67a.673.673 0 0 0-.07-.11.88.88 0 0 0-.17.02c-12.24-4.289-11.04 21.181-13.94 32.101-4.88 3.729-7.98 9.25-11.75 14.1.17 9.34-2.35 15.99-5.22 22.29-.42.66-.79 1.32-1.05 2-.14.37-.3.79-.47 1.25-.01.021-.02.04-.02.061-2.39 5.109-4.74 10.25-5.77 16.71.07 3.06 3.16 3.1 4.7 4.7-1.73 4.119-3.7 4.579-1.57 9.399-4.4 3.45-11.53 6.46-16.82 10.54-5.64 4.34-9.19 9.89-5.12 18.45-1.64 2.28-6.77 1.06-8.62 3.14.8 5.49-1.3 8.09-3.91 10.181-7.66-1.841-11.69-2.45-21.16-2.351-1.63-2.74-4.99-4.06-7.67-6.189-.01-.011-.01 0-.01 0-.61-.65-1.23-1.301-1.85-1.95-.13-.79.59-2.34.13-2.83-5.07-5.521-10.52-10.15-11.75-19.59-.78-3.79 2.14-6.69 0-9.4-5.85.83-8.06-5.79-12.54-8.62a40.52 40.52 0 0 1-4.43 2.061c-7.22 2.87-15.79 3.729-18.29-5.19-15.07 2.521-12.33-10.939-24.29-8.62-6.6 1.28-20.08 28.57-28.99 11.75 3.08-8.149 8.61-13.85 14.11-19.58-6.22-.81-7.49.24-12.54 1.561-3.79-4.92-5.36-16.24-.78-21.15 6.16-.67 10 .96 13.32 3.13 4.6-4.54 8.4-9.88 14.88-12.529-7.79-4.591-4.48-14.341-5.48-22.721-.58-4.87-3.94-9.29-4.98-13.55-.43-1.78-.46-3.52.28-5.26-.83-2.82-5.55-1.771-7.05-3.91 2.999-5.627 12.339-4.907 18.799-7.067z" fill="#fff5b4"/><path d="M249.39 545.74c.22 2.09 2 4.38 2.34 6.479 1.27 8.12-.71 18.88 5.66 22.48l-.04.08c-3.33-1.78-6.61-.811-7.98-5.32.42-1.62 3.71-.19 1.57-2.35-.28-8.931-.87-14.19-1.77-21.341l.22-.028zM117.47 760.23c.02.029.03.06.04.1-.01 0 0 .01 0 .01a.487.487 0 0 1-.04-.11zM117.3 759.81c-.03-.079-.07-.17-.11-.25.05.08.08.16.11.25zM117.57 760.52c.08.2.14.4.19.61-.06-.21-.13-.41-.19-.61zM115.71 769.5c2.45-1.74 2.88-5.1 2.14-8.05 1.27 4.58 1.4 11.93-2.45 13.28 0-1.83.11-3.57.31-5.23zM364.55 126.79c-3.9 11.53-12.96 20.17-7.05 35.26 1.42.33 4.3-1.24 6.26 1.56-.67 4.47-.07 6.09 2.95 8.61-5.68-.17-3.32-5.06-4.51-8.61-2.82-3.33-5.01 4.1-6.27 0 1.3-6-2.22-10.98-1.57-16.45.91-7.58 7.3-13.7 10.02-20.44l.17.07zM232.14 572.59c-.05-5.79 3.76-7.729 5.48-11.75-3.5.16-4.86 2.46-7.05 3.92.22 13.54-8.65 17.98-15.67 24.29-.51-1.05-1.67-1.46-3.13-1.569-.61 4.569 3.98 7.64.78 10.189-18.62-4.62-26.66-19.83-39.96-29.78-8.37.021-10.69-6.02-19.58-5.479-2.25-5.93-8.8-11.47-9.41-16.45 2.24 2.2 6.23 2.65 10.97 2.35 4.53-3.84 10.82-5.899 12.54-12.54-2.12-4.76-1.56-9.6 1.57-12.539-3.99-9.591-6.57-20.601-11.76-28.98 4.5-7.52 5.93-18.11 9.41-26.64l.1-.08c.23.3.46.58.68.859-2.97 8.79-3.94 19.561-9.4 25.86 6.34 7.76 8.01 20.19 12.53 29.77-4.09 2.431-2.91 7.74-2.35 13.32-3.64 7.3-11.86 13.4-21.15 12.53 2.97 2.78 4.22 7.28 6.27 10.97 8.69-.08 11.23 6 20.37 5.49 12.46 10.51 20.85 25.11 39.17 29.77-.1-4.069-3-5.359-2.35-10.189 2.81-.46 3.79.91 5.49 1.57 6.29-6.5 14.47-11.11 14.1-24.29 3.19-1.261 7.64-5.391 10.97-3.91-2.54 4.189-7.08 6.38-7.05 13.14-.45.028-.98.078-1.57.168z" fill="#fff"/><path d="M326.16 803.72c-5.13-.2-13.94-3.22-22.72-2.35-1.81-2.41-3.94-4.68-6.11-6.97 2.68 2.13 6.04 3.449 7.67 6.189 9.47-.1 13.5.51 21.16 2.351 2.61-2.091 4.71-4.69 3.91-10.181 1.85-2.08 6.98-.859 8.62-3.14-4.07-8.561-.52-14.11 5.12-18.45l.04.05c-.16.12-.31.25-.46.38-5.54 4.95-6.6 12.33-3.91 18.801-1.64 2.279-6.78 1.06-8.62 3.14.8 5.76-1.4 8.52-4.7 10.18z"/><path d="M798.65 167.7v32.66H586.83V167.7h211.82z" fill="#ed1e29"/><path d="M712.6 128.17c-1.39-1.46-.52-9.31-1.239-12.03 2.21 3.73 1.63 12.37.83 14.65-1.731.2-.211-2.52.409-2.62zM709.7 122.42c-1.05-.05-1.05-2.04 0-2.09-1.46-.67-.66-10.25-1.24-12.04 2.22 3.41 1.37 10.29 1.24 14.13z" fill="#58b947"/><path d="M706.95 113.36c.03.11.05.22.08.32-.03-.1-.05-.21-.08-.32z"/><path d="M706.95 113.36c-.021-.04-.03-.08-.04-.12.01.04.02.08.04.12zM706.82 112.95l.09.27-.09-.27zM706.74 112.69c.01.01.01.03.02.05-.01-.02-.01-.03-.02-.05zM706.64 112.37c.03.07.051.15.08.23-.03-.08-.06-.15-.08-.23z" fill="#fbed24"/><path d="M706.91 113.24c.01.04.02.08.04.12.03.11.05.22.08.32.1.43.17.83.14 1.17-.17-.91-.35-1.74-.53-2.48.021.08.051.15.08.23 0 .03.011.06.021.09.01.02.01.03.02.05l.061.21.09.27-.002.02zM706.6 112.21c-.1-.3-.17-.56-.199-.78.059.25.139.51.199.78z"/><path d="M692.33 144.39c1.45-2.64 2.42.12 4.14-1.57.49 2.9-2.76 1.05-4.14 1.57z" fill="#a8d7f4"/><path d="M692.37 130.34c0 .05-.13.03-.45-.07.16.04.31.06.45.07z" fill="#fff"/><path d="M690.24 128.93c-.29-.21-.37-.32.02-.23-.02.08-.02.16-.02.23z"/><path d="M689.02 115.39z" fill="#394ea1"/><path d="M688.84 148.41c.09.07.18.13.271.21-.091-.07-.181-.13-.271-.21zM688.69 148.29c.05.04.09.08.14.11a.673.673 0 0 1-.14-.11zM688.37 148.02c.03.03.07.06.1.09a.73.73 0 0 1-.1-.09z" fill="#fbed24"/><path d="M687.81 116.28c.021-.02.04-.04.07-.06-.03.02-.05.04-.07.06z" fill="#394ea1"/><path d="M687.48 147.11c.13.15.26.29.39.43-.13-.13-.26-.28-.39-.43z" fill="#fbed24"/><path d="M687.37 104.11c3.01-.29 2.53 1.22 5.37 1.57.479-.62.47-1.85.42-3.14-1.56-.87-5.17-.41-5.79 1.57zm3.31 4.18c-6.38-1.99-11.239-2.79-17.79-4.7 4.63-1.81 8.78-4.25 14.48-4.71 2.55 2.47 7.979 3.4 10.75 0 6.439-.3 9.49 3.69 14.89 4.71-4.58 2.74-12.13 1.75-16.54 4.7-1.029 1 1.88 1.43 1.24 3.67-.43.67-1.31.79-1.86 1.31l-.58.05c-.039-.64-.77-1.48-.46-2.41-1.47 3.94-1.329-2.17-3.31.52.45-1.95-1.03-1.49-.82-3.14z" fill="#9c5c25"/><path d="M692.74 105.68c-2.84-.35-2.36-1.86-5.37-1.57.62-1.98 4.229-2.44 5.79-1.57.05 1.29.06 2.52-.42 3.14z" fill="#fff"/><path d="M687.47 116.59l.011-.01c-.001 0-.001.01-.011.01zM687.47 116.59z" fill="#394ea1"/><path d="M687.48 147.11a9.27 9.27 0 0 1-.7-.92c.23.33.46.63.7.92z" fill="#fbed24"/><path d="M686.4 117.84l.199-.26-.199.26zM685.82 118.73c.01-.03.029-.05.05-.08-.02.02-.03.05-.05.08zM685.8 118.76c-.01.01-.01.02-.03.04.01-.01.02-.03.03-.04z" fill="#394ea1"/><path d="M685.49 143.92c.29.61.59 1.18.92 1.71-.33-.53-.64-1.1-.92-1.71z" fill="#fbed24"/><path d="M685.3 122.94c-.84-.42.74-2.15.82-3.14 1.979-.63 4.89-.09 5.38-2.61-.61 1.49-2.77 1.03-4.13 1.57 1.88-4.49 8.37-4.21 10.75-.53-.51 1.59-1.42-.56-2.48 0 1.2 2.15 5.091.89 4.96 4.71-.51-.98-3.18-.62-2.069-2.09-1.73.93-3.17.49-4.13-.52.08-.71 1.72-.98 0-1.05.01-.51.5-.41.819-.52-.21-.43-.43-.85-.41-1.57-1-.46-1.55 1.29-1.649-1.05-1.24 1.33-.69 1.56-2.9 3.14.01.51.51.41.83.52-.731 2.43-4.021 1.02-5.791 3.14z" fill="#58b947"/><path d="M685.26 143.41c.08.17.15.34.23.51-.08-.17-.16-.34-.23-.51zM685.2 143.27c.02.03.03.06.04.08-.02-.03-.03-.06-.04-.08zM684.99 142.75c.069.17.14.35.21.51-.08-.17-.15-.34-.21-.51zM684.69 141.94c.1.28.199.55.3.81-.11-.27-.21-.53-.3-.81z" fill="#fbed24"/><path d="M683.91 123.47c0-.02.01-.04.02-.06-.01.02-.01.04-.02.06z" fill="#394ea1"/><path d="M683.7 138.33z" fill="#fbed24"/><path d="M692.33 144.39c1.38-.52 4.63 1.33 4.14-1.57-1.72 1.69-2.69-1.07-4.14 1.57zm-2.07 3.66c-4.779-1.54-6.54-9.61-7.029-17.78.859.28 1.55.91 2.069-.53.601.23-.05.46 0 1.05.94-2.1 1.5 1.02 1.65-1.05.77.08.26 1.78.83 2.09.739-.8.27-3.13 1.239-3.66.461.36-.079 1.74 1.24 2.1.55-.21-.04-.59-.02-1.34.609.43 2.13 1.26 2.13 1.41-.14-.01-.29-.03-.45-.07.32.1.45.12.45.07.83.08 1.49-.16 2.439-.07-1.899-3.28-7.119-6.42-10.76-4.19.021-4.51 5.11-2.61 6.63-5.23 1.53.06 1.04.76.82 2.09 1.1-1.42 1.37-.28 2.07 0 1.01-.52-.811-2.31 1.239-2.09.021 1.34-.3.64-.829.52 1.39 1.24 5.92.63 7.449 3.14 2.583 11.7-1.737 26.58-11.167 23.54z" fill="#0071bc"/><path d="M682.99 130.86s0-.01.01-.02c-.01.01-.01.01-.01.02z" fill="#394ea1"/><path d="M691.49 149.62c-10.88 0-12.58-28.11-3.71-34.52 1.08-.84 3.149-.37 2.069-1.58.381-1.68 2.771 2.74 2.48-1.04 1.46-.28 1.01 1.85 2.479 1.57.381-.2.49-.44.46-.73l.58-.05c-.08.07-.149.16-.21.25 3.591 2.78 6.681 6.2 7.45 12.56.86-2.51-1.43-5.51-2.07-7.85 1.261.33.551-2.05 1.65-1.04-.06-.98-.27-1.75-.83-2.09.38-1.42 1 1.1 1.25 1.57.92-1.21-1.03-3.21-1.25-4.71-.24-1.32 1.58 3.03 2.49 3.66-.66-2.31-1.46-4.43-2.9-5.76 1.23-.67 2.391 3.25 3.311 4.71.62-.15-.25-2.76-.83-3.14.88-1.4.93 2.63 2.07 2.62.34-1.48-.57-1.36-.41-2.61.81.89 1.109 2.44 1.239 4.18.23-.18.341-.45.36-.77 2.12 11.16 3.38 33.35-4.5 37.39.01 1.56 3.07-.74 2.49 1.57h-4.561c6.431 11.41 14.521-6.62 12-20.41h86.051v34.3H697.71v-3.95c.54-1.06.45-2.92 2.48-2.09-.341-3.58-1.561-6.06-3.311-7.85-.02-1.6.87-2.04 1.24-3.14-.94-.66-1.83 2.98-2.9 0 6.58-3.25 9.95-12.57 8.69-24.07.28 10.67-2.11 21.48-9.93 23.54 3.279-3.08 7.829-6.42 8.689-14.64 1.021-9.75-2.8-22.86-11.58-20.93-.53.12-1.04.29-1.52.52-.19.09-.37.19-.551.3-.399.23-.779.51-1.14.83-.03.02-.05.04-.07.06-.109.09-.22.19-.329.3l-.011.01-.109.11c-.271.27-.521.57-.761.88l-.199.26c-.181.26-.36.53-.53.81-.021.03-.04.05-.05.08-.011.01-.021.02-.021.03-.01.01-.02.03-.03.04-.779 1.33-1.399 2.9-1.84 4.61-.01.02-.02.04-.02.06-.59 2.28-.891 4.81-.91 7.37-.01.01-.01.02-.01.02-.021 2.53.22 5.09.71 7.47.21 1.01.46 1.99.76 2.92.07.24.15.47.23.69.09.28.189.54.3.81.06.17.13.34.21.51v.01c.01.02.02.05.04.08.01.02.02.04.02.06.07.17.15.34.23.51.279.61.59 1.18.92 1.71.12.19.24.38.37.56.22.33.45.63.7.92.13.15.26.3.39.43.16.17.33.33.5.48.04.04.07.07.1.09.07.06.15.12.221.18.05.05.09.08.14.11l.01.01c.09.08.18.14.271.21.731.5 1.531.84 2.381 1z" fill="#394ea1"/><path d="M697.71 167.7H586.83v-34.3h86.06c-1.63 13.31 3.28 29.61 11.99 21.45-1.229-1.52-2.22-2.97-.83-5.23-1.09.01-2.359-.19-2.89.52.399.54.81 1.06 1.24 1.57-6.021-1.95-5.9-18.48-4.971-29.29.851.15.82 1.41 1.66 1.57-.97-2.27-2.07-4.36-1.66-8.37.53.91 1.4 1.37 1.25 3.14.84-1.11-.52-3.86 0-6.28 1.11 1.77 1.971.58 2.061-1.57.49.08.359.95.42 1.57 1.18-.25 1.189-1.99 1.649-3.14.45 2.18 1.641 1.3 2.49 0 1.17.7-.319 2.33-.42 3.14.37-.41.94-.56 1.66-.52-2.16 2.21-.23 3.42-2.9 5.23 1.54 2.26-1.56 5.5-2.069 9.94-1.28 11.32 2.08 20.38 8.689 23.01-.6 2.37-1.99 1.18-2.89 0-.01 1.75 1.34 1.79 1.229 3.67-1.659 1.73-2.85 4.06-3.3 7.32.51 1.1 2.94-.23 2.07 2.62 2.66-.84 2.3-6.87 1.229-8.37.391-2.87 1.08.9 2.08.52-.149-.82-2.51-4.65.82-5.23v5.23c1.37-.54-.76-5.5 1.24-5.23 1.72-.08.43 3.64.83 5.23.939-.72.16-3.64.41-5.23 2.539.84 1.97 3.63.42 5.23 1.279.52 1.6-2.78 2.479-1.05-.8 1.97-1.479 7.32.83 8.9v3.95z" fill="#394ea1"/><path d="M675.37 120.85c.71-.7-.71-9.77 1.649-12.56-.02 3.08-1.18 11.5 0 14.65-1.739.82.091-2.9-1.649-2.09zM673.71 130.79c-1.86-1.46-1.22-9.32 0-14.65.45.13.28 1.04.83 1.05-1.89 3.68-.48 10.79-.83 13.6z" fill="#58b947"/><path d="M712.6 128.17c-.619.1-2.14 2.82-.409 2.62.8-2.28 1.38-10.92-.83-14.65.719 2.72-.151 10.57 1.239 12.03zm-2.9-7.84c-1.05.05-1.05 2.04 0 2.09.13-3.84.979-10.72-1.24-14.13.58 1.79-.22 11.37 1.24 12.04zm-3.3-8.9c.029.22.1.48.199.78-.059-.27-.139-.53-.199-.78zm-21.1 11.51c1.771-2.12 5.061-.71 5.79-3.14-.32-.11-.82-.01-.83-.52 2.21-1.58 1.66-1.81 2.9-3.14.1 2.34.649.59 1.649 1.05-.02.72.2 1.14.41 1.57-.319.11-.81.01-.819.52 1.72.07.08.34 0 1.05.96 1.01 2.399 1.45 4.13.52-1.11 1.47 1.56 1.11 2.069 2.09.131-3.82-3.76-2.56-4.96-4.71 1.061-.56 1.971 1.59 2.48 0-2.38-3.68-8.87-3.96-10.75.53 1.36-.54 3.52-.08 4.13-1.57-.49 2.52-3.4 1.98-5.38 2.61-.079.99-1.659 2.72-.819 3.14zm-2.07 7.33c.489 8.17 2.25 16.24 7.029 17.78 9.431 3.04 13.75-11.84 11.17-23.54-1.529-2.51-6.06-1.9-7.449-3.14.529.12.85.82.829-.52-2.05-.22-.229 1.57-1.239 2.09-.7-.28-.971-1.42-2.07 0 .22-1.33.71-2.03-.82-2.09-1.52 2.62-6.609.72-6.63 5.23 3.641-2.23 8.86.91 10.76 4.19-.949-.09-1.609.15-2.439.07 0-.15-1.521-.98-2.13-1.41 0-.07 0-.15.02-.23-.39-.09-.31.02-.02.23-.021.75.569 1.13.02 1.34-1.319-.36-.779-1.74-1.24-2.1-.97.53-.5 2.86-1.239 3.66-.57-.31-.061-2.01-.83-2.09-.15 2.07-.71-1.05-1.65 1.05-.05-.59.601-.82 0-1.05-.522 1.44-1.212.81-2.072.53zm-6.21-21.98c-2.359 2.79-.939 11.86-1.649 12.56 1.74-.81-.09 2.91 1.649 2.09-1.18-3.15-.02-11.57 0-14.65zm-3.31 22.5c.35-2.81-1.06-9.92.83-13.6-.55-.01-.38-.92-.83-1.05-1.22 5.33-1.86 13.19 0 14.65zm-86.88 2.61v34.3H586V66.97c-.03-.75-.06-1.48.42-1.57h213.061v102.3h-.83v-34.3H712.6c2.521 13.79-5.569 31.82-12 20.41h4.561c.58-2.31-2.48-.01-2.49-1.57 7.88-4.04 6.62-26.23 4.5-37.39.03-.34-.04-.74-.14-1.17-.03-.1-.05-.21-.08-.32-.021-.04-.03-.08-.04-.12v-.02l-.09-.27-.061-.21c-.01-.02-.01-.04-.02-.05-.01-.03-.021-.06-.021-.09-.029-.08-.05-.16-.08-.23.181.74.36 1.57.53 2.48-.02.32-.13.59-.36.77-.13-1.74-.43-3.29-1.239-4.18-.16 1.25.75 1.13.41 2.61-1.141.01-1.19-4.02-2.07-2.62.58.38 1.45 2.99.83 3.14-.92-1.46-2.08-5.38-3.311-4.71 1.44 1.33 2.24 3.45 2.9 5.76-.91-.63-2.73-4.98-2.49-3.66.22 1.5 2.17 3.5 1.25 4.71-.25-.47-.87-2.99-1.25-1.57.561.34.771 1.11.83 2.09-1.1-1.01-.39 1.37-1.65 1.04.641 2.34 2.931 5.34 2.07 7.85-.77-6.36-3.859-9.78-7.45-12.56.061-.09.13-.18.21-.25.551-.52 1.431-.64 1.86-1.31.64-2.24-2.27-2.67-1.24-3.67 4.41-2.95 11.96-1.96 16.54-4.7-5.399-1.02-8.45-5.01-14.89-4.71-2.771 3.4-8.2 2.47-10.75 0-5.7.46-9.851 2.9-14.48 4.71 6.551 1.91 11.41 2.71 17.79 4.7-.21 1.65 1.271 1.19.82 3.14 1.98-2.69 1.84 3.42 3.31-.52-.31.93.421 1.77.46 2.41.03.29-.079.53-.46.73-1.47.28-1.02-1.85-2.479-1.57.29 3.78-2.1-.64-2.48 1.04 1.08 1.21-.989.74-2.069 1.58-8.87 6.41-7.17 34.52 3.71 34.52-.851-.16-1.65-.5-2.38-1-.091-.08-.181-.14-.271-.21l-.01-.01c-.05-.03-.09-.07-.14-.11-.07-.06-.15-.12-.221-.18-.029-.03-.069-.06-.1-.09-.17-.15-.34-.31-.5-.48-.13-.14-.26-.28-.39-.43a13.512 13.512 0 0 1-1.07-1.48c-.33-.53-.63-1.1-.92-1.71-.08-.17-.15-.34-.23-.51 0-.02-.01-.04-.02-.06s-.021-.05-.04-.08v-.01c-.07-.16-.141-.34-.21-.51-.101-.26-.2-.53-.3-.81-.08-.22-.16-.45-.23-.69-.3-.93-.55-1.91-.76-2.92-.49-2.38-.73-4.94-.71-7.47 0-.01 0-.01.01-.02.02-2.56.32-5.09.91-7.37.01-.02.01-.04.02-.06.44-1.71 1.061-3.28 1.84-4.61.021-.02.021-.03.03-.04 0-.01.01-.02.021-.03.02-.03.029-.06.05-.08.17-.28.35-.55.53-.81l.199-.26c.24-.31.49-.61.761-.88l.109-.11c.011 0 .011-.01.011-.01.109-.11.22-.21.329-.3.021-.02.04-.04.07-.06.36-.32.74-.6 1.14-.83.181-.11.36-.21.551-.3.479-.23.989-.4 1.52-.52 8.78-1.93 12.601 11.18 11.58 20.93-.86 8.22-5.41 11.56-8.689 14.64 7.819-2.06 10.21-12.87 9.93-23.54 1.26 11.5-2.11 20.82-8.69 24.07 1.07 2.98 1.96-.66 2.9 0-.37 1.1-1.26 1.54-1.24 3.14 1.75 1.79 2.97 4.27 3.311 7.85-2.03-.83-1.94 1.03-2.48 2.09-2.31-1.58-1.63-6.93-.83-8.9-.88-1.73-1.2 1.57-2.479 1.05 1.55-1.6 2.119-4.39-.42-5.23-.25 1.59.529 4.51-.41 5.23-.4-1.59.89-5.31-.83-5.23-2-.27.13 4.69-1.24 5.23v-5.23c-3.33.58-.97 4.41-.82 5.23-1 .38-1.689-3.39-2.08-.52 1.07 1.5 1.431 7.53-1.229 8.37.87-2.85-1.561-1.52-2.07-2.62.45-3.26 1.641-5.59 3.3-7.32.11-1.88-1.239-1.92-1.229-3.67.899 1.18 2.29 2.37 2.89 0-6.609-2.63-9.97-11.69-8.689-23.01.51-4.44 3.609-7.68 2.069-9.94 2.67-1.81.74-3.02 2.9-5.23-.72-.04-1.29.11-1.66.52.101-.81 1.59-2.44.42-3.14-.85 1.3-2.04 2.18-2.49 0-.46 1.15-.47 2.89-1.649 3.14-.061-.62.07-1.49-.42-1.57-.09 2.15-.95 3.34-2.061 1.57-.52 2.42.84 5.17 0 6.28.15-1.77-.72-2.23-1.25-3.14-.41 4.01.69 6.1 1.66 8.37-.84-.16-.81-1.42-1.66-1.57-.93 10.81-1.05 27.34 4.971 29.29-.431-.51-.841-1.03-1.24-1.57.53-.71 1.8-.51 2.89-.52-1.39 2.26-.399 3.71.83 5.23-8.71 8.16-13.62-8.14-11.99-21.45H586.83z" fill="#fbed24"/><path d="M662.27 357.13c-.079.04-.149.07-.229.1.07-.03.14-.08.21-.12l.019.02zM667.76 395.53c1.21 5.25-4.54 8.84-4.7 14.88-.229 8.45 6.04 14.28 7.051 24.29-8.54.399-13.42-.57-18.021-3.13-3.14 19.58-9.52 35.92-13.32 54.84-1.21-.17-2.14-.05-2.89.229.69-.609 1.39-1.21 2.11-1.8 4.56-18.67 9.939-36.54 14.1-55.63 3.771 5.13 10.24 3.95 17.24 4.71-1.96-8.94-8.64-17.1-7.061-26.64.69-4.13 6.36-6.17 4.7-11.75-4.55-3.41-9.6-6.33-13.62-10.28l.07-.08c.32.32.66.64 1.021.95 4.44 3.821 12.19 4.541 13.32 9.411zM634.85 487.19a4.43 4.43 0 0 1 1.03-.551c-.56.49-1.11.98-1.649 1.49.209-.309.419-.619.619-.939zM663.84 354c3.72-.98 2.061-7.34 6.271-7.83 16.6 2.72 26.739 11.9 35.26 22.72-10.07-9.26-19.04-19.62-36.04-21.94-1.58 4.87-3.82 8.1-7.08 10.16-6.82-7.26-21.58-6.59-26.62-15.64-5.689 2.6-10.03 2.31-13.77.73 5.34-.94 10.31 1.32 13.77-2.3 5.999 8.1 16.839 11.37 28.209 14.1z"/><path d="M662.04 357.23c-3.25 1.99-7.49 2.85-13.08 3.04-3.35-3.57-11.35-6.87-16.46-2.35 1.17 6.4 10.9 4.25 14.1 8.62 2.12 8.01 2.08 13.84 6.82 18.63l-.07.08c-4.42-4.33-7.6-9.89-7.529-18.71-5.15-.6-6.75-4.75-13.32-3.92-.66-1.95-1.02-4.2-.78-7.05 8.63-2.39 13.54.91 18.8 3.92 4.069-3.41 6.299.1 11.519-2.26zM621.86 342.2c-.11.01-.221.03-.33.05-.181-.14-.36-.29-.54-.45.29.14.58.28.87.4zM573.86 309.12c3.77.23 7.67 1.1 13.979 1.79.57 1.78.7 4 1.57 5.48 2.92 2.51 3.189-3.13 6.27-.78 2.73 5.1 7.021 8.65 8.62 14.89 8.19 1.14 11.61 7.06 16.69 11.3-6.41-3.12-11.141-9.82-18.26-11.3-.631-6.68-5.711-8.92-7.841-14.11-3.09.1-2.39 3.41-5.479 1.57-1.46-1.42-1.79-3.96-2.351-6.27-4.858 1.05-9.528-.41-13.198-2.57z"/><path d="M586.83 167.7v32.66h211.82V167.7h.83v33.71H586V167.7h.83zM584.91 62.26H803.2V167.7h-3.719V65.4H586.42c-.479.09-.45.82-.42 1.57V167.7h-2.01V62.26h.92z" fill="#fff"/><path d="M561.92 43.78c0-5.77 6.41-10.44 14.32-10.44s14.319 4.67 14.319 10.44c0 3.68-2.619 6.92-6.569 8.78-2.24 1.05-4.9 1.66-7.75 1.66-2.73 0-5.29-.56-7.46-1.53-4.12-1.84-6.86-5.14-6.86-8.91z" fill="#c8c8c8"/><path d="M576.24 54.22c2.85 0 5.51-.61 7.75-1.66v251.18H569.2l-.42-251.05c2.17.97 4.73 1.53 7.46 1.53z" fill="#c8c8c8"/><path d="M572.96 308.56c.29.19.59.37.9.56-.63-.05-1.261-.07-1.9-.07.32-.17.65-.34 1-.49zM521.25 324.23c2.45-1.41 7.38-2.36 9.4 0 2.899.03.869-4.87 3.909-4.7 8.341 3.62 16.07 7.34 26.641 3.13v-11.75c4.53-1.39 7.729-1.87 10.76-1.86-2.729 1.47-4.81 3.6-9.97 2.64v12.54c-5.88-.13-10.23 1.26-14.891 2.35-3.729-2.53-7-5.53-13.319-5.49-2.29 1.27 1.25 4.04-.78 4.7-4.22-2.5-8.06-2.1-13.32-.78-3.71-3.34-8.35-5.75-16.449-4.7-.671-2.47-1.461-4.81-3.921-5.48-11.96 4.02-23.71-1.94-31.34-7.05-2.13-5.97-2.01-14.19-3.14-21.16-5.79 2.02-12.08-1.75-16.45-5.48-.07-5.16-1.01-9.44-3.92-11.76-4.65 1.1-9.12 2.37-11.75 5.49-2.31-2.91-9.22-1.22-7.83-7.84-3.35-.01-5.83-.89-8.67-1.42l.01-.08c2.73.5 5.82.55 9.44-.06-1.18 5.62 3.18 5.7 5.479 7.83 4.83-1.18 7.141-4.87 13.32-4.7 3.7 2.05 5.31 6.19 4.7 12.54 5.57 3.28 9.92 6.01 16.46 4.7.93 7.42 1.689 15.01 3.13 21.94 8.75 3.93 20.14 10.87 31.34 5.48 2.91 1.27 2.391 5.97 6.271 6.27 7.86-1.34 10.28 2.78 14.89 4.7zM395.96 658.11c-.09-.04-.17-.07-.24-.091a.88.88 0 0 1 .17-.02c.03.041.05.071.07.111z"/><path d="M402.94 659.56c-1.05-2.869-3.72-4.119-3.92-7.829 3.25-4.33 7.98-7.171 10.19-12.54h3.13c.86-1.75 1.3-3.921 2.35-5.48 6.96-4.19 11.32-12.86 18.02-16.46 13.81-7.42 30.6-10.59 44.66-15.67 15.38-5.54 30.21-10.82 44.66-15.67 7.88-2.641 14.939-4.45 21.149-8.62 5.65-3.771 11.101-8.51 17.24-13.31 11.14-8.721 24.01-17.131 33.69-26.641 15.529-15.26 23.76-34.09 40.12-49.21-5.82 8.82-12.98 16.51-19.75 24.92-6.711 8.34-12.511 18.45-20.37 25.851-7.57 7.13-18.061 13.77-27.42 21.159-9.04 7.131-18.061 16.681-27.421 21.15-15.289 7.3-34.8 11.61-52.5 18.021-18.01 6.529-36.47 12.739-52.489 18.02-8.51 2.81-11.19 14.43-19.59 17.24.21 2.819-1.45 3.779-1.56 6.27-.91-.66-2.11-1.04-3.92-.79-.77 6.811-7.5 7.66-9.41 13.32 1.73 1.94 3.58 3.74 3.92 7.05-1.89 3.34-3.58 6.87-8.62 7.061-.79-3.98 2.5-6.761.86-9.29.47.17.97.399 1.49.67.42 3.279-1.36 4.38-1.56 7.05 4.151-.292 5.361-3.522 7.051-6.272zM364.81 726.51c2.87-6.3 5.39-12.95 5.22-22.29 3.77-4.85 6.87-10.37 11.75-14.1 2.9-10.92 1.7-36.39 13.94-32.101-14.02 1.061-8.43 21.73-13.15 32.101-2.37 4.5-8.97 8.03-10.97 13.32-1.36 3.579-.16 10.06-1.57 14.88-.84 2.9-3.51 5.5-5.22 8.19z"/><path d="M366.9 172.23c-.02.04-.04.07-.05.11-.05-.04-.1-.07-.14-.12.06.01.13.01.19.01z" fill="#fff"/><path d="M363.76 728.51c.26-.68.63-1.34 1.05-2-.5 1.09-1.01 2.17-1.52 3.25.17-.46.33-.88.47-1.25zM343.81 771.17c5.29-4.08 12.42-7.09 16.82-10.54-2.13-4.82-.16-5.28 1.57-9.399-1.54-1.601-4.63-1.641-4.7-4.7 1.03-6.46 3.38-11.601 5.77-16.71-1.75 4.859-4.46 13.71-4.21 15.93.35 2.99 4.19 3.62 4.7 6.26-.06-.35-3.14 5.561-3.13 5.49-.52 2.93 1.82 2.93 0 5.48-3.64 5.119-11.92 4.409-16.78 8.239l-.04-.05zM311.55 245.46c-.53.45-1.14.85-1.85 1.2-1.23.61-2.58.98-4 1.21 2.1-.64 4.05-1.43 5.85-2.41z"/><path d="M283.85 250.58c-3.39 8.52-17.59 6.23-27.17 8.56 4.25-2.17 9.41-3.44 16.98-2.29 4.98-1.53 6.25-6.05 11.76-7.84 6.24-2.02 14.02-.14 20.28-1.14-6.06 1.87-13.37 2.52-21.85 2.71z" fill="#fff"/><path d="M256.43 259.2c.08-.02.16-.04.25-.06-.11.05-.21.1-.31.16.02-.03.04-.07.06-.1z"/><path d="M251.73 602.37c.91-2.63 2.09-4.86 3.33-6.851-1.23 2.721-2.58 5.521-3.83 8.391.16-.52.32-1.03.5-1.54z" fill="#fff"/><path d="M250.16 589.05c-7.19-1.18-1.63-9.6-.79-14.1 5.4 2.66-1.04 7.86.79 14.1z"/><path d="M231.35 582.78c1.29-2.9 5-3.36 4.71-7.83 3.35-.49 3.19 2.55 6.26 2.34-.22-1.26.74-1.34.79-2.34l2.33.26c-.22 2.01-.26 4.01.02 6-4 1.93-10.05 6.41-14.11 1.57zM213.33 624.3c-3.65-7.729-.11-19.99 3.14-25.85 6.28-2.33 12.39-4.83 18.79-7.05h.02c3.21 1.229 5.89 2.979 8.61 4.699-2.45 7.141-9.04 10.131-17.94 10.82-1.29.09-2.62.14-4 .15-.59 3.66 4.93 7.47 4.7 13.319-2.23 3.512-7.73 3.752-13.32 3.912z" fill="#fff5b4"/><path d="M233.95 572.42c-.08.05-.16.11-.24.17v-.17h.24z" fill="#fff"/><path d="M230.85 316.15c.09.79.17 1.56.22 2.32-.14-.68-.31-1.37-.5-2.08.1-.09.19-.17.28-.24zM232.46 610.54c-1.43 1.81-5.59.85-5.81-1.91 1.72-1.729 3.2.78 6.27 0 .09.82-.1 1.45-.46 1.91z"/><path d="M226.65 607.07c-.26-.051-.48-.07-.69-.07l-.01-.08c8.9-.689 15.49-3.68 17.94-10.82-2.72-1.72-5.4-3.47-8.61-4.699 3.99-.051 7.61 1.369 10.18 5.479-3.78 5.11-8.94 8.84-12.97 13.68l-.03-.02c.36-.46.55-1.09.46-1.91-3.07.78-4.55-1.729-6.27 0h-.05c.01-.48.03-1 .05-1.56z"/><path d="M226.65 608.63c.22 2.76 4.38 3.72 5.81 1.91l.03.02c-1.31 1.57-2.5 3.25-3.49 5.131-2.23-2.16-2.5-3.551-2.4-7.061h.05z"/><path d="M225.87 285.84c5.51 3.14 8.23 5.11 7.84 10.97-.19 2.7-2.55 4.25-2.36 7.05.4 5.8 7.14 8.9 3.92 14.88-1.96-.36-2.58-3.96-4.42-2.59-.08-.69-.17-1.39-.28-2.11 2.27-.94 3.57 4.7 3.92.79-.18-5.46-4.72-6.68-4.7-12.54.01-3.85 3.39-5.41 2.35-9.4-.8-3.05-6.65-3.96-7.84-7.84-1.88-6.13.9-9.09 4.7-14.1 13.88.87 18.84-7.18 27.37-11.65-3.68 6.98-12.58 8.73-19.53 12.43h-7.05c-3.24 2.62-5.38 9.26-3.92 14.11z" fill="#fff"/><path d="M227.44 621.17c-2.49 3.87-10.15 4.65-14.89 3.92-3.75-7.83-.53-20.41 2.35-26.64 5.69-2.61 13.57-6.96 20.36-7.05-6.4 2.22-12.51 4.72-18.79 7.05-3.25 5.859-6.79 18.12-3.14 25.85 5.59-.16 11.09-.399 13.32-3.91.23-5.85-5.29-9.659-4.7-13.319 1.38-.011 2.71-.061 4-.15l.01.08c-1.09 0-1.55.64-2.44.85-.34 2.969 4.79 7.209 3.92 13.319z"/><path d="M184.36 426.03c1.64-10.87 5.12-19.9 10.95-26.59 2.43.22 2.99 6.36 5.49 3.92-2.45-5.5-13.7-14.49-12.54-21.15.83-4.75 6.93-4.61 10.19-8.62-.1-8.46 4.82-11.89 12.53-12.54 9.9-11.76 21.7-21.29 20.09-42.58 4.9 22.13-10.14 32.04-20.09 43.36-5.9 1.41-11.48 3.14-10.96 10.97-1.89 5.5-9.16 4.53-10.19 9.41-1.5 7.08 9.84 14.35 11.75 21.15 2.9.5 7.81-1.01 9.4.78-4.08 3.65-14.85 1.59-15.67-3.13-6.06 5.93-6.68 17.3-10.95 25.02z" fill="#fff"/><path d="M184.36 426.03c0 .02-.01.03-.01.05-.05.08-.11.17-.17.25.07-.09.12-.19.18-.3z"/><path d="M151.44 444.88c.05-4.32 4.03-10.99 7.83-12.53 7.12-2.89 19.35 2.311 24.86-5.92-1.74 3.03-4.09 5.45-7.62 6.7-6.3-.67-10.78.42-18.02.79-12.3 10.91 1.1 25.14 7.94 33.61l-.1.08c-5.67-6.2-14.99-13.73-14.89-22.73z" fill="#fff"/><g fill="none" stroke="#231f20"><path stroke-width="7" d="M584.91 62.26H803.2v142.19H586.21M568.78 52.69c-4.12-1.84-6.86-5.14-6.86-8.91 0-5.77 6.41-10.44 14.32-10.44s14.319 4.67 14.319 10.44c0 3.68-2.619 6.92-6.569 8.78-2.24 1.05-4.9 1.66-7.75 1.66-2.73 0-5.29-.56-7.46-1.53z"/><path stroke-width="7" d="M568.78 52.4v.29l.42 251.05M583.99 51.88V303.74M586 167.7V66.97c-.03-.75-.06-1.48.42-1.57h213.061v136.01h-213.48L586 167.7z"/><path d="M673.71 130.79c.35-2.81-1.06-9.92.83-13.6-.55-.01-.38-.92-.83-1.05-1.22 5.33-1.86 13.19 0 14.65z" stroke-width="4"/><path d="M706.64 112.37c.181.74.36 1.57.53 2.48 2.12 11.16 3.38 33.35-4.5 37.39.01 1.56 3.07-.74 2.49 1.57h-4.561c6.431 11.41 14.521-6.62 12-20.41h86.051v66.96H586.83V167.7v-34.3h86.06c-1.63 13.31 3.28 29.61 11.99 21.45-1.229-1.52-2.22-2.97-.83-5.23-1.09.01-2.359-.19-2.89.52.399.54.81 1.06 1.24 1.57-6.021-1.95-5.9-18.48-4.971-29.29.851.15.82 1.41 1.66 1.57-.97-2.27-2.07-4.36-1.66-8.37.53.91 1.4 1.37 1.25 3.14.84-1.11-.52-3.86 0-6.28 1.11 1.77 1.971.58 2.061-1.57.49.08.359.95.42 1.57 1.18-.25 1.189-1.99 1.649-3.14.45 2.18 1.641 1.3 2.49 0 1.17.7-.319 2.33-.42 3.14.37-.41.94-.56 1.66-.52-2.16 2.21-.23 3.42-2.9 5.23 1.54 2.26-1.56 5.5-2.069 9.94-1.28 11.32 2.08 20.38 8.689 23.01-.6 2.37-1.99 1.18-2.89 0-.01 1.75 1.34 1.79 1.229 3.67-1.659 1.73-2.85 4.06-3.3 7.32.51 1.1 2.94-.23 2.07 2.62 2.66-.84 2.3-6.87 1.229-8.37.391-2.87 1.08.9 2.08.52-.149-.82-2.51-4.65.82-5.23v5.23c1.37-.54-.76-5.5 1.24-5.23 1.72-.08.43 3.64.83 5.23.939-.72.16-3.64.41-5.23 2.539.84 1.97 3.63.42 5.23 1.279.52 1.6-2.78 2.479-1.05-.8 1.97-1.479 7.32.83 8.9.54-1.06.45-2.92 2.48-2.09-.341-3.58-1.561-6.06-3.311-7.85-.02-1.6.87-2.04 1.24-3.14-.94-.66-1.83 2.98-2.9 0 6.58-3.25 9.95-12.57 8.69-24.07.28 10.67-2.11 21.48-9.93 23.54 3.279-3.08 7.829-6.42 8.689-14.64 1.021-9.75-2.8-22.86-11.58-20.93-.53.12-1.04.29-1.52.52-.19.09-.37.19-.551.3-.399.23-.779.51-1.14.83-.03.02-.05.04-.07.06-.109.09-.22.19-.329.3l-.011.01-.109.11c-.271.27-.521.57-.761.88l-.199.26c-.181.26-.36.53-.53.81-.021.03-.04.05-.05.08-.011.01-.021.02-.021.03-.01.01-.02.03-.03.04-.779 1.33-1.399 2.9-1.84 4.61-.01.02-.02.04-.02.06-.59 2.28-.891 4.81-.91 7.37-.01.01-.01.02-.01.02-.021 2.53.22 5.09.71 7.47.21 1.01.46 1.99.76 2.92.07.24.15.47.23.69.1.28.199.55.3.81.069.17.14.35.21.51v.01c.02.03.03.06.04.08s.02.04.02.06c.08.17.15.34.23.51.29.61.59 1.18.92 1.71.12.19.24.38.37.56.229.33.46.63.7.92.13.15.26.29.39.43.16.17.33.33.5.48.03.03.07.06.1.09.07.06.15.12.221.18.05.04.09.08.14.11l.01.01c.09.07.18.13.271.21.729.5 1.529.84 2.39 1h-.01c-10.88 0-12.58-28.11-3.71-34.52 1.08-.84 3.149-.37 2.069-1.58.381-1.68 2.771 2.74 2.48-1.04 1.46-.28 1.01 1.85 2.479 1.57.381-.2.49-.44.46-.73-.039-.64-.77-1.48-.46-2.41-1.47 3.94-1.329-2.17-3.31.52.45-1.95-1.03-1.49-.82-3.14-6.38-1.99-11.239-2.79-17.79-4.7 4.63-1.81 8.78-4.25 14.48-4.71 2.55 2.47 7.979 3.4 10.75 0 6.439-.3 9.49 3.69 14.89 4.71-4.58 2.74-12.13 1.75-16.54 4.7-1.029 1 1.88 1.43 1.24 3.67-.43.67-1.31.79-1.86 1.31-.08.07-.149.16-.21.25 3.591 2.78 6.681 6.2 7.45 12.56.86-2.51-1.43-5.51-2.07-7.85 1.261.33.551-2.05 1.65-1.04-.06-.98-.27-1.75-.83-2.09.38-1.42 1 1.1 1.25 1.57.92-1.21-1.03-3.21-1.25-4.71-.24-1.32 1.58 3.03 2.49 3.66-.66-2.31-1.46-4.43-2.9-5.76 1.23-.67 2.391 3.25 3.311 4.71.62-.15-.25-2.76-.83-3.14.88-1.4.93 2.63 2.07 2.62.34-1.48-.57-1.36-.41-2.62v.01c.81.89 1.109 2.44 1.239 4.18.23-.18.341-.45.36-.77.03-.34-.04-.74-.14-1.17-.03-.1-.05-.21-.08-.32-.021-.04-.03-.08-.04-.12v-.02l-.09-.27-.061-.21c-.01-.02-.01-.04-.02-.05-.01-.03-.021-.06-.021-.09-.021-.08-.041-.16-.071-.23" stroke-width="4"/><path d="M706.6 112.21c-.1-.3-.17-.56-.199-.78.059.25.139.51.199.78zM706.6 112.21c.011.03.011.05.021.08.01.03.02.05.02.08" stroke-width="4"/><path d="M687.37 104.11c3.01-.29 2.53 1.22 5.37 1.57.479-.62.47-1.85.42-3.14-1.56-.87-5.17-.41-5.79 1.57z" stroke-width="7"/><path d="M677.02 122.94c-1.739.82.091-2.9-1.649-2.09.71-.7-.71-9.77 1.649-12.56-.02 3.08-1.18 11.5 0 14.65zM709.7 120.33c-1.46-.67-.66-10.25-1.24-12.04 2.22 3.41 1.37 10.29 1.24 14.13-1.05-.05-1.05-2.04 0-2.09zM691.5 117.19c-.61 1.49-2.77 1.03-4.13 1.57 1.88-4.49 8.37-4.21 10.75-.53-.51 1.59-1.42-.56-2.48 0 1.2 2.15 5.091.89 4.96 4.71-.51-.98-3.18-.62-2.069-2.09-1.73.93-3.17.49-4.13-.52.08-.71 1.72-.98 0-1.05.01-.51.5-.41.819-.52-.21-.43-.43-.85-.41-1.57-1-.46-1.55 1.29-1.649-1.05-1.24 1.33-.69 1.56-2.9 3.14.01.51.51.41.83.52-.729 2.43-4.02 1.02-5.79 3.14-.84-.42.74-2.15.82-3.14 1.979-.63 4.889-.09 5.379-2.61z" stroke-width="4"/><path d="M691.92 130.27c.16.04.311.06.45.07 0 .05-.13.03-.45-.07zM690.24 128.93c.609.43 2.13 1.26 2.13 1.41M690.24 128.93c0-.07 0-.15.02-.23-.39-.09-.31.02-.02.23z" stroke-width="5"/><path d="M692.37 130.34c.83.08 1.49-.16 2.439-.07-1.899-3.28-7.119-6.42-10.76-4.19.021-4.51 5.11-2.61 6.63-5.23 1.53.06 1.04.76.82 2.09 1.1-1.42 1.37-.28 2.07 0 1.01-.52-.811-2.31 1.239-2.09.021 1.34-.3.64-.829.52 1.39 1.24 5.92.63 7.449 3.14 2.58 11.7-1.739 26.58-11.17 23.54-4.779-1.54-6.54-9.61-7.029-17.78.859.28 1.55.91 2.069-.53.601.23-.05.46 0 1.05.94-2.1 1.5 1.02 1.65-1.05.77.08.26 1.78.83 2.09.739-.8.27-3.13 1.239-3.66.461.36-.079 1.74 1.24 2.1.55-.21-.04-.59-.02-1.34" stroke-width="5"/><path d="M696.47 142.82c-1.72 1.69-2.689-1.07-4.14 1.57 1.38-.52 4.63 1.33 4.14-1.57z" stroke-width="7"/><path d="M711.36 116.14c2.21 3.73 1.63 12.37.83 14.65-1.73.2-.21-2.52.409-2.62-1.389-1.46-.519-9.31-1.239-12.03z" stroke-width="4"/><path stroke-width="5" d="M584.51 167.7h218.62M297.32 794.4c-.61-.65-1.23-1.301-1.85-1.95-7.27-7.71-14.32-16.141-11.62-31.03-8.46 1.86-6.71-7.02-13.32-7.84-1.27-.16-2.45.12-3.61.59-3.16 1.28-6.19 3.98-10.49 3.33-5.07-.77-4.07-3.65-9.41-7.05-11.41 1.29-11.75-10.33-21.15-9.41-5.3.52-6.21 6.91-10.97 10.97-7.45 6.36-17.73 10.01-20.37-.779-1.27-3.37 5.4-4.851 4.7-10.19 1.83-2.03 8.95-6.45 6.27-7.83-4.44-.78-4.97 2.35-9.4 1.57-3.7-5.261-6.08-18.45 0-22.721 6.43-.949 9.68 1.28 14.1 2.351 2.66-5.44 8.2-8 12.54-11.76-5.44-4.771-7.3-13.591-5.49-23.5-2.45-2.69-2.56-7.73-3.48-11.94-.73-3.28-1.94-6.07-5.14-6.87-3.67 1.48-3.8 5.29-7.83 7.061-2.51 1.1-5.97.279-8.62 1.56-4.61 2.24-7.09 8.81-11.75 12.54-6.96 5.57-15.64 7.42-20.37 13.32.05 3.97-1.35 6.489-.79 10.97-4.04.91-7.38 2.54-10.97 3.92-6.03 13.55-17.01 22.15-26.63 32.12 1.32 6.439-2.61 11.38-3.14 17.24-.36 4.02 1.72 7.89.79 12.529-.38 1.841-3.5 4.33-3.92 6.271-1.58 7.2.54 15.399.32 24.46M326.16 803.72c-5.13-.2-13.94-3.22-22.72-2.35-1.81-2.41-3.94-4.68-6.11-6.97M363.27 729.82c-1.75 4.859-4.46 13.71-4.21 15.93.35 2.99 4.19 3.62 4.7 6.26-.06-.35-3.14 5.561-3.13 5.49-.52 2.93 1.82 2.93 0 5.48-3.64 5.119-11.92 4.409-16.78 8.239-.16.12-.31.25-.46.38-5.54 4.95-6.6 12.33-3.91 18.801-1.64 2.279-6.78 1.06-8.62 3.14.8 5.76-1.4 8.52-4.7 10.18M366.85 172.34c.26.22.53.44.83.67-2.44 4.09-1.28 11.78-6.27 13.32-3.55 1.2.42-5.11-3.13-3.91-10.42 2.16-14.84-3.17-21.94-6.27-2.8 9.25-12.39 15.76-14.88 22.72 5.41 2.95 13.39 3.32 18.02 7.05.12 9.95 12.03 13.79 14.88 23.51 9.82-.42 8.71 10.1 20.37 7.83 2.5 7.98 11.46 10.18 19.59 14.89 7.27 4.21 12.36 11.59 21.9 13.38 2.73.5 5.82.55 9.44-.06-1.18 5.62 3.18 5.7 5.479 7.83 4.83-1.18 7.141-4.87 13.32-4.7 3.7 2.05 5.31 6.19 4.7 12.54 5.57 3.28 9.92 6.01 16.46 4.7.93 7.42 1.689 15.01 3.13 21.94 8.75 3.93 20.14 10.87 31.34 5.48 2.91 1.27 2.391 5.97 6.271 6.27 7.859-1.34 10.279 2.78 14.89 4.7 2.45-1.41 7.38-2.36 9.4 0 2.899.03.869-4.87 3.909-4.7 8.341 3.62 16.07 7.34 26.641 3.13v-11.75c4.53-1.39 7.729-1.87 10.76-1.86.64 0 1.271.02 1.9.07 3.77.23 7.67 1.1 13.979 1.79.57 1.78.7 4 1.57 5.48 2.92 2.51 3.189-3.13 6.27-.78 2.73 5.1 7.021 8.65 8.62 14.89 8.19 1.14 11.61 7.06 16.69 11.3.18.16.359.31.54.45.109-.02.22-.04.33-.05 5.34-.94 10.31 1.32 13.77-2.3 6 8.1 16.84 11.37 28.21 14.1 3.72-.98 2.061-7.34 6.271-7.83 16.6 2.72 26.739 11.9 35.26 22.72-10.07-9.26-19.04-19.62-36.04-21.94-1.58 4.87-3.82 8.1-7.08 10.16-.07.04-.14.09-.21.12-3.25 1.99-7.49 2.85-13.08 3.04-3.35-3.57-11.35-6.87-16.46-2.35 1.17 6.4 10.9 4.25 14.1 8.62 2.12 8.01 2.08 13.84 6.82 18.63.32.32.66.64 1.021.95 4.439 3.82 12.189 4.54 13.319 9.41 1.21 5.25-4.54 8.84-4.7 14.88-.229 8.45 6.04 14.28 7.051 24.29-8.54.399-13.42-.57-18.021-3.13-3.14 19.58-9.52 35.92-13.32 54.84-1.21-.17-2.14-.05-2.89.229-.38.141-.72.33-1.03.551-.199.319-.409.63-.619.939-5.82 8.82-12.98 16.51-19.75 24.92-6.711 8.34-12.511 18.45-20.37 25.851-7.57 7.13-18.061 13.77-27.42 21.159-9.04 7.131-18.061 16.681-27.421 21.15-15.289 7.3-34.8 11.61-52.5 18.021-18.01 6.529-36.47 12.739-52.489 18.02-8.51 2.81-11.19 14.43-19.59 17.24.21 2.819-1.45 3.779-1.56 6.27-.91-.66-2.11-1.04-3.92-.79-.77 6.811-7.5 7.66-9.41 13.32 1.73 1.94 3.58 3.74 3.92 7.05-1.89 3.34-3.58 6.87-8.62 7.061-.79-3.98 2.5-6.761.86-9.29a.673.673 0 0 0-.07-.11.88.88 0 0 0-.17.02c-14.02 1.061-8.43 21.73-13.15 32.101-2.37 4.5-8.97 8.03-10.97 13.32-1.36 3.579-.16 10.06-1.57 14.88-.84 2.899-3.51 5.5-5.22 8.189-.42.66-.79 1.32-1.05 2-.14.37-.3.79-.47 1.25M376.3 118.17c-1.69 4.52-8.56 13.03-11.75 8.62-3.9 11.53-12.96 20.17-7.05 35.26 1.42.33 4.3-1.24 6.26 1.56-.67 4.47-.07 6.09 2.95 8.61M117.3 759.81c-.03-.079-.07-.17-.11-.25M117.51 760.34a.498.498 0 0 1-.04-.109M117.76 761.13c-.06-.21-.13-.41-.19-.61"/><path d="M117.51 760.34c-.75 2.92-1.43 5.91-1.8 9.16-.2 1.66-.31 3.4-.31 5.23 3.85-1.351 3.72-8.7 2.45-13.28M120.86 742.23c-.18 6.85-1.89 12.369-3.35 18.1M251.23 603.91c-5 16.03-3.4 36.609-16.74 40.76-.79-1.04-.74-2.91-2.35-3.13-3.02 2.21-2.97 7.479-6.27 9.4-6.46 2.159-15.8 1.439-18.8 7.06 1.5 2.14 6.22 1.09 7.05 3.91-.74 1.74-.71 3.479-.28 5.26 1.04 4.26 4.4 8.68 4.98 13.55 1 8.38-2.31 18.13 5.48 22.721-6.48 2.649-10.28 7.989-14.88 12.529-3.32-2.17-7.16-3.8-13.32-3.13-4.58 4.91-3.01 16.23.78 21.15 5.05-1.32 6.32-2.37 12.54-1.561-5.5 5.73-11.03 11.431-14.11 19.58 8.91 16.82 22.39-10.47 28.99-11.75 11.96-2.319 9.22 11.141 24.29 8.62 2.5 8.92 11.07 8.061 18.29 5.19a40.15 40.15 0 0 0 4.43-2.061c4.48 2.83 6.69 9.45 12.54 8.62 2.14 2.71-.78 5.61 0 9.4 1.23 9.439 6.68 14.069 11.75 19.59.46.49-.26 2.04-.13 2.83.02.13.06.229.13.31.52.601 1.1 1.141 1.72 1.641 0 0 0-.011.01 0 2.68 2.13 6.04 3.449 7.67 6.189 9.47-.1 13.5.51 21.16 2.351 2.61-2.091 4.71-4.69 3.91-10.181 1.85-2.08 6.98-.859 8.62-3.14-4.07-8.561-.52-14.11 5.12-18.45 5.29-4.08 12.42-7.09 16.82-10.54-2.13-4.82-.16-5.28 1.57-9.399-1.54-1.601-4.63-1.641-4.7-4.7 1.03-6.46 3.38-11.601 5.77-16.71 0-.021.01-.04.02-.061.51-1.08 1.02-2.16 1.52-3.25 2.87-6.3 5.39-12.95 5.22-22.29 3.77-4.85 6.87-10.37 11.75-14.1 2.9-10.92 1.7-36.39 13.94-32.101.07.021.15.051.24.091.47.17.97.399 1.49.67.42 3.279-1.36 4.38-1.56 7.05 4.15-.29 5.36-3.521 7.05-6.271-1.05-2.869-3.72-4.119-3.92-7.829 3.25-4.33 7.98-7.171 10.19-12.54h3.13c.86-1.75 1.3-3.921 2.35-5.48 6.96-4.19 11.32-12.86 18.02-16.46 13.81-7.42 30.6-10.59 44.66-15.67 15.38-5.54 30.21-10.82 44.66-15.67 7.88-2.641 14.939-4.45 21.149-8.62 5.65-3.771 11.101-8.51 17.24-13.31 11.14-8.721 24.01-17.131 33.69-26.641 15.529-15.26 23.76-34.09 40.12-49.21.539-.51 1.09-1 1.649-1.49.69-.609 1.39-1.21 2.11-1.8 4.56-18.67 9.939-36.54 14.1-55.63 3.771 5.13 10.24 3.95 17.24 4.71-1.96-8.94-8.64-17.1-7.061-26.64.69-4.13 6.36-6.17 4.7-11.75-4.55-3.41-9.6-6.33-13.62-10.28-4.42-4.33-7.6-9.89-7.529-18.71-5.15-.6-6.75-4.75-13.32-3.92-.66-1.95-1.02-4.2-.78-7.05 8.63-2.39 13.54.91 18.8 3.92 4.07-3.41 6.301.1 11.521-2.26.08-.03.15-.06.229-.1l-.02-.02c-6.82-7.26-21.58-6.59-26.62-15.64-5.689 2.6-10.03 2.31-13.77.73-.29-.12-.58-.26-.87-.4-6.41-3.12-11.141-9.82-18.26-11.3-.631-6.68-5.711-8.92-7.841-14.11-3.09.1-2.39 3.41-5.479 1.57-1.46-1.42-1.79-3.96-2.351-6.27-4.859 1.05-9.529-.41-13.199-2.57-.311-.19-.61-.37-.9-.56-.35.15-.68.32-1 .49-2.729 1.47-4.81 3.6-9.97 2.64v12.54c-5.88-.13-10.23 1.26-14.891 2.35-3.729-2.53-7-5.53-13.319-5.49-2.29 1.27 1.25 4.04-.78 4.7-4.22-2.5-8.06-2.1-13.32-.78-3.71-3.34-8.35-5.75-16.449-4.7-.671-2.47-1.461-4.81-3.921-5.48-11.96 4.02-23.71-1.94-31.34-7.05-2.13-5.97-2.01-14.19-3.14-21.16-5.79 2.02-12.08-1.75-16.45-5.48-.07-5.16-1.01-9.44-3.92-11.76-4.65 1.1-9.12 2.37-11.75 5.49-2.31-2.91-9.22-1.22-7.83-7.84-3.35-.01-5.83-.89-8.67-1.42-2.01-.37-4.2-.56-7-.14-10.32-11.1-27.17-15.66-36.83-27.43h-7.05c-2.21-4.05-4.55-7.98-11.75-7.05-2.74-5.88-5.47-11.76-10.97-14.88-.51 3.92-1.35 7.53-4.7 8.61 2.82 3.3 2.37 6.64-2.35 7.84-2.47-2.56.01-8.45-2.35-9.4-2.77 1.41-3.44 4.91-6.27 6.27 2.54 2.37 6.22 14.19 0 15.67-.9-4.06-2.02-7.91-5.48-9.41-2.48 4.43-5.79 7.56-9.91 9.77-1.8.98-3.75 1.77-5.85 2.41" stroke-width="5"/><path d="M233.95 572.42c2.85-1.92 6.81.13 9.16 2.53-.05 1-1.01 1.08-.79 2.34-3.07.21-2.91-2.83-6.26-2.34.29 4.47-3.42 4.93-4.71 7.83 4.06 4.84 10.11.359 14.11-1.57-.28-1.99-.24-3.99-.02-6 .76-6.91 3.6-13.9 2.37-20.64-.56-3.03-3.69-5.011-3.92-7.83-.69-8.41 5.92-14.07 13.32-14.891-1.37 4.25-7.54 6.9-7.84 13.32-.01.19 0 .38.02.57.22 2.09 2 4.38 2.34 6.479 1.27 8.12-.71 18.88 5.66 22.48M184.36 426.03c-.06.11-.11.21-.18.3M230.85 316.15c-.09.07-.18.15-.28.24.19.71.36 1.4.5 2.08M256.68 259.14c-.09.02-.17.04-.25.06-.02.03-.04.07-.06.1" stroke-width="5"/><path d="M250.16 589.05c-1.83-6.24 4.61-11.439-.79-14.1-.84 4.5-6.4 12.92.79 14.1zM120.67 744.82c.1-.82.16-1.681.19-2.59.01-.391.02-.79.02-1.19" stroke-width="5"/><path d="M368.26 118.98l5.69-.03c.41 5.64-5.47 4.98-7.05 8.62-1.63-.2-.22-3.44-1.57-3.91-.21 1.04-.54 2.06-.95 3.06-2.72 6.74-9.11 12.86-10.02 20.44-.65 5.47 2.87 10.45 1.57 16.45 1.26 4.1 3.45-3.33 6.27 0 1.19 3.55-1.17 8.44 4.51 8.61.06.01.13.01.19.01-.02.04-.04.07-.05.11-1.95 3.75-1.91 9.48-4.65 12.43-3.09 1.25-.28-3.39-2.35-3.14-10.18 1.98-16.11-3.98-24.29-6.26-2.3 7.95-10.63 15.06-15.67 22.72 2.77 5.84 13.53 3.7 18.02 7.83 2.74 7.38 5.67 14.62-1.57 19.59 1.01 2.38 3.69 3.12.79 5.48-3.11-.81-.55-7.28-2.35-9.4-4.8.69-5.8 5.18-8.62 7.84 1.46 3.92 5.01 8.49 2.35 14.1-2.15-3.08-2.53-7.92-7.05-8.62-5.98 1.25-5.74 7.12-9.91 10.55-.53.45-1.14.85-1.85 1.2-1.23.61-2.58.98-4 1.21-6.26 1-14.04-.88-20.28 1.14-5.51 1.79-6.78 6.31-11.76 7.84-7.57-1.15-12.73.12-16.98 2.29-.11.05-.21.1-.31.16-8.53 4.47-13.49 12.52-27.37 11.65-3.8 5.01-6.58 7.97-4.7 14.1 1.19 3.88 7.04 4.79 7.84 7.84 1.04 3.99-2.34 5.55-2.35 9.4-.02 5.86 4.52 7.08 4.7 12.54-.35 3.91-1.65-1.73-3.92-.79.11.72.2 1.42.28 2.11.09.79.17 1.56.22 2.32 1.61 21.29-10.19 30.82-20.09 42.58-7.71.65-12.63 4.08-12.53 12.54-3.26 4.01-9.36 3.87-10.19 8.62-1.16 6.66 10.09 15.65 12.54 21.15-2.5 2.44-3.06-3.7-5.49-3.92-5.83 6.69-9.31 15.72-10.95 26.59 0 .02-.01.03-.01.05-.05.08-.11.17-.17.25-.01.04-.03.07-.05.1-5.51 8.23-17.74 3.03-24.86 5.92-3.8 1.54-7.78 8.21-7.83 12.53-.1 9 9.22 16.53 14.89 22.73-3.48 8.529-4.91 19.12-9.41 26.64 5.19 8.38 7.77 19.39 11.76 28.98-3.13 2.939-3.69 7.779-1.57 12.539-1.72 6.641-8.01 8.7-12.54 12.54-4.74.301-8.73-.149-10.97-2.35.61 4.98 7.16 10.521 9.41 16.45 8.89-.54 11.21 5.5 19.58 5.479 13.3 9.95 21.34 25.16 39.96 29.78 3.2-2.55-1.39-5.62-.78-10.189 1.46.109 2.62.52 3.13 1.569 7.02-6.31 15.89-10.75 15.67-24.29 2.19-1.46 3.55-3.76 7.05-3.92-1.72 4.021-5.53 5.96-5.48 11.75.59-.09 1.12-.14 1.57-.17h.24c2.69-.09 2.88.96 2 2.46-1.24 2.11-4.61 5.12-6.16 7.12 3.32 6.58 11.57 4.23 15.67 0-.06 2.01-.26 8.49 4.7 7.83.71-5.21 5.75-13.32-.79-16.45-1.16.66-1.68 1.97-1.56 3.91-1.72-9.05 4.15-24.42-3.14-30.55.44-6.88 4.69-9.94 8.62-13.32 3.06 1.29-3.91 5.25-4.7 7.83.2 1.61.4 3.1.58 4.52.9 7.15 1.49 12.41 1.77 21.341 2.14 2.159-1.15.729-1.57 2.35 1.37 4.51 4.65 3.54 7.98 5.32.48.25.96.56 1.43.95 1.89 6.279-.53 12.789-3.7 19.76-.01.01-.02.02-.02.029-1.23 2.721-2.58 5.521-3.83 8.391-1.85 4.25-3.48 8.68-4.21 13.34-1.61 10.36-3.91 21.27-10.96 25.86-2.67.58-1.3-2.891-3.14-3.141-3.58 1.65-4.96 5.49-6.27 9.41-4.84 1.42-9.63 2.9-15.67 3.13-4.81 2.5-5.21 9.41-8.61 13.32-13.09-1.44-15.42 10.22-22.73 15.67-7.06 5.26-15.94 5.91-20.37 13.32-1.04 2.35-.79 5.989-.78 9.399-2.89 1.811-6.25 3.15-10.19 3.92-6.4 13.7-17.36 22.851-27.42 32.9-.03 1.29-.1 2.56-.22 3.9.01-.04.01-.08 0 0-.47 5.47-1.65 10.22-3.7 14.13.08.149.16.319.23.489.05.08.08.16.11.25.06.141.11.28.17.421.02.029.03.06.04.1-.01 0 0 .01 0 .01.01.061.04.12.06.18.08.2.14.4.19.61l.09.32c.74 2.95.31 6.31-2.14 8.05-.42.3-.91.56-1.46.75 0-11.42 5.26-15.49 6.41-25.31" stroke-width="5"/><path d="M235.28 591.4c3.99-.051 7.61 1.369 10.18 5.479-3.78 5.11-8.94 8.84-12.97 13.68-1.31 1.57-2.5 3.25-3.49 5.131-2.23-2.16-2.5-3.551-2.4-7.061.01-.479.03-1 .05-1.56-.26-.051-.48-.07-.69-.07-1.09 0-1.55.64-2.44.85-.34 2.971 4.79 7.21 3.92 13.32-2.49 3.87-10.15 4.65-14.89 3.92-3.75-7.83-.53-20.41 2.35-26.64 5.69-2.61 13.57-6.96 20.36-7.05" stroke-width="5"/><path d="M235.28 591.4h-.02c-6.4 2.22-12.51 4.72-18.79 7.05-3.25 5.859-6.79 18.12-3.14 25.85 5.59-.16 11.09-.399 13.32-3.91.23-5.85-5.29-9.659-4.7-13.319 1.38-.011 2.71-.061 4-.15 8.9-.689 15.49-3.68 17.94-10.82-2.72-1.721-5.4-3.471-8.61-4.701z" stroke-width="5"/><path d="M232.46 610.54c.36-.46.55-1.09.46-1.91-3.07.78-4.55-1.729-6.27 0 .22 2.76 4.38 3.72 5.81 1.91z" stroke-width="5"/></g><path fill="none" d="M.25.25h850.394v850.394H.25z"/></svg>