<?xml version="1.0" encoding="iso-8859-1"?>
<!-- Generator: Adobe Illustrator 12.0.1, SVG Export Plug-In . SVG Version: 6.00 Build 51448)  -->
<!DOCTYPE svg PUBLIC "-//W3C//DTD SVG 1.1//EN" "http://www.w3.org/Graphics/SVG/1.1/DTD/svg11.dtd" [
	<!ENTITY ns_svg "http://www.w3.org/2000/svg">
	<!ENTITY ns_xlink "http://www.w3.org/1999/xlink">
]>
<svg  version="1.1" id="Layer_1" xmlns="&ns_svg;" xmlns:xlink="&ns_xlink;" width="850.89" height="850.89"
	 viewBox="0 0 850.89 850.89" style="overflow:visible;enable-background:new 0 0 850.89 850.89;" xml:space="preserve">
<g>
	<g id="XMLID_3_">
		<g>
			<path style="fill:#FFF5B4;" d="M160.08,523.89c20.35,16.53,35.55-15.01,49.64-23.359c8.71,3.46,16.53,7.8,18.98,17.52
				c-3.41,0.49-6.29,1.5-7.3,4.38l4.38,1.46c6.94,3.46,7.58,18.42,11.68,27.74c-1.85,7.4-10.47,8.03-10.22,17.521
				c9.49,18.84,0.12,51.21-4.38,70.08c-8.07-4.091-14.22-10.11-26.28-10.221c4.69,16.721-2.03,22.88-11.04,24.42
				c-1.8-0.92-3.36-1.46-4.43,0.41c-0.68,0.01-1.37,0.01-2.05-0.01c-0.89-4.47-3.1-7.61-4.38-11.68c-5.72-0.851-3.73,6-7.3,7.3
				c0.03-3.44-2.51-4.3-1.46-8.76c3.66,0.18,4.57,2.779,5.84-1.46c-8.76-8.561-1.08-20.021-1.46-39.421c4.42,3.69,5.81-5,5.84-10.22
				c-0.88-2.52-6.92,0.11-7.3-2.92c5.79-16.85,1.04-31.96-5.84-43.8c-3.4-2.18-6.29,0.49-7.3-1.46
				C158.15,537.69,153.46,526.63,160.08,523.89z"/>
			<path style="fill:#FFF5B4;" d="M165.55,303.63c-1.34,0.34-4.81-1.06-5.47-0.19c-1.6,2.15-1.96,5.95-2.55,9.28
				c-0.57,1.57-0.97,3.14-1.3,4.52c-0.16,0.3-0.33,0.57-0.53,0.8c-0.76,0.89-1.55,1.71-2.37,2.46c0,0,0,0-0.01,0
				c-3.63,1.67-7.2,3.94-10.85,5.86c-0.01,0.01-0.02,0.02-0.03,0.01c-5.68,1.51-12.08,1.45-18.86,0.43
				c0.18-9.55,9.32-10.14,10.22-18.98c-2.57-0.35-3.33-2.51-2.92-5.84c-6.2-0.35-7.86,3.82-14.6,2.92
				c-13.46-6.21-26.7-11.31-24.82-27.74c0.91-7.88,11.17-11.5,8.76-21.89c-12.67-0.47-18.77-7.51-20.43-18.98
				c10.43-3.96,29.06-1.29,26.27-21.9c-6.45-7.67-13.46-14.76-17.52-24.82c1.36-5.95,10.31-4.29,11.68-10.22
				c9.1,8.56,21.4-5.49,34.76-1.64c0.09,0.06,0.19,0.12,0.28,0.18c0.08-0.01,0.16-0.01,0.24-0.02c1.85,0.59,3.71,1.54,5.6,2.94
				c-0.45-2.19-0.29-3.47,0.26-4.25c0.91-0.37,1.75-0.81,2.53-1.3c1.51-0.32,3.26-0.48,4.51-1.75c9.35-9.55,7.16-28.61,21.82-32.1
				c-0.08,1.58-0.07,3.16,0.03,4.7c-0.61,3.15-2.13,5.4-1.41,9.88c5.77,6.5,10.51,12.9,20.44,11.68
				c-2.32,7.41,3.69,15.89,10.22,18.98c4.65-5.17,1.33-7.26-1.46-11.68c2.81-9.84,10.46-14.84,14.6-23.36
				c-0.11-2.68-1-5.78-1.16-8.32c0.04-0.6,0.06-1.22,0.05-1.86c0.33-2.39,2-3.81,6.95-2.96c-0.87,7.38,1.98,11.2,6.55,12.59
				c0.25,0.19,0.5,0.37,0.75,0.55c1.42,0.21,2.65,0.22,3.72,0.08c5.12,0.05,11.25-1.76,16.72-4.46c-2.72,4.3,3.27,13.78,8.76,10.22
				c4.79-7.84-5.03-12.05-4.38-20.44c0.53-5.31,3.45-8.23,8.76-8.76c-3.22,6.03,4.72,7.29,11.68,7.3c4.37-6.83-6.5-17.46,1.46-23.36
				c9.61-2.53,13.71,8.42,26.28,7.3c2.96-3.84,2.87-10.75,5.83-14.6c19.54-2.24,38.49-4.13,52.56-7.3c-1.3,2.59-5.92,1.86-4.38,7.3
				c6.05,5.64,10.84,12.52,14.6,20.44c20.2,5.59,45.1,6.49,64.24,13.14c-3.85,7.34-15.69,6.7-17.52,16.06
				c2.7,6.99,10.57,0.79,14.6,7.3c-1.78,5.04-8.02,5.61-8.76,11.68c2.19,3.46,6.15,1.46,7.3,2.92c-2.63,5.32-2.88,7.81-2.21,7.81
				l0.74,2.51c-4.48,1.33-3.17,8.44-8.75,8.66c-2.24-5.06-8.63-5.97-16.06-5.84c-2.53,4.34,0.47,7.41-1.46,10.22
				c-13.64-0.51-17.32,8.95-27.74,11.68c-0.25-2.5,8.28-5.74,1.46-5.84c-9.52-2.69-16.33,9.92-20.44,17.52
				c4.87,10.21,10.92,19.25,20.44,24.82c-0.87,1.11-2.94,6.04-3.57,8.34l-0.94-0.35c0.53-1.63,0.24-3.52-1.33-5.07
				c0.65,10.58-6.7,2.86-7.3,7.3c-10.48,49.41,31.73,58.78,52.56,81.75c4.13,1.23,9.01,1.7,13.14,2.92
				c12.45,38.16,19.68,81.55,55.479,96.36c-0.47,3.38,0.23,5.601,1.461,7.3c17.489,11.9,40.869,12.65,68.609,8.761
				c-0.38,4.27,3.3,4.479,2.92,8.76c-10.17,6.25-13.88,11.33-13.31,15.86c0.979,7.96,15.17,14.22,30.83,22.09
				c20.34,10.229,40.2,11.99,46.72,27.74c8.68,2.52,15.58,6.81,24.82,8.76c4.58,16.34,23.729,18.13,26.279,36.5
				c-2.119,6.649-7.58,9.939-5.84,20.439c-4.819-3.449-13.13-3.42-16.06-8.76c4.04-28.37-27.24-21.43-40.88-32.12
				c1.67-0.45,7.359-5.01,1.569-4.39l-0.069-0.82c0.17-0.14,0.17-0.35-0.04-0.63c-3.021-3.99-8.07,0.89-10.221-1.46
				c-16.109,11.62-23.72,31.76-29.199,54.02c9.529,8.48,24.79,11.221,33.58,20.44c-6.65,8.65,2.359,21.021-1.341,30.36
				c-0.27-0.051-0.54-0.101-0.83-0.141c-10.17-5.84-23.729,3.03-28.489,10.66c-0.45,8.24,2.59,12.98,1.46,21.9
				c-13.92,5.06-19.55,18.399-26.28,30.649c-7.61-2.92-14.94,2.53-18.979-4.38c0-4.859,0-9.729,0-14.59
				c11.34-1.49,18.199-18.47,10.22-26.28c3.01-4.779,11.689-3.89,17.52-5.84c0.891-3.5,2.101-6.66,1.46-11.68
				c-3.649-2.68-6-6.67-7.359-11.65c-1.351-4.97-1.71-10.92-1.4-17.55c-3.81-2.89-6.17-7.24-7.95-12.16
				c-4.55-12.6-5.31-28.979-16.87-34.56c-5.869-1.01-3.58,6.149-8.76,5.84c-6.41-6.24-13.32-11.98-21.89-16.06
				c5.689-10.881-1.94-22.461-8.76-29.2c-6.28,2-11.9,4.649-18.98,5.84c0.72-3.84,8.05-4.91,4.38-8.76
				c-5.3-6.2-9.82-7.4-20.439-5.841c-2.53-12.55-10.11-20.06-16.061-29.199c-13.28,3-22.63-6.83-33.58,1.46
				c-3.16-3.65-5.44-8.181-8.76-11.681c-27.92-4.189-28.25-35.979-54.02-42.33c-3.76-14.239-12.77-23.24-29.2-24.819
				c-1.79,3.05-2.84,6.02-5.84,1.46c3-1.39,5.17-3.59,5.84-7.3c-3.06-8.16-10.82-11.62-16.62-17.04c-3.25-3.04-5.89-6.7-6.73-12.16
				c-4.2,0.3-7.42-0.37-8.76-2.92c0.75-13.48-4.78-27.89-13.14-36.5c1.11-16.2-3.63-26.54-10.22-35.04
				c-27.71-3.03-39.77-31.44-67.16-27.74c-10.55,1.43-13.1,13.29-18.98,18.98C165.83,303.53,165.71,303.59,165.55,303.63z
				 M365.93,320.96c7.67,5.64,8.65-9.66,1.46-4.38C365.69,316.83,365.81,318.89,365.93,320.96z"/>
			<polygon style="fill:#ED1E29;" points="799.88,70.09 799.88,215.22 727.22,215.22 727.22,214.38 727.22,70.72 727.22,70.09 			
				"/>
			<polygon style="fill:#FFFFFF;" points="727.22,214.38 727.22,215.22 653.09,215.22 653.09,213.62 653.09,72.25 653.09,70.09 
				727.22,70.09 727.22,70.72 			"/>
			<polygon style="fill:#34A047;" points="653.09,215.22 578.44,215.22 578.44,70.09 653.09,70.09 653.09,72.25 653.09,213.62 			
				"/>
			<path style="fill:#FFFFFF;" d="M601.1,652.07c-0.04,0.1-0.08,0.199-0.119,0.3c-0.23-0.15-0.471-0.3-0.711-0.44
				C600.56,651.97,600.83,652.02,601.1,652.07z"/>
			<polygon style="fill:#FFFFFF;" points="578.44,70.09 578.44,215.22 578.42,215.22 578.42,215.21 577.09,70.09 			"/>
			<path style="fill:#C8C8C8;" d="M570.53,62.64c2.92,0,5.63-0.62,7.91-1.69v9.14h-1.351l1.33,145.12v0.01h0.021v102.09H563.35
				l-0.43-256.23C565.14,62.07,567.75,62.64,570.53,62.64z"/>
			<path style="fill:#FFFFFF;" d="M571.78,501.99c-15.66-7.87-29.851-14.13-30.83-22.09l0.189-0.03
				c1.801,15.2,59.271,29.31,68.601,36.72c4.85,3.86,5.979,8.69,8.76,11.68c8.68,2.521,15.58,6.811,24.82,8.761
				c4.12,15.779,26.83,20.569,27.739,36.5c0.46,8.21-8.729,10.43-5.84,21.899c-5.26,1.79-14.26-3.83-18.979-7.3
				c4.71-29.04-26.811-21.85-40.88-32.12c0.76-2.16,2.159-3.68,2.92-5.84c0.04,0,0.069-0.01,0.109-0.01
				c5.79-0.62,0.101,3.939-1.569,4.39c13.64,10.69,44.92,3.75,40.88,32.12c2.93,5.34,11.24,5.311,16.06,8.76
				c-1.74-10.5,3.721-13.79,5.84-20.439c-2.55-18.37-21.699-20.16-26.279-36.5c-9.24-1.95-16.141-6.24-24.82-8.76
				C611.98,513.98,592.12,512.22,571.78,501.99z"/>
			<path style="fill:#FFFFFF;" d="M568.86,601.27c5.479-22.26,13.09-42.399,29.199-54.02c2.15,2.35,7.2-2.53,10.221,1.46
				c0.21,0.28,0.21,0.49,0.04,0.63c-1.061,0.91-8.7-0.68-8.801-0.63c-12.659,7.42-25.25,31.5-29.199,51.1
				c8.979,9.03,23.67,12.341,33.58,20.44c-6.2,9.86,2.05,22.06-1.46,32.12c-0.421-0.11-0.87-0.21-1.341-0.3
				c3.7-9.34-5.31-21.71,1.341-30.36C593.65,612.49,578.39,609.75,568.86,601.27z"/>
			<path style="fill:#C8C8C8;" d="M570.53,41.34c8.08,0,14.62,4.77,14.62,10.65c0,3.76-2.67,7.07-6.71,8.96
				c-2.28,1.07-4.99,1.69-7.91,1.69c-2.78,0-5.391-0.57-7.61-1.56c-4.2-1.86-7-5.24-7-9.09C555.92,46.11,562.46,41.34,570.53,41.34z
				"/>
			<path style="fill:#FFFFFF;" d="M549.7,640.76c-2.95-10.069-5.94-20.1-9.34-29.71l0.109-0.04c1.78,4.92,4.141,9.271,7.95,12.16
				c-0.31,6.63,0.05,12.58,1.4,17.55L549.7,640.76z"/>
			<path style="fill:#FFF5B4;" d="M536.74,668.43c4.31-4.46,14.35-3.17,18.979-7.3c-2.06-6.729-4.029-13.56-6.02-20.37l0.12-0.04
				c1.359,4.98,3.71,8.971,7.359,11.65c0.641,5.02-0.569,8.18-1.46,11.68c-5.83,1.95-14.51,1.061-17.52,5.84
				c7.979,7.811,1.12,24.79-10.22,26.28c0,4.86,0,9.73,0,14.59c4.039,6.91,11.369,1.46,18.979,4.38
				c6.73-12.25,12.36-25.59,26.28-30.649c1.13-8.92-1.91-13.66-1.46-21.9c4.76-7.63,18.319-16.5,28.489-10.66
				c-8.64-1.279-22.789,1.771-27.029,10.66c-0.45,8.24,2.59,12.98,1.46,21.9c-10.65,7.35-22.41,13.6-23.36,30.649
				c-9.02,1.301-18.43,2.351-24.81-2.909c0-5.841,0-11.69,0-17.521c-9.391,15.43-18.181,31.46-26.28,48.17
				c1.8,10.851,5.06,20.25,11.67,26.28c-5.1,7.7-12.62,15.22-10.21,26.28c-4.36-0.021-4.97-3.79-8.76-4.381
				c-6.41,0.23-14.061,1.24-20.44-2.92c-6.359-4.14-6.05-13.649-11.68-17.52c-5.021-3.44-11.41-1.15-17.521-2.92
				c-18.209-5.271-33.669-27.82-54.02-30.66c-8.91-1.24-16.67,1.12-21.9-10.22c2.08-10.87,3.97-20.99,14.6-26.28
				c4.3,2.04,5.52,7.13,11.68,7.3c7.61-1.42,2.89-6.109,7.3-10.21c5.41,1.03,6.27-2.5,11.68-1.46
				c1.51,10.66,14.24,10.09,20.44,16.061c17.86-7.091,41.94-1.61,56.94-13.141c5.239-0.859,7.06,1.69,10.22,2.91
				c10.38-3.04,19.45-15.27,30.66-8.75C541.05,689.66,542.2,676.35,536.74,668.43z"/>
			<path style="fill:#FFFFFF;" d="M443.31,199.79c-1.079,5.05-7.29,4.96-11.68,2.92c2.93-3.66-1.2-9.62-4.38-11.68
				C432.86,183.36,439.04,196.77,443.31,199.79z"/>
			<path style="fill:#FFFFFF;" d="M412.65,338.48c4.13,1.23,9.01,1.7,13.14,2.92c14.71,35.9,19.02,82.2,55.479,96.36
				c1.221,1.69,1.921,3.91,1.461,7.3c17.489,11.9,40.869,12.65,68.609,8.761c14.311,14.17-9.47,16-10.22,24.819
				c-0.04,0.41-0.03,0.82,0.02,1.23l-0.189,0.03c-0.57-4.53,3.14-9.61,13.31-15.86c0.38-4.28-3.3-4.49-2.92-8.76
				c-27.74,3.89-51.12,3.14-68.609-8.761c-1.23-1.699-1.931-3.92-1.461-7.3c-35.8-14.81-43.029-58.2-55.479-96.36
				c-4.13-1.22-9.01-1.69-13.14-2.92c-20.83-22.97-63.04-32.34-52.56-81.75C353.27,309.29,391.94,314.9,412.65,338.48z"/>
			<path style="fill:#FFFFFF;" d="M367.39,316.58c7.19-5.28,6.21,10.02-1.46,4.38C365.81,318.89,365.69,316.83,367.39,316.58z"/>
			<path style="fill:#FFFFFF;" d="M367.39,250.89c1.57,1.55,1.86,3.44,1.33,5.07c-1.01,3.16-5.04,5.34-8.63,2.23
				C360.69,253.75,368.04,261.47,367.39,250.89z"/>
			<path style="fill:#FFFFFF;" d="M399.51,199.79c1.93-2.81-1.07-5.88,1.46-10.22c7.43-0.13,13.82,0.78,16.06,5.84
				c5.58-0.22,4.27-7.33,8.75-8.66c0.78-0.23,1.73-0.29,2.93-0.1c-4.77,1.61-8.08,12.3-11.68,10.22c-3.33-1.1-4.2-6.82-13.14-5.84
				c-4.81,0.84-2.09,5.51-1.46,8.76c-15.92,1.11-21.97,12.09-36.5,14.6c0.65-4.22,6.28-3.45,7.3-7.3
				c-8.82-2.96-15.15,9.16-18.98,16.06c4.97,9.63,9.85,19.35,20.44,23.36c-0.99,3.88-2.3,7.43-4.38,10.22
				c-0.9,1.28-0.98,0.8-0.65-0.42c0.63-2.3,2.7-7.23,3.57-8.34c-9.52-5.57-15.57-14.61-20.44-24.82
				c4.11-7.6,10.92-20.21,20.44-17.52c6.82,0.1-1.71,3.34-1.46,5.84C382.19,208.74,385.87,199.28,399.51,199.79z"/>
			<path style="fill:#FFFFFF;" d="M307.53,421.7c16.43,1.58,25.44,10.58,29.2,24.819c25.77,6.351,26.1,38.141,54.02,42.33
				c3.32,3.5,5.6,8.03,8.76,11.681c10.95-8.29,20.3,1.54,33.58-1.46c5.95,9.14,13.53,16.649,16.061,29.199
				c10.619-1.56,15.14-0.359,20.439,5.841c3.67,3.85-3.66,4.92-4.38,8.76c7.08-1.19,12.7-3.84,18.98-5.84
				c6.819,6.739,14.449,18.319,8.76,29.2c8.569,4.079,15.479,9.819,21.89,16.06c5.18,0.31,2.891-6.85,8.76-5.84
				c11.561,5.58,12.32,21.96,16.87,34.56l-0.109,0.04c-4.23-11.93-9.091-23.21-15.301-33.14c-6.649-1.79-4.609,5.12-8.76,5.84
				c-8.85-4.77-13.97-13.28-24.81-16.06c5.16-11.561-0.71-21.671-7.3-29.2c-6.28,2-11.9,4.649-18.98,5.84
				c-3.67-3.84,3.66-4.91,4.38-8.76c-5.55-5.95-9.64-7.59-20.439-5.84c-4.54-11.03-9.391-21.75-17.521-29.2
				c-12.13,2.739-21.73-6.761-32.12,1.46c-4.39-2.42-5.2-8.42-8.76-11.681c-28.22-3.409-27.13-36.13-54.02-40.869
				c-3.5-13.53-11.35-22.71-24.82-26.28c-6.68,0.52-5.68,6.939-11.68,1.46c-1.58-5.97,5.03-3.74,5.84-7.3
				c-4-7.21-9.42-13.01-15.24-18.41l0.08-0.09c5.8,5.42,13.56,8.88,16.62,17.04c-0.67,3.71-2.84,5.91-5.84,7.3
				C304.69,427.72,305.74,424.75,307.53,421.7z"/>
			<path d="M273.71,407.04c-0.12,0.05-0.25,0.09-0.39,0.12c-0.08-0.28-0.17-0.55-0.27-0.8C273.28,406.56,273.5,406.79,273.71,407.04
				z"/>
			<path d="M273.32,395.48c4.62,0.28,3.39,10.79,1.46,13.14c-0.33-0.61-0.69-1.13-1.07-1.58c2.65-1.08,0.24-7.2,1.07-10.1
				C268.91,403.27,267.33,401.69,273.32,395.48z"/>
			<path style="fill:#FFF5B4;" d="M273.05,406.36c-3.31-3.01-8.16-1.38-12.87,0.8c-1.22-1.69-1.92-3.91-1.46-7.3
				C265.54,399.99,271.13,401.35,273.05,406.36z"/>
			<path style="fill:#FFFFFF;" d="M259.36,128.25c-5.31,0.53-8.23,3.45-8.76,8.76c-0.65,8.39,9.17,12.6,4.38,20.44
				c-5.49,3.56-11.48-5.92-8.76-10.22l0.19-0.03h0.01c0.6,3.91,2.32,11.6,7.1,8.79c1.9-8.46-12.55-26.95,5.84-29.2
				c1.45,3.9,2.44,8.27,8.76,7.3c1.18-0.28,1.45-1.46,2.92-1.46c-1.43-7.42-4.55-13.88-1.46-21.9c11.82-2.58,15.31,6.74,27.73,7.3
				c3.9-2.43,2.58-10.07,5.85-13.14c18.72-6.16,38.15-2.65,55.47-10.22c2.08,6.46-4.94,3.82-4.38,8.76
				c3.67,7.53,11.49,10.9,13.14,20.44c21.17,4.62,43.16,8.43,65.7,11.68c-0.46,11.22-13.99,9.37-17.52,17.52
				c1.88,6.88,9.74,1.7,14.6,7.3c-0.03,6.78-6.4,7.23-8.76,11.68c1.15,5.47,5.1,0.09,7.3,2.92c-0.95,6.02-2.91,9.27-3.67,9.27
				c-0.67,0-0.42-2.49,2.21-7.81c-1.15-1.46-5.11,0.54-7.3-2.92c0.74-6.07,6.979-6.64,8.76-11.68c-4.03-6.51-11.9-0.31-14.6-7.3
				c1.83-9.36,13.67-8.72,17.52-16.06c-19.14-6.65-44.04-7.55-64.24-13.14c-3.76-7.92-8.55-14.8-14.6-20.44
				c-1.54-5.44,3.08-4.71,4.38-7.3c-14.07,3.17-33.02,5.06-52.56,7.3c-2.96,3.85-2.87,10.76-5.83,14.6
				c-12.57,1.12-16.67-9.83-26.28-7.3c-7.96,5.9,2.91,16.53-1.46,23.36C264.08,135.54,256.14,134.28,259.36,128.25z"/>
			<path style="fill:#FFFFFF;" d="M246.22,145.77c0.05,0.36,0.11,0.86,0.19,1.43l-0.19,0.03c-5.47,2.7-11.6,4.51-16.72,4.46
				C236.2,150.84,237.3,144.4,246.22,145.77z"/>
			<path style="fill:#FFFFFF;" d="M229.5,151.69c-1.07,0.14-2.3,0.13-3.72-0.08c-0.25-0.18-0.5-0.36-0.75-0.55
				C226.38,151.47,227.89,151.67,229.5,151.69z"/>
			<path style="fill:#FFFFFF;" d="M221.4,138.47c-2.86,5.3,0.03,9.8,3.63,12.59c-4.57-1.39-7.42-5.21-6.55-12.59
				c-4.95-0.85-6.62,0.57-6.95,2.96c-0.01-1.39-0.12-2.87-0.35-4.42C215.92,136.16,217.97,138.01,221.4,138.47z"/>
			<path style="fill:#FFFFFF;" d="M211.53,141.43c0.01,0.64-0.01,1.26-0.05,1.86C211.44,142.63,211.44,142,211.53,141.43z"/>
			<path style="fill:#FFFFFF;" d="M196.58,629.01c12.06,0.11,18.21,6.13,26.28,10.221c4.5-18.87,13.87-51.24,4.38-70.08
				c-0.25-9.49,8.37-10.12,10.22-17.521c-4.1-9.32-4.74-24.28-11.68-27.74c4.98-5.699,9.48,19.16,13.14,26.28
				c-0.63,8.62-9.59,8.91-10.22,17.521c9.46,20.43-0.06,52.52-4.38,73c-9.53-2.15-13.79-9.57-24.82-10.221
				c-1.6,9.311,1.26,21.16-8.76,24.82c-1.81,0.06-3.6-1.05-5.2-1.86C194.55,651.89,201.27,645.73,196.58,629.01z"/>
			<path style="fill:#FFFFFF;" d="M199.5,186.65c-6.53-3.09-12.54-11.57-10.22-18.98h0.02c0.39,6.44,4.45,11.95,8.74,17.52
				c6.41-4.13-0.93-5.33-1.46-10.22c4.64-11.55,14.17-18.65,14.9-31.68c0.16,2.54,1.05,5.64,1.16,8.32
				c-4.14,8.52-11.79,13.52-14.6,23.36C200.83,179.39,204.15,181.48,199.5,186.65z"/>
			<path style="fill:#FFFFFF;" d="M181.11,653.84c1.07-1.87,2.63-1.33,4.43-0.41C184.11,653.68,182.62,653.81,181.11,653.84z"/>
			<path style="fill:#FFFFFF;" d="M189.28,166.21c-0.01,0.49-0.01,0.98,0.02,1.46h-0.02c-9.93,1.22-14.67-5.18-20.44-11.68
				c-0.72-4.48,0.8-6.73,1.41-9.88C170.94,157.99,176.52,168.11,189.28,166.21z"/>
			<path style="fill:#FFFFFF;" d="M170.3,141.39c0.3,1.9,0.21,3.39-0.05,4.72c-0.1-1.54-0.11-3.12-0.03-4.7
				C170.25,141.4,170.27,141.4,170.3,141.39z"/>
			<path style="fill:#FFFFFF;" d="M252.06,313.66c-25.89-3.6-67.29-52.13-83.22-10.22c-1.18,0.01-2.25,0.16-3.22,0.45l-0.07-0.26
				c0.16-0.04,0.28-0.1,0.37-0.19c5.88-5.69,8.43-17.55,18.98-18.98c27.39-3.7,39.45,24.71,67.16,27.74
				c6.59,8.5,11.33,18.84,10.22,35.04c8.36,8.61,13.89,23.02,13.14,36.5c1.34,2.55,4.56,3.22,8.76,2.92
				c0.84,5.46,3.48,9.12,6.73,12.16l-0.08,0.09c-6.05-5.6-12.54-10.77-18.33-16.63c3.84-14.15-4.19-26.2-11.68-33.58
				C261.99,332.93,257.91,322.41,252.06,313.66z"/>
			<path style="fill:#FFFFFF;" d="M160.08,303.44c0.66-0.87,4.13,0.53,5.47,0.19l0.07,0.26c-4.42,1.25-6.72,5.06-8.09,8.83
				C158.12,309.39,158.48,305.59,160.08,303.44z"/>
			<path style="fill:#FFFFFF;" d="M156.23,317.24c0.33-1.38,0.73-2.95,1.3-4.52C157.23,314.47,156.87,316.08,156.23,317.24z"/>
			<path style="fill:#FFFFFF;" d="M209.72,500.53c-14.09,8.35-29.29,39.89-49.64,23.359c-6.62,2.74-1.93,13.801-4.38,17.521
				c1.01,1.95,3.9-0.72,7.3,1.46c6.88,11.84,11.63,26.95,5.84,43.8c0.38,3.03,6.42,0.4,7.3,2.92c-0.03,5.22-1.42,13.91-5.84,10.22
				c0.38,19.4-7.3,30.86,1.46,39.421c-1.27,4.239-2.18,1.64-5.84,1.46c-1.05,4.46,1.49,5.319,1.46,8.76c3.57-1.3,1.58-8.15,7.3-7.3
				c1.28,4.069,3.49,7.21,4.38,11.68c0.68,0.02,1.37,0.02,2.05,0.01c-0.22,0.38-0.41,0.86-0.59,1.45
				c-3.55-2.29-5.47-6.21-5.84-11.68c-4.69-0.311-3.55,5.21-5.84,7.3c-3.82-1.54-4.77-5.94-4.38-11.68c1.46,0,2.92,0,4.38,0
				c-6-10.32,0.37-21.671,0-42.341c4.19,5.2,5.42,0.061,5.84-5.84c-0.18-3.229-6.19-0.62-8.76-1.46
				c7.92-16.57,3.89-46.229-11.68-46.72c1.63-6.26-0.77-16.09,4.38-21.9c17.81,18.511,37.78-10.239,48.18-21.899
				c11.85,1.779,18.97,8.29,23.36,17.52c-1.92,2.95-4.79,4.94-8.76,5.84c1.01-2.88,3.89-3.89,7.3-4.38
				C226.25,508.33,218.43,503.99,209.72,500.53z"/>
			<path style="fill:#FFFFFF;" d="M155.7,318.04c0.2-0.23,0.37-0.5,0.53-0.8c-0.2,0.84-0.37,1.61-0.53,2.26
				c-0.79,0.3-1.58,0.63-2.37,1C154.15,319.75,154.94,318.93,155.7,318.04z"/>
			<path style="fill:#FFFFFF;" d="M143.89,175.26c12.56-8.02,9.66-31.51,26.41-35.33c-0.04,0.49-0.07,0.99-0.08,1.48
				c-14.66,3.49-12.47,22.55-21.82,32.1C147.15,174.78,145.4,174.94,143.89,175.26z"/>
			<path style="fill:#FFFFFF;" d="M153.32,320.5c-3.18,2.9-6.83,4.78-10.85,5.86C146.12,324.44,149.69,322.17,153.32,320.5z"/>
			<path style="fill:#FFFFFF;" d="M143.89,175.26c-0.78,0.49-1.62,0.93-2.53,1.3C141.91,175.76,142.84,175.47,143.89,175.26z"/>
			<path style="fill:#FFFFFF;" d="M141.36,176.56c-0.55,0.78-0.71,2.06-0.26,4.25c-1.89-1.4-3.75-2.35-5.6-2.94
				C137.73,177.71,139.66,177.26,141.36,176.56z"/>
			<path style="fill:#FFFFFF;" d="M135.5,177.87c-0.08,0.01-0.16,0.01-0.24,0.02c-0.09-0.06-0.19-0.12-0.28-0.18
				C135.15,177.76,135.32,177.81,135.5,177.87z"/>
			<path style="fill:#FFFFFF;" d="M134.98,177.71c-13.36-3.85-25.66,10.2-34.76,1.64l0.09-0.13
				C110.62,186.81,121.69,169.59,134.98,177.71z"/>
			<path style="fill:#FFFFFF;" d="M104.6,215.85c-5.81-8.3-12.2-16.03-17.52-24.82c-0.96-9.24,11.27-5.28,11.68-13.14
				c0.51,0.51,1.03,0.96,1.55,1.33l-0.09,0.13c-1.37,5.93-10.32,4.27-11.68,10.22c4.06,10.06,11.07,17.15,17.52,24.82
				c2.79,20.61-15.84,17.94-26.27,21.9c1.66,11.47,7.76,18.51,20.43,18.98c2.41,10.39-7.85,14.01-8.76,21.89
				c-1.88,16.43,11.36,21.53,24.82,27.74c6.74,0.9,8.4-3.27,14.6-2.92c-0.41,3.33,0.35,5.49,2.92,5.84
				c-0.9,8.84-10.04,9.43-10.22,18.98c6.78,1.02,13.18,1.08,18.86-0.43c-6.31,3.33-12.85,5.59-20.32,1.89
				c-0.54-10.27,8.05-11.42,10.22-18.98c-0.02-2.9-3.98-1.85-2.92-5.84c-4.64,0.23-6.42,3.31-11.68,2.92
				c-13.87-4.83-28.87-11.76-27.74-27.74c0.59-8.34,8.47-10.67,8.76-20.43c-10.41-4.19-20.05-9.15-20.43-23.36
				C88.68,230.66,106.45,235.13,104.6,215.85z"/>
		</g>
		<g>
			<polyline style="fill:none;stroke:#231F20;stroke-width:7;" points="577.09,70.09 578.44,70.09 653.09,70.09 727.22,70.09 
				799.88,70.09 799.88,215.22 727.22,215.22 653.09,215.22 578.44,215.22 578.42,215.22 			"/>
			<path style="fill:none;stroke:#231F20;stroke-width:7;" d="M562.92,61.08c-4.2-1.86-7-5.24-7-9.09c0-5.88,6.54-10.65,14.61-10.65
				c8.08,0,14.62,4.77,14.62,10.65c0,3.76-2.67,7.07-6.71,8.96c-2.28,1.07-4.99,1.69-7.91,1.69
				C567.75,62.64,565.14,62.07,562.92,61.08z"/>
			<polyline style="fill:none;stroke:#231F20;stroke-width:7;" points="562.92,60.79 562.92,61.08 563.35,317.31 			"/>
			<polyline style="fill:none;stroke:#231F20;stroke-width:7;" points="578.44,60.26 578.44,60.95 578.44,70.09 578.44,215.22 
				578.44,317.31 			"/>
			<line style="fill:none;stroke:#231F20;stroke-width:7;" x1="653.09" y1="72.25" x2="653.09" y2="213.62"/>
			<line style="fill:none;stroke:#231F20;stroke-width:7;" x1="727.22" y1="70.72" x2="727.22" y2="214.38"/>
			<path style="fill:none;stroke:#231F20;stroke-width:7.7768;" d="M142.44,326.37c-5.68,1.51-12.08,1.45-18.86,0.43
				c0.18-9.55,9.32-10.14,10.22-18.98c-2.57-0.35-3.33-2.51-2.92-5.84c-6.2-0.35-7.86,3.82-14.6,2.92
				c-13.46-6.21-26.7-11.31-24.82-27.74c0.91-7.88,11.17-11.5,8.76-21.89c-12.67-0.47-18.77-7.51-20.43-18.98
				c10.43-3.96,29.06-1.29,26.27-21.9c-6.45-7.67-13.46-14.76-17.52-24.82c1.36-5.95,10.31-4.29,11.68-10.22
				c9.1,8.56,21.4-5.49,34.76-1.64c0.17,0.05,0.34,0.1,0.52,0.16c1.85,0.59,3.71,1.54,5.6,2.94c-0.45-2.19-0.29-3.47,0.26-4.25
				c0.55-0.8,1.48-1.09,2.53-1.3c1.51-0.32,3.26-0.48,4.51-1.75c9.35-9.55,7.16-28.61,21.82-32.1c0.03-0.01,0.05-0.01,0.08-0.02
				c0.3,1.9,0.21,3.39-0.05,4.72c-0.61,3.15-2.13,5.4-1.41,9.88c5.77,6.5,10.51,12.9,20.44,11.68c-2.32,7.41,3.69,15.89,10.22,18.98
				c4.65-5.17,1.33-7.26-1.46-11.68c2.81-9.84,10.46-14.84,14.6-23.36c-0.11-2.68-1-5.78-1.16-8.32c-0.04-0.66-0.04-1.29,0.05-1.86
				c0.33-2.39,2-3.81,6.95-2.96c-0.87,7.38,1.98,11.2,6.55,12.59c1.35,0.41,2.86,0.61,4.47,0.63c5.12,0.05,11.25-1.76,16.72-4.46
				c-2.72,4.3,3.27,13.78,8.76,10.22c4.79-7.84-5.03-12.05-4.38-20.44c0.53-5.31,3.45-8.23,8.76-8.76
				c-3.22,6.03,4.72,7.29,11.68,7.3c4.37-6.83-6.5-17.46,1.46-23.36c9.61-2.53,13.71,8.42,26.28,7.3c2.96-3.84,2.87-10.75,5.83-14.6
				c19.54-2.24,38.49-4.13,52.56-7.3c-1.3,2.59-5.92,1.86-4.38,7.3c6.05,5.64,10.84,12.52,14.6,20.44
				c20.2,5.59,45.1,6.49,64.24,13.14c-3.85,7.34-15.69,6.7-17.52,16.06c2.7,6.99,10.57,0.79,14.6,7.3
				c-1.78,5.04-8.02,5.61-8.76,11.68c2.19,3.46,6.15,1.46,7.3,2.92c-2.63,5.32-2.88,7.81-2.21,7.81c0.76,0,2.72-3.25,3.67-9.27
				c-2.2-2.83-6.15,2.55-7.3-2.92c2.36-4.45,8.729-4.9,8.76-11.68c-4.86-5.6-12.72-0.42-14.6-7.3c3.53-8.15,17.06-6.3,17.52-17.52
				c-22.54-3.25-44.53-7.06-65.7-11.68c-1.65-9.54-9.47-12.91-13.14-20.44c-0.56-4.94,6.46-2.3,4.38-8.76
				c-17.32,7.57-36.75,4.06-55.47,10.22c-3.27,3.07-1.95,10.71-5.85,13.14c-12.42-0.56-15.91-9.88-27.73-7.3
				c-3.09,8.02,0.03,14.48,1.46,21.9c-1.47,0-1.74,1.18-2.92,1.46c-6.32,0.97-7.31-3.4-8.76-7.3c-18.39,2.25-3.94,20.74-5.84,29.2
				c-4.78,2.81-6.5-4.88-7.1-8.79h-0.01c-0.08-0.57-0.14-1.07-0.19-1.43c-8.92-1.37-10.02,5.07-16.72,5.92
				c-1.07,0.14-2.3,0.13-3.72-0.08c-0.25-0.18-0.5-0.36-0.75-0.55c-3.6-2.79-6.49-7.29-3.63-12.59c-3.43-0.46-5.48-2.31-10.22-1.46
				c0.23,1.55,0.34,3.03,0.35,4.42c0.01,0.64-0.01,1.26-0.05,1.86c-0.73,13.03-10.26,20.13-14.9,31.68
				c0.53,4.89,7.87,6.09,1.46,10.22c-4.29-5.57-8.35-11.08-8.74-17.52c-0.03-0.48-0.03-0.97-0.02-1.46
				c-12.76,1.9-18.34-8.22-19.03-20.1c-0.1-1.54-0.11-3.12-0.03-4.7c0.01-0.49,0.04-0.99,0.08-1.48
				c-16.75,3.82-13.85,27.31-26.41,35.33c-0.78,0.49-1.62,0.93-2.53,1.3c-1.7,0.7-3.63,1.15-5.86,1.31
				c-0.08,0.01-0.16,0.01-0.24,0.02c-0.09-0.06-0.19-0.12-0.28-0.18c-13.29-8.12-24.36,9.1-34.67,1.51
				c-0.52-0.37-1.04-0.82-1.55-1.33c-0.41,7.86-12.64,3.9-11.68,13.14c5.32,8.79,11.71,16.52,17.52,24.82
				c1.85,19.28-15.92,14.81-26.27,18.98c0.38,14.21,10.02,19.17,20.43,23.36c-0.29,9.76-8.17,12.09-8.76,20.43
				c-1.13,15.98,13.87,22.91,27.74,27.74c5.26,0.39,7.04-2.69,11.68-2.92c-1.06,3.99,2.9,2.94,2.92,5.84
				c-2.17,7.56-10.76,8.71-10.22,18.98c7.47,3.7,14.01,1.44,20.35-1.9c-0.01,0.01-0.02,0.02,0,0c3.65-1.92,7.22-4.19,10.86-5.86l0,0
				c0.79-0.37,1.58-0.7,2.37-1c0.16-0.65,0.33-1.42,0.53-2.26c0.33-1.38,0.73-2.95,1.3-4.52c1.37-3.77,3.67-7.58,8.09-8.83
				c0.97-0.29,2.04-0.44,3.22-0.45c15.93-41.91,57.33,6.62,83.22,10.22c5.85,8.75,9.93,19.27,8.76,35.04
				c7.49,7.38,15.52,19.43,11.68,33.58c5.79,5.86,12.28,11.03,18.33,16.63c5.82,5.4,11.24,11.2,15.24,18.41
				c-0.81,3.56-7.42,1.33-5.84,7.3c6,5.479,5-0.94,11.68-1.46c13.47,3.57,21.32,12.75,24.82,26.28
				c26.89,4.739,25.8,37.46,54.02,40.869c3.56,3.261,4.37,9.261,8.76,11.681c10.39-8.221,19.99,1.279,32.12-1.46
				c8.13,7.45,12.98,18.17,17.521,29.2c10.8-1.75,14.89-0.11,20.439,5.84c-0.72,3.85-8.05,4.92-4.38,8.76
				c7.08-1.19,12.7-3.84,18.98-5.84c6.59,7.529,12.46,17.64,7.3,29.2c10.84,2.779,15.96,11.29,24.81,16.06
				c4.15-0.72,2.11-7.63,8.76-5.84c6.21,9.93,11.07,21.21,15.301,33.14c3.399,9.61,6.39,19.641,9.34,29.71
				c1.99,6.811,3.96,13.641,6.02,20.37c-4.63,4.13-14.67,2.84-18.979,7.3c5.46,7.92,4.31,21.23-5.83,24.82
				c-11.21-6.52-20.28,5.71-30.66,8.75c-3.16-1.22-4.98-3.77-10.22-2.91c-15,11.53-39.08,6.05-56.94,13.141
				c-6.2-5.971-18.93-5.4-20.44-16.061c-5.41-1.04-6.27,2.49-11.68,1.46c-4.41,4.101,0.31,8.79-7.3,10.21
				c-6.16-0.17-7.38-5.26-11.68-7.3c-10.63,5.29-12.52,15.41-14.6,26.28c5.23,11.34,12.99,8.979,21.9,10.22
				c20.35,2.84,35.81,25.39,54.02,30.66c6.11,1.77,12.5-0.521,17.521,2.92c5.63,3.87,5.32,13.38,11.68,17.52
				c6.38,4.16,14.03,3.15,20.44,2.92c3.79,0.591,4.399,4.36,8.76,4.381c-2.41-11.061,5.11-18.58,10.21-26.28
				c-6.61-6.03-9.87-15.43-11.67-26.28c8.1-16.71,16.89-32.74,26.28-48.17c0,5.83,0,11.68,0,17.521
				c6.38,5.26,15.79,4.21,24.81,2.909c0.95-17.05,12.71-23.3,23.36-30.649c1.13-8.92-1.91-13.66-1.46-21.9
				c4.24-8.89,18.39-11.939,27.029-10.66c0.29,0.04,0.561,0.09,0.83,0.141c0.471,0.09,0.92,0.189,1.341,0.3
				c3.51-10.061-4.74-22.26,1.46-32.12c-9.91-8.1-24.601-11.41-33.58-20.44c3.949-19.6,16.54-43.68,29.199-51.1
				c0.101-0.05,7.74,1.54,8.801,0.63c0.17-0.14,0.17-0.35-0.04-0.63c-3.021-3.99-8.07,0.89-10.221-1.46
				c-16.109,11.62-23.72,31.76-29.199,54.02c9.529,8.48,24.79,11.221,33.58,20.44c-6.65,8.65,2.359,21.021-1.341,30.36
				c-0.04,0.1-0.08,0.199-0.119,0.3c-0.23-0.15-0.471-0.3-0.711-0.44c-10.17-5.84-23.729,3.03-28.489,10.66
				c-0.45,8.24,2.59,12.98,1.46,21.9c-13.92,5.06-19.55,18.399-26.28,30.649c-7.61-2.92-14.94,2.53-18.979-4.38
				c0-4.859,0-9.729,0-14.59c11.34-1.49,18.199-18.47,10.22-26.28c3.01-4.779,11.689-3.89,17.52-5.84
				c0.891-3.5,2.101-6.66,1.46-11.68c-3.649-2.68-6-6.67-7.359-11.65c-1.351-4.97-1.71-10.92-1.4-17.55
				c-3.81-2.89-6.17-7.24-7.95-12.16c-4.55-12.6-5.31-28.979-16.87-34.56c-5.869-1.01-3.58,6.149-8.76,5.84
				c-6.41-6.24-13.32-11.98-21.89-16.06c5.689-10.881-1.94-22.461-8.76-29.2c-6.28,2-11.9,4.649-18.98,5.84
				c0.72-3.84,8.05-4.91,4.38-8.76c-5.3-6.2-9.82-7.4-20.439-5.841c-2.53-12.55-10.11-20.06-16.061-29.199
				c-13.28,3-22.63-6.83-33.58,1.46c-3.16-3.65-5.44-8.181-8.76-11.681c-27.92-4.189-28.25-35.979-54.02-42.33
				c-3.76-14.239-12.77-23.24-29.2-24.819c-1.79,3.05-2.84,6.02-5.84,1.46c3-1.39,5.17-3.59,5.84-7.3
				c-3.06-8.16-10.82-11.62-16.62-17.04c-3.25-3.04-5.89-6.7-6.73-12.16c-4.2,0.3-7.42-0.37-8.76-2.92
				c0.75-13.48-4.78-27.89-13.14-36.5c1.11-16.2-3.63-26.54-10.22-35.04c-27.71-3.03-39.77-31.44-67.16-27.74
				c-10.55,1.43-13.1,13.29-18.98,18.98c-0.09,0.09-0.21,0.15-0.37,0.19c-1.34,0.34-4.81-1.06-5.47-0.19
				c-1.6,2.15-1.96,5.95-2.55,9.28c-0.3,1.75-0.66,3.36-1.3,4.52c-0.16,0.3-0.33,0.57-0.53,0.8c-0.76,0.89-1.55,1.71-2.37,2.46"/>
			<path style="fill:none;stroke:#231F20;stroke-width:7.7768;" d="M153.32,320.5c-3.18,2.9-6.83,4.78-10.85,5.86"/>
			<path style="fill:none;stroke:#231F20;stroke-width:7.7768;" d="M369.66,256.31c-0.33,1.22-0.25,1.7,0.65,0.42
				c2.08-2.79,3.39-6.34,4.38-10.22c-10.59-4.01-15.47-13.73-20.44-23.36c3.83-6.9,10.16-19.02,18.98-16.06
				c-1.02,3.85-6.65,3.08-7.3,7.3c14.53-2.51,20.58-13.49,36.5-14.6c-0.63-3.25-3.35-7.92,1.46-8.76c8.94-0.98,9.81,4.74,13.14,5.84
				c3.6,2.08,6.91-8.61,11.68-10.22c-1.2-0.19-2.15-0.13-2.93,0.1c-4.48,1.33-3.17,8.44-8.75,8.66c-2.24-5.06-8.63-5.97-16.06-5.84
				c-2.53,4.34,0.47,7.41-1.46,10.22c-13.64-0.51-17.32,8.95-27.74,11.68c-0.25-2.5,8.28-5.74,1.46-5.84
				c-9.52-2.69-16.33,9.92-20.44,17.52c4.87,10.21,10.92,19.25,20.44,24.82C372.36,249.08,370.29,254.01,369.66,256.31z"/>
			<path style="fill:none;stroke:#231F20;stroke-width:7.7768;" d="M608.39,550.16c-0.04,0-0.069,0.01-0.109,0.01
				c-0.761,2.16-2.16,3.68-2.92,5.84c14.069,10.271,45.59,3.08,40.88,32.12c4.72,3.47,13.72,9.09,18.979,7.3
				c-2.89-11.47,6.3-13.689,5.84-21.899c-0.909-15.931-23.619-20.721-27.739-36.5c-9.24-1.95-16.141-6.24-24.82-8.761
				c-2.78-2.989-3.91-7.819-8.76-11.68c-9.33-7.41-66.8-21.52-68.601-36.72c-0.05-0.41-0.06-0.82-0.02-1.23
				c0.75-8.819,24.53-10.649,10.22-24.819c-27.74,3.89-51.12,3.14-68.609-8.761c0.46-3.39-0.24-5.609-1.461-7.3
				c-36.46-14.16-40.77-60.46-55.479-96.36c-4.13-1.22-9.01-1.69-13.14-2.92c-20.71-23.58-59.38-29.19-52.56-80.29
				c3.59,3.11,7.62,0.93,8.63-2.23c0.53-1.63,0.24-3.52-1.33-5.07c0.65,10.58-6.7,2.86-7.3,7.3
				c-10.48,49.41,31.73,58.78,52.56,81.75c4.13,1.23,9.01,1.7,13.14,2.92c12.45,38.16,19.68,81.55,55.479,96.36
				c-0.47,3.38,0.23,5.601,1.461,7.3c17.489,11.9,40.869,12.65,68.609,8.761c-0.38,4.27,3.3,4.479,2.92,8.76
				c-10.17,6.25-13.88,11.33-13.31,15.86c0.979,7.96,15.17,14.22,30.83,22.09c20.34,10.229,40.2,11.99,46.72,27.74
				c8.68,2.52,15.58,6.81,24.82,8.76c4.58,16.34,23.729,18.13,26.279,36.5c-2.119,6.649-7.58,9.939-5.84,20.439
				c-4.819-3.449-13.13-3.42-16.06-8.76c4.04-28.37-27.24-21.43-40.88-32.12C608.49,554.1,614.18,549.54,608.39,550.16z"/>
			<path style="fill:none;stroke:#231F20;stroke-width:7.7768;" d="M365.93,320.96c7.67,5.64,8.65-9.66,1.46-4.38
				C365.69,316.83,365.81,318.89,365.93,320.96z"/>
			<path style="fill:none;stroke:#231F20;stroke-width:7.7768;" d="M427.25,191.03c3.18,2.06,7.31,8.02,4.38,11.68
				c4.39,2.04,10.601,2.13,11.68-2.92C439.04,196.77,432.86,183.36,427.25,191.03z"/>
			<path style="fill:none;stroke:#231F20;stroke-width:7.7768;" d="M221.4,522.43c3.97-0.899,6.84-2.89,8.76-5.84
				c-4.39-9.229-11.51-15.74-23.36-17.52c-10.4,11.66-30.37,40.41-48.18,21.899c-5.15,5.811-2.75,15.641-4.38,21.9
				c15.57,0.49,19.6,30.149,11.68,46.72c2.57,0.84,8.58-1.77,8.76,1.46c-0.42,5.9-1.65,11.04-5.84,5.84
				c0.37,20.67-6,32.021,0,42.341c-1.46,0-2.92,0-4.38,0c-0.39,5.739,0.56,10.14,4.38,11.68c2.29-2.09,1.15-7.61,5.84-7.3
				c0.37,5.47,2.29,9.39,5.84,11.68c0.18-0.59,0.37-1.07,0.59-1.45c1.07-1.87,2.63-1.33,4.43-0.41c1.6,0.811,3.39,1.92,5.2,1.86
				c10.02-3.66,7.16-15.51,8.76-24.82c11.03,0.65,15.29,8.07,24.82,10.221c4.32-20.48,13.84-52.57,4.38-73
				c0.63-8.61,9.59-8.9,10.22-17.521c-3.66-7.12-8.16-31.979-13.14-26.28c6.94,3.46,7.58,18.42,11.68,27.74
				c-1.85,7.4-10.47,8.03-10.22,17.521c9.49,18.84,0.12,51.21-4.38,70.08c-8.07-4.091-14.22-10.11-26.28-10.221
				c4.69,16.721-2.03,22.88-11.04,24.42c-1.43,0.25-2.92,0.38-4.43,0.41c-0.68,0.01-1.37,0.01-2.05-0.01
				c-0.89-4.47-3.1-7.61-4.38-11.68c-5.72-0.851-3.73,6-7.3,7.3c0.03-3.44-2.51-4.3-1.46-8.76c3.66,0.18,4.57,2.779,5.84-1.46
				c-8.76-8.561-1.08-20.021-1.46-39.421c4.42,3.69,5.81-5,5.84-10.22c-0.88-2.52-6.92,0.11-7.3-2.92
				c5.79-16.85,1.04-31.96-5.84-43.8c-3.4-2.18-6.29,0.49-7.3-1.46c2.45-3.72-2.24-14.78,4.38-17.521
				c20.35,16.53,35.55-15.01,49.64-23.359c8.71,3.46,16.53,7.8,18.98,17.52C225.29,518.54,222.41,519.55,221.4,522.43z"/>
			<path style="fill:none;stroke:#231F20;stroke-width:7.7768;" d="M273.05,406.36c-3.31-3.01-8.16-1.38-12.87,0.8
				c-1.22-1.69-1.92-3.91-1.46-7.3C265.54,399.99,271.13,401.35,273.05,406.36z"/>
			<path style="fill:none;stroke:#231F20;stroke-width:7.7768;" d="M273.71,407.04c-0.21-0.25-0.43-0.48-0.66-0.68"/>
			<path style="fill:none;stroke:#231F20;stroke-width:7.7768;" d="M273.71,407.04c2.65-1.08,0.24-7.2,1.07-10.1
				c-5.87,6.33-7.45,4.75-1.46-1.46c4.62,0.28,3.39,10.79,1.46,13.14C274.45,408.01,274.09,407.49,273.71,407.04z"/>
			<path style="fill:none;stroke:#231F20;stroke-width:7.7768;" d="M273.05,406.36c0.1,0.25,0.19,0.52,0.27,0.8
				c0.14-0.03,0.27-0.07,0.39-0.12"/>
		</g>
	</g>
</g>
<rect x="0.25" y="0.25" style="fill-rule:evenodd;clip-rule:evenodd;fill:none;" width="850.394" height="850.394"/>
</svg>
