<svg xmlns="http://www.w3.org/2000/svg" width="850.89" height="850.89" viewBox="0 0 850.89 850.89" overflow="visible"><path d="M553.03 244.07c1.38-1.51 2.779-3.01 6.2-2.49-.15.33-.301.65-.45.96-.03.05-.05.09-.07.13-.16.3-.32.59-.49.88-.12.21-.25.41-.38.61-.03.05-.06.09-.1.14a12.8 12.8 0 0 1-.73 1.05c-.2.27-.41.53-.63.79-.08.1-.16.19-.24.29h-.01l-.54-.41v-.01c.97-.96 1.57-2.06 1.61-3.41-1.08.7-1.94 1.61-2.86 2.47l-1.31-1z" fill="#fff"/><path d="M549.05 246.67c1.9-.3 2.931-1.45 3.98-2.6l1.31 1c-1.54 1.44-3.229 2.73-6.31 2.62-2.17-3.65-3.8-7.36-4.92-11.14l2.149 1.63c.991 2.66 2.261 5.43 3.791 8.49zM440.11 180.49c.25-6.38 7.93-9.32 9.159-13.23h3.06c1.68 1.07 3.229 2.44 4.71 4.03.38.41.76.83 1.14 1.27.19.22.37.44.561.67.18.22.37.45.55.68.19.23.37.47.55.7 2.49 3.23 4.87 6.97 7.44 10.83l.81 1.2c.63.94 1.28 1.89 1.95 2.83.25.36.5.72.76 1.07.51.71 1.03 1.41 1.57 2.11.27.36.54.7.81 1.05a71.413 71.413 0 0 0 2.56 3.08c7.25 8.22 16.97 11.24 24.439 16.3 1.07.72 3.42 5.62 5.09 6.1.261.07.75 0 1.41-.16-.449.24-.92.63-1.41 1.18a20.56 20.56 0 0 1-6.109-6.11c-24.42-6.8-30.13-32.32-48.87-44.8-16.42 7.91.32 20.52-1.021 36.66-.479 5.82-3.38 10.23-4.069 14.25-.28 1.64-.44 3.22-.61 4.73-.06-2.4-.649-4.84-.41-6.76.391-3.17 2.59-6.16 3.061-9.17 2.119-13.68-7.441-20.81-7.131-28.51zM515.45 219.18c-2.16 5.29-4.141-.54-7.311-.58 2.63-.79 6.32-2.01 8.33-1.45 2.601.72 4.24 5.8 9.351 6.29l1.26.96c-5.5-.12-9.49-1.75-11.63-5.22zM555.59 246.02l.54.41c-.12.16-.26.31-.399.46-.061.07-.12.13-.181.2-.08.08-.149.16-.24.24-.119.13-.25.26-.38.39-.21.2-.42.41-.64.61-.22.2-.44.39-.66.58-.149.13-.3.25-.45.38-.17.15-.34.28-.52.41-.13.11-.271.22-.42.32-.7.54-1.44 1.05-2.19 1.53-1.27.82-2.6 1.58-3.96 2.32-.53.28-1.08.57-1.62.85-1.1.57-2.21 1.13-3.31 1.69-.55.28-1.101.56-1.641.84-.159.08-.329.17-.489.25 2.5-5.95 12.59-7.54 16.56-11.48z" fill="#fff"/><path d="M397.35 280.27c5.3-.98 9.38-9.96 13.23-6.11.74-4.01 2.83-6.67 5.09-9.16-.13-4.28-3.94-4.88-4.07-9.16 1.47-.57 2.48-1.59 3.05-3.06 5.44-.34 6.09 4.1 10.19 5.09 14.22 3.1 17.93-6.12 13.23-19.34 3.979-3.11 5.34-6.34 6-9.87.04-.1.069-.2.109-.31.36-1.09.45-2.25.41-3.42.17-1.51.33-3.09.61-4.73.689-4.02 3.59-8.43 4.069-14.25 1.341-16.14-15.399-28.75 1.021-36.66 18.74 12.48 24.45 38 48.87 44.8a20.571 20.571 0 0 0 6.109 6.11c.49-.55.961-.94 1.41-1.18.011-.01.011-.01.021-.01.42-.11.91-.25 1.439-.41 3.17.04 5.15 5.87 7.311.58 2.14 3.47 6.13 5.1 11.63 5.22h.01l16.021 12.15c1.12 3.78 2.75 7.49 4.92 11.14 3.08.11 4.77-1.18 6.31-2.62l1.25.94v.01c-3.97 3.94-14.06 5.53-16.56 11.48l-.011.01c-.17.09-.329.17-.489.26-4.3-1.28-7.38-.9-6.79 2.14-5.79 1.3-11.11-1.88-13.23-1.02-13.569 8.5-23.17 20.96-24.439 41.75-12.891-8.83-29.94-13.51-42.761-22.4-11.22-.36-15.64 6.08-21.38 11.2-4.02-1.76-4.13-7.41-8.15-9.17-14.97-1.09-11.83 20.43 2.37 17.47.47.3.93.59 1.39.9 2.58 3.97 4.67 8.41 10.5 9.12-3.18 5.6-8.79 3-13.24 2.04-7.53 3.33-9.13 12.59-18.33 14.25.03-5.17 1.51-10.84 1.72-15.98.11-.11.21-.21.32-.31-.02-1.02-.15-1.93-.36-2.75-.42-4.98-2.73-9.18-9.82-11.5 1.49-4.25 2.76-8.32 1.02-13.24z" fill="#fff5b4"/><path d="M699.09 113.23c18.811 0 34.05 16.39 34.05 36.61s-15.239 36.6-34.05 36.6c-18.8 0-34.04-16.38-34.04-36.6 0-20.22 15.24-36.61 34.04-36.61z" fill="#ed1e29"/><path d="M699.09 186.44c18.811 0 34.05-16.38 34.05-36.6 0-20.22-15.239-36.61-34.05-36.61-18.8 0-34.04 16.39-34.04 36.61s15.24 36.6 34.04 36.6zm104.97-114.4v150.93H589.87l-1.29-150.93h215.48z" fill="#fff"/><path d="M580.02 41.34c7.811 0 14.141 4.96 14.141 11.08 0 3.91-2.58 7.35-6.49 9.32-2.2 1.11-4.83 1.76-7.65 1.76-2.689 0-5.21-.59-7.359-1.62-4.061-1.95-6.771-5.46-6.771-9.46-.001-6.12 6.329-11.08 14.129-11.08z" fill="#c8c8c8"/><path d="M580.02 63.5c2.82 0 5.45-.65 7.65-1.76v266.62h-14.59l-.42-266.48c2.15 1.03 4.67 1.62 7.36 1.62z" fill="#c8c8c8"/><path d="M558.78 242.54c.149-.31.3-.63.45-.96-.14.33-.3.65-.45.96zM558.22 243.55zM557.74 244.3c.04-.05.069-.09.1-.14-.03.05-.06.1-.1.14zM556.38 246.14zM554.34 245.07c.92-.86 1.78-1.77 2.86-2.47-.04 1.35-.641 2.45-1.61 3.41l-1.25-.94zM556.13 246.43h.01c-.13.16-.27.31-.409.46.139-.15.279-.3.399-.46zM555.31 247.33c.091-.08.16-.16.24-.24l-.24.24z" fill="#fff"/><path d="M554.29 248.33c.22-.2.43-.41.64-.61-.21.21-.42.41-.64.61zM553.63 248.91c.22-.19.44-.38.66-.58-.22.2-.44.4-.66.58z"/><path d="M552.66 249.7c.18-.13.35-.26.52-.41-.17.14-.34.28-.52.41z" fill="#fff"/><path d="M550.05 251.55c.75-.48 1.49-.99 2.19-1.53-.7.55-1.43 1.05-2.19 1.53zM544.47 254.72c.54-.28 1.09-.57 1.62-.85-.53.29-1.08.57-1.62.85z"/><path d="M541.16 256.41c-.55.28-1.101.56-1.641.84.541-.28 1.091-.56 1.641-.84zM539.52 257.25c-.17.09-.329.17-.489.25.159-.08.329-.17.489-.25zM539.02 257.51c-.06.12-.109.24-.149.36a6.18 6.18 0 0 0-.34-.1c.159-.09.319-.17.489-.26zM536.28 259zM534.71 259.93c-.51.32-1.01.64-1.49.96.49-.33.98-.65 1.49-.96zM533.15 260.95z" fill="#fff"/><path d="M527.09 224.4c1.141.02 2.36-.02 3.63-.12 4.971-4.21 7.99-10.34 12.221-15.28-2.301 9.58-2.44 18.74.17 27.55L527.09 224.4z" fill="#fff5b4"/><path d="M530.72 224.28c-1.27.1-2.489.14-3.63.12h-.01l-1.26-.96c.85.08 1.8.04 2.87-.18 8.05-1.64 7.14-13.77 16.29-16.29-3.421 13.81-3.261 21.78.279 31.21l-2.149-1.63c-2.61-8.81-2.471-17.97-.17-27.55-4.23 4.94-7.25 11.07-12.22 15.28zM506.7 219.01c.51-.3.99-.41 1.439-.41-.529.16-1.019.3-1.439.41zM474.34 195.14c.46.55.92 1.1 1.4 1.64-.48-.54-.94-1.09-1.4-1.64zM473.18 193.7c.38.48.771.96 1.16 1.44-.4-.48-.78-.96-1.16-1.44zM470.8 190.54c.51.71 1.04 1.41 1.57 2.11-.54-.7-1.06-1.4-1.57-2.11zM468.09 186.64zM467.28 185.44l.81 1.2-.81-1.2zM459.84 174.61c-.18-.23-.359-.47-.55-.7.19.23.37.46.55.7zM458.74 173.23c-.19-.23-.37-.45-.561-.67.191.22.381.44.561.67z" fill="#fff"/><path d="M447.43 437.7c-.93-.08-1.779-.09-2.569-.05.43-.21.88-.4 1.359-.58.5.11.88.34 1.21.63z"/><path d="M444.59 224.93c.04 1.17-.05 2.33-.41 3.42-.04.11-.069.21-.109.31.229-1.21.369-2.45.519-3.73z" fill="#fff"/><path d="M440.11 488.99c-1.101 2.35-5.771 2.96-7.13 5.09-.32.5-.62 1.01-.881 1.53 1.761-3.551 4.101-6.57 6.99-8.65 2.37-19.05-11.45-48.29 5.771-49.31-18.01 8.33 1.29 31.88-4.75 51.34zM436.57 534.86c-.12-.25-.25-.511-.37-.771.28.25.56.49.85.72-.16.011-.32.031-.48.051zM436.2 534.09c-8.45-7.58-9.851-23.21-5.58-35.02-3.69 11.12.85 24.96 5.58 35.02z"/><path d="M430.95 180.49c3.92-.8 3.92 4.88 0 4.08v-4.08z" fill="#fff"/><path d="M432.06 495.67c-.489.99-.93 2.03-1.329 3.1.359-1.06.799-2.1 1.329-3.1z"/><path d="M430.95 184.57c3.92.8 3.92-4.88 0-4.08v4.08zm-1.02-5.09H434c2.2 2.49.76 7.53-3.05 7.12-1.87-2.93-1.66-3.18-1.02-7.12z" fill="#fff"/><path d="M426.87 333.22c.29-10.26 6.63-15.61 13.24-6.11l-1.021 2.03c-4.969.46-6.319 4.55-12.219 4.08z" fill="#fff5b4"/><path d="M426.87 170.31c3.68-.96 1.42 4.01 2.04 6.11-3.85.87-3.61-4.56-2.04-6.11zM424.84 297.58c.24.35.48.7.7 1.06-.46-.31-.92-.6-1.39-.9.23-.05.46-.1.69-.16zM419.75 684.48c.18-.87-.4-.961-1.02-1.021v-2.04c.86.19.96-.39 1.02-1.01h2.03c-.19.859.4.96 1.02 1.01v2.04c-.87-.19-.96.4-1.02 1.021h-2.03z" fill="#fff"/><path d="M420.76 281.29c-5.85-.08-6.42 5.12-8.14 9.16 3.74 2.52 7.7 4.85 11.53 7.29-14.2 2.96-17.34-18.56-2.37-17.47 4.02 1.76 4.13 7.41 8.15 9.17 5.74-5.12 10.16-11.56 21.38-11.2 12.82 8.89 29.87 13.57 42.761 22.4 1.27-20.79 10.87-33.25 24.439-41.75 2.12-.86 7.44 2.32 13.23 1.02-.59-3.04 2.49-3.42 6.79-2.14a78 78 0 0 0-2.25 1.23c-.53.31-1.061.62-1.57.93s-1 .63-1.49.96a.424.424 0 0 0-.069.06c-.48.32-.95.65-1.41 1-2.87-1.89-9.521.02-12.21-2.04-12.96 9.1-23.23 20.9-24.44 41.74-14.95-7.45-31.12-13.67-44.8-22.39-9.271.91-14.39 5.96-19.34 11.19-6.671.22-5.411-7.49-10.191-9.16z" fill="#fff"/><path d="M409.56 637.65c-3.35-.04-3.89-2.9-4.07-6.12 3.47-.06 6.81 3.08 4.07 6.12z"/><path d="M407.53 662.08c.18-.87-.4-.96-1.02-1.021v-2.029c.86.18.96-.4 1.02-1.021h2.03c-.18.86.4.96 1.02 1.021v2.029c-.86-.189-.96.4-1.02 1.021h-2.03zM406.51 307.76c-.11.1-.21.2-.32.31.05-1.04.04-2.07-.04-3.06.21.82.34 1.73.36 2.75zM421.78 311.84c-5.85 4.67-8.02 13.02-18.33 13.23-1.94-4.88-.41-13.74 2.74-17-.21 5.14-1.69 10.81-1.72 15.98 9.2-1.66 10.8-10.92 18.33-14.25 4.45.96 10.061 3.56 13.24-2.04-5.83-.71-7.92-5.15-10.5-9.12 4.17 2.71 8.15 5.6 11.51 9.12-1.11 7.14-8.68 4.25-15.27 4.08z" fill="#fff"/><path d="M413.64 541.94c-5.33-6.5-8.09 4.869-11.2 7.13l-.26-.04c.86-5.16 3.7-10.15 9.42-11.16 1.49.88 3.23 1.52 3.05 4.07-3.34 5.77-10.08 18.029-5.09 25.449.18-7.29 7.82-7.12 12.22-10.18 2.37-10.02 3.63-21.13 14.791-22.35.5 1.05 1.01 2.06 1.5 3.01-10.551-3.07-13.47 9.34-14.25 19.34-5.18 3.31-11.8 5.17-14.26 11.2-7.071-5.809-.181-22.019 4.079-26.469z"/><path d="M395.31 281.29c5.9-5.98 13.72-10.03 19.34-16.29-.87-3.2-3.84-4.3-4.07-8.14-.55-3.61 3.61-2.51 3.06-6.11 9.47 1.39 13.8 9.82 21.379 6.11 7.54-3.7.181-10.94 2.03-19.35.94-4.22 5.141-3.76 7.021-8.85-.66 3.53-2.021 6.76-6 9.87 4.699 13.22.989 22.44-13.23 19.34-4.1-.99-4.75-5.43-10.19-5.09-.57 1.47-1.58 2.49-3.05 3.06.13 4.28 3.94 4.88 4.07 9.16-2.26 2.49-4.35 5.15-5.09 9.16-3.85-3.85-7.93 5.13-13.23 6.11 1.74 4.92.47 8.99-1.02 13.24 7.09 2.32 9.4 6.52 9.82 11.5-1.49-5.62-7.12-7.1-10.84-10.48-.06-6.62 3.29-8.12 0-13.24z" fill="#fff"/><path d="M389.2 589.79c.23-5.36 3.75-7.2-2.04-9.16 1.4-4.42 4.2.08 6.11 1.021-3.08 2.859 1.36 7.259-4.07 8.139zM390.22 301.65c-6.55.56-4.17-9.07 1.02-8.14 2.23 2.35-2.61 3.37-1.02 8.14z"/><path d="M386.15 592.85c3.77.12 2.56 1.48 2.03 4.07-3.77-.13-2.56-1.48-2.03-4.07z" fill="#fff"/><path d="M379.02 564.34c-6.37.49-4.81 13.351 0 14.25 10.24-6.56-.91-28.57 18.33-26.47 3.2.189 1.3 5.479 5.09 5.09-.6-2.33-.74-5.28-.26-8.18l.26.04c.69 3.91 4.29 8.47-1.02 10.18-4.23.49-1.6-5.88-5.09-6.11-15.73-1.14-6.26 22.931-17.31 26.471-7.81-1.091-7.17-13.82-2.04-17.311l.22-.24c.63.6 1.24 1.35 1.82 2.28z"/><path d="M357.64 452.34c-.32-5.75 4.35-6.51 6.11-10.18 2.47 1.56-2.19 4.52-2.04 7.13.3.9 2.76 4.45 3.05 2.03 2.1 2.83-1.85 8.29-6.1 8.149 1.83-3.279 2.41-5.579-1.02-7.129z" fill="#fff5b4"/><path d="M363.75 442.16c-1.76 3.67-6.43 4.43-6.11 10.18 3.43 1.55 2.85 3.851 1.02 7.13 4.25.141 8.2-5.319 6.1-8.149-.29 2.42-2.75-1.13-3.05-2.03-.15-2.611 4.51-5.571 2.04-7.131zm-8.15 19.34c.74-3.21 6-6.73 0-8.14.55-6.58 5.16-9.091 8.15-13.24 6.69 1.59-4.98 10.52 3.05 10.18.72 3.78-1.74 4.37-1.02 8.15-4.26.15-4.54 4.28-10.18 3.05z" fill="#fff5b4"/><path d="M372.91 462.52c-.28 18.74-25.45 23.711-35.64 29.53l-.01-.02c14.65-8.09 32.55-12.931 35.65-32.561 6.82-1.67 9.17-7.8 16.29-9.17 2.79-24.02 18.38-35.24 17.31-63.12-1.35-5.1-11.41-1.49-11.2-8.15 13.29.41 9.11-17.65 5.09-24.43 7.06-5.07 14.94-10.36 12.22-22.4 2.77-.89 8.17-2.52 10.18-1.02.66 1.06.88 2.57.99 4.19.25 3.79-.12 8.21 3.08 9.05 3.689-1.71 5.7-6.44 10.18-2.04 1.32-2.61 2.11-9.37 1.021-11.2-3.79 1.64-7.54 3.31-12.22 4.07.3-6.48.52-13.05 5.1-15.27 5.66-.58 6.63 3.55 9.16 6.11 2.779-.39 4.34-4.7 7.13-2.04-1.99 9.78-1.49 16.11-1.021 27.49 1.54 2.54 3.49 4.66 7.12 5.09 6.891 14.15 16.99 33.22 9.17 52.95-2.63.09-1.069 4.36-5.09 3.05-.06 5.37-3.97 6.89-5.09 11.2 3.51 7.49-.69 10.56 0 16.29-3.15.71-3.58-1.3-4.9-2.42.891.069 1.84.2 2.86.39 3.27-6.02 1.59-6.87 1.02-15.28 3.08-2.99 2.73-8.15 5.091-11.2.34-.43 2.779.47 3.05 0 11.439-19.64-.41-47.7-14.25-59.05.069-10.46-2.29-19.1 1.02-27.49-2.979-.26-3.13 2.3-6.109 2.04-6.61-9.5-12.95-4.15-13.24 6.11 5.899.47 7.25-3.62 12.22-4.08 2.271 4.1.46 11.66-1.02 15.28-3.04-.02-3.46-2.65-6.11-3.06-1.15 1.91-1.2 4.91-5.09 4.08-4.81-.63-4.18-6.68-4.07-12.22-1.48-1.58-5.21-.9-8.15-1.02 1.74 11.58-6.13 17.82-12.21 24.43 5.31 7.84 5.19 22.16-5.09 24.44 2.26 1.47 4.91 2.56 9.16 2.04 5.92 26.51-13.03 44.25-16.29 68.21-6.752 2.761-11.822 7.191-17.312 11.201zM325.06 580.63c8.9-3.47 24.54-7.229 31.56-1.02 2.33-8.221 12.88-24.83 20.58-17.551l-.22.24c-11.52-2.26-15.81 11.271-20.36 19.351-8.35-8.48-21.5-.841-31.55-.761l-.01-.259z"/><path d="M313.82 486.92c-.42-1.9-1.08-3.92-2-6.07 5.78-3.04 10.34-7.31 18.33-8.149-1.11 2.29-2.37 4.43-3.06 7.13-6.22-.45-8.12 3.42-11.2 6.11.01.17.02.329.04.479l-2.11.5z" fill="#fff"/><path d="M293.49 538.88c-1.65-2.42-2.28-5.85-4.07-8.14 5.21-19.13 30.89-23.16 21.38-50.91 5.76-3.2 12.85-10.05 21.38-7.13-1.23 3.52-3.56 5.95-5.09 9.17-4.42-2.47-5.55 2.83-9.16 4.07 1.53 2.369 2.49 1.55 5.09 1.02-.12 2.93.56 6.67-1.02 8.14.87 2.19 2.51 3.61 6.11 3.061 2.75-2.34 5.87-4.32 9.15-6.13l.01.02c-6.29 3.601-10.27 13.88-16.29 4.07-1.34-3.15 3.02-5.65 0-7.13-.92-.021-4.6.67-5.05-2.57-.02-.15-.03-.31-.04-.479 3.08-2.69 4.98-6.561 11.2-6.11.69-2.7 1.95-4.84 3.06-7.13-7.99.84-12.55 5.109-18.33 8.149.92 2.15 1.58 4.17 2 6.07 5.59 24.86-28.48 28.86-20.16 51.9l-.17.059zM260.13 577.74c-1.41.09-2.86.069-4.31-.17-2.39-.4-4.72-2.37-6.44-2.92 6.61.229 13.73 1.109 20.7.89 1.74 1.31 4 2.1 4.07 5.09-2.11 5.021-5.2 9.061-10.18 11.2 1.2 6.77-.52 8.81-1.02 16.29 6.13 1 8.1 6.149 10.18 11.2 5.71-.96 6.91 2.6 11.2 3.05 3.69-6.83 5.28-15.76 13.24-18.32v-6.109c5.9-4.131 13.69-9.431 20.36-7.131 2.23-9.02-9.61-6.21-11.2-13.239-1.14-5.04 3.97-14.87 11.2-16.29 2.84 3.85-3.89 8.72 0 13.239-.27-6.3 9.96-2.539 13.24-1.02 1.23 5.64-5.01 3.82-6.11 7.13l.01.26c-1.06 0-2.09-.069-3.07-.26 1.25-3.51 6.9-2.6 8.15-6.11-1.81-5.01-7.8 3-10.18-2.039-2.25.13-.44 4.319-1.02 6.109-4.69-1.71-2.99-10.72-2.04-15.27-6.96.5-5.35 9.58-9.16 13.239.62 5.82 8.38 4.511 11.2 8.141-.21 3.189.69 7.47-1.02 9.16-7.62-4.221-21.18 2.67-19.35 11.199-8.86 2-8.35 13.37-14.25 18.33-4.78-.31-7.1-3.08-12.22-3.05-2-5.12-4.35-9.899-10.18-11.2-.27-8.069 1.97-10.8.47-16.739a21.14 21.14 0 0 0-.47-1.591c5.34-1.449 8.73-4.85 10.18-10.18-.42-5.739-5.76-3.279-11.98-2.889z"/><path d="M250.73 591.83c1.54-4.57 3.98-8.24 8.15-10.18 2.18-1.971-7.21 6.58-1.02 9.159-1.42 1.561-5.27 2.891-7.13 1.021z" fill="#fff"/><path d="M258.88 592.85c-5.06 2.42-7.71 1.66-8.58-.38-1.65-3.88 3.07-12.38 9.95-12.84.22-.02.44-.02.66-.02-1.55 6.18-5.32 6.56-2.03 13.24zm0-11.2c-4.17 1.939-6.61 5.609-8.15 10.18 1.86 1.87 5.71.54 7.13-1.021-6.19-2.579 3.2-11.129 1.02-9.159z" fill="#fff"/><path d="M248.7 574.52c.21.011.44.061.68.131-1.24-.04-2.45-.061-3.65-.04.96-.121 1.94-.161 2.97-.091zM245.71 574.61c-7.77.92-13.24 7.17-19.17 8.83-.42.109-.84.21-1.26.27v-.03c4.85-7.22 12.12-8.97 20.43-9.07z"/><path d="M220.78 590.06c1.7-.909 2.9-2.31 4.5-3.319.58-.13 1.14-.23 1.67-.29 10.49-1.46 10.95 7.13 21.75 5.38.12.25.23.5.31.75.98 2.72-.15 4.78-1.33 7.39 1.71 2.37 3.84 4.3 5.09 7.13-7.2 6.381-16.64 10.511-18.33 22.4-.37-.31-.74-.62-1.1-.93l.08-.09c1.15-11.41 10.01-15.11 16.29-21.381-1.37-5.159-4.26-6.699-2.03-13.239-9.97-2.21-18.41-8.181-26.84-3.7l-.06-.101z" fill="#fff"/><path d="M200.84 589.79c6.59-2.86 13.77-11.74 24.44-6.11v.03c-1.94.31-3.94.07-6.11-1.04-7.23 1.3-10.81 4.32-16.29 9.16-.75-.84-1.46-1.45-2.16-1.86l.12-.18z"/><path d="M207.97 623.39c-2.59 8.16-7.94 13.561-13.08 19.181 1.38-6.78 10.76-11.67 12.06-20.2 10.34-6.101 21.98-3.74 26.47 6.11l-.08.09c-7.45-6.321-14.11-11.991-25.37-5.181z" fill="#fff"/><path d="M175.39 619.32c9.61-4.99 14.88-14.311 20.36-23.42 3.89 1.21 3.24 6.939 7.13 8.149 4.53-2.03 4.92-3.09 11.2-2.04 2.64-.8 5.53-6.62 3.05-9.16 1.24-1.149 2.48-2.04 3.71-2.689 8.43-4.48 16.87 1.49 26.84 3.7-2.23 6.54.66 8.08 2.03 13.239-6.28 6.271-15.14 9.971-16.29 21.381-4.49-9.851-16.13-12.211-26.47-6.11-1.3 8.53-10.68 13.42-12.06 20.2-.06.06-.11.109-.16.17.03.06.06.13.09.189-.1.59-.13 1.21-.09 1.84-2.19 1.641-4.89.44-9.16 0 2.38-4.02.25-6.149-5.09-5.09-.1-7.66 1.35-15.12-3.92-19.51a9.894 9.894 0 0 0-1.17-.849z" fill="#fff5b4"/><path d="M194.73 642.74c.05-.061.1-.11.16-.17-.03.12-.06.239-.07.359-.03-.059-.06-.129-.09-.189z" fill="#fff"/><path d="M176.56 620.17c5.27 4.39 3.82 11.85 3.92 19.51 5.34-1.06 7.47 1.07 5.09 5.09 4.27.44 6.97 1.641 9.16 0-.04-.63-.01-1.25.09-1.84.95 2 3.01 2.91 2.97 5.91-4.19-1.92-10.57-1.649-14.26-4.07-.74-2.779 2.03-2.05 2.04-4.069h-6.11c-2.53-7.94 1.09-11.72-3.05-20.36l.15-.171z" fill="#fff"/><path d="M203.9 541.94c-18.63 5.829-24.26 24.64-42.27 31.079 9.32-9.02 21.99-14.699 28.01-27.01 6.27-.52 9.71-3.87 15.28-5.09 3.75-.02 4.5 2.97 6.1 5.09 12.02-3.93 29.44-.689 35.64-8.14 10.03 2.27 13.89-.76 21.38-3.061 1.19 1.99 3.35 5.7 1.02 8.15 2.58.45 6.84 0 9.16 3.05 7.66.67 10.15-8.58 15.27-7.13l.17-.06c.24.68.53 1.38.85 2.1-4.08-1.37-8.43 4.65-14.25 7.13-5.84-3.99-8.67-1.63-13.24-4.08.63-3.39 2.99-3.47 1.02-7.12-16.41 2.74-36.72 8.601-57.02 10.181-2.71-1.359-3.41-4.729-7.12-5.089z"/><path d="M165.21 623.39c13.24-6.439 23.06-16.3 30.54-28.51 4.83.26 4.65 5.54 7.13 8.15 2.07-1.86 6.76-4.721 10.18-2.04 4.1-1.891 4.51-6.76 2.04-10.181 2.55.41 4.28 0 5.68-.75l.06.101c-1.23.649-2.47 1.54-3.71 2.689 2.48 2.54-.41 8.36-3.05 9.16-6.28-1.05-6.67.01-11.2 2.04-3.89-1.21-3.24-6.939-7.13-8.149-5.48 9.109-10.75 18.43-20.36 23.42.43.27.82.55 1.17.85l-.15.17c-2.91.75-5.84 4.101-8.98 3.87-.73-.06-1.47-.3-2.22-.82z" fill="#fff"/><path d="M175.07 587.63c1.7-2.7 4.53-4.22 9.48-2.93 1.17 1.2 1.15 3.6 1.02 6.109 8.56-.739 10.3-4.619 17.31-5.09 1.16 3.2-1.6 2.471-2.04 4.07l-.12.18c-4.88-2.91-8.99 3.2-16.17 2.88-.04 1.74.76 2.631 2.04 3.051-.13 2.25-4.32.43-6.11 1.02-.54-4.95 5.22-3.6 4.07-9.17-2.2-3.84-5.94-.69-9.16 0l-.32-.12zM161.63 573.02c-.17.15-.34.32-.5.48-.17-.04-.32-.09-.47-.15.33-.1.65-.22.97-.33z"/><path d="M156.04 611.17c-5.33 3.35-9.48 3.39-13.01 1.811l.12-.271c1.08.46 2.3.67 3.73.5 3.4-4.39 7.04-4.21 9.34-2.24l-.18.2z" fill="#fff"/><path d="M135.68 583.68c.87 4.25-3.29 8.521-2.04 12.221.94 2.77 1.9-2.71 5.1-1.021.07 2.99 2.32 3.78 4.07 5.09 3.93-.97 10.34-5.239 16.29-4.069 5.72 1.13 7.8 8 12.22 8.149 1.32-3.04.73-11.6 3.75-16.42l.32.12c1.51 7.54-3.64 12.98-3.06 16.3 1.51-4.8 5.19-1.81 9.17-3.06-1.51 8.56-8.84 0-12.22 7.13-1.69-6.11-6.76-8.851-12.22-11.2-6 1.67-15.44 7.55-19.34 0-2.68-.3-.8 3.95-4.08 3.05-3.48-7.05.36-12.3 2.04-18.319 10.23 4.08 14.55-2.96 21.38-9.17 1.87-.381 2.54.449 3.6.869-1.45.48-2.99.87-4.62 1.17-2.92 7.82-13.3 11.24-20.36 9.16z"/><path d="M133.64 595.9c-1.25-3.7 2.91-7.971 2.04-12.221 7.06 2.08 17.44-1.34 20.36-9.16 1.63-.3 3.17-.689 4.62-1.17.15.061.3.11.47.15.16-.16.33-.33.5-.48 18.01-6.439 23.64-25.25 42.27-31.079 3.71.359 4.41 3.729 7.12 5.09 20.3-1.58 40.61-7.44 57.02-10.181 1.97 3.65-.39 3.73-1.02 7.12 4.57 2.45 7.4.09 13.24 4.08 5.82-2.479 10.17-8.5 14.25-7.13-.32-.72-.61-1.42-.85-2.1-8.32-23.04 25.75-27.04 20.16-51.9l2.11-.5c.45 3.24 4.13 2.55 5.05 2.57 3.02 1.479-1.34 3.979 0 7.13 6.02 9.81 10-.47 16.29-4.07 10.19-5.819 35.36-10.79 35.64-29.53 5.49-4.01 10.56-8.439 17.31-11.199 3.26-23.96 22.21-41.7 16.29-68.21-4.25.52-6.9-.57-9.16-2.04 10.28-2.28 10.4-16.6 5.09-24.44 6.08-6.61 13.95-12.85 12.21-24.43 2.94.12 6.67-.56 8.15 1.02-.11 5.54-.74 11.59 4.07 12.22 3.89.83 3.939-2.17 5.09-4.08 2.65.41 3.07 3.04 6.11 3.06 1.479-3.62 3.29-11.18 1.02-15.28l1.021-2.03c2.979.26 3.13-2.3 6.109-2.04-3.31 8.39-.95 17.03-1.02 27.49 13.84 11.35 25.689 39.41 14.25 59.05-.271.47-2.71-.43-3.05 0-2.36 3.05-2.011 8.21-5.091 11.2.57 8.41 2.25 9.26-1.02 15.28a27.693 27.693 0 0 0-2.86-.39c-.33-.29-.71-.521-1.21-.63-.479.18-.93.37-1.359.58-17.221 1.02-3.4 30.26-5.771 49.31-2.89 2.08-5.229 5.1-6.99 8.65-.02.02-.02.04-.04.06-.529 1-.97 2.04-1.329 3.1-.04.101-.07.2-.11.301-4.271 11.81-2.87 27.439 5.58 35.02.12.26.25.521.37.771-11.16 1.22-12.42 12.33-14.791 22.35-4.4 3.06-12.04 2.89-12.22 10.18-4.99-7.42 1.75-19.68 5.09-25.449.18-2.551-1.56-3.19-3.05-4.07-5.72 1.01-8.56 6-9.42 11.16-.48 2.899-.34 5.85.26 8.18-3.79.39-1.89-4.9-5.09-5.09-19.24-2.101-8.09 19.91-18.33 26.47-4.81-.899-6.37-13.76 0-14.25-.58-.93-1.19-1.68-1.82-2.28-7.7-7.279-18.25 9.33-20.58 17.551-7.02-6.21-22.66-2.45-31.56 1.02 1.1-3.31 7.34-1.49 6.11-7.13-3.28-1.52-13.51-5.28-13.24 1.02-3.89-4.52 2.84-9.39 0-13.239-7.23 1.42-12.34 11.25-11.2 16.29 1.59 7.029 13.43 4.22 11.2 13.239-6.67-2.3-14.46 3-20.36 7.131v6.109c-7.96 2.561-9.55 11.49-13.24 18.32-4.29-.45-5.49-4.01-11.2-3.05-2.08-5.051-4.05-10.2-10.18-11.2.5-7.48 2.22-9.521 1.02-16.29 4.98-2.14 8.07-6.18 10.18-11.2-.07-2.99-2.33-3.78-4.07-5.09-6.97.22-14.09-.66-20.7-.89-.24-.07-.47-.12-.68-.131a15.436 15.436 0 0 0-2.97.091s-.01-.011-.02 0c-8.31.1-15.58 1.85-20.43 9.069-10.67-5.63-17.85 3.25-24.44 6.11.44-1.6 3.2-.87 2.04-4.07-7.01.471-8.75 4.351-17.31 5.09.13-2.51.15-4.909-1.02-6.109-4.95-1.29-7.78.229-9.48 2.93-3.02 4.82-2.43 13.38-3.75 16.42-4.42-.149-6.5-7.02-12.22-8.149-5.95-1.17-12.36 3.1-16.29 4.069-1.75-1.31-4-2.1-4.07-5.09-3.199-1.694-4.159 3.786-5.099 1.016z" fill="#fff5b4"/><path d="M130.59 715.02c.01.021.01.03.02.051-.02 0-.03.01-.04.02.01-.021.01-.051.02-.071z" fill="#fff"/><path d="M130.57 715.09c-1.31 5.69-3.64 10.351-5.01 15.98-1.9-4.46.72-12.97 5.01-15.98z" fill="#fff5b4"/><path d="M133.64 714.01c-.97 7.51-3.31 13.65-6.1 19.34-.86-.46-1.49-1.199-1.91-2.13 3.67-2.819 6.98-11.06 4.98-16.149.94-.661 1.96-1.041 3.03-1.061z" fill="#fff"/><path d="M125.56 731.07c1.37-5.63 3.7-10.29 5.01-15.98.01-.01.02-.02.04-.02 2 5.09-1.31 13.33-4.98 16.149-.03-.049-.05-.099-.07-.149z" fill="#fff"/><path d="M125.56 731.07c.02.05.04.1.07.149-.04.03-.09.061-.13.09l.06-.239zM120.23 705.63c3.43-5.56 3.63-12.189.58-17.87 6.4 3.71 4.52 14.38-.4 18.101l-.18-.231zM120.81 687.76a5.47 5.47 0 0 0-.4-.22c.02-.13.04-.26.07-.37.11.19.22.39.33.59z" fill="#fff"/><path d="M132.63 693.64c4.88 6.92-5.09 12.94-13.24 13.24.3-.41.58-.82.84-1.25l.18.23c5.51-.94 8.73-4.16 12.22-7.13-.33-2.391-1.61-3.82-1.02-7.12 4.83-2.87 5.22 3.149 11.2 2.029 4.75-20.02 7.93-41.609 21.38-52.939.23-4.84-3.96-8.58-4.07-14.25-4.39-.37-8.9-.61-10.19-4.08 2.17-1.57 4.54-2.93 7.13-4.07-.01-2.7.39-5.81-1.02-7.13l.18-.2c3.49 2.971 3.9 10.021-4.25 11.4 1.52 2.899 5.99 2.84 10.18 3.06 1.53 5.84 1.68 9.181 5.09 14.25-15.65 11.16-17.42 36.2-24.43 56-4.69.76-6.61-4.87-10.18-2.04zM110.23 731.31c1.73.381 1.92-.79 2.03-2.029 2.54-.16 3.16 1.6 5.09 2.029-.01 2.03-2.77 1.301-2.03 4.08-3.32.26-4.9-1.21-5.09-4.08z" fill="#fff"/><path d="M110.23 731.31c.19 2.87 1.77 4.341 5.09 4.08-.74-2.779 2.02-2.05 2.03-4.08-1.93-.43-2.55-2.189-5.09-2.029-.11 1.239-.3 2.409-2.03 2.029zm-2.04 2.04c-.18-3.569 3.44-3.35 4.07-6.109 2.59 1.149 4.97 2.5 7.13 4.069-1.22 5.1-8.3 6.71-11.2 2.04z"/><path d="M102.08 660.04c-1.59-4.88-1.17-10.49 6.11-9.16-1.06 4.21-.02 8.26-6.11 9.16z" fill="#fff"/><path d="M100.05 662.08c1.07-4.2-.77-9.04 2.03-13.24 3.73.01 7.86-.39 7.13 4.08 2.35-1.05 3.28-3.51 7.13-3.06 2.01 2.75-3.52 9.6-6.11 5.09-2.3 3.48-4.28 7.27-10.18 7.13zm8.14-11.2c-7.28-1.33-7.7 4.28-6.11 9.16 6.09-.9 5.05-4.95 6.11-9.16z"/><path d="M86.81 622.37c2.34-5.42 8.05-3.811 12.22-2.03 2.25-.13.43-4.32 1.02-6.109 3.86 1.59 8.58 1.399 11.2-5.091 2.02.011 1.29 2.771 4.07 2.03 2.62-5.52 6.75-9.54 13.23-11.2 4.76 3.82 8.82 10.49 14.48 13.011 3.53 1.579 7.68 1.539 13.01-1.811 1.41 1.32 1.01 4.43 1.02 7.13a38.786 38.786 0 0 0-7.13 4.07c1.29 3.47 5.8 3.71 10.19 4.08.11 5.67 4.3 9.41 4.07 14.25-13.45 11.33-16.63 32.92-21.38 52.939-5.98 1.12-6.37-4.899-11.2-2.029-.59 3.3.69 4.729 1.02 7.12-3.49 2.97-6.71 6.189-12.22 7.13 4.92-3.721 6.8-14.391.4-18.101-.11-.2-.22-.399-.33-.59.72-3.25 3.94 1.05 6.04-1.67.28-1.65-.96-1.75-1.02-3.06.17-2.2-3.61-.46-5.09-1.021-7 4.2-4.82 13.6-1.02 19.35-6.08.341-6.06-5.01-12.22-2.039-1.75-.61.08-4.82-2.03-5.091 11.51-5.51-.34-16.21 1.01-23.409 1.71-9.07 16.38-10.94 16.29-22.4-.31-1.39-2.54-.85-4.07-1.021-.31-2.35 2.94-1.13 3.06-3.06-3.81-5.69-3.4-15.61-11.2-17.3-4.89 2.46 1.38 9.89-4.08 11.2.44 2.27 5.02.409 7.13 1.01-.01 2.71.39 5.82-1.02 7.13h-5.09c.02-2.021 2.78-1.29 2.04-4.07-5.07-3.34-10.68 1.5-12.22 5.09-2.41-.29 1.17-2.72 1.02-4.069-5.34-2.42-3.98-9.2-4.75-14.28-.5-3.259-1.87-5.819-6.45-6.089z" fill="#fff5b4"/><path d="M94.96 677.35v-4.069h4.07c-.13 2.589-1.48 3.949-4.07 4.069z" fill="#fff"/><path d="M93.94 804.62c.17 3.67-5.27 3.67-5.09 0h5.09z"/><path d="M94.96 648.84c3.76-8.54-7.96-13.01-2.04-20.359l.34-.021c.77 5.08-.59 11.86 4.75 14.28.15 1.35-3.43 3.779-1.02 4.069 1.54-3.59 7.15-8.43 12.22-5.09.74 2.78-2.02 2.05-2.04 4.07h5.09c1.41-1.31 1.01-4.42 1.02-7.13-2.11-.601-6.69 1.26-7.13-1.01 5.46-1.311-.81-8.74 4.08-11.2 7.8 1.689 7.39 11.609 11.2 17.3-.12 1.93-3.37.71-3.06 3.06 1.53.171 3.76-.369 4.07 1.021.09 11.46-14.58 13.33-16.29 22.4-1.35 7.199 10.5 17.899-1.01 23.409 2.11.271.28 4.48 2.03 5.091 6.16-2.971 6.14 2.38 12.22 2.039-3.8-5.75-5.98-15.149 1.02-19.35 1.48.561 5.26-1.18 5.09 1.021.06 1.31 1.3 1.409 1.02 3.06-2.1 2.72-5.32-1.58-6.04 1.67-.33-.57-.69-1.13-1.09-1.67.62-1.76 4.83.08 5.09-2.04-5.04-3.97-6.52 4.3-8.14 7.13.06 5.03 5.46 4.72 4.07 11.2-6.51 1.08-7.43-3.43-14.26-2.04-.8-2.92-2.06-5.4-3.05-8.14 2.8-.931 5.6-1.87 6.11-5.091-.93-6.88-5.13-10.489-4.07-19.35 6.25-4.95 12.14-10.26 15.27-18.33-.32-1.38-2.55-.84-4.07-1.01.07-2.99 2.32-3.79 4.07-5.09-4.89-3.271-3.81-12.49-9.16-15.28-6.69 6.36 5.72 9.39 4.07 17.31-2.19 1.891-5.43 2.721-9.17 3.061-.73-3.12 1.05-3.72 1.02-6.11-7.44-1-6.17 6.72-12.21 7.12zM88.85 749.64c.1-2.59 3.79-2.399 5.09-1.02-.11 2.59-3.8 2.41-5.09 1.02z" fill="#fff"/><path d="M88.85 683.46c-1.04-4.43 2.1-4.68 3.05-7.13 3.6.73 2.13 8.99-3.05 7.13z"/><path d="M83.75 624.41c1.27-3.15 3.37-5.46 6.11-7.13 4.06-.32 7.53-.05 9.17 2.04.01-2.71-.39-5.82 1.02-7.13 3.24-.87 3.14 1.6 5.09 2.04 2.95-1.16 4.61-8.921 9.16-5.091 4.33-5.909 8.09-11.409 15.27-10.18 1.12.19 2.09.67 2.96 1.35 4 3.101 5.88 10.32 10.62 12.4l-.12.271c-5.66-2.521-9.72-9.19-14.48-13.011-6.48 1.66-10.61 5.681-13.23 11.2-2.78.74-2.05-2.02-4.07-2.03-2.62 6.49-7.34 6.681-11.2 5.091-.59 1.789 1.23 5.979-1.02 6.109-4.17-1.78-9.88-3.39-12.22 2.03 4.58.27 5.95 2.83 6.45 6.09l-.34.021c-1.45-2.97-4.29-4.53-9.17-4.07z" fill="#fff"/><path d="M74.59 636.63c-4.46-2.36-3.22-9.75 3.06-9.17.99 5.07-2.09 6.07-3.06 9.17z"/><path d="M65.43 811.75c1.81-4.98 5.33-8.24 11.2-9.17-2.85 3.95-5.77 7.81-11.2 9.17z" fill="#fff5b4"/><path d="M68.48 774.08c.49-5.34 2.08-3.29 6.11-5.09v3.05c-3.8-1.09-2.9 2.53-6.11 2.04zM76.63 802.58c-5.87.93-9.39 4.189-11.2 9.17 5.43-1.36 8.35-5.22 11.2-9.17zm-13.24 9.17c3.12-8.08 11.15-11.25 20.36-13.24 1.19 5.26-2.84 5.311-6.1 6.11-4.1 2.57-7.1 10.94-14.26 7.13zM60.34 643.75c-.42-2.45 1.86-2.21 1.01-5.09 2.73 1.76 3.88-.72 6.11 2.04-1.02 2.37-3.5 3.28-7.12 3.05z" fill="#fff"/><path d="M68.48 642.74c-2.86.859-4.18 3.279-8.14 3.05-2.98-2.1-1.27-5.97 0-9.16 2.98.91 3.13.91 6.11 0 .58 2.13 2.52 2.9 2.03 6.11zm-8.14 1.01c3.62.23 6.1-.68 7.12-3.05-2.23-2.76-3.38-.28-6.11-2.04.85 2.88-1.43 2.64-1.01 5.09z" fill="#fff"/><g fill="none" stroke="#231f20"><path stroke-width="6.352" d="M588.58 72.04h215.48v150.93H589.87M572.66 61.88c-4.061-1.95-6.771-5.46-6.771-9.46 0-6.12 6.33-11.08 14.13-11.08 7.811 0 14.141 4.96 14.141 11.08 0 3.91-2.58 7.35-6.49 9.32-2.2 1.11-4.83 1.76-7.65 1.76-2.69 0-5.21-.59-7.36-1.62z"/><path stroke-width="6.352" d="M572.66 61.57v.31l.42 266.48M587.67 61.01v267.35M733.14 149.84c0 20.22-15.239 36.6-34.05 36.6-18.8 0-34.04-16.38-34.04-36.6 0-20.22 15.24-36.61 34.04-36.61 18.81 0 34.05 16.39 34.05 36.61z"/><path d="M194.89 642.57c-.03.12-.06.239-.07.359M125.63 731.22c-.04.03-.09.061-.13.09l.06-.239M130.57 715.09c.01-.02.01-.05.02-.07.01.021.01.03.02.051M88.85 804.62h5.09c.17 3.67-5.27 3.67-5.09 0zM546.09 253.87c-.53.29-1.08.57-1.62.85M552.24 250.02c-.7.55-1.431 1.05-2.19 1.53M554.93 247.72c-.21.21-.42.41-.64.61-.22.2-.44.4-.66.58M506.7 219.01c.51-.3.99-.41 1.439-.41M444.07 228.66c.229-1.21.37-2.45.52-3.73M406.19 308.07c.05-1.04.04-2.07-.04-3.06M424.15 297.74c.23-.05.46-.1.69-.16.24.35.48.7.7 1.06M539.02 257.51c-.06.12-.109.24-.149.36a6.18 6.18 0 0 0-.34-.1" stroke-width="5"/><path d="M556.14 246.43c.08-.1.16-.19.24-.29.22-.26.43-.52.63-.79.26-.34.51-.69.73-1.05.04-.04.069-.09.1-.14.13-.2.26-.4.38-.61.17-.29.33-.58.49-.88.021-.04.04-.08.07-.13.149-.31.31-.63.45-.96-3.421-.52-4.82.98-6.2 2.49-1.05 1.15-2.08 2.3-3.98 2.6-1.53-3.06-2.8-5.83-3.79-8.49-3.54-9.43-3.7-17.4-.279-31.21-9.15 2.52-8.24 14.65-16.29 16.29-1.07.22-2.021.26-2.87.18-5.11-.49-6.75-5.57-9.351-6.29-2.01-.56-5.7.66-8.33 1.45-.529.16-1.02.3-1.439.41-.01 0-.01 0-.021.01-.66.16-1.149.23-1.41.16-1.67-.48-4.02-5.38-5.09-6.1-7.47-5.06-17.189-8.08-24.439-16.3-.48-.54-.94-1.09-1.4-1.64-.39-.48-.78-.96-1.16-1.44-.27-.35-.54-.69-.81-1.05-.53-.7-1.061-1.4-1.57-2.11-.26-.35-.51-.71-.76-1.07-.67-.94-1.32-1.89-1.95-2.83l-.81-1.2c-2.57-3.86-4.95-7.6-7.44-10.83-.18-.23-.359-.47-.55-.7-.18-.23-.37-.46-.55-.68-.19-.23-.37-.45-.561-.67-.38-.44-.76-.86-1.14-1.27" stroke-width="5"/><path d="M457.04 171.29c-1.48-1.59-3.03-2.96-4.71-4.03h-2.19-1.739.869c-1.229 3.91-8.909 6.85-9.159 13.23-.311 7.7 9.25 14.83 7.13 28.51-.471 3.01-2.67 6-3.061 9.17-.239 1.92.351 4.36.41 6.76.04 1.17-.05 2.33-.41 3.42-.04.11-.069.21-.109.31-1.88 5.09-6.08 4.63-7.021 8.85-1.85 8.41 5.51 15.65-2.03 19.35-7.579 3.71-11.91-4.72-21.379-6.11.55 3.6-3.61 2.5-3.06 6.11.23 3.84 3.2 4.94 4.07 8.14-5.62 6.26-13.44 10.31-19.34 16.29 3.29 5.12-.06 6.62 0 13.24 3.72 3.38 9.35 4.86 10.84 10.48.21.82.34 1.73.36 2.75-.11.1-.21.2-.32.31-3.15 3.26-4.68 12.12-2.74 17 10.31-.21 12.48-8.56 18.33-13.23 6.59.17 14.161 3.06 15.27-4.08-3.359-3.52-7.34-6.41-11.51-9.12-.46-.31-.92-.6-1.39-.9-3.83-2.44-7.79-4.77-11.53-7.29 1.72-4.04 2.29-9.24 8.14-9.16 4.78 1.67 3.52 9.38 10.19 9.16 4.95-5.23 10.069-10.28 19.34-11.19 13.68 8.72 29.85 14.94 44.8 22.39 1.21-20.84 11.48-32.64 24.44-41.74 2.689 2.06 9.34.15 12.21 2.04.46-.35.93-.68 1.41-1 .02-.02.04-.04.069-.06.48-.32.98-.64 1.49-.96.521-.31 1.04-.62 1.57-.93a78 78 0 0 1 2.25-1.23c.16-.09.319-.17.489-.26l.011-.01c.16-.08.319-.16.489-.25.54-.28 1.091-.56 1.641-.84 1.1-.56 2.21-1.12 3.31-1.69.54-.28 1.09-.57 1.62-.85 1.36-.74 2.69-1.5 3.96-2.32.75-.48 1.49-.99 2.19-1.53.149-.1.29-.21.42-.32.18-.13.35-.27.52-.41.15-.13.301-.25.45-.38.22-.19.44-.38.66-.58.22-.2.43-.41.64-.61.13-.13.261-.26.38-.39l.24-.24c.061-.07.12-.13.181-.2.14-.15.279-.3.409-.46M428.91 176.42c-.62-2.1 1.64-7.07-2.04-6.11-1.57 1.55-1.81 6.98 2.04 6.11zM430.95 186.6c3.81.41 5.25-4.63 3.05-7.12h-4.07c-.64 3.94-.85 4.19 1.02 7.12zM355.6 453.36c6 1.409.74 4.93 0 8.14 5.64 1.23 5.92-2.9 10.18-3.05-.72-3.78 1.74-4.37 1.02-8.15-8.03.34 3.64-8.59-3.05-10.18-2.99 4.15-7.6 6.66-8.15 13.24zM226.95 586.45c-.53.06-1.09.16-1.67.29-1.6 1.01-2.8 2.41-4.5 3.319-1.4.75-3.13 1.16-5.68.75 2.47 3.421 2.06 8.29-2.04 10.181-3.42-2.681-8.11.18-10.18 2.04-2.48-2.61-2.3-7.891-7.13-8.15-7.48 12.21-17.3 22.07-30.54 28.51.75.521 1.49.761 2.22.82 3.14.23 6.07-3.12 8.98-3.87 4.14 8.641.52 12.42 3.05 20.36h6.11c-.01 2.02-2.78 1.29-2.04 4.069 3.69 2.421 10.07 2.15 14.26 4.07.04-3-2.02-3.91-2.97-5.91-.03-.06-.06-.13-.09-.189.05-.061.1-.11.16-.17 5.14-5.62 10.49-11.021 13.08-19.181 11.26-6.81 17.92-1.14 25.37 5.181.36.31.73.62 1.1.93 1.69-11.89 11.13-16.02 18.33-22.4-1.25-2.83-3.38-4.76-5.09-7.13 1.18-2.609 2.31-4.67 1.33-7.39-.08-.25-.19-.5-.31-.75-10.8 1.75-11.26-6.84-21.75-5.38zM258.88 592.85c-3.29-6.68.48-7.06 2.03-13.239-.22 0-.44 0-.66.02-6.88.46-11.6 8.96-9.95 12.84.87 2.039 3.52 2.799 8.58.379zM388.18 596.92c.53-2.59 1.74-3.95-2.03-4.07-.53 2.59-1.74 3.94 2.03 4.07zM120.81 687.76c3.05 5.681 2.85 12.311-.58 17.87-.26.43-.54.84-.84 1.25 8.15-.3 18.12-6.32 13.24-13.24 3.57-2.83 5.49 2.801 10.18 2.04 7.01-19.8 8.78-44.84 24.43-56-3.41-5.069-3.56-8.41-5.09-14.25-4.19-.22-8.66-.16-10.18-3.06 8.15-1.38 7.74-8.43 4.25-11.4-2.3-1.97-5.94-2.149-9.34 2.24-1.43.17-2.65-.04-3.73-.5-4.74-2.08-6.62-9.3-10.62-12.4-.87-.68-1.84-1.159-2.96-1.35-7.18-1.229-10.94 4.271-15.27 10.18-4.55-3.83-6.21 3.931-9.16 5.091-1.95-.44-1.85-2.91-5.09-2.04-1.41 1.31-1.01 4.42-1.02 7.13-1.64-2.09-5.11-2.36-9.17-2.04-2.74 1.67-4.84 3.979-6.11 7.13 4.88-.46 7.72 1.1 9.17 4.07-5.92 7.35 5.8 11.819 2.04 20.359 6.04-.399 4.77-8.12 12.21-7.12.03 2.391-1.75 2.99-1.02 6.11 3.74-.34 6.98-1.17 9.17-3.061 1.65-7.92-10.76-10.949-4.07-17.31 5.35 2.79 4.27 12.01 9.16 15.28-1.75 1.3-4 2.1-4.07 5.09 1.52.17 3.75-.37 4.07 1.01-3.13 8.07-9.02 13.38-15.27 18.33-1.06 8.86 3.14 12.47 4.07 19.35-.51 3.221-3.31 4.16-6.11 5.091.99 2.739 2.25 5.22 3.05 8.14 6.83-1.39 7.75 3.12 14.26 2.04 1.39-6.48-4.01-6.17-4.07-11.2 1.62-2.83 3.1-11.1 8.14-7.13-.26 2.12-4.47.28-5.09 2.04.4.54.76 1.1 1.09 1.67M60.34 645.79c3.96.229 5.28-2.19 8.14-3.05.49-3.21-1.45-3.98-2.03-6.11-2.98.91-3.13.91-6.11 0-1.27 3.19-2.98 7.06 0 9.16zM407.53 658.01c-.06.62-.16 1.2-1.02 1.021v2.029c.62.061 1.2.15 1.02 1.021h2.03c.06-.62.16-1.21 1.02-1.021v-2.029c-.62-.061-1.2-.16-1.02-1.021h-2.03z" stroke-width="5"/><path d="M94.96 673.28v4.069c2.59-.119 3.94-1.479 4.07-4.069h-4.07zM419.75 680.41c-.06.62-.16 1.2-1.02 1.01v2.04c.62.06 1.2.15 1.02 1.021h2.03c.06-.62.15-1.211 1.02-1.021v-2.04c-.62-.05-1.21-.15-1.02-1.01h-2.03zM125.63 731.22c.42.931 1.05 1.67 1.91 2.13 2.79-5.689 5.13-11.83 6.1-19.34-1.07.021-2.09.4-3.03 1.061-.02 0-.03.01-.04.02-4.29 3.01-6.91 11.521-5.01 15.98.02.049.04.099.07.149zM93.94 748.62c-1.3-1.38-4.99-1.57-5.09 1.02 1.29 1.39 4.98 1.57 5.09-1.02zM74.59 768.99c-4.03 1.8-5.62-.25-6.11 5.09 3.21.49 2.31-3.13 6.11-2.04v-3.05zM63.39 811.75c7.16 3.81 10.16-4.56 14.26-7.13 3.26-.8 7.29-.851 6.1-6.11-9.21 1.99-17.24 5.16-20.36 13.24zM245.71 574.61c-7.77.92-13.24 7.17-19.17 8.83-.42.109-.84.21-1.26.27-1.94.31-3.94.07-6.11-1.04-7.23 1.3-10.81 4.32-16.29 9.16-.75-.84-1.46-1.45-2.16-1.86-4.88-2.91-8.99 3.2-16.17 2.88-.04 1.74.76 2.631 2.04 3.051-.13 2.25-4.32.43-6.11 1.02-.54-4.95 5.22-3.6 4.07-9.17-2.2-3.84-5.94-.69-9.16 0 1.51 7.54-3.64 12.98-3.06 16.3 1.51-4.8 5.19-1.81 9.17-3.06-1.51 8.56-8.84 0-12.22 7.13-1.69-6.11-6.76-8.851-12.22-11.2-6 1.67-15.44 7.55-19.34 0-2.68-.3-.8 3.95-4.08 3.05-3.48-7.05.36-12.3 2.04-18.319 10.23 4.08 14.55-2.96 21.38-9.17 1.87-.381 2.54.449 3.6.869.15.061.3.11.47.15.16-.16.33-.33.5-.48 9.32-9.02 21.99-14.699 28.01-27.01 6.27-.52 9.71-3.87 15.28-5.09 3.75-.02 4.5 2.97 6.1 5.09 12.02-3.93 29.44-.689 35.64-8.14 10.03 2.27 13.89-.76 21.38-3.061 1.19 1.99 3.35 5.7 1.02 8.15 2.58.45 6.84 0 9.16 3.05 7.66.67 10.15-8.58 15.27-7.13-1.65-2.42-2.28-5.85-4.07-8.14 5.21-19.13 30.89-23.16 21.38-50.91 5.76-3.2 12.85-10.05 21.38-7.13-1.23 3.52-3.56 5.95-5.09 9.17-4.42-2.47-5.55 2.83-9.16 4.07 1.53 2.369 2.49 1.55 5.09 1.02-.12 2.93.56 6.67-1.02 8.14.87 2.19 2.51 3.61 6.11 3.061 2.75-2.34 5.87-4.32 9.15-6.13 14.65-8.09 32.55-12.931 35.65-32.561 6.82-1.67 9.17-7.8 16.29-9.17 2.79-24.02 18.38-35.24 17.31-63.12-1.35-5.1-11.41-1.49-11.2-8.15 13.29.41 9.11-17.65 5.09-24.43 7.06-5.07 14.94-10.36 12.22-22.4 2.77-.89 8.17-2.52 10.18-1.02.66 1.06.88 2.57.99 4.19.25 3.79-.12 8.21 3.08 9.05 3.689-1.71 5.7-6.44 10.18-2.04 1.32-2.61 2.11-9.37 1.021-11.2-3.79 1.64-7.54 3.31-12.22 4.07.3-6.48.52-13.05 5.1-15.27 5.66-.58 6.63 3.55 9.16 6.11 2.779-.39 4.34-4.7 7.13-2.04-1.99 9.78-1.49 16.11-1.021 27.49 1.54 2.54 3.49 4.66 7.12 5.09 6.891 14.15 16.99 33.22 9.17 52.95-2.63.09-1.069 4.36-5.09 3.05-.06 5.37-3.97 6.89-5.09 11.2 3.51 7.49-.69 10.56 0 16.29-3.15.71-3.58-1.3-4.9-2.42-.33-.29-.71-.521-1.21-.63-.479.18-.93.37-1.359.58-18.011 8.33 1.29 31.88-4.75 51.34-1.101 2.35-5.771 2.96-7.13 5.09-.32.5-.62 1.01-.881 1.53" stroke-width="5"/><path d="M430.62 499.07c-3.69 11.12.85 24.96 5.58 35.02.12.26.25.521.37.771.5 1.05 1.01 2.06 1.5 3.01-10.551-3.07-13.47 9.34-14.25 19.34-5.18 3.31-11.8 5.17-14.26 11.2-7.07-5.811-.18-22.021 4.08-26.47-5.33-6.5-8.09 4.869-11.2 7.13.69 3.91 4.29 8.47-1.02 10.18-4.23.49-1.6-5.88-5.09-6.11-15.73-1.14-6.26 22.931-17.31 26.471-7.81-1.091-7.17-13.82-2.04-17.311-11.52-2.26-15.81 11.271-20.36 19.351-8.35-8.48-21.5-.841-31.55-.761-1.06 0-2.09-.069-3.07-.26 1.25-3.51 6.9-2.6 8.15-6.11-1.81-5.01-7.8 3-10.18-2.039-2.25.13-.44 4.319-1.02 6.109-4.69-1.71-2.99-10.72-2.04-15.27-6.96.5-5.35 9.58-9.16 13.239.62 5.82 8.38 4.511 11.2 8.141-.21 3.189.69 7.47-1.02 9.16-7.62-4.221-21.18 2.67-19.35 11.199-8.86 2-8.35 13.37-14.25 18.33-4.78-.31-7.1-3.08-12.22-3.05-2-5.12-4.35-9.899-10.18-11.2-.27-8.069 1.97-10.8.47-16.739a21.14 21.14 0 0 0-.47-1.591c5.34-1.449 8.73-4.85 10.18-10.18-.42-5.74-5.76-3.28-11.98-2.89-1.41.09-2.86.069-4.31-.17-2.39-.4-4.72-2.37-6.44-2.92-.24-.07-.47-.12-.68-.131a15.436 15.436 0 0 0-2.97.091M432.06 495.67c-.529 1-.97 2.04-1.329 3.1" stroke-width="5"/><path d="M440.11 327.11c-6.61-9.5-12.95-4.15-13.24 6.11 5.899.47 7.25-3.62 12.22-4.08 2.271 4.1.46 11.66-1.02 15.28-3.04-.02-3.46-2.65-6.11-3.06-1.15 1.91-1.2 4.91-5.09 4.08-4.81-.63-4.18-6.68-4.07-12.22-1.48-1.58-5.21-.9-8.15-1.02 1.74 11.58-6.13 17.82-12.21 24.43 5.31 7.84 5.19 22.16-5.09 24.44 2.26 1.47 4.91 2.56 9.16 2.04 5.92 26.51-13.03 44.25-16.29 68.21-6.75 2.76-11.82 7.189-17.31 11.199-.28 18.74-25.45 23.711-35.64 29.53-6.29 3.601-10.27 13.88-16.29 4.07-1.34-3.15 3.02-5.65 0-7.13-.92-.021-4.6.67-5.05-2.57-.02-.15-.03-.31-.04-.479 3.08-2.69 4.98-6.561 11.2-6.11.69-2.7 1.95-4.84 3.06-7.13-7.99.84-12.55 5.109-18.33 8.149.92 2.15 1.58 4.17 2 6.07 5.59 24.86-28.48 28.86-20.16 51.9.24.68.53 1.38.85 2.1-4.08-1.37-8.43 4.65-14.25 7.13-5.84-3.99-8.67-1.63-13.24-4.08.63-3.39 2.99-3.47 1.02-7.12-16.41 2.74-36.72 8.601-57.02 10.181-2.71-1.36-3.41-4.73-7.12-5.09-18.63 5.829-24.26 24.64-42.27 31.079-.32.11-.64.23-.97.33-1.45.48-2.99.87-4.62 1.17-2.92 7.82-13.3 11.24-20.36 9.16.87 4.25-3.29 8.521-2.04 12.221.94 2.77 1.9-2.71 5.1-1.021.07 2.99 2.32 3.78 4.07 5.09 3.93-.97 10.34-5.239 16.29-4.069 5.72 1.13 7.8 8 12.22 8.149 1.32-3.04.73-11.6 3.75-16.42 1.7-2.7 4.53-4.22 9.48-2.93 1.17 1.2 1.15 3.6 1.02 6.109 8.56-.739 10.3-4.619 17.31-5.09 1.16 3.2-1.6 2.471-2.04 4.07 6.59-2.86 13.77-11.74 24.44-6.11 4.85-7.22 12.12-8.97 20.43-9.069.01-.011.02 0 .02 0 1.2-.021 2.41 0 3.65.04 6.61.229 13.73 1.109 20.7.89 1.74 1.31 4 2.1 4.07 5.09-2.11 5.021-5.2 9.061-10.18 11.2 1.2 6.77-.52 8.81-1.02 16.29 6.13 1 8.1 6.149 10.18 11.2 5.71-.96 6.91 2.6 11.2 3.05 3.69-6.83 5.28-15.76 13.24-18.32v-6.109c5.9-4.131 13.69-9.431 20.36-7.131 2.23-9.02-9.61-6.21-11.2-13.239-1.14-5.04 3.97-14.87 11.2-16.29 2.84 3.85-3.89 8.72 0 13.239-.27-6.3 9.96-2.539 13.24-1.02 1.23 5.64-5.01 3.82-6.11 7.13 8.9-3.47 24.54-7.229 31.56-1.02 2.33-8.221 12.88-24.83 20.58-17.551.63.601 1.24 1.351 1.82 2.28-6.37.49-4.81 13.351 0 14.25 10.24-6.56-.91-28.57 18.33-26.47 3.2.189 1.3 5.479 5.09 5.09-.6-2.33-.74-5.28-.26-8.18.86-5.16 3.7-10.15 9.42-11.16 1.49.88 3.23 1.52 3.05 4.07-3.34 5.77-10.08 18.029-5.09 25.449.18-7.29 7.82-7.12 12.22-10.18 2.37-10.02 3.63-21.13 14.791-22.35.16-.021.319-.04.479-.051-.29-.229-.569-.47-.85-.72-8.45-7.58-9.851-23.21-5.58-35.02.04-.101.07-.2.11-.301.399-1.069.84-2.109 1.329-3.1.021-.02.021-.04.04-.06 1.761-3.551 4.101-6.57 6.99-8.65 2.37-19.05-11.45-48.29 5.771-49.31.79-.04 1.64-.03 2.569.05.891.069 1.84.2 2.86.39 3.27-6.02 1.59-6.87 1.02-15.28 3.08-2.99 2.73-8.15 5.091-11.2.34-.43 2.779.47 3.05 0 11.439-19.64-.41-47.7-14.25-59.05.069-10.46-2.29-19.1 1.02-27.49-2.98-.255-3.13 2.305-6.11 2.045zM387.16 580.63c1.4-4.42 4.2.08 6.11 1.021-3.08 2.859 1.36 7.26-4.07 8.14.23-5.361 3.75-7.201-2.04-9.161z" stroke-width="5"/><path d="M258.88 581.65c2.18-1.971-7.21 6.58-1.02 9.159-1.42 1.561-5.27 2.891-7.13 1.021 1.54-4.57 3.98-8.24 8.15-10.18zM93.26 628.46c-.5-3.26-1.87-5.82-6.45-6.09 2.34-5.42 8.05-3.811 12.22-2.03 2.25-.13.43-4.32 1.02-6.109 3.86 1.59 8.58 1.399 11.2-5.091 2.02.011 1.29 2.771 4.07 2.03 2.62-5.52 6.75-9.54 13.23-11.2 4.76 3.82 8.82 10.49 14.48 13.011 3.53 1.579 7.68 1.539 13.01-1.811 1.41 1.32 1.01 4.43 1.02 7.13a38.786 38.786 0 0 0-7.13 4.07c1.29 3.47 5.8 3.71 10.19 4.08.11 5.67 4.3 9.41 4.07 14.25-13.45 11.33-16.63 32.92-21.38 52.939-5.98 1.12-6.37-4.899-11.2-2.029-.59 3.3.69 4.729 1.02 7.12-3.49 2.97-6.71 6.189-12.22 7.13 4.92-3.721 6.8-14.391.4-18.101a5.47 5.47 0 0 0-.4-.22c.02-.13.04-.26.07-.37.72-3.25 3.94 1.05 6.04-1.67.28-1.65-.96-1.75-1.02-3.06.17-2.2-3.61-.46-5.09-1.021-7 4.2-4.82 13.6-1.02 19.35-6.08.341-6.06-5.01-12.22-2.039-1.75-.61.08-4.82-2.03-5.091 11.51-5.51-.34-16.21 1.01-23.409 1.71-9.07 16.38-10.94 16.29-22.4-.31-1.39-2.54-.85-4.07-1.021-.31-2.35 2.94-1.13 3.06-3.06-3.81-5.69-3.4-15.61-11.2-17.3-4.89 2.46 1.38 9.89-4.08 11.2.44 2.27 5.02.409 7.13 1.01-.01 2.71.39 5.82-1.02 7.13h-5.09c.02-2.021 2.78-1.29 2.04-4.07-5.07-3.34-10.68 1.5-12.22 5.09-2.41-.29 1.17-2.72 1.02-4.069-5.34-2.419-3.98-9.199-4.75-14.279zM405.49 631.53c3.47-.061 6.81 3.08 4.07 6.12-3.35-.04-3.89-2.9-4.07-6.12zM88.85 683.46c-1.04-4.43 2.1-4.68 3.05-7.13 3.6.73 2.13 8.99-3.05 7.13zM108.19 733.35c-.18-3.569 3.44-3.35 4.07-6.109 2.59 1.149 4.97 2.5 7.13 4.069-1.22 5.1-8.3 6.71-11.2 2.04z" stroke-width="5"/><path d="M117.35 731.31c-1.93-.43-2.55-2.189-5.09-2.029-.11 1.239-.3 2.41-2.03 2.029.19 2.87 1.77 4.341 5.09 4.08-.74-2.78 2.02-2.05 2.03-4.08zM391.24 293.51c2.23 2.35-2.61 3.37-1.02 8.14-6.55.56-4.17-9.07 1.02-8.14zM74.59 636.63c-4.46-2.36-3.22-9.75 3.06-9.17.99 5.07-2.09 6.07-3.06 9.17zM100.05 662.08c1.07-4.2-.77-9.04 2.03-13.24 3.73.01 7.86-.39 7.13 4.08 2.35-1.05 3.28-3.51 7.13-3.06 2.01 2.75-3.52 9.6-6.11 5.09-2.3 3.48-4.28 7.27-10.18 7.13z" stroke-width="5"/><path d="M108.19 650.88c-7.28-1.33-7.7 4.28-6.11 9.16 6.09-.9 5.05-4.95 6.11-9.16z" stroke-width="5"/></g><path fill="none" d="M.25.25h850.394v850.394H.25z"/></svg>