<?xml version="1.0" encoding="iso-8859-1"?>
<!-- Generator: Adobe Illustrator 12.0.1, SVG Export Plug-In . SVG Version: 6.00 Build 51448)  -->
<!DOCTYPE svg PUBLIC "-//W3C//DTD SVG 1.1//EN" "http://www.w3.org/Graphics/SVG/1.1/DTD/svg11.dtd" [
	<!ENTITY ns_svg "http://www.w3.org/2000/svg">
	<!ENTITY ns_xlink "http://www.w3.org/1999/xlink">
]>
<svg  version="1.1" id="Layer_1" xmlns="&ns_svg;" xmlns:xlink="&ns_xlink;" width="850.89" height="850.89"
	 viewBox="0 0 850.89 850.89" style="overflow:visible;enable-background:new 0 0 850.89 850.89;" xml:space="preserve">
<g>
	<g id="XMLID_1_">
		<g>
			<polygon style="fill:#ED1E29;" points="802.96,80.11 802.96,116.22 801.4,116.22 651.28,116.22 587.45,66.23 802.96,66.23 			"/>
			<polygon style="fill:#FFFFFF;" points="802.96,116.22 802.96,165.58 802.15,165.58 648.81,165.58 648.7,165.41 684.71,142.4 
				651.28,116.22 801.4,116.22 			"/>
			<polygon style="fill:#231F20;" points="648.81,165.58 802.15,165.58 802.96,165.58 802.96,208.28 586.19,208.28 586.16,205.38 
				648.7,165.41 			"/>
			<polygon style="fill:#58B947;" points="587.45,66.23 651.28,116.22 684.71,142.4 648.7,165.41 586.16,205.38 585.82,167.96 
				587.39,66.23 			"/>
			<polygon style="fill:#FFFFFF;" points="587.39,66.18 587.45,66.23 587.39,66.23 			"/>
			<polygon style="fill:#FFFFFF;" points="584.88,66.23 587.39,66.23 585.82,167.96 			"/>
			<polygon style="fill:#FFFFFF;" points="585.23,205.98 585.82,167.96 586.16,205.38 			"/>
			<path style="fill:#C8C8C8;" d="M590.53,47.77c0,3.68-2.61,6.91-6.57,8.77c-2.229,1.04-4.88,1.65-7.729,1.65
				c-2.73,0-5.29-0.55-7.45-1.52c-4.11-1.83-6.86-5.13-6.86-8.9c0-5.76,6.41-10.43,14.311-10.43
				C584.13,37.34,590.53,42.01,590.53,47.77z"/>
			<path style="fill:#C8C8C8;" d="M568.78,56.67c2.16,0.97,4.72,1.52,7.45,1.52c2.85,0,5.5-0.61,7.729-1.65v250.93h-14.77
				L568.78,56.67z"/>
			<path d="M542.55,323.92c0.49-0.35,0.97-0.71,1.44-1.08c-0.391,0.42-0.82,0.8-1.3,1.14C542.64,323.96,542.6,323.94,542.55,323.92z
				"/>
			<path d="M524.49,330.05c-1.431,1.29-1,3.73-1.521,9.11c-0.439,0.04-0.93,0.12-1.47,0.22l-0.04-0.22
				c0.021-4.03-0.57-8.67,1.51-10.62c11.431,2.29,10.7-8.36,19.58-4.62C537.81,327.24,531.92,329.41,524.49,330.05z"/>
			<path d="M521.46,289.1c-10.58-26.76-7.38-56.05-13.55-83.36c3.1,5.08,7.58,9.58,9,15.1c-5.641,1.61-2.97-5.11-6.07-6.06
				c6.51,24.59,1.65,49.75,10.62,72.81c15.86,2.34,18.35,18.04,33.36,21.23c-2.73,5.55-6.2,10.37-10.83,14.02
				c3.54-3.73,4.22-10.33,9.33-12.51C539.9,306.05,536.04,292.22,521.46,289.1z"/>
			<path d="M521.5,339.38c-3.26,0.64-8.08,2.19-12.17-0.22c-0.76,10.77-2.33,20.71-4.99,29.95l-1.53-0.55
				c2.69-9.35,4.381-19.38,5-30.92c5.94,2.36,9.46-0.74,13.65,1.52L521.5,339.38z"/>
			<path d="M502.75,188.99c1.18,0,2.36,0,3.54,0c-0.87,2.06-1.33,3.97-1.46,5.75c-0.49-1.42-1.01-2.83-1.57-4.23L502.75,188.99z"/>
			<path d="M504.83,194.74c1.24,3.62,2.25,7.29,3.08,11C505.91,202.46,504.49,198.94,504.83,194.74z"/>
			<path d="M502.75,188.99l0.51,1.52c-30.45,0-69.08-0.84-106.14-1.52C432.33,188.99,467.54,188.99,502.75,188.99z"/>
			<path d="M492.64,395.27c8.2,29.94-4.72,43.63-7.59,71.29c-9.47,1.49-15.95,5.561-20.56,11.061
				c1.939-3.54,3.729-7.24,5.399-11.061c5-0.069,7.551-2.56,13.65-1.52c3.21-25.97,15.69-39.92,7.59-68.25
				c4.94-9.31,8.86-18.4,11.68-28.23l1.53,0.55C501.66,378.49,497.86,387.16,492.64,395.27z"/>
			<path d="M460.79,675.87c5.32-5,8.19-0.68,15.17,0c-1.57,6.29-2.37,15.79,2.44,22.03l-2.44-0.801
				c-0.6-1.449-5.61-15.06-1.52-18.189c-4.2-5.22-9.261-4.3-15.171-1.53c-0.43-1.64-0.5-2.899-0.6-3.89
				C459.31,674.3,460.01,675.1,460.79,675.87z"/>
			<path d="M464.48,477.64c-1.73,3.141-3.58,6.16-5.591,9.021C460.39,483.4,462.2,480.34,464.48,477.64z"/>
			<path d="M456.61,670.55c1.63,0.62,1.89,1.48,2.06,2.94C457.9,672.53,457.22,671.55,456.61,670.55z"/>
			<path d="M475.96,697.1l2.44,0.801c0.189,0.25,0.39,0.489,0.59,0.72c-17.15,2.32-30.53-3.271-42.471,0
				c-4.55,1.24-7.939,3.97-10.85,7.189l-0.15-0.14c2.89-3.13,5.9-6.13,9.48-8.57C448.66,697.1,462.31,697.1,475.96,697.1z"/>
			<path d="M430.46,631.88c-1.52-7.07-8.55-8.64-9.11-16.68l0.25-0.061c2.63,12.11,17.65,14.931,24.03,24.33
				c6.09,9,4.88,20.99,10.98,31.08c-0.78-0.3-1.87-0.53-3.41-0.75C448.18,654.61,447.23,635.33,430.46,631.88z"/>
			<path d="M422.87,587.9c2.78-21.801,6.03-41.641,7.59-60.67c2.58-3.48,5.62-6.521,9.09-9.101c3.17,0.89,4.91,3.19,7.59,4.55
				c3.23-6.229,4.67-21.989,6.061-28.819c2.03-2.261,3.92-4.66,5.68-7.181c-5.479,11.94-6.689,26.69-10.22,37.521
				c-3.88-0.181-5.32-2.79-7.59-4.55c-4.44,1.109-6.521,4.6-9.09,7.58c1.21,20.319-9.07,32.119-4.561,59.149
				c-8.79,7.93-15.2-0.33-27.3,3.04l-0.33-0.08c0.11-0.47,0.22-0.95,0.33-1.439C411.48,585.31,413.37,589.23,422.87,587.9z"/>
			<path d="M395.57,604.58c7.43,4.21,19.91,3.36,25.78,9.1c0.06,0.5,0.15,0.99,0.25,1.46l-0.25,0.061
				c-6.38-5.75-18.88-5.391-27.29-9.101c1.98-5.5,4.26-10.729,5.73-16.76l0.33,0.08C402.39,599.47,398.62,597.87,395.57,604.58z"/>
			<path d="M360.59,188.99c-2.5,0-4.99,0-7.49,0C337.7,188.4,351.96,188.42,360.59,188.99z"/>
			<path d="M345.52,190.51c3.9-0.14,0.65,0.15,4.54,0c0.05,1.02-3.19,0.7-7.26,0C343.71,190.51,344.61,190.51,345.52,190.51z"/>
			<path style="fill:#FFF5B4;" d="M521.46,339.16c-4.19-2.26-7.71,0.84-13.65-1.52c-0.619,11.54-2.31,21.57-5,30.92
				c-2.819,9.83-6.739,18.92-11.68,28.23c8.101,28.33-4.38,42.28-7.59,68.25c-6.1-1.04-8.65,1.45-13.65,1.52
				c-1.67,3.82-3.46,7.521-5.399,11.061c-0.01,0.01-0.01,0.02-0.01,0.02c-2.28,2.7-4.091,5.761-5.591,9.021c0,0.01,0,0.01-0.01,0.02
				c-1.76,2.521-3.649,4.92-5.68,7.181c-1.391,6.83-2.83,22.59-6.061,28.819c-2.68-1.359-4.42-3.66-7.59-4.55
				c-3.47,2.58-6.51,5.62-9.09,9.101c-1.56,19.029-4.81,38.869-7.59,60.67c-9.5,1.33-11.39-2.591-22.75,0
				c-0.11,0.489-0.22,0.97-0.33,1.439c-1.47,6.03-3.75,11.26-5.73,16.76c8.41,3.71,20.91,3.351,27.29,9.101
				c0.56,8.04,7.59,9.609,9.11,16.68c16.771,3.45,17.72,22.73,22.74,37.92c1.54,0.22,2.63,0.45,3.41,0.75
				c0.609,1,1.29,1.98,2.06,2.94c0.1,0.99,0.17,2.25,0.6,3.89c5.91-2.77,10.971-3.689,15.171,1.53
				c-4.091,3.13,0.92,16.74,1.52,18.189c-13.65,0-27.3,0-40.96,0c-3.58,2.44-6.59,5.44-9.48,8.57c-5.37,5.8-10.34,12-17.81,15.7
				c-12.88-4.101-27.35-2.95-37.93,6.07c-2.26-2.29-6.79-2.301-6.06-7.591c-8.22,6.551-11.24,1.92-21.23,0
				c-5.05,0.521-5.38,5.74-9.11,7.591c-8.13-10.721-27.04-15.53-28.7-28.841c-0.06-0.489-0.1-0.989-0.11-1.5
				c-4.44,0.4-4.66-3.42-9.1-3.029c-1.75,3.819-2.45,8.67-6.07,10.62c-3.08-4-9.27-4.881-15.17-6.07
				c-2.58,3.99-7.21,5.939-12.13,7.59c-4.67-4.04-10.17-8.13-15.11-12.69c-0.09-0.77-0.11-1.59-0.06-2.479
				c-1.37-0.41-2.68-0.9-3.91-1.46c-5.85-6.29-10.11-13.59-9.74-22.811c-6.99-5.85-15.57-8.329-20.23-12.229
				c-1.07-0.89-1.93-1.85-2.52-2.94c-0.99-4.88-6.1-6.899-3.17-10.55c0.04-0.02,0.09-0.04,0.14-0.06
				c-0.01-0.021-0.03-0.03-0.05-0.05c0.39-0.46,0.9-0.95,1.57-1.471c-10.02-9.71-22.98-16.47-33.37-25.79
				c3.17-3.699,2.16-3.229,1.52-9.1c-9.49-6.19-20.3-11.04-31.86-15.16c-0.28-4.29,5.7-3.54,1.51-7.59
				c-6.49-3.6-11.6-1.82-19.72-1.521c4.09-4.659,3-10.149-1.5-9.09c16.81-17.16-2.54-40.01-15.17-53.09
				c-0.34-4.88,2.68-6.42,1.51-12.13c-2.37-5.21-10.38-4.79-12.13-10.63c6.58-10.37-7.68-17.12-1.52-27.29
				c-7.25-6.8-11.57,2.07-18.2-4.561c0.54-10.069,11.12-10.109,13.65-18.199c-4.28-1.79-4.61-7.521-6.06-12.13
				c2.92-4.16,8.81-5.351,12.31-8.931c0.5-0.51,0.94-1.06,1.33-1.68c-4.94-0.63-3.9-7.22-6.07-10.62
				c6.57-3.61,14.92-11.5,16.59-19.67c0.03-0.02,0.07-0.04,0.1-0.05c0.35-1.21,0.37-2.1,0.2-2.8v-0.01c0-2.13-0.52-4.25-1.71-6.29
				c7.79-5.97,17.76-5.14,30.33-4.55c0-42.47,0-84.94,0-127.4c9.61,0,19.21,0,28.82,0c0-20.24,0-40.46,0-60.68
				c57.73,0,115.49,0,173.22,0c4.07,0.7,7.31,1.02,7.26,0c-3.89,0.15-0.64-0.14-4.54,0c-0.91,0-1.81,0-2.72,0
				c-2.54-0.44-5.4-1.02-7.98-1.52c3.57,0,7.13,0,10.7,0c3.12-0.41,17.07,1.5,20.19,1.09c1.4-0.47-1.31-0.83-5.12-1.09
				c12.18,0,24.36,0,36.53,0c37.06,0.68,75.689,1.52,106.14,1.52c0.561,1.4,1.08,2.81,1.57,4.23c-0.34,4.2,1.08,7.72,3.08,11
				c6.17,27.31,2.97,56.6,13.55,83.36c14.58,3.12,18.44,16.95,31.86,21.23c-5.11,2.18-5.79,8.78-9.33,12.51
				c-0.471,0.37-0.95,0.73-1.44,1.08c-8.88-3.74-8.149,6.91-19.58,4.62C520.89,330.49,521.48,335.13,521.46,339.16z"/>
			<path d="M365.71,190.08c-3.12,0.41-17.07-1.5-20.19-1.09c-3.57,0-7.13,0-10.7,0c-1.79-0.35-3.44-0.66-4.76-0.84
				c19.96,0.03,43.18,0.4,67.06,0.84c-12.17,0-24.35,0-36.53,0c-8.63-0.57-22.89-0.59-7.49,0c2.5,0,4.99,0,7.49,0
				C364.4,189.25,367.11,189.61,365.71,190.08z"/>
			<path d="M425.67,705.81c-5.58,6.16-9.44,14.12-16.45,17.08c-13.28-2.109-29.99-4.25-37.92,6.07c-5.29-0.27-7.63-3.5-9.09-7.59
				c-5.97,7.13-10.4,2-18.21,0c-5.56,0.49-7.88,4.25-9.1,9.1c-0.35-0.31-0.84-0.97-1.4-1.7l-0.12-1.329
				c3.73-1.851,4.06-7.07,9.11-7.591c9.99,1.92,13.01,6.551,21.23,0c-0.73,5.29,3.8,5.301,6.06,7.591
				c10.58-9.021,25.05-10.171,37.93-6.07c7.47-3.7,12.44-9.9,17.81-15.7L425.67,705.81z"/>
			<path d="M330.06,188.15c-1.01-0.01-2.02-0.01-3.01-0.01C327.29,187.86,328.42,187.91,330.06,188.15z"/>
			<path d="M304.68,698.6c1.66,13.311,20.57,18.12,28.7,28.841l0.12,1.329c-1.7-2.189-4.16-5.069-6.18-1.329
				c-3-13.33-25.95-14.311-22.75-28.82L304.68,698.6z"/>
			<path d="M274.23,698.62c5.9,1.189,12.09,2.07,15.17,6.07c3.62-1.95,4.32-6.801,6.07-10.62c4.44-0.391,4.66,3.43,9.1,3.029
				c0.01,0.511,0.05,1.011,0.11,1.5l-0.11,0.021c-3.77,0.24-4.7-2.38-7.58-3.04c-2.51,3.57-3.31,8.84-7.59,10.63
				c-7.67-7.62-18.29-5.66-24.27,1.51c-0.96-0.55-1.98-1.04-3.04-1.489l0.01-0.021C267.02,704.56,271.65,702.61,274.23,698.62z"/>
			<path d="M262.1,706.21l-0.01,0.021c-6.51-2.771-14.28-4.261-15.1-12.711C251.93,698.08,257.43,702.17,262.1,706.21z"/>
			<path d="M246.93,691.04c-0.05,0.89-0.03,1.71,0.06,2.479c-1.37-1.279-2.71-2.579-3.97-3.939
				C244.25,690.14,245.56,690.63,246.93,691.04z"/>
			<path d="M231.76,668.28c-2.88-7.24-18.24-7.311-21.04-13.12l2.33-0.62c4.66,3.9,13.24,6.38,20.23,12.229
				c-0.37,9.221,3.89,16.521,9.74,22.811C235.57,686.18,231.02,679.88,231.76,668.28z"/>
			<path d="M210.72,655.16c-0.47-1-0.58-2.16-0.19-3.561c0.59,1.091,1.45,2.051,2.52,2.94L210.72,655.16z"/>
			<path d="M210.53,651.6c-1.89-2.76-10.3-7.609-3.17-10.55C204.43,644.7,209.54,646.72,210.53,651.6z"/>
			<path d="M207.45,640.94c0.02,0.02,0.04,0.029,0.05,0.05c-0.05,0.02-0.1,0.04-0.14,0.06
				C207.39,641.02,207.42,640.98,207.45,640.94z"/>
			<path d="M169.56,188.99c55.09,0,110.18,0,165.26,0c2.58,0.5,5.44,1.08,7.98,1.52c-57.73,0-115.49,0-173.22,0L169.56,188.99z"/>
			<path d="M175.65,613.68c10.39,9.32,23.35,16.08,33.37,25.79c-0.67,0.521-1.18,1.011-1.57,1.471
				c-8.98-10.7-22.25-17.131-33.32-25.74c-4.04-3.9,2.92-2.17,3.04-6.061c-7.88-8.819-18.27-15.109-33.37-16.689
				c-1.21-5.25,1.68-6.41,3.02-9.101c-6.89-3.199-11.32-2.109-19.72-1.52c-2.2-6.25,2.77-5.68-3.02-10.61
				c15.83-16.569-0.62-39.08-14.66-51.37c0.65-0.409,1.01-0.97,1.01-1.72c12.63,13.08,31.98,35.93,15.17,53.09
				c4.5-1.06,5.59,4.431,1.5,9.09c8.12-0.3,13.23-2.079,19.72,1.521c4.19,4.05-1.79,3.3-1.51,7.59
				c11.56,4.12,22.37,8.97,31.86,15.16C177.81,610.45,178.82,609.98,175.65,613.68z"/>
			<path d="M137.73,377.07c2.78-31.07,1.49-66.21,1.32-100.24c-0.05-9.17-0.02-18.26,0.2-27.16c9.6,0,19.2,0,28.81,0
				c0-20.22,0-40.45,0-60.68c0.5,0,1,0,1.5,0l0.02,1.52c0,20.22,0,40.44,0,60.68c-9.61,0-19.21,0-28.82,0c0,42.46,0,84.93,0,127.4
				c-12.57-0.59-22.54-1.42-30.33,4.55c1.19,2.04,1.71,4.16,1.71,6.29c-0.61-2.56-3.8-2.54-3.23-6.29
				C115.85,376.09,126.08,375.94,137.73,377.07z"/>
			<path d="M112.14,389.44c0.17,0.7,0.15,1.59-0.2,2.8c-0.03,0.01-0.07,0.03-0.1,0.05C112.04,391.34,112.14,390.39,112.14,389.44z"
				/>
			<path d="M99.81,424.09c-3.3-3.27-5.28-7.86-6.07-13.65c11.3-0.79,9.72-14.45,18.1-18.15c-1.67,8.17-10.02,16.06-16.59,19.67
				c2.17,3.4,1.13,9.99,6.07,10.62c-0.39,0.62-0.83,1.17-1.33,1.68L99.81,424.09z"/>
			<path d="M111.94,506c1.17,5.71-1.85,7.25-1.51,12.13c0,0.75-0.36,1.311-1.01,1.72c-0.69-0.6-1.36-1.17-2.03-1.72
				c8.78-10.1-3.12-16.83-9.1-21.24c6.74-10.729-7.09-17.939-1.52-27.29c-4.85-4.54-8.43-0.93-16.68-1.52
				c-4.96-11.1,6.73-15.76,12.14-21.24c-2.86-3.71-5.15-7.99-6.07-13.649c3.69-3.891,7.38-7.78,13.65-9.101l0.18,0.17
				c-3.5,3.58-9.39,4.771-12.31,8.931c1.45,4.609,1.78,10.34,6.06,12.13c-2.53,8.09-13.11,8.13-13.65,18.199
				c6.63,6.631,10.95-2.239,18.2,4.561c-6.16,10.17,8.1,16.92,1.52,27.29C101.56,501.21,109.57,500.79,111.94,506z"/>
		</g>
		<g>
			<polyline style="fill:none;stroke:#231F20;stroke-width:7;" points="587.45,66.23 802.96,66.23 802.96,80.11 802.96,116.22 
				802.96,165.58 802.96,208.28 586.19,208.28 			"/>
			<line style="fill:none;stroke:#231F20;stroke-width:7;" x1="584.88" y1="66.23" x2="587.39" y2="66.23"/>
			<path style="fill:none;stroke:#231F20;stroke-width:7;" d="M568.78,56.67c-4.11-1.83-6.86-5.13-6.86-8.9
				c0-5.76,6.41-10.43,14.311-10.43c7.899,0,14.3,4.67,14.3,10.43c0,3.68-2.61,6.91-6.57,8.77c-2.229,1.04-4.88,1.65-7.729,1.65
				C573.5,58.19,570.94,57.64,568.78,56.67z"/>
			<polyline style="fill:none;stroke:#231F20;stroke-width:7;" points="568.78,56.38 568.78,56.67 569.19,307.47 			"/>
			<polyline style="fill:none;stroke:#231F20;stroke-width:7;" points="583.96,55.86 583.96,56.54 583.96,307.47 			"/>
			<polyline style="fill:none;stroke:#231F20;stroke-width:7;" points="587.39,66.18 587.45,66.23 651.28,116.22 684.71,142.4 
				648.7,165.41 586.16,205.38 585.23,205.98 			"/>
			<line style="fill:none;stroke:#231F20;stroke-width:7;" x1="648.81" y1="165.58" x2="802.15" y2="165.58"/>
			<polyline style="fill:none;stroke:#231F20;stroke-width:7;" points="651.05,116.22 651.28,116.22 801.4,116.22 			"/>
			<path style="fill:none;stroke:#231F20;stroke-width:7.1626;" d="M458.88,486.68c-5.479,11.94-6.689,26.69-10.22,37.521
				c-3.88-0.181-5.32-2.79-7.59-4.55c-4.44,1.109-6.521,4.6-9.09,7.58c1.21,20.319-9.07,32.119-4.561,59.149
				c-8.79,7.93-15.2-0.33-27.3,3.04c2.27,10.05-1.5,8.45-4.55,15.16c7.43,4.21,19.91,3.36,25.78,9.1c0.06,0.5,0.15,0.99,0.25,1.46
				c2.63,12.11,17.65,14.931,24.03,24.33c6.09,9,4.88,20.99,10.98,31.08c0.609,1,1.29,1.98,2.06,2.94
				c0.64,0.81,1.34,1.609,2.12,2.38c5.32-5,8.19-0.68,15.17,0c-1.57,6.29-2.37,15.79,2.44,22.03c0.189,0.25,0.39,0.489,0.59,0.72
				c-17.15,2.32-30.53-3.271-42.471,0c-4.55,1.24-7.939,3.97-10.85,7.189c-5.58,6.16-9.44,14.12-16.45,17.08
				c-13.28-2.109-29.99-4.25-37.92,6.07c-5.29-0.27-7.63-3.5-9.09-7.59c-5.97,7.13-10.4,2-18.21,0c-5.56,0.49-7.88,4.25-9.1,9.1
				c-0.35-0.31-0.84-0.97-1.4-1.7c-1.7-2.189-4.16-5.069-6.18-1.329c-3-13.33-25.95-14.311-22.75-28.82
				c-3.77,0.24-4.7-2.38-7.58-3.04c-2.51,3.57-3.31,8.84-7.59,10.63c-7.67-7.62-18.29-5.66-24.27,1.51
				c-0.96-0.55-1.98-1.04-3.04-1.489c-6.51-2.771-14.28-4.261-15.1-12.711c-0.09-0.77-0.11-1.59-0.06-2.479
				c-1.37-0.41-2.68-0.9-3.91-1.46c-7.45-3.4-12-9.7-11.26-21.3c-2.88-7.24-18.24-7.311-21.04-13.12c-0.47-1-0.58-2.16-0.19-3.561
				c0.59,1.091,1.45,2.051,2.52,2.94c4.66,3.9,13.24,6.38,20.23,12.229c-0.37,9.221,3.89,16.521,9.74,22.811
				c1.26,1.36,2.6,2.66,3.97,3.939c4.94,4.561,10.44,8.65,15.11,12.69c4.92-1.65,9.55-3.6,12.13-7.59
				c5.9,1.189,12.09,2.07,15.17,6.07c3.62-1.95,4.32-6.801,6.07-10.62c4.44-0.391,4.66,3.43,9.1,3.029
				c0.01,0.511,0.05,1.011,0.11,1.5c1.66,13.311,20.57,18.12,28.7,28.841c3.73-1.851,4.06-7.07,9.11-7.591
				c9.99,1.92,13.01,6.551,21.23,0c-0.73,5.29,3.8,5.301,6.06,7.591c10.58-9.021,25.05-10.171,37.93-6.07
				c7.47-3.7,12.44-9.9,17.81-15.7c2.89-3.13,5.9-6.13,9.48-8.57c13.66,0,27.31,0,40.96,0c-0.6-1.449-5.61-15.06-1.52-18.189
				c-4.2-5.22-9.261-4.3-15.171-1.53c-0.43-1.64-0.5-2.899-0.6-3.89c-0.17-1.46-0.43-2.32-2.06-2.94c-0.78-0.3-1.87-0.53-3.41-0.75
				c-5.021-15.189-5.97-34.47-22.74-37.92c-1.52-7.07-8.55-8.64-9.11-16.68c-6.38-5.75-18.88-5.391-27.29-9.101
				c1.98-5.5,4.26-10.729,5.73-16.76c0.11-0.47,0.22-0.95,0.33-1.439c11.36-2.591,13.25,1.33,22.75,0
				c2.78-21.801,6.03-41.641,7.59-60.67c2.58-3.48,5.62-6.521,9.09-9.101c3.17,0.89,4.91,3.19,7.59,4.55
				c3.23-6.229,4.67-21.989,6.061-28.819c2.03-2.261,3.92-4.66,5.689-7.2c0,0.01,0,0.01,0,0c2.011-2.86,3.86-5.88,5.601-9.04
				c-0.01,0.01-0.01,0.02,0,0c1.939-3.54,3.729-7.24,5.399-11.061c5-0.069,7.551-2.56,13.65-1.52c3.21-25.97,15.69-39.92,7.59-68.25
				c4.94-9.31,8.86-18.4,11.68-28.23c2.69-9.35,4.381-19.38,5-30.92c5.94,2.36,9.46-0.74,13.65,1.52
				c0.021-4.03-0.57-8.67,1.51-10.62c11.431,2.29,10.7-8.36,19.58-4.62c0.05,0.02,0.09,0.04,0.141,0.06
				c0.479-0.34,0.909-0.72,1.3-1.14c3.54-3.73,4.22-10.33,9.33-12.51c-13.42-4.28-17.28-18.11-31.86-21.23
				c-10.58-26.76-7.38-56.05-13.55-83.36c-0.83-3.71-1.84-7.38-3.08-11c-0.49-1.42-1.01-2.83-1.57-4.23
				c-30.45,0-69.08-0.84-106.14-1.52c-23.88-0.44-47.1-0.81-67.06-0.84"/>
			<path style="fill:none;stroke:#231F20;stroke-width:7.1626;" d="M464.48,477.64c-2.28,2.7-4.091,5.761-5.591,9.021"/>
			<path style="fill:none;stroke:#231F20;stroke-width:7.1626;" d="M360.59,188.99c12.18,0,24.36,0,36.53,0
				c35.21,0,70.42,0,105.63,0c1.18,0,2.36,0,3.54,0c-0.87,2.06-1.33,3.97-1.46,5.75c-0.34,4.2,1.08,7.72,3.08,11
				c3.1,5.08,7.58,9.58,9,15.1c-5.641,1.61-2.97-5.11-6.07-6.06c6.51,24.59,1.65,49.75,10.62,72.81
				c15.86,2.34,18.35,18.04,33.36,21.23c-2.73,5.55-6.2,10.37-10.83,14.02c-0.471,0.37-0.95,0.73-1.44,1.08
				c-4.74,3.32-10.63,5.49-18.06,6.13c-1.431,1.29-1,3.73-1.521,9.11c-0.439,0.04-0.93,0.12-1.47,0.22
				c-3.26,0.64-8.08,2.19-12.17-0.22c-0.76,10.77-2.33,20.71-4.99,29.95c-2.68,9.38-6.479,18.05-11.7,26.16
				c8.2,29.94-4.72,43.63-7.59,71.29c-9.47,1.49-15.95,5.561-20.56,11.061"/>
			<path style="fill:none;stroke:#231F20;stroke-width:7.1626;" d="M360.59,188.99c-8.63-0.57-22.89-0.59-7.49,0
				C355.6,188.99,358.09,188.99,360.59,188.99z"/>
			<path style="fill:none;stroke:#231F20;stroke-width:7.1626;" d="M112.14,389.43c-0.61-2.56-3.8-2.54-3.23-6.29
				c6.94-7.05,17.17-7.2,28.82-6.07c2.78-31.07,1.49-66.21,1.32-100.24c-0.05-9.17-0.02-18.26,0.2-27.16c9.6,0,19.2,0,28.81,0
				c0-20.22,0-40.45,0-60.68c0.5,0,1,0,1.5,0c55.09,0,110.18,0,165.26,0c3.57,0,7.13,0,10.7,0c3.12-0.41,17.07,1.5,20.19,1.09
				c1.4-0.47-1.31-0.83-5.12-1.09"/>
			<path style="fill:none;stroke:#231F20;stroke-width:7.1626;" d="M342.8,190.51c-57.73,0-115.49,0-173.22,0
				c0,20.22,0,40.44,0,60.68c-9.61,0-19.21,0-28.82,0c0,42.46,0,84.93,0,127.4c-12.57-0.59-22.54-1.42-30.33,4.55
				c1.19,2.04,1.71,4.16,1.71,6.3c0,0,0-0.01,0,0c0,0.95-0.1,1.9-0.3,2.85c-1.67,8.17-10.02,16.06-16.59,19.67
				c2.17,3.4,1.13,9.99,6.07,10.62c-0.39,0.62-0.83,1.17-1.33,1.68c-3.5,3.58-9.39,4.771-12.31,8.931
				c1.45,4.609,1.78,10.34,6.06,12.13c-2.53,8.09-13.11,8.13-13.65,18.199c6.63,6.631,10.95-2.239,18.2,4.561
				c-6.16,10.17,8.1,16.92,1.52,27.29c1.75,5.84,9.76,5.42,12.13,10.63c1.17,5.71-1.85,7.25-1.51,12.13
				c12.63,13.08,31.98,35.93,15.17,53.09c4.5-1.06,5.59,4.431,1.5,9.09c8.12-0.3,13.23-2.079,19.72,1.521
				c4.19,4.05-1.79,3.3-1.51,7.59c11.56,4.12,22.37,8.97,31.86,15.16c0.64,5.87,1.65,5.4-1.52,9.1
				c10.39,9.32,23.35,16.08,33.37,25.79c-0.67,0.521-1.18,1.011-1.57,1.471c-0.03,0.04-0.06,0.079-0.09,0.109
				c-2.93,3.65,2.18,5.67,3.17,10.55c-1.89-2.76-10.3-7.609-3.17-10.55c0.04-0.02,0.09-0.04,0.14-0.06
				c-0.01-0.021-0.03-0.03-0.05-0.05c-8.98-10.7-22.25-17.131-33.32-25.74c-4.04-3.9,2.92-2.17,3.04-6.061
				c-7.88-8.819-18.27-15.109-33.37-16.689c-1.21-5.25,1.68-6.41,3.02-9.101c-6.89-3.199-11.32-2.109-19.72-1.52
				c-2.2-6.25,2.77-5.68-3.02-10.61c15.83-16.569-0.62-39.08-14.66-51.37c-0.69-0.6-1.36-1.17-2.03-1.72
				c8.78-10.1-3.12-16.83-9.1-21.24c6.74-10.729-7.09-17.939-1.52-27.29c-4.85-4.54-8.43-0.93-16.68-1.52
				c-4.96-11.1,6.73-15.76,12.14-21.24c-2.86-3.71-5.15-7.99-6.07-13.649c3.69-3.891,7.38-7.78,13.65-9.101
				c-3.3-3.27-5.28-7.86-6.07-13.65c11.3-0.79,9.72-14.45,18.1-18.15c0.03-0.02,0.07-0.04,0.1-0.05c0.35-1.21,0.37-2.1,0.2-2.8"/>
			<path style="fill:none;stroke:#231F20;stroke-width:7.1626;" d="M342.8,190.51c4.07,0.7,7.31,1.02,7.26,0
				c-3.89,0.15-0.64-0.14-4.54,0C344.61,190.51,343.71,190.51,342.8,190.51z"/>
			<path style="fill:none;stroke:#231F20;stroke-width:7.1626;" d="M330.06,188.15c1.32,0.18,2.97,0.49,4.76,0.84
				c2.58,0.5,5.44,1.08,7.98,1.52"/>
			<path style="fill:none;stroke:#231F20;stroke-width:7.1626;" d="M330.06,188.15c-1.01-0.01-2.02-0.01-3.01-0.01
				C327.29,187.86,328.42,187.91,330.06,188.15z"/>
			<polyline style="fill:none;stroke:#231F20;stroke-width:7.1626;" points="169.58,190.51 169.56,188.99 168.52,110.81 			"/>
			<polyline style="fill:none;stroke:#231F20;stroke-width:7.1626;" points="139.52,277.07 139.05,276.83 75.73,244.21 			"/>
			<path style="fill:none;stroke:#231F20;stroke-width:7.1626;" d="M110.43,518.13c0,0.75-0.36,1.311-1.01,1.72
				c-6.15,3.94-38.67-4.51-49.16,18.21"/>
			<polyline style="fill:none;stroke:#231F20;stroke-width:7.1626;" points="475.96,697.1 478.4,697.9 551.31,721.72 			"/>
			<polyline style="fill:none;stroke:#231F20;stroke-width:7.1626;" points="501.04,367.93 502.81,368.56 504.34,369.11 
				582.24,396.93 			"/>
			<line style="fill:none;stroke:#231F20;stroke-width:7.1626;" x1="409.22" y1="722.89" x2="433.38" y2="762.32"/>
			<polyline style="fill:none;stroke:#231F20;stroke-width:7.1626;" points="333.38,727.44 333.5,728.77 336.72,764.25 			"/>
			<polyline style="fill:none;stroke:#231F20;stroke-width:7.1626;" points="214.92,654.05 213.05,654.54 210.72,655.16 
				149.19,671.45 			"/>
			<polyline style="fill:none;stroke:#231F20;stroke-width:7.1626;" points="503.26,190.51 502.75,188.99 485.58,137.88 			"/>
		</g>
	</g>
</g>
<rect x="0.25" y="0.25" style="fill:none;" width="850.394" height="850.394"/>
</svg>
