<svg xmlns="http://www.w3.org/2000/svg" width="850.89" height="850.89" viewBox="0 0 850.89 850.89" overflow="visible"><path fill="#231f20" d="M828.9 239.77v4.91H555.28v-4.91h268.71V83.36l.02.02 2.53-1.44h2.36zM828.9 62.28v19.66h-2.36l-1.61-2.84-.94-1.66V62.28H555.28v-4.9H828.9z"/><path fill="#231f20" d="M824.93 79.1l1.61 2.84-2.53 1.44-.02-.02v-3.73z"/><path fill="#231f20" d="M823.99 77.44l.94 1.66-.94.53zM823.99 234.86v4.91h-4.9zM823.99 83.36v151.5h-4.9V77.69h1.69l1.61 2.85z"/><path fill="#231f20" d="M823.99 79.63v3.73l-1.6-2.82zM823.99 77.44v2.19l-1.6.91-1.61-2.85 2.54-1.44z"/><path fill="#231f20" d="M823.99 67.19v10.25l-.67-1.19-2.54 1.44h-1.69v-10.5zM823.99 62.28v4.91l-4.9-4.91z"/><path fill="#231f20" d="M819.09 62.28l4.9 4.91h-4.9zM823.99 234.86l-4.9 4.91v-4.91zM555.28 234.86h263.81v4.91H555.28z"/><path d="M696.43 96.08V68h-53.3v-.81h175.96v167.67H555.28v-81.65l6 .01h4.439l39.8.02h90.91V96.08zm106.9 48.58l2.83-2.5-3.76-.36-1.19-.11-8.41-.8-3.37-7.76-.47-1.1-1.5-3.46-1.5 3.46-.47 1.1-3.36 7.76-8.42.8-1.19.11-3.76.36 2.83 2.5.9.79 6.34 5.58-1.84 8.26-.26 1.16-.82 3.69 3.25-1.92 1.02-.61 7.28-4.31 7.28 4.31 1.02.61 3.26 1.92-.829-3.69-.261-1.16-1.84-8.26 6.351-5.58.889-.79zm-30.25 54.18l3.49-3.08-4.641-.44-1.46-.14-10.37-.98-4.149-9.57-.58-1.34-1.851-4.28-1.85 4.28-.59 1.34-4.14 9.57-10.37.98-1.471.14-4.63.44 3.49 3.08 1.1.97 7.82 6.89-2.27 10.17-.32 1.44-1.021 4.54 4.011-2.37 1.27-.74 8.97-5.31 8.971 5.31 1.27.74 4.01 2.37-1.02-4.54-.33-1.44-2.26-10.17 7.82-6.89 1.101-.97zm-1.53-80.82l2.84-2.5-3.76-.35-1.189-.12-8.421-.8-3.359-7.76-.47-1.09-1.5-3.47-1.5 3.47-.48 1.09-3.36 7.76-8.42.8-1.18.12-3.76.35 2.83 2.5.89.79 6.35 5.59-1.85 8.25-.26 1.17-.82 3.69 3.25-1.93 1.03-.61 7.28-4.3 7.279 4.3 1.021.61 3.26 1.93-.83-3.69-.26-1.17-1.84-8.25 6.34-5.59.889-.79zm-34.57 34.11l2.829-2.5-3.76-.35-1.189-.12-8.42-.79-3.36-7.77-.47-1.09-1.5-3.47-1.5 3.47-.471 1.09-3.37 7.77-8.409.79-1.19.12-3.76.35 2.83 2.5.899.79 6.341 5.59-1.841 8.25-.27 1.17-.82 3.68 3.25-1.92 1.03-.61 7.28-4.3 7.279 4.3 1.021.61 3.25 1.92-.82-3.68-.26-1.17-1.84-8.25 6.34-5.59.901-.79z" fill="#394ea1"/><path fill="#231f20" d="M604.04 67.19h-48.76v-4.91h263.81v4.91H635.73z"/><path fill="#fff" d="M806.16 142.16l-2.83 2.5-.89.79-.35-.4-.37-1.16.53-.46-.71-.07-.37-1.16.04-.51 1.19.11z"/><path fill="#fff" d="M802.09 145.05l.35.4-6.35 5.58-.21-.94-.51 1.58.72-.64 1.84 8.26-.5.11-1.32-.78-1.83-8.17 6.28-5.54zM802.25 143.43l-.53.46-.18-.53z"/><path fill="#fff" d="M801.72 143.89l.37 1.16-1.53-.14zM801.54 143.36l.18.53-1.16 1.02-2.23-.21 1.69-1.48zM801.17 142.2l.37 1.16-1.52-.14z"/><path fill="#fff" d="M801.21 141.69l-.04.51-1.15 1.02-8.34-.79-3.33-7.69.61-1.41.47-.2 3.37 7.76-.97-.09 1.35.98-.38-.89zM800.56 144.91l-6.28 5.54 1.83 8.17-1.93-1.15-1.49-6.67-.21-.94.72-.64 5.13-4.52z"/><path fill="#fff" d="M800.02 143.22l-1.69 1.48-6.8-.65-.97-.09-.38-.88-2.72-6.28.89-2.06 3.33 7.69zM798.19 160.45l.83 3.69-3.26-1.92-1.02-.61.26-.45.99-.71.61.36-.15-.69.98-.72.5-.11z"/><path fill="#ed1e29" d="M798.33 144.7l-5.13 4.52-.72.64.21.94 1.49 6.67-5.89-3.47-.83-.49-.83.49-5.89 3.47 1.49-6.67.21-.94-.72-.64-5.13-4.52 6.81-.65.96-.09.39-.88 2.71-6.28 2.72 6.28.38.88.97.09z"/><path fill="#fff" d="M797.43 159.4l-.98.72-.34-1.5zM796.45 160.12l.15.69-.61-.36z"/><path fill="#fff" d="M796.11 158.62l.34 1.5-.46.33-1.32-.78-.49-2.2zM795.88 150.09l.21.94-.72.64z"/><path fill="#fff" d="M795.99 160.45l-.99.71-.33-1.49z"/><path fill="#fff" d="M794.67 159.67l.33 1.49-.26.45-7.28-4.31.83-.49h-1.66l.83.49-7.28 4.31-.26-.45.34-1.49 7.2-4.26z"/><path fill="#fff" d="M794.18 157.47l.49 2.2-7.21-4.26-7.2 4.26.48-2.2 5.89-3.47.83-.49.83.49zM792.8 140.89l.38.89-1.35-.98zM788.96 132.03l.47 1.1-.47.2h-1.22l-.28-.65-.28.65h-1.22l-.47-.2.47-1.1 1.5-3.46zM788.96 133.33l-.61 1.41-.61-1.41z"/><path fill="#fff" d="M787.74 133.33l.61 1.41-.89 2.06-.89-2.06.61-1.41zM788.29 156.81l-.83.49-.83-.49zM787.46 132.68l.28.65h-.56z"/><path fill="#fff" d="M786.57 134.74l.89 2.06-2.71 6.28-.39.88-.96.09-6.81.65-1.68-1.48 8.33-.79zM787.18 133.33l-.61 1.41-.61-1.41z"/><path fill="#fff" d="M785.96 133.33l.61 1.41-3.33 7.69-8.33.79-1.15-1.02-.05-.51 8.42-.8-.39.89 1.35-.98-.96.09 3.36-7.76z"/><path fill="#fff" d="M783.09 140.8l-1.35.98.39-.89zM782.44 149.86l-.21.94-1.49 6.67-1.93 1.15 1.83-8.17-6.28-5.54 2.23-.21 5.13 4.52z"/><path fill="#fff" d="M780.74 157.47l-.48 2.2-1.33.78-.45-.33.33-1.5zM780.64 150.45l-1.83 8.17-1.32.78-.5-.11 1.84-8.26.72.64-.51-1.58-.21.94-6.34-5.58.34-.4 1.53-.14z"/><path fill="#fff" d="M780.26 159.67l-.34 1.49-.99-.71z"/><path fill="#fff" d="M779.92 161.16l.26.45-1.02.61-3.25 1.92.82-3.69.26-1.16.5.11.99.72-.16.69.61-.36zM779.04 150.09l.51 1.58-.72-.64z"/><path fill="#fff" d="M778.93 160.45l-.61.36.16-.69zM778.81 158.62l-.33 1.5-.99-.72zM776.59 144.7l-2.23.21-1.15-1.02.17-.53 1.53-.14zM776.57 195.76l-3.49 3.08-1.1.97-.43-.48-.46-1.43.65-.57-.86-.09-.47-1.43.06-.63 1.46.14z"/><path fill="#fff" d="M774.91 143.22l-1.53.14.38-1.16zM774.39 115.52l-2.84 2.5-.89.79-.34-.39-.38-1.16.53-.47-.7-.06-.38-1.16v-.01l.05-.51 1.19.12zM774.36 144.91l-1.53.14.38-1.16z"/><path fill="#fff" d="M773.71 141.69l.05.51-.38 1.16-.7.07.53.46-.38 1.16-.34.4-.9-.79-2.83-2.5 3.76-.36z"/><path fill="#fff" d="M773.38 143.36l-.17.53-.53-.46zM771.55 199.33l.43.48-7.82 6.89-.26-1.16-.63 1.95.89-.79 2.26 10.17-.61.14-1.63-.96-2.25-10.07 7.74-6.83zM771.74 197.33l-.65.57-.21-.66z"/><path fill="#fff" d="M771.09 197.9l.46 1.43-1.88-.18z"/><path fill="#fff" d="M770.88 197.24l.21.66-1.42 1.25-2.75-.26 2.07-1.83z"/><path fill="#fff" d="M770.41 195.81l.47 1.43-1.89-.18zM770.32 118.42l.34.39-6.34 5.59-.21-.94-.52 1.58.73-.64 1.84 8.25-.5.11-1.32-.78-1.83-8.17 6.28-5.54z"/><path fill="#fff" d="M770.47 195.18l-.06.63-1.42 1.25-10.27-.97-4.1-9.47.75-1.74.58-.25 4.15 9.57-1.19-.12 1.66 1.21-.47-1.09zM770.47 116.79l-.53.47-.17-.53zM769.94 117.26l.38 1.16-1.53-.15zM769.77 116.73l.17.53-1.15 1.01-2.23-.21 1.68-1.48zM769.39 115.57l.38 1.16-1.53-.15zM769.67 199.15l-7.74 6.83 2.25 10.07-2.38-1.41-1.84-8.22-.25-1.16.89-.79 6.32-5.58z"/><path fill="#fff" d="M769.44 115.05l-.05.51v.01l-1.15 1.01-8.33-.79-3.33-7.69.61-1.4.47-.21 3.36 7.76-.96-.09 1.35.98-.39-.89zM768.99 197.06l-2.07 1.83-8.39-.79-1.19-.11-.47-1.1-3.35-7.74 1.1-2.53 4.1 9.47zM768.79 118.27l-6.28 5.54 1.83 8.17-1.93-1.14-1.49-6.67-.21-.94.72-.64 5.13-4.53z"/><path fill="#fff" d="M768.24 116.58l-1.68 1.48-6.81-.64-.96-.09-.38-.89-2.72-6.27.89-2.07 3.33 7.69zM766.75 218.31l1.02 4.54-4.01-2.37-1.27-.74.32-.55 1.22-.88.75.44-.19-.85 1.22-.89.61-.14zM766.42 133.82l.83 3.69-3.26-1.93-1.02-.61.26-.44.98-.72.62.36-.16-.69.99-.72.5-.11z"/><path fill="#ed1e29" d="M766.92 198.89l-6.32 5.58-.89.79.25 1.16 1.84 8.22-7.25-4.29-1.03-.6-1.02.6-7.26 4.29 1.83-8.22.26-1.16-.89-.79-6.32-5.58 8.39-.79 1.19-.11.47-1.1 3.35-7.74 3.35 7.74.47 1.1 1.19.11zM766.56 118.06l-5.13 4.53-.72.64.21.94 1.49 6.67-5.89-3.48-.83-.49-.84.49-5.88 3.48 1.49-6.67.21-.94-.73-.64-5.13-4.53 6.82-.64.95-.09.39-.89 2.72-6.27 2.72 6.27.38.89.96.09z"/><path fill="#fff" d="M765.81 217.01l-1.22.89-.41-1.85zM765.66 132.76l-.99.72-.33-1.5zM764.67 133.48l.16.69-.62-.36zM764.59 217.9l.19.85-.75-.44z"/><path fill="#fff" d="M764.34 131.98l.33 1.5-.46.33-1.32-.78-.48-2.19zM764.18 216.05l.41 1.85-.56.41-1.63-.97-.6-2.7zM764.11 123.46l.21.94-.73.64z"/><path fill="#fff" d="M764.21 133.81l-.98.72-.34-1.5zM763.9 205.54l.26 1.16-.89.79zM764.03 218.31l-1.22.88-.41-1.85z"/><path fill="#fff" d="M762.89 133.03l.34 1.5-.26.44-7.28-4.3.83-.49h-1.67l.84.49-7.28 4.3-.27-.44.34-1.5 7.21-4.26z"/><path fill="#fff" d="M762.41 130.84l.48 2.19-7.2-4.26-7.21 4.26.49-2.19 5.88-3.48.84-.49.83.49zM762.4 217.34l.41 1.85-.32.55-8.97-5.31 1.03-.6h-2.05l1.02.6-8.97 5.31-.33-.55.42-1.85 8.88-5.25z"/><path fill="#fff" d="M761.8 214.64l.6 2.7-8.88-5.25-8.88 5.25.6-2.7 7.26-4.29 1.02-.6 1.03.6zM761.02 114.25l.39.89-1.35-.98zM760.1 194.2l.47 1.09-1.66-1.21zM757.19 105.4l.47 1.09-.47.21h-1.22l-.28-.65-.28.65h-1.22l-.48-.21.48-1.09 1.5-3.47zM757.19 106.7l-.61 1.4-.61-1.4z"/><path fill="#fff" d="M755.97 106.7l.61 1.4-.89 2.07-.9-2.07.62-1.4zM756.52 130.18l-.83.49-.84-.49zM755.69 106.05l.28.65h-.56zM755.37 183.29l.58 1.34-.58.25h-1.51l-.34-.8-.35.8h-1.5l-.59-.25.59-1.34 1.85-4.28zM754.79 108.1l.9 2.07-2.72 6.27-.39.89-.95.09-6.82.64-1.67-1.48 8.33-.79z"/><path fill="#fff" d="M755.41 106.7l-.62 1.4-.6-1.4zM755.37 184.88l-.75 1.74-.76-1.74z"/><path fill="#fff" d="M754.19 106.7l.6 1.4-3.32 7.69-8.33.79h-.01l-1.15-1.01v-.01l-.05-.51 8.42-.8-.38.89 1.34-.98-.96.09 3.36-7.76zM753.86 184.88l.76 1.74-1.1 2.53-1.1-2.53.75-1.74zM754.55 213.83l-1.03.6-1.02-.6z"/><path fill="#fff" d="M753.52 184.08l.34.8h-.69zM752.42 186.62l1.1 2.53-3.35 7.74-.47 1.1-1.19.11-8.39.79-2.07-1.83 10.27-.97zM753.17 184.88l-.75 1.74-.75-1.74z"/><path fill="#fff" d="M751.67 184.88l.75 1.74-4.1 9.47-10.27.97-1.42-1.25-.06-.63 10.37-.98-.47 1.09 1.66-1.21-1.19.12 4.14-9.57zM751.31 114.16l-1.34.98.38-.89zM750.67 123.23l-.21.94-1.49 6.67-1.93 1.14 1.82-8.17-6.28-5.54 2.23-.21 5.13 4.53zM748.97 130.84l-.49 2.19-1.32.78-.46-.33.34-1.5z"/><path fill="#fff" d="M748.86 123.81l-1.82 8.17-1.32.78h-.01l-.5-.11 1.85-8.25.72.64-.51-1.58-.21.94-6.35-5.59.35-.39 1.52-.15zM748.48 133.03l-.34 1.5-.98-.72z"/><path fill="#fff" d="M748.14 134.53l.27.44-1.03.61-3.25 1.93.82-3.69.26-1.17.5.11h.01l.98.72-.15.69.61-.36zM748.13 194.08l-1.66 1.21.47-1.09zM747.27 123.46l.51 1.58-.72-.64zM747.33 205.26l-.26 1.16-1.83 8.22-2.38 1.41 2.25-10.07-7.75-6.83 2.76-.26 6.32 5.58z"/><path fill="#fff" d="M747.16 133.81l-.61.36.15-.69zM747.04 131.98l-.34 1.5-.98-.72zM745.24 214.64l-.6 2.7-1.63.97-.56-.41.41-1.85zM745.11 205.98l-2.25 10.07-1.63.96-.62-.14 2.27-10.17.89.79-.63-1.95-.26 1.16-7.82-6.89.42-.48 1.88-.18zM744.81 118.06l-2.23.21-1.15-1.01.17-.53h.01l1.52-.15h.01zM744.64 217.34l-.42 1.85-1.21-.88z"/><path fill="#fff" d="M744.22 219.19l.33.55-1.27.74-4.01 2.37 1.02-4.54.32-1.44.62.14 1.22.89-.19.85.75-.44zM743.14 205.54l.63 1.95-.89-.79zM743.13 116.58l-1.52.15.37-1.16z"/><path fill="#fff" d="M743.01 218.31l-.75.44.19-.85zM742.86 216.05l-.41 1.85-1.22-.89zM742.58 118.27l-1.52.15.37-1.16z"/><path fill="#fff" d="M741.98 115.56v.01l-.37 1.16h-.01l-.7.06.53.47-.37 1.16-.35.39-.89-.79-2.83-2.5 3.76-.35 1.18-.12z"/><path fill="#fff" d="M741.6 116.73l-.17.53-.53-.47zM740.12 198.89l-2.76.26-1.41-1.25.21-.66 1.89-.18zM739.81 149.63l-2.83 2.5-.9.79-.34-.39-.38-1.16.53-.47-.7-.06-.38-1.16.05-.52 1.19.12z"/><path fill="#fff" d="M738.05 197.06l-1.89.18.47-1.43zM737.36 199.15l-1.88.18.47-1.43z"/><path fill="#fff" d="M736.57 195.18l.06.63-.47 1.43-.87.09.66.57-.47 1.43-.42.48-1.1-.97-3.49-3.08 4.63-.44z"/><path fill="#fff" d="M736.16 197.24l-.21.66-.66-.57zM735.74 152.53l.34.39-6.34 5.59-.21-.94-.52 1.58.73-.64 1.84 8.25-.5.11-1.32-.78-1.83-8.16 6.28-5.54zM735.89 150.9l-.53.47-.17-.53zM735.36 151.37l.38 1.16-1.53-.14z"/><path fill="#fff" d="M735.19 150.84l.17.53-1.15 1.02-2.23-.21v-.01l1.68-1.48z"/><path fill="#fff" d="M734.81 149.68l.38 1.16-1.53-.15z"/><path fill="#fff" d="M734.86 149.16l-.05.52-1.15 1.01-8.33-.79-3.33-7.68.61-1.41.47-.21 3.36 7.77-.96-.1 1.35.98-.39-.88zM734.21 152.39l-6.28 5.54 1.83 8.16-1.93-1.14-1.49-6.67-.21-.94.72-.64 5.13-4.52z"/><path fill="#fff" d="M733.66 150.69l-1.68 1.48-6.81-.64-.96-.09-.39-.89-2.71-6.27.89-2.06 3.33 7.68zM731.84 167.93l.82 3.68-3.25-1.92-1.02-.61.26-.44.99-.71.61.36-.16-.7.99-.72.5-.11z"/><path fill="#ed1e29" d="M731.98 152.17v.01l-5.13 4.52-.72.64.21.94 1.49 6.67-5.89-3.47-.83-.5-.83.5-5.89 3.47 1.49-6.67.21-.94-.72-.64-5.14-4.52 6.81-.65.97-.09.38-.89 2.72-6.27 2.71 6.27.39.89.96.09z"/><path fill="#fff" d="M731.08 166.87l-.99.72-.33-1.5zM730.09 167.59l.16.7-.61-.36z"/><path fill="#fff" d="M729.76 166.09l.33 1.5-.45.34-1.33-.78-.48-2.2zM729.53 157.57l.21.94-.73.64z"/><path fill="#fff" d="M729.64 167.93l-.99.71-.34-1.49z"/><path fill="#fff" d="M728.31 167.15l.34 1.49-.26.44-7.28-4.3.83-.49h-1.66l.83.49-7.28 4.3-.26-.44.33-1.49 7.21-4.27z"/><path fill="#fff" d="M727.83 164.95l.48 2.2-7.2-4.27-7.21 4.27.49-2.2 5.89-3.47.83-.5.83.5zM726.44 148.37l.39.88-1.35-.98zM722.61 139.51l.47 1.09-.47.21h-1.22l-.28-.65-.28.65h-1.22l-.47-.21.47-1.09 1.5-3.47zM722.61 140.81l-.61 1.41-.61-1.41z"/><path fill="#fff" d="M721.39 140.81l.61 1.41-.89 2.06-.89-2.06.61-1.41zM721.94 164.29l-.83.49-.83-.49zM721.11 140.16l.28.65h-.56z"/><path fill="#fff" d="M720.22 142.22l.89 2.06-2.72 6.27-.38.89-.97.09-6.81.65-1.67-1.49 8.33-.79zM720.83 140.81l-.61 1.41-.61-1.41z"/><path fill="#fff" d="M719.61 140.81l.61 1.41-3.33 7.68-8.33.79h-.01l-1.15-1.01-.04-.52 8.41-.79-.38.88 1.34-.98-.96.1 3.37-7.77z"/><path fill="#fff" d="M716.73 148.27l-1.34.98.38-.88zM716.09 157.34l-.21.94-1.49 6.67-1.93 1.14 1.83-8.16-6.28-5.54 2.22-.21 5.14 4.52z"/><path fill="#fff" d="M714.39 164.95l-.49 2.2-1.32.78-.45-.34.33-1.5z"/><path fill="#fff" d="M714.29 157.93l-1.83 8.16-1.32.78-.5-.11 1.84-8.25.72.64-.51-1.58-.21.94-6.34-5.59.34-.39 1.53-.14zM713.9 167.15l-.33 1.49-.99-.71z"/><path fill="#fff" d="M713.57 168.64l.26.44-1.03.61-3.25 1.92.82-3.68.27-1.17.5.11.99.72-.16.7.61-.36zM712.69 157.57l.51 1.58-.72-.64z"/><path fill="#fff" d="M712.58 167.93l-.61.36.16-.7zM712.46 166.09l-.33 1.5-.99-.72zM710.23 152.18l-2.22.21-1.15-1.02.16-.53h.01l1.52-.15h.01z"/><path fill="#fff" d="M708.55 150.69l-1.52.15.37-1.16zM708.01 152.39l-1.53.14.38-1.16z"/><path fill="#fff" d="M707.36 149.16l.04.52-.37 1.16h-.01l-.7.06.54.47-.38 1.16-.34.39-.9-.79-2.83-2.5 3.76-.35z"/><path fill="#fff" d="M707.02 150.84l-.16.53-.54-.47z"/><path fill="#ed1e29" d="M696.43 148.72v4.52L652 127.62v-.45h8.88v.45l35.5 21.1z"/><path fill="#fff" d="M696.43 144.23v4.49h-.05l-35.5-21.1v-.45h6.9v.45l28.6 16.61z"/><path fill="#394ea1" d="M696.43 127.17v17.06h-.05l-28.6-16.61v-.45h28.6z"/><path fill="#fff" d="M696.43 120.44v6.73H643.13v26.07h-7.4V120.44h60.65z"/><path fill="#ed1e29" d="M696.43 102.81v17.63H635.73V153.24h-23.31v-33.25h-57.14v-16.73h56.16V68h24.29v34.81z"/><path fill="#fff" d="M653.19 96.08h43.24v6.73h-60.7V68h7.4v28.08h2.46z"/><path fill="#394ea1" d="M696.43 77.8v18.28h-31.6v-.33l31.55-17.95z"/><path fill="#fff" d="M696.43 69.84v7.96h-.05l-31.55 17.95v.33h-11.64z"/><path fill="#ed1e29" d="M696.43 68v1.84l-43.24 26.24h-7.6v-.33l45.37-27.38V68z"/><path fill="#fff" d="M696.43 153.24h-12.87v-.48l-40.43-22.45v-3.14H652v.45zM690.96 68v.37l-45.37 27.38v.33h-2.46v-3.02h.49l41.42-24.69V68z"/><path fill="#394ea1" d="M685.04 68v.37l-41.42 24.69h-.49V68zM683.56 152.76v.48h-40.43v-22.93z"/><path fill="#fff" d="M635.73 67.19h7.399V68h-7.399z"/><path fill="#fff" d="M611.44 68h-7.4v-.81h31.69V68zM612.42 153.21v.03h-6.9v-26.97h-50.24v-6.28h57.14zM611.44 68v35.26h-56.16v-6.73h48.76V68z"/><path fill="#394ea1" d="M605.52 152.76v.48l-39.8-.02v-.01l38.95-20.65h.85z"/><path fill="#fff" d="M605.52 128.81v3.75h-.85l-38.95 20.65v.01h-4.44v-.91l43.91-23.5z"/><path fill="#ed1e29" d="M605.52 126.27v2.54h-.33l-43.91 23.5v.91l-6-.01v-3.1l44.95-23.38v-.46z"/><path fill="#fff" d="M604.04 93.96v2.57h-8.74v-.33l-40.02-26.47V68h10.93v.37l37.47 25.59z"/><path fill="#394ea1" d="M604.04 68v25.96h-.36l-37.47-25.59V68z"/><path fill="#fff" d="M604.04 67.19V68h-48.76v-.81zM600.23 126.27v.46l-44.95 23.38v-6.94l32.13-16.9z"/><path fill="#ed1e29" d="M595.3 96.2v.33h-8.87v-.33l-31.15-20.55v-5.92z"/><path fill="#394ea1" d="M587.41 126.27l-32.13 16.9v-16.9z"/><path fill="#fff" d="M586.43 96.2v.33h-5.93v-.33l-25.22-16.52v-4.03z"/><path fill="#394ea1" d="M580.5 96.2v.33h-25.22V79.68z"/><path d="M563.49 39.21c0 4.29-1.82 8.18-4.9 11.23h-3.31v-1.12h-3.3c4.029-2.39 6.6-6.03 6.6-10.11 0-7.19-8-13.02-17.88-13.02-9.87 0-17.87 5.83-17.87 13.02 0 4.48 3.09 8.42 7.8 10.77l-4.14.01v.45h-3.67c-3.07-3.05-4.891-6.94-4.891-11.23 0-10.05 10-17.93 22.771-17.93 12.78 0 22.79 7.88 22.79 17.93z" fill="#231f20"/><path d="M555.28 50.44h3.31a20.15 20.15 0 0 1-3.31 2.66v-2.66zM558.58 39.21c0 4.08-2.57 7.72-6.6 10.11h-6.521v1.12h-9.16v-.47l-4.91.01h-.76c-4.71-2.35-7.8-6.29-7.8-10.77 0-7.19 8-13.02 17.87-13.02 9.881 0 17.881 5.83 17.881 13.02zm-4.91 0c0-4.32-6.06-8.12-12.97-8.12-6.9 0-12.96 3.8-12.96 8.12 0 4.33 6.06 8.13 12.96 8.13 6.91 0 12.97-3.8 12.97-8.13zM552.06 126.27V153.21h.301l.79 86.56v4.91h2.13v119.01h-4.91V55.51c1.78-.64 3.43-1.45 4.91-2.41v4.28h-3.761v9.81h.051l.479 52.8.01.78v5.5z" fill="#231f20"/><path fill="#231f20" d="M553.15 239.77h2.13v4.91h-2.13zM553.15 234.86h2.13v4.91h-2.13z"/><path fill="#231f20" d="M555.28 153.21v81.65h-2.13v4.91l-.79-86.56z"/><path fill="#ed1e29" d="M555.28 150.11v3.1h-2.92l-.02-1.58z"/><path fill="#fff" d="M555.28 143.17v6.94l-2.94 1.52-.06-6.95h.12z"/><path fill="#394ea1" d="M555.28 126.27v16.9l-2.88 1.51h-.12l-.17-18.41z"/><path fill="#fff" d="M555.28 119.99v6.28h-3.17l-.05-5.5v-.78z"/><path fill="#ed1e29" d="M552.06 103.26h3.221v16.73h-3.221z"/><path fill="#fff" d="M552.06 96.53h3.221v6.73h-3.221z"/><path fill="#394ea1" d="M555.28 79.68v16.85h-3.22V77.8h.34z"/><path fill="#fff" d="M555.28 75.65v4.03l-2.88-1.88h-.34v-4.04h.34z"/><path fill="#ed1e29" d="M555.28 69.73v5.92l-2.88-1.89h-.34V68h.61z"/><path fill="#fff" d="M555.28 68v1.73L552.67 68z"/><path fill="#231f20" d="M555.28 67.19V68H552.06v-.81zM552.06 67.19h-.49l-.05-4.87v-.04h3.76v4.91zM551.52 57.38h3.761v4.9h-3.761zM555.28 50.44v2.66c-1.48.96-3.13 1.77-4.91 2.41v-5.07h4.91z"/><path d="M555.28 49.32v1.12h-4.91v-.27c.56-.26 1.09-.54 1.6-.85h3.31z" fill="#231f20"/><path fill="#ed1e29" d="M552.34 151.63l.02 1.58h-.3v-1.43z"/><path fill="#fff" d="M552.28 144.68l.06 6.95-.28.15v-7.1z"/><path fill="#394ea1" d="M552.11 126.27l.17 18.41h-.22v-18.41z"/><path fill="#fff" d="M552.06 120.77l.05 5.5h-.05z"/><path fill="#231f20" d="M552.06 119.99v.78l-.01-.78z"/><path fill="#231f20" d="M552.06 103.26v16.73h-.01l-.48-52.8h.49v29.34zM550.37 49.32h1.6c-.51.31-1.04.59-1.6.85v-.85zM551.52 62.32l.05 4.87h-.05zM550.37 55.51v308.18h-4.91V56.77c1.72-.28 3.37-.7 4.91-1.26z"/><path d="M550.37 50.44v5.07c-1.54.56-3.19.98-4.91 1.26v-5c1.53-.3 2.97-.75 4.3-1.33h.61z" fill="#231f20"/><path d="M550.37 50.17v.27h-.61c.21-.08.41-.17.61-.27z" fill="#231f20"/><path d="M550.37 49.32v.85c-.2.1-.4.19-.61.27h-4.3v-1.12h4.91z" fill="#231f20"/><path d="M540.7 31.09c6.91 0 12.97 3.8 12.97 8.12 0 4.33-6.06 8.13-12.97 8.13-6.9 0-12.96-3.8-12.96-8.13 0-4.32 6.06-8.12 12.96-8.12z" fill="#c8c8c8"/><path d="M545.46 50.44h4.3c-1.33.58-2.77 1.03-4.3 1.33v-1.33z" fill="#231f20"/><path d="M545.46 56.77v306.92h-8.64l-.51-306.86c1.421.21 2.891.32 4.391.32 1.639 0 3.239-.13 4.759-.38z" fill="#c8c8c8"/><path d="M545.46 51.77v5c-1.52.25-3.12.38-4.76.38-1.5 0-2.97-.11-4.391-.32v-4.99c1.4.27 2.87.4 4.391.4 1.65 0 3.25-.16 4.76-.47z" fill="#231f20"/><path d="M545.46 50.44v1.33c-1.51.31-3.11.47-4.76.47-1.521 0-2.99-.13-4.391-.4l-.01-1.4h9.161zM536.31 56.83l.511 306.86h-4.9L531.4 55.64c1.55.53 3.2.93 4.91 1.19z" fill="#231f20"/><path d="M536.31 51.84v4.99c-1.71-.26-3.359-.66-4.909-1.19l-.011-5.2h.261c1.429.62 2.999 1.1 4.659 1.4z" fill="#231f20"/><path d="M536.3 50.44l.01 1.4c-1.659-.3-3.229-.78-4.659-1.4h4.649zM536.3 49.97v.47h-4.649c-.091-.03-.17-.07-.261-.1v-.36l4.91-.01zM531.4 55.64l.52 308.05-4.91.01-.52-310.37c1.49.93 3.14 1.71 4.91 2.31z" fill="#231f20"/><path d="M531.65 50.44h-.261v-.1c.091.03.171.07.261.1zM531.39 50.44l.011 5.2a23.54 23.54 0 0 1-4.91-2.31v-2.89h4.899z" fill="#231f20"/><path d="M531.39 50.34v.1h-4.899v-.45l4.14-.01c.249.12.509.24.759.36z" fill="#231f20"/><path d="M531.39 49.98v.36c-.25-.12-.51-.24-.76-.36h.76zM526.49 50.44v2.89a20.17 20.17 0 0 1-3.67-2.89h3.67z" fill="#231f20"/><path d="M515.12 283.72c-.521.93-1.021 1.84-1.49 2.73-3.14-2.27-6.6-7.64-11.09-8.32-16.62-2.54-22.7 22.56-39.14 22.36-8.931-.1-17.7-7.48-25.58-12.6 7.64 4.16 16.739 6.86 24.189 11.21 17.86-.32 18.86-17.47 32.141-22.37 10.89-1.57 13.66 4.99 20.97 6.99z"/><path d="M513.72 286.52c-.13.15-.25.3-.37.46.091-.18.181-.35.28-.53.03.03.06.05.09.07z"/><path d="M513.63 286.45c-.1.18-.189.35-.28.53-2.819 3.43-5.17 7.33-8.02 10.72 2.96 9.06-3.47 15.68-1.39 27.95-6.7.3-5.301 8.68-13.98 6.99-5.43 12.7 7.34 21.61-2.79 25.16v-6.99c-17.97-9.94-43.59 10.28-33.43 24.45.21.8.7 1.32 1.37 1.65.01 0 .01.01.01.01 1.09 1.14 2.45 2.23 4.09 3.24-4.17 6.08-8.7 11.8-8.38 22.36-22.58 21.22-27.6 59.99-60.1 71.28-1.93-1.8-1.38-6.069-1.4-9.78-5.69-4.619-10.09.261-12.58 0-.68-4.409 2.52-4.93 1.4-9.779-7.24-1.721-3.97 4.899-5.59 5.59-3.19.39-5.26-.34-5.59-2.8 17.01-12.62 36.2-54.11 9.78-69.88-13.47 1.36-17.49-6.74-22.36-13.98-12.93.18-20.47-6.55-19.57-13.97 1.5-12.34 25.01-11.74 30.75-18.17 4.72-12.52.75-33.73 13.98-37.74-1.51-2.53-2.2-4.1-2.81-5.58l.01-.01c-.27-.87-.46-1.3-.61-1.41-.41-.96-.91-1.99-1.68-3.31v-.01c.04-.38.05-.77.05-1.16 2.78-1.22 10.58-2.31 5.04-6.69-.55 1.99-1.68 2.36 0 4.19-8.13-6.06-9.29-22.24-4.2-23.76-1.84.36-3.05 1.07-3.81 2.04l-2.58-1.86c.39 0 .68-.47.8-1.58-1.4-1.52-6-6.86-2.79-8.38.72 1.76 3.4 8.49 5.59 4.19-2.44-1.26-5.38-3.13-2.8-5.59h-5.42v-.5c2.38-1.12 3.31-3.7 6.82-3.69 1.64 2.08 3.51 3.94 5.59 5.59-10.08 1.78-.81 4.5 1.4-1.4-2.87-.82-5.82-2.69-2.8-5.59-.19-.04-.37-.07-.55-.09l.55-3.29c.49.75.96 1.41 1.4 1.98 5.92-2.99 9.53 3.06 15.37 4.2v8.38c3.08 2.05 6.01 4.25 11.19 4.19-.22-7.7-.37-15.47-5.59-18.17 6.12-6.36-.15-12.73-2.8-18.17 4.43 2.1 9.61 3.44 8.39 11.19 2.45.8 8.21-1.69 8.38 1.39-2.72-.66-7.15 3.77-4.19 4.2l.29.22c-.62.97-.47 2.05 1.11 2.57.29-1.57 1.55-2.17 2.79-2.79 4 8.87.7 25.06 6.99 27.95l.08 1.59c-.95.05-1.94.41-2.87 1.21-1.16 3.95 1.96 3.62 1.39 6.98 4.56 2.99 9.3.33 12.581 1.4 1.31.43 2.659 1.05 4.05 1.81 1.25.84 2.55 1.62 3.91 2.36 7.88 5.12 16.649 12.5 25.58 12.6 16.439.2 22.52-24.9 39.14-22.36 4.489.679 7.949 6.049 11.089 8.319z" fill="#fff5b4"/><path d="M505.33 297.7c2.85-3.39 5.2-7.29 8.02-10.72-5.909 11.22-8.25 20.08-8.02 38.67-6.41 1.05-6.3 8.61-13.97 8.39-4.53 13.87 6.79 19.27-2.801 26.55-3.51-1.14-1.939-7.37-4.189-9.78-17.17-3.17-35.61 5.3-30.75 23.76.02.25.05.48.12.69-10.16-14.17 15.46-34.39 33.43-24.45v6.99c10.13-3.55-2.64-12.46 2.79-25.16 8.68 1.69 7.28-6.69 13.98-6.99-2.08-12.27 4.35-18.89 1.39-27.95zM455.12 376.92c1.34.64 3.38.57 5.49.45-1.721 9.46-9.49 12.87-8.391 25.15-23.18 22.01-27.9 62.48-62.89 72.68-3.07-5.86.09-9.33-5.59-12.58-4.78-1.05-1.78 5.68-6.99 4.189.15-1.119.05-1.989-.24-2.68l.24-.11c2.49.261 6.89-4.619 12.58 0 .02 3.711-.53 7.98 1.4 9.78 32.5-11.29 37.52-50.06 60.1-71.28-.32-10.56 4.21-16.28 8.38-22.36-1.639-1.009-2.999-2.099-4.089-3.239zM455.11 376.91c-.67-.33-1.16-.85-1.37-1.65.4.56.86 1.11 1.37 1.65zM433.91 285.53c1.27.68 2.58 1.49 3.91 2.36a48.83 48.83 0 0 1-3.91-2.36zM433.91 285.53c-1.391-.76-2.74-1.38-4.05-1.81-3.28-1.07-8.021 1.59-12.581-1.4.57-3.36-2.55-3.03-1.39-6.98.93-.8 1.92-1.16 2.87-1.21 3.94-.22 7.43 4.92 5.51 6.8h-4.19c-.39-4.08.34-4.81 2.79-2.8-1.21-4.06-2.09-1.57-5.59-1.4.24 6.43 8.53 6.96 12.581 5.59 1.25 1.17 2.61 2.23 4.05 3.21zM413.09 243.19c3.77 10.73.81 19.62 5.59 29.35-6.29-2.89-2.99-19.08-6.99-27.95-1.24.62-2.5 1.22-2.79 2.79-1.58-.52-1.73-1.6-1.11-2.57.88-1.34 3.24-2.48 5.3-1.62z"/><path d="M393.52 226.42c10.69.02 8.78 12.65 19.57 12.58-.13 3.59-5.46 2-5.59 5.59-2.96-.43 1.47-4.86 4.19-4.2-.17-3.08-5.93-.59-8.38-1.39 1.22-7.75-3.96-9.09-8.39-11.19 2.65 5.44 8.92 11.81 2.8 18.17 5.22 2.7 5.37 10.47 5.59 18.17-5.18.06-8.11-2.14-11.19-4.19v-8.38c-5.84-1.14-9.45-7.19-15.37-4.2-.44-.57-.91-1.23-1.4-1.98-4.23-6.52-9.28-19.12-1.4-24.57-3.32-9.53-13.57-10.89-11.18-20.97 2.23 11.5 9.14 11.05 12.58 22.37-8.92 4.62-1.3 18.14 1.4 23.75 6.56-3.35 10.01 3.64 16.77 4.2v8.38c.14 3.59 5.21 2.25 6.99 4.2 2.73-3.74.86-14.78-4.19-15.38 6.29-8.73-1.11-12.84-2.8-20.96zM393.52 208.25c7.45-.46 11.28 8.57 8.39 13.98-5.85-1.61-9.47-5.45-8.39-13.98zm8.39 12.58c-.71-5.35-1.27-10.85-6.99-11.18-.81 6.86 1.81 10.3 6.99 11.18z"/><path d="M394.92 209.65c5.72.33 6.28 5.83 6.99 11.18-5.18-.88-7.8-4.32-6.99-11.18z" fill="#fff5b4"/><path d="M389.33 239v5.59h-5.59c.32-2.02 4.17-.49 4.19-2.8-2.09-4.62-3.42 2.91-6.99 1.4-.04-4.24 4.91-3.48 8.39-4.19zM379.55 285.12c5.54 4.38-2.26 5.47-5.04 6.69.03-9.19-6.52-19.67-2.97-24.22.76-.97 1.97-1.68 3.81-2.04-5.09 1.52-3.93 17.7 4.2 23.76-1.68-1.83-.55-2.2 0-4.19zM378.15 454.24c1.12 4.85-2.08 5.37-1.4 9.779l-.24.11c-1.78-4.229-10.75-1.28-10.94-7.1 15.9-12.54 36.18-51.88 11.18-68.48-13.2 1.09-17.9-6.33-22.36-13.98-14.5.91-25.13-10.29-18.17-22.36 10.83-4.76 17.72-8.27 27.95-11.18 4.84-11.93.69-32.86 12.58-37.74-1.62-2.07-1.62-3.52-.01-5.58.61 1.48 1.3 3.05 2.81 5.58-13.23 4.01-9.26 25.22-13.98 37.74-5.74 6.43-29.25 5.83-30.75 18.17-.9 7.42 6.64 14.15 19.57 13.97 4.87 7.24 8.89 15.34 22.36 13.98 26.42 15.77 7.23 57.26-9.78 69.88.33 2.46 2.4 3.189 5.59 2.8 1.62-.689-1.65-7.309 5.59-5.589z"/><path d="M376.75 297.7l-.01.01c-.2-.47-.39-.93-.6-1.42.15.11.34.54.61 1.41zM376.14 296.29c-.66-.55-.52 4.84-3.58 2.81 1.2-1.89 1.76-3.96 1.9-6.12.77 1.32 1.27 2.35 1.68 3.31z"/><path d="M347.4 212.46c0 .02 0 .04-.01.05-.46-.12-7.63-10.94-6.98-14.04-3.87 5.98 3.02 11.36 4.19 16.77-8.68-9.02-15.01-20.4-22.36-30.75 1.62-3.47 3.83-4.98 0-6.99 5.77 1.25 4.15-.27 5.59 2.79.82-2.9 2.94-4.51 4.2-6.98-4.16 1.37-4.93 3.98-2.8-1.4-3.2 2.85-7.7 4.41-9.78 8.38-1.93-4.12-6.46-5.65-8.39-9.78.16-1.69 1.05-3.29 2.28-4.8 2.29-2.85 5.73-5.41 7.6-7.8l1.77.03c-.24.33-.4.78-.47 1.39 2.79 2.91 4.9-1.03 6.99-2.8 5.88 3.44 13.07 5.57 18.17 9.79-3.05-.26-4.45 1.14-4.19 4.19 3.65-.39 6.01.51 5.59 4.19 4.46 1.2 4.32-2.19 6.99-2.79 2.31 5.53 5.59 10.11 8.31 15.24.01.05.03.1.04.15-6.17 3.28 1.33 4.92 1.43 9.77-3.33-1.35-6.16-7.41-9.78-4.2v5.6c2.03.76 7.22-1.64 6.98 1.39-2.39 10.08 7.86 11.44 11.18 20.97-7.88 5.45-2.83 18.05 1.4 24.57l-.55 3.29c-6.49-1.06-9.01 1.86-12.03 4.28-1.42-6.03-2.71-12.19-5.59-16.77.48.13.87.3 1.2.44 1.06.49 1.6.84 3-.44v-12.58c-.85-2.41-6.63.11-6.99-2.79 4.97.31 8.37-.95 9.78-4.2-5.94-.91-1.02-4-5.59-5.59.08 2.41-1.08 3.59-2.79 4.2.35-2.42-2.64-8.28-4.2-4.2.01-.02.03-.04.04-.05-.29.42-1.98 2.75-3.79 4.3-.14 0-.28-.02-.44-.05.01.14.02.27.05.38-1.01.79-2.04 1.29-2.85 1.01-.37-.12 2.63-3.46 2.79-4.12.02.02.03 0 .01-.05z" fill="#fff5b4"/><path d="M374.8 248.69c.18.02.36.05.55.09-3.02 2.9-.07 4.77 2.8 5.59-2.21 5.9-11.48 3.18-1.4 1.4a33.979 33.979 0 0 1-5.59-5.59c-3.51-.01-4.44 2.57-6.82 3.69-.78.37-1.72.59-2.96.5-.12-13.39-8.98-18.04-11.18-29.35 6.89-.37 5.53 7.51 8.38 11.18l-.2.44c-.33-.14-.72-.31-1.2-.44 2.88 4.58 4.17 10.74 5.59 16.77 3.02-2.42 5.54-5.34 12.03-4.28z" fill="#fff"/><path d="M374.51 291.81c0 .39-.01.78-.05 1.16-.16-.28-.33-.56-.51-.86.15-.1.34-.2.56-.3zM372.56 259.96c-2.19 4.3-4.87-2.43-5.59-4.19-3.21 1.52 1.39 6.86 2.79 8.38-.12 1.11-.41 1.58-.8 1.58-1.6 0-4.87-8.08-4.79-11.36h5.59c-2.58 2.46.36 4.33 2.8 5.59zM366.97 199.86h-4.2c.24-3.03-4.95-.63-6.98-1.39v-5.6c3.62-3.21 6.45 2.85 9.78 4.2-.1-4.85-7.6-6.49-1.43-9.77 1.1 3.77 1.92 7.73 2.83 12.56zM364.1 187.15c.02.04.05.09.07.13-.01.01-.02.01-.03.02-.01-.05-.03-.1-.04-.15zM355.79 169.11c4.32 7.14 6.65 12.38 8.31 18.04-2.72-5.13-6-9.71-8.31-15.24-2.67.6-2.53 3.99-6.99 2.79.42-3.68-1.94-4.58-5.59-4.19-.26-3.05 1.14-4.45 4.19-4.19-5.1-4.22-12.29-6.35-18.17-9.79-2.09 1.77-4.2 5.71-6.99 2.8.07-.61.23-1.06.47-1.39 1.28-1.79 4.79-.22 7.92-2.8 4.63 5.62 15.81 4.69 18.17 12.58h-4.2c1.71 2.02 5.59 1.87 5.6 5.59 3.49.23 4.37-2.15 5.59-4.2z"/><path d="M351.63 210.99c-.01.01-.03.03-.04.05 1.56-4.08 4.55 1.78 4.2 4.2 1.71-.61 2.87-1.79 2.79-4.2 4.57 1.59-.35 4.68 5.59 5.59-1.41 3.25-4.81 4.51-9.78 4.2.36 2.9 6.14.38 6.99 2.79v12.58c-1.4 1.28-1.94.93-3 .44l.2-.44c3.15-1.04.55-7.84 1.4-11.18-1.28-1.56-2.6-.44-6.99-1.4.51-5.01 3.75-5.12 1.4-9.78-3.77-1.11-3.64 1.69-6.55 1.45 1.81-1.55 3.5-3.88 3.79-4.3z" fill="#fff"/><path d="M342.14 455.36c.26.06.53.12.8.17.09.02.18.06.27.1-1.73 2.01-4.81 2.65-8.39 2.8 1.27-4.319 3.48-7.699 5.59-11.18-4.52-1.73-1.07 4.52-5.59 2.79-9.32-10.22-12.64 10.66-25.16 9.79-5.01-7.33.37-17.54-2.79-25.16-1.24 1.57-3.29 1.91-5.43 1.36 3.1-.761 3.64-6.07 6.83-2.761 2.87 8.4-1.21 15.82 1.39 25.16 11.54-1.8 16.75-15.6 23.76-13.979.5-1.99 3.63-6.771 2.8-13.97 3.37.569 3.04-2.551 6.99-1.4 1.34 7.4-2.63 9.479-6.99 11.18.41 4.44 7.39 2.8 8.38 0-2.09-4.62-3.41 2.91-6.98 1.4 2.09-1.63 3.41-4.04 6.98-4.19 3.07 2.9-1.22 4.511 1.4 6.98-3.09 1.109-3.5 4.89-5.59 6.99 3.91-.9 6.52 1.54 9.8 2.779 0 .011-.01.011-.01.021.01 0 .02-.01.03-.01 1.94.739 4.12 1.06 6.95.01-.97 8.29-7.21 4.149-10.39 8.42 1.1-2.57 3.84-4.601 8.99-5.63-3.32.029-8.06-.511-12.84-1.5-.28-.1-.54-.16-.8-.17zm-.02 0c-1.52-.33-3.03-.7-4.5-1.12-.39 5.12 1.47.87 4.5 1.12zm-4.5-17.89c4.42 2.061 6.72-8.04 1.39-6.989-1.17 1.619-1.84 3.739-1.39 6.989z" fill="#fff5b4"/><path d="M342.94 455.53c4.78.989 9.52 1.529 12.84 1.5-5.15 1.029-7.89 3.06-8.99 5.63-.3.38-.56.83-.79 1.359.11.12.21.23.3.351-.87 5.35 3.67 12.35 8.09 17.82-3.94 7.239-13.72 8.649-12.58 20.97-19.68 11.06-17.86 43.63-43.33 48.91-2.27 7.569-3.51 15.279-1.4 23.76 5.93-.33 11.08.11 12.58 4.2-.8 2.45 1.69 8.21-1.39 8.38-2-.54-2.36-1.67-4.2 0 .81-.84 3.27-6.63 0-6.99-2.75.97.35 7.8-2.79 8.39-4.7-3.689-6.87-9.899-15.38-9.779-2.7 1.479-1.95 6.43-4.19 8.38-19.34 8.41-40.28 15.14-43.33 37.74-.61 4.52 2.01 9.229 1.4 13.979-.89 6.89-7.95 9.93-9.78 13.97-2.43 5.351-.69 12.181-2.8 18.17a64.757 64.757 0 0 1-3.99 9.08c-1.28 1.79-2.46 3.53-3.22 5.311-4.51 6.64-9.91 11.55-15.15 13.57.03 3.289-2.41 4.109-1.4 8.38-13.91 7.88-23.1 34.18-44.73 25.159 1.41 4.2-3.11 2.48-5.58 2.801 1.15-3.95-1.97-3.63-1.4-6.99-5.52 3-12.56 3.39-16.77-1.4 2.32-2.779-.13-1.779 0-5.59-6.43-4.979-13.94-4.34-22.37-1.399-.08-5.12-2.32-13.73-12.58-12.58-2.78.38-1.4 4.909-3.93 5.54-.08.02-.17.04-.26.05-9.81-2.53-17.22.05-23.76-4.19 2.11-5.35 6.02-8.88 9.78-12.58-6.88-.359-5.94 7.101-12.58 6.99 2.2-3.05 1.41-4.12-.21-4.56-1.74-.48-4.44-.261-5.38-1.03.81-2.46-1.69-8.21 1.4-8.39 7.54-.381 16.3.46 18.17-5.591-3.7-.02-8.23.78-8.39-2.79 1.08-4.989 12.07-.05 9.79-8.39-4.98.66-9.09 2.19-12.54 4.38l-1.08-1.609s0-.011.01-.021c.02-.03.06-.11.11-.229.68-1.33 4.14-7.721 9.31-12.301 3.38.71 6.18 9.15 8.38 2.79-3.93-.87-1.56-1.88-4.19-5.59 2.21 1.61 7.48 7.311 11.18 2.8-5.25-1.62-8.54-.77-12.58-8.39 2.69-6.18 11.61-13.52 13.98-15.37l1.33-.16c.28 2.261.93 4.71 1.54 6.28-.03.28-.06.57-.08.86.16 0 .3-.03.42-.08.76 1.55 1.35 1.37.98-2.71-.27.96-.1 2.37-.98 2.71-.11-.221-.22-.48-.34-.78 2.38-21.62 26.31-30 36.26-48.05 4.22-1.65 8.33-3.41 12.58-1.4 8.33-5.12 14.6-12.3 23.05-17.3 3.85-2.27 8.14-4.09 13.29-5.06.28-5.311 5.88-5.311 5.59-11.19 3.48.22 4.33-2.19 6.99-2.79 4.08-13 19.71-14.06 27.95-20.96 16.56-13.88 15.82-34.11 26.56-57.31 16.46-1.15 21.18-21.091 20.96-33.54-.02-.92.01-1.811.07-2.67.61-3.25 1.34-6.4 2.41-9.271 2.8-5.62 7.65-9.25 12.9-11.82 3.07-1.51 5.08-3.65 6.99-5.59-5.75 7.54-.23 14.771 5.16 16.561.14.069.28.14.43.21a.89.89 0 0 0 .16-.04c2.14.55 4.19.21 5.43-1.36 3.16 7.62-2.22 17.83 2.79 25.16 12.52.87 15.84-20.01 25.16-9.79 4.52 1.729 1.07-4.521 5.59-2.79-2.11 3.48-4.32 6.86-5.59 11.18 3.58-.149 6.66-.79 8.39-2.8a1.412 1.412 0 0 0-.27-.101z" fill="#fff5b4"/><path d="M357.18 443.06c-1.76 4.28-2.12 9.971-6.95 11.171-.01 0-.02-.011-.02-.011 2.15-2.96 4.01-6.22 5.58-9.77-1.18 1.31-8.91 2.99-9.79 0 4.81.62 7.83-.55 11.18-1.39z"/><path d="M352.99 216.63c1.46 1.34-4.36-1.51-1.4 6.99-2.5-.17-2.95 1.71-5.59 1.4-8.95-21.33-23.26-37.31-36.34-54.51-.17-2.99 2.32-3.31 3.54-4.91l.14.11c-1.23 1.51-2.12 3.11-2.28 4.8 1.93 4.13 6.46 5.66 8.39 9.78 2.08-3.97 6.58-5.53 9.78-8.38-2.13 5.38-1.36 2.77 2.8 1.4-1.26 2.47-3.38 4.08-4.2 6.98-1.44-3.06.18-1.54-5.59-2.79 3.83 2.01 1.62 3.52 0 6.99 7.35 10.35 13.68 21.73 22.36 30.75-1.17-5.41-8.06-10.79-4.19-16.77-.65 3.1 6.52 13.92 6.98 14.04-.16.66-3.16 4-2.79 4.12.81.28 1.84-.22 2.85-1.01.6 4.06 5.17-3.75 5.54 1.01zm-4.19 6.99c2.99-2.86.72-6.65-2.8-6.99-.2 3.47-.26 6.79 2.8 6.99z" fill="#fff"/><path d="M355.79 444.45c-1.57 3.55-3.43 6.81-5.58 9.77-3.28-1.239-5.89-3.68-9.8-2.779 2.09-2.101 2.5-5.881 5.59-6.99.88 2.989 8.61 1.309 9.79-.001z" fill="#fff5b4"/><path d="M346.3 464.37c5.07 5.91 2 12.25 9.49 15.03-.58 11.54-14.49 9.739-12.58 23.76-19.9 10.84-17.2 44.3-43.33 48.91-1.77 7.02-4.03 14.79-1.4 22.37 6.61-1.021 9.19 1.989 12.58 4.189v9.78c-10.82 8.17-14.3-5.641-23.76-6.99-4.16.03-1.79 6.6-4.19 8.39-18.16 6.66-40.05 14.07-43.33 34.94-1.29 8.19 2.98 16.19-1.4 23.76-.96 1.67-5.9 3.24-6.99 5.59-2.54 5.48-.94 12.9-2.79 18.17-1.17 3.341-3.4 6.271-5.39 9.08 1.52-2.84 2.87-5.89 3.99-9.08 2.11-5.989.37-12.819 2.8-18.17 1.83-4.04 8.89-7.08 9.78-13.97.61-4.75-2.01-9.46-1.4-13.979 3.05-22.601 23.99-29.33 43.33-37.74 2.24-1.95 1.49-6.9 4.19-8.38 8.51-.12 10.68 6.09 15.38 9.779 3.14-.59.04-7.42 2.79-8.39 3.27.36.81 6.15 0 6.99 1.84-1.67 2.2-.54 4.2 0 3.08-.17.59-5.93 1.39-8.38-1.5-4.09-6.65-4.53-12.58-4.2-2.11-8.48-.87-16.19 1.4-23.76 25.47-5.28 23.65-37.851 43.33-48.91-1.14-12.32 8.64-13.73 12.58-20.97-4.42-5.469-8.96-12.469-8.09-17.819z"/><path d="M346 216.63c3.52.34 5.79 4.13 2.8 6.99-3.06-.2-3-3.52-2.8-6.99zM347.4 215.24c.16.03.3.05.44.05l-.39.33c-.03-.11-.04-.24-.05-.38zM347.4 212.46c.02.05.01.07-.01.05.01-.01.01-.03.01-.05z" fill="#fff"/><path d="M346.79 462.66c-.24.55-.4 1.12-.49 1.71-.09-.12-.19-.23-.3-.351.23-.529.49-.979.79-1.359z"/><path d="M339.01 430.48c5.33-1.051 3.03 9.05-1.39 6.989-.45-3.249.22-5.369 1.39-6.989zM320.84 152.34c2.08 1.78 1.61 3.62.1 5.57-1.87 2.39-5.31 4.95-7.6 7.8l-.14-.11c.4-.52.66-1.17.66-2.08-3.12-13.19-15.07-17.54-18.17-30.75h12.58v5.59c-1.13-.73-2.27-1.45-4.2-1.39 3.35 7.58 12.44 16.14 12.58 22.36 4.24.51 2.9-4.55 4.19-6.99zm-5.59 8.39c-1.85-10.26-8.85-15.37-12.58-23.76 1.09-.31 1.63-1.17 1.4-2.8h-6.99c4.71 10.21 12.75 17.07 18.17 26.56z" fill="#fff"/><path d="M302.67 136.97c3.73 8.39 10.73 13.5 12.58 23.76-5.42-9.49-13.46-16.35-18.17-26.56h6.99c.23 1.63-.31 2.49-1.4 2.8z" fill="#fff5b4"/><path d="M306.87 419.3c-12.99-.84-15.6 11.71-6.02 16.561-5.39-1.79-10.91-9.021-5.16-16.561-1.91 1.94-3.92 4.08-6.99 5.59-5.25 2.57-10.1 6.2-12.9 11.82 2.36-6.4 6.38-11.44 14.3-13.22-1.15-5.64 9.08-6.5 16.77-4.19z"/><path d="M301.44 436.03c-.05.02-.1.029-.16.04-.15-.07-.29-.141-.43-.21.19.07.39.12.59.17zM275.8 436.71c-1.07 2.87-1.8 6.021-2.41 9.271.24-3.591 1.1-6.651 2.41-9.271z"/><path d="M273.39 445.98c-.06.859-.09 1.75-.07 2.67.22 12.449-4.5 32.39-20.96 33.54-10.74 23.199-10 43.43-26.56 57.31-8.24 6.9-23.87 7.96-27.95 20.96-2.66.6-3.51 3.01-6.99 2.79.29 5.88-5.31 5.88-5.59 11.19-5.15.97-9.44 2.79-13.29 5.06v-.01c6.98-4.25 13.41-9.061 17.48-16.24 2.67-.59 3.51-3.01 6.99-2.79 3.97-12.37 18.32-14.32 27.96-22.36 16.8-14.02 16.5-32.729 26.55-57.31 19.52-1.43 19.53-19.28 22.43-34.81zM223.01 689.04c5.04 12.52-23.25 3.77-18.17 20.97-17.3 9.26-21.19 31.92-51.71 27.95-1.43-1.83-1.38-5.15-2.8-6.99-3.29 1.5-13.12 8.67-13.98 0-1.42.91-1.44 3.221-4.19 2.8-2.44-1.239 1.04-6.119-1.4-2.8-4.91-2.38 3.26-3.06 4.2-4.189-1.41-3.721-5.65-4.61-8.39-6.99-6.45-.86-8.04 3.14-13.98 2.8-3.54-3.77-.27-12.189-9.78-12.58-1.81 2.141-4.12 3.471-6.71 4.221l-.02-.08c2.53-.631 1.15-5.16 3.93-5.54 10.26-1.15 12.5 7.46 12.58 12.58 8.43-2.94 15.94-3.58 22.37 1.399-.13 3.811 2.32 2.811 0 5.59 4.21 4.79 11.25 4.4 16.77 1.4-.57 3.36 2.55 3.04 1.4 6.99 2.47-.32 6.99 1.399 5.58-2.801 21.63 9.021 30.82-17.279 44.73-25.159-1.01-4.271 1.43-5.091 1.4-8.38 5.24-2.021 10.64-6.931 15.15-13.57-1.08 2.51-1.31 5.09.22 7.97 6.05-2.301-3-3.031 2.8-5.591z"/><path d="M223.21 681.35a58.606 58.606 0 0 1-3.22 5.311c.76-1.781 1.94-3.521 3.22-5.311zM171.98 579.49v.01c-8.45 5-14.72 12.18-23.05 17.3-4.25-2.01-8.36-.25-12.58 1.4-9.95 18.05-33.88 26.43-36.26 48.05-.61-1.57-1.26-4.02-1.54-6.28-.19-1.54-.21-3.01.07-4.04 13.96-13.1 26.55-23.1 34.94-39.13 5.53.51 10.15-4.53 13.97-1.399 6.92-6.541 16.09-10.821 24.45-15.911zM130.76 754.73c-.36.939-.83 1.819-1.39 2.64.2-2.94-1.2-4.29-4.2-4.03.4-1.229.95-1.7 1.57-1.729 1.52-.071 3.39 2.569 4.02 3.119z"/><path d="M125.17 753.34c3-.26 4.4 1.09 4.2 4.03a10.782 10.782 0 0 1-.49.68c-7.57 7.5-24.95 1.58-20.49 10.65-3.18-1.9-5.25 3.609-5.58.01 5.99-9.56 12.37-17.37 11.18-30.75 7.93-.47 7.4 7.51 12.58 9.79-.39 2.87-5.21 1.31-5.59 4.19 2.17-.101 4.36-.171 5.7-1.101l.06.771c-.62.03-1.17.5-1.57 1.73z" fill="#fff5b4"/><path d="M129.37 757.37c0 .05-.01.11-.01.16-.15.17-.3.33-.45.479.16-.199.31-.419.46-.639zM127.97 747.75c.08 1.54-.43 2.49-1.29 3.09-1.34.93-3.53 1-5.7 1.101.38-2.881 5.2-1.32 5.59-4.19-5.18-2.28-4.65-10.26-12.58-9.79 1.19 13.38-5.19 21.19-11.18 30.75.33 3.6 2.4-1.91 5.58-.01.01 0 .01.01.01.01l.19.2c-1.83 1.7-4.68 2.84-7.18 1.2 5.24-11.46 12.78-18.46 11.18-33.54 9.44-.591 10.09 7.609 15.38 11.179z"/><path d="M128.88 758.05c-4.14 5.391-12.22 7.91-19.08 6.47 1.36.65.55 2.78-1.21 4.391l-.19-.2s0-.01-.01-.01c-4.46-9.071 12.92-3.151 20.49-10.651zM101.41 644.32c.37 4.08-.22 4.26-.98 2.71.88-.34.71-1.75.98-2.71zM100.43 647.03c-.12.05-.26.08-.42.08.02-.29.05-.58.08-.86.12.3.23.56.34.78zM93.02 640.13h4.2c-2.37 1.851-11.29 9.19-13.98 15.37 4.04 7.62 7.33 6.77 12.58 8.39-3.7 4.511-8.97-1.189-11.18-2.8 2.63 3.71.26 4.72 4.19 5.59-2.2 6.36-5-2.08-8.38-2.79-5.17 4.58-8.63 10.971-9.31 12.301.28-.58 1.03-2.21 2.32-5.32C77.5 661.14 87.17 647 93.02 640.13zM96.08 714.15l.02.08c-7.9 2.289-18.46-.841-25.44-2.82-1.2-4.46 2.2-4.33 2.8-6.99-1.25 1.08-3.16 1.5-5.59 1.4-.18-2.511 1.71-2.95 1.39-5.59-.09-.021-.17-.03-.25-.03l.04-.34c1.62.439 2.41 1.51.21 4.56 6.64.11 5.7-7.35 12.58-6.99-3.76 3.7-7.67 7.23-9.78 12.58 6.54 4.24 13.95 1.66 23.76 4.19.09-.01.18-.03.26-.05z"/><path d="M84.64 673.67c2.28 8.34-8.71 3.4-9.79 8.39-2.19-7.319 9.36-.899 8.39-6.989-3.44.819-13.23 2.5-8.39 6.989.16 3.57 4.69 2.771 8.39 2.79-1.87 6.051-10.63 5.21-18.17 5.591-3.09.18-.59 5.93-1.4 8.39.94.77 3.64.55 5.38 1.03l-.04.34c-3.1-.38-2.88 2.55-6.73 1.42.28-4.37-.95-10.26 1.39-12.58 7 .94 10.82-1.29 16.78-1.39-4.72-3.54-10.97 1.97-16.78-1.4 2.3-3.25 5.04-6.05 8.43-8.2 3.45-2.191 7.56-3.721 12.54-4.381zm-11.18 12.58c.39-3.19-.34-5.25-2.8-5.59-.15 2.64-4.62.97-4.19 4.189 1.62 1.171 3.75 1.851 6.99 1.401z"/><path d="M83.24 675.07c.97 6.09-10.58-.33-8.39 6.989-4.84-4.489 4.95-6.169 8.39-6.989zM70.66 680.66c2.46.34 3.19 2.399 2.8 5.59-3.24.45-5.37-.23-6.99-1.4-.43-3.22 4.04-1.55 4.19-4.19z" fill="#fff"/><path d="M71.03 676.42c.02-.04.06-.12.11-.229-.05.119-.09.199-.11.229z"/><g fill="none" stroke="#231f20"><path stroke-width="5" d="M606.6 153.24h-1.08l-39.8-.02h-4.44l-6-.01h-3.86M552.67 68h143.76v85.24H606.6M552.06 65.68v88.87"/><path stroke-width="5" d="M696.87 102.81h-61.14V67.02M611.44 67.47v35.79H551.91M551.91 119.99h60.51v33.22M635.73 152.31v-31.87h60.65"/><path stroke-width="5" d="M604.04 67.02v29.51H551.91M696.87 96.08h-53.74V67.02M551.42 126.27h54.1v26.49M643.13 152.76v-25.59h53.25"/><path stroke-width="3" d="M566.21 68.37l37.47 25.59M552.67 68l2.61 1.73L595.3 96.2M552.4 73.76l2.88 1.89 31.15 20.55M552.4 77.8l2.88 1.88L580.5 96.2M643.62 93.06l41.42-24.69M645.59 95.75l45.37-27.38M652.99 96.2l.2-.12 43.24-26.24.94-.57M664.83 95.75l31.55-17.95M561.28 152.31l43.91-23.5M551.91 151.86l.15-.08.28-.15 2.94-1.52 44.95-23.38M604.67 132.56l-38.95 20.65M552.4 144.68l2.88-1.51 32.13-16.9M696.43 153.24L652 127.62M643.13 130.31l40.43 22.45M660.88 127.62l35.5 21.1M667.78 127.62l28.6 16.61"/><path d="M320.94 157.91c1.51-1.95 1.98-3.79-.1-5.57-1.29 2.44.05 7.5-4.19 6.99-.14-6.22-9.23-14.78-12.58-22.36 1.93-.06 3.07.66 4.2 1.39v-5.59h-12.58c3.1 13.21 15.05 17.56 18.17 30.75 0 .91-.26 1.56-.66 2.08-1.22 1.6-3.71 1.92-3.54 4.91 13.08 17.2 27.39 33.18 36.34 54.51 2.64.31 3.09-1.57 5.59-1.4-2.96-8.5 2.86-5.65 1.4-6.99-.37-4.76-4.94 3.05-5.54-1.01-.03-.11-.04-.24-.05-.38.16.03.3.05.44.05 2.91.24 2.78-2.56 6.55-1.45 2.35 4.66-.89 4.77-1.4 9.78 4.39.96 5.71-.16 6.99 1.4-.85 3.34 1.75 10.14-1.4 11.18-2.85-3.67-1.49-11.55-8.38-11.18 2.2 11.31 11.06 15.96 11.18 29.35 1.24.09 2.18-.13 2.96-.5 2.38-1.12 3.31-3.7 6.82-3.69 1.64 2.08 3.51 3.94 5.59 5.59-10.08 1.78-.81 4.5 1.4-1.4-2.87-.82-5.82-2.69-2.8-5.59-.19-.04-.37-.07-.55-.09-6.49-1.06-9.01 1.86-12.03 4.28-1.42-6.03-2.71-12.19-5.59-16.77.48.13.87.3 1.2.44 1.06.49 1.6.84 3-.44v-12.58c-.85-2.41-6.63.11-6.99-2.79 4.97.31 8.37-.95 9.78-4.2-5.94-.91-1.02-4-5.59-5.59.08 2.41-1.08 3.59-2.79 4.2.35-2.42-2.64-8.28-4.2-4.2.01-.02.03-.04.09-.12 0 0-.01.02-.05.07-.29.42-1.98 2.75-3.79 4.3l-.39.33c-1.01.79-2.04 1.29-2.85 1.01-.37-.12 2.63-3.46 2.79-4.12.01-.01.01-.03.01-.07v.02c.02.05.01.07-.01.05-.46-.12-7.63-10.94-6.98-14.04-3.87 5.98 3.02 11.36 4.19 16.77-8.68-9.02-15.01-20.4-22.36-30.75 1.62-3.47 3.83-4.98 0-6.99 5.77 1.25 4.15-.27 5.59 2.79.82-2.9 2.94-4.51 4.2-6.98-4.16 1.37-4.93 3.98-2.8-1.4-3.2 2.85-7.7 4.41-9.78 8.38-1.93-4.12-6.46-5.65-8.39-9.78.16-1.69 1.05-3.29 2.28-4.8 2.29-2.85 5.73-5.41 7.6-7.8z" stroke-width="5"/><path d="M368.96 265.73c-1.6 0-4.87-8.08-4.79-11.36h5.59c-2.58 2.46.36 4.33 2.8 5.59-2.19 4.3-4.87-2.43-5.59-4.19-3.21 1.52 1.39 6.86 2.79 8.38-.12 1.11-.41 1.58-.8 1.58zM455.12 376.92c1.34.64 3.38.57 5.49.45-1.721 9.46-9.49 12.87-8.391 25.15-23.18 22.01-27.9 62.48-62.89 72.68-3.07-5.86.09-9.33-5.59-12.58-4.78-1.05-1.78 5.68-6.99 4.189.15-1.119.05-1.989-.24-2.68-1.78-4.229-10.75-1.28-10.94-7.1 15.9-12.54 36.18-51.88 11.18-68.48-13.2 1.09-17.9-6.33-22.36-13.98-14.5.91-25.13-10.29-18.17-22.36 10.83-4.76 17.72-8.27 27.95-11.18 4.84-11.93.69-32.86 12.58-37.74-1.62-2.07-1.62-3.52-.01-5.58l.01-.01c-.27-.87-.46-1.3-.61-1.41-.66-.55-.52 4.84-3.58 2.81 1.2-1.89 1.76-3.96 1.9-6.13 0 0 0 .01 0 0 .04-.38.05-.77.05-1.16.03-9.19-6.52-19.67-2.97-24.22.76-.97 1.97-1.68 3.81-2.04-5.09 1.52-3.93 17.7 4.2 23.76-1.68-1.83-.55-2.2 0-4.19 5.54 4.38-2.26 5.47-5.04 6.69-.22.1-.41.2-.56.3.18.3.35.58.51.86" stroke-width="5"/><path d="M374.46 292.98c.77 1.32 1.27 2.35 1.68 3.31.21.49.4.95.6 1.42.61 1.48 1.3 3.05 2.81 5.58-13.23 4.01-9.26 25.22-13.98 37.74-5.74 6.43-29.25 5.83-30.75 18.17-.9 7.42 6.64 14.15 19.57 13.97 4.87 7.24 8.89 15.34 22.36 13.98 26.42 15.77 7.23 57.26-9.78 69.88.33 2.46 2.4 3.189 5.59 2.8 1.62-.69-1.65-7.311 5.59-5.59 1.12 4.85-2.08 5.37-1.4 9.779 2.49.261 6.89-4.619 12.58 0 .02 3.711-.53 7.98 1.4 9.78 32.5-11.29 37.52-50.06 60.1-71.28-.32-10.56 4.21-16.28 8.38-22.36-1.64-1.01-3-2.1-4.1-3.25.01 0 .01.01 0 0-.511-.54-.971-1.09-1.37-1.65-10.16-14.17 15.46-34.39 33.43-24.45v6.99c10.13-3.55-2.64-12.46 2.79-25.16 8.68 1.69 7.28-6.69 13.98-6.99-2.08-12.27 4.35-18.89 1.39-27.95 2.85-3.39 5.2-7.29 8.02-10.72.12-.16.24-.31.37-.46-.029-.02-.06-.04-.09-.07-3.14-2.27-6.6-7.64-11.09-8.32-16.62-2.54-22.7 22.56-39.14 22.36-8.931-.1-17.7-7.48-25.58-12.6-1.33-.87-2.641-1.68-3.91-2.36-1.391-.76-2.74-1.38-4.05-1.81-3.28-1.07-8.021 1.59-12.581-1.4.57-3.36-2.55-3.03-1.39-6.98.93-.8 1.92-1.16 2.87-1.21 3.94-.22 7.43 4.92 5.51 6.8h-4.19c-.39-4.08.34-4.81 2.79-2.8-1.21-4.06-2.09-1.57-5.59-1.4.24 6.43 8.53 6.96 12.581 5.59a33.324 33.324 0 0 0 4.05 3.21c1.25.84 2.55 1.62 3.91 2.36 7.64 4.16 16.739 6.86 24.189 11.21 17.86-.32 18.86-17.47 32.141-22.37 10.89-1.57 13.659 4.99 20.97 6.99-.521.93-1.021 1.84-1.49 2.73-.1.18-.189.35-.28.53-5.909 11.22-8.25 20.08-8.02 38.67-6.41 1.05-6.3 8.61-13.97 8.39-4.53 13.87 6.79 19.27-2.801 26.55-3.51-1.14-1.939-7.37-4.189-9.78-17.17-3.17-35.61 5.3-30.75 23.76.02.25.05.48.12.69.21.8.7 1.32 1.37 1.65M418.68 272.54c-6.29-2.89-2.99-19.08-6.99-27.95-1.24.62-2.5 1.22-2.79 2.79-1.58-.52-1.73-1.6-1.11-2.57.88-1.34 3.24-2.48 5.3-1.62 3.77 10.73.81 19.62 5.59 29.35z" stroke-width="5"/><path d="M407.5 244.59c-2.96-.43 1.47-4.86 4.19-4.2-.17-3.08-5.93-.59-8.38-1.39 1.22-7.75-3.96-9.09-8.39-11.19 2.65 5.44 8.92 11.81 2.8 18.17 5.22 2.7 5.37 10.47 5.59 18.17-5.18.06-8.11-2.14-11.19-4.19v-8.38c-5.84-1.14-9.45-7.19-15.37-4.2-.44-.57-.91-1.23-1.4-1.98-4.23-6.52-9.28-19.12-1.4-24.57-3.32-9.53-13.57-10.89-11.18-20.97.24-3.03-4.95-.63-6.98-1.39v-5.6c3.62-3.21 6.45 2.85 9.78 4.2-.1-4.85-7.6-6.49-1.43-9.77.01-.01.02-.01.03-.02-.02-.04-.05-.09-.07-.13-2.72-5.13-6-9.71-8.31-15.24-2.67.6-2.53 3.99-6.99 2.79.42-3.68-1.94-4.58-5.59-4.19-.26-3.05 1.14-4.45 4.19-4.19-5.1-4.22-12.29-6.35-18.17-9.79-2.09 1.77-4.2 5.71-6.99 2.8.07-.61.23-1.06.47-1.39 1.28-1.79 4.79-.22 7.92-2.8 4.63 5.62 15.81 4.69 18.17 12.58h-4.2c1.71 2.02 5.59 1.87 5.6 5.59 3.49.23 4.37-2.15 5.59-4.2 4.32 7.14 6.65 12.38 8.31 18.04.01.05.03.1.04.15 1.1 3.77 1.92 7.73 2.83 12.56h-4.2c2.23 11.5 9.14 11.05 12.58 22.37-8.92 4.62-1.3 18.14 1.4 23.75 6.56-3.35 10.01 3.64 16.77 4.2v8.38c.14 3.59 5.21 2.25 6.99 4.2 2.73-3.74.86-14.78-4.19-15.38 6.29-8.73-1.11-12.84-2.8-20.96 10.69.02 8.78 12.65 19.57 12.58-.13 3.59-5.46 2-5.59 5.59z" stroke-width="5"/><path d="M401.91 222.23c-5.85-1.61-9.47-5.45-8.39-13.98 7.45-.46 11.28 8.57 8.39 13.98z" stroke-width="5"/><path d="M401.91 220.83c-.71-5.35-1.27-10.85-6.99-11.18-.81 6.86 1.81 10.3 6.99 11.18zM380.94 243.19c-.04-4.24 4.91-3.48 8.39-4.19v5.59h-5.59c.32-2.02 4.17-.49 4.19-2.8-2.09-4.62-3.42 2.91-6.99 1.4zM100.43 647.03c-.11-.221-.22-.48-.34-.78-.61-1.57-1.26-4.02-1.54-6.28-.19-1.54-.21-3.01.07-4.04 13.96-13.1 26.55-23.1 34.94-39.13 5.53.51 10.15-4.53 13.97-1.399 6.92-6.54 16.09-10.82 24.45-15.91 6.98-4.25 13.41-9.061 17.48-16.24 2.67-.59 3.51-3.01 6.99-2.79 3.97-12.37 18.32-14.32 27.96-22.36 16.8-14.02 16.5-32.729 26.55-57.31 19.52-1.43 19.53-19.28 22.43-34.81.61-3.25 1.34-6.4 2.41-9.271 2.36-6.4 6.38-11.44 14.3-13.22-1.15-5.64 9.08-6.5 16.77-4.19-12.99-.84-15.6 11.71-6.02 16.561.14.069.28.14.43.21a.89.89 0 0 0 .16-.04c3.1-.761 3.64-6.07 6.83-2.761 2.87 8.4-1.21 15.82 1.39 25.16 11.54-1.8 16.75-15.6 23.76-13.979.5-1.99 3.63-6.771 2.8-13.97 3.37.569 3.04-2.551 6.99-1.4 1.34 7.4-2.63 9.479-6.99 11.18.41 4.44 7.39 2.8 8.38 0-2.09-4.62-3.41 2.91-6.98 1.4 2.09-1.63 3.41-4.04 6.98-4.19 3.07 2.9-1.22 4.511 1.4 6.98 4.81.62 7.83-.55 11.18-1.391-1.76 4.28-2.12 9.971-6.95 11.171-.01 0-.02.01-.03.01 0-.01.01-.01.01-.021 2.15-2.96 4.01-6.22 5.58-9.77-1.18 1.31-8.91 2.99-9.79 0-3.09 1.109-3.5 4.89-5.59 6.99 3.91-.9 6.52 1.54 9.8 2.779 0 0 .01.011.02.011 1.94.739 4.12 1.06 6.95.01-.97 8.29-7.21 4.149-10.39 8.42-.3.38-.56.83-.79 1.359.11.12.21.23.3.351 5.07 5.91 2 12.25 9.49 15.03-.58 11.54-14.49 9.739-12.58 23.76-19.9 10.84-17.2 44.3-43.33 48.91-1.77 7.02-4.03 14.79-1.4 22.37 6.61-1.021 9.19 1.989 12.58 4.189v9.78c-10.82 8.17-14.3-5.641-23.76-6.99-4.16.03-1.79 6.6-4.19 8.39-18.16 6.66-40.05 14.07-43.33 34.94-1.29 8.19 2.98 16.19-1.4 23.76-.96 1.67-5.9 3.24-6.99 5.59-2.54 5.48-.94 12.9-2.79 18.17-1.17 3.341-3.4 6.271-5.39 9.08-1.28 1.79-2.46 3.53-3.22 5.311-1.08 2.51-1.31 5.09.22 7.97 6.05-2.3-3-3.03 2.8-5.59 5.04 12.52-23.25 3.77-18.17 20.97-17.3 9.26-21.19 31.92-51.71 27.95-1.43-1.83-1.38-5.15-2.8-6.99-3.29 1.5-13.12 8.67-13.98 0-1.42.91-1.44 3.221-4.19 2.8-2.44-1.239 1.04-6.119-1.4-2.8-4.91-2.38 3.26-3.06 4.2-4.189-1.41-3.721-5.65-4.61-8.39-6.99-6.45-.86-8.04 3.14-13.98 2.8-3.54-3.77-.27-12.189-9.78-12.58-1.81 2.141-4.12 3.471-6.71 4.221-7.9 2.289-18.46-.841-25.44-2.82-1.2-4.46 2.2-4.33 2.8-6.99-1.25 1.08-3.16 1.5-5.59 1.4-.18-2.511 1.71-2.95 1.39-5.59-.09-.021-.17-.03-.25-.03-3.1-.38-2.88 2.55-6.73 1.42.28-4.37-.95-10.26 1.39-12.58 7 .94 10.82-1.29 16.78-1.39-4.72-3.54-10.97 1.97-16.78-1.4 2.3-3.25 5.04-6.05 8.43-8.2 3.45-2.189 7.56-3.72 12.54-4.38 2.28 8.34-8.71 3.4-9.79 8.39.16 3.57 4.69 2.771 8.39 2.79-1.87 6.051-10.63 5.21-18.17 5.591-3.09.18-.59 5.93-1.4 8.39.94.77 3.64.55 5.38 1.03 1.62.439 2.41 1.51.21 4.56 6.64.11 5.7-7.35 12.58-6.99-3.76 3.7-7.67 7.23-9.78 12.58 6.54 4.24 13.95 1.66 23.76 4.19.09-.01.18-.03.26-.05 2.53-.631 1.15-5.16 3.93-5.54 10.26-1.15 12.5 7.46 12.58 12.58 8.43-2.94 15.94-3.58 22.37 1.399-.13 3.811 2.32 2.811 0 5.59 4.21 4.79 11.25 4.4 16.77 1.4-.57 3.36 2.55 3.04 1.4 6.99 2.47-.32 6.99 1.399 5.58-2.801 21.63 9.021 30.82-17.279 44.73-25.159-1.01-4.271 1.43-5.091 1.4-8.38 5.24-2.021 10.64-6.931 15.15-13.57a58.33 58.33 0 0 0 3.22-5.311c1.52-2.84 2.87-5.89 3.99-9.08 2.11-5.989.37-12.819 2.8-18.17 1.83-4.04 8.89-7.08 9.78-13.97.61-4.75-2.01-9.46-1.4-13.979 3.05-22.601 23.99-29.33 43.33-37.74 2.24-1.95 1.49-6.9 4.19-8.38 8.51-.12 10.68 6.09 15.38 9.779 3.14-.59.04-7.42 2.79-8.39 3.27.36.81 6.15 0 6.99 1.84-1.67 2.2-.54 4.2 0 3.08-.17.59-5.93 1.39-8.38-1.5-4.09-6.65-4.53-12.58-4.2-2.11-8.48-.87-16.19 1.4-23.76 25.47-5.28 23.65-37.851 43.33-48.91-1.14-12.32 8.64-13.73 12.58-20.97-4.42-5.471-8.96-12.471-8.09-17.82.09-.59.25-1.16.49-1.71 1.1-2.57 3.84-4.601 9-5.63h-.01c-3.32.029-8.06-.511-12.84-1.5-.27-.05-.54-.11-.82-.17h.02" stroke-width="5"/><path d="M100.43 647.03c.88-.34.71-1.75.98-2.71.37 4.08-.22 4.26-.98 2.71z" stroke-width="5"/><path d="M342.14 455.36c.26.01.52.069.8.17.09.02.18.06.27.1-1.73 2.01-4.81 2.65-8.39 2.8 1.27-4.319 3.48-7.699 5.59-11.18-4.52-1.73-1.07 4.52-5.59 2.79-9.32-10.22-12.64 10.66-25.16 9.79-5.01-7.33.37-17.54-2.79-25.16-1.24 1.57-3.29 1.91-5.43 1.36-.2-.05-.4-.101-.59-.17-5.39-1.79-10.91-9.021-5.16-16.561-1.91 1.94-3.92 4.08-6.99 5.59-5.25 2.57-10.1 6.2-12.9 11.82-1.31 2.62-2.17 5.68-2.41 9.271-.06.859-.09 1.75-.07 2.67.22 12.449-4.5 32.39-20.96 33.54-10.74 23.199-10 43.43-26.56 57.31-8.24 6.9-23.87 7.96-27.95 20.96-2.66.6-3.51 3.01-6.99 2.79.29 5.88-5.31 5.88-5.59 11.19-5.15.97-9.44 2.79-13.29 5.06-8.45 5-14.72 12.18-23.05 17.3-4.25-2.01-8.36-.25-12.58 1.4-9.95 18.05-33.88 26.43-36.26 48.05-.03.28-.06.57-.08.86.16 0 .3-.03.42-.08" stroke-width="5"/><path d="M342.12 455.36c-1.52-.33-3.03-.7-4.5-1.12-.39 5.12 1.47.87 4.5 1.12zM339.01 430.48c-1.17 1.619-1.84 3.739-1.39 6.989 4.42 2.061 6.72-8.039 1.39-6.989zM70.66 680.66c-.15 2.64-4.62.97-4.19 4.189 1.62 1.17 3.75 1.851 6.99 1.4.39-3.189-.34-5.249-2.8-5.589zM97.22 640.13c-2.37 1.851-11.29 9.19-13.98 15.37 4.04 7.62 7.33 6.77 12.58 8.39-3.7 4.511-8.97-1.189-11.18-2.8 2.63 3.71.26 4.72 4.19 5.59-2.2 6.36-5-2.08-8.38-2.79-5.17 4.58-8.63 10.971-9.31 12.301-.05.109-.09.189-.12.25 0 0 0-.011.01-.021.02-.03.06-.11.11-.229.28-.58 1.03-2.21 2.32-5.32 4.04-9.73 13.71-23.87 19.56-30.74l4.2-.001zM74.85 682.06c-4.84-4.489 4.95-6.17 8.39-6.989.97 6.089-10.58-.331-8.39 6.989zM128.88 758.05c-4.14 5.391-12.22 7.91-19.08 6.47 1.36.65.55 2.78-1.21 4.391-1.83 1.7-4.68 2.84-7.18 1.2 5.24-11.46 12.78-18.46 11.18-33.54 9.44-.59 10.09 7.609 15.38 11.18.08 1.54-.43 2.49-1.29 3.09-1.34.93-3.53 1-5.7 1.101.38-2.881 5.2-1.32 5.59-4.19-5.18-2.28-4.65-10.26-12.58-9.79 1.19 13.38-5.19 21.19-11.18 30.75.33 3.6 2.4-1.91 5.59 0 0 0 0-.01-.01-.01-4.46-9.07 12.92-3.15 20.52-10.69-.01.01-.02.021 0 0 .15-.149.3-.31.45-.479 0-.05.01-.11.01-.16.2-2.94-1.2-4.29-4.2-4.03.4-1.229.95-1.7 1.57-1.729 1.52-.07 3.39 2.569 4.02 3.12-.36.939-.83 1.819-1.39 2.64-.15.22-.3.439-.46.64" stroke-width="5"/></g><path fill-rule="evenodd" clip-rule="evenodd" fill="none" d="M.25.25h850.394v850.394H.25z"/></svg>