<?xml version="1.0" encoding="iso-8859-1"?>
<!-- Generator: Adobe Illustrator 12.0.1, SVG Export Plug-In . SVG Version: 6.00 Build 51448)  -->
<!DOCTYPE svg PUBLIC "-//W3C//DTD SVG 1.1//EN" "http://www.w3.org/Graphics/SVG/1.1/DTD/svg11.dtd" [
	<!ENTITY ns_svg "http://www.w3.org/2000/svg">
	<!ENTITY ns_xlink "http://www.w3.org/1999/xlink">
]>
<svg  version="1.1" id="Layer_1" xmlns="&ns_svg;" xmlns:xlink="&ns_xlink;" width="850.89" height="850.89"
	 viewBox="0 0 850.89 850.89" style="overflow:visible;enable-background:new 0 0 850.89 850.89;" xml:space="preserve">
<g>
	<g id="XMLID_1_">
		<g>
			<path style="fill:#FFF5B4;" d="M216.22,365.67c4.11-1.98,13.77-1.93,13.77-3.41l1.35,0.3c-0.11,0.49-0.22,0.97-0.32,1.46
				c10.07-26.82,14.94-51.96,24.66-75.62c9.16-2.37,15.69,4.08,19.72,1.65c3.65-1.3-0.31-10.18,6.58-8.22
				c9.95,1.01,7.49,14.43,16.44,16.44c6.43-10.56,10.12-23.86,16.44-34.53c1.61,6.75,8.84,7.87,15.46,9.61
				c0.35,0.23,0.7,0.47,1.04,0.71c2.35,17.71,30.26,6.36,36.11-0.45c4.73,0.19,0.85,9.01,6.57,8.22c16.63-6.11,25.53,2.81,42.74,0
				c15.38,13.67,41.18,16.91,46.03,41.09c13.62,6.01,23.12,16.12,31.841,27.02c0.369,0.84,0.72,1.7,1.04,2.58
				c0.729,0.48,1.449,0.96,2.149,1.46c5.7,7.34,11.23,14.85,17.58,21.55c-6.95,5.87-10.11,15.52-15.62,22.83
				c-2.729,3.63-6.04,6.68-10.68,8.41c-3.39,8.24-1.54,14.9-0.7,22.11c0.04,1.4,0.14,2.851,0.32,4.36
				c0.08,3.029-0.21,6.21-1.271,9.689c17.641,6.41,39.12-13.1,50.971,1.65c-4.61,3.1-7.12,8.3-10.21,12.92
				c-0.421,0.64-0.851,1.26-1.301,1.87c4.78,4.53,8.391,10.25,8.221,19.729c9.3,2.21,9.92,13.101,18.08,16.44
				c-0.36,11.32,8.989,12.93,11.51,21.37c4.66,0.27,6.85,3.01,11.51,3.29c11.78,15.22,33.4,22.09,55.89,29.59
				c35.4,11.8,66.29,25.09,105.391,28.75c9.29,0.87,19.029,1.2,29.41,0.84c-26.71,27.78-51.521,47.45-80.551,78.91
				c-3.76,4.08-10.33,12.61-17.89,22.04c-0.01,0.02-0.03,0.04-0.04,0.05c-10,10.76-19.85,21.65-29.56,32.68
				c-3.801,3.2-7.24,5.4-10.051,6.051c-1.52,0.35-3.08,0.56-4.67,0.64c-3.92-0.45-7.83-0.78-11.699-1.01
				c-7.36-1.29-14.79-3.3-21.44-2.91c-23.17,1.33-48.07,15.18-55.89,31.229c-15.771,3.96-38.58,0.881-44.391,14.801
				c-9.42-5.021-18.92,2.569-29.59,1.64c-4.9-5.51-10.75-10.07-14.8-16.44c-24.52,8.36-48.71,17.051-59.18,39.46
				c-20.09-4.569-40.52-9.97-62.47-8.22c-28.49-16.439-45.05-44.819-96.99-37.81c-8.31-12.28-11.27-24.971-8.22-41.101
				c-9.64-3.08-15.01-5.93-24.66-1.649c-0.37-3.11,1.85-3.62,1.65-6.57c-17.8-8.51-16.44-36.18-26.31-52.61
				c-5.6-2.06-10.52-4.819-11.51-11.51c-2.87-0.91-6.27-1.28-9.1-2.229c-1.03-0.69-2-1.431-2.91-2.23
				c-6.51-14.84-17.44-25.27-30.73-33.35c-8.79,0.029-18.19,0.66-23.01-3.28c0.42-11.51,12.07-11.42,6.57-24.66
				c8.28-2.89,21.27-5.58,26.31,1.641c6.34-2.971,13.96-4.671,18.08-9.86c-1.78-30.51-3.39-58.68,9.86-77.271
				c-1.62-3.859-2.88-8.069-3.28-13.149c4.63-5.22,6.72-13.01,14.79-14.8c4.47,1.04,4.73,11.229,9.86,6.58
				c9.46-11.511,9.56-30.351,9.87-49.32C201.79,398.36,202.31,375.32,216.22,365.67z"/>
			<path style="fill:#231F20;" d="M796.65,83.71l2.31,4.08c0,0-0.85,0.48-0.86,0.48l-1.439,0.82l-0.01-0.02v-3.38V83.71z"/>
			<polygon style="fill:#231F20;" points="797.42,176.07 797.42,182 796.65,182 796.65,179.03 796.65,176.07 			"/>
			<polygon style="fill:#231F20;" points="796.65,226.3 796.65,230.74 792.21,230.74 			"/>
			<polygon style="fill:#231F20;" points="796.65,74.42 792.21,69.98 796.65,69.98 			"/>
			<polygon style="fill:#231F20;" points="796.04,82.63 795.19,83.11 793.75,83.92 792.21,83.92 792.21,74.42 796.65,74.42 
				796.65,83.71 			"/>
			<polygon style="fill:#231F20;" points="796.57,122.32 796.65,122.32 796.65,176.07 792.21,176.07 792.21,125.28 796.57,125.28 
							"/>
			<rect x="792.21" y="176.07" style="fill:#231F20;" width="4.44" height="2.96"/>
			<rect x="792.21" y="179.03" style="fill:#231F20;" width="4.44" height="2.97"/>
			<rect x="792.21" y="182" style="fill:#231F20;" width="4.44" height="44.3"/>
			<polygon style="fill:#231F20;" points="796.65,226.3 792.21,230.74 792.21,226.3 			"/>
			<path style="fill:#231F20;" d="M796.65,235.18h-243.4v-4.44h238.96h4.44v-4.44V182h0.77v-5.93h-0.77v-53.75V89.07l0.01,0.02
				l1.439-0.82c0.011,0,0.86-0.48,0.86-0.48h2.13v34.53v56.71v51.71v4.44H796.65z"/>
			<rect x="792.21" y="119.35" style="fill:#231F20;" width="4.36" height="2.97"/>
			<rect x="792.21" y="122.32" style="fill:#231F20;" width="4.36" height="2.96"/>
			<polygon style="fill:#231F20;" points="795.19,83.11 796.04,82.63 796.65,83.71 796.65,85.69 796.65,89.07 793.75,83.92 			"/>
			<polygon style="fill:#231F20;" points="792.21,69.98 796.65,74.42 792.21,74.42 			"/>
			<polygon style="fill:#231F20;" points="793.75,83.92 796.65,89.07 796.65,122.32 796.57,122.32 796.57,119.35 792.21,119.35 
				792.21,85.69 792.21,83.92 			"/>
			<rect x="553.25" y="226.3" style="fill:#231F20;" width="238.96" height="4.44"/>
			<path style="fill:#34A047;" d="M792.21,85.69v33.66h-88.18c-8.42-9.16-20.271-14.39-32.74-14.39s-24.32,5.23-32.73,14.39h-85.31
				V74.42h238.96v9.5V85.69z"/>
			<rect x="553.25" y="69.98" style="fill:#231F20;" width="238.96" height="4.44"/>
			<polygon style="fill:#231F20;" points="792.21,69.98 553.25,69.98 553.25,65.54 796.65,65.54 801.09,65.54 801.09,69.98 
				801.09,85.69 801.09,87.79 798.96,87.79 796.65,83.71 796.65,74.42 796.65,69.98 			"/>
			<path style="fill:#231F20;" d="M712.77,149.41c0-9-2.859-17.33-7.729-24.13h3.58c4.61,7.15,7.11,15.52,7.11,24.13
				c0,9.76-3.11,19.02-8.87,26.66h-3.801C709.12,168.87,712.77,159.56,712.77,149.41z"/>
			<path style="fill:#394EA1;" d="M703.37,140.7l5.11-1.29c0.88,3.24,1.329,6.6,1.329,10c0,4.89-0.899,9.63-2.63,14.04l-3.12-1.45
				c-3.899-4.11-11.56-4.47-17.18-6.88l-0.99-1.06C691.13,149.01,697.99,145.59,703.37,140.7z"/>
			<path style="fill:#231F20;" d="M706.52,122.32h85.69v2.96h-83.59C707.97,124.27,707.27,123.28,706.52,122.32z"/>
			<path style="fill:#FBED24;" d="M706.86,176.07c5.76-7.64,8.87-16.9,8.87-26.66c0-8.61-2.5-16.98-7.11-24.13h83.59v50.79H706.86z"
				/>
			<path style="fill:#231F20;" d="M706.86,176.07h85.35v2.96h-87.79C705.27,178.07,706.09,177.09,706.86,176.07z"/>
			<path style="fill:#231F20;" d="M702.71,122.32h3.81c0.75,0.96,1.45,1.95,2.101,2.96h-3.58
				C704.31,124.26,703.53,123.27,702.71,122.32z"/>
			<path style="fill:#231F20;" d="M792.21,122.32h-85.69c-0.5-0.66-1.02-1.31-1.569-1.94c-0.3-0.35-0.61-0.7-0.92-1.03h88.18V122.32
				z"/>
			<path style="fill:#231F20;" d="M702.71,122.32v-2.97h1.32c0.31,0.33,0.62,0.68,0.92,1.03c0.55,0.63,1.069,1.28,1.569,1.94H702.71
				z"/>
			<path style="fill:#231F20;" d="M702.71,125.28v-2.96c0.82,0.95,1.6,1.94,2.33,2.96H702.71z"/>
			<path style="fill:#231F20;" d="M703.06,176.07h3.801c-0.771,1.02-1.591,2-2.44,2.96h-4.1
				C701.28,178.09,702.19,177.1,703.06,176.07z"/>
			<path style="fill:#231F20;" d="M702.39,181.15c0.7-0.69,1.38-1.39,2.03-2.12h87.79V182H701.5
				C701.8,181.72,702.1,181.44,702.39,181.15z"/>
			<path style="fill:#231F20;" d="M703.06,176.07c-0.869,1.03-1.779,2.02-2.739,2.96v-2.96H703.06z"/>
			<path style="fill:#231F20;" d="M704.42,179.03c-0.65,0.73-1.33,1.43-2.03,2.12c-0.29,0.29-0.59,0.57-0.89,0.85h-1.18v-2.97
				H704.42z"/>
			<path d="M690.23,143.45l7.649-2.75c-0.47,0.44-1.05,0.82-1.729,1.16C694.6,142.62,692.55,143.14,690.23,143.45z"/>
			<path style="fill:#394EA1;" d="M697.88,140.7c-5.26,0-10.54,0-15.8,0v-1.38c2.52-5.49,9.41-10.28,9.62-15.8v-1.2h6.97
				c0.62,0.62,1.21,1.26,1.79,1.93c3.81,4.42,6.54,9.61,8.021,15.16l-5.11,1.29c-2.78,0.12-4.97,0.82-6.86,1.83l-0.359-0.67
				C696.83,141.52,697.41,141.14,697.88,140.7z"/>
			<path style="fill:#231F20;" d="M698.24,176.92c3.96-3.88,6.979-8.46,8.939-13.47c1.73-4.41,2.63-9.15,2.63-14.04
				c0-3.4-0.449-6.76-1.329-10c-1.48-5.55-4.211-10.74-8.021-15.16c-0.58-0.67-1.17-1.31-1.79-1.93h4.04v2.96h2.33
				c4.87,6.8,7.729,15.13,7.729,24.13c0,10.15-3.649,19.46-9.71,26.66h-2.739v2.96h-4.42C696.71,178.36,697.49,177.66,698.24,176.92
				z"/>
			<path style="fill:#FBED24;" d="M704.06,162c-5.29-2.72-13.02-3.01-17.18-6.88C692.5,157.53,700.16,157.89,704.06,162z"/>
			<path d="M766.94,579.38c-10.381,0.36-20.12,0.03-29.41-0.84l0.01-0.13c9.52,1,20.17,0.96,32.69-0.67
				C735.35,610.97,701.26,644.98,668.5,680.33c7.56-9.43,14.13-17.96,17.89-22.04C715.42,626.83,740.23,607.16,766.94,579.38z"/>
			<path style="fill:#394EA1;" d="M689.64,171.61c-1.09-6.02-3.689-10.51-4.819-16.49c0.35-0.37,0.71-0.73,1.069-1.06l0.99,1.06
				c4.16,3.87,11.89,4.16,17.18,6.88l3.12,1.45c-1.96,5.01-4.979,9.59-8.939,13.47c-0.75,0.74-1.53,1.44-2.34,2.11h-4.2v-1.92
				c-0.86-2.77-2.48-4.77-4.44-6.43l1.21-0.21C688.84,170.88,689.23,171.26,689.64,171.61z"/>
			<path style="fill:#394EA1;" d="M696.51,142.53c-4.81,2.59-7.62,7.19-13.06,9.16c-0.84-1.4-0.851-3.62-1.41-5.29l8.19-2.95
				c2.319-0.31,4.369-0.83,5.92-1.59L696.51,142.53z"/>
			<path style="fill:#FBED24;" d="M691.7,123.52c-0.21,5.52-7.101,10.31-9.62,15.8C680.94,135.02,688.95,128.46,691.7,123.52z"/>
			<path style="fill:#FBED24;" d="M681.66,155.05c-0.67-2.74-1.22-5.47-1.71-7.9l2.09-0.75c0.56,1.67,0.57,3.89,1.41,5.29
				c5.439-1.97,8.25-6.57,13.06-9.16c1.891-1.01,4.08-1.71,6.86-1.83c-5.38,4.89-12.24,8.31-17.48,13.36
				c-0.359,0.33-0.72,0.69-1.069,1.06c1.13,5.98,3.729,10.47,4.819,16.49c-0.409-0.35-0.8-0.73-1.17-1.14
				C685.12,166.81,683.1,160.87,681.66,155.05z"/>
			<path style="fill:#394EA1;" d="M673.6,122.32H691.7v1.2c-2.75,4.94-10.76,11.5-9.62,15.8v1.38c-0.69,0-1.37,0-2.061,0
				C677.35,135.1,676.4,127.79,673.6,122.32z"/>
			<path style="fill:#394EA1;" d="M675.21,162c1.42-2.93,6.16-2.54,6.18-6.88l0.271-0.07c1.439,5.82,3.46,11.76,6.81,15.42
				l-1.21,0.21C683.51,167.52,678.52,165.6,675.21,162z"/>
			<path style="fill:#FBED24;" d="M682.04,146.4l-2.09,0.75c-0.21-1.07-0.42-2.08-0.62-3.02
				C680.91,144.22,681.63,145.16,682.04,146.4z"/>
			<path style="fill:#394EA1;" d="M669.42,165.83c1.24-0.83,2.48-1.64,3.73-2.46c5.72,5.04,12.1,9.42,18.55,13.74v1.92h-18.55
				c0.439-4.85,0.489-10.64-1.381-12.91L669.42,165.83z"/>
			<path style="fill:#394EA1;" d="M695.9,179.03c-6.57,5.47-14.7,8.58-23.301,8.86l-0.14-3.22c0.21-1.4,0.49-3.42,0.69-5.64h18.55
				H695.9z"/>
			<path style="fill:#FBED24;" d="M671.77,119.4c0.7,0.89,1.301,1.87,1.83,2.92h-2.649C671.22,121.35,671.49,120.37,671.77,119.4z"
				/>
			<path style="fill:#FBED24;" d="M671.77,166.12c1.87,2.27,1.82,8.06,1.381,12.91h-1.471
				C671.57,174.86,672.07,170.09,671.77,166.12z"/>
			<path style="fill:#394EA1;" d="M643.91,122.32c7.21-7.3,17.05-11.43,27.38-11.43s20.17,4.13,27.38,11.43h-6.97H673.6
				c-0.529-1.05-1.13-2.03-1.83-2.92c-0.279,0.97-0.55,1.95-0.819,2.92h-18.42H643.91z"/>
			<path style="fill:#FBED24;" d="M673.15,179.03c-0.2,2.22-0.48,4.24-0.69,5.64c-0.54-1.61-0.74-3.55-0.78-5.64H673.15z"/>
			<path style="fill:#ED1E29;" d="M641.08,182c8.25,7.65,18.92,11.85,30.21,11.85s21.96-4.2,30.21-11.85h90.71v44.3H553.25V182
				H641.08z"/>
			<path style="fill:#394EA1;" d="M667.4,141.98c2.229-6.07,4.3-12.26,4.369-18.46c0.83,6.05,4.841,12.55,4.811,17.18
				c-3.061,0.38-7.94-1.07-8.93,1.37L667.4,141.98z"/>
			<path style="fill:#394EA1;" d="M679.95,147.15l-16.42,5.91c1.069-3.64,2.5-7.34,3.87-11.08l0.25,0.09
				c4.869,1.35,15.1,2.41,22.58,1.38l-8.19,2.95c-0.41-1.24-1.13-2.18-2.71-2.27C679.53,145.07,679.74,146.08,679.95,147.15z"/>
			<path style="fill:#394EA1;" d="M652.53,122.32h18.42c-1.681,6-3.351,12.01-6,17.04l-1.42-0.73c-3.21-5.5-6.641-10.76-11-15.11
				V122.32z"/>
			<path style="fill:#FBED24;" d="M671.09,160.62c-2.72,1.44-4.66-1.1-6.6-2.89L671.09,160.62z"/>
			<path d="M662.84,156.5c0.561,0.28,1.101,0.73,1.65,1.23l-1.87-0.81C662.69,156.78,662.76,156.64,662.84,156.5z"/>
			<path style="fill:#394EA1;" d="M663.53,153.06l16.42-5.91c0.49,2.43,1.04,5.16,1.71,7.9l-0.271,0.07
				c-2.64,1.55-6.409,3.48-10.13,5.77l-0.17-0.27c-2.8-2.28-5.79-5.2-8.979-7.91l0.29-0.34
				C662.67,152.64,663.04,152.88,663.53,153.06z"/>
			<path d="M668.46,680.38c-9.5,11.851-20.55,25.101-29.56,32.68C648.61,702.03,658.46,691.14,668.46,680.38z"/>
			<path style="fill:#394EA1;" d="M657.75,171.72c1.94-4.61,2.65-10.47,4.87-14.8l1.87,0.81c1.939,1.79,3.88,4.33,6.6,2.89
				l0.17,0.27c-5.069,3.12-10.04,6.89-11.99,11.25L657.75,171.72z"/>
			<path style="fill:#394EA1;" d="M653.91,179.03h-7.23c-0.81-0.67-1.59-1.37-2.34-2.11c-4.2-4.11-7.33-9-9.27-14.35l5.779-1.26
				c6.25-1.54,12.841-2.74,17.181-6.19l0.68-1.02c0.49,0.54,0.96,1.11,1.38,1.71c-1.71,7-5.96,15.1-6.18,21.3V179.03z"/>
			<path style="fill:#FBED24;" d="M669.42,165.83c-3.71,2.47-7.35,5.02-10.7,7.85c0.141-0.52,0.32-1.03,0.55-1.54
				c1.95-4.36,6.921-8.13,11.99-11.25c3.721-2.29,7.49-4.22,10.13-5.77c-0.02,4.34-4.76,3.95-6.18,6.88
				c3.31,3.6,8.3,5.52,12.05,8.68c1.96,1.66,3.58,3.66,4.44,6.43c-6.45-4.32-12.83-8.7-18.55-13.74
				C671.9,164.19,670.66,165,669.42,165.83z"/>
			<path style="fill:#394EA1;" d="M671.68,179.03h-17.77v-1.92c1.74-1.33,2.93-3.22,3.84-5.39l1.52,0.42
				c-0.229,0.51-0.409,1.02-0.55,1.54c3.351-2.83,6.99-5.38,10.7-7.85l2.35,0.29C672.07,170.09,671.57,174.86,671.68,179.03z"/>
			<path style="fill:#394EA1;" d="M647.39,143.4l-0.149,1.48c-0.29-0.03-0.59-0.05-0.891-0.06c4.051,3.17,8.931,5.49,12.36,9.28
				l-0.68,1.02c-5.681,2.12-12.561,3.02-17.181,6.19l-5.779,1.26c-1.511-4.16-2.29-8.6-2.29-13.16c0-9.24,3.319-18.17,9.34-25.16
				c0.58-0.67,1.17-1.31,1.79-1.93h8.62v1.2c2.89,5.81,6.739,10.67,11,15.11l1.42,0.73c-0.23,0.46-0.48,0.9-0.74,1.34
				c-7.33,0.45-16.479-0.91-22.67,0.69C642.98,142.58,645.02,143.15,647.39,143.4z"/>
			<path style="fill:#FBED24;" d="M653.91,177.11c0.22-6.2,4.47-14.3,6.18-21.3l2.53,1.11c-2.22,4.33-2.93,10.19-4.87,14.8
				C656.84,173.89,655.65,175.78,653.91,177.11z"/>
			<path style="fill:#FBED24;" d="M652.53,123.52c4.359,4.35,7.79,9.61,11,15.11C659.27,134.19,655.42,129.33,652.53,123.52z"/>
			<path style="fill:#394EA1;" d="M647.39,143.4c5.08,0.55,11.63-0.38,16.82,0.05c-0.479,2.68-3.8,6.9-1.81,8.92l-0.29,0.34
				c-4.53-3.85-9.471-7.28-14.87-7.83L647.39,143.4z"/>
			<path style="fill:#394EA1;" d="M646.68,179.03h7.23h17.77c0.04,2.09,0.24,4.03,0.78,5.64l0.14,3.22
				c-0.43,0.02-0.869,0.03-1.31,0.03C662.22,187.92,653.58,184.78,646.68,179.03z"/>
			<path style="fill:#FBED24;" d="M641.54,141.39c6.19-1.6,15.34-0.24,22.67-0.69c0.26-0.44,0.51-0.88,0.74-1.34
				c2.649-5.03,4.319-11.04,6-17.04h2.649c2.801,5.47,3.75,12.78,6.42,18.38c0.69,0,1.37,0,2.061,0c5.26,0,10.54,0,15.8,0
				l-7.649,2.75c-7.48,1.03-17.711-0.03-22.58-1.38c0.989-2.44,5.869-0.99,8.93-1.37c0.03-4.63-3.98-11.13-4.811-17.18
				c-0.069,6.2-2.14,12.39-4.369,18.46c-1.37,3.74-2.801,7.44-3.87,11.08c-0.49-0.18-0.86-0.42-1.13-0.69
				c-1.99-2.02,1.33-6.24,1.81-8.92c-5.19-0.43-11.74,0.5-16.82-0.05C645.02,143.15,642.98,142.58,641.54,141.39z"/>
			<path style="fill:#FBED24;" d="M647.24,144.88c5.399,0.55,10.34,3.98,14.87,7.83c3.189,2.71,6.18,5.63,8.979,7.91l-6.6-2.89
				c-0.55-0.5-1.09-0.95-1.65-1.23c-0.08,0.14-0.149,0.28-0.22,0.42l-2.53-1.11c-0.42-0.6-0.89-1.17-1.38-1.71
				c-3.43-3.79-8.31-6.11-12.36-9.28C646.65,144.83,646.95,144.85,647.24,144.88z"/>
			<path style="fill:#231F20;" d="M639.88,122.32c7.61-8.81,18.86-14.39,31.41-14.39c12.56,0,23.81,5.58,31.42,14.39h-4.04
				c-7.21-7.3-17.05-11.43-27.38-11.43s-20.17,4.13-27.38,11.43H639.88z"/>
			<path style="fill:#231F20;" d="M642.27,179.03h4.41c6.9,5.75,15.54,8.89,24.61,8.89c0.44,0,0.88-0.01,1.31-0.03
				c8.601-0.28,16.73-3.39,23.301-8.86h4.42c-7.48,7.33-17.73,11.85-29.03,11.85S649.75,186.36,642.27,179.03z"/>
			<path style="fill:#231F20;" d="M642.27,176.07v2.96c-0.96-0.94-1.88-1.93-2.739-2.96H642.27z"/>
			<path style="fill:#231F20;" d="M642.27,179.03c7.48,7.33,17.721,11.85,29.021,11.85s21.55-4.52,29.03-11.85V182h1.18
				c-8.25,7.65-18.92,11.85-30.21,11.85s-21.96-4.2-30.21-11.85h1.189V179.03z"/>
			<path style="fill:#FBED24;" d="M640.85,161.31c4.62-3.17,11.5-4.07,17.181-6.19C653.69,158.57,647.1,159.77,640.85,161.31z"/>
			<path style="fill:#231F20;" d="M641.08,182h-87.83v-2.97h84.91c0.649,0.73,1.33,1.43,2.03,2.12
				C640.48,181.44,640.78,181.72,641.08,182z"/>
			<path style="fill:#231F20;" d="M638.56,119.35c8.41-9.16,20.261-14.39,32.73-14.39s24.32,5.23,32.74,14.39h-1.32v2.97
				c-7.61-8.81-18.86-14.39-31.42-14.39c-12.55,0-23.8,5.58-31.41,14.39v-2.97H638.56z"/>
			<path style="fill:#231F20;" d="M640.19,181.15c-0.7-0.69-1.381-1.39-2.03-2.12h4.109V182h-1.189
				C640.78,181.72,640.48,181.44,640.19,181.15z"/>
			<path style="fill:#231F20;" d="M637.55,125.28c0.73-1.02,1.51-2.01,2.33-2.96v2.96H637.55z"/>
			<path d="M638.9,713.06c-2.271,2.561-4.521,5.131-6.761,7.7c-2.649-0.38-5.31-0.72-7.96-1.01c1.59-0.08,3.15-0.29,4.67-0.64
				C631.66,718.46,635.1,716.26,638.9,713.06z"/>
			<path style="fill:#231F20;" d="M639.88,122.32c-0.82,0.95-1.6,1.94-2.33,2.96h-3.58c0.65-1.01,1.351-2,2.101-2.96H639.88z"/>
			<path style="fill:#231F20;" d="M638.16,179.03h-84.91v-2.96h82.47C636.49,177.09,637.31,178.08,638.16,179.03z"/>
			<path style="fill:#231F20;" d="M635.72,176.07h3.811c0.859,1.03,1.779,2.02,2.739,2.96h-4.109
				C637.31,178.08,636.49,177.09,635.72,176.07z"/>
			<path style="fill:#231F20;" d="M638.56,119.35h1.32v2.97h-3.81c0.5-0.66,1.02-1.31,1.569-1.94
				C637.94,120.03,638.25,119.68,638.56,119.35z"/>
			<path style="fill:#231F20;" d="M553.25,119.35h85.31c-0.31,0.33-0.619,0.68-0.92,1.03c-0.55,0.63-1.069,1.28-1.569,1.94h-82.82
				V119.35z"/>
			<path style="fill:#FBED24;" d="M635.72,176.07h-82.47v-50.79h80.72c-4.62,7.15-7.12,15.52-7.12,24.13
				C626.85,159.17,629.97,168.43,635.72,176.07z"/>
			<path style="fill:#231F20;" d="M633.97,125.28h-80.72v-2.96h82.82C635.32,123.28,634.62,124.27,633.97,125.28z"/>
			<path style="fill:#231F20;" d="M629.81,149.41c0-9,2.87-17.33,7.74-24.13h2.33v-2.96h4.03c-0.62,0.62-1.21,1.26-1.79,1.93
				c-6.021,6.99-9.34,15.92-9.34,25.16c0,4.56,0.779,9,2.29,13.16c1.939,5.35,5.069,10.24,9.27,14.35c0.75,0.74,1.53,1.44,2.34,2.11
				h-4.41v-2.96h-2.739C633.46,168.87,629.81,159.56,629.81,149.41z"/>
			<path style="fill:#231F20;" d="M629.81,149.41c0,10.15,3.65,19.46,9.721,26.66h-3.811c-5.75-7.64-8.87-16.9-8.87-26.66
				c0-8.61,2.5-16.98,7.12-24.13h3.58C632.68,132.08,629.81,140.41,629.81,149.41z"/>
			<path d="M624.18,719.75c-3.8,0.19-7.739-0.3-11.699-1.01C616.35,718.97,620.26,719.3,624.18,719.75z"/>
			<rect x="549.85" y="65.54" style="fill:#231F20;" width="3.4" height="4.44"/>
			<polygon style="fill:#231F20;" points="549.89,74.42 553.25,74.42 553.25,119.35 550.33,119.35 550.3,119.35 			"/>
			<polygon style="fill:#231F20;" points="550.33,119.35 553.25,119.35 553.25,122.32 550.33,122.32 550.3,119.35 			"/>
			<polygon style="fill:#231F20;" points="550.82,176.07 550.36,125.28 553.25,125.28 553.25,176.07 550.85,176.07 			"/>
			<polygon style="fill:#231F20;" points="553.25,182 553.25,226.3 551.33,226.3 551.33,230.74 550.88,182 			"/>
			<rect x="551.33" y="226.3" style="fill:#231F20;" width="1.92" height="4.44"/>
			<rect x="551.33" y="230.74" style="fill:#231F20;" width="1.92" height="4.44"/>
			<polygon style="fill:#231F20;" points="548.81,182 550.85,182 550.88,182 551.33,230.74 551.33,235.18 553.25,235.18 
				553.25,342.99 548.81,342.99 544.37,342.99 544.37,182 548.55,182 			"/>
			<polygon style="fill:#231F20;" points="553.25,179.03 553.25,182 550.88,182 550.85,179.03 			"/>
			<polygon style="fill:#231F20;" points="553.25,176.07 553.25,179.03 550.85,179.03 550.82,176.07 550.85,176.07 			"/>
			<polygon style="fill:#231F20;" points="550.85,182 548.81,182 548.55,182 548.55,176.07 548.81,176.07 550.82,176.07 
				550.85,179.03 550.88,182 			"/>
			<path style="fill:#231F20;" d="M550.7,63.03c-1.96,0.92-4.101,1.57-6.33,1.94v-4.52c1.59-0.31,3.09-0.81,4.439-1.44
				c0.5-0.24,0.99-0.49,1.45-0.77h2.99v0.77v2.6C552.45,62.14,551.6,62.61,550.7,63.03z"/>
			<polygon style="fill:#231F20;" points="550.33,122.32 553.25,122.32 553.25,125.28 550.36,125.28 			"/>
			<polygon style="fill:#231F20;" points="550.33,122.32 550.36,125.28 550.33,125.28 548.81,125.28 548.55,125.28 548.55,119.35 
				548.81,119.35 550.3,119.35 			"/>
			<polygon style="fill:#231F20;" points="549.85,70.01 549.89,74.42 549.85,74.42 			"/>
			<polygon style="fill:#231F20;" points="549.85,69.98 553.25,69.98 553.25,74.42 549.89,74.42 549.85,70.01 			"/>
			<path style="fill:#231F20;" d="M544.37,179.03v-56.71V64.97c2.229-0.37,4.37-1.02,6.33-1.94c0.899-0.42,1.75-0.89,2.55-1.42v3.93
				h-3.4v4.44v0.03v4.41h0.04l0.41,44.93h-1.49h-0.26v5.93h0.26h1.521h0.03l0.46,50.79h-2.011h-0.26V182h-4.18V179.03z"/>
			<path style="fill:#231F20;" d="M544.37,59.01v-0.77h5.89c-0.46,0.28-0.95,0.53-1.45,0.77c-1.35,0.63-2.85,1.13-4.439,1.44V59.01z
				"/>
			<path style="fill:#C8C8C8;" d="M532.1,342.99l4.44-0.01l-0.46-277.95c1.3,0.2,2.63,0.3,3.97,0.3c1.46,0,2.91-0.12,4.32-0.36
				v57.35v56.71V182v160.99H532.1z"/>
			<path style="fill:#C8C8C8;" d="M540.05,41.73c6.26,0,11.75,3.44,11.75,7.35c0,2.23-1.87,4.49-4.88,5.9
				c-2.02,0.96-4.4,1.46-6.87,1.46c-2.359,0-4.649-0.47-6.62-1.34c-3.16-1.41-5.12-3.71-5.12-6.02
				C528.31,45.17,533.8,41.73,540.05,41.73z"/>
			<path style="fill:#231F20;" d="M536.07,60.51c1.27,0.25,2.6,0.37,3.979,0.37c1.5,0,2.94-0.15,4.32-0.43v4.52
				c-1.41,0.24-2.86,0.36-4.32,0.36c-1.34,0-2.67-0.1-3.97-0.3L536.07,60.51z"/>
			<path style="fill:#231F20;" d="M527.18,61.81c0.82,0.53,1.7,0.99,2.63,1.41c1.94,0.87,4.07,1.48,6.271,1.81l0.46,277.95
				l-4.44,0.01L527.65,343C527.65,343,527.23,90.54,527.18,61.81z"/>
			<path style="fill:#231F20;" d="M530.93,58.83h5.141v0.32v1.36c-1.59-0.28-3.08-0.75-4.45-1.35
				C531.39,59.06,531.16,58.95,530.93,58.83z"/>
			<path d="M535.15,479.1c0.17-9.479-3.44-15.199-8.221-19.729c0.45-0.61,0.88-1.23,1.301-1.87l0.34,0.23
				c8.04,11.14,10.04,28.31,24.66,32.88c0.31,11.75,8.59,15.52,11.51,24.659c4.66,0.271,6.85,3.011,11.51,3.28
				c19.43,23.2,66.82,30.01,103.57,42.75c19.47,6.75,35.529,14.771,57.72,17.11l-0.01,0.13c-39.101-3.66-69.99-16.95-105.391-28.75
				c-22.489-7.5-44.109-14.37-55.89-29.59c-4.66-0.28-6.85-3.021-11.51-3.29c-2.521-8.44-11.87-10.05-11.51-21.37
				C545.07,492.2,544.45,481.31,535.15,479.1z"/>
			<path style="fill:#231F20;" d="M533.43,55.1c1.971,0.87,4.261,1.34,6.62,1.34c2.47,0,4.851-0.5,6.87-1.46
				c3.01-1.41,4.88-3.67,4.88-5.9c0-3.91-5.49-7.35-11.75-7.35c-6.25,0-11.74,3.44-11.74,7.35
				C528.31,51.39,530.27,53.69,533.43,55.1z M530.93,58.83c-4.26-2.12-7.069-5.69-7.069-9.75c0-6.51,7.25-11.8,16.189-11.8
				c8.95,0,16.2,5.29,16.2,11.8c0,3.7-2.34,7-5.99,9.16h-5.89v0.77v1.44c-1.38,0.28-2.82,0.43-4.32,0.43
				c-1.38,0-2.71-0.12-3.979-0.37v-1.36v-0.32H530.93z"/>
			<path style="fill:#231F20;" d="M529.81,63.22c-0.93-0.42-1.81-0.88-2.63-1.41c0-1.73,0-2.65,0-2.65v-0.33h3.75
				c0.23,0.12,0.46,0.23,0.69,0.33c1.37,0.6,2.86,1.07,4.45,1.35l0.01,4.52C533.88,64.7,531.75,64.09,529.81,63.22z"/>
			<path style="fill:#231F20;" d="M523.86,49.08c0,4.06,2.81,7.63,7.069,9.75h-3.75v0.33c0,0,0,0.92,0,2.65
				c-4.85-3.03-7.76-7.71-7.76-12.73c0-9.1,9.061-16.24,20.63-16.24c11.57,0,20.641,7.14,20.641,16.24c0,4.96-2.74,9.5-7.44,12.53
				v-2.6v-0.77h-2.99c3.65-2.16,5.99-5.46,5.99-9.16c0-6.51-7.25-11.8-16.2-11.8C531.11,37.28,523.86,42.57,523.86,49.08z"/>
			<path d="M517.06,373.89c-0.069,0.16-0.14,0.31-0.22,0.47l-1.42,1.17c-6.35-6.7-11.88-14.21-17.58-21.55
				C505.5,359.36,511.89,366.03,517.06,373.89z"/>
			<path d="M515.42,375.53l1.42-1.17c-4.32,9.34-11.05,16.54-16.88,24.12l-0.16-0.12C505.31,391.05,508.47,381.4,515.42,375.53z"/>
			<path d="M499.8,398.36l0.16,0.12c-6.51,8.48-11.9,17.44-11.54,30.4c-0.84-7.21-2.689-13.87,0.7-22.11
				C493.76,405.04,497.07,401.99,499.8,398.36z"/>
			<path d="M497.84,353.98c-0.7-0.5-1.42-0.98-2.149-1.46c-0.32-0.88-0.671-1.74-1.04-2.58
				C495.73,351.28,496.78,352.63,497.84,353.98z"/>
			<path d="M536.79,748.71c-14.28,4.89-40.19-1.83-42.74,14.79c-1.22-0.45-2.41-0.79-3.59-1.03l0.3-0.609
				c5.811-13.92,28.62-10.841,44.391-14.801c7.819-16.05,32.72-29.899,55.89-31.229c6.65-0.39,14.08,1.62,21.44,2.91
				C578.77,716.8,547.94,723.54,536.79,748.71z"/>
			<path d="M490.76,442.93c20.29-0.489,34.49-10.6,50.96-1.64c-3.51,6.35-8.56,11.16-13.149,16.44l-0.34-0.23
				c3.09-4.62,5.6-9.82,10.21-12.92c-11.851-14.75-33.33,4.76-50.971-1.65c1.061-3.479,1.351-6.66,1.271-9.689
				C489.11,436.25,489.76,439.47,490.76,442.93z"/>
			<path d="M488.42,428.88c0.16,1.43,0.29,2.87,0.32,4.36C488.56,431.73,488.46,430.28,488.42,428.88z"/>
			<path d="M462.81,322.92c-4.85-24.18-30.649-27.42-46.03-41.09c-17.21,2.81-26.11-6.11-42.74,0c-5.72,0.79-1.84-8.03-6.57-8.22
				c-5.85,6.81-33.76,18.16-36.11,0.45c2.79,1.97,5.16,4.36,6.51,7.77c11.63-0.44,22.83-1.29,26.31-9.87
				c7.56-1.54,6.79,5.27,9.86,8.22c16.23-7.47,23.46,3.08,42.74,0c16.53,13.62,42.36,17.92,47.68,42.74
				c13.91,5.16,24.45,13.7,30.19,27.02C485.93,339.04,476.43,328.93,462.81,322.92z"/>
			<path d="M331.3,273.61c0.02,0.15,0.03,0.3,0.06,0.45c-0.34-0.24-0.69-0.48-1.04-0.71C330.65,273.43,330.98,273.52,331.3,273.61z"
				/>
			<path d="M313.22,260.45c3.49,6.51,11.04,8.95,17.1,12.9c-6.62-1.74-13.85-2.86-15.46-9.61c-6.32,10.67-10.01,23.97-16.44,34.53
				c-8.95-2.01-6.49-15.43-16.44-16.44c-6.89-1.96-2.93,6.92-6.58,8.22c-4.03,2.43-10.56-4.02-19.72-1.65l0.46-1.58
				c6.39,0.01,13.97-1.17,15.98,3.23c4.87-1.16,2.6-9.45,8.22-9.87c10.83,0.13,11.05,10.87,16.44,16.44
				C304.09,286.4,308.52,273.3,313.22,260.45z"/>
			<path d="M326.37,779.94c-30.48-15.011-45.71-45.25-98.64-37.811c-0.37-0.52-0.75-1.05-1.12-1.58l1.12-0.06
				c51.94-7.01,68.5,21.37,96.99,37.81c21.95-1.75,42.38,3.65,62.47,8.22c10.47-22.409,34.66-31.1,59.18-39.46
				c4.05,6.37,9.899,10.931,14.8,16.44c10.67,0.93,20.17-6.66,29.59-1.64l-0.3,0.609c-9.91-2.06-18.67,2.59-29.29,2.681
				c-5.1-5.32-11.11-9.71-14.8-16.44c-25.01,7.86-47.75,18-59.18,39.45C367.4,784.16,347.43,778.04,326.37,779.94z"/>
			<path d="M254.03,286.76c0.68,0.04,1.39,0.06,2.11,0.06l-0.46,1.58c-9.72,23.66-14.59,48.8-24.66,75.62
				c0.1-0.49,0.21-0.97,0.32-1.46C237.23,335.39,246.3,310.44,254.03,286.76z"/>
			<path d="M219.51,699.39c-3.05,16.13-0.09,28.82,8.22,41.101l-1.12,0.06c-7.31-10.649-12.99-24.229-8.74-37.88
				c-6.65-8.37-17.71-3.92-23.02-3.28c-1.9-2.43-1.9-4.149,0-6.58c-16.92-9.38-15.94-36.659-26.3-52.6
				c-3-4.13-11.71-2.54-9.87-11.51c-3.53-0.8-6.51-2.15-9.1-3.88c2.83,0.949,6.23,1.319,9.1,2.229c0.99,6.69,5.91,9.45,11.51,11.51
				c9.87,16.431,8.51,44.101,26.31,52.61c0.2,2.95-2.02,3.46-1.65,6.57C204.5,693.46,209.87,696.31,219.51,699.39z"/>
			<path d="M149.58,624.82c-0.87-0.28-1.68-0.62-2.4-1.051c-0.17-0.399-0.33-0.789-0.51-1.18
				C147.58,623.39,148.55,624.13,149.58,624.82z"/>
			<path d="M99.5,561.3c5.5,13.24-6.15,13.15-6.57,24.66c4.82,3.94,14.22,3.31,23.01,3.28c13.29,8.08,24.22,18.51,30.73,33.35
				c-11.15-9.66-15-26.62-30.73-31.7c-9.75,0.431-18.48-0.149-24.66-3.29c-0.83-13.149,12.42-12.439,6.58-26.3
				c15.74-11.859,32.56,6.891,44.39-8.22c-1.13-29.46-4.47-58.59,9.86-75.62c-0.88-4.61-2.41-8.55-3.29-13.16
				c3.34-7.609,7.65-14.26,14.8-18.08c6.68-0.649,5.06,7,9.86,8.221c9.38-11.58,9.61-30.291,9.86-49.32
				c20.5-9.09,17.24-41.94,44.39-44.39c1.59,0.66,2.26,1.15,2.26,1.53c0,1.48-9.66,1.43-13.77,3.41
				c-13.91,9.65-14.43,32.69-31.23,39.45c-0.31,18.97-0.41,37.81-9.87,49.32c-5.13,4.649-5.39-5.54-9.86-6.58
				c-8.07,1.79-10.16,9.58-14.79,14.8c0.4,5.08,1.66,9.29,3.28,13.149c-13.25,18.591-11.64,46.761-9.86,77.271
				c-4.12,5.189-11.74,6.89-18.08,9.86C120.77,555.72,107.78,558.41,99.5,561.3z"/>
		</g>
		<g>
			<path style="fill:none;stroke:#231F20;" d="M663.53,153.06c1.069-3.64,2.5-7.34,3.87-11.08c2.229-6.07,4.3-12.26,4.369-18.46
				c0.83,6.05,4.841,12.55,4.811,17.18c-3.061,0.38-7.94-1.07-8.93,1.37c4.869,1.35,15.1,2.41,22.58,1.38
				c2.319-0.31,4.369-0.83,5.92-1.59c0.68-0.34,1.26-0.72,1.729-1.16"/>
			<path style="fill:none;stroke:#394EA1;" d="M697.88,140.7c-5.26,0-10.54,0-15.8,0c-0.69,0-1.37,0-2.061,0
				c-2.67-5.6-3.619-12.91-6.42-18.38c-0.529-1.05-1.13-2.03-1.83-2.92c-0.279,0.97-0.55,1.95-0.819,2.92
				c-1.681,6-3.351,12.01-6,17.04c-0.23,0.46-0.48,0.9-0.74,1.34c-7.33,0.45-16.479-0.91-22.67,0.69c1.44,1.19,3.479,1.76,5.85,2.01
				c5.08,0.55,11.63-0.38,16.82,0.05c-0.479,2.68-3.8,6.9-1.81,8.92c0.27,0.27,0.64,0.51,1.13,0.69l16.42-5.91l2.09-0.75l8.19-2.95
				L697.88,140.7z"/>
			<path style="fill:none;stroke:#231F20;" d="M671.09,160.62c-2.8-2.28-5.79-5.2-8.979-7.91c-4.53-3.85-9.471-7.28-14.87-7.83
				c-0.29-0.03-0.59-0.05-0.891-0.06c4.051,3.17,8.931,5.49,12.36,9.28c0.49,0.54,0.96,1.11,1.38,1.71"/>
			<path style="fill:none;stroke:#231F20;" d="M660.09,155.81c-1.71,7-5.96,15.1-6.18,21.3c1.74-1.33,2.93-3.22,3.84-5.39
				c1.94-4.61,2.65-10.47,4.87-14.8c0.07-0.14,0.14-0.28,0.22-0.42c0.561,0.28,1.101,0.73,1.65,1.23c1.939,1.79,3.88,4.33,6.6,2.89
				l-6.6-2.89l-1.87-0.81L660.09,155.81z"/>
			<path style="fill:none;stroke:#231F20;" d="M681.39,155.12c-2.64,1.55-6.409,3.48-10.13,5.77c-5.069,3.12-10.04,6.89-11.99,11.25
				c-0.229,0.51-0.409,1.02-0.55,1.54c3.351-2.83,6.99-5.38,10.7-7.85c1.24-0.83,2.48-1.64,3.73-2.46
				c5.72,5.04,12.1,9.42,18.55,13.74c-0.86-2.77-2.48-4.77-4.44-6.43c-3.75-3.16-8.74-5.08-12.05-8.68
				C676.63,159.07,681.37,159.46,681.39,155.12z"/>
			<path style="fill:none;stroke:#231F20;" d="M696.51,142.53c-4.81,2.59-7.62,7.19-13.06,9.16c-0.84-1.4-0.851-3.62-1.41-5.29
				c-0.41-1.24-1.13-2.18-2.71-2.27c0.2,0.94,0.41,1.95,0.62,3.02c0.49,2.43,1.04,5.16,1.71,7.9c1.439,5.82,3.46,11.76,6.81,15.42
				c0.37,0.41,0.761,0.79,1.17,1.14c-1.09-6.02-3.689-10.51-4.819-16.49c0.35-0.37,0.71-0.73,1.069-1.06
				c5.24-5.05,12.101-8.47,17.48-13.36C700.59,140.82,698.4,141.52,696.51,142.53z"/>
			<path style="fill:none;stroke:#231F20;" d="M663.53,138.63c-3.21-5.5-6.641-10.76-11-15.11
				C655.42,129.33,659.27,134.19,663.53,138.63z"/>
			<path style="fill:none;stroke:#231F20;" d="M682.08,139.32c2.52-5.49,9.41-10.28,9.62-15.8
				C688.95,128.46,680.94,135.02,682.08,139.32z"/>
			<path style="fill:none;stroke:#231F20;" d="M640.85,161.31c6.25-1.54,12.841-2.74,17.181-6.19
				C652.35,157.24,645.47,158.14,640.85,161.31z"/>
			<path style="fill:none;stroke:#231F20;" d="M704.06,162c-3.899-4.11-11.56-4.47-17.18-6.88
				C691.04,158.99,698.77,159.28,704.06,162z"/>
			<path style="fill:none;stroke:#231F20;" d="M672.46,184.67c0.21-1.4,0.49-3.42,0.69-5.64c0.439-4.85,0.489-10.64-1.381-12.91
				c0.301,3.97-0.199,8.74-0.09,12.91C671.72,181.12,671.92,183.06,672.46,184.67z"/>
			<path style="fill:none;stroke:#231F20;stroke-width:6.484;" d="M668.46,680.38c-10,10.76-19.85,21.65-29.56,32.68
				c-2.271,2.561-4.521,5.131-6.761,7.7c-2.649-0.38-5.31-0.72-7.96-1.01c-3.92-0.45-7.83-0.78-11.699-1.01
				c-33.711-1.94-64.54,4.8-75.69,29.97c-14.28,4.89-40.19-1.83-42.74,14.79c-1.22-0.45-2.41-0.79-3.59-1.03
				c-9.91-2.06-18.67,2.59-29.29,2.681c-5.1-5.32-11.11-9.71-14.8-16.44c-25.01,7.86-47.75,18-59.18,39.45
				c-19.79-4-39.76-10.12-60.82-8.22c-30.48-15.011-45.71-45.25-98.64-37.811c-0.37-0.52-0.75-1.05-1.12-1.58
				c-7.31-10.649-12.99-24.229-8.74-37.88c-6.65-8.37-17.71-3.92-23.02-3.28c-1.9-2.43-1.9-4.149,0-6.58
				c-16.92-9.38-15.94-36.659-26.3-52.6c-3-4.13-11.71-2.54-9.87-11.51c-3.53-0.8-6.51-2.15-9.1-3.88c-1.03-0.69-2-1.431-2.91-2.23
				c-11.15-9.66-15-26.62-30.73-31.7c-9.75,0.431-18.48-0.149-24.66-3.29c-0.83-13.149,12.42-12.439,6.58-26.3
				c15.74-11.859,32.56,6.891,44.39-8.22c-1.13-29.46-4.47-58.59,9.86-75.62c-0.88-4.61-2.41-8.55-3.29-13.16
				c3.34-7.609,7.65-14.26,14.8-18.08c6.68-0.649,5.06,7,9.86,8.221c9.38-11.58,9.61-30.291,9.86-49.32
				c20.5-9.09,17.24-41.94,44.39-44.39c1.59,0.66,2.26,1.15,2.26,1.53c0,1.48-9.66,1.43-13.77,3.41
				c-13.91,9.65-14.43,32.69-31.23,39.45c-0.31,18.97-0.41,37.81-9.87,49.32c-5.13,4.649-5.39-5.54-9.86-6.58
				c-8.07,1.79-10.16,9.58-14.79,14.8c0.4,5.08,1.66,9.29,3.28,13.149c-13.25,18.591-11.64,46.761-9.86,77.271
				c-4.12,5.189-11.74,6.89-18.08,9.86c-5.04-7.221-18.03-4.53-26.31-1.641c5.5,13.24-6.15,13.15-6.57,24.66
				c4.82,3.94,14.22,3.31,23.01,3.28c13.29,8.08,24.22,18.51,30.73,33.35c0.18,0.391,0.34,0.78,0.51,1.18
				c0.72,0.431,1.53,0.771,2.4,1.051c2.83,0.949,6.23,1.319,9.1,2.229c0.99,6.69,5.91,9.45,11.51,11.51
				c9.87,16.431,8.51,44.101,26.31,52.61c0.2,2.95-2.02,3.46-1.65,6.57c9.65-4.28,15.02-1.431,24.66,1.649
				c-3.05,16.13-0.09,28.82,8.22,41.101c51.94-7.01,68.5,21.37,96.99,37.81c21.95-1.75,42.38,3.65,62.47,8.22
				c10.47-22.409,34.66-31.1,59.18-39.46c4.05,6.37,9.899,10.931,14.8,16.44c10.67,0.93,20.17-6.66,29.59-1.64
				c5.811-13.92,28.62-10.841,44.391-14.801c7.819-16.05,32.72-29.899,55.89-31.229c6.65-0.39,14.08,1.62,21.44,2.91
				c3.96,0.71,7.899,1.2,11.699,1.01c1.59-0.08,3.15-0.29,4.67-0.64c2.811-0.65,6.25-2.851,10.051-6.051
				c9.01-7.579,20.06-20.829,29.6-32.729c-0.01,0.02-0.03,0.04,0,0c7.56-9.43,14.13-17.96,17.89-22.04
				c29.03-31.46,53.841-51.13,80.551-78.91c-10.381,0.36-20.12,0.03-29.41-0.84c-39.101-3.66-69.99-16.95-105.391-28.75
				c-22.489-7.5-44.109-14.37-55.89-29.59c-4.66-0.28-6.85-3.021-11.51-3.29c-2.521-8.44-11.87-10.05-11.51-21.37
				c-8.16-3.34-8.78-14.23-18.08-16.44c0.17-9.479-3.44-15.199-8.221-19.729c0.45-0.61,0.88-1.23,1.301-1.87
				c3.09-4.62,5.6-9.82,10.21-12.92c-11.851-14.75-33.33,4.76-50.971-1.65c1.061-3.479,1.351-6.66,1.271-9.689
				c-0.03-1.49-0.16-2.931-0.32-4.36c-0.84-7.21-2.689-13.87,0.7-22.11c4.64-1.73,7.95-4.78,10.68-8.41
				c5.51-7.31,8.67-16.96,15.62-22.83c-6.35-6.7-11.88-14.21-17.58-21.55c-1.06-1.35-2.109-2.7-3.189-4.04
				c-8.721-10.9-18.221-21.01-31.841-27.02c-4.85-24.18-30.649-27.42-46.03-41.09c-17.21,2.81-26.11-6.11-42.74,0
				c-5.72,0.79-1.84-8.03-6.57-8.22c-5.85,6.81-33.76,18.16-36.11,0.45c-0.03-0.15-0.04-0.3-0.06-0.45
				c-0.32-0.09-0.65-0.18-0.98-0.26c-6.62-1.74-13.85-2.86-15.46-9.61c-6.32,10.67-10.01,23.97-16.44,34.53
				c-8.95-2.01-6.49-15.43-16.44-16.44c-6.89-1.96-2.93,6.92-6.58,8.22c-4.03,2.43-10.56-4.02-19.72-1.65
				c-9.72,23.66-14.59,48.8-24.66,75.62c0.1-0.49,0.21-0.97,0.32-1.46c5.89-27.17,14.96-52.12,22.69-75.8
				c0.68,0.04,1.39,0.06,2.11,0.06c6.39,0.01,13.97-1.17,15.98,3.23c4.87-1.16,2.6-9.45,8.22-9.87
				c10.83,0.13,11.05,10.87,16.44,16.44c7.31-10.22,11.74-23.32,16.44-36.17c3.49,6.51,11.04,8.95,17.1,12.9
				c0.35,0.23,0.7,0.47,1.04,0.71c2.79,1.97,5.16,4.36,6.51,7.77c11.63-0.44,22.83-1.29,26.31-9.87c7.56-1.54,6.79,5.27,9.86,8.22
				c16.23-7.47,23.46,3.08,42.74,0c16.53,13.62,42.36,17.92,47.68,42.74c13.91,5.16,24.45,13.7,30.19,27.02
				c0.369,0.84,0.72,1.7,1.04,2.58c0.729,0.48,1.449,0.96,2.149,1.46c7.66,5.38,14.05,12.05,19.22,19.91
				c-0.069,0.16-0.14,0.31-0.22,0.47c-4.32,9.34-11.05,16.54-16.88,24.12c-6.51,8.48-11.9,17.44-11.54,30.4
				c0.04,1.4,0.14,2.851,0.32,4.36c0.37,3.01,1.02,6.229,2.02,9.689c20.29-0.489,34.49-10.6,50.96-1.64
				c-3.51,6.35-8.56,11.16-13.149,16.44c8.04,11.14,10.04,28.31,24.66,32.88c0.31,11.75,8.59,15.52,11.51,24.659
				c4.66,0.271,6.85,3.011,11.51,3.28c19.43,23.2,66.82,30.01,103.57,42.75c19.47,6.75,35.529,14.771,57.72,17.11
				c9.52,1,20.17,0.96,32.69-0.67C735.35,610.97,701.26,644.98,668.5,680.33"/>
			<polyline style="fill:none;stroke:#231F20;stroke-width:6.484;" points="515.42,375.53 516.84,374.36 558.11,340.37 			"/>
			<polyline style="fill:none;stroke:#231F20;stroke-width:6.484;" points="255.68,288.4 256.14,286.82 276.52,216.25 			"/>
			<polyline style="fill:none;stroke:#231F20;stroke-width:6.484;" points="227.73,740.49 226.61,740.55 152.4,744.23 			"/>
			<polyline style="fill:none;stroke:#231F20;stroke-width:6.484;" points="490.76,761.86 490.46,762.47 474.75,794.25 			"/>
			<line style="fill:none;stroke:#231F20;stroke-width:6.484;" x1="541.72" y1="441.29" x2="565.52" y2="418.18"/>
		</g>
	</g>
</g>
<rect x="0.25" y="0.25" style="fill-rule:evenodd;clip-rule:evenodd;fill:none;" width="850.394" height="850.394"/>
</svg>
