<?xml version="1.0" encoding="iso-8859-1"?>
<!-- Generator: Adobe Illustrator 12.0.1, SVG Export Plug-In . SVG Version: 6.00 Build 51448)  -->
<!DOCTYPE svg PUBLIC "-//W3C//DTD SVG 1.1//EN" "http://www.w3.org/Graphics/SVG/1.1/DTD/svg11.dtd" [
	<!ENTITY ns_svg "http://www.w3.org/2000/svg">
	<!ENTITY ns_xlink "http://www.w3.org/1999/xlink">
]>
<svg  version="1.1" id="Layer_1" xmlns="&ns_svg;" xmlns:xlink="&ns_xlink;" width="850.89" height="850.89"
	 viewBox="0 0 850.89 850.89" style="overflow:visible;enable-background:new 0 0 850.89 850.89;" xml:space="preserve">
<g>
	<g id="XMLID_1_">
		<g>
			<path style="fill:#FFF5B4;" d="M135.32,628.24c-2.24-4.351-2.25-9.44-7.87-11.811c-2.22,0.15-0.98,3.74-3.94,3.15
				c-0.43-4.71-4.6-7.87-7.08-12.59c0.82-2.33,4.52-1.78,4.72-4.721c-1.34-4.569-1.9-8.01-0.78-13.39
				c-2.39-3.64-6.19-5.87-7.87-10.229c1.04-1.771,5.95-7.061,0.79-7.87c5.02,0.76,10.01-1.5,14.16-5.511
				c-1.31-7.64,1.27-13.109,3.15-21.25c3.45,0.521,6.49-2.55,10.23-3.93c3.9,8.43,12.27,12.391,17.32,19.67
				c1.45-4.569,5.28-6.79,7.08-11.02c16.39,0.05,26.17,5.26,42.5,1.58c0.87-3.311-0.77-8.42,3.94-9.45c0.21,2.84-1.45,3.8-1.57,6.3
				c0.52,0.05,1.04,0.09,1.56,0.13c40.55,3.49,86.75,1.32,128.3,3.8c3.4-8.14,3.14-19.949,6.3-28.33
				c-1.49-4.55-7.05-5.02-9.44-8.659c-8.39-98.92-18.53-196.081-27.55-294.37c8.71,1.86,19.61,0.31,30.28-0.65
				c5.52,0.09,10.97,0,16.2-0.43c3.34,0.25,6.51,0.82,9.4,1.87c0.5,0.18,1.06,0.43,1.65,0.73c3.73,2.56,7.44,5.12,11.15,7.68
				c0.02,0.02,0.04,0.03,0.06,0.04c4.28,3.31,8.54,6.76,11.54,8.86c56.561,39.6,111.51,79.72,169.22,117.28
				c0.79,4.46-2.35,4.99-1.569,9.45c4.71,3.21,11.78,4.05,15.84,7.92c1.59,1.51,2.71,3.48,3.05,6.24
				c6.13,1.98,12.36,6.88,17.32,1.58c3.6,1.38,4.689,5.27,7.08,7.87c10.01,1.8,18.96,4.65,26.76,8.66
				c-1.46,5.16-0.59,9.84,1.57,13.38c-2.351,1.57-3.311,4.55-4.721,7.08c2.381,4.49,5.98,6.12,10.2,6.29
				c0.01,0,0.021,0.01,0.03,0.01s0.01,0,0.02-0.01c7.87,0.29,17.851-4.52,25.96-5.5c1.75,31.75,5.66,61.78,3.15,93.66
				c-6.14,7.15-5.84,15.94-8.66,25.98c-5.93,1.93-10.99,4.75-11.81,11.8c-5.74-0.03-10.42-1.12-15.74-1.57
				c-2.14-0.57,0.56,3.71-1.57,3.14c-19.739,0.21-37.6,2.29-55.89,3.94c-4,3.34-7.67,7.02-11.021,11.02
				c-3.949-0.279-6.859,0.48-9.439,1.57h-0.79c-3.69-1.979-10.25-1.64-11.67,0.54l-1.91-0.229c0.271-0.391,0.6-0.761,0.99-1.091
				c-4.311-1.399-5.59,3.141-11.021,0h-0.79c-4.09-3.649-8.489-2.859-12.59,0c-0.66-4.75-6.63-3.76-9.45-3.149
				c-4.64,1.01-7.59,8.62-12.59,11.02c-1.81,0.87-4.529,0.25-6.3,0.78c-6.86,2.08-10.34,7.91-14.95,9.45c-3.149,0-6.3,0-9.45,0
				c-1.8,2.91,0.351,9.79-2.359,11.81c-5.63,0.01-8.88-4.62-14.17-3.939c-2.221,0.29-3.311,1.93-5.19,3.91
				c-0.359,0.25-0.72,0.51-1.1,0.81c-0.82,0.64-1.561,1.28-2.25,1.95c-1.55,0.68-4.28,1.12-4.84,1.99c-2.58,4-0.86,9.77-1.57,14.17
				c-4.3,0.609-8.75-3.221-11.81-3.15c-0.13,3.16-1.82,11.11,0.79,14.95c-3.22-0.76-5.04,1.95-7.08,0c0,1.58,0,3.149,0,4.729
				c-7.17-0.97-8.72-7.55-16.53-7.88c0.31-2.68,2.42-1.29,0-3.14c-4.97,0.64-8.91,8.85-14.17,11.8c1.02,4.86,6.25,8.46,3.94,14.17
				c-1.37,0.97-5.23-0.6-8.66,0c3.07,6.84,0.72,8.17,2.36,13.38c-3.55,2.48-6.04,6.021-7.87,10.23c-8.1,0.729-17.34,4.67-26.76,7.87
				c-0.73,3.09,4.15,0.569,4.72,2.359c0.92,7.24,2.74,15.37-1.57,22.83c-2.98,1.33-3.82,0.7-6.3,1.57
				c2.6,7.51,1.89,13.74-0.79,21.26c-9.87-0.55-12.88,3.37-17.31,9.44c-3.6,0.71-4.46-1.311-7.09-1.57c4.08-6.56,0.35-11.21,0-17.32
				c-1.89-1.899-2.08,1.91-5.51,0.79c-2.25,0.11-1.44,3.28-1.57,5.511c-3.52-0.16-4.47-2.881-7.08-3.94
				c-3.49,2.39-1.7,6.62-0.79,10.229c-3.1-0.51-6.26,0.2-10.23,0c-2.58,1.351-1.07,4.44-0.79,7.091c-3.06,0.71-6.13-4.71-12.59-3.15
				c1.45-5.13-4.87-2.49-3.15-7.87c-4.96,0.69-5.59,0.92-8.66,0.79c-4.17,2.39-3.79,9.32-10.23,9.44
				c3.75-4.721-3.93-10.34-8.46-9.471c-0.22-0.26-0.42-0.54-0.62-0.819c-3.16-6.761-0.38-13.78-2.04-20.011
				c0.03-0.13,0.07-0.27,0.1-0.399c-0.08-0.05-0.17-0.09-0.25-0.13c-0.15-0.49-0.33-0.971-0.54-1.44
				c-6.91-1.93-5.88,4.09-11.81,3.15c2.22-5.66,6.19-9.561,11.81-11.811c0.17-3.609-5.29-5.5-10.23-6.3
				c0.21-2.83-1.45-3.79-1.58-6.29c-0.62-2-2.75,2.21-3.93,0c1.8-4.49,1.22-7.95,0-11.02c-1.82-4.61-5.08-8.351-3.94-13.38
				c-3.18-3.641-7.54-6.101-14.95-5.511c-2.46,2.021,3.41,5.04,0.79,7.08c-2.76,2.3-12.23,1.7-12.6,8.66
				c-6.21-2.45-12.5-4.82-18.1-7.87c-6.28,1.931-11.07,5.36-14.18,10.46c-0.29,0.36-0.57,0.73-0.86,1.13
				c-3.86-9.5-11.25-18.04-18.02-5.29c-5.19-0.06-6.35-4.149-9.44-6.3c1.97-2.229,1.98-6.42,4.72-7.87c-2.66-8.22-0.82-10.68,0-18.1
				c3.44-1.08,1.68,3.05,4.72,2.36c-0.24-3.96-2.53-5.87-3.14-9.45C137,626.58,137.24,630.23,135.32,628.24z"/>
			<polygon style="fill:#ED1E29;" points="808.49,59.81 808.49,213.63 731.47,213.63 731.47,212.75 731.47,60.48 731.47,59.81 			
				"/>
			<polygon style="fill:#FBED24;" points="731.47,212.75 731.47,213.63 652.91,213.63 652.91,211.94 652.91,62.1 652.91,59.81 
				731.47,59.81 731.47,60.48 			"/>
			<path style="fill:#FFFFFF;" d="M654.01,677.82c-0.14-0.11-0.279-0.21-0.42-0.311c0.04-0.27,0.09-0.529,0.13-0.79
				C653.8,677.09,653.9,677.45,654.01,677.82z"/>
			<polygon style="fill:#34A047;" points="652.91,213.63 573.79,213.63 573.79,59.81 652.91,59.81 652.91,62.1 652.91,211.94 			"/>
			<path style="fill:#FFFFFF;" d="M665.82,615.65c7.91-5.73,15.899-11.391,27.55-13.381v1.57c-12.21,1.18-19.521,7.24-26.76,13.38
				c7.71,16.65-6.44,25.58-14.17,33.84c1.689,9.61,2.47,17.771,1.279,25.66c-2.18-8.88,0.391-17.729-2.069-27.229
				C660.51,643,672.29,632.37,665.82,615.65z"/>
			<path style="fill:#FFFFFF;" d="M634.35,423.59c-0.01,0.01-0.01,0.01-0.02,0.01s-0.021-0.01-0.03-0.01
				C634.31,423.6,634.33,423.6,634.35,423.59z"/>
			<path style="fill:#FFFFFF;" d="M593.41,380.31c-4.96,5.3-11.19,0.4-17.32-1.58c-0.34-2.76-1.46-4.73-3.05-6.24l0.1-0.1
				c5.78,5.69,10.79,11.67,20.271,7.13c4.39,1.38,5.6,5.94,8.649,8.66c10.761,0.79,19.181,3.91,25.98,8.66
				c-0.99,6.58-0.38,9.31,2.36,13.38c-2.801,1.65-3.92,5-5.511,7.87c3.44,1.53,5.42,4.51,9.41,5.5c-4.22-0.17-7.819-1.8-10.2-6.29
				c1.41-2.53,2.37-5.51,4.721-7.08c-2.16-3.54-3.03-8.22-1.57-13.38c-7.8-4.01-16.75-6.86-26.76-8.66
				C598.1,385.58,597.01,381.69,593.41,380.31z"/>
			<polygon style="fill:#FFFFFF;" points="573.79,59.81 573.79,213.63 573.77,213.63 572.35,59.81 572.36,59.81 			"/>
			<path style="fill:#C8C8C8;" d="M573.79,213.63v108.2H557.8l-0.46-271.56c2.351,1.05,5.11,1.65,8.07,1.65
				c3.09,0,5.96-0.66,8.38-1.79v9.68h-1.43h-0.011l1.42,153.82H573.79z"/>
			<path style="fill:#C8C8C8;" d="M557.34,50.27c-4.45-1.98-7.42-5.56-7.42-9.64c0-6.24,6.94-11.29,15.49-11.29
				c8.56,0,15.49,5.05,15.49,11.29c0,3.98-2.83,7.49-7.11,9.5c-2.42,1.13-5.29,1.79-8.38,1.79
				C562.45,51.92,559.69,51.32,557.34,50.27z"/>
			<path style="fill:#FFFFFF;" d="M558.77,566.06l0.04,0.07c-2.71,1.51-5.79,2.28-9.479,1.5
				C551.91,566.54,554.82,565.78,558.77,566.06z"/>
			<path style="fill:#FFFFFF;" d="M536.87,568.17c1.42-2.18,7.979-2.52,11.67-0.54c-3.41,0.37-7.09-1.18-11.81,0.79
				C536.77,568.33,536.81,568.25,536.87,568.17z"/>
			<path style="fill:#FFFFFF;" d="M568.22,623.51c-6.5-1.71-10.05-12.26-22.04-11.01c0.21-6.82-11.88-11.26-7.08-20.47
				c-1.96-3.29-6.42-4.07-8.659-7.08c1.979-4.641,2.18-10.45,2.359-14.95c-2.729-0.95-6.109-1.24-7.87-3.15
				c5.431,3.141,6.71-1.399,11.021,0c-0.391,0.33-0.72,0.7-0.99,1.091c-2.64,3.85-0.229,10.689-2.95,17.01
				c2.11,2.87,7.03,2.939,7.88,7.08c0.601,2.97-0.97,3.77-0.79,6.3c0.891,5.93,10.62,8.71,7.87,13.38
				c6.04-1.92,4.78,2.24,11.021,1.58c2.01,5.33,7.96,6.72,11.8,10.22c-2.81,2.721-5.07,0.49-8.65,0c0,3.42,0,6.83,0,10.24
				c11.99,2.17,13.74,14.59,27.54,14.96c5.61-7.41,17.931-5.05,16.53,7.08c-2.82-1.521-2.88,0.3-5.51,0.78
				c2.92,5.75,5.569,11.76,11.81,14.17c-1.46-3.26-3.77-5.681-3.149-11.021c8.729,0.681,11.6-4.91,18.1-3.93
				c6.5,0.979,8.16,8.61,13.38,13.38c4.58,4.17,9.82,5.48,13.75,8.34c-0.109,0.63-0.229,1.26-0.359,1.891
				c-3.33-3.92-9.181-4.891-14.171-9.45c-5.39-4.92-7.069-12.95-14.17-13.38c-5.58-0.33-7.859,5.38-15.739,3.939
				c-0.98,5.4,4.67,7.62,3.14,11.021c-7.62,0.59-9.99-10.311-14.95-14.96c2.891-0.261,3.18-3.12,7.09-2.36
				c-0.979-3.21-2.1-9.16-7.09-9.44c-2.77-0.159-6.46,4.41-8.66,4.721c-12.18,1.72-16.38-12.13-28.33-15.74
				c-1.739-3.16,0.11-8.54,0.79-11.81C564.36,622.16,565.28,625.14,568.22,623.51z"/>
			<path d="M530.56,571.7c-3.409,0.37-7.09-1.181-11.81,0.79C519.81,570.09,526.73,569.64,530.56,571.7z"/>
			<path style="fill:#FFFFFF;" d="M502.1,563.7c2.82-0.61,8.79-1.601,9.45,3.149c4.101-2.859,8.5-3.649,12.59,0
				c-5.04-1.949-8.42-1.47-12.59,0.78c-9.59-9.92-15,4.65-22.04,7.87c-2.17,1-5.569,0.62-7.87,1.58
				c-8.06,3.37-11.359,11.93-22.83,9.45c-0.5,3.16,1.03,8.359-0.779,10.229c-0.54,0.07-1.061,0.12-1.57,0.141l-0.01-0.141
				c2.71-2.02,0.56-8.899,2.359-11.81c3.15,0,6.301,0,9.45,0c4.61-1.54,8.09-7.37,14.95-9.45c1.771-0.53,4.49,0.09,6.3-0.78
				C494.51,572.32,497.46,564.71,502.1,563.7z"/>
			<path style="fill:#FFFFFF;" d="M558.77,355.12c-57.71-37.56-112.659-77.68-169.22-117.28c-3-2.1-7.26-5.55-11.54-8.86
				c60.681,41.89,120.351,84.77,181.55,126.14c0.7,4.37-1.51,5.84-1.569,9.45c6.64-0.05,11.08,3.82,15.149,7.82l-0.1,0.1
				c-4.06-3.87-11.13-4.71-15.84-7.92C556.42,360.11,559.56,359.58,558.77,355.12z"/>
			<path style="fill:#FFFFFF;" d="M456.45,596.76l0.01,0.141c-7.85,0.359-12.11-5.051-19.37-0.17c1.88-1.98,2.97-3.62,5.19-3.91
				C447.57,592.14,450.82,596.77,456.45,596.76z"/>
			<path style="fill:#FFFFFF;" d="M435.99,597.54c0.38-0.3,0.74-0.56,1.1-0.81c-0.729,0.76-1.58,1.579-2.67,2.39
				c-0.18,0.13-0.41,0.25-0.68,0.37C434.43,598.82,435.17,598.18,435.99,597.54z"/>
			<path style="fill:#FFFFFF;" d="M434.42,764.4c-0.68-1.601,1.23-4.33,1.57-2.36c-1.09,0.49-0.12,3.03-1.57,3.15
				c-4.81-0.841-6.42-4.881-7.63-9.32C429.02,759.02,431.3,762.13,434.42,764.4z"/>
			<path style="fill:#FFFFFF;" d="M426.54,754.96c0.08,0.3,0.16,0.6,0.24,0.89c-0.23-0.31-0.45-0.63-0.67-0.939
				C426.25,754.94,426.39,754.95,426.54,754.96z"/>
			<path style="fill:#FFFFFF;" d="M366.8,221.26c3.01,1.55,7.09,4.54,11.15,7.68C374.24,226.38,370.53,223.82,366.8,221.26z"/>
			<path style="fill:#FFFFFF;" d="M339.55,219.09c5.58-0.49,11.1-0.83,16.2-0.43C350.52,219.09,345.07,219.18,339.55,219.09z"/>
			<path style="fill:#FFFFFF;" d="M368.3,670.74c1.83-4.21,4.32-7.75,7.87-10.23c-1.64-5.21,0.71-6.54-2.36-13.38
				c3.43-0.6,7.29,0.97,8.66,0c2.31-5.71-2.92-9.31-3.94-14.17c5.26-2.95,9.2-11.16,14.17-11.8c2.42,1.85,0.31,0.46,0,3.14
				c7.81,0.33,9.36,6.91,16.53,7.88c0-1.58,0-3.149,0-4.729c2.04,1.95,3.86-0.76,7.08,0c-2.61-3.84-0.92-11.79-0.79-14.95
				c3.06-0.07,7.51,3.76,11.81,3.15c0.71-4.4-1.01-10.17,1.57-14.17c0.56-0.87,3.29-1.311,4.84-1.99
				c-4.61,4.37-6.311,9.17-5.62,16.939c-5.62,1.271-7.63-1.25-11.81-3.14c-0.5,6.08-0.08,9.01,0.79,14.95
				c-3.05-0.42-3.84,1.41-7.09,0.79c-0.42,1.14,0.92,4.06-0.78,3.93c-8.9-1.479-13.38-9.69-20.46-8.66
				c-2.82,3.67-6.09,7.71-8.66,9.45c1.79,3.97,5.99,10.33,2.36,14.96c-2.6-0.04-3.92-1.34-7.09-0.79c1.86,4.34,0.78,9.14,2.36,14.95
				c-7.18,0.34-4.98,5.3-8.65,8.66c-7.13,2.84-17.46,2.489-22.83,7.08c2.16,6.21,4.95,19.83-1.47,25.3l-0.1-0.11
				c4.31-7.46,2.49-15.59,1.57-22.83c-0.57-1.79-5.45,0.73-4.72-2.359C350.96,675.41,360.2,671.47,368.3,670.74z"/>
			<path style="fill:#FFFFFF;" d="M343.02,205.04c7.95,5.39,15.88,10.8,23.78,16.22c-0.59-0.3-1.15-0.55-1.65-0.73
				c-2.89-1.05-6.06-1.62-9.4-1.87c1.58-0.13,3.14-0.29,4.68-0.49c-7.68-5.44-18.49-11.95-23.61-17.32
				C338.89,202.25,340.95,203.64,343.02,205.04z"/>
			<path style="fill:#FFFFFF;" d="M211.67,547.17c42.62,0.93,85.27,1.83,128.29,2.36c1.3-9.46,3.42-18.101,4.73-27.55
				c-2.19-3.051-6.37-4.12-8.66-7.08c-8.57-99.53-19.23-196.96-27.55-296.73c9.9,0.05,20.6,0.78,31.07,0.92
				c-10.67,0.96-21.57,2.51-30.28,0.65c9.02,98.29,19.16,195.45,27.55,294.37c2.39,3.64,7.95,4.109,9.44,8.659
				c-3.16,8.381-2.9,20.19-6.3,28.33c-41.55-2.479-87.75-0.31-128.3-3.8L211.67,547.17z"/>
			<path style="fill:#FFFFFF;" d="M246.3,743.94c3.81,5.01-3.4,15.229,3.15,18.89c3.29,0.83,5.33-1.66,7.08,0
				c-0.25,2.89-1.94,4.36-2.36,7.08c1.15,1.74,4.21,1.56,4.72,3.939c-1.35,2.051-2.83,3.99-6.29,3.94c1.2-1.95,4.89-1.41,4.72-4.73
				c-1.48-1.14-4.09-1.149-4.72-3.149c0.67-2.21,2.54-3.23,2.36-6.29c-14.75,3.41-6.17-14.19-10.23-20.47
				c2.13-4.42,8.7-4.41,7.87-11.801c-3.54-0.56-6.4-2.22-8.46-4.75c4.53-0.869,12.21,4.75,8.46,9.471
				c6.44-0.12,6.06-7.051,10.23-9.44c3.07,0.13,3.7-0.1,8.66-0.79c-1.72,5.38,4.6,2.74,3.15,7.87c6.46-1.56,9.53,3.86,12.59,3.15
				c-0.28-2.65-1.79-5.74,0.79-7.091c3.97,0.2,7.13-0.51,10.23,0c-0.91-3.609-2.7-7.84,0.79-10.229c2.61,1.06,3.56,3.78,7.08,3.94
				c0.13-2.23-0.68-5.4,1.57-5.511c3.43,1.12,3.62-2.689,5.51-0.79c0.35,6.11,4.08,10.761,0,17.32c2.63,0.26,3.49,2.28,7.09,1.57
				c4.43-6.07,7.44-9.99,17.31-9.44c2.68-7.52,3.39-13.75,0.79-21.26c2.48-0.87,3.32-0.24,6.3-1.57l0.1,0.11
				c-1.4,1.189-3.24,2-5.62,2.25c4.25,6.16,1.76,15.979-2.35,22.04c2.33,4.229,9.18,3.93,14.95,4.72c2.17,10.17,9.66,15,14.95,22.04
				c2.03-2.33,3.36-0.479,5.51-2.36c0.78,3.16,3.72,4.15,7.09,4.721c-0.51-2.87,0.53-4.19,1.57-5.511
				c5.38-0.439,11.01-5.149,17.32-6.3c8.77-1.59,15.38,2.94,21.25,1.58c2.63,2.2,4.65,5,6.65,7.82c-3.38-0.4-4.66-2.891-5.86-5.46
				c-6.4-0.25-12.64-4.41-22.83-3.15c-5.14,4.44-10.68,4.19-16.53,7.09c-1.69,0.66,0.3,5.011-1.57,5.5
				c-3.51-0.949-6.74-2.17-7.87-5.5c-0.16,2.721-4.34,1.431-6.3,2.36c-1.16-4.62-4.84-6.71-8.66-8.66
				c-1.26-6.08-4.47-10.22-7.87-14.17c-7.41,2.05-9.3-1.68-13.38-4.72c-8.85-0.72-10.94,5.319-14.95,9.45
				c-2.46-1.221-6.53-0.82-7.87-3.15c-0.45-3.6,2.97-3.33,2.36-7.09c-5.53-1.92,0.59-6.12-3.15-9.44c-0.15,1.16-1.9,0.721-3.15,0.78
				c-3.61,0.43,1.41,4.92-2.36,5.51c-4.44,0.98-5.03-5.01-7.87-3.14c-1.84,5.26,3.14,5.88,0,10.229c-4.55-2.25-5.7,0.62-10.23-0.79
				c-1.4,2.65,1.73,6.301-1.58,7.87c-3.86-1.91-6.68-4.859-13.38-3.93c1.72-5.39-4.6-2.74-3.15-7.87c-2.69,1.23-3.66,1.83-7.08,0.78
				C260.67,736.27,249.85,736.47,246.3,743.94z"/>
			<path style="fill:#FFFFFF;" d="M244.14,726.6c-0.07,0-0.14,0.011-0.2,0.03c-0.15-0.28-0.3-0.57-0.42-0.85
				C243.72,726.06,243.92,726.34,244.14,726.6z"/>
			<path style="fill:#FFFFFF;" d="M241.48,705.77c1.66,6.23-1.12,13.25,2.04,20.011C240.29,721.16,239.43,714.11,241.48,705.77z"/>
			<path style="fill:#FFFFFF;" d="M241.58,705.37c-0.03,0.13-0.07,0.27-0.1,0.399c-0.04-0.18-0.09-0.359-0.15-0.529
				C241.41,705.28,241.5,705.32,241.58,705.37z"/>
			<path style="fill:#FFFFFF;" d="M230.56,688.84c4.94,0.8,10.4,2.69,10.23,6.3c-5.62,2.25-9.59,6.15-11.81,11.811
				c5.93,0.939,4.9-5.08,11.81-3.15c0.21,0.47,0.39,0.95,0.54,1.44c-5.91-2.971-7.1,4.84-13.92,1.71
				c2.17-4.66,5.54-8.11,8.66-11.811c0.99,1.07,4.45,1.221,2.36-0.79c0.91-2.55-4.98-4.22-8.66-4.72c0.14-6.61-3.67-4.6-6.29-7.87
				c1.23-2.71,1.84-6.02,1.57-10.229c1.22,3.069,1.8,6.529,0,11.02c1.18,2.21,3.31-2,3.93,0
				C229.11,685.05,230.77,686.01,230.56,688.84z"/>
			<path style="fill:#FFFFFF;" d="M206.95,659.72c2.62-2.04-3.25-5.06-0.79-7.08c7.41-0.59,11.77,1.87,14.95,5.511
				c-1.14,5.029,2.12,8.77,3.94,13.38c-5.13-1.59-1.9-6.71-6.3-8.66c-0.38-2.48,1.42-2.78,0.79-5.51
				c-4.21-2.23-7.65-4.311-12.59-3.94c0.43,3.16,2.76,5.29,0.78,8.67c-7.55-1-10.11,3-13.36,6.311l-0.02-0.021
				C194.72,661.42,204.19,662.02,206.95,659.72z"/>
			<path style="fill:#FFFFFF;" d="M194.35,668.38l0.02,0.021c-0.26,0.26-0.53,0.52-0.8,0.77c-12.93-7.24-23.26-8.5-31.5,1.8
				c3.11-5.1,7.9-8.529,14.18-10.46C181.85,663.56,188.14,665.93,194.35,668.38z"/>
			<path style="fill:#FFFFFF;" d="M162.07,670.97c-0.27,0.44-0.53,0.891-0.77,1.351c-0.03-0.07-0.06-0.15-0.09-0.221
				C161.5,671.7,161.78,671.33,162.07,670.97z"/>
			<path style="fill:#FFFFFF;" d="M135.32,652.64c-13.43,1.86-19.86-1.479-30.69,3.15c-1.75-1.07-2.98-2.64-4.59-3.84
				c2.34,0.689,4.49,1.359,6.16,2.26c8.37-3.75,17.51-2.03,29.12-1.64V652.64z"/>
			<path style="fill:#FFFFFF;" d="M132.96,660.51c0.46-2.79,3.54-5.92,2.36-7.87v-0.069c0.77,0.04,1.56,0.06,2.36,0.069
				c-3.79-5.93-0.59-13.319-0.79-18.1c-0.83,0.729-0.24,2.9-2.36,2.36c2.28-7.841-1.47-14.04-6.29-18.11
				c-2.3-2.2-1.52,3.1-4.73,2.37c-1.81-5.73-5.71-8.13-7.86-14.96c8.1-3.69,0.3-9.62,3.93-17.32c-2.95-2.55-5.62-5.399-7.87-8.649
				c-1.03-4.7,2.76-4.591,2.36-8.66c-0.28-0.23-0.57-0.45-0.87-0.66l0.09-0.13c5.16,0.81,0.25,6.1-0.79,7.87
				c1.68,4.359,5.48,6.59,7.87,10.229c-1.12,5.38-0.56,8.82,0.78,13.39c-0.2,2.94-3.9,2.391-4.72,4.721
				c2.48,4.72,6.65,7.88,7.08,12.59c2.96,0.59,1.72-3,3.94-3.15c5.62,2.37,5.63,7.46,7.87,11.811c1.92,1.99,1.68-1.66,4.73-0.79
				c0.61,3.58,2.9,5.49,3.14,9.45c-3.04,0.689-1.28-3.44-4.72-2.36c-0.82,7.42-2.66,9.88,0,18.1c-2.74,1.45-2.75,5.641-4.72,7.87
				c3.09,2.15,4.25,6.24,9.44,6.3c6.77-12.75,14.16-4.21,18.02,5.29c-0.23,0.32-0.47,0.65-0.7,1c-4.25-2.409-4.08-13.08-9.45-11.8
				c-4.95,0.55-4.45,6.57-9.44,7.08C137.92,666.57,134.98,664,132.96,660.51z"/>
			<path style="fill:#FFFFFF;" d="M100.04,651.95c-0.07-0.01-0.14-0.04-0.21-0.05c0.02-0.021,0.05-0.03,0.07-0.051
				C99.95,651.88,100,651.92,100.04,651.95z"/>
			<path style="fill:#FFFFFF;" d="M99.83,651.9c-3.58,2.27-11.91-3-12.52-5.561C90.82,649.31,95.6,650.65,99.83,651.9z"/>
			<path style="fill:#FFFFFF;" d="M105.41,559.76c0.41,8.78,7.65,8.28,13.38,10.24c2.36-2.11,5.77-3.16,7.88-5.52
				c-2.81-8.271,2.02-14.24,3.93-22.03c5.48,0.75,6.29-3.16,11.02-3.15c3.42,8.38,11.77,11.84,16.53,18.891
				c0.32-5.181,5.4-5.61,6.29-10.23c18.68-0.32,27.73,5.88,43.29,0c-3.08-3.03,0.27-7.82,4.73-7.87c0.61,3.24-1.21,4.04-0.79,7.08
				l-0.01,0.13c-0.52-0.04-1.04-0.08-1.56-0.13c0.12-2.5,1.78-3.46,1.57-6.3c-4.71,1.03-3.07,6.14-3.94,9.45
				c-16.33,3.68-26.11-1.53-42.5-1.58c-1.8,4.229-5.63,6.45-7.08,11.02c-5.05-7.279-13.42-11.24-17.32-19.67
				c-3.74,1.38-6.78,4.45-10.23,3.93c-1.88,8.141-4.46,13.61-3.15,21.25c-4.15,4.011-9.14,6.271-14.16,5.511l-0.09,0.13
				c-3.96-2.88-8.82-4.851-9.36-11.15c-11.85-2.33-13.14-10.72-15.74-18.1c2.8,3.47,5.73,7.979,4.72,11.02
				C96.46,555.59,100.79,557.82,105.41,559.76z"/>
		</g>
		<g>
			<polyline style="fill:none;stroke:#231F20;stroke-width:7;" points="572.36,59.81 573.79,59.81 652.91,59.81 731.47,59.81 
				808.49,59.81 808.49,213.63 731.47,213.63 652.91,213.63 573.79,213.63 573.77,213.63 			"/>
			<path style="fill:none;stroke:#231F20;stroke-width:7;" d="M557.34,50.27c-4.45-1.98-7.42-5.56-7.42-9.64
				c0-6.24,6.94-11.29,15.49-11.29c8.56,0,15.49,5.05,15.49,11.29c0,3.98-2.83,7.49-7.11,9.5c-2.42,1.13-5.29,1.79-8.38,1.79
				C562.45,51.92,559.69,51.32,557.34,50.27z"/>
			<polyline style="fill:none;stroke:#231F20;stroke-width:7;" points="557.34,49.96 557.34,50.27 557.8,321.83 			"/>
			<polyline style="fill:none;stroke:#231F20;stroke-width:7;" points="573.79,49.39 573.79,50.13 573.79,59.81 573.79,213.63 
				573.79,321.83 			"/>
			<line style="fill:none;stroke:#231F20;stroke-width:7;" x1="652.91" y1="62.1" x2="652.91" y2="211.94"/>
			<line style="fill:none;stroke:#231F20;stroke-width:7;" x1="731.47" y1="60.48" x2="731.47" y2="212.75"/>
			<path style="fill:none;stroke:#231F20;stroke-width:7;" d="M693.37,602.27c-11.65,1.99-19.64,7.65-27.55,13.381
				c6.47,16.72-5.311,27.35-14.17,33.84c2.46,9.5-0.11,18.35,2.069,27.229c0.08,0.37,0.181,0.73,0.29,1.101
				c-0.14-0.11-0.279-0.21-0.42-0.311c-3.93-2.859-9.17-4.17-13.75-8.34c-5.22-4.77-6.88-12.4-13.38-13.38
				c-6.5-0.98-9.37,4.61-18.1,3.93c-0.62,5.34,1.689,7.761,3.149,11.021c-6.24-2.41-8.89-8.42-11.81-14.17
				c2.63-0.48,2.689-2.301,5.51-0.78c1.4-12.13-10.92-14.49-16.53-7.08c-13.8-0.37-15.55-12.79-27.54-14.96c0-3.41,0-6.82,0-10.24
				c3.58,0.49,5.841,2.721,8.65,0c-3.84-3.5-9.79-4.89-11.8-10.22c-6.24,0.66-4.98-3.5-11.021-1.58c2.75-4.67-6.979-7.45-7.87-13.38
				c-0.18-2.53,1.391-3.33,0.79-6.3c-0.85-4.141-5.77-4.21-7.88-7.08c2.721-6.32,0.311-13.16,2.95-17.01
				c0.271-0.391,0.6-0.761,0.99-1.091c-4.311-1.399-5.59,3.141-11.021,0c1.761,1.91,5.141,2.2,7.87,3.15
				c-0.18,4.5-0.38,10.31-2.359,14.95c2.239,3.01,6.699,3.79,8.659,7.08c-4.8,9.21,7.29,13.649,7.08,20.47
				c11.99-1.25,15.54,9.3,22.04,11.01c-2.939,1.63-3.859-1.35-7.08-1.569c-0.68,3.27-2.529,8.649-0.79,11.81
				c11.95,3.61,16.15,17.46,28.33,15.74c2.2-0.311,5.891-4.88,8.66-4.721c4.99,0.28,6.11,6.23,7.09,9.44
				c-3.91-0.76-4.199,2.1-7.09,2.36c4.96,4.649,7.33,15.55,14.95,14.96c1.53-3.4-4.12-5.62-3.14-11.021
				c7.88,1.44,10.159-4.27,15.739-3.939c7.101,0.43,8.78,8.46,14.17,13.38c4.99,4.56,10.841,5.53,14.171,9.45
				c0.13-0.631,0.25-1.261,0.359-1.891c0.04-0.27,0.09-0.529,0.13-0.79c1.19-7.89,0.41-16.05-1.279-25.66
				c7.729-8.26,21.88-17.189,14.17-33.84c7.239-6.14,14.55-12.2,26.76-13.38"/>
			<line style="fill:none;stroke:#231F20;stroke-width:7;" x1="693.37" y1="618.18" x2="693.37" y2="603.84"/>
			<path style="fill:none;stroke:#231F20;stroke-width:7;" d="M378.01,228.98c4.28,3.31,8.54,6.76,11.54,8.86
				c56.561,39.6,111.51,79.72,169.22,117.28c0.79,4.46-2.35,4.99-1.569,9.45c4.71,3.21,11.78,4.05,15.84,7.92
				c1.59,1.51,2.71,3.48,3.05,6.24c6.13,1.98,12.36,6.88,17.32,1.58c3.6,1.38,4.689,5.27,7.08,7.87c10.01,1.8,18.96,4.65,26.76,8.66
				c-1.46,5.16-0.59,9.84,1.57,13.38c-2.351,1.57-3.311,4.55-4.721,7.08c2.381,4.49,5.98,6.12,10.2,6.29c0.01,0.01,0.03,0.01,0.05,0
				c7.87,0.29,17.851-4.52,25.96-5.5c1.75,31.75,5.66,61.78,3.15,93.66c-6.14,7.15-5.84,15.94-8.66,25.98
				c-5.93,1.93-10.99,4.75-11.81,11.8c-5.74-0.03-10.42-1.12-15.74-1.57c-2.14-0.57,0.56,3.71-1.57,3.14
				c-19.739,0.21-37.6,2.29-55.89,3.94c-4,3.34-7.67,7.02-11.021,11.02c-3.949-0.279-6.859,0.48-9.439,1.57
				c3.689,0.78,6.77,0.01,9.479-1.5c4.62-2.57,8.16-7.3,11.771-10.3c17.729-1.11,37.04-4.13,54.31-3.15
				c2.91,0.551,1.96-2.76,3.15-3.939c4.25,1.52,10.54,1,14.95,2.359c2.34-6.06,5.63-11.149,12.59-12.59
				c2.71-9.1,2.79-20.83,9.45-25.97c0.85-30.63-0.971-62.75-3.931-93.67c6.511-2.74,13.771-4.74,21.15-6.62"/>
			<path style="fill:none;stroke:#231F20;stroke-width:7;" d="M426.78,755.85c-0.23-0.31-0.45-0.63-0.67-0.939
				c-2-2.82-4.02-5.62-6.65-7.82c-5.87,1.36-12.48-3.17-21.25-1.58c-6.31,1.15-11.94,5.86-17.32,6.3
				c-1.04,1.32-2.08,2.641-1.57,5.511c-3.37-0.57-6.31-1.561-7.09-4.721c-2.15,1.881-3.48,0.03-5.51,2.36
				c-5.29-7.04-12.78-11.87-14.95-22.04c-5.77-0.79-12.62-0.49-14.95-4.72c4.11-6.061,6.6-15.88,2.35-22.04
				c2.38-0.25,4.22-1.061,5.62-2.25c6.42-5.47,3.63-19.09,1.47-25.3c5.37-4.591,15.7-4.24,22.83-7.08c3.67-3.36,1.47-8.32,8.65-8.66
				c-1.58-5.811-0.5-10.61-2.36-14.95c3.17-0.55,4.49,0.75,7.09,0.79c3.63-4.63-0.57-10.99-2.36-14.96
				c2.57-1.74,5.84-5.78,8.66-9.45c7.08-1.03,11.56,7.181,20.46,8.66c1.7,0.13,0.36-2.79,0.78-3.93c3.25,0.62,4.04-1.21,7.09-0.79
				c-0.87-5.94-1.29-8.87-0.79-14.95c4.18,1.89,6.19,4.41,11.81,3.14c-0.69-7.77,1.01-12.569,5.62-16.939
				c0.689-0.67,1.43-1.311,2.25-1.95c0.38-0.3,0.74-0.56,1.1-0.81c7.26-4.881,11.521,0.529,19.37,0.17
				c0.51-0.021,1.03-0.07,1.57-0.141c1.81-1.87,0.279-7.069,0.779-10.229c11.471,2.479,14.771-6.08,22.83-9.45
				c2.301-0.96,5.7-0.58,7.87-1.58c7.04-3.22,12.45-17.79,22.04-7.87c4.17-2.25,7.55-2.729,12.59-0.78
				c-4.09-3.649-8.489-2.859-12.59,0c-0.66-4.75-6.63-3.76-9.45-3.149c-4.64,1.01-7.59,8.62-12.59,11.02
				c-1.81,0.87-4.529,0.25-6.3,0.78c-6.86,2.08-10.34,7.91-14.95,9.45c-3.149,0-6.3,0-9.45,0c-1.8,2.91,0.351,9.79-2.359,11.81
				c-5.63,0.01-8.88-4.62-14.17-3.939c-2.221,0.29-3.311,1.93-5.19,3.91c-0.729,0.76-1.58,1.579-2.67,2.39
				c-0.18,0.13-0.41,0.25-0.68,0.37c-1.55,0.68-4.28,1.12-4.84,1.99c-2.58,4-0.86,9.77-1.57,14.17c-4.3,0.609-8.75-3.221-11.81-3.15
				c-0.13,3.16-1.82,11.11,0.79,14.95c-3.22-0.76-5.04,1.95-7.08,0c0,1.58,0,3.149,0,4.729c-7.17-0.97-8.72-7.55-16.53-7.88
				c0.31-2.68,2.42-1.29,0-3.14c-4.97,0.64-8.91,8.85-14.17,11.8c1.02,4.86,6.25,8.46,3.94,14.17c-1.37,0.97-5.23-0.6-8.66,0
				c3.07,6.84,0.72,8.17,2.36,13.38c-3.55,2.48-6.04,6.021-7.87,10.23c-8.1,0.729-17.34,4.67-26.76,7.87
				c-0.73,3.09,4.15,0.569,4.72,2.359c0.92,7.24,2.74,15.37-1.57,22.83c-2.98,1.33-3.82,0.7-6.3,1.57
				c2.6,7.51,1.89,13.74-0.79,21.26c-9.87-0.55-12.88,3.37-17.31,9.44c-3.6,0.71-4.46-1.311-7.09-1.57c4.08-6.56,0.35-11.21,0-17.32
				c-1.89-1.899-2.08,1.91-5.51,0.79c-2.25,0.11-1.44,3.28-1.57,5.511c-3.52-0.16-4.47-2.881-7.08-3.94
				c-3.49,2.39-1.7,6.62-0.79,10.229c-3.1-0.51-6.26,0.2-10.23,0c-2.58,1.351-1.07,4.44-0.79,7.091c-3.06,0.71-6.13-4.71-12.59-3.15
				c1.45-5.13-4.87-2.49-3.15-7.87c-4.96,0.69-5.59,0.92-8.66,0.79c-4.17,2.39-3.79,9.32-10.23,9.44
				c3.75-4.721-3.93-10.34-8.46-9.471c-0.07,0-0.14,0.011-0.2,0.03c-0.15-0.28-0.3-0.57-0.42-0.85
				c-3.16-6.761-0.38-13.78-2.04-20.011c-0.04-0.18-0.09-0.359-0.15-0.529c-0.15-0.49-0.33-0.971-0.54-1.44
				c-6.91-1.93-5.88,4.09-11.81,3.15c2.22-5.66,6.19-9.561,11.81-11.811c0.17-3.609-5.29-5.5-10.23-6.3
				c0.21-2.83-1.45-3.79-1.58-6.29c-0.62-2-2.75,2.21-3.93,0c1.8-4.49,1.22-7.95,0-11.02c-1.82-4.61-5.08-8.351-3.94-13.38
				c-3.18-3.641-7.54-6.101-14.95-5.511c-2.46,2.021,3.41,5.04,0.79,7.08c-2.76,2.3-12.23,1.7-12.6,8.66
				c-6.21-2.45-12.5-4.82-18.1-7.87c-6.28,1.931-11.07,5.36-14.18,10.46c-0.27,0.44-0.53,0.891-0.77,1.351
				c-0.03-0.07-0.06-0.15-0.09-0.221c-3.86-9.5-11.25-18.04-18.02-5.29c-5.19-0.06-6.35-4.149-9.44-6.3
				c1.97-2.229,1.98-6.42,4.72-7.87c-2.66-8.22-0.82-10.68,0-18.1c3.44-1.08,1.68,3.05,4.72,2.36c-0.24-3.96-2.53-5.87-3.14-9.45
				c-3.05-0.87-2.81,2.78-4.73,0.79c-2.24-4.351-2.25-9.44-7.87-11.811c-2.22,0.15-0.98,3.74-3.94,3.15
				c-0.43-4.71-4.6-7.87-7.08-12.59c0.82-2.33,4.52-1.78,4.72-4.721c-1.34-4.569-1.9-8.01-0.78-13.39
				c-2.39-3.64-6.19-5.87-7.87-10.229c1.04-1.771,5.95-7.061,0.79-7.87c5.02,0.76,10.01-1.5,14.16-5.511
				c-1.31-7.64,1.27-13.109,3.15-21.25c3.45,0.521,6.49-2.55,10.23-3.93c3.9,8.43,12.27,12.391,17.32,19.67
				c1.45-4.569,5.28-6.79,7.08-11.02c16.39,0.05,26.17,5.26,42.5,1.58c0.87-3.311-0.77-8.42,3.94-9.45c0.21,2.84-1.45,3.8-1.57,6.3
				c0.52,0.05,1.04,0.09,1.56,0.13c40.55,3.49,86.75,1.32,128.3,3.8c3.4-8.14,3.14-19.949,6.3-28.33
				c-1.49-4.55-7.05-5.02-9.44-8.659c-8.39-98.92-18.53-196.081-27.55-294.37c8.71,1.86,19.61,0.31,30.28-0.65
				c5.58-0.49,11.1-0.83,16.2-0.43c3.34,0.25,6.51,0.82,9.4,1.87c0.5,0.18,1.06,0.43,1.65,0.73c3.01,1.55,7.09,4.54,11.15,7.68"/>
			<path style="fill:none;stroke:#231F20;stroke-width:7;" d="M426.79,755.87c1.21,4.439,2.82,8.479,7.63,9.32
				c1.45-0.12,0.48-2.66,1.57-3.15c-0.34-1.97-2.25,0.76-1.57,2.36C431.3,762.13,429.02,759.02,426.79,755.87z"/>
			<path style="fill:none;stroke:#231F20;stroke-width:7;" d="M99.83,651.9c0.02-0.021,0.05-0.03,0.07-0.051
				c0.05,0.03,0.1,0.07,0.14,0.101c1.61,1.2,2.84,2.77,4.59,3.84c10.83-4.63,17.26-1.29,30.69-3.15c1.18,1.95-1.9,5.08-2.36,7.87
				c2.02,3.49,4.96,6.061,8.66,7.87c4.99-0.51,4.49-6.53,9.44-7.08c5.37-1.28,5.2,9.391,9.45,11.8c0.23-0.35,0.47-0.68,0.7-1
				c0.29-0.399,0.57-0.77,0.86-1.13c8.24-10.3,18.57-9.04,31.5-1.8c0.27-0.25,0.54-0.51,0.8-0.77c3.25-3.311,5.81-7.311,13.36-6.311
				c1.98-3.38-0.35-5.51-0.78-8.67c4.94-0.37,8.38,1.71,12.59,3.94c0.63,2.729-1.17,3.029-0.79,5.51c4.4,1.95,1.17,7.07,6.3,8.66
				c0.27,4.21-0.34,7.52-1.57,10.229c2.62,3.271,6.43,1.26,6.29,7.87c3.68,0.5,9.57,2.17,8.66,4.72c2.09,2.011-1.37,1.86-2.36,0.79
				c-3.12,3.7-6.49,7.15-8.66,11.811c6.82,3.13,8.01-4.681,13.92-1.71c0.08,0.04,0.17,0.08,0.25,0.13
				c-0.03,0.13-0.07,0.27-0.1,0.399c-2.05,8.341-1.19,15.391,2.04,20.011c0.2,0.279,0.4,0.56,0.62,0.819
				c2.06,2.53,4.92,4.19,8.46,4.75c0.83,7.391-5.74,7.381-7.87,11.801c4.06,6.279-4.52,23.88,10.23,20.47
				c0.18,3.06-1.69,4.08-2.36,6.29c0.63,2,3.24,2.01,4.72,3.149c0.17,3.32-3.52,2.78-4.72,4.73c3.46,0.05,4.94-1.89,6.29-3.94
				c-0.51-2.38-3.57-2.199-4.72-3.939c0.42-2.72,2.11-4.19,2.36-7.08c-1.75-1.66-3.79,0.83-7.08,0c-6.55-3.66,0.66-13.88-3.15-18.89
				c3.55-7.471,14.37-7.671,16.53-16.53c3.42,1.05,4.39,0.45,7.08-0.78c-1.45,5.13,4.87,2.48,3.15,7.87
				c6.7-0.93,9.52,2.02,13.38,3.93c3.31-1.569,0.18-5.22,1.58-7.87c4.53,1.41,5.68-1.46,10.23,0.79c3.14-4.35-1.84-4.97,0-10.229
				c2.84-1.87,3.43,4.12,7.87,3.14c3.77-0.59-1.25-5.08,2.36-5.51c1.25-0.06,3,0.38,3.15-0.78c3.74,3.32-2.38,7.521,3.15,9.44
				c0.61,3.76-2.81,3.49-2.36,7.09c1.34,2.33,5.41,1.93,7.87,3.15c4.01-4.131,6.1-10.17,14.95-9.45c4.08,3.04,5.97,6.77,13.38,4.72
				c3.4,3.95,6.61,8.09,7.87,14.17c3.82,1.95,7.5,4.04,8.66,8.66c1.96-0.93,6.14,0.36,6.3-2.36c1.13,3.33,4.36,4.551,7.87,5.5
				c1.87-0.489-0.12-4.84,1.57-5.5c5.85-2.899,11.39-2.649,16.53-7.09c10.19-1.26,16.43,2.9,22.83,3.15
				c1.2,2.569,2.48,5.06,5.86,5.46c0.14,0.03,0.28,0.04,0.43,0.05c0.08,0.3,0.16,0.6,0.25,0.91c-0.01-0.01-0.01-0.01-0.01-0.021"/>
			<path style="fill:none;stroke:#231F20;stroke-width:7;" d="M99.83,651.9c-4.23-1.25-9.01-2.591-12.52-5.561
				C87.92,648.9,96.25,654.17,99.83,651.9z"/>
			<path style="fill:none;stroke:#231F20;stroke-width:7;" d="M343.02,205.04c-2.07-1.4-4.13-2.79-6.2-4.19
				c5.12,5.37,15.93,11.88,23.61,17.32c-1.54,0.2-3.1,0.36-4.68,0.49c-5.23,0.43-10.68,0.52-16.2,0.43
				c-10.47-0.14-21.17-0.87-31.07-0.92c8.32,99.77,18.98,197.2,27.55,296.73c2.29,2.96,6.47,4.029,8.66,7.08
				c-1.31,9.449-3.43,18.09-4.73,27.55c-43.02-0.53-85.67-1.431-128.29-2.36c-0.42-3.04,1.4-3.84,0.79-7.08
				c-4.46,0.05-7.81,4.84-4.73,7.87c-15.56,5.88-24.61-0.32-43.29,0c-0.89,4.62-5.97,5.05-6.29,10.23
				c-4.76-7.051-13.11-10.511-16.53-18.891c-4.73-0.01-5.54,3.9-11.02,3.15c-1.91,7.79-6.74,13.76-3.93,22.03
				c-2.11,2.359-5.52,3.409-7.88,5.52c-5.73-1.96-12.97-1.46-13.38-10.24c-4.62-1.939-8.95-4.17-12.59-7.08
				c1.01-3.04-1.92-7.55-4.72-11.02c2.6,7.38,3.89,15.77,15.74,18.1c0.54,6.3,5.4,8.271,9.36,11.15c0.3,0.21,0.59,0.43,0.87,0.66
				c0.4,4.069-3.39,3.96-2.36,8.66c2.25,3.25,4.92,6.1,7.87,8.649c-3.63,7.7,4.17,13.63-3.93,17.32c2.15,6.83,6.05,9.229,7.86,14.96
				c3.21,0.729,2.43-4.57,4.73-2.37c4.82,4.07,8.57,10.27,6.29,18.11c2.12,0.54,1.53-1.631,2.36-2.36c0.2,4.78-3,12.17,0.79,18.1
				c-0.8-0.01-1.59-0.029-2.36-0.069c-11.61-0.391-20.75-2.11-29.12,1.64c-1.67-0.9-3.82-1.57-6.16-2.26
				c-0.07-0.01-0.14-0.04-0.21-0.05"/>
			<path style="fill:none;stroke:#231F20;stroke-width:7;" d="M670.78,414.34c-12.13,3.1-24.55,5.91-36.431,9.25
				c-0.01,0.01-0.01,0.01-0.02,0.01s-0.021-0.01-0.03-0.01c-3.99-0.99-5.97-3.97-9.41-5.5c1.591-2.87,2.71-6.22,5.511-7.87
				c-2.74-4.07-3.351-6.8-2.36-13.38c-6.8-4.75-15.22-7.87-25.98-8.66c-3.05-2.72-4.26-7.28-8.649-8.66
				c-9.48,4.54-14.49-1.44-20.271-7.13c-4.069-4-8.51-7.87-15.149-7.82c0.06-3.61,2.27-5.08,1.569-9.45
				c-61.199-41.37-120.869-84.25-181.55-126.14c-0.02-0.01-0.04-0.02-0.06-0.04c-3.71-2.56-7.42-5.12-11.15-7.68
				c-7.9-5.42-15.83-10.83-23.78-16.22"/>
			<path style="fill:none;stroke:#231F20;stroke-width:7;" d="M548.54,567.63c-3.69-1.979-10.25-1.64-11.67,0.54
				c-0.061,0.08-0.101,0.16-0.14,0.25C541.45,566.45,545.13,568,548.54,567.63z"/>
			<path style="fill:none;stroke:#231F20;stroke-width:7;" d="M518.75,572.49c1.06-2.4,7.98-2.851,11.81-0.79
				C527.15,572.07,523.47,570.52,518.75,572.49z"/>
		</g>
	</g>
</g>
<rect x="0.25" y="0.25" style="fill:none;" width="850.394" height="850.394"/>
</svg>
