<svg xmlns="http://www.w3.org/2000/svg" width="850.89" height="850.89" viewBox="0 0 850.89 850.89" overflow="visible"><path fill="#fff" d="M806.92 90.49v13.04h-.08l-187.16 114.2v.86h-18.24v-1.65z"/><path fill="#58b947" d="M806.92 103.53v115.06H619.68v-.86l187.16-114.2z"/><path fill="#fff" d="M783.05 69.42l-206.2 122.14h-.02l-.11-11.5 187.3-111.43v-.66h19.03z"/><path d="M637.25 114.48l-9.47-.16c.59-1.4.979-2.9 1.1-4.49l8.37 4.65zM626.2 117.12l4.85 8.09-8.09-4.85c1.24-.9 2.34-2 3.24-3.24z" fill="#fbed24"/><path d="M628.93 108.68c0 .39-.02.77-.05 1.15l-2.79-1.54 2.71-1.51c.08.62.13 1.26.13 1.9z" fill="#394ea1"/><path d="M637.25 102.09l-8.45 4.69c-.21-1.61-.689-3.13-1.38-4.53l9.83-.16z" fill="#fbed24"/><path d="M624.21 114.11a10.96 10.96 0 0 0 1.42-5.43c0-.13-.01-.26-.01-.38l.47-.01 2.79 1.54a14.29 14.29 0 0 1-1.1 4.49l-3.29-.05-.28-.16z" fill="#394ea1"/><path d="M626.2 117.12l-1.71-2.85 3.29.05c-.42 1-.96 1.94-1.58 2.8zM624.49 102.3l1.439-2.41c.57.74 1.07 1.53 1.49 2.36l-2.929.05zM625.62 108.3c-.07-2.16-.76-4.15-1.89-5.83l.76-.17 2.93-.05c.69 1.4 1.17 2.92 1.38 4.53l-2.71 1.51-.47.01z" fill="#394ea1"/><path d="M624.49 114.27l1.71 2.85c-.9 1.24-2 2.34-3.24 3.24l-2.85-1.71-.16-.28c1.78-1 3.26-2.48 4.26-4.26l.28.16z" fill="#394ea1"/><path d="M622.34 96.58l8.71-5.22-5.12 8.53c-.99-1.29-2.21-2.41-3.59-3.31zM620.17 121.94l.15 9.46-4.65-8.36c1.59-.13 3.1-.51 4.5-1.1z" fill="#fbed24"/><path d="M622.34 96.58l-2.229 1.34.04-2.5c.769.33 1.499.72 2.189 1.16zM620.17 121.94l-.06-3.29 2.85 1.71c-.86.62-1.8 1.15-2.79 1.58z" fill="#394ea1"/><path d="M620.15 95.42a14.095 14.095 0 0 0-4.9-1.12l5.07-9.13-.17 10.25z" fill="#fbed24"/><path d="M620.11 97.92l2.229-1.34c1.38.9 2.601 2.02 3.59 3.31l-1.439 2.41-.76.17a11.085 11.085 0 0 0-9.211-4.89c-.119 0-.239 0-.359.01l-.03-1.27 1.12-2.02c1.73.08 3.38.47 4.9 1.12l-.04 2.5z" fill="#394ea1"/><path d="M614.14 119.77a10.952 10.952 0 0 1-5.83-1.88c-1.47-1-2.699-2.34-3.55-3.91a11.043 11.043 0 0 1-1.34-5.3c0-.12 0-.24.01-.36a11.05 11.05 0 0 1 1.601-5.4c.93-1.52 2.21-2.81 3.739-3.74 1.57-.96 3.421-1.53 5.391-1.59.12-.01.24-.01.359-.01 3.841 0 7.221 1.94 9.211 4.89a11.05 11.05 0 0 1 1.89 5.83c0 .12.01.25.01.38 0 1.98-.51 3.82-1.42 5.43-1 1.78-2.479 3.26-4.26 4.26a11.035 11.035 0 0 1-5.811 1.4z" fill="#fbed24"/><path d="M620.11 118.65l.06 3.29c-1.4.59-2.91.97-4.5 1.1l-1.54-2.79.01-.48c.13.01.25.01.38.01 1.98 0 3.83-.51 5.431-1.41l.159.28z" fill="#394ea1"/><path d="M602.43 116.5l-5.229 8.71 8.54-5.12c.729.57 1.52 1.07 2.359 1.48l-.17 9.83 4.7-8.44c.62.08 1.25.12 1.89.12.391 0 .78-.01 1.15-.04l4.65 8.36-.15-9.46c.99-.43 1.93-.96 2.79-1.58l8.09 4.85-4.85-8.09c.62-.86 1.16-1.8 1.58-2.8l9.47.16-8.37-4.65c.03-.38.05-.76.05-1.15 0-.64-.05-1.28-.13-1.9l8.45-4.69-9.83.16c-.42-.83-.92-1.62-1.49-2.36l5.12-8.53-8.71 5.22c-.689-.44-1.42-.83-2.189-1.16l.17-10.25-5.07 9.13a14.355 14.355 0 0 0-2.209.05l-5.11-9.18.181 10.61c-.62.31-1.221.66-1.78 1.06l-9.13-5.48 5.479 9.13c-.39.56-.75 1.16-1.05 1.78l-10.62-.18 9.19 5.1c-.05.49-.08.99-.08 1.49 0 .24.01.49.02.73l-9.13 5.07 10.25-.17c.328.76.718 1.5 1.168 2.19zm161.59-47.87l-187.3 111.43-1.03-112.09h188.33v.66z" fill="#394ea1"/><path d="M614.13 96.32l-1.09-1.97a14.355 14.355 0 0 1 2.209-.05l-1.119 2.02zM612.63 122.96l1.5-2.71 1.54 2.79c-.37.03-.76.04-1.15.04-.64 0-1.27-.04-1.89-.12z" fill="#394ea1"/><path d="M613.04 94.35l1.09 1.97.03 1.27c-1.97.06-3.82.63-5.391 1.59l-.63-1.26-.029-2.14a14.57 14.57 0 0 1 4.93-1.43zM608.31 117.89a10.952 10.952 0 0 0 5.83 1.88l-.01.48-1.5 2.71c-1.62-.21-3.14-.69-4.53-1.39l.04-2.92.17-.76z" fill="#394ea1"/><path d="M612.63 122.96l-4.7 8.44.17-9.83c1.39.7 2.91 1.18 4.53 1.39zM607.93 85.17l5.11 9.18c-1.76.19-3.42.68-4.93 1.43l-.18-10.61z" fill="#fbed24"/><path d="M608.1 121.57c-.84-.41-1.63-.91-2.359-1.48l2.399-1.44-.04 2.92zM606.33 96.84c.56-.4 1.16-.75 1.78-1.06l.029 2.14-1.809-1.08z" fill="#394ea1"/><path d="M603.77 102.3l-1.09-1.81c.99-1.43 2.221-2.67 3.65-3.65l1.81 1.08.63 1.26c-1.529.93-2.81 2.22-3.739 3.74l-1.261-.62zM605.74 120.09c-1.3-1-2.42-2.21-3.311-3.59l1.34-2.23.99-.29c.851 1.57 2.08 2.91 3.55 3.91l-.17.76-2.399 1.44z" fill="#394ea1"/><path d="M601.63 102.27l2.14.03 1.261.62a11.05 11.05 0 0 0-1.601 5.4l-1.27-.03-1.96-1.1c.18-1.75.67-3.41 1.43-4.92z" fill="#394ea1"/><path d="M603.77 114.27l-2.51.04c-.64-1.52-1.04-3.17-1.12-4.9l2.021-1.12 1.27.03c-.01.12-.01.24-.01.36 0 1.92.48 3.72 1.34 5.3l-.991.29z" fill="#394ea1"/><path d="M602.68 100.49l-5.479-9.13 9.13 5.48a14.22 14.22 0 0 0-3.651 3.65z" fill="#fbed24"/><path d="M601.63 102.27c.3-.62.66-1.22 1.05-1.78l1.09 1.81-2.14-.03z" fill="#394ea1"/><path d="M602.43 116.5a14.345 14.345 0 0 0 3.311 3.59l-8.54 5.12 5.229-8.71z" fill="#fbed24"/><path d="M603.77 114.27l-1.34 2.23c-.449-.69-.84-1.43-1.17-2.19l2.51-.04zM602.16 108.29l-2.021 1.12c-.01-.24-.02-.49-.02-.73 0-.5.03-1 .08-1.49l1.961 1.1z" fill="#394ea1"/><path d="M591.01 102.09l10.62.18a14.14 14.14 0 0 0-1.43 4.92l-9.19-5.1zM601.26 114.31l-10.25.17 9.13-5.07c.08 1.73.48 3.38 1.12 4.9z" fill="#fbed24"/><path d="M579.46 663.15c10.47-2.79 10.15-16.181 17.58-27.57v1.92c-7.06 11.21-5.87 21.32-15.4 25.03-.189.08-1.029.34-2.17.649l-.01-.029z"/><path fill="#ed1e29" d="M576.85 191.56l206.2-122.14v-1.45h23.87v22.52L601.44 216.94v1.65h-24.36l-.25-27.03z"/><path d="M572.01 322.77c.28.35.57.68.891.99h-3.4a5.608 5.608 0 0 1 2.509-.99z"/><path d="M551.34 48.4c0-6.11 6.8-11.06 15.17-11.06 8.38 0 15.17 4.95 15.17 11.06 0 3.9-2.77 7.33-6.96 9.29-2.37 1.12-5.189 1.76-8.21 1.76-2.89 0-5.6-.59-7.899-1.62-4.361-1.94-7.271-5.44-7.271-9.43z" fill="#c8c8c8"/><path d="M558.61 57.83c2.3 1.03 5.01 1.62 7.899 1.62 3.021 0 5.84-.64 8.21-1.76v266.07H572.9c-.32-.31-.61-.64-.891-.99-1.02.14-1.819.51-2.51.99h-10.44l-.449-265.93z" fill="#c8c8c8"/><path d="M272.68 760.71c2.75-4.47-1.03-6.15-2.89-8.66-3.13.72-5.96 1.74-8.66 2.891-3.87 6.069-4.84 15.05-11.56 18.279-16.67-3.22-17.75-22.029-33.68-25.989 3.65-8.561-10.39-8.601-2.89-16.36-3.77-4.561-7.78-8.91-11.55-13.48-3.08-14.25-2.95-31.689-11.55-40.42.64-10.59-1.2-18.689-5.78-24.06 1.15-2.7 2.17-5.54 2.9-8.66-4.32-13.06-1.98-26.2-11.56-36.58-1.03-3.59 2.39-2.75 1.93-5.78-2.34-4.729-4.8-9.319-7.71-13.47.57-1.71 1.02-3.54 1.37-5.46 2.42-13.09.07-30.07-4.25-38.81-.04-2.92 3.37-2.4 5.78-2.9 3.62-11.46-3.7-16.54-6.74-22.13-5.05-9.28-6.95-22.05-16.37-25.99-3.58-15.02-13.26-23.95-21.18-34.649.96-13.78-9.86-15.801-8.65-29.841-2.34-2.159-4.94-4.04-7.71-5.77-4.41-19.97-18.48-30.28-23.09-50.06-4.65-4.33-11.43-6.54-16.37-10.58.39-11.94-6.04-17.06-11.54-23.1 2.39-7.27-.63-12.15-1.94-18.29 2.82-5.21 7.23-8.82 11.55-12.51 6.73 3.25 12.72 2.76 19.26 4.81 12.96-4.64 23.14-18.71 39.46-11.55-.66 6.42 4.83 7.28 10.59 10.59 8.56 4.92 10.73 10.74 20.21 2.88h118.39c8.59 0 18.6-1.28 27.42-1.28 4.42 0 8.54.32 12.04 1.28 8.49 2.33 14.97 18.68 25.99 20.22 2.77.38 5.81-1.81 8.66-1.92 15.67-.67 29.38 9.97 42.36.96 6.42 2.87 11.85 6.74 18.28 9.62 5.77-1.28 9.14-4.97 14.439-6.74 12.82 9.99 39.48 1.12 59.67-2.88 20.641-4.1 36.23-9.11 58.721-9.63 2.51-.27 4.14.36 3.85 2.89 4.22 1.01 3.16-3.25 6.74-2.89 1.87 1.98 4.54 3.16 6.74 4.81 8.96-6.97 18.939 1.85 22.13 8.67-10.16-1.11-24.83-2.89-25.99 7.7-3.45-.73-2.88-5.46-5.77-6.74-6.73 2.4-13.381 7.92-19.62 13.01-3.91 3.18-7.66 6.2-11.181 8.17-3.01-7.9-8.71-13.12-12.51-20.22-29.939 3.8-55.83 15.54-88.56 13.47-2.24 47.49-.32 99.14-.96 148.24h-40.43c-2.24 86.94-.31 178.061-.96 266.61-12.16 1.95-22.73 5.5-27.91 14.439-2.32.391-2.09-1.76-4.81-.96-1.8 3.141 1.24 7.551-2.89 9.61-5.08-5.7-18.8-11.5-25.99-3.84-3.63-.54-7.28.12-10.59-.96-1.98-.65-3.66-3.97-5.77-4.811-6.64-2.67-14.22.04-19.25-4.819-1.93-1.86.55-6.37-3.85-4.811-.27-3.79 4.11-2.95 3.85-6.729-1.689-3.36-4.469-7.78-9.619-4.82z" fill="#fff5b4"/><path d="M553.73 342.01c-8.28 2.19-9.28 8.68-19.25 10.59l-.37-.46c6.239-5.09 12.89-10.61 19.62-13.01 2.89 1.28 2.319 6.01 5.77 6.74l.45.31c-.55.78-1.01 1.64-1.41 2.58-3.43-.43-3.11-4.6-4.81-6.75zM512.14 326.26c.07.12.141.23.2.35l-.3-.33c.03-.01.07-.02.1-.02zM546.03 660.61c2.76.88 5.479 5.52 11.55 4.81 3.439-.41 5.36-5.34 8.66-5.78 1.17-.149 4.51 3.71 5.77 3.851 2.98.35 5.42.2 7.45-.34l.01.029c-2.52.681-6.54 1.61-8.42 1.271-.79-.13-4.2-4.07-5.77-3.84-2.96.42-4.73 5.35-7.7 5.77-6.01.86-9.43-4.08-12.521-4.81-.79-.19-3.689 1.359-4.81.96-4.53-1.59-7.79-6.08-15.39-3.851-8.551-4.6-11.44-14.88-24.07-15.399l-.021-.061c1.891-.489 4.03-.739 6.761.061 7.359 2.16 10.71 11.899 18.29 14.439 2.3.78 5.489-.729 8.66 0 2.399.561 4.319 3.021 6.739 3.851 1.332.449 3.312-1.441 4.812-.961z"/><path d="M500.79 643.28c-3.6 2.59-7.31 3.47-11.55.97-2.67 8.55-11 11.45-8.66 25.02-3 3.091-5.36 6.83-7.7 10.591-9.87 2.13-13.34 10.649-20.71 15.27l-.06-.1c4.13-2.62 9.29-11.75 15-15.17 2.02-1.23 4.35.27 5.77-.971 3.04-2.659 4.13-8 6.74-10.58-2.271-14.14 7.24-16.5 9.62-25.989 4.779 3.939 7.63 1.91 11.529.899l.021.06zM405.5 650.98c-.59.55-1.01 1.109-1.29 1.67.04-.94.14-1.82.33-2.631-3.95-7.779-10.02-13.43-12.93-22.229 5.28 7.08 9.4 15.32 13.89 23.19zM404.21 652.65c-.08 1.51 0 3.17.17 4.939-.69-1.709-.99-3.339-.17-4.939z"/><path d="M409.36 702c-1.67-2.53-5.09 6.37-6.75 3.84-6.1-3-1.09-11.16-4.8-16.359 11.22-7.021 7.53-21.301 6.57-31.891.97 2.44 2.71 5.01 3.04 7.83 1.26 10.63-3.17 18.561-8.65 25.021 4.41 3.18-1.4 10.68 2.88 13.479 3.98 3.66 5.35-5.9 8.67-2.89 7.78 7.59 17.67-2.011 27.911 3.85 2.81-1.04 1.029-6.67 3.85-7.689 3.13-.53 6.78-.41 9.63-1.931.13-.069.26-.149.4-.229l.06.1c-2.68 1.69-5.88 2.86-10.09 3.021-1.561 1.97-.75 6.3-2.89 7.689-11.481-5.311-20.771 3.199-29.831-3.841zM391.06 625.96c.16.62.34 1.22.54 1.81-.51-.67-1.02-1.34-1.55-1.989.34.119.67.179 1.01.179z"/><path d="M381.44 621.14v149.19c-13.82-.47-21.56 8.65-29.67 12.84l-.17-.32c5.18-8.939 15.75-12.489 27.91-14.439.65-88.55-1.28-179.67.96-266.61h40.43c.64-49.1-1.28-100.75.96-148.24 32.73 2.07 58.621-9.67 88.56-13.47 3.8 7.1 9.5 12.32 12.51 20.22 3.521-1.97 7.271-4.99 11.181-8.17l.37.46c-4.12 3.58-4.681 10.72-12.511 10.59-.16-1.13-1.76-.81-2.899-.96.479-10.75-7.28-13.25-10.58-20.22-27.92 4.74-54.181 15.42-85.66 13.48V503.72h-41.39v113.57c3.25 2.45 6.07 5.33 8.61 8.49-3.581-1.22-7.191-8.28-8.611-4.64z"/><path d="M317.91 315.06c-3.5-.96-7.62-1.28-12.04-1.28v-.64h13.97c8.39 6.36 13.56 15.96 24.06 20.22 17.95-5.34 35.87 7.68 51.98-.97 6 2.97 11.88 6.09 17.32 9.62 5.35-2.02 8.94-5.81 15.399-6.73 14.811 10.27 36.021.7 58.71-3.86 8.12-1.62 16.58-3.51 24.73-5.14l.3.33c-.06-.12-.13-.23-.2-.35 7.94-1.58 15.58-2.91 22.341-3.49 8.159-.7 14.89 2.72 22.14-.97 1.22 2.95 5.51 2.83 6.74 5.78 3.04-.28 4.159-2.48 6.14-3.82h3.4c2.939 3.02 6.89 4.19 10.67 7.66 3.449 3.18 6.359 9.57 13.47 8.67v.96c-3.72.52-4.7-1.72-8.66-.96 2.4 5.3 5.61 9.79 8.66 14.44v1.92c-3.271-5.4-6.83-10.49-9.63-16.36-11.99-1.87-22.561-1.09-27.46 6.09l-.45-.31c1.16-10.59 15.83-8.81 25.99-7.7-3.19-6.82-13.17-15.64-22.13-8.67-2.2-1.65-4.87-2.83-6.74-4.81-3.58-.36-2.521 3.9-6.74 2.89.29-2.53-1.34-3.16-3.85-2.89-22.49.52-38.08 5.53-58.721 9.63-20.189 4-46.85 12.87-59.67 2.88-5.3 1.77-8.669 5.46-14.439 6.74-6.43-2.88-11.86-6.75-18.28-9.62-12.98 9.01-26.69-1.63-42.36-.96-2.85.11-5.89 2.3-8.66 1.92-11.02-1.54-17.5-17.89-25.99-20.22zM282.3 765.53c.26 3.779-4.12 2.939-3.85 6.729 4.4-1.56 1.92 2.95 3.85 4.811 5.03 4.859 12.61 2.149 19.25 4.819 2.11.841 3.79 4.16 5.77 4.811 3.31 1.08 6.96.42 10.59.96 7.19-7.66 20.91-1.86 25.99 3.84 4.13-2.06 1.09-6.47 2.89-9.61 2.72-.8 2.49 1.351 4.81.96l.17.32c-1.32.69-2.65 1.24-4.02 1.6 2.97 3.66-1.41 8.19-4.81 8.671-5.57-5.971-17.28-10.74-25.03-3.86-5.71.58-8.58-1.69-14.43-.96-.39-6.82-9.2-5.36-14.44-4.811-4.96-3.71-9.94-7.39-13.48-12.51 1.26-3.16 6.99-4.55 2.89-7.71-1.02-3.859-3.91.13-7.7-.96-.37-4.51 1.69-5.47-.96-7.689-13.71.72-10.04 18.829-21.18 22.13 4.21 1.26 2.05 4.51 1.93 8.66 6.25 2.1 10.51 6.17 11.55 13.479h-.96c-.69-7.66-6.03-10.65-11.56-13.479-.69-2.94.99-3.511.97-5.771-8.43-9.86-21.75-14.83-26.96-27.91-3.33-.51-5.12-2.58-8.65-2.899 2.31-7.75-11.47-10.641-3.86-17.32-3.77-4.561-7.77-8.91-11.55-13.48-3.07-14.25-2.94-31.689-11.54-40.42.94-11.21-1.91-18.64-5.78-25.02 3.65-16.391-.6-33.05-9.62-46.21-.47-3.01 2.58-2.53 2.88-4.811-3.39-4.31-5.37-10.029-8.66-14.43-.18-2.99 3.42-2.2 3.87-4.57l.38.07c-.35 1.92-.8 3.75-1.37 5.46 2.91 4.15 5.37 8.74 7.71 13.47.46 3.03-2.96 2.19-1.93 5.78 9.58 10.38 7.24 23.521 11.56 36.58-.73 3.12-1.75 5.96-2.9 8.66 4.58 5.37 6.42 13.47 5.78 24.06 8.6 8.73 8.47 26.17 11.55 40.42 3.77 4.57 7.78 8.92 11.55 13.48-7.5 7.76 6.54 7.8 2.89 16.36 15.93 3.96 17.01 22.77 33.68 25.989 6.72-3.229 7.69-12.21 11.56-18.279 2.7-1.15 5.53-2.171 8.66-2.891 1.86 2.51 5.64 4.19 2.89 8.66 5.15-2.959 7.93 1.461 9.62 4.821zM305.87 313.78c-8.82 0-18.83 1.28-27.42 1.28H160.06c-9.48 7.86-11.65 2.04-20.21-2.88-5.76-3.31-11.25-4.17-10.59-10.59-16.32-7.16-26.5 6.91-39.46 11.55-6.54-2.05-12.53-1.56-19.26-4.81-4.32 3.69-8.73 7.3-11.55 12.51h-.61c.09-9.09.94-18.26 3.51-27.91h.96c-2.2 5.82-2.11 13.94-2.89 21.17 4.48-.46 5.64-7.09 11.55-7.69 3.44-.37 5.36 3.14 8.66 3.84 4.44.95 8.86-2.4 10.59 0 12.37-4.98 23.03-18.08 39.47-10.59 2.69 10.15 14.3 11.37 21.17 17.33 4.31-.76 5.72-3.17 9.63-3.85 23.13-4.04 52.55 0 78.92 0h65.92v.64zM165.84 519.12c3.04 5.59 10.36 10.67 6.74 22.13-2.41.5-5.82-.02-5.78 2.9 4.32 8.739 6.67 25.72 4.25 38.81l-.38-.07c.06-.33.05-.729-.03-1.21-2.58-17.67-.62-28.649-6.73-41.39 3.12.56 4.48-.65 6.73-.96 3.37-10.35-3.87-13.99-6.73-19.25-4.97-9.14-7.12-22.07-16.36-25.99-3.52-15.09-13.4-23.82-21.18-34.649v-6.74c-8.1-6.97-5.43-24.72-16.36-28.87-4.41-19.97-18.49-30.27-23.1-50.05-5.28-3.7-11.57-6.39-16.37-10.59.39-11.94-6.03-17.06-11.55-23.1-.36-6.47-.67-12.84-.61-19.25h.61c1.31 6.14 4.33 11.02 1.94 18.29 5.5 6.04 11.93 11.16 11.54 23.1 4.94 4.04 11.72 6.25 16.37 10.58 4.61 19.78 18.68 30.09 23.09 50.06 2.77 1.73 5.37 3.61 7.71 5.77-1.21 14.04 9.61 16.061 8.65 29.841 7.92 10.699 17.6 19.63 21.18 34.649 9.42 3.939 11.32 16.709 16.37 25.989z"/><g fill="none" stroke="#231f20"><path stroke-width="7" d="M569.5 323.76h-10.44M575.69 67.97H806.92v150.62H577.08M558.61 57.83c-4.36-1.94-7.271-5.44-7.271-9.43 0-6.11 6.8-11.06 15.17-11.06 8.38 0 15.17 4.95 15.17 11.06 0 3.9-2.77 7.33-6.96 9.29-2.37 1.12-5.189 1.76-8.21 1.76-2.889 0-5.599-.59-7.899-1.62z"/><path stroke-width="7" d="M558.61 57.53v.3l.45 265.93M574.72 56.97v266.79M576.85 191.56l206.2-122.14M601.44 216.94L806.92 90.49l.72-.45M576.06 180.45l.66-.39 187.3-111.43M619.68 217.73l187.16-114.2"/><path stroke-width="2" d="M608.11 95.78l-.18-10.61 5.11 9.18M602.68 100.49l-5.48-9.13 9.13 5.48M600.2 107.19l-9.19-5.1 10.62.18M601.26 114.31l-10.25.17 9.13-5.07M605.74 120.09l-8.54 5.12 5.23-8.71M612.63 122.96l-4.7 8.44.17-9.83M620.17 121.94l.15 9.46-4.65-8.36M626.2 117.12l4.85 8.09-8.09-4.85M628.88 109.83l8.37 4.65-9.47-.16M627.42 102.25l9.83-.16-8.45 4.69M622.34 96.58l8.71-5.22-5.12 8.53M615.25 94.3l5.07-9.13-.17 10.25"/><path d="M628.8 106.78c.08.62.13 1.26.13 1.9 0 .39-.02.77-.05 1.15a14.29 14.29 0 0 1-1.1 4.49c-.42 1-.96 1.94-1.58 2.8-.9 1.24-2 2.34-3.24 3.24-.86.62-1.8 1.15-2.79 1.58-1.4.59-2.91.97-4.5 1.1-.37.03-.76.04-1.15.04-.64 0-1.27-.04-1.89-.12-1.62-.21-3.14-.69-4.53-1.39-.84-.41-1.63-.91-2.359-1.48-1.3-1-2.42-2.21-3.311-3.59-.449-.69-.84-1.43-1.17-2.19-.64-1.52-1.04-3.17-1.12-4.9-.01-.24-.02-.49-.02-.73 0-.5.03-1 .08-1.49.18-1.75.67-3.41 1.43-4.92.3-.62.66-1.22 1.05-1.78.99-1.43 2.221-2.67 3.65-3.65.56-.4 1.16-.75 1.78-1.06a14.57 14.57 0 0 1 4.93-1.43 14.355 14.355 0 0 1 2.209-.05c1.73.08 3.38.47 4.9 1.12.77.33 1.5.72 2.189 1.16 1.38.9 2.601 2.02 3.59 3.31.57.74 1.07 1.53 1.49 2.36.692 1.4 1.172 2.92 1.382 4.53z" stroke-width="3"/><path d="M625.62 108.3c0 .12.01.25.01.38 0 1.98-.51 3.82-1.42 5.43-1 1.78-2.479 3.26-4.26 4.26-1.601.9-3.45 1.41-5.431 1.41-.13 0-.25 0-.38-.01a10.952 10.952 0 0 1-5.83-1.88c-1.47-1-2.699-2.34-3.55-3.91a11.043 11.043 0 0 1-1.34-5.3c0-.12 0-.24.01-.36a11.05 11.05 0 0 1 1.601-5.4c.93-1.52 2.21-2.81 3.739-3.74 1.57-.96 3.421-1.53 5.391-1.59.12-.01.24-.01.359-.01 3.841 0 7.221 1.94 9.211 4.89 1.13 1.68 1.82 3.67 1.89 5.83z" stroke-width="2"/><path d="M512.14 326.26c-3.5-6.25-9.1-10.41-13.27-16.01-3.101-.74-5.69-2.01-7.71-3.84-1.851-5.21-4.67-9.45-7.69-13.48h5.58" stroke-width="6.794"/><path d="M475.99 292.93h6.52c3.01 4.35 6.391 8.37 7.69 14.44 3.03 1.14 5.09 3.25 8.67 3.84 4.26 5.17 8.729 10.1 13.17 15.07" stroke-width="6.794"/><path d="M391.61 627.79c5.28 7.08 9.4 15.32 13.89 23.19-.59.55-1.01 1.109-1.29 1.67-.82 1.6-.52 3.229.17 4.939.97 2.44 2.71 5.01 3.04 7.83 1.26 10.63-3.17 18.561-8.65 25.021 4.41 3.18-1.4 10.68 2.88 13.479 3.98 3.66 5.35-5.9 8.67-2.89 7.78 7.59 17.67-2.011 27.911 3.85 2.81-1.04 1.029-6.67 3.85-7.689 3.13-.53 6.78-.41 9.63-1.931.13-.069.26-.149.4-.229 4.13-2.62 9.29-11.75 15-15.17 2.02-1.23 4.35.27 5.77-.971 3.04-2.659 4.13-8 6.74-10.58-2.271-14.14 7.24-16.5 9.62-25.989 4.779 3.939 7.63 1.91 11.529.899 1.891-.489 4.03-.739 6.761.061 7.359 2.16 10.71 11.899 18.29 14.439 2.3.78 5.489-.729 8.66 0 2.399.561 4.319 3.021 6.739 3.851 1.33.449 3.311-1.44 4.811-.96 2.76.88 5.479 5.52 11.55 4.81 3.439-.41 5.36-5.34 8.66-5.78 1.17-.149 4.51 3.71 5.77 3.851 2.98.35 5.42.2 7.45-.34 10.47-2.79 10.15-16.181 17.58-27.57v1.92c-7.06 11.21-5.87 21.32-15.4 25.03-.189.08-1.029.34-2.17.649-2.52.681-6.54 1.61-8.42 1.271-.79-.13-4.2-4.07-5.77-3.84-2.96.42-4.73 5.35-7.7 5.77-6.01.86-9.43-4.08-12.521-4.81-.79-.19-3.689 1.359-4.81.96-4.53-1.59-7.79-6.08-15.39-3.851-8.551-4.6-11.44-14.88-24.07-15.399-3.6 2.59-7.31 3.47-11.55.97-2.67 8.55-11 11.45-8.66 25.02-3 3.091-5.36 6.83-7.7 10.591-9.87 2.13-13.34 10.649-20.71 15.27-2.68 1.69-5.88 2.86-10.09 3.021-1.561 1.97-.75 6.3-2.89 7.689-11.48-5.31-20.771 3.2-29.831-3.84-1.67-2.53-5.09 6.37-6.75 3.84-6.1-3-1.09-11.16-4.8-16.359 11.22-7.021 7.53-21.301 6.57-31.891-.17-1.77-.25-3.43-.17-4.939.04-.94.14-1.82.33-2.631-3.95-7.779-10.02-13.43-12.94-22.25 0 0 0 .011 0 0-.2-.59-.38-1.189-.54-1.81-.34 0-.67-.06-1.01-.18-3.58-1.221-7.19-8.28-8.61-4.641v149.19c-13.82-.47-21.56 8.65-29.67 12.84-1.32.69-2.65 1.24-4.02 1.6 2.97 3.66-1.41 8.19-4.81 8.671-5.57-5.971-17.28-10.74-25.03-3.86-5.71.58-8.58-1.69-14.43-.96-.39-6.82-9.2-5.36-14.44-4.811-4.96-3.71-9.94-7.39-13.48-12.51 1.26-3.16 6.99-4.55 2.89-7.71-1.02-3.859-3.91.13-7.7-.96-.37-4.51 1.69-5.47-.96-7.689-13.71.72-10.04 18.829-21.18 22.13 4.21 1.26 2.05 4.51 1.93 8.66 6.25 2.1 10.51 6.17 11.55 13.479h-.96c-.69-7.66-6.03-10.65-11.56-13.479-.69-2.94.99-3.511.97-5.771-8.43-9.86-21.75-14.83-26.96-27.91-3.33-.51-5.12-2.58-8.65-2.899 2.31-7.75-11.47-10.641-3.86-17.32-3.77-4.561-7.77-8.91-11.55-13.48-3.07-14.25-2.94-31.689-11.54-40.42.94-11.21-1.91-18.64-5.78-25.02 3.65-16.391-.6-33.05-9.62-46.21-.47-3.01 2.58-2.53 2.88-4.811-3.39-4.31-5.37-10.029-8.66-14.43-.18-2.99 3.42-2.2 3.87-4.57.06-.33.05-.729-.03-1.21-2.58-17.67-.62-28.649-6.73-41.39 3.12.56 4.48-.65 6.73-.96 3.37-10.35-3.87-13.99-6.73-19.25-4.97-9.14-7.12-22.07-16.36-25.99-3.52-15.09-13.4-23.82-21.18-34.649v-6.74c-8.1-6.97-5.43-24.72-16.36-28.87-4.41-19.97-18.49-30.27-23.1-50.05-5.28-3.7-11.57-6.39-16.37-10.59.39-11.94-6.03-17.06-11.55-23.1-.36-6.47-.67-12.84-.61-19.25.09-9.09.94-18.26 3.51-27.91h.96c-2.2 5.82-2.11 13.94-2.89 21.17 4.48-.46 5.64-7.09 11.55-7.69 3.44-.37 5.36 3.14 8.66 3.84 4.44.95 8.86-2.4 10.59 0 12.37-4.98 23.03-18.08 39.47-10.59 2.69 10.15 14.3 11.37 21.17 17.33 4.31-.76 5.72-3.17 9.63-3.85 23.13-4.04 52.55 0 78.92 0h79.89c8.39 6.36 13.56 15.96 24.06 20.22 17.95-5.34 35.87 7.68 51.98-.97 6 2.97 11.88 6.09 17.32 9.62 5.35-2.02 8.94-5.81 15.399-6.73 14.811 10.27 36.021.7 58.71-3.86 8.12-1.62 16.58-3.51 24.73-5.14.03-.01.07-.02.1-.02 7.94-1.58 15.58-2.91 22.341-3.49 8.159-.7 14.89 2.72 22.14-.97 1.22 2.95 5.51 2.83 6.74 5.78 3.04-.28 4.159-2.48 6.14-3.82.69-.48 1.49-.85 2.51-.99.28.35.57.68.891.99 2.939 3.02 6.89 4.19 10.67 7.66 3.449 3.18 6.359 9.57 13.47 8.67v.96c-3.72.52-4.7-1.72-8.66-.96 2.4 5.3 5.61 9.79 8.66 14.44v1.92c-3.271-5.4-6.83-10.49-9.63-16.36-11.99-1.87-22.561-1.09-27.46 6.09-.55.78-1.01 1.64-1.41 2.58-3.43-.43-3.11-4.6-4.81-6.75-8.28 2.19-9.28 8.68-19.25 10.59-4.12 3.58-4.681 10.72-12.511 10.59-.16-1.13-1.76-.81-2.899-.96.479-10.75-7.28-13.25-10.58-20.22-27.92 4.74-54.181 15.42-85.66 13.48v148.229h-41.39v113.57c3.25 2.45 6.07 5.33 8.61 8.49.53.649 1.04 1.319 1.55 1.989" stroke-width="6.794"/><path d="M305.87 313.78c-8.82 0-18.83 1.28-27.42 1.28H160.06c-9.48 7.86-11.65 2.04-20.21-2.88-5.76-3.31-11.25-4.17-10.59-10.59-16.32-7.16-26.5 6.91-39.46 11.55-6.54-2.05-12.53-1.56-19.26-4.81-4.32 3.69-8.73 7.3-11.55 12.51 1.31 6.14 4.33 11.02 1.94 18.29 5.5 6.04 11.93 11.16 11.54 23.1 4.94 4.04 11.72 6.25 16.37 10.58 4.61 19.78 18.68 30.09 23.09 50.06 2.77 1.73 5.37 3.61 7.71 5.77-1.21 14.04 9.61 16.061 8.65 29.841 7.92 10.699 17.6 19.63 21.18 34.649 9.42 3.94 11.32 16.71 16.37 25.99 3.04 5.59 10.36 10.67 6.74 22.13-2.41.5-5.82-.02-5.78 2.9 4.32 8.739 6.67 25.72 4.25 38.81-.35 1.92-.8 3.75-1.37 5.46 2.91 4.15 5.37 8.74 7.71 13.47.46 3.03-2.96 2.19-1.93 5.78 9.58 10.38 7.24 23.521 11.56 36.58-.73 3.12-1.75 5.96-2.9 8.66 4.58 5.37 6.42 13.47 5.78 24.06 8.6 8.73 8.47 26.17 11.55 40.42 3.77 4.57 7.78 8.92 11.55 13.48-7.5 7.76 6.54 7.8 2.89 16.36 15.93 3.96 17.01 22.77 33.68 25.989 6.72-3.229 7.69-12.21 11.56-18.279 2.7-1.15 5.53-2.171 8.66-2.891 1.86 2.51 5.64 4.19 2.89 8.66 5.15-2.96 7.93 1.46 9.62 4.82.26 3.779-4.12 2.939-3.85 6.729 4.4-1.56 1.92 2.95 3.85 4.811 5.03 4.859 12.61 2.149 19.25 4.819 2.11.841 3.79 4.16 5.77 4.811 3.31 1.08 6.96.42 10.59.96 7.19-7.66 20.91-1.86 25.99 3.84 4.13-2.06 1.09-6.47 2.89-9.61 2.72-.8 2.49 1.351 4.81.96 5.18-8.939 15.75-12.489 27.91-14.439.65-88.55-1.28-179.67.96-266.61h40.43c.64-49.1-1.28-100.75.96-148.24 32.73 2.07 58.621-9.67 88.56-13.47 3.8 7.1 9.5 12.32 12.51 20.22 3.521-1.97 7.271-4.99 11.181-8.17 6.239-5.09 12.89-10.61 19.62-13.01 2.89 1.28 2.319 6.01 5.77 6.74 1.16-10.59 15.83-8.81 25.99-7.7-3.19-6.82-13.17-15.64-22.13-8.67-2.2-1.65-4.87-2.83-6.74-4.81-3.58-.36-2.521 3.9-6.74 2.89.29-2.53-1.34-3.16-3.85-2.89-22.49.52-38.08 5.53-58.721 9.63-20.189 4-46.85 12.87-59.67 2.88-5.3 1.77-8.669 5.46-14.439 6.74-6.43-2.88-11.86-6.75-18.28-9.62-12.98 9.01-26.69-1.63-42.36-.96-2.85.11-5.89 2.3-8.66 1.92-11.02-1.54-17.5-17.89-25.99-20.22-3.501-.96-7.621-1.28-12.041-1.28z" stroke-width="6.794"/></g><path fill="none" d="M.25.25h850.394v850.394H.25z"/></svg>