<svg xmlns="http://www.w3.org/2000/svg" width="850.89" height="850.89" viewBox="0 0 850.89 850.89" overflow="visible"><path d="M428.51 658.45c.8 2.74-2.14 9.229 2.66 7.97-.81-2.74 2.14-9.23-2.66-7.97zm-43.84 45.17c-16.59 4.14-39.21 20.25-55.8 7.97 1.82-7.93 11.99-7.5 9.3-19.93 19.37-3.66 14.09-31.96 30.56-38.53 10.31 8.04 26.99 7.03 29.97-6.77l33.649-2.82c-1.79 2.38-2.75 5.87-2.51 10.92 2.48 2.07 8.11 12.6 0 13.29-5.3.86-3.81-5.05-3.99-9.3-2.64 1.78-6.32 2.53-9.3 3.979a55.26 55.26 0 0 1-.88 4.891c-4.01 14.229-19.62 21.199-33.66 24.34-1.299 6.17 1.731 8.02 2.661 11.96z" fill="#fff5b4"/><path d="M708.82 738.16c-1.32-20.82-29.53-14.76-37.2-29.23 5.29.41 6.68-3.069 11.96-2.66-4.79-.96-6.69-4.819-6.64-10.619 5.649-2.091 17.63-.261 19.92 5.31l-.051.72c-5.829-.41-10.869-1.81-17.22-3.38 1.75 3.57 7.62 3.021 7.97 7.97-1.75 3.561-8.369 2.25-10.619 5.32 7.1 3.96 14.52 7.61 25.239 7.97 2.801 5.61 6.5 10.33 9.301 15.94 7.039-.04 15.97 1.8 15.939-5.31 8.42 5.75 13.85 14.489 22.58 19.92 4.28.3 5.63-2.351 10.63-1.32 5.16 2.58 11.41 8.1 17.271 11.95 5.83 3.83 13.069 9.18 15.939 7.97.3-1.03 1.12-1.54 2.66-1.33v5.32c-18.15-.94-26.08-26.101-51.81-19.931-2.15-8.47-10.551-10.699-14.61-17.27-2.859 5.12-14.289 1.66-21.259 2.66zM717.93 693.89c-1.35-3.14-1.13-3.64-5.13-2.229.75-6.061-2.35-8.271-1.319-14.61 6.729.99 10.63-10 10.619-19.93 3.17-5.93 10.48.55 9.301-9.3 8.02-2.391 10.899.51 17.27 2.66-.18-.11-.36-.221-.54-.341l.71-1.13c.9.99 1.74 1.94 2.49 2.8-6.96 4.5-10.47-4.97-17.271-1.329-3 4.52 2.021 17.069-5.31 17.27-5.34-2.03 4.43-10.91-2.66-10.63-1.79 13.85-12.57 23.83-6.38 36.57l-1.78.199z"/><path fill="#fbed24" d="M797.63 140.44v68.32H580.25l-.62-68.32h217.93z"/><path fill="#5c80ba" d="M797.63 66.31v74.13h-218l-.68-74.13z"/><path d="M484.99 639.13c-1.48-3.37-4.641-5.07-6-8.58-5.76 17.84-37.391.7-46.641 12.99l-33.649 2.82c-1.2-21.38-23.13-27.971-23.33-50.351-9.55.69-11.98-5.74-14.61-11.96 23.22-34.74-12.74-31.16-20.17-33.979-1.83-1.7-3.7-3.36-5.53-5.061-2.13-1.96-4.22-3.97-6.19-6.12-21.78-2.5-47.48-9.989-61.11 1.32.82.26 1.65.57 2.47.91l-.54 1.38a13.24 13.24 0 0 0-4.58-.96c-12.17-.33-23.63 24.44-42.51 13.29-10.5 9.56-33.23 15.89-39.86-1.33-16.53-.03-34.93-2.48-45.17-7.97-15.39-8.261-24.04 11.29-37.2 7.97-8.33 7.6-17.86 14.02-19.92 27.9-13.02 11.779-27.76 21.83-37.2 37.189v-5.31c8.69-13.891 22.45-22.721 34.54-33.21 2.03-14.36 12.38-20.391 19.93-29.23 9.04 3.24 13.59-4.63 21.25-6.64 1.1-3.76-1.87-3.44-1.32-6.641-10.3-6.09-20.44-12.329-29.23-19.93-4.28 1.92-11.14 1.26-17.27 1.33-2.22-6.2-8.57-8.26-7.97-17.27-6.92-.04-13.84-3.051-19.93 0v-5.32c6.95 1.03 13.76 2.189 21.26 2.66 1.23 7.18 5.28 11.55 7.97 17.27 23.17 3.25 20.68-19.17 30.55-29.22-.2-2.46-4.5-.82-5.31-2.66-.69-2.63 7.83-3.55 1.33-3.99.83-3.229 6.71-.699 5.31 2.66 7.15-7.77-10.37-9.83-14.61-14.609-3.2-18.16-24.77-21.131-42.51-14.62-3.53-.42 1.24 7.439-3.99 5.319v-5.319c11.02-8.2 27.17-5.23 35.87-6.641 6.17 11.17 22.4 30.681 39.85 30.55-1.83-8.789-2.59-18.659-3.98-27.89 5.65-8 16.96-16.2 18.6-23.92 8.97-10.8 30.98-24.08 42.51-29.22-.07-20.73-2.74-28.88-14.62-41.19 5.79-6.72 1.39-13.11 0-22.58 3.7-9.59 9.89-19.09 6.65-27.9l.78-.32c3.04 7.45 3.29 15.97-2.11 26.89 7.72 3.78 13.28-2.63 19.93-3.98 1.29-3.96.34-8.09 1.32-9.3 29.8-1.29 74.74-4.86 96.98 14.61 4.54-.34 6.39-3.36 11.96-2.66 1.08 4.6-2.48 5.61 0 7.97 7.14 2.61 18.46 1.03 19.93 9.3.73-8.12 12.46-5.25 15.94-10.62 5.09 8.04 13.37 5.09 18.6 11.95 3.01-4.51 8.1-6.96 14.61-7.97 1.98 3.78 2.42 9.1 5.32 11.96 7.72 1.27 17.37-2.78 26.57-3.99-2.82 3.79 6.53 4.28 10.62 5.32 2.57.51 7.46 9.93 7.97 3.98-3.39-25.15 9.16-45.71 34.54-46.5 4.97-9.18-7-20.75 2.66-25.24-3.58 7.82 4.31 15.09 0 23.92 3.33 4.64 11.66 4.28 18.6 5.31 2.561-9.04 11.471-24.68 31.881-15.94 27.359-17.32 49.489 11.02 57.13 30.55-8 4.23-12.57 15.99-5.32 25.24 5.78 1.77 7.42.75 11.96-1.32 4.68 1.07 3.41 8.11 9.3 7.97 4.22-1.98 7.49-4.92 13.28-5.32-1.04 5.47 2.04 6.82 1.33 11.96 3.18.81 9.64-1.67 10.63 1.33 2.05 13.49 3.51 24.6 6.64 37.2 7.271-.27 10.62-4.45 17.271-5.32 7.51 3.13 13.76 7.51 19.93 11.96 2.91-9.63 18.61-12.62 31.88-18.6 10.101 6.73 11.271 22.39 23.92 26.57 4.67-.19 2.92-6.82 6.641-7.97 9.77 3.19 20.819 3.52 27.899 11.95 9.521-8.17 24.7 6.49 34.54 10.63 5.891-.75 8.98-4.3 15.94-3.979-1.59 9.819-.34 13.779 1.33 22.58-3.431 5.869-7.66 10.939-11.96 15.939 4.75 3.67 12.08 4.76 14.62 10.63-1.82 4.38-6.29 6.11-10.631 7.971 10.261 6.909 2.221 18.52 11.95 27.899-3.89 6.29-4.83 15.53-6.64 23.91-27.14-3.42-46.07 9.81-55.79 27.9 2.16 7.39 8.3 10.55 1.32 17.27 6.619 1.74 5.659-4.09 10.63-3.979.21 1.56-.23 3.77 1.33 3.979 8.359-4.04 14.22-10.58 23.909-13.28 2.811 5.16 6.07 9.87 6.65 17.271-13.2-.8-16.43 8.37-23.92 13.28-6.75-.99-10.18 1.329-11.95 5.319 5.061.25 8.74 1.88 9.3 6.641-13.399-.61-17.479 1.52-30.56 5.31 1.04 5.16 4.18 8.22 6.64 11.96 7.54-2.57 18.41 8.05 25.41 15.8l-.71 1.13c-7.46-4.649-14.68-9.54-20.71-15.6-3.5-.4-1.05 5.15-5.32 3.979-2.54-7.64-8.08-12.289-10.619-19.93 13.43 3.83 17.899-11.42 25.239-5.31-3.35-7.3 2.63-13.28 11.95-11.96 6.9-4.61 10.3-12.73 21.26-13.28.051-4.92-2.04-7.7-3.989-10.63-9.25 3.59-15.62 10.06-25.24 13.29-29.21-2.101-48.97 16.479-71.74 25.24-3.479.939-2.62 6.229-5.31 7.97-16.75-3.79-19.25 5.09-33.21 6.64-2.33 2.55-2.82 6.931-3.99 10.63-5.141 1.15-4.72-3.25-7.97-3.989.43 3.119 2.1 4.989 1.329 9.3-3.079.43-5.1-.21-6.64-1.33-2.93.17-.56 5.64-1.33 7.97-7.3 2.18-14.81 4.15-20.77 7.69.569-1.44 1.069-5.41-.49.29-1.38 1.46-1.29 4.39-.8 4.489-2.42 4.9-5.65 5.45-5.84 11.45 1.52 3.15 7.619-6.12 10.14-1.3-1.45-.36-3.6.01.49 1.3 3.14 3.53 7.439 2.99 3.989 3.98 1.96 3.35 5.131 5.489 9.301 6.649v11.95c22.92 14.51 43.01-15.229 63.76 2.66.03 2.43-.32 4.49-.771 6.45-.71 3.08-1.689 5.89-1.89 9.49-9.37 5.399-26.43 9.8-37.19 2.659-8.39 2.681-9.789 12.36-17.27 15.94-13.25-1.67-26.29 3.43-26.57 18.6-11.14 14.34-36.58 16.34-49.16 2.65 6.261-8.95 5.671-17.94 9.301-30.55-15.601-5.65-25.65-16.86-47.82-15.94 3.14-20.77 23.58-24.24 38.52-33.21 1.671-.53-2.329-7.71 5.32-5.32-6.39-5.71-14.53-11.85-23.91-11.949-5.26-.061-9.46 4.739-14.62 5.31-14.42 1.59-26.22-5.979-37.199-11.96-.74-7.25 2.26-10.75 5.13-14.37l4.38-.359c2.729.34 4.729 1.409 7.76 1.449a9.022 9.022 0 0 0-.641-2.046zm93.64 32.6c-1.05-5.471 2.04-6.811 1.33-11.95-11.42-.92-13.6-2.221-23.92 1.33 2.01 4.25 4.79 1.52 9.3 1.319 3.42 4.111 4.26 10.811 13.29 9.301z" fill="#fff5b4"/><path d="M720.78 695.65c-3.07-.41-1.48 3.83-3.99 3.979-8.46 1.98-14.56 2.44-19.98 2.05l.051-.72c-2.82-7.82 18.17-.6 21.26-6.64-.07-.15-.13-.29-.19-.431l1.78-.199c.309.651.669 1.301 1.069 1.961zM594.08 675.75c.85.2 1.47.65.49 1.3-.14-.52-.31-.94-.49-1.3zM590.58 661.11c.16-.101.33-.2.49-.29-.18.44-.36.65-.49.29zM590.58 663.76c-.28 1.4-.58 1.9-.8 1.84.29-.55.55-1.16.8-1.84z"/><path d="M578.02 56.59c-2.229 1.05-4.899 1.66-7.76 1.66-2.729 0-5.29-.56-7.47-1.53-4.12-1.83-6.87-5.14-6.87-8.92 0-5.78 6.42-10.46 14.34-10.46 7.931 0 14.351 4.68 14.351 10.46-.001 3.69-2.621 6.93-6.591 8.79z" fill="#c8c8c8"/><path d="M578.02 140.44v167.78h-14.81l-.42-251.5c2.18.97 4.74 1.53 7.47 1.53 2.86 0 5.53-.61 7.76-1.66v83.85z" fill="#c8c8c8"/><path d="M484.99 639.13l-7.12.601c-1.2-.15-2.55-.16-4.19.119-.06.08-.13.16-.189.24l-41.141 3.45c9.25-12.29 40.881 4.85 46.641-12.99 1.359 3.51 4.519 5.21 5.999 8.58z"/><path d="M335.06 545.01l-.08.09a33.4 33.4 0 0 0-7.43-3.56c1.09-3.75.77.55 1.32-2.65 1.97 2.15 4.06 4.16 6.19 6.12z" fill="#fff5b4"/><path d="M168.91 304.75l-.78.32c-2.59-7.05-17.87-8.71-11.96-18.6 5.12 5.86 10.04 11.64 12.74 18.28z"/><g fill="none" stroke="#231f20"><path stroke-width="7" d="M578.95 66.31h218.68v142.45H580.25M562.79 56.72c-4.12-1.83-6.87-5.14-6.87-8.92 0-5.78 6.42-10.46 14.34-10.46 7.931 0 14.351 4.68 14.351 10.46 0 3.69-2.62 6.93-6.591 8.79-2.229 1.05-4.899 1.66-7.76 1.66-2.73 0-5.29-.56-7.47-1.53z"/><path stroke-width="7" d="M562.79 56.43v.29l.42 251.5M578.02 55.91v252.31M577.79 140.44h219.77"/><path d="M589.78 665.6c-2.42 4.9-5.65 5.45-5.84 11.45 1.52 3.15 7.619-6.12 10.14-1.3.18.36.35.78.49 1.3.979-.649.359-1.1-.49-1.3-1.45-.36-3.6.01.49 1.3 3.14 3.53 7.439 2.99 3.989 3.98 1.96 3.35 5.131 5.489 9.301 6.649v11.95c22.92 14.51 43.01-15.229 63.76 2.66.03 2.43-.32 4.49-.771 6.45-.71 3.08-1.689 5.89-1.89 9.49-9.37 5.399-26.43 9.8-37.19 2.659-8.39 2.681-9.789 12.36-17.27 15.94-13.25-1.67-26.29 3.43-26.57 18.6-11.14 14.34-36.58 16.34-49.16 2.65 6.261-8.95 5.671-17.94 9.301-30.55-15.601-5.65-25.65-16.86-47.82-15.94 3.14-20.77 23.58-24.24 38.52-33.21 1.671-.53-2.329-7.71 5.32-5.32-6.39-5.71-14.53-11.85-23.91-11.949-5.26-.061-9.46 4.739-14.62 5.31-14.42 1.59-26.22-5.979-37.199-11.96-.74-7.25 2.26-10.75 5.13-14.37.06-.08.13-.16.189-.24 1.641-.279 2.99-.27 4.19-.119 2.729.34 4.729 1.409 7.76 1.449-.14-.75-.36-1.43-.64-2.05-1.48-3.37-4.641-5.07-6-8.58-5.76 17.84-37.391.7-46.641 12.99-1.79 2.38-2.75 5.87-2.51 10.92 2.48 2.07 8.11 12.6 0 13.29-5.3.86-3.81-5.05-3.99-9.3-2.64 1.78-6.32 2.53-9.3 3.979a55.26 55.26 0 0 1-.88 4.891c-.12.569-.26 1.13-.4 1.689M589.78 665.6c.22.061.52-.439.8-1.84-.25.68-.51 1.29-.8 1.84z" stroke-width="5"/><path d="M415.27 669.01c-3.62 14.13-12.3 23.2-27.94 25.311 3.53 10.02-1.58 36.77-6.65 50.479-12.49 5.86-23.98.59-26.56-10.63-5.6 4.62-5.49 12.82-2.66 19.93-2.21 10.17-13.9 16.511-11.96 26.57h-5.31c3.09-10.2 9.1-17.46 14.61-25.24-4.17-9.43-2.16-22.91 6.64-26.569 8.64 32.17 34.3 7.92 29.23-19.931-14.31 4.48-48.84 21.45-63.77 2.66 4.1-5.41-3.24-8.43-3.98-14.62-1.99-16.67 3.41-40.54 9.3-51.81-4.46-23.44-14.85-40.95-29.23-54.46-1.1-3.76 1.87-3.45 1.33-6.65-3.33-4.2-10.31-4.74-14.61-7.97.51-4.8 1.76-8.86 3.98-11.95-4.83-8.51-10.22-18.54-18-21.63a13.24 13.24 0 0 0-4.58-.96c-12.17-.33-23.63 24.44-42.51 13.29-10.5 9.56-33.23 15.89-39.86-1.33-16.53-.03-34.93-2.48-45.17-7.97-15.39-8.261-24.04 11.29-37.2 7.97-8.33 7.6-17.86 14.02-19.92 27.9-13.02 11.779-27.76 21.83-37.2 37.189v-5.31c8.69-13.891 22.45-22.721 34.54-33.21 2.03-14.36 12.38-20.391 19.93-29.23 9.04 3.24 13.59-4.63 21.25-6.64 1.1-3.76-1.87-3.44-1.32-6.641-10.3-6.09-20.44-12.329-29.23-19.93-4.28 1.92-11.14 1.26-17.27 1.33-2.22-6.2-8.57-8.26-7.97-17.27-6.92-.04-13.84-3.051-19.93 0v-5.32c6.95 1.03 13.76 2.189 21.26 2.66 1.23 7.18 5.28 11.55 7.97 17.27 23.17 3.25 20.68-19.17 30.55-29.22-.2-2.46-4.5-.82-5.31-2.66-.69-2.63 7.83-3.55 1.33-3.99.83-3.229 6.71-.699 5.31 2.66 7.15-7.77-10.37-9.83-14.61-14.609-3.2-18.16-24.77-21.131-42.51-14.62-3.53-.42 1.24 7.439-3.99 5.319v-5.319c11.02-8.2 27.17-5.23 35.87-6.641 6.17 11.17 22.4 30.681 39.85 30.55-1.83-8.789-2.59-18.659-3.98-27.89 5.65-8 16.96-16.2 18.6-23.92 8.97-10.8 30.98-24.08 42.51-29.22-.07-20.73-2.74-28.88-14.62-41.19 5.79-6.72 1.39-13.11 0-22.58 3.7-9.59 9.89-19.09 6.65-27.9-2.59-7.05-17.87-8.71-11.96-18.6 5.12 5.86 10.04 11.64 12.74 18.28 3.04 7.45 3.29 15.97-2.11 26.89 7.72 3.78 13.28-2.63 19.93-3.98 1.29-3.96.34-8.09 1.32-9.3 29.8-1.29 74.74-4.86 96.98 14.61 4.54-.34 6.39-3.36 11.96-2.66 1.08 4.6-2.48 5.61 0 7.97 7.14 2.61 18.46 1.03 19.93 9.3.73-8.12 12.46-5.25 15.94-10.62 5.09 8.04 13.37 5.09 18.6 11.95 3.01-4.51 8.1-6.96 14.61-7.97 1.98 3.78 2.42 9.1 5.32 11.96 7.72 1.27 17.37-2.78 26.57-3.99-2.82 3.79 6.53 4.28 10.62 5.32 2.57.51 7.46 9.93 7.97 3.98-3.39-25.15 9.16-45.71 34.54-46.5 4.97-9.18-7-20.75 2.66-25.24-3.58 7.82 4.31 15.09 0 23.92 3.33 4.64 11.66 4.28 18.6 5.31 2.561-9.04 11.471-24.68 31.881-15.94 27.359-17.32 49.489 11.02 57.13 30.55-8 4.23-12.57 15.99-5.32 25.24 5.78 1.77 7.42.75 11.96-1.32 4.68 1.07 3.41 8.11 9.3 7.97 4.22-1.98 7.49-4.92 13.28-5.32-1.04 5.47 2.04 6.82 1.33 11.96 3.18.81 9.64-1.67 10.63 1.33 2.05 13.49 3.51 24.6 6.64 37.2 7.271-.27 10.62-4.45 17.271-5.32 7.51 3.13 13.76 7.51 19.93 11.96 2.91-9.63 18.61-12.62 31.88-18.6 10.101 6.73 11.271 22.39 23.92 26.57 4.67-.19 2.92-6.82 6.641-7.97 9.77 3.19 20.819 3.52 27.899 11.95 9.521-8.17 24.7 6.49 34.54 10.63 5.891-.75 8.98-4.3 15.94-3.979-1.59 9.819-.34 13.779 1.33 22.58-3.431 5.869-7.66 10.939-11.96 15.939 4.75 3.67 12.08 4.76 14.62 10.63-1.82 4.38-6.29 6.11-10.631 7.971 10.261 6.909 2.221 18.52 11.95 27.899-3.89 6.29-4.83 15.53-6.64 23.91-27.14-3.42-46.07 9.81-55.79 27.9 2.16 7.39 8.3 10.55 1.32 17.27 6.619 1.74 5.659-4.09 10.63-3.979.21 1.56-.23 3.77 1.33 3.979 8.359-4.04 14.22-10.58 23.909-13.28 2.811 5.16 6.07 9.87 6.65 17.271-13.2-.8-16.43 8.37-23.92 13.28-6.75-.99-10.18 1.329-11.95 5.319 5.061.25 8.74 1.88 9.3 6.641-13.399-.61-17.479 1.52-30.56 5.31 1.04 5.16 4.18 8.22 6.64 11.96 7.54-2.57 18.41 8.05 25.41 15.8.9.99 1.74 1.94 2.49 2.8-6.96 4.5-10.47-4.97-17.271-1.329-3 4.52 2.021 17.069-5.31 17.27-5.34-2.03 4.43-10.91-2.66-10.63-1.79 13.85-12.57 23.83-6.38 36.57.31.649.67 1.3 1.07 1.96-3.07-.41-1.48 3.83-3.99 3.979-8.46 1.98-14.56 2.44-19.98 2.05-5.829-.41-10.869-1.81-17.22-3.38 1.75 3.57 7.62 3.021 7.97 7.97-1.75 3.561-8.369 2.25-10.619 5.32 7.1 3.96 14.52 7.61 25.239 7.97 2.801 5.61 6.5 10.33 9.301 15.94 7.039-.04 15.97 1.8 15.939-5.31 8.42 5.75 13.85 14.489 22.58 19.92 4.28.3 5.63-2.351 10.63-1.32 5.16 2.58 11.41 8.1 17.271 11.95 5.83 3.83 13.069 9.18 15.939 7.97.3-1.03 1.12-1.54 2.66-1.33v5.32c-18.15-.94-26.08-26.101-51.81-19.931-2.15-8.47-10.551-10.699-14.61-17.27-2.86 5.12-14.29 1.66-21.26 2.66-1.32-20.82-29.53-14.76-37.2-29.23 5.29.41 6.68-3.069 11.96-2.66-4.79-.96-6.69-4.819-6.64-10.619 5.649-2.091 17.63-.261 19.92 5.31-2.82-7.82 18.17-.6 21.26-6.64-.07-.15-.13-.29-.19-.431-1.35-3.14-1.13-3.64-5.13-2.229.75-6.061-2.35-8.271-1.319-14.61 6.729.99 10.63-10 10.619-19.93 3.17-5.93 10.48.55 9.301-9.3 8.02-2.391 10.899.51 17.27 2.66-.18-.11-.36-.221-.54-.341-7.46-4.649-14.68-9.54-20.71-15.6-3.5-.4-1.05 5.15-5.32 3.979-2.54-7.64-8.08-12.289-10.619-19.93 13.43 3.83 17.899-11.42 25.239-5.31-3.35-7.3 2.63-13.28 11.95-11.96 6.9-4.61 10.3-12.73 21.26-13.28.051-4.92-2.04-7.7-3.989-10.63-9.25 3.59-15.62 10.06-25.24 13.29-29.21-2.101-48.97 16.479-71.74 25.24-3.479.939-2.62 6.229-5.31 7.97-16.75-3.79-19.25 5.09-33.21 6.64-2.33 2.55-2.82 6.931-3.99 10.63-5.141 1.15-4.72-3.25-7.97-3.989.43 3.119 2.1 4.989 1.329 9.3-3.079.43-5.1-.21-6.64-1.33-2.93.17-.56 5.64-1.33 7.97-7.3 2.18-14.81 4.15-20.77 7.69-.16.09-.33.189-.49.29.13.359.31.149.49-.29.569-1.44 1.069-5.41-.49.29-1.38 1.46-1.29 4.39-.8 4.489" stroke-width="5"/><path d="M398.7 646.36c-2.98 13.8-19.66 14.81-29.97 6.77-16.47 6.57-11.19 34.87-30.56 38.53 2.69 12.43-7.48 12-9.3 19.93 16.59 12.28 39.21-3.83 55.8-7.97-.93-3.94-3.96-5.79-2.66-11.96 14.04-3.141 29.65-10.11 33.66-24.34.44-1.54.74-3.17.88-4.891M334.98 545.1a33.4 33.4 0 0 0-7.43-3.56c1.09-3.75.77.55 1.32-2.65-21.78-2.5-47.48-9.989-61.11 1.32.82.26 1.65.57 2.47.91 1.53.63 3.06 1.38 4.54 2.25" stroke-width="5"/><path d="M328.87 538.89c1.97 2.15 4.06 4.16 6.19 6.12 1.83 1.7 3.7 3.36 5.53 5.061M398.7 646.36c-1.2-21.38-23.13-27.971-23.33-50.351-9.55.69-11.98-5.74-14.61-11.96 23.22-34.74-12.74-31.16-20.17-33.979M556.04 661.11c2.01 4.25 4.79 1.52 9.3 1.319 3.42 4.11 4.26 10.811 13.29 9.301-1.05-5.471 2.04-6.811 1.33-11.95-11.42-.92-13.6-2.22-23.92 1.33zM431.17 666.42c-.81-2.74 2.14-9.229-2.66-7.97.8 2.74-2.14 9.23 2.66 7.97z" stroke-width="5"/></g><path fill="none" d="M.25.246h850.394V850.64H.25z"/></svg>