<?xml version="1.0" encoding="iso-8859-1"?>
<!-- Generator: Adobe Illustrator 12.0.1, SVG Export Plug-In . SVG Version: 6.00 Build 51448)  -->
<!DOCTYPE svg PUBLIC "-//W3C//DTD SVG 1.1//EN" "http://www.w3.org/Graphics/SVG/1.1/DTD/svg11.dtd" [
	<!ENTITY ns_svg "http://www.w3.org/2000/svg">
	<!ENTITY ns_xlink "http://www.w3.org/1999/xlink">
]>
<svg  version="1.1" id="Layer_1" xmlns="&ns_svg;" xmlns:xlink="&ns_xlink;" width="850.89" height="850.89"
	 viewBox="0 0 850.89 850.89" style="overflow:visible;enable-background:new 0 0 850.89 850.89;" xml:space="preserve">
<g>
	<path style="fill-rule:evenodd;clip-rule:evenodd;stroke:#231F20;stroke-width:7;" d="M634.891,316.143
		c0.589,3.47,1.76,7.114,3.646,10.957c-7.933,14.111-49.228,12.478-32.303,36.917c2.765,0.006,12.787-2.701,19.997,0
		c3.213,9.093,10.616,13.994,9.229,27.688c-0.26,7.431-10.252,5.13-10.767,12.306c-1.723,32.485,22.697,38.829,41.53,50.761
		c-6.282,6.65-3.826,17.926-1.537,27.687c20.964,2.109,17.319,28.827,21.534,47.685c-16.978,2.506-23.689,15.278-36.917,21.535
		c-20.464,50.422,4.733,100.334,56.913,104.598c-0.97,7.745-1.779,15.653-3.076,23.072c-16.808,10.795-25.522,34.682-23.072,59.989
		c30.96-8.134,36.664,33.527,50.761,52.3c0,1.538,0,3.076,0,4.614c-13.033-22.049-22.858-65.957-53.837-55.376
		c-11.773-5.151-13.007-11.438-23.073-10.767c-10.482,0.698-12.699,12.158-23.073,13.843c-22.827,3.709-28.103-19.275-44.607-23.072
		c-19.726-4.538-27.69,10.505-49.223,9.229c-1.712-40.922-49.319-49.068-73.834-72.296c-8.934,1.172-13.918,4.947-21.534,0
		c0.095-14.53-8.29-29.059-7.69-49.223c0.391-13.132,13.584-31.102,7.69-36.916c-10.876-10.731-32.282,19.871-29.225,38.455
		c-12.156,2.351-20.652,13.569-33.841,13.844c-8.391,0.175-15.73-6.587-24.611-7.691c-10.395-1.292-20.13,4.903-26.149-3.076
		c-4.08-23.186,11.174-48.161,7.691-66.143c-2.661-13.73-17.687-17.396-27.688-26.148c-18.344,10.012-45.224,1.214-55.375-10.769
		c2.783-29.066-28.072-33.377-47.684-23.072c-24.674-11.219-15.139-56.645-35.378-72.296c-17.041-3.184-32.031,8.98-39.993,19.996
		c-11.953-12.579-28.571-14.321-38.455-29.226c-12.585-18.976-4.184-47.786-18.459-67.68c-2.052,2.563-6.841,2.389-9.229,4.615
		c0-0.513,0-1.025,0-1.539c27.543-14.164,53.562-28.696,79.986-47.684c11.067-7.953,23.061-17.619,39.993-23.073
		c14.287-4.603,34.454-15.679,47.685-15.382c16.291,0.367,30.301,20.691,50.761,18.459c6.645-0.725,11.473-6.611,16.92-7.691
		c13.578-2.692,24.452,1.957,41.531,0c2.031,5.66,7.354,8.027,7.691,15.382c5.366-25.883-27.036-27.309-50.761-29.227
		c-6.024-0.897-3.926,6.328-7.69,7.691c-28.006,3.25-63.078-9.913-72.295-35.379c7.97-19.362,43.304-19.033,67.681-16.92
		c2.55,5.223,6.159,8.896,1.539,13.844c18.048-2.965,30.659,10.859,35.378,26.149c8.464,2.253,26.788,3.979,29.225-4.615
		c-2.971-22.732-47.35-9.29-44.608-35.378c8.175-4.297,17.148-2.397,27.688-1.538c-6.923,3.844-19.783-3.465-26.149,3.076
		c-1.057,24.789,44.828,8.313,44.608,35.378c-3.797,7.694-21.336,7.396-30.764,4.615c-5.594-13.939-19.159-32.649-36.917-24.611
		c-6.564-1.45,8.555-8.649,0-13.843c-20.075-5.288-58.836-3.777-66.142,13.843c8.282,24.748,40.257,33.282,66.142,35.379
		c5.47-0.682,6.073-6.232,9.229-9.229c34.018-2.227,48.389,15.19,76.91,18.458c4.383-8.507-6.242-13.879-4.615-24.611
		c9.028-2.253,14.985-7.574,26.149-7.691c0.338,4.953-2.721,6.509-1.538,12.306c24.94,16.816,29.086-32.24,49.222-10.767
		c-0.378,4.749-1.559,8.695-3.077,12.305c2.172,6.033,10.859,5.549,16.921,7.691c8.376-3.93,7.687-16.924,15.382-21.535
		c18.667,6.706,2.05,32.379,18.458,43.07c4.311-1.769,7.997-1.77,12.307,0c2.576,2.551,1.224,9.03,1.537,13.844
		c17.92,0.999,31.961-1.88,41.531-9.229c7.191,2.552,10.512,8.972,10.769,18.458c14.805,6.216,32.601,9.442,44.607,18.458
		c-10.225,26.693-15.917,57.917-33.841,76.91c2.265,7.32,16.464,9.71,9.229,21.535c19.356-5.105,27.802,2.838,49.222,0
		c-2.484-14.791,2.047-22.565,10.769-26.149c2.08-13.874-5.55-18.038-7.691-27.688c-6.389-0.012-15.023-4.32-18.458,1.538
		c-4.816-4.413-8.322-10.136-7.691-19.996c11.738-7.233,27.429-10.513,36.916-19.997c-6.597-13.448-4.446-24.46,0.778-34.104
		 M637.775,292.996c0.843-1.556,1.766-3.077,2.745-4.566 M344.74,273.263c-15.925,13.231-49.823,46.805-72.295,29.226
		c-2.151-1.683-1.178-7.41-3.077-9.229c-9.635-9.23-24.163-8.746-36.917-6.153c-8.012,26.325-34.813,2.168-29.225-21.535
		c-52.628,13.514-81.958,50.328-127.671,70.757c9.142,20.083,6.982,51.47,16.92,70.757c13.467,8.068,24.256,18.813,38.455,26.15
		c5.855-14.142,20.351-19.643,38.455-21.535c13.273,16.467,19.788,39.689,23.073,66.142c4.438,2.229,9.127,4.204,12.306,7.691
		c21.16-11.106,52.521-4.508,49.222,26.15c13.153,9.856,37.791,16.755,56.914,7.69c9.017,12.024,24.289,14.487,26.149,30.765
		c2.083,18.204-11.171,40.006-7.691,63.065c9.833,4.307,13.342,3.385,26.149,1.538c17.819,13.514,40.36,3.461,55.375-6.153
		c1.463-21.098,10.786-34.336,26.149-41.53c1.975,4.18,7.879,4.427,9.229,9.229c-15.75,19.98-9.585,57.148-1.538,81.523
		c6.603,3.863,10.224-1.226,16.922-1.537c29.001,20.834,71.354,36.181,79.985,72.295c17.478-4.569,33.858-10.235,55.375-10.768
		c15.735-20.015,3.116-50.584-15.382-58.451c-6.523-17.296,1.839-40.809,13.844-49.223c7.587-18.05,10.873-40.401,29.226-47.684
		c3.497,6.757,10.573,9.937,18.458,12.306c0.802-28.425,21.586-36.867,41.53-46.146c-2.734-14.186-3.385-30.455-9.229-41.531
		c-2.881-2.248-10.193-0.06-12.305-3.076c-1.621-10.648-5.248-22.124,1.538-29.226c-19.634-6.003-29.817-21.455-43.069-33.841
		c-21.094,2.448-29.166-4.852-49.223,0c6.779-12.564-6.506-15.216-9.229-23.073c17.924-18.993,23.617-50.217,33.841-76.91
		c-12.525-8.498-31.561-10.484-44.608-18.458c-1.082-6.097-0.979-13.377-6.153-15.382c-10.895,1.081-25.797,10.985-46.145,7.691
		c0-4.614,0-9.229,0-13.843c-5.851-3.229-10.119,1.102-15.382-1.539c-13.264-12.292,0.375-33.948-15.383-41.531
		c-4.548,14.548-21.168,30.791-33.84,12.305c1.517-3.61,2.697-7.557,3.076-12.305c-2.049-1.541-4.644-2.536-6.153-4.615
		c-18.036,1.736-18.967,30.675-43.069,16.92c-0.673-5.288,0.607-8.622,1.539-12.305c-9.29,0.965-16.022,4.486-23.073,7.69
		c-0.159,9.39,5.892,12.568,6.153,21.535c-6.78,8.479-19.958-4.993-27.688,0c2.987,8.474,14.154,19.257,7.691,27.688
		c-4.826-2.897,3.719-7.994,0-9.229C351.32,287.115,344.259,279.956,344.74,273.263z M298.594,267.11
		c-6.019,1.193-10.993,7.044-16.92,7.691c-20.087,2.191-32.843-18.056-50.761-18.459c-8.781-0.197-13.48,6.421-24.611,7.691
		c-0.373,10.114,0.071,19.413,1.538,27.688c5.762,2.293,11.682,7.87,18.458,4.615c4.246-0.369,1.634-7.595,4.615-9.229
		c9.463-6.979,30.262-2.494,41.531,6.153c2.968,2.278,1.58,7.825,3.076,9.229c16.863,15.844,65.334-20.385,64.604-33.84
		C324.411,267.659,311.906,264.472,298.594,267.11z M597.005,613.204c-14.304,4.729-17.27,27.058-15.382,43.07
		c20.134,9.706,36.078,49.809,10.767,66.143c10.598,10.423,20.127,21.916,43.069,19.996c8.191-18.26,30.228-13.844,43.069-3.077
		c0.365-19.567,0.271-35.955,9.229-49.223c3.574-5.292,11.022-6.196,13.845-12.306c2.979-6.451,1.049-14.113,3.076-21.533
		c-42.972-2.359-71.011-40.067-61.528-79.986c-8.411-2.356-15.198-6.337-19.997-12.306
		C607.371,573.322,602.739,593.815,597.005,613.204z"/>
</g>
<g>
	<g id="XMLID_1_">
		<g>
			<polygon style="fill:#ED1E29;" points="796.43,64.18 796.43,200.58 730.29,200.58 730.29,64.78 730.29,64.18 			"/>
			<polygon style="fill:#FBED24;" points="730.29,64.78 730.29,200.58 656.32,200.58 656.32,199.08 656.32,66.22 656.32,64.18 
				730.29,64.18 			"/>
			<path style="fill:#FFF5B4;" d="M675.45,487.07c5.85,11.08,6.5,27.35,9.229,41.529c-19.939,9.28-40.729,17.73-41.529,46.15
				c-7.881-2.37-14.96-5.55-18.46-12.31c-18.351,7.29-21.641,29.64-29.221,47.689c-12.01,8.41-20.37,31.92-13.85,49.22
				c18.5,7.87,31.12,38.44,15.38,58.45c-21.51,0.53-37.89,6.2-55.37,10.771c-8.63-36.11-50.979-51.46-79.99-72.301
				c-6.689,0.32-10.31,5.4-16.92,1.54c-8.04-24.369-14.21-61.54,1.54-81.52c-1.35-4.8-7.25-5.05-9.229-9.23
				c-15.36,7.19-24.69,20.431-26.15,41.53c-15.01,9.61-37.55,19.67-55.37,6.15c-12.81,1.85-16.32,2.77-26.15-1.54
				c-3.48-23.061,9.77-44.86,7.69-63.061c-1.86-16.279-17.13-18.739-26.15-30.77c-19.12,9.07-43.76,2.17-56.91-7.69
				c3.3-30.649-28.07-37.25-49.23-26.149c-3.17-3.48-7.86-5.46-12.3-7.69c-3.29-26.45-9.8-49.67-23.07-66.14
				c-18.11,1.89-32.6,7.39-38.46,21.54c-14.2-7.34-24.99-18.09-38.45-26.15c-9.94-19.29-7.78-50.68-16.92-70.76
				c5.15-2.3,10.09-4.81,14.88-7.48l466.43-23.96c12.649,6.08,28.979,8.49,40.13,16.06c-10.22,26.69-15.91,57.91-33.84,76.91
				c2.729,7.85,16.01,10.51,9.229,23.07c20.061-4.85,28.13,2.45,49.23,0c13.25,12.39,23.43,27.839,43.07,33.839
				c-6.79,7.101-3.16,18.58-1.54,29.23C665.26,487.01,672.57,484.82,675.45,487.07z"/>
			<polygon style="fill:#231F20;" points="656.32,199.08 656.32,200.58 588.3,200.58 586.16,200.58 586.16,64.18 587.05,64.18 
				656.32,64.18 656.32,66.22 			"/>
			<path style="fill:#FFFFFF;" d="M646.42,280.41l-12.03,20.5C636.72,293.34,641.46,286.64,646.42,280.41z"/>
			<path style="fill:#C8C8C8;" d="M571.58,55.01c-3.94-1.76-6.58-4.93-6.58-8.55c0-5.54,6.14-10.02,13.73-10.02
				c7.59,0,13.739,4.48,13.739,10.02c0,3.53-2.51,6.63-6.31,8.41c-2.141,1.01-4.69,1.59-7.43,1.59
				C576.12,56.46,573.67,55.93,571.58,55.01z"/>
			<path style="fill:#C8C8C8;" d="M586.16,200.58v95.23h-14.18l-0.4-240.8c2.09,0.92,4.54,1.45,7.15,1.45
				c2.739,0,5.289-0.58,7.43-1.59v9.31V200.58z"/>
			<path style="fill:#FFFFFF;" d="M559.76,304.74l-2.89,0.15c-1.55-0.73-3.05-1.53-4.47-2.4c-1.091-6.1-0.98-13.38-6.16-15.38
				c-10.891,1.08-25.79,10.98-46.141,7.69c0-4.62,0-9.23,0-13.85c-5.85-3.23-10.119,1.11-15.38-1.53
				c-13.27-12.3,0.37-33.95-15.39-41.54c-1.99,6.38-6.3,13.08-11.59,17.04c4.62-5.44,5.31-14.8,11.59-18.57
				c18.67,6.7,2.05,32.38,18.46,43.07c4.31-1.77,8-1.77,12.31,0c2.57,2.55,1.221,9.03,1.54,13.84c17.92,1,31.96-1.88,41.53-9.23
				c7.19,2.55,10.51,8.97,10.771,18.46C555.84,303.28,557.78,304.03,559.76,304.74z"/>
			<path style="fill:#FFF5B4;" d="M556.87,304.89L90.44,328.85c37.74-20.95,66.09-51.28,112.79-63.28
				c-5.59,23.7,21.21,47.86,29.22,21.54c12.76-2.6,27.28-3.08,36.92,6.15c1.9,1.82,0.92,7.55,3.07,9.23
				c22.48,17.58,56.37-16,72.3-29.23c-0.48,6.7,6.58,13.85,9.23,12.31c3.72,1.23-4.83,6.33,0,9.23c5.67-7.4-2.24-16.62-6.28-24.49
				v-0.01c-0.35-1.15-0.8-2.22-1.36-3.22c7.74-4.9,20.87,8.49,27.64,0.03c-0.26-8.97-6.32-12.15-6.16-21.54
				c7.05-3.2,13.79-6.72,23.08-7.69c-0.93,3.69-2.22,7.02-1.54,12.31c24.1,13.75,25.03-15.18,43.07-16.92
				c1.51,2.08,4.1,3.07,6.15,4.61c-0.38,4.75-1.561,8.7-3.08,12.31c5.529,8.06,11.8,9.52,17.5,7.38c0.33,0.1,0.649,0.2,0.96,0.31
				c1.53-0.72,2.76-1.74,3.79-2.96c5.29-3.96,9.6-10.66,11.59-17.04c15.76,7.59,2.12,29.24,15.39,41.54
				c5.261,2.64,9.53-1.7,15.38,1.53c0,4.62,0,9.23,0,13.85c20.351,3.29,35.25-6.61,46.141-7.69c5.18,2,5.069,9.28,6.16,15.38
				C553.82,303.36,555.32,304.16,556.87,304.89z"/>
			<path style="fill:#FFFFFF;" d="M457.74,254.92c-1.03,1.22-2.26,2.24-3.79,2.96c-0.311-0.11-0.63-0.21-0.96-0.31
				C454.63,256.97,456.23,256.06,457.74,254.92z"/>
			<path style="fill:#FFFFFF;" d="M452.99,257.57c-5.7,2.14-11.971,0.68-17.5-7.38c1.52-3.61,2.7-7.56,3.08-12.31
				c-2.051-1.54-4.641-2.53-6.15-4.61c-18.04,1.74-18.97,30.67-43.07,16.92c-0.68-5.29,0.61-8.62,1.54-12.31
				c-9.29,0.97-16.03,4.49-23.08,7.69c-0.16,9.39,5.9,12.57,6.16,21.54c-6.77,8.46-19.9-4.93-27.64-0.03
				c-7.08-12.66-30.8-13.85-49.27-15.35c-6.03-0.9-3.93,6.33-7.69,7.69c-28.01,3.25-63.08-9.91-72.3-35.38
				c7.97-19.36,43.3-19.03,67.68-16.92c2.55,5.22,6.16,8.9,1.54,13.84c18.05-2.96,30.66,10.86,35.38,26.15
				c8.46,2.26,26.79,3.98,29.22-4.61c-2.97-22.73-47.35-9.29-44.61-35.38c8.18-4.3,17.15-2.4,27.69-1.54
				c-6.92,3.85-19.78-3.46-26.15,3.08c-1.05,24.79,44.83,8.31,44.61,35.38c-3.16,6.4-15.82,7.26-25.41,5.78
				c-1.94-0.3-3.76-0.7-5.35-1.17c-5.6-13.94-19.16-32.65-36.92-24.61c-6.56-1.45,8.56-8.65,0-13.84
				c-20.07-5.29-58.84-3.78-66.14,13.84c8.28,24.75,40.26,33.28,66.14,35.38c5.47-0.68,6.07-6.23,9.23-9.23
				c13.03-0.85,23.18,1.17,32.34,4.18c14.77,4.86,26.98,12.27,44.57,14.28c4.38-8.51-6.24-13.88-4.62-24.61
				c9.03-2.26,14.99-7.58,26.15-7.69c0.34,4.95-2.72,6.5-1.53,12.3c24.94,16.82,29.08-32.24,49.22-10.77
				c-0.38,4.75-1.561,8.7-3.08,12.31C439.09,255.91,447.01,255.77,452.99,257.57z"/>
			<path style="fill:#FFFFFF;" d="M347.69,270.31c4.04,7.87,11.95,17.09,6.28,24.49c-4.83-2.9,3.72-8,0-9.23
				c-2.65,1.54-9.71-5.61-9.23-12.31l0.21-0.15c1.48,2.09,2.71,4.42,2.87,7.84C348.68,276.81,348.57,273.3,347.69,270.31z"/>
			<path style="fill:#FFFFFF;" d="M347.69,270.3c-0.56-1.09-1.05-2.16-1.41-3.19c0.02-0.01,0.03-0.02,0.05-0.03
				C346.89,268.08,347.34,269.15,347.69,270.3z"/>
			<path style="fill:#FFFFFF;" d="M313.98,136.36c3.26,15.62-23.03,7.29-29.23,20c1.31,2.6,3.22,2.43,5.63,1.45l0.1,0.25
				c-1.8,0.68-3.71,1.64-5.73,2.91c-4.24-14.4,15.95-12.51,24.44-17.06L313.98,136.36z"/>
			<path style="fill:#FFFFFF;" d="M63.25,330.25l22.39-1.15c-7.37,4.03-14.82,7.95-22.39,11.84
				C63.25,337.38,63.25,333.81,63.25,330.25z"/>
		</g>
		<g>
			<polyline style="fill:none;stroke:#231F20;stroke-width:7;" points="587.05,64.18 656.32,64.18 730.29,64.18 796.43,64.18 
				796.43,200.58 730.29,200.58 656.32,200.58 588.3,200.58 			"/>
			<path style="fill:none;stroke:#231F20;stroke-width:7;" d="M571.58,55.01c-3.94-1.76-6.58-4.93-6.58-8.55
				c0-5.54,6.14-10.02,13.73-10.02c7.59,0,13.739,4.48,13.739,10.02c0,3.53-2.51,6.63-6.31,8.41c-2.141,1.01-4.69,1.59-7.43,1.59
				C576.12,56.46,573.67,55.93,571.58,55.01z"/>
			<polyline style="fill:none;stroke:#231F20;stroke-width:7;" points="571.58,54.72 571.58,55.01 571.98,295.81 			"/>
			<polyline style="fill:none;stroke:#231F20;stroke-width:7;" points="586.16,54.23 586.16,54.87 586.16,64.18 586.16,200.58 
				586.16,295.81 			"/>
			<line style="fill:none;stroke:#231F20;stroke-width:7;" x1="656.32" y1="66.22" x2="656.32" y2="199.08"/>
			<polyline style="fill:none;stroke:#231F20;stroke-width:7;" points="730.29,64.78 730.29,200.58 730.29,201.23 			"/>
			<path style="fill:none;stroke:#231F20;stroke-width:7;" d="M623.15,563.98c4.8,5.97,11.59,9.949,20,12.31
				c-9.48,39.92,18.56,77.63,61.529,79.979c-2.029,7.421-0.1,15.091-3.08,21.54c-2.819,6.11-10.27,7.011-13.84,12.301
				c-8.96,13.27-8.87,29.659-9.229,49.229c-12.84-10.77-34.88-15.189-43.07,3.07c-22.94,1.92-32.47-9.57-43.07-19.99
				c25.311-16.34,9.37-56.439-10.77-66.15c-1.88-16.01,1.08-38.34,15.38-43.069C602.74,593.82,607.37,573.32,623.15,563.98z"/>
			<path style="fill:none;stroke:#231F20;stroke-width:7;" d="M347.69,270.31c0.88,2.99,0.99,6.5,0.13,10.64
				c-0.16-3.42-1.39-5.75-2.87-7.84c-1.7-2.42-3.73-4.51-4.82-7.54c-17.08,1.96-27.96-2.69-41.54,0
				c-5.44,1.08-10.27,6.97-16.92,7.69c-20.46,2.24-34.47-18.09-50.76-18.46c-13.23-0.29-33.39,10.78-47.68,15.39
				c-16.93,5.45-28.93,15.12-39.99,23.07c-19.17,13.77-38.12,25.2-57.6,35.84c-7.37,4.03-14.82,7.95-22.39,11.84
				c0-3.56,0-7.13,0-10.69"/>
			<path style="fill:none;stroke:#231F20;stroke-width:7;" d="M452.99,257.57c-5.98-1.8-13.9-1.66-15.96-7.38
				c1.52-3.61,2.7-7.56,3.08-12.31c-20.14-21.47-24.28,27.59-49.22,10.77c-1.19-5.8,1.87-7.35,1.53-12.3
				c-11.16,0.11-17.12,5.43-26.15,7.69c-1.62,10.73,9,16.1,4.62,24.61c-17.59-2.01-29.8-9.42-44.57-14.28
				c-9.16-3.01-19.31-5.03-32.34-4.18c-3.16,3-3.76,8.55-9.23,9.23c-25.88-2.1-57.86-10.63-66.14-35.38
				c7.3-17.62,46.07-19.13,66.14-13.84c8.56,5.19-6.56,12.39,0,13.84c17.76-8.04,31.32,10.67,36.92,24.61
				c1.59,0.47,3.41,0.87,5.35,1.17c9.59,1.48,22.25,0.62,25.41-5.78c0.22-27.07-45.66-10.59-44.61-35.38
				c6.37-6.54,19.23,0.77,26.15-3.08c-10.54-0.86-19.51-2.76-27.69,1.54c-2.74,26.09,41.64,12.65,44.61,35.38
				c-2.43,8.59-20.76,6.87-29.22,4.61c-4.72-15.29-17.33-29.11-35.38-26.15c4.62-4.94,1.01-8.62-1.54-13.84
				c-24.38-2.11-59.71-2.44-67.68,16.92c9.22,25.47,44.29,38.63,72.3,35.38c3.76-1.36,1.66-8.59,7.69-7.69
				c18.47,1.5,42.19,2.69,49.27,15.35"/>
			<path style="fill:none;stroke:#231F20;stroke-width:7;" d="M634.39,300.91c-2.37,7.69-2.26,16.28,2.61,26.19
				c-9.49,9.48-25.18,12.76-36.92,20c-0.63,9.86,2.88,15.58,7.689,19.99c3.44-5.86,12.07-1.55,18.461-1.54
				c2.14,9.65,9.77,13.82,7.689,27.69c-8.72,3.59-13.25,11.36-10.77,26.15c-21.42,2.84-29.86-5.1-49.221,0
				c7.24-11.82-6.96-14.21-9.229-21.53c17.93-19,23.62-50.22,33.84-76.91c-10.46-7.86-25.33-11.33-38.78-16.21
				c-1.979-0.71-3.92-1.46-5.819-2.25c-0.261-9.49-3.58-15.91-10.771-18.46c-9.57,7.35-23.61,10.23-41.53,9.23
				c-0.319-4.81,1.03-11.29-1.54-13.84c-4.31-1.77-8-1.77-12.31,0c-16.41-10.69,0.21-36.37-18.46-43.07
				c-6.28,3.77-6.97,13.13-11.59,18.57"/>
			<path style="fill:none;stroke:#231F20;stroke-width:7;" d="M646.42,280.41c-4.96,6.23-9.7,12.93-12.03,20.5"/>
			<path style="fill:none;stroke:#231F20;stroke-width:7;" d="M309.19,143.91c-8.49,4.55-28.68,2.66-24.44,17.06
				c2.02-1.27,3.93-2.23,5.73-2.91c19.75-7.45,27.34,17.96,38.88,27.53c-5.2-0.08-6.67,3.58-9.23,6.15
				c-6.82-16.41-58.9-37.99-64.61-4.62c24.29,0.45,44.98,29.17,66.15,9.23c0.04,7.65,8.38,7,13.84,9.23
				c-4.52-4.71-14.82-3.63-13.84-13.84c1.43-4.21,7.67-3.61,10.77-6.15c-11.74-7.76-17.26-21.72-27.69-30.77
				c-5.78-1.88-10.67,1.5-14.37,2.99c-2.41,0.98-4.32,1.15-5.63-1.45c6.2-12.71,32.49-4.38,29.23-20"/>
			<path style="fill:none;stroke:#231F20;stroke-width:7;" d="M344.74,273.26c-0.48,6.7,6.58,13.85,9.23,12.31
				c3.72,1.23-4.83,6.33,0,9.23c5.67-7.4-2.24-16.62-6.28-24.49v-0.01c-0.56-1.09-1.05-2.16-1.41-3.19
				c0.02-0.01,0.03-0.02,0.05-0.03c7.74-4.9,20.87,8.49,27.64,0.03c-0.26-8.97-6.32-12.15-6.16-21.54
				c7.05-3.2,13.79-6.72,23.08-7.69c-0.93,3.69-2.22,7.02-1.54,12.31c24.1,13.75,25.03-15.18,43.07-16.92
				c1.51,2.08,4.1,3.07,6.15,4.61c-0.38,4.75-1.561,8.7-3.08,12.31c5.529,8.06,11.8,9.52,17.5,7.38c1.64-0.6,3.24-1.51,4.75-2.65
				c5.29-3.96,9.6-10.66,11.59-17.04c15.76,7.59,2.12,29.24,15.39,41.54c5.261,2.64,9.53-1.7,15.38,1.53c0,4.62,0,9.23,0,13.85
				c20.351,3.29,35.25-6.61,46.141-7.69c5.18,2,5.069,9.28,6.16,15.38c1.42,0.87,2.92,1.67,4.47,2.4
				c12.649,6.08,28.979,8.49,40.13,16.06c-10.22,26.69-15.91,57.91-33.84,76.91c2.729,7.85,16.01,10.51,9.229,23.07
				c20.061-4.85,28.13,2.45,49.23,0c13.25,12.39,23.43,27.839,43.07,33.839c-6.79,7.101-3.16,18.58-1.54,29.23
				c2.109,3.01,9.42,0.82,12.3,3.07c5.85,11.08,6.5,27.35,9.229,41.529c-19.939,9.28-40.729,17.73-41.529,46.15
				c-7.881-2.37-14.96-5.55-18.46-12.31c-18.351,7.29-21.641,29.64-29.221,47.689c-12.01,8.41-20.37,31.92-13.85,49.22
				c18.5,7.87,31.12,38.44,15.38,58.45c-21.51,0.53-37.89,6.2-55.37,10.771c-8.63-36.11-50.979-51.46-79.99-72.301
				c-6.689,0.32-10.31,5.4-16.92,1.54c-8.04-24.369-14.21-61.54,1.54-81.52c-1.35-4.8-7.25-5.05-9.229-9.23
				c-15.36,7.19-24.69,20.431-26.15,41.53c-15.01,9.61-37.55,19.67-55.37,6.15c-12.81,1.85-16.32,2.77-26.15-1.54
				c-3.48-23.061,9.77-44.86,7.69-63.061c-1.86-16.279-17.13-18.739-26.15-30.77c-19.12,9.07-43.76,2.17-56.91-7.69
				c3.3-30.649-28.07-37.25-49.23-26.149c-3.17-3.48-7.86-5.46-12.3-7.69c-3.29-26.45-9.8-49.67-23.07-66.14
				c-18.11,1.89-32.6,7.39-38.46,21.54c-14.2-7.34-24.99-18.09-38.45-26.15c-9.94-19.29-7.78-50.68-16.92-70.76
				c5.15-2.3,10.09-4.81,14.88-7.48c37.74-20.95,66.09-51.28,112.79-63.28c-5.59,23.7,21.21,47.86,29.22,21.54
				c12.76-2.6,27.28-3.08,36.92,6.15c1.9,1.82,0.92,7.55,3.07,9.23C294.92,320.07,328.81,286.49,344.74,273.26z"/>
		</g>
	</g>
</g>
<rect x="0.25" y="0.25" style="fill:none;" width="850.394" height="850.394"/>
</svg>
