<?xml version="1.0" encoding="iso-8859-1"?>
<!-- Generator: Adobe Illustrator 12.0.1, SVG Export Plug-In . SVG Version: 6.00 Build 51448)  -->
<!DOCTYPE svg PUBLIC "-//W3C//DTD SVG 1.1//EN" "http://www.w3.org/Graphics/SVG/1.1/DTD/svg11.dtd" [
	<!ENTITY ns_svg "http://www.w3.org/2000/svg">
	<!ENTITY ns_xlink "http://www.w3.org/1999/xlink">
]>
<svg  version="1.1" id="Layer_1" xmlns="&ns_svg;" xmlns:xlink="&ns_xlink;" width="850.89" height="850.89"
	 viewBox="0 0 850.89 850.89" style="overflow:visible;enable-background:new 0 0 850.89 850.89;" xml:space="preserve">
<g>
	<g id="XMLID_1_">
		<g>
			<path style="fill:#FFF5B4;" d="M82.25,353.65c22.93,7.01,53.17-5.39,82-4.21c9.63-5.4,13.82-16.25,18.79-26.3
				c5.04,13.74,15.08,22.48,26.29,30.05c13.02-6.52,25.98-5.85,33.81,5.64c4.7-1.56,7.38-5.15,13.15-5.64
				c-2.43-14.99,14.86-37.38,1.88-39.44c6.01-14.24,26.92-19.9,39.44-16.91c10.8-12.39,4.6-37.38-7.51-43.2
				c0.98-5.9,3.29-10.48,5.63-15.02c20.37-3.7,44.54-8.4,45.08-26.3c6.65-0.86,10.85-4.18,18.79-3.76c0.3-5.8-4.44-10.61,0-15.02
				c25.74-4.33,44.54,14.21,61.98,24.41c-2.62,20.81,21.58,18.55,31.93,30.06c12.48,13.86,9.34,42.21,43.2,33.81
				c3.96,3.55,5.8,9.23,7.51,15.02c13.011,9.1,35.8,5.08,54.48,7.52c9.85,1.28,15.49,6.59,24.41,5.63
				c16.85-1.81,21.02-16.4,31.939-24.42c12.71,3.55,24.98,13.8,26.29,33.81c-0.35,7.94-12.979,10.98-5.63,20.66
				c8.05,3.86,11.67-4.47,18.78,3.76c-1.04,7.23-7.26-1.45-11.271,3.76c-6.38,29.24,23.38,34.35,45.08,41.32
				c-2.97,11.34-18.14,2.13-24.42,0c-9.83,5.68-5.08,17.43-7.51,26.3c-2.71,9.89-12.101,17.07-9.39,26.29
				c-10.58,0.561-17.881-2.149-24.421-5.63c7.69-30.88-31.729-29.17-54.47-35.69c-7.29-1.03-4.41,8.11-9.39,9.39
				c-9.891-7.5-24.311-5.19-31.931,3.76c-30.119-20.03-74.399-7.1-99.56-31.93c-5.92,1.58-5.34,9.68-11.26,11.27
				c-12.01,0.1-16.45-7.34-30.06-5.64c-9.92,8.24-12.59,23.72-20.66,33.81c-21.79-4.77-29.59-51.98-58.23-26.3
				c-0.77,28.6-13.17,69.82,18.79,71.38c5.5,24.04,35.39,42.591,18.78,71.37c2.68,6.431,10.19,0.891,13.15,3.76
				c7.49,10.04,11.12,23.94,28.17,24.421c23.35,28,35.93,66.75,75.14,78.89c-6.261,37.9,34.12,42.81,45.069,69.5
				c-11.489,14.11-15.119-0.39-22.54-7.521c-9.06-8.699-22.979-14.149-33.8-22.54c-11.34-8.779-11.729-21.96-22.55-28.17
				c-6.72-3.859-13.52-0.449-22.53-3.76c-12.42-4.56-21.85-19.54-33.81-20.66c-11.26-1.05-23.87,13.12-33.81,11.271
				c-7.38-1.37-18.7-13.42-9.39-22.54c-14.99-18.641-38.37-26.13-56.35-43.2c-13.21-12.54-25.57-31.13-31.93-48.84
				c6.25,0.63,8.33,5.45,16.9,3.76c5.63-1.24-1.8-4.01,0-7.51c10.68,2.13,12.95,10.67,26.3,5.63
				c-22.77-13.4-43.82-28.77-58.23-46.96c-2.49-3.14-8.36-12.35-9.39-16.9c-5.01-22.05,9.68-44.85-5.64-61.979
				c-2.29-2.58-8.53-2.45-13.14-5.64c-15.4-10.64-18.18-29.04-39.45-30.05c-8.64,16.39-19.07,38.93-18.78,58.23
				c-20.65-0.24-15.36,23.12-26.3,28.17c-14.89-29.35-35.7-62.87-41.32-107.06C74.02,350.39,78.01,352.35,82.25,353.65z"/>
			<path d="M817.38,60.09c-57.68,0-115.36,0-173.04,0c0-0.28,0-0.57,0-0.85c57.68,0,115.36,0,173.04,0
				C817.38,59.52,817.38,59.81,817.38,60.09z"/>
			<path d="M817.38,59.24c-57.68,0-115.36,0-173.04,0c0-0.32,0-0.64,0-0.96c57.68,0,115.36,0,173.04,0
				C817.38,58.6,817.38,58.92,817.38,59.24z"/>
			<path style="fill:#FFFFFF;" d="M748.77,95.12c0.021,0,0.04,0,0.061,0c-0.021,0.11-0.04,0.24-0.061,0.36
				c-0.01-0.01-0.02-0.02-0.029-0.02C748.75,95.34,748.76,95.23,748.77,95.12z"/>
			<path d="M748.41,104.83c0-3.27,0.05-6.46,0.33-9.37c0.01,0,0.02,0.01,0.029,0.02c0.021-0.12,0.04-0.25,0.061-0.36
				c22.85,0,45.7,0,68.55,0c0,0.4,0,0.8,0,1.21c-22.87,0-45.74,0-68.61,0C748.5,98.97,748.42,101.85,748.41,104.83z"/>
			<path style="fill:#FFFFFF;" d="M741,105.28h0.34c2.141,0,4.28,0,6.42,0c0-1.41,0-2.82,0-4.23h0.15c0,5.62,0.55,11.12,0.43,16.29
				c-0.03,1.64-0.14,3.25-0.35,4.83l-0.36-0.05c0.33-2.28,0.021-5.35,0.13-7.89c-2.14,0-4.279,0-6.42,0H741
				C741,111.25,741,108.27,741,105.28z"/>
			<path style="fill:#ED1E29;" d="M747.76,105.28c-2.14,0-4.279,0-6.42,0c0-2.84,0-5.68,0-8.53c2.141,0,4.28,0,6.42,0
				c0,1.43,0,2.87,0,4.3C747.76,102.46,747.76,103.87,747.76,105.28z"/>
			<path style="fill:#ED1E29;" d="M741.34,114.23c2.141,0,4.28,0,6.42,0c-0.109,2.54,0.2,5.61-0.13,7.89
				c-0.05,0.38-0.12,0.74-0.21,1.06c-2.03,0-4.06,0-6.08,0C741.34,120.2,741.34,117.22,741.34,114.23z"/>
			<path style="fill:#A8D7F4;" d="M747.08,85.24c0.229-1.33,0.9-0.55,1.689-0.42c-0.42-1.3-0.26-1.66,0.341-2.56l1.26-0.38
				c0.83,1.64,1.14,3.52,0.09,5.49c-1.25-0.46-2.43-1.03-3.63-1.56V85.8L747.08,85.24z"/>
			<path style="fill:#FFFFFF;" d="M745.76,132.39c23.87,0,47.74,0,71.62,0c0,0.2,0,0.4,0,0.6c-24,0-47.99,0-71.99,0
				C745.52,132.8,745.64,132.6,745.76,132.39z"/>
			<path d="M748.46,115.83c-0.04,6.59-0.5,12.69-2.7,16.56c-0.12,0-0.25,0-0.37,0c2.24-3.45,2.891-8.93,3.04-15.05
				C748.44,116.84,748.45,116.34,748.46,115.83z"/>
			<path style="fill:#A8D7F4;" d="M742.53,84.39l1.17-3.41c1.49-0.68,2.819-1.56,4.39-2.13c0.83,0.84,1.69,1.87,2.28,3.03
				l-1.26,0.38c-1.261,0.45-0.66-1.44-1.351-1.71c-0.04,1.09-1.26,1.01-1.689,0.43c0.189,1.38-0.11,2.15-0.681,2.56
				c1.16-0.18,1.021,1.28,1.69,1.7l-0.25,0.56c-1.3-0.57-2.63-1.1-4.14-1.41H742.53z"/>
			<path style="fill:#FBED24;" d="M747.08,85.24c-0.67-0.42-0.53-1.88-1.69-1.7c0.57-0.41,0.87-1.18,0.681-2.56
				c0.43,0.58,1.649,0.66,1.689-0.43c0.69,0.27,0.09,2.16,1.351,1.71c-0.601,0.9-0.761,1.26-0.341,2.56
				C747.98,84.69,747.31,83.91,747.08,85.24z"/>
			<path style="fill:#FFFFFF;" d="M741,132.14c0-2.99,0-5.97,0-8.96h0.34c2.021,0,4.05,0,6.08,0c0.09-0.32,0.16-0.68,0.21-1.06
				l0.36,0.05c-0.07,0.48-0.141,0.96-0.23,1.44c-0.72,3.95-2.12,7.46-3.99,10.32l-0.25-0.16c0.311-0.51,0.601-1.05,0.86-1.63
				c-1.02,0-2.03,0-3.04,0H741z"/>
			<path style="fill:#A8D7F4;" d="M740.92,89.12l1.61-4.73h0.16c1.01,3.13,5.199,2.24,7.1,4.26c0.22,1.56-0.74,1.64-0.68,2.99
				c-2.71-0.56-4.471-2.33-7.44-2.56L740.92,89.12z"/>
			<path style="fill:#ED1E29;" d="M743.52,133.77c-0.539,0.83-1.159,1.57-1.85,2.2c-0.76-0.45-0.13-2.68-0.33-3.83
				c1.01,0,2.021,0,3.04,0C744.12,132.72,743.83,133.26,743.52,133.77z"/>
			<path style="fill:#FFFFFF;" d="M734.24,95.9c4.62,0,9.24,0,13.85,0c-0.13,1.73-0.18,3.44-0.18,5.15h-0.15c0-1.43,0-2.87,0-4.3
				c-2.14,0-4.279,0-6.42,0c0,2.85,0,5.69,0,8.53H741c-2.26,0-4.51,0-6.76,0c0-2.84,0-5.68,0-8.53V95.9z"/>
			<path d="M742.53,84.39l-1.61,4.73l-0.36,0.02c1.04-1.78,0.091-2.65,1.11-4.75H742.53z"/>
			<path style="fill:#A8D7F4;" d="M740.18,91.29l0.74-2.17l0.75-0.04c0.93,3.24,5.76,1.56,6.76,4.69
				C746.07,92.75,743.24,91.89,740.18,91.29z"/>
			<path style="fill:#FBED24;" d="M738.11,87.38c-0.011,0.01-0.021,0.01-0.021,0.02C738.09,87.39,738.09,87.39,738.11,87.38z"/>
			<path style="fill:#FBED24;" d="M738.09,87.4c-0.02,0.02-0.04,0.05-0.07,0.08C738.04,87.45,738.06,87.43,738.09,87.4z"/>
			<path style="fill:#FBED24;" d="M735.81,83.18c0.24-0.76,0.58-1.41,1.131-1.77c1.27,0.81-0.19,1.81,1.02,2.98
				c1.73,0.01,2.21-0.62,3.71,0c-1.02,2.1-0.07,2.97-1.11,4.75c-0.069,0.11-0.149,0.24-0.239,0.37c-0.99-0.36,0.439-1.07,0-2.14
				c-1.08-0.37-0.7,1.11-1.351,1.28c-0.55,1.27,0.11-1.32,0.34-1.7c-0.47-0.14-0.81,0.01-1.09,0.3c-0.04,0.04-0.08,0.08-0.109,0.13
				c-0.021,0.01-0.021,0.01-0.021,0.02c-0.03,0.03-0.05,0.05-0.07,0.08c-0.06,0.08-0.13,0.18-0.189,0.28
				c-0.05,0.07-0.09,0.13-0.13,0.2s-0.08,0.14-0.12,0.21c-0.09,0.14-0.17,0.29-0.26,0.43c-0.051,0.08-0.09,0.15-0.141,0.22
				c-0.17,0.25-0.35,0.49-0.58,0.69c0.271-0.8,0.57-1.56,0.681-2.56c-1.261-0.45-0.53,1.6-1.69,1.28c0.34-1.03,1.811-4.37,0-4.26
				C735.66,83.69,735.73,83.43,735.81,83.18z"/>
			<path style="fill:#394EA1;" d="M734.02,89.82l0.53-6.7l1.26,0.06c-0.079,0.25-0.149,0.51-0.22,0.79c1.811-0.11,0.34,3.23,0,4.26
				c1.16,0.32,0.43-1.73,1.69-1.28c-0.11,1-0.41,1.76-0.681,2.56c0.23-0.2,0.41-0.44,0.58-0.69c0.051-0.07,0.09-0.14,0.141-0.22
				c0.09-0.14,0.17-0.29,0.26-0.43c0.04-0.07,0.08-0.14,0.12-0.21s0.08-0.13,0.13-0.2c0.06-0.1,0.13-0.2,0.189-0.28
				c0.03-0.03,0.051-0.06,0.07-0.08c0-0.01,0.01-0.01,0.021-0.02c0.029-0.05,0.069-0.09,0.109-0.13c0.28-0.29,0.62-0.44,1.09-0.3
				c-0.229,0.38-0.89,2.97-0.34,1.7c0.65-0.17,0.271-1.65,1.351-1.28c0.439,1.07-0.99,1.78,0,2.14c0.09-0.13,0.17-0.26,0.239-0.37
				l0.36-0.02l-0.74,2.17c-1.989-0.4-4.08-0.69-6.21-0.85L734.02,89.82z"/>
			<path d="M734.85,79.22c0.021,0.02,0.04,0.04,0.07,0.06l-0.07,0.04V79.22z"/>
			<path style="fill:#394EA1;" d="M734.55,83.12l0.3-3.8l0.07-0.04c1.74-0.93,3.21-2.2,4.72-3.42c1.591,1.42,2.341,3.88,4.061,5.12
				l-1.17,3.41h-0.86c-1.5-0.62-1.979,0.01-3.71,0c-1.21-1.17,0.25-2.17-1.02-2.98c-0.551,0.36-0.891,1.01-1.131,1.77L734.55,83.12z
				"/>
			<path d="M734.24,83.11c-0.11-1.59-0.57-2.44-0.681-2.98l1.29-0.81l-0.3,3.8L734.24,83.11z"/>
			<path style="fill:#FFFFFF;" d="M741,123.18c-2.26,0-4.51,0-6.76,0c0.21-2.77-0.42-6.61,0.279-8.79
				c0.021-0.05,0.04-0.1,0.061-0.16c2.14,0,4.28,0,6.42,0h0.34c0,2.99,0,5.97,0,8.95H741z"/>
			<path style="fill:#ED1E29;" d="M733.9,132.14c0.79-2.14,0.119-6.11,0.34-8.96c2.25,0,4.5,0,6.76,0c0,2.99,0,5.97,0,8.96
				c-2.26,0-4.51,0-6.76,0H733.9z"/>
			<path style="fill:#ED1E29;" d="M734.24,96.75c0,2.85,0,5.69,0,8.53c-2.26,0-4.51,0-6.76,0c0-2.84,0-5.68,0-8.53
				C729.73,96.75,731.98,96.75,734.24,96.75z"/>
			<path style="fill:#ED1E29;" d="M734.52,114.39l-0.619-0.16c0.79-2.14,0.119-6.1,0.34-8.95c2.25,0,4.5,0,6.76,0
				c0,2.99,0,5.97,0,8.95c-2.14,0-4.28,0-6.42,0C734.56,114.29,734.54,114.34,734.52,114.39z"/>
			<path style="fill:#FFFFFF;" d="M727.48,105.28c2.25,0,4.5,0,6.76,0c-0.221,2.85,0.45,6.81-0.34,8.95c-2.141,0-4.28,0-6.42,0
				C727.48,111.25,727.48,108.27,727.48,105.28z"/>
			<path style="fill:#FFFFFF;" d="M733.9,132.14c-2.141,0-4.28,0-6.42,0c0.22-2.78-0.41-6.62,0.279-8.79
				c0.021-0.06,0.04-0.11,0.061-0.17c2.14,0,4.279,0,6.42,0C734.02,126.03,734.69,130,733.9,132.14z"/>
			<path style="fill:#ED1E29;" d="M733.9,132.14h0.34c0,2.84,0,5.68,0,8.52c-2.26,0-4.51,0-6.76,0c0-2.84,0-5.68,0-8.52
				C729.62,132.14,731.76,132.14,733.9,132.14z"/>
			<path style="fill:#FBED24;" d="M731.77,83.72c-0.189-0.16-0.38-0.36-0.569-0.61c0.43-1.94,0.58-1.74,1.35-3.41
				c0.49-0.22,0.82,1.66,1.01,0.43c0.11,0.54,0.57,1.39,0.681,2.98C733.41,84.19,732.59,84.4,731.77,83.72z"/>
			<path style="fill:#A8D7F4;" d="M730.86,84.39l0.909-0.67c0.82,0.68,1.641,0.47,2.471-0.61l0.31,0.01l-0.53,6.7l-0.05,0.62
				c-0.91-0.07-1.819-0.12-2.739-0.13l0.029-1.58c0.19,0,0.391-0.03,0.61-0.08c0.97-2.02-0.07-2.72-0.34-3.81
				C731.37,85.56,731.17,84.63,730.86,84.39z"/>
			<path style="fill:#FBED24;" d="M729.51,87.8c-0.43-1.3,1.15-2.17,0.33-2.56c0.101-0.88,0.92,0.64,1.021-0.85
				c0.31,0.24,0.51,1.17,0.67,0.45c0.27,1.09,1.31,1.79,0.34,3.81c-0.22,0.05-0.42,0.08-0.61,0.08
				C730.43,88.73,729.97,88.26,729.51,87.8z"/>
			<path style="fill:#ED1E29;" d="M734.85,79.22c-1.47-1.37-2.569-3.2-4.33-4.21l-0.01-0.06c1.62-0.25,3.23,0.78,4.41,3.47
				L734.85,79.22z"/>
			<path style="fill:#FBED24;" d="M727.48,83.11c0.43-1.94,0.579-1.74,1.35-3.41c0.49-0.22,0.82,1.66,1.01,0.43
				c0.11,0.54,0.57,1.39,0.68,2.98C729.5,84.44,728.5,84.44,727.48,83.11z"/>
			<path style="fill:#ED1E29;" d="M727.48,114.23c2.14,0,4.279,0,6.42,0l0.619,0.16c-0.699,2.18-0.069,6.02-0.279,8.79
				c-2.141,0-4.28,0-6.42,0c-0.021,0.06-0.04,0.11-0.061,0.17l-0.62-0.17C727.93,121.05,727.26,117.08,727.48,114.23z"/>
			<path style="fill:#FFFFFF;" d="M727.14,123.18c-2.14,0-4.279,0-6.42,0c0.221-2.77-0.41-6.61,0.28-8.79
				c0.02-0.05,0.04-0.1,0.06-0.16c2.141,0,4.28,0,6.421,0C727.26,117.08,727.93,121.05,727.14,123.18z"/>
			<path style="fill:#FFFFFF;" d="M727.48,140.66c2.25,0,4.5,0,6.76,0c0-2.84,0-5.68,0-8.52c2.25,0,4.5,0,6.76,0h0.34
				c0.2,1.15-0.43,3.38,0.33,3.83c0.69-0.63,1.311-1.37,1.85-2.2l0.25,0.16c-3.939,6.04-10.02,9.17-16.47,7.35L727.48,140.66z"/>
			<path style="fill:#ED1E29;" d="M726.47,78.42c1.15-1.99,2.601-3.24,4.04-3.47l0.01,0.06c-1.05,1.8-2.51,3.09-4.05,4.27
				c-0.01-0.01-0.02-0.02-0.029-0.02L726.47,78.42z"/>
			<path style="fill:#A8D7F4;" d="M726.47,79.28c1.54-1.18,3-2.47,4.05-4.27c1.761,1.01,2.86,2.84,4.33,4.21v0.1l-1.29,0.81
				c-0.189,1.23-0.52-0.65-1.01-0.43c-0.77,1.67-0.92,1.47-1.35,3.41h-0.681c-0.109-1.59-0.569-2.44-0.68-2.98
				c-0.189,1.23-0.52-0.65-1.01-0.43c-0.771,1.67-0.92,1.47-1.35,3.41l-1.131-0.03l0.091-3.82
				C726.45,79.26,726.46,79.27,726.47,79.28z"/>
			<path style="fill:#A8D7F4;" d="M726.35,83.08l1.131,0.03c1.02,1.33,2.02,1.33,3.039,0h0.681c0.189,0.25,0.38,0.45,0.569,0.61
				l-0.909,0.67c-0.101,1.49-0.92-0.03-1.021,0.85c0.82,0.39-0.76,1.26-0.33,2.56c0.46,0.46,0.92,0.93,1.75,0.93l-0.029,1.58
				c-1.69-0.04-3.4,0.01-5.07,0.16v-0.04L726.35,83.08z"/>
			<path style="fill:#394EA1;" d="M718.03,80.79c1.72-1.03,2.55-3.19,3.7-4.93c1.689,0.99,3.21,2.18,4.71,3.4l-0.091,3.82
				l-0.189,7.35v0.04c-1.641,0.14-3.26,0.39-4.82,0.74l-0.01-0.18l-1.35-4.19L718.03,80.79z"/>
			<path style="fill:#ED1E29;" d="M720.38,114.23c0.79-2.14,0.12-6.1,0.34-8.95l0.12-0.36c1.61,0.88,4.55,0.09,6.641,0.36
				c0,2.99,0,5.97,0,8.95c-2.141,0-4.28,0-6.421,0c-0.02,0.06-0.04,0.11-0.06,0.16L720.38,114.23z"/>
			<path style="fill:#ED1E29;" d="M727.48,132.14c-2.141,0-4.28,0-6.421,0c-0.06,0.04-0.109,0.1-0.149,0.16l-0.19-0.16
				c0-2.99,0-5.97,0-8.96c2.141,0,4.28,0,6.42,0l0.62,0.17C727.07,125.52,727.7,129.36,727.48,132.14z"/>
			<path style="fill:#ED1E29;" d="M720.72,105.28c-2.25,0-4.51,0-6.76,0c0-2.83,0-5.66,0-8.49c0-0.01,0-0.02,0-0.04
				c2.25,0,4.51,0,6.76,0c0,2.7,0,5.41,0,8.1c0.04,0.03,0.08,0.05,0.12,0.07L720.72,105.28z"/>
			<path style="fill:#ED1E29;" d="M721.73,75.86c-1.15,1.74-1.98,3.9-3.7,4.93l-0.351-1.09c2-0.74,2.521-3.35,4.051-4.69
				c1.8,0.86,3.35,2.03,4.739,3.41l-0.029,0.84C724.94,78.04,723.42,76.85,721.73,75.86z"/>
			<path style="fill:#FFFFFF;" d="M723.08,139.39c-2.3-1.44-4.07-3.31-5.44-5.57l0.511-0.28c0.649,1.05,1.8,2.21,2.569,2.86
				c0.2-1.2-0.34-3.32,0.19-4.1c0.04-0.06,0.09-0.12,0.149-0.16c2.141,0,4.28,0,6.421,0c0,2.84,0,5.68,0,8.52l-0.181,0.62
				C725.91,140.89,724.5,140.26,723.08,139.39z"/>
			<path style="fill:#ED1E29;" d="M713.28,95.55c-22.3-1.01-46.07-0.14-68.94-0.43c0-11.68,0-23.35,0-35.03
				c57.68,0,115.36,0,173.04,0c0,11.68,0,23.35,0,35.03c-22.85,0-45.7,0-68.55,0c0.78-4.13,2.51-7.07,3.32-11.15
				c-1.341-2-2.021-4.84-3.721-6.4c-1.63,0.64-2.85,1.81-4.729,2.13c-1.75-1.06-2.181-3.78-4.061-4.69
				c-1.59,1.12-3.13,2.3-4.72,3.41c-1.18-2.69-2.79-3.72-4.41-3.47c-1.439,0.23-2.89,1.48-4.04,3.47
				c-1.39-1.38-2.939-2.55-4.739-3.41c-1.53,1.34-2.051,3.95-4.051,4.69c-1.72-0.53-2.939-1.69-4.729-2.13
				c-1.16,2.1-2.22,4.31-3.38,6.4c1.02,4.1,2.39,7.78,3.71,11.51V95.55z"/>
			<path style="fill:#ED1E29;" d="M718.15,133.54c-0.32-0.52-0.511-1.01-0.471-1.4c1.011,0,2.03,0,3.04,0l0.19,0.16
				c-0.53,0.78,0.01,2.9-0.19,4.1C719.95,135.75,718.8,134.59,718.15,133.54z"/>
			<path style="fill:#FFFFFF;" d="M716.33,132.99c-24,0-47.99,0-71.99,0c0-0.2,0-0.4,0-0.6c23.87,0,47.75,0,71.62,0
				C716.08,132.6,716.2,132.8,716.33,132.99z"/>
			<path style="fill:#FBED24;" d="M715.65,86.52c-1.261-0.42-0.881-0.91-2.37-0.42c-0.66-3.03,0.47-2.22,0.68-4.69
				c0.57,0.56,1.13,1.13,2.37,0.85c-0.73,0.88-0.18,2.03,0.67,2.13C716.77,85.38,715.23,84.71,715.65,86.52z"/>
			<path style="fill:#FFFFFF;" d="M714.3,123.18c2.141,0,4.28,0,6.42,0c0,2.99,0,5.97,0,8.96c-1.01,0-2.029,0-3.04,0
				c-0.04,0.39,0.15,0.88,0.471,1.4l-0.511,0.28c-1.899-3.16-3-7.08-3.609-11.68l0.09-0.01C714.17,122.5,714.22,122.85,714.3,123.18
				z"/>
			<path style="fill:#ED1E29;" d="M720.72,123.18c-2.14,0-4.279,0-6.42,0c-0.08-0.33-0.13-0.68-0.18-1.05
				c-0.3-2.33-0.11-5.26-0.16-7.9c2.14,0,4.28,0,6.42,0l0.62,0.16C720.31,116.57,720.94,120.41,720.72,123.18z"/>
			<path style="fill:#FFFFFF;" d="M713.6,96.79c0-0.29,0.011-0.59,0.021-0.89c6.87,0,13.75,0,20.62,0v0.85c-2.26,0-4.51,0-6.76,0
				c0,2.85,0,5.69,0,8.53c-2.091-0.27-5.03,0.52-6.641-0.36c-0.04-0.02-0.08-0.04-0.12-0.07c0-2.69,0-5.4,0-8.1
				c-2.25,0-4.51,0-6.76,0c0,0.02,0,0.03,0,0.04H713.6z"/>
			<path style="fill:#FFFFFF;" d="M714.03,122.14c-0.62-4.68-0.73-10.06-0.65-16.02c0.04-2.96,0.12-6.08,0.22-9.33h0.36
				c0,2.83,0,5.66,0,8.49c2.25,0,4.51,0,6.76,0c-0.22,2.85,0.45,6.81-0.34,8.95c-2.14,0-4.28,0-6.42,0c0.05,2.64-0.14,5.57,0.16,7.9
				L714.03,122.14z"/>
			<path style="fill:#ED1E29;" d="M713.28,102.19c0.01-1.01,0.01-2.01,0.02-2.99c0-0.12,0-0.24,0-0.36c0-0.39,0-0.77-0.01-1.15
				l-0.01-2.14v-0.07c9.5-5.99,25.87-5.66,35.46-0.02c-0.28,2.91-0.33,6.1-0.33,9.37c0,0.03,0,0.06,0,0.09
				c0.01,2.89,0.06,5.85,0.06,8.73c0,0.08,0,0.15,0,0.23c0,0.65,0,1.3-0.01,1.95c-0.01,0.51-0.02,1.01-0.03,1.51h-0.09
				c0.12-5.17-0.43-10.67-0.43-16.29c0-1.71,0.05-3.42,0.18-5.15c-4.609,0-9.229,0-13.85,0c-6.87,0-13.75,0-20.62,0
				c-0.01,0.3-0.021,0.6-0.021,0.89c-0.1,3.25-0.18,6.37-0.22,9.33h-0.13C713.26,104.8,713.28,103.48,713.28,102.19z"/>
			<path style="fill:#FFFFFF;" d="M713.28,96.75c-5.25-0.23-10.59-0.36-15.98-0.43c5.351-0.17,10.681-0.41,15.98-0.77l0.01,2.14
				C713.29,97.37,713.28,97.06,713.28,96.75z"/>
			<path style="fill:#FFFFFF;" d="M715.96,132.39c-2.26-4-2.72-11.43-2.75-19.42c0.08,8.19,0.64,15.68,3.12,19.42
				C716.2,132.39,716.08,132.39,715.96,132.39z"/>
			<path style="fill:#FFFFFF;" d="M713.28,102.19c0,1.29-0.021,2.61-0.03,3.93c-0.02,1.73-0.04,3.48-0.05,5.21
				C713.2,108.3,713.25,105.2,713.28,102.19z"/>
			<path style="fill:#394EA1;" d="M713.25,106.12h0.13c-0.08,5.96,0.03,11.34,0.65,16.02c0.609,4.6,1.71,8.52,3.609,11.68
				c1.37,2.26,3.141,4.13,5.44,5.57c1.42,0.87,2.83,1.5,4.22,1.89c6.45,1.82,12.53-1.31,16.47-7.35c1.87-2.86,3.271-6.37,3.99-10.32
				c0.09-0.48,0.16-0.96,0.23-1.44c0.21-1.58,0.319-3.19,0.35-4.83h0.09c-0.149,6.12-0.8,11.6-3.04,15.05c0.12,0,0.25,0,0.37,0
				c-0.12,0.21-0.24,0.41-0.37,0.6c24,0,47.99,0,71.99,0c0,12.08,0,24.16,0,36.23c-57.68,0-115.36,0-173.04,0
				c0-12.07,0-24.15,0-36.23c24,0,47.99,0,71.99,0c-0.13-0.19-0.25-0.39-0.37-0.6c0.12,0,0.24,0,0.37,0
				c-2.48-3.74-3.04-11.23-3.12-19.42c0-0.42-0.01-0.86-0.01-1.29c0-0.12,0-0.23,0-0.35C713.21,109.6,713.23,107.85,713.25,106.12z"
				/>
			<path style="fill:#FFFFFF;" d="M713.2,111.68c0,0.43,0.01,0.87,0.01,1.29C713.2,112.54,713.2,112.11,713.2,111.68z"/>
			<path style="fill:#A8D7F4;" d="M713.28,86.1c1.489-0.49,1.109,0,2.37,0.42c-0.42-1.81,1.119-1.14,1.35-2.13
				c-0.85-0.1-1.4-1.25-0.67-2.13c-1.24,0.28-1.8-0.29-2.37-0.85C713.75,83.88,712.62,83.07,713.28,86.1z M712.61,89.51l-0.511,0.16
				c-0.569-1.82-1.149-3.62-1.859-5.28c1.109-1.73,1.79-4,3.04-5.54c1.649,0.48,3.229,1.05,4.399,2.13
				c0.12-0.06,0.23-0.12,0.351-0.19l1.95,6.05l-1.25,0.41c-0.08-0.25-0.211-0.49-0.37-0.73C718.1,89.66,714.31,89.48,712.61,89.51z"
				/>
			<path style="fill:#FFFFFF;" d="M718.73,87.25c0.989,3-4.631,5.85-6.12,2.26c1.699-0.03,5.489,0.15,5.75-2.99
				C718.52,86.76,718.65,87,718.73,87.25z"/>
			<path style="fill:#A8D7F4;" d="M713.62,94.2c-0.55-1.46-1.03-3-1.521-4.53l0.511-0.16c1.489,3.59,7.109,0.74,6.12-2.26l1.25-0.41
				l1.35,4.19l0.01,0.18C718.52,91.84,715.89,92.81,713.62,94.2z"/>
			<path style="fill:#ED1E29;" d="M709.57,83.97c1.16-2.09,2.22-4.3,3.38-6.4c1.79,0.44,3.01,1.6,4.729,2.13l0.351,1.09
				c-0.12,0.07-0.23,0.13-0.351,0.19c-1.17-1.08-2.75-1.65-4.399-2.13c-1.25,1.54-1.931,3.81-3.04,5.54
				c0.71,1.66,1.29,3.46,1.859,5.28c0.49,1.53,0.971,3.07,1.521,4.53c2.27-1.39,4.899-2.36,7.72-2.99c1.561-0.35,3.18-0.6,4.82-0.74
				c1.67-0.15,3.38-0.2,5.07-0.16c0.92,0.01,1.829,0.06,2.739,0.13c2.13,0.16,4.221,0.45,6.21,0.85c3.061,0.6,5.891,1.46,8.25,2.48
				c-1-3.13-5.83-1.45-6.76-4.69c2.97,0.23,4.73,2,7.44,2.56c-0.061-1.35,0.899-1.43,0.68-2.99c-1.9-2.02-6.09-1.13-7.1-4.26
				c1.51,0.31,2.84,0.84,4.14,1.41v0.01c1.2,0.53,2.38,1.1,3.63,1.56c1.05-1.97,0.74-3.85-0.09-5.49c-0.59-1.16-1.45-2.19-2.28-3.03
				c-1.57,0.57-2.899,1.45-4.39,2.13c-1.72-1.24-2.47-3.7-4.061-5.12c-1.51,1.22-2.979,2.49-4.72,3.42
				c-0.03-0.02-0.05-0.04-0.07-0.06l0.07-0.8c1.59-1.11,3.13-2.29,4.72-3.41c1.88,0.91,2.311,3.63,4.061,4.69
				c1.88-0.32,3.1-1.49,4.729-2.13c1.7,1.56,2.38,4.4,3.721,6.4c-0.811,4.08-2.54,7.02-3.32,11.15c-0.021,0-0.04,0-0.061,0
				c-0.01,0.11-0.02,0.22-0.029,0.34c-9.59-5.64-25.96-5.97-35.46,0.02C711.96,91.75,710.59,88.07,709.57,83.97z"/>
			<path style="fill:#ED1E29;" d="M697.3,96.32c-17.62,0.55-35.42,0.23-52.96,0.01C661.82,96.55,679.83,96.1,697.3,96.32z"/>
			<path style="fill:#ED1E29;" d="M697.3,96.32c-17.47-0.22-35.479,0.23-52.96,0.01c0-0.41,0-0.81,0-1.21
				c22.87,0.29,46.641-0.58,68.94,0.43C707.98,95.91,702.65,96.15,697.3,96.32z"/>
			<path style="fill:#FFFFFF;" d="M715.96,132.39c-23.87,0-47.75,0-71.62,0c0,0.2,0,0.4,0,0.6c0,12.08,0,24.16,0,36.23h-0.67
				c0-36.23,0-72.47,0-108.7c-0.04-0.61-0.06-1.21,0.33-1.28c0.11,0,0.23,0,0.34,0c0,0.28,0,0.57,0,0.85c0,11.68,0,23.35,0,35.03
				c0,0.4,0,0.8,0,1.21c17.54,0.22,35.34,0.54,52.96-0.01c5.391,0.07,10.73,0.2,15.98,0.43c0,0.31,0.01,0.62,0.01,0.94
				c0.01,0.38,0.01,0.76,0.01,1.15c0,0.12,0,0.24,0,0.36c-0.01,0.98-0.01,1.98-0.02,2.99c-0.03,3.01-0.08,6.11-0.08,9.14
				c0,0.12,0,0.23,0,0.35c0,0.43,0,0.86,0.01,1.29C713.24,120.96,713.7,128.39,715.96,132.39z"/>
			<path style="fill:#FFFFFF;" d="M644.34,169.22c57.68,0,115.36,0,173.04,0c0-12.07,0-24.15,0-36.23c0-0.2,0-0.4,0-0.6
				c-23.88,0-47.75,0-71.62,0c2.2-3.87,2.66-9.97,2.7-16.56c0.01-0.65,0.01-1.3,0.01-1.95c0-0.08,0-0.15,0-0.23
				c0-2.88-0.05-5.84-0.06-8.73c0-0.03,0-0.06,0-0.09c0.01-2.98,0.09-5.86,0.359-8.5c22.87,0,45.74,0,68.61,0c0-0.41,0-0.81,0-1.21
				c0-11.68,0-23.35,0-35.03c0-0.28,0-0.57,0-0.85c0.22,0,0.45,0,0.67,0c0,3.01,0,6.01,0,9.02c0,33.94,0,67.88,0,101.82
				c-58.13,0-116.26,0-174.38,0c0-0.29,0-0.57,0-0.86H644.34z"/>
			<path style="fill:#FFFFFF;" d="M817.38,58.28c-57.68,0-115.36,0-173.04,0c0,0.32,0,0.64,0,0.96c-0.109,0-0.229,0-0.34,0
				c-0.39,0.07-0.37,0.67-0.33,1.28c0,36.23,0,72.47,0,108.7c0,0.29,0,0.57,0,0.86h-0.15l-1.05-113.4H818.69V67.9l-0.641,0.36
				c0-3.01,0-6.01,0-9.02c-0.22,0-0.45,0-0.67,0C817.38,58.92,817.38,58.6,817.38,58.28z"/>
			<path style="fill:#FFFFFF;" d="M643.67,170.08c58.12,0,116.25,0,174.38,0c0-33.94,0-67.88,0-101.82l0.641-0.36v103.57H643.53
				l-0.011-1.39H643.67z"/>
			<path style="fill:#C8C8C8;" d="M641.73,48.85c-1.801,0.85-3.95,1.34-6.25,1.34c-2.211,0-4.271-0.45-6.021-1.23
				c-3.32-1.48-5.54-4.15-5.54-7.19c0-4.66,5.18-8.43,11.561-8.43c6.38,0,11.56,3.77,11.56,8.43
				C647.04,44.74,644.93,47.35,641.73,48.85z"/>
			<path style="fill:#C8C8C8;" d="M635.48,50.19c2.3,0,4.449-0.49,6.25-1.34v202.76H629.8l-0.34-202.65
				C631.21,49.74,633.27,50.19,635.48,50.19z"/>
			<path style="fill:#FFF5B4;" d="M470.42,743.88c8.49-5.91,16.7,4.53,26.29,3.75C490.12,751.65,477.58,745.54,470.42,743.88z"/>
			<path style="fill:#FFFFFF;" d="M442.89,693.19c1.061-0.021,2.101-0.03,3.11-0.03C444.95,693.2,443.91,693.21,442.89,693.19z"/>
			<path style="fill:#FFF5B4;" d="M442.89,693.19c-22.62,0.439-54.83,5.609-68.27-9.421C399.97,677.83,417.42,692.87,442.89,693.19z
				"/>
			<path style="fill:#FFF5B4;" d="M423.46,670.62c-16.18,3.78-39.73,6.49-48.84-5.63C379.41,651.41,419.61,659.1,423.46,670.62z"/>
			<path style="fill:#FFF5B4;" d="M337.06,706.31c-0.5-7.739,14.55-6.609,18.78-3.75C355.4,709.06,339.57,713.56,337.06,706.31z"/>
			<path style="fill:#FFF5B4;" d="M248.78,584.22c-5.11,3.271-11.78-4.88-13.15-11.27C241.29,575.43,247.22,577.64,248.78,584.22z"
				/>
			<path style="fill:#FFF5B4;" d="M205.58,426.45c-15.6,4.689-26.37-9.31-37.57-15.03c2.25-10.28,9.03-16.02,11.27-26.3
				C187.52,399.42,196.97,412.51,205.58,426.45z"/>
			<path style="fill:#FFF5B4;" d="M154.86,396.39c5.84,0.42,3.18,9.35,3.76,15.03c-2.78-0.98-4.74-2.78-7.51-3.76
				C150.21,401.75,153.78,400.32,154.86,396.39z"/>
		</g>
		<g>
			<path style="fill:none;stroke:#231F20;stroke-width:2.1154;" d="M817.38,95.12c0-11.68,0-23.35,0-35.03c0-0.28,0-0.57,0-0.85"/>
			<path style="fill:none;stroke:#231F20;stroke-width:2.1154;" d="M745.76,132.39c2.2-3.87,2.66-9.97,2.7-16.56
				c0.01-0.65,0.01-1.3,0.01-1.95"/>
			<path style="fill:none;stroke:#231F20;stroke-width:2.1154;" d="M643.67,169.22h0.67c57.68,0,115.36,0,173.04,0
				c0-12.07,0-24.15,0-36.23"/>
			<path style="fill:none;stroke:#231F20;stroke-width:2.1154;" d="M643.67,169.22c0,0.29,0,0.57,0,0.86"/>
			<path style="fill:none;stroke:#231F20;stroke-width:2.1154;" d="M818.05,68.26c0-3.01,0-6.01,0-9.02c-0.22,0-0.45,0-0.67,0"/>
			<path style="fill:none;stroke:#231F20;stroke-width:2.1154;" d="M748.41,104.92c0.01,2.89,0.06,5.85,0.06,8.73
				c0,0.08,0,0.15,0,0.23"/>
			<path style="fill:none;stroke:#231F20;stroke-width:2.1154;" d="M644.34,132.99c0-0.2,0-0.4,0-0.6c23.87,0,47.75,0,71.62,0
				c0.12,0.21,0.24,0.41,0.37,0.6C692.33,132.99,668.34,132.99,644.34,132.99z"/>
			<path style="fill:none;stroke:#231F20;stroke-width:2.1154;" d="M817.38,95.12c0,0.4,0,0.8,0,1.21c-22.87,0-45.74,0-68.61,0
				c-0.27,2.64-0.35,5.52-0.359,8.5c0,0.03,0,0.06,0,0.09"/>
			<path style="fill:none;stroke:#231F20;stroke-width:0.6044;" d="M737.32,88.6c-0.051,0.08-0.09,0.15-0.141,0.22"/>
			<path style="fill:none;stroke:#231F20;stroke-width:0.6044;" d="M737.7,87.96c-0.04,0.07-0.08,0.14-0.12,0.21"/>
			<path style="fill:none;stroke:#231F20;stroke-width:0.6044;" d="M738.11,87.38c-0.021,0.01-0.021,0.01-0.021,0.02
				c-0.03,0.03-0.05,0.05-0.07,0.08"/>
			<path style="fill:none;stroke:#231F20;stroke-width:2.1154;" d="M643.67,170.08c58.12,0,116.25,0,174.38,0
				c0-33.94,0-67.88,0-101.82"/>
			<polyline style="fill:none;stroke:#231F20;stroke-width:7;" points="642.47,56.68 818.69,56.68 818.69,67.9 818.69,171.47 
				643.53,171.47 			"/>
			<path style="fill:none;stroke:#231F20;stroke-width:7;" d="M629.46,48.96c-3.32-1.48-5.54-4.15-5.54-7.19
				c0-4.66,5.18-8.43,11.561-8.43c6.38,0,11.56,3.77,11.56,8.43c0,2.97-2.11,5.58-5.31,7.08c-1.801,0.85-3.95,1.34-6.25,1.34
				C633.27,50.19,631.21,49.74,629.46,48.96z"/>
			<polyline style="fill:none;stroke:#231F20;stroke-width:7;" points="629.46,48.72 629.46,48.96 629.8,251.61 			"/>
			<polyline style="fill:none;stroke:#231F20;stroke-width:7;" points="641.73,48.3 641.73,48.85 641.73,251.61 			"/>
			<polyline style="fill:none;stroke:#231F20;stroke-width:4.2307;" points="818.05,68.26 818.69,67.9 819.29,67.56 			"/>
			<path style="fill:none;stroke:#231F20;stroke-width:0.6044;" d="M734.92,79.28c1.74-0.93,3.21-2.2,4.72-3.42
				c1.591,1.42,2.341,3.88,4.061,5.12c1.49-0.68,2.819-1.56,4.39-2.13c0.83,0.84,1.69,1.87,2.28,3.03c0.83,1.64,1.14,3.52,0.09,5.49
				c-1.25-0.46-2.43-1.03-3.63-1.56V85.8c-1.3-0.57-2.63-1.1-4.14-1.41c1.01,3.13,5.199,2.24,7.1,4.26
				c0.22,1.56-0.74,1.64-0.68,2.99c-2.71-0.56-4.471-2.33-7.44-2.56c0.93,3.24,5.76,1.56,6.76,4.69
				c-2.359-1.02-5.189-1.88-8.25-2.48c-1.989-0.4-4.08-0.69-6.21-0.85c-0.91-0.07-1.819-0.12-2.739-0.13
				c-1.69-0.04-3.4,0.01-5.07,0.16c-1.641,0.14-3.26,0.39-4.82,0.74c-2.82,0.63-5.45,1.6-7.72,2.99c-0.55-1.46-1.03-3-1.521-4.53
				c-0.569-1.82-1.149-3.62-1.859-5.28c1.109-1.73,1.79-4,3.04-5.54c1.649,0.48,3.229,1.05,4.399,2.13
				c0.12-0.06,0.23-0.12,0.351-0.19c1.72-1.03,2.55-3.19,3.7-4.93c1.689,0.99,3.21,2.18,4.71,3.4c0.01,0,0.02,0.01,0.029,0.02
				c1.54-1.18,3-2.47,4.05-4.27c1.761,1.01,2.86,2.84,4.33,4.21C734.87,79.24,734.89,79.26,734.92,79.28z"/>
			<path style="fill:none;stroke:#231F20;stroke-width:0.6044;" d="M730.52,83.11c-0.109-1.59-0.569-2.44-0.68-2.98
				c-0.189,1.23-0.52-0.65-1.01-0.43c-0.771,1.67-0.92,1.47-1.35,3.41C728.5,84.44,729.5,84.44,730.52,83.11z"/>
			<path style="fill:none;stroke:#231F20;stroke-width:0.6044;" d="M733.56,80.13c-0.189,1.23-0.52-0.65-1.01-0.43
				c-0.77,1.67-0.92,1.47-1.35,3.41c0.189,0.25,0.38,0.45,0.569,0.61c0.82,0.68,1.641,0.47,2.471-0.61
				C734.13,81.52,733.67,80.67,733.56,80.13z"/>
			<path style="fill:none;stroke:#231F20;stroke-width:0.6044;" d="M749.11,82.26c-1.261,0.45-0.66-1.44-1.351-1.71
				c-0.04,1.09-1.26,1.01-1.689,0.43c0.189,1.38-0.11,2.15-0.681,2.56c1.16-0.18,1.021,1.28,1.69,1.7
				c0.229-1.33,0.9-0.55,1.689-0.42C748.35,83.52,748.51,83.16,749.11,82.26z"/>
			<path style="fill:none;stroke:#231F20;stroke-width:0.6044;" d="M713.96,81.41c-0.21,2.47-1.34,1.66-0.68,4.69
				c1.489-0.49,1.109,0,2.37,0.42c-0.42-1.81,1.119-1.14,1.35-2.13c-0.85-0.1-1.4-1.25-0.67-2.13
				C715.09,82.54,714.53,81.97,713.96,81.41z"/>
			<path style="fill:none;stroke:#231F20;stroke-width:0.6044;" d="M712.61,89.51c1.489,3.59,7.109,0.74,6.12-2.26
				c-0.08-0.25-0.211-0.49-0.37-0.73C718.1,89.66,714.31,89.48,712.61,89.51z"/>
			<path style="fill:none;stroke:#231F20;stroke-width:0.6044;" d="M737.18,88.82c-0.17,0.25-0.35,0.49-0.58,0.69
				c0.271-0.8,0.57-1.56,0.681-2.56c-1.261-0.45-0.53,1.6-1.69,1.28c0.34-1.03,1.811-4.37,0-4.26c0.07-0.28,0.141-0.54,0.22-0.79
				c0.24-0.76,0.58-1.41,1.131-1.77c1.27,0.81-0.19,1.81,1.02,2.98c1.73,0.01,2.21-0.62,3.71,0c-1.02,2.1-0.07,2.97-1.11,4.75
				c-0.069,0.11-0.149,0.24-0.239,0.37c-0.99-0.36,0.439-1.07,0-2.14c-1.08-0.37-0.7,1.11-1.351,1.28c-0.55,1.27,0.11-1.32,0.34-1.7
				c-0.47-0.14-0.81,0.01-1.09,0.3c-0.04,0.04-0.08,0.08-0.109,0.13c-0.011,0.01-0.021,0.01-0.021,0.02
				c-0.02,0.02-0.04,0.05-0.07,0.08c-0.06,0.08-0.13,0.18-0.189,0.28c-0.05,0.07-0.09,0.13-0.13,0.2"/>
			<path style="fill:none;stroke:#231F20;stroke-width:0.6044;" d="M737.58,88.17c-0.09,0.14-0.17,0.29-0.26,0.43"/>
			<path style="fill:none;stroke:#231F20;stroke-width:0.6044;" d="M731.26,88.73c-0.83,0-1.29-0.47-1.75-0.93
				c-0.43-1.3,1.15-2.17,0.33-2.56c0.101-0.88,0.92,0.64,1.021-0.85c0.31,0.24,0.51,1.17,0.67,0.43c0,0.01,0,0.02,0,0.02
				c0.27,1.09,1.31,1.79,0.34,3.81C731.65,88.7,731.45,88.73,731.26,88.73z"/>
			<path style="fill:none;stroke:#231F20;stroke-width:2.1154;" d="M713.6,96.79c0-0.29,0.011-0.59,0.021-0.89
				c6.87,0,13.75,0,20.62,0c4.62,0,9.24,0,13.85,0c-0.13,1.73-0.18,3.44-0.18,5.15c0,5.62,0.55,11.12,0.43,16.29
				c-0.03,1.64-0.14,3.25-0.35,4.83c-0.07,0.48-0.141,0.96-0.23,1.44c-0.72,3.95-2.12,7.46-3.99,10.32
				c-3.939,6.04-10.02,9.17-16.47,7.35c-1.39-0.39-2.8-1.02-4.22-1.89c-2.3-1.44-4.07-3.31-5.44-5.57
				c-1.899-3.16-3-7.08-3.609-11.68c-0.62-4.68-0.73-10.06-0.65-16.02C713.42,103.16,713.5,100.04,713.6,96.79z"/>
			<path style="fill:none;stroke:#231F20;stroke-width:0.6044;" d="M741.34,105.28c2.141,0,4.28,0,6.42,0c0-1.41,0-2.82,0-4.23
				c0-1.43,0-2.87,0-4.3c-2.14,0-4.279,0-6.42,0C741.34,99.6,741.34,102.44,741.34,105.28z"/>
			<path style="fill:none;stroke:#231F20;stroke-width:0.6044;" d="M741.34,123.18c2.021,0,4.05,0,6.08,0
				c0.09-0.32,0.16-0.68,0.21-1.06c0.33-2.28,0.021-5.35,0.13-7.89c-2.14,0-4.279,0-6.42,0
				C741.34,117.22,741.34,120.2,741.34,123.18z"/>
			<path style="fill:none;stroke:#231F20;stroke-width:0.6044;" d="M734.24,123.18c2.25,0,4.5,0,6.76,0c0,2.99,0,5.97,0,8.96
				c-2.26,0-4.51,0-6.76,0c0,2.84,0,5.68,0,8.52c-2.26,0-4.51,0-6.76,0c0-2.84,0-5.68,0-8.52c2.14,0,4.279,0,6.42,0
				C734.69,130,734.02,126.03,734.24,123.18z"/>
			<path style="fill:none;stroke:#231F20;stroke-width:0.6044;" d="M734.24,105.28c2.25,0,4.5,0,6.76,0c0,2.99,0,5.97,0,8.95
				c-2.14,0-4.28,0-6.42,0c-0.021,0.06-0.04,0.11-0.061,0.16c-0.699,2.18-0.069,6.02-0.279,8.79c-2.141,0-4.28,0-6.42,0
				c-0.021,0.06-0.04,0.11-0.061,0.17c-0.689,2.17-0.06,6.01-0.279,8.79c-2.141,0-4.28,0-6.421,0c-0.06,0.04-0.109,0.1-0.149,0.16
				c-0.53,0.78,0.01,2.9-0.19,4.1c-0.77-0.65-1.92-1.81-2.569-2.86c-0.32-0.52-0.511-1.01-0.471-1.4c1.011,0,2.03,0,3.04,0
				c0-2.99,0-5.97,0-8.96c2.141,0,4.28,0,6.42,0c0.79-2.13,0.12-6.1,0.341-8.95c2.14,0,4.279,0,6.42,0
				C734.69,112.09,734.02,108.13,734.24,105.28z"/>
			<path style="fill:none;stroke:#231F20;stroke-width:0.6044;" d="M734.24,105.28c-2.26,0-4.51,0-6.76,0c0,2.99,0,5.97,0,8.95
				c-2.141,0-4.28,0-6.421,0c-0.02,0.06-0.04,0.11-0.06,0.16c-0.69,2.18-0.06,6.02-0.28,8.79c-2.14,0-4.279,0-6.42,0
				c-0.08-0.33-0.13-0.68-0.18-1.05c-0.3-2.33-0.11-5.26-0.16-7.9c2.14,0,4.28,0,6.42,0c0.79-2.14,0.12-6.1,0.34-8.95
				c-2.25,0-4.51,0-6.76,0c0-2.83,0-5.66,0-8.49c0-0.01,0-0.02,0-0.04c2.25,0,4.51,0,6.76,0c0,2.7,0,5.41,0,8.1
				c0.04,0.03,0.08,0.05,0.12,0.07c1.61,0.88,4.55,0.09,6.641,0.36c0-2.84,0-5.68,0-8.53c2.25,0,4.5,0,6.76,0
				C734.24,99.6,734.24,102.44,734.24,105.28z"/>
			<path style="fill:none;stroke:#231F20;stroke-width:5.6456;" d="M615.05,285.57c12.71,3.55,24.98,13.8,26.29,33.81
				c-0.35,7.94-12.979,10.98-5.63,20.66c8.05,3.86,11.67-4.47,18.78,3.76c-1.04,7.23-7.26-1.45-11.271,3.76
				c-6.38,29.24,23.38,34.35,45.08,41.32c-2.97,11.34-18.14,2.13-24.42,0c-9.83,5.68-5.08,17.43-7.51,26.3
				c-2.71,9.89-12.101,17.07-9.39,26.29c-10.58,0.561-17.881-2.149-24.421-5.63c7.69-30.88-31.729-29.17-54.47-35.69
				c-7.29-1.03-4.41,8.11-9.39,9.39c-9.891-7.5-24.311-5.19-31.931,3.76c-30.119-20.03-74.399-7.1-99.56-31.93
				c-5.92,1.58-5.34,9.68-11.26,11.27c-12.01,0.1-16.45-7.34-30.06-5.64c-9.92,8.24-12.59,23.72-20.66,33.81
				c-21.79-4.77-29.59-51.98-58.23-26.3c-0.77,28.6-13.17,69.82,18.79,71.38c5.5,24.04,35.39,42.591,18.78,71.37
				c2.68,6.431,10.19,0.891,13.15,3.76c7.49,10.04,11.12,23.94,28.17,24.421c23.35,28,35.93,66.75,75.14,78.89
				c-6.261,37.9,34.12,42.81,45.069,69.5c-11.489,14.11-15.119-0.39-22.54-7.521c-9.06-8.699-22.979-14.149-33.8-22.54
				c-11.34-8.779-11.729-21.96-22.55-28.17c-6.72-3.859-13.52-0.449-22.53-3.76c-12.42-4.56-21.85-19.54-33.81-20.66
				c-11.26-1.05-23.87,13.12-33.81,11.271c-7.38-1.37-18.7-13.42-9.39-22.54c-14.99-18.641-38.37-26.13-56.35-43.2
				c-13.21-12.54-25.57-31.13-31.93-48.84c6.25,0.63,8.33,5.45,16.9,3.76c5.63-1.24-1.8-4.01,0-7.51
				c10.68,2.13,12.95,10.67,26.3,5.63c-22.77-13.4-43.82-28.77-58.23-46.96c-2.49-3.14-8.36-12.35-9.39-16.9
				c-5.01-22.05,9.68-44.85-5.64-61.979c-2.29-2.58-8.53-2.45-13.14-5.64c-15.4-10.64-18.18-29.04-39.45-30.05
				c-8.64,16.39-19.07,38.93-18.78,58.23c-20.65-0.24-15.36,23.12-26.3,28.17c-14.89-29.35-35.7-62.87-41.32-107.06
				c3.68,2.83,7.67,4.79,11.91,6.09c22.93,7.01,53.17-5.39,82-4.21c9.63-5.4,13.82-16.25,18.79-26.3
				c5.04,13.74,15.08,22.48,26.29,30.05c13.02-6.52,25.98-5.85,33.81,5.64c4.7-1.56,7.38-5.15,13.15-5.64
				c-2.43-14.99,14.86-37.38,1.88-39.44c6.01-14.24,26.92-19.9,39.44-16.91c10.8-12.39,4.6-37.38-7.51-43.2
				c0.98-5.9,3.29-10.48,5.63-15.02c20.37-3.7,44.54-8.4,45.08-26.3c6.65-0.86,10.85-4.18,18.79-3.76c0.3-5.8-4.44-10.61,0-15.02
				c25.74-4.33,44.54,14.21,61.98,24.41c-2.62,20.81,21.58,18.55,31.93,30.06c12.48,13.86,9.34,42.21,43.2,33.81
				c3.96,3.55,5.8,9.23,7.51,15.02c13.011,9.1,35.8,5.08,54.48,7.52c9.85,1.28,15.49,6.59,24.41,5.63
				C599.96,308.18,604.13,293.59,615.05,285.57z"/>
			<path style="fill:none;stroke:#231F20;stroke-width:5.6456;" d="M179.28,385.12c8.24,14.3,17.69,27.39,26.3,41.33
				c-15.6,4.689-26.37-9.31-37.57-15.03C170.26,401.14,177.04,395.4,179.28,385.12z"/>
			<path style="fill:none;stroke:#231F20;stroke-width:5.6456;" d="M158.62,411.42c-2.78-0.98-4.74-2.78-7.51-3.76
				c-0.9-5.91,2.67-7.34,3.75-11.27C160.7,396.81,158.04,405.74,158.62,411.42z"/>
			<path style="fill:none;stroke:#231F20;stroke-width:5.6456;" d="M235.63,572.95c5.66,2.479,11.59,4.689,13.15,11.27
				C243.67,587.49,237,579.34,235.63,572.95z"/>
			<path style="fill:none;stroke:#231F20;stroke-width:5.6456;" d="M423.46,670.62c-16.18,3.78-39.73,6.49-48.84-5.63
				C379.41,651.41,419.61,659.1,423.46,670.62z"/>
			<path style="fill:none;stroke:#231F20;stroke-width:5.6456;" d="M442.89,693.19c-22.62,0.439-54.83,5.609-68.27-9.421
				C399.97,677.83,417.42,692.87,442.89,693.19z"/>
			<path style="fill:none;stroke:#231F20;stroke-width:5.6456;" d="M442.89,693.19c1.021,0.02,2.061,0.01,3.11-0.03
				C444.99,693.16,443.95,693.17,442.89,693.19z"/>
			<path style="fill:none;stroke:#231F20;stroke-width:5.6456;" d="M355.84,702.56c-0.44,6.5-16.27,11-18.78,3.75
				C336.56,698.57,351.61,699.7,355.84,702.56z"/>
			<path style="fill:none;stroke:#231F20;stroke-width:5.6456;" d="M496.71,747.63c-6.59,4.021-19.13-2.09-26.29-3.75
				C478.91,737.97,487.12,748.41,496.71,747.63z"/>
			<line style="fill:none;stroke:#231F20;stroke-width:7;" x1="506.1" y1="713.83" x2="544.25" y2="670.25"/>
			<path style="fill:none;stroke:#231F20;stroke-width:7;" d="M82.25,354.25c0-0.2,0-0.4,0-0.6c0.1-30.67,8.11-55.4,18-55.4"/>
			<line style="fill:none;stroke:#231F20;stroke-width:7;" x1="615.05" y1="285.57" x2="698.25" y2="266.25"/>
			<line style="fill:none;stroke:#231F20;stroke-width:7;" x1="359.6" y1="193.54" x2="320.25" y2="140.25"/>
		</g>
	</g>
</g>
<rect x="0.25" y="0.25" style="fill:none;" width="850.394" height="850.394"/>
</svg>
