<svg xmlns="http://www.w3.org/2000/svg" width="850.89" height="850.89" viewBox="0 0 850.89 850.89" overflow="visible"><path d="M174.79 608.91c-.36 1.67-.4 3.53-.2 5.56l-1.21.09c-5.82-16.109-21.3-44.06-8.47-67.75-7.2-9.27-15.92-17.02-26.81-22.59 10.17-33.609-27.99-52.569-11.3-88.92 5.06 3.311 13.52-.02 18.35-1.41 2.92-5.25-2.02-3.689-1.41-9.88 4.79-.63 7.16-3.67 10.67-5.57 1.38-.74 2.92-1.31 4.86-1.49 2.04-15.88 13.9-21.94 19.01-34.75.01 0 .01-.01.01-.02.68-1.26 1.14-2.6 1.3-4.04.39-1.54.68-3.18.85-4.94 10.87-6.91 21.29-13.92 36.7-16.94 11.71-2.3 23.19-4.72 33.87-8.47 12.12 15.69 27.54 10 43.69 6.33h.02c5.59-.83 11.3-1.69 17.05-2.1 9.99.39 16.26 6.71 26.75 4.24 7.46-12.47 30.67-8.53 40.94-1.41-.68 8.2 2.84 12.21 7.05 15.52 8.5.03 9.05-7.89 12.71-12.7 1.35 18.45 19.82 30.07 35.28 18.35 5.68 2.21 11.55 4.24 17.64 6.04 1.45 1.3 2.83 2.67 4.2 4.06 3.61 11.98 18.061 16.84 33.21 12.48 1.681-4.44 4.771-7.47 5.65-12.7-5.86-9.67-16.04-15.02-16.94-29.64 6.13-2.92 15.58.38 19.76-1.41 3.73-1.92 3.011-8.29 5.65-11.3 11.28 12.22 18.53-7.38 26.811-11.29 2.699 16.6 21.819 16.77 28.229 29.64 30.05-5.24 47.68-30.42 69.17-39.52.12 13.4-3.01 26.47-12.58 26.85-.04-.01-.08-.02-.13-.03v.04c-.46.02-.93 0-1.41-.04-2.79 18.94-12.31 40.48 5.65 52.23-2.21 23.67 19.81 29.98 16.939 53.629-1.51 12.37-14.77 22.62-15.529 35.29-.261 4.301 1.54 7.631 3.67 11.29 2.13 5.931 5.24 12.29 7.21 19.341v.02c3.53 18.9-.79 36.9-16.53 44.16-2.61-2.101-2.11-7.3-7.05-7.061-26.89-.75-24.771 34.16-55.05 25.4-2.62 3.97-3.101 10.09-8.471 11.3-6.81-2.609-17.859-.96-26.819-1.42 7.01 9.24-.101 17.83 2.819 29.65-19.159 2.22-22.569-11.3-40.93-9.88-1.86 4.72-2.61 10.56-7.06 12.699-5.891-2.939-13.82-1.109-14.11 5.641 8.49 5.17 9.77 19.13 5.65 29.649 6.26 10.75 19.88 19.811 29.64 22.58 1.96 1.8.86 6.66 2.82 8.471-12.221 1.909-.431 12.149-1.41 19.72-.07 0-.141 0-.21-.01-16.59-3.811-29.16-11.66-39.08-22.16-.08-.12-.15-.25-.23-.37-.029.01-.06.01-.09.02-.45-.47-.89-.949-1.32-1.439-9.779 3.689-21.659 11.18-32.47 5.649-6.22 20.62-29.75-5.119-38.11 5.65-1.74 9.27 4.2 10.85 4.24 18.35-6.57 6.601-15.65 10.7-19.76 19.761-10.87.979-18.35-1.42-28.23-1.42-9.33 24.76-19.63.27-35.29-2.82-7.09-1.4-12.47.38-17.74.95-2.86-.63-5.87-1.12-9.16-1.011-.89-.35-1.8-.8-2.74-1.35-1.18.86-2.49 1.68-3.9 2.46-2.57.811-4.91 1.96-7.13 3.12-.01 0-.02.01-.02.01-9.01 3.021-19.24 3.17-24.38-3.78-1.19-1.609-2.11-3.609-2.68-6.05.76-8.17 9.25-8.62 15.52-11.29-1.79-1.819-1.16-3.22.11-4.66 1.85-2.09 5.06-4.289 4.13-8.039-5.27-11.66-8.2-25.671-22.58-28.23-7.36 9.22-8.28 24.9-21.31 28.44-1.28.189-2.5.43-3.74.649-2.88.25-6.25 0-10.24-.859-5.74-20.95 1.3-48.511-9.88-66.341-1.46-.77-2.72-.18-3.78.48-.53-.86-1-1.92-1.43-3.12 1.27-2.03 2.2-4.56-.44-5.83-.38.49-.67.94-.87 1.38-1.19-4.76-2.11-10.25-3.36-14.08-.14.69-.27 1.41-.4 2.17-.939-3.529-2.089-6.809-3.839-9.229z" fill="#fff5b4"/><path fill="#394ea1" d="M798.45 179.79v45.41H555.16l-.42-45.41zM798.45 81.35v27.09H554.08l-.39-42.68h244.76z"/><path d="M641.81 136.3c1.12 1.82-1.26 2.71-1.26 2.54-1.319 4.62 5.01 12.96-1.26 14.67.33 1.45-.23 2-1.68 1.68.67 2.62-2.141 1.77-1.261 4.61h-2.1v3.36h-2.51v3.78h79.75v-3.78c-2.76.81-2.76-1.16-2.521-3.36-2.81.16-2.68-2.63-3.359-4.61-1.44.32-2.011-.23-1.681-1.68-6.01-1.83-.09-9.73-1.26-14.69-2.21 1.54-.52-1.91-1.68-2.52-.101.74-.721.96-1.681.84v-2.52c-1.35-.52-.31 1.36-1.67.84-.3-1.05 1.841-1.72.42-2.52-.859 1.59-1.21-1.44-.42-1.68-1.05-.55-1.319 1.66-1.68.42.37-.74 1.01-1.22 1.26-2.1-2.739 1.39-.319-3.25-2.939-3.78-1.29 1.41-.48 4.63-2.101 3.78-.26 1.14 1.9 1.97.84 2.52-.56.06-1.27-1.7-1.68-.42 1.33 1.79-1.51 1.35 0 3.78-.859-.12-.82-1.13-1.68-1.26-.271 1.69.55 4.47-.42 5.46-1.59.62-.08-1.88-1.681-1.26-.109 2.41-6.109 1.15-7.55.84v-3.36c-1.279-.12-1.64 1.35-2.52.42.24-.88 1.04-1.2.84-2.52-.63-.07-1.55.15-1.68-.42-.11-1.78 0-3.41 0-5.04-.101.46-.69 1.01-.841.42-.069-1.39 1.11-4.39-.42-2.52-.59-1.2 1.15-2.13 0-2.51-.09.47-.47.65-.84.84.46-2.61-1.17-2.2-.42-4.2-1.99.03-1.17-2.75-2.939-2.94.029 1.7-.86 2.51-2.101 2.94.43 1.68-.38 2.44-.84 4.2-.08-.47-.46-.65-.84-.84.939 3.28-1.04 1.1 0 5.45-.601-.09-.7-.69-1.26-.84.029 1.38 1.199 1.61.84 3.36-1.59-1.02-.3 1.02-.42 2.1h-1.67c-.36 1.59 1.39 1.97.42 2.94-.801-.18-1.061-.9-2.101-.84v3.78c-2.3-.65-7.29 1.41-7.56-1.26-1.53-.41-.19 2.05-2.101 1.26-.27-1.69.551-4.47-.42-5.46-.12.37-1.14 1.84-1.26.84.22-.62.62-1.06.84-1.68-1.8.64-1.37-1.61-.84-2.1-1.29-.31-.8 1.16-2.09.84 1.95-2.58.16-3.2-1.26-6.3-.391 1.13-2.07 2.35-.84 3.78-.561 1.04-1.271-.75-1.681.42.49.63 1.21 1.03 1.26 2.1-.56.06-1.27-1.7-1.68-.42.62.08.38 1.02.42 1.68-.58.02-.93-.2-1.26-.42-.67 1.42 1.78 1.79.42 2.52-.8-.05-.29-1.39-1.26-1.26-.25.87.52 2.76-.42 2.94-1.142.3-.842-.83-1.672-.84zm156.64-27.86v71.35H554.74l-.66-71.35h244.37z" fill="#ed1e29"/><path d="M640.55 138.84c0 .17 2.38-.72 1.26-2.54.83.01.53 1.14 1.681.84.939-.18.17-2.07.42-2.94.97-.13.46 1.21 1.26 1.26 1.36-.73-1.09-1.1-.42-2.52.33.22.68.44 1.26.42-.04-.66.2-1.6-.42-1.68.41-1.28 1.12.48 1.68.42-.05-1.07-.77-1.47-1.26-2.1.41-1.17 1.12.62 1.681-.42-1.23-1.43.449-2.65.84-3.78 1.42 3.1 3.21 3.72 1.26 6.3 1.29.32.8-1.15 2.09-.84-.53.49-.96 2.74.84 2.1-.22.62-.62 1.06-.84 1.68.12 1 1.14-.47 1.26-.84.971.99.15 3.77.42 5.46 1.91.79.57-1.67 2.101-1.26.27 2.67 5.26.61 7.56 1.26v-3.78c1.04-.06 1.3.66 2.101.84.97-.97-.78-1.35-.42-2.94h1.67c.12-1.08-1.17-3.12.42-2.1.359-1.75-.811-1.98-.84-3.36.56.15.659.75 1.26.84-1.04-4.35.939-2.17 0-5.45.38.19.76.37.84.84.46-1.76 1.27-2.52.84-4.2 1.24-.43 2.13-1.24 2.101-2.94 1.77.19.949 2.97 2.939 2.94-.75 2 .88 1.59.42 4.2.37-.19.75-.37.84-.84 1.15.38-.59 1.31 0 2.51 1.53-1.87.351 1.13.42 2.52.15.59.74.04.841-.42 0 1.63-.11 3.26 0 5.04.13.57 1.05.35 1.68.42.2 1.32-.6 1.64-.84 2.52.88.93 1.24-.54 2.52-.42v3.36c1.44.31 7.44 1.57 7.55-.84 1.601-.62.091 1.88 1.681 1.26.97-.99.149-3.77.42-5.46.859.13.82 1.14 1.68 1.26-1.51-2.43 1.33-1.99 0-3.78.41-1.28 1.12.48 1.68.42 1.061-.55-1.1-1.38-.84-2.52 1.62.85.811-2.37 2.101-3.78 2.62.53.2 5.17 2.939 3.78-.25.88-.89 1.36-1.26 2.1.36 1.24.63-.97 1.68-.42-.79.24-.439 3.27.42 1.68 1.421.8-.72 1.47-.42 2.52 1.36.52.32-1.36 1.67-.84v2.52c.96.12 1.58-.1 1.681-.84 1.16.61-.53 4.06 1.68 2.52 1.17 4.96-4.75 12.86 1.26 14.69-.33 1.45.24 2 1.681 1.68.68 1.98.55 4.77 3.359 4.61-.239 2.2-.239 4.17 2.521 3.36v3.78h-79.75v-3.78h2.51v-3.36h2.1c-.88-2.84 1.931-1.99 1.261-4.61 1.449.32 2.01-.23 1.68-1.68 6.261-1.71-.069-10.05 1.251-14.67z" fill="#fff"/><path d="M629.29 511.52c1.01 3.15 1.81 6.32 2.41 9.461-1.97-7.051-5.08-13.41-7.21-19.341 1.66 2.87 3.54 5.95 4.8 9.88zM615.3 349.23c-.04.01-.09.01-.13.01v-.04c.05.01.09.02.13.03z"/><path d="M620.82 490.35c.76-12.67 14.02-22.92 15.529-35.29 2.87-23.649-19.149-29.959-16.939-53.629-17.96-11.75-8.44-33.29-5.65-52.23.48.04.95.06 1.41.04-2.03 18.12-13.33 40.54 5.65 50.77-2.96 24.51 19.01 30.181 16.939 53.641-1.1 12.43-14.3 22.55-15.529 35.29-.391 4.06.659 8.26 2.26 12.699-2.13-3.661-3.93-6.991-3.67-11.291z"/><path d="M578.47 734.85c2.311-.26 4.09.771 3.351 4.46-1.17-1.22-2.25-1.529-3.351-1.42v-3.04z" fill="#fff"/><path d="M599.65 750.06c23.409-5.31 43.96-31.59 73.39-31.05 2.52-5.49 1.82-14.18 7.06-16.939v1.41c-4.77 3.689-2.369 14.569-8.47 16.939-28.649.09-49.149 26.67-73.39 31.05-3.7-10-15.66-5.97-22.16-12.95.84-.3 1.62-.56 2.39-.63v2.29c10.47 2.14 15.28 2.29 21.18 9.88z"/><path d="M578.47 734.85v3.04c-.77.07-1.55.33-2.39.63a11.94 11.94 0 0 1-1.65-2.26c1.27-.72 2.74-1.27 4.04-1.41z"/><path d="M578.47 728.89v5.96c-1.3.141-2.77.69-4.04 1.41-.069-.1-.13-.21-.189-.319-.01.149-.01.3-.021.439-.52.3-1 .63-1.42.96-.069-5.25.021-10.33 2.851-12.689 3.79 4.369-3.811 5.479 0 8.47-.071-2.431 1.089-3.621 2.819-4.231z"/><path d="M574.43 736.26c.49.87 1.051 1.61 1.65 2.26-.67.221-1.38.471-2.15.631.15-.87.24-1.801.29-2.771.07-.05.14-.08.21-.12z" fill="#fff"/><path d="M574.22 736.38c-.05.97-.14 1.9-.29 2.771-.35.08-.72.14-1.109.17-.011-.66-.021-1.32-.021-1.98.42-.331.9-.661 1.42-.961z"/><path d="M572.82 739.32c-.46.04-.95.05-1.46 0a.508.508 0 0 1-.08-.07c.149-.58.72-1.26 1.52-1.91 0 .66.01 1.32.02 1.98z" fill="#fff"/><path d="M571.28 739.25c.029.03.05.05.08.07-.03 0-.07-.011-.101-.011.001-.019.011-.039.021-.059z"/><path d="M543.98 56.74c3.189 0 6.18-.68 8.68-1.86v281.64h-16.58l-.47-281.49c2.44 1.09 5.3 1.71 8.37 1.71z" fill="#c8c8c8"/><path d="M543.98 33.34c8.859 0 16.06 5.24 16.06 11.7 0 4.13-2.94 7.76-7.38 9.84-2.5 1.18-5.49 1.86-8.68 1.86-3.07 0-5.931-.62-8.37-1.71-4.61-2.05-7.69-5.76-7.69-9.99 0-6.46 7.19-11.7 16.06-11.7z" fill="#c8c8c8"/><path d="M520 766.45c4.07 1.46 7.28 3.78 7.54 9.05-3.02-2.51-7.01-4.05-7.54-9.05z" fill="#fff"/><path d="M523.43 762.76c11.95 3.58 27.08 3.971 32.46 14.12-4.85 7.4-12.68 19.28-22.58 16.93 10.98-2.18 17.61-8.729 21.171-18.34-7.471-9.01-32.721-7.739-35.29-16.939 5.97 3 20.5 1.109 35.29 2.819.64-8.159-4.021-11.04-5.65-16.939-5.58.53-10.25 1.99-14.11 4.24 4.87-5.07 12.96-12.23 17.59-16.391.851-.77 1.591-1.43 2.171-1.96-.521 5.12-4.561 6.73-2.82 14.11 2.96 1.74 5.5 3.91 8.47 5.649 3.9-9.02-3.8-33.72-9.89-19.76-.12-5.28-1.58-4.03 0-8.47 7.16 2.26 14.01 4.81 19.77 8.47-1.58 3.48-1.3 6.931 1.271 8.95a.131.131 0 0 0-.021.06c.03 0 .07.011.101.011.43.33.92.609 1.47.859 0-.29-.01-.569-.01-.859.39-.03.76-.09 1.109-.17-.38 2.21-1.12 4.06-2.51 5.26-3.45-8.3-3.28-19.91-14.12-16.94 5.851 5.61 6.59 16.2 2.83 24-3.66-1.989-6.52-4.779-9.89-7.06 1.45 5.62 8.42 11.64 4.24 18.35-11.432.2-23.732-3.12-31.052 0zM495.2 711.91v.04c-.07-.021-.141-.03-.21-.05.07.01.14.01.21.01z"/><path d="M492.37 769.82c.5 4.68 4.229 6.12 7.06 8.47-.24-4.93-3.25-7.11-7.06-8.47zm40.94 49.4c-10.76-21.529-38.22-37.21-45.17-53.64 12.03 5.39 17.12 17.7 25.41 26.82 12.391 1.6 20.7 23.13 31.05 9.88-1.63-3.55-5.909-4.44-8.47-7.05 5.601.52 8.14 4.09 9.88 8.46-3 2.18-6.29 4.069-9.88 5.649-5.64-4.26-13.479-13.78-19.76-12.7 7.55 6.091 14.49 12.801 18.35 22.58l-1.41.001zM498.02 354.85c-4.18 1.79-13.63-1.51-19.76 1.41.9 14.62 11.08 19.97 16.94 29.64-.88 5.23-3.97 8.26-5.65 12.7-15.149 4.36-29.6-.5-33.21-12.48 8.03 8.18 15.38 16.79 33.21 11.07 11.931-17.74-14.34-22.13-12.7-42.34 6.471-.58 13.891-2.92 19.761 0 3.58-2.54 3.43-8.81 5.64-12.71 4.71 2.76 7.37 5.36 14.12 2.83 5.41-4.01 6.56-12.27 14.11-14.12 3.26 16.04 21.84 16.74 28.229 29.64 30.26-6.44 45.9-27.5 69.17-40.93 1.851-14.09-2.49-21.98-8.47-28.23h1.41c13.239 11.7 10.22 43.79 1.41 57.87-4.29.98-2.74.99-6.931.03 9.57-.38 12.7-13.45 12.58-26.85-21.49 9.1-39.12 34.28-69.17 39.52-6.41-12.87-25.53-13.04-28.229-29.64-8.28 3.91-15.53 23.51-26.811 11.29-2.639 3.01-1.919 9.38-5.649 11.3zM455.91 689.74c9.92 10.5 22.49 18.35 39.08 22.16-15.01-.7-31.55-10.15-39.08-22.16zM476.85 805.11c-1.88-8.48-8.52-12.19-15.529-15.53 4.569 5.79 8.929 11.77 15.529 15.53zm-16.94-16.94c17.02 4.62 20.12 23.16 33.88 31.05h-2.83c-2.7-3.89-5.99-7.18-9.88-9.88.55 4.63 4.13 6.22 5.65 9.88h-1.41c-5.3-12.68-22.68-20.48-25.41-31.05zM498.02 692.19c1.061 5.92-5.39-1.921-5.649 4.229-.47 7.07 5.38 7.8 4.24 15.53-.471 0-.94-.01-1.41-.04.979-7.57-10.811-17.811 1.41-19.72-1.96-1.811-.86-6.671-2.82-8.471-9.76-2.77-23.38-11.83-29.64-22.58 4.119-10.52 2.84-24.479-5.65-29.649.29-6.75 8.22-8.58 14.11-5.641 4.449-2.14 5.199-7.979 7.06-12.699 18.36-1.42 21.771 12.1 40.93 9.88-2.92-11.82 4.19-20.41-2.819-29.65 8.96.46 20.01-1.189 26.819 1.42 5.37-1.21 5.851-7.33 8.471-11.3 30.279 8.76 28.16-26.15 55.05-25.4 4.939-.239 4.439 4.96 7.05 7.061 15.74-7.26 20.061-25.26 16.53-44.16 1.27 4.53 2.06 9.35 1.819 14.52-.64 13.891-3.119 24.08-18.35 31.051-1.64-2.59-3.689-4.78-5.64-7.061-27.94-1.92-25.4 33.7-55.05 25.41-3.421 3.17-3.891 9.28-8.471 11.29-6.97-1.97-16.5-1.38-25.41-1.41 3.69 6.771-.59 18.37 1.42 31.05-17.26-.149-23.89-10.939-40.939-11.29-1.98 4.61-4.08 9.091-7.05 12.7-5.261-1.05-12.75-3.26-14.12 2.82 6.77 6.17 10.91 19.24 5.649 29.64 5.19 12.141 18.98 20.29 29.641 22.59 1.019 3.21 1.259 7.21 2.819 9.88zM455.91 689.74l-.32-.351c.03-.01.061-.01.09-.02.08.121.15.251.23.371zM455.68 383.08c.141 1.06.37 2.07.66 3.04-1.37-1.39-2.75-2.76-4.2-4.06 1.17.35 2.35.69 3.54 1.02zM437.33 291.33h1.41c-2.08 10.69-7.061 18.13-7.98 27.7-.43-2.1-1.06-4.27-1.899-6.53 3.079-6.79 9.159-10.6 8.469-21.17zM430.76 319.05c.76 3.61.931 6.98.61 10.09-.78-3.71-.91-7.01-.61-10.09zM365.34 819.22c2.97-11.16 14.08-21.66 22.59-22.58-9.77 4.82-17.91 11.261-21.18 22.58h-1.41zM337.11 354.85c9.26-12.23 31.66-8.34 43.76-1.42-.87 7.94 1.84 12.28 5.64 15.53 7.87-.14 8.43-7.57 11.3-12.7 15.47-.56 31.85-9.98 33.56-27.12.399 1.87.96 3.85 1.72 5.95-5.92 12.89-19.06 18.57-32.46 23.99 1.9 17.03 19.53 26.62 33.87 15.53 7.74.16 13.06 3.39 17.64 7.45-6.09-1.8-11.96-3.83-17.64-6.04-15.46 11.72-33.93.1-35.28-18.35-3.66 4.81-4.21 12.73-12.71 12.7-4.21-3.31-7.73-7.32-7.05-15.52-10.27-7.12-33.48-11.06-40.94 1.41-10.49 2.47-16.76-3.85-26.75-4.24 8.45-.59 16.98-.18 25.34 2.83zM311.71 352.02h.06c-5.75.41-11.46 1.27-17.05 2.1 5.61-1.27 11.31-2.3 16.99-2.1z"/><path d="M355.46 767c10.39 1.47 10.2 17.5 24 11.29 6.47 6.7 11.95 14.4 12.7 26.82-5.58-7.46-3.64-19.101-12.7-25.41-12.72 5.5-14.61-7.82-22.59-11.29-7.15-.101-9.12 4.99-15.52 5.64-3.87-21.06-20.55-29.319-35.29-39.52-6.85 2.91-12.65.92-19.15-.46 5.27-.57 10.65-2.351 17.74-.95 15.66 3.09 25.96 27.58 35.29 2.82 9.88 0 17.36 2.399 28.23 1.42 4.11-9.061 13.19-13.16 19.76-19.761-.04-7.5-5.98-9.08-4.24-18.35 8.36-10.77 31.89 14.97 38.11-5.65 10.811 5.53 22.69-1.96 32.47-5.649.431.49.87.97 1.32 1.439-10.75 1.96-21.649 12.221-32.38 5.62-3.83 1.811-4.06 7.23-8.47 8.471-14.04 2.96-20.36-11.11-29.64-4.23-1.74 9.27 4.2 10.85 4.24 18.35-5.64 8-17.25 10.04-19.76 21.17-10 .591-18.3-.52-26.82-1.409-5.68 2.79-6.29 10.64-14.12 11.29 5.19 7.52 12 13.409 14.12 23.989 4.44-1.68 7.47-4.76 12.7-5.64zM290.64 768.32c-.38 3.09-1.34 6.26-3.04 9.279.98-3.129 2.13-6.079 3.04-9.279zM286.91 734.07c-3 .319-5.95.25-9.16-1.011 3.29-.109 6.3.381 9.16 1.011z"/><path d="M286.3 779.7c.48-.69.91-1.391 1.3-2.101-.49 1.58-.95 3.2-1.3 4.92-5.82-8.579-10.49-18.31-17.96-25.229 9.45 4 11.68 15.24 17.96 22.41z"/><path d="M266.54 755.71c5.09-8.729 19.55-13.45 25.41-2.83.71 6.29-.08 11.09-1.31 15.44 1.97-16.13-12-30.23-22.62-11.33-.48-.44-.97-.87-1.48-1.28zM277.75 733.06c-.44 0-.88.021-1.33.061-1.89.149-3.65.53-5.31 1.05 1.41-.78 2.72-1.6 3.9-2.46.94.549 1.85.999 2.74 1.349zM251.04 347.75c12.09 10.88 27.34 8.8 43.66 6.37-16.15 3.67-31.57 9.36-43.69-6.33l.03-.04zM268.34 757.29c-.13-.06-.26-.12-.39-.17.02-.04.05-.09.07-.13.11.09.22.19.32.3zM271.11 734.17a44.561 44.561 0 0 1-7.13 3.12c2.22-1.16 4.56-2.31 7.13-3.12zM239.58 733.52c5.14 6.95 15.37 6.801 24.38 3.78-4.95 2.58-9.31 5.22-14.36 4.29-4.64-.85-7.12-4.33-10.03-8.06l.01-.01z"/><path d="M252.53 711.52c-1.27 1.44-1.9 2.841-.11 4.66-6.27 2.67-14.76 3.12-15.52 11.29.57 2.44 1.49 4.44 2.68 6.05l-.01.011c-1.22-1.561-2.52-3.16-4.08-4.641 1.01-10.46 11.5-11.43 16.96-17.439l.08.069z"/><path d="M256.66 703.48c.93 3.75-2.28 5.949-4.13 8.039l-.08-.069c1.26-1.391 2.25-3.05 2.8-5.15-3.21-13.26-7.47-25.47-19.76-29.64-9.79 4.33-6.21 22.02-15.53 26.82-2.74-.28-5.04-.11-7.19.21 13.03-3.54 13.95-19.221 21.31-28.44 14.38 2.56 17.31 16.57 22.58 28.23zM209.03 704.34c1.24-.22 2.46-.46 3.74-.649-1.15.319-2.39.539-3.74.649zM188.91 637.14c11.18 17.83 4.14 45.391 9.88 66.341 3.99.859 7.36 1.109 10.24.859-3.04.57-6.14 1.061-10.24.55-8.8-18.229.62-47.1-9.88-64.93-.88-1.02-1.75-1.24-2.61-1.14a7.26 7.26 0 0 1-.93-.82c-.08-.12-.16-.25-.24-.38 1.06-.66 2.32-1.25 3.78-.48z"/><path d="M186.06 638.86c.08-.021.16-.03.24-.04.76.569 1.62.96 2.61 1.14-1.1.17-2.04-.25-2.85-1.1zM183.26 628.67c2.64 1.271 1.71 3.8.44 5.83-.48-1.34-.91-2.85-1.31-4.45.2-.44.49-.89.87-1.38zM183.7 634.5c.43 1.2.9 2.26 1.43 3.12-.02.01-.05.02-.07.04-.64-.74-1.19-1.63-1.69-2.641.12-.169.23-.339.33-.519zM182.7 633.51c.15.26.34.53.56.811-.09-.04-.18-.08-.27-.13-.11-.221-.2-.451-.29-.681zM182.7 633.51c-.39-.63-.61-1.21-.65-1.79.21.62.42 1.22.65 1.79z"/><path d="M182.39 630.05c-.27.58-.39 1.12-.34 1.67-1.33-4.05-2.2-9.02-3.42-13.58.13-.76.26-1.479.4-2.17 1.25 3.83 2.17 9.32 3.36 14.08zM179.03 373.2c10.75-7.03 20.91-15.25 36.7-18.35 11.65-2.29 23.57-3.52 33.87-8.47.47.48.95.94 1.44 1.37l-.03.04c-10.68 3.75-22.16 6.17-33.87 8.47-15.41 3.02-25.83 10.03-36.7 16.94-.17 1.76-.46 3.4-.85 4.94.18-1.52.02-3.15-.56-4.94zM178.29 382.18c.5-1.28.94-2.62 1.3-4.04-.16 1.44-.62 2.78-1.3 4.04z"/><path d="M181.85 637.14c.69 2.38 1.76 1.42 3.21.521.1.12.21.229.31.34.22.32.45.61.69.86-1.86.319-3.7 1.92-5.62-.311-2.42-9.66-5.26-17.729-5.85-24.08-.2-2.029-.16-3.89.2-5.56 1.75 2.42 2.9 5.7 3.84 9.229-.98 5.94-1.19 13.48 4.36 16.051.11.279.24.56.38.829-.6.901-1.22 1.671-1.52 2.121zM178.28 382.2c-5.11 12.81-16.97 18.87-19.01 34.75-1.94.18-3.48.75-4.86 1.49l-.13-.26c1.39-.73 2.63-1.58 3.58-2.64 4.24-4.75 2.28-11.17 5.64-16.94 3.54-6.06 11.56-10.38 14.78-16.4zM140.92 615.97c8.02 1.181 7.9 12.24 5.64 19.761-8.99-.211-7.57-12.581-5.64-19.761zm4.23 18.35c2.53-5.48 1.89-14.601-2.82-16.94-1.76 4.72-3.3 16.01 2.82 16.94z"/><path d="M130.74 576.16c-3.9-1.09-7.83-2.13-9.58-5.36-2.96-2.97-1.69-5.8-.08-8.28 5.19 2.57 7 8.53 9.66 13.64z" fill="#fff"/><path d="M143.74 570.8c9.15 1.2 10.68 10.03 16.94 14.12-5.52-11.08-.87-26.59 2.82-36.7-5.72-10.75-15.3-17.64-26.82-22.59 9.65-35.729-26.04-51.52-12.7-91.74 6.9 2.5 12.15.351 19.76 0 2.92-5.25-2.02-3.689-1.41-9.88 2.97-2.62 8.04-3.77 11.95-5.83l.13.26c-3.51 1.9-5.88 4.94-10.67 5.57-.61 6.19 4.33 4.63 1.41 9.88-4.83 1.391-13.29 4.721-18.35 1.41-16.69 36.351 21.47 55.311 11.3 88.92 10.89 5.57 19.61 13.32 26.81 22.59-12.83 23.69 2.65 51.641 8.47 67.75-10.27-12.779-11.75-34.359-26.82-42.35-5.39-.22-4.58 5.771-7.05 8.47-2.7-.79-5.24-1.72-7.75-2.699-.36-.591-.69-1.2-1.02-1.82 2.73.76 5.44 1.54 7.36 3.109 3.16-1.54 2.48-6.93 5.64-8.47zM121.16 555.28c4.39 1.63 1.9 4.17-.08 7.239-.53-.27-1.1-.489-1.71-.68.42-2.269 1.11-4.309 1.79-6.559z"/><path d="M121.16 570.8c1.75 3.23 5.68 4.271 9.58 5.36.33.62.66 1.229 1.02 1.82-3.94-1.511-7.79-3.12-12.01-4.351-1.09-5.12-.99-8.68-.38-11.79.61.19 1.18.41 1.71.68-1.61 2.481-2.88 5.311.08 8.281z"/><path d="M120.45 579.49c-2.11-3.44-5.02-12.59-3.56-16.96.53-.2.81-.601.9-1.061a9.6 9.6 0 0 1 1.58.37c-.61 3.11-.71 6.67.38 11.79 4.22 1.23 8.07 2.84 12.01 4.351.67 1.09 1.4 2.119 2.26 3.02-5.83.81-7.36-2.69-13.57-1.51z" fill="#fff"/><path d="M117.79 561.47c-.09.46-.37.86-.9 1.061.14-.42.32-.8.55-1.13.12.019.23.039.35.069zM126.45 610.21c-4.69 3.31-11.56-.96-16.94-1.41-.65-6.41-2.54-11.58-2.82-18.35 13.9-.73 13.47 12.87 19.76 19.76zm-14.12-1.41c5.82-1.109 7.25 2.16 12.71 1.41-5.5-5.79-5.71-16.88-15.53-18.35-2.42 3.43.66 13.4 2.82 16.94z"/><path d="M117.44 561.4c-.23.33-.41.71-.55 1.13-.59.239-1.5.229-2.79-.2-6.19-2.08-21.27-14.86-21.17-26.811-1.26 1.091-3.19 1.511-5.65 1.41v-1.41c3.99 1.16 3.66-1.989 7.06-1.42.56 14.5 10.21 19.91 18.35 26.82 2.79-3.89 5.42-1.22 5.1.55a4.806 4.806 0 0 0-.35-.069z"/><g fill="none" stroke="#231f20"><path stroke-width="7" d="M553.69 65.76h244.76V225.2H555.16M535.61 55.03c-4.61-2.05-7.69-5.76-7.69-9.99 0-6.46 7.19-11.7 16.061-11.7 8.859 0 16.06 5.24 16.06 11.7 0 4.13-2.94 7.76-7.38 9.84-2.5 1.18-5.49 1.86-8.68 1.86-3.071 0-5.931-.62-8.371-1.71z"/><path stroke-width="7" d="M535.61 54.71v.32l.47 281.49M552.66 54.12v282.4"/><path stroke-width="5.876" d="M797.01 82.16l1.44-.81.84-.48"/><path stroke-width="7" d="M553.24 108.44h245.97M552.4 179.79h246.81"/><path d="M640.55 138.83v-.01M640.55 138.84c0 .17 2.38-.72 1.26-2.54.83.01.53 1.14 1.681.84.939-.18.17-2.07.42-2.94.97-.13.46 1.21 1.26 1.26 1.36-.73-1.09-1.1-.42-2.52.33.22.68.44 1.26.42-.04-.66.2-1.6-.42-1.68.41-1.28 1.12.48 1.68.42-.05-1.07-.77-1.47-1.26-2.1.41-1.17 1.12.62 1.681-.42-1.23-1.43.449-2.65.84-3.78 1.42 3.1 3.21 3.72 1.26 6.3 1.29.32.8-1.15 2.09-.84-.53.49-.96 2.74.84 2.1-.22.62-.62 1.06-.84 1.68.12 1 1.14-.47 1.26-.84.971.99.15 3.77.42 5.46 1.91.79.57-1.67 2.101-1.26.27 2.67 5.26.61 7.56 1.26v-3.78c1.04-.06 1.3.66 2.101.84.97-.97-.78-1.35-.42-2.94h1.67c.12-1.08-1.17-3.12.42-2.1.359-1.75-.811-1.98-.84-3.36.56.15.659.75 1.26.84-1.04-4.35.939-2.17 0-5.45.38.19.76.37.84.84.46-1.76 1.27-2.52.84-4.2 1.24-.43 2.13-1.24 2.101-2.94 1.77.19.949 2.97 2.939 2.94-.75 2 .88 1.59.42 4.2.37-.19.75-.37.84-.84 1.15.38-.59 1.31 0 2.51 1.53-1.87.351 1.13.42 2.52.15.59.74.04.841-.42 0 1.63-.11 3.26 0 5.04.13.57 1.05.35 1.68.42.2 1.32-.6 1.64-.84 2.52.88.93 1.24-.54 2.52-.42v3.36c1.44.31 7.44 1.57 7.55-.84 1.601-.62.091 1.88 1.681 1.26.97-.99.149-3.77.42-5.46.859.13.82 1.14 1.68 1.26-1.51-2.43 1.33-1.99 0-3.78.41-1.28 1.12.48 1.68.42 1.061-.55-1.1-1.38-.84-2.52 1.62.85.811-2.37 2.101-3.78 2.62.53.2 5.17 2.939 3.78-.25.88-.89 1.36-1.26 2.1.36 1.24.63-.97 1.68-.42-.79.24-.439 3.27.42 1.68 1.421.8-.72 1.47-.42 2.52 1.36.52.32-1.36 1.67-.84v2.52c.96.12 1.58-.1 1.681-.84 1.16.61-.53 4.06 1.68 2.52 1.17 4.96-4.75 12.86 1.26 14.69-.33 1.45.24 2 1.681 1.68.68 1.98.55 4.77 3.359 4.61-.239 2.2-.239 4.17 2.521 3.36v3.78h-79.75v-3.78h2.51v-3.36h2.1c-.88-2.84 1.931-1.99 1.261-4.61 1.449.32 2.01-.23 1.68-1.68 6.261-1.71-.069-10.05 1.251-14.67zM640.55 138.84v-.01" stroke-width="2.099"/><path d="M121.08 562.52c5.19 2.57 7 8.53 9.66 13.641M117.79 561.47a9.6 9.6 0 0 1 1.58.37M131.76 577.98c.67 1.09 1.4 2.119 2.26 3.02-5.83.81-7.36-2.69-13.57-1.51-2.11-3.44-5.02-12.59-3.56-16.96M574.22 736.38c.07-.05.141-.08.21-.12M571.28 739.25c.149-.58.72-1.26 1.52-1.91M572.82 739.32c-.46.04-.95.05-1.46 0M576.08 738.52c-.67.221-1.38.471-2.15.631M578.47 734.85c2.311-.26 4.09.771 3.351 4.46-1.17-1.22-2.25-1.529-3.351-1.42M520 766.45c4.07 1.46 7.28 3.78 7.54 9.05-3.02-2.51-7.01-4.05-7.54-9.05z" stroke-width="7"/><path d="M294.72 354.12c5.59-.83 11.3-1.69 17.05-2.1 8.45-.59 16.98-.18 25.34 2.83 9.26-12.23 31.66-8.34 43.76-1.42-.87 7.94 1.84 12.28 5.64 15.53 7.87-.14 8.43-7.57 11.3-12.7 15.47-.56 31.85-9.98 33.56-27.12.32-3.11.149-6.48-.61-10.09M178.29 382.18c.68-1.26 1.14-2.6 1.3-4.04.18-1.52.02-3.15-.56-4.94 10.75-7.03 20.91-15.25 36.7-18.35 11.65-2.29 23.57-3.52 33.87-8.47.47.48.95.94 1.44 1.37 12.09 10.88 27.34 8.8 43.66 6.37" stroke-width="6.553"/><path d="M631.7 520.98a80.685 80.685 0 0 0-2.41-9.461c-1.26-3.93-3.14-7.01-4.8-9.88-2.13-3.659-3.931-6.989-3.67-11.29.76-12.67 14.02-22.92 15.529-35.29 2.87-23.649-19.149-29.959-16.939-53.629-17.96-11.75-8.44-33.29-5.65-52.23.48.04.95.06 1.41.04.04 0 .09 0 .13-.01 9.57-.38 12.7-13.45 12.58-26.85-21.49 9.1-39.12 34.28-69.17 39.52-6.41-12.87-25.53-13.04-28.229-29.64-8.28 3.91-15.53 23.51-26.811 11.29-2.64 3.01-1.92 9.38-5.65 11.3-4.18 1.79-13.63-1.51-19.76 1.41.9 14.62 11.08 19.97 16.94 29.64-.88 5.23-3.97 8.26-5.65 12.7-15.149 4.36-29.6-.5-33.21-12.48-.29-.97-.52-1.98-.66-3.04-1.189-.33-2.37-.67-3.54-1.02-6.09-1.8-11.96-3.83-17.64-6.04-15.46 11.72-33.93.1-35.28-18.35-3.66 4.81-4.21 12.73-12.71 12.7-4.21-3.31-7.73-7.32-7.05-15.52-10.27-7.12-33.48-11.06-40.94 1.41-10.49 2.47-16.76-3.85-26.75-4.24h-.06c-5.68-.2-11.38.83-17.01 2.1.01 0 .02 0 0 0-16.15 3.67-31.57 9.36-43.69-6.33-10.68 3.75-22.16 6.17-33.87 8.47-15.41 3.02-25.83 10.03-36.7 16.94-.17 1.76-.46 3.4-.85 4.94-.36 1.42-.8 2.76-1.31 4.06.01 0 .01-.01 0 0-5.11 12.81-16.97 18.87-19.01 34.75-1.94.18-3.48.75-4.86 1.49-3.51 1.9-5.88 4.94-10.67 5.57-.61 6.19 4.33 4.63 1.41 9.88-4.83 1.391-13.29 4.721-18.35 1.41-16.69 36.351 21.47 55.311 11.3 88.92 10.89 5.57 19.61 13.32 26.81 22.59-12.83 23.69 2.65 51.641 8.47 67.75-10.27-12.779-11.75-34.359-26.82-42.35-5.39-.22-4.58 5.771-7.05 8.47-2.7-.79-5.24-1.72-7.75-2.699-3.94-1.511-7.79-3.12-12.01-4.351-1.09-5.12-.99-8.68-.38-11.79.42-2.27 1.11-4.31 1.79-6.56 4.39 1.63 1.9 4.17-.08 7.239-1.61 2.48-2.88 5.311.08 8.28 1.75 3.23 5.68 4.271 9.58 5.36 2.73.76 5.44 1.54 7.36 3.109 3.16-1.539 2.48-6.93 5.64-8.47 9.15 1.2 10.68 10.03 16.94 14.12-5.52-11.08-.87-26.59 2.82-36.7-5.72-10.75-15.3-17.64-26.82-22.59 9.65-35.729-26.04-51.52-12.7-91.74 6.9 2.5 12.15.351 19.76 0 2.92-5.25-2.02-3.689-1.41-9.88 2.97-2.62 8.04-3.77 11.95-5.83 1.39-.73 2.63-1.58 3.58-2.64 4.24-4.75 2.28-11.17 5.64-16.94 3.54-6.06 11.56-10.38 14.78-16.4M263.98 737.29a44.65 44.65 0 0 0 7.13-3.12c1.41-.78 2.72-1.6 3.9-2.46.94.55 1.85 1 2.74 1.35 3.21 1.261 6.16 1.33 9.16 1.011 5.27-.57 10.65-2.351 17.74-.95 15.66 3.09 25.96 27.58 35.29 2.82 9.88 0 17.36 2.399 28.23 1.42 4.11-9.061 13.19-13.16 19.76-19.761-.04-7.5-5.98-9.08-4.24-18.35 8.36-10.77 31.89 14.97 38.11-5.65 10.811 5.53 22.69-1.96 32.47-5.649.431.49.87.97 1.32 1.439l.32.351c9.92 10.5 22.49 18.35 39.08 22.16.069.02.14.029.21.05v-.04c.979-7.57-10.811-17.811 1.41-19.72-1.96-1.811-.86-6.671-2.82-8.471-9.76-2.77-23.38-11.83-29.64-22.58 4.119-10.52 2.84-24.479-5.65-29.649.29-6.75 8.22-8.58 14.11-5.641 4.449-2.14 5.199-7.979 7.06-12.699 18.36-1.42 21.771 12.1 40.93 9.88-2.92-11.82 4.19-20.41-2.819-29.65 8.96.46 20.01-1.189 26.819 1.42 5.37-1.21 5.851-7.33 8.471-11.3 30.279 8.76 28.16-26.15 55.05-25.4 4.939-.239 4.439 4.96 7.05 7.061 15.74-7.26 20.061-25.26 16.53-44.16" stroke-width="6.553"/><path d="M430.76 319.05c0-.01 0-.02 0 0-.3 3.08-.17 6.38.61 10.09.399 1.87.96 3.85 1.72 5.95-5.92 12.89-19.06 18.57-32.46 23.99 1.9 17.03 19.53 26.62 33.87 15.53 7.74.16 13.06 3.39 17.64 7.45 1.45 1.3 2.83 2.67 4.2 4.06 8.03 8.18 15.38 16.79 33.21 11.07 11.931-17.74-14.34-22.13-12.7-42.34 6.471-.58 13.891-2.92 19.761 0 3.58-2.54 3.43-8.81 5.64-12.71 4.71 2.76 7.37 5.36 14.12 2.83 5.41-4.01 6.56-12.27 14.11-14.12 3.26 16.04 21.84 16.74 28.229 29.64 30.26-6.44 45.9-27.5 69.17-40.93 1.851-14.09-2.49-21.98-8.47-28.23h1.41c13.239 11.7 10.22 43.79 1.41 57.87-4.29.98-2.74.99-6.931.03-.04-.01-.08-.02-.13-.03v.04c-2.03 18.12-13.33 40.54 5.65 50.77-2.96 24.51 19.01 30.181 16.939 53.641-1.1 12.43-14.3 22.55-15.529 35.29-.391 4.06.659 8.26 2.26 12.699 2.13 5.931 5.24 12.29 7.21 19.36 0-.01 0-.01 0 0 1.27 4.53 2.06 9.35 1.819 14.52-.64 13.891-3.119 24.08-18.35 31.051-1.64-2.59-3.689-4.78-5.64-7.061-27.94-1.92-25.4 33.7-55.05 25.41-3.421 3.17-3.891 9.28-8.471 11.29-6.97-1.97-16.5-1.38-25.41-1.41 3.69 6.771-.59 18.37 1.42 31.05-17.26-.149-23.89-10.939-40.939-11.29-1.98 4.61-4.08 9.091-7.05 12.7-5.261-1.05-12.75-3.26-14.12 2.82 6.77 6.17 10.91 19.24 5.649 29.64 5.19 12.141 18.98 20.29 29.641 22.59 1.02 3.21 1.26 7.21 2.819 9.881 1.061 5.92-5.39-1.921-5.649 4.229-.47 7.07 5.38 7.8 4.24 15.53-.471 0-.94-.01-1.41-.04-.07 0-.141 0-.21-.01-15.01-.7-31.55-10.15-39.08-22.16-.08-.12-.15-.25-.23-.37-.029.01-.06.01-.09.02-10.75 1.96-21.649 12.221-32.38 5.62-3.83 1.811-4.06 7.23-8.47 8.471-14.04 2.96-20.36-11.11-29.64-4.23-1.74 9.27 4.2 10.85 4.24 18.35-5.64 8-17.25 10.04-19.76 21.17-10 .591-18.3-.52-26.82-1.409-5.68 2.79-6.29 10.64-14.12 11.29 5.19 7.52 12 13.409 14.12 23.989 4.44-1.68 7.47-4.76 12.7-5.64 10.39 1.47 10.2 17.5 24 11.29 6.47 6.7 11.95 14.4 12.7 26.82-5.58-7.46-3.64-19.101-12.7-25.41-12.72 5.5-14.61-7.82-22.59-11.29-7.15-.101-9.12 4.99-15.52 5.64-3.87-21.06-20.55-29.319-35.29-39.52-6.85 2.91-12.65.92-19.15-.46-2.86-.63-5.87-1.12-9.16-1.011-.44 0-.88.021-1.33.061-1.89.149-3.65.53-5.31 1.05-2.57.811-4.91 1.96-7.15 3.13 0 0 .01-.01 0 0-4.95 2.58-9.31 5.22-14.36 4.29-4.64-.85-7.12-4.33-10.03-8.06-1.22-1.561-2.52-3.16-4.08-4.641 1.01-10.46 11.5-11.43 16.96-17.439 1.26-1.391 2.25-3.05 2.8-5.15-3.21-13.26-7.47-25.47-19.76-29.64-9.79 4.33-6.21 22.02-15.53 26.82-2.74-.28-5.04-.11-7.19.21-1.28.189-2.5.43-3.74.649-3.04.57-6.14 1.061-10.24.55-8.8-18.229.62-47.1-9.88-64.93-.88-1.02-1.75-1.24-2.61-1.14-.08.01-.16.02-.24.04-1.86.319-3.7 1.92-5.62-.311-2.42-9.66-5.26-17.729-5.85-24.08-.2-2.029-.16-3.89.2-5.56 1.75 2.42 2.9 5.7 3.84 9.229 1.22 4.561 2.09 9.53 3.42 13.58.21.62.42 1.221.65 1.79.09.23.18.46.29.681.11.279.24.56.38.829.5 1.011 1.05 1.9 1.69 2.641.1.12.21.229.31.34.29.3.6.58.93.82.76.569 1.62.96 2.61 1.14-1.1.17-2.04-.25-2.85-1.1a6.827 6.827 0 0 1-.93-1.24c-.53-.86-1-1.92-1.43-3.12-.48-1.34-.91-2.85-1.31-4.45-1.19-4.76-2.11-10.25-3.36-14.08-.14.69-.27 1.41-.4 2.17-.98 5.94-1.19 13.48 4.36 16.051.09.05.18.09.27.13-.22-.28-.41-.551-.56-.811-.39-.63-.61-1.21-.65-1.79-.05-.55.07-1.09.34-1.67.2-.439.49-.89.87-1.38 2.64 1.271 1.71 3.8.44 5.83-.1.18-.21.35-.33.52-.6.9-1.22 1.671-1.52 2.12.69 2.38 1.76 1.42 3.21.521.02-.021.05-.03.07-.04 1.06-.66 2.32-1.25 3.78-.48 11.18 17.83 4.14 45.391 9.88 66.341 3.99.859 7.36 1.109 10.24.859 1.35-.109 2.59-.33 3.74-.649 13.03-3.54 13.95-19.221 21.31-28.44 14.38 2.56 17.31 16.57 22.58 28.23.93 3.75-2.28 5.949-4.13 8.039-1.27 1.44-1.9 2.841-.11 4.66-6.27 2.67-14.76 3.12-15.52 11.29.57 2.44 1.49 4.44 2.68 6.05 5.14 6.95 15.37 6.801 24.38 3.78M430.76 319.03c-.43-2.1-1.06-4.27-1.899-6.53 3.08-6.79 9.159-10.6 8.47-21.17h1.41c-2.081 10.69-7.061 18.13-7.981 27.7zM116.89 562.53c-.59.239-1.5.229-2.79-.2-6.19-2.08-21.27-14.86-21.17-26.811-1.26 1.091-3.19 1.511-5.65 1.41v-1.41c3.99 1.16 3.66-1.989 7.06-1.42.56 14.5 10.21 19.91 18.35 26.82 2.79-3.89 5.42-1.22 5.1.55-.09.461-.37.861-.9 1.061zM578.47 737.89v2.29c10.471 2.141 15.28 2.29 21.181 9.88 23.409-5.31 43.96-31.59 73.39-31.05 2.52-5.49 1.82-14.18 7.06-16.939v1.41c-4.77 3.689-2.369 14.569-8.47 16.939-28.649.09-49.149 26.67-73.39 31.05-3.7-10-15.66-5.97-22.16-12.95a11.94 11.94 0 0 1-1.65-2.26c-.069-.1-.13-.21-.189-.319-.01.149-.01.3-.021.439-.05.97-.14 1.9-.29 2.771-.38 2.21-1.12 4.06-2.51 5.26-3.45-8.3-3.28-19.91-14.12-16.94 5.851 5.61 6.59 16.2 2.83 24-3.66-1.989-6.52-4.779-9.89-7.06 1.45 5.62 8.42 11.64 4.24 18.35-11.431.2-23.73-3.12-31.051 0 11.95 3.58 27.08 3.971 32.46 14.12-4.85 7.4-12.68 19.28-22.58 16.93 10.98-2.18 17.61-8.729 21.171-18.34-7.471-9.01-32.721-7.739-35.29-16.939 5.97 3 20.5 1.109 35.29 2.819.64-8.159-4.021-11.04-5.65-16.939-5.58.53-10.25 1.99-14.11 4.24 4.87-5.07 12.96-12.23 17.59-16.391.851-.77 1.591-1.43 2.171-1.96-.521 5.12-4.561 6.73-2.82 14.11 2.96 1.74 5.5 3.91 8.47 5.649 3.9-9.02-3.8-33.72-9.89-19.76-.12-5.28-1.58-4.03 0-8.47 7.16 2.26 14.01 4.81 19.77 8.47-1.58 3.48-1.3 6.931 1.271 8.95.029.03.05.05.08.07.43.33.92.609 1.47.859 0-.29-.01-.569-.01-.859-.011-.66-.021-1.32-.021-1.98-.069-5.25.021-10.33 2.851-12.689 3.79 4.369-3.811 5.479 0 8.47-.07-2.43 1.09-3.62 2.819-4.23v5.96c-.002 1.009-.002 2.019-.002 3.039z" stroke-width="6.553"/><path d="M533.31 819.22c-10.76-21.529-38.22-37.21-45.17-53.64 12.03 5.39 17.12 17.7 25.41 26.82 12.391 1.6 20.7 23.13 31.05 9.88-1.63-3.55-5.909-4.44-8.47-7.05 5.601.52 8.14 4.09 9.88 8.46-3 2.18-6.29 4.069-9.88 5.649-5.64-4.26-13.479-13.78-19.76-12.7 7.55 6.091 14.49 12.801 18.35 22.58l-1.41.001z" stroke-width="6.553"/><path d="M499.43 778.29c-.239-4.93-3.25-7.11-7.06-8.47.5 4.68 4.23 6.12 7.06 8.47zM485.32 819.22c-5.301-12.68-22.681-20.479-25.41-31.05 17.02 4.62 20.12 23.16 33.88 31.05h-2.83c-2.7-3.89-5.99-7.18-9.88-9.88.55 4.63 4.13 6.22 5.65 9.88h-1.41z" stroke-width="6.553"/><path d="M461.32 789.58c4.569 5.79 8.93 11.77 15.529 15.53-1.879-8.48-8.519-12.19-15.529-15.53zM365.34 819.22c2.97-11.16 14.08-21.66 22.59-22.58-9.77 4.82-17.91 11.261-21.18 22.58h-1.41z" stroke-width="6.553"/><path d="M106.69 590.45c13.9-.73 13.47 12.87 19.76 19.76-4.69 3.31-11.56-.96-16.94-1.41-.65-6.41-2.54-11.58-2.82-18.35z" stroke-width="5"/><path d="M109.51 591.86c-2.42 3.43.66 13.399 2.82 16.939 5.82-1.109 7.25 2.16 12.71 1.41-5.5-5.789-5.71-16.879-15.53-18.349zM140.92 615.97c8.02 1.181 7.9 12.24 5.64 19.761-8.99-.211-7.57-12.581-5.64-19.761z" stroke-width="5"/><path d="M142.33 617.38c-1.76 4.72-3.3 16.01 2.82 16.94 2.53-5.48 1.89-14.6-2.82-16.94zM287.6 777.6c-.49 1.58-.95 3.2-1.3 4.92-5.82-8.579-10.49-18.31-17.96-25.229-.1-.11-.21-.21-.32-.3-.48-.44-.97-.87-1.48-1.28 5.09-8.729 19.55-13.45 25.41-2.83.71 6.29-.08 11.09-1.31 15.44-.91 3.199-2.06 6.149-3.04 9.279z" stroke-width="5"/><path d="M268.02 756.99c-.02.04-.05.09-.07.13.13.05.26.11.39.17 9.45 4 11.68 15.24 17.96 22.41.48-.69.91-1.391 1.3-2.101 1.7-3.02 2.66-6.189 3.04-9.279 1.97-16.13-12-30.23-22.62-11.33z" stroke-width="5"/></g><path fill-rule="evenodd" clip-rule="evenodd" fill="none" d="M.25.25h850.394v850.394H.25z"/></svg>