<svg xmlns="http://www.w3.org/2000/svg" width="850.89" height="850.89" viewBox="0 0 850.89 850.89" overflow="visible"><path d="M742.25 494.25c-.54 5.24-9.59 5.2-9-1.24 2.31-2.51 7.67-1.27 9 1.24z" fill="#fff5b4"/><path d="M805.25 332.74c3.81 3.6 3.43 12.26 1 17.4-9.32 1.32-17.22 5.1-19-7.46 3.38-1.18 7.57-1.36 7-7.46 3.29 1.88 8.55 1.38 10-2.48h1zm0 14.92c3.34-9.9-.81-12.3-9-9.95-.6 3.82-2.43 6.1-6 6.22.62 3.78 2.22 6.35 6 6.21.86-3.49 5.41-2.39 9-2.48z"/><path fill="#fbed24" d="M806 183.38v17.96H595.49l-.16-17.96h209.78z"/><path fill="#ed1e29" d="M806 172.23v11.15H595.33l-.11-11.15z"/><path fill="#fbed24" d="M806 156.97v15.26H595.22l-.14-15.26z"/><path fill="#ed1e29" d="M806 140.27v16.7H595.08l-.15-16.7h211z"/><path fill="#fbed24" d="M806 123.56v16.71H594.93l-.16-16.71h.52v7.47h84.25v-7.47H805.2z"/><path fill="#ed1e29" d="M806 108.31v15.25H679.54v-15.25h126.39z"/><path fill="#fbed24" d="M806 91.6v16.71H679.54V91.6h126.39z"/><path fill="#ed1e29" d="M806 76.88V91.6H679.54V77.28l125.21.3z"/><path fill="#fbed24" d="M806 63.4v13.48l-1.25.7-125.21-.3V66.9h-84.25v10.18l-.94-.01-.13-13.67z"/><path d="M796.25 337.71c8.19-2.35 12.34.05 9 9.95-3.59.09-8.14-1.01-9 2.48-3.78.14-5.38-2.43-6-6.21 3.57-.12 5.4-2.4 6-6.22z" fill="#fff5b4"/><path d="M803.25 396.15v14.92c-1.43 1.53-1.89 4.27-2 7.46-11.59 1.75-11.58 17.92-14 31.081-12.7-.86-20.12 4.83-25 13.68-9.02.79-15.54-4.4-22 0-1.5 4.35-.64 11.64-4 13.68-7.94.34-10.4-6.14-17-7.46-4.45-.979-1.97 6.66-6 6.21-3.1-29.17 23.51-32.069 29-54.71 10.93-4.28 20.65-3.91 29-8.7 9.97-5.71 14.26-24.42 29-22.38 1.48 1.469 1.56 4.699 3 6.219zm-3 19.89c1.12-6.55 2.25-18.93-1-23.62-13.84-.71-17.89 17.23-28 22.38-8.09 4.11-16.6 4.1-27 7.46-5.76 20.19-28.54 25.851-29 48.49 5.03-10.52 14.27 7.31 21 2.49-.51-17.15 14.01-13.69 26-12.44 3.52-10.13 12.78-13.12 24-13.68 1.08-14.82 3.37-28.14 14-31.08zM801.25 372.3c-.12 3.59.55 8.14-1 9.95-3.21 2.22-9.42.72-13 2.49-2.81 3.55-3.03 10.32-10 8.7-1.66-2.96.56-9.43 1-13.68 11.28 2.68 11.32-14.73 23-7.46zm-2 8.71v-7.46c-10.98-2.47-9.72 10.3-20 8.7.8 4.31-1.49 4.78-1 8.7 6.75 2.18 4.36-7.01 8-8.7 4.9.29 7.57-2.19 13-1.24z"/><path d="M799.25 392.42c3.25 4.69 2.12 17.07 1 23.62-10.63 2.94-12.92 16.26-14 31.08-11.22.56-20.48 3.55-24 13.68-11.99-1.25-26.51-4.71-26 12.44-6.73 4.819-15.97-13.01-21-2.49.46-22.64 23.24-28.3 29-48.49 10.4-3.36 18.91-3.35 27-7.46 10.11-5.15 14.16-23.09 28-22.38zM799.25 373.55v7.46c-5.43-.95-8.1 1.53-13 1.24-3.64 1.69-1.25 10.88-8 8.7-.49-3.92 1.8-4.39 1-8.7 10.28 1.6 9.02-11.17 20-8.7z" fill="#fff5b4"/><path d="M788.25 361.76c4.64 12.55-16.11 15.37-16 2.49 1.42-6.18 12.26-6.48 16-2.49zm-14 2.49c.23 8.18 12.77 8.18 13 0a8.106 8.106 0 0 0-13 0z"/><path d="M787.25 364.25c-.23 8.18-12.77 8.18-13 0a8.106 8.106 0 0 1 13 0zM743.25 491.76v6.221c-3.84 3.5-10.29 2.949-12-2.49-.31-6.921 9.14-8.161 12-3.731zm-10 1.25c-.59 6.44 8.46 6.48 9 1.24-1.33-2.51-6.69-3.75-9-1.24z" fill="#fff5b4"/><path d="M716.25 493.13c3.39 3.4 7.16 9.46 7 14.92-.14 4.9-5.81 9.78-7 16.16-1.22 6.56 1.14 15.09 0 21.14-1.08 5.721-6.34 9.9-9 16.16l-.17-.069c3.09-6.921 5.89-13.45 7.17-18.58 1.42-5.7-.74-10.36 0-16.16.86-6.72 6.85-12.7 7-18.65.47-19.17-17.34-8.92-32-11.189 3.36 15.88-1.5 26.479-9 32.33-2.11 2.76 1.05 5.989 0 11.189-5.8 2.32-4.55 9.9-8 16.16-2.67 4.84-8.64 7.53-11 12.43-1.91 3.971-1.36 9.87-3 13.681-2.55 5.93-8.38 9.26-11 14.92-1.87 4.029-3.33 7.8-4.68 11.319.87-3.649.189-7.76 1.68-11.319 3.94-9.45 16.71-15.601 15-29.84 9.26-5.891 12.15-19.7 19-28.601v-12.43c2.47-3.561 7.22-4.29 9-8.7 1.89-6.36.65-16.6 1-24.87 7.42 4.969 19.35.999 28-.001z"/><path d="M689.25 496.86c14.66 2.27 32.47-7.98 32 11.189-.15 5.95-6.14 11.931-7 18.65-.74 5.8 1.42 10.46 0 16.16-1.28 5.13-4.08 11.659-7.17 18.58-4.99 11.199-10.71 23.409-11.83 32.399v14.92c-7.2-1.79-10.92-2.45-19-1.24-4.04 1.601-2.78 9.801-6 12.431-4.87.569-11.71-1.3-15 1.24-1.99 2.909-.37 10.319-3 12.439-7.79-.38-15.57-.75-20.56 2.351l-5.2-2.261c.62-.43 1.2-.88 1.76-1.34 5.86-4.86 8.94-10.35 11.62-16.689a45.439 45.439 0 0 0 2.38-5.69c.13-.36.23-.73.32-1.11 1.35-3.52 2.81-7.29 4.68-11.319 2.62-5.66 8.45-8.99 11-14.92 1.64-3.811 1.09-9.71 3-13.681 2.36-4.899 8.33-7.59 11-12.43 3.45-6.26 2.2-13.84 8-16.16 1.05-5.2-2.11-8.43 0-11.189 7.5-5.85 12.36-16.45 9-32.33z" fill="#fff5b4"/><path d="M707.08 561.44l.17.069c-6.6 15.54-8.98 31.3-11.6 47.32l-.4-.07v-14.92c1.12-8.989 6.84-21.199 11.83-32.399z"/><path d="M695.65 608.83c-.131.81-.271 1.61-.4 2.42-6.3-3.14-11.8-.61-18-2.49-3.6 1.74-2.03 9.91-5 12.431-4.23 1.38-9.51 1.439-15 1.25-1.77 4.02-1.7 10.319-4 13.67-12.37-.051-27.15-3.08-25 14.93-14.54-1.78-36.71 8.06-42-7.47 3.82-8.29 11.54-4.5 16-4.971 16.28-1.71 30.19-8 37.62-22.909-2.68 6.34-5.76 11.829-11.62 16.689-.56.46-1.14.91-1.76 1.34-4.271 3-9.771 5.141-15.24 6.12-6.58 1.18-15.86-2.52-23 4.98 7.04 9.47 26.14 3.359 38 3.729-.13-6.609 1.98-10.42 5.44-12.569 4.989-3.101 12.77-2.73 20.56-2.351 2.63-2.12 1.01-9.53 3-12.439 3.29-2.54 10.13-.671 15-1.24 3.22-2.63 1.96-10.83 6-12.431 8.08-1.21 11.8-.55 19 1.24l.4.071z"/><path fill="#8c469b" d="M595.29 123.56h84.25v7.47h-84.25zM646.4 114.53c.02-.05.029-.22.06-.54.14-1.78.19-3.65.15-5.68h.26v6.93c2.61.29 6-.45 7.43 0 .09-1.45-.09-4.29-.03-6.93H658c-.14 2.66-.33 5.52.85 6.93v-6.93h.41v6.93h6.2v-6.93h.41v6.93h4.96v-6.93h8.71v15.25h-84.25v-15.25h9.44c-.03 2.13-.051 4.31 0 6.51 1 .79 3.319.26 4.96.42-.11-2.2-.04-4.57.02-6.93h.39v6.51c1.41.66 5.21.66 6.61 0v-6.51h.35c-.02 2.48.061 4.88.48 6.93.74-1.7.44-4.42.35-6.93h3.351c-.09 2.68-.311 5.49.84 6.93-.11-2.2-.04-4.57.02-6.93h.4v6.93c2.6-.01 5.39.16 7.43-.42.25-1.9-.029-4.31-.09-6.51h3.38c-.09 2.68-.31 5.49.84 6.93-.109-2.2-.04-4.57.011-6.93h.33c.1 2.51.359 4.86.899 6.93 1.09-.86.9-3.98.84-6.93h3.65c-.13 3.18-.4 6.53 1.29 6.93.26-2.2.4-4.53.45-6.93h.38v3.62c.85 5.83.06.64.13-3.62h4.35c.159 2.84-.001 6.01.009 6.22zM679.54 91.6v16.71h-8.71V98.3c-1.74-.64-.07 2.14-1.24 2.06-.189-.78.561-2.49-.83-2.06-.18.78.561 2.49-.819 2.06V98.3c-1.87-.63.21 2.7-1.66 2.06.06-.54.069-2.98-.41-1.65v9.6h-.41V94.99c-.09-.66.14-2.84-.06-3.39h14.139zM679.54 77.28V91.6H665.4c-.061-.15-.15-.18-.29 0h-.891v-.32c-.62-.23-.8-.03-.84.32h-.85c-.011-.35-.07-.48-.33 0h-.86c-.07-.32-.28-.49-.84-.32-.02.09-.03.2-.03.32h-.83c-.06-.34-.17-.47-.35 0h-5.81v-.32c-.61-.23-.801-.03-.841.32h-.76c-.04-.23-.16-.37-.47-.32-.15.05-.23.17-.28.32h-.75c-.13-.19-.33-.3-.62-.32-.029.09-.05.2-.05.32h-.82c0-.35-.06-.47-.319 0h-.87c-.061-.32-.271-.49-.83-.32v.32h-5.43c.01-1.08.02-2.16.06-3.22h-7.02c.06 1.05.1 2.12.109 3.22h-5.71c-.13-.18-.32-.29-.6-.32-.021.09-.03.2-.03.32h-.8v-.32c-.61-.23-.8-.03-.84.32h-.851c-.01-.35-.06-.48-.33 0h-.84c-.04-.21-.16-.34-.439-.32-.15.05-.24.17-.28.32h-.76c-.12-.18-.32-.3-.61-.32v.32h-5.79v-.32c-.61-.23-.8-.03-.84.32h-.851c-.01-.35-.06-.47-.329 0h-.86c-.07-.32-.28-.49-.83-.32-.04.09-.05.2-.05.32h-.82c-.01-.35-.06-.47-.33 0h-.859c-.07-.32-.28-.49-.841-.32v.32h-14.81V77.08l84.252.2zM641.5 87.97v-3.3c-1.74-.64-.07 2.13-1.24 2.06-.899.07-.189-1.46-.42-2.06-1.729-.64-.06 2.13-1.229 2.06-.9.07-.19-1.46-.42-2.06-1.73-.64-.061 2.13-1.24 2.06-.57-.04-.25-2.97-.82-1.65-.09.73.41 2.07-.83 1.65-.18-.78.561-2.49-.819-2.06v3.3h7.018zM679.54 66.9v10.38l-84.25-.2V66.9z"/><path d="M670.83 108.31v6.93h-4.96v-6.93h4.96zM670.83 98.3v10.01h-4.96v-9.6c.479-1.33.47 1.11.41 1.65 1.87.64-.21-2.69 1.66-2.06v2.06c1.38.43.64-1.28.819-2.06 1.391-.43.641 1.28.83 2.06 1.171.08-.499-2.7 1.241-2.06zM665.4 91.6c.199.55-.03 2.73.06 3.39h-6.2v-3.3l.03-.09h.35c.08.49.07 1.43.03 1.74 1.22.37.8-.89.8-1.74h.87c.101.48-.12 1.27-.01 1.74 1.24.42.729-.92.82-1.65.02-.03.029-.06.05-.09h.33c.01.62-.141 1.94.45 1.74.76.05.329-1.1.399-1.74h.84v1.74c1.24.42.73-.92.83-1.65l.061-.09h.29zM665.46 108.31v6.93h-6.2v-6.93h6.2zM665.46 95.41v12.9h-6.2v-12.9h6.2z" fill="#fff"/><path d="M665.46 94.99v.42h-6.2v12.9h-.41V98.3c-1.869-.63.221 2.7-1.659 2.06-.221-.59.489-2.13-.41-2.06-.221.6.489 2.13-.41 2.06-1.17.08.5-2.7-1.24-2.06-.18.78.561 2.49-.83 2.06.34-2.26-1.45-2.4-.819-4.95v-.42-3.39h5.81l-.03.09v3.3h6.198z" fill="#8c469b"/><path d="M665.4 91.6h-.29c.14-.18.23-.15.29 0zM665.11 91.6l-.061.09c-.1.73.41 2.07-.83 1.65V91.6h.891zM664.22 91.28v.32h-.84c.04-.35.22-.55.84-.32zM663.38 91.6c-.07.64.36 1.79-.399 1.74-.591.2-.44-1.12-.45-1.74h.849zM662.53 91.6h-.33c.26-.48.32-.35.33 0zM662.2 91.6c-.021.03-.03.06-.05.09-.091.73.42 2.07-.82 1.65-.11-.47.11-1.26.01-1.74h.86zM661.34 91.6h-.87c0-.12.011-.23.03-.32.56-.17.77 0 .84.32zM660.47 91.6c0 .85.42 2.11-.8 1.74.04-.31.05-1.25-.03-1.74h.83zM659.64 91.6h-.35c.18-.47.29-.34.35 0zM658.85 108.31v6.93c-1.18-1.41-.989-4.27-.85-6.93h.85zM658.85 98.3v10.01H658c.16-2.99.27-5.73-1.63-5.88-1.61-.13-2.03 2.73-2.101 5.88h-7.399v-12.9h6.61c-.631 2.55 1.159 2.69.819 4.95 1.391.43.65-1.28.83-2.06 1.74-.64.07 2.14 1.24 2.06.899.07.189-1.46.41-2.06.899-.07.189 1.47.41 2.06 1.881.64-.209-2.69 1.661-2.06z" fill="#fff"/><path d="M656.37 102.43c1.899.15 1.79 2.89 1.63 5.88h-3.73c.07-3.15.49-6.01 2.1-5.88z" fill="#8c469b"/><path d="M654.27 108.31c-.06 2.64.12 5.48.03 6.93-1.43-.45-4.819.29-7.43 0v-6.93h7.4z" fill="#fff"/><path d="M653.48 94.99v.42h-6.61v12.9h-.26c-.051-2.92-.261-6.18-.57-10.01-.22.6.479 2.13-.41 2.06-1.18.08.5-2.7-1.24-2.06-.229.6.48 2.13-.409 2.06-.19-.78.56-2.49-.83-2.06-.181.78.56 2.49-.82 2.06.05-.54.06-2.98-.42-1.65v9.6h-.38c.13-5.41-.12-11.2-.09-16.71h5.43v3.39h6.609z" fill="#8c469b"/><path d="M653.48 91.6v3.39h-6.61V91.6h.83c.109.48-.12 1.27-.01 1.74 1.25.42.739-.92.829-1.65.021-.03.03-.06.051-.09h.319c.021.62-.13 1.94.46 1.74.761.06.36-1.04.36-1.74h.67c.271.38.25 1.05.21 1.74.67-.08.351-1.17.54-1.74h.75c.08.62-.479 1.88.36 1.74.76.05.33-1.1.399-1.74h.842z" fill="#fff"/><path d="M653.48 91.28v.32h-.841c.041-.35.231-.55.841-.32zM652.64 91.6c-.069.64.36 1.79-.399 1.74-.84.14-.28-1.12-.36-1.74h.759zM651.88 91.6h-.75c.05-.15.13-.27.28-.32.31-.05.43.09.47.32zM651.13 91.6c-.189.57.13 1.66-.54 1.74.04-.69.061-1.36-.21-1.74h.75zM650.38 91.6h-.67c0-.12.021-.23.05-.32.29.02.49.13.62.32zM649.71 91.6c0 .7.4 1.8-.36 1.74-.59.2-.439-1.12-.46-1.74h.82zM648.89 91.6h-.319c.259-.47.319-.35.319 0zM648.57 91.6c-.021.03-.03.06-.051.09-.09.73.421 2.07-.829 1.65-.11-.47.119-1.26.01-1.74h.87zM647.7 91.6h-.83v-.32c.56-.17.77 0 .83.32zM646.61 108.31c.04 2.03-.011 3.9-.15 5.68-.03.32-.04.49-.06.54-.011-.21.149-3.38-.011-6.22h.221z" fill="#fff"/><path d="M646.61 108.31h-.221c-.06-1.11-.159-2.17-.35-2.99-.28-1.22-.71-1.63-1.65-2.89-.64.32-1.68 1.3-2.06 2.89-.19.78-.271 1.85-.29 2.99h-.13v-9.6c.479-1.33.47 1.11.42 1.65 1.38.43.64-1.28.82-2.06 1.39-.43.64 1.28.83 2.06.89.07.18-1.46.409-2.06 1.74-.64.061 2.14 1.24 2.06.89.07.19-1.46.41-2.06.312 3.83.522 7.09.572 10.01z" fill="#fff"/><path d="M646.39 108.31h-4.35c.02-1.14.1-2.21.29-2.99.38-1.59 1.42-2.57 2.06-2.89.94 1.26 1.37 1.67 1.65 2.89.19.82.29 1.88.35 2.99z" fill="#8c469b"/><path d="M642.57 608.89c-.09.38-.19.75-.32 1.11-.69 2.02-1.49 3.92-2.38 5.69.92-2.16 1.78-4.43 2.7-6.8z"/><path d="M642.04 108.31c-.07 4.26.72 9.45-.13 3.62v-3.62h.13zM641.44 91.6c-.03 5.51.22 11.3.09 16.71h-1.74c.12-2.92.12-5.68-1.6-5.88-2.011-.23-2.11 2.72-2.051 5.88H634.4c-.221-5.29.25-11.26.189-16.71h6.851zM641.53 108.31c-.05 2.4-.19 4.73-.45 6.93-1.69-.4-1.42-3.75-1.29-6.93h1.74zM641.5 84.67v3.3h-7.02v-3.3c1.38-.43.64 1.28.819 2.06 1.24.42.74-.92.83-1.65.57-1.32.25 1.61.82 1.65 1.18.07-.49-2.7 1.24-2.06.229.6-.48 2.13.42 2.06 1.17.07-.5-2.7 1.229-2.06.23.6-.479 2.13.42 2.06 1.172.07-.498-2.7 1.242-2.06zM634.48 88.38h7.02c-.04 1.06-.05 2.14-.06 3.22h-6.851c-.009-1.1-.049-2.17-.109-3.22z" fill="#fff"/><path d="M638.19 102.43c1.72.2 1.72 2.96 1.6 5.88h-3.65c-.06-3.16.04-6.11 2.05-5.88z" fill="#8c469b"/><path d="M636.14 108.31c.061 2.95.25 6.07-.84 6.93-.54-2.07-.8-4.42-.899-6.93h1.739z" fill="#fff"/><path d="M634.59 91.6c.061 5.45-.41 11.42-.189 16.71h-.33c.09-3.57.16-7.11-.42-10.01-.23.6.479 2.13-.41 2.06-1.181.08.5-2.7-1.24-2.06-.18.78.56 2.49-.83 2.06-.22-.59.49-2.13-.41-2.06-.18.78.561 2.49-.83 2.06.34-2.26-1.449-2.4-.819-4.95v-.42c-.15-1.06.279-2.7-.23-3.39h5.708z" fill="#8c469b"/><path d="M633.65 98.3c.58 2.9.51 6.44.42 10.01h-.851c.09-2.45.061-4.8-1.22-5.88-1.99.7-2.23 3.12-2.16 5.88h-7.34v-12.9h6.61c-.63 2.55 1.159 2.69.819 4.95 1.391.43.65-1.28.83-2.06.9-.07.19 1.47.41 2.06 1.39.43.65-1.28.83-2.06 1.74-.64.06 2.14 1.24 2.06.892.07.182-1.46.412-2.06zM634.07 108.31c-.051 2.36-.12 4.73-.011 6.93-1.149-1.44-.93-4.25-.84-6.93h.851z" fill="#fff"/><path d="M632 102.43c1.28 1.08 1.31 3.43 1.22 5.88h-3.38c-.07-2.76.17-5.18 2.16-5.88z" fill="#8c469b"/><path d="M626.49 633.72l5.2 2.261c-3.46 2.149-5.57 5.96-5.44 12.569-11.86-.37-30.96 5.74-38-3.729 7.14-7.5 16.42-3.801 23-4.98 5.47-.981 10.97-3.121 15.24-6.121z" fill="#fff5b4"/><path d="M629.84 108.31c.061 2.2.34 4.61.09 6.51-2.04.58-4.83.41-7.43.42v-6.93h7.34z" fill="#fff"/><path d="M629.11 94.99v.42h-6.61v12.9h-.4c.08-3.57.15-7.11-.43-10.01-.229.6.48 2.13-.41 2.06-.899.07-.189-1.46-.42-2.06-1.74-.64-.06 2.14-1.24 2.06-1.17.08.5-2.7-1.229-2.06-.19.78.56 2.49-.83 2.06.05-.54.06-2.98-.42-1.65.16 3.02-.03 6.39-.061 9.6h-.35V94.99 91.6h5.79v3.39h6.61z" fill="#8c469b"/><path d="M629.11 94.99h-6.61V91.6h.61c.279.38.25 1.05.21 1.74.68-.08.359-1.17.55-1.74h.72c.11.47-.18 1.33-.03 1.74 1.24.42.73-.92.83-1.65.021-.03.03-.06.04-.09h.33c.021.62-.13 1.94.45 1.74.76.05.33-1.1.4-1.74h.84v1.74c1.22.37.8-.89.8-1.74h.63c.51.69.08 2.33.23 3.39z" fill="#fff"/><path d="M628.88 91.6h-.63c0-.12.01-.23.03-.32.28.03.47.14.6.32zM628.25 91.6c0 .85.42 2.11-.8 1.74V91.6h.8zM627.45 91.28v.32h-.84c.04-.35.23-.55.84-.32zM626.61 91.6c-.07.64.359 1.79-.4 1.74-.58.2-.43-1.12-.45-1.74h.85zM625.76 91.6h-.33c.27-.48.32-.35.33 0zM625.43 91.6c-.01.03-.02.06-.04.09-.1.73.41 2.07-.83 1.65-.149-.41.141-1.27.03-1.74h.84zM624.59 91.6h-.72c.04-.15.13-.27.28-.32.28-.02.4.11.44.32zM623.87 91.6c-.19.57.13 1.66-.55 1.74.04-.69.069-1.36-.21-1.74h.76zM623.11 91.6h-.61v-.32c.29.02.49.14.61.32zM621.67 98.3c.58 2.9.51 6.44.43 10.01h-.859c.09-2.45.06-4.8-1.221-5.88-2.06.61-2.22 3.12-2.13 5.88h-.83c.03-3.21.221-6.58.061-9.6.479-1.33.47 1.11.42 1.65 1.39.43.64-1.28.83-2.06 1.729-.64.06 2.14 1.229 2.06 1.181.08-.5-2.7 1.24-2.06.23.6-.479 2.13.42 2.06.89.07.18-1.46.41-2.06zM622.1 108.31c-.06 2.36-.13 4.73-.02 6.93-1.15-1.44-.93-4.25-.84-6.93h.86z" fill="#fff"/><path d="M620.02 102.43c1.28 1.08 1.311 3.43 1.221 5.88h-3.351c-.09-2.76.07-5.27 2.13-5.88z" fill="#8c469b"/><path d="M617.89 108.31c.091 2.51.391 5.23-.35 6.93-.42-2.05-.5-4.45-.48-6.93h.83zM616.71 108.31v6.51c-1.4.66-5.2.66-6.61 0v-6.51h6.61zM616.71 95.41v12.9h-6.61v-12.9h6.61z" fill="#fff"/><path d="M616.71 94.99v.42h-6.61v12.9h-.39c.08-3.57.14-7.11-.43-10.01-.23.6.479 2.13-.41 2.06-.19-.78.55-2.49-.83-2.06-.18.78.56 2.49-.83 2.06-.18-.78.56-2.49-.83-2.06-.18.78.57 2.49-.82 2.06-.18-.78.561-2.49-.829-2.06.159 3.03.06 6.44 0 10.01h-9.44V91.6h14.81v3.39h6.609z" fill="#8c469b"/><path d="M616.71 91.6v3.39h-6.61V91.6h.841c.1.48-.12 1.27-.011 1.74 1.24.42.73-.92.83-1.65.01-.03.03-.06.04-.09h.33c.021.62-.13 1.94.45 1.74.76.06.36-1.04.37-1.74h.88c.1.48-.12 1.27-.01 1.74 1.25.42.729-.92.83-1.65.02-.03.029-.06.04-.09h.329c.021.62-.13 1.94.45 1.74.761.05.33-1.1.4-1.74h.841z" fill="#fff"/><path d="M616.71 91.28v.32h-.84c.04-.35.23-.55.84-.32zM615.87 91.6c-.07.64.36 1.79-.4 1.74-.58.2-.43-1.12-.45-1.74h.85zM615.02 91.6h-.329c.269-.47.319-.35.329 0zM614.69 91.6c-.011.03-.021.06-.04.09-.101.73.42 2.07-.83 1.65-.11-.47.109-1.26.01-1.74h.86zM613.83 91.6h-.88c0-.12.01-.23.05-.32.55-.17.76 0 .83.32zM612.95 91.6c-.01.7.39 1.8-.37 1.74-.58.2-.43-1.12-.45-1.74h.82zM612.13 91.6h-.33c.27-.47.32-.35.33 0zM611.8 91.6c-.01.03-.03.06-.04.09-.1.73.41 2.07-.83 1.65-.109-.47.11-1.26.011-1.74h.859zM610.94 91.6h-.84v-.32c.56-.17.77 0 .84.32zM609.28 98.3c.569 2.9.51 6.44.43 10.01h-4.979c.06-3.57.159-6.98 0-10.01 1.39-.43.649 1.28.829 2.06 1.391.43.641-1.28.82-2.06 1.39-.43.65 1.28.83 2.06 1.39.43.65-1.28.83-2.06 1.38-.43.64 1.28.83 2.06.89.07.18-1.46.41-2.06zM609.71 108.31c-.06 2.36-.13 4.73-.02 6.93-1.641-.16-3.96.37-4.96-.42-.051-2.2-.03-4.38 0-6.51h4.98z" fill="#fff"/><path d="M578.58 54.11c-3.99-1.78-6.66-4.98-6.66-8.64 0-5.6 6.22-10.13 13.89-10.13 7.681 0 13.9 4.53 13.9 10.13 0 3.57-2.54 6.71-6.38 8.51-2.17 1.02-4.75 1.61-7.521 1.61-2.649 0-5.119-.54-7.229-1.48z" fill="#c8c8c8"/><path fill="#fff" d="M595.29 108.31v15.25h-.52l-.13-15.25zM595.29 91.6v16.71h-.65l-.16-16.71zM595.29 77.08V91.6h-.81l-.13-14.53z"/><path d="M593.33 108.31v189.35h-14.35l-.4-243.55c2.11.94 4.58 1.48 7.229 1.48 2.771 0 5.351-.59 7.521-1.61v54.33z" fill="#c8c8c8"/><path d="M452.25 631.14c11.3 21.551-7.61 45.971-7 68.38-4.02 2.881-13.08-.51-17 2.49-4.07.33-2.13 8.12-4 11.19-8.23 1.42-18.18-10.33-23-1.24-23.63-.57-27.22-51.38-11-65.9.08-4.04.52-7.649 2-9.949 3.13-3.98 7.16-6.841 7-14.92 6.04-.46 7.42 4.859 14 3.729 2.19-.18 2.15-3.13 2-6.21 6.02 3.78 32.31 3.48 37 12.43zm-9 67.14c.64-18.61 16.37-45.681 8-64.65-3.09-7.01-7.16-4.7-16-6.22-9.98-1.71-17.73-12.141-21 0-6.29.77-8.46-3.57-14-3.73v9.95c-3.59-.729-4.84 1.44-7 2.48 2.32 10.34-7.48 16.199-10 24.87-6.31 21.689 2.06 43.729 17 48.489 4.91-9.189 14.85 2.561 23 1.24-1.1-13.799 9.99-12.449 20-12.429z"/><path d="M451.25 633.63c8.37 18.97-7.36 46.04-8 64.65-10.01-.021-21.1-1.37-20 12.43-8.15 1.32-18.09-10.43-23-1.24-14.94-4.76-23.31-26.8-17-48.489 2.52-8.671 12.32-14.53 10-24.87 2.16-1.04 3.41-3.21 7-2.48v-9.95c5.54.16 7.71 4.5 14 3.73 3.27-12.141 11.02-1.71 21 0 8.84 1.519 12.91-.791 16 6.219z" fill="#fff5b4"/><path d="M348.25 511.78c3.61 4.93 9.29 6.88 9 12.43-.4 7.62-4.16 2.33-8 7.46-4.46 5.97-2.21 13.83-6 17.41-23.39 10.29-39.27 29.91-40 68.38-15.7-4.18-17.32 9.14-21 19.9-13.17-.761-24.8 5-30 9.939-4.43-10.71-9.41-22.17-13-34.81-2.87-10.101-2.12-22.05-5-32.33-1.36-4.87-8.21-12.96-8-18.65.99-26.859 41.19-6.29 59-8.7 10.5-1.42 19.31-7.869 25-16.159 8.11-11.82 15.05-31.67 38-24.87zm7 12.43c1.82-3.15-5.48-5.58-6-9.95-26.64-7.649-30.57 15.641-40 27.36-8.54 10.61-18.64 13.149-27 13.67-14.77.94-52.79-16.41-54 6.22-.24 4.58 5.82 12.34 7 16.17 2.65 8.61 1.71 19.311 4 29.84 3.13 14.4 11.49 25.211 13 37.301 7.02-7.99 16.71-8.261 28-8.71 4.99-9.95 5.69-25.25 22-21.13-.42-39.07 16.62-56.421 39-67.141 3.64-9.15 7.18-18.43 14-23.63z"/><path d="M349.25 514.26c.52 4.37 7.82 6.8 6 9.95-6.82 5.2-10.36 14.48-14 23.63-22.38 10.72-39.42 28.07-39 67.141-16.31-4.12-17.01 11.18-22 21.13-11.29.449-20.98.72-28 8.71-1.51-12.09-9.87-22.9-13-37.301-2.29-10.529-1.35-21.229-4-29.84-1.18-3.83-7.24-11.59-7-16.17 1.21-22.63 39.23-5.279 54-6.22 8.36-.521 18.46-3.06 27-13.67 9.43-11.72 13.36-35.01 40-27.36z" fill="#fff5b4"/><path d="M189.25 605.03c1.96 9.81 1.35 21.859-5 24.87-5.39.069-9.11-1.94-14-2.49-2.86.17-1.83 5.189-2 8.7-17.95-2.96-24.84-19.681-25-44.761 9.27-.38 21.39 4.74 26-3.729 7.65 4.58 10.11 15.62 20 17.41zm-3 21.14c2.79-3.689 2.53-14.6 1-19.9-8.21-2.229-12-9.949-17-16.159-5.4 7.159-15.43 3.93-25 3.729-.14 22.141 7.02 35.2 21 39.79.39-3.25.51-6.82 2-8.71 5.88.52 12.47 4.11 18 1.25z"/><path d="M187.25 606.27c1.53 5.301 1.79 16.211-1 19.9-5.53 2.86-12.12-.729-18-1.25-1.49 1.89-1.61 5.46-2 8.71-13.98-4.59-21.14-17.649-21-39.79 9.57.2 19.6 3.43 25-3.729 5 6.209 8.79 13.929 17 16.159z" fill="#fff5b4"/><path d="M132.25 454.58c1.54 23.06-13.06 29.84-9 52.22-2.78 5.25-8.68 6.62-13 9.95-1.44 4.01-.95 10.43-1 16.17-18.47 1.08-8.23-34.82-13-53.47-2.86-11.2-15.54-15.5-8-29.84 2.59-1.33 4.9-3.021 9-2.49 1.16-6.43.67-14.91 6-16.16 5.34.83 5.48 8.11 9 11.19 10.32-.39 15.72 5.33 20 12.43zm-11 52.22c-4.45-22.83 10.64-27.95 9-50.97-3.82-6.45-8.3-12.061-18-11.19-4.19-2.149-6.15-12.649-10-11.189-2.34 4.13-2.57 10.89-4 16.16-2.88.149-6.55-.681-8 1.239-7.98 11.71 3.91 15.2 7 26.12 4.74 16.73-3.83 49.15 10 53.46-2.55-16.84 7.54-17.98 14-23.63z"/><path d="M130.25 455.83c1.64 23.02-13.45 28.14-9 50.97-6.46 5.65-16.55 6.79-14 23.63-13.83-4.31-5.26-36.729-10-53.46-3.09-10.92-14.98-14.41-7-26.12 1.45-1.92 5.12-1.09 8-1.239 1.43-5.271 1.66-12.03 4-16.16 3.85-1.46 5.81 9.04 10 11.189 9.7-.87 14.18 4.74 18 11.19z" fill="#fff5b4"/><path d="M89.25 685.85c-1.48 8.931-3.33 17.41-8 22.381-3.75.909-5.59.71-9-1.24-1.71 3.71 5.44 12.67 2 18.64h-6c-7.34-2.89-11.56-9.66-21-9.939-.79-28.342 20.54-29.172 42-29.842zm-2 2.48c-20.05-.48-36.77 3.189-39 24.87 10.12 1.1 14.02 9.92 25 9.95.28-9.061-4.69-11.58-4-21.141 2.75 2.391 5.51 4.75 10 4.98 5.01-3.309 6.1-11.489 8-18.659z"/><path d="M48.25 713.2c2.23-21.681 18.95-25.351 39-24.87-1.9 7.17-2.99 15.35-8 18.66-4.49-.23-7.25-2.59-10-4.98-.69 9.561 4.28 12.08 4 21.141-10.98-.031-14.88-8.851-25-9.951z" fill="#fff5b4"/><g fill="none" stroke="#231f20"><path stroke-width="7" d="M594.22 63.4H806V201.34H595.49M578.58 54.11c-3.99-1.78-6.66-4.98-6.66-8.64 0-5.6 6.22-10.13 13.89-10.13 7.681 0 13.9 4.53 13.9 10.13 0 3.57-2.54 6.71-6.38 8.51-2.17 1.02-4.75 1.61-7.521 1.61-2.649 0-5.119-.54-7.229-1.48z"/><path stroke-width="7" d="M578.58 53.83v.28l.4 243.55M593.33 53.32V297.66"/><path stroke-width="5.085" d="M804.75 77.58l1.25-.7.73-.42"/><path stroke-width="2.542" d="M679.54 108.31h126.39M593.11 108.31h2.18M593.11 156.97H806.66M679.54 77.28l125.21.3M593.83 77.07h.52l.94.01M679.54 91.6h126.39M593.83 91.6h1.46M679.54 123.56H805.2M594.56 123.56h.73M593.83 140.27h212.1M594.56 172.23h212.82M595.24 183.38h209.87"/><path stroke-width="3.43" d="M679.54 123.56v7.47h-84.25V66.9h84.25V108.31z"/><path d="M634.48 87.97v-3.3c1.38-.43.64 1.28.819 2.06 1.24.42.74-.92.83-1.65.57-1.32.25 1.61.82 1.65 1.18.07-.49-2.7 1.24-2.06.229.6-.48 2.13.42 2.06 1.17.07-.5-2.7 1.229-2.06.23.6-.479 2.13.42 2.06 1.17.07-.5-2.7 1.24-2.06v3.3h-7.018zM634.59 91.6c-.01-1.1-.05-2.17-.109-3.22h7.02c-.04 1.06-.05 2.14-.06 3.22-.03 5.51.22 11.3.09 16.71-.05 2.4-.19 4.73-.45 6.93-1.69-.4-1.42-3.75-1.29-6.93.12-2.92.12-5.68-1.6-5.88-2.011-.23-2.11 2.72-2.051 5.88.061 2.95.25 6.07-.84 6.93-.54-2.07-.8-4.42-.899-6.93-.221-5.29.249-11.26.189-16.71zM610.1 91.6v-.32c.561-.17.771 0 .841.32.1.48-.12 1.27-.011 1.74 1.24.42.73-.92.83-1.65.01-.03.03-.06.04-.09.271-.47.32-.35.33 0 .021.62-.13 1.94.45 1.74.76.06.36-1.04.37-1.74 0-.12.01-.23.05-.32.55-.17.76 0 .83.32.1.48-.12 1.27-.01 1.74 1.25.42.729-.92.83-1.65.02-.03.029-.06.04-.09.27-.47.319-.35.329 0 .021.62-.13 1.94.45 1.74.761.05.33-1.1.4-1.74.04-.35.229-.55.84-.32v3.71h-6.61l.001-3.39zM622.5 91.6v-.32c.29.02.49.14.61.32.279.38.25 1.05.21 1.74.68-.08.359-1.17.55-1.74.04-.15.13-.27.28-.32.279-.02.399.11.439.32.11.47-.18 1.33-.03 1.74 1.24.42.73-.92.83-1.65.021-.03.03-.06.04-.09.271-.48.32-.35.33 0 .021.62-.13 1.94.45 1.74.76.05.33-1.1.4-1.74.04-.35.229-.55.84-.32v2.06c1.22.37.8-.89.8-1.74 0-.12.01-.23.03-.32.279.03.47.14.6.32.51.69.08 2.33.23 3.39h-6.61l.001-3.39zM646.87 91.6v-.32c.56-.17.77 0 .83.32.109.48-.12 1.27-.01 1.74 1.25.42.739-.92.829-1.65.021-.03.03-.06.051-.09.26-.47.319-.35.319 0 .021.62-.13 1.94.46 1.74.761.06.36-1.04.36-1.74 0-.12.021-.23.05-.32.29.02.49.13.62.32.271.38.25 1.05.21 1.74.67-.08.351-1.17.54-1.74.05-.15.13-.27.28-.32.31-.05.43.09.47.32.08.62-.479 1.88.36 1.74.76.05.33-1.1.399-1.74.04-.35.23-.55.841-.32v3.71h-6.61l.001-3.39zM665.46 94.99h-6.2v-3.3l.03-.09c.18-.47.29-.34.35 0 .08.49.07 1.43.03 1.74 1.22.37.8-.89.8-1.74 0-.12.011-.23.03-.32.56-.17.77 0 .84.32.101.48-.12 1.27-.01 1.74 1.24.42.729-.92.82-1.65.02-.03.029-.06.05-.09.26-.48.319-.35.33 0 .01.62-.141 1.94.45 1.74.76.05.329-1.1.399-1.74.04-.35.22-.55.84-.32v2.06c1.24.42.73-.92.83-1.65l.061-.09c.14-.18.229-.15.29 0 .2.55-.03 2.73.06 3.39zM616.71 95.41v19.41c-1.4.66-5.2.66-6.61 0v-6.51-12.9h6.61zM622.5 108.31v-12.9h6.61c-.63 2.55 1.159 2.69.819 4.95 1.391.43.65-1.28.83-2.06.9-.07.19 1.47.41 2.06 1.39.43.65-1.28.83-2.06 1.74-.64.06 2.14 1.24 2.06.89.07.18-1.46.41-2.06.58 2.9.51 6.44.42 10.01-.051 2.36-.12 4.73-.011 6.93-1.149-1.44-.93-4.25-.84-6.93.09-2.45.061-4.8-1.22-5.88-1.99.7-2.23 3.12-2.16 5.88.061 2.2.34 4.61.09 6.51-2.04.58-4.83.41-7.43.42.002-2.31.002-4.62.002-6.93zM665.46 95.41v19.83h-6.2v-6.93-12.9h6.2zM604.73 108.31c.06-3.57.159-6.98 0-10.01 1.39-.43.649 1.28.829 2.06 1.391.43.641-1.28.82-2.06 1.39-.43.65 1.28.83 2.06 1.39.43.65-1.28.83-2.06 1.38-.43.64 1.28.83 2.06.89.07.18-1.46.41-2.06.569 2.9.51 6.44.43 10.01-.06 2.36-.13 4.73-.02 6.93-1.641-.16-3.96.37-4.96-.42-.049-2.2-.029-4.38.001-6.51zM617.06 108.31c.03-3.21.221-6.58.061-9.6.479-1.33.47 1.11.42 1.65 1.39.43.64-1.28.83-2.06 1.729-.64.06 2.14 1.229 2.06 1.181.08-.5-2.7 1.24-2.06.23.6-.479 2.13.42 2.06.891.07.181-1.46.41-2.06.58 2.9.51 6.44.43 10.01-.06 2.36-.13 4.73-.02 6.93-1.15-1.44-.93-4.25-.84-6.93.09-2.45.06-4.8-1.221-5.88-2.06.61-2.22 3.12-2.13 5.88.091 2.51.391 5.23-.35 6.93-.419-2.05-.499-4.45-.479-6.93zM641.91 108.31v-9.6c.479-1.33.47 1.11.42 1.65 1.38.43.64-1.28.82-2.06 1.39-.43.64 1.28.83 2.06.89.07.18-1.46.409-2.06 1.74-.64.061 2.14 1.24 2.06.89.07.19-1.46.41-2.06.31 3.83.52 7.09.57 10.01.04 2.03-.011 3.9-.15 5.68-.03.32-.04.49-.06.54 0 .01 0 .01 0 0-.011-.21.149-3.38-.011-6.22-.06-1.11-.159-2.17-.35-2.99-.28-1.22-.71-1.63-1.65-2.89-.64.32-1.68 1.3-2.06 2.89-.19.78-.271 1.85-.29 2.99-.07 4.26.72 9.45-.13 3.62.002-1.21.002-2.41.002-3.62zM665.87 108.31v-9.6c.479-1.33.47 1.11.41 1.65 1.87.64-.21-2.69 1.66-2.06v2.06c1.38.43.64-1.28.819-2.06 1.391-.43.641 1.28.83 2.06 1.17.08-.5-2.7 1.24-2.06V115.24h-4.96l.001-6.93zM646.87 108.31v-12.9h6.61c-.631 2.55 1.159 2.69.819 4.95 1.391.43.65-1.28.83-2.06 1.74-.64.07 2.14 1.24 2.06.899.07.189-1.46.41-2.06.899-.07.189 1.47.41 2.06 1.88.64-.21-2.69 1.659-2.06V115.24c-1.18-1.41-.989-4.27-.85-6.93.16-2.99.27-5.73-1.63-5.88-1.61-.13-2.03 2.73-2.101 5.88-.06 2.64.12 5.48.03 6.93-1.43-.45-4.819.29-7.43 0 .003-2.31.003-4.62.003-6.93z" stroke-width="1.089"/><path d="M804.25 332.74h1c3.81 3.6 3.43 12.26 1 17.4-9.32 1.32-17.22 5.1-19-7.46 3.38-1.18 7.57-1.36 7-7.46 3.29 1.88 8.55 1.38 10-2.48z" stroke-width="5"/><path d="M796.25 337.71c-.6 3.82-2.43 6.1-6 6.22.62 3.78 2.22 6.35 6 6.21.86-3.49 5.41-2.39 9-2.48 3.34-9.9-.81-12.3-9-9.95zM772.25 364.25c1.42-6.18 12.26-6.48 16-2.49 4.64 12.55-16.11 15.37-16 2.49z" stroke-width="5"/><path d="M774.25 364.25c.23 8.18 12.77 8.18 13 0a8.106 8.106 0 0 0-13 0z" stroke-width="5"/><path d="M801.25 372.3c-.12 3.59.55 8.14-1 9.95-3.21 2.22-9.42.72-13 2.49-2.81 3.55-3.03 10.32-10 8.7-1.66-2.96.56-9.43 1-13.68 11.28 2.68 11.32-14.73 23-7.46z" stroke-width="4"/><path d="M779.25 382.25c.8 4.31-1.49 4.78-1 8.7 6.75 2.18 4.36-7.01 8-8.7 4.9.29 7.57-2.19 13-1.24v-7.46c-10.98-2.47-9.72 10.3-20 8.7z" stroke-width="4"/><path d="M803.25 396.15v14.92c-1.43 1.53-1.89 4.27-2 7.46-11.59 1.75-11.58 17.92-14 31.081-12.7-.86-20.12 4.83-25 13.68-9.02.79-15.54-4.4-22 0-1.5 4.35-.64 11.64-4 13.68-7.94.34-10.4-6.14-17-7.46-4.45-.979-1.97 6.66-6 6.21-3.1-29.17 23.51-32.069 29-54.71 10.93-4.28 20.65-3.91 29-8.7 9.97-5.71 14.26-24.42 29-22.38 1.48 1.469 1.56 4.699 3 6.219z" stroke-width="7"/><path d="M771.25 414.8c-8.09 4.11-16.6 4.1-27 7.46-5.76 20.19-28.54 25.851-29 48.49 5.03-10.52 14.27 7.31 21 2.49-.51-17.15 14.01-13.69 26-12.44 3.52-10.13 12.78-13.12 24-13.68 1.08-14.82 3.37-28.14 14-31.08 1.12-6.55 2.25-18.93-1-23.62-13.84-.71-17.89 17.23-28 22.38zM132.25 454.58c1.54 23.06-13.06 29.84-9 52.22-2.78 5.25-8.68 6.62-13 9.95-1.44 4.01-.95 10.43-1 16.17-18.47 1.08-8.23-34.82-13-53.47-2.86-11.2-15.54-15.5-8-29.84 2.59-1.33 4.9-3.021 9-2.49 1.16-6.43.67-14.91 6-16.16 5.34.83 5.48 8.11 9 11.19 10.32-.39 15.72 5.33 20 12.43z" stroke-width="7"/><path d="M112.25 444.64c-4.19-2.149-6.15-12.649-10-11.189-2.34 4.13-2.57 10.89-4 16.16-2.88.149-6.55-.681-8 1.239-7.98 11.71 3.91 15.2 7 26.12 4.74 16.73-3.83 49.15 10 53.46-2.55-16.84 7.54-17.979 14-23.63-4.45-22.83 10.64-27.95 9-50.97-3.82-6.45-8.3-12.06-18-11.19z" stroke-width="7"/><path d="M743.25 491.76v6.221c-3.84 3.5-10.29 2.949-12-2.49-.31-6.921 9.14-8.161 12-3.731z" stroke-width="4"/><path d="M733.25 493.01c-.59 6.44 8.46 6.48 9 1.24-1.33-2.51-6.69-3.75-9-1.24z" stroke-width="4"/><path d="M642.57 608.89c.87-3.649.189-7.76 1.68-11.319 3.94-9.45 16.71-15.601 15-29.84 9.26-5.891 12.15-19.7 19-28.601V526.7c2.47-3.561 7.22-4.29 9-8.7 1.89-6.36.65-16.6 1-24.87 7.42 4.97 19.35 1 28 0 3.39 3.4 7.16 9.46 7 14.92-.14 4.9-5.81 9.78-7 16.16-1.22 6.56 1.14 15.09 0 21.14-1.08 5.721-6.34 9.9-9 16.16-6.6 15.54-8.98 31.3-11.6 47.32-.131.81-.271 1.61-.4 2.42-6.3-3.14-11.8-.61-18-2.49-3.6 1.74-2.03 9.91-5 12.431-4.23 1.38-9.51 1.439-15 1.25-1.77 4.02-1.7 10.319-4 13.67-12.37-.051-27.15-3.08-25 14.93-14.54-1.78-36.71 8.06-42-7.47 3.82-8.29 11.54-4.5 16-4.971 16.28-1.71 30.19-8 37.62-22.909a45.439 45.439 0 0 0 2.38-5.69c.13-.361.23-.731.32-1.111z" stroke-width="7"/><path d="M707.08 561.44c3.09-6.921 5.89-13.45 7.17-18.58 1.42-5.7-.74-10.36 0-16.16.86-6.72 6.85-12.7 7-18.65.47-19.17-17.34-8.92-32-11.189 3.36 15.88-1.5 26.479-9 32.33-2.11 2.76 1.05 5.989 0 11.189-5.8 2.32-4.55 9.9-8 16.16-2.67 4.84-8.64 7.53-11 12.43-1.91 3.971-1.36 9.87-3 13.681-2.55 5.93-8.38 9.26-11 14.92-1.87 4.029-3.33 7.8-4.68 11.319-.92 2.37-1.78 4.641-2.7 6.801-2.68 6.34-5.76 11.829-11.62 16.689-.56.46-1.14.91-1.76 1.34-4.271 3-9.771 5.141-15.24 6.12-6.58 1.18-15.86-2.52-23 4.98 7.04 9.47 26.14 3.359 38 3.729-.13-6.609 1.98-10.42 5.44-12.569 4.989-3.101 12.77-2.73 20.56-2.351 2.63-2.12 1.01-9.53 3-12.439 3.29-2.54 10.13-.671 15-1.24 3.22-2.63 1.96-10.83 6-12.431 8.08-1.21 11.8-.55 19 1.24v-14.92c1.12-8.989 6.84-21.199 11.83-32.399zM343.25 549.08c-23.39 10.29-39.27 29.91-40 68.38-15.7-4.18-17.32 9.14-21 19.9-13.17-.761-24.8 5-30 9.939-4.43-10.71-9.41-22.17-13-34.81-2.87-10.101-2.12-22.05-5-32.33-1.36-4.87-8.21-12.96-8-18.65.99-26.859 41.19-6.29 59-8.7 10.5-1.42 19.31-7.869 25-16.159 8.11-11.82 15.05-31.67 38-24.87 3.61 4.93 9.29 6.88 9 12.43-.4 7.62-4.16 2.33-8 7.46-4.46 5.97-2.21 13.83-6 17.41z" stroke-width="7"/><path d="M349.25 514.26c-26.64-7.649-30.57 15.641-40 27.36-8.54 10.61-18.64 13.149-27 13.67-14.77.94-52.79-16.41-54 6.22-.24 4.58 5.82 12.34 7 16.17 2.65 8.61 1.71 19.311 4 29.84 3.13 14.4 11.49 25.211 13 37.301 7.02-7.99 16.71-8.261 28-8.71 4.99-9.95 5.69-25.25 22-21.13-.42-39.07 16.62-56.421 39-67.141 3.64-9.149 7.18-18.43 14-23.63 1.82-3.15-5.48-5.58-6-9.95zM189.25 605.03c1.96 9.81 1.35 21.859-5 24.87-5.39.069-9.11-1.94-14-2.49-2.86.17-1.83 5.189-2 8.7-17.95-2.96-24.84-19.681-25-44.761 9.27-.38 21.39 4.74 26-3.729 7.65 4.58 10.11 15.62 20 17.41z" stroke-width="7"/><path d="M145.25 593.84c-.14 22.141 7.02 35.2 21 39.79.39-3.25.51-6.82 2-8.71 5.88.521 12.47 4.11 18 1.25 2.79-3.689 2.53-14.6 1-19.9-8.21-2.229-12-9.949-17-16.159-5.4 7.159-15.43 3.929-25 3.729zM445.25 699.52c-4.02 2.881-13.08-.51-17 2.49-4.07.33-2.13 8.12-4 11.19-8.23 1.42-18.18-10.33-23-1.24-23.63-.57-27.22-51.38-11-65.9.08-4.04.52-7.649 2-9.949 3.13-3.98 7.16-6.841 7-14.92 6.04-.46 7.42 4.859 14 3.729 2.19-.18 2.15-3.13 2-6.21 6.02 3.78 32.31 3.48 37 12.43 11.3 21.55-7.61 45.97-7 68.38z" stroke-width="7"/><path d="M451.25 633.63c-3.09-7.01-7.16-4.7-16-6.22-9.98-1.71-17.73-12.141-21 0-6.29.77-8.46-3.57-14-3.73v9.95c-3.59-.729-4.84 1.44-7 2.48 2.32 10.34-7.48 16.199-10 24.87-6.31 21.689 2.06 43.729 17 48.489 4.91-9.189 14.85 2.561 23 1.24-1.1-13.8 9.99-12.45 20-12.43.64-18.609 16.37-45.679 8-64.649zM74.25 725.63h-6c-7.34-2.89-11.56-9.66-21-9.939-.79-28.341 20.54-29.171 42-29.841-1.48 8.931-3.33 17.41-8 22.381-3.75.909-5.59.71-9-1.24-1.71 3.709 5.44 12.669 2 18.639z" stroke-width="7"/><path d="M48.25 713.2c10.12 1.1 14.02 9.92 25 9.95.28-9.061-4.69-11.58-4-21.141 2.75 2.391 5.51 4.75 10 4.98 5.01-3.311 6.1-11.49 8-18.66-20.05-.479-36.77 3.191-39 24.871z" stroke-width="7"/></g><path fill-rule="evenodd" clip-rule="evenodd" fill="none" d="M.25.25h850.394v850.394H.25z"/></svg>