<?xml version="1.0" encoding="iso-8859-1"?>
<!-- Generator: Adobe Illustrator 12.0.1, SVG Export Plug-In . SVG Version: 6.00 Build 51448)  -->
<!DOCTYPE svg PUBLIC "-//W3C//DTD SVG 1.1//EN" "http://www.w3.org/Graphics/SVG/1.1/DTD/svg11.dtd" [
	<!ENTITY ns_svg "http://www.w3.org/2000/svg">
	<!ENTITY ns_xlink "http://www.w3.org/1999/xlink">
]>
<svg  version="1.1" id="Layer_1" xmlns="&ns_svg;" xmlns:xlink="&ns_xlink;" width="850.89" height="850.89"
	 viewBox="0 0 850.89 850.89" style="overflow:visible;enable-background:new 0 0 850.89 850.89;" xml:space="preserve">
<g>
	<g id="XMLID_2_">
		<g>
			<path style="fill:#FFFFFF;" d="M761.58,115.05c-3.58,0.88-5.87,2.91-8.22,4.89c-1.25-1.95,1.87-5.24,2.05-7.94
				c-1.59-2.66-5.09-3.61-7.54-5.5c1.85-1.4,6.61-0.21,9.6-0.61c1.94-2.14,1.07-6.78,4.11-7.94c-0.12,3.36,2.12,4.63,2.06,7.94
				c3.431,0,6.851,0,10.28,0c-1.79,2.48-5.45,3.29-7.54,5.5c0.34,3.36,2.11,5.44,2.74,8.55
				C766.23,118.65,763.99,116.77,761.58,115.05z"/>
			<path style="fill:#FFFFFF;" d="M717.71,97.35c2.97,0,5.94,0,8.91,0c2.22-1.7,2.64-4.98,3.43-7.94
				c1.931,1.94,2.36,5.23,3.431,7.94c3.199,0,6.399,0,9.6,0c-1.32,2.89-4.811,3.85-7.55,5.49c1.43,2.39,1.71,5.8,3.43,7.93
				c-2.65,0.93-5.54-3.18-8.22-4.27c-2.9,1.29-5.141,3.16-7.54,4.89c-1.141-1.85,1.33-5.72,2.05-7.94
				C723.3,100.91,719.18,100.31,717.71,97.35z"/>
			<path style="fill:#FFFFFF;" d="M695.09,99.78c-1.62-2.62-4.77-3.88-7.54-5.49c1.851-1.41,6.61-0.22,9.601-0.61
				c1.72-2.13,2-5.55,3.43-7.94c1.71,2.14,2,5.55,3.42,7.94c3.2,0,6.4,0,9.6,0c-1.67,2.59-5.22,3.49-7.54,5.5
				c0.631,3.1,2.4,5.18,2.74,8.54c-2.6-1.55-5.13-3.16-7.54-4.88c-3.41,1.03-5.49,3.25-8.22,4.88
				C692.08,106.03,695.2,102.75,695.09,99.78z"/>
			<path style="fill:#FFFFFF;" d="M662.19,107.72c-1.24-1.94,1.88-5.23,2.06-7.94c-1.45-2.78-5.06-3.62-7.54-5.49
				c1.85-1.41,6.61-0.22,9.6-0.61c1.71-2.13,2-5.55,3.421-7.94c1.72,2.14,2,5.55,3.43,7.94c3.2,0,6.399,0,9.6,0
				c-1.56,2.88-5.979,3.22-7.54,6.1c0.681,2.86,2.061,5.09,2.74,7.94c-2.59-1.55-5.32-2.99-7.54-4.88
				C667.04,103.9,664.73,105.91,662.19,107.72z"/>
			<path style="fill:#FBED24;" d="M647.11,157.79c0.649-0.45,1.04-1.11,1.38-1.83c4.18,0.47,4.34,1.04,7.54,1.83
				c2.489-0.02,3-1.8,2.739-4.28c5.45-1.16,8.4-0.77,12.341-3.05c0.26-2.26-2.78-1.6-2.061-4.27c3.62-2.34,7.79-2.96,9.59-8.55
				c-0.01-3.25-4.199-2.76-4.109-6.11c5.42,0.43,9.31-6.72,12.34-1.22c0.12,1.53-1.54,1.48-2.061,2.45
				c4.37,3.49,8.48,3.66,14.4,4.27c-0.41,2.6,0.49,4.04,0.68,6.11c1.65,0.24,1.49-1.12,3.431-0.62c-0.551,3.14,0.729,4.64,1.37,6.72
				c4.489-0.94,3.52,2.97,8.229,1.83c-1.229,1.76-1.32,4.53-2.06,6.72c2.779-0.18,3.949,1.18,8.909,1.22
				c-1.09,3,3.54,0.92,2.74,3.66c1.32-0.86,2.76-1.61,4.8-1.83c3.221,2.95-2.069,4.27,0,7.94c-4.01,0.64-1.84,4.38-6.17,5.49
				c0.25,2.19,1.841,2.24,0.69,4.28c-1.53,0.47-2.68,1.28-4.8,1.22c-1.05,3.78,2.96,3.06,2.739,6.11c-1.81,1.53-4-0.03-4.8-1.22
				c-2.93,1.99-9.109,3.93-7.54,9.15c-1.43,1.21-2.79,2.04-4.8,1.22c-0.11-3.15-1.71-4.98-4.11-6.1
				c-5.75,5.29-22.3,5.26-16.449,17.09c-2.32,2.55-4.37,1.77-7.54,3.06c-0.44-8.54-0.471-27.35-17.13-26.87
				c2.069-9.23-10.721-11.36-6.17-18.93C650.49,160.89,647.09,160.86,647.11,157.79z"/>
			<path style="fill:#FFFFFF;" d="M627.24,97.35c2.96,0,5.939,0,8.91,0c2.21-1.7,2.64-4.98,3.42-7.94c2.41,1.51,2.35,5.24,3.43,7.94
				c3.43,0,6.85,0,10.28,0c-2.25,2.26-4.971,4.11-8.221,5.49c1.431,2.39,1.71,5.8,3.431,7.93c-2.66,0.93-5.55-3.18-8.23-4.27
				c-2.89,1.29-5.13,3.16-7.54,4.89c-1.13-1.85,1.33-5.72,2.061-7.94C633.1,100.67,628.55,100.45,627.24,97.35z"/>
			<path style="fill:#FFFFFF;" d="M610.1,115.05c-2.89,1.29-5.619,2.73-7.54,4.89c-1.279-1.99,0.971-6.05,2.061-7.94
				c-2.26-2.27-4.98-4.12-8.23-5.5c1.851-1.4,6.61-0.21,9.601-0.61c1.87-2.2,2.689-5.33,3.42-8.54c1.64,2.4,2.37,5.62,3.43,8.54
				c3.43,0,6.86,0,10.28,0c-2.58,1.98-5.33,3.8-8.22,5.5c1.149,2.63,2.119,5.43,2.739,8.55
				C615.23,118.22,612.52,116.77,610.1,115.05z"/>
			<path style="fill:#394EA1;" d="M757.47,105.89c-2.989,0.4-7.75-0.79-9.6,0.61c2.45,1.89,5.95,2.84,7.54,5.5
				c-0.18,2.7-3.3,5.99-2.05,7.94c2.35-1.98,4.64-4.01,8.22-4.89c2.41,1.72,4.65,3.6,7.54,4.89c-0.63-3.11-2.4-5.19-2.74-8.55
				c2.09-2.21,5.75-3.02,7.54-5.5c-3.43,0-6.85,0-10.28,0c0.061-3.31-2.18-4.58-2.06-7.94C758.54,99.11,759.41,103.75,757.47,105.89
				z M730.74,106.5c2.68,1.09,5.569,5.2,8.22,4.27c-1.72-2.13-2-5.54-3.43-7.93c2.739-1.64,6.229-2.6,7.55-5.49c-3.2,0-6.4,0-9.6,0
				c-1.07-2.71-1.5-6-3.431-7.94c-0.79,2.96-1.21,6.24-3.43,7.94c-2.97,0-5.94,0-8.91,0c1.47,2.96,5.59,3.56,7.54,6.1
				c-0.72,2.22-3.19,6.09-2.05,7.94C725.6,109.66,727.84,107.79,730.74,106.5z M697.15,93.68c-2.99,0.39-7.75-0.8-9.601,0.61
				c2.771,1.61,5.92,2.87,7.54,5.49c0.11,2.97-3.01,6.25-2.05,7.94c2.729-1.63,4.81-3.85,8.22-4.88c2.41,1.72,4.94,3.33,7.54,4.88
				c-0.34-3.36-2.109-5.44-2.74-8.54c2.32-2.01,5.87-2.91,7.54-5.5c-3.199,0-6.399,0-9.6,0c-1.42-2.39-1.71-5.8-3.42-7.94
				C699.15,88.13,698.87,91.55,697.15,93.68z M664.25,99.78c-0.18,2.71-3.3,6-2.06,7.94c2.54-1.81,4.85-3.82,8.229-4.88
				c2.22,1.89,4.95,3.33,7.54,4.88c-0.68-2.85-2.06-5.08-2.74-7.94c1.561-2.88,5.98-3.22,7.54-6.1c-3.2,0-6.399,0-9.6,0
				c-1.43-2.39-1.71-5.8-3.43-7.94c-1.421,2.39-1.711,5.81-3.421,7.94c-2.989,0.39-7.75-0.8-9.6,0.61
				C659.19,96.16,662.8,97,664.25,99.78z M656.03,157.79c-3.2-0.79-3.36-1.36-7.54-1.83c-0.34,0.72-0.73,1.38-1.38,1.83
				c-0.021,3.07,3.38,3.1,4.12,5.49c-4.551,7.57,8.239,9.7,6.17,18.93c16.659-0.48,16.689,18.33,17.13,26.87
				c3.17-1.29,5.22-0.51,7.54-3.06c-5.851-11.83,10.699-11.8,16.449-17.09c2.4,1.12,4,2.95,4.11,6.1c2.01,0.82,3.37-0.01,4.8-1.22
				c-1.569-5.22,4.61-7.16,7.54-9.15c0.8,1.19,2.99,2.75,4.8,1.22c0.221-3.05-3.789-2.33-2.739-6.11c2.12,0.06,3.27-0.75,4.8-1.22
				c1.15-2.04-0.44-2.09-0.69-4.28c4.33-1.11,2.16-4.85,6.17-5.49c-2.069-3.67,3.221-4.99,0-7.94c-2.04,0.22-3.479,0.97-4.8,1.83
				c0.8-2.74-3.83-0.66-2.74-3.66c-4.96-0.04-6.13-1.4-8.909-1.22c0.739-2.19,0.83-4.96,2.06-6.72c-4.71,1.14-3.74-2.77-8.229-1.83
				c-0.641-2.08-1.921-3.58-1.37-6.72c-1.94-0.5-1.78,0.86-3.431,0.62c-0.189-2.07-1.09-3.51-0.68-6.11
				c-5.92-0.61-10.03-0.78-14.4-4.27c0.521-0.97,2.181-0.92,2.061-2.45c-3.03-5.5-6.92,1.65-12.34,1.22
				c-0.09,3.35,4.1,2.86,4.109,6.11c-1.8,5.59-5.97,6.21-9.59,8.55c-0.72,2.67,2.32,2.01,2.061,4.27
				c-3.94,2.28-6.891,1.89-12.341,3.05C659.03,155.99,658.52,157.77,656.03,157.79z M640.26,106.5c2.681,1.09,5.57,5.2,8.23,4.27
				c-1.721-2.13-2-5.54-3.431-7.93c3.25-1.38,5.971-3.23,8.221-5.49c-3.431,0-6.851,0-10.28,0c-1.08-2.7-1.02-6.43-3.43-7.94
				c-0.78,2.96-1.21,6.24-3.42,7.94c-2.971,0-5.95,0-8.91,0c1.31,3.1,5.859,3.32,7.54,6.1c-0.73,2.22-3.19,6.09-2.061,7.94
				C635.13,109.66,637.37,107.79,640.26,106.5z M568.51,72.28h233.55v152.13H569.91h-2.38V72.28H568.51z M605.99,105.89
				c-2.99,0.4-7.75-0.79-9.601,0.61c3.25,1.38,5.971,3.23,8.23,5.5c-1.09,1.89-3.34,5.95-2.061,7.94c1.921-2.16,4.65-3.6,7.54-4.89
				c2.42,1.72,5.131,3.17,7.54,4.89c-0.62-3.12-1.59-5.92-2.739-8.55c2.89-1.7,5.64-3.52,8.22-5.5c-3.42,0-6.851,0-10.28,0
				c-1.06-2.92-1.79-6.14-3.43-8.54C608.68,100.56,607.86,103.69,605.99,105.89z"/>
			<path style="fill:#C8C8C8;" d="M567.53,61.89c-2.391,1.13-5.24,1.78-8.29,1.78c-2.931,0-5.66-0.6-7.98-1.64
				c-4.399-1.96-7.34-5.49-7.34-9.52c0-6.17,6.86-11.17,15.32-11.17s15.319,5,15.319,11.17C574.56,56.45,571.76,59.91,567.53,61.89z
				"/>
			<path style="fill:#C8C8C8;" d="M559.24,63.67c3.05,0,5.899-0.65,8.29-1.78v10.39v152.13v106.22h-15.82l-0.45-268.6
				C553.58,63.07,556.31,63.67,559.24,63.67z"/>
			<path style="fill:#FFF5B4;" d="M486.29,606.62c1.29,6.21,5.979,9.03,6.25,16.26c-4.92,2.01-0.43-5.399-3.75-5
				c-6.58,7.03-18.63,13.42-27.521,5c3.421-19.03-12.539-24.53-15.01-41.28c-6.14-1.359-12.63-2.369-17.51-5
				c-17.68,8.62-27.25,31.9-51.28,30.021c-5.25-0.24-3.87,6.14-10.01,5.01c-2.55,5.78-6.21,10.47-11.26,13.75
				c-14.11-6.85-14.02,9.74-28.76,6.26c-5.14,2.78-4.02,11.83-11.26,12.511c-1.04,12.27-8.33,30.619,2.5,42.529
				c0.59,3.92-3.37,3.301-3.75,6.25c0.4,5.84,7.09,5.41,7.5,11.261c-10.4,7.52-14.37,21.479-27.52,26.26
				c-2.51-2.9-4.55-6.28-8.75-7.5c-6.67,0-6.34,7-11.26,8.76c-9.81-2.29-9.04-15.15-13.76-22.52c4.21-9.96,17.73-10.62,15.01-27.521
				c-8.62-17.85-9.95-35.28-22.51-48.78c5.73-6.489,0.12-10.17,3.75-18.76c-10.74-23.88-16.05-64.78-51.29-71.3
				c-1.81-6.11-6.1-9.74-13.75-10.01c-1.96-3.88-3.48-8.2-7.51-10c-5.3-0.301-6.36,3.649-10.01,5c-4.09-4.24-9.72-1.351-16.26-1.25
				c-4.76-13.87-0.14-28.25-13.76-36.271c10.54-5.399,1.32-17.979-5-21.27c4.68-5.23-1.94-5.91-3.75-8.75
				c-2.56-4.021-2.16-11.62-3.75-13.761c-7.23-9.739-25.73-10.489-28.77-23.77c2.7-16.38-4.07-31.91,10-42.53
				c-10.84-11.67-35.48-9.54-42.52-25.01c0.3-2.2,2.15-2.85,5-2.5c-1.8-4.63-0.08-7.19-1.25-13.76c8-3.26,14.79-7.72,21.26-12.51
				c14.72,4.53,29.68,13.22,43.78,11.26c4.41-1.02,1.07-9.78,8.76-7.51c0.03-2.95-2.16-3.68-1.25-7.5
				c9.6-3.06,12.76-22.55,26.26-13.76c4.58-0.43,5.73-4.29,7.51-7.51c9,3.82,13.29-2.93,20.01-5c4.92,0.5,5.34,5.5,10.01,6.25
				c12.77-1.4,10.61-17.74,26.27-16.26c1.31-4.1,8.57-2.26,8.75-7.5c-6.39-6.13-12.84-12.18-16.26-21.27
				c3.31-5.86,6.25-12.1,11.26-16.26c2.49,1.26,1.97,5.53,6.25,5.01c4.43-6.84,8.75-13.77,12.51-21.27
				c15.02,11.42,16.95-7.53,28.77-10c-2.49-7.79-0.14-13.76-6.26-18.77c18.27,2.05,14.37-27,1.26-27.52
				c4.84-10.53-6.39-15.1-16.26-15c6.1-5.22,0.25-12.45-3.76-15.02c10.01,1.17,14.24-1.66,27.52-1.25
				c4.56-5.86,11.13-9.71,13.76-17.51c6.12,2.23,14.1,2.59,21.26,3.76c3.23-1.72,0.28-7.67,0-10.01c1.82-1.93,6.41-1.1,10.01-1.25
				c4.54,7.97,11.7,13.32,15.01,22.51c-2.75,2.67-10.67,0.18-11.26,5.01c-0.86,3.36,2.59,2.41,3.75,3.75
				c-1.32,3.67-7.52,2.48-8.75,6.25c2.2,6.9,9.69,7.61,16.26,6.26c5.4,3.06,6.58,12.27,15.01,8.75c0.11,6.56,5.81,7.53,8.76,11.26
				c14.15-6.36,24.58-8.33,32.52,7.51c5.13,0.13,5.01-5,11.25-3.76c0.63-3.93-2.72-4.89,0-7.5c5.16,3.63,6.41,13.43,16.27,8.75
				c-0.99,4.33,1.391,5.28,2.5,7.51c0.2,3.53-3.76,2.91-3.76,6.25c4.98,5.87,1.65,20.04,10.01,22.52c0.601,3.93-1.779,4.89-2.5,7.5
				c2.86,1.31,3.48,4.87,6.25,6.26c4.681,1.33,3.57-3.11,7.51-2.51c-1.31-3.54-1.31-5.21,0-8.75c12.65,2.48,13.011,19.9,10,31.27
				c4.561,10.04,10.48,18.71,16.271,27.52c3.39-6.75,11.479-4.41,20.01-3.76c-0.38,15.91,11.83,15.66,26.271,11.26
				c4.54,11.37-9.08,15.95-3.761,28.77c-1.659,0-3.329,0-5,0c0.08,5.48-2.77,10.96,1.25,13.76c-3.229,2.61-5.329,6.35-8.75,8.76
				c0.53,2.38,2.69,3.14,2.5,6.25c9.24-0.48,20-5.45,22.511,3.75c4.67,1.33,1.979-4.69,6.26-3.75c11.1,13.04,24.439,0.75,35.02,8.76
				c1.341,4.67-3.109,3.56-2.5,7.5c4.511,2.65,11.28,8.82,16.261,3.75c4.899,3.02,2.05,13.79,8.75,15.01
				c3.689,0.27,7.63-5.6,5.01-7.5c4.729-5.69,18-2.85,25.01-6.25c0.71,8.87,5.28,13.89,10.01,18.76
				c-1.76,7.41-15.279,3.06-11.26,16.26c-0.84,2.9-5.68,1.82-6.25,5c-0.59,5.17,2.95,6.22,5,8.76c-0.45,5.95-0.68,9.35-1.25,12.5
				c-6.27,1.74-12.87,1.72-17.51,7.51c-0.32,4.48,3.75,4.58,3.75,8.75c-10.67,7.681-16.07,20.63-26.271,28.771
				c2.83,8.29,4.23,13.029,8.761,17.51c-4.721,4.05-6.11,11.41-10.011,16.27c-4.64,0.471-3.27-5.069-8.75-3.76
				c-7.27,0.79-3.68,6.16-7.51,8.76c-5.85,1.261-4.149-5.02-10-3.75c-4.05,8.561-4.07,21.69,1.25,31.271
				c5.36,1.189,4.83-3.51,8.75-3.75c4.62,15.21,11.28,26-10,27.51c0.34-11.6-8.28-14.24-16.26-17.51c-4.42,1.26-2.29,2.16-3.76,5.01
				c-2.38-0.54-2.261-3.58-6.25-2.51c-4.851,6.5-0.83,12.979-1.25,21.27c-5.71-0.54-5.73-6.779-10.011-8.76
				c-2.939-0.03-3.68,2.16-7.5,1.25c-4.439,7.66-9.17,15.03-17.52,18.76C495.98,591.29,490.48,598.31,486.29,606.62z"/>
		</g>
		<g>
			<polyline style="fill:none;stroke:#231F20;stroke-width:7;" points="568.51,72.28 802.06,72.28 802.06,224.41 569.91,224.41 			
				"/>
			<path style="fill:none;stroke:#231F20;stroke-width:7;" d="M551.26,62.03c-4.399-1.96-7.34-5.49-7.34-9.52
				c0-6.17,6.86-11.17,15.32-11.17s15.319,5,15.319,11.17c0,3.94-2.8,7.4-7.029,9.38c-2.391,1.13-5.24,1.78-8.29,1.78
				C556.31,63.67,553.58,63.07,551.26,62.03z"/>
			<polyline style="fill:none;stroke:#231F20;stroke-width:7;" points="551.26,61.73 551.26,62.03 551.71,330.63 			"/>
			<polyline style="fill:none;stroke:#231F20;stroke-width:7;" points="567.53,61.17 567.53,61.89 567.53,72.28 567.53,224.41 
				567.53,330.63 			"/>
			<path style="fill:none;stroke:#231F20;stroke-width:2;" d="M682.76,93.68c-1.56,2.88-5.979,3.22-7.54,6.1
				c0.681,2.86,2.061,5.09,2.74,7.94c-2.59-1.55-5.32-2.99-7.54-4.88c-3.38,1.06-5.689,3.07-8.229,4.88
				c-1.24-1.94,1.88-5.23,2.06-7.94c-1.45-2.78-5.06-3.62-7.54-5.49c1.85-1.41,6.61-0.22,9.6-0.61c1.71-2.13,2-5.55,3.421-7.94
				c1.72,2.14,2,5.55,3.43,7.94C676.36,93.68,679.56,93.68,682.76,93.68z"/>
			<path style="fill:none;stroke:#231F20;stroke-width:2;" d="M648.49,110.77c-2.66,0.93-5.55-3.18-8.23-4.27
				c-2.89,1.29-5.13,3.16-7.54,4.89c-1.13-1.85,1.33-5.72,2.061-7.94c-1.681-2.78-6.23-3-7.54-6.1c2.96,0,5.939,0,8.91,0
				c2.21-1.7,2.64-4.98,3.42-7.94c2.41,1.51,2.35,5.24,3.43,7.94c3.43,0,6.85,0,10.28,0c-2.25,2.26-4.971,4.11-8.221,5.49
				C646.49,105.23,646.77,108.64,648.49,110.77z"/>
			<path style="fill:none;stroke:#231F20;stroke-width:2;" d="M735.53,102.84c1.43,2.39,1.71,5.8,3.43,7.93
				c-2.65,0.93-5.54-3.18-8.22-4.27c-2.9,1.29-5.141,3.16-7.54,4.89c-1.141-1.85,1.33-5.72,2.05-7.94c-1.95-2.54-6.07-3.14-7.54-6.1
				c2.97,0,5.94,0,8.91,0c2.22-1.7,2.64-4.98,3.43-7.94c1.931,1.94,2.36,5.23,3.431,7.94c3.199,0,6.399,0,9.6,0
				C741.76,100.24,738.27,101.2,735.53,102.84z"/>
			<path style="fill:none;stroke:#231F20;stroke-width:2;" d="M614.9,111.39c1.149,2.63,2.119,5.43,2.739,8.55
				c-2.409-1.72-5.12-3.17-7.54-4.89c-2.89,1.29-5.619,2.73-7.54,4.89c-1.279-1.99,0.971-6.05,2.061-7.94
				c-2.26-2.27-4.98-4.12-8.23-5.5c1.851-1.4,6.61-0.21,9.601-0.61c1.87-2.2,2.689-5.33,3.42-8.54c1.64,2.4,2.37,5.62,3.43,8.54
				c3.43,0,6.86,0,10.28,0C620.54,107.87,617.79,109.69,614.9,111.39z"/>
			<path style="fill:none;stroke:#231F20;stroke-width:2;" d="M755.41,112c-1.59-2.66-5.09-3.61-7.54-5.5
				c1.85-1.4,6.61-0.21,9.6-0.61c1.94-2.14,1.07-6.78,4.11-7.94c-0.12,3.36,2.12,4.63,2.06,7.94c3.431,0,6.851,0,10.28,0
				c-1.79,2.48-5.45,3.29-7.54,5.5c0.34,3.36,2.11,5.44,2.74,8.55c-2.89-1.29-5.13-3.17-7.54-4.89c-3.58,0.88-5.87,2.91-8.22,4.89
				C752.11,117.99,755.23,114.7,755.41,112z"/>
			<path style="fill:none;stroke:#231F20;stroke-width:4;" d="M669.05,146.19c3.62-2.34,7.79-2.96,9.59-8.55
				c-0.01-3.25-4.199-2.76-4.109-6.11c5.42,0.43,9.31-6.72,12.34-1.22c0.12,1.53-1.54,1.48-2.061,2.45
				c4.37,3.49,8.48,3.66,14.4,4.27c-0.41,2.6,0.49,4.04,0.68,6.11c1.65,0.24,1.49-1.12,3.431-0.62c-0.551,3.14,0.729,4.64,1.37,6.72
				c4.489-0.94,3.52,2.97,8.229,1.83c-1.229,1.76-1.32,4.53-2.06,6.72c2.779-0.18,3.949,1.18,8.909,1.22
				c-1.09,3,3.54,0.92,2.74,3.66c1.32-0.86,2.76-1.61,4.8-1.83c3.221,2.95-2.069,4.27,0,7.94c-4.01,0.64-1.84,4.38-6.17,5.49
				c0.25,2.19,1.841,2.24,0.69,4.28c-1.53,0.47-2.68,1.28-4.8,1.22c-1.05,3.78,2.96,3.06,2.739,6.11c-1.81,1.53-4-0.03-4.8-1.22
				c-2.93,1.99-9.109,3.93-7.54,9.15c-1.43,1.21-2.79,2.04-4.8,1.22c-0.11-3.15-1.71-4.98-4.11-6.1
				c-5.75,5.29-22.3,5.26-16.449,17.09c-2.32,2.55-4.37,1.77-7.54,3.06c-0.44-8.54-0.471-27.35-17.13-26.87
				c2.069-9.23-10.721-11.36-6.17-18.93c-0.74-2.39-4.141-2.42-4.12-5.49c0.649-0.45,1.04-1.11,1.38-1.83
				c4.18,0.47,4.34,1.04,7.54,1.83c2.489-0.02,3-1.8,2.739-4.28c5.45-1.16,8.4-0.77,12.341-3.05
				C671.37,148.2,668.33,148.86,669.05,146.19z"/>
			<path style="fill:none;stroke:#231F20;stroke-width:2;" d="M706.06,99.18c0.631,3.1,2.4,5.18,2.74,8.54
				c-2.6-1.55-5.13-3.16-7.54-4.88c-3.41,1.03-5.49,3.25-8.22,4.88c-0.96-1.69,2.16-4.97,2.05-7.94c-1.62-2.62-4.77-3.88-7.54-5.49
				c1.851-1.41,6.61-0.22,9.601-0.61c1.72-2.13,2-5.55,3.43-7.94c1.71,2.14,2,5.55,3.42,7.94c3.2,0,6.4,0,9.6,0
				C711.93,96.27,708.38,97.17,706.06,99.18z"/>
			<path style="fill:none;stroke:#231F20;stroke-width:7.6626;" d="M181.09,301.42c9,3.82,13.29-2.93,20.01-5
				c4.92,0.5,5.34,5.5,10.01,6.25c12.77-1.4,10.61-17.74,26.27-16.26c1.31-4.1,8.57-2.26,8.75-7.5
				c-6.39-6.13-12.84-12.18-16.26-21.27c3.31-5.86,6.25-12.1,11.26-16.26c2.49,1.26,1.97,5.53,6.25,5.01
				c4.43-6.84,8.75-13.77,12.51-21.27c15.02,11.42,16.95-7.53,28.77-10c-2.49-7.79-0.14-13.76-6.26-18.77
				c18.27,2.05,14.37-27,1.26-27.52c4.84-10.53-6.39-15.1-16.26-15c6.1-5.22,0.25-12.45-3.76-15.02
				c10.01,1.17,14.24-1.66,27.52-1.25c4.56-5.86,11.13-9.71,13.76-17.51c6.12,2.23,14.1,2.59,21.26,3.76
				c3.23-1.72,0.28-7.67,0-10.01c1.82-1.93,6.41-1.1,10.01-1.25c4.54,7.97,11.7,13.32,15.01,22.51c-2.75,2.67-10.67,0.18-11.26,5.01
				c-0.86,3.36,2.59,2.41,3.75,3.75c-1.32,3.67-7.52,2.48-8.75,6.25c2.2,6.9,9.69,7.61,16.26,6.26c5.4,3.06,6.58,12.27,15.01,8.75
				c0.11,6.56,5.81,7.53,8.76,11.26c14.15-6.36,24.58-8.33,32.52,7.51c5.13,0.13,5.01-5,11.25-3.76c0.63-3.93-2.72-4.89,0-7.5
				c5.16,3.63,6.41,13.43,16.27,8.75c-0.99,4.33,1.391,5.28,2.5,7.51c0.2,3.53-3.76,2.91-3.76,6.25
				c4.98,5.87,1.65,20.04,10.01,22.52c0.601,3.93-1.779,4.89-2.5,7.5c2.86,1.31,3.48,4.87,6.25,6.26c4.681,1.33,3.57-3.11,7.51-2.51
				c-1.31-3.54-1.31-5.21,0-8.75c12.65,2.48,13.011,19.9,10,31.27c4.561,10.04,10.48,18.71,16.271,27.52
				c3.39-6.75,11.479-4.41,20.01-3.76c-0.38,15.91,11.83,15.66,26.271,11.26c4.54,11.37-9.08,15.95-3.761,28.77
				c-1.659,0-3.329,0-5,0c0.08,5.48-2.77,10.96,1.25,13.76c-3.229,2.61-5.329,6.35-8.75,8.76c0.53,2.38,2.69,3.14,2.5,6.25
				c9.24-0.48,20-5.45,22.511,3.75c4.67,1.33,1.979-4.69,6.26-3.75c11.1,13.04,24.439,0.75,35.02,8.76
				c1.341,4.67-3.109,3.56-2.5,7.5c4.511,2.65,11.28,8.82,16.261,3.75c4.899,3.02,2.05,13.79,8.75,15.01
				c3.689,0.27,7.63-5.6,5.01-7.5c4.729-5.69,18-2.85,25.01-6.25c0.71,8.87,5.28,13.89,10.01,18.76
				c-1.76,7.41-15.279,3.06-11.26,16.26c-0.84,2.9-5.68,1.82-6.25,5c-0.59,5.17,2.95,6.22,5,8.76c-0.45,5.95-0.68,9.35-1.25,12.5
				c-6.27,1.74-12.87,1.72-17.51,7.51c-0.32,4.48,3.75,4.58,3.75,8.75c-10.67,7.681-16.07,20.63-26.271,28.771
				c2.83,8.29,4.23,13.029,8.761,17.51c-4.721,4.05-6.11,11.41-10.011,16.27c-4.64,0.471-3.27-5.069-8.75-3.76
				c-7.27,0.79-3.68,6.16-7.51,8.76c-5.85,1.261-4.149-5.02-10-3.75c-4.05,8.561-4.07,21.69,1.25,31.271
				c5.36,1.189,4.83-3.51,8.75-3.75c4.62,15.21,11.28,26-10,27.51c0.34-11.6-8.28-14.24-16.26-17.51c-4.42,1.26-2.29,2.16-3.76,5.01
				c-2.38-0.54-2.261-3.58-6.25-2.51c-4.851,6.5-0.83,12.979-1.25,21.27c-5.71-0.54-5.73-6.779-10.011-8.76
				c-2.939-0.03-3.68,2.16-7.5,1.25c-4.439,7.66-9.17,15.03-17.52,18.76c-0.31,12.19-5.81,19.21-10,27.521
				c1.29,6.21,5.979,9.03,6.25,16.26c-4.92,2.01-0.43-5.399-3.75-5c-6.58,7.03-18.63,13.42-27.521,5
				c3.421-19.03-12.539-24.53-15.01-41.28c-6.14-1.359-12.63-2.369-17.51-5c-17.68,8.62-27.25,31.9-51.28,30.021
				c-5.25-0.24-3.87,6.14-10.01,5.01c-2.55,5.78-6.21,10.47-11.26,13.75c-14.11-6.85-14.02,9.74-28.76,6.26
				c-5.14,2.78-4.02,11.83-11.26,12.511c-1.04,12.27-8.33,30.619,2.5,42.529c0.59,3.92-3.37,3.301-3.75,6.25
				c0.4,5.84,7.09,5.41,7.5,11.261c-10.4,7.52-14.37,21.479-27.52,26.26c-2.51-2.9-4.55-6.28-8.75-7.5c-6.67,0-6.34,7-11.26,8.76
				c-9.81-2.29-9.04-15.15-13.76-22.52c4.21-9.96,17.73-10.62,15.01-27.521c-8.62-17.85-9.95-35.28-22.51-48.78
				c5.73-6.489,0.12-10.17,3.75-18.76c-10.74-23.88-16.05-64.78-51.29-71.3c-1.81-6.11-6.1-9.74-13.75-10.01
				c-1.96-3.88-3.48-8.2-7.51-10c-5.3-0.301-6.36,3.649-10.01,5c-4.09-4.24-9.72-1.351-16.26-1.25
				c-4.76-13.87-0.14-28.25-13.76-36.271c10.54-5.399,1.32-17.979-5-21.27c4.68-5.23-1.94-5.91-3.75-8.75
				c-2.56-4.021-2.16-11.62-3.75-13.761c-7.23-9.739-25.73-10.489-28.77-23.77c2.7-16.38-4.07-31.91,10-42.53
				c-10.84-11.67-35.48-9.54-42.52-25.01c0.3-2.2,2.15-2.85,5-2.5c-1.8-4.63-0.08-7.19-1.25-13.76c8-3.26,14.79-7.72,21.26-12.51
				c14.72,4.53,29.68,13.22,43.78,11.26c4.41-1.02,1.07-9.78,8.76-7.51c0.03-2.95-2.16-3.68-1.25-7.5
				c9.6-3.06,12.76-22.55,26.26-13.76C178.16,308.5,179.31,304.64,181.09,301.42z"/>
			<line style="fill:none;stroke:#231F20;stroke-width:7.6626;" x1="274.9" y1="731.71" x2="242.38" y2="771.21"/>
			<line style="fill:none;stroke:#231F20;stroke-width:7.6626;" x1="570.78" y1="558.85" x2="638.65" y2="571.98"/>
			<line style="fill:none;stroke:#231F20;stroke-width:7.6626;" x1="181.09" y1="301.42" x2="111.02" y2="239.21"/>
		</g>
	</g>
</g>
<rect x="0.25" y="0.25" style="fill-rule:evenodd;clip-rule:evenodd;fill:none;" width="850.394" height="850.394"/>
</svg>
