<svg xmlns="http://www.w3.org/2000/svg" width="850.89" height="850.89" viewBox="0 0 850.89 850.89" overflow="visible"><path fill="#ed1e29" d="M805.84 186.23v26.19H586.37l-.2-20.89h219.61v-5.3z"/><path fill="#fff" d="M805.84 163.88v22.35H586.12l-.2-22.34.23-.01h218.11z"/><path fill="#0071bc" d="M805.84 112.77v51.11H586.15l-.23.01-.42-45.82h219.52v-5.3z"/><path fill="#fff" d="M805.84 87.02v25.75H585.45l-.19-20.45h220.52v-5.3z"/><path fill="#ed1e29" d="M805.84 68.59v18.43H585.21l-.17-18.43z"/><path fill="#231f20" d="M805.78 186.23v5.3H586.17l-.05-5.3zM805.78 87.02v5.3H585.26l-.05-5.3zM805.02 112.77v5.3H585.5l-.05-5.3z"/><path d="M592.68 359.54c-3.899.85-6.97-3.89-9.29-7.09 3.12 2.33 6.2 4.71 9.29 7.09z" fill="#202020"/><path d="M568.74 58.91c-4.17-1.85-6.95-5.2-6.95-9.01 0-5.83 6.49-10.56 14.49-10.56s14.489 4.73 14.489 10.56c0 3.72-2.649 7-6.659 8.88-2.25 1.06-4.95 1.67-7.83 1.67-2.77 0-5.35-.56-7.54-1.54z" fill="#c8c8c8"/><path d="M583.44 568.17c1.5.48 5.149-1.189 4.619 1.32-6.439-2.96-5.34 3.92-5.279 9.24-4.07-.32-6.311 1.18-10.57.659 1.6 2.2 4.08 4.931 5.12 7.74-2.22-2.46-6.47-5.99-6.44-8.399 4-.181 7.95-.421 11.23-1.32-.92-3.15-1.08-7.64 1.32-9.24z" fill="#202020"/><path fill="#231f20" d="M586.12 186.23l.05 5.3h-2.06v-5.3z"/><path d="M586.74 466.49c-.99 2.76-1.88 5.609-3.96 7.27-4.86.23-9.08-.17-13.21-.66.93 5.9.02 9.96 1.319 15.841-3.699-.631-5.05-3.04-8.58-.66-.729-5.21-9.47-2.41-13.21-4.62-.939 1.7-1.09 4.18-2.64 5.28-2.42.22-5.84-.561-7.26.659 4.78 2.54 3.649 13.49 5.28 20.471 4.399 3.97 10.729 6 15.189 9.899-3.03 4.391-3.189 7.69-4.62 13.21-4.99.37-5.49-3.76-8.59-5.279-1.14 1.72-2.37 3.34-5.28 3.3-1.84-2.57-2.68-6.12-3.3-9.91-7.01-.65-10.35 5.22-17.17 2.64-1.78 1.521-2.12 4.48-4.62 5.28-3.31-1.96-7.24-3.32-10.56-5.28-1.641 2.54-4.311 4.061-5.28 7.271.52 2.55 4.09 2.069 4.62 4.62-4.47 3.02-8.851 6.12-11.22 11.22-5.37 0-13.11-2.12-17.17.66-2.631 5.689 3.829 10.81 5.279 16.51 2.971-.34 2.87-3.74 6.601-3.3 1.93.93 2.1 3.62 3.31 5.28 9.14-.78 13.24 3.479 13.86 11.22-2.49.96-1.271-1.811-3.3-1.32-2.811 2.69-5.131 5.88-7.921 8.58-2.579 19.71-4.8 45.1 1.87 61.29-2.29-4.2-4.979-8.65-5.84-14.41-.45-3.1.46-7.45.66-11.88.95-20.8-1.1-42.52 13.21-44.9-.27-9.189-14.42-4.5-15.85-12.539-3.351-.25-4.4 4.5-7.261 2.64-1.399-4.54-5.52-6.36-5.279-12.55-8.49-2.95-14.82-8.07-27.07-7.261-1.6-1.479-3.62-2.54-5.28-3.96-.77 10.62-17.3 9.511-17.17-1.319 2.19-3.761 6.82-5.07 9.25-8.58-1.27-7.54-3.1-14.521-10.57-15.851-4.12 1.82-1.14 10.74-4.62 13.21-3.81-1.13-8.51.03-11.88 2.641-4.84-4.19-1.17-12.59-1.98-19.811-1.04-9.17-5.74-15.87-8.59-22.449.19 1.51-.15 2.479-1.32 2.64-1.9-4.91-3.39-10.24-7.92-12.54 1.17-1.25.48-4.36.66-6.6-2.54-3.41-6.63-5.261-9.24-8.591-1.02 3.32 2.17 6.86-.66 7.931-2.45-4.82-7.97-6.57-13.87-7.931-2.2-6.81-9.12-8.92-11.88-15.18-6.26-1-9.24-5.28-11.23-10.56-7.35-.54-8.07 5.56-16.5 3.96-1.35.85-1.2 3.199-3.96 2.64-5.43-4.28-12.56-4.38-19.81-3.96.13 1.89.09 3.6-1.98 3.3-1.5-2.68-5.23-3.13-6.6-5.939.93-2.38 3.79-2.811 4.62-5.29-.8-2.061-1.81-3.91-2.64-5.94.67-2.41 4.44-1.72 4.62-4.62-.72-2.14-3.66-2.06-3.96-4.62 5.27-4.63.86-11.85 5.28-17.83-6.16-1.1-14.32-.2-18.48-3.3-.73.31-1.49.58-2.27.83 1.16-.76 1.83-2 2.93-2.81 2.05 5.65 13.09 2.31 18.48 4.62-2 4.6-1.01 13.82-4.62 18.49.65 2.43 3.8 2.36 3.3 5.94-.65 1.78-3.22 1.63-3.96 3.3.35 2.51 2.06 3.66 1.98 6.601-.54 2.77-4.36 2.239-3.96 5.949 3.26.03 4.41 2.181 5.94 3.96-.14-1.899.17-3.359 1.32-3.96 5.73.92 15.46-.729 19.81 4.62 2.65.45 1.62-2.78 3.96-2.64 8.19 1.359 8.92-4.73 15.84-4.62 3.05 1.79 3.32 6.36 5.95 8.58 9.21 3.1 13.48 11.16 19.14 17.82 5.27.89 8.97 3.359 12.55 5.949.87-2.92-2.2-5.68.66-6.6 3.15 1.35 7.07 8.62 9.24 6.6-3.36-5.13-2.9-12.449.66-17.17-3.93-4.649-9.02-8.14-13.2-12.54 2.15-16.62-12.29-26.87-7.27-44.24 3.41-.11 7.46.41 9.91-.66 2.47-2.02-.36-2.07-.66-4.62 9.16-4.48 12.29-15 18.48-22.45-4.68 8.52-8.49 17.92-17.16 22.45-.6 2.19 3.67 2.86 1.98 3.96-2.52 2.32-7.59 2.1-12.55 1.98-2.65 17.92 9.95 26.54 7.93 43.58 4.8 4 10.42 7.181 13.2 13.2-1.83 3.01-3.17 6.51-2.64 11.88.27 1.28 2.56.53 1.98 2.65.19 6.63 2.63 11.01 4.62 15.84 10.75 9.64 13.11 28.42 13.87 46.21 2.9.3 7.02-5 11.88-1.31 1.44-6.381-.21-14.07 6.6-13.87 4.66.14 10.65 12.359 9.91 16.51-.66 3.62-8.9 6.68-9.25 9.9-.7 6.55 6.64 7.529 8.59 7.26 4.21-.57 4.3-4.44 7.26-8.58 3.54 6.99 13.101 3.64 20.471 5.939 4.109 1.29 5.71 5.95 9.899 5.28 1.67-6.47 11.95-4.33 19.811-4.62 1.43-5.38 6.72-6.92 9.899-10.56-2.05-.82-3.72-2.01-3.96-4.62 1.41-3.44 3.87-5.81 6.601-7.92 2.29 2.55 6.17 3.51 9.239 5.28 3.24-.511 3.11-4.381 5.94-5.28 5.37 3.32 10.31-3.271 17.17-2.65.37 4.25 1.71 7.53 3.3 10.57 5.33-6.32 6.7-.67 12.55 1.979-.199-5.26 3.49-9.439 3.96-13.21-5.89-2.26-10.56-5.72-15.189-9.239-2.57-4.62.63-9.65-.66-13.87-1.03-3.391-4.37-3.41-4.62-7.26 2.8-.5 5.061-1.54 8.58-1.32 1.24-1.41 1.08-4.2 2.64-5.28 8.25 2.49 14.94 3.53 21.131 5.28-1.94-4.561-.681-11.74-1.32-15.18 5.08-.46 8.58.659 13.21.659 2.361-1.38 2.211-5.27 4.621-6.61z" fill="#202020"/><path fill="#231f20" d="M585.45 112.77l.05 5.3h-.86v-5.3zM585.21 87.02l.05 5.3h-1.15v-5.3z"/><path d="M584.11 191.53v119.52l-14.95 1.79-.42-253.93c2.189.98 4.77 1.54 7.54 1.54 2.88 0 5.58-.61 7.83-1.67v28.24h-1.74v5.3h1.74v93.91h-.23v5.3h.23z" fill="#c8c8c8"/><path fill="#231f20" d="M583.88 186.23h.23v5.3h-.23zM582.37 87.02h1.74v5.3h-1.74z"/><path d="M583.39 352.45c-.439-.34-.89-.67-1.34-1 .24.07.48.12.73.17.2.26.4.54.61.83zM577.33 587.13c.05.061.11.12.16.18l-.061.141c-.029-.101-.069-.211-.099-.321z" fill="#202020"/><path d="M577.43 587.45c.801 2.439.44 4.92-2.58 7.13-6.77 1.05-8.43-3.01-13.199-3.96-1.44 6.04-3.431 11.54-7.261 15.18-15.649 2.4-24.489 11.61-35.659 18.49-2.381 11.7-5.141 23.02-11.881 30.37h-7.26c-.22-1.5-.68-2.95-1.28-4.38.78 1.34 1.641 2.58 2.601 3.72h5.939c5.7-8.17 8.881-18.85 11.221-30.37 11.37-7.34 21.05-16.37 36.979-19.149 3.03-4.23 4.26-10.261 6.601-15.181 4.42 1.51 7.89 6.021 13.859 3.96.49-2.1 1.17-3.99 1.92-5.81zM582.05 351.45c-5.63-1.35-9.109-4.82-12.479-8.42-2.5 1.9-2.891 5.91-5.28 7.93-7.25-3.09-10.42 4.07-17.16 5.28-.51 4.02 3.04 3.99 3.3 7.26-2.3-1.67-3.58-4.35-4.63-7.26 6.34-1.77 9.96-8.41 17.83-6.6 2.98-1.2 2.601-5.76 5.28-7.27 4.549 2.86 8.889 5.92 13.139 9.08zM549.76 376.71c3.71-2.53 2.59-9.05.67-12.55 4.12 2.26 2.811 11.16 0 13.87-1.87-.34-2.81-1.6-4.63-1.99-9.84.2 2.21-2.04 3.96.67zM537.22 370.76c.32-.06 1.851 4.28 3.3 5.28-2.06-.8-3.93-1.78-3.3-5.28zM529.96 367.46c1.22-.75 6.17.41 6.6 2.64-1.85-1.23-4.54-1.62-6.6-2.64zM529.3 366.14c-1.6 1.56-3.62-2.07-5.29-2.64-5 8.44-16.859 2.67-17.819-5.94-1.101 1.1-1.221 3.18-2.641 3.96-4.78.16-7.09-2.15-6.6-7.26-7.71-4.5-15.21-.95-23.11 1.32 7.55-4.19 14.95-6.08 23.771-2.64-.811 4.99 1.21 7.15 4.62 7.92 2.359-.5 2.659-3.06 3.3-5.28 3.96-1.33 8.069-2.5 11.89-3.96 7.7-6.39.32-21 7.92-28.39-1.8-3.27-5.82-4.31-6.609-8.59 1.199-3.42 5.06-4.18 6.609-7.26-1.88-.98-4.78-.94-6.609-1.98.6-3.14 4.59-2.9 6.609-4.62-1.399-5.64 2.11-7.22 1.32-10.56-1.351-5.7-5.92-2.31-9.91-5.28-3.29-2.46-1.61-5.42-3.96-9.25 1.55-.21.39-3.13 2.64-2.64-3.699-2.45-9.66-2.66-14.52-3.96-6.12-6.43-7.84-17.26-17.17-20.47-1.92-6.71-.61-18.02-1.32-25.09 4.48-5.03 6.35-13.61 3.3-19.8-.67-1.36-2.01-2.51-3.71-3.64l.08-.12c1.37.88 2.79 1.69 4.29 2.44 1.8 8.02 2.65 15.83-2.64 20.46.7 9.74-.811 17.94.66 24.43 8.609 4.16 11.369 14.17 17.17 21.13 5.27 1.11 11.029 1.72 15.18 3.96-4.42 2.44-1.68 8.88.67 11.88 10.34-.66 10.92 6.75 8.58 17.17-2.08.79-3.5 2.23-5.94 2.64.12 2.52 4.87.4 5.94 1.98.45 5.29-5.18 4.51-5.94 8.58.7 4.14 4.261 5.42 6.601 7.93-7.54 7.88-1.43 21.63-7.93 29.71-4.051 1.22-7.921 2.63-11.881 3.96-.159 8.75 11.65 14.39 16.511 6.6 2.718.36 3.858 2.3 5.938 3.3z" fill="#202020"/><path d="M526.66 290.22c.79 3.34-2.72 4.92-1.32 10.56-2.02 1.72-6.01 1.48-6.609 4.62 1.829 1.04 4.729 1 6.609 1.98-1.55 3.08-5.41 3.84-6.609 7.26.789 4.28 4.81 5.32 6.609 8.59-7.6 7.39-.22 22-7.92 28.39-3.82 1.46-7.93 2.63-11.89 3.96-.641 2.22-.94 4.78-3.3 5.28-3.41-.77-5.431-2.93-4.62-7.92-8.82-3.44-16.221-1.55-23.771 2.64l-2.5-.05c.601-.21 1.021-.61 1.18-1.27a74.13 74.13 0 0 0-11.409-.97c-.44-.15-.82-.27-1.141-.35-.3.1-.62.22-.97.36 0 0 0 .01-.01 0-3.44.07-6.851.38-10.24.96l-.66.66c-5.35 1.8-11.93-1.23-15.84-4.62-.04.84-.85.91-.66 1.98-.95-.01-1.92.04-2.92.14-.12-.06-.25-.1-.39-.14-.11.08-.23.15-.34.22-6.561.75-13.911 3.35-20.121 5.06l-2.75.98c-.23 0-.62.1-1.21.34-1.39.56-3.75 2.79-6.61 4.62v3.96c-6.19 7.45-9.32 17.97-18.48 22.45.3 2.55 3.13 2.6.66 4.62-2.45 1.07-6.5.55-9.91.66-5.02 17.37 9.42 27.62 7.27 44.24 4.18 4.4 9.27 7.891 13.2 12.54-3.56 4.721-4.02 12.04-.66 17.17-2.17 2.021-6.09-5.25-9.24-6.6-2.86.92.21 3.68-.66 6.6-3.58-2.59-7.28-5.06-12.55-5.949-5.66-6.66-9.93-14.721-19.14-17.82-2.63-2.22-2.9-6.79-5.95-8.58-6.92-.11-7.65 5.979-15.84 4.62-2.34-.141-1.31 3.09-3.96 2.64-4.35-5.35-14.08-3.7-19.81-4.62-1.15.601-1.46 2.061-1.32 3.96-1.53-1.779-2.68-3.93-5.94-3.96-.4-3.71 3.42-3.18 3.96-5.949.08-2.94-1.63-4.091-1.98-6.601.74-1.67 3.31-1.52 3.96-3.3.5-3.58-2.65-3.51-3.3-5.94 3.61-4.67 2.62-13.89 4.62-18.49-5.39-2.31-16.43 1.03-18.48-4.62-1.1.81-1.77 2.05-2.93 2.81-.51.17-1.02.32-1.55.46-13.95-.91-22.15 3.94-27.87 11.26 2.62 3.1 5.25 6.19 6.6 10.56-2.95 4.1-1.66 12.43-5.28 15.85-.36 9.23 2.29 16.88-.67 22.44 3.03 6.859-.66 14.63-6.6 16.51-.67 5.17-2.69 9.55-4.95 13.79l-5.04-.05c.83-1.62.96-3.58.72-5.7l.03-.12-.05-.05c-.63-5.4-3.53-11.83-3.25-16.46-.56-1.93-2.13.4-3.3 0 .87-7.74-5.09-14.021-1.98-19.8-2.04-4.57-5.47-7.74-9.91-9.9-1.05-4.39-1.58-9.28-3.34-12.96-.66-1.39-1.5-2.6-2.6-3.55-.93-3.79 2.89-5.29 3.96-7.92 2.95-7.24-1.52-15.24 0-23.11-3.9-13.05-12.03-21.86-21.79-29.05l-2.28-.83c.51 0 1.05-.14 1.62-.49-8.05-1.25-7.27-9.19-11.22-14.53-2.97-4.01-7.53-5.96-9.24-9.9-2.4-5.51-1.24-11.8-5.28-17.16 1.17-4.12 3.4-7.16 7.26-8.59 1.23.53 2.42 1.11 3.96 1.32-.5-3.36.49-5.24 3.3-5.28 3.22-.8 2.22 2.63 4.62 2.64-.02-1.52-.01-3.03 0-4.52v-.02c.07-.61.07-1.21.03-1.82.21-11.02 1.18-21.13 1.95-29.95 4.5.5 2.86-2.99 4.62-3.96 3.86.31 4.74 1.92 7.93 0 .53-2.29-.98-2.54-.66-4.62h2.64c1.44-6.13.64-9.18-2.64-13.21-3.04 2.69-4.07 7.38-7.93 9.24-.51-9.83-5.47-15.21-9.24-21.78 4.27-5.85 1.16-16.63-6.6-16.51-8.92-15.96-22.95-24.54-31.03-42.25 6.19-7.32-4-16.3-1.98-21.79-.28-.27-.65-.44-1.1-.55 1.37-4.96 2.97-11.84 8.36-11.34-.56-7.35-1.47-14.37-4.62-19.14 3.35-1.05 2.24-6.56 7.26-5.94 1.66-6.86-1.12-10.64-1.98-16.51 1.25-2.65 6.51-4.26 3.96-8.58 3.09-.87 5.31-2.61 8.59-3.3-1.34-3.07-1.37-5.51.65-7.92 3.13 1.93 7.64 2.48 8.59 6.6 12.12-1.01 20.44-.06 27.73-7.27 2.13.73 2.06 3.66 4.62 3.97 9.72-.85 1.92-19.21 13.2-18.49.08.24.25.39.5.48 4.48 3.9 13.92.83 16.78-3.95.81.5 1.44.61.55-1.15 2.42 1.35 3.68-.42 4.92-2.47 2.41-.77 4.89-1.65 5.52-2.69 1.32.04 2.55-.18.12-.78 1.97-2.44 2.98-5.83 7.26-5.95 2.68 2.83 7.19 3.82 5.95 10.57 2.33.37 3.69-.22 4.61-1.26.39.1.71-.11.89-.9 3.66 1.85 8.33 5.07 8.16-.71l.51-.08c1.75 1.99 3.57 3.91 4.31 6.91 1.19 1.67 4.06-1.56 4.63 1.32-.91 4.86-3.91 10.68-5.59 16.14-.11.13-.24.25-.36.37-.03.4-.06.79-.08 1.17-1.61 6.16-1.08 11.7 6.69 14.67 1.91-.5 1.71-3.13 4.62-2.64 2.14.5 2.11 3.17 4.62 3.3 1.95-1.78 2.69-4.79 4.62-6.6 6.36-1.08 9.11 1.45 12.54 3.3 2.13-.74 3.92-1.81 6.61-1.98-.28 1.59 1.2 1.44.66 3.3-1.62.84-2.67 2.23-3.27 3.93-.01.01-.03.02-.04.03 0 .02.01.04.01.06-2.26 6.56 1.88 17.72 5.28 21.07-5.91 3.94-5.44 10.31-4.62 17.83-3.93 2.11-4.81 7.25-7.65 10.45-.09.05-.18.08-.28.11.01.05.02.11.04.16-.41.43-.86.82-1.36 1.16 1.59 1.49 3.71 2.46 4.62 4.62-.02 4.67.71 8.59 1.25 12.68-.11.64-.25 1.27-.42 1.88-1.54 2.66-5.83 3.53-7.43 6.57-2.5 4.73-1.22 12.23-4.62 17.16 4.67 1.06 7.69 3.76 11.89 5.29 5.85-5.6 10.43-12.46 19.14-15.19 1.1-.88.22-3.74 1.32-4.62 2.26-.6 4.09-1.63 6.6-1.98.96-2.56 1.77-5.28 3.3-7.27 8.35 3 9.63-6.6 15.85-7.92 6.45 4.78 10.1 12.35 21.79 11.89.66 3.73-1.31 10.02 5.28 9.24.32-2.08-1.19-2.33-.66-4.62 4.26-2.12 8.5-4.27 12.54-6.6 1.13 1.07 2.41 1.99 4.62 1.98 1.72-1.15 1.34-4.39 1.33-7.27 3.24-.93 5.01-3.34 5.28-7.26 2.7.06 5.19-.09 5.28-2.64 1.81-1.02-2.81-1.09-1.32-3.96 1.96-3.58 8.05-3.15 13.86-1.32 4.52 1.41 12.65 5.49 15.85 7.26.37-1.61.56-3.4 2.64-3.3 1.59-.27 1.43 1.2 3.3.66.931 3.47 2.99 5.82 3.301 9.9 2.229 1.24 4.05 2.88 5.55 4.85 1.93 2.54 3.31 5.61 4.35 9.02 4.62 2.22 5.49 6.42 8.59 9.9 3.65 4.1 9.07 6.44 12.79 8.91 1.7 1.13 3.04 2.28 3.71 3.64 3.05 6.19 1.181 14.77-3.3 19.8.71 7.07-.6 18.38 1.32 25.09 9.33 3.21 11.05 14.04 17.17 20.47 4.859 1.3 10.82 1.51 14.52 3.96-2.25-.49-1.09 2.43-2.64 2.64 2.35 3.83.67 6.79 3.96 9.25 3.991 2.969 8.561-.421 9.911 5.279z" fill="#fff5b4"/><path d="M498.31 650.28a32.18 32.18 0 0 1-2.13-4.32c.79 1.46 1.53 2.88 2.13 4.32zM482.09 199.97l-.08.12c-3.72-2.47-9.14-4.81-12.79-8.91-3.1-3.48-3.97-7.68-8.59-9.9-1.04-3.41-2.42-6.48-4.35-9.02l.06-.05c7.79 10.06 14.88 20.79 25.75 27.76zM472.52 354.26c-.159.66-.579 1.06-1.18 1.27-2.34.8-7.37-1.28-10.229-2.24 3.809.03 7.629.35 11.409.97zM461.11 353.29c-.7-.02-1.4-.01-2.11.01.35-.14.67-.26.97-.36.32.08.7.2 1.14.35z" fill="#202020"/><path d="M456.34 172.21l-.06.05c-1.5-1.97-3.32-3.61-5.55-4.85-.311-4.08-2.37-6.43-3.301-9.9-1.87.54-1.71-.93-3.3-.66-2.08-.1-2.27 1.69-2.64 3.3-3.2-1.77-11.33-5.85-15.85-7.26-5.81-1.83-11.9-2.26-13.86 1.32-1.49 2.87 3.13 2.94 1.32 3.96-.09 2.55-2.58 2.7-5.28 2.64-.27 3.92-2.04 6.33-5.28 7.26.01 2.88.39 6.12-1.33 7.27-2.21.01-3.49-.91-4.62-1.98-4.04 2.33-8.28 4.48-12.54 6.6-.53 2.29.98 2.54.66 4.62-6.59.78-4.62-5.51-5.28-9.24-11.69.46-15.34-7.11-21.79-11.89-6.22 1.32-7.5 10.92-15.85 7.92-1.53 1.99-2.34 4.71-3.3 7.27-2.51.35-4.34 1.38-6.6 1.98-1.1.88-.22 3.74-1.32 4.62-8.71 2.73-13.29 9.59-19.14 15.19-4.2-1.53-7.22-4.23-11.89-5.29 3.4-4.93 2.12-12.43 4.62-17.16 1.6-3.04 5.89-3.91 7.43-6.57-.92 3.22-2.85 5.84-6.77 7.23-.13 6.25-2.14 10.62-3.96 15.18 2.79 2.5 7.26 3.31 9.9 5.94 5.82-5.62 10.39-12.5 19.15-15.18 1.1-.88.22-3.74 1.32-4.62 5.98-.63 8.26-4.95 9.9-9.91 7.55 4.08 10.42-5.71 15.85-7.92 7.6 4.29 10.63 13.14 23.11 12.55 1.43 3.79-1.04 7.53 2.64 9.24 1.86-.67-.18-2.81 0-3.96 4.16-2.67 8.83-4.81 13.2-7.26 2.01-.03 2.57 1.39 3.96 1.98 2.61-.41 2.21-4.54 1.32-6.61 2.14-2.26 6.62-2.18 5.29-7.92 2.76.34 4.47-.37 5.94-1.32.25-2.23-2.92-1.04-1.98-3.96 6.9-9.51 22.03 1.05 29.71 3.3 1.15-2.57 5.04-2.14 7.92-1.32.95 3.23 2.68 5.69 3.3 9.24 1.711 1.98 3.351 4.04 4.951 6.12zM458.99 353.3c-3.271 1.36-8.521 4.42-10.24.96 3.39-.58 6.8-.89 10.24-.96zM448.09 354.92c-.99.77-1.609 1.91-3.3 1.98-3.48-2.03-10.26-.74-11.22-5.28-1.75-.2-1.71 1.37-1.98 2.64-1.05-.54-1.77-1.4-2.92-1.84 1-.1 1.97-.15 2.92-.14-.189-1.07.62-1.14.66-1.98 3.91 3.39 10.49 6.42 15.84 4.62zM428.28 352.28c.14.04.27.08.39.14-.24.02-.479.05-.729.08.109-.07.229-.14.339-.22zM427.94 352.5c-4.86 3.18-12.28 3.52-20.121 5.06 6.211-1.71 13.561-4.31 20.121-5.06zM405.07 358.54c1.51 0-3.92 4.49-7.82 4.96 2.86-1.83 5.22-4.06 6.61-4.62.59-.24.98-.34 1.21-.34zM399.24 791.32v2.64c-2.55.53-2.55-3.16 0-2.64zM382.89 783.27l12.38 7.391c-3.47-.941-7.76-4.351-12.38-7.391zM374.85 774.7l8.04 8.569c-1.77-1.159-3.6-2.27-5.44-3.17-.94-1.729-1.76-3.569-2.6-5.399zM373.55 774.14c.12.25.23.511.34.761-.12-.251-.23-.511-.34-.761zM372.94 772.81l-.27-.569c.1.189.19.379.27.569zM371.85 770.61c.19.35.38.71.55 1.08-.18-.37-.36-.73-.55-1.08zM371.37 769.76c-.11-.2-.23-.39-.35-.58.12.19.23.39.35.58zM370.52 768.42c-.14-.21-.28-.41-.44-.61.15.2.3.4.44.61zM369.82 767.47c-.1-.12-.2-.25-.3-.359.11.119.21.239.3.359zM369.52 767.11zM368.72 766.24c-.14-.13-.28-.271-.43-.4.15.13.29.26.43.4zM366.78 764.69c-.09-.061-.19-.12-.28-.171.1.051.19.101.28.171zM365.62 764.05zM364.65 763.64zM363.99 763.42c-.19-.06-.38-.11-.58-.16.2.04.39.1.58.16zM361.98 762.99zM360.99 762.88c-.13-.01-.27-.02-.41-.02.14 0 .27.01.41.02z" fill="#202020"/><path d="M356.98 763.59c.52 4.73-5.16 6.75-7.26 10.57-2.43 4.39-1.25 8.68-5.29 10.56-2.68.05-4.89-2.779-6.6 0-2.15-2.68-4.43-5.25-5.94-8.58-5.44 1.601-9.08 5.011-15.18 5.94-1.98 2.85-2.64 7.02-5.92 8.56-.13 0-.26-.01-.39-.029-5.86-.931-11.61-11.141-2.94-13.15 1.78-6.45-1.06-11.9.66-16.51-3.83-2.17-8.05-2.11-12.54-.66-.83-5.55-2.09-10.67-6.6-12.54-.32.28-.64.52-.96.72-5.17 3.271-10.73-3.22-17.53-2.7-.58-5.14-2.2-9.239-7.92-9.239-2.72 2.779-.3 10.7-2.64 13.859-2.33-.09-1.89-2.96-2.64-4.62-6.93-.119-10.19-14.14-19.15-16.51-1.45-4.939-1.19-9.399 1.32-12.54-2.39-2.67-8.8-1.319-9.24-5.939 1.1-2.2 3.48-3.12 2.64-7.271-2.52-.54-.78 3.19-3.3 2.65-.66-2.26.28-1.99-1.32-3.311-3.24-.369-.52 5.21-3.97 4.631-5.74-6.141-5.33-18.431-13.2-22.45-2.3-2.101-1.32 3.069-4.62 1.979-3.37-3.229.61-7.37.66-11.22-1.79-1.021-2.99 0-5.28-1.32.21-2.43-.74-3.67-1.32-5.29-3.24.221-5.88 2.521-9.25.66-.57-4.93-.48-10.52-2.64-13.859-1.17.149-3.3-.671-2.64 1.319-1.47-.67.86-3.04 0-5.28-4.87.41-7.26 3.301-11.88 3.961 2.47 6.06.81 22.569-5.28 26.409-2.88-11.72 1.37-27.67-4.62-36.97 3.14-7.87 1.49-20.52 8.58-24.43-.52-.721-1.64-.84-2.27-1.431 0-.26 0-.52-.02-.779 2.51-1.811.46-5.03.97-7.7.91-4.811 4.22-9.03 4.62-13.86.74-1.68 3.31-1.529 3.96-3.3.97-2.51-2.95-.13-1.98-2.64 4.09-1.94.78-8.9 5.28-9.25-.21-1.55-2.04-1.471-2.64-2.641 4.02-3.87 4.75-9.58 7.26-15.84 1.97-4.91 6.87-10.7 7.27-15.85.14-1.84-1.64-4.67-1.33-6.601 1-6.06 7.52-8.54 11.89-11.22v-5.29c1.53-.21 2.54.11 3.3.66-.38-3.68 2.49-4.11 4.62-5.28 3.12-11.18 12.87-15.739 15.19-27.729 3.54-.681 5.53-2.141 6.51-4.08l5.04.05c-3.78 7.08-8.24 13.79-8.25 23.18-.95 1.811-2.62.891-3.96 3.301-.05 4.89.56 9.119 1.32 13.21-1.55.21-2.73.79-3.97 1.31-1.84 8.95-12.73 14.87-7.92 24.43-.54 2.74-4.45-2.93-6.6.66-.36 4.11 3.49 4 3.96 7.271-1.19 1.16-2.12 2.569-2.82 4.18-.15.16-.31.31-.48.44.03.18.06.359.08.55-3.8 10.39.87 27.479 6.52 34.439-1.83 2.351-4.36 3.99-3.3 9.24 11.32 8.2 18.96-8.12 30.37-1.32 2.78 8.551 2.88 19.74 5.1 29.12 1.48 6.3 3.92 11.79 8.77 15.12 2.11-.09 2.9-1.5 2.64-3.96 9.17 16.73 6.15 41.65 15.18 58.101 4.12 7.489 9.98 11.67 14.53 17.819 5.55-.8 7.63 4.29 12.54 5.94 4.3-1.41 9.79-1.65 15.19-1.98 2.58-1.77-3.56-2.37-1.32-3.96 12.88 1.45 14.46 16.17 23.76 24.431 3.48 3.079 9.95 6.34 13.22 10.029 1.09 1.23 1.82 2.5 1.97 3.83z" fill="#fff5b4"/><path d="M355.13 759.66l-.12.1c-3.27-3.689-9.74-6.95-13.22-10.029-9.3-8.261-10.88-22.98-23.76-24.431-2.24 1.59 3.9 2.19 1.32 3.96-5.4.33-10.89.57-15.19 1.98-4.91-1.65-6.99-6.74-12.54-5.94-4.55-6.149-10.41-10.33-14.53-17.819-9.03-16.45-6.01-41.37-15.18-58.101.26 2.46-.53 3.87-2.64 3.96-4.85-3.33-7.29-8.82-8.77-15.12l.05-.01c.21.91.48 1.78.8 2.58 2.06 5.13 6.16 7.94 8.58 11.229 3.03-2.229-2.71-4.699-.66-5.939 8.85 5.71 8.34 18.93 10.56 30.37 2.27 11.64 4.81 23.33 8.58 32.35 5.43 4.25 8.17 11.2 13.87 15.181 5.19-.79 6.78 5.359 12.54 5.939 2.16-.49 10.01-.979 13.87-1.979-1.21-1-5.06-1.351-3.3-3.301 16.03 1.141 19.24 15.091 27.06 24.431 5.64 2.119 8.98 6.539 12.68 10.589zM337.17 788.02c1.52 1.57.24 5.931.66 8.591-2.57-.351-1.28-7.151-.66-8.591zM318.03 93.47c2.49 3.87-1.24 6.4-3.27 7.89.6-1.7 1.65-3.09 3.27-3.93.54-1.86-.94-1.71-.66-3.3-2.69.17-4.48 1.24-6.61 1.98-3.43-1.85-6.18-4.38-12.54-3.3-1.93 1.81-2.67 4.82-4.62 6.6-2.51-.13-2.48-2.8-4.62-3.3-2.91-.49-2.71 2.14-4.62 2.64-7.77-2.97-8.3-8.51-6.69-14.67-.34 6.58 1.18 11.3 5.37 13.35 3.21.8 2.21-2.62 4.62-2.64 1.47 1.17 4.51.77 4.62 3.3 2.65-.65 4.05-2.55 3.96-5.94 5.85-.13 12.1-.65 13.86 3.3 2.54-.77 4.14-2.47 7.93-1.98zM314.73 101.45c1.05 7.96.94 17.06 6.6 20.41-4.47 2.94-6.66 11.18-5.28 17.82-.22.22-.43.45-.62.7l-.04-.03c-.82-7.52-1.29-13.89 4.62-17.83-3.4-3.35-7.54-14.51-5.28-21.07zM315.39 140.35l.04.03c-2.7 3.34-3.3 8.78-7.69 10.42 2.84-3.2 3.72-8.34 7.65-10.45zM314.76 101.36l-.03.09c0-.02-.01-.04-.01-.06.01-.01.03-.02.04-.03zM312.08 156.19c.09 4.44.61 9.23-.07 13.34-.54-4.09-1.27-8.01-1.25-12.68-.91-2.16-3.03-3.13-4.62-4.62.5-.34.95-.73 1.36-1.16.57 2.67 3.07 3.39 4.58 5.12zM312.01 169.53c.03.17.05.35.07.52-.09.5-.26.95-.49 1.36.17-.61.31-1.24.42-1.88zM310.79 790.64c-.01.011-.02.021-.03.021-.12-.01-.24-.03-.36-.05.13.019.26.029.39.029zM308.12 760.95c-1.72 4.609 1.12 10.06-.66 16.51-8.67 2.01-2.92 12.22 2.94 13.15-6.29-.67-13.69-10.08-3.6-13.811 2.21-5.84-1.97-11.16.66-15.189-4.52-3.12-8.2-.271-12.54-.66-1.42-4.96-1.71-11.05-6.6-12.54-.08.04-.16.09-.24.14l-.06-.08c.32-.2.64-.439.96-.72 4.51 1.87 5.77 6.99 6.6 12.54 4.49-1.45 8.71-1.51 12.54.66zM307.46 150.91c.1-.03.19-.06.28-.11-.07.1-.15.19-.24.27-.02-.05-.03-.11-.04-.16z" fill="#202020"/><path d="M288.02 748.47l.06.08c-1.23.851-1.14 3.01-3.72 2.5-4.24-4.05-10.07-2.51-15.19-5.28-.31-4.529-1.05-8.63-6.6-7.92-1.15 5.011 0 12.32-3.3 15.181l-.05.02c-.06-.12-.11-.24-.16-.359-.26-.591-.52-1.181-.77-1.78-.08-.2-.17-.41-.25-.62-.09-.21-.18-.42-.26-.63-.17-.41-.33-.83-.49-1.25-7.38-3.34-11.53-15.21-20.47-19.15-1.02-4.359-1-9.75 1.32-12.54-4.68.28-11.99-4.609-7.27-9.239-3.59 1.39-1.91-2.49-3.29-3.311-.58 1.85-.4 4.45-2.64 4.63-8-4.33-5.78-18.87-14.53-22.45-1.92 2.511-5.29 1.87-6.6-.659-1.01-4.53 1.95-5.091 1.98-8.58-1.96-.181-6.25-2.141-5.94-6.61-3.21 1.59-8.19 1.91-9.91-1.32-1.12-4.51.43-7.64-1.32-11.22-1.7-2.45-3.17 2.4-3.96.66-.91-2 .31-2.36 0-5.28-3 .521-4.6 2.44-7.92 2.641.27 5.659-1.45 18.689-3.96 25.75-2.91-.891-4.14 3.279-5.28 1.979-3.17-8.41.45-17.28-.66-25.75-.63-4.77-3.33-8.64-3.31-13.21.03-4.11 1.15-13.03 3.31-18.48.5-1.26 2.82-2.42 3.3-3.96.26-.869.36-1.8.37-2.75.63.591 1.75.71 2.27 1.431-7.09 3.91-5.44 16.56-8.58 24.43 5.99 9.3 1.74 25.25 4.62 36.97 6.09-3.84 7.75-20.35 5.28-26.409 4.62-.66 7.01-3.551 11.88-3.961.86 2.24-1.47 4.61 0 5.28-.66-1.99 1.47-1.17 2.64-1.319 2.16 3.34 2.07 8.93 2.64 13.859 3.37 1.86 6.01-.439 9.25-.66.58 1.62 1.53 2.86 1.32 5.29 2.29 1.32 3.49.3 5.28 1.32-.05 3.85-4.03 7.99-.66 11.22 3.3 1.09 2.32-4.08 4.62-1.979 7.87 4.02 7.46 16.31 13.2 22.45 3.45.579.73-5 3.97-4.631 1.6 1.32.66 1.051 1.32 3.311 2.52.54.78-3.19 3.3-2.65.84 4.15-1.54 5.07-2.64 7.271.44 4.62 6.85 3.27 9.24 5.939-2.51 3.141-2.77 7.601-1.32 12.54 8.96 2.37 12.22 16.391 19.15 16.51.75 1.66.31 4.53 2.64 4.62 2.34-3.159-.08-11.08 2.64-13.859 5.72 0 7.34 4.1 7.92 9.239 6.8-.525 12.36 5.965 17.53 2.695zM284.36 65.08c-.49 7.41-2.36 13.44-6.25 17.46 1.68-5.46 4.68-11.28 5.59-16.14-.57-2.88-3.44.35-4.63-1.32-.74-3-2.56-4.92-4.31-6.91-1.53-1.77-3.01-3.6-3.61-6.3-2.5.33-3.35 2.29-4.13 4.34-.21-.17-.42-.32-.63-.48.96-2.35 1.86-4.76 4.76-5.18 2.46 5.03 6.55 8.42 8.58 13.87 2.56-.41 2.72-.55 4.63.66zM280.77 397.34c-.3.2-.65.37-1.04.49-.17-.01-.34-.03-.51-.03a25.3 25.3 0 0 0 1.55-.46zM277.75 82.91c.12-.12.25-.24.36-.37-.17.52-.31 1.03-.44 1.54.02-.38.05-.77.08-1.17zM251.35 409.06c5.72-7.32 13.92-12.17 27.87-11.26-10.07 2.75-23.27 2.38-26.55 11.92 3.76 1.95 4.59 6.85 6.6 10.56-6.86 8.291-3.58 29.22-6.6 37.63.09 2.33 1.88 2.95 1.97 5.28-.77 10.01-11.17 10.399-10.56 21.79-5.83 4.96-6.91 14.659-11.22 21.13-.46 3.319 1.12 4.6.66 7.92-7.69-1.65-2.36 9.45-3.3 15.85-1.64-.08-2.05-1.24-3.3 0-2.12 6.9-7.64 10.4-9.91 17.16.48 3.15 3.18 5.74 1.32 9.25-2.71.07-2.64-2.65-5.94-1.99-.11 4.3 3.79 4.58 4.62 7.931-2.95-.171-3.45 2.1-4.8 3.52.7-1.61 1.63-3.02 2.82-4.18-.47-3.271-4.32-3.16-3.96-7.271 2.15-3.59 6.06 2.08 6.6-.66-4.81-9.56 6.08-15.479 7.92-24.43 1.24-.52 2.42-1.1 3.97-1.31-.76-4.091-1.37-8.32-1.32-13.21 1.34-2.41 3.01-1.49 3.96-3.301.01-9.39 4.47-16.1 8.25-23.18 2.26-4.24 4.28-8.62 4.95-13.79 5.94-1.88 9.63-9.65 6.6-16.51 2.96-5.561.31-13.21.67-22.44 3.62-3.42 2.33-11.75 5.28-15.85-1.35-4.369-3.98-7.459-6.6-10.559z" fill="#202020"/><path d="M274.25 58.25c.17 5.78-4.5 2.56-8.16.71.05-.19.09-.43.11-.71.31-.65.56-1.35.82-2.04 2.73 2.08 5.24 4.57 7.23 2.04zM270.45 790.68c.89 2.61.39 6.03-.62 8.57.4-3.06.6-5.91.62-8.57zM270.4 787.31c.05 1.091.07 2.21.05 3.37-.15-.479-.36-.93-.62-1.34.22-.69.41-1.36.57-2.03zM259.27 753.03c4.81 9.529 14.62 19.71 11.13 34.279-.03-.75-.08-1.489-.14-2.21-.03-.409-.07-.819-.12-1.22-.02-.229-.04-.46-.07-.689a54.715 54.715 0 0 0-.79-4.77c-.05-.28-.11-.56-.18-.84-.09-.41-.19-.82-.3-1.23-.07-.29-.14-.58-.23-.869a12.53 12.53 0 0 0-.24-.881c-.84-2.939-1.88-5.689-3.02-8.35-.16-.4-.33-.8-.51-1.19-1.78-4.029-3.76-7.899-5.58-12.01l.05-.02z" fill="#202020"/><path d="M270.26 785.1c-.04-.409-.07-.819-.12-1.22.05.4.09.81.12 1.22zM269.1 777.58c-.1-.41-.19-.82-.3-1.23.11.41.21.82.3 1.23zM266.39 55.73c.21.16.42.31.63.48-.26.69-.51 1.39-.82 2.04.06-.51.07-1.17.05-2-.06.08-.12.15-.18.22.11-.24.21-.49.32-.74z" fill="#202020"/><path d="M266.39 55.73c-.11.25-.21.5-.32.74-2.5 3.04-1.42-1.54-3.16-2.4 1.18.16 2.34.84 3.48 1.66zM266.2 58.25c-.02.28-.06.52-.11.71-.07-.04-.13-.07-.2-.1.11-.2.22-.4.31-.61z" fill="#202020"/><path d="M265.89 58.86c.07.03.13.06.2.1-.18.79-.5 1-.89.9.26-.3.49-.64.69-1z" fill="#202020"/><path d="M265.89 58.86c-.2.36-.43.7-.69 1-.28-.06-.58-.28-.9-.56.27-.26.5-.54.72-.85.28.12.57.26.87.41zM265.31 766.25c-.17-.4-.34-.8-.51-1.19.18.39.35.79.51 1.19z" fill="#202020"/><path d="M266.07 56.47c-.31.71-.64 1.39-1.05 1.98-.84-.37-1.58-.58-2.14-.49h-.01c-.77-.63-1.28-.5-.96 2.5 1.02-.17 1.78-.59 2.39-1.16.32.28.62.5.9.56-.92 1.04-2.28 1.63-4.61 1.26 1.24-6.75-3.27-7.74-5.95-10.57-4.28.12-5.29 3.51-7.26 5.95-1.1.16-1.61.3-1.74.43-.77.24-1.64.56-2.59.95.8-1.12 1.73-2 3.01-2.04 2.93-2.36 4.4-6.17 9.25-6.61.56 2.96 4.21 2.83 5.28 5.29.77-.44 1.55-.56 2.32-.45 1.74.86.66 5.44 3.16 2.4z" fill="#202020"/><path d="M265.02 58.45c-.22.31-.45.59-.72.85-.49-.43-.99-1-1.42-1.34.56-.09 1.3.12 2.14.49zM262.91 54.07c-.77-.11-1.55.01-2.32.45 1.1-.63 1.83-.69 2.32-.45zM261.91 60.46c-.32-3 .19-3.13.96-2.5-.74.14-1.14.83-.96 2.5zM258.29 750.91c.25.6.51 1.189.77 1.78-.26-.59-.52-1.18-.77-1.78zM257.78 749.66c.08.21.17.42.26.63-.09-.21-.18-.42-.26-.63zM250.55 638.21l-.05.01c-2.22-9.38-2.32-20.569-5.1-29.12-11.41-6.8-19.05 9.521-30.37 1.32-1.06-5.25 1.47-6.89 3.3-9.24-5.65-6.96-10.32-24.05-6.52-34.439 1.03 7.01-1.13 15.79 1.24 23.22 1.61 5.021 5.59 8.38 6.6 12.54-3.06.9-4.65 3.27-3.96 7.92 3.05.92 6.26 1.67 10.56 1.32 4.69-4.95 16.47-7.84 20.47-1.98 4.37 6.399 1.78 19.649 3.83 28.449zM247.38 56.5c2.43.6 1.2.82-.12.78.16-.25.21-.51.12-.78zM247.38 56.5c-.5.07-1.08.22-1.74.43.13-.13.64-.27 1.74-.43z" fill="#202020"/><path d="M245.64 56.93c-.25.21.71.34 1.62.35-.63 1.04-3.11 1.92-5.52 2.69.42-.7.85-1.44 1.31-2.09.95-.39 1.82-.71 2.59-.95z" fill="#202020"/><path d="M230.87 53.2c4.68 2.61 10.98 2.78 15.19 2.64-1.28.04-2.21.92-3.01 2.04-2.53 1.04-5.57 2.51-8.67 3.98-1.83-2.47-1.7-5.08-3.51-8.66zM241.74 59.97c-1.24 2.05-2.5 3.82-4.92 2.47-1.25-.67 1.78-1.47 4.92-2.47z" fill="#202020"/><path d="M236.82 62.44c.89 1.76.26 1.65-.55 1.15.23-.37.41-.76.55-1.15z" fill="#202020"/><path d="M236.82 62.44c-.14.39-.32.78-.55 1.15-.37-.24-.79-.56-1.1-.82-.1-.09-.19-.19-.27-.29.87-.2 1.54-.24 1.92-.04zM236.13 482.46c.24 2.12.11 4.08-.72 5.7-.98 1.939-2.97 3.399-6.51 4.08-2.32 11.99-12.07 16.55-15.19 27.729-2.13 1.17-5 1.601-4.62 5.28-.76-.55-1.77-.87-3.3-.66v5.29c-4.37 2.68-10.89 5.16-11.89 11.22-.31 1.931 1.47 4.761 1.33 6.601-.4 5.149-5.3 10.939-7.27 15.85-2.51 6.26-3.24 11.97-7.26 15.84.6 1.17 2.43 1.091 2.64 2.641-4.5.35-1.19 7.31-5.28 9.25-.97 2.51 2.95.13 1.98 2.64-.65 1.771-3.22 1.62-3.96 3.3-.4 4.83-3.71 9.05-4.62 13.86-.51 2.67 1.54 5.89-.97 7.7-.1-2.66-.75-5.431-.35-7.7.93-5.32 6.03-17.1 8.58-17.16-4.89-1.38.28-3.61 1.32-7.92.56-2.33-1.14-5.81-.66-7.27.37-1.11 2.51-1.921 2.64-3.301.49-5.109-1.61-13.279-1.98-19.8-.38-6.72-2.73-12.189-1.98-16.51 1.4-8.061 16.89-15.24 9.24-19.15 1.44 2.391 2.29.34 0 3.311.56-2.83-1.27-4.28 0-7.271.98-2.319 3.37-2.72 3.96-6.6.78-4.98-1.79-11.16-.65-15.851.54-2.239 2.13-3.479 3.2-4.659-5.04 7.64 2.2 23.149-5.85 28.43 1.61 1.47 3.18 2.99 3.3 5.95-4.03 5.64-9.21 10.149-12.54 16.5 3.72 9.27 1.85 24.12 4.62 34.33 2.83-11.681 12.15-19.69 9.9-34.33 2.21-5.28 6.95-8.021 11.89-10.57v-5.93c4.42 1.96 3.83-3.75 7.92-3.971 3.2-11.1 12.87-15.739 15.19-27.729 5.4-.27 6.68-4.66 7.89-9.12zM236.11 482.29l.05.05-.03.12c0-.05 0-.11-.02-.17z" fill="#202020"/><path d="M235.5 63.1c-.07-.07-.14-.13-.2-.19-.05-.05-.09-.09-.13-.14.31.26.73.58 1.1.82-2.86 4.78-12.3 7.85-16.78 3.95.44.15 1.13.09 1.99-.11.81.38 1.54.92 2.14 1.61 4.01-1.92 10.09-1.79 11.88-5.94z" fill="#202020"/><path d="M235.17 62.77c.04.05.08.09.13.14-.13-.12-.24-.22-.33-.3.06.05.13.1.2.16zM234.84 62.5c-3.43.82-9.82 4.1-13.36 4.93-.25-.12-.5-.23-.77-.32 3.23-.37 8.52-2.8 13.67-5.25.16.21.33.41.52.62-.02.01-.03.01-.05.02h-.01zM236.11 482.29c-2.75-2.71-1.45-9.48-5.24-11.17.23-1.55.8-2.73 1.33-3.96-.4-1.15-3.14.05-3.3-1.33.15-8.05-4.73-13.17-2.65-21.12-2.6-3.34-5.83-6.05-9.24-8.58.3-5.37-3.68-6.439-2.64-12.55-.04-.13-.08-.25-.14-.36l.1-.05c1.76 3.68 2.29 8.57 3.34 12.96 4.44 2.16 7.87 5.33 9.91 9.9-3.11 5.779 2.85 12.06 1.98 19.8 1.17.4 2.74-1.93 3.3 0-.28 4.63 2.62 11.06 3.25 16.46z" fill="#202020"/><path d="M220.71 67.11c.27.09.52.2.77.32-.86.2-1.55.26-1.99.11-.18-.15-.34-.31-.5-.48.47.12 1.05.13 1.72.05z" fill="#202020"/><path d="M220.71 67.11c-.67.08-1.25.07-1.72-.05-11.28-.72-3.48 17.64-13.2 18.49-2.56-.31-2.49-3.24-4.62-3.97-7.29 7.21-15.61 6.26-27.73 7.27-.95-4.12-5.46-4.67-8.59-6.6-2.02 2.41-1.99 4.85-.65 7.92-3.28.69-5.5 2.43-8.59 3.3 2.55 4.32-2.71 5.93-3.96 8.58.86 5.87 3.64 9.65 1.98 16.51-5.02-.62-3.91 4.89-7.26 5.94 3.15 4.77 4.06 11.79 4.62 19.14-6.07-.56-10.12 2.66-13.78 3.27 4.07-1.83 6.61-5.19 13.12-4.58-2-5.71-.69-14.72-5.94-17.17 3.22-3.16 6.11-6.65 9.24-9.9-1.82-7.16-5.26-13.97 1.98-18.49.48-2.02-1.14-1.94-.66-3.96 2.9-.62 4.26-2.79 7.92-2.64-1.04-3.84-.06-5.74.66-9.24 3.6 1.91 8.77 2.23 9.91 6.6 12.04-.04 21.47 0 27.07-7.27 1.82 1.05 3.47 2.25 4.62 3.97 2.02.48 1.94-1.14 3.96-.66 1.66-4.51 1.85-10.47 3.3-15.19 2.39-1.68 5.66-2.18 8.32-1.27z" fill="#202020"/><path d="M218.99 67.06c.16.17.32.33.5.48-.25-.09-.42-.24-.5-.48zM215.69 388.59c-1.52 7.87 2.95 15.87 0 23.11-1.07 2.63-4.89 4.13-3.96 7.92 1.1.95 1.94 2.16 2.6 3.55l-.1.05c-.82-1.65-3.69-1.27-3.82-3.6 1.04-3.37 1.73-7.07 4.62-8.58 2.34-7.58-1.89-15.57 0-22.45-1.57-2.62-3.29-5.07-3.3-9.24-4.85-7.7-12.14-12.96-17.83-19.81 9.76 7.19 17.89 16 21.79 29.05zM212.21 565.75c-.15.32-.28.65-.4.99-.02-.19-.05-.37-.08-.55.17-.13.33-.28.48-.44zM200.51 248.62c3.28 4.03 4.08 7.08 2.64 13.21h-2.64c-.32 2.08 1.19 2.33.66 4.62-3.19 1.92-4.07.31-7.93 0-1.76.97-.12 4.46-4.62 3.96-.77 8.82-1.74 18.93-1.95 29.95-.17-3.05-1.36-6.18-1.35-9.48.03-7.37 4.78-15.65 1.32-20.47.78-1.2 3.44-.52 4.62-1.32.55-1.87-.93-1.71-.65-3.3 3.12-.26 5.5.21 7.92.66 2.3-.52 1.93-2.99.66-4.62 5.94-1.54 3.34-8.81 1.32-12.55-1.5 4.44-5.27 6.62-7.27 10.56-.24-.65-.48-1.3-.72-1.96l.06-.02c3.86-1.86 4.89-6.55 7.93-9.24zM186.64 486.96c5.1.57 6.33-5.82 9.9-4.62-1.85 1.79-.52 1.641 0 3.96a8.622 8.622 0 0 0-2.01 1.641c.36-.66.46-1.381.04-2.301-2.96-1.83-4.2 3.71-8.59 2.641-1.49-3.46.06-7.84.66-11.221-1.99-.619-5.13.94-5.28 0 12.55.86 4.22-10.8 7.92-15.85-2.03.01-5 2.87-5.94 0-.3-3.61 3.12-3.479 4.62-5.28-2.37-.27-5.11-.17-5.94-1.979.9-3.5 5.29-3.51 6.6-6.601-1.72.181-2.84-.239-2.64-1.979 6.4-13.061-2.59-25.79-5.94-35.65-1.55-4.54-2.04-8.34-3.96-11.89-4.04-7.47-9.33-13.71-9.24-24.43-.38 7.55.13 15.98-1.99 21.79-5.36-6-1.1-17.66-4.62-25.09.31-2.11 2.52-2.32 2.64-4.62-7.69-14.31-14.95-29.06-14.52-51.5-3.89-3.4-1.48-8.1-1.32-12.54.16-4.61-.73-15.21-1.32-19.81-.81-6.26-7.05-5.62-7.93-11.22 6.84-5.83-1.33-22.59 7.27-26.41-5.14 1.46-10.53 2.67-15.85 3.96-7.71-10.13-6.02-26.73-13.2-36.97-2.52-3.6-6.9-5.15-8.95-8.67-.12-.87-.42-1.73-.96-2.56.19.97.52 1.81.96 2.56.53 3.48-1.64 7.15-1.62 9.33.05 3.42 2.7 6.41 1.99 10.56-.22 1.27-1.55 2.59-2.72 4.33 1.87-5.44 2.06-11.27-.58-16.21 5.36-3.12-2.57-9.36 1.97-11.89 1.99 5.12 7.19 7.33 10.57 11.89 7.11 9.57 6.12 25.5 12.54 36.31 6.05-.27 13.29-5.12 17.83-2.64-1.58 1.94-4.23 2.81-5.28 5.28.7 8.94.9 15.97-2.64 21.79 10.02 6.34 8.14 23.02 7.92 37.63 3.54 4.12 2.16 10.28 2.64 16.51 1.17 15.22 9.64 29.86 13.86 40.93-.09 2.12-3.52 2.89-1.98 4.62 3.27 7.63-.67 15.02 3.3 21.79 1.43-7.16-1.23-18.4 3.31-22.45-.91 12.72 4.67 19.79 8.58 26.41 2.38 4.04 2.3 7.57 3.96 12.55 3.07 9.17 10.17 17.54 8.58 31.03-1.06 1.13-.32 4.08-1.98 4.62-.86 2.84 3.14.82 2.64 3.3-.77 2.3-4.48 1.67-4.62 4.62 3.2-.55 4.45.83 4.62 3.3-1.56 2.181-4.92 2.561-5.94 5.28 3.35.4 4.83-2.4 6.61 0-3.17 3.37-.97 6.44 0 10.57-1.72 4.669-4.65 8.109-3.97 15.179zm-3.96-33.67c.12 1.9 4.8 2.63 5.94 1.32-2.07-.3-4.58-2.35-5.94-1.32zM193.81 488.9c.2-.32.44-.631.69-.92-.17.31-.41.61-.69.92z" fill="#202020"/><path d="M192.58 257.86l-.06.02c-2.83-7.93-5.31-16.22-10.5-21.8.53-1.89 2.21-2.64 2.64-4.63.16-7.2-3.72-10.36-9.24-11.88-8.76-15.01-21.8-25.73-31.03-40.27.63-2.02.96-4.32 2.64-5.28 1.07-8.21-5.79-10.95-3.96-17.83-.32.05-.57.03-.77-.05.11-.37.22-.76.33-1.16.45.11.82.28 1.1.55-2.02 5.49 8.17 14.47 1.98 21.79 8.08 17.71 22.11 26.29 31.03 42.25 7.76-.12 10.87 10.66 6.6 16.51 3.77 6.57 8.73 11.95 9.24 21.78zM193.24 358.22c-.57.35-1.11.49-1.62.49-2.49 0-4.3-3.52-6.3-4.45.26-9.37-9.97-12.35-13.2-19.15-2.56-5.38-.63-12.1-5.28-17.16-.07-6.01 3.88-8 6.6-11.23 1.93-.17 2.02 1.49 3.96 1.32 1.48-.27.02-3.5 1.32-3.96 3.15-.98 5.23-1.6 7.26.66.37-.84.58-1.69.66-2.54-.01 1.49-.02 3 0 4.52-2.4-.01-1.4-3.44-4.62-2.64-2.81.04-3.8 1.92-3.3 5.28-1.54-.21-2.73-.79-3.96-1.32-3.86 1.43-6.09 4.47-7.26 8.59 4.04 5.36 2.88 11.65 5.28 17.16 1.71 3.94 6.27 5.89 9.24 9.9 3.95 5.34 3.17 13.28 11.22 14.53zM188.62 454.61c-1.14 1.31-5.82.58-5.94-1.32 1.36-1.03 3.87 1.02 5.94 1.32zM186.67 300.36c.04.61.04 1.21-.03 1.82l.03-1.82zM178.72 527.9c4.3.21 4.98 2.649.66.659.01 1.311 1.8.83 1.32 2.641-.77-.11-1.17.14-1.32.66-.92-.24-.06-1.16.66-1.32-.01-1.31-1.8-.84-1.32-2.64zM182.02 446.69v3.3c-1.4.109-.35-2.23-.64-3.23.19.04.4.02.64-.07zM181.36 500.17c1.57-1.439-.11 2.74-2.64 1.32.37-1.61.57-3.4 2.64-3.3-.65.67-1.3 1.329-1.98 1.979.15.841 1.97.861 1.98.001zM181.36 446.69c.01.02.01.05.02.069a.581.581 0 0 1-.25-.09c.06-.009.14.001.23.021zM181.13 446.67c-.35.021-.4.33-.43.68-.98-.56-1.42-1.659-1.32-3.3.72-1.38.54 1.98 1.75 2.62zM179.38 448.01c2.6 2.86-1.6 4.53-1.32 7.26 2.02-1.449 2.11-1.359.66.66-3.56-1.699 1.22-3.22.66-5.939-3.36 2.089-.5.479 0-1.981zM174.76 481.68c7.09-.489 8.65 1.07.66.66-1.02 1.13.23 2.4-.66 4.62-1.03.74-.36-4.28 0-5.28zM176.74 462.54c.98.28-.26.84 0 1.97-1.38.28-1.75-.45-2.64-.66.23-.859 1.16-1.029 1.32-1.979 1.17.49.09 1.2 0 1.979.59-.29 1.18-.58 1.32-1.31zM176.08 583.36c.74 2.659-2.03 3.26-3.3 1.97.45-1.3 1.76-1.75 3.3-1.97zM174.76 436.13c2.12.74-.64 1.88-1.98 1.32-.13-1.9-.08-3.61 1.98-3.311.18 1.181-.63 1.36-.66.67-2.03-.119.29 3.811.66 1.321zM173.44 595.24c.28 2.26-1.98 1.979-2.65 3.3-1.64-1.06.03-4.32 2.65-3.3zM170.79 403.77c2.32.77 1.68 4.49 1.99 7.27-1.81-1.6-4.14-1.6-5.94 0 .69-3.05 2.45-5.03 3.95-7.27zM172.12 419.62c.45.93-.32 6.26 0 9.24-2.1-.69-.44-6.91 0-9.24zM170.79 443.39c2.28 2.311.64 12.561.67 3.301-1.56-.021-1.95 1.14-3.96.659.26-1.59-1.21-1.439-.66-3.3.66 1.4 1.9 3.95 3.95 1.98-.36-.95-1.02-1.61-1.97-1.98-1.97-1.84 2.16 1.14 1.97-.66zM170.49 618.78c.02.26.02.52.02.779a1.394 1.394 0 0 1-.37-.55c.13-.069.24-.149.35-.229zM168.16 531.86c1.22-1.61.44 4.35.66 5.939-1.23 1.611-.45-4.349-.66-5.939zM168.82 473.1c-.21 6.051-2.6 1.7-1.98-.659 1.06-.191 1.13.619 1.98.659zM165.51 507.43c.58-1.949.99 1.53 2.65.66-.56 4.75-.77 2.45-2.65-.66zM166.17 491.58c1.22-1.79.35 3.2-.66 3.3-.34 8.06-1.11-1.16.66-3.3zM166.17 563.55c1.28-.6-2.6 4.19-1.97 7.26-1.5-.489-.26-3.699-.67-5.279 1.66.109 2.07-1.021 2.64-1.981zM162.21 452.63c1.07-.28 2.22 2.46.66 2.64-1.24 1.66.4-.63 0-1.979-1.31.01-.83 1.8-2.64 1.32-1.02-2.351 2.25-.401 1.98-1.981zM160.23 457.91c-5.8 2.17 2.34 10.17-3.3 4.63.26-2.39 1.08-4.21 3.3-4.63zM158.25 451.97c1.03.601.35 2.431 0 2.641-.35 1.21-.53-1.141-1.32-2.641-.84.92-3.23.29-3.3 1.98-.28 1.45 1.98 3.64 2.64 1.979.87-.319.29 3.28-1.32 2.641.58-2.551-1.61-2.351-1.98-3.96-.09-3.58 4.88-3.12 5.28-2.64zM156.27 496.87c.47.479 1.65 3.229-.66 2.63.35-.52.69-1.07.66-1.98-.88.671-2.45.631-2.64 1.98-1.2-.41 1.14-2.75 2.64-2.63zM154.95 562.23c.19 1.18-.62 1.35-.66.659-.98.28.26.841 0 1.98-2.88 1.689-1.11-2.53-2.64 1.32-.77-.11-.56-1.21-.66-1.98 2.34.361 1.62-2.339 3.96-1.979zM154.29 378.03c.09 1.62.1 3.18-.66 3.96-.88-.44-1.23-1.42-1.32-2.64.64.01.51.8.66 1.31 1.28.27.97-3-.66-1.98.11-.77 1.21-.55 1.98-.65zM155.61 471.12c-1.16-.16-1.5-1.14-1.32-2.64-.77.1-.55 1.199-.66 1.979-1.64-.1-.19-2.24 0-2.64 1.86-.099 1.91 1.611 1.98 3.301z" fill="#202020"/><path d="M150.99 143.64c-5.39-.5-6.99 6.38-8.36 11.34-.8-.19-1.82-.17-2.86-.11-1.65-.25-.99 1.81-1.41 2.8-.17-2.29-2.57-9.37-1.92-10.66.22-.01.44-.04.66-.08.01.01.02.01.03.02a.3.3 0 0 0 .08-.04c3.66-.61 7.71-3.83 13.78-3.27zM149.01 546.38h1.98c-.02.64-.81.51-1.32.66-.06 2.32 2.31 7.03-.66 3.96.69-1.87.69-2.75 0-4.62zM150.33 430.18c2.02 2.811-2.9 5.75 0 1.32.2-1.34-1.91.14-1.98.66-1.4-.2.69-2.29 1.98-1.98zM150.33 443.39v1.32c-2.26.271-3.76-.2-3.3-2.64 2.72-.32-.64 1.77 1.98 1.979.64-.02.51-.81.66-1.319.56-.12.62.26.66.66zM147.03 365.48c-.79-2.85 1.9-3.96 3.3-2.64-.12 1.86-1.15 2.81-3.3 2.64zM150.33 597.88c-.43.67-1.52.68-1.32 1.98-.4-.19-2.54-1.641-2.64 0-2.02-1.03 1.68-1.771 1.32-3.301 1.8-.479 1.33 1.311 2.64 1.321z" fill="#202020"/><path d="M142.63 154.98c-.11.4-.22.79-.33 1.16-.29-.1-.47-.31-.55-.61-3.22-1.01-1.98 2.42-3.3 3.3-.07-.03-.13-.06-.19-.08l-.01-.01c-.15-.17-.31-.36-.47-.57.48.44.63.19.58-.5.42-.99-.24-3.05 1.41-2.8 1.04-.06 2.06-.08 2.86.11z" fill="#202020"/><path d="M141.75 155.53c.08.3.26.51.55.61-.93 3.15-1.89 5.03-4.04 2.61.06.02.12.05.19.08 1.32-.88.08-4.31 3.3-3.3zM140.43 467.82c.79 1.85-3.96.77-.66 1.979-.42 1.601-3.34.34-2.64-1.319 1.86.54 1.71-.94 3.3-.66zM138.36 157.67c.05.69-.1.94-.58.5.3-.06.48-.24.58-.5z" fill="#202020"/><path d="M136.44 147.01c-.65 1.29 1.75 8.37 1.92 10.66-.1.26-.28.44-.58.5-.08-.08-.16-.17-.25-.25-3.27-3.54-6.04-10.72-7.01-14.28 2.07 2.71 3.96 3.49 5.92 3.37zM138.25 158.74c-.13-.06-.25-.12-.37-.16-.02-.09-.04-.19-.08-.31 0-.03-.01-.07-.02-.1.16.21.32.4.47.57zM137.91 158.75c1.07 5.48-4-.95-1.01-.47.47.76 1.16 1.48 1.01.47z" fill="#202020"/><path d="M137.91 158.75c.15 1.01-.54.29-1.01-.47.26.04.58.13.97.3.02.06.03.12.04.17z" fill="#202020"/><path d="M137.91 158.75c-.01-.05-.02-.11-.04-.17h.01c.01.06.02.12.03.17zM137.88 158.58h-.01c-.02-.1-.04-.2-.07-.31.04.12.06.22.08.31z" fill="#202020"/><path d="M137.8 158.27c.03.11.05.21.07.31-.39-.17-.71-.26-.97-.3-.53-.85-.8-1.75.63-.36.09.08.17.17.25.25.01.03.02.07.02.1zM137.21 146.91a.3.3 0 0 1-.08.04c-.01-.01-.02-.01-.03-.02.03 0 .07-.01.11-.02zM136.44 147.01c.11-.23.32-.27.66-.08-.22.04-.44.07-.66.08zM133.16 480.36c.15 2.52-3.63 3.3-5.28 1.979.58-.97.99-2.09 2.64-1.979 2.05.67-1.87.649-1.98 1.319 1.28 2.261 2.58-1.399 3.7-.34.06.11.15.22.26.34-.09-.149-.17-.26-.26-.34-.4-.619-.13-1.009.92-.979zM103.45 228.82c.34-.84.78-1.6 1.25-2.28a30.02 30.02 0 0 1-1.68 3.92c.1-.58.23-1.14.43-1.64zM85.23 245.66zM84.48 245.59zM83.63 245.46zM82.7 245.24zM81.99 245.02zM80.72 244.48z" fill="#202020"/><g fill="none" stroke="#231f20" stroke-width="7"><path d="M585.04 68.59h220.8V212.42H586.37M568.74 58.91c-4.17-1.85-6.95-5.2-6.95-9.01 0-5.83 6.49-10.56 14.49-10.56s14.489 4.73 14.489 10.56c0 3.72-2.649 7-6.659 8.88-2.25 1.06-4.95 1.67-7.83 1.67-2.77 0-5.35-.56-7.54-1.54z"/><path d="M568.74 58.62v.29l.42 253.93M584.11 191.53v121.31M584.11 92.32v93.91M584.11 58.09v28.93M586.15 163.88h218.11M337.17 788.02c1.52 1.57.24 5.931.66 8.591-2.57-.351-1.28-7.151-.66-8.591zM399.24 791.32v2.64c-2.55.53-2.55-3.16 0-2.64zM81.15 244.69c-.15-.06-.29-.13-.43-.21M258.04 750.29c-.09-.21-.18-.42-.26-.63M259.06 752.69c-.26-.591-.52-1.181-.77-1.78M268.57 775.48a12.53 12.53 0 0 0-.24-.881M269.47 779.36c-.06-.32-.12-.63-.19-.94M270.26 785.1c-.04-.409-.07-.819-.12-1.22M361.5 762.93c-.16-.029-.33-.04-.51-.05M366.5 764.52c-.17-.109-.35-.21-.53-.3M370.52 768.42c-.14-.21-.29-.41-.44-.61M371.37 769.76c-.12-.189-.23-.39-.35-.58M382.89 783.27c4.62 3.04 8.91 6.45 12.38 7.391M374.85 774.7c.84 1.83 1.66 3.67 2.6 5.399 1.84.9 3.67 2.011 5.44 3.17M182.68 453.29c.12 1.9 4.8 2.63 5.94 1.32-2.07-.3-4.58-2.35-5.94-1.32z"/><path d="M194.53 487.94a8.622 8.622 0 0 1 2.01-1.641c-.52-2.319-1.85-2.17 0-3.96-3.57-1.2-4.8 5.19-9.9 4.62-.68-7.07 2.25-10.51 3.97-15.18-.97-4.13-3.17-7.2 0-10.57-1.78-2.4-3.26.4-6.61 0 1.02-2.72 4.38-3.1 5.94-5.28-.17-2.47-1.42-3.85-4.62-3.3.14-2.95 3.85-2.32 4.62-4.62.5-2.479-3.5-.46-2.64-3.3 1.66-.54.92-3.49 1.98-4.62 1.59-13.49-5.51-21.86-8.58-31.03-1.66-4.98-1.58-8.51-3.96-12.55-3.91-6.62-9.49-13.69-8.58-26.41-4.54 4.05-1.88 15.29-3.31 22.45-3.97-6.77-.03-14.16-3.3-21.79-1.54-1.73 1.89-2.5 1.98-4.62-4.22-11.07-12.69-25.71-13.86-40.93-.48-6.23.9-12.39-2.64-16.51.22-14.61 2.1-31.29-7.92-37.63 3.54-5.82 3.34-12.85 2.64-21.79 1.05-2.47 3.7-3.34 5.28-5.28-4.54-2.48-11.78 2.37-17.83 2.64-6.42-10.81-5.43-26.74-12.54-36.31-3.38-4.56-8.58-6.77-10.57-11.89-4.54 2.53 3.39 8.77-1.97 11.89 2.64 4.94 2.45 10.77.58 16.21a30.02 30.02 0 0 1-1.68 3.92c-7.05 13.8-24.11 22.51-29.27 1.65-1.06 5.47 1.76 12.76 4.62 16.51-2.52 1.88-4.54 4.27-8.58 4.62"/><path d="M577.33 587.13c.05.061.11.12.16.18l-.061.141c-.75 1.819-1.43 3.71-1.92 5.81-5.97 2.061-9.439-2.45-13.859-3.96-2.341 4.92-3.57 10.95-6.601 15.181-15.93 2.779-25.609 11.81-36.979 19.149-2.34 11.521-5.521 22.2-11.221 30.37h-5.939a26.33 26.33 0 0 1-2.601-3.72 32.18 32.18 0 0 1-2.13-4.32c-6.67-16.19-4.449-41.58-1.87-61.29 2.79-2.7 5.11-5.89 7.921-8.58 2.029-.49.81 2.28 3.3 1.32-.62-7.74-4.721-12-13.86-11.22-1.21-1.66-1.38-4.351-3.31-5.28-3.73-.44-3.63 2.96-6.601 3.3-1.45-5.7-7.91-10.82-5.279-16.51 4.06-2.78 11.8-.66 17.17-.66 2.369-5.1 6.75-8.2 11.22-11.22-.53-2.551-4.101-2.07-4.62-4.62.97-3.21 3.64-4.73 5.28-7.271 3.319 1.96 7.25 3.32 10.56 5.28 2.5-.8 2.84-3.76 4.62-5.28 6.82 2.58 10.16-3.29 17.17-2.64.62 3.79 1.46 7.34 3.3 9.91 2.91.04 4.141-1.58 5.28-3.3 3.1 1.52 3.6 5.649 8.59 5.279 1.431-5.52 1.59-8.819 4.62-13.21-4.46-3.899-10.79-5.93-15.189-9.899-1.631-6.98-.5-17.931-5.28-20.471 1.42-1.22 4.84-.439 7.26-.659 1.55-1.101 1.7-3.58 2.64-5.28 3.74 2.21 12.48-.59 13.21 4.62 3.53-2.38 4.881.029 8.58.66-1.3-5.881-.39-9.94-1.319-15.841 4.13.49 8.35.891 13.21.66 2.08-1.66 2.97-4.51 3.96-7.27-2.41 1.34-2.26 5.229-4.62 6.609-4.63 0-8.13-1.119-13.21-.659.64 3.439-.62 10.619 1.32 15.18-6.19-1.75-12.881-2.79-21.131-5.28-1.56 1.08-1.399 3.87-2.64 5.28-3.52-.22-5.78.82-8.58 1.32.25 3.85 3.59 3.869 4.62 7.26 1.29 4.22-1.91 9.25.66 13.87 4.63 3.52 9.3 6.979 15.189 9.239-.47 3.771-4.159 7.95-3.96 13.21-5.85-2.649-7.22-8.3-12.55-1.979-1.59-3.04-2.93-6.32-3.3-10.57-6.86-.62-11.8 5.971-17.17 2.65-2.83.899-2.7 4.77-5.94 5.28-3.069-1.771-6.949-2.73-9.239-5.28-2.73 2.11-5.19 4.479-6.601 7.92.24 2.61 1.91 3.8 3.96 4.62-3.18 3.64-8.47 5.18-9.899 10.56-7.86.29-18.141-1.85-19.811 4.62-4.189.67-5.79-3.99-9.899-5.28-7.37-2.3-16.931 1.051-20.471-5.939-2.96 4.14-3.05 8.01-7.26 8.58-1.95.27-9.29-.71-8.59-7.26.35-3.221 8.59-6.28 9.25-9.9.74-4.15-5.25-16.37-9.91-16.51-6.81-.2-5.16 7.489-6.6 13.87-4.86-3.69-8.98 1.609-11.88 1.31-.76-17.79-3.12-36.57-13.87-46.21-1.99-4.83-4.43-9.21-4.62-15.84.58-2.12-1.71-1.37-1.98-2.65-.53-5.37.81-8.87 2.64-11.88-2.78-6.02-8.4-9.2-13.2-13.2 2.02-17.04-10.58-25.66-7.93-43.58 4.96.12 10.03.34 12.55-1.98 1.69-1.1-2.58-1.77-1.98-3.96 8.67-4.53 12.48-13.93 17.16-22.45-6.19 7.45-9.32 17.97-18.48 22.45.3 2.55 3.13 2.6.66 4.62-2.45 1.07-6.5.55-9.91.66-5.02 17.37 9.42 27.62 7.27 44.24 4.18 4.4 9.27 7.891 13.2 12.54-3.56 4.721-4.02 12.04-.66 17.17-2.17 2.021-6.09-5.25-9.24-6.6-2.86.92.21 3.68-.66 6.6-3.58-2.59-7.28-5.06-12.55-5.949-5.66-6.66-9.93-14.721-19.14-17.82-2.63-2.22-2.9-6.79-5.95-8.58-6.92-.11-7.65 5.979-15.84 4.62-2.34-.141-1.31 3.09-3.96 2.64-4.35-5.35-14.08-3.7-19.81-4.62-1.15.601-1.46 2.061-1.32 3.96-1.53-1.779-2.68-3.93-5.94-3.96-.4-3.71 3.42-3.18 3.96-5.949.08-2.94-1.63-4.091-1.98-6.601.74-1.67 3.31-1.52 3.96-3.3.5-3.58-2.65-3.51-3.3-5.94 3.61-4.67 2.62-13.89 4.62-18.49-5.39-2.31-16.43 1.03-18.48-4.62-1.1.81-1.77 2.05-2.93 2.81-.3.2-.65.37-1.04.49-.17-.01-.34-.03-.51-.03-13.95-.91-22.15 3.94-27.87 11.26 2.62 3.1 5.25 6.19 6.6 10.56-2.95 4.1-1.66 12.43-5.28 15.85-.36 9.23 2.29 16.88-.67 22.44 3.03 6.859-.66 14.63-6.6 16.51-.67 5.17-2.69 9.55-4.95 13.79-3.78 7.08-8.24 13.79-8.25 23.18-.95 1.811-2.62.891-3.96 3.301-.05 4.89.56 9.119 1.32 13.21-1.55.21-2.73.79-3.97 1.31-1.84 8.95-12.73 14.87-7.92 24.43-.54 2.74-4.45-2.93-6.6.66-.36 4.11 3.49 4 3.96 7.271-1.19 1.16-2.12 2.569-2.82 4.18-.15.32-.28.65-.4.99-3.8 10.39.87 27.479 6.52 34.439-1.83 2.351-4.36 3.99-3.3 9.24 11.32 8.2 18.96-8.12 30.37-1.32 2.78 8.551 2.88 19.74 5.1 29.12 1.48 6.3 3.92 11.79 8.77 15.12 2.11-.09 2.9-1.5 2.64-3.96 9.17 16.73 6.15 41.65 15.18 58.101 4.12 7.489 9.98 11.67 14.53 17.819 5.55-.8 7.63 4.29 12.54 5.94 4.3-1.41 9.79-1.65 15.19-1.98 2.58-1.77-3.56-2.37-1.32-3.96 12.88 1.45 14.46 16.17 23.76 24.431 3.48 3.079 9.95 6.34 13.22 10.029 1.09 1.23 1.82 2.5 1.97 3.83.52 4.73-5.16 6.75-7.26 10.57-2.43 4.39-1.25 8.68-5.29 10.56-2.68.05-4.89-2.779-6.6 0-2.15-2.68-4.43-5.25-5.94-8.58-5.44 1.601-9.08 5.011-15.18 5.94-1.98 2.85-2.64 7.02-5.92 8.56-.01.011-.02.021-.03.021-.12-.01-.24-.03-.36-.05-5.86-.931-11.61-11.141-2.94-13.15 1.78-6.45-1.06-11.9.66-16.51-3.83-2.17-8.05-2.11-12.54-.66-.83-5.55-2.09-10.67-6.6-12.54-.32.28-.64.52-.96.72-5.17 3.271-10.73-3.22-17.53-2.7-.58-5.14-2.2-9.239-7.92-9.239-2.72 2.779-.3 10.7-2.64 13.859-2.33-.09-1.89-2.96-2.64-4.62-6.93-.119-10.19-14.14-19.15-16.51-1.45-4.939-1.19-9.399 1.32-12.54-2.39-2.67-8.8-1.319-9.24-5.939 1.1-2.2 3.48-3.12 2.64-7.271-2.52-.54-.78 3.19-3.3 2.65-.66-2.26.28-1.99-1.32-3.311-3.24-.369-.52 5.21-3.97 4.631-5.74-6.141-5.33-18.431-13.2-22.45-2.3-2.101-1.32 3.069-4.62 1.979-3.37-3.229.61-7.37.66-11.22-1.79-1.021-2.99 0-5.28-1.32.21-2.43-.74-3.67-1.32-5.29-3.24.221-5.88 2.521-9.25.66-.57-4.93-.48-10.52-2.64-13.859-1.17.149-3.3-.671-2.64 1.319-1.47-.67.86-3.04 0-5.28-4.87.41-7.26 3.301-11.88 3.961 2.47 6.06.81 22.569-5.28 26.409-2.88-11.72 1.37-27.67-4.62-36.97 3.14-7.87 1.49-20.52 8.58-24.43-.52-.721-1.64-.84-2.27-1.431a1.394 1.394 0 0 1-.37-.55c.13-.069.24-.149.35-.229 2.51-1.811.46-5.03.97-7.7.91-4.811 4.22-9.03 4.62-13.86.74-1.68 3.31-1.529 3.96-3.3.97-2.51-2.95-.13-1.98-2.64 4.09-1.94.78-8.9 5.28-9.25-.21-1.55-2.04-1.471-2.64-2.641 4.02-3.87 4.75-9.58 7.26-15.84 1.97-4.91 6.87-10.7 7.27-15.85.14-1.84-1.64-4.67-1.33-6.601 1-6.06 7.52-8.54 11.89-11.22v-5.29c1.53-.21 2.54.11 3.3.66-.38-3.68 2.49-4.11 4.62-5.28 3.12-11.18 12.87-15.739 15.19-27.729 3.54-.681 5.53-2.141 6.51-4.08.83-1.62.96-3.58.72-5.7 0-.05 0-.11-.02-.17-.63-5.4-3.53-11.83-3.25-16.46-.56-1.93-2.13.4-3.3 0 .87-7.74-5.09-14.021-1.98-19.8-2.04-4.57-5.47-7.74-9.91-9.9-1.05-4.39-1.58-9.28-3.34-12.96-.66-1.39-1.5-2.6-2.6-3.55-.93-3.79 2.89-5.29 3.96-7.92 2.95-7.24-1.52-15.24 0-23.11-3.9-13.05-12.03-21.86-21.79-29.05 5.69 6.85 12.98 12.11 17.83 19.81.01 4.17 1.73 6.62 3.3 9.24-1.89 6.88 2.34 14.87 0 22.45-2.89 1.51-3.58 5.21-4.62 8.58.13 2.33 3 1.95 3.82 3.6.06.11.1.23.14.36-1.04 6.11 2.94 7.18 2.64 12.55 3.41 2.53 6.64 5.24 9.24 8.58-2.08 7.95 2.8 13.07 2.65 21.12.16 1.38 2.9.18 3.3 1.33-.53 1.229-1.1 2.41-1.33 3.96 3.79 1.689 2.49 8.46 5.24 11.17l.05.05-.03.12c-1.21 4.46-2.49 8.85-7.89 9.12-2.32 11.99-11.99 16.63-15.19 27.729-4.09.221-3.5 5.931-7.92 3.971v5.93c-4.94 2.55-9.68 5.29-11.89 10.57 2.25 14.64-7.07 22.649-9.9 34.33-2.77-10.21-.9-25.061-4.62-34.33 3.33-6.351 8.51-10.86 12.54-16.5-.12-2.96-1.69-4.48-3.3-5.95 8.05-5.28.81-20.79 5.85-28.43.2-.32.44-.631.69-.92"/><path d="M577.33 587.13c-1.04-2.81-3.521-5.54-5.12-7.74 4.26.521 6.5-.979 10.57-.659-.061-5.32-1.16-12.2 5.279-9.24.53-2.51-3.119-.84-4.619-1.32-2.4 1.6-2.24 6.09-1.32 9.24-3.28.899-7.23 1.14-11.23 1.32-.03 2.409 4.22 5.939 6.44 8.399z"/><path d="M374.85 774.7c-3.26-7.061-6.76-13.88-17.87-13.09-.63-.63-1.25-1.29-1.85-1.95-3.7-4.05-7.04-8.47-12.68-10.59-7.82-9.34-11.03-23.29-27.06-24.431-1.76 1.95 2.09 2.301 3.3 3.301-3.86 1-11.71 1.489-13.87 1.979-5.76-.58-7.35-6.729-12.54-5.939-5.7-3.98-8.44-10.931-13.87-15.181-3.77-9.02-6.31-20.71-8.58-32.35-2.22-11.44-1.71-24.66-10.56-30.37-2.05 1.24 3.69 3.71.66 5.939-2.42-3.289-6.52-6.1-8.58-11.229-.32-.8-.59-1.67-.8-2.58-2.05-8.8.54-22.05-3.83-28.45-4-5.859-15.78-2.97-20.47 1.98-4.3.35-7.51-.4-10.56-1.32-.69-4.65.9-7.02 3.96-7.92-1.01-4.16-4.99-7.52-6.6-12.54-2.37-7.43-.21-16.21-1.24-23.22-.02-.19-.05-.37-.08-.55.17-.131.33-.28.48-.44 1.35-1.42 1.85-3.69 4.8-3.52-.83-3.351-4.73-3.631-4.62-7.931 3.3-.66 3.23 2.061 5.94 1.99 1.86-3.51-.84-6.1-1.32-9.25 2.27-6.76 7.79-10.26 9.91-17.16 1.25-1.24 1.66-.08 3.3 0 .94-6.399-4.39-17.5 3.3-15.85.46-3.32-1.12-4.601-.66-7.92 4.31-6.471 5.39-16.17 11.22-21.13-.61-11.391 9.79-11.78 10.56-21.79-.09-2.33-1.88-2.95-1.97-5.28 3.02-8.41-.26-29.34 6.6-37.63-2.01-3.71-2.84-8.61-6.6-10.56 3.28-9.54 16.48-9.17 26.55-11.92a25.3 25.3 0 0 0 1.55-.46c.78-.25 1.54-.52 2.27-.83 4.16 3.1 12.32 2.2 18.48 3.3-4.42 5.98-.01 13.2-5.28 17.83.3 2.56 3.24 2.48 3.96 4.62-.18 2.9-3.95 2.21-4.62 4.62.83 2.03 1.84 3.88 2.64 5.94-.83 2.479-3.69 2.91-4.62 5.29 1.37 2.81 5.1 3.26 6.6 5.939 2.07.3 2.11-1.41 1.98-3.3 7.25-.42 14.38-.32 19.81 3.96 2.76.56 2.61-1.79 3.96-2.64 8.43 1.6 9.15-4.5 16.5-3.96 1.99 5.279 4.97 9.56 11.23 10.56 2.76 6.26 9.68 8.37 11.88 15.18 5.9 1.36 11.42 3.11 13.87 7.931 2.83-1.07-.36-4.61.66-7.931 2.61 3.33 6.7 5.181 9.24 8.591-.18 2.239.51 5.35-.66 6.6 4.53 2.3 6.02 7.63 7.92 12.54 1.17-.16 1.51-1.13 1.32-2.64 2.85 6.579 7.55 13.279 8.59 22.449.81 7.221-2.86 15.62 1.98 19.811 3.37-2.61 8.07-3.771 11.88-2.641 3.48-2.47.5-11.39 4.62-13.21 7.47 1.33 9.3 8.311 10.57 15.851-2.43 3.51-7.06 4.819-9.25 8.58-.13 10.83 16.4 11.939 17.17 1.319 1.66 1.42 3.681 2.48 5.28 3.96 12.25-.81 18.58 4.311 27.07 7.261-.24 6.189 3.88 8.01 5.279 12.55 2.86 1.86 3.91-2.89 7.261-2.64 1.43 8.039 15.58 3.35 15.85 12.539-14.31 2.381-12.26 24.101-13.21 44.9-.2 4.43-1.11 8.78-.66 11.88.86 5.76 3.55 10.21 5.84 14.41.79 1.46 1.53 2.88 2.13 4.32.601 1.43 1.061 2.88 1.28 4.38h7.26c6.74-7.351 9.5-18.67 11.881-30.37 11.17-6.88 20.01-16.09 35.659-18.49 3.83-3.64 5.82-9.14 7.261-15.18 4.77.95 6.43 5.01 13.199 3.96 3.021-2.21 3.381-4.69 2.58-7.13-.029-.101-.069-.21-.1-.32"/><path d="M270.45 790.68c-.15-.479-.36-.93-.62-1.34.22-.689.41-1.359.57-2.03 3.49-14.569-6.32-24.75-11.13-34.279 3.3-2.86 2.15-10.17 3.3-15.181 5.55-.71 6.29 3.391 6.6 7.92 5.12 2.771 10.95 1.23 15.19 5.28 2.58.51 2.49-1.649 3.72-2.5.08-.05.16-.1.24-.14 4.89 1.49 5.18 7.58 6.6 12.54 4.34.39 8.02-2.46 12.54.66-2.63 4.029 1.55 9.35-.66 15.189-10.09 3.73-2.69 13.141 3.6 13.811.13.02.26.029.39.029 3.08.16 5.8-1.899 5.92-7.899 6.82.229 8.94-4.26 14.52-5.28 1.66 2.96 4.55 4.69 5.28 8.58 2.58-1.55 4.27-2.57 6.61 0 3.79-2.37 7.47-4.84 7.26-11.22 2.46-3.92 7.73-5.04 7.26-11.891 1.05-.1 2.03-.12 2.94-.069.14 0 .27.01.41.02.17.01.34.021.51.05.16.011.33.03.48.061.5.06.98.149 1.43.27.2.04.39.101.58.16.05.01.1.021.15.05.17.05.34.101.51.17.02 0 .05.011.07.03.31.11.61.24.9.38.12.05.23.11.35.17.18.09.36.19.53.3.1.051.19.101.28.171.54.34 1.04.72 1.51 1.149.15.13.29.26.43.4.28.279.55.569.8.87.11.12.21.239.3.359.09.11.18.221.26.34.16.2.3.4.44.61.17.24.34.5.5.76.12.19.24.38.35.58.16.28.32.561.48.851.19.35.38.71.55 1.08.1.18.19.369.27.55.1.189.19.38.27.569.21.44.41.891.61 1.33.12.25.23.511.34.761.03.06.06.13.08.189.88 1.96 1.75 3.91 2.82 5.67 1.84 1.141 3.65 2.311 5.48 3.46M270.45 790.68c-.02 2.66-.22 5.511-.62 8.57 1.01-2.54 1.51-5.96.62-8.57z"/><path d="M270.07 783.19c.03.229.05.46.07.689.05.4.09.811.12 1.22.06.721.11 1.46.14 2.21.05 1.091.07 2.21.05 3.37M107.05 202.32c2.05 3.52 6.43 5.07 8.95 8.67 7.18 10.24 5.49 26.84 13.2 36.97 5.32-1.29 10.71-2.5 15.85-3.96-8.6 3.82-.43 20.58-7.27 26.41.88 5.6 7.12 4.96 7.93 11.22.59 4.6 1.48 15.2 1.32 19.81-.16 4.44-2.57 9.14 1.32 12.54-.43 22.44 6.83 37.19 14.52 51.5-.12 2.3-2.33 2.51-2.64 4.62 3.52 7.43-.74 19.09 4.62 25.09 2.12-5.81 1.61-14.24 1.99-21.79-.09 10.72 5.2 16.96 9.24 24.43 1.92 3.55 2.41 7.35 3.96 11.89 3.35 9.86 12.34 22.589 5.94 35.65-.2 1.74.92 2.16 2.64 1.979-1.31 3.091-5.7 3.101-6.6 6.601.83 1.81 3.57 1.71 5.94 1.979-1.5 1.801-4.92 1.67-4.62 5.28.94 2.87 3.91.01 5.94 0-3.7 5.05 4.63 16.71-7.92 15.85.15.94 3.29-.619 5.28 0-.6 3.381-2.15 7.761-.66 11.221 4.39 1.069 5.63-4.471 8.59-2.641.42.92.32 1.641-.04 2.301-.01.01-.01.029-.03.04-.17.31-.41.609-.69.92-1.07 1.18-2.66 2.42-3.2 4.659-1.14 4.69 1.43 10.87.65 15.851-.59 3.88-2.98 4.28-3.96 6.6-1.27 2.99.56 4.44 0 7.271 2.29-2.971 1.44-.92 0-3.311 7.65 3.91-7.84 11.09-9.24 19.15-.75 4.32 1.6 9.79 1.98 16.51.37 6.521 2.47 14.69 1.98 19.8-.13 1.38-2.27 2.19-2.64 3.301-.48 1.46 1.22 4.939.66 7.27-1.04 4.31-6.21 6.54-1.32 7.92-2.55.061-7.65 11.84-8.58 17.16-.4 2.27.25 5.04.35 7.7.02.26.02.52.02.779-.01.95-.11 1.881-.37 2.75-.48 1.54-2.8 2.7-3.3 3.96-2.16 5.45-3.28 14.37-3.31 18.48-.02 4.57 2.68 8.44 3.31 13.21 1.11 8.47-2.51 17.34.66 25.75 1.14 1.3 2.37-2.87 5.28-1.979 2.51-7.061 4.23-20.091 3.96-25.75 3.32-.2 4.92-2.12 7.92-2.641.31 2.92-.91 3.28 0 5.28.79 1.74 2.26-3.11 3.96-.66 1.75 3.58.2 6.71 1.32 11.22 1.72 3.23 6.7 2.91 9.91 1.32-.31 4.47 3.98 6.43 5.94 6.61-.03 3.489-2.99 4.05-1.98 8.58 1.31 2.529 4.68 3.17 6.6.659 8.75 3.58 6.53 18.12 14.53 22.45 2.24-.18 2.06-2.78 2.64-4.63 1.38.82-.3 4.7 3.29 3.311-4.72 4.63 2.59 9.52 7.27 9.239-2.32 2.79-2.34 8.181-1.32 12.54 8.94 3.94 13.09 15.811 20.47 19.15.16.42.32.84.49 1.25.08.21.17.42.26.63.08.21.17.42.25.62.25.6.51 1.189.77 1.78.05.119.1.239.16.359 1.82 4.11 3.8 7.98 5.58 12.01.18.391.35.79.51 1.19 1.14 2.66 2.18 5.41 3.02 8.35.09.29.17.58.24.881.09.289.16.579.23.869.11.41.21.82.3 1.23.07.28.13.56.18.84a54.715 54.715 0 0 1 .79 4.77M107.05 202.32c-.12-.87-.42-1.73-.96-2.56.19.97.52 1.81.96 2.56z"/><path d="M80.5 244.38c.07.04.14.07.22.1.14.08.28.15.43.21.27.12.56.23.84.33.23.09.47.16.71.22.25.07.5.13.76.18.06.02.11.03.17.04.18.04.36.07.55.09.1.02.2.03.3.04.22.03.44.05.66.06.03.01.06.01.09.01.29.02.57.03.86.03 6.04 0 12.71-3.91 16.04-10.27.58-1.11.57-3.14.89-4.96.1-.58.23-1.14.43-1.64.34-.84.78-1.6 1.25-2.28 1.17-1.74 2.5-3.06 2.72-4.33.71-4.15-1.94-7.14-1.99-10.56-.02-2.18 2.15-5.85 1.62-9.33M236.82 62.44c-1.25-.67 1.78-1.47 4.92-2.47 2.41-.77 4.89-1.65 5.52-2.69.16-.25.21-.51.12-.78 2.43.6 1.2.82-.12.78-.91-.01-1.87-.14-1.62-.35M137.1 146.93c.03 0 .07-.01.11-.02M137.53 157.92c-3.27-3.54-6.04-10.72-7.01-14.28 2.07 2.71 3.96 3.49 5.92 3.37M234.97 62.61c.09.08.2.18.33.3M234.84 62.5l-.09-.09a.38.38 0 0 1-.06-.05c-.01-.02-.02-.02-.02-.02"/><path d="M235.17 62.77c-.07-.06-.14-.11-.32-.27.03.02.05.05.08.07.01.01.01.02.02.02s.01.01.02.02M246.06 55.84c-1.28.04-2.21.92-3.01 2.04-.46.65-.89 1.39-1.31 2.09-1.24 2.05-2.5 3.82-4.92 2.47.89 1.76.26 1.65-.55 1.15M266.39 55.73c-1.14-.82-2.3-1.5-3.48-1.66M266.09 58.96c3.66 1.85 8.33 5.07 8.16-.71-1.99 2.53-4.5.04-7.23-2.04M265.02 58.45c.28.12.57.26.87.41M261.91 60.46c-.18-1.67.22-2.36.96-2.5M448.09 354.92c-5.35 1.8-11.93-1.23-15.84-4.62-.04.84-.85.91-.66 1.98-.95-.01-1.92.04-2.92.14-.24.02-.479.05-.729.08-6.561.75-13.911 3.35-20.121 5.06 7.84-1.54 15.26-1.88 20.121-5.06.109-.07.229-.14.34-.22.14.04.27.08.39.14 1.15.44 1.87 1.3 2.92 1.84.271-1.27.23-2.84 1.98-2.64.96 4.54 7.739 3.25 11.22 5.28 1.689-.07 2.309-1.21 3.299-1.98zM458.99 353.3c-3.44.07-6.851.38-10.24.96 1.72 3.46 6.97.4 10.25-.96 0 0 0 .01 0 0 .35-.14.67-.26.97-.36.32.08.7.2 1.141.35 2.859.96 7.89 3.04 10.229 2.24.601-.21 1.021-.61 1.18-1.27a74.13 74.13 0 0 0-11.409-.97c-.7-.02-1.4-.01-2.11.01M549.76 376.71c-1.75-2.71-13.8-.47-3.96-.67 1.82.39 2.76 1.65 4.63 1.99 2.811-2.71 4.12-11.61 0-13.87 1.92 3.5 3.04 10.02-.67 12.55zM536.56 370.1c-.43-2.23-5.38-3.39-6.6-2.64 2.06 1.02 4.75 1.41 6.6 2.64zM537.22 370.76c-.63 3.5 1.24 4.48 3.3 5.28-1.45-1-2.98-5.34-3.3-5.28zM166.84 411.04c1.8-1.6 4.13-1.6 5.94 0-.31-2.78.33-6.5-1.99-7.27-1.5 2.24-3.26 4.22-3.95 7.27zM147.03 442.07c-.46 2.439 1.04 2.91 3.3 2.64v-1.32c-.04-.399-.1-.779-.66-.659-.15.51-.02 1.3-.66 1.319-2.62-.21.74-2.3-1.98-1.98zM168.16 531.86c.21 1.59-.57 7.55.66 5.939-.22-1.589.56-7.549-.66-5.939z"/><path d="M314.73 101.45l.03-.09c.6-1.7 1.65-3.09 3.27-3.93.54-1.86-.94-1.71-.66-3.3-2.69.17-4.48 1.24-6.61 1.98-3.43-1.85-6.18-4.38-12.54-3.3-1.93 1.81-2.67 4.82-4.62 6.6-2.51-.13-2.48-2.8-4.62-3.3-2.91-.49-2.71 2.14-4.62 2.64-7.77-2.97-8.3-8.51-6.69-14.67.13-.51.27-1.02.44-1.54 1.68-5.46 4.68-11.28 5.59-16.14-.57-2.88-3.44.35-4.63-1.32-.74-3-2.56-4.92-4.31-6.91-1.53-1.77-3.01-3.6-3.61-6.3-2.5.33-3.35 2.29-4.13 4.34-.26.69-.51 1.39-.82 2.04-.09.21-.2.41-.31.61-.2.36-.43.7-.69 1-.92 1.04-2.28 1.63-4.61 1.26 1.24-6.75-3.27-7.74-5.95-10.57-4.28.12-5.29 3.51-7.26 5.95-.5.07-1.08.22-1.74.43-.77.24-1.64.56-2.59.95-2.53 1.04-5.57 2.51-8.67 3.98-5.15 2.45-10.44 4.88-13.67 5.25-.67.08-1.25.07-1.72-.05.08.24.25.39.5.48.44.15 1.13.09 1.99-.11 3.54-.83 9.93-4.11 13.36-4.93h.01c.02-.01.03-.01.05-.02.87-.2 1.54-.24 1.92-.04-.14.39-.32.78-.55 1.15-2.86 4.78-12.3 7.85-16.78 3.95-.18-.15-.34-.31-.5-.48-11.28-.72-3.48 17.64-13.2 18.49-2.56-.31-2.49-3.24-4.62-3.97-7.29 7.21-15.61 6.26-27.73 7.27-.95-4.12-5.46-4.67-8.59-6.6-2.02 2.41-1.99 4.85-.65 7.92-3.28.69-5.5 2.43-8.59 3.3 2.55 4.32-2.71 5.93-3.96 8.58.86 5.87 3.64 9.65 1.98 16.51-5.02-.62-3.91 4.89-7.26 5.94 3.15 4.77 4.06 11.79 4.62 19.14-5.39-.5-6.99 6.38-8.36 11.34-.11.4-.22.79-.33 1.16-.93 3.15-1.89 5.03-4.04 2.61l-.01-.01c-.15-.17-.31-.36-.45-.47 0-.03-.01-.07 0 0 .04.12.06.22.08.31.01.06.02.12.03.17.15 1.01-.54.29-1.01-.47-.53-.85-.8-1.75.63-.36.09.08.17.17.25.25.3-.06.48-.24.58-.5.42-.99-.24-3.05 1.41-2.8 1.04-.06 2.06-.08 2.86.11"/><path d="M137.78 158.17c.48.44.63.19.58-.5-.17-2.29-2.57-9.37-1.92-10.66.11-.23.32-.27.66-.08.01.01.02.01.03.02a.3.3 0 0 0 .08-.04c4.07-1.83 6.61-5.19 13.12-4.58-2-5.71-.69-14.72-5.94-17.17 3.22-3.16 6.11-6.65 9.24-9.9-1.82-7.16-5.26-13.97 1.98-18.49.48-2.02-1.14-1.94-.66-3.96 2.9-.62 4.26-2.79 7.92-2.64-1.04-3.84-.06-5.74.66-9.24 3.6 1.91 8.77 2.23 9.91 6.6 12.04-.04 21.47 0 27.07-7.27 1.82 1.05 3.47 2.25 4.62 3.97 2.02.48 1.94-1.14 3.96-.66 1.66-4.51 1.85-10.47 3.3-15.19 2.39-1.68 5.66-2.18 8.32-1.27.27.09.52.2.77.32.81.38 1.54.92 2.14 1.61 4.01-1.92 10.09-1.79 11.88-5.94-.07-.07-.14-.13-.2-.19-.05-.05-.09-.09-.13-.14-.1-.09-.19-.19-.27-.29-.19-.21-.36-.41-.52-.62-1.83-2.47-1.7-5.08-3.51-8.66 4.68 2.61 10.98 2.78 15.19 2.64 2.93-2.36 4.4-6.17 9.25-6.61.56 2.96 4.21 2.83 5.28 5.29 1.1-.63 1.83-.69 2.32-.45 1.74.86.66 5.44 3.16 2.4.06-.07.12-.14.18-.22.02.83.01 1.49-.05 2-.02.28-.06.52-.11.71-.18.79-.5 1-.89.9-.28-.06-.58-.28-.9-.56-.49-.43-.99-1-1.42-1.34h-.01c-.77-.63-1.28-.5-.96 2.5 1.02-.17 1.78-.59 2.39-1.16.27-.26.5-.54.72-.85.41-.59.74-1.27 1.05-1.98.11-.24.21-.49.32-.74.96-2.35 1.86-4.76 4.76-5.18 2.46 5.03 6.55 8.42 8.58 13.87 2.56-.41 2.72-.55 4.63.66-.49 7.41-2.36 13.44-6.25 17.46-.11.13-.24.25-.36.37-.03.4-.06.79-.08 1.17-.34 6.58 1.18 11.3 5.37 13.35 3.21.8 2.21-2.62 4.62-2.64 1.47 1.17 4.51.77 4.62 3.3 2.65-.65 4.05-2.55 3.96-5.94 5.85-.13 12.1-.65 13.86 3.3 2.54-.77 4.14-2.47 7.93-1.98 2.49 3.87-1.24 6.4-3.27 7.89-.01.01-.03.02-.04.03 0 .02.01.04.01.06 1.05 7.96.94 17.06 6.6 20.41-4.47 2.94-6.66 11.18-5.28 17.82-.22.22-.43.45-.62.7-2.7 3.34-3.3 8.78-7.69 10.42-.09.05-.18.08-.28.11.01.05.02.11.04.16.57 2.67 3.07 3.39 4.58 5.12.09 4.44.61 9.23-.07 13.34-.11.64-.25 1.27-.42 1.88-.92 3.22-2.85 5.84-6.77 7.23-.13 6.25-2.14 10.62-3.96 15.18 2.79 2.5 7.26 3.31 9.9 5.94 5.82-5.62 10.39-12.5 19.15-15.18 1.1-.88.22-3.74 1.32-4.62 5.98-.63 8.26-4.95 9.9-9.91 7.55 4.08 10.42-5.71 15.85-7.92 7.6 4.29 10.63 13.14 23.11 12.55 1.43 3.79-1.04 7.53 2.64 9.24 1.86-.67-.18-2.81 0-3.96 4.16-2.67 8.83-4.81 13.2-7.26 2.01-.03 2.57 1.39 3.96 1.98 2.61-.41 2.21-4.54 1.32-6.61 2.14-2.26 6.62-2.18 5.29-7.92 2.76.34 4.47-.37 5.94-1.32.25-2.23-2.92-1.04-1.98-3.96 6.9-9.51 22.03 1.05 29.71 3.3 1.15-2.57 5.04-2.14 7.92-1.32.95 3.23 2.68 5.69 3.3 9.24 1.71 1.98 3.351 4.04 4.95 6.12 7.79 10.06 14.88 20.79 25.75 27.76 1.37.88 2.79 1.69 4.29 2.44 1.8 8.02 2.65 15.83-2.64 20.46.7 9.74-.811 17.94.66 24.43 8.609 4.16 11.369 14.17 17.17 21.13 5.27 1.11 11.029 1.72 15.18 3.96-4.42 2.44-1.68 8.88.67 11.88 10.34-.66 10.92 6.75 8.58 17.17-2.08.79-3.5 2.23-5.94 2.64.12 2.52 4.87.4 5.94 1.98.45 5.29-5.18 4.51-5.94 8.58.7 4.14 4.261 5.42 6.601 7.93-7.54 7.88-1.43 21.63-7.93 29.71-4.051 1.22-7.921 2.63-11.881 3.96-.159 8.75 11.65 14.39 16.511 6.6 2.72.36 3.859 2.3 5.939 3.3-1.6 1.56-3.62-2.07-5.29-2.64-5 8.44-16.859 2.67-17.819-5.94-1.101 1.1-1.221 3.18-2.641 3.96-4.78.16-7.09-2.15-6.6-7.26-7.71-4.5-15.21-.95-23.11 1.32 7.55-4.19 14.95-6.08 23.771-2.64-.811 4.99 1.21 7.15 4.62 7.92 2.359-.5 2.659-3.06 3.3-5.28 3.96-1.33 8.069-2.5 11.89-3.96 7.7-6.39.32-21 7.92-28.39-1.8-3.27-5.82-4.31-6.609-8.59 1.199-3.42 5.06-4.18 6.609-7.26-1.88-.98-4.78-.94-6.609-1.98.6-3.14 4.59-2.9 6.609-4.62-1.399-5.64 2.11-7.22 1.32-10.56-1.351-5.7-5.92-2.31-9.91-5.28-3.29-2.46-1.61-5.42-3.96-9.25 1.55-.21.39-3.13 2.64-2.64-3.699-2.45-9.66-2.66-14.52-3.96-6.12-6.43-7.84-17.26-17.17-20.47-1.92-6.71-.61-18.02-1.32-25.09 4.48-5.03 6.35-13.61 3.3-19.8-.67-1.36-2.01-2.51-3.71-3.64-3.72-2.47-9.14-4.81-12.79-8.91-3.1-3.48-3.97-7.68-8.59-9.9-1.04-3.41-2.42-6.48-4.35-9.02-1.5-1.97-3.32-3.61-5.55-4.85-.311-4.08-2.37-6.43-3.301-9.9-1.87.54-1.71-.93-3.3-.66-2.08-.1-2.27 1.69-2.64 3.3-3.2-1.77-11.33-5.85-15.85-7.26-5.81-1.83-11.9-2.26-13.86 1.32-1.49 2.87 3.13 2.94 1.32 3.96-.09 2.55-2.58 2.7-5.28 2.64-.27 3.92-2.04 6.33-5.28 7.26.01 2.88.39 6.12-1.33 7.27-2.21.01-3.49-.91-4.62-1.98-4.04 2.33-8.28 4.48-12.54 6.6-.53 2.29.98 2.54.66 4.62-6.59.78-4.62-5.51-5.28-9.24-11.69.46-15.34-7.11-21.79-11.89-6.22 1.32-7.5 10.92-15.85 7.92-1.53 1.99-2.34 4.71-3.3 7.27-2.51.35-4.34 1.38-6.6 1.98-1.1.88-.22 3.74-1.32 4.62-8.71 2.73-13.29 9.59-19.14 15.19-4.2-1.53-7.22-4.23-11.89-5.29 3.4-4.93 2.12-12.43 4.62-17.16 1.6-3.04 5.89-3.91 7.43-6.57.23-.41.4-.86.49-1.36-.02-.17-.04-.35-.07-.52-.54-4.09-1.27-8.01-1.25-12.68-.91-2.16-3.03-3.13-4.62-4.62.5-.34.95-.73 1.36-1.16.09-.08.17-.17.24-.27 2.84-3.2 3.72-8.34 7.65-10.45M138.25 158.74c-.13-.06-.25-.12-.37-.16h-.01c-.39-.17-.71-.26-.97-.3-2.99-.48 2.08 5.95 1.01.47-.01-.05-.02-.11-.04-.17-.02-.1-.04-.2-.07-.31"/><path d="M186.64 302.18c.07-.61.07-1.21.03-1.82-.17-3.05-1.36-6.18-1.35-9.48.03-7.37 4.78-15.65 1.32-20.47.78-1.2 3.44-.52 4.62-1.32.55-1.87-.93-1.71-.65-3.3 3.12-.26 5.5.21 7.92.66 2.3-.52 1.93-2.99.66-4.62 5.94-1.54 3.34-8.81 1.32-12.55-1.5 4.44-5.27 6.62-7.27 10.56-.24-.65-.48-1.3-.72-1.96-2.83-7.93-5.31-16.22-10.5-21.8.53-1.89 2.21-2.64 2.64-4.63.16-7.2-3.72-10.36-9.24-11.88-8.76-15.01-21.8-25.73-31.03-40.27.63-2.02.96-4.32 2.64-5.28 1.07-8.21-5.79-10.95-3.96-17.83-.32.05-.57.03-.77-.05-.29-.1-.47-.31-.55-.61-3.22-1.01-1.98 2.42-3.3 3.3-.07-.03-.13-.06-.19-.08"/><path d="M192.58 257.86c3.86-1.86 4.89-6.55 7.93-9.24 3.28 4.03 4.08 7.08 2.64 13.21h-2.64c-.32 2.08 1.19 2.33.66 4.62-3.19 1.92-4.07.31-7.93 0-1.76.97-.12 4.46-4.62 3.96-.77 8.82-1.74 18.93-1.95 29.95l-.03 1.84c0-.01 0-.01 0 0-.01 1.49-.02 3 0 4.52-2.4-.01-1.4-3.44-4.62-2.64-2.81.04-3.8 1.92-3.3 5.28-1.54-.21-2.73-.79-3.96-1.32-3.86 1.43-6.09 4.47-7.26 8.59 4.04 5.36 2.88 11.65 5.28 17.16 1.71 3.94 6.27 5.89 9.24 9.9 3.95 5.34 3.17 13.28 11.22 14.53-.57.35-1.11.49-1.62.49-2.49 0-4.3-3.52-6.3-4.45.26-9.37-9.97-12.35-13.2-19.15-2.56-5.38-.63-12.1-5.28-17.16-.07-6.01 3.88-8 6.6-11.23 1.93-.17 2.02 1.49 3.96 1.32 1.48-.27.02-3.5 1.32-3.96 3.15-.98 5.23-1.6 7.26.66.37-.84.58-1.69.66-2.54M583.39 352.45c-.21-.29-.409-.57-.609-.83-.25-.05-.49-.1-.73-.17M583.39 352.45c3.12 2.33 6.2 4.71 9.29 7.09-3.9.85-6.97-3.89-9.29-7.09zM582.05 351.45c.45.33.9.66 1.34 1M582.05 351.45c-5.63-1.35-9.109-4.82-12.479-8.42-2.5 1.9-2.891 5.91-5.28 7.93-7.25-3.09-10.42 4.07-17.16 5.28-.51 4.02 3.04 3.99 3.3 7.26-2.3-1.67-3.58-4.35-4.63-7.26 6.34-1.77 9.96-8.41 17.83-6.6 2.98-1.2 2.601-5.76 5.28-7.27 4.549 2.86 8.889 5.92 13.139 9.08zM397.25 363.5c2.86-1.83 5.22-4.06 6.61-4.62.59-.24.98-.34 1.21-.34 1.51 0-3.92 4.49-7.82 4.96zM147.03 365.48c-.79-2.85 1.9-3.96 3.3-2.64-.12 1.86-1.15 2.81-3.3 2.64zM152.31 379.35c.64.01.51.8.66 1.31 1.28.27.97-3-.66-1.98.11-.77 1.21-.55 1.98-.65.09 1.62.1 3.18-.66 3.96-.88-.44-1.23-1.42-1.32-2.64zM172.12 419.62c.45.93-.32 6.26 0 9.24-2.1-.69-.44-6.91 0-9.24zM148.35 432.16c-1.4-.2.69-2.29 1.98-1.98 2.02 2.811-2.9 5.75 0 1.32.2-1.34-1.91.14-1.98.66zM172.78 437.45c-.13-1.9-.08-3.61 1.98-3.311.18 1.181-.63 1.36-.66.67-2.03-.119.29 3.811.66 1.32 2.12.741-.64 1.881-1.98 1.321zM170.79 446.03c-.36-.95-1.02-1.61-1.97-1.98-1.97-1.84 2.16 1.141 1.97-.66 2.28 2.311.64 12.561.67 3.301-1.56-.021-1.95 1.14-3.96.659.26-1.59-1.21-1.439-.66-3.3.66 1.4 1.9 3.95 3.95 1.98zM181.38 446.76c-.01-.02-.01-.05-.02-.069-.09-.021-.17-.03-.23-.021M181.38 446.76c.19.04.4.021.64-.069v3.3c-1.4.109-.35-2.231-.64-3.231zM181.13 446.67c.08.05.16.08.25.09M181.13 446.67c-.35.021-.4.33-.43.68-.98-.56-1.42-1.659-1.32-3.3.72-1.38.54 1.98 1.75 2.62zM179.38 449.99c-3.36 2.09-.5.479 0-1.98 2.6 2.86-1.6 4.53-1.32 7.26 2.02-1.449 2.11-1.359.66.66-3.56-1.7 1.22-3.22.66-5.94zM158.25 454.61c-.35 1.21-.53-1.141-1.32-2.641-.84.92-3.23.29-3.3 1.98-.28 1.45 1.98 3.64 2.64 1.979.87-.319.29 3.28-1.32 2.641.58-2.551-1.61-2.351-1.98-3.96-.09-3.58 4.88-3.12 5.28-2.641 1.03.602.35 2.432 0 2.642zM162.21 452.63c1.07-.28 2.22 2.46.66 2.64-1.24 1.66.4-.63 0-1.979-1.31.01-.83 1.8-2.64 1.32-1.02-2.351 2.25-.401 1.98-1.981zM156.93 462.54c.26-2.39 1.08-4.21 3.3-4.63-5.8 2.17 2.34 10.17-3.3 4.63zM176.74 462.54c.98.28-.26.84 0 1.97-1.38.28-1.75-.45-2.64-.66.23-.859 1.16-1.029 1.32-1.979 1.17.49.09 1.2 0 1.979.59-.29 1.18-.58 1.32-1.31zM140.43 467.82c.79 1.85-3.96.77-.66 1.979-.42 1.601-3.34.34-2.64-1.319 1.86.54 1.71-.94 3.3-.66zM153.63 470.46c-1.64-.1-.19-2.24 0-2.64 1.86-.101 1.91 1.609 1.98 3.3-1.16-.16-1.5-1.14-1.32-2.64-.77.1-.55 1.2-.66 1.98zM168.82 473.1c-.21 6.051-2.6 1.7-1.98-.659 1.06-.191 1.13.619 1.98.659zM132.24 481.34c.09.08.17.19.26.34-.11-.12-.2-.23-.26-.34z"/><path d="M132.24 481.34c-.4-.62-.13-1.01.92-.979.15 2.52-3.63 3.3-5.28 1.979.58-.97.99-2.09 2.64-1.979 2.05.67-1.87.649-1.98 1.319 1.28 2.26 2.58-1.4 3.7-.34zM174.76 486.96c-1.03.74-.36-4.28 0-5.28 7.09-.489 8.65 1.07.66.66-1.02 1.13.23 2.4-.66 4.62zM165.51 494.88c-.34 8.061-1.11-1.16.66-3.3 1.22-1.79.35 3.2-.66 3.3zM155.61 499.5c.35-.52.69-1.07.66-1.98-.88.671-2.45.631-2.64 1.98-1.2-.41 1.14-2.75 2.64-2.63.47.48 1.65 3.23-.66 2.63zM178.72 501.49c.37-1.61.57-3.4 2.64-3.3-.65.67-1.3 1.329-1.98 1.979.15.84 1.97.86 1.98 0 1.57-1.439-.11 2.741-2.64 1.321zM168.16 508.09c-.56 4.75-.77 2.45-2.65-.66.58-1.95.99 1.53 2.65.66zM178.72 527.9c4.3.21 4.98 2.649.66.659.01 1.311 1.8.83 1.32 2.641-.77-.11-1.17.14-1.32.66-.92-.24-.06-1.16.66-1.32-.01-1.31-1.8-.84-1.32-2.64zM149.01 546.38h1.98c-.02.64-.81.51-1.32.66-.06 2.32 2.31 7.03-.66 3.96.69-1.87.69-2.75 0-4.62zM154.95 562.23c.19 1.18-.62 1.35-.66.659-.98.28.26.841 0 1.98-2.88 1.689-1.11-2.53-2.64 1.32-.77-.11-.56-1.21-.66-1.98 2.34.361 1.62-2.339 3.96-1.979zM163.53 565.53c1.66.109 2.07-1.021 2.64-1.98 1.28-.6-2.6 4.19-1.97 7.26-1.5-.49-.26-3.7-.67-5.28zM176.08 583.36c.74 2.659-2.03 3.26-3.3 1.97.45-1.3 1.76-1.75 3.3-1.97zM170.79 598.54c-1.64-1.06.03-4.32 2.65-3.3.28 2.26-1.98 1.98-2.65 3.3zM147.69 596.56c1.8-.479 1.33 1.311 2.64 1.32-.43.67-1.52.68-1.32 1.98-.4-.19-2.54-1.641-2.64 0-2.02-1.03 1.68-1.77 1.32-3.3z"/></g><path fill="none" d="M.25.25h850.394v850.394H.25z"/><path fill="none" stroke="#231f20" stroke-width="7" d="M584.11 58.09v252.96"/></svg>