<svg xmlns="http://www.w3.org/2000/svg" width="850.394" height="850.394" viewBox="0 0 850.394 850.394" overflow="visible"><path d="M286.49 670.17c4.64 0 8.43 3.771 8.43 8.42 0 4.65-3.79 8.43-8.43 8.43a8.424 8.424 0 0 1-8.43-8.43c0-4.65 3.76-8.42 8.43-8.42zM332.77 602.54c4.66 0 8.45 3.77 8.45 8.44 0 4.64-3.79 8.42-8.45 8.42s-8.43-3.78-8.43-8.42c0-4.67 3.77-8.44 8.43-8.44zM366.49 690.44c4.66 0 8.42 3.77 8.42 8.42 0 4.659-3.76 8.439-8.42 8.439-4.64 0-8.42-3.78-8.42-8.439 0-4.65 3.78-8.42 8.42-8.42zM448.37 692.84c4.66 0 8.43 3.78 8.43 8.42 0 4.66-3.77 8.44-8.43 8.44-4.65 0-8.42-3.78-8.42-8.44 0-4.64 3.77-8.42 8.42-8.42zM414.67 620.61c4.64 0 8.42 3.77 8.42 8.409 0 4.66-3.78 8.45-8.42 8.45-4.67 0-8.44-3.79-8.44-8.45 0-4.639 3.77-8.409 8.44-8.409zM509.78 602.55c4.649 0 8.439 3.78 8.439 8.431 0 4.649-3.79 8.42-8.439 8.42-4.65 0-8.431-3.771-8.431-8.42.001-4.651 3.781-8.431 8.431-8.431zM523.32 660.01a8.431 8.431 0 1 1-.002 16.862 8.431 8.431 0 0 1 .002-16.862zM578.42 695.27c4.65 0 8.42 3.78 8.42 8.421 0 4.649-3.77 8.43-8.42 8.43-4.66 0-8.42-3.78-8.42-8.43 0-4.641 3.76-8.421 8.42-8.421zM663.9 684.43c4.67 0 8.43 3.771 8.43 8.41a8.42 8.42 0 0 1-8.43 8.44c-4.65 0-8.42-3.771-8.42-8.44 0-4.64 3.77-8.41 8.42-8.41zM603.68 613.5c4.65 0 8.431 3.78 8.431 8.43s-3.78 8.431-8.431 8.431a8.431 8.431 0 0 1 0-16.861zM668.67 592.89c4.66 0 8.42 3.771 8.42 8.42 0 4.65-3.76 8.44-8.42 8.44s-8.43-3.79-8.43-8.44c0-4.65 3.77-8.42 8.43-8.42zM568.81 543.54c4.641 0 8.421 3.77 8.421 8.42 0 4.66-3.78 8.42-8.421 8.42a8.417 8.417 0 0 1-8.43-8.42c0-4.65 3.77-8.42 8.43-8.42zM425.27 542.29c4.67 0 8.44 3.78 8.44 8.43 0 4.66-3.77 8.431-8.44 8.431-4.66 0-8.41-3.771-8.41-8.431 0-4.65 3.75-8.43 8.41-8.43z" fill="#ffffc2"/><path d="M425.27 559.15c4.67 0 8.44-3.771 8.44-8.431 0-4.649-3.77-8.43-8.44-8.43-4.66 0-8.41 3.78-8.41 8.43 0 4.661 3.75 8.431 8.41 8.431zm280.78 4.86H294.2v-5.68l4.86-31.64H745.77l28.9 187.819h-40.92l-4.45.681-16-104.04a8.391 8.391 0 0 0 6.86 3.55c4.66 0 8.43-3.78 8.43-8.42 0-4.67-3.77-8.45-8.43-8.45-3.74 0-6.92 2.45-8.01 5.84l-6.1-39.66zm-137.24-3.63c4.641 0 8.421-3.76 8.421-8.42 0-4.65-3.78-8.42-8.421-8.42-4.659 0-8.43 3.77-8.43 8.42 0 4.66 3.77 8.42 8.43 8.42z" fill="#f6cc4b"/><path d="M729.3 715.19l5.641 36.649H230.43l15.04-97.79 13.85-90.04h446.73l6.101 39.66c-.271.82-.41 1.7-.41 2.61 0 1.81.58 3.489 1.56 4.87L729.3 715.19zm-52.21-113.88c0-4.649-3.76-8.42-8.42-8.42s-8.43 3.771-8.43 8.42c0 4.65 3.77 8.44 8.43 8.44s8.42-3.79 8.42-8.44zm-4.76 91.53c0-4.64-3.76-8.41-8.43-8.41-4.65 0-8.42 3.771-8.42 8.41 0 4.67 3.77 8.44 8.42 8.44a8.42 8.42 0 0 0 8.43-8.44zm-60.22-70.91c0-4.649-3.78-8.43-8.431-8.43a8.431 8.431 0 0 0 0 16.861c4.651-.001 8.431-3.781 8.431-8.431zm-25.27 81.76c0-4.641-3.77-8.421-8.42-8.421-4.66 0-8.42 3.78-8.42 8.421 0 4.649 3.76 8.43 8.42 8.43 4.65 0 8.42-3.78 8.42-8.43zm-55.09-35.25c0-4.65-3.77-8.431-8.43-8.431s-8.431 3.78-8.431 8.431a8.431 8.431 0 0 0 16.861 0zm-13.53-57.46c0-4.65-3.79-8.431-8.439-8.431-4.65 0-8.431 3.78-8.431 8.431 0 4.649 3.78 8.42 8.431 8.42 4.649 0 8.439-3.77 8.439-8.42zm-61.42 90.28c0-4.64-3.77-8.42-8.43-8.42-4.65 0-8.42 3.78-8.42 8.42 0 4.66 3.77 8.44 8.42 8.44 4.66 0 8.43-3.78 8.43-8.44zm-33.71-72.24c0-4.64-3.78-8.409-8.42-8.409-4.67 0-8.44 3.77-8.44 8.409 0 4.66 3.77 8.45 8.44 8.45 4.64 0 8.42-3.79 8.42-8.45zm-48.18 69.84c0-4.65-3.76-8.42-8.42-8.42-4.64 0-8.42 3.77-8.42 8.42 0 4.659 3.78 8.439 8.42 8.439 4.66.001 8.42-3.779 8.42-8.439zm-33.69-87.88c0-4.671-3.79-8.44-8.45-8.44s-8.43 3.77-8.43 8.44c0 4.64 3.77 8.42 8.43 8.42s8.45-3.78 8.45-8.42zm-46.3 67.61c0-4.649-3.79-8.42-8.43-8.42a8.417 8.417 0 0 0-8.43 8.42c0 4.65 3.76 8.43 8.43 8.43 4.64 0 8.43-3.78 8.43-8.43z" fill="#f6cc4b"/><path fill="#6ebe44" d="M707.8 521.65v5.04H299.06l-4.86 31.64v5.68h-34.88l-13.85 90.04-.04-.01-37.36 6.67-.63-.28V186.62l1.28-5.13 498.44-47.41h.64z"/><path fill="#ffffc2" d="M208.72 181.49l-1.28 5.13v473.81l-124.22-56.1V139.1h1.05z"/><path fill="#ffffc2" d="M707.16 134.08l-498.44 47.41L84.27 139.1h-1.05v-6.4l491.79-38.96 132.79 37.14v3.2z"/><g fill="none" stroke="#231f20"><path stroke-width="21" d="M84.27 139.1l124.45 42.39 498.44-47.41"/><path stroke-width="21" d="M245.43 654.04l-37.36 6.67-.63-.28-124.22-56.1V132.7l491.79-38.96 132.79 37.14v390.77M207.44 186.62v474.09"/><path stroke-width="21" d="M729.3 715.19l5.64 36.65H230.43l15.04-97.79 13.85-90.04h446.73l6.1 39.66 1.15 7.48z"/><path stroke-width="21" d="M294.2 558.33l4.86-31.64H745.77l28.9 187.82h-40.92"/><path d="M341.22 610.98c0 4.64-3.79 8.42-8.45 8.42s-8.43-3.78-8.43-8.42c0-4.671 3.77-8.44 8.43-8.44s8.45 3.77 8.45 8.44zM294.92 678.59c0 4.65-3.79 8.43-8.43 8.43a8.424 8.424 0 0 1-8.43-8.43c0-4.649 3.76-8.42 8.43-8.42 4.64 0 8.43 3.77 8.43 8.42zM423.09 629.02c0 4.66-3.78 8.45-8.42 8.45-4.67 0-8.44-3.79-8.44-8.45 0-4.64 3.77-8.409 8.44-8.409 4.64-.001 8.42 3.769 8.42 8.409zM456.8 701.26c0 4.66-3.77 8.44-8.43 8.44-4.65 0-8.42-3.78-8.42-8.44 0-4.64 3.77-8.42 8.42-8.42 4.66 0 8.43 3.78 8.43 8.42zM518.22 610.98c0 4.649-3.79 8.42-8.439 8.42-4.65 0-8.431-3.771-8.431-8.42 0-4.65 3.78-8.431 8.431-8.431 4.649.001 8.439 3.781 8.439 8.431zM577.23 551.96c0 4.66-3.78 8.42-8.421 8.42a8.417 8.417 0 0 1-8.43-8.42c0-4.65 3.771-8.42 8.43-8.42 4.641 0 8.421 3.77 8.421 8.42zM433.71 550.72c0 4.66-3.77 8.431-8.44 8.431-4.66 0-8.41-3.771-8.41-8.431 0-4.649 3.75-8.43 8.41-8.43 4.67 0 8.44 3.78 8.44 8.43zM531.75 668.44c0 4.649-3.77 8.43-8.43 8.43s-8.431-3.78-8.431-8.43 3.771-8.431 8.431-8.431 8.43 3.781 8.43 8.431zM586.84 703.69c0 4.649-3.77 8.43-8.42 8.43-4.66 0-8.42-3.78-8.42-8.43 0-4.641 3.76-8.421 8.42-8.421 4.65.001 8.42 3.781 8.42 8.421zM612.11 621.93c0 4.65-3.78 8.431-8.431 8.431a8.431 8.431 0 0 1 0-16.861c4.651 0 8.431 3.78 8.431 8.43zM672.33 692.84a8.42 8.42 0 0 1-8.43 8.44c-4.65 0-8.42-3.771-8.42-8.44 0-4.64 3.77-8.41 8.42-8.41 4.67 0 8.43 3.77 8.43 8.41zM677.09 601.31c0 4.65-3.76 8.44-8.42 8.44s-8.43-3.79-8.43-8.44c0-4.649 3.77-8.42 8.43-8.42s8.42 3.77 8.42 8.42zM712.15 603.67c1.09-3.39 4.27-5.84 8.01-5.84 4.66 0 8.43 3.78 8.43 8.45 0 4.64-3.77 8.42-8.43 8.42-2.83 0-5.34-1.4-6.86-3.55a8.398 8.398 0 0 1-1.56-4.87c0-.91.14-1.79.41-2.61zM374.91 698.86c0 4.659-3.76 8.439-8.42 8.439-4.64 0-8.42-3.78-8.42-8.439 0-4.65 3.78-8.42 8.42-8.42 4.66 0 8.42 3.77 8.42 8.42z" stroke-width="12.584"/></g><path fill="none" d="M0 0h850.394v850.394H0z"/></svg>