<svg xmlns="http://www.w3.org/2000/svg" width="850.394" height="850.394" viewBox="0 0 850.394 850.394" overflow="visible"><path d="M583.75 674.58c-13.08 6.87-30.82 11.58-44.31 3.61-13.82-8.16-14.46-28.48-23.44-40.19v-2.62h108.53c-8.431 1.76-16.681 3.37-23.391 3.41l.051 3.4c1.199.489 2.34 1.09 3.39 1.779 7.939 5.23 7.49 10.46 3.51 15.17-5.64 6.681-18.38 12.321-24.34 15.441z" fill="#ffeec8"/><path d="M734.1 606.5v13.05c0 20.05-15.83 15.83-15.83 15.83h-47.48l-3.34.29c-6.53-8.39-25.12-4.01-42.92-.29H435.65v-1.92c7.29 0 17.22-3.15 31.35-10.5 8.6-4.47 16.66-10.19 24.17-16.46H734.1z" fill="#c8c8c8"/><path d="M601.14 638.79c6.71-.04 14.96-1.65 23.391-3.41 17.8-3.72 36.39-8.1 42.92.29 1.08 1.38 1.819 3.11 2.189 5.25v.01c-2.1 10.79-12.14 21.03-21.38 25.19-15.5 6.97-28.229 6.35-39.31-6.94l-.86-.04c3.98-4.71 4.43-9.939-3.51-15.17a19.841 19.841 0 0 0-3.39-1.779l-.05-3.401zM507.59 639.66c6.63 20.27 2.16 41.76-9.45 47.58-18.069 9.05-41.189-33.021-49.18-51.86h58.63v4.28z" fill="#ffeec8"/><path d="M140.62 667.03v56.96c-27.77-.21-48.55-3.15-60-22.98-10.43-18.06-4.25-35.33 8.06-43 2.79-1.75 5.9-2.99 9.21-3.64 26.9-5.271 40.61 12.66 40.61 12.66h2.12zm-27.09 13.63c0-6.12-4.96-11.08-11.08-11.08s-11.08 4.96-11.08 11.08 4.96 11.08 11.08 11.08 11.08-4.96 11.08-11.08z" fill="#c8c8c8"/><circle cx="102.45" cy="680.66" r="11.08" fill="#c8c8c8"/><path d="M435.65 633.46v1.92h-80.331c-31.65 0-29.54 29.54-29.54 60.14 0 30.601-28.49 28.49-28.49 28.49H144.31c-1.24 0-2.47 0-3.69-.02v-58.54l188.86-58.95h85.38c-.84 2.65-.97 5.29-.01 7.77 4.46 11.48 9.41 19.19 20.8 19.19z" fill="#c8c8c8"/><path d="M140.62 665.45v1.58h-2.12s-13.71-17.931-40.61-12.66c-3.31.649-6.42 1.89-9.21 3.64l-.29-.47c-2.65-10.15-4.23-23.59 10.55-27.96l198.98-74.49s17.31-5.17 46.85-5.17H460.22c-13.689 17.72-25.27 33.76-25.27 33.76s-16.5 11.511-20.09 22.82h-85.38l-188.86 58.95zM733.3 565.75v13.05H519.75c10.86-11.53 20.05-21.6 27.63-26.09 17.75-10.5 40.57-3.61 57.94.73 6.42 1.6 19.29-.101 34.529-3.521h77.63c.001.001 15.821-4.219 15.821 15.831z" fill="#c8c8c8"/><path d="M491.17 606.5c-7.51 6.27-15.57 11.99-24.17 16.46-14.13 7.35-24.06 10.5-31.35 10.5-11.391 0-16.34-7.71-20.8-19.19-.96-2.479-.83-5.119.01-7.77 3.59-11.31 20.09-22.82 20.09-22.82s11.58-16.04 25.27-33.76h-31.46c0-17.27 3.24-35.62 6.37-41.38 13.76-25.35 39.83-83.29 39.83-83.29s13.771-24.62 49.98-32.59c36.21-7.96 183.949-55.76 183.949-55.76l65.9 153.53s-28.24 23.181-56.48 34.771c-19.569 8.03-52.46 18.88-78.46 24.72-15.239 3.42-28.109 5.12-34.529 3.521-17.37-4.341-40.19-11.23-57.94-.73-7.58 4.49-16.77 14.56-27.63 26.09-8.49 8.998-18 18.888-28.58 27.698zM392.71 392.78c-2.31 4.97-2.47 9.94-4.46 15.29-3.99 10.8-13.15 20.081-19.08 24.791-14.29 11.359-26.4 16.93-49.96 16.22-13.69-.42-28.41-8.43-37.5-19.33-6.98-8.37-10.61-21.86-8.27-32.85h.01c.28 1.22.75 2.31 2.03 2.89 1.91.85 5.76-.43 7.44-1.31 2.98-1.58 5.39-3.89 6.53-7.16l.53.2c9.33 7.87 24.45 16.11 37.21 18.76 14.49 3 29.96 3.69 43.64-2.94 5.33-2.59 10.75-5.28 15.28-9.15 2.34-2 4.03-4.02 6.55-5.49l.05.079z" fill="#ffeec8"/><path d="M391.68 385.54c6.26-.52 11.92-.42 18.1-2.05 4.71-1.24 8.69-4.15 13.16-5.62 3.95 7.28-24.57 12.48-28.07 13.78-.81.3-1.54.66-2.21 1.05-2.52 1.47-4.21 3.49-6.55 5.49-4.53 3.87-9.95 6.56-15.28 9.15-13.68 6.63-29.15 5.94-43.64 2.94-12.76-2.65-27.88-10.89-37.21-18.76l-.53-.2c.01-.03.03-.07.04-.11 1.61-4.73.72-8.06-1.8-9.41 10.81 4.35 26.94 2.39 38.14 1.53 1.71-.14 3.43-.32 5.17-.52 10.99-1.23 22.24-3.15 32.43 1.78 4.45 2.14 9.98 6.01 15.22 5.04 4.53-.83 8.13-3.68 13.03-4.09z" fill="#ffeec8"/><path d="M239.71 377.28c-13.99 2.56-26.45 5.76-36.8 3.94-3.2-.56-6.25-1.27-9.22-2.03-3.56-.9-7-1.89-10.45-2.8-4.57-1.63-8.7-3.7-12.43-6.14-3.41 1.08-6.84 1.99-10.3 2.64-16.34 3.1-33.38.47-51.36-17.52-14.33-14.33-23.86-28.77-26.46-58.22-4.61-52.16 22.27-74.16 54.44-91.02 0 0 47.69-20.61 41.24-66.93l-2.93-18.79 47.88 2.58c2.61 16.31 2.15 25.18 8.15 48.9 4.37 17.24 28.47 30.09 28.47 30.09 22.42 14.25 43.29 24.36 58.36 60.86 4.76 11.53 12.61 32.7-5.49 69.16-.19.38-13.98 33.37-56.38 42.94-5.78.47-11.36 1.36-16.72 2.34z" fill="#f6cc4b"/><g fill="none" stroke="#231f20"><path d="M289.45 391.32c.01-.03.03-.07.04-.11 1.61-4.73.72-8.06-1.8-9.41a3.81 3.81 0 0 0-.88-.37c-1.55-.52-3.56-.42-5.87.37-6.19 2.1-9.14 6.97-7.86 13.26.13.61.22 1.24.37 1.84.28 1.22.75 2.31 2.03 2.89 1.91.85 5.76-.43 7.44-1.31 2.98-1.58 5.39-3.89 6.53-7.16zM331 382.81c10.99-1.23 22.24-3.15 32.43 1.78 4.45 2.14 9.98 6.01 15.22 5.04 4.53-.83 8.13-3.68 13.03-4.09 6.26-.52 11.92-.42 18.1-2.05 4.71-1.24 8.69-4.15 13.16-5.62 3.95 7.28-24.57 12.48-28.07 13.78-.81.3-1.54.66-2.21 1.05-2.52 1.47-4.21 3.49-6.55 5.49-4.53 3.87-9.95 6.56-15.28 9.15-13.68 6.63-29.15 5.94-43.64 2.94-12.76-2.65-27.88-10.89-37.21-18.76" stroke-width="21"/><path d="M286.74 381.4c.02.01.05.02.07.03.29.13.58.25.88.37 10.81 4.35 26.94 2.39 38.14 1.53 1.71-.14 3.43-.32 5.17-.52M273.44 396.9c-2.34 10.99 1.29 24.48 8.27 32.85 9.09 10.9 23.81 18.91 37.5 19.33 23.56.71 35.67-4.86 49.96-16.22 5.93-4.71 15.09-13.99 19.08-24.791 1.99-5.35 2.15-10.32 4.46-15.29M232.27 377.52c2.55 0 5.04-.08 7.44-.24 6.02-.36 11.58-1.18 16.72-2.34 42.4-9.57 56.19-42.56 56.38-42.94 18.1-36.46 10.25-57.63 5.49-69.16-15.07-36.5-35.94-46.61-58.36-60.86 0 0-24.1-12.85-28.47-30.09-6-23.72-5.54-32.59-8.15-48.9l-47.88-2.58 2.93 18.79c6.45 46.32-41.24 66.93-41.24 66.93-32.17 16.86-59.05 38.86-54.44 91.02 2.6 29.45 12.13 43.89 26.46 58.22 17.98 17.99 35.02 20.62 51.36 17.52 3.46-.65 6.89-1.56 10.3-2.64.01-.01.01-.01.02-.01" stroke-width="21"/><path d="M234.52 375.21c.56-.65 1.1-1.29 1.64-1.95 36.26-44.01 27.94-102.28 9.47-125.43" stroke-width="21"/><path d="M168.4 226.21c-18.87 19.63-30.58 60.21-28.14 85.29 2.19 22.47 10.72 45.78 30.55 58.75 3.73 2.44 7.86 4.51 12.43 6.14 3.26 1.17 6.74 2.11 10.45 2.8 7.96 1.48 17 1.8 27.23.7 5.5-.6 10.62-2.94 15.24-6.63 1.54-1.22 3.02-2.6 4.44-4.12" stroke-width="21"/><path d="M160.42 372.89h.09c8.39.01 15.59 1.61 22.73 3.5 3.45.91 6.89 1.9 10.45 2.8 2.97.76 6.02 1.47 9.22 2.03 10.35 1.82 22.81-1.38 36.8-3.94 5.36-.98 10.94-1.87 16.72-2.34M670.79 635.38h47.479s15.83 4.22 15.83-15.83V606.5H489.05M417.3 606.5h-87.82l-188.86 58.95v58.56h156.67s28.49 2.11 28.49-28.49c0-30.6-2.11-60.14 29.54-60.14h269.211M716.16 549.92h1.32s15.819-4.22 15.819 15.83v13.05H519.75" stroke-width="21"/><path d="M138.5 667.03s-13.71-17.931-40.61-12.66c-3.31.649-6.42 1.89-9.21 3.64-12.31 7.67-18.49 24.94-8.06 43 11.45 19.83 32.23 22.771 60 22.98 1.22.02 2.45.02 3.69.02M639.85 549.92h76.31" stroke-width="21"/><path d="M88.39 657.54c-2.65-10.15-4.23-23.59 10.55-27.96l198.98-74.49s17.31-5.17 46.85-5.17H460.22" stroke-width="21"/><circle cx="102.45" cy="680.66" r="11.08" stroke-width="14"/><path d="M428.76 549.92c0-17.27 3.24-35.62 6.37-41.38 13.76-25.35 39.83-83.29 39.83-83.29s13.771-24.62 49.98-32.59c36.21-7.96 183.949-55.76 183.949-55.76" stroke-width="21"/><path d="M511.9 455.67s.729 35.49-18.83 55.04c-8.83 8.84-21.561 24.6-32.851 39.21-13.689 17.72-25.27 33.76-25.27 33.76s-16.5 11.511-20.09 22.82c-.84 2.65-.97 5.29-.01 7.77 4.46 11.48 9.41 19.19 20.8 19.19 7.29 0 17.22-3.15 31.35-10.5 8.6-4.47 16.66-10.19 24.17-16.46 10.58-8.81 20.09-18.7 28.58-27.7 10.86-11.53 20.05-21.6 27.63-26.09 17.75-10.5 40.57-3.61 57.94.73 6.42 1.6 19.29-.101 34.529-3.521 26-5.84 58.891-16.689 78.46-24.72 28.24-11.59 56.48-34.771 56.48-34.771M448.96 635.38c7.99 18.84 31.11 60.91 49.18 51.86 11.61-5.82 16.08-27.311 9.45-47.58M516 638c8.98 11.71 9.62 32.03 23.44 40.19 13.489 7.97 31.229 3.26 44.31-3.61 5.96-3.12 18.7-8.76 24.34-15.44 3.98-4.71 4.43-9.939-3.51-15.17a19.841 19.841 0 0 0-3.39-1.779c-13.16-5.45-34.57.22-42.94 8.29M669.64 640.92c.311-1.57.45-3.17.391-4.75M608.95 659.18c11.08 13.29 23.81 13.91 39.31 6.94 9.24-4.16 19.28-14.4 21.38-25.19M600.9 638.79h.239c6.71-.04 14.96-1.65 23.391-3.41 17.8-3.72 36.39-8.1 42.92.29 1.08 1.38 1.819 3.11 2.189 5.25v.01" stroke-width="21"/></g><path fill="none" d="M0 0h850.394v850.394H0z"/></svg>