<?xml version="1.0" encoding="iso-8859-1"?>
<!-- Generator: Adobe Illustrator 12.0.1, SVG Export Plug-In . SVG Version: 6.00 Build 51448)  -->
<!DOCTYPE svg PUBLIC "-//W3C//DTD SVG 1.1//EN" "http://www.w3.org/Graphics/SVG/1.1/DTD/svg11.dtd" [
	<!ENTITY ns_svg "http://www.w3.org/2000/svg">
	<!ENTITY ns_xlink "http://www.w3.org/1999/xlink">
]>
<svg  version="1.1" id="Layer_1" xmlns="&ns_svg;" xmlns:xlink="&ns_xlink;" width="850.394" height="850.394"
	 viewBox="0 0 850.394 850.394" style="overflow:visible;enable-background:new 0 0 850.394 850.394;" xml:space="preserve">
<g id="XMLID_9_">
	<g>
		<path style="fill:#FFFFFF;" d="M279.94,77.51c2.45,6.18-6.57,15.56-20.14,20.94c-13.58,5.38-26.57,4.73-29.02-1.45
			c-2.46-6.18,6.57-15.56,20.14-20.95C264.5,70.67,277.49,71.32,279.94,77.51z"/>
		<path style="fill:#FFFFFF;" d="M488.8,211.28c32.51,0,58.851,12.2,58.851,27.25c0,15.06-26.341,27.26-58.851,27.26
			s-58.85-12.2-58.85-27.26C429.95,223.48,456.29,211.28,488.8,211.28z"/>
		<path style="fill:#A8D7F4;" d="M598.21,274.62c-21.74,31.04-83.729,56.34-156.81,56.34c-73.851,0-136.371-25.83-157.48-57.32
			c-3-4.48-5.17-9.07-6.4-13.72c-0.81-3.03-1.23-6.08-1.23-9.14c0-5.28,1.24-10.43,3.6-15.4L230.78,97
			c2.45,6.18,15.44,6.83,29.02,1.45c13.57-5.38,22.59-14.76,20.14-20.94l0.09-0.04l53.54,114.85l3.11,2.09l0.66-0.98
			c28.4-10.33,64.62-16.51,104.061-16.51c91.189,0,165.109,33.07,165.109,73.86l-0.069,2.24
			C605.95,260.36,603.1,267.64,598.21,274.62z M547.65,238.53c0-15.05-26.341-27.25-58.851-27.25s-58.85,12.2-58.85,27.25
			c0,15.06,26.34,27.26,58.85,27.26S547.65,253.59,547.65,238.53z"/>
		<path style="fill:#A8D7F4;" d="M605.37,285.31c4.229,8.46,6.72,18.8,6.72,29.98c0,13.56-3.66,25.91-9.66,35.13
			c-1.58,2.44-3.33,4.66-5.21,6.62c-20.5,29.87-83.05,51.14-156.22,51.14c-72.54,0-134.01-21.36-155.01-50.85
			c-2.37-2.26-4.54-4.92-6.46-7.91c-5.95-9.21-9.58-21.5-9.58-35.01c0-11.93,2.84-22.92,7.61-31.67c1.85-3.4,3.99-6.46,6.36-9.1
			c21.11,31.49,83.63,57.32,157.48,57.32c73.08,0,135.069-25.3,156.81-56.34C600.94,277.68,603.36,281.28,605.37,285.31z"/>
		<path style="fill:#A8D7F4;" d="M602.31,376.74c-1.59,8.53-6.42,16.64-13.939,24.08c-25.57,25.31-82.2,42.911-147.96,42.911
			c-67.3,0-125.04-18.431-149.7-44.71c-6.77-7.21-11.05-15-12.35-23.17c-0.28-1.76-0.42-3.53-0.42-5.32c0-0.74,0.01-1.48,0.06-2.21
			l0.15-18.69l1.38-0.21c1.92,2.99,4.09,5.65,6.46,7.91c21,29.49,82.47,50.85,155.01,50.85c73.17,0,135.72-21.27,156.22-51.14
			c1.88-1.96,3.63-4.18,5.21-6.62l0.96,0.64l-0.5,19.47C602.89,372.62,602.7,374.69,602.31,376.74z"/>
		<path style="fill:#A8D7F4;" d="M288.97,503.12c-2.36-2.76-4.51-5.97-6.41-9.57c-5.82-10.939-9.35-25.42-9.35-41.3
			c0-15.83,3.51-30.26,9.29-41.19c2.26-4.27,4.86-8.01,7.74-11.08l0.47-0.96c24.66,26.28,82.4,44.71,149.7,44.71
			c65.76,0,122.39-17.601,147.96-42.911l0.52,0.52c4.54,4.84,8.4,11.34,11.29,19c3.641,9.601,5.74,21.021,5.74,33.271
			c0,10.43-2.79,23.05-7.17,34.699c-1.85,4.91-3.98,9.65-6.3,13.98l-0.19-0.11c-18.439,31.19-77.76,58.2-151.279,58.2
			C364.9,560.38,307.52,534.81,288.97,503.12z"/>
		<path style="fill:#A8D7F4;" d="M599.18,488.47l-4.14,36.08c0,5.63-1.48,11.101-4.28,16.34
			c-16.319,30.601-77.439,53.32-150.35,53.32c-72,0-132.52-22.17-149.72-52.2c-1.04-1.8-1.91-3.64-2.62-5.5
			c-1.5-3.88-2.28-7.88-2.28-11.96c0-0.7,0.02-1.41,0.06-2.1l-3.69-28.69l0.4-0.21c1.9,3.601,4.05,6.811,6.41,9.57
			c18.55,31.689,75.93,57.26,152.01,57.26c73.52,0,132.84-27.01,151.279-58.2l0.19,0.11c2.319-4.33,4.45-9.07,6.3-13.98
			L599.18,488.47z"/>
		<path style="fill:#A8D7F4;" d="M590.76,540.89l-0.26,2.141l-17.53,146.09c0,34.26-55.22,62.03-131.37,62.03
			c-76.149,0-131.379-27.771-131.379-62.03c0-0.62,0.02-1.25,0.06-1.87l-19.59-145.24c17.2,30.03,77.72,52.2,149.72,52.2
			C513.32,594.21,574.44,571.49,590.76,540.89z"/>
		<path style="fill:#A8D7F4;" d="M441.6,751.15c76.15,0,131.37-27.771,131.37-62.03l17.53-146.09l1.99,0.239l-20.25,182.49
			c0,34.26-55.11,62.03-131.15,62.03c-76.02,0-131.15-27.771-131.15-62.03c0-0.63,0.02-1.25,0.06-1.87l-21.93-187.38
			c0.71,1.86,1.58,3.7,2.62,5.5l19.59,145.24c-0.04,0.62-0.06,1.25-0.06,1.87C310.22,723.38,365.45,751.15,441.6,751.15z"/>
	</g>
	<g>
		<polyline style="fill:none;stroke:#231F20;stroke-width:21;" points="388.87,229.45 336.68,194.41 333.57,192.32 280.03,77.47 
			279.06,75.4 		"/>
		<path style="fill:none;stroke:#231F20;stroke-width:21;" d="M279.94,77.51c2.45,6.18-6.57,15.56-20.14,20.94
			c-13.58,5.38-26.57,4.73-29.02-1.45c-2.46-6.18,6.57-15.56,20.14-20.95C264.5,70.67,277.49,71.32,279.94,77.51z"/>
		<polyline style="fill:none;stroke:#231F20;stroke-width:21;" points="230.78,97 279.89,235.38 281.43,239.72 		"/>
		<path style="fill:none;stroke:#231F20;stroke-width:21;" d="M337.34,193.43c28.4-10.33,64.62-16.51,104.061-16.51
			c91.189,0,165.109,33.07,165.109,73.86c0,0.75-0.02,1.49-0.069,2.24c-0.49,7.34-3.341,14.62-8.23,21.6
			c-21.74,31.04-83.729,56.34-156.81,56.34c-73.851,0-136.371-25.83-157.48-57.32c-3-4.48-5.17-9.07-6.4-13.72
			c-0.81-3.03-1.23-6.08-1.23-9.14c0-5.28,1.24-10.43,3.6-15.4c0.63-1.35,1.35-2.68,2.15-4"/>
		<path style="fill:none;stroke:#231F20;stroke-width:21;" d="M547.65,238.53c0,15.06-26.341,27.26-58.851,27.26
			s-58.85-12.2-58.85-27.26c0-15.05,26.34-27.25,58.85-27.25S547.65,223.48,547.65,238.53z"/>
		<polyline style="fill:none;stroke:#231F20;stroke-width:21;" points="605.25,288.9 605.37,285.31 606.44,253.02 606.51,250.78 		
			"/>
		<path style="fill:none;stroke:#231F20;stroke-width:21;" d="M285.94,357.27c0.01,0.02,0.03,0.04,0.05,0.06
			c21,29.49,82.47,50.85,155.01,50.85c73.17,0,135.72-21.27,156.22-51.14c0.261-0.36,0.5-0.73,0.74-1.1"/>
		<polyline style="fill:none;stroke:#231F20;stroke-width:21;" points="277.21,260 277.56,282.74 277.68,290.29 		"/>
		<path style="fill:none;stroke:#231F20;stroke-width:21;" d="M278.15,349.63L278,368.32c-0.05,0.73-0.06,1.47-0.06,2.21
			c0,1.79,0.14,3.56,0.42,5.32c1.3,8.17,5.58,15.96,12.35,23.17c24.66,26.28,82.4,44.71,149.7,44.71
			c65.76,0,122.39-17.601,147.96-42.911c7.52-7.44,12.35-15.55,13.939-24.08c0.391-2.05,0.58-4.12,0.58-6.21l0.5-19.47"/>
		<polyline style="fill:none;stroke:#231F20;stroke-width:21;" points="600.81,420.1 602.31,376.74 602.36,375.4 		"/>
		<path style="fill:none;stroke:#231F20;stroke-width:21;" d="M287.78,500.97c0.38,0.721,0.77,1.431,1.19,2.15
			c18.55,31.689,75.93,57.26,152.01,57.26c73.52,0,132.84-27.01,151.279-58.2"/>
		<line style="fill:none;stroke:#231F20;stroke-width:21;" x1="278.27" y1="375.86" x2="281.03" y2="410.72"/>
		<line style="fill:none;stroke:#231F20;stroke-width:21;" x1="599.94" y1="413.58" x2="600.38" y2="404.63"/>
		<path style="fill:none;stroke:#231F20;stroke-width:21;" d="M282.16,493.76l3.69,28.69c-0.04,0.689-0.06,1.399-0.06,2.1
			c0,4.08,0.78,8.08,2.28,11.96c0.71,1.86,1.58,3.7,2.62,5.5c17.2,30.03,77.72,52.2,149.72,52.2c72.91,0,134.03-22.72,150.35-53.32
			c2.8-5.239,4.28-10.71,4.28-16.34l4.14-36.08"/>
		<path style="fill:none;stroke:#231F20;stroke-width:21;" d="M285.77,505.55l4.92,36.46l19.59,145.24
			c-0.04,0.62-0.06,1.25-0.06,1.87c0,34.26,55.23,62.03,131.379,62.03c76.15,0,131.37-27.771,131.37-62.03l17.53-146.09l0.26-2.141
			l4.29-35.739"/>
		<path style="fill:none;stroke:#231F20;stroke-width:21;" d="M287.75,533.79l0.32,2.72L310,723.89c-0.04,0.62-0.06,1.24-0.06,1.87
			c0,34.26,55.13,62.03,131.15,62.03c76.04,0,131.15-27.771,131.15-62.03l20.25-182.49"/>
		<path style="fill:none;stroke:#231F20;stroke-width:21;" d="M287.5,358.72c-0.51-0.44-1.02-0.9-1.51-1.39
			c-2.37-2.26-4.54-4.92-6.46-7.91c-5.95-9.21-9.58-21.5-9.58-35.01c0-11.93,2.84-22.92,7.61-31.67c1.85-3.4,3.99-6.46,6.36-9.1
			c0.99-1.1,2.01-2.12,3.07-3.07"/>
		<path style="fill:none;stroke:#231F20;stroke-width:21;" d="M290.76,505.08c-0.61-0.62-1.2-1.28-1.79-1.96
			c-2.36-2.76-4.51-5.97-6.41-9.57c-5.82-10.939-9.35-25.42-9.35-41.3c0-15.83,3.51-30.26,9.29-41.19
			c2.26-4.27,4.86-8.01,7.74-11.08"/>
		<path style="fill:none;stroke:#231F20;stroke-width:21;" d="M579.24,519.81c4.67-3.84,9.22-10.079,13.21-17.52
			c2.319-4.33,4.45-9.07,6.3-13.98c4.38-11.649,7.17-24.27,7.17-34.699c0-12.25-2.1-23.67-5.74-33.271
			c-2.89-7.66-6.75-14.16-11.29-19"/>
		<path style="fill:none;stroke:#231F20;stroke-width:21;" d="M594.54,359.59c0.92-0.79,1.82-1.64,2.68-2.55
			c1.88-1.96,3.63-4.18,5.21-6.62c6-9.22,9.66-21.57,9.66-35.13c0-11.18-2.49-21.52-6.72-29.98c-2.01-4.03-4.43-7.63-7.16-10.69
			c-1.01-1.14-2.06-2.2-3.16-3.18"/>
	</g>
</g>
<rect style="fill:none;" width="850.394" height="850.394"/>
</svg>
