<?xml version="1.0" encoding="iso-8859-1"?>
<!-- Generator: Adobe Illustrator 12.0.1, SVG Export Plug-In . SVG Version: 6.00 Build 51448)  -->
<!DOCTYPE svg PUBLIC "-//W3C//DTD SVG 1.1//EN" "http://www.w3.org/Graphics/SVG/1.1/DTD/svg11.dtd" [
	<!ENTITY ns_svg "http://www.w3.org/2000/svg">
	<!ENTITY ns_xlink "http://www.w3.org/1999/xlink">
]>
<svg  version="1.1" id="Layer_1" xmlns="&ns_svg;" xmlns:xlink="&ns_xlink;" width="850.394" height="850.394"
	 viewBox="0 0 850.394 850.394" style="overflow:visible;enable-background:new 0 0 850.394 850.394;" xml:space="preserve">
<path style="fill:none;stroke:#231F20;stroke-width:28;stroke-linecap:round;stroke-linejoin:round;" d="M300.514,461.34
	c-47.826-56.572-34.464-154.853-7.354-190.355c34.762-45.522,93.065-62.085,147.463-62.093c78.189,0,141.584,35.08,141.584,78.354
	c0,43.274-63.395,78.346-141.584,78.346c-65.867,0-134.625-30.573-155.743-100.04c-21.194-69.721,3.334-164.784,76.015-195.494"/>
<path style="fill:none;stroke:#231F20;stroke-width:28;stroke-linecap:round;stroke-linejoin:round;" d="M303.55,649.444
	c-37.113-53.608-24.742-141.584,4.366-183.24c29.317-41.954,83.15-55.484,131.757-55.484c69.869,0,126.514,31.347,126.514,70.015
	s-56.645,70.006-126.514,70.006c-58.852,0-125.064-26.063-139.159-89.4c-0.338-1.514-0.661-3.036-0.958-4.574"/>
<path style="fill:none;stroke:#231F20;stroke-width:28;stroke-linecap:round;stroke-linejoin:round;" d="M299.66,774.524
	c-24.976-37.113-15.963-89.666,8.264-121.384c31.057-40.682,83.151-55.484,131.757-55.484c69.87,0,126.515,31.347,126.515,70.015
	c0,38.667-56.645,70.006-126.515,70.006c-58.852,0-125.064-26.063-139.159-89.4c-0.338-1.515-0.66-3.036-0.958-4.575"/>
<rect style="fill:none;" width="850.394" height="850.394"/>
</svg>
