<?xml version="1.0" encoding="iso-8859-1"?>
<!-- Generator: Adobe Illustrator 12.0.1, SVG Export Plug-In . SVG Version: 6.00 Build 51448)  -->
<!DOCTYPE svg PUBLIC "-//W3C//DTD SVG 1.1//EN" "http://www.w3.org/Graphics/SVG/1.1/DTD/svg11.dtd" [
	<!ENTITY ns_svg "http://www.w3.org/2000/svg">
	<!ENTITY ns_xlink "http://www.w3.org/1999/xlink">
]>
<svg  version="1.1" id="Layer_1" xmlns="&ns_svg;" xmlns:xlink="&ns_xlink;" width="850.394" height="850.394"
	 viewBox="0 0 850.394 850.394" style="overflow:visible;enable-background:new 0 0 850.394 850.394;" xml:space="preserve">
<g>
	<g id="XMLID_12_">
		<g>
			<path style="fill:#C8C8C8;" d="M211.19,618.32c7.57,0,13.72,5.59,13.72,12.479c0,6.88-6.15,12.47-13.72,12.47
				c-7.58,0-13.72-5.59-13.72-12.47c0-0.64,0.05-1.27,0.16-1.88c0.17-1.07,0.5-2.1,0.96-3.06
				C200.7,621.42,205.54,618.32,211.19,618.32z"/>
			<path style="fill:#C8C8C8;" d="M622.45,631.43c0.17-1.06,0.5-2.08,0.95-3.04c2.1-4.439,6.949-7.54,12.6-7.54
				c7.57,0,13.72,5.58,13.72,12.471c0,6.88-6.149,12.46-13.72,12.46c-7.58,0-13.71-5.58-13.71-12.46
				C622.29,632.68,622.34,632.05,622.45,631.43z"/>
			<path style="fill:#FFEEC8;" d="M624,334l0.3-0.45c11.63,7.63,16.59,9.82,25.78,23.95c13.85,21.31,2.13,32.49-7.99,22.37
				c-6.18-6.18-22.38-10.65-22.38-10.65s-0.78-4.21-3.51-9.08c-2.33-4.14-6.061-8.76-11.931-11.7L624,334z"/>
			<path style="fill:#FFEEC8;" d="M547.27,348.45c4.671,7.18,6.431,13.21,6.32,17.66l-18.189,1.73c-7.32-4.59-18.49-7.67-18.49-7.67
				s-2.04-11.01-11.12-18.04L508,342l22.8-11.4C536.65,334.68,540.96,338.75,547.27,348.45z"/>
			<path style="fill:#394EA1;" d="M429.32,450.66c-9.16,6.68-15.22,10.72-15.22,10.72l-1.1,0.271c-1.58-6.25-3.37-13.471-5.29-21.58
				c-7.46-31.44-23.97-63.93-30.89-76.71c-2.89-5.34-4.67-13.28-5.41-21.54c6.66,4.38,84.26,55.49,84.77,64.16
				c0.53,9.05,3.73,21.3-12.779,34.09C438.25,444.05,433.47,447.63,429.32,450.66z"/>
			<path style="fill:#394EA1;" d="M430.28,599.64c0.45,3.19,0.91,6.141,1.399,8.761c4.261,22.899,6.391,46.869,17.58,53.8
				c11.19,6.92,21.46,21.85,35.16,19.71c14.98-2.351,23.79-2.22,26.07,4c0.2,0.56,0.35,1.16,0.45,1.82
				c0.05,0.35,0.09,0.72,0.109,1.1c0.53,9.06-19.17,21.84-39.42,23.439c-20.24,1.601-52.73,5.86-55.93-3.729
				c-1.85-5.54-2.81-18.03-3.28-27.58c-0.36-6.97-0.45-12.37-0.45-12.37s-20.25-49.01-27.17-67.12
				c-6.92-18.109-11.19-42.08-7.99-59.66c3.2-17.579,4.26-26.64-0.53-38.35l-2.13-3.729c0,0-11.46-17.19-22.81-35.08
				c-8.84-13.92-17.61-28.25-20.87-35.24c-3.6-7.7-10.9-13.67-20.55-21.67c-10.37-8.59-23.45-19.52-37.52-37.46
				c-1.72-2.19-3.22-4.44-4.51-6.73c-12.52-22.13-5.54-48.11,7.23-72.38l1.55,0.81c45.81,26.63,94.81,24.5,94.81,24.5l1.09,0.26
				v0.01c-1.55,6.76-1.97,16.1-1.16,25.07c0.74,8.26,2.52,16.2,5.41,21.54c6.92,12.78,23.43,45.27,30.89,76.71
				c1.92,8.109,3.71,15.33,5.29,21.58c4.56,17.989,7.49,27.949,7.49,27.949s2.14,15.99,3.2,31.971
				C424.63,535.72,426.83,574.95,430.28,599.64z"/>
			<path style="fill:#FBED24;" d="M530.8,330.6L508,342l-2.21,0.13c-1.29-1.01-2.73-1.93-4.33-2.73
				c-12.79-6.4-54.87-29.31-61.26-36.23c-2.25-2.43-12.71-11.36-25.36-22.09c7.02-4.58,13.21-8.91,16.84-12.54
				c4.19-4.19,7.9-7.66,11.2-10.53l1.12,0.36c5.07,5.79,9.17,9.94,11.65,11.24c11.189,5.86,41.55,36.75,41.55,36.75
				C514.61,320.87,523.8,325.74,530.8,330.6z"/>
			<path style="fill:#FBED24;" d="M414.84,281.08c-16.41,10.7-37.33,22.77-40.69,30.61c-0.62,1.44-1.14,3.13-1.58,5.05l-1.09-0.26
				c0,0-49,2.13-94.81-24.5l-1.55-0.81c6.68-12.72,14.96-24.97,22.85-35.95c24.51-34.09,46.88-75.64,94.29-93.22
				c14.29-5.3,26.74-5.18,37.66-2.11c22.021,6.18,37.811,24.32,49.88,34.06c1.8,1.46,3.51,2.73,5.15,3.74
				c18.109,11.19,62.33,75.11,73.51,80.97c11.19,5.86,41.55,36.76,41.55,36.76c10.771,8.97,18.391,14.25,24.29,18.13L624,334
				l-19.73,14.44c-12.779-6.39-54.869-29.29-61.26-36.22c-5.35-5.8-57.63-48.73-74.569-64.46c0,0-2.051-10.24-25.561,10.25
				c-3.3,2.87-7.01,6.34-11.2,10.53C428.05,272.17,421.86,276.5,414.84,281.08z"/>
			<path style="fill:#0071BC;" d="M435.44,132.29l-2.16-0.12c0,0-12.25-33.56-4.8-42.08c7.46-8.53,70.859-23.97,110.27,16.51
				c39.42,40.49,18.12,30.37,18.12,30.37h-33.04l-0.43-0.02l-86.381-4.58L435.44,132.29z"/>
			<path style="fill:#FFEEC8;" d="M437.02,132.37l86.381,4.58l-0.011,0.19c1.67,4.37,2.58,9.06,2.58,13.94
				c0,21.44-23.319,42.24-46.17,42.87c-12.069-9.74-27.859-27.88-49.88-34.06l1.04-3.65c-0.229-1.69-0.34-3.41-0.34-5.16
				c-0.01-6.74,1.72-13.12,4.82-18.79L437.02,132.37z"/>
			<path style="fill:#231F20;" d="M281.46,390.42c-14.44,4.76-27.59,4.91-35.42-1.11c-10.8-8.31-7.76-16.07-0.42-23.42
				c3.4-3.4,12.98-3.26,22.27-2.34L281.46,390.42z"/>
		</g>
		<g>
			<path style="fill:none;stroke:#231F20;stroke-width:14;" d="M370.95,341.52c0,0,0.16,0.1,0.46,0.3
				c6.66,4.38,84.26,55.49,84.77,64.16c0.53,9.05,3.73,21.3-12.779,34.09c-5.15,3.979-9.931,7.56-14.08,10.59
				c-9.16,6.68-15.22,10.72-15.22,10.72"/>
			<path style="fill:none;stroke:#231F20;stroke-width:21;" d="M346.36,618.32c0.46,4.51,0.7,9.09,0.7,13.72
				c0,3.79-0.16,7.54-0.48,11.24c-1.22,14.63-4.84,28.6-10.46,41.51c-5.1,11.76-11.87,22.65-20,32.39
				c-5.53,6.61-11.68,12.69-18.37,18.141c-20.62,16.81-46.36,27.71-74.56,30.08c-3.84,0.33-7.72,0.489-11.64,0.489
				c-4.49,0-8.92-0.22-13.3-0.64c-27.26-2.62-52.16-13.22-72.26-29.42c-6.5-5.23-12.51-11.05-17.93-17.38
				c-8.42-9.83-15.42-20.87-20.72-32.82c-5.79-13.07-9.53-27.229-10.8-42.09c0-0.01,0-0.01,0-0.021
				c-0.33-3.779-0.5-7.609-0.5-11.479c0-4.73,0.25-9.42,0.74-14.021c0-0.01,0-0.01,0-0.02c1.48-14.02,5.15-27.39,10.66-39.78
				c5.29-11.89,12.28-22.859,20.66-32.64c5.42-6.32,11.43-12.14,17.93-17.36c20.04-16.13,44.84-26.71,72-29.37h0.01
				c4.45-0.439,8.95-0.659,13.51-0.659c3.98,0,7.94,0.17,11.83,0.51c0.01,0,0.01,0,0.02,0c24.93,2.13,47.93,10.93,67.16,24.59
				c2.43,1.72,4.8,3.53,7.11,5.4c6.53,5.319,12.55,11.229,17.97,17.649c0.16,0.18,0.32,0.37,0.48,0.561
				c8.16,9.779,14.95,20.71,20.06,32.52C341.45,591.56,344.95,604.64,346.36,618.32z"/>
			<polyline style="fill:none;stroke:#231F20;stroke-width:7;" points="79.78,618.32 180.84,618.32 181.02,618.32 198.25,618.32 
				210.72,618.32 211.19,618.32 213.64,618.32 223.19,618.32 243.5,618.32 245.28,618.32 346.36,618.32 346.42,618.32 			"/>
			<polyline style="fill:none;stroke:#231F20;stroke-width:7;" points="79.78,643.27 183.28,643.27 186.48,643.27 198.25,643.27 
				205.79,643.27 211.19,643.27 218.55,643.27 223.19,643.27 239.23,643.27 241.07,643.27 346.42,643.27 			"/>
			<polyline style="fill:none;stroke:#231F20;stroke-width:7;" points="198.25,624.35 198.25,618.32 198.25,600.45 198.25,501.22 
							"/>
			<polyline style="fill:none;stroke:#231F20;stroke-width:7;" points="198.25,767.86 198.25,765.25 198.25,663.57 198.25,643.27 
				198.25,639.32 			"/>
			<polyline style="fill:none;stroke:#231F20;stroke-width:7;" points="223.19,623.11 223.19,618.32 223.19,603.36 223.19,501.22 
							"/>
			<polyline style="fill:none;stroke:#231F20;stroke-width:7;" points="223.19,767.86 223.19,765.4 223.19,660.67 223.19,643.27 
				223.19,640.57 			"/>
			<polyline style="fill:none;stroke:#231F20;stroke-width:7;" points="314.52,547.3 243.5,618.32 242.17,619.65 229.81,632.01 
				218.55,643.27 212.17,649.65 198.25,663.57 125.99,735.83 125.98,735.84 			"/>
			<polyline style="fill:none;stroke:#231F20;stroke-width:7;" points="198.25,628.3 197.63,628.92 194.54,632.02 183.28,643.27 
				180.85,645.7 108.34,718.21 			"/>
			<polyline style="fill:none;stroke:#231F20;stroke-width:7;" points="296.89,529.66 223.19,603.36 212.18,614.37 210.72,615.83 
							"/>
			<polyline style="fill:none;stroke:#231F20;stroke-width:7;" points="205.79,643.27 212.17,649.65 223.19,660.67 295.62,733.1 			
				"/>
			<polyline style="fill:none;stroke:#231F20;stroke-width:7;" points="107.07,544.55 108.1,545.58 180.7,618.18 180.84,618.32 
				194.54,632.02 196.72,634.2 			"/>
			<polyline style="fill:none;stroke:#231F20;stroke-width:7;" points="225.46,627.66 229.81,632.01 241.07,643.27 242.45,644.65 
				313.26,715.46 			"/>
			<polyline style="fill:none;stroke:#231F20;stroke-width:7;" points="124.72,526.91 126.03,528.22 198.25,600.45 212.18,614.37 
				213.64,615.84 			"/>
			<polyline style="fill:none;stroke:#231F20;stroke-width:7;" points="228.31,638.59 239.23,643.27 242.45,644.65 336.12,684.79 
							"/>
			<polyline style="fill:none;stroke:#231F20;stroke-width:7;" points="84.36,576.9 87.44,578.22 180.7,618.18 181.02,618.32 
				198.27,625.71 			"/>
			<polyline style="fill:none;stroke:#231F20;stroke-width:7;" points="195.72,639.28 186.48,643.27 180.85,645.7 90.32,684.79 			
				"/>
			<polyline style="fill:none;stroke:#231F20;stroke-width:7;" points="342.08,576.9 336.18,579.42 245.28,618.32 242.17,619.65 
				227.77,625.81 			"/>
			<path style="fill:none;stroke:#231F20;stroke-width:6.3923;" d="M211.19,618.32c7.57,0,13.72,5.59,13.72,12.479
				c0,6.88-6.15,12.47-13.72,12.47c-7.58,0-13.72-5.59-13.72-12.47c0-0.64,0.05-1.27,0.16-1.88c0.17-1.07,0.5-2.1,0.96-3.06
				C200.7,621.42,205.54,618.32,211.19,618.32z"/>
			<path style="fill:none;stroke:#231F20;stroke-width:21;" d="M771.18,620.85c0.46,4.5,0.7,9.08,0.7,13.71
				c0,3.78-0.16,7.53-0.479,11.23c-1.221,14.64-4.841,28.61-10.46,41.53c-5.11,11.76-11.87,22.64-20,32.38
				c-5.53,6.609-11.681,12.689-18.381,18.14c-20.619,16.811-46.359,27.71-74.55,30.08c-3.84,0.33-7.72,0.49-11.64,0.49
				c-4.49,0-8.93-0.22-13.311-0.641c-27.26-2.619-52.149-13.22-72.25-29.42c-6.51-5.229-12.51-11.05-17.93-17.38
				c-8.54-9.97-15.63-21.18-20.95-33.34c-0.29-0.649-0.569-1.31-0.84-1.97c-5.18-12.37-8.53-25.67-9.729-39.59
				c0-0.011,0-0.03,0-0.04c-0.33-3.78-0.5-7.601-0.5-11.471c0-4.729,0.25-9.409,0.739-14.01c0-0.01,0-0.01,0-0.02
				c1.471-14.021,5.141-27.4,10.66-39.79c5.29-11.891,12.28-22.86,20.66-32.641c5.42-6.319,11.42-12.13,17.92-17.35
				c10.15-8.17,21.51-14.91,33.78-19.92c11.97-4.9,24.81-8.14,38.22-9.45h0.01c4.45-0.439,8.95-0.66,13.521-0.66
				c3.99,0,7.93,0.17,11.83,0.511h0.01c28.08,2.399,53.71,13.26,74.271,29.979c6.539,5.32,12.55,11.23,17.97,17.64h0.01
				c0.16,0.19,0.32,0.381,0.48,0.57c8.159,9.78,14.949,20.71,20.06,32.521C766.27,594.09,769.77,607.16,771.18,620.85z"/>
			<polyline style="fill:none;stroke:#231F20;stroke-width:7;" points="504.6,620.85 605.67,620.85 605.85,620.85 623.06,620.85 
				636,620.85 648.01,620.85 668.3,620.85 670.06,620.85 771.18,620.85 771.24,620.85 			"/>
			<polyline style="fill:none;stroke:#231F20;stroke-width:7;" points="504.6,645.78 608.1,645.78 611.31,645.78 623.06,645.78 
				630.6,645.78 636,645.78 643.38,645.78 648.01,645.78 664.02,645.78 665.87,645.78 771.24,645.78 			"/>
			<polyline style="fill:none;stroke:#231F20;stroke-width:7;" points="623.06,626.88 623.06,620.85 623.06,602.96 623.06,598.87 
				623.06,503.73 			"/>
			<polyline style="fill:none;stroke:#231F20;stroke-width:7;" points="623.06,770.38 623.06,767.77 623.06,666.1 623.06,645.78 
				623.06,641.84 			"/>
			<polyline style="fill:none;stroke:#231F20;stroke-width:7;" points="648.01,625.63 648.01,620.85 648.01,605.88 648.01,503.73 
							"/>
			<polyline style="fill:none;stroke:#231F20;stroke-width:7;" points="648.01,770.38 648.01,767.92 648.01,663.19 648.01,645.78 
				648.01,643.08 			"/>
			<polyline style="fill:none;stroke:#231F20;stroke-width:7;" points="739.33,549.82 668.3,620.85 666.99,622.17 654.62,634.53 
				643.38,645.78 636.99,652.17 623.06,666.1 550.81,738.35 550.79,738.37 			"/>
			<polyline style="fill:none;stroke:#231F20;stroke-width:7;" points="623.06,630.82 622.45,631.43 619.35,634.53 608.1,645.78 
				605.66,648.22 533.16,720.73 			"/>
			<polyline style="fill:none;stroke:#231F20;stroke-width:7;" points="721.7,532.18 648.01,605.88 636.99,616.89 635.53,618.36 			
				"/>
			<polyline style="fill:none;stroke:#231F20;stroke-width:7;" points="630.6,645.78 636.99,652.17 648.01,663.19 720.44,735.62 			
				"/>
			<polyline style="fill:none;stroke:#231F20;stroke-width:7;" points="531.89,547.07 532.92,548.1 605.54,620.72 605.67,620.85 
				619.35,634.53 621.54,636.72 			"/>
			<polyline style="fill:none;stroke:#231F20;stroke-width:7;" points="650.27,630.18 654.62,634.53 665.87,645.78 667.26,647.17 
				738.07,717.98 			"/>
			<polyline style="fill:none;stroke:#231F20;stroke-width:7;" points="549.53,529.44 550.84,530.75 623.06,602.96 629.28,609.18 
				636.99,616.89 638.46,618.36 			"/>
			<polyline style="fill:none;stroke:#231F20;stroke-width:7;" points="653.12,641.11 664.02,645.78 667.26,647.17 760.94,687.32 
							"/>
			<polyline style="fill:none;stroke:#231F20;stroke-width:7;" points="509.17,579.42 512.26,580.74 605.54,620.72 605.85,620.85 
				623.09,628.24 			"/>
			<polyline style="fill:none;stroke:#231F20;stroke-width:7;" points="620.53,641.8 611.31,645.78 605.66,648.22 515.13,687.32 			
				"/>
			<polyline style="fill:none;stroke:#231F20;stroke-width:7;" points="766.9,579.42 761,581.94 670.06,620.85 666.99,622.17 
				652.58,628.33 			"/>
			<path style="fill:none;stroke:#231F20;stroke-width:6.3923;" d="M636,620.85c7.57,0,13.72,5.58,13.72,12.471
				c0,6.88-6.149,12.46-13.72,12.46c-7.58,0-13.71-5.58-13.71-12.46c0-0.641,0.05-1.271,0.16-1.891c0.17-1.06,0.5-2.08,0.95-3.04
				C625.5,623.95,630.35,620.85,636,620.85z"/>
			<path style="fill:none;stroke:#231F20;stroke-width:15.9806;" d="M407.81,680.99c-5.01,2.89-10.8,4.54-16.97,4.54
				c-18.97,0-34.36-15.641-34.36-34.92c0-13.66,9.66-26.021,21.4-31.88c1.65-0.83,3.35-1.53,5.06-2.08"/>
			<polyline style="fill:none;stroke:#231F20;stroke-width:14;" points="377.7,618.36 330.03,470.25 309.92,407.74 309.69,407.04 
							"/>
			<polyline style="fill:none;stroke:#231F20;stroke-width:21;" points="430.08,599.87 430.28,599.64 559.26,449.51 559.33,449.43 
							"/>
			<polyline style="fill:none;stroke:#231F20;stroke-width:21;" points="416.89,453.08 429.32,450.66 549.36,427.26 			"/>
			<polyline style="fill:none;stroke:#231F20;stroke-width:21;" points="290.54,523.31 290.56,523.29 330.03,470.25 330.24,469.97 
				349.78,466.43 			"/>
			<path style="fill:none;stroke:#231F20;stroke-width:21;" d="M563.76,361.86l-3.62,3.62l-25.199,25.19l15.02,36.34l9.3,22.5
				l25.36,61.32l32.35,78.26c0,0,2.58,4.061,6.09,9.78c1.881,3.08,4.04,6.64,6.221,10.31c2.33,3.92,4.67,7.96,6.72,11.67"/>
			<path style="fill:none;stroke:#231F20;stroke-width:14;stroke-linecap:round;" d="M267.89,363.55
				c-9.29-0.92-18.87-1.06-22.27,2.34c-7.34,7.35-10.38,15.11,0.42,23.42c7.83,6.02,20.98,5.87,35.42,1.11"/>
			<polyline style="fill:none;stroke:#231F20;stroke-width:21;stroke-linecap:round;stroke-linejoin:round;" points="627.17,359.1 
				616.2,360.14 560.14,365.48 553.59,366.11 535.4,367.84 515.31,369.75 			"/>
			<path style="fill:none;stroke:#231F20;stroke-width:14;" d="M267.89,363.55c-12.52-22.13-5.54-48.11,7.23-72.38
				c6.68-12.72,14.96-24.97,22.85-35.95c24.51-34.09,46.88-75.64,94.29-93.22c14.29-5.3,26.74-5.18,37.66-2.11
				c22.021,6.18,37.811,24.32,49.88,34.06c1.8,1.46,3.51,2.73,5.15,3.74c18.109,11.19,62.33,75.11,73.51,80.97
				c11.19,5.86,41.55,36.76,41.55,36.76c10.771,8.97,18.391,14.25,24.29,18.13c11.63,7.63,16.59,9.82,25.78,23.95
				c13.85,21.31,2.13,32.49-7.99,22.37c-6.18-6.18-22.38-10.65-22.38-10.65s-0.78-4.21-3.51-9.08c-2.33-4.14-6.061-8.76-11.931-11.7
				c-12.779-6.39-54.869-29.29-61.26-36.22c-5.35-5.8-57.63-48.73-74.569-64.46c0,0-2.051-10.24-25.561,10.25
				c-3.3,2.87-7.01,6.34-11.2,10.53c-3.63,3.63-9.82,7.96-16.84,12.54c-16.41,10.7-37.33,22.77-40.69,30.61
				c-0.62,1.44-1.14,3.13-1.58,5.05v0.01c-1.55,6.76-1.97,16.1-1.16,25.07c0.74,8.26,2.52,16.2,5.41,21.54
				c6.92,12.78,23.43,45.27,30.89,76.71c1.92,8.109,3.71,15.33,5.29,21.58c4.56,17.989,7.49,27.949,7.49,27.949
				s2.14,15.99,3.2,31.971c0.94,14.149,3.14,53.38,6.59,78.069c0.45,3.19,0.91,6.141,1.399,8.761
				c4.261,22.899,6.391,46.869,17.58,53.8c11.19,6.92,21.46,21.85,35.16,19.71c14.98-2.351,23.79-2.22,26.07,4
				c0.2,0.56,0.35,1.16,0.45,1.82c0.05,0.35,0.09,0.72,0.109,1.1c0.53,9.06-19.17,21.84-39.42,23.439
				c-20.24,1.601-52.73,5.86-55.93-3.729c-1.85-5.54-2.81-18.03-3.28-27.58c-0.36-6.97-0.45-12.37-0.45-12.37
				s-20.25-49.01-27.17-67.12c-6.92-18.109-11.19-42.08-7.99-59.66c3.2-17.579,4.26-26.64-0.53-38.35l-2.13-3.729
				c0,0-11.46-17.19-22.81-35.08c-8.84-13.92-17.61-28.25-20.87-35.24c-3.6-7.7-10.9-13.67-20.55-21.67
				c-10.37-8.59-23.45-19.52-37.52-37.46C270.68,368.09,269.18,365.84,267.89,363.55"/>
			<path style="fill:none;stroke:#231F20;stroke-width:14;" d="M413.05,279.57c0.6,0.51,1.2,1.01,1.79,1.51
				c12.65,10.73,23.11,19.66,25.36,22.09c6.39,6.92,48.47,29.83,61.26,36.23c1.6,0.8,3.04,1.72,4.33,2.73
				c9.08,7.03,11.12,18.04,11.12,18.04s11.17,3.08,18.49,7.67c1.5,0.94,2.83,1.93,3.88,2.98c6.71,6.72,14.13,4.06,14.31-4.71
				c0.11-4.45-1.649-10.48-6.32-17.66c-6.31-9.7-10.619-13.77-16.47-17.85c-7-4.86-16.189-9.73-33.6-24.24
				c0,0-30.36-30.89-41.55-36.75c-2.48-1.3-6.58-5.45-11.65-11.24"/>
			<path style="fill:none;stroke:#231F20;stroke-width:14;" d="M438.19,127.89c-1.011,1.41-1.94,2.88-2.75,4.4
				c-3.101,5.67-4.83,12.05-4.82,18.79c0,1.75,0.11,3.47,0.34,5.16"/>
			<path style="fill:none;stroke:#231F20;stroke-width:14;" d="M479.62,193.96c0.06,0,0.12,0,0.18-0.01
				c22.851-0.63,46.17-21.43,46.17-42.87c0-4.88-0.91-9.57-2.58-13.94"/>
			<path style="fill:none;stroke:#231F20;stroke-width:14;" d="M437.02,132.37l-1.579-0.08l-2.16-0.12c0,0-12.25-33.56-4.8-42.08
				c7.46-8.53,70.859-23.97,110.27,16.51c39.42,40.49,18.12,30.37,18.12,30.37h-33.04l-0.43-0.02L437.02,132.37"/>
			<path style="fill:none;stroke:#231F20;stroke-width:19.1768;" d="M371.48,316.48c0,0-49,2.13-94.81-24.5"/>
			
				<line style="fill:none;stroke:#231F20;stroke-width:19.1768;stroke-linecap:round;" x1="456.45" y1="725.32" x2="401.32" y2="718.13"/>
			<line style="fill:none;stroke:#231F20;stroke-width:7;" x1="604.27" y1="348.44" x2="624" y2="334"/>
			<line style="fill:none;stroke:#231F20;stroke-width:6.3923;" x1="754" y1="782" x2="756" y2="782"/>
			<polyline style="fill:none;stroke:#231F20;stroke-width:6.3923;" points="508,342 530.8,330.6 532,330 			"/>
		</g>
	</g>
</g>
<rect style="fill:none;" width="850.394" height="850.394"/>
</svg>
