<?xml version="1.0" encoding="iso-8859-1"?>
<!-- Generator: Adobe Illustrator 12.0.1, SVG Export Plug-In . SVG Version: 6.00 Build 51448)  -->
<!DOCTYPE svg PUBLIC "-//W3C//DTD SVG 1.1//EN" "http://www.w3.org/Graphics/SVG/1.1/DTD/svg11.dtd" [
	<!ENTITY ns_svg "http://www.w3.org/2000/svg">
	<!ENTITY ns_xlink "http://www.w3.org/1999/xlink">
]>
<svg  version="1.1" id="Layer_1" xmlns="&ns_svg;" xmlns:xlink="&ns_xlink;" width="850.394" height="850.394"
	 viewBox="0 0 850.394 850.394" style="overflow:visible;enable-background:new 0 0 850.394 850.394;" xml:space="preserve">
<g id="XMLID_1_">
	<g>
		<path style="fill:#F0947D;" d="M704.35,544.14l33.32,1.841l-0.14,2.6c-0.44,1.56-0.96,3.1-1.54,4.64
			c-17.9,47.03-101.66,82.61-202.28,82.61c-14.01,0-27.7-0.69-40.93-2.01c-24.771-6.36-43.4-24.88-35.59-49.75
			c3.989-12.74,17.699-24.17,23.55-35.42c9.02-17.351,0.689-36.67-4.94-50.94c6.55,22.06-8.18,46.88-42.83,54.75
			c-12.45,2.83-31.07,2.41-40.51,13.57c-10.05,11.87-15.65,33.97,13.8,48l-0.01,0.01c-43.09-16.78-72.24-41.87-77.49-70.35
			c-0.56-3.061-0.85-6.16-0.85-9.29c0-32.091,30.23-60.71,77.42-79.29l2.11-2.311l37.28,33.931V454.89l27.29,10.23l-10.46-25.08
			l2.851-1.19c21.659-3.819,44.989-5.899,69.31-5.899c57.81,0,117.97,13.58,156.84,32.84l8.681,7.24L533.71,534.4l-0.02,0.33
			L704.35,544.14z"/>
		<polygon style="fill:#F6CC4B;" points="702.11,475.43 704.35,544.14 533.69,534.73 533.71,534.4 699.23,473.03 		"/>
		<path style="fill:#F6CC4B;" d="M738,554l-0.22,53.22h-0.271c0,64.32-92.95,116.44-204.76,116.44
			c-111.79,0-203.99-52.12-203.99-116.44V543.69c5.25,28.479,34.4,53.569,77.49,70.35c24.85,9.67,54.33,16.58,86.53,19.78
			c13.229,1.319,26.92,2.01,40.93,2.01c100.62,0,184.38-35.58,202.28-82.61L738,554z"/>
		<path style="fill:#F6CC4B;" d="M737.78,607.22l-0.271,64.75c0,64.311-92.95,116.45-204.76,116.45
			c-111.79,0-203.99-52.14-203.99-116.45v-63.7v-1.05c0,64.32,92.2,116.44,203.99,116.44c111.81,0,204.76-52.12,204.76-116.44
			H737.78z"/>
		<polygon style="fill:#F6CC4B;" points="702,472 702.11,475.43 699.23,473.03 		"/>
		<path style="fill:#F0947D;" d="M702,472l-2.77,1.03l-8.681-7.24C694.61,467.8,698.43,469.88,702,472z"/>
		<path style="fill:#F0947D;" d="M475.8,497.71c5.63,14.271,13.96,33.59,4.94,50.94c-5.851,11.25-19.561,22.68-23.55,35.42
			c-7.811,24.87,10.819,43.39,35.59,49.75c-32.2-3.2-61.681-10.11-86.53-19.78l0.01-0.01c-29.45-14.03-23.85-36.13-13.8-48
			c9.44-11.16,28.06-10.74,40.51-13.57C467.62,544.59,482.35,519.77,475.8,497.71z"/>
		<path style="fill:#F0947D;" d="M461.55,440.04l10.46,25.08l-27.29-10.23v31.841L407.44,452.8v-0.01L378,426l-2.26-0.13
			c18.01-14.92,40.57-38.65,53.26-52.95l5,1.08L461.55,440.04z"/>
		<path style="fill:#FFEEC8;" d="M435.32,329.23c0,0,11.85,22.19,0,36.39c-1.641,1.96-3.78,4.44-6.32,7.3
			c-12.69,14.3-35.25,38.03-53.26,52.95c-7.21,5.97-13.7,10.54-18.53,12.53c-19.33,7.949-89.44,12.21-101.13,22.05
			c-19.87,16.729-57.33,49.21-69.45,59.729l-87.3-115.84c42.39-16.18,67.36-51.13,74.04-63.06c12.46-22.26,44.25-61.98,64.93-78.3
			c2.77-2.18,5.72-4.16,8.85-5.97c5.37-3.13,11.25-5.8,17.6-8.24c14.83-5.72,32.16-10.26,51.19-16.77
			c13.71-4.69,26.28-9.23,37.45-13.04c7.22-2.45,13.85-4.6,19.83-6.27c9.56-2.67,17.43-4.14,23.33-3.72
			c5.58,0.39,5.58,0.39,10.88,12.96c6.87,16.27-51.71,39.03-74.72,50.34c31.85-7.96,88.28-16.44,95.78-13.55
			c14.79,5.69,14.779,29.57-3.41,34.12C425.08,292.84,451.74,317.63,435.32,329.23z"/>
		<path style="fill:#FFEEC8;" d="M368.1,173.98c10.8,5.86,10.4,20.73,4.8,37.55l0.32,1.16c-5.98,1.67-12.61,3.82-19.83,6.27
			l-1.09-3.22c-2.85-8.1-7.08-16.29-11.5-24.56C348.5,182.91,355.27,167.03,368.1,173.98z"/>
		<path style="fill:#FFFFFF;" d="M340.8,191.18c4.42,8.27,8.65,16.46,11.5,24.56l1.09,3.22c-11.17,3.81-23.74,8.35-37.45,13.04
			c-19.03,6.51-36.36,11.05-51.19,16.77c-22.69-22.44-53-46.17-81.74-60.13c-14.58-7.09-32.4-11.07-47.42-16.06
			c7.35-8.26,21.73-5.75,29.16-14.54c12.47-14.73,17.53-40.48,40-42.03c12.73-0.88,15.06-1.19,22.74-11.32
			c8.46-11.16,7.26-13.8,19.68-15.09c18.17-1.88,33.05-1.08,48.59-13.67c5.93-4.81,6.2-13.14,12.21-16.61
			c18.62,23.67,9.63,58.62,14.19,87.3C324.54,161.64,332.96,176.53,340.8,191.18z"/>
	</g>
	<g>
		<path style="fill:none;stroke:#231F20;stroke-width:20.4694;" d="M328.76,608.27c0,0,0,63.7,0,64.75v-1.05
			c0,64.311,92.2,116.45,203.99,116.45c111.81,0,204.76-52.14,204.76-116.45l0.271-64.75L738,554"/>
		<polyline style="fill:none;stroke:#231F20;stroke-width:20.4694;" points="328.76,543.41 328.76,543.69 328.76,607.22 		"/>
		<path style="fill:none;stroke:#231F20;stroke-width:20.4694;" d="M328.76,608.27v-1.05c0,64.32,92.2,116.44,203.99,116.44
			c111.81,0,204.76-52.12,204.76-116.44"/>
		<polyline style="fill:none;stroke:#231F20;stroke-width:20.4694;" points="702,472 702.11,475.43 704.35,544.14 704.41,546.13 		
			"/>
		<path style="fill:none;stroke:#231F20;stroke-width:20.4694;" d="M405.33,455.11c-47.19,18.58-77.42,47.199-77.42,79.29
			c0,3.13,0.29,6.229,0.85,9.29c5.25,28.479,34.4,53.569,77.49,70.35c24.85,9.67,54.33,16.58,86.53,19.78
			c13.229,1.319,26.92,2.01,40.93,2.01c100.62,0,184.38-35.58,202.28-82.61c0.58-1.54,1.1-3.08,1.54-4.64"/>
		<path style="fill:none;stroke:#231F20;stroke-width:20.4694;" d="M533.71,534.4l165.521-61.37L702,472
			c-3.57-2.12-7.39-4.2-11.45-6.21c-38.87-19.26-99.03-32.84-156.84-32.84c-24.32,0-47.65,2.08-69.31,5.899"/>
		<path style="fill:none;stroke:#231F20;stroke-width:20.4694;" d="M332.69,272.27c-3.3,1.63-5.87,3.01-7.4,4.11"/>
		<path style="fill:none;stroke:#231F20;stroke-width:20.4694;" d="M99.33,404.34c42.39-16.18,67.36-51.13,74.04-63.06
			c12.46-22.26,44.25-61.98,64.93-78.3c2.77-2.18,5.72-4.16,8.85-5.97c5.37-3.13,11.25-5.8,17.6-8.24
			c14.83-5.72,32.16-10.26,51.19-16.77c13.71-4.69,26.28-9.23,37.45-13.04c7.22-2.45,13.85-4.6,19.83-6.27
			c9.56-2.67,17.43-4.14,23.33-3.72c5.58,0.39,5.58,0.39,10.88,12.96c6.87,16.27-51.71,39.03-74.72,50.34"/>
		<path style="fill:none;stroke:#231F20;stroke-width:20.4694;" d="M332.69,272.27c0.01,0,0.01,0,0.02,0
			c31.85-7.96,88.28-16.44,95.78-13.55c14.79,5.69,14.779,29.57-3.41,34.12l-83.84,33.83"/>
		<path style="fill:none;stroke:#231F20;stroke-width:20.4694;" d="M425.08,292.84c0,0,26.66,24.79,10.24,36.39
			c-26.041,18.4-79.3,45.41-79.3,45.41"/>
		<path style="fill:none;stroke:#231F20;stroke-width:20.4694;" d="M435.32,329.23c0,0,11.85,22.19,0,36.39
			c-1.641,1.96-3.78,4.44-6.32,7.3c-12.69,14.3-35.25,38.03-53.26,52.95c-7.21,5.97-13.7,10.54-18.53,12.53
			c-19.33,7.949-89.44,12.21-101.13,22.05c-19.87,16.729-57.33,49.21-69.45,59.729c-2.48,2.16-3.9,3.391-3.9,3.391"/>
		<path style="fill:none;stroke:#231F20;stroke-width:20.4694;" d="M340,192c0.27-0.26,0.53-0.54,0.8-0.82
			c7.7-8.27,14.47-24.15,27.3-17.2c10.8,5.86,10.4,20.73,4.8,37.55"/>
		<polyline style="fill:none;stroke:#231F20;stroke-width:20.4694;" points="378,426 407.44,452.79 407.44,452.8 444.72,486.73 
			444.72,454.89 472.01,465.12 461.55,440.04 434,374 		"/>
		<path style="fill:none;stroke:#231F20;stroke-width:20.4694;" d="M266.18,250.2c-0.47-0.47-0.95-0.95-1.43-1.43
			c-22.69-22.44-53-46.17-81.74-60.13c-14.58-7.09-32.4-11.07-47.42-16.06c7.35-8.26,21.73-5.75,29.16-14.54
			c12.47-14.73,17.53-40.48,40-42.03c12.73-0.88,15.06-1.19,22.74-11.32c8.46-11.16,7.26-13.8,19.68-15.09
			c18.17-1.88,33.05-1.08,48.59-13.67c5.93-4.81,6.2-13.14,12.21-16.61c18.62,23.67,9.63,58.62,14.19,87.3
			c2.38,15.02,10.8,29.91,18.64,44.56c4.42,8.27,8.65,16.46,11.5,24.56"/>
		<path style="fill:none;stroke:#231F20;stroke-width:20.4694;" d="M238.92,169.39c29.57,7.12,64.59,51.68,69.34,61.48"/>
		<polyline style="fill:none;stroke:#231F20;stroke-width:20.4694;" points="527.71,534.4 533.69,534.73 704.35,544.14 
			737.67,545.98 738,546 		"/>
		<path style="fill:none;stroke:#231F20;stroke-width:20.4694;" d="M451.74,470.17c12.97,7.12,20.939,17.021,24.06,27.54
			c6.55,22.06-8.18,46.88-42.83,54.75c-12.45,2.83-31.07,2.41-40.51,13.57c-10.05,11.87-15.65,33.97,13.8,48"/>
		<path style="fill:none;stroke:#231F20;stroke-width:20.4694;" d="M473.91,492.75c0.57,1.57,1.21,3.23,1.89,4.96
			c5.63,14.271,13.96,33.59,4.94,50.94c-5.851,11.25-19.561,22.68-23.55,35.42c-7.811,24.87,10.819,43.39,35.59,49.75"/>
		<path style="fill:none;stroke:#231F20;stroke-width:20.4694;stroke-linecap:round;stroke-linejoin:round;" d="M247.15,257.01
			c-14.79,18.57-10.2,35.73,11.37,44.34"/>
		<path style="fill:none;stroke:#231F20;stroke-width:20.4694;stroke-linecap:round;stroke-linejoin:round;" d="M256.25,303.8
			c-6.14,16.71,2.52,35.36,19.91,36.4"/>
		<polyline style="fill:none;stroke:#231F20;stroke-width:0.25;" points="686,462 690.55,465.79 699.23,473.03 702.11,475.43 
			710,482 		"/>
	</g>
</g>
<rect style="fill:none;" width="850.394" height="850.394"/>
</svg>
