<?xml version="1.0" encoding="iso-8859-1"?>
<!-- Generator: Adobe Illustrator 12.0.1, SVG Export Plug-In . SVG Version: 6.00 Build 51448)  -->
<!DOCTYPE svg PUBLIC "-//W3C//DTD SVG 1.1//EN" "http://www.w3.org/Graphics/SVG/1.1/DTD/svg11.dtd" [
	<!ENTITY ns_svg "http://www.w3.org/2000/svg">
	<!ENTITY ns_xlink "http://www.w3.org/1999/xlink">
]>
<svg  version="1.1" id="Layer_1" xmlns="&ns_svg;" xmlns:xlink="&ns_xlink;" width="850.394" height="850.394"
	 viewBox="0 0 850.394 850.394" style="overflow:visible;enable-background:new 0 0 850.394 850.394;" xml:space="preserve">
<g id="XMLID_2_">
	<g>
		<path style="fill:#FFEEC8;" d="M349.73,740.33c-22.68-3.75-58.03-12.021-65.1-16.51c-9.16-5.811-37.45-23.15-44.17-28.44
			c-0.71-0.56-1.29-1.16-1.77-1.8c-4.63-6.24,1.28-15.73,7.98-14.14l0.03-0.051c-9.5-6.12-17.51-11.37-19.66-12.88
			c-10.82-7.55-3.52-22.2,6.09-17.109l0.45-0.75c-8.06-4.83-14.16-8.61-15.48-9.66c-8.6-6.87-0.53-21.34,10.13-17.25
			c0.69,0.27,1.4,0.55,2.12,0.85c2.11,0.87,4.32,1.86,6.59,2.95c-0.15-3.63,0.21-19.63,18.51-13.65
			c16.32,5.32,43.17,15.74,52.5,17.36c9.32,1.64,40.9-3.31,54.35-6.84c1.53-0.41,3.14-0.9,4.8-1.47
			c4.95-1.71,10.24-4.061,14.53-6.53c6.88-3.95,11.18-8.19,7.55-10.55c0,0-7.58-4.471-19.18-5.86l-1.39-0.15l2.74-26.09
			c6.53,0.48,27.97-0.609,50.55,1.4c16.6,1.43,41.73,17.05,57.73,34.45c14.49,15.76,64.99,19.739,86.12,24.93l-44.03,95.28
			c-14.979-8.73-34.84-15.92-47.41-16.801c-2.479-0.17-4.64-0.359-6.64-0.55c-12.07-1.09-17.27-1.63-38.66,6.32
			c0,0-48.46,25.96-63.66,25.45C361.91,742.13,356.36,741.42,349.73,740.33z"/>
		<path style="fill:#ABD150;" d="M227.04,666.51c2.15,1.51,10.16,6.76,19.66,12.88l-0.03,0.051c-6.7-1.591-12.61,7.899-7.98,14.14
			l-0.27,0.21l3.42,32.46c0,6,2.73,11.64,7.5,16.5l-1.29,1.27L96,590l-0.15-0.44c29.69-10.05,74.94-25.829,84.72-31.949
			c14.84-9.28,16.69-50.99,16.69-50.99l1.58-1.33c7.24,8.71,14.7,16.46,22.15,23.05l3.38,32.09l6.43,61.07l-0.45,1.09
			c-0.72-0.3-1.43-0.58-2.12-0.85c-10.66-4.09-18.73,10.38-10.13,17.25c1.32,1.05,7.42,4.83,15.48,9.66l-0.45,0.75
			C223.52,644.31,216.22,658.96,227.04,666.51z"/>
		<path style="fill:#ED1E29;" d="M753.3,169.05c0,16.48-6.77,31.62-17.71,48.68l-98.85,128.01L535.9,216.99
			c-10.94-17.06-17.71-32.2-17.71-48.68c0-32.95,27.069-59.66,60.449-59.66c37.681,0,58.101,40.73,58.101,40.73
			c7.479-24.56,28.79-39.99,56.109-39.99C726.23,109.39,753.3,136.1,753.3,169.05z"/>
		<path style="fill:#FFEEC8;" d="M441.35,300.52l1.73-0.02c3.86-1.37,8.189-1.86,12.91-1.1c17.979,2.89,15.55,23.06,10.62,33.13
			c-12,24.51-6.511,33.52-8.04,52.22c-0.59,7.1-8.69,20.9-25.61,17.67l-0.9-0.26c6.04-21.06,9.601-43.24,9.601-65.79
			c0-12.44-0.17-21.15-0.54-35.85H441.35z"/>
		<path style="fill:#9C5C25;" d="M326.58,167.69c-31.47,21.97-137.66,56.99-151.15,66.89c0,0-24.09,24.85-40.79,46.22
			c-6,7.68-11.05,14.91-13.68,20.38l-1.57-50.95c0-81.28,66.33-128.46,66.33-128.46c7.68-5.21,12.81-7.84,12.81-7.84
			c33.84-20.13,77.59-27.22,133.41-20.72c67.4,7.86,119.11,74.98,128.97,158.53c1.59,13.58-2.57,33.29-4.92,47.66
			c-4.721-0.76-9.05-0.27-12.91,1.1l-1.73,0.02c-0.08-0.36-0.17-0.73-0.26-1.1c-6.18-24.89-33.19-46.11-40.12-55.67
			c-37.33-51.55-65.58-70.93-72.53-75.23c-1.08-0.67-1.65-0.97-1.65-0.97C326.72,167.6,326.65,167.65,326.58,167.69z"/>
		<path style="fill:#FFEEC8;" d="M382.62,320.72c-5.29-2.48-11.06-3.88-17.22-3.75c-8.42,0.19-17.04,3.68-23.54,9.25l5.01,0.03
			c0.02,0.55,0.21,1.13,0.21,2.44c0,9.27,7.87,16.77,17.57,16.77c9.68,0,17.55-7.5,17.55-16.77c0-2.52,0.18-3.69-0.45-5.17
			L382.62,320.72z M240.45,325.27c-6.23-4.71-14.06-7.61-21.71-7.78c-7.98-0.17-15.28,2.22-21.76,6.21l5.1,1.33
			c-0.25,1.1-0.14,2.23-0.14,4.19c0,9.26,7.87,16.77,17.56,16.77c9.7,0,17.56-7.51,17.56-16.77L240.45,325.27z M295.46,439.75
			c-0.21,0.04-0.43,0.08-0.66,0.11l1.49-0.101C296,439.76,295.73,439.75,295.46,439.75z M368,515.58
			c-12.79-7.05-39.13-11.89-69.54-11.89c-0.91,0-1.82,0-2.72,0.02c6.17-0.68,11.91-1.55,15.88-2.05
			c13.36-1.66,24.64-5.45,34.11-20.29l-8.04,0.13c-40.62-16.32-43.85-15.21-91.52,1.53l-1.6,0.029c0.13,0.131,0.27,0.271,0.39,0.4
			c-0.54,0.19-1.09,0.39-1.64,0.58l2.2-0.021c8.25,8.36,15.27,16.79,23.5,19.301c2.18,0.67,4.81,1.05,7.69,1.229
			c-32.38,2.601-56.04,10.891-56.04,20.73c0,0.42,0.04,0.83,0.13,1.239l0.19,1.82c-7.45-6.59-14.91-14.34-22.15-23.05
			c-22.01-26.5-41.95-61.98-53.26-101.53c-6.16-21.52-9.77-44.24-9.77-67.39c0-7.67,0.01-21.1,0.12-34.07
			c0.06-7.26,0.15-14.39,0.29-20.27l-1.58-1.23c16.7-21.37,40.79-46.22,40.79-46.22c13.49-9.9,119.68-44.92,151.15-66.89
			c0.35,0.31,1.01,0.59,1.86,0.83c6.95,4.3,35.2,23.68,72.53,75.23c6.93,9.56,33.94,30.78,40.12,55.67
			c0.01,0.37,0.021,0.74,0.03,1.1c0.37,14.7,0.54,23.41,0.54,35.85c0,22.55-3.561,44.73-9.601,65.79
			c-10.97,38.29-30.109,72.88-50.89,99.27c-8.42,9.44-12.35,13.49-13.12,14.19C368.03,515.61,368.02,515.6,368,515.58z
			 M361.51,491.72l-23.67-26.54C337.84,477.14,351.12,487.61,361.51,491.72z M249.39,463.63l-23.67,26.55
			C236.1,486.06,249.39,475.59,249.39,463.63z"/>
		<path style="fill:#FFFFFF;" d="M382.62,320.72l-0.87,2.8c0.63,1.48,0.45,2.65,0.45,5.17c0,9.27-7.87,16.77-17.55,16.77
			c-9.7,0-17.57-7.5-17.57-16.77c0-1.31-0.19-1.89-0.21-2.44l-5.01-0.03c6.5-5.57,15.12-9.06,23.54-9.25
			C371.56,316.84,377.33,318.24,382.62,320.72z M370.88,328.85c0-3.13-2.84-5.65-6.33-5.65c-3.5,0-6.35,2.52-6.35,5.65
			c0,3.12,2.85,5.65,6.35,5.65C368.04,334.5,370.88,331.97,370.88,328.85z"/>
		<path style="fill:#FFFFFF;" d="M376.25,525.28l-0.13,1.239c-2.31,11.36-36.2,20.36-77.66,20.36c-30.29,0-56.54-4.8-69.38-11.81
			c-2.37-1.84-4.76-3.811-7.14-5.891c-0.58-0.87-0.96-1.76-1.14-2.66l-0.13-1.239c0-9.84,23.66-18.13,56.04-20.73
			c5.8,0.351,12.64-0.14,19.03-0.84c0.9-0.02,1.81-0.02,2.72-0.02c30.41,0,56.75,4.84,69.54,11.89c-0.15,0.189-0.15,0.21,0.05,0.04
			C373.3,518.52,376.25,521.8,376.25,525.28z"/>
		<path style="fill:#FFFFFF;" d="M372.42,560.42c-1.02,11.11-33.75,20.021-73.98,20.021c-40.24,0-72.97-8.91-73.99-20.021
			l-0.08,0.01l-3.38-32.09c0.31,0.29,0.63,0.561,0.95,0.84c1.36,2.08,3.79,4.061,7.14,5.891c12.84,7.01,39.09,11.81,69.38,11.81
			c41.46,0,75.35-9,77.66-20.36l-3.57,33.91L372.42,560.42z"/>
		<path style="fill:#FAA41A;" d="M372.55,560.43l-1.2,11.33l-2.74,26.09l-2.15,20.381l0.64,2.71c-1.66,0.569-3.27,1.06-4.8,1.47
			c-13.45,3.53-45.03,8.479-54.35,6.84c-9.33-1.62-36.18-12.04-52.5-17.36c-18.3-5.979-18.66,10.021-18.51,13.65
			c-2.27-1.09-4.48-2.08-6.59-2.95l0.45-1.09l-6.43-61.07l0.08-0.01c1.02,11.11,33.75,20.021,73.99,20.021
			c40.23,0,72.96-8.91,73.98-20.021L372.55,560.43z"/>
		<path style="fill:#231F20;" d="M364.55,323.2c3.49,0,6.33,2.52,6.33,5.65c0,3.12-2.84,5.65-6.33,5.65c-3.5,0-6.35-2.53-6.35-5.65
			C358.2,325.72,361.05,323.2,364.55,323.2z"/>
		<path style="fill:#231F20;" d="M337.84,465.18l23.67,26.54C351.12,487.61,337.84,477.14,337.84,465.18z"/>
		<path style="fill:#EF947D;" d="M337.69,481.5l8.04-0.13c-9.47,14.84-20.75,18.63-34.11,20.29c-3.97,0.5-9.71,1.37-15.88,2.05
			c-6.58,0.06-12.96,0.34-19.03,0.84c-2.88-0.18-5.51-0.56-7.69-1.229c-8.23-2.511-15.25-10.94-23.5-19.301l96.12-0.92
			C340.28,482.55,338.97,482.02,337.69,481.5z"/>
		<path style="fill:#231F20;" d="M341.64,483.1l-96.12,0.92c-0.18-0.189-0.37-0.369-0.56-0.56c0.41-0.14,0.81-0.28,1.21-0.43
			l91.52-1.53C338.97,482.02,340.28,482.55,341.64,483.1z"/>
		<path style="fill:#EF947D;" d="M337.69,481.5l-91.52,1.53C293.84,466.29,297.07,465.18,337.69,481.5z"/>
		<path style="fill:#FAA41A;" d="M349.73,740.33c-9.03,11.27-28.59,19.07-51.27,19.07c-21.01,0-39.35-6.7-49.12-16.65
			c-4.77-4.86-7.5-10.5-7.5-16.5l-3.42-32.46l0.27-0.21c0.48,0.64,1.06,1.24,1.77,1.8c6.72,5.29,35.01,22.63,44.17,28.44
			C291.7,728.31,327.05,736.58,349.73,740.33z"/>
		<path style="fill:#231F20;" d="M295.74,503.71c-6.39,0.7-13.23,1.19-19.03,0.84C282.78,504.05,289.16,503.77,295.74,503.71z"/>
		<path style="fill:#231F20;" d="M244.57,483.06l1.6-0.029c-0.4,0.149-0.8,0.29-1.21,0.43C244.84,483.33,244.7,483.19,244.57,483.06
			z"/>
		<path style="fill:#231F20;" d="M245.52,484.02l-2.2,0.021c0.55-0.19,1.1-0.39,1.64-0.58
			C245.15,483.65,245.34,483.83,245.52,484.02z"/>
		<path style="fill:#FFFFFF;" d="M202.08,325.03l-5.1-1.33c6.48-3.99,13.78-6.38,21.76-6.21c7.65,0.17,15.48,3.07,21.71,7.78
			l-3.39,3.95c0,9.26-7.86,16.77-17.56,16.77c-9.69,0-17.56-7.51-17.56-16.77C201.94,327.26,201.83,326.13,202.08,325.03z
			 M225.78,328.89c0-3.13-2.84-5.66-6.34-5.66s-6.34,2.53-6.34,5.66c0,3.12,2.84,5.65,6.34,5.65S225.78,332.01,225.78,328.89z"/>
		<path style="fill:#231F20;" d="M219.44,323.23c3.5,0,6.34,2.53,6.34,5.66c0,3.12-2.84,5.65-6.34,5.65s-6.34-2.53-6.34-5.65
			C213.1,325.76,215.94,323.23,219.44,323.23z"/>
		<path style="fill:#FFEEC8;" d="M145.58,403.76l-1.58,0.45c-16.93,3.23-25.03-10.58-25.61-17.69c-1.53-18.69,3.97-27.7-8.05-52.21
			c-4.93-10.06-7.36-30.25,10.62-33.13c4.72-0.75,9.05-0.28,12.92,1.1l2.05,0.02c-0.11,12.97-0.12,26.4-0.12,34.07
			C135.81,359.52,139.42,382.24,145.58,403.76z"/>
	</g>
	<g>
		<path style="fill:none;stroke:#231F20;stroke-width:14;stroke-linecap:square;stroke-miterlimit:10;" d="M182.31,336.76
			c4.23-5.11,9.15-9.67,14.67-13.06c6.48-3.99,13.78-6.38,21.76-6.21c7.65,0.17,15.48,3.07,21.71,7.78
			c3.75,2.83,6.91,6.3,9.13,10.23"/>
		<path style="fill:none;stroke:#231F20;stroke-width:11.9445;stroke-linecap:square;stroke-miterlimit:10;" d="M237.06,329.22
			c0,9.26-7.86,16.77-17.56,16.77c-9.69,0-17.56-7.51-17.56-16.77c0-1.96-0.11-3.09,0.14-4.19c0.04-0.19,0.09-0.39,0.16-0.58"/>
		<path style="fill:none;stroke:#231F20;stroke-width:14;stroke-linecap:square;stroke-miterlimit:10;" d="M401.83,336.23
			c-5.35-6.47-11.82-12.05-19.21-15.51c-5.29-2.48-11.06-3.88-17.22-3.75c-8.42,0.19-17.04,3.68-23.54,9.25
			c-2.95,2.53-5.45,5.48-7.31,8.76"/>
		<path style="fill:none;stroke:#231F20;stroke-width:11.9445;stroke-linecap:square;stroke-miterlimit:10;" d="M346.87,326.25
			c0.02,0.55,0.21,1.13,0.21,2.44c0,9.27,7.87,16.77,17.57,16.77c9.68,0,17.55-7.5,17.55-16.77c0-2.52,0.18-3.69-0.45-5.17"/>
		<path style="fill:none;stroke:#231F20;stroke-width:14;" d="M133.88,302.28c-3.87-1.38-8.2-1.85-12.92-1.1
			c-17.98,2.88-15.55,23.07-10.62,33.13c12.02,24.51,6.52,33.52,8.05,52.21c0.58,7.11,8.68,20.92,25.61,17.69"/>
		<path style="fill:none;stroke:#231F20;stroke-width:14;" d="M443.08,300.5c3.86-1.37,8.189-1.86,12.91-1.1
			c17.979,2.89,15.55,23.06,10.62,33.13c-12,24.51-6.511,33.52-8.04,52.22c-0.59,7.1-8.69,20.9-25.61,17.67"/>
		<path style="fill:none;stroke:#231F20;stroke-width:14;" d="M230.4,536.08c-0.44-0.33-0.88-0.67-1.32-1.01
			c-2.37-1.84-4.76-3.811-7.14-5.891c-0.32-0.279-0.64-0.55-0.95-0.84c-7.45-6.59-14.91-14.34-22.15-23.05
			c-22.01-26.5-41.95-61.98-53.26-101.53c-6.16-21.52-9.77-44.24-9.77-67.39c0-7.67,0.01-21.1,0.12-34.07
			c0.06-7.26,0.15-14.39,0.29-20.27"/>
		<path style="fill:none;stroke:#231F20;stroke-width:14;" d="M441.04,297.5c0.02,0.65,0.03,1.29,0.05,1.92
			c0.01,0.37,0.021,0.74,0.03,1.1c0.37,14.7,0.54,23.41,0.54,35.85c0,22.55-3.561,44.73-9.601,65.79
			c-10.97,38.29-30.109,72.88-50.89,99.27c-8.42,9.44-12.35,13.49-13.12,14.19c-0.2,0.17-0.2,0.149-0.05-0.04
			c0.32-0.39,1.37-1.521,2.97-3.12"/>
		<path style="fill:none;stroke:#231F20;stroke-width:14;" d="M295.46,439.75c8.38-1.56,6.89-6.52,15.86-4.34
			c7.74,1.88,15.96,5.74,17.9-6.37c1.32-8.34-4.93-9.43-8.27-16.13"/>
		<path style="fill:none;stroke:#231F20;stroke-width:14;" d="M295.46,439.75c0.27,0,0.54,0.01,0.83,0.01l-1.49,0.101
			C295.03,439.83,295.25,439.79,295.46,439.75z"/>
		<path style="fill:none;stroke:#231F20;stroke-width:14;" d="M269.28,335.85c13.89,15.25,9.69,51.07,3.47,69.72l-2.61,7.26
			c-3.33,6.69-9.59,7.78-8.26,16.12c1.92,12.1,10.14,8.24,17.89,6.37c8.94-2.16,6.9,4.05,15.69,4.43"/>
		<path style="fill:none;stroke:#231F20;stroke-width:5.9722;" d="M225.78,328.89c0,3.12-2.84,5.65-6.34,5.65s-6.34-2.53-6.34-5.65
			c0-3.13,2.84-5.66,6.34-5.66S225.78,325.76,225.78,328.89z"/>
		<path style="fill:none;stroke:#231F20;stroke-width:5.9722;" d="M370.88,328.85c0,3.12-2.84,5.65-6.33,5.65
			c-3.5,0-6.35-2.53-6.35-5.65c0-3.13,2.85-5.65,6.35-5.65C368.04,323.2,370.88,325.72,370.88,328.85z"/>
		<path style="fill:none;stroke:#231F20;stroke-width:14;" d="M260.07,307.86c-7.49-15.78-36.81-21.94-51.66-18.97
			c-13.95,2.78-20.87,4.46-35.42,15.74"/>
		<path style="fill:none;stroke:#231F20;stroke-width:14;" d="M320.83,304.41c7.5-15.78,36.83-21.94,51.66-18.98
			c13.97,2.79,20.89,4.46,35.43,15.74"/>
		<path style="fill:none;stroke:#231F20;stroke-width:14;" d="M455.99,299.4c2.35-14.37,6.51-34.08,4.92-47.66
			c-9.86-83.55-61.57-150.67-128.97-158.53c-55.82-6.5-99.57,0.59-133.41,20.72c0,0-5.13,2.63-12.81,7.84
			c0,0-66.33,47.18-66.33,128.46l1.57,50.95c2.63-5.47,7.68-12.7,13.68-20.38c16.7-21.37,40.79-46.22,40.79-46.22
			c13.49-9.9,119.68-44.92,151.15-66.89c0.07-0.04,0.14-0.09,0.21-0.14c0,0,0.57,0.3,1.65,0.97c6.95,4.3,35.2,23.68,72.53,75.23
			c6.93,9.56,33.94,30.78,40.12,55.67c0.09,0.37,0.18,0.74,0.26,1.1c0.5,2.26,0.83,4.55,0.95,6.86"/>
		<path style="fill:none;stroke:#231F20;stroke-width:14;" d="M339.05,169.89c-1.56,0.02-7.4-0.44-10.61-1.37
			c-0.85-0.24-1.51-0.52-1.86-0.83c-0.12-0.11-0.21-0.22-0.25-0.33c9.65-9.4,17.27-24.73,17.27-40.28"/>
		<path style="fill:none;stroke:#231F20;stroke-width:14;" d="M197.26,506.62c0,0-1.85,41.71-16.69,50.99
			c-9.78,6.12-55.03,21.899-84.72,31.949c-0.89,0.29-1.76,0.591-2.62,0.881"/>
		<path style="fill:none;stroke:#231F20;stroke-width:14;" d="M295.74,503.71c0.9-0.02,1.81-0.02,2.72-0.02
			c30.41,0,56.75,4.84,69.54,11.89c0.02,0.02,0.03,0.03,0.05,0.04c5.25,2.899,8.2,6.18,8.2,9.66c0,0.42-0.04,0.83-0.13,1.239
			c-2.31,11.36-36.2,20.36-77.66,20.36c-30.29,0-56.54-4.8-69.38-11.81c-3.35-1.83-5.78-3.811-7.14-5.891
			c-0.58-0.87-0.96-1.76-1.14-2.66c-0.09-0.409-0.13-0.819-0.13-1.239c0-9.84,23.66-18.13,56.04-20.73"/>
		<path style="fill:none;stroke:#231F20;stroke-width:14;" d="M372.44,559.89c0,0.181-0.01,0.351-0.02,0.53
			c-1.02,11.11-33.75,20.021-73.98,20.021c-40.24,0-72.97-8.91-73.99-20.021c-0.01-0.18-0.02-0.35-0.02-0.53"/>
		<polyline style="fill:none;stroke:#231F20;stroke-width:14;" points="366.46,618.23 368.61,597.85 371.35,571.76 372.55,560.43 
			376.12,526.52 376.25,525.28 		"/>
		<path style="fill:none;stroke:#231F20;stroke-width:14;" d="M238.42,693.79l3.42,32.46c0,6,2.73,11.64,7.5,16.5
			c9.77,9.95,28.11,16.65,49.12,16.65c22.68,0,42.24-7.801,51.27-19.07c0.24-0.29,0.47-0.59,0.69-0.89"/>
		<polyline style="fill:none;stroke:#231F20;stroke-width:14;" points="220.67,525.28 220.8,526.52 220.99,528.34 224.37,560.43 
			230.8,621.5 		"/>
		<path style="fill:none;stroke:#231F20;stroke-width:14;stroke-miterlimit:10;" d="M344.54,712.36c0,0-52.92-6.7-58.01-8.5
			c-3.21-1.17-23.68-14.07-39.83-24.471c-9.5-6.12-17.51-11.37-19.66-12.88c-10.82-7.55-3.52-22.2,6.09-17.109"/>
		<path style="fill:none;stroke:#231F20;stroke-width:14;stroke-miterlimit:10;" d="M350.81,685.36c0,0-60.32-5.4-64.72-6.75
			c-3.11-0.96-33.34-18.45-52.51-29.96c-8.06-4.83-14.16-8.61-15.48-9.66c-8.6-6.87-0.53-21.34,10.13-17.25
			c0.69,0.27,1.4,0.55,2.12,0.85c2.11,0.87,4.32,1.86,6.59,2.95c13.96,6.7,30.46,16.93,42.42,23.53
			c14.56,8.08,21.73,8.64,30.92,8.35c9.22-0.3,39.12,1.41,39.12,1.41"/>
		<path style="fill:none;stroke:#231F20;stroke-width:14;stroke-miterlimit:10;" d="M371.35,571.76c6.53,0.48,27.97-0.609,50.55,1.4
			c16.6,1.43,41.73,17.05,57.73,34.45c14.49,15.76,64.99,19.739,86.12,24.93c2.17,0.54,4.02,1.08,5.5,1.65"/>
		<path style="fill:none;stroke:#231F20;stroke-width:14;stroke-miterlimit:10;" d="M381.63,614.41c6.88-3.95,11.18-8.19,7.55-10.55
			c0,0-7.58-4.471-19.18-5.86"/>
		<path style="fill:none;stroke:#231F20;stroke-width:14;stroke-miterlimit:10;" d="M236.98,626.26c0,0-0.03-0.26-0.04-0.72
			c-0.15-3.63,0.21-19.63,18.51-13.65c16.32,5.32,43.17,15.74,52.5,17.36c9.32,1.64,40.9-3.31,54.35-6.84
			c1.53-0.41,3.14-0.9,4.8-1.47c4.95-1.71,10.24-4.061,14.53-6.53"/>
		<path style="fill:none;stroke:#231F20;stroke-width:14;stroke-miterlimit:10;" d="M365.35,742.24c-3.44-0.11-8.99-0.82-15.62-1.91
			c-22.68-3.75-58.03-12.021-65.1-16.51c-9.16-5.811-37.45-23.15-44.17-28.44c-0.71-0.56-1.29-1.16-1.77-1.8
			c-4.63-6.24,1.28-15.73,7.98-14.14"/>
		<path style="fill:none;stroke:#231F20;stroke-width:14;stroke-miterlimit:10;" d="M467.67,710.47
			c-12.07-1.09-17.27-1.63-38.66,6.32c0,0-48.46,25.96-63.66,25.45"/>
		<path style="fill:none;stroke:#231F20;stroke-width:14;stroke-miterlimit:10;" d="M474.31,711.02
			c-2.479-0.17-4.64-0.359-6.64-0.55"/>
		<path style="fill:none;stroke:#231F20;stroke-width:14;stroke-miterlimit:10;" d="M521.72,727.82
			c-14.979-8.73-34.84-15.92-47.41-16.801"/>
		<path style="fill:none;stroke:#231F20;stroke-width:7;" d="M246.17,483.03c47.67-16.74,50.9-17.851,91.52-1.53"/>
		<path style="fill:none;stroke:#231F20;stroke-width:7;" d="M243.32,484.04c0.55-0.19,1.1-0.39,1.64-0.58"/>
		<path style="fill:none;stroke:#231F20;stroke-width:14;" d="M244.57,483.06c0.13,0.131,0.27,0.271,0.39,0.4
			c0.19,0.19,0.38,0.37,0.56,0.56c8.25,8.36,15.27,16.79,23.5,19.301c2.18,0.67,4.81,1.05,7.69,1.229
			c5.8,0.351,12.64-0.14,19.03-0.84c6.17-0.68,11.91-1.55,15.88-2.05c13.36-1.66,24.64-5.45,34.11-20.29"/>
		<polyline style="fill:none;stroke:#231F20;stroke-width:7;" points="345.73,481.37 337.69,481.5 246.17,483.03 244.57,483.06 		
			"/>
		<path style="fill:none;stroke:#231F20;stroke-width:7;" d="M225.72,490.18c10.38-4.12,23.67-14.59,23.67-26.55"/>
		<path style="fill:none;stroke:#231F20;stroke-width:7;" d="M361.51,491.72c-10.39-4.109-23.67-14.58-23.67-26.54"/>
		<path style="fill:none;stroke:#231F20;stroke-width:14;" d="M636.74,149.38c7.479-24.56,28.79-39.99,56.109-39.99
			c33.381,0,60.45,26.71,60.45,59.66c0,16.48-6.77,31.62-17.71,48.68l-98.85,128.01L535.9,216.99
			c-10.94-17.06-17.71-32.2-17.71-48.68c0-32.95,27.069-59.66,60.449-59.66C616.32,108.65,636.74,149.38,636.74,149.38z"/>
	</g>
</g>
<rect style="fill:none;" width="850.394" height="850.394"/>
</svg>
