<?xml version="1.0" encoding="iso-8859-1"?>
<!-- Generator: Adobe Illustrator 12.0.1, SVG Export Plug-In . SVG Version: 6.00 Build 51448)  -->
<!DOCTYPE svg PUBLIC "-//W3C//DTD SVG 1.1//EN" "http://www.w3.org/Graphics/SVG/1.1/DTD/svg11.dtd" [
	<!ENTITY ns_svg "http://www.w3.org/2000/svg">
	<!ENTITY ns_xlink "http://www.w3.org/1999/xlink">
]>
<svg  version="1.1" id="Layer_1" xmlns="&ns_svg;" xmlns:xlink="&ns_xlink;" width="850.394" height="850.394"
	 viewBox="0 0 850.394 850.394" style="overflow:visible;enable-background:new 0 0 850.394 850.394;" xml:space="preserve">
<g id="XMLID_4_">
	<g>
		<path style="fill:#FFEEC8;" d="M387.36,143.78l0.65-0.14c1.5-0.55,3.19-0.72,5.03-0.43c7.01,1.12,6.06,8.98,4.14,12.91
			c-4.68,9.54-2.55,13.05-3.14,20.34c-0.22,2.76-3.38,8.15-9.98,6.89l-0.35-0.1c2.36-8.21,3.75-16.85,3.75-25.64
			c0-4.97-0.06-8.41-0.23-14.4C387.28,143.4,387.32,143.59,387.36,143.78z"/>
		<path style="fill:#FFEEC8;" d="M268.3,157.61c0,9.01,1.4,17.87,3.81,26.25l-0.62,0.18c-6.59,1.26-9.75-4.12-9.97-6.89
			c-0.6-7.29,1.54-10.79-3.14-20.34c-1.92-3.93-2.87-11.78,4.14-12.91c1.83-0.29,3.52-0.11,5.03,0.43l0.79,0.01
			C268.3,149.39,268.3,154.62,268.3,157.61z"/>
		<path style="fill:#FFEEC8;" d="M505.04,605.23l3.94-36.73l-0.16-0.35l4.62-2.11l32.18-13.88c1.22,4.21,1.92,6.63,1.92,6.63
			c9.47,30.21,11.27,67.46,7.95,79.25c-1.94,6.979-10.96,16.83-19.48,15.83c-9.42-1.021-11.59-23.22-16.14-30.29
			c-7.12,1.479-3.47,11.87-8.73,11.87C506.58,630.9,505.04,618.36,505.04,605.23z"/>
		<path style="fill:#58B947;" d="M545.62,552.16l-32.18,13.88l-4.62,2.11L434.47,405.42l7.95,153.5l-3.229,0.17H217.36l-3.97-0.02
			c1.69-68.65,5.67-154.541,5.67-154.541l-72.97,159.72L110,550l-1.71-0.11c6.31-21.84,23.87-83.149,31.9-115.58
			c14.33-57.879,61.67-153.379,61.67-153.379c12.06-12.05,35.29-26.24,55.49-37.41c4.74-2.62,9.31-5.07,13.53-7.29l5.22,0.13
			c7.88,19.18,27.93,32.82,51.41,32.82c23.53,0,43.6-13.67,51.45-32.9l1.68-2.51c5.36,3,11.71,6.63,18.45,10.64
			c18.75,11.17,40.51,25.35,52.561,37.41c0,0,47.38,95.5,61.699,153.38C521.53,468.33,539.68,531.61,545.62,552.16z"/>
		<path style="fill:#FFEEC8;" d="M330.46,197.88c-0.07,0.02-0.14,0.03-0.22,0.04l0.58-0.03
			C330.7,197.89,330.58,197.89,330.46,197.88z M364.29,154.62c0-0.98,0.07-1.44-0.17-2.02l0.47-1c-2.1-1.03-4.39-1.6-6.85-1.55
			c-3.27,0.08-6.63,1.44-9.17,3.61l1.96,0.01c0.01,0.21,0.08,0.44,0.08,0.95c0,3.61,3.07,6.53,6.85,6.53
			C361.22,161.15,364.29,158.23,364.29,154.62z M293.87,224.62c-8.98-10.45-17.19-24.75-21.76-40.76
			c-2.41-8.38-3.81-17.24-3.81-26.25c0-2.99,0-8.22,0.04-13.27c0.03-2.83,0.07-5.61,0.12-7.9h-0.99
			c6.51-8.43,16.27-18.48,16.27-18.48c5.26-3.86,46.62-17.5,58.89-26.07c0.14,0.12,0.39,0.23,0.72,0.32
			c2.7,1.68,13.71,9.23,28.25,29.32c2.71,3.72,13.23,11.99,15.63,21.68c0.17,5.99,0.23,9.43,0.23,14.4c0,8.79-1.39,17.43-3.75,25.64
			c-4.71,16.46-13.31,31.17-22.37,41.77c-4.91,5.74-9.95,10.28-14.58,13.23c-6.47,3.12-11.4,2.67-18.88,2.67
			c-6.92,0-11.35,0.69-17.42-2C305.08,235.9,299.33,230.98,293.87,224.62z M309.89,153.95c-2.54-2.22-5.95-3.62-9.28-3.69
			c-2.5-0.06-4.83,0.54-6.96,1.58v0.01l0.53,1.12c-0.17,0.5-0.12,0.96-0.12,1.85c0,3.61,3.07,6.54,6.85,6.54
			C304.37,161.36,309.1,157.39,309.89,153.95z"/>
		<path style="fill:#231F20;" d="M722.25,352.66c13.97,0,25.29,14.46,25.29,32.29c0,17.84-11.32,32.29-25.29,32.29
			c-13.95,0-25.27-14.45-25.27-32.29C696.98,367.12,708.3,352.66,722.25,352.66z M736.61,384.95c0-11.53-6.42-20.89-14.36-20.89
			c-7.92,0-14.34,9.36-14.34,20.89c0,11.54,6.42,20.9,14.34,20.9C730.19,405.85,736.61,396.49,736.61,384.95z"/>
		<path style="fill:#34A047;" d="M722.25,364.06c7.94,0,14.36,9.36,14.36,20.89c0,11.54-6.42,20.9-14.36,20.9
			c-7.92,0-14.34-9.36-14.34-20.9C707.91,373.42,714.33,364.06,722.25,364.06z"/>
		<polygon style="fill:#34A047;" points="686.35,421.41 650.65,433.31 566.96,400.6 604.49,392.94 		"/>
		<path style="fill:#231F20;" d="M635.16,349.48c0,2.88-0.3,5.68-0.86,8.33c-2.87,13.79-12.72,23.96-24.42,23.96
			c-1.68,0-3.31-0.21-4.899-0.61l0.56-11.75c1.37,0.63,2.83,0.97,4.34,0.97c7.93,0,14.351-9.36,14.351-20.9
			s-6.421-20.89-14.351-20.89c-0.81,0-1.61,0.1-2.38,0.29l0.56-11.61c0.601-0.05,1.21-0.08,1.82-0.08
			C623.84,317.19,635.16,331.65,635.16,349.48z"/>
		<path style="fill:#34A047;" d="M609.88,328.59c7.93,0,14.351,9.35,14.351,20.89s-6.421,20.9-14.351,20.9
			c-1.51,0-2.97-0.34-4.34-0.97l1.96-40.53C608.27,328.69,609.07,328.59,609.88,328.59z"/>
		<path style="fill:#231F20;" d="M608.06,317.27l-0.56,11.61c-6.8,1.65-11.97,10.24-11.97,20.6c0,9.34,4.2,17.25,10.01,19.93
			l-0.56,11.75c-11.62-2.91-20.381-15.99-20.381-31.68C584.6,332.43,594.95,318.47,608.06,317.27z"/>
		<path style="fill:#797878;" d="M442.74,564.99l0.319-0.021c0.761,12.98,1.271,27.82,1.271,44.32c0,18.5-2.021,133.45-4.88,177.99
			l-93.17,1.63l-8.61-152.68l-17.81-0.091l-9.44,152.771l-92.72-5.82c-2.94-45.58-5.04-155.8-5.04-174.63
			c0-13.92,0.28-31.04,0.73-49.39l3.97,0.02H439.19l3.229-0.17L442.74,564.99z"/>
		<path style="fill:#9C5C25;" d="M343.35,92.21c-0.42-0.25-0.64-0.37-0.64-0.37c-0.03,0.02-0.05,0.04-0.08,0.05
			c-12.27,8.57-53.63,22.21-58.89,26.07c0,0-9.76,10.05-16.27,18.48c-2.17,2.81-3.98,5.44-4.95,7.46l-0.61-19.85
			c0-31.66,25.84-50.04,25.84-50.04c2.98-2.03,4.99-3.06,4.99-3.06c13.18-7.84,30.23-10.6,51.97-8.07
			c26.26,3.06,46.4,29.21,50.24,61.76c0.63,5.29-0.99,12.97-1.91,18.57c-1.84-0.29-3.53-0.12-5.03,0.43l-0.65,0.14
			c-0.04-0.19-0.08-0.38-0.13-0.57c-2.4-9.69-12.92-17.96-15.63-21.68C357.06,101.44,346.05,93.89,343.35,92.21z"/>
		<path style="fill:#FFEEC8;" d="M380.64,233.77l-1.68,2.51c-7.85,19.23-27.92,32.9-51.45,32.9c-23.48,0-43.53-13.64-51.41-32.82
			l-5.22-0.13c11.4-5.99,20.26-10.3,22.99-11.61c5.46,6.36,11.21,11.28,16.59,14.3c6.07,2.69,10.5,2,17.42,2
			c7.48,0,12.41,0.45,18.88-2.67c4.63-2.95,9.67-7.49,14.58-13.23l3.27,0.06C364.61,225.08,371.07,228.43,380.64,233.77z"/>
		<path style="fill:#FFFFFF;" d="M364.59,151.6l-0.47,1c0.24,0.58,0.17,1.04,0.17,2.02c0,3.61-3.07,6.53-6.83,6.53
			c-3.78,0-6.85-2.92-6.85-6.53c0-0.51-0.07-0.74-0.08-0.95l-1.96-0.01c2.54-2.17,5.9-3.53,9.17-3.61
			C360.2,150,362.49,150.57,364.59,151.6z M359.89,154.68c0-1.22-1.11-2.21-2.48-2.21c-1.36,0-2.46,0.99-2.46,2.21
			c0,1.21,1.1,2.2,2.46,2.2C358.78,156.88,359.89,155.89,359.89,154.68z"/>
		<path style="fill:#231F20;" d="M357.41,152.47c1.37,0,2.48,0.99,2.48,2.21c0,1.21-1.11,2.2-2.48,2.2c-1.36,0-2.46-0.99-2.46-2.2
			C354.95,153.46,356.05,152.47,357.41,152.47z"/>
		<path style="fill:#FFFFFF;" d="M300.61,150.26c3.33,0.07,6.74,1.47,9.28,3.69c-0.79,3.44-5.52,7.41-8.98,7.41
			c-3.78,0-6.85-2.93-6.85-6.54c0-0.89-0.05-1.35,0.12-1.85l-0.53-1.12v-0.01C295.78,150.8,298.11,150.2,300.61,150.26z
			 M303.35,154.7c0-1.23-1.1-2.21-2.46-2.21c-1.37,0-2.48,0.98-2.48,2.21c0,1.21,1.11,2.2,2.48,2.2
			C302.25,156.9,303.35,155.91,303.35,154.7z"/>
		<path style="fill:#231F20;" d="M300.89,152.49c1.36,0,2.46,0.98,2.46,2.21c0,1.21-1.1,2.2-2.46,2.2c-1.37,0-2.48-0.99-2.48-2.2
			C298.41,153.47,299.52,152.49,300.89,152.49z"/>
		<path style="fill:#FFEEC8;" d="M146.09,564.25l-1.53,3.35c1.8,4.931,3.93,21.21,3.93,36.69c0,13.15-1.54,25.71-6.1,30.27
			c-5.24,0-1.61-10.409-8.76-11.859c-4.53,7.06-6.69,29.25-16.11,30.29c-8.5,1.01-17.53-8.88-19.48-15.83
			c-3.32-11.82-1.54-49.04,7.94-79.28c0,0,0.86-2.939,2.31-7.99L110,550L146.09,564.25z"/>
	</g>
	<g>
		<path style="fill:none;stroke:#231F20;stroke-width:14;" d="M105.98,557.88c0,0,0.86-2.939,2.31-7.99
			c6.31-21.84,23.87-83.149,31.9-115.58c14.33-57.879,61.67-153.379,61.67-153.379c12.06-12.05,35.29-26.24,55.49-37.41
			c4.74-2.62,9.31-5.07,13.53-7.29c11.4-5.99,20.26-10.3,22.99-11.61c0.58-0.28,0.88-0.42,0.88-0.42"/>
		<path style="fill:none;stroke:#231F20;stroke-width:14;" d="M217.7,783.09c-2.94-45.58-5.04-155.8-5.04-174.63
			c0-13.92,0.28-31.04,0.73-49.39c1.69-68.65,5.67-154.541,5.67-154.541l-72.97,159.72l-1.53,3.35c1.8,4.931,3.93,21.21,3.93,36.69
			c0,13.15-1.54,25.71-6.1,30.27c-5.24,0-1.61-10.409-8.76-11.859c-4.53,7.06-6.69,29.25-16.11,30.29
			c-8.5,1.01-17.53-8.88-19.48-15.83c-3.32-11.82-1.54-49.04,7.94-79.28"/>
		<path style="fill:none;stroke:#231F20;stroke-width:14;" d="M547.54,558.79c0,0-0.7-2.42-1.92-6.63
			c-5.94-20.55-24.09-83.83-32.271-116.96c-14.319-57.88-61.699-153.38-61.699-153.38c-12.051-12.06-33.811-26.24-52.561-37.41
			c-6.74-4.01-13.09-7.64-18.45-10.64c-9.57-5.34-16.03-8.69-16.03-8.69"/>
		<path style="fill:none;stroke:#231F20;stroke-width:14;" d="M442.97,569.45l-0.229-4.46l-0.32-6.07l-7.95-153.5l74.351,162.73
			l0.16,0.35l-3.94,36.73c0,13.13,1.54,25.67,6.1,30.22c5.261,0,1.61-10.391,8.73-11.87c4.55,7.07,6.72,29.27,16.14,30.29
			c8.521,1,17.54-8.851,19.48-15.83c3.319-11.79,1.52-49.04-7.95-79.25"/>
		<path style="fill:none;stroke:#231F20;stroke-width:14;" d="M439.45,787.28c2.859-44.54,4.88-159.49,4.88-177.99
			c0-16.5-0.51-31.34-1.271-44.32"/>
		<polyline style="fill:none;stroke:#231F20;stroke-width:14;" points="346.28,788.91 337.67,636.23 319.86,636.14 310.42,788.91 		
			"/>
		<line style="fill:none;stroke:#231F20;stroke-width:14;" x1="217.36" y1="559.09" x2="439.19" y2="559.09"/>
		<path style="fill:none;stroke:#231F20;stroke-width:6.4967;stroke-linecap:square;stroke-miterlimit:10;" d="M286.42,157.76
			c2.02-2.44,4.45-4.56,7.23-5.91v-0.01c2.13-1.04,4.46-1.64,6.96-1.58c3.33,0.07,6.74,1.47,9.28,3.69c1.1,0.97,2.04,2.09,2.74,3.32
			"/>
		<path style="fill:none;stroke:#231F20;stroke-width:3.2483;stroke-linecap:square;stroke-miterlimit:10;" d="M310,153
			c0,0.31-0.04,0.63-0.11,0.95c-0.79,3.44-5.52,7.41-8.98,7.41c-3.78,0-6.85-2.93-6.85-6.54c0-0.89-0.05-1.35,0.12-1.85"/>
		<path style="fill:none;stroke:#231F20;stroke-width:6.4967;stroke-linecap:square;stroke-miterlimit:10;" d="M371.94,157.56
			c-2.05-2.48-4.53-4.62-7.35-5.96c-2.1-1.03-4.39-1.6-6.85-1.55c-3.27,0.08-6.63,1.44-9.17,3.61c-1.14,0.98-2.12,2.14-2.84,3.41"/>
		<path style="fill:none;stroke:#231F20;stroke-width:3.2483;stroke-linecap:square;stroke-miterlimit:10;" d="M350.53,153.67
			c0.01,0.21,0.08,0.44,0.08,0.95c0,3.61,3.07,6.53,6.85,6.53c3.76,0,6.83-2.92,6.83-6.53c0-0.98,0.07-1.44-0.17-2.02"/>
		<path style="fill:none;stroke:#231F20;stroke-width:7;" d="M267.55,144.33c-1.51-0.54-3.2-0.72-5.03-0.43
			c-7.01,1.13-6.06,8.98-4.14,12.91c4.68,9.55,2.54,13.05,3.14,20.34c0.22,2.77,3.38,8.15,9.97,6.89"/>
		<path style="fill:none;stroke:#231F20;stroke-width:7;" d="M388.01,143.64c1.5-0.55,3.19-0.72,5.03-0.43
			c7.01,1.12,6.06,8.98,4.14,12.91c-4.68,9.54-2.55,13.05-3.14,20.34c-0.22,2.76-3.38,8.15-9.98,6.89"/>
		<path style="fill:none;stroke:#231F20;stroke-width:6.4967;" d="M313.91,215.26c8.61,3.44,22.27,3.03,29.59-0.16"/>
		<path style="fill:none;stroke:#231F20;stroke-width:14;" d="M387.21,142.47c0.01,0.25,0.01,0.5,0.02,0.74
			c0.17,5.99,0.23,9.43,0.23,14.4c0,8.79-1.39,17.43-3.75,25.64c-4.71,16.46-13.31,31.17-22.37,41.77
			c-4.91,5.74-9.95,10.28-14.58,13.23c-6.47,3.12-11.4,2.67-18.88,2.67c-6.92,0-11.35,0.69-17.42-2
			c-5.38-3.02-11.13-7.94-16.59-14.3c-8.98-10.45-17.19-24.75-21.76-40.76c-2.41-8.38-3.81-17.24-3.81-26.25
			c0-2.99,0-8.22,0.04-13.27c0.03-2.83,0.07-5.61,0.12-7.9"/>
		<path style="fill:none;stroke:#231F20;stroke-width:6.4967;" d="M330.46,197.88c3.31-0.59,2.71-2.53,6.22-1.69
			c3.02,0.73,6.22,2.24,6.97-2.48c0.52-3.24-1.92-3.67-3.22-6.28"/>
		<path style="fill:none;stroke:#231F20;stroke-width:6.4967;" d="M330.46,197.88c0.12,0.01,0.24,0.01,0.36,0.01l-0.58,0.03
			C330.32,197.91,330.39,197.9,330.46,197.88z"/>
		<path style="fill:none;stroke:#231F20;stroke-width:6.4967;" d="M320.31,157.4c5.4,5.95,3.76,19.9,1.34,27.16l-1.02,2.84
			c-1.29,2.61-3.73,3.02-3.21,6.28c0.75,4.71,3.95,3.21,6.97,2.48c3.46-0.84,2.69,1.56,6.07,1.72"/>
		<path style="fill:none;stroke:#231F20;stroke-width:3.2483;" d="M303.35,154.7c0,1.21-1.1,2.2-2.46,2.2
			c-1.37,0-2.48-0.99-2.48-2.2c0-1.23,1.11-2.21,2.48-2.21C302.25,152.49,303.35,153.47,303.35,154.7z"/>
		<path style="fill:none;stroke:#231F20;stroke-width:3.2483;" d="M359.89,154.68c0,1.21-1.11,2.2-2.48,2.2
			c-1.36,0-2.46-0.99-2.46-2.2c0-1.22,1.1-2.21,2.46-2.21C358.78,152.47,359.89,153.46,359.89,154.68z"/>
		<path style="fill:none;stroke:#231F20;stroke-width:6.4967;" d="M316.72,146.5c-2.92-6.15-14.35-8.54-20.13-7.39
			c-5.43,1.08-8.13,1.74-13.8,6.13"/>
		<path style="fill:none;stroke:#231F20;stroke-width:6.4967;" d="M340.39,145.16c2.92-6.15,14.34-8.55,20.12-7.39
			c5.44,1.08,8.14,1.73,13.8,6.13"/>
		<path style="fill:none;stroke:#231F20;stroke-width:14;" d="M393.04,143.21c0.92-5.6,2.54-13.28,1.91-18.57
			c-3.84-32.55-23.98-58.7-50.24-61.76c-21.74-2.53-38.79,0.23-51.97,8.07c0,0-2.01,1.03-4.99,3.06c0,0-25.84,18.38-25.84,50.04
			l0.61,19.85c0.97-2.02,2.78-4.65,4.95-7.46c6.51-8.43,16.27-18.48,16.27-18.48c5.26-3.86,46.62-17.5,58.89-26.07
			c0.03-0.01,0.05-0.03,0.08-0.05c0,0,0.22,0.12,0.64,0.37c2.7,1.68,13.71,9.23,28.25,29.32c2.71,3.72,13.23,11.99,15.63,21.68
			c0.05,0.19,0.09,0.38,0.13,0.57c0.18,0.84,0.3,1.68,0.34,2.53"/>
		<path style="fill:none;stroke:#231F20;stroke-width:14;" d="M347.49,92.75c-0.61,0.01-2.89-0.17-4.14-0.54
			c-0.33-0.09-0.58-0.2-0.72-0.32c-0.05-0.04-0.08-0.08-0.1-0.13c3.75-3.66,6.72-9.63,6.72-15.69"/>
		<polyline style="fill:none;stroke:#231F20;stroke-width:14;" points="110,550 146.09,564.25 148.19,565.08 		"/>
		<polyline style="fill:none;stroke:#231F20;stroke-width:14;" points="546,552 545.62,552.16 513.44,566.04 		"/>
		<path style="fill:none;stroke:#231F20;stroke-width:14;" d="M378.96,236.28c-7.85,19.23-27.92,32.9-51.45,32.9
			c-23.48,0-43.53-13.64-51.41-32.82"/>
		<path style="fill:none;stroke:#231F20;stroke-width:21;" d="M604.49,391.24l0.49-10.08l0.56-11.75l1.96-40.53l0.56-11.61
			l1.311-27.25l5.25-108.81l1.77-36.67c0,0,16.66-48.38,29.73-61.46c12.47-12.47,39.6-17.51,54.67-5.95
			c14.97,11.48,16.43,35.12,11.05,54.95c-5.38,19.82-8.78,30.02-8.78,30.02l-2.069,42.53L695.72,313l-0.819,16.72l-2.261,46.44
			l-2.12,43.62"/>
		<polyline style="fill:none;stroke:#231F20;stroke-width:14;" points="614.38,181.14 614.62,181.21 700.35,204.6 		"/>
		<polyline style="fill:none;stroke:#231F20;stroke-width:14;" points="607.15,289.41 609.37,290.02 693.12,312.87 		"/>
		<path style="fill:none;stroke:#231F20;stroke-width:14;" d="M747.54,384.95c0,17.84-11.32,32.29-25.29,32.29
			c-13.95,0-25.27-14.45-25.27-32.29c0-17.83,11.319-32.29,25.27-32.29C736.22,352.66,747.54,367.12,747.54,384.95z"/>
		<path style="fill:none;stroke:#231F20;stroke-width:7;" d="M736.61,384.95c0,11.54-6.42,20.9-14.36,20.9
			c-7.92,0-14.34-9.36-14.34-20.9c0-11.53,6.42-20.89,14.34-20.89C730.19,364.06,736.61,373.42,736.61,384.95z"/>
		<path style="fill:none;stroke:#231F20;stroke-width:14;" d="M608.06,317.27c0.601-0.05,1.21-0.08,1.82-0.08
			c13.96,0,25.28,14.46,25.28,32.29c0,2.88-0.3,5.68-0.86,8.33c-2.87,13.79-12.72,23.96-24.42,23.96c-1.68,0-3.31-0.21-4.899-0.61
			c-11.62-2.91-20.381-15.99-20.381-31.68C584.6,332.43,594.95,318.47,608.06,317.27z"/>
		<path style="fill:none;stroke:#231F20;stroke-width:7;" d="M607.5,328.88c0.77-0.19,1.57-0.29,2.38-0.29
			c7.93,0,14.351,9.35,14.351,20.89s-6.421,20.9-14.351,20.9c-1.51,0-2.97-0.34-4.34-0.97c-5.81-2.68-10.01-10.59-10.01-19.93
			C595.53,339.12,600.7,330.53,607.5,328.88z"/>
		<polygon style="fill:none;stroke:#231F20;stroke-width:14;" points="604.49,392.94 686.35,421.41 650.65,433.31 566.96,400.6 		
			"/>
		<polyline style="fill:none;stroke:#231F20;stroke-width:14;" points="638.08,358.65 674.1,370.21 692.64,376.16 694.84,376.86 		
			"/>
		<line style="fill:none;stroke:#231F20;stroke-width:12.9934;" x1="674.1" y1="370.21" x2="694.9" y2="329.72"/>
	</g>
</g>
<rect style="fill:none;" width="850.394" height="850.394"/>
</svg>
