<svg id="Layer_1" xmlns="http://www.w3.org/2000/svg" viewBox="0 0 850 850"><style>.st0{fill:#ffeec8}.st1{fill:#c8c8c8}.st2{fill:#231f20}.st3{fill:#797878}.st4{fill:#a8d7f4}.st5{fill:none;stroke:#231f20;stroke-width:21;stroke-linecap:round;stroke-miterlimit:10}</style><path class="st0" d="M466 153.8l-.2 3-.5 3-.5 2.7-.8 2.8-.7 2.7-1 2.8-1.3 2.5-1.2 2.5-1.5 2.5-1.5 2.2-1.8 2-1.7 2-2 2-2.3 1.8-2.2 1.7-2.3 1.3-3.5 1.7-2.7 1-2.5 1-2.8.5-2.5.5-2.7.3h-5.5l-3-.3-3.3-.5-3.2-.7-3.3-1-3.2-1.3-3.3-1.2-3-1.8-3.2-1.7-3-2-3-2.3-2.8-2.5-2.7-2.7-2.8-2.8-2.5-3-2.5-3.2-2.2-3.3-2-3.7-2.8-5.5-2.2-5.5-2-5.5-1.3-5.8-.7-5.5-.3-5.5v-5.2l.8-5.3 1-5.2 1.5-4.8 2-4.5 2.2-4.2 3-4 3.3-3.5 1.7-1.5 2-1.5 2-1.5 2-1.3 2.3-1.2 2.2-1 2.3-.8 2.2-.7 4.8-1 4.7-.3 5 .3 5 .5 4.8 1.2 5 1.8 4.7 2.2 4.8 2.8 4.5 3L442 97l4 4 4 4.5 3.5 4.8 3.3 5.2 2.5 4.8 2 4.7 1.7 4.8 1.3 5 1 4.7.5 4.8.2 4.7zM345.5 374.3l24.5 38.2-22.2 22.3-1 2.7-30.8-11.7 8.3-29.3z"/><path class="st1" d="M241.8 640.8l46.2 18-4.2 10-4.5 9.7-4.8 9-5 8.8-5.5 8-5.2 7.2-5.8 6.8-5.5 6-5.7 5-2.8 2.5-3 2-2.7 1.7-2.8 1.8-2.7 1.5-2.8 1.2-2.7 1-2.8.8-2.7.5-2.5.2h-2.8l-2.2-.2-2.5-.5-2.5-.8-2.3-1-2-1.2-2-1.5-2-1.8-1.7-2-1.5-2.2-1.5-2.3-1.5-2.5-1.3-2.7-1-3-1-3.3-.7-3.2-.8-3.5-.5-3.5-.7-7.8-.3-8.2.5-8.8 1-9 1.3-9.5 2.2-9.7 2.5-10 3.3-10 3.5-10.5z"/><path class="st2" d="M512.5 689.5l3.5.5 3.3.5-25.8 6.3-12.5 3-11.5 2.7-10.5 2-4.7 1-4.3.5-3.7.3h-3l-2.8-.3-2-.5-2-1-1.7-1.5-1.3-1.5-.7-1.7-.3-1.8v-2.2l.5-2 .8-2 1.2-2.3 1.5-2.2 1.8-2 2.2-2 2.5-2 2.8-1.8 3-1.7 3.2-1.3 3.5-1.5 3-1.5 5.8-3 4.7-3 4-3 3-2.5 2.3-2 1.7-2 2.3-1.5 2.2 4.8 2.8 5 3.2 5.2 3.8 5 2 2.5 2 2 2.2 2.3 2.3 1.7 2.2 1.5 2.5 1.5 2.5 1zM622 720.3l-1.2 4.7-1.8 5-2 5-3 5.3-8.5 9.7-4 4-3.5 3.5-3.5 3-3 2.5-3 2-3 1.8-2.7 1.5-3 1-2.8.7-2.7.3-3 .2h-3l-6.5-.2-3.5-.5-3.3-.5-3-.8-2.7-1-2.3-1.2-2-1.3-1.7-1.5-1.3-1.5-1-1.7-.7-2v-2l.2-2.3.5-2.2 1.3-2.5 1.5-2.5 2-2.8 3.7-4.7 3-4.3 1.8-4 1.2-3.5 2.8-2.7 3.2-3 2-1.5 2.3-1.5 2.2-1.3 2.3-1.2 2.5-.8 2.5-.5h2.5l2.5.3 2.5 1 2.2 1.5 2.5 2.2 2.3 3 2.2 3 2.5 2.8 2.3 1.7 2.5 1.3 2.2.7 2.3.3h2.2l2-.8 2.3-.7 2-1.3 1.7-1.2 2-1.8 3.3-3.2z"/><path class="st3" d="M557.8 363.3l1.2 3.7-7.7 52.5-6 39.3-3.8 24-.2 3.5v6l.5 8.5.5 10.2 1.7 25.3 2.5 30 5.3 63.5 2.5 29.2 1.7 24.3-2.5.2-7.7 1.3-8.5 1.5-9 2-9 2.2-3.3-.5-3.5-.5-2.5-.5-2.5-1-2.5-1.5-2.2-1.5-2.3-1.7-2.2-2.3-2-2-2-2.5-3.8-5-3.2-5.2-2.8-5-2.2-4.8-3-6.5-1-2.5 2.7-141.2L536 371l.8-.5z"/><path class="st3" d="M664 345l.3 7-.3 7.3-.7 8-1 8.2-1.8 9-2 9.3-2.5 10-3.2 10.5-4.8 15.5-4.2 12.2-6.3 19-2.5 8.3-2 8-1.5 9-1.5 10.5-.7 7-.5 9.5-1.3 25.2-1 30.3-.7 32.5-1.5 60.2-.5 33.3v12.5l-.8 6.5-.2 3.2-.8 3.3-2.7 3.5-3.3 3.2-2 1.8-1.7 1.2-2 1.3-2.3.7-2 .8h-2.2l-2.3-.3-2.2-.7-2.5-1.3-2.3-1.7-2.5-2.8-2.2-3-2.3-3-2.5-2.2-2.2-1.5-2.5-1-2.5-.3h-2.5l-2.5.5-2.5.8-2.3 1.2-2.2 1.3-2.3 1.5-2 1.5-3.2 3-2.8 2.7 1-4.2.3-4.5.5-11.8v-3.2l-.3-5.3-1-15.2-1.7-24.3-2.5-29.2-5.3-63.5-2.5-30-1.7-25.3-.5-10.2-.5-8.5v-6l.2-3.5 3.8-24 6-39.3L559 367l-1.2-3.7 32-11.3 2.2-.7 6-2.5 9.3-2.8 5.2-1.5 5.8-1.5 5.7-1.2 6.3-1 6-.8 6-.2 5.7.5 2.8.2 2.5.5 2.5.8 2.5 1 2.2 1 2 1.2z"/><path class="st4" d="M441 193l3.8.5-2.8 28.8-2 18-2.2 18.5-2.8 17.5-1.2 7.7-1.5 7.3-1.5 6-1.3 5-1.5 3.7-.7 1-.8 1-10.2 8.3L404 326l-27 21-33 25 54.3-88.7 21-87.3 3 .3h5.5l2.7-.3 2.5-.5 2.8-.5 2.5-1z"/><path class="st4" d="M345.5 374.3L344 372l33-25 27-21 12.3-9.7 10.2-8.3.8-1 .7-1 1.5-3.7 1.3-5 1.5-6 1.5-7.3 1.2-7.7 2.8-17.5 2.2-18.5 2-18 2.8-28.8-3.8-.5 3.5-1.7 2.3-1.3 2.2-1.7 2.3-1.8 2-2 1.7-2 1.8-2 1.5-2.2 1.5-2.5 1.2-2.5 1.3-2.5 1-2.8.7-2.7.8-2.8.5-2.7.5-3 .2-3 11.5 5.7L499 170l22.8 11.8 9.5 5.2 6.7 3.8 3.5 2.7 5.3 4.5 6.5 6 7.7 7.3 18 18 20 20.5 19.5 21 9.3 10 8.2 9.5 7.5 8.7 6 7.8 4.8 6.2 1.7 2.8 1.3 2 1.2 3 1.3 3.2 1.2 3 .8 3.5.7 3.3.8 3.7.5 3.5.2 4h-1.5l-2-1.2-2.2-1-2.5-1-2.5-.8-2.5-.5-2.8-.2-5.7-.5-6 .2-6 .8-6.3 1-5.7 1.2-5.8 1.5-5.2 1.5-9.3 2.8-6 2.5-2.2.7-32 11.3-21 7.2.5-.5.2-.7v-.8l-.2-.7-.3-.8-.7-1-2-1.7-3.5-2.3-4.5-2.5-4-2-5-3-12.3-8.2-12.5-8.8-11-8-.7-.2-3.8 8.2-10 7.5-25.2 18.5-16.3 11.8-18 12.5-19 12.7-18.5 12z"/><path class="st5" d="M346.8 437.5l12.7 5-1.7 4-2 3.5-2.3 3.5-2.5 3.3-2.5 2.7-3 2.5-3 2.3-3.2 2-3.3 1.7-3.2 1.3-3.5.7-3.5.5-3.5.3-3.5-.3-3.5-.7-3.3-1-3.2-1.5-3-1.8-2.8-2.2-2.5-2.5-2.2-2.8-2-3-1.5-3-1.5-3.5-1-3.5-.8-3.7-.2-4v-3.8l.2-4 .5-4 1-4.2 1.5-4 21.5 8.5zM288 658.8l-4.2 10-4.5 9.7-4.8 9-5 8.8-5.5 8-5.2 7.2-5.8 6.8-5.5 6-5.7 5-2.8 2.5-3 2-2.7 1.7-2.8 1.8-2.7 1.5-2.8 1.2-2.7 1-2.8.8-2.7.5-2.5.2h-2.8l-2.2-.2-2.5-.5-2.5-.8-2.3-1-2-1.2-2-1.5-2-1.8-1.7-2-1.5-2.2-1.5-2.3-1.5-2.5-1.3-2.7-1-3-1-3.3-.7-3.2-.8-3.5-.5-3.5-.7-7.8-.3-8.2.5-8.8 1-9 1.3-9.5 2.2-9.7 2.5-10 3.3-10 3.5-10.5 44 17z"/><path class="st5" d="M308.3 469.3l-66.5 171.5-1 3M419.3 196l-3.3-.5-3.2-.7-3.3-1-3.2-1.3-3.3-1.2-3-1.8-3.2-1.7-3-2-3-2.3-2.8-2.5-2.7-2.7-2.8-2.8-2.5-3-2.5-3.2-2.2-3.3-2-3.7-2.8-5.5-2.2-5.5-2-5.5-1.3-5.8-.7-5.5-.3-5.5v-5.2l.8-5.3 1-5.2 1.5-4.8 2-4.5 2.2-4.2 3-4 3.3-3.5 1.7-1.5 2-1.5 2-1.5 2-1.3 2.3-1.2 2.2-1 2.3-.8 2.2-.7 4.8-1 4.7-.3 5 .3 5 .5 4.8 1.2 5 1.8 4.7 2.2 4.8 2.8 4.5 3L442 97l4 4 4 4.5 3.5 4.8 3.3 5.2 2.5 4.8 2 4.7 1.7 4.8 1.3 5 1 4.7.5 4.8.2 4.7v4.8l-.2 3-.5 3-.5 2.7-.8 2.8-.7 2.7-1 2.8-1.3 2.5-1.2 2.5-1.5 2.5-1.5 2.2-1.8 2-1.7 2-2 2-2.3 1.8-2.2 1.7-2.3 1.3-3.5 1.7-2.7 1-2.5 1-2.8.5-2.5.5-2.7.3h-5.5z"/><path class="st5" d="M465.5 153.5l.5.3 11.5 5.7L499 170l22.8 11.8 9.5 5.2 6.7 3.8 3.5 2.7 5.3 4.5 6.5 6 7.7 7.3 18 18 20 20.5 19.5 21 9.3 10 8.2 9.5 7.5 8.7 6 7.8 4.8 6.2 1.7 2.8 1.3 2 1.2 3 1.3 3.2 1.2 3 .8 3.5.7 3.3.8 3.7.5 3.5.2 4 .3 7-.3 7.3-.7 8-1 8.2-1.8 9-2 9.3-2.5 10-3.2 10.5-4.8 15.5-4.2 12.2-6.3 19-2.5 8.3-2 8-1.5 9-1.5 10.5-.7 7-.5 9.5-1.3 25.2-1 30.3-.7 32.5-1.5 60.2-.5 33.3v12.5l-.8 6.5-.2 3.2-.8 3.3-1.2 4.7-1.8 5-2 5-3 5.3-2.5 3.7"/><path class="st5" d="M481.5 329.5l11 8 12.5 8.8 12.3 8.2 5 3 4 2 4.5 2.5 3.5 2.3 2 1.7.7 1 .3.8.2.7v.8l-.2.7-.5.5-.8.5-2.2 1-2 .8-2.5.2 6.7-2.2.8-.3 21-7.2 32-11.3 2.2-.7 6-2.5 9.3-2.8 5.2-1.5 5.8-1.5 5.7-1.2 6.3-1 6-.8 6-.2 5.7.5 2.8.2 2.5.5 2.5.8 2.5 1 2.2 1 2 1.2"/><path class="st5" d="M559 367l-7.7 52.5-6 39.3-3.8 24-.2 3.5v6l.5 8.5.5 10.2 1.7 25.3 2.5 30 5.3 63.5 2.5 29.2 1.7 24.3 1 15.2.3 5.3v3.2l-.5 11.8-.3 4.5-1 4.2-1.2 3.5-1.8 4-3 4.3-3.7 4.7-2 2.8-1.5 2.5-1.3 2.5-.5 2.2-.2 2.3v2l.7 2 1 1.7 1.3 1.5 1.7 1.5 2 1.3 2.3 1.2 2.7 1 3 .8 3.3.5 3.5.5 6.5.2h3l3-.2 2.7-.3 2.8-.7 3-1 2.7-1.5 3-1.8 3-2 3-2.5 3.5-3 3.5-3.5 4-4 8.5-9.7 2.8-3.3"/><path class="st5" d="M553.8 729.5l1.7-2 2.8-2.7 3.2-3 2-1.5 2.3-1.5 2.2-1.3 2.3-1.2 2.5-.8 2.5-.5h2.5l2.5.3 2.5 1 2.2 1.5 2.5 2.2 2.3 3 2.2 3 2.5 2.8 2.3 1.7 2.5 1.3 2.2.7 2.3.3h2.2l2-.8 2.3-.7 2-1.3 1.7-1.2 2-1.8 3.3-3.2 2.7-3.5 1.8-2.8M538 366l-.7 1.8-1.3 3v.2l-55 135.3-2.7 141.2 1 2.5 3 6.5 2.2 4.8 2.8 5 3.2 5.2 3.8 5 2 2.5 2 2 2.2 2.3 2.3 1.7 2.2 1.5 2.5 1.5 2.5 1 2.5.5 3.5.5 3.3.5 6.2.3 5.5-.3 5.3-.5 4.5-.7 3.5-.8 2.7-.7 2.3-.8"/><path class="st5" d="M480 658l-1.7 2-2.3 2-3 2.5-4 3-4.7 3-5.8 3-3 1.5-3.5 1.5-3.2 1.3-3 1.7-2.8 1.8-2.5 2-2.2 2-1.8 2-1.5 2.2-1.2 2.3-.8 2-.5 2v2.2l.3 1.8.7 1.7 1.3 1.5 1.7 1.5 2 1 2 .5 2.8.3h3l3.7-.3 4.3-.5 4.7-1 10.5-2 11.5-2.7 12.5-3 25.8-6.3 9-2.2 9-2 8.5-1.5 7.7-1.3M419.5 195.5l-.2.5-21 87.3L344 372"/><path class="st5" d="M517.5 231.8l-.7 4.5-1.3 5.2-1.5 5.8-2 6.2-2.2 6.8-2.5 6.7-5.5 14.3-5.8 14-5.7 13.2-9.5 20.8-3.8 8.2-10 7.5-25.2 18.5-16.3 11.8-18 12.5-19 12.7-18.5 12-24.5-38.2-1.5-2.3 33-25 27-21 12.3-9.7 10.2-8.3.8-1 .7-1 1.5-3.7 1.3-5 1.5-6 1.5-7.3 1.2-7.7 2.8-17.5 2.2-18.5 2-18 2.8-28.8"/><path class="st5" d="M314.5 431l1.5-5.2 8.3-29.3 21.2-22.2 3.5-3.5M347.8 434.8l22.2-22.3"/></svg>