<svg xmlns="http://www.w3.org/2000/svg" width="850.394" height="850.394" viewBox="0 0 850.394 850.394" overflow="visible"><path d="M693.13 375.85l-10.689-6.17s5.59-10.54 8.239-17.35c.9-2.36 14.75 26.77 14.75 26.77l-2.46 2.44-9.84-5.69zM567.96 131.71c-12.04-4.15-20.69-15.58-20.69-29.04 0-16.96 13.75-30.7 30.7-30.7 16.971 0 30.721 13.74 30.721 30.7 0 16.97-13.75 30.71-30.721 30.71-3.5 0-6.87-.59-10.01-1.67zM538.45 226.04c-3.28-5.25-6.25-10.59-6.25-10.59s5.51-4.36 12.689-6.63c3.4-1.08 5.71-1.08 5.71-1.08v25.78s-3.39 2.33-4.05 2.57c-1.189.45-4.799-4.76-8.099-10.05z" fill="#231f20"/><path d="M425.85 154.41v1.97c0 9.32-7.55 16.87-16.87 16.87H88.59c-9.31 0-16.87-7.55-16.87-16.87v-1.97c0-9.31 7.56-16.87 16.87-16.87h320.39c9.32 0 16.87 7.56 16.87 16.87zM338.75 208.66c0-6.48-5.56-11.72-12.42-11.72-6.85 0-12.4 5.24-12.4 11.72 0 6.47 5.55 11.72 12.4 11.72 6.86 0 12.42-5.25 12.42-11.72zm72.22-30.44v153.74c0 9.31-7.56 16.87-16.87 16.87H105.46c-9.32 0-16.87-7.56-16.87-16.87V173.25h320.39l1.99 4.97zM174.99 592.97c-22-12.399-41.83-30.439-51.35-55.83-21.37-56.97 21.31-137.04 21.31-137.04h14.71v3.27c-5.35 10.65-34.48 72.14-17.64 117.06 18.53 49.41 82.2 66.67 110.9 68.63l1.99-.06c28.95-2.1 93.15-19.19 111.58-68.32 18.5-49.34-18.46-118.66-18.46-118.66v-1.67l13.53.04s42.69 80.08 21.32 137.05c-10.64 28.359-34.49 47.489-59.87 59.819-25.38 12.34-52.27 17.88-68.99 19.101l-2.3.06c-18.41-1.25-49.26-7.96-76.73-23.45z" fill="#fff"/><path d="M348.03 402.02s36.96 69.32 18.46 118.66c-18.43 49.13-82.63 66.22-111.58 68.32l-1.99.06c-28.7-1.96-92.37-19.22-110.9-68.63-16.84-44.92 12.29-106.41 17.64-117.06v-3.27h93.41l22.71.06 72.25.19v1.67z" fill="#a8d7f4"/><path d="M338.75 208.66c0 6.47-5.56 11.72-12.42 11.72-6.85 0-12.4-5.25-12.4-11.72 0-6.48 5.55-11.72 12.4-11.72 6.86 0 12.42 5.24 12.42 11.72z" fill="#c8c8c8"/><path d="M323.01 597.26l5.12 1.79c-3.93 11.48-29.39 92.59-18.14 121.5 17.8 45.78-30.52 58.48-58.49 58.48l.4-.03c-27.97 0-76.29-12.71-58.49-58.48 9.8-25.22-16.65-121.21-18.42-127.55 27.47 15.49 58.32 22.2 76.73 23.45l2.3-.06c16.72-1.22 43.61-6.76 68.99-19.1z" fill="#fff"/><g fill="none" stroke="#231f20"><path d="M88.59 173.25c-9.31 0-16.87-7.55-16.87-16.87v-1.97c0-9.31 7.56-16.87 16.87-16.87h320.39c9.32 0 16.87 7.56 16.87 16.87v1.97c0 9.32-7.55 16.87-16.87 16.87H88.59zM410.97 178.22v153.74c0 9.31-7.56 16.87-16.87 16.87H105.46c-9.32 0-16.87-7.56-16.87-16.87V178.22M228.9 394.2L226 350M276 352l-.22 47.37" stroke-width="21"/><path d="M159.66 403.37c-5.35 10.65-34.48 72.14-17.64 117.06 18.53 49.41 82.2 66.67 110.9 68.63l1.99-.06c28.95-2.1 93.15-19.19 111.58-68.32 18.5-49.34-18.46-118.66-18.46-118.66" stroke-width="14"/><path d="M174.99 592.97c27.47 15.49 58.32 22.2 76.73 23.45l2.3-.06c16.72-1.221 43.61-6.761 68.99-19.101 25.38-12.33 49.23-31.46 59.87-59.819 21.37-56.971-21.32-137.05-21.32-137.05l-13.53-.04-72.25-.19-22.71-.06H144.95s-42.68 80.07-21.31 137.04c9.52 25.39 29.35 43.43 51.35 55.83z" stroke-width="21"/><path d="M328.5 598.19c.09-.301.13-.46.13-.5v.01c-.02-.01-.2.46-.5 1.35-3.93 11.48-29.39 92.59-18.14 121.5 17.8 45.78-30.52 58.48-58.49 58.48l.4-.03c-27.97 0-76.29-12.71-58.49-58.48 9.8-25.22-16.65-121.21-18.42-127.55l-.09-.33" stroke-width="21"/><path d="M338.75 208.66c0 6.47-5.56 11.72-12.42 11.72-6.85 0-12.4-5.25-12.4-11.72 0-6.48 5.55-11.72 12.4-11.72 6.86 0 12.42 5.24 12.42 11.72zM338.75 208.66h51.08" stroke-width="14"/><path d="M608.69 102.67c0 16.97-13.75 30.71-30.721 30.71-3.5 0-6.87-.59-10.01-1.67-12.04-4.15-20.69-15.58-20.69-29.04 0-16.96 13.75-30.7 30.7-30.7 16.971 0 30.721 13.74 30.721 30.7z" stroke-width="13.298"/><path stroke-width="28" d="M567.96 126.92v146.76h120.9l42.02 109.26 47.84-16.16M571.83 218.07h90.51"/><path d="M693.13 375.85c-19.43 31.42-54.18 52.34-93.82 52.34-60.88 0-110.229-49.351-110.229-110.23 0-38.37 19.61-72.17 49.37-91.92" stroke-width="28"/><path d="M532.2 215.45s5.51-4.36 12.689-6.63c3.4-1.08 5.71-1.08 5.71-1.08v25.78s-3.39 2.33-4.05 2.57c-1.189.45-4.8-4.76-8.1-10.05-3.279-5.25-6.249-10.59-6.249-10.59zM705.43 379.1s-13.85-29.13-14.75-26.77c-2.649 6.81-8.239 17.35-8.239 17.35l10.689 6.17 9.84 5.69 2.46-2.44z" stroke-width="1.662"/></g><path fill="none" d="M0 0h850.394v850.394H0z"/></svg>