<svg xmlns="http://www.w3.org/2000/svg" width="850.394" height="850.394" viewBox="0 0 850.394 850.394" overflow="visible"><path d="M379.229 127.464c0 33.476-27.135 60.611-60.611 60.611-33.483 0-60.618-27.135-60.618-60.611 0-33.483 27.135-60.618 60.618-60.618 33.476 0 60.611 27.135 60.611 60.618z" stroke="#000" stroke-width="15.313"/><path fill="none" stroke="#000" stroke-width="42" d="M298.837 175.312v289.679h238.637l82.945 215.667 94.431-31.905M306.494 355.244h178.654"/><path d="M550.133 659.55c-37.379 65.941-108.195 110.432-189.406 110.432-120.163 0-217.577-97.414-217.577-217.581 0-76.57 39.565-143.907 99.357-182.684" fill="none" stroke="#000" stroke-width="35"/><path d="M229.688 356.481s7.949-6.288 18.305-9.571c4.905-1.555 8.255-1.555 8.255-1.555v37.207s-4.905 3.35-5.862 3.709c-3.422 1.282-20.698-29.79-20.698-29.79zM565.626 668.492s-20.137-42.283-21.452-38.882c-3.829 9.893-11.964 25.206-11.964 25.206l29.834 17.228 3.582-3.552z" stroke="#000" stroke-width="1.914"/><path fill="none" d="M0 0h850.394v850.394H0z"/></svg>