<svg xmlns="http://www.w3.org/2000/svg" width="850.394" height="850.394" viewBox="0 0 850.394 850.394" overflow="visible"><path d="M219.42 593.36c-3.16 33.25-25.54 30.979-39.71 26.02-36.21-32.14-61.99-76.26-75.34-134.67l.13-.1c29.14 37.109 74.92 68.37 131.4 90.14l-.55 1.42-.09 22.67c-5.28-5.15-15.84-5.48-15.84-5.48z" fill="#abd150"/><path d="M179.71 619.38c14.17 4.96 36.55 7.23 39.71-26.02 0 0 10.56.33 15.84 5.479l-.08 19.12c-4.15 10.85-11.93 23.84-19.06 27.82-13.09-7.699-25.25-16.479-36.41-26.399z" fill="#231f20"/><path d="M779.75 390.18c0 35.78-14.06 69.54-38.98 99.33-58.86 70.37-178.33 118.52-316.14 118.52-69.35 0-134.05-12.19-188.73-33.28-56.48-21.77-102.26-53.03-131.4-90.14-22.43-28.57-35-60.601-35-94.43 0-120.32 158.99-217.86 355.13-217.86 196.13 0 355.12 97.54 355.12 217.86zm-33.11.01c0-39.8-21.13-76.71-57.18-107.11-58.13-49.02-155.06-81.12-264.83-81.12-70.87 0-136.38 13.38-189.56 36.05-80.29 34.23-132.46 89.64-132.46 152.18 0 65.07 56.51 122.44 142.41 156.23 51.31 20.2 113.1 31.98 179.61 31.98 177.85 0 322.01-84.27 322.01-188.21z" fill="#abd150"/><path d="M740.77 489.51l.881.75C705.45 637.42 588.3 691.41 423.66 691.41v.01c-73.62 0-137.75-10.81-189.38-35.91l.76-1.56.14-35.99c1.68-4.36 2.76-8.38 2.98-11.33.25-3.38-.97-5.91-2.9-7.79l.09-22.67.55-1.42c54.68 21.09 119.38 33.28 188.73 33.28 137.81 0 257.28-48.15 316.14-118.52z" fill="#abd150"/><path d="M689.46 283.08c36.05 30.4 57.18 67.31 57.18 107.11 0 103.94-144.159 188.21-322.01 188.21-66.51 0-128.3-11.78-179.61-31.98l.82-2.1 8.19-7.49 182.78-166.8 249.4-84.75 3.25-2.2z" fill="#fff5b4"/><path d="M689.46 283.08l-3.25 2.2-249.4 84.75-201.43-131.27-.31-.75c53.18-22.67 118.69-36.05 189.56-36.05 109.77 0 206.7 32.1 264.83 81.12z" fill="#fff5b4"/><path d="M436.81 370.03l-182.78 166.8-8.19 7.49-.82 2.1c-85.9-33.79-142.41-91.16-142.41-156.23 0-62.54 52.17-117.95 132.46-152.18l.31.75 201.43 131.27z" fill="#fff5b4"/><path d="M235.26 598.84c1.93 1.88 3.15 4.41 2.9 7.79-.22 2.95-1.3 6.97-2.98 11.33l.08-19.12z" fill="#231f20"/><g fill="none" stroke="#231f20"><path d="M104.5 484.61c-22.43-28.57-35-60.601-35-94.43 0-120.32 158.99-217.86 355.13-217.86 196.13 0 355.12 97.54 355.12 217.86 0 35.78-14.06 69.54-38.98 99.33-58.86 70.37-178.33 118.52-316.14 118.52-69.35 0-134.05-12.19-188.73-33.28-56.48-21.77-102.26-53.03-131.4-90.14z" stroke-width="21"/><path d="M689.46 283.08c36.05 30.4 57.18 67.31 57.18 107.11 0 103.94-144.159 188.21-322.01 188.21-66.51 0-128.3-11.78-179.61-31.98-85.9-33.79-142.41-91.16-142.41-156.23 0-62.54 52.17-117.95 132.46-152.18 53.18-22.67 118.69-36.05 189.56-36.05 109.77 0 206.7 32.1 264.83 81.12zM179.71 619.38c-36.21-32.14-61.99-76.26-75.34-134.67M423.69 691.42h-.03c-73.62 0-137.75-10.81-189.38-35.91a255.588 255.588 0 0 1-18.16-9.729M423.66 691.41c164.64 0 281.79-53.99 317.99-201.15" stroke-width="21"/><path stroke-width="22.488" d="M254.03 536.83l-8.19 7.49"/><path stroke-width="21" d="M686.21 285.28l-249.4 84.75-182.78 166.8M235.38 238.76l201.43 131.27"/><path stroke-width="37.48" d="M235.18 617.96l-.14 35.99M235.35 576.17l-.09 22.67"/><path d="M216.12 645.78c-2.3 1.29-4.52 1.63-6.54.67C198.81 641.3 168 614 168 614s4.91 3 11.71 5.38c14.17 4.96 36.55 7.23 39.71-26.02 0 0 10.56.33 15.84 5.479 1.93 1.88 3.15 4.41 2.9 7.79-.22 2.95-1.3 6.97-2.98 11.33-4.15 10.851-11.93 23.841-19.06 27.821z" stroke-width="14"/></g><path fill="none" d="M0 0h850.394v850.394H0z"/><path fill="none" d="M0 0h850.394v850.394H0z"/></svg>