<svg xmlns="http://www.w3.org/2000/svg" width="850.394" height="850.394" viewBox="0 0 850.394 850.394" overflow="visible"><path d="M155.15 209.05c4.68 11.42-6.92 11.89-14.27 8.74-7.8-14.78 9.32-20.84 14.27-8.74z" fill="#f6cc4b"/><path d="M762.43 541.44c12.32 4.71 18.061 31.189-15.12 14.64 0 0-51.21-53.41-61.609-94.95h-.01c2.5-31 7.43-71.91 7.43-79.45 0-1.16-.46-2.78-1.36-4.77 1.12 1.63 24.36 35.92 24.36 72.82-.001 37.83 34.029 86.97 46.309 91.71z" fill="#9c5b16"/><path d="M283.45 523.47c2.53 18.9 2.53 64.91 2.53 85.09 0 20.171-4.09 50.091-9.46 55.471l-51.66-.641s0-3.79 2.5-14.51c2.55-10.71 23.01-7.86 29.63-14.49 6.62-6.6 5.68-33.39 5.68-75 0-41.59-9.98-87.58-9.98-87.58l.01-.01c14.62 17.49 28.99 38.4 30.75 51.67zM678.49 578.84c-.44 1.04-14.42 34.33-18.141 46.09-3.77 11.971-3.149 20.181-17.02 24.59-13.86 4.4-35.92-4.409-35.92-4.409 0-6.301 3.78-13.87 12.6-13.87s12.61-6.311 16.391-23.33c3.779-17.01 0-31.48-6.931-45.98-6.93-14.52-31.52-45.37-49.17-63.04-22.67-22.68-21.43-55.659-21.43-55.659v-.04c9.83.579 18.08 3.21 23.31 8.449 16.09 16.061 38.771 60.16 58.63 80.03 15.641 15.639 28.151 34.809 37.681 47.169z" fill="#f6cc4b"/><path d="M88.1 231.04s40.94-7.55 40.94-17.64c0-10.07 2.54-23.31 24.58-35.29 4.27-2.31 8.8-4.25 13.47-5.83 7.29 0 16.26 16.2 17.78 22.23 2.23 8.92-.98 17.37-4.77 25.39-3.6 7.66-8.68 14.49-8.51 23.29.15 8.22 5.35 17.54 13.96 19.54 8.86 2.03 14.89-3.52 21.6-8.21 9.09-6.35 17.38-13.86 27.2-18.91 7.96-4.05 15.9-10.67 17.5-19.91.78-4.4 1.67-15.98-1.07-20.55.18.23.36.43.54.61 3.78 3.79 49.77 78.8 84.45 92.64 34.66 13.86 61.14 22.06 83.82 22.06 0 0 47.9-4.41 74.38-4.41 26.46 0 69.61-4.73 116.891 7.87 41.84 11.17 74.04 47.73 80.899 62.99.9 1.99 1.36 3.61 1.36 4.77 0 7.54-4.93 48.45-7.43 79.45-.841 10.51-1.41 19.88-1.41 26.43 0 25.841 33.41 72.48 37.189 81.94 3.78 9.44 0 71.83 0 90.1 0 18.29 0 34.67-13.239 34.67-13.221 0-30.24 0-34.65-4.399-4.41-4.42 4.41-14.51 15.76-20.18 11.34-5.66 6.3-72.471-3.79-82.551-2.14-2.14-4.49-4.97-7.06-8.3-9.53-12.359-22.04-31.53-37.681-47.17-19.859-19.87-42.54-63.97-58.63-80.03-5.229-5.239-13.479-7.87-23.31-8.449-20.34-1.19-47.45 6.42-68.7 17.89C458.66 478.1 378 494.49 352.78 498.89c-25.21 4.42-20.79 27.75-24.88 61.15-4.1 33.39 0 73.42-4.42 77.83-4.4 4.43-9.77 9.76-13.55 21.11-3.78 11.35-10.24 28.85-14.48 33.09-4.29 4.26-46.97 0-46.97 0l2.84-12.931c2.85-12.92 19.84-9.76 25.2-15.109 5.37-5.38 9.46-35.3 9.46-55.471 0-20.18 0-66.189-2.53-85.09-1.76-13.27-16.13-34.18-30.75-51.67-6.19-7.399-12.42-14.189-17.77-19.53-17.96-17.96-22.7-49.79-22.7-75.629 0-25.84-19.53-63.03-19.53-73.74 0-10.7-6.3-20.17-19.54-16.39-13.23 3.78-33.4 5.69-53.56 2.53-14.62-2.3-24.6-19.15-31.62-32.09 16.11.45 10.66-23.18 26.12-31.2-.84.13-20.56 3.4-31.3 7.84 2.47-1.77 5.3-2.55 5.3-2.55zm52.78-13.25c7.35 3.15 18.95 2.68 14.27-8.74-4.95-12.1-22.07-6.04-14.27 8.74z" fill="#9c5b16"/><path d="M250.78 195.15c2.74 4.57 1.85 16.15 1.07 20.55-1.6 9.24-9.54 15.86-17.5 19.91-9.82 5.05-18.11 12.56-27.2 18.91-6.71 4.69-12.74 10.24-21.6 8.21-8.61-2-13.81-11.32-13.96-19.54-.17-8.8 4.91-15.63 8.51-23.29 3.79-8.02 7-16.47 4.77-25.39-1.52-6.03-10.49-22.23-17.78-22.23 19.48-6.61 41.24-7.03 55.31-2.66 17.35 5.41 24.48 20.83 28.38 25.53z" fill="#9c5b16"/><path d="M82.8 233.59c10.74-4.44 30.46-7.71 31.3-7.84-15.46 8.02-10.01 31.65-26.12 31.2-2.67-4.91-4.91-9.25-6.82-12.03-3.8-5.52-1.35-9.16 1.64-11.33z"/><path d="M86.98 256.9s-8.93-10.03-10.95-17.33c-.58-2.1 2.32-4.14 6.77-5.98-2.99 2.17-5.44 5.81-1.64 11.33 1.91 2.78 4.15 7.12 6.82 12.03-.32 0-.66-.02-1-.05z" fill="#231f20"/><g fill="none" stroke="#231f20"><path d="M87.98 256.95c7.02 12.94 17 29.79 31.62 32.09 20.16 3.16 40.33 1.25 53.56-2.53 13.24-3.78 19.54 5.69 19.54 16.39 0 10.71 19.53 47.9 19.53 73.74 0 25.84 4.74 57.669 22.7 75.629 5.35 5.341 11.58 12.131 17.77 19.53 14.62 17.49 28.99 38.4 30.75 51.67 2.53 18.9 2.53 64.91 2.53 85.09 0 20.171-4.09 50.091-9.46 55.471-5.36 5.35-22.35 2.189-25.2 15.109l-2.84 12.931s42.68 4.26 46.97 0c4.24-4.24 10.7-21.74 14.48-33.09 3.78-11.351 9.15-16.681 13.55-21.11 4.42-4.41.32-44.44 4.42-77.83 4.09-33.4-.33-56.73 24.88-61.15 25.22-4.399 105.88-20.79 137.39-37.81 21.25-11.47 48.36-19.08 68.7-17.89 9.83.579 18.08 3.21 23.31 8.449 16.09 16.061 38.771 60.16 58.63 80.03 15.641 15.64 28.15 34.811 37.681 47.17 2.569 3.33 4.92 6.16 7.06 8.3 10.09 10.08 15.13 76.891 3.79 82.551-11.35 5.67-20.17 15.76-15.76 20.18 4.41 4.399 21.43 4.399 34.65 4.399 13.239 0 13.239-16.38 13.239-34.67 0-18.27 3.78-80.659 0-90.1-3.779-9.46-37.189-56.1-37.189-81.94 0-6.55.569-15.92 1.41-26.43 2.5-31 7.43-71.91 7.43-79.45 0-1.16-.46-2.78-1.36-4.77-6.859-15.26-39.06-51.82-80.899-62.99-47.28-12.6-90.431-7.87-116.891-7.87-26.479 0-74.38 4.41-74.38 4.41-22.68 0-49.16-8.2-83.82-22.06-34.68-13.84-80.67-88.85-84.45-92.64-.18-.18-.36-.38-.54-.61-3.9-4.7-11.03-20.12-28.38-25.53-14.07-4.37-35.83-3.95-55.31 2.66-4.67 1.58-9.2 3.52-13.47 5.83-22.04 11.98-24.58 25.22-24.58 35.29 0 10.09-40.94 17.64-40.94 17.64s-2.83.78-5.3 2.55" stroke-width="21"/><path d="M252.69 471.81s9.98 45.99 9.98 87.58c0 41.61.94 68.4-5.68 75-6.62 6.63-27.08 3.78-29.63 14.49-2.5 10.72-2.5 14.51-2.5 14.51l51.66.641M558.87 443.23s-1.24 32.979 21.43 55.659c17.65 17.67 42.24 48.521 49.17 63.04 6.931 14.5 10.71 28.971 6.931 45.98-3.78 17.02-7.57 23.33-16.391 23.33-8.819 0-12.6 7.569-12.6 13.87 0 0 22.06 8.81 35.92 4.409 13.87-4.409 13.25-12.619 17.02-24.59 3.721-11.76 17.7-45.05 18.141-46.09.01-.01.01-.02.01-.02M691.72 376.85s.011.02.04.06c1.12 1.63 24.36 35.92 24.36 72.82 0 37.829 34.03 86.97 46.31 91.71 12.32 4.71 18.061 31.189-15.12 14.64 0 0-51.21-53.41-61.609-94.95M167.09 172.28c7.29 0 16.26 16.2 17.78 22.23 2.23 8.92-.98 17.37-4.77 25.39-3.6 7.66-8.68 14.49-8.51 23.29.15 8.22 5.35 17.54 13.96 19.54 8.86 2.03 14.89-3.52 21.6-8.21 9.09-6.35 17.38-13.86 27.2-18.91 7.96-4.05 15.9-10.67 17.5-19.91.78-4.4 1.67-15.98-1.07-20.55-.21-.36-.45-.68-.72-.95" stroke-width="21"/><path d="M82.8 233.59c-4.45 1.84-7.35 3.88-6.77 5.98 2.02 7.3 10.95 17.33 10.95 17.33.34.03.68.05 1 .05 16.11.45 10.66-23.18 26.15-31.21-.01.01-.02.01-.03.01-.84.13-20.56 3.4-31.3 7.84z" stroke-width="14"/><path d="M140.88 217.79c-7.8-14.78 9.32-20.84 14.27-8.74 4.68 11.42-6.92 11.89-14.27 8.74z" stroke-width="7"/></g><path fill="none" d="M0 0h850.394v850.394H0z"/></svg>