<?xml version="1.0" encoding="iso-8859-1"?>
<!-- Generator: Adobe Illustrator 12.0.1, SVG Export Plug-In . SVG Version: 6.00 Build 51448)  -->
<!DOCTYPE svg PUBLIC "-//W3C//DTD SVG 1.1//EN" "http://www.w3.org/Graphics/SVG/1.1/DTD/svg11.dtd" [
	<!ENTITY ns_svg "http://www.w3.org/2000/svg">
	<!ENTITY ns_xlink "http://www.w3.org/1999/xlink">
]>
<svg  version="1.1" id="Layer_1" xmlns="&ns_svg;" xmlns:xlink="&ns_xlink;" width="850.394" height="850.394"
	 viewBox="0 0 850.394 850.394" style="overflow:visible;enable-background:new 0 0 850.394 850.394;" xml:space="preserve">
<g id="XMLID_6_">
	<g>
		<path style="fill:#A3D9FF;" d="M419.02,382.83v328.59c-24.62,20.89-75.72,36.09-163.67,36.09c-91.66,0-145.31-16.49-166.52-38.77
			V380.71c21.21,17.75,74.86,30.9,166.52,30.9C343.3,411.61,394.4,399.5,419.02,382.83z"/>
		<path style="fill:#FFF400;" d="M418.46,717.27c2.56,3.28,3.9,6.681,3.9,10.15c0,27.79-62.59,50.32-168.56,50.32
			c-105.96,0-168.56-22.53-168.56-50.32c0-3.12,1.8-6.89,3.96-9.939l-0.37-0.69v-8.05c21.21,22.279,74.86,38.77,166.52,38.77
			c87.95,0,139.05-15.2,163.67-36.09v5.39L418.46,717.27z"/>
		<path style="fill:#FFF400;" d="M419.02,349.83v33c-24.62,16.67-75.72,28.78-163.67,28.78c-91.66,0-145.31-13.15-166.52-30.9
			v-33.62c17.5,16.47,73.75,28.66,158.29,29.4c1.29,0.02,2.59,0.02,3.89,0.03c1.31,0.01,2.62,0.01,3.95,0.01s2.64,0,3.95-0.01
			c82.72-0.31,139.19-11.44,159.94-26.92L419.02,349.83z"/>
		<path style="fill:#FFF400;" d="M418.85,349.6c-20.75,15.48-77.22,26.61-159.94,26.92c82.34-0.42,126.46-14.02,126.46-30.73
			c0-16.98-45.53-30.74-130.41-30.74c-84.9,0-130.43,13.76-130.43,30.74c0,16.45,42.73,29.88,122.59,30.7
			c-84.54-0.74-140.79-12.93-158.29-29.4c-3.84-3.61-5.81-7.43-5.81-11.38c0-22.55,64.29-40.82,172.33-40.82
			c108.03,0,172.32,18.27,172.32,40.82C427.67,340.59,424.66,345.26,418.85,349.6z"/>
		<path style="fill:#C8C8C8;" d="M254.96,315.05c84.88,0,130.41,13.76,130.41,30.74c0,16.71-44.12,30.31-126.46,30.73
			c-1.31,0.01-2.62,0.01-3.95,0.01s-2.64,0-3.95-0.01c-1.31-0.01-2.61-0.02-3.89-0.03c-79.86-0.82-122.59-14.25-122.59-30.7
			C124.53,328.81,170.06,315.05,254.96,315.05z"/>
		<path style="fill:#F6CC4B;" d="M447.42,95.17c2.48,6.03-3.65,6.28-7.52,4.62C435.77,91.98,444.82,88.78,447.42,95.17z"/>
		<path style="fill:#9C5B16;" d="M497.91,87.83c1.45,2.42,0.979,8.53,0.57,10.85c-0.841,4.88-5.04,8.38-9.24,10.52
			c-5.181,2.66-9.561,6.63-14.36,9.98c-3.55,2.47-6.72,5.41-11.399,4.34c-4.54-1.07-7.301-5.99-7.381-10.33
			c-0.09-4.64,2.591-8.24,4.5-12.29c2-4.23,3.69-8.69,2.521-13.41c-0.8-3.18-5.53-11.73-9.38-11.74
			c10.279-3.49,21.76-3.71,29.189-1.4c8.62,2.69,12.46,10.05,14.601,12.98C497.66,87.52,497.79,87.68,497.91,87.83z"/>
		<path style="fill:#9C5B16;" d="M515.17,261.17c1.33,9.98,1.33,34.28,1.33,44.93c0,10.66-2.15,26.46-5,29.28l-27.27-0.33
			c0,0,0-2,1.319-7.66c1.351-5.65,12.15-4.15,15.65-7.65c3.49-3.48,3-17.62,3-39.6c0-21.62-5.12-45.48-5.271-46.22
			C506.66,243.15,514.24,254.17,515.17,261.17z"/>
		<path style="fill:#9C5B16;" d="M660.58,218.79c5.189,0.31,9.55,1.69,12.31,4.46c8.49,8.49,20.46,31.77,30.95,42.26
			c8.25,8.25,14.851,18.37,19.9,24.89c0,0-7.59,18.04-9.58,24.34c-1.99,6.33-1.66,10.66-8.98,12.99
			c-7.319,2.32-18.97-2.33-18.97-2.33c0-3.32,1.99-7.33,6.65-7.33c4.659,0,6.649-3.33,8.659-12.31c1.99-8.98,0-16.62-3.659-24.27
			c-3.66-7.66-16.65-23.96-25.96-33.28c-11.971-11.99-11.32-29.39-11.32-29.39V218.79z"/>
		<path style="fill:#9C5B16;" d="M433.64,97.47c0-5.32,1.341-12.31,12.98-18.63c2.25-1.22,4.649-2.25,7.11-3.09h0.01
			c3.85,0.01,8.58,8.56,9.38,11.74c1.17,4.72-0.521,9.18-2.521,13.41c-1.909,4.05-4.59,7.65-4.5,12.29
			c0.08,4.34,2.841,9.26,7.381,10.33c4.68,1.07,7.85-1.87,11.399-4.34c4.8-3.35,9.18-7.32,14.36-9.98
			c4.2-2.14,8.399-5.64,9.24-10.52c0.409-2.32,0.88-8.43-0.57-10.85c0.1,0.12,0.2,0.23,0.29,0.32c1.99,2.01,26.28,41.61,44.59,48.92
			c18.3,7.32,32.27,11.64,44.25,11.64c0,0,25.31-2.32,39.28-2.32c13.97,0,36.75-2.49,61.71,4.16
			c22.069,5.89,39.05,25.14,42.689,33.22c0,0,0,0,0.011,0.01c0.479,1.06,0.729,1.92,0.729,2.54c0,3.97-2.6,25.58-3.92,41.95
			c-0.45,5.55-0.75,10.5-0.75,13.95c0,13.64,17.65,38.26,19.64,43.26c2,4.98,0,37.92,0,47.57c0,9.66,0,18.31-6.989,18.31
			c-6.98,0-15.971,0-18.301-2.33c-2.319-2.33,2.33-7.67,8.32-10.65c6-3,3.34-38.26-2-43.59c-1.13-1.13-2.37-2.63-3.72-4.39
			c-5.05-6.52-11.65-16.64-19.9-24.89c-10.49-10.49-22.46-33.77-30.95-42.26c-2.76-2.77-7.12-4.15-12.31-4.46
			c-10.74-0.62-25.05,3.39-36.271,9.44c-16.64,8.99-59.229,17.65-72.529,19.98c-13.33,2.33-10.98,14.64-13.15,32.27
			c-2.16,17.63,0,38.77-2.33,41.11c-2.319,2.33-5.16,5.15-7.149,11.14c-2,5.98-5.42,15.23-7.65,17.46c-2.26,2.25-24.8,0-24.8,0
			s0,0,1.5-6.82c1.51-6.82,10.479-5.15,13.3-7.99c2.85-2.82,5-18.62,5-29.28c0-10.65,0-34.95-1.33-44.93
			c-0.93-7-8.51-18.02-16.24-27.25c-0.01-0.01-0.01-0.02-0.01-0.02c-3.26-3.91-6.55-7.5-9.37-10.32
			c-9.49-9.48-11.99-26.28-11.99-39.93c0-13.64-10.3-33.27-10.3-38.92c0-5.66-3.33-10.66-10.33-8.66c-6.979,1.99-17.63,3-28.27,1.34
			c-7.72-1.22-12.99-10.12-16.7-16.95c8.52,0.24,5.63-12.26,13.81-16.48c0,0-10.72,1.75-16.52,4.14c1.3-0.93,2.78-1.34,2.78-1.34
			S433.64,102.8,433.64,97.47z M447.42,95.17c-2.6-6.39-11.65-3.19-7.52,4.62C443.77,101.45,449.9,101.2,447.42,95.17z"/>
		<path style="fill:#9C5B16;" d="M768.05,270.67c6.5,2.48,9.54,16.46-7.97,7.73c0,0-27.05-28.2-32.54-50.13
			c1.32-16.37,3.92-37.98,3.92-41.95c0-0.62-0.25-1.48-0.729-2.54c0.39,0.57,12.869,18.81,12.869,38.46
			C743.6,242.22,761.58,268.17,768.05,270.67z"/>
		<path d="M409.25,108.12c5.8-2.39,16.52-4.14,16.52-4.14c-8.18,4.22-5.29,16.72-13.81,16.48c-1.41-2.59-2.59-4.89-3.6-6.35
			c-2.01-2.92-0.71-4.84,0.88-5.98C409.24,108.12,409.24,108.12,409.25,108.12z"/>
		<path style="fill:#231F20;" d="M408.36,114.11c1.01,1.46,2.19,3.76,3.6,6.35c-0.17,0-0.35-0.01-0.53-0.02c0,0-4.7-5.31-5.77-9.16
			c-0.31-1.11,1.23-2.18,3.58-3.15C407.65,109.27,406.35,111.19,408.36,114.11z"/>
	</g>
	<g>
		<path style="fill:none;stroke:#231F20;stroke-width:28;" d="M251.01,376.52c-1.3-0.01-2.6-0.01-3.89-0.03
			c-84.54-0.74-140.79-12.93-158.29-29.4c-3.84-3.61-5.81-7.43-5.81-11.38c0-22.55,64.29-40.82,172.33-40.82
			c108.03,0,172.32,18.27,172.32,40.82c0,4.88-3.01,9.55-8.82,13.89c-20.75,15.48-77.22,26.61-159.94,26.92"/>
		<path style="fill:none;stroke:#231F20;stroke-width:21;" d="M419.03,382.82c0,0-0.01,0-0.01,0.01
			c-24.62,16.67-75.72,28.78-163.67,28.78c-91.66,0-145.31-13.15-166.52-30.9c-0.01-0.01-0.01-0.01-0.02-0.02"/>
		<path style="fill:none;stroke:#231F20;stroke-width:21;" d="M419.03,711.41l-0.01,0.01c-24.62,20.89-75.72,36.09-163.67,36.09
			c-91.66,0-145.31-16.49-166.52-38.77c-0.01-0.01-0.01-0.01-0.02-0.021"/>
		<polyline style="fill:none;stroke:#231F20;stroke-width:21;" points="88.83,345.61 88.83,347.09 88.83,380.71 88.83,708.74 
			88.83,716.79 		"/>
		<polyline style="fill:none;stroke:#231F20;stroke-width:21;" points="419.02,349.83 419.02,382.83 419.02,711.42 419.02,716.81 		
			"/>
		<path style="fill:none;stroke:#231F20;stroke-width:28;" d="M418.46,717.27c2.56,3.28,3.9,6.681,3.9,10.15
			c0,27.79-62.59,50.32-168.56,50.32c-105.96,0-168.56-22.53-168.56-50.32c0-3.12,1.8-6.89,3.96-9.939c0.15-0.2,0.29-0.4,0.44-0.601
			"/>
		<path style="fill:none;stroke:#231F20;stroke-width:21;" d="M247.12,376.49c-79.86-0.82-122.59-14.25-122.59-30.7
			c0-16.98,45.53-30.74,130.43-30.74c84.88,0,130.41,13.76,130.41,30.74c0,16.71-44.12,30.31-126.46,30.73
			c-1.31,0.01-2.62,0.01-3.95,0.01s-2.64,0-3.95-0.01C249.7,376.51,248.4,376.5,247.12,376.49z"/>
		<path style="fill:none;stroke:#231F20;stroke-width:14;" d="M498.93,233.92c7.73,9.23,15.311,20.25,16.24,27.25
			c1.33,9.98,1.33,34.28,1.33,44.93c0,10.66-2.15,26.46-5,29.28c-2.82,2.84-11.79,1.17-13.3,7.99c-1.5,6.82-1.5,6.82-1.5,6.82
			s22.54,2.25,24.8,0c2.23-2.23,5.65-11.48,7.65-17.46c1.989-5.99,4.83-8.81,7.149-11.14c2.33-2.34,0.17-23.48,2.33-41.11
			c2.17-17.63-0.18-29.94,13.15-32.27c13.3-2.33,55.89-10.99,72.529-19.98c11.221-6.05,25.53-10.06,36.271-9.44
			c5.189,0.31,9.55,1.69,12.31,4.46c8.49,8.49,20.46,31.77,30.95,42.26c8.25,8.25,14.851,18.37,19.9,24.89
			c1.35,1.76,2.59,3.26,3.72,4.39c5.34,5.33,8,40.59,2,43.59c-5.99,2.98-10.64,8.32-8.32,10.65c2.33,2.33,11.32,2.33,18.301,2.33
			c6.989,0,6.989-8.65,6.989-18.31c0-9.65,2-42.59,0-47.57c-1.989-5-19.64-29.62-19.64-43.26c0-3.45,0.3-8.4,0.75-13.95
			c1.32-16.37,3.92-37.98,3.92-41.95c0-0.62-0.25-1.48-0.729-2.54"/>
		<path style="fill:none;stroke:#231F20;stroke-width:14;" d="M411.96,120.46c3.71,6.83,8.98,15.73,16.7,16.95
			c10.64,1.66,21.29,0.65,28.27-1.34c7-2,10.33,3,10.33,8.66c0,5.65,10.3,25.28,10.3,38.92c0,13.65,2.5,30.45,11.99,39.93
			c2.82,2.82,6.11,6.41,9.37,10.32"/>
		<path style="fill:none;stroke:#231F20;stroke-width:14;" d="M453.73,75.75c-2.461,0.84-4.86,1.87-7.11,3.09
			c-11.64,6.32-12.98,13.31-12.98,18.63c0,5.33-21.61,9.31-21.61,9.31s-1.48,0.41-2.78,1.34"/>
		<path style="fill:none;stroke:#231F20;stroke-width:14;" d="M730.72,183.77c-3.64-8.08-20.62-27.33-42.689-33.22
			c-24.96-6.65-47.74-4.16-61.71-4.16c-13.971,0-39.28,2.32-39.28,2.32c-11.98,0-25.95-4.32-44.25-11.64
			c-18.31-7.31-42.6-46.91-44.59-48.92c-0.09-0.09-0.19-0.2-0.29-0.32c-0.12-0.15-0.25-0.31-0.38-0.5
			c-2.141-2.93-5.98-10.29-14.601-12.98c-7.43-2.31-18.91-2.09-29.189,1.4"/>
		<path style="fill:none;stroke:#231F20;stroke-width:14;" d="M498.92,233.9c0,0,0,0.01,0.01,0.02c0.15,0.74,5.271,24.6,5.271,46.22
			c0,21.98,0.49,36.12-3,39.6c-3.5,3.5-14.3,2-15.65,7.65c-1.319,5.66-1.319,7.66-1.319,7.66l27.27,0.33"/>
		<path style="fill:none;stroke:#231F20;stroke-width:14;" d="M660.58,218.82c0,0-0.65,17.4,11.32,29.39
			c9.31,9.32,22.3,25.62,25.96,33.28c3.659,7.65,5.649,15.29,3.659,24.27c-2.01,8.98-4,12.31-8.659,12.31
			c-4.66,0-6.65,4.01-6.65,7.33c0,0,11.65,4.65,18.97,2.33c7.32-2.33,6.99-6.66,8.98-12.99c1.99-6.3,9.58-24.34,9.58-24.34"/>
		<path style="fill:none;stroke:#231F20;stroke-width:14;" d="M730.72,183.77c0,0,0,0,0.011,0.01
			c0.39,0.57,12.869,18.81,12.869,38.46c0,19.98,17.98,45.93,24.45,48.43c6.5,2.48,9.54,16.46-7.97,7.73c0,0-27.05-28.2-32.54-50.13
			"/>
		<path style="fill:none;stroke:#231F20;stroke-width:14;" d="M453.73,75.75h0.01c3.85,0.01,8.58,8.56,9.38,11.74
			c1.17,4.72-0.521,9.18-2.521,13.41c-1.909,4.05-4.59,7.65-4.5,12.29c0.08,4.34,2.841,9.26,7.381,10.33
			c4.68,1.07,7.85-1.87,11.399-4.34c4.8-3.35,9.18-7.32,14.36-9.98c4.2-2.14,8.399-5.64,9.24-10.52c0.409-2.32,0.88-8.43-0.57-10.85
			c-0.11-0.19-0.24-0.36-0.38-0.5"/>
		<path style="fill:none;stroke:#231F20;stroke-width:14;" d="M409.24,108.13c-2.35,0.97-3.89,2.04-3.58,3.15
			c1.07,3.85,5.77,9.16,5.77,9.16c0.18,0.01,0.36,0.02,0.53,0.02c8.52,0.24,5.63-12.26,13.81-16.48c0,0-10.72,1.75-16.52,4.14
			C409.24,108.12,409.24,108.12,409.24,108.13z"/>
		<path style="fill:none;stroke:#231F20;stroke-width:7;" d="M439.9,99.79c-4.131-7.81,4.92-11.01,7.52-4.62
			C449.9,101.2,443.77,101.45,439.9,99.79z"/>
	</g>
</g>
<rect style="fill:none;" width="850.394" height="850.394"/>
</svg>
