<?xml version="1.0" encoding="iso-8859-1"?>
<!-- Generator: Adobe Illustrator 12.0.1, SVG Export Plug-In . SVG Version: 6.00 Build 51448)  -->
<!DOCTYPE svg PUBLIC "-//W3C//DTD SVG 1.1//EN" "http://www.w3.org/Graphics/SVG/1.1/DTD/svg11.dtd" [
	<!ENTITY ns_svg "http://www.w3.org/2000/svg">
	<!ENTITY ns_xlink "http://www.w3.org/1999/xlink">
]>
<svg  version="1.1" id="Layer_1" xmlns="&ns_svg;" xmlns:xlink="&ns_xlink;" width="850.394" height="850.394"
	 viewBox="0 0 850.394 850.394" style="overflow:visible;enable-background:new 0 0 850.394 850.394;" xml:space="preserve">
<g>
	<g id="XMLID_1_">
		<g>
			<path style="fill:#F6CC4B;" d="M709.36,580.11c-0.5,1.96-19.04,75.449-30.051,107.22c-20.63,59.62-52.27,75.17-81.069,80.5
				c-42.74,7.91-167.79,11.13-167.79,11.13l-3.351-0.37c0,0-131.77-3.24-174.5-11.149c-28.81-5.33-60.44-20.87-81.07-80.49
				c-10.98-31.7-29.47-104.931-30.05-107.22c7.08,6.029,15.2,10.649,24.32,13.22c3.11,0.88,6.22,1.66,9.32,2.39
				c5.75,1.34,11.47,2.45,17.09,3.5c35.07,6.521,66.2,10.29,74.48,47.98c10.31,47.01,8.18,81.939,48.72,85.399
				c78.44,6.71,150.729,6.61,220.01,0.391c40.55-3.62,38.41-38.391,48.74-85.41c8.72-39.74,42.87-41.771,80.24-49.07
				c1.63-0.33,3.27-0.66,4.92-1c5.22-1.09,10.479-2.31,15.72-3.79C694.16,590.77,702.28,586.14,709.36,580.11z"/>
			<path style="fill:#F6CC4B;" d="M664.4,598.11v0.02c-37.37,7.3-71.521,9.33-80.24,49.07c-10.33,47.02-8.19,81.79-48.74,85.41
				c-69.28,6.22-141.57,6.319-220.01-0.391c-40.54-3.46-38.41-38.39-48.72-85.399c-8.28-37.69-39.41-41.46-74.48-47.98l0.59-3.17
				c31.09-33.9,124.34-58.51,234.53-58.51C535.1,537.16,631.33,565.37,664.4,598.11z"/>
			<path style="fill:#F6CC4B;" d="M714.81,501.06c5.24,21.641-2.92,55.631-22.939,77.301c0,0-9.69,10.96-23.45,14.39l0.9,4.38
				c-1.65,0.34-3.29,0.67-4.92,1v-0.02c-33.07-32.74-129.301-60.95-237.07-60.95c-110.19,0-203.44,24.609-234.53,58.51l-0.59,3.17
				c-5.62-1.05-11.34-2.16-17.09-3.5l0.78-3.31c-31.26-18.03-46.41-64.7-39.96-91.311c7.33-30.229,27.22-54.41,76.42-71.54
				c51.52-17.93,374.52-17.6,426.03,0.33C687.59,446.65,707.47,470.83,714.81,501.06z"/>
			<path style="fill:#F6CC4B;" d="M141.48,579.73c-27.62-23.5-39.39-68.32-33-95.7c8.03-34.38,29.81-61.9,83.68-81.39
				c56.41-20.41,410.1-20.02,466.52,0.38c53.88,19.5,75.66,47.01,83.69,81.4c6.38,27.37-5.39,72.18-33.01,95.69
				c-7.08,6.029-15.2,10.659-24.32,13.229c-5.24,1.48-10.5,2.7-15.72,3.79l-0.9-4.38c13.76-3.43,23.45-14.39,23.45-14.39
				c20.02-21.67,28.18-55.66,22.939-77.301c-7.34-30.229-27.22-54.409-76.42-71.55c-51.51-17.93-374.51-18.26-426.03-0.33
				c-49.2,17.13-69.09,41.311-76.42,71.54c-6.45,26.61,8.7,73.28,39.96,91.311l-0.78,3.31c-3.1-0.729-6.21-1.51-9.32-2.39
				C156.68,590.38,148.56,585.76,141.48,579.73z"/>
			<path style="fill:#F6CC4B;" d="M402.89,90.49c2.52,5.7-3.73,5.94-7.67,4.36C391.01,87.48,400.23,84.45,402.89,90.49z"/>
			<path style="fill:#9C5B16;" d="M454.35,83.52c1.511,2.26,1.021,8.09,0.601,10.29c-0.851,4.61-5.141,7.92-9.42,9.95
				c-5.28,2.51-9.74,6.27-14.65,9.43c-3.61,2.34-6.85,5.12-11.62,4.11c-4.63-1.01-7.44-5.66-7.52-9.77
				c-0.09-4.39,2.64-7.8,4.59-11.62c2.04-4.01,3.76-8.22,2.56-12.68c-0.81-3.01-5.64-11.09-9.57-11.09
				c10.48-3.31,22.2-3.52,29.78-1.33c8.79,2.54,12.71,9.5,14.881,12.27l0.01,0.01C454.12,83.25,454.23,83.39,454.35,83.52z"/>
			<path style="fill:#9C5B16;" d="M455.41,221.66c7.87,8.73,15.609,19.17,16.56,25.8c1.36,9.43,1.36,32.41,1.36,42.48
				s-2.2,25.01-5.09,27.68l-27.82-0.3c0,0,0-1.9,1.35-7.26c1.37-5.33,12.391-3.91,15.95-7.23c3.561-3.29,3.061-16.66,3.061-37.44
				c0-20.76-5.38-43.72-5.38-43.72L455.41,221.66z"/>
			<path style="fill:#9C5B16;" d="M620.26,207.38c5.29,0.29,9.73,1.6,12.55,4.21c8.66,8.03,20.87,30.05,31.57,39.97
				c8.42,7.8,15.15,17.37,20.29,23.53c0,0-7.74,17.06-9.78,23.01c-2.029,5.99-1.68,10.08-9.149,12.3
				c-7.471,2.19-19.34-2.22-19.34-2.22c0-3.13,2.029-6.92,6.779-6.92s6.78-3.16,8.83-11.65c2.03-8.49,0-15.72-3.74-22.95
				c-3.729-7.24-16.97-22.65-26.46-31.46c-12.21-11.33-11.55-27.8-11.55-27.8V207.38z"/>
			<path style="fill:#9C5B16;" d="M729.85,256.44c6.631,2.34,9.73,15.56-8.13,7.3c0,0-27.58-26.66-33.17-47.4h-0.01
				c1.35-15.48,4-35.9,4-39.66c0-0.58-0.25-1.4-0.74-2.4c0.4,0.54,13.12,17.78,13.12,36.36
				C704.92,229.53,723.26,254.07,729.85,256.44z"/>
			<path style="fill:#9C5B16;" d="M388.83,92.66c0-5.02,1.37-11.63,13.25-17.61c2.29-1.16,4.73-2.12,7.24-2.91
				c3.93,0,8.76,8.08,9.57,11.09c1.2,4.46-0.52,8.67-2.56,12.68c-1.95,3.82-4.68,7.23-4.59,11.62c0.08,4.11,2.89,8.76,7.52,9.77
				c4.77,1.01,8.01-1.77,11.62-4.11c4.91-3.16,9.37-6.92,14.65-9.43c4.279-2.03,8.569-5.34,9.42-9.95
				c0.42-2.2,0.91-8.03-0.601-10.29c0.11,0.13,0.221,0.24,0.32,0.34c2.03,1.9,26.8,39.34,45.47,46.25
				c18.65,6.92,32.91,11.01,45.12,11.01c0,0,25.811-2.2,40.061-2.2s37.479-2.36,62.92,3.93c22.52,5.57,39.84,23.79,43.55,31.42
				c0,0,0,0,0.01,0.01c0.49,1,0.74,1.82,0.74,2.4c0,3.76-2.65,24.18-4,39.66c-0.45,5.24-0.76,9.92-0.76,13.19
				c0,12.91,17.989,36.19,20.029,40.91c2.03,4.71,0,35.86,0,44.98c0,9.13,0,17.31-7.14,17.31c-7.1,0-16.27,0-18.66-2.2
				c-2.359-2.2,2.391-7.25,8.5-10.07c6.11-2.84,3.4-36.18-2.04-41.22c-1.149-1.07-2.42-2.49-3.8-4.15
				c-5.14-6.16-11.87-15.73-20.29-23.53c-10.7-9.92-22.91-31.94-31.57-39.97c-2.819-2.61-7.26-3.92-12.55-4.21
				c-10.95-0.59-25.55,3.21-36.99,8.93c-16.96,8.5-60.399,16.69-73.97,18.89c-13.59,2.2-11.189,13.84-13.399,30.52
				c-2.21,16.66,0,36.65-2.391,38.86c-2.35,2.21-5.25,4.87-7.27,10.53c-2.061,5.66-5.53,14.41-7.811,16.52c-2.31,2.12-25.3,0-25.3,0
				s0,0,1.54-6.46c1.53-6.44,10.68-4.86,13.57-7.55c2.89-2.67,5.09-17.61,5.09-27.68s0-33.05-1.36-42.48
				c-0.95-6.63-8.689-17.07-16.56-25.8c-3.33-3.69-6.69-7.08-9.57-9.75c-9.67-8.96-12.22-24.85-12.22-37.76
				c0-12.89-10.51-31.46-10.51-36.8c0-5.35-3.39-10.07-10.52-8.19c-7.13,1.89-17.98,2.84-28.84,1.27
				c-7.88-1.15-13.24-9.57-17.03-16.03c8.69,0.23,5.74-11.58,14.09-15.57c0,0-10.91,1.65-16.84,3.91c1.32-0.89,2.83-1.27,2.83-1.27
				S388.83,97.7,388.83,92.66z M402.89,90.49c-2.66-6.04-11.88-3.01-7.67,4.36C399.16,96.43,405.41,96.19,402.89,90.49z"/>
			<path style="fill:#231F20;" d="M363.97,102.74c5.93-2.26,16.84-3.91,16.84-3.91c-8.35,3.99-5.4,15.8-14.09,15.57
				c-1.43-2.45-2.64-4.61-3.67-6c-2.05-2.77-0.71-4.58,0.91-5.66H363.97z"/>
			<path style="fill:#231F20;" d="M363.05,108.4c1.03,1.39,2.24,3.55,3.67,6c-0.18,0-0.36-0.01-0.54-0.02c0,0-4.79-5.01-5.89-8.65
				c-0.31-1.05,1.26-2.07,3.67-2.99C362.34,103.82,361,105.63,363.05,108.4z"/>
		</g>
		<g>
			<path style="fill:none;stroke:#231F20;stroke-width:21;" d="M664.4,598.13c-37.37,7.3-71.521,9.33-80.24,49.07
				c-10.33,47.02-8.19,81.79-48.74,85.41c-69.28,6.22-141.57,6.319-220.01-0.391c-40.54-3.46-38.41-38.39-48.72-85.399
				c-8.28-37.69-39.41-41.46-74.48-47.98c-5.62-1.05-11.34-2.16-17.09-3.5c-3.1-0.729-6.21-1.51-9.32-2.39
				c-9.12-2.57-17.24-7.19-24.32-13.22c-27.62-23.5-39.39-68.32-33-95.7c8.03-34.38,29.81-61.9,83.68-81.39
				c56.41-20.41,410.1-20.02,466.52,0.38c53.88,19.5,75.66,47.01,83.69,81.4c6.38,27.37-5.39,72.18-33.01,95.69
				c-7.08,6.029-15.2,10.659-24.32,13.229c-5.24,1.48-10.5,2.7-15.72,3.79C667.67,597.47,666.03,597.8,664.4,598.13z"/>
			<path style="fill:none;stroke:#231F20;stroke-width:21;" d="M141.47,579.68c0,0,0,0.021,0.01,0.051
				c0.58,2.289,19.07,75.52,30.05,107.22c20.63,59.62,52.26,75.16,81.07,80.49c42.73,7.909,174.5,11.149,174.5,11.149l3.351,0.37
				c0,0,125.05-3.22,167.79-11.13c28.8-5.33,60.439-20.88,81.069-80.5c11.011-31.771,29.551-105.26,30.051-107.22
				c0.01-0.03,0.01-0.04,0.01-0.04"/>
			<path style="fill:none;stroke:#231F20;stroke-width:14;" d="M175.9,592.03c-31.26-18.03-46.41-64.7-39.96-91.311
				c7.33-30.229,27.22-54.41,76.42-71.54c51.52-17.93,374.52-17.6,426.03,0.33c49.2,17.141,69.08,41.32,76.42,71.55
				c5.24,21.641-2.92,55.631-22.939,77.301c0,0-9.69,10.96-23.45,14.39"/>
			<path style="fill:none;stroke:#231F20;stroke-width:21;" d="M192.8,595.67c31.09-33.9,124.34-58.51,234.53-58.51
				c107.77,0,204,28.21,237.07,60.95"/>
			<path style="fill:none;stroke:#231F20;stroke-width:14;" d="M366.72,114.4c3.79,6.46,9.15,14.88,17.03,16.03
				c10.86,1.57,21.71,0.62,28.84-1.27c7.13-1.88,10.52,2.84,10.52,8.19c0,5.34,10.51,23.91,10.51,36.8
				c0,12.91,2.55,28.8,12.22,37.76c2.88,2.67,6.24,6.06,9.57,9.75c7.87,8.73,15.609,19.17,16.56,25.8
				c1.36,9.43,1.36,32.41,1.36,42.48s-2.2,25.01-5.09,27.68c-2.891,2.69-12.04,1.11-13.57,7.55c-1.54,6.46-1.54,6.46-1.54,6.46
				s22.99,2.12,25.3,0c2.28-2.11,5.75-10.86,7.811-16.52c2.02-5.66,4.92-8.32,7.27-10.53c2.391-2.21,0.181-22.2,2.391-38.86
				c2.21-16.68-0.19-28.32,13.399-30.52c13.57-2.2,57.01-10.39,73.97-18.89c11.44-5.72,26.04-9.52,36.99-8.93
				c5.29,0.29,9.73,1.6,12.55,4.21c8.66,8.03,20.87,30.05,31.57,39.97c8.42,7.8,15.15,17.37,20.29,23.53
				c1.38,1.66,2.65,3.08,3.8,4.15c5.44,5.04,8.15,38.38,2.04,41.22c-6.109,2.82-10.859,7.87-8.5,10.07
				c2.391,2.2,11.561,2.2,18.66,2.2c7.14,0,7.14-8.18,7.14-17.31c0-9.12,2.03-40.27,0-44.98c-2.04-4.72-20.029-28-20.029-40.91
				c0-3.27,0.31-7.95,0.76-13.19c1.35-15.48,4-35.9,4-39.66c0-0.58-0.25-1.4-0.74-2.4"/>
			<path style="fill:none;stroke:#231F20;stroke-width:14;" d="M453.98,83.08c-2.171-2.77-6.091-9.73-14.881-12.27
				c-7.58-2.19-19.3-1.98-29.78,1.33c-2.51,0.79-4.95,1.75-7.24,2.91c-11.88,5.98-13.25,12.59-13.25,17.61
				c0,5.04-22.03,8.81-22.03,8.81s-1.51,0.38-2.83,1.27"/>
			<path style="fill:none;stroke:#231F20;stroke-width:14;" d="M691.79,174.27c-3.71-7.63-21.03-25.85-43.55-31.42
				c-25.44-6.29-48.67-3.93-62.92-3.93s-40.061,2.2-40.061,2.2c-12.21,0-26.47-4.09-45.12-11.01
				c-18.67-6.91-43.439-44.35-45.47-46.25c-0.1-0.1-0.21-0.21-0.32-0.34c-0.119-0.13-0.229-0.27-0.359-0.43"/>
			<path style="fill:none;stroke:#231F20;stroke-width:14;" d="M455.4,221.67c0,0,5.38,22.96,5.38,43.72
				c0,20.78,0.5,34.15-3.061,37.44c-3.56,3.32-14.58,1.9-15.95,7.23c-1.35,5.36-1.35,7.26-1.35,7.26l27.82,0.3"/>
			<path style="fill:none;stroke:#231F20;stroke-width:14;" d="M620.26,207.4c0,0-0.66,16.47,11.55,27.8
				c9.49,8.81,22.73,24.22,26.46,31.46c3.74,7.23,5.771,14.46,3.74,22.95c-2.05,8.49-4.08,11.65-8.83,11.65s-6.779,3.79-6.779,6.92
				c0,0,11.869,4.41,19.34,2.22c7.47-2.22,7.12-6.31,9.149-12.3c2.04-5.95,9.78-23.01,9.78-23.01"/>
			<path style="fill:none;stroke:#231F20;stroke-width:14;" d="M691.79,174.27c0,0,0,0,0.01,0.01c0.4,0.54,13.12,17.78,13.12,36.36
				c0,18.89,18.34,43.43,24.93,45.8c6.631,2.34,9.73,15.56-8.13,7.3c0,0-27.58-26.66-33.17-47.4"/>
			<path style="fill:none;stroke:#231F20;stroke-width:14;" d="M409.32,72.14c3.93,0,8.76,8.08,9.57,11.09
				c1.2,4.46-0.52,8.67-2.56,12.68c-1.95,3.82-4.68,7.23-4.59,11.62c0.08,4.11,2.89,8.76,7.52,9.77c4.77,1.01,8.01-1.77,11.62-4.11
				c4.91-3.16,9.37-6.92,14.65-9.43c4.279-2.03,8.569-5.34,9.42-9.95c0.42-2.2,0.91-8.03-0.601-10.29
				c-0.109-0.16-0.229-0.31-0.359-0.43l-0.01-0.01"/>
			<path style="fill:none;stroke:#231F20;stroke-width:14;" d="M363.96,102.74c-2.41,0.92-3.98,1.94-3.67,2.99
				c1.1,3.64,5.89,8.65,5.89,8.65c0.18,0.01,0.36,0.02,0.54,0.02c8.69,0.23,5.74-11.58,14.09-15.57c0,0-10.91,1.65-16.84,3.91
				H363.96z"/>
			<path style="fill:none;stroke:#231F20;stroke-width:7;" d="M395.22,94.85c-4.21-7.37,5.01-10.4,7.67-4.36
				C405.41,96.19,399.16,96.43,395.22,94.85z"/>
		</g>
	</g>
</g>
<rect style="fill:none;" width="850.394" height="850.394"/>
</svg>
