<svg xmlns="http://www.w3.org/2000/svg" width="850.394" height="850.394" viewBox="0 0 850.394 850.394" overflow="visible"><path d="M482.16 50.93c2.5 6.14-3.69 6.4-7.601 4.71-4.169-7.95 4.971-11.2 7.601-4.71z" fill="#f6cc4b"/><path d="M806.1 229.58c6.561 2.53 9.641 16.76-8.06 7.86 0 0-27.33-28.7-32.87-51.02 1.32-16.67 3.95-38.66 3.95-42.7 0-.63-.25-1.51-.73-2.59.391.58 13 19.16 13 39.15 0 20.34 18.17 46.76 24.71 49.3zM697.52 176.78c5.24.3 9.641 1.72 12.431 4.53 8.58 8.64 20.68 32.34 31.28 43.02 8.329 8.4 15 18.7 20.09 25.34 0 0-7.65 18.36-9.67 24.77-2.021 6.45-1.681 10.85-9.08 13.23-7.4 2.37-19.15-2.38-19.15-2.38 0-3.38 2-7.46 6.71-7.46 4.7 0 6.72-3.39 8.74-12.53 2.02-9.14 0-16.92-3.7-24.7-3.689-7.8-16.81-24.4-26.21-33.89-12.1-12.19-11.44-29.91-11.44-29.91v-.02zM550.6 219.91c1.351 10.16 1.351 34.9 1.351 45.74 0 10.85-2.17 26.93-5.05 29.81l-27.551-.34s0-2.03 1.33-7.8c1.36-5.75 12.28-4.22 15.811-7.78 3.529-3.55 3.029-17.95 3.029-40.32 0-22-5.159-46.3-5.319-47.05 7.799 9.4 15.459 20.62 16.399 27.74zM533.08 43.34c1.57 2.35 1.08 8.76.66 11.16-.84 4.97-5.09 8.54-9.33 10.71-5.24 2.71-9.65 6.75-14.51 10.16-3.58 2.53-6.79 5.51-11.511 4.42-4.6-1.08-7.38-6.09-7.46-10.51-.09-4.73 2.61-8.39 4.551-12.51 2.02-4.31 3.729-8.85 2.539-13.65-.8-3.24-5.579-11.94-9.47-11.95 10.391-3.55 21.98-3.77 29.49-1.42 8.71 2.74 12.59 10.24 14.74 13.21.029.03.05.06.069.09l.221.28c.001 0 .011 0 .011.01z" fill="#9c5b16"/><path d="M468.24 53.27c0-5.41 1.35-12.53 13.109-18.96 2.28-1.25 4.7-2.29 7.19-3.14h.01c3.891.01 8.67 8.71 9.47 11.95 1.19 4.8-.52 9.34-2.539 13.65-1.94 4.12-4.641 7.78-4.551 12.51.08 4.42 2.86 9.43 7.46 10.51 4.721 1.09 7.931-1.89 11.511-4.42 4.859-3.41 9.27-7.45 14.51-10.16 4.24-2.17 8.49-5.74 9.33-10.71.42-2.4.91-8.81-.66-11.16.14.18.27.33.39.45 2 2.05 26.54 42.36 45.04 49.79 18.49 7.46 32.61 11.86 44.721 11.86 0 0 25.55-2.37 39.67-2.37 14.119 0 37.13-2.54 62.34 4.24 22.3 5.99 39.46 25.59 43.14 33.81l.01.01c.48 1.08.73 1.96.73 2.59 0 4.04-2.63 26.03-3.95 42.7-.46 5.65-.76 10.68-.76 14.2 0 13.88 17.82 38.95 19.84 44.04 2.02 5.06 0 38.6 0 48.43s0 18.63-7.06 18.63c-7.051 0-16.131 0-18.49-2.37-2.34-2.37 2.359-7.81 8.399-10.84 6.061-3.05 3.381-38.95-2.02-44.38-1.14-1.15-2.4-2.67-3.76-4.46-5.09-6.64-11.761-16.94-20.09-25.34-10.601-10.68-22.7-34.38-31.28-43.02-2.79-2.81-7.19-4.23-12.431-4.53-10.85-.64-25.31 3.44-36.649 9.6-16.8 9.15-59.83 17.97-73.28 20.33-13.46 2.39-11.09 14.92-13.28 32.86-2.18 17.95 0 39.47-2.359 41.84-2.34 2.38-5.2 5.25-7.22 11.34-2.021 6.1-5.48 15.51-7.73 17.78-2.28 2.29-25.05 0-25.05 0l1.52-6.94c1.511-6.94 10.58-5.24 13.431-8.13 2.88-2.88 5.05-18.96 5.05-29.81 0-10.84 0-35.58-1.351-45.74-.939-7.12-8.6-18.34-16.399-27.74-.01-.01-.01-.02-.01-.02-3.301-3.98-6.62-7.63-9.471-10.5C515.13 172 512.61 154.9 512.61 141c0-13.88-10.41-33.87-10.41-39.62 0-5.76-3.37-10.84-10.431-8.81-7.05 2.02-17.81 3.05-28.56 1.36-7.81-1.23-13.14-10.3-16.89-17.26 8.62.27 5.68-12.46 13.97-16.77 0 0-10.84 1.78-16.7 4.22 1.311-.96 2.811-1.37 2.811-1.37s21.84-4.05 21.84-9.48zm13.92-2.34c-2.63-6.49-11.771-3.24-7.601 4.71 3.911 1.69 10.101 1.43 7.601-4.71z" fill="#9c5b16"/><path d="M572.99 497.78c0 16.319-10.36 31.55-28.271 44.43-41.779 16.95-97.05 27.271-157.67 27.271-59.54 0-113.93-9.961-155.44-26.381-18.69-13.05-29.54-28.619-29.54-45.319 0-46.221 83.03-83.68 185.46-83.68C489.95 414.1 572.99 451.56 572.99 497.78z" fill="#f6cc4b"/><path d="M621.74 452.14c.81 3.57 1.22 7.2 1.22 10.88 0 31.44-30.2 59.7-78.24 79.19 17.91-12.88 28.271-28.11 28.271-44.43 0-46.221-83.04-83.68-185.46-83.68-102.43 0-185.46 37.459-185.46 83.68 0 16.7 10.85 32.27 29.54 45.319-49.34-19.51-80.48-48.149-80.48-80.08 0-3.35.34-6.659 1.01-9.92 11.09-54.14 112.02-96.52 234.91-96.52C509.2 356.58 609.66 398.46 621.74 452.14z" fill="#33a02c"/><path d="M544.72 542.21c48.04-19.49 78.24-47.75 78.24-79.19 0-3.68-.41-7.31-1.22-10.88l3.529-.6c24.381 11.33 25.391 58.21 31.33 94.729h.011c22.47 22.15 36.779 48.971 36.779 75.761 0 87.899-136.939 159.149-305.85 159.149-168.93 0-305.87-71.25-305.87-159.149 0-26.73 12.66-51.91 35.04-74.021 6.1-36.66 6.9-84.319 31.52-95.76l3.91.85a49.185 49.185 0 0 0-1.01 9.92c0 31.931 31.14 60.57 80.48 80.08 41.51 16.42 95.9 26.381 155.44 26.381 60.621 0 115.891-10.32 157.671-27.27z" fill="#33a02c"/><path d="M443.59 64.12c5.86-2.44 16.7-4.22 16.7-4.22-8.29 4.31-5.35 17.04-13.97 16.77-1.42-2.63-2.61-4.96-3.63-6.45-2.021-2.97-.721-4.92.88-6.09 0 0 .01 0 .02-.01z"/><path d="M442.69 70.22c1.02 1.49 2.21 3.82 3.63 6.45-.17 0-.34-.01-.521-.02 0 0-4.75-5.39-5.83-9.31-.31-1.13 1.23-2.22 3.601-3.21-1.6 1.17-2.9 3.12-.88 6.09z" fill="#231f20"/><g fill="none" stroke="#231f20"><path d="M621.74 452.14c.81 3.57 1.22 7.2 1.22 10.88 0 31.44-30.2 59.7-78.24 79.19-41.779 16.95-97.05 27.271-157.67 27.271-59.54 0-113.93-9.961-155.44-26.381-49.34-19.51-80.48-48.149-80.48-80.08 0-3.35.34-6.659 1.01-9.92 11.09-54.14 112.02-96.52 234.91-96.52 122.15 0 222.61 41.88 234.69 95.56z" stroke-width="21"/><path d="M656.61 546.27c22.47 22.15 36.779 48.971 36.779 75.761 0 87.899-136.939 159.149-305.85 159.149-168.93 0-305.87-71.25-305.87-159.149 0-26.73 12.66-51.91 35.04-74.021" stroke-width="21"/><path d="M231.67 543.15a.272.272 0 0 1-.06-.051c-18.69-13.05-29.54-28.619-29.54-45.319 0-46.221 83.03-83.68 185.46-83.68 102.42 0 185.46 37.459 185.46 83.68 0 16.319-10.36 31.55-28.271 44.43-.01.01-.02.01-.029.021" stroke-width="14"/><path d="M148.23 452.25c-24.62 11.44-25.42 59.1-31.52 95.76-2.42 14.561-5.68 27.38-11.6 35.51M625.27 451.54c24.381 11.33 25.391 58.21 31.33 94.729 2.44 14.98 5.721 28.221 11.78 36.54" stroke-width="21" stroke-linecap="round" stroke-linejoin="round"/><path d="M534.2 192.17c7.8 9.4 15.46 20.62 16.399 27.74 1.351 10.16 1.351 34.9 1.351 45.74 0 10.85-2.17 26.93-5.05 29.81-2.851 2.89-11.92 1.19-13.431 8.13l-1.52 6.94s22.77 2.29 25.05 0c2.25-2.27 5.71-11.68 7.73-17.78 2.02-6.09 4.88-8.96 7.22-11.34 2.359-2.37.18-23.89 2.359-41.84 2.19-17.94-.18-30.47 13.28-32.86 13.45-2.36 56.48-11.18 73.28-20.33 11.34-6.16 25.8-10.24 36.649-9.6 5.24.3 9.641 1.72 12.431 4.53 8.58 8.64 20.68 32.34 31.28 43.02 8.329 8.4 15 18.7 20.09 25.34 1.359 1.79 2.62 3.31 3.76 4.46 5.4 5.43 8.08 41.33 2.02 44.38-6.04 3.03-10.739 8.47-8.399 10.84 2.359 2.37 11.439 2.37 18.49 2.37 7.06 0 7.06-8.8 7.06-18.63s2.02-43.37 0-48.43c-2.02-5.09-19.84-30.16-19.84-44.04 0-3.52.3-8.55.76-14.2 1.32-16.67 3.95-38.66 3.95-42.7 0-.63-.25-1.51-.73-2.59M446.32 76.67c3.75 6.96 9.08 16.03 16.89 17.26 10.75 1.69 21.51.66 28.56-1.36 7.061-2.03 10.431 3.05 10.431 8.81 0 5.75 10.41 25.74 10.41 39.62 0 13.9 2.52 31 12.109 40.65 2.851 2.87 6.17 6.52 9.471 10.5M488.54 31.17c-2.49.85-4.91 1.89-7.19 3.14-11.76 6.43-13.109 13.55-13.109 18.96 0 5.43-21.84 9.48-21.84 9.48s-1.5.41-2.811 1.37M532.78 42.96c-2.15-2.97-6.03-10.47-14.74-13.21-7.51-2.35-19.1-2.13-29.49 1.42M533.07 43.33l-.221-.28M768.38 141.12c-3.68-8.22-20.84-27.82-43.14-33.81-25.21-6.78-48.221-4.24-62.34-4.24-14.12 0-39.67 2.37-39.67 2.37-12.11 0-26.23-4.4-44.721-11.86-18.5-7.43-43.04-47.74-45.04-49.79-.12-.12-.25-.27-.39-.45" stroke-width="14"/><path d="M534.19 192.15s0 .01.01.02c.16.75 5.319 25.05 5.319 47.05 0 22.37.5 36.77-3.029 40.32-3.53 3.56-14.45 2.03-15.811 7.78-1.33 5.77-1.33 7.8-1.33 7.8l27.551.34M697.52 176.8s-.659 17.72 11.44 29.91c9.4 9.49 22.521 26.09 26.21 33.89 3.7 7.78 5.72 15.56 3.7 24.7-2.021 9.14-4.04 12.53-8.74 12.53-4.71 0-6.71 4.08-6.71 7.46 0 0 11.75 4.75 19.15 2.38 7.399-2.38 7.06-6.78 9.08-13.23 2.02-6.41 9.67-24.77 9.67-24.77M768.38 141.12l.01.01c.391.58 13 19.16 13 39.15 0 20.34 18.17 46.76 24.71 49.3 6.561 2.53 9.641 16.76-8.06 7.86 0 0-27.33-28.7-32.87-51.02M488.54 31.17h.01c3.891.01 8.67 8.71 9.47 11.95 1.19 4.8-.52 9.34-2.539 13.65-1.94 4.12-4.641 7.78-4.551 12.51.08 4.42 2.86 9.43 7.46 10.51 4.721 1.09 7.931-1.89 11.511-4.42 4.859-3.41 9.27-7.45 14.51-10.16 4.24-2.17 8.49-5.74 9.33-10.71.42-2.4.91-8.81-.66-11.16 0-.01-.01-.01-.01-.01-.061-.11-.13-.2-.221-.28a.6.6 0 0 0-.069-.09M443.57 64.13c-2.37.99-3.91 2.08-3.601 3.21 1.08 3.92 5.83 9.31 5.83 9.31.181.01.351.02.521.02 8.62.27 5.68-12.46 13.97-16.77 0 0-10.84 1.78-16.7 4.22-.01.01-.02.01-.02.01z" stroke-width="14"/><path d="M474.56 55.64c-4.17-7.95 4.971-11.2 7.601-4.71 2.499 6.14-3.691 6.4-7.601 4.71z" stroke-width="7"/></g><path fill="none" d="M0 0h850.394v850.394H0z"/></svg>