<?xml version="1.0" encoding="iso-8859-1"?>
<!-- Generator: Adobe Illustrator 12.0.1, SVG Export Plug-In . SVG Version: 6.00 Build 51448)  -->
<!DOCTYPE svg PUBLIC "-//W3C//DTD SVG 1.1//EN" "http://www.w3.org/Graphics/SVG/1.1/DTD/svg11.dtd" [
	<!ENTITY ns_svg "http://www.w3.org/2000/svg">
	<!ENTITY ns_xlink "http://www.w3.org/1999/xlink">
]>
<svg  version="1.1" id="Layer_1" xmlns="&ns_svg;" xmlns:xlink="&ns_xlink;" width="850.394" height="850.394"
	 viewBox="0 0 850.394 850.394" style="overflow:visible;enable-background:new 0 0 850.394 850.394;" xml:space="preserve">
<g id="XMLID_4_">
	<g>
		<path style="fill:#FFFFFF;" d="M524.23,434.17c0,0,0,0,0.01,0c20.41-13.36,39.46-35.57,53.74-51.28c0.55-0.6,1.1-1.2,1.63-1.78
			c17.96-19.59,33.51-60.15,77.96-63.67c51.43-4.08,52.75,33.19,62.859,46.53c10.2,13.47,15.511,24.9,15.511,24.9s0,7.75-8.57-1.64
			c-8.57-9.38-15.51-9.38-28.17-9.38c0,0-17.55,1.63-34.28,28.57c-16.74,26.94-20.79,79.66-26.13,99.59
			c-6.12,22.86-22.44,73.34-75.51,95.79c-34.9,14.771-69.11,22.311-96.87,25.04c0,0-29.93,20.141-53.34,23.95L294.43,801.53
			l-35.38-126.8l98.51-64.23c5.45-47.34,22.86-77.82,23.95-79.44l-0.34-2.1c-10.17,1.69-22.86,2.56-38.3,1.55
			c-49.8-3.27-56.83-31.6-56.83-31.6c-39.74-1.851-42.04-28.101-42.07-33.82c-2.8-0.72-5.49-1.5-8.05-2.34
			c-42.45-13.88-36.73-40-36.73-40l0.94-2.74c-15.92-5.47-28.42-12.08-34.26-19.46c-16.36-20.66-6.13-42.31-4.18-46
			c-8.96-6.27-15.71-12.54-19.14-18.33c-14.75-24.89,1.63-40,1.63-40l1.9-2.86c-8.75-7.51-15.17-14.79-18.07-21.16
			c-10.84-23.81,4.44-42.32,7.48-45.66c-3.14-4.61-5.38-8.92-6.51-12.78c-8.16-27.76,11.43-38.37,11.43-38.37l2.99-0.65
			c-0.76-3.13-1.22-5.94-1.36-8.33c-0.81-13.88,12.25-24.49,17.15-14.69c4.59,9.19,31.42,38.46,34.76,42.08l2.96-0.12
			c-4-21.49-3.24-41.56-0.17-40.33c4.08,1.64,5.72,2.45,30.21,62.86c24.49,60.41,142.86,140.41,164.9,145.31
			c0.87,0.19,1.86,0.48,2.97,0.86C421.64,371.56,516.94,433.11,524.23,434.17z M671.36,360.33c5.5-0.77,9.34-5.85,8.569-11.36
			c-0.77-5.52-5.859-9.35-11.359-8.58c-5.511,0.77-9.36,5.86-8.58,11.37C660.76,357.26,665.84,361.1,671.36,360.33z"/>
		<path style="fill:#9E5C26;" d="M679.93,348.97c0.771,5.51-3.069,10.59-8.569,11.36c-5.521,0.77-10.601-3.07-11.37-8.57
			c-0.78-5.51,3.069-10.6,8.58-11.37C674.07,339.62,679.16,343.45,679.93,348.97z"/>
		<path style="fill:#FFFFFF;" d="M491.43,131.35l1.11-0.31c0,0-4.35-29.46-0.56-50.99c3.789-21.52,18.779-26.41,21.17-5.52
			c1.359,11.82,5.729,26.92,10.09,39.87c0.93-7.46,4.59-34.76,10.649-52.48c7.08-20.68,22.65-23.19,21.771-2.18
			c-0.59,14.15,2.33,33.56,5.13,48.38c1.88-4.91,14.86-38.21,26.44-53.82c12.52-16.87,27.21,5.44,19.039,35.92
			c-8.159,30.48-31.56,292.25-29.93,291.17l1.641,1.5c-14.28,15.71-33.33,37.92-53.74,51.28c-0.01,0-0.01,0-0.01,0
			c-7.29-1.06-102.59-62.61-129.411-71.79c3.33-14.28,9.18-23.84,11.39-27.1c0-0.01,0-0.01,0-0.01c-4.97-4.76-9.99-10.93-11.1-16.47
			c-1.17-5.88,3.09-11.56,6.61-15.11c-3.43-7.51-6.8-17.79-5.65-24.16c1.71-9.41,6.11-13.18,9.36-14.69
			c-3.31-8.95-6.08-20.98-4.66-29.04c1.04-5.93,5.25-9.79,9.37-12.21c-1.39-8.9-1.78-21.57,2.93-29.42
			c6.53-10.89,22.86-8.17,22.86-8.17l3.891,0.62c-10.391-11.13-13.351-19.67-13.69-33.27c-0.54-22.31,32.12-20.13,32.12-20.13
			l2.44-0.7c-1.471-5.15-2.79-11.58-3.381-19.19c-1.689-21.79,11.601-30.27,19.131-10.62C479.8,111.49,485.51,121.77,491.43,131.35z
			"/>
	</g>
	<g>
		<path style="fill:none;stroke:#231F20;stroke-width:14;" d="M576.34,381.39c-1.63,1.08,21.771-260.69,29.93-291.17
			c8.171-30.48-6.52-52.79-19.039-35.92c-11.58,15.61-24.561,48.91-26.44,53.82c-0.15,0.4-0.23,0.61-0.23,0.61"/>
		<path style="fill:none;stroke:#231F20;stroke-width:14;" d="M565.46,129.95c0,0-2.29-9.27-4.67-21.83
			c-2.8-14.82-5.72-34.23-5.13-48.38c0.88-21.01-14.69-18.5-21.771,2.18c-6.06,17.72-9.72,45.02-10.649,52.48
			c-0.15,1.25-0.23,1.94-0.23,1.94"/>
		<path style="fill:none;stroke:#231F20;stroke-width:14;" d="M533.71,142.37c0,0-5.229-12.44-10.47-27.97
			c-4.36-12.95-8.73-28.05-10.09-39.87c-2.391-20.89-17.381-16-21.17,5.52c-3.79,21.53,0.56,50.99,0.56,50.99"/>
		<path style="fill:none;stroke:#231F20;stroke-width:14;" d="M513.27,163.26c0,0-11.27-14.83-21.84-31.91
			c-5.92-9.58-11.63-19.86-14.989-28.64c-7.53-19.65-20.82-11.17-19.131,10.62c0.591,7.61,1.91,14.04,3.381,19.19
			c2.72,9.59,5.939,14.73,5.939,14.73S481.11,175.12,490.9,186"/>
		<path style="fill:none;stroke:#231F20;stroke-width:14;" d="M435.93,186c0,0-16.33-2.72-22.86,8.17
			c-4.71,7.85-4.32,20.52-2.93,29.42c0.55,3.44,1.24,6.31,1.85,8.13"/>
		<path style="fill:none;stroke:#231F20;stroke-width:14;" d="M419.19,220c0,0-4.48,0.91-9.05,3.59c-4.12,2.42-8.33,6.28-9.37,12.21
			c-1.42,8.06,1.35,20.09,4.66,29.04c1.83,4.94,3.83,8.94,5.38,10.83"/>
		<path style="fill:none;stroke:#231F20;stroke-width:14;" d="M409.26,263.83c0,0-1.66,0-3.83,1.01c-3.25,1.51-7.65,5.28-9.36,14.69
			c-1.15,6.37,2.22,16.65,5.65,24.16c1.81,3.97,3.64,7.16,4.82,8.58"/>
		<path style="fill:none;stroke:#231F20;stroke-width:14;" d="M406.21,335.28c1.28,1.22,2.56,2.36,3.77,3.36
			c2.31,1.92,4.35,3.37,5.67,4.11"/>
		<path style="fill:none;stroke:#231F20;stroke-width:14;" d="M405.98,299.98c0,0-1.98,1.41-4.26,3.71
			c-3.52,3.55-7.78,9.23-6.61,15.11c1.11,5.54,6.13,11.71,11.1,16.47"/>
		<path style="fill:none;stroke:#231F20;stroke-width:14;" d="M407.09,334.04c0,0-0.32,0.42-0.88,1.23c0,0,0,0,0,0.01
			c-2.21,3.26-8.06,12.82-11.39,27.1c-0.28,1.22-0.55,2.48-0.79,3.77"/>
		<path style="fill:none;stroke:#231F20;stroke-width:14;" d="M458.25,133.22c0,0-32.66-2.18-32.12,20.13
			c0.34,13.6,3.3,22.14,13.69,33.27c6.66,7.13,16.37,15.33,30.399,26.6"/>
		<path style="fill:none;stroke:#231F20;stroke-width:14;" d="M413.07,227.91c0,0,23.95,14.7,54.43,22.86"/>
		<path style="fill:none;stroke:#231F20;stroke-width:14;" d="M408.8,269.62c0,0,27.08,7.5,58.62,6.93"/>
		<path style="fill:none;stroke:#231F20;stroke-width:14;" d="M406.62,305.53c0,0,27.07,7.51,58.61,6.94"/>
		<path style="fill:none;stroke:#231F20;stroke-width:14;" d="M408.25,338.19c0,0,0.6,0.17,1.73,0.45
			c6.45,1.61,30.06,6.96,56.9,6.48"/>
		<path style="fill:none;stroke:#231F20;stroke-width:14;" d="M524.23,434.17c-7.29-1.06-102.59-62.61-129.411-71.79
			c-1.11-0.38-2.1-0.67-2.97-0.86c-22.04-4.9-140.41-84.9-164.9-145.31c-24.49-60.41-26.13-61.22-30.21-62.86
			c-3.07-1.23-3.83,18.84,0.17,40.33c1.31,7.05,3.13,14.25,5.55,20.9"/>
		<path style="fill:none;stroke:#231F20;stroke-width:14;" d="M524.5,434.17c-0.07,0.01-0.15,0.01-0.26,0"/>
		<path style="fill:none;stroke:#231F20;stroke-width:14;" d="M194.29,194.17c0,0-0.12-0.13-0.34-0.37
			c-3.34-3.62-30.17-32.89-34.76-42.08c-4.9-9.8-17.96,0.81-17.15,14.69c0.14,2.39,0.6,5.2,1.36,8.33
			c3.68,15.08,14.54,37.35,32.12,52.9"/>
		<path style="fill:none;stroke:#231F20;stroke-width:14;" d="M140.41,175.39c0,0-19.59,10.61-11.43,38.37
			c1.13,3.86,3.37,8.17,6.51,12.78c19.46,28.59,73.55,68.68,114.31,82.73"/>
		<path style="fill:none;stroke:#231F20;stroke-width:14;" d="M136,226c0,0-0.18,0.18-0.51,0.54c-3.04,3.34-18.32,21.85-7.48,45.66
			c2.9,6.37,9.32,13.65,18.07,21.16c27.4,23.49,77.71,49.2,114.98,56.41"/>
		<path style="fill:none;stroke:#231F20;stroke-width:14;" d="M144.18,296.22c0,0-16.38,15.11-1.63,40
			c3.43,5.79,10.18,12.06,19.14,18.33c29.56,20.67,83.19,41.28,121.49,44.48"/>
		<path style="fill:none;stroke:#231F20;stroke-width:14;" d="M162,354c0,0-0.11,0.19-0.31,0.55c-1.95,3.69-12.18,25.34,4.18,46
			c5.84,7.38,18.34,13.99,34.26,19.46c33.03,11.34,80.8,17.78,114.55,16.03"/>
		<path style="fill:none;stroke:#231F20;stroke-width:14;" d="M199.19,422.75c0,0-5.72,26.12,36.73,40
			c2.56,0.84,5.25,1.62,8.05,2.34c31.46,8.15,76.25,8.83,106.24-3.16"/>
		<path style="fill:none;stroke:#231F20;stroke-width:14;" d="M244,464c0,0-0.03,0.39-0.03,1.09c0.03,5.72,2.33,31.97,42.07,33.82
			c33.03,1.54,77.83,1.979,101.62-13.061"/>
		<path style="fill:none;stroke:#231F20;stroke-width:14;" d="M286.04,498.91c0,0,7.03,28.33,56.83,31.6
			c15.44,1.01,28.13,0.141,38.3-1.55c22.62-3.74,32.72-11.51,32.72-11.51"/>
		<path style="fill:none;stroke:#231F20;stroke-width:14;" d="M381.51,531.06c-1.09,1.62-18.5,32.101-23.95,79.44l-98.51,64.23
			l35.38,126.8l118.64-150.74c23.411-3.81,53.34-23.95,53.34-23.95c27.76-2.729,61.97-10.27,96.87-25.04
			c53.069-22.45,69.39-72.93,75.51-95.79c5.34-19.93,9.39-72.649,26.13-99.59c16.73-26.94,34.28-28.57,34.28-28.57
			c12.66,0,19.6,0,28.17,9.38c8.57,9.39,8.57,1.64,8.57,1.64s-5.311-11.43-15.511-24.9c-10.109-13.34-11.43-50.61-62.859-46.53
			c-44.45,3.52-60,44.08-77.96,63.67c-0.53,0.58-1.08,1.18-1.63,1.78c-14.28,15.71-33.33,37.92-53.74,51.28c-0.01,0-0.01,0-0.01,0
			c-5.15,3.37-10.381,6.18-15.65,8.17"/>
		<line style="fill:none;stroke:#231F20;stroke-width:14;" x1="273.21" y1="711.74" x2="372.26" y2="626.29"/>
		<line style="fill:none;stroke:#231F20;stroke-width:14;" x1="286.81" y1="758.54" x2="394.03" y2="638.26"/>
		<path style="fill:none;stroke:#231F20;stroke-width:14;stroke-linecap:round;stroke-linejoin:round;" d="M454.08,636.82l16,42.64
			l2.43,2.95l1.05,1.27c7.74,2.16,13.23,6.84,19.971,11.09c-0.59,4.12-6.05,12.881-6.05,12.881"/>
		<path style="fill:none;stroke:#231F20;stroke-width:14;stroke-linecap:round;stroke-linejoin:round;" d="M472.04,682.63
			c0.15-0.08,0.31-0.149,0.47-0.22c7.08-3.24,19.34-2.21,26.63-0.641c6.061,1.29,7.061,1.421,8.82,7.24
			c1.28,4.24-0.57,10.75-1.96,15"/>
		<path style="fill:none;stroke:#231F20;stroke-width:14;stroke-linecap:round;stroke-linejoin:round;" d="M488.46,631.83
			l21.71,40.8l2.44,2.96l1.04,1.26c7.739,2.17,13.229,6.841,19.979,11.091c-0.6,4.119-6.06,12.88-6.06,12.88"/>
		<path style="fill:none;stroke:#231F20;stroke-width:14;stroke-linecap:round;stroke-linejoin:round;" d="M512.13,675.81
			c0.16-0.079,0.32-0.149,0.48-0.22c7.08-3.24,19.34-2.22,26.64-0.649c6.03,1.3,7.04,1.42,8.8,7.239
			c1.28,4.24,1.94,8.761,0.561,13.021"/>
		<path style="fill:none;stroke:#231F20;stroke-width:7;" d="M679.93,348.97c0.771,5.51-3.069,10.59-8.569,11.36
			c-5.521,0.77-10.601-3.07-11.37-8.57c-0.78-5.51,3.069-10.6,8.58-11.37C674.07,339.62,679.16,343.45,679.93,348.97z"/>
	</g>
</g>
<rect style="fill:none;" width="850.394" height="850.394"/>
</svg>
