<?xml version="1.0" encoding="iso-8859-1"?>
<!-- Generator: Adobe Illustrator 12.0.1, SVG Export Plug-In . SVG Version: 6.00 Build 51448)  -->
<!DOCTYPE svg PUBLIC "-//W3C//DTD SVG 1.1//EN" "http://www.w3.org/Graphics/SVG/1.1/DTD/svg11.dtd" [
	<!ENTITY ns_svg "http://www.w3.org/2000/svg">
	<!ENTITY ns_xlink "http://www.w3.org/1999/xlink">
]>
<svg  version="1.1" id="Layer_1" xmlns="&ns_svg;" xmlns:xlink="&ns_xlink;" width="850.394" height="850.394"
	 viewBox="0 0 850.394 850.394" style="overflow:visible;enable-background:new 0 0 850.394 850.394;" xml:space="preserve">
<circle style="fill:#FFFFFF;stroke:#231F20;stroke-width:2;" cx="422.188" cy="396.938" r="12.417"/>
<g>
	<g id="XMLID_1_">
		<g>
			<rect x="494.82" y="568.08" style="fill:#7A7878;" width="63.46" height="18.3"/>
			<rect x="456.37" y="608.97" style="fill:#7A7878;" width="101.91" height="18.311"/>
			<path style="fill:#C8C8C8;" d="M586.96,543.68v120.58H256.24V543.68h118.98h92.75H586.96z M558.28,627.28V608.97H456.37v18.311
				H558.28z M558.28,586.38v-18.3h-63.46v18.3H558.28z"/>
			<path style="fill:#C8C8C8;" d="M581.03,703.7h28.62l-6.141-15.07h-16.35L581.03,703.7z M627.38,721.63l-6.13-15.07h-16.36
				l-6.13,15.07H627.38z M618.41,686.27l13.03,50.421c1.619,12.609-6.2,13.829-13.841,13.829h-15.68h-6.96h-368.1
				c-7.64,0-15.46-1.21-13.84-13.829l13.02-50.421c1.98-9.63,6.19-13.84,13.83-13.84H592.52v-0.02h12.07
				C612.23,672.41,616.45,676.63,618.41,686.27z M248.06,707.42H231.7l-6.13,15.061h28.63L248.06,707.42z M276.59,703.81
				l-6.13-15.06h-16.35l-6.13,15.06H276.59z M293.33,707.19h-16.35l-6.14,15.06h28.62L293.33,707.19z M321.87,703.58l-6.14-15.061
				h-16.36l-6.13,15.061H321.87z M340.78,707.08h-16.36l-6.13,15.05h28.62L340.78,707.08z M369.31,703.46l-6.14-15.05h-16.35
				l-6.14,15.05H369.31z M389.46,707.31h-16.35l-6.14,15.051h28.63L389.46,707.31z M389.38,703.7h28.61l-6.13-15.07h-16.35
				L389.38,703.7z M439.71,707.42h-16.36l-6.13,15.061h28.629L439.71,707.42z M468.24,703.81l-6.13-15.06h-16.36l-6.13,15.06H468.24
				z M484.98,707.19h-16.36l-6.12,15.06h28.62L484.98,707.19z M513.51,703.58l-6.13-15.061h-16.35l-6.141,15.061H513.51z
				 M532.42,707.08h-16.36l-6.13,15.05h28.62L532.42,707.08z M560.95,703.46l-6.12-15.05h-16.35l-6.15,15.05H560.95z M562.27,707.31
				l-6.14,15.051h28.62l-6.14-15.051H562.27z"/>
			<polygon style="fill:#C8C8C8;" points="631.31,750.52 631.31,778.19 213.32,778.19 213.32,750.52 226.86,750.52 594.96,750.52 
				601.92,750.52 617.6,750.52 			"/>
			<polygon style="fill:#231F20;" points="621.25,706.56 627.38,721.63 598.76,721.63 604.89,706.56 			"/>
			<polygon style="fill:#231F20;" points="603.51,688.63 609.65,703.7 581.03,703.7 587.16,688.63 			"/>
			<polygon style="fill:#231F20;" points="578.61,707.31 584.75,722.36 556.13,722.36 562.27,707.31 			"/>
			<polygon style="fill:#231F20;" points="554.83,688.41 560.95,703.46 532.33,703.46 538.48,688.41 			"/>
			<polygon style="fill:#231F20;" points="532.42,707.08 538.55,722.13 509.93,722.13 516.06,707.08 			"/>
			<path style="fill:#231F20;" d="M527.05,478.58c3.72,0,6.71,3.02,6.71,6.729c0,3.69-2.99,6.7-6.71,6.7c-3.71,0-6.71-3.01-6.71-6.7
				C520.34,481.6,523.34,478.58,527.05,478.58z"/>
			<rect x="316.29" y="327.67" style="fill:#FFFFFF;" width="210.62" height="141.061"/>
			<path style="fill:#C8C8C8;" d="M518.62,485.4c0-3.7-3.01-6.71-6.71-6.71c-3.71,0-6.71,3.01-6.71,6.71c0,3.71,3,6.72,6.71,6.72
				C515.61,492.12,518.62,489.11,518.62,485.4z M520.34,485.31c0,3.69,3,6.7,6.71,6.7c3.72,0,6.71-3.01,6.71-6.7
				c0-3.71-2.99-6.729-6.71-6.729C523.34,478.58,520.34,481.6,520.34,485.31z M550.75,320.91v164.24c0,9.069-7.36,16.42-16.44,16.42
				H308.26c-9.07,0-16.43-7.351-16.43-16.42V320.91c0-9.07,7.36-16.43,16.43-16.43h226.05
				C543.39,304.48,550.75,311.84,550.75,320.91z M526.91,468.73V327.67H316.29V468.73H526.91z"/>
			<path style="fill:#231F20;" d="M511.91,478.69c3.7,0,6.71,3.01,6.71,6.71c0,3.71-3.01,6.72-6.71,6.72
				c-3.71,0-6.71-3.01-6.71-6.72C505.2,481.7,508.2,478.69,511.91,478.69z"/>
			<polygon style="fill:#231F20;" points="507.38,688.52 513.51,703.58 484.89,703.58 491.03,688.52 			"/>
			<polygon style="fill:#231F20;" points="484.98,707.19 491.12,722.25 462.5,722.25 468.62,707.19 			"/>
			<polygon style="fill:#231F20;" points="462.11,688.75 468.24,703.81 439.62,703.81 445.75,688.75 			"/>
			<polygon style="fill:#231F20;" points="460.71,171.86 440.64,206.6 420.58,241.35 400.52,206.6 380.46,171.86 420.58,171.86 			
				"/>
			<polygon style="fill:#231F20;" points="439.71,707.42 445.85,722.48 417.22,722.48 423.35,707.42 			"/>
			<polygon style="fill:#231F20;" points="411.86,688.63 417.99,703.7 389.38,703.7 395.51,688.63 			"/>
			<polygon style="fill:#231F20;" points="389.46,707.31 395.6,722.36 366.97,722.36 373.11,707.31 			"/>
			<polygon style="fill:#231F20;" points="363.17,688.41 369.31,703.46 340.68,703.46 346.82,688.41 			"/>
			<polygon style="fill:#231F20;" points="340.78,707.08 346.91,722.13 318.29,722.13 324.42,707.08 			"/>
			<polygon style="fill:#231F20;" points="315.73,688.52 321.87,703.58 293.24,703.58 299.37,688.52 			"/>
			<polygon style="fill:#231F20;" points="293.33,707.19 299.46,722.25 270.84,722.25 276.98,707.19 			"/>
			<polygon style="fill:#231F20;" points="270.46,688.75 276.59,703.81 247.98,703.81 254.11,688.75 			"/>
			<polygon style="fill:#231F20;" points="248.06,707.42 254.2,722.48 225.57,722.48 231.7,707.42 			"/>
		</g>
		<g>
			<path style="fill:none;stroke:#231F20;stroke-width:14;" d="M550.75,485.15c0,9.069-7.36,16.42-16.44,16.42H308.26
				c-9.07,0-16.43-7.351-16.43-16.42V320.91c0-9.07,7.36-16.43,16.43-16.43h226.05c9.08,0,16.44,7.36,16.44,16.43V485.15z"/>
			<rect x="316.29" y="327.67" style="fill:none;stroke:#231F20;stroke-width:14;" width="210.62" height="141.061"/>
			<polyline style="fill:none;stroke:#231F20;stroke-width:14;" points="375.22,543.68 375.22,502.05 467.97,502.05 467.97,543.68 
							"/>
			<polygon style="fill:none;stroke:#231F20;stroke-width:14;" points="467.97,543.68 586.96,543.68 586.96,664.26 256.24,664.26 
				256.24,543.68 375.22,543.68 			"/>
			<rect x="456.37" y="608.97" style="fill:none;stroke:#231F20;stroke-width:9.5349;" width="101.91" height="18.311"/>
			<rect x="494.82" y="568.08" style="fill:none;stroke:#231F20;stroke-width:9.5349;" width="63.46" height="18.3"/>
			<path style="fill:none;stroke:#231F20;stroke-width:14;" d="M226.86,750.52c-7.64,0-15.46-1.21-13.84-13.829l13.02-50.421
				c1.98-9.63,6.19-13.84,13.83-13.84H592.52h7.771"/>
			<path style="fill:none;stroke:#231F20;stroke-width:14;" d="M617.6,750.52c7.641,0,15.46-1.22,13.841-13.829l-13.03-50.421
				c-1.96-9.64-6.18-13.859-13.82-13.859h-12.07"/>
			<line style="fill:none;stroke:#231F20;stroke-width:9.5349;" x1="333.76" y1="733.01" x2="508.27" y2="733.01"/>
			<polygon style="fill:none;stroke:#231F20;stroke-width:14;" points="617.6,750.52 631.31,750.52 631.31,778.19 213.32,778.19 
				213.32,750.52 226.86,750.52 594.96,750.52 601.92,750.52 			"/>
			<polygon style="fill:none;stroke:#231F20;stroke-width:19.0697;" points="420.58,241.35 400.52,206.6 380.46,171.86 
				420.58,171.86 460.71,171.86 440.64,206.6 			"/>
		</g>
	</g>
</g>
<rect style="fill:none;" width="850.394" height="850.394"/>
<line style="fill:none;stroke:#231F20;stroke-width:28;" x1="394.834" y1="130" x2="452.834" y2="129.875"/>
<line style="fill:none;stroke:#231F20;stroke-width:28;" x1="394.668" y1="86.125" x2="452.668" y2="85.999"/>
<line style="fill:none;stroke:#231F20;stroke-width:28;" x1="394" y1="47.875" x2="452" y2="47.75"/>
</svg>
