<svg xmlns="http://www.w3.org/2000/svg" width="850.394" height="850.394" viewBox="0 0 850.394 850.394" overflow="visible"><path d="M415.33 393.54c33.28 43.64 70.54 91.78 80.34 101.58 18.73 18.729 64.93 0 64.93 0s61.641-23.29 109.16-43.15L558.93 341.14l-143.6 52.4zm-344.7 17.52s-25.53-35.52 15.53-49.94C127.22 346.69 294 292 294 292h5.8v66.62s18.44 24.29 45.22-2.49c0 0-3.6-30.53 2.5-36.63s93.69-47.32 96-41.06c4.711 12.76 25.311.9 25.311.9 0-26.36-12.44-37.48-26.98-31.42-6.659 2.77-97.669 37.52-97.669 37.52s-.76-.88-1.38-7.83c0 0 177.29-68.53 213.91-79.63 36.63-11.1 68.81 26.63 68.81 26.63S740.93 347.8 773.12 379.98c39.96 39.95-6.66 63.26-6.66 63.26s-493.85 197.54-530.48 204.2c-36.62 6.659-47.72-23.301-47.72-23.301L70.63 411.06z" fill="#c8c8c8"/><path d="M339.2 239c1.81 3.44 2.77 7.72 2.77 12.8 0 12.9.38 20.88.83 25.81.62 6.95 1.38 7.83 1.38 7.83s91.01-34.75 97.669-37.52c14.54-6.06 26.98 5.06 26.98 31.42 0 0-20.6 11.86-25.311-.9-2.31-6.26-89.899 34.96-96 41.06s-2.5 36.63-2.5 36.63c-26.78 26.78-45.22 2.49-45.22 2.49V248.47s5.55-19.7 19.7-19.7c9.352 0 16.162 3.52 19.702 10.23zM513.15 399.4c18.85 0 34.13 10.44 34.13 23.31s-15.28 23.3-34.13 23.3c-18.841 0-34.12-10.43-34.12-23.3s15.28-23.31 34.12-23.31z" fill="#fff"/><path d="M558.93 341.14l110.83 110.83c-47.52 19.86-109.16 43.15-109.16 43.15s-46.199 18.729-64.93 0c-9.8-9.8-47.06-57.94-80.34-101.58l143.6-52.4zm-11.65 81.57c0-12.87-15.28-23.31-34.13-23.31-18.841 0-34.12 10.44-34.12 23.31s15.279 23.3 34.12 23.3c18.85 0 34.13-10.43 34.13-23.3z" fill="#c8c8c8"/><g fill="none" stroke="#231f20" stroke-width="21"><path d="M294 292s-166.78 54.69-207.84 69.12c-41.06 14.42-15.53 49.94-15.53 49.94l117.63 213.08s11.1 29.96 47.72 23.301c36.63-6.66 530.48-204.2 530.48-204.2s46.62-23.31 6.66-63.26C740.93 347.8 625.52 224.61 625.52 224.61s-32.18-37.73-68.81-26.63c-36.62 11.1-213.91 79.63-213.91 79.63"/><path d="M299.8 292v66.62s18.44 24.29 45.22-2.49c0 0-3.6-30.53 2.5-36.63s93.69-47.32 96-41.06c4.711 12.76 25.311.9 25.311.9 0-26.36-12.44-37.48-26.98-31.42-6.659 2.77-97.669 37.52-97.669 37.52s-.76-.88-1.38-7.83c-.45-4.93-.83-12.91-.83-25.81 0-5.08-.96-9.36-2.77-12.8-3.54-6.71-10.35-10.23-19.7-10.23-14.15 0-19.7 19.7-19.7 19.7V292z"/><path d="M339.17 239.01s.01 0 .03-.01c1.24-.52 43.87-18.23 46.61-15.5 2.77 2.78-43.84 28.3-43.84 28.3M415.33 393.54l143.6-52.4 110.83 110.83 1.12 1.12"/><path d="M547.28 422.71c0 12.87-15.28 23.3-34.13 23.3-18.841 0-34.12-10.43-34.12-23.3s15.279-23.31 34.12-23.31c18.85 0 34.13 10.44 34.13 23.31z"/><path d="M540.13 245.76c5.82 0 35.37-10.41 54.101 8.32l129.09 129.09s20.18 30.18-2.71 45.16c-7.551 4.939-27.49 13.87-50.851 23.64-47.52 19.86-109.16 43.15-109.16 43.15s-46.199 18.729-64.93 0c-9.8-9.8-47.06-57.94-80.34-101.58-30.28-39.72-57.27-75.71-57.27-75.71M125.99 455.28l230.89-86.92M139.35 480.73l230.9-86.93M154 503.57l230.9-86.92M169.09 530.71l233.51-89.54M181.56 556.1l235.81-91.84M195.03 581.02l241.55-90.89M209.12 606.32l248.27-93.72" stroke-linecap="round" stroke-linejoin="round"/></g><path fill="none" d="M0 0h850.394v850.394H0z"/></svg>