<svg id="Layer_1" xmlns="http://www.w3.org/2000/svg" viewBox="0 0 850 850"><style>.st0{fill:#cc82b7}.st1{fill:#faa41f}.st2{fill:#eedceb}.st3{fill:#ffeec8}.st4{fill:#fff}.st5,.st6,.st7,.st8{fill:none;stroke:#231f20;stroke-width:28;stroke-linecap:round;stroke-miterlimit:10}.st6,.st7,.st8{stroke-width:21}.st7,.st8{stroke-width:14}.st8{stroke-width:13}</style><path class="st0" d="M749.3 526.5l-307.3 74-202-71v-10.2l.3-5 .2-4.8.5-4.7.5-4.5 1-4.5 1.5-4 1-2.5 1.3-2.5 1.7-2.5 1.8-2 2-2 2.2-1.8 2.5-1.5 3-1.2 5-1.5 6.8-1.8 7.7-1.7 9-2 26.3-5 29.7-5.5 23.8-4.5 11.7-2.5 11.5-2.5 11-2.5 10.5-2.8 9.8-2.7 8.7-3 4.3-1.5 4.2-1.3 4-.7 4-1 3.8-.5 4-.3 3.7-.2h7.8l4 .5 8.2 1 8.8 1.5 9.7 2 22.3 4.7 176 46.3 2.2.2 6.5 1.3 4 1 4.8 1.2 5 1.5 5.2 1.8 5.3 2.2 5 2.8 4.7 3 2.3 1.7 2.2 1.8 1.8 2 1.7 2 1.8 2.2 1.2 2.3 1 2.2.8 2.8.7 2.5.3 3z"/><path class="st1" d="M221 472l-88 19.8L94 478V350.5l294-39v62l-3.5 4-22.5-19.7-65.2 11.7-3.8-.2-3.5.2-3.5.8-3.5.7-3.5 1-3.2 1.5-3 1.5-3 2-118.3 22.5 70 72z"/><path class="st2" d="M244 491.8l-1.5 4-1 4.5-.5 4.5-.5 4.7-.2 4.8-.3 5v10.2l-107-37.7 88-19.8.5-.5 18 18.3z"/><path class="st2" d="M266.5 452.3l2.5 2.7 2.5 2.5 2.5 2.3 2.8 2.2 2.5 2 3 1.8 2.7 1.5 3 1.5-9 2-7.7 1.7-6.8 1.8-5 1.5-3 1.2-2.5 1.5-2.2 1.8-2 2-1.8 2-1.7 2.5-1.3 2.5-1 2.5-4.5-2-18-18.3-70-72L269.8 377l-3 2.3-3.5 3.5-3.3 3.5-2.5 4-2 4.2-1.7 4.5-1.3 4.8-.5 4.7-.2 4.8.2 5 .5 5.2 1.3 5 1.5 5 2.2 4.8 2.5 5 3 4.5zM749.3 526.5v79.3H747l-305 81v-86.3z"/><path class="st2" d="M442 600.5v86.3l-2.7.7-.3-.5L94 553.3V478l39 13.8 107 37.7zM384.5 377.5l63 55.8-4 1-4 .7-4.2 1.3-4.3 1.5-8.7 3-9.8 2.7-10.5 2.8-11 2.5-11.5 2.5-11.7 2.5-23.8 4.5 2.5-3.5 2.3-3.5 1.7-4 1.3-4 1-4.3.5-4.2.2-4.5v-4.5l-.5-4.5-1-4.5-1.2-4.5-1.8-4.5-2-4.3-2.2-4.2-3-4.3-3-4-2.3-2.5-2.2-2.2-2.5-2.3-2.3-2-2.5-2-2.7-1.5-2.5-1.7-2.8-1.5-2.7-1.3-2.8-1-2.7-1-2.8-.7-2.7-.8-3-.5-2.8-.5h-2.7l65.2-11.7z"/><path class="st3" d="M296.8 369.5h2.8l2.8.5 3 .5 2.8.8 2.8.8 2.8 1 2.8 1 2.8 1.3 2.8 1.5 2.5 1.8 2.8 1.5 2.5 2 2.3 2 2.5 2.3 2.3 2.3 2.3 2.5 3 4 3 4.3 2.3 4.3 2 4.3 1.8 4.5 1.3 4.5 1 4.5.5 4.5v4.5l-.3 4.5-.5 4.3-1 4.3-1.3 4-1.8 4-2.3 3.5-2.5 3.5-29.8 5.5-26.3 5-3-1.5-2.8-1.5-3-1.8-2.5-2-2.8-2.3-2.5-2.3-2.9-2.9-2.5-2.8-3.5-4.5-3-4.5-2.5-5-2.3-4.8-1.5-5-1.3-5-.5-5.3-.3-5 .3-4.8.5-4.8 1.3-4.8 1.8-4.5 2-4.3 2.5-4 3.3-3.5 3.5-3.5 3-2.3 3-2 3-1.5 3.3-1.5 3.5-1 3.5-.8 3.5-.8 3.5-.3 3.7.8zm35 76.3l-.3-.8-.3-.5-.8-1.3-1.3-.8-1.8-.3-1.5.3-1.3.8-1 1.3-.3.5v1.6l.3.5 1 1.3 1.3.8 1.5.3 1.8-.3 1.3-.8.8-1.3.3-.5.3-.8z"/><path class="st4" d="M622.3 67l6.7.3 6.8.5 6.7 1L649 70l6.5 1.5 6.3 2 6.2 2.3 6 2.5 5.8 2.7 5.7 3 5.5 3.5 5.5 3.8 5.3 3.7 5 4.3 4.7 4.5 4.5 4.7 4.5 4.8 4.3 5.2 3.7 5.3 3.8 5.5 3.5 5.7 3.2 6 3 6 2.5 6.3 2.5 6.2 2 6.8 1.8 6.5 1.5 7 1.2 6.7.8 7.3.5 7 .2 7.2-.2 7.3-.5 7.2-.8 7-1.2 7-1.5 6.8-1.8 6.7-2 6.5-2.5 6.5-2.5 6.3-3 6-3.2 6-3.5 5.7-3.8 5.5-3.7 5.3-4.3 5.2-4.5 4.8-4.5 4.7-4.7 4.5-5 4-5.3 4-5.5 3.8-5.5 3.2-5.7 3.3-5.8 2.7-6 2.5-6.2 2.3-6.3 2-6.5 1.5-6.5 1.2-6.7.8-6.8.7h-13.2l-6.8-.5-6.5-1-6.2-1.2-6.3-1.5-6.2-1.8-6-2-6-2.5-5.8-2.7-5.5-2.8-5.5-3.2-5.2-3.5-5.3-3.8-4.7-4-4.8-4.2-4.7-4.5-4.3-4.8-4.2-4.7-4-5.3-3.8-5.2-3.5-5.5-3.2-5.8-3-5.7-2.8-6-2.5-6-2-6.5-2-6.3-1.7-6.5-1.3-6.7-1-6.8-.7-7-.5-7 2.7-1.2 2.8-1.5 2.5-1.8 2.2-1.7 2.3-2.3 2.2-2 2-2.5 1.8-2.5 1.5-2.7 1.5-2.8 1.2-3 1-3 .8-3 .7-3.2.3-3.5.2-3.3-.2-4.2-.5-4.3-1-4-1.3-4-1.7-3.7-2-3.5-2.3-3.3-2.5-3 2.3-4.2 2.2-4 2.3-4.3 2.5-3.7 2.7-4 2.8-3.8 2.7-3.7 3-3.5 3-3.5 3.3-3.3 3.2-3.2 3.5-3 3.5-3 3.5-3 3.8-2.8 3.7-2.5 4-2.5 3.8-2.2 4.2-2.3 4-2 4.3-2 4.2-1.7 4.3-1.5 4.5-1.5 4.2-1.3 4.5-1.2 4.8-1 4.5-.8 4.7-.5 4.8-.5 4.7-.2z"/><path class="st4" d="M504 144l2.5 3 2.3 3.3 2 3.5 1.7 3.7 1.3 4 1 4 .5 4.3.2 4.2-.2 3.3-.3 3.5-.7 3.2-.8 3-1 3-1.2 3-1.5 2.8-1.5 2.7-1.8 2.5-2 2.5-2.2 2-2.3 2.3-2.2 1.7-2.5 1.8-2.8 1.5-2.7 1.2-.3-6 .3-8.5.7-8.5 1.3-8.2 1.5-8 2.2-8 2.3-7.8 3-7.5z"/><path class="st4" d="M475 131l4.3.3 4 .7 4 1 3.7 1.5 3.5 2 3.5 2.3 3.3 2.5 2.7 2.7-3.2 7.5-3 7.5-2.3 7.8-2.2 8-1.5 8-1.3 8.2-.7 8.5-.3 8.5.3 6-3.5 1.3-3.8 1-3.7.5-3.8.2-4-.2-4.2-.8-3.8-1-3.7-1.5-3.5-1.7-3.3-2.3-3.2-2.5-2.8-2.7-2.7-3-2.3-3.3-2-3.5-1.7-3.7-1.3-4-1-4-.7-4.5-.3-4.3.3-4.5.7-4.2 1-4 1.3-4 1.7-3.8 2-3.5 2.3-3.2 2.7-3.3 2.8-2.7 3.2-2.5 3.3-2 3.5-1.8 3.7-1.5 3.8-1 4.2-.7zM397.3 202.8h2.7l2.5.5 2.3.7 2.2.8 2.3 1.2 2 1.3 2 1.5 1.7 1.7 1.5 1.8 1.5 2.2 1.3 2 1 2.5 1 2.3.5 2.5.5 2.7v5.5l-.5 2.5-.5 2.5-1 2.5-1 2.3-1.3 2.2-1.5 2-1.5 2-1.7 1.5-2 1.8-2 1.2-2.3 1-2.2 1-2.3.8-2.5.2-2.7.3-2.5-.3-2.5-.2-2.3-.8-2.2-1-2.3-1-2-1.2-2-1.8-1.7-1.5-1.5-2-1.5-2-1.3-2.2-1-2.3-1-2.5-.5-2.5-.5-2.5v-5.5l.5-2.7.5-2.5 1-2.3 1-2.5 1.3-2 1.5-2.2 1.5-1.8 1.7-1.7 2-1.5 2-1.3 2.3-1.2 2.2-.8 2.3-.7 2.5-.5z"/><path class="st5" d="M94 313v331.5"/><path class="st6" d="M94 350.5l294-39M757 524.5l-4.7 1.3-3 .7-307.3 74-202-71-107-37.7L94 478M747 605.8l-305 81-2.7.7-4.3 1.3M439 687L94 553.3"/><path class="st5" d="M442 600.5v174.8M749.3 523.8v169.7"/><path class="st6" d="M288 468.8l26.3-5 29.7-5.5 23.8-4.5 11.7-2.5 11.5-2.5 11-2.5 10.5-2.8 9.8-2.7 8.7-3 4.3-1.5 4.2-1.3 4-.7 4-1 3.8-.5 4-.3 3.7-.2h7.8l4 .5 8.2 1 8.8 1.5 9.7 2 22.3 4.7 176 46.3 2.2.2 6.5 1.3 4 1 4.8 1.2 5 1.5 5.2 1.8 5.3 2.2 5 2.8 4.7 3 2.3 1.7 2.2 1.8 1.8 2 1.7 2 1.8 2.2 1.2 2.3 1 2.2.8 2.8.7 2.5.3 3-.3 3.7M240 529.5v-10.2l.3-5 .2-4.8.5-4.7.5-4.5 1-4.5 1.5-4 1-2.5 1.3-2.5 1.7-2.5 1.8-2 2-2 2.2-1.8 2.5-1.5 3-1.2 5-1.5 6.8-1.8 7.7-1.7 9-2"/><path class="st5" d="M388 373.5V282"/><path class="st6" d="M288 468.8l-3-1.5-2.7-1.5-3-1.8-2.5-2-2.8-2.2-2.5-2.3-2.5-2.5-2.5-2.7-3.5-4.5-3-4.5-2.5-5-2.2-4.8-1.5-5-1.3-5-.5-5.2-.2-5 .2-4.8.5-4.7 1.3-4.8 1.7-4.5 2-4.2 2.5-4 3.3-3.5 3.5-3.5 3-2.3 3-2 3-1.5 3.2-1.5 3.5-1 3.5-.7 3.5-.8 3.5-.2 3.8.2h2.7l2.8.5 3 .5 2.7.8 2.8.7 2.7 1 2.8 1 2.7 1.3 2.8 1.5 2.5 1.7 2.7 1.5 2.5 2 2.3 2 2.5 2.3 2.2 2.2 2.3 2.5 3 4 3 4.3 2.2 4.2 2 4.3 1.8 4.5 1.2 4.5 1 4.5.5 4.5v4.5l-.2 4.5-.5 4.2-1 4.3-1.3 4-1.7 4-2.3 3.5-2.5 3.5v.2M133 491.8l88-19.8"/><path class="st7" d="M274.5 423l3.8.5h3.2l3.3-.5 3-.7 2.5-1.5 2.5-2 2-2.3 1.5-2.5M315.5 408.5l3.8.5 3.2.3 3.3-.5 3-1 2.5-1.5 2.5-1.8 2-2.5 1.5-2.5"/><path class="st6" d="M269.8 377l-118.3 22.5 70 72 18 18.3M447.5 433.5v-.2l-63-55.8-22.5-19.7-65.2 11.7h-.3"/><path class="st8" d="M331.8 445.8l-.3.7-.2.5-.8 1.3-1.2.7-1.8.3-1.5-.3-1.2-.7-1-1.3-.3-.5V445l.3-.5 1-1.2 1.2-.8 1.5-.2 1.8.2 1.2.8.8 1.2.2.5z"/><path class="st7" d="M504 144l2.3-4.2 2.2-4 2.3-4.3 2.5-3.7 2.7-4 2.8-3.8 2.7-3.7 3-3.5 3-3.5 3.3-3.3 3.2-3.2 3.5-3 3.5-3 3.5-3 3.8-2.8 3.7-2.5 4-2.5 3.8-2.2 4.2-2.3 4-2 4.3-2 4.2-1.7 4.3-1.5 4.5-1.5 4.2-1.3 4.5-1.2 4.8-1 4.5-.8 4.7-.5 4.8-.5 4.7-.2 4.8-.3 6.7.3 6.8.5 6.7 1L649 70l6.5 1.5 6.3 2 6.2 2.3 6 2.5 5.8 2.7 5.7 3 5.5 3.5 5.5 3.8 5.3 3.7 5 4.3 4.7 4.5 4.5 4.7 4.5 4.8 4.3 5.2 3.7 5.3 3.8 5.5 3.5 5.7 3.2 6 3 6 2.5 6.3 2.5 6.2 2 6.8 1.8 6.5 1.5 7 1.2 6.7.8 7.3.5 7 .2 7.2-.2 7.3-.5 7.2-.8 7-1.2 7-1.5 6.8-1.8 6.7-2 6.5-2.5 6.5-2.5 6.3-3 6-3.2 6-3.5 5.7-3.8 5.5-3.7 5.3-4.3 5.2-4.5 4.8-4.5 4.7-4.7 4.5-5 4-5.3 4-5.5 3.8-5.5 3.2-5.7 3.3-5.8 2.7-6 2.5-6.2 2.3-6.3 2-6.5 1.5-6.5 1.2-6.7.8-6.8.7h-13.2l-6.8-.5-6.5-1-6.2-1.2-6.3-1.5-6.2-1.8-6-2-6-2.5-5.8-2.7-5.5-2.8-5.5-3.2-5.2-3.5-5.3-3.8-4.7-4-4.8-4.2-4.7-4.5-4.3-4.8-4.2-4.7-4-5.3-3.8-5.2-3.5-5.5-3.2-5.8-3-5.7-2.8-6-2.5-6-2-6.5-2-6.3-1.7-6.5-1.3-6.7-1-6.8-.7-7-.5-7"/><path class="st7" d="M504 144l2.5 3 2.3 3.3 2 3.5 1.7 3.7 1.3 4 1 4 .5 4.3.2 4.2-.2 3.3-.3 3.5-.7 3.2-.8 3-1 3-1.2 3-1.5 2.8-1.5 2.7-1.8 2.5-2 2.5-2.2 2-2.3 2.3-2.2 1.7-2.5 1.8-2.8 1.5-2.7 1.2-3.5 1.3-3.8 1-3.7.5-3.8.2-4-.2-4.2-.8-3.8-1-3.7-1.5-3.5-1.7-3.3-2.3-3.2-2.5-2.8-2.7-2.7-3-2.3-3.3-2-3.5-1.7-3.7-1.3-4-1-4-.7-4.5-.3-4.3.3-4.5.7-4.2 1-4 1.3-4 1.7-3.8 2-3.5 2.3-3.2 2.7-3.3 2.8-2.7 3.2-2.5 3.3-2 3.5-1.8 3.7-1.5 3.8-1 4.2-.7 4-.3 4.3.3 4 .7 4 1 3.7 1.5 3.5 2 3.5 2.3 3.3 2.5zM422.3 229.3v2.7l-.5 2.5-.5 2.5-1 2.5-1 2.3-1.3 2.2-1.5 2-1.5 2-1.7 1.5-2 1.8-2 1.2-2.3 1-2.2 1-2.3.8-2.5.2-2.7.3-2.5-.3-2.5-.2-2.3-.8-2.2-1-2.3-1-2-1.2-2-1.8-1.7-1.5-1.5-2-1.5-2-1.3-2.2-1-2.3-1-2.5-.5-2.5-.5-2.5v-5.5l.5-2.7.5-2.5 1-2.3 1-2.5 1.3-2 1.5-2.2 1.5-1.8 1.7-1.7 2-1.5 2-1.3 2.3-1.2 2.2-.8 2.3-.7 2.5-.5h5.2l2.5.5 2.3.7 2.2.8 2.3 1.2 2 1.3 2 1.5 1.7 1.7 1.5 1.8 1.5 2.2 1.3 2 1 2.5 1 2.3.5 2.5.5 2.7z"/></svg>