<svg xmlns="http://www.w3.org/2000/svg" width="850.394" height="850.394" viewBox="0 0 850.394 850.394" overflow="visible"><path fill="#c8c8c8" d="M633.6 78.83v306.94l-354.37-21.72V84.96z"/><path fill="#f6cc4b" d="M747.14 397.62V709.2l-60.77 29.56-.37-.76-20.93 1.05V423.82l-.49-1.66z"/><path fill="#f6cc4b" d="M633.6 385.77l113.54 6.96v4.89l-82.56 24.54-5.58 1.66-556.86-39-10.59-.74 118.13-24.29 69.55 4.26zM362.01 589.22l303.06 36.63v118.12l-562.93-77.83V557.82zM665.07 518.76v107.09l-303.06-36.63V488.45z"/><path fill="#f6cc4b" d="M362.01 488.45l-259.87-25.99v-77.64l556.86 39 5.58-1.66.49 1.66v94.94zM620.36 742.3v32.04h-26.19v-38.66z"/><path fill="#f6cc4b" d="M362.01 488.45v100.77l-259.87-31.4v-95.36zM177.11 683.79v32.03h-26.19v-38.65z"/><g fill="none" stroke="#231f20" stroke-width="21"><path d="M279.23 364.89V84.96l354.37-6.13V388.55"/><path d="M747.87 397.4l-.73.22-82.56 24.54-5.58 1.66-556.86-39-10.59-.74 118.13-24.29 69.55 4.26 354.37 21.72 113.54 6.96V709.2l-60.77 29.56-16.02 7.8"/><path d="M102.14 384.82v281.32l562.93 77.83V423.82"/><path d="M102.14 462.46l259.87 25.99 303.06 30.31M102.14 557.82l259.87 31.4 303.06 36.63"/><path d="M362.02 409.47l-.01 78.98v100.77L362 696M177.11 715.82h-26.19v-38.65l26.19 6.62zM620.36 774.34h-26.19v-38.66l26.19 6.62z"/><path stroke-linecap="round" stroke-linejoin="round" d="M210.91 423.96l37.8 4.29M210.91 516.29l37.8 4.3M210.91 615.12l37.8 4.29M481.4 445.92l37.8 4.3M481.4 538.26l37.8 4.29M481.4 643.71l37.8 4.29"/></g><path fill="none" d="M0 0h850.394v850.394H0z"/></svg>