<?xml version="1.0" encoding="iso-8859-1"?>
<!-- Generator: Adobe Illustrator 12.0.1, SVG Export Plug-In . SVG Version: 6.00 Build 51448)  -->
<!DOCTYPE svg PUBLIC "-//W3C//DTD SVG 1.1//EN" "http://www.w3.org/Graphics/SVG/1.1/DTD/svg11.dtd" [
	<!ENTITY ns_svg "http://www.w3.org/2000/svg">
	<!ENTITY ns_xlink "http://www.w3.org/1999/xlink">
]>
<svg  version="1.1" id="Layer_1" xmlns="&ns_svg;" xmlns:xlink="&ns_xlink;" width="850.394" height="850.394"
	 viewBox="0 0 850.394 850.394" style="overflow:visible;enable-background:new 0 0 850.394 850.394;" xml:space="preserve">
<g id="XMLID_25_">
	<g>
		<path style="fill:#BE0000;" d="M400.22,433.13l37.03,0.14l0.44-0.039c0.72,9.09,0.43,16.319,0.43,16.319l-0.89,151.811h10.51v1.81
			v176.21h-67.77H276.13V574.11c15.24,0.26,40.68-0.69,45.52-5.53c14.08-14.08,15.64-37.57,15.64-37.57V468.03h-61.16V407.9
			l3.49-17.15C279.62,412,337.48,430.2,400.22,433.13z"/>
		<path style="fill:#A800D4;" d="M400.22,433.13c-62.74-2.93-120.6-21.13-120.6-42.38l7.04-34.61l0.36,0.07
			c0,23.22,59.94,42.07,130.58,42.07c2.18,0,4.34-0.02,6.49-0.05c9.36,4.5,12.55,21.73,13.601,35l-0.44,0.039L400.22,433.13z"/>
		<path style="fill:#A800D4;" d="M466.17,430.47c0.85,5.84,1.37,12.601,1.37,20.4c0,39.61,0,150.49,0,150.49h-19.8h-10.51
			l0.89-151.811c0,0,0.29-7.229-0.43-16.319c-1.051-13.271-4.24-30.5-13.601-35c6.25-0.11,12.38-0.36,18.36-0.75
			c3.03-0.19,6.02-0.42,8.96-0.69c0.82-0.07,1.63-0.15,2.439-0.23l0.16,1.72C454.01,398.28,462.74,406.66,466.17,430.47z"/>
		<path style="fill:#A800D4;" d="M526.5,123.16c6.18,30.2-15.15,71.85-40.48,111.02c-19.619,30.34-31.77,44.93-46.789,65.23
			c-5.5-14.45-12.75-30.64-22.221-48.7c6.08-11.97,13.061-24.82,21.04-38.58c8.66-14.9,51.9-92.35,40.24-123.86
			c-0.5-1.33-1.09-2.58-1.79-3.74c-1.89-3.15-5.6-5.73-10.3-7.84l2.49-0.55c20.55-9.22,50.42,21.3,57.06,44.01
			C526.05,121.17,526.3,122.17,526.5,123.16z"/>
		<path style="fill:#A800D4;" d="M370.37,74.75c17.45-6.59,43.48-7.38,43.48-7.38s33.88,1.05,52.35,9.32
			c4.7,2.11,8.41,4.69,10.3,7.84c0.7,1.16,1.29,2.41,1.79,3.74c11.66,31.51-31.58,108.96-40.24,123.86
			c-7.979,13.76-14.96,26.61-21.04,38.58c-6.32-12.07-13.64-24.98-22.08-38.77c-9.37-15.32-55.61-99.01-38.45-127.61
			C358.94,80.24,364.1,77.12,370.37,74.75z"/>
		<path style="fill:#A800D4;" d="M439.23,299.41c20.76,54.58,16.52,84.46,12.18,97.38c-2.94,0.27-5.93,0.5-8.96,0.69v-0.02
			c-14.15-51.62-51.56-83.96-102.96-163.47c-25.32-39.18-39.18-80.82-33-111.02c0.27-1.31,0.64-2.67,1.12-4.05
			c7.82-22.85,42.41-53.69,62.76-44.17c-6.27,2.37-11.43,5.49-13.89,9.58c-17.16,28.6,29.08,112.29,38.45,127.61
			c8.44,13.79,15.76,26.7,22.08,38.77C426.48,268.77,433.73,284.96,439.23,299.41z"/>
		<path style="fill:#BE0000;" d="M424.09,398.23c-2.15,0.03-4.31,0.05-6.49,0.05c-70.64,0-130.58-18.85-130.58-42.07l-0.36-0.07
			l-7.04,34.61l-3.49,17.15l-11.88,58.38l-69.53-9.681c0,0,9.2-34.609,15.84-76.57c9.69-61.16,29.49-173.81,29.49-173.81
			s11.88-63.04,28.16-72.28c9.59-5.45,20.14-8.7,37.38-15.73l2.02,0.71c-0.48,1.38-0.85,2.74-1.12,4.05
			c-6.18,30.2,7.68,71.84,33,111.02c51.4,79.51,88.81,111.85,102.96,163.47v0.02C436.47,397.87,430.34,398.12,424.09,398.23z"/>
		<path style="fill:#A800D4;" d="M553.48,391.48v0.01c-0.021,17.62-40.53,32.72-87.311,38.979c-3.43-23.81-12.16-32.19-12.16-32.19
			l-0.16-1.72c53-5.14,91.67-21.27,91.67-40.35l0.75-0.15L553.48,391.48z"/>
		<path style="fill:#A800D4;" d="M556.86,468.23v105.8c-17.101,0.76-39.7,0.569-45.521-5.25c-14.08-14.08-15.649-37.57-15.649-37.57
			V468.23H556.86z"/>
		<path style="fill:#BE0000;" d="M447.74,779.38V603.17v-1.81h19.8c0,0,0-110.88,0-150.49c0-7.8-0.521-14.561-1.37-20.4
			c46.78-6.26,87.29-21.36,87.311-38.979l3.38,16.61v60.13h-61.17v62.979c0,0,1.569,23.49,15.649,37.57
			c5.82,5.819,28.42,6.01,45.521,5.25v205.54H379.97v-0.19H447.74z"/>
		<path style="fill:#A800D4;" d="M337.29,468.03v62.979c0,0-1.56,23.49-15.64,37.57c-4.84,4.84-30.28,5.79-45.52,5.53V468.03H337.29
			z"/>
		<path style="fill:#BE0000;" d="M546.27,356.06l-0.75,0.15c0,19.08-38.67,35.21-91.67,40.35c-0.81,0.08-1.619,0.16-2.439,0.23
			c4.34-12.92,8.58-42.8-12.18-97.38c15.02-20.3,27.17-34.89,46.789-65.23c25.33-39.17,46.66-80.82,40.48-111.02
			c-0.2-0.99-0.45-1.99-0.75-3.01l1.65-0.5c17.239,7.03,27.779,10.28,37.38,15.73c16.29,9.24,28.16,71.03,28.16,71.03
			s19.8,112.65,29.479,173.82c6.64,41.95,15.84,76.56,15.84,76.56l-69.52,9.69l-11.88-58.38l-3.38-16.61v-0.01L546.27,356.06z"/>
	</g>
	<g>
		<path style="fill:none;stroke:#000000;stroke-width:15.8409;" d="M305.59,118.21c-17.24,7.03-27.79,10.28-37.38,15.73
			c-16.28,9.24-28.16,72.28-28.16,72.28s-19.8,112.65-29.49,173.81c-6.64,41.96-15.84,76.57-15.84,76.57l69.53,9.681l11.88-58.38
			l3.49-17.15l7.04-34.61l13.23-65"/>
		<polyline style="fill:none;stroke:#000000;stroke-width:15.8409;" points="453.02,779.38 447.74,779.38 379.97,779.38 
			276.13,779.38 276.13,574.11 276.13,468.03 276.13,407.9 		"/>
		<path style="fill:none;stroke:#000000;stroke-width:15.8409;" d="M275.36,468.03h0.77h61.16v62.979c0,0-1.56,23.49-15.64,37.57
			c-4.84,4.84-30.28,5.79-45.52,5.53"/>
		<line style="fill:none;stroke:#000000;stroke-width:15.8409;" x1="447.74" y1="603.17" x2="447.74" y2="779.38"/>
		<path style="fill:none;stroke:#000000;stroke-width:15.8409;" d="M370.39,74.76c-0.01,0-0.01-0.01-0.02-0.01
			c-20.35-9.52-54.94,21.32-62.76,44.17c-0.48,1.38-0.85,2.74-1.12,4.05c-6.18,30.2,7.68,71.84,33,111.02
			c51.4,79.51,88.81,111.85,102.96,163.47"/>
		<polyline style="fill:none;stroke:#000000;stroke-width:15.8409;" points="553.48,391.48 546.27,356.06 533.1,291.34 		"/>
		<path style="fill:none;stroke:#000000;stroke-width:15.8409;" d="M527.4,119.65c17.239,7.03,27.779,10.28,37.38,15.73
			c16.29,9.24,28.16,71.03,28.16,71.03s19.8,112.65,29.479,173.82c6.64,41.95,15.84,76.56,15.84,76.56l-69.52,9.69l-11.88-58.38
			l-3.38-16.61"/>
		<polyline style="fill:none;stroke:#000000;stroke-width:15.8409;" points="379.97,779.57 556.86,779.57 556.86,574.03 
			556.86,468.23 556.86,408.1 		"/>
		<path style="fill:none;stroke:#000000;stroke-width:15.8409;" d="M557.62,468.23h-0.76h-61.17v62.979
			c0,0,1.569,23.49,15.649,37.57c5.82,5.819,28.42,6.01,45.521,5.25"/>
		<path style="fill:none;stroke:#000000;stroke-width:15.8409;" d="M478.29,88.27c-0.5-1.33-1.09-2.58-1.79-3.74
			c-1.89-3.15-5.6-5.73-10.3-7.84c-18.47-8.27-52.35-9.32-52.35-9.32s-26.03,0.79-43.48,7.38c-6.27,2.37-11.43,5.49-13.89,9.58
			c-17.16,28.6,29.08,112.29,38.45,127.61c8.44,13.79,15.76,26.7,22.08,38.77c9.471,18.06,16.721,34.25,22.221,48.7
			c20.76,54.58,16.52,84.46,12.18,97.38"/>
		<path style="fill:none;stroke:#000000;stroke-width:15.8409;" d="M416.55,251.62c0.15-0.3,0.3-0.6,0.46-0.91
			c6.08-11.97,13.061-24.82,21.04-38.58c8.66-14.9,51.9-92.35,40.24-123.86"/>
		<path style="fill:none;stroke:#000000;stroke-width:15.8409;" d="M468.69,76.14c20.55-9.22,50.42,21.3,57.06,44.01
			c0.3,1.02,0.55,2.02,0.75,3.01c6.18,30.2-15.15,71.85-40.48,111.02c-19.619,30.34-31.77,44.93-46.789,65.23
			c-0.011,0-0.011,0.01-0.011,0.01"/>
		<path style="fill:none;stroke:#000000;stroke-width:15.8409;" d="M545.52,356.21c0,19.08-38.67,35.21-91.67,40.35
			c-0.81,0.08-1.619,0.16-2.439,0.23c-2.94,0.27-5.93,0.5-8.96,0.69c-5.98,0.39-12.11,0.64-18.36,0.75
			c-2.15,0.03-4.31,0.05-6.49,0.05c-70.64,0-130.58-18.85-130.58-42.07"/>
		<path style="fill:none;stroke:#000000;stroke-width:15.8409;" d="M279.62,390.75c0,21.25,57.86,39.45,120.6,42.38l37.03,0.14"/>
		<path style="fill:none;stroke:#000000;stroke-width:15.8409;" d="M553.48,391.48v0.01c-0.021,17.62-40.53,32.72-87.311,38.979
			h-0.01"/>
		<path style="fill:none;stroke:#000000;stroke-width:15.8409;stroke-linecap:round;stroke-linejoin:round;" d="M454.01,398.28
			c0,0,8.73,8.38,12.16,32.19c0.85,5.84,1.37,12.601,1.37,20.4c0,39.61,0,150.49,0,150.49h-19.8h-10.51l0.89-151.811
			c0,0,0.29-7.229-0.43-16.319c-1.051-13.271-4.24-30.5-13.601-35c-0.01-0.01-0.03-0.01-0.04-0.02"/>
	</g>
</g>
<rect style="fill:none;" width="850.394" height="850.394"/>
</svg>
