<svg xmlns="http://www.w3.org/2000/svg" width="850.394" height="850.394" viewBox="0 0 850.394 850.394" overflow="visible"><path fill="none" d="M368 368.249h113.386v113.386H368z"/><path d="M762.98 157.9L739.4 381.74c0 24.71-34.221 44.74-76.431 44.74-42.2 0-76.43-20.03-76.43-44.74l-23.59-223.85.12-.01c1.37 14.98 45.56 27.02 99.87 27.02s98.5-12.04 99.869-27.02l.172.02z" fill="#faa41a"/><path d="M617.91 471.92c34.26 49.47 56.729 98.09 54.96 156.97-.2 6.551-2.48 60.24-37.09 90.681 0 0-6.57 7.14-12.59 11.67l-8.03 6.02c-6.021 4.53-14.7 8.84-14.7 8.84-38.86 24.811-91.08 12.091-97.43 10.45-39.79-10.229-71.521-30.399-99.98-57.52l.52-.55c-33.8-32.74-33.23-84.771-31.69-98.58 3.24-29.021 18.95-60.311 41.91-72.221 8.73-4.52 24.57-7.359 27.52-17.859 2.4-8.511.29-22.601 11.9-42.66 22.88-39.511 120.21-49.331 164.7 4.759zm-77.05 68.21l55.1 8.771c-23.8-27.561-55.1-8.771-55.1-8.771zm-97.68 102.69l55.101 8.77c-23.801-27.55-55.101-8.77-55.101-8.77z" fill="#ef947d"/><path d="M601.4 449.1c5.75 7.65 11.27 15.24 16.51 22.82-44.49-54.09-141.82-44.27-164.7-4.76-11.61 20.06-9.5 34.149-11.9 42.66-2.949 10.5-18.79 13.34-27.52 17.859-22.96 11.91-38.67 43.2-41.91 72.221-1.54 13.81-2.11 65.84 31.69 98.58l-.52.55c-18.57-17.681-35.75-38.33-52.86-61.09 0 0-45.89-68.11-38.87-117.62 7.01-49.49 37.8-81.49 8.06-121.05C289.65 359.71 133.04 151.02 89.9 98.73l105.34-.7c24.11 34.82 156.29 216.36 185.46 255.16 29.73 39.56 69.02 18.87 118.53 25.89 49.49 7.01 102.17 70.02 102.17 70.02z" fill="#c8c8c8"/><path d="M595.96 548.9l-55.1-8.771c0 .001 31.3-18.789 55.1 8.771zM498.28 651.59l-55.101-8.77c.001 0 31.301-18.78 55.101 8.77z" fill="#fff"/><g fill="none" stroke="#231f20"><path d="M89.9 98.73c43.14 52.29 199.75 260.98 229.48 300.54 29.74 39.56-1.05 71.56-8.06 121.05-7.02 49.51 38.87 117.62 38.87 117.62 17.11 22.76 34.29 43.409 52.86 61.09 28.46 27.12 60.19 47.29 99.98 57.52 6.35 1.641 58.569 14.36 97.43-10.45 0 0 8.68-4.31 14.7-8.84l8.03-6.02c6.02-4.53 12.59-11.67 12.59-11.67 34.609-30.44 36.89-84.13 37.09-90.681 1.77-58.88-20.7-107.5-54.96-156.97-5.24-7.58-10.76-15.17-16.51-22.82 0 0-52.681-63.01-102.17-70.02-49.511-7.02-88.8 13.67-118.53-25.89-29.17-38.8-161.35-220.34-185.46-255.16-.48-.68-.91-1.31-1.3-1.88" stroke-width="21"/><path d="M403.57 698.48c-33.8-32.74-33.23-84.771-31.69-98.58 3.24-29.021 18.95-60.311 41.91-72.221 8.73-4.52 24.57-7.359 27.52-17.859 2.4-8.511.29-22.601 11.9-42.66 22.88-39.51 120.21-49.33 164.7 4.76 3.56 4.33 6.78 9.07 9.6 14.24" stroke-width="21"/><path d="M540.86 540.13s31.3-18.79 55.1 8.771M443.18 642.82s31.301-18.78 55.101 8.77" stroke-width="21" stroke-linecap="round" stroke-linejoin="round"/><path d="M767.98 110.44c0 .55-.061 1.1-.171 1.64-3.06 15.34-48.829 27.51-104.84 27.51-56 0-101.77-12.17-104.85-27.5-.11-.55-.17-1.1-.17-1.65 0-16.11 47.02-29.17 105.02-29.17 57.991 0 105.011 13.06 105.011 29.17zM762.84 157.16c0 .24-.01.48-.03.72-1.369 14.98-45.56 27.02-99.869 27.02-54.311 0-98.5-12.04-99.87-27.02-.021-.24-.03-.48-.03-.72" stroke-width="15.939"/><path d="M557.95 110.44l.17 1.65 4.83 45.8 23.59 223.85c0 24.71 34.229 44.74 76.43 44.74 42.21 0 76.431-20.03 76.431-44.74l23.58-223.84 4.829-45.82.171-1.64" stroke-width="15.939"/></g><path fill="none" d="M0 0h850.394v850.394H0z"/></svg>