<?xml version="1.0" encoding="iso-8859-1"?>
<!-- Generator: Adobe Illustrator 12.0.1, SVG Export Plug-In . SVG Version: 6.00 Build 51448)  -->
<!DOCTYPE svg PUBLIC "-//W3C//DTD SVG 1.1//EN" "http://www.w3.org/Graphics/SVG/1.1/DTD/svg11.dtd" [
	<!ENTITY ns_svg "http://www.w3.org/2000/svg">
	<!ENTITY ns_xlink "http://www.w3.org/1999/xlink">
]>
<svg  version="1.1" id="Layer_1" xmlns="&ns_svg;" xmlns:xlink="&ns_xlink;" width="850.394" height="850.394"
	 viewBox="0 0 850.394 850.394" style="overflow:visible;enable-background:new 0 0 850.394 850.394;" xml:space="preserve">
<rect x="368" y="368.249" style="fill:none;" width="113.386" height="113.386"/>
<g id="XMLID_1_">
	<g>
		<path style="fill:#FAA41A;" d="M762.98,157.9L739.4,381.74c0,24.71-34.221,44.74-76.431,44.74c-42.2,0-76.43-20.03-76.43-44.74
			l-23.59-223.85l0.12-0.01c1.37,14.98,45.56,27.02,99.87,27.02c54.31,0,98.5-12.04,99.869-27.02L762.98,157.9z"/>
		<path style="fill:#EF947D;" d="M617.91,471.92c34.26,49.47,56.729,98.09,54.96,156.97c-0.2,6.551-2.48,60.24-37.09,90.681
			c0,0-6.57,7.14-12.59,11.67l-8.03,6.02c-6.021,4.53-14.7,8.84-14.7,8.84c-38.86,24.811-91.08,12.091-97.43,10.45
			c-39.79-10.229-71.521-30.399-99.98-57.52l0.52-0.55c-33.8-32.74-33.23-84.771-31.69-98.58c3.24-29.021,18.95-60.311,41.91-72.221
			c8.73-4.52,24.57-7.359,27.52-17.859c2.4-8.511,0.29-22.601,11.9-42.66C476.09,427.65,573.42,417.83,617.91,471.92z
			 M540.86,540.13l55.1,8.771C572.16,521.34,540.86,540.13,540.86,540.13z M443.18,642.82l55.101,8.77
			C474.48,624.04,443.18,642.82,443.18,642.82z"/>
		<path style="fill:#C8C8C8;" d="M601.4,449.1c5.75,7.65,11.27,15.24,16.51,22.82c-44.49-54.09-141.82-44.27-164.7-4.76
			c-11.61,20.06-9.5,34.149-11.9,42.66c-2.949,10.5-18.79,13.34-27.52,17.859c-22.96,11.91-38.67,43.2-41.91,72.221
			c-1.54,13.81-2.11,65.84,31.69,98.58l-0.52,0.55c-18.57-17.681-35.75-38.33-52.86-61.09c0,0-45.89-68.11-38.87-117.62
			c7.01-49.49,37.8-81.49,8.06-121.05C289.65,359.71,133.04,151.02,89.9,98.73l105.34-0.7c24.11,34.82,156.29,216.36,185.46,255.16
			c29.73,39.56,69.02,18.87,118.53,25.89C548.72,386.09,601.4,449.1,601.4,449.1z"/>
		<path style="fill:#FFFFFF;" d="M595.96,548.9l-55.1-8.771C540.86,540.13,572.16,521.34,595.96,548.9z"/>
		<path style="fill:#FFFFFF;" d="M498.28,651.59l-55.101-8.77C443.18,642.82,474.48,624.04,498.28,651.59z"/>
	</g>
	<g>
		<path style="fill:none;stroke:#231F20;stroke-width:21;" d="M89.9,98.73c43.14,52.29,199.75,260.98,229.48,300.54
			c29.74,39.56-1.05,71.56-8.06,121.05c-7.02,49.51,38.87,117.62,38.87,117.62c17.11,22.76,34.29,43.409,52.86,61.09
			c28.46,27.12,60.19,47.29,99.98,57.52c6.35,1.641,58.569,14.36,97.43-10.45c0,0,8.68-4.31,14.7-8.84l8.03-6.02
			c6.02-4.53,12.59-11.67,12.59-11.67c34.609-30.44,36.89-84.13,37.09-90.681c1.77-58.88-20.7-107.5-54.96-156.97
			c-5.24-7.58-10.76-15.17-16.51-22.82c0,0-52.681-63.01-102.17-70.02c-49.511-7.02-88.8,13.67-118.53-25.89
			c-29.17-38.8-161.35-220.34-185.46-255.16c-0.48-0.68-0.91-1.31-1.3-1.88"/>
		<path style="fill:none;stroke:#231F20;stroke-width:21;" d="M403.57,698.48c-33.8-32.74-33.23-84.771-31.69-98.58
			c3.24-29.021,18.95-60.311,41.91-72.221c8.73-4.52,24.57-7.359,27.52-17.859c2.4-8.511,0.29-22.601,11.9-42.66
			c22.88-39.51,120.21-49.33,164.7,4.76c3.56,4.33,6.78,9.07,9.6,14.24"/>
		<path style="fill:none;stroke:#231F20;stroke-width:21;stroke-linecap:round;stroke-linejoin:round;" d="M540.86,540.13
			c0,0,31.3-18.79,55.1,8.771"/>
		<path style="fill:none;stroke:#231F20;stroke-width:21;stroke-linecap:round;stroke-linejoin:round;" d="M443.18,642.82
			c0,0,31.301-18.78,55.101,8.77"/>
		<path style="fill:none;stroke:#231F20;stroke-width:15.9393;" d="M767.98,110.44c0,0.55-0.061,1.1-0.171,1.64
			c-3.06,15.34-48.829,27.51-104.84,27.51c-56,0-101.77-12.17-104.85-27.5c-0.11-0.55-0.17-1.1-0.17-1.65
			c0-16.11,47.02-29.17,105.02-29.17C720.96,81.27,767.98,94.33,767.98,110.44z"/>
		<path style="fill:none;stroke:#231F20;stroke-width:15.9393;" d="M762.84,157.16c0,0.24-0.01,0.48-0.03,0.72
			c-1.369,14.98-45.56,27.02-99.869,27.02c-54.311,0-98.5-12.04-99.87-27.02c-0.021-0.24-0.03-0.48-0.03-0.72"/>
		<path style="fill:none;stroke:#231F20;stroke-width:15.9393;" d="M557.95,110.44l0.17,1.65l4.83,45.8l23.59,223.85
			c0,24.71,34.229,44.74,76.43,44.74c42.21,0,76.431-20.03,76.431-44.74l23.58-223.84l4.829-45.82l0.171-1.64"/>
	</g>
</g>
<rect style="fill:none;" width="850.394" height="850.394"/>
</svg>
