<svg xmlns="http://www.w3.org/2000/svg" width="850.394" height="850.394" viewBox="0 0 850.394 850.394" overflow="visible"><path d="M602.68 157.01c11.25 1.94 9.62 8.1 9.62 8.1s.65 6.46-8.88 8.16c-7.729 1.37-23.52-5.12-23.52-5.12s8.09-13.67 22.78-11.14z" fill="#9c5b16"/><path d="M503.26 597.2c-7.479-1.771-16.109-3.98-24.779-6.59-8.62-2.591-17.271-5.57-24.86-8.87 3.62-.59 7.16-1.15 10.5-1.681 28.51-4.52 59.81-16.29 81.939-34.3 25.5-20.75 43.36-51.84 40.671-79.74-.86-9-6.471-15.479-1.011-23.239 4.69-6.67 13.261-9.23 17.23-17.21 14.27-28.64-10.62-58.63-26.42-79.42l2.859-.31c12.65-30.36 54.181-57.25 86.71-58.09v-.01c16.99 3.78 33.58 8.1 45.92 19.63 0 0 51.641 31.56 51.641 106.3 0 72.15-26.96 116.57-67.2 147.7-25.53 19.75-90.979 43.43-150.19 42.14-6.869-.149-13.649-.64-20.279-1.51 0 0-1.021-.18-2.851-.54-3.78-.72-11.02-2.18-19.88-4.26z" fill="#f6cc4b"/><path d="M170.72 485.23c12.78 3.6 37.12 9.819 50.56 8.939-12.29 9.61-23.61 18.18-30.22 22.61-6.01 4.029-12.16 7.84-18.35 11.56-19.68-2.05-28.19-4.25-46.77-11.39-11.01-4.23-27.22-7.641-36.44-15.181-20.61-16.89 33.17-25.93 44.2-26.89h.01c1.17.03 2.37.01 3.6-.04 11.69 1.882 21.9 7.142 33.41 10.392z" fill="#9c5b16"/><path d="M148.91 473.24s91.86-45.61 173.81-85.35l.78 1.62c-6.17 7.2-43.34 50.53-46.63 59.07-.42 1.1-23.95 20.56-47.08 38.89h-.01c-2.85 2.261-5.7 4.511-8.5 6.7-13.44.88-37.78-5.34-50.56-8.939-11.51-3.25-21.72-8.511-33.41-10.391 3.59-.16 7.46-.67 11.6-1.6z" fill="#9c5b16"/><path d="M453.62 581.74c-24.43 3.939-52.93 8.72-52.93 8.72-33.64 3.87-47.73 4.31-71.14 2.66-26.04-1.83-39.7-5.811-65.6-9.05-23.68-2.971-46.12-9.92-70.24-8.07-28.16 2.14-52.15 14.72-77.03 26.75 3.87-8.84 9.88-17.9 18.21-23.22-15.74 6.779-38.88 14.859-49.81 29.43 8.42-21.32 33.28-45.979 52.28-58.81 8.45-5.71 17.21-10.96 25.99-16.2 3.12-1.86 6.25-3.72 9.36-5.61 6.19-3.72 12.34-7.53 18.35-11.56 6.61-4.431 17.93-13 30.22-22.61 2.8-2.189 5.65-4.439 8.5-6.7h.01c23.13-18.33 46.66-37.79 47.08-38.89 3.29-8.54 40.46-51.87 46.63-59.07l-.78-1.62c52.15-25.29 100.29-48.2 118.209-55.46 37.48-15.2 72.9-15.19 97.2-6.84 24.3 8.35 37.21 18.99 37.21 18.99.391.52.79 1.04 1.19 1.57 15.8 20.79 40.689 50.78 26.42 79.42-3.97 7.98-12.54 10.541-17.23 17.21-5.46 7.76.15 14.239 1.011 23.239 2.689 27.9-15.171 58.99-40.671 79.74-22.13 18.01-53.43 29.78-81.939 34.3-3.34.531-6.88 1.091-10.5 1.681z" fill="#9c5b16"/><path d="M758.92 239.62c-18.13 7.1-47.689 1.92-66.61-.59-19.319-2.57-28.439-5.46-50.54-15.18 1.16-.76 2.311-1.52 3.431-2.29 5.5-13.52 6.84-40.25 6.84-40.25l13.32-5.34c3.109 3.19 7.06 6.43 12.489 9.9 19.08 12.18 38.99 24.15 60.771 26.6.92.1 1.82.23 2.72.38l-.29 1.87c-8.18-.3-6.52 9.95-2.56 13.56 5.45 4.98 13.26 6.71 20.49 6.71l3.119 1.78c-.72 1.23-1.76 2.23-3.18 2.85zm-81.28-41.36c-6.77.41-14.699 8.26-4.479 7.78 5.389-.25 11.209-7.55 4.479-7.78zM508.52 693.88l96.811 3.42s-23.91 4.931-27.71 11.771c-3.8 6.83 3.8 23.54 3.8 23.54s-89.59-9.391-91.43-17.78c-3.32-15.061-11.51-124.22-11.51-124.22 8.67 2.609 17.3 4.819 24.779 6.59l5.26 96.679z" fill="#fff400"/><path d="M548.74 649.14l96.83 3.42s-23.931 4.931-27.721 11.771c-3.8 6.83 3.79 23.54 3.79 23.54s-89.58-9.39-91.43-17.78c-1.67-7.609-4.58-39.22-7.07-68.63 1.83.36 2.851.54 2.851.54 6.63.87 13.41 1.36 20.279 1.51l2.471 45.629z" fill="#fff400"/><path d="M575.34 344.58c3.98-8.62-24.25-33.47-34.17-45.4-18.01-21.64-21.95-39.02-26.58-59.41-6.04-26.7-1.07-53.96 14.22-76.68 13.671-20.31 33.03-32.85 56.15-36.97 21.83-3.89 45.41.82 60.62 20.64 9.11 11.86 11.18 20.35 19.78 29.21l-13.32 5.34s-1.34 26.73-6.84 40.25c-1.12.77-2.271 1.53-3.431 2.29-6.449 4.2-13.38 8.18-20.239 11.17-4.59 2.01-8.92 3.75-12.021 7.78-7.89 10.3-1.91 21.39 7.75 28.1 14 9.72 31.62 13.01 48.84 16.84v.01c-32.529.84-74.06 27.73-86.71 58.09l-2.859.31c-.4-.53-.8-1.05-1.19-1.57zm36.96-179.47s1.63-6.16-9.62-8.1c-14.689-2.53-22.779 11.14-22.779 11.14s15.79 6.49 23.52 5.12c9.529-1.7 8.879-8.16 8.879-8.16z" fill="#33a02c"/><g fill="none" stroke="#231f20"><path d="M666.14 175.66l-.779.31-13.32 5.34s-1.34 26.73-6.84 40.25M645.2 221.56c-1.12.77-2.271 1.53-3.431 2.29-6.449 4.2-13.38 8.18-20.239 11.17-4.59 2.01-8.92 3.75-12.021 7.78-7.89 10.3-1.91 21.39 7.75 28.1 14 9.72 31.62 13.01 48.84 16.84 16.99 3.78 33.58 8.1 45.92 19.63 0 0 51.641 31.56 51.641 106.3 0 72.15-26.96 116.57-67.2 147.7-25.53 19.75-90.979 43.43-150.19 42.14-6.869-.149-13.649-.64-20.279-1.51 0 0-1.021-.18-2.851-.54-3.779-.72-11.02-2.18-19.88-4.26-7.479-1.771-16.109-3.98-24.779-6.59-8.62-2.591-17.271-5.57-24.86-8.87-.18-.08-.351-.15-.521-.23" stroke-width="21"/><path d="M148.91 473.24s91.86-45.61 173.81-85.35c52.15-25.29 100.29-48.2 118.209-55.46 37.48-15.2 72.9-15.19 97.2-6.84 24.3 8.35 37.21 18.99 37.21 18.99 3.98-8.62-24.25-33.47-34.17-45.4-18.01-21.64-21.95-39.02-26.58-59.41-6.04-26.7-1.07-53.96 14.22-76.68 13.671-20.31 33.03-32.85 56.15-36.97 21.83-3.89 45.41.82 60.62 20.64 9.11 11.86 11.18 20.35 19.78 29.21 3.109 3.19 7.06 6.43 12.489 9.9 19.08 12.18 38.99 24.15 60.771 26.6.92.1 1.82.23 2.72.38 6.91 1.14 13.25 3.74 18.83 9.01 2.86 2.7 4.57 10.36 1.93 14.91-.72 1.23-1.76 2.23-3.75 3.01l.57-.16c-18.13 7.1-47.689 1.92-66.61-.59-19.319-2.57-28.439-5.46-50.54-15.18-1.72-.76-3.529-1.56-5.43-2.41M133.71 474.88c1.17.03 2.37.01 3.6-.04 3.59-.16 7.46-.67 11.6-1.6M124.89 437.06c-31.93 0-26.81 37.03 8.81 37.82M155.86 426.58c-36.03 0-22.77 40.39 26.14 29.42" stroke-width="21"/><path d="M134.13 474.85c-.13.011-.27.021-.42.03h-.01c-11.03.96-64.81 10-44.2 26.89 9.22 7.54 25.43 10.95 36.44 15.181 18.58 7.14 27.09 9.34 46.77 11.39" stroke-width="21"/><path d="M229.78 487.47c-2.85 2.261-5.7 4.511-8.5 6.7-12.29 9.61-23.61 18.18-30.22 22.61-6.01 4.029-12.16 7.84-18.35 11.56-3.11 1.891-6.24 3.75-9.36 5.61-8.78 5.24-17.54 10.49-25.99 16.2-19 12.83-43.86 37.489-52.28 58.81 10.93-14.57 34.07-22.65 49.81-29.43-8.33 5.319-14.34 14.38-18.21 23.22 24.88-12.03 48.87-24.61 77.03-26.75 24.12-1.85 46.56 5.1 70.24 8.07 25.9 3.239 39.56 7.22 65.6 9.05 23.41 1.649 37.5 1.21 71.14-2.66 0 0 28.5-4.78 52.93-8.72 3.62-.59 7.16-1.15 10.5-1.681 28.51-4.52 59.81-16.29 81.939-34.3 25.5-20.75 43.36-51.84 40.671-79.74-.86-9-6.471-15.479-1.011-23.239 4.69-6.67 13.261-9.23 17.23-17.21 14.27-28.64-10.62-58.63-26.42-79.42-.4-.53-.8-1.05-1.19-1.57" stroke-width="21"/><path d="M323.5 389.51c-6.17 7.2-43.34 50.53-46.63 59.07-.42 1.1-23.95 20.56-47.08 38.89" stroke-width="21"/><path d="M276.87 448.58c35-16.55 87.87-23.11 123.86-3.05 13.36 7.45 28.14 18.52 34.13 32.88 7 16.79 6.84 35.07 6.84 52.97" stroke-width="21"/><path d="M163.34 533.95h.01c.98.18 67.89 12.01 100.65 17.17 28.86 4.56 52.4 0 52.4 0M204.13 511.76c20.43 3.53 44.11 7.55 59.87 10.04 28.86 4.55 52.4 0 52.4 0M229.78 487.47h.01c11.92 2.011 23.33 3.91 32.22 5.311 28.85 4.56 52.39 0 52.39 0" stroke-width="21" stroke-linecap="round" stroke-linejoin="round"/><path d="M579.9 168.15s8.09-13.67 22.779-11.14c11.25 1.94 9.62 8.1 9.62 8.1s.65 6.46-8.88 8.16c-7.729 1.37-23.519-5.12-23.519-5.12z" stroke-width="14"/><path d="M677.64 198.26c-.26-.01-.529-.01-.819 0M677.64 198.26c-6.77.41-14.699 8.26-4.479 7.78 5.389-.25 11.209-7.55 4.479-7.78zM678.73 198.26c-.36-.02-.721-.02-1.091 0" stroke-width="7"/><path d="M741.39 214.73c-.109-.01-.229-.01-.34-.01-8.18-.3-6.52 9.95-2.56 13.56 5.45 4.98 13.26 6.71 20.49 6.71.38 0 .76 0 1.14-.01M478.48 590.61s8.189 109.159 11.51 124.22c1.84 8.39 91.43 17.78 91.43 17.78s-7.6-16.71-3.8-23.54c3.8-6.84 27.71-11.771 27.71-11.771l-96.811-3.42-5.26-96.68v-.01" stroke-width="21"/><path d="M522.81 597.46c.11 1.33.221 2.66.33 4 2.49 29.41 5.4 61.021 7.07 68.63 1.85 8.391 91.43 17.78 91.43 17.78s-7.59-16.71-3.79-23.54c3.79-6.84 27.721-11.771 27.721-11.771l-96.83-3.42-2.471-45.63v-.02M137.19 474.82c.04.01.08.01.12.02 11.69 1.88 21.9 7.141 33.41 10.391 12.78 3.6 37.12 9.819 50.56 8.939M579.39 345.84c12.65-30.36 54.181-57.25 86.71-58.09" stroke-width="21"/></g><path fill="none" d="M0 0h850.394v850.394H0z"/></svg>