<svg xmlns="http://www.w3.org/2000/svg" width="850.394" height="850.394" viewBox="0 0 850.394 850.394" overflow="visible"><path d="M729.56 294.26c33.671 9.95 40.631 31.68 38.141 58.96-1.311 14.34-5.23 30.22-9.25 46.71-11.67 47.879-46.7 197.33-46.7 197.33-10.8 21.9-35.53 8.03-39.7-24.52-5.84-45.54 16.351-101.58 32.7-158.8 13.92-48.73 14.29-105.93 14.09-121.82 3.469.35 7.039 1.05 10.719 2.14z" fill="#fff5b4"/><path d="M728.1 245.8c42.03 22.19 50.21 58.38 39.7 107.43l-.1-.01c2.49-27.28-4.47-49.01-38.141-58.96-3.68-1.09-7.25-1.79-10.72-2.14a54.11 54.11 0 0 0-7.59-.26c-37.52 1.35-64.78 47.47-68.53 54.14l7.141-59.33-.21-.06a37.1 37.1 0 0 0 1.42-9.57c.1-5.95-1.25-11.79-3.9-17.45 0 0 38.89-35.98 80.93-13.79zM468.85 119.71c104.61 19.88 180.83 81.26 170.221 137.09-.12.65-.261 1.3-.41 1.95-28.641-32.49-92.311-69.17-134.75-58.2-48.92 12.65-198.8 22.77-202.3 21.9l-2.66-.38 13.17-91.58-.1-.22c39.169-17.12 96.109-22.1 156.829-10.56z" fill="#fff5b4"/><path d="M312.02 130.27l.1.22-13.17 91.58-5.22 36.28-.65.7c-11.69-10.8-20.69-22.29-26.47-34.03-6.53-13.3-8.93-26.92-6.4-40.22 4.45-23.43 23.49-42.16 51.81-54.53z" fill="#fff5b4"/><path d="M503.91 200.55c42.439-10.97 106.109 25.71 134.75 58.2-12.391 54.55-104.84 82.79-208.24 63.14-57.68-10.96-106.72-34.53-137.34-62.84l.65-.7 5.22-36.28 2.66.38c3.5.87 153.38-9.25 202.3-21.9zm84.79 83.78c1.2-23.18-48.54-44.59-111.09-47.82-62.55-3.22-114.23 12.96-115.42 36.14-1.2 23.19 48.54 44.6 111.09 47.82 62.56 3.23 114.23-12.95 115.42-36.14z" fill="#fff5b4"/><path d="M240.05 281.1c-1-3.56-1.49-7.18-1.43-10.85.05-2.97.46-5.9 1.21-8.77 2.22-8.57 15.37-24.15 24.12-35.53l2.66-.93c5.78 11.74 14.78 23.23 26.47 34.03 30.62 28.31 79.66 51.88 137.34 62.84 103.4 19.65 195.85-8.59 208.24-63.14 5.64 6.39 9.91 12.62 12.41 18.29a37.1 37.1 0 0 1-1.42 9.57c-12.11 42.94-100.08 75.03-206.23 73.28-105.13-1.73-191.35-36.06-203.37-78.79zM276.21 422.12v98.08l-18.9-9.45-3.86-1.94s-3.51-2.619-20.15-16.64c-16.64-14.01-18.39-16.63-17.51-65.68.87-49.04-11.39-69.18-11.39-69.18l.06-1.69c17.16.76 31.32 7.32 37.25 10.49 1.93 1.04 2.98 1.71 2.98 1.71s30.65 16.64 31.52 54.3z" fill="#fff5b4"/><path d="M241.17 347.36l1.77-1.87c1.09 1.01 2.17 2.04 3.23 3.07.41 5.04.82 10.31 1.23 15.78l-5.69 1.77c-5.93-3.17-20.09-9.73-37.25-10.49-13.25-.6-28.28 2.25-42.68 12.78-35.56 26.01-28.22 67.8-26.56 90.5 3.5 47.869 19.98 139.949 26.27 180.399 2 12.811 9.27 50.05-4.46 60.28-34.61 13.87-33.88-18.18-41.08-54.15-9.63-48.17-21.55-127.75-34.73-188.29-14.31-65.68 7-96.91 7-96.91 15.18-29.19 51.38-47.87 87.58-47.87 35.63.001 64.48 33.941 65.37 35.001z" fill="#fff5b4"/><path d="M642.72 346l-38.4 318.99c-10.5 44.37-99.83 92.83-224.771 63.63-98.56-23.021-111.51-77.64-111.51-77.64l-10.73-140.23 18.9 9.45V381.83s-11.86-15.25-27.25-30.54c-.92-.91-1.85-1.83-2.79-2.73-3.12-39.07-5.82-64.59-6.12-67.46 12.02 42.73 98.24 77.06 203.37 78.79 106.15 1.75 194.12-30.34 206.23-73.28l.21.06L642.72 346z" fill="#fff5b4"/><path d="M477.61 236.51c62.55 3.23 112.29 24.64 111.09 47.82-1.19 23.19-52.86 39.37-115.42 36.14-62.55-3.22-112.29-24.63-111.09-47.82 1.19-23.18 52.87-39.36 115.42-36.14z" fill="#231f20"/><g fill="none" stroke="#231f20" stroke-width="21"><path d="M257.31 510.75l10.73 140.23s12.95 54.619 111.51 77.64c124.94 29.2 214.271-19.26 224.771-63.63L642.72 346l7.141-59.33M240.02 280.83l.03.27c.3 2.87 3 28.39 6.12 67.46.41 5.04.82 10.31 1.23 15.78"/><path d="M642.28 346.8s.149-.28.439-.8c3.75-6.67 31.011-52.79 68.53-54.14 2.47-.09 5-.01 7.59.26 3.47.35 7.04 1.05 10.72 2.14 33.671 9.95 40.631 31.68 38.141 58.96-1.311 14.34-5.23 30.22-9.25 46.71-11.67 47.879-46.7 197.33-46.7 197.33-10.8 21.9-35.53 8.03-39.7-24.52-5.84-45.54 16.351-101.58 32.7-158.8 13.92-48.73 14.29-105.93 14.09-121.82-.03-2.77-.08-4.28-.08-4.28"/><path d="M647.17 259.59s38.89-35.98 80.93-13.79c42.03 22.19 50.21 58.38 39.7 107.43M157.03 699.58c13.73-10.23 6.46-47.47 4.46-60.28-6.29-40.45-22.77-132.53-26.27-180.399-1.66-22.7-9-64.49 26.56-90.5 14.4-10.53 29.43-13.38 42.68-12.78 17.16.76 31.32 7.32 37.25 10.49 1.93 1.04 2.98 1.71 2.98 1.71s30.65 16.64 31.52 54.3M157.03 699.58c.79-.32 1.59-.66 2.42-1.021l-3.5 1.75c.38-.219.74-.469 1.08-.729z"/><path d="M241.19 347.39s-.01-.01-.02-.03c-.89-1.06-29.74-35-65.37-35-36.2 0-72.4 18.68-87.58 47.87 0 0-21.31 31.23-7 96.91 13.18 60.54 25.1 140.12 34.73 188.29 7.2 35.971 6.47 68.021 41.08 54.15M248.96 351.29c-.92-.91-1.85-1.83-2.79-2.73-1.06-1.03-2.14-2.06-3.23-3.07l-.04-.04"/><path d="M257.31 510.75l18.9 9.45V381.83s-11.86-15.25-27.25-30.54M204.4 357.31s12.26 20.14 11.39 69.18c-.88 49.05.87 51.67 17.51 65.68 16.64 14.021 20.15 16.64 20.15 16.64l3.86 1.94M239.83 261.48c2.22-8.57 15.37-24.15 24.12-35.53"/><path d="M647.17 259.59c2.65 5.66 4 11.5 3.9 17.45a37.1 37.1 0 0 1-1.42 9.57c-12.11 42.94-100.08 75.03-206.23 73.28-105.13-1.73-191.35-36.06-203.37-78.79-1-3.56-1.49-7.18-1.43-10.85.05-2.97.46-5.9 1.21-8.77"/><path d="M468.85 119.71c104.61 19.88 180.83 81.26 170.221 137.09-.12.65-.261 1.3-.41 1.95-12.391 54.55-104.84 82.79-208.24 63.14-57.68-10.96-106.72-34.53-137.34-62.84-11.69-10.8-20.69-22.29-26.47-34.03-6.53-13.3-8.93-26.92-6.4-40.22 4.45-23.43 23.49-42.16 51.81-54.53 39.169-17.12 96.109-22.1 156.829-10.56z"/><path d="M588.7 284.33c-1.19 23.19-52.86 39.37-115.42 36.14-62.55-3.22-112.29-24.63-111.09-47.82 1.19-23.18 52.87-39.36 115.42-36.14 62.55 3.23 112.29 24.64 111.09 47.82zM312.12 130.49l-13.17 91.58-5.22 36.28M468.85 119.71l42.94 72.96"/><path d="M301.61 222.45c3.5.87 153.38-9.25 202.3-21.9 42.439-10.97 106.109 25.71 134.75 58.2 5.64 6.39 9.91 12.62 12.41 18.29"/></g><path fill="none" d="M0 0h850.394v850.394H0z"/></svg>