<?xml version="1.0" encoding="iso-8859-1"?>
<!-- Generator: Adobe Illustrator 12.0.1, SVG Export Plug-In . SVG Version: 6.00 Build 51448)  -->
<!DOCTYPE svg PUBLIC "-//W3C//DTD SVG 1.1//EN" "http://www.w3.org/Graphics/SVG/1.1/DTD/svg11.dtd" [
	<!ENTITY ns_svg "http://www.w3.org/2000/svg">
	<!ENTITY ns_xlink "http://www.w3.org/1999/xlink">
]>
<svg  version="1.1" id="Layer_1" xmlns="&ns_svg;" xmlns:xlink="&ns_xlink;" width="850.394" height="850.394"
	 viewBox="0 0 850.394 850.394" style="overflow:visible;enable-background:new 0 0 850.394 850.394;" xml:space="preserve">
<g id="XMLID_4_">
	<g>
		<path style="fill:#EF947D;" d="M736.46,283.65c0,0,20.98,27.4,33.95,74c1.399,5.05,2.609,9.95,3.649,14.72
			c-1.18,2.29-14.79,27.16-50.63,22.73C701.26,392.35,696,390,696,390l-3.2,0.35c-3.729-33.59-23.77-60.32-23.77-60.32
			c-14.761-21.18-38.82-36.35-66.25-46.67l0.13-0.34c0,0,11.42-8.38,22.33-26.45c18.5-30.65-0.21-52.61-0.21-52.61l0.04-0.11
			c12.569,4.33,24.899,9.53,36.739,15.7C690.68,234.56,716.7,255.36,736.46,283.65z"/>
		<path style="fill:#EF947D;" d="M778.53,403.61l0.37,6.94c0,0-14.62,30.32-52.21,25.66C704.52,433.48,698,430,698,430l-3.43-0.22
			c0.319-4.58,0.47-9.37,0.41-14.36l-1.83-21.35c-0.091-1.25-0.21-2.49-0.351-3.72L696,390c0,0,5.26,2.35,27.43,5.1
			c35.84,4.43,49.45-20.44,50.63-22.73C776.47,383.5,777.92,393.89,778.53,403.61z"/>
		<path style="fill:#EF947D;" d="M726.69,436.21c37.59,4.66,52.21-25.66,52.21-25.66c0.399,13.91-0.75,29.34-3.881,46.51
			c-2.029,11.171-4.59,21.32-7.34,30.32c-3.64,3.16-24.41,19.2-54.93,3.54C692.88,480.72,688,474,688,474l-2.21-0.55
			c3.77-10.8,7.55-25.601,8.78-43.67L698,430C698,430,704.52,433.48,726.69,436.21z"/>
		<path style="fill:#EF947D;" d="M688,474c0,0,4.88,6.72,24.75,16.92c30.52,15.66,51.29-0.38,54.93-3.54
			c-8.02,26.37-17.529,42.851-19.39,45.94l-2.14-0.4c-10.341,4.45-25.971,7.24-44.48-2.27c-19.88-10.19-29.55-21.631-29.55-21.631
			l-5.08-1.579c3.65-4.33,6.86-8.86,9.55-13.601c0,0,4.601-7.229,9.2-20.39L688,474z"/>
		<path style="fill:#EF947D;" d="M497.47,649.98c-8.79-6.811-22.229-21.45-22.45-41.091C474.76,587.81,478,582,478,582l-0.08-3.62
			c2.021-0.04,4.061-0.09,6.14-0.17c14.57-0.52,31.471-2.49,49.16-5.94c-0.83,2.471-4.85,15.421-5.22,34.9
			c-0.42,20.15,9.95,34.771,16.87,41.58c-15.78,1.37-31.65,1.93-47.4,1.93V649.98z"/>
		<path style="fill:#EF947D;" d="M365.39,551.67c41.61,21.82,71.99,27.561,112.53,26.71L478,582c0,0-3.24,5.81-2.98,26.89
			c0.221,19.641,13.66,34.28,22.45,41.091v0.699c-19.59,0-38.979-0.88-57.75-2.17c-11.77-0.81-23.229-2.399-34.33-4.63l0.8-4.03
			c18.39-20.55,14.06-62.729,14.06-62.729l-51.92-20.55c0,0-1.44,16.59-6.49,28.12c-2.2,5.05-6.35,11.76-10.3,17.71l-1.3-0.431
			c16.31-24.13,14.85-49.729,14.85-49.729L365.39,551.67z"/>
		<path style="fill:#EF947D;" d="M158.92,472.86c0.57-0.051,1.14,0,1.69,0.159c1.56,13.211,4.91,27.131-3.55,38.851l-0.04,0.3
			c-16.09-1.89-32.28-1.93-45.03-1.02c-30.28,2.149-53.24,1.89-36.78-12.99c23.18-20.94,61.88-26.36,83.56-27.72L158.92,472.86z"/>
		<path style="fill:#EF947D;" d="M158.77,470.44c9.67-0.61,15.95-0.4,15.95-0.4s15.34-1.84,41.61,4.45l-0.14,0.6
			c3.98,9.17,6.59,18.76,3.46,28.8c-2.7,8.69-8.55,14.341-12.84,21.681l-2.89,0.05c-12.64-7.3-29.71-11.43-46.9-13.45l0.04-0.3
			c8.46-11.72,5.11-25.64,3.55-38.851c-0.55-0.159-1.12-0.21-1.69-0.159L158.77,470.44z"/>
		<path style="fill:#EF947D;" d="M268.21,493.58l-0.83,1.7c12.26,23.79-15.86,56.239-29.56,59.12l-0.39,0.439
			c-10.9-9.58-18.94-17.47-23.77-22.06c-2.81-2.67-6.09-5.05-9.74-7.16l2.89-0.05c4.29-7.34,10.14-12.99,12.84-21.681
			c3.13-10.04,0.52-19.63-3.46-28.8l0.14-0.6C230.62,477.91,248.15,483.73,268.21,493.58z"/>
		<path style="fill:#EF947D;" d="M321.02,525.31l-1,1.591c2.16,11.649-1.86,28.25-4.31,33.979c-5.45,12.771-15.54,25.46-27.6,32.86
			c-20.56-13.55-37.66-27.431-50.68-38.9l0.39-0.439c13.7-2.881,41.82-35.33,29.56-59.12l0.83-1.7
			c12.29,6.02,25.53,13.56,39.55,22.97C312.32,519.61,316.73,522.53,321.02,525.31z"/>
		<path style="fill:#EF947D;" d="M365.39,551.67l-0.3,0.57c0,0,1.46,25.6-14.85,49.729c-3.53,5.21-7.89,10.36-13.27,15.17
			l-1.55,3.271c-17.28-8.12-33.12-17.32-47.31-26.67c12.06-7.4,22.15-20.09,27.6-32.86c2.45-5.729,6.47-22.33,4.31-33.979l1-1.591
			C337.45,535.97,352,544.65,365.39,551.67z"/>
		<path style="fill:#EF947D;" d="M586.44,640.59l0.369,2.37c-13.79,2.69-27.829,4.57-41.939,5.79
			c-6.92-6.81-17.29-21.43-16.87-41.58c0.37-19.479,4.39-32.43,5.22-34.9c13.09-2.55,26.62-5.909,39.96-10.109l0.66,2.12
			c-1.189,3.239-5.42,16.18-5.359,35.399C568.54,621.57,578.25,634,586.44,640.59z"/>
		<path style="fill:#EF947D;" d="M614.77,549.55c0,0-0.609,14.96,7.141,35.91c7.2,19.51,24.96,29.41,35.58,33.12l0.43,0.88
			c-22.31,11.16-46.32,18.65-71.11,23.5l-0.369-2.37c-8.19-6.59-17.9-19.02-17.96-40.91c-0.061-19.22,4.17-32.16,5.359-35.399
			l-0.66-2.12c12.53-3.94,24.9-8.61,36.601-14.03L614.77,549.55z"/>
		<path style="fill:#EF947D;" d="M649.81,527.77c0,0-0.6,14.961,7.141,35.931c7.58,20.53,20.97,28.87,30.92,32.25l2.92,3.3
			c-10.42,7.79-21.42,14.48-32.87,20.21l-0.43-0.88c-10.62-3.71-28.38-13.61-35.58-33.12c-7.75-20.95-7.141-35.91-7.141-35.91
			l-4.989-1.42c13.12-6.08,25.39-13.11,36.1-21.09L649.81,527.77z"/>
		<path style="fill:#EF947D;" d="M701.67,530.65c18.51,9.51,34.14,6.72,44.48,2.27l2.14,0.4c-0.21,0.35-0.32,0.529-0.32,0.529
			c-15.71,27.57-35.17,48.94-57.18,65.4l-2.92-3.3c-9.95-3.38-23.34-11.72-30.92-32.25c-7.74-20.97-7.141-35.931-7.141-35.931
			l-3.93-0.729c8.04-5.99,15.19-12.521,21.16-19.6l5.08,1.579C672.12,509.02,681.79,520.46,701.67,530.65z"/>
		<path style="fill:#EF947D;" d="M625.03,203.96c0,0,18.71,21.96,0.21,52.61c-10.91,18.07-22.33,26.45-22.33,26.45l-0.13,0.34
			c-12.54-4.71-25.78-8.42-39.16-11.21l0.41-1.98c0,0,9.149-10.81,15.56-30.93c10.87-34.1-12.51-49.12-12.51-49.12l0.08-0.53
			c19.31,3.07,38.89,7.69,57.91,14.26L625.03,203.96z"/>
		<path style="fill:#EF947D;" d="M567.08,190.12c0,0,23.38,15.02,12.51,49.12c-6.41,20.12-15.56,30.93-15.56,30.93l-0.41,1.98
			c-12.851-2.69-25.82-4.54-38.42-5.66l0.04-0.46c0,0,9.149-10.8,15.569-30.92c10.86-34.1-12.5-49.12-12.5-49.12l0.04-0.65
			c12.641,0.78,25.66,2.16,38.811,4.25L567.08,190.12z"/>
		<path style="fill:#EF947D;" d="M489.99,264.25c0,0,6-12.82,6.92-33.92c1.55-35.76-24.93-44.13-24.93-44.13l-0.051-0.71
			c17.13-1.19,36.29-1.41,56.42-0.15l-0.04,0.65c0,0,23.36,15.02,12.5,49.12c-6.42,20.12-15.569,30.92-15.569,30.92l-0.04,0.46
			c-12.24-1.08-24.13-1.47-35.2-1.27L489.99,264.25z"/>
		<path style="fill:#EF947D;" d="M471.98,186.2c0,0,26.479,8.37,24.93,44.13c-0.92,21.1-6.92,33.92-6.92,33.92l0.01,0.97
			c-3.51,0.07-6.93,0.2-10.26,0.39c-9.98,0.56-18.99,1.4-27.351,2.56c1.721-4.54,5.32-15.75,6.011-31.67
			c1.479-33.81-23-45.02-25.66-46.14c11.109-2.11,24.399-3.85,39.189-4.87L471.98,186.2z"/>
		<path style="fill:#EF947D;" d="M432.74,190.36c2.66,1.12,27.14,12.33,25.66,46.14c-0.69,15.92-4.29,27.13-6.011,31.67
			c-15.109,2.1-28.09,5.21-40.729,9.53l-0.06-0.19c0,0,3.6-13.7,0.72-34.61c-4.88-35.46-32.45-38.94-32.45-38.94
			c14.02-4.46,28.45-8.17,44.71-11.9C427.15,191.47,429.87,190.9,432.74,190.36z"/>
		<path style="fill:#EF947D;" d="M412.32,242.9c2.88,20.91-0.72,34.61-0.72,34.61l0.06,0.19c-11.78,4.02-23.26,9.08-35.92,15.31
			l-0.92-2.52c0,0,3.61-13.69,0.72-34.61c-4.2-30.54-25.22-37.36-30.98-38.66c12.02-5.25,23.52-9.52,35.31-13.26
			C379.87,203.96,407.44,207.44,412.32,242.9z"/>
		<path style="fill:#EF947D;" d="M375.54,255.88c2.89,20.92-0.72,34.61-0.72,34.61l0.92,2.52c-2.25,1.1-4.54,2.25-6.87,3.43
			c0,0-26.5,21.09-53.54,27.04c-22.75,5.01-42.18-17.43-42.18-38.94c0-17.9,15.82-38.67,31.91-47.59
			c14.32-7.93,27.19-14.34,39.5-19.73C350.32,218.52,371.34,225.34,375.54,255.88z"/>
		<path style="fill:#231F20;" d="M420.25,577.12c0,0,4.33,42.18-14.06,62.729l-64.54-23.42c0,0,4.79-6.39,9.89-14.029
			c3.95-5.95,8.1-12.66,10.3-17.71c5.05-11.53,6.49-28.12,6.49-28.12L420.25,577.12z"/>
	</g>
	<g>
		<path style="fill:none;stroke:#231F20;stroke-width:21;" d="M365.09,552.24c0,0,1.46,25.6-14.85,49.729
			c-3.53,5.21-7.89,10.36-13.27,15.17"/>
		<path style="fill:none;stroke:#231F20;stroke-width:21;" d="M690.79,599.25c-10.42,7.79-21.42,14.48-32.87,20.21
			c-22.31,11.16-46.32,18.65-71.11,23.5c-13.79,2.69-27.829,4.57-41.939,5.79c-15.78,1.37-31.65,1.93-47.4,1.93
			c-19.59,0-38.979-0.88-57.75-2.17c-11.77-0.81-23.229-2.399-34.33-4.63c-25.26-5.08-48.71-13.46-69.97-23.47
			c-17.28-8.12-33.12-17.32-47.31-26.67c-20.56-13.55-37.66-27.431-50.68-38.9c-10.9-9.58-18.94-17.47-23.77-22.06
			c-2.81-2.67-6.09-5.05-9.74-7.16c-12.64-7.3-29.71-11.43-46.9-13.45c-16.09-1.89-32.28-1.93-45.03-1.02
			c-30.28,2.149-53.24,1.89-36.78-12.99c23.18-20.94,61.88-26.36,83.56-27.72c9.67-0.61,15.95-0.4,15.95-0.4s15.34-1.84,41.61,4.45
			c14.29,3.42,31.82,9.24,51.88,19.09c12.29,6.02,25.53,13.56,39.55,22.97c4.56,3.061,8.97,5.98,13.26,8.76
			c16.43,10.66,30.98,19.341,44.37,26.36c41.61,21.82,71.99,27.561,112.53,26.71c2.021-0.04,4.061-0.09,6.14-0.17
			c14.57-0.52,31.471-2.49,49.16-5.94c13.09-2.55,26.62-5.909,39.96-10.109c12.53-3.94,24.9-8.61,36.601-14.03
			c13.12-6.08,25.39-13.11,36.1-21.09c8.04-5.99,15.19-12.521,21.16-19.6c3.65-4.33,6.86-8.86,9.55-13.601
			c0,0,4.601-7.229,9.2-20.39c3.77-10.8,7.55-25.601,8.78-43.67c0.319-4.58,0.47-9.37,0.41-14.36l-1.83-21.35
			c-0.091-1.25-0.21-2.49-0.351-3.72c-3.729-33.59-23.77-60.32-23.77-60.32c-14.761-21.18-38.82-36.35-66.25-46.67
			c-12.54-4.71-25.78-8.42-39.16-11.21c-12.851-2.69-25.82-4.54-38.42-5.66c-12.24-1.08-24.13-1.47-35.2-1.27
			c-3.51,0.07-6.93,0.2-10.26,0.39c-9.98,0.56-18.99,1.4-27.351,2.56c-15.109,2.1-28.09,5.21-40.729,9.53
			c-11.78,4.02-23.26,9.08-35.92,15.31c-2.25,1.1-4.54,2.25-6.87,3.43c0,0-26.5,21.09-53.54,27.04
			c-22.75,5.01-42.18-17.43-42.18-38.94c0-17.9,15.82-38.67,31.91-47.59c14.32-7.93,27.19-14.34,39.5-19.73
			c12.02-5.25,23.52-9.52,35.31-13.26c14.02-4.46,28.45-8.17,44.71-11.9c2.57-0.59,5.29-1.16,8.16-1.7
			c11.109-2.11,24.399-3.85,39.189-4.87c17.13-1.19,36.29-1.41,56.42-0.15c12.641,0.78,25.66,2.16,38.811,4.25
			c19.31,3.07,38.89,7.69,57.91,14.26c12.569,4.33,24.899,9.53,36.739,15.7c28.87,15.01,54.891,35.81,74.65,64.1
			c0,0,20.98,27.4,33.95,74c1.399,5.05,2.609,9.95,3.649,14.72c2.41,11.13,3.86,21.52,4.471,31.24l0.37,6.94
			c0.399,13.91-0.75,29.34-3.881,46.51c-2.029,11.171-4.59,21.32-7.34,30.32c-8.02,26.37-17.529,42.851-19.39,45.94
			c-0.21,0.35-0.32,0.529-0.32,0.529C732.26,561.42,712.8,582.79,690.79,599.25"/>
		<path style="fill:none;stroke:#231F20;stroke-width:21;" d="M343.1,216.94c0,0,0.53,0.07,1.46,0.28
			c5.76,1.3,26.78,8.12,30.98,38.66c2.89,20.92-0.72,34.61-0.72,34.61"/>
		<path style="fill:none;stroke:#231F20;stroke-width:21;" d="M379.87,203.96c0,0,27.57,3.48,32.45,38.94
			c2.88,20.91-0.72,34.61-0.72,34.61"/>
		<path style="fill:none;stroke:#231F20;stroke-width:21;" d="M432.5,190.26c0,0,0.08,0.03,0.24,0.1
			c2.66,1.12,27.14,12.33,25.66,46.14c-0.69,15.92-4.29,27.13-6.011,31.67c-0.56,1.48-0.92,2.25-0.92,2.25"/>
		<path style="fill:none;stroke:#231F20;stroke-width:21;" d="M471.98,186.2c0,0,26.479,8.37,24.93,44.13
			c-0.92,21.1-6.92,33.92-6.92,33.92"/>
		<path style="fill:none;stroke:#231F20;stroke-width:21;" d="M528.31,185.99c0,0,23.36,15.02,12.5,49.12
			c-6.42,20.12-15.569,30.92-15.569,30.92"/>
		<path style="fill:none;stroke:#231F20;stroke-width:21;" d="M567.08,190.12c0,0,23.38,15.02,12.51,49.12
			c-6.41,20.12-15.56,30.93-15.56,30.93"/>
		<path style="fill:none;stroke:#231F20;stroke-width:21;" d="M625.03,203.96c0,0,18.71,21.96,0.21,52.61
			c-10.91,18.07-22.33,26.45-22.33,26.45"/>
		<path style="fill:none;stroke:#231F20;stroke-width:21;" d="M661.25,218.91c0,0,0.21,0.22,0.56,0.64
			c3.03,3.63,16.771,22.59,0.181,50.04c-10.91,18.08-22.33,26.47-22.33,26.47"/>
		<path style="fill:none;stroke:#231F20;stroke-width:21;" d="M717.54,262.34c0,0,7.07,28.48-23.66,48
			C675.74,321.85,670,322,670,322"/>
		<path style="fill:none;stroke:#231F20;stroke-width:21;" d="M744.01,296.26c0,0,8.17,23.09-22.569,42.61
			C703.3,350.38,689.1,352.85,689.1,352.85"/>
		<path style="fill:none;stroke:#231F20;stroke-width:21;" d="M774.14,372.2c0,0-0.029,0.06-0.08,0.17
			c-1.18,2.29-14.79,27.16-50.63,22.73C701.26,392.35,696,390,696,390"/>
		<path style="fill:none;stroke:#231F20;stroke-width:21;" d="M778.9,410.55c0,0-14.62,30.32-52.21,25.66
			C704.52,433.48,698,430,698,430"/>
		<path style="fill:none;stroke:#231F20;stroke-width:21;" d="M768.25,486.87c0,0-0.19,0.189-0.57,0.51
			c-3.64,3.16-24.41,19.2-54.93,3.54C692.88,480.72,688,474,688,474"/>
		<path style="fill:none;stroke:#231F20;stroke-width:21;" d="M746.15,532.92c-10.341,4.45-25.971,7.24-44.48-2.27
			c-19.88-10.19-29.55-21.631-29.55-21.631"/>
		<path style="fill:none;stroke:#231F20;stroke-width:21;" d="M687.87,595.95c-9.95-3.38-23.34-11.72-30.92-32.25
			c-7.74-20.97-7.141-35.931-7.141-35.931"/>
		<path style="fill:none;stroke:#231F20;stroke-width:21;" d="M657.49,618.58c-10.62-3.71-28.38-13.61-35.58-33.12
			c-7.75-20.95-7.141-35.91-7.141-35.91"/>
		<path style="fill:none;stroke:#231F20;stroke-width:21;" d="M586.44,640.59c-8.19-6.59-17.9-19.02-17.96-40.91
			c-0.061-19.22,4.17-32.16,5.359-35.399c0.19-0.53,0.3-0.8,0.3-0.8"/>
		<path style="fill:none;stroke:#231F20;stroke-width:21;" d="M544.99,648.87c-0.04-0.04-0.08-0.08-0.12-0.12
			c-6.92-6.81-17.29-21.43-16.87-41.58c0.37-19.479,4.39-32.43,5.22-34.9c0.101-0.279,0.15-0.43,0.15-0.43"/>
		<path style="fill:none;stroke:#231F20;stroke-width:21;" d="M497.47,649.98c-8.79-6.811-22.229-21.45-22.45-41.091
			C474.76,587.81,478,582,478,582"/>
		<path style="fill:none;stroke:#231F20;stroke-width:21;" d="M320.02,526.9c2.16,11.649-1.86,28.25-4.31,33.979
			c-5.45,12.771-15.54,25.46-27.6,32.86c-0.18,0.109-0.36,0.22-0.54,0.33"/>
		<path style="fill:none;stroke:#231F20;stroke-width:21;" d="M267.38,495.28c12.26,23.79-15.86,56.239-29.56,59.12"/>
		<path style="fill:none;stroke:#231F20;stroke-width:21;" d="M216.19,475.09c3.98,9.17,6.59,18.76,3.46,28.8
			c-2.7,8.69-8.55,14.341-12.84,21.681"/>
		<path style="fill:none;stroke:#231F20;stroke-width:21;" d="M158.5,472.92c0.14-0.02,0.28-0.04,0.42-0.06
			c0.57-0.051,1.14,0,1.69,0.159c1.56,13.211,4.91,27.131-3.55,38.851"/>
		<path style="fill:none;stroke:#231F20;stroke-width:21;" d="M351.54,602.4c3.95-5.95,8.1-12.66,10.3-17.71
			c5.05-11.53,6.49-28.12,6.49-28.12l51.92,20.55c0,0,4.33,42.18-14.06,62.729l-64.54-23.42
			C341.65,616.43,346.44,610.04,351.54,602.4z"/>
	</g>
</g>
<rect style="fill:none;" width="850.394" height="850.394"/>
</svg>
