<svg xmlns="http://www.w3.org/2000/svg" width="850.394" height="850.394" viewBox="0 0 850.394 850.394" overflow="visible"><path d="M419.4 225.22V91.43l.03-1.26c148.18 3.07 284.22 99.97 330.129 249.39 57.29 186.4-47.38 384-233.79 441.27-32.05 9.85-64.409 14.91-96.339 15.59l-.03-1.28V639.38c1 .11 2 .2 3.01.26l.02 2.021c114.5-.101 207.28-92.94 207.28-207.46 0-114.58-92.88-207.46-207.47-207.46-.95 0-1.9.01-2.84.02v-1.541z" fill="#ed1d31"/><path d="M422.24 226.74c114.59 0 207.47 92.88 207.47 207.46 0 114.52-92.78 207.359-207.28 207.46l-.02-2.021c-1.01-.06-2.01-.149-3.01-.26v-91.76c1.06.03 2.13.05 3.21.05 59.32 0 107.41-48.1 107.41-107.42s-48.09-107.41-107.41-107.41c-1.08 0-2.15.05-3.21.15V226.76c.94-.01 1.89-.02 2.84-.02z" fill="#faa41f"/><path d="M422.61 332.84c59.32 0 107.41 48.09 107.41 107.41 0 59.32-48.09 107.42-107.41 107.42-1.08 0-2.15-.02-3.21-.05V332.99c1.06-.1 2.13-.15 3.21-.15z" fill="#ffffc2"/><path d="M268 326.7c7.43-31.07 17.87-61.33 31.41-90.04 26.85-56.95 65.86-107.77 117.7-146.53h.01c.77.01 1.54.02 2.31.04l-.03 1.26v133.79c-59.2 6.57-106.1 96.77-106.1 207.089 0 110.311 46.9 200.5 106.1 207.07v155.76C346.91 748.8 297.18 670.97 272.36 581.9c-13.82-49.641-19.91-102.761-17.89-155.881 1.27-33.399 5.75-66.799 13.53-99.319z" fill="#ed1d31"/><path d="M268 326.7c-7.78 32.52-12.26 65.92-13.53 99.319L254 426c-28.82 20.99-90.4-24.19-101.09 61.8-3.71 29.91 32.79 65.5 53.29 79.49 30.12 20.56 36.49 11.05 65.8 14.71l.36-.1c24.82 89.07 74.55 166.9 147.04 213.24l.03 1.28c-153.85 3.3-297.49-95.02-344.93-249.38-51.32-166.98 27.3-342.9 178.23-418.94l.38.75c-8.03 10.12-25.27 51.5-13.65 62.67 14.12 13.56 27.68-1.38 35.77 21.94 2.21 6.36-3.32 13.36 1.47 18.63 5.39 5.94 14.22 5.06 21.3 3.91l1.41.66c-13.54 28.71-23.98 58.97-31.41 90.04z" fill="#a9d7f3"/><path d="M418.64 547.59c.25.021.5.021.76.03v91.76c-59.2-6.57-106.1-96.76-106.1-207.07 0-110.319 46.9-200.52 106.1-207.089V332.991c-31.67 2.99-56.84 49.87-56.84 107.26 0 56.95 24.78 103.54 56.09 107.19l-.01.149z" fill="#faa41f"/><path d="M419.4 332.99v214.63c-.26-.01-.51-.01-.76-.03l.01-.149c-31.31-3.65-56.09-50.24-56.09-107.19 0-57.391 25.17-104.271 56.84-107.261z" fill="#ffffc2"/><path d="M308.29 105.77c36.22-11.13 72.86-16.15 108.82-15.64-51.84 38.76-90.85 89.58-117.7 146.53L298 236c-7.08 1.15-15.91 2.03-21.3-3.91-4.79-5.27.74-12.27-1.47-18.63-8.09-23.32-21.65-8.38-35.77-21.94-11.62-11.17 5.62-52.55 13.65-62.67l-.38-.75a354.33 354.33 0 0 1 55.56-22.33z" fill="#fff"/><path d="M272.36 581.9l-.36.1c-29.31-3.66-35.68 5.85-65.8-14.71-20.5-13.99-57-49.58-53.29-79.49C163.6 401.81 225.18 446.99 254 426l.47.02c-2.02 53.12 4.07 106.24 17.89 155.88z" fill="#6ebe44"/><g fill="none" stroke="#221e1f"><path d="M417.12 90.13c.77.01 1.54.02 2.31.04 148.18 3.07 284.22 99.97 330.129 249.39 57.29 186.4-47.38 384-233.79 441.27-32.05 9.85-64.409 14.91-96.339 15.59-153.85 3.3-297.49-95.02-344.93-249.38-51.32-166.98 27.3-342.9 178.23-418.94a354.33 354.33 0 0 1 55.56-22.33c36.22-11.13 72.86-16.15 108.82-15.64" stroke-width="22.736"/><path d="M253.11 128.85c-8.03 10.12-25.27 51.5-13.65 62.67 14.12 13.56 27.68-1.38 35.77 21.94 2.21 6.36-3.32 13.36 1.47 18.63 5.39 5.94 14.22 5.06 21.3 3.91M254 426c-28.82 20.99-90.4-24.19-101.09 61.8-3.71 29.91 32.79 65.5 53.29 79.49 30.12 20.56 36.49 11.05 65.8 14.71" stroke-width="15.157"/><path d="M311.41 726.92c-19.7-21.16-35.65-30.5-37.47-60.63-1.09-17.89-7.07-39.53 16.06-30.29M270 326c-.78.27-1.43.5-2 .7-4.73 1.71-2.96 1.53-9.21 4.67-32.86 16.52-69.67 29.28-106.48 15.1-29.27-11.28-39.69-39.4-24.68-68.58" stroke-width="7.579"/><path d="M419.4 88.43c-.76.56-1.52 1.13-2.28 1.7h-.01c-51.84 38.76-90.85 89.58-117.7 146.53-13.54 28.71-23.98 58.97-31.41 90.04-7.78 32.52-12.26 65.92-13.53 99.319-2.02 53.12 4.07 106.24 17.89 155.881 24.82 89.07 74.55 166.9 147.04 213.24" stroke-width="22.736"/><path stroke-width="7.579" d="M419.4 636.93V795.14"/><path stroke-width="7" d="M419.4 91.43v545.5"/><path d="M415.68 226.84c1.24-.04 2.48-.07 3.72-.08.94-.01 1.89-.02 2.84-.02 114.59 0 207.47 92.88 207.47 207.46 0 114.52-92.78 207.359-207.28 207.46h-.19" stroke-width="14"/><path d="M418.65 547.44c-31.31-3.65-56.09-50.24-56.09-107.19 0-57.39 25.17-104.27 56.84-107.26 1.06-.1 2.13-.15 3.21-.15" stroke-width="14"/><path d="M422.61 332.84c59.32 0 107.41 48.09 107.41 107.41 0 59.32-48.09 107.42-107.41 107.42-1.08 0-2.15-.02-3.21-.05-.26-.01-.51-.01-.76-.03-1.04-.03-2.07-.08-3.1-.149" stroke-width="14"/><path d="M422.13 224.98c-.91.06-1.82.14-2.73.24-59.2 6.57-106.1 96.77-106.1 207.089 0 110.311 46.9 200.5 106.1 207.07 1 .11 2 .2 3.01.26" stroke-width="14"/></g><path fill="#fff" stroke="#231f20" stroke-width="21" d="M775.072 78.924l-99.183 77.201"/><path fill="none" stroke="#231f20" stroke-width="21" d="M747.939 172.373l-80.638-12.319 6.27-81.383"/><path fill="none" d="M0 0h850.394v850.394H0z"/></svg>