<?xml version="1.0" encoding="iso-8859-1"?>
<!-- Generator: Adobe Illustrator 12.0.1, SVG Export Plug-In . SVG Version: 6.00 Build 51448)  -->
<!DOCTYPE svg PUBLIC "-//W3C//DTD SVG 1.1//EN" "http://www.w3.org/Graphics/SVG/1.1/DTD/svg11.dtd" [
	<!ENTITY ns_svg "http://www.w3.org/2000/svg">
	<!ENTITY ns_xlink "http://www.w3.org/1999/xlink">
]>
<svg  version="1.1" id="Layer_1" xmlns="&ns_svg;" xmlns:xlink="&ns_xlink;" width="850.394" height="850.394"
	 viewBox="0 0 850.394 850.394" style="overflow:visible;enable-background:new 0 0 850.394 850.394;" xml:space="preserve">
<g id="XMLID_5_">
	<g>
		<path style="fill:#9C5C25;" d="M400.1,175.74c0,3.24,2.74,5.86,6.14,5.86c3.38,0,6.12-2.62,6.12-5.86c0-3.24-2.74-5.86-6.12-5.86
			C402.84,169.88,400.1,172.5,400.1,175.74z M447.01,182.4c3.391,0,6.13-2.62,6.13-5.86c0-3.24-2.739-5.86-6.13-5.86
			c-3.39,0-6.13,2.62-6.13,5.86C440.88,179.78,443.62,182.4,447.01,182.4z M424.2,207.49c-0.01,0-0.02,0-0.02,0
			c-15.49-0.65-27.81-11.19-27.81-24.09c0-13.32,13.13-24.11,29.32-24.11s29.32,10.79,29.32,24.11c0,12.86-12.24,23.37-27.66,24.08
			c-1.05,0-1.66,0.04-1.66,0.04s-0.28-0.02-0.79-0.02C424.7,207.49,424.47,207.49,424.2,207.49z"/>
		<path style="fill:#231F20;" d="M439.82,756.22c7.83-29.739,5.33-162.58,5.33-162.58l-0.471-1.359
			c10.84-3.601,21.771-11.45,30.17-31.25l0.681,0.1c0,0,3.2,63.97-11.73,132.72c-9.99,46.03-23.979,73.561-29.31,82.631
			c-0.74,1.27-1.33,2.38-1.76,3.26C433.97,776.46,436.39,769.25,439.82,756.22z"/>
		<path style="fill:#231F20;" d="M400.89,593.92c0,0-2.49,132.84,5.34,162.57c3.43,13.029,5.85,20.24,7.09,23.52
			c-0.43-0.88-1.02-2-1.76-3.26c-5.33-9.06-19.32-36.6-29.32-82.62C367.31,625.36,370.52,561.4,370.52,561.4l0.68-0.11
			c8.4,19.8,19.33,27.65,30.16,31.26L400.89,593.92z"/>
		<path style="fill:#9C5C25;" d="M363.27,535.01h119.45c-2.22,10.42-4.88,18.971-7.87,26.021c-8.399,19.8-19.33,27.649-30.17,31.25
			c-0.91,0.31-1.819,0.58-2.729,0.83c-5.87,1.6-31.99,1.87-37.85,0.27c-0.91-0.25-1.82-0.52-2.74-0.83
			c-10.83-3.609-21.76-11.46-30.16-31.26C368.19,554.19,365.51,545.55,363.27,535.01z"/>
		<path style="fill:#9C5C25;" d="M487.79,499.83c-1.22,13.62-2.94,25.25-5.07,35.18H363.27c-2.1-9.87-3.8-21.42-5.01-34.92
			c-3.89-43.41,3.84-87.82,10.5-115.97l0.16,0.04h108.21l0.2-0.05C483.99,412.26,491.66,456.53,487.79,499.83z"/>
		<path style="fill:#9C5C25;" d="M477.33,384.11l-0.2,0.05H368.92l-0.16-0.04c4.3-18.16,8.15-29.55,8.15-29.55l1.19-2.33
			c15.37,5.21,42.26,3.67,42.26,3.67l5.33-0.27c0,0,22.69,1.3,38.31-2.54l5.13,1.21C469.13,354.31,473.02,365.8,477.33,384.11z"/>
		<path style="fill:#9C5C25;" d="M472.5,347.54c-0.88,2.11-2.08,3.53-3.63,4.1c-1.51,0.56-3.15,1.04-4.87,1.46
			c-15.62,3.84-38.31,2.54-38.31,2.54l-5.33,0.27c0,0-26.89,1.54-42.26-3.67c-0.31-0.11-0.62-0.22-0.92-0.33
			c-1.56-0.57-2.75-1.99-3.63-4.11c-7.78-18.55,8.12-90.62,12.43-115.02c4.19-23.79,31.45-25.29,38.2-25.29c0,0,0.01,0,0.02,0
			c0.23,0.01,0.47,0.02,0.7,0.01c0.26,0.02,0.53,0.02,0.79,0.02c0.56,0,1.11-0.01,1.66-0.04c5.381,0.01,22.45,1.27,29.87,16.15
			c1.271,2.54,2.25,5.48,2.851,8.88C464.38,256.91,480.28,328.99,472.5,347.54z"/>
	</g>
	<g>
		<path style="fill:none;stroke:#231F20;stroke-width:21;stroke-linecap:round;stroke-linejoin:round;" d="M438.21,157.88
			c0,0,24.64-41.27,89.82-71.69C564.01,69.4,582.4,69.4,582.4,69.4"/>
		<path style="fill:none;stroke:#231F20;stroke-width:21;stroke-linecap:round;stroke-linejoin:round;" d="M460.2,221.32
			c7.319-5.72,19.689-17.65,24.92-35.98c3.2-11.2,49.57-42.38,49.57-42.38"/>
		<polyline style="fill:none;stroke:#231F20;stroke-width:21;stroke-linecap:round;stroke-linejoin:round;" points="467.27,267.69 
			512.84,230.11 568.01,211.72 		"/>
		<polyline style="fill:none;stroke:#231F20;stroke-width:21;" points="471.26,346.84 472.5,347.54 522.43,375.63 540.82,429.2 		
			"/>
		<path style="fill:none;stroke:#231F20;stroke-width:21;" d="M424.18,207.49c-15.49-0.65-27.81-11.19-27.81-24.09
			c0-13.32,13.13-24.11,29.32-24.11s29.32,10.79,29.32,24.11c0,12.86-12.24,23.37-27.66,24.08c-0.55,0.03-1.1,0.04-1.66,0.04
			c-0.26,0-0.53,0-0.79-0.02c-0.23,0.01-0.47,0-0.7-0.01"/>
		<path style="fill:none;stroke:#231F20;stroke-width:14;stroke-linecap:round;stroke-linejoin:round;" d="M453.14,176.54
			c0,3.24-2.739,5.86-6.13,5.86c-3.39,0-6.13-2.62-6.13-5.86c0-3.24,2.74-5.86,6.13-5.86C450.4,170.68,453.14,173.3,453.14,176.54z"
			/>
		<path style="fill:none;stroke:#231F20;stroke-width:14;stroke-linecap:round;stroke-linejoin:round;" d="M412.36,175.74
			c0,3.24-2.74,5.86-6.12,5.86c-3.4,0-6.14-2.62-6.14-5.86c0-3.24,2.74-5.86,6.14-5.86C409.62,169.88,412.36,172.5,412.36,175.74z"
			/>
		<path style="fill:none;stroke:#231F20;stroke-width:21;" d="M432.73,779.74c0.43-0.88,1.02-1.99,1.76-3.26
			c5.33-9.07,19.319-36.601,29.31-82.631c14.931-68.75,11.73-132.72,11.73-132.72"/>
		<path style="fill:none;stroke:#231F20;stroke-width:21;" d="M432.73,779.74C431.49,783.02,431.43,782.39,432.73,779.74
			L432.73,779.74z"/>
		<path style="fill:none;stroke:#231F20;stroke-width:21;" d="M445.15,593.64c0,0,2.5,132.841-5.33,162.58
			c-3.431,13.03-5.851,20.24-7.09,23.521"/>
		<path style="fill:none;stroke:#231F20;stroke-width:21;stroke-linecap:round;stroke-linejoin:round;" d="M407.83,158.15
			c0,0-24.63-41.28-89.82-71.69c-35.98-16.79-54.37-16.79-54.37-16.79"/>
		<path style="fill:none;stroke:#231F20;stroke-width:21;stroke-linecap:round;stroke-linejoin:round;" d="M388.05,223.24
			c-6.75-4.85-21.32-17.31-27.13-37.64c-3.2-11.19-49.57-42.37-49.57-42.37"/>
		<polyline style="fill:none;stroke:#231F20;stroke-width:21;stroke-linecap:round;stroke-linejoin:round;" points="378.78,267.96 
			333.21,230.38 278.04,211.99 		"/>
		<polyline style="fill:none;stroke:#231F20;stroke-width:21;" points="374.78,347.11 373.55,347.8 323.61,375.9 305.22,429.47 		
			"/>
		<path style="fill:none;stroke:#231F20;stroke-width:21;" d="M457.22,223.63c-7.42-14.88-24.489-16.14-29.87-16.15
			c-1.05,0-1.66,0.04-1.66,0.04"/>
		<path style="fill:none;stroke:#231F20;stroke-width:21;" d="M425.69,207.52c0,0-0.28-0.02-0.79-0.02c-0.2-0.01-0.43-0.01-0.7-0.01
			c-0.01,0-0.02,0-0.02,0c-6.75,0-34.01,1.5-38.2,25.29c-4.31,24.4-20.21,96.47-12.43,115.02c0.88,2.12,2.07,3.54,3.63,4.11
			c0.3,0.11,0.61,0.22,0.92,0.33c15.37,5.21,42.26,3.67,42.26,3.67l5.33-0.27c0,0,22.69,1.3,38.31-2.54
			c1.72-0.42,3.36-0.9,4.87-1.46c1.55-0.57,2.75-1.99,3.63-4.1c7.78-18.55-8.12-90.63-12.43-115.03c-0.601-3.4-1.58-6.34-2.851-8.88
			"/>
		<path style="fill:none;stroke:#231F20;stroke-width:21;" d="M376.91,354.57c0,0-3.85,11.39-8.15,29.55
			c-6.66,28.15-14.39,72.56-10.5,115.97c1.21,13.5,2.91,25.05,5.01,34.92c2.24,10.54,4.92,19.181,7.93,26.28
			c8.4,19.8,19.33,27.65,30.16,31.26c0.92,0.311,1.83,0.58,2.74,0.83c5.86,1.601,31.98,1.33,37.85-0.27
			c0.91-0.25,1.819-0.521,2.729-0.83c10.84-3.601,21.771-11.45,30.17-31.25c2.99-7.05,5.65-15.601,7.87-26.021
			c2.13-9.93,3.851-21.56,5.07-35.18c3.87-43.3-3.8-87.57-10.46-115.72c-4.311-18.31-8.2-29.8-8.2-29.8"/>
		<path style="fill:none;stroke:#231F20;stroke-width:21;" d="M413.32,780.01c-0.43-0.88-1.02-2-1.76-3.26
			c-5.33-9.06-19.32-36.6-29.32-82.62C367.31,625.36,370.52,561.4,370.52,561.4"/>
		<path style="fill:none;stroke:#231F20;stroke-width:21;" d="M413.32,780.01C414.56,783.29,414.62,782.66,413.32,780.01
			L413.32,780.01z"/>
		<path style="fill:none;stroke:#231F20;stroke-width:21;" d="M400.89,593.92c0,0-2.49,132.84,5.34,162.57
			c3.43,13.029,5.85,20.24,7.09,23.52"/>
		<line style="fill:none;stroke:#231F20;stroke-width:21;" x1="368.92" y1="384.16" x2="477.13" y2="384.16"/>
		<line style="fill:none;stroke:#231F20;stroke-width:21;" x1="366.79" y1="414.01" x2="475" y2="414.01"/>
		<line style="fill:none;stroke:#231F20;stroke-width:21;" x1="367" y1="442.79" x2="485.66" y2="442.79"/>
		<line style="fill:none;stroke:#231F20;stroke-width:21;" x1="364.66" y1="472.64" x2="483.33" y2="472.64"/>
		<line style="fill:none;stroke:#231F20;stroke-width:21;" x1="365.46" y1="505.16" x2="487.26" y2="505.16"/>
		<polyline style="fill:none;stroke:#231F20;stroke-width:21;" points="363.06,535.01 363.27,535.01 482.72,535.01 484.86,535.01 		
			"/>
	</g>
</g>
<rect style="fill:none;" width="850.394" height="850.394"/>
</svg>
