<svg xmlns="http://www.w3.org/2000/svg" width="850.394" height="850.394" viewBox="0 0 850.394 850.394" overflow="visible"><path d="M618.09 268.06l-.87 3.64c-6.71.6-7.189 13.34 1.061 16.39 5.04 1.86 12.71-1.99 11.77-8.18-1.001-6.66-5.861-10.31-11.961-11.85zm-.47 115.65c-5.96.58-13.11-16.09-18.05-30.11l-4.62 1.88s-.01.01-.05.02c-.61.21-6.4 2.47-15.32.9-3.78-.66-8.13-2.01-12.88-4.5-8.84-4.63-12.84-15.34-16.84-24.37-4.271-9.65-6.92-19.74-9.471-29.87.44 4.69 5.801 63.05-1.96 68.22-8.08 5.39-68.52-12.32-94.689-36.95-26.18-24.64-54.28-74.3-61.59-89.31-7.31-15.02-8.47-19.25-8.47-19.25s28.48-45.04 58.12-64.28c11.05-7.18 19.49-13.02 27.11-17.21l.01-.01c12.82-7.07 23.35-9.5 40.25-5.88 12.87 2.76 28.11 7.01 42.24 10.7 15.46 4.03 29.58 7.39 37.82 7.39 6 0 17.779-1.56 31.18-.93 21.859 1.02 48.03 7.85 60.439 36.73 20.021 46.58 26.181 92.77 32.341 124.72 3.68 19.05 9.64 61.29 14.689 103.76l.16 2.37c-10.49.75-21.4.23-31.021-2.83-11.289-3.6-16.579-6.84-26.34-18.13l-7.43-10.37c-9.05-13.82-17.55-14.89-33.98-3.33-.528.38-1.088.59-1.648.64z" fill="#c8c8c8"/><path d="M380.39 474.18l-5.55 2.181c-13.88 7.06-39.82 10.479-63.52 10.92-12.48.239-24.33-.36-33.49-1.69l-5.66-.81h-.02c-21.24-3.011-23.4-2.391-25.89 10.06-2.97 14.851-6.16 70.83-3.46 91.99 2.69 21.18 16.93 80.84 18.09 92.4.39 3.909.6 7.699-.2 11.09-1.57 6.63-7.01 11.729-22.51 13.16-33.49 3.079-45.04-5.011-43.89-11.94.19-1.13 4.63-53.12 2.31-71.21-2.31-18.09-15.39-61.21-36.95-99.71-21.56-38.49-51.58-176.3-51.58-176.3s-1.72-8.53-1.97-20.87c-.32-15.32 1.64-36.5 11.97-54.44a68.23 68.23 0 0 1 6.16-8.99c26.57-32.72 81.99-88.97 95.47-99.7 18.87-15.01 66.21-20.79 105.86-9.24 0 0 48.51 13.47 75.83 7.7 23.44-4.96 41.69-14.21 57.52-19.9-7.62 4.19-16.061 10.03-27.11 17.21-29.64 19.24-58.12 64.28-58.12 64.28s1.16 4.23 8.47 19.25c7.31 15.01 35.41 64.67 61.59 89.31 26.17 24.63 86.609 42.34 94.689 36.95 7.761-5.17 2.4-63.53 1.96-68.22 2.551 10.13 5.2 20.22 9.471 29.87 4 9.03 8 19.74 16.84 24.37 4.75 2.49 9.1 3.84 12.88 4.5l-.35 3.07s-3.07 64.16-1.021 94.95c1.42 21.39-3.59 123.18-2.56 155 1.02 31.83 4.619 60.57 14.359 72.37 9.76 11.81 7.561 23.72-2.04 29.26-16.08 9.26-68.18 8.2-78.02-1.03-5.33-4.989-2.05-15.39 6.68-23.609 8.73-8.21 5.13-36.44 3.07-48.25-2.04-11.8-8.21-94.95-10.78-124.2-2.56-29.26-16.41-56.979-16.41-56.979l-.55-.04c-2.49 31.989-11.05 89.319-12.29 110.39-1.54 26.18-10.26 69.29-12.32 82.64-2.04 13.34-7.18 31.311 3.08 41.061 10.28 9.76 17.221 18.029 11.801 24.64-8.171 9.96-28.29 7.24-48.58 6.771-22.871-.53-35.59-9.851-38.16-17.04-2.56-7.19 4.11-14.881 6.67-19.511 2.57-4.609 7.71-56.97 6.16-99.569-1.54-42.59-9.74-73.391-21.04-95.98-1.939-3.885-4.299-9.515-6.889-16.165z" fill="#c8c8c8"/><path d="M762.99 407.71c8.21-4.11 36.439 4.62-26.181 20.021-7.439 1.829-14.52 3.06-21.25 3.779-25.489 2.75-45.88-1.729-60.88-8.22-14.38-6.22-23.81-14.29-28.02-19.61-6.44-8.15-8.43-15.75-9.04-19.97.56-.05 1.12-.26 1.649-.64 16.431-11.56 24.931-10.49 33.98 3.33l7.43 10.37c9.761 11.29 15.051 14.53 26.34 18.13 9.62 3.06 20.53 3.58 31.021 2.83 22.431-1.59 42.941-9.02 44.951-10.02z" fill="#fff5b4"/><path d="M675.31 653.21c.57 4.53.83 8.521.341 12.43l-1.96.41c1.25 3 3.439 5.55 7.17 6.63 11.939 3.46 20.409-14.239 8.47-72.37L654 426l.68-2.71c15 6.49 35.391 10.97 60.88 8.22l4.57 3.33c2.46 21.99 4.55 43.101 5.771 60 4.229 58.12 10.01 122.41 9.239 143.58 0 0 2.9 37.93-15.399 53.12-18.09 15.02-44.59 12.3-58.13-6.92-7.311-10.4-7.57-18.01-6.15-28.49l8.45 7.101 1.7-2.03 9.699-7.991z" fill="#c8c8c8"/><path d="M630.05 279.91c.94 6.19-6.729 10.04-11.77 8.18-8.25-3.05-7.771-15.79-1.061-16.39l.87-3.64c6.101 1.54 10.961 5.19 11.961 11.85z" fill="#231f20"/><path d="M610.41 150.15c-13.4-.63-25.18.93-31.18.93-8.24 0-22.36-3.36-37.82-7.39l.88-3.39s10.39-18.09 31.56-10.78c21.17 7.32 36.57 20.41 36.57 20.41l-.01.22zM114.11 269.6l3.96-.59c-10.33 17.94-12.29 39.12-11.97 54.44l-3.81.09c-17.7 5-12.58 84.15-13.09 91.23-.77 10.77 1.55 24.64-6.16 25.02-11 .55-8.85-15.78-9.23-47.73-.35-28.91-.77-57.75 11.16-89.31 11.22-29.65 25.82-33.15 29.14-33.15zM277.83 485.59c9.16 1.33 21.01 1.93 33.49 1.69v.239s-20.39 28.37-21.17 56.2c-1.16 40.811 7.11 69.851 13.47 84.69 9.24 21.56 22.33 30.41 25.79 48.51 2.04 10.64-1.54 14.24-11.93 14.62-11.6.43-54.28-1.15-54.28-1.15l-2.51-.069c.8-3.391.59-7.181.2-11.09-1.16-11.561-15.4-71.221-18.09-92.4-2.7-21.16.49-77.14 3.46-91.99 2.49-12.45 4.65-13.07 25.89-10.06h.02l5.66.81z" fill="#c8c8c8"/><g fill="none" stroke="#231f20"><path d="M272.17 484.78l5.66.81c9.16 1.33 21.01 1.93 33.49 1.69 23.7-.44 49.64-3.86 63.52-10.92" stroke-width="21"/><path d="M458.91 138.88c-15.83 5.69-34.08 14.94-57.52 19.9-27.32 5.77-75.83-7.7-75.83-7.7-39.65-11.55-86.99-5.77-105.86 9.24-13.48 10.73-68.9 66.98-95.47 99.7a68.23 68.23 0 0 0-6.16 8.99c-10.33 17.94-12.29 39.12-11.97 54.44.25 12.34 1.97 20.87 1.97 20.87s30.02 137.81 51.58 176.3c21.56 38.5 34.64 81.62 36.95 99.71 2.32 18.09-2.12 70.08-2.31 71.21-1.15 6.93 10.4 15.02 43.89 11.94 15.5-1.431 20.94-6.53 22.51-13.16.8-3.391.59-7.181.2-11.09-1.16-11.561-15.4-71.221-18.09-92.4-2.7-21.16.49-77.14 3.46-91.99 2.49-12.45 4.65-13.07 25.89-10.06M463.76 137.22c-1.59.51-3.2 1.06-4.84 1.65" stroke-width="21"/><path d="M654 426l35.33 174.31c11.939 58.131 3.47 75.83-8.47 72.37-3.73-1.08-5.92-3.63-7.17-6.63-.74-1.79-1.15-3.75-1.351-5.649" stroke-width="14"/><path d="M720.13 434.84c2.46 21.99 4.55 43.101 5.771 60 4.229 58.12 10.01 122.41 9.239 143.58 0 0 2.9 37.93-15.399 53.12-18.09 15.02-44.59 12.3-58.13-6.92-7.311-10.4-7.57-18.01-6.15-28.49l8.45 7.101 1.17.979" stroke-width="14"/><path d="M675.65 665.64c.489-3.909.229-7.899-.341-12.43l-9.699 7.99" stroke-width="14"/><path d="M540.36 297.36l.029.3c.44 4.69 5.801 63.05-1.96 68.22-8.08 5.39-68.52-12.32-94.689-36.95-26.18-24.64-54.28-74.3-61.59-89.31-7.31-15.02-8.47-19.25-8.47-19.25s28.48-45.04 58.12-64.28c11.05-7.18 19.49-13.02 27.11-17.21l.01-.01c12.82-7.07 23.35-9.5 40.25-5.88 12.87 2.76 28.11 7.01 42.24 10.7 15.46 4.03 29.58 7.39 37.82 7.39 6 0 17.779-1.56 31.18-.93 21.859 1.02 48.03 7.85 60.439 36.73 20.021 46.58 26.181 92.77 32.341 124.72 3.68 19.05 9.64 61.29 14.689 103.76M311.32 487.52s-20.39 28.37-21.17 56.2c-1.16 40.811 7.11 69.851 13.47 84.69 9.24 21.56 22.33 30.41 25.79 48.51 2.04 10.64-1.54 14.24-11.93 14.62-11.6.43-54.28-1.15-54.28-1.15" stroke-width="21"/><path d="M114.61 269.64c-.12-.02-.28-.04-.5-.04-3.32 0-17.92 3.5-29.14 33.15-11.93 31.56-11.51 60.4-11.16 89.31.38 31.95-1.77 48.28 9.23 47.73 7.71-.38 5.39-14.25 6.16-25.02.51-7.08-4.61-86.23 13.09-91.23M542.29 140.3s10.39-18.09 31.56-10.78c21.17 7.32 36.57 20.41 36.57 20.41" stroke-width="14"/><path d="M523.65 190.84c5.409 9.3 11.319 22.04 11.319 31.84 0 17.32-7.319 32.33-.77 52.35 2.43 7.46 4.28 15.05 6.189 22.63 2.551 10.13 5.2 20.22 9.471 29.87 4 9.03 8 19.74 16.84 24.37 4.75 2.49 9.1 3.84 12.88 4.5 8.92 1.57 14.71-.69 15.32-.9.04-.01.05-.02 0 0-.091.05-.391.21-.9.5M350.33 386.15s17.6 55.97 30.06 88.03c2.59 6.65 4.95 12.28 6.89 16.16 11.3 22.59 19.5 53.391 21.04 95.98 1.55 42.6-3.59 94.96-6.16 99.569-2.56 4.63-9.23 12.32-6.67 19.511 2.57 7.189 15.29 16.51 38.16 17.04 20.29.47 40.409 3.189 48.58-6.771 5.42-6.61-1.521-14.88-11.801-24.64-10.26-9.75-5.12-27.721-3.08-41.061 2.061-13.35 10.78-56.46 12.32-82.64 1.24-21.07 9.8-78.4 12.29-110.39.6-7.75.85-14.021.55-17.921M492.51 456.98s13.851 27.72 16.41 56.979c2.57 29.25 8.74 112.4 10.78 124.2 2.06 11.81 5.66 40.04-3.07 48.25-8.729 8.22-12.01 18.62-6.68 23.609 9.84 9.23 61.939 10.29 78.02 1.03 9.601-5.54 11.8-17.45 2.04-29.26-9.74-11.8-13.34-40.54-14.359-72.37-1.03-31.82 3.979-133.61 2.56-155-2.05-30.79 1.021-94.95 1.021-94.95" stroke-width="21"/><path d="M617.35 380.29s-.05 1.27.271 3.42c.61 4.22 2.6 11.82 9.04 19.97 4.21 5.32 13.64 13.39 28.02 19.61 15 6.49 35.391 10.97 60.88 8.22 6.73-.72 13.811-1.95 21.25-3.779 62.62-15.4 34.391-24.13 26.181-20.021-2.01 1-22.521 8.43-44.95 10.02-10.49.75-21.4.23-31.021-2.83-11.289-3.6-16.579-6.84-26.34-18.13l-7.43-10.37c-9.05-13.82-17.55-14.89-33.98-3.33-.529.38-1.09.59-1.649.64-5.96.58-13.11-16.09-18.05-30.11-3.551-10.07-5.95-18.77-5.95-18.77" stroke-width="14"/><path d="M617.22 271.7c-6.71.6-7.189 13.34 1.061 16.39 5.04 1.86 12.71-1.99 11.77-8.18-1-6.66-5.859-10.31-11.96-11.85-8.89-2.23-20.42.05-26.54 4.15" stroke-width="12.761"/><path d="M169.66 341.5s27.89 98.33 60.57 125.23c13.89 11.439 34.21 16.47 41.92 18.05h.02c1.96.41 3.1.58 3.1.58" stroke-width="21"/></g><path fill="none" d="M0 0h850.394v850.394H0z"/></svg>