<svg xmlns="http://www.w3.org/2000/svg" width="850.394" height="850.394" viewBox="0 0 850.394 850.394" overflow="visible"><path d="M614.656 171.21c-.31.67-.6 1.33-.88 1.99.29-.65.58-1.31.88-1.99zm-17.25-.51h-.01c-2.55 3.3-4.681 5.73-6.431 7.51l-.26-.26c.57-7.24-5.47-10.2-10.38-8.67l-1.77-.44c3.159-7.54 10.189-18.19 20.279-32 6.62-4.32 15.19-12.68 26.04-16.49 2.79-.98 5.65-1.77 8.511-2.39 13.239-2.91 26.47-2.37 33.029-1.64 2.21.24 3.67.51 4.101.67 9.34 3.5 36.989 33.28 40.029 37.62 3.631 5.19 19.03 25.38 22.521 66.63 13.229 8.31 29.189 20.05 76.77 46.76 0 0-18.51 44.14-54.239 42.08-9.801-6.59-17.53-17.27-26.82-24.75-13.88-11.19-38.44-49.83-38.44-49.83-24.13-4.34-56.989-29.33-65.84-46.72-1.399 2.09-2.74 3.98-4.05 5.56 3.01-8.19-8.16-10.48-10.84-5.65l-.67-.22c1.149-5.05 2.64-10.06 4.8-15.18-2.21 4.97-4.22 8.96-6.22 11.94l-.511-.33c2.16-6.36-5.149-11.69-11.729-5.12l-.12-.02c.521-2.91 1.25-5.96 2.25-9.06z" fill="#ffeec8"/><path d="M666.416 116.32c-6.56-.73-19.79-1.27-33.029 1.64-7.761-3.9-11.921-9.77-17.521-16.51-7.66 0-20.37-2.34-26.38-6.57-9.35 2.89-19.71-.71-24.28-9.11 4.75.81 12.96 1.29 17.98-5.03 11.09-1.04 24.56.33 40.26 3.26 0 0 28.08 17.89 42.97 32.32zM609.606 188.69c2.68-4.83 13.85-2.54 10.84 5.65-2.43 2.94-4.77 4.79-7.3 4.79-3 0-4.58-1.41-5.58-3.68.399-2.35.85-4.67 1.37-6.98l.67.22z" fill="#ffeec8"/><path d="M614.996 721.84c16.57 16.7 17.03 43.101 1.03 58.97l-5.09 5.061c-15.99 15.87-42.391 15.229-58.96-1.46L81.036 310.09c-16.57-16.69-17.03-43.09-1.03-58.98l5.07-5.03c16-15.9 42.4-15.25 58.97 1.45l470.95 474.31zm-16.78 28.66c2.641-2.61 2.671-6.9.04-9.55-2.619-2.63-6.909-2.641-9.55-.01-2.64 2.619-2.66 6.899-.04 9.55a6.757 6.757 0 0 0 9.55.01zm-13-18.42c2.65-2.62 2.681-6.9.04-9.55a6.759 6.759 0 0 0-9.56-.03c-2.64 2.62-2.66 6.91-.04 9.55 2.64 2.66 6.92 2.67 9.56.03zm-8.98 28.52a6.769 6.769 0 0 0 .03-9.56 6.758 6.758 0 0 0-9.551-.03c-2.649 2.641-2.659 6.91-.039 9.55a6.75 6.75 0 0 0 9.56.04zm-12.759-18.73c2.64-2.62 2.66-6.91.029-9.55-2.63-2.641-6.909-2.66-9.55-.03-2.649 2.62-2.66 6.91-.029 9.54a6.757 6.757 0 0 0 9.55.04zm-33.101-59.7c2.63-2.62 2.65-6.9.021-9.55-2.62-2.65-6.91-2.65-9.53-.04-2.65 2.65-2.68 6.92-.04 9.56 2.619 2.65 6.9 2.66 9.549.03zm-2.26 37.78a6.753 6.753 0 0 0 .021-9.561c-2.62-2.64-6.9-2.67-9.54-.029-2.65 2.62-2.66 6.909-.051 9.55a6.772 6.772 0 0 0 9.57.04zm-10.75-56.2c2.66-2.63 2.67-6.9.03-9.56-2.62-2.65-6.91-2.66-9.54-.03-2.66 2.63-2.68 6.91-.05 9.55 2.631 2.66 6.91 2.66 9.56.04zm-8.979 28.51c2.64-2.62 2.659-6.91.029-9.56-2.63-2.641-6.899-2.65-9.55-.03-2.65 2.64-2.67 6.91-.03 9.55a6.74 6.74 0 0 0 9.551.04zm-12.761-18.72c2.641-2.64 2.66-6.91.021-9.56a6.756 6.756 0 0 0-9.55-.03c-2.641 2.62-2.65 6.91-.03 9.54 2.629 2.66 6.91 2.67 9.559.05zm-26.489-34.9c2.659-2.62 2.67-6.909.02-9.56-2.61-2.64-6.9-2.66-9.54-.03-2.65 2.641-2.67 6.91-.04 9.55a6.742 6.742 0 0 0 9.56.04zm-18.421-36.68a6.75 6.75 0 0 0 .03-9.56c-2.62-2.65-6.91-2.65-9.54-.03a6.767 6.767 0 0 0-.05 9.55 6.76 6.76 0 0 0 9.56.04zm-12.989-18.43c2.63-2.641 2.66-6.91.029-9.561-2.619-2.64-6.909-2.66-9.55-.02a6.758 6.758 0 0 0-.04 9.55c2.62 2.641 6.9 2.651 9.561.031zm-8.991 28.51c2.64-2.63 2.66-6.9.03-9.56a6.757 6.757 0 0 0-9.55-.021c-2.65 2.62-2.67 6.89-.04 9.54s6.91 2.671 9.56.041zm-12.77-18.73a6.748 6.748 0 0 0 .04-9.55c-2.62-2.64-6.89-2.67-9.56-.029-2.63 2.619-2.66 6.909-.03 9.55 2.63 2.649 6.91 2.649 9.55.029zm-29.41-41.34c2.64-2.62 2.65-6.899.02-9.55-2.63-2.64-6.9-2.65-9.55-.03a6.736 6.736 0 0 0-.03 9.54 6.75 6.75 0 0 0 9.56.04zm-14.46-29.2c2.63-2.63 2.66-6.909.03-9.55-2.62-2.64-6.91-2.66-9.55-.029-2.65 2.619-2.66 6.899-.04 9.54 2.631 2.649 6.89 2.659 9.56.039zm-13.01-18.43a6.75 6.75 0 0 0 .04-9.56c-2.63-2.65-6.9-2.66-9.56-.04-2.65 2.64-2.66 6.91-.04 9.55 2.641 2.66 6.92 2.68 9.56.05zm-8.98 28.51a6.757 6.757 0 0 0 .03-9.55 6.749 6.749 0 0 0-9.55-.04c-2.64 2.641-2.66 6.91-.03 9.55a6.739 6.739 0 0 0 9.55.04zm-12.77-18.73c2.66-2.62 2.67-6.9.04-9.55a6.739 6.739 0 0 0-9.55-.03c-2.65 2.62-2.66 6.9-.03 9.55 2.63 2.64 6.9 2.66 9.54.03zm-35.99-33a6.77 6.77 0 0 0 .03-9.561c-2.62-2.64-6.9-2.659-9.55-.029-2.64 2.63-2.66 6.92-.03 9.56a6.748 6.748 0 0 0 9.55.03zm-9.57-39.25c2.64-2.63 2.67-6.91.04-9.55a6.763 6.763 0 0 0-9.57-.03c-2.65 2.63-2.65 6.9-.02 9.54a6.748 6.748 0 0 0 9.55.04zm-13-18.44c2.65-2.62 2.66-6.89.03-9.54a6.757 6.757 0 0 0-9.55-.04 6.769 6.769 0 0 0-.04 9.56 6.76 6.76 0 0 0 9.56.02zm-8.99 28.52a6.754 6.754 0 0 0 .04-9.54c-2.63-2.66-6.91-2.66-9.56-.04a6.748 6.748 0 0 0-.03 9.55c2.63 2.66 6.9 2.66 9.55.03zm-12.76-18.73c2.65-2.62 2.66-6.89.03-9.55-2.63-2.64-6.9-2.65-9.55-.03-2.64 2.62-2.66 6.9-.03 9.55a6.748 6.748 0 0 0 9.55.03zm-11.05-42.29c2.63-2.62 2.65-6.89.03-9.55-2.62-2.65-6.91-2.66-9.55-.02a6.745 6.745 0 0 0-.03 9.54c2.62 2.65 6.9 2.66 9.55.03zm-34.17-24.71a6.757 6.757 0 1 0-9.55-.04 6.748 6.748 0 0 0 9.55.04zm-13-18.44a6.757 6.757 0 0 0 .04-9.55c-2.63-2.65-6.91-2.66-9.56-.03-2.64 2.63-2.66 6.9-.03 9.54a6.739 6.739 0 0 0 9.55.04zm-8.99 28.52a6.76 6.76 0 0 0 .04-9.56c-2.63-2.64-6.9-2.66-9.55-.03s-2.66 6.91-.03 9.55a6.736 6.736 0 0 0 9.54.04zm-12.76-18.73c2.65-2.62 2.67-6.91.04-9.56-2.63-2.63-6.91-2.65-9.55-.02-2.65 2.62-2.66 6.9-.04 9.54 2.63 2.65 6.911 2.67 9.55.04zm-32.1-60.36c2.65-2.62 2.68-6.9.04-9.55-2.62-2.65-6.9-2.65-9.55-.03a6.748 6.748 0 0 0-.03 9.55 6.736 6.736 0 0 0 9.54.03zm-4.08 35.01c2.65-2.62 2.66-6.9.04-9.55-2.62-2.65-6.91-2.66-9.55-.02-2.65 2.63-2.67 6.89-.04 9.54s6.91 2.66 9.55.03zm-8.91-53.43c2.65-2.63 2.66-6.92.03-9.57-2.62-2.64-6.9-2.65-9.55-.02a6.748 6.748 0 0 0-.03 9.55 6.757 6.757 0 0 0 9.55.04zm-8.99 28.51a6.748 6.748 0 0 0 .03-9.55c-2.62-2.65-6.9-2.66-9.55-.04-2.64 2.64-2.66 6.91-.03 9.56s6.9 2.65 9.55.03zm-12.76-18.73c2.65-2.63 2.66-6.9.04-9.55a6.757 6.757 0 0 0-9.55-.04 6.757 6.757 0 0 0-.04 9.55c2.63 2.65 6.91 2.67 9.55.04z" fill="#787878"/><path d="M607.006 184.9l.511.33c-3.96 5.9-7.91 7.88-13.41 5.73 0-3.31.31-7.12 1.05-11.2l.12.02c6.579-6.57 13.889-1.24 11.729 5.12z" fill="#ffeec8"/><path d="M598.256 740.95c2.631 2.649 2.601 6.939-.04 9.55a6.757 6.757 0 0 1-9.55-.01c-2.62-2.65-2.6-6.931.04-9.55 2.641-2.63 6.931-2.62 9.55.01z"/><path d="M590.706 177.95l.26.26c-3.68 3.71-5.75 4.54-6.789 4.46-7.78-.62-9.24-5.2-5.62-13.83l1.77.44c4.909-1.53 10.949 1.43 10.379 8.67z" fill="#ffeec8"/><path d="M585.256 722.53c2.641 2.649 2.61 6.93-.04 9.55-2.64 2.64-6.92 2.63-9.56-.03a6.76 6.76 0 1 1 9.6-9.52zM576.267 751.04c2.63 2.65 2.609 6.93-.03 9.56a6.75 6.75 0 0 1-9.56-.04c-2.62-2.64-2.61-6.909.039-9.55a6.758 6.758 0 0 1 9.551.03z"/><path d="M564.236 52.16c9.18 9.17.92 17.43.92 17.43l-77.1 77.1-.301.3c-5.77-5.66-12.64-11.3-18.42-15.38l.37-.52 78.471-78.48c.001 0 6.89-9.63 16.06-.45zm-5.73 15.03c.79-.8.931-2.19.311-3.12-.62-.93-1.76-1.05-2.55-.26-.78.79-.92 2.19-.311 3.12.62.93 1.76 1.05 2.55.26zm-2-7.44c.79-.79.931-2.19.311-3.12-.62-.93-1.76-1.05-2.54-.26-.79.79-.92 2.19-.311 3.12.62.93 1.75 1.05 2.54.26zm-3.4 11.12c.8-.79.93-2.18.32-3.12-.62-.93-1.761-1.04-2.551-.25-.779.79-.92 2.19-.31 3.12.622.93 1.761 1.04 2.541.25zm-1.919-7.35c.79-.79.93-2.19.31-3.12-.609-.93-1.75-1.05-2.54-.25-.79.79-.93 2.18-.31 3.11.609.94 1.759 1.05 2.54.26zm-5.031 18.34c.79-.79.93-2.18.31-3.12-.609-.93-1.75-1.05-2.539-.25-.79.79-.931 2.18-.311 3.12.62.93 1.76 1.04 2.54.25zm-8 5.73c.79-.79.93-2.18.32-3.11-.62-.93-1.761-1.05-2.55-.26-.79.79-.921 2.19-.311 3.12.621.93 1.761 1.05 2.541.25zm-1.99-7.44c.79-.78.931-2.18.311-3.11s-1.761-1.05-2.54-.26c-.79.79-.931 2.19-.311 3.12.62.93 1.75 1.05 2.54.25zm-3.399 11.13c.79-.79.93-2.18.319-3.12-.62-.93-1.76-1.04-2.55-.25-.79.8-.92 2.18-.31 3.12.621.93 1.76 1.04 2.541.25zm-1.92-7.35c.79-.79.93-2.19.31-3.12-.61-.93-1.75-1.05-2.54-.25-.79.79-.93 2.18-.31 3.11.62.94 1.75 1.06 2.54.26zm-8.201 15.11c.79-.79.92-2.19.31-3.12-.62-.94-1.76-1.05-2.55-.25-.79.79-.93 2.18-.31 3.11.62.94 1.76 1.05 2.55.26zm-8.36 12.52c.78-.8.92-2.19.311-3.12-.62-.94-1.761-1.05-2.551-.26-.779.79-.92 2.19-.3 3.12.61.93 1.75 1.05 2.54.26zm-2-7.44c.79-.79.93-2.19.311-3.12-.61-.94-1.75-1.05-2.54-.26s-.931 2.19-.311 3.12c.62.93 1.75 1.04 2.54.26zm-3.39 11.12c.79-.79.92-2.18.31-3.11-.62-.94-1.76-1.05-2.55-.26-.78.79-.92 2.18-.31 3.12.62.93 1.76 1.05 2.55.25zm-1.93-7.35c.79-.79.931-2.19.311-3.12s-1.75-1.05-2.54-.26-.93 2.19-.31 3.12c.619.93 1.76 1.05 2.539.26zm-10.01 15.9c.78-.79.931-2.18.311-3.12-.62-.93-1.761-1.04-2.551-.25-.779.79-.92 2.19-.31 3.12.62.93 1.76 1.04 2.55.25zm-6.24 11.42c.79-.79.921-2.19.311-3.12-.62-.93-1.76-1.05-2.55-.26s-.92 2.19-.311 3.12c.62.93 1.761 1.05 2.55.26zm-2-7.44c.79-.79.931-2.19.311-3.12-.61-.93-1.76-1.05-2.54-.26-.79.79-.92 2.19-.31 3.12.619.93 1.76 1.05 2.539.26zm-3.39 11.12c.78-.79.92-2.18.311-3.11-.62-.94-1.761-1.05-2.551-.26s-.93 2.19-.31 3.12c.62.93 1.76 1.04 2.55.25zm-1.93-7.35c.79-.79.93-2.19.31-3.12-.62-.93-1.75-1.05-2.54-.26s-.93 2.19-.31 3.12c.621.94 1.75 1.05 2.54.26z" fill="#787878"/><path d="M563.506 732.32c2.631 2.64 2.61 6.93-.029 9.55a6.757 6.757 0 0 1-9.55-.04c-2.631-2.63-2.62-6.92.029-9.54 2.641-2.63 6.92-2.61 9.55.03zM558.816 64.07c.62.93.479 2.32-.311 3.12-.79.79-1.93.67-2.55-.26-.609-.93-.47-2.33.311-3.12.791-.79 1.93-.67 2.55.26zM556.816 56.63c.62.93.479 2.33-.311 3.12s-1.92.67-2.54-.26c-.609-.93-.479-2.33.311-3.12.781-.79 1.92-.67 2.54.26zM553.427 67.75c.609.94.479 2.33-.32 3.12-.78.79-1.92.68-2.54-.25-.61-.93-.47-2.33.31-3.12.789-.79 1.93-.68 2.55.25zM551.496 60.4c.62.93.48 2.33-.31 3.12-.78.79-1.931.68-2.54-.26-.62-.93-.48-2.32.31-3.11.79-.8 1.931-.68 2.54.25zM546.466 78.74c.62.94.48 2.33-.31 3.12-.78.79-1.92.68-2.54-.25-.62-.94-.479-2.33.311-3.12.789-.8 1.929-.68 2.539.25zM538.477 84.48c.609.93.47 2.32-.32 3.11-.78.8-1.92.68-2.54-.25-.61-.93-.479-2.33.311-3.12.788-.79 1.928-.67 2.549.26zM536.477 77.04c.62.93.479 2.33-.311 3.11-.79.8-1.92.68-2.54-.25-.62-.93-.479-2.33.311-3.12.779-.79 1.919-.67 2.54.26zM533.086 88.16c.61.94.471 2.33-.319 3.12-.78.79-1.92.68-2.54-.25-.61-.94-.48-2.32.31-3.12.789-.79 1.929-.68 2.549.25zM531.156 80.81c.62.93.48 2.33-.31 3.12-.79.8-1.92.68-2.54-.26-.62-.93-.48-2.32.31-3.11.79-.8 1.93-.68 2.54.25zM530.396 672.62c2.63 2.649 2.609 6.93-.021 9.55-2.649 2.63-6.93 2.62-9.55-.03-2.64-2.64-2.61-6.909.04-9.56 2.621-2.61 6.911-2.61 9.531.04zM528.137 710.39a6.751 6.751 0 0 1-.021 9.561 6.772 6.772 0 0 1-9.57-.04c-2.609-2.641-2.6-6.93.051-9.55 2.639-2.641 6.92-2.611 9.54.029zM522.956 95.92c.61.93.48 2.33-.31 3.12s-1.931.68-2.55-.26c-.62-.93-.48-2.32.31-3.11.79-.8 1.93-.69 2.55.25zM517.396 654.19c2.64 2.659 2.63 6.93-.03 9.56-2.65 2.62-6.93 2.62-9.56-.04-2.63-2.64-2.61-6.92.05-9.55 2.63-2.63 6.92-2.62 9.54.03zM514.597 108.44c.609.93.47 2.32-.311 3.12-.79.79-1.93.67-2.54-.26-.62-.93-.479-2.33.3-3.12.79-.79 1.931-.68 2.551.26zM512.597 101c.619.93.479 2.33-.311 3.12-.79.78-1.92.67-2.54-.26-.62-.93-.479-2.33.311-3.12s1.929-.68 2.54.26zM509.206 112.13c.61.93.48 2.32-.31 3.11-.79.8-1.931.68-2.55-.25-.61-.94-.471-2.33.31-3.12.79-.79 1.93-.68 2.55.26zM508.416 682.7c2.63 2.649 2.61 6.939-.029 9.56a6.74 6.74 0 0 1-9.551-.04c-2.64-2.64-2.62-6.91.03-9.55 2.651-2.62 6.92-2.61 9.55.03zM507.276 104.77c.62.93.479 2.33-.311 3.12-.779.79-1.92.67-2.539-.26-.62-.93-.48-2.33.31-3.12s1.92-.67 2.54.26z"/><path d="M498.126 181.81c3.11 8.01 1.471 12.26-6.01 12.86-1.05.08-3.11-.75-6.79-4.46l.25-.26c-.57-7.24 5.47-10.2 10.38-8.67l2.17.53z" fill="#ffeec8"/><path d="M445.586 191.51c-2.76-3.98-5.89-8.07-9.56-11.74-1.92-1.92-5.45-3.66-9.35-4.58v.01l-21.55 21.54s-8.26 8.26.92 17.44c9.18 9.18 16.06-.46 16.06-.46l22.189-22.19 1.291-.02zm16.04-8.3c.301.68.59 1.34.88 1.99-.279-.66-.569-1.32-.88-1.99zm-51.67-54.9c8.01-.88 25.8-1.47 41.45 4.04 10.85 3.81 19.42 12.17 26.04 16.49 4.64 6.36 8.64 12.04 11.9 17.06.859 1.31 1.659 2.57 2.409 3.78 2.91 4.71 5.061 8.76 6.37 12.13l-2.17-.53c-4.91-1.53-10.95 1.43-10.38 8.67l-.25.26c-1.76-1.77-3.88-4.2-6.439-7.51.989 3.1 1.729 6.15 2.239 9.06l-.12.02c-6.569-6.57-13.88-1.24-11.72 5.12l-.52.33c-2-2.98-4.011-6.97-6.221-11.94 2.16 5.12 3.65 10.13 4.801 15.18l-.67.22c-2.681-4.83-13.841-2.54-10.841 5.65-1.31-1.58-2.649-3.47-4.05-5.56-8.85 17.39-41.71 42.38-65.84 46.72 0 0-24.55 38.64-38.44 49.83-9.29 7.48-17.02 18.16-26.82 24.75-38.76 9.15-54.24-40.33-54.24-42.08 47.59-26.71 63.54-38.45 76.77-46.76 3.49-41.25 18.89-61.44 22.52-66.63 3.04-4.34 30.69-34.12 40.03-37.62.442-.16 1.923-.43 4.192-.68z" fill="#ffeec8"/><path d="M497.267 120.67c.62.94.47 2.33-.311 3.12-.79.79-1.93.68-2.55-.25-.61-.93-.47-2.33.31-3.12.79-.79 1.93-.68 2.551.25zM495.646 663.98c2.64 2.649 2.62 6.92-.021 9.56a6.76 6.76 0 0 1-9.56-.05c-2.62-2.63-2.61-6.92.03-9.54a6.758 6.758 0 0 1 9.551.03z"/><path d="M489.776 165.62c-2.12-3.38-5.37-12.58 4.85-11.14 6.53 8.12 8.32 14.77-2.17 14.77l-.7.43c-.75-1.21-1.55-2.47-2.409-3.78l.429-.28z" fill="#ffeec8"/><path d="M494.626 154.48c-10.22-1.44-6.97 7.76-4.85 11.14l-.43.28c-3.261-5.02-7.261-10.7-11.9-17.06-6.62-4.32-15.19-12.68-26.04-16.49-15.65-5.51-33.44-4.92-41.45-4.04 15.17-13.06 48.86-2.74 48.86-2.74 2.11.56 5.979 2.82 10.52 6.04 5.78 4.08 12.65 9.72 18.42 15.38 2.58 2.54 4.931 5.08 6.87 7.49z" fill="#ffeec8"/><path d="M491.026 132.09c.61.93.479 2.33-.311 3.12-.789.79-1.93.67-2.55-.26-.609-.93-.479-2.33.311-3.12s1.93-.67 2.55.26zM489.026 124.65c.62.93.479 2.33-.311 3.12-.779.79-1.92.67-2.539-.26-.61-.93-.48-2.33.31-3.12.781-.79 1.93-.67 2.54.26zM485.637 135.78c.609.93.47 2.32-.311 3.11-.79.79-1.93.68-2.55-.25-.62-.93-.48-2.33.31-3.12s1.931-.68 2.551.26zM483.706 128.42c.62.93.48 2.33-.31 3.12s-1.92.68-2.54-.26c-.62-.93-.48-2.33.31-3.12s1.92-.67 2.54.26z"/><path d="M481.126 191.76c.74 4.08 1.051 7.89 1.051 11.2-5.5 2.15-9.44.17-13.41-5.73l.52-.33c-2.16-6.36 5.15-11.69 11.72-5.12l.119-.02z" fill="#ffeec8"/><path d="M469.156 629.08c2.65 2.65 2.64 6.939-.02 9.56-2.65 2.641-6.921 2.62-9.561-.04-2.63-2.64-2.61-6.909.04-9.55 2.641-2.63 6.931-2.61 9.541.03z"/><path d="M467.347 200.47c.52 2.31.97 4.63 1.369 6.98-.989 2.27-2.569 3.68-5.579 3.68-2.53 0-4.87-1.85-7.301-4.79-3-8.19 8.16-10.48 10.841-5.65l.67-.22z" fill="#ffeec8"/><path d="M450.746 592.4a6.75 6.75 0 0 1-.03 9.56 6.76 6.76 0 0 1-9.56-.04c-2.61-2.65-2.6-6.92.05-9.55 2.63-2.62 6.92-2.62 9.54.03z"/><path d="M445.586 191.51l-1.29.02-22.189 22.19s-6.88 9.64-16.06.46-.92-17.44-.92-17.44l21.55-21.54v-.01c3.899.92 7.43 2.66 9.35 4.58 3.669 3.67 6.799 7.76 9.559 11.74zm-7.01-4.28c.78-.79.92-2.18.311-3.12-.62-.93-1.761-1.04-2.551-.25-.779.79-.92 2.19-.31 3.12.62.93 1.76 1.04 2.55.25zm-6.97-4.7c.79-.79.93-2.18.31-3.12-.62-.93-1.76-1.05-2.54-.25-.79.79-.93 2.18-.31 3.11.621.94 1.75 1.05 2.54.26zm-.929 15.87c.789-.79.93-2.19.31-3.12-.61-.93-1.75-1.04-2.54-.26-.78.79-.93 2.19-.31 3.12.619.94 1.759 1.05 2.54.26zm-7.201 5.21c.79-.79.93-2.19.31-3.12-.62-.93-1.76-1.05-2.54-.26-.79.79-.93 2.19-.31 3.12.62.93 1.76 1.05 2.54.26zm-1.99-7.44c.78-.79.92-2.19.31-3.12-.62-.93-1.76-1.05-2.55-.26s-.92 2.19-.31 3.12c.62.93 1.76 1.05 2.55.26zm-3.4 11.12c.79-.79.93-2.18.31-3.11-.61-.93-1.75-1.05-2.54-.26s-.93 2.19-.31 3.12c.61.93 1.75 1.04 2.54.25zm-1.919-7.35c.79-.79.92-2.19.31-3.12-.62-.93-1.76-1.04-2.55-.25-.78.78-.92 2.18-.31 3.12.619.93 1.759 1.04 2.55.25z" fill="#787878"/><path d="M438.887 184.11c.609.94.47 2.33-.311 3.12-.79.79-1.93.68-2.55-.25-.61-.93-.47-2.33.31-3.12.79-.79 1.931-.68 2.551.25zM437.756 573.97c2.631 2.65 2.601 6.92-.029 9.561-2.66 2.62-6.94 2.609-9.561-.03a6.758 6.758 0 0 1 .04-9.55c2.641-2.641 6.931-2.621 9.55.019zM431.916 179.41c.62.94.48 2.33-.31 3.12s-1.92.68-2.54-.26c-.62-.93-.48-2.32.31-3.11.78-.8 1.92-.68 2.54.25zM430.986 195.28c.62.93.479 2.33-.31 3.12-.78.79-1.921.68-2.54-.26-.62-.93-.471-2.33.31-3.12.79-.78 1.93-.67 2.54.26zM428.767 602.48a6.77 6.77 0 0 1-.03 9.56c-2.65 2.63-6.93 2.61-9.56-.04s-2.61-6.92.04-9.54a6.757 6.757 0 0 1 9.55.02zM423.786 200.49c.62.93.48 2.33-.31 3.12-.78.79-1.92.67-2.54-.26-.62-.93-.48-2.33.31-3.12.78-.79 1.921-.67 2.54.26zM421.796 193.05c.61.93.47 2.33-.31 3.12-.79.79-1.93.67-2.55-.26-.61-.93-.48-2.33.31-3.12s1.93-.67 2.55.26zM418.396 204.18c.62.93.48 2.32-.31 3.11s-1.93.68-2.54-.25c-.62-.93-.48-2.33.31-3.12s1.93-.67 2.54.26zM416.476 196.82c.61.93.48 2.33-.31 3.12s-1.93.68-2.55-.25c-.61-.94-.47-2.34.31-3.12.79-.79 1.93-.68 2.55.25zM416.006 583.76a6.748 6.748 0 0 1-.04 9.55c-2.64 2.62-6.92 2.62-9.55-.029-2.63-2.641-2.6-6.931.03-9.55 2.67-2.641 6.94-2.611 9.56.029zM386.576 542.42c2.63 2.65 2.62 6.93-.02 9.55a6.75 6.75 0 0 1-9.56-.04 6.736 6.736 0 0 1 .03-9.54c2.65-2.62 6.92-2.61 9.55.03zM372.126 513.22c2.63 2.641 2.6 6.92-.03 9.55-2.67 2.62-6.93 2.61-9.56-.039-2.62-2.641-2.61-6.921.04-9.54 2.64-2.631 6.93-2.611 9.55.029zM359.126 494.78a6.75 6.75 0 0 1-.04 9.56c-2.64 2.63-6.92 2.61-9.56-.05-2.62-2.64-2.61-6.91.04-9.55 2.66-2.62 6.93-2.61 9.56.04zM350.136 523.3c2.63 2.65 2.61 6.91-.03 9.55a6.738 6.738 0 0 1-9.55-.04c-2.63-2.64-2.61-6.909.03-9.55a6.748 6.748 0 0 1 9.55.04zM337.376 504.57c2.63 2.649 2.62 6.93-.04 9.55-2.64 2.63-6.91 2.61-9.54-.03-2.63-2.649-2.62-6.93.03-9.55a6.739 6.739 0 0 1 9.55.03zM301.376 471.56a6.77 6.77 0 0 1-.03 9.561 6.748 6.748 0 0 1-9.55-.03c-2.63-2.64-2.61-6.93.03-9.56 2.65-2.631 6.93-2.611 9.55.029zM291.816 432.32c2.63 2.64 2.6 6.92-.04 9.55a6.748 6.748 0 0 1-9.55-.04c-2.63-2.64-2.63-6.91.02-9.54a6.763 6.763 0 0 1 9.57.03zM278.806 413.89c2.63 2.65 2.62 6.92-.03 9.54a6.76 6.76 0 0 1-9.56-.02 6.769 6.769 0 0 1 .04-9.56 6.757 6.757 0 0 1 9.55.04zM269.826 442.41a6.754 6.754 0 0 1-.04 9.54c-2.65 2.63-6.92 2.63-9.55-.03a6.748 6.748 0 0 1 .03-9.55c2.651-2.62 6.93-2.62 9.56.04zM257.056 423.67c2.63 2.66 2.62 6.93-.03 9.55a6.749 6.749 0 0 1-9.55-.029c-2.63-2.65-2.61-6.931.03-9.55 2.65-2.621 6.92-2.611 9.55.029zM246.006 381.38c2.62 2.66 2.6 6.93-.03 9.55-2.65 2.63-6.93 2.62-9.55-.03a6.745 6.745 0 0 1 .03-9.54c2.64-2.64 6.93-2.63 9.55.02zM211.846 356.66a6.76 6.76 0 0 1-.04 9.56 6.748 6.748 0 0 1-9.55-.04 6.757 6.757 0 0 1 9.59-9.52zM198.846 338.23a6.757 6.757 0 0 1-.04 9.55 6.739 6.739 0 0 1-9.55-.04c-2.63-2.64-2.61-6.91.03-9.54 2.651-2.63 6.93-2.62 9.56.03zM189.856 366.74a6.76 6.76 0 0 1-.04 9.56 6.736 6.736 0 0 1-9.54-.04c-2.63-2.64-2.62-6.92.03-9.55s6.92-2.61 9.55.03zM177.096 348.01c2.63 2.65 2.61 6.94-.04 9.56-2.64 2.63-6.92 2.61-9.55-.04-2.62-2.64-2.61-6.92.04-9.54 2.641-2.63 6.92-2.61 9.55.02zM144.996 287.66a6.739 6.739 0 0 1-.04 9.55 6.736 6.736 0 0 1-9.54-.03 6.748 6.748 0 0 1 .03-9.55c2.65-2.62 6.93-2.62 9.55.03zM140.917 322.67c2.62 2.65 2.61 6.93-.04 9.55-2.64 2.63-6.92 2.62-9.55-.03s-2.61-6.91.04-9.54c2.639-2.64 6.929-2.63 9.55.02zM131.996 269.22c2.63 2.65 2.62 6.94-.03 9.57a6.757 6.757 0 0 1-9.55-.04 6.748 6.748 0 0 1 .03-9.55c2.65-2.63 6.93-2.62 9.55.02zM123.006 297.75a6.748 6.748 0 0 1-.03 9.55c-2.65 2.62-6.92 2.62-9.55-.03s-2.61-6.92.03-9.56c2.65-2.62 6.93-2.61 9.55.04zM110.256 279.02a6.757 6.757 0 0 1-.04 9.55c-2.64 2.63-6.92 2.61-9.55-.04a6.757 6.757 0 0 1 .04-9.55 6.757 6.757 0 0 1 9.55.04z"/><g fill="none" stroke="#000"><path d="M408.866 129.31c.35-.35.71-.69 1.09-1 15.17-13.06 48.86-2.74 48.86-2.74 2.11.56 5.979 2.82 10.52 6.04 5.78 4.08 12.65 9.72 18.42 15.38 2.58 2.54 4.931 5.08 6.87 7.49 6.53 8.12 8.32 14.77-2.17 14.77M462.546 185.29c2.16 5.12 3.65 10.13 4.801 15.18.52 2.31.97 4.63 1.369 6.98-.989 2.27-2.569 3.68-5.579 3.68-2.53 0-4.87-1.85-7.301-4.79-1.31-1.58-2.649-3.47-4.05-5.56-1.899-2.82-3.93-6.01-6.2-9.27-2.76-3.98-5.89-8.07-9.56-11.74-1.92-1.92-5.45-3.66-9.35-4.58-5.28-1.24-11.21-.96-14.65 2.49-9.79 9.78-13.34 18.51-14.58 19.07M408.396 154.18c24.17 0 31.09 3.71 39.439 7.31 6.32 7.73 10.681 14.84 13.79 21.72.311.67.601 1.33.88 1.99" stroke-width="7"/><path d="M418.696 143.47c-.89 0-1.79-.01 0 0 13.72.11 26.43 1.18 36.04 6.95 13.07 8.24 20.42 20.59 24.15 32.28.989 3.1 1.729 6.15 2.239 9.06.74 4.08 1.051 7.89 1.051 11.2-5.5 2.15-9.44.17-13.41-5.73-2-2.98-4.011-6.97-6.221-11.94-.02-.03-.029-.06-.04-.09-.29-.65-.579-1.31-.88-1.99" stroke-width="7"/><path d="M266.446 280c47.59-26.71 63.54-38.45 76.77-46.76 3.49-41.25 18.89-61.44 22.52-66.63 3.04-4.34 30.69-34.12 40.03-37.62.44-.16 1.92-.43 4.19-.68 8.01-.88 25.8-1.47 41.45 4.04 10.85 3.81 19.42 12.17 26.04 16.49 4.64 6.36 8.64 12.04 11.9 17.06.859 1.31 1.659 2.57 2.409 3.78 2.91 4.71 5.061 8.76 6.37 12.13 3.11 8.01 1.471 12.26-6.01 12.86-1.05.08-3.11-.75-6.79-4.46-1.76-1.77-3.88-4.2-6.439-7.51" stroke-width="7"/><path d="M451.786 200.78c-8.85 17.39-41.71 42.38-65.84 46.72 0 0-24.55 38.64-38.44 49.83-9.29 7.48-17.02 18.16-26.82 24.75" stroke-width="7"/><path d="M466.677 200.69c-2.681-4.83-13.841-2.54-10.841 5.65M481.006 191.78c-6.569-6.57-13.88-1.24-11.72 5.12M495.956 181.28c-4.91-1.53-10.95 1.43-10.38 8.67M494.637 154.48h-.011c-10.22-1.44-6.97 7.76-4.85 11.14.33.52.63.91.85 1.09" stroke-width="5"/><path d="M469.706 131.09l78.471-78.48s6.89-9.63 16.06-.45c9.18 9.17.92 17.43.92 17.43l-77.1 77.1M444.296 191.53l-22.189 22.19s-6.88 9.64-16.06.46-.92-17.44-.92-17.44l21.55-21.54" stroke-width="6"/><path d="M613.736 173.29c-2.16 5.12-3.65 10.13-4.8 15.18-.521 2.31-.971 4.63-1.37 6.98 1 2.27 2.58 3.68 5.58 3.68 2.53 0 4.87-1.85 7.3-4.79 1.31-1.58 2.65-3.47 4.05-5.56 4.22-6.27 9.08-14.32 15.76-21.01 4.511-4.51 18.021-8.08 24-2.09 9.79 9.78 13.341 18.51 14.58 19.07M664.826 142.15c1-.01 2.021.01 3.061.03-24.171 0-31.091 3.71-39.44 7.31-6.32 7.73-10.68 14.84-13.79 21.72-.31.67-.6 1.33-.88 1.99" stroke-width="7"/><path d="M660.316 131.46c-.93 0-1.84.01-2.73.01-13.72.11-26.43 1.18-36.04 6.95-13.069 8.24-20.409 20.59-24.14 32.28-1 3.1-1.729 6.15-2.25 9.06-.74 4.08-1.05 7.89-1.05 11.2 5.5 2.15 9.45.17 13.41-5.73 2-2.98 4.01-6.97 6.22-11.94.02-.03.03-.06.04-.09.29-.65.58-1.31.88-1.99" stroke-width="7"/><path d="M597.396 170.7c-2.55 3.3-4.681 5.73-6.431 7.51-3.68 3.71-5.75 4.54-6.789 4.46-7.78-.62-9.24-5.2-5.62-13.83 3.159-7.54 10.189-18.19 20.279-32 6.62-4.32 15.19-12.68 26.04-16.49 2.79-.98 5.65-1.77 8.511-2.39 13.239-2.91 26.47-2.37 33.029-1.64 2.21.24 3.67.51 4.101.67 9.34 3.5 36.989 33.28 40.029 37.62 3.631 5.19 19.03 25.38 22.521 66.63 13.229 8.31 29.189 20.05 76.77 46.76" stroke-width="7"/><path d="M624.496 188.78c8.851 17.39 41.71 42.38 65.84 46.72 0 0 24.561 38.64 38.44 49.83 9.29 7.48 17.02 18.16 26.82 24.75" stroke-width="7"/><path d="M609.606 188.69c2.68-4.83 13.85-2.54 10.84 5.65M595.276 179.78c6.58-6.57 13.89-1.24 11.729 5.12M580.326 169.28c4.91-1.53 10.95 1.43 10.38 8.67M583.187 80.74c-5.021 6.32-13.23 5.84-17.98 5.03" stroke-width="5"/><path d="M667.427 117.31c-.33-.33-.671-.66-1.011-.99-14.89-14.43-42.97-32.32-42.97-32.32-15.7-2.93-29.17-4.3-40.26-3.26-6.94.66-12.95 2.26-17.98 5.03 4.57 8.4 14.931 12 24.28 9.11 6.01 4.23 18.72 6.57 26.38 6.57 5.6 6.74 9.76 12.61 17.521 16.51.35.17.699.34 1.069.51" stroke-width="5"/><path d="M614.996 721.84c16.57 16.7 17.03 43.101 1.03 58.97l-5.09 5.061c-15.99 15.87-42.391 15.229-58.96-1.46L81.036 310.09c-16.57-16.69-17.03-43.09-1.03-58.98l5.07-5.03c16-15.9 42.4-15.25 58.97 1.45l470.95 474.31z" stroke-width="21.599"/></g><path fill="none" d="M0 0h850.394v850.394H0z"/></svg>