<?xml version="1.0" encoding="iso-8859-1"?>
<!-- Generator: Adobe Illustrator 12.0.1, SVG Export Plug-In . SVG Version: 6.00 Build 51448)  -->
<!DOCTYPE svg PUBLIC "-//W3C//DTD SVG 1.1//EN" "http://www.w3.org/Graphics/SVG/1.1/DTD/svg11.dtd" [
	<!ENTITY ns_svg "http://www.w3.org/2000/svg">
	<!ENTITY ns_xlink "http://www.w3.org/1999/xlink">
]>
<svg  version="1.1" id="Layer_1" xmlns="&ns_svg;" xmlns:xlink="&ns_xlink;" width="850.394" height="850.394"
	 viewBox="0 0 850.394 850.394" style="overflow:visible;enable-background:new 0 0 850.394 850.394;" xml:space="preserve">
<g id="XMLID_4_">
	<g>
		<path style="fill:#FBED24;" d="M396.77,376.53c-12.52-23.3-34.23-38.28-36.9-40.06c2.56-1.71,5.01-4.47,7.46-7.63l5.88-10.11
			l0.07,0.02c0,0,20.75,19.25,48.09,26.24c37.13,9.48,24.46,45.07,24.46,45.07S414.31,409.18,396.77,376.53z"/>
		<path style="fill:#EF947D;" d="M139.74,152.43c-17.09,21.91-34.75,36.73-39.53,33.21l-0.05-0.04h-0.01
			c-4.71-3.67,5.36-24.48,22.52-46.48c17.15-22,34.87-36.84,39.58-33.16C166.97,109.63,156.89,130.43,139.74,152.43z"/>
		<path style="fill:#EF947D;" d="M369.39,308.64c2.99,2.33,4.2,4.82,4.2,7.45l-0.38,2.64l-5.88,10.11c-2.45,3.16-4.9,5.92-7.46,7.63
			h-0.01c-3.53,2.34-7.28,2.68-11.61-0.7l-88.97-69.38l-2.96-0.46c3.75-4.09,7.63-8.66,11.48-13.6c3.58-4.58,6.84-9.11,9.73-13.45
			l2.91,0.38L369.39,308.64z"/>
		<path style="fill:#EF947D;" d="M228.46,285.66L100.21,185.64c4.78,3.52,22.44-11.3,39.53-33.21c17.15-22,27.23-42.8,22.51-46.47
			l128.01,99.81l0.06,0.08c3.73,2.91-1.81,16.56-12.79,33.03c-2.89,4.34-6.15,8.87-9.73,13.45c-3.85,4.94-7.73,9.51-11.48,13.6
			C243.64,279.75,232.38,287.98,228.46,285.66z"/>
		<path style="fill:#FFEEC8;" d="M769.49,442.81L768,444l-27.02,123.7c-3.211-3.88-6.54-7.66-9.99-11.311
			c-16.271-17.239-35.2-31.76-56.38-40.92c-16.17-7-33.65-10.88-52.25-10.479c-21.79,0.5-44.021,7.79-62.851,19.87
			c-15.6,10.01-28.87,23.3-37.609,38.729c-3.32,5.88-7.28,10.67-7.761,14.84L510,578l-12-16l-5.06-3.2c2.069,0,4.239-0.62,6.43-2.03
			c9.84-6.319,5.17-18.369-0.061-25.079c-4.89-6.28-5.979-11.4,0.03-22.221l-0.899-0.71c-5.36,3.46-9.761,7.33-13.061,11.79L484,520
			l-9.55-51.56c49.68-76.84,158.319-90.88,226.66-68.63C734.49,410.68,758.27,431.87,769.49,442.81z"/>
		<path style="fill:#FFFFFF;" d="M730.99,556.39l-1.681,0.67c-22.54,20.891-48.56,39.49-78.609,50.181
			c-18.181,6.5-43.21,7.63-62.22,3.72c-8.11-1.67-18.04-3.65-25.48-7.09c-6.25-2.89-11.64-9.62-17.48-12.41
			c-8.76-4.03-18.579-0.43-26.739-5.51c-3.79-2.33-4.96-4.8-4.641-7.521c0.48-4.17,4.44-8.96,7.761-14.84
			c8.739-15.43,22.01-28.72,37.609-38.729l4.49,3.64c-3.53,7.06-1.29,6.3-1.29,14.67c0,30.13,25.58,54.59,57.17,54.59
			c31.62,0,57.22-24.46,57.22-54.59c0-11.31,1.07-14.229-5.1-22.96l2.61-4.74C695.79,524.63,714.72,539.15,730.99,556.39z"/>
		<path style="fill:#ABD150;" d="M672,520.21c6.17,8.73,5.1,11.65,5.1,22.96c0,30.13-25.6,54.59-57.22,54.59
			c-31.59,0-57.17-24.46-57.17-54.59c0-8.37-2.24-7.61,1.29-14.67l-4.49-3.64c18.83-12.08,41.061-19.37,62.851-19.87
			c18.6-0.4,36.08,3.479,52.25,10.479L672,520.21z M655.29,545.22c0-16.899-15.59-30.609-34.89-30.609
			c-19.221,0-34.75,13.71-34.75,30.609c0,16.96,15.529,30.66,34.75,30.66C639.7,575.88,655.29,562.18,655.29,545.22z"/>
		<path style="fill:#231F20;" d="M620.4,514.61c19.3,0,34.89,13.71,34.89,30.609c0,16.96-15.59,30.66-34.89,30.66
			c-19.221,0-34.75-13.7-34.75-30.66C585.65,528.32,601.18,514.61,620.4,514.61z M632.94,545.22c0-7.51-5.57-13.569-12.5-13.569
			c-6.91,0-12.48,6.06-12.48,13.569c0,7.55,5.57,13.66,12.48,13.66C627.37,558.88,632.94,552.77,632.94,545.22z"/>
		<path style="fill:#231F20;" d="M620.44,531.65c6.93,0,12.5,6.06,12.5,13.569c0,7.55-5.57,13.66-12.5,13.66
			c-6.91,0-12.48-6.11-12.48-13.66C607.96,537.71,613.53,531.65,620.44,531.65z"/>
		<path style="fill:#FBED24;" d="M499.31,531.69c5.23,6.71,9.9,18.76,0.061,25.079c-2.19,1.41-4.36,2.03-6.43,2.03
			c-8.04,0-14.53-9.319-14.36-17.649c0.17-8.12,2.56-14.86,6.8-20.601c3.3-4.46,7.7-8.33,13.061-11.79l0.899,0.71
			C493.33,520.29,494.42,525.41,499.31,531.69z"/>
	</g>
	<g>
		<path style="fill:none;stroke:#231F20;stroke-width:14;" d="M100.21,185.64c4.78,3.52,22.44-11.3,39.53-33.21
			c17.15-22,27.23-42.8,22.51-46.47c-4.71-3.68-22.43,11.16-39.58,33.16c-17.16,22-27.23,42.81-22.52,46.48h0.01"/>
		<path style="fill:none;stroke:#231F20;stroke-width:14;" d="M100.16,185.6l0.05,0.04c0,0,128.25,100.02,127.99,99.86
			c0.08,0.07,0.17,0.12,0.26,0.16c3.92,2.32,15.18-5.91,27.86-19.73c3.75-4.09,7.63-8.66,11.48-13.6c3.58-4.58,6.84-9.11,9.73-13.45
			c10.98-16.47,16.52-30.12,12.79-33.03l-0.06-0.08l-128.01-99.81"/>
		<path style="fill:none;stroke:#231F20;stroke-width:14;" d="M359.87,336.47c2.56-1.71,5.01-4.47,7.46-7.63l5.88-10.11l0.38-2.64
			c0-2.63-1.21-5.12-4.2-7.45l-88.95-69.38"/>
		<path style="fill:none;stroke:#231F20;stroke-width:14;" d="M259.28,266.39l88.97,69.38c4.33,3.38,8.08,3.04,11.61,0.7"/>
		<path style="fill:none;stroke:#231F20;stroke-width:14;" d="M359.6,336.29c0,0,0.09,0.06,0.26,0.18h0.01
			c2.67,1.78,24.38,16.76,36.9,40.06c17.54,32.65,49.06,13.53,49.06,13.53s12.67-35.59-24.46-45.07
			c-27.34-6.99-48.09-26.24-48.09-26.24"/>
		<path style="fill:none;stroke:#231F20;stroke-width:21;" d="M471.77,472.73c0.87-1.45,1.761-2.881,2.681-4.29
			c49.68-76.84,158.319-90.88,226.66-68.63c33.38,10.87,57.159,32.06,68.38,43c1.16,1.141,2.189,2.16,3.08,3.051"/>
		<path style="fill:none;stroke:#231F20;stroke-width:14;stroke-linecap:square;stroke-miterlimit:10;" d="M740.98,567.7
			c-3.211-3.88-6.54-7.66-9.99-11.311c-16.271-17.239-35.2-31.76-56.38-40.92c-16.17-7-33.65-10.88-52.25-10.479
			c-21.79,0.5-44.021,7.79-62.851,19.87c-15.6,10.01-28.87,23.3-37.609,38.729c-3.32,5.88-7.28,10.67-7.761,14.84
			c-0.319,2.721,0.851,5.19,4.641,7.521c8.16,5.08,17.979,1.479,26.739,5.51c5.841,2.79,11.23,9.521,17.48,12.41
			c7.44,3.439,17.37,5.42,25.48,7.09c19.01,3.91,44.039,2.78,62.22-3.72c30.05-10.69,56.069-29.29,78.609-50.181"/>
		<path style="fill:none;stroke:#231F20;stroke-width:13;stroke-linecap:square;stroke-miterlimit:10;" d="M564,528.5
			c-3.53,7.06-1.29,6.3-1.29,14.67c0,30.13,25.58,54.59,57.17,54.59c31.62,0,57.22-24.46,57.22-54.59c0-11.31,1.07-14.229-5.1-22.96
			"/>
		<path style="fill:none;stroke:#231F20;stroke-width:7;" d="M492.94,558.8c2.069,0,4.239-0.62,6.43-2.03
			c9.84-6.319,5.17-18.369-0.061-25.079c-4.89-6.28-5.979-11.4,0.03-22.221l-0.899-0.71c-5.36,3.46-9.761,7.33-13.061,11.79
			c-4.24,5.74-6.63,12.48-6.8,20.601C478.41,549.48,484.9,558.8,492.94,558.8z"/>
	</g>
</g>
<rect style="fill:none;" width="850.394" height="850.394"/>
<path style="fill:#FBED24;stroke:#000000;stroke-width:7;stroke-linecap:round;stroke-linejoin:round;" d="M460.44,404.76
	c-12.23,7.9-19.561,17.95-19.86,32.391c-0.22,10.479,10.1,22.51,20.79,15.619c9.84-6.319,5.17-18.369-0.061-25.079
	c-4.89-6.28-5.979-11.4,0.03-22.221L460.44,404.76z"/>
</svg>
