<?xml version="1.0" encoding="iso-8859-1"?>
<!-- Generator: Adobe Illustrator 12.0.1, SVG Export Plug-In . SVG Version: 6.00 Build 51448)  -->
<!DOCTYPE svg PUBLIC "-//W3C//DTD SVG 1.1//EN" "http://www.w3.org/Graphics/SVG/1.1/DTD/svg11.dtd" [
	<!ENTITY ns_svg "http://www.w3.org/2000/svg">
	<!ENTITY ns_xlink "http://www.w3.org/1999/xlink">
]>
<svg  version="1.1" id="Layer_1" xmlns="&ns_svg;" xmlns:xlink="&ns_xlink;" width="850.394" height="850.394"
	 viewBox="0 0 850.394 850.394" style="overflow:visible;enable-background:new 0 0 850.394 850.394;" xml:space="preserve">
<g id="XMLID_4_">
	<g>
		<path style="fill:#FFFFFF;" d="M353.61,413.59L352,416c0,13.81-13.76,29.51-28.21,29.51c-14.46,0-26.19-11.2-26.19-25
			c0-3.43-0.21-5.17,0.45-7.1l-4.5-3.06c8.81-4.77,18.56-7.54,29.11-7.32C333.49,403.28,344.56,407.19,353.61,413.59z
			 M333.14,420.02c0-4.66-4.23-8.43-9.45-8.43c-5.21,0-9.44,3.77-9.44,8.43c0,4.65,4.23,8.42,9.44,8.42
			C328.91,428.44,333.14,424.67,333.14,420.02z"/>
		<path style="fill:#FFEEC8;" d="M654.5,394.05l2.58-0.01c5.76-2.06,12.22-2.77,19.25-1.64c26.81,4.3,23.189,34.38,15.83,49.39
			c-17.9,36.53-9.71,49.96-11.98,77.83c-0.859,10.3-12.3,30.04-36.13,26.7c7.101-30.83,10.9-64.011,10.9-98.82
			c0-18.53-0.23-31.53-0.79-53.45H654.5z"/>
		<path style="fill:#9C5B16;" d="M654.12,392.41c-9.23-37.09-49.49-68.71-59.82-82.98c-55.64-76.84-97.76-105.74-108.12-112.13
			c-1.62-1.01-2.46-1.46-2.46-1.46c-0.1,0.07-0.2,0.14-0.31,0.21c-46.9,32.76-205.2,84.96-225.32,99.71c0,0-35.92,37.04-60.82,68.91
			c-8.94,11.45-16.46,22.23-20.38,30.38l-2.35-75.96c0-121.16,98.89-191.49,98.89-191.49c11.44-7.78,19.09-11.69,19.09-11.69
			C342.96,85.9,408.2,75.33,491.4,85.03C591.86,96.74,668.96,196.8,683.66,321.35c2.38,20.25-3.83,49.63-7.33,71.05
			c-7.03-1.13-13.49-0.42-19.25,1.64l-2.58,0.01C654.38,393.5,654.26,392.96,654.12,392.41z"/>
		<path style="fill:#FFEEC8;" d="M508.91,413.85l4.75,2.24c0.04,0.81,0.32,1.68,0.32,3.64c0,13.8,11.71,25,26.18,25
			c14.43,0,26.17-11.2,26.17-25c0-3.77,0.26-5.51-0.67-7.7l1.28-4.19c-7.891-3.7-16.471-5.79-25.66-5.59
			C529.87,402.51,518.21,406.83,508.91,413.85z M293.55,410.35l4.5,3.06c-0.66,1.93-0.45,3.67-0.45,7.1c0,13.8,11.73,25,26.19,25
			c14.45,0,28.21-15.7,28.21-29.51l1.61-2.41c-9.05-6.4-20.12-10.31-30.95-10.56C312.11,402.81,302.36,405.58,293.55,410.35z
			 M210.49,548.76c-7.47-31.51-11.47-65.52-11.47-101.26c0-11.43,0.02-31.45,0.19-50.79c0.08-10.83,0.22-21.44,0.42-30.21
			l-2.36-1.83c24.9-31.87,60.82-68.91,60.82-68.91c20.12-14.75,178.42-66.95,225.32-99.71c0.52,0.47,1.51,0.88,2.77,1.25
			c10.36,6.39,52.48,35.29,108.12,112.13c10.33,14.27,50.59,45.89,59.82,82.98c0.01,0.55,0.02,1.1,0.04,1.64
			c0.56,21.92,0.79,34.92,0.79,53.45c0,34.81-3.8,67.99-10.9,98.82c-28.87,125.3-112.31,211.81-217.06,211.81
			C322.92,758.13,239.88,672.75,210.49,548.76z M437.04,585.27c-0.33,0.061-0.66,0.12-1,0.171l2.22-0.141
			C437.84,585.3,437.43,585.29,437.04,585.27z"/>
		<path style="fill:#FFFFFF;" d="M566.94,407.84l-1.28,4.19c0.93,2.19,0.67,3.93,0.67,7.7c0,13.8-11.74,25-26.17,25
			c-14.47,0-26.18-11.2-26.18-25c0-1.96-0.28-2.83-0.32-3.64l-4.75-2.24c9.3-7.02,20.96-11.34,32.37-11.6
			C550.47,402.05,559.05,404.14,566.94,407.84z M549.46,419.96c0-4.66-4.229-8.43-9.45-8.43c-5.21,0-9.45,3.77-9.45,8.43
			c0,4.65,4.24,8.42,9.45,8.42C545.23,428.38,549.46,424.61,549.46,419.96z"/>
		<path d="M540.01,411.53c5.221,0,9.45,3.77,9.45,8.43c0,4.65-4.229,8.42-9.45,8.42c-5.21,0-9.45-3.77-9.45-8.42
			C530.56,415.3,534.8,411.53,540.01,411.53z"/>
		<path d="M323.69,411.59c5.22,0,9.45,3.77,9.45,8.43c0,4.65-4.23,8.42-9.45,8.42c-5.21,0-9.44-3.771-9.44-8.42
			C314.25,415.36,318.48,411.59,323.69,411.59z"/>
		<path style="fill:#FFEEC8;" d="M210.49,548.76c-24.73,4.29-36.58-15.99-37.44-26.479c-2.28-27.87,5.92-41.311-11.99-77.84
			c-7.36-15.011-10.97-45.09,15.83-49.391c7.03-1.12,13.49-0.41,19.26,1.64l3.06,0.02c-0.17,19.34-0.19,39.36-0.19,50.79
			C199.02,483.24,203.02,517.25,210.49,548.76z"/>
	</g>
	<g>
		<path style="fill:none;stroke:#231F20;stroke-width:14;stroke-linecap:square;stroke-miterlimit:10;" d="M268.35,431.75
			c7.13-8.63,15.6-16.2,25.2-21.4c8.81-4.77,18.56-7.54,29.11-7.32c10.83,0.25,21.9,4.16,30.95,10.56
			c6.19,4.39,11.44,9.93,15.02,16.28"/>
		<path style="fill:none;stroke:#231F20;stroke-width:14;stroke-linecap:square;stroke-miterlimit:10;" d="M352,416
			c0,13.81-13.76,29.51-28.21,29.51c-14.46,0-26.19-11.2-26.19-25c0-3.43-0.21-5.17,0.45-7.1"/>
		<path style="fill:none;stroke:#231F20;stroke-width:14;stroke-linecap:square;stroke-miterlimit:10;" d="M595.59,430.96
			c-7.97-9.64-17.62-17.95-28.649-23.12c-7.891-3.7-16.471-5.79-25.66-5.59c-11.41,0.26-23.07,4.58-32.37,11.6
			c-5.58,4.21-10.3,9.38-13.61,15.24"/>
		<path style="fill:none;stroke:#231F20;stroke-width:14;stroke-linecap:square;stroke-miterlimit:10;" d="M513.66,416.09
			c0.04,0.81,0.32,1.68,0.32,3.64c0,13.8,11.71,25,26.18,25c14.43,0,26.17-11.2,26.17-25c0-3.77,0.26-5.51-0.67-7.7"/>
		<path style="fill:none;stroke:#231F20;stroke-width:21;" d="M196.15,396.69c-5.77-2.05-12.23-2.76-19.26-1.64
			c-26.8,4.3-23.19,34.38-15.83,49.391c17.91,36.529,9.71,49.97,11.99,77.84c0.86,10.489,12.71,30.77,37.44,26.479
			c0.24-0.04,0.49-0.08,0.74-0.13"/>
		<path style="fill:none;stroke:#231F20;stroke-width:21;" d="M657.08,394.04c5.76-2.06,12.22-2.77,19.25-1.64
			c26.81,4.3,23.189,34.38,15.83,49.39c-17.9,36.53-9.71,49.96-11.98,77.83c-0.859,10.3-12.3,30.04-36.13,26.7
			c-0.68-0.09-1.359-0.21-2.06-0.34"/>
		<path style="fill:none;stroke:#231F20;stroke-width:21;" d="M373.55,651.79c32.93,13.13,85.2,11.6,113.22-0.63"/>
		<path style="fill:none;stroke:#231F20;stroke-width:21;" d="M654.04,389.55c0.03,0.97,0.05,1.92,0.08,2.86
			c0.01,0.55,0.02,1.1,0.04,1.64c0.56,21.92,0.79,34.92,0.79,53.45c0,34.81-3.8,67.99-10.9,98.82
			c-28.87,125.3-112.31,211.81-217.06,211.81c-104.07,0-187.11-85.38-216.5-209.37c-7.47-31.51-11.47-65.52-11.47-101.26
			c0-11.43,0.02-31.45,0.19-50.79c0.08-10.83,0.22-21.44,0.42-30.21"/>
		<path style="fill:none;stroke:#231F20;stroke-width:14;" d="M437.04,585.27c12.47-2.31,10.25-9.71,23.63-6.46
			c11.55,2.801,23.8,8.561,26.67-9.5c1.99-12.42-7.35-14.06-12.32-24.029"/>
		<path style="fill:none;stroke:#231F20;stroke-width:14;" d="M437.04,585.27c0.39,0.021,0.8,0.03,1.22,0.03l-2.22,0.141
			C436.38,585.39,436.71,585.33,437.04,585.27z"/>
		<path style="fill:none;stroke:#231F20;stroke-width:14;" d="M398,430.39c20.71,22.74,14.44,76.13,5.17,103.931l-3.9,10.83
			c-4.96,9.97-14.3,11.6-12.32,24.029c2.88,18.051,15.13,12.29,26.67,9.5c13.33-3.22,10.31,6.051,23.42,6.59"/>
		<path style="fill:none;stroke:#231F20;stroke-width:7;" d="M333.14,420.02c0,4.65-4.23,8.42-9.45,8.42
			c-5.21,0-9.44-3.771-9.44-8.42c0-4.66,4.23-8.43,9.44-8.43C328.91,411.59,333.14,415.36,333.14,420.02z"/>
		<path style="fill:none;stroke:#231F20;stroke-width:7;" d="M549.46,419.96c0,4.65-4.229,8.42-9.45,8.42
			c-5.21,0-9.45-3.77-9.45-8.42c0-4.66,4.24-8.43,9.45-8.43C545.23,411.53,549.46,415.3,549.46,419.96z"/>
		<path style="fill:none;stroke:#231F20;stroke-width:14;" d="M384.26,388.67c-11.16-23.52-54.88-32.7-77.01-28.28
			c-20.8,4.14-31.11,6.65-52.8,23.46"/>
		<path style="fill:none;stroke:#231F20;stroke-width:14;" d="M474.85,383.52c11.17-23.52,54.891-32.7,77.011-28.28
			c20.83,4.15,31.13,6.64,52.81,23.45"/>
		<path style="fill:none;stroke:#231F20;stroke-width:21;" d="M676.33,392.4c3.5-21.42,9.71-50.8,7.33-71.05
			C668.96,196.8,591.86,96.74,491.4,85.03c-83.2-9.7-148.44,0.87-198.88,30.88c0,0-7.65,3.91-19.09,11.69
			c0,0-98.89,70.33-98.89,191.49l2.35,75.96c3.92-8.15,11.44-18.93,20.38-30.38c24.9-31.87,60.82-68.91,60.82-68.91
			c20.12-14.75,178.42-66.95,225.32-99.71c0.109-0.07,0.21-0.14,0.31-0.21c0,0,0.84,0.45,2.46,1.46
			c10.36,6.39,52.48,35.29,108.12,112.13c10.33,14.27,50.59,45.89,59.82,82.98c0.14,0.55,0.26,1.09,0.38,1.64
			c0.76,3.37,1.25,6.78,1.43,10.23"/>
		<path style="fill:none;stroke:#231F20;stroke-width:21;" d="M502.01,199.34c-2.33,0.02-11.06-0.66-15.83-2.04
			c-1.26-0.37-2.25-0.78-2.77-1.25c-0.18-0.15-0.311-0.32-0.37-0.49c14.38-14.01,25.74-36.87,25.74-60.06"/>
	</g>
</g>
<rect style="fill:none;" width="850.394" height="850.394"/>
</svg>
