<?xml version="1.0" encoding="iso-8859-1"?>
<!-- Generator: Adobe Illustrator 12.0.1, SVG Export Plug-In . SVG Version: 6.00 Build 51448)  -->
<!DOCTYPE svg PUBLIC "-//W3C//DTD SVG 1.1//EN" "http://www.w3.org/Graphics/SVG/1.1/DTD/svg11.dtd" [
	<!ENTITY ns_svg "http://www.w3.org/2000/svg">
	<!ENTITY ns_xlink "http://www.w3.org/1999/xlink">
]>
<svg  version="1.1" id="Layer_1" xmlns="&ns_svg;" xmlns:xlink="&ns_xlink;" width="850.394" height="850.394"
	 viewBox="0 0 850.394 850.394" style="overflow:visible;enable-background:new 0 0 850.394 850.394;" xml:space="preserve">
<g id="XMLID_1_">
	<g>
		<path style="fill:#FFFFFF;" d="M309.64,369.89h-4.6v4.08h4.6V369.89z M317.88,366.13l-10.16,14.73l-0.01,0.01l-3.54-4.91L282,256
			l1.58-3.91c9.3,4.24,21.11,1.05,30.78-0.13c5.44-0.66,9.68-3.17,13.36-6.54L317.88,366.13z"/>
		<path style="fill:#797878;" d="M279.07,249.24c1.41,1.2,2.92,2.13,4.51,2.85L282,256l22.17,119.96l0.5,2.71l-44.06-62.58
			l11.99-27.55l-38.07,13.3l19.7-47.62C262.51,250.33,268,248,268,248l3.83-4.46C274.32,245.46,276.8,247.32,279.07,249.24z"/>
		<path style="fill:#797878;" d="M304.17,375.96l3.54,4.91l0.01-0.01L308,588l0.01,3.81L202,592l-3.43-0.03
			c0.72-81.7,4.13-177.5,4.13-177.5L133.22,566.56L132,566l-32-10l-3.98-0.48c5.56-19.239,23.15-80.529,31.07-112.51
			c13.73-55.48,59.12-147.03,59.12-147.03c11.57-11.56,32.01-23.55,49.57-32.66c6.82-3.53,13.2-6.63,18.45-9.1l-19.7,47.62
			l38.07-13.3l-11.99,27.55l44.06,62.58L304.17,375.96z"/>
		<path style="fill:#FFEEC8;" d="M246.47,166.1l0.15,0.13c2.61,2.41,5.64,4.56,9.11,5.81c2.12,0.75,5.02,0.89,7.22,0.43
			c0.93-0.19,2.08-0.42,2.95-0.83c0.74-0.33,1.35-1.12,2.03-1.43c1.01-0.48,2.15-0.06,3.1-0.64c1.11-0.68,0.27-1.47-0.37-2.59
			c-1.05-1.85-2.65-3.44-4.54-4.6c-2.14-1.34-4.65-2.14-7.1-2.2c-2.13-0.05-4.14,0.39-5.99,1.19
			C250.56,162.42,248.36,164.1,246.47,166.1z M328.75,164.24c-1.89-2-4.1-3.68-6.57-4.73c-1.85-0.79-3.86-1.23-5.99-1.18
			c-2.45,0.06-4.95,0.86-7.09,2.19c-1.89,1.16-3.49,2.75-4.54,4.6c-0.64,1.12-1.48,1.91-0.37,2.59c0.95,0.6,2.08,0.17,3.1,0.64
			c0.68,0.32,1.3,1.1,2.02,1.44c0.87,0.39,2.03,0.63,2.96,0.82c2.21,0.45,5.11,0.32,7.22-0.43c3.48-1.24,6.5-3.4,9.11-5.81
			L328.75,164.24z M248.71,216.61c-3.9-6.72-7.21-14.56-7.21-21.9c0-14.6-3.22-18.08-3.46-27.78c-0.12-4.89,0.95-9.91,2.98-14.47
			c2.26-5.1,5.73-9.65,10.09-12.85c6.38-4.69,41.07-21.23,55.91-31.63c0.22,0.47,0.58,0.78,1.08,0.92c5.39,5.72,32.4,34.35,47,48.96
			c13.61,13.61,4.35,47.03,4.06,49.09c-0.42,3.05-1.71,5.73-3.48,8.18c-2.65,3.68-6.4,6.83-9.94,9.9
			c-3.84,3.32-7.06,7.59-10.34,11.74c-2.43,3.08-4.9,6.11-7.68,8.65c-3.68,3.37-7.92,5.88-13.36,6.54
			c-9.67,1.18-21.48,4.37-30.78,0.13c-1.59-0.72-3.1-1.65-4.51-2.85c-2.27-1.92-4.75-3.78-7.24-5.7
			c-4.14-3.19-8.27-6.51-11.38-10.43C258.75,230.97,253.32,224.58,248.71,216.61z M312.75,211.9c-3.85,0.38-18.34-2.95-20.45,2.28
			c-1.3,0.55-3.42-0.83-4.85-1.16c-2.72-0.63-5.87-0.04-8.51,0.73c-4.24,1.23-4.45,2.9-3.11,4.66h0.01
			c1.37,1.82,4.41,3.74,6.37,5.35c5.26,4.35,12.12,4.91,18.52,2.08c4.72-2.08,7.51-6.66,10.17-10.99
			C311.51,213.84,312.12,212.85,312.75,211.9z"/>
		<path style="fill:#394EA1;" d="M315.25,638H302l-1.97-0.13l-9.44,140.3L288,778h-86.86c-1.04-29.14-1.97-130.61-2.7-157.83
			c0-9.08,0.05-18.54,0.13-28.2L202,592l106.01-0.19l106.66-0.189l1.76,56.58c0,0-1.08,108.27-2.05,131.89L410,780l-85.35,2.94
			L315.25,638z"/>
		<path style="fill:#797878;" d="M480.62,571.65L409.19,415.32l5.48,176.3l-106.66,0.189L308,588l-0.28-207.14l10.16-14.73
			l37.13-50.76l-11.98-27.55l38.08,13.3l-20.24-48.91l0.3-0.51c3.2,1.9,6.55,3.93,9.99,6.05c20.03,12.32,42.94,27.53,54.5,39.09
			c0,0,45.41,91.54,59.14,147.03c9.45,38.26,32.78,118.46,32.78,118.46L482,576l-2.37-0.62
			C479.96,573.81,480.3,572.54,480.62,571.65z"/>
		<path style="fill:#FFEEC8;" d="M517.58,562.33c9.08,28.97,10.8,64.67,7.62,75.979c-1.86,6.69-10.51,16.131-18.67,15.171
			c-9.04-0.98-11.11-22.261-15.471-29.04c-6.829,1.43-3.329,11.38-8.38,11.38c-4.37-4.36-5.84-16.38-5.84-28.96
			c0-12.07,1.351-24.65,2.79-31.48L482,576L517.58,562.33z"/>
		<path style="fill:#FFEEC8;" d="M96.02,555.52L100,556l32,10l1.22,0.56l-1.93,4.23c1.72,4.729,3.75,20.33,3.75,35.16
			c0,12.609-1.46,24.66-5.84,29.03c-5.02,0-1.54-9.99-8.39-11.381c-4.35,6.771-6.42,28.051-15.45,29.04
			c-8.15,0.971-16.81-8.51-18.68-15.17c-3.18-11.33-1.47-47.01,7.62-76.01C94.3,561.46,94.93,559.3,96.02,555.52z"/>
		<path style="fill:#FFFFFF;" d="M319.49,170.18c-2.11,0.75-5.01,0.88-7.22,0.43c-0.93-0.19-2.09-0.43-2.96-0.82
			c-0.72-0.34-1.34-1.12-2.02-1.44c-1.02-0.47-2.15-0.04-3.1-0.64c-1.11-0.68-0.27-1.47,0.37-2.59c1.05-1.85,2.65-3.44,4.54-4.6
			l0.33,0.53c-0.4,0.82-0.15,0.73-0.15,1.7c0,3.49,2.97,6.33,6.63,6.33c3.67,0,6.63-2.84,6.63-6.33c0-1.31,0.13-1.65-0.59-2.66
			l0.23-0.58c2.47,1.05,4.68,2.73,6.57,4.73l-0.15,0.13C325.99,166.78,322.97,168.94,319.49,170.18z"/>
		<path style="fill:#FFFFFF;" d="M252.68,164.61c0,3.49,2.97,6.33,6.63,6.33s6.63-2.84,6.63-6.33c0-0.97,0.26-0.88-0.15-1.7
			l0.33-0.53c1.89,1.16,3.49,2.75,4.54,4.6c0.64,1.12,1.48,1.91,0.37,2.59c-0.95,0.58-2.09,0.16-3.1,0.64
			c-0.68,0.31-1.29,1.1-2.03,1.43c-0.87,0.41-2.02,0.64-2.95,0.83c-2.2,0.46-5.1,0.32-7.22-0.43c-3.47-1.25-6.5-3.4-9.11-5.81
			l-0.15-0.13c1.89-2,4.09-3.68,6.56-4.73l0.23,0.57C252.55,162.96,252.68,163.29,252.68,164.61z"/>
		<path style="fill:#797878;" d="M588.02,236.56c0,5.69-0.72,11.21-2.079,16.47c-7.311,28.37-33.07,49.33-63.721,49.33
			c-36.34,0-65.79-29.46-65.79-65.8c0-15.33,5.24-29.44,14.03-40.62c12.04-15.33,30.75-25.17,51.76-25.17
			C558.56,170.77,588.02,200.22,588.02,236.56z M561.38,236.56c0-21.63-17.53-39.16-39.16-39.16c-21.62,0-39.149,17.53-39.149,39.16
			s17.529,39.16,39.149,39.16C543.85,275.72,561.38,258.19,561.38,236.56z"/>
		<path style="fill:#797878;" d="M724.9,206c22.989,1.33,41.229,20.41,41.229,43.74c0,24.2-19.62,43.82-43.81,43.82
			c-23.681,0-42.96-18.78-43.78-42.26c-0.021-0.52-0.03-1.04-0.03-1.56c0-24.2,19.61-43.82,43.811-43.82
			C723.19,205.92,724.05,205.95,724.9,206z M748.39,249.74c0-14.4-11.67-26.07-26.069-26.07c-14.4,0-26.07,11.67-26.07,26.07
			c0,14.4,11.67,26.08,26.07,26.08C736.72,275.82,748.39,264.14,748.39,249.74z"/>
		<path style="fill:#34A047;" d="M621.27,99.9H559.82H527.7l-2.891,56.03c-3.81,0.01-7.47,0.09-10.75,0.2l-0.069-2.09l3.24-55.22
			c0,0-1.801-9.75,18.77-9.75s72.9,0,72.9,0s12,2.18,12.27,8.67C621.19,98.24,621.22,98.97,621.27,99.9z"/>
		<path style="fill:#34A047;" d="M632.46,251.37l0.99,7.69h-27.07c0,0-0.34-2.3-0.93-6.03c-0.7-4.47-1.771-10.99-3.05-18.02h27.949
			L632.46,251.37z"/>
		<path style="fill:#34A047;" d="M605.45,253.03h-19.51c1.359-5.26,2.079-10.78,2.079-16.47c0-36.34-29.46-65.79-65.8-65.79
			c-21.01,0-39.72,9.84-51.76,25.17l-1.95-1.84c0,0-15.16-2.94-8.479-8.48c19.779-16.42,39.149-28.69,39.149-28.69
			s6.17-0.51,14.88-0.8c3.28-0.11,6.94-0.19,10.75-0.2c13.21-0.03,28.37,0.76,37.341,3.98c0.84,0.31,1.63,0.63,2.359,0.98
			c16.601,7.94,28.15,31.77,32.851,50.17c1.81,7.1,3.56,15.86,5.04,23.95C603.68,242.04,604.75,248.56,605.45,253.03z"/>
		<path style="fill:#34A047;" d="M559.82,99.9l2.71,59.01l-0.38,1c-8.971-3.22-24.131-4.01-37.341-3.98L527.7,99.9H559.82z"/>
		<path style="fill:#34A047;" d="M630.35,235.01l-0.63-4.92l4.811-0.62v-61.36l68.33,1.45c0,0,22.14-1.69,22.14,16.84v4.81
			c0,0-19.67-3.79-38.5,9.38c-15.02,10.51-23.14,22.5-24.06,43.08c-0.131,2.82-0.15,5.35-0.08,7.63h-29.33l-0.57,0.07L630.35,235.01
			z"/>
		<path style="fill:#34A047;" d="M522.22,197.4c21.63,0,39.16,17.53,39.16,39.16s-17.53,39.16-39.16,39.16
			c-21.62,0-39.149-17.53-39.149-39.16S500.6,197.4,522.22,197.4z"/>
		<path style="fill:#34A047;" d="M722.32,223.67c14.399,0,26.069,11.67,26.069,26.07c0,14.4-11.67,26.08-26.069,26.08
			c-14.4,0-26.07-11.68-26.07-26.08C696.25,235.34,707.92,223.67,722.32,223.67z"/>
		<path style="fill:#9C5C25;" d="M307.02,107.98c-14.84,10.4-49.53,26.94-55.91,31.63c-4.36,3.2-7.83,7.75-10.09,12.85
			c-2.03,4.56-3.1,9.58-2.98,14.47c0.24,9.7,3.46,13.18,3.46,27.78c0,7.34,3.31,15.18,7.21,21.9l-27.67,14.55
			c5.06-10.11,3.3-22.61,3.3-22.61c-0.2-19.22-2.55-40.2-2.88-44.74c-1.35-18.85,5.65-47.47,15.81-64.02
			c17.11-27.86,44.98-39.87,87.91-34.86c31.9,3.72,61.04,38.6,61.04,82.81c0,15.49-6.87,32.61,0.86,48.06l-31.4,19.33
			c1.77-2.45,3.06-5.13,3.48-8.18c0.29-2.06,9.55-35.48-4.06-49.09c-14.6-14.61-41.61-43.24-47-48.96
			c-0.62-0.65-0.95-1.01-0.95-1.01C307.11,107.92,307.07,107.95,307.02,107.98z"/>
		<path style="fill:#EF947D;" d="M292.3,214.18c2.11-5.23,16.6-1.9,20.45-2.28c-0.63,0.95-1.24,1.94-1.85,2.95
			c-7.41,3.34-11.7,3.38-16.94,3.8c-5.22,0.41-12.92,1.28-18.12-0.24h-0.01c-1.34-1.76-1.13-3.43,3.11-4.66
			c2.64-0.77,5.79-1.36,8.51-0.73C288.88,213.35,291,214.73,292.3,214.18z"/>
		<path style="fill:#EF947D;" d="M310.9,214.85c-2.66,4.33-5.45,8.91-10.17,10.99c-6.4,2.83-13.26,2.27-18.52-2.08
			c-1.96-1.61-5-3.53-6.37-5.35c5.2,1.52,12.9,0.65,18.12,0.24C299.2,218.23,303.49,218.19,310.9,214.85z"/>
		<path style="fill:#FFFFFF;" d="M321.95,160.09c0.72,1.01,0.59,1.35,0.59,2.66c0,3.49-2.96,6.33-6.63,6.33
			c-3.66,0-6.63-2.84-6.63-6.33c0-0.97-0.25-0.88,0.15-1.7l-0.33-0.53c2.14-1.33,4.64-2.13,7.09-2.19c2.13-0.05,4.14,0.39,5.99,1.18
			L321.95,160.09z M320.01,163c0-1.97-1.8-3.57-4.03-3.57c-2.24,0-4.04,1.6-4.04,3.57c0,1.96,1.8,3.54,4.04,3.54
			C318.21,166.54,320.01,164.96,320.01,163z"/>
		<path style="fill:#FFFFFF;" d="M266.12,162.38l-0.33,0.53c0.41,0.82,0.15,0.73,0.15,1.7c0,3.49-2.97,6.33-6.63,6.33
			s-6.63-2.84-6.63-6.33c0-1.32-0.13-1.65,0.58-2.67l-0.23-0.57c1.85-0.8,3.86-1.24,5.99-1.19
			C261.47,160.24,263.98,161.04,266.12,162.38z M263.28,164.85c0-1.96-1.8-3.55-4.03-3.55c-2.24,0-4.04,1.59-4.04,3.55
			s1.8,3.55,4.04,3.55C261.48,168.4,263.28,166.81,263.28,164.85z"/>
		<path style="fill:#797878;" d="M360.87,252.21l20.24,48.91l-38.08-13.3l11.98,27.55l-37.13,50.76l9.84-120.71
			c2.78-2.54,5.25-5.57,7.68-8.65c3.54,1.98,13.5,7.58,25.77,14.93L360.87,252.21z"/>
		<path style="fill:#231F20;" d="M315.98,159.43c2.23,0,4.03,1.6,4.03,3.57c0,1.96-1.8,3.54-4.03,3.54c-2.24,0-4.04-1.58-4.04-3.54
			C311.94,161.03,313.74,159.43,315.98,159.43z M317.42,163c0-0.88-0.64-1.58-1.44-1.58s-1.45,0.7-1.45,1.58
			c0,0.86,0.65,1.57,1.45,1.57S317.42,163.86,317.42,163z"/>
		<path style="fill:#231F20;" d="M315.98,161.42c0.8,0,1.44,0.7,1.44,1.58c0,0.86-0.64,1.57-1.44,1.57s-1.45-0.71-1.45-1.57
			C314.53,162.12,315.18,161.42,315.98,161.42z"/>
		<path style="fill:#231F20;" d="M259.25,161.3c2.23,0,4.03,1.59,4.03,3.55s-1.8,3.55-4.03,3.55c-2.24,0-4.04-1.59-4.04-3.55
			S257.01,161.3,259.25,161.3z M260.69,164.85c0-0.87-0.65-1.58-1.44-1.58c-0.81,0-1.46,0.71-1.46,1.58s0.65,1.58,1.46,1.58
			C260.04,166.43,260.69,165.72,260.69,164.85z"/>
		<path style="fill:#231F20;" d="M259.25,163.27c0.79,0,1.44,0.71,1.44,1.58s-0.65,1.58-1.44,1.58c-0.81,0-1.46-0.71-1.46-1.58
			S258.44,163.27,259.25,163.27z"/>
	</g>
	<g>
		<path style="fill:none;stroke:#231F20;stroke-width:14;" d="M94.3,561.46c0,0,0.63-2.16,1.72-5.94
			c5.56-19.239,23.15-80.529,31.07-112.51c13.73-55.48,59.12-147.03,59.12-147.03c11.57-11.56,32.01-23.55,49.57-32.66
			c6.82-3.53,13.2-6.63,18.45-9.1C262.51,250.33,268,248,268,248"/>
		<path style="fill:none;stroke:#231F20;stroke-width:14;" d="M198.44,620.17c0-9.08,0.05-18.54,0.13-28.2
			c0.72-81.7,4.13-177.5,4.13-177.5L133.22,566.56l-1.93,4.23c1.72,4.729,3.75,20.33,3.75,35.16c0,12.609-1.46,24.66-5.84,29.03
			c-5.02,0-1.54-9.99-8.39-11.381c-4.35,6.771-6.42,28.051-15.45,29.04c-8.15,0.971-16.81-8.51-18.68-15.17
			c-3.18-11.33-1.47-47.01,7.62-76.01"/>
		<path style="fill:none;stroke:#231F20;stroke-width:14;" d="M201.39,783.59c-0.09-1.33-0.17-3.22-0.25-5.59
			c-1.04-29.14-1.97-130.61-2.7-157.83"/>
		<path style="fill:none;stroke:#231F20;stroke-width:14;" d="M517.58,562.33c0,0-23.33-80.2-32.78-118.46
			c-13.729-55.49-59.14-147.03-59.14-147.03c-11.56-11.56-34.47-26.77-54.5-39.09c-3.44-2.12-6.79-4.15-9.99-6.05
			c-12.27-7.35-22.23-12.95-25.77-14.93c-0.91-0.5-1.4-0.77-1.4-0.77"/>
		<path style="fill:none;stroke:#231F20;stroke-width:14;" d="M414.24,782.94c0.05-0.73,0.09-1.69,0.14-2.851
			c0.97-23.62,2.05-131.89,2.05-131.89l-1.76-56.58l-5.48-176.3l71.43,156.331c-0.32,0.89-0.66,2.159-0.99,3.729
			c-1.439,6.83-2.79,19.41-2.79,31.48c0,12.58,1.47,24.6,5.84,28.96c5.051,0,1.551-9.95,8.38-11.38
			c4.36,6.779,6.431,28.06,15.471,29.04c8.16,0.96,16.81-8.48,18.67-15.171c3.18-11.31,1.46-47.01-7.62-75.979"/>
		<polyline style="fill:none;stroke:#231F20;stroke-width:14;" points="300.64,628.73 300.03,637.87 290.59,778.17 290.27,782.94 		
			"/>
		<polyline style="fill:none;stroke:#231F20;stroke-width:14;" points="324.65,782.94 315.25,638 314.65,628.82 		"/>
		<polyline style="fill:none;stroke:#231F20;stroke-width:14;" points="202,592 308.01,591.81 414.67,591.62 		"/>
		<line style="fill:none;stroke:#231F20;stroke-width:14;" x1="100" y1="556" x2="132" y2="566"/>
		<line style="fill:none;stroke:#231F20;stroke-width:14;" x1="517.58" y1="562.33" x2="482" y2="576"/>
		<polyline style="fill:none;stroke:#231F20;stroke-width:14;" points="282,256 304.17,375.96 304.67,378.67 260.61,316.09 
			272.6,288.54 234.53,301.84 254.23,254.22 254.76,252.93 		"/>
		<polyline style="fill:none;stroke:#231F20;stroke-width:14;" points="328,242 327.72,245.42 317.88,366.13 355.01,315.37 
			343.03,287.82 381.11,301.12 360.87,252.21 		"/>
		<polyline style="fill:none;stroke:#231F20;stroke-width:14;" points="296.96,365.96 304.17,375.96 307.71,380.87 307.72,380.86 
			317.88,366.13 		"/>
		<rect x="305.04" y="369.89" style="fill:none;stroke:#231F20;stroke-width:9.3417;" width="4.6" height="4.08"/>
		<polyline style="fill:none;stroke:#231F20;stroke-width:14;" points="307.71,374.64 307.72,380.86 308,588 		"/>
		<path style="fill:none;stroke:#231F20;stroke-width:14;" d="M561.38,236.56c0,21.63-17.53,39.16-39.16,39.16
			c-21.62,0-39.149-17.53-39.149-39.16S500.6,197.4,522.22,197.4C543.85,197.4,561.38,214.93,561.38,236.56z"/>
		<path style="fill:none;stroke:#231F20;stroke-width:14;" d="M470.46,195.94c12.04-15.33,30.75-25.17,51.76-25.17
			c36.34,0,65.8,29.45,65.8,65.79c0,5.69-0.72,11.21-2.079,16.47c-7.311,28.37-33.07,49.33-63.721,49.33
			c-36.34,0-65.79-29.46-65.79-65.8C456.43,221.23,461.67,207.12,470.46,195.94z"/>
		<path style="fill:none;stroke:#231F20;stroke-width:14;" d="M513.99,154.04l3.24-55.22c0,0-1.801-9.75,18.77-9.75s72.9,0,72.9,0
			s12,2.18,12.27,8.67c0.021,0.5,0.05,1.23,0.1,2.16c0.471,9.62,2.171,40.98,3.65,68.01c1.28,23.38,2.39,43.51,2.39,43.51
			l2.41,18.67l0.63,4.92l2.11,16.36l0.99,7.69h-27.07c0,0-0.34-2.3-0.93-6.03c-0.7-4.47-1.771-10.99-3.05-18.02
			c-1.48-8.09-3.23-16.85-5.04-23.95c-4.7-18.4-16.25-42.23-32.851-50.17c-0.729-0.35-1.52-0.67-2.359-0.98
			c-8.971-3.22-24.131-4.01-37.341-3.98c-3.81,0.01-7.47,0.09-10.75,0.2c-8.71,0.29-14.88,0.8-14.88,0.8s-19.37,12.27-39.149,28.69
			c-6.681,5.54,8.479,8.48,8.479,8.48"/>
		<polyline style="fill:none;stroke:#231F20;stroke-width:6.2278;" points="524.81,155.93 527.7,99.9 559.82,99.9 621.27,99.9 
			621.28,99.9 		"/>
		<line style="fill:none;stroke:#231F20;stroke-width:14;" x1="559.82" y1="99.9" x2="562.53" y2="158.91"/>
		<polyline style="fill:none;stroke:#231F20;stroke-width:14;" points="602.4,235.01 630.35,235.01 630.56,235.01 		"/>
		<path style="fill:none;stroke:#231F20;stroke-width:14;" d="M624.92,167.91l9.61,0.2l68.33,1.45c0,0,22.14-1.69,22.14,16.84v4.81
			v13.24"/>
		<polyline style="fill:none;stroke:#231F20;stroke-width:6.2278;stroke-linecap:round;stroke-linejoin:round;" points="
			634.53,99.9 634.53,168.11 634.53,229.47 		"/>
		<line style="fill:none;stroke:#231F20;stroke-width:14;" x1="585.94" y1="253.03" x2="605.45" y2="253.03"/>
		<path style="fill:none;stroke:#231F20;stroke-width:6.2278;" d="M748.39,249.74c0,14.4-11.67,26.08-26.069,26.08
			c-14.4,0-26.07-11.68-26.07-26.08c0-14.4,11.67-26.07,26.07-26.07C736.72,223.67,748.39,235.34,748.39,249.74z"/>
		<path style="fill:none;stroke:#231F20;stroke-width:14;" d="M724.9,206c22.989,1.33,41.229,20.41,41.229,43.74
			c0,24.2-19.62,43.82-43.81,43.82c-23.681,0-42.96-18.78-43.78-42.26c-0.021-0.52-0.03-1.04-0.03-1.56
			c0-24.2,19.61-43.82,43.811-43.82C723.19,205.92,724.05,205.95,724.9,206z"/>
		<path style="fill:none;stroke:#231F20;stroke-width:14;stroke-linecap:round;stroke-linejoin:round;" d="M725,191.21
			c0,0-19.67-3.79-38.5,9.38c-15.02,10.51-23.14,22.5-24.06,43.08c-0.131,2.82-0.15,5.35-0.08,7.63
			c0.33,13.02,3.21,17.63,3.21,17.63"/>
		<polyline style="fill:none;stroke:#231F20;stroke-width:14;" points="633.03,251.3 662.36,251.3 678.54,251.3 		"/>
		<path style="fill:none;stroke:#231F20;stroke-width:6.9254;" d="M298.75,154.59c5.6-9.34,19.23-10.83,27.02-7.78
			c4.19,1.62,6.75,3.56,7.84,4.66"/>
		<path style="fill:none;stroke:#231F20;stroke-width:6.9254;" d="M269.33,151.14c-7.43-6.62-21.89-5.61-28.31,1.32
			c-0.35,0.35-0.66,0.73-0.95,1.12"/>
		<path style="fill:none;stroke:#231F20;stroke-width:3.4627;" d="M278.58,156.6c8.15,6.1,3.84,26.71,1.79,32.85
			c-0.65,1.96-3.46,5.44-1.49,7.48c0.96,0.98,2.18,0.45,3.38,0.63c1.24,0.2,1.98,0.32,3.41,0.85c2.75,1.02,4.76,1.65,7.24-0.16
			c2.69-1.94,2.49-3.32,6.45-3.13c3.34,0.15,7.02,1.09,6.86-4.04c-0.11-3.54-2.77-3.5-4.67-5.99"/>
		<path style="fill:none;stroke:#231F20;stroke-width:3.4627;" d="M275.83,218.41c-1.34-1.76-1.13-3.43,3.11-4.66
			c2.64-0.77,5.79-1.36,8.51-0.73c1.43,0.33,3.55,1.71,4.85,1.16c0.21-0.08,0.41-0.22,0.57-0.43"/>
		<path style="fill:none;stroke:#231F20;stroke-width:3.4627;" d="M292.07,215.1c0.04-0.33,0.12-0.64,0.23-0.92
			c2.11-5.23,16.6-1.9,20.45-2.28c-0.63,0.95-1.24,1.94-1.85,2.95c-2.66,4.33-5.45,8.91-10.17,10.99
			c-6.4,2.83-13.26,2.27-18.52-2.08c-1.96-1.61-5-3.53-6.37-5.35"/>
		<path style="fill:none;stroke:#231F20;stroke-width:3.4627;" d="M275.83,218.41h0.01c5.2,1.52,12.9,0.65,18.12,0.24
			c5.24-0.42,9.53-0.46,16.94-3.8"/>
		<path style="fill:none;stroke:#231F20;stroke-width:14;" d="M308.1,108.9c5.39,5.72,32.4,34.35,47,48.96
			c13.61,13.61,4.35,47.03,4.06,49.09c-0.42,3.05-1.71,5.73-3.48,8.18c-2.65,3.68-6.4,6.83-9.94,9.9
			c-3.84,3.32-7.06,7.59-10.34,11.74c-2.43,3.08-4.9,6.11-7.68,8.65c-3.68,3.37-7.92,5.88-13.36,6.54
			c-9.67,1.18-21.48,4.37-30.78,0.13c-1.59-0.72-3.1-1.65-4.51-2.85c-2.27-1.92-4.75-3.78-7.24-5.7
			c-4.14-3.19-8.27-6.51-11.38-10.43c-1.7-2.14-7.13-8.53-11.74-16.5c-3.9-6.72-7.21-14.56-7.21-21.9c0-14.6-3.22-18.08-3.46-27.78
			c-0.12-4.89,0.95-9.91,2.98-14.47c2.26-5.1,5.73-9.65,10.09-12.85c6.38-4.69,41.07-21.23,55.91-31.63
			c0.05-0.03,0.09-0.06,0.13-0.09C307.15,107.89,307.48,108.25,308.1,108.9z"/>
		<path style="fill:none;stroke:#231F20;stroke-width:14;" d="M248.73,216.6l-0.02,0.01l-27.67,14.55
			c5.06-10.11,3.3-22.61,3.3-22.61c-0.2-19.22-2.55-40.2-2.88-44.74c-1.35-18.85,5.65-47.47,15.81-64.02
			c17.11-27.86,44.98-39.87,87.91-34.86c31.9,3.72,61.04,38.6,61.04,82.81c0,15.49-6.87,32.61,0.86,48.06l-31.4,19.33l-0.06,0.04"/>
		<path style="fill:none;stroke:#231F20;stroke-width:3.4627;stroke-linecap:square;stroke-miterlimit:10;" d="M245.27,167.46
			c0.38-0.47,0.78-0.92,1.2-1.36c1.89-2,4.09-3.68,6.56-4.73c1.85-0.8,3.86-1.24,5.99-1.19c2.45,0.06,4.96,0.86,7.1,2.2
			c1.89,1.16,3.49,2.75,4.54,4.6c0.64,1.12,1.48,1.91,0.37,2.59c-0.95,0.58-2.09,0.16-3.1,0.64c-0.68,0.31-1.29,1.1-2.03,1.43
			c-0.87,0.41-2.02,0.64-2.95,0.83c-2.2,0.46-5.1,0.32-7.22-0.43c-3.47-1.25-6.5-3.4-9.11-5.81"/>
		<path style="fill:none;stroke:#231F20;stroke-width:3.4627;stroke-linecap:square;stroke-miterlimit:10;" d="M265.79,162.91
			c0.41,0.82,0.15,0.73,0.15,1.7c0,3.49-2.97,6.33-6.63,6.33s-6.63-2.84-6.63-6.33c0-1.32-0.13-1.65,0.58-2.67"/>
		<path style="fill:none;stroke:#231F20;stroke-width:3.4627;stroke-linecap:square;stroke-miterlimit:10;" d="M329.95,165.6
			c-0.38-0.47-0.78-0.92-1.2-1.36c-1.89-2-4.1-3.68-6.57-4.73c-1.85-0.79-3.86-1.23-5.99-1.18c-2.45,0.06-4.95,0.86-7.09,2.19
			c-1.89,1.16-3.49,2.75-4.54,4.6c-0.64,1.12-1.48,1.91-0.37,2.59c0.95,0.6,2.08,0.17,3.1,0.64c0.68,0.32,1.3,1.1,2.02,1.44
			c0.87,0.39,2.03,0.63,2.96,0.82c2.21,0.45,5.11,0.32,7.22-0.43c3.48-1.24,6.5-3.4,9.11-5.81"/>
		<path style="fill:none;stroke:#231F20;stroke-width:3.4627;stroke-linecap:square;stroke-miterlimit:10;" d="M309.43,161.05
			c-0.4,0.82-0.15,0.73-0.15,1.7c0,3.49,2.97,6.33,6.63,6.33c3.67,0,6.63-2.84,6.63-6.33c0-1.31,0.13-1.65-0.59-2.66"/>
		<path style="fill:none;stroke:#231F20;stroke-width:6.9254;" d="M308.89,109c-0.29,0-0.56-0.03-0.79-0.1
			c-0.5-0.14-0.86-0.45-1.08-0.92c-0.03-0.06-0.06-0.12-0.08-0.18c4.56-4.45,6.8-11.49,8.17-17.48"/>
		<polyline style="fill:none;stroke:#231F20;stroke-width:14;stroke-linecap:square;stroke-miterlimit:10;" points="302,638 
			315.25,638 316,638 		"/>
	</g>
</g>
<rect style="fill:none;" width="850.394" height="850.394"/>
</svg>
