<svg xmlns="http://www.w3.org/2000/svg" width="850.394" height="850.394" viewBox="0 0 850.394 850.394" overflow="visible"><path fill="none" stroke="#231f20" stroke-width="21" d="M484.553 576.083h207.794v207.779H484.553z"/><path fill="none" d="M151.5 576.083h207.787v207.779H151.5z"/><circle cx="151.5" cy="757.89" r="12.977" fill="#5668af"/><circle cx="151.5" cy="731.917" r="12.977" fill="#5668af"/><circle cx="151.5" cy="705.944" r="12.977" fill="#5668af"/><circle cx="151.5" cy="679.973" r="12.977" fill="#5668af"/><circle cx="151.5" cy="654" r="12.977" fill="#5668af"/><circle cx="151.5" cy="628.027" r="12.977" fill="#5668af"/><circle cx="151.5" cy="602.055" r="12.977" fill="#5668af"/><circle cx="177.474" cy="576.083" r="12.977" fill="#5668af"/><circle cx="203.447" cy="576.083" r="12.977" fill="#5668af"/><circle cx="229.421" cy="576.083" r="12.977" fill="#5668af"/><circle cx="255.394" cy="576.083" r="12.977" fill="#5668af"/><circle cx="281.368" cy="576.083" r="12.977" fill="#5668af"/><circle cx="307.341" cy="576.083" r="12.977" fill="#5668af"/><circle cx="333.314" cy="576.083" r="12.977" fill="#5668af"/><circle cx="359.287" cy="602.056" r="12.977" fill="#5668af"/><circle cx="359.287" cy="628.028" r="12.977" fill="#5668af"/><circle cx="359.287" cy="654.001" r="12.977" fill="#5668af"/><circle cx="359.287" cy="679.973" r="12.977" fill="#5668af"/><circle cx="359.287" cy="705.945" r="12.977" fill="#5668af"/><circle cx="359.287" cy="731.918" r="12.977" fill="#5668af"/><circle cx="359.287" cy="757.891" r="12.977" fill="#5668af"/><circle cx="333.313" cy="783.862" r="12.977" fill="#5668af"/><circle cx="307.34" cy="783.862" r="12.977" fill="#5668af"/><circle cx="281.367" cy="783.862" r="12.977" fill="#5668af"/><circle cx="255.394" cy="783.862" r="12.977" fill="#5668af"/><circle cx="229.42" cy="783.862" r="12.977" fill="#5668af"/><circle cx="203.446" cy="783.862" r="12.977" fill="#5668af"/><circle cx="177.473" cy="783.862" r="12.977" fill="#5668af"/><circle cx="151.501" cy="576.083" r="12.977" fill="#5668af"/><circle cx="359.287" cy="576.083" r="12.977" fill="#5668af"/><circle cx="359.287" cy="783.862" r="12.977" fill="#5668af"/><circle cx="151.5" cy="783.862" r="12.977" fill="#5668af"/><g stroke="#231f20" stroke-width="21"><path fill="#fff" d="M255.922 301.047v228.872"/><path fill="none" d="M337.375 438.861l-81.754 92.825-81.727-92.974"/></g><g><path d="M354.79 113.88c0 13.93-5.73 26.74-14.97 41.16l-83.58 108.23-85.26-108.86C161.72 140 156 127.19 156 113.26c0-27.87 22.88-50.45 51.12-50.45 31.85 0 49.12 34.44 49.12 34.44 6.32-20.77 24.34-33.82 47.43-33.82 28.23 0 51.12 22.59 51.12 50.45z" fill="#ef947d"/><path d="M256.24 97.25c6.32-20.77 24.34-33.82 47.43-33.82 28.23 0 51.12 22.59 51.12 50.45 0 13.93-5.73 26.74-14.97 41.16l-83.58 108.23-85.26-108.86C161.72 140 156 127.19 156 113.26c0-27.87 22.88-50.45 51.12-50.45 31.85 0 49.12 34.44 49.12 34.44z" fill="none" stroke="#231f20" stroke-width="21"/></g><path fill="none" d="M0 0h850.394v850.394H0z"/></svg>