<?xml version="1.0" encoding="iso-8859-1"?>
<!-- Generator: Adobe Illustrator 12.0.1, SVG Export Plug-In . SVG Version: 6.00 Build 51448)  -->
<!DOCTYPE svg PUBLIC "-//W3C//DTD SVG 1.1//EN" "http://www.w3.org/Graphics/SVG/1.1/DTD/svg11.dtd" [
	<!ENTITY ns_svg "http://www.w3.org/2000/svg">
	<!ENTITY ns_xlink "http://www.w3.org/1999/xlink">
]>
<svg  version="1.1" id="Layer_1" xmlns="&ns_svg;" xmlns:xlink="&ns_xlink;" width="850.394" height="850.394"
	 viewBox="0 0 850.394 850.394" style="overflow:visible;enable-background:new 0 0 850.394 850.394;" xml:space="preserve">
<g id="XMLID_5_">
	<g>
		<path style="fill:#FFF400;" d="M679.17,502.23c3.72,5.819-9.8,8.109-13.11,8.109c-1.079-3.609,1.33-7.49,4.671-8.79
			C672.6,500.81,677.8,500.1,679.17,502.23z"/>
		<path style="fill:#FFF400;" d="M643.54,497.62c3.33,1.3,5.74,5.17,4.67,8.78c-3.31,0-16.83-2.29-13.11-8.11
			C636.46,496.16,641.66,496.87,643.54,497.62z"/>
		<path d="M661.39,521.61l0.67,1.01c-0.09,3.59-3.689,9.74-8.14,6.45c-1.28-0.95-1.96-4.601-1.66-6.11
			C653.11,518.72,657.96,520.44,661.39,521.61z"/>
		<path style="fill:#F6CC4B;" d="M622.37,703.57c-13.16,0-14.101-0.431-17.14-6c-3.03-5.58,1.069-13.271,6.149-13.271
			c5.061,0,3.04-14.689,3.04-14.689s0-51.2,0-68.431c0-17.229-3.04-20.779-8.62-37.5c-5.569-16.729,5.58-32.949,5.58-39.54
			c0-5.13-1.86-8.42-2.68-14.439c3.03,8.359,14.97,11.46,19.99,13.6c6.909,2.95,11.42,9.021,18.069,12.17
			c15.141,7.17,36.09-9.87,42.73-16.5c-2.54,5.601-1.45,14.42,2.97,18.86c5.33,5.32,33.59,9.5,49.18,46.37
			c0,0,8.11,19.01,8.11,56.01c0,0-0.52,21.8,7.59,21.8c8.12,0,24.49,15.98,17.24,28.891c-9.12,16.21-41.82,19.68-72.23,20.01
			c-12.699,0.14-58.54,3.09-75.26-4.51C625.18,705.53,623.62,704.58,622.37,703.57z"/>
		<path style="fill:#F6CC4B;" d="M699.56,457.75c0,0,2.03,8.11-3.029,19.76c-5.07,11.66-5.07,16.221-5.07,16.221
			s4.81,17.489,0,22.31c-0.81,0.81-1.46,1.8-1.97,2.93c-6.641,6.63-27.59,23.67-42.73,16.5c-6.649-3.149-11.16-9.22-18.069-12.17
			c-5.021-2.14-16.96-5.24-19.99-13.6c0-0.01,0-0.01,0-0.021c-0.22-1.689-0.37-3.59-0.37-5.81c0-10.14,7.61-19.771,7.61-30.92
			c0-11.15,4.55-24.83,6.34-26.601c1.77-1.779,22.55,22.551,22.55,22.551s20.01-2.28,25.34,3.04
			C675.49,477.26,699.56,457.75,699.56,457.75z M666.06,510.34c3.311,0,16.83-2.29,13.11-8.109c-1.37-2.131-6.57-1.421-8.439-0.681
			C667.39,502.85,664.98,506.73,666.06,510.34z M662.06,522.62l-0.67-1.01c-3.43-1.17-8.279-2.891-9.13,1.35
			c-0.3,1.51,0.38,5.16,1.66,6.11C658.37,532.36,661.97,526.21,662.06,522.62z M648.21,506.4c1.07-3.61-1.34-7.48-4.67-8.78
			c-1.88-0.75-7.08-1.46-8.44,0.67C631.38,504.11,644.9,506.4,648.21,506.4z"/>
		<polygon style="fill:#787878;" points="218.05,495.1 175.11,638.9 46,546 73.67,448.97 		"/>
		<path style="fill:#A3D9FF;" d="M342.33,361.78l30.1,49.86l-1.5,0.91c-16.78-8.58-33.17-18.31-39.67-26.32
			c-15.4-18.97-20.85-52.65-20.85-52.65s15.55-36.52,13.4-53.75c9.17,1.72,18.37-0.07,26.78-4.61l2.2,0.47L342.33,361.78z"/>
		<path style="fill:#A3D9FF;" d="M370.93,412.55c23.01,11.74,46.74,21.32,46.74,21.32c-0.87,0.75-1.64,1.56-2.32,2.439
			c-10.84,13.841-0.88,42.851-12.25,45.7c-0.9,0.23-1.94,0.3-3.14,0.17c-7.69-0.779-104.15-43.6-112.45-47.35
			c-2.86-1.29-9.39-11.06-16.9-23.81l-52.56,84.08L73.67,448.97c0,0,19.04-96.94,55.39-143.72s101.04-72.5,117.31-74.54
			c16.27-2.05,39.76-5,39.76-5c1.14,27.46,15.93,50.05,37.68,54.12c2.15,17.23-13.4,53.75-13.4,53.75s5.45,33.68,20.85,52.65
			C337.76,394.24,354.15,403.97,370.93,412.55z"/>
		<path style="fill:#F6CC4B;" d="M462.94,484.09l-0.011-0.02c8.88-6.04,11-14.67,9.38-22.011L474,462
			c8.53-1.25,9.67-2.33,20.18-2.33c32.311,0,58.511,6.76,58.511,15.12c0,1.31-0.65,2.58-1.86,3.8
			c-6.521,6.51-29.42,11.32-56.65,11.32c-12.37,0-23.85-1-33.31-2.69l0.36-2.109C461.79,484.78,462.36,484.44,462.94,484.09z"/>
		<path style="fill:#FF001C;" d="M494.36,541.55l-0.091,0.101c-38.92,0-70.479-10.87-70.479-24.271L430,496l0.27-2.21
			c7.641,0.93,17.57-0.87,30.961-8.68l-0.36,2.109c9.46,1.69,20.939,2.69,33.31,2.69c27.23,0,50.13-4.811,56.65-11.32l0.06,0.061
			l13.96,38.63C564.85,530.68,533.28,541.55,494.36,541.55z"/>
		<path style="fill:#FFEEC8;" d="M461.23,485.11c-13.391,7.81-23.32,9.609-30.961,8.68c-10.359-1.24-16.529-7.51-21.49-10.62
			l-5.68-1.16c11.37-2.85,1.41-31.859,12.25-45.7l0.01,0.011c21.82,3.729,35.47,11.399,42.47,11.399c6.64,0,12.74,6.41,14.479,14.34
			c1.62,7.341-0.5,15.971-9.38,22.011l0.011,0.02C462.36,484.44,461.79,484.78,461.23,485.11z"/>
		<path style="fill:#FFEEC8;" d="M347.99,150.94c26.71,5.01,42.92,37.93,36.25,73.52c-4.4,23.37-17.57,42.08-33.65,50.76
			c-8.41,4.54-17.61,6.33-26.78,4.61c-21.75-4.07-36.54-26.66-37.68-54.12c-0.26-6.27,0.2-12.79,1.44-19.4
			C294.25,170.71,321.31,145.93,347.99,150.94z"/>
	</g>
	<g>
		<path style="fill:none;stroke:#231F20;stroke-width:21;" d="M474,462c8.53-1.25,9.67-2.33,20.18-2.33
			c32.311,0,58.511,6.76,58.511,15.12c0,1.31-0.65,2.58-1.86,3.8c-6.521,6.51-29.42,11.32-56.65,11.32c-12.37,0-23.85-1-33.31-2.69
			c-0.05-0.01-0.11-0.02-0.16-0.029"/>
		<path style="fill:none;stroke:#231F20;stroke-width:21;" d="M550.89,478.65l13.96,38.63c0,13.399-31.569,24.27-70.489,24.27
			l-0.091,0.101c-38.92,0-70.479-10.87-70.479-24.271L430,496"/>
		<path style="fill:none;stroke:#231F20;stroke-width:21;" d="M286.13,225.71c-0.26-6.27,0.2-12.79,1.44-19.4
			c6.68-35.6,33.74-60.38,60.42-55.37c26.71,5.01,42.92,37.93,36.25,73.52c-4.4,23.37-17.57,42.08-33.65,50.76
			c-8.41,4.54-17.61,6.33-26.78,4.61C302.06,275.76,287.27,253.17,286.13,225.71z"/>
		<path style="fill:none;stroke:#231F20;stroke-width:21;" d="M235.47,343.86c2.98,7.9,20.85,42.92,35.14,67.16
			c7.51,12.75,14.04,22.52,16.9,23.81c8.3,3.75,104.76,46.57,112.45,47.35c1.2,0.13,2.24,0.061,3.14-0.17
			c11.37-2.85,1.41-31.859,12.25-45.7c0.68-0.88,1.45-1.689,2.32-2.439c0,0-23.73-9.58-46.74-21.32
			c-16.78-8.58-33.17-18.31-39.67-26.32c-15.4-18.97-20.85-52.65-20.85-52.65s15.55-36.52,13.4-53.75"/>
		<path style="fill:none;stroke:#231F20;stroke-width:21;" d="M286.13,225.71c0,0-23.49,2.95-39.76,5
			c-16.27,2.04-80.96,27.76-117.31,74.54S73.67,448.97,73.67,448.97l144.38,46.13l52.56-84.08v-0.01"/>
		<path style="fill:none;stroke:#231F20;stroke-width:14;" d="M415.36,436.32c21.82,3.729,35.47,11.399,42.47,11.399
			c6.64,0,12.74,6.41,14.479,14.34c1.62,7.341-0.5,15.971-9.38,22.011"/>
		<polyline style="fill:none;stroke:#231F20;stroke-width:21;" points="372.44,411.65 372.43,411.64 342.33,361.78 352.79,275.69 		
			"/>
		<line style="fill:none;stroke:#231F20;stroke-width:21;" x1="218.05" y1="495.1" x2="175.11" y2="638.9"/>
		<path style="fill:none;stroke:#231F20;stroke-width:14;" d="M408.78,483.17c4.96,3.11,11.13,9.38,21.49,10.62
			c7.641,0.93,17.57-0.87,30.961-8.68c0.56-0.33,1.13-0.67,1.71-1.021c1.569-0.95,3.18-1.979,4.84-3.1"/>
		<path style="fill:none;stroke:#231F20;stroke-width:14;" d="M608.7,509.7c0.819,6.02,2.68,9.31,2.68,14.439
			c0,6.591-11.149,22.811-5.58,39.54c5.58,16.721,8.62,20.271,8.62,37.5c0,17.23,0,68.431,0,68.431s2.021,14.689-3.04,14.689
			c-5.08,0-9.18,7.69-6.149,13.271c3.039,5.569,3.979,6,17.14,6c0.01,0,0.01,0,0.02,0"/>
		<path style="fill:none;stroke:#231F20;stroke-width:14;" d="M752.03,676.45c-3.811,3.8-55,8.359-66.15,8.359
			c-1.34,0-3.06,0-5.06,0c-5.48,0-13.061,0-20.79,0c-8.2,0-16.57,0-22.8,0c-3.551,0-6.4,0-8.12,0c-7.641,0-16.45,10.971-6.74,18.761
			c1.25,1.01,2.81,1.96,4.72,2.83c16.72,7.6,62.561,4.649,75.26,4.51c30.41-0.33,63.11-3.8,72.23-20.01
			c7.25-12.91-9.12-28.891-17.24-28.891c-8.109,0-7.59-21.8-7.59-21.8c0-37-8.11-56.01-8.11-56.01
			c-15.59-36.87-43.85-41.05-49.18-46.37c-4.42-4.44-5.51-13.26-2.97-18.86c0.51-1.13,1.16-2.12,1.97-2.93
			c4.81-4.82,0-22.31,0-22.31s0-4.561,5.07-16.221c5.06-11.649,3.029-19.76,3.029-19.76s-24.069,19.51-29.39,14.19
			c-5.33-5.32-25.34-3.04-25.34-3.04s-20.78-24.33-22.55-22.551c-1.79,1.771-6.34,15.45-6.34,26.601c0,11.149-7.61,20.78-7.61,30.92
			c0,2.22,0.15,4.12,0.37,5.81"/>
		<path style="fill:none;stroke:#231F20;stroke-width:14;" d="M697.54,604.23c0,0-12.67,23.819-19.771,39.529
			c-7.09,15.71-17.739,41.05-17.739,41.05"/>
		<line style="fill:none;stroke:#231F20;stroke-width:14;" x1="646.86" y1="643.25" x2="637.23" y2="684.81"/>
		<path style="fill:none;stroke:#231F20;stroke-width:14;" d="M730.99,629.06c-32.851-2.779-49.811,28.19-50.17,55.75"/>
		<path style="fill:none;stroke:#231F20;stroke-width:7;" d="M648.21,506.4c1.07-3.61-1.34-7.48-4.67-8.78
			c-1.88-0.75-7.08-1.46-8.44,0.67C631.38,504.11,644.9,506.4,648.21,506.4z"/>
		<path style="fill:none;stroke:#231F20;stroke-width:7;" d="M666.06,510.34c-1.079-3.609,1.33-7.49,4.671-8.79
			c1.869-0.74,7.069-1.45,8.439,0.681C682.89,508.05,669.37,510.34,666.06,510.34z"/>
		<path style="fill:none;stroke:#231F20;stroke-width:7;" d="M661.39,521.61c-3.43-1.17-8.279-2.891-9.13,1.35
			c-0.3,1.51,0.38,5.16,1.66,6.11c4.45,3.29,8.05-2.86,8.14-6.45L661.39,521.61z"/>
		<path style="fill:none;stroke:#231F20;stroke-width:14;" d="M689.51,518.95c-0.01,0.01-0.01,0.01-0.02,0.02
			c-6.641,6.63-27.59,23.67-42.73,16.5c-6.649-3.149-11.16-9.22-18.069-12.17c-5.021-2.14-16.96-5.24-19.99-13.6
			c0-0.01,0-0.01,0-0.021c-0.4-1.109-0.65-2.31-0.7-3.609"/>
		<line style="fill:none;stroke:#231F20;stroke-width:21;" x1="73.67" y1="448.97" x2="46" y2="546"/>
	</g>
</g>
<rect style="fill:none;" width="850.394" height="850.394"/>
</svg>
