<?xml version="1.0" encoding="iso-8859-1"?>
<!-- Generator: Adobe Illustrator 12.0.1, SVG Export Plug-In . SVG Version: 6.00 Build 51448)  -->
<!DOCTYPE svg PUBLIC "-//W3C//DTD SVG 1.1//EN" "http://www.w3.org/Graphics/SVG/1.1/DTD/svg11.dtd" [
	<!ENTITY ns_svg "http://www.w3.org/2000/svg">
	<!ENTITY ns_xlink "http://www.w3.org/1999/xlink">
]>
<svg  version="1.1" id="Layer_1" xmlns="&ns_svg;" xmlns:xlink="&ns_xlink;" width="850.394" height="850.394"
	 viewBox="0 0 850.394 850.394" style="overflow:visible;enable-background:new 0 0 850.394 850.394;" xml:space="preserve">
<g id="XMLID_10_">
	<g>
		<path style="fill:#9C5C25;" d="M318.966,652.828c-58.437,27.724-112.688,40.838-128.214,94.353
			c-53.295-17.719-53.295-81.836-32.447-119.864c21.725-39.702,75.597-106.809,80.321-145.554
			c4.724-38.746-28.302-135.789-28.302-135.789c-0.179-1.196-0.378-2.352-0.538-3.468c-5.162-31.431-5.859-108.483,15.387-141.289
			c21.266-32.826,41.954-55.428,41.954-55.428s71.571-65.453,122.435-67.107c50.824-1.654,107.068-8.989,139.854,5.82
			c32.786,14.789,76.873,37.809,108.384,88.214c10.882,17.399,6.218,30.534-5.66,42.931c-5.401,5.621-12.277,11.082-19.852,16.722
			c-24.335,18.057-40.16,13.712-89.668,24.056c-49.488,10.304-75.299-0.997-80.222,26.608c-4.923,27.564-8.112,61.307-20.389,82.972
			c-2.591,4.564-4.624,8.251-6.199,11.261c-3.049,2.73-8.69,13.134-13.513,23.06c-2.451,5.022-4.704,9.945-6.298,13.672
			c-11.142,25.99-16.004,28.002-16.343,48.691l4.206,59.095v5.66c0.877,26.488,5.042,59.234-16.702,89.47
			C353.845,635.469,335.788,644.855,318.966,652.828z"/>
		<path style="fill:#FFEEC8;" d="M592.596,339.497c-6.259,4.584-14.889,9.885-25.073,13.553
			c-21.604,7.793-15.167,12.257-15.167,12.257s29.198,0.418,39.683-0.1c6.537-0.339,10.423-1.654,12.437-2.591
			c1.195-0.578,1.714-0.997,1.714-0.997s0.957-0.04,3.468-6.876c4.744-12.816-6.019-24.555-6.019-24.555
			S599.592,334.394,592.596,339.497z M497.287,560.509c0,0,63.618,25.531,140.811,14.809L497.287,560.509z M191.07,761.63
			l-1.076-11.64c0.239-0.956,0.498-1.893,0.757-2.81c15.526-53.515,69.777-66.629,128.214-94.353
			c16.822-7.973,34.879-17.359,48.193-35.915c21.745-30.235,17.579-62.981,16.702-89.47v-5.66l-4.206-59.095
			c0.339-20.688,5.202-22.701,16.343-48.691c1.594-3.727,3.847-8.65,6.298-13.672c1.754,0.737,6.258-13.174,7.713-10.344
			c0-0.179,0.179-2.113,5.8-12.716c1.575-3.009,3.607-6.697,6.199-11.261c12.277-21.665,15.466-55.408,20.389-82.972
			c4.923-27.604,30.733-16.304,80.222-26.608c49.508-10.344,65.333-5.999,89.668-24.056c7.574-5.641,14.45-11.102,19.852-16.722
			c8.63,6.816,14.171,13.732,20.01,38.845c4.685,20.21,4.545,37.829,3.289,56.842c-1.216,17.54-1.036,17.798,14.769,35.956
			c23.04,26.428,26.967,32.467,38.785,42.173c11.799,9.667,3.647,31.79-4.404,34.64c-12.397,4.385-5.621,2.212-23.319,5.66
			c-7.314,1.415-14.569,27.923-11.181,39.244c2.352,7.872,6.616,14.648,2.989,15.605c-6.597,1.714-11.839,3.567-17.978,4.883
			l10.942,3.429c-2.412,7.354-8.85,23.917-1.196,41.516c3.488,8.032,4.245,29.637-14.43,37.649
			c-15.228,6.537-43.39,5.222-54.65,14.489c-17.061,14.012-4.385,34.819,3.647,50.505l71.313,80.321L191.07,761.63z"/>
		<path style="fill:#FFEEC8;" d="M410.01,389.981c-1.455-2.83-5.959,11.082-7.713,10.344c4.823-9.926,10.464-20.33,13.513-23.06
			C410.189,387.868,410.01,389.802,410.01,389.981z"/>
		<path style="fill:#FFFFFF;" d="M497.287,560.509l140.811,14.809C560.905,586.04,497.287,560.509,497.287,560.509z"/>
		<path style="fill:#231F20;" d="M610.234,346.751c0.22,4.206-2.451,7.773-5.999,7.953c-3.508,0.179-6.518-3.109-6.736-7.314
			c-0.199-4.206,2.451-7.773,5.959-7.953C607.006,339.257,610.016,342.546,610.234,346.751z"/>
		<path style="fill:#231F20;" d="M603.638,330.189c0,0,10.763,11.739,6.019,24.555c-2.511,6.836-3.468,6.876-3.468,6.876
			s-0.519,0.418-1.714,0.997l-0.199-0.897c-6.717-0.618-10.284-4.764-12.815-7.972c-2.552-3.229,0.717-12.995,1.136-14.25
			C599.592,334.394,603.638,330.189,603.638,330.189z M604.235,354.704c3.548-0.179,6.219-3.747,5.999-7.953
			c-0.219-4.205-3.229-7.494-6.776-7.314c-3.508,0.18-6.158,3.747-5.959,7.953C597.718,351.594,600.728,354.883,604.235,354.704z"/>
		<path style="fill:#FFFFFF;" d="M604.275,361.719l0.199,0.897c-2.014,0.937-5.899,2.252-12.437,2.591
			c-10.484,0.518-39.683,0.1-39.683,0.1s-6.438-4.464,15.167-12.257c10.185-3.667,18.814-8.969,25.073-13.553
			c-0.419,1.255-3.688,11.021-1.136,14.25C593.991,356.956,597.559,361.102,604.275,361.719z"/>
	</g>
	<g>
		<path style="fill:none;stroke:#231F20;stroke-width:12.9459;" d="M604.475,362.616c1.195-0.578,1.714-0.997,1.714-0.997
			s0.957-0.04,3.468-6.876c4.744-12.816-6.019-24.555-6.019-24.555s-4.046,4.205-11.042,9.308
			c-6.259,4.584-14.889,9.885-25.073,13.553c-21.604,7.793-15.167,12.257-15.167,12.257s29.198,0.418,39.683-0.1
			C598.575,364.868,602.461,363.553,604.475,362.616z"/>
		<path style="fill:none;stroke:#231F20;stroke-width:14;stroke-linecap:round;stroke-linejoin:round;" d="M614.439,294.273
			c0,0-16.442-7.574-52.518,5.7c-20.986,7.733-32.687,17.499-40.279,25.292"/>
		<path style="fill:none;stroke:#231F20;stroke-width:12.9459;" d="M592.655,339.357c0,0-0.02,0.04-0.06,0.14
			c-0.419,1.255-3.688,11.021-1.136,14.25c2.531,3.208,6.099,7.354,12.815,7.972"/>
		<path style="fill:none;stroke:#231F20;stroke-width:21;" d="M401.998,400.006c0.08,0.179,0.199,0.279,0.299,0.319
			c1.754,0.737,6.258-13.174,7.713-10.324c0,0,0,0,0-0.02c0-0.179,0.179-2.113,5.8-12.716c1.575-3.009,3.607-6.697,6.199-11.261
			c12.277-21.665,15.466-55.408,20.389-82.972c4.923-27.604,30.733-16.304,80.222-26.608c49.508-10.344,65.333-5.999,89.668-24.056
			c7.574-5.641,14.45-11.102,19.852-16.722c11.878-12.397,16.542-25.531,5.66-42.931c-31.511-50.405-75.598-73.425-108.384-88.214
			c-32.786-14.809-89.03-7.474-139.854-5.82c-50.864,1.654-122.435,67.107-122.435,67.107s-20.688,22.602-41.954,55.428
			c-21.246,32.806-20.549,109.858-15.387,141.289c0.16,1.116,0.359,2.272,0.538,3.468c0,0,33.025,97.042,28.302,135.789
			c-4.724,38.745-58.596,105.852-80.321,145.554c-20.848,38.028-20.848,102.146,32.447,119.864c2.312,0.777,4.724,1.455,7.235,2.053
			"/>
		<path style="fill:none;stroke:#231F20;stroke-width:21;" d="M189.994,749.99c0.239-0.956,0.498-1.893,0.757-2.81
			c15.526-53.515,69.777-66.629,128.214-94.353c16.822-7.973,34.879-17.359,48.193-35.915c21.745-30.235,17.579-62.981,16.702-89.47
			v-5.66l-4.206-59.095c0.339-20.688,5.202-22.701,16.343-48.691c1.594-3.727,3.847-8.65,6.298-13.672
			c4.823-9.926,10.464-20.33,13.513-23.06c1.196-1.096,1.993-1.017,2.192,0.737"/>
		<path style="fill:none;stroke:#231F20;stroke-width:21;" d="M610.175,488.599c23.199,3.588,35.178,2.949,44.924,0.896
			c6.139-1.315,11.381-3.169,17.978-4.883c3.627-0.957-0.638-7.733-2.989-15.605c-3.389-11.321,3.866-37.829,11.181-39.244
			c17.698-3.448,10.922-1.275,23.319-5.66c8.052-2.85,16.203-24.973,4.404-34.64c-11.818-9.707-15.745-15.745-38.785-42.173
			c-15.805-18.157-15.984-18.416-14.769-35.956c1.256-19.014,1.396-36.632-3.289-56.842c-5.839-25.113-11.38-32.029-20.01-38.845
			c-0.359-0.279-0.758-0.578-1.137-0.877"/>
		<path style="fill:none;stroke:#231F20;stroke-width:21;" d="M670.725,717.404l-71.313-80.321
			c-8.032-15.686-20.708-36.493-3.647-50.505c11.261-9.268,39.423-7.952,54.65-14.489c18.675-8.013,17.918-29.617,14.43-37.649
			c-7.653-17.599-1.216-34.161,1.196-41.516c0.358-1.097,0.617-1.993,0.737-2.651"/>
		<path style="fill:none;stroke:#231F20;stroke-width:21;" d="M497.287,560.509c0,0,63.618,25.531,140.811,14.809"/>
	</g>
</g>
<rect style="fill:none;" width="850.394" height="850.394"/>
</svg>
