<?xml version="1.0" encoding="iso-8859-1"?>
<!-- Generator: Adobe Illustrator 12.0.1, SVG Export Plug-In . SVG Version: 6.00 Build 51448)  -->
<!DOCTYPE svg PUBLIC "-//W3C//DTD SVG 1.1//EN" "http://www.w3.org/Graphics/SVG/1.1/DTD/svg11.dtd" [
	<!ENTITY ns_svg "http://www.w3.org/2000/svg">
	<!ENTITY ns_xlink "http://www.w3.org/1999/xlink">
]>
<svg  version="1.1" id="Layer_1" xmlns="&ns_svg;" xmlns:xlink="&ns_xlink;" width="850.394" height="850.394"
	 viewBox="0 0 850.394 850.394" style="overflow:visible;enable-background:new 0 0 850.394 850.394;" xml:space="preserve">
<g id="XMLID_6_">
	<g>
		<path style="fill:#FFFFC2;" d="M549.54,735.78c-7.72,6.5-17.021,11.83-27.63,16.319c-4.12-2.72-18.82-9.59-58.03-4.569
			c-43.48,5.569-60.48,24.37-63.36,27.96c-16.51,0.08-25.1-1.641-25.1-1.641s3.01-5.619,10.14-12.989
			c10.71-11.091,30.74-26.12,63.8-31.811c4.08-0.71,8.359-1.28,12.84-1.67c69.979-6.16,61.03,21.83,74.46,16.8
			c0,0,4.71-3.25,12.63-8.76L549.54,735.78z"/>
		<path style="fill:#FFFFC2;" d="M521.91,752.1c-18.62,7.9-41.271,13.23-66.42,17.83c-23.23,4.24-41.67,5.49-54.97,5.561
			c2.88-3.59,19.88-22.391,63.36-27.96C503.09,742.51,517.79,749.38,521.91,752.1z"/>
		<path style="fill:#FFFFC2;" d="M385.56,760.86c-7.13,7.37-10.14,12.989-10.14,12.989s-29.67,17.351-77.26-1.119
			c-47.59-18.48-61.85-67.851-65.51-111.41c-5.6-66.63,23.52-106.94,29.12-134.37c0-0.021,0.01-0.03,0.01-0.05
			c-0.42,17.52-13.17,103.34,10.06,157.369C296.68,742.03,341.49,750.82,385.56,760.86z"/>
		<path style="fill:#FFFFC2;" d="M449.36,729.05c-33.061,5.69-53.09,20.72-63.8,31.811c-44.07-10.04-88.88-18.83-113.72-76.591
			c-23.23-54.029-10.48-139.85-10.06-157.369c2.09-10.28,3.08-21.881,3.51-32.381l0.73,0.03c0.59-18.09,12.19-34.04,29.79-43.939
			l0.11,0.189c0,0,23.05,66.51,34.15,101.34c16.23,50.95,44.23,79.5,73.9,115.33c29.669,35.83,44.23,56.55,44.799,58.23
			L449.36,729.05z"/>
		<path style="fill:#FFFFC2;" d="M536.66,744.18c-13.43,5.03-4.48-22.96-74.46-16.8c-4.48,0.39-8.76,0.96-12.84,1.67l-0.591-3.35
			c-0.569-1.681-15.13-22.4-44.799-58.23c-29.67-35.83-57.67-64.38-73.9-115.33c-11.1-34.83-34.15-101.34-34.15-101.34l-0.11-0.189
			C307.66,443.93,322.23,440,338,440l0.14-0.05c2.72,7.439,5.76,14.229,9.17,19.84c1.24-2.75,3.55-7.85,6.36-14.05
			c8.43-18.57,21.4-47.05,23.99-52.05c4.73-9.14,19.75-10.29,37.17-5.35c13.52,3.82,28.49,11.32,41.21,21.59
			c0.91,0.73,1.84,1.49,2.79,2.26c8.33,6.81,18.05,15.05,28.02,23.59c25.2,21.59,52.021,45.16,62.131,52.54
			c5.659,4.14,17.42,14.279,30.17,27.479c20.04,20.73,42.529,49,47.659,73.29c8.391,39.75-6.159,96.311-36.399,117.58
			c-16.7,11.75-31.351,21.96-41.12,28.75C541.37,740.93,536.66,744.18,536.66,744.18z"/>
		<path style="fill:#ABD153;" d="M532.1,183.26c1.9-10.52,3.471-18.9,4.561-24.15c9.52-45.91,12.88-59.35,12.88-59.35
			s29.12-8.95,38.63,8.96c9.521,17.91,4.48,52.07-6.71,136.05c-6.56,49.22-16.24,158.44-15.12,183.63
			c1.12,25.199,4.48,68.869,13.44,86.79l-0.63,0.609c-12.75-13.2-24.511-23.34-30.17-27.479c-10.11-7.38-36.931-30.95-62.131-52.54
			l0.551-0.65c0,0,7.27-20.16,11.189-49.27C501.9,361.26,521.78,240.55,532.1,183.26z"/>
		<path style="fill:#ABD153;" d="M295.81,450.61c-17.6,9.899-29.2,25.85-29.79,43.939l-0.73-0.03c0.71-17.52-0.17-31.96-0.17-31.96
			S243.75,268.1,234.33,219.01c-10.64-55.42-14.56-82.3-14.56-82.3s16.8-10.07,34.72-7.83c17.91,2.23,23.51,20.71,26.31,31.91
			c2.8,11.19,29.67,147.8,37.51,189.79c2.7,14.49,8.32,57.78,19.83,89.37L338,440C322.23,440,307.66,443.93,295.81,450.61z"/>
		<path style="fill:#ABD153;" d="M415.65,385.4l-0.82,2.94c-17.42-4.94-32.44-3.79-37.17,5.35c-2.59,5-15.56,33.48-23.99,52.05
			l-4-1.66c0,0-6.16-137.16-6.16-171.88c0-34.71,0.56-176.36,2.8-185.32c2.23-8.95,24.63-12.31,31.35-6.15
			c6.72,6.15,12.32,18.47,14.55,59.9c1.21,22.39,12.8,170.82,14,182.52C408.31,343.62,414.84,380.82,415.65,385.4z"/>
	</g>
	<g>
		<path style="fill:none;stroke:#231F20;stroke-width:21;" d="M579.78,515.19c-8.96-17.921-12.32-61.591-13.44-86.79
			c-1.12-25.19,8.561-134.41,15.12-183.63c11.19-83.98,16.23-118.14,6.71-136.05c-9.51-17.91-38.63-8.96-38.63-8.96
			s-3.36,13.44-12.88,59.35c-1.09,5.25-2.66,13.63-4.561,24.15c-10.319,57.29-30.199,178-33.51,202.6
			c-3.92,29.11-11.189,49.27-11.189,49.27"/>
		<path style="fill:none;stroke:#231F20;stroke-width:21;" d="M346.31,462c0,0,0.36-0.79,1-2.21c1.24-2.75,3.55-7.85,6.36-14.05
			c8.43-18.57,21.4-47.05,23.99-52.05c4.73-9.14,19.75-10.29,37.17-5.35c13.52,3.82,28.49,11.32,41.21,21.59
			c0.91,0.73,1.84,1.49,2.79,2.26c8.33,6.81,18.05,15.05,28.02,23.59c25.2,21.59,52.021,45.16,62.131,52.54
			c5.659,4.14,17.42,14.279,30.17,27.479c20.04,20.73,42.529,49,47.659,73.29c8.391,39.75-6.159,96.311-36.399,117.58
			c-16.7,11.75-31.351,21.96-41.12,28.75c-7.92,5.51-12.63,8.76-12.63,8.76c-13.43,5.03-4.48-22.96-74.46-16.8
			c-4.48,0.39-8.76,0.96-12.84,1.67c-33.061,5.69-53.09,20.72-63.8,31.811c-7.13,7.37-10.14,12.989-10.14,12.989
			s-29.67,17.351-77.26-1.119c-47.59-18.48-61.85-67.851-65.51-111.41c-5.6-66.63,23.52-106.94,29.12-134.37
			c0-0.021,0.01-0.03,0.01-0.05c2.09-10.28,3.08-21.881,3.51-32.381c0.71-17.52-0.17-31.96-0.17-31.96S243.75,268.1,234.33,219.01
			c-10.64-55.42-14.56-82.3-14.56-82.3s16.8-10.07,34.72-7.83c17.91,2.23,23.51,20.71,26.31,31.91
			c2.8,11.19,29.67,147.8,37.51,189.79c2.7,14.49,8.32,57.78,19.83,89.37c2.72,7.439,5.76,14.229,9.17,19.84
			c4.28,7.06,9.15,12.26,14.67,14.53"/>
		<path style="fill:none;stroke:#231F20;stroke-width:14;" d="M375.42,773.85c0,0,8.59,1.721,25.1,1.641
			c13.3-0.07,31.74-1.32,54.97-5.561c25.149-4.6,47.8-9.93,66.42-17.83c10.609-4.489,19.91-9.819,27.63-16.319"/>
		<path style="fill:none;stroke:#231F20;stroke-width:14;" d="M400.05,776.09c0,0,0.15-0.21,0.47-0.6
			c2.88-3.59,19.88-22.391,63.36-27.96c39.21-5.021,53.91,1.85,58.03,4.569c0.93,0.62,1.32,1.03,1.32,1.03"/>
		<path style="fill:none;stroke:#231F20;stroke-width:21;" d="M415.73,385.86c0,0-0.03-0.16-0.08-0.46
			c-0.81-4.58-7.34-41.78-9.44-62.25c-1.2-11.7-12.79-160.13-14-182.52c-2.23-41.43-7.83-53.75-14.55-59.9
			c-6.72-6.16-29.12-2.8-31.35,6.15c-2.24,8.96-2.8,150.61-2.8,185.32c0,34.72,6.16,171.88,6.16,171.88"/>
		<path style="fill:none;stroke:#231F20;stroke-width:14;" d="M261.77,525.27c0.02,0.45,0.02,1,0.01,1.631
			c-0.42,17.52-13.17,103.34,10.06,157.369c24.84,57.761,69.65,66.551,113.72,76.591c0.17,0.029,0.33,0.069,0.5,0.109"/>
		<path style="fill:none;stroke:#231F20;stroke-width:14;stroke-linecap:round;stroke-linejoin:round;" d="M284.16,472.64
			c0,0,5.6,47.03,2.8,76.7s-3.36,82.87,36.39,127.09c28.37,31.57,66.07,54.87,83.42,64.94"/>
		<path style="fill:none;stroke:#231F20;stroke-width:14;stroke-linecap:round;stroke-linejoin:round;" d="M295.92,450.8
			c0,0,23.05,66.51,34.15,101.34c16.23,50.95,44.23,79.5,73.9,115.33c29.669,35.83,44.23,56.55,44.799,58.23"/>
		<path style="fill:none;stroke:#231F20;stroke-width:14;stroke-linecap:round;stroke-linejoin:round;" d="M314.95,449.68
			c0,0,47.03,54.87,76.71,85.101c23.87,24.319,57.1,53.75,71.09,107.5c14.01,53.739,18.48,81.18,18.48,81.18"/>
		<path style="fill:none;stroke:#231F20;stroke-width:14;" d="M357.5,445.76c0,0,56.55,30.8,91.82,59.351
			c26.79,21.689,56.55,52.62,68.859,110.29c12.32,57.67-6.149,106.38-5.59,108.06"/>
		<path style="fill:none;stroke:#231F20;stroke-width:14;" d="M364.22,430.64c0,0,61.59,23.521,113.1,48.16
			c48.35,23.12,98.529,58.22,103.01,116.45c4.49,58.23-41.43,129.89-49.271,142.21"/>
		<path style="fill:none;stroke:#231F20;stroke-width:14;" d="M440.37,262.68c0,0-6.73,109.74-5.601,129.89"/>
		<path style="fill:none;stroke:#231F20;stroke-width:14;" d="M440.37,266.04c0-24.96,3.36-48.82,3.36-73.73
			c0-16.08,2.119-57.21-12.32-67.35"/>
		<path style="fill:none;stroke:#231F20;stroke-width:14;" d="M441.48,65.61c0,0,22.399,20.15,15.689,62.7
			c-6.72,42.56-13.439,75.03-13.439,75.03"/>
		<path style="fill:none;stroke:#231F20;stroke-width:14;" d="M498.59,72.33c0,0-13.439,12.31-32.479,68.3"/>
		<path style="fill:none;stroke:#231F20;stroke-width:14;" d="M515.39,96.96c0,0-21.01-0.96-39.199,29.12
			c-13.98,23.13-16.341,79.37-15.5,136.64c0.899,61.92,5.52,125.04,3.189,148.89"/>
		<path style="fill:none;stroke:#231F20;stroke-width:14;" d="M461.5,258.28c0.08,1.4,0.14,2.16,0.14,2.16"/>
		<path style="fill:none;stroke:#231F20;stroke-width:14;" d="M513.14,164.15c0,0-24.63-30.24-40.31,3.36
			c-13.88,29.78-11.95,79.78-11.33,90.76"/>
		<path style="fill:none;stroke:#231F20;stroke-width:14;" d="M460.52,263.8c0,0,0.051-0.38,0.171-1.08
			c0.149-0.94,0.42-2.46,0.81-4.44c0,0,0,0,0-0.01c3.98-20.06,21.12-87.21,70.6-75.01c8.69,2.14,18.391,6.74,29.19,14.48"/>
	</g>
</g>
<rect style="fill:none;" width="850.394" height="850.394"/>
</svg>
