<?xml version="1.0" encoding="iso-8859-1"?>
<!-- Generator: Adobe Illustrator 12.0.1, SVG Export Plug-In . SVG Version: 6.00 Build 51448)  -->
<!DOCTYPE svg PUBLIC "-//W3C//DTD SVG 1.1//EN" "http://www.w3.org/Graphics/SVG/1.1/DTD/svg11.dtd" [
	<!ENTITY ns_svg "http://www.w3.org/2000/svg">
	<!ENTITY ns_xlink "http://www.w3.org/1999/xlink">
]>
<svg  version="1.1" id="Layer_1" xmlns="&ns_svg;" xmlns:xlink="&ns_xlink;" width="850.394" height="850.394"
	 viewBox="0 0 850.394 850.394" style="overflow:visible;enable-background:new 0 0 850.394 850.394;" xml:space="preserve">
<g id="XMLID_4_">
	<g>
		<path style="fill:#0B00EA;" d="M715.188,318.644c0,0,53.239,36.059,24.771,71.618c-13.085,16.381-30.765,21.275-70.02-3.496
			c-16.78-10.588-52.439-35.559-52.439-10.188c0,25.271,0,229.137,0,229.137h-29.966h-61.629v0.1h-55.037h-0.3h-31.963
			c0,0,0-203.766,0-229.137c0-25.371-35.659-0.399-52.44,10.288c-39.155,24.672-56.935,19.777-70.02,3.496
			c-28.367-35.659,24.772-71.618,24.772-71.618l138.74-101.384l4.895-3.496c11.087,9.089,24.272,14.383,38.456,14.383
			c14.683,0,28.367-5.693,39.754-15.482l9.689,0.4L715.188,318.644z"/>
		<path style="fill:#FFEEC8;" d="M609.409,67.632c12.386,5.094,18.079,19.677,12.785,32.563
			c-4.595,11.287-16.281,17.58-27.368,15.482l-2.797,0.5c-2.497-13.784-7.592-26.47-14.583-36.958l2.497-1.798
			C586.336,67.632,598.622,63.237,609.409,67.632z"/>
		<path style="fill:#FFEEC8;" d="M525.905,605.813v-0.1h61.629v0.1c0,1.997,0,3.995,0,5.993h0.2l6.692,173.001l-4.595,0.2
			c0,0-5.794,45.847-148.529,45.847c-126.455,0-174.1-27.468-174.1-27.468l-0.5,0.1c-10.288-70.119-112.771-349.798-138.341-441.493
			c-26.869-96.389,58.333-145.833,112.171-2.198C254.717,397.652,357,684.023,391.56,759.836
			c23.173,50.842,54.737,30.166,61.229,21.976c7.592-9.489,7.592-20.477,7.592-20.477l9.988-147.431h0.199c0-2.497,0-5.095,0-7.592
			v-0.499h0.3H525.905z"/>
		<path style="fill:#A3D9FF;" d="M454.287,114.478c2.497-12.486,6.992-23.873,13.186-33.661
			c12.984-20.776,33.062-34.161,55.536-34.161c21.875,0,41.452,12.686,54.438,32.563c6.991,10.488,12.086,23.173,14.583,36.958
			c1.398,6.792,2.098,13.984,2.098,21.275c0,31.364-12.486,59.032-31.364,75.413c-11.387,9.789-25.071,15.482-39.754,15.482
			c-14.184,0-27.369-5.294-38.456-14.383c-2.197-1.898-4.395-3.896-6.393-5.993c-15.981-16.681-26.27-42.052-26.27-70.519
			C451.891,129.561,452.689,121.77,454.287,114.478z M555.371,126.764c0-8.69-4.595-15.782-10.288-15.782
			c-5.594,0-10.188,7.092-10.188,15.782c0,8.79,4.595,15.882,10.188,15.882C550.776,142.646,555.371,135.554,555.371,126.764z
			 M509.424,126.464c0-8.69-4.595-15.782-10.188-15.782c-5.693,0-10.288,7.092-10.288,15.782s4.595,15.782,10.288,15.782
			C504.829,142.246,509.424,135.154,509.424,126.464z"/>
		<path style="fill:#FFEEC8;" d="M545.083,110.982c5.693,0,10.288,7.092,10.288,15.782c0,8.79-4.595,15.882-10.288,15.882
			c-5.594,0-10.188-7.092-10.188-15.882C534.895,118.074,539.489,110.982,545.083,110.982z"/>
		<path style="fill:#FFEEC8;" d="M499.235,110.682c5.594,0,10.188,7.092,10.188,15.782s-4.595,15.782-10.188,15.782
			c-5.693,0-10.288-7.092-10.288-15.782S493.542,110.682,499.235,110.682z"/>
		<path style="fill:#FFEEC8;" d="M464.775,77.321c0.699,1.298,1.897,2.297,2.697,3.496c-6.193,9.789-10.688,21.175-13.186,33.661
			c-3.196,0.599-5.793,1.698-9.189,1.498c-3.396-0.1-6.492-0.499-9.589-1.897c-6.192-2.697-11.087-7.691-13.684-13.984
			c-5.194-12.885,0.5-27.369,12.786-32.463c10.787-4.395,23.073-0.1,29.466,9.689H464.775z"/>
	</g>
	<g>
		<path style="fill:none;stroke:#000000;stroke-width:17.9452;" d="M592.029,116.176c1.398,6.792,2.098,13.984,2.098,21.275
			c0,31.364-12.486,59.032-31.364,75.413c-11.387,9.789-25.071,15.482-39.754,15.482c-14.184,0-27.369-5.294-38.456-14.383
			c-2.197-1.898-4.395-3.896-6.393-5.993c-15.981-16.681-26.27-42.052-26.27-70.519c0-7.891,0.799-15.682,2.396-22.974
			c2.497-12.486,6.992-23.873,13.186-33.661c12.984-20.776,33.062-34.161,55.536-34.161c21.875,0,41.452,12.686,54.438,32.563
			C584.438,89.707,589.532,102.392,592.029,116.176z"/>
		<path style="fill:none;stroke:#000000;stroke-width:17.9452;" d="M479.658,217.459l-138.74,101.384
			c0,0-53.139,35.958-24.772,71.618c13.085,16.281,30.865,21.176,70.02-3.496c16.781-10.688,52.44-35.659,52.44-10.288
			c0,25.371,0,229.137,0,229.137h31.963h0.3h55.037h4.395"/>
		<path style="fill:none;stroke:#000000;stroke-width:17.9452;" d="M572.452,213.265l142.735,105.379
			c0,0,53.239,36.059,24.771,71.618c-13.085,16.381-30.765,21.275-70.02-3.496c-16.78-10.588-52.439-35.559-52.439-10.188
			c0,25.271,0,229.137,0,229.137h-29.966h-61.629"/>
		<path style="fill:none;stroke:#000000;stroke-width:8.9726;" d="M509.424,126.464c0,8.69-4.595,15.782-10.188,15.782
			c-5.693,0-10.288-7.092-10.288-15.782s4.595-15.782,10.288-15.782C504.829,110.682,509.424,117.774,509.424,126.464z"/>
		<path style="fill:none;stroke:#000000;stroke-width:8.9726;" d="M534.895,126.764c0-8.69,4.595-15.782,10.188-15.782
			c5.693,0,10.288,7.092,10.288,15.782c0,8.79-4.595,15.882-10.288,15.882C539.489,142.646,534.895,135.554,534.895,126.764z"/>
		<path style="fill:none;stroke:#000000;stroke-width:8.9726;stroke-linecap:round;stroke-linejoin:round;" d="M544.684,169.914
			c0,13.185-10.188,23.773-22.674,23.773c-12.586,0-22.774-10.588-22.774-23.773"/>
		<polyline style="fill:none;stroke:#000000;stroke-width:26.9178;" points="594.726,792.998 594.427,784.808 587.734,611.807 		"/>
		<path style="fill:none;stroke:#000000;stroke-width:26.9178;" d="M470.369,613.604v0.3l-9.988,147.431c0,0,0,10.987-7.592,20.477
			c-6.492,8.19-38.056,28.866-61.229-21.976C357,684.023,254.717,397.652,240.533,359.796
			c-53.838-143.635-139.04-94.191-112.171,2.198c25.571,91.695,128.053,371.374,138.341,441.493c0.1,0.799,0.2,1.398,0.3,2.098"/>
		<path style="fill:none;stroke:#000000;stroke-width:17.9452;" d="M455.286,114.278c-0.399,0.1-0.699,0.1-0.999,0.2
			c-3.196,0.599-5.793,1.698-9.189,1.498c-3.396-0.1-6.492-0.499-9.589-1.897c-6.192-2.697-11.087-7.691-13.684-13.984
			c-5.194-12.885,0.5-27.369,12.786-32.463c10.787-4.395,23.073-0.1,29.466,9.689"/>
		<path style="fill:none;stroke:#000000;stroke-width:17.9452;" d="M594.826,115.677c11.087,2.098,22.773-4.195,27.368-15.482
			c5.294-12.885-0.399-27.468-12.785-32.563c-10.787-4.395-23.073,0-29.466,9.789"/>
	</g>
</g>
<rect style="fill:none;" width="850.394" height="850.394"/>
</svg>
