<svg xmlns="http://www.w3.org/2000/svg" width="850.394" height="850.394" viewBox="0 0 850.394 850.394" overflow="visible"><path d="M269.77 300.43l14.4 21.59c-31.35 17.36-56.9 30.45-73.69 38.77-14.05 6.97-21.95 10.6-21.95 10.6s-12.34 8.22-55.53-25.71c-24.89-19.56-46.28-50.91-46.28-50.91l-.86-.12c1.37-9.99 3.91-19.28 8.06-27.13 12.39-23.47 33.69-41.08 40.8-46.55 6.06 7.19 14.12 11.88 23.27 12.68 9.59.84 18.75-2.75 26.15-9.37 1.51 3.05 14.94 30.46 22.31 58.82 3.23 12.42 5.3 25.02 4.7 35.84l.23.7 58.39-19.21zM718.02 504.19L762 550l-.33 3.68c-19.82-1.79-36.7 14.62-47.16 38.73-15.149 34.87-57.99 24.3-85.95 37.56-12.489 5.931-21.149 13.641-27.85 26.19-5.64 10.53-5.57 22.84-14.2 31.97-23.13 24.49-72.46 17.75-104.229 20.44-35.88 3.02-48.96 25.27-68.19 49.35l-45.59-53.01c17.89-22.8 31.36-43.19 65.61-46.09 31.77-2.69 81.1 4.06 104.229-20.44 8.63-9.13 8.561-21.439 14.2-31.97 6.7-12.55 15.36-20.26 27.85-26.18 27.96-13.25 70.811-2.681 85.95-37.57 11.18-25.75 29.69-42.72 51.29-38.101l.39-.369z" fill="#a8d7f4"/><path d="M624.94 470.22s-7.07-3.75-10.74-7.399c-3.67-3.66-4.62-3.391-7.021-.98-2.39 2.4-13.109 6.38-13.109 6.38s11-15.489 10.25-22.529c-.051-.421-17.29-35.21-17.63-52.8-.36-19.09 15.149-35.51 20.31-38.6l1.76 6.84 5.471-5.52c2.31 1.84 9.31 7.04 13.93 20.92 5.63 16.97 2.24 32.71 2.24 32.71-.87 12.46-14.21 32.74-14.21 32.74s-2.351 3.399.05 9.14c2.409 5.718 8.699 19.098 8.699 19.098z" fill="#9c5c25"/><path d="M276.2 577.84l37.53.36.48.069c-.25 1.75-.38 2.69-.38 2.69 1.4 15.21 17.88 22.08 28.08 26.63 20.26 9.061-.5 14.521-15.66 12-8.1-1.35-10.74-4.35-19.03-5.31-1.17-.141-2.67.08-4.36.38-.09-.04-.18-.09-.28-.13-10.21-4.55-26.69-11.42-28.09-26.63 0 0 .13-.94.38-2.69.24-1.729.61-4.25 1.09-7.41l.24.041z" fill="#394ea1"/><path d="M270.43 297.57l-1.45-.33c2.62-1.04 25.99-10.36 34.73-13.27 1.86-.62 3.68-.03 5.13 1.44 5.6 5.7 5.52 24.69-19.88 37.81l-4.79-1.2-14.4-21.59.66-2.86z" fill="#ffeec8"/><path d="M267.88 621.22c-4.87-.569-15.67 4.82-20.22-1.529-5.97-8.32-1.19-21.011-3.14-34.471l2.88-.08h26.99l.48.07c-.25 1.75-.38 2.69-.38 2.69 1.4 15.21 17.88 22.08 28.09 26.63.1.04.19.09.28.13 19.77 8.979-.86 14.38-15.95 11.88-8.1-1.35-10.74-4.36-19.03-5.32z" fill="#394ea1"/><path d="M237.42 483.2c-49.29 10.979-85.91 9.02-85.91 9.02-28.54-4.62-38.57-1.54-49.83-28.529-5.97-14.33-1.59-56.311-1.59-56.311s-.01-.02-.01-.05l93.65-.68c10.49 7.37 64.5 29.7 85.69 37.041 21.23 7.35 16.76 34.14 10.46 60.869-6.83 28.95-11.65 58.301-13.92 73.24-.48 3.16-.85 5.681-1.09 7.41l-.48-.07H247.4l-2.88.08c-.23-1.56-.54-3.13-.98-4.71l-4.57-18.1c-8.02-26.2 5.52-65.16 7.43-71.29 1.91-6.13-8.98-7.92-8.98-7.92z" fill="#797878"/><path d="M269.77 300.43l-58.39 19.21-.23-.7c.6-10.82-1.47-23.42-4.7-35.84l.59-.15 61.94 14.29 1.45.33-.66 2.86z" fill="#a8d7f4"/><path d="M279.42 443.69c-21.19-7.341-75.2-29.67-85.69-37.041l5.34-.04s2.18-5.71 5.18-16.27l.99.07c10.35 7.33 92.29 38.99 113.52 46.34 21.23 7.35 16.75 34.14 10.45 60.87-8.26 35.07-13.59 70.75-15 80.649l-.48-.069-37.53-.36-.24-.04c2.27-14.939 7.09-44.29 13.92-73.24 6.3-26.729 10.77-53.519-10.46-60.869z" fill="#797878"/><path d="M134.72 220.97c-8.13-9.66-12.64-23.84-11.3-39.18 2.34-26.78 21.61-46.97 43.02-45.09 21.43 1.86 36.9 25.08 34.56 51.86-1.29 14.78-7.74 27.55-16.86 35.72-7.4 6.62-16.56 10.21-26.15 9.37-9.15-.8-17.21-5.49-23.27-12.68z" fill="#ffeec8"/><path d="M86.72 294.77s21.39 31.35 46.28 50.91c43.19 33.93 55.53 25.71 55.53 25.71s7.9-3.63 21.95-10.6l.67 1.34c-2.4 11.49-4.84 20.98-6.9 28.21-3 10.56-5.18 16.27-5.18 16.27l-5.34.04-93.65.68c-.66-2.03-20.7-65.29-14.22-112.68l.86.12z" fill="#a8d7f4"/><g fill="none" stroke="#231f20"><path d="M93.92 267.52c12.39-23.47 33.69-41.08 40.8-46.55M184.14 224.28c9.12-8.17 15.57-20.94 16.86-35.72 2.34-26.78-13.13-50-34.56-51.86-21.41-1.88-40.68 18.31-43.02 45.09-1.34 15.34 3.17 29.52 11.3 39.18 6.06 7.19 14.12 11.88 23.27 12.68 9.59.84 18.75-2.75 26.15-9.37zM205.24 390.41c10.35 7.33 92.29 38.99 113.52 46.34 21.23 7.35 16.75 34.14 10.45 60.87-8.26 35.07-13.59 70.75-15 80.649-.25 1.75-.38 2.69-.38 2.69 1.4 15.21 17.88 22.08 28.08 26.63 20.26 9.061-.5 14.521-15.66 12-8.1-1.35-10.74-4.35-19.03-5.31-1.17-.141-2.67.08-4.36.38-.09.01-.17.02-.26.04M313.73 578.2l-37.53-.36M274.39 585.14H247.4" stroke-width="21"/><path d="M193.67 406.61c.02.01.04.03.06.04 10.49 7.37 64.5 29.7 85.69 37.041 21.23 7.35 16.76 34.14 10.46 60.869-6.83 28.95-11.65 58.301-13.92 73.24-.48 3.16-.85 5.681-1.09 7.41-.25 1.75-.38 2.69-.38 2.69 1.4 15.21 17.88 22.08 28.09 26.63.1.04.19.09.28.13 19.77 8.979-.86 14.38-15.95 11.88-8.1-1.35-10.74-4.36-19.03-5.32-4.87-.569-15.67 4.82-20.22-1.529-5.97-8.32-1.19-21.011-3.14-34.471-.23-1.56-.54-3.13-.98-4.71l-4.57-18.1c-8.02-26.2 5.52-65.16 7.43-71.29 1.91-6.13-8.98-7.92-8.98-7.92-49.29 10.979-85.91 9.02-85.91 9.02-28.54-4.62-38.57-1.54-49.83-28.529-5.97-14.33-1.59-56.311-1.59-56.311s-.01-.02-.01-.05c-.66-2.03-20.7-65.29-14.22-112.68 1.37-9.99 3.91-19.28 8.06-27.13 12.39-23.47 26.97-36.05 34.08-41.52.1-.08.19-.14.26-.19.12-.11.33-.27.35-.27.04-.04.07-.06.07-.06" stroke-width="21"/><path d="M211.15 362.13c-2.4 11.49-4.84 20.98-6.9 28.21-3 10.56-5.18 16.27-5.18 16.27l-5.34.04-93.65.68" stroke-width="21"/><path d="M152.53 261.35l39.08 64.79 19.77-6.5 58.39-19.21 14.4 21.59c-31.35 17.36-56.9 30.45-73.69 38.77-14.05 6.97-21.95 10.6-21.95 10.6s-12.34 8.22-55.53-25.71c-24.89-19.56-46.28-50.91-46.28-50.91" stroke-width="21"/><path d="M184 224l.14.28c1.51 3.05 14.94 30.46 22.31 58.82 3.23 12.42 5.3 25.02 4.7 35.84" stroke-width="21"/><path d="M586.69 392.89c-.36-19.09 15.149-35.51 20.31-38.6l1.76 6.84 5.471-5.52c2.31 1.84 9.31 7.04 13.93 20.92 5.63 16.97 2.24 32.71 2.24 32.71-.87 12.46-14.21 32.74-14.21 32.74s-2.351 3.399.05 9.14c2.41 5.72 8.7 19.1 8.7 19.1s-7.07-3.75-10.74-7.399c-3.67-3.66-4.62-3.391-7.021-.98-2.39 2.4-13.109 6.38-13.109 6.38s11-15.489 10.25-22.529c-.051-.422-17.291-35.212-17.631-52.802z" stroke-width="14"/><path d="M268.74 297.34s.08-.03.24-.1c2.62-1.04 25.99-10.36 34.73-13.27 1.86-.62 3.68-.03 5.13 1.44 5.6 5.7 5.52 24.69-19.88 37.81-.56.29-1.13.58-1.71.86" stroke-width="21"/><path stroke-width="21" d="M307.82 286.03l1.02-.62L623.53 93.72M207.04 282.95l61.94 14.29 1.45.33 3.45.8M89.81 508.16h100.78v107.98"/><path stroke-width="7" d="M609.65 105.04v246.69"/><path d="M365.92 708.18c.88-1.1 1.74-2.189 2.58-3.27 17.89-22.8 31.36-43.19 65.61-46.09 31.77-2.69 81.1 4.06 104.229-20.44 8.63-9.13 8.561-21.439 14.2-31.97 6.7-12.55 15.36-20.26 27.85-26.18 27.96-13.25 70.811-2.681 85.95-37.57 11.18-25.75 29.69-42.72 51.29-38.101M414.09 757.92c19.23-24.08 32.311-46.33 68.19-49.35 31.77-2.69 81.1 4.05 104.229-20.44 8.63-9.13 8.561-21.439 14.2-31.97 6.7-12.55 15.36-20.26 27.85-26.19 27.96-13.26 70.801-2.689 85.95-37.56 10.46-24.11 27.34-40.521 47.16-38.73 1.36.12 2.74.32 4.13.62" stroke-width="21"/></g><path fill="none" d="M0 0h850.394v850.394H0z"/></svg>