<?xml version="1.0" encoding="iso-8859-1"?>
<!-- Generator: Adobe Illustrator 12.0.1, SVG Export Plug-In . SVG Version: 6.00 Build 51448)  -->
<!DOCTYPE svg PUBLIC "-//W3C//DTD SVG 1.1//EN" "http://www.w3.org/Graphics/SVG/1.1/DTD/svg11.dtd" [
	<!ENTITY ns_svg "http://www.w3.org/2000/svg">
	<!ENTITY ns_xlink "http://www.w3.org/1999/xlink">
]>
<svg  version="1.1" id="Layer_1" xmlns="&ns_svg;" xmlns:xlink="&ns_xlink;" width="850.394" height="850.394"
	 viewBox="0 0 850.394 850.394" style="overflow:visible;enable-background:new 0 0 850.394 850.394;" xml:space="preserve">
<g id="XMLID_2_">
	<g>
		<path style="fill:#33A048;" d="M570.72,323.66c1.601,1.34,1.891,3.1,1.11,4.18l-5.54-0.01c-5.15-2.25-14.61-6.33-14.61-6.33
			s2.49-7.42,7.5-13.08c1.84-2.08,3.53-3.07,4.9-3.28c2.36-0.37,3.75,1.55,3.21,4.09c-0.87,3.99,0.54,2.45,4.93,2.8
			c4.391,0.36,6.84,1.65,2.681,4.92C570.74,320.22,567.64,321.08,570.72,323.66z"/>
		<path style="fill:#33A048;" d="M566.12,284.19c4.399,0.35,6.85,1.65,2.689,4.92c-4.159,3.27-7.26,4.12-4.18,6.71
			c2.47,2.08,1.811,5.16-1.08,5.16c-0.689,0-1.52-0.18-2.46-0.6c-4.85-2.13-15.5-6.73-15.5-6.73s2.49-7.41,7.5-13.08
			c5-5.66,8.97-3.19,8.11,0.81C560.33,285.38,561.74,283.83,566.12,284.19z"/>
		<path style="fill:#33A048;" d="M566.66,350.41c3.95,1.95,5.75,4.05,0.68,5.56c-5.08,1.51-8.27,1.16-6.359,4.7
			c1.899,3.53-1.25,6.71-4.971,2.94c-3.729-3.77-11.939-11.96-11.939-11.96s5.05-5.98,11.79-9.4c6.739-3.43,9.52,0.33,7.25,3.73
			C560.82,349.38,562.71,348.47,566.66,350.41z"/>
		<path style="fill:#33A048;" d="M547.62,261.28c2.95-2.72,6.81-0.45,4.09,4.09c-2.729,4.54-8.63,14.53-8.63,14.53
			s-7.04-3.4-12.03-9.08c-4.99-5.68-2.04-9.31,1.82-7.94c3.85,1.35,2.5-0.24,3.399-4.55c0.91-4.31,2.5-6.58,5.221-2.04
			C544.21,260.83,544.67,264.01,547.62,261.28z"/>
		<path style="fill:#FFFFFF;" d="M563.55,300.98l0.53,4.16c-1.37,0.21-3.061,1.2-4.9,3.28c-5.01,5.66-7.5,13.08-7.5,13.08
			s9.46,4.08,14.61,6.33l-17.2-0.01c-0.88-5.23-5.31-10.67-6.34-18.34c-0.33-2.46-0.53-5.32-0.63-8.26
			c-0.09-2.53-0.11-5.13-0.09-7.59l3.56,0.02c0,0,10.65,4.6,15.5,6.73C562.03,300.8,562.86,300.98,563.55,300.98z"/>
		<path style="fill:#0D72BA;" d="M549.09,327.82c0.351,2.1,0.12,4.16-1.12,6.32c-3.7,6.42-6.359,9.47-6.529,13.81l-4.2-0.2
			c-0.26-1.27-2.38-11.55-3.36-16.42c-0.43-2.17-1.45-3.27-2.51-3.53L549.09,327.82z"/>
		<path style="fill:#FFFFFF;" d="M549.09,327.82l-17.72-0.02c-0.33-0.08-0.67-0.08-0.99,0l-21.41-0.02
			c1.73-5.12,2.95-10.29,3.521-15.4c0.45-4.04,0.479-7.75,0.149-11.15l5.36-0.47c0.25,1.72,2.32,3.32,6.74,3.39
			c7.56,0.11,14.81-2.82,14.81-2.82l2.57-0.11c0.1,2.94,0.3,5.8,0.63,8.26C543.78,317.15,548.21,322.59,549.09,327.82z"/>
		<path style="fill:#0D72BA;" d="M544.07,351.65c0,0,8.21,8.19,11.939,11.96c3.721,3.77,6.87,0.59,4.971-2.94
			c-1.91-3.54,1.279-3.19,6.359-4.7c5.07-1.51,3.271-3.61-0.68-5.56c-3.95-1.94-5.84-1.03-3.55-4.43c2.27-3.4-0.511-7.16-7.25-3.73
			C549.12,345.67,544.07,351.65,544.07,351.65z M359.78,363.97c0,0-4.75-3.39-13.52-3.33c-8.82,0.04-14.52,5.59-14.52,5.59
			s5.19,4.4,11.82,4.25C355.97,370.19,359.78,363.97,359.78,363.97z M412.91,403.8c-2.79-1.5-8.56-4.24-16.93-6.43
			c-12.19-3.19-17.7-5.51-17.7-5.51l3.19,8.7L369,405.49c0,0,35.68-1.45,49.31,13.34l-1.09-4.36l1.09-0.27c0,0,5.63-5.06,19.43,1.15
			c8.7,3.92,16.25,4.06,16.25,4.06v0.01c0,0,7.55-0.15,16.25-4.06c13.8-6.21,19.43-1.16,19.43-1.16l1.09,0.27l-1.09,4.36
			c13.64-14.79,49.311-13.34,49.311-13.34l-12.471-4.93l3.19-8.7l0.05-0.99c1.46,0.32,3.01-0.92,3.26-3.2c0.44-4,2.87-1.9,7.91-0.25
			c5.03,1.64,4.74-1.12,2.59-4.97c-2.14-3.84-4.21-4.16-0.399-5.66c3.8-1.5,3.649-6.18-3.841-7.19
			c-7.489-1.01-15.029,1.03-15.029,1.03l-0.08-0.11c11.92-9.06,17.84-17.34,17.42-20.14c-0.13-0.86-0.18-1.66-0.14-2.43
			c0.17-4.34,2.829-7.39,6.529-13.81c1.24-2.16,1.471-4.22,1.12-6.32l17.2,0.01c0.31,0.15,0.61,0.28,0.89,0.4
			c2.33,1.02,3.94,0.61,4.65-0.39L747.81,328v192.06L168,520h-5.08V327.46l164.81,0.16c0.46,2.31,1.44,5.2,3.48,7.71
			c6.42,7.86,12.43,8.75,14.42,8.81c2.21,3.81,13.08,21.64,23.95,24.23c13.53,3.22,18.66,1.94,20.26,1.23
			c4.44,3.62,9.27,7.08,14.31,10.28c9.12,5.77,18.92,10.65,28.26,13.95l-0.84,2.36c-0.54-0.2-1.09-0.39-1.66-0.56
			c-15.44-4.5-15.37,7.98-15.37,7.98L412.91,403.8z M366.03,376.99c0,0-5.69-1.3-13.76,2.13c-8.13,3.45-11.24,10.76-11.24,10.76
			s6.49,2.06,12.54-0.63C364.91,384.2,366.03,376.99,366.03,376.99z"/>
		<path style="fill:#33A048;" d="M543.51,382.45c2.15,3.85,2.44,6.61-2.59,4.97c-5.04-1.65-7.47-3.75-7.91,0.25
			c-0.25,2.28-1.8,3.52-3.26,3.2c-1.08-0.25-2.11-1.38-2.5-3.61c-0.92-5.22-3.01-16.63-3.01-16.63s7.54-2.04,15.029-1.03
			c7.49,1.01,7.641,5.69,3.841,7.19C539.3,378.29,541.37,378.61,543.51,382.45z"/>
		<path style="fill:#0D72BA;" d="M516.58,373.81c0,0,1.9-11.44,2.8-16.66c0.53-3.06-0.77-4.58-2.29-4.58l1.7-4.14
			c0.91,0.37,2.06,0.66,3.46,0.82c7.51,0.85,15.02-1.37,15.02-1.37s-0.01-0.04-0.029-0.13l4.2,0.2c-0.04,0.77,0.01,1.57,0.14,2.43
			c0.42,2.8-5.5,11.08-17.42,20.14c-2.16,1.64-4.521,3.31-7.08,4.98L516.58,373.81z"/>
		<path style="fill:#33A048;" d="M537.24,347.75c0.02,0.09,0.029,0.13,0.029,0.13s-7.51,2.22-15.02,1.37
			c-1.4-0.16-2.55-0.45-3.46-0.82c-4-1.66-3.6-4.99-0.53-6.28c3.771-1.59,1.69-1.85-0.54-5.64c-2.22-3.81-2.58-6.56,2.49-5.03
			s7.55,3.57,7.9-0.43c0.159-1.81,1.14-2.99,2.27-3.25h0.99c1.06,0.26,2.08,1.36,2.51,3.53
			C534.86,336.2,536.98,346.48,537.24,347.75z"/>
		<path style="fill:#33A048;" d="M534.57,285.18c1.529,5.07,4.979,16.15,4.979,16.15s-7.25,2.93-14.81,2.82
			c-4.42-0.07-6.49-1.67-6.74-3.39c-0.17-1.21,0.58-2.48,2.07-3.29c3.609-1.94,1.51-2.01-1.08-5.57c-2.58-3.57-3.2-6.27,1.99-5.24
			c5.189,1.03,7.859,2.83,7.819-1.19C528.76,281.46,533.03,280.11,534.57,285.18z"/>
		<path style="fill:#33A048;" d="M517.09,352.57c1.521,0,2.82,1.52,2.29,4.58c-0.899,5.22-2.8,16.66-2.8,16.66s-7.8-0.63-14.5-4.13
			c-6.7-3.49-5.26-7.94-1.17-8.06s2.25-1.12,1.54-5.46c-0.391-2.37-0.37-4.25,0.41-4.94c0.64-0.58,1.819-0.33,3.72,1.15
			c4.17,3.25,5.75,6.05,7.52,2.44C514.83,353.32,516.01,352.57,517.09,352.57z"/>
		<path style="fill:#0D72BA;" d="M508.97,327.78l21.41,0.02c-1.13,0.26-2.11,1.44-2.27,3.25c-0.351,4-2.83,1.96-7.9,0.43
			s-4.71,1.22-2.49,5.03c2.23,3.79,4.311,4.05,0.54,5.64c-3.069,1.29-3.47,4.62,0.53,6.28l-1.7,4.14c-1.08,0-2.26,0.75-2.99,2.24
			c-1.77,3.61-3.35,0.81-7.52-2.44c-1.9-1.48-3.08-1.73-3.72-1.15l-4.25-1.58C502.84,342.62,506.44,335.24,508.97,327.78z"/>
		<path style="fill:#0D72BA;" d="M502.86,351.22c-0.78,0.69-0.801,2.57-0.41,4.94c0.71,4.34,2.55,5.34-1.54,5.46
			s-5.53,4.57,1.17,8.06c6.7,3.5,14.5,4.13,14.5,4.13l0.5,1.69c-10.16,6.61-23.42,13.18-39.65,17.93l0.641,2.2
			c-6.58,1.92-10.32,6.83-22.48,5.88c-0.649-0.05-1.33-0.11-2.04-0.21l0.44-4.08c3.939-2.18,9.029-5.98,14.55-11.01
			c5.17-4.7,10.729-10.47,16.1-16.96c4.21-5.09,8.301-10.62,12-16.43c0.67-1.05,1.33-2.11,1.971-3.18L502.86,351.22z"/>
		<polygon style="fill:#FBEE34;" points="500.39,239.87 488.39,260.46 420.05,260.46 417.76,261.62 406.71,239.87 411.12,239.52 
			421.5,238.71 426.72,228.56 441.22,232.04 453.98,221.02 465.88,232.04 480.38,228.56 485.6,238.71 496.87,239.59 		"/>
		<path style="fill:#FFFFFF;" d="M492.22,216.96c15.09,5.22,4.65,22.62,4.65,22.62v0.01l-11.271-0.88l-5.22-10.15l-14.5,3.48
			l-11.899-11.02l-12.761,11.02l-14.5-3.48l-5.22,10.15l-10.38,0.81l-0.06-0.81c0,0-10.44-17.4,4.64-22.62
			c12.3-4.26,34.12,0.71,37.56-15.19l1.26,0.1C457.42,217.83,479.73,212.63,492.22,216.96z"/>
		<path style="fill:#FFFFFF;" d="M489.67,418.83l1.09-4.36l2.391-9.56c0,0,0.229-0.15,0.699-0.42c1.99-1.17,8.25-4.53,18.15-7.11
			c12.19-3.19,17.7-5.52,17.7-5.52l-3.19,8.7l12.471,4.93C538.98,405.49,503.31,404.04,489.67,418.83z"/>
		<polygon style="fill:#FFFFFF;" points="482.26,304.19 486.32,343.35 473.56,343.35 473.6,342.83 476.46,304.19 		"/>
		<path style="fill:#FFFFFF;" d="M529.7,391.86c0,0-5.51,2.33-17.7,5.52c-9.9,2.58-16.16,5.94-18.15,7.11l-0.409-0.88
			c0,0,0.069-12.48-15.37-7.98l-0.641-2.2c16.23-4.75,29.49-11.32,39.65-17.93c2.56-1.67,4.92-3.34,7.08-4.98l0.08,0.11
			c0,0,2.09,11.41,3.01,16.63c0.39,2.23,1.42,3.36,2.5,3.61L529.7,391.86z"/>
		<path style="fill:#6EBE44;" d="M473.56,343.35h12.761l0.8-0.15l8.05,8.7l1.47,0.92c-3.699,5.81-7.79,11.34-12,16.43l-1-0.81
			l-18.319-19.61l1.14-1.06l6.31-5l0.83,0.06L473.56,343.35z"/>
		<path style="fill:#6EBE44;" d="M459.84,342.97l5.48,5.86l18.319,19.61l1,0.81c-5.37,6.49-10.93,12.26-16.1,16.96l-2.95-3.85
			l-27.05-31.27l0.07-0.06l8.649-10.13l-0.16,2.23h12.761L459.84,342.97z"/>
		<polygon style="fill:#FFFFFF;" points="459.84,342.97 459.86,343.13 447.1,343.13 447.26,340.9 449.99,303.97 455.8,303.97 		"/>
		<path style="fill:#FBEE34;" d="M453.55,185.92c3.76,0,6.82,3.05,6.82,6.81c0,3.77-3.061,6.82-6.82,6.82s-6.81-3.05-6.81-6.82
			C446.74,188.97,449.79,185.92,453.55,185.92z"/>
		<path style="fill:#FFFFFF;" d="M418.31,414.2l-1.09,0.27l-2.39-9.56c0,0-0.65-0.43-1.92-1.11l1.63-0.19c0,0-0.07-12.48,15.37-7.98
			c0.57,0.17,1.12,0.36,1.66,0.56c6.14,2.34,11.22,6.98,24.01,5.38l0.01-0.06c12.16,0.95,15.9-3.96,22.48-5.88
			c15.439-4.5,15.37,7.98,15.37,7.98l0.409,0.88c-0.47,0.27-0.699,0.42-0.699,0.42l-2.391,9.56l-1.09-0.27c0,0-5.63-5.05-19.43,1.16
			c-8.7,3.91-16.25,4.06-16.25,4.06v-0.01c0,0-7.55-0.14-16.25-4.06C423.94,409.14,418.31,414.2,418.31,414.2z"/>
		<path style="fill:#0D72BA;" d="M389.84,369.6c-6.29-5.14-11.77-10.6-15.91-16.04l3-0.92c0.06,0.09,0.1,0.13,0.1,0.13
			s4.73-3.41,7.5-11.73c1.87-5.58,0.97-10.63,0.16-13.37l10.08,0.01c2.53,7.25,6.11,14.4,10.32,21.22
			c13.88,22.45,34.7,41.23,48.03,47.89l0.87,0.43l-0.44,4.08c0.71,0.1,1.391,0.16,2.04,0.21l-0.01,0.06
			c-12.79,1.6-17.87-3.04-24.01-5.38l0.84-2.36c-9.34-3.3-19.14-8.18-28.26-13.95C399.11,376.68,394.28,373.22,389.84,369.6z"/>
		<polygon style="fill:#FFFFFF;" points="431.66,343.13 419.47,343.13 419.49,342.85 422.37,303.97 428.17,303.97 432.23,343.13 		
			"/>
		<path style="fill:#A9D7F3;" d="M394.77,327.68c-1.84-5.27-3.13-10.59-3.72-15.88c-3.33-29.88,16.45-41.8,29.78-44.13l-3.07-6.05
			l2.29-1.16h68.34L484,268l-0.1,0.48c11.439,2.43,26.76,11.71,28.739,32.75c0.33,3.4,0.301,7.11-0.149,11.15
			c-0.57,5.11-1.79,10.28-3.521,15.4c-2.529,7.46-6.13,14.84-10.359,21.86c-0.641,1.07-1.301,2.13-1.971,3.18l-1.47-0.92l-8.05-8.7
			l-0.8,0.15l-4.061-39.16h-5.8l-2.86,38.64l-0.83-0.06l-6.31,5l-1.14,1.06l-5.48-5.86l-4.04-39h-5.81l-2.73,36.93l-8.649,10.13
			l-0.07,0.06l-6.88-7.96h0.57l-4.061-39.16h-5.8l-2.88,38.88l-1.11-0.08c0,0-7.61,4.57-8.27,4.57l-5.02,1.56
			C400.88,342.08,397.3,334.93,394.77,327.68z"/>
		<path style="fill:#6EBE44;" d="M410.11,347.34c0.66,0,8.27-4.57,8.27-4.57l1.11,0.08l-0.02,0.28h12.19l6.88,7.96l27.05,31.27
			l2.95,3.85c-5.521,5.03-10.61,8.83-14.55,11.01l-0.87-0.43c-13.33-6.66-34.15-25.44-48.03-47.89L410.11,347.34z"/>
		<path style="fill:#FFFFFF;" d="M418.31,418.83C404.68,404.04,369,405.49,369,405.49l12.47-4.93l-3.19-8.7c0,0,5.51,2.32,17.7,5.51
			c8.37,2.19,14.14,4.93,16.93,6.43c1.27,0.68,1.92,1.11,1.92,1.11l2.39,9.56L418.31,418.83z"/>
		<path style="fill:#0D72BA;" d="M389.84,369.6c-1.6,0.71-6.73,1.99-20.26-1.23c-10.87-2.59-21.74-20.42-23.95-24.23
			c0.45,0.02,0.69-0.01,0.69-0.01s-0.25-5.83-5.68-12.72c-1.2-1.53-2.52-2.77-3.85-3.79l26.09,0.03c1.24,6.53,3.35,13.1,6.7,19.25
			c1.2,2.2,2.66,4.43,4.35,6.66C378.07,359,383.55,364.46,389.84,369.6z"/>
		<path style="fill:#33A048;" d="M365.46,280.25h-0.01c-0.63,0.23-0.98,0.31-0.98,0.31s-2.16-6.96,5.81-16.49
			c4.25-5.08,10.98-6.07,10.98-6.07s0.42,7.93-5.37,14.6C371.58,277.56,367.32,279.56,365.46,280.25z"/>
		<path style="fill:#33A048;" d="M378.69,292.14c0,0,3.42,7.18,0.62,15.55c-2.77,8.32-7.5,11.73-7.5,11.73s-4.67-5.61-0.95-17.46
			C372.85,295.64,378.69,292.14,378.69,292.14z"/>
		<path style="fill:#33A048;" d="M384.53,341.04c-2.77,8.32-7.5,11.73-7.5,11.73s-0.04-0.04-0.1-0.13
			c-0.67-0.92-4.24-6.54-0.84-17.32c1.07-3.41,3.26-6,5.05-7.65h3.55C385.5,330.41,386.4,335.46,384.53,341.04z"/>
		<path style="fill:#0D72BA;" d="M373.93,353.56c-1.69-2.23-3.15-4.46-4.35-6.66c-3.35-6.15-5.46-12.72-6.7-19.25l18.26,0.02
			c-1.79,1.65-3.98,4.24-5.05,7.65c-3.4,10.78,0.17,16.4,0.84,17.32L373.93,353.56z"/>
		<path style="fill:#33A048;" d="M366.03,376.99c0,0-1.12,7.21-12.46,12.26c-6.05,2.69-12.54,0.63-12.54,0.63s3.11-7.31,11.24-10.76
			C360.34,375.69,366.03,376.99,366.03,376.99z"/>
		<path style="fill:#FFFFFF;" d="M531.05,270.82c4.99,5.68,12.03,9.08,12.03,9.08s5.9-9.99,8.63-14.53
			c2.72-4.54-1.14-6.81-4.09-4.09c-2.95,2.73-3.41-0.45-6.13-4.99c-2.721-4.54-4.311-2.27-5.221,2.04
			c-0.899,4.31,0.45,5.9-3.399,4.55C529.01,261.51,526.06,265.14,531.05,270.82z M453.55,199.55c3.76,0,6.82-3.05,6.82-6.82
			c0-3.76-3.061-6.81-6.82-6.81s-6.81,3.05-6.81,6.81C446.74,196.5,449.79,199.55,453.55,199.55z M365.45,280.25h0.01
			c1.86-0.69,6.12-2.69,10.43-7.65c5.79-6.67,5.37-14.6,5.37-14.6s-6.73,0.99-10.98,6.07c-7.97,9.53-5.81,16.49-5.81,16.49
			S364.82,280.48,365.45,280.25z M356.17,320.35c0,0,2.02-5.48-0.34-13.92c-2.37-8.51-9.22-12.54-9.22-12.54s-2.88,6.16-0.99,12.52
			C349.17,318.31,356.17,320.35,356.17,320.35z M362.88,327.65l-26.09-0.03c-4.7-3.56-9.48-4.22-9.48-4.22s-0.08,1.79,0.42,4.22
			l-164.81-0.16V140.67h2.46h582.43V328l-175.979-0.16c0.78-1.08,0.49-2.84-1.11-4.18c-3.08-2.58,0.021-3.44,4.181-6.71
			c4.159-3.27,1.71-4.56-2.681-4.92c-4.39-0.35-5.8,1.19-4.93-2.8c0.54-2.54-0.85-4.46-3.21-4.09l-0.53-4.16
			c2.891,0,3.55-3.08,1.08-5.16c-3.08-2.59,0.021-3.44,4.18-6.71c4.16-3.27,1.71-4.57-2.689-4.92c-4.38-0.36-5.79,1.19-4.92-2.81
			c0.859-4-3.11-6.47-8.11-0.81c-5.01,5.67-7.5,13.08-7.5,13.08l-3.56-0.02c-0.021,2.46,0,5.06,0.09,7.59l-2.57,0.11
			c0,0-3.45-11.08-4.979-16.15c-1.54-5.07-5.811-3.72-5.771,0.29c0.04,4.02-2.63,2.22-7.819,1.19c-5.19-1.03-4.57,1.67-1.99,5.24
			c2.59,3.56,4.689,3.63,1.08,5.57c-1.49,0.81-2.24,2.08-2.07,3.29l-5.36,0.47c-1.979-21.04-17.3-30.32-28.739-32.75L484,268
			l4.39-7.54l12-20.59l-3.52-0.28v-0.01c0,0,10.439-17.4-4.65-22.62c-12.489-4.33-34.8,0.87-37.7-15.96l-1.26-0.1
			c-3.439,15.9-25.26,10.93-37.56,15.19c-15.08,5.22-4.64,22.62-4.64,22.62l0.06,0.81l-4.41,0.35l11.05,21.75l3.07,6.05
			c-13.33,2.33-33.11,14.25-29.78,44.13c0.59,5.29,1.88,10.61,3.72,15.88l-10.08-0.01c-0.4-1.37-0.78-2.17-0.78-2.17
			s-1.24,0.74-2.77,2.17L362.88,327.65z M379.31,307.69c2.8-8.37-0.62-15.55-0.62-15.55s-5.84,3.5-7.83,9.82
			c-3.72,11.85,0.95,17.46,0.95,17.46S376.54,316.01,379.31,307.69z"/>
		<path style="fill:#33A048;" d="M359.78,363.97c0,0-3.81,6.22-16.22,6.51c-6.63,0.15-11.82-4.25-11.82-4.25s5.7-5.55,14.52-5.59
			C355.03,360.58,359.78,363.97,359.78,363.97z"/>
		<path style="fill:#33A048;" d="M355.83,306.43c2.36,8.44,0.34,13.92,0.34,13.92s-7-2.04-10.55-13.94
			c-1.89-6.36,0.99-12.52,0.99-12.52S353.46,297.92,355.83,306.43z"/>
		<path style="fill:#33A048;" d="M340.64,331.41c5.43,6.89,5.68,12.72,5.68,12.72s-0.24,0.03-0.69,0.01
			c-1.99-0.06-8-0.95-14.42-8.81c-2.04-2.51-3.02-5.4-3.48-7.71h9.06C338.12,328.64,339.44,329.88,340.64,331.41z"/>
		<path style="fill:#C8C8C8;" d="M122,114.97c-10.78-4.92-17.95-13.65-17.95-23.61c0-15.38,17.1-27.84,38.21-27.84
			c21.1,0,38.21,12.46,38.21,27.84c0,9.83-6.99,18.48-17.55,23.42c-5.96,2.81-13.05,4.43-20.66,4.43
			C134.81,119.21,127.87,117.66,122,114.97z"/>
		<path style="fill:#C8C8C8;" d="M162.92,520v260h-39.46L122,114.97c5.87,2.69,12.81,4.24,20.26,4.24c7.61,0,14.7-1.62,20.66-4.43
			v25.89v186.79V520z"/>
	</g>
	<g>
		<polyline style="fill:none;stroke:#231F20;stroke-width:7;" points="508,327.78 508.97,327.78 530.38,327.8 531.37,327.8 
			549.09,327.82 566.29,327.83 571.83,327.84 747.81,328 748,328 		"/>
		<polyline style="fill:none;stroke:#231F20;stroke-width:7;" points="160.74,327.46 162.92,327.46 327.73,327.62 336.79,327.62 
			362.88,327.65 381.14,327.67 384.69,327.67 394.77,327.68 396,327.68 		"/>
		<polyline style="fill:none;stroke:#231F20;stroke-width:21;" points="165.38,140.67 747.81,140.67 747.81,328 747.81,520.06 
			168,520 		"/>
		<path style="fill:none;stroke:#231F20;stroke-width:21;" d="M122,114.97c-10.78-4.92-17.95-13.65-17.95-23.61
			c0-15.38,17.1-27.84,38.21-27.84c21.1,0,38.21,12.46,38.21,27.84c0,9.83-6.99,18.48-17.55,23.42c-5.96,2.81-13.05,4.43-20.66,4.43
			C134.81,119.21,127.87,117.66,122,114.97z"/>
		<polyline style="fill:none;stroke:#231F20;stroke-width:21;" points="122,114 122,114.97 123.46,780 123.47,784.96 		"/>
		<polyline style="fill:none;stroke:#231F20;stroke-width:21;" points="162.92,112.97 162.92,114.78 162.92,140.67 162.92,327.46 
			162.92,520 162.92,780 162.92,784.96 		"/>
		<path style="fill:none;stroke:#231F20;stroke-width:6.9613;" d="M414.54,403.61c0,0-0.07-12.48,15.37-7.98
			c0.57,0.17,1.12,0.36,1.66,0.56c6.14,2.34,11.22,6.98,24.01,5.38"/>
		<path style="fill:none;stroke:#231F20;stroke-width:6.9613;" d="M490.76,414.47l2.391-9.56c0,0,0.229-0.15,0.699-0.42
			c1.99-1.17,8.25-4.53,18.15-7.11c12.19-3.19,17.7-5.52,17.7-5.52l-3.19,8.7l12.471,4.93c0,0-35.671-1.45-49.311,13.34
			L490.76,414.47z"/>
		<path style="fill:none;stroke:#231F20;stroke-width:6.9613;" d="M493.44,403.61c0,0,0.069-12.48-15.37-7.98
			c-6.58,1.92-10.32,6.83-22.48,5.88c-0.649-0.05-1.33-0.11-2.04-0.21c-0.04,0-0.09,0-0.14-0.01"/>
		<path style="fill:none;stroke:#231F20;stroke-width:6.9613;" d="M489.67,414.2c0,0-5.63-5.05-19.43,1.16
			c-8.7,3.91-16.25,4.06-16.25,4.06"/>
		<path style="fill:none;stroke:#231F20;stroke-width:6.9613;" d="M417.22,414.47l-2.39-9.56c0,0-0.65-0.43-1.92-1.11
			c-2.79-1.5-8.56-4.24-16.93-6.43c-12.19-3.19-17.7-5.51-17.7-5.51l3.19,8.7L369,405.49c0,0,35.68-1.45,49.31,13.34L417.22,414.47z
			"/>
		<path style="fill:none;stroke:#231F20;stroke-width:6.9613;" d="M418.31,414.2c0,0,5.63-5.06,19.43,1.15
			c8.7,3.92,16.25,4.06,16.25,4.06"/>
		<polyline style="fill:none;stroke:#231F20;stroke-width:6.9613;" points="438.61,351.03 447.26,340.9 447.53,340.59 		"/>
		<line style="fill:none;stroke:#231F20;stroke-width:6.9613;" x1="466.46" y1="347.77" x2="472.77" y2="342.77"/>
		<path style="fill:none;stroke:#231F20;stroke-width:13.9226;" d="M484.94,279.32c0,0-4.65,13.63-14.511,7.25
			c-9.85-6.38-0.569-17.7,4.65-18.57c2.27-0.38,5.37-0.27,8.82,0.48c11.439,2.43,26.76,11.71,28.739,32.75
			c0.33,3.4,0.301,7.11-0.149,11.15c-0.57,5.11-1.79,10.28-3.521,15.4c-2.529,7.46-6.13,14.84-10.359,21.86
			c-0.641,1.07-1.301,2.13-1.971,3.18c-3.699,5.81-7.79,11.34-12,16.43c-5.37,6.49-10.93,12.26-16.1,16.96
			c-5.521,5.03-10.61,8.83-14.55,11.01l-0.87-0.43c-13.33-6.66-34.15-25.44-48.03-47.89c-4.21-6.82-7.79-13.97-10.32-21.22
			c-1.84-5.27-3.13-10.59-3.72-15.88c-3.33-29.88,16.45-41.8,29.78-44.13c2.97-0.53,5.62-0.58,7.63-0.24
			c5.22,0.87,14.5,12.18,4.65,18.56c-9.86,6.38-14.51-7.25-14.51-7.25"/>
		<path style="fill:none;stroke:#231F20;stroke-width:6.9613;" d="M365.45,280.25c-0.63,0.23-0.98,0.31-0.98,0.31
			s-2.16-6.96,5.81-16.49c4.25-5.08,10.98-6.07,10.98-6.07s0.42,7.93-5.37,14.6c-4.31,4.96-8.57,6.96-10.43,7.65"/>
		<path style="fill:none;stroke:#231F20;stroke-width:6.9613;" d="M356.17,320.35c0,0-7-2.04-10.55-13.94
			c-1.89-6.36,0.99-12.52,0.99-12.52s6.85,4.03,9.22,12.54C358.19,314.87,356.17,320.35,356.17,320.35z"/>
		<path style="fill:none;stroke:#231F20;stroke-width:6.9613;" d="M371.81,319.42c0,0-4.67-5.61-0.95-17.46
			c1.99-6.32,7.83-9.82,7.83-9.82s3.42,7.18,0.62,15.55C376.54,316.01,371.81,319.42,371.81,319.42z"/>
		<path style="fill:none;stroke:#231F20;stroke-width:6.9613;" d="M384.69,327.67c0.81,2.74,1.71,7.79-0.16,13.37
			c-2.77,8.32-7.5,11.73-7.5,11.73s-0.04-0.04-0.1-0.13c-0.67-0.92-4.24-6.54-0.84-17.32c1.07-3.41,3.26-6,5.05-7.65
			c1.53-1.43,2.77-2.17,2.77-2.17S384.29,326.3,384.69,327.67z"/>
		<path style="fill:none;stroke:#231F20;stroke-width:6.9613;" d="M359.78,363.97c0,0-3.81,6.22-16.22,6.51
			c-6.63,0.15-11.82-4.25-11.82-4.25s5.7-5.55,14.52-5.59C355.03,360.58,359.78,363.97,359.78,363.97z"/>
		<path style="fill:none;stroke:#231F20;stroke-width:6.9613;" d="M366.03,376.99c0,0-1.12,7.21-12.46,12.26
			c-6.05,2.69-12.54,0.63-12.54,0.63s3.11-7.31,11.24-10.76C360.34,375.69,366.03,376.99,366.03,376.99z"/>
		<path style="fill:none;stroke:#231F20;stroke-width:6.9613;" d="M336.79,327.62c1.33,1.02,2.65,2.26,3.85,3.79
			c5.43,6.89,5.68,12.72,5.68,12.72s-0.24,0.03-0.69,0.01c-1.99-0.06-8-0.95-14.42-8.81c-2.04-2.51-3.02-5.4-3.48-7.71
			c-0.5-2.43-0.42-4.22-0.42-4.22S332.09,324.06,336.79,327.62z"/>
		<path style="fill:none;stroke:#231F20;stroke-width:6.9613;" d="M365.81,279.03c0,0-0.13,0.43-0.35,1.22h-0.01
			c-1.44,5.19-6.62,26.11-2.57,47.4c1.24,6.53,3.35,13.1,6.7,19.25c1.2,2.2,2.66,4.43,4.35,6.66c4.14,5.44,9.62,10.9,15.91,16.04
			c4.44,3.62,9.27,7.08,14.31,10.28c9.12,5.77,18.92,10.65,28.26,13.95c2.6,0.92,5.16,1.72,7.66,2.38"/>
		<path style="fill:none;stroke:#231F20;stroke-width:6.9613;" d="M345.22,343.42c0,0,0.14,0.26,0.41,0.72
			c2.21,3.81,13.08,21.64,23.95,24.23c13.53,3.22,18.66,1.94,20.26,1.23c0.45-0.2,0.62-0.36,0.62-0.36"/>
		<path style="fill:none;stroke:#231F20;stroke-width:6.9613;" d="M366.03,376.99c0,0,27.5-1.35,38.12,2.89
			c0.08,0.03,0.16,0.06,0.24,0.09"/>
		<path style="fill:none;stroke:#231F20;stroke-width:6.9613;" d="M543.08,279.9c0,0-7.04-3.4-12.03-9.08
			c-4.99-5.68-2.04-9.31,1.82-7.94c3.85,1.35,2.5-0.24,3.399-4.55c0.91-4.31,2.5-6.58,5.221-2.04c2.72,4.54,3.18,7.72,6.13,4.99
			c2.95-2.72,6.81-0.45,4.09,4.09C548.98,269.91,543.08,279.9,543.08,279.9z"/>
		<path style="fill:none;stroke:#231F20;stroke-width:6.9613;" d="M566.29,327.83c-5.15-2.25-14.61-6.33-14.61-6.33
			s2.49-7.42,7.5-13.08c1.84-2.08,3.53-3.07,4.9-3.28c2.36-0.37,3.75,1.55,3.21,4.09c-0.87,3.99,0.54,2.45,4.93,2.8
			c4.391,0.36,6.84,1.65,2.681,4.92c-4.16,3.27-7.261,4.13-4.181,6.71c1.601,1.34,1.891,3.1,1.11,4.18c-0.71,1-2.32,1.41-4.65,0.39
			C566.9,328.11,566.6,327.98,566.29,327.83z"/>
		<path style="fill:none;stroke:#231F20;stroke-width:6.9613;" d="M545.59,293.65c0,0,2.49-7.41,7.5-13.08
			c5-5.66,8.97-3.19,8.11,0.81c-0.87,4,0.54,2.45,4.92,2.81c4.399,0.35,6.85,1.65,2.689,4.92c-4.159,3.27-7.26,4.12-4.18,6.71
			c2.47,2.08,1.811,5.16-1.08,5.16c-0.689,0-1.52-0.18-2.46-0.6C556.24,298.25,545.59,293.65,545.59,293.65z"/>
		<path style="fill:none;stroke:#231F20;stroke-width:6.9613;" d="M539.55,301.33c0,0-7.25,2.93-14.81,2.82
			c-4.42-0.07-6.49-1.67-6.74-3.39c-0.17-1.21,0.58-2.48,2.07-3.29c3.609-1.94,1.51-2.01-1.08-5.57c-2.58-3.57-3.2-6.27,1.99-5.24
			c5.189,1.03,7.859,2.83,7.819-1.19c-0.04-4.01,4.23-5.36,5.771-0.29C536.1,290.25,539.55,301.33,539.55,301.33z"/>
		<path style="fill:none;stroke:#231F20;stroke-width:6.9613;" d="M537.24,347.75c0.02,0.09,0.029,0.13,0.029,0.13
			s-7.51,2.22-15.02,1.37c-1.4-0.16-2.55-0.45-3.46-0.82c-4-1.66-3.6-4.99-0.53-6.28c3.771-1.59,1.69-1.85-0.54-5.64
			c-2.22-3.81-2.58-6.56,2.49-5.03s7.55,3.57,7.9-0.43c0.159-1.81,1.14-2.99,2.27-3.25c0.32-0.08,0.66-0.08,0.99,0
			c1.06,0.26,2.08,1.36,2.51,3.53C534.86,336.2,536.98,346.48,537.24,347.75z"/>
		<path style="fill:none;stroke:#231F20;stroke-width:6.9613;" d="M516.58,373.81c0,0-7.8-0.63-14.5-4.13
			c-6.7-3.49-5.26-7.94-1.17-8.06s2.25-1.12,1.54-5.46c-0.391-2.37-0.37-4.25,0.41-4.94c0.64-0.58,1.819-0.33,3.72,1.15
			c4.17,3.25,5.75,6.05,7.52,2.44c0.73-1.49,1.91-2.24,2.99-2.24c1.521,0,2.82,1.52,2.29,4.58
			C518.48,362.37,516.58,373.81,516.58,373.81z"/>
		<path style="fill:none;stroke:#231F20;stroke-width:6.9613;" d="M544.07,351.65c0,0,5.05-5.98,11.79-9.4
			c6.739-3.43,9.52,0.33,7.25,3.73c-2.29,3.4-0.4,2.49,3.55,4.43c3.95,1.95,5.75,4.05,0.68,5.56c-5.08,1.51-8.27,1.16-6.359,4.7
			c1.899,3.53-1.25,6.71-4.971,2.94C552.28,359.84,544.07,351.65,544.07,351.65z"/>
		<path style="fill:none;stroke:#231F20;stroke-width:6.9613;" d="M524.24,370.63c0,0,7.54-2.04,15.029-1.03
			c7.49,1.01,7.641,5.69,3.841,7.19c-3.811,1.5-1.74,1.82,0.399,5.66c2.15,3.85,2.44,6.61-2.59,4.97c-5.04-1.65-7.47-3.75-7.91,0.25
			c-0.25,2.28-1.8,3.52-3.26,3.2c-1.08-0.25-2.11-1.38-2.5-3.61C526.33,382.04,524.24,370.63,524.24,370.63z"/>
		<path style="fill:none;stroke:#231F20;stroke-width:6.9613;" d="M542.45,280.48c0,0-0.38,6.01-0.42,13.15
			c-0.021,2.46,0,5.06,0.09,7.59c0.1,2.94,0.3,5.8,0.63,8.26c1.03,7.67,5.46,13.11,6.34,18.34c0.351,2.1,0.12,4.16-1.12,6.32
			c-3.7,6.42-6.359,9.47-6.529,13.81c-0.04,0.77,0.01,1.57,0.14,2.43c0.42,2.8-5.5,11.08-17.42,20.14
			c-2.16,1.64-4.521,3.31-7.08,4.98c-10.16,6.61-23.42,13.18-39.65,17.93c-3.87,1.14-7.92,2.17-12.13,3.07"/>
		<polyline style="fill:none;stroke:#231F20;stroke-width:6.9613;" points="484,268 488.39,260.46 500.39,239.87 496.87,239.59 
			485.6,238.71 480.38,228.56 465.88,232.04 453.98,221.02 441.22,232.04 426.72,228.56 421.5,238.71 411.12,239.52 406.71,239.87 
			417.76,261.62 420.83,267.67 421,268 		"/>
		<path style="fill:none;stroke:#231F20;stroke-width:6.9613;" d="M460.37,192.73c0,3.77-3.061,6.82-6.82,6.82s-6.81-3.05-6.81-6.82
			c0-3.76,3.05-6.81,6.81-6.81S460.37,188.97,460.37,192.73z"/>
		<path style="fill:none;stroke:#231F20;stroke-width:6.9613;" d="M411.06,238.71c0,0-10.44-17.4,4.64-22.62
			c12.3-4.26,34.12,0.71,37.56-15.19c0.05-0.25,0.101-0.51,0.15-0.77"/>
		<path style="fill:none;stroke:#231F20;stroke-width:6.9613;" d="M496.87,239.58c0,0,10.439-17.4-4.65-22.62
			c-12.489-4.33-34.8,0.87-37.7-15.96"/>
		<polyline style="fill:none;stroke:#231F20;stroke-width:6.9613;" points="420.05,260.46 488.39,260.46 488.5,260.46 		"/>
		<path style="fill:none;stroke:#231F20;stroke-width:6.9613;" d="M453.99,419.56c-0.44,0.29-15.66,19.86-15.66,19.86"/>
		<path style="fill:none;stroke:#231F20;stroke-width:6.9613;" d="M456.31,420.72c9.71,8.99,17.841,16.39,17.841,16.39"/>
		<polygon style="fill:none;stroke:#231F20;stroke-width:6.9613;" points="419.49,342.85 422.37,303.97 428.17,303.97 
			432.23,343.13 431.66,343.13 419.47,343.13 		"/>
		<polygon style="fill:none;stroke:#231F20;stroke-width:6.9613;" points="459.84,342.97 459.86,343.13 447.1,343.13 447.26,340.9 
			449.99,303.97 455.8,303.97 		"/>
		<polygon style="fill:none;stroke:#231F20;stroke-width:6.9613;" points="486.32,343.35 473.56,343.35 473.6,342.83 476.46,304.19 
			482.26,304.19 		"/>
		<path style="fill:none;stroke:#231F20;stroke-width:6.9613;" d="M410.11,347.34c0.66,0,8.27-4.57,8.27-4.57"/>
		<polyline style="fill:none;stroke:#231F20;stroke-width:6.9613;" points="430.78,342.11 431.66,343.13 438.54,351.09 
			465.59,382.36 		"/>
		<polyline style="fill:none;stroke:#231F20;stroke-width:6.9613;" points="458.84,341.9 459.84,342.97 465.32,348.83 
			483.64,368.44 		"/>
		<line style="fill:none;stroke:#231F20;stroke-width:6.9613;" x1="487.12" y1="343.2" x2="495.17" y2="351.9"/>
	</g>
</g>
<rect style="fill:none;" width="850.394" height="850.394"/>
</svg>
