<svg xmlns="http://www.w3.org/2000/svg" width="850.394" height="850.394" viewBox="0 0 850.394 850.394" overflow="visible"><path d="M162.61 114.42v670.96h-39.49L122 114.77c5.8 2.59 12.62 4.08 19.92 4.08 7.62 0 14.73-1.63 20.69-4.43z" fill="#c8c8c8"/><path d="M748.18 177.46v342.71H168.56l-3.49-379.83h583.11v37.12zM589.53 356.64l-14.08-23.74 9.25-26.01-26.94 6.06-21.87-16.83-2.56 27.48-22.78 15.61 25.351 10.93 7.81 26.48 18.23-20.74 27.589.76zM484.32 249.25l19.529-20.85-28.06-5.38L462 198l-13.79 25.02-28.06 5.38 19.53 20.85-3.54 28.35L462 265.47l25.86 12.13-3.54-28.35zm18.12 198.89l-18.87-20.149 3.42-27.39L462 412.32l-24.99-11.72 3.42 27.39-18.87 20.149 27.11 5.21L462 477.52l13.33-24.17 27.11-5.21zm-121.4-95.61l26.23-8.63-21.29-17.57-.1-27.6-23.29 14.81-26.29-8.44 6.9 26.73-16.15 22.4 27.55 1.7 16.31 22.28 10.13-25.68z" fill="#a8d7f4"/><path fill="#fff" d="M575.45 332.9l14.08 23.74-27.59-.76-18.23 20.74-7.81-26.48-25.35-10.93 22.78-15.61 2.56-27.48 21.87 16.83 26.94-6.06zM503.85 228.4l-19.53 20.85 3.54 28.35L462 265.47l-25.86 12.13 3.54-28.35-19.53-20.85 28.06-5.38L462 198l13.79 25.02zM483.57 427.99l18.87 20.15-27.11 5.21L462 477.52l-13.33-24.17-27.11-5.21 18.87-20.15-3.42-27.39L462 412.32l24.99-11.72zM407.27 343.9l-26.23 8.63-10.13 25.68-16.31-22.28-27.55-1.7 16.15-22.4-6.9-26.73 26.29 8.44 23.29-14.81.1 27.6z"/><path d="M122 114.77c-10.99-4.89-18.33-13.72-18.33-23.8 0-15.4 17.13-27.88 38.25-27.88 21.13 0 38.26 12.48 38.26 27.88 0 9.84-7 18.49-17.57 23.45-5.96 2.8-13.07 4.43-20.69 4.43-7.3 0-14.12-1.49-19.92-4.08z" fill="#c8c8c8"/><g fill="none" stroke="#231f20"><path stroke-width="21" d="M165.07 140.34h583.11v379.83H168.56M122 114.77c-10.99-4.89-18.33-13.72-18.33-23.8 0-15.4 17.13-27.88 38.25-27.88 21.13 0 38.26 12.48 38.26 27.88 0 9.84-7 18.49-17.57 23.45-5.96 2.8-13.07 4.43-20.69 4.43-7.3 0-14.12-1.49-19.92-4.08z"/><path stroke-width="21" d="M122 114v.77l1.12 670.61M162.61 112.6V785.38"/><path stroke-width="14" d="M744.76 179.39l3.42-1.93 2.01-1.14"/><path stroke-width="7" d="M362.59 313.54l23.29-14.81.1 27.6 21.29 17.57-26.23 8.63-10.13 25.68-16.31-22.28-27.55-1.7 16.15-22.4-6.9-26.73z"/><path stroke-width="7.244" d="M462 265.47l-25.86 12.13 3.54-28.35-19.53-20.85 28.06-5.38L462 198l13.79 25.02 28.06 5.38-19.53 20.85 3.54 28.35z"/><path stroke-width="7" d="M557.76 312.95l26.94-6.06-9.25 26.01 14.08 23.74-27.59-.76-18.23 20.74-7.81-26.48-25.35-10.93 22.78-15.61 2.56-27.48zM462 412.32l24.99-11.72-3.42 27.39 18.87 20.15-27.11 5.21L462 477.52l-13.33-24.17-27.11-5.21 18.87-20.15-3.42-27.39z"/></g><path fill="none" d="M0 0h850.394v850.394H0z"/></svg>