<?xml version="1.0" encoding="iso-8859-1"?>
<!-- Generator: Adobe Illustrator 12.0.1, SVG Export Plug-In . SVG Version: 6.00 Build 51448)  -->
<!DOCTYPE svg PUBLIC "-//W3C//DTD SVG 1.1//EN" "http://www.w3.org/Graphics/SVG/1.1/DTD/svg11.dtd" [
	<!ENTITY ns_svg "http://www.w3.org/2000/svg">
	<!ENTITY ns_xlink "http://www.w3.org/1999/xlink">
]>
<svg  version="1.1" id="Layer_1" xmlns="&ns_svg;" xmlns:xlink="&ns_xlink;" width="850.394" height="850.394"
	 viewBox="0 0 850.394 850.394" style="overflow:visible;enable-background:new 0 0 850.394 850.394;" xml:space="preserve">
<g id="XMLID_1_">
	<g>
		<polygon style="fill:#FFFFFF;" points="748.18,177.46 748.18,186.9 744.71,186.9 663.63,234.21 502.02,325.72 666.07,421.92 
			748.18,470.25 748.18,520.17 695.56,520.17 695.56,518.72 445.56,371.42 216.35,518.54 216.35,520.17 168.56,520.17 
			168.06,465.33 248.63,416.56 408.01,324.75 248.19,233.69 165.49,186.58 165.07,140.34 228.6,140.34 451.68,277.24 691.16,140.34 
			691.17,140.34 748.18,140.34 		"/>
		<polygon style="fill:#0071BC;" points="748.18,186.9 748.18,470.25 666.07,421.92 502.02,325.72 663.63,234.21 744.71,186.9 		"/>
		<polygon style="fill:#0071BC;" points="695.56,518.72 695.56,520.17 216.35,520.17 216.35,518.54 445.56,371.42 		"/>
		<polygon style="fill:#0071BC;" points="691.16,140.34 451.68,277.24 228.6,140.34 		"/>
		<polygon style="fill:#0071BC;" points="408.01,324.75 248.63,416.56 168.06,465.33 165.49,186.58 248.19,233.69 		"/>
		<path style="fill:#C8C8C8;" d="M162.61,114.42c-5.96,2.8-13.07,4.43-20.69,4.43c-7.3,0-14.12-1.49-19.92-4.08
			c-10.99-4.89-18.33-13.72-18.33-23.8c0-15.4,17.13-27.88,38.25-27.88c21.13,0,38.26,12.48,38.26,27.88
			C180.18,100.81,173.18,109.46,162.61,114.42z"/>
		<polygon style="fill:#C8C8C8;" points="165.49,186.58 168.06,465.33 162.61,468.63 162.61,184.94 		"/>
		<path style="fill:#C8C8C8;" d="M162.61,468.63v316.75h-39.49L122,114.77c5.8,2.59,12.62,4.08,19.92,4.08
			c7.62,0,14.73-1.63,20.69-4.43v70.52V468.63z"/>
	</g>
	<g>
		<polyline style="fill:none;stroke:#231F20;stroke-width:21;" points="691.17,140.34 748.18,140.34 748.18,177.46 748.18,186.9 
			748.18,470.25 748.18,520.17 695.56,520.17 216.35,520.17 168.56,520.17 		"/>
		<polyline style="fill:none;stroke:#231F20;stroke-width:21;" points="165.07,140.34 228.6,140.34 691.16,140.34 		"/>
		<path style="fill:none;stroke:#231F20;stroke-width:21;" d="M122,114.77c-10.99-4.89-18.33-13.72-18.33-23.8
			c0-15.4,17.13-27.88,38.25-27.88c21.13,0,38.26,12.48,38.26,27.88c0,9.84-7,18.49-17.57,23.45c-5.96,2.8-13.07,4.43-20.69,4.43
			C134.62,118.85,127.8,117.36,122,114.77z"/>
		<polyline style="fill:none;stroke:#231F20;stroke-width:21;" points="122,114 122,114.77 123.12,785.38 		"/>
		<polyline style="fill:none;stroke:#231F20;stroke-width:21;" points="162.61,112.6 162.61,114.42 162.61,184.94 162.61,468.63 
			162.61,785.38 		"/>
		<polyline style="fill:none;stroke:#231F20;stroke-width:14;" points="744.76,179.39 748.18,177.46 750.19,176.32 		"/>
		<polyline style="fill:none;stroke:#231F20;stroke-width:14;" points="751.15,472 748.18,470.25 666.07,421.92 502.02,325.72 
			663.63,234.21 744.71,186.9 		"/>
		<polyline style="fill:none;stroke:#231F20;stroke-width:14;" points="162.42,184.83 162.61,184.94 165.49,186.58 248.19,233.69 
			408.01,324.75 248.63,416.56 168.06,465.33 162.61,468.63 159.98,470.22 		"/>
		<polyline style="fill:none;stroke:#231F20;stroke-width:14;" points="216.35,518.54 445.56,371.42 695.56,518.72 		"/>
		<polyline style="fill:none;stroke:#231F20;stroke-width:14;" points="692.81,139.4 691.17,140.34 691.16,140.34 451.68,277.24 
			228.6,140.34 227.13,139.44 		"/>
	</g>
</g>
<rect style="fill:none;" width="850.394" height="850.394"/>
</svg>
