<svg xmlns="http://www.w3.org/2000/svg" width="850.394" height="850.394" viewBox="0 0 850.394 850.394" overflow="visible"><path d="M162.61 114.42v670.96h-39.49L122 114.77c5.8 2.59 12.62 4.08 19.92 4.08 7.62 0 14.73-1.63 20.69-4.43z" fill="#c8c8c8"/><path d="M748.18 177.46v342.71H168.56l-3.49-379.83h583.11v37.12zm-91.82 50.68L674.98 210l-25.73-3.74-11.5-23.31-11.5 23.31-25.73 3.74 18.62 18.14-4.399 25.62 23.01-12.09 23.01 12.09-4.401-25.62zM541.75 374.29l10.61-9.4-14.66-1.94-6.561-12.08-6.56 12.08-14.67 1.94 10.609 9.4-2.5 13.28 13.12-6.27 13.12 6.27-2.508-13.28zm-45.03 96.49l10.38-9.2-14.34-1.89-6.41-11.811-6.42 11.811-14.34 1.89 10.38 9.2-2.45 12.979 12.83-6.13 12.82 6.13-2.45-12.979zm-82.84-90.63l10.61-9.41-14.67-1.94-6.56-12.08-6.56 12.08-14.66 1.94 10.61 9.41-2.51 13.27 13.12-6.27 13.12 6.27-2.5-13.27zm-18 78l10.61-9.41-14.67-1.94-6.56-12.08-6.56 12.08-14.66 1.94 10.61 9.41-2.51 13.27 13.12-6.27 13.12 6.27-2.5-13.27zm-44.59-97.54l11.15-9.88-15.41-2.04-6.89-12.69-6.9 12.69-15.41 2.04 11.15 9.88-2.63 13.96 13.79-6.59 13.78 6.59-2.63-13.96zm-62.72-32.55l8.9-13.66-15.07-1.99-4.74-8.41-6.74 12.41-15.07 1.99 10.9 9.66-2.57 13.65 13.48-6.44 13.48 6.44-2.57-13.65zM224.9 312.8l11.23-9.96-15.52-2.05-6.95-12.79-6.94 12.79-15.53 2.05 11.23 9.96-2.65 14.06 13.89-6.64 13.89 6.64-2.65-14.06z" fill="#394ea1"/><path fill="#fbed24" d="M674.98 210l-18.62 18.14 4.4 25.62-23.01-12.09-23.01 12.09 4.4-25.62L600.52 210l25.73-3.74 11.5-23.31 11.5 23.31zM552.36 364.89l-10.61 9.4 2.51 13.28-13.12-6.27-13.12 6.27 2.5-13.28-10.61-9.4 14.67-1.94 6.56-12.08 6.56 12.08zM507.1 461.58l-10.38 9.2 2.45 12.98-12.82-6.13-12.83 6.13 2.45-12.98-10.38-9.2 14.34-1.89 6.42-11.81 6.41 11.81zM424.49 370.74l-10.61 9.41 2.5 13.27-13.12-6.27-13.12 6.27 2.51-13.27-10.61-9.41 14.66-1.94 6.56-12.08 6.56 12.08zM406.49 448.74l-10.61 9.41 2.5 13.27-13.12-6.27-13.12 6.27 2.51-13.27-10.61-9.41 14.66-1.94 6.56-12.08 6.56 12.08zM362.44 350.73l-11.15 9.88 2.63 13.96-13.78-6.59-13.79 6.59 2.63-13.96-11.15-9.88 15.41-2.04 6.9-12.69 6.89 12.69zM297.47 314.4l-8.9 13.66 2.57 13.65-13.48-6.44-13.48 6.44 2.57-13.65-10.9-9.66 15.07-1.99 6.74-12.41 4.74 8.41zM236.13 302.84l-11.23 9.96 2.65 14.06-13.89-6.64-13.89 6.64 2.65-14.06-11.23-9.96 15.53-2.05 6.94-12.79 6.95 12.79z"/><path d="M122 114.77c-10.99-4.89-18.33-13.72-18.33-23.8 0-15.4 17.13-27.88 38.25-27.88 21.13 0 38.26 12.48 38.26 27.88 0 9.84-7 18.49-17.57 23.45-5.96 2.8-13.07 4.43-20.69 4.43-7.3 0-14.12-1.49-19.92-4.08z" fill="#c8c8c8"/><g fill="none" stroke="#231f20"><path stroke-width="21" d="M165.07 140.34h583.11v379.83H168.56M122 114.77c-10.99-4.89-18.33-13.72-18.33-23.8 0-15.4 17.13-27.88 38.25-27.88 21.13 0 38.26 12.48 38.26 27.88 0 9.84-7 18.49-17.57 23.45-5.96 2.8-13.07 4.43-20.69 4.43-7.3 0-14.12-1.49-19.92-4.08z"/><path stroke-width="21" d="M122 114v.77l1.12 670.61M162.61 112.6V785.38"/><path stroke-width="14" d="M744.76 179.39l3.42-1.93 2.01-1.14"/><path stroke-width="6.817" d="M637.75 241.67l-23.01 12.09 4.4-25.62L600.52 210l25.73-3.74 11.5-23.31 11.5 23.31 25.73 3.74-18.62 18.14 4.4 25.62z"/><path stroke-width="3.624" d="M486.35 477.63l-12.83 6.13 2.45-12.98-10.38-9.2 14.34-1.89 6.42-11.81 6.41 11.81 14.34 1.89-10.38 9.2 2.45 12.98z"/><path stroke-width="3.505" d="M385.26 465.15l-13.12 6.27 2.51-13.27-10.61-9.41 14.66-1.94 6.56-12.08 6.56 12.08 14.67 1.94-10.61 9.41 2.5 13.27zM403.26 387.15l-13.12 6.27 2.51-13.27-10.61-9.41 14.66-1.94 6.56-12.08 6.56 12.08 14.67 1.94-10.61 9.41 2.5 13.27z"/><path stroke-width="4" d="M531.14 381.3l-13.12 6.27 2.5-13.28-10.61-9.4 14.67-1.94 6.56-12.08 6.56 12.08 14.66 1.94-10.61 9.4 2.51 13.28z"/><path stroke-width="4.204" d="M340.14 367.98l-13.79 6.59 2.63-13.96-11.15-9.88 15.41-2.04 6.9-12.69 6.89 12.69 15.41 2.04-11.15 9.88 2.63 13.96z"/><path stroke-width="4.11" d="M277.66 335.27l-13.48 6.44 2.57-13.65-10.9-9.66 15.07-1.99 6.74-12.41 4.74 8.41 15.07 1.99-8.9 13.66 2.57 13.65z"/><path stroke-width="4.235" d="M213.66 320.22l-13.89 6.64 2.65-14.06-11.23-9.96 15.53-2.05 6.94-12.79 6.95 12.79 15.52 2.05-11.23 9.96 2.65 14.06z"/></g><path fill="none" d="M0 0h850.394v850.394H0z"/></svg>