<?xml version="1.0" encoding="iso-8859-1"?>
<!-- Generator: Adobe Illustrator 12.0.1, SVG Export Plug-In . SVG Version: 6.00 Build 51448)  -->
<!DOCTYPE svg PUBLIC "-//W3C//DTD SVG 1.1//EN" "http://www.w3.org/Graphics/SVG/1.1/DTD/svg11.dtd" [
	<!ENTITY ns_svg "http://www.w3.org/2000/svg">
	<!ENTITY ns_xlink "http://www.w3.org/1999/xlink">
]>
<svg  version="1.1" id="Layer_1" xmlns="&ns_svg;" xmlns:xlink="&ns_xlink;" width="850.89" height="850.89"
	 viewBox="0 0 850.89 850.89" style="overflow:visible;enable-background:new 0 0 850.89 850.89;" xml:space="preserve">
<g>
	<g id="XMLID_2_">
		<g>
			<path style="fill:#394EA1;" d="M655.35,220.18c-3.33,3.58-5.77,8.05-10.92,9.82c-2.27-2.14-9.18-5.32-10.92-4.37
				c2.561,3.27,4.32,7.33,6.55,10.92c-2.109,4.45-6.06,7.05-8.739,10.93c5.18-0.29,8.42-2.51,14.199-2.19
				c2.03,3.79,3.53,8.12,6.561,10.92c0.74-3.99,1.52-7.94,1.09-13.1c3.99-1.84,11.1-0.55,13.1-4.37
				c-4.229-1.59-8.72-2.93-12.01-5.46C655.87,230.85,655.71,221.03,655.35,220.18z M464.18,230.85v-16.29v-44.24v-19.26v-4.45
				h-11.12h-12.04h-85.24v-2.36v-3.66h392.65v37.12v342.71H168.81l-1.57-170.86l3.01-0.03l0.88-0.54l2.41,3.89h15.77h9.02h80.97
				h2.19h11.85h47.4h15.04h82.24h26.16v-3.35v-10.86v-7.6v-41.28V273.5V230.85z M726.34,341.4c-4.67-1.88-9.83-3.27-13.1-6.55
				c1.62-2.43,1.45-12.32,1.09-13.11c-3.32,3.6-6.08,7.76-9.83,10.92c-2.76-2.01-8.95-6.29-12.01-4.36
				c2.7,3.11,4.979,6.66,6.55,10.92c-2.25,3.93-6.49,5.89-8.74,9.83c6.101,0.64,8.42-2.51,14.2-2.19c1.38,4.81,4.16,8.22,6.55,12.02
				c-0.25-5.36,1.931-8.27,1.09-14.2C716.9,343.61,722.53,343.42,726.34,341.4z M720.88,292.25c-4.729,0-9.46,0-14.2,0
				c-0.77-5.04-2.199-9.44-4.359-13.1c-2.301,3.89-2.28,10.1-5.471,13.1c-3.67,0.7-10.14-1.4-12.01,1.1
				c3.21,2.98,8.44,3.94,9.83,8.73c0.09,4.14-4.96,8.81-2.18,12.02c2.84-3.35,6-6.38,10.92-7.65c3.52,1.61,7.93,8.04,10.92,6.56
				c-2.16-3.67-3.59-8.06-4.37-13.11C714.17,297.92,717.58,295.14,720.88,292.25z M697.95,386.18c3.7,0.71,10.68,3.82,13.1,2.19
				c-3.83-2.72-6.87-6.24-8.729-10.93c0.81-3.6,6.84-7.66,4.359-10.92c-3.859,1.96-7.449,4.2-12.01,5.46
				c-1.41-4.77-5.51-6.86-8.74-9.83c0.28,4.82,1.75,8.45,1.09,14.2c-5.25,0.57-8.56,3.08-12.01,5.46c4.83,0.27,7.96,2.24,13.11,2.19
				c1.78,3.68-0.09,11,2.18,14.19C693.07,394.41,694.32,389.1,697.95,386.18z M685.93,269.32c3.65,0.04,8.851,4.18,12.021,1.09
				c-3.83-2.36-6.36-6.02-8.74-9.83c3.021-2.8,4.521-7.13,6.55-10.92c-4.51,0.95-7.5,3.42-12.01,4.37c-3.94-2.25-5.9-6.49-9.83-8.74
				c-0.86,5.59,1.53,7.93,1.09,13.11c-3.609,2.58-9.819,2.55-12.01,6.55c4.86,0.6,10.06,0.86,13.1,3.28
				c0.45,4.65,0.511,9.69,2.19,13.1C680.52,277.02,681.88,271.82,685.93,269.32z M684.84,403.66c-4.729,0-9.47,0-14.2,0
				c-2.38-3.45-1.729-9.92-5.46-12.02c-0.77,4.69-1.779,9.14-4.37,12.02c-4.029,0.69-10.88-1.42-13.1,1.09
				c3.58,3.33,9.4,4.43,10.92,9.83c-0.54,3.15-4.81,8.23-2.189,10.92c2.479-3.35,6.899-4.76,9.829-7.65
				c3.53,2.67,6.811,5.58,10.921,7.65c-0.141-4.95-2.671-7.52-3.271-12.01C676,408.65,682.49,408.22,684.84,403.66z M633.51,432.05
				c5.21-0.609,10.51-1.14,14.2-3.27c-4.49-2.07-10.28-2.83-13.11-6.56c0.761-2.58,2.53-9.77,0-12.01
				c-2.83,3.36-4.75,7.62-8.739,9.83c-2.721-2.05-9.29-5.95-12.011-4.37c2.58,3.24,4.641,7.01,6.551,10.92
				c-1.341,4.15-9.87,6.84-7.641,10.92c3.26-2.189,8.641-2.279,13.101-3.27c1.159,5.029,4.069,8.31,6.56,12.01
				C632.16,440.9,634.34,437.98,633.51,432.05z M624.77,223.45c-4.369,0-8.739,0-13.1,0c-0.62-4.84-3.54-7.39-3.28-13.11
				c-5.149,1.04-2.14,10.24-6.56,12.02c-4,0-8,0-12.01,0c1.05,5.86,9.029,4.8,9.83,10.92c-0.971,3.44-4.591,9.91-3.28,12.01
				c3.11-3.08,6.27-6.11,10.93-7.64c4.59,1.23,6.48,5.16,10.92,6.55c-0.149-4.95-2.68-7.52-3.279-12.01
				C617.07,228.13,622.37,227.24,624.77,223.45z M602.93,437.51c-1.3-5.62-7.33-6.5-8.739-12.01c2.579-3.24,4.64-7.01,6.55-10.92
				c-4.71,1.47-8.79,3.59-13.101,5.46c-2.38-3.81-4.909-7.47-8.739-9.83c-0.73,5.47,1.01,8.45,1.09,13.1
				c-3.82,2.73-9.84,3.27-13.101,6.56c5.2,0.61,10.5,1.14,14.19,3.27c0.07,5.04,0.51,9.69,2.189,13.11
				c2.24-4.32,3.591-9.51,7.641-12.01C594.25,436,599.79,435.56,602.93,437.51z M570.16,245.29c4.859-0.81,10.06,3.71,13.109,1.09
				c-3.76-2.79-7.239-5.87-8.739-10.92c1.779-2.99,6.83-8.41,5.46-10.92c-3.29,2.54-7.771,3.87-12.01,5.46
				c-3.051-3.5-5.931-7.18-9.83-9.83c1.81,3.66,0.38,10.55,2.18,14.2c-4.55,1.64-10.29,2.09-12.01,6.55
				c5.08,0.39,10.449,0.47,13.1,3.28c-0.03,4.77-0.4,9.87,2.19,12.01C565.52,252.3,566.9,247.85,570.16,245.29z M566.89,403.66
				c-4.739,0-9.47,0-14.199,0c-1.32-4.14-2.12-8.81-4.37-12.02c-2.301,3.89-2.271,10.11-5.46,13.11c-4.11,0.42-9.87-3.17-13.11,0
				c4.05,2.87,9.41,4.42,10.92,9.83c-0.47,3.21-4.16,8.86-2.18,10.92c3.52-2.67,6.8-5.58,10.92-7.65c2.67,3.89,7.21,5.9,10.92,8.74
				c-1.08-5.11-3.28-9.09-4.37-14.2C559.68,409.55,564.22,407.54,566.89,403.66z M538.49,267.13c4.859-0.6,10.06-0.86,13.109-3.27
				c-3.609-2.58-9.819-2.56-12.02-6.55c-0.62-3.96,3.24-9.06,0-12.02c-2.76,3.42-5.71,6.67-8.74,9.83
				c-3.06-1.7-9.25-5.98-12.01-4.37c2.56,3.26,4.33,7.33,6.55,10.92c-3.54,2.65-5.71,6.66-8.729,9.83c5.29,0.2,8.75-1.44,13.1-2.18
				c2.98,3.58,4.19,8.92,7.65,12.01C536.56,275.4,539.13,272.87,538.49,267.13z M527.57,384c4.76-0.33,9.06-1.14,12.01-3.28
				c-4.24-1.59-8.72-2.92-12.01-5.46c-1.54-5.23,3.149-9.89,0-13.11c-2.771,3.42-5.71,6.67-8.74,9.83
				c-3.59-2.23-8.25-3.4-12.01-5.46c0.67,5.15,4.949,6.7,5.46,12.02c-1.601,4.95-6.37,6.74-8.74,10.92
				c4.38-1.45,10.14-1.51,14.2-3.28c2.37,4.19,3.83,9.28,7.64,12.01C525.3,392.65,525.13,387.01,527.57,384z M530.84,292.25
				c-4.729,0-9.46,0-14.189,0c-2.67-3.52-1.41-10.96-5.46-13.1c-0.931,4.9-1.46,10.19-4.37,13.1c-4.04,0.7-10.88-1.41-13.11,1.1
				c4.64,1.55,7.33,5.04,10.92,7.64c-0.37,4.4-4.71,10.52-3.27,13.11c3.52-2.67,6.8-5.58,10.92-7.65c3.76,2.43,7.45,4.93,10.92,7.65
				c-0.07-5.39-3.21-7.72-3.28-13.11C522.75,297.26,527.55,295.52,530.84,292.25z M511.19,346.86c3.93,0.12,9.79,3.98,13.1,1.1
				c-3.23-2.97-7.32-5.06-8.74-9.83c2.59-3.25,4.65-7.01,6.561-10.93c-4.811,1.38-9.021,3.37-13.11,5.46
				c-2.83-3.35-4.75-7.62-8.74-9.83c-0.43,5.17,0.36,9.12,1.101,13.11c-4.101,2.46-9.88,3.23-13.11,6.55
				c5.21,0.62,10.51,1.15,14.2,3.28c-0.13,5.23,0.31,9.88,2.18,13.11C506.01,354.07,508.79,350.66,511.19,346.86z"/>
			<path style="fill:#FFFFFF;" d="M713.24,334.85c3.27,3.28,8.43,4.67,13.1,6.55c-3.81,2.02-9.439,2.21-14.2,3.28
				c0.841,5.93-1.34,8.84-1.09,14.2c-2.39-3.8-5.17-7.21-6.55-12.02c-5.78-0.32-8.1,2.83-14.2,2.19c2.25-3.94,6.49-5.9,8.74-9.83
				c-1.57-4.26-3.85-7.81-6.55-10.92c3.06-1.93,9.25,2.35,12.01,4.36c3.75-3.16,6.51-7.32,9.83-10.92
				C714.69,322.53,714.86,332.42,713.24,334.85z"/>
			<path style="fill:#FFFFFF;" d="M706.68,292.25c4.74,0,9.471,0,14.2,0c-3.3,2.89-6.71,5.67-10.92,7.65
				c0.78,5.05,2.21,9.44,4.37,13.11c-2.99,1.48-7.4-4.95-10.92-6.56c-4.92,1.27-8.08,4.3-10.92,7.65
				c-2.78-3.21,2.27-7.88,2.18-12.02c-1.39-4.79-6.62-5.75-9.83-8.73c1.87-2.5,8.34-0.4,12.01-1.1c3.19-3,3.17-9.21,5.471-13.1
				C704.48,282.81,705.91,287.21,706.68,292.25z"/>
			<path style="fill:#FFFFFF;" d="M711.05,388.37c-2.42,1.63-9.399-1.48-13.1-2.19c-3.63,2.92-4.88,8.23-7.65,12.01
				c-2.27-3.19-0.399-10.51-2.18-14.19c-5.15,0.05-8.28-1.92-13.11-2.19c3.45-2.38,6.76-4.89,12.01-5.46
				c0.66-5.75-0.81-9.38-1.09-14.2c3.23,2.97,7.33,5.06,8.74,9.83c4.561-1.26,8.15-3.5,12.01-5.46c2.48,3.26-3.55,7.32-4.359,10.92
				C704.18,382.13,707.22,385.65,711.05,388.37z"/>
			<path style="fill:#FFFFFF;" d="M697.95,270.41c-3.17,3.09-8.37-1.05-12.021-1.09c-4.05,2.5-5.41,7.7-7.64,12.01
				c-1.68-3.41-1.74-8.45-2.19-13.1c-3.04-2.42-8.239-2.68-13.1-3.28c2.19-4,8.4-3.97,12.01-6.55c0.44-5.18-1.95-7.52-1.09-13.11
				c3.93,2.25,5.89,6.49,9.83,8.74c4.51-0.95,7.5-3.42,12.01-4.37c-2.029,3.79-3.529,8.12-6.55,10.92
				C691.59,264.39,694.12,268.05,697.95,270.41z"/>
			<path style="fill:#FFFFFF;" d="M670.64,403.66c4.73,0,9.471,0,14.2,0c-2.35,4.56-8.84,4.99-10.92,9.83
				c0.6,4.49,3.13,7.06,3.271,12.01c-4.11-2.07-7.391-4.98-10.921-7.65c-2.93,2.89-7.35,4.3-9.829,7.65
				c-2.62-2.69,1.649-7.77,2.189-10.92c-1.52-5.4-7.34-6.5-10.92-9.83c2.22-2.51,9.07-0.4,13.1-1.09
				c2.591-2.88,3.601-7.33,4.37-12.02C668.91,393.74,668.26,400.21,670.64,403.66z"/>
			<path style="fill:#FFFFFF;" d="M654.26,233.28c3.29,2.53,7.78,3.87,12.01,5.46c-2,3.82-9.109,2.53-13.1,4.37
				c0.43,5.16-0.35,9.11-1.09,13.1c-3.03-2.8-4.53-7.13-6.561-10.92c-5.779-0.32-9.02,1.9-14.199,2.19
				c2.68-3.88,6.63-6.48,8.739-10.93c-2.229-3.59-3.989-7.65-6.55-10.92c1.74-0.95,8.65,2.23,10.92,4.37
				c5.15-1.77,7.59-6.24,10.92-9.82C655.71,221.03,655.87,230.85,654.26,233.28z"/>
			<path style="fill:#FFFFFF;" d="M647.71,428.78c-3.69,2.13-8.99,2.66-14.2,3.27c0.83,5.931-1.35,8.851-1.09,14.2
				c-2.49-3.7-5.4-6.98-6.56-12.01c-4.46,0.99-9.841,1.08-13.101,3.27c-2.229-4.08,6.3-6.77,7.641-10.92
				c-1.91-3.91-3.971-7.68-6.551-10.92c2.721-1.58,9.29,2.32,12.011,4.37c3.989-2.21,5.909-6.47,8.739-9.83
				c2.53,2.24,0.761,9.43,0,12.01C637.43,425.95,643.22,426.71,647.71,428.78z"/>
			<path style="fill:#FFFFFF;" d="M611.67,223.45c4.36,0,8.73,0,13.1,0c-2.399,3.79-7.699,4.68-9.829,8.74
				c0.6,4.49,3.13,7.06,3.279,12.01c-4.439-1.39-6.33-5.32-10.92-6.55c-4.66,1.53-7.819,4.56-10.93,7.64
				c-1.311-2.1,2.31-8.57,3.28-12.01c-0.801-6.12-8.78-5.06-9.83-10.92c4.01,0,8.01,0,12.01,0c4.42-1.78,1.41-10.98,6.56-12.02
				C608.13,216.06,611.05,218.61,611.67,223.45z"/>
			<path style="fill:#FFFFFF;" d="M594.19,425.5c1.409,5.51,7.439,6.39,8.739,12.01c-3.14-1.95-8.68-1.51-12.02-3.27
				c-4.05,2.5-5.4,7.689-7.641,12.01c-1.68-3.42-2.119-8.07-2.189-13.11c-3.69-2.13-8.99-2.659-14.19-3.27
				c3.261-3.29,9.28-3.83,13.101-6.56c-0.08-4.65-1.82-7.63-1.09-13.1c3.83,2.36,6.359,6.02,8.739,9.83
				c4.311-1.87,8.391-3.99,13.101-5.46C598.83,418.49,596.77,422.26,594.19,425.5z"/>
			<path style="fill:#FFFFFF;" d="M583.27,246.38c-3.05,2.62-8.25-1.9-13.109-1.09c-3.26,2.56-4.641,7.01-6.55,10.92
				c-2.591-2.14-2.221-7.24-2.19-12.01c-2.65-2.81-8.02-2.89-13.1-3.28c1.72-4.46,7.46-4.91,12.01-6.55
				c-1.8-3.65-0.37-10.54-2.18-14.2c3.899,2.65,6.779,6.33,9.83,9.83c4.239-1.59,8.72-2.92,12.01-5.46
				c1.37,2.51-3.681,7.93-5.46,10.92C576.03,240.51,579.51,243.59,583.27,246.38z"/>
			<path style="fill:#FFFFFF;" d="M552.69,403.66c4.729,0,9.46,0,14.199,0c-2.67,3.88-7.21,5.89-10.93,8.73
				c1.09,5.11,3.29,9.09,4.37,14.2c-3.71-2.84-8.25-4.85-10.92-8.74c-4.12,2.07-7.4,4.98-10.92,7.65
				c-1.98-2.06,1.71-7.71,2.18-10.92c-1.51-5.41-6.87-6.96-10.92-9.83c3.24-3.17,9,0.42,13.11,0c3.189-3,3.159-9.22,5.46-13.11
				C550.57,394.85,551.37,399.52,552.69,403.66z"/>
			<path style="fill:#FFFFFF;" d="M551.6,263.86c-3.05,2.41-8.25,2.67-13.109,3.27c0.64,5.74-1.931,8.27-1.09,14.2
				c-3.46-3.09-4.67-8.43-7.65-12.01c-4.35,0.74-7.81,2.38-13.1,2.18c3.02-3.17,5.189-7.18,8.729-9.83
				c-2.22-3.59-3.99-7.66-6.55-10.92c2.76-1.61,8.95,2.67,12.01,4.37c3.03-3.16,5.98-6.41,8.74-9.83c3.24,2.96-0.62,8.06,0,12.02
				C541.78,261.3,547.99,261.28,551.6,263.86z"/>
			<path style="fill:#FFFFFF;" d="M539.58,380.72c-2.95,2.14-7.25,2.95-12.01,3.28c-2.44,3.01-2.271,8.65-2.19,14.19
				c-3.81-2.73-5.27-7.82-7.64-12.01c-4.061,1.77-9.82,1.83-14.2,3.28c2.37-4.18,7.14-5.97,8.74-10.92
				c-0.511-5.32-4.79-6.87-5.46-12.02c3.76,2.06,8.42,3.23,12.01,5.46c3.03-3.16,5.97-6.41,8.74-9.83c3.149,3.22-1.54,7.88,0,13.11
				C530.86,377.8,535.34,379.13,539.58,380.72z"/>
			<path style="fill:#FFFFFF;" d="M516.65,292.25c4.729,0,9.46,0,14.189,0c-3.29,3.27-8.09,5.01-10.92,8.74
				c0.07,5.39,3.21,7.72,3.28,13.11c-3.47-2.72-7.16-5.22-10.92-7.65c-4.12,2.07-7.4,4.98-10.92,7.65
				c-1.44-2.59,2.899-8.71,3.27-13.11c-3.59-2.6-6.28-6.09-10.92-7.64c2.23-2.51,9.07-0.4,13.11-1.1c2.91-2.91,3.439-8.2,4.37-13.1
				C515.24,281.29,513.98,288.73,516.65,292.25z"/>
			<path style="fill:#FFFFFF;" d="M524.29,347.96c-3.31,2.88-9.17-0.98-13.1-1.1c-2.4,3.8-5.181,7.21-6.561,12.02
				c-1.87-3.23-2.31-7.88-2.18-13.11c-3.69-2.13-8.99-2.66-14.2-3.28c3.23-3.32,9.01-4.09,13.11-6.55
				c-0.74-3.99-1.53-7.94-1.101-13.11c3.99,2.21,5.91,6.48,8.74,9.83c4.09-2.09,8.3-4.08,13.11-5.46
				c-1.91,3.92-3.971,7.68-6.561,10.93C516.97,342.9,521.06,344.99,524.29,347.96z"/>
			<polygon style="fill:#FFFFFF;" points="464.18,349.53 464.18,352.88 438.02,352.88 438.02,351.7 355.78,297.4 355.78,289.79 
				371.44,289.79 461.08,349.53 			"/>
			<polygon style="fill:#ED1E29;" points="464.18,338.67 464.18,349.53 461.08,349.53 371.44,289.79 390.43,289.79 461.08,338.67 
							"/>
			<polygon style="fill:#FFFFFF;" points="464.18,331.07 464.18,338.67 461.08,338.67 390.43,289.79 402.52,289.79 464.09,331.07 
							"/>
			<polygon style="fill:#394EA1;" points="464.18,289.79 464.18,331.07 464.09,331.07 402.52,289.79 464.09,289.79 			"/>
			<polygon style="fill:#FFFFFF;" points="390.43,289.79 371.44,289.79 355.78,289.79 355.78,297.4 355.78,351.7 355.78,352.88 
				340.74,352.88 340.74,350.62 340.74,273.5 464.09,273.5 464.18,273.5 464.18,289.79 464.09,289.79 402.52,289.79 			"/>
			<polygon style="fill:#ED1E29;" points="464.18,230.85 464.18,273.5 464.09,273.5 340.74,273.5 340.74,350.62 340.74,352.88 
				293.34,352.88 293.34,352.79 293.34,272.42 170.25,272.42 166.53,272.45 166.16,231.98 170.25,231.94 291.33,231.94 
				291.33,146.61 340.74,146.61 340.74,230.85 			"/>
			<polygon style="fill:#FFFFFF;" points="376.24,214.56 399.91,214.56 464.18,214.56 464.18,230.85 340.74,230.85 340.74,146.61 
				355.78,146.61 355.78,207.25 355.78,214.56 360.79,214.56 			"/>
			<polygon style="fill:#394EA1;" points="464.18,170.32 464.18,214.56 399.91,214.56 399.91,213.76 464.09,170.32 			"/>
			<polygon style="fill:#FFFFFF;" points="464.18,151.06 464.18,170.32 464.09,170.32 399.91,213.76 399.91,214.56 376.24,214.56 
							"/>
			<polygon style="fill:#ED1E29;" points="464.18,146.61 464.18,151.06 376.24,214.56 360.79,214.56 360.79,213.76 453.06,147.51 
				453.06,146.61 			"/>
			<polygon style="fill:#FFFFFF;" points="453.06,146.61 453.06,147.51 360.79,213.76 360.79,214.56 355.78,214.56 355.78,207.25 
				356.78,207.25 441.02,147.51 441.02,146.61 			"/>
			<polygon style="fill:#394EA1;" points="441.02,146.61 441.02,147.51 356.78,207.25 355.78,207.25 355.78,146.61 			"/>
			<polygon style="fill:#394EA1;" points="438.02,351.7 438.02,352.88 355.78,352.88 355.78,351.7 355.78,297.4 			"/>
			<polygon style="fill:#FFFFFF;" points="340.74,146.61 291.33,146.61 276.29,146.61 276.29,144.25 276.29,140.59 355.78,140.59 
				355.78,144.25 355.78,146.61 			"/>
			<polygon style="fill:#FFFFFF;" points="244.69,287.62 169.25,287.62 166.67,287.64 166.53,272.45 170.25,272.42 293.34,272.42 
				293.34,352.79 293.34,352.88 281.49,352.88 279.3,352.88 279.3,351.7 279.3,302.83 279.3,293.76 279.3,287.62 268.53,287.62 			
				"/>
			<polygon style="fill:#FFFFFF;" points="243.08,215.65 258.5,215.65 276.29,215.65 276.29,209.42 276.29,146.61 291.33,146.61 
				291.33,231.94 170.25,231.94 166.16,231.98 166.01,215.69 170.25,215.65 228.42,215.65 			"/>
			<polygon style="fill:#394EA1;" points="279.3,351.7 279.3,352.88 198.33,352.88 198.33,352.79 277.56,302.83 279.3,302.83 			"/>
			<polygon style="fill:#FFFFFF;" points="279.3,293.76 279.3,302.83 277.56,302.83 198.33,352.79 198.33,352.88 189.31,352.88 
				189.31,350.62 278.62,293.76 			"/>
			<polygon style="fill:#ED1E29;" points="279.3,287.62 279.3,293.76 278.62,293.76 189.31,350.62 189.31,352.88 173.54,352.88 
				171.13,348.99 268.53,288.71 268.53,287.62 			"/>
			<polygon style="fill:#FFFFFF;" points="276.29,209.42 276.29,215.65 258.5,215.65 258.5,214.85 171.79,146.61 199.34,146.61 
				199.34,147.51 275.55,209.42 			"/>
			<polygon style="fill:#394EA1;" points="276.29,146.61 276.29,209.42 275.55,209.42 199.34,147.51 199.34,146.61 			"/>
			<polygon style="fill:#ED1E29;" points="276.29,144.25 276.29,146.61 199.34,146.61 171.79,146.61 258.5,214.85 258.5,215.65 
				243.08,215.65 171.26,160.54 165.5,160.59 165.32,140.59 276.29,140.59 			"/>
			<polygon style="fill:#FFFFFF;" points="268.53,287.62 268.53,288.71 171.13,348.99 170.25,349.53 167.24,349.56 167.08,332.19 
				171.26,332.15 244.69,287.62 			"/>
			<polygon style="fill:#394EA1;" points="244.69,287.62 171.26,332.15 167.08,332.19 166.67,287.64 169.25,287.62 			"/>
			<polygon style="fill:#FFFFFF;" points="243.08,215.65 228.42,215.65 228.42,214.85 171.26,170.32 165.59,170.37 165.5,160.59 
				171.26,160.54 			"/>
			<polygon style="fill:#394EA1;" points="228.42,214.85 228.42,215.65 170.25,215.65 166.01,215.69 165.59,170.37 171.26,170.32 
							"/>
			<path style="fill:#C8C8C8;" d="M162.86,114.67c-5.96,2.8-13.07,4.43-20.69,4.43c-7.3,0-14.12-1.49-19.92-4.08
				c-10.99-4.89-18.33-13.72-18.33-23.8c0-15.4,17.13-27.88,38.25-27.88c21.13,0,38.26,12.48,38.26,27.88
				C180.43,101.06,173.43,109.71,162.86,114.67z"/>
			<path style="fill:#C8C8C8;" d="M162.86,114.67v670.96h-39.49l-1.12-670.61c5.8,2.59,12.62,4.08,19.92,4.08
				C149.79,119.1,156.9,117.47,162.86,114.67z"/>
		</g>
		<g>
			<polyline style="fill:none;stroke:#231F20;stroke-width:21;" points="165.32,140.59 276.29,140.59 355.78,140.59 748.43,140.59 
				748.43,177.71 748.43,520.42 168.81,520.42 			"/>
			<path style="fill:none;stroke:#231F20;stroke-width:21;" d="M122.25,115.02c-10.99-4.89-18.33-13.72-18.33-23.8
				c0-15.4,17.13-27.88,38.25-27.88c21.13,0,38.26,12.48,38.26,27.88c0,9.84-7,18.49-17.57,23.45c-5.96,2.8-13.07,4.43-20.69,4.43
				C134.87,119.1,128.05,117.61,122.25,115.02z"/>
			<polyline style="fill:none;stroke:#231F20;stroke-width:21;" points="122.25,114.25 122.25,115.02 123.37,785.63 			"/>
			<polyline style="fill:none;stroke:#231F20;stroke-width:21;" points="162.86,112.85 162.86,114.67 162.86,785.63 			"/>
			<polyline style="fill:none;stroke:#231F20;stroke-width:14;" points="745.01,179.64 748.43,177.71 750.44,176.57 			"/>
			<polyline style="fill:none;stroke:#231F20;stroke-width:7;" points="281.49,352.88 279.3,352.88 198.33,352.88 189.31,352.88 
				173.54,352.88 			"/>
			<polyline style="fill:none;stroke:#231F20;stroke-width:7;" points="171.79,146.61 199.34,146.61 276.29,146.61 291.33,146.61 
				340.74,146.61 355.78,146.61 441.02,146.61 453.06,146.61 464.18,146.61 464.18,151.06 464.18,170.32 464.18,214.56 
				464.18,230.85 464.18,273.5 464.18,289.79 464.18,331.07 464.18,338.67 464.18,349.53 464.18,352.88 438.02,352.88 
				355.78,352.88 340.74,352.88 293.34,352.88 281.49,352.88 			"/>
			<polyline style="fill:none;stroke:#231F20;stroke-width:5;" points="465.09,230.85 464.18,230.85 340.74,230.85 340.74,146.61 
				340.74,144.25 			"/>
			<polyline style="fill:none;stroke:#231F20;stroke-width:5;" points="291.33,145.34 291.33,146.61 291.33,231.94 170.25,231.94 
							"/>
			<polyline style="fill:none;stroke:#231F20;stroke-width:5;" points="170.25,272.42 293.34,272.42 293.34,352.79 			"/>
			<polyline style="fill:none;stroke:#231F20;stroke-width:5;" points="340.74,350.62 340.74,273.5 464.09,273.5 			"/>
			<polyline style="fill:none;stroke:#231F20;stroke-width:7;" points="276.29,144.25 276.29,146.61 276.29,209.42 276.29,215.65 
				258.5,215.65 243.08,215.65 228.42,215.65 170.25,215.65 			"/>
			<polyline style="fill:none;stroke:#231F20;stroke-width:7;" points="465.09,214.56 464.18,214.56 399.91,214.56 376.24,214.56 
				360.79,214.56 355.78,214.56 355.78,207.25 355.78,146.61 355.78,144.25 			"/>
			<polyline style="fill:none;stroke:#231F20;stroke-width:7;" points="169.25,287.62 244.69,287.62 268.53,287.62 279.3,287.62 
				279.3,293.76 279.3,302.83 279.3,351.7 			"/>
			<polyline style="fill:none;stroke:#231F20;stroke-width:7;" points="355.78,351.7 355.78,297.4 355.78,289.79 371.44,289.79 
				390.43,289.79 402.52,289.79 464.09,289.79 			"/>
			<line style="fill:none;stroke:#231F20;stroke-width:5;" x1="199.34" y1="147.51" x2="275.55" y2="209.42"/>
			<line style="fill:none;stroke:#231F20;stroke-width:5;" x1="171.79" y1="146.61" x2="258.5" y2="214.85"/>
			<polyline style="fill:none;stroke:#231F20;stroke-width:5;" points="171.26,160.54 243.08,215.65 243.46,215.94 			"/>
			<line style="fill:none;stroke:#231F20;stroke-width:5;" x1="171.26" y1="170.32" x2="228.42" y2="214.85"/>
			<line style="fill:none;stroke:#231F20;stroke-width:5;" x1="356.78" y1="207.25" x2="441.02" y2="147.51"/>
			<line style="fill:none;stroke:#231F20;stroke-width:5;" x1="360.79" y1="213.76" x2="453.06" y2="147.51"/>
			<polyline style="fill:none;stroke:#231F20;stroke-width:5;" points="375.84,214.85 376.24,214.56 464.18,151.06 466.09,149.68 
							"/>
			<line style="fill:none;stroke:#231F20;stroke-width:5;" x1="399.91" y1="213.76" x2="464.09" y2="170.32"/>
			<line style="fill:none;stroke:#231F20;stroke-width:5;" x1="189.31" y1="350.62" x2="278.62" y2="293.76"/>
			<polyline style="fill:none;stroke:#231F20;stroke-width:5;" points="170.25,349.53 171.13,348.99 268.53,288.71 			"/>
			<line style="fill:none;stroke:#231F20;stroke-width:5;" x1="277.56" y1="302.83" x2="198.33" y2="352.79"/>
			<polyline style="fill:none;stroke:#231F20;stroke-width:5;" points="171.26,332.15 244.69,287.62 246.47,286.54 			"/>
			<polyline style="fill:none;stroke:#231F20;stroke-width:5;" points="461.08,349.53 371.44,289.79 369.82,288.71 			"/>
			<line style="fill:none;stroke:#231F20;stroke-width:5;" x1="355.78" y1="297.4" x2="438.02" y2="351.7"/>
			<polyline style="fill:none;stroke:#231F20;stroke-width:5;" points="388.87,288.71 390.43,289.79 461.08,338.67 			"/>
			<polyline style="fill:none;stroke:#231F20;stroke-width:5;" points="400.91,288.71 402.52,289.79 464.09,331.07 			"/>
			<path style="fill:none;stroke:#231F20;stroke-width:3;" d="M539.58,245.29c3.24,2.96-0.62,8.06,0,12.02
				c2.2,3.99,8.41,3.97,12.02,6.55c-3.05,2.41-8.25,2.67-13.109,3.27c0.64,5.74-1.931,8.27-1.09,14.2
				c-3.46-3.09-4.67-8.43-7.65-12.01c-4.35,0.74-7.81,2.38-13.1,2.18c3.02-3.17,5.189-7.18,8.729-9.83
				c-2.22-3.59-3.99-7.66-6.55-10.92c2.76-1.61,8.95,2.67,12.01,4.37C533.87,251.96,536.82,248.71,539.58,245.29z"/>
			<path style="fill:none;stroke:#231F20;stroke-width:3;" d="M673.92,245.29c3.93,2.25,5.89,6.49,9.83,8.74
				c4.51-0.95,7.5-3.42,12.01-4.37c-2.029,3.79-3.529,8.12-6.55,10.92c2.38,3.81,4.91,7.47,8.74,9.83
				c-3.17,3.09-8.37-1.05-12.021-1.09c-4.05,2.5-5.41,7.7-7.64,12.01c-1.68-3.41-1.74-8.45-2.19-13.1
				c-3.04-2.42-8.239-2.68-13.1-3.28c2.19-4,8.4-3.97,12.01-6.55C675.45,253.22,673.06,250.88,673.92,245.29z"/>
			<path style="fill:none;stroke:#231F20;stroke-width:3;" d="M500.26,322.83c3.99,2.21,5.91,6.48,8.74,9.83
				c4.09-2.09,8.3-4.08,13.11-5.46c-1.91,3.92-3.971,7.68-6.561,10.93c1.42,4.77,5.51,6.86,8.74,9.83c-3.31,2.88-9.17-0.98-13.1-1.1
				c-2.4,3.8-5.181,7.21-6.561,12.02c-1.87-3.23-2.31-7.88-2.18-13.11c-3.69-2.13-8.99-2.66-14.2-3.28
				c3.23-3.32,9.01-4.09,13.11-6.55C500.62,331.95,499.83,328,500.26,322.83z"/>
			<path style="fill:none;stroke:#231F20;stroke-width:3;" d="M527.57,362.15c3.149,3.22-1.54,7.88,0,13.11
				c3.29,2.54,7.77,3.87,12.01,5.46c-2.95,2.14-7.25,2.95-12.01,3.28c-2.44,3.01-2.271,8.65-2.19,14.19
				c-3.81-2.73-5.27-7.82-7.64-12.01c-4.061,1.77-9.82,1.83-14.2,3.28c2.37-4.18,7.14-5.97,8.74-10.92
				c-0.511-5.32-4.79-6.87-5.46-12.02c3.76,2.06,8.42,3.23,12.01,5.46C521.86,368.82,524.8,365.57,527.57,362.15z"/>
			<path style="fill:none;stroke:#231F20;stroke-width:3;" d="M685.93,362.15c3.23,2.97,7.33,5.06,8.74,9.83
				c4.561-1.26,8.15-3.5,12.01-5.46c2.48,3.26-3.55,7.32-4.359,10.92c1.859,4.69,4.899,8.21,8.729,10.93
				c-2.42,1.63-9.399-1.48-13.1-2.19c-3.63,2.92-4.88,8.23-7.65,12.01c-2.27-3.19-0.399-10.51-2.18-14.19
				c-5.15,0.05-8.28-1.92-13.11-2.19c3.45-2.38,6.76-4.89,12.01-5.46C687.68,370.6,686.21,366.97,685.93,362.15z"/>
			<path style="fill:none;stroke:#231F20;stroke-width:3;" d="M548.32,391.64c2.25,3.21,3.05,7.88,4.37,12.02
				c4.729,0,9.46,0,14.199,0c-2.67,3.88-7.21,5.89-10.93,8.73c1.09,5.11,3.29,9.09,4.37,14.2c-3.71-2.84-8.25-4.85-10.92-8.74
				c-4.12,2.07-7.4,4.98-10.92,7.65c-1.98-2.06,1.71-7.71,2.18-10.92c-1.51-5.41-6.87-6.96-10.92-9.83c3.24-3.17,9,0.42,13.11,0
				C546.05,401.75,546.02,395.53,548.32,391.64z"/>
			<path style="fill:none;stroke:#231F20;stroke-width:3;" d="M665.18,391.64c3.73,2.1,3.08,8.57,5.46,12.02c4.73,0,9.471,0,14.2,0
				c-2.35,4.56-8.84,4.99-10.92,9.83c0.6,4.49,3.13,7.06,3.271,12.01c-4.11-2.07-7.391-4.98-10.921-7.65
				c-2.93,2.89-7.35,4.3-9.829,7.65c-2.62-2.69,1.649-7.77,2.189-10.92c-1.52-5.4-7.34-6.5-10.92-9.83c2.22-2.51,9.07-0.4,13.1-1.09
				C663.4,400.78,664.41,396.33,665.18,391.64z"/>
			<path style="fill:none;stroke:#231F20;stroke-width:3;" d="M578.9,410.21c3.83,2.36,6.359,6.02,8.739,9.83
				c4.311-1.87,8.391-3.99,13.101-5.46c-1.91,3.91-3.971,7.68-6.55,10.92c1.409,5.51,7.439,6.39,8.739,12.01
				c-3.14-1.95-8.68-1.51-12.02-3.27c-4.05,2.5-5.4,7.689-7.641,12.01c-1.68-3.42-2.119-8.07-2.189-13.11
				c-3.69-2.13-8.99-2.659-14.19-3.27c3.261-3.29,9.28-3.83,13.101-6.56C579.91,418.66,578.17,415.68,578.9,410.21z"/>
			<path style="fill:none;stroke:#231F20;stroke-width:3;" d="M634.6,410.21c2.53,2.24,0.761,9.43,0,12.01
				c2.83,3.73,8.62,4.49,13.11,6.56c-3.69,2.13-8.99,2.66-14.2,3.27c0.83,5.931-1.35,8.851-1.09,14.2c-2.49-3.7-5.4-6.98-6.56-12.01
				c-4.46,0.99-9.841,1.08-13.101,3.27c-2.229-4.08,6.3-6.77,7.641-10.92c-1.91-3.91-3.971-7.68-6.551-10.92
				c2.721-1.58,9.29,2.32,12.011,4.37C629.85,417.83,631.77,413.57,634.6,410.21z"/>
			<path style="fill:none;stroke:#231F20;stroke-width:3;" d="M599.65,233.28c-0.801-6.12-8.78-5.06-9.83-10.92
				c4.01,0,8.01,0,12.01,0c4.42-1.78,1.41-10.98,6.56-12.02c-0.26,5.72,2.66,8.27,3.28,13.11c4.36,0,8.73,0,13.1,0
				c-2.399,3.79-7.699,4.68-9.829,8.74c0.6,4.49,3.13,7.06,3.279,12.01c-4.439-1.39-6.33-5.32-10.92-6.55
				c-4.66,1.53-7.819,4.56-10.93,7.64C595.06,243.19,598.68,236.72,599.65,233.28z"/>
			<path style="fill:none;stroke:#231F20;stroke-width:3;" d="M579.99,224.54c1.37,2.51-3.681,7.93-5.46,10.92
				c1.5,5.05,4.979,8.13,8.739,10.92c-3.05,2.62-8.25-1.9-13.109-1.09c-3.26,2.56-4.641,7.01-6.55,10.92
				c-2.591-2.14-2.221-7.24-2.19-12.01c-2.65-2.81-8.02-2.89-13.1-3.28c1.72-4.46,7.46-4.91,12.01-6.55
				c-1.8-3.65-0.37-10.54-2.18-14.2c3.899,2.65,6.779,6.33,9.83,9.83C572.22,228.41,576.7,227.08,579.99,224.54z"/>
			<path style="fill:none;stroke:#231F20;stroke-width:3;" d="M655.35,220.18c0.36,0.85,0.521,10.67-1.09,13.1
				c3.29,2.53,7.78,3.87,12.01,5.46c-2,3.82-9.109,2.53-13.1,4.37c0.43,5.16-0.35,9.11-1.09,13.1c-3.03-2.8-4.53-7.13-6.561-10.92
				c-5.779-0.32-9.02,1.9-14.199,2.19c2.68-3.88,6.63-6.48,8.739-10.93c-2.229-3.59-3.989-7.65-6.55-10.92
				c1.74-0.95,8.65,2.23,10.92,4.37C649.58,228.23,652.02,223.76,655.35,220.18z"/>
			<line style="fill:none;stroke:#231F20;stroke-width:3;" x1="655.35" y1="220.18" x2="655.35" y2="220.17"/>
			<path style="fill:none;stroke:#231F20;stroke-width:3;" d="M504.63,300.99c-3.59-2.6-6.28-6.09-10.92-7.64
				c2.23-2.51,9.07-0.4,13.11-1.1c2.91-2.91,3.439-8.2,4.37-13.1c4.05,2.14,2.79,9.58,5.46,13.1c4.729,0,9.46,0,14.189,0
				c-3.29,3.27-8.09,5.01-10.92,8.74c0.07,5.39,3.21,7.72,3.28,13.11c-3.47-2.72-7.16-5.22-10.92-7.65
				c-4.12,2.07-7.4,4.98-10.92,7.65C499.92,311.51,504.26,305.39,504.63,300.99z"/>
			<path style="fill:none;stroke:#231F20;stroke-width:3;" d="M703.41,306.45c-4.92,1.27-8.08,4.3-10.92,7.65
				c-2.78-3.21,2.27-7.88,2.18-12.02c-1.39-4.79-6.62-5.75-9.83-8.73c1.87-2.5,8.34-0.4,12.01-1.1c3.19-3,3.17-9.21,5.471-13.1
				c2.16,3.66,3.59,8.06,4.359,13.1c4.74,0,9.471,0,14.2,0c-3.3,2.89-6.71,5.67-10.92,7.65c0.78,5.05,2.21,9.44,4.37,13.11
				C711.34,314.49,706.93,308.06,703.41,306.45z"/>
			<path style="fill:none;stroke:#231F20;stroke-width:3;" d="M714.33,321.74c0.36,0.79,0.53,10.68-1.09,13.11
				c3.27,3.28,8.43,4.67,13.1,6.55c-3.81,2.02-9.439,2.21-14.2,3.28c0.841,5.93-1.34,8.84-1.09,14.2c-2.39-3.8-5.17-7.21-6.55-12.02
				c-5.78-0.32-8.1,2.83-14.2,2.19c2.25-3.94,6.49-5.9,8.74-9.83c-1.57-4.26-3.85-7.81-6.55-10.92c3.06-1.93,9.25,2.35,12.01,4.36
				C708.25,329.5,711.01,325.34,714.33,321.74z"/>
		</g>
	</g>
</g>
<rect x="0.25" y="0.25" style="fill-rule:evenodd;clip-rule:evenodd;fill:none;" width="850.394" height="850.394"/>
</svg>
