<svg xmlns="http://www.w3.org/2000/svg" width="850.394" height="850.394" viewBox="0 0 850.394 850.394" overflow="visible"><path d="M290.89 445.3c30.56 11.12 60.48 22.9 88.34 36.79-29.17 12.05-59.28 23.15-86.91 36.79v1.29H168.56l-3.49-379.83H314v2.8c-7.24.14-14.47.29-21.68.46 29.39 11.83 59.92 22.49 86.91 36.79-29.87 12.31-61.51 22.81-88.34 38.27 30.52 11.16 60.11 23.27 88.34 36.79-29.65 13.03-61.46 23.83-89.76 38.26 30.9 11.74 62.39 22.88 89.76 38.27-31.4 10.73-60.53 23.81-89.76 36.79 30.15 12.52 62.16 23.12 89.76 38.27-29.83 12.36-62.06 22.23-88.34 38.26z" fill="#fff"/><path d="M292.32 518.88c27.63-13.64 57.74-24.74 86.91-36.79-27.86-13.89-57.78-25.67-88.34-36.79 26.28-16.03 58.51-25.9 88.34-38.26-27.6-15.15-59.61-25.75-89.76-38.27 29.23-12.98 58.36-26.06 89.76-36.79-27.37-15.39-58.86-26.53-89.76-38.27 28.3-14.43 60.11-25.23 89.76-38.26-28.23-13.52-57.82-25.63-88.34-36.79 26.83-15.46 58.47-25.96 88.34-38.27-26.99-14.3-57.52-24.96-86.91-36.79 7.21-.17 14.44-.32 21.68-.46v-2.8h434.18v379.83H292.32v-1.29z" fill="#ed1e29"/><path d="M162.61 114.42v670.96h-39.49L122 114.77c5.8 2.59 12.62 4.08 19.92 4.08 7.62 0 14.73-1.63 20.69-4.43z" fill="#c8c8c8"/><path d="M162.61 114.42c-5.96 2.8-13.07 4.43-20.69 4.43-7.3 0-14.12-1.49-19.92-4.08-10.99-4.89-18.33-13.72-18.33-23.8 0-15.4 17.13-27.88 38.25-27.88 21.13 0 38.26 12.48 38.26 27.88 0 9.84-7 18.49-17.57 23.45z" fill="#c8c8c8"/><g fill="none" stroke="#231f20"><path stroke-width="21" d="M165.07 140.34h583.11v379.83H168.56M122 114.77c-10.99-4.89-18.33-13.72-18.33-23.8 0-15.4 17.13-27.88 38.25-27.88 21.13 0 38.26 12.48 38.26 27.88 0 9.84-7 18.49-17.57 23.45-5.96 2.8-13.07 4.43-20.69 4.43-7.3 0-14.12-1.49-19.92-4.08z"/><path stroke-width="21" d="M122 114v.77l1.12 670.61M162.61 112.6V785.38"/><path stroke-width="14" d="M744.76 179.39l3.42-1.93 2.01-1.14M314 518.88h-21.68c27.63-13.64 57.74-24.74 86.91-36.79-27.86-13.89-57.78-25.67-88.34-36.79 26.28-16.03 58.51-25.9 88.34-38.26-27.6-15.15-59.61-25.75-89.76-38.27 29.23-12.98 58.36-26.06 89.76-36.79-27.37-15.39-58.86-26.53-89.76-38.27 28.3-14.43 60.11-25.23 89.76-38.26-28.23-13.52-57.82-25.63-88.34-36.79 26.83-15.46 58.47-25.96 88.34-38.27-26.99-14.3-57.52-24.96-86.91-36.79 7.21-.17 14.44-.32 21.68-.46"/></g><path fill="none" d="M0 0h850.394v850.394H0z"/></svg>