<?xml version="1.0" encoding="iso-8859-1"?>
<!-- Generator: Adobe Illustrator 12.0.1, SVG Export Plug-In . SVG Version: 6.00 Build 51448)  -->
<!DOCTYPE svg PUBLIC "-//W3C//DTD SVG 1.1//EN" "http://www.w3.org/Graphics/SVG/1.1/DTD/svg11.dtd" [
	<!ENTITY ns_svg "http://www.w3.org/2000/svg">
	<!ENTITY ns_xlink "http://www.w3.org/1999/xlink">
]>
<svg  version="1.1" id="Layer_1" xmlns="&ns_svg;" xmlns:xlink="&ns_xlink;" width="850.394" height="850.394"
	 viewBox="0 0 850.394 850.394" style="overflow:visible;enable-background:new 0 0 850.394 850.394;" xml:space="preserve">
<g>
	<g id="XMLID_7_">
		<g>
			<path style="fill:#FFFFFF;" d="M612.53,227.39c0.279,0,0.51,0.25,0.51,0.56c0,0.3-0.23,0.56-0.51,0.56
				c-0.28,0-0.511-0.26-0.511-0.56C612.02,227.64,612.25,227.39,612.53,227.39z"/>
			<path style="fill:#FFFFFF;" d="M623.16,227.09c0.28,0,0.52,0.26,0.52,0.56c0,0.31-0.239,0.56-0.52,0.56
				c-0.271,0-0.51-0.25-0.51-0.56C622.65,227.35,622.89,227.09,623.16,227.09z"/>
			<polygon style="fill:#231F20;" points="339.21,137.1 324.68,137.1 276.94,137.1 262.41,137.1 188.07,137.1 168.73,137.1 
				168.73,124.83 753.71,124.83 764.35,124.83 764.35,135.46 764.35,521.82 764.35,532.45 753.71,532.45 168.73,532.45 
				168.73,511.18 743.08,511.18 743.08,521.82 753.71,511.18 743.08,511.18 743.08,146.1 753.71,146.1 743.08,135.46 743.08,146.1 
				443.93,146.1 443.93,141.08 443.93,137.1 433.19,137.1 421.56,137.1 			"/>
			<polygon style="fill:#231F20;" points="743.08,135.46 753.71,146.1 743.08,146.1 			"/>
			<polygon style="fill:#231F20;" points="753.71,511.18 743.08,521.82 743.08,511.18 			"/>
			<path style="fill:#ED1E29;" d="M443.93,197.72v-39.47V146.1h299.15v365.08H168.73V321.1h9.65h8.72h78.21h2.12h11.45h45.8h14.53
				h79.45h25.27v-9.77v-9.68v-36.82V250.3v-38.05V197.72z M690.83,318.76v-0.51V214.74v-7.1l-7.1,0.01L548.71,207.9l-7.07,0.02v7.07
				v103.52v0.5l0.07,0.5c0.18,1.27,4.8,31.37,35.49,55.06c14.66,11.32,37.569,13.48,38.53,13.56l0.68,0.06l0.67-0.07
				c0.96-0.09,23.57-2.51,38.18-13.8c30.71-23.7,35.32-53.79,35.5-55.06L690.83,318.76z"/>
			<path style="fill:#231F20;" d="M616.99,374.01c-0.061-0.01-0.271-0.03-0.63-0.07c5.979-0.73,21.13-3.81,30.239-10.84
				c1.75-1.35,3.4-2.73,4.96-4.12c1.33,0.47,2.811-0.18,3.341-1.5c0.319-0.81,0.479-1.52,0.51-2.15c0.75-0.77,1.49-1.54,2.2-2.31
				c0.06,0.05,0.109,0.1,0.159,0.15c0.28,0.28,0.65,0.63,0.841,0.87c-0.11,0.29-0.16,0.59-0.16,0.89c0,1.02,0.6,1.99,1.59,2.43
				c1.35,0.6,2.92-0.01,3.51-1.36c0.33-0.75,0.47-1.44,0.47-2.07c0-1.75-1.05-3.07-1.989-4.03c0.21-0.07,0.479-0.11,0.84-0.16
				c0.399-0.06,0.8-0.14,1.189-0.25c0.051,0.41,0.12,0.86,0.221,1.32c0.279,1.23,1.38,2.06,2.59,2.06c0.2,0,0.399-0.02,0.6-0.07
				c1.431-0.33,2.32-1.76,1.99-3.19c-0.09-0.41-0.15-0.87-0.2-1.35c-0.149-1.21-0.39-3.16-1.779-4.5c0-0.11,0-0.23-0.011-0.35
				c0-1.02-0.18-1.89-0.5-2.65c7.181-11.46,9.3-21.1,9.69-23.12v0.61l0.07-1c0,0.01-0.021,0.15-0.07,0.39v-17.23v-78.57l7.1-0.01
				l-7.1-7.09v7.1l-41.3,0.08c-0.24-1.24-0.771-2.37-1.891-3.16c-1.83-1.29-3.739-0.61-4.56-0.31c-0.12,0.04-0.28,0.1-0.4,0.13
				c-2.01-0.62-6.25-1.28-9.31-1.71l-0.021-0.15c-0.13,0.02-0.31,0.04-0.52,0.07c-1.271-0.18-2.271-0.3-2.74-0.36l-0.09,0.74
				c-3.05,0.43-7.24,1.09-9.24,1.7c-0.12-0.03-0.28-0.09-0.399-0.13c-0.811-0.29-2.73-0.98-4.561,0.31
				c-1.05,0.74-1.58,1.79-1.84,2.94l-43.97,0.08v-7.08l-7.08,7.09l7.08-0.01v78.63v17.22c-0.051-0.28-0.08-0.43-0.08-0.45l0.08,1.04
				v-0.59c0.449,2.33,2.96,13.5,11.729,26.2c-1.33,1.35-1.56,3.24-1.7,4.43c-0.06,0.49-0.119,0.94-0.21,1.35
				c-0.05,0.2-0.069,0.4-0.069,0.6c0,1.21,0.83,2.31,2.06,2.59c1.43,0.33,2.86-0.56,3.19-1.99c0.109-0.46,0.18-0.9,0.229-1.31
				c0.32,0.08,0.641,0.15,0.96,0.21c0.01,0,0.01,0,0.01,0c0.181,0.24,0.381,0.47,0.58,0.71c-1.119,1.29-2.13,3.11-1.04,5.59
				c0.44,0.99,1.41,1.59,2.431,1.59c0.359,0,0.72-0.08,1.069-0.23c1.021-0.45,1.61-1.46,1.591-2.51c2.71,2.78,5.77,5.54,9.22,8.2
				c10.189,7.86,27.01,10.18,30.49,10.59c-0.261,0.03-0.5,0.06-0.721,0.08L616.99,374.01z M690.83,318.25v0.51l-0.07,0.5
				c-0.18,1.27-4.79,31.36-35.5,55.06c-14.609,11.29-37.22,13.71-38.18,13.8l-0.67,0.07l-0.68-0.06
				c-0.961-0.08-23.87-2.24-38.53-13.56c-30.69-23.69-35.311-53.79-35.49-55.06l-0.07-0.5v-0.5V214.99v-7.07l7.07-0.02l135.021-0.25
				l7.1-0.01v7.1V318.25z"/>
			<polygon style="fill:#231F20;" points="683.76,221.83 676.66,221.84 676.66,214.74 			"/>
			<path style="fill:#231F20;" d="M676.73,317.25l-0.07,1v-0.61C676.71,317.4,676.73,317.26,676.73,317.25z"/>
			<path style="fill:#FFFFFF;" d="M676.66,300.41v17.23c-0.391,2.02-2.51,11.66-9.69,23.12c-1.819-4.24-8.01-4.55-10.279-4.66
				c-1.391-0.07-2.7-0.53-3.851-1.36c1.12-1.22,2.17-2.44,3.12-3.64c1.25-0.81,2.9-1.64,4.06-2.22c1.4-0.71,2.601-1.32,3.421-1.92
				c1.76-1.29,3.079-1.98,4.14-2.54c1.64-0.86,3.189-1.67,3.89-3.8c0.54-1.58,0.58-3.94,0.62-6.67c0.04-1.86,0.09-4.96,0.46-5.77
				c0.91-2,2.2-4.84,2.2-7.77H676.66z"/>
			<path style="fill:#FFFFFF;" d="M676.66,221.84v78.57h-1.91c0-3.11-1.47-6.33-6.41-8.72c-4.41-2.13-7.96-1.59-11.39-1.07
				c-0.351,0.05-0.71,0.11-1.061,0.15c1.431-1.35,3.94-1.84,7.71-2.15c1.681-0.14,3-0.25,4.131-0.75c1.31-0.58,2.27-1.62,2.71-2.93
				c0.909-2.75-0.631-5.51-2.41-8.71c-0.641-1.14-1.3-2.32-1.73-3.33c-0.29-0.67-0.29-2.54,1.311-7.7c0.01-0.04,0.02-0.08,0.04-0.12
				c0.479-1.56,1.26-4.33-1.521-5.66c-0.16-0.07-0.52-0.23-1.01-0.3c-0.03-4.66-1.67-7.29-3.311-8.75c-2.369-2.1-5.71-2.7-8.949-1.6
				c-3.03,1.03-5.21,3.32-5.71,5.97c-0.03,0.17-0.07,0.31-0.091,0.42c-0.659-0.06-2.17-0.48-5.54-2.08
				c-2.76-1.32-4.369-7.52-5.539-12.05c-0.73-2.79-1.351-5.2-2.261-7.01c-0.56-1.12-0.55-1.15,0.15-2.59c0.68-1.4,1.7-3.52,1.7-6.76
				c0-0.9-0.03-1.85-0.21-2.75L676.66,221.84z"/>
			<path style="fill:#231F20;" d="M666.43,318.95c0.011-0.01,0.011-0.01,0.021-0.02c0,0-0.01,0.01-0.021,0.01
				c0.271-0.81,0.32-3.28,0.351-5.08c0.05-3.12,0.109-6.06,0.93-7.88c2.8-6.19,2.12-7.66-1.69-9.5c-2.93-1.42-5.05-1.09-8.27-0.6
				c-0.99,0.15-2.06,0.31-3.23,0.43c-0.02-0.2-0.039-0.41-0.05-0.62c-0.109-2.34,0.33-3.88,1.41-4.91c0,0,0,0,0.01-0.01
				c0.351-0.04,0.71-0.1,1.061-0.15c3.43-0.52,6.979-1.06,11.39,1.07c4.94,2.39,6.41,5.61,6.41,8.72c0,2.93-1.29,5.77-2.2,7.77
				c-0.37,0.81-0.42,3.91-0.46,5.77c-0.04,2.73-0.08,5.09-0.62,6.67c-0.7,2.13-2.25,2.94-3.89,3.8c-1.061,0.56-2.38,1.25-4.14,2.54
				c-0.82,0.6-2.021,1.21-3.421,1.92c-1.159,0.58-2.81,1.41-4.06,2.22c1.85-2.31,3.38-4.55,4.55-6.61c0.57-1.01,1.021-1.97,1.36-2.9
				c1.33-0.87,2.39-1.44,3.24-1.88C665.62,319.44,666.26,319.1,666.43,318.95z"/>
			<path style="fill:#231F20;" d="M664.97,281.34c-0.34,0.09-1.27,0.16-1.96,0.22c-0.05,0-0.09,0.01-0.14,0.01
				c-0.33-0.64-0.72-1.33-1.03-1.88c-0.729-1.3-1.479-2.64-2.06-4c-0.75-1.75-0.82-3.81-0.54-5.94c3.89-1.28,6.819-3.05,7.93-4.71
				c0.021-0.03,0.04-0.05,0.04-0.07c0.01-0.01,0.021-0.02,0.03-0.03l0.41,0.14c-0.021,0.04-0.03,0.08-0.04,0.12
				c-1.601,5.16-1.601,7.03-1.311,7.7c0.431,1.01,1.09,2.19,1.73,3.33c1.779,3.2,3.319,5.96,2.41,8.71
				c-0.44,1.31-1.4,2.35-2.71,2.93c-1.131,0.5-2.45,0.61-4.131,0.75c-3.77,0.31-6.279,0.8-7.71,2.15c-0.01,0.01-0.01,0.01-0.01,0.01
				c-1.13,0.16-2.3,0.3-3.57,0.35l-4.449-0.15c2.199-8.25,11.14-9.09,15.01-9.41c0.38,0.75,0.7,1.44,0.75,1.78
				c-0.08-0.54,0.36-1.57,1.229-1.96C664.9,281.37,664.94,281.36,664.97,281.34z"/>
			<path style="fill:#231F20;" d="M669.46,349.61c0.33,1.43-0.56,2.86-1.99,3.19c-0.2,0.05-0.399,0.07-0.6,0.07
				c-1.21,0-2.311-0.83-2.59-2.06c-0.101-0.46-0.17-0.91-0.221-1.32c1.9-0.55,3.521-1.89,3.421-5.73c1.39,1.34,1.63,3.29,1.779,4.5
				C669.31,348.74,669.37,349.2,669.46,349.61z"/>
			<path style="fill:#EF3E23;" d="M666.02,296.48c3.811,1.84,4.49,3.31,1.69,9.5c-0.82,1.82-0.88,4.76-0.93,7.88
				c-0.03,1.8-0.08,4.27-0.351,5.08v0.01c-0.17,0.15-0.81,0.49-1.319,0.76c-0.851,0.44-1.91,1.01-3.24,1.88
				c2.399-6.54-0.561-11.18-3.21-15.32c-1.95-3.05-3.79-5.93-4.141-9.96c1.171-0.12,2.24-0.28,3.23-0.43
				C660.97,295.39,663.09,295.06,666.02,296.48z"/>
			<path style="fill:#231F20;" d="M666.13,259.42c2.78,1.33,2,4.1,1.521,5.66l-0.41-0.14c-0.01,0.01-0.021,0.02-0.03,0.03
				c-0.63,0.83-2.35,1.67-4.09,0.87c-0.75-0.35-1.26-0.88-1.59-1.46l2.91,0.63c0.489-2.26,0.689-4.2,0.68-5.89
				C665.61,259.19,665.97,259.35,666.13,259.42z"/>
			<path style="fill:#231F20;" d="M663.84,347.64c-0.05-0.04-0.1-0.09-0.109-0.13c0.01,0.03,0.029,0.07,0.039,0.12
				c-0.439-0.1-0.84-0.31-1.149-0.6c1.12-1.47,2.16-2.92,3.11-4.35c0.729,0.26,1.3,0.63,1.75,1.08c0.1,3.84-1.521,5.18-3.421,5.73
				c-0.029-0.21-0.06-0.4-0.079-0.59c-0.051-0.41-0.12-0.99-0.211-1.27C663.8,347.63,663.82,347.64,663.84,347.64z"/>
			<path style="fill:#231F20;" d="M667.47,343.41c0.011,0.12,0.011,0.24,0.011,0.35c-0.45-0.45-1.021-0.82-1.75-1.08
				c0.43-0.65,0.84-1.29,1.239-1.92C667.29,341.52,667.47,342.39,667.47,343.41z"/>
			<path style="fill:#231F20;" d="M667.21,264.97c0,0.02-0.02,0.04-0.04,0.07c-1.11,1.66-4.04,3.43-7.93,4.71
				c0.229-1.85,0.729-3.75,1.279-5.59l1.011,0.22c0.33,0.58,0.84,1.11,1.59,1.46C664.86,266.64,666.58,265.8,667.21,264.97z"/>
			<path style="fill:#231F20;" d="M666.45,318.93c-0.01,0.01-0.01,0.01-0.021,0.02v-0.01C666.44,318.94,666.45,318.93,666.45,318.93
				z"/>
			<path style="fill:#231F20;" d="M666.97,340.76c-0.399,0.63-0.81,1.27-1.239,1.92c-0.24-0.1-0.49-0.18-0.761-0.24
				c-0.2-0.05-0.399-0.07-0.6-0.07c-0.89,0-1.72,0.46-2.21,1.19l-0.01-0.07v-0.08c0-1.14-1.92-1.81-5.721-2
				c-2.109-0.11-4.149-0.76-5.96-1.87c0.311-0.85,0.53-1.79,0.521-2.85c0.64-0.65,1.25-1.3,1.85-1.95
				c1.15,0.83,2.46,1.29,3.851,1.36C658.96,336.21,665.15,336.52,666.97,340.76z"/>
			<path style="fill:#231F20;" d="M664.97,342.44c0.271,0.06,0.521,0.14,0.761,0.24c-0.95,1.43-1.99,2.88-3.11,4.35
				c-0.69-0.6-1.05-1.54-0.86-2.5c0.12-0.02,0.23-0.04,0.33-0.05c0.03,0,0.05-0.01,0.08-0.02c-0.02,0.32-0.06,0.44-0.06,0.45
				c0.069-0.2,0.35-0.47,0.56-0.54c-0.08,0.03-0.31,0.07-0.5,0.09c0.01-0.21,0.01-0.5-0.01-0.89c0-0.01,0-0.01,0-0.01
				c0.49-0.73,1.32-1.19,2.21-1.19C664.57,342.37,664.77,342.39,664.97,342.44z"/>
			<path style="fill:#231F20;" d="M661.35,261c1.28-1.85,2.78-2.03,3.771-1.88c0.01,1.69-0.19,3.63-0.68,5.89l-2.91-0.63
				c-0.45-0.79-0.53-1.67-0.391-2.28c-0.04,0.15-0.18,0.62-0.3,1c-0.109,0.35-0.22,0.71-0.32,1.06l-3.01-0.66
				c0.05-0.23,0.09-0.45,0.141-0.67c1.88-0.66,3.199-1.36,3.68-1.82c-0.021,0.03-0.04,0.06-0.061,0.09
				C661.3,261.06,661.33,261.02,661.35,261z"/>
			<path style="fill:#231F20;" d="M664.97,281.34c-0.029,0.02-0.069,0.03-0.12,0.05c-0.869,0.39-1.31,1.42-1.229,1.96
				c-0.05-0.34-0.37-1.03-0.75-1.78c0.05,0,0.09-0.01,0.14-0.01C663.7,281.5,664.63,281.43,664.97,281.34z"/>
			<path style="fill:#231F20;" d="M646.94,255.47c0.079-0.13,0.31-0.28,0.47-0.31c-0.08,0.01-0.19,0.02-0.351,0
				c0.021-0.11,0.061-0.25,0.091-0.42c0.5-2.65,2.68-4.94,5.71-5.97c3.239-1.1,6.58-0.5,8.949,1.6c1.641,1.46,3.28,4.09,3.311,8.75
				c-0.99-0.15-2.49,0.03-3.771,1.88c0,0-0.01,0.01-0.02,0.01c-0.48,0.46-1.8,1.16-3.68,1.82c0.869-4.53,0.18-6.98-0.96-7.4
				c-1-0.37-2.351,0.32-2.591,0.72c0.011-0.03,0.011-0.07,0.021-0.11c-0.021,0.09-0.04,0.13-0.04,0.13c0-0.01,0.01-0.01,0.02-0.02
				c-0.51,2.61-1.75,4.42-3.649,5.4c-3.4,1.73-7.61,0.01-11.97-2.07c-5.75-2.74-7.761-10.46-9.37-16.67
				c-0.591-2.3-1.16-4.48-1.73-5.62c-2.12-4.24-0.83-6.9,0.11-8.85c0.42-0.87,0.779-1.61,0.92-2.64c1.24,0.01,2.24-0.35,2.88-0.58
				c0.07-0.02,0.17-0.06,0.229-0.08c-0.35,0.08-1.14,0.11-1.92-0.35c-0.79-0.46-1.119-1.14-1.189-1.4c0.02,0.1,0.07,0.47,0.07,1.38
				c0,0.38-0.021,0.72-0.07,1.03c-0.601-0.01-1.25-0.1-1.94-0.33c-1.2-0.4-4.66-0.97-7.83-1.42c0.5-0.07,0.98-0.14,1.42-0.19
				l-0.229-1.81l15.53-0.03c0.18,0.9,0.21,1.85,0.21,2.75c0,3.24-1.021,5.36-1.7,6.76c-0.7,1.44-0.71,1.47-0.15,2.59
				c0.91,1.81,1.53,4.22,2.261,7.01c1.17,4.53,2.779,10.73,5.539,12.05c3.37,1.6,4.881,2.02,5.54,2.08
				C647,255.35,646.95,255.44,646.94,255.47z"/>
			<path style="fill:#231F20;" d="M663.98,348.9c0.02,0.19,0.05,0.38,0.079,0.59c-0.39,0.11-0.79,0.19-1.189,0.25
				c-0.36,0.05-0.63,0.09-0.84,0.16c-0.2-0.2-0.391-0.38-0.57-0.55c-0.13-0.12-0.25-0.24-0.37-0.36c0.53-0.66,1.04-1.31,1.53-1.96
				c0.31,0.29,0.71,0.5,1.149,0.6C663.86,347.91,663.93,348.49,663.98,348.9z"/>
			<path style="fill:#231F20;" d="M663.84,347.64c-0.02,0-0.04-0.01-0.07-0.01c-0.01-0.05-0.029-0.09-0.039-0.12
				C663.74,347.55,663.79,347.6,663.84,347.64z"/>
			<path style="fill:#231F20;" d="M664.02,353.93c0,0.63-0.14,1.32-0.47,2.07c-0.59,1.35-2.16,1.96-3.51,1.36
				c-0.99-0.44-1.59-1.41-1.59-2.43c0-0.3,0.05-0.6,0.16-0.89c0.06,0.07,0.109,0.13,0.13,0.17c-0.05-0.1-0.07-0.29-0.04-0.39
				c0,0-0.01,0.01-0.021,0.04c-0.029,0.06-0.05,0.12-0.069,0.18c-0.19-0.24-0.561-0.59-0.841-0.87c-0.05-0.05-0.1-0.1-0.159-0.15
				c0.149-0.17,0.31-0.34,0.47-0.52c0.7-0.44,1.35-0.9,1.95-1.33c0.59-0.42,1.14-0.81,1.67-1.13c0.1-0.06,0.2-0.1,0.33-0.14
				C662.97,350.86,664.02,352.18,664.02,353.93z"/>
			<path style="fill:#231F20;" d="M662.17,344.46c0.19-0.02,0.42-0.06,0.5-0.09c-0.21,0.07-0.49,0.34-0.56,0.54
				C662.11,344.9,662.15,344.78,662.17,344.46z"/>
			<path style="fill:#231F20;" d="M662.16,343.57c0.02,0.39,0.02,0.68,0.01,0.89c-0.03,0.01-0.05,0.02-0.08,0.02
				c-0.1,0.01-0.21,0.03-0.33,0.05c0.01-0.03,0.01-0.06,0.021-0.09C661.85,344.12,661.98,343.83,662.16,343.57z"/>
			<path style="fill:#EF3E23;" d="M662.16,343.56c0,0,0,0,0,0.01c-0.18,0.26-0.311,0.55-0.38,0.87
				c-0.011,0.03-0.011,0.06-0.021,0.09c-0.76,0.12-1.8,0.34-2.84,0.97c-0.68,0.42-1.34,0.89-1.97,1.34c-1.65,1.17-3.2,2.28-4.71,2.2
				c-2.36-0.11-3.88-2.26-3.971-4.28c-0.039-0.83,0.37-1.62,1.04-2.84c0.391-0.71,0.83-1.49,1.16-2.38
				c1.811,1.11,3.851,1.76,5.96,1.87c3.801,0.19,5.721,0.86,5.721,2v0.08L662.16,343.56z"/>
			<path style="fill:#A8D7F4;" d="M626.54,269.87c-0.6-0.03-1.31-0.15-1.87-0.3c2.09-3.21,2.7-3.4,11.7,0.06
				c7.75,2.98,16.57,2.19,22.87,0.12c-0.28,2.13-0.21,4.19,0.54,5.94c0.58,1.36,1.33,2.7,2.06,4c0.311,0.55,0.7,1.24,1.03,1.88
				c-3.87,0.32-12.811,1.16-15.01,9.41c-0.38,1.45-0.561,3.12-0.471,5.05c0.301,6.24,3.07,10.58,5.301,14.06
				c2.949,4.62,4.06,6.67,1.659,10.9c-1.21,2.13-2.899,4.52-4.979,6.98c-7.25,8.59-19.17,17.94-31.39,19.53
				c-11.57-1.43-23.591-10.01-31.2-18.25c-2.58-2.79-4.641-5.55-6.021-7.97c-2.41-4.23-1.3-6.27,1.66-10.9
				c2.23-3.48,5-7.81,5.29-14.06c0.62-12.98-10.91-14.08-15.47-14.46c0.33-0.64,0.71-1.32,1.02-1.87c0.73-1.3,1.48-2.65,2.061-4.01
				c0.75-1.75,0.83-3.8,0.55-5.93c6.3,2.06,15.12,2.85,22.87-0.13c8.979-3.46,9.609-3.27,11.7-0.07c-0.57,0.16-1.29,0.28-1.891,0.31
				h0.141l0.119,7.08c1.54-0.05,6.69-0.51,8.57-4.14c0.08-0.15,0.16-0.33,0.23-0.52c0.029,0.08,0.069,0.16,0.109,0.23
				c1.891,3.62,7.04,4.08,8.57,4.14L626.54,269.87z"/>
			<path style="fill:#231F20;" d="M658.66,306.27c2.649,4.14,5.609,8.78,3.21,15.32c-0.49,0.31-1.021,0.68-1.58,1.09
				c-0.46,0.34-1.58,0.9-2.67,1.45c-2.55,1.29-5.4,2.73-7.08,4.58l-1.17-0.74c2.08-2.46,3.77-4.85,4.979-6.98
				c2.4-4.23,1.29-6.28-1.659-10.9c-2.23-3.48-5-7.82-5.301-14.06c-0.09-1.93,0.091-3.6,0.471-5.05l4.449,0.15l0.19,5.32
				c0.71-0.03,1.38-0.08,2.02-0.14C654.87,300.34,656.71,303.22,658.66,306.27z"/>
			<path style="fill:#231F20;" d="M662.03,349.9c-0.13,0.04-0.23,0.08-0.33,0.14c-0.53,0.32-1.08,0.71-1.67,1.13
				c-0.601,0.43-1.25,0.89-1.95,1.33c1.06-1.17,2.06-2.34,3.01-3.51c0.12,0.12,0.24,0.24,0.37,0.36
				C661.64,349.52,661.83,349.7,662.03,349.9z"/>
			<path style="fill:#231F20;" d="M661.76,344.53c-0.189,0.96,0.17,1.9,0.86,2.5c-0.49,0.65-1,1.3-1.53,1.96
				c-0.26-0.26-0.52-0.52-0.75-0.79c-0.52-0.63-1.27-0.95-2.03-0.95c-0.6,0-1.21,0.21-1.71,0.63c-1.119,0.94-1.27,2.62-0.319,3.74
				c0.399,0.48,0.8,0.89,1.18,1.25c-0.69,0.39-1.43,0.75-2.21,1.01c-0.36-1.26-1.23-2.18-1.99-2.99c-0.22-0.23-0.45-0.47-0.68-0.74
				c-0.53-0.59-1.25-0.89-1.98-0.89c-0.63,0-1.27,0.23-1.779,0.68c-1.011,0.9-1.17,2.4-0.41,3.49c-3.3-1.61-5.29-5.1-5.45-8.42
				c-0.02-0.45,0-0.88,0.05-1.29c2.15-1.65,4.19-3.38,6.07-5.17c0.439,0.36,0.91,0.69,1.39,0.99c-0.33,0.89-0.77,1.67-1.16,2.38
				c-0.67,1.22-1.079,2.01-1.04,2.84c0.091,2.02,1.61,4.17,3.971,4.28c1.51,0.08,3.06-1.03,4.71-2.2c0.63-0.45,1.29-0.92,1.97-1.34
				C659.96,344.87,661,344.65,661.76,344.53z"/>
			<path style="fill:#231F20;" d="M661.53,264.38l-1.011-0.22c0.101-0.35,0.211-0.71,0.32-1.06c0.12-0.38,0.26-0.85,0.3-1
				C661,262.71,661.08,263.59,661.53,264.38z"/>
			<path style="fill:#231F20;" d="M661.35,261c-0.02,0.02-0.05,0.06-0.08,0.1c0.021-0.03,0.04-0.06,0.061-0.09
				C661.34,261.01,661.35,261,661.35,261z"/>
			<path style="fill:#231F20;" d="M660.29,322.68c0.56-0.41,1.09-0.78,1.58-1.09c-0.34,0.93-0.79,1.89-1.36,2.9
				c-1.17,2.06-2.7,4.3-4.55,6.61c-0.75,0.48-1.36,0.96-1.63,1.37l-4.43-2.93c0.189-0.28,0.399-0.56,0.64-0.83
				c1.68-1.85,4.53-3.29,7.08-4.58C658.71,323.58,659.83,323.02,660.29,322.68z"/>
			<path style="fill:#231F20;" d="M660.34,348.2c0.23,0.27,0.49,0.53,0.75,0.79c-0.95,1.17-1.95,2.34-3.01,3.51
				c-0.2,0.13-0.41,0.25-0.62,0.37c-0.38-0.36-0.78-0.77-1.18-1.25c-0.95-1.12-0.8-2.8,0.319-3.74c0.5-0.42,1.11-0.63,1.71-0.63
				C659.07,347.25,659.82,347.57,660.34,348.2z"/>
			<path style="fill:#231F20;" d="M657.51,263.5l3.01,0.66c-0.55,1.84-1.05,3.74-1.279,5.59c-6.3,2.07-15.12,2.86-22.87-0.12
				c-9-3.46-9.61-3.27-11.7-0.06c-0.41-0.11-0.74-0.23-0.9-0.35c0.28,0.21,0.49,0.85,0.391,1.19c0,0,0.04-0.13,0.21-0.39
				c0.1-0.16,0.2-0.31,0.3-0.45c0.561,0.15,1.271,0.27,1.87,0.3l-0.25,7.08c-1.53-0.06-6.68-0.52-8.57-4.14
				c-0.04-0.07-0.08-0.15-0.109-0.23c0.409-1.02,0.689-2.61-0.11-4.58c0.2-0.58,0.5-1.19,0.92-1.84c4.65-7.18,8.48-7.77,20.49-3.15
				c6.91,2.66,14.35,1.36,18.74-0.18C657.6,263.05,657.56,263.27,657.51,263.5z"/>
			<path style="fill:#231F20;" d="M658.7,353.82c-0.03,0.1-0.01,0.29,0.04,0.39c-0.021-0.04-0.07-0.1-0.13-0.17
				c0.02-0.06,0.04-0.12,0.069-0.18C658.69,353.83,658.7,353.82,658.7,353.82z"/>
			<path style="fill:#231F20;" d="M658.08,352.5c-0.16,0.18-0.32,0.35-0.47,0.52c-0.051-0.05-0.101-0.1-0.15-0.15
				C657.67,352.75,657.88,352.63,658.08,352.5z"/>
			<path style="fill:#EF3E23;" d="M656.69,255.43c1.14,0.42,1.829,2.87,0.96,7.4c-4.391,1.54-11.83,2.84-18.74,0.18
				c-12.01-4.62-15.84-4.03-20.49,3.15c-0.42,0.65-0.72,1.26-0.92,1.84c-0.2-0.49-0.46-1.01-0.81-1.54
				c-4.66-7.19-8.49-7.77-20.5-3.16c-6.9,2.66-14.33,1.37-18.73-0.16c-0.89-4.54-0.19-7,0.95-7.42c1.01-0.37,2.34,0.31,2.6,0.71
				c0.51,2.62,1.73,4.44,3.641,5.41c3.409,1.73,7.609,0.01,11.979-2.07c5.75-2.74,7.75-10.46,9.36-16.66
				c0.6-2.31,1.16-4.48,1.729-5.63c2.12-4.24,0.83-6.9-0.109-8.84c-0.42-0.88-0.78-1.62-0.92-2.65c0.6,0,1.25-0.09,1.939-0.32
				c1.48-0.5,6.43-1.25,10-1.72c0,0,0,0,0.01,0c3.17,0.45,6.63,1.02,7.83,1.42c0.69,0.23,1.34,0.32,1.94,0.33
				c-0.141,1.03-0.5,1.77-0.92,2.64c-0.94,1.95-2.23,4.61-0.11,8.85c0.57,1.14,1.14,3.32,1.73,5.62
				c1.609,6.21,3.62,13.93,9.37,16.67c4.359,2.08,8.569,3.8,11.97,2.07c1.899-0.98,3.14-2.79,3.649-5.4
				C654.34,255.75,655.69,255.06,656.69,255.43z M626.71,238.55c0-1.46-1.19-2.65-2.66-2.65h-10.63c-0.74,0-1.4,0.3-1.88,0.78
				c-0.48,0.48-0.78,1.14-0.78,1.87c0,1.47,1.19,2.66,2.66,2.66h10.63c0.73,0,1.4-0.3,1.88-0.78
				C626.41,239.95,626.71,239.28,626.71,238.55z M625.45,227.65c0-1.28-1.03-2.33-2.29-2.33s-2.28,1.05-2.28,2.33
				c0,1.29,1.021,2.34,2.28,2.34S625.45,228.94,625.45,227.65z M614.81,227.95c0-1.29-1.02-2.34-2.279-2.34
				c-1.261,0-2.28,1.05-2.28,2.34c0,1.28,1.02,2.33,2.28,2.33C613.79,230.28,614.81,229.23,614.81,227.95z"/>
			<path style="fill:#231F20;" d="M650.1,355.11c-0.01,0.02-0.02,0.07-0.05,0.16c-0.149-0.19-0.43-0.49-0.66-0.74
				c-0.229-0.24-0.5-0.52-0.779-0.84c-0.07-0.08-0.141-0.17-0.2-0.26c1.06,0.53,2.26,0.86,3.58,0.92c1.17,0.06,2.26-0.13,3.26-0.47
				c0.11,0.38,0.17,0.79,0.17,1.23c0,0.07,0,0.14-0.01,0.22c-1.22,1.22-2.5,2.44-3.851,3.65c-0.04-0.01-0.079-0.02-0.119-0.04
				c-1.03-0.42-1.66-1.41-1.66-2.46c0-0.33,0.06-0.67,0.2-1c0.029-0.09,0.06-0.16,0.069-0.21c0.05,0.06,0.09,0.11,0.11,0.15
				C650.12,355.34,650.09,355.2,650.1,355.11z"/>
			<path style="fill:#231F20;" d="M655.41,355.33c-0.03,0.63-0.19,1.34-0.51,2.15c-0.53,1.32-2.011,1.97-3.341,1.5
				C652.91,357.77,654.19,356.55,655.41,355.33z"/>
			<path style="fill:#231F20;" d="M654.47,295.69c0.011,0.21,0.03,0.42,0.05,0.62c-0.64,0.06-1.31,0.11-2.02,0.14l-0.19-5.32
				c1.271-0.05,2.44-0.19,3.57-0.35C654.8,291.81,654.36,293.35,654.47,295.69z"/>
			<path style="fill:#231F20;" d="M654.33,332.47c0.27-0.41,0.88-0.89,1.63-1.37c-0.95,1.2-2,2.42-3.12,3.64
				c-0.689-0.48-1.32-1.09-1.87-1.81l-4.22,3.24c0.02,0.03,0.04,0.05,0.07,0.08l-1.181,0.18c0.13,0.85-0.27,1.62-0.979,2.93
				c-0.66,1.19-1.44,2.6-1.65,4.36c-7.319,5.57-16.029,9.98-25.01,10.93l-0.12-1.1l0.63-5.98c-0.18-0.02-0.35-0.04-0.529-0.07
				c12.22-1.59,24.14-10.94,31.39-19.53l1.17,0.74c-0.24,0.27-0.45,0.55-0.64,0.83L654.33,332.47z"/>
			<path style="fill:#231F20;" d="M654.12,256.04c-0.01,0.04-0.01,0.08-0.021,0.11c-0.01,0.01-0.02,0.01-0.02,0.02
				C654.08,256.17,654.1,256.13,654.12,256.04z"/>
			<path style="fill:#231F20;" d="M653.26,350.89c0.76,0.81,1.63,1.73,1.99,2.99c-1,0.34-2.09,0.53-3.26,0.47
				c-1.32-0.06-2.521-0.39-3.58-0.92c-0.76-1.09-0.601-2.59,0.41-3.49c0.51-0.45,1.149-0.68,1.779-0.68c0.73,0,1.45,0.3,1.98,0.89
				C652.81,350.42,653.04,350.66,653.26,350.89z"/>
			<path style="fill:#FFFFFF;" d="M651.44,358.94c0.04,0.02,0.079,0.03,0.119,0.04c-1.56,1.39-3.21,2.77-4.96,4.12
				c-9.109,7.03-24.26,10.11-30.239,10.84c-3.48-0.41-20.301-2.73-30.49-10.59c-3.45-2.66-6.51-5.42-9.22-8.2
				c-0.011-0.27-0.061-0.55-0.16-0.82c0.2-0.24,0.56-0.59,0.85-0.86c0.101-0.1,0.2-0.2,0.3-0.3c0.69,0.39,1.431,0.74,2.221,1.01
				c-0.28,0.97-0.25,2.13,0.34,3.59c0.42,1.03,1.41,1.66,2.46,1.66c0.33,0,0.67-0.07,1-0.2c1.359-0.55,2.02-2.1,1.47-3.46
				c-0.04-0.09-0.06-0.16-0.08-0.21c0.16-0.19,0.431-0.49,0.67-0.73c0.23-0.25,0.49-0.53,0.78-0.85c0.07-0.08,0.13-0.16,0.19-0.24
				c3.3-1.62,5.3-5.11,5.46-8.43c0.029-0.63-0.021-1.23-0.131-1.78c7.521,5.61,16.511,10.12,25.75,11.09l0.11-1.07l0.12,1.1
				c8.98-0.95,17.69-5.36,25.01-10.93c-0.05,0.41-0.069,0.84-0.05,1.29c0.16,3.32,2.15,6.81,5.45,8.42c0.06,0.09,0.13,0.18,0.2,0.26
				c0.279,0.32,0.55,0.6,0.779,0.84c0.23,0.25,0.511,0.55,0.66,0.74c-0.01,0.05-0.04,0.12-0.069,0.21c-0.141,0.33-0.2,0.67-0.2,1
				C649.78,357.53,650.41,358.52,651.44,358.94z"/>
			<path style="fill:#231F20;" d="M652.84,334.74c-0.6,0.65-1.21,1.3-1.85,1.95c0-0.34-0.03-0.7-0.09-1.06l-4.08,0.62
				c-0.03-0.03-0.051-0.05-0.07-0.08l4.22-3.24C651.52,333.65,652.15,334.26,652.84,334.74z"/>
			<path style="fill:#231F20;" d="M650.99,336.69c0.01,1.06-0.21,2-0.521,2.85c-0.479-0.3-0.95-0.63-1.39-0.99
				C649.73,337.94,650.37,337.32,650.99,336.69z"/>
			<path style="fill:#231F20;" d="M650.9,335.63c0.06,0.36,0.09,0.72,0.09,1.06c-0.62,0.63-1.26,1.25-1.91,1.86
				c-0.83-0.66-1.59-1.43-2.26-2.3L650.9,335.63z"/>
			<path style="fill:#231F20;" d="M650.1,355.11c-0.01,0.09,0.021,0.23,0.061,0.31c-0.021-0.04-0.061-0.09-0.11-0.15
				C650.08,355.18,650.09,355.13,650.1,355.11z"/>
			<path style="fill:#231F20;" d="M647.06,255.16c0.16,0.02,0.271,0.01,0.351,0c-0.16,0.03-0.391,0.18-0.47,0.31
				C646.95,255.44,647,255.35,647.06,255.16z"/>
			<path style="fill:#231F20;" d="M646.82,336.25c0.67,0.87,1.43,1.64,2.26,2.3c-1.88,1.79-3.92,3.52-6.07,5.17
				c0.21-1.76,0.99-3.17,1.65-4.36c0.71-1.31,1.109-2.08,0.979-2.93L646.82,336.25z"/>
			<path style="fill:#231F20;" d="M628.46,218.6c0.03,0,0.07,0,0.11,0.01c-0.021-0.01-0.04-0.02-0.061-0.03
				c0.12-0.03,0.28-0.09,0.4-0.13c0.82-0.3,2.729-0.98,4.56,0.31c1.12,0.79,1.65,1.92,1.891,3.16l-15.53,0.03l-0.63-5.08
				c3.06,0.43,7.3,1.09,9.31,1.71C628.49,218.59,628.47,218.59,628.46,218.6z"/>
			<path style="fill:#231F20;" d="M631.52,225.04c-0.06,0.02-0.159,0.06-0.229,0.08c-0.64,0.23-1.64,0.59-2.88,0.58
				c0.05-0.31,0.07-0.65,0.07-1.03c0-0.91-0.051-1.28-0.07-1.38c0.07,0.26,0.399,0.94,1.189,1.4
				C630.38,225.15,631.17,225.12,631.52,225.04z"/>
			<path style="fill:#231F20;" d="M628.51,218.58c0.021,0.01,0.04,0.02,0.061,0.03c-0.04-0.01-0.08-0.01-0.11-0.01
				C628.47,218.59,628.49,218.59,628.51,218.58z"/>
			<path style="fill:#231F20;" d="M624.05,235.9c1.47,0,2.66,1.19,2.66,2.65c0,0.73-0.3,1.4-0.78,1.88
				c-0.479,0.48-1.149,0.78-1.88,0.78h-10.63c-1.47,0-2.66-1.19-2.66-2.66c0-0.73,0.3-1.39,0.78-1.87
				c0.479-0.48,1.14-0.78,1.88-0.78H624.05z"/>
			<path style="fill:#231F20;" d="M623.16,225.32c1.26,0,2.29,1.05,2.29,2.33c0,1.29-1.03,2.34-2.29,2.34s-2.28-1.05-2.28-2.34
				C620.88,226.37,621.9,225.32,623.16,225.32z M623.68,227.65c0-0.3-0.239-0.56-0.52-0.56c-0.271,0-0.51,0.26-0.51,0.56
				c0,0.31,0.239,0.56,0.51,0.56C623.44,228.21,623.68,227.96,623.68,227.65z"/>
			<path style="fill:#231F20;" d="M624.67,269.57c-0.1,0.14-0.2,0.29-0.3,0.45c-0.17,0.26-0.21,0.39-0.21,0.39
				c0.1-0.34-0.11-0.98-0.391-1.19C623.93,269.34,624.26,269.46,624.67,269.57z"/>
			<path style="fill:#231F20;" d="M619.83,221.95l0.229,1.81c-0.439,0.05-0.92,0.12-1.42,0.19c-0.01,0-0.01,0-0.01,0
				c-1.31-0.19-2.56-0.36-3.58-0.49l0.19-1.5L619.83,221.95z"/>
			<path style="fill:#231F20;" d="M619.2,216.87l0.63,5.08l-4.59,0.01l0.59-4.79c1.17-0.17,2.18-0.3,2.83-0.38
				C618.83,216.81,619.01,216.84,619.2,216.87z"/>
			<path style="fill:#231F20;" d="M619.18,216.72l0.021,0.15c-0.19-0.03-0.37-0.06-0.54-0.08
				C618.87,216.76,619.05,216.74,619.18,216.72z"/>
			<path style="fill:#231F20;" d="M618.51,347.57l-0.63,5.98l-0.63-5.95c0.24-0.03,0.49-0.05,0.73-0.1
				C618.16,347.53,618.33,347.55,618.51,347.57z"/>
			<path style="fill:#231F20;" d="M617.98,347.5c-0.24,0.05-0.49,0.07-0.73,0.1l0.63,5.95l-0.11,1.07
				c-9.239-0.97-18.229-5.48-25.75-11.09c-0.289-1.54-0.979-2.81-1.569-3.88c-0.72-1.3-1.12-2.08-0.99-2.93l-1.17-0.18
				c0.02-0.03,0.04-0.05,0.06-0.08l-4.22-3.23c-0.52,0.68-1.11,1.26-1.75,1.72c-1.08-1.14-2.09-2.28-3.01-3.4
				c0.64,0.43,1.16,0.85,1.399,1.22l4.44-2.94c-0.09-0.14-0.19-0.28-0.3-0.42l1.87-0.16C594.39,337.49,606.41,346.07,617.98,347.5z"
				/>
			<path style="fill:#231F20;" d="M617.5,268c0.8,1.97,0.52,3.56,0.11,4.58C617.17,271.62,616.76,270.03,617.5,268z"/>
			<path style="fill:#231F20;" d="M617.61,272.58c-0.07,0.19-0.15,0.37-0.23,0.52c-1.88,3.63-7.03,4.09-8.57,4.14l-0.119-7.08
				h-0.141c0.601-0.03,1.32-0.15,1.891-0.31c0.1,0.15,0.199,0.3,0.3,0.46c0.17,0.26,0.21,0.39,0.21,0.39
				c-0.101-0.34,0.1-0.97,0.38-1.19c-0.16,0.12-0.48,0.24-0.89,0.34c-2.091-3.2-2.721-3.39-11.7,0.07
				c-7.75,2.98-16.57,2.19-22.87,0.13c-0.23-1.85-0.74-3.76-1.29-5.6l3.01-0.66c-0.05-0.22-0.09-0.44-0.13-0.65
				c4.4,1.53,11.83,2.82,18.73,0.16c12.01-4.61,15.84-4.03,20.5,3.16c0.35,0.53,0.609,1.05,0.81,1.54
				C616.76,270.03,617.17,271.62,617.61,272.58z"/>
			<path style="fill:#231F20;" d="M616.99,374.01l-1.351,0.01c0.221-0.02,0.46-0.05,0.721-0.08
				C616.72,373.98,616.93,374,616.99,374.01z"/>
			<path style="fill:#231F20;" d="M615.92,216.43c0.47,0.06,1.47,0.18,2.74,0.36c-0.65,0.08-1.66,0.21-2.83,0.38L615.92,216.43z"/>
			<path style="fill:#231F20;" d="M615.83,217.17l-0.59,4.79l-15.45,0.03c0.26-1.15,0.79-2.2,1.84-2.94
				c1.83-1.29,3.75-0.6,4.561-0.31c0.119,0.04,0.279,0.1,0.399,0.13c-0.07,0.03-0.14,0.05-0.2,0.07c0.15-0.05,0.28-0.04,0.32-0.04
				c-0.03,0-0.07-0.01-0.12-0.03C608.59,218.26,612.78,217.6,615.83,217.17z"/>
			<path style="fill:#231F20;" d="M603.58,225.33c0.06,0.02,0.16,0.06,0.229,0.09c0.631,0.22,1.641,0.58,2.881,0.57
				c0.14,1.03,0.5,1.77,0.92,2.65c0.939,1.94,2.229,4.6,0.109,8.84c-0.569,1.15-1.13,3.32-1.729,5.63
				c-1.61,6.2-3.61,13.92-9.36,16.66c-4.37,2.08-8.57,3.8-11.979,2.07c-1.91-0.97-3.131-2.79-3.641-5.41
				c-0.26-0.4-1.59-1.08-2.6-0.71c-1.141,0.42-1.84,2.88-0.95,7.42c-1.9-0.67-3.229-1.38-3.7-1.85c-1.29-1.84-2.79-2.02-3.779-1.88
				c0.029-4.66,1.68-7.28,3.319-8.74c2.36-2.11,5.71-2.71,8.95-1.6c3.02,1.03,5.21,3.31,5.71,5.96c0.03,0.17,0.06,0.31,0.1,0.42
				c-0.159,0.03-0.279,0.02-0.359,0.01c0.149,0.02,0.38,0.18,0.47,0.3c-0.02-0.03-0.06-0.12-0.11-0.31
				c0.671-0.06,2.181-0.49,5.521-2.08c2.77-1.32,4.37-7.52,5.55-12.04c0.72-2.79,1.351-5.2,2.25-7.02
				c0.561-1.12,0.55-1.15-0.149-2.59c-0.671-1.4-1.7-3.51-1.7-6.76c0-0.98,0.029-2,0.26-2.97l15.45-0.03l-0.19,1.5
				c1.021,0.13,2.271,0.3,3.58,0.49c-3.57,0.47-8.52,1.22-10,1.72c-0.689,0.23-1.34,0.32-1.939,0.32
				c-0.051-0.31-0.07-0.65-0.07-1.03c0-1.05,0.08-1.39,0.08-1.4c-0.05,0.23-0.37,0.94-1.19,1.42
				C604.71,225.44,603.92,225.41,603.58,225.33z"/>
			<path style="fill:#231F20;" d="M612.53,225.61c1.26,0,2.279,1.05,2.279,2.34c0,1.28-1.02,2.33-2.279,2.33
				c-1.261,0-2.28-1.05-2.28-2.33C610.25,226.66,611.27,225.61,612.53,225.61z M613.04,227.95c0-0.31-0.23-0.56-0.51-0.56
				c-0.28,0-0.511,0.25-0.511,0.56c0,0.3,0.23,0.56,0.511,0.56C612.81,228.51,613.04,228.25,613.04,227.95z"/>
			<path style="fill:#231F20;" d="M611.33,269.51c-0.28,0.22-0.48,0.85-0.38,1.19c0,0-0.04-0.13-0.21-0.39
				c-0.101-0.16-0.2-0.31-0.3-0.46C610.85,269.75,611.17,269.63,611.33,269.51z"/>
			<path style="fill:#231F20;" d="M606.71,218.9c-0.04,0-0.17-0.01-0.32,0.04c0.061-0.02,0.13-0.04,0.2-0.07
				C606.64,218.89,606.68,218.9,606.71,218.9z"/>
			<path style="fill:#231F20;" d="M606.69,225.99c-1.24,0.01-2.25-0.35-2.881-0.57c-0.069-0.03-0.17-0.07-0.229-0.09
				c0.34,0.08,1.13,0.11,1.93-0.35c0.82-0.48,1.141-1.19,1.19-1.42c0,0.01-0.08,0.35-0.08,1.4
				C606.62,225.34,606.64,225.68,606.69,225.99z"/>
			<path style="fill:#FFFFFF;" d="M601.23,231.72c0.699,1.44,0.71,1.47,0.149,2.59c-0.899,1.82-1.53,4.23-2.25,7.02
				c-1.18,4.52-2.78,10.72-5.55,12.04c-3.34,1.59-4.85,2.02-5.521,2.08c-0.04-0.11-0.069-0.25-0.1-0.42
				c-0.5-2.65-2.69-4.93-5.71-5.96c-3.24-1.11-6.59-0.51-8.95,1.6c-1.64,1.46-3.29,4.08-3.319,8.74
				c-0.49,0.08-0.851,0.24-1.011,0.31c-2.77,1.31-2.01,4.06-1.52,5.64c0.01,0.05,0.03,0.09,0.04,0.14c1.6,5.15,1.6,7.03,1.319,7.69
				c-0.439,1.02-1.1,2.2-1.729,3.34c-1.79,3.2-3.33,5.95-2.41,8.7c0.43,1.31,1.39,2.36,2.7,2.94c1.13,0.5,2.46,0.61,4.14,0.75
				c3.76,0.31,6.271,0.8,7.7,2.15c-0.36-0.05-0.7-0.11-1.05-0.16c-3.43-0.52-6.98-1.06-11.391,1.08
				c-4.949,2.39-6.409,5.6-6.409,8.71h-4.54v-78.63l43.97-0.08c-0.23,0.97-0.26,1.99-0.26,2.97
				C599.53,228.21,600.56,230.32,601.23,231.72z"/>
			<path style="fill:#231F20;" d="M592.02,343.53c0.11,0.55,0.16,1.15,0.131,1.78c-0.16,3.32-2.16,6.81-5.46,8.43
				c0.319-0.46,0.479-0.99,0.479-1.52c0-0.73-0.3-1.46-0.89-1.99c-1.09-0.98-2.771-0.88-3.75,0.21c-0.24,0.27-0.46,0.51-0.681,0.74
				c-0.76,0.81-1.64,1.73-1.989,3c-0.79-0.27-1.53-0.62-2.221-1.01c0.37-0.37,0.78-0.78,1.19-1.26c0.42-0.5,0.62-1.1,0.62-1.71
				c0-0.75-0.32-1.51-0.95-2.03c-1.12-0.95-2.8-0.8-3.74,0.32c-0.34,0.4-0.71,0.76-1.109,1.15c-0.181,0.17-0.37,0.35-0.57,0.56
				c-0.21-0.08-0.49-0.12-0.84-0.17c-0.07-0.01-0.141-0.02-0.221-0.03c0,0,0,0-0.01,0c-0.29-0.35-0.58-0.7-0.859-1.05
				c0.05-0.37,0.109-0.8,0.18-1.03c1.229-0.28,2.07-1.38,2.07-2.59c0-0.17-0.011-0.34-0.051-0.51c0.771,0.13,1.79,0.34,2.83,0.98
				c0.681,0.41,1.34,0.88,1.98,1.34c1.64,1.17,3.189,2.27,4.7,2.2c2.37-0.11,3.88-2.27,3.97-4.27c0.04-0.84-0.37-1.64-1.04-2.86
				c-0.39-0.71-0.82-1.5-1.15-2.38c0.551-0.33,1.07-0.71,1.57-1.13C588.02,340.37,589.97,341.99,592.02,343.53z"/>
			<path style="fill:#231F20;" d="M592.02,343.53c-2.05-1.54-4-3.16-5.81-4.83c0.76-0.63,1.46-1.35,2.08-2.16l1.17,0.18
				c-0.13,0.85,0.271,1.63,0.99,2.93C591.04,340.72,591.73,341.99,592.02,343.53z"/>
			<path style="fill:#231F20;" d="M588.35,336.46c-0.02,0.03-0.04,0.05-0.06,0.08l-4.09-0.62c-0.04,0.28-0.07,0.55-0.07,0.81
				c-0.6-0.59-1.189-1.19-1.75-1.78c0.64-0.46,1.23-1.04,1.75-1.72L588.35,336.46z"/>
			<path style="fill:#231F20;" d="M584.2,335.92l4.09,0.62c-0.62,0.81-1.32,1.53-2.08,2.16c-0.72-0.64-1.41-1.3-2.08-1.97
				C584.13,336.47,584.16,336.2,584.2,335.92z"/>
			<path style="fill:#231F20;" d="M588.06,255.45c0.051,0.19,0.091,0.28,0.11,0.31c-0.09-0.12-0.32-0.28-0.47-0.3
				C587.78,255.47,587.9,255.48,588.06,255.45z"/>
			<path style="fill:#231F20;" d="M570.14,281.64c0.021,0.02,0.061,0.03,0.11,0.05c0.87,0.39,1.31,1.42,1.23,1.96
				c0.05-0.35,0.369-1.04,0.76-1.79c4.56,0.38,16.09,1.48,15.47,14.46c-0.29,6.25-3.06,10.58-5.29,14.06
				c-2.96,4.63-4.07,6.67-1.66,10.9c1.38,2.42,3.44,5.18,6.021,7.97l-1.87,0.16c-1.61-2.05-4.69-3.6-7.43-4.99
				c-1.08-0.54-2.2-1.11-2.66-1.45c-0.57-0.42-1.101-0.78-1.59-1.1c-2.4-6.54,0.569-11.16,3.22-15.31
				c1.939-3.04,3.79-5.93,4.13-9.96c0.64,0.07,1.31,0.12,2.02,0.14l0.2-5.31c-1.29-0.05-2.46-0.19-3.59-0.36
				c-1.43-1.35-3.94-1.84-7.7-2.15c-1.68-0.14-3.01-0.25-4.14-0.75c-1.311-0.58-2.271-1.63-2.7-2.94c-0.92-2.75,0.62-5.5,2.41-8.7
				c0.63-1.14,1.29-2.32,1.729-3.34c0.28-0.66,0.28-2.54-1.319-7.69c-0.01-0.05-0.03-0.09-0.04-0.14l0.41-0.13
				c0,0.01,0.01,0.01,0.02,0.02c0,0.01,0,0.01,0.01,0.02c0.011,0.01,0.021,0.03,0.04,0.06c1.11,1.67,4.04,3.44,7.94,4.72
				c0.28,2.13,0.2,4.18-0.55,5.93c-0.58,1.36-1.33,2.71-2.061,4.01c-0.31,0.55-0.689,1.23-1.02,1.87c-0.05,0-0.101-0.01-0.15-0.01
				C571.41,281.79,570.49,281.72,570.14,281.64z"/>
			<path style="fill:#EF3E23;" d="M585.79,342.21c0.67,1.22,1.08,2.02,1.04,2.86c-0.09,2-1.6,4.16-3.97,4.27
				c-1.511,0.07-3.061-1.03-4.7-2.2c-0.641-0.46-1.3-0.93-1.98-1.34c-1.04-0.64-2.06-0.85-2.83-0.98c-0.01-0.03-0.01-0.06-0.02-0.09
				c-0.07-0.32-0.2-0.61-0.38-0.87c0-0.01,0-0.01,0-0.01v-0.06v-0.08c0-1.15,1.93-1.82,5.729-2.01c2.11-0.1,4.15-0.75,5.96-1.87
				C584.97,340.71,585.4,341.5,585.79,342.21z"/>
			<path style="fill:#231F20;" d="M587.17,352.22c0,0.53-0.16,1.06-0.479,1.52c-1.061,0.52-2.261,0.85-3.57,0.91
				c-1.18,0.06-2.26-0.14-3.26-0.47c0.35-1.27,1.229-2.19,1.989-3c0.221-0.23,0.44-0.47,0.681-0.74c0.979-1.09,2.66-1.19,3.75-0.21
				C586.87,350.76,587.17,351.49,587.17,352.22z"/>
			<path style="fill:#231F20;" d="M586.69,353.74c-0.061,0.08-0.12,0.16-0.19,0.24c-0.29,0.32-0.55,0.6-0.78,0.85
				c-0.239,0.24-0.51,0.54-0.67,0.73c-0.04-0.11-0.04-0.16-0.04-0.16c0.01,0.08-0.02,0.24-0.069,0.31
				c0.02-0.04,0.06-0.09,0.109-0.15c0.021,0.05,0.04,0.12,0.08,0.21c0.55,1.36-0.11,2.91-1.47,3.46c-0.33,0.13-0.67,0.2-1,0.2
				c-1.05,0-2.04-0.63-2.46-1.66c-0.59-1.46-0.62-2.62-0.34-3.59c1,0.33,2.08,0.53,3.26,0.47
				C584.43,354.59,585.63,354.26,586.69,353.74z"/>
			<path style="fill:#231F20;" d="M586.21,338.7c-0.5,0.42-1.02,0.8-1.57,1.13c-0.34-0.91-0.569-1.94-0.51-3.1
				C584.8,337.4,585.49,338.06,586.21,338.7z"/>
			<path style="fill:#231F20;" d="M584.91,329.41c0.109,0.14,0.21,0.28,0.3,0.42l-4.44,2.94c-0.239-0.37-0.76-0.79-1.399-1.22
				c-1.98-2.39-3.601-4.69-4.78-6.77c-0.57-1.01-1.02-1.98-1.359-2.91c0.489,0.32,1.02,0.68,1.59,1.1c0.46,0.34,1.58,0.91,2.66,1.45
				C580.22,325.81,583.3,327.36,584.91,329.41z"/>
			<path style="fill:#231F20;" d="M585.01,355.4c0,0,0,0.05,0.04,0.16c-0.05,0.06-0.09,0.11-0.109,0.15
				C584.99,355.64,585.02,355.48,585.01,355.4z"/>
			<path style="fill:#231F20;" d="M584.64,339.83c-1.81,1.12-3.85,1.77-5.96,1.87c-3.8,0.19-5.729,0.86-5.729,2.01v0.08v0.06
				c-0.601-0.89-1.7-1.37-2.811-1.11c-1.109,0.25-1.92,0.72-2.52,1.31c0-0.16,0.01-0.33,0.02-0.5c0.12-6.64,8.13-7.03,10.771-7.16
				c1.43-0.07,2.79-0.57,3.97-1.44c0.561,0.59,1.15,1.19,1.75,1.78C584.07,337.89,584.3,338.92,584.64,339.83z"/>
			<path style="fill:#231F20;" d="M582.8,291.43l-0.2,5.31c-0.71-0.02-1.38-0.07-2.02-0.14c0.03-0.2,0.04-0.41,0.05-0.62
				c0.11-2.34-0.34-3.88-1.42-4.91C580.34,291.24,581.51,291.38,582.8,291.43z"/>
			<path style="fill:#FFFFFF;" d="M582.38,334.95c-1.18,0.87-2.54,1.37-3.97,1.44c-2.641,0.13-10.65,0.52-10.771,7.16
				c-0.01,0.17-0.02,0.34-0.02,0.5v0.01c-0.021,0.01-0.05,0.04-0.07,0.06c-8.77-12.7-11.28-23.87-11.729-26.2V300.7h4.54
				c0,2.93,1.279,5.77,2.189,7.77c0.37,0.81,0.431,3.92,0.46,5.77c0.05,2.74,0.09,5.1,0.62,6.69c0.71,2.11,2.26,2.92,3.9,3.78
				c1.06,0.56,2.38,1.25,4.14,2.54c0.811,0.61,2.021,1.22,3.41,1.92c1.229,0.62,3.02,1.53,4.29,2.38
				C580.29,332.67,581.3,333.81,582.38,334.95z"/>
			<path style="fill:#231F20;" d="M568.67,319.24c0-0.01,0-0.01,0-0.02c0.15,0.17,0.8,0.51,1.32,0.78c0.84,0.44,1.92,1,3.24,1.87
				c0.34,0.93,0.789,1.9,1.359,2.91c1.18,2.08,2.8,4.38,4.78,6.77c-1.271-0.85-3.061-1.76-4.29-2.38c-1.39-0.7-2.6-1.31-3.41-1.92
				c-1.76-1.29-3.08-1.98-4.14-2.54c-1.641-0.86-3.19-1.67-3.9-3.78c-0.53-1.59-0.57-3.95-0.62-6.69
				c-0.029-1.85-0.09-4.96-0.46-5.77c-0.91-2-2.189-4.84-2.189-7.77c0-3.11,1.46-6.32,6.409-8.71c4.41-2.14,7.961-1.6,11.391-1.08
				c0.35,0.05,0.689,0.11,1.05,0.16c1.08,1.03,1.53,2.57,1.42,4.91c-0.01,0.21-0.02,0.42-0.05,0.62c-1.17-0.12-2.24-0.28-3.22-0.43
				c-3.221-0.49-5.351-0.81-8.28,0.6c-3.811,1.85-4.49,3.32-1.68,9.51c0.819,1.81,0.869,4.76,0.93,7.87
				c0.03,1.79,0.07,4.23,0.33,5.07C568.66,319.22,568.67,319.23,568.67,319.24z"/>
			<path style="fill:#EF3E23;" d="M580.58,296.6c-0.34,4.03-2.19,6.92-4.13,9.96c-2.65,4.15-5.62,8.77-3.22,15.31
				c-1.32-0.87-2.4-1.43-3.24-1.87c-0.521-0.27-1.17-0.61-1.32-0.78c-0.01,0.01-0.01,0-0.01,0c-0.26-0.84-0.3-3.28-0.33-5.07
				c-0.061-3.11-0.11-6.06-0.93-7.87c-2.811-6.19-2.131-7.66,1.68-9.51c2.93-1.41,5.06-1.09,8.28-0.6
				C578.34,296.32,579.41,296.48,580.58,296.6z"/>
			<path style="fill:#231F20;" d="M579.45,350.2c0,0.61-0.2,1.21-0.62,1.71c-0.41,0.48-0.82,0.89-1.19,1.26
				c-0.939-0.54-1.79-1.14-2.569-1.7c-0.58-0.42-1.141-0.82-1.67-1.14c-0.091-0.06-0.2-0.1-0.32-0.13c0.2-0.21,0.39-0.39,0.57-0.56
				c0.399-0.39,0.77-0.75,1.109-1.15c0.94-1.12,2.62-1.27,3.74-0.32C579.13,348.69,579.45,349.45,579.45,350.2z"/>
			<path style="fill:#231F20;" d="M577.64,353.17c-0.1,0.1-0.199,0.2-0.3,0.3c-0.29,0.27-0.649,0.62-0.85,0.86
				c-0.021-0.06-0.04-0.12-0.07-0.18c-0.01-0.02-0.01-0.04-0.01-0.04c0.03,0.1,0.01,0.3-0.04,0.39c0.02-0.04,0.06-0.1,0.12-0.17
				c0.1,0.27,0.149,0.55,0.16,0.82c-1.45-1.48-2.79-2.96-4.051-4.44c0.16-0.18,0.33-0.35,0.48-0.51c0.12,0.03,0.229,0.07,0.32,0.13
				c0.529,0.32,1.09,0.72,1.67,1.14C575.85,352.03,576.7,352.63,577.64,353.17z"/>
			<path style="fill:#231F20;" d="M573.8,261.36c-0.01-0.03-0.03-0.05-0.04-0.07c0.471,0.47,1.8,1.18,3.7,1.85
				c0.04,0.21,0.08,0.43,0.13,0.65l-3.01,0.66c-0.1-0.35-0.21-0.7-0.32-1.05c-0.109-0.38-0.26-0.86-0.3-1
				c0.14,0.6,0.06,1.48-0.38,2.27l-2.91,0.63c-0.49-2.26-0.7-4.21-0.689-5.89c0.989-0.14,2.489,0.04,3.779,1.88
				c-0.02-0.01-0.029-0.02-0.04-0.03C573.72,261.26,573.76,261.3,573.8,261.36z"/>
			<path style="fill:#231F20;" d="M576.65,355.15c0.02,1.05-0.57,2.06-1.591,2.51c-0.35,0.15-0.71,0.23-1.069,0.23
				c-1.021,0-1.99-0.6-2.431-1.59c-1.09-2.48-0.079-4.3,1.04-5.59C573.86,352.19,575.2,353.67,576.65,355.15z"/>
			<path style="fill:#231F20;" d="M576.42,354.15c0.03,0.06,0.05,0.12,0.07,0.18c-0.061,0.07-0.101,0.13-0.12,0.17
				c0.05-0.09,0.07-0.29,0.04-0.39C576.41,354.11,576.41,354.13,576.42,354.15z"/>
			<path style="fill:#231F20;" d="M574.58,264.45c0.55,1.84,1.06,3.75,1.29,5.6c-3.9-1.28-6.83-3.05-7.94-4.72
				c-0.02-0.03-0.029-0.05-0.04-0.06c0.65,0.84,2.36,1.67,4.091,0.86c0.75-0.35,1.27-0.88,1.6-1.46L574.58,264.45z"/>
			<path style="fill:#231F20;" d="M574.58,264.45l-1,0.22c0.439-0.79,0.52-1.67,0.38-2.27c0.04,0.14,0.19,0.62,0.3,1
				C574.37,263.75,574.48,264.1,574.58,264.45z"/>
			<path style="fill:#231F20;" d="M573.76,261.29c0.01,0.02,0.03,0.04,0.04,0.07c-0.04-0.06-0.08-0.1-0.08-0.1
				C573.73,261.27,573.74,261.28,573.76,261.29z"/>
			<path style="fill:#231F20;" d="M570.67,265.3l2.91-0.63c-0.33,0.58-0.85,1.11-1.6,1.46c-1.73,0.81-3.44-0.02-4.091-0.86
				c-0.01-0.01-0.01-0.01-0.01-0.02c-0.01-0.01-0.02-0.01-0.02-0.02l-0.41,0.13c-0.49-1.58-1.25-4.33,1.52-5.64
				c0.16-0.07,0.521-0.23,1.011-0.31C569.97,261.09,570.18,263.04,570.67,265.3z"/>
			<path style="fill:#231F20;" d="M572.99,345.19c-0.01-0.04-0.04-0.16-0.05-0.43c0.029,0,0.05,0.01,0.069,0.01
				c0.11,0.02,0.221,0.03,0.34,0.05c0.04,0.17,0.051,0.34,0.051,0.51c0,1.21-0.841,2.31-2.07,2.59c0.02-0.05,0.03-0.09,0.05-0.12
				c-0.03,0.04-0.09,0.11-0.14,0.15c0.02-0.01,0.05-0.02,0.09-0.03c-0.07,0.23-0.13,0.66-0.18,1.03c-1.28-1.59-2.46-3.18-3.54-4.74
				c0-0.05,0-0.1,0.01-0.15v-0.01c0.6-0.59,1.41-1.06,2.52-1.31c1.11-0.26,2.21,0.22,2.811,1.11c0,0,0,0,0,0.01
				c-0.021,0.4-0.021,0.7-0.01,0.9c-0.19-0.03-0.421-0.06-0.5-0.09C572.64,344.74,572.91,344.99,572.99,345.19z"/>
			<path style="fill:#231F20;" d="M573.33,344.73c0.01,0.03,0.01,0.06,0.02,0.09c-0.119-0.02-0.229-0.03-0.34-0.05
				c-0.02,0-0.04-0.01-0.069-0.01c-0.011-0.2-0.011-0.5,0.01-0.9C573.13,344.12,573.26,344.41,573.33,344.73z"/>
			<path style="fill:#231F20;" d="M572.94,344.76c0.01,0.27,0.04,0.39,0.05,0.43c-0.08-0.2-0.351-0.45-0.55-0.52
				C572.52,344.7,572.75,344.73,572.94,344.76z"/>
			<path style="fill:#231F20;" d="M572.24,281.86c-0.391,0.75-0.71,1.44-0.76,1.79c0.079-0.54-0.36-1.57-1.23-1.96
				c-0.05-0.02-0.09-0.03-0.11-0.05c0.351,0.08,1.271,0.15,1.95,0.21C572.14,281.85,572.19,281.86,572.24,281.86z"/>
			<path style="fill:#231F20;" d="M571.15,348.95c0.279,0.35,0.569,0.7,0.859,1.05c-0.319-0.06-0.64-0.13-0.96-0.21
				c0.03-0.21,0.061-0.41,0.08-0.6C571.14,349.12,571.15,349.04,571.15,348.95z"/>
			<path style="fill:#231F20;" d="M571.38,347.8c-0.02,0.03-0.03,0.07-0.05,0.12c-0.04,0.01-0.07,0.02-0.09,0.03
				C571.29,347.91,571.35,347.84,571.38,347.8z"/>
			<path style="fill:#231F20;" d="M571.15,348.95c0,0.09-0.011,0.17-0.021,0.24c-0.02,0.19-0.05,0.39-0.08,0.6
				c-1.88-0.54-3.479-1.85-3.439-5.58C568.69,345.77,569.87,347.36,571.15,348.95z"/>
			<path style="fill:#231F20;" d="M571.05,349.79c-0.05,0.41-0.12,0.85-0.229,1.31c-0.33,1.43-1.761,2.32-3.19,1.99
				c-1.229-0.28-2.06-1.38-2.06-2.59c0-0.2,0.02-0.4,0.069-0.6c0.091-0.41,0.15-0.86,0.21-1.35c0.141-1.19,0.37-3.08,1.7-4.43
				c0.021,0.03,0.04,0.06,0.061,0.09C567.57,347.94,569.17,349.25,571.05,349.79z"/>
			<path style="fill:#231F20;" d="M568.67,319.22c0,0.01,0,0.01,0,0.02c0-0.01-0.01-0.02-0.01-0.02S568.66,319.23,568.67,319.22z"/>
			<path style="fill:#231F20;" d="M567.62,344.06c-0.01,0.05-0.01,0.1-0.01,0.15c-0.021-0.03-0.04-0.06-0.061-0.09
				C567.57,344.1,567.6,344.07,567.62,344.06z"/>
			<path style="fill:#231F20;" d="M555.82,317.92v0.59l-0.08-1.04C555.74,317.49,555.77,317.64,555.82,317.92z"/>
			<polygon style="fill:#231F20;" points="555.82,214.99 555.82,222.07 548.74,222.08 			"/>
			<polygon style="fill:#ED1E29;" points="443.93,311.33 443.93,321.1 356.65,265.8 356.65,264.83 374.09,264.83 374.09,265.8 
				443.85,311.33 			"/>
			<polygon style="fill:#FFFFFF;" points="443.93,301.65 443.93,311.33 443.85,311.33 374.09,265.8 374.09,264.83 387.65,264.83 
				387.65,265.8 443.85,301.65 			"/>
			<polygon style="fill:#394EA1;" points="443.93,264.83 443.93,301.65 443.85,301.65 387.65,265.8 387.65,264.83 443.85,264.83 			
				"/>
			<polygon style="fill:#FFFFFF;" points="443.93,250.3 443.93,264.83 443.85,264.83 387.65,264.83 374.09,264.83 356.65,264.83 
				339.21,264.83 339.21,271.61 339.21,320.05 339.21,321.1 324.68,321.1 324.68,319.08 324.68,250.3 443.85,250.3 			"/>
			<polygon style="fill:#ED1E29;" points="443.93,212.25 443.93,250.3 443.85,250.3 324.68,250.3 324.68,319.08 324.68,321.1 
				278.88,321.1 278.88,321.02 278.88,249.33 168.73,249.33 168.73,213.22 276.94,213.22 276.94,146.1 324.68,146.1 324.68,212.25 
							"/>
			<polygon style="fill:#FFFFFF;" points="358.98,197.72 381.84,197.72 443.93,197.72 443.93,212.25 324.68,212.25 324.68,146.1 
				339.21,146.1 339.21,191.19 339.21,197.72 344.05,197.72 			"/>
			<polygon style="fill:#394EA1;" points="443.93,158.25 443.93,197.72 381.84,197.72 381.84,197.01 443.85,158.25 			"/>
			<polygon style="fill:#FFFFFF;" points="443.93,146.1 443.93,158.25 443.85,158.25 381.84,197.01 381.84,197.72 358.98,197.72 
				436.4,146.1 			"/>
			<polygon style="fill:#FFFFFF;" points="443.93,141.08 443.93,146.1 436.4,146.1 			"/>
			<polygon style="fill:#ED1E29;" points="443.93,137.1 443.93,141.08 436.4,146.1 420.84,146.1 433.19,137.91 433.19,137.1 			"/>
			<polygon style="fill:#FFFFFF;" points="443.93,321.1 418.66,321.1 418.66,320.05 339.21,271.61 339.21,264.83 356.65,264.83 
				356.65,265.8 			"/>
			<polygon style="fill:#ED1E29;" points="436.4,146.1 358.98,197.72 344.05,197.72 344.05,197.01 420.84,146.1 			"/>
			<polygon style="fill:#FFFFFF;" points="433.19,137.1 433.19,137.91 420.84,146.1 409.05,146.1 421.56,137.91 421.56,137.1 			"/>
			<polygon style="fill:#394EA1;" points="421.56,137.1 421.56,137.91 409.05,146.1 339.21,146.1 339.21,137.1 			"/>
			<polygon style="fill:#FFFFFF;" points="420.84,146.1 344.05,197.01 344.05,197.72 339.21,197.72 339.21,191.19 340.18,191.19 
				409.05,146.1 			"/>
			<polygon style="fill:#394EA1;" points="418.66,320.05 418.66,321.1 339.21,321.1 339.21,320.05 339.21,271.61 			"/>
			<polygon style="fill:#394EA1;" points="409.05,146.1 340.18,191.19 339.21,191.19 339.21,146.1 			"/>
			<rect x="324.68" y="137.1" style="fill:#FFFFFF;" width="14.53" height="9"/>
			<rect x="276.94" y="137.1" style="fill:#231F20;" width="47.74" height="9"/>
			<polygon style="fill:#FFFFFF;" points="278.88,321.02 278.88,321.1 267.43,321.1 265.31,321.1 265.31,320.05 265.31,276.45 
				265.31,268.36 265.31,262.89 254.92,262.89 229.73,262.89 168.73,262.89 168.73,249.33 278.88,249.33 			"/>
			<polygon style="fill:#FFFFFF;" points="276.94,146.1 276.94,213.22 168.73,213.22 168.73,198.68 216.16,198.68 227.79,198.68 
				245.23,198.68 262.41,198.68 262.41,193.13 262.41,146.1 			"/>
			<rect x="262.41" y="137.1" style="fill:#231F20;" width="14.53" height="9"/>
			<polygon style="fill:#394EA1;" points="265.31,320.05 265.31,321.1 187.1,321.1 187.1,321.02 263.64,276.45 265.31,276.45 			"/>
			<polygon style="fill:#FFFFFF;" points="265.31,268.36 265.31,276.45 263.64,276.45 187.1,321.02 187.1,321.1 178.38,321.1 
				178.38,319.08 264.66,268.36 			"/>
			<polygon style="fill:#ED1E29;" points="265.31,262.89 265.31,268.36 264.66,268.36 178.38,319.08 178.38,321.1 168.73,321.1 
				168.73,313.11 254.92,263.86 254.92,262.89 			"/>
			<polygon style="fill:#FFFFFF;" points="262.41,193.13 262.41,198.68 245.23,198.68 245.23,197.98 173.84,146.1 198.99,146.1 
				261.7,193.13 			"/>
			<polygon style="fill:#394EA1;" points="262.41,146.1 262.41,193.13 261.7,193.13 198.99,146.1 			"/>
			<polygon style="fill:#394EA1;" points="262.41,137.1 262.41,146.1 198.99,146.1 188.07,137.91 188.07,137.1 			"/>
			<polygon style="fill:#FFFFFF;" points="254.92,262.89 254.92,263.86 168.73,313.11 168.73,298.11 229.73,262.89 			"/>
			<polygon style="fill:#ED1E29;" points="245.23,197.98 245.23,198.68 227.79,198.68 227.79,197.98 168.73,155.18 168.73,146.1 
				173.84,146.1 			"/>
			<polygon style="fill:#394EA1;" points="229.73,262.89 168.73,298.11 168.73,262.89 			"/>
			<polygon style="fill:#FFFFFF;" points="227.79,197.98 227.79,198.68 216.16,198.68 216.16,197.98 168.73,163.85 168.73,155.18 
							"/>
			<polygon style="fill:#394EA1;" points="216.16,197.98 216.16,198.68 168.73,198.68 168.73,163.85 			"/>
			<polygon style="fill:#FFFFFF;" points="198.99,146.1 173.84,146.1 168.73,142.38 168.73,137.1 188.07,137.1 188.07,137.91 			"/>
			<polygon style="fill:#231F20;" points="168.73,142.38 173.84,146.1 168.73,146.1 			"/>
			<path style="fill:#231F20;" d="M137.05,46.26c27.78,0,49.55,17.13,49.55,38.99c0,12.31-6.89,23.11-17.87,30.21v-8.21h-7.13
				c8.76-5.19,14.36-13.12,14.36-22c0-15.66-17.41-28.36-38.91-28.36c-21.49,0-38.9,12.7-38.9,28.36c0,13.7,13.33,25.14,31.06,27.78
				l-0.65,3.68h-10.64h-10.48c-12.17-7.03-19.93-18.4-19.93-31.46C87.51,63.39,109.27,46.26,137.05,46.26z"/>
			<polygon style="fill:#231F20;" points="158.1,784.34 158.1,318.12 159.97,318.12 168.73,313.11 168.73,321.1 168.73,511.18 
				164.15,511.18 164.15,532.45 168.73,532.45 168.73,791.58 158.1,791.58 			"/>
			<rect x="164.15" y="511.18" style="fill:#231F20;" width="4.58" height="21.271"/>
			<polygon style="fill:#231F20;" points="168.73,298.11 168.73,313.11 159.97,318.12 158.1,318.12 158.1,302.61 160.94,302.61 			
				"/>
			<polygon style="fill:#231F20;" points="168.73,262.89 168.73,298.11 160.94,302.61 158.1,302.61 158.1,262.89 159,262.89 			"/>
			<polygon style="fill:#231F20;" points="168.73,249.33 168.73,262.89 159,262.89 158.1,262.89 158.1,249.33 159.97,249.33 			"/>
			<polygon style="fill:#231F20;" points="168.73,213.22 168.73,249.33 159.97,249.33 158.1,249.33 158.1,213.22 159.97,213.22 			
				"/>
			<polygon style="fill:#231F20;" points="168.73,198.68 168.73,213.22 159.97,213.22 158.1,213.22 158.1,198.68 159.97,198.68 			
				"/>
			<path style="fill:#231F20;" d="M168.73,163.85v34.83h-8.76h-1.87v-78.01c3.85-1.38,7.42-3.14,10.63-5.21v9.37h-8.13v12.27v9h8.13
				v9.08V163.85z"/>
			<polygon style="fill:#231F20;" points="168.73,142.38 168.73,146.1 160.6,146.1 160.6,137.1 161.46,137.1 			"/>
			<polygon style="fill:#FFFFFF;" points="168.73,137.1 168.73,142.38 161.46,137.1 			"/>
			<polygon style="fill:#231F20;" points="168.73,124.83 168.73,137.1 161.46,137.1 160.6,137.1 160.6,124.83 			"/>
			<path style="fill:#231F20;" d="M168.73,107.25v8.21c-3.21,2.07-6.78,3.83-10.63,5.21V109.1c1.22-0.56,2.38-1.18,3.5-1.85H168.73z
				"/>
			<path style="fill:#231F20;" d="M137.05,56.89c21.5,0,38.91,12.7,38.91,28.36c0,8.88-5.6,16.81-14.36,22h-3.5h-10.64v5.33
				c-3.31,0.67-6.8,1.03-10.41,1.03c-2.69,0-5.31-0.2-7.84-0.58c-17.73-2.64-31.06-14.08-31.06-27.78
				C98.15,69.59,115.56,56.89,137.05,56.89z M165.33,85.25c0-9.44-13.21-17.72-28.28-17.72c-15.06,0-28.27,8.28-28.27,17.72
				s13.21,17.73,28.27,17.73C152.12,102.98,165.33,94.69,165.33,85.25z"/>
			<path style="fill:#231F20;" d="M158.1,107.25h3.5c-1.12,0.67-2.28,1.29-3.5,1.85V107.25z"/>
			<polygon style="fill:#231F20;" points="158.1,784.34 158.1,791.58 147.46,791.58 147.46,786.26 			"/>
			<path style="fill:#231F20;" d="M158.1,318.12v466.22l-10.64,1.92V123.41c3.73-0.6,7.29-1.53,10.64-2.74v78.01v14.54v36.11v13.56
				v39.72V318.12z"/>
			<path style="fill:#231F20;" d="M158.1,109.1v11.57c-3.35,1.21-6.91,2.14-10.64,2.74v-10.83
				C151.28,111.82,154.85,110.63,158.1,109.1z"/>
			<path style="fill:#231F20;" d="M158.1,107.25v1.85c-3.25,1.53-6.82,2.72-10.64,3.48v-5.33H158.1z"/>
			<path style="fill:#C8C8C8;" d="M137.05,67.53c15.07,0,28.28,8.28,28.28,17.72s-13.21,17.73-28.28,17.73
				c-15.06,0-28.27-8.29-28.27-17.73S121.99,67.53,137.05,67.53z"/>
			<path style="fill:#C8C8C8;" d="M147.46,123.41v662.85l-18.9,3.4V123.69c2.75,0.36,5.59,0.55,8.49,0.55
				C140.63,124.24,144.11,123.96,147.46,123.41z"/>
			<path style="fill:#231F20;" d="M147.46,112.58v10.83c-3.35,0.55-6.83,0.83-10.41,0.83c-2.9,0-5.74-0.19-8.49-0.55v-6.98
				l0.65-3.68c2.53,0.38,5.15,0.58,7.84,0.58C140.66,113.61,144.15,113.25,147.46,112.58z"/>
			<polygon style="fill:#231F20;" points="128.56,789.66 128.56,791.58 117.92,791.58 			"/>
			<path style="fill:#231F20;" d="M128.56,123.69v665.97l-10.64,1.92V121.33C121.29,122.41,124.85,123.21,128.56,123.69z"/>
			<path style="fill:#231F20;" d="M128.56,116.71v6.98c-3.71-0.48-7.27-1.28-10.64-2.36v-4.62H128.56z"/>
			<path style="fill:#231F20;" d="M117.92,121.33v670.25h-10.63V116.71h0.15C110.65,118.57,114.16,120.13,117.92,121.33z"/>
			<path style="fill:#231F20;" d="M117.92,116.71v4.62c-3.76-1.2-7.27-2.76-10.48-4.62H117.92z"/>
		</g>
		<g>
			<polyline style="fill:none;stroke:#231F20;stroke-width:10.1731;" points="267.43,321.1 265.31,321.1 187.1,321.1 178.38,321.1 
				168.73,321.1 163.15,321.1 			"/>
			<polyline style="fill:none;stroke:#231F20;stroke-width:10.1731;" points="161.46,137.1 168.73,137.1 188.07,137.1 262.41,137.1 
				276.94,137.1 324.68,137.1 339.21,137.1 421.56,137.1 433.19,137.1 443.93,137.1 443.93,141.08 443.93,146.1 443.93,158.25 
				443.93,197.72 443.93,212.25 443.93,250.3 443.93,264.83 443.93,301.65 443.93,311.33 443.93,321.1 418.66,321.1 339.21,321.1 
				324.68,321.1 278.88,321.1 267.43,321.1 			"/>
			<polyline style="fill:none;stroke:#231F20;stroke-width:3.391;" points="444.81,212.25 443.93,212.25 324.68,212.25 
				324.68,146.1 324.68,137.1 324.68,135 			"/>
			<polyline style="fill:none;stroke:#231F20;stroke-width:3.391;" points="276.94,135.97 276.94,137.1 276.94,146.1 276.94,213.22 
				168.73,213.22 159.97,213.22 			"/>
			<polyline style="fill:none;stroke:#231F20;stroke-width:3.391;" points="159.97,249.33 168.73,249.33 278.88,249.33 
				278.88,321.02 			"/>
			<polyline style="fill:none;stroke:#231F20;stroke-width:3.391;" points="324.68,319.08 324.68,250.3 443.85,250.3 			"/>
			<polyline style="fill:none;stroke:#231F20;stroke-width:3.391;" points="262.41,135 262.41,137.1 262.41,146.1 262.41,193.13 
				262.41,198.68 245.23,198.68 227.79,198.68 216.16,198.68 168.73,198.68 159.97,198.68 			"/>
			<polyline style="fill:none;stroke:#231F20;stroke-width:3.391;" points="444.81,197.72 443.93,197.72 381.84,197.72 
				358.98,197.72 344.05,197.72 339.21,197.72 339.21,191.19 339.21,146.1 339.21,137.1 339.21,135 			"/>
			<polyline style="fill:none;stroke:#231F20;stroke-width:3.391;" points="159,262.89 168.73,262.89 229.73,262.89 254.92,262.89 
				265.31,262.89 265.31,268.36 265.31,276.45 265.31,320.05 			"/>
			<polyline style="fill:none;stroke:#231F20;stroke-width:3.391;" points="339.21,320.05 339.21,271.61 339.21,264.83 
				356.65,264.83 374.09,264.83 387.65,264.83 443.85,264.83 			"/>
			<polyline style="fill:none;stroke:#231F20;stroke-width:3.391;" points="188.07,137.91 198.99,146.1 261.7,193.13 			"/>
			<polyline style="fill:none;stroke:#231F20;stroke-width:3.391;" points="161.46,137.1 168.73,142.38 173.84,146.1 245.23,197.98 
							"/>
			<polyline style="fill:none;stroke:#231F20;stroke-width:3.391;" points="160.94,149.53 168.73,155.18 227.79,197.98 			"/>
			<polyline style="fill:none;stroke:#231F20;stroke-width:3.391;" points="160.94,158.25 168.73,163.85 216.16,197.98 			"/>
			<polyline style="fill:none;stroke:#231F20;stroke-width:3.391;" points="340.18,191.19 409.05,146.1 421.56,137.91 			"/>
			<polyline style="fill:none;stroke:#231F20;stroke-width:3.391;" points="344.05,197.01 420.84,146.1 433.19,137.91 			"/>
			<polyline style="fill:none;stroke:#231F20;stroke-width:3.391;" points="358.59,197.98 358.98,197.72 436.4,146.1 443.93,141.08 
				445.78,139.85 			"/>
			<line style="fill:none;stroke:#231F20;stroke-width:3.391;" x1="381.84" y1="197.01" x2="443.85" y2="158.25"/>
			<line style="fill:none;stroke:#231F20;stroke-width:3.391;" x1="178.38" y1="319.08" x2="264.66" y2="268.36"/>
			<polyline style="fill:none;stroke:#231F20;stroke-width:3.391;" points="159.97,318.12 168.73,313.11 254.92,263.86 			"/>
			<line style="fill:none;stroke:#231F20;stroke-width:3.391;" x1="263.64" y1="276.45" x2="187.1" y2="321.02"/>
			<polyline style="fill:none;stroke:#231F20;stroke-width:3.391;" points="160.94,302.61 168.73,298.11 229.73,262.89 			"/>
			<line style="fill:none;stroke:#231F20;stroke-width:3.391;" x1="443.93" y1="321.1" x2="356.65" y2="265.8"/>
			<line style="fill:none;stroke:#231F20;stroke-width:3.391;" x1="339.21" y1="271.61" x2="418.66" y2="320.05"/>
			<line style="fill:none;stroke:#231F20;stroke-width:3.391;" x1="374.09" y1="265.8" x2="443.85" y2="311.33"/>
			<line style="fill:none;stroke:#231F20;stroke-width:3.391;" x1="387.65" y1="265.8" x2="443.85" y2="301.65"/>
		</g>
	</g>
</g>
<rect style="fill:none;" width="850.394" height="850.394"/>
</svg>
