<svg xmlns="http://www.w3.org/2000/svg" width="850.394" height="850.394" viewBox="0 0 850.394 850.394" overflow="visible"><path d="M120.85 112.58c-12.03-4.76-20.2-14.06-20.2-24.74 0-15.54 17.28-28.14 38.61-28.14 21.32 0 38.61 12.6 38.61 28.14 0 9.93-7.06 18.66-17.73 23.66-6.02 2.84-13.19 4.48-20.88 4.48-6.66 0-12.93-1.23-18.41-3.4z" fill="#c8c8c8"/><path d="M160.14 520v268.78h-39.87L120 116l.85-3.42c5.48 2.17 11.75 3.4 18.41 3.4 7.69 0 14.86-1.64 20.88-4.48V520z" fill="#c8c8c8"/><path d="M751.21 137.67v383.41l-314.8-.57-.101-89.92c43.391-15.01 74.551-56.24 74.551-104.74 0-48.58-31.271-89.86-74.771-104.81L436 140v-2.33h315.21z" fill="#2c308c"/><path d="M436.09 221.04c43.5 14.95 74.771 56.23 74.771 104.81 0 48.5-31.16 89.73-74.551 104.74l-.22-209.55z" fill="#2c308c"/><path d="M436.31 430.59l.101 89.92-36.35-.069-.01-83.78h.01c12.689-.001 24.889-2.141 36.249-6.071zM436 140l.09 81.04c-11.3-3.88-23.42-5.99-36.03-5.99h-.05L400 140v-2.33h36V140z" fill="#fbee34"/><path d="M436.31 430.59c-11.359 3.93-23.56 6.07-36.25 6.07h-.01l-.04-221.61h.05c12.61 0 24.73 2.11 36.03 5.99l.22 209.55z" fill="#fbee34"/><path d="M400.05 436.66l.01 83.78-35.76-.061-.07-89.64c11.23 3.841 23.28 5.921 35.82 5.921z" fill="#33a048"/><path d="M400.01 215.05l.04 221.61c-12.54 0-24.59-2.08-35.82-5.92l-.17-209.71c11.27-3.87 23.36-5.97 35.95-5.98z" fill="#33a048"/><path d="M400 140l.01 75.05c-12.59.01-24.68 2.11-35.95 5.98L364 142v-4.33h36V140z" fill="#33a048"/><path d="M364.23 430.74l.07 89.64-204.16-.38V137.67H364V142l.06 79.03c-43.53 14.94-74.81 56.23-74.81 104.82 0 48.66 31.36 89.99 74.98 104.89z" fill="#ed1d31"/><path d="M364.06 221.03l.17 209.71c-43.62-14.9-74.98-56.23-74.98-104.89 0-48.59 31.28-89.88 74.81-104.82z" fill="#ed1d31"/><g fill="none"><path stroke="#231f20" stroke-width="21" d="M162.62 137.67H751.21v383.41l-314.8-.57-36.35-.07-35.76-.06-204.16-.38H158M120.85 112.58c-12.03-4.76-20.2-14.06-20.2-24.74 0-15.54 17.28-28.14 38.61-28.14 21.32 0 38.61 12.6 38.61 28.14 0 9.93-7.06 18.66-17.73 23.66-6.02 2.84-13.19 4.48-20.88 4.48-6.66 0-12.93-1.23-18.41-3.4zM120 116l.27 672.78M160.14 109.67V788.78"/><path stroke="#231f20" stroke-width="7" d="M436 140l.09 81.04.22 209.55.1 89.92v4.08"/><path d="M400.06 215.05c12.61 0 24.73 2.11 36.03 5.99 43.5 14.95 74.771 56.23 74.771 104.81 0 48.5-31.16 89.73-74.551 104.74-11.359 3.93-23.56 6.07-36.25 6.07" stroke="#ed1d31" stroke-width="21.105"/><path stroke="#231f20" stroke-width="7" d="M400 140l.01 75.05.04 221.61.01 83.78v4.15M364 142l.06 79.03.17 209.71.07 89.64v3.05"/><path d="M400.06 436.66h-.01c-12.54 0-24.59-2.08-35.82-5.92-43.62-14.9-74.98-56.23-74.98-104.89 0-48.59 31.28-89.88 74.81-104.82 11.27-3.87 23.36-5.97 35.95-5.98h.05" stroke="#2c308c" stroke-width="21.105"/></g><path fill="none" d="M0 0h850.394v850.394H0z"/></svg>