<svg xmlns="http://www.w3.org/2000/svg" width="850.89" height="850.89" viewBox="0 0 850.89 850.89" overflow="visible"><path d="M596.06 330.09v.16h-11.07c-.01-.06-.021-.11-.03-.17l11.1.01z" fill="#58b947"/><path d="M601.6 330.09c0 .05 0 .1-.01.16h-5.53v-.16h5.54z" fill="#ed1e29"/><path d="M584.96 330.08c.01.06.021.11.03.17h-.971c.011-.06.021-.11.021-.17h.92z" fill="#58b947"/><path d="M584.96 330.08c-.17-.84-.34-1.68-.53-2.5 1.96-9.76 7.87-9.83 12.21-6.6-.54 2.92-.729 6.04-.58 9.11l-11.1-.01z" fill="#fff"/><path d="M596.06 330.09c-.149-3.07.04-6.19.58-9.11 2.95 2.17 5.181 5.88 4.96 9.11h-5.54z" fill="#fff"/><path d="M748.43 177.71v152.54h-.18l-100.39-.11c3.42-9.09 2.52-19.97-5.37-29.93 9.12-3.55 14.46-10.91 20.75-17.3 7.14 2.1 12.569 5.89 20.77 6.93 4.721-25.89-1.74-52.94-19.04-62.29 2.37 23.52-18.189 36.46-31.14 50.18 4.43.17 8.25.97 10.39 3.45-6.09 4.88-13.41 8.51-20.77 12.12-24.25-13.25-51.22 7-72.681 0 4.33-8.36 16.921-8.47 29.421-8.66-2.271-24.76 21.949-23.04 36.34-31.14-5.311-25.5 10.59-29.79 22.489-38.07-11.829-9.93-44.92-4.43-62.289-3.47 1.659-5.26 10.34-3.5 8.649-12.11-65.75 6.36-115.28 28.92-157.46 58.84-1.87 11.68 3.04 16.57 5.19 24.22.85 22.51-28.87 31.17-29.41 3.46 1.57-3.04 6.06-3.16 8.64-5.19.51-7.43-8.15-5.69-8.64-12.11 2.6-3.16 7.46-4.07 10.38-6.93-.02-7.48-8.16-6.82-10.38-12.11 6.76 1.01 10.04-1.48 13.84-3.46.78-7.12-6.2-6.49-6.93-12.11 6.61-2.62 9.7-8.77 10.39-17.3-25.81 1.5-45.95-6.68-72.68-8.65-1.78 20.99-34.23.6-43.25 13.84.82 19.88 25.52 21.38 39.79 22.49-4.88 12.07-33 11.14-36.34-1.72-9.28 7.06-24.85 3.82-31.14 1.72 1.72 13.93 12.41 21.9 27.69 17.3 5.39 5.77.46 9.04 0 17.31 4.14 1.23 7.49-.3 12.11 3.46 7.73-8.11 17.9-7.84 29.41-5.18-7.21-.78-13.41 6.45-15.57 15.57-10.61-1.39-11.62 6.84-12.11 15.57-13.24-1.13-12.97 11.26-19.04 17.3-26.5-6.04-37.08-34.36-25.96-64.03-5.76-3.39-11.2-14.6-17.3-12.11-.63 7 4.52 9.88-5.18 8.66-.56 2.17-.51 4.14-.14 5.98l-1.92.47c-.24-1.08-.68-2.09-1.41-3-6.15-.8-11.09-1.35-22.5-3.45 2.74 10.23-6.06 8.92-5.19 17.29 6.61 4.94 19.13 3.96 20.77 13.86-4.99-.78-5.42-6.13-12.11-5.2-2.96 5.69-13.4 3.91-15.57 10.39 5.35 3.87 11.26 7.18 13.84 13.84.72-.22 1.65-.5 2.72-.77l.12 2.37c-.36.02-.73.06-1.11.13 4.09 11.01-10.12 3.71-10.38 10.38 6.08 3.72 13.96 5.65 20.76 8.66v.07l23.2.03.12.51h-95.57l-1.74-189.66h583.11v37.12z" fill="#fff"/><path d="M262.51 329.74c-.27-1.19-.51-2.38-.71-3.57-7.24-3.28-19.18-2.29-22.49 3.47-6.8-3.01-14.68-4.94-20.76-8.66.26-6.67 14.47.63 10.38-10.38.38-.07.75-.11 1.11-.13 6.78-.36 9.81 7.42 14.46 3.58 2.06-9.07-8.44-7.54-14.58-5.95-1.07.27-2 .55-2.72.77-2.58-6.66-8.49-9.97-13.84-13.84 2.17-6.48 12.61-4.7 15.57-10.39 6.69-.93 7.12 4.42 12.11 5.2-1.64-9.9-14.16-8.92-20.77-13.86-.87-8.37 7.93-7.06 5.19-17.29 11.41 2.1 16.35 2.65 22.5 3.45.73.91 1.17 1.92 1.41 3 1.54 6.87-5.22 16.21 3.79 17.77 5.1-6.53-.52-11.48-1.87-18.24-.37-1.84-.42-3.81.14-5.98 9.7 1.22 4.55-1.66 5.18-8.66 6.1-2.49 11.54 8.72 17.3 12.11-11.12 29.67-.54 57.99 25.96 64.03v3.61l-37.36-.04z" fill="#ed1e29"/><path d="M299.87 329.78l284.17.3c0 .06-.01.11-.021.17H262.63l-.12-.51 37.36.04z" fill="#ed1e29"/><path d="M261.8 326.17c.2 1.19.44 2.38.71 3.57l-23.2-.03v-.07c3.31-5.76 15.25-6.75 22.49-3.47zM584.43 327.58c.19.82.36 1.66.53 2.5h-.92c.1-.9.23-1.73.39-2.5z" fill="#fff"/><path d="M642.49 300.21c7.89 9.96 8.79 20.84 5.37 29.93l-46.261-.05c.221-3.23-2.01-6.94-4.96-9.11.94-5.02 2.92-9.46 6.051-12.11-5.061-5.25-17.46-2.25-25.96 1.73 4.01 4.22 6.21 10.24 7.699 16.98-.16.77-.29 1.6-.39 2.5l-284.17-.3v-3.61c6.07-6.04 5.8-18.43 19.04-17.3.49-8.73 1.5-16.96 12.11-15.57 2.16-9.12 8.36-16.35 15.57-15.57-11.51-2.66-21.68-2.93-29.41 5.18-4.62-3.76-7.97-2.23-12.11-3.46.46-8.27 5.39-11.54 0-17.31-15.28 4.6-25.97-3.37-27.69-17.3 6.29 2.1 21.86 5.34 31.14-1.72 3.34 12.86 31.46 13.79 36.34 1.72-14.27-1.11-38.97-2.61-39.79-22.49 9.02-13.24 41.47 7.15 43.25-13.84 26.73 1.97 46.87 10.15 72.68 8.65-.69 8.53-3.78 14.68-10.39 17.3.73 5.62 7.71 4.99 6.93 12.11-3.8 1.98-7.08 4.47-13.84 3.46 2.22 5.29 10.36 4.63 10.38 12.11-2.92 2.86-7.78 3.77-10.38 6.93.49 6.42 9.15 4.68 8.64 12.11-2.58 2.03-7.07 2.15-8.64 5.19.54 27.71 30.26 19.05 29.41-3.46-2.15-7.65-7.061-12.54-5.19-24.22 42.18-29.92 91.71-52.48 157.46-58.84 1.69 8.61-6.99 6.85-8.649 12.11 17.369-.96 50.46-6.46 62.289 3.47-11.899 8.28-27.8 12.57-22.489 38.07-14.391 8.1-38.61 6.38-36.34 31.14-12.5.19-25.091.3-29.421 8.66 21.461 7 48.431-13.25 72.681 0 7.359-3.61 14.68-7.24 20.77-12.12-2.14-2.48-5.96-3.28-10.39-3.45 12.95-13.72 33.51-26.66 31.14-50.18 17.3 9.35 23.761 36.4 19.04 62.29-8.2-1.04-13.63-4.83-20.77-6.93-6.29 6.39-11.63 13.75-20.75 17.3zm-266.22-75.75c.82-7.16-8.08-4.59-12.11-6.91-3.21 9.42 7.61 10.55 12.11 6.91z" fill="#ed1e29"/><path d="M748.25 330.25H647.82c.02-.04.029-.07.04-.11l100.39.11z" fill="#fff"/><path d="M601.6 330.09l46.261.05a.609.609 0 0 1-.04.11h-46.23c.009-.06.009-.11.009-.16zM583.77 335.76c.771.12 1.511.23 2.211.3 1.3 8.48 2.22 17.33 4.6 24.72 7.85 7.71 24.939 6.19 31.14 15.58 2.4 24.13 2.48 50.57 31.15 48.44-2.13 9.59 10.3 5.94 10.37 17.311-5.84-1.32-17.73 7.989-22.48 6.909-6.04.841-1.939-8.43-6.93-8.64-11.11.42-14.51 8.561-15.57 19.03-10.75-3.57-9.859 2.17-19.04 3.46 2.471-11.76-4.569-13.62 3.471-20.76-9.78 7.729-18.73 3.67-27.69 5.18.01-9.21 6.64-11.81 8.65-19.021-2.11-2.51-6.601-2.629-8.65-5.2 7.71-8.88 25.07-10.84 32.88-1.73 6.62-42.03-57.11-33.2-84.79-41.52-8.75 11.05-2.67 28.09-13.84 38.06-14.62-5.63-23.64 6.84-34.62 10.39 9.98 8.801-2.71 19.73-6.91 29.41-4.42-.199-3.43-5.79-3.47-10.39-13.08-4.65-17.42 6.07-17.3 15.58-13.33 4.22-18.15-3.59-31.14 1.74-.47-6.24 3.19-8.351 3.46-13.86-5.68.93-10.47.18-20.77-1.73-2.29-9.779 6.41-8.59 8.66-13.84 1.65-7.42-4.86-6.68-5.19-12.11 4.95-3.11 9.04-7.1 13.84-10.38 20.44 17.96 57.7 6.38 69.209-13.85-1.1-13.31-12.989-15.84-15.569-27.68-28.48 4.27-52.37.27-79.59 6.93-8.87-.95-10.39-9.24-19.04-10.39-6.82 30.67-46.05 28.93-53.64 58.84 2.28-.68 13.41-2.84 19.03 1.729-2.4 13.141 3.44 15.681-1.73 27.681-10.18-11.98-17.09-.15-24.23-12.11-21.45 4.5-33.77 9.48-50.18 19.03.37-8.55-.91-14.83 0-24.23-6.95-1.189-9.88 1.67-15.57 1.74-.54-9.78 7.4-11.06 10.38-17.31-.32-5.45-9.32-2.21-8.65-8.64 9.58-1.97 15.32-7.76 27.68-6.93 3.35 5.88 6.67 11.79 12.12 15.57 24.04-8.26 31.14-33.46 39.79-57.1-.42-1.89-3.43-1.17-3.45-3.47-30.4 19.67-53.52-5.9-59.74-32.25h321.39c-.182 1.621-.272 3.451-.252 5.511z" fill="#ed1e29"/><path d="M585.98 336.06c4.779.58 8.26.31 10.71-.49.529 2.89 1.38 5.6 2.529 7.91 19.45 15.03 41.971 4.22 48.601-13.23H748.43v190.17H168.81l-1.75-190.17h95.57c6.22 26.35 29.34 51.92 59.74 32.25.02 2.3 3.03 1.58 3.45 3.47-8.65 23.64-15.75 48.84-39.79 57.1-5.45-3.78-8.77-9.69-12.12-15.57-12.36-.83-18.1 4.96-27.68 6.93-.67 6.43 8.33 3.19 8.65 8.64-2.98 6.25-10.92 7.53-10.38 17.31 5.69-.07 8.62-2.93 15.57-1.74-.91 9.4.37 15.681 0 24.23 16.41-9.55 28.73-14.53 50.18-19.03 7.14 11.96 14.05.13 24.23 12.11 5.17-12-.67-14.54 1.73-27.681-5.62-4.569-16.75-2.41-19.03-1.729 7.59-29.91 46.82-28.17 53.64-58.84 8.65 1.15 10.17 9.44 19.04 10.39 27.22-6.66 51.11-2.66 79.59-6.93 2.58 11.84 14.47 14.37 15.569 27.68-11.51 20.23-48.77 31.811-69.209 13.85-4.8 3.28-8.89 7.27-13.84 10.38.33 5.43 6.84 4.69 5.19 12.11-2.25 5.25-10.95 4.061-8.66 13.84 10.3 1.91 15.09 2.66 20.77 1.73-.27 5.51-3.93 7.62-3.46 13.86 12.99-5.33 17.81 2.479 31.14-1.74-.12-9.51 4.22-20.23 17.3-15.58.04 4.6-.95 10.19 3.47 10.39 4.2-9.68 16.891-20.609 6.91-29.41 10.98-3.549 20-16.02 34.62-10.39 11.17-9.97 5.09-27.01 13.84-38.06 27.68 8.32 91.41-.51 84.79 41.52-7.81-9.11-25.17-7.15-32.88 1.73 2.05 2.57 6.54 2.69 8.65 5.2-2.011 7.211-8.641 9.811-8.65 19.021 8.96-1.51 17.91 2.55 27.69-5.18-8.04 7.14-1 9-3.471 20.76 9.181-1.29 8.29-7.03 19.04-3.46 1.061-10.47 4.46-18.61 15.57-19.03 4.99.21.89 9.48 6.93 8.64 4.75 1.08 16.641-8.229 22.48-6.909-.07-11.37-12.5-7.721-10.37-17.311-28.67 2.13-28.75-24.31-31.15-48.44-6.2-9.39-23.29-7.87-31.14-15.58-2.379-7.391-3.299-16.241-4.599-24.721z" fill="#34a047"/><path d="M584.99 330.25c.359 1.9.68 3.85.99 5.81-.7-.07-1.44-.18-2.211-.3-.02-2.06.07-3.89.25-5.51h.971z" fill="#58b947"/><path d="M601.59 330.25h46.23c-6.63 17.45-29.15 28.26-48.601 13.23-1.149-2.31-2-5.02-2.529-7.91 3.26-1.06 4.69-3.07 4.9-5.32z" fill="#ed1e29"/><path d="M601.59 330.25c-.21 2.25-1.64 4.26-4.899 5.32-.32-1.73-.53-3.52-.631-5.32h5.53z" fill="#58b947"/><path d="M602.69 308.87c-3.131 2.65-5.11 7.09-6.051 12.11-4.34-3.23-10.25-3.16-12.21 6.6-1.489-6.74-3.689-12.76-7.699-16.98 8.5-3.98 20.9-6.98 25.96-1.73z" fill="#fff"/><path d="M596.06 330.25c.101 1.8.311 3.59.631 5.32-2.45.8-5.931 1.07-10.71.49-.311-1.96-.631-3.91-.99-5.81h11.069z" fill="#58b947"/><path d="M364.16 217.55c4.03 2.32 12.93-.25 12.11 6.91-4.5 3.64-15.32 2.51-12.11-6.91z" fill="#231f20"/><path d="M251.29 264.67c1.35 6.76 6.97 11.71 1.87 18.24-9.01-1.56-2.25-10.9-3.79-17.77l1.92-.47z" fill="#fff"/><path d="M229.92 308.1c6.14-1.59 16.64-3.12 14.58 5.95-4.65 3.84-7.68-3.94-14.46-3.58l-.12-2.37z"/><path d="M122.25 115.02c-10.99-4.89-18.33-13.72-18.33-23.8 0-15.4 17.13-27.88 38.25-27.88 21.13 0 38.26 12.48 38.26 27.88 0 9.84-7 18.49-17.57 23.45-5.96 2.8-13.07 4.43-20.69 4.43-7.3 0-14.12-1.49-19.92-4.08z" fill="#c8c8c8"/><path d="M162.86 114.67v670.96h-39.49l-1.12-670.61c5.8 2.59 12.62 4.08 19.92 4.08 7.62 0 14.73-1.63 20.69-4.43z" fill="#c8c8c8"/><g fill="none" stroke="#231f20"><path stroke-width="14" d="M262.63 330.25h-95.57"/><path stroke-width="21" d="M165.32 140.59h583.11v379.83H168.81M122.25 115.02c-10.99-4.89-18.33-13.72-18.33-23.8 0-15.4 17.13-27.88 38.25-27.88 21.13 0 38.26 12.48 38.26 27.88 0 9.84-7 18.49-17.57 23.45-5.96 2.8-13.07 4.43-20.69 4.43-7.3 0-14.12-1.49-19.92-4.08z"/><path stroke-width="21" d="M122.25 114.25v.77l1.12 670.61M162.86 112.85V785.63"/><path stroke-width="14" d="M745.01 179.64l3.42-1.93 2.01-1.14M164.25 330.25h2.81M647.86 330.14l100.39.11h.18M171.31 329.64l68 .07"/><path d="M647.86 330.14c3.42-9.09 2.52-19.97-5.37-29.93 9.12-3.55 14.46-10.91 20.75-17.3 7.14 2.1 12.569 5.89 20.77 6.93 4.721-25.89-1.74-52.94-19.04-62.29 2.37 23.52-18.189 36.46-31.14 50.18 4.43.17 8.25.97 10.39 3.45-6.09 4.88-13.41 8.51-20.77 12.12-24.25-13.25-51.22 7-72.681 0 4.33-8.36 16.921-8.47 29.421-8.66-2.271-24.76 21.949-23.04 36.34-31.14-5.311-25.5 10.59-29.79 22.489-38.07-11.829-9.93-44.92-4.43-62.289-3.47 1.659-5.26 10.34-3.5 8.649-12.11-65.75 6.36-115.28 28.92-157.46 58.84-1.87 11.68 3.04 16.57 5.19 24.22.85 22.51-28.87 31.17-29.41 3.46 1.57-3.04 6.06-3.16 8.64-5.19.51-7.43-8.15-5.69-8.64-12.11 2.6-3.16 7.46-4.07 10.38-6.93-.02-7.48-8.16-6.82-10.38-12.11 6.76 1.01 10.04-1.48 13.84-3.46.78-7.12-6.2-6.49-6.93-12.11 6.61-2.62 9.7-8.77 10.39-17.3-25.81 1.5-45.95-6.68-72.68-8.65-1.78 20.99-34.23.6-43.25 13.84.82 19.88 25.52 21.38 39.79 22.49-4.88 12.07-33 11.14-36.34-1.72-9.28 7.06-24.85 3.82-31.14 1.72 1.72 13.93 12.41 21.9 27.69 17.3 5.39 5.77.46 9.04 0 17.31 4.14 1.23 7.49-.3 12.11 3.46 7.73-8.11 17.9-7.84 29.41-5.18-7.21-.78-13.41 6.45-15.57 15.57-10.61-1.39-11.62 6.84-12.11 15.57-13.24-1.13-12.97 11.26-19.04 17.3-26.5-6.04-37.08-34.36-25.96-64.03-5.76-3.39-11.2-14.6-17.3-12.11-.63 7 4.52 9.88-5.18 8.66-.56 2.17-.51 4.14-.14 5.98 1.35 6.76 6.97 11.71 1.87 18.24-9.01-1.56-2.25-10.9-3.79-17.77-.24-1.08-.68-2.09-1.41-3-6.15-.8-11.09-1.35-22.5-3.45 2.74 10.23-6.06 8.92-5.19 17.29 6.61 4.94 19.13 3.96 20.77 13.86-4.99-.78-5.42-6.13-12.11-5.2-2.96 5.69-13.4 3.91-15.57 10.39 5.35 3.87 11.26 7.18 13.84 13.84.72-.22 1.65-.5 2.72-.77 6.14-1.59 16.64-3.12 14.58 5.95-4.65 3.84-7.68-3.94-14.46-3.58-.36.02-.73.06-1.11.13 4.09 11.01-10.12 3.71-10.38 10.38 6.08 3.72 13.96 5.65 20.76 8.66 3.31-5.76 15.25-6.75 22.49-3.47.2 1.19.44 2.38.71 3.57l.12.51c6.22 26.35 29.34 51.92 59.74 32.25.02 2.3 3.03 1.58 3.45 3.47-8.65 23.64-15.75 48.84-39.79 57.1-5.45-3.78-8.77-9.69-12.12-15.57-12.36-.83-18.1 4.96-27.68 6.93-.67 6.43 8.33 3.19 8.65 8.64-2.98 6.25-10.92 7.53-10.38 17.31 5.69-.07 8.62-2.93 15.57-1.74-.91 9.4.37 15.681 0 24.23 16.41-9.55 28.73-14.53 50.18-19.03 7.14 11.96 14.05.13 24.23 12.11 5.17-12-.67-14.54 1.73-27.681-5.62-4.569-16.75-2.41-19.03-1.729 7.59-29.91 46.82-28.17 53.64-58.84 8.65 1.15 10.17 9.44 19.04 10.39 27.22-6.66 51.11-2.66 79.59-6.93 2.58 11.84 14.47 14.37 15.569 27.68-11.51 20.23-48.77 31.811-69.209 13.85-4.8 3.28-8.89 7.27-13.84 10.38.33 5.43 6.84 4.69 5.19 12.11-2.25 5.25-10.95 4.061-8.66 13.84 10.3 1.91 15.09 2.66 20.77 1.73-.27 5.51-3.93 7.62-3.46 13.86 12.99-5.33 17.81 2.479 31.14-1.74-.12-9.51 4.22-20.23 17.3-15.58.04 4.6-.95 10.19 3.47 10.39 4.2-9.68 16.891-20.609 6.91-29.41 10.98-3.549 20-16.02 34.62-10.39 11.17-9.97 5.09-27.01 13.84-38.06 27.68 8.32 91.41-.51 84.79 41.52-7.81-9.11-25.17-7.15-32.88 1.73 2.05 2.57 6.54 2.69 8.65 5.2-2.011 7.211-8.641 9.811-8.65 19.021 8.96-1.51 17.91 2.55 27.69-5.18-8.04 7.14-1 9-3.471 20.76 9.181-1.29 8.29-7.03 19.04-3.46 1.061-10.47 4.46-18.61 15.57-19.03 4.99.21.89 9.48 6.93 8.64 4.75 1.08 16.641-8.229 22.48-6.909-.07-11.37-12.5-7.721-10.37-17.311-28.67 2.13-28.75-24.31-31.15-48.44-6.2-9.39-23.29-7.87-31.14-15.58-2.38-7.39-3.3-16.24-4.6-24.72-.311-1.96-.631-3.91-.99-5.81-.01-.06-.021-.11-.03-.17-.17-.84-.34-1.68-.53-2.5-1.489-6.74-3.689-12.76-7.699-16.98 8.5-3.98 20.899-6.98 25.96-1.73-3.131 2.65-5.11 7.09-6.051 12.11-.54 2.92-.729 6.04-.58 9.11v.16c.101 1.8.311 3.59.631 5.32.529 2.89 1.38 5.6 2.529 7.91 19.45 15.03 41.971 4.22 48.601-13.23a.47.47 0 0 0 .041-.111z" stroke-width="7"/></g><path fill="none" d="M.25.25h850.394v850.394H.25z"/><path fill="none" stroke="#231f20" stroke-width="14" d="M588.25 332.25h6"/></svg>