<svg xmlns="http://www.w3.org/2000/svg" width="850.394" height="850.394" viewBox="0 0 850.394 850.394" overflow="visible"><path d="M162.61 114.42v670.96h-39.49L122 114.77c5.8 2.59 12.62 4.08 19.92 4.08 7.62 0 14.73-1.63 20.69-4.43z" fill="#c8c8c8"/><path d="M748.18 177.46v342.71H168.56l-3.49-379.83h583.11v37.12zM560.29 360.18L556 360c-100 78-136.5 65.72-226 4 92.91 130.43 166.68 76.97 230.29-3.82zm-84.17-39.34l22.95-22.37-31.71-4.6-14.181-28.74-14.189 28.74-31.71 4.6 22.951 22.37-5.42 31.58 28.37-14.91 28.36 14.91-5.421-31.58z" fill="#58b947"/><path d="M556 360l4.29.18C496.68 440.97 422.91 494.43 330 364c89.5 61.72 126 74 226-4zM499.07 298.47l-22.95 22.37 5.42 31.58-28.36-14.91-28.37 14.91 5.42-31.58-22.95-22.37 31.71-4.6 14.19-28.74 14.18 28.74z" fill="#fbed24"/><path d="M162.61 114.42c-5.96 2.8-13.07 4.43-20.69 4.43-7.3 0-14.12-1.49-19.92-4.08-10.99-4.89-18.33-13.72-18.33-23.8 0-15.4 17.13-27.88 38.25-27.88 21.13 0 38.26 12.48 38.26 27.88 0 9.84-7 18.49-17.57 23.45z" fill="#c8c8c8"/><g fill="none" stroke="#231f20"><path stroke-width="21" d="M165.07 140.34h583.11v379.83H168.56M122 114.77c-10.99-4.89-18.33-13.72-18.33-23.8 0-15.4 17.13-27.88 38.25-27.88 21.13 0 38.26 12.48 38.26 27.88 0 9.84-7 18.49-17.57 23.45-5.96 2.8-13.07 4.43-20.69 4.43-7.3 0-14.12-1.49-19.92-4.08z"/><path stroke-width="21" d="M122 114v.77l1.12 670.61M162.61 112.6V785.38"/><path stroke-width="14" d="M744.76 179.39l3.42-1.93 2.01-1.14"/><path stroke-width="7" d="M453.18 265.13l14.18 28.74 31.71 4.6-22.95 22.37 5.42 31.58-28.36-14.91-28.37 14.91 5.42-31.58-22.95-22.37 31.71-4.6zM330 364c92.91 130.43 166.68 76.97 230.29-3.82.57-.73 1.14-1.45 1.71-2.18M330 364c89.5 61.72 126 74 226-4"/></g><path fill="none" d="M0 0h850.394v850.394H0z"/></svg>