<?xml version="1.0" encoding="iso-8859-1"?>
<!-- Generator: Adobe Illustrator 12.0.1, SVG Export Plug-In . SVG Version: 6.00 Build 51448)  -->
<!DOCTYPE svg PUBLIC "-//W3C//DTD SVG 1.1//EN" "http://www.w3.org/Graphics/SVG/1.1/DTD/svg11.dtd" [
	<!ENTITY ns_svg "http://www.w3.org/2000/svg">
	<!ENTITY ns_xlink "http://www.w3.org/1999/xlink">
]>
<svg  version="1.1" id="Layer_1" xmlns="&ns_svg;" xmlns:xlink="&ns_xlink;" width="850.394" height="850.394"
	 viewBox="0 0 850.394 850.394" style="overflow:visible;enable-background:new 0 0 850.394 850.394;" xml:space="preserve">
<g id="XMLID_3_">
	<g>
		<polygon style="fill:#0D72BA;" points="751.85,134.86 751.85,267.46 156,266 154.98,266 154.98,134.86 157.49,134.86 		"/>
		<polygon style="fill:#0D72BA;" points="751.85,383.49 751.85,522.02 154.98,522 154.98,383.49 748,383.49 		"/>
		<path style="fill:#0D72BA;" d="M483.53,318.11c0,0,1.149,13.13-7.48,20.77l-0.99,0.57l-5.38-9.31l0.391-0.23l12.979-12.3
			L483.53,318.11z"/>
		<polygon style="fill:#6EBE44;" points="475.06,339.45 475.17,339.65 455.27,339.65 435.37,339.65 435.45,339.51 440.83,330.19 
			442.36,327.55 445.32,322.41 449.54,315.09 455.27,305.17 460.96,315.03 465.22,322.41 468.15,327.49 469.68,330.14 		"/>
		<path style="fill:#0D72BA;" d="M461.19,314.9l17.34-16.43l0.64,0.67c0,0,1.55,17.54-9.99,27.75l-1.029,0.6l-2.931-5.08l-4.26-7.38
			L461.19,314.9z"/>
		<path style="fill:#0D72BA;" d="M431.48,298.25l17.35,16.43l0.71,0.41l-4.22,7.32l-2.96,5.14l-1.521-0.88
			c-11.55-10.22-9.99-27.75-9.99-27.75L431.48,298.25z"/>
		<path style="fill:#0D72BA;" d="M426.96,317.39l12.99,12.29l0.88,0.51l-5.38,9.32l-1.48-0.86c-8.64-7.63-7.479-20.76-7.479-20.76
			L426.96,317.39z"/>
		<path style="fill:#FFFFFF;" d="M154.98,383.49V266H156l595.85,1.46v116.03H748H154.98z M478.53,298.47l-17.34,16.43l-0.23,0.13
			l-5.69-9.86l-5.729,9.92l-0.71-0.41l-17.35-16.43l-0.631,0.67c0,0-1.56,17.53,9.99,27.75l1.521,0.88l-1.53,2.64l-0.88-0.51
			l-12.99-12.29l-0.47,0.5c0,0-1.16,13.13,7.479,20.76l1.48,0.86l-0.08,0.14h19.899h19.9l-0.11-0.2l0.99-0.57
			c8.63-7.64,7.48-20.77,7.48-20.77l-0.48-0.5l-12.979,12.3l-0.391,0.23l-1.529-2.65l1.029-0.6c11.54-10.21,9.99-27.75,9.99-27.75
			L478.53,298.47z"/>
		<path style="fill:#C8C8C8;" d="M154.98,108.44c-6.08,2.86-13.32,4.52-21.09,4.52c-7.27,0-14.07-1.45-19.89-3.98
			c-11.43-4.95-19.09-14.05-19.09-24.44c0-15.69,17.45-28.42,38.98-28.42c21.54,0,39,12.73,39,28.42
			C172.89,94.57,165.75,103.39,154.98,108.44z"/>
		<path style="fill:#C8C8C8;" d="M154.98,522v266H154l-39.28,4.35L114,108.98c5.82,2.53,12.62,3.98,19.89,3.98
			c7.77,0,15.01-1.66,21.09-4.52v26.42V266v117.49V522z"/>
	</g>
	<g>
		<polyline style="fill:none;stroke:#231F20;stroke-width:21;" points="157.49,134.86 751.85,134.86 751.85,267.46 751.85,383.49 
			751.85,522.02 154.98,522 154,522 		"/>
		<path style="fill:none;stroke:#231F20;stroke-width:21;" d="M114,108.98c-11.43-4.95-19.09-14.05-19.09-24.44
			c0-15.69,17.45-28.42,38.98-28.42c21.54,0,39,12.73,39,28.42c0,10.03-7.14,18.85-17.91,23.9c-6.08,2.86-13.32,4.52-21.09,4.52
			C126.62,112.96,119.82,111.51,114,108.98z"/>
		<polyline style="fill:none;stroke:#231F20;stroke-width:21;" points="114,108 114,108.98 114.72,792.35 		"/>
		<polyline style="fill:none;stroke:#231F20;stroke-width:21;" points="154.98,106.59 154.98,108.44 154.98,134.86 154.98,266 
			154.98,383.49 154.98,522 154.98,788 154.98,792.35 		"/>
		<polyline style="fill:none;stroke:#231F20;stroke-width:14;" points="156,266 751.85,267.46 754.23,267.47 		"/>
		<polyline style="fill:none;stroke:#231F20;stroke-width:14;" points="152.76,383.49 154.98,383.49 748,383.49 		"/>
		<polygon style="fill:none;stroke:#231F20;stroke-width:5.328;" points="475.06,339.45 475.17,339.65 455.27,339.65 435.37,339.65 
			435.45,339.51 440.83,330.19 442.36,327.55 445.32,322.41 449.54,315.09 455.27,305.17 460.96,315.03 465.22,322.41 
			468.15,327.49 469.68,330.14 		"/>
		<polyline style="fill:none;stroke:#231F20;stroke-width:5.328;stroke-linecap:round;stroke-linejoin:round;" points="
			461.19,314.9 478.53,298.47 482.05,295.14 		"/>
		<path style="fill:none;stroke:#231F20;stroke-width:5.328;stroke-linecap:round;stroke-linejoin:round;" d="M479.17,299.14
			c0,0,1.55,17.54-9.99,27.75"/>
		<polyline style="fill:none;stroke:#231F20;stroke-width:5.328;stroke-linecap:round;stroke-linejoin:round;" points="
			470.07,329.91 483.05,317.61 485.68,315.12 		"/>
		<path style="fill:none;stroke:#231F20;stroke-width:5.328;stroke-linecap:round;stroke-linejoin:round;" d="M483.53,318.11
			c0,0,1.149,13.13-7.48,20.77"/>
		<polyline style="fill:none;stroke:#231F20;stroke-width:5.328;stroke-linecap:round;stroke-linejoin:round;" points="
			448.83,314.68 431.48,298.25 427.96,294.92 		"/>
		<path style="fill:none;stroke:#231F20;stroke-width:5.328;stroke-linecap:round;stroke-linejoin:round;" d="M430.85,298.92
			c0,0-1.56,17.53,9.99,27.75"/>
		<polyline style="fill:none;stroke:#231F20;stroke-width:5.328;stroke-linecap:round;stroke-linejoin:round;" points="
			439.95,329.68 426.96,317.39 424.33,314.9 		"/>
		<path style="fill:none;stroke:#231F20;stroke-width:5.328;stroke-linecap:round;stroke-linejoin:round;" d="M426.49,317.89
			c0,0-1.16,13.13,7.479,20.76"/>
		
			<line style="fill:none;stroke:#231F20;stroke-width:5.328;stroke-linecap:round;stroke-linejoin:round;" x1="454.97" y1="287.37" x2="454.97" y2="305.13"/>
		<path style="fill:none;stroke:#231F20;stroke-width:7.104;stroke-linecap:round;stroke-linejoin:round;" d="M474.49,362.68
			c-0.51,0.89-1.311,1.62-2.34,2.06c-2.46,1.06-5.29-0.04-6.32-2.44c-0.09-0.22-0.17-0.44-0.22-0.66
			c-0.591-2.23,0.58-4.64,2.819-5.6"/>
		<path style="fill:none;stroke:#231F20;stroke-width:7.104;stroke-linecap:round;stroke-linejoin:round;" d="M486.82,353.35
			c-0.24,1-0.78,1.94-1.641,2.65c-1.949,1.65-4.77,1.53-6.489-0.2c-0.101-0.09-0.181-0.19-0.271-0.29c-1.68-2-1.38-5.03,0.67-6.74"
			/>
		<path style="fill:none;stroke:#231F20;stroke-width:7.104;stroke-linecap:round;stroke-linejoin:round;" d="M496.05,341.06
			c0.04,1.02-0.25,2.07-0.89,2.98c-1.48,2.13-4.3,2.73-6.43,1.43c-0.08-0.05-0.15-0.1-0.23-0.15c-2.14-1.49-2.64-4.5-1.1-6.69"/>
		<path style="fill:none;stroke:#231F20;stroke-width:7.104;stroke-linecap:round;stroke-linejoin:round;" d="M497.96,325.26
			c0.32,0.66,0.43,1.43,0.28,2.21c-0.33,1.79-1.971,3-3.721,2.8c-0.069-0.01-0.149-0.03-0.229-0.04c-1.83-0.35-3.021-2.16-2.67-4.03
			"/>
		<path style="fill:none;stroke:#231F20;stroke-width:7.104;stroke-linecap:round;stroke-linejoin:round;" d="M497.36,312.67
			c0.29,0.59,0.39,1.26,0.25,1.95c-0.301,1.65-1.841,2.73-3.45,2.45c-0.01,0-0.03-0.01-0.04-0.01c-1.61-0.31-2.67-1.9-2.351-3.55"/>
		<path style="fill:none;stroke:#231F20;stroke-width:5.328;stroke-linecap:round;stroke-linejoin:round;" d="M487.74,302.44
			c3.109,4.28,5.34,9.25,6.42,14.63c0.51,2.45,0.77,5,0.77,7.6c0,1.9-0.14,3.77-0.41,5.6c-0.819,5.55-2.84,10.71-5.789,15.2
			c-2.66,4.05-6.07,7.56-10.04,10.33c-3.891,2.72-8.311,4.73-13.08,5.84c-2.771,0.65-5.67,0.99-8.641,0.99"/>
		<path style="fill:none;stroke:#231F20;stroke-width:7.104;stroke-linecap:round;stroke-linejoin:round;" d="M433.72,362.68
			c0.511,0.89,1.311,1.62,2.34,2.06c2.46,1.06,5.29-0.04,6.33-2.44c0.091-0.22,0.17-0.44,0.221-0.66c0.58-2.23-0.591-4.64-2.83-5.6"
			/>
		<path style="fill:none;stroke:#231F20;stroke-width:7.104;stroke-linecap:round;stroke-linejoin:round;" d="M421.39,353.35
			c0.24,1,0.79,1.94,1.64,2.65c1.95,1.65,4.77,1.53,6.49-0.2c0.101-0.09,0.181-0.19,0.271-0.29c1.68-2,1.38-5.03-0.67-6.74"/>
		<path style="fill:none;stroke:#231F20;stroke-width:7.104;stroke-linecap:round;stroke-linejoin:round;" d="M412.16,341.06
			c-0.04,1.02,0.26,2.07,0.89,2.98c1.48,2.13,4.3,2.73,6.43,1.43c0.08-0.05,0.15-0.1,0.23-0.15c2.15-1.49,2.64-4.5,1.11-6.69"/>
		<path style="fill:none;stroke:#231F20;stroke-width:7.104;stroke-linecap:round;stroke-linejoin:round;" d="M410.26,325.26
			c-0.33,0.66-0.44,1.43-0.29,2.21c0.33,1.79,1.98,3,3.73,2.8c0.07-0.01,0.15-0.03,0.23-0.04c1.82-0.35,3.02-2.16,2.66-4.03"/>
		<path style="fill:none;stroke:#231F20;stroke-width:7.104;stroke-linecap:round;stroke-linejoin:round;" d="M410.85,312.67
			c-0.29,0.59-0.38,1.26-0.24,1.95c0.29,1.65,1.84,2.73,3.44,2.45c0.01,0,0.03-0.01,0.04-0.01c1.61-0.31,2.67-1.9,2.36-3.55"/>
		<path style="fill:none;stroke:#231F20;stroke-width:5.328;stroke-linecap:round;stroke-linejoin:round;" d="M420.47,302.44
			c-3.1,4.28-5.34,9.25-6.42,14.63c-0.51,2.46-0.77,5-0.77,7.6c0,1.9,0.14,3.77,0.42,5.6c0.81,5.55,2.83,10.71,5.78,15.2
			c2.66,4.05,6.07,7.56,10.04,10.33c3.891,2.72,8.32,4.73,13.091,5.84c2.779,0.65,5.67,0.99,8.64,0.99"/>
	</g>
</g>
<rect style="fill:none;" width="850.394" height="850.394"/>
</svg>
