<?xml version="1.0" encoding="iso-8859-1"?>
<!-- Generator: Adobe Illustrator 12.0.1, SVG Export Plug-In . SVG Version: 6.00 Build 51448)  -->
<!DOCTYPE svg PUBLIC "-//W3C//DTD SVG 1.1//EN" "http://www.w3.org/Graphics/SVG/1.1/DTD/svg11.dtd" [
	<!ENTITY ns_svg "http://www.w3.org/2000/svg">
	<!ENTITY ns_xlink "http://www.w3.org/1999/xlink">
]>
<svg  version="1.1" id="Layer_1" xmlns="&ns_svg;" xmlns:xlink="&ns_xlink;" width="850.89" height="850.89"
	 viewBox="0 0 850.89 850.89" style="overflow:visible;enable-background:new 0 0 850.89 850.89;" xml:space="preserve">
<g>
	<g id="XMLID_1_">
		<g>
			<path style="fill:#231F20;" d="M748.43,177.71v19.66L230.25,516.25v4.17h-61.44l-0.63-68.17h0.07l520-308v-3.66h60.18V177.71z
				 M526.25,255.84l-8.6,20.34l-21.99,1.89l16.68,14.45l-5,21.5l18.91-11.39l18.91,11.39l-5-21.5l16.68-14.45l-21.99-1.89
				L526.25,255.84z M381.42,387.75l17.91-15.51l-23.61-2.03l-9.23-21.84l-9.22,21.84l-23.61,2.03l17.91,15.51l-5.37,23.07
				l20.29-12.23l20.3,12.23L381.42,387.75z"/>
			<polygon style="fill:#FFFFFF;" points="495.66,278.07 517.65,276.18 526.25,255.84 534.85,276.18 556.84,278.07 540.16,292.52 
				545.16,314.02 526.25,302.63 507.34,314.02 512.34,292.52 			"/>
			<polygon style="fill:#FFFFFF;" points="386.79,410.82 366.49,398.59 346.2,410.82 351.57,387.75 333.66,372.24 357.27,370.21 
				366.49,348.37 375.72,370.21 399.33,372.24 381.42,387.75 			"/>
			<polygon style="fill:#FBED24;" points="748.43,197.37 748.43,230.25 748.25,230.25 276.25,518.25 276.25,520.42 230.25,520.42 
				230.25,516.25 			"/>
			<polygon style="fill:#ED1E29;" points="748.25,230.25 748.43,230.25 748.43,520.42 276.25,520.42 276.25,518.25 			"/>
			<polygon style="fill:#FBED24;" points="688.25,140.59 688.25,144.25 168.25,452.25 168.18,452.25 167.92,423.26 640.25,142.25 
				640.25,140.59 			"/>
			<polygon style="fill:#34A047;" points="640.25,140.59 640.25,142.25 167.92,423.26 165.32,140.59 			"/>
			<path style="fill:#C8C8C8;" d="M103.92,91.22c0-15.4,17.13-27.88,38.25-27.88c21.13,0,38.26,12.48,38.26,27.88
				c0,9.84-7,18.49-17.57,23.45c-5.96,2.8-13.07,4.43-20.69,4.43c-7.3,0-14.12-1.49-19.92-4.08
				C111.26,110.13,103.92,101.3,103.92,91.22z"/>
			<path style="fill:#C8C8C8;" d="M122.25,115.02c5.8,2.59,12.62,4.08,19.92,4.08c7.62,0,14.73-1.63,20.69-4.43v670.96h-39.49
				L122.25,115.02z"/>
		</g>
		<g>
			<polyline style="fill:none;stroke:#231F20;stroke-width:21;" points="165.32,140.59 640.25,140.59 688.25,140.59 748.43,140.59 
				748.43,177.71 748.43,197.37 748.43,230.25 748.43,520.42 276.25,520.42 230.25,520.42 168.81,520.42 			"/>
			<path style="fill:none;stroke:#231F20;stroke-width:21;" d="M122.25,115.02c-10.99-4.89-18.33-13.72-18.33-23.8
				c0-15.4,17.13-27.88,38.25-27.88c21.13,0,38.26,12.48,38.26,27.88c0,9.84-7,18.49-17.57,23.45c-5.96,2.8-13.07,4.43-20.69,4.43
				C134.87,119.1,128.05,117.61,122.25,115.02z"/>
			<polyline style="fill:none;stroke:#231F20;stroke-width:21;" points="122.25,114.25 122.25,115.02 123.37,785.63 			"/>
			<polyline style="fill:none;stroke:#231F20;stroke-width:21;" points="162.86,112.85 162.86,114.67 162.86,785.63 			"/>
			<polyline style="fill:none;stroke:#231F20;stroke-width:14;" points="745.01,179.64 748.43,177.71 750.44,176.57 			"/>
			<line style="fill:none;stroke:#231F20;stroke-width:14;" x1="168.25" y1="452.25" x2="688.25" y2="144.25"/>
			<polyline style="fill:none;stroke:#231F20;stroke-width:14;" points="230.25,516.25 748.43,197.37 750.25,196.25 			"/>
			<polyline style="fill:none;stroke:#231F20;stroke-width:14;" points="166.25,424.25 167.92,423.26 640.25,142.25 			"/>
			<line style="fill:none;stroke:#231F20;stroke-width:14;" x1="276.25" y1="518.25" x2="748.25" y2="230.25"/>
			<polygon style="fill:none;stroke:#231F20;stroke-width:4.1461;" points="366.49,398.59 346.2,410.82 351.57,387.75 
				333.66,372.24 357.27,370.21 366.49,348.37 375.72,370.21 399.33,372.24 381.42,387.75 386.79,410.82 			"/>
			<polygon style="fill:none;stroke:#231F20;stroke-width:4.1461;" points="526.25,302.63 507.34,314.02 512.34,292.52 
				495.66,278.07 517.65,276.18 526.25,255.84 534.85,276.18 556.84,278.07 540.16,292.52 545.16,314.02 			"/>
		</g>
	</g>
</g>
<rect x="0.25" y="0.25" style="fill:none;" width="850.394" height="850.394"/>
</svg>
