<svg xmlns="http://www.w3.org/2000/svg" width="850.394" height="850.394" viewBox="0 0 850.394 850.394" overflow="visible"><path d="M166.97 153.12v.12c-.02-.3-.03-.61-.04-.9.01.26.03.52.04.78z" fill="#fff"/><path d="M168.31 148.92c-1.04.16-1.34 1.07-1.39 2.25-.02.37-.01.76.01 1.17.01.29.02.6.04.9v193.88l-1.8-195.42-.02-2.15-.01-.7-.02-2.57c.14-.08.31-.13.5-.16h577.95V510.28h-2.7v-2.8-358.51-.05H168.31zM743.57 516.28H168.52l-.02-2.851h572.37v-3.149h2.7v6zM168.5 513.43l.02 2.851h-.05l-.03-2.851h.06z" fill="#fff"/><path d="M740.87 510.28v3.149H168.5l-.03-3.149h572.4z" fill="#fff"/><path d="M168.47 510.28l-.03-2.8h572.43v2.8h-572.4zM166.97 347.12l1.47 160.36h-1.47V350.43v-3.31z"/><path d="M168.56 520.17l-.04-3.89h575.05v-6-330.89h1.189l3.42-1.93v342.71H168.56zM166.97 347.12v3.31l-1.8-198.73 1.8 195.42zM165.15 149.55l-.01-.7.01.7z" fill="#fff"/><path d="M166.97 507.48h1.47l.03 2.8h-4.2V150.32c-.1-1.75-.19-3.48.85-4.04l.02 2.57.01.7.02 2.15 1.8 198.73v157.05z" fill="#fff"/><path d="M567.08 478.07c-3.65.87-10.69-1.78-12.12 1.399 4.65 1.7 8.12 4.63 10.78 8.4-.65 3.61-5.44 10.12-2.7 12.61 2.46-3.99 7.4-5.381 10.78-8.4 2.449 3.979 7.399 5.37 10.779 8.4-.83-5.2-3.21-8.801-4.04-14.011 3.86-2.52 7.511-5.26 10.771-8.399h-13.47c-2.391-4.051-2.42-10.551-5.391-14.011-1.039 5.452-1.539 11.472-5.389 14.012zm0-309.54c-3.65.87-10.69-1.78-12.12 1.4 4.65 1.7 8.12 4.63 10.78 8.4-.65 3.61-5.44 10.12-2.7 12.61 2.46-3.99 7.4-5.38 10.78-8.4 2.449 3.98 7.399 5.37 10.779 8.4-.83-5.2-3.21-8.8-4.04-14.01 3.86-2.52 7.511-5.26 10.771-8.4h-13.47c-2.391-4.04-2.42-10.55-5.391-14.01-1.039 5.45-1.539 11.47-5.389 14.01zm-357.06 30.84l1.42 259.11 4.02-.021c158.4-.93 320.38 1.87 476.54-1.39.12 0 .25-.011.37-.011-.12-.069-.25-.13-.37-.199l.37-258.92c-158.521.94-320.63-1.86-476.91 1.4l-5.44.031zm235.82-21.04c.021 4.32-4.96 10.62-2.7 12.61 3.261-3.14 6.92-5.88 10.78-8.4 3.26 3.14 7.38 5.39 10.78 8.4-.36-5.7-2.54-9.5-4.05-14.01 3.38-3.02 8.33-4.41 10.779-8.4h-13.47c-1.69-4.31-1.46-10.62-5.39-12.61-.521 5.06-1.79 9.35-4.04 12.61-3.65.87-10.69-1.78-12.12 1.4 2.821 3.13 8.391 3.41 9.431 8.4zm0 310.94c-.75 3.051-4.77 9.86-2.7 11.211 3.261-3.15 7.391-5.4 10.78-8.4 3.26 3.14 6.91 5.88 10.78 8.4-.36-5.7-2.54-9.5-4.05-14.011 3.38-3.02 8.33-4.42 10.779-8.399h-13.47c-1.69-4.311-1.46-10.62-5.39-12.61-.521 5.06-1.79 9.35-4.04 12.61-3.65.87-10.69-1.78-12.12 1.399 3.311 3.09 8.811 3.9 9.431 9.8zm-117.21-11.2c-3.66.87-10.69-1.78-12.13 1.399 4.17 2.21 7.94 4.83 10.78 8.4-1.42 2.8-5.73 9.81-2.69 12.61 2.18-4.271 6.83-5.971 10.78-8.4 1.94 4.04 6.47 5.4 9.43 8.4-.01-6.061-3.13-8.891-2.7-15.41 4.22-1.21 7.44-3.471 9.43-7h-13.47c-.52-5.061-1.79-9.351-4.04-12.61-2.37 3.611-1.94 10.121-5.39 12.611zm0-309.54c-3.66.87-10.69-1.78-12.13 1.4 4.17 2.21 7.94 4.83 10.78 8.4-1.42 2.8-5.73 9.81-2.69 12.61 2.18-4.27 6.83-5.96 10.78-8.4 1.99 3.53 5.21 5.79 9.43 7 .41-5.57-3.12-7.04-2.7-12.61 2.44-3.53 7.85-3.98 9.43-8.4h-13.47c-.52-5.06-1.79-9.35-4.04-12.61-2.37 3.61-1.94 10.12-5.39 12.61zm412.24 338.95H168.44l-1.47-160.36V153.24v-.12c-.01-.26-.03-.52-.04-.78-.02-.41-.03-.8-.01-1.17.06-1.16.38-2.05 1.39-2.2h572.56v358.51z" fill="#ed1e29"/><path d="M166.92 151.17c.05-1.18.35-2.09 1.39-2.25h572.56v.05H168.31c-1.01.15-1.33 1.04-1.39 2.2z" fill="#fff"/><path d="M285.52 353.41c-.59-.62-1.17-1.25-1.72-1.89l.42-.25 1.3 2.14z" fill="#231f20"/><path d="M269.35 363.22c-.25-.79-.55-1.59-.88-2.4l15.33-9.3c.55.64 1.13 1.27 1.72 1.89l1.3 2.14-16.17 9.81-1.3-2.14z" fill="#231f20"/><path d="M748.18 140.34v37.12l-3.42 1.93h-1.189v-33.27h-577.95c-.19.03-.36.08-.5.16l-.05-5.94H748.18z" fill="#fff"/><path d="M692.37 197.94L692 456.86c-69.97-38.17-141-75.25-209.79-114.65l.01-.02 2.25 1.09c.25-.53 6.15-13.33.11-31.29l-2.37.8c70.16-38.17 141.32-75.3 210.16-114.85z" fill="#58b947"/><path d="M692.37 457.06c-.12 0-.25.011-.37.011v-.21c.12.069.25.129.37.199zM692 456.86v.21c-156.16 3.26-318.14.46-476.54 1.39 68.05-40.08 139.8-76.3 209.2-114.97.65.76 1.37 1.22 2.31 1.22v-2.5c9.271 22.3 45.05 19.25 55.24 0C551 381.61 622.03 418.69 692 456.86zM215.46 199.34c156.28-3.26 318.39-.46 476.91-1.4-68.84 39.55-140 76.68-210.16 114.85-7.91-3.73-13.08-14.9-26.94-15.4-13.89-.51-21.239 8.28-29.64 16.81-68.82-39.58-139.98-76.71-210.17-114.86zM577.86 168.53h13.47c-3.26 3.14-6.91 5.88-10.771 8.4.83 5.21 3.21 8.81 4.04 14.01-3.38-3.03-8.33-4.42-10.779-8.4-3.38 3.02-8.32 4.41-10.78 8.4-2.74-2.49 2.05-9 2.7-12.61-2.66-3.77-6.13-6.7-10.78-8.4 1.43-3.18 8.47-.53 12.12-1.4 3.85-2.54 4.35-8.56 5.39-14.01 2.97 3.46 3 9.97 5.39 14.01zM577.86 478.07h13.47c-3.26 3.14-6.91 5.88-10.771 8.399.83 5.21 3.21 8.811 4.04 14.011-3.38-3.03-8.33-4.421-10.779-8.4-3.38 3.02-8.32 4.41-10.78 8.4-2.74-2.49 2.05-9 2.7-12.61-2.66-3.771-6.13-6.7-10.78-8.4 1.43-3.18 8.47-.529 12.12-1.399 3.85-2.54 4.35-8.561 5.39-14.011 2.97 3.46 3 9.96 5.39 14.01z" fill="#fbed24"/><path d="M484.58 311.99c6.04 17.96.14 30.76-.11 31.29l-2.25-1.09-2.25-1.1c.05-.1 4.24-9.08 1.261-22.52-.351-1.6-.811-3.26-1.391-4.98l2.37-.8 2.37-.8z" fill="#231f20"/><path d="M428.45 340.24c-1.141-1.24-5.31-8.88-2.7-19.16l5.27.12c4.48 3.74 10.631 5.75 13.471 11.2-1.05 4.11-5.61 11.83-2.7 15.41 3.79-4 8.16-7.39 13.479-9.8 2.94 4.41 7.54 7.09 12.12 9.8-.08-6.91-3.949-9.89-4.04-16.81 4.061-4.18 9.99-6.42 13.471-11.2l4.41-1.23c2.979 13.44-1.211 22.42-1.261 22.52l2.25 1.1-.01.02c-10.19 19.25-45.97 22.3-55.24 0v-2.5c.85 0 1.36.42 1.48.53z" fill="#ed1e29"/><path d="M482.21 312.79l-2.37.8c.58 1.72 1.04 3.38 1.391 4.98l-4.41 1.23H459.31c-2.359-5.02-1.56-13.32-6.739-15.41-.95 6.01-2.2 11.72-5.391 15.41-4.97.89-13.42-1.82-16.16 1.4l-5.27-.12c.47-1.85 1.16-3.79 2.13-5.79l-2.25-1.09c8.4-8.53 15.75-17.32 29.64-16.81 13.86.5 19.03 11.67 26.94 15.4z" fill="#ed1e29"/><path d="M459.31 319.8h17.511c-3.48 4.78-9.41 7.02-13.471 11.2.091 6.92 3.96 9.9 4.04 16.81-4.58-2.71-9.18-5.39-12.12-9.8-5.319 2.41-9.689 5.8-13.479 9.8-2.91-3.58 1.65-11.3 2.7-15.41-2.84-5.45-8.99-7.46-13.471-11.2 2.74-3.22 11.19-.51 16.16-1.4 3.19-3.69 4.44-9.4 5.391-15.41 5.179 2.09 4.379 10.39 6.739 15.41zM457.96 168.53h13.47c-2.449 3.99-7.399 5.38-10.779 8.4 1.51 4.51 3.689 8.31 4.05 14.01-3.4-3.01-7.521-5.26-10.78-8.4-3.86 2.52-7.52 5.26-10.78 8.4-2.26-1.99 2.721-8.29 2.7-12.61-1.04-4.99-6.609-5.27-9.43-8.4 1.43-3.18 8.47-.53 12.12-1.4 2.25-3.26 3.52-7.55 4.04-12.61 3.929 1.99 3.699 8.3 5.389 12.61zM457.96 478.07h13.47c-2.449 3.979-7.399 5.38-10.779 8.399 1.51 4.511 3.689 8.311 4.05 14.011-3.87-2.521-7.521-5.261-10.78-8.4-3.39 3-7.52 5.25-10.78 8.4-2.069-1.351 1.95-8.16 2.7-11.211-.62-5.899-6.12-6.71-9.43-9.8 1.43-3.18 8.47-.529 12.12-1.399 2.25-3.261 3.52-7.551 4.04-12.61 3.929 1.99 3.699 8.3 5.389 12.61z" fill="#fbed24"/><path d="M425.63 314.2l2.25 1.09c-.97 2-1.66 3.94-2.13 5.79-2.61 10.28 1.56 17.92 2.7 19.16-.12-.11-.63-.53-1.48-.53v2.5c-.77.43-1.54.86-2.31 1.28-.32-.36-.61-.78-.91-1.26-.84-1.33-7.94-13.45-.37-29.12l2.25 1.09z" fill="#231f20"/><path d="M426.97 342.21v2.5c-.939 0-1.66-.46-2.31-1.22.77-.42 1.54-.85 2.31-1.28z" fill="#231f20"/><path d="M425.63 314.2l-2.25-1.09c-7.57 15.67-.47 27.79.37 29.12.3.48.59.9.91 1.26-69.4 38.67-141.15 74.89-209.2 114.97l-4.02.021-1.42-259.11 5.44-.03C285.65 237.49 356.81 274.62 425.63 314.2zm-138.81 41.35l-1.3-2.14c12.08-34.3-19.63-41.59-40.42-50.42-5.62 27.86-5.01 60.84 24.25 60.23l1.3 2.14 16.17-9.81z" fill="#58b947"/><path d="M338.06 168.53h13.47c-1.58 4.42-6.99 4.87-9.43 8.4-.42 5.57 3.11 7.04 2.7 12.61-4.22-1.21-7.44-3.47-9.43-7-3.95 2.44-8.6 4.13-10.78 8.4-3.04-2.8 1.27-9.81 2.69-12.61-2.84-3.57-6.61-6.19-10.78-8.4 1.44-3.18 8.47-.53 12.13-1.4 3.45-2.49 3.02-9 5.39-12.61 2.25 3.26 3.52 7.55 4.04 12.61zM338.06 478.07h13.47c-1.99 3.529-5.21 5.79-9.43 7-.43 6.52 2.69 9.35 2.7 15.41-2.96-3-7.49-4.36-9.43-8.4-3.95 2.43-8.6 4.13-10.78 8.4-3.04-2.801 1.27-9.811 2.69-12.61-2.84-3.57-6.61-6.19-10.78-8.4 1.44-3.18 8.47-.529 12.13-1.399 3.45-2.49 3.02-9 5.39-12.61 2.25 3.259 3.52 7.549 4.04 12.609zM245.1 302.99c20.79 8.83 52.5 16.12 40.42 50.42l-1.3-2.14-.42.25c-6.93-7.91-12.08-17.67-22.53-21.92-4.23 12.14 3.49 22.07 7.2 31.22l-.42.26 1.3 2.14c-29.26.61-29.87-32.37-24.25-60.23z" fill="#fbed24"/><path d="M283.8 351.52l-15.33 9.3c-3.71-9.15-11.43-19.08-7.2-31.22 10.45 4.25 15.6 14.01 22.53 21.92z" fill="#ed1e29"/><path d="M269.35 363.22l-1.3-2.14.42-.26c.33.81.63 1.61.88 2.4z" fill="#231f20"/><path d="M122 114.77c-10.99-4.89-18.33-13.72-18.33-23.8 0-15.4 17.13-27.88 38.25-27.88 21.13 0 38.26 12.48 38.26 27.88 0 9.84-7 18.49-17.57 23.45-5.96 2.8-13.07 4.43-20.69 4.43-7.3 0-14.12-1.49-19.92-4.08z" fill="#c8c8c8"/><path d="M162.61 114.42v670.96h-39.49L122 114.77c5.8 2.59 12.62 4.08 19.92 4.08 7.62 0 14.73-1.63 20.69-4.43z" fill="#c8c8c8"/><g fill="none" stroke="#231f20"><path stroke-width="5" d="M692.37 197.94L692 456.86M692 457.07v-.21"/><path stroke-width="21" d="M165.07 140.34h583.11v379.83H168.56M122 114.77c-10.99-4.89-18.33-13.72-18.33-23.8 0-15.4 17.13-27.88 38.25-27.88 21.13 0 38.26 12.48 38.26 27.88 0 9.84-7 18.49-17.57 23.45-5.96 2.8-13.07 4.43-20.69 4.43-7.3 0-14.12-1.49-19.92-4.08z"/><path stroke-width="21" d="M122 114v.77l1.12 670.61M162.61 112.6V785.38"/><path stroke-width="14" d="M744.76 179.39l3.42-1.93 2.01-1.14"/><path d="M572.47 154.52c2.971 3.46 3 9.97 5.391 14.01h13.47c-3.26 3.14-6.91 5.88-10.771 8.4.83 5.21 3.21 8.81 4.04 14.01-3.38-3.03-8.33-4.42-10.779-8.4-3.38 3.02-8.32 4.41-10.78 8.4-2.74-2.49 2.05-9 2.7-12.61-2.66-3.77-6.13-6.7-10.78-8.4 1.43-3.18 8.47-.53 12.12-1.4 3.849-2.54 4.349-8.56 5.389-14.01zM328.63 168.53c3.45-2.49 3.02-9 5.39-12.61 2.25 3.26 3.52 7.55 4.04 12.61h13.47c-1.58 4.42-6.99 4.87-9.43 8.4-.42 5.57 3.11 7.04 2.7 12.61-4.22-1.21-7.44-3.47-9.43-7-3.95 2.44-8.6 4.13-10.78 8.4-3.04-2.8 1.27-9.81 2.69-12.61-2.84-3.57-6.61-6.19-10.78-8.4 1.44-3.18 8.47-.53 12.13-1.4zM215.46 199.34c156.28-3.26 318.39-.46 476.91-1.4-68.84 39.55-140 76.68-210.16 114.85-7.91-3.73-13.08-14.9-26.94-15.4-13.89-.51-21.239 8.28-29.64 16.81-68.82-39.58-139.98-76.71-210.17-114.86zM283.8 351.52c-6.93-7.91-12.08-17.67-22.53-21.92-4.23 12.14 3.49 22.07 7.2 31.22" stroke-width="5"/><path d="M269.35 363.22c-29.26.61-29.87-32.37-24.25-60.23 20.79 8.83 52.5 16.12 40.42 50.42M431.02 321.2c2.74-3.22 11.19-.51 16.16-1.4 3.19-3.69 4.44-9.4 5.391-15.41 5.18 2.09 4.38 10.39 6.739 15.41h17.511c-3.48 4.78-9.41 7.02-13.471 11.2.091 6.92 3.96 9.9 4.04 16.81-4.58-2.71-9.18-5.39-12.12-9.8-5.319 2.41-9.689 5.8-13.479 9.8-2.91-3.58 1.65-11.3 2.7-15.41-2.841-5.45-8.991-7.46-13.471-11.2z" stroke-width="5"/><path d="M426.97 342.21c9.271 22.3 45.05 19.25 55.24 0C551 381.61 622.03 418.69 692 456.86c.12.069.25.13.37.199-.12 0-.25.011-.37.011-156.16 3.26-318.14.46-476.54 1.39 68.05-40.08 139.8-76.3 209.2-114.97M572.47 464.06c2.971 3.46 3 9.96 5.391 14.011h13.47c-3.26 3.14-6.91 5.88-10.771 8.399.83 5.21 3.21 8.811 4.04 14.011-3.38-3.03-8.33-4.421-10.779-8.4-3.38 3.02-8.32 4.41-10.78 8.4-2.74-2.49 2.05-9 2.7-12.61-2.66-3.771-6.13-6.7-10.78-8.4 1.43-3.18 8.47-.529 12.12-1.399 3.849-2.542 4.349-8.562 5.389-14.012zM324.59 500.48c-3.04-2.801 1.27-9.811 2.69-12.61-2.84-3.57-6.61-6.19-10.78-8.4 1.44-3.18 8.47-.529 12.13-1.399 3.45-2.49 3.02-9 5.39-12.61 2.25 3.26 3.52 7.55 4.04 12.61h13.47c-1.99 3.529-5.21 5.79-9.43 7-.43 6.52 2.69 9.35 2.7 15.41-2.96-3-7.49-4.36-9.43-8.4-3.95 2.429-8.6 4.129-10.78 8.399zM453.92 182.54c-3.86 2.52-7.52 5.26-10.78 8.4-2.26-1.99 2.721-8.29 2.7-12.61-1.04-4.99-6.609-5.27-9.43-8.4 1.43-3.18 8.47-.53 12.12-1.4 2.25-3.26 3.52-7.55 4.04-12.61 3.93 1.99 3.699 8.3 5.39 12.61h13.47c-2.449 3.99-7.399 5.38-10.779 8.4 1.51 4.51 3.689 8.31 4.05 14.01-3.401-3.01-7.521-5.26-10.781-8.4zM443.14 500.48c-2.069-1.351 1.95-8.16 2.7-11.211-.62-5.899-6.12-6.71-9.43-9.8 1.43-3.18 8.47-.529 12.12-1.399 2.25-3.261 3.52-7.551 4.04-12.61 3.93 1.99 3.699 8.3 5.39 12.61h13.47c-2.449 3.979-7.399 5.38-10.779 8.399 1.51 4.511 3.689 8.311 4.05 14.011-3.87-2.521-7.521-5.261-10.78-8.4-3.391 3-7.521 5.25-10.781 8.4zM210.02 199.37l1.42 259.11.02 3.98" stroke-width="5"/></g><path fill="none" d="M0 0h850.394v850.394H0z"/></svg>