<?xml version="1.0" encoding="iso-8859-1"?>
<!-- Generator: Adobe Illustrator 12.0.1, SVG Export Plug-In . SVG Version: 6.00 Build 51448)  -->
<!DOCTYPE svg PUBLIC "-//W3C//DTD SVG 1.1//EN" "http://www.w3.org/Graphics/SVG/1.1/DTD/svg11.dtd" [
	<!ENTITY ns_svg "http://www.w3.org/2000/svg">
	<!ENTITY ns_xlink "http://www.w3.org/1999/xlink">
]>
<svg  version="1.1" id="Layer_1" xmlns="&ns_svg;" xmlns:xlink="&ns_xlink;" width="850.394" height="850.394"
	 viewBox="0 0 850.394 850.394" style="overflow:visible;enable-background:new 0 0 850.394 850.394;" xml:space="preserve">
<g id="XMLID_1_">
	<g>
		<path style="fill:#FFFFFF;" d="M408.75,306.61c0,0-2.76,5.79-5.6,11.39c-2.66,5.26-5.4,10.37-5.99,10.37
			c-1.22,0-5.49-12.2-5.49-12.2l-1.2-1.61l15.03-11.2l0.58-0.67c0.57,1.33,1.51,2.46,2.69,3.26L408.75,306.61z"/>
		<path style="fill:#FFFFFF;" d="M499.13,303.25l15.03,11.2l-1.2,1.61c0,0-4.28,12.2-5.5,12.2c-0.58,0-3.32-5.11-5.979-10.37
			c-2.841-5.6-5.601-11.38-5.601-11.38l-0.63-0.29c1.26-0.68,2.3-1.73,2.99-2.99L499.13,303.25z"/>
		<path style="fill:#FFFFFF;" d="M502.38,379.1l-6.1,0.4l-7.521-25.01l-3.46,23.39l-6.3,0.2l-0.81-15.66h-0.11v-31.11h0.51
			l19.32,0.41l0.609,0.81C498.92,333.14,502.38,379.1,502.38,379.1z"/>
		<path style="fill:#FFFFFF;" d="M426.44,331.42v31.1l-0.811,15.66l-6.31-0.2l-3.45-23.38l-7.53,25l-6.1-0.4
			c0,0,3.46-45.95,3.87-46.56l0.61-0.82l19.31-0.4H426.44z"/>
		<path style="fill:#FFEEC8;" d="M426.44,329.16v2.26h-0.41l-19.31,0.4l-2.65-13.62l-0.92-0.2c2.84-5.6,5.6-11.39,5.6-11.39
			l0.02-0.66c1.18,0.8,2.61,1.27,4.15,1.27l3.35,1.22c0,0,9.71,3.03,9.15,14.03c-0.2,4.07,10.17,5.69,10.17,5.69v0.98L426.44,329.16
			z"/>
		<path style="fill:#FFEEC8;" d="M412.92,307.22c-1.54,0-2.97-0.47-4.15-1.27c-1.18-0.8-2.12-1.93-2.69-3.26
			c-0.37-0.89-0.58-1.87-0.58-2.89c0-4.1,3.32-7.42,7.42-7.42s7.42,3.32,7.42,7.42C420.34,303.9,417.02,307.22,412.92,307.22z"/>
		<path style="fill:#9C5C25;" d="M495.88,306.51c0,0,2.76,5.78,5.601,11.38l-0.931,0.21l-2.64,13.62l-19.32-0.41h-0.51v-2.25
			l-9.04,0.02v-1.02c0,0,10.37-1.63,10.16-5.69c-0.55-11,9.149-14.03,9.149-14.03l0.471-1.8c0.89,0.37,1.859,0.58,2.89,0.58
			c1.28,0,2.49-0.32,3.54-0.9L495.88,306.51z"/>
		<path style="fill:#9C5C25;" d="M499.13,299.7c0,1.28-0.32,2.48-0.89,3.53c-0.69,1.26-1.73,2.31-2.99,2.99
			c-1.05,0.58-2.26,0.9-3.54,0.9c-1.03,0-2-0.21-2.89-0.58c-2.66-1.13-4.53-3.77-4.53-6.84c0-4.1,3.32-7.42,7.42-7.42
			S499.13,295.6,499.13,299.7z"/>
		<path style="fill:#FFFFFF;" d="M453.08,329.11v24.06l-22.98,16.67l-1.83,0.49c-1.5-4.03-1.829-7-1.829-7v-0.81v-31.1v-2.26
			l9.149-0.02l13.42-0.02L453.08,329.11z"/>
		<path style="fill:#FBED24;" d="M478.08,362.42v0.81c0,0-0.37,3.31-2.09,7.69l-1.771-0.67l-21.14-17.08v-24.06l2.03-0.01
			l13.93-0.02l9.04-0.02v2.25V362.42z"/>
		<path style="fill:#A8D7F4;" d="M474.22,370.25l1.771,0.67c-1.75,4.46-4.9,10.03-10.45,14.32c-5.05,3.9-13.23,4.73-13.23,4.73
			s-8.279-0.74-13.319-4.63c-5.851-4.51-9.03-10.44-10.721-15.01l1.83-0.49l22.98-16.67L474.22,370.25z"/>
		<path style="fill:#FFFFFF;" d="M455.11,327.96v1.14l-2.03,0.01l-4.07,0.01v-0.96l-8.34-23.18l-0.04-0.46
			c4.29-0.35,7.57-2.19,7.57-4.42c0-1.28-1.09-2.44-2.84-3.25l0.189-0.41l-1.01-11.38l-0.09-0.39c1.56-0.34,2.88-0.89,3.83-1.58
			l5.81,1.04c-0.27,0.42-0.41,0.87-0.41,1.33c0,1.64,1.771,3.07,4.41,3.84l-0.13,0.43l-0.82,12.61l0.07,0.29
			c-2.94,0.73-4.95,2.24-4.95,3.98c0,2.19,3.19,4.01,7.391,4.39l-0.07,0.9L455.11,327.96z"/>
		<path style="fill:#58B947;" d="M448.2,300.1c0,2.23-3.28,4.07-7.57,4.42c-0.479,0.04-0.979,0.06-1.479,0.06
			c-5,0-9.051-2-9.051-4.48c0-2.47,4.051-4.47,9.051-4.47c2.399,0,4.59,0.46,6.21,1.22C447.11,297.66,448.2,298.82,448.2,300.1z"/>
		<path style="fill:#58B947;" d="M449.82,280.58c0,0.93-0.57,1.79-1.54,2.51c-0.95,0.69-2.271,1.24-3.83,1.58
			c-1.12,0.25-2.37,0.39-3.681,0.39c-4.989,0-9.039-2-9.039-4.48c0-2.47,4.05-4.47,9.039-4.47
			C445.77,276.11,449.82,278.11,449.82,280.58z"/>
		<path style="fill:#58B947;" d="M461.31,302.14c4.99,0,9.051,2,9.051,4.47c0,2.47-4.061,4.47-9.051,4.47
			c-0.569,0-1.119-0.03-1.659-0.08c-4.2-0.38-7.391-2.2-7.391-4.39c0-1.74,2.01-3.25,4.95-3.98
			C458.44,302.32,459.84,302.14,461.31,302.14z"/>
		<path style="fill:#58B947;" d="M462.73,280.99c5,0,9.05,2,9.05,4.47c0,2.48-4.05,4.48-9.05,4.48c-1.69,0-3.28-0.23-4.641-0.64
			c-2.64-0.77-4.41-2.2-4.41-3.84c0-0.46,0.141-0.91,0.41-1.33C455.24,282.31,458.68,280.99,462.73,280.99z"/>
		<path style="fill:#FFFFFF;" d="M390.47,314.56l1.2,1.61c0,0,4.27,12.2,5.49,12.2c0.59,0,3.33-5.11,5.99-10.37l0.92,0.2l2.65,13.62
			l-0.61,0.82c-0.41,0.61-3.87,46.56-3.87,46.56l6.1,0.4l7.53-25l3.45,23.38l6.31,0.2l0.811-15.66v0.81c0,0,0.329,2.97,1.829,7
			c1.69,4.57,4.87,10.5,10.721,15.01c5.04,3.89,13.319,4.63,13.319,4.63s8.181-0.83,13.23-4.73c5.55-4.29,8.7-9.86,10.45-14.32
			c1.72-4.38,2.09-7.69,2.09-7.69v-0.81h0.11l0.81,15.66l6.3-0.2l3.46-23.39l7.521,25.01l6.1-0.4c0,0-3.46-45.96-3.86-46.57
			l-0.609-0.81l2.64-13.62l0.931-0.21c2.659,5.26,5.399,10.37,5.979,10.37c1.22,0,5.5-12.2,5.5-12.2l1.2-1.61l-15.03-11.2
			l-0.89-0.02c0.569-1.05,0.89-2.25,0.89-3.53c0-4.1-3.32-7.42-7.42-7.42s-7.42,3.32-7.42,7.42c0,3.07,1.87,5.71,4.53,6.84
			l-0.471,1.8c0,0-9.699,3.03-9.149,14.03c0.21,4.06-10.16,5.69-10.16,5.69v1.02l-13.93,0.02v-1.14l4.47-16.06l0.07-0.9
			c0.54,0.05,1.09,0.08,1.659,0.08c4.99,0,9.051-2,9.051-4.47c0-2.47-4.061-4.47-9.051-4.47c-1.47,0-2.869,0.18-4.1,0.49l-0.07-0.29
			l0.82-12.61l0.13-0.43c1.36,0.41,2.95,0.64,4.641,0.64c5,0,9.05-2,9.05-4.48c0-2.47-4.05-4.47-9.05-4.47
			c-4.051,0-7.49,1.32-8.641,3.14l-5.81-1.04c0.97-0.72,1.54-1.58,1.54-2.51c0-2.47-4.051-4.47-9.051-4.47
			c-4.989,0-9.039,2-9.039,4.47c0,2.48,4.05,4.48,9.039,4.48c1.311,0,2.561-0.14,3.681-0.39l0.09,0.39l1.01,11.38l-0.189,0.41
			c-1.62-0.76-3.811-1.22-6.21-1.22c-5,0-9.051,2-9.051,4.47c0,2.48,4.051,4.48,9.051,4.48c0.5,0,1-0.02,1.479-0.06l0.04,0.46
			l8.34,23.18v0.96l-13.42,0.02v-0.98c0,0-10.37-1.62-10.17-5.69c0.56-11-9.15-14.03-9.15-14.03l-3.35-1.22
			c4.1,0,7.42-3.32,7.42-7.42c0-4.1-3.32-7.42-7.42-7.42s-7.42,3.32-7.42,7.42c0,1.02,0.21,2,0.58,2.89l-0.58,0.67L390.47,314.56z
			 M396.49,275.2c5.36-4.98,11.36-9.25,17.85-12.67c5.81-3.05,12.021-5.42,18.53-6.99c6.1-1.48,12.46-2.26,19-2.26
			c0.34,0,0.68,0,1.01,0.01c5.76,0.07,11.37,0.74,16.78,1.97c6.64,1.5,12.99,3.82,18.92,6.85c6.51,3.33,12.53,7.51,17.93,12.41
			c5.01,4.54,9.48,9.7,13.3,15.36c3.801,5.63,6.96,11.76,9.36,18.27c2.55,6.89,4.26,14.21,4.98,21.83
			c0.27,2.77,0.399,5.57,0.399,8.41c0,3.82-0.24,7.58-0.72,11.27c-0.78,6.12-2.2,12.03-4.18,17.66
			c-2.23,6.37-5.181,12.38-8.75,17.94c-3.551,5.53-7.721,10.61-12.4,15.14c-5.29,5.13-11.24,9.55-17.71,13.11
			c-5.83,3.21-12.08,5.72-18.64,7.42c-6.49,1.68-13.28,2.58-20.28,2.58c-0.04,0-0.08,0-0.12,0c-5.95-0.01-11.75-0.66-17.34-1.91
			c-6.76-1.49-13.2-3.83-19.23-6.91c-6.64-3.39-12.76-7.67-18.24-12.69c-5.1-4.66-9.63-9.97-13.48-15.79
			c-3.82-5.78-6.96-12.06-9.31-18.73c-2.49-7.03-4.1-14.48-4.69-22.23c-0.18-2.26-0.27-4.55-0.27-6.86c0-4.4,0.32-8.72,0.95-12.94
			c0.91-6.13,2.45-12.04,4.56-17.67c2.36-6.32,5.44-12.27,9.13-17.75C387.48,284.59,391.73,279.62,396.49,275.2z"/>
		<path style="fill:#FFFFFF;" d="M396.94,402c5.48,5.02,11.6,9.3,18.24,12.69c6.03,3.08,12.47,5.42,19.23,6.91
			c5.59,1.25,11.39,1.9,17.34,1.91c0.04,0,0.08,0,0.12,0c7,0,13.79-0.9,20.28-2.58c6.56-1.7,12.81-4.21,18.64-7.42
			c6.47-3.56,12.42-7.98,17.71-13.11c4.68-4.53,8.85-9.61,12.4-15.14c3.569-5.56,6.52-11.57,8.75-17.94
			c1.979-5.63,3.399-11.54,4.18-17.66c0.479-3.69,0.72-7.45,0.72-11.27c0-2.84-0.13-5.64-0.399-8.41
			c-0.721-7.62-2.431-14.94-4.98-21.83c-2.4-6.51-5.56-12.64-9.36-18.27c-3.819-5.66-8.29-10.82-13.3-15.36
			c-5.399-4.9-11.42-9.08-17.93-12.41c-5.93-3.03-12.28-5.35-18.92-6.85c-5.41-1.23-11.021-1.9-16.78-1.97
			c-0.33-0.01-0.67-0.01-1.01-0.01c-6.54,0-12.9,0.78-19,2.26c-6.51,1.57-12.72,3.94-18.53,6.99c-6.49,3.42-12.49,7.69-17.85,12.67
			c-4.76,4.42-9.01,9.39-12.66,14.83c-3.69,5.48-6.77,11.43-9.13,17.75c-2.11,5.63-3.65,11.54-4.56,17.67
			c-0.63,4.22-0.95,8.54-0.95,12.94c0,2.31,0.09,4.6,0.27,6.86c0.59,7.75,2.2,15.2,4.69,22.23c2.35,6.67,5.49,12.95,9.31,18.73
			C387.31,392.03,391.84,397.34,396.94,402z M452.27,232.4c57.86,0,104.771,46.9,104.771,104.77
			c0,57.86-46.91,104.771-104.771,104.771c-57.859,0-104.77-46.911-104.77-104.771C347.5,279.3,394.41,232.4,452.27,232.4z"/>
		<path style="fill:#C8C8C8;" d="M178.72,513.8v247.59h-36.87L140,134.95c5.59,2.65,12.25,4.19,19.41,4.19
			c7.12,0,13.75-1.52,19.31-4.14v24.2V208v261.33V513.8z"/>
		<polygon style="fill:#ED1E29;" points="725.39,469.33 725.39,513.8 184.28,513.8 178.72,513.8 178.72,469.33 183.73,469.33 		"/>
		<polygon style="fill:#ED1E29;" points="725.39,159.2 725.39,208 180.48,208 178.72,208 178.72,159.2 181.02,159.2 		"/>
		<path style="fill:#0071BC;" d="M725.39,208v261.33H183.73h-5.01V208h1.76H725.39z M557.04,337.17
			c0-57.87-46.91-104.77-104.771-104.77c-57.859,0-104.77,46.9-104.77,104.77c0,57.86,46.91,104.771,104.77,104.771
			C510.13,441.94,557.04,395.03,557.04,337.17z"/>
		<path style="fill:#C8C8C8;" d="M178.72,135c-5.56,2.62-12.19,4.14-19.31,4.14c-7.16,0-13.82-1.54-19.41-4.19
			c-9.81-4.63-16.3-12.69-16.3-21.84c0-14.37,15.99-26.03,35.71-26.03c19.73,0,35.71,11.66,35.71,26.03
			C195.12,122.3,188.59,130.37,178.72,135z"/>
	</g>
	<g>
		<polyline style="fill:none;stroke:#231F20;stroke-width:19.5194;" points="181.02,159.2 725.39,159.2 725.39,208 725.39,469.33 
			725.39,513.8 184.28,513.8 		"/>
		<path style="fill:none;stroke:#231F20;stroke-width:19.5194;" d="M140,134.95c-9.81-4.63-16.3-12.69-16.3-21.84
			c0-14.37,15.99-26.03,35.71-26.03c19.73,0,35.71,11.66,35.71,26.03c0,9.19-6.53,17.26-16.4,21.89
			c-5.56,2.62-12.19,4.14-19.31,4.14C152.25,139.14,145.59,137.6,140,134.95z"/>
		<polyline style="fill:none;stroke:#231F20;stroke-width:19.5194;" points="140,134 140,134.95 141.85,761.39 		"/>
		<polyline style="fill:none;stroke:#231F20;stroke-width:19.5194;" points="178.72,133.31 178.72,135 178.72,159.2 178.72,208 
			178.72,469.33 178.72,513.8 178.72,761.39 		"/>
		<polyline style="fill:none;stroke:#231F20;stroke-width:13.0129;" points="180.48,208 725.39,208 725.4,208 		"/>
		<polyline style="fill:none;stroke:#231F20;stroke-width:13.0129;" points="183.73,469.33 725.39,469.33 728.65,469.33 		"/>
		<path style="fill:none;stroke:#231F20;stroke-width:13.0129;" d="M557.04,337.17c0,57.86-46.91,104.771-104.771,104.771
			c-57.859,0-104.77-46.911-104.77-104.771c0-57.87,46.91-104.77,104.77-104.77C510.13,232.4,557.04,279.3,557.04,337.17z"/>
		<path style="fill:none;stroke:#231F20;stroke-width:4.8799;" d="M534.15,329.98c0.27,2.77,0.399,5.57,0.399,8.41
			c0,3.82-0.24,7.58-0.72,11.27c-0.78,6.12-2.2,12.03-4.18,17.66c-2.23,6.37-5.181,12.38-8.75,17.94
			c-3.551,5.53-7.721,10.61-12.4,15.14c-5.29,5.13-11.24,9.55-17.71,13.11c-5.83,3.21-12.08,5.72-18.64,7.42
			c-6.49,1.68-13.28,2.58-20.28,2.58c-0.04,0-0.08,0-0.12,0c-5.95-0.01-11.75-0.66-17.34-1.91c-6.76-1.49-13.2-3.83-19.23-6.91
			c-6.64-3.39-12.76-7.67-18.24-12.69c-5.1-4.66-9.63-9.97-13.48-15.79c-3.82-5.78-6.96-12.06-9.31-18.73
			c-2.49-7.03-4.1-14.48-4.69-22.23c-0.18-2.26-0.27-4.55-0.27-6.86c0-4.4,0.32-8.72,0.95-12.94c0.91-6.13,2.45-12.04,4.56-17.67
			c2.36-6.32,5.44-12.27,9.13-17.75c3.65-5.44,7.9-10.41,12.66-14.83c5.36-4.98,11.36-9.25,17.85-12.67
			c5.81-3.05,12.021-5.42,18.53-6.99c6.1-1.48,12.46-2.26,19-2.26c0.34,0,0.68,0,1.01,0.01c5.76,0.07,11.37,0.74,16.78,1.97
			c6.64,1.5,12.99,3.82,18.92,6.85c6.51,3.33,12.53,7.51,17.93,12.41c5.01,4.54,9.48,9.7,13.3,15.36
			c3.801,5.63,6.96,11.76,9.36,18.27C531.72,315.04,533.43,322.36,534.15,329.98z"/>
		<path style="fill:none;stroke:#231F20;stroke-width:6.5065;" d="M428.27,370.33c1.69,4.57,4.87,10.5,10.721,15.01
			c5.04,3.89,13.319,4.63,13.319,4.63s8.181-0.83,13.23-4.73c5.55-4.29,8.7-9.86,10.45-14.32c1.72-4.38,2.09-7.69,2.09-7.69v-0.81
			v-31.11v-2.25l-9.04,0.02l-13.93,0.02l-2.03,0.01l-4.07,0.01l-13.42,0.02l-9.149,0.02v2.26v31.1v0.81
			C426.44,363.33,426.77,366.3,428.27,370.33z"/>
		<polyline style="fill:none;stroke:#231F20;stroke-width:6.5065;" points="453.08,328.98 453.08,329.11 453.08,353.17 
			430.1,369.84 		"/>
		<line style="fill:none;stroke:#231F20;stroke-width:6.5065;" x1="453.08" y1="353.17" x2="474.22" y2="370.25"/>
		<path style="fill:none;stroke:#231F20;stroke-width:6.5065;stroke-linecap:round;stroke-linejoin:round;" d="M364.67,356.93
			c-0.92-1.23-1.47-2.76-1.47-4.43c0-3.73,2.73-6.82,6.26-7.25c0.28-0.04,0.57-0.06,0.86-0.06c3.93,0,7.12,3.28,7.12,7.31"/>
		<path style="fill:none;stroke:#231F20;stroke-width:6.5065;stroke-linecap:round;stroke-linejoin:round;" d="M371.58,378.49
			c-0.92-1.23-1.46-2.77-1.46-4.44c0-2.9,1.64-5.4,4.03-6.57c0.93-0.47,1.97-0.73,3.08-0.73c3.93,0,7.12,3.27,7.12,7.3"/>
		<path style="fill:none;stroke:#231F20;stroke-width:6.5065;stroke-linecap:round;stroke-linejoin:round;" d="M384.32,397.67
			c-1.27-0.88-2.27-2.16-2.8-3.74c-0.96-2.85-0.1-5.86,1.94-7.72c0.69-0.65,1.53-1.15,2.48-1.47c3.73-1.25,7.79,0.84,9.07,4.66"/>
		<path style="fill:none;stroke:#231F20;stroke-width:6.5065;stroke-linecap:round;stroke-linejoin:round;" d="M401.04,412.8
			c-1.47-0.47-2.8-1.4-3.77-2.76c-1.76-2.48-1.79-5.65-0.33-8.04c0.47-0.78,1.11-1.48,1.9-2.04c3.2-2.28,7.7-1.46,10.03,1.83"/>
		<path style="fill:none;stroke:#231F20;stroke-width:6.5065;stroke-linecap:round;stroke-linejoin:round;" d="M422.14,424.19
			c-1.54-0.02-3.08-0.53-4.41-1.55c-2.51-1.94-3.44-5.15-2.55-7.95c0.23-0.76,0.61-1.49,1.12-2.15c2.41-3.11,6.95-3.63,10.13-1.17"
			/>
		<path style="fill:none;stroke:#231F20;stroke-width:6.5065;stroke-linecap:round;stroke-linejoin:round;" d="M444.12,429.41
			c-1.46,0.5-3.09,0.54-4.67,0.03c-3.44-1.11-5.521-4.47-5.04-7.84c0.05-0.39,0.13-0.78,0.26-1.17c1.22-3.74,5.311-5.78,9.14-4.53"
			/>
		<path style="fill:none;stroke:#231F20;stroke-width:6.5065;stroke-linecap:round;stroke-linejoin:round;" d="M362.87,335.44
			c-0.55-1.43-0.65-3.06-0.19-4.67c0.97-3.4,4.14-5.58,7.46-5.32c0.46,0.03,0.92,0.11,1.38,0.24c3.78,1.08,5.95,5.1,4.85,8.98"/>
		<path style="fill:none;stroke:#231F20;stroke-width:6.5065;stroke-linecap:round;stroke-linejoin:round;" d="M364.92,314.75
			c0-1.54,0.49-3.1,1.49-4.43c1.99-2.65,5.39-3.6,8.29-2.54c0.63,0.23,1.23,0.55,1.79,0.97c3.14,2.37,3.72,6.9,1.3,10.12"/>
		<path style="fill:none;stroke:#231F20;stroke-width:6.5065;stroke-linecap:round;stroke-linejoin:round;" d="M372.75,295.24
			c0.22-1.52,0.94-2.98,2.13-4.16c2.47-2.43,6.21-2.79,8.95-1.05c0.44,0.28,0.86,0.61,1.24,1c2.76,2.8,2.66,7.37-0.21,10.19"/>
		<path style="fill:none;stroke:#231F20;stroke-width:6.5065;stroke-linecap:round;stroke-linejoin:round;" d="M384.13,279.38
			c0.23-1.52,0.94-2.98,2.14-4.16c2.87-2.82,7.43-2.85,10.19-0.05c0.01,0.01,0.02,0.02,0.03,0.03c2.73,2.8,2.62,7.35-0.24,10.17"/>
		<path style="fill:none;stroke:#231F20;stroke-width:6.5065;stroke-linecap:round;stroke-linejoin:round;" d="M401.86,262.49
			c0.81-1.3,2.05-2.36,3.61-2.96c3.39-1.3,7.13,0.04,8.87,3c0.19,0.33,0.36,0.67,0.5,1.04c1.4,3.67-0.52,7.82-4.28,9.25"/>
		<path style="fill:none;stroke:#231F20;stroke-width:6.5065;stroke-linecap:round;stroke-linejoin:round;" d="M421.21,251.87
			c1.19-0.97,2.71-1.55,4.38-1.61c3.46-0.1,6.44,2.15,7.28,5.28c0.149,0.51,0.229,1.05,0.25,1.6c0.12,3.93-3.05,7.22-7.08,7.35"/>
		<path style="fill:none;stroke:#231F20;stroke-width:6.5065;stroke-linecap:round;stroke-linejoin:round;" d="M443.13,246.08
			c1.46-0.5,3.08-0.54,4.68-0.03c3.221,1.05,5.24,4.07,5.07,7.24c-0.03,0.59-0.14,1.19-0.33,1.78c-1.21,3.74-5.31,5.76-9.14,4.52"/>
		<path style="fill:none;stroke:#231F20;stroke-width:6.5065;stroke-linecap:round;stroke-linejoin:round;" d="M539.86,318.24
			c0.909,1.23,1.46,2.76,1.46,4.43c0,4.03-3.19,7.31-7.12,7.31c-0.021,0-0.03,0-0.05,0c-3.9-0.03-7.061-3.3-7.061-7.31"/>
		<path style="fill:none;stroke:#231F20;stroke-width:6.5065;stroke-linecap:round;stroke-linejoin:round;" d="M532.94,296.69
			c0.92,1.22,1.47,2.76,1.47,4.43c0,3.36-2.22,6.2-5.24,7.03c-0.6,0.18-1.229,0.27-1.88,0.27c-3.93,0-7.12-3.27-7.12-7.3"/>
		<path style="fill:none;stroke:#231F20;stroke-width:6.5065;stroke-linecap:round;stroke-linejoin:round;" d="M520.21,277.5
			c1.26,0.88,2.26,2.16,2.8,3.74c1.13,3.38-0.279,6.98-3.2,8.64c-0.38,0.22-0.79,0.4-1.229,0.55c-3.72,1.25-7.79-0.84-9.07-4.66"/>
		<path style="fill:none;stroke:#231F20;stroke-width:6.5065;stroke-linecap:round;stroke-linejoin:round;" d="M503.49,262.37
			c1.46,0.47,2.79,1.4,3.76,2.76c2.12,2.99,1.74,6.97-0.74,9.39c-0.25,0.25-0.52,0.48-0.819,0.69c-3.21,2.28-7.71,1.46-10.04-1.83"
			/>
		<path style="fill:none;stroke:#231F20;stroke-width:6.5065;stroke-linecap:round;stroke-linejoin:round;" d="M482.39,250.98
			c1.53,0.02,3.08,0.53,4.4,1.55c3.02,2.34,3.75,6.51,1.79,9.58c-0.11,0.18-0.23,0.35-0.36,0.52c-2.399,3.11-6.95,3.63-10.13,1.17"
			/>
		<path style="fill:none;stroke:#231F20;stroke-width:6.5065;stroke-linecap:round;stroke-linejoin:round;" d="M460.41,245.76
			c1.45-0.5,3.08-0.54,4.67-0.03c3.84,1.24,5.97,5.28,4.77,9.02c-0.06,0.17-0.119,0.34-0.189,0.51c-1.4,3.4-5.3,5.2-8.95,4.02"/>
		<path style="fill:none;stroke:#231F20;stroke-width:6.5065;stroke-linecap:round;stroke-linejoin:round;" d="M541.65,339.73
			c0.55,1.43,0.649,3.06,0.199,4.67c-1.02,3.59-4.51,5.81-8.02,5.26c-0.28-0.04-0.55-0.1-0.82-0.18c-3.79-1.08-5.96-5.1-4.859-8.98"
			/>
		<path style="fill:none;stroke:#231F20;stroke-width:6.5065;stroke-linecap:round;stroke-linejoin:round;" d="M539.6,360.42
			c0,1.54-0.489,3.1-1.489,4.43c-2.03,2.7-5.53,3.64-8.46,2.47c-0.561-0.22-1.11-0.52-1.61-0.9c-3.15-2.37-3.72-6.9-1.31-10.12"/>
		<path style="fill:none;stroke:#231F20;stroke-width:6.5065;stroke-linecap:round;stroke-linejoin:round;" d="M531.78,379.93
			c-0.23,1.52-0.95,2.98-2.141,4.16c-2.409,2.37-6.01,2.77-8.739,1.17c-0.521-0.3-1.011-0.67-1.45-1.12
			c-2.76-2.8-2.66-7.37,0.21-10.19"/>
		<path style="fill:none;stroke:#231F20;stroke-width:6.5065;stroke-linecap:round;stroke-linejoin:round;" d="M520.39,395.79
			c-0.229,1.52-0.939,2.98-2.14,4.16c-2.72,2.67-6.96,2.84-9.75,0.45c-0.15-0.12-0.3-0.26-0.44-0.4
			c-2.76-2.8-2.649-7.37,0.221-10.19"/>
		<path style="fill:none;stroke:#231F20;stroke-width:6.5065;stroke-linecap:round;stroke-linejoin:round;" d="M502.67,412.68
			c-0.82,1.31-2.06,2.36-3.62,2.96c-3.04,1.16-6.359,0.21-8.26-2.13c-0.46-0.56-0.83-1.2-1.1-1.91c-1.41-3.67,0.51-7.82,4.27-9.25"
			/>
		<path style="fill:none;stroke:#231F20;stroke-width:6.5065;stroke-linecap:round;stroke-linejoin:round;" d="M483.32,423.3
			c-1.2,0.97-2.721,1.55-4.391,1.61c-2.96,0.09-5.56-1.55-6.779-3.98c-0.45-0.87-0.71-1.86-0.74-2.9c-0.12-3.93,3.05-7.22,7.07-7.35
			"/>
		<path style="fill:none;stroke:#231F20;stroke-width:6.5065;stroke-linecap:round;stroke-linejoin:round;" d="M461.39,429.1
			c-1.449,0.49-3.08,0.53-4.67,0.021c-2.67-0.87-4.51-3.09-4.97-5.61c-0.21-1.11-0.15-2.27,0.22-3.41
			c1.21-3.74,5.311-5.76,9.141-4.52"/>
		<path style="fill:none;stroke:#231F20;stroke-width:6.5065;stroke-linecap:round;stroke-linejoin:round;" d="M406.08,302.69
			c-0.37-0.89-0.58-1.87-0.58-2.89c0-4.1,3.32-7.42,7.42-7.42s7.42,3.32,7.42,7.42c0,4.1-3.32,7.42-7.42,7.42
			c-1.54,0-2.97-0.47-4.15-1.27C407.59,305.15,406.65,304.02,406.08,302.69z"/>
		<path style="fill:none;stroke:#231F20;stroke-width:6.5065;stroke-linecap:round;stroke-linejoin:round;" d="M408.75,306.61
			c0,0-2.76,5.79-5.6,11.39c-2.66,5.26-5.4,10.37-5.99,10.37c-1.22,0-5.49-12.2-5.49-12.2"/>
		<path style="fill:none;stroke:#231F20;stroke-width:6.5065;stroke-linecap:round;stroke-linejoin:round;" d="M416.27,308.44
			c0,0,9.71,3.03,9.15,14.03c-0.2,4.07,10.17,5.69,10.17,5.69"/>
		<polyline style="fill:none;stroke:#231F20;stroke-width:6.5065;stroke-linecap:round;stroke-linejoin:round;" points="
			404.07,318.2 406.72,331.82 426.03,331.42 		"/>
		<polyline style="fill:none;stroke:#231F20;stroke-width:6.5065;stroke-linecap:round;stroke-linejoin:round;" points="
			384.76,318.81 390.47,314.56 405.5,303.36 		"/>
		<path style="fill:none;stroke:#231F20;stroke-width:6.5065;stroke-linecap:round;stroke-linejoin:round;" d="M406.11,332.64
			c-0.41,0.61-3.87,46.56-3.87,46.56l6.1,0.4l7.53-25l3.45,23.38l6.31,0.2l0.811-15.66"/>
		<path style="fill:none;stroke:#231F20;stroke-width:4.8799;stroke-linecap:round;stroke-linejoin:round;" d="M402.4,381.43
			c-1.16,1.46-3.05,5.55,0.12,6.19c2.95,0.59,4.59-3.45,3.84-5.71"/>
		<path style="fill:none;stroke:#231F20;stroke-width:4.8799;stroke-linecap:round;stroke-linejoin:round;" d="M424.84,380.62
			c1.15,1.46,3.05,5.55-0.12,6.19c-2.95,0.59-4.59-3.46-3.84-5.71"/>
		<path style="fill:none;stroke:#231F20;stroke-width:6.5065;stroke-linecap:round;stroke-linejoin:round;" d="M498.24,303.23
			c0.569-1.05,0.89-2.25,0.89-3.53c0-4.1-3.32-7.42-7.42-7.42s-7.42,3.32-7.42,7.42c0,3.07,1.87,5.71,4.53,6.84
			c0.89,0.37,1.859,0.58,2.89,0.58c1.28,0,2.49-0.32,3.54-0.9C496.51,305.54,497.55,304.49,498.24,303.23z"/>
		<path style="fill:none;stroke:#231F20;stroke-width:6.5065;stroke-linecap:round;stroke-linejoin:round;" d="M495.88,306.51
			c0,0,2.76,5.78,5.601,11.38c2.659,5.26,5.399,10.37,5.979,10.37c1.22,0,5.5-12.2,5.5-12.2"/>
		<path style="fill:none;stroke:#231F20;stroke-width:6.5065;stroke-linecap:round;stroke-linejoin:round;" d="M488.35,308.34
			c0,0-9.699,3.03-9.149,14.03c0.21,4.06-10.16,5.69-10.16,5.69"/>
		<polyline style="fill:none;stroke:#231F20;stroke-width:6.5065;stroke-linecap:round;stroke-linejoin:round;" points="
			500.55,318.1 497.91,331.72 478.59,331.31 		"/>
		<polyline style="fill:none;stroke:#231F20;stroke-width:6.5065;stroke-linecap:round;stroke-linejoin:round;" points="
			519.87,318.71 514.16,314.45 499.13,303.25 		"/>
		<path style="fill:none;stroke:#231F20;stroke-width:6.5065;stroke-linecap:round;stroke-linejoin:round;" d="M498.52,332.53
			c0.4,0.61,3.86,46.57,3.86,46.57l-6.1,0.4l-7.521-25.01l-3.46,23.39l-6.3,0.2l-0.81-15.66"/>
		<path style="fill:none;stroke:#231F20;stroke-width:4.8799;stroke-linecap:round;stroke-linejoin:round;" d="M502.23,381.33
			c1.159,1.46,3.05,5.55-0.131,6.19c-2.949,0.59-4.59-3.46-3.84-5.71"/>
		<path style="fill:none;stroke:#231F20;stroke-width:4.8799;stroke-linecap:round;stroke-linejoin:round;" d="M479.78,380.52
			c-1.15,1.46-3.04,5.55,0.12,6.19c2.96,0.59,4.6-3.46,3.85-5.71"/>
		<path style="fill:none;stroke:#231F20;stroke-width:4.8799;stroke-linecap:round;stroke-linejoin:round;" d="M444.45,284.67
			c-1.12,0.25-2.37,0.39-3.681,0.39c-4.989,0-9.039-2-9.039-4.48c0-2.47,4.05-4.47,9.039-4.47c5,0,9.051,2,9.051,4.47
			c0,0.93-0.57,1.79-1.54,2.51C447.33,283.78,446.01,284.33,444.45,284.67z"/>
		<path style="fill:none;stroke:#231F20;stroke-width:4.8799;stroke-linecap:round;stroke-linejoin:round;" d="M454.09,284.13
			c1.15-1.82,4.59-3.14,8.641-3.14c5,0,9.05,2,9.05,4.47c0,2.48-4.05,4.48-9.05,4.48c-1.69,0-3.28-0.23-4.641-0.64
			c-2.64-0.77-4.41-2.2-4.41-3.84C453.68,285,453.82,284.55,454.09,284.13z"/>
		<path style="fill:none;stroke:#231F20;stroke-width:4.8799;stroke-linecap:round;stroke-linejoin:round;" d="M457.21,302.63
			c1.23-0.31,2.63-0.49,4.1-0.49c4.99,0,9.051,2,9.051,4.47c0,2.47-4.061,4.47-9.051,4.47c-0.569,0-1.119-0.03-1.659-0.08
			c-4.2-0.38-7.391-2.2-7.391-4.39C452.26,304.87,454.27,303.36,457.21,302.63z"/>
		<path style="fill:none;stroke:#231F20;stroke-width:4.8799;stroke-linecap:round;stroke-linejoin:round;" d="M445.36,296.85
			c1.75,0.81,2.84,1.97,2.84,3.25c0,2.23-3.28,4.07-7.57,4.42c-0.479,0.04-0.979,0.06-1.479,0.06c-5,0-9.051-2-9.051-4.48
			c0-2.47,4.051-4.47,9.051-4.47C441.55,295.63,443.74,296.09,445.36,296.85z"/>
		
			<line style="fill:none;stroke:#231F20;stroke-width:4.8799;stroke-linecap:round;stroke-linejoin:round;" x1="440.67" y1="304.98" x2="449.01" y2="328.16"/>
		
			<line style="fill:none;stroke:#231F20;stroke-width:4.8799;stroke-linecap:round;stroke-linejoin:round;" x1="445.55" y1="296.44" x2="444.54" y2="285.06"/>
		
			<line style="fill:none;stroke:#231F20;stroke-width:4.8799;stroke-linecap:round;stroke-linejoin:round;" x1="457.96" y1="289.73" x2="457.14" y2="302.34"/>
		
			<line style="fill:none;stroke:#231F20;stroke-width:4.8799;stroke-linecap:round;stroke-linejoin:round;" x1="459.58" y1="311.9" x2="455.11" y2="327.96"/>
	</g>
</g>
<rect style="fill:none;" width="850.394" height="850.394"/>
</svg>
