<?xml version="1.0" encoding="iso-8859-1"?>
<!-- Generator: Adobe Illustrator 12.0.1, SVG Export Plug-In . SVG Version: 6.00 Build 51448)  -->
<!DOCTYPE svg PUBLIC "-//W3C//DTD SVG 1.1//EN" "http://www.w3.org/Graphics/SVG/1.1/DTD/svg11.dtd" [
	<!ENTITY ns_svg "http://www.w3.org/2000/svg">
	<!ENTITY ns_xlink "http://www.w3.org/1999/xlink">
]>
<svg  version="1.1" id="Layer_1" xmlns="&ns_svg;" xmlns:xlink="&ns_xlink;" width="850.394" height="850.394"
	 viewBox="0 0 850.394 850.394" style="overflow:visible;enable-background:new 0 0 850.394 850.394;" xml:space="preserve">
<g id="XMLID_2_">
	<g>
		<path style="fill:#C8C8C8;" d="M162.61,114.42v670.96h-39.49L122,114.77c5.8,2.59,12.62,4.08,19.92,4.08
			C149.54,118.85,156.65,117.22,162.61,114.42z"/>
		<path style="fill:#A8D7F4;" d="M748.18,177.46v342.71H168.56l-3.49-379.83h583.11V177.46z M554.77,337.39
			c0-62.63-50.76-113.39-113.38-113.39C378.76,224,328,274.76,328,337.39c0,62.62,50.76,113.379,113.39,113.379
			C504.01,450.77,554.77,400.01,554.77,337.39z"/>
		<path style="fill:#FBED24;" d="M441.39,224c62.62,0,113.38,50.76,113.38,113.39c0,62.62-50.76,113.379-113.38,113.379
			C378.76,450.77,328,400.01,328,337.39C328,274.76,378.76,224,441.39,224z"/>
		<path style="fill:#C8C8C8;" d="M122,114.77c-10.99-4.89-18.33-13.72-18.33-23.8c0-15.4,17.13-27.88,38.25-27.88
			c21.13,0,38.26,12.48,38.26,27.88c0,9.84-7,18.49-17.57,23.45c-5.96,2.8-13.07,4.43-20.69,4.43
			C134.62,118.85,127.8,117.36,122,114.77z"/>
	</g>
	<g>
		<polyline style="fill:none;stroke:#231F20;stroke-width:21;" points="165.07,140.34 748.18,140.34 748.18,177.46 748.18,520.17 
			168.56,520.17 		"/>
		<path style="fill:none;stroke:#231F20;stroke-width:21;" d="M122,114.77c-10.99-4.89-18.33-13.72-18.33-23.8
			c0-15.4,17.13-27.88,38.25-27.88c21.13,0,38.26,12.48,38.26,27.88c0,9.84-7,18.49-17.57,23.45c-5.96,2.8-13.07,4.43-20.69,4.43
			C134.62,118.85,127.8,117.36,122,114.77z"/>
		<polyline style="fill:none;stroke:#231F20;stroke-width:21;" points="122,114 122,114.77 123.12,785.38 		"/>
		<polyline style="fill:none;stroke:#231F20;stroke-width:21;" points="162.61,112.6 162.61,114.42 162.61,785.38 		"/>
		<polyline style="fill:none;stroke:#231F20;stroke-width:14;" points="744.76,179.39 748.18,177.46 750.19,176.32 		"/>
		<path style="fill:none;stroke:#231F20;stroke-width:14;" d="M554.77,337.39c0,62.62-50.76,113.379-113.38,113.379
			C378.76,450.77,328,400.01,328,337.39C328,274.76,378.76,224,441.39,224C504.01,224,554.77,274.76,554.77,337.39z"/>
	</g>
</g>
<rect style="fill:none;" width="850.394" height="850.394"/>
</svg>
