<?xml version="1.0" encoding="iso-8859-1"?>
<!-- Generator: Adobe Illustrator 12.0.1, SVG Export Plug-In . SVG Version: 6.00 Build 51448)  -->
<!DOCTYPE svg PUBLIC "-//W3C//DTD SVG 1.1//EN" "http://www.w3.org/Graphics/SVG/1.1/DTD/svg11.dtd" [
	<!ENTITY ns_svg "http://www.w3.org/2000/svg">
	<!ENTITY ns_xlink "http://www.w3.org/1999/xlink">
]>
<svg  version="1.1" id="Layer_1" xmlns="&ns_svg;" xmlns:xlink="&ns_xlink;" width="850.394" height="850.394"
	 viewBox="0 0 850.394 850.394" style="overflow:visible;enable-background:new 0 0 850.394 850.394;" xml:space="preserve">
<g id="XMLID_4_">
	<g>
		<path style="fill:#ED1E29;" d="M748.18,177.46v342.71H168.56l-3.49-379.83h583.11V177.46z M412.26,305.88l10-9.74l-13.82-2.01
			l-6.18-12.52l-6.18,12.52l-13.82,2.01l10,9.74l-2.36,13.77l12.36-6.5l12.36,6.5L412.26,305.88z M411.75,246.39l10.05-9.79
			l-13.88-2.02L401.71,222l-6.21,12.58l-13.88,2.02l10.04,9.79l-2.37,13.82l12.42-6.52l12.42,6.52L411.75,246.39z M379.03,192.69
			l9.35-9.11l-12.92-1.88l-5.77-11.7l-5.78,11.7L351,183.58l9.34,9.11l-2.2,12.86l11.55-6.07l11.55,6.07L379.03,192.69z
			 M372.44,351.1l10.45-10.18l-14.44-2.1L362,325.74l-6.46,13.08l-14.44,2.1l10.45,10.18l-2.46,14.38l12.91-6.79l12.91,6.79
			L372.44,351.1z M304.39,270.2l25.74-25.09l-35.57-5.17l-15.91-32.23l-15.91,32.23l-35.58,5.17l25.74,25.09l-6.07,35.43
			l31.82-16.72l31.81,16.72L304.39,270.2z"/>
		<path style="fill:#C8C8C8;" d="M162.61,114.42v670.96h-39.49L122,114.77c5.8,2.59,12.62,4.08,19.92,4.08
			C149.54,118.85,156.65,117.22,162.61,114.42z"/>
		<polygon style="fill:#FBED24;" points="422.26,296.14 412.26,305.88 414.62,319.65 402.26,313.15 389.9,319.65 392.26,305.88 
			382.26,296.14 396.08,294.13 402.26,281.61 408.44,294.13 		"/>
		<polygon style="fill:#FBED24;" points="421.8,236.6 411.75,246.39 414.13,260.21 401.71,253.69 389.29,260.21 391.66,246.39 
			381.62,236.6 395.5,234.58 401.71,222 407.92,234.58 		"/>
		<polygon style="fill:#FBED24;" points="388.38,183.58 379.03,192.69 381.24,205.55 369.69,199.48 358.14,205.55 360.34,192.69 
			351,183.58 363.91,181.7 369.69,170 375.46,181.7 		"/>
		<polygon style="fill:#FBED24;" points="382.89,340.92 372.44,351.1 374.91,365.48 362,358.69 349.09,365.48 351.55,351.1 
			341.1,340.92 355.54,338.82 362,325.74 368.45,338.82 		"/>
		<polygon style="fill:#FBED24;" points="330.13,245.11 304.39,270.2 310.46,305.63 278.65,288.91 246.83,305.63 252.9,270.2 
			227.16,245.11 262.74,239.94 278.65,207.71 294.56,239.94 		"/>
		<path style="fill:#C8C8C8;" d="M162.61,114.42c-5.96,2.8-13.07,4.43-20.69,4.43c-7.3,0-14.12-1.49-19.92-4.08
			c-10.99-4.89-18.33-13.72-18.33-23.8c0-15.4,17.13-27.88,38.25-27.88c21.13,0,38.26,12.48,38.26,27.88
			C180.18,100.81,173.18,109.46,162.61,114.42z"/>
	</g>
	<g>
		<polyline style="fill:none;stroke:#231F20;stroke-width:21;" points="165.07,140.34 748.18,140.34 748.18,177.46 748.18,520.17 
			168.56,520.17 		"/>
		<path style="fill:none;stroke:#231F20;stroke-width:21;" d="M122,114.77c-10.99-4.89-18.33-13.72-18.33-23.8
			c0-15.4,17.13-27.88,38.25-27.88c21.13,0,38.26,12.48,38.26,27.88c0,9.84-7,18.49-17.57,23.45c-5.96,2.8-13.07,4.43-20.69,4.43
			C134.62,118.85,127.8,117.36,122,114.77z"/>
		<polyline style="fill:none;stroke:#231F20;stroke-width:21;" points="122,114 122,114.77 123.12,785.38 		"/>
		<polyline style="fill:none;stroke:#231F20;stroke-width:21;" points="162.61,112.6 162.61,114.42 162.61,785.38 		"/>
		<polyline style="fill:none;stroke:#231F20;stroke-width:14;" points="744.76,179.39 748.18,177.46 750.19,176.32 		"/>
		<polygon style="fill:none;stroke:#231F20;stroke-width:7.5979;" points="278.65,288.91 246.83,305.63 252.9,270.2 227.16,245.11 
			262.74,239.94 278.65,207.71 294.56,239.94 330.13,245.11 304.39,270.2 310.46,305.63 		"/>
		<polygon style="fill:none;stroke:#231F20;stroke-width:7;" points="369.69,199.48 358.14,205.55 360.34,192.69 351,183.58 
			363.91,181.7 369.69,170 375.46,181.7 388.38,183.58 379.03,192.69 381.24,205.55 		"/>
		<polygon style="fill:none;stroke:#231F20;stroke-width:7;" points="401.71,253.69 389.29,260.21 391.66,246.39 381.62,236.6 
			395.5,234.58 401.71,222 407.92,234.58 421.8,236.6 411.75,246.39 414.13,260.21 		"/>
		<polygon style="fill:none;stroke:#231F20;stroke-width:7.0001;" points="362,358.69 349.09,365.48 351.55,351.1 341.1,340.92 
			355.54,338.82 362,325.74 368.45,338.82 382.89,340.92 372.44,351.1 374.91,365.48 		"/>
		<polygon style="fill:none;stroke:#231F20;stroke-width:7;" points="402.26,313.15 389.9,319.65 392.26,305.88 382.26,296.14 
			396.08,294.13 402.26,281.61 408.44,294.13 422.26,296.14 412.26,305.88 414.62,319.65 		"/>
	</g>
</g>
<rect style="fill:none;" width="850.394" height="850.394"/>
</svg>
