<svg xmlns="http://www.w3.org/2000/svg" width="851.394" height="851.394" viewBox="0 0 851.394 851.394" overflow="visible"><path d="M163.11 114.92v670.96h-39.49l-1.12-670.61c5.8 2.59 12.62 4.08 19.92 4.08 7.62 0 14.73-1.63 20.69-4.43z" fill="#c8c8c8"/><path fill="#ed1e29" d="M748.68 140.84v379.83H298.5V140.84z"/><path fill="#fff" d="M298.5 518.5v2.17H169.06l-3.49-379.83H298.5z"/><path d="M122.5 115.27c-10.99-4.89-18.33-13.72-18.33-23.8 0-15.4 17.13-27.88 38.25-27.88 21.13 0 38.26 12.48 38.26 27.88 0 9.84-7 18.49-17.57 23.45-5.96 2.8-13.07 4.43-20.69 4.43-7.3 0-14.12-1.49-19.92-4.08z" fill="#c8c8c8"/><g fill="none" stroke="#231f20"><path stroke-width="21" d="M165.57 140.84h583.11v379.83H169.06M122.5 115.27c-10.99-4.89-18.33-13.72-18.33-23.8 0-15.4 17.13-27.88 38.25-27.88 21.13 0 38.26 12.48 38.26 27.88 0 9.84-7 18.49-17.57 23.45-5.96 2.8-13.07 4.43-20.69 4.43-7.3 0-14.12-1.49-19.92-4.08z"/><path stroke-width="21" d="M122.5 114.5v.77l1.12 670.61M163.11 113.1V785.88"/><path stroke-width="14" d="M298.5 138.5v380"/></g><path fill="none" stroke="#231f20" d="M.5.5h850.394v850.394H.5z"/></svg>