<?xml version="1.0" encoding="iso-8859-1"?>
<!-- Generator: Adobe Illustrator 12.0.1, SVG Export Plug-In . SVG Version: 6.00 Build 51448)  -->
<!DOCTYPE svg PUBLIC "-//W3C//DTD SVG 1.1//EN" "http://www.w3.org/Graphics/SVG/1.1/DTD/svg11.dtd" [
	<!ENTITY ns_svg "http://www.w3.org/2000/svg">
	<!ENTITY ns_xlink "http://www.w3.org/1999/xlink">
]>
<svg  version="1.1" id="Layer_1" xmlns="&ns_svg;" xmlns:xlink="&ns_xlink;" width="884.25" height="850.394"
	 viewBox="0 0 884.25 850.394" style="overflow:visible;enable-background:new 0 0 884.25 850.394;" xml:space="preserve">
<g id="XMLID_1_">
	<g>
		<path style="fill:#C8C8C8;" d="M162.61,468.7v316.68h-39.49L122,114.77c5.8,2.59,12.62,4.08,19.92,4.08
			c7.62,0,14.73-1.63,20.69-4.43V420V468.7z"/>
		<polygon style="fill:#ED1E29;" points="463.09,365.55 443.15,355.07 423.22,365.55 427.03,343.35 410.9,327.63 433.19,324.39 
			443.15,304.2 453.12,324.39 475.41,327.63 459.28,343.35 		"/>
		<path style="fill:#FFFFFF;" d="M443.15,355.07l19.939,10.48l-3.81-22.2l16.13-15.72l-22.29-3.24l-9.97-20.19l-9.96,20.19
			l-22.291,3.24l16.13,15.72l-3.81,22.2L443.15,355.07z M748.18,246v174H748H167.64l-1.6-173.98L168,246H748.18z M409.62,290.52
			c-7.11-5.38-11.37-10.71-18.41-14.31c-51.73-26.48-100.9,17.53-97.16,65.45c2.48,31.82,27.78,57.21,58.29,60.34
			c25.75,2.64,43.66-6.92,53.19-19.43c-6.8,4.13-12.44,7.19-20.46,8.18c-80.25,9.85-83.39-110.46-8.18-110.46
			C390.76,280.29,400.27,286.17,409.62,290.52z"/>
		<path style="fill:#ED1E29;" d="M376.89,280.29c-75.21,0-72.07,120.31,8.18,110.46c8.02-0.99,13.66-4.05,20.46-8.18
			c-9.53,12.51-27.44,22.07-53.19,19.43c-30.51-3.13-55.81-28.52-58.29-60.34c-3.74-47.92,45.43-91.93,97.16-65.45
			c7.04,3.6,11.3,8.93,18.41,14.31C400.27,286.17,390.76,280.29,376.89,280.29z"/>
		<polygon style="fill:#ED1E29;" points="748.18,192 748.18,246 168,246 166.04,246.02 165.54,192 166,192 748,192 		"/>
		<polygon style="fill:#FFFFFF;" points="748.18,177.46 748.18,192 748,192 166,192 165.54,192 165.07,140.34 748.18,140.34 		"/>
		<polygon style="fill:#FFFFFF;" points="748.18,468.7 748.18,520.17 168.56,520.17 168.09,468.7 747.75,468.7 		"/>
		<polygon style="fill:#ED1E29;" points="748.18,420 748.18,468.7 747.75,468.7 168.09,468.7 167.64,420 748,420 		"/>
		<path style="fill:#C8C8C8;" d="M162.61,114.42c-5.96,2.8-13.07,4.43-20.69,4.43c-7.3,0-14.12-1.49-19.92-4.08
			c-10.99-4.89-18.33-13.72-18.33-23.8c0-15.4,17.13-27.88,38.25-27.88c21.13,0,38.26,12.48,38.26,27.88
			C180.18,100.81,173.18,109.46,162.61,114.42z"/>
	</g>
	<g>
		<polyline style="fill:none;stroke:#231F20;stroke-width:21;" points="165.07,140.34 748.18,140.34 748.18,177.46 748.18,192 
			748.18,246 748.18,420 748.18,468.7 748.18,520.17 168.56,520.17 		"/>
		<path style="fill:none;stroke:#231F20;stroke-width:21;" d="M122,114.77c-10.99-4.89-18.33-13.72-18.33-23.8
			c0-15.4,17.13-27.88,38.25-27.88c21.13,0,38.26,12.48,38.26,27.88c0,9.84-7,18.49-17.57,23.45c-5.96,2.8-13.07,4.43-20.69,4.43
			C134.62,118.85,127.8,117.36,122,114.77z"/>
		<polyline style="fill:none;stroke:#231F20;stroke-width:21;" points="122,114 122,114.77 123.12,785.38 		"/>
		<polyline style="fill:none;stroke:#231F20;stroke-width:21;" points="162.61,112.6 162.61,114.42 162.61,420 162.61,468.7 
			162.61,785.38 		"/>
		<polyline style="fill:none;stroke:#231F20;stroke-width:14;" points="744.76,179.39 748.18,177.46 750.19,176.32 		"/>
		<line style="fill:none;stroke:#231F20;stroke-width:14;" x1="166" y1="192" x2="748" y2="192"/>
		<polyline style="fill:none;stroke:#231F20;stroke-width:14;" points="168,246 748.18,246 754,246 		"/>
		<polyline style="fill:none;stroke:#231F20;stroke-width:14;" points="164,420 167.64,420 748,420 		"/>
		<polyline style="fill:none;stroke:#231F20;stroke-width:14;" points="163.75,468.7 168.09,468.7 747.75,468.7 		"/>
		<line style="fill:none;stroke:#231F20;" x1="882" y1="814" x2="884" y2="814"/>
		<path style="fill:none;stroke:#231F20;stroke-width:7;" d="M385.07,390.75c-80.25,9.85-83.39-110.46-8.18-110.46
			c13.87,0,23.38,5.88,32.73,10.23c-7.11-5.38-11.37-10.71-18.41-14.31c-51.73-26.48-100.9,17.53-97.16,65.45
			c2.48,31.82,27.78,57.21,58.29,60.34c25.75,2.64,43.66-6.92,53.19-19.43C398.73,386.7,393.09,389.76,385.07,390.75z"/>
		<polygon style="fill:none;stroke:#231F20;stroke-width:5;" points="443.15,355.07 423.22,365.55 427.03,343.35 410.9,327.63 
			433.19,324.39 443.15,304.2 453.12,324.39 475.41,327.63 459.28,343.35 463.09,365.55 		"/>
	</g>
</g>
<rect style="fill:none;" width="850.394" height="850.394"/>
</svg>
