<?xml version="1.0" encoding="iso-8859-1"?>
<!-- Generator: Adobe Illustrator 12.0.1, SVG Export Plug-In . SVG Version: 6.00 Build 51448)  -->
<!DOCTYPE svg PUBLIC "-//W3C//DTD SVG 1.1//EN" "http://www.w3.org/Graphics/SVG/1.1/DTD/svg11.dtd" [
	<!ENTITY ns_svg "http://www.w3.org/2000/svg">
	<!ENTITY ns_xlink "http://www.w3.org/1999/xlink">
]>
<svg  version="1.1" id="Layer_1" xmlns="&ns_svg;" xmlns:xlink="&ns_xlink;" width="850.394" height="850.394"
	 viewBox="0 0 850.394 850.394" style="overflow:visible;enable-background:new 0 0 850.394 850.394;" xml:space="preserve">
<g>
	<g id="XMLID_3_">
		<g>
			<path style="fill:#ED1E29;" d="M745,179.25c0,111.02,0,222.05,0,333.08c-192.18,0-384.34,0-576.51,0l-3.35-363.89
				c193.28,0,386.58,0,579.86,0C745,158.71,745,168.98,745,179.25z M546.56,305.76l8.341-8.35l-11.7-1.54l-4.58-0.6l-47.14-6.2
				L469.7,246.4l-1.94-3.79l-6.069-11.89l-4.58,12.53l-1.471,4.01l-15.689,42.85l-2.13,0.07l0.02,0.76l-49.74,6.48l-4.59,0.6
				l-11.64,1.52l8.25,8.34l3.26,3.3l36.3,36.7l-8.76,42.94l-0.89,4.37l-2.5,12.24l10.98-5.96l3.92-2.13l41.93-22.77l42.38,21.55
				l4.12,2.1l10.51,5.34l-2.15-11.59l-0.84-4.55l-8.68-46.74l33.6-33.65L546.56,305.76z"/>
			<path style="fill:#FFFFFF;" d="M748.18,177.46v342.71H168.56l-0.07-7.84c192.17,0,384.33,0,576.51,0c0-111.03,0-222.06,0-333.08
				L748.18,177.46z"/>
			<path style="fill:#FFFFFF;" d="M745,148.44c-193.28,0-386.58,0-579.86,0l-0.07-8.1h583.11v37.12l-3.18,1.79
				C745,168.98,745,158.71,745,148.44z"/>
			<polygon style="fill:#34A047;" points="543.3,309.03 509.7,342.68 509.16,339.77 513.4,336.72 510.89,333.24 537.26,306.83 
				541.68,307.41 			"/>
			<polygon style="fill:#34A047;" points="546.56,305.76 543.3,309.03 541.68,307.41 540.41,303.67 542.44,301.64 539.59,301.27 
				538.32,297.53 538.62,295.27 543.2,295.87 554.9,297.41 			"/>
			<polygon style="fill:#34A047;" points="542.44,301.64 540.41,303.67 539.59,301.27 			"/>
			<polygon style="fill:#34A047;" points="540.41,303.67 541.68,307.41 537.26,306.83 			"/>
			<polygon style="fill:#34A047;" points="539.59,301.27 540.41,303.67 537.26,306.83 529.99,305.87 535.17,300.68 			"/>
			<polygon style="fill:#34A047;" points="538.32,297.53 539.59,301.27 535.17,300.68 			"/>
			<polygon style="fill:#34A047;" points="537.26,306.83 510.89,333.24 507.44,328.45 529.99,305.87 			"/>
			<polygon style="fill:#34A047;" points="535.17,300.68 529.99,305.87 495.79,301.37 494,295.27 			"/>
			<polygon style="fill:#ED1E29;" points="529.99,305.87 507.44,328.45 506.6,327.28 503.96,329.18 495.79,301.37 			"/>
			<polygon style="fill:#34A047;" points="519.22,393.97 521.37,405.56 510.86,400.22 506.74,398.12 507.77,396.09 510.93,393.73 
				513.49,395.03 512.97,392.21 516.13,389.84 518.38,389.42 			"/>
			<polygon style="fill:#34A047;" points="518.38,389.42 516.13,389.84 512.15,387.82 505.08,349.68 509.59,348.36 508.33,344.05 
				509.7,342.68 			"/>
			<polygon style="fill:#34A047;" points="516.13,389.84 512.97,392.21 512.15,387.82 			"/>
			<polygon style="fill:#34A047;" points="512.97,392.21 513.49,395.03 510.93,393.73 			"/>
			<polygon style="fill:#34A047;" points="512.15,387.82 512.97,392.21 510.93,393.73 506.96,391.71 505.62,384.49 			"/>
			<polygon style="fill:#34A047;" points="505.08,349.68 512.15,387.82 505.62,384.49 499.47,351.33 			"/>
			<polygon style="fill:#34A047;" points="510.93,393.73 507.77,396.09 506.96,391.71 			"/>
			<polygon style="fill:#34A047;" points="510.89,333.24 506.46,337.69 504.58,331.32 507.44,328.45 			"/>
			<polygon style="fill:#34A047;" points="509.16,339.77 509.7,342.68 508.33,344.05 508.06,343.15 509.09,339.82 			"/>
			<polygon style="fill:#231F20;" points="509.14,339.66 509.16,339.77 509.09,339.82 			"/>
			<polygon style="fill:#34A047;" points="509.14,339.66 509.09,339.82 507.43,341.02 506.46,337.69 510.89,333.24 513.4,336.72 
				509.16,339.77 			"/>
			<polygon style="fill:#34A047;" points="507.43,341.02 509.09,339.82 508.06,343.15 			"/>
			<polygon style="fill:#231F20;" points="508.33,344.05 507.54,344.84 508.06,343.15 			"/>
			<polygon style="fill:#34A047;" points="507.54,344.84 508.33,344.05 509.59,348.36 505.08,349.68 503.94,343.53 507.43,341.02 
				508.06,343.15 			"/>
			<polygon style="fill:#34A047;" points="506.96,391.71 507.77,396.09 506.74,398.12 464.36,376.57 465.49,375.95 466.68,376.78 
				469.54,372.67 			"/>
			<polygon style="fill:#34A047;" points="507.44,328.45 504.58,331.32 503.96,329.18 506.6,327.28 			"/>
			<polygon style="fill:#34A047;" points="506.46,337.69 507.43,341.02 503.94,343.53 503.42,340.73 			"/>
			<polygon style="fill:#34A047;" points="505.62,384.49 506.96,391.71 469.54,372.67 472.89,367.84 			"/>
			<polygon style="fill:#ED1E29;" points="499.47,351.33 505.62,384.49 472.89,367.84 473.32,367.22 472.16,366.41 497.41,348.23 
				498.41,351.64 			"/>
			<polygon style="fill:#34A047;" points="503.94,343.53 505.08,349.68 499.47,351.33 498.72,347.29 			"/>
			<polygon style="fill:#34A047;" points="503.42,340.73 503.94,343.53 498.72,347.29 497.7,341.79 497.14,338.78 499.3,336.61 
				504.58,331.32 506.46,337.69 			"/>
			<polygon style="fill:#34A047;" points="498.72,347.29 499.47,351.33 498.41,351.64 497.41,348.23 			"/>
			<polygon style="fill:#34A047;" points="493.94,336.4 497.41,348.23 472.16,366.41 462.03,359.37 			"/>
			<polygon style="fill:#34A047;" points="499.3,336.61 497.14,338.78 497.7,341.79 498.72,347.29 497.41,348.23 493.94,336.4 
				503.96,329.18 504.58,331.32 			"/>
			<polygon style="fill:#34A047;" points="494,295.27 495.79,301.37 487.42,300.27 487.87,300.26 487.69,294.44 			"/>
			<polygon style="fill:#34A047;" points="494,295.27 487.69,294.44 493.27,292.8 			"/>
			<polygon style="fill:#ED1E29;" points="493.94,336.4 462.03,359.37 434.32,340.09 448.21,301.51 483.37,300.4 			"/>
			<polygon style="fill:#34A047;" points="491.48,289.07 492.87,291.8 488.44,288.67 			"/>
			<polygon style="fill:#34A047;" points="469.7,246.4 491.48,289.07 488.44,288.67 487.5,288.7 487.5,288.62 484.75,288.71 
				466.18,252.33 468.04,247.25 			"/>
			<polygon style="fill:#34A047;" points="491.48,289.07 538.62,295.27 538.32,297.53 535.17,300.68 494,295.27 493.27,292.8 
				487.69,294.44 487.68,294.44 487.5,288.7 488.44,288.67 492.87,291.8 			"/>
			<polygon style="fill:#34A047;" points="487.5,288.7 487.68,294.44 484.75,288.71 487.5,288.62 			"/>
			<polygon style="fill:#34A047;" points="483.37,300.4 487.42,300.27 495.79,301.37 503.96,329.18 493.94,336.4 			"/>
			<polygon style="fill:#34A047;" points="466.18,252.33 484.75,288.71 478.32,288.91 463.45,259.78 			"/>
			<polygon style="fill:#34A047;" points="486.93,300.21 487.42,300.27 483.37,300.4 482.26,296.61 482.5,297.09 483.89,299.82 			
				"/>
			<polygon style="fill:#34A047;" points="482.1,296.08 482.26,296.61 478.32,288.91 484.75,288.71 487.68,294.44 			"/>
			<polygon style="fill:#34A047;" points="482.1,296.08 487.68,294.44 487.69,294.44 487.87,300.26 487.42,300.27 486.93,300.21 
				483.89,299.82 482.5,297.09 482.26,296.61 			"/>
			<polygon style="fill:#ED1E29;" points="463.45,259.78 478.32,288.91 452.5,289.72 			"/>
			<polygon style="fill:#34A047;" points="473.32,367.22 472.89,367.84 471.3,367.04 472.16,366.41 			"/>
			<polygon style="fill:#34A047;" points="472.89,367.84 469.54,372.67 465.98,370.86 471.3,367.04 			"/>
			<polygon style="fill:#34A047;" points="468.04,247.25 466.18,252.33 463.73,247.51 			"/>
			<polygon style="fill:#231F20;" points="467.04,375.11 465.49,375.95 464.33,375.15 			"/>
			<polygon style="fill:#34A047;" points="463.73,247.51 466.18,252.33 463.45,259.78 459.84,252.7 461.7,247.64 			"/>
			<polygon style="fill:#34A047;" points="465.98,370.86 463.4,372.72 462.23,371.1 464.27,369.99 			"/>
			<polygon style="fill:#34A047;" points="465.49,375.95 464.36,376.57 461.63,375.18 464.33,375.15 			"/>
			<polygon style="fill:#34A047;" points="462.03,359.37 472.16,366.41 471.3,367.04 466.9,364.8 464.18,363.42 461.49,364.88 
				458.8,366.34 456.6,363.28 			"/>
			<polygon style="fill:#34A047;" points="464.27,369.99 462.23,371.1 458.8,366.34 461.49,364.88 464.18,363.42 466.9,364.8 
				471.3,367.04 465.98,370.86 			"/>
			<polygon style="fill:#34A047;" points="463.73,247.51 461.7,247.64 462.57,245.25 			"/>
			<polygon style="fill:#34A047;" points="459.84,252.7 463.45,259.78 452.5,289.72 446.23,289.92 			"/>
			<polygon style="fill:#34A047;" points="465.98,370.86 469.54,372.67 466.68,376.78 465.49,375.95 467.04,375.11 464.33,375.15 
				460.14,372.23 462.23,371.1 463.4,372.72 			"/>
			<polygon style="fill:#34A047;" points="461.69,230.72 467.76,242.61 469.7,246.4 468.04,247.25 463.73,247.51 462.57,245.25 
				461.7,247.64 457.39,247.9 455.64,247.26 457.11,243.25 			"/>
			<polygon style="fill:#34A047;" points="460.14,372.23 464.33,375.15 461.63,375.18 464.36,376.57 422.43,399.34 421.44,397.52 
				422.42,392.72 			"/>
			<polygon style="fill:#34A047;" points="458.8,366.34 462.23,371.1 460.14,372.23 454.8,368.51 			"/>
			<polygon style="fill:#34A047;" points="461.7,247.64 459.84,252.7 457.39,247.9 			"/>
			<polygon style="fill:#34A047;" points="460.14,372.23 422.42,392.72 423.93,385.28 454.8,368.51 			"/>
			<polygon style="fill:#34A047;" points="459.84,252.7 446.23,289.92 439.95,290.11 455.64,247.26 457.39,247.9 			"/>
			<polygon style="fill:#34A047;" points="456.6,363.28 458.8,366.34 454.8,368.51 430.76,351.79 431.61,347.62 434.32,340.09 
				462.03,359.37 			"/>
			<polygon style="fill:#ED1E29;" points="454.8,368.51 423.93,385.28 430.76,351.79 			"/>
			<polygon style="fill:#34A047;" points="452.5,289.72 449.48,297.97 444,296 446.23,289.92 			"/>
			<polygon style="fill:#34A047;" points="449.43,298.11 449.48,297.97 452.5,289.72 478.32,288.91 482.26,296.61 483.37,300.4 
				448.21,301.51 			"/>
			<polygon style="fill:#231F20;" points="449.43,298.11 448.21,301.51 446.36,301.56 448.25,301.32 			"/>
			<polygon style="fill:#34A047;" points="444.75,301.77 446.36,301.56 448.21,301.51 434.32,340.09 427.32,335.22 425.75,337.47 
				423.65,335.34 435.29,303 			"/>
			<polygon style="fill:#34A047;" points="446.23,289.92 444,296 438.52,294.03 438.53,294 443.25,290.23 439.74,290.69 
				439.95,290.11 			"/>
			<polygon style="fill:#34A047;" points="449.48,297.97 449.43,298.11 448.25,301.32 446.36,301.56 438.18,301.82 438.02,296.78 
				444,296 			"/>
			<polygon style="fill:#34A047;" points="438.52,294.03 444,296 438.02,296.78 437.99,295.52 			"/>
			<polygon style="fill:#34A047;" points="443.25,290.23 438.53,294 439.74,290.69 			"/>
			<polygon style="fill:#231F20;" points="439.95,290.11 439.74,290.69 437.84,290.94 437.82,290.18 			"/>
			<polygon style="fill:#34A047;" points="437.84,290.94 439.74,290.69 438.53,294 438.52,294.03 437.99,295.52 			"/>
			<polygon style="fill:#34A047;" points="438.18,301.82 446.36,301.56 444.75,301.77 435.29,303 437.51,296.85 438.02,296.78 			
				"/>
			<polygon style="fill:#231F20;" points="437.99,295.52 438.02,296.78 437.51,296.85 			"/>
			<polygon style="fill:#34A047;" points="437.99,295.52 437.51,296.85 391.51,302.84 388.4,299.7 388.1,297.42 437.84,290.94 			
				"/>
			<polygon style="fill:#34A047;" points="437.51,296.85 435.29,303 396.65,308.04 391.51,302.84 			"/>
			<polygon style="fill:#ED1E29;" points="435.29,303 423.65,335.34 396.65,308.04 			"/>
			<polygon style="fill:#34A047;" points="434.32,340.09 431.61,347.62 431.7,347.16 432.33,344.12 430.14,341.91 425.75,337.47 
				427.32,335.22 			"/>
			<polygon style="fill:#34A047;" points="431.61,347.62 430.76,351.79 425.56,348.17 426,346 431.48,347.97 			"/>
			<polygon style="fill:#34A047;" points="430.76,351.79 423.93,385.28 417.25,388.91 425.56,348.17 			"/>
			<polygon style="fill:#34A047;" points="431.7,347.16 431.61,347.62 431.48,347.97 426,346 422.38,342.34 425.75,337.47 
				430.14,341.91 432.33,344.12 			"/>
			<polygon style="fill:#34A047;" points="426,346 425.56,348.17 420.68,344.78 421.06,344.23 			"/>
			<polygon style="fill:#34A047;" points="425.75,337.47 422.38,342.34 421.46,341.41 423.65,335.34 			"/>
			<polygon style="fill:#34A047;" points="423.93,385.28 422.42,392.72 418.11,395.06 416.27,393.69 417.25,388.91 			"/>
			<polygon style="fill:#34A047;" points="423.65,335.34 421.46,341.41 389.4,308.99 396.65,308.04 			"/>
			<polygon style="fill:#34A047;" points="422.38,342.34 426,346 421.06,344.23 			"/>
			<polygon style="fill:#34A047;" points="422.42,392.72 421.44,397.52 418.11,395.06 			"/>
			<polygon style="fill:#34A047;" points="422.38,342.34 421.06,344.23 420.52,344.03 421.46,341.41 			"/>
			<polygon style="fill:#34A047;" points="420.68,344.78 425.56,348.17 417.25,388.91 412.96,391.24 410.92,390.82 419.68,347.88 
				421.86,350.09 420.3,344.84 			"/>
			<polygon style="fill:#34A047;" points="420.3,344.84 421.86,350.09 419.68,347.88 			"/>
			<polygon style="fill:#34A047;" points="419.68,347.88 383.38,311.18 385.02,309.56 389.4,308.99 421.46,341.41 420.52,344.03 
				421.06,344.23 420.68,344.78 420.3,344.84 			"/>
			<polygon style="fill:#34A047;" points="416.27,393.69 418.11,395.06 415.73,396.35 			"/>
			<polygon style="fill:#34A047;" points="417.25,388.91 416.27,393.69 412.96,391.24 			"/>
			<polygon style="fill:#34A047;" points="421.44,397.52 422.43,399.34 418.51,401.47 407.53,407.43 410.03,395.19 410.92,390.82 
				412.96,391.24 416.27,393.69 415.73,396.35 418.11,395.06 			"/>
			<polygon style="fill:#34A047;" points="396.65,308.04 389.4,308.99 386.29,305.85 387.13,303.42 391.51,302.84 			"/>
			<polygon style="fill:#34A047;" points="391.51,302.84 387.13,303.42 388.4,299.7 			"/>
			<polygon style="fill:#34A047;" points="386.29,305.85 389.4,308.99 385.02,309.56 			"/>
			<polygon style="fill:#34A047;" points="387.13,303.42 386.29,305.85 384.26,303.79 			"/>
			<polygon style="fill:#34A047;" points="388.4,299.7 387.13,303.42 384.26,303.79 386.29,305.85 385.02,309.56 383.38,311.18 
				380.12,307.88 371.87,299.54 383.51,298.02 388.1,297.42 			"/>
			<path style="fill:#C8C8C8;" d="M141.92,63.09c21.13,0,38.26,12.48,38.26,27.88c0,9.84-7,18.49-17.57,23.45
				c-5.96,2.8-13.07,4.43-20.69,4.43c-7.3,0-14.12-1.49-19.92-4.08c-10.99-4.89-18.33-13.72-18.33-23.8
				C103.67,75.57,120.8,63.09,141.92,63.09z"/>
			<path style="fill:#FFFFFF;" d="M165.14,148.44l3.35,363.89c-1.82,0-3.65,0-5.47,0c0-119.9,0-239.8,0-359.7
				c-0.12-1.98-0.23-3.96,1.35-4.19C164.63,148.44,164.88,148.44,165.14,148.44z"/>
			<path style="fill:#C8C8C8;" d="M141.92,118.85c7.62,0,14.73-1.63,20.69-4.43v670.96h-39.49L122,114.77
				C127.8,117.36,134.62,118.85,141.92,118.85z"/>
		</g>
		<g>
			<polyline style="fill:none;stroke:#231F20;stroke-width:21;" points="165.07,140.34 748.18,140.34 748.18,177.46 748.18,520.17 
				168.56,520.17 			"/>
			<path style="fill:none;stroke:#231F20;stroke-width:21;" d="M122,114.77c-10.99-4.89-18.33-13.72-18.33-23.8
				c0-15.4,17.13-27.88,38.25-27.88c21.13,0,38.26,12.48,38.26,27.88c0,9.84-7,18.49-17.57,23.45c-5.96,2.8-13.07,4.43-20.69,4.43
				C134.62,118.85,127.8,117.36,122,114.77z"/>
			<polyline style="fill:none;stroke:#231F20;stroke-width:21;" points="122,114 122,114.77 123.12,785.38 			"/>
			<polyline style="fill:none;stroke:#231F20;stroke-width:21;" points="162.61,112.6 162.61,114.42 162.61,785.38 			"/>
			<polyline style="fill:none;stroke:#231F20;stroke-width:14;" points="745,179.25 748.18,177.46 750.19,176.32 			"/>
		</g>
	</g>
</g>
<rect style="fill:none;" width="850.394" height="850.394"/>
</svg>
