<?xml version="1.0" encoding="iso-8859-1"?>
<!-- Generator: Adobe Illustrator 12.0.1, SVG Export Plug-In . SVG Version: 6.00 Build 51448)  -->
<!DOCTYPE svg PUBLIC "-//W3C//DTD SVG 1.1//EN" "http://www.w3.org/Graphics/SVG/1.1/DTD/svg11.dtd" [
	<!ENTITY ns_svg "http://www.w3.org/2000/svg">
	<!ENTITY ns_xlink "http://www.w3.org/1999/xlink">
]>
<svg  version="1.1" id="Layer_1" xmlns="&ns_svg;" xmlns:xlink="&ns_xlink;" width="850.394" height="850.394"
	 viewBox="0 0 850.394 850.394" style="overflow:visible;enable-background:new 0 0 850.394 850.394;" xml:space="preserve">
<g id="XMLID_1_">
	<g>
		<polygon style="fill:#ED1E29;" points="748.18,448 748.18,520.17 168.56,520.17 168.49,512.31 267.41,445.13 268,446 744,448 		
			"/>
		<polygon style="fill:#FFFFFF;" points="748.18,370 748.18,448 744,448 268,446 267.41,445.13 378.04,370 748,370 		"/>
		<polygon style="fill:#ED1E29;" points="748.18,288 748.18,370 748,370 378.04,370 434,332 374.89,288 746,288 		"/>
		<polygon style="fill:#FFFFFF;" points="748.18,212 748.18,288 746,288 374.89,288 273.57,212.58 274,212 748,212 		"/>
		<polygon style="fill:#ED1E29;" points="748.18,177.46 748.18,212 748,212 274,212 273.57,212.58 176.52,140.34 748.18,140.34 		
			"/>
		<path style="fill:#394EA1;" d="M374.89,288L434,332l-55.96,38l-110.63,75.13l-98.92,67.18l-1.58-171.53l1.06-200.44h8.55
			l97.05,72.24L374.89,288z M277.22,330.08l27.22-26.53l-37.62-5.46L250,264l-16.82,34.09l-37.62,5.46l27.22,26.53l-6.43,37.47
			L250,349.86l33.65,17.69L277.22,330.08z"/>
		<polygon style="fill:#FFFFFF;" points="304.44,303.55 277.22,330.08 283.65,367.55 250,349.86 216.35,367.55 222.78,330.08 
			195.56,303.55 233.18,298.09 250,264 266.82,298.09 		"/>
		<polygon style="fill:#FFFFFF;" points="176.52,140.34 167.97,140.34 168,134 		"/>
		<path style="fill:#C8C8C8;" d="M162.61,114.42c-5.96,2.8-13.07,4.43-20.69,4.43c-7.3,0-14.12-1.49-19.92-4.08
			c-10.99-4.89-18.33-13.72-18.33-23.8c0-15.4,17.13-27.88,38.25-27.88c21.13,0,38.26,12.48,38.26,27.88
			C180.18,100.81,173.18,109.46,162.61,114.42z"/>
		<polygon style="fill:#FFFFFF;" points="166.91,340.78 168.49,512.31 166,514 		"/>
		<polygon style="fill:#FFFFFF;" points="167.97,140.34 166.91,340.78 165.07,140.34 		"/>
		<path style="fill:#C8C8C8;" d="M162.61,114.42v670.96h-39.49L122,114.77c5.8,2.59,12.62,4.08,19.92,4.08
			C149.54,118.85,156.65,117.22,162.61,114.42z"/>
	</g>
	<g>
		<polyline style="fill:none;stroke:#231F20;stroke-width:21;" points="176.52,140.34 748.18,140.34 748.18,177.46 748.18,212 
			748.18,288 748.18,370 748.18,448 748.18,520.17 168.56,520.17 		"/>
		<line style="fill:none;stroke:#231F20;stroke-width:21;" x1="165.07" y1="140.34" x2="167.97" y2="140.34"/>
		<path style="fill:none;stroke:#231F20;stroke-width:21;" d="M122,114.77c-10.99-4.89-18.33-13.72-18.33-23.8
			c0-15.4,17.13-27.88,38.25-27.88c21.13,0,38.26,12.48,38.26,27.88c0,9.84-7,18.49-17.57,23.45c-5.96,2.8-13.07,4.43-20.69,4.43
			C134.62,118.85,127.8,117.36,122,114.77z"/>
		<polyline style="fill:none;stroke:#231F20;stroke-width:21;" points="122,114 122,114.77 123.12,785.38 		"/>
		<polyline style="fill:none;stroke:#231F20;stroke-width:21;" points="162.61,112.6 162.61,114.42 162.61,785.38 		"/>
		<polyline style="fill:none;stroke:#231F20;stroke-width:14;" points="744.76,179.39 748.18,177.46 750.19,176.32 		"/>
		<polyline style="fill:none;stroke:#231F20;stroke-width:14;" points="168,134 176.52,140.34 273.57,212.58 374.89,288 434,332 
			378.04,370 267.41,445.13 168.49,512.31 166,514 		"/>
		<polyline style="fill:none;stroke:#231F20;stroke-width:14;" points="374,288 374.89,288 746,288 		"/>
		<line style="fill:none;stroke:#231F20;stroke-width:14;" x1="274" y1="212" x2="748" y2="212"/>
		<polyline style="fill:none;stroke:#231F20;stroke-width:14;" points="376,370 378.04,370 748,370 		"/>
		<line style="fill:none;stroke:#231F20;stroke-width:14;" x1="268" y1="446" x2="744" y2="448"/>
		<polygon style="fill:none;stroke:#231F20;stroke-width:8.0137;" points="250,349.86 216.35,367.55 222.78,330.08 195.56,303.55 
			233.18,298.09 250,264 266.82,298.09 304.44,303.55 277.22,330.08 283.65,367.55 		"/>
	</g>
</g>
<rect style="fill:none;" width="850.394" height="850.394"/>
</svg>
