<?xml version="1.0" encoding="iso-8859-1"?>
<!-- Generator: Adobe Illustrator 12.0.1, SVG Export Plug-In . SVG Version: 6.00 Build 51448)  -->
<!DOCTYPE svg PUBLIC "-//W3C//DTD SVG 1.1//EN" "http://www.w3.org/Graphics/SVG/1.1/DTD/svg11.dtd" [
	<!ENTITY ns_svg "http://www.w3.org/2000/svg">
	<!ENTITY ns_xlink "http://www.w3.org/1999/xlink">
]>
<svg  version="1.1" id="Layer_1" xmlns="&ns_svg;" xmlns:xlink="&ns_xlink;" width="850.394" height="850.394"
	 viewBox="0 0 850.394 850.394" style="overflow:visible;enable-background:new 0 0 850.394 850.394;" xml:space="preserve">
<g id="XMLID_9_">
	<g>
		<path style="fill:#C8C8C8;" d="M162.61,334v451.38h-39.49L122,114.77c5.8,2.59,12.62,4.08,19.92,4.08
			c7.62,0,14.73-1.63,20.69-4.43V334z"/>
		<rect x="446" y="140.34" style="fill:#ED1E29;" width="302.18" height="193.66"/>
		<path style="fill:#FFFFFF;" d="M748.18,334v186.17H446V334H748.18z M616.29,416.62l19.47-14.46l-24.25-0.25l-7.74-22.99
			l-7.729,22.99l-24.26,0.25l19.47,14.46L584,439.77l19.77-14.049l19.771,14.049L616.29,416.62z"/>
		<polygon style="fill:#ED1E29;" points="635.76,402.16 616.29,416.62 623.54,439.77 603.77,425.72 584,439.77 591.25,416.62 
			571.78,402.16 596.04,401.91 603.77,378.92 611.51,401.91 		"/>
		<polygon style="fill:#394EA1;" points="446,334 446,520.17 168.56,520.17 166.85,334 		"/>
		<path style="fill:#FFFFFF;" d="M446,140.34V334H166.85l-1.78-193.66H446z M323.49,250.1l20.78-15.43l-25.88-0.27l-8.25-24.52
			l-8.25,24.52l-25.88,0.27l20.78,15.43l-7.74,24.69l21.09-14.99l21.09,14.99L323.49,250.1z"/>
		<polygon style="fill:#394EA1;" points="344.27,234.67 323.49,250.1 331.23,274.79 310.14,259.8 289.05,274.79 296.79,250.1 
			276.01,234.67 301.89,234.4 310.14,209.88 318.39,234.4 		"/>
		<path style="fill:#C8C8C8;" d="M162.61,114.42c-5.96,2.8-13.07,4.43-20.69,4.43c-7.3,0-14.12-1.49-19.92-4.08
			c-10.99-4.89-18.33-13.72-18.33-23.8c0-15.4,17.13-27.88,38.25-27.88c21.13,0,38.26,12.48,38.26,27.88
			C180.18,100.81,173.18,109.46,162.61,114.42z"/>
	</g>
	<g>
		<polyline style="fill:none;stroke:#231F20;stroke-width:21;" points="165.07,140.34 446,140.34 748.18,140.34 748.18,334 
			748.18,520.17 446,520.17 168.56,520.17 		"/>
		<path style="fill:none;stroke:#231F20;stroke-width:21;" d="M122,114.77c-10.99-4.89-18.33-13.72-18.33-23.8
			c0-15.4,17.13-27.88,38.25-27.88c21.13,0,38.26,12.48,38.26,27.88c0,9.84-7,18.49-17.57,23.45c-5.96,2.8-13.07,4.43-20.69,4.43
			C134.62,118.85,127.8,117.36,122,114.77z"/>
		<polyline style="fill:none;stroke:#231F20;stroke-width:21;" points="122,114 122,114.77 123.12,785.38 		"/>
		<polyline style="fill:none;stroke:#231F20;stroke-width:21;" points="162.61,112.6 162.61,114.42 162.61,334 162.61,785.38 		"/>
		<polyline style="fill:none;stroke:#231F20;stroke-width:14;" points="160,334 162.61,334 166.85,334 446,334 748.18,334 750,334 
					"/>
		<polyline style="fill:none;stroke:#231F20;stroke-width:14;" points="446,140 446,140.34 446,334 446,520.17 446,524 		"/>
		<polygon style="fill:none;stroke:#231F20;stroke-width:7.7054;" points="310.14,259.8 289.05,274.79 296.79,250.1 276.01,234.67 
			301.89,234.4 310.14,209.88 318.39,234.4 344.27,234.67 323.49,250.1 331.23,274.79 		"/>
		<polygon style="fill:none;stroke:#231F20;stroke-width:7.2223;" points="603.77,425.72 584,439.77 591.25,416.62 571.78,402.16 
			596.04,401.91 603.77,378.92 611.51,401.91 635.76,402.16 616.29,416.62 623.54,439.77 		"/>
	</g>
</g>
<rect style="fill:none;" width="850.394" height="850.394"/>
</svg>
