<svg xmlns="http://www.w3.org/2000/svg" width="850.394" height="850.394" viewBox="0 0 850.394 850.394" overflow="visible"><path d="M162.61 312v473.38h-39.49L122 114.77c5.8 2.59 12.62 4.08 19.92 4.08 7.62 0 14.73-1.63 20.69-4.43V312z" fill="#c8c8c8"/><path fill="#fff" d="M748.18 312v36H166.98l-.33-36H746z"/><path fill="#ed1e29" d="M748.18 480v40.17H168.56l-.37-40.17H746z"/><path fill="#fff" d="M748.18 446v34H168.19l-.31-34H746z"/><path fill="#ed1e29" d="M748.18 414v32h-580.3l-.3-32H748z"/><path fill="#fff" d="M748.18 384v30H167.58l-.27-30z"/><path fill="#ed1e29" d="M748.18 348v36H167.31l-.33-36H748zM748.18 278v34H166.65l-.32-34H748z"/><path fill="#fff" d="M748.18 241.98V278H356v-38h4z"/><path fill="#ed1e29" d="M748.18 210v31.98L360 240h-4v-30h2z"/><path fill="#fff" d="M748.18 177.46V210H356v-36h2l390.18 2.31z"/><path fill="#ed1e29" d="M748.18 140.34v35.97L358 174h-2v-33.66z"/><path d="M356 276v2H166.33l-1.26-137.66H356V276zm-65.74-53.35l24.91-24.27-34.42-5-15.39-31.19-15.39 31.19-34.41 5 24.9 24.27-5.88 34.28 30.78-16.18 30.78 16.18-5.88-34.28z" fill="#394ea1"/><path fill="#fff" d="M315.17 198.38l-24.91 24.27 5.88 34.28-30.78-16.18-30.78 16.18 5.88-34.28-24.9-24.27 34.41-5 15.39-31.19 15.39 31.19z"/><path d="M122 114.77c-10.99-4.89-18.33-13.72-18.33-23.8 0-15.4 17.13-27.88 38.25-27.88 21.13 0 38.26 12.48 38.26 27.88 0 9.84-7 18.49-17.57 23.45-5.96 2.8-13.07 4.43-20.69 4.43-7.3 0-14.12-1.49-19.92-4.08z" fill="#c8c8c8"/><g fill="none" stroke="#231f20"><path stroke-width="14" d="M165.07 140.34h583.11v379.83H168.56"/><path d="M122 114.77c-10.99-4.89-18.33-13.72-18.33-23.8 0-15.4 17.13-27.88 38.25-27.88 21.13 0 38.26 12.48 38.26 27.88 0 9.84-7 18.49-17.57 23.45-5.96 2.8-13.07 4.43-20.69 4.43-7.3 0-14.12-1.49-19.92-4.08z" stroke-width="21"/><path stroke-width="21" d="M122 114v.77l1.12 670.61M162.61 112.6v672.78"/><path stroke-width="14" d="M744.76 179.39l3.42-1.93 2.01-1.14"/><path stroke-width="7" d="M358 174l390.18 2.31 2.01.01M358 210h392M360 240l388.18 1.98 3.82.02M164 278h584M162 312h584M164 348h584M164 384h586M164 414h584M162 446h584M164 480h582M356 138v138"/><path stroke-width="7.894" d="M265.36 162.19l15.39 31.19 34.42 5-24.91 24.27 5.88 34.28-30.78-16.18-30.78 16.18 5.88-34.28-24.9-24.27 34.41-5z"/></g><path fill="none" d="M0 0h850.394v850.394H0z"/></svg>