<?xml version="1.0" encoding="iso-8859-1"?>
<!-- Generator: Adobe Illustrator 12.0.1, SVG Export Plug-In . SVG Version: 6.00 Build 51448)  -->
<!DOCTYPE svg PUBLIC "-//W3C//DTD SVG 1.1//EN" "http://www.w3.org/Graphics/SVG/1.1/DTD/svg11.dtd" [
	<!ENTITY ns_svg "http://www.w3.org/2000/svg">
	<!ENTITY ns_xlink "http://www.w3.org/1999/xlink">
]>
<svg  version="1.1" id="Layer_1" xmlns="&ns_svg;" xmlns:xlink="&ns_xlink;" width="850.394" height="850.394"
	 viewBox="0 0 850.394 850.394" style="overflow:visible;enable-background:new 0 0 850.394 850.394;" xml:space="preserve">
<g id="XMLID_2_">
	<g>
		<polygon style="fill:#ED1E29;" points="166.17,260 165.07,140.34 748.18,140.34 748.18,260 748,260 		"/>
		<path style="fill:#FBED24;" d="M748.18,260v132H746H168l-0.62,0.01L166.17,260H748H748.18z M481.28,340.03l27.2-26.51
			l-37.591-5.46L454.08,274l-16.8,34.06l-37.6,5.46l27.2,26.51l-6.42,37.44l33.62-17.68l33.62,17.68L481.28,340.03z"/>
		<polygon style="fill:#34A047;" points="748.18,392 748.18,520.17 168.56,520.17 167.38,392.01 168,392 746,392 		"/>
		<polygon style="fill:#231F20;" points="508.48,313.52 481.28,340.03 487.7,377.47 454.08,359.79 420.46,377.47 426.88,340.03 
			399.68,313.52 437.28,308.06 454.08,274 470.89,308.06 		"/>
		<path style="fill:#C8C8C8;" d="M162.61,114.42c-5.96,2.8-13.07,4.43-20.69,4.43c-7.3,0-14.12-1.49-19.92-4.08
			c-10.99-4.89-18.33-13.72-18.33-23.8c0-15.4,17.13-27.88,38.25-27.88c21.13,0,38.26,12.48,38.26,27.88
			C180.18,100.81,173.18,109.46,162.61,114.42z"/>
		<path style="fill:#C8C8C8;" d="M162.61,114.42v670.96h-39.49L122,114.77c5.8,2.59,12.62,4.08,19.92,4.08
			C149.54,118.85,156.65,117.22,162.61,114.42z"/>
	</g>
	<g>
		<polyline style="fill:none;stroke:#231F20;stroke-width:14;" points="165.07,140.34 748.18,140.34 748.18,260 748.18,392 
			748.18,520.17 168.56,520.17 		"/>
		<path style="fill:none;stroke:#231F20;stroke-width:21;" d="M122,114.77c-10.99-4.89-18.33-13.72-18.33-23.8
			c0-15.4,17.13-27.88,38.25-27.88c21.13,0,38.26,12.48,38.26,27.88c0,9.84-7,18.49-17.57,23.45c-5.96,2.8-13.07,4.43-20.69,4.43
			C134.62,118.85,127.8,117.36,122,114.77z"/>
		<polyline style="fill:none;stroke:#231F20;stroke-width:21;" points="122,114 122,114.77 123.12,785.38 		"/>
		<polyline style="fill:none;stroke:#231F20;stroke-width:21;" points="162.61,112.6 162.61,114.42 162.61,785.38 		"/>
		<polyline style="fill:none;stroke:#231F20;stroke-width:14;" points="164,260 166.17,260 748,260 		"/>
		<line style="fill:none;stroke:#231F20;stroke-width:14;" x1="168" y1="392" x2="746" y2="392"/>
		<polygon style="fill:none;stroke:#231F20;stroke-width:7.2337;" points="454.08,359.79 420.46,377.47 426.88,340.03 
			399.68,313.52 437.28,308.06 454.08,274 470.89,308.06 508.48,313.52 481.28,340.03 487.7,377.47 		"/>
	</g>
</g>
<rect style="fill:none;" width="850.394" height="850.394"/>
</svg>
