<svg xmlns="http://www.w3.org/2000/svg" width="850.89" height="850.89" viewBox="0 0 850.89 850.89" overflow="visible"><path fill="#58b947" d="M748.43 396.25v124.17H324.25V396.25h422z"/><path fill="#ed1e29" d="M748.43 270.25v126H324.25v-124h4l420-2z"/><path fill="#fff" d="M748.43 177.71v92.54h-.18l-420 2h-4V140.59h424.18z"/><path d="M281.09 230.7l11.16.93c1.5-1.86-7.25-.76-11.16-.93zm-.01 0l-.83-.07c.24.03.52.05.83.07zm43.17 287.55v2.17H168.81l-3.49-379.83h158.93V518.25zm-69-277.23c10.61 10.08 20.87 25.76 39 25-2.05-9.08-11.78-11.78-18-17-4.87-4.09-9.97-8.44-13.82-13.78 0-.45-.1-.48-.22-.31-.8-1.11-1.53-2.26-2.2-3.46-.26-.48-.52-.96-.76-1.45 4.11-.5 14.79.35 22 0 1.55-2.05 1.55-8.95 0-11-2.7-1.97-8.74-.6-13-1 4.59-11.12 17.04-19.56 16-33-11.49 5.85-15.78 18.89-25 27 1.24-6.24-4.57-5.43-3-12 1.42-1.91 3.8-2.87 4-6-2.3-2.36-4.31-5.02-8-6-2.95 1.38-4.05 4.62-7 6 6.19 5.44 2.94 13.35 0 20-7.56-10.44-14.13-21.87-25-29-3.36 11.05 13.44 23.63 15 33h-12c-1.85 2.15-.67 7.32-1 11 1.66 1.67 5.87.8 9 1-1.62 1.51-5.2 3.68-3 6 1.14 3.19 5.87 2.79 8 5-6.76 9.9-19.77 13.56-27 23 16.57 8.81 25.66-14.43 39-21 2.32-1.15 4.92-.51 7-2z" fill="#ed1e29"/><path d="M294.25 266.02c-18.13.76-28.39-14.92-39-25l-.38-1.92c.13 0 .26-.03.38-.08.01-.01 2.62-6.01 2-7-.12-.19-.25-.35-.38-.48l3.14-.07c.67 1.2 1.4 2.35 2.2 3.46-.3.41-.68 1.88.04 1.7-.31 1.76-.51.81 0 2v-2c.12-.66.17-1.11.18-1.39 3.85 5.34 8.95 9.69 13.82 13.78 6.22 5.22 15.95 7.92 18 17z" fill="#fff"/><path d="M281.09 230.7c3.91.17 12.66-.93 11.16.93l-11.16-.93z"/><path d="M284.25 185.02c1.04 13.44-11.41 21.88-16 33 4.26.4 10.3-.97 13 1 1.55 2.05 1.55 8.95 0 11-7.21.35-17.89-.5-22 0 .24.49.5.97.76 1.45l-3.14.07c-1.61-1.61-4.3.66-7.62 1.48.75-4.2-1.23.3 0 0-.31 1.75-.51.81 0 2-1.07-2.49 3.37 4.08 5.62 4.08l.38 1.92c-2.08 1.49-4.68.85-7 2-13.34 6.57-22.43 29.81-39 21 7.23-9.44 20.24-13.1 27-23-2.13-2.21-6.86-1.81-8-5-2.2-2.32 1.38-4.49 3-6-3.13-.2-7.34.67-9-1 .33-3.68-.85-8.85 1-11h12c-1.56-9.37-18.36-21.95-15-33 10.87 7.13 17.44 18.56 25 29l3 2c-.47 3.14 2.69 2.64 3 5-.55 0-1.13.81 0 1 1.84 1.31 6.69-1.2 4-4-.56 1.44-1.56 2.44-3 3 0-1-.81-1.19-1-2 1 0 1.19.81 2 1-.98-2.76 5.46-3.05 3-4l3-4c9.22-8.11 13.51-21.15 25-27zm-5 43c1.62-2.01-8.72-.57-12-1 0-.56-.81-1.14-1 0 2.7 1.97 8.74.6 13 1zm-13-7c.06 3.17 9.38-.22 14 1-.8-3.91-11.54-1.95-14-1zm-29-1h-13c2.01 3.53 10.99 3.53 13 0zm-7.03 7c-15.11.55 8.32 1.82 6.03 0-3.91-3.12-7.35 0-6.03 0z" fill="#fff"/><path d="M280.25 230.63l.83.07c-.31-.02-.59-.04-.83-.07z"/><path d="M267.25 227.02c3.28.43 13.62-1.01 12 1-4.26-.4-10.3.97-13-1 .19-1.14 1-.56 1 0zM280.25 222.02c-4.62-1.22-13.94 2.17-14-1 2.46-.95 13.2-2.91 14 1z" fill="#fff"/><path d="M262.21 234.93c.12-.17.22-.14.22.31-.08-.1-.16-.21-.22-.31z"/><path d="M262.21 234.93c.06.1.14.21.22.31-.01.28-.06.73-.18 1.39-.72.18-.34-1.29-.04-1.7zM262.25 236.63v2c-.51-1.19-.31-.24 0-2z"/><path d="M256.25 200.02c-1.57 6.57 4.24 5.76 3 12l-3 4c-2.69 1.48-4.81-1.13-3 2-1.38-.04-2.2.47-3 1 0-1-.81-1.19-1-2 .78-.23 1.97-.03 2-1h-3l-3-2c2.94-6.65 6.19-14.56 0-20 2.95-1.38 4.05-4.62 7-6 3.69.98 5.7 3.64 8 6-.2 3.13-2.58 4.09-4 6zM257.25 232.02c.62.99-1.99 6.99-2 7-.12.05-.25.08-.38.08-2.25 0-6.69-6.57-5.62-4.08-.51-1.19-.31-.25 0-2 3.32-.82 6.01-3.09 7.62-1.48.13.13.26.29.38.48z" fill="#fff"/><path d="M256.25 216.02c2.46.95-3.98 1.24-3 4-.81-.19-1-1-2-1 .19.81 1 1 1 2 1.44-.56 2.44-1.56 3-3 2.69 2.8-2.16 5.31-4 4-1.13-.19-.55-1 0-1-.31-2.36-3.47-1.86-3-5h3c-.03.97-1.22.77-2 1 .19.81 1 1 1 2 .8-.53 1.62-1.04 3-1-1.81-3.13.31-.52 3-2zM249.25 233.02c-1.23.3.75-4.2 0 0zM224.25 220.02h13c-2.01 3.53-10.99 3.53-13 0zM230.22 227.02c-1.32 0 2.12-3.12 6.03 0 2.29 1.82-21.14.55-6.03 0z" fill="#fff"/><path d="M162.86 114.67c-5.96 2.8-13.07 4.43-20.69 4.43-7.3 0-14.12-1.49-19.92-4.08-10.99-4.89-18.33-13.72-18.33-23.8 0-15.4 17.13-27.88 38.25-27.88 21.13 0 38.26 12.48 38.26 27.88 0 9.84-7 18.49-17.57 23.45z" fill="#c8c8c8"/><path d="M162.86 114.67v670.96h-39.49l-1.12-670.61c5.8 2.59 12.62 4.08 19.92 4.08 7.62 0 14.73-1.63 20.69-4.43z" fill="#c8c8c8"/><g fill="none" stroke="#231f20"><path stroke-width="21" d="M165.32 140.59h583.11v379.83H168.81M122.25 115.02c-10.99-4.89-18.33-13.72-18.33-23.8 0-15.4 17.13-27.88 38.25-27.88 21.13 0 38.26 12.48 38.26 27.88 0 9.84-7 18.49-17.57 23.45-5.96 2.8-13.07 4.43-20.69 4.43-7.3 0-14.12-1.49-19.92-4.08z"/><path stroke-width="21" d="M122.25 114.25v.77l1.12 670.61M162.86 112.85V785.63"/><path stroke-width="14" d="M745.01 179.64l3.42-1.93 2.01-1.14"/><path d="M262.43 235.24c3.85 5.34 8.95 9.69 13.82 13.78 6.22 5.22 15.95 7.92 18 17-18.13.76-28.39-14.92-39-25-2.08 1.49-4.68.85-7 2-13.34 6.57-22.43 29.81-39 21 7.23-9.44 20.24-13.1 27-23-2.13-2.21-6.86-1.81-8-5-2.2-2.32 1.38-4.49 3-6-3.13-.2-7.34.67-9-1 .33-3.68-.85-8.85 1-11h12c-1.56-9.37-18.36-21.95-15-33 10.87 7.13 17.44 18.56 25 29 2.94-6.65 6.19-14.56 0-20 2.95-1.38 4.05-4.62 7-6 3.69.98 5.7 3.64 8 6-.2 3.13-2.58 4.09-4 6-1.57 6.57 4.24 5.76 3 12 9.22-8.11 13.51-21.15 25-27 1.04 13.44-11.41 21.88-16 33 4.26.4 10.3-.97 13 1 1.55 2.05 1.55 8.95 0 11-7.21.35-17.89-.5-22 0 .24.49.5.97.76 1.45.67 1.2 1.4 2.35 2.2 3.46" stroke-width="4"/><path d="M248.25 216.02c-.47 3.14 2.69 2.64 3 5-.55 0-1.13.81 0 1 1.84 1.31 6.69-1.2 4-4-.56 1.44-1.56 2.44-3 3 0-1-.81-1.19-1-2 1 0 1.19.81 2 1-.98-2.76 5.46-3.05 3-4-2.69 1.48-4.81-1.13-3 2-1.38-.04-2.2.47-3 1 0-1-.81-1.19-1-2 .78-.23 1.97-.03 2-1h-3zM237.25 220.02h-13c2.01 3.53 10.99 3.53 13 0zM266.25 221.02c.06 3.17 9.38-.22 14 1-.8-3.91-11.54-1.95-14-1zM230.25 227.02h-.03M230.22 227.02c-15.11.55 8.32 1.82 6.03 0-3.91-3.12-7.35 0-6.03 0zM279.25 228.02c1.62-2.01-8.72-.57-12-1 0-.56-.81-1.14-1 0 2.7 1.97 8.74.6 13 1zM249.25 233.02c-1.23.3.75-4.2 0 0zM249.25 233.02c-.31 1.75-.51.81 0 2-1.07-2.49 3.37 4.08 5.62 4.08.13 0 .26-.03.38-.08.01-.01 2.62-6.01 2-7-.12-.19-.25-.35-.38-.48-1.61-1.61-4.3.66-7.62 1.48M281.09 230.7c3.91.17 12.66-.93 11.16.93M280.25 230.63c.24.03.52.05.83.07M281.09 230.7h-.01M262.25 238.63c-.51-1.19-.31-.24 0-2 .12-.66.17-1.11.18-1.39 0-.45-.1-.48-.22-.31-.3.41-.68 1.88.04 1.7" stroke-width="4"/><path stroke-width="14" d="M324.25 140.25v378M328.25 272.25l420-2M324.25 396.25h422"/></g><path fill="none" d="M.25.25h850.394v850.394H.25z"/></svg>