<svg xmlns="http://www.w3.org/2000/svg" width="850.394" height="850.394" viewBox="0 0 850.394 850.394" overflow="visible"><path d="M748.18 177.46v342.71H168.56l-.07-7.84H745V179.25l3.18-1.79z" fill="#fff"/><path d="M748.18 140.34v37.12l-3.18 1.79v-30.81h-1.23v-5.99h-570.7l-.1.01c-3.1.43-2.89 3.8-2.77 5.72v.26h-2.45c-.21 0-1.36-1.45-2.64-3.13l-.04-4.97h583.11z" fill="#fff"/><path d="M745 179.25v333.08H168.49v-.54h575.28V148.44H745v30.81z" fill="#fff"/><path d="M743.77 510.29v1.5H168.49l-.02-1.5h573.799v-1.5-360.35h1.5v361.85zM743.77 143.95v4.49h-1.5v-2.99-1.5h-569.1c-1.71.24-1.59 2.23-1.47 4.23v.26h-1.5v-.26c-.12-1.92-.33-5.29 2.77-5.72l.1-.01h570.7v1.5z" fill="#231f20"/><path d="M742.27 508.79v1.5h-.01v-1.49l.01-.01zM742.27 148.44v360.35h-.01V148.44h.01zM742.27 145.45v2.99h-1.44v-2.99h1.44zM742.27 143.95v1.5l-1.5-1.5h1.5z" fill="#231f20"/><path fill="#231f20" d="M742.27 508.79l-.01.01v-.01z"/><path fill="#fff" d="M742.27 145.45h-1.44v-.18h-.06v-1.32z"/><path d="M742.26 508.8v1.49h-1.49l1.49-1.49z" fill="#231f20"/><path fill="#fff" d="M742.26 508.79v.01l-1.49 1.49v-1.32h.06v-.18z"/><path d="M742.26 148.44v360.35h-1.43V397.48h-.061v-15.32h.061V272.08h-.061v-15.32h.061V148.44h1.43zM740.77 508.79h.061v.18h-.061z" fill="#231f20"/><path fill="#231f20" d="M740.83 507.47v1.32h-.06V397.48h.06v1.5zM740.83 380.66v1.5h-.06V272.08h.06v1.5zM740.83 255.26v1.5h-.061V148.44h.061v106.82zM740.83 146.77v1.67h-.061v-2.99h.061v1.32z"/><path fill="#231f20" d="M740.77 145.27h.061v.18h-.061zM740.77 508.97v1.32H173.201v-1.32H740.77zM740.77 508.79v.18H173.2v-.18zM740.77 397.48v111.31H173.2V397.48h236.04l-.86 2.08c-3.2 7.67-7.6 14.29-11.85 20.69-4.38 6.6-8.89 13.39-12.02 21.32-.62.319-1.25.58-1.91.779 5.88-15.92 17.03-26.77 23.74-41.87h.65l-.39-.59c.13-.3.26-.6.39-.91h-1l-.38-.58c-.08.19-.16.39-.25.58H174.64v108.49h564.69v-1.5-105.49-1.5H508.559c-.05-.15-.1-.29-.14-.44l-.32.44h-1.109c.109.35.22.69.34 1.03l-.34.47h.5c5.529 15.67 21.2 27.45 22.89 42.95-.59-.489-1.17-1.01-1.74-1.55-1.38-7.63-6.239-14.439-11.33-21.58-4.619-6.48-9.399-13.19-11.76-20.88l-.59-1.94h235.81z"/><path d="M740.77 382.16v15.32H504.96l-.88-.47c.93-1.77 1.63-3.7 2.33-5.59 1.38-3.76 2.689-7.32 5.46-9.26h228.9z" fill="#fff"/><path d="M740.77 272.08v110.08h-228.9c.11-.09.22-.16.33-.23l-.8.23h.47c-2.771 1.94-4.08 5.5-5.46 9.26-.7 1.89-1.4 3.82-2.33 5.59-.68 1.3-1.47 2.51-2.47 3.57-.24-.36-.511-.72-.771-1.08l-.24 2.04-.09.06c-.29-.41-.58-.81-.88-1.21 5.76-4.82 5.26-15.63 11.771-19.73h227.93v-1.5-104.08-1.5h-229.4c-26.33-31.17 7.16-63.31 28.641-80-.33.89-.66 1.79-.99 2.69-21.95 17.46-33.92 34.03-35.61 49.31-.39 3.47-.229 6.87.48 10.21 1.18 5.65 3.91 11.1 8.189 16.29h-.71l1.141.53c-.15-.18-.301-.35-.431-.53h230.13z" fill="#fff"/><path d="M740.77 256.76v15.32H510.64c-4.279-5.19-7.01-10.64-8.189-16.29l1.58-.35.149 1.32h236.59z" fill="#fff"/><path d="M740.77 148.44v108.32H504.18l-.149-1.32c-.74-6.26 4.47-7.13 8.29-7.76 2.1-.35 4.27-.72 5.229-1.78l-.09.15.14-.21c-.02.02-.029.04-.05.06 6.75-11.62 11.58-25.5 16.25-38.91 1.23-3.53 2.49-7.14 3.78-10.72.74-.59 1.49-1.18 2.25-1.76-6.59 17.86-12.04 36.8-21.08 52.3-3.05 3.63-12.69.94-13.26 6.95-.04.45-.04.95.029 1.5H739.33v-1.5-105.32h1.44zM740.77 145.45v2.99h-1.439v-.17-1.5h-563.22c-.06.55-.11 1.11-.16 1.67h-1.51l.18-1.83.12-1.16H740.77z" fill="#231f20"/><path fill="#231f20" d="M740.77 145.27v.18H174.74l.02-.18h564.57z"/><path d="M740.77 143.95v1.32H174.76l-.02.18h-1.43c.01 0 .02-.01.04-.01h-.04l-.14.01h.13c-.25.34-.15 1.89-.1 2.73v.26h-1.5v-.26c-.12-2-.24-3.99 1.47-4.23h567.6zM739.33 505.97v1.5h-1.5l1.5-1.5zM739.33 400.48v105.49h-1.5V400.48h1.5zM739.33 398.98v1.5l-1.5-1.5h1.5zM739.33 379.16v1.5h-1.5l1.5-1.5zM739.33 275.08v104.08h-1.5V275.08h1.5zM739.33 273.58v1.5l-1.5-1.5h1.5zM739.33 253.76v1.5h-1.5l1.5-1.5zM739.33 148.44v105.32h-1.5V148.44h1.5z" fill="#231f20"/><path d="M739.33 148.27v.17h-1.5v-.17h1.5zM739.33 146.77v1.5l-1.5-1.5h1.5z" fill="#231f20"/><path d="M739.33 253.76l-1.5 1.5v-1.5zM739.33 379.16l-1.5 1.5v-1.5zM739.33 505.97l-1.5 1.5v-1.5zM739.33 148.27h-1.5v-1.5zM739.33 275.08h-1.5v-1.5zM739.33 400.48h-1.5v-1.5z"/><path d="M737.83 505.97v1.5H176.14v-1.5h561.69z" fill="#231f20"/><path d="M737.83 400.48v105.49H176.14V400.48H404.7c-2.99 6.56-6.89 12.42-10.67 18.11-5.02 7.57-10.22 15.391-13.46 25l-.85 2.5 2.59-.56c9.07-1.96 14.5-12.3 20.26-23.25 3.11-5.91 6.3-11.98 10.06-16.5.97 2.61 1.99 5.14 3.06 7.58C426.04 436.99 440 450 455 450s28.96-13.01 39.31-36.64c1.61-3.67 3.101-7.54 4.48-11.57 3.77 5.18 7 11.07 10.13 16.77 5.62 10.24 11.43 20.83 20.67 28.1l2.51 1.97-.09-3.189c-.26-10.07-6.359-18.62-12.26-26.88-4.08-5.72-8.28-11.62-10.67-18.08h228.75z" fill="#34a047"/><path d="M737.83 398.98v1.5H509.08c-.19-.5-.36-1-.521-1.5H737.83z" fill="#231f20"/><path d="M737.83 379.16v1.5H511.4c-6.511 4.1-6.011 14.91-11.771 19.73l-.33-.11c.28-.85.55-1.71.82-2.57 1.51-1.98 2.47-4.59 3.47-7.33 1.55-4.2 3.141-8.55 7.01-10.99l.36-.23H737.83z" fill="#231f20"/><path d="M737.83 275.08v104.08H510.96l-.36.23c-3.869 2.44-5.46 6.79-7.01 10.99-1 2.74-1.96 5.35-3.47 7.33a193.46 193.46 0 0 0 4.61-17.77c3.45-16.32 5.27-34.32 5.27-52.94 0-21.93-2.52-42.99-7.26-61.46 1.56 3.08 3.569 6.09 6.04 9.01l.45.53H737.83z" fill="#ed1e29"/><path d="M737.83 273.58v1.5H509.231l-.45-.53c-2.471-2.92-4.48-5.93-6.04-9.01-1.141-4.47-2.42-8.79-3.82-12.93-.24-2.42-.22-4.87.061-7.36 1.869-16.92 15.43-35.12 40.289-54.1l.141.18-.84 2.25c-21.48 16.69-54.971 48.83-28.641 80H737.83z" fill="#231f20"/><path d="M737.83 253.76v1.5H505.519a7.01 7.01 0 0 1-.029-1.5h.029l1.49 1.32c-.06-.5-.069-.94-.01-1.32H737.83z" fill="#231f20"/><path d="M737.83 148.44v105.32H507c.25-1.99 2.03-2.49 5.81-3.13 2.681-.44 5.45-.9 7.091-2.86l.08-.1.069-.11c6.95-11.9 11.84-25.98 16.58-39.59 1.71-4.89 3.47-9.96 5.3-14.84.101-.25.19-.5.28-.74l1.85-4.88-4.159 3.15c-.21.16-.42.32-.631.49-24.859 18.98-38.42 37.18-40.289 54.1-.28 2.49-.301 4.94-.061 7.36-1.41-4.18-2.95-8.18-4.61-11.97C483.96 217.01 470 204 455 204s-28.96 13.01-39.31 36.64c-.39.88-.77 1.78-1.14 2.68-3.2-19.78-23.06-38.06-37.82-51.63l-2.12-1.95-.42-.39-2.39 1.72c2.88 6.34 4.89 13.93 6.83 21.27 3.22 12.16 6.56 24.73 14.03 32.68 2.31 2.45 4.96 3.55 7.3 4.52 2.53 1.05 4.64 1.92 6.11 4.22H176.18c.32-13.17.13-27-.05-40.4-.31-22.01-.62-44.74 1.33-64.92h560.37z" fill="#231f20"/><path d="M737.83 148.27v.17H177.46c0-.06.01-.12.02-.17h560.35z"/><path d="M737.83 146.77v1.5H177.48c.04-.45.08-.9.13-1.35l-1.5 1.35h1.37a.88.88 0 0 0-.02.17h-1.51c.05-.56.1-1.12.16-1.67h561.72zM544.06 187.51l-1.85 4.88c-.09.24-.18.49-.28.74l-.21-.08-1.06-.79c.05-.13.1-.27.149-.4-.109.09-.229.17-.34.26l-1.06-.79-.141-.18c.211-.17.421-.33.631-.49l4.161-3.15z" fill="#231f20"/><path d="M541.72 193.05l.21.08c-1.83 4.88-3.59 9.95-5.3 14.84-4.74 13.61-9.63 27.69-16.58 39.59l-.069.11-.08.1c-1.641 1.96-4.41 2.42-7.091 2.86-3.779.64-5.56 1.14-5.81 3.13h-1.509c.569-6.01 10.21-3.32 13.26-6.95 9.04-15.5 14.49-34.44 21.08-52.3.619-.49 1.249-.98 1.889-1.46z" fill="#231f20"/><path d="M541.72 193.05c-.64.48-1.27.97-1.89 1.46.27-.75.55-1.5.83-2.25l1.06.79z"/><path d="M540.81 191.86c-.05.13-.1.27-.149.4l-.19-.14c.109-.09.229-.17.339-.26z" fill="#231f20"/><path d="M540.66 192.26c-.28.75-.561 1.5-.83 2.25-.76.58-1.51 1.17-2.25 1.76.33-.9.66-1.8.99-2.69.649-.5 1.279-.99 1.899-1.46l.191.14z" fill="#fff"/><path d="M539.41 191.33l1.06.79c-.62.47-1.25.96-1.899 1.46l.839-2.25z"/><path d="M537.58 196.27c-1.29 3.58-2.55 7.19-3.78 10.72-4.67 13.41-9.5 27.29-16.25 38.91-.96 1.06-3.13 1.43-5.229 1.78-3.82.63-9.03 1.5-8.29 7.76l-1.58.35c-.71-3.34-.87-6.74-.48-10.21 1.689-15.28 13.659-31.85 35.609-49.31z" fill="#fff"/><path d="M532.01 445.44l.09 3.189-2.51-1.97c-9.24-7.271-15.05-17.86-20.67-28.1-3.13-5.7-6.36-11.59-10.13-16.77.17-.5.34-1 .51-1.51l.33.11c.3.4.59.8.88 1.21 9.84 13.84 15.67 31.53 28.431 42.56.04.45.069.899.079 1.359l.961-.479c.18.15.359.3.539.44l-.029-.7.95-.48a28.6 28.6 0 0 1-1.061-.87c-1.689-15.5-17.36-27.28-22.89-42.95h1.59c2.39 6.46 6.59 12.36 10.67 18.08 5.9 8.261 12 16.811 12.26 26.881z" fill="#231f20"/><path d="M531.44 444.3l-.95.48c-.021-.45-.061-.9-.11-1.351.35.301.7.591 1.06.871z"/><path d="M530.49 444.78l.029.7c-.18-.141-.359-.29-.539-.44l.51-.26z" fill="#231f20"/><path d="M530.49 444.78l-.51.26c-.351-.28-.7-.57-1.04-.88a21.5 21.5 0 0 0-.301-2.28c.57.54 1.15 1.061 1.74 1.55.051.45.091.9.111 1.35z" fill="#fff"/><path d="M529.98 445.04l-.961.479c-.01-.46-.039-.909-.079-1.359.34.31.69.6 1.04.88z"/><path d="M528.64 441.88c.141.75.24 1.51.301 2.28-12.761-11.03-18.591-28.72-28.431-42.56l.09-.06c.36-.3.7-.62 1.011-.96 3.72 5.19 6.88 10.95 9.939 16.54 4.87 8.87 9.89 18.01 17.09 24.76z" fill="#231f20"/><path d="M517.31 420.3c5.091 7.141 9.95 13.95 11.33 21.58-7.199-6.75-12.22-15.89-17.09-24.76-3.06-5.59-6.22-11.35-9.939-16.54 1-1.06 1.79-2.27 2.47-3.57l.88.47.59 1.94c2.359 7.69 7.139 14.4 11.759 20.88zM517.6 245.84l-.14.21.09-.15c.02-.02.03-.04.05-.06zM511.4 382.16l.8-.23c-.11.07-.22.14-.33.23h-.47zM511.07 272.61l-1.141-.53h.71c.131.18.281.35.431.53z" fill="#fff"/><path d="M509.08 400.48h-1.59c-.061-.15-.11-.31-.16-.47l.77-1.03h.46c.16.5.33 1 .52 1.5z"/><path d="M502.74 265.54c4.74 18.47 7.26 39.53 7.26 61.46 0 18.62-1.82 36.62-5.27 52.94l-.561-.12c-.27-6.23-.31-12.7-.24-19.21C505.28 349.95 506 338.67 506 327c0-12.7-.86-24.94-2.44-36.43l1.07-1.33c-.3.37-.72.59-1.17.62-6.36-45.03-23.94-78.26-44.979-81.57-1.15-.2-2.311-.29-3.48-.29-16.61 0-31.39 18.62-40.7 47.38.55-2.6.77-5.23.67-7.9-.05-1.39-.2-2.78-.42-4.16.37-.9.75-1.8 1.14-2.68C426.04 217.01 440 204 455 204s28.96 13.01 39.31 36.64c1.66 3.79 3.2 7.79 4.61 11.97.43 4.43 1.7 8.75 3.82 12.93z" fill="#231f20"/><path d="M508.42 398.54c.04.15.09.29.14.44h-.46l.32-.44z" fill="#fff"/><path d="M508.1 398.98l-.77 1.03c-.12-.34-.23-.68-.34-1.03h1.11z" fill="#231f20"/><path d="M507.33 400.01c.05.16.1.32.16.47h-.5l.34-.47z" fill="#fff"/><path d="M507.01 255.08l-1.49-1.32H507c-.06.38-.05.82.01 1.32zM506 327c0 11.67-.72 22.95-2.07 33.61.04-4.82.15-9.65.25-14.42l.011-.23c.39-18.25.81-37.13-1.86-53.44l-.061-.35 1.29-1.6C505.14 302.06 506 314.3 506 327z"/><path d="M504.73 379.94a194.107 194.107 0 0 1-4.61 17.77c-.44.57-.91 1.08-1.45 1.53l-1.08.91-2.16-.7c2.141-6.48 4-13.49 5.54-20.93.21.89.771 2.64.71 3.34-.189.23-.26.36-.12.29.07-.03.11-.14.12-.29.54-.65 2.04-2.13 2.41-2.13.05 0 .08.03.08.09l.56.12z" fill="#231f20"/><path d="M504.63 289.24l-1.07 1.33c-.04-.24-.069-.47-.1-.71.45-.03.87-.25 1.17-.62z"/><path d="M502.33 292.52c2.67 16.31 2.25 35.19 1.86 53.44l-.011.23c-.1 4.77-.21 9.6-.25 14.42a232.661 232.661 0 0 1-2.96 17.9c-.09-.4-.109-.62.03-.51-22.32-18.25-14.74-65.95.86-85.32l.409-.51.062.35z" fill="#231f20"/><path d="M504.17 379.82c0-.06-.03-.09-.08-.09-.37 0-1.87 1.48-2.41 2.13.061-.7-.5-2.45-.71-3.34v-.01a232.661 232.661 0 0 0 2.96-17.9c-.07 6.51-.03 12.98.24 19.21z" fill="#231f20"/><path d="M503.56 290.57l-1.29 1.6-.6-3.71a1.689 1.689 0 0 0 1.79 1.4c.03.24.06.47.1.71z"/><path d="M503.46 289.86a1.687 1.687 0 0 1-1.79-1.4l.6 3.71-.409.51C486.26 312.05 478.68 359.75 501 378c-.14-.11-.12.11-.03.51v.01c-1.54 7.44-3.399 14.45-5.54 20.93-8.279 25.12-20.77 42.33-34.97 45.859l-.1-.38 2.21-2.739c15.88-19.67 17.8-72.73-1.62-90.811l-2.641-2.46-1.399-4.78.26-.03c7.25-.88 10.53-9.55 10.51-17.23-.029-7.74-3.29-15.92-10.52-16.75l-.25-.03 3.46-4.58 2.21-2.84c7.5-9.63 12.2-27.29 12.27-46.1.08-20.1-4.989-36.39-13.899-44.69l-2.641-2.46.171-1.14C479.52 211.6 497.1 244.83 503.46 289.86z" fill="#ed1e29"/><path d="M501.68 381.86c-.01.15-.05.26-.12.29-.14.07-.07-.06.12-.29z" fill="#231f20"/><path d="M500.84 399.5c.26.36.53.72.771 1.08-.311.34-.65.66-1.011.96l.24-2.04z" fill="#fff"/><path d="M500.12 397.71c-.271.86-.54 1.72-.82 2.57-.17.51-.34 1.01-.51 1.51-.11-.17-.23-.34-.36-.51l-.84-1.13 1.08-.91c.54-.45 1.01-.96 1.45-1.53zM498.92 252.61c1.4 4.14 2.68 8.46 3.82 12.93-2.12-4.18-3.39-8.5-3.82-12.93z" fill="#231f20"/><path d="M498.43 401.28c.13.17.25.34.36.51-1.38 4.03-2.87 7.9-4.48 11.57C483.96 436.99 470 450 455 450s-28.96-13.01-39.31-36.64c-1.07-2.44-2.09-4.97-3.06-7.58a28.87 28.87 0 0 1 2.72-2.88l.3-.27C425.02 429.1 439.18 446 455 446c1.84 0 3.66-.23 5.46-.69 14.2-3.529 26.69-20.74 34.97-45.859l2.16.7.84 1.129zM460.95 211.89c8.91 8.3 13.979 24.59 13.899 44.69-.069 18.81-4.77 36.47-12.27 46.1l-2.21 2.84-.46-3.57c-2.141-16.69-1.811-35.98-1.5-54.64.189-11.42.39-23.22.02-34.27l-.12-3.61 2.641 2.46zm1.75 88.07c13.569-20.11 15.24-67.23-1.22-85.4-.021-.54-.03-1.08-.051-1.62l-1.06.48c-.14-.15-.29-.29-.44-.43.011.21.011.42.021.63l-1.04.47c.37.35.729.71 1.08 1.08.76 27.78-1.79 58.72 1.149 84.41-.29.43-.6.85-.92 1.26l1.11.3c.02.21.04.41.07.61.13-.16.26-.32.369-.49l1.12.31c-.068-.53-.128-1.07-.188-1.61z" fill="#231f20"/><path d="M461.48 214.56c16.46 18.17 14.789 65.29 1.22 85.4-.101-.78-.19-1.57-.271-2.36 12.13-19.94 13.53-62.58-.89-80.66l-.059-2.38z" fill="#231f20"/><path d="M461.54 216.94c14.42 18.08 13.02 60.72.89 80.66-1.6-15.55-1.31-33.16-1.02-50.24.17-10.09.34-20.48.13-30.42zM461.54 356.45c14.31 18.06 13.09 61.22.9 80.729-1.61-15.57-1.32-33.22-1.03-50.33.17-10.079.34-20.469.13-30.399z" fill="#fff"/><path d="M462.44 437.18c12.189-19.51 13.409-62.67-.9-80.729l-.06-2.39c16.329 18.08 15.069 65.6 1.22 85.44-.09-.771-.18-1.541-.26-2.321zM467.68 326.88c.021 7.68-3.26 16.35-10.51 17.23l-.26.03-.25-.06c-7.54-1.66-10.92-9.72-10.92-16.96s3.38-15.3 10.92-16.96l.25-.06.25.03c7.23.83 10.49 9.01 10.52 16.75zm-10.69 15.74c12.1-1.47 12.399-29.58 0-31-12.99 2.87-12.99 28.13 0 31z" fill="#231f20"/><path d="M464.68 326.89c.021 6.49-2.59 13.38-7.62 14.2-5.739-1.43-8.319-8.01-8.319-13.97s2.58-12.55 8.33-13.97c5.199.8 7.589 7.63 7.609 13.74z" fill="#fff"/><path d="M460.95 351.38c19.42 18.08 17.5 71.14 1.62 90.811l-2.21 2.739-.45-3.489c-2.141-16.69-1.811-35.98-1.5-54.641.189-11.42.39-23.22.02-34.27l-.12-3.61 2.64 2.46zm1.75 88.12c13.85-19.84 15.109-67.36-1.22-85.44-.021-.55-.03-1.09-.051-1.63l-1.06.48c-.14-.15-.29-.29-.44-.43.011.21.011.42.021.63l-1.04.47c.37.34.729.7 1.08 1.08.76 27.79-1.79 58.76 1.149 84.45-.29.409-.6.81-.909 1.199l1.09.311c.029.21.05.42.08.63.13-.16.26-.33.39-.5l1.1.31c-.07-.52-.13-1.04-.19-1.56z" fill="#231f20"/><path d="M462.7 299.96c.06.54.12 1.08.189 1.61l-1.12-.31c.321-.42.631-.85.931-1.3zM462.7 439.5c.06.52.12 1.04.189 1.56l-1.1-.31c.311-.4.621-.82.911-1.25z"/><path d="M462.43 297.6c.08.79.17 1.58.271 2.36-.3.45-.61.88-.931 1.3l-.439-.12c-.07-.51-.13-1.03-.19-1.56.449-.63.879-1.29 1.289-1.98zM462.44 437.18c.079.78.17 1.551.26 2.32-.29.43-.601.85-.91 1.25l-.47-.13c-.061-.5-.12-1-.181-1.51.451-.61.881-1.26 1.301-1.93z" fill="#fff"/><path d="M462.43 297.6a28.1 28.1 0 0 1-1.29 1.98c-2.939-25.69-.39-56.63-1.149-84.41.54.56 1.05 1.15 1.55 1.77.21 9.94.04 20.33-.13 30.42-.291 17.08-.581 34.69 1.019 50.24zM462.44 437.18c-.421.67-.851 1.32-1.301 1.931-2.939-25.69-.39-56.66-1.149-84.45.54.56 1.06 1.16 1.55 1.79.21 9.93.04 20.32-.13 30.4-.29 17.109-.58 34.759 1.03 50.329zM461.79 440.75c-.13.17-.26.34-.39.5-.03-.21-.051-.42-.08-.63l.47.13zM461.33 301.14l.439.12c-.109.17-.239.33-.369.49-.03-.2-.05-.4-.07-.61z" fill="#231f20"/><path d="M461.48 214.56l.06 2.38c-.5-.62-1.01-1.21-1.55-1.77-.01-.52-.021-1.04-.04-1.55l.42-.2c.38.36.75.74 1.11 1.14zM461.48 354.06l.06 2.39c-.49-.63-1.01-1.23-1.55-1.79-.01-.52-.021-1.04-.04-1.55l.42-.2c.38.36.75.75 1.11 1.15z" fill="#fff"/><path d="M461.43 212.94c.021.54.03 1.08.051 1.62-.36-.4-.73-.78-1.11-1.14l1.059-.48zM461.43 352.43c.021.54.03 1.08.051 1.63-.36-.4-.73-.79-1.11-1.15l1.059-.48zM461.14 299.58c.061.53.12 1.05.19 1.56l-1.11-.3c.32-.41.63-.83.92-1.26zM461.14 439.11c.061.51.12 1.01.181 1.51l-1.09-.311c.309-.389.619-.789.909-1.199z"/><path d="M460.36 444.93l.1.38c-1.8.46-3.62.69-5.46.69-15.82 0-29.98-16.9-39.35-43.37l.6-.54-.61-1.04c-.45-.79-.9-1.59-1.33-2.4-2.11-6.53-3.95-13.58-5.47-21.06l.01-.01c7.7-9.88 12.52-27.89 12.59-47.01.08-20.36-5.08-36.94-14.16-45.58 1.38-8.49 3.16-16.52 5.29-23.95a32.6 32.6 0 0 0 1.73-5.66C423.61 226.62 438.39 208 455 208c1.17 0 2.33.09 3.48.29l-.171 1.14.12 3.61c.37 11.05.17 22.85-.02 34.27-.311 18.66-.641 37.95 1.5 54.64l.46 3.57-3.46 4.58-.25.06c-7.54 1.66-10.92 9.72-10.92 16.96s3.38 15.3 10.92 16.96l.25.06 1.399 4.78.12 3.61c.37 11.05.17 22.85-.02 34.27-.311 18.66-.641 37.95 1.5 54.641l.452 3.489zm-6.27-178.38c.32-18.37.641-37.36-1.5-53.75l-.53-4.06-2.21 3.44c-12.729 19.7-16.649 70.21 1.65 89.21l2.71 2.82-.13-3.91c-.38-10.88-.18-22.51.01-33.75zm0 139.49c.32-18.37.641-37.36-1.5-53.75l-.53-4.06-2.22 3.44c-12.79 19.85-16.729 70.43 1.66 89.22l2.71 2.761-.13-3.86c-.38-10.871-.18-22.501.01-33.751z" fill="#ed1e29"/><path d="M460.37 213.42l-.42.2c-.01-.21-.01-.42-.021-.63.151.14.301.28.441.43zM460.37 352.91l-.42.2c-.01-.21-.01-.42-.021-.63.151.14.301.28.441.43z" fill="#231f20"/><path d="M459.95 213.62c.02.51.03 1.03.04 1.55-.351-.37-.71-.73-1.08-1.08l1.04-.47zM459.95 353.11c.02.51.03 1.03.04 1.55-.351-.38-.71-.74-1.08-1.08l1.04-.47z"/><path d="M456.99 311.62c12.399 1.42 12.1 29.53 0 31-12.99-2.87-12.99-28.13 0-31zm.07 29.47c5.03-.82 7.641-7.71 7.62-14.2-.02-6.11-2.41-12.94-7.609-13.74l.239-.06-.489.02c.09.01.17.02.25.04-5.75 1.42-8.33 8.01-8.33 13.97s2.579 12.54 8.319 13.97c-.079.02-.17.03-.25.04l.5.02-.25-.06z" fill="#231f20"/><path d="M457.31 313.09l-.239.06c-.08-.02-.16-.03-.25-.04l.489-.02zM457.31 341.15l-.5-.02c.08-.01.171-.02.25-.04l.25.06z" fill="#fff"/><path d="M452.59 212.8c2.141 16.39 1.82 35.38 1.5 53.75-.189 11.24-.39 22.87-.01 33.75l.13 3.91-2.71-2.82c-18.3-19-14.38-69.51-1.65-89.21l2.21-3.44.53 4.06zm-.03 86.97l1.101-.46c-.4-.41-.78-.85-1.15-1.3-.729-27.19 1.771-57.48-1.109-82.61.31-.55.64-1.08.97-1.6l-1.19-.27c-.02-.18-.05-.36-.069-.54-.101.15-.19.3-.29.46l-1.2-.27c.08.63.16 1.26.229 1.9-11.52 20.59-13.739 65.02 1.181 83.5.01.61.029 1.22.05 1.82l1.11-.47c.13.14.25.28.39.41-.013-.19-.013-.38-.023-.57zM452.59 352.29c2.141 16.39 1.82 35.38 1.5 53.75-.189 11.25-.39 22.88-.01 33.75l.13 3.86-2.71-2.761c-18.39-18.79-14.45-69.37-1.66-89.22l2.22-3.44.53 4.061zm-.03 86.97l1.091-.47c-.391-.4-.78-.82-1.141-1.26-.729-27.19 1.771-57.48-1.109-82.63.319-.56.64-1.1.97-1.61l-1.19-.26c-.02-.18-.05-.36-.069-.54-.101.15-.2.3-.29.46l-1.2-.27c.08.63.16 1.26.229 1.89-11.449 20.54-13.869 65.17 1.181 83.53.01.601.029 1.2.05 1.79l1.1-.47c.13.14.261.28.4.41-.012-.19-.012-.38-.022-.57z" fill="#231f20"/><path d="M453.66 299.31l-1.101.46c-.02-.58-.04-1.17-.05-1.76.371.45.751.89 1.151 1.3zM453.65 438.79l-1.091.47c-.02-.569-.029-1.149-.05-1.729.361.439.751.859 1.141 1.259z"/><path d="M451.4 215.4c2.88 25.13.38 55.42 1.109 82.61-.54-.64-1.05-1.31-1.55-2.03-.21-9.64-.03-19.7.13-29.48.29-16.57.58-33.66-.95-48.77.411-.81.821-1.58 1.261-2.33zM451.4 354.9c2.88 25.15.38 55.44 1.109 82.63-.55-.63-1.06-1.29-1.55-1.98-.21-9.66-.04-19.76.13-29.56.29-16.56.58-33.62-.95-48.72.411-.83.831-1.62 1.261-2.37zM452.56 299.77c.011.19.011.38.021.57-.14-.13-.26-.27-.39-.41l.369-.16zM452.56 439.26c.011.19.011.38.021.57a7.727 7.727 0 0 1-.4-.41l.379-.16z" fill="#231f20"/><path d="M452.51 298.01c.01.59.03 1.18.05 1.76l-.369.16c-.4-.43-.79-.88-1.16-1.35-.03-.86-.05-1.73-.07-2.6.499.72 1.009 1.39 1.549 2.03zM452.51 437.53c.021.58.03 1.16.05 1.729l-.38.16c-.39-.42-.779-.86-1.149-1.32-.03-.84-.05-1.689-.07-2.55.489.691.999 1.351 1.549 1.981z" fill="#fff"/><path d="M451.18 213.53l1.19.27c-.33.52-.66 1.05-.97 1.6-.07-.63-.14-1.25-.22-1.87zM451.18 353.03l1.19.26c-.33.51-.65 1.05-.97 1.61-.07-.63-.14-1.25-.22-1.87zM452.19 299.93l-1.11.47c-.021-.6-.04-1.21-.05-1.82.37.47.76.92 1.16 1.35zM452.18 439.42l-1.1.47c-.021-.59-.04-1.189-.05-1.79.37.46.76.9 1.15 1.32z"/><path d="M451.18 213.53c.08.62.15 1.24.221 1.87-.44.75-.851 1.52-1.261 2.33-.09-.89-.18-1.78-.29-2.65.32-.56.641-1.11.971-1.63l.359.08zM451.18 353.03c.08.62.15 1.24.221 1.87-.431.75-.851 1.54-1.261 2.37-.08-.91-.18-1.8-.29-2.7.32-.56.641-1.1.971-1.62l.359.08zM450.14 357.27c1.53 15.1 1.24 32.16.95 48.72-.17 9.8-.34 19.9-.13 29.56-13.08-18.4-10.41-58.63-.82-78.28z" fill="#fff"/><path d="M451.11 212.99c.02.18.05.36.069.54l-.359-.08c.1-.16.19-.31.29-.46z" fill="#231f20"/><path d="M450.14 217.73c1.53 15.11 1.24 32.2.95 48.77-.16 9.78-.34 19.84-.13 29.48-12.25-17.82-11.16-57.57-.82-78.25z" fill="#fff"/><path d="M451.11 352.49c.02.18.05.36.069.54l-.359-.08c.09-.16.19-.31.29-.46zM450.96 295.98c.021.87.04 1.74.07 2.6-14.92-18.48-12.7-62.91-1.181-83.5.11.87.2 1.76.29 2.65-10.339 20.68-11.429 60.43.821 78.25zM450.96 435.55c.021.86.04 1.71.07 2.55-15.05-18.359-12.63-62.99-1.181-83.53.11.9.21 1.79.29 2.7-9.589 19.65-12.259 59.88.821 78.28z" fill="#231f20"/><path d="M449.62 213.18l1.2.27c-.33.52-.65 1.07-.971 1.63-.069-.64-.149-1.27-.229-1.9zM449.62 352.68l1.2.27c-.33.52-.65 1.06-.971 1.62-.069-.63-.149-1.26-.229-1.89zM407.28 284.99c9.08 8.64 14.24 25.22 14.16 45.58-.07 19.12-4.89 37.13-12.59 47.01l-.01.01c-3.1-15.36-4.84-32.51-4.84-50.59 0-14.78 1.16-28.94 3.28-42.01z"/><path d="M415.64 401.05l.61 1.04-.6.54c-.46-1.3-.91-2.63-1.34-3.98.43.81.88 1.61 1.33 2.4z" fill="#231f20"/><path d="M415.65 402.63l-.3.27c-.94.86-1.85 1.83-2.72 2.88-.2-.54-.39-1.08-.59-1.62.74-.85 1.51-1.64 2.3-2.36-2.79-4.82-5.17-10.03-7.56-15.24-.45-1.83-.88-3.69-1.27-5.57.11.01.22-.01.32-.04l2.28 4.92c1.96 4.27 3.98 8.66 6.2 12.78.43 1.35.88 2.68 1.34 3.98zM414.97 247.48c.1 2.67-.12 5.3-.67 7.9-.6 1.85-1.18 3.73-1.73 5.66-1.56 3.89-3.87 7.68-6.94 11.34.25-1.15.51-2.3.79-3.43 5.63-7.68 7.57-15.3 6.97-22.73.38-.98.77-1.95 1.16-2.9.22 1.38.37 2.77.42 4.16z" fill="#231f20"/><path d="M414.55 243.32c-.39.95-.78 1.92-1.16 2.9-1.62-20.21-21.94-38.96-37.57-53.33-.41-1.04-.84-2.06-1.29-3.06l.08-.09 2.12 1.95c14.76 13.57 34.62 31.85 37.82 51.63z" fill="#231f20"/><path d="M413.39 246.22c.6 7.43-1.34 15.05-6.97 22.73.34-1.45.7-2.88 1.07-4.3 2.79-4.71 4.27-9.54 4.47-14.58.46-1.3.94-2.59 1.43-3.85zM412.57 261.04c.55-1.93 1.13-3.81 1.73-5.66a32.6 32.6 0 0 1-1.73 5.66zM413.04 402.55l.29-1.86c-.29.27-.58.54-.86.84-1.21-2.14-2.34-4.36-3.43-6.6v-.01c-.81-2.73-1.56-5.51-2.26-8.36 2.39 5.21 4.77 10.42 7.56 15.24-.79.72-1.56 1.51-2.3 2.36-.19-.53-.38-1.07-.57-1.61.33-.36.66-.7 1-1.02.18.34.38.68.57 1.02z" fill="#231f20"/><path d="M413.33 400.69l-.29 1.86c-.19-.34-.39-.68-.57-1.02.28-.3.57-.57.86-.84z" fill="#231f20"/><path d="M413.39 246.22c-.49 1.26-.97 2.55-1.43 3.85.04-.82.04-1.64.01-2.47-.74-19.15-19.87-37.65-34.99-51.6a76.58 76.58 0 0 0-1.16-3.11c15.63 14.37 35.95 33.12 37.57 53.33z"/><path d="M412.04 404.16c.2.54.39 1.08.59 1.62-3.76 4.52-6.95 10.59-10.06 16.5-5.76 10.951-11.19 21.291-20.26 23.25l-2.59.56.85-2.5c3.24-9.609 8.44-17.43 13.46-25 3.78-5.69 7.68-11.55 10.67-18.11h1.64c-6.71 15.1-17.86 25.95-23.74 41.87-.31.101-.62.181-.93.25l.6.67c-.1.271-.19.53-.28.801.27-.061.54-.13.81-.2l.61.68c.12-.34.23-.68.36-1.01 12.2-4.591 17.86-27.491 28.27-39.381z" fill="#231f20"/><path d="M411.47 402.55c.19.54.38 1.08.57 1.61-10.41 11.89-16.07 34.79-28.27 39.38.23-.67.48-1.33.74-1.97 6.18-3.15 10.68-11.7 15.41-20.69 3.47-6.61 7.07-13.44 11.55-18.33z" fill="#231f20"/><path d="M411.97 247.6c.03.83.03 1.65-.01 2.47-.63 1.77-1.24 3.57-1.82 5.4l-.12-.32-.15-.41c-1.88-5.11-5.38-6.57-8.76-7.97-2.26-.94-4.4-1.83-6.26-3.81-6.96-7.39-10.19-19.59-13.32-31.39-1.38-5.23-2.79-10.58-4.55-15.57 15.12 13.95 34.25 32.45 34.99 51.6z" fill="#fff"/><path d="M412.47 401.53c-.34.32-.67.66-1 1.02-.59-1.71-1.16-3.45-1.71-5.23-.25-.79-.49-1.59-.72-2.39 1.09 2.24 2.22 4.46 3.43 6.6zM410.14 255.47c.58-1.83 1.19-3.63 1.82-5.4-.2 5.04-1.68 9.87-4.47 14.58.7-2.69 1.45-5.32 2.24-7.89h.88l-.47-1.29z" fill="#231f20"/><path d="M410.14 255.47l.47 1.29h-.88c.04-.14.09-.27.13-.41.09-.3.18-.59.28-.88z" fill="#231f20"/><path d="M409.76 397.32c.55 1.78 1.12 3.52 1.71 5.23-4.48 4.89-8.08 11.72-11.55 18.33-4.73 8.99-9.23 17.54-15.41 20.69 3.13-7.931 7.64-14.721 12.02-21.32 4.25-6.4 8.65-13.02 11.85-20.69l.86-2.08.52-.16z" fill="#fff"/><path d="M410.02 255.15l.12.32c-.1.29-.19.58-.28.88-.05.14-.1.27-.14.41H173.2v-1.5h2.9l.04.04v-.04h230.62c.08.17.14.34.21.52l.05-.07c.01.02.02.05.03.07l.36-.52h1.05c-.12-.33-.25-.64-.39-.94l.39-.56h-.66c-3.12-5.97-9.37-4.8-14.05-9.77-10.67-11.33-12.61-32.52-18.74-49l1.13 1.01c1.81 4.99 3.25 10.34 4.67 15.57 3.21 11.8 6.52 24 13.65 31.39 1.91 1.98 4.1 2.87 6.42 3.81 3.47 1.4 7.06 2.86 8.98 7.97l.16.41z" fill="#231f20"/><path d="M409.87 254.74l.15.41-.16-.41c-1.92-5.11-5.51-6.57-8.98-7.97-2.32-.94-4.51-1.83-6.42-3.81-7.13-7.39-10.44-19.59-13.65-31.39-1.42-5.23-2.86-10.58-4.67-15.57l-1.13-1.01c-.14-.41-.29-.81-.45-1.21l.14.12 2.28 2.1c1.76 4.99 3.17 10.34 4.55 15.57 3.13 11.8 6.36 24 13.32 31.39 1.86 1.98 4 2.87 6.26 3.81 3.38 1.4 6.88 2.86 8.76 7.97z"/><path d="M409.86 256.35c-.04.14-.09.27-.13.41h-.01c.04-.14.09-.27.14-.41zM409.04 394.93c.23.8.47 1.6.72 2.39l-.52.16H173.2v-15.32h229.89l2.3 4.96c1.18 2.58 2.39 5.21 3.65 7.8v.01z" fill="#fff"/><path d="M409.72 256.76h.01c-.79 2.57-1.54 5.2-2.24 7.89-1.49 2.5-3.34 4.98-5.57 7.43H173.2v-15.32H409.72z" fill="#fff"/><path d="M408.84 377.59c1.52 7.48 3.36 14.53 5.47 21.06-2.22-4.12-4.24-8.51-6.2-12.78l-2.28-4.92c.32-.08.6-.26.81-.53l2.2-2.83z" fill="#231f20"/><path d="M408.84 377.59l-2.2 2.83c-.21.27-.49.45-.81.53l-.43-.93-.2-.44a228.57 228.57 0 0 1-2.91-17.15c-.75-13.15-.52-27.23-.29-40.96V321c.16-9.44.32-19.15.16-28.46.46-3.59.99-7.11 1.59-10.58.25.05.48.17.67.35l2.64 2.46c.07.07.15.14.22.22-2.12 13.07-3.28 27.23-3.28 42.01 0 18.08 1.74 35.23 4.84 50.59zM408.46 253.76l-.39.56c-.01-.01-.01-.03-.02-.04l.37-.52h.04zM408.46 255.26h-.04c-.12-.32-.25-.61-.38-.9l.03-.04c.14.3.27.61.39.94z" fill="#231f20"/><path d="M408.42 253.76l-.37.52c-.07-.18-.17-.35-.25-.52h.62z" fill="#fff"/><path d="M408.42 255.26h-1.01l.63-.9c.13.29.26.58.38.9zM408.05 254.28c.01.01.01.03.02.04l-.03.04c-.01-.01-.01-.03-.02-.04l.03-.04z" fill="#231f20"/><path d="M408.05 254.28l-.03.04c.01.01.01.03.02.04l-.63.9H406.84a9.55 9.55 0 0 0-.77-1.5h1.73c.08.17.18.34.25.52z"/><path d="M407.8 253.76h-.06c-3.2-5.97-9.61-4.8-14.41-9.77-11.2-11.61-13.02-33.57-19.67-50.21l.14.12 1.21 1.09c6.13 16.48 8.07 37.67 18.74 49 4.68 4.97 10.93 3.8 14.05 9.77z" fill="#231f20"/><path d="M407.74 253.76h-1.67c-1.47-2.3-3.58-3.17-6.11-4.22-2.34-.97-4.99-2.07-7.3-4.52-7.47-7.95-10.81-20.52-14.03-32.68-1.94-7.34-3.95-14.93-6.83-21.27l2.39-1.72.42.39-.08.09-1.14.82c-.07-.07-.15-.13-.22-.2.04.09.08.18.12.28l-1.14.82 2.41 2.23c.16.4.31.8.45 1.21l-1.21-1.09-.14-.12c6.65 16.64 8.47 38.6 19.67 50.21 4.8 4.97 11.21 3.8 14.41 9.77z"/><path d="M412.57 261.04c-2.13 7.43-3.91 15.46-5.29 23.95-.07-.08-.15-.15-.22-.22l-2.64-2.46c-.19-.18-.42-.3-.67-.35.56-3.25 1.19-6.45 1.88-9.58 3.07-3.66 5.38-7.45 6.94-11.34zM407.41 255.26l-.36.52c-.01-.02-.02-.05-.03-.07l.32-.45h.07z" fill="#231f20"/><path d="M407.34 255.26l-.32.45c-.06-.16-.11-.3-.18-.45h.5z" fill="#fff"/><path d="M406.78 386.56c.7 2.85 1.45 5.63 2.26 8.36-1.26-2.59-2.47-5.22-3.65-7.8l-2.3-4.96h.96l-1.36-.86.4.86H173.2V272.08h228.72c-.14.16-.29.32-.44.48l1.1-.48h-.66c2.23-2.45 4.08-4.93 5.57-7.43-.37 1.42-.73 2.85-1.07 4.3a50.56 50.56 0 0 1-3.84 4.63H174.64v107.08h229.41c.93 1.95 1.83 3.93 2.73 5.9z" fill="#231f20"/><path d="M407.02 255.71l-.05.07c-.07-.18-.13-.35-.21-.52h.08c.07.15.12.29.18.45z"/><path d="M406.99 398.98c-.13.31-.26.61-.39.91l-.61-.91h1z" fill="#231f20"/><path d="M406.6 399.89l.39.59h-.65c.09-.2.18-.39.26-.59z" fill="#fff"/><path d="M406.84 255.26H176.14c.02-.5.03-1 .04-1.5h229.89c.28.44.54.94.77 1.5z" fill="#231f20"/><path d="M405.99 398.98l.61.91c-.08.2-.17.39-.26.59h-1.64c.23-.49.45-.99.66-1.5h.63z"/><path d="M406.42 268.95c-.28 1.13-.54 2.28-.79 3.43-.62.75-1.27 1.49-1.95 2.22l-.45.48H176.14v-1.5h226.44a50.56 50.56 0 0 0 3.84-4.63z" fill="#231f20"/><path d="M405.61 398.4l.38.58h-.63c.09-.19.17-.39.25-.58z" fill="#fff"/><path d="M405.51 380.99c.39 1.88.82 3.74 1.27 5.57-.9-1.97-1.8-3.95-2.73-5.9H176.14v-1.5H403.9l.07.53c.08.6.51 1.1 1.09 1.26.15.04.3.06.45.04zM405.4 380.02l.43.93c-.1.03-.21.05-.32.04-.11-.47-.21-.94-.31-1.41l.2.44z" fill="#231f20"/><path d="M405.51 380.99c-.15.02-.3 0-.45-.04-.58-.16-1.01-.66-1.09-1.26l-.07-.53h.15s.95 0 .95-.01l.2.43c.1.47.2.94.31 1.41z"/><path d="M405.36 398.98c-.21.51-.43 1.01-.66 1.5H176.14v-1.5h229.22z" fill="#231f20"/><path d="M405.2 379.58l-.2-.43c0 .01-.95.01-.95.01h-.15l-.39-3.04c-.56-4.4-.95-8.99-1.22-13.69.77 5.88 1.75 11.61 2.91 17.15z"/><path d="M403.68 274.6c.68-.73 1.33-1.47 1.95-2.22-.69 3.13-1.32 6.33-1.88 9.58-.32-.09-.66-.06-.97.08-.55.26-.9.81-.88 1.42l.12 3.61c.06 1.8.11 3.63.14 5.47-1.42 11.05-2.16 22.63-2.16 34.46 0 12.18.78 24.08 2.29 35.43.27 4.7.66 9.29 1.22 13.69l.39 3.04H176.14V275.08h227.09l.45-.48z" fill="#ed1e29"/><path fill="#fff" d="M404.05 382.16h-.96l-.4-.86z"/><path d="M402.78 282.04c.31-.14.65-.17.97-.08-.6 3.47-1.13 6.99-1.59 10.58-.03-1.84-.08-3.67-.14-5.47l-.12-3.61c-.02-.61.33-1.16.88-1.42z"/><path d="M402.58 272.08l-1.1.48c.15-.16.3-.32.44-.48h.66z" fill="#fff"/><path d="M402.16 292.54c.16 9.31 0 19.02-.16 28.46V321.47c-.23 13.73-.46 27.81.29 40.96-1.51-11.35-2.29-23.25-2.29-35.43 0-11.83.74-23.41 2.16-34.46z" fill="#231f20"/><path d="M384.51 441.57c-.26.64-.51 1.3-.74 1.97-.32.12-.64.229-.97.33l-.53-.601c.1-.31.22-.619.33-.92.66-.199 1.29-.459 1.91-.779z" fill="#fff"/><path d="M382.8 443.87c.33-.101.65-.21.97-.33-.13.33-.24.67-.36 1.01l-.61-.68z"/><path d="M382.27 443.27l.53.601c-.27.07-.54.14-.81.2.09-.271.18-.531.28-.801z" fill="#231f20"/><path d="M382.6 442.35c-.11.301-.23.61-.33.92l-.6-.67c.31-.07.62-.15.93-.25z"/><path d="M376.98 196l-2.28-2.1-.14-.12c-.4-1.04-.82-2.06-1.27-3.05l.1-.08c.79.73 1.6 1.48 2.43 2.24.41 1.02.79 2.06 1.16 3.11z" fill="#fff"/><path d="M374.53 189.83c.45 1 .88 2.02 1.29 3.06-.83-.76-1.64-1.51-2.43-2.24l1.14-.82zM374.56 193.78l-2.41-2.23 1.14-.82c.45.99.87 2.01 1.27 3.05z"/><path d="M373.39 190.65l-.1.08c-.04-.1-.08-.19-.12-.28.07.07.15.13.22.2z" fill="#231f20"/><path d="M177.61 146.92c-.05.45-.09.9-.13 1.35h-1.37l1.5-1.35z"/><path d="M175.95 148.44h1.51c-1.95 20.18-1.64 42.91-1.33 64.92.18 13.4.37 27.23.05 40.4h-1.5c.84-34.7-1.85-72.8 1.27-105.32z" fill="#231f20"/><path d="M176.18 253.76c-.01.5-.02 1-.04 1.5h-.04l-1.43-1.46c.01-.01.01-.02.01-.04h1.5zM176.14 505.97v1.5l-1.5-1.5z"/><path d="M176.14 400.48v105.49h-1.5V400.48h1.5z" fill="#231f20"/><path d="M176.14 398.98v1.5h-1.5zM176.14 379.16v1.5l-1.5-1.5z"/><path d="M176.14 275.08v104.08h-1.5V275.08h1.5z" fill="#231f20"/><path d="M176.14 273.58v1.5h-1.5z"/><path d="M176.14 255.26v.04l-.04-.04h.04zM176.14 273.58l-1.5 1.5v-1.5h1.5zM176.14 398.98l-1.5 1.5v-1.5h1.5zM176.14 380.66h-1.5v-1.5l1.5 1.5zM176.14 507.47h-1.5v-1.5l1.5 1.5zM174.67 253.8l1.43 1.46h-1.46c.01-.48.03-.97.03-1.46z" fill="#231f20"/><path d="M174.44 148.44h1.51c-3.12 32.52-.43 70.62-1.27 105.32h-.04l.03.04c0 .49-.02.98-.03 1.46h-1.44v-2.59c-.01.86-.04 1.7-.06 2.55v.04h-2.93v.04l-.04-.04h-1.49c.01-.48.03-.97.03-1.46l-.03-.04h.04c.86-34.7-1.9-72.8 1.3-105.32h4.42zm-1.24 70.32v-50.11c-.49 14.6-.28 29.84-.07 44.75.02 1.78.05 3.57.07 5.36z" fill="#231f20"/><path d="M122 114.77c-10.99-4.89-18.33-13.72-18.33-23.8 0-15.4 17.13-27.88 38.25-27.88 21.13 0 38.26 12.48 38.26 27.88 0 9.84-7 18.49-17.57 23.45-5.96 2.8-13.07 4.43-20.69 4.43-7.3 0-14.12-1.49-19.92-4.08z" fill="#c8c8c8"/><path d="M174.74 145.45l-.12 1.16-.18 1.83h-1.24v-.26c-.05-.84-.15-2.39.1-2.73h1.44zM174.68 253.76c0 .02 0 .03-.01.04l-.03-.04h.04zM173.35 145.44c-.02 0-.03.01-.04.01v-.01h.04zM173.31 145.44v.01h-.14zM173.2 508.97v1.32l-1.5-1.5h1.44v.18z" fill="#fff"/><path fill="#231f20" d="M173.14 508.79h.06v.18h-.06zM173.2 397.48v111.31h-.06V397.48z"/><path d="M173.2 382.16v15.32h-.06V508.79h-1.44v1.5h-3.23l-.72-78.34V256.76H173.2v15.32h-.06v110.08h.06z" fill="#fff"/><path fill="#231f20" d="M173.2 272.08v110.08h-.06V272.08zM173.2 255.26v1.5h-.1l.04-1.5h.06zM173.2 252.67v2.59h-.06v-.04c.02-.85.05-1.69.06-2.55zM173.2 168.65v50.11c-.02-1.79-.05-3.58-.07-5.36-.21-14.91-.42-30.15.07-44.75zM173.2 510.29h-1.5v-1.5l1.5 1.5z"/><path d="M173.14 255.26l-.04 1.5h-5.35v-99.3c.2-3.05.43-6.06.72-9.02h1.55c-3.2 32.52-.44 70.62-1.3 105.32h-.04l.03.04c0 .49-.02.98-.03 1.46h1.49l.04.04v-.04h2.93z" fill="#231f20"/><path d="M168.49 511.79v.54h-5.47V279.88l3.22 230.41v1.5h2.25z" fill="#fff"/><path d="M168.49 511.79h-2.25v-1.5l-3.22-230.41V152.63c-.12-1.98-.23-3.96 1.35-4.19h.77l2.61 283.51v78.34h.72l.02 1.5z" fill="#231f20"/><path d="M167.75 431.95l.72 78.34h-.72v-1.5-76.84z" fill="#fff"/><path d="M167.75 148.44h.72c-.29 2.96-.52 5.97-.72 9.02v-9.02zM167.75 256.76v175.19l-2.61-283.51h2.61v9.02c-.24 3.67-.42 7.41-.55 11.19v50.11c.15 11.33.27 22.85 0 33.91v4.09h.55z" fill="#231f20"/><path d="M167.75 157.46v99.3h-.55v-4.09c.27-11.06.15-22.58 0-33.91v-50.11c.13-3.78.31-7.52.55-11.19zM167.75 148.44h-2.61l-.03-3.13c1.28 1.68 2.43 3.13 2.64 3.13z" fill="#231f20"/><path d="M165.11 145.31l.03 3.13h-.77c-1.58.23-1.47 2.21-1.35 4.19v127.25l-.41-29.34V142.05c.74.94 1.65 2.15 2.5 3.26z" fill="#231f20"/><path d="M162.61 250.54v534.84h-39.49L122 114.77c5.8 2.59 12.62 4.08 19.92 4.08 7.62 0 14.73-1.63 20.69-4.43v27.63c-.79-1-1.39-1.71-1.54-1.71l1.54 110.2z" fill="#c8c8c8"/><path d="M162.61 142.05v108.49l-1.54-110.2c.15 0 .75.71 1.54 1.71z" fill="#231f20"/><g fill="none"><path stroke="#231f20" d="M173.2 382.16h-.06V272.08h.06zM173.14 508.79V397.48h.06v111.31z"/><path stroke="#231f20" stroke-width="21" d="M165.07 140.34h583.11v379.83H168.56M122 114.77c-10.99-4.89-18.33-13.72-18.33-23.8 0-15.4 17.13-27.88 38.25-27.88 21.13 0 38.26 12.48 38.26 27.88 0 9.84-7 18.49-17.57 23.45-5.96 2.8-13.07 4.43-20.69 4.43-7.3 0-14.12-1.49-19.92-4.08z"/><path stroke="#231f20" stroke-width="21" d="M122 114v.77l1.12 670.61M162.61 112.6v672.78"/><path stroke="#231f20" stroke-width="14" d="M745 179.25l3.18-1.79 2.01-1.14"/><path d="M409.73 256.76c-.79 2.57-1.54 5.2-2.24 7.89-.37 1.42-.73 2.85-1.07 4.3-.28 1.13-.54 2.28-.79 3.43-.69 3.13-1.32 6.33-1.88 9.58-.6 3.47-1.13 6.99-1.59 10.58-1.42 11.05-2.16 22.63-2.16 34.46 0 12.18.78 24.08 2.29 35.43.77 5.88 1.75 11.61 2.91 17.15.1.47.2.94.31 1.41.39 1.88.82 3.74 1.27 5.57.7 2.85 1.45 5.63 2.26 8.36v.01c.23.8.47 1.6.72 2.39.55 1.78 1.12 3.52 1.71 5.23.19.54.38 1.08.57 1.61.2.54.39 1.08.59 1.62.97 2.61 1.99 5.14 3.06 7.58C426.04 436.99 440 450 455 450s28.96-13.01 39.31-36.64c1.61-3.67 3.101-7.54 4.48-11.57.17-.5.34-1 .51-1.51.28-.85.55-1.71.82-2.57a193.46 193.46 0 0 0 4.61-17.77c3.45-16.32 5.27-34.32 5.27-52.94 0-21.93-2.52-42.99-7.26-61.46-1.141-4.47-2.42-8.79-3.82-12.93-1.41-4.18-2.95-8.18-4.61-11.97C483.96 217.01 470 204 455 204s-28.96 13.01-39.31 36.64c-.39.88-.77 1.78-1.14 2.68-.39.95-.78 1.92-1.16 2.9a162.668 162.668 0 0 0-3.25 9.25c-.1.29-.19.58-.28.88" stroke="#000" stroke-width="4"/></g><path d="M850.394 846.794a3.6 3.6 0 0 1-3.6 3.6H3.6a3.6 3.6 0 0 1-3.6-3.6V3.6A3.6 3.6 0 0 1 3.6 0h843.194a3.6 3.6 0 0 1 3.6 3.6v843.194z" fill="none"/></svg>