<?xml version="1.0" encoding="iso-8859-1"?>
<!-- Generator: Adobe Illustrator 12.0.1, SVG Export Plug-In . SVG Version: 6.00 Build 51448)  -->
<!DOCTYPE svg PUBLIC "-//W3C//DTD SVG 1.1//EN" "http://www.w3.org/Graphics/SVG/1.1/DTD/svg11.dtd" [
	<!ENTITY ns_svg "http://www.w3.org/2000/svg">
	<!ENTITY ns_xlink "http://www.w3.org/1999/xlink">
]>
<svg  version="1.1" id="Layer_1" xmlns="&ns_svg;" xmlns:xlink="&ns_xlink;" width="850.394" height="850.394"
	 viewBox="0 0 850.394 850.394" style="overflow:visible;enable-background:new 0 0 850.394 850.394;" xml:space="preserve">
<g id="XMLID_8_">
	<g>
		<polygon style="fill:#34A047;" points="748.18,386.4 748.18,520.17 168.56,520.17 168.49,512.01 170,512 		"/>
		<polygon style="fill:#FFFFFF;" points="748.18,278 748.18,386.4 170,512 746,278 		"/>
		<polygon style="fill:#ED1E29;" points="748.18,177.46 748.18,278 746,278 170,512 620,144 620,140.34 748.18,140.34 		"/>
		<polygon style="fill:#FBED24;" points="620,140.34 620,144 170,512 377.81,140.34 		"/>
		<polygon style="fill:#394EA1;" points="377.81,140.34 170,512 168.49,512.01 165.07,140.34 		"/>
		<path style="fill:#C8C8C8;" d="M122,114.77c-10.99-4.89-18.33-13.72-18.33-23.8c0-15.4,17.13-27.88,38.25-27.88
			c21.13,0,38.26,12.48,38.26,27.88c0,9.84-7,18.49-17.57,23.45c-5.96,2.8-13.07,4.43-20.69,4.43
			C134.62,118.85,127.8,117.36,122,114.77z"/>
		<path style="fill:#C8C8C8;" d="M162.61,114.42v670.96h-39.49L122,114.77c5.8,2.59,12.62,4.08,19.92,4.08
			C149.54,118.85,156.65,117.22,162.61,114.42z"/>
	</g>
	<g>
		<polyline style="fill:none;stroke:#231F20;stroke-width:21;" points="165.07,140.34 377.81,140.34 620,140.34 748.18,140.34 
			748.18,177.46 748.18,278 748.18,386.4 748.18,520.17 168.56,520.17 		"/>
		<path style="fill:none;stroke:#231F20;stroke-width:21;" d="M122,114.77c-10.99-4.89-18.33-13.72-18.33-23.8
			c0-15.4,17.13-27.88,38.25-27.88c21.13,0,38.26,12.48,38.26,27.88c0,9.84-7,18.49-17.57,23.45c-5.96,2.8-13.07,4.43-20.69,4.43
			C134.62,118.85,127.8,117.36,122,114.77z"/>
		<polyline style="fill:none;stroke:#231F20;stroke-width:21;" points="122,114 122,114.77 123.12,785.38 		"/>
		<polyline style="fill:none;stroke:#231F20;stroke-width:21;" points="162.61,112.6 162.61,114.42 162.61,785.38 		"/>
		<polyline style="fill:none;stroke:#231F20;stroke-width:14;" points="744.76,179.39 748.18,177.46 750.19,176.32 		"/>
		<polyline style="fill:none;stroke:#231F20;stroke-width:7;" points="170,512 377.81,140.34 378,140 		"/>
		<line style="fill:none;stroke:#231F20;stroke-width:7;" x1="170" y1="512" x2="620" y2="144"/>
		<line style="fill:none;stroke:#231F20;stroke-width:7;" x1="170" y1="512" x2="746" y2="278"/>
		<polyline style="fill:none;stroke:#231F20;stroke-width:7;" points="170,512 748.18,386.4 750,386 		"/>
	</g>
</g>
<rect style="fill:none;" width="850.394" height="850.394"/>
</svg>
