<svg xmlns="http://www.w3.org/2000/svg" width="850.394" height="850.394" viewBox="0 0 850.394 850.394" overflow="visible"><path d="M292.27 107.11c0 2.79-2.5 5.06-5.59 5.06-3.08 0-5.58-2.27-5.58-5.06 0-2.8 2.5-5.06 5.58-5.06 3.09 0 5.59 2.26 5.59 5.06zM234.33 170.45c1.98 6.57 9.64 15.98 17.46 13.26l.85.2c-3.2 13.68-6.94 29.88-11.67 32.24-6.28 3.15-17.8-13.61-17.45-41.17.22-16.92 3.85-29.63 11.14-40.15l.03.02c-7.68 12.91-3.18 26.23-.36 35.6z" fill="#231f20"/><path d="M449.06 546.15l1.77 194.15-1.271 11.38-5.8 9.67-12.8 21.33-34.63-19.31 39.62-20.271L431.39 543c5.811 1.33 11.73 2.04 17.7 2.26l-.03.89z" fill="#797878"/><path d="M498.68 539.25l1.761 200.34-1.261 11.37-18.609 31.01-34.63-19.31 39.619-20.28L481 542.37c5.84-1.16 11.65-2.601 17.37-4.21l.31 1.09z" fill="#797878"/><path d="M453.71 466.02c0-.029-.01-.06-.02-.1.01.04.01.08.02.1zm62.81 16.37c-.399-1.38-21.119-72.39-40.46-101.41-16.329-24.49 32.25-6.44 51.79 30.79 13.17 25.06 19.391 41.46 23.58 65.98 0 0 22.79-30.7 7.44-79.09-15.351-48.39 37.81 75.03 41.88 88.88 4.65 15.81 22.32-68.41 4.65-95.86l.279-.26c38.851 42.92 56.78 92.21 57.42 111.93l.92 10.23c0 12.1-5.119 11.17-20.93 6.52-15.83-4.649-27.92-6.52-61.42-6.979-12.55-.17-31.24 7.26-52.79 15.03l-.72-2.011c-1.391-10.689-17.21-17.67-39.54-25.58-22.33-7.92-66.07-50.72-94.46-77.24-13.26-12.39-26-16.65-35.82-17.68 0 0 46.18-26.21 69.9 11.94 21.59 34.71 24.99 46.439 25.439 48.27-.79-4.43-11.09-61.43-19.97-80.68-8.37-18.15 26.96 19.33 63.14 69.62 15.392 21.4 19.432 27.26 19.672 27.6zM286.68 112.17c3.09 0 5.59-2.27 5.59-5.06 0-2.8-2.5-5.06-5.59-5.06-3.08 0-5.58 2.26-5.58 5.06 0 2.79 2.5 5.06 5.58 5.06zm4.19-10.82c9.77 9.77-2.44 30.71-10.12 46.06l.66 2.1c-3.67 1.15-5.89 1.74-5.89 1.74s-1.42.62-3.51 1.85c.03-.28.18-.82.51-1.65.53-1.36 1.28-2.66 1.85-4.02 1.07-2.58 2.4-5.05 3.16-7.69 1.17-4.07 2.02-8.74 2.18-12.92.3-8.13-7.39-17.5-16.51-17.5l5.69-.99s18.28-10.68 21.98-6.98z" fill="#ef947d"/><path d="M263.2 109.32c9.12 0 16.81 9.37 16.51 17.5-.16 4.18-1.01 8.85-2.18 12.92-.76 2.64-2.09 5.11-3.16 7.69-.57 1.36-1.32 2.66-1.85 4.02-.33.83-.48 1.37-.51 1.65-4.95 2.89-13.68 9.18-16.38 18.74-.95 3.36-1.94 7.58-2.99 12.07l-.85-.2c-7.82 2.72-15.48-6.69-17.46-13.26-2.82-9.37-7.32-22.69.36-35.6l-.03-.02c4.58-6.63 10.62-12.39 18.18-17.78 2.92-2.09 5.46-4.64 7.78-7.48.87-.17 1.73-.25 2.58-.25z" fill="#ffeec8"/><path d="M481 542.37c-10.62 2.09-21.35 3.27-31.91 2.89-5.97-.22-11.89-.93-17.7-2.26-.779-.18-1.56-.37-2.33-.57-22.08-5.699-37.959-16.569-49.109-27.63-11.47-.56-54.44-3.96-90.82-18.78-47.11-19.189-72.94-54.43-72.94-54.43-33.84-40.14-27.99-105.9 12.22-145.17 30.36-29.67 58.97-55.14 82-75.73 23.03-20.59 24.78-35.94 25.13-54.43.35-18.5-12.21-33.16-12.21-33.16l-3.12-.24c-14.16 8.32-30.33 13.99-38.8 16.65l-.66-2.1c7.68-15.35 19.89-36.29 10.12-46.06-3.7-3.7-21.98 6.98-21.98 6.98l-5.69.99c-.85 0-1.71.08-2.58.25 13.17-16.16 18.82-41.58 43.16-42.77 35.56-1.73 48.51 12.91 63.51 54.79 0 0 23.66 61.54-11.86 102.24-33.5 38.39-37.34 40.48-59.67 63.51 0 0-30.71 25.13-46.41 63.86-10.22 25.2-4.19 51.07 23.38 61.89 0 0 24.19 5.11 50.94-40.95 26.75-46.05 74.33-55.84 115.86-54.44 41.52 1.39 107.13 16.06 154.229 61.42 4.17 4.02 8.15 8.13 11.92 12.3l-.279.26c17.67 27.45 0 111.669-4.65 95.86-4.07-13.85-57.23-137.27-41.88-88.88 15.35 48.39-7.44 79.09-7.44 79.09-4.189-24.52-10.41-40.92-23.58-65.98-19.54-37.23-68.119-55.28-51.79-30.79C495.4 410 516.12 481.01 516.52 482.39c-.239-.34-4.279-6.199-19.67-27.6-36.18-50.29-71.51-87.77-63.14-69.62 8.88 19.25 19.18 76.25 19.97 80.68-.449-1.83-3.85-13.56-25.439-48.27-23.72-38.15-69.9-11.94-69.9-11.94 9.82 1.03 22.56 5.29 35.82 17.68 28.39 26.52 72.13 69.32 94.46 77.24 22.33 7.91 38.149 14.891 39.54 25.58l.72 2.011c-9.689 3.489-19.96 7.05-30.51 10.01-5.721 1.609-11.531 3.049-17.371 4.209z" fill="#ffeec8"/><g fill="none" stroke="#231f20"><path d="M251.79 183.71c-7.82 2.72-15.48-6.69-17.46-13.26-2.82-9.37-7.32-22.69.36-35.6" stroke-width="7"/><path d="M323.33 133.1s12.56 14.66 12.21 33.16c-.35 18.49-2.1 33.84-25.13 54.43-23.03 20.59-51.64 46.06-82 75.73-40.21 39.27-46.06 105.03-12.22 145.17 0 0 25.83 35.24 72.94 54.43 36.38 14.82 79.35 18.221 90.82 18.78.49.03.93.05 1.3.061" stroke-width="14"/><path d="M258.77 110.07c.62-.22 1.24-.38 1.85-.5.87-.17 1.73-.25 2.58-.25 9.12 0 16.81 9.37 16.51 17.5-.16 4.18-1.01 8.85-2.18 12.92-.76 2.64-2.09 5.11-3.16 7.69-.57 1.36-1.32 2.66-1.85 4.02-.33.83-.48 1.37-.51 1.65-.03.18-.02.26.02.25M292.27 107.11c0 2.79-2.5 5.06-5.59 5.06-3.08 0-5.58-2.27-5.58-5.06 0-2.8 2.5-5.06 5.58-5.06 3.09 0 5.59 2.26 5.59 5.06z" stroke-width="7"/><path d="M356.94 480.55s5.96 17.351 23.01 34.25c11.15 11.061 27.03 21.931 49.109 27.63.771.2 1.551.391 2.33.57 5.811 1.33 11.73 2.04 17.7 2.26 10.561.38 21.29-.8 31.91-2.89 5.84-1.16 11.65-2.601 17.37-4.21 10.55-2.96 20.82-6.521 30.51-10.01 21.55-7.771 40.24-15.2 52.79-15.03 33.5.46 45.59 2.33 61.42 6.979 15.811 4.65 20.93 5.58 20.93-6.52l-.92-10.23c-.64-19.72-18.569-69.01-57.42-111.93-3.77-4.17-7.75-8.28-11.92-12.3-47.1-45.36-112.71-60.03-154.229-61.42-41.53-1.4-89.11 8.39-115.86 54.44-26.75 46.06-50.94 40.95-50.94 40.95-27.57-10.82-33.6-36.69-23.38-61.89 15.7-38.73 46.41-63.86 46.41-63.86 22.33-23.03 26.17-25.12 59.67-63.51 35.52-40.7 11.86-102.24 11.86-102.24-15-41.88-27.95-56.52-63.51-54.79-24.34 1.19-29.99 26.61-43.16 42.77-2.32 2.84-4.86 5.39-7.78 7.48-7.56 5.39-13.6 11.15-18.18 17.78-7.29 10.52-10.92 23.23-11.14 40.15-.35 27.56 11.17 44.32 17.45 41.17 4.73-2.36 8.47-18.56 11.67-32.24 1.05-4.49 2.04-8.71 2.99-12.07 2.7-9.56 11.43-15.85 16.38-18.74 2.09-1.23 3.51-1.85 3.51-1.85s2.22-.59 5.89-1.74c8.47-2.66 24.64-8.33 38.8-16.65 4.21-2.48 8.24-5.19 11.84-8.13" stroke-width="14"/><path d="M339.73 407.5s7.4-3.04 18.61-1.86c9.82 1.03 22.56 5.29 35.82 17.68 28.39 26.52 72.13 69.32 94.46 77.24 22.33 7.91 38.149 14.891 39.54 25.58" stroke-width="14"/><path d="M453.68 465.85c-.79-4.43-11.09-61.43-19.97-80.68-8.37-18.15 26.96 19.33 63.14 69.62 15.391 21.4 19.431 27.26 19.681 27.62 0 0 0-.01-.011-.021-.399-1.38-21.119-72.39-40.46-101.41-16.329-24.49 32.25-6.44 51.79 30.79 13.17 25.06 19.391 41.46 23.58 65.98 0 0 22.79-30.7 7.44-79.09-15.351-48.39 37.81 75.03 41.88 88.88 4.65 15.81 22.32-68.41 4.65-95.86" stroke-width="14"/><path d="M358.34 405.64s46.18-26.21 69.9 11.94c21.59 34.71 24.99 46.439 25.45 48.34 0-.02 0-.04 0 0 .01.04.01.08.02.1.01.07.021.101 0 0 0-.029-.01-.06-.02-.1" stroke-width="14"/><path stroke-width="7" d="M449.06 546.15l1.77 194.15-1.27 11.38-5.8 9.67-12.8 21.33-34.63-19.31 39.62-20.27-4.56-200.1v-.09"/><path stroke-width="7" d="M498.68 539.25l1.76 200.34-1.26 11.37-18.61 31.01-34.63-19.31 39.62-20.28L481 542.37v-.18M268.89 108.33s18.28-10.68 21.98-6.98c9.77 9.77-2.44 30.71-10.12 46.06"/></g><path fill="none" d="M0 0h850.394v850.394H0z"/></svg>