<?xml version="1.0" encoding="iso-8859-1"?>
<!-- Generator: Adobe Illustrator 12.0.1, SVG Export Plug-In . SVG Version: 6.00 Build 51448)  -->
<!DOCTYPE svg PUBLIC "-//W3C//DTD SVG 1.1//EN" "http://www.w3.org/Graphics/SVG/1.1/DTD/svg11.dtd" [
	<!ENTITY ns_svg "http://www.w3.org/2000/svg">
	<!ENTITY ns_xlink "http://www.w3.org/1999/xlink">
]>
<svg  version="1.1" id="Layer_1" xmlns="&ns_svg;" xmlns:xlink="&ns_xlink;" width="850.394" height="850.394"
	 viewBox="0 0 850.394 850.394" style="overflow:visible;enable-background:new 0 0 850.394 850.394;" xml:space="preserve">
<path style="fill:none;stroke:#EC008C;stroke-width:6.3737;" d="M315.188,159.496"/>
<path style="fill:none;stroke:#231F20;stroke-width:19.1212;" d="M342.656,244.188"/>
<path style="fill:none;stroke:#231F20;stroke-width:12.7474;" d="M390.892,326.221"/>
<path style="fill:#FFFFFF;stroke:#FFFFFF;stroke-width:19.1212;" d="M640.855,163.321c0,7.659-6.206,13.871-13.874,13.871
	c-7.656,0-13.868-6.212-13.868-13.871c0-7.662,6.212-13.874,13.868-13.874C634.649,149.447,640.855,155.659,640.855,163.321z"/>
<g>
	<g>
		<path style="fill:#231F20;" d="M618.416,163.588c0,1.892-1.531,3.423-3.417,3.423c-1.892,0-3.43-1.531-3.43-3.423
			c0-1.889,1.538-3.411,3.43-3.411C616.885,160.177,618.416,161.699,618.416,163.588z"/>
		<path style="fill:#231F20;" d="M610.966,163.974c0,1.893-1.537,3.423-3.43,3.423c-1.88,0-3.417-1.531-3.417-3.423
			c0-1.886,1.537-3.42,3.417-3.42C609.429,160.554,610.966,162.088,610.966,163.974z"/>
		<path style="fill:#231F20;" d="M650.366,163.203c0,1.892-1.525,3.423-3.424,3.423c-1.88,0-3.417-1.531-3.417-3.423
			c0-1.886,1.537-3.417,3.417-3.417C648.841,159.785,650.366,161.316,650.366,163.203z"/>
		<path style="fill:#231F20;" d="M626.515,163.203c0,1.892-1.525,3.423-3.418,3.423c-1.886,0-3.417-1.531-3.417-3.423
			c0-1.886,1.531-3.417,3.417-3.417C624.989,159.785,626.515,161.316,626.515,163.203z"/>
		<path style="fill:#231F20;" d="M634.618,163.203c0,1.892-1.537,3.423-3.417,3.423c-1.898,0-3.43-1.531-3.43-3.423
			c0-1.886,1.531-3.417,3.43-3.417C633.081,159.785,634.618,161.316,634.618,163.203z"/>
		<path style="fill:#231F20;" d="M642.212,163.203c0,1.892-1.524,3.423-3.43,3.423c-1.88,0-3.417-1.531-3.417-3.423
			c0-1.886,1.537-3.417,3.417-3.417C640.688,159.785,642.212,161.316,642.212,163.203z"/>
	</g>
	<g>
		<path style="fill:#231F20;" d="M622.07,155.546c0,1.889-1.531,3.42-3.417,3.42c-1.893,0-3.43-1.531-3.43-3.42
			s1.537-3.414,3.43-3.414C620.539,152.132,622.07,153.657,622.07,155.546z"/>
		<path style="fill:#231F20;" d="M614.619,155.936c0,1.886-1.537,3.42-3.43,3.42c-1.879,0-3.417-1.535-3.417-3.42
			c0-1.892,1.538-3.423,3.417-3.423C613.082,152.512,614.619,154.043,614.619,155.936z"/>
		<path style="fill:#231F20;" d="M630.168,155.161c0,1.892-1.525,3.423-3.417,3.423c-1.886,0-3.417-1.531-3.417-3.423
			c0-1.886,1.531-3.414,3.417-3.414C628.643,151.747,630.168,153.274,630.168,155.161z"/>
		<path style="fill:#231F20;" d="M638.272,155.161c0,1.892-1.538,3.423-3.418,3.423c-1.892,0-3.43-1.531-3.43-3.423
			c0-1.886,1.538-3.414,3.43-3.414C636.734,151.747,638.272,153.274,638.272,155.161z"/>
		<path style="fill:#231F20;" d="M645.865,155.161c0,1.892-1.524,3.423-3.423,3.423c-1.88,0-3.417-1.531-3.417-3.423
			c0-1.886,1.537-3.414,3.417-3.414C644.341,151.747,645.865,153.274,645.865,155.161z"/>
	</g>
	<g>
		<path style="fill:#231F20;" d="M622.331,171.689c0,1.892-1.524,3.426-3.41,3.426c-1.887,0-3.424-1.534-3.424-3.426
			c0-1.889,1.537-3.417,3.424-3.417C620.807,168.272,622.331,169.8,622.331,171.689z"/>
		<path style="fill:#231F20;" d="M614.881,172.075c0,1.892-1.531,3.42-3.417,3.42c-1.893,0-3.424-1.528-3.424-3.42
			c0-1.886,1.531-3.42,3.424-3.42C613.35,168.655,614.881,170.189,614.881,172.075z"/>
		<path style="fill:#231F20;" d="M630.436,171.303c0,1.893-1.525,3.424-3.417,3.424c-1.886,0-3.417-1.531-3.417-3.424
			c0-1.886,1.531-3.42,3.417-3.42C628.91,167.883,630.436,169.417,630.436,171.303z"/>
		<path style="fill:#231F20;" d="M638.546,171.303c0,1.893-1.537,3.424-3.424,3.424c-1.892,0-3.423-1.531-3.423-3.424
			c0-1.886,1.531-3.42,3.423-3.42C637.009,167.883,638.546,169.417,638.546,171.303z"/>
		<path style="fill:#231F20;" d="M646.134,171.303c0,1.893-1.538,3.424-3.418,3.424c-1.898,0-3.423-1.531-3.423-3.424
			c0-1.886,1.524-3.42,3.423-3.42C644.596,167.883,646.134,169.417,646.134,171.303z"/>
	</g>
	<path style="fill:#231F20;" d="M626.228,179.787c0,1.892-1.524,3.427-3.41,3.427c-1.898,0-3.43-1.535-3.43-3.427
		c0-1.886,1.531-3.414,3.43-3.414C624.703,176.373,626.228,177.901,626.228,179.787z"/>
	<path style="fill:#231F20;" d="M618.777,180.173c0,1.892-1.531,3.423-3.43,3.423c-1.873,0-3.411-1.531-3.411-3.423
		c0-1.883,1.538-3.417,3.411-3.417C617.246,176.756,618.777,178.29,618.777,180.173z"/>
	<path style="fill:#231F20;" d="M634.332,179.404c0,1.893-1.531,3.42-3.424,3.42c-1.886,0-3.417-1.528-3.417-3.42
		c0-1.886,1.531-3.42,3.417-3.42C632.801,175.984,634.332,177.519,634.332,179.404z"/>
	<path style="fill:#231F20;" d="M642.43,179.404c0,1.893-1.524,3.42-3.417,3.42s-3.43-1.528-3.43-3.42c0-1.886,1.537-3.42,3.43-3.42
		S642.43,177.519,642.43,179.404z"/>
	<g>
		<path style="fill:#231F20;" d="M626.545,147.76c0,1.889-1.537,3.42-3.423,3.42c-1.893,0-3.424-1.531-3.424-3.42
			c0-1.886,1.531-3.417,3.424-3.417C625.008,144.343,626.545,145.874,626.545,147.76z"/>
		<path style="fill:#231F20;" d="M619.082,148.146c0,1.889-1.524,3.42-3.417,3.42c-1.886,0-3.417-1.531-3.417-3.42
			c0-1.889,1.531-3.417,3.417-3.417C617.558,144.729,619.082,146.257,619.082,148.146z"/>
		<path style="fill:#231F20;" d="M634.644,147.377c0,1.893-1.531,3.42-3.424,3.42c-1.88,0-3.417-1.528-3.417-3.42
			c0-1.889,1.537-3.42,3.417-3.42C633.112,143.957,634.644,145.488,634.644,147.377z"/>
		<path style="fill:#231F20;" d="M642.741,147.377c0,1.893-1.531,3.42-3.424,3.42c-1.886,0-3.417-1.528-3.417-3.42
			c0-1.889,1.531-3.42,3.417-3.42C641.21,143.957,642.741,145.488,642.741,147.377z"/>
	</g>
</g>
<g>
	<path style="fill:none;stroke:#231F20;stroke-width:7;" d="M644.029,321.982c-6.336,2.116-17.503,13.108-25.619,24.132"/>
</g>
<g>
	<path style="fill:none;stroke:#231F20;stroke-width:6.3863;" d="M297.289,163.653"/>
	<path style="fill:#FFFFFF;" d="M309.483,162.164c0,0.807-0.598,1.458-1.332,1.458c-0.741,0-1.338-0.651-1.338-1.458
		c0-0.802,0.597-1.451,1.338-1.451C308.885,160.713,309.483,161.362,309.483,162.164z"/>
	<path style="fill:none;stroke:#EC008C;stroke-width:6.3863;" d="M299.026,166.062"/>
	<path style="fill:none;stroke:#231F20;stroke-width:3.1931;stroke-linecap:square;stroke-miterlimit:10;" d="M354.433,158.665
		c-0.378,0.755-0.139,0.673-0.139,1.565c0,3.224,2.737,5.84,6.114,5.84c3.376,0,6.113-2.616,6.113-5.84
		c0-1.208,0.116-1.519-0.542-2.451"/>
	<path style="fill:none;stroke:#EC008C;stroke-width:6.3863;" d="M369.586,164.349"/>
	<g id="XMLID_3_">
		<g>
			<path style="fill:#FFFFFF;" d="M372.24,161.6l-0.13,0.12c-2.41,2.23-5.2,4.22-8.41,5.36c-1.94,0.7-4.62,0.82-6.66,0.4
				c-0.85-0.18-1.92-0.39-2.72-0.76c-0.67-0.31-1.24-1.03-1.86-1.32c-0.94-0.44-1.99-0.05-2.86-0.59c-1.02-0.64-0.25-1.36,0.34-2.39
				c2.05-3.65,6.47-6.17,10.73-6.27C365.24,156.05,369.18,158.37,372.24,161.6z M364.19,160.45c0-1.81-1.67-3.27-3.72-3.27
				c-2.06,0-3.73,1.46-3.73,3.27c0,1.81,1.67,3.28,3.73,3.28C362.52,163.73,364.19,162.26,364.19,160.45z"/>
			<path style="fill:#58B947;" d="M725.85,281.99c6.65,2.56,11.511,5.41,13.48,5.81c-9.53,5.93-10.85,17.04-17.15,25.58
				c-5.04,6.84-13.319,11.41-21.46,13.67c-9.58,2.64-24.68,2.68-34.63,2.33c-7.57-0.26-18.38-1.07-21.39-6.1
				c-0.25-0.42-0.48-0.86-0.67-1.3l67.649-31.96c-0.85,0.07-1.699,0.16-2.529,0.28c-26.24,3.76-36.87,11.67-45.49,17.18
				c-9.48,6.06-3.19,2.24-15.62,11.55c-1.521,1.15-2.85,2.12-4.01,2.95c-1.511-3.48-1.15-7.72,1.489-13.01
				c2.82-5.65,3.45-8.23,11.54-20.06c7.301-10.68,18.9-17.82,28.521-18.82C706.17,267.94,722.71,280.78,725.85,281.99z"/>
			<path style="fill:#58B947;" d="M711.68,290.02l-67.649,31.96c1.16-0.83,2.489-1.8,4.01-2.95c12.43-9.31,6.14-5.49,15.62-11.55
				c8.62-5.51,19.25-13.42,45.49-17.18C709.98,290.18,710.83,290.09,711.68,290.02z"/>
			<path style="fill:#FBED24;" d="M691.7,174.68c-3.99,0.45-8.28,0.69-12.75,0.69c-15.65,0-29.09-2.98-34.83-7.23
				c-1.91-1.42-2.97-2.98-2.97-4.61c0-3.66,5.31-6.94,13.649-9.1c6.55-1.71,14.98-2.74,24.15-2.74c4.46,0,8.75,0.24,12.729,0.69
				c14.61,1.64,25.07,6.01,25.07,11.15C716.75,168.67,706.3,173.04,691.7,174.68z"/>
			<path style="fill:#FBED24;" d="M691.7,174.68c0.95,0.81,14.84,13.01,18.08,28.39c0,0-13.811,3.92-30.21-2.4
				c-2.25-2.75-4.78-5.53-7.54-8.29c-11.971-11.98-24.57-19.65-31.37-19.65l3.46-4.59c5.74,4.25,19.18,7.23,34.83,7.23
				C683.42,175.37,687.71,175.13,691.7,174.68z"/>
			<path style="fill:#FBED24;" d="M709.71,124.02c-3.19,15.19-16.76,27.26-18.03,28.36c-3.979-0.45-8.27-0.69-12.729-0.69
				c-9.17,0-17.601,1.03-24.15,2.74l-1.21-4.49c5.75-3.43,12.29-8.58,18.65-14.94c2.95-2.94,5.63-5.93,8-8.85
				C696.33,120.22,709.71,124.02,709.71,124.02z"/>
			<path style="fill:#FBED24;" d="M664.15,110.43c11.81-9.65,22.72-14.25,26.439-10.52c3.71,3.7-0.82,14.51-10.35,26.24
				c-2.37,2.92-5.05,5.91-8,8.85c-6.36,6.36-12.9,11.51-18.65,14.94c-7.6,4.53-13.82,6.05-16.45,3.42
				c-1.93-1.93-1.63-5.79,0.46-10.7c2.91-6.87,9.29-15.8,17.9-24.4C658.38,115.38,661.29,112.76,664.15,110.43z"/>
			<path style="fill:#FBED24;" d="M679.57,200.67c9.85,11.95,14.58,23.04,10.819,26.81c-3.75,3.75-14.79-0.95-26.699-10.72
				c-2.78-2.28-5.61-4.84-8.4-7.63c-8.6-8.61-14.99-17.54-17.89-24.41c-2.091-4.91-2.391-8.77-0.46-10.7
				c0.869-0.87,2.14-1.29,3.72-1.29c6.8,0,19.399,7.67,31.37,19.65C674.79,195.14,677.32,197.92,679.57,200.67z"/>
			<path style="fill:#FBED24;" d="M666.47,80.47c0,0,3.88,13.66-2.319,29.96c-2.86,2.33-5.771,4.95-8.65,7.83
				c-8.61,8.6-14.99,17.53-17.9,24.4l-3.689-0.37c2.89-6.89,4.75-17.89,4.75-30.28c0-4.72-0.271-9.24-0.771-13.4l0.141-0.02
				C638.03,98.59,650.53,83.82,666.47,80.47z"/>
			<path style="fill:#FBED24;" d="M663.69,216.76c5.729,15.89,1.989,29.06,1.989,29.06c-14.39-3.03-25.979-15.36-28.109-17.73
				c0.489-4.11,0.75-8.56,0.75-13.21c0-12.07-1.771-22.82-4.53-29.74l3.61-0.42c2.899,6.87,9.29,15.8,17.89,24.41
				C658.08,211.92,660.91,214.48,663.69,216.76z"/>
			<path style="fill:#9C5C25;" d="M653.59,149.94l1.21,4.49c-8.34,2.16-13.649,5.44-13.649,9.1c0,1.63,1.06,3.19,2.97,4.61
				l-3.46,4.59c-1.58,0-2.851,0.42-3.72,1.29c-1.931,1.93-1.631,5.79,0.46,10.7l-3.61,0.42c-2.01-5.05-4.55-8.06-7.31-8.06
				c-2.761,0-5.301,3.01-7.311,8.06l-3.979-0.87c2.43-5.35,2.899-9.56,0.85-11.61c-2.39-2.39-7.771-1.34-14.45,2.28l-0.859-2.89
				c7.55-2.16,12.289-5.27,12.289-8.73c0-3.27-4.229-6.23-11.069-8.37l5.02-1.3c4.48,1.75,7.99,1.91,9.8,0.1
				c1.931-1.93,1.631-5.79-0.46-10.7l3.44-0.76c1.97,4.72,4.42,7.51,7.08,7.51s5.11-2.79,7.08-7.51l3.689,0.37
				c-2.09,4.91-2.39,8.77-0.46,10.7C639.77,155.99,645.99,154.47,653.59,149.94z"/>
			<path style="fill:#FBED24;" d="M615.77,98.56c0-0.01,0-0.01,0-0.01c1.69-14.23,6.011-24.34,11.061-24.34
				c5.06,0,9.37,10.13,11.06,24.4c0.5,4.16,0.771,8.68,0.771,13.4c0,12.39-1.86,23.39-4.75,30.28c-1.97,4.72-4.42,7.51-7.08,7.51
				s-5.11-2.79-7.08-7.51c-2.89-6.89-4.76-17.89-4.76-30.28C614.99,107.27,615.26,102.74,615.77,98.56z"/>
			<path style="fill:#FBED24;" d="M637.57,228.09c-1.67,14.36-6.011,24.58-11.09,24.58c-5.131,0-9.49-10.4-11.141-24.95
				c-0.45-4.01-0.7-8.33-0.7-12.84c0-12.07,1.771-22.82,4.53-29.74c2.01-5.05,4.55-8.06,7.311-8.06c2.76,0,5.3,3.01,7.31,8.06
				c2.76,6.92,4.53,17.67,4.53,29.74C638.32,219.53,638.06,223.98,637.57,228.09z"/>
			<path style="fill:#FBED24;" d="M619.75,142.29l-3.44,0.76c-2.899-6.87-9.29-15.8-17.89-24.4c-2.86-2.86-5.76-5.48-8.6-7.8
				l0.029-0.04c-6.369-16.44-2.439-30.29-2.439-30.29c15.16,3.2,27.21,16.71,28.359,18.03c0,0,0,0,0,0.01
				c-0.51,4.18-0.779,8.71-0.779,13.45C614.99,124.4,616.86,135.4,619.75,142.29z"/>
			<path style="fill:#FBED24;" d="M615.19,184.27l3.979,0.87c-2.76,6.92-4.53,17.67-4.53,29.74c0,4.51,0.25,8.83,0.7,12.84
				l-0.28,0.03c0,0-12.5,14.77-28.439,18.13c0,0-3.92-13.85,2.439-30.28l-0.01-0.01c2.851-2.33,5.771-4.96,8.641-7.83
				C605.92,199.53,612.12,191,615.19,184.27z"/>
			<path style="fill:#FBED24;" d="M616.31,143.05c2.091,4.91,2.391,8.77,0.46,10.7c-1.81,1.81-5.319,1.65-9.8-0.1
				c-6.979-2.71-16.31-9.27-25.3-18.26c-3.17-3.17-6.03-6.38-8.54-9.52c-9.149-11.47-13.45-21.94-9.81-25.57
				c3.729-3.73,14.67,0.88,26.5,10.55c2.84,2.32,5.739,4.94,8.6,7.8C607.02,127.25,613.41,136.18,616.31,143.05z"/>
			<path style="fill:#FBED24;" d="M572.48,200.45c2.479-3.11,5.329-6.3,8.47-9.44c7.109-7.11,14.439-12.7,20.64-16.07
				c6.68-3.62,12.061-4.67,14.45-2.28c2.05,2.05,1.58,6.26-0.85,11.61c-3.07,6.73-9.271,15.26-17.5,23.49
				c-2.87,2.87-5.79,5.5-8.641,7.83c-11.819,9.64-22.74,14.25-26.46,10.52C558.95,222.47,563.27,211.96,572.48,200.45z"/>
			<path style="fill:#FBED24;" d="M606.97,153.65l-5.02,1.3c-6.84-2.15-16.29-3.47-26.72-3.47c-5.16,0-10.08,0.32-14.561,0.91
				l-0.03-0.26c0,0-14.77-12.5-18.13-28.44c0,0,13.851-3.92,30.29,2.44l0.33-0.26c2.51,3.14,5.37,6.35,8.54,9.52
				C590.66,144.38,599.99,150.94,606.97,153.65z"/>
			<path style="fill:#58B947;" d="M601.69,302.53c1.689,13.56,1.1,16.02,1.029,22.06c-0.069,5.64-1.6,9.38-4.41,11.68
				c-0.63-1.22-1.329-2.61-2.13-4.26c-6.47-13.32-2.81-7.34-8.21-16.62c-4.899-8.43-10.47-19.79-31.08-34.42
				c-0.659-0.46-1.34-0.91-2.029-1.35l43.449,56.65c-0.359,0.29-0.739,0.56-1.14,0.81c-4.76,2.94-14.28-1.08-20.82-4.17
				c-8.58-4.03-21.38-10.66-28.359-17.09c-5.91-5.46-10.94-12.95-12.23-20.96c-1.62-9.99,2.101-19.99-3.39-29.18
				c1.85,0.52,7.21,0.22,13.97,0.95c3.19,0.35,22.83-3.33,39.37,7.48C593.43,279.16,600.14,290.27,601.69,302.53z"/>
			<path style="fill:#FBED24;" d="M601.95,154.95c6.84,2.14,11.069,5.1,11.069,8.37c0,3.46-4.739,6.57-12.289,8.73
				c-6.721,1.94-15.681,3.11-25.5,3.11c-5.15,0-10.051-0.32-14.521-0.91c-13.68-1.78-23.29-6-23.29-10.93
				c0-4.92,9.6-9.14,23.25-10.93c4.48-0.59,9.4-0.91,14.561-0.91C585.66,151.48,595.11,152.8,601.95,154.95z"/>
			<path style="fill:#FBED24;" d="M600.73,172.05l0.859,2.89c-6.2,3.37-13.53,8.96-20.64,16.07c-3.141,3.14-5.99,6.33-8.47,9.44
				c-16.271,6.17-29.91,2.3-29.91,2.3c3.359-15.94,18.13-28.44,18.13-28.44l0.01-0.06c4.47,0.59,9.37,0.91,14.521,0.91
				C585.05,175.16,594.01,173.99,600.73,172.05z"/>
			<path style="fill:#58B947;" d="M598.31,336.27l-43.449-56.65c0.689,0.44,1.37,0.89,2.029,1.35
				c20.61,14.63,26.181,25.99,31.08,34.42c5.4,9.28,1.74,3.3,8.21,16.62C596.98,333.66,597.68,335.05,598.31,336.27z"/>
			<path style="fill:#FFF5B4;" d="M562.2,555.98c9.3,29.649,11.06,66.18,7.81,77.75c-1.899,6.85-10.76,16.52-19.12,15.529
				c-9.239-1-11.359-22.779-15.819-29.72c-6.99,1.46-3.41,11.65-8.57,11.65c-4.48-4.46-5.98-16.771-5.98-29.65
				c0-12.35,1.381-25.22,2.851-32.21L528,570L562.2,555.98z"/>
			<path style="fill:#FFEEC8;" d="M562.2,555.98L528,570l-4.63-0.67c0.33-1.61,0.68-2.91,1.01-3.82l-70.18-153.6l57.71-24.35
				l1.37-0.3c6.33,16.78,11.87,33.28,15.38,47.48C538.33,473.9,562.2,555.98,562.2,555.98z"/>
			<path style="fill:#ABD150;" d="M513.28,387.26l-1.37,0.3l-57.71,24.35l-2.92-6.39l7.479,95.57l26.36,173.71l-27.101-0.28
				l-95.97-0.989l-15.94-0.16l0.04-4.11V369.8l49.68-66.57l-12.26-28.2l38.97,13.62l-20.5-49.52c4.43,2.49,9.36,5.34,14.53,8.42
				c18.39,10.96,39.74,24.88,51.57,36.71C468.14,284.26,494.28,336.96,513.28,387.26z"/>
			<path style="fill:#797878;" d="M458.02,674.52L458,676c-0.7,26.6-0.53,89.83-1.55,105.75h-91.69L362,678l0.05-4.47L458.02,674.52
				z"/>
			<path style="fill:#9C5C25;" d="M291.35,150.74c-1.88,4.21-2.86,8.83-2.75,13.35c0.22,8.94,3.19,12.15,3.19,25.61
				c0,6.76,3.06,13.99,6.65,20.19l-25.52,13.43c4.66-9.33,3.04-20.85,3.04-20.85c-0.18-17.73-2.34-37.07-2.65-41.26
				c-1.25-17.38,5.21-43.78,14.58-59.03c15.77-25.7,41.47-36.77,81.07-32.16c29.4,3.43,56.28,35.6,56.28,76.37
				c0,14.28-6.34,30.07,0.8,44.32l-28.96,17.82c1.63-2.26,2.82-4.73,3.2-7.55c0.27-1.89,8.81-32.7-3.74-45.26
				c-13.46-13.46-38.38-39.88-43.33-45.15c-0.57-0.6-0.88-0.93-0.88-0.93c-0.04,0.03-0.08,0.06-0.12,0.09
				c-13.69,9.58-45.68,24.84-51.56,29.16C296.63,141.85,293.43,146.04,291.35,150.74z"/>
			<path style="fill:#ABD150;" d="M402.04,239.13l20.5,49.52l-38.97-13.62l12.26,28.2l-49.68,66.57v-0.46l31.15-137.23l-1.47-0.47
				c1.06-1.26,2.09-2.56,3.12-3.87l3.79,0.82C382.74,228.59,390.72,232.73,402.04,239.13z"/>
			<path style="fill:#FFEEC8;" d="M372.24,161.6c-3.06-3.23-7-5.55-11.57-5.45c-4.26,0.1-8.68,2.62-10.73,6.27
				c-0.59,1.03-1.36,1.75-0.34,2.39c0.87,0.54,1.92,0.15,2.86,0.59c0.62,0.29,1.19,1.01,1.86,1.32c0.8,0.37,1.87,0.58,2.72,0.76
				c2.04,0.42,4.72,0.3,6.66-0.4c3.21-1.14,6-3.13,8.41-5.36L372.24,161.6z M291.35,150.74c2.08-4.7,5.28-8.89,9.3-11.85
				c5.88-4.32,37.87-19.58,51.56-29.16c0.2,0.43,0.53,0.71,1,0.84c4.95,5.27,29.87,31.69,43.33,45.15
				c12.55,12.56,4.01,43.37,3.74,45.26c-0.38,2.82-1.57,5.29-3.2,7.55c-2.45,3.39-5.9,6.29-9.17,9.13
				c-3.32,2.87-6.14,6.51-8.96,10.11c-1.03,1.31-2.06,2.61-3.12,3.87c-4.49,5.36-9.47,9.95-16.85,10.85
				c-10.44,1.28-23.58,5.09-32.55-2.5c-2.68-2.28-5.68-4.46-8.6-6.76c-2.01-1.59-3.98-3.24-5.76-5c-1-1-1.95-2.04-2.81-3.12
				c-1.57-1.97-6.57-7.87-10.82-15.22c-3.59-6.2-6.65-13.43-6.65-20.19c0-13.46-2.97-16.67-3.19-25.61
				C288.49,159.57,289.47,154.95,291.35,150.74z M296.38,163.31l0.13,0.12c2.41,2.23,5.19,4.22,8.4,5.37
				c1.95,0.69,4.63,0.81,6.66,0.39c0.86-0.18,1.92-0.39,2.72-0.76c0.67-0.3,1.24-1.03,1.87-1.32c0.93-0.43,1.99-0.05,2.86-0.59
				c1.02-0.63,0.25-1.35-0.34-2.39c-0.97-1.72-2.45-3.18-4.19-4.25c-1.98-1.23-4.28-1.97-6.54-2.02c-1.96-0.04-3.81,0.36-5.52,1.09
				C300.16,159.92,298.12,161.47,296.38,163.31z M357.49,205.55c-3.56,0.36-16.93-2.72-18.86,2.11c-1.19,0.51-3.14-0.77-4.48-1.08
				c-2.5-0.58-5.4-0.03-7.84,0.68c-3.9,1.13-4.1,2.67-2.87,4.29c1.27,1.68,4.08,3.45,5.88,4.94c4.86,4.02,11.19,4.53,17.09,1.92
				c4.36-1.92,6.92-6.14,9.37-10.14C356.35,207.34,356.91,206.42,357.49,205.55z"/>
			<path style="fill:#FFFFFF;" d="M346.15,369.34L346,370l-28.17-136.77c2.92,2.3,5.92,4.48,8.6,6.76
				c8.97,7.59,22.11,3.78,32.55,2.5c7.38-0.9,12.36-5.49,16.85-10.85l1.47,0.47L346.15,369.34z"/>
			<path style="fill:#231F20;" d="M360.47,157.18c2.05,0,3.72,1.46,3.72,3.27c0,1.81-1.67,3.28-3.72,3.28
				c-2.06,0-3.73-1.47-3.73-3.28C356.74,158.64,358.41,157.18,360.47,157.18z M361.8,160.45c0-0.8-0.59-1.45-1.33-1.45
				c-0.74,0-1.34,0.65-1.34,1.45c0,0.81,0.6,1.46,1.34,1.46C361.21,161.91,361.8,161.26,361.8,160.45z"/>
			<path style="fill:#231F20;" d="M360.47,159c0.74,0,1.33,0.65,1.33,1.45c0,0.81-0.59,1.46-1.33,1.46c-0.74,0-1.34-0.65-1.34-1.46
				C359.13,159.65,359.73,159,360.47,159z"/>
			<path style="fill:#EF947D;" d="M338.63,207.66c1.93-4.83,15.3-1.75,18.86-2.11c-0.58,0.87-1.14,1.79-1.71,2.72
				c-6.83,3.09-10.78,3.12-15.62,3.51c-4.8,0.37-11.92,1.18-16.72-0.23c-1.23-1.62-1.03-3.16,2.87-4.29
				c2.44-0.71,5.34-1.26,7.84-0.68C335.49,206.89,337.44,208.17,338.63,207.66z"/>
			<path style="fill:#EF947D;" d="M355.78,208.27c-2.45,4-5.01,8.22-9.37,10.14c-5.9,2.61-12.23,2.1-17.09-1.92
				c-1.8-1.49-4.61-3.26-5.88-4.94c4.8,1.41,11.92,0.6,16.72,0.23C345,211.39,348.95,211.36,355.78,208.27z"/>
			<path style="fill:#ABD150;" d="M240.93,404.69l-0.98-0.04l-59.35-22.11l-1.03-0.39c18.82-48.98,43.51-98.76,43.51-98.76
				c11.83-11.83,33.06-24.67,51.33-34.56c6.88-3.72,13.34-7.03,18.72-9.7l0.1,0.19l-20.71,50.07l38.97-13.62l-12.27,28.2L346,370
				l0.15-0.2v299.46l-0.04,4.11l-14.08-0.14l-94.01-0.971L212.79,672l24.07-170.17L240.93,404.69z"/>
			<polygon style="fill:#ABD150;" points="346.15,369.34 346.15,369.8 346,370 			"/>
			<path style="fill:#ABD150;" d="M317.83,233.23L346,370l-46.78-66.03l12.27-28.2l-38.97,13.62l20.71-50.07l-0.1-0.19
				C302.04,234.7,308,232,308,232l4.07-3.77C313.85,229.99,315.82,231.64,317.83,233.23z"/>
			<path style="fill:#797878;" d="M332.03,673.23L332,676l-2.43,105.75l-90.96,0.67c-1.17-18.189,0.21-78.31-0.61-108.42l0.02-1.74
				L332.03,673.23z"/>
			<path style="fill:#FFFFFF;" d="M318.68,164.13c0.59,1.04,1.36,1.76,0.34,2.39c-0.87,0.54-1.93,0.16-2.86,0.59
				c-0.63,0.29-1.2,1.02-1.87,1.32c-0.8,0.37-1.86,0.58-2.72,0.76c-2.03,0.42-4.71,0.3-6.66-0.39c-3.21-1.15-5.99-3.14-8.4-5.37
				l-0.13-0.12c1.74-1.84,3.78-3.39,6.05-4.36l0.21,0.54c-0.66,0.93-0.55,1.24-0.55,2.45c0,3.23,2.74,5.84,6.12,5.84
				s6.11-2.61,6.11-5.84c0-0.89,0.24-0.81-0.14-1.56l0.31-0.5C316.23,160.95,317.71,162.41,318.68,164.13z"/>
			<path style="fill:#FFFFFF;" d="M307.95,157.86c2.26,0.05,4.56,0.79,6.54,2.02l-0.31,0.5c0.38,0.75,0.14,0.67,0.14,1.56
				c0,3.23-2.73,5.84-6.11,5.84s-6.12-2.61-6.12-5.84c0-1.21-0.11-1.52,0.55-2.45l-0.21-0.54
				C304.14,158.22,305.99,157.82,307.95,157.86z M311.87,162.16c0-1.8-1.66-3.27-3.72-3.27s-3.72,1.47-3.72,3.27
				c0,1.82,1.66,3.28,3.72,3.28S311.87,163.98,311.87,162.16z"/>
			<path style="fill:#231F20;" d="M308.15,158.89c2.06,0,3.72,1.47,3.72,3.27c0,1.82-1.66,3.28-3.72,3.28s-3.72-1.46-3.72-3.28
				C304.43,160.36,306.09,158.89,308.15,158.89z"/>
			<path style="fill:#FFEEC8;" d="M239.95,404.65l-71.14,155.72L168,560l-34-10l-3.39-0.44c5.51-19.069,23.78-82.659,31.96-115.699
				c3.81-15.39,10-33.5,17-51.71l1.03,0.39L239.95,404.65z"/>
			<path style="fill:#FFF5B4;" d="M168.81,560.37l-1.95,4.26c1.76,4.84,3.85,20.82,3.85,36.01c0,12.891-1.5,25.21-5.98,29.681
				c-5.14,0-1.58-10.221-8.59-11.641c-4.45,6.931-6.57,28.7-15.82,29.721c-8.33,0.989-17.19-8.71-19.11-15.521
				c-3.25-11.6-1.5-48.12,7.8-77.79c0,0,0.58-2,1.6-5.53L134,550l34,10L168.81,560.37z"/>
		</g>
		<g>
			<path style="fill:none;stroke:#231F20;stroke-width:14;" d="M129.01,555.09c0,0,0.58-2,1.6-5.53
				c5.51-19.069,23.78-82.659,31.96-115.699c3.81-15.39,10-33.5,17-51.71c18.82-48.98,43.51-98.76,43.51-98.76
				c11.83-11.83,33.06-24.67,51.33-34.56c6.88-3.72,13.34-7.03,18.72-9.7C302.04,234.7,308,232,308,232"/>
			<path style="fill:none;stroke:#231F20;stroke-width:14;" d="M239.95,404.65l-71.14,155.72l-1.95,4.26
				c1.76,4.84,3.85,20.82,3.85,36.01c0,12.891-1.5,25.21-5.98,29.681c-5.14,0-1.58-10.221-8.59-11.641
				c-4.45,6.931-6.57,28.7-15.82,29.721c-8.33,0.989-17.19-8.71-19.11-15.521c-3.25-11.6-1.5-48.12,7.8-77.79"/>
			<path style="fill:none;stroke:#231F20;stroke-width:14;" d="M238.61,782.42c-1.17-18.189,0.21-78.31-0.61-108.42"/>
			<path style="fill:none;stroke:#231F20;stroke-width:14;" d="M562.2,555.98c0,0-23.87-82.08-33.54-121.24
				c-3.51-14.2-9.05-30.7-15.38-47.48c-19-50.3-45.141-103-45.141-103c-11.83-11.83-33.18-25.75-51.57-36.71
				c-5.17-3.08-10.1-5.93-14.53-8.42c-11.32-6.4-19.3-10.54-19.3-10.54"/>
			<path style="fill:none;stroke:#231F20;stroke-width:14;" d="M456.45,781.75c1.02-15.92,0.85-79.15,1.55-105.75"/>
			<line style="fill:none;stroke:#231F20;stroke-width:14;" x1="332" y1="676" x2="329.57" y2="781.75"/>
			<line style="fill:none;stroke:#231F20;stroke-width:14;" x1="364.76" y1="781.75" x2="362" y2="678"/>
			<path style="fill:none;stroke:#231F20;stroke-width:14;" d="M241.11,400.32l-0.18,4.37l-4.07,97.14L212.79,672l25.23,0.26
				l94.01,0.971l14.08,0.14l15.94,0.16l95.97,0.989l27.101,0.28l-26.36-173.71l-7.479-95.57l2.92,6.39l70.18,153.6
				c-0.33,0.91-0.68,2.21-1.01,3.82c-1.47,6.99-2.851,19.86-2.851,32.21c0,12.88,1.5,25.19,5.98,29.65c5.16,0,1.58-10.19,8.57-11.65
				c4.46,6.94,6.58,28.72,15.819,29.72c8.36,0.99,17.221-8.68,19.12-15.529c3.25-11.57,1.49-48.101-7.81-77.75"/>
			<polyline style="fill:none;stroke:#231F20;stroke-width:14;" points="346.15,364.85 346.15,369.34 346.15,369.8 346.15,669.26 
							"/>
			<line style="fill:none;stroke:#231F20;stroke-width:14;" x1="134" y1="550" x2="168" y2="560"/>
			<line style="fill:none;stroke:#231F20;stroke-width:19.1212;" x1="562.2" y1="555.98" x2="528" y2="570"/>
			<line style="fill:none;stroke:#231F20;stroke-width:14;" x1="240" y1="508" x2="303.37" y2="474.79"/>
			<line style="fill:none;stroke:#231F20;stroke-width:14;" x1="454" y1="506" x2="392.28" y2="474.01"/>
			<line style="fill:none;stroke:#231F20;stroke-width:14;" x1="180.6" y1="382.54" x2="239.95" y2="404.65"/>
			<polyline style="fill:none;stroke:#231F20;stroke-width:14;" points="511.91,387.56 454.2,411.91 454,412 			"/>
			<polyline style="fill:none;stroke:#231F20;stroke-width:14;" points="317.75,232.85 317.83,233.23 346,370 299.22,303.97 
				311.49,275.77 272.52,289.39 293.23,239.32 			"/>
			<polyline style="fill:none;stroke:#231F20;stroke-width:14;" points="377.3,232.11 346.15,369.34 346,370 346.15,369.8 
				395.83,303.23 383.57,275.03 422.54,288.65 402.04,239.13 401.82,238.59 			"/>
			<path style="fill:none;stroke:#231F20;stroke-width:7;" d="M615.77,98.55c1.69-14.23,6.011-24.34,11.061-24.34
				c5.06,0,9.37,10.13,11.06,24.4c0.5,4.16,0.771,8.68,0.771,13.4c0,12.39-1.86,23.39-4.75,30.28c-1.97,4.72-4.42,7.51-7.08,7.51
				s-5.11-2.79-7.08-7.51c-2.89-6.89-4.76-17.89-4.76-30.28c0-4.74,0.27-9.27,0.779-13.45"/>
			<path style="fill:none;stroke:#231F20;stroke-width:7;" d="M644.12,168.14c5.74,4.25,19.18,7.23,34.83,7.23
				c4.47,0,8.76-0.24,12.75-0.69c14.6-1.64,25.05-6.01,25.05-11.15c0-5.14-10.46-9.51-25.07-11.15
				c-3.979-0.45-8.27-0.69-12.729-0.69c-9.17,0-17.601,1.03-24.15,2.74c-8.34,2.16-13.649,5.44-13.649,9.1
				C641.15,165.16,642.21,166.72,644.12,168.14z"/>
			<path style="fill:none;stroke:#231F20;stroke-width:7;" d="M560.71,174.25c4.47,0.59,9.37,0.91,14.521,0.91
				c9.819,0,18.779-1.17,25.5-3.11c7.55-2.16,12.289-5.27,12.289-8.73c0-3.27-4.229-6.23-11.069-8.37
				c-6.84-2.15-16.29-3.47-26.72-3.47c-5.16,0-10.08,0.32-14.561,0.91c-13.65,1.79-23.25,6.01-23.25,10.93
				C537.42,168.25,547.03,172.47,560.71,174.25z"/>
			<path style="fill:none;stroke:#231F20;stroke-width:7;" d="M653.59,149.94c5.75-3.43,12.29-8.58,18.65-14.94
				c2.95-2.94,5.63-5.93,8-8.85c9.529-11.73,14.06-22.54,10.35-26.24c-3.72-3.73-14.63,0.87-26.439,10.52
				c-2.86,2.33-5.771,4.95-8.65,7.83c-8.61,8.6-14.99,17.53-17.9,24.4c-2.09,4.91-2.39,8.77-0.46,10.7
				C639.77,155.99,645.99,154.47,653.59,149.94z"/>
			<path style="fill:none;stroke:#231F20;stroke-width:7;" d="M573.13,125.87c2.51,3.14,5.37,6.35,8.54,9.52
				c8.99,8.99,18.32,15.55,25.3,18.26c4.48,1.75,7.99,1.91,9.8,0.1c1.931-1.93,1.631-5.79-0.46-10.7
				c-2.899-6.87-9.29-15.8-17.89-24.4c-2.86-2.86-5.76-5.48-8.6-7.8c-11.83-9.67-22.771-14.28-26.5-10.55
				C559.68,103.93,563.98,114.4,573.13,125.87z"/>
			<path style="fill:none;stroke:#231F20;stroke-width:7;" d="M589.05,215.59c2.851-2.33,5.771-4.96,8.641-7.83
				c8.229-8.23,14.43-16.76,17.5-23.49c2.43-5.35,2.899-9.56,0.85-11.61c-2.39-2.39-7.771-1.34-14.45,2.28
				c-6.2,3.37-13.53,8.96-20.64,16.07c-3.141,3.14-5.99,6.33-8.47,9.44c-9.211,11.51-13.53,22.02-9.891,25.66
				C566.31,229.84,577.23,225.23,589.05,215.59z"/>
			<path style="fill:none;stroke:#231F20;stroke-width:7;" d="M663.69,216.76c-2.78-2.28-5.61-4.84-8.4-7.63
				c-8.6-8.61-14.99-17.54-17.89-24.41c-2.091-4.91-2.391-8.77-0.46-10.7c0.869-0.87,2.14-1.29,3.72-1.29
				c6.8,0,19.399,7.67,31.37,19.65c2.76,2.76,5.29,5.54,7.54,8.29c9.85,11.95,14.58,23.04,10.819,26.81
				C686.64,231.23,675.6,226.53,663.69,216.76z"/>
			<path style="fill:none;stroke:#231F20;stroke-width:7;" d="M633.79,185.14c2.76,6.92,4.53,17.67,4.53,29.74
				c0,4.65-0.261,9.1-0.75,13.21c-1.67,14.36-6.011,24.58-11.09,24.58c-5.131,0-9.49-10.4-11.141-24.95
				c-0.45-4.01-0.7-8.33-0.7-12.84c0-12.07,1.771-22.82,4.53-29.74c2.01-5.05,4.55-8.06,7.311-8.06
				C629.24,177.08,631.78,180.09,633.79,185.14z"/>
			<path style="fill:none;stroke:#231F20;stroke-width:7;" d="M638.03,98.59c0,0,12.5-14.77,28.439-18.12
				c0,0,3.88,13.66-2.319,29.96c-0.04,0.11-0.08,0.21-0.12,0.32"/>
			<path style="fill:none;stroke:#231F20;stroke-width:7;" d="M615.85,98.65c0,0-0.029-0.03-0.08-0.09c0-0.01,0-0.01,0-0.01
				c-1.149-1.32-13.199-14.83-28.359-18.03c0,0-3.93,13.85,2.439,30.29"/>
			<path style="fill:none;stroke:#231F20;stroke-width:7;" d="M615.06,227.75c0,0-12.5,14.77-28.439,18.13
				c0,0-3.92-13.85,2.439-30.28"/>
			<path style="fill:none;stroke:#231F20;stroke-width:7;" d="M637.23,227.69c0,0,0.119,0.14,0.34,0.4
				c2.13,2.37,13.72,14.7,28.109,17.73c0,0,3.74-13.17-1.989-29.06c-0.141-0.4-0.29-0.81-0.45-1.22"/>
			<path style="fill:none;stroke:#231F20;stroke-width:7;" d="M560.64,152.13c0,0-14.77-12.5-18.13-28.44
				c0,0,13.851-3.92,30.29,2.44"/>
			<path style="fill:none;stroke:#231F20;stroke-width:7;" d="M560.7,174.31c0,0-14.771,12.5-18.13,28.44c0,0,13.64,3.87,29.91-2.3
				c0.119-0.04,0.25-0.09,0.369-0.14"/>
			<path style="fill:none;stroke:#231F20;stroke-width:7;" d="M691.65,174.63c0,0,0.02,0.01,0.05,0.05
				c0.95,0.81,14.84,13.01,18.08,28.39c0,0-13.811,3.92-30.21-2.4c-0.021-0.01-0.051-0.02-0.07-0.03"/>
			<path style="fill:none;stroke:#231F20;stroke-width:7;" d="M691.59,152.46c0,0,0.03-0.03,0.09-0.08
				c1.271-1.1,14.84-13.17,18.03-28.36c0,0-13.38-3.8-29.47,2.13c-0.26,0.1-0.53,0.2-0.8,0.3"/>
			<path style="fill:none;stroke:#231F20;stroke-width:7;" d="M639.21,232.34c6.11,31.54-0.09,71.98-14.46,100.91
				c-3.76,7.58-9.79,19.92-15.74,31.88c-6.37,12.81-12.649,25.2-15.96,30.82"/>
			<path style="fill:none;stroke:#231F20;stroke-width:7;" d="M657.06,288.91c7.301-10.68,18.9-17.82,28.521-18.82
				c20.59-2.15,37.13,10.69,40.27,11.9c6.65,2.56,11.511,5.41,13.48,5.81c-9.53,5.93-10.85,17.04-17.15,25.58
				c-5.04,6.84-13.319,11.41-21.46,13.67c-9.58,2.64-24.68,2.68-34.63,2.33c-7.57-0.26-18.38-1.07-21.39-6.1
				c-0.25-0.42-0.48-0.86-0.67-1.3c-1.511-3.48-1.15-7.72,1.489-13.01C648.34,303.32,648.97,300.74,657.06,288.91z"/>
			<path style="fill:none;stroke:#231F20;stroke-width:7;" d="M644.03,321.98c1.16-0.83,2.489-1.8,4.01-2.95
				c12.43-9.31,6.14-5.49,15.62-11.55c8.62-5.51,19.25-13.42,45.49-17.18c0.83-0.12,1.68-0.21,2.529-0.28"/>
			<path style="fill:none;stroke:#231F20;stroke-width:7;" d="M601.69,302.53c-1.551-12.26-8.261-23.37-15.98-28.42
				c-16.54-10.81-36.18-7.13-39.37-7.48c-6.76-0.73-12.12-0.43-13.97-0.95c5.49,9.19,1.77,19.19,3.39,29.18
				c1.29,8.01,6.32,15.5,12.23,20.96c6.979,6.43,19.779,13.06,28.359,17.09c6.54,3.09,16.061,7.11,20.82,4.17
				c0.4-0.25,0.78-0.52,1.14-0.81c2.811-2.3,4.341-6.04,4.41-11.68C602.79,318.55,603.38,316.09,601.69,302.53z"/>
			<path style="fill:none;stroke:#231F20;stroke-width:7;" d="M598.31,336.27c-0.63-1.22-1.329-2.61-2.13-4.26
				c-6.47-13.32-2.81-7.34-8.21-16.62c-4.899-8.43-10.47-19.79-31.08-34.42c-0.659-0.46-1.34-0.91-2.029-1.35"/>
			<path style="fill:none;stroke:#231F20;stroke-width:7;" d="M598.31,336.27c2.53,2.6,5.141,8.34,7.301,15.18
				c1.359,4.29,2.529,9.02,3.399,13.68c0.181,0.94,0.34,1.87,0.49,2.79"/>
			<path style="fill:none;stroke:#231F20;stroke-width:7;" d="M344.57,152.7c5.17-8.61,17.74-9.98,24.93-7.17
				c3.86,1.5,6.21,3.28,7.23,4.3"/>
			<path style="fill:none;stroke:#231F20;stroke-width:7;" d="M317.45,149.52c-6.84-6.1-20.18-5.17-26.1,1.22
				c-0.32,0.33-0.61,0.68-0.88,1.04"/>
			<path style="fill:none;stroke:#231F20;stroke-width:7;" d="M325.99,154.56c7.5,5.62,3.53,24.63,1.64,30.29
				c-0.6,1.81-3.19,5.02-1.37,6.9c0.88,0.9,2.01,0.41,3.12,0.58c1.14,0.18,1.82,0.3,3.14,0.78c2.54,0.95,4.39,1.52,6.67-0.14
				c2.48-1.8,2.3-3.07,5.95-2.89c3.08,0.15,6.48,1.01,6.33-3.73c-0.1-3.26-2.56-3.22-4.31-5.52"/>
			<path style="fill:none;stroke:#231F20;stroke-width:4;" d="M338.41,208.5c0.04-0.3,0.11-0.58,0.22-0.84
				c1.93-4.83,15.3-1.75,18.86-2.11c-0.58,0.87-1.14,1.79-1.71,2.72c-2.45,4-5.01,8.22-9.37,10.14c-5.9,2.61-12.23,2.1-17.09-1.92
				c-1.8-1.49-4.61-3.26-5.88-4.94c-1.23-1.62-1.03-3.16,2.87-4.29c2.44-0.71,5.34-1.26,7.84-0.68c1.34,0.31,3.29,1.59,4.48,1.08
				c0.2-0.08,0.38-0.21,0.53-0.4"/>
			<path style="fill:none;stroke:#231F20;stroke-width:4;" d="M323.44,211.55c4.8,1.41,11.92,0.6,16.72,0.23
				c4.84-0.39,8.79-0.42,15.62-3.51"/>
			<path style="fill:none;stroke:#231F20;stroke-width:14;" d="M353.21,110.57c4.95,5.27,29.87,31.69,43.33,45.15
				c12.55,12.56,4.01,43.37,3.74,45.26c-0.38,2.82-1.57,5.29-3.2,7.55c-2.45,3.39-5.9,6.29-9.17,9.13
				c-3.32,2.87-6.14,6.51-8.96,10.11c-1.03,1.31-2.06,2.61-3.12,3.87c-4.49,5.36-9.47,9.95-16.85,10.85
				c-10.44,1.28-23.58,5.09-32.55-2.5c-2.68-2.28-5.68-4.46-8.6-6.76c-2.01-1.59-3.98-3.24-5.76-5c-1-1-1.95-2.04-2.81-3.12
				c-1.57-1.97-6.57-7.87-10.82-15.22c-3.59-6.2-6.65-13.43-6.65-20.19c0-13.46-2.97-16.67-3.19-25.61
				c-0.11-4.52,0.87-9.14,2.75-13.35c2.08-4.7,5.28-8.89,9.3-11.85c5.88-4.32,37.87-19.58,51.56-29.16
				c0.04-0.03,0.08-0.06,0.12-0.09C352.33,109.64,352.64,109.97,353.21,110.57z"/>
			<path style="fill:none;stroke:#231F20;stroke-width:14;" d="M298.44,209.89l-25.52,13.43c4.66-9.33,3.04-20.85,3.04-20.85
				c-0.18-17.73-2.34-37.07-2.65-41.26c-1.25-17.38,5.21-43.78,14.58-59.03c15.77-25.7,41.47-36.77,81.07-32.16
				c29.4,3.43,56.28,35.6,56.28,76.37c0,14.28-6.34,30.07,0.8,44.32l-28.96,17.82l-0.06,0.04"/>
			<path style="fill:none;stroke:#231F20;stroke-width:3.5;stroke-linecap:square;stroke-miterlimit:10;" d="M295.26,164.57
				c0.36-0.43,0.73-0.85,1.12-1.26c1.74-1.84,3.78-3.39,6.05-4.36c1.71-0.73,3.56-1.13,5.52-1.09c2.26,0.05,4.56,0.79,6.54,2.02
				c1.74,1.07,3.22,2.53,4.19,4.25c0.59,1.04,1.36,1.76,0.34,2.39c-0.87,0.54-1.93,0.16-2.86,0.59c-0.63,0.29-1.2,1.02-1.87,1.32
				c-0.8,0.37-1.86,0.58-2.72,0.76c-2.03,0.42-4.71,0.3-6.66-0.39c-3.21-1.15-5.99-3.14-8.4-5.37"/>
			<path style="fill:none;stroke:#231F20;stroke-width:3.1931;stroke-linecap:square;stroke-miterlimit:10;" d="M314.18,160.38
				c0.38,0.75,0.14,0.67,0.14,1.56c0,3.23-2.73,5.84-6.11,5.84s-6.12-2.61-6.12-5.84c0-1.21-0.11-1.52,0.55-2.45"/>
			<path style="fill:none;stroke:#231F20;stroke-width:3.5;stroke-linecap:square;stroke-miterlimit:10;" d="M373.35,162.86
				c-0.36-0.43-0.73-0.85-1.11-1.26c-3.06-3.23-7-5.55-11.57-5.45c-4.26,0.1-8.68,2.62-10.73,6.27c-0.59,1.03-1.36,1.75-0.34,2.39
				c0.87,0.54,1.92,0.15,2.86,0.59c0.62,0.29,1.19,1.01,1.86,1.32c0.8,0.37,1.87,0.58,2.72,0.76c2.04,0.42,4.72,0.3,6.66-0.4
				c3.21-1.14,6-3.13,8.41-5.36"/>
			<path style="fill:none;stroke:#231F20;stroke-width:14;" d="M353.93,110.67c-0.27,0-0.51-0.03-0.72-0.1
				c-0.47-0.13-0.8-0.41-1-0.84c-0.03-0.05-0.06-0.11-0.08-0.17c4.21-4.1,6.28-10.6,7.53-16.12"/>
		</g>
	</g>
</g>
<rect style="fill:none;" width="850.394" height="850.394"/>
<path style="fill:none;stroke:#231F20;stroke-width:3.4124;stroke-linecap:round;stroke-linejoin:round;" d="M367.361,158.111
	c0.41,0.807,0.151,0.721,0.151,1.678c0,3.474-2.937,6.281-6.571,6.281c-3.635,0-6.583-2.807-6.583-6.281
	c0-1.301-0.635-0.124,0.075-1.124"/>
</svg>
