<?xml version="1.0" encoding="iso-8859-1"?>
<!-- Generator: Adobe Illustrator 12.0.1, SVG Export Plug-In . SVG Version: 6.00 Build 51448)  -->
<!DOCTYPE svg PUBLIC "-//W3C//DTD SVG 1.1//EN" "http://www.w3.org/Graphics/SVG/1.1/DTD/svg11.dtd" [
	<!ENTITY ns_svg "http://www.w3.org/2000/svg">
	<!ENTITY ns_xlink "http://www.w3.org/1999/xlink">
]>
<svg  version="1.1" id="Layer_1" xmlns="&ns_svg;" xmlns:xlink="&ns_xlink;" width="850.394" height="850.394"
	 viewBox="0 0 850.394 850.394" style="overflow:visible;enable-background:new 0 0 850.394 850.394;" xml:space="preserve">
<g id="XMLID_7_">
	<g>
		<path style="fill:#FFEEC8;" d="M186.62,659.31c-2.11,2.04-3.87,3.69-5.12,4.78c-1.4,1.22-2.69,2.72-3.8,4.42
			c-1.86-0.95-3.71-1.88-5.51-2.83l-0.21,0.34c-15.52-9.739-11.24-29.8-1.98-37.89c2.12-1.86,5.08-4.56,8.4-7.64
			c8.38,4.17,17.2,14.21,17.33,24.56l3.13,2.13C194.3,651.77,190,656.04,186.62,659.31z"/>
		<path style="fill:#FFEEC8;" d="M177.7,668.51c1.11-1.7,2.4-3.2,3.8-4.42c1.25-1.09,3.01-2.74,5.12-4.78
			c9.33-1.39,25.9,12.25,26.08,26.45l1.42,1.12c-3.8,3.86-6.96,7.021-9.09,9.03c-0.64,0.6-1.19,1.1-1.63,1.49
			c-3.05,2.659-5.02,5.88-6.01,9.359C170.09,702.63,169.71,680.57,177.7,668.51z"/>
		<path style="fill:#FFEEC8;" d="M178.4,620.49c-2.75-1.36-5.45-2.09-7.78-1.99l-0.07-1.47c-11.97-15.53-5.88-27.87,4.76-37.311
			l0.3,0.34c9.3-1.59,23.22,5.21,23.41,19.511l0.73,0.75C194.14,605.68,185.46,613.94,178.4,620.49z"/>
		<path style="fill:#FFEEC8;" d="M323.39,702.03c9.62,5.72,17.54,11.26,14.55,22.76c-1.18,4.54-6.89,12.3-10.26,15.97
			c-2.61,2.83-5.93,8.28-9.43,9.9c-7.81,3.609-21.26-7.08-28.33-9.76c-10.23-3.87-27.25-6.341-38.35-5.96l-3.75-0.131
			c0.2-1.26,0.45-2.54,0.77-3.84c8.17-5.83,13.68-13.149,19.54-20.22c2.57-3.09,8.59-11.34,16.13-21.47l2.41,0.55
			c9.85,2.12,18.52,4.38,22.54,5.85C314.05,697.47,319.08,699.47,323.39,702.03z"/>
		<path style="fill:#FFEEC8;" d="M205.19,696.08c11.99-11.08,25.13-2.3,41.45,10.31c9.75,7.53-0.89,19.86-10.15,30.38
			c-12.86,3.53-28.49,0.971-35.83-10.81c-3.78-6.07-5.06-13.04-3.27-19.2c0.99-3.479,2.96-6.7,6.01-9.359
			c0.44-0.391,0.99-0.891,1.63-1.49L205.19,696.08z"/>
		<path style="fill:#FFEEC8;" d="M284.26,689.28c-7.54,10.13-13.56,18.38-16.13,21.47c-5.86,7.07-11.37,14.39-19.54,20.22
			c-0.62,0.45-1.26,0.88-1.91,1.311c-2.99,1.96-6.47,3.479-10.19,4.489c9.26-10.52,19.9-22.85,10.15-30.38
			c-16.32-12.609-29.46-21.39-41.45-10.31l-0.16-0.17c2.13-2.01,5.29-5.17,9.09-9.03l-1.42-1.12c-0.18-14.2-16.75-27.84-26.08-26.45
			c3.38-3.27,7.68-7.54,12.24-12.13l-3.13-2.13c-0.13-10.35-8.95-20.39-17.33-24.56c7.06-6.55,15.74-14.811,21.35-20.17l-0.73-0.75
			c-0.19-14.301-14.11-21.101-23.41-19.511l-0.3-0.34c4.94-4.399,10.86-8.16,16.41-11.34c22.18-12.68,108.63-92.84,135.4-117.92
			c35.5-33.26,94.2-86.62,108.39-194.59c2.521-19.14-5.47-177.67-5.47-177.67l222.61-12.84c0,0-18.78,111.83-24.44,160.9
			c-8.36,72.55,8.76,98.35,25.18,127.96c16.42,29.61,24.17,86.56,7.891,118c-22.45,43.36-95.811,54.2-117.391,63.37
			c0,0-22.439,8.33-46.609,40.021c-19.641,25.739-74.23,85.04-90.78,131.31c-13.19,36.86-32.3,52.35-66.24,70.33
			c-40.5,21.44-98.98-0.27-92.44-42.44l3.75,0.131c11.1-0.381,28.12,2.09,38.35,5.96c7.07,2.68,20.52,13.369,28.33,9.76
			c3.5-1.62,6.82-7.07,9.43-9.9c3.37-3.67,9.08-11.43,10.26-15.97c2.99-11.5-4.93-17.04-14.55-22.76
			c-4.31-2.561-9.34-4.561-14.18-6.351c-4.02-1.47-12.69-3.729-22.54-5.85L284.26,689.28z"/>
	</g>
	<g>
		<path style="fill:none;stroke:#231F20;stroke-width:13.7915;" d="M652.65,65.36c0,0-18.78,111.83-24.44,160.9
			c-8.36,72.55,8.76,98.35,25.18,127.96c16.42,29.61,24.17,86.56,7.891,118c-22.45,43.36-95.811,54.2-117.391,63.37
			c0,0-22.439,8.33-46.609,40.021c-19.641,25.739-74.23,85.04-90.78,131.31c-13.19,36.86-32.3,52.35-66.24,70.33
			c-40.5,21.44-98.98-0.27-92.44-42.44c0.2-1.26,0.45-2.54,0.77-3.84c0.23-0.96,0.49-1.92,0.79-2.899"/>
		<path style="fill:none;stroke:#231F20;stroke-width:13.7915;" d="M430.04,78.2c0,0,7.99,158.53,5.47,177.67
			c-14.19,107.97-72.89,161.33-108.39,194.59c-26.77,25.08-113.22,105.24-135.4,117.92c-5.55,3.18-11.47,6.94-16.41,11.34
			c-10.64,9.44-16.73,21.78-4.76,37.311"/>
		<path style="fill:none;stroke:#231F20;stroke-width:13.7915;stroke-linecap:round;stroke-linejoin:round;" d="M205.53,594.78
			c0,0-2.3,2.21-5.78,5.54c-5.61,5.359-14.29,13.62-21.35,20.17c-3.32,3.08-6.28,5.779-8.4,7.64c-9.26,8.09-13.54,28.15,1.98,37.89
			c0.67,0.421,1.38,0.83,2.13,1.211"/>
		<path style="fill:none;stroke:#231F20;stroke-width:13.7915;stroke-linecap:round;stroke-linejoin:round;" d="M229.7,615.63
			c0,0-16.69,17.311-30.84,31.55c-4.56,4.59-8.86,8.86-12.24,12.13c-2.11,2.04-3.87,3.69-5.12,4.78c-1.4,1.22-2.69,2.72-3.8,4.42
			c-7.99,12.061-7.61,34.12,19.69,38.25c0.36,0.061,0.72,0.11,1.08,0.16"/>
		<path style="fill:none;stroke:#231F20;stroke-width:13.7915;stroke-linecap:round;stroke-linejoin:round;" d="M269.4,628.96
			c0,0-35.92,38.21-55.28,57.92c-3.8,3.86-6.96,7.021-9.09,9.03c-0.64,0.6-1.19,1.1-1.63,1.49c-3.05,2.659-5.02,5.88-6.01,9.359
			c-1.79,6.16-0.51,13.13,3.27,19.2c7.34,11.78,22.97,14.34,35.83,10.81c3.72-1.01,7.2-2.529,10.19-4.489
			c0.65-0.431,1.29-0.86,1.91-1.311c8.17-5.83,13.68-13.149,19.54-20.22c2.57-3.09,8.59-11.34,16.13-21.47
			c13.45-18.07,31.73-42.12,43.84-53.641"/>
		<path style="fill:none;stroke:#231F20;stroke-width:13.7915;" d="M286.67,689.83c9.85,2.12,18.52,4.38,22.54,5.85
			c4.84,1.79,9.87,3.79,14.18,6.351c9.62,5.72,17.54,11.26,14.55,22.76c-1.18,4.54-6.89,12.3-10.26,15.97
			c-2.61,2.83-5.93,8.28-9.43,9.9c-7.81,3.609-21.26-7.08-28.33-9.76c-10.23-3.87-27.25-6.341-38.35-5.96"/>
		<path style="fill:none;stroke:#231F20;stroke-width:13.7915;" d="M172.19,665.68c1.8,0.95,3.65,1.88,5.51,2.83
			c2.09,1.07,4.18,2.17,6.22,3.33"/>
		<path style="fill:none;stroke:#231F20;stroke-width:13.7915;" d="M199.02,703.75c2.03-3.22,4.08-5.75,6.17-7.67
			c11.99-11.08,25.13-2.3,41.45,10.31c9.75,7.53-0.89,19.86-10.15,30.38c-0.08,0.101-0.17,0.19-0.25,0.29"/>
		<path style="fill:none;stroke:#231F20;stroke-width:13.7915;" d="M186.43,659.33c0.06-0.01,0.13-0.021,0.19-0.021
			c9.33-1.39,25.9,12.25,26.08,26.45"/>
		<path style="fill:none;stroke:#231F20;stroke-width:13.7915;" d="M169.46,618.61c0.38-0.061,0.76-0.101,1.16-0.11
			c2.33-0.1,5.03,0.63,7.78,1.99c8.38,4.17,17.2,14.21,17.33,24.56"/>
		<path style="fill:none;stroke:#231F20;stroke-width:13.7915;" d="M175.61,580.06c9.3-1.59,23.22,5.21,23.41,19.511"/>
	</g>
</g>
<rect style="fill:none;" width="850.394" height="850.394"/>
</svg>
