<?xml version="1.0" encoding="iso-8859-1"?>
<!-- Generator: Adobe Illustrator 12.0.1, SVG Export Plug-In . SVG Version: 6.00 Build 51448)  -->
<!DOCTYPE svg PUBLIC "-//W3C//DTD SVG 1.1//EN" "http://www.w3.org/Graphics/SVG/1.1/DTD/svg11.dtd" [
	<!ENTITY ns_svg "http://www.w3.org/2000/svg">
	<!ENTITY ns_xlink "http://www.w3.org/1999/xlink">
]>
<svg  version="1.1" id="Layer_1" xmlns="&ns_svg;" xmlns:xlink="&ns_xlink;" width="850.394" height="850.394"
	 viewBox="0 0 850.394 850.394" style="overflow:visible;enable-background:new 0 0 850.394 850.394;" xml:space="preserve">
<g>
	<g id="XMLID_7_">
		<g>
			<path style="fill:#FFFFFF;" d="M478.182,108.208l88.688,90.444l-54.141,61.341l-44.935-43.43l1.63,252.208l-223.179-0.094
				l1.641-252.198L202.941,259.9L148.8,198.548l95.303-96.61l69.22-24.526c-4.002,5.936-6.27,12.749-6.27,19.98
				c0,23.052,23.47,48.435,51.863,48.435s50.943-25.383,50.943-48.435c0-9.99-4.326-19.155-11.547-26.344l0.45-0.46L478.182,108.208
				z"/>
			<path style="fill:#394EA1;" d="M467.387,542.549l48.875,226.293c0,0-43.765,20.022-132.61,32.541l-11.056-82.638
				c0,0-3.313-20.022-14.358-20.022h-3.188c-11.045,0-14.358,20.022-14.358,20.022l-11.056,82.638
				c-88.855-12.519-132.599-32.541-132.599-32.541l48.331-223.806l220.273-2.111L467.387,542.549z"/>
			<polygon style="fill:#394EA1;" points="458.525,501.502 467.387,542.549 465.642,542.925 245.368,545.036 254.763,501.502 			"/>
			<path style="fill:#FFFFFF;" d="M313.324,77.413c8.715-12.947,25.655-21.736,45.123-21.736c16.083,0,30.44,5.988,39.866,15.372
				c7.221,7.189,11.547,16.354,11.547,26.344c0,23.052-22.551,48.435-50.943,48.435s-51.863-25.383-51.863-48.435
				C307.054,90.162,309.322,83.348,313.324,77.413z"/>
		</g>
		<g>
			<path style="fill:none;stroke:#231F20;stroke-width:14;" d="M398.313,71.049c7.221,7.189,11.547,16.354,11.547,26.344
				c0,23.052-22.551,48.435-50.943,48.435s-51.863-25.383-51.863-48.435c0-7.231,2.268-14.045,6.27-19.98
				c8.715-12.947,25.655-21.736,45.123-21.736C374.529,55.677,388.887,61.665,398.313,71.049z"/>
			<polyline style="fill:none;stroke:#231F20;stroke-width:14;" points="398.763,70.589 478.182,108.208 566.87,198.653 
				512.729,259.994 467.795,216.564 469.425,468.772 246.246,468.679 247.887,216.48 202.941,259.9 148.8,198.548 244.104,101.938 
				313.324,77.413 313.334,77.402 			"/>
			<path style="fill:none;stroke:#231F20;stroke-width:14;" d="M245.368,545.036l9.395-43.534h203.763l8.861,41.047l48.875,226.293
				c0,0-43.765,20.022-132.61,32.541l-11.056-82.638c0,0-3.313-20.022-14.358-20.022h-3.188c-11.045,0-14.358,20.022-14.358,20.022
				l-11.056,82.638c-88.855-12.519-132.599-32.541-132.599-32.541L245.368,545.036z"/>
			<polyline style="fill:none;stroke:#231F20;stroke-width:14;" points="243.863,545.047 245.368,545.036 465.642,542.925 			"/>
		</g>
	</g>
</g>
<rect style="fill:none;" width="850.394" height="850.394"/>
<g id="XMLID_15_">
	<g>
		<path style="fill:#9C5C25;" d="M782.553,188.933c-3.025-3.67-7.631-9.554-13.882-8.998l-0.068-1.189l-2.743-9.252l-1.737-0.145
			c5.553-1.433,10.11-6.035,14.153-4.546c3.256,1.199,2.226,6.461,3.046,8.48c1.391,3.439,2.986,4.215,4.517,7.524
			C788.709,187,788.821,196.534,782.553,188.933z"/>
		<path style="fill:#FFEEC8;" d="M768.603,178.746l0.068,1.189c-0.278,0.027-0.563,0.063-0.847,0.116
			c0,0-16.921,5.253-29.639,15.249c-9.596,7.539-14.906,10.279-20.56,2.054c-1.817-2.64-3.817-5.748-5.694-8.755l17.948-11.31
			c0.622,1.116,2.3,3.635,4.194,2.418c2.397-1.542,6.509-10.108,18.673-9.768l8.291-0.181c1.063,0,2.089-0.154,3.084-0.411
			l1.737,0.145L768.603,178.746z"/>
		<path style="fill:#FFEEC8;" d="M757.332,123.637c-0.012,0.379-0.151,0.918-0.752,1.293c-0.873,0.527-1.858,1.193-2.341,0.583
			c0.044,0.313,0.083,1.065-0.459,1.482c-0.692,0.542-1.797,0.749-2.374,0.669l-0.133-0.035c-0.16,0.672-1.001,0.965-1.628,0.524
			c-0.595-0.415-1.199-2.282-3.158-4.917c-0.35-0.474-0.743-0.971-1.189-1.489c-1.252-1.45-2.673-2.705-3.558-3.948
			c-0.403-0.568-0.693-1.131-0.809-1.708c-0.468-2.359,0.101-4.224-0.251-8.278c2.382-1.231,4.818-3.644,9.211-4.525
			c1.474,1.317,4.797,3.771,5.691,5.469c0.187,0.358,2.791,8.083,2.731,12.005C758.303,121.565,757.749,122.938,757.332,123.637z"/>
		<path style="fill:#FFFFFF;" d="M740.681,107.814c-0.669,0.343-1.332,0.598-2.034,0.698c-2.731,0.391-6.307-3.282-8.376-4.537
			c-9.048-5.476-14.503-10.226-19.709-11.067c-1.596-0.26-3.167-0.151-4.81,0.417c-12.402-3.851-13.313-22.071-13.313-22.071
			l0.015-0.598c7.154,0.198,14.853,2.22,24.679,6.233c18.174,7.429,26.064,15.823,32.76,26.399
			C745.499,104.17,743.063,106.583,740.681,107.814z"/>
		<path style="fill:#FFEEC8;" d="M743.229,126.375c0.568-2.972-0.071-5.914-1.788-8.365l0.3-0.21
			c0.885,1.243,2.306,2.498,3.558,3.948c0.446,0.518,0.84,1.015,1.189,1.489C746.186,124.848,744.928,127.224,743.229,126.375z"/>
		<path style="fill:#FFFFFF;" d="M729.88,177.289l-17.948,11.31c-3.975-6.357-7.408-12.25-7.408-12.25l-0.151-0.195v-0.003
			c2.48-1.897,5.13-4.215,8.285-7.237l0.523-0.521c7.376-6.813,14.713-14.903,16.723-19.39c1.785,4.807,2.395,19.15,4.257,25.59
			L729.88,177.289z"/>
		<path style="fill:#FFFFFF;" d="M723.253,124.862c1.631,2.525,3.321,4.955,4.727,7.394c3.008,5.207,4.736,10.451,1.924,16.747
			c-2.01,4.487-9.347,12.576-16.723,19.39l-0.523,0.521c-3.155,3.022-5.805,5.339-8.285,7.237v0.003
			c-0.977,0.746-1.93,1.429-2.874,2.066l-0.15-0.225l-25.735-17.895l-0.134-0.095c0,0,6.577-10.084,9.265-15.033l0.248-0.423
			c0.565,0.308,1.255,0.557,2.123,0.755c5.224,1.187,11.483-1.995,16.125-3.374C711.352,139.51,723.48,133.561,723.253,124.862z"/>
		<path style="fill:#FFEEC8;" d="M701.348,177.994l0.15,0.225c-2.918,1.965-5.789,3.483-9.231,5.088
			c-4.694,2.187-10.702,4.096-14.822,6.929c-4.626,3.185-1.498,10.569-2.137,15.684c-1.886,15.077-9.596,21.074-10.967,31.185
			c-0.044,0.332-0.086,0.654-0.121,0.974l-0.474-0.05l-8.565-2.057l-1.217-0.157c0.112-0.838,0.137-1.767,0.065-2.791
			c0,0,0.719-6.029,0.376-14.251c-0.344-8.226,0-31.01,1.714-36.495c1.71-5.484,18.845-21.245,18.845-21.245l0.648-0.933
			L701.348,177.994z"/>
		<path style="fill:#FFEEC8;" d="M673.984,62.476c0,4.917-1.4,9.421-3.729,12.932c-2.975,4.481-7.465,7.337-12.487,7.337
			c-1.193,0-2.359-0.16-3.478-0.467c-7.287-1.989-12.742-10.099-12.742-19.801c0-11.194,7.26-20.271,16.22-20.271
			C666.724,42.204,673.984,51.282,673.984,62.476z"/>
		<path style="fill:#9C5C25;" d="M663.746,238.027l0.474,0.05c-1.151,9.895,1.175,14.544-4.703,16.122
			c-2.489,0.669-6.032-1.48-8.148-1.986c-3.607-0.864-5.168-0.018-8.752-0.698c-6.704-1.261-14.532-6.713-4.697-7.394
			c4.52-0.314,14.896,0.468,16.045-8.308l1.217,0.157L663.746,238.027z"/>
		<path style="fill:#FFFFFF;" d="M681.02,138.09c-5.357-11.783-11.948-18.271-21.357-26.387c0.139-0.003,0.28-0.003,0.423-0.003
			l0.106-0.08c-4.02-5.411-9.148-20.313-10.185-27.952c1.379-0.924,2.806-1.418,4.25-1.273l0.033-0.118
			c1.118,0.308,2.284,0.467,3.478,0.467c5.022,0,9.513-2.856,12.487-7.337l0.255,0.171c7.873-3.424,14.624-5.129,21.943-4.922
			l-0.015,0.598c0,0,0.911,18.221,13.313,22.071c1.643-0.568,3.214-0.678,4.81-0.417l-0.213,1.542
			c5.12,11.893,10.865,19.062,12.738,28.858c0.101,0.527,0.157,1.047,0.166,1.554c0.228,8.699-11.901,14.648-20.014,17.066
			c-4.642,1.379-10.901,4.561-16.125,3.374c-0.868-0.198-1.558-0.447-2.123-0.755C682.769,143.34,682.461,141.26,681.02,138.09z"/>
		<path style="fill:#FFFFFF;" d="M659.662,111.703c-13.003,0.13-12.041,11.877-20.974,16.193c-8.974,4.33-10.892-1.074-15.192-8.432
			c-0.104-0.178-0.21-0.358-0.317-0.539c2.425-1.938,6.373-5.937,6.618-9.477l0.485,0.006c6.216,2.09,5.062-2.333,7.61-7.689
			c1.95-4.103,6.653-14.45,12.114-18.096c1.036,7.639,6.165,22.542,10.185,27.952l-0.106,0.08
			C659.942,111.7,659.801,111.7,659.662,111.703z"/>
		<circle style="fill:#FFFFFF;" cx="616.632" cy="228.603" r="18.677"/>
		<path style="fill:#FFEEC8;" d="M614.116,99.875c0.912-0.811,1.889-0.355,2.099-0.243l0.006-0.015
			c0.474,0.21,1.335,0.669,2.157,1.302c0.243,0.708,0.64,1.296,1.208,1.723c0.187,0.139,0.388,0.24,0.592,0.311
			c0.299,0.633,0.379,1.317,0.077,2.021c-0.888,2.066-2.607,1.403-3.113,1.039c-0.003-0.006-0.006-0.009-0.01-0.006
			c-0.121-0.127-0.251-0.237-0.385-0.332c-1.236-0.888-2.22-2.392-3.602-3.063c-0.24-0.115-0.399-0.249-0.491-0.391
			C612.216,101.551,613.281,100.633,614.116,99.875z"/>
		<path style="fill:#FFEEC8;" d="M612.184,107.775c-2.649-1.468-2.516-2.282-3.773-2.3c-0.006,0-0.013,0-0.019,0l1.039-0.829
			c0.101-0.66,0.687-1.8,1.51-2.383c0.595-0.432,1.353-0.198,1.714-0.042c0.092,0.142,0.251,0.275,0.491,0.391
			c1.382,0.672,2.365,2.176,3.602,3.063c0.134,0.095,0.264,0.205,0.385,0.332c0.004-0.003,0.007,0,0.01,0.006
			c0.799,0.805,1.213,2.119-0.395,2.779c-1.344,0.548-2.157,0.326-3.007-0.316c-0.284-0.216-0.571-0.479-0.882-0.776
			L612.184,107.775z"/>
		<path style="fill:#FFEEC8;" d="M622.587,119.517c-4.976-1.589-4.966-1.223-9.539-3.629c-1.906-1.009-3.368-2.862-4.594-4.561
			c-0.245-0.343-0.583-0.829-0.905-1.344l0.861-0.172c0.675,0.693,2.995,2.291,4.498,1.341c0.947-0.592,1.294-1.598,0.832-2.675
			c0.85,0.642,1.663,0.864,3.007,0.316c1.607-0.66,1.193-1.974,0.395-2.779c0.506,0.364,2.226,1.027,3.113-1.039
			c0.302-0.705,0.222-1.388-0.077-2.021c-0.367-0.776-1.068-1.471-1.8-2.034c-0.201-0.586-0.296-1.249-0.296-1.968
			c0-0.669,1.231-0.689,2.54-0.414c0,0,0,0,0.003,0c1.086,0.346,2.001,0.725,2.765,1.095c1.899,0.924,2.853,1.8,3.072,2.019
			c1.71,1.667,1.787,3.697,2.995,5.952l0.071-0.026c0.236,0.598,0.313,1.228,0.269,1.871c-0.245,3.54-4.193,7.539-6.618,9.477
			c0.107,0.181,0.214,0.361,0.317,0.539L622.587,119.517z"/>
		<path style="fill:#FFEEC8;" d="M608.41,109.812l-0.861,0.172c-0.421-0.66-0.82-1.371-0.992-1.894
			c-0.34-1.016,0.631-2.614,1.835-2.614c0.006,0,0.013,0,0.019,0c1.258,0.018,1.124,0.832,3.773,2.3l0.675-0.074
			c0.311,0.296,0.598,0.56,0.882,0.776c0.462,1.077,0.115,2.083-0.832,2.675C611.405,112.103,609.085,110.504,608.41,109.812z"/>
	</g>
	<g>
		<path style="fill:none;stroke:#231F20;stroke-width:6.2156;" d="M654.29,82.277c-7.287-1.989-12.742-10.099-12.742-19.801
			c0-11.194,7.26-20.271,16.22-20.271c8.956,0,16.217,9.078,16.217,20.271c0,4.917-1.4,9.421-3.729,12.932
			c-2.975,4.481-7.465,7.337-12.487,7.337C656.574,82.744,655.408,82.584,654.29,82.277z"/>
		<path style="fill:none;stroke:#231F20;stroke-width:6.2156;" d="M654.257,82.395c-1.444-0.145-2.871,0.349-4.25,1.273
			c-5.461,3.646-10.164,13.994-12.114,18.096c-2.549,5.357-1.395,9.779-7.61,7.689"/>
		<path style="fill:none;stroke:#231F20;stroke-width:6.2156;" d="M623.179,118.925c0.107,0.181,0.214,0.361,0.317,0.539
			c4.301,7.358,6.219,12.762,15.192,8.432c8.933-4.315,7.971-16.063,20.974-16.193c0.139-0.003,0.28-0.003,0.423-0.003"/>
		<path style="fill:none;stroke:#231F20;stroke-width:6.2156;" d="M658.19,110.439c0.497,0.426,0.989,0.85,1.472,1.264
			c9.409,8.116,16,14.604,21.357,26.387c1.441,3.17,1.749,5.25,3.972,6.458c0.565,0.308,1.255,0.557,2.123,0.755
			c5.224,1.187,11.483-1.995,16.125-3.374c8.112-2.418,20.241-8.368,20.014-17.066c-0.009-0.506-0.065-1.027-0.166-1.554
			c-1.873-9.797-7.618-16.966-12.738-28.858"/>
		<path style="fill:none;stroke:#231F20;stroke-width:6.2156;" d="M670.51,75.579c7.873-3.424,14.624-5.129,21.943-4.922
			c7.154,0.198,14.853,2.22,24.679,6.233c18.174,7.429,26.064,15.823,32.76,26.399c-4.393,0.882-6.829,3.294-9.211,4.525
			c-0.669,0.343-1.332,0.598-2.034,0.698c-2.731,0.391-6.307-3.282-8.376-4.537c-9.048-5.476-14.503-10.226-19.709-11.067
			c-1.596-0.26-3.167-0.151-4.81,0.417c-0.436,0.148-0.873,0.329-1.32,0.544"/>
		<path style="fill:none;stroke:#231F20;stroke-width:6.8532;" d="M727.979,132.256c-1.405-2.439-3.096-4.869-4.727-7.394
			c-0.003-0.003-0.003-0.006-0.006-0.009"/>
		<path style="fill:none;stroke:#231F20;stroke-width:6.2156;" d="M674.964,161.031c0,0-17.135,15.761-18.845,21.245
			c-1.714,5.485-2.058,28.269-1.714,36.495c0.343,8.222-0.376,14.251-0.376,14.251c0.071,1.024,0.047,1.953-0.065,2.791
			c-1.148,8.776-11.525,7.994-16.045,8.308c-9.835,0.681-2.007,6.133,4.697,7.394c3.584,0.681,5.145-0.166,8.752,0.698
			c2.116,0.506,5.659,2.655,8.148,1.986c5.878-1.578,3.552-6.228,4.703-16.122c0.035-0.32,0.077-0.642,0.121-0.974
			c1.371-10.111,9.081-16.107,10.967-31.185c0.639-5.115-2.489-12.5,2.137-15.684c4.12-2.833,10.128-4.742,14.822-6.929
			c3.442-1.604,6.313-3.123,9.231-5.088c0.944-0.637,1.897-1.32,2.874-2.066v-0.003c2.48-1.897,5.13-4.215,8.285-7.237l0.523-0.521
			c7.376-6.813,14.713-14.903,16.723-19.39c2.813-6.295,1.084-11.54-1.924-16.747"/>
		<path style="fill:none;stroke:#231F20;stroke-width:6.2156;" d="M729.903,149.002c1.785,4.807,2.395,19.15,4.257,25.59
			l-4.28,2.696l-17.948,11.31l-0.302,0.189"/>
		<path style="fill:none;stroke:#231F20;stroke-width:6.2156;" d="M649.95,83.248c0.019,0.136,0.036,0.278,0.057,0.42
			c1.036,7.639,6.165,22.542,10.185,27.952c0.583,0.784,1.14,1.371,1.66,1.705"/>
		<path style="fill:none;stroke:#231F20;stroke-width:2.0719;" d="M617.132,106.008c-0.015-0.012-0.029-0.023-0.041-0.032"/>
		<path style="fill:none;stroke:#231F20;stroke-width:2.0719;" d="M620.622,98.538c-0.243-0.08-0.497-0.157-0.758-0.231
			c-1.37-0.388-4.351,1.003-3.646,1.308l0.003,0.003c0.474,0.21,1.335,0.669,2.157,1.302c0.731,0.563,1.433,1.258,1.8,2.034
			c0.299,0.633,0.379,1.317,0.077,2.021c-0.888,2.066-2.607,1.403-3.113,1.039"/>
		<path style="fill:none;stroke:#231F20;stroke-width:2.0719;" d="M629.457,107.604c-1.208-2.255-1.285-4.286-2.995-5.952
			c-0.22-0.219-1.173-1.095-3.072-2.019c-0.764-0.37-1.679-0.749-2.765-1.095"/>
		<path style="fill:none;stroke:#231F20;stroke-width:2.0719;" d="M616.256,99.657c0,0-0.015-0.009-0.041-0.024
			c-0.21-0.112-1.187-0.568-2.099,0.243c-0.835,0.758-1.9,1.675-1.462,2.347c0.092,0.142,0.251,0.275,0.491,0.391
			c1.382,0.672,2.365,2.176,3.602,3.063c0.134,0.095,0.264,0.205,0.385,0.332c0.004-0.003,0.007,0,0.01,0.006
			c0.799,0.805,1.213,2.119-0.395,2.779c-1.344,0.548-2.157,0.326-3.007-0.316c-0.284-0.216-0.571-0.479-0.882-0.776
			c-0.465-0.438-0.979-0.953-1.619-1.498"/>
		<path style="fill:none;stroke:#231F20;stroke-width:2.0719;" d="M612.861,102.323c0,0-0.077-0.044-0.207-0.101
			c-0.361-0.157-1.119-0.391-1.714,0.042c-0.823,0.583-1.409,1.723-1.51,2.383"/>
		<path style="fill:none;stroke:#231F20;stroke-width:2.0719;" d="M622.587,119.517c-4.976-1.589-4.966-1.223-9.539-3.629
			c-1.906-1.009-3.368-2.862-4.594-4.561c-0.245-0.343-0.583-0.829-0.905-1.344c-0.421-0.66-0.82-1.371-0.992-1.894
			c-0.34-1.016,0.631-2.614,1.835-2.614c0.006,0,0.013,0,0.019,0c1.258,0.018,1.124,0.832,3.773,2.3"/>
		<path style="fill:none;stroke:#231F20;stroke-width:2.0719;" d="M612.385,106.822c0.681,0.539,1.122,1.104,1.355,1.655
			c0.462,1.077,0.115,2.083-0.832,2.675c-1.503,0.95-3.823-0.648-4.498-1.341"/>
		<path style="fill:none;stroke:#231F20;stroke-width:2.0719;stroke-miterlimit:10;" d="M749.892,103.289
			c1.474,1.317,4.797,3.771,5.691,5.469c0.187,0.358,2.791,8.083,2.731,12.005c-0.012,0.802-0.565,2.175-0.982,2.874
			c-0.228,0.388-0.417,0.565-0.447,0.329c-0.098-0.749,0.101-0.926-0.894-4.907c-0.296-1.205-2.303-4.573-2.303-4.573"/>
		<path style="fill:none;stroke:#231F20;stroke-width:2.0719;stroke-miterlimit:10;" d="M757.291,123.19c0,0,0.05,0.184,0.041,0.447
			c-0.012,0.379-0.151,0.918-0.752,1.293c-0.873,0.527-1.858,1.193-2.341,0.583c-0.083-0.11-0.154-0.258-0.204-0.456
			c-0.367-1.489-0.385-2.409-1.809-5.221c-0.894-1.764-2.259-4.552-2.259-4.552"/>
		<path style="fill:none;stroke:#231F20;stroke-width:2.0719;stroke-miterlimit:10;" d="M754.213,125.369
			c0,0,0.015,0.053,0.026,0.145c0.044,0.313,0.083,1.065-0.459,1.482c-0.692,0.542-1.797,0.749-2.374,0.669"/>
		<path style="fill:none;stroke:#231F20;stroke-width:2.0719;stroke-miterlimit:10;" d="M740.609,107.053
			c0.026,0.263,0.053,0.515,0.071,0.761c0.352,4.055-0.217,5.919,0.251,8.278c0.115,0.577,0.405,1.14,0.809,1.708
			c0.885,1.243,2.306,2.498,3.558,3.948c0.446,0.518,0.84,1.015,1.189,1.489c1.959,2.634,2.563,4.502,3.158,4.917
			c0.627,0.441,1.468,0.148,1.628-0.524c0.038-0.16,0.038-0.337-0.012-0.536c-0.293-1.196,0.038-1.395-1.755-4.863
			c-0.574-1.098-0.975-2.664-3.827-6.067"/>
		<path style="fill:none;stroke:#231F20;stroke-width:4.1437;stroke-miterlimit:10;" d="M623.179,118.925
			c2.425-1.938,6.373-5.937,6.618-9.477c0.045-0.643-0.032-1.273-0.269-1.871c-0.048-0.13-0.104-0.257-0.169-0.382"/>
		<path style="fill:none;stroke:#231F20;stroke-width:2.0719;" d="M741.278,117.779c0.056,0.077,0.109,0.154,0.162,0.231
			c1.717,2.451,2.356,5.393,1.788,8.365c1.699,0.849,2.957-1.527,3.259-3.138c0.015-0.071,0.026-0.145,0.035-0.213"/>
		<path style="fill:none;stroke:#231F20;stroke-width:2.0719;" d="M623.39,99.633c-0.53-0.432-1.673-0.867-2.765-1.095
			c-0.003,0-0.003,0-0.003,0c-1.309-0.275-2.54-0.255-2.54,0.414c0,0.719,0.095,1.382,0.296,1.968
			c0.243,0.708,0.64,1.296,1.208,1.723c0.187,0.139,0.388,0.24,0.592,0.311c1.344,0.467,2.931-0.281,2.931,0.985
			c0,4.404,1.252,5.174,2.578,6.5"/>
		<path style="fill:none;stroke:#231F20;stroke-width:6.2156;" d="M729.619,176.792c0,0,0.092,0.198,0.261,0.497
			c0.622,1.116,2.3,3.635,4.194,2.418c2.397-1.542,6.509-10.108,18.673-9.768l8.291-0.181c1.063,0,2.089-0.154,3.084-0.411
			c5.553-1.433,10.11-6.035,14.153-4.546c3.256,1.199,2.226,6.461,3.046,8.48c1.391,3.439,2.986,4.215,4.517,7.524
			c2.871,6.195,2.983,15.728-3.285,8.127c-3.025-3.67-7.631-9.554-13.882-8.998c-0.278,0.027-0.563,0.063-0.847,0.116
			c0,0-16.921,5.253-29.639,15.249c-9.596,7.539-14.906,10.279-20.56,2.054c-1.817-2.64-3.817-5.748-5.694-8.755
			c-3.975-6.357-7.408-12.25-7.408-12.25"/>
		<path style="fill:none;stroke:#231F20;stroke-width:6.2156;" d="M701.348,177.994l-25.735-17.895l-0.134-0.095
			c0,0,6.577-10.084,9.265-15.033"/>
		<path style="fill:none;stroke:#231F20;stroke-width:6.2156;" d="M692.438,71.254c0,0,0.911,18.221,13.313,22.071
			c0.772,0.24,1.586,0.423,2.45,0.544"/>
		<line style="fill:none;stroke:#231F20;stroke-width:6.8532;" x1="655.181" y1="235.97" x2="663.746" y2="238.027"/>
		<line style="fill:none;stroke:#231F20;stroke-width:6.8532;" x1="765.859" y1="169.493" x2="768.603" y2="178.746"/>
		<circle style="fill:none;stroke:#231F20;stroke-width:6.2156;" cx="616.631" cy="228.603" r="18.675"/>
	</g>
</g>
</svg>
