<?xml version="1.0" encoding="iso-8859-1"?>
<!-- Generator: Adobe Illustrator 12.0.1, SVG Export Plug-In . SVG Version: 6.00 Build 51448)  -->
<!DOCTYPE svg PUBLIC "-//W3C//DTD SVG 1.1//EN" "http://www.w3.org/Graphics/SVG/1.1/DTD/svg11.dtd" [
	<!ENTITY ns_svg "http://www.w3.org/2000/svg">
	<!ENTITY ns_xlink "http://www.w3.org/1999/xlink">
]>
<svg  version="1.1" id="Layer_1" xmlns="&ns_svg;" xmlns:xlink="&ns_xlink;" width="850.394" height="850.394"
	 viewBox="0 0 850.394 850.394" style="overflow:visible;enable-background:new 0 0 850.394 850.394;" xml:space="preserve">
<g id="XMLID_1_">
	<g>
		<polygon style="fill:#FFFFFF;" points="552.468,205.605 564.87,218.836 512.542,278.123 501.119,267.084 503.392,264.741 
			551.872,206.161 		"/>
		<path style="fill:#ED1E29;" d="M479.151,127.381l73.316,78.224l-0.596,0.556l-48.48,58.58l-2.272,2.343l-32.007-30.937
			l1.576,243.763l-215.706-0.091l1.585-243.752l-29.835,28.825l-2.101-2.171l-52.116-56.125l78.376-81.234l68.922-23.715
			c-3.868,5.737-6.06,12.322-6.06,19.321c0,22.281,34.158,68.993,62.377,50.854c28.28-18.18,30.3-32.32,36.986-50.854
			c2.222-6.151,1.222-12.17-2.01-17.604L479.151,127.381z"/>
		<path style="fill:#FFFFFF;" d="M469.052,552.731l46.904,217.2c0,0-42.299,19.352-128.168,31.451l-10.686-79.87
			c0,0-3.202-19.352-13.877-19.352h-3.081c-10.675,0-13.877,19.352-13.877,19.352l-10.686,79.87
			c-85.88-12.1-128.159-31.451-128.159-31.451l46.924-217.331l4.626,1h206.04L469.052,552.731z"/>
		<polygon style="fill:#FFFFFF;" points="460.153,511.544 469.052,552.731 465.012,553.601 258.972,553.601 254.346,552.601 
			263.214,511.544 		"/>
		<path style="fill:#ED1E29;" d="M411.108,103.363c3.232,5.434,4.232,11.453,2.01,17.604c-6.686,18.534-8.706,32.673-36.986,50.854
			c-28.219,18.14-62.377-28.573-62.377-50.854c0-6.999,2.192-13.584,6.06-19.321c8.434-12.504,24.795-20.998,43.612-20.998
			C382.808,80.648,403.361,90.314,411.108,103.363z"/>
		<polygon style="fill:#FFFFFF;" points="224.632,262.721 226.733,264.892 213.128,278.032 160.8,218.735 172.516,206.595 		"/>
	</g>
	<g>
		<path style="fill:none;stroke:#231F20;stroke-width:14;" d="M411.108,103.363c3.232,5.434,4.232,11.453,2.01,17.604
			c-6.686,18.534-8.706,32.673-36.986,50.854c-28.219,18.14-62.377-28.573-62.377-50.854c0-6.999,2.192-13.584,6.06-19.321
			c8.434-12.504,24.795-20.998,43.612-20.998C382.808,80.648,403.361,90.314,411.108,103.363z"/>
		<polyline style="fill:none;stroke:#231F20;stroke-width:14;" points="410.472,103.141 411.108,103.363 479.151,127.381 
			552.468,205.605 564.87,218.836 512.542,278.123 501.119,267.084 469.112,236.147 470.688,479.91 254.983,479.819 
			256.568,236.067 226.733,264.892 213.128,278.032 160.8,218.735 172.516,206.595 250.892,125.361 319.814,101.646 
			319.825,101.646 		"/>
		<path style="fill:none;stroke:#231F20;stroke-width:14;" d="M254.346,552.601l8.868-41.057h196.939l8.898,41.188l46.904,217.2
			c0,0-42.299,19.352-128.168,31.451l-10.686-79.87c0,0-3.202-19.352-13.877-19.352h-3.081c-10.675,0-13.877,19.352-13.877,19.352
			l-10.686,79.87c-85.88-12.1-128.159-31.451-128.159-31.451L254.346,552.601z"/>
		<line style="fill:none;stroke:#231F20;stroke-width:14;" x1="258.972" y1="553.601" x2="465.012" y2="553.601"/>
		<line style="fill:none;stroke:#FFFFFF;stroke-width:7.07;" x1="258.972" y1="133.441" x2="256.952" y2="228.381"/>
		<line style="fill:none;stroke:#FFFFFF;stroke-width:7.07;" x1="471.072" y1="131.421" x2="462.992" y2="226.361"/>
		<polyline style="fill:none;stroke:#231F20;stroke-width:7.07;" points="172.112,206.161 172.516,206.595 224.632,262.721 		"/>
		<line style="fill:none;stroke:#231F20;stroke-width:7.07;" x1="551.872" y1="206.161" x2="503.392" y2="264.741"/>
	</g>
</g>
<rect style="fill:none;" width="850.394" height="850.394"/>
<g id="XMLID_15_">
	<g>
		<path style="fill:#9C5C25;" d="M786.245,199.316l-2.684-9.048l-1.699-0.142c5.431-1.401,9.888-5.902,13.842-4.446
			c3.184,1.172,2.177,6.318,2.979,8.292c1.36,3.363,2.92,4.122,4.417,7.358c2.807,6.058,2.917,15.381-3.213,7.948
			c-2.959-3.589-7.462-9.343-13.575-8.799L786.245,199.316z"/>
		<path style="fill:#FFEEC8;" d="M786.245,199.316l0.066,1.164c-0.272,0.026-0.55,0.061-0.828,0.113c0,0-16.547,5.138-28.984,14.912
			c-9.384,7.372-14.576,10.052-20.104,2.009c-1.777-2.582-3.734-5.621-5.569-8.562l17.549-11.057
			c0.611,1.091,2.252,3.552,4.104,2.362c2.345-1.508,6.365-9.884,18.261-9.551l8.107-0.177c1.039,0,2.044-0.15,3.016-0.402
			l1.699,0.142L786.245,199.316z"/>
		<path style="fill:#FFEEC8;" d="M769.298,149.33c-0.156,0.657-0.979,0.944-1.592,0.512c-0.582-0.405-1.172-2.231-3.088-4.808
			c-0.342-0.463-0.727-0.949-1.164-1.456c-1.225-1.418-2.613-2.646-3.479-3.861c-0.395-0.556-0.678-1.105-0.791-1.67
			c-0.457-2.307,0.099-4.13-0.246-8.096c2.33-1.204,4.713-3.563,9.008-4.426c1.441,1.288,4.692,3.688,5.566,5.349
			c0.182,0.35,2.729,7.904,2.671,11.74c-0.012,0.784-0.553,2.127-0.961,2.811c-0.012,0.37-0.147,0.897-0.735,1.265
			c-0.854,0.515-1.817,1.167-2.289,0.57c0.043,0.307,0.081,1.042-0.448,1.45c-0.678,0.529-1.757,0.732-2.321,0.654L769.298,149.33z"
			/>
		<path style="fill:#FFFFFF;" d="M758.938,129.952c-0.653,0.335-1.302,0.584-1.988,0.683c-2.671,0.382-6.168-3.21-8.191-4.438
			c-8.848-5.354-14.183-10-19.273-10.822c-1.561-0.254-3.097-0.147-4.703,0.408c-12.128-3.766-13.02-21.583-13.02-21.583
			l0.015-0.585c6.996,0.194,14.524,2.171,24.134,6.096c17.771,7.265,25.488,15.474,32.035,25.815
			C763.651,126.389,761.269,128.748,758.938,129.952z"/>
		<path style="fill:#FFEEC8;" d="M761.431,148.103c0.556-2.906-0.069-5.783-1.748-8.18l0.293-0.206
			c0.865,1.216,2.254,2.443,3.479,3.861c0.438,0.506,0.822,0.993,1.164,1.456C764.322,146.609,763.093,148.933,761.431,148.103z"/>
		<path style="fill:#FFFFFF;" d="M748.374,197.895l-17.549,11.057c-3.887-6.217-7.244-11.98-7.244-11.98l-0.148-0.191
			c2.426-1.858,5.017-4.125,8.102-7.08l0.513-0.51c7.213-6.663,14.388-14.573,16.354-18.961c1.745,4.7,2.342,18.727,4.162,25.025
			L748.374,197.895z"/>
		<path style="fill:#FFFFFF;" d="M746.519,153.854c2.941,5.091,4.632,10.22,1.882,16.377c-1.966,4.388-9.141,12.298-16.354,18.961
			l-0.513,0.51c-3.085,2.955-5.676,5.221-8.102,7.08c-0.955,0.732-1.887,1.398-2.81,2.023l-0.148-0.223l-25.167-17.5l-0.13-0.093
			c0,0,6.432-9.861,9.06-14.701l0.243-0.414c0.553,0.301,1.228,0.544,2.075,0.738c5.108,1.161,11.23-1.948,15.769-3.3
			c7.937-2.365,19.795-8.183,19.572-16.689C743.491,149.092,745.145,151.469,746.519,153.854z"/>
		<path style="fill:#FFEEC8;" d="M720.475,198.581l0.148,0.223c-2.854,1.919-5.662,3.404-9.028,4.972
			c-4.591,2.139-10.466,4.006-14.495,6.776c-4.524,3.115-1.465,10.339-2.09,15.338c-1.844,14.744-9.384,20.608-10.724,30.496
			c-0.044,0.324-0.084,0.64-0.119,0.952l-0.463-0.049l-8.376-2.012l-1.19-0.153c0.11-0.819,0.134-1.728,0.064-2.729
			c0,0,0.703-5.896,0.367-13.937c-0.336-8.043,0-30.325,1.676-35.688c1.673-5.361,18.429-20.776,18.429-20.776l0.634-0.912
			L720.475,198.581z"/>
		<path style="fill:#FFEEC8;" d="M693.716,85.615c0,4.808-1.369,9.213-3.646,12.646c-2.909,4.382-7.3,7.175-12.212,7.175
			c-1.166,0-2.307-0.156-3.4-0.457c-7.127-1.945-12.461-9.876-12.461-19.364c0-10.947,7.1-19.824,15.861-19.824
			C686.616,65.791,693.716,74.668,693.716,85.615z"/>
		<path style="fill:#9C5C25;" d="M683.704,257.289l0.463,0.049c-1.126,9.676,1.149,14.223-4.599,15.766
			c-2.435,0.654-5.899-1.447-7.969-1.942c-3.528-0.845-5.054-0.018-8.559-0.683c-6.556-1.233-14.212-6.564-4.594-7.23
			c4.42-0.307,14.567,0.458,15.69-8.125l1.19,0.153L683.704,257.289z"/>
		<path style="fill:#FFFFFF;" d="M680.23,133.674c-3.933-5.291-8.949-19.865-9.962-27.335c1.349-0.903,2.744-1.387,4.156-1.245
			l0.032-0.116c1.094,0.301,2.234,0.457,3.4,0.457c4.912,0,9.303-2.793,12.212-7.175l0.249,0.168
			c7.699-3.349,14.301-5.016,21.459-4.813l-0.015,0.585c0,0,0.892,17.818,13.02,21.583c1.606-0.556,3.143-0.663,4.703-0.408
			l-0.208,1.508c5.007,11.63,10.625,18.64,12.457,28.221c0.099,0.515,0.15,1.021,0.162,1.52
			c0.223,8.506-11.636,14.324-19.572,16.689c-4.538,1.352-10.66,4.46-15.769,3.3c-0.848-0.194-1.522-0.437-2.075-0.738
			c-2.174-1.181-2.475-3.216-3.885-6.315c-5.238-11.523-11.685-17.861-20.883-25.801c0.136-0.003,0.272-0.003,0.411-0.003
			L680.23,133.674z"/>
		<circle style="fill:#FFFFFF;" cx="637.631" cy="248.073" r="18.264"/>
		<path style="fill:#FFFFFF;" d="M679.713,133.758c-12.718,0.122-11.777,11.615-20.513,15.833
			c-8.776,4.234-10.651-1.051-14.857-8.247c-0.102-0.173-0.205-0.35-0.31-0.527c2.37-1.896,6.231-5.806,6.472-9.268l0.475,0.006
			c6.079,2.043,4.95-2.281,7.442-7.52c1.907-4.012,6.506-14.13,11.847-17.696c1.013,7.47,6.029,22.044,9.962,27.335l-0.106,0.081
			C679.985,133.755,679.849,133.755,679.713,133.758z"/>
		<path style="fill:#FFEEC8;" d="M635.171,122.188c0.892-0.793,1.847-0.347,2.052-0.237l0.006-0.014
			c0.463,0.205,1.306,0.654,2.11,1.273c0.237,0.692,0.625,1.268,1.181,1.685c0.183,0.136,0.379,0.234,0.579,0.304
			c0.292,0.62,0.37,1.288,0.075,1.977c-0.868,2.02-2.55,1.372-3.045,1.016c-0.003-0.006-0.006-0.009-0.009-0.006
			c-0.119-0.125-0.246-0.232-0.376-0.324c-1.21-0.869-2.171-2.339-3.523-2.996c-0.234-0.113-0.391-0.243-0.48-0.382
			C633.313,123.827,634.354,122.93,635.171,122.188z"/>
		<path style="fill:#FFEEC8;" d="M634.803,130.6c-0.277-0.211-0.559-0.469-0.862-0.758l-0.66,0.073
			c-2.59-1.433-2.46-2.232-3.69-2.246c-0.006,0-0.012,0-0.02,0l1.019-0.813c0.099-0.646,0.671-1.76,1.476-2.33
			c0.582-0.422,1.323-0.194,1.676-0.041c0.09,0.139,0.246,0.269,0.48,0.382c1.353,0.657,2.313,2.127,3.523,2.996
			c0.13,0.092,0.257,0.2,0.376,0.324c0.003-0.003,0.006,0,0.009,0.006c0.781,0.787,1.187,2.072-0.385,2.718
			C636.43,131.445,635.634,131.228,634.803,130.6z"/>
		<path style="fill:#FFEEC8;" d="M643.454,141.396c-4.865-1.551-4.856-1.192-9.328-3.548c-1.864-0.987-3.294-2.796-4.492-4.46
			c-0.24-0.336-0.57-0.808-0.886-1.311l0.842-0.171c0.66,0.677,2.93,2.24,4.399,1.311c0.927-0.579,1.266-1.563,0.813-2.617
			c0.831,0.628,1.627,0.845,2.941,0.31c1.571-0.646,1.166-1.931,0.385-2.718c0.495,0.356,2.177,1.004,3.045-1.016
			c0.295-0.689,0.217-1.357-0.075-1.977c-0.359-0.758-1.045-1.438-1.76-1.988c-0.197-0.573-0.29-1.222-0.29-1.925
			c0-0.654,1.204-0.674,2.483-0.405c0,0,0,0,0.003,0c1.063,0.339,1.957,0.709,2.704,1.071c1.857,0.903,2.79,1.76,3.004,1.974
			c1.673,1.629,1.748,3.615,2.929,5.821l0.07-0.026c0.231,0.585,0.307,1.201,0.263,1.83c-0.24,3.461-4.102,7.372-6.472,9.268
			c0.104,0.177,0.208,0.354,0.31,0.527L643.454,141.396z"/>
		<path style="fill:#FFEEC8;" d="M628.748,132.076c-0.411-0.646-0.802-1.34-0.97-1.853c-0.333-0.996,0.613-2.556,1.792-2.556
			c0.008,0,0.014,0,0.02,0c1.23,0.014,1.101,0.813,3.69,2.246l0.66-0.073c0.304,0.29,0.585,0.547,0.862,0.758
			c0.452,1.054,0.113,2.038-0.813,2.617c-1.47,0.929-3.739-0.634-4.399-1.311L628.748,132.076z"/>
	</g>
	<g>
		<path style="fill:none;stroke:#231F20;stroke-width:6.0783;" d="M674.457,104.979c-7.127-1.945-12.461-9.876-12.461-19.364
			c0-10.947,7.1-19.824,15.861-19.824c8.759,0,15.858,8.877,15.858,19.824c0,4.808-1.369,9.213-3.646,12.646
			c-2.909,4.382-7.3,7.175-12.212,7.175C676.691,105.436,675.551,105.279,674.457,104.979z"/>
		<path style="fill:none;stroke:#231F20;stroke-width:6.0783;" d="M674.425,105.094c-1.412-0.142-2.808,0.341-4.156,1.245
			c-5.341,3.566-9.939,13.685-11.847,17.696c-2.492,5.239-1.363,9.563-7.442,7.52"/>
		<path style="fill:none;stroke:#231F20;stroke-width:6.0783;" d="M644.033,140.817c0.104,0.177,0.208,0.354,0.31,0.527
			c4.206,7.196,6.081,12.481,14.857,8.247c8.735-4.217,7.795-15.711,20.513-15.833c0.136-0.003,0.272-0.003,0.411-0.003"/>
		<path style="fill:none;stroke:#231F20;stroke-width:6.0783;" d="M678.271,132.519c0.489,0.417,0.97,0.831,1.441,1.239
			c9.198,7.939,15.645,14.278,20.883,25.801c1.41,3.1,1.711,5.135,3.885,6.315c0.553,0.301,1.228,0.544,2.075,0.738
			c5.108,1.161,11.23-1.948,15.769-3.3c7.937-2.365,19.795-8.183,19.572-16.689c-0.012-0.498-0.063-1.004-0.162-1.52
			c-1.832-9.581-7.45-16.591-12.457-28.221"/>
		<path style="fill:none;stroke:#231F20;stroke-width:6.0783;" d="M690.318,98.428c7.699-3.349,14.301-5.016,21.459-4.813
			c6.996,0.194,14.524,2.171,24.134,6.096c17.771,7.265,25.488,15.474,32.035,25.815c-4.295,0.863-6.678,3.222-9.008,4.426
			c-0.653,0.335-1.302,0.584-1.988,0.683c-2.671,0.382-6.168-3.21-8.191-4.438c-8.848-5.354-14.183-10-19.273-10.822
			c-1.561-0.254-3.097-0.147-4.703,0.408c-0.426,0.145-0.854,0.321-1.291,0.533"/>
		<path style="fill:none;stroke:#231F20;stroke-width:6.7019;" d="M746.519,153.854c-1.374-2.385-3.027-4.761-4.622-7.23
			c-0.003-0.003-0.003-0.006-0.006-0.009"/>
		<path style="fill:none;stroke:#231F20;stroke-width:6.0783;" d="M694.674,181.993c0,0-16.756,15.416-18.429,20.776
			c-1.676,5.363-2.012,27.645-1.676,35.688c0.336,8.041-0.367,13.937-0.367,13.937c0.069,1.001,0.046,1.911-0.064,2.729
			c-1.123,8.582-11.271,7.818-15.69,8.125c-9.618,0.666-1.962,5.998,4.594,7.23c3.505,0.666,5.03-0.162,8.559,0.683
			c2.069,0.495,5.534,2.596,7.969,1.942c5.748-1.543,3.473-6.09,4.599-15.766c0.035-0.313,0.075-0.628,0.119-0.952
			c1.34-9.888,8.88-15.751,10.724-30.496c0.625-4.999-2.435-12.223,2.09-15.338c4.029-2.77,9.904-4.637,14.495-6.776
			c3.366-1.568,6.174-3.053,9.028-4.972c0.923-0.625,1.854-1.291,2.81-2.023c2.426-1.858,5.017-4.125,8.102-7.08l0.513-0.51
			c7.213-6.663,14.388-14.573,16.354-18.961c2.75-6.157,1.06-11.286-1.882-16.377"/>
		<path style="fill:none;stroke:#231F20;stroke-width:6.0783;" d="M748.4,170.23c1.745,4.7,2.342,18.727,4.162,25.025l-4.188,2.64
			l-17.549,11.057l-0.295,0.186"/>
		<path style="fill:none;stroke:#231F20;stroke-width:6.0783;" d="M670.213,105.928c0.018,0.133,0.035,0.272,0.056,0.411
			c1.013,7.47,6.029,22.044,9.962,27.335c0.567,0.767,1.112,1.34,1.621,1.667"/>
		<path style="fill:none;stroke:#231F20;stroke-width:2.0261;" d="M638.12,128.186c-0.015-0.012-0.029-0.023-0.041-0.032"/>
		<path style="fill:none;stroke:#231F20;stroke-width:2.0261;" d="M641.532,120.88c-0.237-0.078-0.486-0.153-0.74-0.226
			c-1.341-0.379-4.255,0.981-3.566,1.279l0.003,0.003c0.463,0.205,1.306,0.654,2.11,1.273c0.715,0.55,1.4,1.23,1.76,1.988
			c0.292,0.62,0.37,1.288,0.075,1.977c-0.868,2.02-2.55,1.372-3.045,1.016"/>
		<path style="fill:none;stroke:#231F20;stroke-width:2.0261;" d="M650.172,129.746c-1.181-2.206-1.256-4.191-2.929-5.821
			c-0.214-0.214-1.146-1.071-3.004-1.974c-0.747-0.362-1.642-0.732-2.704-1.071"/>
		<path style="fill:none;stroke:#231F20;stroke-width:2.0261;" d="M637.264,121.975c0,0-0.015-0.009-0.041-0.023
			c-0.205-0.11-1.16-0.556-2.052,0.237c-0.816,0.741-1.858,1.638-1.431,2.295c0.09,0.139,0.246,0.269,0.48,0.382
			c1.353,0.657,2.313,2.127,3.523,2.996c0.13,0.092,0.257,0.2,0.376,0.324c0.003-0.003,0.006,0,0.009,0.006
			c0.781,0.787,1.187,2.072-0.385,2.718c-1.314,0.535-2.11,0.318-2.941-0.31c-0.277-0.211-0.559-0.469-0.862-0.758
			c-0.454-0.428-0.958-0.932-1.583-1.464"/>
		<path style="fill:none;stroke:#231F20;stroke-width:2.0261;" d="M633.943,124.583c0,0-0.075-0.043-0.203-0.099
			c-0.353-0.153-1.094-0.382-1.676,0.041c-0.805,0.57-1.377,1.685-1.476,2.33"/>
		<path style="fill:none;stroke:#231F20;stroke-width:2.0261;" d="M643.454,141.396c-4.865-1.551-4.856-1.192-9.328-3.548
			c-1.864-0.987-3.294-2.796-4.492-4.46c-0.24-0.336-0.57-0.808-0.886-1.311c-0.411-0.646-0.802-1.34-0.97-1.853
			c-0.333-0.996,0.613-2.556,1.792-2.556c0.008,0,0.014,0,0.02,0c1.23,0.014,1.101,0.813,3.69,2.246"/>
		<path style="fill:none;stroke:#231F20;stroke-width:2.0261;" d="M633.478,128.982c0.665,0.527,1.097,1.08,1.325,1.618
			c0.452,1.054,0.113,2.038-0.813,2.617c-1.47,0.929-3.739-0.634-4.399-1.311"/>
		<path style="fill:none;stroke:#231F20;stroke-width:2.0261;stroke-miterlimit:10;" d="M767.946,125.526
			c1.441,1.288,4.692,3.688,5.566,5.349c0.182,0.35,2.729,7.904,2.671,11.74c-0.012,0.784-0.553,2.127-0.961,2.811
			c-0.223,0.379-0.408,0.553-0.437,0.321c-0.096-0.732,0.099-0.906-0.874-4.799c-0.29-1.178-2.252-4.472-2.252-4.472"/>
		<path style="fill:none;stroke:#231F20;stroke-width:2.0261;stroke-miterlimit:10;" d="M775.183,144.988c0,0,0.049,0.18,0.04,0.438
			c-0.012,0.37-0.147,0.897-0.735,1.265c-0.854,0.515-1.817,1.167-2.289,0.57c-0.081-0.107-0.15-0.252-0.199-0.446
			c-0.359-1.456-0.377-2.356-1.769-5.106c-0.875-1.725-2.209-4.452-2.209-4.452"/>
		<path style="fill:none;stroke:#231F20;stroke-width:2.0261;stroke-miterlimit:10;" d="M772.172,147.118
			c0,0,0.015,0.052,0.026,0.142c0.043,0.307,0.081,1.042-0.448,1.45c-0.678,0.529-1.757,0.732-2.321,0.654"/>
		<path style="fill:none;stroke:#231F20;stroke-width:2.0261;stroke-miterlimit:10;" d="M758.869,129.208
			c0.026,0.258,0.053,0.504,0.069,0.744c0.345,3.965-0.211,5.789,0.246,8.096c0.113,0.564,0.396,1.114,0.791,1.67
			c0.865,1.216,2.254,2.443,3.479,3.861c0.438,0.506,0.822,0.993,1.164,1.456c1.916,2.576,2.506,4.402,3.088,4.808
			c0.613,0.432,1.436,0.145,1.592-0.512c0.038-0.156,0.038-0.33-0.012-0.524c-0.286-1.169,0.038-1.363-1.716-4.755
			c-0.562-1.074-0.952-2.605-3.743-5.934"/>
		<path style="fill:none;stroke:#231F20;stroke-width:4.0522;stroke-miterlimit:10;" d="M644.033,140.817
			c2.37-1.896,6.231-5.806,6.472-9.268c0.044-0.628-0.031-1.245-0.263-1.83c-0.047-0.127-0.102-0.251-0.165-0.373"/>
		<path style="fill:none;stroke:#231F20;stroke-width:2.0261;" d="M759.523,139.697c0.055,0.076,0.107,0.151,0.159,0.226
			c1.679,2.396,2.304,5.273,1.748,8.18c1.662,0.831,2.892-1.494,3.188-3.068c0.014-0.069,0.025-0.142,0.034-0.208"/>
		<path style="fill:none;stroke:#231F20;stroke-width:2.0261;" d="M644.239,121.951c-0.519-0.422-1.636-0.848-2.704-1.071
			c-0.003,0-0.003,0-0.003,0c-1.279-0.269-2.483-0.249-2.483,0.405c0,0.703,0.093,1.352,0.29,1.925
			c0.237,0.692,0.625,1.268,1.181,1.685c0.183,0.136,0.379,0.234,0.579,0.304c1.313,0.458,2.865-0.275,2.865,0.964
			c0,4.307,1.225,5.06,2.521,6.356"/>
		<path style="fill:none;stroke:#231F20;stroke-width:6.0783;" d="M748.122,197.409c0,0,0.09,0.194,0.252,0.486
			c0.611,1.091,2.252,3.552,4.104,2.362c2.345-1.508,6.365-9.884,18.261-9.551l8.107-0.177c1.039,0,2.044-0.15,3.016-0.402
			c5.431-1.401,9.888-5.902,13.842-4.446c3.184,1.172,2.177,6.318,2.979,8.292c1.36,3.363,2.92,4.122,4.417,7.358
			c2.807,6.058,2.917,15.381-3.213,7.948c-2.959-3.589-7.462-9.343-13.575-8.799c-0.272,0.026-0.55,0.061-0.828,0.113
			c0,0-16.547,5.138-28.984,14.912c-9.384,7.372-14.576,10.052-20.104,2.009c-1.777-2.582-3.734-5.621-5.569-8.562
			c-3.887-6.217-7.244-11.98-7.244-11.98"/>
		<path style="fill:none;stroke:#231F20;stroke-width:6.0783;" d="M720.475,198.581l-25.167-17.5l-0.13-0.093
			c0,0,6.432-9.861,9.06-14.701"/>
		<path style="fill:none;stroke:#231F20;stroke-width:6.0783;" d="M711.763,94.2c0,0,0.892,17.818,13.02,21.583
			c0.755,0.234,1.551,0.414,2.396,0.533"/>
		<line style="fill:none;stroke:#231F20;stroke-width:6.7019;" x1="675.328" y1="255.277" x2="683.704" y2="257.289"/>
		<line style="fill:none;stroke:#231F20;stroke-width:6.7019;" x1="783.562" y1="190.269" x2="786.245" y2="199.316"/>
		<circle style="fill:none;stroke:#231F20;stroke-width:6.0783;" cx="637.629" cy="248.073" r="18.262"/>
	</g>
</g>
</svg>
