<?xml version="1.0" encoding="iso-8859-1"?>
<!-- Generator: Adobe Illustrator 12.0.1, SVG Export Plug-In . SVG Version: 6.00 Build 51448)  -->
<!DOCTYPE svg PUBLIC "-//W3C//DTD SVG 1.1//EN" "http://www.w3.org/Graphics/SVG/1.1/DTD/svg11.dtd" [
	<!ENTITY ns_svg "http://www.w3.org/2000/svg">
	<!ENTITY ns_xlink "http://www.w3.org/1999/xlink">
]>
<svg  version="1.1" id="Layer_1" xmlns="&ns_svg;" xmlns:xlink="&ns_xlink;" width="850.394" height="850.394"
	 viewBox="0 0 850.394 850.394" style="overflow:visible;enable-background:new 0 0 850.394 850.394;" xml:space="preserve">
<g>
	<g>
		<g>
			<g id="XMLID_1_">
				<g>
					<polygon style="fill:#FFFFFF;" points="455.39,580.76 455.39,695.77 451.97,695.77 185.71,719.74 185.18,598.15 187.96,598.14 
						452.76,580.76 					"/>
					<polygon style="fill:#FFFFFF;" points="455.39,461.15 455.39,580.76 452.76,580.76 187.96,598.14 185.18,598.15 184.63,469.32 
						184.89,469.32 					"/>
					<polygon style="fill:#FFFFFF;" points="455.39,335.41 455.39,461.15 184.89,469.32 184.63,469.32 184.06,338.47 186.94,338.46 
											"/>
					<polygon style="fill:#FFFFFF;" points="455.39,226.97 455.39,335.41 186.94,338.46 184.06,338.47 183.58,227.19 					"/>
					<polygon style="fill:#FFFFFF;" points="455.39,461.15 455.39,335.41 455.39,226.97 455.39,212.97 460.16,212.97 625.01,195.83 
						625.01,773.26 619.42,775.89 455.39,706.24 455.39,695.77 455.39,580.76 					"/>
					<polygon style="fill:#FFF5B4;" points="654.96,205.87 655.68,758.83 625.01,773.26 625.01,195.83 					"/>
					<polygon style="fill:#FFF5B4;" points="153.01,186.68 153.01,767.69 84.04,683.49 84.04,220.79 					"/>
					<polygon style="fill:#FFF5B4;" points="455.39,706.24 455.39,746.46 157.98,773.76 153.01,767.69 153.01,186.68 455.39,188.81 
						455.39,212.97 455.39,226.97 183.58,227.19 184.06,338.47 184.63,469.32 185.18,598.15 185.71,719.74 451.97,695.77 
						455.39,695.77 					"/>
				</g>
				<g>
					<polygon style="fill:none;stroke:#231F20;stroke-width:21;" points="153.01,186.68 84.04,220.79 84.04,683.49 153.01,767.69 
						157.98,773.76 455.39,746.46 455.39,706.24 455.39,695.77 455.39,580.76 455.39,461.15 455.39,335.41 455.39,226.97 
						455.39,212.97 455.39,188.81 					"/>
					<line style="fill:none;stroke:#231F20;stroke-width:21;" x1="153.01" y1="186.68" x2="153.01" y2="767.69"/>
					<polyline style="fill:none;stroke:#231F20;stroke-width:14;" points="455.39,226.97 183.58,227.19 184.06,338.47 
						184.63,469.32 185.18,598.15 185.71,719.74 451.97,695.77 					"/>
					<polyline style="fill:none;stroke:#231F20;stroke-width:21;" points="460.16,212.97 625.01,195.83 654.96,205.87 
						655.68,758.83 625.01,773.26 619.42,775.89 455.39,706.24 					"/>
					<polyline style="fill:none;stroke:#231F20;stroke-width:21;" points="625.01,195.83 625.01,773.26 625.01,775.89 					"/>
					<polyline style="fill:none;stroke:#231F20;stroke-width:14;" points="186.94,338.46 455.39,335.41 456.84,335.39 					"/>
					<polyline style="fill:none;stroke:#231F20;stroke-width:14;" points="184.89,469.32 455.39,461.15 455.82,461.14 					"/>
					<line style="fill:none;stroke:#231F20;stroke-width:14;" x1="187.96" y1="598.14" x2="452.76" y2="580.76"/>
					<polyline style="fill:none;stroke:#231F20;stroke-width:7.4108;" points="779.39,36.76 732.91,111.91 732.74,112.18 					"/>
					<line style="fill:none;stroke:#231F20;stroke-width:7.4108;" x1="797.9" y1="58.02" x2="762.23" y2="65.6"/>
					<line style="fill:none;stroke:#231F20;stroke-width:7.4108;" x1="752.12" y1="29.7" x2="761.26" y2="65"/>
					<polyline style="fill:none;stroke:#231F20;stroke-width:7.4108;" points="686.18,187.46 732.64,112.35 732.73,112.2 
						732.74,112.18 					"/>
					<line style="fill:none;stroke:#231F20;stroke-width:7.4108;" x1="667.67" y1="166.2" x2="703.34" y2="158.62"/>
					<line style="fill:none;stroke:#231F20;stroke-width:7.4108;" x1="713.46" y1="194.52" x2="704.31" y2="159.22"/>
					<line style="fill:none;stroke:#231F20;stroke-width:7.4108;" x1="686.03" y1="36.11" x2="732.68" y2="111.53"/>
					<line style="fill:none;stroke:#231F20;stroke-width:7.4108;" x1="667.52" y1="57.37" x2="703.19" y2="64.95"/>
					<line style="fill:none;stroke:#231F20;stroke-width:7.4108;" x1="713.31" y1="29.05" x2="704.16" y2="64.35"/>
					<polyline style="fill:none;stroke:#231F20;stroke-width:7.4108;" points="779.25,186.81 733.1,112.21 732.91,111.91 
						732.78,111.7 732.68,111.53 					"/>
					<line style="fill:none;stroke:#231F20;stroke-width:7.4108;" x1="797.75" y1="165.55" x2="762.08" y2="157.97"/>
					<line style="fill:none;stroke:#231F20;stroke-width:7.4108;" x1="751.96" y1="193.87" x2="761.11" y2="158.57"/>
					<polyline style="fill:none;stroke:#231F20;stroke-width:7.4108;" points="821.66,112.21 733.1,112.21 732.79,112.21 					"/>
					<line style="fill:none;stroke:#231F20;stroke-width:7.4108;" x1="813.33" y1="139.13" x2="788.12" y2="112.78"/>
					<line style="fill:none;stroke:#231F20;stroke-width:7.4108;" x1="813.33" y1="85.29" x2="788.12" y2="111.64"/>
					<polyline style="fill:none;stroke:#231F20;stroke-width:7.4108;" points="644.47,112.2 732.73,112.2 732.99,112.2 					"/>
					<line style="fill:none;stroke:#231F20;stroke-width:7.4108;" x1="652.82" y1="85.28" x2="678.02" y2="111.63"/>
					<line style="fill:none;stroke:#231F20;stroke-width:7.4108;" x1="652.82" y1="139.11" x2="678.02" y2="112.77"/>
				</g>
			</g>
		</g>
	</g>
</g>
<rect style="fill:none;" width="850.394" height="850.394"/>
</svg>
