<?xml version="1.0" encoding="iso-8859-1"?>
<!-- Generator: Adobe Illustrator 12.0.1, SVG Export Plug-In . SVG Version: 6.00 Build 51448)  -->
<!DOCTYPE svg PUBLIC "-//W3C//DTD SVG 1.1//EN" "http://www.w3.org/Graphics/SVG/1.1/DTD/svg11.dtd" [
	<!ENTITY ns_svg "http://www.w3.org/2000/svg">
	<!ENTITY ns_xlink "http://www.w3.org/1999/xlink">
]>
<svg  version="1.1" id="Layer_1" xmlns="&ns_svg;" xmlns:xlink="&ns_xlink;" width="850.394" height="850.394"
	 viewBox="0 0 850.394 850.394" style="overflow:visible;enable-background:new 0 0 850.394 850.394;" xml:space="preserve">
<g id="XMLID_4_">
	<g>
		<path style="fill:#9E5C26;" d="M617.85,559.97c11.33-11.149,19.4-24.97,19.7-41.77c1.05-58.45-23.21-78.63-54.84-66.94
			c-9.9,3.65,31.34-66.65,84.37-11.689c35.18,36.46,34.91,103.8,82.29,117.39L748,562l2,68H68v-30.37
			c13.75-3.63,92.98-26.87,93.94-80.24c1.06-58.439-23.2-78.63-54.83-66.939c-9.9,3.66,31.34-66.65,84.36-11.69
			c32.55,33.73,44.74,141.13,112.84,119l0.35,0.351c11.33-11.17,19.39-24.98,19.69-41.78c1.05-58.44-23.2-78.63-54.84-66.94
			c-9.9,3.65,31.34-66.649,84.37-11.689c19.87,20.6,27.61,49.109,39.8,74.319c9.72,20.11,38.4,58.591,65.37,43.24
			c9.41-10.45,15.82-23.04,16.09-38c1.07-58.439-23.189-78.64-54.83-66.939c-9.9,3.66,31.34-66.65,84.37-11.7
			c32.54,33.74,44.73,141.14,112.83,119.01L617.85,559.97z"/>
		<path style="fill:#9E5C26;" d="M231.54,286.53c-11.33,11.15-19.4,24.97-19.7,41.77c-1.05,58.45,23.2,78.63,54.84,66.94
			c9.9-3.66-31.34,66.649-84.37,11.69c-36.91-38.25-34.8-110.5-89.63-119L92,228h682l9.41,18.36c0,0-94.91,22.31-95.96,80.74
			c-1.07,58.45,23.189,78.64,54.83,66.94c9.899-3.65-31.34,66.66-84.37,11.7c-32.54-33.74-44.73-141.14-112.83-119l-0.34-0.34
			c-11.33,11.15-19.4,24.97-19.7,41.77c-1.05,58.44,23.2,78.62,54.84,66.94c9.9-3.66-31.34,66.64-84.36,11.68
			c-19.88-20.59-27.63-49.1-39.81-74.31c-9.729-20.11-38.39-58.59-65.37-43.25c-9.4,10.46-15.82,23.05-16.09,38.01
			c-1.07,58.44,23.19,78.63,54.83,66.94c9.9-3.66-31.34,66.65-84.37,11.69c-32.54-33.73-44.74-141.14-112.83-119L231.54,286.53z"/>
	</g>
	<g>
		<path style="fill:none;stroke:#231F20;stroke-width:20.921;" d="M65.98,600.14c0,0,0.71-0.17,2.02-0.51
			c13.75-3.63,92.98-26.87,93.94-80.24c1.06-58.439-23.2-78.63-54.83-66.939c-9.9,3.66,31.34-66.65,84.36-11.69
			c32.55,33.73,44.74,141.13,112.84,119"/>
		<path style="fill:none;stroke:#231F20;stroke-width:20.921;" d="M228.38,599.08c0,0,48.19-11.33,76.28-38.97
			c11.33-11.17,19.39-24.98,19.69-41.78c1.05-58.44-23.2-78.63-54.84-66.94c-9.9,3.65,31.34-66.649,84.37-11.689
			c19.87,20.6,27.61,49.109,39.8,74.319c9.72,20.11,38.4,58.591,65.37,43.24c0.09-0.05,0.181-0.1,0.271-0.149"/>
		<path style="fill:none;stroke:#231F20;stroke-width:20.921;" d="M379.18,600c0,0,52.54-12.35,79.87-42.74
			c9.41-10.45,15.82-23.04,16.09-38c1.07-58.439-23.189-78.64-54.83-66.939c-9.9,3.66,31.34-66.65,84.37-11.7
			c32.54,33.74,44.73,141.14,112.83,119.01"/>
		<path style="fill:none;stroke:#231F20;stroke-width:20.921;" d="M541.58,598.95c0,0,48.18-11.33,76.27-38.98
			c11.33-11.149,19.4-24.97,19.7-41.77c1.05-58.45-23.21-78.63-54.84-66.94c-9.9,3.65,31.34-66.65,84.37-11.689
			c35.18,36.46,34.91,103.8,82.29,117.39c2.33,0.67,4.77,1.21,7.34,1.61"/>
		<path style="fill:none;stroke:#231F20;stroke-width:20.921;" d="M783.41,246.36c0,0-94.91,22.31-95.96,80.74
			c-1.07,58.45,23.189,78.64,54.83,66.94c9.899-3.65-31.34,66.66-84.37,11.7c-32.54-33.74-44.73-141.14-112.83-119"/>
		<path style="fill:none;stroke:#231F20;stroke-width:20.921;" d="M621,247.42c0,0-48.17,11.32-76.26,38.98
			c-11.33,11.15-19.4,24.97-19.7,41.77c-1.05,58.44,23.2,78.62,54.84,66.94c9.9-3.66-31.34,66.64-84.36,11.68
			c-19.88-20.59-27.63-49.1-39.81-74.31c-9.729-20.11-38.39-58.59-65.37-43.25c-0.09,0.05-0.19,0.11-0.28,0.16"/>
		<path style="fill:none;stroke:#231F20;stroke-width:20.921;" d="M470.21,246.49c0,0-52.53,12.35-79.87,42.74
			c-9.4,10.46-15.82,23.05-16.09,38.01c-1.07,58.44,23.19,78.63,54.83,66.94c9.9-3.66-31.34,66.65-84.37,11.69
			c-32.54-33.73-44.74-141.14-112.83-119"/>
		<path style="fill:none;stroke:#231F20;stroke-width:20.921;" d="M307.81,247.55c0,0-48.18,11.33-76.27,38.98
			c-11.33,11.15-19.4,24.97-19.7,41.77c-1.05,58.45,23.2,78.63,54.84,66.94c9.9-3.66-31.34,66.649-84.37,11.69
			c-36.91-38.25-34.8-110.5-89.63-119"/>
		<line style="fill:none;stroke:#231F20;stroke-width:20.921;" x1="306.78" y1="161.02" x2="548.73" y2="161.02"/>
		<polyline style="fill:none;stroke:#231F20;stroke-width:20.921;" points="489.97,215.63 549.88,160.82 489.88,106.03 		"/>
		<line style="fill:none;stroke:#231F20;stroke-width:20.921;" x1="560.95" y1="687.86" x2="319" y2="687.86"/>
		<polyline style="fill:none;stroke:#231F20;stroke-width:20.921;" points="377.76,633.26 317.86,688.06 377.85,742.85 		"/>
	</g>
</g>
<rect style="fill:none;" width="850.394" height="850.394"/>
</svg>
