<?xml version="1.0" encoding="iso-8859-1"?>
<!-- Generator: Adobe Illustrator 12.0.1, SVG Export Plug-In . SVG Version: 6.00 Build 51448)  -->
<!DOCTYPE svg PUBLIC "-//W3C//DTD SVG 1.1//EN" "http://www.w3.org/Graphics/SVG/1.1/DTD/svg11.dtd" [
	<!ENTITY ns_svg "http://www.w3.org/2000/svg">
	<!ENTITY ns_xlink "http://www.w3.org/1999/xlink">
]>
<svg  version="1.1" id="Layer_1" xmlns="&ns_svg;" xmlns:xlink="&ns_xlink;" width="850.394" height="850.394"
	 viewBox="0 0 850.394 850.394" style="overflow:visible;enable-background:new 0 0 850.394 850.394;" xml:space="preserve">
<g id="XMLID_2_">
	<g>
		<polygon style="fill:#F73900;" points="783.61,786.22 785.42,810.42 765.31,824.12 743.52,813.52 741.72,789.32 761.72,775.71 		
			"/>
		<polygon style="fill:#FFA500;" points="759.32,616.02 761.11,640.22 741.11,653.82 719.22,643.32 717.41,619.12 737.52,605.42 		
			"/>
		<polygon style="fill:#00E800;" points="728.62,744.42 715.12,754.82 714.42,773.12 702.22,762.12 687.01,767.92 692.92,750.71 
			684.22,736.02 700.02,736.32 709.91,721.52 713.72,738.92 		"/>
		<polygon style="fill:#A800D4;" points="704.51,534.12 694.22,546.92 700.92,561.82 683.42,556.92 669.32,566.52 668.62,550.62 
			653.21,541.62 670.42,536.82 675.02,521.62 686.22,534.51 		"/>
		<polygon style="fill:#F73900;" points="676.52,440.32 678.32,464.52 658.21,478.22 636.42,467.62 634.62,443.42 654.62,429.72 		
			"/>
		<path style="fill:#A3D9FF;" d="M653.21,379.42c-18.49,34.2-45.39,55.4-60.09,47.4c-0.8-0.4-1.5-0.9-2.2-1.5
			c-12.2-10.1-8.6-42.4,8.9-74.7c16.3-30.2,39.199-50.2,54.399-49c2.101,0.1,3.99,0.7,5.69,1.6
			C674.72,311.22,671.62,345.32,653.21,379.42z"/>
		<polygon style="fill:#F73900;" points="635.82,670.31 625.62,683.02 632.32,698.02 614.72,693.12 600.62,702.62 600.02,686.82 
			584.51,677.81 601.72,673.02 606.32,657.81 617.62,670.62 		"/>
		<polygon style="fill:#A800D4;" points="615.42,744.01 627.81,764.91 616.02,786.11 591.72,786.42 579.32,765.62 591.12,744.42 		
			"/>
		<path style="fill:#A3D9FF;" d="M590.82,425.52l-81.311-43.9l5.311-9.9l24.3-0.4l11.8-21.2l-12.4-20.8l-16.399,0.3l-0.2-13
			l11.8-21.2l-12.399-20.8l-24.301,0.3l-11.8,21.2l-9.1-2.3l-14.8-5.5l-3.9-17.4l-1.8-7l0.7-18.3l13.5-10.4l-14.9-5.5l-3.8-17.4
			l8.6-15.9l194.5,105.2c-15.2-1.2-38.1,18.8-54.399,49c-17.5,32.3-21.101,64.6-8.9,74.7L590.82,425.52z"/>
		<polygon style="fill:#FFA500;" points="538.52,329.32 550.92,350.12 539.12,371.32 514.82,371.72 502.42,350.82 514.22,329.72 
			522.12,329.62 		"/>
		<polygon style="fill:#00E800;" points="521.32,274.62 533.72,295.42 521.92,316.62 497.62,317.02 485.22,296.12 497.02,274.92 		
			"/>
		<polygon style="fill:#FFA500;" points="476.12,293.82 462.62,304.32 461.92,322.52 449.82,311.52 434.52,317.32 440.42,300.12 
			431.72,285.42 447.52,285.72 457.42,270.92 461.32,288.32 		"/>
		<polygon style="fill:#F73900;" points="469.82,235.22 456.32,245.62 455.62,263.92 443.52,252.92 428.22,258.72 434.12,241.52 
			425.42,226.82 441.22,227.12 451.12,212.32 454.92,229.72 		"/>
		<polygon style="fill:#A800D4;" points="388.92,241.32 401.32,262.12 389.52,283.32 365.22,283.72 352.82,262.82 364.62,241.72 		
			"/>
		<path style="fill:#A3D9FF;" d="M158.12,33.32l301.6,163.1l-8.6,15.9l-9.9,14.8l-15.8-0.3l8.7,14.7l-5.9,17.2l15.3-5.8l12.101,11
			l1.8,7l-9.9,14.8l-15.8-0.3l8.7,14.7l-5.9,17.2l15.301-5.8l12.1,11l0.7-18.2l13.5-10.5l9.1,2.3l12.4,20.9l24.3-0.4l0.2,13
			l-7.9,0.1l-11.8,21.1l12.4,20.9l-5.311,9.9L92.02,155.82h-0.1c-14.6-8.2-11.6-42.3,6.91-76.3
			C117.22,45.52,143.32,25.52,158.12,33.32z M401.32,262.12l-12.4-20.8l-24.3,0.4l-11.8,21.1l12.4,20.9l24.3-0.4L401.32,262.12z"/>
	</g>
	<g>
		<path style="fill:none;stroke:#000000;stroke-width:25.5752;" d="M590.92,425.32c-12.2-10.1-8.6-42.4,8.9-74.7
			c16.3-30.2,39.199-50.2,54.399-49c2.101,0.1,3.99,0.7,5.69,1.6c14.81,8,11.71,42.1-6.7,76.2c-18.49,34.2-45.39,55.4-60.09,47.4
			C592.32,426.42,591.62,425.92,590.92,425.32z"/>
		<path style="fill:none;stroke:#000000;stroke-width:25.5752;" d="M158.72,32.12c0.1,0,0.1,0,0.2,0.1"/>
		<path style="fill:none;stroke:#000000;stroke-width:25.5752;" d="M91.92,155.82c-14.6-8.2-11.6-42.3,6.91-76.3
			c18.39-34,44.49-54,59.29-46.2"/>
		<polyline style="fill:none;stroke:#000000;stroke-width:25.5752;" points="158.12,33.32 459.72,196.42 654.22,301.62 
			656.72,302.92 		"/>
		<polyline style="fill:none;stroke:#000000;stroke-width:25.5752;" points="590.92,425.62 590.82,425.52 509.51,381.62 
			92.02,155.82 91.92,155.82 		"/>
		<polygon style="fill:none;stroke:#000000;stroke-width:17.0502;" points="783.61,786.22 785.42,810.42 765.31,824.12 
			743.52,813.52 741.72,789.32 761.72,775.71 		"/>
		<polygon style="fill:none;stroke:#000000;stroke-width:17.0502;" points="759.32,616.02 761.11,640.22 741.11,653.82 
			719.22,643.32 717.41,619.12 737.52,605.42 		"/>
		<polygon style="fill:none;stroke:#000000;stroke-width:17.0502;" points="676.52,440.32 678.32,464.52 658.21,478.22 
			636.42,467.62 634.62,443.42 654.62,429.72 		"/>
		<polygon style="fill:none;stroke:#000000;stroke-width:17.0502;" points="625.62,683.02 632.32,698.02 614.72,693.12 
			600.62,702.62 600.02,686.82 584.51,677.81 601.72,673.02 606.32,657.81 617.62,670.62 635.82,670.31 		"/>
		<polygon style="fill:none;stroke:#000000;stroke-width:17.0502;" points="694.22,546.92 700.92,561.82 683.42,556.92 
			669.32,566.52 668.62,550.62 653.21,541.62 670.42,536.82 675.02,521.62 686.22,534.51 704.51,534.12 		"/>
		<polygon style="fill:none;stroke:#000000;stroke-width:17.0502;" points="579.32,765.62 591.12,744.42 615.42,744.01 
			627.81,764.91 616.02,786.11 591.72,786.42 		"/>
		<polygon style="fill:none;stroke:#000000;stroke-width:17.0502;" points="485.22,296.12 497.02,274.92 521.32,274.62 
			533.72,295.42 521.92,316.62 497.62,317.02 		"/>
		<polygon style="fill:none;stroke:#000000;stroke-width:17.0502;" points="388.92,241.32 401.32,262.12 389.52,283.32 
			365.22,283.72 352.82,262.82 364.62,241.72 		"/>
		<polygon style="fill:none;stroke:#000000;stroke-width:17.0502;" points="514.82,371.72 502.42,350.82 514.22,329.72 
			522.12,329.62 538.52,329.32 550.92,350.12 539.12,371.32 		"/>
		<polygon style="fill:none;stroke:#000000;stroke-width:17.0502;" points="715.12,754.82 714.42,773.12 702.22,762.12 
			687.01,767.92 692.92,750.71 684.22,736.02 700.02,736.32 709.91,721.52 713.72,738.92 728.62,744.42 		"/>
		<polygon style="fill:none;stroke:#000000;stroke-width:17.0502;" points="476.12,293.82 462.62,304.32 461.92,322.52 
			449.82,311.52 434.52,317.32 440.42,300.12 431.72,285.42 447.52,285.72 457.42,270.92 461.32,288.32 		"/>
		<polygon style="fill:none;stroke:#000000;stroke-width:17.0502;" points="455.62,263.92 443.52,252.92 428.22,258.72 
			434.12,241.52 425.42,226.82 441.22,227.12 451.12,212.32 454.92,229.72 469.82,235.22 456.32,245.62 		"/>
	</g>
</g>
<rect style="fill:none;" width="850.394" height="850.394"/>
</svg>
