<svg xmlns="http://www.w3.org/2000/svg" width="850.394" height="850.394" viewBox="0 0 850.394 850.394" overflow="visible"><path d="M382.99 162.62c7.19 4.09 15.32 5.47 23.55 4.49l.04.43s16.24 14.07 19.43 51.64l-50.72 114.11s-26.08-97.36-33.03-130.97c-6.96-33.61-41.15-34.77-41.15-34.77l-.86-1.18C327.84 146.24 364 140 364 140l1.26-.38c3.01 9.82 9.01 18.03 17.73 23z" fill="#58b947"/><path d="M335.8 363.68l-11.51-31.55s-54.54-104.64-56.72-126.28c7.73-13.52 16.32-25.61 25.43-33.67 2.32-2.06 4.75-3.99 7.25-5.81l.86 1.18s34.19 1.16 41.15 34.77c6.95 33.61 33.03 130.97 33.03 130.97s15.65 56.79 22.02 86.92l-1.92.54-13.03 3.66-13.45 1.02s-.25 1.12-.58 2.93l-8.11 2.279-24.42-66.959z" fill="#58b947"/><path d="M365.26 139.62c-4.47-14.5-2.46-32.52 6.84-48.83 15.58-27.37 45.73-39.57 67.34-27.27 21.6 12.31 26.489 44.47 10.899 71.83-10.41 18.26-27.3 29.77-43.8 31.76-8.23.98-16.36-.4-23.55-4.49-8.719-4.97-14.719-13.18-17.729-23z" fill="#ffeec8"/><path d="M382.24 686.79s1.74 2.32 13.91 11.01c8.7 6.21-5.79 17.391-19.7 13.33-13.91-4.05-61.43-16.81-61.43-16.81l.58-13.9.38-2.15c23.86 8.94 66.26 8.52 66.26 8.52zM312.12 719.24c14.15 10.609-14.48 19.71-26.08 15.649-10.62-3.72-56.21-24.92-56.21-24.92s.21-3.1.59-8.47l4.63.35s42.88 6.96 69.54-2.31c0 .001-8.69 7.531 7.53 19.701z" fill="#bd2025"/><path d="M384.56 490.91s1.16 46.37-.58 121.13l-1.74 74.75s-42.4.42-66.26-8.521c-3.06-1.14-5.81-2.439-8.13-3.92 5.11-40.069 14.91-119.909 19.92-179.96 1.15-13.859-30.14-122.86-30.14-122.86l.39-5.52c12.19.86 24.95.33 37.78-2.33l24.42 66.959 8.11-2.279c-1.1 5.97-3.11 19.409.01 24.31 1.12 1.75 3.29 4.26 6.05 6.82l7.06 21.8 3.11 9.621z" fill="#9c5c25"/><path d="M307.85 674.35a5398.53 5398.53 0 0 1-3.26 25.19c-26.66 9.27-69.54 2.31-69.54 2.31l-4.63-.35c2.03-29.02 8.95-124.18 13.9-152.05 4.63-26.08 5.8-58.54 5.8-58.54-.21-.32-.38-.67-.63-.98-31.83-39.59-55.49-88.65-44.58-132.31 2.05-8.19 3.84-14.63 5.45-19.81l.35.11s39.28 24.74 87.31 28.09l-.39 5.52s31.29 109 30.14 122.86c-5.01 60.05-14.81 139.89-19.92 179.96z" fill="#9c5c25"/><path d="M399.63 423.11l-17.27 1.3 13.03-3.66 20.46-.54s-.38 56.09-2.31 57.37c-6.96 4.64-13.33 14.5-27.82 2.33l-4.27 1.38-7.06-21.8c7.24 6.729 18.52 13.859 25.24 8.819 9.27-6.949 1.74-23.169 0-45.199z" fill="#ffeec8"/><path d="M375.29 333.29l50.72-114.11c.11 1.3.2 2.64.28 4 .89 15.62-17.39 55.63-17.39 77.65s6.95 119.38 6.95 119.38l-20.46.54 1.92-.54c-6.37-30.13-22.02-86.92-22.02-86.92zM324.29 332.13l11.51 31.55c-12.83 2.66-25.59 3.19-37.78 2.33-48.03-3.35-87.31-28.09-87.31-28.09l-.35-.11c8.45-27.09 11.98-19.75 21.21-47.41 4.85-14.55 18.16-53.36 36-84.55 2.18 21.64 56.72 126.28 56.72 126.28z" fill="#58b947"/><path d="M622.45 758.21c8.16 0 14.79 6.72 14.79 14.99 0 8.29-6.63 15-14.79 15s-14.78-6.71-14.78-15c0-8.27 6.62-14.99 14.78-14.99zM555.63 749.7l39-17.42s11.3-3.04 12.61 7.39c1.3 10.43 2.71 31.33-32.16 27.38-23.04-2.609-22.39-3.689-26.73-12.17-.89-1.72 5.431-4.35 5.431-4.35l1.849-.83z" fill="#231f20"/><path d="M374.39 459.49c-2.76-2.561-4.93-5.07-6.05-6.82-3.12-4.9-1.11-18.34-.01-24.31l14.03-3.95 17.27-1.3c1.74 22.03 9.27 38.25 0 45.2-6.72 5.04-18-2.09-25.24-8.82z" fill="#ffeec8"/><path d="M382.36 424.41l-14.03 3.95c.33-1.811.58-2.93.58-2.93l13.45-1.02z" fill="#fff"/><g fill="none" stroke="#231f20"><path d="M365.26 139.62c-4.47-14.5-2.46-32.52 6.84-48.83 15.58-27.37 45.73-39.57 67.34-27.27 21.6 12.31 26.489 44.47 10.899 71.83-10.41 18.26-27.3 29.77-43.8 31.76-8.23.98-16.36-.4-23.55-4.49-8.719-4.97-14.719-13.18-17.729-23zM406.58 167.54s16.24 14.07 19.43 51.64c.11 1.3.2 2.64.28 4 .89 15.62-17.39 55.63-17.39 77.65s6.95 119.38 6.95 119.38l-20.46.54-1.56.04M364 140s-36.16 6.24-63.75 26.37c-2.5 1.82-4.93 3.75-7.25 5.81-9.11 8.06-17.7 20.15-25.43 33.67-17.84 31.19-31.15 70-36 84.55-9.23 27.66-12.76 20.32-21.21 47.41-1.61 5.18-3.4 11.62-5.45 19.81-10.91 43.66 12.75 92.72 44.58 132.31.25.311.42.66.63.98 0 0-1.17 32.46-5.8 58.54-4.95 27.87-11.87 123.03-13.9 152.05-.38 5.37-.59 8.47-.59 8.47s45.59 21.2 56.21 24.92c11.6 4.061 40.23-5.04 26.08-15.649-16.22-12.17-7.53-19.7-7.53-19.7s1.27-9.57 3.26-25.19c5.11-40.069 14.91-119.909 19.92-179.96 1.15-13.859-30.14-122.86-30.14-122.86M235.05 701.85s42.88 6.96 69.54-2.31" stroke-width="14"/><path d="M305.75 672.88c.65.51 1.35 1 2.1 1.47 2.32 1.48 5.07 2.78 8.13 3.92 23.86 8.94 66.26 8.521 66.26 8.521l1.74-74.75c1.74-74.76.58-121.13.58-121.13l-3.11-9.62-7.06-21.8" stroke-width="14"/><path d="M315.6 680.42l-.58 13.9s47.52 12.76 61.43 16.81c13.91 4.061 28.4-7.12 19.7-13.33-12.17-8.689-13.91-11.01-13.91-11.01M410.64 486.28L555.63 749.7M415.85 420.21s-.38 56.09-2.31 57.37c-6.96 4.64-13.33 14.5-27.82 2.33" stroke-width="14"/><path d="M368.91 425.43s-.25 1.12-.58 2.93c-1.1 5.97-3.11 19.409.01 24.31 1.12 1.75 3.29 4.26 6.05 6.82 7.24 6.729 18.52 13.859 25.24 8.819 9.27-6.949 1.74-23.17 0-45.2" stroke-width="14"/><path d="M553.78 750.53l1.85-.83 39-17.42s11.3-3.04 12.61 7.39c1.3 10.43 2.71 31.33-32.16 27.38-23.04-2.609-22.39-3.689-26.73-12.17-.89-1.72 5.43-4.35 5.43-4.35z" stroke-width="7"/><path d="M210.71 337.92s39.28 24.74 87.31 28.09c12.19.86 24.95.33 37.78-2.33.41-.08.83-.17 1.24-.26M426.29 218.54l-.28.64-50.72 114.11" stroke-width="14"/><path d="M301.11 167.55s34.19 1.16 41.15 34.77c6.95 33.61 33.03 130.97 33.03 130.97s15.65 56.79 22.02 86.92l-1.92.54-13.03 3.66-14.03 3.95-8.11 2.279-24.42-66.959-11.51-31.55s-54.54-104.64-56.72-126.28c-.05-.44-.07-.85-.07-1.22" stroke-width="14"/></g><path fill="none" d="M0 0h850.394v850.394H0z"/></svg>