<svg xmlns="http://www.w3.org/2000/svg" width="850.394" height="850.394" viewBox="0 0 850.394 850.394" overflow="visible"><path d="M617.71 714.42c3.22 25.87 6.72 77.7-79.76 67.9-57.141-6.471-55.53-9.15-66.29-30.181-2.21-4.26 13.46-10.79 13.46-10.79l101.31-45.26c0 .001 28.03-7.539 31.28 18.331z" fill="#7a7878"/><g fill="none" stroke="#231f20"><path stroke-width="21" d="M130.13 86L488 734"/><path d="M485.12 741.35l101.31-45.26s28.03-7.54 31.28 18.33c3.22 25.87 6.72 77.7-79.76 67.9-57.141-6.471-55.53-9.15-66.29-30.181-2.21-4.259 13.46-10.789 13.46-10.789z" stroke-width="14"/></g><path fill="none" d="M0 0h850.394v850.394H0z"/><path fill="none" d="M0 0h850.394v850.394H0z"/><g><path d="M757.94 350.334c3.55 0 6.431 2.92 6.431 6.513 0 3.603-2.881 6.518-6.431 6.518-3.546 0-6.418-2.916-6.418-6.518 0-3.593 2.873-6.513 6.418-6.513z" fill="#231f20"/><path d="M728.91 346.637l16.946-7.569s4.91-1.321 5.479 3.211c.564 4.532 1.173 13.613-13.979 11.897-10.007-1.134-9.725-1.604-11.61-5.288-.387-.748 2.359-1.89 2.359-1.89l.805-.361z" fill="#7a7878"/><path d="M678.424 48.481c9.381 5.349 11.506 19.323 4.732 31.211-4.523 7.934-11.862 12.936-19.028 13.8-3.575.43-7.108-.174-10.232-1.951-3.789-2.159-6.396-5.727-7.708-9.994-1.942-6.3-1.064-14.13 2.972-21.217 6.774-11.892 19.874-17.193 29.264-11.849z" fill="#ffeec8"/><path d="M672.706 117.856c.387 6.783-7.557 24.172-7.557 33.74 0 9.568 3.024 51.872 3.024 51.872l-8.891.235.835-.235c-2.772-13.092-9.568-37.768-9.568-37.768l22.034-49.574c.049.565.088 1.139.123 1.73z" fill="#6ebe44"/><path d="M664.146 93.68s7.057 6.118 8.438 22.447L650.55 165.7s-11.332-42.304-14.356-56.908c-3.02-14.604-17.876-15.108-17.876-15.108l-.374-.517c11.988-8.742 27.701-11.454 27.701-11.454l.543-.165c1.313 4.267 3.919 7.834 7.708 9.994 3.124 1.777 6.657 2.381 10.232 1.951l.018.187z" fill="#6ebe44"/><path d="M650.159 220.536c-1.199-1.112-2.143-2.203-2.629-2.963-1.356-2.129-.487-7.969-.009-10.563l6.101-1.716 7.504-.565c.756 9.572 4.023 16.62 0 19.64-2.92 2.19-7.821-.909-10.967-3.833z" fill="#ffeec8"/><path d="M661.126 204.729l-7.504.565 5.661-1.59 8.891-.235s-.165 24.372-1.004 24.928c-3.028 2.016-5.792 6.3-12.088 1.013l-1.855.6-3.067-9.473c3.146 2.924 8.047 6.022 10.967 3.833 4.022-3.021.755-10.069-.001-19.641z" fill="#ffeec8"/><path d="M654.578 234.188s.504 20.148-.257 52.633l-.756 32.48s-18.419.183-28.787-3.702c-1.329-.5-2.528-1.064-3.536-1.708 2.225-17.411 6.482-52.103 8.655-78.191.504-6.022-13.092-53.384-13.092-53.384l.169-2.399c5.297.374 10.842.144 16.416-1.012L644.002 208l3.52-.991c-.479 2.594-1.348 8.434.009 10.563.486.76 1.43 1.851 2.629 2.963l3.067 9.473 1.351 4.18z" fill="#9e5c26"/><path d="M653.622 205.293l-6.101 1.716c.144-.787.252-1.273.252-1.273l5.849-.443z" fill="#fff"/><path d="M624.778 315.599c10.368 3.885 28.787 3.702 28.787 3.702s.756 1.008 6.044 4.784c3.78 2.698-2.516 7.556-8.556 5.792-6.044-1.76-26.696-7.304-26.696-7.304l.252-6.04.169-.934z" fill="#9e5c26"/><path d="M636.193 108.792c3.024 14.604 14.356 56.908 14.356 56.908s6.796 24.676 9.568 37.768l-.835.235-5.661 1.59-5.849.443s-.108.487-.252 1.273L644 208l-10.611-29.095-5.001-13.709s-23.698-45.455-24.65-54.866c3.359-5.875 7.087-11.132 11.05-14.634a42.724 42.724 0 0 1 3.154-2.529l.374.517c.001 0 14.858.504 17.877 15.108z" fill="#6ebe44"/><path d="M628.39 165.196l5.001 13.709c-5.574 1.156-11.119 1.386-16.416 1.012-20.869-1.456-37.938-12.206-37.938-12.206l-.152-.047c3.672-11.771 5.206-8.582 9.212-20.601 2.107-6.322 7.896-23.181 15.643-36.734.951 9.413 24.65 54.867 24.65 54.867z" fill="#6ebe44"/><path d="M621.242 313.892c-.86 6.787-1.417 10.95-1.417 10.95-11.584 4.028-30.212 1.004-30.212 1.004l-2.012-.152c.882-12.61 3.885-53.958 6.035-66.068 2.017-11.332 2.521-25.437 2.521-25.437-.091-.139-.165-.291-.27-.426-13.83-17.202-24.111-38.52-19.37-57.491.891-3.559 1.668-6.357 2.367-8.607l.152.047s17.068 10.75 37.938 12.206l-.169 2.399s13.596 47.362 13.092 53.384c-2.172 26.088-6.43 60.779-8.655 78.191z" fill="#9e5c26"/><path d="M623.102 333.401c6.148 4.61-6.296 8.564-11.332 6.8-4.614-1.621-24.424-10.828-24.424-10.828s.091-1.347.256-3.68l2.012.152s18.628 3.024 30.212-1.004c-.001 0-3.776 3.272 3.276 8.56z" fill="#9e5c26"/><g fill="none" stroke="#231f20"><path d="M646.188 81.548c-1.942-6.3-1.064-14.13 2.972-21.217 6.774-11.893 19.875-17.194 29.265-11.849 9.381 5.349 11.506 19.323 4.732 31.211-4.523 7.934-11.862 12.936-19.028 13.8-3.575.43-7.108-.174-10.232-1.951-3.791-2.16-6.397-5.727-7.709-9.994zM664.146 93.68s7.057 6.118 8.438 22.447c.048.565.087 1.139.122 1.729.387 6.783-7.557 24.172-7.557 33.74 0 9.568 3.024 51.872 3.024 51.872l-8.891.235-.678.017M645.645 81.713s-15.713 2.711-27.701 11.454a42.776 42.776 0 0 0-3.154 2.529c-3.963 3.502-7.69 8.76-11.05 14.634-7.747 13.553-13.535 30.412-15.643 36.734-4.006 12.019-5.54 8.83-9.212 20.601-.699 2.25-1.477 5.049-2.367 8.607-4.741 18.971 5.54 40.289 19.37 57.491.104.135.179.287.27.426 0 0-.504 14.104-2.521 25.437-2.15 12.11-5.153 53.458-6.035 66.068-.165 2.333-.256 3.68-.256 3.68s19.81 9.208 24.424 10.828c5.036 1.764 17.48-2.19 11.332-6.8-7.052-5.288-3.276-8.56-3.276-8.56s.557-4.163 1.417-10.95c2.225-17.411 6.482-52.103 8.655-78.191.504-6.022-13.092-53.384-13.092-53.384M589.613 325.845s18.628 3.024 30.212-1.004" stroke-width="6.083"/><path d="M620.334 313.257c.282.222.586.435.908.634 1.008.643 2.207 1.208 3.536 1.708 10.368 3.885 28.787 3.702 28.787 3.702l.756-32.48c.761-32.484.257-52.633.257-52.633l-1.352-4.18-3.067-9.473" stroke-width="6.083"/><path d="M624.609 316.534l-.252 6.04s20.652 5.544 26.696 7.304c6.04 1.764 12.336-3.094 8.556-5.792-5.288-3.776-6.044-4.784-6.044-4.784M665.91 232.177l63 114.46M668.174 203.468s-.165 24.372-1.004 24.928c-3.028 2.016-5.792 6.3-12.088 1.013" stroke-width="6.083"/><path d="M647.773 205.736s-.108.487-.252 1.273c-.479 2.594-1.348 8.434.009 10.563.486.76 1.43 1.851 2.629 2.963 3.146 2.924 8.047 6.022 10.967 3.833 4.023-3.02.756-10.068 0-19.64" stroke-width="6.083"/><path d="M728.106 346.998l.804-.361 16.946-7.569s4.91-1.321 5.479 3.211c.564 4.532 1.173 13.613-13.979 11.897-10.007-1.134-9.725-1.604-11.61-5.288-.386-.748 2.36-1.89 2.36-1.89z" stroke-width="3.042"/><path d="M579.037 167.712s17.068 10.75 37.938 12.206c5.297.374 10.842.144 16.416-1.012.179-.035.36-.074.539-.113M672.71 115.84l-.126.286L650.55 165.7" stroke-width="6.083"/><path d="M618.317 93.684s14.856.504 17.876 15.108c3.024 14.604 14.356 56.908 14.356 56.908s6.796 24.676 9.568 37.768l-.835.235-5.661 1.59-6.101 1.716L644 208l-10.611-29.095-5.001-13.709s-23.698-45.455-24.65-54.866a5.012 5.012 0 0 1-.03-.535" stroke-width="6.083"/></g></g></svg>