<?xml version="1.0" encoding="iso-8859-1"?>
<!-- Generator: Adobe Illustrator 12.0.1, SVG Export Plug-In . SVG Version: 6.00 Build 51448)  -->
<!DOCTYPE svg PUBLIC "-//W3C//DTD SVG 1.1//EN" "http://www.w3.org/Graphics/SVG/1.1/DTD/svg11.dtd" [
	<!ENTITY ns_svg "http://www.w3.org/2000/svg">
	<!ENTITY ns_xlink "http://www.w3.org/1999/xlink">
]>
<svg  version="1.1" id="Layer_1" xmlns="&ns_svg;" xmlns:xlink="&ns_xlink;" width="850.394" height="850.394"
	 viewBox="0 0 850.394 850.394" style="overflow:visible;enable-background:new 0 0 850.394 850.394;" xml:space="preserve">
<g id="XMLID_5_">
	<g>
		<path style="fill:#797878;" d="M365.6,438.04l1.9-0.3c1.81,11.31,3.11,24.38,3.11,38.64c0,42.811-13.81,232-15.22,251.24h0.03
			c0.04,9.39,18.17,17.66,32.33,25.75c8.83,5.03,13.89,13.77,11.26,23.09c-2.2,7.73-19.25,12.06-27.88,7.12
			c-14.97-8.53-5.23-5.6-16.36-9.92c-25.69-10.04-30.61-5.22-32.37-35.63l-3.07-20.5h-0.04l-25.18-221.84l-12.78-0.061L255.57,718.4
			l0.07,0.01l-2.2,17.35c-1.79,30.41-6.71,25.58-32.4,35.62c-11.13,4.3-1.37,1.4-16.35,9.93c-8.64,4.95-25.7,0.601-27.89-7.119
			c-2.63-9.33,2.43-18.07,11.26-23.091c13.71-7.83,31.77-15.939,32.96-24.96c-1.79-22.279-16.59-207.96-16.59-250.37
			c0-15.069,1-28.55,2.37-39.909L208,436L365.6,438.04z"/>
		<path style="fill:#FFEEC8;" d="M444.64,440.14c6.811,21.681,8.091,48.4,5.721,56.88c-1.41,4.99-7.88,12.061-13.98,11.33
			c-6.76-0.729-8.29-16.649-11.58-21.729c-5.11,1.07-2.48,8.52-6.25,8.52c-3.28-3.27-4.38-12.279-4.38-21.71
			c0-11.109,1.52-22.779,2.81-26.319L444.64,440.14z"/>
		<path style="fill:#FFEEC8;" d="M155.57,446.47c1.29,3.54,2.82,15.21,2.82,26.311c0,9.439-1.1,18.46-4.38,21.729
			c-3.75,0-1.15-7.47-6.28-8.51c-3.25,5.05-4.8,20.99-11.56,21.73c-6.09,0.72-12.58-6.36-13.97-11.351
			c-2.38-8.479-1.1-35.18,5.7-56.88L155.57,446.47z"/>
		<path style="fill:#FFEEC8;" d="M254.95,200.14c-9.99-10.48-16.37-26.49-16.37-44.43c0-31.55,19.74-57.15,44.11-57.15
			s44.1,25.6,44.1,57.15c0,16.77-5.57,31.84-14.44,42.3c-7.83,9.22-18.23,14.84-29.66,14.84
			C272.17,212.85,262.52,208.09,254.95,200.14z"/>
		<path style="fill:#FFEEC8;" d="M703.07,302.07c0,0,11.85,23.34-20.24,31.8c-1.25,0.33-2.48,0.62-3.69,0.87c0,0-0.01,0-0.029,0.01
			c-0.44,0.06-5.92,0.81-14.261,1.74c-10.689,0.3-17.319-1.83-17.319-1.83c-16.15-3.07-24.3-7.78-29.87-9.37
			c-12.061-3.44-14.04-5.47-12.91-13.44c1.2-8.49,9.19-11.66,22.17-8.55c9.061,2.97,18.23,5.71,25.12,7.01
			c0,0,16.58,1.27,39.79-4.84c4.35-1.14,7.97-2.47,10.979-3.92L703.07,302.07z"/>
		<path style="fill:#FFEEC8;" d="M626.92,303.3c-14.689-4.84-29.08-10.31-32.93-11.41c-13.48-3.84-15.7-6.11-14.431-15.03
			c1.221-8.64,12.95-12.64,21.141-11.16c8.17,2.58,41,15.39,59.2,18.84c0,0,17.479,1.66,41.75-4.73c5.319-1.4,9.619-3.13,13.08-5.06
			c1.67,3.36,7.25,17.56-11.921,26.8c-3.01,1.45-6.63,2.78-10.979,3.92c-23.21,6.11-39.79,4.84-39.79,4.84
			C645.15,309.01,635.98,306.27,626.92,303.3z"/>
		<path style="fill:#FFEEC8;" d="M600.7,265.7c-0.311-0.1-0.58-0.18-0.811-0.25c-14.1-4.02-16.409-6.39-15.09-15.71
			c1.5-10.68,15.63-14.75,32.11-9.98l0.06-0.15c2.061,0.92,4.73,1.82,8.12,2.82c6.08,1.8,24.84,8.15,42.46,11.65
			c0,0,17.09,3.04,39.62-3.35c6.12-1.73,10.8-4.2,14.38-7.02l4.23,0.24c0,0,9.85,19.12-11.05,30.8
			c-3.461,1.93-7.761,3.66-13.08,5.06c-24.271,6.39-41.75,4.73-41.75,4.73C641.7,281.09,608.87,268.28,600.7,265.7z"/>
		<path style="fill:#FFEEC8;" d="M647.53,334.66c0,0,6.63,2.13,17.319,1.83c-24.43,2.74-73.43,7.01-92.609-0.02
			c-26.021-9.54-38.601-29.05-64.61-35.56c-12.25-3.07-28.17-3.44-41.56-2.98L466,296V185.8c8.44,0.8,35.97,3.35,61.58,4.96
			c41.63,2.6,70.25-52.91,70.25-52.91c10.41-16.48,22.12-39.03,20.38-58.55c-1.58-17.75,16.05-23.85,28.19-12.57
			c12.14,11.27,19.08,29.05,9.109,52.9c-9.979,23.86-7.2,38.17-7.2,38.17c0.44,4.79,2.07,9.66,5.46,14.31
			c9.75,13.33,29.641,3.33,64.91,21.25l4.79,2.99c9.38,8,9.17,19.87,9.17,19.87s2.88,16.48-11.09,27.49
			c-3.58,2.82-8.26,5.29-14.38,7.02c-22.53,6.39-39.62,3.35-39.62,3.35c-17.62-3.5-36.38-9.85-42.46-11.65
			c-3.39-1-6.06-1.9-8.12-2.82l-0.06,0.15c-16.48-4.77-30.61-0.7-32.11,9.98c-1.319,9.32,0.99,11.69,15.09,15.71
			c0.23,0.07,0.5,0.15,0.811,0.25c-8.19-1.48-19.92,2.52-21.141,11.16c-1.27,8.92,0.95,11.19,14.431,15.03
			c3.85,1.1,18.24,6.57,32.93,11.41c-12.979-3.11-20.97,0.06-22.17,8.55c-1.13,7.97,0.85,10,12.91,13.44
			C623.23,326.88,631.38,331.59,647.53,334.66z"/>
		<path style="fill:#ABD150;" d="M420.11,351.49c7.07,28.64,24.53,88.649,24.53,88.649l-27.66,6.971l-53.45-116.98l-6.4,66.68
			c1.95,5.25,7.04,20.1,10.37,40.93l-1.9,0.3L208,436l-1.2-0.14c2.92-24.311,7.5-38.96,7.5-38.96l-5.29-67.4l-53.44,116.97
			l-27.67-6.97c0,0,17.44-60.01,24.54-88.65c10.27-41.52,44.24-110.02,44.24-110.02c8.65-8.65,23.22-18.82,35.63-26.83
			c12.09-7.81,22.12-13.56,22.64-13.86c7.57,7.95,17.22,12.71,27.74,12.71c11.43,0,21.83-5.62,29.66-14.84l5.24,2.75
			c0,0,10.25,5.85,22.65,13.87c12.41,8.01,26.98,18.19,35.63,26.83C375.87,241.46,409.84,309.98,420.11,351.49z"/>
	</g>
	<g>
		<path style="fill:none;stroke:#231F20;stroke-width:14;" d="M714.34,274.02c0,0,0.16,0.26,0.391,0.73
			c1.67,3.36,7.25,17.56-11.921,26.8c-3.01,1.45-6.63,2.78-10.979,3.92c-23.21,6.11-39.79,4.84-39.79,4.84
			c-6.89-1.3-16.06-4.04-25.12-7.01c-14.689-4.84-29.08-10.31-32.93-11.41c-13.48-3.84-15.7-6.11-14.431-15.03
			c1.221-8.64,12.95-12.64,21.141-11.16c1.49,0.26,2.859,0.71,4.03,1.34"/>
		<path style="fill:none;stroke:#231F20;stroke-width:14;" d="M719.26,204.63c-19.09,1.74-40.74,18.6-50.09,17.64
			c-9.97-1.02-16.689-0.52-31.65-5.82c-8.68-3.07-24.71-2.92-26.569,10.91c-0.9,6.62,0.069,9.57,6.02,12.25
			c2.061,0.92,4.73,1.82,8.12,2.82c6.08,1.8,24.84,8.15,42.46,11.65c0,0,17.09,3.04,39.62-3.35c6.12-1.73,10.8-4.2,14.38-7.02
			c13.97-11.01,11.09-27.49,11.09-27.49s0.21-11.87-9.17-19.87l-4.79-2.99c-35.27-17.92-55.16-7.92-64.91-21.25
			c-3.39-4.65-5.02-9.52-5.46-14.31c0,0-2.779-14.31,7.2-38.17c9.971-23.85,3.03-41.63-9.109-52.9
			c-12.141-11.28-29.771-5.18-28.19,12.57c1.74,19.52-9.97,42.07-20.38,58.55c0,0-28.62,55.51-70.25,52.91
			c-25.61-1.61-53.14-4.16-61.58-4.96c-1.68-0.16-2.61-0.25-2.61-0.25"/>
		<path style="fill:none;stroke:#231F20;stroke-width:14;" d="M725.78,243.95c0,0,9.85,19.12-11.05,30.8
			c-3.461,1.93-7.761,3.66-13.08,5.06c-24.271,6.39-41.75,4.73-41.75,4.73c-18.2-3.45-51.03-16.26-59.2-18.84
			c-0.311-0.1-0.58-0.18-0.811-0.25c-14.1-4.02-16.409-6.39-15.09-15.71c1.5-10.68,15.63-14.75,32.11-9.98"/>
		<path style="fill:none;stroke:#231F20;stroke-width:14;" d="M679.11,334.75c-5.28,1.14-10.08,1.63-14.261,1.74
			c-10.689,0.3-17.319-1.83-17.319-1.83c-16.15-3.07-24.3-7.78-29.87-9.37c-12.061-3.44-14.04-5.47-12.91-13.44
			c1.2-8.49,9.19-11.66,22.17-8.55c0.97,0.22,1.97,0.49,3,0.79"/>
		<path style="fill:none;stroke:#231F20;stroke-width:14;" d="M703.07,302.07c0,0,11.85,23.34-20.24,31.8
			c-1.25,0.33-2.48,0.62-3.69,0.87"/>
		<path style="fill:none;stroke:#231F20;stroke-width:14;" d="M679.14,334.74c0,0-0.01,0-0.029,0.01
			c-0.44,0.06-5.92,0.81-14.261,1.74c-24.43,2.74-73.43,7.01-92.609-0.02c-26.021-9.54-38.601-29.05-64.61-35.56
			c-12.25-3.07-28.17-3.44-41.56-2.98c-0.83,0.03-1.65,0.07-2.46,0.1"/>
		<path style="fill:none;stroke:#231F20;stroke-width:14;" d="M254.95,200.14c-9.99-10.48-16.37-26.49-16.37-44.43
			c0-31.55,19.74-57.15,44.11-57.15s44.1,25.6,44.1,57.15c0,16.77-5.57,31.84-14.44,42.3c-7.83,9.22-18.23,14.84-29.66,14.84
			C272.17,212.85,262.52,208.09,254.95,200.14z"/>
		<path style="fill:none;stroke:#231F20;stroke-width:14;" d="M127.9,439.5c0,0,17.44-60.01,24.54-88.65
			c10.27-41.52,44.24-110.02,44.24-110.02c8.65-8.65,23.22-18.82,35.63-26.83c12.09-7.81,22.12-13.56,22.64-13.86
			c0.01-0.01,0.02-0.01,0.02-0.01"/>
		<path style="fill:none;stroke:#231F20;stroke-width:14;" d="M221.2,728.33c0,0-0.06-0.76-0.18-2.19
			c-1.79-22.279-16.59-207.96-16.59-250.37c0-15.069,1-28.55,2.37-39.909c2.92-24.311,7.5-38.96,7.5-38.96l-5.29-67.4l-53.44,116.97
			c1.29,3.54,2.82,15.21,2.82,26.311c0,9.439-1.1,18.46-4.38,21.729c-3.75,0-1.15-7.47-6.28-8.51c-3.25,5.05-4.8,20.99-11.56,21.73
			c-6.09,0.72-12.58-6.36-13.97-11.351c-2.38-8.479-1.1-35.18,5.7-56.88"/>
		<path style="fill:none;stroke:#231F20;stroke-width:14;" d="M444.64,440.14c0,0-17.46-60.01-24.53-88.649
			c-10.27-41.51-44.24-110.03-44.24-110.03c-8.65-8.64-23.22-18.82-35.63-26.83c-12.4-8.02-22.65-13.87-22.65-13.87"/>
		<path style="fill:none;stroke:#231F20;stroke-width:14;" d="M356.89,399.28l0.24-2.47l6.4-66.68l53.45,116.98
			c-1.29,3.54-2.81,15.21-2.81,26.319c0,9.431,1.1,18.44,4.38,21.71c3.77,0,1.14-7.449,6.25-8.52c3.29,5.08,4.82,21,11.58,21.729
			c6.101,0.73,12.57-6.34,13.98-11.33c2.37-8.479,1.09-35.199-5.721-56.88"/>
		<path style="fill:none;stroke:#231F20;stroke-width:14;" d="M355.27,729.2c0,0,0.04-0.54,0.12-1.58
			c1.41-19.24,15.22-208.43,15.22-251.24c0-14.26-1.3-27.33-3.11-38.64c-3.33-20.83-8.42-35.68-10.37-40.93
			c-0.51-1.37-0.81-2.08-0.81-2.08"/>
		<path style="fill:none;stroke:#231F20;stroke-width:14;" d="M255.72,717.78l-0.08,0.63l-2.2,17.35
			c-1.79,30.41-6.71,25.58-32.4,35.62c-11.13,4.3-1.37,1.4-16.35,9.93c-8.64,4.95-25.7,0.601-27.89-7.119
			c-2.63-9.33,2.43-18.07,11.26-23.091c13.71-7.83,31.77-15.939,32.96-24.96c0.05-0.3,0.07-0.609,0.07-0.909"/>
		<path style="fill:none;stroke:#231F20;stroke-width:14;" d="M319.33,717.53l3.07,20.5c1.76,30.41,6.68,25.59,32.37,35.63
			c11.13,4.32,1.39,1.39,16.36,9.92c8.63,4.939,25.68,0.61,27.88-7.12c2.63-9.32-2.43-18.06-11.26-23.09
			c-14.16-8.09-32.29-16.36-32.33-25.75"/>
		<polyline style="fill:none;stroke:#231F20;stroke-width:14;" points="319.45,718.96 319.29,717.53 294.11,495.69 281.33,495.63 
			255.57,718.4 		"/>
		<line style="fill:none;stroke:#231F20;stroke-width:14;" x1="208" y1="436" x2="365.6" y2="438.04"/>
		<line style="fill:none;stroke:#231F20;stroke-width:14;" x1="127.9" y1="439.5" x2="155.57" y2="446.47"/>
		<line style="fill:none;stroke:#231F20;stroke-width:14;" x1="416.98" y1="447.11" x2="444.64" y2="440.14"/>
	</g>
</g>
<rect style="fill:none;" width="850.394" height="850.394"/>
</svg>
