<?xml version="1.0" encoding="iso-8859-1"?>
<!-- Generator: Adobe Illustrator 12.0.1, SVG Export Plug-In . SVG Version: 6.00 Build 51448)  -->
<!DOCTYPE svg PUBLIC "-//W3C//DTD SVG 1.1//EN" "http://www.w3.org/Graphics/SVG/1.1/DTD/svg11.dtd" [
	<!ENTITY ns_svg "http://www.w3.org/2000/svg">
	<!ENTITY ns_xlink "http://www.w3.org/1999/xlink">
]>
<svg  version="1.1" id="Layer_1" xmlns="&ns_svg;" xmlns:xlink="&ns_xlink;" width="850.394" height="850.394"
	 viewBox="0 0 850.394 850.394" style="overflow:visible;enable-background:new 0 0 850.394 850.394;" xml:space="preserve">
<g id="XMLID_2_">
	<g>
		<path style="fill:#FFEEC8;" d="M724.22,596.18c-1.319,4.351-3.899,7.851-8.95,5.44c-3.35-1.62-7.27,2.28-10.39,8.7
			c-3.899,8.06-6.53,20.08-5.13,30.109c2.55,18.03,7.77,18.98,9.32,36.03c1.55,17.03-8.82,37.36-15.29,52.67
			c-6.67,15.79-19.62,29.41-10.78,47.42l-90.99-25.66c0,0-15.819-169.58-17.05-183.949c-0.979-11.48,3.38-20.171,17.19-34.011
			c3.64-3.649,7.93-7.649,12.949-12.16c2.75-2.47,5.721-5.09,8.92-7.88c0,0,21.551-15.149,30.75-11.6c0,0,15.53,8.77,6.12,18.47
			l0.021,0.021c1.3-1.011,2.5-1.891,3.58-2.601c3.14-2.1,5.859-3.399,7.899-3.56c9.471-0.78,23.341,17.41,17.53,26.63l0.04,0.04
			c5.7-4.91,10.37-7.86,12.73-7.03c14.649,5.2,16.279,20.2,13.659,27.51l0.011,0.021c1.67-0.99,3.109-1.37,4.229-0.97
			c9.57,3.39,13.79,14.069,15,25.62C725.59,585.44,725.68,591.34,724.22,596.18z"/>
		<path style="fill:#C8C8C8;" d="M715.27,601.62c5.051,2.41,7.631-1.09,8.95-5.44l13.69,11.681l-8.58,16.659l-21.22-14.18
			l-3.23-0.02C708,603.9,711.92,600,715.27,601.62z"/>
		<path style="fill:#ABD150;" d="M406.24,364.21c2.82-0.15,4.95-2.99,4.78-6.35c-0.17-3.35-2.58-5.96-5.4-5.83
			c-2.79,0.15-4.92,2.99-4.75,6.35C401.04,361.74,403.45,364.35,406.24,364.21z M405.77,344.67c0,0,8.58,9.35,4.8,19.57
			c-2.01,5.44-2.78,5.48-2.78,5.48s-0.35,0.29-1.14,0.68l-0.37-0.61c-5.36-0.49-8.19-3.79-10.22-6.34
			c-2.02-2.55,0.53-10.25,0.91-11.35v-0.01C402.55,348.02,405.77,344.67,405.77,344.67z"/>
		<path style="fill:#FFFFFF;" d="M396.06,363.45c2.03,2.55,4.86,5.85,10.22,6.34l0.37,0.61c-1.51,0.75-4.65,1.89-10.13,2.17
			c-8.37,0.43-31.63,0.08-31.63,0.08s-5.13-3.56,12.09-9.76c8.12-2.93,15-7.15,19.99-10.79C396.59,353.2,394.04,360.9,396.06,363.45
			z"/>
		<path style="fill:#C8C8C8;" d="M603.38,518.64l1.72,2.13c-5.02,4.511-9.31,8.511-12.949,12.16l-0.11-0.109l-22.55-15.061
			c0,0-8.74-8.76-15.38-10.71c-2.811-0.84-5.46-0.99-7.971-0.75c0,0-17.34,3.9-28.729,3.82c-11.391-0.101-19.05-2.59-30.65-13.5
			c-11.58-10.91-17.83-19.95-17.41-28.9c0.25-5.34,2.57-10.37,2.57-10.37c1.63-2.899,3.08-4.59,6.59-7.42
			c7.01-5.59,17.98-5.819,33.63-2.85c15.63,2.979,22.141,7.729,28.91,16.89c6.76,9.181,13.76,25.5,13.76,25.5
			c1.29,2.19,2.95,4.23,5.271,6.03c5.49,4.22,17.71,6.17,17.71,6.17L603.38,518.64z"/>
		<path style="fill:#FFEEC8;" d="M396.97,352.09v0.01c-4.99,3.64-11.87,7.86-19.99,10.79c-17.22,6.2-12.09,9.76-12.09,9.76
			s23.26,0.35,31.63-0.08c5.48-0.28,8.62-1.42,10.13-2.17c0.79-0.39,1.14-0.68,1.14-0.68s0.77-0.04,2.78-5.48
			c3.78-10.22-4.8-19.57-4.8-19.57S402.55,348.02,396.97,352.09z M436.99,541.68c-0.01,0-0.021,0-0.03,0.011
			c-7.11,1.09-14.36,2.119-19.86,4.25c-2.15,0.829-4.04,1.829-5.55,3.069c-13.61,11.181-9.52,27.76-3.13,40.271l56.85,64.02
			L77.02,683.61c13.82-41.08,61.42-61.16,106.97-82.771c13.41-6.37,28.16-10.899,31.82-28.729c4.42-21.57-7.19-45.811-9.71-65.96
			c9.61-2.96,7.47-11.07,12.04-24.94l9.1-30.93c-5.31-18.53-25.69-28.23-31.04-49.36c-6.29-24.83,6.29-41.8,24.3-49.84
			c17.99-8.03,25.46,7.3,34.88,26.73c0,0,0.87,13.07,10.66-4.19c9.79-17.26,7.29-44.58,11.21-66.55c3.91-22,24.49-12.98,63.94-21.21
			c39.47-8.24,52.08-4.77,71.46-19.17c5.65-4.2,10.28-9.05,13.59-14.27l1.33,0.25c7.41,5.68,12.01,10.77,16.859,31.66
			c3.74,16.11,1.86,22.37,0.86,37.52c-0.96,13.98-0.49,23.35,13.54,36.43c16.54,15.43,20.34,18.39,29.76,26.12
			c9.4,7.71,3.55,21.06-2.87,23.33c-9.88,3.5-4.479,1.76-18.569,4.49c-5.841,1.14-6.431,16.61-1.53,21.04
			c4.86,4.4,11.27,8.101,0.82,12.59c-15.131,6.5-23.521,11.96-41.86,24.431c0,0,32.189,11.54,44.86,12.96
			c-0.721,4.02-4.94,19.399-2.841,24.22c2.771,6.41,3.4,23.63-11.5,30.021C450.22,539.57,443.67,540.65,436.99,541.68z"/>
		<path style="fill:#FFEEC8;" d="M704.16,343.48c-10.42,0.29-16.88-1.79-16.88-1.79c-15.761-2.99-23.7-7.58-29.13-9.13
			c-11.761-3.36-13.7-5.33-12.601-13.11c1.17-8.29,8.99-11.38,21.681-8.33c8.819,2.9,17.739,5.56,24.439,6.83
			c0,0,16.17,1.24,38.811-4.72c4.229-1.11,7.76-2.41,10.699-3.83l0.25,0.51c0,0,11.57,22.77-19.729,31.01
			C715.12,342.66,709.18,343.34,704.16,343.48z"/>
		<path style="fill:#FFEEC8;" d="M667.23,311.12c-14.341-4.71-28.4-10.06-32.16-11.14c-13.15-3.74-15.311-5.96-14.08-14.65
			c1.189-8.43,12.63-12.33,20.63-10.89c7.979,2.53,39.979,15.02,57.72,18.38c0,0,17.05,1.61,40.71-4.61
			c5.2-1.37,9.4-3.06,12.771-4.94c1.62,3.27,7.06,17.13-11.641,26.13c-2.939,1.42-6.47,2.72-10.699,3.83
			c-22.641,5.96-38.811,4.72-38.811,4.72C684.97,316.68,676.05,314.02,667.23,311.12z"/>
		<path style="fill:#FFEEC8;" d="M752.82,283.27c-3.37,1.88-7.57,3.57-12.771,4.94c-23.66,6.22-40.71,4.61-40.71,4.61
			c-17.74-3.36-49.74-15.85-57.72-18.38c-0.3-0.09-0.57-0.17-0.8-0.24c-13.761-3.92-16.011-6.23-14.721-15.32
			c1.471-10.41,15.24-14.38,31.311-9.73l0.07-0.15c2.01,0.9,4.6,1.78,7.909,2.75c5.94,1.76,24.221,7.96,41.41,11.36
			c0,0,16.67,2.97,38.641-3.26c5.97-1.69,10.54-4.1,14.029-6.85l4.12,0.24C763.59,253.24,773.19,271.87,752.82,283.27z"/>
		<path style="fill:#FFEEC8;" d="M687.28,341.69c0,0,6.46,2.08,16.88,1.79c-23.82,2.66-71.601,6.84-90.3-0.02
			c-25.38-9.31-37.65-28.33-63.021-34.68c-12.68-3.17-29.399-3.38-42.93-2.8l-0.21-109.7c0,0,32.649,3.21,62.6,5.08
			c40.59,2.54,68.51-51.59,68.51-51.59c10.15-16.08,21.57-38.07,19.881-57.1C657.14,75.35,674.34,69.41,686.17,80.4
			c11.85,11,18.62,28.34,8.89,51.6c-9.729,23.26-7.029,37.21-7.029,37.21c0.43,4.68,2.029,9.43,5.34,13.96
			c9.49,13.01,28.89,3.25,63.29,20.73l4.68,2.91c9.141,7.8,8.94,19.38,8.94,19.38s2.8,16.06-10.811,26.81
			c-3.489,2.75-8.06,5.16-14.029,6.85c-21.971,6.23-38.641,3.26-38.641,3.26c-17.189-3.4-35.47-9.6-41.41-11.36
			c-3.31-0.97-5.899-1.85-7.909-2.75l-0.07,0.15c-16.07-4.65-29.84-0.68-31.311,9.73c-1.29,9.09,0.96,11.4,14.721,15.32
			c0.229,0.07,0.5,0.15,0.8,0.24c-8-1.44-19.44,2.46-20.63,10.89c-1.23,8.69,0.93,10.91,14.08,14.65
			c3.76,1.08,17.819,6.43,32.16,11.14c-12.69-3.05-20.511,0.04-21.681,8.33c-1.1,7.78,0.84,9.75,12.601,13.11
			C663.58,334.11,671.52,338.7,687.28,341.69z"/>
		<path style="fill:#9C5C25;" d="M206.1,506.15c-2.06,0.63-4.66,1.029-7.98,1.189c-18.81,0.92-24.88-8.14-57.52-39.149
			c-36.54-34.721-44.67-88.65-48.77-113.7c-4.1-25.07-4.66-86.47,12.28-112.63c16.94-26.16,33.43-44.17,33.43-44.17
			s57.05-52.17,97.58-53.49c40.53-1.33,77.78-6.56,103.93,5.24c26.14,11.79,68.3,45.44,84.28,63.07
			c11.31,12.49,10.97,27.25,2.91,39.91c-3.31,5.22-7.94,10.07-13.59,14.27c-19.38,14.4-31.99,10.93-71.46,19.17
			c-39.45,8.23-60.03-0.79-63.94,21.21c-3.92,21.97-1.42,49.29-11.21,66.55c-9.79,17.26-10.66,4.19-10.66,4.19
			c-9.42-19.43-16.89-34.76-34.88-26.73c-18.01,8.04-30.59,25.01-24.3,49.84c5.35,21.13,25.73,30.83,31.04,49.36l-9.1,30.93
			C213.57,495.08,215.71,503.19,206.1,506.15z"/>
		<path style="fill:#231F20;" d="M405.62,352.03c2.82-0.13,5.23,2.48,5.4,5.83c0.17,3.36-1.96,6.2-4.78,6.35
			c-2.79,0.14-5.2-2.47-5.37-5.83C400.7,355.02,402.83,352.18,405.62,352.03z"/>
	</g>
	<g>
		<path style="fill:none;stroke:#231F20;stroke-width:7;" d="M396.97,352.1c-4.99,3.64-11.87,7.86-19.99,10.79
			c-17.22,6.2-12.09,9.76-12.09,9.76s23.26,0.35,31.63-0.08c5.48-0.28,8.62-1.42,10.13-2.17c0.79-0.39,1.14-0.68,1.14-0.68
			s0.77-0.04,2.78-5.48c3.78-10.22-4.8-19.57-4.8-19.57s-3.22,3.35-8.8,7.42"/>
		<path style="fill:none;stroke:#231F20;stroke-width:14;stroke-linecap:round;stroke-linejoin:round;" d="M416.65,323.58
			c0,0-13.12-6.05-41.87,4.53c-16.73,6.17-26.05,13.96-32.11,20.18"/>
		<path style="fill:none;stroke:#231F20;stroke-width:6.4158;" d="M397.01,351.97c0,0-0.02,0.04-0.04,0.12v0.01
			c-0.38,1.1-2.93,8.8-0.91,11.35c2.03,2.55,4.86,5.85,10.22,6.34"/>
		<path style="fill:none;stroke:#231F20;stroke-width:14;" d="M426.24,252.42c-3.31,5.22-7.94,10.07-13.59,14.27
			c-19.38,14.4-31.99,10.93-71.46,19.17c-39.45,8.23-60.03-0.79-63.94,21.21c-3.92,21.97-1.42,49.29-11.21,66.55
			c-9.79,17.26-10.66,4.19-10.66,4.19c-9.42-19.43-16.89-34.76-34.88-26.73c-18.01,8.04-30.59,25.01-24.3,49.84
			c5.35,21.13,25.73,30.83,31.04,49.36l-9.1,30.93c-4.57,13.87-2.43,21.98-12.04,24.94c-2.06,0.63-4.66,1.029-7.98,1.189
			c-18.81,0.92-24.88-8.14-57.52-39.149c-36.54-34.721-44.67-88.65-48.77-113.7c-4.1-25.07-4.66-86.47,12.28-112.63
			c16.94-26.16,33.43-44.17,33.43-44.17s57.05-52.17,97.58-53.49c40.53-1.33,77.78-6.56,103.93,5.24
			c26.14,11.79,68.3,45.44,84.28,63.07C434.64,225,434.3,239.76,426.24,252.42z"/>
		<path style="fill:none;stroke:#231F20;stroke-width:14;" d="M205.66,500.71c0.06,1.771,0.21,3.59,0.44,5.44
			c2.52,20.149,14.13,44.39,9.71,65.96c-3.66,17.83-18.41,22.359-31.82,28.729c-45.55,21.61-93.15,41.69-106.97,82.771
			c-0.56,1.659-1.06,3.34-1.51,5.069"/>
		<path style="fill:none;stroke:#231F20;stroke-width:14;" d="M436.99,541.68c6.68-1.029,13.229-2.109,18.109-4.199
			c14.9-6.391,14.271-23.61,11.5-30.021c-2.1-4.82,2.12-20.2,2.841-24.22c-12.671-1.42-44.86-12.96-44.86-12.96
			c18.34-12.471,26.729-17.931,41.86-24.431c10.449-4.489,4.04-8.189-0.82-12.59c-4.9-4.43-4.311-19.9,1.53-21.04
			c14.09-2.73,8.689-0.99,18.569-4.49c6.42-2.27,12.271-15.62,2.87-23.33c-9.42-7.73-13.22-10.69-29.76-26.12
			c-14.03-13.08-14.5-22.45-13.54-36.43c1-15.15,2.88-21.41-0.86-37.52c-4.85-20.89-9.449-25.98-16.859-31.66"/>
		<path style="fill:none;stroke:#231F20;stroke-width:14;" d="M465.27,653.3l-56.85-64.02c-6.39-12.511-10.48-29.09,3.13-40.271
			c1.51-1.24,3.4-2.24,5.55-3.069c5.5-2.131,12.75-3.16,19.86-4.25"/>
		<path style="fill:none;stroke:#231F20;stroke-width:14;" d="M341.77,548.51c0,0,40.93,2.641,75.33-2.569
			c7.03-1.061,13.78-2.45,19.86-4.25c0.01-0.011,0.021-0.011,0.03-0.011c1.38-0.41,2.72-0.85,4.029-1.3"/>
		<path style="fill:none;stroke:#231F20;stroke-width:14;" d="M654.49,517.18c3.14-2.1,5.859-3.399,7.899-3.56
			c9.471-0.78,23.341,17.41,17.53,26.63"/>
		<path style="fill:none;stroke:#231F20;stroke-width:14;" d="M654.49,517.18c-1.08,0.71-2.28,1.59-3.58,2.601
			c-14.11,10.979-39.34,37.77-46.43,45.6"/>
		<path style="fill:none;stroke:#231F20;stroke-width:14;" d="M592.01,750.89c0,0-15.819-169.58-17.05-183.949
			c-0.979-11.48,3.38-20.171,17.19-34.011c3.64-3.649,7.93-7.649,12.949-12.16c2.75-2.47,5.721-5.09,8.92-7.88
			c0,0,21.551-15.149,30.75-11.6c0,0,15.53,8.77,6.12,18.47"/>
		<path style="fill:none;stroke:#231F20;stroke-width:14;" d="M635.7,588.59c0,0,26.899-33.3,44.26-48.3
			c5.7-4.91,10.37-7.86,12.73-7.03c14.649,5.2,16.279,20.2,13.659,27.51"/>
		<path style="fill:none;stroke:#231F20;stroke-width:14;" d="M667.65,610.2c0,0,26.04-41.98,38.71-49.41
			c1.67-0.99,3.109-1.37,4.229-0.97c9.57,3.39,13.79,14.069,15,25.62c0,0,0.09,5.899-1.37,10.739
			c-1.319,4.351-3.899,7.851-8.95,5.44c-3.35-1.62-7.27,2.28-10.39,8.7c-3.899,8.06-6.53,20.08-5.13,30.109
			c2.55,18.03,7.77,18.98,9.32,36.03c1.55,17.03-8.82,37.36-15.29,52.67c-6.67,15.79-19.62,29.41-10.78,47.42"/>
		<path style="fill:none;stroke:#231F20;stroke-width:14;" d="M592.04,532.82l-22.55-15.061c0,0-8.74-8.76-15.38-10.71
			c-2.811-0.84-5.46-0.99-7.971-0.75c0,0-17.34,3.9-28.729,3.82c-11.391-0.101-19.05-2.59-30.65-13.5
			c-11.58-10.91-17.83-19.95-17.41-28.9c0.25-5.34,2.57-10.37,2.57-10.37c1.63-2.899,3.08-4.59,6.59-7.42
			c7.01-5.59,17.98-5.819,33.63-2.85c15.63,2.979,22.141,7.729,28.91,16.89c6.76,9.181,13.76,25.5,13.76,25.5
			c1.29,2.19,2.95,4.23,5.271,6.03c5.49,4.22,17.71,6.17,17.71,6.17l25.59,16.97"/>
		<polyline style="fill:none;stroke:#231F20;stroke-width:14;" points="724,596 724.22,596.18 737.91,607.86 729.33,624.52 
			708.11,610.34 		"/>
		<path style="fill:none;stroke:#231F20;stroke-width:14;" d="M752.44,282.56c0,0,0.149,0.25,0.38,0.71
			c1.62,3.27,7.06,17.13-11.641,26.13c-2.939,1.42-6.47,2.72-10.699,3.83c-22.641,5.96-38.811,4.72-38.811,4.72
			c-6.7-1.27-15.62-3.93-24.439-6.83c-14.341-4.71-28.4-10.06-32.16-11.14c-13.15-3.74-15.311-5.96-14.08-14.65
			c1.189-8.43,12.63-12.33,20.63-10.89c1.45,0.26,2.78,0.69,3.92,1.31"/>
		<path style="fill:none;stroke:#231F20;stroke-width:14;" d="M757.23,214.89c-18.62,1.7-39.74,18.13-48.851,17.2
			c-9.72-1-16.28-0.51-30.86-5.68c-8.47-2.99-24.109-2.84-25.92,10.65c-0.869,6.44,0.08,9.33,5.881,11.94
			c2.01,0.9,4.6,1.78,7.909,2.75c5.94,1.76,24.221,7.96,41.41,11.36c0,0,16.67,2.97,38.641-3.26c5.97-1.69,10.54-4.1,14.029-6.85
			c13.61-10.75,10.811-26.81,10.811-26.81s0.2-11.58-8.94-19.38l-4.68-2.91c-34.4-17.48-53.8-7.72-63.29-20.73
			c-3.311-4.53-4.91-9.28-5.34-13.96c0,0-2.7-13.95,7.029-37.21c9.73-23.26,2.96-40.6-8.89-51.6
			c-11.83-10.99-29.03-5.05-27.479,12.27c1.689,19.03-9.73,41.02-19.881,57.1c0,0-27.92,54.13-68.51,51.59
			c-29.95-1.87-62.6-5.08-62.6-5.08"/>
		<path style="fill:none;stroke:#231F20;stroke-width:14;" d="M763.59,253.24c0,0,9.601,18.63-10.77,30.03
			c-3.37,1.88-7.57,3.57-12.771,4.94c-23.66,6.22-40.71,4.61-40.71,4.61c-17.74-3.36-49.74-15.85-57.72-18.38
			c-0.3-0.09-0.57-0.17-0.8-0.24c-13.761-3.92-16.011-6.23-14.721-15.32c1.471-10.41,15.24-14.38,31.311-9.73"/>
		<path style="fill:none;stroke:#231F20;stroke-width:14;" d="M741.43,309.91c0,0,11.57,22.77-19.729,31.01
			c-6.58,1.74-12.521,2.42-17.54,2.56c-10.42,0.29-16.88-1.79-16.88-1.79c-15.761-2.99-23.7-7.58-29.13-9.13
			c-11.761-3.36-13.7-5.33-12.601-13.11c1.17-8.29,8.99-11.38,21.681-8.33c0.93,0.21,1.89,0.47,2.869,0.76"/>
		<path style="fill:none;stroke:#231F20;stroke-width:14;" d="M718.1,341.77c0,0-5.449,0.76-13.939,1.71
			c-23.82,2.66-71.601,6.84-90.3-0.02c-25.38-9.31-37.65-28.33-63.021-34.68c-12.68-3.17-29.399-3.38-42.93-2.8"/>
	</g>
</g>
<rect style="fill:none;" width="850.394" height="850.394"/>
</svg>
