<?xml version="1.0" encoding="iso-8859-1"?>
<!-- Generator: Adobe Illustrator 12.0.1, SVG Export Plug-In . SVG Version: 6.00 Build 51448)  -->
<!DOCTYPE svg PUBLIC "-//W3C//DTD SVG 1.1//EN" "http://www.w3.org/Graphics/SVG/1.1/DTD/svg11.dtd" [
	<!ENTITY ns_svg "http://www.w3.org/2000/svg">
	<!ENTITY ns_xlink "http://www.w3.org/1999/xlink">
]>
<svg  version="1.1" id="Layer_1" xmlns="&ns_svg;" xmlns:xlink="&ns_xlink;" width="850.394" height="850.394"
	 viewBox="0 0 850.394 850.394" style="overflow:visible;enable-background:new 0 0 850.394 850.394;" xml:space="preserve">
<line style="fill:none;stroke:#231F20;stroke-width:14;" x1="353.757" y1="491.332" x2="392.791" y2="566.938"/>
<line style="fill:none;stroke:#231F20;stroke-width:14;" x1="497.996" y1="491.332" x2="450.487" y2="564.054"/>
<g id="XMLID_1_">
	<g>
		<path style="fill:#FFFFC2;" d="M663.388,392.41c0,62.275-50.479,112.748-112.755,112.748
			c-62.274,0-112.761-50.473-112.761-112.748c0-62.282,50.486-112.762,112.761-112.762
			C612.908,279.648,663.388,330.127,663.388,392.41z M559.599,448.767c14.036,0,35.637-31.107,36.511-37.364
			c0.074-0.555,1.049-4.469,1.916-9.798c5.336,5.241,12.229-2.925,12.533-6.826c0.521-6.981-1.361-10.346,2.756-19.494
			c1.32-2.946,2.119-8.207-0.562-10.875c5.403-45.977-16.015-68.539-41.088-71.464c-33.748-3.934-57.597-2.045-76.644,25.467
			c-8.688,12.54-7.971,41.379-6.9,56.194c2.573,7.896,0.359,13.61,1.327,19.176c0.508,2.891,3.704,8.444,8.349,8.796
			c1.605,11.064,7.754,17.199,9.88,21.065c1.977,3.596,10.597,17.246,15.547,21.431C531.18,451.807,550.274,448.767,559.599,448.767
			z"/>
		<path style="fill:#FFEEC8;" d="M504.007,372.13l0.128,0.122c2.248,2.079,4.849,3.934,7.842,5.004
			c1.821,0.644,4.307,0.758,6.209,0.366c0.806-0.169,1.794-0.366,2.539-0.711c0.63-0.284,1.158-0.955,1.74-1.232
			c0.88-0.406,1.862-0.047,2.675-0.548c0.955-0.589,0.23-1.259-0.318-2.228c-0.9-1.598-2.289-2.966-3.914-3.968
			c-1.842-1.145-3.995-1.835-6.101-1.882c-1.828-0.041-3.555,0.332-5.153,1.016C507.534,368.967,505.639,370.41,504.007,372.13z
			 M577.184,321.169c0.128,0.041,0.243,0.102,0.365,0.176c0,0,4.896,18.601,11.748,25.453s4.692,33.768,10.083,39.151
			c0.061,5.431-0.609,11.064-1.354,15.655c-0.867,5.329-1.842,9.243-1.916,9.798c-0.874,6.257-22.475,37.364-36.511,37.364
			c-9.324,0-28.419,3.04-36.375-3.69c-4.95-4.185-13.57-17.835-15.547-21.431c-2.126-3.867-8.274-10.001-9.88-21.065
			c-0.148-1.016-0.264-2.072-0.324-3.176c-0.359-6.061-1.91-12.134-2.723-18.052c-0.298-2.194-0.501-4.367-0.501-6.514
			c0-5.525,1.077-12.006,1.077-24.167l5.87-9.75c25.209-25.203,40.363-5.627,51.996-8.694c4.496-1.191,9.48-2.302,13.59-4.618
			C569.424,326.126,574.285,320.1,577.184,321.169z M575.321,372.197c-1.632-1.713-3.521-3.155-5.641-4.063
			c-1.591-0.677-3.317-1.057-5.152-1.016c-2.113,0.047-4.267,0.731-6.108,1.882c-1.625,1.002-3.013,2.37-3.913,3.968
			c-0.549,0.968-1.267,1.639-0.312,2.228c0.813,0.501,1.794,0.142,2.668,0.548c0.582,0.277,1.117,0.948,1.739,1.232
			c0.745,0.345,1.74,0.542,2.54,0.711c1.896,0.393,4.395,0.277,6.209-0.373c3-1.063,5.593-2.918,7.848-5.004L575.321,372.197z
			 M537.571,406.108c0.027,2.546-1.178,10.374-2.078,12.73l0.013,0.46c-3.785,0.061-7.123,2.837-10.976,3.934
			c-0.907,0.257-1.849,0.419-2.83,0.433c2.966,1.009,5.701,2.505,8.802,3.25c4.408,1.063,9.405,0.23,13.875-0.149
			c6.98-0.609,13.278,0.122,18.601-4.652c0.21-0.183,0.42-0.379,0.63-0.582c-6.386,0.108-11.268-1.564-15.426-2.12l0.055-0.454
			c-2.201-4.313-3.48-11.437-3.541-14.693c1.523-0.609,2.985-0.474,5.524-0.352c0.346,0.013,0.691,0.007,1.036-0.034
			c-2.248-1.036-5.268-1.686-7.116,0.644c-0.386,0.189-0.778,0.433-1.205,0.745C541.472,406.324,539.461,406.433,537.571,406.108z
			 M534.944,405.403c-5.573-2.925-4.049-9.947-3.229-13.996c-0.237,0.711-4.267,4.618-4.713,5.891
			c-0.644,1.781-0.413,4.368,0.589,5.403c0.84,0.86,3.311,1.794,4.36,1.957C533.042,404.828,533.698,404.937,534.944,405.403z
			 M534.972,435.752l13.576-1.097C543.768,431.033,538.282,432.441,534.972,435.752z"/>
		<path style="fill:#FFEEC8;" d="M371.987,443.119c1.605-5.464-0.196-14.511-4.069-18.37c-7.8-7.8-12.676-32.665-13.414-39.185
			c-1.287-11.362,3.203-23.95,3.203-35.346c0-32.509-21.431-58.158-44.88-60.894c-31.574-3.684-52.071,5.153-64.659,25.643
			c-7.462,12.161-12.601,33.213-11.613,47.074c0.386,5.376,4.639,42.165-0.115,54.346c-1.232,3.155-2.993,10.333-4.76,16.217
			c-6.758,22.555,11.816,25.026,14.429,36.084c3.271-1.923,24.905-19.521,28.311-22.331c4.679-3.874,7.889-11.004,7.889-17.958
			l0.515-1.185c6.744,2.722,15.134,0.487,22.041-0.353c11.071-1.354,15.364-13.129,23.069-19.813
			c3.352-2.898,6.947-5.891,8.769-9.683l0.312,0.156c-1.124,18.811,8.166,28.866,8.166,28.866
			C357.26,434.229,365.853,437.296,371.987,443.119z M301.126,505.164c-62.275,0-112.755-50.479-112.755-112.754
			c0-62.282,50.479-112.762,112.755-112.762c62.275,0,112.755,50.479,112.755,112.762
			C413.881,454.685,363.401,505.164,301.126,505.164z"/>
		<path style="fill:#FFEEC8;" d="M612.753,364.411c2.681,2.667,1.882,7.929,0.562,10.875c-4.117,9.148-2.234,12.513-2.756,19.494
			c-0.305,3.9-7.197,12.066-12.533,6.826c0.745-4.591,1.415-10.225,1.354-15.655c-0.027-3.122-0.305-6.175-0.941-8.924
			c-0.014-0.027-0.014-0.054-0.021-0.082c-1.267-5.986,3.426-15.404,11.254-14.037C611.006,363.138,612.015,363.679,612.753,364.411
			z"/>
		<path style="fill:#9E5C26;" d="M609.672,362.907c-7.828-1.368-12.521,8.051-11.254,14.037c0.007,0.027,0.007,0.054,0.021,0.082
			c0.637,2.749,0.914,5.803,0.941,8.924c-5.391-5.383-3.23-32.299-10.083-39.151s-11.748-25.453-11.748-25.453
			c-0.122-0.074-0.237-0.135-0.365-0.176c-2.898-1.07-7.76,4.957-10.401,6.439c-4.109,2.315-9.094,3.426-13.59,4.618
			c-11.633,3.067-26.787-16.508-51.996,8.694l-5.87,9.75c0,12.161-1.077,18.642-1.077,24.167c0,2.146,0.203,4.32,0.501,6.514
			c-4.902-4.909-6.629-6.744-6.629-6.744c-1.07-14.815-1.787-43.654,6.9-56.194c19.047-27.512,42.896-29.401,76.644-25.467
			c25.073,2.925,46.491,25.487,41.088,71.464C612.015,363.679,611.006,363.138,609.672,362.907z"/>
		<path style="fill:#231F20;" d="M565.584,371.134c0,0.751-0.562,1.361-1.246,1.361c-0.69,0-1.245-0.609-1.245-1.361
			s0.555-1.354,1.245-1.354C565.022,369.78,565.584,370.383,565.584,371.134z"/>
		<path style="fill:#231F20;" d="M564.338,369.78c-0.69,0-1.245,0.603-1.245,1.354s0.555,1.361,1.245,1.361
			c0.685,0,1.246-0.609,1.246-1.361S565.022,369.78,564.338,369.78z M564.338,368.081c1.917,0,3.474,1.368,3.474,3.054
			s-1.557,3.054-3.474,3.054c-1.93,0-3.48-1.368-3.48-3.054S562.408,368.081,564.338,368.081z"/>
		<path style="fill:#9E5C26;" d="M560.857,371.134c0,1.686,1.551,3.054,3.48,3.054c1.917,0,3.474-1.368,3.474-3.054
			s-1.557-3.054-3.474-3.054C562.408,368.081,560.857,369.448,560.857,371.134z M558.576,370.924c0-0.833-0.224-0.758,0.128-1.462
			l-0.284-0.46c1.842-1.151,3.995-1.835,6.108-1.882c1.835-0.041,3.562,0.338,5.152,1.016l-0.203,0.508
			c0.616,0.86,0.508,1.158,0.508,2.282c0,3.013-2.553,5.451-5.701,5.451C561.129,376.375,558.576,373.938,558.576,370.924z"/>
		<path style="fill:#FFFFFF;" d="M558.704,369.462c-0.352,0.704-0.128,0.629-0.128,1.462c0,3.013,2.553,5.451,5.708,5.451
			c3.148,0,5.701-2.438,5.701-5.451c0-1.124,0.108-1.422-0.508-2.282l0.203-0.508c2.119,0.907,4.009,2.35,5.641,4.063l-0.122,0.115
			c-2.255,2.085-4.848,3.941-7.848,5.004c-1.814,0.65-4.313,0.765-6.209,0.373c-0.8-0.169-1.795-0.366-2.54-0.711
			c-0.622-0.285-1.157-0.955-1.739-1.232c-0.874-0.406-1.855-0.047-2.668-0.548c-0.955-0.589-0.237-1.26,0.312-2.228
			c0.9-1.598,2.288-2.966,3.913-3.968L558.704,369.462z"/>
		<path style="fill:#FFFFFF;" d="M548.548,434.655l-13.576,1.097C538.282,432.441,543.768,431.033,548.548,434.655z"/>
		<path style="fill:#EE947D;" d="M562.978,422.115c-10.902,0.908-27.052,1.639-38.292,1.639l-0.155-0.521
			c3.853-1.097,7.19-3.874,10.976-3.934c1.084-0.027,2.208,0.176,3.386,0.704c3.244,1.449,5.093-1.043,8.668-0.664
			c0.203,0.02,0.412,0.047,0.622,0.074c4.158,0.555,9.04,2.228,15.426,2.12C563.397,421.736,563.188,421.932,562.978,422.115z"/>
		<path style="fill:#FFEEC8;" d="M544.695,404.266c0.061,3.257,1.34,10.38,3.541,14.693l-0.055,0.454
			c-0.21-0.027-0.419-0.054-0.622-0.074c-3.575-0.379-5.424,2.112-8.668,0.664c-1.178-0.528-2.302-0.731-3.386-0.704l-0.013-0.46
			c0.9-2.356,2.105-10.184,2.078-12.73c1.89,0.325,3.9,0.216,5.363-0.84c0.427-0.312,0.819-0.555,1.205-0.745
			C544.329,404.422,544.512,404.333,544.695,404.266z"/>
		<path style="fill:#EE947D;" d="M524.686,423.753c11.24,0,27.39-0.731,38.292-1.639c-5.322,4.774-11.62,4.042-18.601,4.652
			c-4.47,0.38-9.467,1.212-13.875,0.149c-3.101-0.745-5.836-2.242-8.802-3.25c0.981-0.014,1.923-0.176,2.83-0.433L524.686,423.753z"
			/>
		<path style="fill:#231F20;" d="M513.75,371.066c0-0.751,0.556-1.354,1.239-1.354c0.69,0,1.246,0.603,1.246,1.354
			c0,0.752-0.556,1.361-1.246,1.361C514.306,372.428,513.75,371.818,513.75,371.066z"/>
		<path style="fill:#231F20;" d="M514.989,369.712c-0.684,0-1.239,0.603-1.239,1.354c0,0.752,0.556,1.361,1.239,1.361
			c0.69,0,1.246-0.609,1.246-1.361C516.235,370.315,515.68,369.712,514.989,369.712z M514.996,374.121
			c-1.923,0-3.474-1.368-3.474-3.054s1.551-3.054,3.474-3.054s3.474,1.368,3.474,3.054S516.919,374.121,514.996,374.121z"/>
		<path style="fill:#9E5C26;" d="M514.807,367.051c2.105,0.047,4.259,0.738,6.101,1.882l-0.284,0.46
			c0.353,0.704,0.129,0.63,0.129,1.462c0,3.014-2.553,5.451-5.701,5.451c-3.149,0-5.702-2.438-5.702-5.451
			c0-1.124-0.108-1.415,0.508-2.282l-0.203-0.508C511.252,367.383,512.979,367.011,514.807,367.051z M511.522,371.066
			c0,1.686,1.551,3.054,3.474,3.054s3.474-1.368,3.474-3.054s-1.551-3.054-3.474-3.054S511.522,369.38,511.522,371.066z"/>
		<path style="fill:#FFFFFF;" d="M509.349,370.856c0,3.014,2.553,5.451,5.702,5.451c3.148,0,5.701-2.438,5.701-5.451
			c0-0.833,0.224-0.758-0.129-1.462l0.284-0.46c1.625,1.002,3.014,2.37,3.914,3.968c0.549,0.969,1.273,1.639,0.318,2.228
			c-0.813,0.501-1.795,0.142-2.675,0.548c-0.582,0.278-1.11,0.948-1.74,1.232c-0.745,0.345-1.733,0.542-2.539,0.711
			c-1.902,0.393-4.388,0.278-6.209-0.366c-2.993-1.07-5.594-2.925-7.842-5.004l-0.128-0.122c1.632-1.72,3.527-3.163,5.646-4.063
			l0.203,0.508C509.24,369.441,509.349,369.732,509.349,370.856z"/>
		<path style="fill:#FFEEC8;" d="M497.473,399.404c0.061,1.104,0.176,2.16,0.324,3.176c-4.645-0.352-7.841-5.905-8.349-8.796
			c-0.968-5.566,1.246-11.281-1.327-19.176c0,0,1.727,1.835,6.629,6.744C495.563,387.27,497.113,393.344,497.473,399.404z"/>
		<path style="fill:#231F20;" d="M306.327,362.9c0.569,0,1.036,0.508,1.036,1.131c0,0.63-0.467,1.138-1.036,1.138
			c-0.576,0-1.036-0.508-1.036-1.138C305.291,363.408,305.751,362.9,306.327,362.9z"/>
		<path style="fill:#231F20;" d="M306.32,361.492c1.598,0,2.898,1.137,2.898,2.539c0,1.408-1.3,2.546-2.898,2.546
			c-1.598,0-2.884-1.138-2.884-2.546C303.436,362.629,304.722,361.492,306.32,361.492z M307.363,364.031
			c0-0.623-0.467-1.131-1.036-1.131c-0.576,0-1.036,0.508-1.036,1.131c0,0.63,0.46,1.138,1.036,1.138
			C306.896,365.169,307.363,364.661,307.363,364.031z"/>
		<path style="fill:#6EBE44;" d="M309.218,364.031c0-1.402-1.3-2.539-2.898-2.539c-1.598,0-2.884,1.137-2.884,2.539
			c0,1.408,1.287,2.546,2.884,2.546C307.918,366.577,309.218,365.439,309.218,364.031z M306.279,368.399
			c-2.621,0-4.747-2.039-4.747-4.537c0-0.697-0.189-0.636,0.108-1.219l-0.237-0.386c1.53-0.955,3.324-1.53,5.078-1.571
			c1.523-0.034,2.959,0.285,4.286,0.86l-0.163,0.406c0.508,0.725,0.42,0.968,0.42,1.909
			C311.026,366.36,308.9,368.399,306.279,368.399z"/>
		<path style="fill:#FFFFFF;" d="M301.533,363.862c0,2.499,2.126,4.537,4.747,4.537s4.747-2.039,4.747-4.537
			c0-0.941,0.088-1.185-0.42-1.909l0.163-0.406c1.768,0.745,3.345,1.943,4.699,3.372l-0.102,0.095
			c-1.875,1.74-4.036,3.284-6.534,4.164c-1.51,0.542-3.589,0.637-5.167,0.312c-0.67-0.135-1.496-0.298-2.112-0.589
			c-0.521-0.237-0.968-0.799-1.456-1.029c-0.718-0.338-1.537-0.034-2.214-0.454c-0.792-0.495-0.189-1.057,0.257-1.862
			c0.752-1.327,1.91-2.465,3.264-3.297l0.237,0.386C301.343,363.226,301.533,363.165,301.533,363.862z"/>
		<path style="fill:#EE947D;" d="M295.412,409.046c-4.591,2.031-9.5,1.632-13.272-1.483c-1.401-1.158-3.582-2.525-4.577-3.833
			l0.007-0.007c3.717,1.09,9.25,0.474,12.987,0.176c3.751-0.298,6.825-0.325,12.127-2.722
			C300.781,404.286,298.791,407.55,295.412,409.046z"/>
		<path style="fill:#EE947D;" d="M290.557,403.9c-3.738,0.298-9.27,0.914-12.987-0.176l-0.007,0.007
			c-0.955-1.266-0.806-2.465,2.228-3.345c1.889-0.549,4.151-0.975,6.094-0.521c1.029,0.237,2.546,1.226,3.474,0.846
			c1.497-3.765,11.897-1.368,14.66-1.652c-0.454,0.684-0.894,1.395-1.334,2.119C297.382,403.575,294.308,403.603,290.557,403.9z"/>
		<path style="fill:#231F20;" d="M267.168,365.162c-0.575,0-1.036-0.501-1.036-1.131c0-0.623,0.46-1.131,1.036-1.131
			c0.576,0,1.036,0.508,1.036,1.131C268.205,364.661,267.744,365.162,267.168,365.162z"/>
		<path style="fill:#231F20;" d="M266.133,364.031c0,0.63,0.46,1.131,1.036,1.131c0.576,0,1.036-0.501,1.036-1.131
			c0-0.623-0.46-1.131-1.036-1.131C266.593,362.9,266.133,363.408,266.133,364.031z M270.06,364.031
			c0,1.408-1.293,2.546-2.892,2.546c-1.604,0-2.891-1.138-2.891-2.546c0-1.402,1.287-2.539,2.891-2.539
			C268.767,361.492,270.06,362.629,270.06,364.031z"/>
		<path style="fill:#6EBE44;" d="M267.168,361.492c-1.604,0-2.891,1.137-2.891,2.539c0,1.408,1.287,2.546,2.891,2.546
			c1.598,0,2.892-1.138,2.892-2.546C270.06,362.629,268.767,361.492,267.168,361.492z M271.854,362.643
			c0.291,0.583,0.108,0.521,0.108,1.219c0,2.499-2.133,4.537-4.747,4.537c-2.627,0-4.753-2.039-4.753-4.537
			c0-0.941-0.088-1.185,0.42-1.909l-0.163-0.406c1.327-0.576,2.763-0.894,4.287-0.86c1.76,0.041,3.555,0.616,5.085,1.571
			L271.854,362.643z"/>
		<path style="fill:#FFFFFF;" d="M271.963,363.862c0-0.697,0.183-0.636-0.108-1.219l0.237-0.386c1.354,0.833,2.505,1.97,3.257,3.297
			c0.454,0.806,1.057,1.368,0.264,1.862c-0.677,0.42-1.497,0.115-2.221,0.454c-0.488,0.23-0.935,0.792-1.456,1.029
			c-0.616,0.291-1.442,0.454-2.113,0.589c-1.584,0.325-3.656,0.23-5.166-0.312c-2.499-0.88-4.659-2.424-6.528-4.164l-0.102-0.095
			c1.354-1.429,2.932-2.627,4.692-3.372l0.163,0.406c-0.508,0.725-0.42,0.968-0.42,1.909c0,2.499,2.126,4.537,4.753,4.537
			C269.83,368.399,271.963,366.36,271.963,363.862z"/>
		<path style="fill:#FFEEC8;" d="M248.737,364.336c-0.183-7.618,3.535-15.621,9.622-20.097c4.686-3.433,30.193-15.601,41.102-23.252
			c0.162,0.346,0.426,0.569,0.799,0.67c3.948,4.198,23.821,25.264,34.561,36.003c10.015,10.015,3.196,34.587,2.979,36.104
			c-0.176,1.287-0.562,2.479-1.097,3.603c-1.822,3.792-5.417,6.785-8.769,9.683c-7.706,6.684-11.999,18.458-23.069,19.813
			c-6.907,0.84-15.296,3.074-22.041,0.353c-1.381-0.556-2.695-1.32-3.914-2.35c-4.456-3.771-10.035-7.259-13.691-11.863
			c-2.296-2.898-13.929-16.468-13.929-28.243C251.29,374.032,248.92,371.466,248.737,364.336z M310.769,361.546
			c-1.327-0.576-2.763-0.894-4.286-0.86c-1.754,0.041-3.548,0.616-5.078,1.571c-1.354,0.833-2.512,1.97-3.264,3.297
			c-0.447,0.806-1.049,1.368-0.257,1.862c0.677,0.42,1.497,0.115,2.214,0.454c0.488,0.23,0.935,0.792,1.456,1.029
			c0.616,0.291,1.442,0.454,2.112,0.589c1.578,0.325,3.657,0.23,5.167-0.312c2.499-0.88,4.659-2.424,6.534-4.164l0.102-0.095
			C314.114,363.49,312.536,362.291,310.769,361.546z M258.027,364.918l0.102,0.095c1.869,1.74,4.029,3.284,6.528,4.164
			c1.51,0.542,3.582,0.637,5.166,0.312c0.67-0.135,1.497-0.298,2.113-0.589c0.521-0.237,0.968-0.799,1.456-1.029
			c0.724-0.338,1.543-0.034,2.221-0.454c0.792-0.495,0.189-1.057-0.264-1.862c-0.751-1.327-1.902-2.465-3.257-3.297
			c-1.53-0.955-3.325-1.53-5.085-1.571c-1.524-0.034-2.959,0.285-4.287,0.86C260.959,362.291,259.382,363.49,258.027,364.918z
			 M289.358,400.711c-0.928,0.379-2.444-0.609-3.474-0.846c-1.943-0.454-4.205-0.027-6.094,0.521
			c-3.033,0.88-3.182,2.079-2.228,3.345c0.996,1.307,3.176,2.675,4.577,3.833c3.772,3.115,8.681,3.514,13.272,1.483
			c3.379-1.497,5.37-4.76,7.272-7.868c0.44-0.725,0.88-1.436,1.334-2.119C301.255,399.343,290.854,396.946,289.358,400.711z"/>
		<path style="fill:#FBEE34;" d="M299.461,320.986c-10.909,7.652-36.416,19.819-41.102,23.252
			c-6.087,4.476-9.805,12.479-9.622,20.097c0.183,7.13,2.553,9.696,2.553,20.422c0,11.775,11.633,25.345,13.929,28.243
			c3.656,4.604,9.236,8.092,13.691,11.863c1.219,1.029,2.532,1.794,3.914,2.35l-0.515,1.185c0,6.954-3.209,14.084-7.889,17.958
			c-3.406,2.81-25.04,20.408-28.311,22.331c-2.613-11.058-21.187-13.529-14.429-36.084c1.767-5.884,3.528-13.062,4.76-16.217
			c4.753-12.182,0.501-48.97,0.115-54.346c-0.988-13.861,4.151-34.913,11.613-47.074c12.588-20.49,33.084-29.326,64.659-25.643
			c23.449,2.735,44.88,28.385,44.88,60.894c0,11.396-4.489,23.984-3.203,35.346c0.738,6.521,5.613,31.385,13.414,39.185
			c3.873,3.859,5.674,12.906,4.069,18.37c-6.135-5.823-14.727-8.891-26.807-16.731c0,0-9.29-10.055-8.166-28.866l-0.312-0.156
			c0.535-1.124,0.921-2.316,1.097-3.603c0.217-1.517,7.036-26.089-2.979-36.104c-10.739-10.739-30.613-31.805-34.561-36.003
			c-0.454-0.48-0.697-0.738-0.697-0.738C299.528,320.939,299.495,320.966,299.461,320.986z"/>
	</g>
	<g>
		<path style="fill:none;stroke:#231F20;stroke-width:4.458;" d="M293.983,358.005c4.015-6.683,13.772-7.746,19.366-5.566
			c3,1.171,4.814,2.553,5.606,3.345"/>
		<path style="fill:none;stroke:#231F20;stroke-width:4.458;" d="M272.911,355.54c-5.593-4.983-16.772-3.92-20.957,1.754"/>
		<path style="fill:none;stroke:#231F20;stroke-width:4.458;" d="M279.546,359.467c5.823,4.354,2.736,19.115,1.273,23.517
			c-0.467,1.409-2.478,3.894-1.063,5.349c0.684,0.711,1.558,0.325,2.411,0.467c0.894,0.129,1.429,0.224,2.451,0.603
			c1.97,0.731,3.413,1.171,5.187-0.115c1.923-1.395,1.774-2.384,4.618-2.241c2.39,0.108,5.031,0.778,4.916-2.898
			c-0.088-2.532-1.991-2.499-3.345-4.286"/>
		<path style="fill:none;stroke:#231F20;stroke-width:3.3435;" d="M289.195,401.361c0.027-0.237,0.082-0.454,0.163-0.65
			c1.497-3.765,11.897-1.368,14.66-1.652c-0.454,0.684-0.894,1.395-1.334,2.119c-1.902,3.108-3.893,6.372-7.272,7.868
			c-4.591,2.031-9.5,1.632-13.272-1.483c-1.401-1.158-3.582-2.525-4.577-3.833c-0.955-1.266-0.806-2.465,2.228-3.345
			c1.889-0.549,4.151-0.975,6.094-0.521c1.029,0.237,2.546,1.226,3.474,0.846c0.156-0.067,0.292-0.169,0.413-0.318"/>
		<path style="fill:none;stroke:#231F20;stroke-width:3.3435;" d="M277.569,403.724c3.717,1.09,9.25,0.474,12.987,0.176
			c3.751-0.298,6.825-0.325,12.127-2.722"/>
		<path style="fill:none;stroke:#231F20;stroke-width:2.229;stroke-linecap:square;stroke-miterlimit:10;" d="M316.334,365.894
			c-0.277-0.332-0.568-0.657-0.867-0.975c-1.354-1.429-2.932-2.627-4.699-3.372c-1.327-0.576-2.763-0.894-4.286-0.86
			c-1.754,0.041-3.548,0.616-5.078,1.571c-1.354,0.833-2.512,1.97-3.264,3.297c-0.447,0.806-1.049,1.368-0.257,1.862
			c0.677,0.42,1.497,0.115,2.214,0.454c0.488,0.23,0.935,0.792,1.456,1.029c0.616,0.291,1.442,0.454,2.112,0.589
			c1.578,0.325,3.657,0.23,5.167-0.312c2.499-0.88,4.659-2.424,6.534-4.164"/>
		<path style="fill:none;stroke:#231F20;stroke-width:1.1145;stroke-linecap:square;stroke-miterlimit:10;" d="M301.641,362.643
			c-0.298,0.583-0.108,0.521-0.108,1.219c0,2.499,2.126,4.537,4.747,4.537s4.747-2.039,4.747-4.537c0-0.941,0.088-1.185-0.42-1.909"
			/>
		<path style="fill:none;stroke:#231F20;stroke-width:1.1145;" d="M303.436,364.031c0,1.408,1.287,2.546,2.884,2.546
			c1.598,0,2.898-1.138,2.898-2.546c0-1.402-1.3-2.539-2.898-2.539C304.722,361.492,303.436,362.629,303.436,364.031z"/>
		<path style="fill:none;stroke:#231F20;stroke-width:1.1145;" d="M305.291,364.031c0,0.63,0.46,1.138,1.036,1.138
			c0.569,0,1.036-0.508,1.036-1.138c0-0.623-0.467-1.131-1.036-1.131C305.751,362.9,305.291,363.408,305.291,364.031z"/>
		<path style="fill:none;stroke:#231F20;stroke-width:2.229;stroke-linecap:square;stroke-miterlimit:10;" d="M257.161,365.894
			c0.278-0.332,0.569-0.657,0.867-0.975c1.354-1.429,2.932-2.627,4.692-3.372c1.327-0.576,2.763-0.894,4.287-0.86
			c1.76,0.041,3.555,0.616,5.085,1.571c1.354,0.833,2.505,1.97,3.257,3.297c0.454,0.806,1.057,1.368,0.264,1.862
			c-0.677,0.42-1.497,0.115-2.221,0.454c-0.488,0.23-0.935,0.792-1.456,1.029c-0.616,0.291-1.442,0.454-2.113,0.589
			c-1.584,0.325-3.656,0.23-5.166-0.312c-2.499-0.88-4.659-2.424-6.528-4.164"/>
		<path style="fill:none;stroke:#231F20;stroke-width:1.1145;stroke-linecap:square;stroke-miterlimit:10;" d="M271.854,362.643
			c0.291,0.583,0.108,0.521,0.108,1.219c0,2.499-2.133,4.537-4.747,4.537c-2.627,0-4.753-2.039-4.753-4.537
			c0-0.941-0.088-1.185,0.42-1.909"/>
		<path style="fill:none;stroke:#231F20;stroke-width:1.1145;" d="M270.06,364.031c0,1.408-1.293,2.546-2.892,2.546
			c-1.604,0-2.891-1.138-2.891-2.546c0-1.402,1.287-2.539,2.891-2.539C268.767,361.492,270.06,362.629,270.06,364.031z"/>
		<path style="fill:none;stroke:#231F20;stroke-width:1.1145;" d="M268.205,364.031c0,0.63-0.46,1.131-1.036,1.131
			c-0.575,0-1.036-0.501-1.036-1.131c0-0.623,0.46-1.131,1.036-1.131C267.744,362.9,268.205,363.408,268.205,364.031z"/>
		<path style="fill:none;stroke:#231F20;stroke-width:4.7399;" d="M300.26,321.657c3.948,4.198,23.821,25.264,34.561,36.003
			c10.015,10.015,3.196,34.587,2.979,36.104c-0.176,1.287-0.562,2.479-1.097,3.603c-1.822,3.792-5.417,6.785-8.769,9.683
			c-7.706,6.684-11.999,18.458-23.069,19.813c-6.907,0.84-15.296,3.074-22.041,0.353c-1.381-0.556-2.695-1.32-3.914-2.35
			c-4.456-3.771-10.035-7.259-13.691-11.863c-2.296-2.898-13.929-16.468-13.929-28.243c0-10.726-2.37-13.292-2.553-20.422
			c-0.183-7.618,3.535-15.621,9.622-20.097c4.686-3.433,30.193-15.601,41.102-23.252c0.034-0.02,0.067-0.047,0.102-0.067
			C299.563,320.919,299.806,321.176,300.26,321.657z"/>
		<path style="fill:none;stroke:#231F20;stroke-width:4.7399;" d="M337.014,397.522c-1.124,18.811,8.166,28.866,8.166,28.866
			c12.08,7.841,20.672,10.908,26.807,16.731c1.605-5.464-0.196-14.511-4.069-18.37c-7.8-7.8-12.676-32.665-13.414-39.185
			c-1.287-11.362,3.203-23.95,3.203-35.346c0-32.509-21.431-58.158-44.88-60.894c-31.574-3.684-52.071,5.153-64.659,25.643
			c-7.462,12.161-12.601,33.213-11.613,47.074c0.386,5.376,4.639,42.165-0.115,54.346c-1.232,3.155-2.993,10.333-4.76,16.217
			c-6.758,22.555,11.816,25.026,14.429,36.084c3.271-1.923,24.905-19.521,28.311-22.331c4.679-3.874,7.889-11.004,7.889-17.958"/>
		<path style="fill:none;stroke:#231F20;stroke-width:4.7399;" d="M300.829,321.731c-0.21,0-0.399-0.021-0.569-0.075
			c-0.373-0.102-0.637-0.325-0.799-0.67c-0.021-0.041-0.034-0.088-0.054-0.135c3.352-3.277,4.997-8.451,6.006-12.852"/>
		<path style="fill:none;stroke:#231F20;stroke-width:4.458;" d="M528.512,363.747c-2.573-5.417-12.655-7.537-17.754-6.514
			c-4.788,0.955-7.164,1.523-12.175,5.403"/>
		<path style="fill:none;stroke:#231F20;stroke-width:4.458;" d="M548.527,362.799c2.58-5.417,12.648-7.536,17.754-6.514
			c4.801,0.948,7.178,1.523,12.175,5.403"/>
		<path style="fill:none;stroke:#231F20;stroke-width:3.3856;stroke-linecap:square;stroke-miterlimit:10;" d="M502.971,373.308
			c0.332-0.406,0.684-0.799,1.036-1.178c1.632-1.72,3.527-3.163,5.646-4.063c1.599-0.684,3.325-1.056,5.153-1.016
			c2.105,0.047,4.259,0.738,6.101,1.882c1.625,1.002,3.014,2.37,3.914,3.968c0.549,0.969,1.273,1.639,0.318,2.228
			c-0.813,0.501-1.795,0.142-2.675,0.548c-0.582,0.278-1.11,0.948-1.74,1.232c-0.745,0.345-1.733,0.542-2.539,0.711
			c-1.902,0.393-4.388,0.278-6.209-0.366c-2.993-1.07-5.594-2.925-7.842-5.004"/>
		<path style="fill:none;stroke:#231F20;stroke-width:2.229;stroke-linecap:square;stroke-miterlimit:10;" d="M520.623,369.394
			c0.353,0.704,0.129,0.63,0.129,1.462c0,3.014-2.553,5.451-5.701,5.451c-3.149,0-5.702-2.438-5.702-5.451
			c0-1.124-0.108-1.415,0.508-2.282"/>
		<path style="fill:none;stroke:#231F20;stroke-width:3.3856;stroke-linecap:square;stroke-miterlimit:10;" d="M576.357,373.375
			c-0.332-0.406-0.685-0.799-1.036-1.178c-1.632-1.713-3.521-3.155-5.641-4.063c-1.591-0.677-3.317-1.057-5.152-1.016
			c-2.113,0.047-4.267,0.731-6.108,1.882c-1.625,1.002-3.013,2.37-3.913,3.968c-0.549,0.968-1.267,1.639-0.312,2.228
			c0.813,0.501,1.794,0.142,2.668,0.548c0.582,0.277,1.117,0.948,1.739,1.232c0.745,0.345,1.74,0.542,2.54,0.711
			c1.896,0.393,4.395,0.277,6.209-0.373c3-1.063,5.593-2.918,7.848-5.004"/>
		<path style="fill:none;stroke:#231F20;stroke-width:2.229;stroke-linecap:square;stroke-miterlimit:10;" d="M558.704,369.462
			c-0.352,0.704-0.128,0.629-0.128,1.462c0,3.013,2.553,5.451,5.708,5.451c3.148,0,5.701-2.438,5.701-5.451
			c0-1.124,0.108-1.422-0.508-2.282"/>
		<path style="fill:none;stroke:#231F20;stroke-width:4.7399;" d="M612.746,364.465c0-0.021,0.007-0.034,0.007-0.054
			c5.403-45.977-16.015-68.539-41.088-71.464c-33.748-3.934-57.597-2.045-76.644,25.467c-8.688,12.54-7.971,41.379-6.9,56.194
			c0,0,1.727,1.835,6.629,6.744"/>
		<path style="fill:none;stroke:#231F20;stroke-width:4.7399;" d="M598.418,376.944c-0.217-0.955-0.48-1.869-0.799-2.735"/>
		<path style="fill:none;stroke:#231F20;stroke-width:4.7399;" d="M599.38,385.95c-5.391-5.383-3.23-32.299-10.083-39.151
			s-11.748-25.453-11.748-25.453c-0.122-0.074-0.237-0.135-0.365-0.176c-2.898-1.07-7.76,4.957-10.401,6.439
			c-4.109,2.315-9.094,3.426-13.59,4.618c-11.633,3.067-26.787-16.508-51.996,8.694l-5.87,9.75c0,12.161-1.077,18.642-1.077,24.167
			c0,2.146,0.203,4.32,0.501,6.514c0.813,5.918,2.363,11.992,2.723,18.052c0.061,1.104,0.176,2.16,0.324,3.176
			c1.605,11.064,7.754,17.199,9.88,21.065c1.977,3.596,10.597,17.246,15.547,21.431c7.956,6.73,27.051,3.69,36.375,3.69
			c14.036,0,35.637-31.107,36.511-37.364c0.074-0.555,1.049-4.469,1.916-9.798C598.771,397.014,599.44,391.38,599.38,385.95
			c-0.027-3.122-0.305-6.175-0.941-8.924"/>
		<path style="fill:none;stroke:#231F20;stroke-width:4.7399;" d="M576.574,322.814c0.189-0.535,0.393-1.083,0.609-1.645
			c2.228-5.79,5.897-12.574,9.669-16.766"/>
		<path style="fill:none;stroke:#231F20;stroke-width:3.3435;" d="M521.7,423.666c0.981-0.014,1.923-0.176,2.83-0.433
			c3.853-1.097,7.19-3.874,10.976-3.934c1.084-0.027,2.208,0.176,3.386,0.704c3.244,1.449,5.093-1.043,8.668-0.664
			c0.203,0.02,0.412,0.047,0.622,0.074c4.158,0.555,9.04,2.228,15.426,2.12c0.69-0.014,1.401-0.041,2.126-0.102"/>
		<path style="fill:none;stroke:#231F20;stroke-width:3.3435;" d="M519.635,423.07c0.704,0.163,1.395,0.366,2.065,0.596
			c2.966,1.009,5.701,2.505,8.802,3.25c4.408,1.063,9.405,0.23,13.875-0.149c6.98-0.609,13.278,0.122,18.601-4.652
			c0.21-0.183,0.42-0.379,0.63-0.582c0.162-0.163,0.324-0.332,0.487-0.508"/>
		<path style="fill:none;stroke:#231F20;stroke-width:3.3435;" d="M524.686,423.753c11.24,0,27.39-0.731,38.292-1.639"/>
		<path style="fill:none;stroke:#231F20;stroke-width:4.458;" d="M529.676,366.205c7.138,5.336,3.84,19.813,2.039,25.203
			c-0.237,0.711-4.267,4.618-4.713,5.891c-0.644,1.781-0.413,4.368,0.589,5.403c0.84,0.86,3.311,1.794,4.36,1.957
			c1.091,0.169,1.747,0.278,2.993,0.745c0.792,0.298,1.692,0.556,2.627,0.705c1.89,0.325,3.9,0.216,5.363-0.84
			c0.427-0.312,0.819-0.555,1.205-0.745c0.189-0.102,0.372-0.19,0.556-0.257c1.523-0.609,2.985-0.474,5.524-0.352
			c0.346,0.013,0.691,0.007,1.036-0.034c2.601-0.325,5.112-2.329,4.984-6.297c-0.102-3.108-2.432-1.598-4.097-3.785"/>
		<path style="fill:none;stroke:#231F20;stroke-width:4.458;" d="M537.571,406.101v0.007c0.027,2.546-1.178,10.374-2.078,12.73"/>
		<path style="fill:none;stroke:#231F20;stroke-width:4.458;" d="M544.688,404.016c0,0.081,0,0.162,0.007,0.25
			c0.061,3.257,1.34,10.38,3.541,14.693"/>
		<path style="fill:none;stroke:#231F20;stroke-width:4.458;" d="M531.782,391.069c-0.021,0.108-0.048,0.224-0.067,0.338
			c-0.819,4.049-2.344,11.071,3.229,13.996"/>
		<path style="fill:none;stroke:#231F20;stroke-width:4.7399;" d="M598.438,377.045c0-0.007,0-0.013,0-0.02
			c-0.014-0.027-0.014-0.054-0.021-0.082c-1.267-5.986,3.426-15.404,11.254-14.037c1.334,0.23,2.343,0.772,3.081,1.503
			c2.681,2.667,1.882,7.929,0.562,10.875c-4.117,9.148-2.234,12.513-2.756,19.494c-0.305,3.9-7.197,12.066-12.533,6.826"/>
		<path style="fill:none;stroke:#231F20;stroke-width:4.7399;" d="M488.121,374.608c2.573,7.896,0.359,13.61,1.327,19.176
			c0.508,2.891,3.704,8.444,8.349,8.796c0.149,0.007,0.305,0.013,0.461,0.013"/>
		<path style="fill:none;stroke:#231F20;stroke-width:4.7399;" d="M591.39,420.896c-0.081,5.018,10.008,22.488,10.008,22.488
			c6.663,7.746,22.508,15.607,29.144,22.866"/>
		<path style="fill:none;stroke:#231F20;stroke-width:4.7399;" d="M524.198,446.647c-0.731,5.261-15.459,21.62-27.729,34.499"/>
		<path style="fill:none;stroke:#231F20;stroke-width:4.458;" d="M543.652,405.241c0.148-0.264,0.312-0.501,0.487-0.718
			c1.849-2.33,4.868-1.679,7.116-0.644c0.156,0.068,0.312,0.143,0.461,0.217"/>
		<path style="fill:none;stroke:#231F20;stroke-width:4.458;" d="M534.972,435.752c3.311-3.311,8.796-4.719,13.576-1.097"/>
		<line style="fill:none;stroke:#231F20;stroke-width:4.7399;" x1="246.11" y1="468.688" x2="233.746" y2="477.084"/>
		<line style="fill:none;stroke:#231F20;stroke-width:4.7399;" x1="371.987" y1="443.119" x2="382.713" y2="459.479"/>
		<path style="fill:none;stroke:#231F20;stroke-width:14;" d="M413.881,392.41c0,62.275-50.48,112.754-112.755,112.754
			c-62.275,0-112.755-50.479-112.755-112.754c0-62.282,50.479-112.762,112.755-112.762
			C363.401,279.648,413.881,330.127,413.881,392.41z"/>
		<path style="fill:none;stroke:#231F20;stroke-width:14;" d="M663.388,392.41c0,62.275-50.479,112.748-112.755,112.748
			c-62.274,0-112.761-50.473-112.761-112.748c0-62.282,50.486-112.762,112.761-112.762
			C612.908,279.648,663.388,330.127,663.388,392.41z"/>
	</g>
</g>
<rect style="fill:none;" width="850.394" height="850.394"/>
<g id="XMLID_3_">
	<g>
		<path style="fill:#FFEEC8;" d="M488.064,657.679c2.854,9.061,3.379,20.235,2.394,23.785c-0.589,2.081-3.298,5.041-5.849,4.729
			c-2.819-0.303-3.455-6.961-4.832-9.081c-2.142,0.439-1.041,3.566-2.624,3.566c-1.369-1.369-1.829-5.132-1.829-9.073
			c0-4.645,0.64-9.533,1.177-11.018L488.064,657.679z"/>
		<path style="fill:#ABD153;" d="M451.476,639.572c0.823,2.205,2.943,8.403,4.334,17.096l-0.794,0.128l-66.537,0.273
			c1.207-10.873,3.271-17.472,3.271-17.472l-2.209-28.19l-22.338,48.916l-11.577-2.913c0,0,7.29-25.098,10.259-37.066
			c4.295-17.365,18.499-46.008,18.499-46.008c3.617-3.617,9.713-7.869,14.899-11.223c5.055-3.259,9.248-5.664,9.465-5.792
			c3.169,3.322,7.204,5.314,11.598,5.314c5.571,0,10.566-3.199,13.948-8.254l1.079,0.316c0,0,4.176,3.169,9.257,7.242
			c5.08,4.069,11.064,9.047,14.689,12.664c0,0,14.2,28.639,18.495,46.004c2.952,11.969,10.25,37.07,10.25,37.07l-11.563,2.909
			l-22.355-48.907L451.476,639.572z"/>
		<path style="fill:#231F20;" d="M450.742,777.897l0.017-0.009c0.013,3.916,7.597,7.379,13.521,10.758
			c3.689,2.106,5.797,5.754,4.701,9.656c-0.913,3.242-8.05,5.051-11.653,2.981c-6.258-3.574-2.188-2.35-6.847-4.158
			c-10.151-3.967-12.54-2.385-13.397-12.946L450.742,777.897z"/>
		<path style="fill:#C8C8C8;" d="M455.81,656.668c0.759,4.73,1.301,10.199,1.301,16.162c0,17.911-5.784,97.138-6.368,105.067
			l-13.658,6.282c-0.052-0.605-0.099-1.249-0.137-1.94l-1.279-8.573h-0.013l-10.532-92.77l-5.345-0.021l-10.762,93.153l0.017,0.004
			l-0.913,7.252c-0.136,2.269-0.311,4.064-0.571,5.515l-0.329-0.06l-12.634-9.857c0,0.106-0.008,0.218-0.021,0.324
			c-0.772-9.602-6.939-86.943-6.939-104.623c0-5.793,0.354-11.018,0.853-15.514l66.537-0.273L455.81,656.668z"/>
		<path style="fill:#FFEEC8;" d="M408.749,557.321c-4.172-4.377-6.838-11.073-6.838-18.576c0-13.188,8.25-23.896,18.436-23.896
			c10.19,0,18.444,10.707,18.444,23.896c0,5.98-1.697,11.444-4.496,15.637c-3.382,5.055-8.377,8.254-13.948,8.254
			C415.953,562.636,411.917,560.644,408.749,557.321z"/>
		<path style="fill:#231F20;" d="M394.565,777.206c0.013-0.106,0.021-0.218,0.021-0.324l12.634,9.857l0.329,0.06
			c-1.19,6.676-4.15,5.934-12.98,9.38c-4.653,1.796-0.58,0.585-6.837,4.159c-3.608,2.064-10.736,0.238-11.662-2.99
			c-1.101-3.895,1.015-7.546,4.709-9.648C386.546,784.406,394.139,780.998,394.565,777.206z"/>
		<path style="fill:#FFEEC8;" d="M367.203,660.323c0.533,1.48,1.173,6.364,1.173,11.01c0,3.941-0.46,7.708-1.83,9.072
			c-1.57,0-0.486-3.122-2.624-3.562c-1.365,2.124-2.013,8.791-4.837,9.09c-2.546,0.307-5.264-2.653-5.844-4.734
			c-0.998-3.554-0.46-14.716,2.384-23.789L367.203,660.323z"/>
	</g>
	<g>
		<path style="fill:none;stroke:#231F20;stroke-width:7;" d="M408.749,557.321c-4.172-4.377-6.838-11.073-6.838-18.576
			c0-13.188,8.25-23.896,18.436-23.896c10.19,0,18.444,10.707,18.444,23.896c0,5.98-1.697,11.444-4.496,15.637
			c-3.382,5.055-8.377,8.254-13.948,8.254C415.953,562.636,411.917,560.644,408.749,557.321z"/>
		<path style="fill:none;stroke:#231F20;stroke-width:7;" d="M355.626,657.41c0,0,7.29-25.098,10.259-37.066
			c4.295-17.365,18.499-46.008,18.499-46.008c3.617-3.617,9.713-7.869,14.899-11.223c5.055-3.259,9.248-5.664,9.465-5.792
			c0.004-0.004,0.008-0.004,0.008-0.004"/>
		<path style="fill:none;stroke:#231F20;stroke-width:7;" d="M394.643,778.183c0,0-0.026-0.337-0.077-0.977
			c-0.772-9.602-6.939-86.943-6.939-104.623c0-5.793,0.354-11.018,0.853-15.514c1.207-10.873,3.271-17.472,3.271-17.472
			l-2.209-28.19l-22.338,48.916c0.533,1.48,1.173,6.364,1.173,11.01c0,3.941-0.46,7.708-1.83,9.072c-1.57,0-0.486-3.122-2.624-3.562
			c-1.365,2.124-2.013,8.791-4.837,9.09c-2.546,0.307-5.264-2.653-5.844-4.734c-0.998-3.554-0.46-14.716,2.384-23.789"/>
		<path style="fill:none;stroke:#231F20;stroke-width:7;" d="M488.064,657.679c0,0-7.298-25.102-10.25-37.07
			c-4.295-17.365-18.495-46.004-18.495-46.004c-3.625-3.617-9.609-8.595-14.689-12.664c-5.081-4.073-9.257-7.242-9.257-7.242"/>
		<path style="fill:none;stroke:#231F20;stroke-width:7;" d="M451.378,640.587l0.098-1.015l2.67-27.892l22.355,48.907
			c-0.537,1.484-1.177,6.373-1.177,11.018c0,3.941,0.46,7.704,1.829,9.073c1.583,0,0.482-3.127,2.624-3.566
			c1.377,2.12,2.013,8.778,4.832,9.081c2.551,0.312,5.26-2.648,5.849-4.729c0.985-3.55,0.46-14.725-2.394-23.785"/>
		<path style="fill:none;stroke:#231F20;stroke-width:7;" d="M450.695,778.537c0,0,0.017-0.222,0.047-0.64
			c0.584-7.93,6.368-87.156,6.368-105.067c0-5.963-0.542-11.432-1.301-16.162c-1.391-8.692-3.511-14.891-4.334-17.096
			c-0.213-0.58-0.341-0.883-0.341-0.883"/>
		<path style="fill:none;stroke:#231F20;stroke-width:7;" d="M409.068,773.764l-0.034,0.269l-0.913,7.252
			c-0.136,2.269-0.311,4.064-0.571,5.515c-1.19,6.676-4.15,5.934-12.98,9.38c-4.653,1.796-0.58,0.585-6.837,4.159
			c-3.608,2.064-10.736,0.238-11.662-2.99c-1.101-3.895,1.015-7.546,4.709-9.648c5.767-3.293,13.359-6.701,13.786-10.493
			c0.013-0.106,0.021-0.218,0.021-0.324"/>
		<path style="fill:none;stroke:#231F20;stroke-width:7;" d="M435.668,773.666l1.279,8.573c0.038,0.691,0.085,1.335,0.137,1.94
			c0.857,10.562,3.246,8.979,13.397,12.946c4.658,1.809,0.589,0.584,6.847,4.158c3.604,2.069,10.74,0.261,11.653-2.981
			c1.096-3.902-1.012-7.55-4.701-9.656c-5.925-3.379-13.509-6.842-13.521-10.758"/>
		<polyline style="fill:none;stroke:#231F20;stroke-width:7;" points="435.724,774.263 435.655,773.666 425.124,680.896 
			419.779,680.875 409.017,774.028 		"/>
		<polyline style="fill:none;stroke:#231F20;stroke-width:7;" points="388.453,657.069 388.479,657.069 455.016,656.796 		"/>
		<line style="fill:none;stroke:#231F20;stroke-width:2.9858;" x1="355.626" y1="657.41" x2="367.203" y2="660.323"/>
		<line style="fill:none;stroke:#231F20;stroke-width:2.9858;" x1="476.501" y1="660.588" x2="488.064" y2="657.679"/>
		<line style="fill:none;stroke:#231F20;stroke-width:2.9858;" x1="394.587" y1="776.882" x2="407.221" y2="786.739"/>
		<polyline style="fill:none;stroke:#231F20;stroke-width:2.9858;" points="437.08,784.18 437.084,784.18 450.742,777.897 
			450.759,777.889 		"/>
	</g>
</g>
<g id="XMLID_8_">
	<g>
		<path style="fill:#FFEEC8;" d="M428.72,257.928c-18.956,0-36.751-4.928-52.194-13.569l0.847-1.505
			c11.384-11.942,23.482-28.009,24.173-32.893l0.346-0.546c7.973,5.051,24.296,2.509,32.492,2.509
			c9.478,0,22.69-15.309,29.48-25.868l0.012,0.011c-0.078,4.661,9.288,20.873,9.288,20.873c6.188,7.181,26.258,9.857,32.436,16.591
			l0.925,0.859C487.012,245.039,459.371,257.928,428.72,257.928z"/>
		<path style="fill:#FFEEC8;" d="M483.689,133.661c2.509,2.453,1.762,7.348,0.535,10.091c-3.836,8.497-2.074,11.619-2.564,18.085
			c-0.268,3.624-6.668,11.184-11.618,6.344c0.69-4.259,1.315-9.5,1.248-14.551c-0.021-3.021-0.301-5.987-0.947-8.63
			c-0.959-5.564,3.367-13.971,10.503-12.722C482.072,132.49,482.998,132.98,483.689,133.661z"/>
		<path style="fill:#7A7878;" d="M471.29,153.63c-4.995-5.018-2.988-29.949-9.354-36.305c-6.355-6.355-10.894-23.627-10.894-23.627
			c-0.111-0.067-0.224-0.123-0.346-0.167c2.074-5.363,5.464-11.652,8.976-15.543l3.323-4.549
			c14.64,9.277,24.385,28.89,20.694,60.222c-0.691-0.68-1.617-1.171-2.844-1.382c-7.136-1.249-11.462,7.158-10.503,12.722
			C470.989,147.643,471.269,150.609,471.29,153.63z"/>
		<path style="fill:#231F20;" d="M437.628,139.905c0-0.703,0.514-1.26,1.16-1.26c0.624,0,1.148,0.557,1.148,1.26
			c0,0.691-0.524,1.249-1.148,1.249C438.142,141.154,437.628,140.596,437.628,139.905z"/>
		<path style="fill:#231F20;" d="M438.788,138.645c-0.646,0-1.16,0.557-1.16,1.26c0,0.691,0.514,1.249,1.16,1.249
			c0.624,0,1.148-0.558,1.148-1.249C439.937,139.202,439.412,138.645,438.788,138.645z M435.543,139.894
			c0-1.561,1.45-2.832,3.245-2.832c1.772,0,3.2,1.271,3.2,2.832c0,1.572-1.428,2.843-3.2,2.843
			C436.993,142.737,435.543,141.466,435.543,139.894z"/>
		<path style="fill:#FFFFFF;" d="M429.667,141.6c1.773-3.155,5.608-5.341,9.288-5.43c3.97-0.089,7.37,1.929,10.013,4.728
			l-0.111,0.101c-2.085,1.929-4.516,3.657-7.281,4.638c-1.684,0.602-4.003,0.714-5.753,0.346c-0.747-0.156-1.662-0.334-2.353-0.658
			c-0.592-0.268-1.082-0.892-1.628-1.137c-0.804-0.391-1.718-0.056-2.476-0.524C428.485,143.116,429.154,142.492,429.667,141.6z
			 M438.788,137.062c-1.795,0-3.245,1.271-3.245,2.832c0,1.572,1.45,2.843,3.245,2.843c1.772,0,3.2-1.271,3.2-2.843
			C441.988,138.333,440.561,137.062,438.788,137.062z"/>
		<path style="fill:#FFFFFF;" d="M424.137,198.833l-12.6,1.026C414.604,196.781,419.699,195.477,424.137,198.833z"/>
		<path style="fill:#FFEEC8;" d="M415.172,185.241c-1.093-0.491-2.141-0.68-3.144-0.658l-0.011-0.423
			c0.836-2.186,1.962-9.444,1.929-11.808c1.751,0.301,3.613,0.201,4.973-0.781c0.401-0.29,0.77-0.513,1.126-0.691
			c0.167-0.101,0.334-0.167,0.502-0.234c0.067,3.021,1.249,9.634,3.3,13.625l-0.056,0.424c-0.201-0.022-0.39-0.045-0.58-0.067
			C419.899,184.271,418.183,186.59,415.172,185.241z"/>
		<path style="fill:#FFEEC8;" d="M448.968,140.897c-2.643-2.798-6.043-4.817-10.013-4.728c-3.68,0.089-7.515,2.275-9.288,5.43
			c-0.513,0.892-1.182,1.517-0.301,2.063c0.758,0.469,1.672,0.134,2.476,0.524c0.546,0.245,1.036,0.87,1.628,1.137
			c0.69,0.323,1.605,0.502,2.353,0.658c1.75,0.368,4.069,0.256,5.753-0.346c2.766-0.981,5.196-2.709,7.281-4.638L448.968,140.897z
			 M424.137,198.833c-4.438-3.356-9.533-2.052-12.6,1.026L424.137,198.833z M450.696,93.532c0.122,0.044,0.234,0.1,0.346,0.167
			c0,0,4.538,17.271,10.894,23.627c6.366,6.355,4.359,31.287,9.354,36.305c0.067,5.051-0.558,10.292-1.248,14.551
			c-0.804,4.94-1.706,8.575-1.784,9.087c-0.224,1.572-1.862,4.851-4.394,8.787c-6.79,10.559-20.003,25.868-29.48,25.868
			c-8.195,0-24.519,2.542-32.492-2.509c-0.446-0.268-0.87-0.569-1.26-0.903c-4.594-3.892-12.588-16.547-14.428-19.892
			c-1.985-3.579-7.671-9.277-9.154-19.535c-0.145-0.948-0.245-1.929-0.301-2.955c-0.335-5.62-1.773-11.25-2.531-16.748
			c-0.279-2.029-0.468-4.047-0.468-6.043c0-5.129,0.992-11.139,0.992-22.423l5.464-9.042c23.37-23.393,37.442-5.229,48.235-8.084
			c4.17-1.104,8.798-2.129,12.611-4.271C443.493,98.137,448.009,92.55,450.696,93.532z M408.516,158.715
			c-0.223,0.658-3.958,4.282-4.382,5.453c-0.591,1.661-0.379,4.059,0.546,5.018c0.792,0.792,3.078,1.672,4.059,1.817
			c1.015,0.156,1.606,0.256,2.776,0.691C406.352,168.984,407.757,162.473,408.516,158.715z M392.816,136.114
			c-3.936-0.089-7.348,1.918-10.013,4.705l0.123,0.112c2.085,1.929,4.482,3.657,7.27,4.649c1.684,0.591,4.003,0.703,5.765,0.334
			c0.747-0.145,1.661-0.334,2.353-0.658c0.58-0.256,1.082-0.881,1.617-1.137c0.814-0.379,1.729-0.045,2.487-0.513
			c0.881-0.546,0.211-1.17-0.301-2.074C400.342,138.377,396.518,136.203,392.816,136.114z M407.4,191.652
			c4.07,0.981,8.708,0.212,12.867-0.145c6.479-0.546,12.31,0.123,17.261-4.293c0.2-0.178,0.39-0.368,0.579-0.557
			c-5.92,0.111-10.458-1.45-14.316-1.962l0.056-0.424c-2.052-3.992-3.233-10.604-3.3-13.625c1.416-0.569,2.776-0.435,5.14-0.323
			c0.323,0.011,0.646,0,0.97-0.034c-2.074-0.959-4.895-1.583-6.612,0.591c-0.356,0.178-0.725,0.401-1.126,0.691
			c-1.36,0.981-3.222,1.082-4.973,0.781c0.034,2.364-1.093,9.623-1.929,11.808l0.011,0.423c-3.512,0.067-6.612,2.643-10.18,3.646
			c-0.836,0.246-1.706,0.402-2.62,0.413v0.011C401.981,189.579,404.513,190.972,407.4,191.652z"/>
		<path style="fill:#EE947D;" d="M437.517,187.204c-10.113,0.847-25.099,1.516-35.524,1.516l-0.145-0.491
			c3.568-1.003,6.668-3.579,10.18-3.646c1.003-0.022,2.051,0.167,3.144,0.658c3.011,1.349,4.728-0.97,8.04-0.613
			c0.189,0.022,0.379,0.044,0.58,0.067c3.858,0.513,8.396,2.074,14.316,1.962c-0.189,0.189-0.379,0.379-0.579,0.557L437.517,187.204
			z"/>
		<path style="fill:#EE947D;" d="M401.993,188.72c10.425,0,25.411-0.669,35.524-1.516l0.012,0.011
			c-4.951,4.416-10.782,3.747-17.261,4.293c-4.159,0.357-8.797,1.126-12.867,0.145c-2.888-0.68-5.419-2.074-8.173-3v-0.011
			c0.914-0.011,1.784-0.167,2.62-0.413L401.993,188.72z"/>
		<path style="fill:#FFFFC2;" d="M400.632,208.511c0.39,0.334,0.814,0.636,1.26,0.903l-0.346,0.546
			c-0.691,4.883-12.789,20.951-24.173,32.893l-0.847,1.505c-32.714-18.309-54.825-53.297-54.825-93.449
			c0-59.106,47.912-107.029,107.019-107.029c59.106,0,107.029,47.923,107.029,107.029c0,28.455-11.116,54.313-29.225,73.479
			l-0.925-0.859c-6.178-6.734-26.248-9.411-32.436-16.591c0,0-9.366-16.212-9.288-20.873l-0.012-0.011
			c2.531-3.936,4.17-7.214,4.394-8.787c0.078-0.513,0.98-4.147,1.784-9.087c4.95,4.839,11.351-2.72,11.618-6.344
			c0.49-6.467-1.271-9.589,2.564-18.085c1.227-2.743,1.974-7.638-0.535-10.091c3.69-31.332-6.055-50.945-20.694-60.222
			c-5.297-3.356-11.239-5.363-17.417-6.088c-31.309-3.646-53.442-1.884-71.115,23.627c-8.062,11.641-7.381,38.401-6.4,52.138
			c2.386,7.325,0.346,12.633,1.249,17.795c0.458,2.687,3.423,7.85,7.738,8.173c1.483,10.258,7.169,15.956,9.154,19.535
			C388.044,191.964,396.039,204.62,400.632,208.511z"/>
		<path style="fill:#231F20;" d="M393.006,138.578c0.624,0,1.148,0.557,1.148,1.26c0,0.691-0.524,1.26-1.148,1.26
			c-0.647,0-1.16-0.568-1.16-1.26C391.846,139.135,392.359,138.578,393.006,138.578z"/>
		<path style="fill:#231F20;" d="M396.239,139.838c0,1.561-1.461,2.832-3.233,2.832c-1.795,0-3.234-1.271-3.234-2.832
			s1.438-2.832,3.234-2.832C394.778,137.006,396.239,138.277,396.239,139.838z M394.154,139.838c0-0.703-0.524-1.26-1.148-1.26
			c-0.647,0-1.16,0.557-1.16,1.26c0,0.691,0.513,1.26,1.16,1.26C393.63,141.098,394.154,140.529,394.154,139.838z"/>
		<path style="fill:#FFFFFF;" d="M389.772,139.838c0,1.561,1.438,2.832,3.234,2.832c1.772,0,3.233-1.271,3.233-2.832
			s-1.461-2.832-3.233-2.832C391.21,137.006,389.772,138.277,389.772,139.838z M382.803,140.819
			c2.665-2.787,6.077-4.794,10.013-4.705c3.702,0.089,7.526,2.263,9.299,5.419c0.513,0.903,1.182,1.527,0.301,2.074
			c-0.758,0.468-1.673,0.134-2.487,0.513c-0.535,0.256-1.037,0.881-1.617,1.137c-0.691,0.323-1.605,0.513-2.353,0.658
			c-1.762,0.368-4.081,0.256-5.765-0.334c-2.788-0.992-5.185-2.721-7.27-4.649L382.803,140.819z"/>
		<path style="fill:#FFEEC8;" d="M369.312,160.912c-0.903-5.163,1.138-10.47-1.249-17.795c0,0,1.605,1.706,6.144,6.266h0.011
			c0.758,5.497,2.196,11.128,2.531,16.748c0.056,1.026,0.156,2.007,0.301,2.955C372.735,168.761,369.769,163.599,369.312,160.912z"
			/>
		<path style="fill:#7A7878;" d="M368.063,143.116c-0.981-13.737-1.662-40.498,6.4-52.138
			c17.673-25.511,39.806-27.273,71.115-23.627c6.178,0.725,12.12,2.732,17.417,6.088l-3.323,4.549
			c-3.512,3.892-6.901,10.18-8.976,15.543c-2.688-0.981-7.203,4.605-9.645,5.987c-3.813,2.141-8.441,3.167-12.611,4.271
			c-10.793,2.854-24.865-15.309-48.235,8.084l-5.464,9.042c0,11.284-0.992,17.294-0.992,22.423c0,1.996,0.189,4.014,0.468,6.043
			h-0.011C369.668,144.822,368.063,143.116,368.063,143.116z"/>
	</g>
	<g>
		<path style="fill:none;stroke:#231F20;stroke-width:7.387;" d="M405.538,133.047c-2.386-5.029-11.752-6.991-16.458-6.054
			c-4.449,0.892-6.656,1.427-11.317,5.017"/>
		<path style="fill:none;stroke:#231F20;stroke-width:7.387;" d="M424.114,132.167c2.386-5.029,11.73-6.991,16.469-6.043
			c4.46,0.881,6.656,1.405,11.307,5.018"/>
		<path style="fill:none;stroke:#231F20;stroke-width:3.345;stroke-linecap:square;stroke-miterlimit:10;" d="M381.844,141.912
			c0.313-0.379,0.636-0.736,0.959-1.093c2.665-2.787,6.077-4.794,10.013-4.705c3.702,0.089,7.526,2.263,9.299,5.419
			c0.513,0.903,1.182,1.527,0.301,2.074c-0.758,0.468-1.673,0.134-2.487,0.513c-0.535,0.256-1.037,0.881-1.617,1.137
			c-0.691,0.323-1.605,0.513-2.353,0.658c-1.762,0.368-4.081,0.256-5.765-0.334c-2.788-0.992-5.185-2.721-7.27-4.649"/>
		<path style="fill:none;stroke:#231F20;stroke-width:2.23;stroke-linecap:square;stroke-miterlimit:10;" d="M398.224,138.288
			c0.324,0.658,0.123,0.58,0.123,1.36c0,2.788-2.375,5.051-5.296,5.051s-5.296-2.263-5.296-5.051c0-1.048-0.1-1.316,0.479-2.13"/>
		<path style="fill:none;stroke:#231F20;stroke-width:3.345;stroke-linecap:square;stroke-miterlimit:10;" d="M449.927,141.979
			c-0.313-0.368-0.624-0.736-0.959-1.082c-2.643-2.798-6.043-4.817-10.013-4.728c-3.68,0.089-7.515,2.275-9.288,5.43
			c-0.513,0.892-1.182,1.517-0.301,2.063c0.758,0.469,1.672,0.134,2.476,0.524c0.546,0.245,1.036,0.87,1.628,1.137
			c0.69,0.323,1.605,0.502,2.353,0.658c1.75,0.368,4.069,0.256,5.753-0.346c2.766-0.981,5.196-2.709,7.281-4.638"/>
		<path style="fill:none;stroke:#231F20;stroke-width:2.23;stroke-linecap:square;stroke-miterlimit:10;" d="M433.559,138.344
			c-0.335,0.658-0.123,0.591-0.123,1.36c0,2.788,2.364,5.062,5.285,5.062c2.933,0,5.308-2.274,5.308-5.062
			c0-1.037,0.089-1.316-0.479-2.119"/>
		<path style="fill:none;stroke:#231F20;stroke-width:7.8051;" d="M483.689,133.705c0-0.011,0-0.033,0-0.044
			c3.69-31.332-6.055-50.945-20.694-60.222c-5.297-3.356-11.239-5.363-17.417-6.088c-31.309-3.646-53.442-1.884-71.115,23.627
			c-8.062,11.641-7.381,38.401-6.4,52.138c0,0,1.605,1.706,6.144,6.266"/>
		<path style="fill:none;stroke:#231F20;stroke-width:7.8051;" d="M471.302,153.642l-0.012-0.011
			c-4.995-5.018-2.988-29.949-9.354-36.305c-6.355-6.355-10.894-23.627-10.894-23.627c-0.111-0.067-0.224-0.123-0.346-0.167
			c-2.688-0.981-7.203,4.605-9.645,5.987c-3.813,2.141-8.441,3.167-12.611,4.271c-10.793,2.854-24.865-15.309-48.235,8.084
			l-5.464,9.042c0,11.284-0.992,17.294-0.992,22.423c0,1.996,0.189,4.014,0.468,6.043c0.758,5.497,2.196,11.128,2.531,16.748
			c0.056,1.026,0.156,2.007,0.301,2.955c1.483,10.258,7.169,15.956,9.154,19.535c1.84,3.345,9.834,16,14.428,19.892
			c0.39,0.334,0.814,0.636,1.26,0.903c7.973,5.051,24.296,2.509,32.492,2.509c9.478,0,22.69-15.309,29.48-25.868
			c2.531-3.936,4.17-7.214,4.394-8.787c0.078-0.513,0.98-4.147,1.784-9.087c0.69-4.259,1.315-9.5,1.248-14.551
			c-0.021-3.021-0.301-5.987-0.947-8.63c-0.189-0.781-0.424-1.539-0.681-2.252"/>
		<path style="fill:none;stroke:#231F20;stroke-width:7.8051;" d="M450.128,95.07c0.178-0.502,0.367-1.015,0.568-1.539
			c2.074-5.363,5.464-11.652,8.976-15.543"/>
		<path style="fill:none;stroke:#231F20;stroke-width:3.345;" d="M399.228,188.642c0.914-0.011,1.784-0.167,2.62-0.413
			c3.568-1.003,6.668-3.579,10.18-3.646c1.003-0.022,2.051,0.167,3.144,0.658c3.011,1.349,4.728-0.97,8.04-0.613
			c0.189,0.022,0.379,0.044,0.58,0.067c3.858,0.513,8.396,2.074,14.316,1.962c0.636-0.011,1.294-0.034,1.963-0.089"/>
		<path style="fill:none;stroke:#231F20;stroke-width:3.345;" d="M397.298,188.084c0.658,0.156,1.293,0.345,1.929,0.568
			c2.754,0.926,5.285,2.319,8.173,3c4.07,0.981,8.708,0.212,12.867-0.145c6.479-0.546,12.31,0.123,17.261-4.293
			c0.2-0.178,0.39-0.368,0.579-0.557c0.156-0.145,0.313-0.301,0.457-0.468"/>
		<path style="fill:none;stroke:#231F20;stroke-width:3.345;" d="M401.993,188.72c10.425,0,25.411-0.669,35.524-1.516"/>
		<path style="fill:none;stroke:#231F20;stroke-width:5.575;" d="M406.62,135.322c6.623,4.951,3.557,18.386,1.896,23.393
			c-0.223,0.658-3.958,4.282-4.382,5.453c-0.591,1.661-0.379,4.059,0.546,5.018c0.792,0.792,3.078,1.672,4.059,1.817
			c1.015,0.156,1.606,0.256,2.776,0.691c0.736,0.278,1.572,0.513,2.431,0.658c1.751,0.301,3.613,0.201,4.973-0.781
			c0.401-0.29,0.77-0.513,1.126-0.691c0.167-0.101,0.334-0.167,0.502-0.234c1.416-0.569,2.776-0.435,5.14-0.323
			c0.323,0.011,0.646,0,0.97-0.034c2.409-0.312,4.728-2.163,4.605-5.854c-0.101-2.877-2.253-1.483-3.803-3.501"/>
		<path style="fill:none;stroke:#231F20;stroke-width:4.46;" d="M413.945,172.34v0.011c0.034,2.364-1.093,9.623-1.929,11.808"/>
		<path style="fill:none;stroke:#231F20;stroke-width:4.46;" d="M420.546,170.412c0,0.078,0,0.156,0,0.234
			c0.067,3.021,1.249,9.634,3.3,13.625"/>
		<path style="fill:none;stroke:#231F20;stroke-width:5.575;" d="M408.583,158.392c-0.022,0.101-0.045,0.212-0.067,0.323
			c-0.758,3.758-2.164,10.27,2.999,12.979"/>
		<path style="fill:none;stroke:#231F20;stroke-width:7.8051;" d="M470.409,145.391c-0.021-0.123-0.056-0.256-0.066-0.39
			c-0.959-5.564,3.367-13.971,10.503-12.722c1.227,0.211,2.152,0.702,2.844,1.382c2.509,2.453,1.762,7.348,0.535,10.091
			c-3.836,8.497-2.074,11.619-2.564,18.085c-0.268,3.624-6.668,11.184-11.618,6.344l-0.012-0.011"/>
		<path style="fill:none;stroke:#231F20;stroke-width:7.8051;" d="M368.063,143.116c2.386,7.325,0.346,12.633,1.249,17.795
			c0.458,2.687,3.423,7.85,7.738,8.173c0.145,0.011,0.279,0.011,0.424,0.011"/>
		<path style="fill:none;stroke:#231F20;stroke-width:7.8051;" d="M463.876,186.066c-0.078,4.661,9.288,20.873,9.288,20.873
			c6.188,7.181,26.258,9.857,32.436,16.591"/>
		<path style="fill:none;stroke:#231F20;stroke-width:7.8051;" d="M401.546,209.961c-0.691,4.883-12.789,20.951-24.173,32.893"/>
		<path style="fill:none;stroke:#231F20;stroke-width:5.575;" d="M419.599,171.549c0.134-0.246,0.29-0.468,0.446-0.669
			c1.717-2.174,4.538-1.55,6.612-0.591c0.134,0.056,0.268,0.123,0.401,0.19"/>
		<path style="fill:none;stroke:#231F20;stroke-width:3.345;" d="M411.537,199.859c3.066-3.078,8.162-4.382,12.6-1.026"/>
		<line style="fill:none;stroke:#231F20;stroke-width:14;" x1="424.995" y1="311.995" x2="424.003" y2="261.998"/>
		
			<path style="fill:none;stroke:#394EA1;stroke-width:28.9902;stroke-linecap:round;stroke-linejoin:round;stroke-dasharray:0 31.2202;" d="
			M376.526,244.359c-32.714-18.309-54.825-53.297-54.825-93.449c0-59.106,47.912-107.029,107.019-107.029
			c59.106,0,107.029,47.923,107.029,107.029c0,28.455-11.116,54.313-29.225,73.479c-19.513,20.65-47.153,33.539-77.805,33.539
			C409.764,257.928,391.969,253,376.526,244.359z"/>
	</g>
</g>
</svg>
