<?xml version="1.0" encoding="iso-8859-1"?>
<!-- Generator: Adobe Illustrator 12.0.1, SVG Export Plug-In . SVG Version: 6.00 Build 51448)  -->
<!DOCTYPE svg PUBLIC "-//W3C//DTD SVG 1.1//EN" "http://www.w3.org/Graphics/SVG/1.1/DTD/svg11.dtd" [
	<!ENTITY ns_svg "http://www.w3.org/2000/svg">
	<!ENTITY ns_xlink "http://www.w3.org/1999/xlink">
]>
<svg  version="1.1" id="Layer_1" xmlns="&ns_svg;" xmlns:xlink="&ns_xlink;" width="850.394" height="850.394"
	 viewBox="0 0 850.394 850.394" style="overflow:visible;enable-background:new 0 0 850.394 850.394;" xml:space="preserve">
<g id="XMLID_4_">
	<g>
		<path style="fill:#C8C8C8;" d="M489.63,152.43c0-38.55-0.979-50.03-1.41-53.25c33.24-1.82,62.261-0.56,73.53,5.82
			c6.34,23.48,6.66,62.16,6.62,72.1l-79.09-23.48L489.63,152.43z"/>
		<path style="fill:#C8C8C8;" d="M568.37,177.1l18.8,5.58l-1.49,5.01L374.14,226.6l-51.62-15.75L324,206c0,0,2.07-22.06,7.37-43.61
			l5.17,1.03l121.94-18.95l30.8,9.15L568.37,177.1z"/>
		<path style="fill:#C8C8C8;" d="M488.22,99.18c-58.47,3.2-130.02,15.9-141.04,26.92c-7.04,7.04-12.18,21.55-15.81,36.29
			C326.07,183.94,324,206,324,206l-1.48,4.85l-62.82-19.16c0,0,0.81-7.01,2.35-17.24c3.29-21.89,9.93-58.5,19.08-72.47
			c17.32-26.44,194.53-38.06,208.811-35.56c23.35,4.08,52.64,14.76,62.689,21.4c3.94,2.6,6.9,8.96,9.12,17.18
			C550.48,98.62,521.46,97.36,488.22,99.18z"/>
		<path style="fill:#C8C8C8;" d="M452.45,668.56l-5.15,19.33l-7.78-18.489c2,1.04,4.29,1.55,6.69,1.369
			C448.54,670.6,450.67,669.8,452.45,668.56z"/>
		<path style="fill:#C8C8C8;" d="M496.53,659.62l-5.15,19.3l-7.79-18.479c1.99,1.05,4.29,1.56,6.7,1.39
			C492.62,661.65,494.75,660.86,496.53,659.62z"/>
		<path style="fill:#C8C8C8;" d="M542.25,650.19l-5.14,19.329l-7.801-18.51c1.99,1.05,4.29,1.57,6.7,1.391
			C538.34,652.23,540.47,651.44,542.25,650.19z"/>
		<path style="fill:#C8C8C8;" d="M587.34,641.09l-5.149,19.33l-7.78-18.479c1.99,1.029,4.29,1.54,6.689,1.359
			C583.43,643.13,585.56,642.34,587.34,641.09z"/>
		<path style="fill:#C8C8C8;" d="M581.12,556.53l-5.15,19.33l-7.779-18.49c1.989,1.04,4.29,1.55,6.699,1.38
			C577.21,558.57,579.34,557.78,581.12,556.53z"/>
		<path style="fill:#C8C8C8;" d="M536.03,565.64l-5.13,19.32l-7.801-18.51c1.99,1.05,4.29,1.569,6.7,1.39
			C532.12,567.67,534.25,566.88,536.03,565.64z"/>
		<path style="fill:#C8C8C8;" d="M490.31,575.05l-5.14,19.32l-7.79-18.49c1.99,1.04,4.29,1.55,6.7,1.37
			C486.4,577.08,488.53,576.29,490.31,575.05z"/>
		<path style="fill:#C8C8C8;" d="M446.24,583.99l-5.15,19.33l-7.79-18.48c1.99,1.03,4.29,1.54,6.69,1.36
			C442.32,586.03,444.45,585.24,446.24,583.99z"/>
		<path style="fill:#C8C8C8;" d="M574.86,471.48l-5.141,19.31l-7.79-18.49c1.99,1.04,4.29,1.561,6.7,1.38
			C570.95,473.51,573.08,472.72,574.86,471.48z"/>
		<path style="fill:#C8C8C8;" d="M529.8,480.55l-5.149,19.34l-7.801-18.5c2,1.04,4.301,1.551,6.71,1.38
			C525.89,482.59,528.02,481.79,529.8,480.55z"/>
		<path style="fill:#C8C8C8;" d="M484.07,489.97l-5.15,19.34l-7.8-18.5c2,1.04,4.3,1.561,6.7,1.381
			C480.15,492.02,482.28,491.22,484.07,489.97z"/>
		<path style="fill:#C8C8C8;" d="M439.98,498.95l-5.15,19.3l-7.78-18.47c1.99,1.04,4.29,1.55,6.69,1.38
			C436.07,500.99,438.2,500.19,439.98,498.95z"/>
		<path style="fill:#C8C8C8;" d="M568.8,388.93l-5.14,19.29l-7.79-18.47c1.99,1.04,4.29,1.56,6.7,1.38
			C564.89,390.96,567.02,390.17,568.8,388.93z"/>
		<path style="fill:#C8C8C8;" d="M523.73,397.99l-5.15,19.33l-7.79-18.49c1.99,1.05,4.29,1.56,6.69,1.38
			C519.81,400.04,521.94,399.24,523.73,397.99z"/>
		<path style="fill:#C8C8C8;" d="M477.98,407.42l-5.141,19.32l-7.8-18.51c2,1.05,4.3,1.57,6.71,1.39
			C474.07,409.45,476.2,408.66,477.98,407.42z"/>
		<path style="fill:#C8C8C8;" d="M433.91,416.37l-5.141,19.34l-7.79-18.48c1.99,1.03,4.29,1.54,6.69,1.36
			C430,418.41,432.13,417.62,433.91,416.37z"/>
		<path style="fill:#C8C8C8;" d="M562.45,300.11l-5.16,19.33l-7.79-18.49c2,1.04,4.3,1.56,6.7,1.38
			C558.53,302.16,560.66,301.36,562.45,300.11z"/>
		<path style="fill:#C8C8C8;" d="M517.36,309.22l-5.15,19.32l-7.78-18.5c1.99,1.05,4.29,1.56,6.69,1.38
			C513.45,311.25,515.58,310.46,517.36,309.22z"/>
		<path style="fill:#C8C8C8;" d="M471.63,318.63l-5.149,19.32l-7.78-18.49c1.99,1.04,4.29,1.56,6.7,1.38
			C467.72,320.67,469.85,319.88,471.63,318.63z"/>
		<path style="fill:#C8C8C8;" d="M427.55,327.59l-5.14,19.32l-7.8-18.5c2,1.05,4.3,1.57,6.71,1.39
			C423.64,329.63,425.77,328.84,427.55,327.59z"/>
		<polygon style="fill:#C8C8C8;" points="362.28,760.1 361.98,773.7 160.16,671.57 230.67,182.83 259.7,191.69 322.52,210.85 
			374.14,226.6 		"/>
		<path style="fill:#C8C8C8;" d="M585.68,187.69l102.83,525.06L365.98,779.7l-3.7-19.601l11.86-533.5L585.68,187.69z M587.34,641.09
			c3.521-2.439,5.69-6.62,5.36-11.21c-0.521-6.92-6.54-12.09-13.44-11.59c-6.91,0.5-12.1,6.51-11.59,13.42
			c0.32,4.51,2.99,8.29,6.74,10.23l7.78,18.479L587.34,641.09z M581.12,556.53c3.52-2.44,5.7-6.63,5.37-11.21
			c-0.521-6.931-6.54-12.101-13.44-11.601c-6.92,0.511-12.1,6.521-11.59,13.431c0.33,4.51,2.99,8.279,6.73,10.22l7.779,18.49
			L581.12,556.53z M574.86,471.48c3.529-2.45,5.699-6.641,5.37-11.23c-0.511-6.92-6.53-12.09-13.431-11.59
			c-6.91,0.5-12.109,6.51-11.6,13.42c0.33,4.51,3,8.28,6.729,10.22l7.79,18.49L574.86,471.48z M568.8,388.93
			c3.521-2.45,5.7-6.65,5.36-11.24c-0.5-6.91-6.54-12.1-13.43-11.59c-6.921,0.51-12.101,6.52-11.601,13.44
			c0.33,4.49,3.01,8.27,6.74,10.21l7.79,18.47L568.8,388.93z M562.45,300.11c3.52-2.44,5.689-6.63,5.35-11.21
			c-0.51-6.91-6.52-12.1-13.43-11.59c-6.91,0.51-12.101,6.52-11.59,13.43c0.33,4.5,3,8.27,6.72,10.21l7.79,18.49L562.45,300.11z
			 M542.25,650.19c3.52-2.44,5.7-6.631,5.36-11.221c-0.5-6.91-6.53-12.09-13.431-11.58c-6.91,0.511-12.09,6.511-11.59,13.41
			c0.33,4.5,3,8.271,6.72,10.21l7.801,18.51L542.25,650.19z M536.03,565.64c3.529-2.449,5.71-6.649,5.37-11.239
			c-0.511-6.9-6.521-12.091-13.431-11.58c-6.91,0.5-12.1,6.52-11.59,13.43c0.33,4.49,2.99,8.26,6.72,10.2l7.801,18.51L536.03,565.64
			z M529.8,480.55c3.521-2.45,5.69-6.63,5.351-11.21c-0.5-6.91-6.53-12.1-13.44-11.59c-6.9,0.51-12.1,6.51-11.59,13.44
			c0.33,4.5,3,8.26,6.729,10.199l7.801,18.5L529.8,480.55z M523.73,397.99c3.52-2.44,5.689-6.63,5.35-11.21
			c-0.51-6.91-6.53-12.1-13.44-11.59c-6.909,0.51-12.1,6.52-11.59,13.43c0.33,4.51,3,8.28,6.74,10.21l7.79,18.49L523.73,397.99z
			 M517.36,309.22c3.529-2.45,5.71-6.64,5.359-11.23c-0.5-6.91-6.52-12.1-13.43-11.59c-6.92,0.51-12.1,6.52-11.59,13.43
			c0.33,4.51,3,8.28,6.729,10.21l7.78,18.5L517.36,309.22z M496.53,659.62c3.52-2.46,5.689-6.65,5.35-11.24
			c-0.5-6.91-6.52-12.1-13.43-11.58c-6.91,0.5-12.101,6.51-11.59,13.431c0.33,4.5,3,8.27,6.729,10.21l7.79,18.479L496.53,659.62z
			 M490.31,575.05c3.521-2.439,5.7-6.64,5.36-11.24c-0.51-6.89-6.53-12.09-13.42-11.579c-6.92,0.51-12.11,6.52-11.6,13.43
			c0.33,4.5,3,8.28,6.729,10.22l7.79,18.49L490.31,575.05z M484.07,489.97c3.51-2.45,5.68-6.64,5.35-11.21
			c-0.51-6.91-6.53-12.12-13.439-11.6c-6.91,0.5-12.091,6.52-11.591,13.43c0.33,4.5,3,8.28,6.73,10.22l7.8,18.5L484.07,489.97z
			 M477.98,407.42c3.529-2.44,5.71-6.63,5.369-11.23c-0.51-6.91-6.529-12.1-13.439-11.59c-6.91,0.51-12.09,6.53-11.59,13.44
			c0.33,4.49,2.989,8.26,6.72,10.19l7.8,18.51L477.98,407.42z M471.63,318.63c3.521-2.44,5.7-6.63,5.37-11.22
			c-0.53-6.91-6.53-12.1-13.44-11.59c-6.909,0.5-12.1,6.52-11.6,13.43c0.34,4.51,3.01,8.27,6.74,10.21l7.78,18.49L471.63,318.63z
			 M452.45,668.56c3.51-2.449,5.68-6.63,5.35-11.21c-0.5-6.909-6.52-12.109-13.43-11.6c-6.91,0.5-12.101,6.52-11.601,13.44
			c0.341,4.51,3.011,8.279,6.75,10.21l7.78,18.489L452.45,668.56z M446.24,583.99c3.51-2.45,5.68-6.63,5.35-11.221
			c-0.52-6.909-6.53-12.09-13.439-11.59c-6.9,0.521-12.091,6.54-11.58,13.44c0.33,4.51,2.989,8.29,6.729,10.22l7.79,18.48
			L446.24,583.99z M439.98,498.95c3.52-2.46,5.689-6.65,5.35-11.24c-0.51-6.9-6.51-12.09-13.43-11.58
			c-6.9,0.5-12.101,6.521-11.59,13.43c0.33,4.49,3.01,8.271,6.74,10.221l7.78,18.47L439.98,498.95z M433.91,416.37
			c3.52-2.44,5.689-6.63,5.35-11.21c-0.5-6.92-6.52-12.1-13.43-11.6c-6.9,0.51-12.09,6.52-11.59,13.44
			c0.34,4.49,3.01,8.28,6.74,10.23l7.79,18.48L433.91,416.37z M427.55,327.59c3.521-2.44,5.7-6.63,5.36-11.22
			c-0.51-6.91-6.521-12.1-13.42-11.59c-6.92,0.5-12.1,6.52-11.6,13.43c0.33,4.5,2.99,8.27,6.72,10.2l7.8,18.5L427.55,327.59z"/>
		<path style="fill:#231F20;" d="M587.34,641.09c-1.78,1.25-3.91,2.04-6.24,2.21c-2.399,0.181-4.699-0.33-6.689-1.359
			c-3.75-1.94-6.42-5.721-6.74-10.23c-0.51-6.91,4.68-12.92,11.59-13.42c6.9-0.5,12.92,4.67,13.44,11.59
			C593.03,634.47,590.86,638.65,587.34,641.09z"/>
		<path style="fill:#231F20;" d="M581.12,556.53c-1.78,1.25-3.91,2.04-6.23,2.22c-2.409,0.17-4.71-0.34-6.699-1.38
			c-3.74-1.94-6.4-5.71-6.73-10.22c-0.51-6.91,4.67-12.92,11.59-13.431c6.9-0.5,12.92,4.67,13.44,11.601
			C586.82,549.9,584.64,554.09,581.12,556.53z"/>
		<path style="fill:#231F20;" d="M574.86,471.48c-1.78,1.239-3.91,2.029-6.23,2.199c-2.41,0.181-4.71-0.34-6.7-1.38
			c-3.729-1.939-6.399-5.71-6.729-10.22c-0.51-6.91,4.689-12.92,11.6-13.42c6.9-0.5,12.92,4.67,13.431,11.59
			C580.56,464.84,578.39,469.03,574.86,471.48z"/>
		<path style="fill:#231F20;" d="M568.8,388.93c-1.78,1.24-3.91,2.03-6.229,2.2c-2.41,0.18-4.71-0.34-6.7-1.38
			c-3.73-1.94-6.41-5.72-6.74-10.21c-0.5-6.92,4.68-12.93,11.601-13.44c6.89-0.51,12.93,4.68,13.43,11.59
			C574.5,382.28,572.32,386.48,568.8,388.93z"/>
		<path style="fill:#231F20;" d="M562.45,300.11c-1.79,1.25-3.92,2.05-6.25,2.22c-2.4,0.18-4.7-0.34-6.7-1.38
			c-3.72-1.94-6.39-5.71-6.72-10.21c-0.511-6.91,4.68-12.92,11.59-13.43c6.91-0.51,12.92,4.68,13.43,11.59
			C568.14,293.48,565.97,297.67,562.45,300.11z"/>
		<path style="fill:#231F20;" d="M542.25,650.19c-1.78,1.25-3.91,2.04-6.24,2.21c-2.41,0.18-4.71-0.341-6.7-1.391
			c-3.72-1.939-6.39-5.71-6.72-10.21c-0.5-6.899,4.68-12.899,11.59-13.41c6.9-0.51,12.931,4.67,13.431,11.58
			C547.95,643.56,545.77,647.75,542.25,650.19z"/>
		<path style="fill:#231F20;" d="M536.03,565.64c-1.78,1.24-3.91,2.03-6.23,2.2c-2.41,0.18-4.71-0.34-6.7-1.39
			c-3.729-1.94-6.39-5.71-6.72-10.2c-0.51-6.91,4.68-12.93,11.59-13.43c6.91-0.511,12.92,4.68,13.431,11.58
			C541.74,558.99,539.56,563.19,536.03,565.64z"/>
		<path style="fill:#231F20;" d="M529.8,480.55c-1.78,1.24-3.91,2.04-6.24,2.22c-2.409,0.171-4.71-0.34-6.71-1.38
			c-3.729-1.939-6.399-5.699-6.729-10.199c-0.51-6.931,4.689-12.931,11.59-13.44c6.91-0.51,12.94,4.68,13.44,11.59
			C535.49,473.92,533.32,478.1,529.8,480.55z"/>
		<path style="fill:#231F20;" d="M510.79,398.83c-3.74-1.93-6.41-5.7-6.74-10.21c-0.51-6.91,4.681-12.92,11.59-13.43
			c6.91-0.51,12.931,4.68,13.44,11.59c0.34,4.58-1.83,8.77-5.35,11.21c-1.79,1.25-3.921,2.05-6.25,2.22
			C515.08,400.39,512.78,399.88,510.79,398.83z"/>
		<path style="fill:#231F20;" d="M504.43,310.04c-3.729-1.93-6.399-5.7-6.729-10.21c-0.51-6.91,4.67-12.92,11.59-13.43
			c6.91-0.51,12.93,4.68,13.43,11.59c0.351,4.59-1.83,8.78-5.359,11.23c-1.78,1.24-3.91,2.03-6.24,2.2
			C508.72,311.6,506.42,311.09,504.43,310.04z"/>
		<path style="fill:#231F20;" d="M496.53,659.62c-1.78,1.24-3.91,2.03-6.24,2.21c-2.41,0.17-4.71-0.34-6.7-1.39
			c-3.729-1.94-6.399-5.71-6.729-10.21c-0.511-6.921,4.68-12.931,11.59-13.431c6.91-0.52,12.93,4.67,13.43,11.58
			C502.22,652.97,500.05,657.16,496.53,659.62z"/>
		<path style="fill:#231F20;" d="M490.31,575.05c-1.779,1.24-3.909,2.03-6.229,2.2c-2.41,0.18-4.71-0.33-6.7-1.37
			c-3.729-1.939-6.399-5.72-6.729-10.22c-0.511-6.91,4.68-12.92,11.6-13.43c6.89-0.511,12.91,4.689,13.42,11.579
			C496.01,568.41,493.83,572.61,490.31,575.05z"/>
		<path style="fill:#231F20;" d="M484.07,489.97c-1.79,1.25-3.92,2.05-6.25,2.221c-2.4,0.18-4.7-0.341-6.7-1.381
			c-3.73-1.939-6.4-5.72-6.73-10.22c-0.5-6.91,4.681-12.93,11.591-13.43c6.909-0.521,12.93,4.689,13.439,11.6
			C489.75,483.33,487.58,487.52,484.07,489.97z"/>
		<path style="fill:#231F20;" d="M477.98,407.42c-1.78,1.24-3.91,2.03-6.23,2.2c-2.41,0.18-4.71-0.34-6.71-1.39
			c-3.73-1.93-6.39-5.7-6.72-10.19c-0.5-6.91,4.68-12.93,11.59-13.44c6.91-0.51,12.93,4.68,13.439,11.59
			C483.69,400.79,481.51,404.98,477.98,407.42z"/>
		<path style="fill:#231F20;" d="M471.63,318.63c-1.78,1.25-3.91,2.04-6.229,2.21c-2.41,0.18-4.71-0.34-6.7-1.38
			c-3.73-1.94-6.4-5.7-6.74-10.21c-0.5-6.91,4.69-12.93,11.6-13.43c6.91-0.51,12.91,4.68,13.44,11.59
			C477.33,312,475.15,316.19,471.63,318.63z"/>
		<path style="fill:#231F20;" d="M452.45,668.56c-1.78,1.24-3.91,2.04-6.24,2.21c-2.4,0.181-4.69-0.329-6.69-1.369
			c-3.739-1.931-6.409-5.7-6.75-10.21c-0.5-6.921,4.69-12.94,11.601-13.44c6.91-0.51,12.93,4.69,13.43,11.6
			C458.13,661.93,455.96,666.11,452.45,668.56z"/>
		<path style="fill:#231F20;" d="M446.24,583.99c-1.79,1.25-3.92,2.04-6.25,2.21c-2.4,0.18-4.7-0.33-6.69-1.36
			c-3.74-1.93-6.399-5.71-6.729-10.22c-0.511-6.9,4.68-12.92,11.58-13.44c6.909-0.5,12.92,4.681,13.439,11.59
			C451.92,577.36,449.75,581.54,446.24,583.99z"/>
		<path style="fill:#231F20;" d="M439.98,498.95c-1.78,1.24-3.91,2.04-6.24,2.21c-2.4,0.17-4.7-0.34-6.69-1.38
			c-3.73-1.95-6.41-5.73-6.74-10.221c-0.51-6.909,4.69-12.93,11.59-13.43c6.92-0.51,12.92,4.68,13.43,11.58
			C445.67,492.3,443.5,496.49,439.98,498.95z"/>
		<path style="fill:#231F20;" d="M433.91,416.37c-1.78,1.25-3.91,2.04-6.24,2.22c-2.4,0.18-4.7-0.33-6.69-1.36
			c-3.73-1.95-6.4-5.74-6.74-10.23c-0.5-6.92,4.69-12.93,11.59-13.44c6.91-0.5,12.93,4.68,13.43,11.6
			C439.6,409.74,437.43,413.93,433.91,416.37z"/>
		<path style="fill:#231F20;" d="M427.55,327.59c-1.78,1.25-3.91,2.04-6.23,2.21c-2.41,0.18-4.71-0.34-6.71-1.39
			c-3.73-1.93-6.39-5.7-6.72-10.2c-0.5-6.91,4.68-12.93,11.6-13.43c6.899-0.51,12.91,4.68,13.42,11.59
			C433.25,320.96,431.07,325.15,427.55,327.59z"/>
	</g>
	<g>
		<polyline style="fill:none;stroke:#231F20;stroke-width:7.2947;" points="410.79,319.34 414.61,328.41 422.41,346.91 
			427.55,327.59 430.38,316.97 		"/>
		<polyline style="fill:none;stroke:#231F20;stroke-width:7.2947;" points="454.88,310.38 458.7,319.46 466.48,337.95 
			471.63,318.63 474.46,308.01 		"/>
		<polyline style="fill:none;stroke:#231F20;stroke-width:7.2947;" points="500.61,300.96 504.43,310.04 512.21,328.54 
			517.36,309.22 520.19,298.6 		"/>
		<polyline style="fill:none;stroke:#231F20;stroke-width:7.2947;" points="545.68,291.87 549.5,300.95 557.29,319.44 
			562.45,300.11 565.28,289.51 		"/>
		<polyline style="fill:none;stroke:#231F20;stroke-width:7.2947;" points="417.15,408.13 420.98,417.23 428.77,435.71 
			433.91,416.37 436.74,405.75 		"/>
		<polyline style="fill:none;stroke:#231F20;stroke-width:7.2947;" points="461.22,399.17 465.04,408.23 472.84,426.74 
			477.98,407.42 480.81,396.8 		"/>
		<polyline style="fill:none;stroke:#231F20;stroke-width:7.2947;" points="506.96,389.75 510.79,398.83 518.58,417.32 
			523.73,397.99 526.55,387.39 		"/>
		<polyline style="fill:none;stroke:#231F20;stroke-width:7.2947;" points="552.04,380.66 555.87,389.75 563.66,408.22 
			568.8,388.93 571.63,378.29 		"/>
		<polyline style="fill:none;stroke:#231F20;stroke-width:7.2947;" points="423.22,490.68 427.05,499.78 434.83,518.25 
			439.98,498.95 442.81,488.32 		"/>
		<polyline style="fill:none;stroke:#231F20;stroke-width:7.2947;" points="467.29,481.72 471.12,490.81 478.92,509.31 
			484.07,489.97 486.89,479.36 		"/>
		<polyline style="fill:none;stroke:#231F20;stroke-width:7.2947;" points="513.03,472.31 516.85,481.39 524.65,499.89 
			529.8,480.55 532.62,469.94 		"/>
		<polyline style="fill:none;stroke:#231F20;stroke-width:7.2947;" points="558.11,463.23 561.93,472.3 569.72,490.79 
			574.86,471.48 577.69,460.85 		"/>
		<polyline style="fill:none;stroke:#231F20;stroke-width:7.2947;" points="429.47,575.75 433.3,584.84 441.09,603.32 
			446.24,583.99 449.06,573.39 		"/>
		<polyline style="fill:none;stroke:#231F20;stroke-width:7.2947;" points="473.55,566.8 477.38,575.88 485.17,594.37 
			490.31,575.05 493.14,564.44 		"/>
		<polyline style="fill:none;stroke:#231F20;stroke-width:7.2947;" points="519.28,557.38 523.1,566.45 530.9,584.96 536.03,565.64 
			538.86,555.01 		"/>
		<polyline style="fill:none;stroke:#231F20;stroke-width:7.2947;" points="564.37,548.29 568.19,557.37 575.97,575.86 
			581.12,556.53 583.95,545.92 		"/>
		<polyline style="fill:none;stroke:#231F20;stroke-width:7.2947;" points="435.7,660.31 439.52,669.4 447.3,687.89 452.45,668.56 
			455.27,657.94 		"/>
		<polyline style="fill:none;stroke:#231F20;stroke-width:7.2947;" points="479.76,651.35 483.59,660.44 491.38,678.92 
			496.53,659.62 499.36,649 		"/>
		<polyline style="fill:none;stroke:#231F20;stroke-width:7.2947;" points="525.49,641.95 529.31,651.01 537.11,669.52 
			542.25,650.19 545.08,639.57 		"/>
		<polyline style="fill:none;stroke:#231F20;stroke-width:7.2947;" points="570.58,632.85 574.41,641.94 582.19,660.42 
			587.34,641.09 590.16,630.49 		"/>
		<polygon style="fill:none;stroke:#231F20;stroke-width:21.8841;" points="374.14,226.6 362.28,760.1 361.98,773.7 160.16,671.57 
			230.67,182.83 259.7,191.69 322.52,210.85 		"/>
		<polyline style="fill:none;stroke:#231F20;stroke-width:21.8841;" points="365.98,779.7 688.51,712.75 585.68,187.69 
			374.14,226.6 		"/>
		<path style="fill:none;stroke:#231F20;stroke-width:21.8841;" d="M259.7,191.69c0,0,0.81-7.01,2.35-17.24
			c3.29-21.89,9.93-58.5,19.08-72.47c17.32-26.44,194.53-38.06,208.811-35.56c23.35,4.08,52.64,14.76,62.689,21.4
			c3.94,2.6,6.9,8.96,9.12,17.18c6.34,23.48,6.66,62.16,6.62,72.1c0,1.54-0.01,2.39-0.01,2.39"/>
		<path style="fill:none;stroke:#231F20;stroke-width:21.8841;" d="M324,206c0,0,2.07-22.06,7.37-43.61
			c3.63-14.74,8.77-29.25,15.81-36.29c11.02-11.02,82.57-23.72,141.04-26.92c33.24-1.82,62.261-0.56,73.53,5.82
			c0.08,0.04,0.17,0.09,0.25,0.14"/>
		<path style="fill:none;stroke:#231F20;stroke-width:21.8841;" d="M488,98c0,0,0.08,0.24,0.22,1.18
			c0.431,3.22,1.41,14.7,1.41,53.25"/>
		<polyline style="fill:none;stroke:#231F20;stroke-width:21.8841;" points="223.38,179.79 230.09,178.82 261.18,174.32 		"/>
		<polyline style="fill:none;stroke:#231F20;stroke-width:21.8841;" points="336.54,163.42 458.48,144.47 489.28,153.62 
			568.37,177.1 587.17,182.68 591.77,184.05 		"/>
		<line style="fill:none;stroke:#231F20;stroke-width:29.1788;" x1="244.05" y1="313.01" x2="337.66" y2="355.56"/>
		<line style="fill:none;stroke:#231F20;stroke-width:29.1788;" x1="228.42" y1="457.04" x2="322.03" y2="499.59"/>
		<line style="fill:none;stroke:#231F20;stroke-width:29.1788;" x1="215.62" y1="591.17" x2="309.23" y2="633.72"/>
		<polyline style="fill:none;stroke:#231F20;stroke-width:0.5;" points="360,748 362.28,760.1 365.98,779.7 		"/>
	</g>
</g>
<rect style="fill:none;" width="850.394" height="850.394"/>
</svg>
