<?xml version="1.0" encoding="iso-8859-1"?>
<!-- Generator: Adobe Illustrator 12.0.1, SVG Export Plug-In . SVG Version: 6.00 Build 51448)  -->
<!DOCTYPE svg PUBLIC "-//W3C//DTD SVG 1.1//EN" "http://www.w3.org/Graphics/SVG/1.1/DTD/svg11.dtd" [
	<!ENTITY ns_svg "http://www.w3.org/2000/svg">
	<!ENTITY ns_xlink "http://www.w3.org/1999/xlink">
]>
<svg  version="1.1" id="Layer_1" xmlns="&ns_svg;" xmlns:xlink="&ns_xlink;" width="850.394" height="850.394"
	 viewBox="0 0 850.394 850.394" style="overflow:visible;enable-background:new 0 0 850.394 850.394;" xml:space="preserve">
<g>
	<g id="XMLID_19_">
		<g>
			<path style="fill:#BE0000;" d="M710.31,420.9l2.69-30.75c1.03,0.75,1.99,1.51,2.89,2.28c5.36,4.61,9.521,9.3,12.75,13.8
				l-2.819,12.95l2.09,0.46v35.6c-24.98,20.38-83.83,28.95-132.74,28.95c-60.78,0-113.26-15.58-137.82-38.12l-1.689-8.681
				l-5.32-27.33c1.24-0.34,2.46-0.69,3.66-1.06c1.68-0.83,3.41-1.72,5.18-2.66c4.63-2.44,9.521-5.19,14.5-8.01
				c0.471-0.26,0.931-0.52,1.4-0.79c6.03-3.4,12.18-6.88,18.17-10.02c4.13-2.17,8.18-4.17,12.05-5.87c0.88-0.39,1.75-0.76,2.61-1.12
				c1.5-0.62,3-1.21,4.51-1.79c4.14-1.57,8.33-2.99,12.561-4.28c13.859-4.26,28.149-7.18,42.35-9.98c21.36-4.2,53.05-2.88,74.1-0.06
				c11.65,1.56,29.08,6.01,44.86,12.09c7.67,2.95,14.95,6.29,20.979,9.87l2.631,34.48L710.31,420.9z"/>
			<path style="fill:#BE0000;" d="M740.07,432.43c-0.011-0.47-0.03-0.949-0.07-1.43l15.23-46.44l1.649,0.54l-9.3,56.99
				c0,36.851-68.34,66.93-152.65,66.93c-92.97,0-140.37-39.27-140.37-39.27c-3.399-3.4-28.93-15.26-95.68-15.26
				c-38,0-111.83,2-145.4,18.79c-23.68,11.85-59.67,20.3-87.56,14.13c-48.21-10.66-52.74-43.4-36.14-64.61
				c26-33.2,69.7-27.98,97.42-27.45c67.61,1.3,194.23,33.48,263.14,14.71l5.32,27.33l1.689,8.681
				c24.561,22.54,77.04,38.12,137.82,38.12c48.91,0,107.76-8.57,132.74-28.95C735.76,448.84,740.27,441.27,740.07,432.43z"/>
		</g>
		<g>
			<polyline style="fill:none;stroke:#000000;stroke-width:14.0913;stroke-linecap:round;stroke-miterlimit:10;" points="
				440.59,368.25 444.01,375.25 459.18,406.34 464.66,417.56 			"/>
			<polyline style="fill:none;stroke:#000000;stroke-width:14.0913;stroke-linecap:round;stroke-miterlimit:10;" points="
				459.44,351.35 470.67,384.5 475.08,397.54 477.04,403.33 			"/>
			<polyline style="fill:none;stroke:#000000;stroke-width:14.0913;stroke-linecap:round;stroke-miterlimit:10;" points="
				469.13,377.46 470.67,384.5 473.68,398.33 480.82,431.08 			"/>
			
				<line style="fill:none;stroke:#000000;stroke-width:14.0913;stroke-linecap:round;stroke-miterlimit:10;" x1="481.03" y1="334.64" x2="490" y2="388.79"/>
			<polyline style="fill:none;stroke:#000000;stroke-width:14.0913;stroke-linecap:round;stroke-miterlimit:10;" points="
				735.22,376.09 730.47,397.84 728.64,406.23 725.82,419.18 723.52,429.71 			"/>
			<polyline style="fill:none;stroke:#000000;stroke-width:14.0913;stroke-linecap:round;stroke-miterlimit:10;" points="
				714.74,370.24 713,390.15 710.31,420.9 709.96,424.91 			"/>
			<polyline style="fill:none;stroke:#000000;stroke-width:14.0913;stroke-linecap:round;stroke-miterlimit:10;" points="760,370 
				755.23,384.56 740,431 			"/>
			<polyline style="fill:none;stroke:#000000;stroke-width:14.0913;stroke-linecap:round;stroke-miterlimit:10;" points="
				746.45,354.27 730.47,397.84 728.85,402.27 			"/>
			
				<line style="fill:none;stroke:#000000;stroke-width:14.0913;stroke-linecap:round;stroke-miterlimit:10;" x1="724.86" y1="338.28" x2="715.89" y2="392.43"/>
			<polyline style="fill:none;stroke:#000000;stroke-width:14.0913;stroke-linecap:round;stroke-miterlimit:10;" points="
				501.38,330.19 505.3,381.65 505.55,384.91 			"/>
			<polyline style="fill:none;stroke:#000000;stroke-width:14.0913;stroke-linecap:round;stroke-miterlimit:10;" points="
				521.1,323.58 524.98,374.46 525.27,378.3 			"/>
			
				<line style="fill:none;stroke:#000000;stroke-width:14.0913;stroke-linecap:round;stroke-miterlimit:10;" x1="538.75" y1="311.18" x2="541.38" y2="365.99"/>
			
				<line style="fill:none;stroke:#000000;stroke-width:14.0913;stroke-linecap:round;stroke-miterlimit:10;" x1="558.91" y1="310.58" x2="561.54" y2="365.4"/>
			
				<line style="fill:none;stroke:#000000;stroke-width:14.0913;stroke-linecap:round;stroke-miterlimit:10;" x1="577.5" y1="305.5" x2="580.14" y2="360.33"/>
			
				<line style="fill:none;stroke:#000000;stroke-width:14.0913;stroke-linecap:round;stroke-miterlimit:10;" x1="597.67" y1="304.92" x2="600.29" y2="359.73"/>
			
				<line style="fill:none;stroke:#000000;stroke-width:14.0913;stroke-linecap:round;stroke-miterlimit:10;" x1="617.21" y1="306.05" x2="619.85" y2="360.88"/>
			
				<line style="fill:none;stroke:#000000;stroke-width:14.0913;stroke-linecap:round;stroke-miterlimit:10;" x1="637.37" y1="305.47" x2="640.01" y2="360.28"/>
			
				<line style="fill:none;stroke:#000000;stroke-width:14.0913;stroke-linecap:round;stroke-miterlimit:10;" x1="659.12" y1="310.49" x2="661.75" y2="365.31"/>
			
				<line style="fill:none;stroke:#000000;stroke-width:14.0913;stroke-linecap:round;stroke-miterlimit:10;" x1="682.19" y1="316.97" x2="679.55" y2="371.79"/>
			
				<line style="fill:none;stroke:#000000;stroke-width:14.0913;stroke-linecap:round;stroke-miterlimit:10;" x1="703.33" y1="323.95" x2="695.68" y2="378.3"/>
			<polyline style="fill:none;stroke:#000000;stroke-width:14.0913;stroke-linecap:round;stroke-miterlimit:10;" points="
				491.7,378.15 493.25,387.52 500.66,432.3 			"/>
			<polyline style="fill:none;stroke:#000000;stroke-width:14.0913;stroke-linecap:round;stroke-miterlimit:10;" points="
				512.04,373.7 512.42,378.74 516.21,428.42 			"/>
			
				<line style="fill:none;stroke:#000000;stroke-width:14.0913;stroke-linecap:round;stroke-miterlimit:10;" x1="532.18" y1="372.54" x2="536.35" y2="427.26"/>
			
				<line style="fill:none;stroke:#000000;stroke-width:14.0913;stroke-linecap:round;stroke-miterlimit:10;" x1="551.2" y1="378.4" x2="560.16" y2="432.54"/>
			
				<line style="fill:none;stroke:#000000;stroke-width:14.0913;stroke-linecap:round;stroke-miterlimit:10;" x1="571.54" y1="373.95" x2="575.71" y2="428.67"/>
			
				<line style="fill:none;stroke:#000000;stroke-width:14.0913;stroke-linecap:round;stroke-miterlimit:10;" x1="591.67" y1="372.79" x2="595.85" y2="427.51"/>
			
				<line style="fill:none;stroke:#000000;stroke-width:14.0913;stroke-linecap:round;stroke-miterlimit:10;" x1="607.63" y1="371.62" x2="616.59" y2="425.77"/>
			
				<line style="fill:none;stroke:#000000;stroke-width:14.0913;stroke-linecap:round;stroke-miterlimit:10;" x1="627.97" y1="367.17" x2="632.15" y2="421.89"/>
			
				<line style="fill:none;stroke:#000000;stroke-width:14.0913;stroke-linecap:round;stroke-miterlimit:10;" x1="648.1" y1="366.01" x2="652.28" y2="420.73"/>
			
				<line style="fill:none;stroke:#000000;stroke-width:14.0913;stroke-linecap:round;stroke-miterlimit:10;" x1="665.25" y1="371.75" x2="674.21" y2="425.9"/>
			<polyline style="fill:none;stroke:#000000;stroke-width:14.0913;stroke-linecap:round;stroke-miterlimit:10;" points="
				685.59,367.3 686.29,376.51 689.77,422.02 			"/>
			<polyline style="fill:none;stroke:#000000;stroke-width:14.0913;stroke-linecap:round;stroke-miterlimit:10;" points="
				705.72,366.14 707.27,386.38 709.9,420.86 			"/>
			<path style="fill:none;stroke:#000000;stroke-width:14.0913;stroke-linecap:square;stroke-miterlimit:10;" d="M756.88,385.1
				l-9.3,56.99c0,36.851-68.34,66.93-152.65,66.93c-92.97,0-140.37-39.27-140.37-39.27c-3.399-3.4-28.93-15.26-95.68-15.26
				c-38,0-111.83,2-145.4,18.79c-23.68,11.85-59.67,20.3-87.56,14.13c-48.21-10.66-52.74-43.4-36.14-64.61
				c26-33.2,69.7-27.98,97.42-27.45c67.61,1.3,194.23,33.48,263.14,14.71c1.24-0.34,2.46-0.69,3.66-1.06"/>
			<path style="fill:none;stroke:#000000;stroke-width:14.0913;stroke-linecap:square;stroke-miterlimit:10;" d="M443.6,375.45
				l6.74,34.61l5.32,27.33l1.689,8.681c24.561,22.54,77.04,38.12,137.82,38.12c48.91,0,107.76-8.57,132.74-28.95
				c7.85-6.4,12.359-13.971,12.16-22.811c-0.011-0.47-0.03-0.949-0.07-1.43"/>
			
				<line style="fill:none;stroke:#000000;stroke-width:14.0913;stroke-linecap:square;stroke-miterlimit:10;" x1="469.22" y1="411.26" x2="473.04" y2="454.23"/>
			
				<line style="fill:none;stroke:#000000;stroke-width:14.0913;stroke-linecap:square;stroke-miterlimit:10;" x1="489.44" y1="422.38" x2="489.44" y2="463.48"/>
			
				<line style="fill:none;stroke:#000000;stroke-width:14.0913;stroke-linecap:square;stroke-miterlimit:10;" x1="508" y1="428.25" x2="508" y2="468.76"/>
			
				<line style="fill:none;stroke:#000000;stroke-width:14.0913;stroke-linecap:square;stroke-miterlimit:10;" x1="529.06" y1="434.71" x2="529.06" y2="472.28"/>
			
				<line style="fill:none;stroke:#000000;stroke-width:14.0913;stroke-linecap:square;stroke-miterlimit:10;" x1="549.52" y1="437.64" x2="549.52" y2="475.22"/>
			
				<line style="fill:none;stroke:#000000;stroke-width:14.0913;stroke-linecap:square;stroke-miterlimit:10;" x1="570.07" y1="439.99" x2="570.07" y2="477.57"/>
			
				<line style="fill:none;stroke:#000000;stroke-width:14.0913;stroke-linecap:square;stroke-miterlimit:10;" x1="588.86" y1="439.99" x2="588.86" y2="477.57"/>
			
				<line style="fill:none;stroke:#000000;stroke-width:14.0913;stroke-linecap:square;stroke-miterlimit:10;" x1="608.82" y1="439.99" x2="608.82" y2="477.57"/>
			
				<line style="fill:none;stroke:#000000;stroke-width:14.0913;stroke-linecap:square;stroke-miterlimit:10;" x1="629.96" y1="439.99" x2="629.96" y2="477.57"/>
			
				<line style="fill:none;stroke:#000000;stroke-width:14.0913;stroke-linecap:square;stroke-miterlimit:10;" x1="649.33" y1="436.47" x2="649.33" y2="474.04"/>
			
				<line style="fill:none;stroke:#000000;stroke-width:14.0913;stroke-linecap:square;stroke-miterlimit:10;" x1="669.88" y1="433.24" x2="669.88" y2="470.82"/>
			
				<line style="fill:none;stroke:#000000;stroke-width:14.0913;stroke-linecap:square;stroke-miterlimit:10;" x1="687.98" y1="426.39" x2="687.98" y2="463.97"/>
			
				<line style="fill:none;stroke:#000000;stroke-width:14.0913;stroke-linecap:square;stroke-miterlimit:10;" x1="707.36" y1="422.87" x2="707.36" y2="460.44"/>
			<polyline style="fill:none;stroke:#000000;stroke-width:14.0913;stroke-linecap:square;stroke-miterlimit:10;" points="
				727.91,419.64 727.91,455.24 727.91,457.22 			"/>
			<path style="fill:none;stroke:#000000;stroke-width:14;stroke-miterlimit:10;" d="M454,409c1.68-0.83,3.41-1.72,5.18-2.66
				c4.63-2.44,9.521-5.19,14.5-8.01c0.471-0.26,0.931-0.52,1.4-0.79c6.03-3.4,12.18-6.88,18.17-10.02
				c4.13-2.17,8.18-4.17,12.05-5.87c0.88-0.39,1.75-0.76,2.61-1.12c1.5-0.62,3-1.21,4.51-1.79c4.14-1.57,8.33-2.99,12.561-4.28
				c13.859-4.26,28.149-7.18,42.35-9.98c21.36-4.2,53.05-2.88,74.1-0.06c11.65,1.56,29.08,6.01,44.86,12.09
				c7.67,2.95,14.95,6.29,20.979,9.87c2.07,1.23,3.99,2.48,5.73,3.77c1.03,0.75,1.99,1.51,2.89,2.28c5.36,4.61,9.521,9.3,12.75,13.8
				c8.28,11.54,10.471,21.8,11.431,26.2c0.229,1.061,0.39,1.78,0.54,2.101"/>
		</g>
	</g>
</g>
<rect style="fill:none;" width="850.394" height="850.394"/>
</svg>
