<svg xmlns="http://www.w3.org/2000/svg" width="850.394" height="850.394" viewBox="0 0 850.394 850.394" overflow="visible"><path d="M143.13 418.68c2.95-4.05 6.18-7.81 9.66-11.29 21.09-21.1 69.99-11.28 83.55-11.28 13.59 0 228.811-38.21 272.37-50.78 43.54-12.56 64.39 11.5 80.19 41.2 15.79 29.74 82.34 141.32 90.81 170.76 1.021 3.54.94 6.7-.01 9.53-6.87 20.62-59.36 23.18-59.36 23.18s-162.27 16.37-229.1 25.9c-66.81 9.55-84.98 22.279-92.73 30.02-23.85 23.85-53.21 26.99-73.63 23.17-30.18-5.63-53.18-30-83.54-103.97-26.91-65.58-21.26-114.71 1.77-146.41.01-.01.02-.02.02-.03zM677.61 666.2c-6.86 20.63-59.37 23.189-59.37 23.189s-34.08 3.431-77.45 8.07c2.94-2.5 4.1-5.4 7.59-8.79 4.72-4.55 5.11-3.189 13.05-5.939 11.66-4.061 17.34-9.261 16.4-19.65 12.52-2.83 22.18.06 31.16-25.19 8.97 3.95 24.88 1.48 35.97-5.34 4.37-.14 8.021-.21 10.82-.21 4.34 0 8.05-.649 11.22-1.83l.52 1.32c1.931 4.479 9.24 21.87 10.101 24.85 1.019 3.54.939 6.7-.011 9.52z" fill="#ffffc2"/><path d="M540.79 697.46c-1.13.97-2.521 1.88-4.41 2.73-14.939 6.76-28.08-5.301-41.399-1.65-8.86 2.42-12.631 15.05-25.221 14.71-10.939-.31-16.85-9.11-27.92-6.19-10.16 2.671-18.59 9.49-29.62 5.25a23.21 23.21 0 0 1-2.82-1.3c-6.28-3.37-8.78-12.859-14.58-15.81-5.19-2.66-8.3.46-13.65-.42-8.52-1.4-14.14-4.8-18.62-9.66-3.47-3.78-6.25-8.44-9.15-13.74-5.53.771-9.91-.04-13.45-2.25 39.26-19.47 243.72-34.649 305.01-36.58-11.09 6.82-27 9.29-35.97 5.34-8.98 25.25-18.641 22.36-31.16 25.19.939 10.39-4.74 15.59-16.4 19.65-7.939 2.75-8.33 1.39-13.05 5.939-3.49 3.391-4.65 6.291-7.59 8.791z" fill="#6ebe44"/><path d="M362.55 685.12c4.48 4.86 10.1 8.26 18.62 9.66 5.35.88 8.46-2.24 13.65.42 5.8 2.95 8.3 12.439 14.58 15.81.96.521 1.9.95 2.82 1.3-8.95 1.12-15.82 1.94-23.07 2.971-18.75 2.689-33.55 5.779-45.34 8.95 9.98-11.11 16.14-24.29 16.88-37.82l1.86-1.291z" fill="#ffffc2"/><path d="M343.81 724.23c-15.61 17.399-40.61 29.739-68.91 30.42-.82.02-1.65.029-2.48.029-47.39 0-86.05-28.029-88.19-63.229 10.37 6.77 21.98 11.24 35.84 14.12 52.54 10.899 86.33-12.49 116.32-34.34.97-.7 2.16-1.4 3.56-2.101 3.54 2.21 7.92 3.021 13.45 2.25 2.9 5.3 5.68 9.96 9.15 13.74l-1.86 1.29c-.74 13.531-6.9 26.711-16.88 37.821z" fill="#ed1d31"/><path d="M272.42 754.68c.83 0 1.66-.01 2.48-.029v.029c-34.96 10.75-67.48-.25-67.48-.25-33.49-10.989-49.71-28.56-85.66-94.87-25.68-47.35-31.64-87.27-24.46-118.63l3.45-.63c8.61 43.83 36.18 93.05 36.18 93.05 15.5 28.341 29.6 46.561 47.3 58.101 2.14 35.199 40.8 63.229 88.19 63.229z" fill="#ffffc2"/><path d="M644.96 632.55c-61.29 1.931-265.75 17.11-305.01 36.58-1.4.7-2.59 1.4-3.56 2.101-29.99 21.85-63.78 45.239-116.32 34.34-13.86-2.88-25.47-7.351-35.84-14.12-17.7-11.54-31.8-29.76-47.3-58.101 0 0-27.57-49.22-36.18-93.05-.65-3.319-1.2-6.62-1.61-9.859-1.01-7.86-1.26-15.4-.45-22.271 4.81-41.08 41.03-85.39 44.42-89.46-23.03 31.7-28.68 80.83-1.77 146.41 30.36 73.97 53.36 98.34 83.54 103.97 20.42 3.82 49.78.68 73.63-23.17 7.75-7.74 25.92-20.47 92.73-30.02 66.83-9.53 229.1-25.9 229.1-25.9s52.49-2.56 59.36-23.18c.62 2.1 15.28 53.3-12.7 63.689-3.17 1.181-6.88 1.83-11.22 1.83-2.8.001-6.45.071-10.82.211z" fill="#f6cc4b"/><path d="M97.3 540.93c-7.18 31.36-1.22 71.28 24.46 118.63 35.95 66.311 52.17 83.881 85.66 94.87 0 0 32.52 11 67.48.25v-.029c28.3-.681 53.3-13.021 68.91-30.42 11.79-3.171 26.59-6.261 45.34-8.95 7.25-1.03 14.12-1.851 23.07-2.971 11.03 4.24 19.459-2.579 29.62-5.25 11.07-2.92 16.98 5.881 27.92 6.19 12.59.34 16.36-12.29 25.221-14.71 13.319-3.65 26.46 8.41 41.399 1.65 1.89-.851 3.28-1.761 4.41-2.73 43.37-4.64 77.45-8.07 77.45-8.07s52.51-2.56 59.37-23.189c.64 2.189 18.84 65.53-23.92 65.53-43.511 0-289.411 17.01-319.391 38.89-29.99 21.85-64.4 36.04-116.95 25.13l-12.03-2.61c-35.05-8.899-51.85-23.88-80.64-65.26 0 0-51.88-73-51.43-120.36.24-26.22 15.37-58.27 25.35-77.01l.54-.069c.41 3.239.96 6.54 1.61 9.859l-3.449.629z" fill="#f6cc4b"/><g fill="none" stroke="#231f20" stroke-width="14"><path d="M537.76 697.79c1.021-.11 2.03-.22 3.03-.33 43.37-4.64 77.45-8.07 77.45-8.07s52.51-2.56 59.37-23.189c.949-2.82 1.029-5.98.01-9.521-.86-2.979-8.17-20.37-10.101-24.85M343.7 724.26c.04-.01.07-.02.11-.029 11.79-3.171 26.59-6.261 45.34-8.95 7.25-1.03 14.12-1.851 23.07-2.971.69-.09 1.39-.18 2.1-.27M97.3 540.93c-7.18 31.36-1.22 71.28 24.46 118.63 35.95 66.311 52.17 83.881 85.66 94.87 0 0 32.52 11 67.48.25"/><path d="M677.59 666.14s.01.021.021.061c.64 2.189 18.84 65.53-23.92 65.53-43.511 0-289.411 17.01-319.391 38.89-29.99 21.85-64.4 36.04-116.95 25.13l-12.03-2.61c-35.05-8.899-51.85-23.88-80.64-65.26 0 0-51.88-73-51.43-120.36.24-26.22 15.37-58.27 25.35-77.01"/><path d="M143.11 418.71c-23.03 31.7-28.68 80.83-1.77 146.41 30.36 73.97 53.36 98.34 83.54 103.97 20.42 3.82 49.78.68 73.63-23.17 7.75-7.74 25.92-20.47 92.73-30.02 66.83-9.53 229.1-25.9 229.1-25.9s52.49-2.56 59.36-23.18c.95-2.83 1.03-5.99.01-9.53-8.47-29.44-75.02-141.02-90.81-170.76-15.801-29.7-36.65-53.76-80.19-41.2-43.56 12.57-258.78 50.78-272.37 50.78-13.56 0-62.46-9.82-83.55 11.28a95.313 95.313 0 0 0-9.66 11.29"/><path d="M679.68 566.75s.011.02.021.07c.62 2.1 15.28 53.3-12.7 63.689-3.17 1.181-6.88 1.83-11.22 1.83-2.8 0-6.45.07-10.82.21-61.29 1.931-265.75 17.11-305.01 36.58-1.4.7-2.59 1.4-3.56 2.101-29.99 21.85-63.78 45.239-116.32 34.34-13.86-2.88-25.47-7.351-35.84-14.12-17.7-11.54-31.8-29.76-47.3-58.101 0 0-27.57-49.22-36.18-93.05-.65-3.319-1.2-6.62-1.61-9.859-1.01-7.86-1.26-15.4-.45-22.271 4.81-41.08 41.03-85.39 44.42-89.46.01-.01.02-.02.02-.03.15-.18.23-.27.23-.27"/><path d="M339.4 668.78c.18.12.36.239.55.35 3.54 2.21 7.92 3.021 13.45 2.25 2.9 5.3 5.68 9.96 9.15 13.74 4.48 4.86 10.1 8.26 18.62 9.66 5.35.88 8.46-2.24 13.65.42 5.8 2.95 8.3 12.439 14.58 15.81.96.521 1.9.95 2.82 1.3 11.03 4.24 19.459-2.579 29.62-5.25 11.07-2.92 16.98 5.881 27.92 6.19 12.59.34 16.36-12.29 25.221-14.71 13.319-3.65 26.46 8.41 41.399 1.65 1.89-.851 3.28-1.761 4.41-2.73 2.94-2.5 4.1-5.4 7.59-8.79 4.72-4.55 5.11-3.189 13.05-5.939 11.66-4.061 17.34-9.261 16.4-19.65 12.52-2.83 22.18.06 31.16-25.19 8.97 3.95 24.88 1.48 35.97-5.34.44-.27.88-.55 1.31-.84M360.69 686.41c-.74 13.53-6.9 26.71-16.88 37.82-15.61 17.399-40.61 29.739-68.91 30.42-.82.02-1.65.029-2.48.029-47.39 0-86.05-28.029-88.19-63.229-.03-.351-.05-.7-.06-1.05"/></g><path fill="none" d="M0 0h850.394v850.394H0z"/><g><path d="M535.188 288.776c-15.631-16.13-16.522-68.283-4.435-101.282 1.578-4.313 3.381-8.305 5.402-11.838 3.085-5.397 6.73-10.677 10.896-15.759v-.005c19.501-23.833 50.203-43.167 86.374-48.594 43.879-6.583 97.289.942 122.131 21.212 16.161 13.182 30.591 33.788 38.111 56.491 2.841 8.564 4.694 17.429 5.279 26.309.545 8.05.041 16.115-1.705 23.976-1.961 8.834-4.19 16.196-6.961 22.321l-.493-.224c-13.6-2.928-7.913-13.386-5.504-39.628 2.815-30.672-31.92-68.329-31.92-68.329-9.221-11.797-26.379-24.154-57.346-26.889-18.604-1.645-37.128-2.79-55.697-.448-40.605 5.117-76.16 30.137-93.44 67.428-7.709 16.639-11.283 36.104-8.977 54.393 1.3 10.271 10.327 34.644-1.715 40.866z" fill="#ffeec8"/><path d="M793.668 189.001c-7.521-22.703-21.95-43.309-38.111-56.491-24.842-20.27-78.252-27.795-122.131-21.212-36.171 5.428-66.873 24.761-86.374 48.594 2.082-18.314 10.163-40.163 21.583-54.505 25.601-32.153 66.068-48.064 106.729-43.436 18.595 2.118 36.324 7.606 54.017 13.6 29.445 9.979 43.188 26.038 49.363 39.684 0 0 24.755 44.633 14.924 73.766z" fill="#ffd3f7"/><path d="M637.81 300.716s-84.47 6.217-102.387-11.7c-.076-.077-.158-.158-.234-.239 12.042-6.222 3.015-30.595 1.716-40.865-2.307-18.289 1.268-37.754 8.977-54.393 17.28-37.291 52.835-62.311 93.44-67.428 18.569-2.342 37.093-1.197 55.697.448 30.967 2.734 48.125 15.091 57.346 26.889 0 0 34.735 37.657 31.92 68.329-2.409 26.242-8.096 36.7 5.504 39.628l.493.224c-7.861 17.408-20.05 24.893-42.769 28.136-30.718 4.388-109.703 10.971-109.703 10.971z" fill="#ffd3f7"/><path d="M798.947 215.31c-.585-8.88-2.438-17.744-5.279-26.309 9.831-29.134-14.924-73.767-14.924-73.767-6.176-13.646-19.918-29.704-49.363-39.684-17.692-5.993-35.422-11.482-54.017-13.6-40.661-4.628-81.129 11.283-106.729 43.436-11.42 14.343-19.501 36.191-21.583 54.505v.005c-4.165 5.082-7.811 10.362-10.896 15.759-2.021 3.533-3.824 7.525-5.402 11.838-5.616-31.176 12.912-80.9 32.652-101.766 24.317-25.697 65.533-43.518 109.724-39.536 44.194 3.972 94.311 23.905 113.659 49.475 21.645 28.594 33.131 77.3 15.27 113.603a172.055 172.055 0 0 1-3.112 6.041z" fill="#ffeec8"/><g fill="none" stroke="#000" stroke-width="7"><path d="M547.052 159.893c19.501-23.833 50.203-43.167 86.374-48.594 43.879-6.583 97.289.942 122.131 21.212 16.161 13.182 30.591 33.788 38.111 56.491 2.841 8.564 4.694 17.429 5.279 26.309.545 8.05.041 16.115-1.705 23.976-1.961 8.834-4.19 16.196-6.961 22.321-7.861 17.408-20.05 24.893-42.769 28.136-30.718 4.389-109.703 10.972-109.703 10.972s-84.47 6.217-102.387-11.7c-.076-.077-.158-.158-.234-.239-15.631-16.13-16.522-68.283-4.435-101.282 1.578-4.313 3.381-8.305 5.402-11.838 3.085-5.397 6.73-10.677 10.896-15.759"/><path d="M534.694 289.016c.168-.077.331-.158.494-.239 12.042-6.222 3.015-30.595 1.716-40.865-2.307-18.289 1.268-37.754 8.977-54.393 17.28-37.291 52.835-62.311 93.44-67.428 18.569-2.342 37.093-1.197 55.697.448 30.967 2.734 48.125 15.091 57.346 26.889 0 0 34.735 37.657 31.92 68.329-2.409 26.242-8.096 36.7 5.504 39.628"/><path d="M530.754 187.5v-.005c-5.616-31.176 12.912-80.9 32.652-101.766 24.317-25.697 65.533-43.518 109.724-39.536 44.194 3.972 94.311 23.905 113.659 49.475 21.645 28.594 33.131 77.3 15.27 113.603a173.72 173.72 0 0 1-3.111 6.039c0 .01-.005.015-.01.025"/><path d="M547.052 159.898v-.005c2.082-18.314 10.163-40.163 21.583-54.505 25.601-32.153 66.068-48.064 106.729-43.436 18.595 2.118 36.324 7.606 54.017 13.6 29.445 9.979 43.188 26.038 49.363 39.684 0 0 24.755 44.633 14.924 73.767-.021.056-.036.112-.057.168"/></g></g></svg>