<?xml version="1.0" encoding="iso-8859-1"?>
<!-- Generator: Adobe Illustrator 12.0.1, SVG Export Plug-In . SVG Version: 6.00 Build 51448)  -->
<!DOCTYPE svg PUBLIC "-//W3C//DTD SVG 1.1//EN" "http://www.w3.org/Graphics/SVG/1.1/DTD/svg11.dtd" [
	<!ENTITY ns_svg "http://www.w3.org/2000/svg">
	<!ENTITY ns_xlink "http://www.w3.org/1999/xlink">
]>
<svg  version="1.1" id="Layer_1" xmlns="&ns_svg;" xmlns:xlink="&ns_xlink;" width="850.394" height="850.394"
	 viewBox="0 0 850.394 850.394" style="overflow:visible;enable-background:new 0 0 850.394 850.394;" xml:space="preserve">
<g>
	<g id="XMLID_5_">
		<g>
			<path style="fill:#FFFFFF;" d="M162.5,704.69c14.95,15.569,37.24,28.319,38.54,33.97c1,4.32-7.89,11.87-8.91,20.32
				c-26.72,13.079-54.58,4.59-54.58-30.171c0-19.77,24.63-23.81,24.63-23.81L162.5,704.69z"/>
			<path style="fill:#231F20;" d="M620.12,279.73c-2.03,6.65-10.47,9.97-18.851,7.42c-8.39-2.56-13.539-10.02-11.51-16.67
				c2.021-6.64,10.46-9.96,18.851-7.41C616.99,265.62,622.14,273.09,620.12,279.73z"/>
			<path style="fill:#231F20;" d="M707.83,334.21c-4.8-3.31-22.311-11.05-19.28-21.27c3.97-2.96,9.8-2.8,16.601-7.41l1.79-0.81
				c4.29,8.07,5.09,13.69,5.27,14.86c0.44,2.88,0.38,9.07-2.15,15.72L707.83,334.21z"/>
			<path style="fill:#F6CC4B;" d="M558.94,96.15c1.619-3.43,10.88-21.91,19.449-16.7c9.44,5.75,19.71,40.23,9.03,77.99
				c-10.3,36.47-27.5,72.94-20.91,85.01l-14.279-21.14c3.369-17.5,14.47-80.02,8.51-116.82C560.26,101.52,559.66,98.74,558.94,96.15
				z"/>
			<path style="fill:#9C5C25;" d="M631.34,724.02c0,0,6.16,27.78-25.96,20.32c-9.63-2.229-15.8-4.64-20.14-8.41l-1.061,0.28
				L553.5,620.45c0,0,7.76-10.12,18.75-25.69l34.5,100.3L631.34,724.02z"/>
			<path style="fill:#F6CC4B;" d="M508.61,62.21c11.85-2.29,40.779-1.03,50.33,33.94c0.72,2.59,1.319,5.37,1.8,8.34
				c5.96,36.8-5.141,99.32-8.51,116.82c-0.58,3-0.931,4.68-0.931,4.68s0.82,12.31-9.03,13.13c-12.699,1.06-19.289-48.02-29.14-93.17
				c-3.38-15.5-6.47-29.94-8.57-42.32c-0.85-6.39-1.659-12.47-2.369-17.92C501.08,72.08,502.59,63.38,508.61,62.21z"/>
			<path style="fill:#9C5C25;" d="M601.27,287.15c8.381,2.55,16.82-0.77,18.851-7.42c2.02-6.64-3.13-14.11-11.51-16.66
				c-8.391-2.55-16.83,0.77-18.851,7.41C587.73,277.13,592.88,284.59,601.27,287.15z M192.13,758.98c1.02-8.45,9.91-16,8.91-20.32
				c-1.3-5.65-23.59-18.4-38.54-33.97c-3.85-4.021-7.22-8.23-9.62-12.551c-21.07-38.029-26.75-136.189-1.37-196.47
				c26.27-62.4,75.25-99.61,148.04-127.52c72.79-27.91,137.23-3.42,137.23-3.42c12.18,3.97,28.33,9.44,39.819,5.33
				c8.091-2.89,13.551-6.41,20.9-10.77c16.42-9.73,8.24-24.7,8.24-40.54c0-9.09,2.05-26.73,4.93-35.3
				c1.32-3.91,7.33-16.28,9.85-19.7c3.49-4.75,0.86-17.28,0.82-23.39c-0.03-2.69-0.729-5.55-1.08-8.22
				c-4.14-31.68-3.89-39.64-8.029-71.32c-2.101-16.08-5.101-38.03-7.671-57.19c2.101,12.38,5.19,26.82,8.57,42.32
				c9.851,45.15,16.44,94.23,29.14,93.17c9.851-0.82,9.03-13.13,9.03-13.13s0.351-1.68,0.931-4.68l14.279,21.14l0.03,0.04
				c0.229,0.41,0.479,0.8,0.77,1.15c5.53,6.84,16.03-5.02,37.08-4.11c12.591,0.55,27.48,8.35,45.841,17.24
				c34.76,16.84,50,35.37,56.71,47.95l-1.79,0.81c-6.801,4.61-12.631,4.45-16.601,7.41c-3.03,10.22,14.48,17.96,19.28,21.27
				l2.229,1.09c-4.75,12.47-18.149,26.58-53.13,23.55c0,0-4.1,0.92-10.609,2.08l0.21,1.2c0,0,8.21,87.561-18.061,141.2
				c-15.779,32.229-39.66,68.01-56.22,91.43c-10.99,15.57-18.75,25.69-18.75,25.69l30.68,115.76l0.511,1.91l22.439,30.649
				c0,0,3.28,25.711-27.36,18.4c-23.75-5.67-21.899-10.189-36.68-47.96c-16.02-40.94-39.399-113.29-70.05-141.2
				c0,0-15.12-20.439-51.03-16.79c-5.64,0.561-11.79,1.73-18.47,3.66c-45.55,13.15-71.44,32.39-75.08,35.21
				c-0.06,1.561-0.21,3.141-0.45,4.74c-3.37,22.31-13.54,44.87-24.78,64.189c-7.69,13.211-15.88,24.9-22.74,33.95
				c-0.14,0.181-0.28,0.36-0.41,0.54c-0.54,0.71-1.06,1.4-1.59,2.07c-8.13,10.56-13.96,16.91-13.96,16.92l-0.13,1.48
				c27.38,2.18,76.38,6.369,92.62,9.46c22.98,4.369,25.72,18.609,26.27,25.18c0.55,6.56-14.78,8.55-14.78,8.55l-163.64-11.29
				C194.12,770.29,191.48,764.45,192.13,758.98z"/>
			<path style="fill:#9C5C25;" d="M303.23,689.02l1.82,0.721c26.96,2.29,60.44,5.43,73.31,7.87c22.99,4.38,25.72,18.62,26.27,25.18
				c0.55,6.57-14.78,8.55-14.78,8.55l-109.4-7.55l-0.37-0.28c0.13-0.18,0.27-0.359,0.41-0.54
				C287.35,713.92,295.54,702.23,303.23,689.02z"/>
		</g>
		<g>
			<path style="fill:none;stroke:#231F20;stroke-width:21;" d="M558.94,96.15c0.72,2.59,1.319,5.37,1.8,8.34
				c5.96,36.8-5.141,99.32-8.51,116.82c-0.58,3-0.931,4.68-0.931,4.68s0.82,12.31-9.03,13.13c-12.699,1.06-19.289-48.02-29.14-93.17
				c-3.38-15.5-6.47-29.94-8.57-42.32c-1.109-6.61-1.939-12.64-2.369-17.92c-1.11-13.63,0.399-22.33,6.42-23.5
				C520.46,59.92,549.39,61.18,558.94,96.15z"/>
			<path style="fill:none;stroke:#231F20;stroke-width:21;" d="M502.05,84.65c0.05,0.35,0.09,0.7,0.141,1.06
				c0.71,5.45,1.52,11.53,2.369,17.92c2.57,19.16,5.57,41.11,7.671,57.19c4.14,31.68,3.89,39.64,8.029,71.32
				c0.351,2.67,1.05,5.53,1.08,8.22c0.04,6.11,2.67,18.64-0.82,23.39c-2.52,3.42-8.529,15.79-9.85,19.7
				c-2.88,8.57-4.93,26.21-4.93,35.3c0,15.84,8.18,30.81-8.24,40.54c-7.35,4.36-12.81,7.88-20.9,10.77
				c-11.489,4.11-27.64-1.36-39.819-5.33c0,0-64.44-24.49-137.23,3.42c-72.79,27.91-121.77,65.12-148.04,127.52
				c-25.38,60.28-19.7,158.44,1.37,196.47c2.4,4.32,5.77,8.53,9.62,12.551c14.95,15.569,37.24,28.319,38.54,33.97
				c1,4.32-7.89,11.87-8.91,20.32c-0.65,5.47,1.99,11.31,12.74,16.899l163.64,11.29c0,0,15.33-1.99,14.78-8.55
				c-0.55-6.57-3.29-20.811-26.27-25.18c-16.24-3.091-65.24-7.28-92.62-9.46c-11.38-0.91-19.03-1.48-19.03-1.48"/>
			<path style="fill:none;stroke:#231F20;stroke-width:21;" d="M280.45,723.79l109.4,7.55c0,0,15.33-1.979,14.78-8.55
				c-0.55-6.56-3.28-20.8-26.27-25.18c-12.87-2.44-46.35-5.58-73.31-7.87"/>
			<path style="fill:none;stroke:#231F20;stroke-width:21;" d="M566.54,242.49c0.229,0.41,0.479,0.8,0.77,1.15
				c5.53,6.84,16.03-5.02,37.08-4.11c12.591,0.55,27.48,8.35,45.841,17.24c34.76,16.84,50,35.37,56.71,47.95
				c4.29,8.07,5.09,13.69,5.27,14.86c0.44,2.88,0.38,9.07-2.15,15.72c-4.75,12.47-18.149,26.58-53.13,23.55
				c0,0-4.1,0.92-10.609,2.08c-21.771,3.87-70.48,10.38-83.11-6.05"/>
			<path style="fill:none;stroke:#231F20;stroke-width:21;" d="M558.69,96.69c0,0,0.09-0.19,0.25-0.54
				c1.619-3.43,10.88-21.91,19.449-16.7c9.44,5.75,19.71,40.23,9.03,77.99c-10.3,36.47-27.5,72.94-20.91,85.01"/>
			<path style="fill:none;stroke:#231F20;stroke-width:21;" d="M646.53,362.13c0,0,8.21,87.561-18.061,141.2
				c-15.779,32.229-39.66,68.01-56.22,91.43c-10.99,15.57-18.75,25.69-18.75,25.69l30.68,115.76l0.511,1.91l22.439,30.649
				c0,0,3.28,25.711-27.36,18.4c-23.75-5.67-21.899-10.189-36.68-47.96c-16.02-40.94-39.399-113.29-70.05-141.2
				c0,0-15.12-20.439-51.03-16.79c-5.64,0.561-11.79,1.73-18.47,3.66c-45.55,13.15-71.44,32.39-75.08,35.21
				c-0.3,0.24-0.45,0.36-0.45,0.36"/>
			<path style="fill:none;stroke:#231F20;stroke-width:21;" d="M572.13,594.41l0.12,0.35l34.5,100.3l24.59,28.96
				c0,0,6.16,27.78-25.96,20.32c-9.63-2.229-15.8-4.64-20.14-8.41"/>
			<path style="fill:none;stroke:#231F20;stroke-width:14;" d="M620.12,279.73c-2.03,6.65-10.47,9.97-18.851,7.42
				c-8.39-2.56-13.539-10.02-11.51-16.67c2.021-6.64,10.46-9.96,18.851-7.41C616.99,265.62,622.14,273.09,620.12,279.73z"/>
			<path style="fill:none;stroke:#231F20;stroke-width:21;" d="M278.49,725.58c-8.13,10.56-13.96,16.91-13.96,16.92"/>
			<path style="fill:none;stroke:#231F20;stroke-width:21;" d="M280.49,722.97c-0.14,0.181-0.28,0.36-0.41,0.54
				c-0.54,0.71-1.06,1.4-1.59,2.07"/>
			<path style="fill:none;stroke:#231F20;stroke-width:21;" d="M280.4,553.13c0,0,49.78,28.01,48.06,66.96
				c-0.06,1.561-0.21,3.141-0.45,4.74c-3.37,22.31-13.54,44.87-24.78,64.189c-7.69,13.211-15.88,24.9-22.74,33.95"/>
			<path style="fill:none;stroke:#231F20;stroke-width:21;" d="M162.18,705c0,0-24.63,4.04-24.63,23.81
				c0,34.761,27.86,43.25,54.58,30.171c0.42-0.2,0.83-0.41,1.25-0.62"/>
			<path style="fill:none;stroke:#231F20;stroke-width:14;" d="M705.15,305.53c-6.801,4.61-12.631,4.45-16.601,7.41
				c-3.03,10.22,14.48,17.96,19.28,21.27"/>
			<path style="fill:none;stroke:#231F20;stroke-width:21;" d="M420.36,581.45c0.53-0.07,1.08-0.15,1.65-0.23
				c11.58-1.72,31.15-5.739,43.37-11.39"/>
			<line style="fill:none;stroke:#231F20;stroke-width:21;" x1="566.51" y1="242.45" x2="566.54" y2="242.49"/>
		</g>
	</g>
</g>
<rect style="fill:none;" width="850.394" height="850.394"/>
</svg>
