<?xml version="1.0" encoding="iso-8859-1"?>
<!-- Generator: Adobe Illustrator 12.0.1, SVG Export Plug-In . SVG Version: 6.00 Build 51448)  -->
<!DOCTYPE svg PUBLIC "-//W3C//DTD SVG 1.1//EN" "http://www.w3.org/Graphics/SVG/1.1/DTD/svg11.dtd" [
	<!ENTITY ns_svg "http://www.w3.org/2000/svg">
	<!ENTITY ns_xlink "http://www.w3.org/1999/xlink">
]>
<svg  version="1.1" id="Layer_1" xmlns="&ns_svg;" xmlns:xlink="&ns_xlink;" width="850.394" height="850.394"
	 viewBox="0 0 850.394 850.394" style="overflow:visible;enable-background:new 0 0 850.394 850.394;" xml:space="preserve">
<g id="XMLID_9_">
	<g>
		<path style="fill:#FFEEC8;" d="M412,570l32-6l2.79-0.21c0.45,5.35,0.68,8.479,0.68,8.479c4.94,30.681,1.431,67.03-3.45,78.04
			c-2.88,6.46-13.029,14.771-21.129,12.601c-8.99-2.33-7.96-24.16-11.37-31.65c-7.14,0.391-5.09,11.01-10.16,10.271
			c-2.13-2.851-2.98-8.021-2.98-14.28c0-17.94,6.95-44.77,10.29-50.98l-1.43-4.88L412,570z"/>
		<path style="fill:#0D72BA;" d="M357.59,407.67l7.7,148.62l-3.18,0.16H144.66l-3.89-0.021c1.53-62.55,5.02-139.709,5.51-150.27
			l-0.17-0.01L97.89,571.14L94,570l-32-6l-3.44-0.07c1.72-21.12,7.4-85.34,15.23-117.79c26.98-111.88,55.68-162.37,55.68-162.37
			c11.82-11.81,34.58-25.72,54.39-36.67c4.64-2.56,9.12-4.97,13.26-7.14l5.12,0.12c7.72,18.81,27.37,32.17,50.4,32.17
			c23.06,0,42.73-13.4,50.43-32.25l1.59-3.04c21.44,11.16,59.11,31.98,75.54,48.42c0,0,24.52,50.31,51.5,162.19
			c7.63,31.689,13.229,93.649,15.09,116.22L444,564l-32,6l-4.76,1.39l-47.87-163.81L357.59,407.67z"/>
		<path style="fill:#FFEEC8;" d="M97.89,571.14l-1.08,3.7c3.35,6.22,10.29,33.04,10.29,50.99c0,6.25-0.84,11.42-2.97,14.27
			c-5.07,0.74-3.02-9.88-10.16-10.27c-3.41,7.479-2.38,29.32-11.37,31.65c-8.1,2.17-18.26-6.141-21.13-12.601
			c-4.88-11.01-8.4-47.36-3.45-78.04c0,0,0.19-2.53,0.54-6.91L62,564l32,6L97.89,571.14z"/>
		<path style="fill:#FAA41F;" d="M763.32,421.35c-0.74,0.85-2.88,2.47-8.681,3.21c-2.27,0.29-14.33,0.49-30.46,0.64l-0.01-1.66
			c4.45-12.54,10.62-23.14,17.53-30.17c9.229-9.38,19.78-12.41,29.35-5.22c13.71,10.3-2.2,26.98-8.43,32.69
			C762.87,420.99,763.1,421.16,763.32,421.35z"/>
		<path style="fill:#FBEE34;" d="M759.69,322.94c0.96,0,2.18,0.27,3.439,0.55c1.61,0.36,3.271,0.76,4.48,0.69
			c-1.79,4.82-6.46,8.66-10.7,11.55c-2.391,1.61-4.86,3.03-7.83,3.02c-1.521-0.02-2.94-0.62-4.4-0.81c0-0.79-0.029-1.58-0.109-2.37
			c1.29-0.77,2.83-1.16,4.06-2.1c2.37-1.79,3.46-4.43,4.36-7.16c0.21-0.64,0.399-1.29,0.55-1.95c1.45-0.55,2.77-1.03,4.24-1.26
			C758.38,323,759.02,322.94,759.69,322.94z"/>
		<path style="fill:#FBEE34;" d="M772.18,304.83c0.061,3.59-0.649,7.2-2.13,10.47c-1.189,2.61-4.26,6.16-6.81,7.69l-0.11,0.5
			c-1.26-0.28-2.479-0.55-3.439-0.55c-0.671,0-1.311,0.06-1.91,0.16c-0.25-4.52-0.021-11.32,2.89-15.01
			c1.6-2.04,2.84-3.78,5.09-5.15c1.851-1.13,4.181-1.5,5.95-2.72C772.01,301.74,772.17,303.28,772.18,304.83z"/>
		<path style="fill:#F6CC4B;" d="M756.05,468.28c-1.979,4.92-4.39,10.89-7.06,17.359c-2.74,0.641-14.65,3.08-39.561,4.16h-1.42
			v-17.35C738.71,471.69,753.05,468.93,756.05,468.28z"/>
		<path style="fill:#FBEE34;" d="M753.05,311.24c1.3,4.23,1.5,8.82,0.49,13.12c-0.15,0.66-0.34,1.31-0.55,1.95
			c-0.9,2.73-1.99,5.37-4.36,7.16c-1.229,0.94-2.77,1.33-4.06,2.1c-0.16-1.78-0.511-3.55-1.04-5.26c-0.34,0.29-0.7,0.55-1.08,0.78
			c-0.73-4.4-2.04-7,0.439-10.94c1.37-2.21,2.431-4.07,4.511-5.67c1.72-1.32,4-1.93,5.619-3.34
			C753.03,311.17,753.04,311.21,753.05,311.24z"/>
		<path style="fill:#F6CC4B;" d="M748.99,485.64c-2.75,6.681-5.771,13.891-8.87,21.04l-1.851,0.61c-7.3,0.75-17.25,1.47-30.26,1.84
			V489.8h1.42C734.34,488.72,746.25,486.28,748.99,485.64z"/>
		<path style="fill:#F6CC4B;" d="M738.27,507.29l1.851-0.61c-2.66,6.17-5.38,12.28-8,17.971c-5.88,0.609-13.49,1.189-23.021,1.59
			h-1.09v-17.11C721.02,508.76,730.97,508.04,738.27,507.29z"/>
		<path style="fill:#FBEE34;" d="M739.12,352.65c2.38-1.8,3.46-4.44,4.36-7.16c0.21-0.64,0.399-1.29,0.55-1.95h0.01
			c2.06-0.77,3.85-1.43,6.15-1.42c2.18,0,4.35,0.91,6.5,0.78c-1.79,4.83-5.04,9.12-9.29,11.99c-2.37,1.62-4.841,3.05-7.82,3.03
			c-1.48-0.01-2.86-0.58-4.28-0.78c0-0.81-0.05-1.63-0.14-2.44C736.44,353.96,737.93,353.57,739.12,352.65z"/>
		<path style="fill:#FBEE34;" d="M735.3,357.14c0.03,1.99-0.18,3.97-0.63,5.9c-0.16,0.66-0.35,1.32-0.56,1.96
			c-0.9,2.73-1.98,5.37-4.36,7.16c-0.74,0.57-1.59,0.94-2.44,1.31c-0.119-2.06-0.489-4.1-1.1-6.06c-0.81,0.69-1.77,1.19-2.75,1.68
			c-0.75-3.98-1.79-6.52,0.55-10.26c1.38-2.2,2.431-4.07,4.521-5.67c1.38-1.05,3.1-1.64,4.569-2.57c0.37-0.22,0.73-0.47,1.061-0.76
			c0.49,1.58,0.83,3.22,1,4.87C735.25,355.51,735.3,356.33,735.3,357.14z"/>
		<path style="fill:#FBEE34;" d="M742.45,331.09c0.38-0.23,0.74-0.49,1.08-0.78c0.529,1.71,0.88,3.48,1.04,5.26
			c0.08,0.79,0.109,1.58,0.109,2.37c0,1.88-0.21,3.77-0.649,5.6c-0.15,0.66-0.34,1.31-0.55,1.95c-0.9,2.72-1.98,5.36-4.36,7.16
			c-1.19,0.92-2.68,1.31-3.96,2.05c-0.17-1.65-0.51-3.29-1-4.87c-0.33,0.29-0.69,0.54-1.061,0.76l-0.13-0.21
			c-0.729-4.47-2.069-7.08,0.42-11.05c1.38-2.21,2.431-4.08,4.521-5.67C739.28,332.6,740.99,332,742.45,331.09z"/>
		<path style="fill:#FBEE34;" d="M734.67,363.04c2.05-0.76,3.84-1.42,6.15-1.4c2.17,0,4.34,0.89,6.489,0.78
			c-1.79,4.81-5.029,9.11-9.29,11.99c-2.369,1.62-4.84,3.04-7.81,3.02c-1-0.01-1.96-0.27-2.92-0.51c0.09-1.15,0.1-2.3,0.02-3.45
			c0.851-0.37,1.7-0.74,2.44-1.31c2.38-1.79,3.46-4.43,4.36-7.16C734.32,364.36,734.51,363.7,734.67,363.04z"/>
		<path style="fill:#FBEE34;" d="M717.41,392.06c1.359-0.92,3.07-1.3,4.399-2.32c2.37-1.8,3.45-4.43,4.351-7.15
			c0.21-0.65,0.399-1.3,0.56-1.96c2.061-0.78,3.851-1.42,6.15-1.41c2.17,0,4.34,0.91,6.5,0.78c-1.79,4.82-5.04,9.12-9.29,12
			c-0.58,0.39-1.55,0.7-2.74,0.96c-2.92,0.64-7.08,0.93-9.46,1.11c-0.11-0.53-0.229-1.06-0.36-1.58
			C717.48,392.35,717.45,392.2,717.41,392.06z"/>
		<path style="fill:#F6CC4B;" d="M732.12,524.65c-3.21,6.92-6.29,13.189-9,18.14l-0.94,0.62c-4.279,0.21-9,0.38-14.17,0.51v-17.68
			h1.09C718.63,525.84,726.24,525.26,732.12,524.65z"/>
		<path style="fill:#FBEE34;" d="M727.37,393.12c0.6-0.14,1.14-0.23,1.57-0.23c2.05,0,4.079,0.8,6.1,0.8h0.4
			c-1.79,4.82-5.03,9.1-9.29,11.98c-1.74,1.18-3.53,2.27-5.54,2.75c-0.021,0.01-0.051,0.02-0.07,0.02
			c-0.71,0.17-1.44,0.26-2.21,0.25c-1.88-0.02-3.61-0.93-5.46-0.85c1.93-2.71,4.34-5.83,4.77-6.96c0.851-2.26,0.7-4.54,0.24-6.81
			c2.38-0.18,6.54-0.47,9.46-1.11L727.37,393.12z"/>
		<path style="fill:#FBEE34;" d="M721.81,389.74c-1.329,1.02-3.04,1.4-4.399,2.32c-0.42-1.58-1.01-3.12-1.76-4.58
			c0.01-0.01,0.01-0.01,0-0.02c-0.73-4.46-2.07-7.07,0.409-11.04c1.391-2.21,2.431-4.06,4.521-5.67c0.87-0.67,1.89-1.15,2.88-1.66
			c0.98-0.49,1.94-0.99,2.75-1.68c0.61,1.96,0.98,4,1.1,6.06c0.08,1.15,0.07,2.3-0.02,3.45c-0.1,1.25-0.29,2.49-0.57,3.71
			c-0.16,0.66-0.35,1.31-0.56,1.96C725.26,385.31,724.18,387.94,721.81,389.74z"/>
		<path style="fill:#FBEE34;" d="M712.87,407.84c-1.26,1.76-2.32,3.35-2.5,4.12c-0.03-5.14-0.37-9.42-0.37-9.42
			c-3-3.38-4.3-5.2-4.31-9.9c0-1.55-0.04-2.93,0.13-4.32c0.109-0.94,0.31-1.88,0.68-2.87c0.76-2.05,2.37-3.78,3-5.83
			c2.53,2.18,4.65,4.86,6.15,7.84c0.01,0.01,0.01,0.01,0,0.02c0.75,1.46,1.34,3,1.76,4.58c0.04,0.14,0.07,0.29,0.109,0.43
			c0.131,0.52,0.25,1.05,0.36,1.58c0.46,2.27,0.61,4.55-0.24,6.81C717.21,402.01,714.8,405.13,712.87,407.84z"/>
		<path style="fill:#F6CC4B;" d="M700.46,557.6c4.21-0.22,7.55-3.75,7.55-8.069v-5.61c5.17-0.13,9.891-0.3,14.17-0.51l0.94-0.62
			c-2.94,5.35-5.46,9.14-7.24,10.49c-5.54,4.17-9.27,5.34-15.36,5.58L700.46,557.6z"/>
		<path style="fill:#F6CC4B;" d="M709.7,425.31c5.069-0.03,9.939-0.07,14.479-0.11c16.13-0.15,28.19-0.35,30.46-0.64
			c5.801-0.74,7.94-2.36,8.681-3.21c7.449,6.05,2.37,28.419,2.37,28.419s-1.23,3.11-5.591,4.961c-1.229,0.52-2.699,0.939-4.449,1.17
			c-3.32,0.42-27.881,0.659-55.61,0.81c-13.92,0.07-28.63,0.11-41.85,0.15c-19.851,0.04-36.33,0.05-41.69,0.05
			c-0.25,0-0.47,0-0.67,0c-0.771,0-1.17,0-1.17,0c-5.34,0-21.67-0.01-41.37-0.061c-13.2-0.02-27.92-0.069-41.86-0.149
			c-27.85-0.141-52.6-0.38-55.92-0.8c-2.26-0.29-4.04-0.9-5.439-1.631c-3.57-1.869-4.61-4.5-4.61-4.5s-5.08-22.39,2.38-28.43
			c0.72,0.84,2.851,2.48,8.67,3.22c2.12,0.27,12.74,0.47,27.23,0.61c15.2,0.16,34.67,0.25,53.05,0.31
			c9.51,0.03,18.729,0.05,26.91,0.06c15.54,0.04,27.359,0.04,30.37,0.04c0.489,0,0.75,0,0.75,0h1.52c0,0,27.57,0,58.13-0.1
			c11.69-0.04,23.82-0.09,35.011-0.16C709.56,425.31,709.63,425.31,709.7,425.31z"/>
		<path style="fill:#F6CC4B;" d="M708.01,526.24v17.68c-4.99,0.11-10.39,0.17-16.25,0.16V526.7v-17.33
			c5.88-0.01,11.29-0.101,16.25-0.24V526.24z"/>
		<path style="fill:#F6CC4B;" d="M708.01,489.8v19.33c-4.96,0.14-10.37,0.23-16.25,0.24v-19.09V472.64
			c5.86,0,11.271-0.069,16.25-0.189V489.8z"/>
		<path style="fill:#F6CC4B;" d="M708.01,465.67v6.78c-4.979,0.12-10.39,0.189-16.25,0.189v-6.97c0-4.46,3.57-8.08,7.96-8.08h0.33
			C704.45,457.59,708.01,461.21,708.01,465.67z"/>
		<path style="fill:#F6CC4B;" d="M700.04,456.71c27.729-0.15,52.29-0.39,55.61-0.81c1.75-0.23,3.22-0.65,4.449-1.17l1.21,0.21
			c-0.239,0.63-2.229,5.739-5.26,13.34c-3,0.649-17.34,3.41-48.04,4.17v-6.78c0-4.46-3.56-8.08-7.96-8.08L700.04,456.71z"/>
		<path style="fill:#F6CC4B;" d="M691.76,544.08c5.86,0.01,11.26-0.05,16.25-0.16v5.61c0,4.319-3.34,7.85-7.55,8.069
			c-0.14,0.011-0.27,0.011-0.41,0.011h-0.33c-4.39,0-7.96-3.62-7.96-8.08V544.08z"/>
		<path style="fill:#F6CC4B;" d="M691.76,526.7v17.38c-7.54-0.01-15.8-0.13-24.859-0.41h-0.841v-17.14
			c8.771,0.189,16.74,0.239,23.96,0.17H691.76z"/>
		<path style="fill:#F6CC4B;" d="M691.76,509.37v17.33h-1.74c-7.22,0.069-15.189,0.02-23.96-0.17v-17.5
			C675.47,509.3,684.02,509.4,691.76,509.37z"/>
		<path style="fill:#F6CC4B;" d="M691.76,490.28v19.09c-7.74,0.03-16.29-0.07-25.7-0.34v-18.94c8.891,0.21,16.971,0.25,24.28,0.19
			H691.76z"/>
		<path style="fill:#F6CC4B;" d="M691.76,472.64v17.641h-1.42c-7.31,0.06-15.39,0.02-24.28-0.19v-17.87
			C675.45,472.51,684,472.64,691.76,472.64z"/>
		<path style="fill:#33A048;" d="M621.48,347.93c-0.74-0.89-11.74,1.49-13.851,2.25c-8.16,2.97-12.8,17.57-14.24,25.26
			c-1.77,9.39,2.73,13.4,4.62,19.55c-7.81-1.36-12.52,1.11-15.22,4.96c-2.29-4.69-7.73-9.71-8.7-13.1c-0.17-0.61-0.33-1.21-0.46-1.8
			c-0.16-1.21-0.38-2.41-0.649-3.58c-2.131-16.77,9.38-27.26,16.289-30.94c6.78-3.63,11.29-4.57,17.811-7.78
			c6.35-3.13,8.33-8.87,12.28-14.34c5.279-7.33,12.46-6.16,20.76-7.6c8.18-1.4,15.32,0.64,20.62,5.94
			c4.08,4.07,17.479,18.25,23.319,19.72c4.03,1,10.171,3.29,11.82,8l-0.21,0.04c-5.229,2.86-9.64,6.37-10.46,12.1l-0.71-0.11
			c0.59-3.88,0.98-7.74-1.04-9.77c-12.31-12.3-15.93-3.93-21.97-7.77c-3.53-2.26-15.221-14.29-24.431-14.29
			c-4.779,0-10.51,2.95-12.609,7.51c-1.69,3.68,0.16,7.07,0.22,10.85h-0.45C624.04,351.24,622.56,349.22,621.48,347.93z"/>
		<path style="fill:#33A048;" d="M681.04,407.71c-3.73-5.87-12.35-6.23-18.75-4.01c-0.98-1.85-3.39-3.31-4.94-4.64
			c-2.149-1.84-4.38-3.58-6.189-5.76c-4.09-4.95-5.96-10.69-5.46-17.16c0.399-5.18,2.06-10.56,6.54-13.62
			c4.14-2.84,12.66-3.4,17.05-0.5c1.15,0.92,2.24,1.95,3.27,3.08c3.841,4.2,6.021,8.02,11.37,10.21c-0.56-2.22,0.08-5.52,0.57-8.81
			l0.71,0.11c-0.09,0.59-0.13,1.21-0.14,1.85c-0.03,2.57-0.271,5.33-0.011,7.88c0.341,3.29,1.851,6.25,2.181,9.56
			c0.67,6.93-0.98,12.65-4.29,18.63c-0.59,1.06-1.22,2.13-1.8,3.23L681.04,407.71z"/>
		<path style="fill:#33A048;" d="M696.3,356.63c0.05,1.26,2.08,3.51,2.601,5.09c1.109,3.39,2.8,6.57,3.97,9.95
			c1.88,5.48,2.479,11.04,1.91,16.54c-0.38,3.75-1.29,7.46-2.71,11.1c-2.94,7.52-7.16,12.79-14.24,16.92
			c-2.57,1.5-5.21,1.72-7.85,2.87l-0.211-1.01c-0.609,0.16-0.539-3.83-0.439-4.93c0.189-1.92,0.93-3.7,1.82-5.4
			c0.58-1.1,1.21-2.17,1.8-3.23c3.31-5.98,4.96-11.7,4.29-18.63c-0.33-3.31-1.84-6.27-2.181-9.56c-0.26-2.55-0.02-5.31,0.011-7.88
			c0.01-0.64,0.05-1.26,0.14-1.85c0.82-5.73,5.23-9.24,10.46-12.1l0.21-0.04C696.12,355.14,696.26,355.86,696.3,356.63z"/>
		<path style="fill:#F6CC4B;" d="M666.9,543.67c9.06,0.28,17.319,0.4,24.859,0.41v5.45c0,4.46,3.57,8.08,7.96,8.08h0.33
			c0.141,0,0.271,0,0.41-0.011l0.06,1.261c-5.319,0.21-12.449-0.29-24.159-0.13c-5.681,0.069-11.92,0.109-18.17,0.119v-1.909
			c4.35,0,7.869-3.591,7.869-8v-5.271H666.9z"/>
		<path style="fill:#F6CC4B;" d="M666.06,543.67v5.271c0,4.409-3.52,8-7.869,8h-0.33c-4.351,0-7.87-3.591-7.87-8v-3.57v-19.05
			c4.729,0,7.87,0,7.87,0c2.81,0.08,5.54,0.149,8.199,0.21V543.67z"/>
		<path style="fill:#F6CC4B;" d="M666.06,509.03v17.5c-2.659-0.061-5.39-0.13-8.199-0.21c0,0-3.141,0-7.87,0v-15.66v-20.74h9.21
			c2.34,0.07,4.63,0.13,6.859,0.17V509.03z"/>
		<path style="fill:#F6CC4B;" d="M666.06,472.22v17.87c-2.229-0.04-4.52-0.1-6.859-0.17h-9.21v-16v-7.979
			c0-4.431,3.52-8.011,7.87-8.011h0.33c4.35,0,7.869,3.58,7.869,8.011V472.22z"/>
		<path style="fill:#F6CC4B;" d="M658.19,456.86c13.22-0.04,27.93-0.08,41.85-0.15l0.01,0.88h-0.33c-4.39,0-7.96,3.62-7.96,8.08
			v6.97c-7.76,0-16.31-0.13-25.7-0.42v-6.279c0-4.431-3.52-8.011-7.869-8.011V456.86z"/>
		<path style="fill:#33A048;" d="M652.24,362.52c-4.48,3.06-6.141,8.44-6.54,13.62c-0.5,6.47,1.37,12.21,5.46,17.16
			c1.81,2.18,4.04,3.92,6.189,5.76c1.551,1.33,3.96,2.79,4.94,4.64c-1.03,0.35-2,0.77-2.88,1.25c-4.08,2.21-7.521,5.64-11.7,7.64
			c-4.1,1.95-8.95,1.36-13.31,0.67c-4.891-0.77-9.15-1.86-13.75-3.85c-0.98-0.43-1.96-0.85-2.94-1.24l0.18-0.46
			c3.66-0.93,7.511-8.42,8.94-11.5c2.27-4.82,1.93-9.11,2.87-14.13c0.89-4.73,4.79-8.5,8.05-11.83c4.89-5.01,10.8-9.83,11.47-17.09
			c1,0.41,2.311,0.86,4.24,1.36c5.76,1.5,11.25,3.77,15.83,7.5C664.9,359.12,656.38,359.68,652.24,362.52z"/>
		<path style="fill:#F6CC4B;" d="M657.86,556.94h0.33v1.909c-18.311,0.04-36.73-0.14-41.61-0.199c-0.3,0-0.55,0-0.75-0.011
			c4.41,0,7.979-3.63,7.979-8.109v-5.16h25.341h0.84v3.57C649.99,553.35,653.51,556.94,657.86,556.94z"/>
		<path style="fill:#F6CC4B;" d="M649.99,526.32v19.05h-0.84H623.81v-19.05C632.7,526.32,643.05,526.32,649.99,526.32z"/>
		<path style="fill:#F6CC4B;" d="M649.99,510.66v15.66c-6.94,0-17.29,0-26.181,0v-15.66h1.73h20.6H649.99z"/>
		<polygon style="fill:#F6CC4B;" points="649.99,489.92 649.99,510.66 646.14,510.66 625.54,510.66 623.81,510.66 623.81,489.92 
			624.37,489.92 		"/>
		<polygon style="fill:#F6CC4B;" points="649.99,473.92 649.99,489.92 624.37,489.92 623.81,489.92 623.81,473.92 648.15,473.92 		
			"/>
		<path style="fill:#33A048;" d="M649.22,353.16c-3.029-1.23-3.279-2.1-9.29-2.89c-1.939-0.25-10.58,0.03-15.83,4.26
			c0.091-0.37,0.131-0.73,0.141-1.08c0-0.14,0-0.28-0.021-0.42h0.45c-0.06-3.78-1.91-7.17-0.22-10.85
			c2.1-4.56,7.83-7.51,12.609-7.51c9.21,0,20.9,12.03,24.431,14.29c6.04,3.84,9.66-4.53,21.97,7.77c2.021,2.03,1.63,5.89,1.04,9.77
			c-0.49,3.29-1.13,6.59-0.57,8.81c-5.35-2.19-7.529-6.01-11.37-10.21c-1.029-1.13-2.119-2.16-3.27-3.08
			c-4.58-3.73-10.07-6-15.83-7.5C651.53,354.02,650.22,353.57,649.22,353.16z"/>
		<polygon style="fill:#F6CC4B;" points="607.51,526.32 607.51,510.66 623.81,510.66 623.81,526.32 623.81,545.37 622.52,545.37 
			608.63,545.37 607.51,545.37 		"/>
		<path style="fill:#F6CC4B;" d="M623.81,466.39v7.53h-0.279h-15.9h-0.12v-7.53c0-4.489,3.58-8.12,7.98-8.12h0.34
			C620.24,458.27,623.81,461.9,623.81,466.39z"/>
		<polygon style="fill:#F6CC4B;" points="607.63,473.92 623.53,473.92 623.81,473.92 623.81,489.92 623.81,510.66 607.51,510.66 
			607.51,489.92 607.51,473.92 		"/>
		<path style="fill:#33A048;" d="M607.63,350.18c2.11-0.76,13.11-3.14,13.851-2.25c1.079,1.29,2.56,3.31,2.739,5.1
			c0.021,0.14,0.021,0.28,0.021,0.42c-0.01,0.35-0.05,0.71-0.141,1.08c-0.409,1.94-1.689,4.1-2.14,5.96
			c-2.1,8.88-4.47,17.66-6.67,26.49c-1.53,6.16-3.43,14.03-8,18.61l0.04,0.44c-0.49,0.03-0.97,0.1-1.42,0.19
			c-3.9-3.46-6.25-5.88-7.9-11.23c-1.89-6.15-6.39-10.16-4.62-19.55C594.83,367.75,599.47,353.15,607.63,350.18z"/>
		<path style="fill:#F6CC4B;" d="M616.5,456.91c5.36,0,21.84-0.01,41.69-0.05v1.069h-0.33c-4.351,0-7.87,3.58-7.87,8.011v7.979
			h-1.84H623.81v-7.53c0-4.489-3.569-8.12-7.979-8.12v-1.359C616.03,456.91,616.25,456.91,616.5,456.91z"/>
		<path style="fill:#33A048;" d="M609.15,406c3.02,0.18,5.81,1.07,8.56,2.17c0.98,0.39,1.96,0.81,2.94,1.24
			c4.6,1.99,8.859,3.08,13.75,3.85c4.359,0.69,9.21,1.28,13.31-0.67c4.18-2,7.62-5.43,11.7-7.64c0.88-0.48,1.85-0.9,2.88-1.25
			c6.4-2.22,15.02-1.86,18.75,4.01l0.11,0.05c-0.891,1.7-1.631,3.48-1.82,5.4c-0.1,1.1-0.17,5.09,0.439,4.93l0.211,1.01
			c-2.4,1.03-5.04,3.28-5.511,5.78v0.6c-30.56,0.1-58.13,0.1-58.13,0.1h-1.52c0,0-0.261,0-0.75,0v-0.7
			c-4.23-2.89-10.431-5.83-12.08-8.91c-2.71-5.06-0.57-8.79,3.92-9.75c0.45-0.09,0.93-0.16,1.42-0.19
			C607.91,405.97,608.52,405.96,609.15,406z"/>
		<path style="fill:#F6CC4B;" d="M608.63,545.37h13.89h1.29v5.16c0,4.479-3.569,8.109-7.979,8.109c-0.33,0-0.5,0-0.5,0
			c-4.33-0.09-7.82-3.68-7.82-8.109v-5.16H608.63z"/>
		<path style="fill:#33A048;" d="M617.71,408.17c-2.75-1.1-5.54-1.99-8.56-2.17c-0.631-0.04-1.24-0.03-1.82,0.03l-0.04-0.44
			c4.57-4.58,6.47-12.45,8-18.61c2.2-8.83,4.57-17.61,6.67-26.49c0.45-1.86,1.73-4.02,2.14-5.96c5.25-4.23,13.891-4.51,15.83-4.26
			c6.011,0.79,6.261,1.66,9.29,2.89c-0.67,7.26-6.58,12.08-11.47,17.09c-3.26,3.33-7.16,7.1-8.05,11.83
			c-0.94,5.02-0.601,9.31-2.87,14.13c-1.43,3.08-5.28,10.57-8.94,11.5L617.71,408.17z"/>
		<path style="fill:#F6CC4B;" d="M607.51,526.32v19.05H582h-0.83v-19.05C588.15,526.32,598.59,526.32,607.51,526.32z"/>
		<path style="fill:#F6CC4B;" d="M607.51,510.66v15.66c-8.92,0-19.359,0-26.34,0v-15.66h3.85h20.601H607.51z"/>
		<polygon style="fill:#F6CC4B;" points="607.51,489.92 607.51,510.66 605.62,510.66 585.02,510.66 581.17,510.66 581.17,489.92 
			606.78,489.92 		"/>
		<polygon style="fill:#F6CC4B;" points="607.51,473.92 607.51,489.92 606.78,489.92 581.17,489.92 581.17,473.92 583.01,473.92 		
			"/>
		<path style="fill:#33A048;" d="M601.99,415.97c1.649,3.08,7.85,6.02,12.08,8.91v0.7c-3.011,0-14.83,0-30.37-0.04v-1.48
			c-1.04-1.85-1.96-3.65-2.73-5.06c-1.63-2.95-2.56-12.81,1.82-19.05c2.7-3.85,7.41-6.32,15.22-4.96c1.65,5.35,4,7.77,7.9,11.23
			C601.42,407.18,599.28,410.91,601.99,415.97z"/>
		<path style="fill:#F6CC4B;" d="M616.58,558.73c0,0-21.78,0.199-43.3,0.13l0.01-1.92c4.35,0,7.88-3.591,7.88-8v-3.57H582h25.51
			v5.16c0,4.43,3.49,8.02,7.82,8.109c0,0,0.17,0,0.5,0c0.2,0.011,0.45,0.011,0.75,0.011V558.73z"/>
		<path style="fill:#F6CC4B;" d="M581.17,545.37v3.57c0,4.409-3.53,8-7.88,8h-0.32c-4.359,0-7.88-3.591-7.88-8v-5.271v-17.14
			c2.66-0.061,5.391-0.13,8.2-0.21c0,0,3.15,0,7.88,0V545.37z"/>
		<path style="fill:#F6CC4B;" d="M565.09,509.03v-18.94c2.24-0.04,4.53-0.1,6.87-0.17h9.21v20.74v15.66c-4.729,0-7.88,0-7.88,0
			c-2.81,0.08-5.54,0.149-8.2,0.21V509.03z"/>
		<path style="fill:#F6CC4B;" d="M565.09,472.22v-6.279c0-4.431,3.521-8.011,7.88-8.011h0.32c4.35,0,7.88,3.58,7.88,8.011v7.979v16
			h-9.21c-2.34,0.07-4.63,0.13-6.87,0.17V472.22z"/>
		<path style="fill:#F6CC4B;" d="M615.49,458.27c-4.4,0-7.98,3.631-7.98,8.12v7.53h-24.5h-1.84v-7.979
			c0-4.431-3.53-8.011-7.88-8.011v-1.08c19.7,0.051,36.03,0.061,41.37,0.061c0,0,0.399,0,1.17,0v1.359H615.49z"/>
		<path style="fill:#ED1D31;" d="M574.09,386.85c0.97,3.39,6.41,8.41,8.7,13.1c-4.38,6.24-3.45,16.1-1.82,19.05
			c0.771,1.41,1.69,3.21,2.73,5.06v1.48c-8.181-0.01-17.4-0.03-26.91-0.06v-0.67c10.46-7.88,17.2-20.38,17.2-34.45
			c0-1.8-0.12-3.57-0.36-5.31C573.76,385.64,573.92,386.24,574.09,386.85z"/>
		<path style="fill:#FFFFFF;" d="M572.98,381.47c0.27,1.17,0.489,2.37,0.649,3.58C573.34,383.83,573.13,382.63,572.98,381.47z"/>
		<path style="fill:#F6CC4B;" d="M565.09,526.53v17.14h-0.84c-9.06,0.28-17.32,0.41-24.86,0.42V526.7h1.75
			C548.35,526.77,556.32,526.72,565.09,526.53z"/>
		<path style="fill:#F6CC4B;" d="M565.09,509.03v17.5c-8.77,0.189-16.74,0.239-23.95,0.17h-1.75v-17.32
			C547.13,509.4,555.68,509.3,565.09,509.03z"/>
		<path style="fill:#F6CC4B;" d="M565.09,490.09v18.94c-9.41,0.27-17.96,0.37-25.7,0.35v-19.1h1.42
			C548.12,490.34,556.2,490.3,565.09,490.09z"/>
		<path style="fill:#F6CC4B;" d="M565.09,472.22v17.87c-8.89,0.21-16.97,0.25-24.28,0.19h-1.42V472.64
			C547.15,472.64,555.7,472.51,565.09,472.22z"/>
		<path style="fill:#ABD153;" d="M556.79,424.81v0.67c-18.38-0.06-37.85-0.15-53.05-0.31l0.01-1.07l20.75-60.78
			c0.97,0.48,2.07,0.74,3.14,0.82c3.37,0.24,6.75-1.05,8.341-4.08c0.47-0.89,0.859-1.81,1.439-2.61L556.79,424.81z"/>
		<path style="fill:#F6CC4B;" d="M539.39,526.7v17.39c-5.85,0-11.26-0.06-16.239-0.17v-17.68v-17.11
			c4.96,0.14,10.369,0.23,16.239,0.25V526.7z"/>
		<path style="fill:#F6CC4B;" d="M539.39,490.28v19.1c-5.87-0.02-11.279-0.11-16.239-0.25V489.8v-17.35
			c4.97,0.12,10.38,0.189,16.239,0.189V490.28z"/>
		<path style="fill:#F6CC4B;" d="M539.39,465.68v6.96c-5.859,0-11.27-0.069-16.239-0.189v-6.771c0-4.47,3.56-8.09,7.949-8.09h0.33
			C535.83,457.59,539.39,461.21,539.39,465.68z"/>
		<path style="fill:#F6CC4B;" d="M523.15,543.92c4.979,0.11,10.39,0.17,16.239,0.17v5.44c0,4.47-3.56,8.08-7.96,8.08h-0.33
			c-0.14,0-0.27,0-0.409-0.011c-4.2-0.22-7.54-3.739-7.54-8.069V543.92z"/>
		<path style="fill:#FFFFFF;" d="M536.75,355.13l5.27-0.21c-2.699,0.69-2.699,0.69-3.819,1.66c-0.3,0.26-0.561,0.56-0.78,0.87
			L536.75,355.13z"/>
		<path style="fill:#F6CC4B;" d="M539.39,465.68c0-4.47-3.56-8.09-7.96-8.09v-0.89c13.94,0.08,28.66,0.13,41.86,0.149v1.08h-0.32
			c-4.359,0-7.88,3.58-7.88,8.011v6.279c-9.39,0.29-17.939,0.42-25.7,0.42V465.68z"/>
		<path style="fill:#ABD153;" d="M534.58,347.57c18.33,2.33,34.31,16.1,38.4,33.9c0.149,1.16,0.359,2.36,0.649,3.58
			c0.24,1.74,0.36,3.51,0.36,5.31c0,14.07-6.74,26.57-17.2,34.45l-19.37-67.36c0.22-0.31,0.48-0.61,0.78-0.87
			c1.12-0.97,1.12-0.97,3.819-1.66l-5.27,0.21L534.58,347.57z"/>
		<path style="fill:#FFFFFF;" d="M533.46,345.69l-1.71,9.65l-0.23,0.01C532,352.14,532.69,348.27,533.46,345.69z"/>
		<path style="fill:#F6CC4B;" d="M531.43,557.61c4.4,0,7.96-3.61,7.96-8.08v-5.44c7.54-0.01,15.801-0.14,24.86-0.42h0.84v5.271
			c0,4.409,3.521,8,7.88,8h0.32l-0.01,1.92c-5.83-0.021-11.63-0.061-16.98-0.13c-12.87-0.181-20.2,0.449-25.689,0.039l0.08-1.17
			c0.14,0.011,0.27,0.011,0.409,0.011H531.43z"/>
		<path style="fill:#FFFFFF;" d="M531.75,355.34l-1.02,5.76c0,0,0.3-2.55,0.789-5.75L531.75,355.34z"/>
		<path style="fill:#FFFFFF;" d="M538.6,333.36c0,0-5.729,12.12-7.27,17.24l-0.87,4.79l-0.88,0.03c0.08-2.2,0.15-4.73,0.13-7.35
			l0.29-0.84h-0.3c0.01-0.45,0-0.91-0.01-1.37c-0.07-3.51,2.8-8.31,4.8-14.55L538.6,333.36z"/>
		<path style="fill:#FFFFFF;" d="M529.7,347.23h0.3c-0.1,0-0.2,0.01-0.3,0.01C529.7,347.24,529.71,347.24,529.7,347.23z"/>
		<path style="fill:#FFFFFF;" d="M530,347.23l-0.29,0.84c0.01-0.27,0-0.55-0.01-0.83C529.8,347.24,529.9,347.23,530,347.23z"/>
		<path style="fill:#ABD153;" d="M529.7,347.24c0.01,0.28,0.02,0.56,0.01,0.83l-2.54,7.45l-10.3,0.42c3.36,0,4.21,2.95,4.83,4.5
			c0.52,1.33,1.56,2.27,2.8,2.88l-20.75,60.78c-9.71-7.72-16-19.52-16.29-32.79c-0.01-0.32-0.01-0.63-0.01-0.95
			C487.45,367.12,506.59,348.14,529.7,347.24z"/>
		<path style="fill:#FFFFFF;" d="M530.46,355.39l-1.31,7.22c0,0,0.26-2.99,0.43-7.19L530.46,355.39z"/>
		<path style="fill:#FFFFFF;" d="M530.73,361.1l1.02-5.76l5-0.21l0.67,2.32c-0.58,0.8-0.97,1.72-1.439,2.61
			c-1.591,3.03-4.971,4.32-8.341,4.08c-1.069-0.08-2.17-0.34-3.14-0.82l2.67-7.8l2.41-0.1c-0.17,4.2-0.43,7.19-0.43,7.19l1.31-7.22
			l1.06-0.04C531.03,358.55,530.73,361.1,530.73,361.1z"/>
		<path style="fill:#F6CC4B;" d="M523.15,549.53c0,4.33,3.34,7.85,7.54,8.069l-0.08,1.17c-5.221-0.369-8.771-1.68-13.83-5.489
			c-1.71-1.29-4.13-4.83-6.98-9.83c4.061,0.2,8.5,0.359,13.351,0.47V549.53z"/>
		<path style="fill:#ABD153;" d="M527.17,355.52l-2.67,7.8c-1.24-0.61-2.28-1.55-2.8-2.88c-0.62-1.55-1.47-4.5-4.83-4.5
			L527.17,355.52z"/>
		<path style="fill:#F6CC4B;" d="M523.15,526.24v17.68c-4.851-0.11-9.29-0.27-13.351-0.47c-2.859-5.01-6.14-11.5-9.58-18.681
			c5.721,0.561,12.94,1.101,21.84,1.471H523.15z"/>
		<path style="fill:#F6CC4B;" d="M523.15,509.13v17.11h-1.091c-8.899-0.37-16.119-0.91-21.84-1.471
			c-2.6-5.449-5.3-11.289-7.95-17.199l0.61-0.28C500.18,508.04,510.13,508.77,523.15,509.13z"/>
		<path style="fill:#F6CC4B;" d="M523.15,489.8v19.33c-13.021-0.36-22.971-1.09-30.271-1.84l-0.61,0.28
			c-3.319-7.391-6.59-14.88-9.55-21.801c3.57,0.78,15.5,3.011,39,4.03H523.15z"/>
		<path style="fill:#F6CC4B;" d="M523.15,472.45v17.35h-1.431c-23.5-1.02-35.43-3.25-39-4.03c-2.79-6.5-5.31-12.489-7.37-17.439
			C478.83,469.07,493.21,471.71,523.15,472.45z"/>
		<path style="fill:#F6CC4B;" d="M475.51,455.9c3.32,0.42,28.07,0.659,55.92,0.8v0.89h-0.33c-4.39,0-7.949,3.62-7.949,8.09v6.771
			c-29.94-0.74-44.32-3.38-47.801-4.12c-3.399-8.16-5.54-13.46-5.54-13.46l0.261-0.601C471.47,455,473.25,455.61,475.51,455.9z"/>
		<path style="fill:#FAA41F;" d="M476.51,424.56c-5.819-0.74-7.95-2.38-8.67-3.22c0.22-0.19,0.45-0.35,0.69-0.5
			c-6.23-5.71-22.13-22.39-8.431-32.69c8.83-6.64,18.511-4.57,27.2,3.16h0.16c0.29,13.27,6.58,25.07,16.29,32.79l-0.01,1.07
			C489.25,425.03,478.63,424.83,476.51,424.56z"/>
		<path style="fill:#7A7878;" d="M365.59,562.24l0.31-0.021c0.75,12.721,1.25,27.271,1.25,43.44c0,18.14-1.98,130.82-4.79,174.479
			l-91.33,1.601l-8.44-149.67l-17.46-0.09l-8.9,144.029L236,776l-91.01,0.04c-2.88-44.69-4.94-152.73-4.94-171.2
			c0-13.64,0.28-30.42,0.72-48.41l3.89,0.021h217.45l3.18-0.16L365.59,562.24z"/>
		<path style="fill:#9E5C26;" d="M267.45,98.47c-12.02,8.39-52.57,21.76-57.72,25.55c0,0-9.57,9.86-15.96,18.12
			c-2.13,2.76-3.9,5.34-4.85,7.31l-0.6-19.46c0-31.04,25.34-49.06,25.34-49.06c2.92-1.99,4.89-2.99,4.89-2.99
			c12.92-7.69,29.63-10.4,50.95-7.92c25.74,3,45.48,28.64,49.25,60.55c0.61,5.18-0.86,10.67-1.76,16.16l-5.83,1.31
			c0.01,0.25,0.01,0.5,0.02,0.74c-2.35-9.51-12.68-17.61-15.32-21.26c-14.25-19.69-25.05-27.1-27.7-28.73
			c-0.41-0.26-0.63-0.38-0.63-0.38C267.5,98.43,267.48,98.45,267.45,98.47z"/>
		<path style="fill:#FFEEC8;" d="M311.3,149.33l0.64-0.14c1.48-0.53,3.13-0.71,4.93-0.42c6.87,1.1,5.94,8.81,4.06,12.65
			c-4.59,9.36-2.49,12.8-3.07,19.94c-0.23,2.71-3.32,7.99-9.79,6.76l-0.34-0.1c2.31-8.05,3.67-16.52,3.67-25.14
			c0-4.86-0.06-8.23-0.22-14.1C311.23,148.96,311.27,149.14,311.3,149.33z"/>
		<path style="fill:#FFEEC8;" d="M304.66,236.96l-1.59,3.04c-7.7,18.85-27.37,32.25-50.43,32.25c-23.03,0-42.68-13.36-50.4-32.17
			l-5.12-0.12c11.18-5.88,19.86-10.1,22.54-11.39c5.35,6.23,10.98,11.07,16.26,14.02c5.95,2.64,10.3,1.96,17.08,1.96
			c7.33,0,12.16,0.44,18.5-2.62c4.54-2.9,9.48-7.34,14.29-12.97l3.21,0.07C289,229.03,295.27,232.07,304.66,236.96z"/>
		<path style="fill:#FFEEC8;" d="M255.55,202.36c-0.08,0.01-0.16,0.03-0.24,0.04l0.57-0.03
			C255.77,202.37,255.66,202.37,255.55,202.36z M288.69,159.96c0-0.97,0.07-1.42-0.17-1.98l0.47-1c-2.06-0.99-4.31-1.56-6.72-1.5
			c-3.21,0.08-6.51,1.4-8.98,3.53l1.91,0.01c0.01,0.21,0.08,0.44,0.08,0.94c0,3.53,3.01,6.4,6.71,6.4
			C285.68,166.36,288.69,163.49,288.69,159.96z M219.66,228.57c-8.8-10.24-16.84-24.25-21.33-39.95c-2.35-8.22-3.73-16.9-3.73-25.74
			c0-2.92,0-8.05,0.04-13c0.02-2.77,0.06-5.49,0.11-7.74h-0.98c6.39-8.26,15.96-18.12,15.96-18.12c5.15-3.79,45.7-17.16,57.72-25.55
			c0.13,0.11,0.39,0.22,0.71,0.32c2.65,1.63,13.45,9.04,27.7,28.73c2.64,3.65,12.97,11.75,15.32,21.26
			c0.16,5.87,0.22,9.24,0.22,14.1c0,8.62-1.36,17.09-3.67,25.14c-4.63,16.14-13.06,30.56-21.94,40.94
			c-4.81,5.63-9.75,10.07-14.29,12.97c-6.34,3.06-11.17,2.62-18.5,2.62c-6.78,0-11.13,0.68-17.08-1.96
			C230.64,239.64,225.01,234.8,219.66,228.57z M235.9,159.79c-2.53-2.46-6.13-4.04-9.63-4.11c-2.46-0.06-4.74,0.52-6.83,1.56
			l0.52,1.1c-0.17,0.49-0.12,0.94-0.12,1.81c0,3.54,3.01,6.41,6.72,6.41C229.99,166.56,235.16,163.11,235.9,159.79z"/>
		<path style="fill:#FFFFFF;" d="M284.37,160.01c0-1.19-1.08-2.16-2.42-2.16c-1.34,0-2.42,0.97-2.42,2.16
			c0,1.19,1.08,2.16,2.42,2.16C283.29,162.17,284.37,161.2,284.37,160.01z M288.52,157.98c0.24,0.56,0.17,1.01,0.17,1.98
			c0,3.53-3.01,6.4-6.7,6.4c-3.7,0-6.71-2.87-6.71-6.4c0-0.5-0.07-0.73-0.08-0.94l-1.91-0.01c2.47-2.13,5.77-3.45,8.98-3.53
			c2.41-0.06,4.66,0.51,6.72,1.5L288.52,157.98z"/>
		<path style="fill:#FFFFFF;" d="M228.95,160.03c0-1.2-1.08-2.16-2.42-2.16c-1.33,0-2.42,0.96-2.42,2.16c0,1.19,1.09,2.16,2.42,2.16
			C227.87,162.19,228.95,161.22,228.95,160.03z M226.27,155.68c3.5,0.07,7.1,1.65,9.63,4.11c-0.74,3.32-5.91,6.77-9.34,6.77
			c-3.71,0-6.72-2.87-6.72-6.41c0-0.87-0.05-1.32,0.12-1.81l-0.52-1.1C221.53,156.2,223.81,155.62,226.27,155.68z"/>
		<path style="fill:#FFEEC8;" d="M194.6,162.88c0,8.84,1.38,17.52,3.73,25.74l-0.61,0.17c-6.46,1.24-9.56-4.03-9.78-6.75
			c-0.59-7.14,1.52-10.58-3.07-19.94c-1.89-3.85-2.81-11.55,4.05-12.65c1.8-0.29,3.46-0.11,4.93,0.42l0.79,0.01
			C194.6,154.83,194.6,159.96,194.6,162.88z"/>
	</g>
	<g>
		<path style="fill:none;stroke:#231F20;stroke-width:6.3686;" d="M239.3,219.4c8.44,3.37,21.83,2.97,29.01-0.16"/>
		<path style="fill:none;stroke:#231F20;stroke-width:14;" d="M144.99,776.04c-2.88-44.69-4.94-152.73-4.94-171.2
			c0-13.64,0.28-30.42,0.72-48.41c1.53-62.55,5.02-139.709,5.51-150.27c0.03-0.8,0.05-1.22,0.05-1.22"/>
		<polyline style="fill:none;stroke:#231F20;stroke-width:14;" points="365.82,566.61 365.59,562.24 365.29,556.29 357.59,407.67 
			357.49,405.81 		"/>
		<path style="fill:none;stroke:#231F20;stroke-width:14;" d="M362.36,780.14c2.81-43.659,4.79-156.34,4.79-174.479
			c0-16.17-0.5-30.72-1.25-43.44"/>
		<polyline style="fill:none;stroke:#231F20;stroke-width:14;" points="271.03,781.74 262.59,632.07 245.13,631.98 236.23,776.01 
			235.88,781.74 		"/>
		<line style="fill:none;stroke:#231F20;stroke-width:14;" x1="144.66" y1="556.45" x2="362.11" y2="556.45"/>
		<path style="fill:none;stroke:#231F20;stroke-width:6.3686;stroke-linecap:square;stroke-miterlimit:10;" d="M212.35,163.04
			c1.98-2.4,4.37-4.48,7.09-5.8c2.09-1.04,4.37-1.62,6.83-1.56c3.5,0.07,7.1,1.65,9.63,4.11c0.85,0.83,1.58,1.76,2.14,2.76"/>
		<path style="fill:none;stroke:#231F20;stroke-width:3.1843;stroke-linecap:square;stroke-miterlimit:10;" d="M236,159
			c0,0.26-0.03,0.53-0.1,0.79c-0.74,3.32-5.91,6.77-9.34,6.77c-3.71,0-6.72-2.87-6.72-6.41c0-0.87-0.05-1.32,0.12-1.81"/>
		<path style="fill:none;stroke:#231F20;stroke-width:6.3686;stroke-linecap:square;stroke-miterlimit:10;" d="M296.19,162.84
			c-2.01-2.43-4.43-4.53-7.2-5.86c-2.06-0.99-4.31-1.56-6.72-1.5c-3.21,0.08-6.51,1.4-8.98,3.53c-1.13,0.97-2.09,2.1-2.8,3.35"/>
		<path style="fill:none;stroke:#231F20;stroke-width:3.1843;stroke-linecap:square;stroke-miterlimit:10;" d="M275.2,159.02
			c0.01,0.21,0.08,0.44,0.08,0.94c0,3.53,3.01,6.4,6.71,6.4c3.69,0,6.7-2.87,6.7-6.4c0-0.97,0.07-1.42-0.17-1.98"/>
		<path style="fill:none;stroke:#231F20;stroke-width:6.3686;" d="M193.85,149.87c-1.47-0.53-3.13-0.71-4.93-0.42
			c-6.86,1.1-5.94,8.8-4.05,12.65c4.59,9.36,2.48,12.8,3.07,19.94c0.22,2.72,3.32,7.99,9.78,6.75"/>
		<path style="fill:none;stroke:#231F20;stroke-width:6.3686;" d="M311.94,149.19c1.48-0.53,3.13-0.71,4.93-0.42
			c6.87,1.1,5.94,8.81,4.06,12.65c-4.59,9.36-2.49,12.8-3.07,19.94c-0.23,2.71-3.32,7.99-9.79,6.76"/>
		<path style="fill:none;stroke:#231F20;stroke-width:12.7372;" d="M311.16,148.04c0.01,0.25,0.01,0.5,0.02,0.74
			c0.16,5.87,0.22,9.24,0.22,14.1c0,8.62-1.36,17.09-3.67,25.14c-4.63,16.14-13.06,30.56-21.94,40.94
			c-4.81,5.63-9.75,10.07-14.29,12.97c-6.34,3.06-11.17,2.62-18.5,2.62c-6.78,0-11.13,0.68-17.08-1.96
			c-5.28-2.95-10.91-7.79-16.26-14.02c-8.8-10.24-16.84-24.25-21.33-39.95c-2.35-8.22-3.73-16.9-3.73-25.74c0-2.92,0-8.05,0.04-13
			c0.02-2.77,0.06-5.49,0.11-7.74"/>
		<path style="fill:none;stroke:#231F20;stroke-width:6.3686;" d="M255.55,202.36c3.22-0.58,2.63-2.48,6.07-1.65
			c2.96,0.71,6.1,2.19,6.83-2.44c0.52-3.18-1.88-3.6-3.15-6.16"/>
		<path style="fill:none;stroke:#231F20;stroke-width:6.3686;" d="M255.55,202.36c0.11,0.01,0.22,0.01,0.33,0.01l-0.57,0.03
			C255.39,202.39,255.47,202.37,255.55,202.36z"/>
		<path style="fill:none;stroke:#231F20;stroke-width:6.3686;" d="M245.57,162.68c5.3,5.83,3.7,19.51,1.32,26.63l-1,2.78
			c-1.27,2.55-3.66,2.96-3.15,6.15c0.74,4.62,3.88,3.15,6.83,2.44c3.41-0.83,2.64,1.54,5.98,1.68"/>
		<path style="fill:none;stroke:#231F20;stroke-width:3.1843;" d="M228.95,160.03c0,1.19-1.08,2.16-2.42,2.16
			c-1.33,0-2.42-0.97-2.42-2.16c0-1.2,1.09-2.16,2.42-2.16C227.87,157.87,228.95,158.83,228.95,160.03z"/>
		<path style="fill:none;stroke:#231F20;stroke-width:3.1843;" d="M284.37,160.01c0,1.19-1.08,2.16-2.42,2.16
			c-1.34,0-2.42-0.97-2.42-2.16c0-1.19,1.08-2.16,2.42-2.16C283.29,157.85,284.37,158.82,284.37,160.01z"/>
		<path style="fill:none;stroke:#231F20;stroke-width:6.3686;" d="M242.05,152c-2.86-6.03-14.06-8.38-19.73-7.25
			c-5.32,1.06-7.97,1.71-13.53,6.01"/>
		<path style="fill:none;stroke:#231F20;stroke-width:6.3686;" d="M265.26,150.68c2.86-6.03,14.06-8.38,19.72-7.25
			c5.33,1.07,7.98,1.71,13.53,6.02"/>
		<path style="fill:none;stroke:#231F20;stroke-width:12.7372;" d="M316.99,146.73c0.9-5.49,2.37-10.98,1.76-16.16
			c-3.77-31.91-23.51-57.55-49.25-60.55c-21.32-2.48-38.03,0.23-50.95,7.92c0,0-1.97,1-4.89,2.99c0,0-25.34,18.02-25.34,49.06
			l0.6,19.46c0.95-1.97,2.72-4.55,4.85-7.31c6.39-8.26,15.96-18.12,15.96-18.12c5.15-3.79,45.7-17.16,57.72-25.55
			c0.03-0.02,0.05-0.04,0.08-0.06c0,0,0.22,0.12,0.63,0.38c2.65,1.63,13.45,9.04,27.7,28.73c2.64,3.65,12.97,11.75,15.32,21.26
			c0.05,0.18,0.09,0.36,0.12,0.55c0.18,0.82,0.3,1.64,0.34,2.48"/>
		<path style="fill:none;stroke:#231F20;stroke-width:12.7372;" d="M272.22,99.31c-0.61,0.01-2.84-0.17-4.06-0.52
			c-0.32-0.1-0.58-0.21-0.71-0.32c-0.04-0.05-0.07-0.09-0.09-0.13c3.68-3.59,6.59-9.44,6.59-15.38"/>
		<path style="fill:none;stroke:#231F20;stroke-width:14;" d="M58.02,570.84c0,0,0.19-2.53,0.54-6.91
			c1.72-21.12,7.4-85.34,15.23-117.79c26.98-111.88,55.68-162.37,55.68-162.37c11.82-11.81,34.58-25.72,54.39-36.67
			c4.64-2.56,9.12-4.97,13.26-7.14c11.18-5.88,19.86-10.1,22.54-11.39c0.56-0.27,0.86-0.41,0.86-0.41"/>
		<path style="fill:none;stroke:#231F20;stroke-width:14;" d="M146.11,406.15L97.89,571.14l-1.08,3.7
			c3.35,6.22,10.29,33.04,10.29,50.99c0,6.25-0.84,11.42-2.97,14.27c-5.07,0.74-3.02-9.88-10.16-10.27
			c-3.41,7.479-2.38,29.32-11.37,31.65c-8.1,2.17-18.26-6.141-21.13-12.601c-4.88-11.01-8.4-47.36-3.45-78.04"/>
		<line style="fill:none;stroke:#231F20;stroke-width:14;" x1="62" y1="564" x2="94" y2="570"/>
		<path style="fill:none;stroke:#231F20;stroke-width:14;" d="M447.47,572.27c0,0-0.229-3.13-0.68-8.479
			c-1.86-22.57-7.46-84.53-15.09-116.22c-26.98-111.88-51.5-162.19-51.5-162.19c-16.43-16.44-54.1-37.26-75.54-48.42
			c-9.39-4.89-15.66-7.93-15.66-7.93"/>
		<path style="fill:none;stroke:#231F20;stroke-width:14;" d="M359.37,407.58l47.87,163.81l1.43,4.88
			c-3.34,6.211-10.29,33.04-10.29,50.98c0,6.26,0.85,11.43,2.98,14.28c5.07,0.739,3.02-9.88,10.16-10.271
			c3.41,7.49,2.38,29.32,11.37,31.65c8.1,2.17,18.25-6.141,21.129-12.601c4.881-11.01,8.391-47.359,3.45-78.04"/>
		<line style="fill:none;stroke:#231F20;stroke-width:19.1059;" x1="444" y1="564" x2="412" y2="570"/>
		<path style="fill:none;stroke:#231F20;stroke-width:14;" d="M303.07,240c-7.7,18.85-27.37,32.25-50.43,32.25
			c-23.03,0-42.68-13.36-50.4-32.17"/>
		<path style="fill:none;stroke:#231F20;stroke-width:7;" d="M503.75,424.1c-9.71-7.72-16-19.52-16.29-32.79
			c-0.01-0.32-0.01-0.63-0.01-0.95c0-23.24,19.14-42.22,42.25-43.12"/>
		<path style="fill:none;stroke:#231F20;stroke-width:7;" d="M534.58,347.57c18.33,2.33,34.31,16.1,38.4,33.9
			c0.27,1.17,0.489,2.37,0.649,3.58c0.24,1.74,0.36,3.51,0.36,5.31c0,14.07-6.74,26.57-17.2,34.45"/>
		<path style="fill:none;stroke:#231F20;stroke-width:7;" d="M516.87,355.94c3.36,0,4.21,2.95,4.83,4.5
			c0.52,1.33,1.56,2.27,2.8,2.88c0.97,0.48,2.07,0.74,3.14,0.82c3.37,0.24,6.75-1.05,8.341-4.08c0.47-0.89,0.859-1.81,1.439-2.61
			c0.22-0.31,0.48-0.61,0.78-0.87c1.12-0.97,1.12-0.97,3.819-1.66"/>
		<line style="fill:none;stroke:#231F20;stroke-width:7;" x1="516.87" y1="355.94" x2="516.6" y2="355.95"/>
		<line style="fill:none;stroke:#231F20;stroke-width:12.7372;" x1="529.7" y1="347.23" x2="529.28" y2="347.24"/>
		<path style="fill:none;stroke:#231F20;stroke-width:7;" d="M531.33,350.6c1.54-5.12,7.27-17.24,7.27-17.24l-4.109-2.05
			c-2,6.24-4.87,11.04-4.8,14.55c0.01,0.46,0.02,0.92,0.01,1.37c0.01,0.01,0,0.01,0,0.01c0.01,0.28,0.02,0.56,0.01,0.83
			c0.021,2.62-0.05,5.15-0.13,7.35c-0.17,4.2-0.43,7.19-0.43,7.19"/>
		<path style="fill:none;stroke:#231F20;stroke-width:7;" d="M530.73,361.1c0,0,0.3-2.55,0.789-5.75c0.48-3.21,1.171-7.08,1.94-9.66
			"/>
		<path style="fill:none;stroke:#231F20;stroke-width:6.3686;" d="M715.65,387.46c-0.73-4.46-2.07-7.07,0.409-11.04
			c1.391-2.21,2.431-4.06,4.521-5.67c0.87-0.67,1.89-1.15,2.88-1.66c0.98-0.49,1.94-0.99,2.75-1.68c0.61,1.96,0.98,4,1.1,6.06
			c0.08,1.15,0.07,2.3-0.02,3.45c-0.1,1.25-0.29,2.49-0.57,3.71c-0.16,0.66-0.35,1.31-0.56,1.96c-0.9,2.72-1.98,5.35-4.351,7.15
			c-1.329,1.02-3.04,1.4-4.399,2.32c-0.26,0.18-0.51,0.38-0.74,0.6"/>
		<path style="fill:none;stroke:#231F20;stroke-width:6.3686;" d="M726.72,380.63c2.061-0.78,3.851-1.42,6.15-1.41
			c2.17,0,4.34,0.91,6.5,0.78c-1.79,4.82-5.04,9.12-9.29,12c-0.58,0.39-1.55,0.7-2.74,0.96c-2.92,0.64-7.08,0.93-9.46,1.11
			c-0.64,0.04-1.149,0.08-1.47,0.12"/>
		<path style="fill:none;stroke:#231F20;stroke-width:6.3686;" d="M720.54,408.44c-0.71,0.17-1.44,0.26-2.21,0.25
			c-1.88-0.02-3.61-0.93-5.46-0.85c-0.13,0-0.26,0.01-0.39,0.02"/>
		<path style="fill:none;stroke:#231F20;stroke-width:6.3686;" d="M719.32,396.1c1.67-0.63,5.46-2.35,8.05-2.98
			c0.6-0.14,1.14-0.23,1.57-0.23c2.05,0,4.079,0.8,6.1,0.8c0.13,0,0.27,0,0.4-0.01v0.01c-1.79,4.82-5.03,9.1-9.29,11.98
			c-1.74,1.18-3.53,2.27-5.54,2.75"/>
		<path style="fill:none;stroke:#231F20;stroke-width:6.3686;" d="M723.6,369.89c-0.05-0.27-0.09-0.54-0.14-0.8
			c-0.75-3.98-1.79-6.52,0.55-10.26c1.38-2.2,2.431-4.07,4.521-5.67c1.38-1.05,3.1-1.64,4.569-2.57c0.37-0.22,0.73-0.47,1.061-0.76
			c0.49,1.58,0.83,3.22,1,4.87c0.09,0.81,0.14,1.63,0.14,2.44c0.03,1.99-0.18,3.97-0.63,5.9c-0.16,0.66-0.35,1.32-0.56,1.96
			c-0.9,2.73-1.98,5.37-4.36,7.16c-0.74,0.57-1.59,0.94-2.44,1.31c-0.96,0.43-1.92,0.86-2.689,1.61"/>
		<path style="fill:none;stroke:#231F20;stroke-width:6.3686;" d="M734.67,363.04c2.05-0.76,3.84-1.42,6.15-1.4
			c2.17,0,4.34,0.89,6.489,0.78c-1.79,4.81-5.029,9.11-9.29,11.99c-2.369,1.62-4.84,3.04-7.81,3.02c-1-0.01-1.96-0.27-2.92-0.51
			c-0.97-0.23-1.93-0.43-2.93-0.31"/>
		<path style="fill:none;stroke:#231F20;stroke-width:6.3686;" d="M732.97,350.38c-0.729-4.47-2.069-7.08,0.42-11.05
			c1.38-2.21,2.431-4.08,4.521-5.67c1.37-1.06,3.08-1.66,4.54-2.57c0.38-0.23,0.74-0.49,1.08-0.78c0.529,1.71,0.88,3.48,1.04,5.26
			c0.08,0.79,0.109,1.58,0.109,2.37c0,1.88-0.21,3.77-0.649,5.6c-0.15,0.66-0.34,1.31-0.55,1.95c-0.9,2.72-1.98,5.36-4.36,7.16
			c-1.19,0.92-2.68,1.31-3.96,2.05c-0.42,0.24-0.82,0.52-1.17,0.86"/>
		<path style="fill:none;stroke:#231F20;stroke-width:6.3686;" d="M744.04,343.54c2.06-0.77,3.85-1.43,6.15-1.42
			c2.18,0,4.35,0.91,6.5,0.78c-1.79,4.83-5.04,9.12-9.29,11.99c-2.37,1.62-4.841,3.05-7.82,3.03c-1.48-0.01-2.86-0.58-4.28-0.78
			c-0.52-0.08-1.04-0.1-1.569-0.04"/>
		<path style="fill:none;stroke:#231F20;stroke-width:6.3686;" d="M742.47,331.21c-0.01-0.04-0.01-0.08-0.02-0.12
			c-0.73-4.4-2.04-7,0.439-10.94c1.37-2.21,2.431-4.07,4.511-5.67c1.72-1.32,4-1.93,5.619-3.34c0.011,0.03,0.021,0.07,0.03,0.1
			c1.3,4.23,1.5,8.82,0.49,13.12c-0.15,0.66-0.34,1.31-0.55,1.95c-0.9,2.73-1.99,5.37-4.36,7.16c-1.229,0.94-2.77,1.33-4.06,2.1
			c-0.391,0.24-0.75,0.5-1.08,0.82"/>
		<path style="fill:none;stroke:#231F20;stroke-width:6.3686;" d="M753.54,324.36c1.45-0.55,2.77-1.03,4.24-1.26
			c0.6-0.1,1.239-0.16,1.91-0.16c0.96,0,2.18,0.27,3.439,0.55c1.61,0.36,3.271,0.76,4.48,0.69c-1.79,4.82-6.46,8.66-10.7,11.55
			c-2.391,1.61-4.86,3.03-7.83,3.02c-1.521-0.02-2.94-0.62-4.4-0.81c-0.479-0.06-0.96-0.08-1.449-0.02"/>
		<path style="fill:none;stroke:#231F20;stroke-width:6.3686;" d="M757.78,323.1c-0.25-4.52-0.021-11.32,2.89-15.01
			c1.6-2.04,2.84-3.78,5.09-5.15c1.851-1.13,4.181-1.5,5.95-2.72c0.3,1.52,0.46,3.06,0.47,4.61c0.061,3.59-0.649,7.2-2.13,10.47
			c-1.189,2.61-4.26,6.16-6.81,7.69"/>
		<path style="fill:none;stroke:#231F20;stroke-width:6.3686;" d="M710.37,411.96c0.18-0.77,1.24-2.36,2.5-4.12
			c1.93-2.71,4.34-5.83,4.77-6.96c0.851-2.26,0.7-4.54,0.24-6.81c-0.11-0.53-0.229-1.06-0.36-1.58
			c-0.039-0.14-0.069-0.29-0.109-0.43c-0.42-1.58-1.01-3.12-1.76-4.58c0.01-0.01,0.01-0.01,0-0.02c-1.5-2.98-3.62-5.66-6.15-7.84
			c-0.63,2.05-2.24,3.78-3,5.83c-0.37,0.99-0.57,1.93-0.68,2.87c-0.17,1.39-0.13,2.77-0.13,4.32c0.01,4.7,1.31,6.52,4.31,9.9
			C710,402.54,710.34,406.82,710.37,411.96c0.02,3.36-0.09,7.1-0.53,10.25c-0.14,1.01-0.26,2.05-0.359,3.11
			c-0.011,0.07-0.011,0.13-0.021,0.2"/>
		<path style="fill:none;stroke:#231F20;stroke-width:6.3686;" d="M721.16,408.26c-0.19,0.05-0.37,0.1-0.55,0.16
			c-0.021,0.01-0.051,0.02-0.07,0.02c-5.97,1.98-9.42,9.23-10.84,16.87c-0.23,1.23-0.4,2.48-0.53,3.709"/>
		<line style="fill:none;stroke:#231F20;stroke-width:6.3686;" x1="747.83" y1="363.29" x2="778.7" y2="331.87"/>
		<line style="fill:none;stroke:#231F20;stroke-width:6.3686;" x1="741.39" y1="378.55" x2="772.25" y2="347.12"/>
		<polyline style="fill:none;stroke:#231F20;stroke-width:6.3686;" points="736.57,393.7 739.25,390.97 767.43,362.28 		"/>
		<line style="fill:none;stroke:#231F20;stroke-width:6.3686;" x1="758.7" y1="342.94" x2="789.56" y2="311.52"/>
		<line style="fill:none;stroke:#231F20;stroke-width:6.3686;" x1="767.1" y1="320.41" x2="797.97" y2="288.99"/>
		<polyline style="fill:none;stroke:#231F20;stroke-width:6.3686;" points="771.38,305.65 772.18,304.83 802.25,274.23 		"/>
		<polyline style="fill:none;stroke:#231F20;stroke-width:6.3686;" points="752.25,312.06 753.05,311.24 783.11,280.64 		"/>
		<path style="fill:none;stroke:#231F20;stroke-width:12.7372;" d="M540.81,490.28c7.311,0.06,15.391,0.02,24.28-0.19
			c2.24-0.04,4.53-0.1,6.87-0.17h9.21h25.61"/>
		<path style="fill:none;stroke:#231F20;stroke-width:12.7372;" d="M481.53,485.49c0,0,0.38,0.1,1.189,0.279
			c3.57,0.78,15.5,3.011,39,4.03"/>
		<path style="fill:none;stroke:#231F20;stroke-width:12.7372;stroke-linecap:round;stroke-linejoin:round;" d="M614.82,425.58
			c0,0-0.261,0-0.75,0c-3.011,0-14.83,0-30.37-0.04c-8.181-0.01-17.4-0.03-26.91-0.06c-18.38-0.06-37.85-0.15-53.05-0.31
			c-14.49-0.14-25.11-0.34-27.23-0.61c-5.819-0.74-7.95-2.38-8.67-3.22c-0.28-0.32-0.359-0.53-0.359-0.53"/>
		<path style="fill:none;stroke:#231F20;stroke-width:12.7372;" d="M614.66,456.91c-5.34,0-21.67-0.01-41.37-0.061
			c-13.2-0.02-27.92-0.069-41.86-0.149c-27.85-0.141-52.6-0.38-55.92-0.8c-2.26-0.29-4.04-0.9-5.439-1.631
			c-3.57-1.869-4.61-4.5-4.61-4.5s-5.08-22.39,2.38-28.43c0.22-0.19,0.45-0.35,0.69-0.5c0.489-0.3,1.029-0.54,1.62-0.71"/>
		<path style="fill:none;stroke:#231F20;stroke-width:12.7372;" d="M469.81,454.87c0,0,2.141,5.3,5.54,13.46
			c2.061,4.95,4.58,10.939,7.37,17.439c2.96,6.921,6.23,14.41,9.55,21.801c2.65,5.91,5.351,11.75,7.95,17.199
			c3.44,7.181,6.721,13.671,9.58,18.681c2.851,5,5.271,8.54,6.98,9.83c5.06,3.81,8.609,5.12,13.83,5.489
			c5.489,0.41,12.819-0.22,25.689-0.039c5.351,0.069,11.15,0.109,16.98,0.13c21.52,0.069,43.3-0.13,43.3-0.13"/>
		<path style="fill:none;stroke:#231F20;stroke-width:12.7372;" d="M539.39,544.09v5.44c0,4.47-3.56,8.08-7.96,8.08h-0.33
			c-0.14,0-0.27,0-0.409-0.011c-4.2-0.22-7.54-3.739-7.54-8.069v-5.61v-17.68v-17.11V489.8v-17.35v-6.771
			c0-4.47,3.56-8.09,7.949-8.09h0.33c4.4,0,7.96,3.62,7.96,8.09v6.96v17.641v19.1v17.32V544.09z"/>
		<path style="fill:none;stroke:#231F20;stroke-width:12.7372;" d="M581.17,545.37v3.57c0,4.409-3.53,8-7.88,8h-0.32
			c-4.359,0-7.88-3.591-7.88-8v-5.271v-17.14v-17.5v-18.94v-17.87v-6.279c0-4.431,3.521-8.011,7.88-8.011h0.32
			c4.35,0,7.88,3.58,7.88,8.011v7.979v16v20.74v15.66V545.37z"/>
		<path style="fill:none;stroke:#231F20;stroke-width:12.7372;" d="M615.33,558.64c-4.33-0.09-7.82-3.68-7.82-8.109v-5.16v-19.05
			v-15.66v-20.74v-16v-7.53c0-4.489,3.58-8.12,7.98-8.12h0.34c4.41,0,7.979,3.631,7.979,8.12v7.53v16v20.74v15.66v19.05v5.16
			c0,4.479-3.569,8.109-7.979,8.109"/>
		<path style="fill:none;stroke:#231F20;stroke-width:12.7372;" d="M474.5,468.14c0,0,0.28,0.07,0.85,0.19
			c3.48,0.74,17.86,3.38,47.801,4.12c4.97,0.12,10.38,0.189,16.239,0.189c7.761,0,16.311-0.13,25.7-0.42c0.061,0,0.11,0,0.17,0"/>
		<polyline style="fill:none;stroke:#231F20;stroke-width:12.7372;" points="583.01,473.92 607.51,473.92 607.63,473.92 		"/>
		<path style="fill:none;stroke:#231F20;stroke-width:12.7372;" d="M492.88,507.29c7.3,0.75,17.25,1.479,30.271,1.84
			c4.96,0.14,10.369,0.23,16.239,0.25c7.74,0.021,16.29-0.08,25.7-0.35c0.72-0.021,1.45-0.04,2.18-0.061"/>
		<line style="fill:none;stroke:#231F20;stroke-width:12.7372;" x1="585.02" y1="510.66" x2="605.62" y2="510.66"/>
		<path style="fill:none;stroke:#231F20;stroke-width:12.7372;" d="M541.14,526.7c7.21,0.069,15.181,0.02,23.95-0.17
			c2.66-0.061,5.391-0.13,8.2-0.21c0,0,3.15,0,7.88,0c6.98,0,17.42,0,26.34,0c0.32,0,0.641,0,0.95,0"/>
		<path style="fill:none;stroke:#231F20;stroke-width:12.7372;" d="M498.91,524.64c0.43,0.04,0.859,0.091,1.31,0.13
			c5.721,0.561,12.94,1.101,21.84,1.471"/>
		<path style="fill:none;stroke:#231F20;stroke-width:12.7372;" d="M508.97,543.41c0.271,0.01,0.55,0.03,0.83,0.04
			c4.061,0.2,8.5,0.359,13.351,0.47c4.979,0.11,10.39,0.17,16.239,0.17c7.54-0.01,15.801-0.14,24.86-0.42"/>
		<polyline style="fill:none;stroke:#231F20;stroke-width:12.7372;" points="582,545.37 607.51,545.37 608.63,545.37 		"/>
		<path style="fill:none;stroke:#231F20;stroke-width:7;" d="M470.82,422.85c0,0-0.91-0.73-2.29-2.01
			c-6.23-5.71-22.13-22.39-8.431-32.69c8.83-6.64,18.511-4.57,27.2,3.16"/>
		<path style="fill:none;stroke:#231F20;stroke-width:12.7372;" d="M690.34,490.28c-7.31,0.06-15.39,0.02-24.28-0.19
			c-2.229-0.04-4.52-0.1-6.859-0.17h-9.21h-25.62"/>
		<path style="fill:none;stroke:#231F20;stroke-width:12.7372;" d="M749.62,485.49c0,0-0.21,0.06-0.63,0.149
			c-2.74,0.641-14.65,3.08-39.561,4.16"/>
		<path style="fill:none;stroke:#231F20;stroke-width:12.7372;stroke-linecap:round;stroke-linejoin:round;" d="M616.34,425.58
			c0,0,27.57,0,58.13-0.1c11.69-0.04,23.82-0.09,35.011-0.16c0.079-0.01,0.149-0.01,0.22-0.01c5.069-0.03,9.939-0.07,14.479-0.11
			c16.13-0.15,28.19-0.35,30.46-0.64c5.801-0.74,7.94-2.36,8.681-3.21c0.279-0.33,0.359-0.54,0.359-0.54"/>
		<path style="fill:none;stroke:#231F20;stroke-width:12.7372;" d="M614.66,456.91c0,0,0.399,0,1.17,0c0.2,0,0.42,0,0.67,0
			c5.36,0,21.84-0.01,41.69-0.05c13.22-0.04,27.93-0.08,41.85-0.15c27.729-0.15,52.29-0.39,55.61-0.81
			c1.75-0.23,3.22-0.65,4.449-1.17c4.36-1.851,5.591-4.961,5.591-4.961s5.079-22.369-2.37-28.419c-0.221-0.19-0.45-0.36-0.7-0.51
			c-0.49-0.3-1.03-0.54-1.62-0.71"/>
		<path style="fill:none;stroke:#231F20;stroke-width:12.7372;" d="M761.34,454.87c0,0-0.01,0.02-0.03,0.07
			c-0.239,0.63-2.229,5.739-5.26,13.34c-1.979,4.92-4.39,10.89-7.06,17.359c-2.75,6.681-5.771,13.891-8.87,21.04
			c-2.66,6.17-5.38,12.28-8,17.971c-3.21,6.92-6.29,13.189-9,18.14c-2.94,5.35-5.46,9.14-7.24,10.49
			c-5.54,4.17-9.27,5.34-15.36,5.58c-5.319,0.21-12.449-0.29-24.159-0.13c-5.681,0.069-11.92,0.109-18.17,0.119
			c-18.311,0.04-36.73-0.14-41.61-0.199c-0.3,0-0.55,0-0.75-0.011c-0.33,0-0.5,0-0.5,0"/>
		<path style="fill:none;stroke:#231F20;stroke-width:12.7372;" d="M691.76,544.08v5.45c0,4.46,3.57,8.08,7.96,8.08h0.33
			c0.141,0,0.271,0,0.41-0.011c4.21-0.22,7.55-3.75,7.55-8.069v-5.61v-17.68v-17.11V489.8v-17.35v-6.78c0-4.46-3.56-8.08-7.96-8.08
			h-0.33c-4.39,0-7.96,3.62-7.96,8.08v6.97v17.641v19.09v17.33V544.08z"/>
		<path style="fill:none;stroke:#231F20;stroke-width:12.7372;" d="M649.99,545.37v3.57c0,4.409,3.52,8,7.87,8h0.33
			c4.35,0,7.869-3.591,7.869-8v-5.271v-17.14v-17.5v-18.94v-17.87v-6.279c0-4.431-3.52-8.011-7.869-8.011h-0.33
			c-4.351,0-7.87,3.58-7.87,8.011v7.979v16v20.74v15.66V545.37z"/>
		<path style="fill:none;stroke:#231F20;stroke-width:12.7372;" d="M756.66,468.14c0,0-0.2,0.051-0.61,0.141
			c-3,0.649-17.34,3.41-48.04,4.17c-4.979,0.12-10.39,0.189-16.25,0.189c-7.76,0-16.31-0.13-25.7-0.42c-0.05,0-0.109,0-0.159,0"/>
		<polyline style="fill:none;stroke:#231F20;stroke-width:12.7372;" points="648.15,473.92 623.81,473.92 623.53,473.92 
			607.63,473.92 		"/>
		<path style="fill:none;stroke:#231F20;stroke-width:12.7372;" d="M738.27,507.29c-7.3,0.75-17.25,1.47-30.26,1.84
			c-4.96,0.14-10.37,0.23-16.25,0.24c-7.74,0.03-16.29-0.07-25.7-0.34c-0.72-0.021-1.439-0.04-2.17-0.061"/>
		<polyline style="fill:none;stroke:#231F20;stroke-width:12.7372;" points="646.14,510.66 625.54,510.66 623.81,510.66 
			607.51,510.66 605.62,510.66 		"/>
		<path style="fill:none;stroke:#231F20;stroke-width:12.7372;" d="M690.02,526.7c-7.22,0.069-15.189,0.02-23.96-0.17
			c-2.659-0.061-5.39-0.13-8.199-0.21c0,0-3.141,0-7.87,0c-6.94,0-17.29,0-26.181,0c-0.369,0-0.739,0-1.109,0"/>
		<path style="fill:none;stroke:#231F20;stroke-width:12.7372;" d="M732.24,524.64c-0.04,0-0.08,0.011-0.12,0.011
			c-5.88,0.609-13.49,1.189-23.021,1.59"/>
		<path style="fill:none;stroke:#231F20;stroke-width:12.7372;" d="M722.18,543.41c-4.279,0.21-9,0.38-14.17,0.51
			c-4.99,0.11-10.39,0.17-16.25,0.16c-7.54-0.01-15.8-0.13-24.859-0.41"/>
		<polyline style="fill:none;stroke:#231F20;stroke-width:12.7372;" points="649.15,545.37 623.81,545.37 622.52,545.37 
			608.63,545.37 		"/>
		<path style="fill:none;stroke:#231F20;stroke-width:7;" d="M760.33,422.85c0,0,0.91-0.73,2.29-2.01
			c6.229-5.71,22.14-22.39,8.43-32.69c-9.569-7.19-20.12-4.16-29.35,5.22c-6.91,7.03-13.08,17.63-17.53,30.17"/>
		<path style="fill:none;stroke:#231F20;stroke-width:7;" d="M598.01,394.99c-7.81-1.36-12.52,1.11-15.22,4.96
			c-4.38,6.24-3.45,16.1-1.82,19.05c0.771,1.41,1.69,3.21,2.73,5.06"/>
		<path style="fill:none;stroke:#231F20;stroke-width:7;" d="M695.67,354.51c-5.229,2.86-9.64,6.37-10.46,12.1
			c-0.09,0.59-0.13,1.21-0.14,1.85c-0.03,2.57-0.271,5.33-0.011,7.88c0.341,3.29,1.851,6.25,2.181,9.56
			c0.67,6.93-0.98,12.65-4.29,18.63c-0.59,1.06-1.22,2.13-1.8,3.23c-0.891,1.7-1.631,3.48-1.82,5.4c-0.1,1.1-0.17,5.09,0.439,4.93"
			/>
		<path style="fill:none;stroke:#231F20;stroke-width:7;" d="M674.47,424.88c0.471-2.5,3.11-4.75,5.511-5.78
			c2.64-1.15,5.279-1.37,7.85-2.87c7.08-4.13,11.3-9.4,14.24-16.92c1.42-3.64,2.33-7.35,2.71-11.1c0.569-5.5-0.03-11.06-1.91-16.54
			c-1.17-3.38-2.86-6.56-3.97-9.95c-0.521-1.58-2.551-3.83-2.601-5.09c-0.04-0.77-0.18-1.49-0.42-2.16c-1.649-4.71-7.79-7-11.82-8
			c-5.84-1.47-19.239-15.65-23.319-19.72c-5.3-5.3-12.44-7.34-20.62-5.94c-8.3,1.44-15.48,0.27-20.76,7.6
			c-3.95,5.47-5.931,11.21-12.28,14.34c-6.521,3.21-11.03,4.15-17.811,7.78c-6.909,3.68-18.42,14.17-16.289,30.94
			c0.149,1.16,0.359,2.36,0.649,3.58c0.13,0.59,0.29,1.19,0.46,1.8c0.97,3.39,6.41,8.41,8.7,13.1"/>
		<path style="fill:none;stroke:#231F20;stroke-width:7;" d="M681.04,407.71c-3.73-5.87-12.35-6.23-18.75-4.01
			c-1.03,0.35-2,0.77-2.88,1.25c-4.08,2.21-7.521,5.64-11.7,7.64c-4.1,1.95-8.95,1.36-13.31,0.67c-4.891-0.77-9.15-1.86-13.75-3.85
			c-0.98-0.43-1.96-0.85-2.94-1.24c-2.75-1.1-5.54-1.99-8.56-2.17c-0.631-0.04-1.24-0.03-1.82,0.03c-0.49,0.03-0.97,0.1-1.42,0.19
			c-4.49,0.96-6.63,4.69-3.92,9.75c1.649,3.08,7.85,6.02,12.08,8.91"/>
		<path style="fill:none;stroke:#231F20;stroke-width:7;" d="M662.39,403.9c-0.029-0.07-0.06-0.13-0.1-0.2
			c-0.98-1.85-3.39-3.31-4.94-4.64c-2.149-1.84-4.38-3.58-6.189-5.76c-4.09-4.95-5.96-10.69-5.46-17.16
			c0.399-5.18,2.06-10.56,6.54-13.62c4.14-2.84,12.66-3.4,17.05-0.5"/>
		<path style="fill:none;stroke:#231F20;stroke-width:7;" d="M617.89,407.71c3.66-0.93,7.511-8.42,8.94-11.5
			c2.27-4.82,1.93-9.11,2.87-14.13c0.89-4.73,4.79-8.5,8.05-11.83c4.89-5.01,10.8-9.83,11.47-17.09v-0.01"/>
		<path style="fill:none;stroke:#231F20;stroke-width:7;" d="M607.29,405.59c4.57-4.58,6.47-12.45,8-18.61
			c2.2-8.83,4.57-17.61,6.67-26.49c0.45-1.86,1.73-4.02,2.14-5.96c0.091-0.37,0.131-0.73,0.141-1.08c0-0.14,0-0.28-0.021-0.42
			c-0.18-1.79-1.66-3.81-2.739-5.1c-0.74-0.89-11.74,1.49-13.851,2.25c-8.16,2.97-12.8,17.57-14.24,25.26
			c-1.77,9.39,2.73,13.4,4.62,19.55c1.65,5.35,4,7.77,7.9,11.23l0.01,0.01"/>
		<path style="fill:none;stroke:#231F20;stroke-width:7;" d="M624.67,353.03c-0.06-3.78-1.91-7.17-0.22-10.85
			c2.1-4.56,7.83-7.51,12.609-7.51c9.21,0,20.9,12.03,24.431,14.29c6.04,3.84,9.66-4.53,21.97,7.77c2.021,2.03,1.63,5.89,1.04,9.77
			c-0.49,3.29-1.13,6.59-0.57,8.81c-5.35-2.19-7.529-6.01-11.37-10.21c-1.029-1.13-2.119-2.16-3.27-3.08
			c-4.58-3.73-10.07-6-15.83-7.5c-1.93-0.5-3.24-0.95-4.24-1.36c-3.029-1.23-3.279-2.1-9.29-2.89c-1.939-0.25-10.58,0.03-15.83,4.26
			"/>
		<polyline style="fill:none;stroke:#231F20;stroke-width:21;" points="492.64,781.75 492.64,569.12 773.72,569.12 		"/>
	</g>
</g>
<rect style="fill:none;" width="850.394" height="850.394"/>
</svg>
