<?xml version="1.0" encoding="iso-8859-1"?>
<!-- Generator: Adobe Illustrator 12.0.1, SVG Export Plug-In . SVG Version: 6.00 Build 51448)  -->
<!DOCTYPE svg PUBLIC "-//W3C//DTD SVG 1.1//EN" "http://www.w3.org/Graphics/SVG/1.1/DTD/svg11.dtd" [
	<!ENTITY ns_svg "http://www.w3.org/2000/svg">
	<!ENTITY ns_xlink "http://www.w3.org/1999/xlink">
]>
<svg  version="1.1" id="Layer_1" xmlns="&ns_svg;" xmlns:xlink="&ns_xlink;" width="850.393" height="850.394"
	 viewBox="0 0 850.393 850.394" style="overflow:visible;enable-background:new 0 0 850.393 850.394;" xml:space="preserve">
<g id="XMLID_29_">
	<g>
		<path style="fill:#0B00EA;" d="M632,482.5c-6.72,25.6-147.45,68.48-183.48,73.84c-79.439,11.83-113.879,9.79-169,3.54
			c-35.68-4.04-87.64-16.76-85.43-60.47c0.33-6.63,0.53-13.42,0.73-20.29c0.23-8.13,0.46-16.36,0.9-24.53l1.35,0.08
			c8.69-8.689,24.35,0.92,31.44,3.22c43.01,13.98,99.44,24.73,200.46,3.23c8.65,25.729,19.48,50.399,32.5,56.53
			c18.271,8.6,95.66-25.79,118.23-48.36c3.26-3.26,6.189-5.12,8.92-5.97c11.62-3.601,19.8,11.12,35.14,15.64
			c3.181,0.94,5.971,1.75,8.53,2.46L632,482.5z"/>
		<path style="fill:#A3D9FF;" d="M623.759,478.96c-15.34-4.52-23.52-19.24-35.14-15.64l-0.18-0.66c0.689-0.18,1.38-0.38,2.069-0.61
			l19.38-23.87c0-2.06-0.319-4.12-1-6.14l-6.33-18.99c-3.29-9.83-13.92-15.5-25.489-14.47c14.51-4.47,34.56-15.69,50.47-21.51
			c3.45-1.26,6.7-2.27,9.66-2.9c32.78-6.99,34.93,15.58,34.93,34.93c0,19.34-1.07,24.72-1.07,24.72s40.971,52.12,13.431,52.12
			c-30.24,0-37.37-0.45-52.2-4.521C629.73,480.71,626.94,479.9,623.759,478.96z"/>
		<path style="fill:#FFEEC8;" d="M448.519,556.34C484.549,550.98,625.28,508.1,632,482.5l0.29-1.08
			c14.83,4.07,21.96,4.521,52.2,4.521c27.54,0-13.431-52.12-13.431-52.12s47.561,8.859,82.221,43.529
			c34.66,34.66,37.08,61.261,11.279,87.051c-25.79,25.8-150.29,136.229-351.45,164.449c-178.15,24.99-261.91-13.64-304.71-56.43
			c0,0-52.63-52.96-27.4-106.4c20.95-44.42,56.92-69.409,85.44-80.609c23.59-9.271,27.68-7.26,28.38-6.29
			c-0.2,6.87-0.4,13.66-0.73,20.29c-2.21,43.71,49.75,56.43,85.43,60.47C334.64,566.13,369.08,568.17,448.519,556.34z"/>
		<path style="fill:#0B00EA;" d="M275.83,419.63c45.59,8.271,94.89,11.53,139.67-1.63l0.61-0.15c0.96,3.96,2.13,8.209,3.45,12.74
			c2.78,9.58,5.92,20.141,9.41,30.53c-101.02,21.5-157.45,10.75-200.46-3.23c-7.09-2.3-22.75-11.909-31.44-3.22l-1.35-0.08
			c0.6-11.13,1.61-22.149,3.56-32.65c1.76-9.5,3.77-13.22,9.05-14.18c2.78-0.51,6.49-0.25,11.55,0.32
			C238.58,410.2,257.109,416.24,275.83,419.63z"/>
		<path style="fill:#FFEEC8;" d="M415.5,418c-44.78,13.16-94.08,9.9-139.67,1.63c-18.72-3.39-37.25-9.43-55.95-11.55
			c-5.06-0.57-8.77-0.83-11.55-0.32l-0.15-0.81c0-24.24,0-36.18,0-36.18c10.48-88.9,100.48-158.35,209.96-158.35
			c68.53,0,129.43,27.21,167.97,69.37c0,0,33.409,23,40.93,93.94l0.5,1.34c-15.91,5.82-35.96,17.04-50.47,21.51
			c-2.391,0.21-4.82,0.71-7.24,1.52c-0.26,0.09-0.521,0.18-0.78,0.27c-0.78,0.09-1.53,0.13-2.25,0.13
			c-16.12,0-85.979-21.5-122.53-21.5c-31.569,0-34.26,13.65-28.16,38.85L415.5,418z"/>
		<path style="fill:#A3D9FF;" d="M428.969,461.12c-3.49-10.39-6.63-20.95-9.41-30.53c-1.32-4.53-2.49-8.78-3.45-12.74
			c-6.1-25.2-3.41-38.85,28.16-38.85c36.551,0,106.41,21.5,122.53,21.5c0.72,0,1.47-0.04,2.25-0.13
			c-11.27,4.08-18.59,13.78-18.59,23.6c0,2.06,0.32,4.129,1,6.15l6.33,18.99c3.78,11.279,17.21,17.08,30.65,13.55l0.18,0.66
			c-2.73,0.85-5.66,2.71-8.92,5.97c-22.57,22.57-99.96,56.96-118.23,48.36C448.45,511.52,437.62,486.85,428.969,461.12z"/>
		<path style="fill:#A3D9FF;" d="M608.889,432.04c0.681,2.02,1,4.08,1,6.14l-19.38,23.87c-0.689,0.23-1.38,0.431-2.069,0.61
			c-13.44,3.53-26.87-2.271-30.65-13.55l-6.33-18.99c-0.68-2.021-1-4.09-1-6.15c0-9.82,7.32-19.52,18.59-23.6
			c2.4-0.25,5.09-0.88,8.021-1.79c11.569-1.03,22.199,4.64,25.489,14.47L608.889,432.04z"/>
	</g>
	<g>
		<path style="fill:none;stroke:#000000;stroke-width:19.3462;" d="M627.04,375.73c-7.521-70.94-40.93-93.94-40.93-93.94
			c-38.54-42.16-99.44-69.37-167.97-69.37c-109.48,0-199.48,69.45-209.96,158.35c0,0,0,11.94,0,36.18"/>
		<path style="fill:none;stroke:#000000;stroke-width:19.3462;" d="M671.059,433.82c0,0,40.971,52.12,13.431,52.12
			c-30.24,0-37.37-0.45-52.2-4.521c-2.56-0.71-5.35-1.52-8.53-2.46c-15.34-4.52-23.52-19.24-35.14-15.64
			c-2.73,0.85-5.66,2.71-8.92,5.97c-22.57,22.57-99.96,56.96-118.23,48.36c-13.02-6.131-23.85-30.801-32.5-56.53
			c-3.49-10.39-6.63-20.95-9.41-30.53c-1.32-4.53-2.49-8.78-3.45-12.74c-6.1-25.2-3.41-38.85,28.16-38.85
			c36.551,0,106.41,21.5,122.53,21.5c0.72,0,1.47-0.04,2.25-0.13c2.4-0.25,5.09-0.88,8.021-1.79c14.51-4.47,34.56-15.69,50.47-21.51
			c3.45-1.26,6.7-2.27,9.66-2.9c32.78-6.99,34.93,15.58,34.93,34.93C672.129,428.44,671.059,433.82,671.059,433.82z"/>
		<path style="fill:none;stroke:#000000;stroke-width:19.3462;" d="M569.049,400.37c-11.27,4.08-18.59,13.78-18.59,23.6
			c0,2.06,0.32,4.129,1,6.15l6.33,18.99c3.78,11.279,17.21,17.08,30.65,13.55c0.689-0.18,1.38-0.38,2.069-0.61l19.38-23.87
			c0-2.06-0.319-4.12-1-6.14l-6.33-18.99c-3.29-9.83-13.92-15.5-25.489-14.47c-2.391,0.21-4.82,0.71-7.24,1.52
			C569.57,400.19,569.309,400.28,569.049,400.37z"/>
		<path style="fill:none;stroke:#000000;stroke-width:19.3462;stroke-linecap:round;stroke-linejoin:round;" d="M547.45,431.67
			c-14.59,3.35-25.22,0.88-38.69,7.61c-6.76,3.38-17.52,13.14-22.569,18.18"/>
		<path style="fill:none;stroke:#000000;stroke-width:19.3462;stroke-linecap:round;stroke-linejoin:round;" d="M651.769,431.45
			c-13.17-3.79-26.77-5.65-39.829-1.931"/>
		<path style="fill:none;stroke:#000000;stroke-width:19.3462;stroke-linecap:round;stroke-linejoin:round;" d="M415.5,418
			c-44.78,13.16-94.08,9.9-139.67,1.63c-18.72-3.39-37.25-9.43-55.95-11.55c-5.06-0.57-8.77-0.83-11.55-0.32
			c-5.28,0.96-7.29,4.68-9.05,14.18c-1.95,10.5-2.96,21.52-3.56,32.65c-0.44,8.17-0.67,16.4-0.9,24.53
			c-0.2,6.87-0.4,13.66-0.73,20.29c-2.21,43.71,49.75,56.43,85.43,60.47c55.12,6.25,89.56,8.29,169-3.54
			C484.549,550.98,625.28,508.1,632,482.5"/>
		<path style="fill:none;stroke:#000000;stroke-width:19.3462;stroke-linecap:round;stroke-linejoin:round;" d="M447.5,507.98
			c-101.03,21.5-176.27,10.75-219.28-3.23c-7.09-2.3-25.32-11.91-30.88-3.22"/>
		<path style="fill:none;stroke:#000000;stroke-width:19.3462;stroke-linecap:round;stroke-linejoin:round;" d="M428.99,461.12
			c-0.01,0-0.01,0-0.021,0c-101.02,21.5-157.45,10.75-200.46-3.23c-7.09-2.3-22.75-11.909-31.44-3.22"/>
		<path style="fill:none;stroke:#000000;stroke-width:19.3462;stroke-linecap:round;stroke-linejoin:round;" d="M671.059,433.82
			c0,0,47.561,8.859,82.221,43.529c34.66,34.66,37.08,61.261,11.279,87.051c-25.79,25.8-150.29,136.229-351.45,164.449
			c-178.15,24.99-261.91-13.64-304.71-56.43c0,0-52.63-52.96-27.4-106.4c20.95-44.42,56.92-69.409,85.44-80.609
			c23.59-9.271,27.68-7.26,28.38-6.29c0.15,0.2,0.15,0.36,0.15,0.36"/>
	</g>
</g>
<rect style="fill:none;" width="850.393" height="850.394"/>
</svg>
