<?xml version="1.0" encoding="iso-8859-1"?>
<!-- Generator: Adobe Illustrator 12.0.1, SVG Export Plug-In . SVG Version: 6.00 Build 51448)  -->
<!DOCTYPE svg PUBLIC "-//W3C//DTD SVG 1.1//EN" "http://www.w3.org/Graphics/SVG/1.1/DTD/svg11.dtd" [
	<!ENTITY ns_svg "http://www.w3.org/2000/svg">
	<!ENTITY ns_xlink "http://www.w3.org/1999/xlink">
]>
<svg  version="1.1" id="Layer_1" xmlns="&ns_svg;" xmlns:xlink="&ns_xlink;" width="850.394" height="850.394"
	 viewBox="0 0 850.394 850.394" style="overflow:visible;enable-background:new 0 0 850.394 850.394;" xml:space="preserve">
<g id="XMLID_1_">
	<g>
		<path style="fill:#FFEEC8;" d="M747.88,76.79c5.57,0,10.08,5.48,10.08,12.23c0,6.76-4.51,12.24-10.08,12.24
			s-10.09-5.48-10.09-12.24C737.79,82.27,742.31,76.79,747.88,76.79z"/>
		<path style="fill:#FFEEC8;" d="M681.8,76.79c5.561,0,10.08,5.48,10.08,12.23c0,6.76-4.52,12.24-10.08,12.24
			c-5.58,0-10.09-5.48-10.09-12.24C671.71,82.27,676.22,76.79,681.8,76.79z"/>
		<path style="fill:#0071BC;" d="M767.03,117.79c0,5.95,0,8.46,0,9.51l-0.32-0.55h-4.47v-15.79c0-3.8-3.08-7.04-7.41-8.27l0.11-0.36
			C754.94,102.33,767.03,102.61,767.03,117.79z"/>
		<path style="fill:#0071BC;" d="M762.24,110.96v15.79h-28.26v-15.79c0-3.76,3.02-6.97,7.279-8.23c0.01,0,0.01,0,0.01,0
			c1.25-0.38,2.601-0.58,4.021-0.58h5.64c1.37,0,2.681,0.19,3.9,0.54C759.16,103.92,762.24,107.16,762.24,110.96z"/>
		<path style="fill:#0071BC;" d="M733.98,110.96v15.79h-3.761l-1.029,1.72c0-0.1,0-1.06,0-10.28c0-14.91,11.67-15.45,12.069-15.46
			C737,103.99,733.98,107.2,733.98,110.96z"/>
		<path style="fill:#0071BC;" d="M696.16,110.96c0-3.8-3.08-7.04-7.41-8.27l0.11-0.36c0,0,12.09,0.28,12.09,15.46
			c0,5.99,0,8.49,0,9.53l-0.33-0.57h-4.46V110.96z"/>
		<path style="fill:#0071BC;" d="M667.9,110.96v15.79h-3.761l-1.029,1.72c0-0.1,0-1.06,0-10.28c0-14.91,11.67-15.45,12.069-15.46
			C670.93,103.99,667.9,107.2,667.9,110.96z"/>
		<path style="fill:#0071BC;" d="M696.16,110.96v15.79H667.9v-15.79c0-3.76,3.029-6.97,7.279-8.23c0.011,0,0.011,0,0.011,0
			c1.25-0.38,2.609-0.58,4.02-0.58h5.65c1.37,0,2.68,0.19,3.89,0.54C693.08,103.92,696.16,107.16,696.16,110.96z"/>
		<path style="fill:#9C5C25;" d="M767.03,127.3l7.14,12.32h-4.89h-40.23h-6.54l6.681-11.14c0,0,0,0,0-0.01l1.029-1.72h3.761h28.26
			h4.47L767.03,127.3z"/>
		<polygon style="fill:#9C5C25;" points="769.28,139.72 769.28,169.65 729.05,169.65 729.05,139.72 729.05,139.62 769.28,139.62 		
			"/>
		<path style="fill:#9C5C25;" d="M667.9,126.75h28.26h4.46l0.33,0.57l7.13,12.3h-4.87h-40.24h-6.54l6.681-11.14c0,0,0,0,0-0.01
			l1.029-1.72H667.9z"/>
		<polygon style="fill:#9C5C25;" points="703.21,139.72 703.21,169.65 662.97,169.65 662.97,139.72 662.97,139.62 703.21,139.62 		
			"/>
		<rect x="705.2" y="274.96" style="fill:#FFFFFF;" width="14.12" height="39.2"/>
		<rect x="690.67" y="274.96" style="fill:#FFFFFF;" width="14.53" height="39.2"/>
		<polygon style="fill:#FFFFFF;" points="719.32,262.09 719.32,274.96 705.2,274.96 705.2,262.87 705.2,262.09 		"/>
		<polygon style="fill:#FFFFFF;" points="705.2,262.87 705.2,274.96 690.67,274.96 690.67,262.09 705.2,262.09 		"/>
		<rect x="661.49" y="274.96" style="fill:#FFFFFF;" width="14.12" height="39.2"/>
		<rect x="646.96" y="274.96" style="fill:#FFFFFF;" width="14.53" height="39.2"/>
		<polygon style="fill:#FFFFFF;" points="675.61,262.09 675.61,274.96 661.49,274.96 661.49,262.87 661.49,262.09 		"/>
		<polygon style="fill:#FFFFFF;" points="661.49,262.87 661.49,274.96 646.96,274.96 646.96,262.09 661.49,262.09 		"/>
		<polygon style="fill:#FFFFFF;" points="567.67,262.09 567.67,274.96 553.54,274.96 553.54,262.87 553.54,262.09 		"/>
		<polygon style="fill:#FFFFFF;" points="553.54,262.87 553.54,274.96 539.02,274.96 539.02,262.09 553.54,262.09 		"/>
		<rect x="553.54" y="274.96" style="fill:#FFFFFF;" width="14.13" height="39.2"/>
		<rect x="539.02" y="274.96" style="fill:#FFFFFF;" width="14.521" height="39.2"/>
		<rect x="495.3" y="274.96" style="fill:#FFFFFF;" width="14.521" height="39.2"/>
		<rect x="509.82" y="274.96" style="fill:#FFFFFF;" width="14.13" height="39.2"/>
		<polygon style="fill:#FFFFFF;" points="523.95,262.09 523.95,274.96 509.82,274.96 509.82,262.87 509.82,262.09 		"/>
		<polygon style="fill:#FFFFFF;" points="509.82,262.87 509.82,274.96 495.3,274.96 495.3,262.09 509.82,262.09 		"/>
		<polygon style="fill:#ED1E29;" points="607.95,339.98 607.95,340.94 581.38,340.94 581.38,277.28 607.95,277.28 607.95,278.87 		
			"/>
		<polygon style="fill:#ED1E29;" points="634.51,277.28 634.51,340.94 607.95,340.94 607.95,339.98 607.95,278.87 607.95,277.28 		
			"/>
		<path style="fill:#FFEEC8;" d="M732.54,341.73H483.35V240.54h0.511h69.38v-17.97l36.6-30.16l0.351-0.29l1.109-0.92l16.48-13.57
			l16.8,13.57l1.14,0.92l37.59,30.37v17.97h69.23V341.73z M581.38,340.94h26.57h26.56v-63.66h-26.56h-26.57V340.94z M719.32,314.16
			v-39.2v-12.87H705.2h-14.53v12.87v39.2h14.53H719.32z M675.61,314.16v-39.2v-12.87h-14.12h-14.53v12.87v39.2h14.53H675.61z
			 M567.67,314.16v-39.2v-12.87h-14.13H539.02v12.87v39.2h14.521H567.67z M523.95,314.16v-39.2v-12.87h-14.13H495.3v12.87v39.2
			h14.521H523.95z"/>
		<polygon style="fill:#797878;" points="589.44,191.21 590.19,192.12 589.84,192.41 553.24,222.57 553.24,240.54 483.86,240.54 
			483.35,240.54 483.35,191.21 		"/>
		<polygon style="fill:#797878;" points="732.54,191.21 732.54,240.46 663.31,240.46 663.31,222.49 625.72,192.12 626.45,191.21 		
			"/>
		<path style="fill:#797878;" d="M297.64,626.37v3.91l-10.61,157.76l-90.93,0.67c-1.18-18.17-1.29-128.61-2.1-158.71v-3.63H297.64z"
			/>
		<path style="fill:#797878;" d="M416.46,626.37v4.689C415.8,656,414.99,758.3,414.05,784H414h-92h-0.06l-9.97-153.63v-4H416.46z"/>
		<path style="fill:#CB82B7;" d="M250.54,246.19l-1.47-0.61c10.55-5.53,18.75-9.52,21.55-10.87c1.56,1.45,3.23,2.83,4.93,4.19
			l-0.34,0.43L300.73,368l-44.05-57.58l12.27-28.19L230,295.84L250.54,246.19z"/>
		<path style="fill:#CB82B7;" d="M359.48,245.61l20.48,49.5L341,281.49l12.27,28.2l-39.09,51.08l-4.96,6.49l24.74-124.73
			c2.37-2.16,4.51-4.67,6.59-7.27C342.24,236.15,349.59,240.01,359.48,245.61z"/>
		<path style="fill:#CB82B7;" d="M304.87,370.32v6.37l10.41-15.08l-1.1-0.84l39.09-51.08L341,281.49l38.96,13.62l-20.48-49.5
			c4.42,2.5,9.36,5.34,14.52,8.42c18.38,10.95,39.72,24.87,51.54,36.69c0,0,46.47,93.66,60.51,150.43
			c9.67,39.149,33.53,121.199,33.53,121.199L486,574l-4.73-0.48c0.171-0.64,0.33-1.189,0.5-1.64l-73.08-159.94l20.1,214.17
			l-2.73,0.26h-9.6H311.97h-14.33H194h-10.98l-3.83-0.13c2.52-71.75,18.25-215.17,18.25-215.17L124.37,571L92,556l-3.87-0.07
			c5.51-19.06,23.77-82.64,31.95-115.66c14.05-56.76,60.49-150.419,60.49-150.419c11.83-11.83,34.6-25.73,54.41-36.69
			c4.96-2.74,9.72-5.29,14.09-7.58l1.47,0.61L230,295.84l38.95-13.61l-12.27,28.19L300.73,368h1.4v1.64h2.74V370.32z"/>
		<path style="fill:#EF947D;" d="M317.06,211.77c-2.67,4.36-5.47,8.96-10.22,11.06c-6.44,2.84-13.34,2.28-18.63-2.1
			c-1.96-1.62-5.02-3.55-6.41-5.38c5.22,1.53,12.98,0.65,18.22,0.24C305.3,215.17,309.61,215.13,317.06,211.77z"/>
		<path style="fill:#EF947D;" d="M298.35,211.11c2.12-5.27,16.7-1.92,20.58-2.31c-0.63,0.95-1.25,1.96-1.87,2.97
			c-7.45,3.36-11.76,3.4-17.04,3.82c-5.24,0.41-13,1.29-18.22-0.24c-1.35-1.77-1.14-3.46,3.12-4.69c2.65-0.77,5.83-1.37,8.55-0.73
			C294.93,210.26,297.05,211.64,298.35,211.11z"/>
		<path style="fill:#FFFFFF;" d="M326.23,159.62c0-1.98-1.82-3.58-4.06-3.58c-2.25,0-4.07,1.6-4.07,3.58c0,1.97,1.82,3.57,4.07,3.57
			C324.41,163.19,326.23,161.59,326.23,159.62z M328.77,159.37c0,3.52-2.98,6.37-6.66,6.37c-3.69,0-6.67-2.85-6.67-6.37
			c0-0.97-0.27-0.88,0.15-1.7l-0.34-0.54c2.15-1.34,4.67-2.15,7.14-2.2c2.14-0.05,4.15,0.39,6.02,1.18l-0.23,0.59
			C328.9,157.72,328.77,158.06,328.77,159.37z"/>
		<path style="fill:#FFFFFF;" d="M265.18,167.61c-3.68,0-6.67-2.85-6.67-6.37c0-1.32-0.13-1.66,0.59-2.67l-0.23-0.58
			c1.86-0.8,3.88-1.25,6.02-1.2c2.47,0.06,5,0.86,7.15,2.21l-0.34,0.54c0.41,0.82,0.14,0.72,0.14,1.7
			C271.84,164.76,268.86,167.61,265.18,167.61z M265.11,157.91c-2.24,0-4.06,1.6-4.06,3.57c0,1.98,1.82,3.58,4.06,3.58
			c2.25,0,4.06-1.6,4.06-3.58C269.17,159.51,267.36,157.91,265.11,157.91z"/>
		<path style="fill:#FFFFFF;" d="M258.51,161.24c0,3.52,2.99,6.37,6.67,6.37c3.68,0,6.66-2.85,6.66-6.37c0-0.98,0.27-0.88-0.14-1.7
			l0.34-0.54c1.9,1.17,3.51,2.76,4.56,4.62c0.63,1.14,1.48,1.92,0.37,2.61c-0.95,0.59-2.1,0.17-3.12,0.65
			c-0.68,0.32-1.3,1.1-2.04,1.44c-0.87,0.4-2.03,0.63-2.97,0.83c-2.22,0.46-5.13,0.32-7.26-0.43c-3.5-1.26-6.53-3.42-9.16-5.85
			l-0.14-0.13c1.9-2.01,4.11-3.7,6.59-4.75l0.23,0.58C258.38,159.58,258.51,159.92,258.51,161.24z"/>
		<path style="fill:#FFFFFF;" d="M322.11,165.74c3.68,0,6.66-2.85,6.66-6.37c0-1.31,0.13-1.65-0.59-2.67l0.23-0.59
			c2.48,1.06,4.7,2.75,6.6,4.76l-0.15,0.13c-2.63,2.43-5.66,4.6-9.16,5.85c-2.12,0.75-5.04,0.88-7.26,0.43
			c-0.94-0.19-2.1-0.42-2.97-0.83c-0.73-0.34-1.35-1.12-2.04-1.44c-1.02-0.47-2.16-0.05-3.11-0.65c-1.12-0.68-0.27-1.47,0.36-2.6
			c1.05-1.86,2.67-3.46,4.57-4.63l0.34,0.54c-0.42,0.82-0.15,0.73-0.15,1.7C315.44,162.89,318.42,165.74,322.11,165.74z"/>
		<path style="fill:#FFEEC8;" d="M306.84,369.64v-4.18h-4.71V368h-1.4l-25.52-128.67l0.34-0.43c3.22,2.54,6.53,4.95,9.5,7.46
			c9.79,8.27,24.12,4.12,35.5,2.73c5.46-0.67,9.71-3.18,13.41-6.56l-24.74,124.73l4.96-6.49l1.1,0.84l-10.41,15.08v-6.37v-0.68
			H306.84z"/>
		<path style="fill:#FFEEC8;" d="M335.01,160.87c-1.9-2.01-4.12-3.7-6.6-4.76c-1.87-0.79-3.88-1.23-6.02-1.18
			c-2.47,0.05-4.99,0.86-7.14,2.2c-1.9,1.17-3.52,2.77-4.57,4.63c-0.63,1.13-1.48,1.92-0.36,2.6c0.95,0.6,2.09,0.18,3.11,0.65
			c0.69,0.32,1.31,1.1,2.04,1.44c0.87,0.41,2.03,0.64,2.97,0.83c2.22,0.45,5.14,0.32,7.26-0.43c3.5-1.25,6.53-3.42,9.16-5.85
			L335.01,160.87z M252.28,162.74l0.14,0.13c2.63,2.43,5.66,4.59,9.16,5.85c2.13,0.75,5.04,0.89,7.26,0.43
			c0.94-0.2,2.1-0.43,2.97-0.83c0.74-0.34,1.36-1.12,2.04-1.44c1.02-0.48,2.17-0.06,3.12-0.65c1.11-0.69,0.26-1.47-0.37-2.61
			c-1.05-1.86-2.66-3.45-4.56-4.62c-2.15-1.35-4.68-2.15-7.15-2.21c-2.14-0.05-4.16,0.4-6.02,1.2
			C256.39,159.04,254.18,160.73,252.28,162.74z M270.62,234.71c-1.56-1.44-3.01-2.96-4.29-4.57c-1.71-2.15-7.17-8.59-11.81-16.61
			c-3.92-6.76-7.25-14.65-7.25-22.02c0-14.68-3.24-18.18-3.49-27.93c-0.11-4.92,0.96-9.95,3-14.54c2.28-5.14,5.77-9.71,10.16-12.94
			c6.41-4.71,41.3-21.35,56.22-31.81c0.22,0.47,0.58,0.78,1.08,0.93c5.44,5.77,32.59,34.55,47.28,49.23
			c13.69,13.7,4.36,47.3,4.08,49.37c-0.43,3.07-1.72,5.76-3.49,8.23c-2.67,3.7-6.44,6.86-10.01,9.95
			c-4.31,3.74-7.84,8.65-11.55,13.26c-2.08,2.6-4.22,5.11-6.59,7.27c-3.7,3.38-7.95,5.89-13.41,6.56
			c-11.38,1.39-25.71,5.54-35.5-2.73c-2.97-2.51-6.28-4.92-9.5-7.46C273.85,237.54,272.18,236.16,270.62,234.71z M318.93,208.8
			c-3.88,0.39-18.46-2.96-20.58,2.31c-1.3,0.53-3.42-0.85-4.88-1.18c-2.72-0.64-5.9-0.04-8.55,0.73c-4.26,1.23-4.47,2.92-3.12,4.69
			c1.39,1.83,4.45,3.76,6.41,5.38c5.29,4.38,12.19,4.94,18.63,2.1c4.75-2.1,7.55-6.7,10.22-11.06
			C317.68,210.76,318.3,209.75,318.93,208.8z"/>
		<path style="fill:#FFEEC8;" d="M124.37,571c1.76,4.84,3.85,20.81,3.85,35.99c0,12.89-1.5,25.21-5.98,29.68
			c-5.14,0-1.58-10.22-8.59-11.64c-4.45,6.93-6.57,28.689-15.81,29.71c-8.33,0.99-17.19-8.71-19.1-15.521
			c-3.26-11.59-1.51-48.1,7.79-77.76c0,0,0.58-2,1.6-5.53L92,556L124.37,571z"/>
		<path style="fill:#FFEEC8;" d="M519.58,562.35c9.3,29.641,11.06,66.16,7.8,77.73c-1.899,6.84-10.75,16.51-19.1,15.52
			c-9.24-1-11.37-22.77-15.83-29.71c-6.99,1.46-3.4,11.641-8.57,11.641c-4.47-4.45-5.97-16.75-5.97-29.62
			c0-13.771,1.72-28.21,3.359-34.391L486,574L519.58,562.35z"/>
		<path style="fill:#9C5C25;" d="M313.16,104.29c-14.92,10.46-49.81,27.1-56.22,31.81c-4.39,3.23-7.88,7.8-10.16,12.94
			c-2.04,4.59-3.11,9.62-3,14.54c0.25,9.75,3.49,13.25,3.49,27.93c0,7.37,3.33,15.26,7.25,22.02l-27.83,14.65
			c5.09-10.17,3.32-22.75,3.32-22.75c-0.2-19.33-2.56-40.42-2.89-44.99c-1.36-18.95,5.68-47.74,15.9-64.38
			c17.2-28.03,45.23-40.1,88.41-35.07c32.07,3.74,61.38,38.83,61.38,83.29c0,15.58-6.91,32.8,0.87,48.33l-31.57,19.44
			c1.77-2.47,3.06-5.16,3.49-8.23c0.28-2.07,9.61-35.67-4.08-49.37c-14.69-14.68-41.84-43.46-47.28-49.23
			c-0.61-0.66-0.95-1.02-0.95-1.02C313.25,104.23,313.2,104.26,313.16,104.29z"/>
		<path style="fill:#231F20;" d="M322.17,158.03c0.81,0,1.46,0.71,1.46,1.59c0,0.87-0.65,1.59-1.46,1.59c-0.8,0-1.46-0.72-1.46-1.59
			C320.71,158.74,321.37,158.03,322.17,158.03z"/>
		<path style="fill:#231F20;" d="M323.63,159.62c0-0.88-0.65-1.59-1.46-1.59c-0.8,0-1.46,0.71-1.46,1.59c0,0.87,0.66,1.59,1.46,1.59
			C322.98,161.21,323.63,160.49,323.63,159.62z M322.17,156.04c2.24,0,4.06,1.6,4.06,3.58c0,1.97-1.82,3.57-4.06,3.57
			c-2.25,0-4.07-1.6-4.07-3.57C318.1,157.64,319.92,156.04,322.17,156.04z"/>
		<path style="fill:#231F20;" d="M265.11,163.07c-0.8,0-1.45-0.71-1.45-1.59c0-0.87,0.65-1.58,1.45-1.58c0.8,0,1.46,0.71,1.46,1.58
			C266.57,162.36,265.91,163.07,265.11,163.07z"/>
		<path style="fill:#231F20;" d="M265.11,159.9c-0.8,0-1.45,0.71-1.45,1.58c0,0.88,0.65,1.59,1.45,1.59c0.8,0,1.46-0.71,1.46-1.59
			C266.57,160.61,265.91,159.9,265.11,159.9z M261.05,161.48c0-1.97,1.82-3.57,4.06-3.57c2.25,0,4.06,1.6,4.06,3.57
			c0,1.98-1.81,3.58-4.06,3.58C262.87,165.06,261.05,163.46,261.05,161.48z"/>
	</g>
	<g>
		<path style="fill:none;stroke:#231F20;stroke-width:14;" d="M86.53,561.46c0,0,0.58-2,1.6-5.53
			c5.51-19.06,23.77-82.64,31.95-115.66c14.05-56.76,60.49-150.419,60.49-150.419c11.83-11.83,34.6-25.73,54.41-36.69
			c4.96-2.74,9.72-5.29,14.09-7.58c10.55-5.53,18.75-9.52,21.55-10.87c0.68-0.33,1.04-0.5,1.04-0.5"/>
		<path style="fill:none;stroke:#231F20;stroke-width:14;" d="M178.95,634.24c0.06-2.55,0.13-5.221,0.24-8
			c2.52-71.75,18.25-215.17,18.25-215.17L124.37,571c1.76,4.84,3.85,20.81,3.85,35.99c0,12.89-1.5,25.21-5.98,29.68
			c-5.14,0-1.58-10.22-8.59-11.64c-4.45,6.93-6.57,28.689-15.81,29.71c-8.33,0.99-17.19-8.71-19.1-15.521
			c-3.26-11.59-1.51-48.1,7.79-77.76"/>
		<path style="fill:none;stroke:#231F20;stroke-width:14;" d="M196.1,788.71c-1.18-18.17-1.29-128.61-2.1-158.71"/>
		<path style="fill:none;stroke:#231F20;stroke-width:14;" d="M519.58,562.35c0,0-23.86-82.05-33.53-121.199
			c-14.04-56.771-60.51-150.43-60.51-150.43c-11.82-11.82-33.16-25.74-51.54-36.69c-5.16-3.08-10.1-5.92-14.52-8.42
			c-9.89-5.6-17.24-9.46-18.93-10.35c-0.24-0.12-0.37-0.19-0.37-0.19"/>
		<path style="fill:none;stroke:#231F20;stroke-width:14;" d="M429.77,636.53l-0.979-10.42l-20.1-214.17l73.08,159.94
			c-0.17,0.45-0.329,1-0.5,1.64c-1.64,6.181-3.359,20.62-3.359,34.391c0,12.87,1.5,25.17,5.97,29.62c5.17,0,1.58-10.181,8.57-11.641
			c4.46,6.94,6.59,28.71,15.83,29.71c8.35,0.99,17.2-8.68,19.1-15.52c3.26-11.57,1.5-48.09-7.8-77.73"/>
		<path style="fill:none;stroke:#231F20;stroke-width:14;" d="M413.86,788.04c0.06-0.98,0.13-2.35,0.19-4.04
			c0.94-25.7,1.75-128,2.41-152.94"/>
		<line style="fill:none;stroke:#231F20;stroke-width:14;" x1="297.64" y1="630.28" x2="287.03" y2="788.04"/>
		<polyline style="fill:none;stroke:#231F20;stroke-width:14;" points="322.2,788.04 321.94,784 311.97,630.37 		"/>
		<polyline style="fill:none;stroke:#231F20;stroke-width:14;" points="183.02,626.37 194,626.37 297.64,626.37 311.97,626.37 
			416.46,626.37 426.06,626.37 		"/>
		<line style="fill:none;stroke:#231F20;stroke-width:14;" x1="92" y1="556" x2="124.37" y2="571"/>
		<line style="fill:none;stroke:#231F20;stroke-width:14;" x1="519.58" y1="562.35" x2="486" y2="574"/>
		<polyline style="fill:none;stroke:#231F20;stroke-width:14;" points="275.21,239.33 300.73,368 256.68,310.42 268.95,282.23 
			230,295.84 250.54,246.19 250.7,245.8 		"/>
		<polyline style="fill:none;stroke:#231F20;stroke-width:14;" points="334.74,238.59 333.96,242.53 309.22,367.26 314.18,360.77 
			353.27,309.69 341,281.49 379.96,295.11 359.48,245.61 359.25,245.06 		"/>
		<polyline style="fill:none;stroke:#231F20;stroke-width:9.5574;" points="293.87,361.44 304.87,376.69 315.28,361.61 		"/>
		<polygon style="fill:none;stroke:#231F20;stroke-width:9.5574;" points="302.13,368 302.13,365.46 306.84,365.46 306.84,369.64 
			304.87,369.64 302.13,369.64 		"/>
		<polyline style="fill:none;stroke:#231F20;stroke-width:14;" points="304.87,370.32 304.87,376.69 304.87,619.99 		"/>
		<polyline style="fill:none;stroke:#231F20;stroke-width:14;" points="626.45,191.21 732.54,191.21 732.54,240.46 732.54,341.73 
			483.35,341.73 483.35,240.54 483.35,191.21 589.44,191.21 		"/>
		<polygon style="fill:none;stroke:#231F20;stroke-width:7;" points="607.95,277.28 634.51,277.28 634.51,340.94 607.95,340.94 
			581.38,340.94 581.38,277.28 		"/>
		<polygon style="fill:none;stroke:#231F20;stroke-width:7;" points="523.95,274.96 523.95,314.16 509.82,314.16 495.3,314.16 
			495.3,274.96 495.3,262.09 509.82,262.09 523.95,262.09 		"/>
		<polyline style="fill:none;stroke:#231F20;stroke-width:7;" points="495.3,274.96 509.82,274.96 523.95,274.96 		"/>
		<polyline style="fill:none;stroke:#231F20;stroke-width:7;" points="509.82,262.87 509.82,274.96 509.82,314.16 		"/>
		<polygon style="fill:none;stroke:#231F20;stroke-width:7;" points="567.67,274.96 567.67,314.16 553.54,314.16 539.02,314.16 
			539.02,274.96 539.02,262.09 553.54,262.09 567.67,262.09 		"/>
		<polyline style="fill:none;stroke:#231F20;stroke-width:7;" points="539.02,274.96 553.54,274.96 567.67,274.96 		"/>
		<polyline style="fill:none;stroke:#231F20;stroke-width:7;" points="553.54,262.87 553.54,274.96 553.54,314.16 		"/>
		<polygon style="fill:none;stroke:#231F20;stroke-width:7;" points="675.61,274.96 675.61,314.16 661.49,314.16 646.96,314.16 
			646.96,274.96 646.96,262.09 661.49,262.09 675.61,262.09 		"/>
		<polyline style="fill:none;stroke:#231F20;stroke-width:7;" points="646.96,274.96 661.49,274.96 675.61,274.96 		"/>
		<polyline style="fill:none;stroke:#231F20;stroke-width:7;" points="661.49,262.87 661.49,274.96 661.49,314.16 		"/>
		<polygon style="fill:none;stroke:#231F20;stroke-width:7;" points="719.32,274.96 719.32,314.16 705.2,314.16 690.67,314.16 
			690.67,274.96 690.67,262.09 705.2,262.09 719.32,262.09 		"/>
		<polyline style="fill:none;stroke:#231F20;stroke-width:7;" points="690.67,274.96 705.2,274.96 719.32,274.96 		"/>
		<polyline style="fill:none;stroke:#231F20;stroke-width:7;" points="705.2,262.87 705.2,274.96 705.2,314.16 		"/>
		<polyline style="fill:none;stroke:#231F20;stroke-width:14;" points="589.84,192.41 553.24,222.57 553.24,240.54 483.86,240.54 		
			"/>
		<polyline style="fill:none;stroke:#231F20;stroke-width:12.7432;" points="591.3,191.2 590.19,192.12 589.84,192.41 		"/>
		<polyline style="fill:none;stroke:#231F20;stroke-width:14;" points="624.58,191.2 607.78,177.63 591.3,191.2 		"/>
		<polyline style="fill:none;stroke:#231F20;stroke-width:14;" points="732.68,240.46 732.54,240.46 663.31,240.46 663.31,222.49 
			625.72,192.12 624.58,191.2 		"/>
		<line style="fill:none;stroke:#231F20;stroke-width:7;" x1="607.95" y1="278.87" x2="607.95" y2="339.98"/>
		<path style="fill:none;stroke:#231F20;stroke-width:7;" d="M691.88,89.02c0,6.76-4.52,12.24-10.08,12.24
			c-5.58,0-10.09-5.48-10.09-12.24c0-6.75,4.51-12.23,10.09-12.23C687.36,76.79,691.88,82.27,691.88,89.02z"/>
		<path style="fill:none;stroke:#231F20;stroke-width:7;" d="M675.18,102.73c-4.25,1.26-7.279,4.47-7.279,8.23v15.79"/>
		<path style="fill:none;stroke:#231F20;stroke-width:7;" d="M696.16,126.75v-15.79c0-3.8-3.08-7.04-7.41-8.27
			c-1.21-0.35-2.52-0.54-3.89-0.54h-5.65c-1.41,0-2.77,0.2-4.02,0.58"/>
		<polyline style="fill:none;stroke:#231F20;stroke-width:7;" points="663.11,128.47 664.14,126.75 667.9,126.75 696.16,126.75 
			700.62,126.75 700.95,127.32 708.08,139.62 703.21,139.62 662.97,139.62 656.43,139.62 663.11,128.48 		"/>
		<polyline style="fill:none;stroke:#231F20;stroke-width:7;" points="662.97,139.72 662.97,169.65 703.21,169.65 703.21,139.72 		
			"/>
		<path style="fill:none;stroke:#231F20;stroke-width:7;" d="M675.19,102.73c0,0,0,0-0.011,0c-0.399,0.01-12.069,0.55-12.069,15.46
			c0,9.22,0,10.18,0,10.28c0,0.01,0,0.01,0,0.01"/>
		<path style="fill:none;stroke:#231F20;stroke-width:7;" d="M688.86,102.33c0,0,12.09,0.28,12.09,15.46c0,5.99,0,8.49,0,9.53
			c0,0.75,0,0.75,0,0.75"/>
		<path style="fill:none;stroke:#231F20;stroke-width:7;" d="M757.96,89.02c0,6.76-4.51,12.24-10.08,12.24s-10.09-5.48-10.09-12.24
			c0-6.75,4.52-12.23,10.09-12.23S757.96,82.27,757.96,89.02z"/>
		<path style="fill:none;stroke:#231F20;stroke-width:7;" d="M741.26,102.73c-4.26,1.26-7.279,4.47-7.279,8.23v15.79"/>
		<path style="fill:none;stroke:#231F20;stroke-width:7;" d="M762.24,126.75v-15.79c0-3.8-3.08-7.04-7.41-8.27
			c-1.22-0.35-2.53-0.54-3.9-0.54h-5.64c-1.42,0-2.771,0.2-4.021,0.58"/>
		<polyline style="fill:none;stroke:#231F20;stroke-width:7;" points="729.19,128.47 730.22,126.75 733.98,126.75 762.24,126.75 
			766.71,126.75 767.03,127.3 774.17,139.62 769.28,139.62 729.05,139.62 722.51,139.62 729.19,128.48 		"/>
		<polyline style="fill:none;stroke:#231F20;stroke-width:7;" points="729.05,139.72 729.05,169.65 769.28,169.65 769.28,139.72 		
			"/>
		<path style="fill:none;stroke:#231F20;stroke-width:7;" d="M741.27,102.73c0,0,0,0-0.01,0c-0.399,0.01-12.069,0.55-12.069,15.46
			c0,9.22,0,10.18,0,10.28c0,0.01,0,0.01,0,0.01"/>
		<path style="fill:none;stroke:#231F20;stroke-width:7;" d="M754.94,102.33c0,0,12.09,0.28,12.09,15.46c0,5.95,0,8.46,0,9.51
			c0,0.77,0,0.77,0,0.77"/>
		<path style="fill:none;stroke:#231F20;stroke-width:7;" d="M304.84,151.16c5.64-9.39,19.34-10.89,27.18-7.82
			c4.21,1.64,6.78,3.58,7.88,4.69"/>
		<path style="fill:none;stroke:#231F20;stroke-width:7;" d="M275.26,147.69c-7.47-6.66-22.04-5.63-28.48,1.35
			c-0.35,0.36-0.66,0.73-0.95,1.12"/>
		<path style="fill:none;stroke:#231F20;stroke-width:7;" d="M284.57,153.2c8.18,6.12,3.85,26.85,1.79,33.03
			c-0.66,1.97-3.47,5.47-1.5,7.52c0.97,0.98,2.2,0.45,3.4,0.63c1.25,0.2,2,0.32,3.43,0.86c2.77,1.03,4.79,1.65,7.28-0.17
			c2.7-1.95,2.5-3.33,6.49-3.14c3.36,0.15,7.07,1.1,6.9-4.07c-0.12-3.55-2.79-3.51-4.7-6.02"/>
		<path style="fill:none;stroke:#231F20;stroke-width:4;" d="M298.12,212.02c0.04-0.33,0.12-0.63,0.23-0.91
			c2.12-5.27,16.7-1.92,20.58-2.31c-0.63,0.95-1.25,1.96-1.87,2.97c-2.67,4.36-5.47,8.96-10.22,11.06
			c-6.44,2.84-13.34,2.28-18.63-2.1c-1.96-1.62-5.02-3.55-6.41-5.38c-1.35-1.77-1.14-3.46,3.12-4.69c2.65-0.77,5.83-1.37,8.55-0.73
			c1.46,0.33,3.58,1.71,4.88,1.18c0.22-0.09,0.41-0.23,0.58-0.44"/>
		<path style="fill:none;stroke:#231F20;stroke-width:4;" d="M281.8,215.35c5.22,1.53,12.98,0.65,18.22,0.24
			c5.28-0.42,9.59-0.46,17.04-3.82"/>
		<path style="fill:none;stroke:#231F20;stroke-width:14;" d="M314.24,105.22c5.44,5.77,32.59,34.55,47.28,49.23
			c13.69,13.7,4.36,47.3,4.08,49.37c-0.43,3.07-1.72,5.76-3.49,8.23c-2.67,3.7-6.44,6.86-10.01,9.95
			c-4.31,3.74-7.84,8.65-11.55,13.26c-2.08,2.6-4.22,5.11-6.59,7.27c-3.7,3.38-7.95,5.89-13.41,6.56
			c-11.38,1.39-25.71,5.54-35.5-2.73c-2.97-2.51-6.28-4.92-9.5-7.46c-1.7-1.36-3.37-2.74-4.93-4.19c-1.56-1.44-3.01-2.96-4.29-4.57
			c-1.71-2.15-7.17-8.59-11.81-16.61c-3.92-6.76-7.25-14.65-7.25-22.02c0-14.68-3.24-18.18-3.49-27.93c-0.11-4.92,0.96-9.95,3-14.54
			c2.28-5.14,5.77-9.71,10.16-12.94c6.41-4.71,41.3-21.35,56.22-31.81c0.04-0.03,0.09-0.06,0.13-0.09
			C313.29,104.2,313.63,104.56,314.24,105.22z"/>
		<path style="fill:none;stroke:#231F20;stroke-width:14;" d="M254.53,213.53h-0.01l-27.83,14.65c5.09-10.17,3.32-22.75,3.32-22.75
			c-0.2-19.33-2.56-40.42-2.89-44.99c-1.36-18.95,5.68-47.74,15.9-64.38c17.2-28.03,45.23-40.1,88.41-35.07
			c32.07,3.74,61.38,38.83,61.38,83.29c0,15.58-6.91,32.8,0.87,48.33l-31.57,19.44l-0.06,0.04"/>
		<path style="fill:none;stroke:#231F20;stroke-width:3.4824;stroke-linecap:square;stroke-miterlimit:10;" d="M251.06,164.11
			c0.39-0.47,0.79-0.93,1.22-1.37c1.9-2.01,4.11-3.7,6.59-4.75c1.86-0.8,3.88-1.25,6.02-1.2c2.47,0.06,5,0.86,7.15,2.21
			c1.9,1.17,3.51,2.76,4.56,4.62c0.63,1.14,1.48,1.92,0.37,2.61c-0.95,0.59-2.1,0.17-3.12,0.65c-0.68,0.32-1.3,1.1-2.04,1.44
			c-0.87,0.4-2.03,0.63-2.97,0.83c-2.22,0.46-5.13,0.32-7.26-0.43c-3.5-1.26-6.53-3.42-9.16-5.85"/>
		<path style="fill:none;stroke:#231F20;stroke-width:3.4824;stroke-linecap:square;stroke-miterlimit:10;" d="M271.7,159.54
			c0.41,0.82,0.14,0.72,0.14,1.7c0,3.52-2.98,6.37-6.66,6.37c-3.68,0-6.67-2.85-6.67-6.37c0-1.32-0.13-1.66,0.59-2.67"/>
		<path style="fill:none;stroke:#231F20;stroke-width:3.4824;stroke-linecap:square;stroke-miterlimit:10;" d="M336.22,162.24
			c-0.39-0.47-0.79-0.93-1.21-1.37c-1.9-2.01-4.12-3.7-6.6-4.76c-1.87-0.79-3.88-1.23-6.02-1.18c-2.47,0.05-4.99,0.86-7.14,2.2
			c-1.9,1.17-3.52,2.77-4.57,4.63c-0.63,1.13-1.48,1.92-0.36,2.6c0.95,0.6,2.09,0.18,3.11,0.65c0.69,0.32,1.31,1.1,2.04,1.44
			c0.87,0.41,2.03,0.64,2.97,0.83c2.22,0.45,5.14,0.32,7.26-0.43c3.5-1.25,6.53-3.42,9.16-5.85"/>
		<path style="fill:none;stroke:#231F20;stroke-width:3.4824;stroke-linecap:square;stroke-miterlimit:10;" d="M315.59,157.67
			c-0.42,0.82-0.15,0.73-0.15,1.7c0,3.52,2.98,6.37,6.67,6.37c3.68,0,6.66-2.85,6.66-6.37c0-1.31,0.13-1.65-0.59-2.67"/>
		<path style="fill:none;stroke:#231F20;stroke-width:14;" d="M315.04,105.32c-0.3,0-0.56-0.03-0.8-0.1
			c-0.5-0.15-0.86-0.46-1.08-0.93c-0.03-0.06-0.06-0.12-0.08-0.18c4.59-4.47,6.84-11.55,8.22-17.58"/>
	</g>
</g>
<rect style="fill:none;" width="850.394" height="850.394"/>
</svg>
