<?xml version="1.0" encoding="iso-8859-1"?>
<!-- Generator: Adobe Illustrator 12.0.1, SVG Export Plug-In . SVG Version: 6.00 Build 51448)  -->
<!DOCTYPE svg PUBLIC "-//W3C//DTD SVG 1.1//EN" "http://www.w3.org/Graphics/SVG/1.1/DTD/svg11.dtd" [
	<!ENTITY ns_svg "http://www.w3.org/2000/svg">
	<!ENTITY ns_xlink "http://www.w3.org/1999/xlink">
]>
<svg  version="1.1" id="Layer_1" xmlns="&ns_svg;" xmlns:xlink="&ns_xlink;" width="850.394" height="850.394"
	 viewBox="0 0 850.394 850.394" style="overflow:visible;enable-background:new 0 0 850.394 850.394;" xml:space="preserve">
<g id="XMLID_11_">
	<g>
		<path style="fill:#F6CC4B;" d="M719.2,448.15c5.41,0,9.8,5.029,9.8,11.229c0,6.21-4.39,11.24-9.8,11.24
			c-5.4,0-9.79-5.03-9.79-11.24C709.41,453.18,713.8,448.15,719.2,448.15z"/>
		<path style="fill:#797878;" d="M526.23,488.48c8.31,7.659,19.27,11.26,27.39,12.93l-0.32,1.47c0,0-0.569,3.45-7.479,12.67
			c-6.92,9.22-1.73,19,5.18,31.681c6.91,12.68,17.85,20.289,17.28,29.38c-1.15,18.439-49.54,19.59-55.88,2.88
			c-5.12-13.49-17.53-55.36-20.221-64.48c9.24-10.979,16.221-23.609,11.58-36.899l0.431-1.761
			C512.99,478.59,520.39,483.1,526.23,488.48z"/>
		<path style="fill:#797878;" d="M492.18,515.01c-7.979,9.49-17.64,17.75-22.979,24.16c-11.521,13.83,1.59,24.75-1.15,46.66
			c-1.149,9.22-1.74,9.78-29.96,5.18c-28.22-4.6-25.34-13.24-23.04-33.979c2.31-20.74,4.03-43.79,4.03-43.79l-0.85-1.32
			c11.47-7.33,22.08-15.729,34.84-24.02c20.05-13.011,37.31-15.07,51.12-11.551l-0.431,1.761
			C508.4,491.4,501.42,504.03,492.18,515.01z"/>
		<path style="fill:#797878;" d="M133.68,572.58c-2.5,0.03-22.29,0.21-31.27-1.72c-9.59-2.051-21.02-14.891-21.81-47.65
			c-0.28-11.77,1.06-52.29,5.04-74.41l0.08-0.04c5.67,12.48,11.42,21.271,14.81,24.16c11.52,9.8,5.19,33.41,10.95,52.42
			C115.76,539.45,125.75,559.6,133.68,572.58z"/>
		<path style="fill:#797878;" d="M726.31,569.12c-1.68-3-2.949-6.311-3.68-9.851l-2.27,0.061l-10.37,4.61l4.029,9.79l9.79-2.881
			L726.31,569.12z M746.28,480.99c3.88,5.529,33.26,37.1,33.02,51.84h-0.189c-5.63,0.51-13.25-2.88-16.58,10.5
			c-2.53,10.189,5.06,13.7,13.13,11.39l2.49,0.08c-2.87,11.26-10.591,24.32-30.141,31.03c0,0-0.029,0.02-0.09,0.05
			c-1.479,0.811-21.74,11.36-49.46-6.39c-28.79-18.431-31.67-31.681-52.99-44.351c-19.66-11.699-51.6,0.641-59.58-30.87
			c-4.33,4.03-12.35,4.25-21.35-2.979l-0.06,1.57c-1.2-0.051-5.391-0.311-10.86-1.45c-8.12-1.67-19.08-5.271-27.39-12.93
			c-5.841-5.381-13.24-9.891-22.04-12.131c-13.811-3.52-31.07-1.46-51.12,11.551c-12.761,8.29-23.37,16.689-34.84,24.02
			c-18.02,11.51-38.19,20.39-72.3,22.061c-58.76,2.88-119.24-3.45-145.17-31.681c-23.46-25.54-36.86-36.859-36.86-36.859l-6.34-5.2
			c4.24,4.359,18.59,20.819,16.13,41.49c-2.88,24.189-2.31,32.26,8.06,46.659c10.37,14.4,26.82,23.761,22.47,32.83
			c-6.91,14.4-55.88,10.37-63.36,1.73c-1.93-2.23-4.43-5.87-7.18-10.37c-7.93-12.98-17.92-33.13-22.2-47.24
			c-5.76-19.01,0.57-42.62-10.95-52.42c-3.39-2.89-9.14-11.68-14.81-24.16c-13.56-29.83-26.64-80.71-5.93-122.15
			c29.38-58.76,93.32-57.03,133.65-61.64c40.32-4.61,198.16,2.3,219.47-1.15c21.31-3.46,79.49-6.34,127.3,19.01
			c47.82,25.34,108.87,69.7,125,92.17c16.14,22.46,44.94,59.9,48.39,75.46C736.82,464.91,742.24,475.22,746.28,480.99z M729,459.38
			c0-6.2-4.39-11.229-9.8-11.229c-5.4,0-9.79,5.029-9.79,11.229c0,6.21,4.39,11.24,9.79,11.24C724.61,470.62,729,465.59,729,459.38z
			 M678.89,425.68l10.33-12.17c-0.43-3.17-2.029-5.32-4.279-8.1c-4.69-5.77-9.19-10.58-16.86-9.14
			C651.41,399.4,665.69,426.24,678.89,425.68z"/>
		<path style="fill:#EF947D;" d="M689.22,413.51l-10.33,12.17c-13.199,0.56-27.479-26.28-10.81-29.41
			c7.67-1.44,12.17,3.37,16.86,9.14C687.19,408.19,688.79,410.34,689.22,413.51z"/>
	</g>
	<g>
		<path style="fill:none;stroke:#231F20;stroke-width:21;" d="M157.56,460.24c4.24,4.359,18.59,20.819,16.13,41.49
			c-2.88,24.189-2.31,32.26,8.06,46.659c10.37,14.4,26.82,23.761,22.47,32.83c-6.91,14.4-55.88,10.37-63.36,1.73
			c-1.93-2.23-4.43-5.87-7.18-10.37c-7.93-12.98-17.92-33.13-22.2-47.24c-5.76-19.01,0.57-42.62-10.95-52.42
			c-3.39-2.89-9.14-11.68-14.81-24.16c-13.56-29.83-26.64-80.71-5.93-122.15c29.38-58.76,93.32-57.03,133.65-61.64
			c40.32-4.61,198.16,2.3,219.47-1.15c21.31-3.46,79.49-6.34,127.3,19.01c47.82,25.34,108.87,69.7,125,92.17
			c16.14,22.46,44.94,59.9,48.39,75.46c3.221,14.45,8.641,24.76,12.681,30.53c3.88,5.529,33.26,37.1,33.02,51.84
			c-0.02,0.6-0.08,1.18-0.189,1.729c0,0,1.819,9.261-0.96,20.24c-2.87,11.26-10.591,24.32-30.141,31.03c0,0-0.029,0.02-0.09,0.05
			c-1.479,0.811-21.74,11.36-49.46-6.39c-28.79-18.431-31.67-31.681-52.99-44.351c-19.66-11.699-51.6,0.641-59.58-30.87
			c-0.67-2.64-1.17-5.59-1.479-8.88c-4.03-42.63,2.88-63.37,2.88-63.37"/>
		<path style="fill:none;stroke:#231F20;stroke-width:21;" d="M156.41,459.1c0,0,0.42,0.391,1.14,1.131"/>
		<path style="fill:none;stroke:#231F20;stroke-width:21;" d="M545.24,422.23c0,0,1.72,59.91,13.25,73.16
			c2.04,2.351,4.069,4.311,6.05,5.9c9,7.229,17.02,7.01,21.35,2.979c0.091-0.079,0.17-0.159,0.25-0.239"/>
		<path style="fill:none;stroke:#231F20;stroke-width:21;" d="M564.83,502.88c0,0-0.12,0-0.35-0.02
			c-1.2-0.051-5.391-0.311-10.86-1.45c-8.12-1.67-19.08-5.271-27.39-12.93c-5.841-5.381-13.24-9.891-22.04-12.131
			c-13.811-3.52-31.07-1.46-51.12,11.551c-12.761,8.29-23.37,16.689-34.84,24.02c-18.02,11.51-38.19,20.39-72.3,22.061
			c-58.76,2.88-119.24-3.45-145.17-31.681c-23.46-25.54-36.86-36.859-36.86-36.859l-6.34-5.2l-0.01-0.01L141.43,447"/>
		<path style="fill:none;stroke:#231F20;stroke-width:21;" d="M85.64,448.8c-3.98,22.12-5.32,62.641-5.04,74.41
			c0.79,32.76,12.22,45.6,21.81,47.65c8.98,1.93,28.77,1.75,31.27,1.72c0.17,0,0.26,0,0.26,0"/>
		<path style="fill:none;stroke:#231F20;stroke-width:21;" d="M419.08,513.24c0,0-1.72,23.05-4.03,43.79
			c-2.3,20.739-5.18,29.38,23.04,33.979c28.22,4.601,28.811,4.04,29.96-5.18c2.74-21.91-10.37-32.83,1.15-46.66
			c5.34-6.41,15-14.67,22.979-24.16c9.24-10.979,16.221-23.609,11.58-36.899"/>
		<path style="fill:none;stroke:#231F20;stroke-width:21;" d="M491.66,513.24c0,0,0.18,0.63,0.52,1.77
			c2.69,9.12,15.101,50.99,20.221,64.48c6.34,16.71,54.729,15.56,55.88-2.88c0.569-9.091-10.37-16.7-17.28-29.38
			c-6.91-12.681-12.1-22.461-5.18-31.681c6.91-9.22,7.479-12.67,7.479-12.67"/>
		<path style="fill:none;stroke:#231F20;stroke-width:14;" d="M716.32,494.81c0,0,7.489,34.561,5.76,54.721
			c-0.29,3.39-0.07,6.66,0.55,9.739c0.73,3.54,2,6.851,3.68,9.851c4.87,8.72,13.19,14.88,21.61,16.76c1.18,0.26,2.37,0.44,3.54,0.53
			"/>
		<path style="fill:none;stroke:#231F20;stroke-width:14;stroke-linecap:round;stroke-linejoin:round;" d="M689.22,413.51
			c-0.43-3.17-2.029-5.32-4.279-8.1c-4.69-5.77-9.19-10.58-16.86-9.14c-16.67,3.13-2.39,29.97,10.81,29.41"/>
		<path style="fill:none;stroke:#231F20;stroke-width:14;stroke-linecap:round;stroke-linejoin:round;" d="M729,459.38
			c0,6.21-4.39,11.24-9.8,11.24c-5.4,0-9.79-5.03-9.79-11.24c0-6.2,4.39-11.229,9.79-11.229C724.61,448.15,729,453.18,729,459.38z"
			/>
		<polyline style="fill:none;stroke:#231F20;stroke-width:14;stroke-linecap:round;stroke-linejoin:round;" points="720.36,559.33 
			709.99,563.94 714.02,573.73 723.81,570.85 		"/>
		<path style="fill:none;stroke:#231F20;stroke-width:14;" d="M779.11,532.83c-5.63,0.51-13.25-2.88-16.58,10.5
			c-2.53,10.189,5.06,13.7,13.13,11.39"/>
	</g>
</g>
<rect style="fill:none;" width="850.394" height="850.394"/>
</svg>
