<?xml version="1.0" encoding="iso-8859-1"?>
<!-- Generator: Adobe Illustrator 12.0.1, SVG Export Plug-In . SVG Version: 6.00 Build 51448)  -->
<!DOCTYPE svg PUBLIC "-//W3C//DTD SVG 1.1//EN" "http://www.w3.org/Graphics/SVG/1.1/DTD/svg11.dtd" [
	<!ENTITY ns_svg "http://www.w3.org/2000/svg">
	<!ENTITY ns_xlink "http://www.w3.org/1999/xlink">
]>
<svg  version="1.1" id="Layer_1" xmlns="&ns_svg;" xmlns:xlink="&ns_xlink;" width="850.394" height="850.394"
	 viewBox="0 0 850.394 850.394" style="overflow:visible;enable-background:new 0 0 850.394 850.394;" xml:space="preserve">
<g>
	<g>
		<g>
			<g id="XMLID_36_">
				<g>
					<rect x="692.2" y="539.35" style="fill:#FFFFFF;" width="25.939" height="50.511"/>
					<rect x="692.2" y="456.07" style="fill:#FFFFFF;" width="25.939" height="50.51"/>
					<rect x="543.85" y="497.99" style="fill:#FFFFFF;" width="25.94" height="50.52"/>
					<rect x="394.8" y="539.18" style="fill:#FFFFFF;" width="25.94" height="50.511"/>
					<rect x="394.8" y="455.9" style="fill:#FFFFFF;" width="25.94" height="50.51"/>
					<path style="fill:#9C5C25;" d="M556.14,753.07H497v-4.2v-98.58c0-25.54,26.79-46.25,59.82-46.25c16.52,0,31.47,5.18,42.3,13.55
						c10.82,8.37,17.52,19.93,17.52,32.7v98.58v4.38h-60.5V753.07z"/>
					<path style="fill:#C8C8C8;" d="M755.39,407.83v345.42H616.64v-4.38v-98.58c0-12.771-6.699-24.33-17.52-32.7
						c-10.83-8.37-25.78-13.55-42.3-13.55c-33.03,0-59.82,20.71-59.82,46.25v98.58v4.2H357.56V407.65h36.79v20.49h27.3v-20.49h35.5
						v62.81H506.3v-61.9l100.34,0.18v61.89h49.16v-62.8h35.5v20.479h27.3V407.83H755.39z M718.14,589.86V539.35H692.2v50.511H718.14
						z M718.14,506.58v-50.51H692.2v50.51H718.14z M569.79,548.51v-50.52h-25.94v50.52H569.79z M420.74,589.69V539.18H394.8v50.511
						H420.74z M420.74,506.41V455.9H394.8v50.51H420.74z"/>
					<path style="fill:#797878;" d="M246.46,97.84c86.01,0,155.74,69.73,155.74,155.74c0,86.03-69.73,155.75-155.74,155.75
						c-86.02,0-155.75-69.72-155.75-155.75C90.71,167.57,160.44,97.84,246.46,97.84z M379.04,253.58
						c0-73.21-59.37-132.58-132.58-132.58c-73.23,0-132.59,59.37-132.59,132.58c0,73.23,59.36,132.59,132.59,132.59
						C319.67,386.17,379.04,326.81,379.04,253.58z"/>
					<path style="fill:#A8D7F4;" d="M256.47,138.87c0,1.09-0.31,2.17-0.94,3.24c-0.43,0.74-1.56,2.16-3.41,4.25
						c-2.33,2.62-3.89,4.74-4.7,6.35c-0.81,1.62-1.29,3.32-1.45,5.11h14.69v-4.75h-8.33c0.22-0.46,0.5-0.93,0.86-1.42
						c0.36-0.48,1.21-1.47,2.56-2.98c1.44-1.61,2.47-2.93,3.09-3.96c0.62-1.03,1.08-2.06,1.37-3.08c0.3-1.02,0.45-2.08,0.45-3.16
						c0-1.92-0.58-3.63-1.74-5.11c-1.17-1.49-2.89-2.23-5.18-2.23c-2.08,0-3.75,0.63-5.01,1.9c-1.25,1.26-2,3.25-2.26,5.94
						l4.16,0.54c0.14-2.78,1.15-4.16,3-4.16c0.85,0,1.54,0.3,2.06,0.89C256.21,136.83,256.47,137.71,256.47,138.87z M357.21,249.06
						c0,1.1-0.32,1.95-0.94,2.55c-0.63,0.6-1.49,0.89-2.58,0.87l-0.45,4.16c0.74-0.25,1.37-0.38,1.91-0.38
						c0.81,0,1.5,0.37,2.07,1.11c0.57,0.73,0.86,1.75,0.86,3.04c0,1.39-0.3,2.48-0.89,3.27c-0.59,0.78-1.32,1.17-2.18,1.17
						c-0.79,0-1.47-0.33-2.05-0.99c-0.58-0.66-0.93-1.62-1.04-2.88l-4.06,0.59c0.22,2.32,0.99,4.15,2.32,5.49
						c1.33,1.34,2.95,2.01,4.86,2.01c2.01,0,3.73-0.79,5.18-2.38c1.45-1.59,2.17-3.6,2.17-6.03c0-1.67-0.38-3.06-1.15-4.17
						c-0.77-1.11-1.76-1.83-2.98-2.16c1.05-0.7,1.85-1.51,2.37-2.44c0.53-0.93,0.79-1.97,0.79-3.13c0-1.72-0.58-3.28-1.76-4.69
						c-1.17-1.41-2.75-2.12-4.75-2.12c-1.77,0-3.25,0.55-4.41,1.65c-1.17,1.1-1.96,2.86-2.36,5.29l3.88,0.81
						c0.1-1.18,0.4-2.06,0.92-2.66s1.14-0.9,1.85-0.9c0.7,0,1.28,0.26,1.74,0.77C356.98,247.43,357.21,248.15,357.21,249.06z
						 M140.42,258c-0.17,3-0.55,5-1.15,5.98c-0.59,0.98-1.36,1.47-2.29,1.47c-1.38,0-2.17-0.99-2.36-2.97l-4.07,0.53
						c0.31,2.26,0.99,3.94,2.07,5.03c1.07,1.09,2.43,1.63,4.08,1.63c2.38,0,4.31-1.07,5.8-3.21c1.5-2.13,2.24-5.64,2.24-10.52
						c0-4.79-0.71-8.22-2.14-10.29c-1.43-2.07-3.25-3.11-5.46-3.11c-1.97,0-3.63,0.81-4.98,2.41c-1.34,1.61-2.01,3.81-2.01,6.61
						c0,2.62,0.64,4.72,1.91,6.3c1.28,1.58,2.75,2.37,4.41,2.37c0.8,0,1.53-0.19,2.18-0.56C139.31,259.29,139.9,258.74,140.42,258z
						 M246.25,244.69c-4.97,0.02-9,4.05-9,9.02c0,5,4.05,9.04,9.03,9.04c4.99,0,9.04-4.04,9.04-9.04c0-0.04,0-0.07,0-0.11
						c-0.06-4.93-4.09-8.91-9.04-8.91C246.27,244.69,246.26,244.69,246.25,244.69z M240.27,157.82v-26.69h-3.38
						c-0.49,1.58-1.35,2.98-2.6,4.19c-1.25,1.22-2.46,2.06-3.62,2.53v4.62c2.05-0.82,3.85-2.11,5.41-3.87v19.22H240.27z
						 M247.86,352.27c1.41,0,2.21,0.99,2.4,2.97l4.06-0.53c-0.3-2.23-1.01-3.89-2.12-4.98c-1.11-1.1-2.48-1.65-4.09-1.65
						c-2.35,0-4.27,1.07-5.76,3.21c-1.5,2.14-2.24,5.64-2.24,10.51c0,4.8,0.72,8.23,2.15,10.3c1.44,2.07,3.26,3.11,5.44,3.11
						c1.99,0,3.66-0.8,5.01-2.39c1.35-1.59,2.02-3.79,2.02-6.59c0-2.63-0.64-4.74-1.92-6.33c-1.27-1.58-2.77-2.38-4.49-2.38
						c-0.78,0-1.49,0.19-2.14,0.56c-0.64,0.38-1.22,0.94-1.75,1.69c0.16-3.01,0.54-5.02,1.15-6.01
						C246.18,352.77,246.94,352.27,247.86,352.27z M246.46,121c73.21,0,132.58,59.37,132.58,132.58
						c0,73.23-59.37,132.59-132.58,132.59c-73.23,0-132.59-59.36-132.59-132.59C113.87,180.37,173.23,121,246.46,121z"/>
					<path d="M357.21,249.06c0-0.91-0.23-1.63-0.68-2.15c-0.46-0.51-1.04-0.77-1.74-0.77c-0.71,0-1.33,0.3-1.85,0.9
						s-0.82,1.48-0.92,2.66l-3.88-0.81c0.4-2.43,1.19-4.19,2.36-5.29c1.16-1.1,2.64-1.65,4.41-1.65c2,0,3.58,0.71,4.75,2.12
						c1.18,1.41,1.76,2.97,1.76,4.69c0,1.16-0.26,2.2-0.79,3.13c-0.52,0.93-1.32,1.74-2.37,2.44c1.22,0.33,2.21,1.05,2.98,2.16
						c0.77,1.11,1.15,2.5,1.15,4.17c0,2.43-0.72,4.44-2.17,6.03c-1.45,1.59-3.17,2.38-5.18,2.38c-1.91,0-3.53-0.67-4.86-2.01
						c-1.33-1.34-2.1-3.17-2.32-5.49l4.06-0.59c0.11,1.26,0.46,2.22,1.04,2.88c0.58,0.66,1.26,0.99,2.05,0.99
						c0.86,0,1.59-0.39,2.18-1.17c0.59-0.79,0.89-1.88,0.89-3.27c0-1.29-0.29-2.31-0.86-3.04c-0.57-0.74-1.26-1.11-2.07-1.11
						c-0.54,0-1.17,0.13-1.91,0.38l0.45-4.16c1.09,0.02,1.95-0.27,2.58-0.87C356.89,251.01,357.21,250.16,357.21,249.06z"/>
					<path d="M255.32,253.71c0,5-4.05,9.04-9.04,9.04c-4.98,0-9.03-4.04-9.03-9.04c0-4.97,4.03-9,9-9.02c0.01,0,0.02,0,0.03,0
						c4.95,0,8.98,3.98,9.04,8.91C255.32,253.64,255.32,253.67,255.32,253.71z"/>
					<path d="M258.92,133.36c1.16,1.48,1.74,3.19,1.74,5.11c0,1.08-0.15,2.14-0.45,3.16c-0.29,1.02-0.75,2.05-1.37,3.08
						c-0.62,1.03-1.65,2.35-3.09,3.96c-1.35,1.51-2.2,2.5-2.56,2.98c-0.36,0.49-0.64,0.96-0.86,1.42h8.33v4.75h-14.69
						c0.16-1.79,0.64-3.49,1.45-5.11c0.81-1.61,2.37-3.73,4.7-6.35c1.85-2.09,2.98-3.51,3.41-4.25c0.63-1.07,0.94-2.15,0.94-3.24
						c0-1.16-0.26-2.04-0.78-2.63c-0.52-0.59-1.21-0.89-2.06-0.89c-1.85,0-2.86,1.38-3,4.16l-4.16-0.54
						c0.26-2.69,1.01-4.68,2.26-5.94c1.26-1.27,2.93-1.9,5.01-1.9C256.03,131.13,257.75,131.87,258.92,133.36z"/>
					<path style="fill:#A8D7F4;" d="M244.79,365.81c0-1.5,0.29-2.64,0.85-3.4c0.56-0.76,1.25-1.14,2.06-1.14
						c0.83,0,1.53,0.4,2.09,1.2c0.57,0.79,0.85,2.06,0.85,3.8c0,1.67-0.26,2.88-0.78,3.62c-0.52,0.73-1.18,1.1-1.96,1.1
						c-0.81,0-1.53-0.44-2.16-1.33C245.11,368.77,244.79,367.49,244.79,365.81z"/>
					<path d="M244.79,365.81c0,1.68,0.32,2.96,0.95,3.85c0.63,0.89,1.35,1.33,2.16,1.33c0.78,0,1.44-0.37,1.96-1.1
						c0.52-0.74,0.78-1.95,0.78-3.62c0-1.74-0.28-3.01-0.85-3.8c-0.56-0.8-1.26-1.2-2.09-1.2c-0.81,0-1.5,0.38-2.06,1.14
						C245.08,363.17,244.79,364.31,244.79,365.81z M247.86,352.27c-0.92,0-1.68,0.5-2.28,1.49c-0.61,0.99-0.99,3-1.15,6.01
						c0.53-0.75,1.11-1.31,1.75-1.69c0.65-0.37,1.36-0.56,2.14-0.56c1.72,0,3.22,0.8,4.49,2.38c1.28,1.59,1.92,3.7,1.92,6.33
						c0,2.8-0.67,5-2.02,6.59c-1.35,1.59-3.02,2.39-5.01,2.39c-2.18,0-4-1.04-5.44-3.11c-1.43-2.07-2.15-5.5-2.15-10.3
						c0-4.87,0.74-8.37,2.24-10.51c1.49-2.14,3.41-3.21,5.76-3.21c1.61,0,2.98,0.55,4.09,1.65c1.11,1.09,1.82,2.75,2.12,4.98
						l-4.06,0.53C250.07,353.26,249.27,352.27,247.86,352.27z"/>
					<path d="M240.27,131.13v26.69h-4.19V138.6c-1.56,1.76-3.36,3.05-5.41,3.87v-4.62c1.16-0.47,2.37-1.31,3.62-2.53
						c1.25-1.21,2.11-2.61,2.6-4.19H240.27z"/>
					<path style="fill:#A8D7F4;" d="M140.05,251.93c0,1.52-0.28,2.65-0.84,3.41c-0.57,0.76-1.25,1.14-2.04,1.14
						c-0.82,0-1.52-0.4-2.08-1.19c-0.57-0.8-0.85-2.05-0.85-3.76c0-1.71,0.26-2.93,0.78-3.66c0.51-0.74,1.16-1.11,1.94-1.11
						c0.8,0,1.51,0.45,2.15,1.34C139.74,248.99,140.05,250.27,140.05,251.93z"/>
					<path d="M139.21,255.34c0.56-0.76,0.84-1.89,0.84-3.41c0-1.66-0.31-2.94-0.94-3.83c-0.64-0.89-1.35-1.34-2.15-1.34
						c-0.78,0-1.43,0.37-1.94,1.11c-0.52,0.73-0.78,1.95-0.78,3.66c0,1.71,0.28,2.96,0.85,3.76c0.56,0.79,1.26,1.19,2.08,1.19
						C137.96,256.48,138.64,256.1,139.21,255.34z M142.6,245.65c1.43,2.07,2.14,5.5,2.14,10.29c0,4.88-0.74,8.39-2.24,10.52
						c-1.49,2.14-3.42,3.21-5.8,3.21c-1.65,0-3.01-0.54-4.08-1.63c-1.08-1.09-1.76-2.77-2.07-5.03l4.07-0.53
						c0.19,1.98,0.98,2.97,2.36,2.97c0.93,0,1.7-0.49,2.29-1.47c0.6-0.98,0.98-2.98,1.15-5.98c-0.52,0.74-1.11,1.29-1.77,1.67
						c-0.65,0.37-1.38,0.56-2.18,0.56c-1.66,0-3.13-0.79-4.41-2.37c-1.27-1.58-1.91-3.68-1.91-6.3c0-2.8,0.67-5,2.01-6.61
						c1.35-1.6,3.01-2.41,4.98-2.41C139.35,242.54,141.17,243.58,142.6,245.65z"/>
				</g>
				<g>
					<path style="fill:none;stroke:#000000;stroke-width:14;" d="M379.04,253.58c0,73.23-59.37,132.59-132.58,132.59
						c-73.23,0-132.59-59.36-132.59-132.59c0-73.21,59.36-132.58,132.59-132.58C319.67,121,379.04,180.37,379.04,253.58z"/>
					<path style="fill:none;stroke:#000000;stroke-width:14;" d="M402.2,253.58c0,86.03-69.73,155.75-155.74,155.75
						c-86.02,0-155.75-69.72-155.75-155.75c0-86.01,69.73-155.74,155.75-155.74C332.47,97.84,402.2,167.57,402.2,253.58z"/>
					<line style="fill:none;stroke:#000000;stroke-width:14;" x1="141.29" y1="209.64" x2="173.54" y2="222.53"/>
					<line style="fill:none;stroke:#000000;stroke-width:14;" x1="174.13" y1="166.24" x2="193.48" y2="192.04"/>
					<line style="fill:none;stroke:#000000;stroke-width:14;" x1="348.93" y1="208.95" x2="316.69" y2="221.85"/>
					<line style="fill:none;stroke:#000000;stroke-width:14;" x1="316.09" y1="165.56" x2="296.75" y2="191.36"/>
					<line style="fill:none;stroke:#000000;stroke-width:14;" x1="143.79" y1="300.36" x2="176.04" y2="287.46"/>
					<line style="fill:none;stroke:#000000;stroke-width:14;" x1="176.62" y1="343.75" x2="195.97" y2="317.95"/>
					<line style="fill:none;stroke:#000000;stroke-width:14;" x1="351.43" y1="301.04" x2="319.18" y2="288.14"/>
					<line style="fill:none;stroke:#000000;stroke-width:14;" x1="318.59" y1="344.42" x2="299.24" y2="318.62"/>
					<polyline style="fill:none;stroke:#000000;stroke-width:14;" points="246.25,169.62 246.25,244.69 246.25,249.65 					"/>
					<polyline style="fill:none;stroke:#000000;stroke-width:14;" points="305.32,253.6 255.32,253.6 245.95,253.6 					"/>
					<rect x="394.8" y="455.9" style="fill:none;stroke:#000000;stroke-width:14;" width="25.94" height="50.51"/>
					<rect x="394.8" y="539.18" style="fill:none;stroke:#000000;stroke-width:14;" width="25.94" height="50.511"/>
					<rect x="543.85" y="497.99" style="fill:none;stroke:#000000;stroke-width:14;" width="25.94" height="50.52"/>
					<path style="fill:none;stroke:#000000;stroke-width:21;" d="M497,748.87v-98.58c0-25.54,26.79-46.25,59.82-46.25
						c16.52,0,31.47,5.18,42.3,13.55c10.82,8.37,17.52,19.93,17.52,32.7v98.58"/>
					<rect x="692.2" y="456.07" style="fill:none;stroke:#000000;stroke-width:14;" width="25.939" height="50.51"/>
					<rect x="692.2" y="539.35" style="fill:none;stroke:#000000;stroke-width:14;" width="25.939" height="50.511"/>
					<polyline style="fill:none;stroke:#000000;stroke-width:21;" points="556.14,753.25 616.64,753.25 755.39,753.25 
						755.39,407.83 718.6,407.83 718.6,428.31 691.3,428.31 691.3,407.83 655.8,407.83 655.8,470.63 606.64,470.63 606.64,408.74 
						506.3,408.56 506.3,470.46 457.15,470.46 457.15,407.65 421.65,407.65 421.65,428.14 394.35,428.14 394.35,407.65 
						357.56,407.65 357.56,753.07 497,753.07 556.14,753.07 556.82,753.07 					"/>
				</g>
			</g>
		</g>
	</g>
</g>
<rect style="fill:none;" width="850.394" height="850.394"/>
</svg>
