<?xml version="1.0" encoding="iso-8859-1"?>
<!-- Generator: Adobe Illustrator 12.0.1, SVG Export Plug-In . SVG Version: 6.00 Build 51448)  -->
<!DOCTYPE svg PUBLIC "-//W3C//DTD SVG 1.1//EN" "http://www.w3.org/Graphics/SVG/1.1/DTD/svg11.dtd" [
	<!ENTITY ns_svg "http://www.w3.org/2000/svg">
	<!ENTITY ns_xlink "http://www.w3.org/1999/xlink">
]>
<svg  version="1.1" id="Layer_1" xmlns="&ns_svg;" xmlns:xlink="&ns_xlink;" width="850.394" height="850.394"
	 viewBox="0 0 850.394 850.394" style="overflow:visible;enable-background:new 0 0 850.394 850.394;" xml:space="preserve">
<g id="XMLID_5_">
	<g>
		<path style="fill:#9E5C26;" d="M753.73,391.13c3.079,14.46,4.01,27.5,0.869,38.67c-9.979,35.46-25.489,59.851-38.79,45.44
			c-12.119-13.13-37.13-47.44-57.409-38.311C664.89,428.8,695.44,394.71,753.73,391.13z"/>
		<path style="fill:#F6CC4B;" d="M569.51,703.55l2.24,2.3c-21.53,26.87-40.35,43.87-66.52,54.23c-53.2,21.05-100.86-5.54-146.3,1.11
			c-45.44,6.649-182.87,11.079-226.1-4.44c-43.22-15.51-54.31-36.57-16.62-66.5c21.49-17.06,79.79-73.12,133.51-126.53l2.81,1.29
			C252.53,565.01,428.76,695.79,569.51,703.55z"/>
		<path style="fill:#9E5C26;" d="M449.81,79.57l282.631,5.54c0,0-21.061,137.43-9.98,196.17c7.59,40.24,24.54,78.4,31.271,109.85
			c-58.29,3.58-88.841,37.67-95.33,45.8c-1.971,0.88-3.891,2.181-5.761,3.95c-21.06,19.95-24.39,44.33-5.55,82.021
			c22.96,45.93,14.2,59.58-15.51,100.85c-24.73,34.34-43.1,61.21-59.83,82.1l-2.24-2.3c-140.75-7.76-316.98-138.54-316.98-138.54
			l-2.81-1.29c40.48-40.25,78.35-79,95.91-98.46C417.67,385.46,439.84,242.49,449.81,79.57z"/>
	</g>
	<g>
		<path style="fill:none;stroke:#231F20;stroke-width:21;" d="M732.44,85.11c0,0-21.061,137.43-9.98,196.17
			c7.59,40.24,24.54,78.4,31.271,109.85c3.079,14.46,4.01,27.5,0.869,38.67c-9.979,35.46-25.489,59.851-38.79,45.44
			c-12.119-13.13-37.13-47.44-57.409-38.311c-1.971,0.88-3.891,2.181-5.761,3.95c-21.06,19.95-24.39,44.33-5.55,82.021
			c22.96,45.93,14.2,59.58-15.51,100.85c-24.73,34.34-43.1,61.21-59.83,82.1c-21.53,26.87-40.35,43.87-66.52,54.23
			c-53.2,21.05-100.86-5.54-146.3,1.11c-45.44,6.649-182.87,11.079-226.1-4.44c-43.22-15.51-54.31-36.57-16.62-66.5
			c21.49-17.06,79.79-73.12,133.51-126.53c40.48-40.25,78.35-79,95.91-98.46c72.04-79.8,94.21-222.77,104.18-385.69"/>
		<path style="fill:none;stroke:#231F20;stroke-width:21;" d="M252.53,565.01c0,0,176.23,130.78,316.98,138.54"/>
		<path style="fill:none;stroke:#231F20;stroke-width:21;" d="M657.07,438.67c0,0,0.439-0.63,1.33-1.74
			c6.489-8.13,37.04-42.22,95.33-45.8c0.659-0.05,1.319-0.09,1.979-0.12"/>
		<line style="fill:none;stroke:#231F20;" x1="449.81" y1="79.57" x2="732.44" y2="85.11"/>
	</g>
</g>
<rect style="fill:none;" width="850.394" height="850.394"/>
</svg>
