<svg xmlns="http://www.w3.org/2000/svg" width="850.394" height="850.394" viewBox="0 0 850.394 850.394" overflow="visible"><path fill="#f6cc4b" d="M700.513 519.529h17.811v49.76h-17.811zM700.513 569.289h17.811v52.872h-17.811zM636.476 569.289h1.615v52.872h-1.615zM636.476 519.529h1.615v49.76h-1.615z"/><path fill="#f6cc4b" d="M636.476 519.529h1.615v49.76h-1.615zM636.476 569.289h1.615v52.872h-1.615zM789.99 335.354v66.915h-40.795v-11.796c12.451 0 22.516-10.088 22.516-22.516 0-12.405-10.064-22.469-22.516-22.469v-10.134h40.795z"/><path fill="#f6cc4b" d="M788.024 333.107v2.247h-75.926v-2.247l24.458-57.342v-.585h27.009v.585zM718.323 622.161h62.422v44.399h-62.422zM718.323 569.289h62.422v52.872h-62.422zM718.323 519.529v-1.404h62.422v51.164h-62.422zM780.745 475.388v42.737h-62.422v-42.737h.796zM780.745 403.674v71.714h-62.422v-71.714z"/><path d="M749.195 345.489c12.451 0 22.516 10.064 22.516 22.469 0 12.428-10.064 22.516-22.516 22.516-12.405 0-22.47-10.088-22.47-22.516.001-12.405 10.065-22.469 22.47-22.469z" fill="#fff"/><path fill="#c8c8c8" d="M763.565 247.351v27.829h-27.009v-27.829l.445-2.247h26.12zM750.061 179.875l13.06 65.229h-26.12z"/><path d="M749.195 390.474v11.796h-39.063v-66.915h39.064v10.134c-12.405 0-22.47 10.064-22.47 22.469 0 12.428 10.064 22.516 22.469 22.516zM718.323 666.561v.023h-17.81v-44.423h17.81zM700.513 666.584v.023h-62.422v-44.446h62.422zM700.513 569.289v52.872h-62.422v-52.872h62.422zm-22.259 34.03v-28.671h-16.056v28.671h16.056zM700.513 519.529v49.76h-62.422v-49.76h62.422zm-21.159 32.604v-28.671h-16.032v28.671h16.032zM700.513 518.125v1.404h-62.422V468.39H700.513z" fill="#f6cc4b"/><path fill="#c8c8c8" d="M698.383 465.861v2.529h-58.607v-2.763l16.43-27.337h25.324l16.595 27.571z"/><path fill="#fff" d="M663.321 523.462h16.032v28.671h-16.032zM662.198 574.648h16.056v28.671h-16.056z"/><path fill="#f6cc4b" d="M576.044 622.161h60.432v44.423h-60.432zM576.044 569.289h60.432v52.872h-60.432zM576.044 519.529h60.432v49.76h-60.432z"/><path fill="#fff" d="M576.044 503.777h60.432v15.752h-60.432zM571.667 569.289h4.377v52.872h-4.377z"/><path fill="#f6cc4b" d="M571.667 519.529h4.377v49.76h-4.377zM509.223 622.161h62.444v44.399h-62.444zM571.667 569.289v52.872h-62.444v-52.872h62.444zm-22.773 37.401v-28.695h-16.032v28.695h16.032zM571.667 519.529v49.76h-62.444v-49.76h62.444zm-22.773 32.604v-28.671h-16.032v28.671h16.032zM569.561 468.343h2.106v51.186h-62.444v-51.186h1.731z"/><path fill="#c8c8c8" d="M569.561 465.814v2.529h-58.607v-2.809l16.431-27.267h25.301l16.593 27.547z"/><path fill="#fff" d="M532.861 577.995h16.032v28.695h-16.032zM532.861 523.462h16.032v28.671h-16.032z"/><path fill="#f6cc4b" d="M504.611 622.161v44.4h-88.729v-9.269h16.033v-35.131zM504.611 569.289v52.872H129.24v-52.872h375.371zm-71.573 37.401v-28.672h-16.009v28.672h16.009zm-76.464.562V578.58h-16.056v28.672h16.056zm-75.926 0V578.58h-16.009v28.672h16.009zm-76.465.561v-28.694h-16.032v28.694h16.032zM504.611 519.529v49.76h-87.582v-13.763h16.009v-35.997z"/><path fill="#fff" d="M504.611 503.777v15.752H129.24v-15.752zM417.029 578.019h16.009v28.672h-16.009zM417.029 526.832h16.009v28.694h-16.009z"/><path fill="#f6cc4b" d="M433.038 519.529v7.303h-16.009v42.457h-76.511v-13.225h16.056V519.529z"/><path fill="#fff" d="M415.882 628.621h16.033v28.671h-16.033z"/><path fill="#f6cc4b" d="M431.915 622.161v6.46h-16.033v37.94h-76.464v-8.707h16.033v-35.693z"/><path fill="#fff" d="M340.518 578.58h16.056v28.672h-16.056zM340.518 527.394h16.056v28.671h-16.056z"/><path fill="#f6cc4b" d="M356.574 519.529v7.865h-16.056v41.895h-75.879v-13.225h16.009V519.529z"/><path fill="#fff" d="M339.418 629.183h16.033v28.671h-16.033z"/><path fill="#f6cc4b" d="M355.451 622.161v7.022h-16.033v37.378h-75.903v-8.707h16.009v-35.693z"/><path fill="#fff" d="M264.639 578.58h16.009v28.672h-16.009zM264.639 527.394h16.009v28.671h-16.009z"/><path fill="#f6cc4b" d="M280.648 519.529v7.865h-16.009v41.895h-76.488V556.65h16.032v-37.121z"/><path fill="#fff" d="M263.515 629.183h16.009v28.671h-16.009z"/><path fill="#f6cc4b" d="M279.524 622.161v7.022h-16.009v37.378h-76.488v-8.123h16.01v-36.277z"/><path fill="#fff" d="M188.151 579.119h16.032v28.694h-16.032zM188.151 527.955h16.032v28.695h-16.032z"/><path fill="#f6cc4b" d="M204.183 519.529v8.426h-16.032v41.334H129.24v-49.76z"/><path fill="#fff" d="M187.027 629.744h16.009v28.694h-16.009z"/><path fill="#f6cc4b" d="M203.037 622.161v7.583h-16.01v36.817H129.24v-44.4zM125.729 622.161v44.54H63.308v-44.54h.421zM125.729 569.289v52.872H63.308v-52.872h62.421zm-23.334 34.593V575.21H86.362v28.672h16.033zM125.729 519.529v49.76H63.308v-49.76h62.421zm-22.211 33.75v-28.694H87.485v28.694h16.033zM123.623 468.482h2.106v51.047H63.308v-51.047h1.685z"/><path fill="#c8c8c8" d="M123.623 465.955v2.527h-58.63v-2.761l16.454-27.314h25.301l16.57 27.548z"/><path fill="#fff" d="M87.485 524.585h16.033v28.694H87.485zM86.362 575.21h16.033v28.672H86.362z"/><g fill="none" stroke="#231f20" stroke-width="14.527"><path d="M504.611 622.161v44.4H129.24V503.777h375.371v65.512zM636.476 622.161v44.423h-60.432V503.777h60.432v65.512zM571.667 622.161v44.4h-62.444V468.343h62.444v100.946zM569.279 465.814l-16.593-27.547h-25.301l-16.431 27.267-.164.28M510.954 419.707V469.887M569.561 419.707V469.887M125.729 622.161v44.54H63.308V468.482H125.729V569.289zM123.318 465.955l-16.57-27.548H81.447l-16.454 27.314-.14.234M64.993 419.847V470.027M123.623 419.824v50.203M700.513 666.584v.023h-62.422V468.39H700.513V622.161zM698.125 465.861L681.53 438.29h-25.324l-16.43 27.337-.14.234M639.776 419.753v50.181M698.383 419.73V469.934M780.745 622.161v44.4h-62.422V403.674h62.422v165.615zM63.729 622.161h718.678M62.605 569.289H781.26M56.965 519.529h718.678M788.024 335.354h1.966v66.916h-79.858v-66.916h39.063z"/><path d="M749.195 345.489c12.451 0 22.516 10.064 22.516 22.469 0 12.428-10.064 22.516-22.516 22.516-12.405 0-22.47-10.088-22.47-22.516.001-12.405 10.065-22.469 22.47-22.469zM788.024 333.107l-24.459-57.342v-28.414l-.444-2.247-13.06-65.229-13.06 65.229-.445 2.247v28.414l-24.458 57.342M735.994 245.104h27.571M738.546 275.18h22.469M696.65 518.125h83.205M719.119 475.388H782.103M698.195 666.584H725.182M188.151 527.955h16.032v28.695h-16.032zM86.362 575.21h16.033v28.672H86.362zM87.485 524.585h16.033v28.694H87.485zM188.151 579.119h16.032v28.694h-16.032zM532.861 523.462h16.032v28.671h-16.032zM663.321 523.462h16.032v28.671h-16.032zM662.198 574.648h16.056v28.671h-16.056zM532.861 577.995h16.032v28.695h-16.032zM187.027 629.744h16.009v28.694h-16.009zM264.639 527.394h16.009v28.671h-16.009zM264.639 578.58h16.009v28.672h-16.009zM263.515 629.183h16.009v28.671h-16.009zM340.518 527.394h16.056v28.671h-16.056zM340.518 578.58h16.056v28.672h-16.056zM339.418 629.183h16.033v28.671h-16.033zM417.029 526.832h16.009v28.694h-16.009zM417.029 578.019h16.009v28.672h-16.009zM415.882 628.621h16.033v28.671h-16.033z"/><path stroke-linecap="round" stroke-linejoin="round" d="M195.594 476.511v26.425M273.064 476.769v26.447M348.967 476.347v26.448M424.894 476.347v26.448"/></g><path fill="none" d="M0 0h850.394v850.394H0z"/><path fill="none" d="M0 0h850.394v850.394H0z"/></svg>