<?xml version="1.0" encoding="iso-8859-1"?>
<!-- Generator: Adobe Illustrator 12.0.1, SVG Export Plug-In . SVG Version: 6.00 Build 51448)  -->
<!DOCTYPE svg PUBLIC "-//W3C//DTD SVG 1.1//EN" "http://www.w3.org/Graphics/SVG/1.1/DTD/svg11.dtd" [
	<!ENTITY ns_svg "http://www.w3.org/2000/svg">
	<!ENTITY ns_xlink "http://www.w3.org/1999/xlink">
]>
<svg  version="1.1" id="Layer_1" xmlns="&ns_svg;" xmlns:xlink="&ns_xlink;" width="850.394" height="850.394"
	 viewBox="0 0 850.394 850.394" style="overflow:visible;enable-background:new 0 0 850.394 850.394;" xml:space="preserve">
<g id="XMLID_4_">
	<g>
		<path style="fill:#EE947D;" d="M635.4,286.85c-2.28,7.3-5.381,14.27-9.19,20.84c-31.56,13.1-110.05,22.38-201.88,22.38
			c-2.28,0-4.54-0.01-6.8-0.02l0.03-3.63c14.8-18.03,23.59-40.53,23.59-64.93c0-21.22-6.65-41.01-18.121-57.66l1.27-0.85
			c20.05-31.9,57.32-53.33,100-53.33c3.76,0,7.48,0.17,11.15,0.49c58.66,5.2,104.52,51.02,104.52,106.78
			C639.97,267.31,638.38,277.35,635.4,286.85z"/>
		<path style="fill:#9E5C26;" d="M535.45,150.14c-3.67-0.32-7.391-0.49-11.15-0.49c-42.68,0-79.95,21.43-100,53.33l-1.27,0.85
			c-20.54-29.83-56.55-49.61-97.55-49.61c-4.93,0-9.78,0.29-14.54,0.84c11.49-48.01,57.68-83.91,112.91-83.91
			C477.18,71.15,522.07,104.63,535.45,150.14z"/>
		<path style="fill:#FFFFC2;" d="M310.94,155.06c4.76-0.55,9.61-0.84,14.54-0.84c41,0,77.01,19.78,97.55,49.61
			c11.47,16.65,18.121,36.44,18.121,57.66c0,24.4-8.79,46.9-23.59,64.93l-0.03,3.63c-90.65-0.45-167.28-9.95-196.85-23.12
			c-3.13-6.2-5.64-12.72-7.45-19.49c-2.23-8.31-3.41-17-3.41-25.95C209.82,206.82,253.92,161.69,310.94,155.06z"/>
		<path style="fill:#ABD153;" d="M626.21,307.69c9.57-3.98,14.83-8.31,14.83-12.83c0,0,1.83,134.88-57.61,194.31
			c-59.43,59.44-109.72,83.2-109.72,100.58c0,17.37,0,90.52,0,90.52s-6.39,16.15,43.89,31.091c48.591,14.43,54.86,18.3,54.86,33.84
			s-49.38,31.08-90.53,34.74c-41.13,3.659-57.6,3.659-57.6,3.659l-0.66,0.091c0,0-16.55,0.14-57.7-3.521
			c-41.15-3.66-90.52-19.189-90.52-34.75c0-15.53,8.12-14.21,54.86-33.82c39.94-16.76,43.89-31.09,43.89-31.09s0-73.149,0-90.529
			c0-17.37-50.29-41.141-109.72-100.58c-58.85-58.83-56.79-190.74-56.74-193.391c0.75,3.82,5.26,7.49,12.94,10.92
			c29.57,13.17,106.2,22.67,196.85,23.12c2.26,0.01,4.52,0.02,6.8,0.02C516.16,330.07,594.65,320.79,626.21,307.69z"/>
	</g>
	<g>
		<path style="fill:none;stroke:#231F20;stroke-width:21;" d="M635.37,286.83c0.01,0.01,0.02,0.01,0.03,0.02
			c3.689,2.59,5.64,5.26,5.64,8.01c0,4.52-5.26,8.85-14.83,12.83c-31.56,13.1-110.05,22.38-201.88,22.38c-2.28,0-4.54-0.01-6.8-0.02
			c-90.65-0.45-167.28-9.95-196.85-23.12c-7.68-3.43-12.19-7.1-12.94-10.92c-0.08-0.38-0.12-0.77-0.12-1.15
			c0-2.43,1.52-4.8,4.4-7.09"/>
		<path style="fill:none;stroke:#231F20;stroke-width:21;" d="M207.74,295.97c0,0,0,0.01,0,0.04
			c-0.05,2.65-2.11,134.561,56.74,193.391c59.43,59.439,109.72,83.21,109.72,100.58c0,17.38,0,90.529,0,90.529
			s-3.95,14.33-43.89,31.09c-46.74,19.61-54.86,18.29-54.86,33.82c0,15.561,49.37,31.09,90.52,34.75
			c41.15,3.66,57.7,3.521,57.7,3.521l0.66-0.091c0,0,16.47,0,57.6-3.659c41.15-3.66,90.53-19.2,90.53-34.74s-6.27-19.41-54.86-33.84
			c-50.279-14.94-43.89-31.091-43.89-31.091s0-73.149,0-90.52c0-17.38,50.29-41.14,109.72-100.58
			c59.44-59.43,57.61-194.31,57.61-194.31"/>
		<path style="fill:none;stroke:#231F20;stroke-width:21;" d="M223.99,312.98c-1.17-1.98-2.28-4-3.31-6.05
			c-3.13-6.2-5.64-12.72-7.45-19.49c-2.23-8.31-3.41-17-3.41-25.95c0-54.67,44.1-99.8,101.12-106.43c4.76-0.55,9.61-0.84,14.54-0.84
			c41,0,77.01,19.78,97.55,49.61c11.47,16.65,18.121,36.44,18.121,57.66c0,24.4-8.79,46.9-23.59,64.93"/>
		<path style="fill:none;stroke:#231F20;stroke-width:21;" d="M310.93,155.09c0-0.01,0-0.02,0.01-0.03
			c11.49-48.01,57.68-83.91,112.91-83.91c53.33,0,98.22,33.48,111.6,78.99c0,0.01,0.01,0.02,0.01,0.03"/>
		<path style="fill:none;stroke:#231F20;stroke-width:21;" d="M625.79,308.4c0.14-0.24,0.28-0.47,0.42-0.71
			c3.81-6.57,6.91-13.54,9.19-20.84c2.979-9.5,4.569-19.54,4.569-29.93c0-55.76-45.859-101.58-104.52-106.78
			c-3.67-0.32-7.391-0.49-11.15-0.49c-42.68,0-79.95,21.43-100,53.33"/>
	</g>
</g>
<rect style="fill:none;" width="850.394" height="850.394"/>
</svg>
