<svg xmlns="http://www.w3.org/2000/svg" width="850.89" height="850.89" viewBox="0 0 850.89 850.89" overflow="visible"><path d="M508.25 699.62H89.92V168.77h664.99v530.85h-84.66V430.25h-162v269.37zm-88.58-253.41h-87.43V415.27H381c6.66 0 12.07-5.4 12.07-12.07V282.52c0-6.66-5.41-12.07-12.07-12.07H214.89c-6.67 0-12.07 5.41-12.07 12.07V403.2c0 6.67 5.4 12.07 12.07 12.07h49.2V446.21h-87.43l-.4 94.6h-11.62c-5.62 0-8.72 3.091-10.17 10.16l-9.56 37.061c-1.19 9.279 4.55 10.18 10.16 10.18h-9.94v20.32h307.13v-20.32h-10.07v-.01c5.619 0 11.359-.891 10.17-10.17l-9.57-37.061c-1.45-7.069-4.54-10.16-10.16-10.16h-14.36l1.4-94.6z" fill="#fff"/><path d="M430.67 598.21h-275.6c-5.61 0-11.35-.9-10.16-10.18l9.56-37.061c1.45-7.069 4.55-10.16 10.17-10.16h267.99c5.62 0 8.71 3.091 10.16 10.16l9.57 37.061c1.189 9.279-4.551 10.17-10.17 10.17v.01h-11.52z" fill="#c8c8c8"/><path d="M419.67 446.21l-1.4 94.6H176.26l.4-94.6H419.67zm-21.07 61.43v-13.46h-74.88v13.46h74.88zm0-30.05v-13.45h-46.63v13.45h46.63z" fill="#787878"/><path d="M670.25 698.25v1.37h-162V430.25h162v268zm-36-158v-70l-94 2v68h94zm-71.89 50c0-7.38-5.42-13.39-12.11-13.39s-12.11 6.01-12.11 13.39c0 7.39 5.42 13.39 12.11 13.39s12.11-6 12.11-13.39z" fill="#33a02c"/><path fill="#231f20" d="M634.25 470.25v70h-94v-68zM550.25 576.86c6.69 0 12.11 6.01 12.11 13.39 0 7.39-5.42 13.39-12.11 13.39s-12.11-6-12.11-13.39c0-7.38 5.42-13.39 12.11-13.39z"/><path fill="#787878" d="M452.26 598.21v20.32H145.13v-20.32h297.06z"/><path fill="#c8c8c8" d="M323.72 494.18h74.88v13.46h-74.88zM351.97 464.14h46.63v13.45h-46.63zM393.07 282.52V403.2c0 6.67-5.41 12.07-12.07 12.07H214.89c-6.67 0-12.07-5.4-12.07-12.07V282.52c0-6.66 5.4-12.07 12.07-12.07H381c6.66 0 12.07 5.41 12.07 12.07zm-12.48 120.8c0-2.73-2.2-4.93-4.94-4.93-2.71 0-4.93 2.2-4.93 4.93a4.94 4.94 0 0 0 4.93 4.93 4.93 4.93 0 0 0 4.94-4.93zm-5.04-12.18V287.49H220.79v103.65h154.76zm-6.09 12.25a4.94 4.94 0 0 0-4.93-4.93 4.93 4.93 0 0 0-4.94 4.93c0 2.73 2.2 4.93 4.94 4.93 2.71 0 4.93-2.2 4.93-4.93z"/><path d="M375.65 398.39c2.74 0 4.94 2.2 4.94 4.93 0 2.72-2.2 4.93-4.94 4.93a4.94 4.94 0 0 1-4.93-4.93c0-2.73 2.22-4.93 4.93-4.93z" fill="#231f20"/><path fill="#fff" d="M220.79 287.49h154.76v103.65H220.79z"/><path d="M364.53 398.46a4.94 4.94 0 0 1 4.93 4.93c0 2.73-2.22 4.93-4.93 4.93-2.74 0-4.94-2.2-4.94-4.93 0-2.72 2.2-4.93 4.94-4.93z" fill="#231f20"/><path fill="#fff" d="M332.24 420.65v25.56h-68.15V415.27h68.15z"/><g fill="none" stroke="#231f20"><path stroke-width="21" d="M670.25 698.25v-268h-162v264"/><path stroke-width="28" d="M508.25 699.62H89.92V168.77h664.99v530.85h-84.66z"/><path d="M264.09 415.27h-49.2c-6.67 0-12.07-5.4-12.07-12.07V282.52c0-6.66 5.4-12.07 12.07-12.07H381c6.66 0 12.07 5.41 12.07 12.07V403.2c0 6.67-5.41 12.07-12.07 12.07H264.09z" stroke-width="12.455"/><path stroke-width="12.455" d="M220.79 287.49h154.76v103.65H220.79zM332.24 420.65v25.56M264.09 446.21v-25.56M176.25 542.25l.01-1.44.4-94.6H419.67l-1.4 94.6-.02 1.44"/><path stroke-width="12.455" d="M323.72 494.18h74.88v13.46h-74.88zM351.97 464.14h46.63v13.45h-46.63zM155.07 598.21c-5.61 0-11.35-.9-10.16-10.18l9.56-37.061c1.45-7.069 4.55-10.16 10.17-10.16h259.13M425.56 598.2h16.63c5.619 0 11.359-.891 10.17-10.17l-9.57-37.061c-1.45-7.069-4.54-10.16-10.16-10.16h-8.86"/><path stroke-width="14.573" stroke-dasharray="21.859" d="M188.18 556.06h236.54M188.18 581.21h237.4"/><path stroke-width="12.455" d="M442.19 598.21h10.07v20.32H145.13v-20.32h285.54z"/></g><path fill="none" d="M.25.25h850.394v850.394H.25z"/></svg>