<svg xmlns="http://www.w3.org/2000/svg" width="850.394" height="850.394" viewBox="0 0 850.394 850.394" overflow="visible"><g fill="#33a048"><path d="M578.75 764.1l1.14-.199c.15.76.271 1.51.38 2.25l-.109.149c-29.7 6.97-81.22-5.37-95.45-5.63-14.229-.26-48.79 47.22-55.87 44.61-7.1-2.61-9.42-13.07-19.36-37.58-7.75-19.12-5.17-28.2-17.49-31.32-15.61-3.97-56.65-8.07-38.1-32.04 12.93-16.72 41.82-36.979 67.29-40.16 0 0 1.32-.04 2.63-.63l2.45.07C494.53 715.5 578.75 764.1 578.75 764.1z"/><path d="M578.75 764.1s-84.22-48.6-152.49-100.479l-2.45-.07c1.41-.62 2.83-1.88 2.61-4.399-.46-4.881 2.41-62.641 13.24-80.79 15.5-26.051 34.34 10.63 43.76 23.689 7.44 10.32 14.93 4.601 35.57 4.811 26.45.25 37.02-1.42 42.05 4.21 5.04 5.649-26.47 55.199-21.01 68.34 5.34 12.83 34.34 54.45 39.859 84.49l-1.139.198zM335.21 494.23l1.21.77c-.61.88-.92 2.07-.45 3.63 1.43 4.69 10.36 61.82 3.44 81.8-9.89 28.66-35.79-3.439-47.66-14.319-9.38-8.591-15.55-1.471-35.81 2.529-25.94 5.11-35.96 8.91-42.03 4.41-6.07-4.52 14.72-59.43 6.69-71.189-7.81-11.471-44.67-46.341-56.17-74.63l1.07-.431s92.34 30.49 169.71 67.43z"/><path d="M335.21 494.23C257.84 457.29 165.5 426.8 165.5 426.8l-1.07.431c-.3-.721-.57-1.431-.83-2.13l.07-.17c27.66-12.86 80.62-11.24 94.61-13.87 13.98-2.63 38.18-56.14 45.65-55.02 7.48 1.11 11.87 10.88 26.58 32.86 11.47 17.15 10.79 26.56 23.48 27.12 16.09.71 57.11-3.61 43.82 23.63-9.27 19-33.44 44.699-57.73 53 0 0-2.44.58-3.66 2.35l-1.21-.771zM626.68 279.62s-67.92 69.59-135.06 122.92l-1.72.04c-.561-.62-1.381-1.1-2.57-1.29-3.25-.52-29.26-8.38-50.51-18.03-10.37-4.72-19.61-9.85-24.51-14.77-21.4-21.47 18.8-30.66 33.78-36.55 11.84-4.66 8.15-13.33 13.45-33.28 6.78-25.57 7.77-36.22 14.47-39.71 6.721-3.47 46.95 39.3 61.03 37.25 13.74-1.99 61.24-19.82 91.72-17.73l-.08 1.15z"/><path d="M629.16 278.8c-.59 30.49-25.271 77.36-29.05 91.09-3.771 13.73 33.689 58.95 29.409 65.169-4.279 6.24-14.989 5.891-41.189 9.46-20.45 2.79-28.6-1.949-34.68 9.211-7.7 14.14-21.811 52.899-40.46 29-13-16.66-25.5-49.66-22.29-75.13 0 0 .56-2.48-.53-4.36-.13-.23-.29-.45-.47-.66l1.72-.04c67.14-53.33 135.06-122.92 135.06-122.92l.08-1.15c.771.05 1.53.11 2.28.19l.12.14zM388.05 194.8c3.22 25.47-9.28 58.46-22.28 75.12-18.65 23.91-32.76-14.85-40.47-28.99-6.07-11.17-14.22-6.43-34.67-9.21-26.21-3.57-36.91-3.23-41.19-9.46-4.29-6.23 33.18-51.45 29.4-65.17-3.76-13.73-28.45-60.6-29.04-91.1l.12-.14c.75-.08 1.52-.14 2.29-.19l.07 1.15s67.91 69.6 135.06 122.92l1.24.71c-1.09 1.88-.53 4.36-.53 4.36z"/><path d="M387.34 189.73C320.19 136.41 252.28 66.81 252.28 66.81l-.07-1.15c30.48-2.07 77.96 15.75 91.7 17.74 14.09 2.04 54.31-40.73 61.03-37.25 6.71 3.48 7.7 14.14 14.48 39.71 5.3 19.94 1.61 28.61 13.45 33.28 14.979 5.88 55.18 15.08 33.77 36.54-14.92 14.98-70.169 32.03-75 32.8-1.6.26-2.53 1.04-3.06 1.96l-1.24-.71z"/></g><g fill="none" stroke="#231f20"><path d="M388.58 190.44c.53-.92 1.46-1.7 3.06-1.96 4.83-.77 60.08-17.82 75-32.8 21.41-21.46-18.79-30.66-33.77-36.54-11.84-4.67-8.15-13.34-13.45-33.28-6.78-25.57-7.77-36.23-14.48-39.71-6.72-3.48-46.94 39.29-61.03 37.25-13.74-1.99-61.22-19.81-91.7-17.74-.77.05-1.54.11-2.29.19l-.12.14c.59 30.5 25.28 77.37 29.04 91.1 3.78 13.72-33.69 58.94-29.4 65.17 4.28 6.23 14.98 5.89 41.19 9.46 20.45 2.78 28.6-1.96 34.67 9.21 7.71 14.14 21.82 52.9 40.47 28.99 13-16.66 25.5-49.65 22.28-75.12 0 0-.56-2.48.53-4.36zM252.28 66.81s67.91 69.6 135.06 122.92M389.12 190.85s26.34 37.33 61.07 47.19" stroke-width="14"/><path d="M380.48 182.61s3.36-55.76 29.95-61.63M384.65 155.71s-24.5-28.37.85-64.7M357.1 161.97s-27.07-38.59-12.99-62.86M380.42 186.83s-54.91 10.24-57.44 37.36M354.24 194.31s-31.18-20.8-64.09 8.86M357.05 166.19s-41.66-22.09-64-5.11" stroke-width="7" stroke-linecap="round" stroke-linejoin="round"/><path d="M436.82 383.26c-10.37-4.72-19.61-9.85-24.51-14.77-21.4-21.47 18.8-30.66 33.78-36.55 11.84-4.66 8.15-13.33 13.45-33.28 6.78-25.57 7.77-36.22 14.47-39.71 6.721-3.47 46.95 39.3 61.03 37.25 13.74-1.99 61.24-19.82 91.72-17.73.771.05 1.53.11 2.28.19l.12.14c-.59 30.49-25.271 77.36-29.05 91.09-3.771 13.73 33.689 58.95 29.409 65.169-4.279 6.24-14.989 5.891-41.189 9.46-20.45 2.79-28.6-1.949-34.68 9.211-7.7 14.14-21.811 52.899-40.46 29-13-16.66-25.5-49.66-22.29-75.13 0 0 .56-2.48-.53-4.36-.13-.23-.29-.45-.47-.66-.561-.62-1.381-1.1-2.57-1.29-3.25-.52-29.26-8.38-50.51-18.03zM626.68 279.62s-67.92 69.59-135.06 122.92M489.84 403.65s-26.34 37.34-61.07 47.2" stroke-width="14"/><path d="M498.49 395.41s-3.38-55.75-29.96-61.63M494.3 368.52s24.51-28.37-.84-64.7M521.85 374.77s27.08-38.59 13-62.85M498.53 399.64s54.92 10.24 57.45 37.35M524.72 407.11s31.17-20.8 64.09 8.87M521.91 379s41.66-22.1 63.99-5.11" stroke-width="7" stroke-linecap="round" stroke-linejoin="round"/><path d="M423.81 663.55c1.41-.62 2.83-1.88 2.61-4.399-.46-4.881 2.41-62.641 13.24-80.79 15.5-26.051 34.34 10.63 43.76 23.689 7.44 10.32 14.93 4.601 35.57 4.811 26.45.25 37.02-1.42 42.05 4.21 5.04 5.649-26.47 55.199-21.01 68.34 5.34 12.83 34.34 54.45 39.859 84.49.15.76.271 1.51.38 2.25l-.109.149c-29.7 6.97-81.22-5.37-95.45-5.63-14.229-.26-48.79 47.22-55.87 44.61-7.1-2.61-9.42-13.07-19.36-37.58-7.75-19.12-5.17-28.2-17.49-31.32-15.61-3.97-56.65-8.07-38.1-32.04 12.93-16.72 41.82-36.979 67.29-40.16 0 0 1.32-.04 2.63-.63zM578.75 764.1s-84.22-48.6-152.49-100.479M424.75 662.17s-42.69-16.3-60.83-47.52" stroke-width="14"/><path d="M434.87 668.51s53.189-17.05 52.3-44.26M459.9 657.81s33.54 16.73 62.47-16.81M460.65 686.05s44.08 16.7 64.109-2.939M430.78 669.6s3.649 55.74-22 64.9M430.02 696.81s27.86 25.07 7.25 64.301M456.57 687.15s31.689 34.909 20.76 60.739" stroke-width="7" stroke-linecap="round" stroke-linejoin="round"/><path d="M336.42 495c-.61.88-.92 2.07-.45 3.63 1.43 4.69 10.36 61.82 3.44 81.8-9.89 28.66-35.79-3.439-47.66-14.319-9.38-8.591-15.55-1.471-35.81 2.529-25.94 5.11-35.96 8.91-42.03 4.41-6.07-4.52 14.72-59.43 6.69-71.189-7.81-11.471-44.67-46.341-56.17-74.63-.3-.721-.57-1.431-.83-2.13l.07-.17c27.66-12.86 80.62-11.24 94.61-13.87 13.98-2.63 38.18-56.14 45.65-55.02 7.48 1.11 11.87 10.88 26.58 32.86 11.47 17.15 10.79 26.56 23.48 27.12 16.09.71 57.11-3.61 43.82 23.63-9.27 19-33.44 44.699-57.73 53 0-.001-2.44.579-3.66 2.349zM165.5 426.8s92.34 30.49 169.71 67.431M336.99 495.33s45.11 7.3 69.22 34.18" stroke-width="14"/><path d="M325.8 491.19s-48.62 27.479-42.23 53.96M303.46 506.74s-36.24-9.57-57.75 29.149M296.99 479.24s-46.55-7.4-62.18 15.899M329.57 489.28s-14.89-53.84 8.36-68.01M324.79 462.48s-32.37-18.891-20.15-61.49M300.77 477.34s-38.13-27.75-32.67-55.26" stroke-width="7" stroke-linecap="round" stroke-linejoin="round"/><path d="M435.04 388.33c-1.07 19.87-3.03 40.74-6.69 62.45-5.399 32.09-14.5 66.02-29.899 101.27-27.05 61.931-83.96 100.41-143.39 127.11-10.64 4.78-58.6 17.51-58 16.39M682.18 83.29c-79.819 14.95-133.37 34.44-191.51 92.21-23.27 23.14-48.03 60.89-53.46 120.61-.75 8.21-.72 20.91-.84 36.93" stroke-width="14" stroke-linecap="round" stroke-linejoin="round"/></g><path fill="none" d="M0 0h850.394v850.394H0z"/></svg>