<?xml version="1.0" encoding="iso-8859-1"?>
<!-- Generator: Adobe Illustrator 12.0.1, SVG Export Plug-In . SVG Version: 6.00 Build 51448)  -->
<!DOCTYPE svg PUBLIC "-//W3C//DTD SVG 1.1//EN" "http://www.w3.org/Graphics/SVG/1.1/DTD/svg11.dtd" [
	<!ENTITY ns_svg "http://www.w3.org/2000/svg">
	<!ENTITY ns_xlink "http://www.w3.org/1999/xlink">
]>
<svg  version="1.1" id="Layer_1" xmlns="&ns_svg;" xmlns:xlink="&ns_xlink;" width="847.525" height="847.525"
	 viewBox="0 0 847.525 847.525" style="overflow:visible;enable-background:new 0 0 847.525 847.525;" xml:space="preserve">
<g>
	<path style="fill:#50264C;" d="M470.908,110.875h120.841v379.158c0,49.578-4.36,87.721-13.07,114.407
		c-11.709,34.863-32.945,62.854-63.711,83.965c-30.765,21.11-71.331,31.66-121.698,31.66c-59.087,0-104.558-16.565-136.414-49.715
		c-31.855-33.14-47.914-81.765-48.187-145.874l113.989-13.08c1.353,34.414,6.375,58.717,15.066,72.907
		c13.032,21.577,32.857,32.361,59.467,32.361c26.882,0,45.88-7.688,57.015-23.076c11.134-15.388,16.701-47.32,16.701-95.809V110.875
		z"/>
</g>
<rect style="fill:none;" width="847.525" height="847.525"/>
</svg>
