<?xml version="1.0" encoding="iso-8859-1"?>
<!-- Generator: Adobe Illustrator 12.0.1, SVG Export Plug-In . SVG Version: 6.00 Build 51448)  -->
<!DOCTYPE svg PUBLIC "-//W3C//DTD SVG 1.1//EN" "http://www.w3.org/Graphics/SVG/1.1/DTD/svg11.dtd" [
	<!ENTITY ns_svg "http://www.w3.org/2000/svg">
	<!ENTITY ns_xlink "http://www.w3.org/1999/xlink">
]>
<svg  version="1.1" id="Layer_1" xmlns="&ns_svg;" xmlns:xlink="&ns_xlink;" width="850.394" height="850.394"
	 viewBox="0 0 850.394 850.394" style="overflow:visible;enable-background:new 0 0 850.394 850.394;" xml:space="preserve">
<g id="XMLID_5_">
	<g>
		<path style="fill:#33A02C;" d="M759.47,635.02l7.521,50.23L644.8,702.8l-10.59-45.75l10.32-5.02l0.899,4.399l99-13.79
			c0,0-0.71-2.659-1.91-7.489l0.53-0.131H759.47z"/>
		<path style="fill:#9E5B16;" d="M107,642.29c0,0,0.72-2.71,1.94-7.62c4-16.06,13.38-55.67,20.62-101.41
			c13.79-87.109,41.98-247.52,41.98-247.52s16.92-73.95,40.11-87.1c14.58-8.28,50.82-21.1,76.26-31.72l0.95,0.12
			c-8.96,38.74-21.45,104.28-21.45,104.28s72.07-54.52,92.12-66.42c20.05-11.9,30.07-26.95,48.25-14.41
			c12.17,20.28,25.411,52.88,27.331,77.99c0.14,4.36,0.239,8.48,0.239,12.24v440.52v45.5v0.01H241.09l-22.83-170.88l-11.36,55.81
			l-0.89,4.391L107,642.29z"/>
		<path style="fill:#33A02C;" d="M407.78,190.49c-18.18-12.54-28.2,2.51-48.25,14.41c-20.05,11.9-92.12,66.42-92.12,66.42
			s12.49-65.54,21.45-104.28c2.4-10.35,4.54-18.79,6.13-23.55c7.46-22.38,75.59-44.97,76.66-45.32c-5.18,3.42-7.86,7.96-5.85,13.99
			C373.94,136.6,394.62,168.56,407.78,190.49z"/>
		<path style="fill:#33A02C;" d="M556.18,164.58c8.17,36.88,18.28,92.96,18.28,92.96s-62.5-40.39-82.56-52.29
			c-20.051-11.91-30.07-26.95-48.25-14.41c13.159-21.93,33.84-53.89,41.989-78.33c1.931-5.81-0.38-10.25-5.05-13.66
			c1.86,0.5,61.41,16.64,68.811,38.84C551.21,143.12,553.6,152.88,556.18,164.58z"/>
		<path style="fill:#787878;" d="M480.59,98.85c4.67,3.41,6.98,7.85,5.05,13.66c-8.149,24.44-28.83,56.4-41.989,78.33
			c-11.23,18.72-9.341,52.24-8.54,77.64c-1.92-25.11-15.16-57.71-27.331-77.99c-13.16-21.93-33.84-53.89-41.98-78.33
			c-2.01-6.03,0.67-10.57,5.85-13.99c0-0.01,0-0.01,0.01-0.01c15.82-10.44,54.92-10.44,54.92-10.44S465.64,87.92,480.59,98.85z"/>
		<path style="fill:#33A02C;" d="M217.23,656.7l-10.6,45.75L84.44,684.9l7.52-50.23h16.42h0.56c-1.22,4.91-1.94,7.62-1.94,7.62
			l99.01,13.78l0.89-4.391L217.23,656.7z"/>
		<path style="fill:#9E5B16;" d="M644.53,652.03l-11.44-56.24l-0.74-0.39l-0.239,0.449L609.28,766.74H435.35v-45.5V280.72v-6.27
			c0-1.93-0.08-3.93-0.239-5.97c-0.801-25.4-2.69-58.92,8.54-77.64c18.18-12.54,28.199,2.5,48.25,14.41
			c20.06,11.9,82.56,52.29,82.56,52.29s-10.11-56.08-18.28-92.96c25.37,10.57,69.11,26.18,83.61,34.4
			c23.18,13.16,40.09,87.11,40.09,87.11s28.2,160.41,41.99,247.521c7.26,45.87,16.67,85.569,20.649,101.54
			c1.2,4.83,1.91,7.489,1.91,7.489l-99,13.79L644.53,652.03z"/>
	</g>
	<g>
		<line style="fill:none;stroke:#000000;stroke-width:22.5585;" x1="218.26" y1="595.86" x2="256.76" y2="406.67"/>
		<path style="fill:none;stroke:#000000;stroke-width:22.5585;" d="M287.91,166.92c-25.44,10.62-61.68,23.44-76.26,31.72
			c-23.19,13.15-40.11,87.1-40.11,87.1s-28.19,160.41-41.98,247.52c-7.24,45.74-16.62,85.351-20.62,101.41
			c-1.22,4.91-1.94,7.62-1.94,7.62l99.01,13.78l0.89-4.391l11.36-55.81"/>
		<path style="fill:none;stroke:#000000;stroke-width:22.5585;" d="M371.65,98.17c-1.07,0.35-69.2,22.94-76.66,45.32
			c-1.59,4.76-3.73,13.2-6.13,23.55c-8.96,38.74-21.45,104.28-21.45,104.28s72.07-54.52,92.12-66.42
			c20.05-11.9,30.07-26.95,48.25-14.41"/>
		<polyline style="fill:none;stroke:#000000;stroke-width:22.5585;" points="108.38,634.67 91.96,634.67 84.44,684.9 206.63,702.45 
			217.23,656.7 206.9,651.68 204.2,650.36 		"/>
		<path style="fill:none;stroke:#000000;stroke-width:22.5585;" d="M556.18,164.58c25.37,10.57,69.11,26.18,83.61,34.4
			c23.18,13.16,40.09,87.11,40.09,87.11s28.2,160.41,41.99,247.521c7.26,45.87,16.67,85.569,20.649,101.54
			c1.2,4.83,1.91,7.489,1.91,7.489l-99,13.79l-0.899-4.399l-11.44-56.24l-38.42-188.77"/>
		<path style="fill:none;stroke:#000000;stroke-width:22.5585;" d="M435.35,280.72c0-3.76-0.1-7.88-0.239-12.24
			c-0.801-25.4-2.69-58.92,8.54-77.64c13.159-21.93,33.84-53.89,41.989-78.33c1.931-5.81-0.38-10.25-5.05-13.66
			c-14.95-10.93-54.01-11.13-54.01-11.13s-39.1,0-54.92,10.44c-0.01,0-0.01,0-0.01,0.01c-5.18,3.42-7.86,7.96-5.85,13.99
			c8.14,24.44,28.82,56.4,41.98,78.33c12.17,20.28,25.411,52.88,27.331,77.99c0.159,2.04,0.239,4.04,0.239,5.97V280.72v440.52v45.5
			v0.01"/>
		<path style="fill:none;stroke:#000000;stroke-width:22.5585;" d="M480.55,98.84c0,0,0.01,0,0.04,0.01
			c1.86,0.5,61.41,16.64,68.811,38.84c1.81,5.43,4.199,15.19,6.779,26.89c8.17,36.88,18.28,92.96,18.28,92.96
			s-62.5-40.39-82.56-52.29c-20.051-11.91-30.07-26.95-48.25-14.41"/>
		<polyline style="fill:none;stroke:#000000;stroke-width:22.5585;" points="450.39,766.75 435.35,766.75 241.09,766.75 
			218.26,595.87 218.26,595.86 		"/>
		<polyline style="fill:none;stroke:#000000;stroke-width:22.5585;" points="743.05,635.02 759.47,635.02 766.99,685.25 
			644.8,702.8 634.21,657.05 644.53,652.03 647.23,650.72 		"/>
		<polyline style="fill:none;stroke:#000000;stroke-width:22.5585;" points="218.26,595.86 331.04,535.06 351.9,575.96 
			232.01,637.09 		"/>
		<polyline style="fill:none;stroke:#000000;stroke-width:22.5585;" points="633.62,596.08 633.09,595.79 632.35,595.4 
			520.84,535.28 499.99,576.18 619.87,637.31 		"/>
		<line style="fill:none;stroke:#000000;stroke-width:22.5585;" x1="239.84" y1="721.24" x2="415.03" y2="721.24"/>
		<polyline style="fill:none;stroke:#000000;stroke-width:22.5585;" points="399.99,766.74 435.35,766.74 609.28,766.74 
			632.11,595.85 		"/>
		<polyline style="fill:none;stroke:#000000;stroke-width:22.5585;" points="610.53,721.24 435.35,721.24 415.03,721.24 		"/>
	</g>
</g>
<rect style="fill:none;" width="850.394" height="850.394"/>
</svg>
