<?xml version="1.0" encoding="iso-8859-1"?>
<!-- Generator: Adobe Illustrator 12.0.1, SVG Export Plug-In . SVG Version: 6.00 Build 51448)  -->
<!DOCTYPE svg PUBLIC "-//W3C//DTD SVG 1.1//EN" "http://www.w3.org/Graphics/SVG/1.1/DTD/svg11.dtd" [
	<!ENTITY ns_svg "http://www.w3.org/2000/svg">
	<!ENTITY ns_xlink "http://www.w3.org/1999/xlink">
]>
<svg  version="1.1" id="Layer_1" xmlns="&ns_svg;" xmlns:xlink="&ns_xlink;" width="850.394" height="850.394"
	 viewBox="0 0 850.394 850.394" style="overflow:visible;enable-background:new 0 0 850.394 850.394;" xml:space="preserve">
<g id="XMLID_6_">
	<g>
		<path style="fill:#9E5B16;" d="M416.36,474.66l0.06,292.72h-5.23H206.41l-3.6-101.41l0.17-1.41L101.96,652.62l62.51-406.45
			c0,0,17.41-76.08,41.26-89.62c15.01-8.52,54.55-26.23,82.52-35.36l7.81,147.35l49.62-11.82l-19.27,43.55l92.69,133.27
			C416.2,460.01,416.36,474.66,416.36,474.66z"/>
		<path style="fill:#9E5B16;" d="M571.03,123c28.1,9.01,65.7,25.03,80.7,33.55c23.85,13.54,41.26,89.62,41.26,89.62l62.51,406.45
			L654.12,664.6l0.2,1.69l-3.271,101.09H446.27h-29.85l-0.06-292.72l105.38-157.88l-17.601-48.97l49.63,11.82L571.03,123z
			 M614.49,631.97V588.65H488.57v43.319H614.49z M459.95,503.34c0-7.52-6.101-13.62-13.61-13.62c-7.53,0-13.63,6.101-13.63,13.62
			c0,7.53,6.1,13.63,13.63,13.63C453.85,516.97,459.95,510.87,459.95,503.34z M459.79,610.05c0-7.53-6.1-13.62-13.61-13.62
			c-7.529,0-13.63,6.09-13.63,13.62c0,7.521,6.101,13.63,13.63,13.63C453.69,623.68,459.79,617.57,459.79,610.05z"/>
		<rect x="488.57" y="588.65" style="fill:#9E5B16;" width="125.92" height="43.319"/>
		<path style="fill:#9E5B16;" d="M419.1,433.54c1.8-16.33,4.75-37.16,9.63-61.82c0-0.01,0-0.01,0-0.02
			c5.1-25.8,12.289-55.78,22.439-89.19c27.82-91.57,56.37-180.57,56.37-180.57L571.03,123L553.77,279.63l-49.63-11.82l17.601,48.97
			L416.36,474.66C416.36,474.66,416.2,460.01,419.1,433.54z"/>
		<path style="fill:#787878;" d="M507.54,101.94c0,0-28.55,89-56.37,180.57c-10.15,33.41-17.34,63.39-22.439,89.19
			c-5.17-28.38-10.63-50.32-22.44-89.19c-28.75-94.65-28.04-92.56-49.43-181.92C385.29,87.78,444.91,82.97,507.54,101.94z"/>
		<path d="M446.34,489.72c7.51,0,13.61,6.101,13.61,13.62c0,7.53-6.101,13.63-13.61,13.63c-7.53,0-13.63-6.1-13.63-13.63
			C432.71,495.82,438.81,489.72,446.34,489.72z"/>
		<path d="M446.18,596.43c7.511,0,13.61,6.09,13.61,13.62c0,7.521-6.1,13.63-13.61,13.63c-7.529,0-13.63-6.109-13.63-13.63
			C432.55,602.52,438.65,596.43,446.18,596.43z"/>
		<path style="fill:#9E5B16;" d="M356.86,100.59c21.39,89.36,20.68,87.27,49.43,181.92c11.81,38.87,17.27,60.81,22.44,89.19
			c0,0.01,0,0.01,0,0.02c-4.88,24.66-7.831,45.49-9.63,61.82l-92.69-133.27l19.27-43.55l-49.62,11.82l-7.81-147.35l1.41-0.32
			l66.99-21.16C356.72,100.01,356.79,100.3,356.86,100.59z"/>
	</g>
	<g>
		<path style="fill:none;stroke:#000000;stroke-width:23.2119;" d="M272.5,370.53L221.89,666.8l-18.91-2.24L101.96,652.62
			l62.51-406.45c0,0,17.41-76.08,41.26-89.62c15.01-8.52,54.55-26.23,82.52-35.36l7.81,147.35l49.62-11.82l-19.27,43.55
			l92.69,133.27l9.63,13.84"/>
		<polyline style="fill:none;stroke:#000000;stroke-width:23.2119;" points="411.19,767.38 206.41,767.38 202.81,665.97 		"/>
		<path style="fill:none;stroke:#000000;stroke-width:23.2119;" d="M289.66,120.87l66.99-21.16c0.07,0.3,0.14,0.59,0.21,0.88
			c21.39,89.36,20.68,87.27,49.43,181.92c11.81,38.87,17.27,60.81,22.44,89.19"/>
		<path style="fill:none;stroke:#000000;stroke-width:23.2119;" d="M584.96,370.53l50.62,296.26l18.54-2.19L755.5,652.62
			l-62.51-406.45c0,0-17.41-76.08-41.26-89.62c-15-8.52-52.601-24.54-80.7-33.55L553.77,279.63l-49.63-11.82l17.601,48.97
			L416.36,474.66l0.06,292.72v0.11"/>
		<polyline style="fill:none;stroke:#000000;stroke-width:23.2119;" points="411.19,767.38 416.42,767.38 446.27,767.38 
			651.05,767.38 654.32,666.29 		"/>
		<path style="fill:none;stroke:#000000;stroke-width:7.7373;" d="M432.71,503.34c0,7.53,6.1,13.63,13.63,13.63
			c7.51,0,13.61-6.1,13.61-13.63c0-7.52-6.101-13.62-13.61-13.62C438.81,489.72,432.71,495.82,432.71,503.34z"/>
		<path style="fill:none;stroke:#000000;stroke-width:7.7373;" d="M432.55,610.05c0,7.521,6.101,13.63,13.63,13.63
			c7.511,0,13.61-6.109,13.61-13.63c0-7.53-6.1-13.62-13.61-13.62C438.65,596.43,432.55,602.52,432.55,610.05z"/>
		<path style="fill:none;stroke:#000000;stroke-width:23.2119;" d="M428.73,371.72c-4.88,24.66-7.831,45.49-9.63,61.82
			c-2.9,26.47-2.74,41.12-2.74,41.12"/>
		<path style="fill:none;stroke:#000000;stroke-width:23.2119;" d="M571.03,123l-63.49-21.06c0,0-28.55,89-56.37,180.57
			c-10.15,33.41-17.34,63.39-22.439,89.19c0,0.01,0,0.01,0,0.02"/>
		<rect x="488.57" y="588.65" style="fill:none;stroke:#000000;stroke-width:23.2119;" width="125.92" height="43.319"/>
		<path style="fill:none;stroke:#000000;stroke-width:23.2119;" d="M356.66,100.68c0.07-0.03,0.13-0.06,0.2-0.09
			c28.43-12.81,88.05-17.62,150.68,1.35"/>
	</g>
</g>
<rect style="fill:none;" width="850.394" height="850.394"/>
</svg>
