<svg id="Layer_1" xmlns="http://www.w3.org/2000/svg" viewBox="0 0 850 850"><style>.st0{fill:#231f20}.st1{fill:#7a7878}.st2{fill:#ffeec8}.st3{fill:#a9d7f3}.st4,.st5{fill:none;stroke:#231f20;stroke-width:21;stroke-linecap:round;stroke-miterlimit:10}.st5{stroke-width:14}</style><path class="st0" d="M138.5 793.8h-2.2l-2.5-.8-2.3-1.2-1-1-1-.8-.7-1-.8-1.2-.5-1.3-.5-1.2v-2.8l.5-1.7.5-1.5 5.3-9.5 2.7-4.5 2.3-4.8 26.2-.2.5 1.7.3 1.5v1l-.3 1-.2.8-.5.7-.5.5-.8.3-1.7.7-1.5.3-1.5.5-.5.5-.5.5-1.5 2-1 2.2-1 2.3-.8 2.2-.7 2.5-1.3 2.5-1.5 2.3-1.5 2.2-2 1.8-2.2 1.7-2.5 1-1.5.5zM240.8 779.3l.7 1.5.5 1.7v2.8l-.5 1.2-.5 1.3-.7 1.2-.8 1-1 .8-1 1-2.5 1.2-2.2.8h-2.3l-1.5-.3-1.2-.5-2.5-1-2.3-1.7-2-1.8-1.7-2.2-1.3-2.3-1.2-2.5-.8-2.5-.7-2.2-1-2.3-1-2.2-1.5-2-.5-.5-.5-.5-1.5-.5-1.8-.3-1.5-.7-.7-.3-.5-.5-.5-.7-.5-.8v-2l.2-1.5.5-1.7H231v.7l2.3 4.5 2.5 4.5zM395.3 760.3l.5 1.7.2 1.5v1l-.2 1-.3.8-.5.7-.5.5-.7.3-1.8.7-1.5.3-1.5.5-.5.5-.5.5-1.5 2-1 2.2-1 2.3-.7 2.2-.8 2.5-1.2 2.5-1.5 2.3-1.5 2.2-2 1.8-2.3 1.7-2.5 1-1.5.5-1.2.3H367l-2.5-.8-2.2-1.2-1-1-1-.8-.8-1-.7-1.2-.5-1.3-.5-1.2v-2.8l.5-1.7.5-1.5 5.2-9.5 2.8-4.5 2.2-4.8zM471.5 779.3l.8 1.5.5 1.7v2.8l-.5 1.2-.5 1.3-.8 1.2-.7 1-1 .8-1 1-2.5 1.2-2.3.8h-2.2l-1.5-.3-1.3-.5-2.5-1-2.2-1.7-2-1.8-1.8-2.2-1.2-2.3-1.3-2.5-.7-2.5-.8-2.2-1-2.3-1.2-2.2-1.3-2-.5-.5-.7-.3-1.5-.5-1.5-.2-1.8-.5-.7-.3-.5-.5-.5-.5-.3-1v-2.2l.5-1.5.5-1.8v-.2h26.3v.7l2.2 4.5 2.5 4.5zM647 540.5l.5 1.5v2.5l-.2.8-.3.7-.5.8-1.5 1-1.5.5-1.5.7-1.5.5-1 .8-1.2 2-1.3 2.2-1 2.3-.7 2.5-.8 2.5-1.2 2.2-1.3 2.5-1.7 2-2 2-2.3 1.5-2.5 1.3-1.2.5-1.5.2h-1l-1.3-.2-2.2-.8-2.3-1.2-2.2-1.8-.8-1-.7-1-.5-1.2-.3-1.5-.2-1.3v-1.5l.5-1.5.7-1.5 5.3-9.5 2.5-4.7 2.2-4.5zM723.3 559.5l.7 1.5.3 1.5v2.8l-.3 1.5-.7 1.2-.5 1-1 1-1 1-1 .8-2.3 1.2-2.5.8-1 .2h-1.2l-1.3-.2-1.5-.5-2.5-1.3-2.2-1.5-2-2-1.5-2-1.5-2.5-1-2.2-1-2.5-.8-2.5-1-2.3-1-2.2-1.5-2-.5-.5-.5-.3-1.5-.5-1.5-.5-1.7-.5-.5-.2-.8-.5-.5-.8-.2-.7-.3-1v-1.3l.3-1.2.5-1.8h26.5v.8l2.2 4.5 2.5 4.5z"/><path class="st1" d="M204.5 760.3h-3.7l-17-183.5v-.8L166 760.3h-1.5l-26.2.2h-8.8l-.2-5.7-.3-9.3.3-27.5 1-74.7 2-108.5v-4.5h102.2l.3 5 1.7 115.5 2 109.5H231zM369 760.5h-9v-5.7l-.2-9.3.2-27.5 1-74.7 2-108.5v-4.5h102.3l.2 5 1.8 115.5 2 109.5h-38l-16.8-183.5v-.8l-17.7 184.3h-1.5zM686.8 540.5H683L666.3 357v-.7l-17.8 184.2H647l-26.5.3h-8.7l-.3-5.8v-36.7l1-74.8 2-108.5v-4.5H717v4.8l1.8 115.7 2 109.5h-7.5z"/><path class="st2" d="M111 546.3l1.8.2v1l.5 2 .5 2.8.2 3.7.3 4-.3 5.3-.5 4.7-.5 2.3-.5 1.7-.5 1.8-.7 1.2-.8-.2-.5-.3-.7-1.7-.3-.8-.5-.7-.7-.8-1-.2-.5 1.7-.5 1.8-.8 4.5-.5 2.2-.7 2-.8 1.3-.7.5-.8.2-1.2.3-1.5-.3-1.5-.5-1.3-.7-1.2-1-1.3-1-.7-1.3-.8-1-2.2-5.7-1.3-4-1.2-4.5-1-5.3-.8-5.2-.2-2.5V551l.2-2.7.3-2.5.5-4.3h.7zM254 546.8l25.8-4.5.5 4 .2 2.7.3 2.8-.3 5.2-.7 5.3-1 5-1.3 4.7-1.2 4-2.3 5.5-.5 1.3-1 1-1 1.2-1.2 1-1.5.8-1.5.5-1.3.2-1.5-.2-.7-.3-.5-.5-1-1.5-.8-1.7-.5-2.3-.7-4.5-.5-2-.5-1.5-1 .3-.8.5-.5.7-.2 1-.8 1.5-.5.5h-.7l-.8-1-.5-1.7-.5-2-.5-2-.5-5v-9l.3-3.8.5-3 .7-1.7-.2-1.3zM158.8 369.3l-.5-1.5 2-1 1.7-1.3 1.8-1.2 1.2-1.3 1.8-2.2.5-1 1.5-1.3 3.5 2.3 1.7.7 2 .8 1.8.7 2 .3 2 .2 2 .3 2-.3 2-.2 2-.3 2-.7 1.7-.8 2-.7 3.3-2.3 2 .3.7 1 1.5 2.5 1.3 1.5 1.2 1.2 1.5 1.3 1.5 1-.5 1.2h-.2l-.8 1.8-.7 1.7-1 1.8-1 1.5-1.3 1.5-1.2 1.2-1.5 1.3-1.5 1.2-1.5 1-1.8.8-2 .7-1.7.8-2.3.5-2 .2-2.2.3H183l-3.7-.5-3.8-.8-3.2-1.2-3.3-1.8-2.7-2-2.5-2.5-2-2.7-1.5-3-3.5-.3z"/><path class="st2" d="M183.8 278l3.2.3 3.3.5 3 1 2.7 1.5 2.8 1.7 2.7 2.3 2.5 2.5 2.3 2.7 2 3 1.7 3.3 1.5 3.5 1.5 3.7 1 4 .8 4.3.5 4.2.2 4.3-.2 3-.3 3-.2 3-.5 2.7-1.5 5.5-2 5-1 2.5-1.3 2.3-1.5 2-1.5 2-1.5 2-1.5 1.7-1.7 1.5-2 1.5-3.3 2.3-2 .7-1.7.8-2 .7-2 .3-2 .2-2 .3-2-.3-2-.2-2-.3-1.8-.7-2-.8-1.7-.7-3.5-2.3-1.8-1.5-1.7-1.5-1.8-1.7-1.5-2-1.5-2-1.2-2-1.3-2.3-1.2-2.5-2-5-1.3-5.5-.5-2.7-.5-3-.2-3v-3l.2-4.3.3-4.2 1-4.3 1-4 1.2-3.7 1.5-3.5 2-3.3 2-3 2.3-2.7 2.5-2.5 2.5-2.3 2.7-1.7 3-1.5 3-1 3-.5zM511 546.3l.3 2.7.2 2.8-.2 5.2-.8 5.3-1 5-1.2 4.7-1.3 4-2.2 5.5-.5 1.3-1 1-1 1.2-1.3 1-1.5.8-1.5.5-1.2.2-1.5-.2-.8-.3-.5-.5-1-1.5-.7-1.7-.5-2.3-.8-4.5-.5-2-.5-1.5-1 .3-.7.5-.5.7-.3 1-.7 1.5-.5.5h-.8l-.7-1-.5-1.7-.5-2-.5-2-.5-5v-9.3l.2-3.5.5-3 .8-1.7-.3-1.3.8-.2 25.2-4.5h.5zM342.8 546.3l1 .2-.3 1 .5 2 .5 2.8.3 3.7.2 4-.2 5.3-.5 4.7-.5 2.3-.5 1.7-.5 1.8-.8 1.2-.7-.2-.5-.3-.8-1.7-.2-.8-.5-.7-.8-.8-1-.2-.5 1.7-.5 1.8-.7 4.5-.5 2.2-.8 2-1 1.3-.5.5-.7.2-1.3.3-1.5-.3-1.5-.5-1.2-.7-1.3-1-1.2-1-.8-1.3-.7-1-2.3-5.7-1.2-4-1.3-4.5-1-5.3-.7-5.2-.3-2.5V551l.3-2.7.2-2.5.5-4.3h1.8zM431.5 358.8l.8 1 1.5 2.5 1.2 1.5 1.3 1.2 1.5 1.3 1.5 1-.5 1.2h-.3l-.7 1.8-.8 1.7-1 1.8-1 1.5-1.2 1.5-1.3 1.2-1.5 1.3-1.5 1.2-1.5 1-1.7.8-2 .7-1.8.8-2.2.5-2 .2-2.3.3h-2.2l-3.8-.5-3.7-.8-3.3-1.2-3.2-1.8-2.8-2-2.5-2.5-2-2.7-1.5-3-3.5-.3 2-.7-.7-1.5 2.2-1 1.8-1.3 1.7-1.2 1.3-1.3 1.7-2.2.5-1 1.5-1.3 3.5 2.3 1.8.7 2 .8 1.7.7 2 .3 2 .2 2 .3 2-.3 2-.2 2-.3 2-.7 1.8-.8 2-.7 3.2-2.3z"/><path class="st2" d="M414.5 278l3.3.3 3.2.5 3 1 2.8 1.5 2.7 1.7 2.8 2.3 2.5 2.5 2.2 2.7 2 3 1.8 3.3 1.5 3.5 1.5 3.7 1 4 .7 4.3.5 4.2.3 4.3-.3 3-.2 3-.3 3-.5 2.7-1.5 5.5-2 5-1 2.5-1.2 2.3-1.5 2-1.5 2-1.5 2-1.5 1.7-1.8 1.5-2 1.5-3.2 2.3-2 .7-1.8.8-2 .7-2 .3-2 .2-2 .3-2-.3-2-.2-2-.3-1.7-.7-2-.8-1.8-.7-3.5-2.3-1.7-1.5-1.8-1.5-1.7-1.7-1.5-2-1.5-2-1.3-2-1.2-2.3-1.3-2.5-2-5-1.2-5.5-.5-2.7-.5-3-.3-3v-7.3l.5-4.2 1-4.3 1-4 1.3-3.7 1.5-3.5 2-3.3 2-3 2.2-2.7 2.5-2.5 2.5-2.3 2.8-1.7 3-1.5 3-1 3-.5zM762.5 326.5l.5 2.8v2.5l-.2 5.5-.5 5.2-1 5-1.3 4.5-1.5 4-2.2 5.8-.5 1-1 1.2-1 1-1.3 1-1.5.8-1.2.5-1.5.2h-1.5l-.5-.2-.8-.5-1-1.5-.7-2-.5-2-.8-4.5-.2-2-.5-1.8-1 .5-.8.5-.5.8-.5 1-.7 1.5-.5.5h-.8l-.5-1.3-.7-1.5-.5-2-.3-2.2-.5-4.8-.2-5.2v-4l.5-3.8.2-2.7.8-2-.3-.8 1.8-.5 24.2-4.5.5-.2zM593.5 326.3l1.8.5-.3 1 .5 1.7.5 3 .5 3.5v4.3l-.2 5-.5 5-.3 2-.5 2-.7 1.7-.5 1h-.8l-.5-.5-.7-1.5-.5-1-.5-.7-.8-.5-1-.3-.5 1.5-.2 2-.8 4.5-.5 2.3-.7 1.7-1 1.5-.8.5-.5.3-1.5.2-1.5-.2-1.2-.5-1.5-.8-1.3-1-1-1.2-1-1-.7-1.3-2-5.5-1.5-4-1.3-4.7-1-5-.7-5.3v-8l.5-2.7.5-4h.5zM666.3 58l3.2.3 3 .7 3 1 3 1.5 2.8 1.8 2.5 2.2 2.5 2.3 2.2 3 2 3 1.8 3.2 1.7 3.5 1.3 3.8 1 4 .7 4 .5 4.2.3 4.5v3l-.3 3-.5 2.8-.5 3-1.5 5.2-1.7 5.3-1.3 2.2-1.2 2.3-1.3 2.2-1.5 2-1.5 1.8-1.7 1.7-1.8 1.8-1.7 1.5-1.8 1-1.7 1-1.8 1-2 .7-1.7.5-2 .5-2 .3H664l-1.7-.3-2-.5-2-.5-1.8-.7-2-1-3.5-2-1.7-1.5-1.8-1.8-1.5-1.7-1.7-1.8-1.3-2-1.5-2.2-1.2-2.3-1-2.2-2-5.3-1.5-5.2-.5-3-.5-2.8v-3l-.3-3 .3-4.5.5-4.2.7-4 1-4 1.3-3.8L640 77l1.8-3.2 2-3 2.2-3 2.5-2.3 2.5-2.2 2.8-1.8 3-1.5 3-1 3.2-.7z"/><path class="st2" d="M690 148.5l-.5 2-1 1.8-.7 1.5-1.3 1.7-1 1.5-1.5 1.3-1.2 1.2-1.5 1-1.8 1.3-1.7.7-1.8.8-2 .7-2 .3-2.2.5h-4.5l-3.8-.3-3.7-.7-3.3-1.3-3.2-1.7-2.8-2.3-2.2-2.2-2-2.8-1.8-3.2h-3.2l2-.8-.8-1.5 2-1 2-1.2 1.5-1.3 1.3-1.5 1.7-2 .8-1 1.2-1.2 3.5 2 2 1 1.8.7 2 .5 2 .5 1.7.3h4.3l2-.3 2-.5 1.7-.5 2-.7 1.8-1 1.7-1 1.8-1 2 .2.5 1 1.7 2.5 1 1.3 1.3 1.5 1.5 1.2 1.7 1-.5 1.3z"/><path class="st3" d="M461 455.3l3.8 60.2.5 7v7.8H363l.5-22.8.8-23.5 1.5-29.5-22 92-1-.2-24-4.8H317l5.3-39 3.2-22.7 1.5-9.5 1.3-7 4.5-21.8 4-17 3.5-13 3-9.2 2.5-6.3 1.5-3.7 1.2-1.8.3-.5 2.2-2 2.8-2 3.2-2 3.5-2 7.5-3.7 7.8-3.5 6.2-2.5 5.5-2.3 3.5.3 1.5 3 2 2.7 2.5 2.5 2.8 2 3.2 1.8 3.3 1.2 3.7.8 3.8.5h2.2l2.3-.3 2-.2 2.2-.5 1.8-.8 2-.7 1.7-.8 1.5-1 1.5-1.2 1.5-1.3 1.3-1.2 1.2-1.5 1-1.5 1-1.8.8-1.7.7-1.8h.3l9.7 4 6 2.8 6 2.7 6 3.3 5.8 3 4.7 3.2 2 1.5 1.8 1.8.2.2 1 1.8 1.5 3.2 2 6 2.8 9.3 3.2 12.7 3.5 17.5 4.3 22.3 2.5 16.7 3.2 22.8 5.5 39h-.5l-25.2 4.5-.8.2-22-92zM714.8 310.5H614.5l.5-23 1-23.5 1.3-29.2-22 92-1.8-.5-24.2-4.5h-.5l5.2-39 3.3-22.8 1.5-9.5 1.2-7.2 4.5-21.8 4-17 3.5-12.7 3-9.3 2.3-6.2 1.7-3.8 1-2 .5-.5 2.3-2 2.7-2 3-2 3.5-2 7.5-3.7 7.8-3.3 6.5-2.7 5.5-2h3.2l1.8 3.2 2 2.8 2.2 2.2 2.8 2.3 3.2 1.7 3.3 1.3 3.7.7 3.8.3h4.5l2.2-.5 2-.3 2-.7 1.8-.8 1.7-.7 1.8-1.3 1.5-1 1.2-1.2 1.5-1.3 1-1.5 1.3-1.7.7-1.5 1-1.8.5-2 .5.3 9.8 4 5.7 2.5 6.3 3 6 3 5.5 3.2 4.7 3.3 2 1.5 1.8 1.5.2.5 1 1.5 1.5 3.5 2.3 6 2.5 9 3.2 13 3.8 17.2 4 22.5 2.7 16.5 3.3 23 5.2 38.8-.5.2-24.2 4.5-1.8.5-22-92.2h-.7l3.5 60.5h.2l.3 7 .2 7.7zM230.3 455.3l3.7 60.2.5 7v7.8H132.3l.5-22.8.7-23.5 1.5-29.5-22.2 92-1.8-.2-24-4.8h-.7l5.2-39 3.3-22.7 1.5-9.5 1.2-7 4.5-21.8 4-17 3.5-13 3-9.2 2.5-6.3 1.8-3.7 1-1.8.2-.5 2.3-2 2.7-2 3.3-2 3.5-2 7.5-3.7 7.7-3.5 6.3-2.5 5.5-2.3 3.5.3 1.5 3 2 2.7 2.5 2.5 2.7 2 3.3 1.8 3.2 1.2 3.8.8 3.7.5h2.3l2.2-.3 2-.2 2.3-.5 1.7-.8 2-.7 1.8-.8 1.5-1 1.5-1.2 1.5-1.3 1.2-1.2 1.3-1.5 1-1.5 1-1.8.7-1.7.8-1.8h.2l9.8 4 6 2.8 6 2.7 6 3.3 5.7 3 4.8 3.2 2 1.5 1.7 1.8.3.2 1 1.8 1.5 3.2 2 6 2.7 9.3 3.3 12.7 3.5 17.5 4.2 22.3 2.5 16.7 3.3 22.8 5.5 39-25.8 4.5-.7.2-22-92z"/><path class="st4" d="M665 590.3V770M624.8 726.3l40.5 44.5 40.2-44.5"/><path class="st5" d="M168.8 358.5L167 357l-1.7-1.5-1.8-1.7-1.5-2-1.5-2-1.2-2-1.3-2.3-1.2-2.5-2-5-1.3-5.5-.5-2.7-.5-3-.2-3v-3l.2-4.3.3-4.2 1-4.3 1-4 1.2-3.7 1.5-3.5 2-3.3 2-3 2.3-2.7 2.5-2.5 2.5-2.3 2.7-1.7 3-1.5 3-1 3-.5 3.3-.3 3.2.3 3.3.5 3 1 2.7 1.5 2.8 1.7 2.7 2.3 2.5 2.5 2.3 2.7 2 3 1.7 3.3 1.5 3.5 1.5 3.7 1 4 .8 4.3.5 4.2.2 4.3-.2 3-.3 3-.2 3-.5 2.7-1.5 5.5-2 5-1 2.5-1.3 2.3-1.5 2-1.5 2-1.5 2-1.5 1.7-1.7 1.5-2 1.5-3.3 2.3-2 .7-1.7.8-2 .7-2 .3-2 .2-2 .3-2-.3-2-.2-2-.3-1.8-.7-2-.8-1.7-.7zM234 517.5v-2l-3.7-60.2v-1"/><path class="st5" d="M135 454v.5l-1.5 29.5-.7 23.5-.5 22.8v4.5l-2 108.5-1 74.7-.3 27.5.3 9.3.2 5.7h8.8l26.2-.2h1.5L183.8 576v.8l17 183.5h37.7l-2-109.5-1.7-115.5-.3-5v-7.8l-.5-7M134.3 530.3h98.2M85.8 545.8l.5-4.3 5.2-39 3.3-22.7 1.5-9.5 1.2-7 4.5-21.8 4-17 3.5-13 3-9.2 2.5-6.3 1.8-3.7 1-1.8.2-.5 2.3-2 2.7-2 3.3-2 3.5-2 7.5-3.7 7.7-3.5 6.3-2.5 5.5-2.3 2-.7 5-1.8"/><path class="st5" d="M135 454.5l-22.2 92v1l.5 2 .5 2.8.2 3.7.3 4-.3 5.3-.5 4.7-.5 2.3-.5 1.7-.5 1.8-.7 1.2-.8-.2-.5-.3-.7-1.7-.3-.8-.5-.7-.7-.8-1-.2-.5 1.7-.5 1.8-.8 4.5-.5 2.2-.7 2-.8 1.3-.7.5-.8.2-1.2.3-1.5-.3-1.5-.5-1.3-.7-1.2-1-1.3-1-.7-1.3-.8-1-2.2-5.7-1.3-4-1.2-4.5-1-5.3-.8-5.2-.2-2.5V551l.2-2.7.3-2.5M87 541.5l24 4.8M280.3 546.3l-.5-4-5.5-39-3.3-22.8-2.5-16.7-4.2-22.3-3.5-17.5-3.3-12.7-2.7-9.3-2-6-1.5-3.2-1-1.8-.3-.2-1.7-1.8-2-1.5-4.8-3.2-5.7-3-6-3.3-6-2.7-6-2.8-9.8-4h-.2l-5-2M231.3 455l22 92 .2 1.3-.7 1.7-.5 3-.3 3.8v9l.5 5 .5 2 .5 2 .5 1.7.8 1h.7l.5-.5.8-1.5.2-1 .5-.7.8-.5 1-.3.5 1.5.5 2 .7 4.5.5 2.3.8 1.7 1 1.5.5.5.7.3 1.5.2 1.3-.2 1.5-.5 1.5-.8 1.2-1 1-1.2 1-1 .5-1.3 2.3-5.5 1.2-4 1.3-4.7 1-5 .7-5.3.3-5.2-.3-2.8-.2-2.7"/><path class="st5" d="M280.3 542.3h-.5l-25.8 4.5M207.8 368.3v.2l-.8 1.8-.7 1.7-1 1.8-1 1.5-1.3 1.5-1.2 1.2-1.5 1.3-1.5 1.2-1.5 1-1.8.8-2 .7-1.7.8-2.3.5-2 .2-2.2.3H183l-3.7-.5-3.8-.8-3.2-1.2-3.3-1.8-2.7-2-2.5-2.5-2-2.7-1.5-3M200.8 358.8l.7 1 1.5 2.5 1.3 1.5 1.2 1.2 1.5 1.3 1.5 1 1.5.5M167.3 359.8l-.5 1-1.8 2.2-1.2 1.3-1.8 1.2-1.7 1.3-2 1h-.3M138.3 760.3v.2l-2.3 4.8-2.7 4.5-5.3 9.5-.5 1.5-.5 1.7v2.8l.5 1.2.5 1.3.8 1.2.7 1 1 .8 1 1 2.3 1.2 2.5.8h2.2l1.3-.3 1.5-.5 2.5-1 2.2-1.7 2-1.8 1.5-2.2 1.5-2.3 1.3-2.5.7-2.5.8-2.2 1-2.3 1-2.2 1.5-2 .5-.5.5-.5 1.5-.5 1.5-.3 1.7-.7.8-.3.5-.5.5-.7.2-.8.3-1v-1l-.3-1.5-.5-1.7-.5-.8M231 761l2.3 4.5 2.5 4.5 5 9.3.7 1.5.5 1.7v2.8l-.5 1.2-.5 1.3-.7 1.2-.8 1-1 .8-1 1-2.5 1.2-2.2.8h-2.3l-1.5-.3-1.2-.5-2.5-1-2.3-1.7-2-1.8-1.7-2.2-1.3-2.3-1.2-2.5-.8-2.5-.7-2.2-1-2.3-1-2.2-1.5-2-.5-.5-.5-.5-1.5-.5-1.8-.3-1.5-.7-.7-.3-.5-.5-.5-.7-.5-.8v-2l.2-1.5.5-1.7.5-.8M399.5 358.5l-1.7-1.5-1.8-1.5-1.7-1.7-1.5-2-1.5-2-1.3-2-1.2-2.3-1.3-2.5-2-5-1.2-5.5-.5-2.7-.5-3-.3-3v-7.3l.5-4.2 1-4.3 1-4 1.3-3.7 1.5-3.5 2-3.3 2-3 2.2-2.7 2.5-2.5 2.5-2.3 2.8-1.7 3-1.5 3-1 3-.5 3.2-.3 3.3.3 3.2.5 3 1 2.8 1.5 2.7 1.7 2.8 2.3 2.5 2.5 2.2 2.7 2 3 1.8 3.3 1.5 3.5 1.5 3.7 1 4 .7 4.3.5 4.2.3 4.3-.3 3-.2 3-.3 3-.5 2.7-1.5 5.5-2 5-1 2.5-1.2 2.3-1.5 2-1.5 2-1.5 2-1.5 1.7-1.8 1.5-2 1.5-3.2 2.3-2 .7-1.8.8-2 .7-2 .3-2 .2-2 .3-2-.3-2-.2-2-.3-1.7-.7-2-.8-1.8-.7zM464.8 517.5v-2l-3.8-60.2v-1"/><path class="st5" d="M365.8 454v.5l-1.5 29.5-.8 23.5-.5 22.8v4.5l-2 108.5-1 74.7-.2 27.5.2 9.3v5.7h9l26.3-.2h1.5L414.5 576v.8l16.8 183.5h38l-2-109.5-1.8-115.5-.2-5v-7.8l-.5-7M365 530.3h98M316.5 545.8l.5-4.3 5.3-39 3.2-22.7 1.5-9.5 1.3-7 4.5-21.8 4-17 3.5-13 3-9.2 2.5-6.3 1.5-3.7 1.2-1.8.3-.5 2.2-2 2.8-2 3.2-2 3.5-2 7.5-3.7 7.8-3.5 6.2-2.5 5.5-2.3 2-.7 5-1.8"/><path class="st5" d="M365.8 454.5l-22 92-.3 1 .5 2 .5 2.8.3 3.7.2 4-.2 5.3-.5 4.7-.5 2.3-.5 1.7-.5 1.8-.8 1.2-.7-.2-.5-.3-.8-1.7-.2-.8-.5-.7-.8-.8-1-.2-.5 1.7-.5 1.8-.7 4.5-.5 2.2-.8 2-1 1.3-.5.5-.7.2-1.3.3-1.5-.3-1.5-.5-1.2-.7-1.3-1-1.2-1-.8-1.3-.7-1-2.3-5.7-1.2-4-1.3-4.5-1-5.3-.7-5.2-.3-2.5V551l.3-2.7.2-2.5M318.8 541.5l24 4.8M511 546.3l-.5-4-5.5-39-3.2-22.8-2.5-16.7-4.3-22.3-3.5-17.5-3.2-12.7-2.8-9.3-2-6-1.5-3.2-1-1.8-.2-.2-1.8-1.8-2-1.5-4.7-3.2-5.8-3-6-3.3-6-2.7-6-2.8-9.7-4h-.3l-5-2M462 455l22 92 .3 1.3-.8 1.7-.5 3-.2 3.5v9.3l.5 5 .5 2 .5 2 .5 1.7.7 1h.8l.5-.5.7-1.5.3-1 .5-.7.7-.5 1-.3.5 1.5.5 2 .8 4.5.5 2.3.7 1.7 1 1.5.5.5.8.3 1.5.2 1.2-.2 1.5-.5 1.5-.8 1.3-1 1-1.2 1-1 .5-1.3 2.2-5.5 1.3-4 1.2-4.7 1-5 .8-5.3.2-5.2-.2-2.8-.3-2.7M510 542.3l-25.2 4.5"/><path class="st5" d="M438.5 368.3v.2l-.7 1.8-.8 1.7-1 1.8-1 1.5-1.2 1.5-1.3 1.2-1.5 1.3-1.5 1.2-1.5 1-1.7.8-2 .7-1.8.8-2.2.5-2 .2-2.3.3h-2.2l-3.8-.5-3.7-.8-3.3-1.2-3.2-1.8-2.8-2-2.5-2.5-2-2.7-1.5-3M431.5 358.8l.8 1 1.5 2.5 1.2 1.5 1.3 1.2 1.5 1.3 1.5 1 1.5.5M398 359.8l-.5 1-1.7 2.2-1.3 1.3-1.7 1.2-1.8 1.3-2.2 1M369 760.3v.2l-2.2 4.8-2.8 4.5-5.2 9.5-.5 1.5-.5 1.7v2.8l.5 1.2.5 1.3.7 1.2.8 1 1 .8 1 1 2.2 1.2 2.5.8h2.3l1.2-.3 1.5-.5 2.5-1 2.3-1.7 2-1.8 1.5-2.2 1.5-2.3 1.2-2.5.8-2.5.7-2.2 1-2.3 1-2.2 1.5-2 .5-.5.5-.5 1.5-.5 1.5-.3 1.8-.7.7-.3.5-.5.5-.7.3-.8.2-1v-1l-.2-1.5-.5-1.7-.5-.8M461.8 761l2.2 4.5 2.5 4.5 5 9.3.8 1.5.5 1.7v2.8l-.5 1.2-.5 1.3-.8 1.2-.7 1-1 .8-1 1-2.5 1.2-2.3.8h-2.2l-1.5-.3-1.3-.5-2.5-1-2.2-1.7-2-1.8-1.8-2.2-1.2-2.3-1.3-2.5-.7-2.5-.8-2.2-1-2.3-1.2-2.2-1.3-2-.5-.5-.7-.3-1.5-.5-1.5-.2-1.8-.5-.7-.3-.5-.5-.5-.5-.3-1v-2.2l.5-1.5.5-1.8M651 138.8l-1.7-1.5-1.8-1.8-1.5-1.7-1.7-1.8-1.3-2-1.5-2.2-1.2-2.3-1-2.2-2-5.3-1.5-5.2-.5-3-.5-2.8v-3l-.3-3 .3-4.5.5-4.2.7-4 1-4 1.3-3.8L640 77l1.8-3.2 2-3 2.2-3 2.5-2.3 2.5-2.2 2.8-1.8 3-1.5 3-1 3.2-.7 3.3-.3 3.2.3 3 .7 3 1 3 1.5 2.8 1.8 2.5 2.2 2.5 2.3 2.2 3 2 3 1.8 3.2 1.7 3.5 1.3 3.8 1 4 .7 4 .5 4.2.3 4.5v3l-.3 3-.5 2.8-.5 3-1.5 5.2-1.7 5.3-1.3 2.2-1.2 2.3-1.3 2.2-1.5 2-1.5 1.8-1.7 1.7-1.8 1.8-1.7 1.5-1.8 1-1.7 1-1.8 1-2 .7-1.7.5-2 .5-2 .3H664l-1.7-.3-2-.5-2-.5-1.8-.7-2-1zM716.5 297.8l-.2-2-3.5-60.5v-.8"/><path class="st5" d="M617.3 234v.8L616 264l-1 23.5-.5 23v4.5l-2 108.5-1 74.8V535l.3 5.8h8.7l26.5-.3h1.5l17.8-184.2v.7L683 540.5h37.8l-2-109.5-1.8-115.7v-4.8l-.2-7.7-.3-7M616.5 310.5h98.3M568.3 325.8l.5-4 5.2-39 3.3-22.8 1.5-9.5 1.2-7.2 4.5-21.8 4-17 3.5-12.7 3-9.3 2.3-6.2 1.7-3.8 1-2 .5-.5 2.3-2 2.7-2 3-2 3.5-2 7.5-3.7 7.8-3.3 6.5-2.7 5.5-2 2-.8 5-1.7"/><path class="st5" d="M617.3 234.8l-22 92-.3 1 .5 1.7.5 3 .5 3.5v4.3l-.2 5-.5 5-.3 2-.5 2-.7 1.7-.5 1h-.8l-.5-.5-.7-1.5-.5-1-.5-.7-.8-.5-1-.3-.5 1.5-.2 2-.8 4.5-.5 2.3-.7 1.7-1 1.5-.8.5-.5.3-1.5.2-1.5-.2-1.2-.5-1.5-.8-1.3-1-1-1.2-1-1-.7-1.3-2-5.5-1.5-4-1.3-4.7-1-5-.7-5.3v-8l.5-2.7M569.3 321.8l24.2 4.5M762.5 326.5l-.5-4.2-5.2-38.8-3.3-23-2.7-16.5-4-22.5-3.8-17.2-3.2-13-2.5-9-2.3-6-1.5-3.5-1-1.5-.2-.5-1.8-1.5-2-1.5-4.7-3.3-5.5-3.2-6-3-6.3-3-5.7-2.5-9.8-4-.5-.3-4.7-1.7M713.5 235.3l22 92.2.3.8-.8 2-.2 2.7-.5 3.8v4l.2 5.2.5 4.8.3 2.2.5 2 .7 1.5.5 1.3h.8l.5-.5.7-1.5.5-1 .5-.8.8-.5 1-.5.5 1.8.2 2 .8 4.5.5 2 .7 2 1 1.5.8.5.5.2h1.5l1.5-.2 1.2-.5 1.5-.8 1.3-1 1-1 1-1.2.5-1 2.2-5.8 1.5-4 1.3-4.5 1-5 .5-5.2.2-5.5v-2.5l-.5-2.8M761.5 322.5l-24.2 4.5"/><path class="st5" d="M690.3 148.3l-.3.2-.5 2-1 1.8-.7 1.5-1.3 1.7-1 1.5-1.5 1.3-1.2 1.2-1.5 1-1.8 1.3-1.7.7-1.8.8-2 .7-2 .3-2.2.5h-4.5l-3.8-.3-3.7-.7-3.3-1.3-3.2-1.7-2.8-2.3-2.2-2.2-2-2.8-1.8-3.2M683.3 139l.5 1 1.7 2.5 1 1.3 1.3 1.5 1.5 1.2 1.7 1 1.3.5M649.8 140l-.8 1-1.7 2-1.3 1.5-1.5 1.3-2 1.2-2 1M620.8 540.3l-.3.5-2.2 4.5-2.5 4.7-5.3 9.5-.7 1.5-.5 1.5v1.5l.2 1.3.3 1.5.5 1.2.7 1 .8 1 2.2 1.8 2.3 1.2 2.2.8 1.3.2h1l1.5-.2 1.2-.5 2.5-1.3 2.3-1.5 2-2 1.7-2 1.3-2.5 1.2-2.2.8-2.5.7-2.5 1-2.3 1.3-2.2 1.2-2 1-.8 1.5-.5 1.5-.7 1.5-.5 1.5-1 .5-.8.3-.7.2-.8V542l-.5-1.5-.5-2M713.3 541.3l2.2 4.5 2.5 4.5 5.3 9.2.7 1.5.3 1.5v2.8l-.3 1.5-.7 1.2-.5 1-1 1-1 1-1 .8-2.3 1.2-2.5.8-1 .2h-1.2l-1.3-.2-1.5-.5-2.5-1.3-2.2-1.5-2-2-1.5-2-1.5-2.5-1-2.2-1-2.5-.8-2.5-1-2.3-1-2.2-1.5-2-.5-.5-.5-.3-1.5-.5-1.5-.5-1.7-.5-.5-.2-.8-.5-.5-.8-.2-.7-.3-1v-1.3l.3-1.2.5-1.8.5-1"/></svg>