<?xml version="1.0" encoding="iso-8859-1"?>
<!-- Generator: Adobe Illustrator 12.0.1, SVG Export Plug-In . SVG Version: 6.00 Build 51448)  -->
<!DOCTYPE svg PUBLIC "-//W3C//DTD SVG 1.1//EN" "http://www.w3.org/Graphics/SVG/1.1/DTD/svg11.dtd" [
	<!ENTITY ns_svg "http://www.w3.org/2000/svg">
	<!ENTITY ns_xlink "http://www.w3.org/1999/xlink">
]>
<svg  version="1.1" id="Layer_1" xmlns="&ns_svg;" xmlns:xlink="&ns_xlink;" width="850.394" height="850.394"
	 viewBox="0 0 850.394 850.394" style="overflow:visible;enable-background:new 0 0 850.394 850.394;" xml:space="preserve">
<g id="XMLID_4_">
	<g>
		<path style="fill:#FFFFFF;" d="M709.8,263.22l-0.21,0.25c0,1.21-17.1,80.99-22.14,98.61c-6.96,24.34-20.21,47.18-30.431,59.17
			L654,422l-35.19,0.68c1.79-2.09,3.5-4.2,5.061-6.27c13.68-18.14,21.72-47.49,26.149-71.23C654.45,321.43,654,256,654,256
			l0.14-2.22c5.4,0.36,11.391,1.24,17.67,3.98c2.57,1.12,2.04-6.51-0.27-14.3l0.479-0.17C686.16,247.39,703.12,257.54,709.8,263.22z
			"/>
		<path style="fill:#FFFFFF;" d="M589.64,423.24l-36.27,0.7c-10.46-11-25.34-35.55-32.86-61.86c-5.029-17.62-22.13-97.4-22.13-98.61
			l-0.17-0.2c5.81-4.69,19.44-12.47,33.28-17.4c-1.73,6.87-1.92,12.89,0.39,11.89c8.88-3.87,17.17-4.03,24.05-4.25L556,256
			c0,0-2.49,65.43,1.94,89.18c4.43,23.74,12.479,53.09,26.17,71.23C585.8,418.67,587.67,420.96,589.64,423.24z"/>
		<path style="fill:#A9D7F3;" d="M561.88,254.21c0,16.23,19.11,29.39,42.66,29.39c23.57,0,42.67-13.16,42.67-29.39
			c0-0.24,0-0.48-0.01-0.72c2.17,0.07,4.49,0.13,6.939,0.29L654,256c0,0,0.45,65.43-3.98,89.18
			c-4.43,23.74-12.47,53.09-26.149,71.23c-1.561,2.07-3.271,4.18-5.061,6.27l-29.17,0.56c-1.97-2.28-3.84-4.57-5.529-6.83
			c-13.69-18.14-21.74-47.49-26.17-71.23C553.51,321.43,556,256,556,256l-0.07-2.49c2.141-0.07,4.141-0.14,5.98-0.34
			C561.89,253.52,561.88,253.86,561.88,254.21z"/>
		<path style="fill:#9E5C26;" d="M555.23,152.04c0-28.85,20.85-52.24,46.569-52.24v14.51c0,0-12.81,0.45-24.359,11.78
			c-13.511,13.24-11.33,31.96-11.33,31.96s0.81,26.56,7.26,44.68c-0.13,0.08-0.24,0.16-0.33,0.24c0.06-0.04,0.18-0.11,0.34-0.22
			c1.03,2.91,2.21,5.6,3.57,7.93c-0.9,7.65,0,25.22-3.59,34.84c-2.04,5.48-6.061,7.08-11.45,7.65c-1.84,0.2-3.84,0.27-5.98,0.34
			c-6.88,0.22-15.17,0.38-24.05,4.25c-2.31,1-2.12-5.02-0.39-11.89c1.55-6.12,4.319-12.91,7.649-15.98
			c6.57-6.06,7.2-12.36,7.23-19.49c0.02-5.65-0.33-11.83,1.61-18.81c1.619-5.85-2.141-16.12,1.81-21.98
			C556.36,159.86,555.23,152.04,555.23,152.04z"/>
		<path style="fill:#9E5C26;" d="M602.01,114.31h-0.21V99.8c0.03,0,0.07,0,0.101,0c0.77,0,1.54,0.02,2.3,0.07
			c24.649,1.34,44.27,24.18,44.27,52.17c0,0-1.13,7.82,5.44,17.57c3.95,5.86,0.189,16.13,1.81,21.98c2.12,7.63,1.5,14.3,1.63,20.38
			c0.141,6.48,1.131,12.31,7.21,17.92c2.9,2.67,5.37,8.16,6.98,13.57c2.31,7.79,2.84,15.42,0.27,14.3
			c-6.279-2.74-12.27-3.62-17.67-3.98c-2.449-0.16-4.77-0.22-6.939-0.29c-8.11-0.27-14.181-0.79-16.86-7.97
			c-3.58-9.61-2.7-27.15-3.6-34.81c1.45-2.49,2.71-5.4,3.81-8.56c6.33-18.17,7.23-44.34,7.23-44.34
			c0.16-4.98,0.31-19.54-11.41-31.04c-11.55-11.33-24.36-11.78-24.36-11.78V114.31z"/>
		<path style="fill:#FFEEC8;" d="M373.89,247.49c-3.32-2.5-7.48-4.05-11.54-4.14c-4.49-0.09-8.57,1.33-12.15,3.67l3.29,0.33
			c-0.14,0.58-0.07,1.19-0.07,2.23c0,4.92,4.18,8.91,9.34,8.91c5.14,0,9.32-3.99,9.32-8.91L373.89,247.49z M394.58,253.71
			c0,0-1.94,56.26-16.03,91.56L376,344c-0.06-0.05-0.12-0.1-0.18-0.15c-0.04-0.03-0.08-0.06-0.13-0.1
			c-0.03-0.03-0.06-0.05-0.08-0.07c-0.03-0.02-0.06-0.05-0.09-0.07c-0.06-0.05-0.13-0.11-0.2-0.16
			c-2.87-2.34-14.33-11.47-24.57-17.18c-2.3-1.59-4.2-2.9-5.37-3.75c-7.34-5.32-12.03-12.03-21.7-4.17
			c-9.14-6.91-13.76-0.42-20.93,4.76c-1.7,1.22-4.86,3.5-8.52,6.16c-0.02,0.01-0.04,0.02-0.06,0.04c-1.37,0.94-2.72,1.93-4.02,2.91
			c-0.04,0.02-0.08,0.05-0.12,0.09c-7.21,5.23-14.91,10.89-17.03,12.69l-2.17,0.32c-13.99-35.18-15.7-91.15-15.7-91.15
			s-4.23-36.41,22.05-62.17c22.49-22.04,47.51-19.47,47.51-19.47h6.51c0,0,18.71-1.25,41.18,20.8
			C395.19,215.69,394.91,244.03,394.58,253.71z M304.88,247.22c-3.32-2.5-7.47-4.04-11.53-4.13c-4.48-0.09-8.56,1.33-12.14,3.67
			l3.28,0.34c-0.13,0.58-0.07,1.18-0.07,2.22c0,4.92,4.18,8.91,9.33,8.91s9.33-3.99,9.33-8.91L304.88,247.22z"/>
		<path style="fill:#EE947D;" d="M607.5,192.87c1.72,0.51,4.91,1.79,8.32,3.25c-13.641,9.57-27.221-0.66-27.801-1.11
			c0.721-0.39,1.351-0.75,1.851-1.05c2.42-0.89,4.5-1.29,5.7-0.79c4.68,1.97,6.189-1.81,6.189-1.81c-0.12-0.1-0.24-0.19-0.35-0.27
			C601.7,191.17,602.86,191.51,607.5,192.87z"/>
		<path style="fill:#BD2226;" d="M748.13,398.47l-91.11,22.78c10.221-11.99,23.471-34.83,30.431-59.17
			c5.04-17.62,22.14-97.4,22.14-98.61l0.21-0.25c1.271,1.07,2.17,1.99,2.61,2.67C715.71,271.02,741.69,367.55,748.13,398.47z"/>
		<path style="fill:#FBEE34;" d="M686.67,149.44c0,24.41-11.89,47.31-28.729,62.52l-0.591,0.01c-0.13-6.08,0.49-12.75-1.63-20.38
			c-1.62-5.85,2.141-16.12-1.81-21.98c-6.57-9.75-5.44-17.57-5.44-17.57c0-27.99-19.62-50.83-44.27-52.17
			c-0.76-0.05-1.53-0.07-2.3-0.07c-0.03,0-0.07,0-0.101,0c-25.72,0-46.569,23.39-46.569,52.24c0,0,1.13,7.82-5.44,17.57
			c-3.95,5.86-0.19,16.13-1.81,21.98c-1.94,6.98-1.591,13.16-1.61,18.81h-0.22c-16.44-15.19-26.73-36.88-26.73-60.96
			c0-45.94,37.44-83.18,83.62-83.18C649.23,66.26,686.67,103.5,686.67,149.44z"/>
		<path style="fill:#FFEEC8;" d="M647.2,253.49c0.01,0.24,0.01,0.48,0.01,0.72c0,16.23-19.1,29.39-42.67,29.39
			c-23.55,0-42.66-13.16-42.66-29.39c0-0.35,0.01-0.69,0.03-1.04c5.39-0.57,9.41-2.17,11.45-7.65c3.59-9.62,2.689-27.19,3.59-34.84
			c1.1,1.92,2.319,3.59,3.66,4.93c6.569,6.57,13.899,6.23,21.239,6.23c7.33,0,14.66,0.34,21.24-6.23c1.33-1.33,2.55-2.99,3.65-4.9
			c0.899,7.66,0.02,25.2,3.6,34.81C633.02,252.7,639.09,253.22,647.2,253.49z"/>
		<path style="fill:#FFEEC8;" d="M626.37,126.77c11.72,11.5,11.57,26.06,11.41,31.04c0,0-0.9,26.17-7.23,44.34L629,202l-0.01-0.01
			c-1.91-1.62-13.69-6.78-16.5-8.82c-3.771-2.72-6.181-6.18-11.15-2.13c-4.7-3.56-7.08-0.22-10.76,2.44
			c-0.19,0.14-0.43,0.3-0.71,0.48c-5.271,1.9-12.18,6.07-15.26,8.01c-0.021,0-0.03,0.01-0.051,0.03
			c-0.489,0.27-0.89,0.52-1.189,0.73c-6.45-18.12-7.26-44.68-7.26-44.68s-2.181-18.72,11.33-31.96
			c11.55-11.33,24.359-11.78,24.359-11.78h0.21v0.68C602.01,114.99,614.82,115.44,626.37,126.77z M623.14,155.6
			c0-0.86-0.779-1.55-1.739-1.55c-0.95,0-1.73,0.69-1.73,1.55c0,0.85,0.78,1.54,1.73,1.54C622.36,157.14,623.14,156.45,623.14,155.6
			z M587.67,155.46c0-0.85-0.78-1.54-1.729-1.54c-0.95,0-1.73,0.69-1.73,1.54s0.78,1.55,1.73,1.55
			C586.89,157.01,587.67,156.31,587.67,155.46z"/>
		<path style="fill:#9E5C26;" d="M576.95,210.68c-1.36-2.33-2.54-5.02-3.57-7.93c0.271-0.17,0.67-0.43,1.18-0.75
			c0.021-0.02,0.03-0.03,0.051-0.03c3.14-1.8,9.56-4.87,13.409-6.96c0.58,0.45,14.16,10.68,27.801,1.11
			c6.08,2.6,12.84,5.72,13.17,5.87L629,202l1.55,0.15c-1.1,3.16-2.359,6.07-3.81,8.56c-1.101,1.91-2.32,3.57-3.65,4.9
			c-6.58,6.57-13.91,6.23-21.24,6.23c-7.34,0-14.67,0.34-21.239-6.23C579.27,214.27,578.05,212.6,576.95,210.68z"/>
		<path style="fill:#F6CC4B;" d="M598.82,735.73c4.689,35.239,3.12,43.92,3.12,43.92L423.17,775.6
			c20.37-18.85,52.42-69.689,68.061-124.439c9.8-34.29,43.069-189.51,43.069-191.86l0.29-0.35c2.61,2.12,4.42,3.85,5.19,5.05
			C546.83,474.97,594.11,700.49,598.82,735.73z"/>
		<path style="fill:#BD2226;" d="M553.37,423.94L550,424l-84.69-53.18c9.98-43.1,27.591-100.8,30.25-104.93
			c0.431-0.67,1.341-1.57,2.65-2.62l0.17,0.2c0,1.21,17.101,80.99,22.13,98.61C528.03,388.39,542.91,412.94,553.37,423.94z"/>
		<path style="fill:#FAA41F;" d="M534.59,458.95l-0.29,0.35c0,2.351-33.27,157.57-43.069,191.86
			C475.59,705.91,443.54,756.75,423.17,775.6l-69.85-1.58c5.08-5.689,9.91-11.47,14.19-17.149c26.62-35.3,42.28-92.4,50.9-138.601
			C427.02,572.07,426,444,426,444l0.23-3.57c10.55,0.681,22.27,2.38,34.569,7.761c6.45,2.81,2.9-22.59-5.189-40.541
			C476.39,420.3,519.25,446.45,534.59,458.95z"/>
		<path style="fill:#C8C8C8;" d="M246.1,439.33c-4.33,0.42-9.11,0.52-14.24,0.689c-12.66,0.421-27.5,1.261-43.31,8.171
			c-5.71,2.489-3.59-17.11,2.58-34.09c3.02-8.31,7.01-15.98,11.53-20.15c22.93-21.16,8.68-43.85,17.19-74.52
			c3.17-11.38-4.16-31.36,3.53-42.77c12.79-18.96,10.59-34.17,10.59-34.17c0-56.13,40.56-101.64,90.61-101.64c0.06,0,0.13,0,0.19,0
			c0.72,0,1.44,0.01,2.15,0.03c49.06,1.28,88.46,46.29,88.46,101.61c0,0-2.2,15.21,10.58,34.17c7.69,11.41,0.37,31.39,3.54,42.77
			c8.5,30.67-5.73,53.36,17.19,74.52c3.31,3.06,6.34,8,8.92,13.7c8.09,17.95,11.64,43.35,5.189,40.541
			c-12.3-5.381-24.02-7.08-34.569-7.761c-4.661-0.31-9.101-0.42-13.26-0.56c-15.8-0.521-27.65-1.51-32.87-15.49
			c-6.97-18.71-5.24-52.85-6.97-67.76c1.98-3.41,3.78-7.24,5.42-11.35c14.09-35.3,16.03-91.56,16.03-91.56
			c0.33-9.68,0.61-38.02-22.2-60.38c-22.47-22.05-41.18-20.8-41.18-20.8h-6.51c0,0-25.02-2.57-47.51,19.47
			c-26.28,25.76-22.05,62.17-22.05,62.17s1.71,55.97,15.7,91.15c1.63,4.09,3.43,7.9,5.4,11.31c-1.74,14.92-0.01,49.04-6.99,67.75
			C265.16,435.32,257.02,438.31,246.1,439.33z"/>
		<path style="fill:#FFFFC2;" d="M426.23,440.43L426,444c0,0,1.02,128.07-7.59,174.27c-8.62,46.2-24.28,103.301-50.9,138.601
			c-4.28,5.68-9.11,11.46-14.19,17.149l-52.47-3.96c-3.81-4.399-7.42-8.819-10.71-13.189c-26.62-35.3-42.29-92.4-50.9-138.601
			C230.63,572.07,232,444,232,444l-0.14-3.98c5.13-0.17,9.91-0.27,14.24-0.689c-1.48,2.3-4.1,5.72-4.1,6.67
			c0,31.58,42.08,52.46,87.92,52.46s83.01-25.59,83.01-57.17c0-0.06,0-0.08-0.01-0.08l0.05-1.34
			C417.13,440.01,421.57,440.12,426.23,440.43z"/>
		<path style="fill:#FFEEC8;" d="M412.92,441.21c0.01,0,0.01,0.021,0.01,0.08c0,31.58-37.17,57.17-83.01,57.17S242,477.58,242,446
			c0-0.95,2.62-4.37,4.1-6.67c10.92-1.021,19.06-4.01,23.14-14.95c6.98-18.71,5.25-52.83,6.99-67.75c2.15,3.7,4.52,6.94,7.12,9.54
			c12.79,12.79,27.06,12.13,41.32,12.13c14.27,0,28.54,0.66,41.33-12.13c2.6-2.6,4.97-5.83,7.13-9.55c1.73,14.91,0,49.05,6.97,67.76
			c5.22,13.98,17.07,14.97,32.87,15.49L412.92,441.21z"/>
		<path style="fill:#C8C8C8;" d="M290.03,332.31c0.04-0.04,0.08-0.07,0.12-0.09c0.2-0.15,0.4-0.29,0.59-0.43L294,332
			c0,0,34.86,8.7,60-1l1.33-1.58c7.56,5.19,16.75,11.48,19.99,14.03c0.07,0.05,0.14,0.11,0.2,0.16c0.03,0.02,0.06,0.05,0.09,0.07
			c0.02,0.02,0.05,0.04,0.08,0.07c0.05,0.04,0.09,0.07,0.13,0.1c0.06,0.05,0.12,0.1,0.18,0.15l2.55,1.27
			c-1.64,4.11-3.44,7.94-5.42,11.35c-2.16,3.72-4.53,6.95-7.13,9.55c-12.79,12.79-27.06,12.13-41.33,12.13
			c-14.26,0-28.53,0.66-41.32-12.13c-2.6-2.6-4.97-5.84-7.12-9.54c-1.97-3.41-3.77-7.22-5.4-11.31L273,345
			C275.12,343.2,282.82,337.54,290.03,332.31z"/>
		<path style="fill:#FFFFFF;" d="M353.49,247.35l-3.29-0.33c3.58-2.34,7.66-3.76,12.15-3.67c4.06,0.09,8.22,1.64,11.54,4.14
			l-1.81,2.09c0,4.92-4.18,8.91-9.32,8.91c-5.16,0-9.34-3.99-9.34-8.91C353.42,248.54,353.35,247.93,353.49,247.35z M366.09,249.4
			c0-1.65-1.51-3-3.37-3c-1.86,0-3.37,1.35-3.37,3c0,1.67,1.51,3.01,3.37,3.01C364.58,252.41,366.09,251.07,366.09,249.4z"/>
		<path style="fill:#231F20;" d="M362.72,246.4c1.86,0,3.37,1.35,3.37,3c0,1.67-1.51,3.01-3.37,3.01c-1.86,0-3.37-1.34-3.37-3.01
			C359.35,247.75,360.86,246.4,362.72,246.4z"/>
		<path style="fill:#EE947D;" d="M355.33,329.42L354,331c-25.14,9.7-60,1-60,1l-3.26-0.21c1.17-0.85,2.32-1.68,3.43-2.48
			c0.02-0.02,0.04-0.03,0.06-0.04c6.8-4.68,14.11-8.47,18.22-6.75c7.59,3.18,10.9-1.39,11.79-3c1.28,1.9,4.65,5.26,11.44,2.41
			c3.13-1.31,8.88,0.89,15.07,4.34C352.15,327.23,353.7,328.3,355.33,329.42z"/>
		<path style="fill:#FFFFFF;" d="M284.49,247.1l-3.28-0.34c3.58-2.34,7.66-3.76,12.14-3.67c4.06,0.09,8.21,1.63,11.53,4.13l-1.8,2.1
			c0,4.92-4.18,8.91-9.33,8.91s-9.33-3.99-9.33-8.91C284.42,248.28,284.36,247.68,284.49,247.1z M293.72,252.15
			c1.86,0,3.37-1.35,3.37-3.01c0-1.66-1.51-3-3.37-3c-1.86,0-3.37,1.34-3.37,3C290.35,250.8,291.86,252.15,293.72,252.15z"/>
		<path style="fill:#FAA41F;" d="M300.85,770.06L300,770l-66.79,4.41c-20.4-19.73-51.47-69.62-66.8-123.25
			c-9.79-34.29-43.06-189.51-43.06-191.86l-0.75-0.04c12.74-10.7,46.15-31.96,67.93-45.38l0.6,0.22
			c-6.17,16.98-8.29,36.58-2.58,34.09c15.81-6.91,30.65-7.75,43.31-8.171L232,444c0,0-1.37,128.07,7.24,174.27
			c8.61,46.2,24.28,103.301,50.9,138.601C293.43,761.24,297.04,765.66,300.85,770.06z"/>
		<path style="fill:#231F20;" d="M297.09,249.14c0,1.66-1.51,3.01-3.37,3.01c-1.86,0-3.37-1.35-3.37-3.01c0-1.66,1.51-3,3.37-3
			C295.58,246.14,297.09,247.48,297.09,249.14z"/>
		<path style="fill:#F6CC4B;" d="M233.21,774.41L58.83,785.92c0,0-1.57-8.689,3.13-43.92c4.7-35.24,48.86-267.03,55.9-278
			c0.73-1.14,2.38-2.76,4.74-4.74l0.75,0.04c0,2.351,33.27,157.57,43.06,191.86C181.74,704.79,212.81,754.68,233.21,774.41z"/>
	</g>
	<g>
		<path style="fill:none;stroke:#231F20;stroke-width:14;stroke-miterlimit:10;" d="M454.69,407.1c0.3,0.18,0.609,0.37,0.92,0.55
			c20.779,12.65,63.64,38.8,78.979,51.3c2.61,2.12,4.42,3.85,5.19,5.05c7.05,10.97,54.33,236.49,59.04,271.73
			c4.689,35.239,3.12,43.92,3.12,43.92"/>
		<path style="fill:none;stroke:#231F20;stroke-width:14;stroke-miterlimit:10;" d="M426,444c0,0,1.02,128.07-7.59,174.27
			c-8.62,46.2-24.28,103.301-50.9,138.601c-4.28,5.68-9.11,11.46-14.19,17.149"/>
		<path style="fill:none;stroke:#231F20;stroke-width:14;stroke-miterlimit:10;" d="M412,448c0.08,0.95,0.84-6.79,0.92-6.79
			c0.01,0,0.01,0.021,0.01,0.08c0,31.58-37.17,57.17-83.01,57.17S242,477.58,242,446c0-0.95,2.62-4.37,4.1-6.67
			c0.57-0.87,0.97-1.58,1-1.94"/>
		<path style="fill:none;stroke:#231F20;stroke-width:14;stroke-miterlimit:10;" d="M534.3,459.3
			c0,2.351-33.27,157.57-43.069,191.86C475.59,705.91,443.54,756.75,423.17,775.6c-0.02,0.03-0.05,0.051-0.07,0.07"/>
		<path style="fill:none;stroke:#231F20;stroke-width:14;stroke-miterlimit:10;" d="M190.53,413.88
			c-21.78,13.42-55.19,34.68-67.93,45.38c-2.36,1.98-4.01,3.601-4.74,4.74c-7.04,10.97-51.2,242.76-55.9,278
			c-4.7,35.23-3.13,43.92-3.13,43.92"/>
		<path style="fill:none;stroke:#231F20;stroke-width:14;stroke-miterlimit:10;" d="M232,444c0,0-1.37,128.07,7.24,174.27
			c8.61,46.2,24.28,103.301,50.9,138.601c3.29,4.37,6.9,8.79,10.71,13.189c1.14,1.32,2.3,2.641,3.48,3.96"/>
		<path style="fill:none;stroke:#231F20;stroke-width:14;stroke-miterlimit:10;" d="M123.35,459.3
			c0,2.351,33.27,157.57,43.06,191.86c15.33,53.63,46.4,103.52,66.8,123.25c0.45,0.439,0.89,0.859,1.33,1.26"/>
		<path style="fill:none;stroke:#231F20;stroke-width:6.5074;stroke-linecap:square;stroke-miterlimit:10;" d="M273.99,253.33
			c2.1-2.54,4.52-4.81,7.22-6.57c3.58-2.34,7.66-3.76,12.14-3.67c4.06,0.09,8.21,1.63,11.53,4.13c1.99,1.5,3.67,3.34,4.85,5.43"/>
		<path style="fill:none;stroke:#231F20;stroke-width:6.5074;stroke-linecap:square;stroke-miterlimit:10;" d="M303.08,249.32
			c0,4.92-4.18,8.91-9.33,8.91s-9.33-3.99-9.33-8.91c0-1.04-0.06-1.64,0.07-2.22c0.03-0.11,0.05-0.21,0.09-0.31"/>
		<path style="fill:none;stroke:#231F20;stroke-width:3.2537;stroke-miterlimit:10;" d="M297.09,249.14c0,1.66-1.51,3.01-3.37,3.01
			c-1.86,0-3.37-1.35-3.37-3.01c0-1.66,1.51-3,3.37-3C295.58,246.14,297.09,247.48,297.09,249.14z"/>
		<path style="fill:none;stroke:#231F20;stroke-width:9.761;" d="M315.3,237.97c-3.98-8.38-19.56-11.66-27.44-10.08
			c-7.41,1.48-11.09,2.37-18.82,8.36"/>
		<path style="fill:none;stroke:#231F20;stroke-width:6.5074;stroke-linecap:square;stroke-miterlimit:10;" d="M342.98,253.59
			c2.1-2.54,4.52-4.81,7.22-6.57c3.58-2.34,7.66-3.76,12.15-3.67c4.06,0.09,8.22,1.64,11.54,4.14c1.98,1.5,3.66,3.35,4.84,5.43"/>
		<path style="fill:none;stroke:#231F20;stroke-width:6.5074;stroke-linecap:square;stroke-miterlimit:10;" d="M372.08,249.58
			c0,4.92-4.18,8.91-9.32,8.91c-5.16,0-9.34-3.99-9.34-8.91c0-1.04-0.07-1.65,0.07-2.23c0.02-0.1,0.05-0.2,0.09-0.3"/>
		<path style="fill:none;stroke:#231F20;stroke-width:3.2537;stroke-miterlimit:10;" d="M366.09,249.4c0,1.67-1.51,3.01-3.37,3.01
			c-1.86,0-3.37-1.34-3.37-3.01c0-1.65,1.51-3,3.37-3C364.58,246.4,366.09,247.75,366.09,249.4z"/>
		<path style="fill:none;stroke:#231F20;stroke-width:9.761;" d="M384.3,238.23c-3.97-8.39-19.56-11.66-27.44-10.08
			c-7.42,1.48-11.09,2.37-18.82,8.37"/>
		<path style="fill:none;stroke:#231F20;stroke-width:9.761;stroke-miterlimit:10;" d="M322.15,258.44c0,0,2.65,31.01-1.32,38.95
			c0,0-0.88,14.11,16.75,3.08"/>
		<path style="fill:none;stroke:#231F20;stroke-width:14;stroke-miterlimit:10;" d="M324.77,140.85c-0.06,0-0.13,0-0.19,0
			c-50.05,0-90.61,45.51-90.61,101.64c0,0,2.2,15.21-10.59,34.17c-7.69,11.41-0.36,31.39-3.53,42.77
			c-8.51,30.67,5.74,53.36-17.19,74.52c-4.52,4.17-8.51,11.84-11.53,20.15c-6.17,16.98-8.29,36.58-2.58,34.09
			c15.81-6.91,30.65-7.75,43.31-8.171c5.13-0.17,9.91-0.27,14.24-0.689c10.92-1.021,19.06-4.01,23.14-14.95
			c6.98-18.71,5.25-52.83,6.99-67.75c0.02-0.21,0.05-0.4,0.07-0.6"/>
		<path style="fill:none;stroke:#231F20;stroke-width:14;stroke-miterlimit:10;" d="M415.18,242.49
			c0-55.25-39.3-100.22-88.26-101.61"/>
		<path style="fill:none;stroke:#231F20;stroke-width:9.761;stroke-miterlimit:10;" d="M294,332c0,0,34.86,8.7,60-1"/>
		<path style="fill:none;stroke:#231F20;stroke-width:14;stroke-miterlimit:10;" d="M270.83,345.32
			c-13.99-35.18-15.7-91.15-15.7-91.15s-4.23-36.41,22.05-62.17c22.49-22.04,47.51-19.47,47.51-19.47h6.51
			c0,0,18.71-1.25,41.18,20.8c22.81,22.36,22.53,50.7,22.2,60.38c0,0-1.94,56.26-16.03,91.56c-1.64,4.11-3.44,7.94-5.42,11.35
			c-2.16,3.72-4.53,6.95-7.13,9.55c-12.79,12.79-27.06,12.13-41.33,12.13c-14.26,0-28.53,0.66-41.32-12.13
			c-2.6-2.6-4.97-5.84-7.12-9.54C274.26,353.22,272.46,349.41,270.83,345.32z"/>
		<path style="fill:none;stroke:#231F20;stroke-width:14;stroke-miterlimit:10;" d="M324.77,140.85c0.72,0,1.44,0.01,2.15,0.03
			c49.06,1.28,88.46,46.29,88.46,101.61c0,0-2.2,15.21,10.58,34.17c7.69,11.41,0.37,31.39,3.54,42.77
			c8.5,30.67-5.73,53.36,17.19,74.52c3.31,3.06,6.34,8,8.92,13.7c8.09,17.95,11.64,43.35,5.189,40.541
			c-12.3-5.381-24.02-7.08-34.569-7.761c-4.661-0.31-9.101-0.42-13.26-0.56c-15.8-0.521-27.65-1.51-32.87-15.49
			c-6.97-18.71-5.24-52.85-6.97-67.76c-0.02-0.2-0.05-0.4-0.07-0.59"/>
		<path style="fill:none;stroke:#231F20;stroke-width:9.761;stroke-miterlimit:10;" d="M290.03,332.31
			c-6.45,4.88-11.58,9.68-11.58,9.68"/>
		<path style="fill:none;stroke:#231F20;stroke-width:9.761;stroke-miterlimit:10;" d="M294.17,329.31
			c-1.37,0.94-2.72,1.93-4.02,2.91"/>
		<path style="fill:none;stroke:#231F20;stroke-width:9.761;stroke-miterlimit:10;" d="M273,345c2.12-1.8,9.82-7.46,17.15-12.78
			c-0.04,0.02-0.08,0.05,0,0c0.2-0.15,0.4-0.29,0.59-0.43c1.17-0.85,2.32-1.68,3.49-2.52c-0.02,0.01-0.04,0.02,0,0
			c3.66-2.66,6.82-4.94,8.52-6.16c7.17-5.18,11.79-11.67,20.93-4.76c0.27,0.2,0.54,0.41,0.82,0.64c0,0-0.08,0.2-0.26,0.53
			c-0.89,1.61-4.2,6.18-11.79,3c-4.11-1.72-11.42,2.07-18.22,6.75"/>
		<path style="fill:none;stroke:#231F20;stroke-width:9.761;stroke-miterlimit:10;" d="M375.32,343.45c0.07,0.05,0.14,0.11,0.2,0.16
			c0.03,0.02,0.06,0.05,0.09,0.07c0.02,0.02,0.05,0.04,0.08,0.07c0.05,0.04,0.09,0.07,0.13,0.1
			C375.88,343.9,375.94,343.95,375.32,343.45c-3.24-2.55-12.43-8.84-19.99-14.03c-1.63-1.12-3.18-2.19-4.58-3.15
			c-2.3-1.59-4.2-2.9-5.37-3.75c-7.34-5.32-12.03-12.03-21.7-4.17c-0.02,0.02-0.04,0.03-0.06,0.05c0,0,0.19,0.48,0.62,1.12
			c1.28,1.9,4.65,5.26,11.44,2.41c3.13-1.31,8.88,0.89,15.07,4.34C360.99,331.98,372.45,341.11,375.32,343.45"/>
		<path style="fill:none;stroke:#231F20;stroke-width:14;stroke-miterlimit:10;" d="M672.02,243.29
			c14.141,4.1,31.101,14.25,37.78,19.93c1.271,1.07,2.17,1.99,2.61,2.67c3.3,5.13,29.28,101.66,35.72,132.58
			c0.64,3.05,1.08,5.46,1.3,7.08"/>
		<path style="fill:none;stroke:#231F20;stroke-width:14;stroke-miterlimit:10;" d="M654,256c0,0,0.45,65.43-3.98,89.18
			c-4.43,23.74-12.47,53.09-26.149,71.23c-1.561,2.07-3.271,4.18-5.061,6.27c-0.739,0.85-1.479,1.7-2.239,2.55"/>
		<path style="fill:none;stroke:#231F20;stroke-width:14;stroke-miterlimit:10;" d="M647.15,252.65c0.02,0.28,0.04,0.56,0.05,0.84
			c0.01,0.24,0.01,0.48,0.01,0.72c0,16.23-19.1,29.39-42.67,29.39c-23.55,0-42.66-13.16-42.66-29.39c0-0.35,0.01-0.69,0.03-1.04
			c0.02-0.32,0.04-0.64,0.07-0.96"/>
		<path style="fill:none;stroke:#231F20;stroke-width:14;stroke-miterlimit:10;" d="M709.59,263.47c0,1.21-17.1,80.99-22.14,98.61
			c-6.96,24.34-20.21,47.18-30.431,59.17c-1.619,1.89-3.159,3.51-4.579,4.82"/>
		<path style="fill:none;stroke:#231F20;stroke-width:14;stroke-miterlimit:10;" d="M532.66,245.46c-0.391,0.13-0.78,0.27-1.17,0.41
			c-13.84,4.93-27.471,12.71-33.28,17.4c-1.31,1.05-2.22,1.95-2.65,2.62c-2.659,4.13-20.27,61.83-30.25,104.93
			c-0.359,1.55-0.699,3.08-1.04,4.58"/>
		<path style="fill:none;stroke:#231F20;stroke-width:14;stroke-miterlimit:10;" d="M556,256c0,0-2.49,65.43,1.94,89.18
			c4.43,23.74,12.479,53.09,26.17,71.23c1.689,2.26,3.56,4.55,5.529,6.83c0.58,0.66,1.16,1.33,1.75,1.99"/>
		<path style="fill:none;stroke:#231F20;stroke-width:14;stroke-miterlimit:10;" d="M498.38,263.47c0,1.21,17.101,80.99,22.13,98.61
			c7.521,26.31,22.4,50.86,32.86,61.86c0.75,0.78,1.47,1.49,2.16,2.13"/>
		<polyline style="fill:none;stroke:#231F20;stroke-width:19.5221;" points="604.11,304.81 604.11,325.47 604.11,368.39 		"/>
		<polyline style="fill:none;stroke:#231F20;stroke-width:19.5221;" points="583.48,325.47 604.11,325.47 624.8,325.47 		"/>
		<path style="fill:none;stroke:#231F20;stroke-width:5;stroke-linecap:square;stroke-miterlimit:10;" d="M575.8,157.61
			c2.51-3.03,5.91-5.34,9.95-5.26c3.34,0.08,6.8,2.06,8.42,4.92"/>
		<path style="fill:none;stroke:#231F20;stroke-width:3;stroke-linecap:square;stroke-miterlimit:10;" d="M590.75,155.55
			c0,2.53-2.15,4.58-4.79,4.58c-2.66,0-4.8-2.05-4.8-4.58c0-0.63-0.04-0.94,0.08-1.3"/>
		<path style="fill:none;stroke:#231F20;stroke-width:3.2537;stroke-miterlimit:10;" d="M587.67,155.46c0,0.85-0.78,1.55-1.729,1.55
			c-0.95,0-1.73-0.7-1.73-1.55s0.78-1.54,1.73-1.54C586.89,153.92,587.67,154.61,587.67,155.46z"/>
		<path style="fill:none;stroke:#231F20;stroke-width:6.5074;" d="M597.03,149.72c-2.05-4.31-10.05-5.99-14.101-5.18
			c-3.81,0.76-5.699,1.22-9.67,4.3"/>
		<path style="fill:none;stroke:#231F20;stroke-width:5;stroke-linecap:square;stroke-miterlimit:10;" d="M611.26,157.75
			c2.5-3.03,5.91-5.35,9.96-5.26c3.33,0.07,6.8,2.05,8.42,4.91"/>
		<path style="fill:none;stroke:#231F20;stroke-width:3;stroke-linecap:square;stroke-miterlimit:10;" d="M626.21,155.69
			c0,2.53-2.15,4.57-4.79,4.57s-4.8-2.04-4.8-4.57c0-0.63-0.04-0.95,0.09-1.3"/>
		<path style="fill:none;stroke:#231F20;stroke-width:3.2537;stroke-miterlimit:10;" d="M623.14,155.6c0,0.85-0.779,1.54-1.739,1.54
			c-0.95,0-1.73-0.69-1.73-1.54c0-0.86,0.78-1.55,1.73-1.55C622.36,154.05,623.14,154.74,623.14,155.6z"/>
		<path style="fill:none;stroke:#231F20;stroke-width:6.5074;" d="M632.49,149.85c-2.04-4.31-10.05-5.99-14.101-5.18
			c-3.81,0.76-5.699,1.22-9.67,4.3"/>
		<path style="fill:none;stroke:#231F20;stroke-width:7;stroke-miterlimit:10;" d="M600.55,160.24c0,0,1.36,15.94-0.67,20.02
			c0,0-0.46,7.25,8.601,1.58"/>
		<path style="fill:none;stroke:#231F20;stroke-width:7;stroke-miterlimit:10;" d="M601.9,99.8c-0.03,0-0.07,0-0.101,0
			c-25.72,0-46.569,23.39-46.569,52.24c0,0,1.13,7.82-5.44,17.57c-3.95,5.86-0.19,16.13-1.81,21.98
			c-1.94,6.98-1.591,13.16-1.61,18.81c-0.03,7.13-0.66,13.43-7.23,19.49c-3.33,3.07-6.1,9.86-7.649,15.98
			c-1.73,6.87-1.92,12.89,0.39,11.89c8.88-3.87,17.17-4.03,24.05-4.25c2.141-0.07,4.141-0.14,5.98-0.34
			c5.39-0.57,9.41-2.17,11.45-7.65c3.59-9.62,2.689-27.19,3.59-34.84c0.01-0.09,0.02-0.19,0.03-0.28"/>
		<path style="fill:none;stroke:#231F20;stroke-width:7;stroke-miterlimit:10;" d="M648.37,152.04c0-27.95-19.58-50.77-44.17-52.17"
			/>
		<path style="fill:none;stroke:#231F20;stroke-width:5;stroke-miterlimit:10;" d="M588,195c0,0,0.01,0.01,0.02,0.01
			c0.58,0.45,14.16,10.68,27.801,1.11c0.06-0.03,0.12-0.08,0.18-0.12"/>
		<path style="fill:none;stroke:#231F20;stroke-width:7;stroke-miterlimit:10;" d="M602.01,100.48v13.83v0.68
			c0,0,12.811,0.45,24.36,11.78c11.72,11.5,11.57,26.06,11.41,31.04c0,0-0.9,26.17-7.23,44.34c-1.1,3.16-2.359,6.07-3.81,8.56
			c-1.101,1.91-2.32,3.57-3.65,4.9c-6.58,6.57-13.91,6.23-21.24,6.23c-7.34,0-14.67,0.34-21.239-6.23
			c-1.341-1.34-2.561-3.01-3.66-4.93c-1.36-2.33-2.54-5.02-3.57-7.93c-0.01-0.01-0.01-0.01-0.01-0.02
			c-6.45-18.12-7.26-44.68-7.26-44.68s-2.181-18.72,11.33-31.96c11.55-11.33,24.359-11.78,24.359-11.78V99.8"/>
		<path style="fill:none;stroke:#231F20;stroke-width:7;stroke-miterlimit:10;" d="M601.9,99.8c0.77,0,1.54,0.02,2.3,0.07
			c24.649,1.34,44.27,24.18,44.27,52.17c0,0-1.13,7.82,5.44,17.57c3.95,5.86,0.189,16.13,1.81,21.98c2.12,7.63,1.5,14.3,1.63,20.38
			c0.141,6.48,1.131,12.31,7.21,17.92c2.9,2.67,5.37,8.16,6.98,13.57c2.31,7.79,2.84,15.42,0.27,14.3
			c-6.279-2.74-12.27-3.62-17.67-3.98c-2.449-0.16-4.77-0.22-6.939-0.29c-8.11-0.27-14.181-0.79-16.86-7.97
			c-3.58-9.61-2.7-27.15-3.6-34.81c0-0.11-0.021-0.21-0.03-0.31"/>
		<path style="fill:none;stroke:#231F20;stroke-width:14;stroke-miterlimit:10;" d="M546.15,210.4
			c-16.44-15.19-26.73-36.88-26.73-60.96c0-45.94,37.44-83.18,83.62-83.18c46.19,0,83.63,37.24,83.63,83.18
			c0,24.41-11.89,47.31-28.729,62.52"/>
		<line style="fill:none;stroke:#231F20;stroke-width:14;stroke-miterlimit:10;" x1="459.75" y1="73.82" x2="520.18" y2="101.62"/>
		<line style="fill:none;stroke:#231F20;stroke-width:14;stroke-miterlimit:10;" x1="462.94" y1="229.99" x2="515.78" y2="189.6"/>
		<line style="fill:none;stroke:#231F20;stroke-width:14;stroke-miterlimit:10;" x1="416.84" y1="154.2" x2="506.77" y2="143.87"/>
		<line style="fill:none;stroke:#231F20;stroke-width:14;stroke-miterlimit:10;" x1="748.01" y1="72.61" x2="687.58" y2="100.41"/>
		<line style="fill:none;stroke:#231F20;stroke-width:14;stroke-miterlimit:10;" x1="744.83" y1="228.78" x2="691.97" y2="188.39"/>
		<line style="fill:none;stroke:#231F20;stroke-width:14;stroke-miterlimit:10;" x1="790.92" y1="152.99" x2="701" y2="142.66"/>
		<path style="fill:none;stroke:#231F20;stroke-width:7;stroke-miterlimit:10;" d="M574.56,202c-0.51,0.32-0.909,0.58-1.18,0.75
			c-0.16,0.11-0.28,0.18-0.34,0.22"/>
		<path style="fill:none;stroke:#231F20;stroke-width:7;stroke-miterlimit:10;" d="M573.04,202.97
			C573.03,202.98,573.01,202.99,573.04,202.97c0.09-0.08,0.2-0.16,0.33-0.24c0.3-0.21,0.7-0.46,1.24-0.76c-0.021,0-0.03,0.01,0,0
			c3.14-1.8,9.56-4.87,13.409-6.96c0.721-0.39,1.351-0.75,1.851-1.05c0.28-0.18,0.52-0.34,0.71-0.48c3.68-2.66,6.06-6,10.76-2.44
			c0.021,0.01,0.05,0.02,0.07,0.05c0.109,0.08,0.229,0.17,0.35,0.27c0,0-1.51,3.78-6.189,1.81c-1.2-0.5-3.28-0.1-5.7,0.79
			c-5.271,1.9-12.18,6.07-15.26,8.01"/>
		<path style="fill:none;stroke:#231F20;stroke-width:7;stroke-miterlimit:10;" d="M628.99,201.99
			C628.99,201.99,629,202,628.99,201.99c-1.91-1.62-13.69-6.78-16.5-8.82c-3.771-2.72-6.181-6.18-11.15-2.13
			c-0.01,0-0.02,0.01-0.03,0.02c0,0,0,0,0.101,0.03c0.29,0.08,1.45,0.42,6.09,1.78c1.72,0.51,4.91,1.79,8.32,3.25
			C621.9,198.72,628.66,201.84,628.99,201.99"/>
	</g>
</g>
<rect style="fill:none;" width="850.394" height="850.394"/>
</svg>
