<?xml version="1.0" encoding="iso-8859-1"?>
<!-- Generator: Adobe Illustrator 12.0.1, SVG Export Plug-In . SVG Version: 6.00 Build 51448)  -->
<!DOCTYPE svg PUBLIC "-//W3C//DTD SVG 1.1//EN" "http://www.w3.org/Graphics/SVG/1.1/DTD/svg11.dtd" [
	<!ENTITY ns_svg "http://www.w3.org/2000/svg">
	<!ENTITY ns_xlink "http://www.w3.org/1999/xlink">
]>
<svg  version="1.1" id="Layer_1" xmlns="&ns_svg;" xmlns:xlink="&ns_xlink;" width="850.394" height="850.394"
	 viewBox="0 0 850.394 850.394" style="overflow:visible;enable-background:new 0 0 850.394 850.394;" xml:space="preserve">
<g id="XMLID_17_">
	<g>
		<path style="fill:#33A02C;" d="M764.82,629.42l6.439,49.521l-103.8,13.47l-44.65-198.53L599.77,391.4c0,0-7.68-27.03-7.68-46.1
			c0-119.06,60.66-169.59,60.66-169.59l0.02-0.03c41.07,22.27,55.82,92.16,55.82,92.16L764.82,629.42z"/>
		<path style="fill:#33A02C;" d="M652.77,175.68l-0.02,0.03c0,0-60.66,50.53-60.66,169.59c0,19.07,7.68,46.1,7.68,46.1l23.04,102.48
			l-19.52,248.96H261.45L236.48,493.9v-0.011l23.05-102.49c0,0,7.68-27.03,7.68-46.1c0-119.06-60.67-169.59-60.67-169.59l-0.02-0.03
			c6.18-3.35,12.95-5.62,20.36-6.42c17.02-1.82,84.38-17.85,120.71-28.7c-5.27,8.2-8.2,17.32-8.2,26.94
			c0,35.71,41.22,75.06,91.06,75.06c49.859,0,89.45-39.35,89.45-75.06c0-9.67-2.96-18.84-8.28-27.08
			c36.33,10.86,103.77,27.02,120.79,28.84C639.82,170.06,646.59,172.33,652.77,175.68z"/>
		<path style="fill:#33A02C;" d="M511.62,140.42c5.32,8.24,8.28,17.41,8.28,27.08c0,35.71-39.591,75.06-89.45,75.06
			c-49.84,0-91.06-39.35-91.06-75.06c0-9.62,2.93-18.74,8.2-26.94c14.25-22.26,45.64-37.71,82.05-37.71
			C466,102.85,497.32,118.24,511.62,140.42z"/>
		<path style="fill:#33A02C;" d="M267.21,345.3c0,19.07-7.68,46.1-7.68,46.1l-23.05,102.49v0.011l-44.64,198.51l-103.8-13.47
			l6.43-49.521l56.23-361.58c0,0,14.76-69.89,55.82-92.16l0.02,0.03C206.54,175.71,267.21,226.24,267.21,345.3z"/>
	</g>
	<g>
		<path style="fill:none;stroke:#000000;stroke-width:14;" d="M511.62,140.42c5.32,8.24,8.28,17.41,8.28,27.08
			c0,35.71-39.591,75.06-89.45,75.06c-49.84,0-91.06-39.35-91.06-75.06c0-9.62,2.93-18.74,8.2-26.94
			c14.25-22.26,45.64-37.71,82.05-37.71C466,102.85,497.32,118.24,511.62,140.42z"/>
		<path style="fill:none;stroke:#000000;stroke-width:14;" d="M557.61,157.06c0.21,2.15,0.31,4.32,0.31,6.51
			c0,51.93-57.06,108.76-127.47,108.76c-70.4,0-127.47-56.83-127.47-108.76c0-1.83,0.11-3.69,0.31-5.56"/>
		<path style="fill:none;stroke:#000000;stroke-width:14;" d="M236.48,493.9l-44.64,198.51l-103.8-13.47l6.43-49.521l56.23-361.58
			c0,0,14.76-69.89,55.82-92.16c6.18-3.35,12.95-5.62,20.36-6.42c17.02-1.82,84.38-17.85,120.71-28.7c0.02-0.01,0.03-0.02,0.05-0.02
			"/>
		<path style="fill:none;stroke:#000000;stroke-width:14;" d="M206.54,175.71c0,0,60.67,50.53,60.67,169.59
			c0,19.07-7.68,46.1-7.68,46.1l-23.05,102.49"/>
		<path style="fill:none;stroke:#000000;stroke-width:14;" d="M652.75,175.71c0,0-60.66,50.53-60.66,169.59
			c0,19.07,7.68,46.1,7.68,46.1l23.04,102.48l44.65,198.53l103.8-13.47l-6.439-49.521l-56.23-361.58c0,0-14.75-69.89-55.82-92.16
			c-6.18-3.35-12.949-5.62-20.359-6.42c-17.021-1.82-84.46-17.98-120.79-28.84c-0.01,0-0.03-0.01-0.04-0.01"/>
		<polyline style="fill:none;stroke:#000000;stroke-width:14;" points="622.81,493.88 603.29,742.84 261.45,742.84 236.48,493.9 
			236.48,493.89 		"/>
	</g>
</g>
<rect style="fill:none;" width="850.394" height="850.394"/>
<line style="fill:none;stroke:#000000;stroke-width:14;" x1="94" y1="638" x2="198" y2="652"/>
<line style="fill:none;stroke:#000000;stroke-width:7;" x1="106" y1="640" x2="100" y2="676"/>
<line style="fill:none;stroke:#000000;stroke-width:7;" x1="120" y1="642" x2="114" y2="680"/>
<line style="fill:none;stroke:#000000;stroke-width:7;" x1="136" y1="644" x2="130" y2="678"/>
<line style="fill:none;stroke:#000000;stroke-width:7;" x1="164" y1="648" x2="156" y2="684"/>
<line style="fill:none;stroke:#000000;stroke-width:7;" x1="178" y1="650" x2="170" y2="686"/>
<line style="fill:none;stroke:#000000;stroke-width:7;" x1="148" y1="646" x2="142" y2="680"/>
<line style="fill:none;stroke:#000000;stroke-width:14;" x1="662" y1="658" x2="766" y2="642"/>
<line style="fill:none;stroke:#000000;stroke-width:7;" x1="676" y1="654" x2="682" y2="686"/>
<line style="fill:none;stroke:#000000;stroke-width:7;" x1="690" y1="652" x2="698" y2="686"/>
<line style="fill:none;stroke:#000000;stroke-width:7;" x1="706" y1="650" x2="712" y2="682"/>
<line style="fill:none;stroke:#000000;stroke-width:7;" x1="722" y1="646" x2="728" y2="682"/>
<line style="fill:none;stroke:#000000;stroke-width:7;" x1="738" y1="644" x2="744" y2="680"/>
<line style="fill:none;stroke:#000000;stroke-width:7;" x1="752" y1="642" x2="754" y2="678"/>
<line style="fill:none;stroke:#000000;stroke-width:14;" x1="258" y1="702" x2="604" y2="702"/>
<line style="fill:none;stroke:#000000;stroke-width:7;" x1="272" y1="700" x2="274" y2="740"/>
<line style="fill:none;stroke:#000000;stroke-width:7;" x1="290" y1="700" x2="290" y2="740"/>
<line style="fill:none;stroke:#000000;stroke-width:7;" x1="308" y1="700" x2="308" y2="738"/>
<line style="fill:none;stroke:#000000;stroke-width:7;" x1="326" y1="700" x2="326" y2="738"/>
<line style="fill:none;stroke:#000000;stroke-width:7;" x1="342" y1="702" x2="342" y2="738"/>
<line style="fill:none;stroke:#000000;stroke-width:7;" x1="358" y1="702" x2="358" y2="740"/>
<line style="fill:none;stroke:#000000;stroke-width:7;" x1="376" y1="702" x2="376" y2="740"/>
<line style="fill:none;stroke:#000000;stroke-width:7;" x1="392" y1="702" x2="392" y2="740"/>
<line style="fill:none;stroke:#000000;stroke-width:7;" x1="412" y1="702" x2="410" y2="740"/>
<line style="fill:none;stroke:#000000;stroke-width:7;" x1="432" y1="702" x2="432" y2="744"/>
<line style="fill:none;stroke:#000000;stroke-width:7;" x1="448" y1="702" x2="448" y2="742"/>
<line style="fill:none;stroke:#000000;stroke-width:7;" x1="464" y1="700" x2="464" y2="742"/>
<line style="fill:none;stroke:#000000;stroke-width:7;" x1="482" y1="700" x2="482" y2="740"/>
<line style="fill:none;stroke:#000000;stroke-width:7;" x1="500" y1="700" x2="500" y2="738"/>
<line style="fill:none;stroke:#000000;stroke-width:7;" x1="518" y1="702" x2="518" y2="742"/>
<line style="fill:none;stroke:#000000;stroke-width:7;" x1="536" y1="702" x2="534" y2="738"/>
<line style="fill:none;stroke:#000000;stroke-width:7;" x1="556" y1="702" x2="556" y2="738"/>
<line style="fill:none;stroke:#000000;stroke-width:7;" x1="572" y1="700" x2="572" y2="738"/>
<line style="fill:none;stroke:#000000;stroke-width:7;" x1="588" y1="702" x2="588" y2="738"/>
</svg>
