<?xml version="1.0" encoding="iso-8859-1"?>
<!-- Generator: Adobe Illustrator 12.0.1, SVG Export Plug-In . SVG Version: 6.00 Build 51448)  -->
<!DOCTYPE svg PUBLIC "-//W3C//DTD SVG 1.1//EN" "http://www.w3.org/Graphics/SVG/1.1/DTD/svg11.dtd" [
	<!ENTITY ns_svg "http://www.w3.org/2000/svg">
	<!ENTITY ns_xlink "http://www.w3.org/1999/xlink">
]>
<svg  version="1.1" id="Layer_1" xmlns="&ns_svg;" xmlns:xlink="&ns_xlink;" width="850.394" height="850.394"
	 viewBox="0 0 850.394 850.394" style="overflow:visible;enable-background:new 0 0 850.394 850.394;" xml:space="preserve">
<g id="XMLID_3_">
	<g>
		<polygon style="fill:#F6CC4B;" points="710.32,397.85 710.26,398.1 645.36,435.64 639.79,438.86 584.38,470.91 587,370.5 		"/>
		<polygon style="fill:#F6CC4B;" points="522.24,457.5 386.78,428.27 386.73,424.29 390.81,424.24 527.41,357.28 587,370.5 
			584.38,470.91 584.37,470.91 		"/>
		<path style="fill:#FF001C;" d="M584.38,470.91l-3.95,150.76l-48.47,32.55c30.13-21.43,41.46-65.479,25.021-106.12
			c-18.761-46.3-66.521-70.689-106.921-54.71l72.181-35.89l62.13,13.41H584.38z"/>
		<path style="fill:#FF001C;" d="M677.21,480.13c10.83,26.76,9.62,54.99-1.07,77.28l-77.35,51.939h-0.01l-18.351,12.32l3.95-150.76
			l55.41-32.05l5.57-3.221l2.43,4.2C660.18,449.93,670.53,463.65,677.21,480.13z"/>
		<path style="fill:#FF001C;" d="M404.72,549.68c5.4-25.27,21.21-46.529,44.79-56.08c0.181-0.069,0.37-0.149,0.55-0.21
			c40.4-15.979,88.16,8.41,106.921,54.71c16.439,40.641,5.109,84.69-25.021,106.12l-0.15,0.11c-4.319,3.06-9.029,5.65-14.1,7.7
			c-40.53,16.42-88.64-7.99-107.47-54.511C402.36,588.07,400.85,567.84,404.72,549.68z"/>
	</g>
	<g>
		<polyline style="fill:none;stroke:#231F20;stroke-width:21;" points="164.67,127.3 124.17,121.71 136.39,442.15 142.06,590.92 
			144.17,646.27 		"/>
		<polyline style="fill:none;stroke:#231F20;stroke-width:21;" points="576.43,774.79 577.58,730.86 580.43,621.67 584.38,470.91 
			587,370.5 591.82,186.32 527.85,177.48 390.11,158.45 383.39,157.52 284.84,143.91 225.07,135.65 164.67,127.31 		"/>
		<polyline style="fill:none;stroke:#231F20;stroke-width:21;" points="710.26,682.17 711.71,630.89 718.24,399.61 725.65,137.09 
			591.82,186.32 		"/>
		<polyline style="fill:none;stroke:#231F20;stroke-width:21;" points="116.86,120.36 123.38,118.67 223.16,92.87 284.15,77.1 
			527.85,107.22 726.31,131.75 733.72,132.67 		"/>
		<polyline style="fill:none;stroke:#231F20;stroke-width:21;" points="383.39,157.52 384.35,233.83 385.49,325.62 386.68,420.11 
			386.73,424.29 386.78,428.27 387.79,508.73 388.25,545.52 389.72,663.16 		"/>
		<polyline style="fill:none;stroke:#231F20;stroke-width:21;" points="139.64,442.03 288.31,482.1 387.12,508.74 		"/>
		<polyline style="fill:none;stroke:#231F20;stroke-width:21;" points="711.29,630.88 704.22,636.17 577.58,730.86 151.12,593.83 
			142.06,590.92 		"/>
		<polyline style="fill:none;stroke:#231F20;stroke-width:21;" points="284.15,77.1 284.84,143.91 285.6,218.76 286.51,307.49 
			288.31,482.1 288.78,528.47 289.22,571.02 		"/>
		<polyline style="fill:none;stroke:#231F20;stroke-width:21;" points="146.95,595.81 151.12,593.83 288.78,528.47 299.86,523.21 
			388.25,545.52 404.72,549.68 406.45,550.12 		"/>
		<polyline style="fill:none;stroke:#231F20;stroke-width:21;" points="164.67,127.3 164.67,127.31 171.29,238.22 171.34,239.14 		
			"/>
		<path style="fill:none;stroke:#231F20;stroke-width:21;" d="M191,260.16c0,12.12-8.42,21.95-18.8,21.95
			c-10.38,0-18.8-9.83-18.8-21.95c0-11.77,7.93-21.39,17.89-21.94c0.3-0.02,0.61-0.03,0.91-0.03
			C182.58,238.19,191,248.03,191,260.16z"/>
		<polyline style="fill:none;stroke:#231F20;stroke-width:21;" points="223.16,92.87 225.07,135.65 229.65,237.82 229.69,238.75 		
			"/>
		<path style="fill:none;stroke:#231F20;stroke-width:21;" d="M212.64,261.93c1.43,12.04,10.95,20.82,21.26,19.6
			c10.31-1.22,17.51-11.98,16.09-24.02c-1.4-11.69-10.39-20.29-20.34-19.69c-0.31,0.02-0.61,0.05-0.92,0.09
			C218.42,239.13,211.21,249.89,212.64,261.93z"/>
		<polyline style="fill:none;stroke:#231F20;stroke-width:21;" points="289.24,218.72 384.35,233.83 521.05,255.54 		"/>
		<polyline style="fill:none;stroke:#231F20;stroke-width:21;" points="286.63,307.49 385.49,325.62 525.31,351.26 		"/>
		<line style="fill:none;stroke:#231F20;stroke-width:21;" x1="295.71" y1="398.69" x2="386.68" y2="420.11"/>
		<line style="fill:none;stroke:#231F20;stroke-width:21;" x1="598.79" y1="609.35" x2="704.22" y2="636.17"/>
		<line style="fill:none;stroke:#231F20;stroke-width:21;" x1="390.11" y1="158.45" x2="527.85" y2="112.48"/>
		<polyline style="fill:none;stroke:#231F20;stroke-width:21;" points="390.81,424.24 527.41,357.28 527.85,357.07 527.85,351.26 
			527.85,177.48 527.85,112.48 527.85,107.22 		"/>
		<polyline style="fill:none;stroke:#231F20;stroke-width:21;" points="720.18,400.04 718.24,399.61 710.32,397.85 587,370.5 
			527.41,357.28 527.31,357.26 		"/>
		<polyline style="fill:none;stroke:#231F20;stroke-width:21;" points="639.79,438.86 645.36,435.64 710.26,398.1 		"/>
		<polyline style="fill:none;stroke:#231F20;stroke-width:21;" points="386.78,428.27 522.24,457.5 584.37,470.91 584.38,470.91 
			639.79,438.86 		"/>
		<path style="fill:none;stroke:#231F20;stroke-width:21;" d="M531.81,654.33c-4.319,3.06-9.029,5.65-14.1,7.7
			c-40.53,16.42-88.64-7.99-107.47-54.511c-7.88-19.449-9.39-39.68-5.52-57.84c5.4-25.27,21.21-46.529,44.79-56.08
			c0.181-0.069,0.37-0.149,0.55-0.21c40.4-15.979,88.16,8.41,106.921,54.71c16.439,40.641,5.109,84.69-25.021,106.12"/>
		<path style="fill:none;stroke:#231F20;stroke-width:21;" d="M647.79,439.84c12.39,10.09,22.74,23.811,29.42,40.29
			c10.83,26.76,9.62,54.99-1.07,77.28l-77.35,51.939h-0.01l-18.351,12.32l-48.47,32.55l-0.15,0.11l-0.77,0.51"/>
		<polyline style="fill:none;stroke:#231F20;stroke-width:21;" points="439.67,498.55 450.06,493.39 522.24,457.5 		"/>
	</g>
</g>
<rect style="fill:none;" width="850.394" height="850.394"/>
</svg>
