<?xml version="1.0" encoding="iso-8859-1"?>
<!-- Generator: Adobe Illustrator 12.0.1, SVG Export Plug-In . SVG Version: 6.00 Build 51448)  -->
<!DOCTYPE svg PUBLIC "-//W3C//DTD SVG 1.1//EN" "http://www.w3.org/Graphics/SVG/1.1/DTD/svg11.dtd" [
	<!ENTITY ns_svg "http://www.w3.org/2000/svg">
	<!ENTITY ns_xlink "http://www.w3.org/1999/xlink">
]>
<svg  version="1.1" id="Layer_1" xmlns="&ns_svg;" xmlns:xlink="&ns_xlink;" width="850.394" height="850.394"
	 viewBox="0 0 850.394 850.394" style="overflow:visible;enable-background:new 0 0 850.394 850.394;" xml:space="preserve">
<g id="XMLID_15_">
	<g>
		<path style="fill:#9C5C25;" d="M743.56,533.07c9.7,20.93,10.08,53.14-11.1,27.46c-10.22-12.4-25.78-32.28-46.9-30.4l-0.229-4.02
			l-9.271-31.261l-5.869-0.489c18.76-4.841,34.159-20.391,47.819-15.36c11,4.05,7.521,21.83,10.29,28.65
			C733,519.27,738.39,521.89,743.56,533.07z"/>
		<path style="fill:#FFEEC8;" d="M685.33,526.11l0.229,4.02c-0.939,0.09-1.899,0.21-2.859,0.39c0,0-57.17,17.75-100.141,51.521
			c-32.42,25.47-50.359,34.729-69.46,6.94c-6.14-8.921-12.899-19.421-19.239-29.58l60.63-38.2c2.109,3.77,7.779,12.27,14.18,8.16
			c8.1-5.21,21.99-34.15,63.09-33l28.01-0.61c3.591,0,7.061-0.52,10.421-1.39l5.869,0.489L685.33,526.11z"/>
		<path style="fill:#FFEEC8;" d="M647.25,339.92c-0.04,1.27-0.51,3.1-2.54,4.37c-2.95,1.78-6.28,4.03-7.91,1.97
			c0.15,1.06,0.28,3.6-1.55,5.01c-2.34,1.83-6.07,2.53-8.02,2.26l-0.45-0.12c-0.54,2.27-3.38,3.26-5.5,1.77
			c-2.011-1.4-4.05-7.71-10.67-16.61c-1.181-1.6-2.511-3.28-4.021-5.03c-4.229-4.9-9.03-9.14-12.02-13.34
			c-1.36-1.92-2.34-3.82-2.73-5.77c-1.58-7.97,0.34-14.27-0.85-27.97c8.05-4.16,16.279-12.31,31.12-15.29
			c4.979,4.45,16.21,12.74,19.229,18.48c0.63,1.21,9.43,27.31,9.23,40.56C650.53,332.92,648.66,337.56,647.25,339.92z"/>
		<path style="fill:#FFEEC8;" d="M606.59,333.54c1.51,1.75,2.84,3.43,4.021,5.03c-1.021,5.44-5.271,13.47-11.011,10.6
			c1.92-10.04-0.239-19.98-6.04-28.26l1.011-0.71C597.56,324.4,602.36,328.64,606.59,333.54z"/>
		<path style="fill:#A8D7F4;" d="M590.99,286.46c-2.26,1.16-4.5,2.02-6.87,2.36c-9.23,1.32-21.311-11.09-28.3-15.33
			c-30.57-18.5-49-34.55-66.59-37.39c-5.391-0.88-10.7-0.51-16.25,1.41C431.08,224.5,428,162.94,428,162.94l0.05-2.02
			c24.17,0.67,50.181,7.5,83.38,21.06c61.4,25.1,88.061,53.46,110.681,89.19C607.27,274.15,599.04,282.3,590.99,286.46z"/>
		<path style="fill:#FFFFFF;" d="M554.49,521.2l-60.63,38.2c-13.431-21.48-25.03-41.391-25.03-41.391l-0.51-0.66
			c8.38-6.42,17.33-14.25,27.989-24.46l1.771-1.76c24.92-23.02,49.71-50.35,56.5-65.51c6.03,16.24,8.09,64.7,14.38,86.46
			L554.49,521.2z"/>
		<path style="fill:#FFFFFF;" d="M548.08,369.04c10.16,17.59,16,35.31,6.5,56.58c-6.79,15.16-31.58,42.49-56.5,65.51l-1.771,1.76
			c-10.659,10.21-19.609,18.04-27.989,24.46c-3.301,2.53-6.521,4.83-9.71,6.99l-0.511-0.77l-86.95-60.46l-0.45-0.32
			c0,0,22.22-34.07,31.3-50.79l0.84-1.43c1.91,1.04,4.24,1.88,7.17,2.55c17.65,4.01,38.8-6.73,54.48-11.4
			c27.42-8.17,68.39-28.27,67.62-57.66C537.62,352.59,543.33,360.8,548.08,369.04z"/>
		<path style="fill:#A8D7F4;" d="M319.06,299.32c-13.59-18.28-30.92-68.63-34.42-94.44c4.66-3.12,9.48-4.79,14.36-4.3l0.11-0.4
			c3.78,1.04,7.72,1.58,11.75,1.58c16.97,0,32.14-9.65,42.19-24.79l0.86,0.58c26.6-11.57,49.41-17.33,74.14-16.63l-0.05,2.02
			c0,0,3.08,61.56,44.98,74.57c5.55-1.92,10.859-2.29,16.25-1.41l-0.721,5.21c17.3,40.18,36.71,64.4,43.04,97.5
			c0.34,1.78,0.521,3.53,0.561,5.25c0.77,29.39-40.2,49.49-67.62,57.66c-15.681,4.67-36.83,15.41-54.48,11.4
			c-2.93-0.67-5.26-1.51-7.17-2.55c-7.51-4.08-8.55-11.11-13.42-21.82c-18.1-39.81-40.37-61.71-72.15-89.14
			c0.47-0.01,0.94-0.01,1.42-0.01L319.06,299.32z"/>
		<path style="fill:#FFEEC8;" d="M458.1,523.57l0.511,0.77c-9.86,6.63-19.561,11.76-31.19,17.18
			c-15.86,7.391-36.16,13.841-50.08,23.41c-15.63,10.761-5.06,35.721-7.22,52.99c-6.37,50.94-32.42,71.2-37.05,105.36
			c-0.15,1.12-0.29,2.21-0.41,3.29l-1.6-0.17l-28.94-6.95l-4.11-0.53c0.38-2.83,0.46-5.97,0.22-9.43c0,0,2.43-20.37,1.27-48.15
			c-1.16-27.79,0-104.77,5.79-123.3c5.78-18.521,63.67-71.78,63.67-71.78l2.19-3.149L458.1,523.57z"/>
		<path style="fill:#FFEEC8;" d="M365.65,133.28c0,16.61-4.73,31.83-12.6,43.69c-10.05,15.14-25.22,24.79-42.19,24.79
			c-4.03,0-7.97-0.54-11.75-1.58c-24.62-6.72-43.05-34.12-43.05-66.9c0-37.82,24.53-68.49,54.8-68.49
			C341.12,64.79,365.65,95.46,365.65,133.28z"/>
		<path style="fill:#9C5C25;" d="M331.06,726.4l1.6,0.17c-3.89,33.43,3.97,49.14-15.89,54.47c-8.41,2.26-20.38-5-27.53-6.71
			c-12.19-2.92-17.46-0.061-29.57-2.36c-22.65-4.26-49.1-22.68-15.87-24.979c15.27-1.061,50.33,1.58,54.21-28.07l4.11,0.53
			L331.06,726.4z"/>
		<path style="fill:#A8D7F4;" d="M317.27,299.61c-43.94,0.42-40.69,40.13-70.86,54.7c-30.32,14.64-36.81-3.63-51.34-28.49
			c-0.35-0.6-0.71-1.21-1.07-1.82c8.19-6.55,21.53-20.06,22.36-32.02L218,292c21,7.05,17.1-7.88,25.71-25.98
			c6.59-13.86,22.48-48.82,40.93-61.14c3.5,25.81,20.83,76.16,34.42,94.44l-0.37,0.28C318.21,299.6,317.74,299.6,317.27,299.61z"/>
		<path style="fill:#FFFFFF;" d="M171.88,631.46c34.84,0,63.09,28.25,63.09,63.1c0,34.851-28.25,63.101-63.09,63.101
			c-34.85,0-63.1-28.25-63.1-63.101C108.78,659.71,137.03,631.46,171.88,631.46z"/>
		<path style="fill:#FFEEC8;" d="M183.86,270.04c-1.24-2.62-3.61-4.97-6.08-6.87c-0.68-1.98-1-4.22-1-6.65
			c0-2.26,4.16-2.33,8.58-1.4c0,0,0,0,0.01,0c3.67,1.17,6.76,2.45,9.34,3.7c6.42,3.12,9.64,6.08,10.38,6.82
			c5.78,5.63,6.04,12.49,10.12,20.11l0.24-0.09c0.8,2.02,1.06,4.15,0.91,6.32c-0.83,11.96-14.17,25.47-22.36,32.02
			c0.36,0.61,0.72,1.22,1.07,1.82L192,326c-16.8-5.36-16.77-4.12-32.23-12.26c-6.44-3.41-11.38-9.66-15.52-15.41
			c-0.83-1.16-1.97-2.79-3.06-4.53l2.91-0.59c2.28,2.34,10.12,7.74,15.2,4.53c3.2-2,4.37-5.4,2.81-9.04
			c2.87,2.17,5.62,2.92,10.16,1.07c5.43-2.23,4.03-6.67,1.33-9.39c1.71,1.23,7.52,3.47,10.52-3.51
			C185.14,274.49,184.87,272.18,183.86,270.04z"/>
		<path style="fill:#FFEEC8;" d="M170.47,258.82l0.02-0.05c1.6,0.71,4.51,2.26,7.29,4.4c0.82,2.39,2.16,4.38,4.08,5.82
			c0.63,0.47,1.31,0.81,2,1.05c1.01,2.14,1.28,4.45,0.26,6.83c-3,6.98-8.81,4.74-10.52,3.51c-0.01-0.02-0.02-0.03-0.03-0.02
			c-0.41-0.43-0.85-0.8-1.3-1.12c-4.18-3-7.5-8.08-12.17-10.35c-0.81-0.4-1.34-0.84-1.66-1.32c-1.48-2.27,2.12-5.37,4.94-7.93
			C166.46,256.9,169.76,258.44,170.47,258.82z"/>
		<path style="fill:#FFEEC8;" d="M173.57,280.36c0.01-0.01,0.02,0,0.03,0.02c2.7,2.72,4.1,7.16-1.33,9.39
			c-4.54,1.85-7.29,1.1-10.16-1.07c-0.96-0.73-1.93-1.62-2.98-2.62l-2.28,0.25c-8.95-4.95-8.5-7.71-12.75-7.76
			c-0.02,0-0.04,0-0.07,0l3.52-2.81c0.34-2.23,2.32-6.08,5.1-8.05c2.01-1.46,4.57-0.67,5.79-0.14c0.32,0.48,0.85,0.92,1.66,1.32
			c4.67,2.27,7.99,7.35,12.17,10.35C172.72,279.56,173.16,279.93,173.57,280.36z"/>
		<path style="fill:#FFEEC8;" d="M162.11,288.7c1.56,3.64,0.39,7.04-2.81,9.04c-5.08,3.21-12.92-2.19-15.2-4.53l-2.91,0.59
			c-1.42-2.23-2.77-4.63-3.35-6.4c-1.15-3.44,2.12-8.83,6.19-8.83c0.03,0,0.05,0,0.07,0c4.25,0.05,3.8,2.81,12.75,7.76l2.28-0.25
			C160.18,287.08,161.15,287.97,162.11,288.7z"/>
	</g>
	<g>
		<path style="fill:none;stroke:#231F20;stroke-width:21;" d="M299.11,200.18c-24.62-6.72-43.05-34.12-43.05-66.9
			c0-37.82,24.53-68.49,54.8-68.49c30.26,0,54.79,30.67,54.79,68.49c0,16.61-4.73,31.83-12.6,43.69
			c-10.05,15.14-25.22,24.79-42.19,24.79C306.83,201.76,302.89,201.22,299.11,200.18z"/>
		<path style="fill:none;stroke:#231F20;stroke-width:21;" d="M299,200.58c-4.88-0.49-9.7,1.18-14.36,4.3
			c-18.45,12.32-34.34,47.28-40.93,61.14C235.1,284.12,239,299.05,218,292"/>
		<path style="fill:none;stroke:#231F20;stroke-width:21;" d="M194,324c0.36,0.61,0.72,1.22,1.07,1.82
			c14.53,24.86,21.02,43.13,51.34,28.49c30.17-14.57,26.92-54.28,70.86-54.7c0.47-0.01,0.94-0.01,1.42-0.01"/>
		<path style="fill:none;stroke:#231F20;stroke-width:21;" d="M312.29,295.33c1.69,1.44,3.35,2.87,4.98,4.28
			c31.78,27.43,54.05,49.33,72.15,89.14c4.87,10.71,5.91,17.74,13.42,21.82c1.91,1.04,4.24,1.88,7.17,2.55
			c17.65,4.01,38.8-6.73,54.48-11.4c27.42-8.17,68.39-28.27,67.62-57.66c-0.04-1.72-0.221-3.47-0.561-5.25
			c-6.33-33.1-25.74-57.32-43.04-97.5"/>
		<path style="fill:none;stroke:#231F20;stroke-width:21;" d="M353.91,177.55c26.6-11.57,49.41-17.33,74.14-16.63
			c24.17,0.67,50.181,7.5,83.38,21.06c61.4,25.1,88.061,53.46,110.681,89.19c-14.841,2.98-23.07,11.13-31.12,15.29
			c-2.26,1.16-4.5,2.02-6.87,2.36c-9.23,1.32-21.311-11.09-28.3-15.33c-30.57-18.5-49-34.55-66.59-37.39
			c-5.391-0.88-10.7-0.51-16.25,1.41c-1.471,0.5-2.95,1.11-4.461,1.84"/>
		<path style="fill:none;stroke:#231F20;stroke-width:23.1544;" d="M548.08,369.04c-4.75-8.24-10.46-16.45-15.97-24.98
			c-0.011-0.01-0.011-0.02-0.021-0.03"/>
		<path style="fill:none;stroke:#231F20;stroke-width:21;" d="M368.96,466.26c0,0-57.89,53.26-63.67,71.78
			c-5.79,18.53-6.95,95.51-5.79,123.3c1.16,27.78-1.27,48.15-1.27,48.15c0.24,3.46,0.16,6.6-0.22,9.43
			c-3.88,29.65-38.94,27.01-54.21,28.07c-33.23,2.3-6.78,20.72,15.87,24.979c12.11,2.3,17.38-0.56,29.57,2.36
			c7.15,1.71,19.12,8.97,27.53,6.71c19.86-5.33,12-21.04,15.89-54.47c0.12-1.08,0.26-2.17,0.41-3.29
			c4.63-34.16,30.68-54.42,37.05-105.36c2.16-17.27-8.41-42.229,7.22-52.99c13.92-9.569,34.22-16.02,50.08-23.41
			c11.63-5.42,21.33-10.55,31.19-17.18c3.189-2.16,6.409-4.46,9.71-6.99c8.38-6.42,17.33-14.25,27.989-24.46l1.771-1.76
			c24.92-23.02,49.71-50.35,56.5-65.51c9.5-21.27,3.66-38.99-6.5-56.58"/>
		<path style="fill:none;stroke:#231F20;stroke-width:21;" d="M554.58,425.62c6.03,16.24,8.09,64.7,14.38,86.46l-14.47,9.12
			l-60.63,38.2l-1.021,0.64"/>
		<path style="fill:none;stroke:#231F20;stroke-width:21;" d="M284.45,203.46c0.06,0.46,0.12,0.94,0.19,1.42
			c3.5,25.81,20.83,76.16,34.42,94.44c1.96,2.65,3.84,4.63,5.6,5.76"/>
		<path style="fill:none;stroke:#231F20;stroke-width:7;" d="M173.57,280.36c-0.05-0.04-0.1-0.08-0.14-0.11"/>
		<path style="fill:none;stroke:#231F20;stroke-width:7;" d="M185.36,255.12c-0.82-0.27-1.68-0.53-2.56-0.78
			c-4.63-1.31-14.7,3.39-12.32,4.42l0.01,0.01c1.6,0.71,4.51,2.26,7.29,4.4c2.47,1.9,4.84,4.25,6.08,6.87
			c1.01,2.14,1.28,4.45,0.26,6.83c-3,6.98-8.81,4.74-10.52,3.51"/>
		<path style="fill:none;stroke:#231F20;stroke-width:7;" d="M215.21,285.75c-4.08-7.62-4.34-14.48-10.12-20.11
			c-0.74-0.74-3.96-3.7-10.38-6.82c-2.58-1.25-5.67-2.53-9.34-3.7"/>
		<path style="fill:none;stroke:#231F20;stroke-width:7;" d="M170.61,258.9c0,0-0.05-0.03-0.14-0.08c-0.71-0.38-4.01-1.92-7.09,0.82
			c-2.82,2.56-6.42,5.66-4.94,7.93c0.32,0.48,0.85,0.92,1.66,1.32c4.67,2.27,7.99,7.35,12.17,10.35c0.45,0.32,0.89,0.69,1.3,1.12
			c0.01-0.01,0.02,0,0.03,0.02c2.7,2.72,4.1,7.16-1.33,9.39c-4.54,1.85-7.29,1.1-10.16-1.07c-0.96-0.73-1.93-1.62-2.98-2.62
			c-1.57-1.48-3.31-3.22-5.47-5.06"/>
		<path style="fill:none;stroke:#231F20;stroke-width:7;" d="M159.14,267.91c0,0-0.26-0.15-0.7-0.34c-1.22-0.53-3.78-1.32-5.79,0.14
			c-2.78,1.97-4.76,5.82-5.1,8.05"/>
		<path style="fill:none;stroke:#231F20;stroke-width:7;" d="M192,326c-16.8-5.36-16.77-4.12-32.23-12.26
			c-6.44-3.41-11.38-9.66-15.52-15.41c-0.83-1.16-1.97-2.79-3.06-4.53c-1.42-2.23-2.77-4.63-3.35-6.4
			c-1.15-3.44,2.12-8.83,6.19-8.83c0.03,0,0.05,0,0.07,0c4.25,0.05,3.8,2.81,12.75,7.76"/>
		<path style="fill:none;stroke:#231F20;stroke-width:7;" d="M157.53,283.11c2.29,1.82,3.79,3.74,4.58,5.59
			c1.56,3.64,0.39,7.04-2.81,9.04c-5.08,3.21-12.92-2.19-15.2-4.53"/>
		<path style="fill:none;stroke:#231F20;stroke-width:7;stroke-miterlimit:10;" d="M622.11,271.17
			c4.979,4.45,16.21,12.74,19.229,18.48c0.63,1.21,9.43,27.31,9.23,40.56c-0.04,2.71-1.91,7.35-3.32,9.71
			c-0.77,1.31-1.41,1.91-1.51,1.11c-0.33-2.53,0.34-3.13-3.021-16.58c-1-4.07-7.779-15.45-7.779-15.45"/>
		<path style="fill:none;stroke:#231F20;stroke-width:7;stroke-miterlimit:10;" d="M647.11,338.41c0,0,0.17,0.62,0.14,1.51
			c-0.04,1.27-0.51,3.1-2.54,4.37c-2.95,1.78-6.28,4.03-7.91,1.97c-0.28-0.37-0.52-0.87-0.689-1.54
			c-1.24-5.03-1.301-8.14-6.11-17.64c-3.02-5.96-7.63-15.38-7.63-15.38"/>
		<path style="fill:none;stroke:#231F20;stroke-width:7;stroke-miterlimit:10;" d="M636.71,345.77c0,0,0.05,0.18,0.09,0.49
			c0.15,1.06,0.28,3.6-1.55,5.01c-2.34,1.83-6.07,2.53-8.02,2.26"/>
		<path style="fill:none;stroke:#231F20;stroke-width:7;stroke-miterlimit:10;" d="M590.75,283.89c0.09,0.89,0.18,1.74,0.24,2.57
			c1.189,13.7-0.73,20,0.85,27.97c0.391,1.95,1.37,3.85,2.73,5.77c2.989,4.2,7.79,8.44,12.02,13.34c1.51,1.75,2.84,3.43,4.021,5.03
			c6.62,8.9,8.659,15.21,10.67,16.61c2.12,1.49,4.96,0.5,5.5-1.77c0.13-0.54,0.13-1.14-0.04-1.81c-0.99-4.04,0.13-4.71-5.931-16.43
			c-1.939-3.71-3.29-9-12.93-20.5"/>
		<path style="fill:none;stroke:#231F20;stroke-width:14;stroke-miterlimit:10;" d="M194,324c8.19-6.55,21.53-20.06,22.36-32.02
			c0.15-2.17-0.11-4.3-0.91-6.32c-0.16-0.44-0.35-0.87-0.57-1.29"/>
		<path style="fill:none;stroke:#231F20;stroke-width:7;" d="M593.01,320.13c0.19,0.26,0.37,0.52,0.55,0.78
			c5.801,8.28,7.96,18.22,6.04,28.26c5.74,2.87,9.99-5.16,11.011-10.6c0.05-0.24,0.09-0.49,0.12-0.72"/>
		<path style="fill:none;stroke:#231F20;stroke-width:7;" d="M194.71,258.82c-1.79-1.46-5.65-2.93-9.34-3.7c-0.01,0-0.01,0-0.01,0
			c-4.42-0.93-8.58-0.86-8.58,1.4c0,2.43,0.32,4.67,1,6.65c0.82,2.39,2.16,4.38,4.08,5.82c0.63,0.47,1.31,0.81,2,1.05
			c4.54,1.58,9.9-0.95,9.9,3.33c0,14.88,4.23,17.48,8.71,21.96"/>
		<path style="fill:none;stroke:#231F20;stroke-width:21;" d="M553.62,519.52c0,0,0.31,0.671,0.87,1.681
			c2.109,3.77,7.779,12.27,14.18,8.16c8.1-5.21,21.99-34.15,63.09-33l28.01-0.61c3.591,0,7.061-0.52,10.421-1.39
			c18.76-4.841,34.159-20.391,47.819-15.36c11,4.05,7.521,21.83,10.29,28.65c4.7,11.619,10.09,14.239,15.26,25.42
			c9.7,20.93,10.08,53.14-11.1,27.46c-10.22-12.4-25.78-32.28-46.9-30.4c-0.939,0.09-1.899,0.21-2.859,0.39
			c0,0-57.17,17.75-100.141,51.521c-32.42,25.47-50.359,34.729-69.46,6.94c-6.14-8.921-12.899-19.421-19.239-29.58
			c-13.431-21.48-25.03-41.391-25.03-41.391"/>
		<path style="fill:none;stroke:#231F20;stroke-width:21;" d="M458.1,523.57l-86.95-60.46l-0.45-0.32c0,0,22.22-34.07,31.3-50.79"/>
		<path style="fill:none;stroke:#231F20;stroke-width:21;" d="M428,162.94c0,0,3.08,61.56,44.98,74.57
			c2.609,0.81,5.359,1.43,8.279,1.84"/>
		<line style="fill:none;stroke:#231F20;stroke-width:23.1544;" x1="302.12" y1="719.45" x2="331.06" y2="726.4"/>
		<line style="fill:none;stroke:#231F20;stroke-width:23.1544;" x1="676.06" y1="494.85" x2="685.33" y2="526.11"/>
		<path style="fill:none;stroke:#231F20;stroke-width:21;" d="M234.97,694.56c0,34.851-28.25,63.101-63.09,63.101
			c-34.85,0-63.1-28.25-63.1-63.101c0-34.85,28.25-63.1,63.1-63.1C206.72,631.46,234.97,659.71,234.97,694.56z"/>
	</g>
</g>
<rect style="fill:none;" width="850.394" height="850.394"/>
</svg>
