<svg xmlns="http://www.w3.org/2000/svg" width="850.394" height="850.394" viewBox="0 0 850.394 850.394" overflow="visible"><g fill="#abda4d"><path d="M426 629.49H196.88c-12.29 0-22.27-7.16-22.27-16.021L98 282l.01-1.94L752 281.94v.06l-74.77 331.44c0 8.859-9.961 16.02-22.25 16.02l-228.98.03zM670.56 459.5v-16.8c0-7.17-5.81-13-12.989-13h-36.66c-7.18 0-12.99 5.83-12.99 13v16.8c0 7.17 5.811 12.99 12.99 12.99h36.66c7.179 0 12.989-5.82 12.989-12.99zm0-99.01v-16.8c0-7.17-5.81-13-12.989-13h-36.66c-7.18 0-12.99 5.83-12.99 13v16.8c0 7.17 5.811 12.99 12.99 12.99h36.66c7.179 0 12.989-5.82 12.989-12.99zm-106.8 199.54v-16.8c0-7.171-5.819-12.99-12.99-12.99H514.1c-7.17 0-12.989 5.819-12.989 12.99v16.8c0 7.17 5.819 13 12.989 13h36.67c7.17 0 12.99-5.83 12.99-13zm0-100.22V443c0-7.17-5.819-12.99-12.99-12.99H514.1c-7.17 0-12.989 5.82-12.989 12.99v16.81c0 7.171 5.819 12.99 12.989 12.99h36.67c7.17 0 12.99-5.82 12.99-12.99zm0-99.01v-16.81c0-7.17-5.819-12.99-12.99-12.99H514.1c-7.17 0-12.989 5.82-12.989 12.99v16.81c0 7.17 5.819 12.99 12.989 12.99h36.67c7.17 0 12.99-5.82 12.99-12.99zM456.73 560.26v-16.8c0-7.17-5.82-12.99-12.99-12.99h-36.67c-7.17 0-12.99 5.82-12.99 12.99v16.8c0 7.17 5.82 12.99 12.99 12.99h36.67c7.17 0 12.99-5.82 12.99-12.99zm0-100.22v-16.81c0-7.171-5.82-12.99-12.99-12.99h-36.67c-7.17 0-12.99 5.819-12.99 12.99v16.81c0 7.17 5.82 12.99 12.99 12.99h36.67c7.17 0 12.99-5.82 12.99-12.99zm0-99.01v-16.81c0-7.17-5.82-12.99-12.99-12.99h-36.67c-7.17 0-12.99 5.82-12.99 12.99v16.81c0 7.17 5.82 12.99 12.99 12.99h36.67c7.17 0 12.99-5.82 12.99-12.99zM351.3 559.96v-16.81c0-7.17-5.82-12.99-12.99-12.99h-36.67c-7.17 0-12.99 5.82-12.99 12.99v16.81c0 7.16 5.82 12.99 12.99 12.99h36.67c7.17 0 12.99-5.83 12.99-12.99zm0-100.23v-16.81c0-7.16-5.82-12.99-12.99-12.99h-36.67c-7.17 0-12.99 5.83-12.99 12.99v16.811c0 7.17 5.82 12.989 12.99 12.989h36.67c7.17 0 12.99-5.82 12.99-12.99zm0-99.01v-16.8c0-7.17-5.82-13-12.99-13h-36.67c-7.17 0-12.99 5.83-12.99 13v16.8c0 7.17 5.82 12.99 12.99 12.99h36.67c7.17 0 12.99-5.82 12.99-12.99zm-106.8 99.32v-16.81c0-7.171-5.82-12.99-13-12.99h-36.66c-7.18 0-12.99 5.819-12.99 12.99v16.81c0 7.17 5.81 12.99 12.99 12.99h36.66c7.18 0 13-5.82 13-12.99zm0-99.01v-16.81c0-7.17-5.82-12.99-13-12.99h-36.66c-7.18 0-12.99 5.82-12.99 12.99v16.81c0 7.17 5.81 12.99 12.99 12.99h36.66c7.18 0 13-5.82 13-12.99z"/><path d="M772 282l-20-.06-653.99-1.88L78 280l-2.5-1.11 9.17-20.69c3.46-9.38 12.06-18.04 23.54-18.04H425.4l-.14-.07h317.17c11.49 0 20.09 8.65 23.551 18.03l9.829 22.19L772 282z"/></g><g fill="none" stroke="#231f20" stroke-width="21"><path d="M98 282l76.61 331.47c0 8.86 9.98 16.021 22.27 16.021H426l228.98-.03c12.289 0 22.25-7.16 22.25-16.02L752 282"/><path d="M244.5 361.03c0 7.17-5.82 12.99-13 12.99h-36.66c-7.18 0-12.99-5.82-12.99-12.99v-16.81c0-7.17 5.81-12.99 12.99-12.99h36.66c7.18 0 13 5.82 13 12.99v16.81zM351.3 360.72c0 7.17-5.82 12.99-12.99 12.99h-36.67c-7.17 0-12.99-5.82-12.99-12.99v-16.8c0-7.17 5.82-13 12.99-13h36.67c7.17 0 12.99 5.83 12.99 13v16.8zM563.76 360.8c0 7.17-5.819 12.99-12.99 12.99H514.1c-7.17 0-12.989-5.82-12.989-12.99v-16.81c0-7.17 5.819-12.99 12.989-12.99h36.67c7.171 0 12.99 5.82 12.99 12.99v16.81zM670.56 360.49c0 7.17-5.81 12.99-12.989 12.99h-36.66c-7.18 0-12.99-5.82-12.99-12.99v-16.8c0-7.17 5.811-13 12.99-13h36.66c7.18 0 12.989 5.83 12.989 13v16.8zM456.73 361.03c0 7.17-5.82 12.99-12.99 12.99h-36.67c-7.17 0-12.99-5.82-12.99-12.99v-16.81c0-7.17 5.82-12.99 12.99-12.99h36.67c7.17 0 12.99 5.82 12.99 12.99v16.81zM244.5 460.04c0 7.17-5.82 12.99-13 12.99h-36.66c-7.18 0-12.99-5.82-12.99-12.99v-16.81c0-7.171 5.81-12.99 12.99-12.99h36.66c7.18 0 13 5.819 13 12.99v16.81zM351.3 459.73c0 7.17-5.82 12.989-12.99 12.989h-36.67c-7.17 0-12.99-5.819-12.99-12.989v-16.81c0-7.16 5.82-12.99 12.99-12.99h36.67c7.17 0 12.99 5.83 12.99 12.99v16.81zM563.76 459.81c0 7.171-5.819 12.99-12.99 12.99H514.1c-7.17 0-12.989-5.819-12.989-12.99V443c0-7.17 5.819-12.99 12.989-12.99h36.67c7.171 0 12.99 5.82 12.99 12.99v16.81zM670.56 459.5c0 7.17-5.81 12.99-12.989 12.99h-36.66c-7.18 0-12.99-5.82-12.99-12.99v-16.8c0-7.17 5.811-13 12.99-13h36.66c7.18 0 12.989 5.83 12.989 13v16.8zM456.73 460.04c0 7.17-5.82 12.99-12.99 12.99h-36.67c-7.17 0-12.99-5.82-12.99-12.99v-16.81c0-7.171 5.82-12.99 12.99-12.99h36.67c7.17 0 12.99 5.819 12.99 12.99v16.81zM351.3 559.96c0 7.16-5.82 12.99-12.99 12.99h-36.67c-7.17 0-12.99-5.83-12.99-12.99v-16.81c0-7.17 5.82-12.99 12.99-12.99h36.67c7.17 0 12.99 5.82 12.99 12.99v16.81zM563.76 560.03c0 7.17-5.819 13-12.99 13H514.1c-7.17 0-12.989-5.83-12.989-13v-16.8c0-7.171 5.819-12.99 12.989-12.99h36.67c7.171 0 12.99 5.819 12.99 12.99v16.8zM456.73 560.26c0 7.17-5.82 12.99-12.99 12.99h-36.67c-7.17 0-12.99-5.82-12.99-12.99v-16.8c0-7.17 5.82-12.99 12.99-12.99h36.67c7.17 0 12.99 5.82 12.99 12.99v16.8z"/><path d="M776.67 282.26l-.86-1.95-9.829-22.19c-3.461-9.38-12.061-18.03-23.551-18.03H425.26l.14.07H108.21c-11.48 0-20.08 8.66-23.54 18.04l-9.17 20.69-1.52 3.44" stroke-linecap="round" stroke-linejoin="round"/><path stroke-linecap="round" stroke-linejoin="round" d="M78 280l20.01.06L752 281.94l20 .06"/></g><path fill="none" d="M0 0h850.394v850.394H0z"/></svg>