<?xml version="1.0" encoding="iso-8859-1"?>
<!-- Generator: Adobe Illustrator 12.0.1, SVG Export Plug-In . SVG Version: 6.00 Build 51448)  -->
<!DOCTYPE svg PUBLIC "-//W3C//DTD SVG 1.1//EN" "http://www.w3.org/Graphics/SVG/1.1/DTD/svg11.dtd" [
	<!ENTITY ns_svg "http://www.w3.org/2000/svg">
	<!ENTITY ns_xlink "http://www.w3.org/1999/xlink">
]>
<svg  version="1.1" id="Layer_1" xmlns="&ns_svg;" xmlns:xlink="&ns_xlink;" width="850.394" height="850.394"
	 viewBox="0 0 850.394 850.394" style="overflow:visible;enable-background:new 0 0 850.394 850.394;" xml:space="preserve">
<g id="XMLID_1_">
	<g>
		<path style="fill:#FFEEC8;" d="M648.06,405.24c5.761-14.78,3.95-17.71,24.74-17.65c11.16,0.03,14.681,48.36,19.36,91.23
			c1.16,10.699,2.38,21.069,3.84,30.25c6.3,40.12-8.77,205.42-12.74,247.229L680,756l-154.98,23.91c0,0-3.38-73.83-19.31-89.83
			s-36.36-61-41.96-84.54c-5.63-23.55-10.87-65.6-16.5-80.82c-4.92-13.33,27-27.63,40.58,2.351c1.95,4.279,3.51,9.479,4.52,15.699
			c0,0,13.69,44.381,22.96,37.04c2.771-2.22,4.62-22.84,5.83-50.93c1.851-42.81,2.221-102.87,2.261-141.38
			c0.04-19.84-0.021-33.93-0.011-37.05c0.061-23.34,39.53-24.65,42.11,2.98h0.01c0.021-11.71,0.04-21.35,0.061-27.81
			c0.04-14.44,23.87-12.81,23.87-12.81c13.159,5.65,18.319,18.34,19.239,41.88c0.101-2.31,0.23-4.3,0.38-5.9
			c1.36-14.41,22.16-12.83,22.16-12.83c8.57,5.67,12.75,8.01,14.23,31.82C646.08,377.82,647,390.82,648.06,405.24z"/>
		<path style="fill:#FFEEC8;" d="M276.21,352.45c2.59-27.63,42.06-26.32,42.12-2.98c0.01,3.12-0.06,17.21-0.02,37.05
			c0.05,38.51,0.41,98.58,2.26,141.38c1.21,28.1,3.06,48.71,5.83,50.939c9.28,7.33,22.96-37.05,22.96-37.05
			c1.01-6.22,2.58-11.42,4.52-15.7c13.58-29.979,45.51-15.68,40.59-2.35c-5.64,15.22-10.88,57.27-16.5,80.819
			c-5.61,23.54-26.04,68.54-41.97,84.54c-13.44,13.5-17.95,68.17-19.03,84.92L316,774l-157.28-15.93
			c-19.68-198.021-21.07-198.67-13.01-249.98c1.46-9.18,2.68-19.55,3.85-30.25c2.93-26.859,9.94-91.2,19.35-91.23
			c20.79-0.05,18.99,2.87,24.74,17.65c1.06-14.43,1.98-27.42,2.61-37.45c0.45-7.13,6.7-26.85,14.23-31.83
			c0,0,20.81-1.57,22.16,12.83c0.15,1.63,0.28,3.66,0.38,6.02c0.92-23.62,6.07-36.34,19.24-42c0,0,23.84-1.63,23.87,12.81
			C276.16,331.1,276.18,340.74,276.21,352.45z"/>
	</g>
	<g>
		<path style="fill:none;stroke:#231F20;stroke-width:21;" d="M318.31,386.52c-0.04-19.84,0.03-33.93,0.02-37.05
			c-0.06-23.34-39.53-24.65-42.12,2.98"/>
		<path style="fill:none;stroke:#231F20;stroke-width:21;" d="M320.57,527.9c-1.85-42.801-2.21-102.871-2.26-141.38"/>
		<path style="fill:none;stroke:#231F20;stroke-width:21;" d="M353.88,526.09c-1.94,4.28-3.51,9.48-4.52,15.7
			c0,0-13.68,44.38-22.96,37.05c-2.77-2.229-4.62-22.84-5.83-50.939"/>
		<path style="fill:none;stroke:#231F20;stroke-width:21;" d="M316.69,778.93c0,0,0.08-1.8,0.28-4.91
			c1.08-16.75,5.59-71.42,19.03-84.92c15.93-16,36.36-61,41.97-84.54c5.62-23.55,10.86-65.6,16.5-80.819
			c4.92-13.33-27.01-27.63-40.59,2.35"/>
		<path style="fill:none;stroke:#231F20;stroke-width:21;" d="M149.56,477.84c2.93-26.859,9.94-91.2,19.35-91.23
			c20.79-0.05,18.99,2.87,24.74,17.65c0.12,0.3,0.24,0.6,0.36,0.91"/>
		<path style="fill:none;stroke:#231F20;stroke-width:21;" d="M159.4,764.97c-0.23-2.33-0.46-4.63-0.68-6.899
			c-19.68-198.021-21.07-198.67-13.01-249.98c1.46-9.18,2.68-19.55,3.85-30.25"/>
		<path style="fill:none;stroke:#231F20;stroke-width:21;" d="M182.36,547.6c0,0,6.91-83.83,11.29-143.34
			c1.06-14.43,1.98-27.42,2.61-37.45c0.45-7.13,6.7-26.85,14.23-31.83c0,0,20.81-1.57,22.16,12.83c0.15,1.63,0.28,3.66,0.38,6.02
			c1.56,35.95-2.65,150.14-2.65,150.14"/>
		<path style="fill:none;stroke:#231F20;stroke-width:21;" d="M233.02,354.15c0-0.11,0.01-0.22,0.01-0.32
			c0.92-23.62,6.07-36.34,19.24-42c0,0,23.84-1.63,23.87,12.81c0.02,6.46,0.04,16.1,0.07,27.81c0.14,66.32,0.41,199.13,0.41,199.13"
			/>
		<path style="fill:none;stroke:#231F20;stroke-width:21;" d="M523.4,387.5c0.04-19.84-0.021-33.93-0.011-37.05
			c0.061-23.34,39.53-24.65,42.11,2.98"/>
		<path style="fill:none;stroke:#231F20;stroke-width:21;" d="M521.14,528.88c1.851-42.81,2.221-102.87,2.261-141.38"/>
		<path style="fill:none;stroke:#231F20;stroke-width:21;" d="M487.83,527.07c1.95,4.279,3.51,9.479,4.52,15.699
			c0,0,13.69,44.381,22.96,37.04c2.771-2.22,4.62-22.84,5.83-50.93"/>
		<path style="fill:none;stroke:#231F20;stroke-width:21;" d="M525.02,779.91c0,0-3.38-73.83-19.31-89.83s-36.36-61-41.96-84.54
			c-5.63-23.55-10.87-65.6-16.5-80.82c-4.92-13.33,27-27.63,40.58,2.351"/>
		<path style="fill:none;stroke:#231F20;stroke-width:21;" d="M692.16,478.82c-4.68-42.87-8.2-91.2-19.36-91.23
			c-20.79-0.06-18.979,2.87-24.74,17.65c-0.119,0.3-0.239,0.6-0.359,0.91"/>
		<path style="fill:none;stroke:#231F20;stroke-width:21;" d="M682.32,765.95c0,0,0.35-3.48,0.939-9.65
			C687.23,714.49,702.3,549.19,696,509.07c-1.46-9.181-2.68-19.551-3.84-30.25"/>
		<path style="fill:none;stroke:#231F20;stroke-width:21;" d="M659.36,548.58c0,0-6.91-83.82-11.301-143.34
			c-1.06-14.42-1.979-27.42-2.609-37.46c-1.48-23.81-5.66-26.15-14.23-31.82c0,0-20.8-1.58-22.16,12.83
			c-0.149,1.6-0.279,3.59-0.38,5.9c-1.569,35.82,2.66,150.26,2.66,150.26"/>
		<path style="fill:none;stroke:#231F20;stroke-width:21;" d="M608.7,355.13c-0.01-0.15-0.01-0.29-0.021-0.44
			c-0.92-23.54-6.08-36.23-19.239-41.88c0,0-23.83-1.63-23.87,12.81c-0.021,6.46-0.04,16.1-0.061,27.81
			c-0.149,66.32-0.42,199.129-0.42,199.129"/>
		<line style="fill:none;stroke:#231F20;stroke-width:28;" x1="257.23" y1="72.16" x2="257.23" y2="247.44"/>
		<polyline style="fill:none;stroke:#231F20;stroke-width:28;" points="313.2,186.75 257.03,248.61 200.88,186.65 		"/>
	</g>
</g>
<rect style="fill:none;" width="850.394" height="850.394"/>
</svg>
