<svg xmlns="http://www.w3.org/2000/svg" width="850.394" height="850.394" viewBox="0 0 850.394 850.394" overflow="visible"><path d="M300.497 171.563c-4.278 12.242 6.699 27.206 24.386 33.331 17.774 6.213 35.655 1.254 39.923-10.978 4.278-12.251-6.699-27.108-24.483-33.331-17.774-6.222-35.558-1.263-39.826 10.978zm120.81 162.27l-148.823 131.33-1.944-1.186L69.086 340.766h-.934l-.156-178.77 153.928-93.537L424 175.997l.087 157.836h-2.78zm-213.89-212.694c-4.181 12.242 6.709 27.206 24.483 33.418 17.774 6.125 35.655 1.274 39.933-10.978 4.278-12.231-6.699-27.195-24.483-33.418-17.784-6.116-35.655-1.264-39.933 10.978zm47.604 127.373c17.784 6.125 35.655 1.264 39.933-10.978 4.278-12.241-6.699-27.206-24.483-33.418-17.784-6.125-35.655-1.264-39.835 10.978-4.278 12.241 6.612 27.205 24.385 33.418zm-57.716-66.069c4.278-12.242-6.602-27.196-24.376-33.418-17.784-6.223-35.655-1.264-39.933 10.978-4.278 12.241 6.699 27.205 24.483 33.321 17.774 6.222 35.655 1.37 39.826-10.881z" fill="#fff400"/><path fill="#f73900" d="M270.54 463.978v172.313L68.298 511.835l-.146-171.069h.934z"/><path fill="#0b00ea" d="M803.573 523.425l.428 144.573-146.003 134.005L435.999 676l-2.003-154.005 218.003 130.009 150.962-128.579z"/><path d="M803.563 519.001l.01 4.424h-.612L651.999 652.004 433.996 521.995l153.519-115.17 216.048 112.176zm-63.676 22.236c4.181-12.241-6.699-27.108-24.483-33.331-17.773-6.213-35.654-1.254-39.933 10.978-4.172 12.251 6.709 27.215 24.492 33.331 17.774 6.213 35.655 1.264 39.924-10.978zm-69.949 43.618c4.269-12.231-6.611-27.205-24.395-33.418-17.774-6.106-35.655-1.265-39.924 10.977-4.278 12.242 6.699 27.206 24.483 33.438 17.774 6.107 35.655 1.254 39.836-10.997zM646.807 490.9c4.278-12.222-6.603-27.186-24.386-33.408-17.773-6.126-35.655-1.274-39.923 10.978-4.278 12.241 6.699 27.205 24.482 33.408 17.775 6.136 35.656 1.274 39.827-10.978zm-72.477 38.787c4.278-12.251-6.699-27.118-24.482-33.321-17.774-6.136-35.558-1.273-39.836 10.978-4.269 12.222 6.709 27.186 24.492 33.312 10.277 3.627 20.623 3.49 28.324.33a24.937 24.937 0 0 0 4.074-2.119c.496-.321.973-.661 1.439-1.031.243-.185.467-.369.69-.544a20.81 20.81 0 0 0 1.264-1.177c1.809-1.83 3.189-3.988 4.035-6.428z" fill="#0b00ea"/><path d="M715.403 507.906c17.784 6.223 28.664 21.09 24.483 33.331-4.269 12.241-22.149 17.19-39.924 10.978-17.783-6.116-28.664-21.08-24.492-33.331 4.279-12.232 22.16-17.191 39.933-10.978zM645.543 551.438c17.783 6.213 28.663 21.187 24.395 33.418-4.181 12.251-22.062 17.104-39.835 10.997-17.784-6.232-28.762-21.196-24.483-33.438 4.268-12.242 22.149-17.084 39.923-10.977zM622.421 457.492c17.783 6.223 28.664 21.187 24.386 33.408-4.171 12.252-22.052 17.113-39.826 10.978-17.783-6.203-28.761-21.167-24.482-33.408 4.267-12.252 22.148-17.104 39.922-10.978zM549.848 496.365c17.783 6.203 28.761 21.07 24.482 33.321-.846 2.44-2.227 4.599-4.035 6.427-.398.398-.826.788-1.264 1.177-.224.175-.447.359-.69.544-.457.36-.943.7-1.439 1.031-.505.32-1.021.632-1.556.924-.807.438-1.643.836-2.518 1.195-7.701 3.16-18.047 3.297-28.324-.33-17.783-6.126-28.761-21.09-24.492-33.312 4.278-12.25 22.061-17.113 39.836-10.977z" fill="#0b00ea"/><path d="M569.031 537.29c.438-.389.865-.778 1.264-1.177a20.81 20.81 0 0 1-1.264 1.177zM568.341 537.834c-.467.37-.943.71-1.439 1.031.495-.331.982-.671 1.439-1.031zM566.901 538.865zM562.828 540.984z" fill="#fff"/><path fill="#f73900" d="M424.088 333.833l.078 148.832L270.54 636.291V463.978l1.944 1.185 148.823-131.33z"/><path d="M340.323 160.585c17.784 6.223 28.761 21.08 24.483 33.331-4.268 12.232-22.149 17.19-39.923 10.978-17.687-6.125-28.664-21.089-24.386-33.331 4.268-12.241 22.052-17.2 39.826-10.978zM270.472 204.116c17.784 6.213 28.761 21.177 24.483 33.418-4.278 12.242-22.149 17.103-39.933 10.978-17.774-6.213-28.664-21.177-24.385-33.418 4.18-12.242 22.051-17.103 39.835-10.978zM247.35 110.161c17.784 6.223 28.761 21.187 24.483 33.418-4.278 12.251-22.159 17.103-39.933 10.978-17.774-6.213-28.664-21.177-24.483-33.418 4.278-12.242 22.149-17.094 39.933-10.978zM172.929 149.025c17.774 6.223 28.654 21.177 24.376 33.418-4.171 12.251-22.052 17.103-39.826 10.88-17.784-6.116-28.761-21.08-24.483-33.321 4.278-12.241 22.15-17.2 39.933-10.977z" fill="#fff400"/><g fill="none" stroke="#000" stroke-width="17.931"><path d="M569.031 537.29c.438-.389.865-.778 1.264-1.177M562.828 540.984a26.01 26.01 0 0 0 2.518-1.195 27.718 27.718 0 0 0 1.556-.924c.496-.331.982-.671 1.439-1.031M172.929 149.025c17.774 6.223 28.654 21.177 24.376 33.418-4.171 12.251-22.052 17.103-39.826 10.88-17.784-6.116-28.761-21.08-24.483-33.321 4.278-12.241 22.15-17.2 39.933-10.977zM247.35 110.161c17.784 6.223 28.761 21.187 24.483 33.418-4.278 12.251-22.159 17.103-39.933 10.978-17.774-6.213-28.664-21.177-24.483-33.418 4.278-12.242 22.149-17.094 39.933-10.978zM340.323 160.585c17.784 6.223 28.761 21.08 24.483 33.331-4.268 12.232-22.149 17.19-39.923 10.978-17.687-6.125-28.664-21.089-24.386-33.331 4.268-12.241 22.052-17.2 39.826-10.978zM270.472 204.116c17.784 6.213 28.761 21.177 24.483 33.418-4.278 12.242-22.149 17.103-39.933 10.978-17.774-6.213-28.664-21.177-24.385-33.418 4.18-12.242 22.051-17.103 39.835-10.978zM622.421 457.492c17.783 6.223 28.664 21.187 24.386 33.408-4.171 12.252-22.052 17.113-39.826 10.978-17.783-6.203-28.761-21.167-24.482-33.408 4.267-12.252 22.148-17.104 39.922-10.978zM715.403 507.906c17.784 6.223 28.664 21.09 24.483 33.331-4.269 12.241-22.149 17.19-39.924 10.978-17.783-6.116-28.664-21.08-24.492-33.331 4.279-12.232 22.16-17.191 39.933-10.978z"/><path d="M562.828 540.984c-7.701 3.16-18.047 3.297-28.324-.33-17.783-6.126-28.761-21.09-24.492-33.312 4.278-12.251 22.062-17.113 39.836-10.978 17.783 6.203 28.761 21.07 24.482 33.321-.846 2.44-2.227 4.599-4.035 6.427-.398.408-.826.798-1.264 1.177-.224.175-.447.359-.69.544-.467.37-.943.71-1.439 1.031a24.517 24.517 0 0 1-4.074 2.12zM645.543 551.438c17.783 6.213 28.663 21.187 24.395 33.418-4.181 12.251-22.062 17.104-39.835 10.997-17.784-6.232-28.762-21.196-24.483-33.438 4.268-12.242 22.149-17.084 39.923-10.977zM424.088 333.833L424 175.997 221.924 68.458 67.997 161.996l.155 178.77.146 171.069L270.54 636.291l153.626-153.626z"/><path d="M69.086 340.766L270.54 463.978l1.944 1.185 148.823-131.33M72.003 175.997L270.54 301.814l147.461-113.819M270.54 301.814v334.477M433.996 521.995L435.999 676l221.999 126.003 146.003-134.005-.428-144.573-.01-4.424-216.048-112.176z"/><path d="M433.996 521.995l218.003 130.009 150.962-128.579M654.332 653.53l-.33 142.474"/></g><path fill="none" d="M0 0h850.394v850.394H0z"/></svg>