<svg xmlns="http://www.w3.org/2000/svg" width="850.394" height="850.394" viewBox="0 0 850.394 850.394" overflow="visible"><path d="M669.59 201.59s117.11 39.42 113.641 66.08c-3.48 26.67-53.811 79.33-95.091 120.59-49.859 49.87-98.56 74.221-180.88 80.021-46.62 3.27-80.52 5.21-80.52 5.21l-.97-.101s-34.72-2.409-81.35-5.689c-82.32-5.79-131.02-30.15-180.88-80.02-41.27-41.27-91.6-93.92-95.08-120.58-3.48-26.67 113.64-66.09 113.64-66.09s88.11-35.95 129.85-32.47c41.75 3.48 73.05 12.76 86.97 18.55 12.84 5.35 25.73 4.65 27.65 4.51h.01c4.229.16 16.3.19 26.189-3.93 13.91-5.79 45.211-15.07 86.961-18.55 41.74-3.481 129.86 32.469 129.86 32.469z" fill="#ee947d"/><g fill="none" stroke="#231f20" stroke-width="21"><path d="M426.58 191.6c.16-.01.24-.02.24-.02h-.87c.18.01.39.02.62.02h.01c4.229.16 16.3.19 26.189-3.93 13.91-5.79 45.211-15.07 86.961-18.55 41.739-3.48 129.859 32.47 129.859 32.47s117.11 39.42 113.641 66.08c-3.48 26.67-53.811 79.33-95.091 120.59-49.859 49.87-98.56 74.221-180.88 80.021-46.62 3.27-80.52 5.21-80.52 5.21l-.97-.101s-34.72-2.409-81.35-5.689c-82.32-5.79-131.02-30.15-180.88-80.02-41.27-41.27-91.6-93.92-95.08-120.58-3.48-26.67 113.64-66.09 113.64-66.09s88.11-35.95 129.85-32.47c41.75 3.48 73.05 12.76 86.97 18.55 12.84 5.35 25.73 4.65 27.65 4.51"/><path d="M780.33 263.62s-41.75 27.82-147.84 50.44c-19.48 4.15-108.38 10.66-141.46 20.29-31.88 9.28-63.19 9.86-63.19 9.86s-31.89 0-63.78-9.28c-33.08-9.63-121.97-16.14-141.46-20.29C116.5 292.03 74.76 264.2 74.76 264.2M736.44 691.18L615.87 501.92M700.21 524.23l-85.18-23.24-14.87 87.08"/></g><path fill="none" d="M0 0h850.394v850.394H0z"/></svg>