<?xml version="1.0" encoding="iso-8859-1"?>
<!-- Generator: Adobe Illustrator 12.0.1, SVG Export Plug-In . SVG Version: 6.00 Build 51448)  -->
<!DOCTYPE svg PUBLIC "-//W3C//DTD SVG 1.1//EN" "http://www.w3.org/Graphics/SVG/1.1/DTD/svg11.dtd" [
	<!ENTITY ns_svg "http://www.w3.org/2000/svg">
	<!ENTITY ns_xlink "http://www.w3.org/1999/xlink">
]>
<svg  version="1.1" id="Layer_1" xmlns="&ns_svg;" xmlns:xlink="&ns_xlink;" width="850.394" height="850.394"
	 viewBox="0 0 850.394 850.394" style="overflow:visible;enable-background:new 0 0 850.394 850.394;" xml:space="preserve">
<g id="XMLID_3_">
	<g>
		<path style="fill:#ABDA4D;" d="M425.14,275.35c0.26,0.05,0.57,0.11,0.919,0.18c0.12,0.02,0.24,0.05,0.36,0.07
			c0.05,0.01,0.1,0.02,0.16,0.03c14.71,2.9,86.88,17.15,123.93,25.05c41.391,8.84,112.521,14.38,135.61,21.33
			c52.36,15.73,93.41,46.05,93.41,113.721c0,0-2.75,145.14-147.511,169.699c-107.789,18.28-174.829-4.55-242.93-22.91
			c0,0-46.53-18.71-70.28-22.81c-12.48-2.15-25.69-1.93-37.21,2.521c-9.69,3.72-15.72,11.539-27.18,9.539
			c-8.5-17.619,22.08-33.3,35.78-35.72c34.6-6.13,105.78,16.65,105.78,16.65c40.63,14.609,146,37.84,220.87,24.689
			c74.86-13.14,112.841-67.3,120-105.33c7.15-38.04-2.3-62.7-2.3-62.7c-14.069-48.11-94.78-37.17-113.6-36.34
			C602.12,373.85,576,386,576,386h-0.01c1.75-18.38,0.569-47.78-24.65-48.47c-25.95-0.71-30.899,26-28.62,46.94l-3.76,0.43
			c-23.76,20-62,24.61-91.61,23.75c-43.47-1.26-75.359-10.91-113.03-31.38c13.36-14.18,25.76-30.61,9.6-46.29
			c-17.72-17.18-58.85-9.83-77.53-1.1l-3.9-0.6c0.32-1.34,0.58-2.73,0.78-4.18c2.43-17.57,9.62-35.51-1.49-51.84
			c0,0,39.33-0.87,94.16-3.29c52.6-2.32,87.69,5.02,90.46,5.62l-0.341-0.06L425.14,275.35z"/>
		<path style="fill:#ABDA4D;" d="M648.27,439.58c-0.52,0.21-1.1,0.47-1.76,0.76c-2.34-2.81-6.47-8.02-8.05-9.09
			c-6.13-4.16-19.27,0.92-26.33,2.2c-13.31,2.41-27.33,6.359-40.81,5.7c-11.84-0.58-24.391-3.131-33.25-11.631
			c-8.94-8.58-9.83-19.35-13-30.609c-1.03-3.65-1.86-7.91-2.351-12.44c-2.279-20.94,2.67-47.65,28.62-46.94
			c25.22,0.69,26.4,30.09,24.65,48.47c-0.8,8.41-2.21,14.52-2.21,14.52c24.29-1.07,58.58-4.84,81.92,2.72
			c9.42,3.06,16.01,8.66,16.63,19.15c0.32,5.37-3.1,11.91-4.04,17.06c-7.51-0.42-13.26,0.5-14.38,0.7L648.27,439.58z"/>
		<path style="fill:#ABDA4D;" d="M314.32,377.27c-5.64,5.99-11.47,11.58-15.37,16.54c-2.3,2.92-14.34,18.56-17.02,22.27l-0.02,0.01
			c-1.31-1.68-2.59-3.41-3.72-5.26l-16.12-11.84c1.29-10.1,11.15-18.12,17.72-26.59c-18.07,6.36-51.12-8.43-66.34-16.48
			c13.99-3.44,25.35-11.14,29.04-26.64l3.9,0.6c18.68-8.73,59.81-16.08,77.53,1.1C340.08,346.66,327.68,363.09,314.32,377.27z"/>
		<path style="fill:#FFF400;" d="M165.24,281.12c0.17,3.84-2.8,7.1-6.65,7.27c-3.84,0.17-7.1-2.81-7.27-6.66
			c-0.17-3.84,2.81-7.09,6.66-7.26C161.82,274.3,165.08,277.28,165.24,281.12z"/>
		<path style="fill:#ABDA4D;" d="M165.24,281.12c-0.16-3.84-3.42-6.82-7.26-6.65c-3.85,0.17-6.83,3.42-6.66,7.26
			c0.17,3.85,3.43,6.83,7.27,6.66C162.44,288.22,165.41,284.96,165.24,281.12z M241.78,273.26c11.11,16.33,3.92,34.27,1.49,51.84
			c-0.2,1.45-0.46,2.84-0.78,4.18c-3.69,15.5-15.05,23.2-29.04,26.64c-4.09,1.01-8.41,1.65-12.83,2.02
			c-11.38,0.95-22.6,1.07-33.71-1.61c-11.16-2.68-20.93-9.59-31.18-15.2c-16.79-9.21-30.94-9.77-56.39-18.8
			c-21.5-10.79-4.99-23.74,3.12-40.34c8.47-17.31,62.18-30.72,71.37-32.05c10.87-1.58,17.09,3.56,27.25,4.74
			c13.72,1.59,26.31,1.29,40.46,5.37C229.83,262.44,236.99,266.21,241.78,273.26z"/>
	</g>
	<g>
		<path style="fill:none;stroke:#231F20;stroke-width:19.6622;" d="M668.36,443.91c-0.42-1.28-0.37-2.8-0.07-4.46
			c0.94-5.15,4.36-11.69,4.04-17.06c-0.62-10.49-7.21-16.09-16.63-19.15c-23.34-7.56-57.63-3.79-81.92-2.72
			c0,0,1.41-6.11,2.21-14.52c1.75-18.38,0.569-47.78-24.65-48.47c-25.95-0.71-30.899,26-28.62,46.94
			c0.49,4.53,1.32,8.79,2.351,12.44c3.17,11.26,4.06,22.03,13,30.609c8.859,8.5,21.41,11.051,33.25,11.631
			c13.479,0.659,27.5-3.29,40.81-5.7c7.061-1.28,20.2-6.36,26.33-2.2c1.58,1.07,5.71,6.28,8.05,9.09c0.74,0.9,1.3,1.561,1.54,1.74"
			/>
		<path style="fill:none;stroke:#231F20;stroke-width:13.1081;stroke-linecap:round;stroke-linejoin:round;" d="M650.45,438.73
			c0,0-0.82,0.289-2.181,0.85c-0.52,0.21-1.1,0.47-1.76,0.76c-6.87,3.08-20.72,10.54-24.67,22.08"/>
		<path style="fill:none;stroke:#231F20;stroke-width:13.1081;stroke-linecap:round;stroke-linejoin:round;" d="M648.05,442.08
			c0,0,0.36,14.46-5.63,21.02c-6,6.561-15.13,16.511-14.82,23.61"/>
		<path style="fill:none;stroke:#231F20;stroke-width:13.1081;stroke-linecap:round;stroke-linejoin:round;" d="M651.09,449.05
			c0,0,1.34,55.16,8.04,70.71"/>
		<path style="fill:none;stroke:#231F20;stroke-width:13.1081;stroke-linecap:round;stroke-linejoin:round;" d="M659.58,452.37
			c0,0,21.85,27.6,33.81,38.55c11.971,10.96,18.36,19.42,18.69,27.061"/>
		<path style="fill:none;stroke:#231F20;stroke-width:13.1081;stroke-linecap:round;stroke-linejoin:round;" d="M653.71,440.19
			c0,0,0.07-0.011,0.2-0.04c1.12-0.2,6.87-1.12,14.38-0.7c5.91,0.34,12.92,1.52,19.61,4.56"/>
		<path style="fill:none;stroke:#231F20;stroke-width:19.6622;" d="M312,376c0.78,0.43,1.55,0.85,2.32,1.27
			c37.67,20.47,69.56,30.12,113.03,31.38c29.61,0.86,67.851-3.75,91.61-23.75"/>
		<path style="fill:none;stroke:#231F20;stroke-width:19.6622;" d="M79.71,322.51c-0.12-0.06-0.25-0.12-0.37-0.18
			c-21.5-10.79-4.99-23.74,3.12-40.34c8.47-17.31,62.18-30.72,71.37-32.05c10.87-1.58,17.09,3.56,27.25,4.74
			c13.72,1.59,26.31,1.29,40.46,5.37c8.29,2.39,15.45,6.16,20.24,13.21c11.11,16.33,3.92,34.27,1.49,51.84
			c-0.2,1.45-0.46,2.84-0.78,4.18c-3.69,15.5-15.05,23.2-29.04,26.64c-4.09,1.01-8.41,1.65-12.83,2.02
			c-11.38,0.95-22.6,1.07-33.71-1.61c-11.16-2.68-20.93-9.59-31.18-15.2c-16.79-9.21-30.94-9.77-56.39-18.8
			c-2.13-0.76-4.34-1.57-6.64-2.46"/>
		<path style="fill:none;stroke:#231F20;stroke-width:13.1081;stroke-linecap:round;stroke-linejoin:round;" d="M76.22,312.59
			c0,0,46.09,3.7,71.47,2.59c25.37-1.12,57.11-6.62,57.11-6.62"/>
		<path style="fill:none;stroke:#231F20;stroke-width:19.6622;" d="M261.95,401.96c-0.02-0.36-0.02-0.72-0.01-1.08
			c0-0.64,0.05-1.27,0.13-1.89c1.29-10.1,11.15-18.12,17.72-26.59c3.47-4.45,6.01-9.03,5.92-14.11"/>
		<path style="fill:none;stroke:#231F20;stroke-width:19.6622;" d="M246.39,329.88c18.68-8.73,59.81-16.08,77.53,1.1
			c16.16,15.68,3.76,32.11-9.6,46.29c-5.64,5.99-11.47,11.58-15.37,16.54c-2.3,2.92-14.34,18.56-17.02,22.27"/>
		<path style="fill:none;stroke:#231F20;stroke-width:19.6622;" d="M213.45,355.92c15.22,8.05,48.27,22.84,66.34,16.48
			c0.17-0.05,0.34-0.11,0.5-0.17"/>
		<path style="fill:none;stroke:#231F20;stroke-width:13.1081;stroke-linecap:round;stroke-linejoin:round;" d="M261.96,400.88
			c-0.01,0-0.01,0-0.02,0c-11.73,1.88-19.08,7.49-28.96,13.59"/>
		<path style="fill:none;stroke:#231F20;stroke-width:13.1081;stroke-linecap:round;stroke-linejoin:round;" d="M263.32,408.21
			c-18.67,6.6-24.4,23.06-34.4,38.15"/>
		<path style="fill:none;stroke:#231F20;stroke-width:13.1081;stroke-linecap:round;stroke-linejoin:round;" d="M268.8,408.51
			c-16.49,18.46-25.5,45.07-24.25,69.96"/>
		<path style="fill:none;stroke:#231F20;stroke-width:13.1081;stroke-linecap:round;stroke-linejoin:round;" d="M270.08,412.83
			c-0.92,5.28,1.07,11.59,1.29,16.979c0.26,6.04,0.21,12.04,0.14,18.08c-0.09,7.99-0.6,16.521,0.1,24.471"/>
		<path style="fill:none;stroke:#231F20;stroke-width:13.1081;stroke-linecap:round;stroke-linejoin:round;" d="M278.19,410.83
			c1.13,1.85,2.41,3.58,3.72,5.26c2.99,3.81,6.21,7.39,8.54,11.69c2.7,4.97,4.44,10.46,6.67,15.569"/>
		<path style="fill:none;stroke:#231F20;stroke-width:6.5541;" d="M165.24,281.12c0.17,3.84-2.8,7.1-6.65,7.27
			c-3.84,0.17-7.1-2.81-7.27-6.66c-0.17-3.84,2.81-7.09,6.66-7.26C161.82,274.3,165.08,277.28,165.24,281.12z"/>
		<path style="fill:none;stroke:#231F20;stroke-width:6.5541;" d="M169.29,293.72c-6.15,8.92-29.48,5.65-27.82-6.87
			c1.77-13.3,18.76-19.61,29.78-13.72"/>
		<path style="fill:none;stroke:#231F20;stroke-width:19.6622;" d="M426.4,275.59c-2.771-0.6-37.86-7.94-90.46-5.62
			c-54.83,2.42-94.16,3.29-94.16,3.29"/>
		<path style="fill:none;stroke:#231F20;stroke-width:19.6622;" d="M576,386c0,0,26.12-12.15,44.95-12.98
			c18.819-0.83,99.53-11.77,113.6,36.34c0,0,9.45,24.66,2.3,62.7c-7.159,38.03-45.14,92.19-120,105.33
			C541.98,590.54,436.61,567.31,395.98,552.7c0,0-71.18-22.78-105.78-16.65c-13.7,2.42-44.28,18.101-35.78,35.72
			c11.46,2,17.49-5.819,27.18-9.539c11.52-4.45,24.73-4.671,37.21-2.521c23.75,4.1,70.28,22.81,70.28,22.81
			c68.101,18.36,135.141,41.19,242.93,22.91C776.78,580.87,779.53,435.73,779.53,435.73c0-67.67-41.05-97.99-93.41-113.721
			c-23.09-6.95-94.22-12.49-135.61-21.33c-37.05-7.9-109.22-22.15-123.93-25.05c-0.061-0.01-0.11-0.02-0.16-0.03
			c-0.12-0.02-0.24-0.05-0.36-0.07c-0.35-0.07-0.66-0.13-2.14-0.42l0.09,0.02c0.04,0,0.09,0.02,0.16,0.03l0.13,0.03
			c0.05,0.01,0.11,0.02,0.17,0.03l0.19,0.04c0.14,0.02,0.3,0.05,0.48,0.09l0.919,0.18c0,0,0.341,0.06,0.36,0.07
			c-0.01-0.01-0.01-0.01,0.08,0.01c0,0-0.08-0.01,0,0l0.08,0.02c0,0-0.03-0.01-0.08-0.02"/>
	</g>
</g>
<rect style="fill:none;" width="850.394" height="850.394"/>
<rect style="fill:none;" width="850.394" height="850.394"/>
</svg>
