<svg xmlns="http://www.w3.org/2000/svg" width="850.394" height="850.394" viewBox="0 0 850.394 850.394" overflow="visible"><path d="M745.15 440.66c5.779 1.359 6.529 19.13 1.67 39.689-4.86 20.54-13.5 36.101-19.28 34.73-5.771-1.36-6.521-19.14-1.66-39.69 4.87-20.549 13.5-36.099 19.27-34.729z" fill="#f6cc4b"/><path d="M760.5 376.89c13.62 3.22 14.07 50.52 1.03 105.64-13.05 55.12-34.65 97.2-48.271 93.97-13.609-3.22-14.069-50.51-1.02-105.63 13.051-55.13 34.651-97.2 48.261-93.98zm-13.68 103.46c4.859-20.56 4.109-38.33-1.67-39.689-5.771-1.37-14.4 14.18-19.271 34.729-4.86 20.551-4.11 38.33 1.66 39.69 5.781 1.37 14.421-14.19 19.281-34.73z" fill="#f6cc4b"/><path d="M682.94 578.65c.01-7.391.35-15.431 1.02-24.021.78-10.18 2.021-21.13 3.72-32.63 2.45-16.65 5.86-34.48 10.221-52.9a647.938 647.938 0 0 1 8-30.529c3.08-10.7 6.33-20.91 9.689-30.5 17.811-50.92 38.601-84.46 52.83-81.43.04.01.08.01.1.02.03.01.061.01.091.02 19.35 4.58 19.069 75.77-.62 159.01-19.711 83.23-51.361 146.99-70.721 142.41-1.829-.43-3.489-1.47-4.97-3.05-6.29-6.72-9.4-23.37-9.36-46.4zm78.59-96.12c13.04-55.12 12.59-102.42-1.03-105.64-13.61-3.22-35.21 38.85-48.26 93.98-13.05 55.12-12.59 102.41 1.02 105.63 13.62 3.23 35.22-38.85 48.27-93.97z" fill="#f6cc4b"/><path d="M72.94 371.13c-10.83 3.95 1.97 8 32.22-.58 4.2-1.18 13.2-1.74 14.64-6.55 2.59-8.66-12.38-15.68-18.73-16.54-21.18-2.88-26.64-15.03-30.46-15.96-7.41-1.79 1.56 16.81 2.05 22.98.38 4.64 4.39 15.14.28 16.65zm-5.16 9.52c-5.41-15.65-10.44-45.1-3.23-62.37.26-3.83 1.22-7.88 2.67-12.01l5.06.71c19.91 15.2 46.43 28.11 66.96 35.96 10.3 3.92 62.3 16.86 59.02 29.42-2.36 9.09-51.66 12.67-61.19 14.82-19.5 4.39-39.61 8.33-59.55 7.68l-3.33 1.56c-2.34-4.93-4.47-10.18-6.41-15.77zM768.42 326.64c-14.229-3.03-35.02 30.51-52.83 81.43h-.01c-63.35-11.67-116.521-23.06-178.44-40.45-26.22-7.36-52.149-17.57-79.399-21.24-22.65-3.05-45.87-.45-68.53-2.4-63.7-5.41-125.79-13.61-187.76-30.67-31.21-8.59-61.76-19.21-91.07-33.15-4.61-2.19-10.05-4.62-15.7-7.22l-5.43-2.43c2.14-2.46 4.22-4.66 6.14-6.54 45.18-44.05 93.9-43.2 148.88-20.12 28.6 12.02 239.8 38.42 322.77 47.57 81.039 8.95 196.029 34.05 201.379 35.22zM705.9 438.57c-2.83 9.8-5.511 20.01-8 30.529-4.36 18.42-7.771 36.25-10.221 52.9l-3.71-.22c-19.47-7.2-40.3-9.24-60.77-13.65-41.84-9-69-43.7-109.5-54.1-30.23-7.771-64.32-7.3-95.37-9.61-27.93-2.08-49.16-7.8-73.1-25.52-19.03-14.09-53.06-30.81-25.05-37.64 25.51-6.25 71.23 1.01 95.65 6.65 26.15 6.04 51.87-1.58 77.51 2.66 25.641 4.22 45.59 23.15 70.66 29.76 22.34 5.9 44.87 5.14 67.54 6.42 27.691 1.561 48.471 4.121 74.361 11.821z" fill="#9c5b16"/><path d="M715.58 408.07h.01c-3.359 9.59-6.609 19.8-9.689 30.5-25.891-7.7-46.67-10.261-74.36-11.82-22.67-1.28-45.2-.52-67.54-6.42-25.07-6.61-45.02-25.54-70.66-29.76-25.64-4.24-51.359 3.38-77.51-2.66-24.42-5.64-70.14-12.9-95.65-6.65-28.01 6.83 6.02 23.55 25.05 37.64 23.94 17.72 45.17 23.44 73.1 25.52 31.05 2.311 65.14 1.84 95.37 9.61 40.5 10.399 67.66 45.1 109.5 54.1 20.47 4.41 41.3 6.45 60.77 13.65l3.71.22c-1.699 11.5-2.939 22.45-3.72 32.63-20.46-3.75-40.37-7.89-60.87-14.45-29.04-9.31-57.8-18.96-86.59-29.08-47.18-16.59-93.35-32.989-141.92-44.189-55.7-12.84-109.49-33.65-165.16-46.28-44.9-10.19-85.5-3.83-130.37-4.49-1.82-.02-8.8 3-11.02 2.98l-.01.01c-5.18-6.68-9.8-14.22-13.83-22.71l3.33-1.56c19.94.65 40.05-3.29 59.55-7.68 9.53-2.15 58.83-5.73 61.19-14.82 3.28-12.56-48.72-25.5-59.02-29.42-20.53-7.85-47.05-20.76-66.96-35.96l-5.06-.71c4.48-12.74 13.7-26.17 22.03-35.76l5.43 2.43c5.65 2.6 11.09 5.03 15.7 7.22 29.31 13.94 59.86 24.56 91.07 33.15 61.97 17.06 124.06 25.26 187.76 30.67 22.66 1.95 45.88-.65 68.53 2.4 27.25 3.67 53.18 13.88 79.399 21.24 61.92 17.389 115.09 28.779 178.44 40.449z" fill="#9c5b16"/><path d="M121.28 447.4c-12.77-6.971-23.93-16.21-33.26-28.271l.01-.01c2.22.02 9.2-3 11.02-2.98 44.87.66 85.47-5.7 130.37 4.49 55.67 12.63 109.46 33.44 165.16 46.28 48.57 11.2 94.74 27.6 141.92 44.189a3278.305 3278.305 0 0 0 86.59 29.08c20.5 6.561 40.41 10.7 60.87 14.45-.67 8.59-1.01 16.63-1.02 24.021-24.48-6.4-50.11-10.15-74.04-18.33-27.41-9.37-54.771-20.13-82.431-28.721-53.85-16.729-92.109-26.75-158.14-39.029-51.46-9.58-127.07-48.99-180.58-50.99-20.26-.76-46.41.58-66.77 2.21l.301 3.611z" fill="#9c5b16"/><path d="M682.94 578.65c-.04 23.029 3.069 39.68 9.359 46.399 0 0-112.31-28.53-190.59-57.54C423.43 538.5 222.81 467.44 191.85 465.36c-26.96-1.811-50.72-7.141-70.57-17.96l-.3-3.61c20.36-1.63 46.51-2.97 66.77-2.21 53.51 2 129.12 41.41 180.58 50.99 66.03 12.279 104.29 22.3 158.14 39.029 27.66 8.591 55.021 19.351 82.431 28.721 23.929 8.18 49.559 11.93 74.039 18.33z" fill="#9c5b16"/><path d="M101.07 347.46c6.35.86 21.32 7.88 18.73 16.54-1.44 4.81-10.44 5.37-14.64 6.55-30.25 8.58-43.05 4.53-32.22.58 4.11-1.51.1-12.01-.28-16.65-.49-6.17-9.46-24.77-2.05-22.98 3.82.93 9.28 13.08 30.46 15.96z" fill="#231f20"/><g fill="none" stroke="#231f20"><path d="M768.52 326.66c.03.01.061.01.091.02 19.35 4.58 19.069 75.77-.62 159.01-19.711 83.23-51.361 146.99-70.721 142.41-1.829-.43-3.489-1.47-4.97-3.05-6.29-6.72-9.399-23.37-9.359-46.399.01-7.391.35-15.431 1.02-24.021.78-10.18 2.021-21.13 3.72-32.63 2.45-16.65 5.86-34.48 10.221-52.9a647.938 647.938 0 0 1 8-30.529c3.08-10.7 6.33-20.91 9.689-30.5 17.811-50.92 38.601-84.46 52.83-81.43" stroke-width="21"/><path d="M768.61 326.68s-.03-.01-.091-.02c-.02-.01-.06-.01-.1-.02-5.35-1.17-120.34-26.27-201.38-35.22-82.97-9.15-294.17-35.55-322.77-47.57-54.98-23.08-103.7-23.93-148.88 20.12-1.92 1.88-4 4.08-6.14 6.54-8.33 9.59-17.55 23.02-22.03 35.76-1.45 4.13-2.41 8.18-2.67 12.01-.19 2.66-.04 5.21.51 7.6" stroke-width="21"/><path d="M692.3 625.05s-112.31-28.53-190.59-57.54c-78.28-29.01-278.9-100.07-309.86-102.15-26.96-1.811-50.72-7.141-70.57-17.96-12.77-6.971-23.93-16.21-33.26-28.271-5.18-6.68-9.8-14.22-13.83-22.71-2.34-4.93-4.47-10.18-6.41-15.77-5.41-15.65-10.44-45.1-3.23-62.37 1.02-2.47 2.3-4.68 3.86-6.58" stroke-width="21"/><path d="M711.58 440.31a283.517 283.517 0 0 0-5.68-1.739c-25.891-7.7-46.67-10.261-74.36-11.82-22.67-1.28-45.2-.52-67.54-6.42-25.07-6.61-45.02-25.54-70.66-29.76-25.64-4.24-51.359 3.38-77.51-2.66-24.42-5.64-70.14-12.9-95.65-6.65-28.01 6.83 6.02 23.55 25.05 37.64 23.94 17.72 45.17 23.44 73.1 25.52 31.05 2.311 65.14 1.84 95.37 9.61 40.5 10.399 67.66 45.1 109.5 54.1 20.47 4.41 41.3 6.45 60.77 13.65M72.28 306.98c19.91 15.2 46.43 28.11 66.96 35.96 10.3 3.92 62.3 16.86 59.02 29.42-2.36 9.09-51.66 12.67-61.19 14.82-19.5 4.39-39.61 8.33-59.55 7.68M687.81 555.33c-1.29-.23-2.569-.47-3.85-.7-20.46-3.75-40.37-7.89-60.87-14.45-29.04-9.31-57.8-18.96-86.59-29.08-47.18-16.59-93.35-32.989-141.92-44.189-55.7-12.84-109.49-33.65-165.16-46.28-44.9-10.19-85.5-3.83-130.37-4.49-1.82-.02-8.8 3-11.02 2.98" stroke-width="14"/><path d="M686.51 579.6c-1.189-.33-2.38-.64-3.569-.949-24.48-6.4-50.11-10.15-74.04-18.33-27.41-9.37-54.771-20.13-82.431-28.721-53.85-16.729-92.109-26.75-158.14-39.029-51.46-9.58-127.07-48.99-180.58-50.99-20.26-.76-46.41.58-66.77 2.21l-.66.06M715.58 408.07c-63.35-11.67-116.521-23.06-178.44-40.45-26.22-7.36-52.149-17.57-79.399-21.24-22.65-3.05-45.87-.45-68.53-2.4-63.7-5.41-125.79-13.61-187.76-30.67-31.21-8.59-61.76-19.21-91.07-33.15-4.61-2.19-10.05-4.62-15.7-7.22M727.89 370.64c-63.359-11.68-127.52-25.67-189.449-43.05-26.21-7.37-52.15-17.58-79.4-21.25-22.64-3.05-45.87-.45-68.53-2.39-63.7-5.42-125.79-13.62-187.76-30.68-26.24-7.22-52.02-15.88-76.99-26.74M105.16 370.55c4.2-1.18 13.2-1.74 14.64-6.55 2.59-8.66-12.38-15.68-18.73-16.54-21.18-2.88-26.64-15.03-30.46-15.96-7.41-1.79 1.56 16.81 2.05 22.98.38 4.64 4.39 15.14.28 16.65-10.83 3.95 1.97 8 32.22-.58zM727.54 515.08c-5.771-1.36-6.521-19.14-1.66-39.69 4.87-20.55 13.5-36.1 19.271-34.729 5.779 1.359 6.529 19.13 1.67 39.689-4.861 20.54-13.501 36.1-19.281 34.73z" stroke-width="14"/><path d="M713.26 576.5c-13.609-3.22-14.069-50.51-1.02-105.63 13.05-55.13 34.649-97.2 48.26-93.98 13.62 3.22 14.07 50.52 1.03 105.64-13.05 55.12-34.65 97.2-48.27 93.97z" stroke-width="14"/></g><path fill="none" d="M0 0h850.394v850.394H0z"/></svg>