<svg xmlns="http://www.w3.org/2000/svg" width="850.394" height="850.394" viewBox="0 0 850.394 850.394" overflow="visible"><path d="M420.699 535.811a139.602 139.602 0 0 1 2.454 2.038c7.004 7.005 7.73 19.626 7.73 28.872 0 19.594-16.087 30.03-29.158 41.103-28.228 23.898-52.297 40.532-92.837 70.603l-.073-.09c-38.485 33.308-65.311.652-53.529-57.442 19.61-96.759 52.428-313.997 52.428-313.997 5.724-36.667 27.885-69.379 34.718-78.862 39.61-54.98 87.928-87.823 176.143-72.25 25.651 4.525 48.93 20.547 66.199 38.86 26.304 27.885 46.076 78.324 54.923 112.447 16.071 61.984 73.22 248.425 124.865 268.035 32.256 12.255-28.546 97.199-79.106 116.377-64.847 24.591-107.213 2.608-107.213 2.608-23.539-10.461-10.461-61.454-10.461-61.454 18.044-104.415 26.557-171.332 25.546-204.525 3.774-23.874 6.05-60.957-12.769-79.784-30.234-30.233-86.152-89.519-97.363-101.431-1.288-1.37-1.989-2.112-1.989-2.112-.09.065-.188.13-.277.196-30.764 21.55-102.63 55.844-115.847 65.539-9.042 6.637-16.226 16.046-20.914 26.605-4.224 9.466-6.433 19.862-6.18 30.014.481 20.091 7.175 27.315 7.175 57.557 0 33.202 32.77 71.417 39.251 79.587 9.703 12.206 24.168 21.615 36.284 31.506z" fill="#fbed24"/><path d="M525.946 361.559l-.302.285c-5.414 5.006-11.668 9.483-18.884 12.051-1.696.604-3.645 1.019-5.659 1.231l-.334-3.571c6.923-.677 12.328-6.262 12.328-13.054 0-2.723.261-3.424-1.215-5.52l.497-1.19c5.089 2.177 9.647 5.643 13.569 9.768zM499.495 355.729c1.664 0 3.001 1.468 3.001 3.262 0 1.818-1.337 3.278-3.001 3.278-1.654 0-3-1.459-3-3.278 0-1.794 1.346-3.262 3-3.262z" fill="#fff"/><path d="M507.861 358.991c0-4.061-3.742-7.354-8.366-7.354-4.639 0-8.365 3.294-8.365 7.354 0 4.077 3.727 7.363 8.365 7.363 4.624 0 8.366-3.287 8.366-7.363zm-7.909-9.671c4.419-.089 8.578.815 12.426 2.471l-.497 1.19c1.476 2.096 1.215 2.797 1.215 5.52 0 6.792-5.405 12.377-12.328 13.054-.465.041-.938.065-1.41.065-7.583 0-13.731-5.879-13.731-13.119 0-2.014-.538-1.826.302-3.522l-.677-1.133c4.435-2.748 9.62-4.403 14.7-4.526z" fill="#a8d7f4"/><path d="M499.495 362.269c1.664 0 3.001-1.459 3.001-3.278 0-1.794-1.337-3.262-3.001-3.262-1.654 0-3 1.468-3 3.262 0 1.818 1.346 3.278 3 3.278zm8.366-3.278c0 4.077-3.742 7.363-8.366 7.363-4.639 0-8.365-3.286-8.365-7.363 0-4.061 3.727-7.354 8.365-7.354 4.624-.001 8.366 3.293 8.366 7.354z" fill="#231f20"/><path d="M450.411 465.11c4.321-10.894 34.408-3.954 42.406-4.77-1.296 1.965-2.568 4.036-3.849 6.123-15.345 6.923-24.232 7.012-35.109 7.868-10.804.848-26.793 2.658-37.563-.506l-.008.009c-2.764-3.645-2.324-7.118 6.458-9.662 5.463-1.582 12.002-2.813 17.628-1.517 2.976.686 7.346 3.548 10.037 2.455z" fill="#ef947d"/><path d="M499.357 371.621c.473 0 .945-.024 1.41-.065l.334 3.571c-3.172.351-6.506.236-9.295-.334-1.933-.408-4.321-.889-6.115-1.712-1.5-.693-2.788-2.307-4.199-2.976-2.104-.97-4.468-.114-6.425-1.329-2.3-1.418-.555-3.033.758-5.373 2.169-3.84 5.504-7.126 9.426-9.556l.677 1.133c-.84 1.696-.302 1.508-.302 3.522 0 7.24 6.148 13.119 13.731 13.119z" fill="#fff"/><path d="M488.969 466.464c-5.503 8.978-11.276 18.452-21.061 22.773-13.266 5.862-27.478 4.713-38.403-4.313-4.044-3.343-10.355-7.313-13.217-11.089l.008-.009c10.771 3.164 26.76 1.354 37.563.506 10.877-.856 19.765-.945 35.11-7.868z" fill="#ef947d"/><path d="M525.946 361.559c-3.922-4.125-8.48-7.591-13.568-9.768-3.848-1.655-8.007-2.56-12.426-2.471-5.08.123-10.266 1.778-14.701 4.525-3.922 2.43-7.257 5.716-9.426 9.556-1.313 2.34-3.058 3.955-.758 5.373 1.957 1.215 4.321.359 6.425 1.329 1.411.669 2.699 2.283 4.199 2.976 1.794.824 4.183 1.305 6.115 1.712 2.789.571 6.123.685 9.295.334 2.015-.212 3.963-.628 5.659-1.231 7.216-2.568 13.47-7.045 18.884-12.051l.302-.284zm-36.977 104.905c1.28-2.087 2.553-4.158 3.849-6.123-7.998.815-38.085-6.124-42.406 4.77-2.691 1.093-7.062-1.77-10.038-2.454-5.626-1.297-12.165-.065-17.628 1.517-8.781 2.544-9.222 6.018-6.458 9.662 2.862 3.775 9.173 7.746 13.217 11.089 10.926 9.026 25.138 10.176 38.403 4.313 9.784-4.322 15.558-13.797 21.061-22.774zM344.168 337.147c4.688-10.559 11.872-19.968 20.914-26.605 13.217-9.694 85.083-43.989 115.847-65.539.457.978 1.215 1.623 2.267 1.916 11.211 11.913 67.129 71.198 97.363 101.431 18.818 18.827 16.543 55.91 12.769 79.784-1.892 11.912-4.15 20.539-4.354 21.958-2.201 15.842-15.573 26.866-27.804 37.457-21.729 18.811-33.806 52.004-65.018 55.813-23.4 2.845-52.844 11.374-73-5.513a15.296 15.296 0 0 0-2.454-2.038c-12.116-9.891-26.581-19.3-36.284-31.506-6.482-8.17-39.251-46.386-39.251-79.587 0-30.242-6.694-37.466-7.175-57.557-.253-10.152 1.957-20.548 6.18-30.014zm11.31 28.261l.294.277c5.414 5.014 11.667 9.491 18.884 12.059 1.696.604 3.636 1.019 5.65 1.231 3.172.359 6.506.237 9.303-.334 1.94-.408 4.33-.889 6.124-1.721 1.5-.685 2.789-2.307 4.191-2.968 2.104-.97 4.468-.114 6.425-1.321 2.308-1.419.555-3.049-.758-5.374-2.168-3.848-5.512-7.134-9.434-9.564-4.436-2.748-9.613-4.403-14.685-4.517-4.428-.098-8.578.815-12.426 2.454-5.097 2.186-9.646 5.652-13.568 9.778z" fill="#ffeec8"/><path d="M381.928 359.578c1.655 0 2.992 1.459 2.992 3.262 0 1.818-1.337 3.286-2.992 3.286-1.664 0-3-1.467-3-3.286 0-1.803 1.337-3.262 3-3.262zM396.156 357.694c3.922 2.43 7.265 5.716 9.434 9.564 1.313 2.324 3.066 3.955.758 5.374-1.957 1.207-4.321.351-6.425 1.321-1.402.661-2.691 2.283-4.191 2.968-1.794.832-4.183 1.313-6.124 1.721-2.797.571-6.131.693-9.303.334l.342-3.579a16.1 16.1 0 0 0 1.411.065c7.583 0 13.739-5.878 13.739-13.111 0-2.014.53-1.834-.318-3.531l.677-1.126z" fill="#fff"/><path d="M381.928 366.125c1.655 0 2.992-1.467 2.992-3.286 0-1.802-1.337-3.262-2.992-3.262-1.664 0-3 1.459-3 3.262 0 1.819 1.337 3.286 3 3.286zm8.366-3.286c0 4.077-3.734 7.363-8.366 7.363-4.623 0-8.366-3.286-8.366-7.363 0-4.061 3.743-7.354 8.366-7.354 4.632 0 8.366 3.294 8.366 7.354z" fill="#231f20"/><path d="M390.294 362.839c0-4.061-3.734-7.354-8.366-7.354-4.623 0-8.366 3.294-8.366 7.354 0 4.077 3.743 7.363 8.366 7.363 4.632 0 8.366-3.286 8.366-7.363zm5.185-4.02c.848 1.696.318 1.517.318 3.531 0 7.232-6.156 13.111-13.739 13.111a16.1 16.1 0 0 1-1.411-.065c-6.922-.677-12.328-6.262-12.328-13.046 0-2.724-.261-3.425 1.223-5.52l-.498-1.199c3.849-1.639 7.999-2.552 12.426-2.454 5.071.114 10.249 1.769 14.685 4.517l-.676 1.125z" fill="#a8d7f4"/><path d="M368.32 362.35c0 6.784 5.406 12.369 12.328 13.046l-.342 3.579c-2.014-.212-3.955-.627-5.65-1.231-7.216-2.568-13.47-7.045-18.884-12.059l-.294-.277c3.922-4.126 8.472-7.591 13.568-9.776l.498 1.199c-1.485 2.094-1.224 2.795-1.224 5.519z" fill="#fff"/><g fill="none" stroke="#231f20"><path d="M463.782 341.575c11.611-19.349 39.855-22.439 56.024-16.12 8.667 3.376 13.95 7.387 16.233 9.67M402.834 334.432c-15.377-13.715-45.334-11.611-58.666 2.715a24.4 24.4 0 0 0-1.973 2.356M422.012 345.766c16.861 12.622 7.941 55.331 3.693 68.066-1.354 4.069-7.167 11.26-3.082 15.476 1.981 2.047 4.525.946 7.004 1.329 2.568.399 4.109.66 7.062 1.762 5.699 2.119 9.857 3.399 15.002-.335 5.569-4.036 5.153-6.89 13.372-6.498 6.914.334 14.563 2.283 14.22-8.358-.236-7.338-5.756-7.24-9.694-12.41" stroke-width="11.415"/><path d="M449.938 466.978a6.995 6.995 0 0 1 .474-1.867c4.321-10.894 34.408-3.954 42.406-4.77-1.296 1.965-2.568 4.036-3.849 6.123-5.503 8.978-11.276 18.452-21.061 22.773-13.266 5.862-27.478 4.713-38.403-4.313-4.044-3.343-10.355-7.313-13.217-11.089-2.764-3.645-2.324-7.118 6.458-9.662 5.463-1.582 12.002-2.813 17.628-1.517 2.977.685 7.347 3.547 10.038 2.454a2.88 2.88 0 0 0 1.198-.921" stroke-width="5.708"/><path d="M416.296 473.826c10.771 3.164 26.76 1.354 37.563.506 10.877-.856 19.765-.945 35.109-7.868l.009-.008" stroke-width="5.708"/><path d="M420.56 535.713c.049.032.098.065.139.098.905.604 1.72 1.288 2.454 2.038 7.004 7.005 7.73 19.626 7.73 28.872" stroke-width="15.69"/><path d="M483.196 246.919c11.211 11.913 67.129 71.198 97.363 101.431 18.818 18.827 16.543 55.91 12.769 79.784-1.892 11.912-4.15 20.539-4.354 21.958-2.201 15.842-15.573 26.866-27.804 37.457-21.729 18.811-33.806 52.004-65.018 55.813-23.4 2.845-52.844 11.374-73-5.513a135.571 135.571 0 0 0-2.454-2.038c-12.116-9.891-26.581-19.3-36.284-31.506-6.482-8.17-39.251-46.386-39.251-79.587 0-30.242-6.694-37.466-7.175-57.557-.253-10.151 1.957-20.547 6.18-30.014 4.688-10.559 11.872-19.968 20.914-26.605 13.217-9.694 85.083-43.989 115.847-65.539.09-.065.188-.131.277-.196.001 0 .702.742 1.99 2.112zM308.888 678.426c40.54-30.07 64.609-46.704 92.837-70.603 13.07-11.072 29.158-21.509 29.158-41.103" stroke-width="17.123"/><path d="M352.966 368.245a59.48 59.48 0 0 1 2.511-2.837c3.922-4.126 8.472-7.591 13.568-9.776 3.849-1.639 7.999-2.552 12.426-2.454 5.071.114 10.249 1.769 14.685 4.517 3.922 2.43 7.265 5.716 9.434 9.564 1.313 2.324 3.066 3.955.758 5.374-1.957 1.207-4.321.351-6.425 1.321-1.402.661-2.691 2.283-4.191 2.968-1.794.832-4.183 1.313-6.124 1.721-2.797.571-6.131.693-9.303.334-2.014-.212-3.955-.627-5.65-1.231-7.216-2.568-13.47-7.045-18.884-12.059" stroke-width="5.708" stroke-linecap="square" stroke-miterlimit="10"/><path d="M395.479 358.819c.848 1.696.318 1.517.318 3.531 0 7.232-6.156 13.111-13.739 13.111a16.1 16.1 0 0 1-1.411-.065c-6.922-.677-12.328-6.262-12.328-13.046 0-2.724-.261-3.425 1.223-5.52" stroke-width="5.23" stroke-linecap="square" stroke-miterlimit="10"/><path d="M384.92 362.839c0 1.818-1.337 3.286-2.992 3.286-1.664 0-3-1.467-3-3.286 0-1.802 1.337-3.262 3-3.262 1.655.001 2.992 1.46 2.992 3.262z" stroke-width="5.23"/><path d="M528.449 364.388a59.681 59.681 0 0 0-2.503-2.829c-3.922-4.125-8.48-7.591-13.568-9.768-3.848-1.655-8.007-2.56-12.426-2.471-5.08.123-10.266 1.778-14.701 4.525-3.922 2.43-7.257 5.716-9.426 9.556-1.313 2.34-3.058 3.955-.758 5.373 1.957 1.215 4.321.359 6.425 1.329 1.411.669 2.699 2.283 4.199 2.976 1.794.824 4.183 1.305 6.115 1.712 2.789.571 6.123.685 9.295.334 2.015-.212 3.963-.628 5.659-1.231 7.216-2.568 13.47-7.045 18.884-12.051" stroke-width="5.708" stroke-linecap="square" stroke-miterlimit="10"/><path d="M485.928 354.979c-.84 1.696-.302 1.508-.302 3.522 0 7.24 6.148 13.119 13.731 13.119.473 0 .945-.024 1.41-.065 6.923-.677 12.328-6.262 12.328-13.054 0-2.723.261-3.424-1.215-5.52" stroke-width="5.23" stroke-linecap="square" stroke-miterlimit="10"/><path d="M496.495 358.991c0 1.818 1.346 3.278 3 3.278 1.664 0 3.001-1.459 3.001-3.278 0-1.794-1.337-3.262-3.001-3.262-1.654 0-3 1.468-3 3.262z" stroke-width="5.23"/><path d="M484.795 247.106a5.684 5.684 0 0 1-1.599-.188c-1.052-.293-1.81-.938-2.267-1.916a3.31 3.31 0 0 1-.163-.383c9.45-9.214 14.09-23.801 16.927-36.219" stroke-width="17.123"/><path d="M593.279 426.731l.049 1.402c1.011 33.193-7.502 100.11-25.546 204.525 0 0-13.078 50.993 10.461 61.454 0 0 42.366 21.982 107.213-2.608 50.561-19.178 111.362-104.122 79.106-116.377-51.646-19.61-108.794-206.051-124.865-268.035-8.847-34.123-28.619-84.562-54.923-112.447-17.27-18.313-40.548-34.335-66.199-38.86-88.215-15.574-136.533 17.27-176.143 72.25-6.833 9.482-28.995 42.195-34.718 78.862 0 0-32.818 217.238-52.428 313.997-11.782 58.095 15.043 90.75 53.529 57.442.457-.391.921-.799 1.386-1.215" stroke-width="17.123"/></g><path fill="none" d="M0 0h850.394v850.394H0z"/><path fill="none" stroke="#231f20" stroke-width="14" stroke-linecap="round" stroke-linejoin="round" d="M77.888 690.557l154.851-1.42M172.309 740.813l61.611-51.875-62.661-50.836M77.888 690.557l-3.625-393.956M74.263 296.601l56.993-.471M76.013 486.748l56.993-.472M76.979 591.707l56.993-.471M76.517 541.508l56.993-.471M77.469 644.948l56.993-.47M75.187 396.998l56.994-.471M75.607 442.633l56.993-.47M74.739 348.321l56.993-.471"/></svg>