<svg xmlns="http://www.w3.org/2000/svg" width="850.394" height="850.394" viewBox="0 0 850.394 850.394" overflow="visible"><path d="M736.62 406.92c2.99 16.12-5.36 15.78-19.15 14.77-11.18-.8-39.3-3.35-39.3-3.35s-8.74-1.68-8.74-19.49.19-25.91.19-25.91h59.13s4.24 14.37 7.87 33.98z" fill="#fff"/><path fill="#abda4d" d="M582.7 285.04v188.13l-293.1-1.22-165.25-.68-42.63-.18 1.04-156.94z"/><path d="M650.91 354.55v118.33c-21.68-.52-53.66.29-53.66.29V351.04h53.66v3.51z" fill="#787878"/><path d="M760.43 451.86c.09 30.239-.29 36.899-.29 36.899h-71.429s-9.36-11.96-19.75-14.55c-2.89-.72-9.71-1.12-18.05-1.33V351.04h88.729s20.6 37.94 20.79 100.82zm-42.96-30.17c13.79 1.01 22.141 1.35 19.15-14.77-3.63-19.61-7.87-33.98-7.87-33.98h-59.13s-.19 8.1-.19 25.91 8.74 19.49 8.74 19.49 28.12 2.55 39.3 3.35z" fill="#33a02c"/><path fill="#787878" d="M756.76 511.23l-1.4 18.32h-48.72l-6.99-17.05 3.1-1.27z"/><path fill="#787878" d="M758.48 488.76l-1.72 22.47h-54.01l-3.1 1.27-8.99-21.92v-1.82zM237.27 498.03c6.46 5.58 11.06 13.25 12.73 21.97.46 2.38.7 4.84.7 7.35 0 21.381-17.34 38.71-38.71 38.71-21.39 0-38.73-17.329-38.73-38.71 0-9.02 3.09-17.319 8.26-23.899 7.09-9.021 18.1-14.82 30.47-14.82 9.66-.001 18.49 3.539 25.28 9.399zm-2.37 29.32c0-11.8-10.26-21.359-22.91-21.359-12.67 0-22.92 9.56-22.92 21.359 0 11.79 10.25 21.36 22.92 21.36 12.65 0 22.91-9.57 22.91-21.36zM611.07 513.27c6.37-12.659 19.489-21.35 34.63-21.35 21.04 0 38.17 16.79 38.7 37.72.01.33.01.67.01 1 0 21.37-17.34 38.71-38.71 38.71-21.391 0-38.73-17.34-38.73-38.71 0-6.25 1.48-12.15 4.1-17.37zm57.54 17.37c0-11.81-10.261-21.37-22.91-21.37-12.67 0-22.92 9.561-22.92 21.37 0 11.78 10.25 21.351 22.92 21.351 12.65-.001 22.91-9.571 22.91-21.351z"/><path d="M211.99 505.99c12.65 0 22.91 9.56 22.91 21.359 0 11.79-10.26 21.36-22.91 21.36-12.67 0-22.92-9.57-22.92-21.36 0-11.799 10.25-21.359 22.92-21.359zM645.7 509.27c12.649 0 22.91 9.561 22.91 21.37 0 11.78-10.261 21.351-22.91 21.351-12.67 0-22.92-9.57-22.92-21.351 0-11.81 10.25-21.37 22.92-21.37z" fill="#abda4d"/><path d="M545.86 505.59l-.061 2.4v22.34L250 520c-1.67-8.72-6.27-16.39-12.73-21.97l52.22 1.279 256.37 6.281z"/><path d="M124.34 503.6v-30.17l.01-2.16 165.25.681v23.041l-.11 4.319-52.22-1.279c-6.79-5.86-15.62-9.4-25.28-9.4-12.37 0-23.38 5.8-30.47 14.82l-4.49-3.47 1.48-1.921h-51.58v5.54h-2.59z" fill="#787878"/><path d="M591.01 508.25v4.42h-9.88c-3.02-5.22-8.46-8.71-14.67-8.71-2.78 0-5.41.7-7.74 1.95l-12.859-.32-256.37-6.28.11-4.319V471.95l293.1 1.22V285.04l4.38-.55 25.76 7.83v58.72h-15.59v122.13s31.98-.81 53.66-.29c8.34.21 15.16.61 18.05 1.33 10.39 2.59 19.75 14.55 19.75 14.55h1.95v1.82l8.99 21.92 6.989 17.05h-19.88l-2.359.09c-.53-20.93-17.66-37.72-38.7-37.72-15.141 0-28.26 8.69-34.63 21.35l-20.061-5.02z" fill="#787878"/><path d="M558.72 505.91c2.33-1.25 4.96-1.95 7.74-1.95 6.21 0 11.65 3.49 14.67 8.71 1.58 2.74 2.49 5.97 2.49 9.42 0 10.01-7.68 18.13-17.16 18.13-9.49 0-17.17-8.12-17.17-18.13 0-7.07 3.83-13.2 9.43-16.18z" fill="#231f20"/><path fill="#f9cbdf" d="M124.34 503.6v10.75h-12.86v-40.92h12.86z"/><g fill="none" stroke="#231f20"><path stroke-width="21" d="M124.35 471.27l-42.63-.18 1.04-156.94 499.94-29.11v188.13l-293.1-1.22z"/><path stroke-width="14" d="M236 498l1.27.03 52.22 1.28 256.37 6.28 12.86.32"/><path d="M650.91 472.88c-21.68-.52-53.66.29-53.66.29V351.04H739.639s20.601 37.94 20.79 100.82c.09 30.239-.29 36.899-.29 36.899H688.71s-9.36-11.96-19.75-14.55c-2.89-.719-9.71-1.119-18.05-1.329z" stroke-width="21"/><path d="M669.62 372.94h59.13s4.24 14.37 7.87 33.98c2.99 16.12-5.36 15.78-19.15 14.77-11.18-.8-39.3-3.35-39.3-3.35s-8.74-1.68-8.74-19.49.19-25.91.19-25.91z" stroke-width="14"/><path stroke-width="21" d="M650.91 354.55v118.42"/><path d="M684.4 529.64c.01.33.01.67.01 1 0 21.37-17.34 38.71-38.71 38.71-21.391 0-38.73-17.34-38.73-38.71 0-6.25 1.48-12.149 4.101-17.37 6.37-12.659 19.489-21.35 34.63-21.35 21.039 0 38.169 16.79 38.699 37.72z" stroke-width="14"/><path d="M668.61 530.64c0 11.78-10.261 21.351-22.91 21.351-12.67 0-22.92-9.57-22.92-21.351 0-11.81 10.25-21.37 22.92-21.37 12.65 0 22.91 9.56 22.91 21.37zM250 520c.46 2.38.7 4.84.7 7.35 0 21.381-17.34 38.71-38.71 38.71-21.39 0-38.73-17.329-38.73-38.71 0-9.02 3.09-17.319 8.26-23.899 7.09-9.021 18.1-14.82 30.47-14.82 9.66 0 18.49 3.54 25.28 9.4C243.73 503.61 248.33 511.28 250 520z" stroke-width="14"/><path d="M234.9 527.35c0 11.79-10.26 21.36-22.91 21.36-12.67 0-22.92-9.57-22.92-21.36 0-11.8 10.25-21.359 22.92-21.359 12.65-.001 22.91 9.559 22.91 21.359z" stroke-width="14"/><path stroke-width="21" d="M758.48 488.76l-1.72 22.47-1.4 18.32h-68.6"/><path stroke-width="21" d="M690.66 490.58l8.99 21.92 6.99 17.05"/><path stroke-width="14" d="M702.75 511.23h54.01M545.8 507.99v22.34L250 520"/><path d="M581.13 512.67c1.58 2.74 2.49 5.97 2.49 9.42 0 10.01-7.68 18.13-17.16 18.13-9.49 0-17.17-8.12-17.17-18.13 0-7.07 3.83-13.2 9.43-16.18 2.33-1.25 4.96-1.95 7.74-1.95 6.21 0 11.65 3.49 14.67 8.71zM587.08 284.49l25.76 7.83v58.72M124.34 503.6v10.75h-12.86v-40.92h12.86z" stroke-width="21"/><path stroke-width="14" d="M177.03 499.98l-2.8 3.62h-47.3v-5.54h51.58z"/><path stroke-width="21" d="M289.6 494.99v-23.02"/><path stroke-width="14" d="M591.01 465.89v46.78h-23.04"/></g><path fill="none" d="M0 0h850.394v850.394H0z"/></svg>