<?xml version="1.0" encoding="iso-8859-1"?>
<!-- Generator: Adobe Illustrator 12.0.1, SVG Export Plug-In . SVG Version: 6.00 Build 51448)  -->
<!DOCTYPE svg PUBLIC "-//W3C//DTD SVG 1.1//EN" "http://www.w3.org/Graphics/SVG/1.1/DTD/svg11.dtd" [
	<!ENTITY ns_svg "http://www.w3.org/2000/svg">
	<!ENTITY ns_xlink "http://www.w3.org/1999/xlink">
]>
<svg  version="1.1" id="Layer_1" xmlns="&ns_svg;" xmlns:xlink="&ns_xlink;" width="850.394" height="850.394"
	 viewBox="0 0 850.394 850.394" style="overflow:visible;enable-background:new 0 0 850.394 850.394;" xml:space="preserve">
<g>
	<g id="XMLID_1_">
		<g>
			<rect x="441.877" y="484.375" style="fill:#EFDCEF;" width="80.74" height="80.73"/>
		</g>
		<g>
			<rect x="441.877" y="484.375" style="fill:none;stroke:#231F20;stroke-width:14;" width="80.74" height="80.73"/>
		</g>
	</g>
</g>
<rect style="fill:none;" width="850.394" height="850.394"/>
<g>
	<g id="XMLID_5_">
		<g>
			<rect x="583.71" y="572.5" style="fill:#EFDCEF;" width="80.74" height="80.73"/>
		</g>
		<g>
			<rect x="583.71" y="572.5" style="fill:none;stroke:#231F20;stroke-width:14;" width="80.74" height="80.73"/>
		</g>
	</g>
</g>
<g>
	<g id="XMLID_6_">
		<g>
			<rect x="463.71" y="640.5" style="fill:#EFDCEF;" width="80.74" height="80.73"/>
		</g>
		<g>
			<rect x="463.71" y="640.5" style="fill:none;stroke:#231F20;stroke-width:14;" width="80.74" height="80.73"/>
		</g>
	</g>
</g>
<ellipse style="fill:none;stroke:#231F20;stroke-width:7;" cx="527.112" cy="591.926" rx="223.912" ry="186.594"/>
<polyline style="fill:none;stroke:#000000;stroke-width:14;stroke-linecap:round;stroke-linejoin:round;" points="442.896,253.044 
	412.887,342.904 327.507,301.665 "/>
<path style="fill:none;stroke:#000000;stroke-width:14;stroke-linecap:round;stroke-linejoin:round;" d="M290.551,234.041
	c5.94-1.362,12-2.086,18.086-2.086c52.39,0,98.14,42.811,98.14,103.93"/>
<g>
	<g>
		<rect x="119.101" y="284" style="fill:none;" width="91.321" height="89.5"/>
		<g>
			<g>
				<g>
					<circle style="fill:#5668AF;" cx="210.422" cy="313.833" r="14.292"/>
				</g>
			</g>
		</g>
		<g>
			<g>
				<g>
					<circle style="fill:#5668AF;" cx="210.422" cy="343.667" r="14.292"/>
				</g>
			</g>
		</g>
		<g>
			<g>
				<g>
					<circle style="fill:#5668AF;" cx="179.981" cy="373.5" r="14.292"/>
				</g>
			</g>
		</g>
		<g>
			<g>
				<g>
					<circle style="fill:#5668AF;" cx="149.541" cy="373.5" r="14.292"/>
				</g>
			</g>
		</g>
		<g>
			<g>
				<g>
					<circle style="fill:#5668AF;" cx="119.101" cy="343.667" r="14.292"/>
				</g>
			</g>
		</g>
		<g>
			<g>
				<g>
					<circle style="fill:#5668AF;" cx="119.101" cy="313.833" r="14.292"/>
				</g>
			</g>
		</g>
		<g>
			<g>
				<g>
					<circle style="fill:#5668AF;" cx="149.542" cy="284" r="14.292"/>
				</g>
			</g>
		</g>
		<g>
			<g>
				<g>
					<circle style="fill:#5668AF;" cx="179.982" cy="284" r="14.292"/>
				</g>
			</g>
		</g>
		<g>
			<g>
				<g>
					<circle style="fill:#5668AF;" cx="210.422" cy="373.5" r="14.292"/>
				</g>
			</g>
		</g>
		<g>
			<g>
				<g>
					<circle style="fill:#5668AF;" cx="119.101" cy="373.5" r="14.292"/>
				</g>
			</g>
		</g>
		<g>
			<g>
				<g>
					<circle style="fill:#5668AF;" cx="119.102" cy="284" r="14.292"/>
				</g>
			</g>
		</g>
		<g>
			<g>
				<g>
					<circle style="fill:#5668AF;" cx="210.422" cy="284" r="14.292"/>
				</g>
			</g>
		</g>
	</g>
</g>
<rect style="fill:none;" width="850.394" height="850.394"/>
<g>
	<g>
		<rect x="148.102" y="117" style="fill:none;" width="91.32" height="89.5"/>
		<g>
			<g>
				<g>
					<circle style="fill:#5668AF;" cx="239.422" cy="146.834" r="14.292"/>
				</g>
			</g>
		</g>
		<g>
			<g>
				<g>
					<circle style="fill:#5668AF;" cx="239.422" cy="176.667" r="14.292"/>
				</g>
			</g>
		</g>
		<g>
			<g>
				<g>
					<circle style="fill:#5668AF;" cx="208.981" cy="206.5" r="14.292"/>
				</g>
			</g>
		</g>
		<g>
			<g>
				<g>
					<circle style="fill:#5668AF;" cx="178.541" cy="206.5" r="14.292"/>
				</g>
			</g>
		</g>
		<g>
			<g>
				<g>
					<circle style="fill:#5668AF;" cx="148.102" cy="176.666" r="14.292"/>
				</g>
			</g>
		</g>
		<g>
			<g>
				<g>
					<circle style="fill:#5668AF;" cx="148.102" cy="146.833" r="14.292"/>
				</g>
			</g>
		</g>
		<g>
			<g>
				<g>
					<circle style="fill:#5668AF;" cx="178.542" cy="117" r="14.292"/>
				</g>
			</g>
		</g>
		<g>
			<g>
				<g>
					<circle style="fill:#5668AF;" cx="208.982" cy="117" r="14.292"/>
				</g>
			</g>
		</g>
		<g>
			<g>
				<g>
					<circle style="fill:#5668AF;" cx="239.422" cy="206.5" r="14.292"/>
				</g>
			</g>
		</g>
		<g>
			<g>
				<g>
					<circle style="fill:#5668AF;" cx="148.102" cy="206.5" r="14.292"/>
				</g>
			</g>
		</g>
		<g>
			<g>
				<g>
					<circle style="fill:#5668AF;" cx="148.102" cy="117" r="14.292"/>
				</g>
			</g>
		</g>
		<g>
			<g>
				<g>
					<circle style="fill:#5668AF;" cx="239.422" cy="117" r="14.292"/>
				</g>
			</g>
		</g>
	</g>
</g>
<g>
	<g>
		<rect x="294.102" y="85" style="fill:none;" width="91.32" height="89.5"/>
		<g>
			<g>
				<g>
					<circle style="fill:#5668AF;" cx="385.422" cy="114.834" r="14.292"/>
				</g>
			</g>
		</g>
		<g>
			<g>
				<g>
					<circle style="fill:#5668AF;" cx="385.422" cy="144.667" r="14.292"/>
				</g>
			</g>
		</g>
		<g>
			<g>
				<g>
					<circle style="fill:#5668AF;" cx="354.981" cy="174.5" r="14.292"/>
				</g>
			</g>
		</g>
		<g>
			<g>
				<g>
					<circle style="fill:#5668AF;" cx="324.541" cy="174.5" r="14.292"/>
				</g>
			</g>
		</g>
		<g>
			<g>
				<g>
					<circle style="fill:#5668AF;" cx="294.102" cy="144.666" r="14.292"/>
				</g>
			</g>
		</g>
		<g>
			<g>
				<g>
					<circle style="fill:#5668AF;" cx="294.102" cy="114.833" r="14.292"/>
				</g>
			</g>
		</g>
		<g>
			<g>
				<g>
					<circle style="fill:#5668AF;" cx="324.542" cy="85" r="14.292"/>
				</g>
			</g>
		</g>
		<g>
			<g>
				<g>
					<circle style="fill:#5668AF;" cx="354.982" cy="85" r="14.292"/>
				</g>
			</g>
		</g>
		<g>
			<g>
				<g>
					<circle style="fill:#5668AF;" cx="385.422" cy="174.5" r="14.292"/>
				</g>
			</g>
		</g>
		<g>
			<g>
				<g>
					<circle style="fill:#5668AF;" cx="294.102" cy="174.5" r="14.292"/>
				</g>
			</g>
		</g>
		<g>
			<g>
				<g>
					<circle style="fill:#5668AF;" cx="294.102" cy="85" r="14.292"/>
				</g>
			</g>
		</g>
		<g>
			<g>
				<g>
					<circle style="fill:#5668AF;" cx="385.422" cy="85" r="14.292"/>
				</g>
			</g>
		</g>
	</g>
</g>
</svg>
