<?xml version="1.0" encoding="iso-8859-1"?>
<!-- Generator: Adobe Illustrator 12.0.1, SVG Export Plug-In . SVG Version: 6.00 Build 51448)  -->
<!DOCTYPE svg PUBLIC "-//W3C//DTD SVG 1.1//EN" "http://www.w3.org/Graphics/SVG/1.1/DTD/svg11.dtd" [
	<!ENTITY ns_svg "http://www.w3.org/2000/svg">
	<!ENTITY ns_xlink "http://www.w3.org/1999/xlink">
]>
<svg  version="1.1" id="Layer_1" xmlns="&ns_svg;" xmlns:xlink="&ns_xlink;" width="850.394" height="850.394"
	 viewBox="0 0 850.394 850.394" style="overflow:visible;enable-background:new 0 0 850.394 850.394;" xml:space="preserve">
<g id="XMLID_1_">
	<g>
		<polygon style="fill:#C8C8C8;" points="393.54,417.76 393.54,650.74 215.54,522.63 98.76,522.63 98.76,418.89 98.76,319.12 
			215.54,319.12 393.54,191 		"/>
	</g>
	<g>
		<polygon style="fill:none;stroke:#231F20;stroke-width:28;" points="393.54,650.74 215.54,522.63 98.76,522.63 98.76,418.89 
			98.76,319.12 215.54,319.12 393.54,191 393.54,417.76 		"/>
		<path style="fill:none;stroke:#231F20;stroke-width:42;" d="M511.21,287.49c35.65,31.27,58.63,80.47,58.63,135.81
			c0,55.98-23.51,105.67-59.85,136.88"/>
		<path style="fill:none;stroke:#231F20;stroke-width:42;" d="M646.78,181.29C710.2,236.91,751.1,324.44,751.1,422.89
			c0,99.59-41.83,187.97-106.489,243.49"/>
	</g>
</g>
<rect style="fill:none;" width="850.394" height="850.394"/>
</svg>
