<?xml version="1.0" encoding="iso-8859-1"?>
<!-- Generator: Adobe Illustrator 12.0.1, SVG Export Plug-In . SVG Version: 6.00 Build 51448)  -->
<!DOCTYPE svg PUBLIC "-//W3C//DTD SVG 1.1//EN" "http://www.w3.org/Graphics/SVG/1.1/DTD/svg11.dtd" [
	<!ENTITY ns_svg "http://www.w3.org/2000/svg">
	<!ENTITY ns_xlink "http://www.w3.org/1999/xlink">
]>
<svg  version="1.1" id="Layer_1" xmlns="&ns_svg;" xmlns:xlink="&ns_xlink;" width="850.394" height="850.394"
	 viewBox="0 0 850.394 850.394" style="overflow:visible;enable-background:new 0 0 850.394 850.394;" xml:space="preserve">
<g>
	<g id="XMLID_2_">
		<g>
			<path style="fill:#FFFFC2;" d="M637.31,628.09c-5.76,17.2-49.55,19.33-49.55,19.33s-28.45,2.88-64.649,6.75
				c2.449-2.1,3.409-4.52,6.33-7.34c3.939-3.8,4.27-2.66,10.89-4.96c9.74-3.38,14.479-7.73,13.689-16.41
				c10.461-2.35,18.511,0.04,26.021-21.02c7.479,3.3,20.77,1.229,30.04-4.46c3.64-0.11,6.67-0.171,9.01-0.171
				c1.49,0,2.9-0.09,4.21-0.27l5.59,1.51c1.62,3.74,7.721,16.59,8.42,19.061C638.17,623.08,638.1,625.73,637.31,628.09z"/>
			<path style="fill:#FFFFC2;" d="M374.32,643.86c3.73,4.06,8.43,6.89,15.53,8.069c4.47,0.73,7.06-1.859,11.4,0.351
				c4.84,2.45,6.92,10.37,12.17,13.21c0.79,0.42,1.56,0.779,2.32,1.069c-7.47,0.95-13.19,1.631-19.23,2.48
				c-15.66,2.24-28.01,4.82-37.85,7.479c8.34-9.27,13.48-20.279,14.11-31.579L374.32,643.86z"/>
			<path style="fill:#FFFFC2;" d="M299.07,701.93c0.69,0,1.38-0.01,2.07-0.029v0.029c-29.18,8.98-56.33-0.21-56.33-0.21
				c-27.95-9.18-41.49-23.83-71.5-79.2c-21.43-39.51-26.41-72.84-20.42-99.02l2.88-0.52c7.19,36.59,30.2,77.67,30.2,77.67
				c12.94,23.659,24.71,38.88,39.49,48.51C227.25,678.54,259.52,701.93,299.07,701.93z"/>
			<path style="fill:#F6CC4B;" d="M152.89,523.5c-5.99,26.18-1.01,59.51,20.42,99.02c30.01,55.37,43.55,70.021,71.5,79.2
				c0,0,27.15,9.19,56.33,0.21V701.9c23.62-0.57,44.48-10.86,57.52-25.381c9.84-2.659,22.19-5.239,37.85-7.479
				c6.04-0.85,11.76-1.53,19.23-2.48c9.23,3.561,16.27-2.149,24.76-4.39c9.24-2.43,14.17,4.93,23.32,5.16
				c10.5,0.3,13.64-10.23,21.04-12.271c11.12-3.04,22.09,7.04,34.56,1.381c1.58-0.71,2.75-1.471,3.69-2.271
				c36.199-3.87,64.649-6.75,64.649-6.75s43.79-2.13,49.55-19.33c0.591,2.03,15.66,54.68-19.97,54.68
				c-6.05,0-16.78,0.391-30.59,1.131c-69.09,3.72-215.16,16.119-236.02,31.34c-4.86,3.54-9.86,6.84-15.08,9.79
				c-21.68,12.26-47.19,18.52-82.54,11.18l-10.05-2.19c-29.26-7.409-43.28-19.909-67.32-54.46c0,0-43.3-60.93-42.93-100.47
				c0.2-21.89,12.84-48.64,21.16-64.28l0.46-0.06c0.34,2.7,0.79,5.45,1.34,8.23L152.89,523.5z"/>
			<path style="fill:#F6CC4B;" d="M610.08,599.98c-51.13,1.619-221.82,14.289-254.63,30.529c-1.17,0.58-2.17,1.17-2.98,1.76
				c-25.03,18.24-53.24,37.771-97.1,28.66c-11.56-2.39-21.26-6.13-29.91-11.77c-14.78-9.63-26.55-24.851-39.49-48.51
				c0,0-23.01-41.08-30.2-77.67c-0.55-2.78-1-5.53-1.34-8.23c-0.85-6.57-1.05-12.85-0.38-18.59c2.43-20.69,14.39-42.36,24.12-57.04
				c6.4-9.66,11.84-16.29,12.96-17.64c-19.22,26.45-23.94,67.46-1.48,122.21c25.35,61.75,44.55,82.09,69.74,86.79
				c17.04,3.189,41.55,0.569,61.46-19.341c6.47-6.449,21.63-17.09,77.41-25.06c55.79-7.95,191.24-21.61,191.24-21.61
				s43.82-2.14,49.55-19.359c0.53,1.779,14.48,50.37-15.75,54.43c-1.31,0.18-2.72,0.27-4.21,0.27
				C616.75,599.81,613.72,599.87,610.08,599.98z"/>
			<path style="fill:#9E5C26;" d="M580.04,604.44c-7.51,21.06-15.56,18.67-26.021,21.02c0.79,8.68-3.949,13.03-13.689,16.41
				c-6.62,2.3-6.95,1.16-10.89,4.96c-2.921,2.82-3.881,5.24-6.33,7.34c-0.94,0.8-2.11,1.561-3.69,2.271
				c-12.47,5.659-23.439-4.421-34.56-1.381c-7.4,2.04-10.54,12.57-21.04,12.271c-9.15-0.23-14.08-7.59-23.32-5.16
				c-8.49,2.24-15.53,7.95-24.76,4.39c-0.76-0.29-1.53-0.649-2.32-1.069c-5.25-2.84-7.33-10.76-12.17-13.21
				c-4.34-2.21-6.93,0.38-11.4-0.351c-7.1-1.18-11.8-4.01-15.53-8.069c-2.9-3.15-5.23-7.04-7.65-11.46
				c-4.61,0.64-8.26-0.03-11.22-1.891c32.81-16.24,203.5-28.91,254.63-30.529C600.81,605.67,587.52,607.74,580.04,604.44z"/>
			<path style="fill:#ED1D31;" d="M358.66,676.52c-13.04,14.521-33.9,24.811-57.52,25.381c-0.69,0.02-1.38,0.029-2.07,0.029
				c-39.55,0-71.82-23.39-73.61-52.77c8.65,5.64,18.35,9.38,29.91,11.77c43.86,9.11,72.07-10.42,97.1-28.66
				c0.81-0.59,1.81-1.18,2.98-1.76c2.96,1.86,6.61,2.53,11.22,1.891c2.42,4.42,4.75,8.31,7.65,11.46l-1.55,1.08
				C372.14,656.24,367,667.25,358.66,676.52z"/>
			<path style="fill:#ABD153;" d="M178.17,439.12c-9.73,14.68-21.69,36.35-24.12,57.04c-0.67,5.74-0.47,12.02,0.38,18.59l-0.46,0.06
				c-8.32,15.641-20.96,42.391-21.16,64.28c-0.37,39.54,42.93,100.47,42.93,100.47c24.04,34.551,38.06,47.051,67.32,54.46
				l10.05,2.19c35.35,7.34,60.86,1.08,82.54-11.18c19.91,6.399,37.92,5.67,59.35,5.67c79.17,0,152.59-7.63,191.75-46.79v-0.01
				c13.81-0.74,24.54-1.131,30.59-1.131c35.63,0,20.561-52.649,19.97-54.68c0.79-2.359,0.86-5.01,0-7.979
				c-0.699-2.471-6.8-15.32-8.42-19.061l-5.59-1.51c30.23-4.06,16.28-52.65,15.75-54.43V545.1c0.79-2.35,0.86-4.989,0.01-7.939
				c-5.3-18.43-37.829-75.37-59.34-113.19c86.181,35.65,142.74,95.6,142.74,163.52c0,109.37-146.61,198.02-327.46,198.02
				c-180.84,0-327.45-88.649-327.45-198.02c0-59.07,42.77-112.101,110.6-148.38L178.17,439.12z"/>
			<path style="fill:#F6CC4B;" d="M776.07,143.44L751.3,378.57c0,25.96-35.939,47-80.29,47c-44.33,0-80.279-21.04-80.279-47
				L565.96,143.43l0.11-0.01c1.439,15.74,47.87,28.39,104.91,28.39c57.05,0,103.479-12.65,104.92-28.39L776.07,143.44z"/>
			<path style="fill:#FFFFC2;" d="M639.05,545.1v0.011c-5.729,17.22-49.55,19.359-49.55,19.359s-135.45,13.66-191.24,21.61
				c-55.78,7.97-70.94,18.61-77.41,25.06c-19.91,19.91-44.42,22.53-61.46,19.341c-25.19-4.7-44.39-25.04-69.74-86.79
				c-22.46-54.75-17.74-95.761,1.48-122.21c0.04-0.05,0.08-0.1,0.11-0.14c2.43-3.34,5.1-6.44,7.97-9.31
				c17.6-17.62,58.43-9.42,69.75-9.42c11.34,0,191.01-31.89,227.36-42.4c36.35-10.48,53.75,9.61,66.939,34.4
				c3.311,6.22,9.271,16.72,16.46,29.36c21.511,37.82,54.04,94.76,59.34,113.19C639.91,540.11,639.84,542.75,639.05,545.1z"/>
			<path style="fill:#FFFFC2;" d="M586.75,683.9v0.01C547.59,723.07,474.17,730.7,395,730.7c-21.43,0-39.44,0.729-59.35-5.67
				c5.22-2.95,10.22-6.25,15.08-9.79C371.59,700.02,517.66,687.62,586.75,683.9z"/>
		</g>
		<g>
			<path style="fill:none;stroke:#231F20;stroke-width:14;" d="M578.09,423.29c0.54,0.22,1.09,0.45,1.63,0.68
				c86.181,35.65,142.74,95.6,142.74,163.52c0,109.37-146.61,198.02-327.46,198.02c-180.84,0-327.45-88.649-327.45-198.02
				c0-59.07,42.77-112.101,110.6-148.38"/>
			<path style="fill:none;stroke:#231F20;stroke-width:14;" d="M586.75,683.91C547.59,723.07,474.17,730.7,395,730.7
				c-21.43,0-39.44,0.729-59.35-5.67"/>
			<path style="fill:none;stroke:#231F20;stroke-width:14;" d="M520.58,654.44c0.85-0.091,1.689-0.181,2.53-0.271
				c36.199-3.87,64.649-6.75,64.649-6.75s43.79-2.13,49.55-19.33c0.79-2.359,0.86-5.01,0-7.979c-0.699-2.471-6.8-15.32-8.42-19.061"
				/>
			<path style="fill:none;stroke:#231F20;stroke-width:14;" d="M358.58,676.54c0.03-0.01,0.05-0.01,0.08-0.021
				c9.84-2.659,22.19-5.239,37.85-7.479c6.04-0.85,11.76-1.53,19.23-2.48c0.58-0.079,1.18-0.149,1.79-0.229"/>
			<path style="fill:none;stroke:#231F20;stroke-width:14;" d="M152.89,523.5c-5.99,26.18-1.01,59.51,20.42,99.02
				c30.01,55.37,43.55,70.021,71.5,79.2c0,0,27.15,9.19,56.33,0.21"/>
			<path style="fill:none;stroke:#231F20;stroke-width:14;" d="M637.29,628.03c0,0,0.01,0.02,0.02,0.06
				c0.591,2.03,15.66,54.68-19.97,54.68c-6.05,0-16.78,0.391-30.59,1.131c-69.09,3.72-215.16,16.119-236.02,31.34
				c-4.86,3.54-9.86,6.84-15.08,9.79c-21.68,12.26-47.19,18.52-82.54,11.18l-10.05-2.19c-29.26-7.409-43.28-19.909-67.32-54.46
				c0,0-43.3-60.93-42.93-100.47c0.2-21.89,12.84-48.64,21.16-64.28"/>
			<path style="fill:none;stroke:#231F20;stroke-width:14;" d="M639.05,545.1c0.79-2.35,0.86-4.989,0.01-7.939
				c-5.3-18.43-37.829-75.37-59.34-113.19c-7.189-12.64-13.149-23.14-16.46-29.36c-13.189-24.79-30.59-44.88-66.939-34.4
				c-36.351,10.51-216.021,42.4-227.36,42.4c-11.32,0-52.15-8.2-69.75,9.42c-2.87,2.87-5.54,5.97-7.97,9.31"/>
			<path style="fill:none;stroke:#231F20;stroke-width:14;" d="M191.13,421.48c-19.22,26.45-23.94,67.46-1.48,122.21
				c25.35,61.75,44.55,82.09,69.74,86.79c17.04,3.189,41.55,0.569,61.46-19.341c6.47-6.449,21.63-17.09,77.41-25.06
				c55.79-7.95,191.24-21.61,191.24-21.61s43.82-2.14,49.55-19.359"/>
			<path style="fill:none;stroke:#231F20;stroke-width:14;" d="M639.04,545.06c0,0,0,0.011,0.01,0.04v0.011
				c0.53,1.779,14.48,50.37-15.75,54.43c-1.31,0.18-2.72,0.27-4.21,0.27c-2.34,0-5.37,0.061-9.01,0.171
				c-51.13,1.619-221.82,14.289-254.63,30.529c-1.17,0.58-2.17,1.17-2.98,1.76c-25.03,18.24-53.24,37.771-97.1,28.66
				c-11.56-2.39-21.26-6.13-29.91-11.77c-14.78-9.63-26.55-24.851-39.49-48.51c0,0-23.01-41.08-30.2-77.67
				c-0.55-2.78-1-5.53-1.34-8.23c-0.85-6.57-1.05-12.85-0.38-18.59c2.43-20.69,14.39-42.36,24.12-57.04
				c6.4-9.66,11.84-16.29,12.96-17.64c0.04-0.05,0.08-0.1,0.11-0.14c0.07-0.07,0.1-0.11,0.1-0.11"/>
			<path style="fill:none;stroke:#231F20;stroke-width:14;" d="M354.98,630.22c0.15,0.101,0.31,0.21,0.47,0.29
				c2.96,1.86,6.61,2.53,11.22,1.891c2.42,4.42,4.75,8.31,7.65,11.46c3.73,4.06,8.43,6.89,15.53,8.069
				c4.47,0.73,7.06-1.859,11.4,0.351c4.84,2.45,6.92,10.37,12.17,13.21c0.79,0.42,1.56,0.779,2.32,1.069
				c9.23,3.561,16.27-2.149,24.76-4.39c9.24-2.43,14.17,4.93,23.32,5.16c10.5,0.3,13.64-10.23,21.04-12.271
				c11.12-3.04,22.09,7.04,34.56,1.381c1.58-0.71,2.75-1.471,3.69-2.271c2.449-2.1,3.409-4.52,6.33-7.34
				c3.939-3.8,4.27-2.66,10.89-4.96c9.74-3.38,14.479-7.73,13.689-16.41c10.461-2.35,18.511,0.04,26.021-21.02
				c7.479,3.3,20.77,1.229,30.04-4.46c0.37-0.221,0.729-0.45,1.08-0.69"/>
			<path style="fill:none;stroke:#231F20;stroke-width:14;" d="M372.77,644.94c-0.63,11.3-5.77,22.31-14.11,31.579
				c-13.04,14.521-33.9,24.811-57.52,25.381c-0.69,0.02-1.38,0.029-2.07,0.029c-39.55,0-71.82-23.39-73.61-52.77
				c-0.02-0.29-0.04-0.59-0.05-0.891"/>
			<path style="fill:none;stroke:#231F20;stroke-width:14;" d="M781.32,93.6c0,0.6-0.061,1.2-0.19,1.79
				c-3.33,16.08-51.35,28.84-110.12,28.84c-58.75,0-106.779-12.76-110.109-28.84c-0.131-0.59-0.19-1.19-0.19-1.79
				c0-16.92,49.39-30.64,110.3-30.64C731.94,62.96,781.32,76.68,781.32,93.6z"/>
			<path style="fill:none;stroke:#231F20;stroke-width:14;" d="M775.93,142.67c0,0.25-0.01,0.5-0.029,0.75
				c-1.44,15.74-47.87,28.39-104.92,28.39c-57.04,0-103.471-12.65-104.91-28.39c-0.021-0.25-0.03-0.5-0.03-0.75"/>
			<path style="fill:none;stroke:#231F20;stroke-width:14;" d="M560.71,93.6l0.19,1.79l5.06,48.04l24.771,235.14
				c0,25.96,35.949,47,80.279,47c44.351,0,80.29-21.04,80.29-47l24.771-235.13l5.06-48.05l0.19-1.79"/>
		</g>
	</g>
</g>
<rect style="fill:none;" width="850.394" height="850.394"/>
</svg>
