<?xml version="1.0" encoding="iso-8859-1"?>
<!-- Generator: Adobe Illustrator 12.0.1, SVG Export Plug-In . SVG Version: 6.00 Build 51448)  -->
<!DOCTYPE svg PUBLIC "-//W3C//DTD SVG 1.1//EN" "http://www.w3.org/Graphics/SVG/1.1/DTD/svg11.dtd" [
	<!ENTITY ns_svg "http://www.w3.org/2000/svg">
	<!ENTITY ns_xlink "http://www.w3.org/1999/xlink">
]>
<svg  version="1.1" id="Layer_1" xmlns="&ns_svg;" xmlns:xlink="&ns_xlink;" width="850.394" height="850.394"
	 viewBox="0 0 850.394 850.394" style="overflow:visible;enable-background:new 0 0 850.394 850.394;" xml:space="preserve">
<g>
	<g id="XMLID_15_">
		<g>
			<path style="fill:#FFFFC2;" d="M723.27,583.98c31.801-0.591,67.971,70.42,49.28,95.109c-18.689,24.7-56.13,72.47-183.43,93.061
				c-151.87,24.56-246.63-112.7-248.69-115.71c21.74,20.14,57.23,22.689,85.73,4.239c33.07-21.43,44.229-63.01,24.97-93.02
				c14.68,15.96,42,42.5,67.021,49.47c29.64,8.28,69.56,13.07,111.14-2.729C683.43,593.82,696.82,584.46,723.27,583.98z"/>
			<path style="fill:#FFFFC2;" d="M451.13,567.66c19.26,30.01,8.101,71.59-24.97,93.02c-28.5,18.45-63.99,15.9-85.73-4.239
				c0-0.011-0.01-0.021-0.02-0.03c-3.55-3.271-6.72-7.021-9.44-11.22c-19.43-30.021-8.31-71.74,24.85-93.19
				c33.14-21.46,75.77-14.53,95.2,15.48C451.06,567.54,451.1,567.6,451.13,567.66z"/>
			<path style="fill:#FFFFC2;" d="M215.48,155.88c1.66,1.49,126.53,113.8,82.04,261.77c-37.14,123.49-89.43,154.331-116.36,169.6
				c-26.93,15.28-92.57-29.9-87.81-61.34c3.96-26.17,14.99-38.21,42.51-89.17c21.13-39.15,21.62-79.35,17.31-109.83
				c-3.63-25.74-26.4-56.36-40.29-72.99c27.2,23.11,69.95,17.53,95.55-12.47C230.47,215.62,232.61,180.08,215.48,155.88z"/>
			<path style="fill:#FFFFC2;" d="M112.86,253.9c-0.03-0.01-0.05-0.04-0.08-0.06c-27.2-23.2-28.47-66.36-2.85-96.4
				c25.63-30.05,68.45-35.59,95.65-12.39c3.81,3.25,7.1,6.88,9.88,10.82c0,0,0.01,0,0.02,0.01c17.13,24.2,14.99,59.74-7.05,85.57
				c-25.6,30-68.35,35.58-95.55,12.47C112.87,253.91,112.86,253.9,112.86,253.9z"/>
			<path style="fill:#FFFFC2;" d="M601.3,388.17c0.05,0.03,0.09,0.06,0.141,0.09c30.229,19.09,37.659,61.62,16.59,95.021
				c-21.07,33.39-62.66,44.989-92.9,25.92c-4.229-2.67-8.01-5.8-11.32-9.3c0,0-0.01,0-0.02-0.011
				c-20.41-21.5-23.38-56.979-5.25-85.7C529.58,380.85,571.07,369.23,601.3,388.17z"/>
			<path style="fill:#FFFFC2;" d="M551.02,321.71c7.271,24.95,34.15,51.98,50.28,66.46c-30.229-18.94-71.72-7.32-92.76,26.02
				c-18.13,28.72-15.16,64.2,5.25,85.7c-2.021-1.34-141.48-94.64-118.6-247.36C414.31,125,461.65,87.01,486.13,68.04
				c24.47-18.97,95.89,16.37,95.66,48.17c-0.17,26.46-9.37,39.96-29.33,94.33C537.14,252.3,542.4,292.16,551.02,321.71z"/>
		</g>
		<g>
			<path style="fill:none;stroke:#231F20;stroke-width:21;" d="M215.48,155.88c17.13,24.2,14.99,59.74-7.05,85.57
				c-25.6,30-68.35,35.58-95.55,12.47"/>
			<path style="fill:none;stroke:#231F20;stroke-width:21;" d="M112.86,253.9c-0.03-0.01-0.05-0.04-0.08-0.06
				c-27.2-23.2-28.47-66.36-2.85-96.4c25.63-30.05,68.45-35.59,95.65-12.39c3.81,3.25,7.1,6.88,9.88,10.82"/>
			<path style="fill:none;stroke:#231F20;stroke-width:21;" d="M215.46,155.87c0,0,0.01,0,0.02,0.01
				c1.66,1.49,126.53,113.8,82.04,261.77c-37.14,123.49-89.43,154.331-116.36,169.6c-26.93,15.28-92.57-29.9-87.81-61.34
				c3.96-26.17,14.99-38.21,42.51-89.17c21.13-39.15,21.62-79.35,17.31-109.83c-3.63-25.74-26.4-56.36-40.29-72.99
				c-0.01-0.01-0.02-0.02-0.02-0.02c-6.32-7.56-10.79-12.23-10.79-12.23"/>
			<path style="fill:none;stroke:#231F20;stroke-width:21;" d="M513.79,499.89c-20.41-21.5-23.38-56.979-5.25-85.7
				c21.04-33.34,62.53-44.96,92.76-26.02c0.05,0.03,0.09,0.06,0.141,0.09c30.229,19.09,37.659,61.62,16.59,95.021
				c-21.07,33.39-62.66,44.989-92.9,25.92c-4.229-2.67-8.01-5.8-11.32-9.3"/>
			<path style="fill:none;stroke:#231F20;stroke-width:21;" d="M513.81,499.9c0,0-0.01,0-0.02-0.011
				c-2.021-1.34-141.48-94.64-118.6-247.36C414.31,125,461.65,87.01,486.13,68.04c24.47-18.97,95.89,16.37,95.66,48.17
				c-0.17,26.46-9.37,39.96-29.33,94.33c-15.32,41.76-10.06,81.62-1.44,111.17c7.271,24.95,34.15,51.98,50.28,66.46
				c7.351,6.62,12.47,10.61,12.47,10.61"/>
			<path style="fill:none;stroke:#231F20;stroke-width:21;" d="M340.43,656.44c21.74,20.14,57.23,22.689,85.73,4.239
				c33.07-21.43,44.229-63.01,24.97-93.02c-0.03-0.061-0.07-0.12-0.11-0.18c-19.43-30.011-62.06-36.94-95.2-15.48
				c-33.16,21.45-44.28,63.17-24.85,93.19c2.72,4.199,5.89,7.949,9.44,11.22"/>
			<path style="fill:none;stroke:#231F20;stroke-width:21;" d="M340.4,656.39c0,0,0,0.011,0.01,0.021c0.01,0.01,0.02,0.02,0.02,0.03
				c2.06,3.01,96.82,140.27,248.69,115.71c127.3-20.591,164.74-68.36,183.43-93.061c18.69-24.689-17.479-95.7-49.28-95.109
				c-26.449,0.479-39.84,9.84-93.979,30.42c-41.58,15.8-81.5,11.01-111.14,2.729c-25.021-6.97-52.341-33.51-67.021-49.47
				c-6.71-7.3-10.78-12.391-10.78-12.391"/>
		</g>
	</g>
</g>
<rect style="fill:none;" width="850.394" height="850.394"/>
</svg>
