<svg xmlns="http://www.w3.org/2000/svg" width="850.394" height="850.394" viewBox="0 0 850.394 850.394" overflow="visible"><path d="M739.66 657.4c6.04 7.81 10.05 19.859 5.17 30.869-9.25 20.94-39.71 21.07-48.8 11.28s-36.601-16.41-58.181-10.68c-21.59 5.76-55.229 4.479-55.229 4.479-38.76-1.479-42.101-10.77-70.24-12.479l.021-.311 1.56-40.829.01-.341c106.2 4.721 199.09 9.341 199.09 9.341s16.709-4.109 26.599 8.671z" fill="#9e5b16"/><path d="M724.16 258.88c2.55 15.04 3.31 27.98 2.47 39.12h-.01c-11.33-24.77-10.37-36.12-22.4-54.89-13.029-20.31-37.739-17.17-58.42-16.99-25.6.22-53.01-3.62-78.149 2.17-20.99 4.83-39.54 16.76-60.931 20.79-60.239 11.36-103.68-40.37-166.84-27.28-25.56 5.3-47.17 10.89-73.91 10.94-26.37.05-61.92-9.05-85.2 6.28-36.95 24.35-29.4 67.2-32.77 106.84-19.71-15.32-28.39-41.65-20.67-87.11 9.95-58.59 5.52-97.27 80.69-109.43 75.16-12.16 189.02-11.05 217.75-11.05 0 0 142.54-.98 217.7 11.18s70.74 50.84 80.69 109.43z" fill="#ffeec8"/><path d="M513.97 639.39l-.01.341-1.56 40.829-.021.311c-1.05-.061-2.13-.12-3.25-.16-31.18-1.18-13.12 30.44-25.92 45.85-12.79 15.4-246.83-13.109-299.77-25.05-55.41-12.52-72.49-23.34-72.49-39.85s47.81-28.69 101.01-31.95c28.971-1.781 175.011 4.019 302.011 9.679z" fill="#c8c8c8"/><path d="M473.24 444.57h-58.58v-.12h-36.42c-120.48 0-225.49-27.64-225.49-27.64s-4.54-1.84-11.12-5.56c-14.49-8.18-38.93-25.5-46.91-52.48-4.17-14.08-4.45-35.88-2.68-59.18l.64.05c0 49.74 36.46 74.9 83.28 89.54 78.13 24.41 200.09 24.73 250.08 25.97 49.21 1.21 170.36-1.11 249.479-25.84 46.801-14.62 83.19-36.47 83.23-86.15 1.96 21.97 1.98 42.31-1.99 55.75-7.83 26.45-31.479 43.61-46.06 51.99-7.04 4.05-11.97 6.04-11.97 6.04S593.72 444.57 473.24 444.57z" fill="#ffeec8"/><path d="M683.81 356.7c-85.1 32.06-262.52 29.3-262.52 29.3v-.08c-36.98.05-179.9-1.59-253.62-29.35-7.39-2.78-13.99-6.29-19.67-10.71 3.37-39.64-4.18-82.49 32.77-106.84 23.28-15.33 58.83-6.23 85.2-6.28 26.74-.05 48.35-5.64 73.91-10.94 63.16-13.09 106.601 38.64 166.84 27.28 21.391-4.03 39.94-15.96 60.931-20.79 25.14-5.79 52.55-1.95 78.149-2.17 20.681-.18 45.391-3.32 58.42 16.99 12.03 18.77 11.07 30.12 22.4 54.89h.01c-2.44 32.28-18.29 49.46-42.82 58.7z" fill="#ffff4b"/><path d="M421.29 386s177.42 2.76 262.52-29.3c24.53-9.24 40.381-26.42 42.82-58.7.84-11.14.08-24.08-2.47-39.12-9.95-58.59-5.53-97.27-80.69-109.43-75.16-12.16-217.7-11.18-217.7-11.18-28.73 0-142.59-1.11-217.75 11.05-75.17 12.16-70.74 50.84-80.69 109.43-7.72 45.46.96 71.79 20.67 87.11 5.68 4.42 12.28 7.93 19.67 10.71 73.72 27.76 216.64 29.4 253.62 29.35v.08zm319.44-190.13c3.38 16.94 14.26 65.12 18.02 107.29-.04 49.68-36.43 71.53-83.23 86.15-79.119 24.73-200.27 27.05-249.479 25.84-49.99-1.24-171.95-1.56-250.08-25.97-46.82-14.64-83.28-39.8-83.28-89.54l-.64-.05c3.15-41.63 12.86-88.05 18.71-103.85 11.05-29.84 36.48-64.1 100.59-70.74 0 0 122.44-13.42 215.19-13.42 91.96 0 213.63 13.55 213.63 13.55 65.259 6.63 93.939 37.45 100.569 70.74z" fill="#ffeec8"/><path d="M414.66 444.57h58.58c120.479 0 225.49-27.63 225.49-27.63s4.93-1.99 11.97-6.04l.17.29s-16.93 143.46-58.771 156.34c-18.569 5.72-138.88 27.729-225.649 27.729l-.41.061c-86.77 0-207.08-22.011-225.66-27.73-41.82-12.89-58.75-156.34-58.75-156.34 6.58 3.72 11.12 5.56 11.12 5.56s105.01 27.64 225.49 27.64h36.42v.12z" fill="#00e800"/><g fill="none" stroke="#000"><path d="M758.75 303.07v.09c-.04 49.68-36.43 71.53-83.23 86.15-79.119 24.73-200.27 27.05-249.479 25.84-49.99-1.24-171.95-1.56-250.08-25.97-46.82-14.64-83.28-39.8-83.28-89.54" stroke-width="21.38"/><path d="M421.29 386s177.42 2.76 262.52-29.3c24.53-9.24 40.381-26.42 42.82-58.7.84-11.14.08-24.08-2.47-39.12-9.95-58.59-5.53-97.27-80.69-109.43-75.16-12.16-217.7-11.18-217.7-11.18-28.73 0-142.59-1.11-217.75 11.05-75.17 12.16-70.74 50.84-80.69 109.43-7.72 45.46.96 71.79 20.67 87.11 5.68 4.42 12.28 7.93 19.67 10.71 73.72 27.76 216.64 29.4 253.62 29.35 5.72-.01 8.9-.06 8.9-.06" stroke-width="14.253"/><path d="M710.87 411.19s-16.93 143.46-58.771 156.34c-18.569 5.72-138.88 27.729-225.649 27.729l-.41.061c-86.77 0-207.08-22.011-225.66-27.73-41.82-12.89-58.75-156.34-58.75-156.34M512.38 680.87c28.14 1.71 31.48 11 70.24 12.479 0 0 33.64 1.28 55.229-4.479 21.58-5.73 49.091.89 58.181 10.68s39.55 9.66 48.8-11.28c4.88-11.01.87-23.06-5.17-30.869-9.891-12.78-26.601-8.67-26.601-8.67s-92.89-4.62-199.09-9.341c-127-5.659-273.04-11.46-302.01-9.68-53.2 3.26-101.01 15.44-101.01 31.95s17.08 27.33 72.49 39.85c52.94 11.94 286.98 40.45 299.77 25.05 12.8-15.409-5.26-47.029 25.92-45.85 1.121.04 2.201.1 3.251.16zM512.4 680.56l1.56-40.83" stroke-width="21.38"/><path d="M148 345.86c3.37-39.64-4.18-82.49 32.77-106.84 23.28-15.33 58.83-6.23 85.2-6.28 26.74-.05 48.35-5.64 73.91-10.94 63.16-13.09 106.601 38.64 166.84 27.28 21.391-4.03 39.94-15.96 60.931-20.79 25.14-5.79 52.55-1.95 78.149-2.17 20.681-.18 45.391-3.32 58.42 16.99 12.03 18.77 11.07 30.12 22.4 54.89" stroke-width="14.253"/><path d="M414.66 444.57h58.58c120.479 0 225.49-27.63 225.49-27.63s4.93-1.99 11.97-6.04c14.58-8.38 38.229-25.54 46.06-51.99 3.971-13.44 3.95-33.78 1.99-55.75-3.76-42.17-14.64-90.35-18.02-107.29-6.631-33.29-35.311-64.11-100.57-70.74 0 0-121.67-13.55-213.63-13.55-92.75 0-215.19 13.42-215.19 13.42-64.11 6.64-89.54 40.9-100.59 70.74-5.85 15.8-15.56 62.22-18.71 103.85-1.77 23.3-1.49 45.1 2.68 59.18 7.98 26.98 32.42 44.3 46.91 52.48 6.58 3.72 11.12 5.56 11.12 5.56s105.01 27.64 225.49 27.64h58.59" stroke-width="21.38"/></g><path fill="none" d="M0 0h850.394v850.394H0z"/></svg>