<?xml version="1.0" encoding="iso-8859-1"?>
<!-- Generator: Adobe Illustrator 12.0.1, SVG Export Plug-In . SVG Version: 6.00 Build 51448)  -->
<!DOCTYPE svg PUBLIC "-//W3C//DTD SVG 1.1//EN" "http://www.w3.org/Graphics/SVG/1.1/DTD/svg11.dtd" [
	<!ENTITY ns_svg "http://www.w3.org/2000/svg">
	<!ENTITY ns_xlink "http://www.w3.org/1999/xlink">
]>
<svg  version="1.1" id="Layer_1" xmlns="&ns_svg;" xmlns:xlink="&ns_xlink;" width="850.394" height="850.394"
	 viewBox="0 0 850.394 850.394" style="overflow:visible;enable-background:new 0 0 850.394 850.394;" xml:space="preserve">
<g id="XMLID_4_">
	<g>
		<path style="fill:#0D72BA;" d="M192.32,236.11c24.74-64.16,91.79-61.18,91.79-61.18s61.12-5.49,88.84,84.12L368,258
			c0,0-30.08-20.27-77.79-23.22c-0.63-0.04-1.26-0.08-1.89-0.11c-10.89-0.56-20.77-0.42-29.72,0.24
			c-49.42,3.64-70.22,23.03-73.34,26.24c0.96-4.28,1.94-8.36,2.94-12.18C189.39,244.41,190.77,240.13,192.32,236.11z"/>
		<path style="fill:#0D72BA;" d="M290.21,234.78C337.92,237.73,368,258,368,258l4.95,1.05c1,3.24,1.96,6.61,2.87,10.11
			c25.34,97.24,39.55,158.18,39.55,158.18l-1.17,1.11c0.84,0.53,1.65,1.03,2.43,1.52l-1.64,3.03
			c-17.74-9.53-33.83-17.45-46.08-24.98c-7.81-4.8-14.06-9.44-18.19-14.22c0,0-10.38-41.47-10.26-48.76l-0.49-0.24
			c0.84-1.75,1.44-3.6,1.71-5.6c0.34-2.35,10.91-40.51-4.64-56.07c-10.61-10.61-34.77-35.51-46.84-48.24L290.21,234.78z"/>
		<path style="fill:#BD2226;" d="M693.55,270.26c3.5,5.45,33.521,117.69,35.851,135.23l-88.54,14.06
			c9.76-11.87,22.01-33.33,28.529-56.15c4.88-17.07,21.44-94.32,21.44-95.49l0.2-0.24C692.25,268.71,693.12,269.6,693.55,270.26z"/>
		<path style="fill:#BD2226;" d="M447.71,408.61c1.95-31.06,32.35-132.9,35.86-138.35c0.42-0.65,1.3-1.52,2.569-2.55l0.16,0.2
			c0,1.17,16.561,78.42,21.44,95.49c7.79,27.28,23.77,52.61,33.899,61.96L446,438l-0.12-0.01
			C446.44,428.98,447.15,417.6,447.71,408.61z"/>
		<path style="fill:#FFFFFF;" d="M575.43,423.48l-33.79,1.88c-10.13-9.35-26.109-34.68-33.899-61.96
			c-4.88-17.07-21.44-94.32-21.44-95.49l-0.16-0.2c5.641-4.54,18.83-12.07,32.23-16.83c-1.68,6.65-1.86,12.48,0.37,11.51
			c8.09-3.53,15.67-3.88,22.09-4.08c-0.16,11.56-0.7,68.13,3.15,88.72c4.279,22.99,12.079,51.41,25.329,68.98
			C571.17,418.48,573.24,420.99,575.43,423.48z"/>
		<path style="fill:#FFFFFF;" d="M691.03,267.67l-0.2,0.24c0,1.17-16.561,78.42-21.44,95.49c-6.52,22.82-18.77,44.28-28.529,56.15
			L638,420l-34.97,1.95c1.689-1.98,3.31-3.98,4.79-5.94c13.239-17.57,21.04-45.99,25.319-68.98c3.83-20.5,3.311-76.63,3.15-88.55
			c5.45,0.31,11.54,1.11,17.95,3.91c2.5,1.09,1.979-6.32-0.26-13.86l0.47-0.15C668.14,252.35,684.56,262.16,691.03,267.67z"/>
		<path style="fill:#A9D7F3;" d="M636.29,258.48c0.16,11.92,0.68,68.05-3.15,88.55c-4.279,22.99-12.08,51.41-25.319,68.98
			c-1.48,1.96-3.101,3.96-4.79,5.94l-27.601,1.53c-2.189-2.49-4.26-5-6.12-7.47c-13.25-17.57-21.05-45.99-25.329-68.98
			c-3.851-20.59-3.311-77.16-3.15-88.72c2.52-0.09,4.86-0.15,6.99-0.37c-0.021,0.33-0.03,0.67-0.03,1.01
			c0,15.72,18.5,28.45,41.31,28.45c22.82,0,41.32-12.73,41.32-28.45c0-0.23,0-0.47-0.02-0.7
			C632.26,258.31,634.23,258.36,636.29,258.48z"/>
		<path style="fill:#FBEE34;" d="M534.33,198.31c-1.88,6.75-1.54,12.73-1.561,18.21h-0.199c-15.931-14.71-25.891-35.71-25.891-59.03
			c0-44.48,36.25-80.54,80.971-80.54c44.729,0,80.979,36.06,80.979,80.54c0,23.64-11.51,45.81-27.82,60.54l-0.569,0.01
			c-0.13-5.89,0.47-12.35-1.58-19.73c-1.57-5.67,2.07-15.61-1.76-21.29c-6.36-9.44-5.261-17.01-5.261-17.01
			c0-27.09-19-49.21-42.87-50.51c-0.739-0.05-1.479-0.07-2.229-0.07c-0.03,0-0.06,0-0.09,0c-24.91,0-45.101,22.65-45.101,50.58
			c0,0,1.101,7.57-5.27,17.01C532.26,182.7,535.9,192.64,534.33,198.31z"/>
		<path style="fill:#A9D7F3;" d="M229.93,284.95c-2.55,0-4.6,1.82-4.6,4.05c0,2.25,2.05,4.05,4.6,4.05c2.56,0,4.63-1.8,4.63-4.05
			C234.56,286.77,232.49,284.95,229.93,284.95z M229.68,283.67c2.8,0.07,5.66,0.98,8.11,2.52l-0.38,0.6
			c0.47,0.93,0.17,0.83,0.17,1.94c0,3.99-3.4,7.23-7.57,7.23c-4.18,0-7.58-3.24-7.58-7.23c0-1.5-0.14-1.89,0.68-3.04l-0.27-0.66
			C224.96,284.12,227.24,283.62,229.68,283.67z"/>
		<path style="fill:#A9D7F3;" d="M296.97,289c0-2.23-2.06-4.05-4.6-4.05c-2.56,0-4.61,1.82-4.61,4.05c0,2.25,2.05,4.05,4.61,4.05
			C294.91,293.05,296.97,291.25,296.97,289z M284.51,286.19c2.45-1.54,5.31-2.45,8.11-2.52c2.44-0.05,4.72,0.45,6.84,1.36
			l-0.27,0.66c0.82,1.15,0.67,1.54,0.67,3.04c0,3.99-3.39,7.23-7.56,7.23c-4.18,0-7.56-3.24-7.56-7.23c0-1.11-0.32-1.01,0.15-1.94
			L284.51,286.19z"/>
		<path style="fill:#FFFFFF;" d="M284.74,288.73c0,3.99,3.38,7.23,7.56,7.23c4.17,0,7.56-3.24,7.56-7.23c0-1.5,0.15-1.89-0.67-3.04
			l0.27-0.66c2.81,1.19,5.33,3.11,7.49,5.39l-0.17,0.15c-2.98,2.76-6.43,5.22-10.4,6.64c-2.41,0.86-5.73,1.01-8.26,0.5
			c-1.06-0.22-2.37-0.49-3.36-0.95c-0.83-0.37-1.54-1.26-2.32-1.64c-1.14-0.53-2.45-0.06-3.53-0.72c-1.26-0.79-0.3-1.68,0.42-2.97
			c1.19-2.11,3.03-3.92,5.18-5.24l0.38,0.6C284.42,287.72,284.74,287.62,284.74,288.73z"/>
		<path style="fill:#FFFFFF;" d="M222.43,288.73c0,3.99,3.4,7.23,7.58,7.23c4.17,0,7.57-3.24,7.57-7.23c0-1.11,0.3-1.01-0.17-1.94
			l0.38-0.6c2.16,1.32,4,3.13,5.19,5.24c0.72,1.29,1.68,2.18,0.42,2.97c-1.09,0.66-2.39,0.19-3.55,0.72
			c-0.77,0.38-1.48,1.27-2.31,1.64c-0.99,0.46-2.3,0.73-3.37,0.95c-2.52,0.51-5.83,0.36-8.24-0.5c-3.98-1.42-7.42-3.88-10.41-6.64
			l-0.17-0.15c2.17-2.28,4.68-4.2,7.49-5.39l0.27,0.66C222.29,286.84,222.43,287.23,222.43,288.73z"/>
		<path style="fill:#EE947D;" d="M246.53,352.3c5.28,1.54,12.88,0.92,18.68,0.44c0.7-0.06,1.37-0.12,2.01-0.17
			c5.98-0.48,10.9-0.52,19.34-4.33c-3.04,4.95-6.22,10.16-11.6,12.54c-7.32,3.24-15.14,2.6-21.15-2.38
			c-2.23-1.84-5.7-4.02-7.29-6.09L246.53,352.3z"/>
		<path style="fill:#EE947D;" d="M259.78,346.14c1.64,0.38,4.07,1.96,5.55,1.34c-0.13,0.31-0.22,0.66-0.26,1.03l0.14,4.23
			c-5.8,0.48-13.4,1.1-18.68-0.44l-0.01,0.01c-1.53-2.02-1.3-3.93,3.55-5.34C253.08,346.1,256.69,345.41,259.78,346.14z"/>
		<path style="fill:#EE947D;" d="M288.69,344.85c-0.72,1.09-1.42,2.23-2.13,3.39c-8.44,3.81-13.36,3.85-19.34,4.33
			c-0.64,0.05-1.31,0.11-2.01,0.17l-0.14-4.23c0.04-0.37,0.13-0.72,0.26-1.03C267.71,341.48,284.27,345.3,288.69,344.85z"/>
		<path style="fill:#FFEEC8;" d="M250.83,399.76v-0.01c-0.16-5.33-1.01-12.22-4.86-15.66c1.46,1.13,2.88,2.26,4.24,3.41
			c11.12,9.41,27.39,4.69,40.32,3.11c17.21-2.09,23.86-20.39,35.83-30.76c5.2-4.5,10.78-9.15,13.61-15.05l0.49,0.24
			c-0.12,7.29,10.26,48.76,10.26,48.76c4.13,4.78,10.38,9.42,18.19,14.22c0,17.14-11.8,35.8-29.27,48.94
			c-13.83,10.41-31.21,17.36-49.1,17.36c-24.09,0-45.47-8.82-58.82-22.431c-4.09-4.159-7.42-8.76-9.85-13.699
			c9.47-7.57,18.79-15.181,21.36-17.311C250.51,414.87,250.83,410.55,250.83,399.76z"/>
		<path style="fill:#FFEEC8;" d="M306.95,290.42c-2.16-2.28-4.68-4.2-7.49-5.39c-2.12-0.91-4.4-1.41-6.84-1.36
			c-2.8,0.07-5.66,0.98-8.11,2.52c-2.15,1.32-3.99,3.13-5.18,5.24c-0.72,1.29-1.68,2.18-0.42,2.97c1.08,0.66,2.39,0.19,3.53,0.72
			c0.78,0.38,1.49,1.27,2.32,1.64c0.99,0.46,2.3,0.73,3.36,0.95c2.53,0.51,5.85,0.36,8.26-0.5c3.97-1.42,7.42-3.88,10.4-6.64
			L306.95,290.42z M286.56,348.24c0.71-1.16,1.41-2.3,2.13-3.39c-4.42,0.45-20.98-3.37-23.36,2.63c-1.48,0.62-3.91-0.96-5.55-1.34
			c-3.09-0.73-6.7-0.04-9.71,0.83c-4.85,1.41-5.08,3.32-3.55,5.34c1.59,2.07,5.06,4.25,7.29,6.09c6.01,4.98,13.83,5.62,21.15,2.38
			C280.34,358.4,283.52,353.19,286.56,348.24z M206.78,276.93c2.58-5.81,6.54-10.98,11.51-14.63c4.25-3.11,25.23-16.43,40.51-24.65
			l-0.2-2.74c8.95-0.66,18.83-0.8,29.72-0.24c0.63,0.03,1.26,0.07,1.89,0.11l-0.01,0.11c12.07,12.73,36.23,37.63,46.84,48.24
			c15.55,15.56,4.98,53.72,4.64,56.07c-0.27,2-0.87,3.85-1.71,5.6c-2.83,5.9-8.41,10.55-13.61,15.05
			c-11.97,10.37-18.62,28.67-35.83,30.76c-12.93,1.58-29.2,6.3-40.32-3.11c-1.36-1.15-2.78-2.28-4.24-3.41
			c-0.02-0.02-0.05-0.04-0.08-0.06c-0.24-0.21-0.48-0.4-0.74-0.58c-0.04-0.03-0.08-0.06-0.13-0.09
			c-5.69-4.39-11.75-8.83-16.07-14.27c-3.58-4.51-21.63-25.57-21.63-43.86c0-16.67-3.69-20.66-3.97-31.73
			C203.22,287.89,204.44,282.15,206.78,276.93z M215.35,290.42l0.17,0.15c2.99,2.76,6.43,5.22,10.41,6.64
			c2.41,0.86,5.72,1.01,8.24,0.5c1.07-0.22,2.38-0.49,3.37-0.95c0.83-0.37,1.54-1.26,2.31-1.64c1.16-0.53,2.46-0.06,3.55-0.72
			c1.26-0.79,0.3-1.68-0.42-2.97c-1.19-2.11-3.03-3.92-5.19-5.24c-2.45-1.54-5.31-2.45-8.11-2.52c-2.44-0.05-4.72,0.45-6.84,1.36
			C220.03,286.22,217.52,288.14,215.35,290.42z"/>
		<path style="fill:#FFEEC8;" d="M630.4,258.25c0.02,0.23,0.02,0.47,0.02,0.7c0,15.72-18.5,28.45-41.32,28.45
			c-22.81,0-41.31-12.73-41.31-28.45c0-0.34,0.01-0.68,0.03-1.01c5.22-0.55,9.12-2.1,11.09-7.4c3.46-9.32,2.609-26.31,3.479-33.73
			c1.061,1.85,2.24,3.46,3.54,4.76c6.36,6.36,13.46,6.03,20.561,6.03c7.109,0,14.21,0.33,20.569-6.03c1.301-1.3,2.48-2.91,3.54-4.76
			c0.881,7.42,0.021,24.41,3.48,33.73C616.67,257.49,622.56,257.99,630.4,258.25z"/>
		<path style="fill:#FFEEC8;" d="M607.11,163.46c0-0.83-0.75-1.5-1.681-1.5c-0.92,0-1.68,0.67-1.68,1.5c0,0.82,0.76,1.49,1.68,1.49
			C606.36,164.95,607.11,164.28,607.11,163.46z M572.77,163.32c0-0.82-0.75-1.49-1.68-1.49c-0.92,0-1.68,0.67-1.68,1.49
			c0,0.83,0.76,1.5,1.68,1.5C572.02,164.82,572.77,164.15,572.77,163.32z M596.8,199.84c-3.649-2.64-5.99-5.98-10.8-2.06
			c-4.55-3.45-6.86-0.21-10.42,2.35c-0.66,0.48-1.6,1.2-2.66,2.04c-3.31,2.6-7.86,6.34-9.24,7.52l-1.76,0.11
			c-1.62-1.11-2.76-1.84-3.55-2.32c-5.74-17.47-6.48-41.65-6.48-41.65s-2.109-18.12,10.971-30.94
			c11.189-10.98,23.59-11.42,23.59-11.42h0.2v0.67c0,0,12.399,0.44,23.59,11.41c11.35,11.13,11.21,25.23,11.05,30.05
			c0,0-0.82,23.87-6.47,41.36c-1.17,0.72-2.91,1.87-5.431,3.64l-0.56-0.8c-1.36-1.16-5.87-5.03-9.2-7.75
			c-0.02-0.01-0.03-0.02-0.05-0.03l-0.01-0.01C598.46,201.1,597.48,200.33,596.8,199.84z"/>
		<path style="fill:#9E5C26;" d="M580.42,199.84c3.78,1.59,5.42-0.69,5.86-1.49c0.63,0.94,2.31,2.62,5.689,1.2
			c1.771-0.74,4.7,0.58,7.601,2.46l0.01,0.01c0.02,0.01,0.03,0.02,0.05,0.03c3.33,2.72,7.84,6.59,9.2,7.75l0.56,0.8
			c-1.87,1.31-4.159,2.97-6.96,5.06c-4.649,3.48-10.43,5.22-16.199,5.22c-5.78,0-11.561-1.74-16.2-5.22
			c-3.54-2.65-6.17-4.53-8.11-5.86l1.76-0.11c1.38-1.18,5.931-4.92,9.24-7.52C575.81,200.35,578.68,199.12,580.42,199.84z"/>
		<path style="fill:#9E5C26;" d="M558.37,207.48c0.79,0.48,1.93,1.21,3.55,2.32c1.94,1.33,4.57,3.21,8.11,5.86
			c4.64,3.48,10.42,5.22,16.2,5.22c5.77,0,11.55-1.74,16.199-5.22c2.801-2.09,5.09-3.75,6.96-5.06c2.521-1.77,4.261-2.92,5.431-3.64
			c-1.181,3.66-2.57,7.03-4.221,9.85c-1.06,1.85-2.239,3.46-3.54,4.76c-6.359,6.36-13.46,6.03-20.569,6.03
			c-7.101,0-14.2,0.33-20.561-6.03c-1.3-1.3-2.479-2.91-3.54-4.76C560.83,214.13,559.5,210.93,558.37,207.48z"/>
		<path style="fill:#9E5C26;" d="M586.45,109.43v14.04c0,0-12.4,0.44-23.59,11.42c-13.08,12.82-10.971,30.94-10.971,30.94
			s0.74,24.18,6.48,41.65c1.13,3.45,2.46,6.65,4.02,9.33c-0.87,7.42-0.02,24.41-3.479,33.73c-1.97,5.3-5.87,6.85-11.09,7.4
			c-2.13,0.22-4.471,0.28-6.99,0.37c-6.42,0.2-14,0.55-22.09,4.08c-2.23,0.97-2.05-4.86-0.37-11.51
			c1.49-5.93,4.17-12.51,7.399-15.49c6.37-5.87,6.971-11.97,7-18.87c0.021-5.48-0.319-11.46,1.561-18.21
			c1.57-5.67-2.07-15.61,1.75-21.29c6.37-9.44,5.27-17.01,5.27-17.01C541.35,132.08,561.54,109.43,586.45,109.43z"/>
		<path style="fill:#9E5C26;" d="M586.45,123.47v-14.04c0.03,0,0.06,0,0.09,0c0.75,0,1.49,0.02,2.229,0.07
			c23.87,1.3,42.87,23.42,42.87,50.51c0,0-1.1,7.57,5.261,17.01c3.83,5.68,0.189,15.62,1.76,21.29c2.05,7.38,1.45,13.84,1.58,19.73
			c0.13,6.28,1.09,11.91,6.979,17.35c2.8,2.59,5.19,7.9,6.761,13.14c2.239,7.54,2.76,14.95,0.26,13.86
			c-6.41-2.8-12.5-3.6-17.95-3.91c-2.06-0.12-4.03-0.17-5.89-0.23c-7.841-0.26-13.73-0.76-16.32-7.71
			c-3.46-9.32-2.6-26.31-3.48-33.73c1.65-2.82,3.04-6.19,4.221-9.85c5.649-17.49,6.47-41.36,6.47-41.36
			c0.16-4.82,0.3-18.92-11.05-30.05c-11.19-10.97-23.59-11.41-23.59-11.41v-0.67H586.45z"/>
		<path style="fill:#FFFFFF;" d="M339.64,456.96V773.8H230.27V452.57l1.45-0.681c13.35,13.61,34.73,22.431,58.82,22.431
			C308.43,474.32,325.81,467.37,339.64,456.96z"/>
		<path style="fill:#9E5C26;" d="M206.78,276.93c-2.34,5.22-3.56,10.96-3.43,16.57c0.28,11.07,3.97,15.06,3.97,31.73
			c0,18.29,18.05,39.35,21.63,43.86c4.32,5.44,10.38,9.88,16.07,14.27c0.05,0.03,0.09,0.06,0.13,0.09c0.25,0.2,0.5,0.39,0.74,0.58
			c0.03,0.02,0.06,0.04,0.08,0.06c3.85,3.44,4.7,10.33,4.86,15.66v0.01c0,10.79-0.32,15.11-7.6,21.12
			c-2.57,2.13-11.89,9.74-21.36,17.311c-9.92,7.949-19.99,15.85-22.6,17.38c-2.09-8.87-10.8-14.181-17.28-22.08
			c-6.07-7.38-10.19-17.02-5.12-33.96c2.75-9.15,5.48-20.28,7.39-25.19c7.39-18.91,0.77-76.05,0.17-84.4
			c-0.48-6.6-1.01-13.49-1-20.3c0.61-2.91,1.21-5.74,1.83-8.49c3.12-3.21,23.92-22.6,73.34-26.24l0.2,2.74
			c-15.28,8.22-36.26,21.54-40.51,24.65C213.32,265.95,209.36,271.12,206.78,276.93z"/>
		<path style="fill:#0D72BA;" d="M184.43,289.94c0.6,8.35,7.22,65.49-0.17,84.4c-1.91,4.91-4.64,16.04-7.39,25.19
			c-5.07,16.94-0.95,26.581,5.12,33.96l-1.92,1.13c-3.45,2.479-7.51,5.74-11.3,8.97c-3.79,3.22-7.29,6.41-9.61,8.72
			c0,0,9.86-112.939,24.27-182.669C183.42,276.45,183.95,283.34,184.43,289.94z"/>
		<path style="fill:#0D72BA;" d="M231.72,451.89l-1.45,0.681V773.8H83.6c0,0,3.86-95.88,12.34-142.31
			c23.55-129,63.22-179.181,63.22-179.181c2.32-2.31,5.82-5.5,9.61-8.72c3.79-3.229,7.85-6.49,11.3-8.97l1.92-1.13
			c6.48,7.899,15.19,13.21,17.28,22.08c2.61-1.53,12.68-9.431,22.6-17.38C224.3,443.13,227.63,447.73,231.72,451.89z"/>
		<path style="fill:#0D72BA;" d="M444.98,452.4c0.3,0.3,0.619,0.619,0.939,0.939c0,0,40.4,61.49,50.49,175.92
			c4.97,56.24,8.38,117.62,8.38,144.54h-50.41H339.64V456.96c17.47-13.14,29.27-31.8,29.27-48.94
			c12.25,7.53,28.34,15.45,46.08,24.98l1.64-3.03c7.53,4.74,12.11,7.851,15.99,10.95C436.65,444.14,439.94,447.37,444.98,452.4z"/>
		<path style="fill:#231F20;" d="M292.37,287.2c0.92,0,1.66,0.81,1.66,1.8c0,1-0.74,1.81-1.66,1.81c-0.91,0-1.66-0.81-1.66-1.81
			C290.71,288.01,291.46,287.2,292.37,287.2z"/>
		<path style="fill:#231F20;" d="M292.37,290.81c0.92,0,1.66-0.81,1.66-1.81c0-0.99-0.74-1.8-1.66-1.8c-0.91,0-1.66,0.81-1.66,1.8
			C290.71,290,291.46,290.81,292.37,290.81z M292.37,284.95c2.54,0,4.6,1.82,4.6,4.05c0,2.25-2.06,4.05-4.6,4.05
			c-2.56,0-4.61-1.8-4.61-4.05C287.76,286.77,289.81,284.95,292.37,284.95z"/>
		<path style="fill:#231F20;" d="M229.93,290.81c-0.91,0-1.65-0.81-1.65-1.81c0-0.99,0.74-1.8,1.65-1.8c0.92,0,1.65,0.81,1.65,1.8
			C231.58,290,230.85,290.81,229.93,290.81z"/>
		<path style="fill:#231F20;" d="M229.93,287.2c-0.91,0-1.65,0.81-1.65,1.8c0,1,0.74,1.81,1.65,1.81c0.92,0,1.65-0.81,1.65-1.81
			C231.58,288.01,230.85,287.2,229.93,287.2z M225.33,289c0-2.23,2.05-4.05,4.6-4.05c2.56,0,4.63,1.82,4.63,4.05
			c0,2.25-2.07,4.05-4.63,4.05C227.38,293.05,225.33,291.25,225.33,289z"/>
	</g>
	<g>
		<path style="fill:none;stroke:#231F20;stroke-width:14;stroke-miterlimit:10;" d="M654.45,248.38
			c13.689,3.97,30.109,13.78,36.58,19.29c1.22,1.04,2.09,1.93,2.52,2.59c3.5,5.45,33.521,117.69,35.851,135.23"/>
		<path style="fill:none;stroke:#231F20;stroke-width:14;stroke-miterlimit:10;" d="M636.26,256.23c0,0,0.01,0.8,0.03,2.25
			c0.16,11.92,0.68,68.05-3.15,88.55c-4.279,22.99-12.08,51.41-25.319,68.98c-1.48,1.96-3.101,3.96-4.79,5.94
			c-0.75,0.87-1.511,1.73-2.28,2.59"/>
		<path style="fill:none;stroke:#231F20;stroke-width:14;stroke-miterlimit:10;" d="M630.36,257.43c0.02,0.28,0.04,0.55,0.04,0.82
			c0.02,0.23,0.02,0.47,0.02,0.7c0,15.72-18.5,28.45-41.32,28.45c-22.81,0-41.31-12.73-41.31-28.45c0-0.34,0.01-0.68,0.03-1.01
			c0.02-0.31,0.04-0.62,0.069-0.93"/>
		<path style="fill:none;stroke:#231F20;stroke-width:14;stroke-miterlimit:10;" d="M690.83,267.91c0,1.17-16.561,78.42-21.44,95.49
			c-6.52,22.82-18.77,44.28-28.529,56.15c-1.91,2.33-3.721,4.28-5.38,5.81"/>
		<path style="fill:none;stroke:#231F20;stroke-width:14;stroke-miterlimit:10;" d="M519.5,250.48c-0.38,0.13-0.76,0.26-1.13,0.4
			c-13.4,4.76-26.59,12.29-32.23,16.83c-1.27,1.03-2.149,1.9-2.569,2.55c-3.511,5.45-33.91,107.29-35.86,138.35
			c-0.56,8.99-1.27,20.371-1.83,29.38c-0.439,6.939-0.78,12.46-0.899,14.41c-0.03,0.489-0.051,0.76-0.051,0.76"/>
		<path style="fill:none;stroke:#231F20;stroke-width:14;stroke-miterlimit:10;" d="M540.86,256.23c0,0-0.011,0.74-0.03,2.08
			c-0.16,11.56-0.7,68.13,3.15,88.72c4.279,22.99,12.079,51.41,25.329,68.98c1.86,2.47,3.931,4.98,6.12,7.47
			c0.311,0.35,0.62,0.71,0.94,1.06"/>
		<path style="fill:none;stroke:#231F20;stroke-width:14;stroke-miterlimit:10;" d="M486.3,267.91c0,1.17,16.561,78.42,21.44,95.49
			c7.79,27.28,23.77,52.61,33.899,61.96"/>
		<polyline style="fill:none;stroke:#231F20;stroke-width:18.9036;" points="588.69,307.95 588.69,327.95 588.69,369.5 		"/>
		<polyline style="fill:none;stroke:#231F20;stroke-width:18.9036;" points="568.71,327.95 588.69,327.95 608.72,327.95 		"/>
		<path style="fill:none;stroke:#231F20;stroke-width:3;stroke-linecap:square;stroke-miterlimit:10;" d="M561.27,165.41
			c2.431-2.93,5.721-5.18,9.641-5.1c3.229,0.08,6.58,2,8.149,4.77"/>
		<path style="fill:none;stroke:#231F20;stroke-width:3;stroke-linecap:square;stroke-miterlimit:10;" d="M575.75,163.41
			c0,2.45-2.08,4.44-4.64,4.44c-2.57,0-4.65-1.99-4.65-4.44c0-0.61-0.04-0.91,0.08-1.25"/>
		<path style="fill:none;stroke:#231F20;stroke-width:3;stroke-miterlimit:10;" d="M572.77,163.32c0,0.83-0.75,1.5-1.68,1.5
			c-0.92,0-1.68-0.67-1.68-1.5c0-0.82,0.76-1.49,1.68-1.49C572.02,161.83,572.77,162.5,572.77,163.32z"/>
		<path style="fill:none;stroke:#231F20;stroke-width:6.3012;" d="M581.83,157.76c-1.98-4.17-9.73-5.79-13.65-5.01
			c-3.689,0.73-5.52,1.18-9.37,4.16"/>
		<path style="fill:none;stroke:#231F20;stroke-width:3;stroke-linecap:square;stroke-miterlimit:10;" d="M595.61,165.54
			c2.42-2.94,5.72-5.18,9.64-5.1c3.23,0.08,6.59,2,8.15,4.76"/>
		<path style="fill:none;stroke:#231F20;stroke-width:3;stroke-linecap:square;stroke-miterlimit:10;" d="M610.09,163.54
			c0,2.45-2.08,4.44-4.64,4.44c-2.561,0-4.65-1.99-4.65-4.44c0-0.61-0.04-0.91,0.08-1.26"/>
		<path style="fill:none;stroke:#231F20;stroke-width:3;stroke-miterlimit:10;" d="M607.11,163.46c0,0.82-0.75,1.49-1.681,1.49
			c-0.92,0-1.68-0.67-1.68-1.49c0-0.83,0.76-1.5,1.68-1.5C606.36,161.96,607.11,162.63,607.11,163.46z"/>
		<path style="fill:none;stroke:#231F20;stroke-width:6.3012;" d="M616.17,157.89c-1.979-4.17-9.74-5.8-13.66-5.01
			c-3.68,0.73-5.52,1.18-9.359,4.16"/>
		<path style="fill:none;stroke:#231F20;stroke-width:3;stroke-miterlimit:10;" d="M585.24,167.95c0,0,1.319,15.43-0.65,19.39
			c0,0-0.45,7.02,8.33,1.53"/>
		<path style="fill:none;stroke:#231F20;stroke-width:7;stroke-miterlimit:10;" d="M586.54,109.43c-0.03,0-0.06,0-0.09,0
			c-24.91,0-45.101,22.65-45.101,50.58c0,0,1.101,7.57-5.27,17.01c-3.82,5.68-0.18,15.62-1.75,21.29
			c-1.88,6.75-1.54,12.73-1.561,18.21c-0.029,6.9-0.63,13-7,18.87c-3.229,2.98-5.909,9.56-7.399,15.49
			c-1.68,6.65-1.86,12.48,0.37,11.51c8.09-3.53,15.67-3.88,22.09-4.08c2.52-0.09,4.86-0.15,6.99-0.37c5.22-0.55,9.12-2.1,11.09-7.4
			c3.46-9.32,2.609-26.31,3.479-33.73c0.011-0.1,0.021-0.2,0.03-0.29"/>
		<path style="fill:none;stroke:#231F20;stroke-width:7;stroke-miterlimit:10;" d="M631.54,160.01c0-27.06-18.95-49.16-42.771-50.51
			"/>
		<path style="fill:none;stroke:#231F20;stroke-width:7;stroke-miterlimit:10;" d="M576.24,204.82c0,0,8.779,4.83,21.29,0"/>
		<path style="fill:none;stroke:#231F20;stroke-width:7;stroke-miterlimit:10;" d="M586.65,110.09v13.38v0.67
			c0,0,12.399,0.44,23.59,11.41c11.35,11.13,11.21,25.23,11.05,30.05c0,0-0.82,23.87-6.47,41.36c-1.181,3.66-2.57,7.03-4.221,9.85
			c-1.06,1.85-2.239,3.46-3.54,4.76c-6.359,6.36-13.46,6.03-20.569,6.03c-7.101,0-14.2,0.33-20.561-6.03
			c-1.3-1.3-2.479-2.91-3.54-4.76c-1.56-2.68-2.89-5.88-4.02-9.33c-5.74-17.47-6.48-41.65-6.48-41.65s-2.109-18.12,10.971-30.94
			c11.189-10.98,23.59-11.42,23.59-11.42v-14.04"/>
		<path style="fill:none;stroke:#231F20;stroke-width:7;stroke-miterlimit:10;" d="M586.54,109.43c0.75,0,1.49,0.02,2.229,0.07
			c23.87,1.3,42.87,23.42,42.87,50.51c0,0-1.1,7.57,5.261,17.01c3.83,5.68,0.189,15.62,1.76,21.29c2.05,7.38,1.45,13.84,1.58,19.73
			c0.13,6.28,1.09,11.91,6.979,17.35c2.8,2.59,5.19,7.9,6.761,13.14c2.239,7.54,2.76,14.95,0.26,13.86
			c-6.41-2.8-12.5-3.6-17.95-3.91c-2.06-0.12-4.03-0.17-5.89-0.23c-7.841-0.26-13.73-0.76-16.32-7.71
			c-3.46-9.32-2.6-26.31-3.48-33.73c-0.01-0.1-0.02-0.2-0.029-0.29"/>
		<path style="fill:none;stroke:#231F20;stroke-width:14;stroke-miterlimit:10;" d="M532.57,216.52
			c-15.931-14.71-25.891-35.71-25.891-59.03c0-44.48,36.25-80.54,80.971-80.54c44.729,0,80.979,36.06,80.979,80.54
			c0,23.64-11.51,45.81-27.82,60.54"/>
		<line style="fill:none;stroke:#231F20;stroke-width:14;stroke-miterlimit:10;" x1="448.9" y1="84.27" x2="507.42" y2="111.19"/>
		<line style="fill:none;stroke:#231F20;stroke-width:14;stroke-miterlimit:10;" x1="451.99" y1="235.49" x2="503.16" y2="196.38"/>
		<line style="fill:none;stroke:#231F20;stroke-width:14;stroke-miterlimit:10;" x1="407.35" y1="162.1" x2="494.43" y2="152.1"/>
		<line style="fill:none;stroke:#231F20;stroke-width:14;stroke-miterlimit:10;" x1="728.03" y1="83.1" x2="669.51" y2="110.02"/>
		<line style="fill:none;stroke:#231F20;stroke-width:14;stroke-miterlimit:10;" x1="724.94" y1="234.32" x2="673.76" y2="195.21"/>
		<line style="fill:none;stroke:#231F20;stroke-width:14;stroke-miterlimit:10;" x1="769.58" y1="160.93" x2="682.5" y2="150.93"/>
		<path style="fill:none;stroke:#231F20;stroke-width:7;stroke-miterlimit:10;" d="M563.68,209.69c1.38-1.18,5.931-4.92,9.24-7.52
			c1.061-0.84,2-1.56,2.66-2.04c3.56-2.56,5.87-5.8,10.42-2.35c0.13,0.09,0.27,0.2,0.41,0.31c0,0-0.04,0.1-0.13,0.26
			c-0.44,0.8-2.08,3.08-5.86,1.49c-1.74-0.72-4.61,0.51-7.5,2.33c-4.689,2.93-9.43,7.36-9.43,7.36"/>
		<path style="fill:none;stroke:#231F20;stroke-width:7;stroke-miterlimit:10;" d="M599.63,202.05c4.5,2.94,8.94,7.21,8.94,7.21"/>
		<path style="fill:none;stroke:#231F20;stroke-width:7;stroke-miterlimit:10;" d="M608.83,209.8c-1.36-1.16-5.87-5.03-9.26-7.79
			l0.01,0.01c0.02,0.01,0.03,0.02-0.01-0.01c-1.11-0.91-2.09-1.68-2.771-2.17c-3.649-2.64-5.99-5.98-10.8-2.06
			c-0.01,0-0.02,0.01-0.03,0.02c0,0,0.09,0.23,0.311,0.55c0.63,0.94,2.31,2.62,5.689,1.2c1.771-0.74,4.7,0.58,7.601,2.46"/>
		<path style="fill:none;stroke:#231F20;stroke-width:7;stroke-miterlimit:10;" d="M616.87,205.78c0,0-0.55,0.25-2.05,1.18
			c-1.17,0.72-2.91,1.87-5.431,3.64c-1.87,1.31-4.159,2.97-6.96,5.06c-4.649,3.48-10.43,5.22-16.199,5.22
			c-5.78,0-11.561-1.74-16.2-5.22c-3.54-2.65-6.17-4.53-8.11-5.86c-1.62-1.11-2.76-1.84-3.55-2.32c-1.3-0.78-1.66-0.89-1.66-0.89"/>
		<path style="fill:none;stroke:#231F20;stroke-width:14;" d="M83.6,773.8c0,0,3.86-95.88,12.34-142.31
			c23.55-129,63.22-179.181,63.22-179.181c2.32-2.31,5.82-5.5,9.61-8.72c3.79-3.229,7.85-6.49,11.3-8.97"/>
		<path style="fill:none;stroke:#231F20;stroke-width:14;" d="M504.79,773.8c0-26.92-3.41-88.3-8.38-144.54
			c-10.09-114.43-50.49-175.92-50.49-175.92c-0.32-0.32-0.64-0.64-0.939-0.939c-5.04-5.03-8.33-8.261-12.36-11.48
			c-3.88-3.1-8.46-6.21-15.99-10.95c-0.78-0.489-1.59-0.989-2.43-1.52"/>
		<path style="fill:none;stroke:#231F20;stroke-width:12.6024;" d="M250.83,399.76c0.02,0.82,0.03,1.6,0.03,2.33"/>
		<path style="fill:none;stroke:#231F20;stroke-width:12.6024;" d="M245.97,384.09c3.85,3.44,4.7,10.33,4.86,15.66"/>
		<path style="fill:none;stroke:#231F20;stroke-width:12.6024;" d="M245.15,383.45c0.26,0.18,0.5,0.37,0.74,0.58"/>
		<path style="fill:none;stroke:#231F20;stroke-width:6.3012;" d="M272.68,279.4c6.42-10.66,21.97-12.36,30.89-8.89
			c4.78,1.87,7.68,4.09,8.94,5.34"/>
		<path style="fill:none;stroke:#231F20;stroke-width:6.3012;" d="M239.09,275.46c-8.46-7.53-24.93-6.4-32.31,1.47
			c-0.4,0.42-0.77,0.87-1.11,1.33"/>
		<path style="fill:none;stroke:#231F20;stroke-width:6.3012;" d="M249.67,281.72c9.3,6.95,4.37,30.48,2.03,37.5
			c-0.74,2.24-3.95,6.21-1.7,8.53c1.1,1.13,2.5,0.53,3.85,0.74c1.44,0.21,2.28,0.36,3.91,0.96c3.15,1.17,5.44,1.88,8.27-0.18
			c3.07-2.22,2.83-3.8,7.36-3.57c3.82,0.17,8.03,1.25,7.85-4.62c-0.14-4.04-3.18-3.99-5.35-6.83"/>
		<path style="fill:none;stroke:#231F20;stroke-width:4.7259;" d="M265.07,348.51c0.04-0.37,0.13-0.72,0.26-1.03
			c2.38-6,18.94-2.18,23.36-2.63c-0.72,1.09-1.42,2.23-2.13,3.39c-3.04,4.95-6.22,10.16-11.6,12.54c-7.32,3.24-15.14,2.6-21.15-2.38
			c-2.23-1.84-5.7-4.02-7.29-6.09c-1.53-2.02-1.3-3.93,3.55-5.34c3.01-0.87,6.62-1.56,9.71-0.83c1.64,0.38,4.07,1.96,5.55,1.34
			c0.24-0.1,0.45-0.26,0.64-0.5"/>
		<path style="fill:none;stroke:#231F20;stroke-width:4.7259;" d="M246.53,352.3c5.28,1.54,12.88,0.92,18.68,0.44
			c0.7-0.06,1.37-0.12,2.01-0.17c5.98-0.48,10.9-0.52,19.34-4.33l0.01-0.01"/>
		<path style="fill:none;stroke:#231F20;stroke-width:12.6024;" d="M290.2,234.89c12.07,12.73,36.23,37.63,46.84,48.24
			c15.55,15.56,4.98,53.72,4.64,56.07c-0.27,2-0.87,3.85-1.71,5.6c-2.83,5.9-8.41,10.55-13.61,15.05
			c-11.97,10.37-18.62,28.67-35.83,30.76c-12.93,1.58-29.2,6.3-40.32-3.11c-1.36-1.15-2.78-2.28-4.24-3.41
			c-0.02-0.02-0.05-0.04-0.08-0.06c-0.24-0.19-0.49-0.38-0.74-0.58c-0.04-0.03-0.08-0.06-0.13-0.09
			c-5.69-4.39-11.75-8.83-16.07-14.27c-3.58-4.51-21.63-25.57-21.63-43.86c0-16.67-3.69-20.66-3.97-31.73
			c-0.13-5.61,1.09-11.35,3.43-16.57c2.58-5.81,6.54-10.98,11.51-14.63c4.25-3.11,25.23-16.43,40.51-24.65"/>
		<path style="fill:none;stroke:#231F20;stroke-width:12.6024;" d="M195.77,232.14c-1.27,1.27-2.41,2.59-3.45,3.97
			c-7.08,9.46-8.87,21.35-8.89,33.53c-0.01,6.81,0.52,13.7,1,20.3c0.6,8.35,7.22,65.49-0.17,84.4c-1.91,4.91-4.64,16.04-7.39,25.19
			c-5.07,16.94-0.95,26.581,5.12,33.96c6.48,7.899,15.19,13.21,17.28,22.08c2.61-1.53,12.68-9.431,22.6-17.38
			c9.47-7.57,18.79-15.181,21.36-17.311c7.28-6.01,7.6-10.33,7.6-21.12v-0.01"/>
		<path style="fill:none;stroke:#231F20;stroke-width:12.6024;" d="M340.46,345.04c-0.12,7.29,10.26,48.76,10.26,48.76
			c4.13,4.78,10.38,9.42,18.19,14.22c12.25,7.53,28.34,15.45,46.08,24.98c0.75,0.4,1.5,0.81,2.26,1.22"/>
		<path style="fill:none;stroke:#231F20;stroke-width:4.7259;stroke-linecap:square;stroke-miterlimit:10;" d="M308.33,291.98
			c-0.44-0.54-0.9-1.06-1.38-1.56c-2.16-2.28-4.68-4.2-7.49-5.39c-2.12-0.91-4.4-1.41-6.84-1.36c-2.8,0.07-5.66,0.98-8.11,2.52
			c-2.15,1.32-3.99,3.13-5.18,5.24c-0.72,1.29-1.68,2.18-0.42,2.97c1.08,0.66,2.39,0.19,3.53,0.72c0.78,0.38,1.49,1.27,2.32,1.64
			c0.99,0.46,2.3,0.73,3.36,0.95c2.53,0.51,5.85,0.36,8.26-0.5c3.97-1.42,7.42-3.88,10.4-6.64"/>
		<path style="fill:none;stroke:#231F20;stroke-width:1.5753;stroke-linecap:square;stroke-miterlimit:10;" d="M284.89,286.79
			c-0.47,0.93-0.15,0.83-0.15,1.94c0,3.99,3.38,7.23,7.56,7.23c4.17,0,7.56-3.24,7.56-7.23c0-1.5,0.15-1.89-0.67-3.04"/>
		<path style="fill:none;stroke:#231F20;stroke-width:4.7259;stroke-linecap:square;stroke-miterlimit:10;" d="M213.97,291.98
			c0.44-0.54,0.91-1.06,1.38-1.56c2.17-2.28,4.68-4.2,7.49-5.39c2.12-0.91,4.4-1.41,6.84-1.36c2.8,0.07,5.66,0.98,8.11,2.52
			c2.16,1.32,4,3.13,5.19,5.24c0.72,1.29,1.68,2.18,0.42,2.97c-1.09,0.66-2.39,0.19-3.55,0.72c-0.77,0.38-1.48,1.27-2.31,1.64
			c-0.99,0.46-2.3,0.73-3.37,0.95c-2.52,0.51-5.83,0.36-8.24-0.5c-3.98-1.42-7.42-3.88-10.41-6.64"/>
		<path style="fill:none;stroke:#231F20;stroke-width:1.5753;stroke-linecap:square;stroke-miterlimit:10;" d="M237.41,286.79
			c0.47,0.93,0.17,0.83,0.17,1.94c0,3.99-3.4,7.23-7.57,7.23c-4.18,0-7.58-3.24-7.58-7.23c0-1.5-0.14-1.89,0.68-3.04"/>
		<path style="fill:none;stroke:#231F20;stroke-width:14;" d="M368.91,408.02c0,17.14-11.8,35.8-29.27,48.94
			c-13.83,10.41-31.21,17.36-49.1,17.36c-24.09,0-45.47-8.82-58.82-22.431c-4.09-4.159-7.42-8.76-9.85-13.699
			c0-0.011-0.01-0.011-0.01-0.021"/>
		<polyline style="fill:none;stroke:#231F20;stroke-width:14;" points="230.27,452.57 230.27,773.8 230.27,775.49 		"/>
		<polyline style="fill:none;stroke:#231F20;stroke-width:14;" points="339.64,455.95 339.64,456.96 339.64,773.8 		"/>
		<path style="fill:none;stroke:#231F20;stroke-width:14;" d="M159.16,452.31c0,0,9.86-112.939,24.27-182.669
			c0.61-2.91,1.21-5.74,1.83-8.49c0.96-4.28,1.94-8.36,2.94-12.18c1.19-4.56,2.57-8.84,4.12-12.86
			c24.74-64.16,91.79-61.18,91.79-61.18s61.12-5.49,88.84,84.12c1,3.24,1.96,6.61,2.87,10.11c25.34,97.24,39.55,158.18,39.55,158.18
			"/>
		<path style="fill:none;stroke:#231F20;stroke-width:14;" d="M184.84,261.59c0,0,0.14-0.16,0.42-0.44
			c3.12-3.21,23.92-22.6,73.34-26.24c8.95-0.66,18.83-0.8,29.72-0.24c0.63,0.03,1.26,0.07,1.89,0.11C337.92,237.73,368,258,368,258"
			/>
		<line style="fill:none;stroke:#231F20;stroke-width:14;" x1="454.38" y1="646.93" x2="454.38" y2="773.8"/>
	</g>
</g>
<rect style="fill:none;" width="850.394" height="850.394"/>
</svg>
