<svg xmlns="http://www.w3.org/2000/svg" width="850.394" height="850.394" viewBox="0 0 850.394 850.394" overflow="visible"><path d="M499.41 203.48h.02c.01.58.02 1.16-.02 0z" fill="#ffeec8"/><path d="M416.41 340.13c-5.35 2.01-8.78 3.17-8.78 3.17-40.84-1.33-79.9-25.73-113.95-40.5-21.13-9.15-42.18-18.58-63.42-27.49-22.76-9.52-53.36-10.97-78.18-3.42L152 268l17.07-149.85c31.71 5.88 104.88 15.76 132.89 11.53 33.08-4.99 56.75-12.56 89.62-23.08 2.99-.96 6.33-1.15 9.87-.82-.38 1.84-.57 3.72-.57 5.64 0 0-3.76 18.55-6.87 43.12-3.44 5.51-3.86 11.44-1.94 17.18 4.97 14.91 25.64 28.6 49.911 30.64 8.01.67 38.369-.08 57.43 1.12.04 1.16.03.58.02 0 7.09.45 12.62 1.17 14.84 2.33 8.19 4.28 17.91 21.89-4.319 29-1.15.37-2.42.74-3.79 1.12 9.52 6.13 11 21.43-.15 29.13-1.149.8-3.26 1.75-6.1 2.8l5.76 1.39c7.13 3.74 9.93 19.66-1.22 27.37-3.19 2.21-13.79 5.59-26.63 9.15-.66.18-1.32.37-1.99.55-8.712 13.41-43.052 27.62-59.422 33.81z" fill="#ffeec8"/><path d="M401.45 105.78c.93.09.5-.02.02-.1 3.4-16.52 21.27-29.12 42.81-29.12 23.96 0 43.39 15.61 43.39 34.86 0 0 .28 1.3.75 3.68 1.37 6.88 4.37 22.77 6.92 41.97 1.9 14.41 3.55 30.68 4.07 46.41-19.061-1.2-49.42-.45-57.43-1.12-24.271-2.04-44.94-15.73-49.911-30.64.58-5.93 1.24-11.7 1.94-17.18 3.11-24.57 6.87-43.12 6.87-43.12.001-1.92.191-3.8.571-5.64z" fill="#ff001c"/><path d="M401.47 105.68c.48.08.91.19-.02.1.01-.03.01-.07.02-.1z" fill="#ff001c"/><path d="M645.99 710.52l.02.19c-20.569 3.08-41.189 23.03-21.8 33.53 14.72 7.96 33.16-8.17 19.95-12.771 20.59 6.82-9.22 40.181-31.061 28.37-28.739-15.529 2.411-45.259 32.891-49.319zM706.21 669.52l.021.181c-20.671 3.1-41.37 23.149-21.9 33.7 14.8 8 33.33-8.21 20.05-12.841 20.69 6.86-9.26 40.381-31.21 28.511-28.871-15.601 2.419-45.481 33.039-49.551zM662.54 610.53l.03.18c-19.351 3.13-38.73 23.48-20.5 34.19 13.64 7.989 30.66-7.841 19.3-12.801 18.29 7.381-9.41 40.631-29.75 28.7-27.02-15.829 2.25-46.139 30.92-50.269zM272.16 648.19l.02.189c-21.89 3.28-43.81 24.51-23.19 35.67 15.67 8.47 35.28-8.689 21.23-13.58 21.9 7.261-9.81 42.75-33.05 30.181-30.56-16.51 2.57-48.14 34.99-52.46zM388.23 570.72c-28.08-15.17 2.34-44.229 32.14-48.2.47-.06.93-.119 1.4-.17l.02.16c-.47.05-.93.11-1.4.181-20.1 3.029-40.24 22.529-21.3 32.79 14.4 7.779 32.42-7.99 19.51-12.49 20.12 6.679-9.01 39.279-30.37 27.729zM501.96 592.26c-17.04 12.92-45.91-22.359-28.05-28.47l1.979.05c-4.81 6.32 7.53 19.38 17.591 11.75 15.13-11.46-1.711-33.55-17.74-36.02l.029-.17c23.571 3.5 48.441 36.01 26.191 52.86z" fill="#f6cc4b"/><path d="M445.54 772.87c-79.17 0-143.35-35.271-143.35-78.78 0-10.899 4.03-21.28 11.31-30.72 21.78-28.25 72.7-48.07 132.04-48.07 57.72 0 107.47 18.75 130.19 45.771 8.449 10.04 13.159 21.229 13.159 33.02 0 23.79-19.189 45.12-49.52 59.561-25.149 11.968-57.949 19.218-93.829 19.218zM442.11 418.39c-35.66-2.65-24.46-40.43-24.46-40.43s8.72 11.82 28.14 11.82v.02c19.42 0 28.13-11.81 28.13-11.81.67-.67 1.2-1.6 1.6-2.73v26.35s-.479 16.85-30.88 16.85v.06c-.87-.02-1.71-.07-2.53-.13z" fill="#c8c8c8"/><path d="M477.82 305.77c-1.62 5.74-5.88 20.49-5.88 27.19 0 0 7.59 31.14 3.579 42.3-.399 1.13-.93 2.06-1.6 2.73 0 0-8.71 11.81-28.13 11.81v-.02c-19.42 0-28.14-11.82-28.14-11.82-5.19-5.19-2.93-26.31-1.24-37.83 16.37-6.19 50.71-20.4 59.42-33.81.671-.18 1.331-.37 1.991-.55z" fill="#ff001c"/><path d="M501.46 115.86c31.95 4.57 23.67 21.23 20.55 27.37-5.149 10.18-17.47 12.87-26.67 13.84-2.55-19.2-5.55-35.09-6.92-41.97l5.57-.34c2.58.39 5.08.76 7.47 1.1z" fill="#ffeec8"/><g fill="none"><path d="M394.02 154.52c0 .01-.01.01-.01.02-3.44 5.51-3.86 11.44-1.94 17.18 4.97 14.91 25.64 28.6 49.911 30.64 8.01.67 38.369-.08 57.43 1.12h.02c7.09.45 12.62 1.17 14.84 2.33 8.19 4.28 17.91 21.89-4.319 29-1.15.37-2.42.74-3.79 1.12-25.15 6.97-84.99 15.7-84.99 15.7l-82.08-42.52M493.99 114.76c2.58.39 5.08.76 7.47 1.1 31.95 4.57 23.67 21.23 20.55 27.37-5.149 10.18-17.47 12.87-26.67 13.84l-.88.09M166.1 117.59c.94.18 1.93.37 2.97.56 31.71 5.88 104.88 15.76 132.89 11.53 33.08-4.99 56.75-12.56 89.62-23.08 2.99-.96 6.33-1.15 9.87-.82.93.09.5-.02.02-.1-.51-.08-1.09-.14-.02.1" stroke="#231f20" stroke-width="21"/><path d="M347.01 254.88l69.35 34.87s62.22-13.94 83.55-21.89c2.84-1.05 4.95-2 6.1-2.8 11.15-7.7 9.67-23 .15-29.13 0-.01-.01-.01-.01-.01" stroke="#231f20" stroke-width="21"/><path d="M359.22 297.97l55.58 23.34s34.59-7.75 61.03-14.99c.67-.18 1.33-.37 1.99-.55 12.84-3.56 23.439-6.94 26.63-9.15 11.149-7.71 8.35-23.63 1.22-27.37" stroke="#231f20" stroke-width="21"/><path d="M149.97 272.56c.7-.23 1.4-.45 2.11-.67 24.82-7.55 55.42-6.1 78.18 3.42 21.24 8.91 42.29 18.34 63.42 27.49 34.05 14.77 73.11 39.17 113.95 40.5 0 0 3.43-1.16 8.78-3.17 16.37-6.19 50.71-20.4 59.42-33.81l.06-.09M575.73 661.07c8.449 10.04 13.159 21.229 13.159 33.02 0 23.79-19.189 45.12-49.52 59.561-25.15 11.97-57.95 19.22-93.83 19.22-79.17 0-143.35-35.271-143.35-78.78 0-10.899 4.03-21.28 11.31-30.72 21.78-28.25 72.7-48.07 132.04-48.07C503.26 615.3 553.01 634.05 575.73 661.07z" stroke="#231f20" stroke-width="21"/><path stroke="#231f20" stroke-width="21" stroke-linecap="round" stroke-linejoin="round" d="M342.41 639.38l23.93 23.94-19.61 19.6M381.05 639.38l23.94 23.94-19.61 19.6M417.15 639.38l23.94 23.94-19.61 19.6M451.99 639.38l23.92 23.94-19.61 19.6M489.78 639.13l23.93 23.94-19.61 19.6M526.42 639.06l23.94 23.93-19.61 19.61M544.25 710.68l-23.92 23.94 19.04 19.03.57.57M505.61 710.68l-23.93 23.94 19.61 19.6M469.51 710.68l-23.93 23.94 19.61 19.6M434.68 710.68l-23.93 23.94 19.61 19.6M396.88 710.43l-23.93 23.94 19.62 19.6M360.24 710.36l-23.93 23.93 19.61 19.6M441.76 423.06s-78.12 44.84-89.39 56.11c-11.28 11.28-47.52 43.49-47.52 79.73 0 27.17 3.92 74.069 8.65 104.47 1.59 10.149 3.26 18.46 4.91 23.58M446.93 424.33s.04.02.13.07c3.5 2.01 78.25 45.03 89.271 56.041 11.27 11.279 47.51 43.489 47.51 79.729 0 26.13-3.62 70.51-8.109 100.9-1.74 11.77-3.601 21.449-5.44 27.149"/><path d="M416.41 340.11v.02c-1.69 11.52-3.95 32.64 1.24 37.83 0 0 8.72 11.82 28.14 11.82M499.41 203.48v-.66s.01.06 0 .16c.01.13.02.31.02.5.01.58.02 1.16-.02 0-.521-15.73-2.17-32-4.07-46.41-2.55-19.2-5.55-35.09-6.92-41.97-.47-2.38-.75-3.68-.75-3.68 0-19.25-19.43-34.86-43.39-34.86-21.54 0-39.41 12.6-42.81 29.12-.01.03-.01.07-.02.1-.38 1.84-.57 3.72-.57 5.64 0 0-3.76 18.55-6.87 43.12-.7 5.48-1.36 11.25-1.94 17.18M445.79 389.8c19.42 0 28.13-11.81 28.13-11.81.67-.67 1.2-1.6 1.6-2.73 4.011-11.16-3.579-42.3-3.579-42.3 0-6.7 4.26-21.45 5.88-27.19.02-.06.029-.12.05-.17" stroke="#231f20" stroke-width="21"/><path d="M475.52 375.21V401.61s-.479 16.85-30.88 16.85" stroke="#231f20" stroke-width="21"/><path d="M493.48 575.59c-10.061 7.63-22.4-5.43-17.591-11.75M475.74 539.57c16.029 2.47 32.87 24.56 17.74 36.02M501.96 592.26c-17.04 12.92-45.91-22.359-28.05-28.47M475.77 539.4c23.57 3.5 48.44 36.01 26.19 52.859" stroke="#000" stroke-width="7.158" stroke-linecap="round" stroke-linejoin="round"/><path d="M399.09 555.48c14.4 7.779 32.42-7.99 19.51-12.49M421.79 522.51c-.47.05-.93.11-1.4.181-20.1 3.029-40.24 22.529-21.3 32.79M388.23 570.72c21.36 11.55 50.49-21.05 30.37-27.729" stroke="#000" stroke-width="7.111" stroke-linecap="round" stroke-linejoin="round"/><path d="M421.77 522.35c-.47.051-.93.11-1.4.17-29.8 3.971-60.22 33.03-32.14 48.2" stroke="#000" stroke-width="7.111" stroke-linecap="round" stroke-linejoin="round"/><path d="M248.99 684.05c15.67 8.47 35.28-8.689 21.23-13.58M273.69 648.18l-.76.09c-.25.03-.5.07-.75.11-21.89 3.28-43.81 24.51-23.19 35.67M237.17 700.65c23.24 12.569 54.95-22.92 33.05-30.181" stroke="#000" stroke-width="7.739" stroke-linecap="round" stroke-linejoin="round"/><path d="M273.67 648l-.76.09c-.25.03-.5.061-.75.101-32.42 4.319-65.55 35.949-34.99 52.46" stroke="#000" stroke-width="7.739" stroke-linecap="round" stroke-linejoin="round"/><path d="M642.07 644.9c13.64 7.989 30.66-7.841 19.3-12.801M663.9 610.52l-.67.091c-.221.029-.44.06-.66.1-19.351 3.13-38.73 23.48-20.5 34.19" stroke="#000" stroke-width="7.123" stroke-linecap="round" stroke-linejoin="round"/><path d="M631.62 660.8c20.34 11.931 48.04-21.319 29.75-28.7-.18-.08-.36-.149-.54-.22" stroke="#000" stroke-width="7.123" stroke-linecap="round" stroke-linejoin="round"/><path d="M663.88 610.35c-.22.03-.45.051-.67.08-.22.03-.45.061-.67.101-28.67 4.13-57.94 34.439-30.92 50.27" stroke="#000" stroke-width="7.123" stroke-linecap="round" stroke-linejoin="round"/><path d="M624.21 744.24c14.72 7.96 33.16-8.17 19.95-12.771M647.42 710.52l-.71.091c-.229.029-.47.06-.7.1-20.569 3.08-41.189 23.03-21.8 33.53M613.1 759.84c21.841 11.811 51.65-21.55 31.061-28.37" stroke="#000" stroke-width="7.274" stroke-linecap="round" stroke-linejoin="round"/><path d="M647.4 710.35c-.24.03-.471.051-.71.08l-.7.09c-30.48 4.061-61.63 33.79-32.891 49.32" stroke="#000" stroke-width="7.274" stroke-linecap="round" stroke-linejoin="round"/><path d="M684.33 703.4c14.8 8 33.33-8.21 20.05-12.841M707.66 669.51l-.72.09c-.24.03-.471.061-.71.101-20.671 3.1-41.37 23.149-21.9 33.7M673.17 719.07c21.95 11.87 51.9-21.65 31.21-28.511" stroke="#000" stroke-width="7.31" stroke-linecap="round" stroke-linejoin="round"/><path d="M707.64 669.34c-.239.03-.479.05-.72.08s-.47.061-.71.1c-30.62 4.07-61.91 33.95-33.04 49.551" stroke="#000" stroke-width="7.31" stroke-linecap="round" stroke-linejoin="round"/><path d="M417.65 377.96s-11.2 37.78 24.46 40.43a50.216 50.216 0 0 0 4.759.14h.06c2.431-.02 5.051-.19 7.87-.53" stroke="#221e1f" stroke-width="21" stroke-linecap="round" stroke-linejoin="round"/></g><path fill="none" d="M0 0h850.394v850.394H0z"/></svg>