<?xml version="1.0" encoding="iso-8859-1"?>
<!-- Generator: Adobe Illustrator 12.0.1, SVG Export Plug-In . SVG Version: 6.00 Build 51448)  -->
<!DOCTYPE svg PUBLIC "-//W3C//DTD SVG 1.1//EN" "http://www.w3.org/Graphics/SVG/1.1/DTD/svg11.dtd" [
	<!ENTITY ns_svg "http://www.w3.org/2000/svg">
	<!ENTITY ns_xlink "http://www.w3.org/1999/xlink">
]>
<svg  version="1.1" id="Layer_1" xmlns="&ns_svg;" xmlns:xlink="&ns_xlink;" width="850.394" height="850.394"
	 viewBox="0 0 850.394 850.394" style="overflow:visible;enable-background:new 0 0 850.394 850.394;" xml:space="preserve">
<g>
	<g>
		<g id="XMLID_2_">
			<g>
				<path style="fill:#FFFFFF;" d="M776.54,260.37v147.58h-139.6V260.37H776.54z M714.85,309.63c0-6.15-4.979-11.13-11.13-11.13
					c-6.14,0-11.12,4.98-11.12,11.13s4.98,11.13,11.12,11.13C709.87,320.76,714.85,315.78,714.85,309.63z M714.85,359.72
					c0-6.15-4.979-11.13-11.13-11.13c-6.14,0-11.12,4.98-11.12,11.13c0,6.15,4.98,11.13,11.12,11.13
					C709.87,370.85,714.85,365.87,714.85,359.72z"/>
				<rect x="497.35" y="260.37" style="fill:#FFFFFF;" width="139.591" height="147.58"/>
				<rect x="497.35" y="112.8" style="fill:#FFFFFF;" width="139.591" height="147.57"/>
				<rect x="636.94" y="112.8" style="fill:#FFFFFF;" width="139.6" height="147.57"/>
				<path style="fill:#0B00EA;" d="M314.53,463.95l-14.68,11.109l7.72-17.109C307.57,457.95,308.17,468.77,314.53,463.95z"/>
				<path style="fill:#0B00EA;" d="M332.25,437.38c5.52,4.45,11.76,6.09,15.99,4.7c-1.33,0.85-31.25,20.01-33.71,21.87
					c-6.36,4.819-6.96-6-6.96-6l16.26-33.83l0.2-0.01C324.35,428.34,327.33,433.42,332.25,437.38z"/>
				<path style="fill:#0B00EA;" d="M470.43,292.08c-4.12,2.74-11.71,1.21-18.13-3.97c-6.95-5.56-10.03-13.34-7.29-17.87
					c0.141-0.24,0.3-0.47,0.471-0.69c3.539-4.39,12.319-3.2,19.6,2.66s10.33,14.17,6.79,18.56
					C471.46,291.28,470.97,291.72,470.43,292.08z"/>
				<path style="fill:#0B00EA;" d="M422.4,298.27l22.569-28.05l0.04,0.02c-2.74,4.53,0.34,12.31,7.29,17.87
					c6.42,5.18,14.01,6.71,18.13,3.97l-23.08,28.7c-4.109,2.76-11.72,1.23-18.159-3.95c-7.24-5.83-10.291-14.06-6.851-18.48
					L422.4,298.27z"/>
				<path style="fill:#C8C8C8;" d="M325.43,418.87l-0.02-0.02l53.31-66.27l43.62-54.23c-3.44,4.42-0.39,12.65,6.851,18.48
					c6.439,5.18,14.05,6.71,18.159,3.95l-50.26,62.49l-45.53,56.6c-0.85,1.04-1.99,1.78-3.32,2.21c-4.23,1.39-10.47-0.25-15.99-4.7
					c-4.92-3.96-7.9-9.04-8.22-13.27C323.87,422.1,324.31,420.28,325.43,418.87z"/>
				<polygon style="fill:#F6CC4B;" points="274.43,596.87 286.22,616.6 272.95,624.52 				"/>
				<path style="fill:#F6CC4B;" d="M338.54,595.21c0.74,2.55,0.84,4.56,0.3,6.04s-1.48,2.62-2.82,3.42
					c-1.33,0.8-2.77,1.09-4.31,0.87s-3.41-1.39-5.6-3.521c-2.2-2.13-5.32-6.579-9.37-13.359c-4.05-6.771-6.55-11.82-7.5-15.13
					c-0.74-2.561-0.84-4.57-0.3-6.05c0.54-1.48,1.48-2.62,2.82-3.421c1.34-0.8,2.78-1.079,4.32-0.85c1.55,0.23,3.42,1.42,5.62,3.54
					c2.2,2.13,5.32,6.58,9.37,13.36C335.11,586.88,337.61,591.92,338.54,595.21z"/>
				<path style="fill:#F6CC4B;" d="M281.02,492.19c2.18,3.649,3.06,6.68,2.66,9.1c-0.41,2.41-1.64,4.229-3.68,5.45
					c-2.12,1.27-4.59,1.42-7.41,0.45c-2.82-0.971-5.31-3.25-7.45-6.851c-1.95-3.25-2.68-6.149-2.21-8.689
					c0.47-2.54,1.77-4.45,3.89-5.721c2.2-1.31,4.56-1.54,7.07-0.67C276.4,486.13,278.77,488.44,281.02,492.19z"/>
				<polygon style="fill:#F6CC4B;" points="203.59,376.38 215.38,396.11 202.12,404.03 				"/>
				<path style="fill:#F6CC4B;" d="M61.69,381.01l259.32-127.85L378,352l0.72,0.58l-53.31,66.27l0.02,0.02
					c-1.12,1.41-1.56,3.23-1.4,5.24l-0.2,0.01l-16.26,33.83l-7.72,17.109l14.68-11.109c2.46-1.86,32.38-21.021,33.71-21.87
					c1.33-0.43,2.47-1.17,3.32-2.21l45.53-56.6L398,384l129.49,216.49L259.65,748.72L61.69,381.01z M351.06,600.12
					c0.92-7.03-1.88-16.01-8.41-26.94c-6.54-10.949-13.1-17.66-19.68-20.149c-5.53-2.11-11.1-1.49-16.69,1.85
					c-5.6,3.351-8.78,7.92-9.55,13.73c-0.93,7.04,1.86,15.989,8.35,26.859c6.62,11.08,12.94,17.761,18.96,20.021
					c6.03,2.26,11.85,1.72,17.47-1.641C347.1,610.51,350.28,605.93,351.06,600.12z M309.94,615.6l-5.8-9.71l-7.19,4.29l-21.9-36.64
					l-9.31,5.56l-3.11,51.641l5.78,9.67l23.61-14.101l6.95,11.641l10.73-6.41l-6.95-11.64L309.94,615.6z M295.08,502.92
					c1.33-5.64,0.23-11.42-3.3-17.32c-3.32-5.569-7.68-9.13-13.08-10.68c-5.39-1.55-10.4-0.939-15.01,1.82
					c-4.1,2.439-6.55,6.12-7.35,11.02c-3.55-6.89-5.15-11.87-4.8-14.93c0.36-3.061,1.7-5.29,4.03-6.68
					c1.75-1.051,3.49-1.37,5.22-0.98c1.72,0.38,3.37,1.6,4.95,3.64l10.02-7.59c-3.58-4.2-7.54-6.67-11.88-7.41
					c-4.34-0.739-8.69,0.19-13.07,2.811c-6.25,3.729-9.92,9.1-11.04,16.11c-1.11,7.01,1.49,15.8,7.81,26.38
					c6.17,10.319,12.48,16.63,18.94,18.92s12.6,1.689,18.42-1.79C290.37,513,293.75,508.55,295.08,502.92z M247.82,537.11l-34.65-58
					l-8.98,5.359c0.83,4.271,0.35,8.74-1.47,13.4c-1.81,4.66-3.88,8.32-6.21,10.99l6,10.04c4.41-5.101,7.52-10.75,9.31-16.94
					l24.95,41.75L247.82,537.11z M239.1,395.11l-5.8-9.71l-7.19,4.3l-21.89-36.65l-9.31,5.56l-3.11,51.64l5.78,9.67l23.6-14.1
					l6.96,11.64l10.73-6.41l-6.96-11.64L239.1,395.11z M198.98,434.88l-6.16-10.3l-21.99,13.14c-0.02-1.34,0.13-2.81,0.43-4.42
					c0.3-1.609,1.25-5.06,2.83-10.35c1.59-5.3,2.54-9.2,2.86-11.7c0.48-3.78,0.49-7.13,0.02-10.04c-0.48-2.9-1.49-5.66-3.04-8.25
					c-2.73-4.57-6.64-7.42-11.73-8.55c-5.1-1.12-10.49,0.01-16.19,3.42c-5.2,3.11-8.74,7.02-10.63,11.74
					c-1.88,4.73-1.33,10.33,1.65,16.81l11.71-5.5c-1.72-3.36-2.31-6.13-1.78-8.34c0.54-2.21,1.96-4,4.27-5.38
					c2.33-1.39,4.56-1.82,6.67-1.29c2.12,0.54,3.92,2.04,5.39,4.51c1.34,2.23,1.93,4.95,1.77,8.14c-0.14,2.33-1.32,7.31-3.53,14.94
					c-2.75,9.46-4.14,16.55-4.16,21.29c-0.03,4.73,0.92,9.17,2.82,13.31L198.98,434.88z"/>
				<path style="fill:#231F20;" d="M703.72,298.5c6.15,0,11.13,4.98,11.13,11.13s-4.979,11.13-11.13,11.13
					c-6.14,0-11.12-4.98-11.12-11.13S697.58,298.5,703.72,298.5z"/>
				<path style="fill:#231F20;" d="M703.72,348.59c6.15,0,11.13,4.98,11.13,11.13c0,6.15-4.979,11.13-11.13,11.13
					c-6.14,0-11.12-4.98-11.12-11.13C692.6,353.57,697.58,348.59,703.72,348.59z"/>
				<path style="fill:#231F20;" d="M342.65,573.18c6.53,10.931,9.33,19.91,8.41,26.94c-0.78,5.81-3.96,10.39-9.55,13.729
					c-5.62,3.36-11.44,3.9-17.47,1.641c-6.02-2.26-12.34-8.94-18.96-20.021c-6.49-10.87-9.28-19.819-8.35-26.859
					c0.77-5.811,3.95-10.38,9.55-13.73c5.59-3.34,11.16-3.96,16.69-1.85C329.55,555.52,336.11,562.23,342.65,573.18z M338.84,601.25
					c0.54-1.48,0.44-3.49-0.3-6.04c-0.93-3.29-3.43-8.33-7.47-15.1c-4.05-6.78-7.17-11.23-9.37-13.36c-2.2-2.12-4.07-3.31-5.62-3.54
					c-1.54-0.229-2.98,0.05-4.32,0.85c-1.34,0.801-2.28,1.94-2.82,3.421c-0.54,1.479-0.44,3.489,0.3,6.05
					c0.95,3.31,3.45,8.359,7.5,15.13c4.05,6.78,7.17,11.229,9.37,13.359c2.19,2.131,4.06,3.301,5.6,3.521s2.98-0.07,4.31-0.87
					C337.36,603.87,338.3,602.73,338.84,601.25z"/>
				<path style="fill:#231F20;" d="M304.14,605.89l5.8,9.71l-7.19,4.301l6.95,11.64l-10.73,6.41l-6.95-11.641l-23.61,14.101
					l-5.78-9.67l3.11-51.641l9.31-5.56l21.9,36.64L304.14,605.89z M286.22,616.6l-11.79-19.729l-1.48,27.649L286.22,616.6z"/>
				<path style="fill:#231F20;" d="M291.78,485.6c3.53,5.9,4.63,11.681,3.3,17.32c-1.33,5.63-4.71,10.08-10.14,13.32
					c-5.82,3.479-11.96,4.08-18.42,1.79s-12.77-8.601-18.94-18.92c-6.32-10.58-8.92-19.37-7.81-26.38
					c1.12-7.011,4.79-12.381,11.04-16.11c4.38-2.62,8.73-3.55,13.07-2.811c4.34,0.74,8.3,3.21,11.88,7.41l-10.02,7.59
					c-1.58-2.04-3.23-3.26-4.95-3.64c-1.73-0.39-3.47-0.07-5.22,0.98c-2.33,1.39-3.67,3.619-4.03,6.68
					c-0.35,3.06,1.25,8.04,4.8,14.93c0.8-4.899,3.25-8.58,7.35-11.02c4.61-2.76,9.62-3.37,15.01-1.82
					C284.1,476.47,288.46,480.03,291.78,485.6z M283.68,501.29c0.4-2.42-0.48-5.45-2.66-9.1c-2.25-3.75-4.62-6.061-7.13-6.931
					c-2.51-0.87-4.87-0.64-7.07,0.67c-2.12,1.271-3.42,3.181-3.89,5.721c-0.47,2.54,0.26,5.439,2.21,8.689
					c2.14,3.601,4.63,5.88,7.45,6.851c2.82,0.97,5.29,0.819,7.41-0.45C282.04,505.52,283.27,503.7,283.68,501.29z"/>
				<path style="fill:#231F20;" d="M213.17,479.11l34.65,58l-11.05,6.6l-24.95-41.75c-1.79,6.19-4.9,11.84-9.31,16.94l-6-10.04
					c2.33-2.67,4.4-6.33,6.21-10.99c1.82-4.66,2.3-9.13,1.47-13.4L213.17,479.11z"/>
				<path style="fill:#231F20;" d="M233.3,385.4l5.8,9.71l-7.19,4.3l6.96,11.64l-10.73,6.41l-6.96-11.64l-23.6,14.1l-5.78-9.67
					l3.11-51.64l9.31-5.56l21.89,36.65L233.3,385.4z M215.38,396.11l-11.79-19.73l-1.47,27.65L215.38,396.11z"/>
				<path style="fill:#231F20;" d="M192.82,424.58l6.16,10.3l-38.79,23.18c-1.9-4.14-2.85-8.579-2.82-13.31
					c0.02-4.74,1.41-11.83,4.16-21.29c2.21-7.63,3.39-12.61,3.53-14.94c0.16-3.19-0.43-5.91-1.77-8.14
					c-1.47-2.47-3.27-3.97-5.39-4.51c-2.11-0.53-4.34-0.1-6.67,1.29c-2.31,1.38-3.73,3.17-4.27,5.38c-0.53,2.21,0.06,4.98,1.78,8.34
					l-11.71,5.5c-2.98-6.48-3.53-12.08-1.65-16.81c1.89-4.72,5.43-8.63,10.63-11.74c5.7-3.41,11.09-4.54,16.19-3.42
					c5.09,1.13,9,3.98,11.73,8.55c1.55,2.59,2.56,5.35,3.04,8.25c0.47,2.91,0.46,6.26-0.02,10.04c-0.32,2.5-1.27,6.4-2.86,11.7
					c-1.58,5.29-2.53,8.74-2.83,10.35c-0.3,1.61-0.45,3.08-0.43,4.42L192.82,424.58z"/>
			</g>
			<g>
				<polygon style="fill:none;stroke:#231F20;stroke-width:14;" points="497.35,260.37 497.35,112.8 636.94,112.8 776.54,112.8 
					776.54,260.37 776.54,407.95 636.94,407.95 497.35,407.95 				"/>
				<polyline style="fill:none;stroke:#231F20;stroke-width:14;" points="497.35,260.37 636.94,260.37 776.54,260.37 				"/>
				<polyline style="fill:none;stroke:#231F20;stroke-width:14;" points="636.94,112.8 636.94,260.37 636.94,407.95 				"/>
				<polyline style="fill:none;stroke:#231F20;stroke-width:21;" points="567.68,134.03 567.68,188.44 567.68,242.85 				"/>
				<polyline style="fill:none;stroke:#231F20;stroke-width:21;" points="519.15,188.44 567.68,188.44 614.99,188.44 				"/>
				<line style="fill:none;stroke:#231F20;stroke-width:21;" x1="659.82" y1="188.44" x2="752.57" y2="188.44"/>
				<line style="fill:none;stroke:#231F20;stroke-width:21;" x1="657.98" y1="334.36" x2="750.72" y2="334.36"/>
				<polyline style="fill:none;stroke:#231F20;stroke-width:21;" points="525.34,286.75 568.39,329.8 612.84,374.25 				"/>
				<polyline style="fill:none;stroke:#231F20;stroke-width:21;" points="523.25,374.94 568.39,329.8 610.74,287.45 				"/>
				<path style="fill:none;stroke:#231F20;stroke-width:21;" d="M445.01,270.24c-2.74,4.53,0.34,12.31,7.29,17.87
					c6.42,5.18,14.01,6.71,18.13,3.97c0.54-0.36,1.03-0.8,1.44-1.31c3.54-4.39,0.49-12.7-6.79-18.56s-16.061-7.05-19.6-2.66
					C445.31,269.77,445.15,270,445.01,270.24z"/>
				<path style="fill:none;stroke:#231F20;stroke-width:21;" d="M422.34,298.35c-3.44,4.42-0.39,12.65,6.851,18.48
					c6.439,5.18,14.05,6.71,18.159,3.95c0.54-0.36,1.011-0.79,1.42-1.3"/>
				<path style="fill:none;stroke:#231F20;stroke-width:19.6561;" d="M351.81,440.08c0.01-0.021,0.02-0.021,0.03-0.04"/>
				<path style="fill:none;stroke:#231F20;stroke-width:21;" d="M325.46,418.83c-0.01,0.01-0.02,0.03-0.03,0.04
					c-1.12,1.41-1.56,3.23-1.4,5.24c0.32,4.23,3.3,9.31,8.22,13.27c5.52,4.45,11.76,6.09,15.99,4.7c1.33-0.43,2.47-1.17,3.32-2.21"
					/>
				<polyline style="fill:none;stroke:#231F20;stroke-width:21;" points="351.56,439.87 397.09,383.27 447.35,320.78 470.43,292.08 
					471,291.37 				"/>
				<polyline style="fill:none;stroke:#231F20;stroke-width:21;" points="444.97,270.22 422.4,298.27 422.34,298.35 378.72,352.58 
					325.41,418.85 				"/>
				<path style="fill:none;stroke:#231F20;stroke-width:21;" d="M323.83,424.12l-16.26,33.83c0,0,0.6,10.819,6.96,6
					c2.46-1.86,32.38-21.021,33.71-21.87c0.03-0.021,0.05-0.03,0.05-0.03"/>
				<polyline style="fill:none;stroke:#231F20;stroke-width:21;stroke-linecap:round;stroke-linejoin:round;" points="
					307.57,457.95 299.85,475.06 314.53,463.95 				"/>
				<polyline style="fill:none;stroke:#231F20;stroke-width:21;" points="378,352 321.01,253.16 61.69,381.01 259.65,748.72 
					527.49,600.49 398,384 				"/>
				<line style="fill:none;stroke:#231F20;stroke-width:19.6561;" x1="214.27" y1="583.66" x2="338.6" y2="512.9"/>
			</g>
		</g>
	</g>
</g>
<rect style="fill:none;" width="850.394" height="850.394"/>
</svg>
