<?xml version="1.0" encoding="iso-8859-1"?>
<!-- Generator: Adobe Illustrator 12.0.1, SVG Export Plug-In . SVG Version: 6.00 Build 51448)  -->
<!DOCTYPE svg PUBLIC "-//W3C//DTD SVG 1.1//EN" "http://www.w3.org/Graphics/SVG/1.1/DTD/svg11.dtd" [
	<!ENTITY ns_svg "http://www.w3.org/2000/svg">
	<!ENTITY ns_xlink "http://www.w3.org/1999/xlink">
]>
<svg  version="1.1" id="Layer_1" xmlns="&ns_svg;" xmlns:xlink="&ns_xlink;" width="850.394" height="850.394"
	 viewBox="0 0 850.394 850.394" style="overflow:visible;enable-background:new 0 0 850.394 850.394;" xml:space="preserve">
<g id="XMLID_4_">
	<g>
		<path style="fill:#FFFFFF;" d="M663.89,690.06c0,0-2.239,47.62-47.699,67.771c0,0-84.75,34.28-183.801,30.62h-3.33
			c-99.05,3.66-183.8-30.62-183.8-30.62c-45.45-20.15-47.7-67.771-47.7-67.771l-1.18-388.29c0-40.13,9.53-50.67,30.42-61.65
			c20.89-10.97,27.42-37.34,27.42-37.34c30.53,13.56,98.93,23.01,178.419,23.01c79.03,0,147.101-9.34,177.891-22.77
			c0,0,3.229,26.13,24.12,37.1c20.899,10.98,30.42,21.52,30.42,61.65L663.89,690.06z M591.6,685.37V317.71
			c-135.449,46.45-319.28,0-319.28,0l1.93,357.021C415.51,746.33,591.6,685.37,591.6,685.37z"/>
		<path style="fill:#0B00EA;" d="M591.6,317.71v367.66c0,0-176.09,60.96-317.35-10.64l-1.93-357.021
			C272.32,317.71,456.15,364.16,591.6,317.71z"/>
		<path style="fill:#0B00EA;" d="M628.06,186.89c0,5.75-6.27,11.21-17.529,16.13c-30.79,13.43-98.86,22.77-177.891,22.77
			c-79.49,0-147.89-9.45-178.419-23.01c-10.92-4.85-16.99-10.23-16.99-15.89l-0.47-77.95c5.31,20.54,90.65,36.87,195.16,36.87
			c104.26,0,189.45-16.26,195.11-36.73l1.029,0.31V186.89z"/>
		<path style="fill:#0B00EA;" d="M236.76,108.94c-0.17-0.67-0.26-1.35-0.26-2.03c0-21.49,87.49-38.9,195.42-38.9
			c107.92,0,195.41,17.41,195.41,38.9c0,0.73-0.1,1.45-0.3,2.17c-5.66,20.47-90.851,36.73-195.11,36.73
			C327.41,145.81,242.07,129.48,236.76,108.94z"/>
	</g>
	<g>
		<path style="fill:none;stroke:#000000;stroke-width:21.2442;" d="M236.76,108.94c-0.17-0.67-0.26-1.35-0.26-2.03
			c0-21.49,87.49-38.9,195.42-38.9c107.92,0,195.41,17.41,195.41,38.9c0,0.73-0.1,1.45-0.3,2.17
			c-5.66,20.47-90.851,36.73-195.11,36.73C327.41,145.81,242.07,129.48,236.76,108.94z"/>
		<path style="fill:none;stroke:#000000;stroke-width:21.2442;" d="M236.76,108.92v0.02l0.47,77.95c0,5.66,6.07,11.04,16.99,15.89
			c30.53,13.56,98.93,23.01,178.419,23.01c79.03,0,147.101-9.34,177.891-22.77c11.26-4.92,17.529-10.38,17.529-16.13v-77.5"/>
		<path style="fill:none;stroke:#000000;stroke-width:21.2442;" d="M610.53,203.02c0,0,3.229,26.13,24.12,37.1
			c20.899,10.98,30.42,21.52,30.42,61.65l-1.181,388.29c0,0-2.239,47.62-47.699,67.771c0,0-84.75,34.28-183.801,30.62h-3.33
			c-99.05,3.66-183.8-30.62-183.8-30.62c-45.45-20.15-47.7-67.771-47.7-67.771l-1.18-388.29c0-40.13,9.53-50.67,30.42-61.65
			c20.89-10.97,27.42-37.34,27.42-37.34"/>
		<path style="fill:none;stroke:#000000;stroke-width:19.3505;" d="M272.32,317.71c0,0,183.831,46.45,319.28,0v367.66
			c0,0-176.09,60.96-317.35-10.64L272.32,317.71z"/>
	</g>
</g>
<rect style="fill:none;" width="850.394" height="850.394"/>
</svg>
