<?xml version="1.0" encoding="iso-8859-1"?>
<!-- Generator: Adobe Illustrator 12.0.1, SVG Export Plug-In . SVG Version: 6.00 Build 51448)  -->
<!DOCTYPE svg PUBLIC "-//W3C//DTD SVG 1.1//EN" "http://www.w3.org/Graphics/SVG/1.1/DTD/svg11.dtd" [
	<!ENTITY ns_svg "http://www.w3.org/2000/svg">
	<!ENTITY ns_xlink "http://www.w3.org/1999/xlink">
]>
<svg  version="1.1" id="Layer_1" xmlns="&ns_svg;" xmlns:xlink="&ns_xlink;" width="850.394" height="850.394"
	 viewBox="0 0 850.394 850.394" style="overflow:visible;enable-background:new 0 0 850.394 850.394;" xml:space="preserve">
<g>
	<g id="XMLID_5_">
		<g>
			<path style="fill:#F6CC4B;" d="M363.05,318.46c0,0.01,0.01,0.01,0.01,0.02c0.18,1.35,0.27,2.72,0.27,4.09
				c0,35.59-61.61,64.47-137.6,64.47c-76,0-137.6-28.88-137.6-64.47c0-1.51,0.11-3.01,0.33-4.5c4.93-33.51,64.5-59.97,137.27-59.97
				c46.2,0,87.09,10.67,112.05,27.04C352.27,294.65,361.39,306.07,363.05,318.46z"/>
			<path style="fill:#F6CC4B;" d="M508.27,446.25c0.7,0.92,1.341,1.89,1.91,2.91c14.84,26.28-18.62,73.26-74.72,104.93
				c-56.1,31.68-113.61,36.03-128.44,9.771c-0.6-1.061-1.11-2.141-1.55-3.261c-10.57-26.779,22.41-71.3,76.27-101.68
				c34.1-19.26,68.72-28.42,93.97-26.74c14.67,0.98,26.17,5.62,32.55,14.07H508.27z"/>
			<path style="fill:#F6CC4B;" d="M688.81,487.19c0.011,0,0.011,0,0.021,0c0.91,0.329,1.8,0.729,2.67,1.18
				c22.35,11.71,20.21,59.87-4.78,107.55c-24.989,47.69-63.359,76.88-85.71,65.17c-0.97-0.51-1.899-1.09-2.779-1.729
				C578.88,645.2,581.9,599.15,605.8,553.52c15.2-29,35.34-51.149,53.82-61.43C670.35,486.13,680.51,484.17,688.81,487.19z"/>
			<path style="fill:#F73900;" d="M363.06,318.48c2.89,9.84,4.43,20.15,4.43,30.77c0,68.34-63.79,123.74-142.48,123.74
				c-78.7,0-142.49-55.4-142.49-123.74c0-10.84,1.61-21.35,4.62-31.37l1.32,0.19c-0.22,1.49-0.33,2.99-0.33,4.5
				c0,35.59,61.6,64.47,137.6,64.47c75.99,0,137.6-28.88,137.6-64.47C363.33,321.2,363.24,319.83,363.06,318.48z"/>
			<path style="fill:#F73900;" d="M757.74,192.07c2.41,2.42,4.399,4.97,6,7.61h-0.01c-2.271-3.18-5.351-5.96-9.16-8.11
				c-2.28-1.28-4.82-2.34-7.601-3.12c-22.3-6.2-57.029,32.19-57.029,32.19L648.06,262l-1.75,1.73l-0.01-0.01
				c-114.02,22.01-281.54,54.41-283.25,54.74c-1.66-12.39-10.78-23.81-25.27-33.32l342.71-93.07
				C680.49,192.07,738.42,172.77,757.74,192.07z"/>
			<path style="fill:#F73900;" d="M508.27,446.25c6.24,6.06,11.66,13.02,16.11,20.88c28.47,50.44,4.48,117.92-53.63,150.73
				C412.66,650.65,342.48,636.34,314,585.89c-4.52-8.02-7.71-16.46-9.66-25.08l1.13-0.21c0.44,1.12,0.95,2.2,1.55,3.261
				c14.83,26.26,72.34,21.909,128.44-9.771c56.1-31.67,89.56-78.649,74.72-104.93C509.61,448.14,508.97,447.17,508.27,446.25z"/>
			<path style="fill:#F73900;" d="M763.73,199.68c2.539,3.54,4.06,7.58,4.47,11.74c-3.061-11.15-15.17-17.79-28.9-13.5
				C720.84,203.7,713.9,246.4,713.9,246.4l-6.78,30.7C632.24,340.76,508.27,446.25,508.27,446.25h-0.01
				c-6.38-8.45-17.88-13.09-32.55-14.07l170.6-168.45l1.75-1.73l41.881-41.36c0,0,34.729-38.39,57.029-32.19
				c2.78,0.78,5.32,1.84,7.601,3.12C758.38,193.72,761.46,196.5,763.73,199.68z"/>
			<path style="fill:#F73900;" d="M768.2,211.42c1.06,3.85,1.03,8.24-0.38,12.9c-10.59,34.96-78.98,262.871-78.98,262.871h-0.01
				c-0.01,0-0.01,0-0.021,0c-8.3-3.021-18.46-1.061-29.189,4.899l47.5-214.99l6.78-30.7c0,0,6.939-42.7,25.399-48.48
				C753.03,193.63,765.14,200.27,768.2,211.42z"/>
			<path style="fill:#F73900;" d="M688.84,487.19c7.141,1.42,14.09,3.84,20.78,7.34c42.89,22.479,56.689,80.729,30.81,130.12
				c-25.88,49.39-81.62,71.21-124.51,48.729c-6.8-3.56-12.88-8.03-18.16-13.21l0.471-0.81c0.88,0.64,1.81,1.22,2.779,1.729
				c22.351,11.71,60.721-17.479,85.71-65.17c24.99-47.68,27.13-95.84,4.78-107.55c-0.87-0.45-1.76-0.851-2.67-1.18H688.84z"/>
		</g>
		<g>
			<path style="fill:none;stroke:#231F20;stroke-width:21;" d="M363.06,318.48c0.18,1.35,0.27,2.72,0.27,4.09
				c0,35.59-61.61,64.47-137.6,64.47c-76,0-137.6-28.88-137.6-64.47c0-1.51,0.11-3.01,0.33-4.5c4.93-33.51,64.5-59.97,137.27-59.97
				c46.2,0,87.09,10.67,112.05,27.04c14.49,9.51,23.61,20.93,25.27,33.32"/>
			<path style="fill:none;stroke:#231F20;stroke-width:21;" d="M363.01,318.32c0.01,0.05,0.03,0.09,0.04,0.14
				c0,0.01,0.01,0.01,0.01,0.02c2.89,9.84,4.43,20.15,4.43,30.77c0,68.34-63.79,123.74-142.48,123.74
				c-78.7,0-142.49-55.4-142.49-123.74c0-10.84,1.61-21.35,4.62-31.37"/>
			<path style="fill:none;stroke:#231F20;stroke-width:21;" d="M646.3,263.72c-114.02,22.01-281.54,54.41-283.25,54.74
				c-0.01,0-0.01,0-0.01,0"/>
			<path style="fill:none;stroke:#231F20;stroke-width:21;" d="M337.74,285.15l0.04-0.01l342.71-93.07c0,0,57.93-19.3,77.25,0
				c2.41,2.42,4.399,4.97,6,7.61"/>
			<path style="fill:none;stroke:#231F20;stroke-width:21;" d="M508.27,446.25c0.7,0.92,1.341,1.89,1.91,2.91
				c14.84,26.28-18.62,73.26-74.72,104.93c-56.1,31.68-113.61,36.03-128.44,9.771c-0.6-1.061-1.11-2.141-1.55-3.261
				c-10.57-26.779,22.41-71.3,76.27-101.68c34.1-19.26,68.72-28.42,93.97-26.74c14.67,0.98,26.17,5.62,32.55,14.07"/>
			<path style="fill:none;stroke:#231F20;stroke-width:21;" d="M508.17,446.16c0.03,0.03,0.061,0.06,0.09,0.09h0.01
				c6.24,6.06,11.66,13.02,16.11,20.88c28.47,50.44,4.48,117.92-53.63,150.73C412.66,650.65,342.48,636.34,314,585.89
				c-4.52-8.02-7.71-16.46-9.66-25.08"/>
			<path style="fill:none;stroke:#231F20;stroke-width:21;" d="M709.14,275.38c-0.67,0.57-1.34,1.14-2.02,1.72
				C632.24,340.76,508.27,446.25,508.27,446.25"/>
			<path style="fill:none;stroke:#231F20;stroke-width:21;" d="M754.57,191.57c3.81,2.15,6.89,4.93,9.16,8.11
				c2.539,3.54,4.06,7.58,4.47,11.74c0.1,1.07,0.13,2.14,0.09,3.22"/>
			<path style="fill:none;stroke:#231F20;stroke-width:21;" d="M648.06,262l41.881-41.36c0,0,34.729-38.39,57.029-32.19
				c2.78,0.78,5.32,1.84,7.601,3.12"/>
			<polyline style="fill:none;stroke:#231F20;stroke-width:21;" points="475.7,432.19 475.71,432.18 646.31,263.73 648.06,262 			
				"/>
			<path style="fill:none;stroke:#231F20;stroke-width:21;" d="M688.83,487.19c0.91,0.329,1.8,0.729,2.67,1.18
				c22.35,11.71,20.21,59.87-4.78,107.55c-24.989,47.69-63.359,76.88-85.71,65.17c-0.97-0.51-1.899-1.09-2.779-1.729
				C578.88,645.2,581.9,599.15,605.8,553.52c15.2-29,35.34-51.149,53.82-61.43c10.729-5.96,20.89-7.92,29.189-4.899"/>
			<path style="fill:none;stroke:#231F20;stroke-width:21;" d="M688.73,487.17c0.029,0.01,0.05,0.01,0.079,0.021
				c0.011,0,0.011,0,0.021,0h0.01c7.141,1.42,14.09,3.84,20.78,7.34c42.89,22.479,56.689,80.729,30.81,130.12
				c-25.88,49.39-81.62,71.21-124.51,48.729c-6.8-3.56-12.88-8.03-18.16-13.21"/>
			<path style="fill:none;stroke:#231F20;stroke-width:21;" d="M659.61,492.12l0.01-0.03l47.5-214.99l6.78-30.7
				c0,0,6.939-42.7,25.399-48.48c13.73-4.29,25.84,2.35,28.9,13.5c1.06,3.85,1.03,8.24-0.38,12.9
				c-10.59,34.96-78.98,262.871-78.98,262.871"/>
		</g>
	</g>
</g>
<rect style="fill:none;" width="850.394" height="850.394"/>
</svg>
