<svg xmlns="http://www.w3.org/2000/svg" width="850.394" height="850.394" viewBox="0 0 850.394 850.394" overflow="visible"><path d="M755.86 562.99c-.301 109.42-140.74 202.67-329.78 202.67-189.08 0-331.52-88.67-331.75-198.12 22.96 93.7 162.07 165.76 330.25 165.76 170.89 0 311.78-74.4 331.28-170.31z" fill="#33a02c"/><path d="M721.92 452.52c23.18 26.301 36.25 56.091 36.25 87.641 0 7.72-.78 15.34-2.31 22.83C736.36 658.9 595.47 733.3 424.58 733.3c-168.18 0-307.29-72.06-330.25-165.76-2.2-8.94-3.33-18.08-3.33-27.38 0-38.17 19.12-73.74 52.11-103.7 18.87-17.14 42.28-32.43 69.25-45.33 57.67-27.55 131.6-44.11 212.22-44.11.41 0 .83 0 1.24.01 69.32.14 133.65 12.52 186.88 33.62 46.01 18.21 83.74 42.93 109.22 71.87z" fill="#abda4d"/><g fill="none" stroke="#231f20" stroke-linecap="round" stroke-linejoin="round"><path stroke-width="28" d="M415.17 114.21l.89 19.42 1.43 31.39.69 15.08 7.64 166.93 7 152.94"/><path d="M214.55 406.65l-2.19-15.52-20.44-145.17-13.85-98.3s-10.59-49 23.53-43.16c21.24 3.63 95.82 26.24 149.11 42.8 32.32 10.04 56.81 17.86 56.81 17.86M612.27 388.98l.431-8.33 8.79-170.23L625.64 130s8.21-56.89-23.54-43.17c-24.67 10.67-85.67 36.46-130.899 55.54-28.5 12.03-50.74 21.4-53.71 22.65-.23.09-.34.14-.34.14" stroke-width="20.763"/><path d="M178.07 655.13s-20.68-127.03-34.96-218.67c-7.53-48.32-13.28-86.81-13.28-91.64 0-14-18.83-72.33 38.83-91 6.34-2.05 14.23-4.73 23.26-7.86 51.18-17.76 138.81-50.31 186.68-68.2 13.85-5.17 24.36-9.12 29.71-11.13 2.55-.95 3.92-1.47 3.92-1.47M712.29 620.62s5.15-86.04 9.63-168.101c3.9-71.189 7.3-139.379 6.42-145.83-1.91-13.87 8.811-74.19-50.859-84.96-13.25-2.39-33.11-6.45-55.99-11.31-53.05-11.27-122.36-26.87-163.17-36.14-20.851-4.73-34.26-7.81-34.26-7.81" stroke-width="20.763"/><path d="M471.2 142.37c8.319 3.65 13.26 8.22 13.35 13.24.141 7.35-10.109 14.1-26.229 18.67-11.09 3.15-24.96 5.26-40.14 5.82-1.34.06-2.69.09-4.05.12-12.92.24-25.06-.67-35.53-2.46-21.24-3.63-35.62-10.89-35.78-19.5-.08-3.9 2.78-7.64 7.89-10.96 11.71-7.63 35.27-13.12 62.53-13.64.94-.02 1.88-.03 2.82-.03 22.679-.14 42.699 3.28 55.139 8.74zM721.92 452.52c23.18 26.301 36.25 56.091 36.25 87.641 0 7.72-.78 15.34-2.31 22.83C736.36 658.9 595.47 733.3 424.58 733.3c-168.18 0-307.29-72.06-330.25-165.76-2.2-8.94-3.33-18.08-3.33-27.38 0-38.17 19.12-73.74 52.11-103.7 18.87-17.14 42.28-32.43 69.25-45.33 57.67-27.55 131.6-44.11 212.22-44.11.41 0 .83 0 1.24.01 69.32.14 133.65 12.52 186.88 33.62 46.01 18.21 83.74 42.93 109.22 71.87z" stroke-width="20.763"/><path d="M755.86 562.64v.351c-.301 109.42-140.74 202.67-329.78 202.67-189.08 0-331.52-88.67-331.75-198.12v-.271" stroke-width="20.763"/></g><path fill="none" d="M0 0h850.394v850.394H0z"/></svg>