<svg xmlns="http://www.w3.org/2000/svg" width="850.394" height="850.394" viewBox="0 0 850.394 850.394" overflow="visible"><path fill="#fff" d="M219.08 619.985l-14.5 31.191-41.16.13-14.5-31.321zM722.57 619.985l-14.5 31.131-41.15.13-13.63-31.261z"/><path fill="#00efdc" d="M657.26 266.106h92.37v53.16h-92.37z"/><path d="M771.92 224.956v376.76c0 10.09-8.18 18.27-18.27 18.27H633.63v-413.3h120.02c10.09 0 18.27 8.18 18.27 18.27zm-22.29 94.31v-53.16h-92.37v53.16h92.37zm-12.09 98.54c0-6.08-4.93-11.01-11.01-11.01s-11.011 4.93-11.011 11.01 4.931 11 11.011 11 11.01-4.92 11.01-11zm1.87 110.889c0-14.529-11.78-26.31-26.311-26.31-14.529 0-26.31 11.78-26.31 26.31s11.78 26.311 26.31 26.311c14.531 0 26.311-11.78 26.311-26.311zm-3.75-163.249c0-6.82-5.54-12.35-12.36-12.35h-40.81c-3.41 0-6.5 1.38-8.73 3.62a12.278 12.278 0 0 0-3.62 8.73c0 6.82 5.53 12.35 12.351 12.35h40.81c6.819 0 12.359-5.53 12.359-12.35zm-44.84 52.36c0-6.08-4.931-11.01-11.011-11.01-6.079 0-11.01 4.93-11.01 11.01s4.931 11 11.01 11c6.081 0 11.011-4.92 11.011-11zM604.63 279.256v265.82c0 8.449-6.85 15.3-15.31 15.3-4.221 0-8.051-1.71-10.82-4.48a15.242 15.242 0 0 1-4.48-10.819v-265.82c0-8.45 6.851-15.3 15.301-15.3 4.229 0 8.06 1.71 10.83 4.48a15.241 15.241 0 0 1 4.479 10.819z" fill="#fff"/><path d="M546.63 277.386v269.56c0 10.08-8.18 18.271-18.27 18.271H129.93c-10.09 0-18.27-8.19-18.27-18.271v-269.56c0-10.09 8.18-18.27 18.27-18.27h398.43c10.09 0 18.27 8.18 18.27 18.27z" fill="#787878"/><path d="M633.63 206.686v413.3h-537c-10.08 0-18.26-8.18-18.26-18.27v-376.76c0-10.09 8.18-18.27 18.26-18.27h537zm-29 338.39v-265.82c0-4.23-1.71-8.05-4.479-10.82a15.27 15.27 0 0 0-10.83-4.48c-8.45 0-15.301 6.85-15.301 15.3v265.82c0 4.229 1.711 8.05 4.48 10.819 2.77 2.771 6.6 4.48 10.82 4.48 8.46.001 15.31-6.85 15.31-15.299zm-58 1.869v-269.56c0-10.09-8.18-18.27-18.27-18.27H129.93c-10.09 0-18.27 8.18-18.27 18.27v269.56c0 10.08 8.18 18.271 18.27 18.271h398.43c10.09 0 18.27-8.191 18.27-18.271z" fill="#fff"/><path d="M726.53 406.796c6.08 0 11.01 4.93 11.01 11.01s-4.93 11-11.01 11-11.011-4.92-11.011-11 4.931-11.01 11.011-11.01z"/><circle cx="713.1" cy="528.696" r="26.31"/><path d="M723.3 353.096c6.82 0 12.36 5.53 12.36 12.35s-5.54 12.35-12.36 12.35h-40.81c-6.82 0-12.351-5.53-12.351-12.35 0-3.41 1.38-6.5 3.62-8.73 2.23-2.24 5.32-3.62 8.73-3.62H723.3zM679.81 406.796c6.08 0 11.011 4.93 11.011 11.01s-4.931 11-11.011 11c-6.079 0-11.01-4.92-11.01-11s4.93-11.01 11.01-11.01z"/><g fill="none" stroke="#000"><path d="M633.63 206.686h120.02c10.09 0 18.27 8.18 18.27 18.27v376.76c0 10.09-8.18 18.27-18.27 18.27H96.63c-10.08 0-18.26-8.18-18.26-18.27v-376.76c0-10.09 8.18-18.27 18.26-18.27h537zM633.63 206.686v413.299" stroke-width="19.332"/><path d="M546.63 546.945c0 10.08-8.18 18.271-18.27 18.271H129.93c-10.09 0-18.27-8.19-18.27-18.271v-269.56c0-10.09 8.18-18.27 18.27-18.27h398.43c10.09 0 18.27 8.18 18.27 18.27v269.56zM604.63 545.076c0 8.449-6.85 15.3-15.31 15.3-4.221 0-8.051-1.71-10.82-4.48a15.242 15.242 0 0 1-4.48-10.819v-265.82c0-8.45 6.851-15.3 15.301-15.3 4.229 0 8.06 1.71 10.83 4.48a15.241 15.241 0 0 1 4.479 10.82v265.819zM219.08 619.985l-14.5 31.191-41.16.13-14.5-31.321M722.57 619.985l-14.5 31.131-41.15.13-13.63-31.261M657.26 266.106h92.37v53.16h-92.37z" stroke-width="19.332"/><path d="M690.82 417.806c0 6.08-4.931 11-11.011 11-6.079 0-11.01-4.92-11.01-11s4.931-11.01 11.01-11.01c6.081 0 11.011 4.93 11.011 11.01z" stroke-width="12.888"/><circle cx="713.1" cy="528.695" r="26.31" stroke-width="12.888"/><path d="M737.54 417.806c0 6.08-4.93 11-11.01 11s-11.011-4.92-11.011-11 4.931-11.01 11.011-11.01 11.01 4.93 11.01 11.01zM735.66 365.446c0 6.82-5.54 12.35-12.36 12.35h-40.81c-6.82 0-12.351-5.53-12.351-12.35 0-3.41 1.38-6.5 3.62-8.73 2.23-2.24 5.32-3.62 8.73-3.62h40.81c6.821 0 12.361 5.53 12.361 12.35z" stroke-width="12.888"/></g><path fill="none" d="M0 0h850.394v850.394H0z"/></svg>