<svg xmlns="http://www.w3.org/2000/svg" width="850.394" height="850.394" viewBox="0 0 850.394 850.394" overflow="visible"><path d="M610.37 654.55c5.81 2.13 9.97 7.73 9.97 14.28 0 8.4-6.81 15.2-15.2 15.2-8.399 0-15.21-6.8-15.21-15.2 0-.26.011-.521.021-.78.41-8.03 7.05-14.42 15.189-14.42 1.84 0 3.6.33 5.23.92zM570.92 632.93c0 8.4-6.8 15.2-15.2 15.2-8.39 0-15.2-6.8-15.2-15.2 0-8.39 6.811-15.199 15.2-15.199 8.4-.001 15.2 6.809 15.2 15.199zM582.33 583.94c8.4 0 15.21 6.819 15.21 15.21 0 8.399-6.81 15.199-15.21 15.199s-15.2-6.8-15.2-15.199c0-8.39 6.8-15.21 15.2-15.21zM537.99 474.99c8.399 0 15.21 6.81 15.21 15.21 0 8.399-6.811 15.2-15.21 15.2-8.4 0-15.2-6.801-15.2-15.2 0-8.4 6.8-15.21 15.2-15.21zM498.72 479.63c8.391 0 15.2 6.82 15.2 15.21 0 8.4-6.81 15.2-15.2 15.2-8.41 0-15.21-6.8-15.21-15.2 0-8.39 6.8-15.21 15.21-15.21zM420.23 542.11c6.45 5.38 7.31 14.97 1.92 21.409-5.38 6.45-14.97 7.301-21.41 1.921-6.44-5.391-7.3-14.971-1.92-21.41 5.38-6.44 14.97-7.31 21.41-1.92zM384.41 654.15c6.45 5.39 7.3 14.97 1.92 21.42-5.38 6.439-14.97 7.3-21.41 1.92-6.45-5.38-7.31-14.971-1.92-21.42 5.38-6.44 14.97-7.31 21.41-1.92zM362.15 729.89c1.27 4.641.32 9.79-2.99 13.761-5.39 6.46-14.97 7.31-21.42 1.93-6.44-5.39-7.3-14.97-1.92-21.41.38-.45.77-.87 1.19-1.27 5.52-5.271 14.23-5.66 20.22-.65a15.098 15.098 0 0 1 4.92 7.639zM342.33 663.02c6.45 5.381 7.3 14.961 1.92 21.41-5.39 6.44-14.97 7.301-21.42 1.92-6.44-5.39-7.3-14.96-1.92-21.409 5.39-6.451 14.98-7.311 21.42-1.921zM225.45 515.78c7.54 2.18 12.1 9.67 10.76 17.22-.09.53-.22 1.06-.37 1.59-2.32 8.07-10.75 12.73-18.81 10.4-8.07-2.33-12.72-10.75-10.4-18.82 1.62-5.62 6.2-9.58 11.56-10.68 2.33-.48 4.81-.41 7.26.29zM282.87 494.97c8.07 2.32 12.73 10.74 10.4 18.811-2.32 8.08-10.75 12.729-18.82 10.41-8.07-2.33-12.72-10.761-10.4-18.82 2.33-8.081 10.75-12.731 18.82-10.401zM266.65 455.14c8.08 2.32 12.73 10.75 10.4 18.82-2.32 8.07-10.75 12.73-18.81 10.39-8.07-2.319-12.72-10.739-10.4-18.81 2.33-8.08 10.75-12.73 18.81-10.4zM416.55 448.86c-1.19 4.83-2.37 9.569-3.52 14.21-5.47 5.93-14.67 6.58-20.92 1.35-6.44-5.38-7.3-14.96-1.92-21.41 5.39-6.439 14.97-7.3 21.42-1.92a15.08 15.08 0 0 1 4.94 7.77zM375.9 378.06c8.06 2.33 12.72 10.76 10.39 18.83-2.32 8.06-10.74 12.72-18.82 10.39-8.06-2.33-12.72-10.75-10.39-18.82 2.32-8.06 10.74-12.72 18.82-10.4zM339.44 362.72c8.07 2.33 12.72 10.76 10.39 18.82-2.32 8.07-10.74 12.73-18.81 10.4-8.07-2.32-12.73-10.74-10.4-18.82 2.32-8.07 10.75-12.72 18.82-10.4zM492.38 278.2c8.39 0 15.2 6.8 15.2 15.2s-6.811 15.21-15.2 15.21c-8.399 0-15.2-6.81-15.2-15.21s6.8-15.2 15.2-15.2zM438.06 190.35c8.061 2.32 12.721 10.75 10.4 18.81-2.33 8.07-10.75 12.73-18.83 10.4-8.06-2.32-12.72-10.75-10.39-18.81 2.32-8.08 10.75-12.73 18.82-10.4z" fill="#ffffc2"/><path d="M594.45 262.46c21.01 12.76 12.319 32.29 12.319 32.29l-.149.2s-6.47 20.37-30.66 15.95c-24.18-4.41-45.41-19.91-65.729-36.13-14.301-11.42-27.58-25.35-27.58-25.35l1.21-2.98s19.18-1.59 37.46-.63c25.959 1.37 52.129 3.89 73.129 16.65zM602.05 432.22c21.01 12.771 12.33 32.29 12.33 32.29l-.16.21s-6.47 20.36-30.649 15.95c-24.181-4.41-45.41-19.91-65.74-36.14-14.3-11.41-27.58-25.34-27.58-25.34l1.21-2.98s19.18-1.6 37.45-.64c25.969 1.38 52.139 3.89 73.139 16.65zM650.82 529.23c23.3 7.819 19.12 28.789 19.12 28.789l-.101.221s-1.83 21.29-26.39 22.31c-24.55 1.03-48.681-9.41-72.08-20.76-16.46-7.98-32.48-18.64-32.48-18.64l.53-3.181s18.35-5.779 36.38-8.87c25.631-4.379 51.711-7.699 75.021.131zM583.76 630.46s18.351-5.79 36.391-8.87c25.619-4.38 51.699-7.7 75.01.12 23.3 7.83 19.13 28.79 19.13 28.79l-.1.23s-1.83 21.279-26.4 22.31c-24.55 1.02-48.68-9.42-72.08-20.76-11.72-5.681-23.22-12.73-28.87-16.311-.03-.779-.05-1.21-.05-1.21l-2.94-1.319s-.14.119-.39.35c-.16-.11-.24-.16-.24-.16l.539-3.17zM582.96 634.24c.2-.181.36-.33.5-.45.47.31 1.65 1.08 3.38 2.18.15 4.061.561 17.761-.37 31.84-.1 1.46-.21 2.94-.34 4.4-2.27 25.9-5.689 51.96-19.17 72.51-13.479 20.561-32.7 11.2-32.7 11.2l-.2-.16s-20.13-7.18-14.869-31.189c5.229-24.011 21.46-44.69 38.38-64.45 10.139-11.831 22.079-22.871 25.389-25.881zM493.8 531.31c11.99-13.829 26.45-26.52 26.45-26.52l3 1.19s.8 19.239-.9 37.439c-2.42 25.9-6 51.94-19.609 72.41-13.601 20.479-32.76 11-32.76 11l-.25-.03s-20.091-7.3-14.7-31.28c1.029-4.579 2.46-9.039 4.22-13.39 6.79-16.79 18.47-31.99 30.92-46.59a365.65 365.65 0 0 1 3.629-4.229zM472.05 656.06c12.87 20.94-3.77 34.351-3.77 34.351l-.23.12s-15.05 15.17-34.56.2c-19.51-14.961-31.33-38.44-42.01-62.141-7.51-16.689-12.98-35.14-12.98-35.14l2.46-2.101s17.78 7.341 33.61 16.521c22.47 13.08 44.61 27.25 57.48 48.19zM355.69 690.75s17.79 7.34 33.61 16.53c22.48 13.069 44.61 27.239 57.48 48.18 12.87 20.95-3.771 34.36-3.771 34.36l-.229.12s-15.05 15.159-34.56.189c-19.48-14.939-31.3-38.39-41.98-62.08 0-.02-.01-.04-.02-.06-5.35-11.88-9.66-24.66-11.7-31.03.47-.62.73-.96.73-.96l-1.4-2.9s-.18.011-.53.021c-.05-.18-.08-.271-.08-.271l2.45-2.099zM352.65 693.14c.27-.01.49-.01.67-.02.16.54.58 1.89 1.2 3.84-2.54 3.28-11.35 14.49-21.38 24.91-.79.82-1.59 1.64-2.4 2.45-18.35 18.42-37.68 36.229-61.21 43.359-23.52 7.12-32.27-12.37-32.27-12.37l-.05-.25s-10.85-18.409 8.58-33.479c19.42-15.061 45.14-20.53 70.78-24.85 15.37-2.58 31.61-3.4 36.08-3.59zM387.52 553.6l1.53 2.841s-11.71 15.26-24.69 28.149c-18.46 18.32-37.9 36.021-61.47 42.99-8.83 2.63-15.57 1.52-20.54-.9l-1.43-.47c3.76-3.83 6.89-9.65 7.47-18.46.69-10.47-.72-20.92-3.4-31.29l2.72-.71c18.2-10.73 40.38-15.17 62.51-18.75 18.06-2.92 37.3-3.4 37.3-3.4z" fill="#abd153"/><path d="M252.13 503.29c2.35 3.81 10.76 17.72 17.23 31.9 6.18 13.56 12.05 27.35 15.63 41.27 2.68 10.37 4.09 20.82 3.4 31.29-.58 8.81-3.71 14.63-7.47 18.46-6.71 6.84-15.46 7.39-15.46 7.39l-.23.101s-21.06 3.66-28.32-19.82c-7.27-23.479-3.33-49.47 1.66-74.99.33-1.71.69-3.42 1.07-5.109 2.99-13.5 7.04-26.141 8.28-29.91 1.98-.58 3.33-.99 3.86-1.16l.35.578zM251.78 502.71c-.19-.29-.28-.44-.28-.44l-3.2.461s-.14.399-.38 1.14c-6.13 1.8-18.25 5.149-30.51 7.38-.58.11-1.17.21-1.75.31-25.63 4.41-51.7 7.771-75.01-.02-23.32-7.78-19.18-28.75-19.18-28.75l-.04-.25s1.8-21.3 26.36-22.36c24.56-1.069 48.7 9.34 72.11 20.65 16.48 7.96 32.51 18.6 32.51 18.6l-.37 3.2c0-.001-.09.029-.26.079zM320.63 422.85l-.37 3.2s-18.35 5.79-36.38 8.91c-25.63 4.43-51.7 7.78-75.01-.01-23.32-7.79-19.18-28.75-19.18-28.75l-.04-.24s1.8-21.3 26.36-22.36c24.56-1.07 48.7 9.34 72.11 20.64 16.47 7.97 32.51 18.61 32.51 18.61zM366.3 429.07c10.92 23.609 20.94 47.899 19.47 72.439-1.46 24.53-22.78 25.99-22.78 25.99l-.25-.04s-21.03 3.8-28.43-19.65c-7.41-23.439-3.63-49.46 1.2-75 3.42-17.97 9.51-36.22 9.51-36.22l3.22-.32c0 .001 10.37 16.211 18.06 32.801zM400.42 319.12l.35 3.21s-16.62 9.7-33.52 16.71c-24.02 9.96-48.72 18.97-73.17 16.52-24.46-2.46-25.04-23.82-25.04-23.82l-.1-.24s-2.93-21.17 20.79-27.61c23.72-6.45 49.56-1.62 74.89 4.25 17.82 4.14 35.8 10.98 35.8 10.98zM454.74 158.1l.35 3.21s-16.63 9.7-33.53 16.71c-24.02 9.96-48.71 18.97-73.16 16.52-24.47-2.46-25.04-23.82-25.04-23.82l-.1-.24s-2.93-21.17 20.79-27.61c23.71-6.45 49.56-1.61 74.89 4.25 17.82 4.14 35.8 10.98 35.8 10.98z" fill="#abd153"/><g fill="none" stroke="#231f20" stroke-width="14"><path d="M513.92 494.84c0 8.4-6.81 15.2-15.2 15.2-8.41 0-15.21-6.8-15.21-15.2 0-8.39 6.8-15.21 15.21-15.21 8.39 0 15.2 6.82 15.2 15.21zM507.58 293.4c0 8.4-6.811 15.21-15.2 15.21-8.399 0-15.2-6.81-15.2-15.21s6.801-15.2 15.2-15.2c8.39 0 15.2 6.8 15.2 15.2zM482.65 249.42s13.279 13.93 27.58 25.35c20.319 16.22 41.55 31.72 65.729 36.13 24.19 4.42 30.66-15.95 30.66-15.95l.149-.2s8.69-19.53-12.319-32.29c-21-12.76-47.17-15.28-73.13-16.65-18.28-.96-37.46.63-37.46.63l-1.209 2.98zM512.65 55.23c-10.41 39.92-61.311 253.13-96.101 393.63-1.19 4.83-2.37 9.569-3.52 14.21-14.3 57.52-25.33 100.35-28.74 109.55-13.87 37.49-28.74 103.37-31.64 120.52-.03.15-.06.301-.08.44"/><path d="M386.33 675.57c-5.38 6.439-14.97 7.3-21.41 1.92-6.45-5.38-7.31-14.971-1.92-21.42 5.38-6.44 14.97-7.311 21.41-1.92 6.45 5.39 7.3 14.97 1.92 21.42zM422.15 563.52c-5.38 6.45-14.97 7.301-21.41 1.921-6.44-5.391-7.3-14.971-1.92-21.41 5.38-6.44 14.97-7.311 21.41-1.92 6.45 5.379 7.31 14.969 1.92 21.409zM344.25 684.43c-5.39 6.44-14.97 7.301-21.42 1.92-6.44-5.39-7.3-14.96-1.92-21.409 5.39-6.45 14.98-7.311 21.42-1.921 6.45 5.38 7.3 14.96 1.92 21.41zM416.55 448.86c1.22 4.6.27 9.71-3.02 13.64-.16.2-.33.39-.5.57-5.47 5.93-14.67 6.58-20.92 1.35-6.44-5.38-7.3-14.96-1.92-21.41 5.39-6.439 14.97-7.3 21.42-1.92a15.08 15.08 0 0 1 4.94 7.77zM362.15 729.89c1.27 4.641.32 9.79-2.99 13.761-5.39 6.46-14.97 7.31-21.42 1.93-6.44-5.39-7.3-14.97-1.92-21.41.38-.45.77-.87 1.19-1.27 5.52-5.271 14.23-5.66 20.22-.65a15.098 15.098 0 0 1 4.92 7.639zM490.06 535.45c-9.43-16.641-23.89-31-38.689-44.771-13.41-12.449-29.15-23.52-29.15-23.52l-2.85 1.51s1.27 19.21 4.92 37.14c5.2 25.471 11.55 50.98 27.29 69.87 1.96 2.36 3.96 4.25 5.96 5.74M378.5 593.45s5.47 18.45 12.98 35.14c10.68 23.7 22.5 47.18 42.01 62.141 19.51 14.97 34.56-.2 34.56-.2l.23-.12s16.64-13.41 3.77-34.351c-12.87-20.939-35.01-35.109-57.48-48.189-15.83-9.18-33.61-16.521-33.61-16.521l-2.46 2.1zM287.71 575.75c18.2-10.73 40.38-15.17 62.51-18.75 18.06-2.92 37.3-3.4 37.3-3.4l1.53 2.841s-11.71 15.26-24.69 28.149c-18.46 18.32-37.9 36.021-61.47 42.99-8.83 2.63-15.57 1.52-20.54-.9M366.24 728.05c10.68 23.69 22.5 47.141 41.98 62.08 19.51 14.97 34.56-.189 34.56-.189l.229-.12s16.641-13.41 3.771-34.36c-12.87-20.94-35-35.11-57.48-48.18-15.82-9.19-33.61-16.53-33.61-16.53l-2.45 2.1s.03.091.08.271c.16.54.58 1.89 1.2 3.84 2.04 6.37 6.35 19.15 11.7 31.03.01.018.02.038.02.058z"/><path d="M354.52 696.96c.47-.62.73-.96.73-.96l-1.4-2.9s-.18.011-.53.021c-.18.01-.4.01-.67.02-4.47.19-20.71 1.011-36.08 3.591-25.64 4.319-51.36 9.789-70.78 24.85-19.43 15.07-8.58 33.479-8.58 33.479l.05.25s8.75 19.49 32.27 12.37c23.53-7.13 42.86-24.939 61.21-43.359.81-.811 1.61-1.63 2.4-2.45 10.03-10.422 18.84-21.632 21.38-24.912zM465.51 53.34c-4.52 64.68-13.17 183.15-17.06 201.05-5.391 24.81-90.66 122.41-114.17 155.19-23.3 32.5-69.59 81.729-82.15 93.71-.11.11-.22.21-.32.31"/><path d="M247.84 465.54c-2.32 8.07 2.33 16.49 10.4 18.81 8.06 2.341 16.49-2.319 18.81-10.39 2.33-8.07-2.32-16.5-10.4-18.82-8.06-2.33-16.48 2.32-18.81 10.4zM320.62 373.12c-2.33 8.08 2.33 16.5 10.4 18.82 8.07 2.33 16.49-2.33 18.81-10.4 2.33-8.06-2.32-16.49-10.39-18.82-8.07-2.32-16.5 2.33-18.82 10.4zM264.05 505.37c-2.32 8.06 2.33 16.49 10.4 18.82 8.07 2.319 16.5-2.33 18.82-10.41 2.33-8.07-2.33-16.49-10.4-18.811-8.07-2.329-16.49 2.321-18.82 10.401zM357.08 388.46c-2.33 8.07 2.33 16.49 10.39 18.82 8.08 2.33 16.5-2.33 18.82-10.39 2.33-8.07-2.33-16.5-10.39-18.83-8.08-2.32-16.5 2.34-18.82 10.4zM419.24 200.75c-2.33 8.06 2.33 16.49 10.39 18.81 8.08 2.33 16.5-2.33 18.83-10.4 2.32-8.06-2.34-16.49-10.4-18.81-8.07-2.33-16.5 2.32-18.82 10.4zM218.19 515.49c-5.36 1.1-9.94 5.06-11.56 10.68-2.32 8.07 2.33 16.49 10.4 18.82 8.06 2.33 16.49-2.33 18.81-10.4.15-.53.28-1.06.37-1.59 1.34-7.55-3.22-15.04-10.76-17.22-2.45-.7-4.93-.77-7.26-.29zM400.77 322.33s-16.62 9.7-33.52 16.71c-24.02 9.96-48.72 18.97-73.17 16.52-24.46-2.46-25.04-23.82-25.04-23.82l-.1-.24s-2.93-21.17 20.79-27.61c23.72-6.45 49.56-1.62 74.89 4.25 17.82 4.14 35.8 10.98 35.8 10.98l.35 3.21zM455.09 161.31s-16.63 9.7-33.53 16.71c-24.02 9.96-48.71 18.97-73.16 16.52-24.47-2.46-25.04-23.82-25.04-23.82l-.1-.24s-2.93-21.17 20.79-27.61c23.71-6.45 49.56-1.61 74.89 4.25 17.82 4.14 35.8 10.98 35.8 10.98l.35 3.21zM320.26 426.05s-18.35 5.79-36.38 8.91c-25.63 4.43-51.7 7.78-75.01-.01-23.32-7.79-19.18-28.75-19.18-28.75l-.04-.24s1.8-21.3 26.36-22.36c24.56-1.07 48.7 9.34 72.11 20.64 16.47 7.97 32.51 18.61 32.51 18.61l-.37 3.2zM345.02 396.59s-6.09 18.25-9.51 36.22c-4.83 25.54-8.61 51.561-1.2 75 7.4 23.45 28.43 19.65 28.43 19.65l.25.04s21.32-1.46 22.78-25.99c1.47-24.54-8.55-48.83-19.47-72.439-7.69-16.59-18.06-32.8-18.06-32.8l-3.22.319zM217.41 511.25c-.58.11-1.17.21-1.75.31-25.63 4.41-51.7 7.771-75.01-.02-23.32-7.78-19.18-28.75-19.18-28.75l-.04-.25s1.8-21.3 26.36-22.36c24.56-1.069 48.7 9.34 72.11 20.65 16.48 7.96 32.51 18.6 32.51 18.6l-.37 3.2s-.09.03-.26.08c-.53.17-1.88.58-3.86 1.16-6.13 1.8-18.25 5.15-30.51 7.38z"/><path d="M247.92 503.87c.24-.74.38-1.14.38-1.14l3.2-.461s.09.15.28.44c.09.15.21.35.35.58 2.35 3.81 10.76 17.72 17.23 31.9 6.18 13.56 12.05 27.35 15.63 41.27 2.68 10.37 4.09 20.82 3.4 31.29-.58 8.81-3.71 14.63-7.47 18.46-6.71 6.84-15.46 7.39-15.46 7.39l-.23.101s-21.06 3.66-28.32-19.82c-7.27-23.479-3.33-49.47 1.66-74.99.33-1.71.69-3.42 1.07-5.109 2.99-13.501 7.04-26.141 8.28-29.911zM511.39 101.68s-46.46 213.68-48.149 239.02c-1.681 25.34 53.22 142.729 66.729 180.74 13.391 37.68 44.23 97.79 52.99 112.8.07.13.15.26.22.38"/><path d="M597.54 599.15c0 8.399-6.81 15.199-15.21 15.199s-15.2-6.8-15.2-15.199c0-8.391 6.8-15.21 15.2-15.21s15.21 6.82 15.21 15.21zM553.2 490.2c0 8.399-6.811 15.2-15.21 15.2-8.4 0-15.2-6.801-15.2-15.2 0-8.4 6.8-15.21 15.2-15.21 8.4 0 15.21 6.81 15.21 15.21zM570.92 632.93c0 8.4-6.8 15.2-15.2 15.2-8.39 0-15.2-6.8-15.2-15.2 0-8.39 6.811-15.199 15.2-15.199 8.4-.001 15.2 6.809 15.2 15.199zM610.37 654.55c5.81 2.13 9.97 7.73 9.97 14.28 0 8.4-6.81 15.2-15.2 15.2-8.399 0-15.21-6.8-15.21-15.2 0-.26.011-.521.021-.78.41-8.03 7.05-14.42 15.189-14.42 1.84 0 3.6.33 5.23.92zM490.25 419.19s13.28 13.93 27.58 25.34c20.33 16.229 41.56 31.729 65.74 36.14 24.18 4.41 30.649-15.95 30.649-15.95l.16-.21s8.68-19.52-12.33-32.29c-21-12.76-47.17-15.27-73.14-16.65-18.271-.96-37.45.64-37.45.64l-1.209 2.98zM538.89 541.15s16.021 10.659 32.48 18.64c23.399 11.35 47.53 21.79 72.08 20.76 24.56-1.02 26.39-22.31 26.39-22.31l.101-.221s4.18-20.97-19.12-28.789c-23.311-7.83-49.391-4.511-75.021-.131-18.03 3.091-36.38 8.87-36.38 8.87l-.53 3.181zM490.17 535.54c1.2-1.42 2.41-2.83 3.63-4.23 11.99-13.829 26.45-26.52 26.45-26.52l3 1.19s.8 19.239-.9 37.439c-2.42 25.9-6 51.94-19.609 72.41-13.601 20.479-32.76 11-32.76 11l-.25-.03s-20.091-7.3-14.7-31.28c1.029-4.579 2.46-9.039 4.22-13.39 6.789-16.789 18.469-31.989 30.919-46.589zM615.71 652.28c23.4 11.34 47.53 21.779 72.08 20.76 24.57-1.03 26.4-22.31 26.4-22.31l.1-.23s4.17-20.96-19.13-28.79c-23.311-7.82-49.391-4.5-75.01-.12-18.04 3.08-36.391 8.87-36.391 8.87l-.54 3.17s.08.05.24.16c.47.31 1.65 1.08 3.38 2.18 5.651 3.58 17.151 10.63 28.871 16.31z"/><path d="M586.84 635.97c-.03-.779-.05-1.21-.05-1.21l-2.94-1.319s-.14.119-.39.35c-.14.12-.3.27-.5.45-3.31 3.01-15.25 14.05-25.39 25.88-16.92 19.76-33.15 40.439-38.38 64.45-5.261 24.01 14.869 31.189 14.869 31.189l.2.16s19.221 9.36 32.7-11.2c13.48-20.55 16.9-46.609 19.17-72.51.13-1.46.24-2.94.34-4.4.931-14.08.521-27.78.371-31.84z"/></g><path fill="none" d="M0 0h850.394v850.394H0z"/></svg>