<svg xmlns="http://www.w3.org/2000/svg" width="850.394" height="850.394" viewBox="0 0 850.394 850.394" overflow="visible"><path d="M136.44 448.3c-8.35-10.33-12.89-21.42-12.89-32.98 0-35.33 42.43-66.37 106.46-84.12 13.84 18.4 31.71 31.71 46.95 40.18v58.16h-.31s-23.44-3.35-31.53 4.74c-8.09 8.1-8.09 13.39-8.09 29.569v37.46c-46.48-11.899-82.49-30.639-100.59-53.009z" fill="#787878"/><path d="M276.96 429.54v-58.16c1.32.74 2.62 1.44 3.9 2.1 19.1 9.9 40.44 9.49 63.74 3.02l.45 1.59v134.29l-.05 2.71c-16-.28-31.57-1.27-46.57-2.88-21.86-2.36-42.5-6.06-61.4-10.9v-.01-37.45c0-16.18 0-21.47 8.09-29.569 8.09-8.09 31.53-4.74 31.53-4.74h.31z" fill="#787878"/><path d="M579.45 438.01c-21.08 39.24-95.65 69.59-188.69 75.931-11.81.81-23.92 1.229-36.26 1.229-3.18 0-6.35-.03-9.5-.08l.05-2.71V378.09l-.45-1.59c13.45-3.72 27.55-9.47 42.25-16.41 31.36-14.81 62.03-28.25 73.98-33.44 23.33 5.24 44.32 12.15 62.13 20.37 38.75 17.86 62.48 41.88 62.48 68.3 0 7.81-2.07 15.4-5.99 22.69z" fill="#787878"/><path d="M390.76 513.94c93.04-6.341 167.61-36.69 188.69-75.931-.87 3.9-40.94 182.79-70.181 218.78-29.02 35.7-70.539 49.01-147.58 49.01l-9.68.08c-77.04 0-118.57-13.31-147.57-49.01-3.68-4.53-7.5-11.16-11.37-19.311C166.3 581.13 137.31 452.2 136.44 448.3c18.1 22.37 54.11 41.11 100.59 53.01 18.9 4.841 39.54 8.54 61.4 10.9 15 1.61 30.57 2.6 46.57 2.88 3.15.05 6.32.08 9.5.08 12.34 0 24.45-.42 36.26-1.23z" fill="#c8c8c8"/><path d="M638.63 485.74c9.99 10.67 15.69 21.58 12.72 24.37-2.979 2.779-13.5-3.61-23.479-14.271-4.87-5.21-8.72-10.46-11.05-14.81 2.22-2.811 4.75-5.311 7.529-7.41 4.23 2.591 9.32 6.831 14.28 12.121z" fill="#fff"/><path d="M646.25 466.09c21.87 0 39.61 20.23 39.61 45.18 0 24.961-17.74 45.19-39.61 45.19-21.88 0-39.61-20.229-39.61-45.19 0-11.619 3.851-22.229 10.181-30.239 2.33 4.35 6.18 9.6 11.05 14.81 9.979 10.66 20.5 17.05 23.479 14.271 2.971-2.79-2.729-13.7-12.72-24.37-4.96-5.29-10.05-9.53-14.28-12.12 6.27-4.762 13.8-7.532 21.9-7.532z" fill="#c8c8c8"/><path d="M522.96 347.02c-5.92-7.6 3.05-30.83 4.41-39.72 34.35-3.3 47.6 9.59 69.229 19.32 22.311 10.04 60.24 10.04 60.24 10.04 12.43-3.03 22.71-9.6 30.63-18.46v-.01c6.04-5.92 10.91-13.87 14.061-23.12 1.55 12.99 21.14 178.13 21.14 215.64 0 39.05 7.811 93.72-27.89 109.34s-45.74 20.08-85.91 49.09c-40.16 29.011-63.22 60.15-95.94 84.79-63.319 47.7-158.16 45.46-212.83 39.33-54.67-6.14-100.17-20.96-118.53-52.71-16.95-29.31-16.74-74.53 11.5-102.99 3.87 8.15 7.69 14.78 11.37 19.311 29 35.7 70.53 49.01 147.57 49.01l9.68-.08c77.041 0 118.56-13.31 147.58-49.01 29.24-35.99 69.311-214.88 70.181-218.78 3.92-7.29 5.99-14.88 5.99-22.69-.001-26.421-23.731-50.441-62.481-68.301zm162.9 164.25c0-24.949-17.74-45.18-39.61-45.18-8.1 0-15.63 2.771-21.9 7.53-4.29-2.63-7.71-3.561-9.21-2.15-1.52 1.431-.76 4.99 1.681 9.561-6.33 8.01-10.181 18.62-10.181 30.239 0 24.961 17.73 45.19 39.61 45.19 21.87 0 39.61-20.23 39.61-45.19z" fill="#ffeec8"/><path d="M335.54 183.82c-.02 3.31-.01 6.66-.01 10.04 0 40.16 25.66 69.17 66.94 62.47 41.28-6.69 108.22-24.54 130.53-46.85 22.32-22.32 0-74.76 0-74.76s-10.94-2.05-31.23-2.94c-5.619-.24-11.949-.4-18.97-.4-32.359 0-72.52-14.5-110.45-14.5-34.74 0-36.73 30.88-36.81 66.94zm370.01 86.51c0-32.69-19.64-59.18-43.87-59.18-24.239 0-43.88 26.49-43.88 59.18 0 32.68 19.641 59.17 43.88 59.17 9.641 0 18.551-4.19 25.79-11.3-7.92 8.86-18.2 15.43-30.63 18.46 0 0-37.93 0-60.24-10.04-21.63-9.73-34.88-22.62-69.229-19.32-1.07.1-2.17.22-3.29.36l-58.01 16.73s-1.88.8-5.24 2.26c-11.95 5.19-42.62 18.63-73.98 33.44-14.7 6.94-28.8 12.69-42.25 16.41-23.3 6.47-44.64 6.88-63.74-3.02-1.28-.66-2.58-1.36-3.9-2.1-15.24-8.47-33.11-21.78-46.95-40.18-13.24-17.61-22.78-39.88-22.78-67.05 0-58.02 6.14-100.98 46.86-141.7 40.72-40.72 80.1-60.25 124.95-60.25 59.13 0 168.479 35.71 227.61 71.41 0 0 67.59 46.89 89.25 88.14 10.409 19.82 12.89 42.51 8.409 62.58a78.91 78.91 0 0 0 1.24-14z" fill="#ffeec8"/><path d="M701.45 294.28c-3.19 8.94-7.88 17.1-13.98 23.91v.01c-7.239 7.11-16.149 11.3-25.79 11.3-24.239 0-43.88-26.49-43.88-59.17 0-32.69 19.641-59.18 43.88-59.18 24.23 0 43.87 26.49 43.87 59.18 0 4.82-.43 9.51-1.24 14a82.37 82.37 0 0 1-2.86 9.95zM533 134.72s22.32 52.44 0 74.76c-22.31 22.31-89.25 40.16-130.53 46.85-41.28 6.7-66.94-22.31-66.94-62.47 0-3.38-.01-6.73.01-10.04 1.37-.1 128.39-8.98 147.26-17.86 18.97-8.92 18.97-18.55 18.97-34.17v-.01c20.29.89 31.23 2.94 31.23 2.94z" fill="#ffeec8"/><g fill="none" stroke="#000" stroke-width="20.082"><path d="M687.47 318.2c-7.92 8.86-18.2 15.43-30.63 18.46 0 0-37.93 0-60.24-10.04-21.63-9.73-34.88-22.62-69.229-19.32-1.07.1-2.17.22-3.29.36l-58.01 16.73s-1.88.8-5.24 2.26c-11.95 5.19-42.62 18.63-73.98 33.44-14.7 6.94-28.8 12.69-42.25 16.41-23.3 6.47-44.64 6.88-63.74-3.02-1.28-.66-2.58-1.36-3.9-2.1-15.24-8.47-33.11-21.78-46.95-40.18-13.24-17.61-22.78-39.88-22.78-67.05 0-58.02 6.14-100.98 46.86-141.7 40.72-40.72 80.1-60.25 124.95-60.25 59.13 0 168.479 35.71 227.61 71.41 0 0 67.59 46.89 89.25 88.14 10.409 19.82 12.89 42.51 8.409 62.58a82.55 82.55 0 0 1-2.859 9.95c-3.19 8.94-7.88 17.1-13.98 23.91"/><path d="M501.77 131.78c20.29.89 31.23 2.94 31.23 2.94s22.32 52.44 0 74.76c-22.31 22.31-89.25 40.16-130.53 46.85-41.28 6.7-66.94-22.31-66.94-62.47 0-3.38-.01-6.73.01-10.04.08-36.06 2.07-66.94 36.81-66.94 37.93 0 78.09 14.5 110.45 14.5 7.02 0 13.35.16 18.97.4z"/><path d="M335.53 183.82h.01c1.37-.1 128.39-8.98 147.26-17.86 18.97-8.92 18.97-18.55 18.97-34.17M527.37 307.3c-1.36 8.89-10.33 32.12-4.41 39.72M701.44 294.26s0 .01.01.02c0 .07.03.34.08.79 1.55 12.99 21.14 178.13 21.14 215.64 0 39.05 7.811 93.72-27.89 109.34s-45.74 20.08-85.91 49.09c-40.16 29.011-63.22 60.15-95.94 84.79-63.319 47.7-158.16 45.46-212.83 39.33-54.67-6.14-100.17-20.96-118.53-52.71-16.95-29.31-16.74-74.53 11.5-102.99.07-.069.14-.149.21-.22"/><path d="M624.35 473.62c6.271-4.76 13.801-7.53 21.9-7.53 21.87 0 39.61 20.23 39.61 45.18 0 24.961-17.74 45.19-39.61 45.19-21.88 0-39.61-20.229-39.61-45.19 0-11.619 3.851-22.229 10.181-30.239 2.219-2.811 4.749-5.311 7.529-7.411z"/><path d="M624.35 473.62c4.23 2.59 9.32 6.83 14.28 12.12 9.99 10.67 15.69 21.58 12.72 24.37-2.979 2.779-13.5-3.61-23.479-14.271-4.87-5.21-8.72-10.46-11.05-14.81-2.44-4.57-3.2-8.13-1.681-9.561 1.5-1.408 4.92-.478 9.21 2.152zM460.81 326.65h.021c23.33 5.24 44.32 12.15 62.13 20.37 38.75 17.86 62.48 41.88 62.48 68.3 0 7.81-2.07 15.4-5.99 22.69-21.08 39.24-95.65 69.59-188.69 75.931-11.81.81-23.92 1.229-36.26 1.229-3.18 0-6.35-.03-9.5-.08-16-.28-31.57-1.27-46.57-2.88-21.86-2.36-42.5-6.06-61.4-10.9-46.48-11.899-82.49-30.64-100.59-53.01-8.35-10.33-12.89-21.42-12.89-32.98 0-35.33 42.43-66.37 106.46-84.12.02-.01.05-.01.07-.02"/><path d="M579.47 437.94s0 .02-.02.069c-.87 3.9-40.94 182.79-70.181 218.78-29.02 35.7-70.539 49.01-147.58 49.01l-9.68.08c-77.04 0-118.57-13.31-147.57-49.01-3.68-4.53-7.5-11.16-11.37-19.311C166.3 581.13 137.31 452.2 136.44 448.3a.66.66 0 0 0-.02-.09M687.47 318.2c-7.239 7.11-16.149 11.3-25.79 11.3-24.239 0-43.88-26.49-43.88-59.17 0-32.69 19.641-59.18 43.88-59.18 24.23 0 43.87 26.49 43.87 59.18 0 4.82-.43 9.51-1.24 14a71.7 71.7 0 0 1-2.779 10.74c-3.15 9.25-8.021 17.2-14.061 23.12v.01zM345.05 378.09v134.29"/><path d="M349.48 435.4s24.54-6.69 34.02 2.79c9.49 9.489 7.26 20.64 7.26 40.17v36M338.04 437.36s-9.08-1.301-17.89-.33c-5.34.59-10.58 2.01-13.63 5.069-8.09 8.091-8.09 13.381-8.09 29.561v40.55M276.96 370.28v134.29"/><path d="M281.39 427.59s24.54-6.69 34.02 2.79c2.11 2.11 3.64 4.3 4.74 6.65 3.86 8.21 2.51 18.33 2.51 33.52v36M276.65 429.54s-23.44-3.35-31.53 4.74c-8.09 8.1-8.09 13.39-8.09 29.569v37.45"/></g><path fill="none" d="M0 0h850.394v850.394H0z"/></svg>