<svg xmlns="http://www.w3.org/2000/svg" width="850.394" height="850.394" viewBox="0 0 850.394 850.394" overflow="visible"><path fill="#7a7878" d="M483.14 277.54H480.28v-45.23h31.58v45.23h-2z"/><path d="M719.86 219.68v89.31c0 4.91-3.971 8.89-8.88 8.89H520.73c-4.9 0-8.87-3.98-8.87-8.89V196.92c0-4.89 3.97-8.87 8.87-8.87h190.25c4.909 0 8.88 3.98 8.88 8.87v22.76zm-57.94-17.97H543.27v75.97h118.65v-75.97zm27.93 18.18v-18.22h-14.67v18.22h14.67zm-.71 33.26v-18.21h-14.67v18.21h14.67z" fill="#c8c8c8"/><path fill="#33a048" d="M674.47 234.94h14.67v18.21h-14.67z"/><path fill="#ed1d31" d="M675.18 201.67h14.67v18.22h-14.67z"/><path fill="#ffffc2" d="M647.27 216.55v45.54H567.7v-23.82l24.43-21.72z"/><path d="M661.92 201.71v75.97H543.27v-75.97h118.65zm-14.65 60.38v-45.54h-55.14l-24.43 21.72v23.82h79.57z" fill="#c8c8c8"/><path d="M763.33 176.2l-43.47 43.48v-22.76c0-4.89-3.971-8.87-8.88-8.87h-6.45l34.439-34.45c1.16 5.49 4.03 10.78 8.53 15.01 4.591 4.3 10.171 6.83 15.831 7.59zM480.28 277.54v15.8h-26.61V219h26.61v13.31zM277 610.77v2.36c0 8.91-7.22 16.13-16.13 16.13h-12.32c-8.91 0-16.13-7.22-16.13-16.13v-2.36c0-8.909 7.22-16.14 16.13-16.14h12.32c8.91 0 16.13 7.23 16.13 16.14z" fill="#7a7878"/><path d="M377.85 623.83l-3.1 29.46s-6.1 37.8-50.58 40.84l-11.81.64 3.23-41.17 4.71-30.34 3.36.521h53.7l.49.049z" fill="#c8c8c8"/><path fill="#c8c8c8" d="M383.46 570.42l-5.61 53.41-.49-.05h-53.7l-3.36-.52 8.2-52.78v-.06zM180.46 570.42l8.2 52.78-3.36.52h-53.7l-5.61-53.31h54.47z"/><path d="M254.26 653.54h-60.89l-4.71-30.34-8.2-52.78v-.01h74.25l.04.01h73.75v.061l-8.2 52.779-4.71 30.34h-61.33v-.06zM277 613.13v-2.36c0-8.909-7.22-16.14-16.13-16.14h-12.32c-8.91 0-16.13 7.23-16.13 16.14v2.36c0 8.91 7.22 16.13 16.13 16.13h12.32c8.91 0 16.13-7.22 16.13-16.13z" fill="#c8c8c8"/><path d="M193.37 653.54l3.23 41.2-11.32-.61c-44.47-3.04-50.57-40.85-50.57-40.85l-3.11-29.561h53.7l3.36-.52 4.71 30.341z" fill="#c8c8c8"/><path fill="#c8c8c8" d="M254.72 697.88l-58.12-3.14-3.23-41.2h60.89v.06h61.33l-3.23 41.17-57.64 3.12z"/><path d="M406.56 669.53l-.12 1.88s-7.26 52.46-27.44 72.63c-20.18 20.18-82.32 30.47-124.28 30.47l-.01-.12c-41.97 0-104.11-10.29-124.29-30.47-20.17-20.17-27.43-72.63-27.43-72.63s-.03-.45-.08-1.31c11.2 33.98 76.03 60.02 151.73 60.02 76.03 0 141.11-26.26 151.92-60.47zM210.44 133.73l43.23-.04h130.74l-3.23 402.7s-66.58 10.9-127.51 12.11l1.04.12c-60.94-1.21-127.51-12.101-127.51-12.101l-3.23-402.709 86.47-.08zm141.64 354.1V196.22H156.25v291.61h195.83z" fill="#7a7878"/><path d="M210.44 133.73l-86.47.08 3.23 402.709s66.57 10.891 127.51 12.101l-1.04-.12c60.93-1.21 127.51-12.11 127.51-12.11l3.23-402.7H253.67l-43.23.04zm101.92 561.04l11.81-.64c44.48-3.04 50.58-40.84 50.58-40.84l3.1-29.46 5.61-53.41H254.75l-.04-.01H125.99l5.61 53.31 3.11 29.561s6.1 37.81 50.57 40.85l11.32.61 58.12 3.14v.01l57.64-3.121zm105.38-568.91v255.02c0 98.73-10.01 268.93-11.18 288.65C395.75 703.74 330.67 730 254.64 730c-75.7 0-140.53-26.04-151.73-60.02-1-16.721-11.22-189.461-11.22-289.221v-255.02s7.76-25.53 33.89-33.89c40.35-12.91 129.15-17.3 129.15-17.3s88.76 4.51 129.11 17.42c26.13 8.361 33.9 33.891 33.9 33.891z" fill="#7a7878"/><path fill="#c8c8c8" d="M156.25 196.22h195.83v291.61H156.25z"/><path d="M763.33 176.2c-5.66-.76-11.24-3.29-15.83-7.59-4.5-4.23-7.37-9.52-8.53-15.01-1.729-8.13.261-16.73 6.141-23.01l40.489 37.94c-5.81 6.2-14.13 8.76-22.27 7.67z" fill="#231f20"/><g fill="none" stroke="#231f20"><path d="M102.91 669.98c-1-16.721-11.22-189.461-11.22-289.221v-255.02s7.76-25.53 33.89-33.89c40.35-12.91 129.15-17.3 129.15-17.3s88.76 4.51 129.11 17.42c26.13 8.36 33.9 33.89 33.9 33.89v255.02c0 98.73-10.01 268.93-11.18 288.65l-.12 1.88s-7.26 52.46-27.44 72.63c-20.18 20.18-82.32 30.47-124.28 30.47l-.01-.12c-41.97 0-104.11-10.29-124.29-30.47-20.17-20.17-27.43-72.63-27.43-72.63s-.03-.449-.08-1.309z" stroke-width="21"/><path d="M253.67 548.5c60.93-1.21 127.51-12.11 127.51-12.11l3.23-402.7H253.67l-43.23.04-86.47.08 3.23 402.709s66.57 10.891 127.51 12.101l-1.04-.12z" stroke-width="14"/><path stroke-width="12.912" d="M156.25 196.22h195.83v291.61H156.25z"/><path stroke-width="29.053" stroke-linecap="round" stroke-linejoin="round" d="M204.94 133.73h102.22"/><path d="M407.52 665.77a35.684 35.684 0 0 1-.96 3.761C395.75 703.74 330.67 730 254.64 730c-75.7 0-140.53-26.04-151.73-60.02-.38-1.16-.7-2.33-.96-3.511" stroke-width="21" stroke-linecap="round" stroke-linejoin="round"/><path d="M254.72 697.89l57.64-3.12 11.81-.64c44.48-3.04 50.58-40.84 50.58-40.84l3.1-29.46 5.61-53.41H254.75l-.04-.01H125.99l5.61 53.31 3.11 29.561s6.1 37.81 50.57 40.85l11.32.61 58.12 3.14h.02" stroke-width="14"/><path stroke-width="14" d="M180.46 570.42l8.2 52.78 4.71 30.34h61.34M131.59 623.72h53.71M193.37 653.54l3.23 41.2"/><path stroke-width="14" d="M328.5 570.48l-8.2 52.78-4.71 30.34h-61.33M377.36 623.78h-53.7M315.59 653.6l-3.23 41.17v.03"/><path d="M277 613.13c0 8.91-7.22 16.13-16.13 16.13h-12.32c-8.91 0-16.13-7.22-16.13-16.13v-2.36c0-8.909 7.22-16.14 16.13-16.14h12.32c8.91 0 16.13 7.23 16.13 16.14v2.36z" stroke-width="19.369"/><path d="M719.86 219.68v89.31c0 4.91-3.971 8.89-8.88 8.89H520.73c-4.9 0-8.87-3.98-8.87-8.89V196.92c0-4.89 3.97-8.87 8.87-8.87h190.25c4.909 0 8.88 3.98 8.88 8.87v22.76z" stroke-width="14"/><path stroke-width="14" d="M543.27 201.71h118.65v75.97H543.27zM716.96 291.66H672.4l-20.94 19.96H543.27v-33.94"/><path stroke-width="7" d="M675.18 201.67h14.67v18.22h-14.67zM674.47 234.94h14.67v18.21h-14.67zM567.7 238.27l24.43-21.72h55.14v45.54H567.7z"/><path stroke-width="19.369" d="M509.86 232.31h-27.72M509.86 277.54h-26.72"/><path stroke-width="14" d="M704.53 188.05l34.44-34.45M719.86 219.68l43.47-43.48M480.28 277.54v15.8h-26.61V219h26.61v13.31zM745.11 130.59c-5.88 6.28-7.87 14.88-6.141 23.01 1.16 5.49 4.03 10.78 8.53 15.01 4.59 4.3 10.17 6.83 15.83 7.59 8.14 1.09 16.46-1.47 22.27-7.67"/></g><path fill="none" d="M0 0h850.394v850.394H0z"/></svg>