<svg xmlns="http://www.w3.org/2000/svg" width="850.394" height="850.394" viewBox="0 0 850.394 850.394" overflow="visible"><path d="M210.12 65.97c3.97 14.23 17.96 56.92 44.44 63.05 31.85 7.37 146.31 22.31 171.32 35.82 25 13.51 84.23 89.8 139.83 218.88 50.61 117.5 83.79 194.22 83.79 236.15 0 41.92-100.34 142.61-168.74 171.29l-.029.53-167.661-9.7c21.75-32.74 140.53-155.34 183.13-178.72 0 0-65.57-98.02-112.93-178.74-46.85-33.82-63.4 95.8-65.73 120.71-4.14 44.229-8.89 172.279-8.89 212.479L210 66l.12-.03zM452.76 448.4c7.24 0 13.101-5.561 13.101-12.41 0-6.851-5.86-12.41-13.101-12.41s-13.1 5.56-13.1 12.41c0 6.85 5.86 12.41 13.1 12.41z" fill="#ffeec8"/><path d="M465.86 435.99c0 6.85-5.86 12.41-13.101 12.41s-13.1-5.561-13.1-12.41c0-6.851 5.859-12.41 13.1-12.41s13.101 5.56 13.101 12.41z" fill="#9e5c26"/><g fill="none" stroke="#231f20"><path d="M208.92 61.36s.39 1.72 1.2 4.61c3.97 14.23 17.96 56.92 44.44 63.05 31.85 7.37 146.31 22.31 171.32 35.82 25 13.51 84.23 89.8 139.83 218.88 50.61 117.5 83.79 194.22 83.79 236.15 0 41.92-100.34 142.61-168.74 171.29" stroke-width="19.858"/><path d="M346.16 356.14c8.68 18.51 21.96 42.56 37.11 68.39 47.36 80.72 112.93 178.74 112.93 178.74-42.6 23.38-161.38 145.98-183.13 178.72" stroke-width="19.858"/><path d="M383.29 424.54c-.01 0-.01-.01-.02-.01-46.85-33.82-63.4 95.8-65.73 120.71-4.14 44.229-8.89 172.279-8.89 212.479" stroke-width="19.858"/><path d="M465.86 435.99c0 6.85-5.86 12.41-13.101 12.41s-13.1-5.561-13.1-12.41c0-6.851 5.859-12.41 13.1-12.41s13.101 5.56 13.101 12.41z" stroke-width="7"/></g><path fill="none" d="M0 0h850.394v850.394H0z"/><g><g fill="none" stroke="#231f20" stroke-width="14"><path d="M616.736 301.162L475.29 413.724M488.083 331.06l-13.607 83.577 84.56 5.414"/></g></g></svg>