<svg xmlns="http://www.w3.org/2000/svg" width="850.394" height="850.394" viewBox="0 0 850.394 850.394" overflow="visible"><path d="M766.61 130.83v262.31L646 392h-3.28v-67.64h2.61c39.8-6.66 70.13-41.26 70.13-82.95 0-46.46-37.66-84.12-84.11-84.12-23.229 0-44.26 9.42-59.479 24.64v3.2H203.95V90.79h562.66v40.04zm-453.28 25.01c2.23-6.68 3.34-13.02 3.34-19.02 0-6.55-1.52-11.55-4.58-14.99s-6.96-5.16-11.71-5.16c-4.7 0-8.97 1.8-12.82 5.4-3.84 3.6-6.99 9.09-9.45 16.47-2 6.06-3 12.03-3 17.92 0 6.51 1.54 11.48 4.62 14.92 3.09 3.44 7.01 5.16 11.76 5.16s9.02-1.78 12.81-5.34c3.79-3.56 6.8-8.68 9.03-15.36zm-59.55 19.64l12.32-58.94h-7.01c-5.37 5.73-12.98 10.75-22.81 15.06l-2.19 10.25c2.47-.53 5.26-1.44 8.37-2.72 3.12-1.28 5.87-2.69 8.25-4.24l-8.49 40.59h11.56z" fill="#fff5b4"/><path d="M642.72 392v95.49H80.06V185.13h562.66V392zm-51.15-56.25c0-46.45-37.66-84.11-84.11-84.11-46.46 0-84.12 37.66-84.12 84.11s37.66 84.11 84.12 84.11c46.45 0 84.11-37.66 84.11-84.11zm-402.14-85.57c2.23-6.68 3.35-13.01 3.35-19.01 0-6.56-1.53-11.56-4.59-15-3.05-3.44-6.96-5.16-11.71-5.16-4.7 0-8.97 1.8-12.81 5.4-3.85 3.6-7 9.09-9.45 16.48-2 6.05-3 12.02-3 17.91 0 6.51 1.54 11.48 4.62 14.92 3.08 3.44 7 5.16 11.75 5.16s9.02-1.78 12.82-5.34c3.79-3.56 6.8-8.68 9.02-15.36zm-42.23-23.46c0-4.56-1.56-8.32-4.67-11.28-3.12-2.95-7.41-4.43-12.87-4.43-4.98 0-9.13 1.44-12.44 4.33-3.32 2.89-5.43 7.06-6.33 12.49l11.18 1.68c.69-3.59 1.72-6.08 3.07-7.45s2.93-2.05 4.74-2.05c1.78 0 3.24.61 4.4 1.84 1.15 1.22 1.73 2.82 1.73 4.79 0 1.22-.34 2.6-1.03 4.11-.7 1.52-1.97 3.32-3.83 5.4-1.04 1.14-3.52 3.6-7.45 7.39-5.23 4.98-8.83 8.58-10.8 10.82a34.981 34.981 0 0 0-4.92 7.25c-1.32 2.6-2.16 5.33-2.53 8.21h35.56l2.19-10.44h-20.31c1.06-1.36 2.18-2.64 3.34-3.86 1.16-1.21 3.52-3.47 7.09-6.79 3.58-3.32 6.15-5.89 7.72-7.7 2.19-2.56 3.76-5 4.72-7.33.96-2.34 1.44-4.66 1.44-6.98z" fill="#fff5b4"/><path d="M181.59 228.44c0 3.61-.68 8.51-2.05 14.69-1.73 7.79-3.7 13.01-5.93 15.66-1.67 1.98-3.57 2.97-5.72 2.97-1.62 0-2.93-.64-3.96-1.93-1.02-1.28-1.53-3.5-1.53-6.66 0-3.91.73-8.95 2.18-15.14 1.69-7.14 3.71-12.13 6.05-14.97 1.58-1.95 3.4-2.93 5.44-2.93 1.61 0 2.93.65 3.97 1.95 1.03 1.3 1.55 3.42 1.55 6.36zM305.49 134.1c0 3.61-.69 8.51-2.06 14.69-1.72 7.79-3.7 13.01-5.93 15.66-1.66 1.98-3.57 2.97-5.72 2.97-1.61 0-2.93-.65-3.95-1.93-1.02-1.28-1.53-3.51-1.53-6.66 0-3.91.72-8.95 2.18-15.14 1.69-7.14 3.7-12.13 6.04-14.97 1.59-1.95 3.4-2.93 5.44-2.93 1.62 0 2.94.65 3.97 1.95 1.04 1.3 1.56 3.42 1.56 6.36z" fill="#fff5b4"/><path d="M432.77 660.71v42.46c0 30.21-37.549 54.68-83.89 54.68-46.32 0-83.67-24.26-83.67-54.46V664.6c3.06 28.381 39.36 50.79 83.67 50.79 46.34 0 83.89-24.48 83.89-54.68z" fill="#9c5c25"/><path d="M632.25 588.1v42.46c0 30.19-37.56 54.66-83.89 54.66-46.08 0-83.29-24-83.67-53.979v-39.25c3.06 28.37 39.35 50.77 83.67 50.77 46.33-.001 83.89-24.471 83.89-54.661z" fill="#f6cc4b"/><path d="M507.46 251.64c46.45 0 84.11 37.66 84.11 84.11s-37.66 84.11-84.11 84.11c-46.46 0-84.12-37.66-84.12-84.11s37.66-84.11 84.12-84.11z" fill="#cb82b7"/><path d="M715.46 241.41c0 41.69-30.33 76.29-70.13 82.95h-2.61V185.13h-70.85v-3.2c15.22-15.22 36.25-24.64 59.479-24.64 46.451 0 84.111 37.66 84.111 84.12zM464.69 591.99c-.141-1.29-.21-2.58-.21-3.891 0-30.199 37.55-54.67 83.88-54.67s83.89 24.471 83.89 54.67c0 30.19-37.56 54.66-83.89 54.66-44.32.001-80.61-22.399-83.67-50.769z" fill="#f6cc4b"/><path d="M265.21 664.6c-.14-1.29-.21-2.58-.21-3.89 0-30.19 37.56-54.66 83.88-54.66 46.34 0 83.89 24.47 83.89 54.66 0 30.2-37.549 54.68-83.89 54.68-44.31 0-80.61-22.41-83.67-50.79z" fill="#9c5c25"/><path d="M316.67 136.82c0 6-1.11 12.34-3.34 19.02-2.23 6.68-5.24 11.8-9.03 15.36-3.79 3.56-8.06 5.34-12.81 5.34s-8.67-1.72-11.76-5.16c-3.08-3.44-4.62-8.41-4.62-14.92 0-5.89 1-11.86 3-17.92 2.46-7.38 5.61-12.87 9.45-16.47 3.85-3.6 8.12-5.4 12.82-5.4 4.75 0 8.65 1.72 11.71 5.16s4.58 8.44 4.58 14.99zm-13.24 11.97c1.37-6.18 2.06-11.08 2.06-14.69 0-2.94-.52-5.06-1.56-6.36-1.03-1.3-2.35-1.95-3.97-1.95-2.04 0-3.85.98-5.44 2.93-2.34 2.84-4.35 7.83-6.04 14.97-1.46 6.19-2.18 11.23-2.18 15.14 0 3.15.51 5.38 1.53 6.66 1.02 1.28 2.34 1.93 3.95 1.93 2.15 0 4.06-.99 5.72-2.97 2.23-2.65 4.21-7.87 5.93-15.66zM266.1 116.54l-12.32 58.94h-11.56l8.49-40.59c-2.38 1.55-5.13 2.96-8.25 4.24-3.11 1.28-5.9 2.19-8.37 2.72l2.19-10.25c9.83-4.31 17.44-9.33 22.81-15.06h7.01zM192.78 231.17c0 6-1.12 12.33-3.35 19.01-2.22 6.68-5.23 11.8-9.02 15.36-3.8 3.56-8.07 5.34-12.82 5.34s-8.67-1.72-11.75-5.16c-3.08-3.44-4.62-8.41-4.62-14.92 0-5.89 1-11.86 3-17.91 2.45-7.39 5.6-12.88 9.45-16.48 3.84-3.6 8.11-5.4 12.81-5.4 4.75 0 8.66 1.72 11.71 5.16 3.06 3.44 4.59 8.44 4.59 15zm-13.24 11.96c1.37-6.18 2.05-11.08 2.05-14.69 0-2.94-.52-5.06-1.55-6.36-1.04-1.3-2.36-1.95-3.97-1.95-2.04 0-3.86.98-5.44 2.93-2.34 2.84-4.36 7.83-6.05 14.97-1.45 6.19-2.18 11.23-2.18 15.14 0 3.16.51 5.38 1.53 6.66 1.03 1.29 2.34 1.93 3.96 1.93 2.15 0 4.05-.99 5.72-2.97 2.23-2.65 4.2-7.87 5.93-15.66zM142.53 215.44c3.11 2.96 4.67 6.72 4.67 11.28 0 2.32-.48 4.64-1.44 6.98-.96 2.33-2.53 4.77-4.72 7.33-1.57 1.81-4.14 4.38-7.72 7.7-3.57 3.32-5.93 5.58-7.09 6.79-1.16 1.22-2.28 2.5-3.34 3.86h20.31l-2.19 10.44h-35.56c.37-2.88 1.21-5.61 2.53-8.21 1.31-2.59 2.96-5.01 4.92-7.25 1.97-2.24 5.57-5.84 10.8-10.82 3.93-3.79 6.41-6.25 7.45-7.39 1.86-2.08 3.13-3.88 3.83-5.4.69-1.51 1.03-2.89 1.03-4.11 0-1.97-.58-3.57-1.73-4.79-1.16-1.23-2.62-1.84-4.4-1.84-1.81 0-3.39.68-4.74 2.05s-2.38 3.86-3.07 7.45l-11.18-1.68c.9-5.43 3.01-9.6 6.33-12.49 3.31-2.89 7.46-4.33 12.44-4.33 5.46 0 9.75 1.48 12.87 4.43z" fill="#231f20"/><g fill="none" stroke="#231f20"><path d="M632.25 588.1c0-30.199-37.56-54.67-83.89-54.67s-83.88 24.471-83.88 54.67c0 1.311.069 2.601.21 3.891 3.06 28.37 39.35 50.77 83.67 50.77 46.33-.001 83.89-24.471 83.89-54.661z" stroke-width="14"/><path d="M464.68 630.77c0 .16 0 .311.011.471.38 29.979 37.59 53.979 83.67 53.979 46.33 0 83.89-24.47 83.89-54.66M632.25 588.1v44.33M464.69 591.12V632.64M432.77 660.71c0-30.19-37.549-54.66-83.89-54.66-46.32 0-83.88 24.47-83.88 54.66 0 1.31.07 2.6.21 3.89 3.06 28.381 39.36 50.79 83.67 50.79 46.34 0 83.89-24.48 83.89-54.68z" stroke-width="14"/><path d="M265.21 703.39c0 30.2 37.35 54.46 83.67 54.46 46.34 0 83.89-24.47 83.89-54.68M432.77 660.71v44.35M265.21 663.74v41.53" stroke-width="14"/><path stroke-width="21" d="M203.95 181.16V90.79h562.66v40.04"/><path stroke-width="20.46" d="M766.61 130.83v262.31L646 392"/><path d="M571.87 181.93c15.22-15.22 36.25-24.64 59.479-24.64 46.45 0 84.11 37.66 84.11 84.12 0 41.69-30.33 76.29-70.13 82.95" stroke-width="14"/><path d="M234.09 141.85l2.19-10.25c9.83-4.31 17.44-9.33 22.81-15.06h7.01l-12.32 58.94h-11.56l8.49-40.59c-2.38 1.55-5.13 2.96-8.25 4.24-3.11 1.28-5.9 2.19-8.37 2.72zM275.11 156.46c0-5.89 1-11.86 3-17.92 2.46-7.38 5.61-12.87 9.45-16.47 3.85-3.6 8.12-5.4 12.82-5.4 4.75 0 8.65 1.72 11.71 5.16s4.58 8.44 4.58 14.99c0 6-1.11 12.34-3.34 19.02-2.23 6.68-5.24 11.8-9.03 15.36-3.79 3.56-8.06 5.34-12.81 5.34s-8.67-1.72-11.76-5.16c-3.08-3.44-4.62-8.41-4.62-14.92z" stroke-width="6.82"/><path d="M286.3 158.83c0 3.15.51 5.38 1.53 6.66 1.02 1.28 2.34 1.93 3.95 1.93 2.15 0 4.06-.99 5.72-2.97 2.23-2.65 4.21-7.87 5.93-15.66 1.37-6.18 2.06-11.08 2.06-14.69 0-2.94-.52-5.06-1.56-6.36-1.03-1.3-2.35-1.95-3.97-1.95-2.04 0-3.85.98-5.44 2.93-2.34 2.84-4.35 7.83-6.04 14.97-1.46 6.19-2.18 11.23-2.18 15.14z" stroke-width="6.82"/><path stroke-width="21" d="M642.72 225.17v262.32H80.06V185.13h562.66v40.04"/><path d="M591.57 335.75c0 46.45-37.66 84.11-84.11 84.11-46.46 0-84.12-37.66-84.12-84.11s37.66-84.11 84.12-84.11c46.45 0 84.11 37.66 84.11 84.11z" stroke-width="14"/><path d="M122.07 229.51l-11.18-1.68c.9-5.43 3.01-9.6 6.33-12.49 3.31-2.89 7.46-4.33 12.44-4.33 5.46 0 9.75 1.48 12.87 4.43 3.11 2.96 4.67 6.72 4.67 11.28 0 2.32-.48 4.64-1.44 6.98-.96 2.33-2.53 4.77-4.72 7.33-1.57 1.81-4.14 4.38-7.72 7.7-3.57 3.32-5.93 5.58-7.09 6.79-1.16 1.22-2.28 2.5-3.34 3.86h20.31l-2.19 10.44h-35.56c.37-2.88 1.21-5.61 2.53-8.21 1.31-2.59 2.96-5.01 4.92-7.25 1.97-2.24 5.57-5.84 10.8-10.82 3.93-3.79 6.41-6.25 7.45-7.39 1.86-2.08 3.13-3.88 3.83-5.4.69-1.51 1.03-2.89 1.03-4.11 0-1.97-.58-3.57-1.73-4.79-1.16-1.23-2.62-1.84-4.4-1.84-1.81 0-3.39.68-4.74 2.05s-2.38 3.86-3.07 7.45zM151.22 250.8c0-5.89 1-11.86 3-17.91 2.45-7.39 5.6-12.88 9.45-16.48 3.84-3.6 8.11-5.4 12.81-5.4 4.75 0 8.66 1.72 11.71 5.16 3.06 3.44 4.59 8.44 4.59 15 0 6-1.12 12.33-3.35 19.01-2.22 6.68-5.23 11.8-9.02 15.36-3.8 3.56-8.07 5.34-12.82 5.34s-8.67-1.72-11.75-5.16c-3.08-3.44-4.62-8.41-4.62-14.92z" stroke-width="6.82"/><path d="M162.4 253.17c0 3.16.51 5.38 1.53 6.66 1.03 1.29 2.34 1.93 3.96 1.93 2.15 0 4.05-.99 5.72-2.97 2.23-2.65 4.2-7.87 5.93-15.66 1.37-6.18 2.05-11.08 2.05-14.69 0-2.94-.52-5.06-1.55-6.36-1.04-1.3-2.36-1.95-3.97-1.95-2.04 0-3.86.98-5.44 2.93-2.34 2.84-4.36 7.83-6.05 14.97-1.45 6.19-2.18 11.23-2.18 15.14z" stroke-width="6.82"/></g><path fill="none" d="M0 0h850.394v850.394H0z"/></svg>