<svg xmlns="http://www.w3.org/2000/svg" width="850.394" height="850.394" viewBox="0 0 850.394 850.394" overflow="visible"><path d="M662.51 416.52c18.16 23.35-64.88 61.41-96.89 73.52-32 12.12-83.9-16.43-99.47-39.79l-.66-.04c1.069-20.15 1.5-39.39.37-56.16l.29-.02s69.199-.87 120.239-3.46c14.971-.76 29.86-.78 44.38-1.32 3.771 1.51 16.541 7.73 31.741 27.27z" fill="#f6cc4b"/><path d="M630.77 389.25c-14.52.54-29.409.56-44.38 1.32-51.04 2.59-120.239 3.46-120.239 3.46l-.29.02c-.69-10.28-1.96-19.64-4.04-27.7 0 0 105.12-82.01 168.68-102.94 70.93-23.36 128.89-40.66 149.65-5.19 0 0-18.16 64.87-55.36 100.34-26.291 25.06-59.051 29.39-94.021 30.69zM383.76 451.08l-.66.04c-15.57 23.35-67.47 51.899-99.47 39.79-32.01-12.11-115.05-50.17-96.89-73.53 15.18-19.51 27.94-25.74 31.73-27.26 14.52.54 29.42.55 44.4 1.31 51.03 2.6 120.23 3.46 120.23 3.46l.29.02c-1.13 16.77-.7 36.02.37 56.17z" fill="#f6cc4b"/><path d="M124.46 359.43C87.27 323.96 69.1 259.08 69.1 259.08c20.76-35.46 78.72-18.16 149.65 5.19 63.57 20.94 168.68 102.94 168.68 102.94-2.08 8.07-3.35 17.42-4.04 27.7l-.29-.02s-69.2-.86-120.23-3.46c-14.98-.76-29.88-.77-44.4-1.31-34.97-1.3-67.73-5.64-94.01-30.69z" fill="#f6cc4b"/><path d="M461.82 366.35c2.08 8.06 3.35 17.42 4.04 27.7 1.13 16.77.699 36.01-.37 56.16-.73 13.88-1.76 28.19-2.8 42.43-3.46 47.58-21.91 114.62-38.351 113.761l-.9-.011c-16.44.87-33.42-65.31-36.88-112.89-1.04-14.23-2.07-28.54-2.8-42.42-1.07-20.15-1.5-39.4-.37-56.17.69-10.28 1.96-19.63 4.04-27.7 3.9-15.17 13.44-22.95 22-26.94l1.08-.63c3.66 2.66 8.07 4.21 12.82 4.21 5.14 0 9.89-1.82 13.72-4.9l2.771.45c8.55 4 18.1 11.78 22 26.95z" fill="#9c5c25"/><path d="M423.33 294.55c12.66 0 22.92 11.04 22.92 24.65 0 8.09-3.62 15.26-9.2 19.75-3.83 3.08-8.58 4.9-13.72 4.9-4.75 0-9.16-1.55-12.82-4.21-6.1-4.43-10.11-11.93-10.11-20.44 0-13.61 10.27-24.65 22.93-24.65z" fill="#9c5c25"/><g fill="none" stroke="#231f20" stroke-width="20.761"><path d="M410.51 339.64c-6.1-4.43-10.11-11.93-10.11-20.44 0-13.61 10.27-24.65 22.93-24.65s22.92 11.04 22.92 24.65c0 8.09-3.62 15.26-9.2 19.75-3.83 3.08-8.58 4.9-13.72 4.9-4.75 0-9.16-1.55-12.82-4.21z"/><path d="M286.22 260.81s67.47 43.25 110.72 48.44M387.43 367.21s-105.11-82-168.68-102.94c-70.93-23.35-128.89-40.65-149.65-5.19 0 0 18.17 64.88 55.36 100.35 26.28 25.05 59.04 29.39 94.01 30.69 14.52.54 29.42.55 44.4 1.31 51.03 2.6 120.23 3.46 120.23 3.46" stroke-linecap="round" stroke-linejoin="round"/><path d="M219.61 389.7s-.4.12-1.14.42c-3.79 1.52-16.55 7.75-31.73 27.26-18.16 23.36 64.88 61.42 96.89 73.53 32 12.109 83.9-16.44 99.47-39.79M439.82 339.4c8.55 4 18.1 11.78 22 26.95 2.08 8.06 3.35 17.42 4.04 27.7 1.13 16.77.699 36.01-.37 56.16-.73 13.88-1.76 28.19-2.8 42.43-3.46 47.58-21.91 114.62-38.351 113.761l-.9-.011c-16.44.87-33.42-65.31-36.88-112.89-1.04-14.23-2.07-28.54-2.8-42.42-1.07-20.15-1.5-39.4-.37-56.17.69-10.28 1.96-19.63 4.04-27.7 3.9-15.17 13.44-22.95 22-26.94"/><path d="M563.03 259.95s-67.471 43.25-110.721 48.44M461.82 366.35s105.12-82.01 168.68-102.94c70.93-23.36 128.89-40.66 149.65-5.19 0 0-18.16 64.87-55.36 100.34-26.29 25.06-59.05 29.39-94.021 30.69-14.52.54-29.409.56-44.38 1.32-51.04 2.59-120.239 3.46-120.239 3.46" stroke-linecap="round" stroke-linejoin="round"/><path d="M629.64 388.84s.391.12 1.13.41c3.771 1.51 16.54 7.73 31.74 27.27 18.16 23.35-64.88 61.41-96.89 73.52-32 12.12-83.9-16.43-99.47-39.79"/></g><path fill="none" d="M0 0h850.394v850.394H0z"/></svg>