<?xml version="1.0" encoding="iso-8859-1"?>
<!-- Generator: Adobe Illustrator 12.0.1, SVG Export Plug-In . SVG Version: 6.00 Build 51448)  -->
<!DOCTYPE svg PUBLIC "-//W3C//DTD SVG 1.1//EN" "http://www.w3.org/Graphics/SVG/1.1/DTD/svg11.dtd" [
	<!ENTITY ns_svg "http://www.w3.org/2000/svg">
	<!ENTITY ns_xlink "http://www.w3.org/1999/xlink">
]>
<svg  version="1.1" id="Layer_1" xmlns="&ns_svg;" xmlns:xlink="&ns_xlink;" width="850.89" height="850.89"
	 viewBox="0 0 850.89 850.89" style="overflow:visible;enable-background:new 0 0 850.89 850.89;" xml:space="preserve">
<g>
	<g id="XMLID_3_">
		<g>
			<path style="fill:#ED107F;" d="M486.66,527.32l-36.08,33.13l-11.48,10.54l-77.55,71.21l-38.42-26.54l-5.44-1.45
				c7.16-8.37,12.46-19.22,12.26-31.28c-0.05-3.479-4.84-7.689-12.51-12.199l1.82-0.221c7.23-0.109,19.44-14.72,21.63-28.33
				L486.66,527.32z"/>
			<path d="M643.57,301.21c-3.7,0-6.69-4.45-6.69-9.95s2.99-9.95,6.69-9.95c3.71,0,6.71,4.45,6.71,9.95S647.28,301.21,643.57,301.21
				z"/>
			<path style="fill:#ABDA4D;" d="M643.57,281.31c-3.7,0-6.69,4.45-6.69,9.95s2.99,9.95,6.69,9.95c3.71,0,6.71-4.45,6.71-9.95
				S647.28,281.31,643.57,281.31z M639.42,310.58c-8.85-5.92-11.45-17.57-5.8-26.02c0.81-1.2,2.33-11.8,2.63-12.31v-0.37
				c5.3,0.12,10.57,1.16,15.22,2.96c6.96,2.71,13.29,6.31,19.25,10.45l-0.51,0.74c-0.1,0,1.1,14.33-4.53,19.96
				C658.49,313.18,648.26,316.48,639.42,310.58z"/>
			<path style="fill:#FFFFFF;" d="M607.7,285.74c5.63-10.05,17.149-14.11,28.55-13.86v0.37c-0.3,0.51-1.82,11.11-2.63,12.31
				c-5.65,8.45-3.05,20.1,5.8,26.02c8.84,5.9,19.07,2.6,26.26-4.59c5.63-5.63,4.431-19.96,4.53-19.96l0.51-0.74
				c14.53,10.08,26.811,23.35,40.57,34.56l-0.58,0.71c-16.44,12.39-40.35,15.32-60.6,10.81c-20.721-4.61-34.15-21.34-42.4-45.62
				L607.7,285.74z"/>
			<path style="fill:#F0947D;" d="M466.86,483.88c8.67,3.34,16.05,14.21,22.29,20.92c18.01,19.34,40.84,36.74,65.609,45.24
				c-8.12,10.46-29.859,10.94-41.71,11.84c-17.08,1.29-44.189,6.75-60.22,1.03l-2.25-2.46l36.08-33.13l-43.58-37.71l1.17-1.36
				C454.38,484.7,455.92,479.66,466.86,483.88z"/>
			<path style="fill:#ABDA4D;" d="M488.98,233.16c3.699,0,6.699,4.46,6.699,9.96s-3,9.95-6.699,9.95c-3.7,0-6.7-4.45-6.7-9.95
				S485.28,233.16,488.98,233.16z"/>
			<path style="fill:#FFEEC8;" d="M475.87,177.62l4.38,0.63c21.55,8.36,41.12,38.94,35.86,61.64l-2.38-0.53
				c-3.32-1.13-9.221-9.62-13.551-12.42c-8.189-5.3-16.71-6.59-26.3-7.88l-0.49,0.1c-0.79-3.73-1.609-7.57-2.43-11.53
				C469.05,198.46,471.26,188.06,475.87,177.62z"/>
			<path style="fill:#FFFFFF;" d="M482.28,243.12c0,5.5,3,9.95,6.7,9.95c3.699,0,6.699-4.45,6.699-9.95s-3-9.96-6.699-9.96
				C485.28,233.16,482.28,237.62,482.28,243.12z M499.87,263.43c-6.8,0.06-11.58-0.5-17.72-4.52l-0.801,0.13
				c-1.979-12.14-4.819-25.18-7.96-39.88l0.49-0.1c9.59,1.29,18.11,2.58,26.3,7.88c4.33,2.8,10.23,11.29,13.551,12.42l2.38,0.53
				c-1.021,4.47-3.011,8.63-6.141,12.25C506.69,255.94,503.31,259.7,499.87,263.43z"/>
			<path style="fill:#FFEEC8;" d="M607.71,285.75c8.25,24.28,21.68,41.01,42.4,45.62c20.25,4.51,44.159,1.58,60.6-10.81l0.58-0.71
				c-13.76-11.21-26.04-24.48-40.57-34.56c-5.96-4.14-12.29-7.74-19.25-10.45c-4.649-1.8-9.92-2.84-15.22-2.96
				c-11.4-0.25-22.92,3.81-28.55,13.86L607.71,285.75z M483.88,280.19c5.37-5.49,10.75-11.08,15.99-16.76
				c3.439-3.73,6.82-7.49,10.1-11.29c3.13-3.62,5.12-7.78,6.141-12.25c5.26-22.7-14.311-53.28-35.86-61.64l-4.38-0.63
				c8.68-19.69,25.88-39.54,40.06-51.64l264.32,124.27l-60,402l0.4,4.23c-28.61,4.97-100.641,20.71-115.78,23.64
				c-23.14,4.479-46.47,8.1-70.11,8.88c-16.55,0.54-35.97,1.6-51.89-3.74c-9.601-3.22-18.021-10.76-25.51-17.31
				c-10.71-9.37-23.73-21.03-26.311-35.33c-3.04-16.82,11.21-43.28,9.2-60.37l-1.15-1.26l11.48-10.54l2.25,2.46
				c16.03,5.72,43.14,0.26,60.22-1.03c11.851-0.899,33.59-1.38,41.71-11.84c-24.77-8.5-47.6-25.9-65.609-45.24
				c-6.24-6.71-13.62-17.58-22.29-20.92c-10.94-4.22-12.48,0.82-22.61,4.37l-1.17,1.36l-3.08-2.67l2.8-3.23
				c21.05-38.09,26.07-74.18,26.07-74.18l1.149-3.73c4.12,1.09,8.011,2.96,11.881,5.96c4.71,3.66,13.54,18.67,20.399,12.07
				c4.7-4.52-1.59-14.39-5.37-17.09c-8.569-6.11-18.989-5.2-28.729-3.29c-2.78,0.54-5.17,0.8-7.33,0.79c-0.45,0-0.89-0.02-1.32-0.04
				c-6.479-0.39-11.05-3.4-18.649-8.55c-5.431-3.67-11.58-7.53-15.141-13.19C407.87,353.98,445.59,319.4,483.88,280.19z"/>
			<path style="fill:#FFEEC8;" d="M402.22,442.35c4.92,4.771,6.52,10.971,5.88,16.99c-1.43,13.521-14.12,26.17-25.93,19.99
				c-10.12-5.311-22.67-12.811-35.56-19.7c-22.76-12.189-46.57-22.5-59.85-15.59c-20.79,10.8-53.9,29.28-53.9,29.28
				s51.13,19.47,82.86,37.779c12.08,6.971,21.34,13.771,23.91,19.271c1.65,3.54,1.93,7.63,1.26,11.81
				c-2.19,13.61-14.4,28.221-21.63,28.33l-1.82,0.221c7.67,4.51,12.46,8.72,12.51,12.199c0.2,12.061-5.1,22.91-12.26,31.28
				c-9.03,10.57-21.02,17.19-28.62,17.32c2.64,2.149,4.15,4.279,4.18,6.359c0.28,17.841-14.69,31.301-32.93,40.351
				c0,0-34.73,13.609-32.87-7.01c1.3-14.681-45.27-16.931-73.33-1.74c-26.74,14.51-26.53,23.529-49.89,35.6l-1.98-4.84l-1.91-240.28
				c40.33-20.16,72.08-35.95,79.23-39.3c91.59-42.91,113.66-40.57,113.66-40.57S371.06,412.17,402.22,442.35z"/>
		</g>
		<g>
			<path style="fill:none;stroke:#231F20;stroke-width:21;" d="M480.25,178.25c21.55,8.36,41.12,38.94,35.86,61.64
				c-1.021,4.47-3.011,8.63-6.141,12.25c-3.279,3.8-6.66,7.56-10.1,11.29c-5.24,5.68-10.62,11.27-15.99,16.76
				c-38.29,39.21-76.01,73.79-58.12,102.27c3.561,5.66,9.71,9.52,15.141,13.19c7.6,5.15,12.17,8.16,18.649,8.55
				c0.431,0.02,0.87,0.04,1.32,0.04c2.16,0.01,4.55-0.25,7.33-0.79c9.74-1.91,20.16-2.82,28.729,3.29
				c3.78,2.7,10.07,12.57,5.37,17.09c-6.859,6.6-15.689-8.41-20.399-12.07c-3.87-3-7.761-4.87-11.881-5.96
				c-2.909-0.77-5.939-1.15-9.149-1.28c-0.44-0.02-0.88-0.03-1.32-0.04c-1.21-0.02-2.45,0-3.72,0.04"/>
			<path style="fill:none;stroke:#231F20;stroke-width:14;" d="M604.7,294.24c0.59-3.21,1.609-6.04,3-8.5
				c5.63-10.05,17.149-14.11,28.55-13.86c5.3,0.12,10.57,1.16,15.22,2.96c6.96,2.71,13.29,6.31,19.25,10.45
				c14.53,10.08,26.811,23.35,40.57,34.56c3.22,2.63,6.52,5.14,9.95,7.47"/>
			<path style="fill:none;stroke:#231F20;stroke-width:14;" d="M607.71,285.75c8.25,24.28,21.68,41.01,42.4,45.62
				c20.25,4.51,44.159,1.58,60.6-10.81"/>
			<path style="fill:none;stroke:#231F20;stroke-width:14;" d="M586.66,221.31c21.06-4.59,21.06-4.59,36.84-5.24
				c9.41-0.39,31.06,0.71,40.29,4.08c26.96,9.85,65.74,36,79.25,50.03"/>
			<path style="fill:none;stroke:#231F20;stroke-width:21;" d="M468.87,409.53c0,0-5.021,36.09-26.07,74.18"/>
			<path style="fill:none;stroke:#231F20;stroke-width:7;stroke-linecap:square;stroke-miterlimit:10;" d="M636.25,272.25
				c-0.3,0.51-1.82,11.11-2.63,12.31c-5.65,8.45-3.05,20.1,5.8,26.02c8.84,5.9,19.07,2.6,26.26-4.59
				c5.63-5.63,4.431-19.96,4.53-19.96c0,0,0.021,0.07,0.04,0.22"/>
			<path style="fill:none;stroke:#231F20;stroke-width:21;" d="M444.25,488.25c10.13-3.55,11.67-8.59,22.61-4.37
				c8.67,3.34,16.05,14.21,22.29,20.92c18.01,19.34,40.84,36.74,65.609,45.24c-8.12,10.46-29.859,10.94-41.71,11.84
				c-17.08,1.29-44.189,6.75-60.22,1.03"/>
			<path style="fill:none;stroke:#231F20;stroke-width:21;" d="M100.34,459.97c40.33-20.16,72.08-35.95,79.23-39.3
				c91.59-42.91,113.66-40.57,113.66-40.57s77.83,32.07,108.99,62.25c4.92,4.771,6.52,10.971,5.88,16.99
				c-1.43,13.521-14.12,26.17-25.93,19.99c-10.12-5.311-22.67-12.811-35.56-19.7c-22.76-12.189-46.57-22.5-59.85-15.59
				c-20.79,10.8-53.9,29.28-53.9,29.28s51.13,19.47,82.86,37.779c12.08,6.971,21.34,13.771,23.91,19.271
				c1.65,3.54,1.93,7.63,1.26,11.81c-2.19,13.61-14.4,28.221-21.63,28.33"/>
			<path style="fill:none;stroke:#231F20;stroke-width:21;" d="M205.38,528.28c0,0,80.47,23.85,112.06,42.45
				c7.67,4.51,12.46,8.72,12.51,12.199c0.2,12.061-5.1,22.91-12.26,31.28c-9.03,10.57-21.02,17.19-28.62,17.32"/>
			<path style="fill:none;stroke:#231F20;stroke-width:21;" d="M184.13,598.2c0,0,84.94,17.069,104.94,33.33
				c2.64,2.149,4.15,4.279,4.18,6.359c0.28,17.841-14.69,31.301-32.93,40.351c0,0-34.73,13.609-32.87-7.01
				c1.3-14.681-45.27-16.931-73.33-1.74c-26.74,14.51-26.53,23.529-49.89,35.6c-1.14,0.601-2.35,1.2-3.62,1.811"/>
			<polyline style="fill:none;stroke:#231F20;stroke-width:21;" points="408.1,459.34 440,486.94 443.08,489.61 486.66,527.32 
				450.58,560.45 439.1,570.99 361.55,642.2 323.13,615.66 			"/>
			<path style="fill:none;stroke:#231F20;stroke-width:21;" d="M440.25,572.25c2.01,17.09-12.24,43.55-9.2,60.37
				c2.58,14.3,15.601,25.96,26.311,35.33c7.489,6.55,15.909,14.09,25.51,17.31c15.92,5.34,35.34,4.28,51.89,3.74
				c23.641-0.78,46.971-4.4,70.11-8.88c15.14-2.93,87.17-18.67,115.78-23.64c3.8-0.66,6.83-1.131,8.859-1.351"/>
			<polyline style="fill:none;stroke:#231F20;stroke-width:21;" points="347.58,458.02 346.61,459.63 315.72,511.1 315.71,511.11 
							"/>
			<path style="fill:none;stroke:#231F20;stroke-width:7;stroke-linecap:square;stroke-miterlimit:10;" d="M650.28,291.26
				c0,5.5-3,9.95-6.71,9.95c-3.7,0-6.69-4.45-6.69-9.95s2.99-9.95,6.69-9.95C647.28,281.31,650.28,285.76,650.28,291.26z"/>
			<path style="fill:none;stroke:#231F20;stroke-width:7;stroke-linecap:square;stroke-miterlimit:10;" d="M495.68,243.12
				c0,5.5-3,9.95-6.699,9.95c-3.7,0-6.7-4.45-6.7-9.95s3-9.96,6.7-9.96C492.68,233.16,495.68,237.62,495.68,243.12z"/>
			<path style="fill:none;stroke:#231F20;stroke-width:21;" d="M483.88,280.19c-0.45-6.84-1.33-13.83-2.53-21.15
				c-1.979-12.14-4.819-25.18-7.96-39.88c-0.79-3.73-1.609-7.57-2.43-11.53c-1.91-9.17,0.3-19.57,4.91-30.01
				c8.68-19.69,25.88-39.54,40.06-51.64c0.351-0.31,0.71-0.61,1.061-0.9"/>
			<path style="fill:none;stroke:#231F20;stroke-width:14;" d="M473.88,219.06c9.59,1.29,18.11,2.58,26.3,7.88
				c4.33,2.8,10.23,11.29,13.551,12.42"/>
			<path style="fill:none;stroke:#231F20;stroke-width:18.0443;" d="M482.15,258.91c6.14,4.02,10.92,4.58,17.72,4.52
				c0.35,0,0.72,0,1.08-0.01"/>
			<polyline style="fill:none;stroke:#231F20;" points="340.25,542.25 340.89,542.18 486.66,527.32 			"/>
		</g>
	</g>
</g>
<rect x="0.25" y="0.25" style="fill:none;" width="850.394" height="850.394"/>
</svg>
