<?xml version="1.0" encoding="iso-8859-1"?>
<!-- Generator: Adobe Illustrator 12.0.1, SVG Export Plug-In . SVG Version: 6.00 Build 51448)  -->
<!DOCTYPE svg PUBLIC "-//W3C//DTD SVG 1.1//EN" "http://www.w3.org/Graphics/SVG/1.1/DTD/svg11.dtd" [
	<!ENTITY ns_svg "http://www.w3.org/2000/svg">
	<!ENTITY ns_xlink "http://www.w3.org/1999/xlink">
]>
<svg  version="1.1" id="Layer_1" xmlns="&ns_svg;" xmlns:xlink="&ns_xlink;" width="850.394" height="850.394"
	 viewBox="0 0 850.394 850.394" style="overflow:visible;enable-background:new 0 0 850.394 850.394;" xml:space="preserve">
<g>
	<path style="fill:#231F20;stroke:#231F20;stroke-width:7;" d="M501.387,474.784c0,29.876-20.319,54.082-45.394,54.082
		c-25.065,0-45.39-24.206-45.39-54.082c0-29.873,20.324-54.086,45.39-54.086C481.067,420.698,501.387,444.911,501.387,474.784z"/>
	<path style="fill:#231F20;stroke:#231F20;stroke-width:7;" d="M690.696,438.083c0,29.872-20.328,54.082-45.395,54.082
		c-25.073,0-45.394-24.21-45.394-54.082c0-29.873,20.32-54.086,45.394-54.086C670.368,383.997,690.696,408.21,690.696,438.083z"/>
	<polyline style="fill:none;stroke:#231F20;stroke-width:32;" points="489.737,469.206 489.737,221.956 679.106,167.87 
		679.106,432.083 	"/>
</g>
<g>
	<path style="fill:#231F20;stroke:#231F20;stroke-width:7;" d="M317.594,622.188c0,29.881-20.324,54.086-45.394,54.086
		c-25.07,0-45.394-24.205-45.394-54.086c0-29.864,20.324-54.078,45.394-54.078C297.271,568.11,317.594,592.324,317.594,622.188z"/>
	<line style="fill:none;stroke:#231F20;stroke-width:32;" x1="305.944" y1="616.611" x2="305.944" y2="369.368"/>
</g>
<line style="fill:none;stroke:#231F20;stroke-width:14;" x1="105.053" y1="411.446" x2="746.359" y2="411.446"/>
<line style="fill:none;stroke:#231F20;stroke-width:14;" x1="105.053" y1="495.793" x2="746.359" y2="495.793"/>
<line style="fill:none;stroke:#231F20;stroke-width:14;" x1="105.053" y1="582.717" x2="746.359" y2="582.717"/>
<line style="fill:none;stroke:#231F20;stroke-width:14;" x1="105.053" y1="667.709" x2="746.359" y2="667.709"/>
<rect style="fill:none;" width="850.394" height="850.394"/>
</svg>
