<svg xmlns="http://www.w3.org/2000/svg" width="850.394" height="850.394" viewBox="0 0 850.394 850.394" overflow="visible"><g stroke="#231f20"><path d="M501.387 474.784c0 29.876-20.319 54.082-45.394 54.082-25.065 0-45.39-24.206-45.39-54.082 0-29.873 20.324-54.086 45.39-54.086 25.074 0 45.394 24.213 45.394 54.086zM690.696 438.083c0 29.872-20.328 54.082-45.395 54.082-25.073 0-45.394-24.21-45.394-54.082 0-29.873 20.32-54.086 45.394-54.086 25.067 0 45.395 24.213 45.395 54.086z" fill="#231f20" stroke-width="7"/><path fill="none" stroke-width="32" d="M489.737 469.206v-247.25l189.369-54.086v264.213"/></g><g stroke="#231f20"><path d="M317.594 622.188c0 29.881-20.324 54.086-45.394 54.086-25.07 0-45.394-24.205-45.394-54.086 0-29.864 20.324-54.078 45.394-54.078 25.071 0 45.394 24.214 45.394 54.078z" fill="#231f20" stroke-width="7"/><path fill="none" stroke-width="32" d="M305.944 616.611V369.368"/></g><path fill="none" stroke="#231f20" stroke-width="14" d="M105.053 411.446h641.306M105.053 495.793h641.306M105.053 582.717h641.306M105.053 667.709h641.306"/><path fill="none" d="M0 0h850.394v850.394H0z"/></svg>