<?xml version="1.0" encoding="iso-8859-1"?>
<!-- Generator: Adobe Illustrator 12.0.1, SVG Export Plug-In . SVG Version: 6.00 Build 51448)  -->
<!DOCTYPE svg PUBLIC "-//W3C//DTD SVG 1.1//EN" "http://www.w3.org/Graphics/SVG/1.1/DTD/svg11.dtd" [
	<!ENTITY ns_svg "http://www.w3.org/2000/svg">
	<!ENTITY ns_xlink "http://www.w3.org/1999/xlink">
]>
<svg  version="1.1" id="Layer_1" xmlns="&ns_svg;" xmlns:xlink="&ns_xlink;" width="850.394" height="850.394"
	 viewBox="0 0 850.394 850.394" style="overflow:visible;enable-background:new 0 0 850.394 850.394;" xml:space="preserve">
<g id="XMLID_1_">
	<g>
		<path style="fill:#9C5C25;" d="M321.89,110.73c-15.34,10.74-51.19,27.85-57.78,32.69c-4.51,3.32-8.1,8.01-10.44,13.29
			c-2.1,4.72-3.21,9.9-3.09,14.96c0.26,10.02,3.59,13.62,3.59,28.71c0,7.58,3.43,15.69,7.45,22.64l-28.61,15.05
			c5.24-10.46,3.41-23.38,3.41-23.38c-0.19-19.87-2.62-41.55-2.96-46.25c-1.4-19.48,5.84-49.08,16.33-66.18
			c17.69-28.8,46.5-41.21,90.89-36.04c32.96,3.84,63.09,39.91,63.09,85.6c0,16.02-7.11,33.72,0.89,49.69l-32.48,19.99
			c1.84-2.53,3.17-5.31,3.61-8.47c0.3-2.12,9.88-36.67-4.19-50.75c-15.1-15.09-43.03-44.7-48.59-50.61
			c-0.64-0.67-0.98-1.04-0.98-1.04C321.98,110.66,321.94,110.69,321.89,110.73z"/>
		<polygon style="fill:#FFFFFF;" points="626.49,303.16 628.79,315.05 501.65,347.48 469.89,146.63 482.62,144.95 510.58,330.94 
			624.78,303.73 624.57,302.59 626.32,302.26 		"/>
		<polygon style="fill:#FFFFFF;" points="631.39,314.38 631.39,314.39 628.79,315.05 626.49,303.16 627.46,302.97 743.34,287.61 
			703.98,103.7 716.49,100.78 759.4,299.37 		"/>
		<path style="fill:#EF3E23;" d="M203.9,675.76v35.061c0,13.779-7.79,24.939-17.41,24.939h-46.57c-9.62,0-17.41-11.16-17.41-24.939
			V639.35c1.97-5.92,3.49-12.229,5.52-15.38c6.76,1.37,3.32,11.221,8.27,11.221c4.32-4.311,5.77-16.19,5.77-28.62
			c0-14.641-2.01-30.04-3.71-34.7l11.36-24.86l1.88,0.86h34.89c8.15,0,14.99,8.02,16.88,18.85c-0.38,16.25-0.62,31.36-0.62,43.78
			C202.75,618.7,203.17,645.27,203.9,675.76z"/>
		<path style="fill:#394EA1;" d="M207.2,563.82h209.74l3.07-0.16l0.3,5.729l0.29-0.01c0.73,12.28,1.21,26.311,1.21,41.91
			c0,17.5-1.91,126.19-4.62,168.3l-88.09,1.54l-8.14-144.37l-16.85-0.09l-8.93,144.46l-87.66-5.5
			c-1.5-23.229-2.77-64.229-3.62-99.87V572.81v-8.989H207.2z"/>
		<path style="fill:#FFF5B4;" d="M385,269.88L204,543.06c1.78-60.229,4.81-125.379,4.81-125.379l-2.88,6.29l-57.29-22.78
			c18.33-48.82,43.9-100.39,43.9-100.39c11.4-11.4,33.36-24.8,52.47-35.37c4.48-2.47,8.8-4.79,12.79-6.89l4.93,0.12
			c7.46,18.14,26.41,31.03,48.62,31.03c22.24,0,41.22-12.93,48.65-31.11l1.58-2.37c5.08,2.83,11.08,6.26,17.45,10.06
			C380.99,267.44,382.99,268.64,385,269.88z"/>
		<path style="fill:#FFF5B4;" d="M203.9,563.82v8.989c0-2.1-0.18-4.14-0.53-6.09c0.19-7.689,0.4-15.63,0.63-23.66l181-273.18
			c16.2,9.9,33.6,21.63,43.73,31.77c0,0,26.279,52.96,44.67,102.35l-56.75,23.62l-4.16-9.1l7.52,145.14l-3.07,0.16H207.2H203.9z"/>
		<path style="fill:#EF947D;" d="M308.39,225.13c5.42-0.43,9.85-0.47,17.5-3.92c-2.73,4.48-5.61,9.2-10.49,11.35
			c-6.61,2.93-13.71,2.36-19.15-2.15c-2.02-1.67-5.17-3.65-6.59-5.53C295.03,226.46,303,225.55,308.39,225.13z"/>
		<path style="fill:#EF947D;" d="M306.67,220.53c2.13-5.44,17.17-1.98,21.15-2.38c-0.65,0.98-1.29,2.01-1.93,3.06
			c-7.65,3.45-12.08,3.49-17.5,3.92c-5.39,0.42-13.36,1.33-18.73-0.25c-1.39-1.82-1.17-3.55,3.21-4.82
			c2.73-0.79,5.99-1.41,8.79-0.75C303.15,219.64,305.33,221.08,306.67,220.53z"/>
		<path style="fill:#FFFFFF;" d="M335.33,167.6c0-2.04-1.87-3.68-4.18-3.68c-2.3,0-4.17,1.64-4.17,3.68c0,2.02,1.87,3.66,4.17,3.66
			C333.46,171.26,335.33,169.62,335.33,167.6z M337.34,164.59c0.73,1.05,0.6,1.4,0.6,2.75c0,3.62-3.07,6.55-6.85,6.55
			c-3.78,0-6.85-2.93-6.85-6.55c0-1-0.27-0.91,0.15-1.75l-0.34-0.56c2.21-1.38,4.8-2.2,7.33-2.26c2.2-0.05,4.27,0.41,6.19,1.24
			L337.34,164.59z"/>
		<path style="fill:#FFFFFF;" d="M319.35,169.8c1.08-1.92,2.75-3.56,4.7-4.77l0.34,0.56c-0.42,0.84-0.15,0.75-0.15,1.75
			c0,3.62,3.07,6.55,6.85,6.55c3.78,0,6.85-2.93,6.85-6.55c0-1.35,0.13-1.7-0.6-2.75l0.23-0.58c2.55,1.07,4.83,2.8,6.79,4.87
			l-0.15,0.14c-2.71,2.49-5.83,4.73-9.43,6.01c-2.17,0.77-5.17,0.91-7.46,0.44c-0.96-0.2-2.16-0.43-3.05-0.86
			c-0.75-0.34-1.39-1.15-2.09-1.47c-1.06-0.49-2.23-0.06-3.2-0.67C317.83,171.77,318.69,170.96,319.35,169.8z"/>
		<path style="fill:#FFFFFF;" d="M266.1,165.92c1.92-0.83,3.98-1.28,6.18-1.23c2.53,0.06,5.12,0.88,7.33,2.26l-0.34,0.56
			c0.43,0.85,0.15,0.75,0.15,1.76c0,3.61-3.06,6.54-6.85,6.54c-3.78,0-6.85-2.93-6.85-6.54c0-1.37-0.13-1.71,0.61-2.76L266.1,165.92
			z M268.33,169.51c0,2.03,1.87,3.67,4.17,3.67c2.32,0,4.18-1.64,4.18-3.67c0-2.03-1.86-3.67-4.18-3.67
			C270.2,165.84,268.33,167.48,268.33,169.51z"/>
		<path style="fill:#FFFFFF;" d="M265.72,169.27c0,3.61,3.07,6.54,6.85,6.54c3.79,0,6.85-2.93,6.85-6.54c0-1.01,0.28-0.91-0.15-1.76
			l0.34-0.56c1.96,1.21,3.63,2.85,4.71,4.76c0.65,1.17,1.52,1.97,0.37,2.68c-0.97,0.61-2.15,0.18-3.21,0.66
			c-0.69,0.34-1.33,1.14-2.09,1.49c-0.88,0.41-2.09,0.65-3.05,0.84c-2.28,0.48-5.28,0.34-7.46-0.44c-3.6-1.28-6.71-3.51-9.41-6
			l-0.15-0.14c1.95-2.07,4.23-3.8,6.78-4.88l0.23,0.59C265.59,167.56,265.72,167.9,265.72,169.27z"/>
		<path style="fill:#FFEEC8;" d="M325.89,221.21c0.64-1.05,1.28-2.08,1.93-3.06c-3.98,0.4-19.02-3.06-21.15,2.38
			c-1.34,0.55-3.52-0.89-5.01-1.22c-2.8-0.66-6.06-0.04-8.79,0.75c-4.38,1.27-4.6,3-3.21,4.82c1.42,1.88,4.57,3.86,6.59,5.53
			c5.44,4.51,12.54,5.08,19.15,2.15C320.28,230.41,323.16,225.69,325.89,221.21z M344.36,168.88c-1.96-2.07-4.24-3.8-6.79-4.87
			c-1.92-0.83-3.99-1.29-6.19-1.24c-2.53,0.06-5.12,0.88-7.33,2.26c-1.95,1.21-3.62,2.85-4.7,4.77c-0.66,1.16-1.52,1.97-0.37,2.67
			c0.97,0.61,2.14,0.18,3.2,0.67c0.7,0.32,1.34,1.13,2.09,1.47c0.89,0.43,2.09,0.66,3.05,0.86c2.29,0.47,5.29,0.33,7.46-0.44
			c3.6-1.28,6.72-3.52,9.43-6.01L344.36,168.88z M261.62,223.02c-4.02-6.95-7.45-15.06-7.45-22.64c0-15.09-3.33-18.69-3.59-28.71
			c-0.12-5.06,0.99-10.24,3.09-14.96c2.34-5.28,5.93-9.97,10.44-13.29c6.59-4.84,42.44-21.95,57.78-32.69
			c0.24,0.48,0.61,0.8,1.12,0.94c5.56,5.91,33.49,35.52,48.59,50.61c14.07,14.08,4.49,48.63,4.19,50.75
			c-0.44,3.16-1.77,5.94-3.61,8.47c-2.73,3.8-6.6,7.05-10.26,10.22c-5.44,4.71-9.67,11.23-14.5,16.79
			c-4.79,5.52-10.17,10.1-17.93,11.05c-11.7,1.43-26.43,5.7-36.49-2.81c-3.87-3.27-8.35-6.4-12.42-9.85
			c-2.51-2.11-4.86-4.35-6.82-6.82C272,237.87,266.39,231.26,261.62,223.02z M259.32,170.8l0.15,0.14c2.7,2.49,5.81,4.72,9.41,6
			c2.18,0.78,5.18,0.92,7.46,0.44c0.96-0.19,2.17-0.43,3.05-0.84c0.76-0.35,1.4-1.15,2.09-1.49c1.06-0.48,2.24-0.05,3.21-0.66
			c1.15-0.71,0.28-1.51-0.37-2.68c-1.08-1.91-2.75-3.55-4.71-4.76c-2.21-1.38-4.8-2.2-7.33-2.26c-2.2-0.05-4.26,0.4-6.18,1.23
			C263.55,167,261.27,168.73,259.32,170.8z"/>
		<path style="fill:#FFEEC8;" d="M257.8,258.54c13.04-6.86,22.57-11.38,22.57-11.38l0.21-0.26c4.07,3.45,8.55,6.58,12.42,9.85
			c10.06,8.51,24.79,4.24,36.49,2.81c7.76-0.95,13.14-5.53,17.93-11.05c2.08,1.09,7.27,3.84,14.16,7.7l-1.58,2.37
			c-7.43,18.18-26.41,31.11-48.65,31.11c-22.21,0-41.16-12.89-48.62-31.03L257.8,258.54z"/>
		<path style="fill:#FFEEC8;" d="M122.51,639.35c-2.22,6.631-5.02,12.74-9.73,13.261c-8.03,0.949-16.57-8.391-18.42-14.96
			c-3.13-11.181-1.45-46.381,7.52-74.971c0,0,23-79.109,32.35-116.85c3.31-13.37,8.48-28.86,14.41-44.64l57.29,22.78l-56.21,123.04
			l-11.36,24.86c1.7,4.66,3.71,20.06,3.71,34.7c0,12.43-1.45,24.31-5.77,28.62c-4.95,0-1.51-9.851-8.27-11.221
			C126,627.12,124.48,633.43,122.51,639.35z"/>
		<path style="fill:#FFEEC8;" d="M519.4,563.53c8.96,28.58,10.659,63.79,7.52,74.939c-1.84,6.601-10.37,15.92-18.42,14.971
			c-8.91-0.96-10.96-21.95-15.26-28.641c-6.74,1.4-3.28,11.22-8.26,11.22c-4.32-4.3-5.761-16.159-5.761-28.569
			c0-14.65,2.011-30.07,3.721-34.73l-66.291-145.1L473.4,404c5.619,15.1,10.5,29.86,13.67,42.68
			C496.39,484.42,519.4,563.53,519.4,563.53z"/>
		<path style="fill:#FFFFFF;" d="M703.98,103.7l39.359,183.91l-115.88,15.36l-30.84-170.34L702,94.43L703.98,103.7z M702.26,162.95
			l-11.029-48.87l-33.58,11.74L667.59,171L702.26,162.95z"/>
		<polygon style="fill:#231F20;" points="691.23,114.08 702.26,162.95 667.59,171 657.65,125.82 		"/>
		<path style="fill:#FFFFFF;" d="M482.62,144.95l-1.41-9.37l112.08-1.37l31.28,168.38l0.21,1.14l-114.2,27.21L482.62,144.95z
			 M540.4,195.12l-6.62-45.78l-35.57,0.84l6.9,49.63L540.4,195.12z"/>
		<polygon style="fill:#231F20;" points="533.78,149.34 540.4,195.12 505.11,199.81 498.21,150.18 		"/>
		<path style="fill:#231F20;" d="M331.15,165.96c0.84,0,1.5,0.74,1.5,1.64c0,0.89-0.66,1.63-1.5,1.63c-0.82,0-1.49-0.74-1.49-1.63
			C329.66,166.7,330.33,165.96,331.15,165.96z"/>
		<path style="fill:#231F20;" d="M332.65,167.6c0-0.9-0.66-1.64-1.5-1.64c-0.82,0-1.49,0.74-1.49,1.64c0,0.89,0.67,1.63,1.49,1.63
			C331.99,169.23,332.65,168.49,332.65,167.6z M331.15,163.92c2.31,0,4.18,1.64,4.18,3.68c0,2.02-1.87,3.66-4.18,3.66
			c-2.3,0-4.17-1.64-4.17-3.66C326.98,165.56,328.85,163.92,331.15,163.92z"/>
		<path style="fill:#231F20;" d="M272.5,171.14c-0.82,0-1.48-0.73-1.48-1.63c0-0.9,0.66-1.63,1.48-1.63c0.84,0,1.5,0.73,1.5,1.63
			C274,170.41,273.34,171.14,272.5,171.14z"/>
		<path style="fill:#231F20;" d="M272.5,173.18c-2.3,0-4.17-1.64-4.17-3.67c0-2.03,1.87-3.67,4.17-3.67c2.32,0,4.18,1.64,4.18,3.67
			C276.68,171.54,274.82,173.18,272.5,173.18z M271.02,169.51c0,0.9,0.66,1.63,1.48,1.63c0.84,0,1.5-0.73,1.5-1.63
			c0-0.9-0.66-1.63-1.5-1.63C271.68,167.88,271.02,168.61,271.02,169.51z"/>
	</g>
	<g>
		<path style="fill:none;stroke:#231F20;stroke-width:14;" d="M101.88,562.68c0,0,23-79.109,32.35-116.85
			c3.31-13.37,8.48-28.86,14.41-44.64c18.33-48.82,43.9-100.39,43.9-100.39c11.4-11.4,33.36-24.8,52.47-35.37
			c4.48-2.47,8.8-4.79,12.79-6.89c13.04-6.86,22.57-11.38,22.57-11.38"/>
		<path style="fill:none;stroke:#231F20;stroke-width:14;" d="M207.52,775.63c-1.5-23.229-2.77-64.229-3.62-99.87
			c-0.73-30.49-1.15-57.06-1.15-65.26c0-12.42,0.24-27.53,0.62-43.78c0.19-7.689,0.4-15.63,0.63-23.66
			c1.78-60.229,4.81-125.379,4.81-125.379l-2.88,6.29l-56.21,123.04l-11.36,24.86c1.7,4.66,3.71,20.06,3.71,34.7
			c0,12.43-1.45,24.31-5.77,28.62c-4.95,0-1.51-9.851-8.27-11.221c-2.03,3.15-3.55,9.46-5.52,15.38
			c-2.22,6.631-5.02,12.74-9.73,13.261c-8.03,0.949-16.57-8.391-18.42-14.96c-3.13-11.181-1.45-46.381,7.52-74.971"/>
		<path style="fill:none;stroke:#231F20;stroke-width:14;" d="M519.4,563.53c0,0-23.011-79.11-32.33-116.851
			C483.9,433.86,479.02,419.1,473.4,404c-18.391-49.39-44.67-102.35-44.67-102.35c-10.13-10.14-27.53-21.87-43.73-31.77
			c-2.01-1.24-4.01-2.44-5.97-3.61c-6.37-3.8-12.37-7.23-17.45-10.06c-6.89-3.86-12.08-6.61-14.16-7.7
			c-0.65-0.34-0.99-0.52-0.99-0.52"/>
		<path style="fill:none;stroke:#231F20;stroke-width:14;" d="M420.53,573.62l-0.22-4.23l-0.3-5.729l-7.52-145.14l4.16,9.1
			l66.291,145.1c-1.71,4.66-3.721,20.08-3.721,34.73c0,12.41,1.44,24.27,5.761,28.569c4.979,0,1.52-9.819,8.26-11.22
			c4.3,6.69,6.35,27.681,15.26,28.641c8.05,0.949,16.58-8.37,18.42-14.971c3.14-11.149,1.44-46.359-7.52-74.939"/>
		<path style="fill:none;stroke:#231F20;stroke-width:14;" d="M417.19,779.59c2.71-42.109,4.62-150.8,4.62-168.3
			c0-15.6-0.48-29.63-1.21-41.91"/>
		<polyline style="fill:none;stroke:#231F20;stroke-width:14;" points="329.1,781.13 320.96,636.76 304.11,636.67 295.18,781.13 		
			"/>
		<line style="fill:none;stroke:#231F20;stroke-width:14;" x1="207.2" y1="563.82" x2="416.94" y2="563.82"/>
		<polyline style="fill:none;stroke:#231F20;stroke-width:14;" points="148.64,401.19 205.93,423.97 206,424 		"/>
		<polyline style="fill:none;stroke:#231F20;stroke-width:14;" points="476.34,402.78 473.4,404 416.65,427.62 416.33,427.75 		"/>
		<path style="fill:none;stroke:#231F20;stroke-width:14;" d="M360,258.58c-7.43,18.18-26.41,31.11-48.65,31.11
			c-22.21,0-41.16-12.89-48.62-31.03"/>
		<polygon style="fill:none;stroke:#231F20;stroke-width:7;" points="624.57,302.59 624.78,303.73 510.58,330.94 482.62,144.95 
			481.21,135.58 593.29,134.21 		"/>
		<polyline style="fill:none;stroke:#231F20;stroke-width:7;" points="484.67,144.68 482.62,144.95 469.89,146.63 501.65,347.48 
			628.79,315.05 631.39,314.39 		"/>
		<polygon style="fill:none;stroke:#231F20;stroke-width:6.1431;" points="498.21,150.18 505.11,199.81 540.4,195.12 533.78,149.34 
					"/>
		<line style="fill:none;stroke:#231F20;stroke-width:6.1431;" x1="546.3" y1="152.7" x2="583.01" y2="149.54"/>
		<line style="fill:none;stroke:#231F20;stroke-width:6.1431;" x1="547.89" y1="166.56" x2="584.6" y2="160.86"/>
		<line style="fill:none;stroke:#231F20;stroke-width:6.1431;" x1="550.11" y1="179.85" x2="586.8" y2="174.16"/>
		<line style="fill:none;stroke:#231F20;stroke-width:6.1431;" x1="552" y1="191.24" x2="588.71" y2="185.55"/>
		<line style="fill:none;stroke:#231F20;stroke-width:6.1431;" x1="557.08" y1="210.95" x2="593.79" y2="205.25"/>
		<line style="fill:none;stroke:#231F20;stroke-width:6.1431;" x1="558.68" y1="222.26" x2="595.38" y2="216.56"/>
		<line style="fill:none;stroke:#231F20;stroke-width:6.1431;" x1="560.89" y1="235.56" x2="597.6" y2="227.33"/>
		<line style="fill:none;stroke:#231F20;stroke-width:6.1431;" x1="562.79" y1="246.94" x2="599.49" y2="238.72"/>
		<line style="fill:none;stroke:#231F20;stroke-width:6.1431;" x1="567.92" y1="264.09" x2="604.63" y2="255.86"/>
		<line style="fill:none;stroke:#231F20;stroke-width:6.1431;" x1="569.52" y1="275.41" x2="606.22" y2="267.18"/>
		<line style="fill:none;stroke:#231F20;stroke-width:6.1431;" x1="571.73" y1="286.17" x2="608.43" y2="277.94"/>
		<line style="fill:none;stroke:#231F20;stroke-width:6.1431;" x1="573.63" y1="297.55" x2="610.33" y2="289.33"/>
		<line style="fill:none;stroke:#231F20;stroke-width:6.1431;" x1="509.64" y1="219.73" x2="546.34" y2="214.04"/>
		<line style="fill:none;stroke:#231F20;stroke-width:6.1431;" x1="511.23" y1="231.05" x2="547.93" y2="225.36"/>
		<line style="fill:none;stroke:#231F20;stroke-width:6.1431;" x1="513.43" y1="244.35" x2="550.14" y2="236.12"/>
		<line style="fill:none;stroke:#231F20;stroke-width:6.1431;" x1="515.34" y1="255.73" x2="552.04" y2="247.51"/>
		<line style="fill:none;stroke:#231F20;stroke-width:6.1431;" x1="520.42" y1="275.31" x2="557.12" y2="267.08"/>
		<line style="fill:none;stroke:#231F20;stroke-width:6.1431;" x1="522.01" y1="286.62" x2="558.71" y2="278.39"/>
		<line style="fill:none;stroke:#231F20;stroke-width:6.1431;" x1="524.21" y1="297.39" x2="560.92" y2="289.17"/>
		<line style="fill:none;stroke:#231F20;stroke-width:6.1431;" x1="526.11" y1="308.77" x2="562.81" y2="300.55"/>
		<polygon style="fill:none;stroke:#231F20;stroke-width:7;" points="627.46,302.97 743.34,287.61 703.98,103.7 702,94.43 
			596.62,132.63 		"/>
		<polyline style="fill:none;stroke:#231F20;stroke-width:7;" points="701.96,104.17 703.98,103.7 716.49,100.78 759.4,299.37 
			631.39,314.38 630.97,314.43 		"/>
		<polygon style="fill:none;stroke:#231F20;stroke-width:6.1431;" points="691.23,114.08 702.26,162.95 667.59,171 657.65,125.82 		
			"/>
		<line style="fill:none;stroke:#231F20;stroke-width:6.1431;" x1="647.11" y1="133.39" x2="611.65" y2="143.36"/>
		<line style="fill:none;stroke:#231F20;stroke-width:6.1431;" x1="650.5" y1="146.91" x2="614.15" y2="154.51"/>
		<line style="fill:none;stroke:#231F20;stroke-width:6.1431;" x1="653.12" y1="160.13" x2="616.76" y2="167.73"/>
		<line style="fill:none;stroke:#231F20;stroke-width:6.1431;" x1="655.35" y1="171.45" x2="619" y2="179.05"/>
		<line style="fill:none;stroke:#231F20;stroke-width:6.1431;" x1="657.54" y1="191.69" x2="621.18" y2="199.29"/>
		<line style="fill:none;stroke:#231F20;stroke-width:6.1431;" x1="660.04" y1="202.84" x2="623.68" y2="210.45"/>
		<line style="fill:none;stroke:#231F20;stroke-width:6.1431;" x1="662.65" y1="216.07" x2="625.41" y2="221.3"/>
		<line style="fill:none;stroke:#231F20;stroke-width:6.1431;" x1="664.89" y1="227.39" x2="627.64" y2="232.62"/>
		<line style="fill:none;stroke:#231F20;stroke-width:6.1431;" x1="666.12" y1="245.25" x2="628.88" y2="250.47"/>
		<line style="fill:none;stroke:#231F20;stroke-width:6.1431;" x1="668.61" y1="256.4" x2="631.38" y2="261.63"/>
		<line style="fill:none;stroke:#231F20;stroke-width:6.1431;" x1="670.34" y1="267.25" x2="633.1" y2="272.48"/>
		<line style="fill:none;stroke:#231F20;stroke-width:6.1431;" x1="672.57" y1="278.57" x2="635.33" y2="283.8"/>
		<line style="fill:none;stroke:#231F20;stroke-width:6.1431;" x1="705.04" y1="183.2" x2="668.69" y2="190.8"/>
		<line style="fill:none;stroke:#231F20;stroke-width:6.1431;" x1="707.54" y1="194.36" x2="671.18" y2="201.96"/>
		<line style="fill:none;stroke:#231F20;stroke-width:6.1431;" x1="710.15" y1="207.58" x2="672.91" y2="212.81"/>
		<line style="fill:none;stroke:#231F20;stroke-width:6.1431;" x1="712.39" y1="218.9" x2="675.14" y2="224.13"/>
		<line style="fill:none;stroke:#231F20;stroke-width:6.1431;" x1="714.54" y1="239.01" x2="677.29" y2="244.24"/>
		<line style="fill:none;stroke:#231F20;stroke-width:6.1431;" x1="717.04" y1="250.16" x2="679.78" y2="255.39"/>
		<line style="fill:none;stroke:#231F20;stroke-width:6.1431;" x1="718.76" y1="261.01" x2="681.52" y2="266.24"/>
		<line style="fill:none;stroke:#231F20;stroke-width:6.1431;" x1="721" y1="272.34" x2="683.74" y2="277.57"/>
		<polyline style="fill:none;stroke:#231F20;stroke-width:6.1431;" points="626.32,302.26 626.49,303.16 628.79,315.05 
			628.92,315.75 		"/>
		<polyline style="fill:none;stroke:#231F20;stroke-width:21;" points="385,269.88 204,543.06 199.75,549.48 		"/>
		<path style="fill:none;stroke:#231F20;stroke-width:14;" d="M203.9,554.38v9.44v8.989v102.95v35.061
			c0,13.779-7.79,24.939-17.41,24.939h-46.57c-9.62,0-17.41-11.16-17.41-24.939V639.35v-0.029"/>
		<path style="fill:none;stroke:#231F20;stroke-width:14;" d="M151.6,547.87h34.89c8.15,0,14.99,8.02,16.88,18.85
			c0.35,1.95,0.53,3.99,0.53,6.09"/>
		<path style="fill:none;stroke:#231F20;stroke-width:7;" d="M313.34,158.91c5.8-9.66,19.88-11.2,27.94-8.05
			c4.33,1.69,6.97,3.68,8.11,4.83"/>
		<path style="fill:none;stroke:#231F20;stroke-width:7;" d="M282.94,155.34c-7.67-6.84-22.64-5.8-29.27,1.37
			c-0.36,0.37-0.68,0.76-0.98,1.16"/>
		<path style="fill:none;stroke:#231F20;stroke-width:7;" d="M292.51,160.99c8.41,6.29,3.95,27.61,1.84,33.96
			c-0.68,2.02-3.58,5.61-1.54,7.72c0.99,1.02,2.25,0.47,3.49,0.65c1.28,0.21,2.05,0.34,3.52,0.89c2.85,1.06,4.93,1.7,7.49-0.17
			c2.78-2.01,2.57-3.43,6.67-3.24c3.45,0.16,7.26,1.14,7.09-4.17c-0.12-3.66-2.86-3.61-4.83-6.19"/>
		<path style="fill:none;stroke:#231F20;stroke-width:4;" d="M306.44,221.45c0.04-0.33,0.11-0.64,0.23-0.92
			c2.13-5.44,17.17-1.98,21.15-2.38c-0.65,0.98-1.29,2.01-1.93,3.06c-2.73,4.48-5.61,9.2-10.49,11.35
			c-6.61,2.93-13.71,2.36-19.15-2.15c-2.02-1.67-5.17-3.65-6.59-5.53c-1.39-1.82-1.17-3.55,3.21-4.82c2.73-0.79,5.99-1.41,8.79-0.75
			c1.49,0.33,3.67,1.77,5.01,1.22c0.23-0.1,0.43-0.24,0.6-0.46"/>
		<path style="fill:none;stroke:#231F20;stroke-width:4;" d="M289.66,224.88c5.37,1.58,13.34,0.67,18.73,0.25
			c5.42-0.43,9.85-0.47,17.5-3.92c0.01,0,0.01-0.01,0.02-0.01"/>
		<path style="fill:none;stroke:#231F20;stroke-width:14;" d="M323.01,111.67c5.56,5.91,33.49,35.52,48.59,50.61
			c14.07,14.08,4.49,48.63,4.19,50.75c-0.44,3.16-1.77,5.94-3.61,8.47c-2.73,3.8-6.6,7.05-10.26,10.22
			c-5.44,4.71-9.67,11.23-14.5,16.79c-4.79,5.52-10.17,10.1-17.93,11.05c-11.7,1.43-26.43,5.7-36.49-2.81
			c-3.87-3.27-8.35-6.4-12.42-9.85c-2.51-2.11-4.86-4.35-6.82-6.82c-1.76-2.21-7.37-8.82-12.14-17.06
			c-4.02-6.95-7.45-15.06-7.45-22.64c0-15.09-3.33-18.69-3.59-28.71c-0.12-5.06,0.99-10.24,3.09-14.96
			c2.34-5.28,5.93-9.97,10.44-13.29c6.59-4.84,42.44-21.95,57.78-32.69c0.05-0.04,0.09-0.07,0.14-0.1
			C322.03,110.63,322.37,111,323.01,111.67z"/>
		<path style="fill:none;stroke:#231F20;stroke-width:14;" d="M261.63,223.01l-0.01,0.01l-28.61,15.05
			c5.24-10.46,3.41-23.38,3.41-23.38c-0.19-19.87-2.62-41.55-2.96-46.25c-1.4-19.48,5.84-49.08,16.33-66.18
			c17.69-28.8,46.5-41.21,90.89-36.04c32.96,3.84,63.09,39.91,63.09,85.6c0,16.02-7.11,33.72,0.89,49.69l-32.48,19.99l-0.04,0.03"/>
		<path style="fill:none;stroke:#231F20;stroke-width:3.5796;stroke-linecap:square;stroke-miterlimit:10;" d="M258.06,172.21
			c0.4-0.48,0.82-0.95,1.26-1.41c1.95-2.07,4.23-3.8,6.78-4.88c1.92-0.83,3.98-1.28,6.18-1.23c2.53,0.06,5.12,0.88,7.33,2.26
			c1.96,1.21,3.63,2.85,4.71,4.76c0.65,1.17,1.52,1.97,0.37,2.68c-0.97,0.61-2.15,0.18-3.21,0.66c-0.69,0.34-1.33,1.14-2.09,1.49
			c-0.88,0.41-2.09,0.65-3.05,0.84c-2.28,0.48-5.28,0.34-7.46-0.44c-3.6-1.28-6.71-3.51-9.41-6"/>
		<path style="fill:none;stroke:#231F20;stroke-width:3.5796;stroke-linecap:square;stroke-miterlimit:10;" d="M279.27,167.51
			c0.43,0.85,0.15,0.75,0.15,1.76c0,3.61-3.06,6.54-6.85,6.54c-3.78,0-6.85-2.93-6.85-6.54c0-1.37-0.13-1.71,0.61-2.76"/>
		<path style="fill:none;stroke:#231F20;stroke-width:3.5796;stroke-linecap:square;stroke-miterlimit:10;" d="M345.6,170.28
			c-0.4-0.48-0.81-0.95-1.24-1.4c-1.96-2.07-4.24-3.8-6.79-4.87c-1.92-0.83-3.99-1.29-6.19-1.24c-2.53,0.06-5.12,0.88-7.33,2.26
			c-1.95,1.21-3.62,2.85-4.7,4.77c-0.66,1.16-1.52,1.97-0.37,2.67c0.97,0.61,2.14,0.18,3.2,0.67c0.7,0.32,1.34,1.13,2.09,1.47
			c0.89,0.43,2.09,0.66,3.05,0.86c2.29,0.47,5.29,0.33,7.46-0.44c3.6-1.28,6.72-3.52,9.43-6.01"/>
		<path style="fill:none;stroke:#231F20;stroke-width:3.5796;stroke-linecap:square;stroke-miterlimit:10;" d="M324.39,165.59
			c-0.42,0.84-0.15,0.75-0.15,1.75c0,3.62,3.07,6.55,6.85,6.55c3.78,0,6.85-2.93,6.85-6.55c0-1.35,0.13-1.7-0.6-2.75"/>
		<path style="fill:none;stroke:#231F20;stroke-width:7.1591;" d="M323.82,111.78c-0.3,0-0.57-0.03-0.81-0.11
			c-0.51-0.14-0.88-0.46-1.12-0.94c-0.03-0.06-0.05-0.12-0.08-0.19c4.73-4.6,7.04-11.88,8.45-18.07"/>
	</g>
</g>
<rect style="fill:none;" width="850.394" height="850.394"/>
</svg>
