<?xml version="1.0" encoding="iso-8859-1"?>
<!-- Generator: Adobe Illustrator 12.0.1, SVG Export Plug-In . SVG Version: 6.00 Build 51448)  -->
<!DOCTYPE svg PUBLIC "-//W3C//DTD SVG 1.1//EN" "http://www.w3.org/Graphics/SVG/1.1/DTD/svg11.dtd" [
	<!ENTITY ns_svg "http://www.w3.org/2000/svg">
	<!ENTITY ns_xlink "http://www.w3.org/1999/xlink">
]>
<svg  version="1.1" id="Layer_1" xmlns="&ns_svg;" xmlns:xlink="&ns_xlink;" width="850.394" height="850.394"
	 viewBox="0 0 850.394 850.394" style="overflow:visible;enable-background:new 0 0 850.394 850.394;" xml:space="preserve">
<g>
	<g>
		<g id="XMLID_3_">
			<g>
				<path style="fill:#FFF5B4;" d="M780.55,464.83v105.22h-68.47V464.83H780.55z M758.29,533.73v-5.69h-23v33.56h6.78v-14.25h14
					v-5.68h-14v-7.939H758.29z M759.3,499.71c0-7.22-5.85-13.06-13.05-13.06c-7.22,0-13.06,5.84-13.06,13.06
					c0,7.2,5.84,13.04,13.06,13.04C753.45,512.75,759.3,506.91,759.3,499.71z"/>
				<path style="fill:#FFF5B4;" d="M712.08,464.83v105.22h-68.46V464.83H712.08z M703.13,561.6v-14.25c0-2.18-0.11-3.79-0.33-4.83
					c-0.22-1.029-0.64-1.979-1.24-2.829c-0.6-0.86-1.5-1.561-2.689-2.11c-1.19-0.55-2.53-0.82-4.01-0.82
					c-2.891,0-5.37,1.221-7.45,3.65v-12.37h-6.44v33.56h6.44v-12.18c0-2.04,0.2-3.59,0.59-4.63c0.28-0.79,0.7-1.42,1.25-1.91
					c0.18-0.16,0.38-0.31,0.59-0.439c0.84-0.521,1.79-0.771,2.87-0.771c0.93,0,1.7,0.2,2.32,0.6c0.62,0.41,1.05,0.95,1.3,1.641
					c0.24,0.689,0.36,2.3,0.36,4.85v12.84H703.13z M690.68,499.64c0-7.21-5.84-13.06-13.06-13.06c-7.21,0-13.05,5.85-13.05,13.06
					s5.84,13.061,13.05,13.061C684.84,512.7,690.68,506.85,690.68,499.64z M676.74,533.73v-5.69h-26.69v5.69h9.97V561.6h6.78V533.73
					H676.74z"/>
				<path style="fill:#FFF5B4;" d="M643.62,464.83v105.22h-68.54V464.83H643.62z M622.76,561.6l8.16-33.56h-6.83l-5.16,23.44
					l-5.899-23.44h-8.07l-6.12,23.05l-5.02-23.05h-6.971l7.94,33.56h7.41l6.67-25.09l6.67,25.09H622.76z M622.42,499.64
					c0-7.22-5.84-13.06-13.05-13.06s-13.05,5.84-13.05,13.06c0,7.2,5.84,13.051,13.05,13.051S622.42,506.84,622.42,499.64z"/>
				<path style="fill:#FFF5B4;" d="M575.08,464.83v105.22h-68.47V464.83H575.08z M554.39,533.73v-5.69H527.7v5.69h9.97V561.6h6.78
					V533.73H554.39z M553.96,499.64c0-7.22-5.84-13.06-13.05-13.06c-7.22,0-13.061,5.84-13.061,13.06
					c0,7.2,5.841,13.051,13.061,13.051C548.12,512.69,553.96,506.84,553.96,499.64z"/>
				<path style="fill:#FFF5B4;" d="M506.61,464.83v105.22H438.14V464.83H506.61z M488.46,561.6v-33.56H478.3l-6.01,22.89
					l-6.06-22.89H456.09v33.56h6.28l0.01-26.42l6.61,26.42h6.52l6.65-26.42l0.02,26.42H488.46z M485.23,499.64
					c0-7.22-5.851-13.06-13.061-13.06s-13.05,5.84-13.05,13.06c0,7.2,5.84,13.051,13.05,13.051S485.23,506.84,485.23,499.64z"/>
				<polygon style="fill:#231F20;" points="758.29,528.04 758.29,533.73 742.07,533.73 742.07,541.67 756.07,541.67 756.07,547.35 
					742.07,547.35 742.07,561.6 735.29,561.6 735.29,528.04 				"/>
				<path style="fill:#FBED24;" d="M746.25,486.65c7.2,0,13.05,5.84,13.05,13.06c0,7.2-5.85,13.04-13.05,13.04
					c-7.22,0-13.06-5.84-13.06-13.04C733.19,492.49,739.03,486.65,746.25,486.65z"/>
				<path style="fill:#231F20;" d="M703.13,547.35v14.25h-6.439v-12.84c0-2.55-0.12-4.16-0.36-4.85c-0.25-0.69-0.68-1.23-1.3-1.641
					c-0.62-0.399-1.391-0.6-2.32-0.6c-1.08,0-2.03,0.25-2.87,0.771c-0.21,0.13-0.41,0.279-0.59,0.439l-1.84-2.47
					c2.08-2.43,4.56-3.65,7.45-3.65c1.479,0,2.819,0.271,4.01,0.82c1.189,0.55,2.09,1.25,2.689,2.11
					c0.601,0.85,1.021,1.8,1.24,2.829C703.02,543.56,703.13,545.17,703.13,547.35z"/>
				<path style="fill:#231F20;" d="M687.41,540.41l1.84,2.47c-0.55,0.49-0.97,1.12-1.25,1.91c-0.39,1.04-0.59,2.59-0.59,4.63v12.18
					h-6.44v-33.56h6.44V540.41z"/>
				<path style="fill:#FBED24;" d="M677.62,486.58c7.22,0,13.06,5.85,13.06,13.06s-5.84,13.061-13.06,13.061
					c-7.21,0-13.05-5.851-13.05-13.061S670.41,486.58,677.62,486.58z"/>
				<polygon style="fill:#231F20;" points="676.74,528.04 676.74,533.73 666.8,533.73 666.8,561.6 660.02,561.6 660.02,533.73 
					650.05,533.73 650.05,528.04 				"/>
				<polygon style="fill:#231F20;" points="630.92,528.04 622.76,561.6 615.54,561.6 608.87,536.51 602.2,561.6 594.79,561.6 
					586.85,528.04 593.82,528.04 598.84,551.09 604.96,528.04 613.03,528.04 618.93,551.48 624.09,528.04 				"/>
				<path style="fill:#FBED24;" d="M609.37,486.58c7.21,0,13.05,5.84,13.05,13.06c0,7.2-5.84,13.051-13.05,13.051
					s-13.05-5.851-13.05-13.051C596.32,492.42,602.16,486.58,609.37,486.58z"/>
				<polygon style="fill:#231F20;" points="554.39,528.04 554.39,533.73 544.45,533.73 544.45,561.6 537.67,561.6 537.67,533.73 
					527.7,533.73 527.7,528.04 				"/>
				<path style="fill:#FBED24;" d="M540.91,486.58c7.21,0,13.05,5.84,13.05,13.06c0,7.2-5.84,13.051-13.05,13.051
					c-7.22,0-13.061-5.851-13.061-13.051C527.85,492.42,533.69,486.58,540.91,486.58z"/>
				<polygon style="fill:#231F20;" points="488.46,528.04 488.46,561.6 482.18,561.6 482.16,535.18 475.51,561.6 468.99,561.6 
					462.38,535.18 462.37,561.6 456.09,561.6 456.09,528.04 466.23,528.04 472.29,550.93 478.3,528.04 				"/>
				<path style="fill:#FBED24;" d="M472.17,486.58c7.21,0,13.061,5.84,13.061,13.06c0,7.2-5.851,13.051-13.061,13.051
					s-13.05-5.851-13.05-13.051C459.12,492.42,464.96,486.58,472.17,486.58z"/>
				<path style="fill:#FFF5B4;" d="M411.3,464.83v105.22h-68.46V464.83H411.3z M389.05,533.73v-5.69h-23v33.56h6.78v-14.25h14v-5.68
					h-14v-7.939H389.05z M390.05,499.71c0-7.22-5.84-13.06-13.04-13.06c-7.22,0-13.06,5.84-13.06,13.06
					c0,7.2,5.84,13.04,13.06,13.04C384.21,512.75,390.05,506.91,390.05,499.71z"/>
				<polygon style="fill:#231F20;" points="389.05,528.04 389.05,533.73 372.83,533.73 372.83,541.67 386.83,541.67 386.83,547.35 
					372.83,547.35 372.83,561.6 366.05,561.6 366.05,528.04 				"/>
				<path style="fill:#FBED24;" d="M377.01,486.65c7.2,0,13.04,5.84,13.04,13.06c0,7.2-5.84,13.04-13.04,13.04
					c-7.22,0-13.06-5.84-13.06-13.04C363.95,492.49,369.79,486.65,377.01,486.65z"/>
				<path style="fill:#FFF5B4;" d="M342.84,464.83v105.22h-68.46V464.83H342.84z M333.88,561.6v-14.25c0-2.18-0.11-3.79-0.33-4.83
					c-0.22-1.029-0.63-1.979-1.24-2.829c-0.6-0.86-1.5-1.561-2.69-2.11s-2.53-0.82-4.01-0.82c-2.88,0-5.37,1.221-7.44,3.65v-12.37
					h-6.44v33.56h6.44v-12.18c0-2.04,0.19-3.59,0.58-4.63c0.29-0.79,0.71-1.42,1.26-1.91c0.18-0.16,0.38-0.31,0.59-0.439
					c0.84-0.521,1.79-0.771,2.86-0.771c0.93,0,1.71,0.2,2.33,0.6c0.61,0.41,1.05,0.95,1.29,1.641c0.24,0.689,0.37,2.3,0.37,4.85
					v12.84H333.88z M321.44,499.64c0-7.21-5.84-13.06-13.06-13.06c-7.21,0-13.05,5.85-13.05,13.06s5.84,13.061,13.05,13.061
					C315.6,512.7,321.44,506.85,321.44,499.64z M307.5,533.73v-5.69h-26.69v5.69h9.97V561.6h6.78V533.73H307.5z"/>
				<path style="fill:#231F20;" d="M333.88,547.35v14.25h-6.43v-12.84c0-2.55-0.13-4.16-0.37-4.85c-0.24-0.69-0.68-1.23-1.29-1.641
					c-0.62-0.399-1.4-0.6-2.33-0.6c-1.07,0-2.02,0.25-2.86,0.771c-0.21,0.13-0.41,0.279-0.59,0.439l-1.84-2.47
					c2.07-2.43,4.56-3.65,7.44-3.65c1.48,0,2.82,0.271,4.01,0.82s2.09,1.25,2.69,2.11c0.61,0.85,1.02,1.8,1.24,2.829
					C333.77,543.56,333.88,545.17,333.88,547.35z"/>
				<path style="fill:#231F20;" d="M318.17,540.41l1.84,2.47c-0.55,0.49-0.97,1.12-1.26,1.91c-0.39,1.04-0.58,2.59-0.58,4.63v12.18
					h-6.44v-33.56h6.44V540.41z"/>
				<path style="fill:#FBED24;" d="M308.38,486.58c7.22,0,13.06,5.85,13.06,13.06S315.6,512.7,308.38,512.7
					c-7.21,0-13.05-5.851-13.05-13.061S301.17,486.58,308.38,486.58z"/>
				<polygon style="fill:#231F20;" points="307.5,528.04 307.5,533.73 297.56,533.73 297.56,561.6 290.78,561.6 290.78,533.73 
					280.81,533.73 280.81,528.04 				"/>
				<path style="fill:#FFF5B4;" d="M274.38,464.83v105.22h-68.55V464.83H274.38z M253.51,561.6l8.16-33.56h-6.82l-5.16,23.44
					l-5.9-23.44h-8.07l-6.12,23.05l-5.02-23.05h-6.97l7.94,33.56h7.41l6.67-25.09l6.67,25.09H253.51z M253.18,499.64
					c0-7.22-5.85-13.06-13.05-13.06c-7.22,0-13.05,5.84-13.05,13.06c0,7.2,5.83,13.051,13.05,13.051
					C247.33,512.69,253.18,506.84,253.18,499.64z"/>
				<polygon style="fill:#231F20;" points="261.67,528.04 253.51,561.6 246.3,561.6 239.63,536.51 232.96,561.6 225.55,561.6 
					217.61,528.04 224.58,528.04 229.6,551.09 235.72,528.04 243.79,528.04 249.69,551.48 254.85,528.04 				"/>
				<path style="fill:#FBED24;" d="M240.13,486.58c7.2,0,13.05,5.84,13.05,13.06c0,7.2-5.85,13.051-13.05,13.051
					c-7.22,0-13.05-5.851-13.05-13.051C227.08,492.42,232.91,486.58,240.13,486.58z"/>
				<path style="fill:#FFF5B4;" d="M205.83,464.83v105.22h-68.47V464.83H205.83z M185.14,533.73v-5.69h-26.68v5.69h9.97V561.6h6.78
					V533.73H185.14z M184.72,499.64c0-7.22-5.84-13.06-13.05-13.06c-7.22,0-13.06,5.84-13.06,13.06c0,7.2,5.84,13.051,13.06,13.051
					C178.88,512.69,184.72,506.84,184.72,499.64z"/>
				<polygon style="fill:#231F20;" points="185.14,528.04 185.14,533.73 175.21,533.73 175.21,561.6 168.43,561.6 168.43,533.73 
					158.46,533.73 158.46,528.04 				"/>
				<path style="fill:#FBED24;" d="M171.67,486.58c7.21,0,13.05,5.84,13.05,13.06c0,7.2-5.84,13.051-13.05,13.051
					c-7.22,0-13.06-5.851-13.06-13.051C158.61,492.42,164.45,486.58,171.67,486.58z"/>
				<path style="fill:#FFF5B4;" d="M137.36,464.83v105.22H68.9V464.83H137.36z M119.22,561.6v-33.56h-10.16l-6.01,22.89l-6.06-22.89
					H86.84v33.56h6.29l0.01-26.42l6.61,26.42h6.51l6.66-26.42l0.02,26.42H119.22z M115.98,499.64c0-7.22-5.84-13.06-13.05-13.06
					c-7.22,0-13.05,5.84-13.05,13.06c0,7.2,5.83,13.051,13.05,13.051C110.14,512.69,115.98,506.84,115.98,499.64z"/>
				<polygon style="fill:#231F20;" points="119.22,528.04 119.22,561.6 112.94,561.6 112.92,535.18 106.26,561.6 99.75,561.6 
					93.14,535.18 93.13,561.6 86.84,561.6 86.84,528.04 96.99,528.04 103.05,550.93 109.06,528.04 				"/>
				<path style="fill:#FBED24;" d="M102.93,486.58c7.21,0,13.05,5.84,13.05,13.06c0,7.2-5.84,13.051-13.05,13.051
					c-7.22,0-13.05-5.851-13.05-13.051C89.88,492.42,95.71,486.58,102.93,486.58z"/>
			</g>
			<g>
				<path style="fill:none;stroke:#231F20;stroke-width:6.4761;" d="M485.23,499.64c0,7.2-5.851,13.051-13.061,13.051
					s-13.05-5.851-13.05-13.051c0-7.22,5.84-13.06,13.05-13.06S485.23,492.42,485.23,499.64z"/>
				<line style="fill:none;stroke:#231F20;stroke-width:6.4761;" x1="472.06" y1="484.19" x2="472.06" y2="474.27"/>
				<line style="fill:none;stroke:#231F20;stroke-width:6.4761;" x1="464.15" y1="486.12" x2="458.66" y2="477.86"/>
				<line style="fill:none;stroke:#231F20;stroke-width:6.4761;" x1="458.46" y1="492.24" x2="449.46" y2="488.03"/>
				<line style="fill:none;stroke:#231F20;stroke-width:6.4761;" x1="480.27" y1="485.98" x2="485.76" y2="477.7"/>
				<line style="fill:none;stroke:#231F20;stroke-width:6.4761;" x1="485.96" y1="492.08" x2="494.96" y2="487.88"/>
				<line style="fill:none;stroke:#231F20;stroke-width:6.4761;" x1="479.94" y1="513.24" x2="485.43" y2="521.51"/>
				<line style="fill:none;stroke:#231F20;stroke-width:6.4761;" x1="485.63" y1="507.13" x2="494.63" y2="511.34"/>
				<line style="fill:none;stroke:#231F20;stroke-width:6.4761;" x1="463.82" y1="513.4" x2="458.33" y2="521.68"/>
				<line style="fill:none;stroke:#231F20;stroke-width:6.4761;" x1="458.13" y1="507.3" x2="449.13" y2="511.5"/>
				<line style="fill:none;stroke:#231F20;stroke-width:6.4761;" x1="456.61" y1="499.78" x2="446.67" y2="499.78"/>
				<line style="fill:none;stroke:#231F20;stroke-width:6.4761;" x1="497.51" y1="499.78" x2="487.57" y2="499.78"/>
				<line style="fill:none;stroke:#231F20;stroke-width:6.4761;" x1="472.06" y1="524.79" x2="472.06" y2="514.85"/>
				<path style="fill:none;stroke:#231F20;stroke-width:6.4761;" d="M553.96,499.64c0,7.2-5.84,13.051-13.05,13.051
					c-7.22,0-13.061-5.851-13.061-13.051c0-7.22,5.841-13.06,13.061-13.06C548.12,486.58,553.96,492.42,553.96,499.64z"/>
				<line style="fill:none;stroke:#231F20;stroke-width:6.4761;" x1="540.8" y1="484.19" x2="540.8" y2="474.27"/>
				<line style="fill:none;stroke:#231F20;stroke-width:6.4761;" x1="532.88" y1="486.12" x2="527.4" y2="477.86"/>
				<line style="fill:none;stroke:#231F20;stroke-width:6.4761;" x1="527.19" y1="492.24" x2="518.2" y2="488.03"/>
				<line style="fill:none;stroke:#231F20;stroke-width:6.4761;" x1="549.01" y1="485.98" x2="554.5" y2="477.7"/>
				<line style="fill:none;stroke:#231F20;stroke-width:6.4761;" x1="554.69" y1="492.08" x2="563.69" y2="487.88"/>
				<line style="fill:none;stroke:#231F20;stroke-width:6.4761;" x1="548.68" y1="513.24" x2="554.17" y2="521.51"/>
				<line style="fill:none;stroke:#231F20;stroke-width:6.4761;" x1="554.37" y1="507.13" x2="563.37" y2="511.34"/>
				<line style="fill:none;stroke:#231F20;stroke-width:6.4761;" x1="532.55" y1="513.4" x2="527.07" y2="521.68"/>
				<line style="fill:none;stroke:#231F20;stroke-width:6.4761;" x1="526.87" y1="507.3" x2="517.87" y2="511.5"/>
				<line style="fill:none;stroke:#231F20;stroke-width:6.4761;" x1="525.34" y1="499.78" x2="515.42" y2="499.78"/>
				<line style="fill:none;stroke:#231F20;stroke-width:6.4761;" x1="566.25" y1="499.78" x2="556.31" y2="499.78"/>
				<line style="fill:none;stroke:#231F20;stroke-width:6.4761;" x1="540.8" y1="524.79" x2="540.8" y2="514.85"/>
				<path style="fill:none;stroke:#231F20;stroke-width:6.4761;" d="M622.42,499.64c0,7.2-5.84,13.051-13.05,13.051
					s-13.05-5.851-13.05-13.051c0-7.22,5.84-13.06,13.05-13.06S622.42,492.42,622.42,499.64z"/>
				<line style="fill:none;stroke:#231F20;stroke-width:6.4761;" x1="609.26" y1="484.19" x2="609.26" y2="474.27"/>
				<line style="fill:none;stroke:#231F20;stroke-width:6.4761;" x1="601.34" y1="486.12" x2="595.85" y2="477.86"/>
				<line style="fill:none;stroke:#231F20;stroke-width:6.4761;" x1="595.65" y1="492.24" x2="586.66" y2="488.03"/>
				<line style="fill:none;stroke:#231F20;stroke-width:6.4761;" x1="617.46" y1="485.98" x2="622.95" y2="477.7"/>
				<line style="fill:none;stroke:#231F20;stroke-width:6.4761;" x1="623.16" y1="492.08" x2="632.15" y2="487.88"/>
				<line style="fill:none;stroke:#231F20;stroke-width:6.4761;" x1="617.14" y1="513.24" x2="622.63" y2="521.51"/>
				<line style="fill:none;stroke:#231F20;stroke-width:6.4761;" x1="622.83" y1="507.13" x2="631.83" y2="511.34"/>
				<line style="fill:none;stroke:#231F20;stroke-width:6.4761;" x1="601.02" y1="513.4" x2="595.53" y2="521.68"/>
				<line style="fill:none;stroke:#231F20;stroke-width:6.4761;" x1="595.33" y1="507.3" x2="586.33" y2="511.5"/>
				<line style="fill:none;stroke:#231F20;stroke-width:6.4761;" x1="593.81" y1="499.78" x2="583.87" y2="499.78"/>
				<line style="fill:none;stroke:#231F20;stroke-width:6.4761;" x1="634.7" y1="499.78" x2="624.77" y2="499.78"/>
				<line style="fill:none;stroke:#231F20;stroke-width:6.4761;" x1="609.26" y1="524.79" x2="609.26" y2="514.85"/>
				<path style="fill:none;stroke:#231F20;stroke-width:6.4761;" d="M690.68,499.64c0,7.21-5.84,13.061-13.06,13.061
					c-7.21,0-13.05-5.851-13.05-13.061s5.84-13.06,13.05-13.06C684.84,486.58,690.68,492.43,690.68,499.64z"/>
				<line style="fill:none;stroke:#231F20;stroke-width:6.4761;" x1="677.52" y1="484.21" x2="677.52" y2="474.27"/>
				<line style="fill:none;stroke:#231F20;stroke-width:6.4761;" x1="669.6" y1="486.14" x2="664.12" y2="477.86"/>
				<line style="fill:none;stroke:#231F20;stroke-width:6.4761;" x1="663.92" y1="492.25" x2="654.92" y2="488.04"/>
				<line style="fill:none;stroke:#231F20;stroke-width:6.4761;" x1="685.73" y1="485.98" x2="691.22" y2="477.71"/>
				<line style="fill:none;stroke:#231F20;stroke-width:6.4761;" x1="691.42" y1="492.09" x2="700.41" y2="487.88"/>
				<line style="fill:none;stroke:#231F20;stroke-width:6.4761;" x1="685.4" y1="513.24" x2="690.89" y2="521.52"/>
				<line style="fill:none;stroke:#231F20;stroke-width:6.4761;" x1="691.09" y1="507.14" x2="700.08" y2="511.34"/>
				<line style="fill:none;stroke:#231F20;stroke-width:6.4761;" x1="669.28" y1="513.41" x2="663.79" y2="521.69"/>
				<line style="fill:none;stroke:#231F20;stroke-width:6.4761;" x1="663.59" y1="507.3" x2="654.59" y2="511.5"/>
				<line style="fill:none;stroke:#231F20;stroke-width:6.4761;" x1="662.07" y1="499.79" x2="652.13" y2="499.79"/>
				<line style="fill:none;stroke:#231F20;stroke-width:6.4761;" x1="702.96" y1="499.79" x2="693.03" y2="499.79"/>
				<line style="fill:none;stroke:#231F20;stroke-width:6.4761;" x1="677.52" y1="524.8" x2="677.52" y2="514.87"/>
				<path style="fill:none;stroke:#231F20;stroke-width:6.4761;" d="M759.3,499.71c0,7.2-5.85,13.04-13.05,13.04
					c-7.22,0-13.06-5.84-13.06-13.04c0-7.22,5.84-13.06,13.06-13.06C753.45,486.65,759.3,492.49,759.3,499.71z"/>
				<line style="fill:none;stroke:#231F20;stroke-width:6.4761;" x1="746.14" y1="484.27" x2="746.14" y2="474.33"/>
				<line style="fill:none;stroke:#231F20;stroke-width:6.4761;" x1="738.22" y1="486.2" x2="732.74" y2="477.93"/>
				<line style="fill:none;stroke:#231F20;stroke-width:6.4761;" x1="732.54" y1="492.31" x2="723.53" y2="488.1"/>
				<line style="fill:none;stroke:#231F20;stroke-width:6.4761;" x1="754.35" y1="486.05" x2="759.83" y2="477.76"/>
				<line style="fill:none;stroke:#231F20;stroke-width:6.4761;" x1="760.04" y1="492.14" x2="769.03" y2="487.94"/>
				<line style="fill:none;stroke:#231F20;stroke-width:6.4761;" x1="754.01" y1="513.31" x2="759.5" y2="521.58"/>
				<line style="fill:none;stroke:#231F20;stroke-width:6.4761;" x1="759.71" y1="507.21" x2="768.71" y2="511.41"/>
				<line style="fill:none;stroke:#231F20;stroke-width:6.4761;" x1="737.9" y1="513.47" x2="732.41" y2="521.75"/>
				<line style="fill:none;stroke:#231F20;stroke-width:6.4761;" x1="732.21" y1="507.37" x2="723.21" y2="511.57"/>
				<line style="fill:none;stroke:#231F20;stroke-width:6.4761;" x1="730.68" y1="499.86" x2="720.75" y2="499.86"/>
				<line style="fill:none;stroke:#231F20;stroke-width:6.4761;" x1="771.58" y1="499.86" x2="761.65" y2="499.86"/>
				<line style="fill:none;stroke:#231F20;stroke-width:6.4761;" x1="746.14" y1="524.87" x2="746.14" y2="514.92"/>
				<polygon style="fill:none;stroke:#231F20;stroke-width:12.9522;" points="506.61,570.05 438.14,570.05 438.14,464.83 
					506.61,464.83 575.08,464.83 643.62,464.83 712.08,464.83 780.55,464.83 780.55,570.05 712.08,570.05 643.62,570.05 
					575.08,570.05 				"/>
				<line style="fill:none;stroke:#231F20;stroke-width:12.9522;" x1="712.08" y1="464.83" x2="712.08" y2="570.05"/>
				<line style="fill:none;stroke:#231F20;stroke-width:12.9522;" x1="643.62" y1="464.83" x2="643.62" y2="570.05"/>
				<line style="fill:none;stroke:#231F20;stroke-width:12.9522;" x1="575.08" y1="464.83" x2="575.08" y2="570.05"/>
				<line style="fill:none;stroke:#231F20;stroke-width:12.9522;" x1="506.61" y1="464.83" x2="506.61" y2="570.05"/>
				<path style="fill:none;stroke:#231F20;stroke-width:6.4761;" d="M115.98,499.64c0,7.2-5.84,13.051-13.05,13.051
					c-7.22,0-13.05-5.851-13.05-13.051c0-7.22,5.83-13.06,13.05-13.06C110.14,486.58,115.98,492.42,115.98,499.64z"/>
				<line style="fill:none;stroke:#231F20;stroke-width:6.4761;" x1="102.83" y1="484.19" x2="102.83" y2="474.27"/>
				<line style="fill:none;stroke:#231F20;stroke-width:6.4761;" x1="94.9" y1="486.12" x2="89.42" y2="477.86"/>
				<line style="fill:none;stroke:#231F20;stroke-width:6.4761;" x1="89.22" y1="492.24" x2="80.22" y2="488.03"/>
				<line style="fill:none;stroke:#231F20;stroke-width:6.4761;" x1="111.03" y1="485.98" x2="116.52" y2="477.7"/>
				<line style="fill:none;stroke:#231F20;stroke-width:6.4761;" x1="116.72" y1="492.08" x2="125.72" y2="487.88"/>
				<line style="fill:none;stroke:#231F20;stroke-width:6.4761;" x1="110.7" y1="513.24" x2="116.19" y2="521.51"/>
				<line style="fill:none;stroke:#231F20;stroke-width:6.4761;" x1="116.39" y1="507.13" x2="125.39" y2="511.34"/>
				<line style="fill:none;stroke:#231F20;stroke-width:6.4761;" x1="94.58" y1="513.4" x2="89.09" y2="521.68"/>
				<line style="fill:none;stroke:#231F20;stroke-width:6.4761;" x1="88.89" y1="507.3" x2="79.89" y2="511.5"/>
				<line style="fill:none;stroke:#231F20;stroke-width:6.4761;" x1="87.37" y1="499.78" x2="77.43" y2="499.78"/>
				<line style="fill:none;stroke:#231F20;stroke-width:6.4761;" x1="128.27" y1="499.78" x2="118.33" y2="499.78"/>
				<line style="fill:none;stroke:#231F20;stroke-width:6.4761;" x1="102.83" y1="524.79" x2="102.83" y2="514.85"/>
				<path style="fill:none;stroke:#231F20;stroke-width:6.4761;" d="M184.72,499.64c0,7.2-5.84,13.051-13.05,13.051
					c-7.22,0-13.06-5.851-13.06-13.051c0-7.22,5.84-13.06,13.06-13.06C178.88,486.58,184.72,492.42,184.72,499.64z"/>
				<line style="fill:none;stroke:#231F20;stroke-width:6.4761;" x1="171.56" y1="484.19" x2="171.56" y2="474.27"/>
				<line style="fill:none;stroke:#231F20;stroke-width:6.4761;" x1="163.64" y1="486.12" x2="158.16" y2="477.86"/>
				<line style="fill:none;stroke:#231F20;stroke-width:6.4761;" x1="157.96" y1="492.24" x2="148.96" y2="488.03"/>
				<line style="fill:none;stroke:#231F20;stroke-width:6.4761;" x1="179.77" y1="485.98" x2="185.26" y2="477.7"/>
				<line style="fill:none;stroke:#231F20;stroke-width:6.4761;" x1="185.45" y1="492.08" x2="194.45" y2="487.88"/>
				<line style="fill:none;stroke:#231F20;stroke-width:6.4761;" x1="179.44" y1="513.24" x2="184.93" y2="521.51"/>
				<line style="fill:none;stroke:#231F20;stroke-width:6.4761;" x1="185.13" y1="507.13" x2="194.13" y2="511.34"/>
				<line style="fill:none;stroke:#231F20;stroke-width:6.4761;" x1="163.31" y1="513.4" x2="157.83" y2="521.68"/>
				<line style="fill:none;stroke:#231F20;stroke-width:6.4761;" x1="157.63" y1="507.3" x2="148.63" y2="511.5"/>
				<line style="fill:none;stroke:#231F20;stroke-width:6.4761;" x1="156.1" y1="499.78" x2="146.18" y2="499.78"/>
				<line style="fill:none;stroke:#231F20;stroke-width:6.4761;" x1="197.01" y1="499.78" x2="187.07" y2="499.78"/>
				<line style="fill:none;stroke:#231F20;stroke-width:6.4761;" x1="171.56" y1="524.79" x2="171.56" y2="514.85"/>
				<path style="fill:none;stroke:#231F20;stroke-width:6.4761;" d="M253.18,499.64c0,7.2-5.85,13.051-13.05,13.051
					c-7.22,0-13.05-5.851-13.05-13.051c0-7.22,5.83-13.06,13.05-13.06C247.33,486.58,253.18,492.42,253.18,499.64z"/>
				<line style="fill:none;stroke:#231F20;stroke-width:6.4761;" x1="240.03" y1="484.19" x2="240.03" y2="474.27"/>
				<line style="fill:none;stroke:#231F20;stroke-width:6.4761;" x1="232.1" y1="486.12" x2="226.61" y2="477.86"/>
				<line style="fill:none;stroke:#231F20;stroke-width:6.4761;" x1="226.41" y1="492.24" x2="217.41" y2="488.03"/>
				<line style="fill:none;stroke:#231F20;stroke-width:6.4761;" x1="248.22" y1="485.98" x2="253.71" y2="477.7"/>
				<line style="fill:none;stroke:#231F20;stroke-width:6.4761;" x1="253.91" y1="492.08" x2="262.91" y2="487.88"/>
				<line style="fill:none;stroke:#231F20;stroke-width:6.4761;" x1="247.9" y1="513.24" x2="253.39" y2="521.51"/>
				<line style="fill:none;stroke:#231F20;stroke-width:6.4761;" x1="253.59" y1="507.13" x2="262.59" y2="511.34"/>
				<line style="fill:none;stroke:#231F20;stroke-width:6.4761;" x1="231.78" y1="513.4" x2="226.29" y2="521.68"/>
				<line style="fill:none;stroke:#231F20;stroke-width:6.4761;" x1="226.09" y1="507.3" x2="217.09" y2="511.5"/>
				<line style="fill:none;stroke:#231F20;stroke-width:6.4761;" x1="224.57" y1="499.78" x2="214.63" y2="499.78"/>
				<line style="fill:none;stroke:#231F20;stroke-width:6.4761;" x1="265.46" y1="499.78" x2="255.53" y2="499.78"/>
				<line style="fill:none;stroke:#231F20;stroke-width:6.4761;" x1="240.03" y1="524.79" x2="240.03" y2="514.85"/>
				<path style="fill:none;stroke:#231F20;stroke-width:6.4761;" d="M321.44,499.64c0,7.21-5.84,13.061-13.06,13.061
					c-7.21,0-13.05-5.851-13.05-13.061s5.84-13.06,13.05-13.06C315.6,486.58,321.44,492.43,321.44,499.64z"/>
				<line style="fill:none;stroke:#231F20;stroke-width:6.4761;" x1="308.28" y1="484.21" x2="308.28" y2="474.27"/>
				<line style="fill:none;stroke:#231F20;stroke-width:6.4761;" x1="300.36" y1="486.14" x2="294.87" y2="477.86"/>
				<line style="fill:none;stroke:#231F20;stroke-width:6.4761;" x1="294.68" y1="492.25" x2="285.68" y2="488.04"/>
				<line style="fill:none;stroke:#231F20;stroke-width:6.4761;" x1="316.49" y1="485.98" x2="321.98" y2="477.71"/>
				<line style="fill:none;stroke:#231F20;stroke-width:6.4761;" x1="322.18" y1="492.09" x2="331.17" y2="487.88"/>
				<line style="fill:none;stroke:#231F20;stroke-width:6.4761;" x1="316.16" y1="513.24" x2="321.64" y2="521.52"/>
				<line style="fill:none;stroke:#231F20;stroke-width:6.4761;" x1="321.85" y1="507.14" x2="330.84" y2="511.34"/>
				<line style="fill:none;stroke:#231F20;stroke-width:6.4761;" x1="300.03" y1="513.41" x2="294.54" y2="521.69"/>
				<line style="fill:none;stroke:#231F20;stroke-width:6.4761;" x1="294.35" y1="507.3" x2="285.35" y2="511.5"/>
				<line style="fill:none;stroke:#231F20;stroke-width:6.4761;" x1="292.82" y1="499.79" x2="282.89" y2="499.79"/>
				<line style="fill:none;stroke:#231F20;stroke-width:6.4761;" x1="333.72" y1="499.79" x2="323.79" y2="499.79"/>
				<line style="fill:none;stroke:#231F20;stroke-width:6.4761;" x1="308.28" y1="524.8" x2="308.28" y2="514.87"/>
				<path style="fill:none;stroke:#231F20;stroke-width:6.4761;" d="M390.05,499.71c0,7.2-5.84,13.04-13.04,13.04
					c-7.22,0-13.06-5.84-13.06-13.04c0-7.22,5.84-13.06,13.06-13.06C384.21,486.65,390.05,492.49,390.05,499.71z"/>
				<line style="fill:none;stroke:#231F20;stroke-width:6.4761;" x1="376.9" y1="484.27" x2="376.9" y2="474.33"/>
				<line style="fill:none;stroke:#231F20;stroke-width:6.4761;" x1="368.98" y1="486.2" x2="363.5" y2="477.93"/>
				<line style="fill:none;stroke:#231F20;stroke-width:6.4761;" x1="363.3" y1="492.31" x2="354.29" y2="488.1"/>
				<line style="fill:none;stroke:#231F20;stroke-width:6.4761;" x1="385.11" y1="486.05" x2="390.59" y2="477.76"/>
				<line style="fill:none;stroke:#231F20;stroke-width:6.4761;" x1="390.79" y1="492.14" x2="399.79" y2="487.94"/>
				<line style="fill:none;stroke:#231F20;stroke-width:6.4761;" x1="384.77" y1="513.31" x2="390.26" y2="521.58"/>
				<line style="fill:none;stroke:#231F20;stroke-width:6.4761;" x1="390.47" y1="507.21" x2="399.47" y2="511.41"/>
				<line style="fill:none;stroke:#231F20;stroke-width:6.4761;" x1="368.66" y1="513.47" x2="363.17" y2="521.75"/>
				<line style="fill:none;stroke:#231F20;stroke-width:6.4761;" x1="362.97" y1="507.37" x2="353.97" y2="511.57"/>
				<line style="fill:none;stroke:#231F20;stroke-width:6.4761;" x1="361.44" y1="499.86" x2="351.51" y2="499.86"/>
				<line style="fill:none;stroke:#231F20;stroke-width:6.4761;" x1="402.34" y1="499.86" x2="392.41" y2="499.86"/>
				<line style="fill:none;stroke:#231F20;stroke-width:6.4761;" x1="376.9" y1="524.87" x2="376.9" y2="514.92"/>
				<polygon style="fill:none;stroke:#231F20;stroke-width:12.9522;" points="137.36,570.05 68.9,570.05 68.9,464.83 137.36,464.83 
					205.83,464.83 274.38,464.83 342.84,464.83 411.3,464.83 411.3,570.05 342.84,570.05 274.38,570.05 205.83,570.05 				"/>
				<line style="fill:none;stroke:#231F20;stroke-width:12.9522;" x1="342.84" y1="464.83" x2="342.84" y2="570.05"/>
				<line style="fill:none;stroke:#231F20;stroke-width:12.9522;" x1="274.38" y1="464.83" x2="274.38" y2="570.05"/>
				<line style="fill:none;stroke:#231F20;stroke-width:12.9522;" x1="205.83" y1="464.83" x2="205.83" y2="570.05"/>
				<line style="fill:none;stroke:#231F20;stroke-width:12.9522;" x1="137.36" y1="464.83" x2="137.36" y2="570.05"/>
			</g>
		</g>
	</g>
</g>
<g>
	<polyline style="fill:none;stroke:#231F20;stroke-width:21;" points="562.616,297.779 531.298,391.537 442.227,348.51 	"/>
	<path style="fill:none;stroke:#231F20;stroke-width:21;" d="M327.2,352.899c10.1-42.044,52.074-77.116,95.333-77.116
		c54.673,0,102.403,44.666,102.403,108.424"/>
</g>
<rect style="fill:none;" width="850.394" height="850.394"/>
</svg>
