<svg xmlns="http://www.w3.org/2000/svg" width="848.557" height="848.557" viewBox="0 0 848.557 848.557" overflow="visible"><path d="M133.461 414.67c0-61.06 9.13-112.316 27.412-153.75 13.642-30.53 32.254-57.932 55.855-82.196 23.602-24.264 49.444-42.252 77.547-53.975 37.37-15.806 80.471-23.718 129.301-23.718 88.383 0 159.099 27.402 212.159 82.196 53.059 54.793 79.593 130.986 79.593 228.578 0 96.783-26.329 172.498-78.979 227.155-52.649 54.657-123.024 81.981-211.135 81.981-89.202 0-160.132-27.188-212.782-81.571-52.651-54.385-78.971-129.281-78.971-224.7zm124.731-4.093c0 67.861 15.708 119.293 47.134 154.314 31.417 35.022 71.311 52.523 119.683 52.523 48.362 0 88.052-17.364 119.069-52.113 31.007-34.75 46.521-86.863 46.521-156.362 0-68.67-15.104-119.897-45.293-153.691-30.198-33.794-70.298-50.691-120.297-50.691-50.009 0-90.313 17.102-120.911 51.305-30.607 34.204-45.906 85.772-45.906 154.715z" fill="#50264c"/><path fill="none" d="M0 0h848.557v848.557H0z"/></svg>