<svg xmlns="http://www.w3.org/2000/svg" width="850.394" height="850.394" viewBox="0 0 850.394 850.394" overflow="visible"><path d="M338.61 540.16c-5.06-1.87-7.69-2.32-12.07-2.99-4.25-.67-14.24-4.439-17.63-7.92-4.07-4.2-4.98-14.63-2.41-21.83 1.82-5.15 18.08-20.91 19.05-23.82-3.29 16.38-9.45 44.75 13.06 56.56z" fill="#ffeec8"/><path d="M152.19 418.65c-1.94-2.02-2.79-2.92-2.79-2.92-18.1-75.96-7.2-176.38 27.89-227.06C254.26 77.54 350.6 69.9 486.98 85.8c101.26 11.81 187.85 102.99 165.99 288.75-2.989-2.97-7.05-5.14-12.43-6.08-26.71-4.67-46.65 13.93-47.2 42.67h-.54c.601-44.18 19.96-126.54-21.63-184.11-24.02-33.27-51.75-46.21-51.75-46.21-19.5-2.15-171.26-48.05-285.24 20.95 0 0-82.55 82.55-60.01 214.89 1.45 8.49 2.91 17.16 4.32 25.95l-2.28.359c-12.91-12.909-20.38-20.559-24.02-24.319z" fill="#c8c8c8"/><path d="M281.26 400.59c0 12.15-10.31 22.01-23.04 22.01s-23.05-9.86-23.05-22.01c0-1.62-.05-2.81-.02-3.83l-.52-2.03c4.23-1.08 8.7-1.7 13.39-1.98-2.51 2.23-4.06 5.29-4.06 8.67 0 6.83 6.28 12.36 14.05 12.36 7.76 0 14.02-5.53 14.02-12.36 0-3.12-1.32-5.97-3.5-8.15 4.46.49 8.79 1.31 12.78 2.68.56 1.59-.05 1.88-.05 4.64zM480.54 394.96l-.38 1.49c.1 1.15.03 2.48.03 4.42 0 12.14-10.341 22-23.061 22s-23.04-9.86-23.04-22c0-2.77-.609-3.06-.04-4.65 3.97-1.36 8.3-2.18 12.75-2.66-2.17 2.17-3.479 5.02-3.479 8.14 0 6.82 6.25 12.35 14.029 12.35 7.75 0 14.03-5.53 14.03-12.35 0-3.38-1.54-6.45-4.05-8.67 4.621.27 9.031.88 13.211 1.93z" fill="#a8d7f4"/><path d="M235.15 396.76c-.03 1.02.02 2.21.02 3.83 0 12.15 10.32 22.01 23.05 22.01s23.04-9.86 23.04-22.01c0-2.76.61-3.05.05-4.64 6.83 2.32 12.64 6.25 16.39 12.88 2.21 3.91 5.14 6.63 1.28 9.01-3.29 2.04-7.25.59-10.78 2.23-2.36 1.11-4.52 3.83-7.05 4.98-3 1.4-7.02 2.2-10.26 2.87-7.67 1.57-17.75 1.12-25.09-1.5-10.51-3.74-19.79-9.88-28.02-16.94l-5.04-2.65c6.33-6.26 13.67-10.02 21.89-12.1l.52 2.03zM501.45 406l-3.2 3.16c-8.38 7.3-17.89 13.7-28.7 17.53-7.34 2.619-17.42 3.079-25.09 1.5-3.25-.671-7.25-1.48-10.26-2.86-2.53-1.16-4.7-3.88-7.05-4.99-3.53-1.64-7.49-.19-10.78-2.23-3.85-2.38-.92-5.1 1.27-9.01 3.75-6.63 9.58-10.56 16.41-12.88-.569 1.59.04 1.88.04 4.65 0 12.14 10.32 22 23.04 22s23.061-9.86 23.061-22c0-1.94.069-3.27-.03-4.42l.38-1.49c7.799 1.94 14.809 5.39 20.909 11.04z" fill="#fff"/><path d="M392.07 596.77c16.8 2.24 36.541 9.021 62.31 8.561-.83.83-1.66 1.61-2.5 2.36l-.01-.011c-44.05 3.681-109.31 6.63-154.71 6.63l-.63-2.109c15.56-4.42 29.04-15.61 44.3-15.91 4.4-.09 8.94.72 13.72 2.86 13.1 5.85 20.55-4.23 35-2.681.83.09 1.67.19 2.52.3z" fill="#ef947d"/><path d="M320.66 627.08c-12.55-3.01-23.58-9.05-35.56-13.11 3.96-.06 7.75-.72 11.43-1.77l.63 2.109c45.4 0 110.66-2.949 154.71-6.63l.01.011c-21.54 19.279-46.96 16.35-75.17 18.77-18.04 1.56-38.25 4.92-56.05.62z" fill="#ef947d"/><path d="M377.98 535.56c.25 13.12 5.4 41.931 14.33 59.381l-.24 1.829c-.85-.109-1.69-.21-2.52-.3-14.45-1.55-21.9 8.53-35 2.681-4.78-2.141-9.32-2.95-13.72-2.86l-.02-1.84c3.63-9.521 8.51-41.141 8.41-51.431 7.64 1.29 15.75.86 21.65-3.42 1.74-1.26 3.35-2.26 4.92-3.05.74-.38 1.47-.71 2.19-.99zM311.66 757.16L282 758l-1.39-.85c10.15-16.841 11.88-30.99 14.59-50.36l1.11-2.59c34.58 22.28 106.09 11.18 141.89 11.18 41.319 0 98.83-66.68 128.39-112.67l.07.04c-.33 20.28 40.42 90.86 40.42 90.86 25.16 29.199 72 27.64 99.91 51.189L706 746l-394.34 11.16zM187.2 515.94c.1 1.8.24 3.579.4 5.319-18.28-2.06-30.8-23.939-32.81-35.439-3.49-19.99 3.21-40.46-2.6-67.17 3.64 3.76 11.11 11.41 24.02 24.32l2.28-.359c3.85 23.939 7.28 48.799 8.71 73.329z" fill="#ffeec8"/><path d="M338.61 540.16c-22.51-11.811-16.35-40.18-13.06-56.561-.97 2.91-17.23 18.67-19.05 23.82-2.57 7.2-1.66 17.63 2.41 21.83 3.39 3.48 13.38 7.25 17.63 7.92 4.38.671 7.01 1.121 12.07 2.991zm-10.48-144.02c-.37-.71-.75-1.4-1.15-2.08l1.15 2.08zM501.45 406c-6.101-5.65-13.11-9.1-20.91-11.04-4.18-1.05-8.59-1.66-13.21-1.93-2.54-2.27-6.07-3.68-9.98-3.68-4.22 0-7.989 1.63-10.55 4.21-4.45.48-8.78 1.3-12.75 2.66-6.83 2.32-12.66 6.25-16.41 12.88-2.19 3.91-5.12 6.63-1.27 9.01 3.29 2.04 7.25.59 10.78 2.23 2.35 1.11 4.52 3.83 7.05 4.99 3.01 1.38 7.01 2.189 10.26 2.86 7.67 1.579 17.75 1.119 25.09-1.5 10.811-3.831 20.32-10.23 28.7-17.53l3.2-3.16zM187.6 521.26c-.16-1.74-.3-3.52-.4-5.319-1.43-24.53-4.86-49.391-8.71-73.33-1.41-8.79-2.87-17.46-4.32-25.95-22.54-132.34 60.01-214.89 60.01-214.89 113.98-69 265.74-23.1 285.24-20.95 0 0 27.73 12.94 51.75 46.21 41.59 57.57 22.23 139.93 21.63 184.11h.54c.55-28.74 20.49-47.34 47.2-42.67 5.38.94 9.44 3.11 12.43 6.08 10.83 10.74 7.62 32.02 2.261 43.92-16.631 36.97-9.021 50.57-11.141 78.76-1.18 15.76-29.07 48.76-50.62 27.579l-1.14-.149c-2.88 21.7-6.29 37.439-6.61 39.75-.96 6.859-8.1 21.14-19.13 38.3-29.56 45.99-87.07 112.67-128.39 112.67-35.8 0-107.31 11.101-141.89-11.18a49.14 49.14 0 0 1-5.07-3.74c-19.99-16.9-54.81-72.06-62.82-86.62-9.06-16.451-36.2-43.131-40.82-92.581zm97.5 92.71c11.98 4.061 23.01 10.101 35.56 13.11 17.8 4.3 38.01.939 56.05-.62 28.21-2.42 53.63.51 75.17-18.77.84-.75 1.67-1.53 2.5-2.36-25.77.46-45.51-6.32-62.31-8.561l.24-1.829c-8.93-17.45-14.08-46.261-14.33-59.381 6.16-2.449 12.08-1.899 22.36-1.399 1.39.07 2.79.01 4.18-.15-9.05-4.189-21.22-6.819-28.73 2.54-1.57.79-3.18 1.79-4.92 3.05-5.9 4.28-14.01 4.71-21.65 3.42.1 10.29-4.78 41.91-8.41 51.431l.02 1.84c-15.26.3-28.74 11.49-44.3 15.91-3.68 1.049-7.47 1.709-11.43 1.769zm3.1-193.9c3.53-1.64 7.49-.19 10.78-2.23 3.86-2.38.93-5.1-1.28-9.01-3.75-6.63-9.56-10.56-16.39-12.88-3.99-1.37-8.32-2.19-12.78-2.68-2.56-2.57-6.32-4.19-10.52-4.19-3.91 0-7.45 1.4-9.99 3.67-4.69.28-9.16.9-13.39 1.98-8.22 2.08-15.56 5.84-21.89 12.1l5.04 2.65c8.23 7.06 17.51 13.2 28.02 16.94 7.34 2.62 17.42 3.07 25.09 1.5 3.24-.67 7.26-1.47 10.26-2.87 2.53-1.15 4.69-3.87 7.05-4.98zm50.5 247.08l66.89-5.851c-23.57-19.229-50.58-11.719-66.89 5.851z" fill="#ffeec8"/><path d="M457.35 396.23c2.79 0 5.04 2.44 5.04 5.48 0 3.03-2.25 5.48-5.04 5.48-2.779 0-5.02-2.45-5.02-5.48 0-3.04 2.24-5.48 5.02-5.48z" fill="#231f20"/><path d="M462.39 401.71c0-3.04-2.25-5.48-5.04-5.48-2.779 0-5.02 2.44-5.02 5.48 0 3.03 2.24 5.48 5.02 5.48 2.79 0 5.04-2.45 5.04-5.48zm-4.27-8.84c3.149-.07 6.229-.02 9.21.16 2.51 2.22 4.05 5.29 4.05 8.67 0 6.82-6.28 12.35-14.03 12.35-7.779 0-14.029-5.53-14.029-12.35 0-3.12 1.31-5.97 3.479-8.14 3.72-.42 7.54-.6 11.32-.69z" fill="#231f20"/><path d="M457.35 389.35c3.91 0 7.44 1.41 9.98 3.68-2.98-.18-6.061-.23-9.21-.16-3.78.09-7.601.27-11.32.69 2.56-2.58 6.33-4.21 10.55-4.21z" fill="#231f20"/><path d="M405.59 661.3l-66.89 5.851c16.31-17.571 43.32-25.081 66.89-5.851z" fill="#fff"/><path d="M258 395.95c2.78 0 5.02 2.46 5.02 5.48 0 3.03-2.24 5.49-5.02 5.49s-5.03-2.46-5.03-5.49c0-3.02 2.25-5.48 5.03-5.48z" fill="#231f20"/><path d="M263.02 401.43c0-3.02-2.24-5.48-5.02-5.48s-5.03 2.46-5.03 5.48c0 3.03 2.25 5.49 5.03 5.49s5.02-2.46 5.02-5.49zm-5.79-8.84c3.78.09 7.58.27 11.3.68 2.18 2.18 3.5 5.03 3.5 8.15 0 6.83-6.26 12.36-14.02 12.36-7.77 0-14.05-5.53-14.05-12.36 0-3.38 1.55-6.44 4.06-8.67 2.98-.18 6.06-.23 9.21-.16z" fill="#231f20"/><path d="M248.02 392.75c2.54-2.27 6.08-3.67 9.99-3.67 4.2 0 7.96 1.62 10.52 4.19-3.72-.41-7.52-.59-11.3-.68-3.15-.07-6.23-.02-9.21.16z" fill="#231f20"/><g fill="none" stroke="#231f20"><path d="M434.61 394.96c-.261.51-.44.92-.561 1.26-.569 1.59.04 1.88.04 4.65 0 12.14 10.32 22 23.04 22s23.061-9.86 23.061-22c0-1.94.069-3.27-.03-4.42M280.75 394.67c.26.52.44.93.56 1.28.56 1.59-.05 1.88-.05 4.64 0 12.15-10.31 22.01-23.04 22.01s-23.05-9.86-23.05-22.01c0-1.62-.05-2.81-.02-3.83" stroke-width="7.393" stroke-linecap="square" stroke-miterlimit="10"/><path d="M303.81 417.39s-7.4 38.82-62.84 49.9M415.3 420.79s15.41 40.66 72.7 45.59M306.26 527.36s-17.11 22.25-25.88 33.27c-19.09 24.03-16.01 49.28-12.31 64.69M440.57 540.61s17.109 22.25 25.88 33.27c19.09 24.021 16 49.28 12.31 64.68M250.55 275.89c7.8 2.88 15.87 5.7 26.2 4.92 20.55-1.58 35.47-12.36 54.51-16.91 18.32-4.37 35.91-3 54.59 2.91 8.96 2.84 59.94 34.29 93.76.47M253.09 315.21c7.8 2.88 15.86 5.7 26.2 4.91 20.54-1.57 35.47-12.36 54.51-16.91 18.32-4.37 35.9-2.99 54.59 2.91 8.95 2.84 59.94 34.3 93.77.48" stroke-width="7.393"/><path d="M290.87 746.99s7.38 5.21 20.79 10.17c18.51 6.84 48.52 13.189 86.4 4.62M397.73 395.3c5.55-23.62 43.53-40.59 64.54-40.92 19.771-.33 29.65-.09 52.7 10.94" stroke-width="14"/><path d="M209.41 410.48c1.08-1.3 2.19-2.51 3.33-3.65 6.33-6.26 13.67-10.02 21.89-12.1 4.23-1.08 8.7-1.7 13.39-1.98 2.98-.18 6.06-.23 9.21-.16 3.78.09 7.58.27 11.3.68 4.46.49 8.79 1.31 12.78 2.68 6.83 2.32 12.64 6.25 16.39 12.88 2.21 3.91 5.14 6.63 1.28 9.01-3.29 2.04-7.25.59-10.78 2.23-2.36 1.11-4.52 3.83-7.05 4.98-3 1.4-7.02 2.2-10.26 2.87-7.67 1.57-17.75 1.12-25.09-1.5-10.51-3.74-19.79-9.88-28.02-16.94M505.94 410.75a49.89 49.89 0 0 0-4.49-4.75c-6.101-5.65-13.11-9.1-20.91-11.04-4.18-1.05-8.59-1.66-13.21-1.93-2.98-.18-6.061-.23-9.21-.16-3.78.09-7.601.27-11.32.69-4.45.48-8.78 1.3-12.75 2.66-6.83 2.32-12.66 6.25-16.41 12.88-2.19 3.91-5.12 6.63-1.27 9.01 3.29 2.04 7.25.59 10.78 2.23 2.35 1.11 4.52 3.83 7.05 4.99 3.01 1.38 7.01 2.189 10.26 2.86 7.67 1.579 17.75 1.119 25.09-1.5 10.811-3.831 20.32-10.23 28.7-17.53" stroke-width="14" stroke-linecap="square" stroke-miterlimit="10"/><path d="M652.95 374.75c.01-.07.02-.13.02-.2C674.83 188.79 588.24 97.61 486.98 85.8 350.6 69.9 254.26 77.54 177.29 188.67c-35.09 50.68-45.99 151.1-27.89 227.06 0 0 .85.9 2.79 2.92 3.64 3.76 11.11 11.41 24.02 24.32" stroke-width="21"/><path d="M598.9 438.34c-4.87-4.87-6.271-14.45-6.101-27.2.601-44.18 19.96-126.54-21.63-184.11-24.02-33.27-51.75-46.21-51.75-46.21-19.5-2.15-171.26-48.05-285.24 20.95 0 0-82.55 82.55-60.01 214.89 1.45 8.49 2.91 17.16 4.32 25.95 3.85 23.939 7.28 48.8 8.71 73.33.1 1.8.24 3.579.4 5.319 4.62 49.45 31.76 76.13 40.82 92.58 8.01 14.561 42.83 69.72 62.82 86.62a49.14 49.14 0 0 0 5.07 3.74c34.58 22.28 106.09 11.18 141.89 11.18 41.319 0 98.83-66.68 128.39-112.67 11.03-17.16 18.17-31.44 19.13-38.3.32-2.311 3.73-18.05 6.61-39.75 2.21-16.55 4.1-36.57 4.1-56.75M522.09 174.98c8.62-24.65 13.22-31.69 29.93-50.26" stroke-width="21"/><path d="M285.1 613.97c3.96-.06 7.75-.72 11.43-1.77 15.56-4.42 29.04-15.61 44.3-15.91 4.4-.09 8.94.72 13.72 2.86 13.1 5.85 20.55-4.23 35-2.681.83.09 1.67.19 2.52.3 16.8 2.24 36.541 9.021 62.31 8.561 2.8-.04 5.67-.17 8.62-.41" stroke-width="14"/><path d="M276.75 611.55c2.85.66 5.61 1.48 8.33 2.42.01-.01.01-.01.02 0 11.98 4.061 23.01 10.101 35.56 13.11 17.8 4.3 38.01.939 56.05-.62 28.21-2.42 53.63.51 75.17-18.77.84-.75 1.67-1.53 2.5-2.36a64.4 64.4 0 0 0 2-2.061" stroke-width="14"/><path d="M297.16 614.31c45.4 0 110.66-2.949 154.71-6.63" stroke-width="7"/><path d="M328.13 396.14c-10.62-26.57-48.32-41.12-69.32-41.73-19.75-.58-29.63-.46-52.84 10.27" stroke-width="14"/><path d="M328.13 396.14c-.37-.71-.75-1.4-1.15-2.08l1.15 2.08zM408.08 493.28c6.73 8.819 16.15 2.729 16.57 15.27.5 16.061-9.62 24.16-20.13 25.46-1.39.16-2.79.221-4.18.15-10.28-.5-16.2-1.05-22.36 1.399-.72.28-1.45.61-2.19.99-1.57.79-3.18 1.79-4.92 3.05-5.9 4.28-14.01 4.71-21.65 3.42-3.75-.619-7.4-1.659-10.61-2.859-5.06-1.87-7.69-2.32-12.07-2.99-4.25-.67-14.24-4.439-17.63-7.92-4.07-4.2-4.98-14.63-2.41-21.83 1.82-5.15 18.08-20.91 19.05-23.82 6.08-18.22 16.28-61.04 2.58-87.459" stroke-width="14"/><path d="M349.22 542.98v.039c.1 10.29-4.78 41.91-8.41 51.431M377.96 534.57c0 .319 0 .649.02.989.25 13.12 5.4 41.931 14.33 59.381M325.82 482.23c-.09.449-.18.899-.27 1.369-3.29 16.381-9.45 44.75 13.06 56.561" stroke-width="14"/><path d="M595.2 428.48c-1.37-6.09-1.97-11.9-1.86-17.34.55-28.74 20.49-47.34 47.2-42.67 5.38.94 9.44 3.11 12.43 6.08 10.83 10.74 7.62 32.02 2.261 43.92-16.631 36.97-9.021 50.57-11.141 78.76-1.18 15.76-29.07 48.76-50.62 27.579M149.4 408.34c1.16 3.54 2.08 6.97 2.79 10.31 5.81 26.71-.89 47.18 2.6 67.17 2.01 11.5 14.53 33.38 32.81 35.439.92.11 1.85.16 2.79.16M566.66 602.75c-.33 20.28 40.42 90.86 40.42 90.86 25.16 29.199 72 27.64 99.91 51.189a58.59 58.59 0 0 1 5.649 5.4M295.2 706.79c-2.71 19.37-4.44 33.52-14.59 50.36-.98 1.64-2.05 3.31-3.21 5.01" stroke-width="21"/><path d="M373.78 539.53c.62-1.11 1.29-2.101 2.01-2.98 7.51-9.359 19.68-6.729 28.73-2.54.62.28 1.23.57 1.82.87" stroke-width="14"/><path d="M338.7 667.15c16.31-17.57 43.32-25.08 66.89-5.851M415.92 405.69s6.11-26.82 34.66-29.42c30.49-2.77 41.58 5.08 59.6 20.33M299.95 404.92s-2.77-21.72-28.19-26.8c-25.41-5.08-39.73-1.39-49.43 3.23-9.71 4.62-19.87 13.87-19.87 13.87" stroke-width="7.393"/></g><path fill="none" d="M0 0h850.394v850.394H0z"/></svg>