<?xml version="1.0" encoding="iso-8859-1"?>
<!-- Generator: Adobe Illustrator 12.0.1, SVG Export Plug-In . SVG Version: 6.00 Build 51448)  -->
<!DOCTYPE svg PUBLIC "-//W3C//DTD SVG 1.1//EN" "http://www.w3.org/Graphics/SVG/1.1/DTD/svg11.dtd" [
	<!ENTITY ns_svg "http://www.w3.org/2000/svg">
	<!ENTITY ns_xlink "http://www.w3.org/1999/xlink">
]>
<svg  version="1.1" id="Layer_1" xmlns="&ns_svg;" xmlns:xlink="&ns_xlink;" width="850.89" height="850.89"
	 viewBox="0 0 850.89 850.89" style="overflow:visible;enable-background:new 0 0 850.89 850.89;" xml:space="preserve">
<g>
	<g id="XMLID_1_">
		<g>
			<path style="fill:#0D72BA;" d="M614.17,423.44c5.92,3.82,12.86,8.66,16.98,12.78c0,0,16.18,32.641,21.08,52.41
				c3.359,13.64,11.68,42.23,11.68,42.23c0.28,0.899,0.55,1.819,0.79,2.75l-3.45,0.64l-10.52-0.07l-25.461-55.72l-3.05,31.76
				c0.94,2.511,3.36,9.58,4.94,19.5l-0.9,0.141h-72.68l-3.05-0.36c1.39-11.98,3.649-19.23,3.649-19.23l-2.51-32.119l-25.46,55.72
				l-10.96-2.62l-2.22-0.69c0,0,8.31-28.59,11.689-42.229c4.891-19.78,21.07-52.41,21.07-52.41c4.13-4.12,11.07-8.97,16.979-12.78
				c5.9-3.82,10.78-6.6,10.78-6.6c3.61,3.78,8.2,6.05,13.21,6.05c4.9,0,9.4-2.17,12.98-5.81l3.649,0.05
				C603.39,416.83,608.27,419.62,614.17,423.44z"/>
			<path style="fill:#FFEEC8;" d="M654.46,553.01c-2.44,0.5-1.19,4.05-2.979,4.05c-1.561-1.56-2.091-5.85-2.091-10.35
				c0-5.29,0.73-10.85,1.341-12.53l10.52,0.07l3.45-0.64c2.54,9.739,2.96,20.659,1.93,24.34c-0.66,2.38-3.76,5.75-6.66,5.399
				C656.76,563,656.02,555.42,654.46,553.01z"/>
			<path style="fill:#FFEEC8;" d="M526.21,533.87c0.61,1.689,1.34,7.26,1.34,12.56c0,4.49-0.52,8.78-2.08,10.33
				c-1.8,0-0.55-3.56-2.989-4.06c-1.561,2.42-2.29,10.01-5.511,10.35c-2.899,0.351-5.989-3.02-6.649-5.399
				c-1.13-4.04-0.53-16.761,2.71-27.091l2.22,0.69L526.21,533.87z"/>
			<path style="fill:#FFEEC8;" d="M207.64,532.15c-1.78,0-0.54-3.57-2.98-4.07c-1.55,2.41-2.29,10-5.51,10.36
				c-2.9,0.34-6-3.04-6.66-5.41c-1.01-3.62-0.63-14.19,1.79-23.78h11.97l2.14,0.01c0.61,1.681,1.34,7.24,1.34,12.53
				C209.73,526.29,209.2,530.58,207.64,532.15z"/>
			<path style="fill:#6EBE44;" d="M296.36,398.82c5.91,3.82,12.85,8.66,16.97,12.78c0,0,16.18,32.64,21.07,52.41
				c3.37,13.641,11.69,42.23,11.69,42.23c0.4,1.29,0.77,2.62,1.09,3.96l-14.27-0.641l-25.46-55.729l-3.05,31.78
				c0.94,2.489,3.35,9.56,4.94,19.47l-0.9,0.16h-72.69l-3.04-0.36c1.39-11.979,3.65-19.24,3.65-19.24l-2.51-32.1l-25.46,55.72
				l-2.14-0.01h-11.97c0.28-1.12,0.59-2.23,0.93-3.31c0,0,8.31-28.591,11.69-42.23c4.89-19.78,21.07-52.41,21.07-52.41
				c4.12-4.12,11.06-8.96,16.98-12.78c5.77-3.72,10.55-6.48,10.78-6.6c3.61,3.78,8.21,6.06,13.21,6.06c4.89,0,9.4-2.17,12.97-5.81
				l3.65,0.04C285.56,392.21,290.45,395,296.36,398.82z"/>
			<path style="fill:#FFFFFF;" d="M349.76,126.56c0,0.91-0.03,1.81-0.1,2.71c-17.86,5.42-31.65,20.21-35.65,38.65l-0.69-0.15
				c-1.66,0.2-3.35,0.3-5.07,0.3c-22.92,0-41.5-18.58-41.5-41.51c0-22.92,18.58-41.5,41.5-41.5
				C331.18,85.06,349.76,103.64,349.76,126.56z"/>
			<path style="fill:#FFFFFF;" d="M346.83,140.32l0.54,0.18c-4,11.2-12.66,20.18-23.65,24.59
				C327.55,153.91,336.03,144.89,346.83,140.32z"/>
			<path style="fill:#FFFFFF;" d="M321.48,178.56c0-0.27,0-0.54,0.02-0.8h0.02c19.98-4.49,35.62-20.48,39.58-40.66
				c0.63-0.03,1.25-0.05,1.89-0.05c1.78,0,3.55,0.08,5.29,0.25c4.59,17.81,18.38,31.92,35.99,36.97c0.15,1.41,0.22,2.84,0.22,4.29
				c0,22.93-18.58,41.51-41.5,41.51C340.06,220.07,321.48,201.49,321.48,178.56z"/>
			<path style="fill:#FFFFFF;" d="M401.86,160.21c-10.54-4.17-19.71-11.4-23.51-20.74l0.08-0.24c10.64,3.2,19.45,9.88,23.82,20.02
				L401.86,160.21z"/>
			<path style="fill:#FFFFFF;" d="M458.31,123.83c0,2.17-0.17,4.31-0.489,6.39c-16.19,5.24-28.91,18.21-33.8,34.56l-1.77-0.53
				c-2.69,0-5.44-0.23-8.2-0.67l0.2-1.33c-5.09-18.73-19.85-31.03-38.86-34.33l0.07-0.46c-0.1-1.2-0.16-2.41-0.16-3.63
				c0-22.93,18.58-41.51,41.51-41.51C439.73,82.32,458.31,100.9,458.31,123.83z"/>
			<path style="fill:#FFFFFF;" d="M454.22,141.8c-4.109,8.56-11.069,15.49-19.66,19.55c4.091-8.55,11.03-15.49,19.591-19.58
				L454.22,141.8z"/>
			<path style="fill:#FFFFFF;" d="M513.29,174.78c0.16,1.47,0.24,2.95,0.24,4.46c0,22.92-18.58,41.5-41.511,41.5
				c-22.92,0-41.5-18.58-41.5-41.5c0-1.5,0.08-2.98,0.24-4.43l0.141,0.01c18.449-4.46,33.05-18.76,37.96-37.02l0.14,0.04
				c1-0.07,2.01-0.11,3.02-0.11c2.261,0,4.48,0.18,6.65,0.53C483.15,155.58,496.34,169.41,513.29,174.78z"/>
			<path style="fill:#FFFFFF;" d="M509.94,162.34l-0.061,0.13c-9.22-4.23-16.61-11.74-20.7-21.03
				C498.4,145.62,505.82,153.09,509.94,162.34z"/>
			<path style="fill:#FFFFFF;" d="M527.19,83.23c22.92,0,41.51,18.59,41.51,41.51c0,22.93-18.59,41.51-41.51,41.51
				c-1.061,0-2.101-0.04-3.141-0.12c-4.93-18.34-19.66-32.67-38.229-37.05l0.06-0.28c-0.13-1.34-0.2-2.69-0.2-4.06
				C485.68,101.82,504.26,83.23,527.19,83.23z"/>
			<path style="fill:#FFFFFF;" d="M698.25,52.25v195h-0.05H152.25v-9v-186H698.25z M418.63,176.28c1.12,0,2.21-0.03,3.31-0.1h0.03
				c-0.08,1.16-0.12,2.33-0.12,3.51c0,28.72,23.28,52,52,52c28.71,0,51.99-23.28,51.99-52c0-0.86-0.02-1.73-0.07-2.59
				c1.07,0.07,2.15,0.1,3.24,0.1c28.721,0,52-23.29,52-52c0-28.72-23.279-52-52-52c-28.72,0-51.99,23.28-51.99,52l-0.14,2.59
				c-1-0.06-2.01-0.09-3.03-0.09c-1.119,0-2.239,0.04-3.34,0.11c0.08-1.17,0.12-2.34,0.12-3.52c0-28.72-23.28-52-52-52
				s-51.99,23.28-51.99,52c0,0.76,0.01,1.51,0.05,2.27l-0.01,0.49c-0.62-0.02-1.24-0.03-1.87-0.03c-0.92,0-1.83,0.02-2.73,0.07
				c0-0.02,0-0.05,0-0.07c0-28.72-23.29-51.99-52-51.99c-28.72,0-52,23.27-52,51.99s23.28,52,52,52c0.92,0,1.83-0.02,2.74-0.08
				c0,0.03,0,0.05,0,0.08c0,28.72,23.27,52,51.99,52c28.72,0,52-23.28,52-52c0-0.93-0.02-1.86-0.08-2.78
				C417.36,176.27,417.99,176.28,418.63,176.28z"/>
			<path style="fill:#ED1D31;" d="M513.29,174.78c-16.95-5.37-30.14-19.2-34.62-36.52c3.69,0.59,7.21,1.68,10.51,3.18
				c4.09,9.29,11.48,16.8,20.7,21.03c4.37,2.01,9.14,3.29,14.17,3.66c1.04,0.08,2.08,0.12,3.141,0.12
				c22.92,0,41.51-18.58,41.51-41.51c0-22.92-18.59-41.51-41.51-41.51c-22.931,0-41.511,18.59-41.511,41.51
				c0,1.37,0.07,2.72,0.2,4.06l-0.06,0.28c-2.891-0.68-5.88-1.12-8.94-1.29l0.14-2.59c0-28.72,23.271-52,51.99-52
				c28.721,0,52,23.28,52,52c0,28.71-23.279,52-52,52c-1.09,0-2.17-0.03-3.24-0.1C521.44,176.83,517.26,176.04,513.29,174.78z"/>
			<path style="fill:#33A048;" d="M478.67,138.26c-2.17-0.35-4.39-0.53-6.65-0.53c-1.01,0-2.02,0.04-3.02,0.11l-0.14-0.04
				c0.859-3.22,1.42-6.56,1.649-9.99c1.101-0.07,2.221-0.11,3.34-0.11c1.021,0,2.03,0.03,3.03,0.09c3.061,0.17,6.05,0.61,8.94,1.29
				c18.569,4.38,33.3,18.71,38.229,37.05c-5.03-0.37-9.8-1.65-14.17-3.66l0.061-0.13c-4.12-9.25-11.54-16.72-20.761-20.9
				C485.88,139.94,482.36,138.85,478.67,138.26z"/>
			<path style="fill:#33A048;" d="M434.56,161.35c-1.989,4.15-3.3,8.68-3.8,13.46c-0.16,1.45-0.24,2.93-0.24,4.43
				c0,22.92,18.58,41.5,41.5,41.5c22.931,0,41.511-18.58,41.511-41.5c0-1.51-0.08-2.99-0.24-4.46c3.97,1.26,8.15,2.05,12.479,2.32
				c0.051,0.86,0.07,1.73,0.07,2.59c0,28.72-23.28,52-51.99,52c-28.72,0-52-23.28-52-52c0-1.18,0.04-2.35,0.12-3.51
				c0.26-3.94,0.96-7.75,2.05-11.4c4.89-16.35,17.61-29.32,33.8-34.56c-0.63,4.09-1.86,7.98-3.601,11.58l-0.069-0.03
				C445.59,145.86,438.65,152.8,434.56,161.35z"/>
			<path style="fill:#231F20;" d="M375.39,127.92c-2.82-0.5-5.73-0.79-8.71-0.87l0.01-0.49c-0.04-0.76-0.05-1.51-0.05-2.27
				c0-28.72,23.27-52,51.99-52s52,23.28,52,52c0,1.18-0.04,2.35-0.12,3.52c-0.229,3.43-0.79,6.77-1.649,9.99
				c-4.91,18.26-19.511,32.56-37.96,37.02l-0.141-0.01c0.5-4.78,1.811-9.31,3.8-13.46c8.591-4.06,15.551-10.99,19.66-19.55
				c1.74-3.6,2.971-7.49,3.601-11.58c0.319-2.08,0.489-4.22,0.489-6.39c0-22.93-18.579-41.51-41.5-41.51
				c-22.93,0-41.51,18.58-41.51,41.51c0,1.22,0.06,2.43,0.16,3.63L375.39,127.92z"/>
			<path style="fill:#231F20;" d="M404.27,174.27c-17.61-5.05-31.4-19.16-35.99-36.97c3.5,0.32,6.91,0.96,10.15,1.93l-0.08,0.24
				c3.8,9.34,12.97,16.57,23.51,20.74v0.01c3.94,1.56,8.07,2.7,12.19,3.36c2.76,0.44,5.51,0.67,8.2,0.67l1.77,0.53
				c-1.09,3.65-1.79,7.46-2.05,11.4h-0.03c-1.1,0.07-2.19,0.1-3.31,0.1c-0.64,0-1.27-0.01-1.9-0.04
				C412.42,176.09,408.24,175.41,404.27,174.27z"/>
			<path style="fill:#FBEE34;" d="M368.28,137.3c-1.74-0.17-3.51-0.25-5.29-0.25c-0.64,0-1.26,0.02-1.89,0.05
				c0.64-3.24,0.98-6.58,0.98-10.01c0.9-0.05,1.81-0.07,2.73-0.07c0.63,0,1.25,0.01,1.87,0.03c2.98,0.08,5.89,0.37,8.71,0.87
				c19.01,3.3,33.77,15.6,38.86,34.33l-0.2,1.33c-4.12-0.66-8.25-1.8-12.19-3.36v-0.01l0.39-0.96
				c-4.37-10.14-13.18-16.82-23.82-20.02C375.19,138.26,371.78,137.62,368.28,137.3z"/>
			<path style="fill:#FBEE34;" d="M323.72,165.09c-1.37,3.98-2.15,8.24-2.22,12.67c-0.02,0.26-0.02,0.53-0.02,0.8
				c0,22.93,18.58,41.51,41.51,41.51c22.92,0,41.5-18.58,41.5-41.51c0-1.45-0.07-2.88-0.22-4.29c3.97,1.14,8.15,1.82,12.46,1.97
				c0.06,0.92,0.08,1.85,0.08,2.78c0,28.72-23.28,52-52,52c-28.72,0-51.99-23.28-51.99-52c0-0.03,0-0.05,0-0.08
				c0.01-3.78,0.41-7.47,1.19-11.02c4-18.44,17.79-33.23,35.65-38.65c-0.24,3.92-1.03,7.68-2.29,11.23l-0.54-0.18
				C336.03,144.89,327.55,153.91,323.72,165.09z"/>
			<path style="fill:#0D72BA;" d="M308.25,168.07c1.72,0,3.41-0.1,5.07-0.3l0.69,0.15c-0.78,3.55-1.18,7.24-1.19,11.02
				c-0.91,0.06-1.82,0.08-2.74,0.08c-28.72,0-52-23.28-52-52s23.28-51.99,52-51.99c28.71,0,52,23.27,52,51.99c0,0.02,0,0.05,0,0.07
				c0,3.43-0.34,6.77-0.98,10.01c-3.96,20.18-19.6,36.17-39.58,40.66h-0.02c0.07-4.43,0.85-8.69,2.22-12.67
				c10.99-4.41,19.65-13.39,23.65-24.59c1.26-3.55,2.05-7.31,2.29-11.23c0.07-0.9,0.1-1.8,0.1-2.71c0-22.92-18.58-41.5-41.51-41.5
				c-22.92,0-41.5,18.58-41.5,41.5C266.75,149.49,285.33,168.07,308.25,168.07z"/>
			<path style="fill:#C8C8C8;" d="M636.81,680.06c4.2,2.4,6.62,6.561,5.36,11c-0.74,2.601-5.01,4.391-8.9,4.391
				c-1.619,0-3.17-0.3-4.38-1c-7.13-4.061-2.479-2.66-7.79-4.72c-11.22-4.391-14.119-2.82-15.18-13.69l15.33-4.79l1-0.99
				C624.6,673.75,631.33,676.94,636.81,680.06z"/>
			<path style="fill:#0D72BA;" d="M621.4,667.8c0,0.84,0.31,1.66,0.85,2.46l-1,0.99l-15.33,4.79c-0.1-0.99-0.18-2.08-0.25-3.29
				l-1.46-9.76h-0.02L592.2,557.32l-6.08-0.021L573.85,663.4h0.03l-1.04,8.18l-2.59-0.33l-13.05-6.53
				c-1.4-17.59-7.71-97.79-7.71-116.89c0-6.88,0.43-13.061,1.04-18.33l3.05,0.36h72.68l0.9-0.141
				c0.859,5.391,1.479,11.61,1.479,18.4C628.64,568.51,622.06,658.67,621.4,667.8z"/>
			<path style="fill:#231F20;" d="M606.16,746.75c0,4.36-1.59,8.08-4.771,11.15c-3.18,3.069-7.14,4.6-11.87,4.6
				c-4.479,0-8.21-1.29-11.159-3.88c-2.96-2.58-4.67-5.97-5.141-10.15l9.21-1.12c0.29,2.351,1.08,4.15,2.36,5.391
				c1.28,1.25,2.84,1.87,4.66,1.87c1.96,0,3.609-0.74,4.939-2.24c1.351-1.49,2.011-3.5,2.011-6.03c0-2.399-0.641-4.29-1.91-5.689
				c-1.28-1.4-2.84-2.101-4.681-2.101c-1.21,0-2.659,0.23-4.34,0.71l1.05-7.74c2.57,0.061,4.54-0.5,5.9-1.68s2.03-2.76,2.03-4.729
				c0-1.67-0.49-2.99-1.49-3.99c-1-0.99-2.32-1.49-3.97-1.49c-1.641,0-3.03,0.561-4.19,1.69c-1.149,1.12-1.85,2.77-2.1,4.93
				l-8.76-1.48c0.609-3,1.54-5.39,2.76-7.18c1.24-1.8,2.95-3.21,5.149-4.229c2.2-1.021,4.67-1.54,7.4-1.54
				c4.67,0,8.42,1.489,11.24,4.47c2.33,2.44,3.49,5.19,3.49,8.26c0,4.351-2.381,7.82-7.131,10.41c2.82,0.61,5.08,1.98,6.771,4.11
				C605.31,741.19,606.16,743.75,606.16,746.75z"/>
			<path style="fill:#FFF5B4;" d="M578.36,758.62c2.949,2.59,6.68,3.88,11.159,3.88c4.73,0,8.69-1.53,11.87-4.6
				c3.181-3.07,4.771-6.79,4.771-11.15c0-3-0.851-5.56-2.54-7.68c-1.69-2.13-3.95-3.5-6.771-4.11c4.75-2.59,7.131-6.06,7.131-10.41
				c0-3.069-1.16-5.819-3.49-8.26c-2.82-2.98-6.57-4.47-11.24-4.47c-2.73,0-5.2,0.52-7.4,1.54c-2.199,1.02-3.909,2.43-5.149,4.229
				c-1.22,1.79-2.15,4.18-2.76,7.18l8.76,1.48c0.25-2.16,0.95-3.81,2.1-4.93c1.16-1.13,2.55-1.69,4.19-1.69
				c1.649,0,2.97,0.5,3.97,1.49c1,1,1.49,2.32,1.49,3.99c0,1.97-0.67,3.55-2.03,4.729s-3.33,1.74-5.9,1.68l-1.05,7.74
				c1.681-0.479,3.13-0.71,4.34-0.71c1.841,0,3.4,0.7,4.681,2.101c1.27,1.399,1.91,3.29,1.91,5.689c0,2.53-0.66,4.54-2.011,6.03
				c-1.33,1.5-2.979,2.24-4.939,2.24c-1.82,0-3.38-0.62-4.66-1.87c-1.28-1.24-2.07-3.04-2.36-5.391l-9.21,1.12
				C573.69,752.65,575.4,756.04,578.36,758.62z M664.71,698.23v85.079H512.34V698.23h32.88h88.05H664.71z"/>
			<path style="fill:#FFEEC8;" d="M586.76,422.59c-5.01,0-9.6-2.27-13.21-6.05c-4.76-4.99-7.8-12.61-7.8-21.16
				c0-15.04,9.41-27.22,21.01-27.22c11.61,0,21.01,12.18,21.01,27.22c0,8.69-3.14,16.42-8.029,21.4
				C596.16,420.42,591.66,422.59,586.76,422.59z"/>
			<path style="fill:#C8C8C8;" d="M549.61,693.37c-1.21,0.7-2.761,1-4.391,1c-3.89,0-8.149-1.79-8.89-4.39
				c-1.271-4.44,1.15-8.601,5.35-11c6.551-3.721,15.15-7.601,15.71-11.9c0-0.01,0-0.021,0-0.021c-0.05-0.569-0.109-1.359-0.189-2.34
				l13.05,6.53l2.59,0.33l-0.01,0.09c-0.86,14.49-3.19,12.19-15.44,16.97C552.1,690.69,556.75,689.3,549.61,693.37z"/>
			<path style="fill:#FFF5B4;" d="M505.61,629.16V783.31H353.24V629.16h30.55h88.05H505.61z M437.89,724.71v-49.82h-7.729
				c-1.09,3.03-3.08,5.67-6,7.95c-2.91,2.26-5.61,3.811-8.09,4.62v8.62c4.71-1.561,8.81-3.96,12.291-7.2v35.83H437.89z"/>
			<path style="fill:#FFEEC8;" d="M484.57,266.35c1.79-0.11,0.76,3.52,3.22,3.88c1.41-2.5,1.71-10.11,4.9-10.66
				c2.89-0.5,6.17,2.68,6.96,5.02c1.369,3.96,1.5,16.7-1.141,27.2l-13.35-2.56C483.84,286.19,481.38,269.93,484.57,266.35z"/>
			<path style="fill:#FAA41A;" d="M459.98,600.9c0.02,4.47,8.659,8.409,15.399,12.26c4.2,2.399,6.61,6.55,5.37,11.01
				c-0.75,2.6-5.02,4.39-8.91,4.39c-1.62,0-3.17-0.31-4.38-1c-7.13-4.069-2.49-2.68-7.79-4.729c-11.03-4.32-14.02-2.88-15.12-13.16
				L459.98,600.9z"/>
			<path style="fill:#231F20;" d="M437.89,674.89v49.82h-9.529v-35.83c-3.48,3.24-7.581,5.64-12.291,7.2v-8.62
				c2.48-0.81,5.18-2.36,8.09-4.62c2.92-2.28,4.91-4.92,6-7.95H437.89z"/>
			<path style="fill:#FFEEC8;" d="M425.34,301.25c11.601,0,21,12.19,21,27.23c0,9.39-3.68,17.67-9.26,22.57
				c-3.35,2.93-7.4,4.64-11.74,4.64c-4.36,0-8.4-1.71-11.76-4.64c-5.59-4.9-9.26-13.18-9.26-22.57
				C404.32,313.44,413.72,301.25,425.34,301.25z"/>
			<path style="fill:#FBED24;" d="M441.07,351.87c7.04,7.95,13.85,11.02,18.85,0.58c3.83-7.99,6.65-16.65,9.93-24.87
				c5.101-12.78,10.2-25.56,15.311-38.35l13.35,2.56c0,0-6.649,29.02-9.229,42.84c-3.74,20.02-21.57,55.14-21.57,55.14l-6.51,53.2
				c0,0,2.359,7.55,3.74,19.971l-0.11,0.02h-72.68l-3.05-0.36c1.39-11.979,3.66-19.229,3.66-19.229l-6.43-55.33
				c0,0-17.91-33-21.66-53.03c-2.58-13.81-9.22-42.84-9.22-42.84l13.35-2.54c5.1,12.77,10.2,25.56,15.3,38.33
				c3.29,8.23,6.11,16.89,9.93,24.87c5.01,10.44,11.82,7.38,18.85-0.58l0.7-1.2c3.36,2.93,7.4,4.64,11.76,4.64
				c4.34,0,8.391-1.71,11.74-4.64L441.07,351.87z"/>
			<path style="fill:#FAA41A;" d="M383.79,627.47c-3.89,0-8.16-1.79-8.9-4.39c-1.25-4.45,1.16-8.6,5.37-11
				c6.54-3.72,15.15-7.6,15.7-11.9c0-0.01,0-0.01,0-0.02c0.02-0.13,0.03-0.271,0.03-0.4l13.54,8.561l1.59,0.1
				c-1.1,10.46-4.06,8.98-15.15,13.32c-5.3,2.06-0.66,0.66-7.79,4.729C386.96,627.17,385.41,627.47,383.79,627.47z"/>
			<path style="fill:#ED1D31;" d="M388.05,480.93c0-6.88,0.44-13.06,1.05-18.33l3.05,0.36h72.68l0.11-0.02
				c0.569,5.109,0.97,11.04,0.97,17.609c0,21.5-5.93,120.351-5.93,120.351l-15.431,8.77c-0.12-1.12-0.22-2.39-0.3-3.82l-1.46-9.76
				h-0.03l-11.99-105.67l-6.089-0.03L412.42,596.5h0.02l-1.04,8.27c-0.08,1.36-0.18,2.57-0.28,3.65l-1.59-0.1l-13.54-8.561
				c0,0.13-0.01,0.271-0.03,0.4C395.09,589.37,388.05,501.11,388.05,480.93z"/>
			<path style="fill:#FFEEC8;" d="M354.3,264.97c0.8-2.33,4.08-5.52,6.96-5c3.19,0.53,3.49,8.15,4.9,10.64
				c2.47-0.36,1.43-3.97,3.22-3.87c3.2,3.58,0.73,19.84-0.58,22.89l-13.35,2.54C352.81,281.68,352.93,268.94,354.3,264.97z"/>
			<path style="fill:#FFEEC8;" d="M336.64,528.38c-2.44,0.51-1.19,4.061-2.99,4.061c-1.56-1.561-2.08-5.86-2.08-10.341
				c0-5.29,0.73-10.85,1.34-12.54l14.27,0.641c2.28,9.41,2.62,19.59,1.63,23.13c-0.67,2.38-3.76,5.75-6.66,5.4
				C338.93,538.38,338.2,530.79,336.64,528.38z"/>
			<path style="fill:#C8C8C8;" d="M318.98,655.45c4.21,2.39,6.62,6.55,5.37,11c-0.74,2.59-5.01,4.39-8.9,4.39
				c-1.62,0-3.17-0.31-4.38-1c-7.13-4.07-2.49-2.68-7.8-4.729c-12.23-4.78-14.57-2.49-15.41-16.971l15.71-4.949v-0.011h0.02
				C303.61,647.65,312.24,651.59,318.98,655.45z"/>
			<path style="fill:#231F20;" d="M283.65,715.79c2.79,2.63,4.19,5.91,4.19,9.84c0,2.23-0.4,4.351-1.2,6.37
				c-0.8,2.03-2.06,4.14-3.8,6.35c-1.15,1.46-3.22,3.58-6.23,6.33c-3,2.75-4.91,4.57-5.7,5.48c-0.8,0.899-1.46,1.78-1.95,2.63h18.88
				v8.85h-33.3c0.36-3.34,1.44-6.5,3.25-9.489c1.8-2.99,5.36-6.95,10.68-11.891c4.29-4,6.92-6.7,7.88-8.13
				c1.31-1.96,1.96-3.89,1.96-5.81c0-2.12-0.57-3.75-1.7-4.891c-1.14-1.14-2.71-1.71-4.71-1.71c-1.97,0-3.55,0.601-4.72,1.79
				c-1.17,1.2-1.84,3.19-2.02,5.971l-9.48-0.95c0.56-5.24,2.33-9,5.3-11.28s6.69-3.43,11.15-3.43
				C277.02,711.82,280.86,713.14,283.65,715.79z"/>
			<path style="fill:#FFF5B4;" d="M271.9,719.72c2,0,3.57,0.57,4.71,1.71c1.13,1.141,1.7,2.771,1.7,4.891
				c0,1.92-0.65,3.85-1.96,5.81c-0.96,1.43-3.59,4.13-7.88,8.13c-5.32,4.94-8.88,8.9-10.68,11.891
				c-1.81,2.989-2.89,6.149-3.25,9.489h33.3v-8.85h-18.88c0.49-0.85,1.15-1.73,1.95-2.63c0.79-0.91,2.7-2.73,5.7-5.48
				c3.01-2.75,5.08-4.87,6.23-6.33c1.74-2.21,3-4.319,3.8-6.35c0.8-2.02,1.2-4.14,1.2-6.37c0-3.93-1.4-7.21-4.19-9.84
				c-2.79-2.65-6.63-3.97-11.52-3.97c-4.46,0-8.18,1.149-11.15,3.43s-4.74,6.04-5.3,11.28l9.48,0.95
				c0.18-2.78,0.85-4.771,2.02-5.971C268.35,720.32,269.93,719.72,271.9,719.72z M351.32,673.02v110.29H198.95V673.02h28.45h88.05
				H351.32z"/>
			<path style="fill:#FFEEC8;" d="M281.91,392.17c-3.57,3.64-8.08,5.81-12.97,5.81c-5,0-9.6-2.28-13.21-6.06c0-0.01,0-0.01,0-0.01
				c-4.76-4.99-7.8-12.61-7.8-21.16c0-15.03,9.4-27.22,21.01-27.22s21.01,12.19,21.01,27.22
				C289.95,379.44,286.8,387.19,281.91,392.17z"/>
			<path style="fill:#6EBE44;" d="M239.57,642.43c-0.87-10.81-7.91-99.05-7.91-119.21c0-6.89,0.44-13.069,1.05-18.34l3.04,0.36
				h72.69l0.9-0.16c0.87,5.4,1.48,11.63,1.48,18.42c0,20.4-6.58,110.56-7.25,119.68v0.011l-15.71,4.949l-1.47-9.77h-0.02
				L274.38,532.7l-6.09-0.03l-12.27,106.12h0.03l-1.04,8.27l-15.41-5.02C239.6,642.17,239.59,642.3,239.57,642.43z"/>
			<path style="fill:#C8C8C8;" d="M223.87,654.36c6.53-3.721,15.15-7.601,15.7-11.9c0-0.01,0.01-0.02,0-0.03
				c0.02-0.13,0.03-0.26,0.03-0.39l15.41,5.02c-0.86,14.48-3.2,12.19-15.43,16.971c-5.3,2.05-0.66,0.66-7.79,4.72
				c-1.22,0.69-2.77,1.01-4.39,1.01c-3.89,0-8.16-1.8-8.9-4.399C217.25,660.92,219.66,656.76,223.87,654.36z"/>
		</g>
		<g>
			<path style="fill:none;stroke:#231F20;stroke-width:7;" d="M413.58,351.05c-5.59-4.9-9.26-13.18-9.26-22.57
				c0-15.04,9.4-27.23,21.02-27.23c11.601,0,21,12.19,21,27.23c0,9.39-3.68,17.67-9.26,22.57c-3.35,2.93-7.4,4.64-11.74,4.64
				C420.98,355.69,416.94,353.98,413.58,351.05z"/>
			<path style="fill:none;stroke:#231F20;stroke-width:7;" d="M395.96,600.18c0.06,0.69,0.09,1.061,0.09,1.061"/>
			<path style="fill:none;stroke:#231F20;stroke-width:7;" d="M355.45,292.17c0,0,6.64,29.03,9.22,42.84
				c3.75,20.03,21.66,53.03,21.66,53.03l6.43,55.33c0,0-2.27,7.25-3.66,19.229c-0.61,5.271-1.05,11.45-1.05,18.33
				c0,20.181,7.04,108.44,7.91,119.23"/>
			<path style="fill:none;stroke:#231F20;stroke-width:7;" d="M412.88,352.25c-7.03,7.96-13.84,11.02-18.85,0.58
				c-3.82-7.98-6.64-16.64-9.93-24.87c-5.1-12.77-10.2-25.56-15.3-38.33c1.31-3.05,3.78-19.31,0.58-22.89
				c-1.79-0.1-0.75,3.51-3.22,3.87c-1.41-2.49-1.71-10.11-4.9-10.64c-2.88-0.52-6.16,2.67-6.96,5c-1.37,3.97-1.49,16.71,1.15,27.2"
				/>
			<path style="fill:none;stroke:#231F20;stroke-width:7;" d="M498.51,291.79c0,0-6.649,29.02-9.229,42.84
				c-3.74,20.02-21.57,55.14-21.57,55.14l-6.51,53.2c0,0,2.359,7.55,3.74,19.971c0.569,5.109,0.97,11.04,0.97,17.609
				c0,21.5-5.93,120.351-5.93,120.351"/>
			<path style="fill:none;stroke:#231F20;stroke-width:7;" d="M441.07,351.87c7.04,7.95,13.85,11.02,18.85,0.58
				c3.83-7.99,6.65-16.65,9.93-24.87c5.101-12.78,10.2-25.56,15.311-38.35c-1.32-3.04-3.78-19.3-0.59-22.88
				c1.79-0.11,0.76,3.52,3.22,3.88c1.41-2.5,1.71-10.11,4.9-10.66c2.89-0.5,6.17,2.68,6.96,5.02c1.369,3.96,1.5,16.7-1.141,27.2"/>
			<path style="fill:none;stroke:#231F20;stroke-width:7;" d="M412.48,596.21l-0.04,0.29l-1.04,8.27c-0.08,1.36-0.18,2.57-0.28,3.65
				c-1.1,10.46-4.06,8.98-15.15,13.32c-5.3,2.06-0.66,0.66-7.79,4.729c-1.22,0.7-2.77,1-4.39,1c-3.89,0-8.16-1.79-8.9-4.39
				c-1.25-4.45,1.16-8.6,5.37-11c6.54-3.72,15.15-7.6,15.7-11.9c0-0.01,0-0.01,0-0.02c0.02-0.13,0.03-0.271,0.03-0.4"/>
			<path style="fill:none;stroke:#231F20;stroke-width:7;" d="M442.79,596.09l1.46,9.76c0.08,1.431,0.18,2.7,0.3,3.82
				c1.101,10.28,4.09,8.84,15.12,13.16c5.3,2.05,0.66,0.66,7.79,4.729c1.21,0.69,2.76,1,4.38,1c3.891,0,8.16-1.79,8.91-4.39
				c1.24-4.46-1.17-8.61-5.37-11.01c-6.74-3.851-15.38-7.79-15.399-12.26"/>
			<polyline style="fill:none;stroke:#231F20;stroke-width:7;" points="442.84,596.77 442.76,596.09 430.77,490.42 424.68,490.39 
				412.42,596.5 			"/>
			<line style="fill:none;stroke:#231F20;stroke-width:7;" x1="392.15" y1="462.96" x2="464.83" y2="462.96"/>
			<polygon style="fill:none;stroke:#231F20;stroke-width:14;" points="471.84,629.16 505.61,629.16 505.61,783.31 353.24,783.31 
				353.24,629.16 383.79,629.16 			"/>
			<polygon style="fill:none;stroke:#231F20;stroke-width:7;" points="315.45,673.02 351.32,673.02 351.32,783.31 198.95,783.31 
				198.95,673.02 227.4,673.02 			"/>
			<polygon style="fill:none;stroke:#231F20;stroke-width:7;" points="633.27,698.23 664.71,698.23 664.71,783.31 512.34,783.31 
				512.34,698.23 545.22,698.23 			"/>
			<path style="fill:none;stroke:#231F20;stroke-width:7;" d="M255.73,391.91c-4.76-4.99-7.8-12.61-7.8-21.16
				c0-15.03,9.4-27.22,21.01-27.22s21.01,12.19,21.01,27.22c0,8.69-3.15,16.44-8.04,21.42c-3.57,3.64-8.08,5.81-12.97,5.81
				c-5,0-9.6-2.28-13.21-6.06"/>
			<path style="fill:none;stroke:#231F20;stroke-width:7;" d="M195.21,505.94c0,0,8.31-28.591,11.69-42.23
				c4.89-19.78,21.07-52.41,21.07-52.41c4.12-4.12,11.06-8.96,16.98-12.78c5.77-3.72,10.55-6.48,10.78-6.6c0-0.01,0-0.01,0-0.01"/>
			<path style="fill:none;stroke:#231F20;stroke-width:7;" d="M239.57,642.43c-0.87-10.81-7.91-99.05-7.91-119.21
				c0-6.89,0.44-13.069,1.05-18.34c1.39-11.979,3.65-19.24,3.65-19.24l-2.51-32.1l-25.46,55.72c0.61,1.681,1.34,7.24,1.34,12.53
				c0,4.5-0.53,8.79-2.09,10.36c-1.78,0-0.54-3.57-2.98-4.07c-1.55,2.41-2.29,10-5.51,10.36c-2.9,0.34-6-3.04-6.66-5.41
				c-1.01-3.62-0.63-14.19,1.79-23.78c0.28-1.12,0.59-2.23,0.93-3.31"/>
			<path style="fill:none;stroke:#231F20;stroke-width:7;" d="M239.66,643.52c0,0-0.03-0.359-0.09-1.06"/>
			<path style="fill:none;stroke:#231F20;stroke-width:7;" d="M346.09,506.24c0,0-8.32-28.59-11.69-42.23
				c-4.89-19.77-21.07-52.41-21.07-52.41c-4.12-4.12-11.06-8.96-16.97-12.78c-5.91-3.82-10.8-6.61-10.8-6.61"/>
			<path style="fill:none;stroke:#231F20;stroke-width:7;" d="M304.29,486.78l0.11-1.17l3.05-31.78l25.46,55.729
				c-0.61,1.69-1.34,7.25-1.34,12.54c0,4.48,0.52,8.78,2.08,10.341c1.8,0,0.55-3.551,2.99-4.061c1.56,2.41,2.29,10,5.51,10.351
				c2.9,0.35,5.99-3.021,6.66-5.4c0.99-3.54,0.65-13.72-1.63-23.13c-0.32-1.34-0.69-2.67-1.09-3.96"/>
			<path style="fill:none;stroke:#231F20;stroke-width:7;" d="M303.57,643.18c0.67-9.12,7.25-99.279,7.25-119.68
				c0-6.79-0.61-13.02-1.48-18.42c-1.59-9.91-4-16.98-4.94-19.47c-0.24-0.66-0.38-1-0.38-1"/>
			<path style="fill:none;stroke:#231F20;stroke-width:7;" d="M303.51,643.93c0,0,0.03-0.26,0.06-0.739"/>
			<path style="fill:none;stroke:#231F20;stroke-width:7;" d="M256.09,638.49l-0.04,0.3l-1.04,8.27
				c-0.86,14.48-3.2,12.19-15.43,16.971c-5.3,2.05-0.66,0.66-7.79,4.72c-1.22,0.69-2.77,1.01-4.39,1.01c-3.89,0-8.16-1.8-8.9-4.399
				c-1.25-4.44,1.16-8.601,5.37-11c6.53-3.721,15.15-7.601,15.7-11.9c0-0.01,0.01-0.02,0-0.03c0.02-0.13,0.03-0.26,0.03-0.39"/>
			<path style="fill:none;stroke:#231F20;stroke-width:7;" d="M286.39,638.37l1.47,9.77c0.84,14.48,3.18,12.19,15.41,16.971
				c5.31,2.05,0.67,0.659,7.8,4.729c1.21,0.69,2.76,1,4.38,1c3.89,0,8.16-1.8,8.9-4.39c1.25-4.45-1.16-8.61-5.37-11
				c-6.74-3.86-15.37-7.8-15.39-12.271"/>
			<polyline style="fill:none;stroke:#231F20;stroke-width:7;" points="286.45,639.06 286.37,638.37 274.38,532.7 268.29,532.67 
				256.02,638.79 			"/>
			<line style="fill:none;stroke:#231F20;stroke-width:7;" x1="235.75" y1="505.24" x2="308.44" y2="505.24"/>
			<path style="fill:none;stroke:#231F20;stroke-width:7;" d="M573.55,416.54c-4.76-4.99-7.8-12.61-7.8-21.16
				c0-15.04,9.41-27.22,21.01-27.22c11.61,0,21.01,12.18,21.01,27.22c0,8.69-3.14,16.42-8.029,21.4c-3.58,3.64-8.08,5.81-12.98,5.81
				C581.75,422.59,577.16,420.32,573.55,416.54z"/>
			<path style="fill:none;stroke:#231F20;stroke-width:7;" d="M513.03,530.56c0,0,8.31-28.59,11.689-42.229
				c4.891-19.78,21.07-52.41,21.07-52.41c4.13-4.12,11.07-8.97,16.979-12.78c5.9-3.82,10.78-6.6,10.78-6.6"/>
			<path style="fill:none;stroke:#231F20;stroke-width:7;" d="M557.39,667.06c-0.05-0.569-0.109-1.359-0.189-2.34
				c-1.4-17.59-7.71-97.79-7.71-116.89c0-6.88,0.43-13.061,1.04-18.33c1.39-11.98,3.649-19.23,3.649-19.23l-2.51-32.119
				l-25.46,55.72c0.61,1.689,1.34,7.26,1.34,12.56c0,4.49-0.52,8.78-2.08,10.33c-1.8,0-0.55-3.56-2.989-4.06
				c-1.561,2.42-2.29,10.01-5.511,10.35c-2.899,0.351-5.989-3.02-6.649-5.399c-1.13-4.04-0.53-16.761,2.71-27.091"/>
			<path style="fill:none;stroke:#231F20;stroke-width:7;" d="M557.47,668.14c0,0-0.029-0.37-0.08-1.06"/>
			<path style="fill:none;stroke:#231F20;stroke-width:7;" d="M663.91,530.86c0,0-8.32-28.591-11.68-42.23
				c-4.9-19.77-21.08-52.41-21.08-52.41c-4.12-4.12-11.061-8.96-16.98-12.78c-5.9-3.82-10.78-6.61-10.78-6.61"/>
			<path style="fill:none;stroke:#231F20;stroke-width:7;" d="M622.11,511.39l0.109-1.17l3.05-31.76l25.461,55.72
				c-0.61,1.681-1.341,7.24-1.341,12.53c0,4.5,0.53,8.79,2.091,10.35c1.789,0,0.539-3.55,2.979-4.05c1.56,2.41,2.3,9.99,5.51,10.34
				c2.9,0.351,6-3.02,6.66-5.399c1.03-3.681,0.61-14.601-1.93-24.34c-0.24-0.931-0.51-1.851-0.79-2.75"/>
			<path style="fill:none;stroke:#231F20;stroke-width:7;" d="M621.34,668.54c0,0,0.021-0.25,0.061-0.74
				c0.659-9.13,7.239-99.29,7.239-119.68c0-6.79-0.62-13.01-1.479-18.4c-1.58-9.92-4-16.989-4.94-19.5
				c-0.239-0.649-0.38-0.989-0.38-0.989"/>
			<path style="fill:none;stroke:#231F20;stroke-width:7;" d="M573.92,663.11l-0.04,0.29l-1.04,8.18l-0.01,0.09
				c-0.86,14.49-3.19,12.19-15.44,16.97c-5.29,2.051-0.64,0.66-7.779,4.73c-1.21,0.7-2.761,1-4.391,1c-3.89,0-8.149-1.79-8.89-4.39
				c-1.271-4.44,1.15-8.601,5.35-11c6.551-3.721,15.15-7.601,15.71-11.9c0-0.01,0-0.021,0-0.021c0.021-0.14,0.03-0.27,0.03-0.399"/>
			<path style="fill:none;stroke:#231F20;stroke-width:7;" d="M604.21,662.99l1.46,9.76c0.07,1.21,0.15,2.3,0.25,3.29
				c1.061,10.87,3.96,9.3,15.18,13.69c5.311,2.06,0.66,0.659,7.79,4.72c1.21,0.7,2.761,1,4.38,1c3.891,0,8.16-1.79,8.9-4.391
				c1.26-4.439-1.16-8.6-5.36-11c-5.479-3.119-12.21-6.31-14.56-9.8c-0.54-0.8-0.85-1.62-0.85-2.46"/>
			<polyline style="fill:none;stroke:#231F20;stroke-width:7;" points="604.27,663.68 604.19,662.99 592.2,557.32 586.12,557.3 
				573.85,663.4 			"/>
			<line style="fill:none;stroke:#231F20;stroke-width:7;" x1="553.58" y1="529.86" x2="626.26" y2="529.86"/>
			<line style="fill:none;stroke:#231F20;stroke-width:7;" x1="355.45" y1="292.17" x2="368.8" y2="289.63"/>
			<line style="fill:none;stroke:#231F20;stroke-width:7;" x1="485.16" y1="289.23" x2="498.51" y2="291.79"/>
			<line style="fill:none;stroke:#231F20;stroke-width:7;" x1="395.99" y1="599.76" x2="409.53" y2="608.32"/>
			<polyline style="fill:none;stroke:#231F20;stroke-width:7;" points="444.37,609.77 444.55,609.67 459.98,600.9 			"/>
			<line style="fill:none;stroke:#231F20;stroke-width:7;" x1="650.73" y1="534.18" x2="661.25" y2="534.25"/>
			<line style="fill:none;stroke:#231F20;stroke-width:7;" x1="515.25" y1="531.25" x2="526.21" y2="533.87"/>
			<polyline style="fill:none;stroke:#231F20;stroke-width:7;" points="556.25,664.25 557.2,664.72 570.25,671.25 			"/>
			<polyline style="fill:none;stroke:#231F20;stroke-width:7;" points="605.25,676.25 605.92,676.04 621.25,671.25 			"/>
			<polyline style="fill:none;stroke:#231F20;stroke-width:7;" points="194.25,509.25 194.28,509.25 206.25,509.25 			"/>
			<polyline style="fill:none;stroke:#231F20;stroke-width:7;" points="332.91,509.56 347.18,510.2 348.25,510.25 			"/>
			<line style="fill:none;stroke:#231F20;stroke-width:7;" x1="239.6" y1="642.04" x2="255.01" y2="647.06"/>
			<polyline style="fill:none;stroke:#231F20;stroke-width:7;" points="287.86,648.14 303.57,643.19 303.57,643.18 303.59,643.18 
							"/>
			<path style="fill:none;stroke:#000000;stroke-width:5;stroke-linecap:round;stroke-linejoin:round;" d="M362.08,127.02
				c0,0.02,0,0.05,0,0.07c0,3.43-0.34,6.77-0.98,10.01c-3.96,20.18-19.6,36.17-39.58,40.66"/>
			<path style="fill:none;stroke:#000000;stroke-width:5;stroke-linecap:round;stroke-linejoin:round;" d="M312.92,178.94
				c-0.03,0-0.07,0-0.1,0c-0.91,0.06-1.82,0.08-2.74,0.08c-28.72,0-52-23.28-52-52s23.28-51.99,52-51.99c28.71,0,52,23.27,52,51.99"
				/>
			<path style="fill:none;stroke:#000000;stroke-width:5;stroke-linecap:round;stroke-linejoin:round;" d="M313.32,167.77
				c-1.66,0.2-3.35,0.3-5.07,0.3c-22.92,0-41.5-18.58-41.5-41.51c0-22.92,18.58-41.5,41.5-41.5c22.93,0,41.51,18.58,41.51,41.5
				c0,0.91-0.03,1.81-0.1,2.71c-0.24,3.92-1.03,7.68-2.29,11.23c-4,11.2-12.66,20.18-23.65,24.59c-0.06,0.03-0.12,0.06-0.18,0.08"/>
			<path style="fill:none;stroke:#000000;stroke-width:5;stroke-linecap:round;stroke-linejoin:round;" d="M416.71,175.86
				c0.01,0.13,0.02,0.25,0.02,0.38c0.06,0.92,0.08,1.85,0.08,2.78c0,28.72-23.28,52-52,52c-28.72,0-51.99-23.28-51.99-52
				c0-0.03,0-0.05,0-0.08c0.01-3.78,0.41-7.47,1.19-11.02c4-18.44,17.79-33.23,35.65-38.65c0.04-0.02,0.08-0.03,0.12-0.04"/>
			<path style="fill:none;stroke:#000000;stroke-width:5;stroke-linecap:round;stroke-linejoin:round;" d="M364.81,127.02
				c0.63,0,1.25,0.01,1.87,0.03c2.98,0.08,5.89,0.37,8.71,0.87c19.01,3.3,33.77,15.6,38.86,34.33"/>
			<path style="fill:none;stroke:#000000;stroke-width:5;stroke-linecap:round;stroke-linejoin:round;" d="M362.08,127.09
				c0.9-0.05,1.81-0.07,2.73-0.07"/>
			<path style="fill:none;stroke:#000000;stroke-width:5;stroke-linecap:round;stroke-linejoin:round;" d="M404.25,174.05
				c0.01,0.07,0.02,0.15,0.02,0.22c0.15,1.41,0.22,2.84,0.22,4.29c0,22.93-18.58,41.51-41.5,41.51c-22.93,0-41.51-18.58-41.51-41.51
				c0-0.27,0-0.54,0.02-0.8c0.07-4.43,0.85-8.69,2.22-12.67c3.83-11.18,12.31-20.2,23.11-24.77"/>
			<path style="fill:none;stroke:#000000;stroke-width:5;stroke-linecap:round;stroke-linejoin:round;" d="M360.88,137.11
				c0.07,0,0.15-0.01,0.22-0.01c0.63-0.03,1.25-0.05,1.89-0.05c1.78,0,3.55,0.08,5.29,0.25c3.5,0.32,6.91,0.96,10.15,1.93
				c10.64,3.2,19.45,9.88,23.82,20.02"/>
			<path style="fill:none;stroke:#000000;stroke-width:5;stroke-linecap:round;stroke-linejoin:round;" d="M421.94,176.18
				c-1.1,0.07-2.19,0.1-3.31,0.1c-0.64,0-1.27-0.01-1.9-0.04c-4.31-0.15-8.49-0.83-12.46-1.97c-17.61-5.05-31.4-19.16-35.99-36.97
				c-0.04-0.12-0.07-0.25-0.1-0.37"/>
			<path style="fill:none;stroke:#000000;stroke-width:5;stroke-linecap:round;stroke-linejoin:round;" d="M366.69,126.56
				c-0.04-0.76-0.05-1.51-0.05-2.27c0-28.72,23.27-52,51.99-52s52,23.28,52,52c0,1.18-0.04,2.35-0.12,3.52
				c-0.229,3.43-0.79,6.77-1.649,9.99c-4.91,18.26-19.511,32.56-37.96,37.02"/>
			<path style="fill:none;stroke:#000000;stroke-width:5;stroke-linecap:round;stroke-linejoin:round;" d="M422.25,164.25
				c-2.69,0-5.44-0.23-8.2-0.67c-4.12-0.66-8.25-1.8-12.19-3.36v-0.01c-10.54-4.17-19.71-11.4-23.51-20.74"/>
			<path style="fill:none;stroke:#000000;stroke-width:5;stroke-linecap:round;stroke-linejoin:round;" d="M375.46,127.46
				c-0.1-1.2-0.16-2.41-0.16-3.63c0-22.93,18.58-41.51,41.51-41.51c22.92,0,41.5,18.58,41.5,41.51c0,2.17-0.17,4.31-0.489,6.39
				c-0.63,4.09-1.86,7.98-3.601,11.58c-4.109,8.56-11.069,15.49-19.66,19.55l-0.01,0.01"/>
			<path style="fill:none;stroke:#000000;stroke-width:5;stroke-linecap:round;stroke-linejoin:round;" d="M525.76,176.78
				c0.01,0.11,0.01,0.21,0.01,0.32c0.051,0.86,0.07,1.73,0.07,2.59c0,28.72-23.28,52-51.99,52c-28.72,0-52-23.28-52-52
				c0-1.18,0.04-2.35,0.12-3.51c0.26-3.94,0.96-7.75,2.05-11.4c4.89-16.35,17.61-29.32,33.8-34.56c0.029-0.01,0.05-0.02,0.08-0.03"
				/>
			<path style="fill:none;stroke:#000000;stroke-width:5;stroke-linecap:round;stroke-linejoin:round;" d="M473.85,127.7
				c1.021,0,2.03,0.03,3.03,0.09c3.061,0.17,6.05,0.61,8.94,1.29c18.569,4.38,33.3,18.71,38.229,37.05
				c0.03,0.11,0.061,0.21,0.09,0.32"/>
			<path style="fill:none;stroke:#000000;stroke-width:5;stroke-linecap:round;stroke-linejoin:round;" d="M470.3,127.82
				c0.07,0,0.141-0.01,0.21-0.01c1.101-0.07,2.221-0.11,3.34-0.11"/>
			<path style="fill:none;stroke:#000000;stroke-width:5;stroke-linecap:round;stroke-linejoin:round;" d="M513.26,174.49
				c0.01,0.1,0.021,0.19,0.03,0.29c0.16,1.47,0.24,2.95,0.24,4.46c0,22.92-18.58,41.5-41.511,41.5c-22.92,0-41.5-18.58-41.5-41.5
				c0-1.5,0.08-2.98,0.24-4.43c0.5-4.78,1.811-9.31,3.8-13.46c4.091-8.55,11.03-15.49,19.591-19.58"/>
			<path style="fill:none;stroke:#000000;stroke-width:5;stroke-linecap:round;stroke-linejoin:round;" d="M469,137.84
				c1-0.07,2.01-0.11,3.02-0.11c2.261,0,4.48,0.18,6.65,0.53c3.69,0.59,7.21,1.68,10.51,3.18c9.221,4.18,16.641,11.65,20.761,20.9"
				/>
			<path style="fill:none;stroke:#000000;stroke-width:5;stroke-linecap:round;stroke-linejoin:round;" d="M477.02,125.2
				c0-28.72,23.271-52,51.99-52c28.721,0,52,23.28,52,52c0,28.71-23.279,52-52,52c-1.09,0-2.17-0.03-3.24-0.1
				c-4.329-0.27-8.51-1.06-12.479-2.32c-16.95-5.37-30.14-19.2-34.62-36.52c-0.03-0.11-0.06-0.22-0.09-0.33"/>
			<path style="fill:none;stroke:#000000;stroke-width:5;stroke-linecap:round;stroke-linejoin:round;" d="M485.88,128.8
				c-0.13-1.34-0.2-2.69-0.2-4.06c0-22.92,18.58-41.51,41.511-41.51c22.92,0,41.51,18.59,41.51,41.51
				c0,22.93-18.59,41.51-41.51,41.51c-1.061,0-2.101-0.04-3.141-0.12c-5.03-0.37-9.8-1.65-14.17-3.66
				c-9.22-4.23-16.61-11.74-20.7-21.03c-0.05-0.1-0.1-0.21-0.14-0.31"/>
			<polyline style="fill:none;stroke:#000000;stroke-width:14.1564;stroke-linecap:round;stroke-linejoin:round;" points="
				152.25,238.25 152.25,52.25 698.25,52.25 698.25,247.25 698.2,247.25 152.25,247.25 			"/>
			<polyline style="fill:none;stroke:#000000;stroke-width:14;stroke-linecap:round;stroke-linejoin:round;" points="152.25,238.25 
				152.25,247.25 152.25,782.25 			"/>
			<polyline style="fill:none;stroke:#000000;stroke-width:14.1823;stroke-linecap:round;stroke-linejoin:round;" points="
				698.2,238.25 698.2,247.25 698.2,786.25 			"/>
		</g>
	</g>
</g>
<rect x="0.25" y="0.25" style="fill:none;" width="850.394" height="850.394"/>
</svg>
