<svg xmlns="http://www.w3.org/2000/svg" width="850.394" height="850.394" viewBox="0 0 850.394 850.394" overflow="visible"><path fill="none" d="M368 368.25h113.386v113.386H368z"/><path d="M625.41 56.71c92.359 0 167.2 77.25 167.2 172.55 0 95.3-74.841 172.56-167.2 172.56-92.33 0-167.2-77.26-167.2-172.56s74.87-172.55 167.2-172.55zm-14.8 70.74l9.96-14.92-17.99 1.31-11.21-13.91-4.37 17.33-16.88 6.33 15.29 9.4.78 17.79 13.8-11.5 17.37 4.67-6.75-16.5z" fill="orange"/><path d="M620.57 112.53l-9.96 14.92 6.75 16.5-17.37-4.67-13.8 11.5-.78-17.79-15.29-9.4 16.88-6.33 4.37-17.33 11.21 13.91z"/><path d="M391.13 380.43L355.58 717.9c0 37.8-52.34 68.439-116.91 68.439s-116.91-30.64-116.91-68.439L86.28 381.09c5.72 16.34 88.7 35.72 152.34 35.72 65.84 0 149.83-13.61 152.44-36.39l.07.01z" fill="orange"/><path d="M391.12 379.33c0 .37-.02.73-.06 1.09-2.61 22.78-86.6 36.39-152.44 36.39-63.64 0-146.62-19.38-152.34-35.72l-.27-2.56c2.13-21.6 90.93-31.02 152.66-31.02 65.5 0 152.45 4.27 152.45 31.82z" fill="orange"/><g fill="none" stroke="#000"><path d="M792.61 229.26c0 95.3-74.841 172.56-167.2 172.56-92.33 0-167.2-77.26-167.2-172.56s74.87-172.55 167.2-172.55c92.36 0 167.2 77.25 167.2 172.55z" stroke-width="22.801"/><path d="M399.3 302.91c0 .87-.09 1.74-.27 2.59-4.84 23.43-74.79 42.01-160.36 42.01-85.58 0-155.52-18.58-160.36-42.01-.18-.85-.27-1.72-.27-2.59 0-24.64 71.91-44.61 160.63-44.61 88.71 0 160.63 19.97 160.63 44.61z" stroke-width="20" stroke-linecap="round" stroke-linejoin="round"/><path d="M78.04 302.91l.27 2.59 7.7 73.03.27 2.56 35.48 336.81c0 37.8 52.34 68.439 116.91 68.439s116.91-30.64 116.91-68.439l35.55-337.47 7.9-74.93.27-2.59" stroke-width="20" stroke-linecap="round" stroke-linejoin="round"/><path d="M238.67 347.51c65.5 0 152.45 4.27 152.45 31.82 0 .37-.02.73-.06 1.09-2.61 22.78-86.6 36.39-152.44 36.39-63.64 0-146.62-19.38-152.34-35.72-.21-.59-.32-1.18-.32-1.76 0-.27.01-.53.05-.8 2.13-21.6 90.93-31.02 152.66-31.02z" stroke-width="20" stroke-linecap="round" stroke-linejoin="round"/></g><path fill="none" d="M0 0h850.394v850.394H0z"/></svg>