<?xml version="1.0" encoding="iso-8859-1"?>
<!-- Generator: Adobe Illustrator 12.0.1, SVG Export Plug-In . SVG Version: 6.00 Build 51448)  -->
<!DOCTYPE svg PUBLIC "-//W3C//DTD SVG 1.1//EN" "http://www.w3.org/Graphics/SVG/1.1/DTD/svg11.dtd" [
	<!ENTITY ns_svg "http://www.w3.org/2000/svg">
	<!ENTITY ns_xlink "http://www.w3.org/1999/xlink">
]>
<svg  version="1.1" id="Layer_1" xmlns="&ns_svg;" xmlns:xlink="&ns_xlink;" width="850.394" height="850.394"
	 viewBox="0 0 850.394 850.394" style="overflow:visible;enable-background:new 0 0 850.394 850.394;" xml:space="preserve">
<rect x="368" y="368.25" style="fill:none;" width="113.386" height="113.386"/>
<g id="XMLID_1_">
	<g>
		<path style="fill:#FFA500;" d="M625.41,56.71c92.359,0,167.2,77.25,167.2,172.55c0,95.3-74.841,172.56-167.2,172.56
			c-92.33,0-167.2-77.26-167.2-172.56C458.21,133.96,533.08,56.71,625.41,56.71z M610.61,127.45l9.96-14.92l-17.99,1.31
			l-11.21-13.91L587,117.26l-16.88,6.33l15.29,9.4l0.78,17.79l13.8-11.5l17.37,4.67L610.61,127.45z"/>
		<polygon points="620.57,112.53 610.61,127.45 617.36,143.95 599.99,139.28 586.19,150.78 585.41,132.99 570.12,123.59 587,117.26 
			591.37,99.93 602.58,113.84 		"/>
		<path style="fill:#FFA500;" d="M391.13,380.43L355.58,717.9c0,37.8-52.34,68.439-116.91,68.439
			c-64.57,0-116.91-30.64-116.91-68.439L86.28,381.09c5.72,16.34,88.7,35.72,152.34,35.72c65.84,0,149.83-13.61,152.44-36.39
			L391.13,380.43z"/>
		<path style="fill:#FFA500;" d="M391.12,379.33c0,0.37-0.02,0.73-0.06,1.09c-2.61,22.78-86.6,36.39-152.44,36.39
			c-63.64,0-146.62-19.38-152.34-35.72l-0.27-2.56c2.13-21.6,90.93-31.02,152.66-31.02C304.17,347.51,391.12,351.78,391.12,379.33z"
			/>
	</g>
	<g>
		<path style="fill:none;stroke:#000000;stroke-width:22.8008;" d="M792.61,229.26c0,95.3-74.841,172.56-167.2,172.56
			c-92.33,0-167.2-77.26-167.2-172.56c0-95.3,74.87-172.55,167.2-172.55C717.77,56.71,792.61,133.96,792.61,229.26z"/>
		<path style="fill:none;stroke:#000000;stroke-width:20;stroke-linecap:round;stroke-linejoin:round;" d="M399.3,302.91
			c0,0.87-0.09,1.74-0.27,2.59c-4.84,23.43-74.79,42.01-160.36,42.01c-85.58,0-155.52-18.58-160.36-42.01
			c-0.18-0.85-0.27-1.72-0.27-2.59c0-24.64,71.91-44.61,160.63-44.61C327.38,258.3,399.3,278.27,399.3,302.91z"/>
		<path style="fill:none;stroke:#000000;stroke-width:20;stroke-linecap:round;stroke-linejoin:round;" d="M78.04,302.91l0.27,2.59
			l7.7,73.03l0.27,2.56L121.76,717.9c0,37.8,52.34,68.439,116.91,68.439c64.57,0,116.91-30.64,116.91-68.439l35.55-337.47l7.9-74.93
			l0.27-2.59"/>
		<path style="fill:none;stroke:#000000;stroke-width:20;stroke-linecap:round;stroke-linejoin:round;" d="M238.67,347.51
			c65.5,0,152.45,4.27,152.45,31.82c0,0.37-0.02,0.73-0.06,1.09c-2.61,22.78-86.6,36.39-152.44,36.39
			c-63.64,0-146.62-19.38-152.34-35.72c-0.21-0.59-0.32-1.18-0.32-1.76c0-0.27,0.01-0.53,0.05-0.8
			C88.14,356.93,176.94,347.51,238.67,347.51z"/>
	</g>
</g>
<rect style="fill:none;" width="850.394" height="850.394"/>
</svg>
