<?xml version="1.0" encoding="iso-8859-1"?>
<!-- Generator: Adobe Illustrator 12.0.1, SVG Export Plug-In . SVG Version: 6.00 Build 51448)  -->
<!DOCTYPE svg PUBLIC "-//W3C//DTD SVG 1.1//EN" "http://www.w3.org/Graphics/SVG/1.1/DTD/svg11.dtd" [
	<!ENTITY ns_svg "http://www.w3.org/2000/svg">
	<!ENTITY ns_xlink "http://www.w3.org/1999/xlink">
]>
<svg  version="1.1" id="Layer_1" xmlns="&ns_svg;" xmlns:xlink="&ns_xlink;" width="850.394" height="850.394"
	 viewBox="0 0 850.394 850.394" style="overflow:visible;enable-background:new 0 0 850.394 850.394;" xml:space="preserve">
<g id="XMLID_2_">
	<g>
		<path style="fill:#EEDCEB;" d="M424.26,208.11c195.57,0,354.11,95.88,354.11,214.14c0,118.27-158.54,214.14-354.11,214.14
			c-195.56,0-354.1-95.87-354.1-214.14c0.01-31.5,11.25-61.41,31.45-88.35l-0.2-0.18C161.97,266.13,289.71,208.11,424.26,208.11z"/>
	</g>
	<g>
		<path style="fill:none;stroke:#50264B;stroke-width:28;" d="M96,340c1.74-2.1,3.54-4.19,5.41-6.28
			c60.56-67.59,188.3-125.61,322.85-125.61c195.57,0,354.11,95.88,354.11,214.14c0,118.27-158.54,214.14-354.11,214.14
			c-195.56,0-354.1-95.87-354.1-214.14c0.01-31.5,11.25-61.41,31.45-88.35"/>
	</g>
</g>
<rect style="fill:none;" width="850.394" height="850.394"/>
</svg>
