<?xml version="1.0" encoding="iso-8859-1"?>
<!-- Generator: Adobe Illustrator 12.0.1, SVG Export Plug-In . SVG Version: 6.00 Build 51448)  -->
<!DOCTYPE svg PUBLIC "-//W3C//DTD SVG 1.1//EN" "http://www.w3.org/Graphics/SVG/1.1/DTD/svg11.dtd" [
	<!ENTITY ns_svg "http://www.w3.org/2000/svg">
	<!ENTITY ns_xlink "http://www.w3.org/1999/xlink">
]>
<svg  version="1.1" id="Layer_1" xmlns="&ns_svg;" xmlns:xlink="&ns_xlink;" width="850.89" height="850.89"
	 viewBox="0 0 850.89 850.89" style="overflow:visible;enable-background:new 0 0 850.89 850.89;" xml:space="preserve">
<g>
	<g id="XMLID_11_">
		<g>
			<path style="fill:#FFFFC2;" d="M141.43,375.02c-5.54,0.56-9.58,5.55-9.01,11.13l-50.17-245.9l400-58l34.37,225.56l-0.32,1.6
				c-2.939-0.57-5.92-0.51-8.67,0.18L141.43,375.02z"/>
			<path style="fill:#FFF400;" d="M625.72,655c2.38-4.3,7.271-8.35,10.99-11.2c7.97-6.09,18.28-7.53,28.2-7.35
				c6.68,0.109,19.34,7.609,29.02,8.979c11.11,1.57,20.07-9.96,28.69-20.34c-8.48,15.44-19.79,30.7-33.05,38.8l-1.061-0.96
				c-5.87-3.52-11.35-7.42-18.399-9.22c-9.591-2.46-12.351-2.46-29.101-0.78C637.2,653.32,630.54,653.5,625.72,655z"/>
			<path style="fill:#FFF400;" d="M620.39,658.56c0.88-1.67,2.86-2.79,5.33-3.56c4.82-1.5,11.48-1.68,15.29-2.07
				c16.75-1.68,19.51-1.68,29.101,0.78c7.05,1.8,12.529,5.7,18.399,9.22l1.061,0.96c-2.83,1.73-5.74,3.13-8.73,4.141
				C660.68,674.8,637.52,669.11,620.39,658.56z"/>
			<path style="fill:#FFFFC2;" d="M629.42,522.9c0,0,5.92,13.859,6.96,18.359c1.93,8.36-0.74,15.84-8.439,20.471
				c-1.421,0.85-29.19,7.26-70.08,16.34l6.96-23.511c20.279-4.579,32.949-7.579,33.81-8.09c6.53-3.939,8.811-10.26,7.19-17.35
				c-0.88-3.82-5.88-15.561-5.88-15.561l-14.29-29.43l9.439-31.88L629.42,522.9z"/>
			<path style="fill:#FFF400;" d="M617.48,647.01c-0.15-0.79-0.341-1.6-0.551-2.42c-0.14-0.55-0.3-1.08-0.449-1.6
				c0-0.01,0-0.01,0-0.01c-0.12-0.521-0.25-1.051-0.381-1.591c1.141-5.449,10.75-19.76,15.381-23.29
				c7.97-6.109,15.829-10.399,25.77-10.71c9.98-0.319,18.18,3.96,27.86,5.351c11.109,1.56,27.149-2.24,35.779-12.57
				c0.011-0.01,0.021-0.01,0.03-0.02c4.25-3.36,10.16-7.75,12.47-2.301c0.79,1.82,0,5-1.33,8.37l-3.35-0.79
				c-7.24,15.79-28.43,23.811-39.58,22.25c-9.66-1.37-17.87-5.649-27.87-5.35c-9.91,0.31-19.45,3.74-27.42,9.85
				c-4.62,3.53-12.06,9.351-13.18,14.82L617.48,647.01z"/>
			<path style="fill:#FFF400;" d="M625.72,655c-2.47,0.77-4.45,1.89-5.33,3.56c-0.819-0.5-1.63-1.02-2.43-1.54
				c0.4-2.779,0.26-6.27-0.479-10.01l3.18-0.01c1.12-5.47,8.56-11.29,13.18-14.82c7.97-6.109,17.51-9.54,27.42-9.85
				c10-0.3,18.21,3.979,27.87,5.35c11.15,1.561,32.34-6.46,39.58-22.25l3.35,0.79c-1.829,4.67-4.689,9.69-5.829,11.98
				c-1.141,2.29-2.341,4.6-3.61,6.89c-8.62,10.38-17.58,21.91-28.69,20.34c-9.68-1.37-22.34-8.87-29.02-8.979
				c-9.92-0.181-20.23,1.26-28.2,7.35C632.99,646.65,628.1,650.7,625.72,655z"/>
			<path style="fill:#FFF400;" d="M631.48,618.1c-4.631,3.53-14.24,17.841-15.381,23.29c-0.819-3.149-1.93-5.989-3.199-8.34
				c2.52-11.149,6.819-23.93,16.71-30.71c13.149-9.01,35.609-7.33,47.81-1.01c9.01,4.71,21.7,11.06,39.88,1.47
				c0.86-0.45,2.12-1.479,3.59-2.63c-8.63,10.33-24.67,14.13-35.779,12.57c-9.681-1.391-17.88-5.67-27.86-5.351
				C647.31,607.7,639.45,611.99,631.48,618.1z"/>
			<path style="fill:#ABDA4D;" d="M605.58,629.58c3.64-0.95,8.35,4.95,10.9,13.4c0,0,0,0,0,0.01c1.119,5.17,1.13,9.93,0.159,13.12
				c-0.64,2.14-1.72,3.569-3.18,3.949l-83.07,28.521l-5.58,1.17l14.15-47.82L605.58,629.58z"/>
			<path style="fill:#FFFFC2;" d="M605.82,529.12c1.62,7.09-0.66,13.41-7.19,17.35c-0.86,0.511-13.53,3.511-33.81,8.09l20.83-70.43
				l14.29,29.43C599.94,513.56,604.94,525.3,605.82,529.12z"/>
			<path style="fill:#FFFFC2;" d="M469.41,501.13c0,20.2,19.72,36.57,44.04,36.57c24.34,0,44.05-16.37,44.05-36.57
				c0-20.189-19.71-36.57-44.05-36.57C489.13,464.56,469.41,480.94,469.41,501.13z M425.54,402.09c0,18.21,17.78,32.97,39.72,32.97
				c21.94,0,39.721-14.76,39.721-32.97c0-18.22-17.78-32.98-39.721-32.98C443.32,369.11,425.54,383.87,425.54,402.09z
				 M341.28,522.84c0,20.19,19.72,36.57,44.06,36.57c24.32,0,44.04-16.38,44.04-36.57c0-20.2-19.72-36.57-44.04-36.57
				C361,486.27,341.28,502.64,341.28,522.84z M305.48,420.18c0,18.209,17.78,32.97,39.72,32.97c21.94,0,39.72-14.761,39.72-32.97
				c0-18.22-17.78-32.98-39.72-32.98C323.26,387.2,305.48,401.96,305.48,420.18z M211.78,545.7c0,20.189,19.72,36.569,44.05,36.569
				c24.32,0,44.05-16.38,44.05-36.569c0-20.2-19.73-36.57-44.05-36.57C231.5,509.13,211.78,525.5,211.78,545.7z M189.57,447.24
				c0,18.21,17.79,32.97,39.72,32.97c21.94,0,39.73-14.76,39.73-32.97s-17.79-32.98-39.73-32.98
				C207.36,414.26,189.57,429.03,189.57,447.24z M209.64,629.06c-16.59,0.021-19.58-18.199-19.58-18.199l-30.9-208.94
				c-0.47-4.72,2.96-8.96,7.67-9.44l330.09-59.5c7.54-1.89,17.21,1.77,20.79,11.15l67.94,140l-20.83,70.43
				C472.33,575.43,221.54,629.04,209.64,629.06z"/>
			<path style="fill:#FFF400;" d="M513.45,537.7c-24.32,0-44.04-16.37-44.04-36.57c0-20.189,19.72-36.57,44.04-36.57
				c24.34,0,44.05,16.381,44.05,36.57C557.5,521.33,537.79,537.7,513.45,537.7z"/>
			<path style="fill:#ABDA4D;" d="M509.18,648.65c5.25-1.25,12.101,6.93,15.2,18.899c3.03,11.771,1.16,21.36-3.83,23.101
				l-115.71,24.46H291.12l217.99-66.44C509.13,648.66,509.16,648.66,509.18,648.65z"/>
			<path style="fill:#ABDA4D;" d="M509.18,648.65l10.101-3.08l19.68-3.641l-14.15,47.82l-4.26,0.9c4.99-1.74,6.86-11.33,3.83-23.101
				C521.28,655.58,514.43,647.4,509.18,648.65z"/>
			<path style="fill:#FF001C;" d="M465.26,435.06c-21.939,0-39.72-14.76-39.72-32.97c0-18.22,17.78-32.98,39.72-32.98
				c21.94,0,39.721,14.76,39.721,32.98C504.98,420.3,487.2,435.06,465.26,435.06z"/>
			<path style="fill:#FFA500;" d="M385.34,559.41c-24.34,0-44.06-16.38-44.06-36.57c0-20.2,19.72-36.57,44.06-36.57
				c24.32,0,44.04,16.37,44.04,36.57C429.38,543.03,409.66,559.41,385.34,559.41z"/>
			<path style="fill:#F0037F;" d="M345.2,453.15c-21.94,0-39.72-14.761-39.72-32.97c0-18.22,17.78-32.98,39.72-32.98
				c21.94,0,39.72,14.76,39.72,32.98C384.92,438.39,367.14,453.15,345.2,453.15z"/>
			<path style="fill:#0B00EA;" d="M255.83,582.27c-24.33,0-44.05-16.38-44.05-36.569c0-20.2,19.72-36.57,44.05-36.57
				c24.32,0,44.05,16.37,44.05,36.57C299.88,565.89,280.15,582.27,255.83,582.27z"/>
			<path style="fill:#00E800;" d="M229.29,480.21c-21.93,0-39.72-14.76-39.72-32.97s17.79-32.98,39.72-32.98
				c21.94,0,39.73,14.771,39.73,32.98S251.23,480.21,229.29,480.21z"/>
			<path style="fill:#FFFFC2;" d="M190.06,610.86c0,0,2.99,18.22,19.58,18.199c11.9-0.02,262.69-53.63,355.18-74.5l-6.96,23.511
				c-119.92,26.609-352.73,76.21-365.49,76.21c-19.56,0-23.11-21.511-23.11-21.511l-36.84-246.62c-0.57-5.58,3.47-10.57,9.01-11.13
				l366.2-65.43c2.75-0.69,5.73-0.75,8.67-0.18c6.58,1.28,12.931,5.72,15.87,13.38l62.92,129.46l-9.439,31.88l-67.94-140
				c-3.58-9.38-13.25-13.04-20.79-11.15l-330.09,59.5c-4.71,0.48-8.14,4.72-7.67,9.44L190.06,610.86z"/>
			<path style="fill:#ABDA4D;" d="M190.67,760.12c-2.81,0.54-5.74-1.76-6.67-5.271c-0.93-3.63,0.66-7.199,3.54-7.949l0.76-0.45
				l102.82-31.34h113.72l-213,45.02L190.67,760.12z"/>
		</g>
		<g>
			<path style="fill:none;stroke:#231F20;stroke-width:11.0982;" d="M720.92,600.15c4.25-3.36,10.16-7.75,12.47-2.301
				c0.79,1.82,0,5-1.33,8.37c-1.829,4.67-4.689,9.69-5.829,11.98c-1.141,2.29-2.341,4.6-3.61,6.89
				c-8.48,15.44-19.79,30.7-33.05,38.8c-2.83,1.73-5.74,3.13-8.73,4.141c-20.16,6.77-43.32,1.08-60.45-9.471
				c-0.819-0.5-1.63-1.02-2.43-1.54c-0.44-0.3-0.88-0.6-1.32-0.909"/>
			<path style="fill:none;stroke:#231F20;stroke-width:11.0982;" d="M612.9,633.05c2.52-11.149,6.819-23.93,16.71-30.71
				c13.149-9.01,35.609-7.33,47.81-1.01c9.01,4.71,21.7,11.06,39.88,1.47c0.86-0.45,2.12-1.479,3.59-2.63"/>
			<polyline style="fill:none;stroke:#231F20;stroke-width:14.7977;stroke-linecap:round;stroke-linejoin:round;" points="
				509.11,648.67 291.12,715.11 188.3,746.45 			"/>
			<path style="fill:none;stroke:#231F20;stroke-width:14.7977;stroke-linecap:round;stroke-linejoin:round;" d="M616.48,642.98
				c-2.551-8.45-7.261-14.351-10.9-13.4l-66.62,12.35l-19.68,3.641l-10.101,3.08"/>
			<path style="fill:none;stroke:#231F20;stroke-width:14.7977;stroke-linecap:round;stroke-linejoin:round;" d="M614.31,663.27
				c1.931-0.51,3.19-2.859,3.65-6.25c0.4-2.779,0.26-6.27-0.479-10.01c-0.15-0.79-0.341-1.6-0.551-2.42
				c-0.14-0.55-0.3-1.08-0.449-1.6"/>
			<path style="fill:none;stroke:#231F20;stroke-width:14.7977;stroke-linecap:round;stroke-linejoin:round;" d="M604.74,626.38
				c2.58-0.67,5.67,2.04,8.16,6.67c1.27,2.351,2.38,5.19,3.199,8.34c0.131,0.54,0.261,1.07,0.381,1.591c0,0,0,0,0,0.01
				c1.119,5.17,1.13,9.93,0.159,13.12c-0.64,2.14-1.72,3.569-3.18,3.949l-83.07,28.521l-5.58,1.17l-4.26,0.9l-115.71,24.46
				l-213,45.02"/>
			<path style="fill:none;stroke:#231F20;stroke-width:14.7977;stroke-linecap:round;stroke-linejoin:round;" d="M190.94,760.05
				c-0.09,0.03-0.18,0.05-0.27,0.07c-2.81,0.54-5.74-1.76-6.67-5.271c-0.93-3.63,0.66-7.199,3.54-7.949"/>
			<path style="fill:none;stroke:#231F20;stroke-width:14.7977;stroke-linecap:round;stroke-linejoin:round;" d="M509.08,648.67
				c0.01,0,0.02,0,0.03,0c0.02-0.01,0.05-0.01,0.069-0.02c5.25-1.25,12.101,6.93,15.2,18.899c3.03,11.771,1.16,21.36-3.83,23.101
				c-0.12,0.05-0.25,0.09-0.38,0.119"/>
			<path style="fill:none;stroke:#231F20;stroke-width:11.0982;stroke-linecap:round;stroke-linejoin:round;" d="M720.95,600.11
				c-0.01,0.01-0.021,0.029-0.03,0.04c-0.01,0.01-0.02,0.01-0.03,0.02c-8.63,10.33-24.67,14.13-35.779,12.57
				c-9.681-1.391-17.88-5.67-27.86-5.351c-9.94,0.311-17.8,4.601-25.77,10.71c-4.631,3.53-14.24,17.841-15.381,23.29"/>
			<path style="fill:none;stroke:#231F20;stroke-width:11.0982;stroke-linecap:round;stroke-linejoin:round;" d="M728.71,605.43
				c-7.24,15.79-28.43,23.811-39.58,22.25c-9.66-1.37-17.87-5.649-27.87-5.35c-9.91,0.31-19.45,3.74-27.42,9.85
				c-4.62,3.53-12.06,9.351-13.18,14.82"/>
			<path style="fill:none;stroke:#231F20;stroke-width:11.0982;stroke-linecap:round;stroke-linejoin:round;" d="M722.65,625.06
				c-0.011,0.011-0.021,0.021-0.03,0.03c-8.62,10.38-17.58,21.91-28.69,20.34c-9.68-1.37-22.34-8.87-29.02-8.979
				c-9.92-0.181-20.23,1.26-28.2,7.35c-3.72,2.851-8.61,6.9-10.99,11.2c-0.58,1.05-1.01,2.12-1.229,3.18"/>
			<path style="fill:none;stroke:#231F20;stroke-width:11.0982;stroke-linecap:round;stroke-linejoin:round;" d="M688.51,662.93
				c-5.87-3.52-11.35-7.42-18.399-9.22c-9.591-2.46-12.351-2.46-29.101-0.78c-3.81,0.391-10.47,0.57-15.29,2.07
				c-2.47,0.77-4.45,1.89-5.33,3.56"/>
			<path style="fill:none;stroke:#231F20;stroke-width:22.1965;" d="M557.86,578.07c-119.92,26.609-352.73,76.21-365.49,76.21
				c-19.56,0-23.11-21.511-23.11-21.511l-36.84-246.62c-0.57-5.58,3.47-10.57,9.01-11.13l366.2-65.43c2.75-0.69,5.73-0.75,8.67-0.18
				c6.58,1.28,12.931,5.72,15.87,13.38l62.92,129.46l34.33,70.65c0,0,5.92,13.859,6.96,18.359c1.93,8.36-0.74,15.84-8.439,20.471
				C626.52,562.58,598.75,568.99,557.86,578.07z"/>
			<path style="fill:none;stroke:#231F20;stroke-width:14.7977;" d="M564.82,554.56c-92.49,20.87-343.28,74.48-355.18,74.5
				c-16.59,0.021-19.58-18.199-19.58-18.199l-30.9-208.94c-0.47-4.72,2.96-8.96,7.67-9.44l330.09-59.5
				c7.54-1.89,17.21,1.77,20.79,11.15l67.94,140l14.29,29.43c0,0,5,11.74,5.88,15.561c1.62,7.09-0.66,13.41-7.19,17.35
				C597.77,546.98,585.1,549.98,564.82,554.56z"/>
			<path style="fill:none;stroke:#231F20;stroke-width:22.1965;" d="M269.02,447.24c0,18.21-17.79,32.97-39.73,32.97
				c-21.93,0-39.72-14.76-39.72-32.97s17.79-32.98,39.72-32.98C251.23,414.26,269.02,429.03,269.02,447.24z"/>
			<path style="fill:none;stroke:#231F20;stroke-width:22.1965;" d="M384.92,420.18c0,18.209-17.78,32.97-39.72,32.97
				c-21.94,0-39.72-14.761-39.72-32.97c0-18.22,17.78-32.98,39.72-32.98C367.14,387.2,384.92,401.96,384.92,420.18z"/>
			<path style="fill:none;stroke:#231F20;stroke-width:22.1965;" d="M504.98,402.09c0,18.21-17.78,32.97-39.721,32.97
				c-21.939,0-39.72-14.76-39.72-32.97c0-18.22,17.78-32.98,39.72-32.98C487.2,369.11,504.98,383.87,504.98,402.09z"/>
			<path style="fill:none;stroke:#231F20;stroke-width:22.1965;" d="M299.88,545.7c0,20.189-19.73,36.569-44.05,36.569
				c-24.33,0-44.05-16.38-44.05-36.569c0-20.2,19.72-36.57,44.05-36.57C280.15,509.13,299.88,525.5,299.88,545.7z"/>
			<path style="fill:none;stroke:#231F20;stroke-width:22.1965;" d="M429.38,522.84c0,20.19-19.72,36.57-44.04,36.57
				c-24.34,0-44.06-16.38-44.06-36.57c0-20.2,19.72-36.57,44.06-36.57C409.66,486.27,429.38,502.64,429.38,522.84z"/>
			<path style="fill:none;stroke:#231F20;stroke-width:22.1965;" d="M557.5,501.13c0,20.2-19.71,36.57-44.05,36.57
				c-24.32,0-44.04-16.37-44.04-36.57c0-20.189,19.72-36.57,44.04-36.57C537.79,464.56,557.5,480.94,557.5,501.13z"/>
			<polyline style="fill:none;stroke:#231F20;stroke-width:21;" points="132.42,386.15 82.25,140.25 482.25,82.25 516.62,307.81 			
				"/>
		</g>
	</g>
</g>
<rect x="0.25" y="0.25" style="fill:none;" width="850.394" height="850.394"/>
</svg>
