<?xml version="1.0" encoding="iso-8859-1"?>
<!-- Generator: Adobe Illustrator 12.0.1, SVG Export Plug-In . SVG Version: 6.00 Build 51448)  -->
<!DOCTYPE svg PUBLIC "-//W3C//DTD SVG 1.1//EN" "http://www.w3.org/Graphics/SVG/1.1/DTD/svg11.dtd" [
	<!ENTITY ns_svg "http://www.w3.org/2000/svg">
	<!ENTITY ns_xlink "http://www.w3.org/1999/xlink">
]>
<svg  version="1.1" id="Layer_1" xmlns="&ns_svg;" xmlns:xlink="&ns_xlink;" width="850.394" height="850.394"
	 viewBox="0 0 850.394 850.394" style="overflow:visible;enable-background:new 0 0 850.394 850.394;" xml:space="preserve">
<g id="XMLID_1_">
	<g>
		<path style="fill:#FFFFFF;" d="M425.33,759.25c-42.42,0.06-83.05,1.96-109.29,2.89c-4.8,0.17-9.34,0.54-13.69,1.061l-0.48-3.9
			c22.31-3.149,44.28-16.939,40.14-43.53c-2.38-15.319-6.37-21.649-14.7-33.47c-4.09-5.819-10.69-12.74-11.88-20.109
			c-1.28-7.931-2.21-21.671-2.58-29.641c-0.78-16.5-2.93-41.21-27.48-39.84c-22.14,1.23-34.47,11.84-41.02,25.87l-2.97-0.271
			c-95.08,20.11-130.73,40.23-132.56,40.23l-3.15-0.41c8.86-68.96,49.15-123.99,62.55-137.81c0.63,0.51,1.28,1,1.93,1.46
			c10.36,7.38,23.02,9.87,35.58,9.39c21.7-0.84,66-34.28,91.96-56.229l-30.5-93.11c0.84,0.2,1.68,0.41,2.53,0.63
			c67.5,17.32,165.45,63.14,225.23,92.82c3.91,19.189,13.67,56.05,33.79,76.6c28.04,28.65,88.359,18.9,106.649-3.05
			c1.04-1.25,1.86-2.94,2.471-5.03l2.54,1.17c15.989,25.16,46.279,75.63,57.439,113.391l-0.6,0.18
			c-35.55,0-70.51-27.11-132.561-40.23l-2.97,0.271c-6.55-14.03-18.88-24.64-41.02-25.87c-24.561-1.37-26.7,23.34-27.48,39.84
			c-0.38,7.97-1.3,21.71-2.58,29.641c-1.18,7.369-7.8,14.29-11.88,20.109c-8.33,11.82-12.31,18.15-14.7,33.47
			c-4.13,26.591,17.83,40.381,40.141,43.53l-0.48,3.9c-4.35-0.521-8.89-0.891-13.69-1.061
			C468.46,761.38,446.56,760.24,425.33,759.25z"/>
		<path style="fill:#231F20;" d="M108.82,658.54c1.83,0,37.48-20.12,132.56-40.23l2.97,0.271c-12.95,27.729-3.31,68.8-2.25,77
			c1.99,15.49,14.13,47.61,31.62,60.89l-0.24,0.66v0.01c7.89,2.811,18.18,3.601,28.39,2.16l0.48,3.9
			c-42.1,5.02-66.57,24.41-135.02,21.49c-42.97-1.83-63.99-54.23-63.38-102.391c0.1-8.21,0.71-16.28,1.72-24.17L108.82,658.54z"/>
		<path style="fill:#231F20;" d="M168.22,520.32c4.6-4.74,6.03-4.62,1.93,1.46C169.5,521.32,168.85,520.83,168.22,520.32z"/>
		<path style="fill:#231F20;" d="M267.19,381.83l30.5,93.11c-25.96,21.949-70.26,55.39-91.96,56.229
			c-12.56,0.48-25.22-2.01-35.58-9.39c4.1-6.08,2.67-6.2-1.93-1.46c-14.7-11.7-24.18-34.11-21-73.261
			c1.78-21.959,3.43-44.3,6.13-64.569c18.62-4.48,39.98-7.53,63.1-7.15C232.62,375.6,249.64,377.54,267.19,381.83z"/>
		<path style="fill:#FFFFFF;" d="M249.62,305.13c6.69-4.88,30.71-18.86,56.05,9.07c29.87,32.91,76.8,48.14,116.41,42.05l-0.01-0.12
			c15.77-1.52,44.28-6.23,63.85-20.75c27.1-20.11,58.39-36.88,71.86-33.51c12.51,14.98,34.029,27.67,45.16,65.04
			c0,0,10.739,33.87,20.55,72.57c-8.71-5.011-52.17-29.55-74.03-34.471c-24.38-5.49-59.31-3.46-68.87,19.5
			c-8.75,20.99-0.79,31.44,12.24,38.73c0.17,1.21,0.82,5.64,2.12,12.04c-59.78-29.681-157.73-75.5-225.23-92.82
			c-0.85-0.22-1.69-0.43-2.53-0.63c-17.55-4.29-34.57-6.23-50.74-6.49l0.08-3.63c6.96,0.23,15.43-0.32,25.76-1.44
			c21.9-2.39,15.85-17.68,15.24-40.23c-0.24-8.96-6.97-16.03-18.38-20.44c2.05-1.42,4.51-3.06,7.19-4.98L249.62,305.13z"/>
		<path style="fill:#FFFFFF;" d="M354.28,300.18c4.78,6.26,9.58,12.59,16.1,17.37c9.39,6.89,20.12,8.47,31.41,9.6
			c10.38,1.03,21.24,0.63,31.44-0.81c8.869-1.25,16.02-4.75,22.979-11.08c5.03-4.57,6.48-13.98,6.86-15.54l0.3,0.02
			c-1.15,15.15-7.69,31.23-24.99,44.32c-33.82,25.6-55.3,9.6-74.5-18.74c-5.98-8.83-8.81-17.44-9.87-25.1L354.28,300.18z"/>
		<path style="fill:#FFFFFF;" d="M340.34,246.24c-5.94,23.77,19.65,22.4,19.65,22.4s6.4-9.14,16.46-25.6
			c10.05-16.45-0.46-30.16-10.51-31.99C355.88,209.22,345.34,226.23,340.34,246.24z M409.56,312.52l1.39-1.37l23.78-23.4
			l-47.541-1.19L409.56,312.52z M458.04,264.53c0,0,25.59,1.37,19.65-22.4c-5-20.01-15.54-37.03-25.591-35.2
			c-10.06,1.83-20.569,15.54-10.52,32c7.66,12.52,13.2,20.82,15.4,24.06C457.68,264.01,458.04,264.53,458.04,264.53z M422.08,356.25
			c-39.61,6.09-86.54-9.14-116.41-42.05c-25.34-27.93-49.36-13.95-56.05-9.07l-3.28-0.51c12.12-8.7,28.75-23.18,32.52-49.24
			c3.38-23.41,17-70.43,41.88-105.69c3.49-4.95,7.2-9.67,11.14-14.06c5.95-6.63,12.45-11.94,19.09-16.2
			c29.09-18.69,60.9-17.17,60.9-17.17s32-2.74,58.05,17.83c0.69,0.54,1.37,1.09,2.04,1.64c11.4,9.38,20.47,20.07,27.73,31.3
			c19.64,30.39,26.04,64.73,29.649,87.73c0,0,15.09,44.34,27.43,59.88c0.33,0.41,0.66,0.82,1.011,1.23
			c-13.471-3.37-44.761,13.4-71.86,33.51c-19.57,14.52-48.08,19.23-63.85,20.75L422.08,356.25z M433.23,326.34
			c-10.201,1.44-21.061,1.84-31.44,0.81c-11.29-1.13-22.02-2.71-31.41-9.6c-6.52-4.78-11.32-11.11-16.1-17.37l-0.27,0.04
			c1.06,7.66,3.89,16.27,9.87,25.1c19.2,28.34,40.68,44.34,74.5,18.74c17.3-13.09,23.84-29.17,24.99-44.32l-0.3-0.02
			c-0.38,1.56-1.83,10.97-6.86,15.54C449.25,321.59,442.1,325.09,433.23,326.34z"/>
		<path style="fill:#231F20;" d="M504.19,759.3c10.21,1.44,20.5,0.65,28.39-2.16v-0.01l-0.24-0.66
			c17.49-13.279,29.63-45.399,31.62-60.89c1.06-8.2,10.7-49.271-2.25-77l2.97-0.271c62.051,13.12,97.011,40.23,132.561,40.23
			l0.6-0.18c2.62,8.84,4.18,16.979,4.271,23.939c0.609,48.16-20.41,100.561-63.38,102.391c-68.45,2.92-92.931-16.471-135.021-21.49
			L504.19,759.3z"/>
		<path style="fill:#231F20;" d="M493.21,632.55c0.78-16.5,2.92-41.21,27.48-39.84c22.14,1.23,34.47,11.84,41.02,25.87
			c12.95,27.729,3.31,68.8,2.25,77c-1.99,15.49-14.13,47.61-31.62,60.89l0.24,0.66v0.01c-7.89,2.811-18.18,3.601-28.39,2.16
			c-22.311-3.149-44.271-16.939-40.141-43.53c2.391-15.319,6.37-21.649,14.7-33.47c4.08-5.819,10.7-12.74,11.88-20.109
			C491.91,654.26,492.83,640.52,493.21,632.55z"/>
		<path style="fill:#231F20;" d="M285.37,592.71c24.55-1.37,26.7,23.34,27.48,39.84c0.37,7.97,1.3,21.71,2.58,29.641
			c1.19,7.369,7.79,14.29,11.88,20.109c8.33,11.82,12.32,18.15,14.7,33.47c4.14,26.591-17.83,40.381-40.14,43.53
			c-10.21,1.44-20.5,0.65-28.39-2.16v-0.01l0.24-0.66c-17.49-13.279-29.63-45.399-31.62-60.89c-1.06-8.2-10.7-49.271,2.25-77
			C250.9,604.55,263.23,593.94,285.37,592.71z"/>
		<path style="fill:#231F20;" d="M239.15,309.6c11.41,4.41,18.14,11.48,18.38,20.44c0.61,22.55,6.66,37.84-15.24,40.23
			c-10.33,1.12-18.8,1.67-25.76,1.44c-15.64-0.51-23.65-4.92-27.87-15.46c-4.25-10.63-29.86,2.44-31.69,9.14l-0.96-0.17
			c6.08-33.66,16.58-58.39,38.14-60.16C212.48,303.56,228.04,305.31,239.15,309.6z"/>
		<path style="fill:#231F20;" d="M188.66,356.25c4.22,10.54,12.23,14.95,27.87,15.46l-0.08,3.63c-23.12-0.38-44.48,2.67-63.1,7.15
			c0.78-5.96,1.66-11.73,2.66-17.27l0.96,0.17C158.8,358.69,184.41,345.62,188.66,356.25z"/>
		<path style="fill:#231F20;" d="M547.63,502.21l90.23,41.59c-0.61,2.09-1.431,3.78-2.471,5.03
			c-18.29,21.95-78.609,31.7-106.649,3.05c-20.12-20.55-29.88-57.41-33.79-76.6C526.66,491.01,547.63,502.21,547.63,502.21z"/>
		<path style="fill:#231F20;" d="M638.36,541.78c-0.141,0.71-0.311,1.38-0.5,2.02l-90.23-41.59c0,0-20.97-11.2-52.68-26.93
			c-1.3-6.4-1.95-10.83-2.12-12.04c-13.03-7.29-20.99-17.74-12.24-38.73c9.561-22.96,44.49-24.99,68.87-19.5
			c21.86,4.92,65.32,29.46,74.03,34.471C633.43,478.65,642.42,522.78,638.36,541.78z"/>
		<path style="fill:#231F20;" d="M352.17,83.54c1.89,4.36-0.75,28.59-1.2,35.89c-6.64,4.26-13.14,9.57-19.09,16.2
			c-3.94,4.39-7.65,9.11-11.14,14.06c-9.49-2.93-29.44-53.18-13.76-68.82c6.02-6.01,17.8-16.48,27.49-15.66
			C345.02,66.11,348.73,75.61,352.17,83.54z"/>
		<path style="fill:#231F20;" d="M518.9,81.78c15.93,15.91-4.96,67.59-14.24,68.93l-4.97,2.32c-7.261-11.23-16.33-21.92-27.73-31.3
			l2.99-0.27c-0.17-5.48-3.24-32.39-1.24-37c3.43-7.94,7.15-17.43,17.7-18.33C501.09,65.3,512.88,75.77,518.9,81.78z"/>
		<path style="fill:#FFFFFF;" d="M340.34,246.24c5-20.01,15.54-37.02,25.6-35.19c10.05,1.83,20.56,15.54,10.51,31.99
			c-10.06,16.46-16.46,25.6-16.46,25.6S334.4,270.01,340.34,246.24z M363.88,220.19c-5.68,0-10.29,4.29-10.29,9.6
			c0,5.3,4.61,9.6,10.29,9.6c5.68,0,10.28-4.3,10.28-9.6C374.16,224.48,369.56,220.19,363.88,220.19z"/>
		<path style="fill:#FFFFFF;" d="M464.44,225.67c0-5.3-4.61-9.6-10.29-9.6c-5.67,0-10.28,4.3-10.28,9.6c0,5.31,4.61,9.6,10.28,9.6
			C459.83,235.27,464.44,230.98,464.44,225.67z M452.1,206.93c10.051-1.83,20.591,15.19,25.591,35.2
			c5.939,23.77-19.65,22.4-19.65,22.4s-0.36-0.52-1.06-1.54c-2.2-3.24-7.74-11.54-15.4-24.06
			C431.53,222.47,442.04,208.76,452.1,206.93z"/>
		<path style="fill:#231F20;" d="M454.15,216.07c5.68,0,10.29,4.3,10.29,9.6c0,5.31-4.61,9.6-10.29,9.6
			c-5.67,0-10.28-4.29-10.28-9.6C443.87,220.37,448.48,216.07,454.15,216.07z"/>
		<path style="fill:#231F20;" d="M363.88,220.19c5.68,0,10.28,4.29,10.28,9.6c0,5.3-4.6,9.6-10.28,9.6c-5.68,0-10.29-4.3-10.29-9.6
			C353.59,224.48,358.2,220.19,363.88,220.19z"/>
		<polygon style="fill:#231F20;" points="434.73,287.75 410.95,311.15 409.56,312.52 387.19,286.56 		"/>
	</g>
	<g>
		<path style="fill:none;stroke:#231F20;stroke-width:21;" d="M236.35,311.61c0.81-0.62,1.75-1.29,2.8-2.01
			c2.05-1.42,4.51-3.06,7.19-4.98c12.12-8.7,28.75-23.18,32.52-49.24c3.38-23.41,17-70.43,41.88-105.69
			c3.49-4.95,7.2-9.67,11.14-14.06c5.95-6.63,12.45-11.94,19.09-16.2c29.09-18.69,60.9-17.17,60.9-17.17s32-2.74,58.05,17.83
			c0.69,0.54,1.37,1.09,2.04,1.64c11.4,9.38,20.47,20.07,27.73,31.3c19.64,30.39,26.04,64.73,29.649,87.73
			c0,0,15.09,44.34,27.43,59.88c0.33,0.41,0.66,0.82,1.011,1.23c12.51,14.98,34.029,27.67,45.16,65.04c0,0,10.739,33.87,20.55,72.57
			c9.939,39.17,18.93,83.3,14.87,102.3c-0.141,0.71-0.311,1.38-0.5,2.02c-0.61,2.09-1.431,3.78-2.471,5.03
			c-18.29,21.95-78.609,31.7-106.649,3.05c-20.12-20.55-29.88-57.41-33.79-76.6c-1.3-6.4-1.95-10.83-2.12-12.04
			c-0.03-0.23-0.05-0.34-0.05-0.34"/>
		<path style="fill:none;stroke:#231F20;stroke-width:21;" d="M474.95,121.46c-0.17-5.48-3.24-32.39-1.24-37
			c3.43-7.94,7.15-17.43,17.7-18.33c9.68-0.83,21.47,9.64,27.49,15.65c15.93,15.91-4.96,67.59-14.24,68.93"/>
		<path style="fill:none;stroke:#231F20;stroke-width:21;" d="M350.92,120.54c0.01-0.31,0.03-0.68,0.05-1.11
			c0.45-7.3,3.09-31.53,1.2-35.89c-3.44-7.93-7.15-17.43-17.7-18.33c-9.69-0.82-21.47,9.65-27.49,15.66
			c-15.68,15.64,4.27,65.89,13.76,68.82c0.16,0.05,0.32,0.09,0.47,0.11"/>
		<path style="fill:none;stroke:#231F20;stroke-width:14;" d="M458.04,264.53c0,0,25.59,1.37,19.65-22.4
			c-5-20.01-15.54-37.03-25.591-35.2c-10.06,1.83-20.569,15.54-10.52,32c7.66,12.52,13.2,20.82,15.4,24.06
			C457.68,264.01,458.04,264.53,458.04,264.53z"/>
		<path style="fill:none;stroke:#231F20;stroke-width:14;" d="M464.44,225.67c0,5.31-4.61,9.6-10.29,9.6
			c-5.67,0-10.28-4.29-10.28-9.6c0-5.3,4.61-9.6,10.28-9.6C459.83,216.07,464.44,220.37,464.44,225.67z"/>
		<path style="fill:none;stroke:#231F20;stroke-width:14;" d="M359.99,268.64c0,0-25.59,1.37-19.65-22.4
			c5-20.01,15.54-37.02,25.6-35.19c10.05,1.83,20.56,15.54,10.51,31.99C366.39,259.5,359.99,268.64,359.99,268.64z"/>
		<path style="fill:none;stroke:#231F20;stroke-width:14;" d="M353.59,229.79c0,5.3,4.61,9.6,10.29,9.6c5.68,0,10.28-4.3,10.28-9.6
			c0-5.31-4.6-9.6-10.28-9.6C358.2,220.19,353.59,224.48,353.59,229.79z"/>
		<path style="fill:none;stroke:#231F20;stroke-width:21;" d="M357.94,270.93c0,0-6.28,12.35-3.93,29.29
			c1.06,7.66,3.89,16.27,9.87,25.1c19.2,28.34,40.68,44.34,74.5,18.74c17.3-13.09,23.84-29.17,24.99-44.32
			c1.09-14.1-2.49-27.4-6.39-36.75c-0.101-0.25-0.2-0.5-0.311-0.75"/>
		<path style="fill:none;stroke:#231F20;stroke-width:21;" d="M354.28,300.18c4.78,6.26,9.58,12.59,16.1,17.37
			c9.39,6.89,20.12,8.47,31.41,9.6c10.38,1.03,21.24,0.63,31.44-0.81c8.869-1.25,16.02-4.75,22.979-11.08
			c5.03-4.57,6.48-13.98,6.86-15.54"/>
		<polygon style="fill:none;stroke:#231F20;stroke-width:21;stroke-linecap:round;stroke-linejoin:round;" points="410.95,311.15 
			434.73,287.75 387.19,286.56 409.56,312.52 		"/>
		
			<line style="fill:none;stroke:#231F20;stroke-width:21;stroke-linecap:round;stroke-linejoin:round;" x1="410.04" y1="325.32" x2="409.56" y2="312.52"/>
		<path style="fill:none;stroke:#231F20;stroke-width:21;" d="M410.5,356.86c0,0,4.51-0.05,11.57-0.73
			c15.77-1.52,44.28-6.23,63.85-20.75c27.1-20.11,58.39-36.88,71.86-33.51c0.609,0.16,1.189,0.35,1.729,0.59"/>
		<path style="fill:none;stroke:#797878;stroke-width:7;" d="M625.03,440.36c0,0-0.54-0.32-1.54-0.88
			c-8.71-5.011-52.17-29.55-74.03-34.471c-24.38-5.49-59.31-3.46-68.87,19.5c-8.75,20.99-0.79,31.44,12.24,38.73
			c5.12,2.87,11.03,5.25,17.01,7.59c40.53,15.84,35.351-13.72,52.41-10.67c17.07,3.05,26.21,33.82,26.21,33.82"/>
		<path style="fill:none;stroke:#231F20;stroke-width:21;" d="M247.78,306.58c0,0,0.64-0.58,1.84-1.45
			c6.69-4.88,30.71-18.86,56.05,9.07c29.87,32.91,76.8,48.14,116.41,42.05"/>
		<path style="fill:none;stroke:#797878;stroke-width:7;" d="M298.36,474.37c-0.22,0.189-0.45,0.38-0.67,0.57
			c-25.96,21.949-70.26,55.39-91.96,56.229c-12.56,0.48-25.22-2.01-35.58-9.39c-0.65-0.46-1.3-0.95-1.93-1.46
			c-14.7-11.7-24.18-34.11-21-73.261c1.78-21.959,3.43-44.3,6.13-64.569c0.78-5.96,1.66-11.73,2.66-17.27
			c6.08-33.66,16.58-58.39,38.14-60.16c18.33-1.5,33.89,0.25,45,4.54c11.41,4.41,18.14,11.48,18.38,20.44
			c0.61,22.55,6.66,37.84-15.24,40.23c-10.33,1.12-18.8,1.67-25.76,1.44c-15.64-0.51-23.65-4.92-27.87-15.46
			c-4.25-10.63-29.86,2.44-31.69,9.14"/>
		<path style="fill:none;stroke:#231F20;stroke-width:21;" d="M170,522c0.05-0.07,0.1-0.15,0.15-0.22c4.1-6.08,2.67-6.2-1.93-1.46
			c-13.4,13.819-53.69,68.85-62.55,137.81c-1.01,7.89-1.62,15.96-1.72,24.17c-0.61,48.16,20.41,100.561,63.38,102.391
			c68.45,2.92,92.92-16.471,135.02-21.49c4.35-0.521,8.89-0.891,13.69-1.061c26.24-0.93,66.87-2.83,109.29-2.89
			c23.25-0.05,47.04,0.46,69.28,1.98"/>
		<path style="fill:none;stroke:#231F20;stroke-width:7;" d="M108.82,658.54c1.83,0,37.48-20.12,132.56-40.23"/>
		<path style="fill:none;stroke:#231F20;stroke-width:21;" d="M283.54,540.6c21.83-13.71,73.94-43.869,222.95-19.189"/>
		<path style="fill:none;stroke:#231F20;stroke-width:14;" d="M80.48,411.71c0,0,28.7-18.63,72.87-29.22
			c18.62-4.48,39.98-7.53,63.1-7.15c16.17,0.26,33.19,2.2,50.74,6.49c0.84,0.2,1.68,0.41,2.53,0.63
			c67.5,17.32,165.45,63.14,225.23,92.82c31.71,15.729,52.68,26.93,52.68,26.93l90.23,41.59l2.54,1.17L769.77,604.6"/>
		<path style="fill:none;stroke:#797878;stroke-width:7;" d="M273.72,756.47c-17.49-13.279-29.63-45.399-31.62-60.89
			c-1.06-8.2-10.7-49.271,2.25-77c6.55-14.03,18.88-24.64,41.02-25.87c24.55-1.37,26.7,23.34,27.48,39.84
			c0.37,7.97,1.3,21.71,2.58,29.641c1.19,7.369,7.79,14.29,11.88,20.109c8.33,11.82,12.32,18.15,14.7,33.47
			c4.14,26.591-17.83,40.381-40.14,43.53c-10.21,1.44-20.5,0.65-28.39-2.16v-0.01c-0.54-0.189-1.07-0.39-1.58-0.6"/>
		<path style="fill:none;stroke:#231F20;stroke-width:14;" d="M630.2,529.34c0,0,3.16,4.65,8.16,12.44
			c0.649,1.01,1.33,2.08,2.04,3.189c15.989,25.16,46.279,75.63,57.439,113.391c2.62,8.84,4.18,16.979,4.271,23.939
			c0.609,48.16-20.41,100.561-63.38,102.391c-68.45,2.92-92.931-16.471-135.021-21.49c-4.35-0.521-8.89-0.891-13.69-1.061
			c-21.56-0.76-43.46-1.899-64.689-2.89c-37.88-1.79-73.59-3.15-101.33-1.25"/>
		<path style="fill:none;stroke:#231F20;stroke-width:7;" d="M697.24,658.54c-35.55,0-70.51-27.11-132.561-40.23"/>
		<path style="fill:none;stroke:#797878;stroke-width:7;" d="M532.34,756.47c17.49-13.279,29.63-45.399,31.62-60.89
			c1.06-8.2,10.7-49.271-2.25-77c-6.55-14.03-18.88-24.64-41.02-25.87c-24.561-1.37-26.7,23.34-27.48,39.84
			c-0.38,7.97-1.3,21.71-2.58,29.641c-1.18,7.369-7.8,14.29-11.88,20.109c-8.33,11.82-12.31,18.15-14.7,33.47
			c-4.13,26.591,17.83,40.381,40.141,43.53c10.21,1.44,20.5,0.65,28.39-2.16v-0.01c0.54-0.189,1.07-0.39,1.58-0.6"/>
		<path style="fill:none;stroke:#797878;stroke-width:7;" d="M265.15,600.03c0,0-9.14,34.739-2.75,47.54"/>
		<path style="fill:none;stroke:#797878;stroke-width:7;" d="M289.83,595.46c0,0-9.14,34.74-2.74,47.54"/>
		<path style="fill:none;stroke:#797878;stroke-width:7;" d="M542.61,601.86c0,0,9.149,34.739,2.75,47.529"/>
		<path style="fill:none;stroke:#797878;stroke-width:7;" d="M517.93,597.29c0,0,9.141,34.729,2.74,47.53"/>
		<polyline style="fill:none;stroke:#231F20;stroke-width:14;" points="100.56,398.91 80.18,333.7 105.66,393.8 		"/>
		<polyline style="fill:none;stroke:#231F20;stroke-width:14;" points="123.7,389.98 123.08,321.66 130.06,386.56 		"/>
	</g>
</g>
<rect style="fill:none;" width="850.394" height="850.394"/>
<path style="fill:none;stroke:#797878;stroke-width:7;" d="M156,508c0,0,18.785,22,42,22"/>
</svg>
