<svg xmlns="http://www.w3.org/2000/svg" width="850.89" height="850.89" viewBox="0 0 850.89 850.89" overflow="visible"><path d="M368.28 137.3a54.48 54.48 0 0 0-5.29-.25c-.64 0-1.26.02-1.89.05.64-3.24.98-6.58.98-10.01.9-.05 1.81-.07 2.73-.07.63 0 1.25.01 1.87.03 2.98.08 5.89.37 8.71.87 19.01 3.3 33.77 15.6 38.86 34.33l-.2 1.33c-4.12-.66-8.25-1.8-12.19-3.36v-.01l.39-.96c-4.37-10.14-13.18-16.82-23.82-20.02-3.24-.97-6.65-1.61-10.15-1.93z" fill="#fbee34"/><path d="M470.51 127.81a52.23 52.23 0 0 1-1.649 9.99c-4.91 18.26-19.511 32.56-37.96 37.02l-.141-.01c.5-4.78 1.811-9.31 3.8-13.46a41.536 41.536 0 0 0 19.66-19.55 40.89 40.89 0 0 0 3.601-11.58c.319-2.08.489-4.22.489-6.39 0-22.93-18.579-41.51-41.5-41.51-22.93 0-41.51 18.58-41.51 41.51 0 1.22.06 2.43.16 3.63l-.07.46c-2.82-.5-5.73-.79-8.71-.87l.01-.49c-.04-.76-.05-1.51-.05-2.27 0-28.72 23.27-52 51.99-52s52 23.28 52 52c0 1.18-.04 2.35-.12 3.52z" fill="#231f20"/><path d="M698.2 247.25H152.25v-195h546v195h-.05zM581.01 125.2c0-28.72-23.279-52-52-52-28.72 0-51.99 23.28-51.99 52l-.14 2.59a50.582 50.582 0 0 0-6.37.02c.08-1.17.12-2.34.12-3.52 0-28.72-23.28-52-52-52s-51.99 23.28-51.99 52c0 .76.01 1.51.05 2.27l-.01.49c-.62-.02-1.24-.03-1.87-.03-.92 0-1.83.02-2.73.07v-.07c0-28.72-23.29-51.99-52-51.99-28.72 0-52 23.27-52 51.99s23.28 52 52 52c.92 0 1.83-.02 2.74-.08v.08c0 28.72 23.27 52 51.99 52 28.72 0 52-23.28 52-52 0-.93-.02-1.86-.08-2.78a51.809 51.809 0 0 0 5.21-.06h.03c-.08 1.16-.12 2.33-.12 3.51 0 28.72 23.28 52 52 52 28.71 0 51.99-23.28 51.99-52 0-.86-.02-1.73-.07-2.59 1.07.07 2.15.1 3.24.1 28.72 0 52-23.29 52-52z" fill="#fff"/><path d="M513.29 174.78c-16.95-5.37-30.14-19.2-34.62-36.52 3.69.59 7.21 1.68 10.51 3.18a41.632 41.632 0 0 0 20.7 21.03c4.37 2.01 9.14 3.29 14.17 3.66 1.04.08 2.08.12 3.141.12 22.92 0 41.51-18.58 41.51-41.51 0-22.92-18.59-41.51-41.51-41.51-22.931 0-41.511 18.59-41.511 41.51 0 1.37.07 2.72.2 4.06l-.06.28a51.515 51.515 0 0 0-8.94-1.29l.14-2.59c0-28.72 23.271-52 51.99-52 28.721 0 52 23.28 52 52 0 28.71-23.279 52-52 52-1.09 0-2.17-.03-3.24-.1-4.33-.27-8.51-1.06-12.48-2.32z" fill="#ed1d31"/><path d="M527.19 83.23c22.92 0 41.51 18.59 41.51 41.51 0 22.93-18.59 41.51-41.51 41.51-1.061 0-2.101-.04-3.141-.12-4.93-18.34-19.66-32.67-38.229-37.05l.06-.28c-.13-1.34-.2-2.69-.2-4.06 0-22.92 18.58-41.51 41.51-41.51z" fill="#fff"/><path d="M434.56 161.35a40.943 40.943 0 0 0-3.8 13.46 40.41 40.41 0 0 0-.24 4.43c0 22.92 18.58 41.5 41.5 41.5 22.931 0 41.511-18.58 41.511-41.5 0-1.51-.08-2.99-.24-4.46a51.88 51.88 0 0 0 12.479 2.32c.051.86.07 1.73.07 2.59 0 28.72-23.28 52-51.99 52-28.72 0-52-23.28-52-52 0-1.18.04-2.35.12-3.51.26-3.94.96-7.75 2.05-11.4 4.89-16.35 17.61-29.32 33.8-34.56-.63 4.09-1.86 7.98-3.601 11.58l-.069-.03a41.68 41.68 0 0 0-19.59 19.58z" fill="#33a048"/><path d="M513.29 174.78c.16 1.47.24 2.95.24 4.46 0 22.92-18.58 41.5-41.511 41.5-22.92 0-41.5-18.58-41.5-41.5 0-1.5.08-2.98.24-4.43l.141.01c18.449-4.46 33.05-18.76 37.96-37.02l.14.04a41.72 41.72 0 0 1 9.67.42c4.48 17.32 17.67 31.15 34.62 36.52z" fill="#fff"/><path d="M489.18 141.44c-3.3-1.5-6.819-2.59-10.51-3.18a41.73 41.73 0 0 0-9.67-.42l-.14-.04a52.23 52.23 0 0 0 1.649-9.99 50.557 50.557 0 0 1 6.37-.02c3.061.17 6.05.61 8.94 1.29 18.569 4.38 33.3 18.71 38.229 37.05-5.03-.37-9.8-1.65-14.17-3.66l.061-.13a41.567 41.567 0 0 0-20.759-20.9z" fill="#33a048"/><path d="M509.94 162.34l-.061.13a41.632 41.632 0 0 1-20.7-21.03 41.57 41.57 0 0 1 20.761 20.9zM458.31 123.83c0 2.17-.17 4.31-.489 6.39-16.19 5.24-28.91 18.21-33.8 34.56l-1.77-.53c-2.69 0-5.44-.23-8.2-.67l.2-1.33c-5.09-18.73-19.85-31.03-38.86-34.33l.07-.46c-.1-1.2-.16-2.41-.16-3.63 0-22.93 18.58-41.51 41.51-41.51 22.919 0 41.499 18.58 41.499 41.51zM454.15 141.77l.069.03a41.536 41.536 0 0 1-19.66 19.55 41.687 41.687 0 0 1 19.591-19.58z" fill="#fff"/><path d="M404.27 174.27c-17.61-5.05-31.4-19.16-35.99-36.97 3.5.32 6.91.96 10.15 1.93l-.08.24c3.8 9.34 12.97 16.57 23.51 20.74v.01c3.94 1.56 8.07 2.7 12.19 3.36 2.76.44 5.51.67 8.2.67l1.77.53a51.667 51.667 0 0 0-2.05 11.4h-.03a51.809 51.809 0 0 1-5.21.06 51.64 51.64 0 0 1-12.46-1.97z" fill="#231f20"/><path d="M323.72 165.09a40.856 40.856 0 0 0-2.22 12.67c-.02.26-.02.53-.02.8 0 22.93 18.58 41.51 41.51 41.51 22.92 0 41.5-18.58 41.5-41.51 0-1.45-.07-2.88-.22-4.29a51.64 51.64 0 0 0 12.46 1.97c.06.92.08 1.85.08 2.78 0 28.72-23.28 52-52 52s-51.99-23.28-51.99-52v-.08c.01-3.78.41-7.47 1.19-11.02 4-18.44 17.79-33.23 35.65-38.65a40.99 40.99 0 0 1-2.29 11.23l-.54-.18c-10.8 4.57-19.28 13.59-23.11 24.77z" fill="#fbee34"/><path d="M404.27 174.27c.15 1.41.22 2.84.22 4.29 0 22.93-18.58 41.51-41.5 41.51-22.93 0-41.51-18.58-41.51-41.51 0-.27 0-.54.02-.8h.02c19.98-4.49 35.62-20.48 39.58-40.66.63-.03 1.25-.05 1.89-.05 1.78 0 3.55.08 5.29.25 4.59 17.81 18.38 31.92 35.99 36.97zM402.25 159.25l-.39.96c-10.54-4.17-19.71-11.4-23.51-20.74l.08-.24c10.64 3.2 19.45 9.88 23.82 20.02z" fill="#fff"/><path d="M361.1 137.1c-3.96 20.18-19.6 36.17-39.58 40.66h-.02c.07-4.43.85-8.69 2.22-12.67 10.99-4.41 19.65-13.39 23.65-24.59a40.99 40.99 0 0 0 2.29-11.23c.07-.9.1-1.8.1-2.71 0-22.92-18.58-41.5-41.51-41.5-22.92 0-41.5 18.58-41.5 41.5 0 22.93 18.58 41.51 41.5 41.51 1.72 0 3.41-.1 5.07-.3l.69.15c-.78 3.55-1.18 7.24-1.19 11.02-.91.06-1.82.08-2.74.08-28.72 0-52-23.28-52-52s23.28-51.99 52-51.99c28.71 0 52 23.27 52 51.99v.07c0 3.43-.34 6.77-.98 10.01z" fill="#0d72ba"/><path d="M349.76 126.56c0 .91-.03 1.81-.1 2.71-17.86 5.42-31.65 20.21-35.65 38.65l-.69-.15c-1.66.2-3.35.3-5.07.3-22.92 0-41.5-18.58-41.5-41.51 0-22.92 18.58-41.5 41.5-41.5 22.93 0 41.51 18.58 41.51 41.5zM346.83 140.32l.54.18c-4 11.2-12.66 20.18-23.65 24.59 3.83-11.18 12.31-20.2 23.11-24.77z" fill="#fff"/><g fill="none" stroke="#000" stroke-linecap="round" stroke-linejoin="round"><path d="M362.08 127.02v.07c0 3.43-.34 6.77-.98 10.01-3.96 20.18-19.6 36.17-39.58 40.66" stroke-width="5"/><path d="M312.92 178.94h-.1c-.91.06-1.82.08-2.74.08-28.72 0-52-23.28-52-52s23.28-51.99 52-51.99c28.71 0 52 23.27 52 51.99" stroke-width="5"/><path d="M313.32 167.77c-1.66.2-3.35.3-5.07.3-22.92 0-41.5-18.58-41.5-41.51 0-22.92 18.58-41.5 41.5-41.5 22.93 0 41.51 18.58 41.51 41.5 0 .91-.03 1.81-.1 2.71a40.99 40.99 0 0 1-2.29 11.23c-4 11.2-12.66 20.18-23.65 24.59-.06.03-.12.06-.18.08" stroke-width="5"/><path d="M416.71 175.86c.01.13.02.25.02.38.06.92.08 1.85.08 2.78 0 28.72-23.28 52-52 52s-51.99-23.28-51.99-52v-.08c.01-3.78.41-7.47 1.19-11.02 4-18.44 17.79-33.23 35.65-38.65.04-.02.08-.03.12-.04M364.81 127.02c.63 0 1.25.01 1.87.03 2.98.08 5.89.37 8.71.87 19.01 3.3 33.77 15.6 38.86 34.33M362.08 127.09c.9-.05 1.81-.07 2.73-.07" stroke-width="5"/><path d="M404.25 174.05c.01.07.02.15.02.22.15 1.41.22 2.84.22 4.29 0 22.93-18.58 41.51-41.5 41.51-22.93 0-41.51-18.58-41.51-41.51 0-.27 0-.54.02-.8.07-4.43.85-8.69 2.22-12.67 3.83-11.18 12.31-20.2 23.11-24.77M360.88 137.11c.07 0 .15-.01.22-.01.63-.03 1.25-.05 1.89-.05 1.78 0 3.55.08 5.29.25 3.5.32 6.91.96 10.15 1.93 10.64 3.2 19.45 9.88 23.82 20.02" stroke-width="5"/><path d="M421.94 176.18a51.809 51.809 0 0 1-5.21.06 51.64 51.64 0 0 1-12.46-1.97c-17.61-5.05-31.4-19.16-35.99-36.97-.04-.12-.07-.25-.1-.37M366.69 126.56c-.04-.76-.05-1.51-.05-2.27 0-28.72 23.27-52 51.99-52s52 23.28 52 52c0 1.18-.04 2.35-.12 3.52a52.23 52.23 0 0 1-1.649 9.99c-4.91 18.26-19.511 32.56-37.96 37.02" stroke-width="5"/><path d="M422.25 164.25c-2.69 0-5.44-.23-8.2-.67-4.12-.66-8.25-1.8-12.19-3.36v-.01c-10.54-4.17-19.71-11.4-23.51-20.74M375.46 127.46c-.1-1.2-.16-2.41-.16-3.63 0-22.93 18.58-41.51 41.51-41.51 22.92 0 41.5 18.58 41.5 41.51 0 2.17-.17 4.31-.489 6.39-.63 4.09-1.86 7.98-3.601 11.58a41.536 41.536 0 0 1-19.66 19.55l-.01.01" stroke-width="5"/><path d="M525.76 176.78c.01.11.01.21.01.32.051.86.07 1.73.07 2.59 0 28.72-23.28 52-51.99 52-28.72 0-52-23.28-52-52 0-1.18.04-2.35.12-3.51.26-3.94.96-7.75 2.05-11.4 4.89-16.35 17.61-29.32 33.8-34.56.029-.01.05-.02.08-.03M473.85 127.7c1.021 0 2.03.03 3.03.09 3.061.17 6.05.61 8.94 1.29 18.569 4.38 33.3 18.71 38.229 37.05.03.11.061.21.09.32M470.3 127.82c.07 0 .141-.01.21-.01 1.101-.07 2.221-.11 3.34-.11" stroke-width="5"/><path d="M513.26 174.49c.01.1.021.19.03.29.16 1.47.24 2.95.24 4.46 0 22.92-18.58 41.5-41.511 41.5-22.92 0-41.5-18.58-41.5-41.5 0-1.5.08-2.98.24-4.43.5-4.78 1.811-9.31 3.8-13.46a41.683 41.683 0 0 1 19.591-19.58M469 137.84a41.72 41.72 0 0 1 9.67.42c3.69.59 7.21 1.68 10.51 3.18a41.57 41.57 0 0 1 20.761 20.9" stroke-width="5"/><path d="M477.02 125.2c0-28.72 23.271-52 51.99-52 28.721 0 52 23.28 52 52 0 28.71-23.279 52-52 52-1.09 0-2.17-.03-3.24-.1a51.87 51.87 0 0 1-12.479-2.32c-16.95-5.37-30.14-19.2-34.62-36.52l-.09-.33" stroke-width="5"/><path d="M485.88 128.8c-.13-1.34-.2-2.69-.2-4.06 0-22.92 18.58-41.51 41.511-41.51 22.92 0 41.51 18.59 41.51 41.51 0 22.93-18.59 41.51-41.51 41.51-1.061 0-2.101-.04-3.141-.12-5.03-.37-9.8-1.65-14.17-3.66a41.632 41.632 0 0 1-20.7-21.03c-.05-.1-.1-.21-.14-.31" stroke-width="5"/><path stroke-width="14.156" d="M152.25 238.25v-186h546v195h-546"/><path stroke-width="14" d="M152.25 238.25v544"/><path stroke-width="14.182" d="M698.2 238.25v548"/></g><path fill="none" d="M.25.25h850.394v850.394H.25z"/><g><g fill="#797878"><path d="M575.149 664.36a35.462 35.462 0 0 1 6.583 20.629c0 19.645-15.92 35.564-35.564 35.564-19.639 0-35.564-15.92-35.564-35.564s15.926-35.564 35.564-35.564c11.952 0 22.528 5.898 28.981 14.935zM459.386 500.925c21.613 13.989 38.811 34.082 49.087 57.801 6.814 15.714 10.582 33.017 10.582 51.191 0 71.915-59.021 130.232-131.832 130.232-72.817 0-131.838-58.317-131.838-130.232 0-37.639 16.169-71.553 42.023-95.327 23.544-21.644 55.116-34.886 89.815-34.886 26.639 0 51.428 7.805 72.163 21.221zm-177.369 95.657a103.968 103.968 0 0 0 0 24.273 102.656 102.656 0 0 0 8.757 31.074 104.232 104.232 0 0 0 14.693 23.176 105.434 105.434 0 0 0 17.608 16.692 105.719 105.719 0 0 0 50.837 20.411c4.248.517 8.57.778 12.961.778 3.942 0 7.842-.212 11.672-.629a105.729 105.729 0 0 0 53.198-21.389 105.266 105.266 0 0 0 17.39-16.917 103.931 103.931 0 0 0 14.4-23.388 102.488 102.488 0 0 0 8.172-29.734c.479-4.005.723-8.085.723-12.221 0-4.13-.243-8.196-.717-12.201a102.314 102.314 0 0 0-7.243-27.574 103.535 103.535 0 0 0-14.282-24.241 105.265 105.265 0 0 0-17.122-17.197 105.735 105.735 0 0 0-54.519-22.416c-3.83-.417-7.729-.629-11.672-.629-4.26 0-8.465.249-12.594.735a105.752 105.752 0 0 0-52.531 21.463 105.214 105.214 0 0 0-17.346 16.973 103.874 103.874 0 0 0-14.562 23.961 102.399 102.399 0 0 0-7.823 29z"/><path d="M398.546 602.848c.424.698.779 1.439 1.046 2.212.399 1.151.617 2.379.617 3.655 0 6.696-5.979 12.14-13.348 12.14-4.758 0-8.938-2.273-11.292-5.687-.23-.324-.442-.66-.629-1.003a11.177 11.177 0 0 1-.343-10.239c2.049-4.323 6.764-7.344 12.264-7.344 5.027 0 9.412 2.529 11.685 6.266z"/></g><g fill="none" stroke="#231f20"><path d="M508.473 558.726c6.814 15.714 10.582 33.017 10.582 51.191 0 71.915-59.021 130.232-131.832 130.232-72.817 0-131.838-58.317-131.838-130.232 0-37.639 16.169-71.553 42.023-95.327 23.544-21.644 55.116-34.886 89.815-34.886 26.639 0 51.429 7.805 72.163 21.221 21.613 13.989 38.81 34.082 49.087 57.801z" stroke-width="17.44"/><path d="M491.712 596.508c.474 4.005.717 8.071.717 12.201 0 4.136-.243 8.216-.723 12.221a102.448 102.448 0 0 1-8.172 29.734 103.99 103.99 0 0 1-14.4 23.388 105.188 105.188 0 0 1-17.39 16.917 105.741 105.741 0 0 1-53.198 21.389c-3.83.417-7.729.629-11.672.629-4.391 0-8.714-.262-12.961-.778a105.719 105.719 0 0 1-50.837-20.411 105.473 105.473 0 0 1-17.608-16.692 104.232 104.232 0 0 1-14.693-23.176 102.628 102.628 0 0 1-8.757-31.074 103.994 103.994 0 0 1 0-24.273 102.366 102.366 0 0 1 7.823-29 103.874 103.874 0 0 1 14.562-23.961 105.254 105.254 0 0 1 17.346-16.973 105.752 105.752 0 0 1 52.531-21.463c4.129-.486 8.334-.735 12.594-.735 3.942 0 7.842.212 11.672.629a105.747 105.747 0 0 1 54.519 22.416 105.265 105.265 0 0 1 17.122 17.197 103.501 103.501 0 0 1 14.282 24.241 102.314 102.314 0 0 1 7.243 27.574z" stroke-width="8.72"/><path stroke-width="4.36" d="M280.909 596.582h210.174M280.909 620.854H491.083M374.28 602.449V504.524M374.28 709.219V617.005M398.546 603.72V504.524M398.546 714.693v-98.915M470.174 544.705l-51.877 51.877-.897.897-12.414 12.414-5.151 5.144-1.289 1.296-4.528 4.521-6.197 6.205-13.541 13.534-51.198 51.198M374.28 606.286l-.611.61-2.996 2.997-10.962 10.961-2.092 2.093-52.152 52.157M453.064 527.495l-54.518 54.525-10.719 10.712-3.843 3.85"/><path stroke-width="4.36" d="M381.617 620.854l6.204 6.205 10.725 10.724 53.179 53.167M304.415 543.634l52.83 52.83.112.118 13.316 13.311 4.267 4.272.019.019M400.751 605.657l4.235 4.236 10.963 10.961 1.812 1.813 51.367 51.379M321.768 526.674l52.512 52.512 13.547 13.546 3.849 3.85"/><path stroke-width="4.36" d="M399.829 615.037h.006l13.66 5.817 4.266 1.813 65.76 27.991M289.846 567.582l67.399 28.882.268.118 16.785 7.194M375.569 615.168l-13.117 5.686-4.833 2.093-66.838 28.975M484.456 568.94l-64.951 27.642-2.105.897-17.808 7.581h-.006"/><path d="M399.592 605.06c.399 1.151.617 2.379.617 3.655 0 6.696-5.979 12.14-13.348 12.14-4.758 0-8.938-2.273-11.292-5.687-.23-.324-.442-.66-.629-1.003a11.177 11.177 0 0 1-.343-10.239c2.049-4.323 6.764-7.344 12.264-7.344 5.026 0 9.412 2.529 11.685 6.266.424.698.779 1.439 1.046 2.212z" stroke-width="5.472"/><path d="M295.24 421.63V302.622s3.419-22.566-62.92 13.684M295.24 513.114v-80.541" stroke-width="21.8" stroke-linecap="round" stroke-linejoin="round"/><path stroke-width="17.44" d="M508.473 558.726h52.138l24.479 98.559 15.191 61.183h38.299M295.24 421.63h191.508v10.943H295.24zM459.386 432.573V500.956"/><path d="M581.732 684.989c0 19.645-15.92 35.564-35.564 35.564-19.639 0-35.564-15.92-35.564-35.564s15.926-35.564 35.564-35.564c11.952 0 22.528 5.898 28.981 14.936a35.459 35.459 0 0 1 6.583 20.628z" stroke-width="17.44"/><path stroke-width="17.44" stroke-linecap="round" stroke-linejoin="round" d="M546.168 684.989l28.981-20.629 9.941-7.075"/></g></g></svg>