<?xml version="1.0" encoding="iso-8859-1"?>
<!-- Generator: Adobe Illustrator 12.0.1, SVG Export Plug-In . SVG Version: 6.00 Build 51448)  -->
<!DOCTYPE svg PUBLIC "-//W3C//DTD SVG 1.1//EN" "http://www.w3.org/Graphics/SVG/1.1/DTD/svg11.dtd" [
	<!ENTITY ns_svg "http://www.w3.org/2000/svg">
	<!ENTITY ns_xlink "http://www.w3.org/1999/xlink">
]>
<svg  version="1.1" id="Layer_1" xmlns="&ns_svg;" xmlns:xlink="&ns_xlink;" width="850.394" height="850.394"
	 viewBox="0 0 850.394 850.394" style="overflow:visible;enable-background:new 0 0 850.394 850.394;" xml:space="preserve">
<g>
	<g id="XMLID_8_">
		<g>
			<path style="fill:#FFEEC8;" d="M722.303,451.337c6.846,21.781,8.105,48.665,5.748,57.193c-1.421,5.016-7.912,12.14-14.016,11.383
				c-6.76-0.725-8.278-16.733-11.583-21.836c-5.124,1.06-2.486,8.572-6.275,8.572c-3.283-3.297-4.381-12.366-4.381-21.846
				c0-11.167,1.528-22.906,2.81-26.474l-46.374-101.88l0.667-0.303l38.753-15.134l3.757-0.054c2.551,7.48,4.736,14.668,6.351,21.198
				C704.82,390.954,722.303,451.337,722.303,451.337z"/>
			<path style="fill:#ED1D31;" d="M691.408,340.959l-3.757,0.054l-38.753,15.134l-0.667,0.303l-7.17-15.761l-4.844,50.784H490.324
				l-4.015-51.432l-3.725,8.194l-1.615-0.735l-39.969-21.122c13.907-36.926,32.961-75.505,32.961-75.505
				c8.666-8.702,23.263-18.928,35.695-26.992c1.551-1.005,3.079-1.978,4.543-2.918l5.522,3.308
				c2.143,15.09,47.128,88.25,81.542-10.031c4.155,2.508,10.022,6.107,16.48,10.291c12.423,8.053,27.02,18.29,35.707,26.992
				C653.452,251.521,677.661,300.553,691.408,340.959z"/>
			<path style="fill:#231F20;" d="M665.336,766.341c8.838,5.069,13.887,13.857,11.26,23.229c-2.186,7.794-19.279,12.15-27.912,7.178
				c-14.984-8.594-5.232-5.653-16.406-9.999c-22.078-8.658-28.827-6.323-31.422-24.852
				C609.575,767.757,654.399,784.403,665.336,766.341z"/>
			<path style="fill:#FFEEC8;" d="M632.902,740.462h0.043c0.032,9.427,18.192,17.761,32.391,25.879
				c-10.937,18.063-55.761,1.416-64.48-4.443c-0.42-3.048-0.742-6.647-0.99-10.961l-3.067-20.636h-0.032l-11.163-98.702h54.899
				C637.047,683.733,633.58,731.339,632.902,740.462z"/>
			<path style="fill:#ED1D31;" d="M645.056,448.904c1.809,11.372,3.11,24.527,3.11,38.872c0,22.635-3.832,86.012-7.664,143.822
				h-54.899l-14.059-124.431l-12.8-0.043l-14.327,124.506h-54.254c-4.209-57.95-8.439-121.717-8.439-144.449
				c0-14.539,0.926-27.598,2.206-38.71l6.405,0.735H643.14L645.056,448.904z"/>
			<path style="fill:#ED1D31;" d="M644.872,447.77l43.641,183.829h-48.011c3.832-57.811,7.664-121.188,7.664-143.822
				c0-14.345-1.302-27.5-3.11-38.872C644.991,448.526,644.926,448.147,644.872,447.77z"/>
			<path style="fill:#ED1D31;" d="M643.14,449.207H490.335l-6.405-0.735c1.896-16.527,4.586-28.796,6.223-35.315h119.219
				l6.351-0.032h20.798c0.161,0.454,0.312,0.94,0.474,1.438l7.879,33.208c0.054,0.378,0.119,0.757,0.184,1.135L643.14,449.207z"/>
			<path style="fill:#0B00EA;" d="M636.648,391.473v21.652h-0.129c-0.743-2.292-1.389-4.086-1.852-5.34l1.55-16.312H636.648z"/>
			<path style="fill:#A3D9FF;" d="M636.648,413.125l0.345,1.438c-0.162-0.497-0.313-0.983-0.474-1.438H636.648z"/>
			<path style="fill:#231F20;" d="M636.52,413.125h-20.798H490.163c0.872-3.448,1.442-5.286,1.442-5.286l-1.281-16.366h145.894
				l-1.55,16.312C635.131,409.039,635.776,410.833,636.52,413.125z"/>
			<path style="fill:#FFEEC8;" d="M595.054,210.584c0,0,2.368,1.362,6.211,3.653c-34.414,98.281-79.399,25.122-81.542,10.031
				l-5.522-3.308c10.033-6.356,17.751-10.799,18.139-11.015c7.578,7.988,17.245,12.777,27.762,12.777
				c11.066,0,21.174-5.286,28.925-14.009L595.054,210.584z"/>
			<path style="fill:#FFEEC8;" d="M532.339,209.946c-10-10.528-16.395-26.635-16.395-44.687c0-31.726,19.764-57.464,44.156-57.464
				c24.414,0,44.179,25.738,44.179,57.464c0,17.36-5.91,32.916-15.254,43.455c-7.751,8.723-17.858,14.009-28.925,14.009
				C549.584,222.724,539.917,217.935,532.339,209.946z"/>
			<polygon style="fill:#ED1D31;" points="562.038,631.599 562.038,631.631 544.417,631.631 558.744,507.125 571.544,507.168 
				585.603,631.599 			"/>
			<path style="fill:#FFEEC8;" d="M498.354,738.927c-0.839-10.539-4.51-56.696-8.191-107.296h54.254l-11.454,99.557l0.054,0.011
				l-2.195,17.447c-0.108,1.902-0.237,3.675-0.377,5.318c-43.393,23.748-61.939,10.431-64.728,9.88
				C479.409,756.039,497.203,747.932,498.354,738.927z"/>
			<path style="fill:#231F20;" d="M530.444,753.964c-2.132,24.71-7.955,21.046-32.079,30.493
				c-11.151,4.324-1.389,1.416-16.384,10.01c-8.644,4.973-25.717,0.573-27.934-7.188c-2.627-9.371,2.433-18.16,11.292-23.219
				c0.129-0.075,0.247-0.141,0.377-0.216C468.505,764.395,487.052,777.712,530.444,753.964z"/>
			<path style="fill:#0B00EA;" d="M490.324,391.473l1.281,16.366c0,0-0.57,1.837-1.442,5.286h-0.162v-21.652H490.324z"/>
			<path style="fill:#ED1D31;" d="M481.724,487.182c0,22.732,4.23,86.499,8.439,144.449h-52.252l51.864-218.474h0.377
				c-1.637,6.519-4.327,18.788-6.223,35.315C482.649,459.584,481.724,472.643,481.724,487.182z"/>
			<path style="fill:#FFEEC8;" d="M415.704,413.297c5.017-17.879,10.614-38.288,13.94-51.767
				c2.595-10.507,6.686-22.733,11.357-35.153l39.969,21.122l1.615,0.735l-49.776,109.458c1.281,3.567,2.81,15.307,2.81,26.462
				c0,9.48-1.108,18.55-4.392,21.836c-3.746,0-1.152-7.513-6.276-8.551c-3.272,5.092-4.812,21.144-11.583,21.857
				c-6.114,0.735-12.605-6.389-14.004-11.404c-1.852-6.647-1.486-24.376,1.98-42.189c0.99-5.092,2.229-10.184,3.746-15.026
				C405.09,450.677,410.02,433.619,415.704,413.297z"/>
			<path style="fill:#231F20;" d="M368.716,767.681c8.837,5.07,13.886,13.848,11.26,23.23c-2.186,7.793-19.269,12.149-27.913,7.178
				c-14.984-8.594-5.231-5.654-16.395-9.999c-23.994-9.416-29.882-5.827-32.014-30.17l33.069-8.302l1.991-1.773
				C344.119,754.86,357.628,761.336,368.716,767.681z"/>
			<path style="fill:#ABD153;" d="M338.048,409.104c1.959,5.275,7.051,20.203,10.388,41.142l-1.905,0.303H193.715l-6.405-0.778
				c2.907-25.306,7.675-40.59,7.675-40.59l-5.285-67.798l-53.511,117.663l-27.719-7.016c0,0,17.45-60.361,24.565-89.158
				c10.291-41.769,44.308-110.658,44.308-110.658c8.676-8.702,23.273-18.928,35.695-26.992c12.089-7.848,22.132-13.621,22.67-13.934
				c7.589,8,17.256,12.788,27.784,12.788c11.055,0,21.163-5.286,28.914-14.009l6.028,1.859c0,0,10.259,5.88,22.692,13.944
				c12.422,8.053,27.03,18.29,35.707,26.992c0,0,34.005,68.879,44.307,110.647c3.52,14.312,9.354,31.618,14.564,49.789
				c-5.684,20.322-10.614,37.379-10.614,37.379c-1.518,4.843-2.756,9.935-3.746,15.026l-0.484-0.098l-56.417-123.576
				L338.048,409.104z"/>
			<path style="fill:#C8C8C8;" d="M336.325,741.803c0,2.064,0.883,4.075,2.39,6.042l-1.991,1.773l-33.069,8.302
				c-0.162-1.729-0.291-3.61-0.409-5.643l-3.068-20.625h-0.021L274.924,508.52l-12.799-0.054l-25.781,224.063l0.054,0.011
				l-2.196,17.446l-35.265-0.367h-3.886c3.714-3.016,6.265-6.118,6.685-9.34c0,0,0,0,0-0.011
				c-1.809-22.625-16.631-209.156-16.631-251.746c0-14.561,0.926-27.629,2.207-38.752l6.405,0.778H346.53l1.905-0.303
				c1.809,11.382,3.111,24.538,3.111,38.882c0,43.044-13.843,233.445-15.253,252.676H336.325z"/>
			<path style="fill:#FFEEC8;" d="M235.708,211.287c-10-10.528-16.384-26.635-16.384-44.687c0-31.726,19.764-57.464,44.167-57.464
				s44.178,25.738,44.178,57.464c0,17.36-5.91,32.926-15.265,43.466c-7.75,8.723-17.858,14.009-28.914,14.009
				C252.964,224.075,243.297,219.286,235.708,211.287z"/>
			<path style="fill:#231F20;" d="M198.936,749.618l35.265,0.367c-1.809,30.569-6.728,25.738-32.456,35.823
				c-11.142,4.313-1.389,1.405-16.373,9.999c-8.655,4.973-25.728,0.584-27.934-7.188c-2.638-9.372,2.433-18.16,11.281-23.208
				c8.87-5.092,19.548-10.291,26.33-15.793H198.936z"/>
			<path style="fill:#FFEEC8;" d="M136.189,459.044c1.281,3.557,2.81,15.296,2.81,26.462c0,9.48-1.098,18.539-4.381,21.836
				c-3.768,0-1.163-7.513-6.287-8.562c-3.272,5.102-4.812,21.144-11.583,21.857c-6.104,0.734-12.605-6.378-13.994-11.394
				c-2.4-8.54-1.109-35.391,5.716-57.216L136.189,459.044z"/>
		</g>
		<g>
			<path style="fill:none;stroke:#231F20;stroke-width:15.102;" d="M235.708,211.287c-10-10.528-16.384-26.635-16.384-44.687
				c0-31.726,19.764-57.464,44.167-57.464s44.178,25.738,44.178,57.464c0,17.36-5.91,32.926-15.265,43.466
				c-7.75,8.723-17.858,14.009-28.914,14.009C252.964,224.075,243.297,219.286,235.708,211.287z"/>
			<path style="fill:none;stroke:#231F20;stroke-width:15.102;" d="M108.47,452.028c0,0,17.45-60.361,24.565-89.158
				c10.291-41.769,44.308-110.658,44.308-110.658c8.676-8.702,23.273-18.928,35.695-26.992c12.089-7.848,22.132-13.621,22.67-13.934
				c0.011-0.011,0.021-0.011,0.021-0.011"/>
			<path style="fill:none;stroke:#231F20;stroke-width:15.102;" d="M201.735,740.268c-1.809-22.625-16.631-209.156-16.631-251.746
				c0-14.561,0.926-27.629,2.207-38.752c2.907-25.306,7.675-40.59,7.675-40.59l-5.285-67.798l-53.511,117.663
				c1.281,3.557,2.81,15.296,2.81,26.462c0,9.48-1.098,18.539-4.381,21.836c-3.768,0-1.163-7.513-6.287-8.562
				c-3.272,5.102-4.812,21.144-11.583,21.857c-6.104,0.734-12.605-6.378-13.994-11.394c-2.4-8.54-1.109-35.391,5.716-57.216"/>
			<path style="fill:none;stroke:#231F20;stroke-width:15.102;" d="M201.918,742.516c0,0-0.064-0.778-0.183-2.237"/>
			<path style="fill:none;stroke:#231F20;stroke-width:15.102;" d="M416.49,416.043c-0.258-0.918-0.517-1.827-0.786-2.746
				c-5.21-18.171-11.044-35.477-14.564-49.789c-10.302-41.769-44.307-110.647-44.307-110.647
				c-8.676-8.702-23.284-18.938-35.707-26.992c-12.433-8.064-22.692-13.944-22.692-13.944"/>
			<polyline style="fill:none;stroke:#231F20;stroke-width:15.102;" points="337.811,411.568 338.048,409.104 344.442,342.029 
				400.859,465.605 			"/>
			<path style="fill:none;stroke:#231F20;stroke-width:15.102;" d="M336.186,743.37c0,0,0.043-0.541,0.107-1.567
				c1.41-19.23,15.253-209.632,15.253-252.676c0-14.344-1.302-27.5-3.111-38.882c-3.337-20.938-8.429-35.867-10.388-41.142
				c-0.506-1.373-0.808-2.097-0.808-2.097"/>
			<path style="fill:none;stroke:#231F20;stroke-width:15.102;" d="M236.472,731.901l-0.075,0.638l-2.196,17.446
				c-1.809,30.569-6.728,25.738-32.456,35.823c-11.142,4.313-1.389,1.405-16.373,9.999c-8.655,4.973-25.728,0.584-27.934-7.188
				c-2.638-9.372,2.433-18.16,11.281-23.208c8.87-5.092,19.548-10.291,26.33-15.793c3.714-3.016,6.265-6.118,6.685-9.34
				c0,0,0,0,0-0.011c0.032-0.292,0.054-0.584,0.054-0.876"/>
			<path style="fill:none;stroke:#231F20;stroke-width:15.102;" d="M300.178,731.652l3.068,20.625
				c0.118,2.032,0.248,3.913,0.409,5.643c2.131,24.343,8.02,20.754,32.014,30.17c11.163,4.345,1.41,1.405,16.395,9.999
				c8.644,4.972,25.728,0.615,27.913-7.178c2.626-9.383-2.422-18.16-11.26-23.23c-11.088-6.345-24.598-12.82-30.001-19.836
				c-1.507-1.967-2.39-3.978-2.39-6.042"/>
			<polyline style="fill:none;stroke:#231F20;stroke-width:15.102;" points="300.317,733.101 300.156,731.652 274.924,508.52 
				262.125,508.466 236.343,732.528 			"/>
			<line style="fill:none;stroke:#231F20;stroke-width:15.102;" x1="193.715" y1="450.548" x2="346.53" y2="450.548"/>
			<path style="fill:none;stroke:#231F20;stroke-width:15.102;" d="M532.339,209.946c-10-10.528-16.395-26.635-16.395-44.687
				c0-31.726,19.764-57.464,44.156-57.464c24.414,0,44.179,25.738,44.179,57.464c0,17.36-5.91,32.916-15.254,43.455
				c-7.751,8.723-17.858,14.009-28.925,14.009C549.584,222.724,539.917,217.935,532.339,209.946z"/>
			<path style="fill:none;stroke:#231F20;stroke-width:15.102;" d="M405.09,450.677c0,0,4.93-17.058,10.614-37.379
				c5.017-17.879,10.614-38.288,13.94-51.767c2.595-10.507,6.686-22.733,11.357-35.153c13.907-36.926,32.961-75.505,32.961-75.505
				c8.666-8.702,23.263-18.928,35.695-26.992c1.551-1.005,3.079-1.978,4.543-2.918c10.033-6.356,17.751-10.799,18.139-11.015
				c0.011-0.011,0.011-0.011,0.011-0.011"/>
			<path style="fill:none;stroke:#231F20;stroke-width:15.102;" d="M490.324,391.473l-4.015-51.432l-3.725,8.194l-49.776,109.458
				c1.281,3.567,2.81,15.307,2.81,26.462c0,9.48-1.108,18.55-4.392,21.836c-3.746,0-1.152-7.513-6.276-8.551
				c-3.272,5.092-4.812,21.144-11.583,21.857c-6.114,0.735-12.605-6.389-14.004-11.404c-1.852-6.647-1.486-24.376,1.98-42.189
				c0.99-5.092,2.229-10.184,3.746-15.026"/>
			<path style="fill:none;stroke:#231F20;stroke-width:15.102;" d="M490.152,413.157c0-0.011,0.011-0.021,0.011-0.032"/>
			<path style="fill:none;stroke:#231F20;stroke-width:15.102;" d="M498.538,741.176c0,0-0.064-0.778-0.184-2.249
				c-0.839-10.539-4.51-56.696-8.191-107.296"/>
			<path style="fill:none;stroke:#231F20;stroke-width:15.102;" d="M722.303,451.337c0,0-17.482-60.383-24.544-89.18
				c-1.614-6.529-3.8-13.718-6.351-21.198c-13.747-40.407-37.956-89.439-37.956-89.439c-8.688-8.702-23.284-18.938-35.707-26.992
				c-6.458-4.184-12.325-7.783-16.48-10.291c-3.843-2.292-6.211-3.653-6.211-3.653"/>
			<path style="fill:none;stroke:#231F20;stroke-width:15.102;" d="M636.218,391.473l4.844-50.784l7.17,15.761l46.374,101.88
				c-1.281,3.567-2.81,15.307-2.81,26.474c0,9.479,1.098,18.549,4.381,21.846c3.789,0,1.151-7.513,6.275-8.572
				c3.305,5.103,4.823,21.111,11.583,21.836c6.104,0.757,12.595-6.367,14.016-11.383c2.357-8.528,1.098-35.412-5.748-57.193"/>
			<path style="fill:none;stroke:#231F20;stroke-width:15.102;" d="M644.872,447.77c-2.368-14.42-5.543-25.9-7.879-33.208"/>
			<path style="fill:none;stroke:#231F20;stroke-width:15.102;" d="M632.795,742.029c0,0,0.043-0.54,0.107-1.567
				c0.678-9.123,4.145-56.729,7.6-108.863"/>
			<path style="fill:none;stroke:#231F20;stroke-width:15.102;" d="M533.093,730.561l-0.076,0.638l-2.195,17.447
				c-0.108,1.902-0.237,3.675-0.377,5.318c-2.132,24.71-7.955,21.046-32.079,30.493c-11.151,4.324-1.389,1.416-16.384,10.01
				c-8.644,4.973-25.717,0.573-27.934-7.188c-2.627-9.371,2.433-18.16,11.292-23.219c0.129-0.075,0.247-0.141,0.377-0.216
				c13.692-7.805,31.486-15.912,32.638-24.917c0.032-0.291,0.054-0.583,0.054-0.875"/>
			<path style="fill:none;stroke:#231F20;stroke-width:15.102;" d="M596.798,730.301l3.067,20.636
				c0.248,4.313,0.57,7.913,0.99,10.961c2.595,18.528,9.344,16.193,31.422,24.852c11.174,4.346,1.422,1.405,16.406,9.999
				c8.633,4.973,25.727,0.616,27.912-7.178c2.627-9.372-2.422-18.16-11.26-23.229c-14.198-8.118-32.358-16.452-32.391-25.879"/>
			<line style="fill:none;stroke:#231F20;stroke-width:15.102;" x1="544.417" y1="631.631" x2="532.963" y2="731.188"/>
			<polyline style="fill:none;stroke:#231F20;stroke-width:15.102;" points="596.927,731.75 596.766,730.301 585.603,631.599 			"/>
			<polyline style="fill:none;stroke:#231F20;stroke-width:14.9739;" points="636.648,413.125 636.993,414.562 644.872,447.77 
				688.513,631.599 640.502,631.599 585.603,631.599 562.038,631.599 			"/>
			<polyline style="fill:none;stroke:#231F20;stroke-width:14.9739;" points="564.385,631.631 562.038,631.631 544.417,631.631 
				490.163,631.631 437.911,631.631 489.775,413.157 490.152,413.157 609.371,413.157 615.722,413.125 			"/>
			<polygon style="fill:none;stroke:#231F20;stroke-width:14.9739;" points="636.648,413.125 636.52,413.125 615.722,413.125 
				490.163,413.125 490.001,413.125 490.001,391.473 490.324,391.473 636.218,391.473 636.648,391.473 			"/>
			<polyline style="fill:none;stroke:#231F20;stroke-width:14.9739;" points="440.064,325.88 441.001,326.377 480.97,347.499 			"/>
			<line style="fill:none;stroke:#231F20;stroke-width:14.9739;" x1="648.898" y1="356.147" x2="687.651" y2="341.013"/>
			<path style="fill:none;stroke:#231F20;stroke-width:14.9739;" d="M519.723,224.269c2.143,15.09,47.128,88.25,81.542-10.031
				c0.086-0.259,0.184-0.519,0.27-0.778"/>
			<line style="fill:none;stroke:#231F20;stroke-width:14.9739;" x1="108.47" y1="452.028" x2="136.189" y2="459.044"/>
			<line style="fill:none;stroke:#231F20;stroke-width:14.9739;" x1="198.936" y1="749.618" x2="234.201" y2="749.985"/>
			<polyline style="fill:none;stroke:#231F20;stroke-width:14.9739;" points="302.277,758.266 303.655,757.92 336.724,749.618 			
				"/>
			<path style="fill:none;stroke:#231F20;stroke-width:7.551;" d="M465.34,764.06c0-0.194,0.118-0.26,0.377-0.216
				c2.788,0.551,21.335,13.868,64.728-9.88c0.011-0.012,0.032-0.012,0.043-0.022"/>
			<path style="fill:none;stroke:#231F20;stroke-width:7.551;" d="M599.381,760.428c0,0.324,0.517,0.832,1.475,1.47
				c8.72,5.859,53.544,22.506,64.48,4.443"/>
		</g>
	</g>
</g>
<rect style="fill:none;" width="850.394" height="850.394"/>
<rect style="fill:none;" width="850.394" height="850.394"/>
<g id="XMLID_17_">
	<g>
		<path style="fill:#ED1D31;" d="M487.009,89.967c0,10.645-4.375,20.426-11.438,31.448l-63.869,82.708l-65.148-83.194
			c-7.074-11.012-11.449-20.803-11.449-31.448c0-21.29,17.49-38.542,39.067-38.542c24.335,0,37.529,26.319,37.529,26.319
			c4.841-15.873,18.601-25.843,36.25-25.843C469.519,51.416,487.009,68.668,487.009,89.967z"/>
	</g>
	<g>
		<path style="fill:none;stroke:#231F20;stroke-width:20.8332;" d="M411.702,77.259c4.841-15.873,18.601-25.843,36.25-25.843
			c21.567,0,39.058,17.252,39.058,38.551c0,10.645-4.375,20.426-11.438,31.448l-63.869,82.708l-65.148-83.194
			c-7.074-11.012-11.449-20.803-11.449-31.448c0-21.29,17.49-38.542,39.067-38.542C398.507,50.94,411.702,77.259,411.702,77.259z"/>
	</g>
</g>
</svg>
