<?xml version="1.0" encoding="iso-8859-1"?>
<!-- Generator: Adobe Illustrator 12.0.1, SVG Export Plug-In . SVG Version: 6.00 Build 51448)  -->
<!DOCTYPE svg PUBLIC "-//W3C//DTD SVG 1.1//EN" "http://www.w3.org/Graphics/SVG/1.1/DTD/svg11.dtd" [
	<!ENTITY ns_svg "http://www.w3.org/2000/svg">
	<!ENTITY ns_xlink "http://www.w3.org/1999/xlink">
]>
<svg  version="1.1" id="Layer_1" xmlns="&ns_svg;" xmlns:xlink="&ns_xlink;" width="850.394" height="850.394"
	 viewBox="0 0 850.394 850.394" style="overflow:visible;enable-background:new 0 0 850.394 850.394;" xml:space="preserve">
<g>
	<g id="XMLID_9_">
		<g>
			<path style="fill:#7A7878;" d="M770.95,704.1c6.21,8.881,9.93,22.32,4,34.12c-11.26,22.45-44.67,20.94-54.11,9.7
				c-9.43-11.21-39.21-19.96-63.17-14.86c-23.979,5.15-60.8,1.921-60.8,1.921c-42.39-3.711-45.53-14.08-76.29-17.49l0.04-0.33
				l3.78-43.101L742.27,693.15C742.27,693.15,760.81,689.56,770.95,704.1z"/>
			<path style="fill:#C8C8C8;" d="M520.62,717.16l-0.04,0.33c-1.15-0.13-2.33-0.24-3.561-0.351c-34.1-2.97-26.72,53.45-26.72,53.45
				l-134.36-11.76c-34.11-3.01-139.63-20.59-197.02-36.561C98.88,705.55,72,672.13,72,672.13c14.65-8.979,38.55-20.149,38.55-20.149
				c38.14-12.051,83.53-6.86,83.53-6.86L524.4,674.06L520.62,717.16z"/>
			<path style="fill:#9E5C26;" d="M673.54,481.58c2.91,2.189,3.5,6.33,1.32,9.229L652.4,520.7c-2.19,2.91-6.33,3.49-9.24,1.31
				l-17.57-13.22c-2.91-2.19-3.5-6.32-1.31-9.24l22.45-29.87c2.189-2.91,6.329-3.5,9.239-1.31L673.54,481.58z"/>
			<path style="fill:#9E5C26;" d="M300.7,494.35c2.91,2.19,3.51,6.341,1.31,9.24l-22.45,29.891c-2.19,2.909-6.33,3.489-9.24,1.31
				l-17.57-13.21c-2.91-2.2-3.5-6.33-1.31-9.25l22.45-29.87c2.19-2.92,6.33-3.5,9.23-1.31L300.7,494.35z"/>
			<path style="fill:#9E5C26;" d="M344.86,336.92c2.92,2.18,3.51,6.32,1.32,9.23l-22.45,29.89c-2.19,2.9-6.33,3.49-9.24,1.31
				l-17.58-13.21c-2.91-2.19-3.5-6.33-1.31-9.24l22.46-29.88c2.18-2.91,6.32-3.5,9.23-1.31L344.86,336.92z"/>
			<path style="fill:#9E5C26;" d="M486.24,442.37c2.85,2.27,3.319,6.42,1.06,9.27l-13.72,17.19c-2.271,2.84-6.42,3.31-9.271,1.04
				l-29.21-23.3c-2.85-2.271-3.33-6.42-1.05-9.28l13.7-17.18c2.27-2.85,6.41-3.32,9.26-1.04L486.24,442.37z"/>
			<path style="fill:#9E5C26;" d="M601.34,345.82c2.851,2.27,3.32,6.43,1.061,9.27l-13.721,17.19c-2.27,2.84-6.42,3.32-9.27,1.04
				l-29.22-23.3c-2.841-2.27-3.32-6.42-1.051-9.27l13.721-17.19c2.26-2.84,6.399-3.31,9.25-1.04L601.34,345.82z"/>
			<path style="fill:#EE947D;" d="M239.63,273.02c11.97-15.87,30.19-17.33,30.19-17.33l382.93-0.15c0,0,15.63,1.25,27.44,14.04
				l0.01,0.02c4.7,5.08,8.78,11.98,11.05,21.34c7.97,32.97,53.18,253.94,53.18,253.94s11.95,43.95-51.77,43.95s-257.63,0-257.63,0
				v0.15c-55.56,0-159.55,0-205.12,0c-63.72,0-51.78-43.95-51.78-43.95s45.23-220.97,53.19-253.93
				C233.13,283.61,236.11,277.69,239.63,273.02z M674.86,490.81c2.18-2.899,1.59-7.04-1.32-9.229l-17.57-13.21
				c-2.91-2.19-7.05-1.601-9.239,1.31l-22.45,29.87c-2.19,2.92-1.601,7.05,1.31,9.24l17.57,13.22c2.91,2.181,7.05,1.601,9.24-1.31
				L674.86,490.81z M602.4,355.09c2.26-2.84,1.79-7-1.061-9.27l-29.229-23.3c-2.851-2.27-6.99-1.8-9.25,1.04l-13.721,17.19
				c-2.27,2.85-1.79,7,1.051,9.27l29.22,23.3c2.85,2.28,7,1.8,9.27-1.04L602.4,355.09z M487.3,451.64c2.26-2.85,1.79-7-1.06-9.27
				l-29.23-23.3c-2.85-2.28-6.99-1.81-9.26,1.04l-13.7,17.18c-2.28,2.86-1.8,7.01,1.05,9.28l29.21,23.3c2.851,2.27,7,1.8,9.271-1.04
				L487.3,451.64z M346.18,346.15c2.19-2.91,1.6-7.05-1.32-9.23l-17.57-13.21c-2.91-2.19-7.05-1.6-9.23,1.31L295.6,354.9
				c-2.19,2.91-1.6,7.05,1.31,9.24l17.58,13.21c2.91,2.18,7.05,1.59,9.24-1.31L346.18,346.15z M302.01,503.59
				c2.2-2.899,1.6-7.05-1.31-9.24l-17.58-13.199c-2.9-2.19-7.04-1.61-9.23,1.31l-22.45,29.87c-2.19,2.92-1.6,7.05,1.31,9.25
				l17.57,13.21c2.91,2.18,7.05,1.6,9.24-1.31L302.01,503.59z"/>
			<path style="fill:#EE947D;" d="M587.46,91.91l92.73,177.67c-11.811-12.79-27.44-14.04-27.44-14.04l-382.93,0.15
				c0,0-18.22,1.46-30.19,17.33l92.59-181.17c0,0,10.22-13.61,35.51-16.79c27.72-3.49,156.51-3.42,184.21,0.06
				C577.23,78.3,587.46,91.91,587.46,91.91z"/>
		</g>
		<g>
			<path style="fill:none;stroke:#231F20;stroke-width:21;" d="M680.19,269.58c-11.811-12.79-27.44-14.04-27.44-14.04l-382.93,0.15
				c0,0-18.22,1.46-30.19,17.33c-3.52,4.67-6.5,10.59-8.31,18.08c-7.96,32.96-53.19,253.93-53.19,253.93s-11.94,43.95,51.78,43.95
				c45.57,0,149.56,0,205.12,0c22.13,0,36.58,0,36.58,0"/>
			<path style="fill:none;stroke:#231F20;stroke-width:21;" d="M435.03,588.83c0,0,193.91,0,257.63,0s51.77-43.95,51.77-43.95
				s-45.21-220.97-53.18-253.94c-2.27-9.36-6.35-16.26-11.05-21.34"/>
			<path style="fill:none;stroke:#231F20;stroke-width:21;" d="M680.2,269.6l-0.01-0.02L587.46,91.91c0,0-10.229-13.61-35.52-16.79
				c-27.7-3.48-156.49-3.55-184.21-0.06c-25.29,3.18-35.51,16.79-35.51,16.79l-92.59,181.17l-0.15,0.3"/>
			<path style="fill:none;stroke:#231F20;stroke-width:14;" d="M344.86,336.92c2.92,2.18,3.51,6.32,1.32,9.23l-22.45,29.89
				c-2.19,2.9-6.33,3.49-9.24,1.31l-17.58-13.21c-2.91-2.19-3.5-6.33-1.31-9.24l22.46-29.88c2.18-2.91,6.32-3.5,9.23-1.31
				L344.86,336.92z"/>
			<path style="fill:none;stroke:#231F20;stroke-width:14;" d="M300.7,494.35c2.91,2.19,3.51,6.341,1.31,9.24l-22.45,29.891
				c-2.19,2.909-6.33,3.489-9.24,1.31l-17.57-13.21c-2.91-2.2-3.5-6.33-1.31-9.25l22.45-29.87c2.19-2.92,6.33-3.5,9.23-1.31
				L300.7,494.35z"/>
			<path style="fill:none;stroke:#231F20;stroke-width:14;" d="M673.54,481.58c2.91,2.189,3.5,6.33,1.32,9.229L652.4,520.7
				c-2.19,2.91-6.33,3.49-9.24,1.31l-17.57-13.22c-2.91-2.19-3.5-6.32-1.31-9.24l22.45-29.87c2.189-2.91,6.329-3.5,9.239-1.31
				L673.54,481.58z"/>
			<path style="fill:none;stroke:#231F20;stroke-width:14;" d="M473.58,468.83c-2.271,2.84-6.42,3.31-9.271,1.04l-29.21-23.3
				c-2.85-2.271-3.33-6.42-1.05-9.28l13.7-17.18c2.27-2.85,6.41-3.32,9.26-1.04l29.23,23.3c2.85,2.27,3.319,6.42,1.06,9.27
				L473.58,468.83z"/>
			<path style="fill:none;stroke:#231F20;stroke-width:14;" d="M588.68,372.28c-2.27,2.84-6.42,3.32-9.27,1.04l-29.22-23.3
				c-2.841-2.27-3.32-6.42-1.051-9.27l13.721-17.19c2.26-2.84,6.399-3.31,9.25-1.04l29.229,23.3c2.851,2.27,3.32,6.43,1.061,9.27
				L588.68,372.28z"/>
			<path style="fill:none;stroke:#231F20;stroke-width:21;" d="M520.58,717.49c30.76,3.41,33.9,13.779,76.29,17.49
				c0,0,36.82,3.229,60.8-1.921c23.96-5.1,53.74,3.65,63.17,14.86c9.44,11.24,42.851,12.75,54.11-9.7c5.93-11.8,2.21-25.239-4-34.12
				c-10.141-14.54-28.681-10.949-28.681-10.949L524.4,674.06L194.08,645.12c0,0-45.39-5.19-83.53,6.86c0,0-23.9,11.17-38.55,20.149
				c0,0,26.88,33.42,86.92,50.14c57.39,15.971,162.91,33.551,197.02,36.561l134.36,11.76c0,0-7.38-56.42,26.72-53.45
				C518.25,717.25,519.43,717.36,520.58,717.49z"/>
			<polyline style="fill:none;stroke:#231F20;stroke-width:21;" points="520.62,717.16 524.4,674.06 524.54,672.49 			"/>
		</g>
	</g>
</g>
<rect style="fill:none;" width="850.394" height="850.394"/>
</svg>
