<?xml version="1.0" encoding="iso-8859-1"?>
<!-- Generator: Adobe Illustrator 12.0.1, SVG Export Plug-In . SVG Version: 6.00 Build 51448)  -->
<!DOCTYPE svg PUBLIC "-//W3C//DTD SVG 1.1//EN" "http://www.w3.org/Graphics/SVG/1.1/DTD/svg11.dtd" [
	<!ENTITY ns_svg "http://www.w3.org/2000/svg">
	<!ENTITY ns_xlink "http://www.w3.org/1999/xlink">
]>
<svg  version="1.1" id="Layer_1" xmlns="&ns_svg;" xmlns:xlink="&ns_xlink;" width="850.394" height="850.394"
	 viewBox="0 0 850.394 850.394" style="overflow:visible;enable-background:new 0 0 850.394 850.394;" xml:space="preserve">
<g>
	<g id="XMLID_11_">
		<g>
			<path style="fill:#A3D9FF;" d="M670.63,369.03c-17.95,15.5-30.52,27.86-40.74,50.35c-3.46,7.59-3.5,11.9-11.63,13.75
				c-9.97,2.271-21.92-3.8-30.76-6.43c-15.48-4.62-38.63-15.96-38.19-32.56c0.021-0.97,0.131-1.96,0.32-2.97
				c3.57-18.66,14.49-32.32,24.24-54.92c-11.83,3.28-23.38,9.21-37.95,18.03c-3.939,2.39-10.77,9.4-15.979,8.66
				c-1.341-0.19-2.61-0.68-3.881-1.34c-4.55-2.35-9.199-6.96-17.569-8.64c12.76-20.17,27.81-36.19,62.5-50.36
				c37.939-15.5,59.25-15.42,88.939-2.5l0.49-0.33c5.68,8.55,14.24,14,23.83,14c2.28,0,4.5-0.31,6.64-0.9l0.061,0.23
				c13.649-1.35,26.569,27.16,31.22,36.96c4.6,9.67,5.45,15.27,15.57,12.47c-1.34,7.23,6.84,17.17,14.74,18.03
				c-0.12,0.2-0.24,0.4-0.351,0.6c-8.14,13.9-14.689,26.87-31.479,18.76C693.61,391.69,695.45,369.27,670.63,369.03z"/>
			<path style="fill:#787878;" d="M648.94,598.9c-4.25-26.49-3.4-43.07-9.03-63.49c-3.33-12.08-10.26-20.53-20.58-26.601
				c-12.98-7.649-15.07-8.569-27.37-17.64c-1.13-0.83-2.29-1.67-3.49-2.53c-14.71-10.56-34.29-23.319-45.649-38.239
				c-2.521-3.301-4.63-6.7-6.2-10.21c-7.89-17.641,2.939-30.97,12.689-46.05c-0.439,16.6,22.71,27.94,38.19,32.56
				c8.84,2.63,20.79,8.7,30.76,6.43c10.24,18.89,30.931,35.36,45.12,50.79c13.43,14.6,17.39,23.54,20.061,47.44
				c1.71,15.199,8.189,51.64,11.63,61.689c0.51,1.51-5.351,3.26-13.11,4.63c-7.43,1.32-16.6,2.28-23.54,2.34
				C654.04,600.05,650.54,599.73,648.94,598.9z"/>
			<path style="fill:#787878;" d="M588.47,488.64l-2.54,2.5c-7.89,15.23-16.739,32.561-25.97,46.82c-10.57,16.3-24.87,4-38.97-3.03
				c-41.98-20.89-24.181-11.22-52.09-23.59c-4.311-1.91-4.53-5.45-2.98-9.729c2.39-6.591,8.97-14.94,11.29-21.811
				c7.57-0.3,41.24,15.36,49.61,16.34c1.8-11.38,11.8-34.46,16-45.739C554.18,465.32,573.76,478.08,588.47,488.64z"/>
			<polygon style="fill:#9C5B16;" points="196.58,668.2 196.58,740.22 99.77,740.22 99.77,668.2 99.77,667.95 196.58,667.95 			"/>
			<polygon style="fill:#9C5B16;" points="191.14,638.35 208.32,667.95 196.58,667.95 99.77,667.95 84.03,667.95 100.1,641.15 
				102.58,637.01 111.62,637.01 179.63,637.01 190.36,637.01 			"/>
			<polygon style="fill:#9C5B16;" points="350.14,638.34 367.32,667.95 355.58,667.95 258.76,667.95 243.03,667.95 259.1,641.15 
				261.58,637.01 270.63,637.01 338.63,637.01 349.37,637.01 			"/>
			<polygon style="fill:#9C5B16;" points="355.58,668.2 355.58,740.22 258.76,740.22 258.76,668.2 258.76,667.95 355.58,667.95 			
				"/>
			<path style="fill:#0B00EA;" d="M350.14,615.43c0,14.351,0,20.38,0,22.91l-0.77-1.33h-10.74v-38c0-9.14-7.42-16.93-17.83-19.899
				l0.27-0.891C321.07,578.22,350.14,578.92,350.14,615.43z"/>
			<path style="fill:#0B00EA;" d="M288.11,579.21c3.02-0.91,6.3-1.4,9.73-1.4h13.58c3.3,0,6.46,0.46,9.38,1.301
				c10.41,2.97,17.83,10.76,17.83,19.899v38h-68v-38C270.63,589.97,277.89,582.25,288.11,579.21z"/>
			<path style="fill:#0B00EA;" d="M288.11,579.21c-10.22,3.04-17.48,10.76-17.48,19.8v38h-9.05l-2.48,4.141c0,0,0,0,0-24.74
				C259.1,580.95,286.53,579.28,288.11,579.21z"/>
			<path style="fill:#0B00EA;" d="M191.14,615.43c0,14.37,0,20.391,0,22.92l-0.78-1.34h-10.73v-38c0-9.14-7.42-16.93-17.83-19.899
				l0.27-0.891C162.07,578.22,191.14,578.92,191.14,615.43z"/>
			<path style="fill:#0B00EA;" d="M129.11,579.21c-10.23,3.04-17.49,10.76-17.49,19.8v38h-9.04l-2.48,4.141c0,0,0,0,0-24.74
				C100.1,580.88,127.63,579.27,129.11,579.21z"/>
			<path style="fill:#0B00EA;" d="M129.11,579.21c3.02-0.91,6.3-1.4,9.73-1.4h13.58c3.3,0,6.46,0.46,9.38,1.301
				c10.41,2.97,17.83,10.76,17.83,19.899v38h-68.01v-38C111.62,589.97,118.88,582.25,129.11,579.21z"/>
			<path style="fill:#FFEEC8;" d="M658.42,600.24v-0.221c6.94-0.06,16.11-1.02,23.54-2.34c0.98,19.2,21.25,23.38,30.16,23.99
				c18.76,1.311,3.84,11.7-8.96,14.13c-6.84,1.29-9.83-0.34-16.71,1.32c-4.03,0.97-10.79,5.07-15.54,3.78
				C659.33,637.8,666.58,611.42,658.42,600.24z"/>
			<path style="fill:#FFEEC8;" d="M145.06,516.8c13.4,0,24.28,13.17,24.28,29.431c0,16.26-10.88,29.449-24.28,29.449
				s-24.27-13.189-24.27-29.449C120.79,529.97,131.66,516.8,145.06,516.8z"/>
			<path style="fill:#FFEEC8;" d="M304.06,516.8c13.41,0,24.28,13.17,24.28,29.431c0,16.26-10.87,29.449-24.28,29.449
				c-13.4,0-24.27-13.189-24.27-29.449C279.79,529.97,290.66,516.8,304.06,516.8z"/>
			<path style="fill:#FFEEC8;" d="M477.21,479.8c-2.32,6.87-8.9,15.22-11.29,21.811l-1.02-0.46
				c-12.08-12.221-22.7,7.92-28.721,15.22c-11.97,14.52-11.76-3.68-6.29-15.49c2.94-6.33,5.98-7.8,8.63-14.35
				c1.561-3.86,1.771-12.28,5.95-14.87C452.72,466.59,463.87,479.8,477.21,479.8z"/>
			<path style="fill:#FFEEC8;" d="M504.97,391.04c0.67-0.9,1.431-1.85,2.28-2.84c2.38-2.76,5.09-5.16,6.78-7.54l0.569,0.4
				c-3.279,4.67-4.489,10.29-3.399,15.96C507.96,398.63,505.55,394.11,504.97,391.04z"/>
			<path style="fill:#FFEEC8;" d="M485.72,394.25c-1.14-0.7-1.41-1.72-1.43-2.44c-0.79-1.33-1.86-3.97-1.87-5.49
				c-0.11-7.49,4.85-22.23,5.21-22.92c1.7-3.24,8.04-7.91,10.86-10.44c8.37,1.68,13.02,6.29,17.569,8.64
				c-0.67,7.74,0.41,11.3-0.489,15.8c-0.221,1.1-0.771,2.18-1.54,3.26c-1.69,2.38-4.4,4.78-6.78,7.54
				c-0.85,0.99-1.61,1.94-2.28,2.84c-3.729,5.01-4.88,8.58-6.02,9.37c-1.19,0.84-2.79,0.28-3.101-0.99l-0.26,0.07
				c-1.1,0.13-3.21-0.25-4.53-1.28c-1.04-0.8-0.96-2.24-0.88-2.84C489.27,396.54,487.38,395.26,485.72,394.25z"/>
			<path style="fill:#FFEEC8;" d="M767.29,356.02c2.3-0.03,4.2,3.03,3.54,4.98c-0.4,1.22-1.45,2.96-2.41,4.42
				c-0.01,0.01-0.01,0.01-0.02,0.02c-1.301,1.32-5.7,4.34-8.561,2.54c-1.81-1.13-2.479-3.05-1.6-5.11c1.34-1.01,2.72-2.58,4.76-4.33
				c0.01-0.01,0.01-0.01,0.02-0.01c1.801-1.35,2.32-2.18,3.48-2.43C766.73,356.05,766.99,356.02,767.29,356.02z"/>
			<path style="fill:#FFEEC8;" d="M758.24,362.87c-1.62,1.23-3.17,1.65-5.73,0.6c-3.06-1.25-2.27-3.75-0.76-5.29
				c0.24-0.24,0.5-0.46,0.76-0.65c2.36-1.7,4.24-4.57,6.87-5.84c0.46-0.22,0.76-0.47,0.93-0.74c0.671-0.3,2.131-0.76,3.28,0.06
				c1.57,1.12,2.69,3.29,2.88,4.55l0.03,0.54c-1.16,0.25-1.68,1.08-3.48,2.43c-0.01,0-0.01,0-0.02,0.01
				C760.96,360.29,759.58,361.86,758.24,362.87z"/>
			<path style="fill:#FFEEC8;" d="M749.4,348.46c1.569-1.22,3.22-2.1,4.13-2.49l0.01,0.02c0.43-0.23,2.28-1.07,3.99,0.47
				c1.6,1.44,3.63,3.2,2.779,4.49c-0.17,0.27-0.47,0.52-0.93,0.74c-2.63,1.27-4.51,4.14-6.87,5.84c-0.26,0.19-0.52,0.41-0.76,0.65
				c-0.99,0.7-4.25,1.92-5.93-1.99c-0.58-1.35-0.42-2.65,0.16-3.86c0.38-0.14,0.76-0.33,1.109-0.59
				C748.18,350.93,748.93,349.8,749.4,348.46z"/>
			<path style="fill:#FFEEC8;" d="M752.51,363.47c2.561,1.05,4.11,0.63,5.73-0.6c-0.88,2.06-0.21,3.98,1.6,5.11
				c2.86,1.8,7.26-1.22,8.561-2.54c-0.44,0.67-0.86,1.27-1.2,1.74c-2.32,3.24-5.11,6.78-8.76,8.7c-3.86,2.04-6.721,2.4-16.311,5.28
				c0.11-0.2,0.23-0.4,0.351-0.6c-7.9-0.86-16.08-10.8-14.74-18.03c0.08-0.47,0.21-0.93,0.38-1.37l0.14,0.05
				c2.311-4.31,2.45-8.18,5.721-11.37c0.42-0.41,2.239-2.08,5.859-3.84c0.01,0,0.01-0.01,0.021-0.02c1.409-0.68,3.1-1.38,5.09-2.03
				c2.56-0.57,5.02-0.55,5.02,0.75c0,1.37-0.18,2.64-0.569,3.76c-1.391,1.06-2.721,2.39-3.42,3.87c-0.58,1.21-0.74,2.51-0.16,3.86
				c1.68,3.91,4.939,2.69,5.93,1.99C750.24,359.72,749.45,362.22,752.51,363.47z"/>
			<path style="fill:#FFEEC8;" d="M674.25,236.43c17.08,0,30.93,17.31,30.93,38.67c0,18.51-10.399,33.97-24.29,37.77
				c-2.14,0.59-4.359,0.9-6.64,0.9c-9.59,0-18.15-5.45-23.83-14c-4.439-6.69-7.11-15.29-7.11-24.67
				C643.31,253.74,657.16,236.43,674.25,236.43z"/>
			<path style="fill:#00E800;" d="M374.81,304.13c37.47,4.84,66.36,35.5,66.36,72.59c0,31.61-20.96,58.54-50.33,68.82l-0.18-0.49
				c-32.35-18.7-54.94-74.56-39.81-109.86c8.57-1.17,16.97-4.38,22.85-9.01c5.16-4.06,12.41-19.75,1.11-22.03V304.13z"/>
			<path style="fill:#FF001C;" d="M390.66,445.05l0.18,0.49c-8.24,2.89-17.14,4.46-26.42,4.46c-42.38,0-76.74-32.8-76.74-73.28
				c0-23.29,11.39-44.04,29.14-57.46c3.52,13.78,19.04,17.97,34.03,15.93C335.72,370.49,358.31,426.35,390.66,445.05z"/>
			<path style="fill:#FFF400;" d="M350.85,335.19c-14.99,2.04-30.51-2.15-34.03-15.93c13.08-9.9,29.62-15.8,47.6-15.8
				c3.52,0,6.99,0.23,10.39,0.67v0.02c11.3,2.28,4.05,17.97-1.11,22.03C367.82,330.81,359.42,334.02,350.85,335.19z"/>
			<path style="fill:#9C5B16;" d="M532.52,177.03l19.7,93.57H435.34c0,0,2.97-38.62-35.65-38.62h-0.39
				c-38.63,0-35.66,38.62-35.66,38.62H242.81l19.85-94.33l3.6,0.76H532.52z"/>
			<polygon style="fill:#9C5B16;" points="522.64,130.1 532.52,177.03 266.26,177.03 262.66,176.27 272.38,130.1 273.19,130.27 
				521.83,130.27 			"/>
			<polygon style="fill:#F6CC4B;" points="516.56,101.23 522.64,130.1 521.83,130.27 273.19,130.27 272.38,130.1 278.46,101.23 
				316.81,101.23 317.48,101.23 			"/>
		</g>
		<g>
			<path style="fill:none;stroke:#231F20;stroke-width:14;" d="M169.34,546.23c0,16.26-10.88,29.449-24.28,29.449
				s-24.27-13.189-24.27-29.449c0-16.261,10.87-29.431,24.27-29.431S169.34,529.97,169.34,546.23z"/>
			<path style="fill:none;stroke:#231F20;stroke-width:14;" d="M179.63,637.01v-38c0-9.14-7.42-16.93-17.83-19.899
				c-2.92-0.841-6.08-1.301-9.38-1.301h-13.58c-3.43,0-6.71,0.49-9.73,1.4c-10.23,3.04-17.49,10.76-17.49,19.8v38"/>
			<polygon style="fill:none;stroke:#231F20;stroke-width:21;" points="179.63,637.01 190.36,637.01 191.14,638.35 208.32,667.95 
				196.58,667.95 99.77,667.95 84.03,667.95 100.1,641.15 102.58,637.01 111.62,637.01 			"/>
			<polyline style="fill:none;stroke:#231F20;stroke-width:21;" points="99.77,668.2 99.77,740.22 196.58,740.22 196.58,668.2 			
				"/>
			<path style="fill:none;stroke:#231F20;stroke-width:14;" d="M129.17,579.21c0,0-0.02,0-0.06,0c-1.48,0.06-29.01,1.67-29.01,37.2
				c0,24.74,0,24.74,0,24.74"/>
			<path style="fill:none;stroke:#231F20;stroke-width:14;" d="M162.07,578.22c0,0,29.07,0.7,29.07,37.21c0,14.37,0,20.391,0,22.92
				c0,1.82,0,1.82,0,1.82"/>
			<path style="fill:none;stroke:#231F20;stroke-width:14;" d="M328.34,546.23c0,16.26-10.87,29.449-24.28,29.449
				c-13.4,0-24.27-13.189-24.27-29.449c0-16.261,10.87-29.431,24.27-29.431C317.47,516.8,328.34,529.97,328.34,546.23z"/>
			<path style="fill:none;stroke:#231F20;stroke-width:14;" d="M338.63,637.01v-38c0-9.14-7.42-16.93-17.83-19.899
				c-2.92-0.841-6.08-1.301-9.38-1.301h-13.58c-3.43,0-6.71,0.49-9.73,1.4c-10.22,3.04-17.48,10.76-17.48,19.8v38"/>
			<polygon style="fill:none;stroke:#231F20;stroke-width:21;" points="338.63,637.01 349.37,637.01 350.14,638.34 367.32,667.95 
				355.58,667.95 258.76,667.95 243.03,667.95 259.1,641.15 261.58,637.01 270.63,637.01 			"/>
			<polyline style="fill:none;stroke:#231F20;stroke-width:21;" points="258.76,668.2 258.76,740.22 355.58,740.22 355.58,668.2 			
				"/>
			<path style="fill:none;stroke:#231F20;stroke-width:14;" d="M288.18,579.21c0,0-0.02,0-0.07,0c-1.58,0.07-29.01,1.74-29.01,37.2
				c0,24.74,0,24.74,0,24.74"/>
			<path style="fill:none;stroke:#231F20;stroke-width:14;" d="M321.07,578.22c0,0,29.07,0.7,29.07,37.21c0,14.351,0,20.38,0,22.91
				c0,1.83,0,1.83,0,1.83"/>
			<path style="fill:none;stroke:#231F20;stroke-width:14;" d="M680.89,312.87c13.891-3.8,24.29-19.26,24.29-37.77
				c0-21.36-13.85-38.67-30.93-38.67c-17.09,0-30.94,17.31-30.94,38.67c0,9.38,2.671,17.98,7.11,24.67c5.68,8.55,14.24,14,23.83,14
				C676.53,313.77,678.75,313.46,680.89,312.87z"/>
			<path style="fill:none;stroke:#231F20;stroke-width:14;" d="M680.95,313.1c13.649-1.35,26.569,27.16,31.22,36.96
				c4.6,9.67,5.45,15.27,15.57,12.47c0.58-0.16,1.189-0.34,1.83-0.56"/>
			<path style="fill:none;stroke:#231F20;stroke-width:14;" d="M743.21,379.32c-0.25,0.41-0.49,0.83-0.729,1.24
				c-0.12,0.2-0.24,0.4-0.351,0.6c-8.14,13.9-14.689,26.87-31.479,18.76c-17.04-8.23-15.2-30.65-40.021-30.89
				c-0.25-0.01-0.52-0.01-0.78-0.01c-0.01,0-0.01,0-0.02,0"/>
			<path style="fill:none;stroke:#231F20;stroke-width:14;" d="M673.44,366.61c-0.95,0.82-1.891,1.62-2.811,2.42
				c-17.95,15.5-30.52,27.86-40.74,50.35c-3.46,7.59-3.5,11.9-11.63,13.75c-9.97,2.271-21.92-3.8-30.76-6.43
				c-15.48-4.62-38.63-15.96-38.19-32.56c0.021-0.97,0.131-1.96,0.32-2.97c3.57-18.66,14.49-32.32,24.24-54.92
				c0.02-0.05,0.04-0.09,0.06-0.14"/>
			<path style="fill:none;stroke:#231F20;stroke-width:14;" d="M649.93,300.1c-29.689-12.92-51-13-88.939,2.5
				c-34.69,14.17-49.74,30.19-62.5,50.36c8.37,1.68,13.02,6.29,17.569,8.64c1.271,0.66,2.54,1.15,3.881,1.34
				c5.21,0.74,12.04-6.27,15.979-8.66c14.57-8.82,26.12-14.75,37.95-18.03c7.61-2.12,15.33-3.14,24.06-3.14"/>
			<path style="fill:none;stroke:#231F20;stroke-width:14;" d="M618.26,433.13c10.24,18.89,30.931,35.36,45.12,50.79
				c13.43,14.6,17.39,23.54,20.061,47.44c1.71,15.199,8.189,51.64,11.63,61.689c0.51,1.51-5.351,3.26-13.11,4.63
				c-7.43,1.32-16.6,2.28-23.54,2.34c-4.38,0.03-7.88-0.289-9.479-1.119c-4.25-26.49-3.4-43.07-9.03-63.49
				c-3.33-12.08-10.26-20.53-20.58-26.601c-12.98-7.649-15.07-8.569-27.37-17.64c-1.13-0.83-2.29-1.67-3.49-2.53
				c-14.71-10.56-34.29-23.319-45.649-38.239c-2.521-3.301-4.63-6.7-6.2-10.21c-7.89-17.641,2.939-30.97,12.689-46.05
				c0.011,0,0.011-0.01,0.011-0.01"/>
			<path style="fill:none;stroke:#231F20;stroke-width:14;" d="M585.93,491.14c-7.89,15.23-16.739,32.561-25.97,46.82
				c-10.57,16.3-24.87,4-38.97-3.03c-41.98-20.89-24.181-11.22-52.09-23.59c-4.311-1.91-4.53-5.45-2.98-9.729
				c2.39-6.591,8.97-14.94,11.29-21.811c7.57-0.3,41.24,15.36,49.61,16.34c1.8-11.38,11.8-34.46,16-45.739
				c0.029-0.091,0.069-0.181,0.1-0.271"/>
			<path style="fill:none;stroke:#231F20;stroke-width:7;" d="M477.21,479.8c-13.34,0-24.49-13.21-32.74-8.14
				c-4.18,2.59-4.39,11.01-5.95,14.87c-2.649,6.55-5.689,8.02-8.63,14.35c-5.47,11.811-5.68,30.01,6.29,15.49
				c6.021-7.3,16.641-27.44,28.721-15.22"/>
			<path style="fill:none;stroke:#231F20;stroke-width:7;" d="M658.42,600.24c8.16,11.18,0.91,37.56,12.49,40.66
				c4.75,1.29,11.51-2.811,15.54-3.78c6.88-1.66,9.87-0.03,16.71-1.32c12.8-2.43,27.72-12.819,8.96-14.13
				c-8.91-0.61-29.18-4.79-30.16-23.99c-0.06-1.17-0.05-2.39,0.04-3.68"/>
			<path style="fill:none;stroke:#231F20;stroke-width:14;" d="M685.96,336.11c-2.94,8.13-9.33,25.03-16.11,32.91
				c-1.13,1.31-2.27,2.37-3.399,3.1"/>
			<path style="fill:none;stroke:#231F20;stroke-width:7;" d="M739.86,345.98c1.409-0.68,3.1-1.38,5.09-2.03
				c0.51-0.17,1.05-0.33,1.6-0.49c2.63-0.74,8.32,1.92,6.98,2.51c-0.91,0.39-2.561,1.27-4.13,2.49c-1.391,1.06-2.721,2.39-3.42,3.87
				c-0.58,1.21-0.74,2.51-0.16,3.86c1.68,3.91,4.939,2.69,5.93,1.99c0.04-0.03,0.08-0.05,0.11-0.08"/>
			<path style="fill:none;stroke:#231F20;stroke-width:7;" d="M728.26,361.21c2.311-4.31,2.45-8.18,5.721-11.37
				c0.42-0.41,2.239-2.08,5.859-3.84"/>
			<path style="fill:none;stroke:#231F20;stroke-width:6.3473;" d="M753.45,346.04c0,0,0.03-0.02,0.09-0.05
				c0.43-0.23,2.28-1.07,3.99,0.47c1.6,1.44,3.63,3.2,2.779,4.49c-0.17,0.27-0.47,0.52-0.93,0.74c-2.63,1.27-4.51,4.14-6.87,5.84
				c-0.26,0.19-0.52,0.41-0.76,0.65c-1.51,1.54-2.3,4.04,0.76,5.29c2.561,1.05,4.11,0.63,5.73-0.6c1.34-1.01,2.72-2.58,4.76-4.33"/>
			<path style="fill:none;stroke:#231F20;stroke-width:7;" d="M759.93,351.13c0,0,0.141-0.08,0.38-0.18
				c0.671-0.3,2.131-0.76,3.28,0.06c1.57,1.12,2.69,3.29,2.88,4.55"/>
			<path style="fill:none;stroke:#231F20;stroke-width:7;" d="M768.42,365.42c0.96-1.46,2.01-3.2,2.41-4.42
				c0.66-1.95-1.24-5.01-3.54-4.98c-0.3,0-0.56,0.03-0.79,0.08c-1.16,0.25-1.68,1.08-3.48,2.43c-0.01,0-0.01,0-0.02,0.01
				c-0.73,0.54-1.66,1.16-2.92,1.86"/>
			<path style="fill:none;stroke:#231F20;stroke-width:7;" d="M736.71,382.84c2.021-0.64,3.81-1.2,5.42-1.68
				c9.59-2.88,12.45-3.24,16.311-5.28c3.649-1.92,6.439-5.46,8.76-8.7c0.34-0.47,0.76-1.07,1.2-1.74"/>
			<path style="fill:none;stroke:#231F20;stroke-width:7;" d="M760.83,359.72c-1.3,1.03-2.14,2.11-2.59,3.15
				c-0.88,2.06-0.21,3.98,1.6,5.11c2.86,1.8,7.26-1.22,8.561-2.54c0.01-0.01,0.01-0.01,0.02-0.02"/>
			<path style="fill:none;stroke:#231F20;stroke-width:7;stroke-miterlimit:10;" d="M498.49,352.96c-2.82,2.53-9.16,7.2-10.86,10.44
				c-0.36,0.69-5.32,15.43-5.21,22.92c0.01,1.52,1.08,4.16,1.87,5.49c0.44,0.73,0.79,1.06,0.85,0.61c0.181-1.42-0.199-1.77,1.7-9.37
				c0.58-2.29,4.41-8.72,4.41-8.72"/>
			<path style="fill:none;stroke:#231F20;stroke-width:7;stroke-miterlimit:10;" d="M484.37,390.94c0,0-0.101,0.36-0.08,0.87
				c0.02,0.72,0.29,1.74,1.43,2.44c1.66,1.01,3.55,2.29,4.46,1.12c0.16-0.21,0.29-0.49,0.38-0.86c0.721-2.84,0.74-4.6,3.471-9.97
				c1.7-3.36,4.31-8.68,4.31-8.68"/>
			<path style="fill:none;stroke:#231F20;stroke-width:6.3473;stroke-miterlimit:10;" d="M490.23,395.1c0,0-0.021,0.1-0.051,0.27
				c-0.08,0.6-0.16,2.04,0.88,2.84c1.32,1.03,3.431,1.41,4.53,1.28"/>
			<path style="fill:none;stroke:#231F20;stroke-width:7;stroke-miterlimit:10;" d="M516.2,360.15c-0.05,0.5-0.101,0.99-0.141,1.45
				c-0.67,7.74,0.41,11.3-0.489,15.8c-0.221,1.1-0.771,2.18-1.54,3.26c-1.69,2.38-4.4,4.78-6.78,7.54
				c-0.85,0.99-1.61,1.94-2.28,2.84c-3.729,5.01-4.88,8.58-6.02,9.37c-1.19,0.84-2.79,0.28-3.101-0.99
				c-0.08-0.3-0.08-0.65,0.021-1.03c0.56-2.29-0.08-2.66,3.36-9.27c1.079-2.1,1.85-5.09,7.289-11.58"/>
			<path style="fill:none;stroke:#231F20;stroke-width:6.3473;stroke-miterlimit:10;" d="M743.45,380.62
				c-0.32,0-0.65-0.02-0.97-0.06c-7.9-0.86-16.08-10.8-14.74-18.03c0.08-0.47,0.21-0.93,0.38-1.37c0.1-0.25,0.21-0.5,0.33-0.74"/>
			<path style="fill:none;stroke:#231F20;stroke-width:7;" d="M514.91,380.62c-0.11,0.15-0.21,0.29-0.311,0.44
				c-3.279,4.67-4.489,10.29-3.399,15.96c-3.24,1.61-5.65-2.91-6.23-5.98c-0.029-0.14-0.05-0.28-0.069-0.42"/>
			<path style="fill:none;stroke:#231F20;stroke-width:7;" d="M739.84,346c0.01,0,0.01-0.01,0.021-0.02
				c0.979-0.79,3.06-1.59,5.09-2.03c2.56-0.57,5.02-0.55,5.02,0.75c0,1.37-0.18,2.64-0.569,3.76c-0.471,1.34-1.221,2.47-2.311,3.28
				c-0.35,0.26-0.729,0.45-1.109,0.59c-2.561,0.91-5.61-0.55-5.61,1.88c0,8.41-2.39,9.87-4.91,12.4"/>
			<path style="fill:none;stroke:#231F20;stroke-width:21;" d="M374.81,304.13c37.47,4.84,66.36,35.5,66.36,72.59
				c0,31.61-20.96,58.54-50.33,68.82c-8.24,2.89-17.14,4.46-26.42,4.46c-42.38,0-76.74-32.8-76.74-73.28
				c0-23.29,11.39-44.04,29.14-57.46c13.08-9.9,29.62-15.8,47.6-15.8C367.94,303.46,371.41,303.69,374.81,304.13z"/>
			<path style="fill:none;stroke:#231F20;stroke-width:21;" d="M316.4,317.32c0.11,0.67,0.25,1.31,0.42,1.94
				c3.52,13.78,19.04,17.97,34.03,15.93c8.57-1.17,16.97-4.38,22.85-9.01c5.16-4.06,12.41-19.75,1.11-22.03"/>
			<path style="fill:none;stroke:#231F20;stroke-width:21;" d="M350.87,335.14c-0.01,0.02-0.01,0.03-0.02,0.05
				c-15.13,35.3,7.46,91.16,39.81,109.86"/>
			<path style="fill:none;stroke:#231F20;stroke-width:21;" d="M532.52,177.03l19.7,93.57H435.34c0,0,2.97-38.62-35.65-38.62h-0.39
				c-38.63,0-35.66,38.62-35.66,38.62H242.81l19.85-94.33l9.72-46.17l6.08-28.87h38.35h0.67h199.08l6.08,28.87L532.52,177.03z"/>
			<line style="fill:none;stroke:#231F20;stroke-width:21;" x1="273.19" y1="130.27" x2="521.83" y2="130.27"/>
			<line style="fill:none;stroke:#231F20;stroke-width:21;" x1="266.26" y1="177.03" x2="532.52" y2="177.03"/>
		</g>
	</g>
</g>
<rect style="fill:none;" width="850.394" height="850.394"/>
<line style="fill:none;stroke:#231F20;stroke-width:14;" x1="722" y1="364" x2="743.45" y2="380.62"/>
</svg>
