<?xml version="1.0" encoding="iso-8859-1"?>
<!-- Generator: Adobe Illustrator 12.0.1, SVG Export Plug-In . SVG Version: 6.00 Build 51448)  -->
<!DOCTYPE svg PUBLIC "-//W3C//DTD SVG 1.1//EN" "http://www.w3.org/Graphics/SVG/1.1/DTD/svg11.dtd" [
	<!ENTITY ns_svg "http://www.w3.org/2000/svg">
	<!ENTITY ns_xlink "http://www.w3.org/1999/xlink">
]>
<svg  version="1.1" id="Layer_1" xmlns="&ns_svg;" xmlns:xlink="&ns_xlink;" width="850.89" height="850.89"
	 viewBox="0 0 850.89 850.89" style="overflow:visible;enable-background:new 0 0 850.89 850.89;" xml:space="preserve">
<g>
	<g id="XMLID_1_">
		<g>
			<path style="fill:#FBEE34;" d="M234.52,108.66c5.2,20.3,89.54,36.45,192.84,36.45c102.97,0,187.12-16.05,192.77-36.27l1.021,0.29
				v76.57c0,5.68-6.2,11.08-17.32,15.93c-30.41,13.28-97.68,22.51-175.76,22.51c-81.51,0-151.22-10.06-179.55-24.28
				c-8.73-4.38-13.53-9.16-13.53-14.16L234.52,108.66z"/>
			<path style="fill:#6EBE44;" d="M586.5,397.85c12.38-4.54,21.74-2.23,21.74,7.41c0,77.96,0,155.94,0,233.9
				c0,9.649-9.36,23.64-21.74,30.05c-99.25,47.16-212.17,47.18-311.42,0c-12.4-6.43-21.74-20.4-21.74-30.05
				c0-77.96,0-155.92,0-233.9c0-9.64,9.34-11.95,21.74-7.41C376.37,429.48,485.21,429.48,586.5,397.85z"/>
			<path style="fill:#F6CC4B;" d="M275.08,397.85c-12.4-4.54-21.74-2.23-21.74,7.41c0,77.98,0,155.94,0,233.9
				c0,9.649,9.34,23.62,21.74,30.05c99.25,47.18,212.17,47.16,311.42,0c12.38-6.41,21.74-20.4,21.74-30.05c0-77.96,0-155.94,0-233.9
				c0-9.64-9.36-11.95-21.74-7.41C485.21,429.48,376.37,429.48,275.08,397.85z M657.68,313.05l-1.12,369.82
				c0,0-2.22,47.05-47.14,66.96c0,0-83.729,33.86-181.6,30.25h-3.291c-97.87,3.61-181.6-30.25-181.6-30.25
				c-44.92-19.91-47.14-66.96-47.14-66.96l-1.12-370.49C244.66,327.08,390.07,395.58,657.68,313.05z"/>
			<path style="fill:#FBEE34;" d="M427.36,68.24c106.63,0,193.069,17.21,193.069,38.43c0,0.73-0.1,1.45-0.3,2.17
				c-5.649,20.22-89.8,36.27-192.77,36.27c-103.3,0-187.64-16.15-192.84-36.45c-0.16-0.66-0.25-1.32-0.25-1.99
				C234.27,85.45,320.71,68.24,427.36,68.24z"/>
		</g>
		<g>
			<path style="fill:none;stroke:#000000;stroke-width:20.9905;" d="M234.52,108.66c-0.16-0.66-0.25-1.32-0.25-1.99
				c0-21.22,86.44-38.43,193.09-38.43c106.63,0,193.069,17.21,193.069,38.43c0,0.73-0.1,1.45-0.3,2.17
				c-5.649,20.22-89.8,36.27-192.77,36.27C324.06,145.11,239.72,128.96,234.52,108.66z"/>
			<path style="fill:none;stroke:#000000;stroke-width:20.9905;" d="M234.52,108.66l0.47,77.04c0,5,4.8,9.78,13.53,14.16
				c28.33,14.22,98.04,24.28,179.55,24.28c78.08,0,145.35-9.23,175.76-22.51c11.12-4.85,17.32-10.25,17.32-15.93v-76.57"/>
			<path style="fill:none;stroke:#000000;stroke-width:20.9905;" d="M603.83,201.63c0,0,3.2,25.83,23.84,36.67
				c20.64,10.84,30.05,21.25,30.05,60.91l-0.04,13.84l-1.12,369.82c0,0-2.22,47.05-47.14,66.96c0,0-83.729,33.86-181.6,30.25h-3.291
				c-97.87,3.61-181.6-30.25-181.6-30.25c-44.92-19.91-47.14-66.96-47.14-66.96l-1.12-370.49l-0.04-13.17
				c0-39.66,9.41-50.07,30.05-60.91c20.64-10.84,23.84-38.44,23.84-38.44"/>
			<path style="fill:none;stroke:#000000;stroke-width:7;stroke-linecap:round;stroke-linejoin:round;" d="M253.34,405.26
				c0-9.64,9.34-11.95,21.74-7.41c101.29,31.63,210.13,31.63,311.42,0c12.38-4.54,21.74-2.23,21.74,7.41c0,77.96,0,155.94,0,233.9
				c0,9.649-9.36,23.64-21.74,30.05c-99.25,47.16-212.17,47.18-311.42,0c-12.4-6.43-21.74-20.4-21.74-30.05
				C253.34,561.2,253.34,483.24,253.34,405.26z"/>
			<path style="fill:none;stroke:#000000;stroke-width:7;stroke-linecap:round;stroke-linejoin:round;" d="M194.25,312.25
				c0.14,0.04,0.28,0.08,0.42,0.13c49.99,14.7,195.4,83.2,463.01,0.67c0.86-0.27,1.71-0.53,2.57-0.8"/>
		</g>
	</g>
</g>
<rect x="268.25" y="374.25" style="fill:none;" width="325.395" height="325.395"/>
<rect x="0.25" y="0.25" style="fill:none;" width="850.394" height="850.394"/>
<rect x="291.25" y="410.25" style="fill:none;" width="280" height="280"/>
<rect x="291.25" y="410.25" style="fill:none;" width="280" height="280"/>
<g id="XMLID_2_">
	<g>
		<path style="fill:#F6CC4B;" d="M538.236,586.252l-0.011-0.007c-0.414-0.103-0.821-0.236-1.212-0.397
			c-4.226-1.771-5.003-6.571-4.328-10.739l-0.247-0.041c-0.438-2.805,1.761-3.682,3.732-4.335c1.997-0.654,3.356-1.038,5.593-1.6
			c1.188-0.302,2.175-0.404,3-0.343C543.301,574.961,541.12,580.889,538.236,586.252z"/>
		<path style="fill:#F6CC4B;" d="M512.632,588.225c-1.048-3.227,7.489-11.64,10.612-11.814c1.925-0.113,4.739,2.448,6.729,5.267
			c1.332,1.887,2.295,3.887,2.367,5.28c0.328,6.164-5.936,12.396-8.572,12.771c-0.325,0.048-0.596,0.003-0.791-0.141
			c-3.571-2.627-9.01-7.462-10.78-11.171L512.632,588.225z"/>
		<path style="fill:#F6CC4B;" d="M510.573,510.02l-0.219,0.12c-0.363-0.339-0.63-0.678-0.812-1.021
			c-0.859-1.616,0.109-3.264,1.055-4.691c1.153-1.757,1.986-2.9,3.394-4.723c1.209-1.572,2.321-2.418,3.369-2.736
			c0.247,0.179,0.497,0.353,0.747,0.531c2.966,2.096,5.732,4.144,8.287,6.235l-0.007,0.007c0.87,1.695,1.63,5.295,0.356,7.25
			c-1.374,2.103-3.634,4.078-6.12,4.771C516.214,516.992,512.628,513.708,510.573,510.02z"/>
		<path style="fill:#F6CC4B;" d="M525.99,550.127l-0.243-0.041c-0.441-2.805,1.757-3.682,3.729-4.335
			c1.996-0.654,3.355-1.038,5.592-1.6c7.353-1.846,7.103,3.726,6.736,9.585c-0.22,3.455-0.4,6.062-3.729,7.182
			c-2.376,0.798-5.376,0.944-7.756-0.052C526.093,559.1,525.315,554.295,525.99,550.127z"/>
		<path style="fill:#F6CC4B;" d="M537.072,588.316c-0.041,0.072-0.082,0.145-0.124,0.213c-3.979,6.698-8.297,10.438-12.947,11.94
			l-0.233-0.742c2.637-0.374,8.9-6.606,8.572-12.771c-0.072-1.394-1.035-3.394-2.367-5.28l0.791-0.559
			c1.668,2.401,3.596,4.716,5.85,6.932L537.072,588.316z"/>
		<path style="fill:#F6CC4B;" d="M520.59,530.364c-1.277-2.534,0.548-4.041,2.229-5.264c1.702-1.232,2.88-2.013,4.835-3.232
			c6.438-4,7.9,1.384,9.339,7.078c0.846,3.353,1.469,5.891-1.359,7.969c-2.021,1.49-4.832,2.545-7.4,2.322
			c-4.568-0.397-6.773-4.736-7.4-8.91L520.59,530.364z"/>
		<path style="fill:#F6CC4B;" d="M512.827,551.761c3.153,0.616,6.883,9.061,6.201,12.472c-1.356,6.805-10.801,11.63-12.198,9.921
			c-2.763-3.37-6.742-9.253-7.636-13.277l0.448-0.099C499.002,557.435,509.7,551.147,512.827,551.761z"/>
		<path style="fill:#F6CC4B;" d="M507.913,524.046c3.157,0.613,6.886,9.058,6.205,12.469c-1.356,6.805-10.801,11.63-12.202,9.924
			c-2.764-3.369-6.739-9.249-7.633-13.276l0.448-0.103C494.088,529.717,504.786,523.434,507.913,524.046z"/>
		<path style="fill:#F6CC4B;" d="M538.236,586.252c-0.377,0.698-0.764,1.387-1.164,2.064l-0.459-0.267
			c-2.254-2.216-4.182-4.53-5.85-6.932c-9.156-13.19-10.335-28.964-13.19-45.265c-1.65-9.403-4.298-18.358-8.462-26.516l0.432-0.219
			c0.182,0.343,0.448,0.682,0.812,1.021l0.219-0.12c2.055,3.688,5.641,6.973,10.051,5.743c2.486-0.692,4.746-2.668,6.12-4.771
			c1.273-1.955,0.514-5.555-0.356-7.25l0.007-0.007c9.137,7.5,15.547,15.637,18.674,28.961c2.667,11.38,2.521,24.188-0.305,36.094
			c-0.825-0.062-1.812,0.041-3,0.343c-2.236,0.562-3.596,0.945-5.593,1.6c-1.972,0.653-4.171,1.53-3.732,4.335l0.247,0.041
			c-0.675,4.168,0.103,8.969,4.328,10.739c0.391,0.161,0.798,0.295,1.212,0.397L538.236,586.252z M541.805,553.736
			c0.366-5.859,0.616-11.431-6.736-9.585c-2.236,0.562-3.596,0.945-5.592,1.6c-1.973,0.653-4.171,1.53-3.729,4.335l0.243,0.041
			c-0.675,4.168,0.103,8.973,4.329,10.739c2.38,0.996,5.38,0.85,7.756,0.052C541.404,559.798,541.585,557.191,541.805,553.736z
			 M535.634,536.915c2.828-2.078,2.205-4.616,1.359-7.969c-1.438-5.694-2.9-11.078-9.339-7.078c-1.955,1.22-3.133,2-4.835,3.232
			c-1.682,1.223-3.507,2.729-2.229,5.264l0.243-0.037c0.627,4.174,2.832,8.513,7.4,8.91
			C530.802,539.46,533.613,538.405,535.634,536.915z"/>
		<path style="fill:#F6CC4B;" d="M492.051,484.381l-0.22,0.119c-2.082-1.928-0.904-3.979,0.243-5.712
			c1.157-1.757,1.986-2.9,3.394-4.726c1.116-1.448,2.158-2.284,3.134-2.646c1.397,4.081,2.664,8.067,5.023,12.022
			c0.887,1.486,1.832,2.822,2.836,4.045c-1.243,1.212-2.75,2.191-4.356,2.64C497.69,491.353,494.105,488.068,492.051,484.381z"/>
		<path style="fill:#F6CC4B;" d="M483.078,510.581c-1.523-3.027,6.12-12.448,9.219-12.969c3.171-0.537,9.637,6.052,10.201,9.482
			c1.131,6.846-6.003,14.688-7.917,13.585c-3.839-2.219-9.773-6.424-11.941-9.913L483.078,510.581z"/>
		<path style="fill:#F6CC4B;" d="M523.021,600.755c-7.312,1.855-15.414-1.593-24.245-7.641c1.171-0.726,2.239-1.534,3.085-2.312
			c2.318-2.123,2.846-3.486,1.514-6.462l0.706-0.339c4.164,8.688,10.355,16.194,18.937,16.746L523.021,600.755z"/>
		<path style="fill:#F6CC4B;" d="M448.118,470.803c0.959,3.51,4.314,12.756,8.017,11.167c1.691-0.723,3.01-3.661,4.209-5.021
			c0.996-1.13,3.201-2.78,3.678-4.242c0.876-2.692-5.559-9.312-8.28-9.62C451.587,462.618,448.786,467.368,448.118,470.803z
			 M462.09,490.692c2.168,3.489,8.103,7.694,11.941,9.913c1.91,1.106,9.047-6.739,7.917-13.585
			c-0.565-3.431-7.03-10.017-10.201-9.482c-3.103,0.521-10.743,9.945-9.219,12.973L462.09,490.692z M482.64,510.767
			c2.168,3.489,8.103,7.694,11.941,9.913c1.914,1.103,9.048-6.739,7.917-13.585c-0.564-3.431-7.03-10.02-10.201-9.482
			c-3.099,0.521-10.742,9.941-9.219,12.969L482.64,510.767z M494.283,533.162c0.894,4.027,4.869,9.907,7.633,13.276
			c1.401,1.706,10.846-3.119,12.202-9.924c0.681-3.411-3.048-11.855-6.205-12.469c-3.127-0.612-13.825,5.671-13.182,9.014
			L494.283,533.162z M512.827,551.761c-3.127-0.613-13.825,5.674-13.185,9.017l-0.448,0.099c0.894,4.024,4.873,9.907,7.636,13.277
			c1.397,1.709,10.842-3.116,12.198-9.921C519.71,560.821,515.98,552.377,512.827,551.761z M524.001,600.47
			c-0.325,0.106-0.65,0.199-0.979,0.285l-0.004-0.007c-8.581-0.552-14.772-8.059-18.937-16.746
			c-3.527-7.355-5.603-15.558-6.445-21.099c-2.832-18.611-3.729-37.737-16.081-52.709c-4.185-5.071-10.027-8.685-15.797-12.346
			c-1.288-1.01-2.784-1.944-4.302-2.783c-5.962-4-11.358-8.479-14.146-15.229c-3.257-7.883-6.003-14.804-11.896-17.968
			c7.376,3.668,10.503-7.342,4.616-11.855c5.205,1.164,10.657,3.626,16.379,6.931c7.25,4.186,11.791,10.887,18.27,15.938
			c5.593,4.363,13.521,11.712,18.935,16.441c6.681,5.839,11.715,12.599,15.499,20.016c4.164,8.157,6.812,17.112,8.462,26.516
			c2.855,16.301,4.034,32.074,13.19,45.265l-0.791,0.559c-1.989-2.818-4.804-5.38-6.729-5.267
			c-3.123,0.175-11.66,8.588-10.612,11.814l-0.436,0.191c1.771,3.709,7.209,8.544,10.78,11.171c0.195,0.144,0.466,0.188,0.791,0.141
			L524.001,600.47z"/>
		<path style="fill:#F6CC4B;" d="M472.678,467.015l-0.215,0.12c-2.082-1.928-0.904-3.979,0.243-5.715
			c1.157-1.75,1.985-2.897,3.394-4.723c4.623-6.003,7.883-1.476,11.225,3.349c1.97,2.843,3.445,5.004,1.527,7.941
			c-1.369,2.103-3.633,4.079-6.115,4.771C478.321,473.987,474.736,470.703,472.678,467.015z"/>
		<path style="fill:#FFEEC8;" d="M472.24,618.219c8.869,4.161,15.197,12.476,14.331,21.9c-0.445,4.89-8.812,11.479-12.667,13.488
			c-6.273,3.264-12.485,5.873-19.53,6.76c-11.294,1.425-31.454-1.749-37.484-8.831c-7.353-8.637-2.441-19.273,3.917-24.41
			c6.147-4.965,15.479-9.479,23.061-10.951C452.553,614.49,463.983,614.343,472.24,618.219z"/>
		<path style="fill:#F6CC4B;" d="M495.215,590.57c-4.877-3.616-8.346-8.462-10.814-13.735c5.582-3.757,9.185-6.216,14.153,0
			c1.798,2.242,3.671,4.924,4.821,7.506c1.332,2.976,0.805,4.339-1.514,6.462c-0.846,0.777-1.914,1.586-3.085,2.312
			C497.602,592.31,496.413,591.46,495.215,590.57z"/>
		<path style="fill:#F6CC4B;" d="M462.528,490.511c-1.524-3.027,6.116-12.452,9.219-12.973c3.171-0.534,9.636,6.052,10.201,9.482
			c1.13,6.846-6.007,14.691-7.917,13.585c-3.839-2.219-9.773-6.424-11.941-9.913L462.528,490.511z"/>
		<path style="fill:#F6CC4B;" d="M478.938,555.969c-0.356-3.116-0.151-6.726-0.113-10.324c6.346-2.247,10.824-3.859,14.088,3.396
			c1.179,2.62,2.325,5.688,2.798,8.473c0.545,3.216-0.305,4.404-3.078,5.88c-3.302,1.757-8.935,3.26-12.144,1.801
			C479.76,562.021,479.271,558.894,478.938,555.969z"/>
		<path style="fill:#F6CC4B;" d="M466.031,521.382c3.109-5.314,5.732-8.831,12.396-5.688c2.596,1.229,5.459,2.818,7.627,4.63
			c2.503,2.089,2.63,3.548,1.479,6.469c-1.712,4.362-5.441,11.033-9.588,9.417c0,0,0,0-0.004-0.003
			c-0.294-1.065-0.685-2.076-1.198-3.018c-2.236-4.099-6.473-8.246-10.712-11.804V521.382z"/>
		<path style="fill:#F6CC4B;" d="M459.956,440.619c4.764,2.75,10.859,2.052,10.349,8.305c-0.335,4.167-2.619,9.085-6.992,6.767
			c-3.414-1.812-6.609-4.489-9.966-6.619C450.33,444.773,455.803,438.219,459.956,440.619z"/>
		<path style="fill:#F6CC4B;" d="M466.25,498.25c2.504,2.089,2.627,3.548,1.479,6.469c-1.869,4.764-7.376,11.992-11.745,8.52
			c-2.634-2.089-5.103-4.044-7.014-5.846c-1.911-1.801-3.264-3.451-3.664-4.935l-0.425-0.859c3.366-5.832,6.544-11.372,13.739-7.976
			c0.924,0.438,1.887,0.922,2.835,1.442c1.411,0.948,2.853,1.866,4.302,2.783C465.925,497.982,466.09,498.116,466.25,498.25z"/>
		<path style="fill:#F6CC4B;" d="M455.741,463.087c2.722,0.309,9.156,6.928,8.28,9.62c-0.477,1.462-2.682,3.112-3.678,4.242
			c-1.199,1.359-2.518,4.298-4.209,5.021c-3.702,1.589-7.058-7.657-8.017-11.167C448.786,467.368,451.587,462.618,455.741,463.087z"
			/>
		<path style="fill:#F6CC4B;" d="M478.428,515.694c-6.664-3.144-9.287,0.373-12.396,5.688c-2.123-1.78-4.25-3.417-6.126-4.825
			c-3.932-2.951-7.634-5.989-10.959-9.14l0.024-0.024c1.911,1.802,4.38,3.757,7.014,5.846c4.369,3.473,9.876-3.756,11.745-8.52
			c1.147-2.921,1.024-4.38-1.479-6.469c-0.16-0.134-0.325-0.268-0.492-0.401c5.77,3.661,11.612,7.274,15.797,12.346
			c12.352,14.972,13.249,34.098,16.081,52.709c0.843,5.541,2.918,13.743,6.445,21.099l-0.706,0.339
			c-1.15-2.582-3.023-5.264-4.821-7.506c-4.969-6.216-8.571-3.757-14.153,0c-1.764-3.757-3.018-7.736-3.911-11.641
			c3.209,1.459,8.842-0.044,12.144-1.801c2.773-1.476,3.623-2.664,3.078-5.88c-0.473-2.784-1.619-5.853-2.798-8.473
			c-3.264-7.256-7.742-5.644-14.088-3.396c0.031-3.277-0.079-6.548-0.88-9.435c4.146,1.616,7.876-5.055,9.588-9.417
			c1.151-2.921,1.024-4.38-1.479-6.469C483.887,518.513,481.023,516.924,478.428,515.694z"/>
		<path style="fill:#F6CC4B;" d="M446.857,483.299c0.938,3.814-4.174,8.485-7.794,8.811c-2.517,0.227-2.534-1.571-3.537-3.985
			c-0.802-1.925-1.277-5.346-2.414-7.106c-0.004,0-0.004-0.003-0.004-0.003v-0.004c0.318-4.308,3.469-7.403,7.917-6.235
			C443.104,475.323,446.351,481.233,446.857,483.299z"/>
		<path style="fill:#F6CC4B;" d="M448.946,507.417c-7.188-6.805-12.605-14.112-14.749-22.108c-0.363-1.353-0.709-2.808-1.085-4.291
			c1.137,1.761,1.612,5.182,2.414,7.106c1.003,2.414,1.021,4.212,3.537,3.985c3.62-0.325,8.732-4.996,7.794-8.811
			c-0.507-2.065-3.753-7.976-5.832-8.523c-4.448-1.168-7.599,1.928-7.917,6.235c-1.023-4.023-2.284-8.256-4.723-11.208
			c-3.636-4.404-10.739-2.113-13.496-6.099c1.315-0.37,7.708-3.284,9.198-3.463c4.64-0.555,8.184,0.034,11.016,1.466
			c0.031,0.018,0.063,0.034,0.093,0.048c0.059,0.034,0.116,0.065,0.175,0.093c0.014,0.007,0.027,0.014,0.041,0.021
			c5.894,3.164,8.64,10.085,11.896,17.968c2.788,6.75,8.185,11.229,14.146,15.229c-0.948-0.521-1.911-1.004-2.835-1.442
			c-7.195-3.396-10.373,2.144-13.739,7.976l0.425,0.859c0.4,1.483,1.753,3.134,3.664,4.935L448.946,507.417z"/>
		<path style="fill:#F6CC4B;" d="M406.644,502.28c4.955,2.616,14.061,3.606,11.277,10.739c-1.801,4.616-2.9,2.989-7.023,7.109
			c-6.524,6.523-6.921,13.153-7.072,24.393c-0.167,12.358-5.948,26.663-16.105,38.864c-4.592,5.517-13.013,11.849-14.896,18.756
			c-1.925,7.047,2.332,16.009,3.191,23.152c1.418,11.805,1.144,27.354-8.017,38.231c-13.451,15.972-26.283,24.016-41.963,7.811
			c-13.185-13.619-21.184-34.556-21.232-53.575c-0.044-17.89,7.26-28.602,18.496-41.341c4.904-5.562,8.821-10.226,11.078-17.39
			c2.13-6.76,1.113-13.153,3.048-19.937c6.609-23.208,17.403-31.081,30.632-37.813C381.255,494.568,393.604,495.397,406.644,502.28z
			 M392.299,541.881c0.87-7.273,8.938-16.396,3.661-23.725c-3.335-4.634-10.318-6.503-15.722-6.346
			c-8.318,0.243-14.249,3.4-20.694,9.421c-13.184,12.311-15.842,30.656-14.931,38.521c0.486,4.198,5.626,19.608,16.393,22.954
			c4.88,1.518,12.814-0.157,16.249-3.637C387.488,568.708,390.426,557.562,392.299,541.881z"/>
		<path style="fill:#F6CC4B;" d="M414.89,463.704c-0.87-1.261-1.264-2.604-1.301-3.977h0.007
			c8.068-9.588,16.831-11.862,26.434-9.715c5.887,4.514,2.76,15.523-4.616,11.855c-0.014-0.007-0.027-0.014-0.041-0.021
			c-0.059-0.034-0.116-0.065-0.175-0.093c-0.03-0.014-0.062-0.03-0.093-0.048c-2.832-1.432-6.376-2.021-11.016-1.466
			C422.599,460.42,416.205,463.334,414.89,463.704z"/>
		<path style="fill:#F6CC4B;" d="M453.347,449.071c3.356,2.13,6.552,4.808,9.966,6.619c4.373,2.318,6.657-2.6,6.992-6.767
			c0.511-6.253-5.585-5.555-10.349-8.305C455.803,438.219,450.33,444.773,453.347,449.071z M510.598,504.428
			c-0.945,1.428-1.914,3.075-1.055,4.691l-0.432,0.219c-3.784-7.417-8.818-14.177-15.499-20.016
			c-5.414-4.729-13.342-12.078-18.935-16.441c-6.479-5.051-11.02-11.752-18.27-15.938c-5.722-3.305-11.174-5.767-16.379-6.931
			c-9.603-2.147-18.365,0.127-26.434,9.715h-0.007c-0.147-5.353,5.089-11.14,8.38-14.016c7.431-6.5,15.197-10.229,23.875-10.843
			c4.004-0.284,8.202,0.093,12.65,1.172c14.122,3.421,31.652,15.304,37.724,29.094c0.936,2.123,1.675,4.216,2.384,6.281
			c-0.976,0.362-2.018,1.198-3.134,2.646c-1.407,1.825-2.236,2.969-3.394,4.726c-1.147,1.733-2.325,3.784-0.243,5.712l0.22-0.119
			c2.055,3.688,5.64,6.972,10.054,5.742c1.606-0.448,3.113-1.428,4.356-2.64c3.071,3.76,6.688,6.496,10.899,9.485
			c-1.048,0.318-2.16,1.164-3.369,2.736C512.584,501.527,511.751,502.671,510.598,504.428z M488.852,467.987
			c1.918-2.938,0.442-5.099-1.527-7.941c-3.342-4.824-6.602-9.352-11.225-3.349c-1.408,1.825-2.236,2.973-3.394,4.723
			c-1.147,1.735-2.325,3.787-0.243,5.715l0.215-0.12c2.059,3.688,5.644,6.973,10.059,5.743
			C485.219,472.066,487.482,470.09,488.852,467.987z"/>
		<path style="fill:#FFEEC8;" d="M395.96,518.156c5.277,7.328-2.791,16.451-3.661,23.725c-1.873,15.681-4.811,26.827-15.043,37.189
			c-3.435,3.479-11.369,5.154-16.249,3.637c-10.767-3.346-15.907-18.756-16.393-22.954c-0.911-7.865,1.747-26.211,14.931-38.521
			c6.445-6.021,12.376-9.178,20.694-9.421C385.642,511.653,392.625,513.522,395.96,518.156z"/>
	</g>
	<g>
		<path style="fill:none;stroke:#000000;stroke-width:6.3861;" d="M466.031,521.382c-2.123-1.78-4.25-3.417-6.126-4.825
			c-3.932-2.951-7.634-5.989-10.959-9.14c-7.188-6.805-12.605-14.112-14.749-22.108c-0.363-1.353-0.709-2.808-1.085-4.291"/>
		<path style="fill:none;stroke:#000000;stroke-width:6.3861;" d="M477.941,536.207c-0.294-1.065-0.685-2.076-1.198-3.018
			c-2.236-4.099-6.473-8.246-10.712-11.804"/>
		<path style="fill:none;stroke:#000000;stroke-width:6.3861;" d="M433.108,481.011c-1.023-4.023-2.284-8.256-4.723-11.208
			c-3.636-4.404-10.739-2.113-13.496-6.099c-0.87-1.261-1.264-2.604-1.301-3.977c-0.147-5.353,5.089-11.14,8.38-14.016
			c7.431-6.5,15.197-10.229,23.875-10.843c4.004-0.284,8.202,0.093,12.65,1.172c14.122,3.421,31.652,15.304,37.724,29.094
			c0.936,2.123,1.675,4.216,2.384,6.281c1.397,4.081,2.664,8.067,5.023,12.022c0.887,1.486,1.832,2.822,2.836,4.045
			c3.071,3.76,6.688,6.496,10.899,9.485c0.247,0.179,0.497,0.353,0.747,0.531c2.966,2.096,5.732,4.144,8.287,6.235
			c9.137,7.5,15.547,15.637,18.674,28.961c2.667,11.38,2.521,24.188-0.305,36.094c-1.463,6.171-3.644,12.099-6.527,17.462
			c-0.377,0.698-0.764,1.387-1.164,2.064c-0.041,0.072-0.082,0.145-0.124,0.213c-3.979,6.698-8.297,10.438-12.947,11.94
			c-0.325,0.106-0.65,0.199-0.979,0.285c-7.312,1.855-15.414-1.593-24.245-7.641c-1.175-0.805-2.363-1.654-3.562-2.544
			c-4.877-3.616-8.346-8.462-10.814-13.735c-1.764-3.757-3.018-7.736-3.911-11.641c-0.729-3.174-1.219-6.301-1.551-9.226
			c-0.356-3.116-0.151-6.726-0.113-10.324c0.031-3.277-0.079-6.548-0.88-9.435"/>
		<path style="fill:none;stroke:#000000;stroke-width:6.5232;" d="M403.826,544.521c0.151-11.239,0.548-17.869,7.072-24.393
			c4.123-4.12,5.222-2.493,7.023-7.109c2.784-7.133-6.322-8.123-11.277-10.739c-13.041-6.883-25.389-7.712-38.587-1
			c-13.229,6.732-24.022,14.605-30.632,37.813c-1.935,6.783-0.918,13.177-3.048,19.937c-2.257,7.164-6.174,11.828-11.078,17.39
			c-11.236,12.739-18.54,23.451-18.496,41.341c0.048,19.02,8.047,39.956,21.232,53.575c15.681,16.205,28.512,8.161,41.963-7.811
			c9.161-10.877,9.435-26.427,8.017-38.231c-0.859-7.144-5.116-16.105-3.191-23.152c1.883-6.907,10.304-13.239,14.896-18.756
			C397.877,571.185,403.658,556.88,403.826,544.521z"/>
		<path style="fill:none;stroke:#000000;stroke-width:6.3861;" d="M435.104,461.707c-2.832-1.432-6.376-2.021-11.016-1.466
			c-1.49,0.179-7.883,3.093-9.198,3.463"/>
		<path style="fill:none;stroke:#000000;stroke-width:6.3861;" d="M435.372,461.848c-0.059-0.034-0.116-0.065-0.175-0.093"/>
		<path style="fill:none;stroke:#000000;stroke-width:6.3861;" d="M523.018,600.748c-8.581-0.552-14.772-8.059-18.937-16.746
			c-3.527-7.355-5.603-15.558-6.445-21.099c-2.832-18.611-3.729-37.737-16.081-52.709c-4.185-5.071-10.027-8.685-15.797-12.346
			c-1.449-0.917-2.891-1.835-4.302-2.783c-5.962-4-11.358-8.479-14.146-15.229c-3.257-7.883-6.003-14.804-11.896-17.968"/>
		<path style="fill:none;stroke:#000000;stroke-width:6.3861;" d="M536.613,588.05c-2.254-2.216-4.182-4.53-5.85-6.932
			c-9.156-13.19-10.335-28.964-13.19-45.265c-1.65-9.403-4.298-18.358-8.462-26.516c-3.784-7.417-8.818-14.177-15.499-20.016
			c-5.414-4.729-13.342-12.078-18.935-16.441c-6.479-5.051-11.02-11.752-18.27-15.938c-5.722-3.305-11.174-5.767-16.379-6.931
			c-9.603-2.147-18.365,0.127-26.434,9.715"/>
		<path style="fill:none;stroke:#000000;stroke-width:6.3861;" d="M461.278,488.638c0.071,0.637,0.359,1.332,0.812,2.055
			c2.168,3.489,8.103,7.694,11.941,9.913c1.91,1.106,9.047-6.739,7.917-13.585c-0.565-3.431-7.03-10.017-10.201-9.482
			c-3.103,0.521-10.743,9.945-9.219,12.973c0.017,0.037,0.041,0.075,0.062,0.112"/>
		<path style="fill:none;stroke:#000000;stroke-width:6.3861;" d="M481.828,508.708c0.072,0.637,0.359,1.332,0.812,2.059
			c2.168,3.489,8.103,7.694,11.941,9.913c1.914,1.103,9.048-6.739,7.917-13.585c-0.564-3.431-7.03-10.02-10.201-9.482
			c-3.099,0.521-10.742,9.941-9.219,12.969c0.018,0.038,0.038,0.075,0.062,0.113"/>
		<path style="fill:none;stroke:#000000;stroke-width:6.3861;" d="M494.204,530.737c-0.171,0.675-0.126,1.5,0.079,2.425
			c0.894,4.027,4.869,9.907,7.633,13.276c1.401,1.706,10.846-3.119,12.202-9.924c0.681-3.411-3.048-11.855-6.205-12.469
			c-3.127-0.612-13.825,5.671-13.182,9.014"/>
		<path style="fill:none;stroke:#000000;stroke-width:6.3861;" d="M499.115,558.455c-0.171,0.675-0.127,1.5,0.079,2.421
			c0.894,4.024,4.873,9.907,7.636,13.277c1.397,1.709,10.842-3.116,12.198-9.921c0.682-3.411-3.048-11.855-6.201-12.472
			c-3.127-0.613-13.825,5.674-13.185,9.017"/>
		<path style="fill:none;stroke:#000000;stroke-width:6.3861;" d="M511.618,586.286c0.003,0.644,0.212,1.363,0.578,2.13
			c1.771,3.709,7.209,8.544,10.78,11.171c0.195,0.144,0.466,0.188,0.791,0.141c2.637-0.374,8.9-6.606,8.572-12.771
			c-0.072-1.394-1.035-3.394-2.367-5.28c-1.989-2.818-4.804-5.38-6.729-5.267c-3.123,0.175-11.66,8.588-10.612,11.814
			c0.021,0.062,0.044,0.119,0.071,0.178"/>
		<path style="fill:none;stroke:#000000;stroke-width:6.3861;" d="M448.118,470.803c-0.065,0.328-0.109,0.644-0.134,0.941"/>
		<path style="fill:none;stroke:#000000;stroke-width:6.3861;" d="M448.118,470.803c0.959,3.51,4.314,12.756,8.017,11.167
			c1.691-0.723,3.01-3.661,4.209-5.021c0.996-1.13,3.201-2.78,3.678-4.242c0.876-2.692-5.559-9.312-8.28-9.62
			C451.587,462.618,448.786,467.368,448.118,470.803z"/>
		<path style="fill:none;stroke:#000000;stroke-width:6.3861;" d="M447.96,470.193c0.042,0.174,0.093,0.38,0.158,0.609"/>
		<line style="fill:none;stroke:#000000;stroke-width:6.3861;" x1="453.347" y1="449.071" x2="453.351" y2="449.078"/>
		<path style="fill:none;stroke:#000000;stroke-width:6.3861;" d="M453.347,449.071c3.356,2.13,6.552,4.808,9.966,6.619
			c4.373,2.318,6.657-2.6,6.992-6.767c0.511-6.253-5.585-5.555-10.349-8.305C455.803,438.219,450.33,444.773,453.347,449.071z"/>
		<path style="fill:none;stroke:#000000;stroke-width:6.3861;" d="M452.183,448.358c0.391,0.229,0.777,0.466,1.164,0.713"/>
		<path style="fill:none;stroke:#000000;stroke-width:6.3861;" d="M471.647,464.82c0.281,0.726,0.627,1.469,1.03,2.194
			c2.059,3.688,5.644,6.973,10.059,5.743c2.482-0.691,4.746-2.668,6.115-4.771c1.918-2.938,0.442-5.099-1.527-7.941
			c-3.342-4.824-6.602-9.352-11.225-3.349c-1.408,1.825-2.236,2.973-3.394,4.723c-1.147,1.735-2.325,3.787-0.243,5.715"/>
		<path style="fill:none;stroke:#000000;stroke-width:6.3861;" d="M520.638,527.912c0.007,0.777,0.072,1.593,0.195,2.415
			c0.627,4.174,2.832,8.513,7.4,8.91c2.568,0.223,5.38-0.832,7.4-2.322c2.828-2.078,2.205-4.616,1.359-7.969
			c-1.438-5.694-2.9-11.078-9.339-7.078c-1.955,1.22-3.133,2-4.835,3.232c-1.682,1.223-3.507,2.729-2.229,5.264"/>
		<path style="fill:none;stroke:#000000;stroke-width:6.3861;" d="M526.542,547.764c-0.229,0.743-0.422,1.541-0.552,2.363
			c-0.675,4.168,0.103,8.973,4.329,10.739c2.38,0.996,5.38,0.85,7.756,0.052c3.329-1.12,3.51-3.727,3.729-7.182
			c0.366-5.859,0.616-11.431-6.736-9.585c-2.236,0.562-3.596,0.945-5.592,1.6c-1.973,0.653-4.171,1.53-3.729,4.335"/>
		<path style="fill:none;stroke:#000000;stroke-width:6.3861;" d="M544.771,568.79c-0.004,0-0.004,0-0.007,0
			c-0.825-0.062-1.812,0.041-3,0.343c-2.236,0.562-3.596,0.945-5.593,1.6c-1.972,0.653-4.171,1.53-3.732,4.335"/>
		<path style="fill:none;stroke:#000000;stroke-width:6.3861;" d="M533.236,572.746c-0.229,0.743-0.421,1.541-0.551,2.362
			c-0.675,4.168,0.103,8.969,4.328,10.739c0.391,0.161,0.798,0.295,1.212,0.397"/>
		<path style="fill:none;stroke:#000000;stroke-width:6.3861;" d="M517.378,496.966c-0.007,0-0.011,0.003-0.018,0.003
			c-1.048,0.318-2.16,1.164-3.369,2.736c-1.407,1.822-2.24,2.966-3.394,4.723c-0.945,1.428-1.914,3.075-1.055,4.691
			c0.182,0.343,0.448,0.682,0.812,1.021"/>
		<path style="fill:none;stroke:#000000;stroke-width:6.3861;" d="M509.539,507.824c0.281,0.727,0.627,1.47,1.034,2.195
			c2.055,3.688,5.641,6.973,10.051,5.743c2.486-0.692,4.746-2.668,6.12-4.771c1.273-1.955,0.514-5.555-0.356-7.25"/>
		<path style="fill:none;stroke:#000000;stroke-width:6.3861;" d="M498.704,471.374c-0.034,0.011-0.068,0.024-0.103,0.042
			c-0.976,0.362-2.018,1.198-3.134,2.646c-1.407,1.825-2.236,2.969-3.394,4.726c-1.147,1.733-2.325,3.784-0.243,5.712"/>
		<path style="fill:none;stroke:#000000;stroke-width:6.3861;" d="M491.017,482.186c0.28,0.726,0.626,1.469,1.034,2.195
			c2.055,3.688,5.64,6.972,10.054,5.742c1.606-0.448,3.113-1.428,4.356-2.64h0.003"/>
		<path style="fill:none;stroke:#000000;stroke-width:6.3861;" d="M435.104,461.707c0.031,0.018,0.063,0.034,0.093,0.048
			c0.059,0.034,0.116,0.065,0.175,0.093c0.014,0.007,0.027,0.014,0.041,0.021c7.376,3.668,10.503-7.342,4.616-11.855
			c-0.178-0.137-0.363-0.268-0.559-0.391"/>
		<path style="fill:none;stroke:#000000;stroke-width:6.3861;" d="M429.006,442.353c6.476,3.742,16.906,3.174,16.838-7.483v-0.003"
			/>
		<path style="fill:none;stroke:#000000;stroke-width:6.3861;" d="M433.108,481.015v-0.004c0.318-4.308,3.469-7.403,7.917-6.235
			c2.079,0.548,5.325,6.458,5.832,8.523c0.938,3.814-4.174,8.485-7.794,8.811c-2.517,0.227-2.534-1.571-3.537-3.985
			c-0.802-1.925-1.277-5.346-2.414-7.106C433.108,481.018,433.108,481.015,433.108,481.015"/>
		<path style="fill:none;stroke:#000000;stroke-width:6.3861;" d="M444.882,501.599c3.366-5.832,6.544-11.372,13.739-7.976
			c0.924,0.438,1.887,0.922,2.835,1.442c1.518,0.839,3.014,1.773,4.302,2.783c0.167,0.134,0.332,0.268,0.492,0.401
			c2.504,2.089,2.627,3.548,1.479,6.469c-1.869,4.764-7.376,11.992-11.745,8.52c-2.634-2.089-5.103-4.044-7.014-5.846
			c-1.911-1.801-3.264-3.451-3.664-4.935"/>
		<path style="fill:none;stroke:#000000;stroke-width:6.3861;" d="M484.396,576.838c0,0,0.004,0,0.004-0.003
			c5.582-3.757,9.185-6.216,14.153,0c1.798,2.242,3.671,4.924,4.821,7.506c1.332,2.976,0.805,4.339-1.514,6.462
			c-0.846,0.777-1.914,1.586-3.085,2.312"/>
		<path style="fill:none;stroke:#000000;stroke-width:6.3861;" d="M478.821,545.645h0.004c6.346-2.247,10.824-3.859,14.088,3.396
			c1.179,2.62,2.325,5.688,2.798,8.473c0.545,3.216-0.305,4.404-3.078,5.88c-3.302,1.757-8.935,3.26-12.144,1.801
			c-0.003,0-0.007-0.003-0.01-0.003"/>
		<path style="fill:none;stroke:#000000;stroke-width:6.3861;" d="M466.031,521.386v-0.004c3.109-5.314,5.732-8.831,12.396-5.688
			c2.596,1.229,5.459,2.818,7.627,4.63c2.503,2.089,2.63,3.548,1.479,6.469c-1.712,4.362-5.441,11.033-9.588,9.417
			c0,0,0,0-0.004-0.003"/>
		<path style="fill:none;stroke:#000000;stroke-width:5.6107;" d="M486.571,640.119c0.866-9.425-5.462-17.739-14.331-21.9
			c-8.257-3.876-19.688-3.729-28.372-2.044c-7.582,1.473-16.913,5.986-23.061,10.951c-6.359,5.137-11.27,15.773-3.917,24.41
			c6.03,7.082,26.19,10.256,37.484,8.831c7.045-0.887,13.257-3.496,19.53-6.76C477.76,651.598,486.126,645.009,486.571,640.119z"/>
		<path style="fill:none;stroke:#000000;stroke-width:5.8748;" d="M361.006,582.707c4.88,1.518,12.814-0.157,16.249-3.637
			c10.232-10.362,13.17-21.509,15.043-37.189c0.87-7.273,8.938-16.396,3.661-23.725c-3.335-4.634-10.318-6.503-15.722-6.346
			c-8.318,0.243-14.249,3.4-20.694,9.421c-13.184,12.311-15.842,30.656-14.931,38.521C345.1,563.951,350.24,579.361,361.006,582.707
			z"/>
	</g>
</g>
</svg>
