<?xml version="1.0" encoding="iso-8859-1"?>
<!-- Generator: Adobe Illustrator 12.0.1, SVG Export Plug-In . SVG Version: 6.00 Build 51448)  -->
<!DOCTYPE svg PUBLIC "-//W3C//DTD SVG 1.1//EN" "http://www.w3.org/Graphics/SVG/1.1/DTD/svg11.dtd" [
	<!ENTITY ns_svg "http://www.w3.org/2000/svg">
	<!ENTITY ns_xlink "http://www.w3.org/1999/xlink">
]>
<svg  version="1.1" id="Layer_1" xmlns="&ns_svg;" xmlns:xlink="&ns_xlink;" width="850.394" height="850.394"
	 viewBox="0 0 850.394 850.394" style="overflow:visible;enable-background:new 0 0 850.394 850.394;" xml:space="preserve">
<g id="XMLID_3_">
	<g>
		<path style="fill:#C8C8C8;" d="M467.03,302.09c6.04,0,10.93,5.42,10.93,12.1c0,6.69-4.89,12.11-10.93,12.11
			c-6.05,0-10.94-5.42-10.94-12.11C456.09,307.51,460.98,302.09,467.03,302.09z"/>
		<path style="fill:#0B00EA;" d="M451.32,380.19v138.05L439.7,642.83l-2.2,17.229h-0.03c-5.609-2.46-12.45-3.909-19.84-3.909
			c-6.75,0-13.06,1.22-18.37,3.31l-2.14-16.72l-11.63-124.59V380.72h2.21c5.58-7.17,17.38-12.11,31.03-12.11
			c13.31,0,24.86,4.7,30.61,11.58H451.32z"/>
		<path style="fill:#0B00EA;" d="M451.32,378.7v1.49h-1.98c-5.75-6.88-17.3-11.58-30.61-11.58c-13.65,0-25.45,4.94-31.03,12.11
			h-2.21v-2.1c0,0,0-36.54,0-76.41s7.06-156.97,7.06-178.15c0-12.34,7.19-16.93,13.2-18.6v-0.01c4.29-1.2,7.98-0.91,7.98-0.91h3.11
			l3.13,0.08h3.11c0,0,3.8-0.3,8.17,0.97c5.11,1.47,11.02,5.07,12.61,13.76c0.26,1.45,0.399,3.04,0.399,4.78
			c0,21.18,7.061,138.29,7.061,178.16C451.32,342.15,451.32,378.7,451.32,378.7z"/>
		<path style="fill:#C8C8C8;" d="M437.5,660.06l-11.92,93.23l-14.34-0.09l-11.98-93.74c5.31-2.09,11.62-3.31,18.37-3.31
			c7.39,0,14.23,1.449,19.84,3.909H437.5z"/>
		<path style="fill:#0B00EA;" d="M431.25,80.75c0,12.05,0,24.84,0,24.84c-4.37-1.27-8.17-0.97-8.17-0.97h-3.11l-3.13-0.08h-3.11
			c0,0-3.69-0.29-7.98,0.91c0-0.47,0-12.94,0-24.76c0-12.04,12.87-12.87,12.87-12.87S431.25,68.71,431.25,80.75z"/>
	</g>
	<g>
		<path style="fill:none;stroke:#000000;stroke-width:19.9332;" d="M431.25,105.59c0,0,0-12.79,0-24.84
			c0-12.04-12.63-12.93-12.63-12.93s-12.87,0.83-12.87,12.87c0,11.82,0,24.29,0,24.76"/>
		<path style="fill:none;stroke:#000000;stroke-width:19.9332;" d="M399.26,659.46l11.98,93.74l14.34,0.09l11.92-93.23l2.2-17.229
			l11.62-124.59V380.19v-1.49c0,0,0-36.55,0-76.41c0-39.87-7.061-156.98-7.061-178.16c0-1.74-0.14-3.33-0.399-4.78
			c-1.591-8.69-7.5-12.29-12.61-13.76c-4.37-1.27-8.17-0.97-8.17-0.97h-3.11l-3.13-0.08h-3.11c0,0-3.69-0.29-7.98,0.91v0.01
			c-6.01,1.67-13.2,6.26-13.2,18.6c0,21.18-7.06,138.28-7.06,178.15s0,76.41,0,76.41v2.1v137.43l11.63,124.59L399.26,659.46z"/>
		<path style="fill:none;stroke:#000000;stroke-width:19.9332;" d="M387.7,380.72c5.58-7.17,17.38-12.11,31.03-12.11
			c13.31,0,24.86,4.7,30.61,11.58"/>
		<path style="fill:none;stroke:#000000;stroke-width:13.2888;" d="M425.09,760.12v9.51c0,5.83-2.95,10.561-6.59,10.561
			c-1.82,0-3.46-1.181-4.65-3.091c-1.19-1.92-1.93-4.56-1.93-7.47v-9.51"/>
		<path style="fill:none;stroke:#000000;stroke-width:19.9332;" d="M399.1,659.52c0.05-0.02,0.11-0.039,0.16-0.06
			c5.31-2.09,11.62-3.31,18.37-3.31c7.39,0,14.23,1.449,19.84,3.909"/>
		<path style="fill:none;stroke:#000000;stroke-width:19.9332;" d="M477.96,314.19c0,6.69-4.89,12.11-10.93,12.11
			c-6.05,0-10.94-5.42-10.94-12.11c0-6.68,4.891-12.1,10.94-12.1C473.07,302.09,477.96,307.51,477.96,314.19z"/>
		<path style="fill:none;stroke:#000000;stroke-width:19.9332;" d="M443.8,119.35c0,0,0.021,0,0.061,0
			c1.489-0.03,28.97-0.13,32.739,33.28c3.881,34.33-9.569,149.46-9.569,149.46"/>
	</g>
</g>
<rect style="fill:none;" width="850.394" height="850.394"/>
</svg>
