<?xml version="1.0" encoding="iso-8859-1"?>
<!-- Generator: Adobe Illustrator 12.0.1, SVG Export Plug-In . SVG Version: 6.00 Build 51448)  -->
<!DOCTYPE svg PUBLIC "-//W3C//DTD SVG 1.1//EN" "http://www.w3.org/Graphics/SVG/1.1/DTD/svg11.dtd" [
	<!ENTITY ns_svg "http://www.w3.org/2000/svg">
	<!ENTITY ns_xlink "http://www.w3.org/1999/xlink">
]>
<svg  version="1.1" id="Layer_1" xmlns="&ns_svg;" xmlns:xlink="&ns_xlink;" width="850.394" height="850.394"
	 viewBox="0 0 850.394 850.394" style="overflow:visible;enable-background:new 0 0 850.394 850.394;" xml:space="preserve">
<g id="XMLID_7_">
	<g>
		<path style="fill:#FFEEC8;" d="M591.79,417.39l-0.57,0.59c0,0,5.53,26.08,2.141,39.63c-7.45,29.8-29.69,42.68-58.341,33.39
			c2.37-22.96,6.381-42.09,9.07-60.17c6.51-43.81,11.66-77.69,15.57-105.05l0.49,0.07c0,0,80.34,12.85,100.689,89.98
			c20.36,77.13,21.96,90.93,4.29,95.34c-8.57,2.14-17.13,5.36-34.28-27.85C618.68,459.74,609.75,435.08,591.79,417.39z"/>
		<path style="fill:#FFEEC8;" d="M535.02,491c-2.829,27.52-3.3,60.51,3.711,103.73c10.55,65.05-1.07,184.239-1.07,184.239
			L237.14,777.9c0,0-4.28-63.2-4.28-102.83c0-39.641-3.22-72.84-41.78-127.48c-38.56-54.63-29.99-122.12-19.28-162.82
			s63.2-157.46,65.34-172.46c2.14-15-2.14-128.55-2.14-128.55L555.87,67.7c0,0,9.64,86.76,12.85,139.25
			c1.96,31.95-0.729,60.59-9.06,118.83c-3.91,27.36-9.061,61.24-15.57,105.05C541.4,448.91,537.39,468.04,535.02,491z"/>
	</g>
	<g>
		<path style="fill:none;stroke:#231F20;stroke-width:21;" d="M555.87,67.7c0,0,9.64,86.76,12.85,139.25
			c1.96,31.95-0.729,60.59-9.06,118.83c-3.91,27.36-9.061,61.24-15.57,105.05c-2.689,18.08-6.7,37.21-9.07,60.17
			c-2.829,27.52-3.3,60.51,3.711,103.73c10.55,65.05-1.07,184.239-1.07,184.239"/>
		<path style="fill:none;stroke:#231F20;stroke-width:21;" d="M560.15,325.85c0,0,80.34,12.85,100.689,89.98
			c20.36,77.13,21.96,90.93,4.29,95.34c-8.57,2.14-17.13,5.36-34.28-27.85c-12.17-23.58-21.1-48.24-39.06-65.93
			c-7.33-7.22-16.17-13.28-27.35-17.62"/>
		<path style="fill:none;stroke:#231F20;stroke-width:21;" d="M591.22,417.98c0,0,5.53,26.08,2.141,39.63
			c-7.45,29.8-29.69,42.68-58.341,33.39c-0.189-0.05-0.38-0.12-0.569-0.18"/>
		<path style="fill:none;stroke:#231F20;stroke-width:21;" d="M235,83.76c0,0,4.28,113.55,2.14,128.55
			c-2.14,15-54.63,131.76-65.34,172.46s-19.28,108.19,19.28,162.82c38.56,54.641,41.78,87.84,41.78,127.48
			c0,39.63,4.28,102.83,4.28,102.83"/>
	</g>
</g>
<rect style="fill:none;" width="850.394" height="850.394"/>
<line style="fill:none;stroke:#23201F;stroke-width:14;" x1="751.002" y1="188.914" x2="653.59" y2="331.638"/>
<polyline style="fill:none;stroke:#23201F;stroke-width:14;" points="733.109,313.273 652.772,332.487 641.453,250.606 "/>
</svg>
