<svg xmlns="http://www.w3.org/2000/svg" width="850.394" height="850.394" viewBox="0 0 850.394 850.394" overflow="visible"><path d="M250.62 330.5c.55 6.28-1.01 12.78-4.88 18.36-7.14 10.31-19.99 14.34-31.36 10.78.21-.27.32-.41.36-.48-.07.05-.25.26-.42.46-2.62-.83-5.16-2.05-7.53-3.7-7.86-5.44-12.07-14.19-12.05-23.08.01-5.49 1.62-11.03 4.98-15.88 8.81-12.71 26.25-15.87 38.96-7.06 3.69 2.56 6.58 5.85 8.6 9.54 1.88 3.43 3.01 7.2 3.34 11.06z" fill="#f0037f"/><path d="M214.28 359.76c-.2.21-.29.31-.33.33.01-.04.19-.25.37-.47.02.01.04.01.06.02-.03.04-.06.08-.1.12z" fill="#9c5b16"/><path d="M214.38 359.64c-.02-.01-.04-.01-.06-.02.17-.2.35-.41.42-.46-.04.07-.15.21-.36.48z" fill="#f0037f"/><path d="M443.28 447.04c4.64.95 10.17 1.15 15.41.56 3.319-.359 6.52-1.029 9.319-2.029 11.931-4.25 22.26-11.641 31.221-19.92l.489-.46c-6.47-6.83-14.01-12.57-22.43-16.17-6.37-2.73-13.23-4.24-20.54-4.08-8.4.2-16.97 2.94-24.3 7.48-6.48 4.02-12 9.46-15.59 15.811-2.17 3.85-5.06 6.529-1.25 8.88 3.24 2.01 7.14.58 10.621 2.199 2.329 1.08 4.46 3.771 6.939 4.91 2.961 1.369 6.911 2.159 10.111 2.819zm155.3 141.69c-8.561 17.5-25.14 31.329-40.63 44.739-35.91 31.101-55.88 85.971-107.49 92.271-38.77 4.72-87.6 18.89-120.93-9.311-.21-.18-.42-.35-.63-.52a.115.115 0 0 0-.05-.05 20.899 20.899 0 0 0-3.27-2.71c-.02-.021-.05-.04-.08-.061-19.98-16.29-43.79-31.82-59.76-51.92-9.94-12.51-57.19-67.68-64.05-119.39-.56-4.101-.85-8.17-.85-12.2 0-49.15-10.68-61.521-11.82-93.48 0-.239-.01-.479-.02-.729 0-.311-.01-.62-.02-.93-.41-16.8 3.24-33.99 10.21-49.641 3.99-8.97 9.07-17.44 15.09-25.04.04-.04.07-.08.1-.12 11.37 3.56 24.22-.47 31.36-10.78a27.851 27.851 0 0 0 4.88-18.36c34.58-20.48 121.76-62.57 168.98-94.13v-.01l11 .93v.01c21.66 22.99 110.71 117.32 159.41 166.03 9.95 9.96 16.33 23 20.21 37.41l-.069.06-2.9 2.641c-7.59 3.77-12.8 11.59-12.8 20.63 0 12.12 9.359 22.05 21.25 22.949l-.41 5.33c-.78 28.08-5.95 54.391-9.05 68.591-1.25 5.729-2.16 9.479-2.32 10.59-.851 6.141-2.721 11.841-5.341 17.201zM249.6 451.93c2.8 1 6 1.67 9.32 2.04 5.25.58 10.77.391 15.4-.56 3.21-.67 7.16-1.45 10.11-2.83 2.49-1.14 4.62-3.82 6.95-4.91 3.47-1.61 7.38-.189 10.62-2.2 3.81-2.35.92-5.029-1.25-8.88-3.59-6.35-9.1-11.77-15.57-15.79-7.34-4.55-15.91-7.29-24.32-7.49-7.3-.16-14.16 1.34-20.52 4.06-8.43 3.61-15.97 9.35-22.45 16.18l.49.46c8.96 8.28 19.29 15.67 31.22 19.92zm68.84 158.87c4.74 6.24 15.16 12.8 21.85 18.32 18.05 14.93 41.55 16.84 63.48 7.14 16.18-7.149 25.73-22.819 34.83-37.67 2.11-3.45 4.2-6.859 6.351-10.109-13.24 1.35-62.96-10.11-70.1 7.89-4.45 1.82-11.68-2.92-16.61-4.05-9.29-2.15-20.1-.12-29.14 2.51-14.521 4.209-15.241 9.939-10.661 15.969z" fill="#ffeec8"/><path d="M188.44 435.38c-.23-3.77-1.28-7.47-3.12-10.81l-10.47-45.45-10.65-46.2-8.22-35.67s-2.53-2.72-6.43-5.13c6.53-22.62 14.59-44.4 23.74-63.53 1.74 15.75 4.94 33.43 8.35 49.69 6.2 29.63 13.1 54.56 13.1 54.56-.02 8.89 4.19 17.64 12.05 23.08 2.37 1.65 4.91 2.87 7.53 3.7-.18.22-.36.43-.37.47.04-.02.13-.12.33-.33-6.02 7.6-11.1 16.07-15.09 25.04-6.97 15.65-10.62 32.84-10.21 49.641.01.31.02.619.02.93.01.25.02.49.02.729l-.55.011c-.01-.241-.01-.481-.03-.731z" fill="#9c5b16"/><path d="M610.55 442.11c.01-.011.01-.011.021-.011.079.291.059.281-.021.011z" fill="#f0037f"/><path d="M610.55 442.11c.08.27.101.279.021-.011a22.95 22.95 0 0 1 6.92-1.06c12.72 0 23.029 10.32 23.029 23.03 0 4.85-1.5 9.34-4.05 13.05l-.02.02c-4.15 6.021-11.09 9.96-18.96 9.96-.601 0-1.2-.02-1.79-.08-11.891-.899-21.25-10.829-21.25-22.949 0-9.04 5.21-16.86 12.8-20.63 1.05-.53 2.16-.97 3.3-1.33zM305.72 101.68c-.06.01-.24.08-.43.16v-4.37c0-8.96 7.26-16.22 16.22-16.22l69.12 3.07v42.37l-29.88 2.62-51.62-2.3c-2.4-2.83-3.84-6.48-3.84-10.48v-14.68c.25-.1.38-.15.43-.17z" fill="#f0037f"/><path d="M305.72 101.68c-.05.02-.18.07-.43.17v-.01c.19-.08.37-.15.43-.16z" fill="#f0037f"/><path d="M670.03 386.3l-31.66 28.82-28.15 25.62c-3.88-14.41-10.26-27.45-20.21-37.41-48.7-48.71-137.75-143.04-159.41-166.03v-.01l25.42 2.13 63.95 5.37c8.95 0 16.221-7.26 16.221-16.22V209.5c0-8.95-7.271-16.22-16.221-16.22l-63.64 2.64-74.66 3.09-59.63-2.65-69.13-3.08c-8.96 0-16.22 7.27-16.22 16.22v19.07c0 8.96 7.26 16.22 16.22 16.22l69.13-6.06 61.54-5.39 36.02 3.02v.01c-47.22 31.56-134.4 73.65-168.98 94.13-.33-3.86-1.46-7.63-3.34-11.06l-11.5-49.9-11.69-50.71-9.03-39.17s-3.36-3.61-8.4-6.42c25.56-30.04 61.5-56.6 98.42-71.31.07-.02.14-.05.21-.08v14.68c0 4 1.44 7.65 3.84 10.48l-12.9-.57c-8.96 0-16.22 7.27-16.22 16.22v19.07c0 8.96 7.26 16.22 16.22 16.22l69.13-6.06 61.541-5.39 70.89 5.95 65.5 5.5c8.96 0 16.22-7.26 16.22-16.22v-19.07c0-4.26-1.64-8.13-4.33-11.03l13.38 1.12c1.96 0 3.83-.35 5.57-.98 15.75 12.55 30.13 27.44 42.82 44.35l.01.01-24.71 22.49-38.49 35.02-37.88 34.46c-9.189 4.59-15.5 14.08-15.5 25.06 0 15.46 12.54 27.99 28 27.99 9.57 0 18.03-4.81 23.08-12.14 0 0 0-.01.01-.01 1.09-.91 20.44-17.11 41.79-37.34 12.21-11.56 25.08-24.44 35.561-36.53 5.33-6.15 10.04-12.1 13.729-17.56 5.9 11.72 11.12 24.08 15.59 37h-.04c-.119.02-.18.04-.18.04l-26.36 23.99-34.149 31.07-33.59 30.57c-8.16 4.07-13.761 12.49-13.761 22.22 0 13.71 11.131 24.83 24.841 24.83 8.479 0 15.97-4.26 20.449-10.75.58-.49 17.94-15 37.11-33.15 10.83-10.26 22.23-21.68 31.53-32.39 2.41-2.8 4.689-5.54 6.779-8.21 3.58 19.45 5.58 39.81 5.851 60.93h-.021c-1.319.15-2.119.33-2.119.33L670.03 386.3z" fill="#9c5b16"/><path d="M696.62 363.72c6.55-.75 25.66-.89 21.55 24.02-1.17 7.06-8.37 17.41-18.05 28.59-1.55-12.46-18.38-31.93-30.09-30.03l24.45-22.25s.8-.18 2.119-.33c.011.21.021.24.021 0z" fill="#f0037f"/><path d="M696.62 363.72c0 .24-.01.21-.021 0h.021zM304.86 102.01c-.04.01-.04.01 0 0zM651.56 278.6l26.36-23.99s.061-.02.18-.04c.04.1.07.17.101.2 0-.04-.021-.1-.061-.2 2.721-.53 30.38-5.12 25.311 25.58-.96 5.86-5.771 13.81-12.681 22.64-2.09 2.67-4.369 5.41-6.779 8.21-1.661-13.42-19.791-34.43-32.431-32.4z" fill="#f0037f"/><path d="M678.14 254.57c.04.1.061.16.061.2a.707.707 0 0 1-.101-.2h.04z" fill="#f0037f"/><path d="M606.24 560.94c3.1-14.2 8.27-40.511 9.05-68.591l.41-5.33c.59.061 1.189.08 1.79.08 7.87 0 14.81-3.939 18.96-9.96l.02-.02c.65-.54 16.69-13.95 34.4-30.73 5.55-5.25 11.26-10.84 16.72-16.47-5.609 22.72-11.97 40.63-17.63 63.14-9.62 38.191-25.51 51.221-63.72 67.881z" fill="#9c5b16"/><path d="M224.09 218.83c-10.16-9.79-39.38-2.53-50.16 8.44-.25.24-.48.49-.7.74-1.94-17.88-1.97-33.21 1.76-41.08 9.92-20.92 23.18-18.44 31.67-13.69 5.04 2.81 8.4 6.42 8.4 6.42l9.03 39.17zM612.25 198.62l24.71-22.49 5.01-4.56s34.8-7.6 28.8 28.8c-.779 4.7-3.75 10.6-8.22 17.2-3.689 5.46-8.399 11.41-13.729 17.56-1.881-15.14-22.331-38.83-36.571-36.51z" fill="#f0037f"/><path d="M188.47 436.12v-.01l.55-.011c1.14 31.96 11.82 44.33 11.82 93.48 0 4.03.29 8.1.85 12.2-42.95-24.28-71.65-79.7-71.65-134.44 3.91 16.67 7.22 28.68 7.42 29.41v.01c-.03 8.11 3.81 16.101 10.98 21.07 11.58 8.02 27.47 5.15 35.5-6.44a25.33 25.33 0 0 0 4.53-15.269z" fill="#9c5b16"/><path d="M687.59 429.92c-5.46 5.63-11.17 11.22-16.72 16.47l-.08-.08c-1.12-12.93-19.68-34.22-31.58-30.27l-.84-.92 31.66-28.82c11.71-1.9 28.54 17.57 30.09 30.03-3.86 4.45-8.101 9.03-12.521 13.58l-.009.01zM683.99 311c-9.3 10.71-20.7 22.13-31.53 32.39l-.09-.09c-1.21-13.93-21.22-36.89-34.061-32.64l-.899-.99 34.149-31.07c12.641-2.03 30.771 18.98 32.431 32.4z" fill="#fff"/><path d="M619.73 362.46c0 5.23-1.62 10.08-4.381 14.08-4.479 6.49-11.97 10.75-20.449 10.75-13.71 0-24.841-11.12-24.841-24.83 0-9.73 5.601-18.15 13.761-22.22 3.33-1.67 7.09-2.61 11.08-2.61 13.71 0 24.83 11.12 24.83 24.83zM639.21 416.04c11.9-3.95 30.46 17.34 31.58 30.27l.08.08c-17.71 16.78-33.75 30.19-34.4 30.73 2.55-3.71 4.05-8.2 4.05-13.05 0-12.71-10.31-23.03-23.029-23.03-2.41 0-4.74.37-6.92 1.06-.11-.449-.23-.909-.351-1.359l28.15-25.62.84.919zM588.56 81.25c8.96 0 16.221 7.26 16.221 16.22v19.06c0 7-4.44 12.97-10.65 15.24-1.74.63-3.61.98-5.57.98l-13.38-1.12a16.171 16.171 0 0 0-11.89-5.19l-33.41 1.38-5.99-.5L524 126l.93-42.12 63.63-2.63z" fill="#f0037f"/><path d="M618.31 310.66c12.841-4.25 32.851 18.71 34.061 32.64l.09.09c-19.17 18.15-36.53 32.66-37.11 33.15 2.761-4 4.381-8.85 4.381-14.08 0-13.71-11.12-24.83-24.83-24.83-3.99 0-7.75.94-11.08 2.61l33.59-30.57.898.99zM575.18 131.63c2.69 2.9 4.33 6.77 4.33 11.03v19.07c0 8.96-7.26 16.22-16.22 16.22l-65.5-5.5.21-2.45 1.65-40.92 30.229-1.26 45.301 3.81z" fill="#f0037f"/><path d="M648.82 235.13c-10.48 12.09-23.351 24.97-35.561 36.53l-.09-.1c-1.36-15.71-23.93-41.6-38.39-36.8l-1.021-1.12 38.49-35.02c14.242-2.32 34.692 21.37 36.572 36.51z" fill="#fff"/><path d="M576.38 293.16c0 5.88-1.82 11.34-4.91 15.84-.01 0-.01.01-.01.01-5.05 7.33-13.51 12.14-23.08 12.14-15.46 0-28-12.53-28-27.99 0-10.98 6.311-20.47 15.5-25.06 3.76-1.88 8.01-2.94 12.5-2.94 15.46 0 28 12.53 28 28z" fill="#f0037f"/><path d="M613.26 271.66c-21.35 20.23-40.7 36.43-41.79 37.34 3.09-4.5 4.91-9.96 4.91-15.84 0-15.47-12.54-28-28-28-4.49 0-8.74 1.06-12.5 2.94l37.88-34.46 1.021 1.12c14.46-4.8 37.029 21.09 38.39 36.8l.089.1zM519.97 193.28c8.95 0 16.221 7.27 16.221 16.22v19.07c0 8.96-7.271 16.22-16.221 16.22l-63.95-5.37.311-43.5 63.639-2.64z" fill="#f0037f"/><path fill="#fff" d="M524.93 83.88L524 126l-.11 1.32-71.72-6.02-61.54 5.39V84.32l59.64 2.65zM477.29 409.02c8.42 3.6 15.96 9.34 22.43 16.17l-.489.46c-8.961 8.28-19.29 15.67-31.221 19.92-2.8 1-6 1.67-9.319 2.029l-.601-5.899c11.46-1.11 20.4-10.37 20.4-21.58 0-4.5.42-5.66-2.021-9.13l.821-1.97z"/><path d="M451.03 420.93c0-2.97 2.22-5.4 4.96-5.4 2.75 0 4.96 2.43 4.96 5.4 0 3-2.21 5.43-4.96 5.43-2.74 0-4.96-2.43-4.96-5.43z"/><path d="M455.99 426.36c2.75 0 4.96-2.43 4.96-5.43 0-2.97-2.21-5.4-4.96-5.4-2.74 0-4.96 2.43-4.96 5.4 0 3 2.22 5.43 4.96 5.43zm-.01-17.59c7.649 0 13.84 5.45 13.84 12.16 0 6.74-6.19 12.18-13.84 12.18-7.65 0-13.82-5.44-13.82-12.18 0-6.71 6.17-12.16 13.82-12.16z"/><path fill="#fff" d="M456.33 195.92l-.31 43.5-25.42-2.13-11-.93-36.02-3.02-61.54 5.39v-42.37l59.63 2.65zM455.77 441.81c.78 0 1.561-.04 2.32-.109l.601 5.899c-5.24.591-10.771.391-15.41-.56-3.2-.66-7.15-1.45-10.11-2.82-2.479-1.14-4.61-3.83-6.939-4.91-3.48-1.619-7.38-.189-10.621-2.199-3.81-2.351-.92-5.03 1.25-8.88 3.59-6.351 9.11-11.791 15.59-15.811l1.12 1.87c-1.4 2.8-.511 2.5-.511 5.83 0 11.96 10.17 21.69 22.71 21.69z"/><path d="M455.98 433.11c7.649 0 13.84-5.44 13.84-12.18 0-6.71-6.19-12.16-13.84-12.16-7.65 0-13.82 5.45-13.82 12.16 0 6.74 6.17 12.18 13.82 12.18zm22.51-12.99c0 11.21-8.94 20.47-20.4 21.58-.76.069-1.54.109-2.32.109-12.539 0-22.71-9.729-22.71-21.689 0-3.33-.89-3.03.511-5.83l-1.12-1.87c7.33-4.54 15.899-7.28 24.3-7.48 7.31-.16 14.17 1.35 20.54 4.08l-.82 1.97c2.439 3.47 2.019 4.63 2.019 9.13z" fill="#abda4d"/><path fill="#fff" d="M365.36 129.52l59.64 2.65 74.65-3.09L498 170l-.21 2.45-70.89-5.95-61.54 5.39z"/><path d="M360.75 129.31l4.61.21v42.37l-69.13 6.06c-8.96 0-16.22-7.26-16.22-16.22v-19.07c0-8.95 7.26-16.22 16.22-16.22l12.9.57c2.97 3.51 7.42 5.74 12.38 5.74l39.24-3.44z" fill="#f0037f"/><path d="M374.85 596.37c7.14-18 56.86-6.54 70.1-7.89-2.15 3.25-4.24 6.659-6.351 10.109-25.379 11.47-40.07 11.61-58.05 13.04-17.85 1.4-44.31 4.38-62.1-.84l-.01.01c-4.58-6.03-3.86-11.76 10.66-15.97 9.04-2.63 19.85-4.66 29.14-2.51 4.931 1.131 12.161 5.871 16.611 4.051z" fill="#f0947d"/><path d="M631.07 687.04c18.35 21.31 76.16 37.479 102.37 47.06L342.5 767.96c-.33-16.29-2.51-40.81-13.6-52.05.21.17.42.34.63.52 33.33 28.2 82.16 14.03 120.93 9.311 51.61-6.3 71.58-61.17 107.49-92.271 15.49-13.41 32.069-27.239 40.63-44.739l1.68.31c-.36 21.859 30.81 97.999 30.81 97.999z" fill="#ffeec8"/><path d="M322.04 196.36v42.37l-69.13 6.06c-8.96 0-16.22-7.26-16.22-16.22V209.5c0-8.95 7.26-16.22 16.22-16.22l69.13 3.08z" fill="#f0037f"/><path d="M380.55 611.63c17.98-1.43 32.67-1.57 58.05-13.04-9.1 14.851-18.649 30.521-34.83 37.67-21.93 9.7-45.43 7.79-63.48-7.14-6.69-5.521-17.11-12.08-21.85-18.32l.01-.01c17.79 5.22 44.25 2.24 62.1.84z" fill="#f0947d"/><path d="M300.75 434.59c2.17 3.851 5.06 6.53 1.25 8.88-3.24 2.011-7.15.59-10.62 2.2-2.33 1.09-4.46 3.771-6.95 4.91-2.95 1.38-6.9 2.16-10.11 2.83-4.63.95-10.15 1.14-15.4.56l.6-5.91c.76.07 1.54.11 2.32.11 12.54 0 22.71-9.729 22.71-21.689 0-3.32.89-3.021-.52-5.82l1.15-1.86c6.47 4.019 11.98 9.439 15.57 15.789z" fill="#fff"/><path d="M256.66 427.29c0 3 2.21 5.43 4.96 5.43 2.74 0 4.96-2.43 4.96-5.43 0-2.97-2.22-5.39-4.96-5.39-2.75 0-4.96 2.42-4.96 5.39zm4.97-12.16c7.65 0 13.82 5.45 13.82 12.16 0 6.74-6.17 12.18-13.82 12.18s-13.84-5.439-13.84-12.18c0-6.71 6.19-12.16 13.84-12.16z"/><path d="M261.62 421.9c2.74 0 4.96 2.42 4.96 5.39 0 3-2.22 5.43-4.96 5.43-2.75 0-4.96-2.43-4.96-5.43 0-2.97 2.21-5.39 4.96-5.39z"/><path d="M275.45 427.29c0-6.71-6.17-12.16-13.82-12.16s-13.84 5.45-13.84 12.16c0 6.74 6.19 12.18 13.84 12.18s13.82-5.44 13.82-12.18zm-14.59-15.98c8.41.2 16.98 2.94 24.32 7.49l-1.15 1.86c1.41 2.8.52 2.5.52 5.82 0 11.96-10.17 21.689-22.71 21.689-.78 0-1.56-.04-2.32-.11-11.46-1.109-20.4-10.369-20.4-21.579 0-4.5-.42-5.661 2.03-9.121l-.81-1.99c6.36-2.719 13.22-4.219 20.52-4.059z" fill="#abda4d"/><path d="M241.15 417.36c-2.45 3.46-2.03 4.62-2.03 9.121 0 11.21 8.94 20.47 20.4 21.579l-.6 5.91c-3.32-.37-6.52-1.04-9.32-2.04-11.93-4.25-22.26-11.64-31.22-19.92l-.49-.46c6.48-6.83 14.02-12.57 22.45-16.18l.81 1.99zM224.09 218.83l11.69 50.71-1.48.34c-9.16-12.19-42.46-3.76-52.52 8.37l-.14.03c-3.41-16.26-6.61-33.94-8.35-49.69.21-.44.43-.88.64-1.32 10.78-10.97 40-18.23 50.16-8.44z" fill="#fff"/><path d="M194.74 332.84s-6.9-24.93-13.1-54.56l.14-.03c10.06-12.13 43.36-20.56 52.52-8.37l1.48-.34 11.5 49.9a27.904 27.904 0 0 0-8.6-9.54c-12.71-8.81-30.15-5.65-38.96 7.06a27.878 27.878 0 0 0-4.98 15.88zM188.47 436.12c.16 5.26-1.3 10.62-4.53 15.27-8.03 11.591-23.92 14.46-35.5 6.44-7.17-4.97-11.01-12.96-10.98-21.07v-.01c.02-4.98 1.49-10.02 4.54-14.42 8.03-11.57 23.92-14.45 35.5-6.43 3.36 2.32 5.98 5.31 7.82 8.67a25.643 25.643 0 0 1 3.12 10.81c.02.25.02.49.03.73v.01zM155.98 297.25l8.22 35.67c-9.47-9.11-37.06-1.99-46.33 8.36-1.77-16.28-1.79-30.25 1.61-37.42 9.52-20.09 22.43-16.48 30.07-11.74 3.9 2.41 6.43 5.13 6.43 5.13z" fill="#f0037f"/><path d="M174.85 379.12l10.47 45.45a25.231 25.231 0 0 0-7.82-8.67c-11.58-8.02-27.47-5.14-35.5 6.43a25.426 25.426 0 0 0-4.54 14.42c-.2-.73-3.51-12.74-7.42-29.41-1.46-6.22-3.01-13.08-4.5-20.25l.12-.03c9.17-11.05 39.5-18.73 47.85-7.63l1.34-.31z" fill="#f0037f"/><path d="M174.85 379.12l-1.34.31c-8.35-11.1-38.68-3.42-47.85 7.63l-.12.03h-.01c-3.14-15-6.09-31.32-7.66-45.81 9.27-10.35 36.86-17.47 46.33-8.36l10.65 46.2z" fill="#fff"/><g fill="none"><path d="M396.95 392.13c19.2-31.99 65.89-37.09 92.62-26.66 14.33 5.6 23.069 12.23 26.84 16M296.18 380.33c-25.41-22.66-74.92-19.21-96.99 4.47a43.013 43.013 0 0 0-3.26 3.91M327.9 399.07c27.87 20.85 13.12 91.46 6.1 112.52-2.25 6.72-11.85 18.63-5.09 25.59 3.27 3.38 7.47 1.57 11.57 2.2 4.25.65 6.79 1.09 11.68 2.9 9.43 3.52 16.3 5.63 24.8-.53 9.2-6.68 8.52-11.4 22.1-10.75 11.44.55 24.08 3.77 23.52-13.83-.39-12.12-9.52-11.97-16.03-20.51M374.07 599.45c.13-1.11.39-2.141.78-3.08 7.14-18 56.86-6.54 70.1-7.89-2.15 3.25-4.24 6.659-6.351 10.109-9.1 14.851-18.649 30.521-34.83 37.67-21.93 9.7-45.43 7.79-63.48-7.14-6.69-5.521-17.11-12.08-21.85-18.32-4.58-6.03-3.86-11.76 10.66-15.97 9.04-2.63 19.85-4.66 29.14-2.51 4.93 1.13 12.16 5.87 16.61 4.05.75-.311 1.41-.8 1.98-1.521" stroke="#231f20" stroke-width="14"/><path d="M318.45 610.79c17.79 5.22 44.25 2.24 62.1.84 17.98-1.43 32.67-1.57 58.05-13.04" stroke="#231f20" stroke-width="14"/><path d="M328.9 715.91c11.09 11.24 13.27 35.76 13.6 52.05.05 1.93.06 3.75.06 5.41M325.58 713.15c1.17.779 2.26 1.689 3.27 2.71" stroke="#231f20" stroke-width="21"/><path d="M615.29 492.35c-.78 28.08-5.95 54.391-9.05 68.591-1.25 5.729-2.16 9.479-2.32 10.59-.85 6.14-2.72 11.84-5.34 17.2-8.561 17.5-25.14 31.329-40.63 44.739-35.91 31.101-55.88 85.971-107.49 92.271-38.77 4.72-87.6 18.89-120.93-9.311-.21-.18-.42-.35-.63-.52a.115.115 0 0 0-.05-.05c-1.07-.9-2.16-1.811-3.27-2.71-.02-.021-.05-.04-.08-.061-19.98-16.29-43.79-31.82-59.76-51.92-9.94-12.51-57.19-67.68-64.05-119.39-.56-4.101-.85-8.17-.85-12.2 0-49.15-10.68-61.521-11.82-93.48 0-.239-.01-.479-.02-.729 0-.311-.01-.62-.02-.93-.41-16.8 3.24-33.99 10.21-49.641 3.99-8.97 9.07-17.44 15.09-25.04.04-.04.07-.08.1-.12.21-.27.32-.41.38-.51 0 0-.01.02-.02.03-.07.05-.25.26-.42.46-.18.22-.36.43-.38.48 0 0 .01 0 .01-.01.04-.02.13-.12.33-.33" stroke="#000" stroke-width="21"/><path d="M430.6 237.3c21.66 22.99 110.71 117.32 159.41 166.03 9.95 9.96 16.33 23 20.21 37.41.12.45.24.91.351 1.359.08.29.06.28-.021.011-.069-.21-.21-.66-.399-1.311-.811-2.68-2.44-8.22-2.15-6.8M250.62 330.5c34.58-20.48 121.76-62.57 168.98-94.13M178.67 217.89c-1.61 3.04-3.19 6.17-4.74 9.38-.21.44-.43.88-.64 1.32-9.15 19.13-17.21 40.91-23.74 63.53v.02M305.08 101.93c-36.92 14.71-72.86 41.27-98.42 71.31-.23.25-.45.51-.66.76M304.87 102c.07-.03.25-.1.42-.16.19-.08.37-.15.43-.16.02-.01.03-.02 0 0-.05.02-.18.07-.43.17M304.86 102.01c-.04.01-.04.01 0 0z" stroke="#231f20" stroke-width="21"/><path d="M305.29 101.85c-.07.03-.14.06-.21.08-.1.03-.17.06-.21.07l-.01.01M636.95 176.12c-12.69-16.91-27.07-31.8-42.82-44.35a.304.304 0 0 1-.07-.05M676 250c-.43-1.33 1.58 3.49 2.1 4.57.04.1.07.17.101.2.01.02.01.02 0 0 0-.04-.021-.1-.061-.2-4.47-12.92-9.689-25.28-15.59-37-.729-1.46-1.47-2.91-2.229-4.35M696 356c0-1.41.48 6.45.6 7.72.011.21.021.24.021 0-.271-21.12-2.271-41.48-5.851-60.93a247.3 247.3 0 0 0-.92-4.81M606.24 560.94c38.21-16.66 54.1-29.69 63.72-67.881 5.66-22.51 12.021-40.42 17.63-63.14M600.26 589.04c-.359 21.86 30.811 98 30.811 98 18.35 21.31 76.16 37.479 102.37 47.06" stroke="#231f20" stroke-width="21"/><path d="M213.74 436.22c1.33-1.6 2.71-3.16 4.15-4.67 6.48-6.83 14.02-12.57 22.45-16.18 6.36-2.72 13.22-4.22 20.52-4.06 8.41.2 16.98 2.94 24.32 7.49 6.47 4.02 11.98 9.44 15.57 15.79 2.17 3.851 5.06 6.53 1.25 8.88-3.24 2.011-7.15.59-10.62 2.2-2.33 1.09-4.46 3.771-6.95 4.91-2.95 1.38-6.9 2.16-10.11 2.83-4.63.95-10.15 1.14-15.4.56-3.32-.37-6.52-1.04-9.32-2.04-11.93-4.25-22.26-11.64-31.22-19.92" stroke="#231f20" stroke-width="7" stroke-linecap="square" stroke-miterlimit="10"/><path d="M284.03 420.66c1.41 2.8.52 2.5.52 5.82 0 11.96-10.17 21.689-22.71 21.689-.78 0-1.56-.04-2.32-.11-11.46-1.109-20.4-10.369-20.4-21.579 0-4.5-.42-5.661 2.03-9.121M503.87 429.86a87.162 87.162 0 0 0-4.15-4.67c-6.47-6.83-14.01-12.57-22.43-16.17-6.37-2.73-13.23-4.24-20.54-4.08-8.4.2-16.97 2.94-24.3 7.48-6.48 4.02-12 9.46-15.59 15.811-2.17 3.85-5.06 6.529-1.25 8.88 3.24 2.01 7.14.58 10.621 2.199 2.329 1.08 4.46 3.771 6.939 4.91 2.96 1.37 6.91 2.16 10.11 2.82 4.64.95 10.17 1.15 15.41.56 3.319-.359 6.52-1.029 9.319-2.029 11.931-4.25 22.26-11.641 31.221-19.92" stroke="#231f20" stroke-width="7" stroke-linecap="square" stroke-miterlimit="10"/><path d="M433.57 414.29c-1.4 2.8-.511 2.5-.511 5.83 0 11.96 10.171 21.689 22.71 21.689.78 0 1.561-.04 2.32-.109 11.46-1.11 20.4-10.37 20.4-21.58 0-4.5.42-5.66-2.021-9.13" stroke="#231f20" stroke-width="7" stroke-linecap="square" stroke-miterlimit="10"/><path d="M456.33 195.92l63.64-2.64c8.95 0 16.221 7.27 16.221 16.22v19.07c0 8.96-7.271 16.22-16.221 16.22l-63.95-5.37-25.42-2.13-11-.93-36.02-3.02-61.54 5.39-69.13 6.06c-8.96 0-16.22-7.26-16.22-16.22V209.5c0-8.95 7.26-16.22 16.22-16.22l69.13 3.08 59.63 2.65 74.66-3.09zM322.04 196.36v42.37" stroke="#231f20" stroke-width="21"/><path stroke="#231f20" stroke-width="21" d="M456.33 195.92l-.31 43.5L456 242M575.18 131.63c2.69 2.9 4.33 6.77 4.33 11.03v19.07c0 8.96-7.26 16.22-16.22 16.22l-65.5-5.5-70.89-5.95-61.541 5.39-69.13 6.06c-8.96 0-16.22-7.26-16.22-16.22v-19.07c0-8.95 7.26-16.22 16.22-16.22l12.9.57 51.62 2.3 4.61.21 59.64 2.65 74.65-3.09 30.229-1.26 33.41-1.38c4.702 0 8.932 2 11.892 5.19zM365.36 129.52v42.37M499.65 129.08L498 170"/><path d="M524.93 83.88l63.63-2.63c8.96 0 16.221 7.26 16.221 16.22v19.06c0 7-4.44 12.97-10.65 15.24-1.74.63-3.61.98-5.57.98l-13.38-1.12-45.3-3.81-5.99-.5-71.72-6.02-61.54 5.39-29.88 2.62-39.24 3.44c-4.96 0-9.41-2.23-12.38-5.74-2.4-2.83-3.84-6.48-3.84-10.48V97.47c0-8.96 7.26-16.22 16.22-16.22l69.12 3.07 59.64 2.65 74.659-3.09zM390.63 84.32v42.37M524.93 83.88L524 126M571.46 309.01c-5.05 7.33-13.51 12.14-23.08 12.14-15.46 0-28-12.53-28-27.99 0-10.98 6.311-20.47 15.5-25.06 3.76-1.88 8.01-2.94 12.5-2.94 15.46 0 28 12.53 28 28 0 5.88-1.82 11.34-4.91 15.84" stroke="#231f20" stroke-width="21"/><path d="M662.55 217.57c-3.689 5.46-8.399 11.41-13.729 17.56-10.48 12.09-23.351 24.97-35.561 36.53-21.35 20.23-40.7 36.43-41.79 37.34-.01 0-.01.01-.01.01-.03.02-.04.03-.04.03M535.83 268.15l.05-.05 37.88-34.46 38.49-35.02 24.71-22.49 5.01-4.56s34.8-7.6 28.8 28.8c-.779 4.7-3.75 10.6-8.22 17.2M574.78 234.76c14.46-4.8 37.029 21.09 38.39 36.8" stroke="#231f20" stroke-width="21"/><path d="M610.5 199.04c.57-.19 1.15-.33 1.75-.42 14.24-2.32 34.69 21.37 36.57 36.51.02.24.05.48.069.71M583.82 340.24c3.33-1.67 7.09-2.61 11.08-2.61 13.71 0 24.83 11.12 24.83 24.83 0 5.23-1.62 10.08-4.381 14.08-4.479 6.49-11.97 10.75-20.449 10.75-13.71 0-24.841-11.12-24.841-24.83.001-9.73 5.601-18.15 13.761-22.22z" stroke="#231f20" stroke-width="21"/><path d="M583.78 340.28l.04-.04 33.59-30.57 34.149-31.07 26.36-23.99s.061-.02.18-.04h.04c2.721-.53 30.38-5.12 25.311 25.58-.96 5.86-5.771 13.81-12.681 22.64-2.09 2.67-4.369 5.41-6.779 8.21-9.3 10.71-20.7 22.13-31.53 32.39-19.17 18.15-36.53 32.66-37.11 33.15-.01.01-.02.01-.02.01M618.31 310.66c12.841-4.25 32.851 18.71 34.061 32.64" stroke="#231f20" stroke-width="21"/><path d="M649.99 278.98c.51-.17 1.04-.3 1.569-.38 12.641-2.03 30.771 18.98 32.431 32.4l.06.62M636.45 477.14c-4.15 6.021-11.09 9.96-18.96 9.96-.601 0-1.2-.02-1.79-.08-11.891-.899-21.25-10.829-21.25-22.949 0-9.04 5.21-16.86 12.8-20.63 1.05-.53 2.16-.971 3.3-1.33.01-.011.01-.011.021-.011a22.95 22.95 0 0 1 6.92-1.06c12.72 0 23.029 10.32 23.029 23.03 0 4.85-1.5 9.34-4.05 13.05" stroke="#231f20" stroke-width="21"/><path d="M687.6 429.91l-.01.01c-5.46 5.63-11.17 11.22-16.72 16.47-17.71 16.78-33.75 30.19-34.4 30.73l-.02.02M607.17 443.51l.08-.069 2.9-2.641.069-.06 28.15-25.62 31.66-28.82 24.45-22.25s.8-.18 2.119-.33h.021c6.55-.75 25.66-.89 21.55 24.02-1.17 7.06-8.37 17.41-18.05 28.59-3.86 4.45-8.101 9.03-12.521 13.58M639.21 416.04c11.9-3.95 30.46 17.34 31.58 30.27" stroke="#231f20" stroke-width="21"/><path d="M668.59 386.65c.47-.16.95-.27 1.44-.35 11.71-1.9 28.54 17.57 30.09 30.03l.06.59M247.28 319.44a27.904 27.904 0 0 0-8.6-9.54c-12.71-8.81-30.15-5.65-38.96 7.06a27.878 27.878 0 0 0-4.98 15.88c-.02 8.89 4.19 17.64 12.05 23.08 2.37 1.65 4.91 2.87 7.53 3.7.02.01.04.01.06.02 11.37 3.56 24.22-.47 31.36-10.78a27.851 27.851 0 0 0 4.88-18.36c-.33-3.86-1.46-7.63-3.34-11.06z" stroke="#231f20" stroke-width="21"/><path d="M247.29 319.5l-.01-.06-11.5-49.9-11.69-50.71-9.03-39.17s-3.36-3.61-8.4-6.42c-8.49-4.75-21.75-7.23-31.67 13.69-3.73 7.87-3.7 23.2-1.76 41.08l.06.58c1.74 15.75 4.94 33.43 8.35 49.69 6.2 29.63 13.1 54.56 13.1 54.56M234.3 269.88c-9.16-12.19-42.46-3.76-52.52 8.37" stroke="#231f20" stroke-width="21"/><path d="M225.28 220.17c-.36-.48-.76-.93-1.19-1.34-10.16-9.79-39.38-2.53-50.16 8.44-.25.24-.48.49-.7.74-.16.18-.32.36-.47.54M137.46 436.76c-.03 8.11 3.81 16.101 10.98 21.07 11.58 8.02 27.47 5.15 35.5-6.44a25.334 25.334 0 0 0 4.53-15.27v-.01c-.01-.24-.01-.48-.03-.73-.23-3.77-1.28-7.47-3.12-10.81a25.231 25.231 0 0 0-7.82-8.67c-11.58-8.02-27.47-5.14-35.5 6.43a25.426 25.426 0 0 0-4.54 14.42" stroke="#231f20" stroke-width="21"/><path d="M130.04 407.34c3.91 16.67 7.22 28.68 7.42 29.41v.01c.01.021.01.03.01.03" stroke="#231f20" stroke-width="19.198"/><path d="M185.34 424.65l-.02-.08-10.47-45.45-10.65-46.2-8.22-35.67s-2.53-2.72-6.43-5.13c-7.64-4.74-20.55-8.35-30.07 11.74-3.4 7.17-3.38 21.14-1.61 37.42 1.57 14.49 4.52 30.81 7.66 45.81h.01c1.49 7.17 3.04 14.03 4.5 20.25M173.51 379.43c-8.35-11.1-38.68-3.42-47.85 7.63" stroke="#231f20" stroke-width="21"/><path d="M165.3 334.15c-.33-.44-.7-.85-1.1-1.23-9.47-9.11-37.06-1.99-46.33 8.36-.15.17-.29.33-.43.5M130.04 407.34c0 54.74 28.7 110.16 71.65 134.44.2.12.4.229.6.34" stroke="#231f20" stroke-width="21"/></g><path fill="none" d="M0 0h850.394v850.394H0z"/></svg>