<svg xmlns="http://www.w3.org/2000/svg" width="850.394" height="850.394" viewBox="0 0 850.394 850.394" overflow="visible"><path d="M508.99 266.87c-1.08.8-2.13 1.65-3.141 2.55-2.72-47.5 27.561-72.65 71.69-76.76 48.47-4.51 91.39 30.72 95.84 78.67 4.46 47.92-28.55 92.16-88.06 89.68 27.109-9.73 43.939-38.55 38.609-71.77-5.989-37.34-37.72-63.29-70.87-57.98-19.948 3.2-35.858 17-44.068 35.61z" fill="#c8c8c8"/><path d="M585.32 361.01a59.256 59.256 0 0 1-10.58 2.72c-5.03.79-10 .88-14.91.32 21.09-9.49 33.979-33.7 29.84-59.41-4.85-30.31-31.5-51.25-59.5-46.76-7.91 1.27-15.08 4.43-21.18 8.99 8.21-18.61 24.12-32.41 44.069-35.61 33.15-5.31 64.881 20.64 70.87 57.98 5.331 33.22-11.499 62.04-38.609 71.77z" fill="#c8c8c8"/><path d="M505.85 269.42c1.011-.9 2.061-1.75 3.141-2.55 6.1-4.56 13.27-7.72 21.18-8.99 28-4.49 54.65 16.45 59.5 46.76 4.14 25.71-8.75 49.92-29.84 59.41a47.702 47.702 0 0 1-12.061 3.6c-28.01 4.5-54.64-16.44-59.51-46.74-3.25-20.25 4.04-39.56 17.59-51.49zm54.39 57.54v-16.8c0-6.99-6.16-7.5-6.16-7.5s-37.04-6.47-41.57-6.47c-4.529 0-5.439 6.59-5.439 6.59s-.311 9.19-.311 15.65c0 8.27 5.351 9.29 5.351 9.29s38.67 5.96 42.79 5.96c5.339 0 5.339-6.72 5.339-6.72z" fill="#c8c8c8"/><path d="M645.34 151.18c13.82 0 25.021 11.95 25.021 26.68s-11.2 26.68-25.021 26.68c-13.81 0-25.01-11.95-25.01-26.68s11.2-26.68 25.01-26.68z" fill="#fff"/><path d="M779.94 146.07c1.63 23.5 1.56 209.64 1.56 209.64s-5.31 13.33-24.88 24.89c-14.98 8.86-24.851 16.01-28.33 18.61 5.81-5.01 9.65-12.6 9.65-23.93V191.19s4.31-43.67-22.23-46.24c-22.13-2.14-306.8-48.01-306.8-48.01s-23.04-2.28-37.35 7.11c-4.86 3.19-7.75 7.42-9.45 11.61.11-16.86 33.25-31.99 63.7-42.73 14.86-5.25 29.35-4.45 29.35-4.45l272.99 34.68s48.9.86 51.79 42.91z" fill="#c8c8c8"/><path d="M673.38 271.33c-4.45-47.95-47.37-83.18-95.84-78.67-44.13 4.11-74.41 29.26-71.69 76.76-13.55 11.93-20.84 31.24-17.59 51.49 4.87 30.3 31.5 51.24 59.51 46.74 4.25-.68 8.28-1.9 12.061-3.6 4.91.56 9.88.47 14.91-.32 3.67-.59 7.2-1.51 10.58-2.72 59.509 2.48 92.519-41.76 88.059-89.68zM362.11 115.66c1.7-4.19 4.59-8.42 9.45-11.61 14.31-9.39 37.35-7.11 37.35-7.11s284.67 45.87 306.8 48.01c26.54 2.57 22.23 46.24 22.23 46.24v184.09c0 11.33-3.841 18.92-9.65 23.93-17.88 15.43-54.38 6.3-54.38 6.3s-232.99-42.68-261.44-46.24c-28.45-3.56-32.9-10.68-42.68-20.45C360 329.03 360 289.9 360 289.9V131.61s-1.15-7.9 2.11-15.95zm258.22 62.2c0 14.73 11.2 26.68 25.01 26.68 13.82 0 25.021-11.95 25.021-26.68s-11.2-26.68-25.021-26.68c-13.81 0-25.01 11.95-25.01 26.68zm-56.68-5.89v-21.68c0-9-9.551-9.67-9.551-9.67s-57.29-8.34-64.29-8.34-8.43 8.51-8.43 8.51-.479 11.84-.479 20.17c0 10.66 8.27 12.01 8.27 12.01s59.83 7.67 66.19 7.67c8.29 0 8.29-8.67 8.29-8.67z" fill="#c8c8c8"/><path fill="#fff" d="M395 780.75L368 700l-.01-.04-.51-2.68 27.02-5.17.47 2.44 3.92 11.35 201.83-38.66-70.14-203.05-163.8 31.38-2.43.84-10.49-30.36.14-.05 194.38-36.41 104.27 301.8z"/><path d="M367.48 697.28l-195.49 37.44L67.72 432.95l257.65-49.37 28.49 82.47 10.49 30.36 65.29 188.97-35.14 6.73-27.02 5.17zm10.23-76.06l-70.14-203.04-201.84 38.67 70.15 203.03 201.83-38.66z" fill="#fff"/><path fill="#fff5b4" d="M530.58 464.19l70.14 203.05-201.83 38.66-3.92-11.35-.47-2.44 35.14-6.73-65.29-188.97 2.43-.84zM307.57 418.18l70.14 203.04-201.83 38.66-70.15-203.03z"/><path d="M563.65 150.29v21.68s0 8.67-8.29 8.67c-6.36 0-66.19-7.67-66.19-7.67s-8.27-1.35-8.27-12.01c0-8.33.479-20.17.479-20.17s1.43-8.51 8.43-8.51 64.29 8.34 64.29 8.34 9.551.67 9.551 9.67zM560.24 310.16v16.8s0 6.72-5.34 6.72c-4.12 0-42.79-5.96-42.79-5.96s-5.351-1.02-5.351-9.29c0-6.46.311-15.65.311-15.65s.91-6.59 5.439-6.59c4.53 0 41.57 6.47 41.57 6.47s6.161.51 6.161 7.5z" fill="#231f20"/><g fill="none" stroke="#231f20"><path stroke-width="21" d="M354 466l194.38-36.41 104.27 301.8L395 780.75 368 700"/><path stroke-width="14" d="M366.78 495.57l163.8-31.38 70.14 203.05-201.83 38.66-3.92-11.35"/><path d="M362.11 115.66c-3.26 8.05-2.11 15.95-2.11 15.95V289.9s0 39.13 9.79 48.92c9.78 9.77 14.23 16.89 42.68 20.45 28.45 3.56 261.44 46.24 261.44 46.24s36.5 9.13 54.38-6.3c5.81-5.01 9.65-12.6 9.65-23.93V191.19s4.31-43.67-22.23-46.24c-22.13-2.14-306.8-48.01-306.8-48.01s-23.04-2.28-37.35 7.11c-4.86 3.19-7.75 7.42-9.45 11.61z" stroke-width="21"/><path d="M670.36 177.86c0 14.73-11.2 26.68-25.021 26.68-13.81 0-25.01-11.95-25.01-26.68s11.2-26.68 25.01-26.68c13.821 0 25.021 11.95 25.021 26.68z" stroke-width="21"/><path d="M726.9 400.27s.47-.37 1.39-1.06c3.479-2.6 13.35-9.75 28.33-18.61 19.57-11.56 24.88-24.89 24.88-24.89s.07-186.14-1.56-209.64c-2.891-42.05-51.79-42.91-51.79-42.91L455.16 68.48s-14.49-.8-29.35 4.45c-30.45 10.74-63.59 25.87-63.7 42.73v.08" stroke-width="21"/><path d="M481.38 140.79s1.43-8.51 8.43-8.51 64.29 8.34 64.29 8.34 9.551.67 9.551 9.67v21.68s0 8.67-8.29 8.67c-6.36 0-66.19-7.67-66.19-7.67s-8.27-1.35-8.27-12.01c-.001-8.33.479-20.17.479-20.17z" stroke-width="17.701"/><path d="M507.07 302.78s.91-6.59 5.439-6.59c4.53 0 41.57 6.47 41.57 6.47s6.16.51 6.16 7.5v16.8s0 6.72-5.34 6.72c-4.12 0-42.79-5.96-42.79-5.96s-5.351-1.02-5.351-9.29c.002-6.46.312-15.65.312-15.65z" stroke-width="21"/><path d="M508.99 266.87c6.1-4.56 13.27-7.72 21.18-8.99 28-4.49 54.65 16.45 59.5 46.76 4.14 25.71-8.75 49.92-29.84 59.41a47.702 47.702 0 0 1-12.061 3.6c-28.01 4.5-54.64-16.44-59.51-46.74-3.25-20.25 4.04-39.56 17.59-51.49 1.011-.9 2.061-1.75 3.141-2.55z" stroke-width="21"/><path d="M508.98 266.9c0-.01.01-.02.01-.03 8.21-18.61 24.12-32.41 44.069-35.61 33.15-5.31 64.881 20.64 70.87 57.98 5.33 33.22-11.5 62.04-38.609 71.77a59.256 59.256 0 0 1-10.58 2.72c-5.03.79-10 .88-14.91.32-.03 0-.07-.01-.1-.01" stroke-width="21"/><path d="M505.85 269.49v-.07c-2.72-47.5 27.561-72.65 71.69-76.76 48.47-4.51 91.39 30.72 95.84 78.67 4.46 47.92-28.55 92.16-88.06 89.68h-.141M364.35 496.41l65.29 188.97-35.14 6.73-27.02 5.17-195.49 37.44L67.72 432.95l257.65-49.37 28.49 82.47z" stroke-width="21"/><path stroke-width="14" d="M377.71 621.22l-201.83 38.66-70.15-203.03 201.84-38.67z"/></g><path fill="none" d="M0 0h850.394v850.394H0z"/></svg>