<?xml version="1.0" encoding="iso-8859-1"?>
<!-- Generator: Adobe Illustrator 12.0.1, SVG Export Plug-In . SVG Version: 6.00 Build 51448)  -->
<!DOCTYPE svg PUBLIC "-//W3C//DTD SVG 1.1//EN" "http://www.w3.org/Graphics/SVG/1.1/DTD/svg11.dtd" [
	<!ENTITY ns_svg "http://www.w3.org/2000/svg">
	<!ENTITY ns_xlink "http://www.w3.org/1999/xlink">
]>
<svg  version="1.1" id="Layer_1" xmlns="&ns_svg;" xmlns:xlink="&ns_xlink;" width="850.394" height="850.394"
	 viewBox="0 0 850.394 850.394" style="overflow:visible;enable-background:new 0 0 850.394 850.394;" xml:space="preserve">
<g>
	<g id="XMLID_3_">
		<g>
			<polygon style="fill:#FFFFFF;" points="599.39,693.72 588.78,723.58 580.3,693.72 			"/>
			<polygon style="fill:#FFFFFF;" points="267.74,131.02 276.23,160.88 257.13,160.88 			"/>
			<path style="fill:#FFFFFF;" d="M666.08,114.03v625.15c0,20.391-16.521,36.92-36.92,36.92H215.68
				c-20.39,0-36.92-16.529-36.92-36.92V114.03c0-20.38,16.53-36.91,36.92-36.91h413.48C649.56,77.12,666.08,93.65,666.08,114.03z
				 M623.45,604.56l-36.42-45.529l-34.87,47.31l36.43,44.86L623.45,604.56z M621.99,668.58v-3.5h-22.65v3.5
				c3.68,0.25,5.51,2.11,5.51,5.57c0,1.489-0.149,2.89-0.47,4.22c-0.32,1.32-0.729,2.689-1.22,4.11l-1.75,5.039h-22.65l-1.43-5.199
				c-0.57-2.051-0.98-3.75-1.22-5.09c-0.25-1.351-0.37-2.57-0.37-3.66c0-1.49,0.439-2.641,1.319-3.45
				c0.891-0.811,2.25-1.33,4.091-1.54v-3.5h-29.28v3.5c1.52,0.32,2.7,0.82,3.55,1.51c0.85,0.69,1.54,1.601,2.07,2.71
				c0.529,1.11,1.18,3,1.96,5.65l17.51,59.399h14.16l22.11-58.92c0.92-2.52,1.789-4.439,2.6-5.79c0.82-1.34,1.72-2.399,2.71-3.18
				S620.68,668.72,621.99,668.58z M564.61,420.09L421.24,240.87L283.99,427.08l143.37,176.59L564.61,420.09z M307.75,250.39
				l-36.42-45.53l-34.87,47.31l36.43,44.85L307.75,250.39z M304.66,189.52v-3.5c-1.52-0.32-2.71-0.82-3.56-1.51
				c-0.85-0.69-1.53-1.59-2.06-2.7c-0.54-1.12-1.19-3-1.97-5.65l-17.5-59.41h-14.16l-22.12,58.93c-0.92,2.51-1.79,4.44-2.6,5.78
				s-1.71,2.4-2.7,3.18c-0.99,0.78-2.14,1.24-3.45,1.38v3.5h22.65v-3.5c-3.68-0.25-5.52-2.1-5.52-5.57c0-1.48,0.16-2.89,0.48-4.21
				c0.32-1.33,0.72-2.7,1.22-4.12l1.75-5.03h22.65l1.43,5.19c0.56,2.06,0.97,3.75,1.22,5.1c0.25,1.34,0.37,2.56,0.37,3.66
				c0,1.48-0.44,2.63-1.33,3.44c-0.88,0.82-2.24,1.33-4.08,1.54v3.5H304.66z"/>
			<polygon style="fill:#ED1C24;" points="587.03,559.03 623.45,604.56 588.59,651.2 552.16,606.34 			"/>
			<path style="fill:#ED1C24;" d="M621.99,665.08v3.5c-1.311,0.14-2.46,0.6-3.45,1.38s-1.89,1.84-2.71,3.18
				c-0.811,1.351-1.68,3.271-2.6,5.79l-22.11,58.92h-14.16l-17.51-59.399c-0.78-2.65-1.431-4.54-1.96-5.65
				c-0.53-1.109-1.221-2.02-2.07-2.71c-0.85-0.689-2.03-1.189-3.55-1.51v-3.5h29.28v3.5c-1.841,0.21-3.2,0.729-4.091,1.54
				c-0.88,0.81-1.319,1.96-1.319,3.45c0,1.09,0.12,2.31,0.37,3.66c0.239,1.34,0.649,3.039,1.22,5.09l1.43,5.199h22.65l1.75-5.039
				c0.49-1.421,0.899-2.79,1.22-4.11c0.32-1.33,0.47-2.73,0.47-4.22c0-3.46-1.83-5.32-5.51-5.57v-3.5H621.99z M588.78,723.58
				l10.609-29.86H580.3L588.78,723.58z"/>
			<polygon style="fill:#ED1C24;" points="421.24,240.87 564.61,420.09 427.36,603.67 283.99,427.08 			"/>
			<polygon style="fill:#ED1C24;" points="271.33,204.86 307.75,250.39 272.89,297.02 236.46,252.17 			"/>
			<path style="fill:#ED1C24;" d="M304.66,186.02v3.5h-29.28v-3.5c1.84-0.21,3.2-0.72,4.08-1.54c0.89-0.81,1.33-1.96,1.33-3.44
				c0-1.1-0.12-2.32-0.37-3.66c-0.25-1.35-0.66-3.04-1.22-5.1l-1.43-5.19h-22.65l-1.75,5.03c-0.5,1.42-0.9,2.79-1.22,4.12
				c-0.32,1.32-0.48,2.73-0.48,4.21c0,3.47,1.84,5.32,5.52,5.57v3.5h-22.65v-3.5c1.31-0.14,2.46-0.6,3.45-1.38
				c0.99-0.78,1.89-1.84,2.7-3.18s1.68-3.27,2.6-5.78l22.12-58.93h14.16l17.5,59.41c0.78,2.65,1.43,4.53,1.97,5.65
				c0.53,1.11,1.21,2.01,2.06,2.7C301.95,185.2,303.14,185.7,304.66,186.02z M276.23,160.88l-8.49-29.86l-10.61,29.86H276.23z"/>
		</g>
		<g>
			<path style="fill:none;stroke:#231F20;stroke-width:21;" d="M666.08,739.18c0,20.391-16.521,36.92-36.92,36.92H215.68
				c-20.39,0-36.92-16.529-36.92-36.92V114.03c0-20.38,16.53-36.91,36.92-36.91h413.48c20.399,0,36.92,16.53,36.92,36.91V739.18z"/>
		</g>
	</g>
</g>
<rect style="fill:none;" width="850.394" height="850.394"/>
</svg>
