<?xml version="1.0" encoding="iso-8859-1"?>
<!-- Generator: Adobe Illustrator 12.0.1, SVG Export Plug-In . SVG Version: 6.00 Build 51448)  -->
<!DOCTYPE svg PUBLIC "-//W3C//DTD SVG 1.1//EN" "http://www.w3.org/Graphics/SVG/1.1/DTD/svg11.dtd" [
	<!ENTITY ns_svg "http://www.w3.org/2000/svg">
	<!ENTITY ns_xlink "http://www.w3.org/1999/xlink">
]>
<svg  version="1.1" id="Layer_1" xmlns="&ns_svg;" xmlns:xlink="&ns_xlink;" width="850.394" height="850.394"
	 viewBox="0 0 850.394 850.394" style="overflow:visible;enable-background:new 0 0 850.394 850.394;" xml:space="preserve">
<g id="XMLID_3_">
	<g>
		<path style="fill:#FBEE34;" d="M251.39,395.99c100.6-3.51,145.12-34.38,162.83-52.71L390.7,588.98c0,0-2.5,33.22-51.68,57.81
			c-19.27,9.64-52.45,16.43-87.75,16.83h-1.64c-36.64,0.77-68.32-7.12-87.6-16.75c-49.18-24.59-51.68-57.82-51.68-57.82L86.7,342.02
			l0.36-0.33C103.7,359.77,147.82,392.37,251.39,395.99z"/>
		<path style="fill:#ED177F;" d="M704.61,506.8c56.43,9.891,65.02,61.76,63.909,82.59c-2.67,50.17-64.359,80.641-106.109,68.49
			c-21.44-6.24-41.601-21.899-63.96-22.439c-22.21-0.521-42.71,10.77-65.04,11.77c-31.21,1.41-60.86,3.33-83.68-22.46
			c-16.021-18.1-19.261-52.42,11.76-84.51c0,0,25.68-17.13,23.54-58.9c-0.57-11.05-0.87-19.57,3.51-29.68
			c4.14-9.59,10.27-18.4,17.97-25.44c36.17-33.04,80.141-14.11,107.07,17.92c11.16,13.271,14.32,31.03,27.8,41.811
			C659.39,500.34,683.03,503.03,704.61,506.8z"/>
		<path style="fill:#ABD153;" d="M389.21,282.17c0,14.74-11.61,28.28-30.97,38.89c-28.96,11.17-66.35,17.9-107.15,17.9
			c-42.67,0-81.6-7.36-111.07-19.47c-17.7-10.36-28.21-23.3-28.21-37.32c0-34.11,62.1-61.76,138.7-61.76
			C327.11,220.41,389.21,248.06,389.21,282.17z"/>
		<path style="fill:#6EBE44;" d="M414.22,343.28c-17.71,18.33-62.23,49.2-162.83,52.71c-103.57-3.62-147.69-36.22-164.33-54.3
			c-6.52-7.08-8.82-11.93-8.82-11.93v-51.27l6.29-15.5c0.25,22.45,21.63,42.61,55.49,56.5c25.32,14.85,65.39,24.43,110.49,24.43
			c43.49,0,82.3-8.91,107.73-22.86c27.97-10.78,48.09-25.71,55.88-42.71L420,296h4.54v33.76
			C424.54,329.76,421.89,335.34,414.22,343.28z"/>
		<path style="fill:#6EBE44;" d="M396.42,225.26l17.7,53.09c-7.79,17-27.91,31.93-55.88,42.71c19.36-10.61,30.97-24.15,30.97-38.89
			c0-34.11-62.1-61.76-138.7-61.76c-76.6,0-138.7,27.65-138.7,61.76c0,14.02,10.51,26.96,28.21,37.32
			c-33.86-13.89-55.24-34.05-55.49-56.5l11.53-28.36c24.34-28.33,84.58-48.39,155.03-48.39
			C313.49,186.24,367.89,201.97,396.42,225.26z"/>
	</g>
	<g>
		<path style="fill:none;stroke:#231F20;stroke-width:35;" d="M396.42,225.26c13.53,11.04,21.24,23.78,21.24,37.34
			c0,5.4-1.22,10.67-3.54,15.75c-7.79,17-27.91,31.93-55.88,42.71c-28.96,11.17-66.35,17.9-107.15,17.9
			c-42.67,0-81.6-7.36-111.07-19.47c-33.86-13.89-55.24-34.05-55.49-56.5c0-0.13,0-0.26,0-0.39c0-9.87,4.09-19.31,11.53-27.97
			c24.34-28.33,84.58-48.39,155.03-48.39C313.49,186.24,367.89,201.97,396.42,225.26z"/>
		<path style="fill:none;stroke:#231F20;stroke-width:21;" d="M424.54,260.56V296v33.76c0,0-2.65,5.58-10.32,13.52
			c-17.71,18.33-62.23,49.2-162.83,52.71c-0.48,0.02-0.97,0.03-1.46,0.05"/>
		<path style="fill:none;stroke:#231F20;stroke-width:21;" d="M78.24,260.56v17.93v51.27c0,0,2.3,4.85,8.82,11.93
			c16.64,18.08,60.76,50.68,164.33,54.3c0.48,0.02,0.97,0.03,1.46,0.05"/>
		<path style="fill:none;stroke:#231F20;stroke-width:14;" d="M140.02,319.49c-17.7-10.36-28.21-23.3-28.21-37.32
			c0-34.11,62.1-61.76,138.7-61.76c76.6,0,138.7,27.65,138.7,61.76c0,14.74-11.61,28.28-30.97,38.89
			c-25.43,13.95-64.24,22.86-107.73,22.86C205.41,343.92,165.34,334.34,140.02,319.49z"/>
		<path style="fill:none;stroke:#231F20;stroke-width:21;" d="M414.35,341.95l-0.13,1.33L390.7,588.98c0,0-2.5,33.22-51.68,57.81
			c-19.27,9.64-52.45,16.43-87.75,16.83h-1.64c-36.64,0.77-68.32-7.12-87.6-16.75c-49.18-24.59-51.68-57.82-51.68-57.82L86.7,342.02
			"/>
		<path style="fill:none;stroke:#231F20;stroke-width:21;" d="M485.03,481.34c-0.57-11.05-0.87-19.57,3.51-29.68
			c4.14-9.59,10.27-18.4,17.97-25.44c36.17-33.04,80.141-14.11,107.07,17.92c11.16,13.271,14.32,31.03,27.8,41.811
			c18.01,14.39,41.65,17.08,63.23,20.85c56.43,9.891,65.02,61.76,63.909,82.59c-2.67,50.17-64.359,80.641-106.109,68.49
			c-21.44-6.24-41.601-21.899-63.96-22.439c-22.21-0.521-42.71,10.77-65.04,11.77c-31.21,1.41-60.86,3.33-83.68-22.46
			c-16.021-18.1-19.261-52.42,11.76-84.51C461.49,540.24,487.17,523.11,485.03,481.34z"/>
		<polyline style="fill:none;stroke:#231F20;" points="76,284 78.24,278.49 84.53,262.99 96.06,234.63 102,220 		"/>
		<polyline style="fill:none;stroke:#231F20;" points="420,296 414.12,278.35 396.42,225.26 394,218 		"/>
	</g>
</g>
<rect style="fill:none;" width="850.394" height="850.394"/>
</svg>
