<?xml version="1.0" encoding="iso-8859-1"?>
<!-- Generator: Adobe Illustrator 12.0.1, SVG Export Plug-In . SVG Version: 6.00 Build 51448)  -->
<!DOCTYPE svg PUBLIC "-//W3C//DTD SVG 1.1//EN" "http://www.w3.org/Graphics/SVG/1.1/DTD/svg11.dtd" [
	<!ENTITY ns_svg "http://www.w3.org/2000/svg">
	<!ENTITY ns_xlink "http://www.w3.org/1999/xlink">
]>
<svg  version="1.1" id="Layer_1" xmlns="&ns_svg;" xmlns:xlink="&ns_xlink;" width="850.394" height="850.394"
	 viewBox="0 0 850.394 850.394" style="overflow:visible;enable-background:new 0 0 850.394 850.394;" xml:space="preserve">
<g id="XMLID_2_">
	<g>
		<path style="fill:#F6CC4B;" d="M422.17,71.26c197.66,0,357.9,160.24,357.9,357.9c0,197.67-160.24,357.899-357.9,357.899
			C224.5,787.06,64.26,626.83,64.26,429.16C64.26,231.5,224.5,71.26,422.17,71.26z M721.23,382.86c0-9.07-6.711-16.42-14.99-16.42
			c-8.29,0-15,7.35-15,16.42c0,9.07,6.71,16.43,15,16.43C714.52,399.29,721.23,391.93,721.23,382.86z M664.14,521.3
			c0-14.51-10.729-26.28-23.989-26.28c-13.261,0-23.99,11.771-23.99,26.28s10.729,26.28,23.99,26.28
			C653.41,547.58,664.14,535.81,664.14,521.3z M549.48,225.18c0-9.07-6.711-16.42-15-16.42c-8.28,0-14.99,7.35-14.99,16.42
			c0,9.07,6.71,16.43,14.99,16.43C542.77,241.61,549.48,234.25,549.48,225.18z M484.92,456.54c0-11.4-8.439-20.65-18.85-20.65
			c-10.42,0-18.851,9.25-18.851,20.65s8.431,20.65,18.851,20.65C476.48,477.19,484.92,467.94,484.92,456.54z M478.17,119.13
			c0-17.11-22.27-30.98-49.75-30.98c-27.47,0-49.74,13.87-49.74,30.98c0,17.1,22.27,30.97,49.74,30.97
			C455.9,150.1,478.17,136.23,478.17,119.13z M389,257.56c0-9.07-6.71-16.42-14.99-16.42c-8.29,0-15,7.35-15,16.42
			s6.71,16.43,15,16.43C382.29,273.99,389,266.63,389,257.56z M328.94,665.84c0-9.07-6.72-16.43-15-16.43
			c-8.29,0-14.99,7.359-14.99,16.43s6.7,16.42,14.99,16.42C322.22,682.26,328.94,674.91,328.94,665.84z M226.02,250.67l17.72-17.72
			C237.76,238.8,231.83,244.68,226.02,250.67l-6.89,6.89c-0.59,0.73-1.18,1.46-1.74,2.19c-8.34,8.98-16.36,18.33-23.88,28.35
			c-16.18,21.57-50.86,52.76-49,84.44c0.94,15.95,10.32,33.32,31.13,24.81c11.4-4.67,10.98-34.12,11.11-44.99
			c0.45-40.65,9.8-66.18,30.64-92.61C220.23,256.69,223.11,253.66,226.02,250.67z"/>
		<path style="fill:#231F20;" d="M706.24,366.44c8.279,0,14.99,7.35,14.99,16.42c0,9.07-6.711,16.43-14.99,16.43
			c-8.29,0-15-7.36-15-16.43C691.24,373.79,697.95,366.44,706.24,366.44z"/>
		<path style="fill:#231F20;" d="M640.15,495.02c13.26,0,23.989,11.771,23.989,26.28s-10.729,26.28-23.989,26.28
			c-13.261,0-23.99-11.771-23.99-26.28S626.89,495.02,640.15,495.02z"/>
		<path style="fill:#231F20;" d="M534.48,208.76c8.289,0,15,7.35,15,16.42c0,9.07-6.711,16.43-15,16.43
			c-8.28,0-14.99-7.36-14.99-16.43C519.49,216.11,526.2,208.76,534.48,208.76z"/>
		<path style="fill:#231F20;" d="M466.07,435.89c10.41,0,18.85,9.25,18.85,20.65s-8.439,20.65-18.85,20.65
			c-10.42,0-18.851-9.25-18.851-20.65S455.65,435.89,466.07,435.89z"/>
		<path style="fill:#231F20;" d="M428.42,88.15c27.48,0,49.75,13.87,49.75,30.98c0,17.1-22.27,30.97-49.75,30.97
			c-27.47,0-49.74-13.87-49.74-30.97C378.68,102.02,400.95,88.15,428.42,88.15z"/>
		<path style="fill:#231F20;" d="M374.01,241.14c8.28,0,14.99,7.35,14.99,16.42s-6.71,16.43-14.99,16.43c-8.29,0-15-7.36-15-16.43
			S365.72,241.14,374.01,241.14z"/>
		<path style="fill:#231F20;" d="M313.94,649.41c8.28,0,15,7.359,15,16.43s-6.72,16.42-15,16.42c-8.29,0-14.99-7.35-14.99-16.42
			S305.65,649.41,313.94,649.41z"/>
		<path style="fill:#231F20;" d="M243.74,232.95l-17.72,17.72C231.83,244.68,237.76,238.8,243.74,232.95z"/>
		<path style="fill:#231F20;" d="M219.13,257.56l6.89-6.89c-2.91,2.99-5.79,6.02-8.63,9.08
			C217.95,259.02,218.54,258.29,219.13,257.56z"/>
		<path style="fill:#231F20;" d="M217.39,259.75c-20.84,26.43-30.19,51.96-30.64,92.61c-0.13,10.87,0.29,40.32-11.11,44.99
			c-20.81,8.51-30.19-8.86-31.13-24.81c-1.86-31.68,32.82-62.87,49-84.44C201.03,278.08,209.05,268.73,217.39,259.75z"/>
	</g>
	<g>
		<path style="fill:none;stroke:#231F20;stroke-width:21;" d="M780.07,429.16c0,197.67-160.24,357.899-357.9,357.899
			C224.5,787.06,64.26,626.83,64.26,429.16c0-197.66,160.24-357.9,357.91-357.9C619.83,71.26,780.07,231.5,780.07,429.16z"/>
		<path style="fill:none;stroke:#231F20;stroke-width:15.0169;" d="M217.39,259.75c0.56-0.73,1.15-1.46,1.74-2.19"/>
		<path style="fill:none;stroke:#231F20;stroke-width:15.0169;" d="M217.39,259.75c-8.34,8.98-16.36,18.33-23.88,28.35
			c-16.18,21.57-50.86,52.76-49,84.44c0.94,15.95,10.32,33.32,31.13,24.81c11.4-4.67,10.98-34.12,11.11-44.99
			C187.2,311.71,196.55,286.18,217.39,259.75z"/>
		<path style="fill:none;stroke:#231F20;stroke-width:15.0169;" d="M243.74,232.95c-5.98,5.85-11.91,11.73-17.72,17.72
			c-2.91,2.99-5.79,6.02-8.63,9.08"/>
	</g>
</g>
<rect style="fill:none;" width="850.394" height="850.394"/>
</svg>
