<?xml version="1.0" encoding="iso-8859-1"?>
<!-- Generator: Adobe Illustrator 12.0.1, SVG Export Plug-In . SVG Version: 6.00 Build 51448)  -->
<!DOCTYPE svg PUBLIC "-//W3C//DTD SVG 1.1//EN" "http://www.w3.org/Graphics/SVG/1.1/DTD/svg11.dtd" [
	<!ENTITY ns_svg "http://www.w3.org/2000/svg">
	<!ENTITY ns_xlink "http://www.w3.org/1999/xlink">
]>
<svg  version="1.1" id="Layer_1" xmlns="&ns_svg;" xmlns:xlink="&ns_xlink;" width="850.394" height="850.394"
	 viewBox="0 0 850.394 850.394" style="overflow:visible;enable-background:new 0 0 850.394 850.394;" xml:space="preserve">
<g id="XMLID_10_">
	<g>
		<path style="fill:#00E800;" d="M269.81,442.84c5.29-8.649,22.15-21.96,32.52-19.5c-11.09,1.2-21.33,14-26.14,22.51
			c-7.29,12.881-11.36,33.771-13.01,48.431c-4.15,36.91-6.07,74.22-9.66,110.979l-28.08-2.62l0.31-1.25l3.93-15.85l14.85-59.92
			l10.29-41.53C258.21,471.13,259.25,460.08,269.81,442.84z"/>
		<polygon style="fill:#00E800;" points="244.53,525.62 229.68,585.54 229.65,585.53 227.8,478.16 236.57,361.23 244.52,525.62 		
			"/>
		<polygon style="fill:#00E800;" points="221.17,579.39 202.87,492.37 211.39,380.59 		"/>
		<path style="fill:#00E800;" d="M225.74,601.39h0.01l-0.31,1.25l-26.46,1.271l-0.41,1.42c-2.15-0.62-4.26-1.25-6.33-1.89
			l-10.01-53.391l3.69-0.689c-2.25-28.62-4.34-59.971-7.53-88.48c-1.97-17.49-6.83-35.56-15.54-50.94
			c-2.88-5.09-7.4-13.21-12.85-20.22c2.55-1.25,5.15-2.48,7.8-3.69c4.14,3.47,8.08,7.53,11.59,11.67
			c6.9,8.14,16.15,23.56,22.98,44.74l10.5,49.93l18.3,87.02l2.28,10.851L225.74,601.39z"/>
		<path style="fill:#00E800;" d="M192.24,603.44l0.57,3.05l-32.57-12.42c-0.16-1.7-0.3-3.36-0.41-5.011
			c-2.35-34.05,5.95-57.77,2-92.97c-1.65-14.649-5.73-35.57-13.01-48.439c-4.82-8.511-15.06-21.32-26.14-22.521
			c10.37-2.46,27.22,10.87,32.51,19.5c10.56,17.271,11.61,28.311,15,41.25l12.04,64.17L192.24,603.44z"/>
		<path style="fill:#00E800;" d="M652.12,435.04l0.14,0.56l-28.069,2.631c-2.54-25.96-4.25-52.19-6.5-78.351
			c-0.931-10.89-1.95-21.78-3.171-32.63c-1.649-14.65-5.72-35.57-13.01-48.45c-4.819-8.5-15.05-21.31-26.14-22.51
			c10.37-2.46,27.229,10.87,32.51,19.5c10.561,17.26,11.61,28.31,15.01,41.25l15.73,63.48L652.12,435.04z"/>
		<path style="fill:#00E800;" d="M673.87,410.55l2.28,10.85l2.29,11.15l-0.311,1.25l-26.01,1.24l-13.5-54.52
			c-2.25-28.62-4.34-59.97-7.54-88.48c-1.97-17.49-6.83-35.56-15.54-50.94c-5.75-10.15-17.96-32.32-31.2-33.76
			c12.38-2.94,27.05,8.9,37.75,21.52c6.891,8.14,16.141,23.56,22.98,44.74l10.489,49.9L673.87,410.55z"/>
		<polygon style="fill:#00E800;" points="673.87,410.55 655.56,323.5 664.08,211.75 		"/>
		<polygon style="fill:#00E800;" points="697.22,356.78 682.37,416.7 682.35,416.69 680.5,309.31 689.26,192.39 697.21,356.78 		"/>
		<path style="fill:#00E800;" d="M722.51,274c5.28-8.65,22.15-21.96,32.521-19.5c-11.101,1.2-21.33,14-26.141,22.51
			c-7.29,12.88-11.359,33.77-13.02,48.43c-2.58,22.96-4.3,46.07-6.09,69.11c-1.101,14-2.221,27.98-3.57,41.87l-28.08-2.62
			l0.311-1.25l3.93-15.85l14.85-59.92l10.3-41.53C710.91,302.29,711.94,291.24,722.51,274z"/>
		<path style="fill:#A3D9FF;" d="M229.68,585.54l-3.93,15.85h-0.01l-2.29-11.149l-2.28-10.851l-9.78-198.8l-8.52,111.78l-10.5-49.93
			c-6.83-21.181-16.08-36.601-22.98-44.74c-3.51-4.14-7.45-8.2-11.59-11.67c22.78-10.47,49.11-19.58,78.2-27.03l0.57,2.23
			l-8.77,116.93l1.85,107.37L229.68,585.54z"/>
		<path style="fill:#A3D9FF;" d="M185.92,549.36l-3.69,0.689l-12.04-64.17c-3.39-12.939-4.44-23.979-15-41.25
			c-5.29-8.63-22.14-21.96-32.51-19.5c11.08,1.2,21.32,14.01,26.14,22.521c7.28,12.869,11.36,33.79,13.01,48.439
			c3.95,35.2-4.35,58.92-2,92.97C94.84,562.16,65.51,526.44,65.51,485.43c0-36.46,31.76-69.85,84.49-95.709
			c5.45,7.01,9.97,15.13,12.85,20.22c8.71,15.38,13.57,33.45,15.54,50.94C181.58,489.39,183.67,520.74,185.92,549.36z"/>
		<path style="fill:#A3D9FF;" d="M709.78,394.55c47.04,25.13,75.04,56.66,75.04,90.88c0,82.09-161.03,148.63-359.65,148.63
			c-77.95,0-166.41-11.229-226.6-28.729l0.41-1.42l26.46-1.271l28.08,2.62c3.59-36.76,5.51-74.069,9.66-110.979
			c1.65-14.66,5.72-35.55,13.01-48.431c4.81-8.51,15.05-21.31,26.14-22.51c-10.37-2.46-27.23,10.851-32.52,19.5
			c-10.56,17.24-11.6,28.29-14.99,41.25l-10.29,41.53h-0.01l-7.95-164.39L236,359c54.95-14.07,119.76-22.2,189.17-22.2
			c70.82,0,136.85,8.47,192.521,23.08c2.25,26.16,3.96,52.39,6.5,78.351l28.069-2.631l-0.14-0.56l26.01-1.24l28.08,2.62
			C707.56,422.53,708.68,408.55,709.78,394.55z"/>
	</g>
	<g>
		<path style="fill:none;stroke:#231F20;stroke-width:21;" d="M709.78,394.55c47.04,25.13,75.04,56.66,75.04,90.88
			c0,82.09-161.03,148.63-359.65,148.63c-77.95,0-166.41-11.229-226.6-28.729c-2.15-0.62-4.26-1.25-6.33-1.89
			c-0.32-0.101-0.63-0.19-0.94-0.29"/>
		<path style="fill:none;stroke:#231F20;stroke-width:21;" d="M159.96,589.11c-0.04-0.021-0.09-0.04-0.13-0.051
			C94.84,562.16,65.51,526.44,65.51,485.43c0-36.46,31.76-69.85,84.49-95.709c2.55-1.25,5.15-2.48,7.8-3.69
			c22.78-10.47,49.11-19.58,78.2-27.03c54.95-14.07,119.76-22.2,189.17-22.2c70.82,0,136.85,8.47,192.521,23.08
			c0.439,0.11,0.88,0.22,1.319,0.34"/>
		<polyline style="fill:none;stroke:#231F20;stroke-width:14;" points="202.87,492.37 211.39,380.59 221.17,579.39 221.17,579.43 		
			"/>
		<polyline style="fill:none;stroke:#231F20;stroke-width:14;" points="229.65,585.53 227.8,478.16 236.57,361.23 244.52,525.62 		
			"/>
		<line style="fill:none;stroke:#231F20;stroke-width:13.6147;" x1="225.44" y1="602.64" x2="198.98" y2="603.91"/>
		<path style="fill:none;stroke:#231F20;stroke-width:14;" d="M185.92,549.36c-2.25-28.62-4.34-59.971-7.53-88.48
			c-1.97-17.49-6.83-35.56-15.54-50.94c-2.88-5.09-7.4-13.21-12.85-20.22c-5.41-6.96-11.76-12.82-18.35-13.54
			c8.32-1.97,17.67,2.72,26.15,9.85c4.14,3.47,8.08,7.53,11.59,11.67c6.9,8.14,16.15,23.56,22.98,44.74l10.5,49.93l18.3,87.02
			l2.28,10.851l2.29,11.149"/>
		<path style="fill:none;stroke:#231F20;stroke-width:14;" d="M192.24,603.44l0.57,3.05l-32.57-12.42c-0.16-1.7-0.3-3.36-0.41-5.011
			c-2.35-34.05,5.95-57.77,2-92.97c-1.65-14.649-5.73-35.57-13.01-48.439c-4.82-8.511-15.06-21.32-26.14-22.521
			c10.37-2.46,27.22,10.87,32.51,19.5c10.56,17.271,11.61,28.311,15,41.25l12.04,64.17L192.24,603.44z"/>
		<path style="fill:none;stroke:#231F20;stroke-width:14;" d="M225.44,602.64l28.08,2.62c3.59-36.76,5.51-74.069,9.66-110.979
			c1.65-14.66,5.72-35.55,13.01-48.431c4.81-8.51,15.05-21.31,26.14-22.51c-10.37-2.46-27.23,10.851-32.52,19.5
			c-10.56,17.24-11.6,28.29-14.99,41.25l-10.29,41.53l-14.85,59.92l-3.93,15.85L225.44,602.64"/>
		<polyline style="fill:none;stroke:#231F20;stroke-width:14;" points="655.56,323.53 655.56,323.5 664.08,211.75 673.87,410.55 
			673.87,410.59 		"/>
		<polyline style="fill:none;stroke:#231F20;stroke-width:14;" points="682.35,416.69 680.5,309.31 689.26,192.39 697.21,356.78 		
			"/>
		<polyline style="fill:none;stroke:#231F20;stroke-width:13.6147;" points="678.13,433.8 652.12,435.04 651.68,435.06 		"/>
		<path style="fill:none;stroke:#231F20;stroke-width:14;" d="M638.62,380.52c-2.25-28.62-4.34-59.97-7.54-88.48
			c-1.97-17.49-6.83-35.56-15.54-50.94c-5.75-10.15-17.96-32.32-31.2-33.76c12.38-2.94,27.05,8.9,37.75,21.52
			c6.891,8.14,16.141,23.56,22.98,44.74l10.489,49.9l18.311,87.05l2.28,10.85l2.29,11.15"/>
		<path style="fill:none;stroke:#231F20;stroke-width:14;" d="M652.12,435.04l0.14,0.56l-28.069,2.631
			c-2.54-25.96-4.25-52.19-6.5-78.351c-0.931-10.89-1.95-21.78-3.171-32.63c-1.649-14.65-5.72-35.57-13.01-48.45
			c-4.819-8.5-15.05-21.31-26.14-22.51c10.37-2.46,27.229,10.87,32.51,19.5c10.561,17.26,11.61,28.31,15.01,41.25l15.73,63.48
			L652.12,435.04z"/>
		<path style="fill:none;stroke:#231F20;stroke-width:14;" d="M678.13,433.8l28.08,2.62c1.35-13.89,2.47-27.87,3.57-41.87
			c1.79-23.04,3.51-46.15,6.09-69.11c1.66-14.66,5.729-35.55,13.02-48.43c4.811-8.51,15.04-21.31,26.141-22.51
			c-10.37-2.46-27.24,10.85-32.521,19.5c-10.569,17.24-11.6,28.29-14.99,41.25l-10.3,41.53l-14.85,59.92l-3.93,15.85L678.13,433.8z"
			/>
		<path style="fill:none;stroke:#231F20;stroke-width:21;" d="M335.48,394.67c20.41-2.36,25.61-11.8,47.7-6.81
			c11.48,2.59,16.88,7.96,27.69,13.1c23.06,10.98,51.26,18.39,65.29-8.56"/>
		<path style="fill:none;stroke:#231F20;stroke-width:21;" d="M463.06,473.21c20.41-2.35,25.61-11.8,47.7-6.81
			c11.48,2.6,16.88,7.97,27.681,13.1c23.06,10.98,51.27,18.4,65.3-8.56"/>
		<path style="fill:none;stroke:#231F20;stroke-width:21;" d="M352.23,569.6c20.41-2.359,25.61-11.8,47.71-6.81
			c11.47,2.59,16.88,7.96,27.68,13.1c23.06,10.98,51.27,18.4,65.29-8.56"/>
	</g>
</g>
<rect style="fill:none;" width="850.394" height="850.394"/>
</svg>
