<?xml version="1.0" encoding="iso-8859-1"?>
<!-- Generator: Adobe Illustrator 12.0.1, SVG Export Plug-In . SVG Version: 6.00 Build 51448)  -->
<!DOCTYPE svg PUBLIC "-//W3C//DTD SVG 1.1//EN" "http://www.w3.org/Graphics/SVG/1.1/DTD/svg11.dtd" [
	<!ENTITY ns_svg "http://www.w3.org/2000/svg">
	<!ENTITY ns_xlink "http://www.w3.org/1999/xlink">
]>
<svg  version="1.1" id="Layer_1" xmlns="&ns_svg;" xmlns:xlink="&ns_xlink;" width="850.394" height="850.394"
	 viewBox="0 0 850.394 850.394" style="overflow:visible;enable-background:new 0 0 850.394 850.394;" xml:space="preserve">
<g id="XMLID_6_">
	<g>
		<path style="fill:#FFFF6B;" d="M492.31,687.84l62.101-68.56l0.01-0.011c3.67-3.67,7.47-7.89,11.36-12.539l212.84-234.98
			l6.11,84.56L501.31,769.53L79.29,546.11l-9-81.69L492.31,687.84z"/>
		<path style="fill:#FFFF6B;" d="M778.62,371.75L565.78,606.73c39.96-47.79,88.71-140.65,88.71-140.65
			c11.8-21.9,39.45-75.11,63.77-122.07L778.62,371.75z"/>
		<path style="fill:#FFFF6B;" d="M336.74,78.82l425.33,180.39c0,0-20.351,39.5-43.811,84.8c-24.319,46.96-51.97,100.17-63.77,122.07
			c0,0-48.75,92.86-88.71,140.65l-11.36,12.539l-0.01,0.011l-62.101,68.56L70.29,464.42c0,0,77.78-56.27,92.68-71.16
			c28.13-28.13,104.26-165.5,130.74-223.42C320.19,111.91,336.74,78.82,336.74,78.82z"/>
	</g>
	<g>
		<polyline style="fill:none;stroke:#000000;stroke-width:19.8597;" points="70.29,464.42 79.29,546.11 501.31,769.53 
			784.73,456.31 778.62,371.75 		"/>
		<polyline style="fill:none;stroke:#000000;stroke-width:19.8597;" points="554.42,619.27 565.78,606.73 778.62,371.75 
			718.26,344.01 		"/>
		<path style="fill:none;stroke:#000000;stroke-width:19.8597;" d="M554.41,619.28l0.01-0.011c3.67-3.67,7.47-7.89,11.36-12.539
			c39.96-47.79,88.71-140.65,88.71-140.65c11.8-21.9,39.45-75.11,63.77-122.07c23.46-45.3,43.811-84.8,43.811-84.8L336.74,78.82
			c0,0-16.55,33.09-43.03,91.02c-26.48,57.92-102.61,195.29-130.74,223.42c-14.9,14.89-92.68,71.16-92.68,71.16l422.02,223.42
			L554.41,619.28"/>
		<line style="fill:none;stroke:#000000;stroke-width:19.8597;" x1="492.31" y1="687.84" x2="501.31" y2="762.32"/>
	</g>
</g>
<rect style="fill:none;" width="850.394" height="850.394"/>
</svg>
