<svg id="Layer_1" xmlns="http://www.w3.org/2000/svg" viewBox="0 0 850 850"><style>.st0{fill:#ffffc2}.st1{fill:#a9d7f3}.st2{fill:#ffeec8}.st3{fill:#c8c8c8}.st4{fill:#7a7878}.st5,.st6{fill:none;stroke:#231f20;stroke-width:14;stroke-linecap:round;stroke-miterlimit:10}.st6{stroke-width:21}</style><path class="st0" d="M525.3 221l1.8-3.7 2-3.8 2.2-3.2 2.5-3.3 2.8-3.2 3-2.8 3.2-2.7 3.3-2.5 3.5-2.3 3.7-2.2 3.8-2 3.7-2 7.8-3.3 7.7-3 7.8-2.2 7.2-2 6.5-1.3 6-1.2 8.8-1.3 3.2-.5-48 130-53 106.5-1.2 16.3-2.5 37.5-1.8 29-1.2 27-.5 11.2-.3 9 .3 5 .2 4.3-45-3-1.5-77.3-1-70 6.3-22 6.2-20.5 6.3-18.7 6.2-17.3 8-21 7.8-18.7 13.7-32.3 5.8-13.7z"/><path class="st1" d="M395.1 318.3h1.2l20 30 3.3 5.2-3 1.8-3 2.2-3.3 2.8-3 3-7 7-7.2 8.2-8.3 9-9 9.5-4.7 4.8-5.3 5-5.5 5-5.7 5-14.3 12-7.2 5.7-7 5.3-6.8 5.2-6.7 4.8-6.8 4-6.2 3.7 4 .3.5 33.5.5 33.7v38.3H103.1l.7-61.5.5-28.8.8-27.2.7-25.8 1.3-24.2 1.2-22.8 2-21 1-10 1.3-9.5 1.2-9.2 1.5-8.8 1.5-8.2 1.8-7.8 2-7.5 2-6.7 2.2-6.5 2.3-6 2.7-5.8 2.8-5 3-4.7 3-4 3.5-3.8 3.5-3.2 1.7-1.3 2-1.2 5.3-2.5 6-2.8 6.5-2.7 14.2-5.3 13-5.2h.3l1.7 3 2 2.7 2 2.5 2 2.5 2.3 2.5 2.2 2.3 2.3 2 2.5 2 2.7 1.7 2.5 1.5 2.8 1.3 2.7 1.2 3 1 3 .8 3 .7 3 .3 2.8.2h2.7l2.8-.2 2.7-.3 2.8-.5 2.7-.7 2.5-1 2.5-1 6 .2 1.3.5 1.2.8 1.8 1.2 2.2 1.8 2.5 2.2 2.8 3 3 3.8 3.2 4.7 3 5.5 3.3 6.3 3 7.5 3 8.7 3 9.8 2.5 11 2.2 12.5.3.7 6-1.2 10.2-2.5 13.5-3.5 7.5-2.3 8-2.5 8.3-2.7 8.5-3 8.2-3.5 8.3-3.8 8-4 7.5-4.2 3.5-2.3 3.5-2.5 3.2-2.2 3-2.5h3l6 2 3.3 3.7-2.8 2.5-2.7 3-5.5 6-6.3 7z"/><path class="st2" d="M438.6 281.3l-5.8 2.2-5 2.5-4.2 3-4 3-3.3-3.7-6-2h-3l3-2.8 2.8-2.7 2.5-3 2.2-3 3.5-4.8 3.3-4.5 3.5-3.7 3.5-3.5 3.5-3 3.7-2.8 3.8-2.5 3.7-2 3.8-2 4-1.5 4-1.5 4.2-1.5 9-2.2 9.8-2.3 2-.2h2.2l3.3.2 4 .8 5 1.5 5.7 2.2 3.3 1.5 3.5 1.8 4.7 2.7-13.7 32.3-7.8 18.7-8 21-2.7-1 .2-1.7.5-3.5.3-6.3v-22.5l-.3-1.2-.2-1-.5-1-.8-.8-.7-.7-1-.5-3-.8-4.3-1-5.5-.5-5.2-.2-5 .2-4.8.5-4.2 1-3.8.8-3.2 1z"/><path class="st0" d="M681.6 479.5l-168-16.5-2.5-.2 2.5-37.5 1.2-16.3 53-106.5 48-130 4.3-2 1.5 3 1.5 3 1.7 2.8 1.8 2.7 2 2.5 2.2 2.5 2 2.3 2.5 2 2.3 2 2.5 1.7 2.7 1.5 2.5 1.3 2.8 1.2 3 1 3 .8 3 .7 4 .3h4.2l4.3-.3 4-.7 4-1.3 4-1.5 3.7-2 3.8-2.2 3 .5 7.2 5.7 7.8 6.3 9 8.2 4.7 4.3 4.5 4.7 4.5 5 4.3 5 3.7 5 3 4.8 1.3 2.5 1.2 2.5 1 2.2.8 2.5.7 4.3.8 5 .2 5 .3 5.7v5.8l-.5 6.2-.5 6.5-.5 6.8-2 14-2.5 14.7-2.8 14.8-3.2 15-3.5 14.7-3.5 14-6.8 26-9.7 34.5 3 25.5 2.2 22.3 2 20.7-37.7 1.8z"/><path class="st2" d="M679.1 58.5l2.7.5 2.8.8 2.5.7 2.7 1.3 2.5 1 2.3 1.5 2.5 1.5 2.2 1.7 2 1.8 2.3 1.7 1.7 2.3 2 2.2 3.5 4.8 3.3 5 2.5 5.7 2.2 6 2 6.3 1.3 6.5.7 7 .3 7-.3 7.2-.7 7.3-1 4.7-1 4.3-1.3 4.5-1.2 4.2-1.8 4-1.7 4-1.8 3.8-2 3.5-2.2 3.5-2.5 3.2-2.5 3.3-2.5 2.7-2.8 2.8-2.7 2.7-3 2.3-3 2-3.8 2.2-3.7 2-4 1.5-4 1.3-4 .7-4.3.3h-4.2l-4-.3-3-.7-3-.8-3-1-2.8-1.2-2.5-1.3-2.7-1.5-2.5-1.7-2.3-2-2.5-2-2-2.3-2.2-2.5-2-2.5-1.8-2.7-1.7-2.8-1.5-3-1.5-3-2.3-5.5-1.7-5.5-1.5-5.7-1-6.3-.5-6.2v-6.5l.2-6.5.8-6.8 1.5-7.2 1.7-6.8 2.5-6.7 2.8-6.3 3.2-6 3.8-5.5 3.7-5 4.5-4.5 4.5-4 4.8-3.5 2.5-1.5 2.5-1.2 2.5-1.3 2.7-1 2.5-1 2.8-.7 2.7-.5 2.8-.5 2.7-.3h2.8l2.7.3zM718.8 514.5l.8 9.5v5.3l.7 1.5 2.8 4.7 3.5 6.5 1.5 3.5 1.5 4 1.2 4 .8 4.3v4.2l-.3 2-.5 2-.5 2.3-1 2-1 2-1.5 1.7-1.5 2-2 1.8-2.2 1.7-2.8 1.8-3 1.2-3 1-3 .5h-3l-2.7-.5-2.8-.7-2.7-1.3-2.5-1.2-2.5-1.5-2.3-1.8-4-3.2-3.2-3.5-2.5-2.8v-51.2z"/><path class="st3" d="M681.1 516.3v51.2l.2 46.5.5 50.8 1.3 52.5.7 26.2.8 25.5-104.5 10.5-1.3-12.7-1-13-1.5-26-1.5-25.8-1-12.5-1-12-1.5-11.7-1.7-11.3-2-10.7-1.3-5-1.2-5-1.5-4.8-1.8-4.7-1.7-4.3-2-4.2-2-4-2.5-3.8-2.3-3.5-2.7-3.2-3.3-3.8-3-3.7-4.7-6.5-4.3-6.8-4-6.5-3.5-6.5-3.2-6.5-2.8-6.2-2.2-5.8-2.3-5.7-3.2-9.8-2-7.7-1.3-5-.5-2h-.2l1.2-27 1.8-29 2.5.2 168 16.5z"/><path class="st3" d="M580.1 779.5l-32.5 3.3-5.5-189h.2l3 3.7 3.3 3.8 2.7 3.2 2.3 3.5 2.5 3.8 2 4 2 4.2 1.7 4.3 1.8 4.7 1.5 4.8 1.2 5 1.3 5 2 10.7 1.7 11.3 1.5 11.7 1 12 1 12.5 1.5 25.8 1.5 26 1 13z"/><path class="st2" d="M507.8 548.3l.5 3.5.5 3 1.5 5 1.5 4.5 1 4.5.5 2.5.3 2.7v7l-.5 4.3-.8 5-1.2 5.7-1.5 6.5-1 3.8-1.3 3.5-1.2 3.2-1.5 2.8-1.5 2.2-1.8 2.3-1.7 1.7-2 1.5-1.8 1.3-2.2 1-2 .7-2 .5-2.3.3h-2.2l-2-.3-2.3-.2-2.2-.5-2.3-.8-4.2-1.7-4-2.3-3.8-2.5-3.5-3-3.2-3-2.5-3-2-3.2-.8-1.5-.5-1.8-.5-2-.2-2-.3-4.5.3-4.7.5-5 .7-5 1.3-5.3 1.2-5 2.8-9.5 2.5-8 2.7-7.2zM438.6 281.3l2.5-1 3.2-1 3.8-.8 4.2-1 4.8-.5 5-.2 5.2.2 5.5.5 4.3 1 3 .8 1 .5.7.7.8.8.5 1 .2 1 .3 1.2V307l-.3 6.3-.5 3.5-.2 1.7-.3.3-1.5 3.5-2 3.5-2.5 3.2-2.7 3.3-2.8 3-3.2 2.7-3.5 2.5-3.5 2.3-3.8 2-3.7 1.7-4 1.5-3.8 1.3-3.7.7-4 .8h-10l-2.5.2-2.8 1-2.7 1.5-3.3-5.2-20-30h-1.2l7.2-7.8 6.3-7 5.5-6 2.7-3 2.8-2.5 4-3 4.2-3 5-2.5zM248.1 99l3 .5 2.7.5 3 .8 2.8 1 2.7 1 2.5 1.2 2.5 1.5 2.5 1.8 2.5 1.7 2.3 1.8 2.2 2 2.3 2.2 2 2.5 2 2.5 1.7 2.5 1.8 2.8 3.2 5.7 2.8 6.3 2.2 6.5 1.8 7 1.2 7.2.8 7.3.2 7.7v4l-.2 4-.8 6-1 5.8-1.5 5.5-1.5 5.5-2 5.2-2.2 5.3-2.5 4.7-2.8 4.5-2.7 4.3-3.3 4-3.2 3.7-3.5 3.3-3.8 3.2-3.7 2.5-4 2.5-4.3 1.8-2.5 1-2.5 1-2.7.7-2.8.5-2.7.3-2.8.2h-2.7l-2.8-.2-3-.3-3-.7-3-.8-3-1-2.7-1.2-2.8-1.3-2.5-1.5-2.7-1.7-2.5-2-2.3-2-2.2-2.3-2.3-2.5-2-2.5-2-2.5-2-2.7-1.7-3-3-5.8-2.5-6-2-6.2-1.5-6.8-1.3-7-.7-7V178l.2-7.5.5-4 .5-3.7 1.8-7.5 2-7.3 2.5-6.7 3-6.5 3.5-6.3 3.7-5.5 4.3-5 2.2-2.5 2.3-2.2 2.5-2 2.2-2 2.5-1.8 2.8-1.5 2.5-1.5 2.7-1.5 2.8-1 2.7-1 2.8-.7 2.7-.8 3-.2 3-.3h2.8z"/><path class="st4" d="M156.8 563.3h128.8l-.3.7-.2 1.8-.3 6.7-.2 10.5-.3 13.3v33.5l.3 38.7.5 76 .5 43.8H183.1l-1.8-27-1.5-19-1.7-21-2-21-1.3-10-1.2-9.5-1.5-8.8-1.5-8-1.5-6.7-1.5-5.5-3.5-10.3-2.8-9.7-2.2-9.3-1.8-8.5-1.2-8-.8-7.2-.5-6.8-.2-5.7.2-5.5.3-4.5.2-4 .5-3.3.8-4.2z"/><path class="st5" d="M620.1 170.5l-2.3-5.5-1.7-5.5-1.5-5.7-1-6.3-.5-6.2v-6.5l.2-6.5.8-6.8 1.5-7.2 1.7-6.8 2.5-6.7 2.8-6.3 3.2-6 3.8-5.5 3.7-5 4.5-4.5 4.5-4 4.8-3.5 2.5-1.5 2.5-1.2 2.5-1.3 2.7-1 2.5-1 2.8-.7 2.7-.5 2.8-.5 2.7-.3h2.8l2.7.3 2.8.2 2.7.5 2.8.8 2.5.7 2.7 1.3 2.5 1 2.3 1.5 2.5 1.5 2.2 1.7 2 1.8 2.3 1.7 1.7 2.3 2 2.2 3.5 4.8 3.3 5 2.5 5.7 2.2 6 2 6.3 1.3 6.5.7 7 .3 7-.3 7.2-.7 7.3-1 4.7-1 4.3-1.3 4.5-1.2 4.2-1.8 4-1.7 4-1.8 3.8-2 3.5-2.2 3.5-2.5 3.2-2.5 3.3-2.5 2.7-2.8 2.8-2.7 2.7-3 2.3-3 2-3.8 2.2-3.7 2-4 1.5-4 1.3-4 .7-4.3.3h-4.2l-4-.3-3-.7-3-.8-3-1-2.8-1.2-2.5-1.3-2.7-1.5-2.5-1.7-2.3-2-2.5-2-2-2.3-2.2-2.5-2-2.5-1.8-2.7-1.7-2.8-1.5-3zM692.1 194.3l7.2 5.7 7.8 6.3 9 8.2 4.7 4.3 4.5 4.7 4.5 5 4.3 5 3.7 5 3 4.8 1.3 2.5 1.2 2.5 1 2.2.8 2.5.7 4.3.8 5 .2 5 .3 5.7v5.8l-.5 6.2-.5 6.5-.5 6.8-2 14-2.5 14.7-2.8 14.8-3.2 15-3.5 14.7-3.5 14-6.8 26-9.7 34.5 3 25.5 2.2 22.3 2 20.7.8 9.5v5.3l.7 1.5 2.8 4.7 3.5 6.5 1.5 3.5 1.5 4 1.2 4 .8 4.3v4.2l-.3 2-.5 2-.5 2.3-1 2-1 2-1.5 1.7-1.5 2-2 1.8-2.2 1.7-2.8 1.8-3 1.2-3 1-3 .5h-3l-2.7-.5-2.8-.7-2.7-1.3-2.5-1.2-2.5-1.5-2.3-1.8-4-3.2-3.2-3.5-2.5-2.8-1.8-2.2M615.8 172.5l-3.2.5-8.8 1.3-6 1.2-6.5 1.3-7.2 2-7.8 2.2-7.7 3-7.8 3.3-3.7 2-3.8 2-3.7 2.2-3.5 2.3-3.3 2.5-3.2 2.7-3 2.8-2.8 3.2-2.5 3.3-2.2 3.2-2 3.8-1.8 3.7-4.7 12.8-5.8 13.7-13.7 32.3-7.8 18.7-8 21-6.2 17.3-6.3 18.7-6.2 20.5-6.3 22 1 70 1.5 77.3-2.7 7.2-2.5 8-2.8 9.5-1.2 5-1.3 5.3-.7 5-.5 5-.3 4.7.3 4.5.2 2 .5 2 .5 1.8.8 1.5 2 3.2 2.5 3 3.2 3 3.5 3 3.8 2.5 4 2.3 4.2 1.7 2.3.8 2.2.5 2.3.2 2 .3h2.2l2.3-.3 2-.5 2-.7 2.2-1 1.8-1.3 2-1.5 1.7-1.7 1.8-2.3 1.5-2.2 1.5-2.8 1.2-3.2 1.3-3.5 1-3.8 1.5-6.5 1.2-5.7.8-5 .5-4.3v-7l-.3-2.7-.5-2.5-1-4.5-1.5-4.5-1.5-5-.5-3-.5-3.5-.2-4.3-.3-5 .3-9 .5-11.2 1.2-27 1.8-29 2.5-37.5 1.2-16.3 53-106.5"/><path class="st5" d="M710.1 294l-26.5 185.8-2-.3-168-16.5M194.6 224.3l-3-5.8-2.5-6-2-6.2-1.5-6.8-1.3-7-.7-7V178l.2-7.5.5-4 .5-3.7 1.8-7.5 2-7.3 2.5-6.7 3-6.5 3.5-6.3 3.7-5.5 4.3-5 2.2-2.5 2.3-2.2 2.5-2 2.2-2 2.5-1.8 2.8-1.5 2.5-1.5 2.7-1.5 2.8-1 2.7-1 2.8-.7 2.7-.8 3-.2 3-.3h5.8l3 .5 2.7.5 3 .8 2.8 1 2.7 1 2.5 1.2 2.5 1.5 2.5 1.8 2.5 1.7 2.3 1.8 2.2 2 2.3 2.2 2 2.5 2 2.5 1.7 2.5 1.8 2.8 3.2 5.7 2.8 6.3 2.2 6.5 1.8 7 1.2 7.2.8 7.3.2 7.7v4l-.2 4-.8 6-1 5.8-1.5 5.5-1.5 5.5-2 5.2-2.2 5.3-2.5 4.7-2.8 4.5-2.7 4.3-3.3 4-3.2 3.7-3.5 3.3-3.8 3.2-3.7 2.5-4 2.5-4.3 1.8-2.5 1-2.5 1-2.7.7-2.8.5-2.7.3-2.8.2h-2.7l-2.8-.2-3-.3-3-.7-3-.8-3-1-2.7-1.2-2.8-1.3-2.5-1.5-2.7-1.7-2.5-2-2.3-2-2.2-2.3-2.3-2.5-2-2.5-2-2.5-2-2.7zM194.3 224.3l-13 5.2-14.2 5.3-6.5 2.7-6 2.8-5.3 2.5-2 1.2-1.7 1.3-3.5 3.2-3.5 3.8-3 4-3 4.7-2.8 5-2.7 5.8-2.3 6-2.2 6.5-2 6.7-2 7.5-1.8 7.8-1.5 8.2-1.5 8.8-1.2 9.2-1.3 9.5-1 10-2 21-1.2 22.8-1.3 24.2-.7 25.8-.8 27.2-.5 28.8-.7 61.5h201.5V525l-.5-33.7-.5-33.5M261.8 249l1.3.5 1.2.8 1.8 1.2 2.2 1.8 2.5 2.2 2.8 3 3 3.8 3.2 4.7 3 5.5 3.3 6.3 3 7.5 3 8.7 3 9.8 2.5 11 2.2 12.5.3.7 1.5 10 1.2 9.3 1.8 16.5 1 13.7.5 11 .2 8.8-.2 6-.3 4.7M311.8 365.5l8.5-3.2 9.5-4 11.5-5 6-3 6.5-3.3 6.5-3.2 6.3-3.8 6.2-3.7 5.8-3.8 5.2-4 5-4.2 6.3-6 7.2-7.8 6.3-7 5.5-6 2.7-3 2.8-2.5 4-3 4.2-3 5-2.5 5.8-2.2 3.2-1.3"/><path class="st5" d="M435.3 282.5l3.3-1.2 2.5-1 3.2-1 3.8-.8 4.2-1 4.8-.5 5-.2 5.2.2 5.5.5 4.3 1 3 .8 1 .5.7.7.8.8.5 1 .2 1 .3 1.2V307l-.3 6.3-.5 3.5-.2 1.7-.3.3-1.5 3.5-2 3.5-2.5 3.2-2.7 3.3-2.8 3-3.2 2.7-3.5 2.5-3.5 2.3-3.8 2-3.7 1.7-4 1.5-3.8 1.3-3.7.7-4 .8h-10l-2.5.2-2.8 1-2.7 1.5-3 1.8-3 2.2-3.3 2.8-3 3-7 7-7.2 8.2-8.3 9-9 9.5-4.7 4.8-5.3 5-5.5 5-5.7 5-14.3 12-7.2 5.7-7 5.3-6.8 5.2-6.7 4.8-6.8 4-6.2 3.7-6.5 3-3.3 1.3-3 1.2-3.2.8-3 .7-2.8.3-3 .2h-2.7l-2.8-.5-2.7-.5-2.5-1-2.8-1.2-2.2-1.5-2.5-1.8-2.3-2-2.2-2.7-2.3-3-2.2-3.8-2-4-2-4.5-2-5-2-5.5-1.8-5.5-3.7-12-3.3-12.7-3.2-13-2.8-13.3-2.5-13-2.2-12.2-3.8-21.3-2.2-14.7-.8-5.8"/><path class="st5" d="M298.8 329.3l1.3-.3 6-1.2 10.2-2.5 13.5-3.5 7.5-2.3 8-2.5 8.3-2.7 8.5-3 8.2-3.5 8.3-3.8 8-4 7.5-4.2 3.5-2.3 3.5-2.5 3.2-2.2 3-2.5 3-2.8 2.8-2.7 2.5-3 2.2-3 3.5-4.8 3.3-4.5 3.5-3.7 3.5-3.5 3.5-3 3.7-2.8 3.8-2.5 3.7-2 3.8-2 4-1.5 4-1.5 4.2-1.5 9-2.2 9.8-2.3 2-.2h2.2l3.3.2 4 .8 5 1.5 5.7 2.2 3.3 1.5 3.5 1.8M156.8 563.3l-.2 1.5-.8 4.2-.5 3.3-.2 4-.3 4.5-.2 5.5.2 5.7.5 6.8.8 7.2 1.2 8 1.8 8.5 2.2 9.3 2.8 9.7 3.5 10.3 1.5 5.5 1.5 6.7 1.5 8 1.5 8.8 1.2 9.5 1.3 10 2 21 1.7 21 1.5 19 1.8 27 .2 5M285.6 563.3l-.3.7-.2 1.8-.3 6.7-.2 10.5-.3 13.3v33.5l.3 38.7.5 76 .5 43.8v1.7M681.6 476.8v2.7l-.5 36.8v51.2l.2 46.5.5 50.8 1.3 52.5.7 26.2.8 25.5M508.3 518.8l.5 2 1.3 5 2 7.7 3.2 9.8 2.3 5.7 2.2 5.8 2.8 6.2 3.2 6.5 3.5 6.5 4 6.5 4.3 6.8 4.7 6.5 3 3.7 3.3 3.8 2.7 3.2 2.3 3.5 2.5 3.8 2 4 2 4.2 1.7 4.3 1.8 4.7 1.5 4.8 1.2 5 1.3 5 2 10.7 1.7 11.3 1.5 11.7 1 12 1 12.5 1.5 25.8 1.5 26 1 13 1.3 12.7v2.3M542.1 593.8l5.5 189M396.3 318.3l20 30"/><path class="st6" d="M410.3 286.3l6 2"/><path class="st5" d="M462.8 545.3l45 3h.5M680.3 516.3h.8l37.7-1.8 1.5-.2"/></svg>