<?xml version="1.0" encoding="iso-8859-1"?>
<!-- Generator: Adobe Illustrator 12.0.1, SVG Export Plug-In . SVG Version: 6.00 Build 51448)  -->
<!DOCTYPE svg PUBLIC "-//W3C//DTD SVG 1.1//EN" "http://www.w3.org/Graphics/SVG/1.1/DTD/svg11.dtd" [
	<!ENTITY ns_svg "http://www.w3.org/2000/svg">
	<!ENTITY ns_xlink "http://www.w3.org/1999/xlink">
]>
<svg  version="1.1" id="Layer_1" xmlns="&ns_svg;" xmlns:xlink="&ns_xlink;" width="850.394" height="850.394"
	 viewBox="0 0 850.394 850.394" style="overflow:visible;enable-background:new 0 0 850.394 850.394;" xml:space="preserve">
<g>
	<g id="XMLID_1_">
		<g>
			<path style="fill:#FAA41F;" d="M789.5,427.32c0.918,3.781,1.382,7.592,1.382,11.453c0,5.071-0.807,10.072-2.369,14.992
				c-0.686,1.22-5.273,9.325-11.887,21.363c-3.015,3.761-6.493,7.45-10.404,11.05c-14.326,13.247-34.47,25.437-59.312,36.184
				c-9.558,4.144-19.812,8.065-30.689,11.735c-11.453,3.892-23.602,7.501-36.375,10.828c-20.738,5.403-43.12,10.051-66.822,13.812
				c-12.29,1.956-24.933,3.67-37.888,5.132c-34.793,3.942-71.833,6.069-110.255,6.069c-0.041,0-0.071,0-0.111,0
				c-38.422,0-75.463-2.127-110.255-6.069c-12.955-1.462-25.598-3.176-37.887-5.132c-23.712-3.761-46.094-8.408-66.833-13.812
				c-12.774-3.327-24.922-6.947-36.365-10.828c-10.889-3.68-21.132-7.592-30.689-11.735c-24.852-10.747-44.995-22.946-59.321-36.184
				c-3.892-3.59-7.36-7.259-10.375-11.01c-6.644-12.088-11.241-20.224-11.906-21.414c-0.01-0.01-0.021-0.02-0.021-0.03
				c-1.552-4.909-2.349-9.9-2.349-14.951c0-3.861,0.464-7.672,1.381-11.453c3.004-12.471,10.898-24.458,22.977-35.679
				c6.926-6.442,15.224-12.643,24.771-18.53c10.092-6.251,21.575-12.159,34.298-17.684c9.548-4.164,19.781-8.096,30.659-11.786
				c47.949-16.313,108.198-28.018,175.252-33.139c13.54-1.039,27.362-1.805,41.417-2.289c10.858-0.373,21.847-0.575,32.967-0.595
				c0.756,0,1.522-0.01,2.279-0.01c0.807,0,1.603,0,2.399,0.01c11.11,0.02,22.109,0.222,32.958,0.595
				c14.054,0.484,27.876,1.25,41.416,2.289c67.054,5.122,127.313,16.827,175.252,33.139c10.879,3.69,21.112,7.622,30.659,11.786
				c12.724,5.524,24.196,11.433,34.288,17.673c9.548,5.898,17.855,12.098,24.781,18.541
				C778.602,402.872,786.496,414.85,789.5,427.32z M504.607,432.503c0-6.614-11.493-11.978-25.668-11.978
				c-14.165,0-25.658,5.364-25.658,11.978c0,6.613,11.493,11.977,25.658,11.977C493.114,444.479,504.607,439.116,504.607,432.503z
				 M396.369,432.503c0-6.614-11.493-11.978-25.668-11.978c-14.165,0-25.659,5.364-25.659,11.978
				c0,6.613,11.494,11.977,25.659,11.977C384.875,444.479,396.369,439.116,396.369,432.503z"/>
			<path style="fill:#FAA41F;" d="M766.222,486.179c3.911-3.6,7.39-7.289,10.404-11.05c-8.902,16.171-21.465,39.43-33.18,62.567
				l-0.998-0.504c-61.721,40.247-180.687,67.64-317.618,68.093c-136.942-0.453-255.908-27.846-317.628-68.093l-0.988,0.494
				c-11.715-23.107-24.267-46.356-33.169-62.518c3.015,3.751,6.483,7.42,10.375,11.01c14.326,13.237,34.47,25.437,59.321,36.184
				c9.558,4.144,19.801,8.056,30.689,11.735c11.443,3.881,23.591,7.501,36.365,10.828c20.738,5.403,43.12,10.051,66.833,13.812
				c12.29,1.956,24.932,3.67,37.887,5.132c34.792,3.942,71.833,6.069,110.255,6.069c0.04,0,0.07,0,0.111,0
				c38.422,0,75.462-2.127,110.255-6.069c12.955-1.462,25.598-3.176,37.888-5.132c23.702-3.761,46.084-8.408,66.822-13.812
				c12.773-3.327,24.922-6.937,36.375-10.828c10.878-3.67,21.132-7.592,30.689-11.735
				C731.752,511.615,751.896,499.426,766.222,486.179z"/>
			<path style="fill:#F6CC4B;" d="M424.83,605.285c136.932-0.453,255.897-27.846,317.618-68.093l0.998,0.504
				c-7.319,14.417-14.296,28.794-19.851,41.366c-14.024,31.728-10.273,72.992-15.98,108.35
				c-6.744,41.85-50.177,101.514-281.707,111.777h-2.167c-231.53-10.264-274.962-69.928-281.717-111.777
				c-5.696-35.357-1.946-76.622-15.969-108.35c-5.555-12.582-12.532-26.949-19.841-41.376l0.988-0.494
				C168.922,577.439,287.888,604.832,424.83,605.285z"/>
			<path style="fill:#FFEEC8;" d="M478.939,420.525c14.175,0,25.668,5.364,25.668,11.978c0,6.613-11.493,11.977-25.668,11.977
				c-14.165,0-25.658-5.363-25.658-11.977C453.281,425.889,464.774,420.525,478.939,420.525z"/>
			<path style="fill:#FFEEC8;" d="M370.701,420.525c14.175,0,25.668,5.364,25.668,11.978c0,6.613-11.493,11.977-25.668,11.977
				c-14.165,0-25.659-5.363-25.659-11.977C345.042,425.889,356.536,420.525,370.701,420.525z"/>
		</g>
		<g>
			<path style="fill:none;stroke:#231F20;stroke-width:21.1719;" d="M61.117,453.725c-1.552-4.909-2.349-9.9-2.349-14.951
				c0-3.861,0.464-7.672,1.381-11.453c3.004-12.471,10.898-24.458,22.977-35.679c6.926-6.442,15.224-12.643,24.771-18.53
				c10.092-6.251,21.575-12.159,34.298-17.684c9.548-4.164,19.781-8.096,30.659-11.786c47.949-16.313,108.198-28.018,175.252-33.139
				c13.54-1.039,27.362-1.805,41.417-2.289c10.858-0.373,21.847-0.575,32.967-0.595"/>
			<path style="fill:none;stroke:#231F20;stroke-width:21.1719;" d="M424.77,569.938c-38.422,0-75.463-2.127-110.255-6.069
				c-12.955-1.462-25.598-3.176-37.887-5.132c-23.712-3.761-46.094-8.408-66.833-13.812c-12.774-3.327-24.922-6.947-36.365-10.828
				c-10.889-3.68-21.132-7.592-30.689-11.735c-24.852-10.747-44.995-22.946-59.321-36.184c-3.892-3.59-7.36-7.259-10.375-11.01
				c-5.565-6.916-9.588-14.074-11.906-21.414"/>
			<path style="fill:none;stroke:#231F20;stroke-width:21.1719;" d="M428.298,605.296c-1.159,0-2.318,0-3.468-0.011
				c-136.942-0.453-255.908-27.846-317.628-68.093"/>
			<polyline style="fill:none;stroke:#231F20;stroke-width:14.1146;stroke-linecap:round;stroke-linejoin:round;" points="
				389.523,306.47 389.523,308.214 389.523,347.523 			"/>
			<polyline style="fill:none;stroke:#231F20;stroke-width:14.1146;stroke-linecap:round;stroke-linejoin:round;" points="
				347.421,307.478 348.107,310.502 356.455,347.533 			"/>
			
				<line style="fill:none;stroke:#231F20;stroke-width:14.1146;stroke-linecap:round;stroke-linejoin:round;" x1="313.204" y1="314.323" x2="322.227" y2="354.378"/>
			
				<line style="fill:none;stroke:#231F20;stroke-width:14.1146;stroke-linecap:round;stroke-linejoin:round;" x1="275.488" y1="320.221" x2="289.159" y2="358.936"/>
			
				<line style="fill:none;stroke:#231F20;stroke-width:14.1146;stroke-linecap:round;stroke-linejoin:round;" x1="243.296" y1="327.44" x2="256.967" y2="366.154"/>
			
				<line style="fill:none;stroke:#231F20;stroke-width:14.1146;stroke-linecap:round;stroke-linejoin:round;" x1="209.744" y1="333.842" x2="222.85" y2="372.748"/>
			<polyline style="fill:none;stroke:#231F20;stroke-width:14.1146;stroke-linecap:round;stroke-linejoin:round;" points="
				172.834,343.601 172.854,343.642 190.417,380.692 			"/>
			<polyline style="fill:none;stroke:#231F20;stroke-width:14.1146;stroke-linecap:round;stroke-linejoin:round;" points="
				141.561,354.086 142.195,355.427 159.143,391.188 			"/>
			<polyline style="fill:none;stroke:#231F20;stroke-width:14.1146;stroke-linecap:round;stroke-linejoin:round;" points="
				107.474,372.687 107.897,373.111 136.822,401.41 			"/>
			
				<line style="fill:none;stroke:#231F20;stroke-width:14.1146;stroke-linecap:round;stroke-linejoin:round;" x1="391.802" y1="567.933" x2="391.802" y2="526.869"/>
			
				<line style="fill:none;stroke:#231F20;stroke-width:14.1146;stroke-linecap:round;stroke-linejoin:round;" x1="349.7" y1="566.924" x2="358.733" y2="526.869"/>
			<polyline style="fill:none;stroke:#231F20;stroke-width:14.1146;stroke-linecap:round;stroke-linejoin:round;" points="
				314.343,564.646 314.514,563.869 323.366,524.59 			"/>
			
				<line style="fill:none;stroke:#231F20;stroke-width:14.1146;stroke-linecap:round;stroke-linejoin:round;" x1="276.627" y1="558.737" x2="290.298" y2="520.023"/>
			
				<line style="fill:none;stroke:#231F20;stroke-width:14.1146;stroke-linecap:round;stroke-linejoin:round;" x1="244.436" y1="551.519" x2="258.106" y2="512.814"/>
			<polyline style="fill:none;stroke:#231F20;stroke-width:14.1146;stroke-linecap:round;stroke-linejoin:round;" points="
				209.734,545.117 209.794,544.926 222.84,506.211 			"/>
			<polyline style="fill:none;stroke:#231F20;stroke-width:14.1146;stroke-linecap:round;stroke-linejoin:round;" points="
				172.824,535.368 173.429,534.098 190.417,498.267 			"/>
			<polyline style="fill:none;stroke:#231F20;stroke-width:14.1146;stroke-linecap:round;stroke-linejoin:round;" points="
				141.55,524.873 142.74,522.362 159.143,487.771 			"/>
			
				<line style="fill:none;stroke:#231F20;stroke-width:14.1146;stroke-linecap:round;stroke-linejoin:round;" x1="109.752" y1="502.854" x2="139.101" y2="474.131"/>
			<polyline style="fill:none;stroke:#231F20;stroke-width:14.1146;stroke-linecap:round;stroke-linejoin:round;" points="
				82.138,390.885 83.126,391.641 114.652,415.958 			"/>
			<polyline style="fill:none;stroke:#231F20;stroke-width:14.1146;stroke-linecap:round;stroke-linejoin:round;" points="
				58.294,427.24 60.149,427.32 99.317,428.974 			"/>
			
				<line style="fill:none;stroke:#231F20;stroke-width:14.1146;stroke-linecap:round;stroke-linejoin:round;" x1="65.069" y1="459.472" x2="104.066" y2="446.647"/>
			<polyline style="fill:none;stroke:#231F20;stroke-width:14.1146;stroke-linecap:round;stroke-linejoin:round;" points="
				80.878,487.751 83.418,486.179 115.801,466.156 			"/>
			<path style="fill:none;stroke:#231F20;stroke-width:14.1146;" d="M396.369,432.503c0,6.613-11.493,11.977-25.668,11.977
				c-14.165,0-25.659-5.363-25.659-11.977c0-6.614,11.494-11.978,25.659-11.978C384.875,420.525,396.369,425.889,396.369,432.503z"
				/>
			<path style="fill:none;stroke:#231F20;stroke-width:21.1719;" d="M424.77,569.938c0.04,0,0.07,0,0.111,0
				c38.422,0,75.462-2.127,110.255-6.069c12.955-1.462,25.598-3.176,37.888-5.132c23.702-3.761,46.084-8.408,66.822-13.812
				c12.773-3.327,24.922-6.937,36.375-10.828c10.878-3.67,21.132-7.592,30.689-11.735c24.842-10.747,44.985-22.937,59.312-36.184
				c3.911-3.6,7.39-7.289,10.404-11.05c5.555-6.906,9.567-14.044,11.887-21.363c1.563-4.92,2.369-9.921,2.369-14.992
				c0-3.861-0.464-7.672-1.382-11.453c-3.004-12.471-10.898-24.448-22.977-35.679c-6.926-6.442-15.233-12.643-24.781-18.541
				c-10.092-6.241-21.564-12.149-34.288-17.673c-9.547-4.164-19.78-8.096-30.659-11.786
				c-47.938-16.313-108.198-28.018-175.252-33.139c-13.54-1.039-27.362-1.805-41.416-2.289c-10.849-0.373-21.848-0.575-32.958-0.595
				c-0.797-0.01-1.593-0.01-2.399-0.01c-0.756,0-1.522,0.01-2.279,0.01"/>
			<path style="fill:none;stroke:#231F20;stroke-width:21.1719;" d="M421.352,605.296c1.16,0,2.319,0,3.479-0.011
				c136.932-0.453,255.897-27.846,317.618-68.093"/>
			<polyline style="fill:none;stroke:#231F20;stroke-width:14.1146;stroke-linecap:round;stroke-linejoin:round;" points="
				424.77,306.47 424.77,307.609 424.77,347.523 			"/>
			<polyline style="fill:none;stroke:#231F20;stroke-width:14.1146;stroke-linecap:round;stroke-linejoin:round;" points="
				460.127,306.47 460.127,308.214 460.127,347.523 			"/>
			<polyline style="fill:none;stroke:#231F20;stroke-width:14.1146;stroke-linecap:round;stroke-linejoin:round;" points="
				502.229,307.478 501.543,310.502 493.195,347.533 			"/>
			
				<line style="fill:none;stroke:#231F20;stroke-width:14.1146;stroke-linecap:round;stroke-linejoin:round;" x1="536.446" y1="314.323" x2="527.423" y2="354.378"/>
			
				<line style="fill:none;stroke:#231F20;stroke-width:14.1146;stroke-linecap:round;stroke-linejoin:round;" x1="574.162" y1="320.221" x2="560.491" y2="358.936"/>
			
				<line style="fill:none;stroke:#231F20;stroke-width:14.1146;stroke-linecap:round;stroke-linejoin:round;" x1="606.363" y1="327.44" x2="592.683" y2="366.154"/>
			
				<line style="fill:none;stroke:#231F20;stroke-width:14.1146;stroke-linecap:round;stroke-linejoin:round;" x1="639.906" y1="333.842" x2="626.8" y2="372.748"/>
			<polyline style="fill:none;stroke:#231F20;stroke-width:14.1146;stroke-linecap:round;stroke-linejoin:round;" points="
				676.815,343.601 676.795,343.642 659.232,380.692 			"/>
			<polyline style="fill:none;stroke:#231F20;stroke-width:14.1146;stroke-linecap:round;stroke-linejoin:round;" points="
				708.09,354.086 707.454,355.427 690.507,391.188 			"/>
			<polyline style="fill:none;stroke:#231F20;stroke-width:14.1146;stroke-linecap:round;stroke-linejoin:round;" points="
				742.166,372.687 741.742,373.101 712.828,401.41 			"/>
			
				<line style="fill:none;stroke:#231F20;stroke-width:14.1146;stroke-linecap:round;stroke-linejoin:round;" x1="422.491" y1="567.933" x2="422.491" y2="526.869"/>
			
				<line style="fill:none;stroke:#231F20;stroke-width:14.1146;stroke-linecap:round;stroke-linejoin:round;" x1="457.848" y1="567.933" x2="457.848" y2="526.869"/>
			
				<line style="fill:none;stroke:#231F20;stroke-width:14.1146;stroke-linecap:round;stroke-linejoin:round;" x1="499.939" y1="566.924" x2="490.916" y2="526.869"/>
			<polyline style="fill:none;stroke:#231F20;stroke-width:14.1146;stroke-linecap:round;stroke-linejoin:round;" points="
				535.307,564.646 535.136,563.869 526.283,524.59 			"/>
			
				<line style="fill:none;stroke:#231F20;stroke-width:14.1146;stroke-linecap:round;stroke-linejoin:round;" x1="573.023" y1="558.737" x2="559.352" y2="520.023"/>
			
				<line style="fill:none;stroke:#231F20;stroke-width:14.1146;stroke-linecap:round;stroke-linejoin:round;" x1="605.214" y1="551.519" x2="591.554" y2="512.814"/>
			<polyline style="fill:none;stroke:#231F20;stroke-width:14.1146;stroke-linecap:round;stroke-linejoin:round;" points="
				639.906,545.117 639.846,544.926 626.81,506.211 			"/>
			<polyline style="fill:none;stroke:#231F20;stroke-width:14.1146;stroke-linecap:round;stroke-linejoin:round;" points="
				676.825,535.368 676.221,534.098 659.232,498.267 			"/>
			<polyline style="fill:none;stroke:#231F20;stroke-width:14.1146;stroke-linecap:round;stroke-linejoin:round;" points="
				708.1,524.873 706.91,522.362 690.507,487.771 			"/>
			
				<line style="fill:none;stroke:#231F20;stroke-width:14.1146;stroke-linecap:round;stroke-linejoin:round;" x1="739.897" y1="502.854" x2="710.55" y2="474.131"/>
			<polyline style="fill:none;stroke:#231F20;stroke-width:14.1146;stroke-linecap:round;stroke-linejoin:round;" points="
				767.512,390.885 766.523,391.641 734.988,415.958 			"/>
			<polyline style="fill:none;stroke:#231F20;stroke-width:14.1146;stroke-linecap:round;stroke-linejoin:round;" points="
				791.355,427.24 789.5,427.32 750.332,428.974 			"/>
			
				<line style="fill:none;stroke:#231F20;stroke-width:14.1146;stroke-linecap:round;stroke-linejoin:round;" x1="784.58" y1="459.472" x2="745.573" y2="446.647"/>
			<polyline style="fill:none;stroke:#231F20;stroke-width:14.1146;stroke-linecap:round;stroke-linejoin:round;" points="
				768.762,487.751 766.222,486.179 733.858,466.156 			"/>
			<path style="fill:none;stroke:#231F20;stroke-width:14.1146;" d="M453.281,432.503c0,6.613,11.493,11.977,25.658,11.977
				c14.175,0,25.668-5.363,25.668-11.977c0-6.614-11.493-11.978-25.668-11.978C464.774,420.525,453.281,425.889,453.281,432.503z"/>
			<path style="fill:none;stroke:#231F20;stroke-width:21.1719;" d="M788.604,453.604c0,0-0.03,0.05-0.091,0.161
				c-0.686,1.22-5.273,9.325-11.887,21.363c-8.902,16.171-21.465,39.43-33.18,62.567c-7.319,14.417-14.296,28.794-19.851,41.366
				c-14.024,31.728-10.273,72.992-15.98,108.35c-6.744,41.85-50.177,101.514-281.707,111.777h-2.167
				c-231.53-10.264-274.962-69.928-281.717-111.777c-5.696-35.357-1.946-76.622-15.969-108.35
				c-5.555-12.582-12.532-26.949-19.841-41.376c-11.715-23.107-24.267-46.356-33.169-62.518
				c-6.644-12.088-11.241-20.224-11.906-21.414c-0.01-0.01-0.021-0.02-0.021-0.03c-0.05-0.08-0.07-0.12-0.07-0.12"/>
		</g>
	</g>
</g>
<rect style="fill:none;" width="850.394" height="850.394"/>
<g id="XMLID_244_">
	<g>
		<path style="fill:#FFA500;" d="M679.266,279.027c0,0-11.167,6.534-22.314,6.534c-3.486,0-6.165-0.045-8.738-0.306v-0.003
			c39.873-3.022,69.696-51.983,69.696-104.951c0-49.097-27.989-93.38-63.716-101.48c2.701-1.72,4.229-3.471,4.229-5.089l0.17-0.577
			c2.728,0.796,4.207,1.392,4.207,1.392c58.427,7.198,82.334,58.129,82.334,105.773C745.133,222.347,718.69,259.093,679.266,279.027
			z"/>
		<path style="fill:#FFA500;" d="M654.193,78.821c-2.864,1.822-7.044,3.606-12.133,5.161c0,0-13.627-5.229-17.43-14.763
			c15.807-0.558,27.937,2.177,33.961,3.935l-0.17,0.577C658.422,75.351,656.895,77.101,654.193,78.821z"/>
		<path style="fill:#FFA500;" d="M648.213,285.256c-4.55-0.468-8.76-1.618-16.517-4.437c28.382-8.624,52.006-51.248,52.006-99.896
			c0-47.003-20.059-85.19-47.015-95.47c1.883-0.457,3.679-0.951,5.373-1.471c5.089-1.555,9.269-3.339,12.133-5.161
			c35.727,8.1,63.716,52.383,63.716,101.48c0,52.968-29.823,101.929-69.696,104.951V285.256z"/>
		<path style="fill:#FFA500;" d="M631.696,280.819c-1.871-0.675-3.949-1.452-6.288-2.339c-4.361-1.656-7.478-2.954-10.164-3.746
			l0.158-0.536c-6.024-15.739-10.167-53.896-10.167-91.516c0-47.256,6.538-86.518,15.132-94.313l-0.011-0.086
			c5.848-0.63,11.382-1.615,16.331-2.83c26.956,10.28,47.015,48.467,47.015,95.47C683.702,229.572,660.078,272.195,631.696,280.819z
			"/>
		<path style="fill:#FFA500;" d="M596.223,70.208l0.004,0.003c-1.441,3.067-2.717,5.874-3.863,8.119
			c-4.139,8.107-23.53,6.346-23.53,6.346v0.004c-1.011-0.302-1.965-0.615-2.852-0.943h-0.004c-0.623-0.226-1.211-0.46-1.77-0.698
			c-3.463-1.482-5.659-3.165-6.229-4.961c10.325-3.166,23.907-6.647,36.425-7.719C595.016,70.307,595.623,70.257,596.223,70.208z"/>
		<path style="fill:#FFA500;" d="M606.145,89.042c0.091,0,0.185,0,0.275,0c4.742,0,9.432-0.272,13.937-0.758l0.011,0.086
			c-8.594,7.794-15.132,47.056-15.132,94.313c0,37.621,4.143,75.777,10.167,91.516l-0.158,0.536
			c-6.436-1.901-10.438-0.924-23.308,4.931c-1.724,0.785-3.516,1.43-5.356,1.95c-28.103-8.986-49.297-49.259-49.297-97.579
			c0-46.479,19.613-85.51,46.12-96.413C590.179,88.517,597.92,89.03,606.145,89.042z"/>
		<path style="fill:#FFA500;" d="M586.58,281.615c-4.15,1.185-8.526,1.747-12.823,1.905c-39.877-3.018-70.681-47.135-70.681-100.103
			c0-49.097,27.171-91.577,62.901-99.681h0.004c0.887,0.329,1.841,0.642,2.852,0.943c4.011,1.2,8.96,2.203,14.57,2.943
			c-26.507,10.903-46.12,49.935-46.12,96.413C537.283,232.356,558.478,272.629,586.58,281.615z"/>
		<path style="fill:#00E800;" d="M583.403,87.623c-5.61-0.74-10.56-1.743-14.57-2.943v-0.004c0,0,19.392,1.762,23.53-6.346
			c1.146-2.245,2.422-5.051,3.863-8.119c3.754-8.013,8.609-17.814,15.14-24.084c9.031-8.669,14.237-10.356,21.889-12.838
			l5.429,7.881c0,0-4.184,1.185-10.446,7.949c-5.625,6.07-7.206,9.1-3.931,19.203c0.098,0.302,0.207,0.6,0.324,0.898
			c3.803,9.534,17.43,14.763,17.43,14.763c-1.694,0.521-3.49,1.015-5.373,1.471c-4.949,1.215-10.483,2.199-16.331,2.83
			c-4.505,0.486-9.194,0.758-13.937,0.758c-0.091,0-0.185,0-0.275,0C597.92,89.03,590.179,88.517,583.403,87.623z"/>
		<path style="fill:#FFA500;" d="M564.208,83.039c0.559,0.238,1.146,0.472,1.77,0.698c-35.73,8.104-62.901,50.583-62.901,99.681
			c0,52.968,30.804,97.085,70.681,100.103c-15.109,0.566-29.249-3.855-29.249-3.855c-40.13-19.784-67.146-56.865-67.146-99.345
			c0-37.059,11.888-70.005,43.77-90.947c0,0,21.886-10.952,35.738-10.952c0.366-0.113,0.736-0.227,1.109-0.343
			C558.549,79.874,560.745,81.557,564.208,83.039z"/>
	</g>
	<g>
		<path style="fill:none;stroke:#000000;stroke-width:7.7241;" d="M624.631,69.22c15.807-0.558,27.937,2.177,33.961,3.935
			c2.728,0.796,4.207,1.392,4.207,1.392c58.427,7.198,82.334,58.129,82.334,105.773c0,42.027-26.442,78.772-65.867,98.707
			c0,0-11.167,6.534-22.314,6.534c-3.486,0-6.165-0.045-8.738-0.306c-4.55-0.468-8.76-1.618-16.517-4.437
			c-1.871-0.675-3.949-1.452-6.288-2.339c-4.361-1.656-7.478-2.954-10.164-3.746c-6.436-1.901-10.438-0.924-23.308,4.931
			c-1.724,0.785-3.516,1.43-5.356,1.95c-4.15,1.185-8.526,1.747-12.823,1.905c-15.109,0.566-29.249-3.855-29.249-3.855
			c-40.13-19.784-67.146-56.865-67.146-99.345c0-37.059,11.888-70.005,43.77-90.947c0,0,21.886-10.952,35.738-10.952"/>
		<path style="fill:none;stroke:#000000;stroke-width:7.7241;" d="M556.87,78.421c0.366-0.113,0.736-0.227,1.109-0.343
			c10.325-3.166,23.907-6.647,36.425-7.719c0.611-0.053,1.219-0.102,1.818-0.151"/>
		<path style="fill:none;stroke:#000000;stroke-width:7.7241;" d="M564.208,83.039c-3.463-1.482-5.659-3.165-6.229-4.961
			c-0.105-0.31-0.154-0.626-0.154-0.943"/>
		<path style="fill:none;stroke:#000000;stroke-width:7.7241;" d="M565.978,83.737c-0.623-0.226-1.211-0.46-1.77-0.698"/>
		<path style="fill:none;stroke:#000000;stroke-width:7.7241;" d="M658.422,73.732c0,1.619-1.527,3.369-4.229,5.089
			c-2.864,1.822-7.044,3.606-12.133,5.161c-1.694,0.521-3.49,1.015-5.373,1.471c-4.949,1.215-10.483,2.199-16.331,2.83
			c-4.505,0.486-9.194,0.758-13.937,0.758c-0.091,0-0.185,0-0.275,0c-8.225-0.012-15.966-0.524-22.741-1.418
			c-5.61-0.74-10.56-1.743-14.57-2.943c-1.011-0.302-1.965-0.615-2.852-0.943"/>
		<path style="fill:none;stroke:#000000;stroke-width:7.7241;" d="M642.061,83.982c0,0-13.627-5.229-17.43-14.763
			c-0.117-0.298-0.227-0.596-0.324-0.898c-3.275-10.103-1.694-13.132,3.931-19.203c6.263-6.764,10.446-7.949,10.446-7.949
			l-5.429-7.881c-7.651,2.482-12.857,4.168-21.889,12.838c-6.53,6.271-11.386,16.072-15.14,24.084
			c-1.441,3.067-2.717,5.874-3.863,8.119c-4.139,8.107-23.53,6.346-23.53,6.346"/>
		<path style="fill:none;stroke:#000000;stroke-width:7.7241;" d="M573.757,283.521c-39.877-3.018-70.681-47.135-70.681-100.103
			c0-49.097,27.171-91.577,62.901-99.681h0.004"/>
		<path style="fill:none;stroke:#000000;stroke-width:7.7241;" d="M587.153,281.796c-0.192-0.057-0.381-0.117-0.573-0.181
			c-28.103-8.986-49.297-49.259-49.297-97.579c0-46.479,19.613-85.51,46.12-96.413c1.49-0.615,3.007-1.14,4.538-1.57"/>
		<path style="fill:none;stroke:#000000;stroke-width:7.7241;" d="M602.425,274.078c-18.373-12.057-31.721-48.452-31.721-91.482
			c0-47.26,14.269-85.756,35.44-93.554"/>
		<path style="fill:none;stroke:#000000;stroke-width:7.7241;" d="M615.546,274.564c-0.049-0.121-0.094-0.245-0.144-0.366
			c-6.024-15.739-10.167-53.896-10.167-91.516c0-47.256,6.538-86.518,15.132-94.313"/>
		<path style="fill:none;stroke:#000000;stroke-width:7.7241;" d="M648.213,285.252c39.873-3.022,69.696-51.983,69.696-104.951
			c0-49.097-27.989-93.38-63.716-101.48"/>
		<path style="fill:none;stroke:#000000;stroke-width:7.7241;" d="M631.696,280.819c28.382-8.624,52.006-51.248,52.006-99.896
			c0-47.003-20.059-85.19-47.015-95.47c-1.199-0.457-2.414-0.86-3.641-1.204"/>
		<path style="fill:none;stroke:#000000;stroke-width:7.7241;" d="M622.967,275.858c13.37-12.061,23.085-53.345,23.085-96.375
			c0-47.26-9.666-82.995-25.073-90.789"/>
	</g>
</g>
</svg>
