<svg xmlns="http://www.w3.org/2000/svg" width="850.394" height="850.394" viewBox="0 0 850.394 850.394" overflow="visible"><path d="M647.61 58.89c58.6 5.17 88.13 20.33 95.93 24.94l-1.56 2.84-193.98.1v-3.64c9.6-5.42 38.85-19.25 94.2-24.13l5.41-.11z" fill="#ffffc2"/><path d="M680.8 508.02c4.66 0 8.431 6.66 8.431 14.86 0 8.21-3.771 14.87-8.431 14.87s-8.42-6.66-8.42-14.87c0-8.2 3.76-14.86 8.42-14.86z" fill="#ed1d31"/><path d="M644.64 507.82c4.66 0 8.431 6.649 8.431 14.859 0 8.2-3.771 14.86-8.431 14.86-4.649 0-8.42-6.66-8.42-14.86 0-8.209 3.77-14.859 8.42-14.859zM608.85 508.02c4.65 0 8.431 6.66 8.431 14.86 0 8.21-3.78 14.87-8.431 14.87-4.649 0-8.43-6.66-8.43-14.87 0-8.2 3.78-14.86 8.43-14.86z" fill="#c8c8c8"/><path d="M643.94 377.95c70.119 0 69.989-9.38 69.859-10.15l39.21 174.38-18.38 28.61s-40.86 5.3-87.43 5.3l-3.37.12c-46.58 0-88.66-5.32-88.66-5.32l-18.38-28.6L576 367.9c-.13.76-.26 9.99 67.94 10.15v-.1zm45.29 144.93c0-8.2-3.771-14.86-8.431-14.86s-8.42 6.66-8.42 14.86c0 8.21 3.76 14.87 8.42 14.87s8.431-6.66 8.431-14.87zm-36.16-.2c0-8.21-3.771-14.859-8.431-14.859-4.649 0-8.42 6.649-8.42 14.859 0 8.2 3.771 14.86 8.42 14.86 4.661 0 8.431-6.66 8.431-14.86zm-35.79.2c0-8.2-3.78-14.86-8.431-14.86-4.649 0-8.43 6.66-8.43 14.86 0 8.21 3.78 14.87 8.43 14.87 4.651 0 8.431-6.66 8.431-14.87z" fill="#ffffc2"/><path d="M291.73 743.17c82.68 0 155.46-24.56 197.79-61.78-18.35 61.75-98.99 108.29-195.709 108.29-94.19 0-173.13-44.13-194.13-103.489C142.66 720.71 212.67 743.17 291.73 743.17z" fill="#f6cc4b"/><path d="M489.52 681.39c-42.329 37.221-115.109 61.78-197.79 61.78-79.06 0-149.07-22.46-192.05-56.979C71.6 663.64 55.05 635.94 55.05 606c0-75.77 105.96-137.18 236.68-137.18S528.42 530.23 528.42 606c0 27.84-14.31 53.75-38.9 75.39zm17.23-76.64c0-64.95-96.27-117.61-215.02-117.61S76.71 539.8 76.71 604.75c0 64.94 96.27 117.58 215.02 117.58s215.02-52.64 215.02-117.58z" fill="#f6cc4b"/><path d="M291.73 722.33c-118.75 0-215.02-52.64-215.02-117.58 0-64.95 96.27-117.61 215.02-117.61s215.02 52.66 215.02 117.61c0 64.94-96.27 117.58-215.02 117.58zm-.99-4.76c106.4 0 192.649-43.221 192.649-96.54 0-53.32-86.25-96.54-192.649-96.54-106.39 0-192.64 43.22-192.64 96.54 0 53.32 86.25 96.54 192.64 96.54z" fill="#fff"/><path d="M290.74 524.49c106.4 0 192.649 43.22 192.649 96.54 0 53.319-86.25 96.54-192.649 96.54-106.39 0-192.64-43.221-192.64-96.54 0-53.32 86.25-96.54 192.64-96.54z" fill="#abd153"/><g fill="none" stroke="#231f20"><path d="M506.75 604.75c0 64.94-96.27 117.58-215.02 117.58S76.71 669.69 76.71 604.75c0-64.95 96.27-117.61 215.02-117.61s215.02 52.66 215.02 117.61z" stroke-width="14"/><path d="M99.68 686.19C71.6 663.64 55.05 635.94 55.05 606c0-75.77 105.96-137.18 236.68-137.18S528.42 530.23 528.42 606c0 27.84-14.31 53.75-38.9 75.39-42.329 37.221-115.109 61.78-197.79 61.78-79.06 0-149.07-22.46-192.05-56.98z" stroke-width="14"/><path d="M489.52 681.37v.02c-18.35 61.75-98.99 108.29-195.709 108.29-94.19 0-173.13-44.13-194.13-103.489-.14-.391-.28-.79-.41-1.181" stroke-width="14"/><path d="M483.39 621.03c0 53.319-86.25 96.54-192.649 96.54-106.39 0-192.64-43.221-192.64-96.54 0-53.32 86.25-96.54 192.64-96.54 106.399 0 192.649 43.22 192.649 96.54z" stroke-width="7"/><path d="M194.59 573.65c-7.7 0-23.13 15.319-18.21 27.31M269.76 638.15c-7.7 0-23.13 15.319-18.21 27.31M326.9 594.01c1.81-7.49-9.46-26.08-22.27-24.109M418.27 649.38c1.81-7.49-9.46-26.08-22.26-24.11M549.86 105.57H519.22l36.48 59.76M576 367.9c-.13.76-.26 9.99 67.94 10.15.64.01 1.29.01 1.939.01" stroke-width="14"/><path stroke-width="14" d="M713.79 367.75l7.94-79.15 18.63-185.78 1.62-16.15-193.98.1h-.18l1.89 18.8 5.99 59.76 20.31 202.52M643.94 377.95c70.119 0 69.989-9.38 69.859-10.15"/><path d="M713.79 367.75l.01.05 39.21 174.38-18.38 28.61s-40.86 5.3-87.43 5.3l-3.37.12c-46.58 0-88.66-5.32-88.66-5.32l-18.38-28.6L576 367.9l.01-.05M745.68 85.18s-.699-.49-2.14-1.35c-7.8-4.61-37.33-19.77-95.93-24.94l-5.41.11c-55.35 4.88-84.6 18.71-94.2 24.13-2.45 1.38-3.62 2.22-3.62 2.22M744.33 103.22s36.81-7.12 39.22 17.46c3.91 40.09 12.25 140.03 12.25 140.03s-43.14 17.01-74.069 27.89" stroke-width="14"/><path stroke-width="14" stroke-linecap="round" stroke-linejoin="round" d="M614.42 380.21l-12.57 95.28M674.65 380.54l12.56 95.29"/><path d="M617.28 522.88c0 8.21-3.78 14.87-8.431 14.87-4.649 0-8.43-6.66-8.43-14.87 0-8.2 3.78-14.86 8.43-14.86 4.651 0 8.431 6.66 8.431 14.86zM653.07 522.68c0 8.2-3.771 14.86-8.431 14.86-4.649 0-8.42-6.66-8.42-14.86 0-8.21 3.771-14.859 8.42-14.859 4.661-.001 8.431 6.649 8.431 14.859zM689.23 522.88c0 8.21-3.771 14.87-8.431 14.87s-8.42-6.66-8.42-14.87c0-8.2 3.76-14.86 8.42-14.86s8.431 6.66 8.431 14.86z" stroke-width="7" stroke-linecap="round" stroke-linejoin="round"/></g><path fill="none" d="M0 0h850.394v850.394H0z"/></svg>