<?xml version="1.0" encoding="iso-8859-1"?>
<!-- Generator: Adobe Illustrator 12.0.1, SVG Export Plug-In . SVG Version: 6.00 Build 51448)  -->
<!DOCTYPE svg PUBLIC "-//W3C//DTD SVG 1.1//EN" "http://www.w3.org/Graphics/SVG/1.1/DTD/svg11.dtd" [
	<!ENTITY ns_svg "http://www.w3.org/2000/svg">
	<!ENTITY ns_xlink "http://www.w3.org/1999/xlink">
]>
<svg  version="1.1" id="Layer_1" xmlns="&ns_svg;" xmlns:xlink="&ns_xlink;" width="850.394" height="850.394"
	 viewBox="0 0 850.394 850.394" style="overflow:visible;enable-background:new 0 0 850.394 850.394;" xml:space="preserve">
<g id="XMLID_1_">
	<g>
		<polygon style="fill:#EFDCEF;" points="746,552 501.74,507.46 521.21,718.57 520.62,720.93 98.77,615.47 465.23,97.21 
			753.15,550.04 747.7,554.22 		"/>
		<polygon style="fill:#EFDCEF;" points="501.74,507.46 746,552 747.7,554.22 528.05,722.79 520.62,720.93 521.21,718.57 		"/>
	</g>
	<g>
		<polyline style="fill:none;stroke:#904788;stroke-width:11;" points="112,612 405.02,489.83 462,114 		"/>
		<polyline style="fill:none;stroke:#904788;stroke-width:11;" points="405.02,489.83 501.74,507.46 746,552 		"/>
		<polygon style="fill:none;stroke:#50264C;stroke-width:18;" points="747.7,554.22 753.15,550.04 465.23,97.21 98.77,615.47 
			520.62,720.93 528.05,722.79 		"/>
		<polyline style="fill:none;stroke:#50264C;stroke-width:18;" points="465.26,111.98 501.74,507.46 521.21,718.57 		"/>
	</g>
</g>
<rect style="fill:none;" width="850.394" height="850.394"/>
</svg>
