<svg xmlns="http://www.w3.org/2000/svg" width="850.394" height="850.394" viewBox="0 0 850.394 850.394" overflow="visible"><path d="M752.05 467.72c20.601-23.319 19.22 6.771 9.51 25.96-5.18 10.301-10.31 12.58-15.069 23.271-2.811 6.28-4.221 19.28-10.69 24.229-8.83 6.771-14.96 4.641-23.83-1.489l-2.7-.04c3.41-4.841 6.95-8.131 10.5-15.21 5.221-10.32 8.03-23.78 6.32-30.41l1.37-.17c10.799-7.821 19.399-20.241 24.589-26.141z" fill="#ffeec8"/><path d="M423.5 511.98l3.16-90.07 1.81.06s18.4-.72 39.03-.69c21.02.04 44.36.85 52.94 4.01 17.04 6.24 74.76 49.13 94.689 65.79s36.42 26.43 36.42 26.43c25.22 22.34 44.51-1.89 55.601-15.34 1.119-1.36 2.159-2.61 3.109-3.689 9.53-10.78 14.351-10.15 15.83-4.45 1.71 6.63-1.1 20.09-6.32 30.41-3.55 7.079-7.09 10.369-10.5 15.21-1.56 2.199-3.079 4.72-4.569 8.06-1.141 2.55-2.05 6.21-3.16 9.99-1.63 5.52-3.69 11.3-7.53 14.24-15.06 11.54-22.24-2.771-48.54-18.69-1.14-.69-2.31-1.38-3.52-2.07-27.95-15.979-57.78-8.189-99.16-32.43-14.021-8.22-26.521-30.24-43.37-24.77-15.01 4.88-31.34 16.229-45.83 23.8-10.62 5.54-19.95 9.81-30.46 13.37l-.27-.811.64-18.36z" fill="#ffeec8"/><path d="M704.58 500.33l2.57 1.84c-11.091 13.45-30.381 37.68-55.601 15.34 0 0-16.49-9.77-36.42-26.43s-77.649-59.55-94.689-65.79c-8.58-3.16-31.921-3.97-52.94-4.01l.01-3.54.94-26.58 1.81.06s74.95-2.94 91.971 3.31c17.029 6.24 70.859 52.34 90.8 69 19.92 16.649 36.979 29.06 36.979 29.06 4.99 4.43 9.88 6.83 14.57 7.74z" fill="#ffeec8"/><path d="M423.13 531.15c10.51-3.561 19.84-7.83 30.46-13.37 14.49-7.57 30.82-18.92 45.83-23.8 16.85-5.471 29.35 16.55 43.37 24.77 41.38 24.24 71.21 16.45 99.16 32.43 1.21.69 2.38 1.38 3.52 2.07l-.7 1.16c-62.75 30.939-61.279 30.8-60.84 30.66-1.199.54-25.67 11.33-50.91 12.64-7.189.38-14.449-.02-21.25-1.65-16.52-3.96-33.51-7.92-59-15.409-36.43-10.721-37.2-9.24-82.76-24.7-4.66-1.58-9.79-3.34-15.48-5.311l.11-3.06c5.37.42 8.67.479 8.67.479 35.22 2.65 48.75-2.369 56.24-6.13l3.95-29.949-.64 18.359.27.811z" fill="#faa41a"/><path d="M468.5 389.62l-.05 1.54-.94 26.58-.01 3.54c-20.63-.03-39.03.69-39.03.69l-1.81-.06.05-1.53s-43.18.14-60.76-2.64l-4.2-.2c16.57-7.2 30.01-14.64 33.26-20.06 0 0 2.62-2.79 4.75-7.91l2.24.43c17.58 2.78 66.5-.38 66.5-.38z" fill="#7a7878"/><path d="M274.01 516.22c-.18-.239-.35-.489-.52-.739-19.37-29.061-20.26-36.101-20.26-36.101l.83-.76c2.42 2.67 4.82 5.16 7.17 7.47 0-.01.01-.01.01-.02l1.42-1.69 3.65 3.08c4.38 5.03 12.49 16.35 18.17 19.45 1.2.67 27.1 9.8 40.34 9.8 2.69.01 7.35-1.8 9.73-3.17 1.27-.03 3.1-.46 4.4-2.47 1.8-2.92 4.1-6.21 2.07-7.87 1.07.17 3.59.33 5.01-1.48 1.85-2.279 2.63-5.979 2.37-7.95l-.12-.439c2.27-.5 3.32-3.33 1.86-5.46-1.56-2.33-7.68-5.01-18.37-14.311l2.6-.17s2.75-.34 8.44-5.43-1.62-12.05-7.82-8.38c-4.21 2.479-15.4.7-22.16-.7-.99-.439-1.96-.77-2.9-.97-7.17-1.54-13.04-.19-24.16-.94l1.01-1.2c-.61-2.489-2.92-7.739-6.23-14.789l4.52-.15c12.07.21 48.8-11.19 76.68-23.29l4.2.2c17.58 2.78 60.76 2.64 60.76 2.64l-.05 1.53-3.16 90.07-3.95 29.949c-7.49 3.761-21.02 8.78-56.24 6.13 0 0-3.3-.06-8.67-.479-19-1.501-63.92-7.521-80.63-31.361z" fill="#7a7878"/><path d="M240.55 322.75c10.91-39.5-36.96-75.68-36.96-75.68l-3.53-.4c.65-.71 1.31-1.41 2.01-2.09l.03-.03c2.7-2.31 10.86-9.11 21.3-16.24 8.84 2.8 18.09 3.02 26.93.12 7.62-2.51 14.1-7.06 19.24-13.08l4 .29c38.9 10.25 58.32 20.51 77.06 53.28 0 0 32.47 49.16 48.78 91.58 4.89 12.7 3 22.69.35 29.07-2.13 5.12-4.75 7.91-4.75 7.91-3.25 5.42-16.69 12.86-33.26 20.06-27.88 12.1-64.61 23.5-76.68 23.29l-4.52.15c-14.08-30.041-46.1-92.96-40.56-116.351.2-.629.39-1.249.56-1.879z" fill="#a9d7f3"/><path d="M334.55 513.54c-2.38 1.37-7.04 3.18-9.73 3.17-13.24 0-39.14-9.13-40.34-9.8-5.68-3.101-13.79-14.42-18.17-19.45l-3.65-3.08 23.11-27.41c11.12.75 16.99-.6 24.16.94.94.2 1.91.53 2.9.97 5.57 2.49 11.95 8.46 17.89 13.76.35.311.7.62 1.05.92 10.69 9.301 16.81 11.98 18.37 14.311 1.46 2.13.41 4.96-1.86 5.46l.12.439c.26 1.971-.52 5.671-2.37 7.95-1.42 1.811-3.94 1.65-5.01 1.48 2.03 1.66-.27 4.95-2.07 7.87-1.3 2.01-3.13 2.44-4.4 2.47z" fill="#ffeec8"/><path d="M334.99 459.58c6.2-3.67 13.51 3.29 7.82 8.38s-8.44 5.43-8.44 5.43l-2.6.17c-.35-.3-.7-.609-1.05-.92-5.94-5.3-12.32-11.27-17.89-13.76 6.76 1.4 17.95 3.18 22.16.7z" fill="#ffeec8"/><path d="M285.77 456.97l-23.11 27.41-1.42 1.69c0 .01-.01.01-.01.02-2.35-2.31-4.75-4.8-7.17-7.47-7.58-8.3-15.47-18.271-23.1-29.57a299.269 299.269 0 0 1-20.17-34.64c-10.65-21.47-19.34-45.52-23.8-70.81-4.91-27.86-6.44-50.09-4.3-69.69 0 0 6.34-15.16 17.37-27.24l3.53.4s47.87 36.18 36.96 75.68c-.22.59-.41 1.22-.56 1.88-5.54 23.39 26.48 86.31 40.56 116.351 3.31 7.05 5.62 12.3 6.23 14.789l-1.01 1.2z" fill="#a9d7f3"/><path d="M223.4 228.31c-2.23-.71-4.43-1.58-6.59-2.6-9.57-4.54-18.35-12.12-25.17-21.99-4.1-5.92-7.49-12.67-9.93-20.07-11.02-33.56 1.77-67.93 28.63-76.77 26.84-8.84 57.58 11.21 68.61 44.77 7.92 24.04 3.59 48.51-9.38 63.7-5.14 6.02-11.62 10.57-19.24 13.08-8.84 2.9-18.09 2.68-26.93-.12z" fill="#ffeec8"/><path d="M273.49 515.48c.17.25.34.5.52.739-.42-.18-.84-.35-1.25-.529-27.8-11.761-53.86-22.7-73.39-30.86-2.85-8.34-5.55-16.24-8-23.5L226 452l4.96-2.95c7.63 11.3 15.52 21.271 23.1 29.57l-.83.76s.89 7.04 20.26 36.1z" fill="#faa41a"/><path d="M230.96 449.05L226 452l-34.63 9.33c-7.57-22.32-12.87-38.5-13.58-42.01v-.02l33-4.89c6.2 12.52 13.08 24.15 20.17 34.64z" fill="#faa41a"/><path d="M202.1 244.55l-.03.03c-.7.68-1.36 1.38-2.01 2.09-11.03 12.08-17.37 27.24-17.37 27.24-2.14 19.6-.61 41.83 4.3 69.69 4.46 25.29 13.15 49.34 23.8 70.81l-33 4.89c.06-.5.05-.74-.05-.69-.06.03-.04.26.05.69l-29.44 4.37-63.59-166.64s-12.87-29.79 29.55-38.19c17.88-3.54 47.53-9.45 75.86-15.11l1.47-.01c6.82 9.87 15.6 17.45 25.17 21.99 2.16 1.02 4.36 1.89 6.59 2.6-10.44 7.13-18.6 13.93-21.3 16.24z" fill="#faa41a"/><path d="M158.36 548.15a79.251 79.251 0 0 1 4.2 11.63c6.49 23.54 1.23 45.54-11.75 49.109-12.98 3.591-28.77-12.6-35.26-36.159-6.5-23.54-1.24-45.551 11.75-49.12 6.73-1.86 14.21 1.6 20.76 8.64 3.88 4.16 7.43 9.58 10.3 15.9z" fill="#c8c8c8"/><g fill="none" stroke="#231f20"><path d="M226 452l-34.63 9.33-25.62 6.9-.36.1-17.04-44.66-63.59-166.64s-12.87-29.79 29.55-38.19c17.88-3.54 47.53-9.45 75.86-15.11M279.25 518.44c-1.75-.74-3.5-1.48-5.24-2.221-.42-.18-.84-.35-1.25-.529-27.8-11.761-53.86-22.7-73.39-30.86-19.7-8.24-32.75-13.66-34.23-14.271-.09-.04-.14-.06-.14-.06M644.77 554.41c-62.75 30.939-61.279 30.8-60.789 30.64 0 0-.021.01-.051.021-1.199.54-25.67 11.33-50.91 12.64-7.189.38-14.449-.02-21.25-1.65-16.52-3.96-33.51-7.92-59-15.409-36.43-10.721-37.2-9.24-82.76-24.7-4.66-1.58-9.79-3.34-15.48-5.311" stroke-width="21"/><path stroke-width="28" stroke-linecap="round" stroke-linejoin="round" d="M125.46 427.06l22.89-3.39 29.44-4.37 33-4.89 3.57-.53"/><path d="M177.79 419.32c.71 3.51 6.01 19.69 13.58 42.01 2.45 7.26 5.15 15.16 8 23.5 5.17 15.06 10.86 31.52 16.59 48.06 7.46 21.511 15.01 43.15 21.6 61.99 11.58 33.13 20.2 57.61 20.2 57.61M177.79 419.3c.06-.5.05-.74-.05-.69-.06.03-.04.26.05.69z" stroke-width="21"/><path d="M148.77 532.06s8.55-31.63 16.37-61.5c.21-.779.41-1.56.61-2.329 6.07-23.19 11.55-44.771 12.04-48.931v.02M158.36 548.15a79.251 79.251 0 0 1 4.2 11.63c6.49 23.54 1.23 45.54-11.75 49.109-12.98 3.591-28.77-12.6-35.26-36.159-6.5-23.54-1.24-45.551 11.75-49.12 6.73-1.86 14.21 1.6 20.76 8.64 3.88 4.16 7.43 9.58 10.3 15.9z" stroke-width="21"/><path stroke-width="21" d="M157.53 548.37l.83-.22 57.6-15.26 55.77-14.77M242.19 593.24L370 555.99M533.03 598.01c-.48 1.46 14.069 36.29 28.93 71.2 15.25 35.81 30.83 71.7 30.83 71.7M702.34 557.75l21.27 42.46 22.4 44.72"/><path stroke-width="21" d="M561.09 669.58l.87-.37 156.75-66.55"/><path d="M727.46 493.86c10.8-7.82 19.4-20.24 24.59-26.141 20.601-23.319 19.22 6.771 9.51 25.96-5.18 10.301-10.31 12.58-15.069 23.271-2.811 6.28-4.221 19.28-10.69 24.229-8.83 6.771-14.96 4.641-23.83-1.489M470.26 391.22s74.95-2.94 91.971 3.31c17.029 6.24 70.859 52.34 90.8 69 19.92 16.649 36.979 29.06 36.979 29.06 4.99 4.43 9.88 6.83 14.57 7.74M467.51 417.74l.94-26.58.05-1.54s-48.92 3.16-66.5.38" stroke-width="14"/><path d="M423.67 510.71l-.17 1.271-3.95 29.949c-7.49 3.761-21.02 8.78-56.24 6.13 0 0-3.3-.06-8.67-.479-19-1.5-63.92-7.521-80.63-31.36-.18-.239-.35-.489-.52-.739-19.37-29.061-20.26-36.101-20.26-36.101" stroke-width="17.612"/><path d="M710.26 498.48c9.53-10.78 14.351-10.15 15.83-4.45 1.71 6.63-1.1 20.09-6.32 30.41-3.55 7.079-7.09 10.369-10.5 15.21-1.56 2.199-3.079 4.72-4.569 8.06-1.141 2.55-2.05 6.21-3.16 9.99-1.63 5.52-3.69 11.3-7.53 14.24-15.06 11.54-22.24-2.771-48.54-18.69-1.14-.69-2.31-1.38-3.52-2.07-27.95-15.979-57.78-8.189-99.16-32.43-14.021-8.22-26.521-30.24-43.37-24.77-15.01 4.88-31.34 16.229-45.83 23.8-10.62 5.54-19.95 9.81-30.46 13.37-.4.13-.8.27-1.2.399" stroke-width="14"/><path d="M428.47 421.97s18.4-.72 39.03-.69c21.02.04 44.36.85 52.94 4.01 17.04 6.24 74.76 49.13 94.689 65.79s36.42 26.43 36.42 26.43c25.22 22.34 44.51-1.89 55.601-15.34 1.119-1.36 2.159-2.61 3.109-3.689M422.86 530.34l.64-18.359 3.16-90.07.05-1.53s-43.18.14-60.76-2.64M216.81 225.71c2.16 1.02 4.36 1.89 6.59 2.6 8.84 2.8 18.09 3.02 26.93.12 7.62-2.51 14.1-7.06 19.24-13.08 12.97-15.19 17.3-39.66 9.38-63.7-11.03-33.56-41.77-53.61-68.61-44.77-26.86 8.84-39.65 43.21-28.63 76.77 2.44 7.4 5.83 14.15 9.93 20.07 6.82 9.87 15.6 17.45 25.17 21.99M273.57 215.64c38.9 10.25 58.32 20.51 77.06 53.28 0 0 32.47 49.16 48.78 91.58 4.89 12.7 3 22.69.35 29.07-2.13 5.12-4.75 7.91-4.75 7.91-3.25 5.42-16.69 12.86-33.26 20.06-27.88 12.1-64.61 23.5-76.68 23.29M202.1 244.55c2.54-2.57 5.32-4.93 8.3-6.9M242.32 319.47c-.73.94-1.32 2.04-1.77 3.28-.22.59-.41 1.22-.56 1.88-5.54 23.39 26.48 86.31 40.56 116.351 3.31 7.05 5.62 12.3 6.23 14.789l-1.01 1.2-23.11 27.41-1.42 1.69c0 .01-.01.01-.01.02-2.35-2.31-4.75-4.8-7.17-7.47-7.58-8.3-15.47-18.271-23.1-29.57a299.269 299.269 0 0 1-20.17-34.64c-10.65-21.47-19.34-45.52-23.8-70.81-4.91-27.86-6.44-50.09-4.3-69.69 0 0 6.34-15.16 17.37-27.24.65-.71 1.31-1.41 2.01-2.09" stroke-width="14"/><path d="M203.59 247.07s47.87 36.18 36.96 75.68a46.415 46.415 0 0 1-2.47 6.82M201.15 245.37s.32-.28.92-.79l.03-.03c2.7-2.31 10.86-9.11 21.3-16.24.01-.01.03-.02.04-.03" stroke-width="14"/><path d="M266.31 487.46c4.38 5.03 12.49 16.35 18.17 19.45 1.2.67 27.1 9.8 40.34 9.8 2.69.01 7.35-1.8 9.73-3.17 1.32-.76 1.94-1.38 1.14-1.5-2.54-.34-3.15.3-16.53-3.26-4.02-1.04-15.26-7.94-15.26-7.94M341.01 503.2c-.36-.29-.85-.53-1.5-.71-5.01-1.29-8.13-1.41-17.55-6.34-5.88-3.101-15.2-7.841-15.2-7.841" stroke-width="7" stroke-miterlimit="10"/><path d="M333.06 513.38s.61.18 1.49.16c1.27-.03 3.1-.46 4.4-2.47 1.8-2.92 4.1-6.21 2.07-7.87" stroke-width="7" stroke-miterlimit="10"/><path d="M341.02 503.2c1.07.17 3.59.33 5.01-1.48 1.85-2.279 2.63-5.979 2.37-7.95" stroke-width="7.045" stroke-miterlimit="10"/><path d="M341.01 503.2c.01.01.01 0 .01 0" stroke-width="7" stroke-miterlimit="10"/><path d="M340.52 503.11s.18.05.49.09" stroke-width="7.045" stroke-miterlimit="10"/><path d="M279.47 456.37c2.28.28 4.37.47 6.3.6 11.12.75 16.99-.6 24.16.94.94.2 1.91.53 2.9.97 5.57 2.49 11.95 8.46 17.89 13.76.35.311.7.62 1.05.92 10.69 9.301 16.81 11.98 18.37 14.311 1.46 2.13.41 4.96-1.86 5.46-.54.11-1.15.1-1.81-.08-4-1.05-4.69.05-16.28-6.17-3.67-1.96-8.94-3.4-20.27-13.18" stroke-width="7" stroke-miterlimit="10"/><path d="M307.41 457.64s2.21.58 5.42 1.24c6.76 1.4 17.95 3.18 22.16.7 6.2-3.67 13.51 3.29 7.82 8.38s-8.44 5.43-8.44 5.43" stroke-width="7" stroke-miterlimit="10"/></g><path fill="none" d="M0 0h850.394v850.394H0z"/></svg>