<svg id="Layer_1" xmlns="http://www.w3.org/2000/svg" viewBox="0 0 850 850"><style>.st0{fill:#7a7878}.st1{fill:#ffeec8}.st2{fill:#a9d7f3}.st3{fill:none;stroke:#231f20;stroke-width:21;stroke-linecap:round;stroke-miterlimit:10}</style><path class="st0" d="M469.5 410.8l3.3.2-.5 4.5-3.3 31.8-4.2 46-2 22.5-1.5 19-.8 13v4.7l.3.3.7 3.7-13 2.3-12.7 1.7-6.3.5-6.2.3-6 .2-6 .3-6-.3-5.5-.5-5.5-.5-5.5-.7-5-1-5-1.3-4.8-1.5-4.5-1.7-4.2-2-4.3-2.3-4-2.5-3.7-2.5-3.5-2.7-3.5-3.3-3-3-3-3.5-2.5-3.5-2.5-3.7-2.5-3.8-2-4-2-4-1.8-4.2-1.5-4.5-1.5-4.3-1.2-4.7-1.3-4.8-1-4.7-.7-4.8-1.3-10-.7-10.2-.3-10.8.3-10.5.5-11 1-11 .2.3 5.3.2 13.5.5 20 .8 11.5.2 12.2.3 12.5-.3 12.8-.2 12.5-.5 12.2-1 11.3-1.3 5.2-.7 5-1 4.5-1 4.3-1 4-1.3z"/><path class="st1" d="M576 514l1.8.5-1.5 5.3-1.5 5.2-1 5.8-1 6-3.5 25.7-2.5 22.3-2.3 19-2 15.7-1 6.8-1.2 6-1.3 5.2-1.5 4.8-1.5 4-2 3.5-2.2 3-1 1.2-1.5 1-6 4.8-7 5-3.3 2.7-3.5 2.8-3 3.2-2.5 3-2.2 3.5-1 1.8-.8 1.7-.5 1.8-.2 1.7-.3 2 .3 1.8.2 2 .5 2 .8 2 1 2.2 1.5 2 1.7 2 1.8 2.3 2.5 2.2 3 3 3.2 3.5 3 3.5 3.3 3.8 6 8.2 5.7 8.5 11 16.8 5 8 4.8 6.7-3 2.3-.8 1.2-.7 1.3-1 1-1.3 1-1.5.7-1.7.8-2.3.2-2.2.5h-1l-1.3-.5-1.2-.5-1.5-1-2.8-2.5-3-3.5-3.2-4.2-3.5-5-7.5-11.3-8-12.5-4-6.2-4.5-6.3-4.3-6-4.5-5.7-4.7-5.3-4.5-4.5-2.5-2.2-1.8-2.3-1.7-2-1.5-2.2-1-2-.8-2-.5-2-.2-2-.3-1.8.3-2 .2-1.7.5-1.8.8-1.7 1-1.8 2.2-3.5 2.5-3 3-3.2 3.5-2.8 3.3-2.7 7-5.3 6-4.5 1.2-1 1.3-1.2 2.2-3 2-3.5 1.5-4 1.5-4.8 1.3-5.2 1.2-6 1-6.8 2-15.7 2.3-19 2.5-22.3 3.5-26-.5-1 9.2-4.5 8.8-4.2 7.7-4.5zM679.3 405l-5.5-3.7-6-3.3-2.3-1-2.7-.7-3.3-.5-3.7-.5-4-.3-4.5-.2h-9.8l-10.7.2-11.5.8-11.8 1-11.5 1 4.3-5 4.2-5.5 4-6.3 4-6.5h2.8l6-.2h4l4.7.2 5.3.8 5.5.7 5.7 1.5 6 1.8 3 1.2 2.8 1.3 3 1.5 2.7 1.5 2.8 2 2.7 2 2.8 2 2.5 2.5 2.2 2.5 2.3 3 2.2 3zM472.8 411l-3.3-.2 2.8-1.5 2.2-1.5 1.8-1.5 1.2-1.8 1-1 2.5-3.5 3.8-6 2.5-4 2.5-5 40.2-2.2.5-.3 4.5 6 4.5 5.8 4.5 4.7 4.3 4-27.5 4.5-22.8 4-21.2 4.3-4.5-.3z"/><path class="st1" d="M679.3 405l4 3 3.5 3.3 3.2 3.2 2.8 3.8 2.2 3.7 2 4 1.5 4.3 1.3 4.5.5 4.7.2 5-.5 5.5-.7 5.5-1.3 6-2 6.3-2.5 6.5-3 6.7-4.7 9.3-6 11.2-14.5 26.8-17.3 31-18 32.7-8.7 16.5-8.5 15.8-7.5 15.2-7 14.3-5.8 13-2.2 5.7-2 5.5-1.8 5-1.2 4.5-1 3.8-.3 3.2.8 21 4.7 15.5 4.5 13.5 3.8 11 1.2 5 1 4.3.8 3.7v5l-.3 1.3-.5 1.2-.5 1.3-.7 1-.8 1-1.2.7-1 .8-1.5.5-1.5.5-4 .7-1.5-.2-1.5-.5-1.8-1-1.7-1.5-2-2-1.8-2.3-4.2-5.5-4.8-6.7-5-8-11-16.8-5.7-8.5-6-8.2-3.3-3.8-3-3.5-3.2-3.5-3-3-2.5-2.2-1.8-2.3-1.7-2-1.5-2-1-2.2-.8-2-.5-2-.2-2-.3-1.8.3-2 .2-1.7.5-1.8.8-1.7 1-1.8 2.2-3.5 2.5-3 3-3.2 3.5-2.8 3.3-2.7 7-5 6-4.8 1.5-1 1-1.2 2.2-3 2-3.5 1.5-4 1.5-4.8 1.3-5.2 1.2-6 1-6.8 2-15.7 2.3-19 2.5-22.3 3.5-25.7 1-6 1-5.8 1.5-5.2 1.5-5.3-1.8-.5-7 4.3-7.7 4.5-8.8 4.2-9.2 4.5-9.3 3.8-9.5 3.7-10 3.5-10.2 3.3-10.5 3.2-10.8 2.8-10.7 2.5-10.8 2.2-.7-3.7-.3-.3v-4.7l.8-13 1.5-19 2-22.5 4.2-46 3.3-31.8 4.5.3 21.2-4.3 22.8-4 27.5-4.5 2.5 1.8 2.2 1.5 2.3 1.2 2.2 1 2.3.8 2.5.5 2.5.2 2.2.3h2.3l2.2-.3 2.3-.5 2.2-.7 2-.8 2.3-1 2-1.2 2-1.3 4-3 3.7-3.7 11.5-1 11.8-1 11.5-.8 10.7-.2h9.8l4.5.2 4 .3 3.7.5 3.3.5 2.7.7 2.3 1 6 3.3z"/><path class="st1" d="M653.3 180.5l2-2 2.5-2.2 3-2.5 3.5-2.5 3.7-2.5 4.5-2.3 4.8-2 5-1.7 4.2-1.3 3-.5h1.3l1 .3.7.5 1 .5.8 1 .5 1 1.5 2.7 4.2 8.8 2.8 5.7 2.2 4.5 2.5 6 .8 3 .2.8v4l-.2 4-.8 4-1 4-1.5 4-1.7 3.7-2 3.8-2 3.7-2.5 3.5-2.8 3.3-2.7 3-3 2.7-3 2.5-3.3 2-3.2 1.8-3.5 1.5-3 1.5-3 2-2.8 2.5-2.7 3-2.5 3.2-2.5 4-2.3 4.5-2.5 4.8-5 11.2-5.2 13.3L638 312l-7.2 16.8-5.5 12-5.5 11.7-5.5 11.5-5.8 10.5-4 6.5-4 6.3-4.2 5.5-4.3 5-3.7 3.7-4 3-2 1.3-2 1.2-2.3 1-2 .8-2.2.7-2.3.5-2.2.3H567l-2.2-.3-2.5-.2-2.5-.5-2.3-.8-2.2-1-2.3-1.2-2.2-1.5-2.5-1.8-4.3-4-4.5-4.7-4.5-5.8-4.5-6-6.2-9.2-6-10-5.8-10.5-5.5-10.5-8.2-16.3 71.2-33.5 1.8 12.3 1.2 11 4.5-5 6.3-7.3 7.5-8.7 8.2-10 8-10.8 4-5.5 3.8-5.5 3.5-5.5 3-5.5 2.7-5.2 2.3-5 3.2-9.3 2.5-8.2 4-13.8 2-6.2 2.3-5.8 1.2-2.7 1.5-3 1.8-2.8 2-2.7 2.7-3.3z"/><path class="st1" d="M535.8 152l.7-5 1.3-5 1.2-5 1.5-4.7 2-5 2.3-5 2.2-5 2.8-4.8 2.2-3.5 2.5-3.5 2.3-3.2 2.5-3.3 2.7-3 2.5-2.7 2.8-2.8 3-2.7 2.7-2.3 3-2.5 3-2 3-2 3.3-2 3-1.7 3.2-1.5 3-1.3 3.3-1.2 3.2-1 3.3-1 3.2-.8 3-.5 3.3-.2 3.2-.3h3l3.3.3 3 .2 3 .5 3 .8 3 1 2.7 1 2.8 1.5 2.7 1.5 2.8 1.5 2.5 2 2.2 2 2.3 2 2 2.5 2 2.2L659 89l1.5 2.8 1.5 2.7 1.3 3 1.2 3 1 3 .8 3.3.7 3.2.8 3.3.2 3.2.3 3.5.2 3.5v3.5l-.2 3.8-.3 3.5-.5 3.7-.7 3.8-.8 3.7-1 3.5-1.2 3.8-1.3 3.7-1.5 3.8-1.5 3.7-1.7 3.5-2 3.8-2 3.7-3.8 5.8-4 5.2-4.5 5.5-5 5-5 4.8-5.5 4-5.2 3.7-5.8 3-5.5 2.8-5.7 2-5.8 1.7-5.7 1-5.8.3H581l-2.7-.3-2.8-.5-2.7-.5-2.8-.7-2.5-1-2.5-1-2.5-1.3-2.5-1.2-3-2.3-3-2.2-2.7-2.5-2.5-2.8-2-2.2-1.8-2.8-1.7-2.7-1.5-2.8-1.5-3-1-3-1.3-3.2-.7-3.3-.8-3.2-.5-3.5-.5-3.5-.2-3.5v-7.3l.2-3.7z"/><path class="st2" d="M548.5 203.8l.5.7 1.3 2.3 1.7 4.5 2.5 7 3 10.2 1.8 6.8 1.7 7.5 1.8 8.5 2 9.7 1.7 11 2.3 12.3 1.2 8.2-71.2 33.5 8.2 16.3-4.7 13.5-4.3 11.5-4.2 9.7-4 8-2.5 5-2.5 4-3.8 6-2.5 3.5-1 1-1.2 1.8-1.8 1.5-2.2 1.5-2.8 1.5-3.2 1.2-4 1.3-4.3 1-4.5 1-5 1-5.2.7-11.3 1.3-12.2 1-12.5.5-12.8.2-12.5.3-12.2-.3-11.5-.2-20-.8-13.5-.5-5.3-.2-.2-.3 1-8 1-8 1-6.2 1.2-6.5 1.5-6.8 1.8-7.2 2-7.3 2.2-7.7 5.3-16 6-16.5 6.7-17 7.3-17L364 277l8.3-16.7 8.2-15.8 4.5-7.7 4.3-7.5 4.2-7.3 4.5-6.7 4.3-6.5 4.5-6.3 4.2-5.7 4.3-5.3 4.2-5 4-4.5 4.3-4 4-3.2 3.5-2.8 4-2.5 3.7-2.5 4-2 4-2 4-1.7 4.3-1.8 4-1.5 8.2-2.5 8.3-1.7 8-1.5 7.7-.8 7.3-.7 7-.3h6.2l5.8.3 9 .7 5 .5-.3 3.8-.2 3.7v7.3l.2 3.5.5 3.5.5 3.5.8 3.2.7 3.3 1.3 3.2 1 3 1.5 3 1.5 2.8 1.7 2.7 1.8 2.8 2 2.2z"/><path class="st3" d="M535.8 152l.7-5 1.3-5 1.2-5 1.5-4.7 2-5 2.3-5 2.2-5 2.8-4.8 2.2-3.5 2.5-3.5 2.3-3.2 2.5-3.3 2.7-3 2.5-2.7 2.8-2.8 3-2.7 2.7-2.3 3-2.5 3-2 3-2 3.3-2 3-1.7 3.2-1.5 3-1.3 3.3-1.2 3.2-1 3.3-1 3.2-.8 3-.5 3.3-.2 3.2-.3h3l3.3.3 3 .2 3 .5 3 .8 3 1 2.7 1 2.8 1.5 2.7 1.5 2.8 1.5 2.5 2 2.2 2 2.3 2 2 2.5 2 2.2L659 89l1.5 2.8 1.5 2.7 1.3 3 1.2 3 1 3 .8 3.3.7 3.2.8 3.3.2 3.2.3 3.5.2 3.5v3.5l-.2 3.8-.3 3.5-.5 3.7-.7 3.8-.8 3.7-1 3.5-1.2 3.8-1.3 3.7-1.5 3.8-1.5 3.7-1.7 3.5-2 3.8-2 3.7-3.8 5.8-4 5.2-4.5 5.5-5 5-5 4.8-5.5 4-5.2 3.7-5.8 3-5.5 2.8-5.7 2-5.8 1.7-5.7 1-5.8.3H581l-2.7-.3-2.8-.5-2.7-.5-2.8-.7-2.5-1-2.5-1-2.5-1.3-2.5-1.2-3-2.3-3-2.2-2.7-2.5-2.5-2.8-2-2.2-1.8-2.8-1.7-2.7-1.5-2.8-1.5-3-1-3-1.3-3.2-.7-3.3-.8-3.2-.5-3.5-.5-3.5-.2-3.5v-7.3l.2-3.7z"/><path class="st3" d="M536.8 152h-1l-5-.5-9-.7-5.8-.3h-6.2l-7 .3-7.3.7-7.7.8-8 1.5-8.3 1.7-8.2 2.5-4 1.5-4.3 1.8-4 1.7-4 2-4 2-3.7 2.5-4 2.5-3.5 2.8-4 3.2-4.3 4-4 4.5-4.2 5-4.3 5.3-4.2 5.7-4.5 6.3-4.3 6.5-4.5 6.7-4.2 7.3-4.3 7.5-4.5 7.7-8.2 15.8L364 277l-7.7 16.8-7.3 17-6.7 17-6 16.5-5.3 16-2.2 7.7-2 7.3-1.8 7.2-1.5 6.8-1.2 6.5-1 6.2-1 8-1 8-1 11-.5 11-.3 10.5.3 10.8.7 10.2 1.3 10 .7 4.8 1 4.7 1.3 4.8 1.2 4.7 1.5 4.3 1.5 4.5 1.8 4.2 2 4 2 4 2.5 3.8 2.5 3.7 2.5 3.5 3 3.5 3 3 3.5 3.3 3.5 2.7 3.7 2.5 4 2.5 4.3 2.3 4.2 2 4.5 1.7 4.8 1.5 5 1.3 5 1 5.5.7 5.5.5 5.5.5 6 .3 6-.3 6-.2 6.2-.3 6.3-.5 12.7-1.7 13-2.3 10.8-2.2 10.7-2.5 10.8-2.8 10.5-3.2 10.2-3.3 10-3.5 9.5-3.7 9.3-3.8 9.2-4.5 8.8-4.2 7.7-4.5 7-4.3M548.5 203.8l.5.7 1.3 2.3 1.7 4.5 2.5 7 3 10.2 1.8 6.8 1.7 7.5 1.8 8.5 2 9.7 1.7 11 2.3 12.3 1.2 8.2 1.8 12.3 1.2 11 1.3 11 1 9.5.5 7.5.2 6.2v10"/><path class="st3" d="M570.8 318l2.2-2.2 4.5-5 6.3-7.3 7.5-8.7 8.2-10 8-10.8 4-5.5 3.8-5.5 3.5-5.5 3-5.5 2.7-5.2 2.3-5 3.2-9.3 2.5-8.2 4-13.8 2-6.2 2.3-5.8 1.2-2.7 1.5-3 1.8-2.8 2-2.7 2.7-3.3 3.3-3.5 2-2M319.5 418.3l5.3.2 13.5.5 20 .8 11.5.2 12.2.3 12.5-.3 12.8-.2 12.5-.5 12.2-1 11.3-1.3 5.2-.7 5-1 4.5-1 4.3-1 4-1.3 3.2-1.2 2.8-1.5 2.2-1.5 1.8-1.5 1.2-1.8 1-1 2.5-3.5 3.8-6 2.5-4 2.5-5 4-8 4.2-9.7 4.3-11.5 4.7-13.5.5-1.5M472.8 411l-.5 4.5-3.3 31.8-4.2 46-2 22.5-1.5 19-.8 13v4.7l.3.3M589.5 398l2.5-.2 11.5-1 11.8-1 11.5-.8 10.7-.2h9.8l4.5.2 4 .3 3.7.5 3.3.5 2.7.7 2.3 1 6 3.3 5.5 3.7 4 3 3.5 3.3 3.2 3.2 2.8 3.8 2.2 3.7 2 4 1.5 4.3 1.3 4.5.5 4.7.2 5-.5 5.5-.7 5.5-1.3 6-2 6.3-2.5 6.5-3 6.7-4.7 9.3-6 11.2-14.5 26.8-17.3 31-18 32.7-8.7 16.5-8.5 15.8-7.5 15.2-7 14.3-5.8 13-2.2 5.7-2 5.5-1.8 5-1.2 4.5-1 3.8-.3 3.2.8 21 4.7 15.5 4.5 13.5 3.8 11 1.2 5 1 4.3.8 3.7v5l-.3 1.3-.5 1.2-.5 1.3-.7 1-.8 1-1.2.7-1 .8-1.5.5-1.5.5-4 .7-1.5-.2-1.5-.5-1.8-1-1.7-1.5-2-2-1.8-2.3-4.2-5.5-4.8-6.7-5-8-11-16.8-5.7-8.5-6-8.2-3.3-3.8-3-3.5-3.2-3.5-3-3-2.5-2.2-1.8-2.3-1.7-2-1.5-2-1-2.2-.8-2-.5-2-.2-2-.3-1.8.3-2 .2-1.7.5-1.8.8-1.7 1-1.8 2.2-3.5 2.5-3 3-3.2 3.5-2.8 3.3-2.7 7-5 6-4.8 1.5-1 1-1.2 2.2-3 2-3.5 1.5-4 1.5-4.8 1.3-5.2 1.2-6 1-6.8 2-15.7 2.3-19 2.5-22.3 3.5-25.7 1-6 1-5.8 1.5-5.2 1.5-5.3 1.5-4.5 1.7-4.5 2-4.2 2-3.8 2-3.7 2.3-3.3 2.2-3.2 2.3-2.8 2.5-2.7 2.5-2.3 2.2-2.2 2.5-2 5-3.5 4.8-2.8 4.5-2.2 4.5-1.5 3.7-1.3 3.5-.7 3-.5 2-.3h1.8"/><path class="st3" d="M571.3 771.8l-.8 1.2-.7 1.3-1 1-1.3 1-1.5.7-1.7.8-2.3.2-2.2.5h-1l-1.3-.5-1.2-.5-1.5-1-2.8-2.5-3-3.5-3.2-4.2-3.5-5-7.5-11.3-8-12.5-4-6.2-4.5-6.3-4.3-6-4.5-5.7-4.7-5.3-4.5-4.5-2.5-2.2-1.8-2.3-1.7-2-1.5-2.2-1-2-.8-2-.5-2-.2-2-.3-1.8.3-2 .2-1.7.5-1.8.8-1.7 1-1.8 2.2-3.5 2.5-3 3-3.2 3.5-2.8 3.3-2.7 7-5.3 6-4.5 1.2-1 1.3-1.2 2.2-3 2-3.5 1.5-4 1.5-4.8 1.3-5.2 1.2-6 1-6.8 2-15.7 2.3-19 2.5-22.3 3.5-26M476.8 415.8l21.2-4.3 22.8-4 27.5-4.5h.2M488.8 385h1l40.2-2.2M609 374.5h2.3l6-.2h4l4.7.2 5.3.8 5.5.7 5.7 1.5 6 1.8 3 1.2 2.8 1.3 3 1.5 2.7 1.5 2.8 2 2.7 2 2.8 2 2.5 2.5 2.2 2.5 2.3 3 2.2 3 1.8 3.2 1.5 2.8"/><path class="st3" d="M650.5 183.5l2.8-3 2-2 2.5-2.2 3-2.5 3.5-2.5 3.7-2.5 4.5-2.3 4.8-2 5-1.7 4.2-1.3 3-.5h1.3l1 .3.7.5 1 .5.8 1 .5 1 1.5 2.7 4.2 8.8 2.8 5.7 2.2 4.5 2.5 6 .8 3 .2.8v4l-.2 4-.8 4-1 4-1.5 4-1.7 3.7-2 3.8-2 3.7-2.5 3.5-2.8 3.3-2.7 3-3 2.7-3 2.5-3.3 2-3.2 1.8-3.5 1.5-3 1.5-3 2-2.8 2.5-2.7 3-2.5 3.2-2.5 4-2.3 4.5-2.5 4.8-5 11.2-5.2 13.3L638 312l-7.2 16.8-5.5 12-5.5 11.7-5.5 11.5-5.8 10.5-4 6.5-4 6.3-4.2 5.5-4.3 5-3.7 3.7-4 3-2 1.3-2 1.2-2.3 1-2 .8-2.2.7-2.3.5-2.2.3H567l-2.2-.3-2.5-.2-2.5-.5-2.3-.8-2.2-1-2.3-1.2-2.2-1.5-2.5-1.8-4.3-4-4.5-4.7-4.5-5.8-4.5-6-6.2-9.2-6-10-5.8-10.5-5.5-10.5-8.2-16.3-7.5-16.5-6-13.5-5.3-12.5M243 161l84.8 81-91.3 73.8"/><path class="st3" d="M182.8 441.3l-3.8-3-3.5-3.3-3.2-3.5-3.3-3.5-3.2-3.7-3-4-2.8-4-2.5-4-2.5-4.3-2.2-4.2-2.3-4.5-2-4.5-1.7-4.5-1.8-4.8-1.2-4.7-1.5-4.8-1-4.7-1-5-.5-4.8-.8-5-.2-4.7-.3-5 .3-4.8.2-5 .3-4.7.7-4.8 1-4.7 1-4.8 1.3-4.5 1.5-4.7 1.7-4.3 2-4.5 2.8-5.5 3-5.2 3-5 3.5-4.8 3.7-4.7 4-4.3 4-4.2 4.3-4 4.5-4 4.7-3.5 4.8-3.3 5-3.2 5.2-2.8 5.3-2.5 5.5-2.5 5.5-2 5.7-1.7 5.8-1.5 6-1.5 6-.8 6-.7 6.2-.5h6.3l6.2.2 6.3.5 6.2.8 6.5 1.2 6.5 1.5 6.3 1.8 6.5 2 6.5 2.5 6.5 3M498.8 326l71.2-33.5.8-.5"/></svg>