<?xml version="1.0" encoding="iso-8859-1"?>
<!-- Generator: Adobe Illustrator 12.0.1, SVG Export Plug-In . SVG Version: 6.00 Build 51448)  -->
<!DOCTYPE svg PUBLIC "-//W3C//DTD SVG 1.1//EN" "http://www.w3.org/Graphics/SVG/1.1/DTD/svg11.dtd" [
	<!ENTITY ns_svg "http://www.w3.org/2000/svg">
	<!ENTITY ns_xlink "http://www.w3.org/1999/xlink">
]>
<svg  version="1.1" id="Layer_1" xmlns="&ns_svg;" xmlns:xlink="&ns_xlink;" width="850.394" height="850.394"
	 viewBox="0 0 850.394 850.394" style="overflow:visible;enable-background:new 0 0 850.394 850.394;" xml:space="preserve">
<g id="XMLID_2_">
	<g>
		<path style="fill:#FFEEC8;" d="M733.86,449.02c-11.011,0-20.98-3.27-28.19-8.569c0,0-10.22-6.79-27.41-6.79
			c-17.2,0-39.899,8.609-39.899,8.609v-46.81c2.64,1.08,23.87,9.55,39.97,9.55c17.2,0,27.4-6.79,27.4-6.79
			c7.229-5.3,17.189-8.57,28.199-8.57c22.021,0,66.21,13.1,66.21,29.26l-0.069,0.85C800.07,435.92,755.88,449.02,733.86,449.02z"/>
		<polygon style="fill:#FFEEC8;" points="638.36,395.46 638.36,442.27 638.36,469.22 215.67,469.22 215.67,443.68 215.67,395.79 
			215.67,369.61 638.36,369.61 		"/>
		<path style="fill:#FFEEC8;" d="M215.67,395.79v47.89h-1.19c0,0-23.04-9.649-40.24-9.649c-17.19,0-27.4,6.79-27.4,6.79
			c-7.22,5.3-17.19,8.569-28.2,8.569c-22.02,0-66.2-13.1-66.2-29.26l0.07-0.85c0-16.16,44.19-29.26,66.21-29.26
			c11.01,0,20.98,3.27,28.2,8.57c0,0,10.21,6.79,27.4,6.79S215.67,395.79,215.67,395.79z"/>
	</g>
	<g>
		<polygon style="fill:none;stroke:#000000;stroke-width:20.0509;" points="638.36,442.27 638.36,469.22 215.67,469.22 
			215.67,443.68 215.67,395.79 215.67,369.61 638.36,369.61 638.36,395.46 		"/>
		<path style="fill:none;stroke:#000000;stroke-width:20.0509;" d="M215.67,395.79c0,0-24.16,9.59-41.35,9.59s-27.4-6.79-27.4-6.79
			c-7.22-5.3-17.19-8.57-28.2-8.57c-22.02,0-66.21,13.1-66.21,29.26l-0.07,0.85c0,16.16,44.18,29.26,66.2,29.26
			c11.01,0,20.98-3.27,28.2-8.569c0,0,10.21-6.79,27.4-6.79c17.2,0,40.24,9.649,40.24,9.649"/>
		<path style="fill:none;stroke:#000000;stroke-width:20.0509;" d="M638.36,442.27c0,0,22.699-8.609,39.899-8.609
			c17.19,0,27.41,6.79,27.41,6.79c7.21,5.3,17.18,8.569,28.19,8.569c22.02,0,66.21-13.1,66.21-29.26l0.069-0.85
			c0-16.16-44.189-29.26-66.21-29.26c-11.01,0-20.97,3.27-28.199,8.57c0,0-10.2,6.79-27.4,6.79c-16.1,0-37.33-8.47-39.97-9.55
			c-0.181-0.07-0.271-0.11-0.271-0.11"/>
	</g>
</g>
<rect style="fill:none;" width="850.394" height="850.394"/>
</svg>
