<?xml version="1.0" encoding="iso-8859-1"?>
<!-- Generator: Adobe Illustrator 12.0.1, SVG Export Plug-In . SVG Version: 6.00 Build 51448)  -->
<!DOCTYPE svg PUBLIC "-//W3C//DTD SVG 1.1//EN" "http://www.w3.org/Graphics/SVG/1.1/DTD/svg11.dtd" [
	<!ENTITY ns_svg "http://www.w3.org/2000/svg">
	<!ENTITY ns_xlink "http://www.w3.org/1999/xlink">
]>
<svg  version="1.1" id="Layer_1" xmlns="&ns_svg;" xmlns:xlink="&ns_xlink;" width="850.394" height="850.394"
	 viewBox="0 0 850.394 850.394" style="overflow:visible;enable-background:new 0 0 850.394 850.394;" xml:space="preserve">
<g id="XMLID_13_">
	<g>
		<path style="fill:#EF3D27;" d="M782.15,421.81c0,7.6-0.471,15.12-1.391,22.55l-1.89-0.221
			C735.22,332.46,591.25,250.5,420.39,250.5c-161.63,0-299.18,73.34-350.54,175.8c-0.04-1.49-0.06-2.99-0.06-4.49
			c0-139.97,159.47-253.44,356.18-253.44C622.68,168.37,782.15,281.84,782.15,421.81z"/>
		<path style="fill:#EF3D27;" d="M778.87,444.14l1.89,0.221C764.72,573.78,612,675.27,425.97,675.27
			c-194.6,0-352.76-111.06-356.12-248.97c51.36-102.46,188.91-175.8,350.54-175.8C591.25,250.5,735.22,332.46,778.87,444.14z"/>
	</g>
	<g>
		<path style="fill:none;stroke:#231F20;stroke-width:21;" d="M69.85,426.3c-0.04-1.49-0.06-2.99-0.06-4.49
			c0-139.97,159.47-253.44,356.18-253.44c196.709,0,356.18,113.47,356.18,253.44c0,7.6-0.471,15.12-1.391,22.55
			C764.72,573.78,612,675.27,425.97,675.27C231.37,675.27,73.21,564.21,69.85,426.3z"/>
		<path style="fill:none;stroke:#231F20;stroke-width:21;" d="M68.55,428.94c0.43-0.881,0.86-1.761,1.3-2.641
			c51.36-102.46,188.91-175.8,350.54-175.8c170.86,0,314.83,81.96,358.48,193.64"/>
	</g>
</g>
<rect style="fill:none;" width="850.394" height="850.394"/>
</svg>
