<?xml version="1.0" encoding="iso-8859-1"?>
<!-- Generator: Adobe Illustrator 12.0.1, SVG Export Plug-In . SVG Version: 6.00 Build 51448)  -->
<!DOCTYPE svg PUBLIC "-//W3C//DTD SVG 1.1//EN" "http://www.w3.org/Graphics/SVG/1.1/DTD/svg11.dtd" [
	<!ENTITY ns_svg "http://www.w3.org/2000/svg">
	<!ENTITY ns_xlink "http://www.w3.org/1999/xlink">
]>
<svg  version="1.1" id="Layer_1" xmlns="&ns_svg;" xmlns:xlink="&ns_xlink;" width="850.394" height="850.394"
	 viewBox="0 0 850.394 850.394" style="overflow:visible;enable-background:new 0 0 850.394 850.394;" xml:space="preserve">
<g id="XMLID_11_">
	<g>
		<path style="fill:#F6CC4B;" d="M385.439,255.938h90.883v0.875c0,0,76.591,57.448,104.444,135.779
			c27.854,78.34,64.419,241.984,68.765,275.058c4.355,33.085,9.576,54.843-27.854,75.735
			c-37.431,20.884-139.27,45.257-198.458,49.612c-59.188,4.346-122.732-14.797-154.067-25.248
			c-31.334-10.441-74.86-48.737-73.12-87.042c1.75-38.296,5.23-223.697,46.142-275.924c23.032-29.4,55.717-72.323,79.887-104.221
			c44.838-11.832,57.351-38.821,57.351-38.821v-5.804H385.439z"/>
		<path style="fill:#F6CC4B;" d="M557.561,132.34l-92.03,104.445h-27.31c4.93-21.778,31.714-138.103,31.714-138.103
			s-3.179-13.134-25.695-25.229l4.803-0.885c0,0,55.708-30.761,67.315-11.608c11.608,19.152,4.385,35.136,13.923,44.683
			C544.785,120.149,557.561,132.34,557.561,132.34z"/>
		<path style="fill:#F6CC4B;" d="M403.076,236.785H365.48l-116.053-99.224c0,0,22.05-26.697,42.359-27.854
			c20.31-1.157,37.139-19.736,50.487-34.815c13.348-15.089,47.58-22.05,85.302-8.711c6.484,2.294,11.987,4.764,16.664,7.272
			c22.517,12.095,25.695,25.229,25.695,25.229s-26.784,116.325-31.714,138.103H403.076z"/>
	</g>
	<g>
		<path style="fill:none;stroke:#231F20;stroke-width:20.4165;" d="M449.042,72.568c0,0,55.708-30.761,67.315-11.608
			c11.608,19.152,4.385,35.136,13.923,44.683c14.505,14.506,27.28,26.697,27.28,26.697l-92.03,104.445l-2.557,2.907"/>
		<path style="fill:none;stroke:#231F20;stroke-width:20.4165;" d="M365.48,236.785l-116.053-99.224c0,0,22.05-26.697,42.359-27.854
			c20.31-1.157,37.139-19.736,50.487-34.815c13.348-15.089,47.58-22.05,85.302-8.711c6.484,2.294,11.987,4.764,16.664,7.272
			c22.517,12.095,25.695,25.229,25.695,25.229s-26.784,116.325-31.714,138.103c-0.485,2.11-0.758,3.334-0.777,3.48"/>
		<polyline style="fill:none;stroke:#231F20;stroke-width:20.4165;" points="352.131,74.892 403.076,236.785 404.359,240.849 		"/>
		<polyline style="fill:none;stroke:#231F20;stroke-width:27.222;stroke-linecap:round;stroke-linejoin:round;" points="
			346.911,236.785 365.48,236.785 403.076,236.785 438.221,236.785 465.53,236.785 485.597,236.785 		"/>
		<polyline style="fill:none;stroke:#231F20;stroke-width:27.222;stroke-linecap:round;stroke-linejoin:round;" points="
			348.068,255.938 354.455,255.938 379.412,255.938 385.439,255.938 476.322,255.938 486.764,255.938 		"/>
		<path style="fill:none;stroke:#231F20;stroke-width:20.4165;" d="M476.322,256.813c0,0,76.591,57.448,104.444,135.779
			c27.854,78.34,64.419,241.984,68.765,275.058c4.355,33.085,9.576,54.843-27.854,75.735
			c-37.431,20.884-139.27,45.257-198.458,49.612c-59.188,4.346-122.732-14.797-154.067-25.248
			c-31.334-10.441-74.86-48.737-73.12-87.042c1.75-38.296,5.23-223.697,46.142-275.924c23.032-29.4,55.717-72.323,79.887-104.221
			c18.764-24.762,32.394-42.884,32.394-42.884"/>
		<path style="fill:none;stroke:#231F20;stroke-width:27.222;stroke-linecap:round;stroke-linejoin:round;" d="M379.412,261.742
			c0,0-12.512,26.989-57.351,38.821c-14.7,3.889-32.88,6.144-55.231,5.279"/>
		<path style="fill:none;stroke:#231F20;stroke-width:27.222;stroke-linecap:round;stroke-linejoin:round;" d="M384.497,252.195
			c0,0,0.438,1.293,0.943,3.743c3.043,14.69,8.352,70.903-66.247,136.897"/>
	</g>
</g>
<rect style="fill:none;" width="850.394" height="850.394"/>
</svg>
