<svg xmlns="http://www.w3.org/2000/svg" width="850.394" height="850.394" viewBox="0 0 850.394 850.394" overflow="visible"><path d="M293.62 305.55l57.89-39.02c5.6-3.09 10.98-5.97 15.85-8.52l.55.88-42.04 25.93 93.55 134.84c.48 1.1.91 2.21 1.29 3.31-.1.26-.05.57.22.67.19.56.36 1.11.52 1.67 6.359 22.11-5.37 44.38-14.97 63.27-11.91 23.43-19.5 48.76-4.13 74.12 1.42-21.101 3-34.54 17.96-50.16 1.79-1.86 3.64-3.66 5.53-5.41 12.33-11.47 26.03-21.32 30.25-38.67 3.88-15.86-4.93-36.25-20.57-43.24-1.1-.49-2.449-1.19-3.88-1.82l5.271-7.63-1.53-1.06 90.53-130.49c11.05 7.49 21.25 15.22 28.29 22.26 0 0 49.42 99.62 64.359 160 10.28 41.649 35.66 128.92 35.66 128.92L614 610l-1.11-.23c.37-1.8.75-3.239 1.11-4.229l-77.72-170.12 21.38 227.811-2.91.27H296.24l-4.09-.13c2.69-76.32 19.42-228.88 19.42-228.88l-75.96 166.25L234 600l-36-10-3.01-.35c5.45-18.83 25.43-88.32 34.3-124.101 14.94-60.379 64.33-159.999 64.33-159.999z" fill="#394ea1"/><path d="M306 663.5h112.15v4.16l-8.53 126.79H309.05c-.8-45.83-2.45-106.17-3.05-128.45v-2.5z" fill="#394ea1"/><path d="M654.22 595.4c9.891 31.529 11.761 70.38 8.3 82.68-2.02 7.28-11.43 17.56-20.319 16.51-9.83-1.06-12.09-24.22-16.83-31.6-7.44 1.55-3.62 12.39-9.12 12.39-4.76-4.74-6.35-17.83-6.35-31.52 0-13.04 1.439-26.63 2.979-34.091h.01L614 610l40.22-14.6zM235.61 600.74l-1.76 3.859c1.87 5.15 4.09 22.141 4.09 38.29 0 13.71-1.6 26.811-6.36 31.57-5.46 0-1.67-10.87-9.13-12.38-4.74 7.37-6.99 30.52-16.82 31.59-8.86 1.061-18.28-9.25-20.32-16.5-3.46-12.33-1.6-51.16 8.29-82.71l1.39-4.81L198 590l36 10 1.61.74zM457.61 251.03l-8.36 52.59-2-.32H404.5l-1.97.31-8.23-51.73c4.24 4.21 8.52 7.56 12.61 9.85 6.33 2.8 10.96 2.08 18.17 2.08 7.81 0 12.95.47 19.7-2.79 3.91-2.49 8.1-6.07 12.27-10.52l.56.53zM362.93 176.9c0 9.41 1.47 18.64 3.97 27.39l-.64.18c-6.87 1.32-10.17-4.29-10.41-7.18-.62-7.6 1.62-11.26-3.27-21.22-2-4.1-2.99-12.29 4.32-13.47 1.91-.3 3.67-.11 5.25.45l.83.01c-.05 5.27-.05 10.73-.05 13.84z" fill="#ffeec8"/><path d="M427.82 218.91c-.09.02-.181.04-.271.05l.601-.04c-.11 0-.21 0-.311-.01h-.019zm20.97-45.12c0 3.76 3.21 6.81 7.14 6.81 3.94 0 7.13-3.05 7.13-6.81 0-1.03.08-1.51-.18-2.11l.49-1.06c-2.18-1.06-4.58-1.66-7.14-1.6-3.41.08-6.91 1.5-9.551 3.76l2.03.01c.011.23.081.46.081 1zm-54.49 78.09a89.234 89.234 0 0 1-4.69-5.07c-9.36-10.9-17.93-25.81-22.71-42.52-2.5-8.75-3.97-17.98-3.97-27.39 0-3.11 0-8.57.05-13.84.02-2.96.06-5.85.12-8.24l-1.18-.2c2.11-2.82 4.62-5.79 7.4-8.87h107.39v.01c4.06 4.33 8.76 9.95 10.29 16.13 0 .15.01.3.01.45.16 5.97.221 9.51.221 14.56 0 9.17-1.45 18.19-3.91 26.75-4.92 17.18-13.891 32.52-23.33 43.57-.98 1.14-1.96 2.24-2.94 3.28-4.17 4.45-8.359 8.03-12.27 10.52-6.75 3.26-11.891 2.79-19.7 2.79-7.21 0-11.84.72-18.17-2.08-4.091-2.29-8.371-5.64-12.611-9.85zm2.65-71.07c3.71 0 9.35-3.58 9.99-7.15-2.7-2.65-6.55-4.35-10.3-4.43-2.61-.06-5.04.56-7.26 1.65l.55 1.18c-.19.53-.13 1-.13 1.93 0 3.77 3.2 6.82 7.15 6.82z" fill="#ffeec8"/><path d="M493.06 161.88c7.301 1.17 6.32 9.37 4.311 13.47-4.88 9.95-2.65 13.62-3.271 21.21-.229 2.89-3.529 8.5-10.409 7.19l-.37-.1c2.46-8.56 3.91-17.58 3.91-26.75 0-5.05-.061-8.59-.221-14.56h.101l.689-.01c.931-.34 1.92-.54 2.98-.57.73-.05 1.49 0 2.28.12z" fill="#ffeec8"/><path d="M399.49 173.86c0 1.27-1.15 2.3-2.57 2.3s-2.58-1.03-2.58-2.3 1.16-2.29 2.58-2.29 2.57 1.02 2.57 2.29zM455.89 171.55c1.431 0 2.58 1.03 2.58 2.3 0 1.26-1.149 2.29-2.58 2.29-1.42 0-2.569-1.03-2.569-2.29-.001-1.27 1.149-2.3 2.569-2.3z" fill="#231f20"/><path d="M399.49 173.86c0-1.27-1.15-2.29-2.57-2.29s-2.58 1.02-2.58 2.29 1.16 2.3 2.58 2.3 2.57-1.03 2.57-2.3zm7.45-.2c-.64 3.57-6.28 7.15-9.99 7.15-3.95 0-7.15-3.05-7.15-6.82 0-.93-.06-1.4.13-1.93l-.55-1.18c2.22-1.09 4.65-1.71 7.26-1.65 3.75.08 7.6 1.78 10.3 4.43zM463.06 173.79c0 3.76-3.189 6.81-7.13 6.81-3.93 0-7.14-3.05-7.14-6.81 0-.54-.07-.77-.08-1l-2.03-.01c2.641-2.26 6.141-3.68 9.551-3.76 2.56-.06 4.96.54 7.14 1.6l-.49 1.06c.259.6.179 1.08.179 2.11zm-4.59.06c0-1.27-1.149-2.3-2.58-2.3-1.42 0-2.569 1.03-2.569 2.3 0 1.26 1.149 2.29 2.569 2.29 1.43 0 2.58-1.03 2.58-2.29z" fill="#fff"/><path d="M361.44 117.28c.89-.37 1.84-.56 2.82-.56h123.26c1.521 0 2.961.47 4.261 1.32 3.52 2.29 5.96 7.34 5.96 13.2 0 6.76-3.26 12.44-7.67 14.05-.811.3-1.67.46-2.551.46H364.26c-2.82 0-5.38-1.63-7.23-4.25-1.85-2.63-2.99-6.26-2.99-10.26 0-4.01 1.14-7.64 2.99-10.27 1.21-1.72 2.72-3 4.41-3.69z" fill="#394ea1"/><path d="M494.79 67.02c22.29 11.06 27.03 24.93 23.87 28.09-2.86 2.86-20.65 6.86-26.88 22.93-1.3-.85-2.74-1.32-4.261-1.32H364.26c-.98 0-1.93.19-2.82.56-6.28-15.96-23.98-19.96-26.83-22.81-3.16-3.16 1.58-17.02 23.87-28.08 26.29-13.04 110.02-12.41 136.31.63z" fill="#fff"/><path d="M544.54 663.5v4.99c-.51 19.37-1.12 82.6-1.79 125.96H441.61l-8.221-126.7v-4.25H544.54z" fill="#394ea1"/><path d="M436.91 415.77l-5.271 7.63c-1.199-.53-2.47-1.02-3.699-1.29v-2.25h-5.01v2.94c-1.05.81-1.68.96-2 .84-.07-.22-.14-.44-.22-.67.1-.28.38-.51.73-.41l-18.91-118.95 1.97-.31h42.75l2 .32-18.78 118.16 4.91-7.07 1.53 1.06z" fill="#fff"/><path d="M367.91 258.89l-.55-.88c11.06-5.78 19.55-9.9 22.25-11.2 1.54 1.8 3.12 3.5 4.69 5.07l8.23 51.73 18.91 118.95-1.26-1.82-.76-1.08-93.55-134.84 42.04-25.93zM525.91 284.22l-90.53 130.49-4.91 7.07 18.78-118.16 8.36-52.59-.561-.53c.98-1.04 1.96-2.14 2.94-3.28l3.41.07s13.689 7.1 30.97 17.21l26 16.04c1.861 1.22 3.711 2.45 5.541 3.68zM435.52 425.22c15.641 6.99 24.45 27.379 20.57 43.24-4.22 17.35-17.92 27.2-30.25 38.67v-75.32l5.8-8.41c1.43.63 2.78 1.33 3.88 1.82zM427.94 422.11v2.2h-5.01v-1.51c1.38-1.07 3.16-1.12 5.01-.69z" fill="#fff"/><path d="M425.84 431.81v75.32c-1.89 1.75-3.74 3.55-5.53 5.41-14.96 15.62-16.54 29.06-17.96 50.16-15.37-25.36-7.78-50.69 4.13-74.12 9.6-18.89 21.33-41.16 14.97-63.27l4.39 6.5z" fill="#fff"/><path d="M427.94 424.31v-2.2c1.229.27 2.5.76 3.699 1.29l-5.8 8.41-4.39-6.5c-.16-.56-.33-1.11-.52-1.67.32.12.95-.03 2-.84v1.51h5.011z" fill="#fff"/><path d="M420.71 422.97c.08.23.15.45.22.67-.27-.1-.32-.41-.22-.67zM420.18 420.74l1.26 1.82c-.35-.1-.63.13-.73.41-.38-1.1-.81-2.21-1.29-3.31l.76 1.08z" fill="#fff"/><g fill="none" stroke="#231f20"><path d="M193.6 594.46l1.39-4.81c5.45-18.83 25.43-88.32 34.3-124.101 14.94-60.38 64.33-160 64.33-160l57.89-39.02c5.6-3.09 10.98-5.97 15.85-8.52 11.06-5.78 19.55-9.9 22.25-11.2l.91-.44" stroke-width="14"/><path d="M291.9 671.87c.06-2.71.14-5.55.25-8.5 2.69-76.32 19.42-228.88 19.42-228.88l-75.96 166.25-1.76 3.859c1.87 5.15 4.09 22.141 4.09 38.29 0 13.71-1.6 26.811-6.36 31.57-5.46 0-1.67-10.87-9.13-12.38-4.74 7.37-6.99 30.52-16.82 31.59-8.86 1.061-18.28-9.25-20.32-16.5-3.46-12.33-1.6-51.16 8.29-82.71M309.05 794.45c-.8-45.83-2.45-106.17-3.05-128.45M654.22 595.4s-25.38-87.271-35.66-128.92c-14.939-60.38-64.359-160-64.359-160-7.04-7.04-17.24-14.77-28.29-22.26-1.83-1.23-3.68-2.46-5.54-3.68-7.01-4.59-14.2-9.03-21-13.09-1.69-1.01-3.36-1.99-5-2.95-17.28-10.11-30.97-17.21-30.97-17.21M558.7 674.3l-1.04-11.069-21.38-227.811L614 605.54c-.36.99-.74 2.43-1.11 4.229h-.01c-1.54 7.461-2.979 21.051-2.979 34.091 0 13.689 1.59 26.779 6.35 31.52 5.5 0 1.68-10.84 9.12-12.39 4.74 7.38 7 30.54 16.83 31.6 8.89 1.05 18.3-9.229 20.319-16.51 3.461-12.3 1.591-51.15-8.3-82.68M542.75 794.45c.67-43.36 1.28-106.59 1.79-125.96M418.15 667.66l-8.53 126.79M441.61 794.45l-8.22-126.7M296.24 663.5h258.51" stroke-width="14"/><path d="M381.83 177.06c2.11-2.55 4.65-4.76 7.55-6.18 2.22-1.09 4.65-1.71 7.26-1.65 3.75.08 7.6 1.78 10.3 4.43.88.87 1.64 1.84 2.23 2.89" stroke-width="5.083" stroke-linecap="square" stroke-miterlimit="10"/><path d="M407 173c0 .22-.02.44-.06.66-.64 3.57-6.28 7.15-9.99 7.15-3.95 0-7.15-3.05-7.15-6.82 0-.93-.06-1.4.13-1.93" stroke-width="3.389" stroke-linecap="square" stroke-miterlimit="10"/><path d="M471.04 176.85c-2.14-2.59-4.72-4.82-7.67-6.23-2.18-1.06-4.58-1.66-7.14-1.6-3.41.08-6.91 1.5-9.551 3.76-1.21 1.03-2.229 2.23-2.979 3.56" stroke-width="5.083" stroke-linecap="square" stroke-miterlimit="10"/><path d="M448.71 172.79c.01.23.08.46.08 1 0 3.76 3.21 6.81 7.14 6.81 3.94 0 7.13-3.05 7.13-6.81 0-1.03.08-1.51-.18-2.11" stroke-width="3.389" stroke-linecap="square" stroke-miterlimit="10"/><path d="M362.15 163.05c-1.58-.56-3.34-.75-5.25-.45-7.31 1.18-6.32 9.37-4.32 13.47 4.89 9.96 2.65 13.62 3.27 21.22.24 2.89 3.54 8.5 10.41 7.18M487.8 162.33c.931-.34 1.92-.54 2.98-.57.729-.05 1.489 0 2.279.12 7.301 1.17 6.32 9.37 4.311 13.47-4.88 9.95-2.65 13.62-3.271 21.21-.229 2.89-3.529 8.5-10.409 7.19" stroke-width="6.777"/><path d="M410.51 237.05c8.98 3.58 23.23 3.16 30.87-.18" stroke-width="7"/><path d="M486.98 161.11c.01.26.01.52.02.78 0 .15.01.3.01.45.16 5.97.221 9.51.221 14.56 0 9.17-1.45 18.19-3.91 26.75-4.92 17.18-13.891 32.52-23.33 43.57-.98 1.14-1.96 2.24-2.94 3.28-4.17 4.45-8.359 8.03-12.27 10.52-6.75 3.26-11.891 2.79-19.7 2.79-7.21 0-11.84.72-18.17-2.08-4.09-2.29-8.37-5.64-12.61-9.85a89.234 89.234 0 0 1-4.69-5.07c-9.36-10.9-17.93-25.81-22.71-42.52-2.5-8.75-3.97-17.98-3.97-27.39 0-3.11 0-8.57.05-13.84.02-2.96.06-5.85.12-8.24" stroke-width="14"/><path d="M427.84 218.91c3.37-.63 2.78-2.64 6.42-1.76 3.15.77 6.49 2.34 7.271-2.59.55-3.38-2-3.83-3.351-6.55" stroke-width="7"/><path d="M417.18 176.69c5.64 6.2 3.93 20.76 1.41 28.33l-1.07 2.96c-1.35 2.72-3.9 3.15-3.35 6.55.78 4.91 4.12 3.35 7.27 2.59 3.63-.88 2.8 1.65 6.38 1.79h.02c.101.01.2.01.311.01l-.601.04c.09-.01.181-.03.271-.05" stroke-width="7"/><path d="M399.49 173.86c0 1.27-1.15 2.3-2.57 2.3s-2.58-1.03-2.58-2.3 1.16-2.29 2.58-2.29 2.57 1.02 2.57 2.29zM458.47 173.85c0 1.26-1.149 2.29-2.58 2.29-1.42 0-2.569-1.03-2.569-2.29 0-1.27 1.149-2.3 2.569-2.3 1.43 0 2.58 1.03 2.58 2.3z" stroke-width="3.389"/><path d="M413.43 165.32c-3.04-6.42-14.96-8.92-20.99-7.72-5.67 1.14-8.48 1.82-14.4 6.4M438.12 163.91c3.06-6.41 14.979-8.91 21-7.71 5.68 1.13 8.49 1.81 14.39 6.4" stroke-width="7"/><path d="M476.71 145.76c4.06 4.33 8.76 9.95 10.29 16.13.04.15.07.3.11.45.199.92.33 1.84.38 2.78M356.26 141.9l.64 20.7c1.2-2.48 2.91-5.16 5.02-7.98 2.11-2.82 4.62-5.79 7.4-8.87M490.29 164.66c.15-.92.32-1.89.49-2.9.93-5.4 2.05-11.83 1.5-16.47" stroke-width="13.555"/><path stroke-width="14" d="M198 590l36 10M654.22 595.4L614 610M420.18 420.74l-.76-1.08-93.55-134.84 42.04-25.93.31-.19M394.29 251.81l.01.07 8.23 51.73 18.91 118.95M457.61 251.03l-8.36 52.59-18.78 118.16 4.91-7.07 90.53-130.49.13-.18-5.67-3.5-26-16.04-10.68-6.59"/><path stroke-width="10.166" d="M431.64 423.4l5.27-7.63M414.14 414.49l7.31 10.82M422.93 422.8v-2.94h5.01v2.25"/><path stroke-width="14" d="M425.84 507.13v149.59M404.5 303.3h42.75M491.78 118.04c3.52 2.29 5.96 7.34 5.96 13.2 0 6.76-3.26 12.44-7.67 14.05-.811.3-1.67.46-2.551.46H364.26c-2.82 0-5.38-1.63-7.23-4.25-1.85-2.63-2.99-6.26-2.99-10.26 0-4.01 1.14-7.64 2.99-10.27 1.21-1.72 2.72-3 4.41-3.69.89-.37 1.84-.56 2.82-.56h123.26c1.52 0 2.96.47 4.26 1.32z"/><path d="M490.23 123.54c.369-1.98.899-3.81 1.55-5.5 6.229-16.07 24.02-20.07 26.88-22.93 3.16-3.16-1.58-17.03-23.87-28.09-26.29-13.04-110.02-13.67-136.31-.63-22.29 11.06-27.03 24.92-23.87 28.08 2.85 2.85 20.55 6.85 26.83 22.81.69 1.73 1.23 3.6 1.61 5.63M419.42 419.66c.48 1.1.91 2.21 1.29 3.31.08.23.15.45.22.67.19.56.36 1.11.52 1.67 6.359 22.11-5.37 44.38-14.97 63.27-11.91 23.43-19.5 48.76-4.13 74.12 1.42-21.101 3-34.54 17.96-50.16 1.79-1.86 3.64-3.66 5.53-5.41 12.33-11.47 26.03-21.32 30.25-38.67 3.88-15.86-4.93-36.25-20.57-43.24-1.1-.49-2.449-1.19-3.88-1.82-1.199-.53-2.47-1.02-3.699-1.29-1.851-.43-3.63-.38-5.01.69-1.05.81-1.68.96-2 .84-.27-.1-.32-.41-.22-.67.1-.28.38-.51.73-.41" stroke-width="14"/></g><path fill="none" d="M0 0h850.394v850.394H0z"/></svg>