<svg xmlns="http://www.w3.org/2000/svg" width="850.394" height="850.394" viewBox="0 0 850.394 850.394" overflow="visible"><path d="M547.29 230.74c7.47 5.18 6.87 16.97 2.88 24.26-5.06 9.27-7.56 8.15-2.33 18.08 4.82 9.09 2.3 14.11-5.76 19.38-3.04 1.98-7.47 3.72-9.83 6.48-3.16 3.71-1.65 4.47-2.87 8.61-2.899 9.88-7.59 8.84-15.63 13.82-7.78 4.82-3.67 9.69-5.2 16.29-2.08 8.98-5.55 14.21-13.609 15.11-10.48 1.17-3.601 11.19-26.811 22.51.51-1.35 1.01-2.7 1.49-4.04 4.87-13.3 8.84-26.05 10.96-36.41 6.47-31.57 24.04-71.42 43.77-91.15 4.931-4.94 11.351-10.05 18.2-14.95l2.62.59c.43.24 1.52 1 2.12 1.42z" fill="#6ebe44"/><path d="M467.98 370.64c.14.09.14.14-.221.09-19.66 1.63-17.04-29.48-7.3-37.88-7.24-7.24-9.76-11.65-9.82-15.84-.05-3.32 1.46-6.51 3.391-10.88-6.73-2.47-8.28-7.52-7.36-15.95.63-5.72 1.59-5.57.16-9.82-.19-.57-.4-1.08-.61-1.56-1.41-3.23-3.08-4.81-3-9.27.21-11.25 11.55-15.84 13.21-25.17 1.101-6.2-5.62-12.25-1.699-19.96 3.409-6.69 10.6-7.76 12.06-15.48 1.44-7.68-.74-15.51 7.08-21.26 3.939-2.9 10.56-1.66 14.1-4.38 3.16-2.44 2.15-5.28 4.28-8.34 2.75-3.97 5.76-6.36 9.13-7.83 3.96-1.74 8.41-2.2 13.521-2.5 2.359-7.45 7.35-10.01 14.89-9.77 9.53.3 10.24 4.98 16.14 10.95 4.96-4.93 9.75-7.43 16.471-3.41 6.77 4.04 7.149 14.48 13.64 18.04 5.56 3.06 11.06-.29 15.21 7.27 3.27 5.91.48 10.88-4.72 13.68l.189.38c-4.37 2.32-25.819 13.87-44.17 26.98-6.85 4.9-13.27 10.01-18.2 14.95-19.729 19.73-37.3 59.58-43.77 91.15-2.12 10.36-6.09 23.11-10.96 36.41l-1.642-.6z" fill="#6ebe44"/><path d="M446.83 280.36c1.43 4.25.47 4.1-.16 9.82-.92 8.43.63 13.48 7.36 15.95-1.931 4.37-3.44 7.56-3.391 10.88-6.38 4.83-13.319 10.93-19.81 18.38-11.19 12.82-20.33 27.25-23.35 32.18.47-14.08 1.6-29.55 3.78-45.48 3.59-5.77 12.23-19.07 22.62-30.99 4.01-4.61 8.19-8.69 12.3-12.28l.04-.02c.211.48.421.99.611 1.56zM397.57 486.26L360 500.62s-6.1-39.83-30.15-63.88c-24.04-24.04-40.84-61-49.52-77.51-11.12-21.18-13.51-25.23-13.51-25.23 6.32.97 9.21-5.29 16.36-4.37 2.7.34 9.45 1.68 11.38 3.71 3.23 3.41.23 4.97 1.71 8 2.1 4.32 9.17 5.8 12.07 10.66 2.67 4.46.34 7.76 2.26 11.98 6.7-3.32 13.91-2.22 16.24 5.29 1.67 5.41-2.59 10.37-.43 14.97 7.27-3.03 12.45-.39 16.92 5.86 3.35 4.69 1.5 14.23 4.99 17.86 3.67 3.8 9.84-.59 14.6 4.55 4.14 4.45 33.15 68.14 34.65 73.75z" fill="#6ebe44"/><path d="M294.73 228.22c-2.2 2.24-4.47 4.52-5.63 7.55-1.92 5.01-1.94 9.93-.71 15.01 1.45 6.01 5.95 9.42 7.75 14.97 2.89 8.95-6.06 18.92 2.24 26.73 3.19 3 8.79 2.94 10.83 6.97 2.16 4.23-1.4 11.04-.89 15.83.65 5.91 2.89 9.44 7.74 13.08 6.11 4.59 11.59 1.77 17.58 4.45 8.57 3.85 2.47 13.57 6.01 20.63 2.44 4.84 6.11 5.86 11 7.22 3.22.9 12.22-.22 14.42 1.41 4.59 3.38 1.42 13.49 2.85 18.69 2.47 9.03 8.9 10.1 16.44 14.47-.98 4.31-3.77 8.67-3.43 13.06.58 7.56 7.28 10 10.55 14.92 2.39 3.63.61 9.44 7.95 9.28 4.86-.101 10.09.66 10.09.66s-3.1-25.831-2.16-61.53c.03-1.34.07-2.69.12-4.05 3.02-4.93 12.16-19.36 23.35-32.18 6.49-7.45 13.43-13.55 19.81-18.38.061 4.19 2.58 8.6 9.82 15.84-9.74 8.4-12.36 39.51 7.3 37.88.36.05.36 0 .221-.09l1.64.6c-.48 1.34-.98 2.69-1.49 4.04-9.8 26.07-22.62 53.51-31.33 68.64-13.64 23.69-27.99 38.04-27.99 38.04l-11.24 4.3c-1.5-5.609-30.51-69.3-34.65-73.75-4.76-5.14-10.93-.75-14.6-4.55-3.49-3.63-1.64-13.17-4.99-17.86-4.47-6.25-9.65-8.89-16.92-5.86-2.16-4.6 2.1-9.56.43-14.97-2.33-7.51-9.54-8.61-16.24-5.29-1.92-4.22.41-7.52-2.26-11.98-2.9-4.86-9.97-6.34-12.07-10.66-1.48-3.03 1.52-4.59-1.71-8-1.93-2.03-8.68-3.37-11.38-3.71-7.15-.92-10.04 5.34-16.36 4.37-6.26-15.5-25.71-1.33-35.27-9.18-4.04-3.31-2.94-5.67-5.07-9.4-2.23-3.91-1.78-2.37-6.5-5.15-7.27-4.31-13.44-11.2-13.58-19.94-.05-3.35 1.36-5.92.79-8.95-.95-5.04-4.8-8.54-5.11-14.19-.16-2.9.29-5.57 1.01-8.14 1.31-4.65 3.53-8.97 4.75-13.73 2.62-10.22-.27-30.34-13.56-31.81 9.27-8.59 22.75-14.88 33.85-5.7 2.3 1.9 3.59 7.03 6.08 8.07 4.94 2.08 7.67-5.1 12.41-5.99 10.32-1.93 11.84 11.57 20.62 8.54 3.72-1.29 5.78-3.32 8-4.41 2.33-1.14 4.82-1.25 9.57 1.63 4.12 2.49 6.41 6.39 7 9.36l2.919 3.21z" fill="#6ebe44"/><path d="M467.98 370.64c.14.09.14.14-.221.09-19.66 1.63-17.04-29.48-7.3-37.88-7.24-7.24-9.76-11.65-9.82-15.84-.05-3.32 1.46-6.51 3.391-10.88-6.73-2.47-8.28-7.52-7.36-15.95.63-5.72 1.59-5.57.16-9.82-.19-.57-.4-1.08-.61-1.56-1.41-3.23-3.08-4.81-3-9.27.21-11.25 11.55-15.84 13.21-25.17 1.101-6.2-5.62-12.25-1.699-19.96 3.409-6.69 10.6-7.76 12.06-15.48 1.44-7.68-.74-15.51 7.08-21.26 3.939-2.9 10.56-1.66 14.1-4.38 3.16-2.44 2.15-5.28 4.28-8.34 2.75-3.97 5.76-6.36 9.13-7.83 3.96-1.74 8.41-2.2 13.521-2.5 2.359-7.45 7.35-10.01 14.89-9.77 9.53.3 10.24 4.98 16.14 10.95 4.96-4.93 9.75-7.43 16.471-3.41 6.77 4.04 7.149 14.48 13.64 18.04 5.56 3.06 11.06-.29 15.21 7.27 3.27 5.91.48 10.88-4.72 13.68l.189.38c-4.37 2.32-25.819 13.87-44.17 26.98-6.85 4.9-13.27 10.01-18.2 14.95-19.729 19.73-37.3 59.58-43.77 91.15-2.12 10.36-6.09 23.11-10.96 36.41l-1.642-.6zM397.57 486.26L360 500.62s-6.1-39.83-30.15-63.88c-24.04-24.04-40.84-61-49.52-77.51-11.12-21.18-13.51-25.23-13.51-25.23 6.32.97 9.21-5.29 16.36-4.37 2.7.34 9.45 1.68 11.38 3.71 3.23 3.41.23 4.97 1.71 8 2.1 4.32 9.17 5.8 12.07 10.66 2.67 4.46.34 7.76 2.26 11.98 6.7-3.32 13.91-2.22 16.24 5.29 1.67 5.41-2.59 10.37-.43 14.97 7.27-3.03 12.45-.39 16.92 5.86 3.35 4.69 1.5 14.23 4.99 17.86 3.67 3.8 9.84-.59 14.6 4.55 4.14 4.45 33.15 68.14 34.65 73.75z" fill="#6ebe44"/><path d="M446.83 280.36c1.43 4.25.47 4.1-.16 9.82-.92 8.43.63 13.48 7.36 15.95-1.931 4.37-3.44 7.56-3.391 10.88-6.38 4.83-13.319 10.93-19.81 18.38-11.19 12.82-20.33 27.25-23.35 32.18.47-14.08 1.6-29.55 3.78-45.48 3.59-5.77 12.23-19.07 22.62-30.99 4.01-4.61 8.19-8.69 12.3-12.28l.04-.02c.211.48.421.99.611 1.56zM547.29 230.74c7.47 5.18 6.87 16.97 2.88 24.26-5.06 9.27-7.56 8.15-2.33 18.08 4.82 9.09 2.3 14.11-5.76 19.38-3.04 1.98-7.47 3.72-9.83 6.48-3.16 3.71-1.65 4.47-2.87 8.61-2.899 9.88-7.59 8.84-15.63 13.82-7.78 4.82-3.67 9.69-5.2 16.29-2.08 8.98-5.55 14.21-13.609 15.11-10.48 1.17-3.601 11.19-26.811 22.51.51-1.35 1.01-2.7 1.49-4.04 4.87-13.3 8.84-26.05 10.96-36.41 6.47-31.57 24.04-71.42 43.77-91.15 4.931-4.94 11.351-10.05 18.2-14.95l2.62.59c.43.24 1.52 1 2.12 1.42z" fill="#6ebe44"/><path d="M294.73 228.22c-2.2 2.24-4.47 4.52-5.63 7.55-1.92 5.01-1.94 9.93-.71 15.01 1.45 6.01 5.95 9.42 7.75 14.97 2.89 8.95-6.06 18.92 2.24 26.73 3.19 3 8.79 2.94 10.83 6.97 2.16 4.23-1.4 11.04-.89 15.83.65 5.91 2.89 9.44 7.74 13.08 6.11 4.59 11.59 1.77 17.58 4.45 8.57 3.85 2.47 13.57 6.01 20.63 2.44 4.84 6.11 5.86 11 7.22 3.22.9 12.22-.22 14.42 1.41 4.59 3.38 1.42 13.49 2.85 18.69 2.47 9.03 8.9 10.1 16.44 14.47-.98 4.31-3.77 8.67-3.43 13.06.58 7.56 7.28 10 10.55 14.92 2.39 3.63.61 9.44 7.95 9.28 4.86-.101 10.09.66 10.09.66s-3.1-25.831-2.16-61.53c.03-1.34.07-2.69.12-4.05 3.02-4.93 12.16-19.36 23.35-32.18 6.49-7.45 13.43-13.55 19.81-18.38.061 4.19 2.58 8.6 9.82 15.84-9.74 8.4-12.36 39.51 7.3 37.88.36.05.36 0 .221-.09l1.64.6c-.48 1.34-.98 2.69-1.49 4.04-9.8 26.07-22.62 53.51-31.33 68.64-13.64 23.69-27.99 38.04-27.99 38.04l-11.24 4.3c-1.5-5.609-30.51-69.3-34.65-73.75-4.76-5.14-10.93-.75-14.6-4.55-3.49-3.63-1.64-13.17-4.99-17.86-4.47-6.25-9.65-8.89-16.92-5.86-2.16-4.6 2.1-9.56.43-14.97-2.33-7.51-9.54-8.61-16.24-5.29-1.92-4.22.41-7.52-2.26-11.98-2.9-4.86-9.97-6.34-12.07-10.66-1.48-3.03 1.52-4.59-1.71-8-1.93-2.03-8.68-3.37-11.38-3.71-7.15-.92-10.04 5.34-16.36 4.37-6.26-15.5-25.71-1.33-35.27-9.18-4.04-3.31-2.94-5.67-5.07-9.4-2.23-3.91-1.78-2.37-6.5-5.15-7.27-4.31-13.44-11.2-13.58-19.94-.05-3.35 1.36-5.92.79-8.95-.95-5.04-4.8-8.54-5.11-14.19-.16-2.9.29-5.57 1.01-8.14 1.31-4.65 3.53-8.97 4.75-13.73 2.62-10.22-.27-30.34-13.56-31.81 9.27-8.59 22.75-14.88 33.85-5.7 2.3 1.9 3.59 7.03 6.08 8.07 4.94 2.08 7.67-5.1 12.41-5.99 10.32-1.93 11.84 11.57 20.62 8.54 3.72-1.29 5.78-3.32 8-4.41 2.33-1.14 4.82-1.25 9.57 1.63 4.12 2.49 6.41 6.39 7 9.36l2.919 3.21z" fill="#6ebe44"/><path d="M420.02 277.21c12.52-54.37 13.23-51.18 23.95-74.45 13.561-29.43 36.971-44.14 36.971-44.14s-.69-17.04-6.801-26.95c-4.13-6.69-12.89-12.95-20.84-13.6-2.64-.21-6.47 1.98-8.6 1.47-3.8-.89-4.03-3.86-6.8-6.49-2.561-2.44-7.07-5.37-11.73-7 2.96-4.62.94-13.36-2.33-19.89l.4-.2c6.46-9.16 15.05-15.19 26.64-10.79 2.11.79 4.29 3.33 6.64 3.41 3.33.11 3.601-2.2 6.41-3.84 5.17-3.02 15.12-3.51 20.36-.15 4.33 2.78 4.28 10.8 8.77 11.94 7.2 1.82 11.551-7.28 18.96-.58 5.311 4.82 2.801 6.24 11.4 5.39 11.45-1.13 16.91 6.76 13.18 15.93l-35.22 59.84c-3.37 1.47-6.38 3.86-9.13 7.83-2.13 3.06-1.12 5.9-4.28 8.34-3.54 2.72-10.16 1.48-14.1 4.38-7.82 5.75-5.64 13.58-7.08 21.26-1.46 7.72-8.65 8.79-12.06 15.48-3.921 7.71 2.8 13.76 1.699 19.96-1.66 9.33-13 13.92-13.21 25.17-.08 4.46 1.59 6.04 3 9.27l-.04.02c-4.109 3.59-8.29 7.67-12.3 12.28-10.39 11.92-19.03 25.22-22.62 30.99 1.36-10 3.14-20.18 5.44-30.32 1.201-5.27 2.301-10.11 3.321-14.56z" fill="#6ebe44"/><path d="M423.84 86.16c3.271 6.53 5.29 15.27 2.33 19.89-3.98-1.4-8.07-1.84-11.14-.21-5.3 2.81-3.15 5.3-9.86 5.23-4.9-.04-9.34-2.81-14.36-2.33-2.96.29-6.94 1.6-9.23 3.7-3.24 2.96-3.94 10.63-6.59 12.67-3.1 2.4-9.86.56-13.55.86-4.9.4-9.93 1.39-14.34 3.59-7.6 3.79-10.96 10.29-11.58 18.55-10.45-.26-20.86 5.67-25.62 15.33-1.95 3.96-1.91 7.87-1.73 11.89.25 5.81 1.6 3.9-1.12 9.34-4.5 8.96-10.05 13.32-8.63 24.32.58 4.55 3.12 8.58 1.19 12.96-1.04 2.37-2.93 4.3-4.88 6.27l-2.92-3.21c-.59-2.97-2.88-6.87-7-9.36-4.75-2.88-7.24-2.77-9.57-1.63-1.95-4.09-6.03-10.25-13.91-19.53-23.48-27.65-41.39-41.39-41.39-41.39-.01-2.74-5.43-7.95-7.03-9.88-4.73-5.73-11.89-9.95-12.26-17.99-.26-5.51 2.05-11.05 8.51-10.85 1.29-8.44-6-17.36-1.87-25.75 5.08-10.33 16.9-2.14 22.62 3.44 4.02-8.38 11.12-10.09 19.63-8.44 5.13.99 10.03 4.11 11.47-3.38 1.54-8.01-7.83-12.62 5.06-16.62 7.39-2.29 16.5-.92 21.24 5.33 3.51-7.77 11.71-13.37 20.35-8.16 1.89 1.15 3.55 6.52 5.78 6.91 4.82.87 7.78-6.94 11.38-9.22 9.15-5.81 14.04 2.6 20.74 2.43 4.95-.12 9.53-5.42 15.85-4.64 6.91.86 9.26 5.57 12.91 10.71 8.01-8.04 25.14-10.05 27.38 4.34 7.35-1.26 9.54 2.86 16.31 7.16 1.91 1.22 4.05 4.11 5.83 7.67z" fill="#6ebe44"/><path d="M174.13 185.84c-4.65 2.68-2.53 2.96-8.04 3.46-1.5.14-2.79.09-3.98.01l.27-4.79c-1.46-9.67 1.4-17.84 11.59-21.85 10.86-4.29 18.71 2.56 25.28 9.78 2.77-3.2 4.13-9.25 7.17-11.99 2.44-2.2 6.38-1.92 9.35-3.52 3.24-1.76 4.18.79 4.17-3.84 0 0 17.91 13.74 41.39 41.39 7.88 9.28 11.96 15.44 13.91 19.53-2.22 1.09-4.28 3.12-8 4.41-8.78 3.03-10.3-10.47-20.62-8.54-4.74.89-7.47 8.07-12.41 5.99-2.49-1.04-3.78-6.17-6.08-8.07-11.1-9.18-24.58-2.89-33.85 5.7-.69-.09-1.42-.12-2.17-.09 4.53-8.74 11.3-18.17 1.94-27.02-6.5-6.13-12.73-4.7-19.92-.56z" fill="#6ebe44"/><path d="M194.28 213.51c13.29 1.47 16.18 21.59 13.56 31.81-1.22 4.76-3.44 9.08-4.75 13.73-4.22-3.71-16.35-4.78-22.56-6.2-10.83-2.48-21.24-6.97-32.08-9.39-5.76-1.28-18.05-.73-20.15-6.94-1.36-4.02 3.21-9.76 4.93-12.93 2-3.67 7.1-6.9 8.52-10.07 1.44-3.22-.52-7.92.69-11.43 1.34-3.9 6.11-8.9 9.58-11.02 4.14-2.54 6.68-1.99 10.09-1.76 1.19.08 2.48.13 3.98-.01 5.51-.5 3.39-.78 8.04-3.46 7.19-4.14 13.42-5.57 19.92.56 9.36 8.85 2.59 18.28-1.94 27.02.75-.03 1.48 0 2.17.09z" fill="#6ebe44"/><path d="M265.27 504.25c-6.78 5.24-12.93 11.15-17.47 18.96-3.96 6.82-9.74 18.58-17.83 22.84-3.27 1.71-6.91 2.21-10.96.67l-2.06-.229c.57-4.82-.26-11.5-1.76-18.46l.55-.101c6.67-12.91 15.91-21.96 26.49-28.359 15.26-9.25 33.31-13 50.44-14.931-8.84 7.18-18.65 12.83-27.4 19.61z" fill="#33a048"/><path d="M230.26 546.59c34.23 9.36 49.12 38.55 58.35 66.24-15.74-12.71-27.41-29.42-47.06-35.86-8.74-2.859-24.51-6.729-28.32-16.479.11-1.71-.14-3.391-.83-4.99.02-.59.07-1.19.17-1.81l-.11-.45c1.25-.29 2.03-.57 2.03-.57 1.37-1.24 2.15-3.4 2.46-6.18l2.06.229c4.05 1.54 7.69 1.04 10.96-.67l.29.54z" fill="#33a048"/><path d="M212.4 555.5c-.06 1.82.24 3.47.83 4.99-.77 12.6-20.98 27.18-28.5 32.149-8.46 5.58-11.87 16.16-18.45 23.971-6.4 7.58-12.59 15.06-22.55 18.909 11.48-32.569 19.82-67.689 54.08-83.1v-.01c.84-.03 1.69-.08 2.55-.15 3.71 2.49 9.18 1.69 12.1.98l.11.45c-.1.621-.15 1.221-.17 1.811z" fill="#33a048"/><path d="M129.86 517.89a223.14 223.14 0 0 1-6.38-7.63c4.65 1.57 9.15 3.44 13.61 5.37 13.9 6.021 27.3 12.55 42.95 11.97 3.61-.119 8.28-.489 13.05-.409l3.1.569c1 10.44.79 19.51.79 19.51.63 2.381 1.86 3.961 3.38 4.99-.86.07-1.71.12-2.55.15-29.65 1.27-51.15-15.4-67.95-34.52z" fill="#33a048"/><path d="M200.36 552.26c-1.52-1.029-2.75-2.609-3.38-4.99 0 0 .21-9.069-.79-19.51-.8-8.37-2.37-17.62-5.44-23.79-.83-1.66-1.95-3.649-3.28-5.85-9.74-16.13-30.73-43.98-30.73-43.98l15.51-10.229s22.01 34.07 32.46 54.09c2.01 3.87 3.6 7.22 4.52 9.69 2.21 5.97 4.43 13.3 5.96 20.34 1.5 6.96 2.33 13.64 1.76 18.46-.31 2.779-1.09 4.939-2.46 6.18 0 0-.78.28-2.03.57-2.92.709-8.39 1.509-12.1-.981z" fill="#33a048"/><path d="M215.34 497.71c9.15 0 18.13.64 26.89 1.86-10.58 6.399-19.82 15.449-26.49 28.359l-.55.101c-1.53-7.04-3.75-14.37-5.96-20.34-.92-2.471-2.51-5.82-4.52-9.69 3.51-.19 7.06-.29 10.63-.29zM196.19 527.76l-3.1-.569c-4.77-.08-9.44.29-13.05.409-15.65.58-29.05-5.949-42.95-11.97l.67-1.54c10.12-4.56 31.7-13.25 49.71-15.97 1.33 2.2 2.45 4.189 3.28 5.85 3.07 6.17 4.64 15.42 5.44 23.79z" fill="#ed1d31"/><path d="M129.86 517.89c16.8 19.12 38.3 35.79 67.95 34.521v.01c-34.26 15.41-42.6 50.53-54.08 83.1 9.96-3.85 16.15-11.329 22.55-18.909 6.58-7.811 9.99-18.391 18.45-23.971 7.52-4.97 27.73-19.55 28.5-32.149 3.81 9.75 19.58 13.62 28.32 16.479 19.65 6.44 31.32 23.15 47.06 35.86-9.23-27.69-24.12-56.88-58.35-66.24l-.29-.54c8.09-4.26 13.87-16.02 17.83-22.84 4.54-7.81 10.69-13.72 17.47-18.96 68.32 18.35 117.91 73.39 117.91 138.44 0 80.069-75.15 144.979-167.84 144.979-92.71 0-167.85-64.91-167.85-144.979 0-53.111 33.06-99.541 82.37-124.801z" fill="#ed1d31"/><path d="M653.93 316.98c3.59 13.92 8.13 18.47 13.83 24.17-7.14-3.45-15.21-5.37-20.22-6.31-.03-.01-.05-.01-.08-.02-.4-.07-.77-.14-1.12-.21-1.21-.37-2.42-.56-3.649-.56 0 0-3.28.11-8 .73-4.011.52-9.051 1.4-14.011 2.88.391-.35 4.62-4.58 7.19-24.27 2.689-20.67 2.689-14.38 2.689-20.67 0-6.29 21.12 6.29 21.12 6.29s-1.349 4.04 2.251 17.97z" fill="#f6cc4b"/><path d="M632.75 335.68c8.42 7.94 14.98 72.09 14.98 150.03 0 67.271-4.881 124.26-11.631 143.72l-.35 3.181c-22.88-2.841-41.2-68.391-41.2-148.83.001-76.901 16.741-140.181 38.201-148.101z" fill="#f6cc4b"/><path d="M634.69 334.78c4.72-.62 8-.73 8-.73s1.39.16 3.649.56c21.98 6.79 39.94 74.16 39.94 152.13 0 76.25-16.44 139.109-37.65 147.89-3.79-.92-7.93-1.6-12.43-1.899v-.07c-.15-.01-.3-.03-.45-.05l.35-3.181c6.75-19.46 11.631-76.449 11.631-143.72 0-77.94-6.561-142.09-14.98-150.03.24-.08.48-.17.72-.24l-.06-.21c.43-.13.859-.26 1.29-.38l-.01-.07z" fill="#f6cc4b"/><path d="M655.67 634.96c41.42-18.27 71.75-77.11 71.75-146.86 0-54.79-18-104.439-45.729-132.25l.35-.35c47.89 12.15 84.2 70.87 84.2 141.48 0 73.05-46.26 134.8-96.601 143.989-.01.011-.01.011-.01 0-3.49-1.42-7.83-2.72-12.76-3.81-.57-.21-1.16-.42-1.76-.63l.56-1.569zM635.75 632.61c.15.02.3.04.45.05v.07c-.08-.011-.17-.011-.25-.021-3.4-.22-6.58-.28-9.55-.19-42.061-17.63-73-76.93-73-147.39 0-74.31 34.409-136.21 80.01-149.9l.06.21c-.239.07-.479.16-.72.24-21.46 7.92-38.2 71.2-38.2 148.1 0 80.441 18.32 145.991 41.2 148.831z" fill="#f6cc4b"/><path d="M648.63 634.63c21.21-8.78 37.65-71.64 37.65-147.89 0-77.97-17.96-145.34-39.94-152.13.351.07.72.14 1.12.21.03.01.05.01.08.02 12.43 3.49 23.95 10.77 34.15 21.01 27.729 27.81 45.729 77.459 45.729 132.25 0 69.75-30.33 128.591-71.75 146.86l-.56 1.57a69.906 69.906 0 0 0-6.479-1.9z" fill="#f6cc4b"/><path d="M667.76 341.15c3.63 1.74 7.021 3.89 9.63 6.51 10.78 10.78 66.5 18.86 98.851 77.28 26.7 48.22 24.26 113.22-8.101 156.35-32.34 43.13-61.09 54.82-77.27 63.8l-12.09 4.68c.09-.26.149-.52.17-.789.22-2.74-3.3-5.551-9.311-8.011 50.341-9.189 96.601-70.939 96.601-143.989 0-70.61-36.311-129.331-84.2-141.48l-.35.35c-10.2-10.24-21.721-17.52-34.15-21.01 5.01.939 13.08 2.859 20.22 6.309zM633.41 335.23c-45.601 13.69-80.01 75.59-80.01 149.9 0 70.46 30.939 129.76 73 147.39-7.141.2-13.04 1.181-17.82 2.48-2.22.37-4.22.82-5.97 1.34-49.761-9.91-88.021-69.859-88.021-142.33 0-64 29.83-118.22 71.061-136.87l-.41-.92c9.56-4.22 16.91-7.23 20.16-10.49 3.77-3.77 9.46-6.33 15.279-8.07 4.96-1.48 10-2.36 14.011-2.88l.01.07c-.43.12-.86.25-1.29.38z" fill="#f6cc4b"/><path d="M585.65 357.14c-41.23 18.65-71.061 72.87-71.061 136.87 0 72.471 38.26 132.42 88.021 142.33-3.801 1.12-6.391 2.59-7.36 4.33-2.27 1.44-3.33 2.5-3.33 2.5-16.18-8.979-44.93-20.66-77.28-63.79-32.35-43.14-34.79-108.13-8.09-156.36 22.59-40.78 56.57-57.03 78.69-66.8l.41.92z" fill="#f6cc4b"/><path d="M426.17 106.05c4.66 1.63 9.17 4.56 11.73 7 2.77 2.63 3 5.6 6.8 6.49 2.13.51 5.96-1.68 8.6-1.47 7.95.65 16.71 6.91 20.84 13.6 6.11 9.91 6.801 26.95 6.801 26.95s-23.41 14.71-36.971 44.14c-10.72 23.27-11.43 20.08-23.95 74.45-1.02 4.45-2.12 9.29-3.32 14.56-2.3 10.14-4.08 20.32-5.44 30.32-2.18 15.93-3.31 31.4-3.78 45.48-.05 1.36-.09 2.71-.12 4.05-.94 35.7 2.16 61.53 2.16 61.53s-5.23-.761-10.09-.66c-7.34.16-5.56-5.65-7.95-9.28-3.27-4.92-9.97-7.36-10.55-14.92-.34-4.39 2.45-8.75 3.43-13.06-7.54-4.37-13.97-5.44-16.44-14.47-1.43-5.2 1.74-15.31-2.85-18.69-2.2-1.63-11.2-.51-14.42-1.41-4.89-1.36-8.56-2.38-11-7.22-3.54-7.06 2.56-16.78-6.01-20.63-5.99-2.68-11.47.14-17.58-4.45-4.85-3.64-7.09-7.17-7.74-13.08-.51-4.79 3.05-11.6.89-15.83-2.04-4.03-7.64-3.97-10.83-6.97-8.3-7.81.65-17.78-2.24-26.73-1.8-5.55-6.3-8.96-7.75-14.97-1.23-5.08-1.21-10 .71-15.01 1.16-3.03 3.43-5.31 5.63-7.55 1.95-1.97 3.84-3.9 4.88-6.27 1.93-4.38-.61-8.41-1.19-12.96-1.42-11 4.13-15.36 8.63-24.32 2.72-5.44 1.37-3.53 1.12-9.34-.18-4.02-.22-7.93 1.73-11.89 4.76-9.66 15.17-15.59 25.62-15.33.62-8.26 3.98-14.76 11.58-18.55 4.41-2.2 9.44-3.19 14.34-3.59 3.69-.3 10.45 1.54 13.55-.86 2.65-2.04 3.35-9.71 6.59-12.67 2.29-2.1 6.27-3.41 9.23-3.7 5.02-.48 9.46 2.29 14.36 2.33 6.71.07 4.56-2.42 9.86-5.23 3.07-1.63 7.16-1.19 11.14.21z" fill="#6ebe44"/><path d="M669.64 640.97c6.011 2.46 9.53 5.271 9.311 8.011-.021.27-.08.529-.17.789l-.84.32s-7.23-7.729-21.07-12.93c4.93 1.09 9.27 2.39 12.76 3.81-.001.01-.001.01.009 0z" fill="#231f20"/><path d="M656.87 637.16c13.84 5.2 21.07 12.93 21.07 12.93l.84-.32c-1.311 3.641-9.431 6.2-20.971 7.07-2.29-2.359-5.68-6.71-5.68-11.859v-7.79l.18-.95c1.571.289 3.101.599 4.561.919z" fill="#231f20"/><path d="M654.66 657.04l-1.67.06c-5.23.17-10.99.03-17.03-.47-1.82-.149-3.61-.33-5.36-.54.601-7.08 4.66-15.229 6.851-19.5l.18-2.26c.061.01.13.01.19.02 5.109.431 10 1.07 14.489 1.891l-.18.95v7.79c0 5.149 3.39 9.5 5.68 11.859-1.02.09-2.07.15-3.15.2z" fill="#231f20"/><path d="M637.63 634.33l-.18 2.26c-2.19 4.271-6.25 12.42-6.851 19.5-7.46-.87-14.26-2.21-19.88-3.83 3.19-7.359 8.761-14.24 14.351-18.45 3.98 0 8.2.17 12.56.52z" fill="#231f20"/><path d="M603.7 636.55c1.47-.54 3.1-1.06 4.88-1.55 4.66-.76 10.29-1.19 16.49-1.19-5.59 4.21-11.16 11.091-14.351 18.45-9.93-2.88-16.189-6.63-15.89-10.26.04-.46.18-.9.42-1.33 1.921-1.23 4.701-2.73 8.451-4.12z" fill="#231f20"/><path d="M608.58 635c-1.78.49-3.41 1.01-4.88 1.55-.37-.06-.73-.13-1.09-.21 1.75-.52 3.75-.97 5.97-1.34z" fill="#231f20"/><path d="M602.61 636.34c.359.08.72.15 1.09.21-3.75 1.391-6.53 2.891-8.45 4.12.97-1.74 3.56-3.21 7.36-4.33z" fill="#231f20"/><g fill="none" stroke="#231f20" stroke-width="14"><path d="M587.52 201.33s-.279.14-.8.42c-4.37 2.32-25.819 13.87-44.17 26.98-6.85 4.9-13.27 10.01-18.2 14.95-19.729 19.73-37.3 59.58-43.77 91.15-2.12 10.36-6.09 23.11-10.96 36.41-.48 1.34-.98 2.69-1.49 4.04-9.8 26.07-22.62 53.51-31.33 68.64-13.64 23.69-27.99 38.04-27.99 38.04l-11.24 4.3L360 500.62s-6.1-39.83-30.15-63.88c-24.04-24.04-40.84-61-49.52-77.51-11.12-21.18-13.51-25.23-13.51-25.23"/><path d="M468.13 375.28c23.21-11.32 16.33-21.34 26.811-22.51 8.06-.9 11.529-6.13 13.609-15.11 1.53-6.6-2.58-11.47 5.2-16.29 8.04-4.98 12.73-3.94 15.63-13.82 1.22-4.14-.29-4.9 2.87-8.61 2.36-2.76 6.79-4.5 9.83-6.48 8.06-5.27 10.58-10.29 5.76-19.38-5.229-9.93-2.729-8.81 2.33-18.08 3.99-7.29 4.59-19.08-2.88-24.26-.6-.42-1.69-1.18-2.12-1.42M420.02 277.21c12.52-54.37 13.23-51.18 23.95-74.45 13.561-29.43 36.971-44.14 36.971-44.14s-.69-17.04-6.801-26.95c-4.13-6.69-12.89-12.95-20.84-13.6-2.64-.21-6.47 1.98-8.6 1.47-3.8-.89-4.03-3.86-6.8-6.49-2.561-2.44-7.07-5.37-11.73-7-3.98-1.4-8.07-1.84-11.14-.21-5.3 2.81-3.15 5.3-9.86 5.23-4.9-.04-9.34-2.81-14.36-2.33-2.96.29-6.94 1.6-9.23 3.7-3.24 2.96-3.94 10.63-6.59 12.67-3.1 2.4-9.86.56-13.55.86-4.9.4-9.93 1.39-14.34 3.59-7.6 3.79-10.96 10.29-11.58 18.55-10.45-.26-20.86 5.67-25.62 15.33-1.95 3.96-1.91 7.87-1.73 11.89.25 5.81 1.6 3.9-1.12 9.34-4.5 8.96-10.05 13.32-8.63 24.32.58 4.55 3.12 8.58 1.19 12.96-1.04 2.37-2.93 4.3-4.88 6.27-2.2 2.24-4.47 4.52-5.63 7.55-1.92 5.01-1.94 9.93-.71 15.01 1.45 6.01 5.95 9.42 7.75 14.97 2.89 8.95-6.06 18.92 2.24 26.73 3.19 3 8.79 2.94 10.83 6.97 2.16 4.23-1.4 11.04-.89 15.83.65 5.91 2.89 9.44 7.74 13.08 6.11 4.59 11.59 1.77 17.58 4.45 8.57 3.85 2.47 13.57 6.01 20.63 2.44 4.84 6.11 5.86 11 7.22 3.22.9 12.22-.22 14.42 1.41 4.59 3.38 1.42 13.49 2.85 18.69 2.47 9.03 8.9 10.1 16.44 14.47-.98 4.31-3.77 8.67-3.43 13.06.58 7.56 7.28 10 10.55 14.92 2.39 3.63.61 9.44 7.95 9.28 4.86-.101 10.09.66 10.09.66s-3.1-25.831-2.16-61.53c.03-1.34.07-2.69.12-4.05.47-14.08 1.6-29.55 3.78-45.48 1.36-10 3.14-20.18 5.44-30.32 1.2-5.27 2.3-10.11 3.32-14.56z"/><path d="M583.21 202.76c1.18-.37 2.3-.84 3.32-1.39 5.2-2.8 7.989-7.77 4.72-13.68-4.15-7.56-9.65-4.21-15.21-7.27-6.49-3.56-6.87-14-13.64-18.04-6.721-4.02-11.511-1.52-16.471 3.41-5.899-5.97-6.609-10.65-16.14-10.95-7.54-.24-12.53 2.32-14.89 9.77-5.11.3-9.561.76-13.521 2.5-3.37 1.47-6.38 3.86-9.13 7.83-2.13 3.06-1.12 5.9-4.28 8.34-3.54 2.72-10.16 1.48-14.1 4.38-7.82 5.75-5.64 13.58-7.08 21.26-1.46 7.72-8.65 8.79-12.06 15.48-3.921 7.71 2.8 13.76 1.699 19.96-1.66 9.33-13 13.92-13.21 25.17-.08 4.46 1.59 6.04 3 9.27.21.48.42.99.61 1.56 1.43 4.25.47 4.1-.16 9.82-.92 8.43.63 13.48 7.36 15.95-1.931 4.37-3.44 7.56-3.391 10.88.061 4.19 2.58 8.6 9.82 15.84-9.74 8.4-12.36 39.51 7.3 37.88.36.05.36 0 .221-.09-.261-.16-.95-.45-1.04-.65M501.38 167.11l35.22-59.84M397.57 486.26c-1.5-5.609-30.51-69.3-34.65-73.75-4.76-5.14-10.93-.75-14.6-4.55-3.49-3.63-1.64-13.17-4.99-17.86-4.47-6.25-9.65-8.89-16.92-5.86-2.16-4.6 2.1-9.56.43-14.97-2.33-7.51-9.54-8.61-16.24-5.29-1.92-4.22.41-7.52-2.26-11.98-2.9-4.86-9.97-6.34-12.07-10.66-1.48-3.03 1.52-4.59-1.71-8-1.93-2.03-8.68-3.37-11.38-3.71-7.15-.92-10.04 5.34-16.36 4.37-6.26-15.5-25.71-1.33-35.27-9.18-4.04-3.31-2.94-5.67-5.07-9.4-2.23-3.91-1.78-2.37-6.5-5.15-7.27-4.31-13.44-11.2-13.58-19.94-.05-3.35 1.36-5.92.79-8.95-.95-5.04-4.8-8.54-5.11-14.19-.16-2.9.29-5.57 1.01-8.14 1.31-4.65 3.53-8.97 4.75-13.73 2.62-10.22-.27-30.34-13.56-31.81-.69-.09-1.42-.12-2.17-.09 4.53-8.74 11.3-18.17 1.94-27.02-6.5-6.13-12.73-4.7-19.92-.56-4.65 2.68-2.53 2.96-8.04 3.46-1.5.14-2.79.09-3.98.01-3.41-.23-5.95-.78-10.09 1.76-3.47 2.12-8.24 7.12-9.58 11.02-1.21 3.51.75 8.21-.69 11.43-1.42 3.17-6.52 6.4-8.52 10.07-1.72 3.17-6.29 8.91-4.93 12.93 2.1 6.21 14.39 5.66 20.15 6.94 10.84 2.42 21.25 6.91 32.08 9.39 6.21 1.42 18.34 2.49 22.56 6.2.16.13.31.28.44.42M165.49 180.52c-1.32 2.69-3.1 2.83-2.84 5.56a42.4 42.4 0 0 1-.27-1.56c-1.46-9.67 1.4-17.84 11.59-21.85 10.86-4.29 18.71 2.56 25.28 9.78 2.77-3.2 4.13-9.25 7.17-11.99 2.44-2.2 6.38-1.92 9.35-3.52 3.24-1.76 4.18.79 4.17-3.84-.01-2.74-5.43-7.95-7.03-9.88-4.73-5.73-11.89-9.95-12.26-17.99-.26-5.51 2.05-11.05 8.51-10.85 1.29-8.44-6-17.36-1.87-25.75 5.08-10.33 16.9-2.14 22.62 3.44 4.02-8.38 11.12-10.09 19.63-8.44 5.13.99 10.03 4.11 11.47-3.38 1.54-8.01-7.83-12.62 5.06-16.62 7.39-2.29 16.5-.92 21.24 5.33 3.51-7.77 11.71-13.37 20.35-8.16 1.89 1.15 3.55 6.52 5.78 6.91 4.82.87 7.78-6.94 11.38-9.22 9.15-5.81 14.04 2.6 20.74 2.43 4.95-.12 9.53-5.42 15.85-4.64 6.91.86 9.26 5.57 12.91 10.71 8.01-8.04 25.14-10.05 27.38 4.34 7.35-1.26 9.54 2.86 16.31 7.16 1.91 1.22 4.05 4.11 5.83 7.67 3.271 6.53 5.29 15.27 2.33 19.89v.01M424.24 85.96c6.46-9.16 15.05-15.19 26.64-10.79 2.11.79 4.29 3.33 6.64 3.41 3.33.11 3.601-2.2 6.41-3.84 5.17-3.02 15.12-3.51 20.36-.15 4.33 2.78 4.28 10.8 8.77 11.94 7.2 1.82 11.551-7.28 18.96-.58 5.311 4.82 2.801 6.24 11.4 5.39 11.45-1.13 16.91 6.76 13.18 15.93-.5 1.24-1.17 2.5-2.02 3.77.4-.45.75-.92 1.08-1.4"/><path d="M192.05 215.69c.71-.74 1.46-1.47 2.23-2.18 9.27-8.59 22.75-14.88 33.85-5.7 2.3 1.9 3.59 7.03 6.08 8.07 4.94 2.08 7.67-5.1 12.41-5.99 10.32-1.93 11.84 11.57 20.62 8.54 3.72-1.29 5.78-3.32 8-4.41 2.33-1.14 4.82-1.25 9.57 1.63 4.12 2.49 6.41 6.39 7 9.36M379.17 192.08s18.67 17.65 29.43 45.22c7.07 18.16 10.93 37.38 11.42 39.91.04.18.06.28.06.28M358.09 248.19s20.71 15.21 34.78 41.24c9.94 18.4 16.36 38.47 16.36 38.47M340.88 306.61s23.55 10.29 42.99 32.6c11.36 13.03 20.63 27.72 23.49 32.41.6.99.92 1.53.92 1.53M450.64 317.01c-6.38 4.83-13.319 10.93-19.81 18.38-11.19 12.82-20.33 27.25-23.35 32.18-.69 1.13-1.06 1.76-1.06 1.76M446.18 278.82c-4.109 3.59-8.29 7.67-12.3 12.28-10.39 11.92-19.03 25.22-22.62 30.99-1.16 1.86-1.79 2.94-1.79 2.94"/><path d="M219.94 153.1s17.91 13.74 41.39 41.39c7.88 9.28 11.96 15.44 13.91 19.53 0 .01.01.01.01.02M608.58 635c4.78-1.3 10.68-2.28 17.82-2.48 2.97-.09 6.149-.029 9.55.19.08.01.17.01.25.021 4.5.3 8.64.979 12.43 1.899 2.29.55 4.45 1.2 6.48 1.9.6.21 1.189.42 1.76.63M647.46 334.82c-.4-.07-.77-.14-1.12-.21-2.26-.4-3.649-.56-3.649-.56s-3.28.11-8 .73c-4.011.52-9.051 1.4-14.011 2.88-5.819 1.74-11.51 4.3-15.279 8.07-3.25 3.26-10.601 6.27-20.16 10.49-22.12 9.77-56.101 26.02-78.69 66.8-26.7 48.23-24.26 113.22 8.09 156.36 32.351 43.13 61.101 54.811 77.28 63.79 0 0 1.061-1.06 3.33-2.5M678.78 649.77l12.09-4.68c16.18-8.979 44.93-20.67 77.27-63.8 32.36-43.13 34.801-108.13 8.101-156.35-32.351-58.42-88.07-66.5-98.851-77.28-2.609-2.62-6-4.77-9.63-6.51-7.14-3.45-15.21-5.37-20.22-6.31"/><path d="M602.61 636.34c-49.761-9.91-88.021-69.859-88.021-142.33 0-64 29.83-118.22 71.061-136.87a79.706 79.706 0 0 1 13.14-4.61"/><path d="M626.4 632.52c-42.061-17.63-73-76.93-73-147.39 0-74.31 34.409-136.21 80.01-149.9.43-.13.859-.26 1.29-.38"/><path d="M637.3 632.71c-.37 0-.74-.02-1.1-.05-.15-.01-.3-.03-.45-.05-22.88-2.841-41.2-68.391-41.2-148.83 0-76.9 16.74-140.18 38.2-148.1.24-.08.48-.17.72-.24 1.261-.39 2.54-.59 3.83-.59M669.64 640.97c50.341-9.189 96.601-70.939 96.601-143.989 0-70.61-36.311-129.331-84.2-141.48"/><path d="M655.67 634.96c41.42-18.27 71.75-77.11 71.75-146.86 0-54.79-18-104.439-45.729-132.25-10.2-10.24-21.721-17.52-34.15-21.01-.03-.01-.05-.01-.08-.02"/><path d="M648.6 634.64c.011 0 .021-.01.03-.01 21.21-8.78 37.65-71.64 37.65-147.89 0-77.97-17.96-145.34-39.94-152.13-1.21-.37-2.42-.56-3.649-.56"/><path d="M636.1 629.43c6.75-19.46 11.631-76.449 11.631-143.72 0-77.94-6.561-142.09-14.98-150.03"/><path d="M652.99 657.1c-5.23.17-10.99.03-17.03-.47-1.82-.149-3.61-.33-5.36-.54-7.46-.87-14.26-2.21-19.88-3.83-9.93-2.88-16.189-6.63-15.89-10.26.04-.46.18-.9.42-1.33.97-1.74 3.56-3.21 7.36-4.33 1.75-.52 3.75-.97 5.97-1.34 4.66-.76 10.29-1.19 16.49-1.19 3.979 0 8.199.171 12.56.521.061.01.13.01.19.02 5.109.431 10 1.07 14.489 1.891 1.57.29 3.101.6 4.561.92 4.93 1.09 9.27 2.39 12.76 3.81 0 .011 0 .011.01 0 6.011 2.46 9.53 5.271 9.311 8.011-.021.27-.08.529-.17.789-1.311 3.641-9.431 6.2-20.971 7.07-1.02.09-2.069.15-3.149.2" stroke-linecap="round" stroke-linejoin="round"/><path d="M620.65 337.69l.029-.03c.391-.35 4.62-4.58 7.19-24.27 2.689-20.67 2.689-14.38 2.689-20.67 0-6.29 21.12 6.29 21.12 6.29s-1.35 4.04 2.25 17.97c3.59 13.92 8.13 18.47 13.83 24.17l.01.01M626.67 632.68c-.53.351-1.06.73-1.6 1.13-5.59 4.21-11.16 11.091-14.351 18.45-2.859 6.57-3.81 13.51-1.18 19.25 2.74 5.96 12.25 9.07 9.36 17.05-2.49 6.9-10.851 8.931-12.17 16.631-1.181 6.8 1.939 13.47 7.21 17.51M637.45 636.59c-2.19 4.271-6.25 12.42-6.851 19.5-.319 3.75.341 7.2 2.75 9.61 4.641 4.64 12.25 9.08 9.36 17.06-2.49 6.891-10.85 8.931-12.18 16.63-1.181 6.79 1.939 13.46 7.21 17.511M662.39 707.96c-5.26-4.04-8.37-10.72-7.199-17.51 1.329-7.7 9.68-9.73 12.18-16.63 2.5-6.91-3.17-10.88-7.49-15.08 0 0-.89-.69-2.07-1.9-2.29-2.359-5.68-6.71-5.68-11.859v-7.79M263.17 503.69c.7.18 1.4.359 2.1.56 68.32 18.35 117.91 73.39 117.91 138.44 0 80.069-75.15 144.979-167.84 144.979-92.71 0-167.85-64.91-167.85-144.979 0-53.11 33.06-99.54 82.37-124.801h.01M204.71 498a194.895 194.895 0 0 1 37.52 1.57M137.76 514.09c10.12-4.56 31.7-13.25 49.71-15.97"/><path d="M215.74 527.93c6.67-12.91 15.91-21.96 26.49-28.359 15.26-9.25 33.31-13 50.44-14.931-8.84 7.181-18.65 12.83-27.4 19.61-6.78 5.24-12.93 11.15-17.47 18.96-3.96 6.82-9.74 18.58-17.83 22.84-3.27 1.71-6.91 2.21-10.96.67M230.26 546.59c34.23 9.36 49.12 38.55 58.35 66.24-15.74-12.71-27.41-29.42-47.06-35.86-8.74-2.859-24.51-6.729-28.32-16.479-.59-1.521-.89-3.17-.83-4.99.02-.59.07-1.19.17-1.81M201.15 552.2l-.79.06c-.86.07-1.71.12-2.55.15-29.65 1.27-51.15-15.4-67.95-34.521a223.14 223.14 0 0 1-6.38-7.63c4.65 1.57 9.15 3.44 13.61 5.37 13.9 6.021 27.3 12.55 42.95 11.97 3.61-.119 8.28-.489 13.05-.409"/><path d="M197.81 552.42c-34.26 15.41-42.6 50.53-54.08 83.1 9.96-3.85 16.15-11.329 22.55-18.909 6.58-7.811 9.99-18.391 18.45-23.971 7.52-4.97 27.73-19.55 28.5-32.149.11-1.71-.14-3.391-.83-4.99-.21-.49-.45-.96-.74-1.43"/><path d="M200.36 552.26c-1.52-1.029-2.75-2.609-3.38-4.99 0 0 .21-9.069-.79-19.51-.8-8.37-2.37-17.62-5.44-23.79-.83-1.66-1.95-3.649-3.28-5.85-9.74-16.13-30.73-43.98-30.73-43.98l15.51-10.229s22.01 34.07 32.46 54.09c2.01 3.87 3.6 7.22 4.52 9.69 2.21 5.97 4.43 13.3 5.96 20.34 1.5 6.96 2.33 13.64 1.76 18.46-.31 2.779-1.09 4.939-2.46 6.18 0 0-.78.28-2.03.57-2.92.709-8.39 1.509-12.1-.981z"/></g><path fill="none" d="M0 0h850.394v850.394H0z"/></svg>