<?xml version="1.0" encoding="iso-8859-1"?>
<!-- Generator: Adobe Illustrator 12.0.1, SVG Export Plug-In . SVG Version: 6.00 Build 51448)  -->
<!DOCTYPE svg PUBLIC "-//W3C//DTD SVG 1.1//EN" "http://www.w3.org/Graphics/SVG/1.1/DTD/svg11.dtd" [
	<!ENTITY ns_svg "http://www.w3.org/2000/svg">
	<!ENTITY ns_xlink "http://www.w3.org/1999/xlink">
]>
<svg  version="1.1" id="Layer_1" xmlns="&ns_svg;" xmlns:xlink="&ns_xlink;" width="850.394" height="850.394"
	 viewBox="0 0 850.394 850.394" style="overflow:visible;enable-background:new 0 0 850.394 850.394;" xml:space="preserve">
<g>
	<g>
		<g id="XMLID_11_">
			<g>
				<path style="fill:#F6CC4B;" d="M524.58,392.92c-1.82,0.24-4.12,0.64-6.38,1.31c0.12-0.1,2.09-1.93,3.28-11.05
					c1.229-9.41,1.229-6.55,1.229-9.41s9.62,2.86,9.62,2.86s-0.61,1.84,1.02,8.18c1.631,6.33,3.69,8.4,6.271,10.99
					c-3.24-1.56-6.9-2.42-9.17-2.85c-0.021,0-0.03-0.01-0.05-0.01c-0.19-0.04-0.36-0.07-0.53-0.1c-0.54-0.17-1.08-0.25-1.63-0.25
					C528.24,392.59,526.74,392.64,524.58,392.92z"/>
				<path style="fill:#F6CC4B;" d="M525.28,528.55v0.03c-0.04,0-0.08-0.01-0.12-0.01c-1.55-0.101-3-0.12-4.351-0.08h-0.01
					c-19.13-8.04-33.22-35.04-33.22-67.12c0-33.69,15.54-61.79,36.18-68.16l0.03,0.1c-0.03,0.01-0.05,0.02-0.08,0.03
					c-9.78,3.6-17.41,32.41-17.41,67.43c0,36.561,8.33,66.37,18.73,67.74C525.11,528.53,525.19,528.54,525.28,528.55z"/>
				<path style="fill:#F6CC4B;" d="M502.26,403.11c-18.77,8.49-32.35,33.17-32.35,62.31c0,33.01,17.42,60.311,40.09,64.8
					c-1.73,0.511-2.91,1.181-3.35,1.96c-0.011,0.011,0,0.011,0,0.011c-1.051,0.659-1.54,1.149-1.54,1.149
					c-7.351-4.09-20.45-9.42-35.181-29.05c-14.72-19.64-15.84-49.24-3.68-71.2c10.28-18.55,25.75-25.96,35.82-30.4L502.26,403.11z"
					/>
				<path style="fill:#F6CC4B;" d="M502.07,402.69c4.359-1.93,7.71-3.3,9.189-4.78c1.721-1.71,4.3-2.88,6.931-3.67
					c0,0,0,0,0.01-0.01c2.26-0.67,4.56-1.07,6.38-1.31l0.01,0.04c-0.28,0.08-0.56,0.16-0.83,0.25
					c-20.64,6.37-36.18,34.47-36.18,68.16c0,32.08,14.09,59.08,33.22,67.12c-3.2,0.09-5.85,0.529-8.02,1.109
					c-0.011,0.011-0.021,0.011-0.03,0.011c-1.02,0.17-1.95,0.37-2.75,0.609c-22.67-4.489-40.09-31.79-40.09-64.8
					c0-29.14,13.58-53.82,32.35-62.31L502.07,402.69z"/>
				<path style="fill:#F6CC4B;" d="M530.4,392.94c0.02,0,0.029,0.01,0.05,0.01c5.649,1.59,10.89,4.9,15.54,9.56
					c12.63,12.66,20.83,35.28,20.83,60.221c0,31.76-13.811,58.55-32.681,66.869l-0.239,0.721c-0.92-0.32-1.9-0.61-2.95-0.87
					c9.64-3.99,17.13-32.61,17.13-67.34c0-35.53-8.2-66.23-18.21-69.271C530.04,392.87,530.21,392.9,530.4,392.94z"/>
				<path style="fill:#F6CC4B;" d="M534.14,529.6c18.87-8.319,32.681-35.109,32.681-66.869c0-24.94-8.2-47.561-20.83-60.221
					l0.16-0.16c21.8,5.54,38.35,32.27,38.35,64.43c0,33.26-21.08,61.38-44.01,65.56c-1.58-0.649-3.55-1.24-5.79-1.729
					c-0.26-0.101-0.521-0.2-0.8-0.29L534.14,529.6z"/>
				<path style="fill:#F6CC4B;" d="M544.04,398.78c4.9,4.91,30.28,8.59,45,35.19c12.16,21.95,11.04,51.55-3.69,71.19
					c-14.72,19.64-27.81,24.96-35.18,29.05l-5.51,2.13c0.04-0.12,0.07-0.24,0.08-0.359c0.1-1.25-1.5-2.53-4.25-3.641
					c22.93-4.18,44.01-32.3,44.01-65.56c0-32.16-16.55-58.89-38.35-64.43l-0.16,0.16c-4.65-4.66-9.891-7.97-15.54-9.56
					c2.27,0.43,5.93,1.29,9.17,2.85C541.28,396.6,542.84,397.58,544.04,398.78z"/>
				<path style="fill:#F6CC4B;" d="M523.71,393.34c3.83,3.6,6.82,32.811,6.82,68.311c0,30.619-2.23,56.58-5.3,65.43l-0.2,1.43
					c-10.4-1.37-18.73-31.18-18.73-67.74C506.3,425.75,513.93,396.94,523.71,393.34z"/>
				<path style="fill:#F6CC4B;" d="M525.23,527.08c3.069-8.85,5.3-34.811,5.3-65.43c0-35.5-2.99-64.71-6.82-68.311
					c0.03-0.01,0.05-0.02,0.08-0.03l-0.03-0.1c0.271-0.09,0.55-0.17,0.83-0.25l-0.01-0.04c2.16-0.28,3.66-0.33,3.66-0.33
					s0.62,0.07,1.63,0.25c10.01,3.04,18.21,33.74,18.21,69.271c0,34.729-7.49,63.35-17.13,67.34c-1.72-0.42-3.62-0.73-5.67-0.87
					v-0.03c-0.09-0.01-0.17-0.02-0.25-0.04L525.23,527.08z"/>
				<path style="fill:#33A048;" d="M356.38,470.08c-3.09,2.39-5.88,5.09-7.94,8.64c-1.81,3.11-4.44,8.46-8.13,10.391
					c-1.49,0.79-3.15,1.01-4.99,0.31l-0.93-0.13c0.25-2.19-0.12-5.22-0.81-8.37l0.25-0.06c3.04-5.88,7.25-9.99,12.06-12.91
					c6.95-4.21,15.17-5.92,22.97-6.79C364.84,464.43,360.36,467,356.38,470.08z"/>
				<path style="fill:#33A048;" d="M335.32,489.42c1.84,0.7,3.5,0.48,4.99-0.31l0.14,0.26c15.58,4.25,22.36,17.54,26.56,30.149
					c-7.16-5.779-12.48-13.399-21.43-16.329c-3.97-1.29-11.15-3.061-12.89-7.49c0.05-0.78-0.06-1.54-0.37-2.271
					c0-0.27,0.03-0.55,0.07-0.83l-0.05-0.21c0.57-0.13,0.93-0.26,0.93-0.26c0.63-0.57,0.98-1.56,1.12-2.84L335.32,489.42z"/>
				<path style="fill:#33A048;" d="M332.32,493.43c-0.04,0.83,0.1,1.58,0.37,2.271c-0.36,5.729-9.56,12.37-12.98,14.62
					c-3.85,2.55-5.4,7.37-8.4,10.93c-2.91,3.44-5.73,6.85-10.27,8.6c5.23-14.819,9.03-30.8,24.61-37.83
					c0.39-0.02,0.79-0.039,1.19-0.079c1.69,1.13,4.17,0.77,5.5,0.449l0.05,0.21C332.35,492.88,332.32,493.16,332.32,493.43z"/>
				<path style="fill:#33A048;" d="M294.73,476.3c-1.01-1.14-1.98-2.31-2.91-3.47c2.12,0.71,4.17,1.57,6.2,2.439
					c6.33,2.74,12.43,5.721,19.56,5.45c1.64-0.06,3.77-0.229,5.94-0.189l1.37-0.141c0.5,4.91,0.4,9.271,0.4,9.271
					c0.29,1.09,0.85,1.81,1.55,2.28c-0.4,0.04-0.8,0.06-1.19,0.079C312.16,492.58,302.38,485,294.73,476.3z"/>
				<path style="fill:#33A048;" d="M320.95,467.29c-4.43-7.35-13.98-20.021-13.98-20.021l7.06-4.67c0,0,10.03,15.521,14.78,24.641
					c0.92,1.76,1.64,3.279,2.06,4.41c1.01,2.72,2.02,6.06,2.71,9.27c0.69,3.15,1.06,6.18,0.81,8.37c-0.14,1.28-0.49,2.27-1.12,2.84
					c0,0-0.36,0.13-0.93,0.26c-1.33,0.32-3.81,0.681-5.5-0.449c-0.7-0.471-1.26-1.19-1.55-2.28c0,0,0.1-4.36-0.4-9.271
					c-0.37-3.699-1.09-7.72-2.44-10.43C322.07,469.2,321.56,468.3,320.95,467.29z"/>
				<path style="fill:#ED1D31;" d="M333.65,467.11c4.17,0,8.25,0.29,12.24,0.84c-4.81,2.92-9.02,7.03-12.06,12.91l-0.25,0.06
					c-0.69-3.21-1.7-6.55-2.71-9.27c-0.42-1.131-1.14-2.65-2.06-4.41C330.41,467.16,332.03,467.11,333.65,467.11z"/>
				<path style="fill:#ED1D31;" d="M322.45,469.96c1.35,2.71,2.07,6.73,2.44,10.43l-1.37,0.141c-2.17-0.04-4.3,0.13-5.94,0.189
					c-7.13,0.271-13.23-2.71-19.56-5.45l0.31-0.71c4.6-2.069,14.42-6.029,22.62-7.27C321.56,468.3,322.07,469.2,322.45,469.96z"/>
				<path style="fill:#ED1D31;" d="M356.38,470.08c31.1,8.35,53.69,33.41,53.69,63.04c0,36.45-34.21,66.01-76.42,66.01
					s-76.42-29.56-76.42-66.01c0-24.19,15.05-45.32,37.5-56.82c7.65,8.7,17.43,16.28,30.92,15.72
					c-15.58,7.03-19.38,23.011-24.61,37.83c4.54-1.75,7.36-5.159,10.27-8.6c3-3.56,4.55-8.38,8.4-10.93
					c3.42-2.25,12.62-8.891,12.98-14.62c1.74,4.43,8.92,6.2,12.89,7.49c8.95,2.93,14.27,10.55,21.43,16.329
					c-4.2-12.609-10.98-25.899-26.56-30.149l-0.14-0.26c3.69-1.931,6.32-7.28,8.13-10.391C350.5,475.17,353.29,472.47,356.38,470.08
					z"/>
				<path style="fill:#6EBE44;" d="M431.77,393.2c-5.09,5.83-9.25,12.38-10.629,14.64c0.22-6.41,0.73-13.44,1.72-20.69
					c1.63-2.62,5.56-8.68,10.3-14.12c1.82-2.1,3.72-3.95,5.59-5.59l0.03-0.01c0.09,0.22,0.18,0.45,0.27,0.71
					c0.65,1.94,0.22,1.87-0.06,4.47c-0.42,3.84,0.279,6.14,3.34,7.26c-0.88,1.99-1.561,3.44-1.54,4.96
					C437.88,387.03,434.72,389.81,431.77,393.2z"/>
				<path style="fill:#6EBE44;" d="M454.42,392.95c-0.97,4.72-2.78,10.54-5,16.6l-0.7-0.26c0,0.01-0.04,0.01-0.14,0
					c-8.95,0.74-7.75-13.42-3.33-17.25c-3.3-3.31-4.44-5.31-4.46-7.21c-0.021-1.52,0.66-2.97,1.54-4.96
					c-3.061-1.12-3.76-3.42-3.34-7.26c0.279-2.6,0.71-2.53,0.06-4.47c-0.09-0.26-0.18-0.49-0.27-0.71
					c-0.641-1.47-1.4-2.19-1.37-4.22c0.1-5.12,5.26-7.22,6.01-11.47c0.51-2.82-2.56-5.57-0.77-9.08c1.56-3.04,4.83-3.53,5.479-7.05
					c0.67-3.49-0.32-7.06,3.24-9.67c1.79-1.32,4.8-0.76,6.42-2c1.44-1.11,0.979-2.4,1.94-3.8c1.26-1.81,2.63-2.9,4.159-3.56
					c1.801-0.79,3.83-1,6.16-1.14c1.08-3.39,3.351-4.56,6.78-4.45c4.34,0.14,4.67,2.27,7.34,4.99c2.26-2.25,4.45-3.39,7.51-1.55
					c3.08,1.83,3.25,6.59,6.2,8.21c2.54,1.39,5.04-0.13,6.94,3.31c1.529,2.77,0.14,5.07-2.36,6.33l0.09,0.17
					c-2.37,1.27-11.8,6.39-19.91,12.18c-3.12,2.23-6.04,4.56-8.29,6.81C465.38,360.42,457.37,378.57,454.42,392.95z"/>
				<path style="fill:#6EBE44;" d="M335.74,310.2c0,0,8.16,6.25,18.85,18.84c3.58,4.23,5.44,7.03,6.33,8.9
					c-1.01,0.5-1.95,1.42-3.64,2.01c-4,1.38-4.68-4.77-9.39-3.89c-2.15,0.4-3.4,3.68-5.65,2.72c-1.13-0.47-1.72-2.81-2.77-3.68
					c-5.05-4.17-11.18-1.31-15.4,2.6c-0.31-0.04-0.65-0.05-0.99-0.04c2.06-3.98,5.14-8.27,0.88-12.29c-2.96-2.8-5.8-2.15-9.07-0.26
					c-2.12,1.22-1.16,1.35-3.67,1.57c-0.69,0.06-1.29,0.04-1.83,0l0.14-2.18c-0.66-4.4,0.65-8.12,5.28-9.94
					c4.95-1.96,8.53,1.17,11.52,4.45c1.25-1.45,1.87-4.21,3.26-5.46c1.11-1.01,2.91-0.88,4.26-1.6
					C335.32,311.14,335.75,312.31,335.74,310.2z"/>
				<path style="fill:#6EBE44;" d="M421.08,409.69c-0.42,16.26,0.99,28.02,0.99,28.02s-2.39-0.35-4.6-0.3
					c-3.34,0.07-2.53-2.57-3.62-4.22c-1.49-2.25-4.54-3.351-4.8-6.801c-0.16-2,1.11-3.979,1.56-5.95c-3.43-1.98-6.36-2.47-7.49-6.59
					c-0.64-2.36,0.8-6.96-1.29-8.51c-1-0.74-5.1-0.23-6.57-0.63c-2.23-0.62-3.9-1.09-5.01-3.29c-1.61-3.22,1.17-7.64-2.73-9.39
					c-2.74-1.23-5.23,0.06-8-2.03c-2.21-1.65-3.24-3.27-3.53-5.96c-0.24-2.18,1.38-5.28,0.4-7.21c-0.93-1.83-3.48-1.8-4.93-3.17
					c-3.78-3.56,0.3-8.1-1.02-12.17c-0.82-2.52-2.86-4.08-3.53-6.82c-0.56-2.31-0.55-4.55,0.33-6.83c0.56-1.46,1.68-2.54,2.74-3.61
					c0.82-0.84,1.6-1.67,2.04-2.68c0.88-2-0.27-3.83-0.54-5.9c-0.65-5.01,1.88-7,3.93-11.08c1.24-2.48,0.62-1.61,0.51-4.25
					c-0.08-1.83-0.1-3.61,0.79-5.42c2.17-4.39,6.9-7.09,11.66-6.97c0.29-3.76,1.82-6.72,5.28-8.45c2.01-1,4.29-1.46,6.52-1.63
					c1.69-0.14,4.76,0.7,6.17-0.39c1.21-0.94,1.53-4.43,3-5.78c1.05-0.95,2.86-1.55,4.21-1.68c2.28-0.22,4.3,1.04,6.54,1.06
					c3.05,0.03,2.07-1.1,4.49-2.38c1.4-0.74,3.27-0.54,5.08,0.09c2.12,0.74,4.17,2.08,5.33,3.19c1.26,1.2,1.37,2.55,3.09,2.96
					c0.97,0.23,2.71-0.77,3.92-0.67c3.62,0.29,7.6,3.14,9.49,6.19c2.79,4.51,3.09,12.27,3.09,12.27s-10.65,6.7-16.83,20.1
					c-4.88,10.6-5.21,9.14-10.9,33.89c-0.46,2.03-0.97,4.24-1.51,6.64c-1.05,4.62-1.86,9.25-2.48,13.81
					c-0.99,7.25-1.5,14.28-1.72,20.69C421.11,408.46,421.1,409.08,421.08,409.69z"/>
				<path style="fill:#6EBE44;" d="M372.02,341.55c-0.44,1.01-1.22,1.84-2.04,2.68l-1.51-1.29c-0.27-1.35-1.31-3.13-3.19-4.27
					c-2.16-1.31-3.3-1.26-4.36-0.73c-0.89-1.87-2.75-4.67-6.33-8.9c-10.69-12.59-18.85-18.84-18.85-18.84c0-1.24-2.46-3.62-3.2-4.5
					c-2.15-2.61-5.41-4.53-5.58-8.19c-0.12-2.51,0.94-5.03,3.88-4.94c0.59-3.85-2.73-7.9-0.85-11.72c2.31-4.71,7.69-0.98,10.29,1.56
					c1.84-3.82,5.07-4.59,8.95-3.85c2.33,0.46,4.56,1.88,5.21-1.53c0.71-3.65-3.56-5.75,2.31-7.57c3.36-1.04,7.51-0.42,9.67,2.43
					c1.6-3.54,5.33-6.09,9.27-3.71c0.86,0.51,1.62,2.96,2.63,3.14c2.19,0.39,3.54-3.16,5.18-4.2c4.17-2.65,6.39,1.19,9.44,1.11
					c2.26-0.06,4.35-2.47,7.22-2.12c3.15,0.4,4.22,2.54,5.88,4.88c3.65-3.66,11.44-4.58,12.47,1.97c3.34-0.57,4.34,1.31,7.42,3.26
					c0.87,0.56,1.85,1.88,2.66,3.5c1.48,2.97,2.4,6.94,1.07,9.05c-1.811-0.63-3.68-0.83-5.08-0.09c-2.42,1.28-1.44,2.41-4.49,2.38
					c-2.24-0.02-4.26-1.28-6.54-1.06c-1.35,0.13-3.16,0.73-4.21,1.68c-1.47,1.35-1.79,4.84-3,5.78c-1.41,1.09-4.48,0.25-6.17,0.39
					c-2.23,0.17-4.51,0.63-6.52,1.63c-3.46,1.73-4.99,4.69-5.28,8.45c-4.76-0.12-9.49,2.58-11.66,6.97
					c-0.89,1.81-0.87,3.59-0.79,5.42c0.11,2.64,0.73,1.77-0.51,4.25c-2.05,4.08-4.58,6.07-3.93,11.08
					C371.75,337.72,372.9,339.55,372.02,341.55z"/>
				<path style="fill:#6EBE44;" d="M479.93,289.33l-16.04,27.25c-1.529,0.66-2.899,1.75-4.159,3.56c-0.961,1.4-0.5,2.69-1.94,3.8
					c-1.62,1.24-4.63,0.68-6.42,2c-3.561,2.61-2.57,6.18-3.24,9.67c-0.649,3.52-3.92,4.01-5.479,7.05
					c-1.79,3.51,1.279,6.26,0.77,9.08c-0.75,4.25-5.91,6.35-6.01,11.47c-0.03,2.03,0.729,2.75,1.37,4.22l-0.03,0.01
					c-1.87,1.64-3.77,3.49-5.59,5.59c-4.74,5.44-8.67,11.5-10.3,14.12c0.62-4.56,1.43-9.19,2.48-13.81c0.54-2.4,1.05-4.61,1.51-6.64
					c5.69-24.75,6.021-23.29,10.9-33.89c6.18-13.4,16.83-20.1,16.83-20.1s-0.3-7.76-3.09-12.27c-1.891-3.05-5.87-5.9-9.49-6.19
					c-1.21-0.1-2.95,0.9-3.92,0.67c-1.72-0.41-1.83-1.76-3.09-2.96c-1.16-1.11-3.21-2.45-5.33-3.19c1.33-2.11,0.41-6.08-1.07-9.05
					l0.18-0.09c2.94-4.17,6.851-6.92,12.131-4.92c0.96,0.37,1.949,1.52,3.02,1.56c1.521,0.05,1.64-1,2.92-1.75
					c2.36-1.37,6.88-1.6,9.28-0.06c1.97,1.26,1.93,4.91,3.979,5.43c3.271,0.83,5.261-3.32,8.641-0.27c2.41,2.2,1.27,2.84,5.189,2.46
					C479.15,281.56,481.64,285.16,479.93,289.33z"/>
				<path style="fill:#6EBE44;" d="M484.79,345.54c3.41,2.37,3.14,7.74,1.32,11.05c-2.311,4.22-3.44,3.72-1.061,8.24
					c2.19,4.14,1.04,6.42-2.63,8.82c-1.38,0.9-3.39,1.7-4.47,2.96c-1.44,1.68-0.75,2.02-1.311,3.91c-1.319,4.5-3.46,4.03-7.109,6.29
					c-3.54,2.2-1.67,4.42-2.37,7.42c-0.95,4.08-2.53,6.47-6.21,6.88c-4.771,0.54-1.63,5.1-12.2,10.25c0.23-0.61,0.46-1.21,0.67-1.81
					c2.22-6.06,4.03-11.88,5-16.6c2.95-14.38,10.96-32.53,19.93-41.51c2.25-2.25,5.17-4.58,8.29-6.81l1.2,0.27
					C484.03,345.01,484.53,345.35,484.79,345.54z"/>
				<path style="fill:#6EBE44;" d="M416.63,461.89l-17.11,6.54c0,0-2.78-18.14-13.73-29.09c-10.95-10.939-18.6-27.77-22.55-35.29
					c-5.06-9.64-6.15-11.49-6.15-11.49c2.88,0.45,4.19-2.4,7.45-1.98c1.23,0.15,4.3,0.76,5.18,1.69c1.47,1.54,0.11,2.26,0.78,3.64
					c0.95,1.96,4.18,2.65,5.5,4.85c1.21,2.03,0.15,3.53,1.03,5.46c3.05-1.51,6.33-1.01,7.39,2.41c0.76,2.46-1.18,4.72-0.19,6.81
					c3.3-1.38,5.66-0.18,7.7,2.67c1.53,2.14,0.68,6.48,2.27,8.13c1.68,1.729,4.48-0.26,6.65,2.069
					C402.73,430.34,415.94,459.34,416.63,461.89z"/>
				<path style="fill:#6EBE44;" d="M324.07,337.7c6.05,0.68,7.37,9.84,6.17,14.49c-0.56,2.17-1.57,4.14-2.16,6.25
					c-1.93-1.69-7.45-2.17-10.28-2.83c-4.92-1.12-9.67-3.17-14.61-4.27c-2.61-0.59-8.21-0.33-9.17-3.16
					c-0.62-1.83,1.46-4.44,2.25-5.89c0.91-1.67,3.23-3.14,3.88-4.58c0.65-1.46-0.24-3.6,0.31-5.21c0.61-1.77,2.78-4.05,4.36-5.01
					c1.88-1.15,3.03-0.91,4.57-0.81c0.54,0.04,1.14,0.06,1.83,0c2.51-0.22,1.55-0.35,3.67-1.57c3.27-1.89,6.11-2.54,9.07,0.26
					c4.26,4.02,1.18,8.31-0.88,12.29C323.42,337.65,323.76,337.66,324.07,337.7z"/>
				<path style="fill:#6EBE44;" d="M328.08,358.44c0.59-2.11,1.6-4.08,2.16-6.25c1.2-4.65-0.12-13.81-6.17-14.49
					c4.22-3.91,10.35-6.77,15.4-2.6c1.05,0.87,1.64,3.21,2.77,3.68c2.25,0.96,3.5-2.32,5.65-2.72c4.71-0.88,5.39,5.27,9.39,3.89
					c1.69-0.59,2.63-1.51,3.64-2.01c1.06-0.53,2.2-0.58,4.36,0.73c1.88,1.14,2.92,2.92,3.19,4.27l1.51,1.29
					c-1.06,1.07-2.18,2.15-2.74,3.61c-0.88,2.28-0.89,4.52-0.33,6.83c0.67,2.74,2.71,4.3,3.53,6.82c1.32,4.07-2.76,8.61,1.02,12.17
					c1.45,1.37,4,1.34,4.93,3.17c0.98,1.93-0.64,5.03-0.4,7.21c0.29,2.69,1.32,4.31,3.53,5.96c2.77,2.09,5.26,0.8,8,2.03
					c3.9,1.75,1.12,6.17,2.73,9.39c1.11,2.2,2.78,2.67,5.01,3.29c1.47,0.4,5.57-0.11,6.57,0.63c2.09,1.55,0.65,6.15,1.29,8.51
					c1.13,4.12,4.06,4.61,7.49,6.59c-0.45,1.97-1.72,3.95-1.56,5.95c0.26,3.45,3.31,4.551,4.8,6.801c1.09,1.649,0.28,4.29,3.62,4.22
					c2.21-0.05,4.6,0.3,4.6,0.3s-1.41-11.76-0.99-28.02c0.02-0.61,0.03-1.23,0.06-1.85c1.38-2.26,5.54-8.81,10.629-14.64
					c2.95-3.39,6.11-6.17,9.021-8.37c0.02,1.9,1.16,3.9,4.46,7.21c-4.42,3.83-5.62,17.99,3.33,17.25c0.1,0.01,0.14,0.01,0.14,0
					l0.7,0.26c-0.21,0.6-0.439,1.2-0.67,1.81c-4.46,11.87-10.3,24.36-14.27,31.25c-6.211,10.79-12.74,17.33-12.74,17.33l-5.11,1.949
					c-0.69-2.55-13.9-31.55-15.78-33.58c-2.17-2.33-4.97-0.34-6.65-2.069c-1.59-1.65-0.74-5.99-2.27-8.13
					c-2.04-2.85-4.4-4.05-7.7-2.67c-0.99-2.09,0.95-4.35,0.19-6.81c-1.06-3.42-4.34-3.92-7.39-2.41c-0.88-1.93,0.18-3.43-1.03-5.46
					c-1.32-2.2-4.55-2.89-5.5-4.85c-0.67-1.38,0.69-2.1-0.78-3.64c-0.88-0.93-3.95-1.54-5.18-1.69c-3.26-0.42-4.57,2.43-7.45,1.98
					c-2.85-7.05-11.7-0.6-16.06-4.18c-1.84-1.51-1.34-2.58-2.31-4.28c-1.01-1.77-0.81-1.08-2.95-2.34c-3.31-1.96-6.12-5.1-6.19-9.08
					c-0.02-1.52,0.62-2.7,0.36-4.08c-0.44-2.29-2.19-3.88-2.33-6.46C327.54,360.82,327.75,359.61,328.08,358.44z"/>
				<path style="fill:#FFFFC2;" d="M525.17,539.47c2.75,0.23,5.37,0.29,7.76,0.21l0.38-0.01c0.12-0.01,0.25-0.01,0.381-0.02
					c0.489-0.021,0.97-0.051,1.43-0.091c5.25-0.39,8.95-1.56,9.54-3.22l5.51-2.13c7.37-4.09,20.46-9.41,35.18-29.05
					c14.73-19.641,15.851-49.24,3.69-71.19c-14.72-26.6-40.1-30.28-45-35.19c-1.2-1.2-2.76-2.18-4.42-2.98
					c-2.58-2.59-4.64-4.66-6.271-10.99c-1.63-6.34-1.02-8.18-1.02-8.18s-9.62-5.72-9.62-2.86s0,0-1.229,9.41
					c-1.19,9.12-3.16,10.95-3.28,11.05c-0.01,0.01-0.01,0.01-0.01,0.01c-2.631,0.79-5.21,1.96-6.931,3.67
					c-1.479,1.48-4.83,2.85-9.189,4.78c-10.07,4.44-25.54,11.85-35.82,30.4c-12.16,21.96-11.04,51.561,3.68,71.2
					c14.73,19.63,27.83,24.96,35.181,29.05c0,0,0.489-0.49,1.54-1.149c-0.12,0.199-0.181,0.399-0.2,0.609
					c-0.141,1.65,2.71,3.37,7.229,4.681c2.561,0.729,5.66,1.35,9.051,1.739C523.53,539.32,524.34,539.4,525.17,539.47z
					 M332.54,305.7c0.74,0.88,3.2,3.26,3.2,4.5c0.01,2.11-0.42,0.94-1.89,1.75c-1.35,0.72-3.15,0.59-4.26,1.6
					c-1.39,1.25-2.01,4.01-3.26,5.46c-2.99-3.28-6.57-6.41-11.52-4.45c-4.63,1.82-5.94,5.54-5.28,9.94l-0.14,2.18
					c-1.54-0.1-2.69-0.34-4.57,0.81c-1.58,0.96-3.75,3.24-4.36,5.01c-0.55,1.61,0.34,3.75-0.31,5.21c-0.65,1.44-2.97,2.91-3.88,4.58
					c-0.79,1.45-2.87,4.06-2.25,5.89c0.96,2.83,6.56,2.57,9.17,3.16c4.94,1.1,9.69,3.15,14.61,4.27c2.83,0.66,8.35,1.14,10.28,2.83
					c-0.33,1.17-0.54,2.38-0.47,3.7c0.14,2.58,1.89,4.17,2.33,6.46c0.26,1.38-0.38,2.56-0.36,4.08c0.07,3.98,2.88,7.12,6.19,9.08
					c2.14,1.26,1.94,0.57,2.95,2.34c0.97,1.7,0.47,2.77,2.31,4.28c4.36,3.58,13.21-2.87,16.06,4.18c0,0,1.09,1.85,6.15,11.49
					c3.95,7.52,11.6,24.351,22.55,35.29c10.95,10.95,13.73,29.09,13.73,29.09l17.11-6.54l5.11-1.949c0,0,6.529-6.54,12.74-17.33
					c3.97-6.891,9.81-19.38,14.27-31.25c10.57-5.15,7.43-9.71,12.2-10.25c3.68-0.41,5.26-2.8,6.21-6.88c0.7-3-1.17-5.22,2.37-7.42
					c3.649-2.26,5.79-1.79,7.109-6.29c0.561-1.89-0.13-2.23,1.311-3.91c1.08-1.26,3.09-2.06,4.47-2.96c3.67-2.4,4.82-4.68,2.63-8.82
					c-2.38-4.52-1.25-4.02,1.061-8.24c1.819-3.31,2.09-8.68-1.32-11.05c-0.26-0.19-0.76-0.53-0.95-0.64l-1.2-0.27
					c8.11-5.79,17.54-10.91,19.91-12.18l-0.09-0.17c2.5-1.26,3.89-3.56,2.36-6.33c-1.9-3.44-4.4-1.92-6.94-3.31
					c-2.95-1.62-3.12-6.38-6.2-8.21c-3.06-1.84-5.25-0.7-7.51,1.55c-2.67-2.72-3-4.85-7.34-4.99c-3.43-0.11-5.7,1.06-6.78,4.45
					c-2.33,0.14-4.359,0.35-6.16,1.14l16.04-27.25c1.71-4.17-0.779-7.77-6-7.25c-3.92,0.38-2.779-0.26-5.189-2.46
					c-3.38-3.05-5.37,1.1-8.641,0.27c-2.05-0.52-2.01-4.17-3.979-5.43c-2.4-1.54-6.92-1.31-9.28,0.06
					c-1.28,0.75-1.399,1.8-2.92,1.75c-1.07-0.04-2.06-1.19-3.02-1.56c-5.28-2-9.19,0.75-12.131,4.92l-0.18,0.09
					c-0.81-1.62-1.79-2.94-2.66-3.5c-3.08-1.95-4.08-3.83-7.42-3.26c-1.03-6.55-8.82-5.63-12.47-1.97
					c-1.66-2.34-2.73-4.48-5.88-4.88c-2.87-0.35-4.96,2.06-7.22,2.12c-3.05,0.08-5.27-3.76-9.44-1.11c-1.64,1.04-2.99,4.59-5.18,4.2
					c-1.01-0.18-1.77-2.63-2.63-3.14c-3.94-2.38-7.67,0.17-9.27,3.71c-2.16-2.85-6.31-3.47-9.67-2.43c-5.87,1.82-1.6,3.92-2.31,7.57
					c-0.65,3.41-2.88,1.99-5.21,1.53c-3.88-0.74-7.11,0.03-8.95,3.85c-2.6-2.54-7.98-6.27-10.29-1.56
					c-1.88,3.82,1.44,7.87,0.85,11.72c-2.94-0.09-4,2.43-3.88,4.94C327.13,301.17,330.39,303.09,332.54,305.7z M620.08,238.61v386.1
					H238.43v-386.1H620.08z M410.07,533.12c0-29.63-22.59-54.69-53.69-63.04c3.98-3.08,8.46-5.65,12.48-8.92
					c-7.8,0.87-16.02,2.58-22.97,6.79c-3.99-0.55-8.07-0.84-12.24-0.84c-1.62,0-3.24,0.05-4.84,0.13
					c-4.75-9.12-14.78-24.641-14.78-24.641l-7.06,4.67c0,0,9.55,12.671,13.98,20.021c-8.2,1.24-18.02,5.2-22.62,7.27l-0.31,0.71
					c-2.03-0.869-4.08-1.729-6.2-2.439c0.93,1.16,1.9,2.33,2.91,3.47c-22.45,11.5-37.5,32.63-37.5,56.82
					c0,36.45,34.21,66.01,76.42,66.01S410.07,569.57,410.07,533.12z"/>
				<path style="fill:#ABD153;" d="M276.34,735.18c-21.54,3.29-40.92,5.261-57.69,5.32c-0.26,0-0.52,0-0.78,0
					c-36.41,0-45.3-5.69-47.45-8.33l4.38-17.3c17.02-58.18,19.66-100.59,19.66-179.41c0-87.68,13.27-246.8-6.38-325.4
					c-6.18-24.7-12.28-55.74-16.92-81.18c0.59,0.07,21.06,2.38,50.74,5.12c16.6,1.54,36.08,3.2,56.56,4.68
					c19.56,1.4,40.03,2.64,59.78,3.42c22.48,0.89,44.03,1.19,62.24,0.5c14.23-0.54,26.42-1.69,35.43-3.65
					c8.07-1.75,16.03-3.48,23.859-5.18c19.62-4.26,38.48-8.32,56.4-11.94c20.14-4.08,39.1-7.61,56.62-10.26v-0.01
					c21.38-3.24,40.63-5.19,57.29-5.25c0.26,0,0.51,0,0.77,0c42.931,0,47.591,7.9,48.091,9.38c-1,7.31-2.16,15.4-3.5,24.22
					c-5.45,36.03-11.841,159.42-11.841,197.68c0,38.26-2.739,241.4,6.37,305.17c2.63,18.4,5.261,35.28,7.681,49.99
					c1.72,8.58,3.35,16.69,4.859,24.16l-4.939,1c0,0-20.65-2.34-50.761-5.13c-16.6-1.521-36.09-3.19-56.579-4.66
					c-19.551-1.41-40.011-2.64-59.75-3.42c-22.48-0.891-44.03-1.19-62.24-0.5c-14.23,0.54-26.41,1.689-35.42,3.649
					c-7.28,1.58-14.47,3.141-21.56,4.681c-20.39,4.43-39.96,8.649-58.52,12.41C312.68,729,293.8,732.52,276.34,735.18z
					 M620.08,624.71v-386.1H238.43v386.1H620.08z"/>
				<path style="fill:#ABD153;" d="M682.51,716.91c5.771,28.51,9.75,47.67,9.75,47.67s-30.27-2.89-71.21-5.78l5.76-1.069v-44.95
					c30.11,2.79,50.761,5.13,50.761,5.13L682.51,716.91z"/>
				<path style="fill:#ABD153;" d="M332.92,774.51l0.25,1.271c-20.28,4.04-39.31,7.479-56.81,9.979l-0.02-0.16v-50.42
					c17.46-2.66,36.34-6.18,56.4-10.239l0.18,0.899V774.51z"/>
				<path style="fill:#ABD153;" d="M276.34,785.6l0.02,0.16c-19.24,2.74-36.65,4.34-51.87,4.34c-2.01,0-3.97-0.029-5.87-0.09
					l0.03-1.09V740.5c16.77-0.06,36.15-2.03,57.69-5.32V785.6z"/>
				<path style="fill:#ABD153;" d="M510.48,704.7l-0.011,0.229v47.66l-0.02,0.72c-22.87-0.5-44.4-0.39-62.061,0.681l-0.08-1.34
					v-46.67l-0.069-1.78C466.45,703.51,488,703.81,510.48,704.7z"/>
				<path style="fill:#ABD153;" d="M218.65,740.5v48.42l-0.03,1.09c-42.92-1.359-58.46-17.35-58.46-17.35l10.26-40.49
					c2.15,2.64,11.04,8.33,47.45,8.33C218.13,740.5,218.39,740.5,218.65,740.5z"/>
				<path style="fill:#ABD153;" d="M391.5,713.63v49.89c-20.35,4.41-39.87,8.58-58.33,12.261l-0.25-1.271v-48.67l-0.18-0.899
					c18.56-3.761,38.13-7.98,58.52-12.41L391.5,713.63z"/>
				<path style="fill:#ABD153;" d="M570.23,708.12v46.14l-0.07,1.37c-19.84-1.06-40.26-1.91-59.71-2.32l0.02-0.72v-47.66
					l0.011-0.229C530.22,705.48,550.68,706.71,570.23,708.12z"/>
				<path style="fill:#ABD153;" d="M448.31,752.65l0.08,1.34c-11.54,0.7-21.42,1.819-28.959,3.46c-9.47,2.05-18.78,4.08-27.93,6.069
					v-49.89l-0.24-1.1c7.09-1.54,14.28-3.101,21.56-4.681c9.01-1.96,21.19-3.109,35.42-3.649l0.069,1.78V752.65z"/>
				<path style="fill:#ABD153;" d="M626.81,712.78v44.95l-5.76,1.069c-15.76-1.109-33.09-2.22-50.89-3.17l0.07-1.37v-46.14
					C590.72,709.59,610.21,711.26,626.81,712.78z"/>
				<path style="fill:#ABD153;" d="M630.07,104.54V61.87l0.02-1.94c44.12,0.57,54.16,11.08,54.16,11.08s-1.45,16.4-5.31,44.68
					c-0.5-1.48-5.16-9.38-48.091-9.38c-0.26,0-0.51,0-0.77,0L630.07,104.54z"/>
				<path style="fill:#ABD153;" d="M400.41,140.82l0.07,1.78c-18.21,0.69-39.76,0.39-62.24-0.5l0.01-0.22V99.21l0.15-3.68
					c22.64,0.92,44.1,1.19,61.91,0.38l0.1,2.25V140.82z"/>
				<path style="fill:#ABD153;" d="M222.18,87.22l-0.28,2.85V134c-29.68-2.74-50.15-5.05-50.74-5.12c-0.01,0-0.01,0-0.01,0
					c-4.96-27.11-8.27-47.87-8.27-47.87S187.46,83.93,222.18,87.22z"/>
				<path style="fill:#ABD153;" d="M278.82,92.03l-0.33,4.5v41.67l-0.03,0.48c-20.48-1.48-39.96-3.14-56.56-4.68V90.07l0.28-2.85
					C239.19,88.83,258.64,90.54,278.82,92.03z"/>
				<path style="fill:#ABD153;" d="M572.79,111.56v0.01c-17.521,2.65-36.48,6.18-56.62,10.26l-0.38-1.87V76.3l-0.33-1.67
					c20.26-4.06,39.29-7.53,56.82-10.09l0.1,0.66v43.67L572.79,111.56z"/>
				<path style="fill:#ABD153;" d="M338.4,95.53l-0.15,3.68v42.67l-0.01,0.22c-19.75-0.78-40.22-2.02-59.78-3.42l0.03-0.48V96.53
					l0.33-4.5C298.51,93.49,318.89,94.75,338.4,95.53z"/>
				<path style="fill:#ABD153;" d="M630.09,59.93l-0.02,1.94v42.67l0.01,1.77c-16.66,0.06-35.91,2.01-57.29,5.25l-0.41-2.69V65.2
					l-0.1-0.66c20.08-2.92,38.189-4.64,53.97-4.64C627.56,59.9,628.84,59.91,630.09,59.93z"/>
				<path style="fill:#ABD153;" d="M515.79,119.96l0.38,1.87c-17.92,3.62-36.78,7.68-56.4,11.94l-0.56-2.6V88.5l-0.42-1.93
					c19.75-4.28,38.69-8.34,56.67-11.94l0.33,1.67V119.96z"/>
				<path style="fill:#ABD153;" d="M459.21,131.17l0.56,2.6c-7.829,1.7-15.789,3.43-23.859,5.18c-9.01,1.96-21.2,3.11-35.43,3.65
					l-0.07-1.78V98.16l-0.1-2.25c12.37-0.56,22.97-1.63,30.99-3.37c9.32-2.02,18.49-4.02,27.49-5.97l0.42,1.93V131.17z"/>
				<path style="fill:#231F20;" d="M544.28,536.49c0,0-3.28-3.51-9.58-5.88c2.24,0.489,4.21,1.08,5.79,1.729
					c2.75,1.11,4.35,2.391,4.25,3.641c-0.01,0.119-0.04,0.239-0.08,0.359L544.28,536.49z"/>
				<path style="fill:#231F20;" d="M534.7,530.61c6.3,2.37,9.58,5.88,9.58,5.88l0.38-0.15c-0.59,1.66-4.29,2.83-9.54,3.22
					c-1.04-1.069-2.58-3.06-2.58-5.399c0-3.54,0-3.54,0-3.54l0.08-0.43C533.34,530.32,534.03,530.46,534.7,530.61z"/>
				<path style="fill:#231F20;" d="M526.01,529.32c2.33,0.189,4.561,0.489,6.61,0.87l-0.08,0.43c0,0,0,0,0,3.54
					c0,2.34,1.54,4.33,2.58,5.399c-0.46,0.04-0.94,0.07-1.43,0.091l-0.381,0.02l-0.38,0.01c-2.39,0.08-5.01,0.021-7.76-0.21
					c-0.83-0.069-1.64-0.149-2.439-0.25c0.27-3.22,2.119-6.939,3.119-8.89L526.01,529.32z"/>
				<path style="fill:#231F20;" d="M525.85,530.33c-1,1.95-2.85,5.67-3.119,8.89c-3.391-0.39-6.49-1.01-9.051-1.739
					c1.45-3.36,3.99-6.5,6.551-8.41c1.829,0,3.77,0.08,5.779,0.25L525.85,530.33z"/>
				<path style="fill:#231F20;" d="M510.51,530.32c0.681-0.25,1.431-0.49,2.24-0.71c0.01,0,0.02,0,0.03-0.011
					c2.109-0.34,4.649-0.52,7.45-0.529c-2.561,1.91-5.101,5.05-6.551,8.41c-4.52-1.311-7.37-3.03-7.229-4.681
					c0.02-0.21,0.08-0.41,0.2-0.609c0,0-0.011,0,0-0.011C507.53,531.63,508.8,530.95,510.51,530.32z"/>
				<path style="fill:#231F20;" d="M512.75,529.61c-0.81,0.22-1.56,0.46-2.24,0.71c-0.17-0.03-0.34-0.061-0.51-0.101
					C510.8,529.98,511.73,529.78,512.75,529.61z"/>
				<path style="fill:#231F20;" d="M510,530.22c0.17,0.04,0.34,0.07,0.51,0.101c-1.71,0.63-2.979,1.31-3.859,1.859
					C507.09,531.4,508.27,530.73,510,530.22z"/>
			</g>
			<g>
				<path style="fill:none;stroke:#231F20;stroke-width:21;" d="M171.15,128.88c-4.96-27.11-8.27-47.87-8.27-47.87
					s24.58,2.92,59.3,6.21c17.01,1.61,36.46,3.32,56.64,4.81c19.69,1.46,40.07,2.72,59.58,3.5c22.64,0.92,44.1,1.19,61.91,0.38
					c12.37-0.56,22.97-1.63,30.99-3.37c9.32-2.02,18.49-4.02,27.49-5.97c19.75-4.28,38.69-8.34,56.67-11.94
					c20.26-4.06,39.29-7.53,56.82-10.09c20.08-2.92,38.189-4.64,53.97-4.64c1.31,0,2.59,0.01,3.84,0.03
					c44.12,0.57,54.16,11.08,54.16,11.08s-1.45,16.4-5.31,44.68c-1,7.31-2.16,15.4-3.5,24.22
					c-5.45,36.03-11.841,159.42-11.841,197.68c0,38.26-2.739,241.4,6.37,305.17c2.63,18.4,5.261,35.28,7.681,49.99
					c0,0,0.83,5.03,0,0c1.72,8.58,3.35,16.69,4.859,24.16c5.771,28.51,9.75,47.67,9.75,47.67s-30.27-2.89-71.21-5.78
					c-15.76-1.109-33.09-2.22-50.89-3.17c-19.84-1.06-40.26-1.91-59.71-2.32c-22.87-0.5-44.4-0.39-62.061,0.681
					c-11.54,0.7-21.42,1.819-28.959,3.46c-9.47,2.05-18.78,4.08-27.93,6.069c-20.35,4.41-39.87,8.58-58.33,12.261
					c-20.28,4.04-39.31,7.479-56.81,9.979c-19.24,2.74-36.65,4.34-51.87,4.34c-2.01,0-3.97-0.029-5.87-0.09
					c-42.92-1.359-58.46-17.35-58.46-17.35l10.26-40.49l4.38-17.3c17.02-58.18,19.66-100.59,19.66-179.41
					c0-87.68,13.27-246.8-6.38-325.4c-6.18-24.7-12.28-55.74-16.92-81.18"/>
				<path style="fill:none;stroke:#231F20;stroke-width:21;" d="M171.15,128.88c0,0,0,0,0.01,0c0.59,0.07,21.06,2.38,50.74,5.12
					c16.6,1.54,36.08,3.2,56.56,4.68c19.56,1.4,40.03,2.64,59.78,3.42c22.48,0.89,44.03,1.19,62.24,0.5
					c14.23-0.54,26.42-1.69,35.43-3.65c8.07-1.75,16.03-3.48,23.859-5.18c19.62-4.26,38.48-8.32,56.4-11.94
					c20.14-4.08,39.1-7.61,56.62-10.26v-0.01c21.38-3.24,40.63-5.19,57.29-5.25c0.26,0,0.51,0,0.77,0
					c42.931,0,47.591,7.9,48.091,9.38c0.05,0.16,0.06,0.24,0.06,0.24"/>
				<line style="fill:none;stroke:#231F20;stroke-width:21;" x1="459.21" y1="131.17" x2="459.21" y2="88.5"/>
				<line style="fill:none;stroke:#231F20;stroke-width:21;" x1="515.79" y1="119.96" x2="515.79" y2="76.3"/>
				<line style="fill:none;stroke:#231F20;stroke-width:21;" x1="572.38" y1="108.87" x2="572.38" y2="65.2"/>
				<line style="fill:none;stroke:#231F20;stroke-width:21;" x1="630.07" y1="104.54" x2="630.07" y2="61.87"/>
				<line style="fill:none;stroke:#231F20;stroke-width:21;" x1="400.41" y1="140.82" x2="400.41" y2="98.16"/>
				<line style="fill:none;stroke:#231F20;stroke-width:21;" x1="338.25" y1="141.88" x2="338.25" y2="99.21"/>
				<line style="fill:none;stroke:#231F20;stroke-width:21;" x1="278.49" y1="138.2" x2="278.49" y2="96.53"/>
				<polyline style="fill:none;stroke:#231F20;stroke-width:21;" points="221.9,134.73 221.9,134 221.9,90.07 				"/>
				<path style="fill:none;stroke:#231F20;stroke-width:21;" d="M677.57,717.91c0,0-20.65-2.34-50.761-5.13
					c-16.6-1.521-36.09-3.19-56.579-4.66c-19.551-1.41-40.011-2.64-59.75-3.42c-22.48-0.891-44.03-1.19-62.24-0.5
					c-14.23,0.54-26.41,1.689-35.42,3.649c-7.28,1.58-14.47,3.141-21.56,4.681c-20.39,4.43-39.96,8.649-58.52,12.41
					c-20.06,4.06-38.94,7.579-56.4,10.239c-21.54,3.29-40.92,5.261-57.69,5.32c-0.26,0-0.52,0-0.78,0c-36.41,0-45.3-5.69-47.45-8.33
					c-0.66-0.79-0.7-1.31-0.7-1.31"/>
				<polyline style="fill:none;stroke:#231F20;stroke-width:21;" points="391.5,713.63 391.5,763.52 391.5,764.3 				"/>
				<line style="fill:none;stroke:#231F20;stroke-width:21;" x1="332.92" y1="725.84" x2="332.92" y2="774.51"/>
				<polyline style="fill:none;stroke:#231F20;stroke-width:21;" points="276.34,734.93 276.34,735.18 276.34,785.6 				"/>
				<polyline style="fill:none;stroke:#231F20;stroke-width:21;" points="218.65,738.26 218.65,740.5 218.65,788.92 				"/>
				<line style="fill:none;stroke:#231F20;stroke-width:21;" x1="448.31" y1="705.98" x2="448.31" y2="752.65"/>
				<line style="fill:none;stroke:#231F20;stroke-width:21;" x1="510.47" y1="704.93" x2="510.47" y2="752.59"/>
				<polyline style="fill:none;stroke:#231F20;stroke-width:21;" points="570.23,707.59 570.23,708.12 570.23,754.26 				"/>
				<polyline style="fill:none;stroke:#231F20;stroke-width:21;" points="626.81,712.08 626.81,712.78 626.81,757.73 				"/>
				<rect x="238.43" y="238.61" style="fill:none;stroke:#231F20;stroke-width:14;" width="381.65" height="386.1"/>
				<path style="fill:none;stroke:#231F20;stroke-width:7;" d="M503.11,332.16c0,0-0.2,0.1-0.561,0.29
					c-2.37,1.27-11.8,6.39-19.91,12.18c-3.12,2.23-6.04,4.56-8.29,6.81c-8.97,8.98-16.979,27.13-19.93,41.51
					c-0.97,4.72-2.78,10.54-5,16.6c-0.21,0.6-0.439,1.2-0.67,1.81c-4.46,11.87-10.3,24.36-14.27,31.25
					c-6.211,10.79-12.74,17.33-12.74,17.33l-5.11,1.949l-17.11,6.54c0,0-2.78-18.14-13.73-29.09
					c-10.95-10.939-18.6-27.77-22.55-35.29c-5.06-9.64-6.15-11.49-6.15-11.49"/>
				<path style="fill:none;stroke:#231F20;stroke-width:7;" d="M448.75,411.36c10.57-5.15,7.43-9.71,12.2-10.25
					c3.68-0.41,5.26-2.8,6.21-6.88c0.7-3-1.17-5.22,2.37-7.42c3.649-2.26,5.79-1.79,7.109-6.29c0.561-1.89-0.13-2.23,1.311-3.91
					c1.08-1.26,3.09-2.06,4.47-2.96c3.67-2.4,4.82-4.68,2.63-8.82c-2.38-4.52-1.25-4.02,1.061-8.24c1.819-3.31,2.09-8.68-1.32-11.05
					c-0.26-0.19-0.76-0.53-0.95-0.64"/>
				<path style="fill:none;stroke:#231F20;stroke-width:7;" d="M426.85,366.7c5.69-24.75,6.021-23.29,10.9-33.89
					c6.18-13.4,16.83-20.1,16.83-20.1s-0.3-7.76-3.09-12.27c-1.891-3.05-5.87-5.9-9.49-6.19c-1.21-0.1-2.95,0.9-3.92,0.67
					c-1.72-0.41-1.83-1.76-3.09-2.96c-1.16-1.11-3.21-2.45-5.33-3.19c-1.811-0.63-3.68-0.83-5.08-0.09
					c-2.42,1.28-1.44,2.41-4.49,2.38c-2.24-0.02-4.26-1.28-6.54-1.06c-1.35,0.13-3.16,0.73-4.21,1.68c-1.47,1.35-1.79,4.84-3,5.78
					c-1.41,1.09-4.48,0.25-6.17,0.39c-2.23,0.17-4.51,0.63-6.52,1.63c-3.46,1.73-4.99,4.69-5.28,8.45
					c-4.76-0.12-9.49,2.58-11.66,6.97c-0.89,1.81-0.87,3.59-0.79,5.42c0.11,2.64,0.73,1.77-0.51,4.25
					c-2.05,4.08-4.58,6.07-3.93,11.08c0.27,2.07,1.42,3.9,0.54,5.9c-0.44,1.01-1.22,1.84-2.04,2.68c-1.06,1.07-2.18,2.15-2.74,3.61
					c-0.88,2.28-0.89,4.52-0.33,6.83c0.67,2.74,2.71,4.3,3.53,6.82c1.32,4.07-2.76,8.61,1.02,12.17c1.45,1.37,4,1.34,4.93,3.17
					c0.98,1.93-0.64,5.03-0.4,7.21c0.29,2.69,1.32,4.31,3.53,5.96c2.77,2.09,5.26,0.8,8,2.03c3.9,1.75,1.12,6.17,2.73,9.39
					c1.11,2.2,2.78,2.67,5.01,3.29c1.47,0.4,5.57-0.11,6.57,0.63c2.09,1.55,0.65,6.15,1.29,8.51c1.13,4.12,4.06,4.61,7.49,6.59
					c-0.45,1.97-1.72,3.95-1.56,5.95c0.26,3.45,3.31,4.551,4.8,6.801c1.09,1.649,0.28,4.29,3.62,4.22c2.21-0.05,4.6,0.3,4.6,0.3
					s-1.41-11.76-0.99-28.02c0.02-0.61,0.03-1.23,0.06-1.85c0.22-6.41,0.73-13.44,1.72-20.69c0.62-4.56,1.43-9.19,2.48-13.81
					C425.88,370.94,426.39,368.73,426.85,366.7z"/>
				<path style="fill:none;stroke:#231F20;stroke-width:7;" d="M501.15,332.81c0.46-0.15,0.899-0.32,1.31-0.53
					c2.5-1.26,3.89-3.56,2.36-6.33c-1.9-3.44-4.4-1.92-6.94-3.31c-2.95-1.62-3.12-6.38-6.2-8.21c-3.06-1.84-5.25-0.7-7.51,1.55
					c-2.67-2.72-3-4.85-7.34-4.99c-3.43-0.11-5.7,1.06-6.78,4.45c-2.33,0.14-4.359,0.35-6.16,1.14
					c-1.529,0.66-2.899,1.75-4.159,3.56c-0.961,1.4-0.5,2.69-1.94,3.8c-1.62,1.24-4.63,0.68-6.42,2c-3.561,2.61-2.57,6.18-3.24,9.67
					c-0.649,3.52-3.92,4.01-5.479,7.05c-1.79,3.51,1.279,6.26,0.77,9.08c-0.75,4.25-5.91,6.35-6.01,11.47
					c-0.03,2.03,0.729,2.75,1.37,4.22c0.09,0.22,0.18,0.45,0.27,0.71c0.65,1.94,0.22,1.87-0.06,4.47
					c-0.42,3.84,0.279,6.14,3.34,7.26c-0.88,1.99-1.561,3.44-1.54,4.96c0.02,1.9,1.16,3.9,4.46,7.21
					c-4.42,3.83-5.62,17.99,3.33,17.25c0.1,0.01,0.14,0.01,0.14,0c0-0.05-0.46-0.22-0.51-0.34"/>
				<line style="fill:none;stroke:#231F20;stroke-width:7;" x1="463.89" y1="316.58" x2="479.93" y2="289.33"/>
				<path style="fill:none;stroke:#231F20;stroke-width:7;" d="M416.63,461.89c-0.69-2.55-13.9-31.55-15.78-33.58
					c-2.17-2.33-4.97-0.34-6.65-2.069c-1.59-1.65-0.74-5.99-2.27-8.13c-2.04-2.85-4.4-4.05-7.7-2.67c-0.99-2.09,0.95-4.35,0.19-6.81
					c-1.06-3.42-4.34-3.92-7.39-2.41c-0.88-1.93,0.18-3.43-1.03-5.46c-1.32-2.2-4.55-2.89-5.5-4.85c-0.67-1.38,0.69-2.1-0.78-3.64
					c-0.88-0.93-3.95-1.54-5.18-1.69c-3.26-0.42-4.57,2.43-7.45,1.98c-2.85-7.05-11.7-0.6-16.06-4.18
					c-1.84-1.51-1.34-2.58-2.31-4.28c-1.01-1.77-0.81-1.08-2.95-2.34c-3.31-1.96-6.12-5.1-6.19-9.08c-0.02-1.52,0.62-2.7,0.36-4.08
					c-0.44-2.29-2.19-3.88-2.33-6.46c-0.07-1.32,0.14-2.53,0.47-3.7c0.59-2.11,1.6-4.08,2.16-6.25c1.2-4.65-0.12-13.81-6.17-14.49
					c-0.31-0.04-0.65-0.05-0.99-0.04c2.06-3.98,5.14-8.27,0.88-12.29c-2.96-2.8-5.8-2.15-9.07-0.26c-2.12,1.22-1.16,1.35-3.67,1.57
					c-0.69,0.06-1.29,0.04-1.83,0c-1.54-0.1-2.69-0.34-4.57,0.81c-1.58,0.96-3.75,3.24-4.36,5.01c-0.55,1.61,0.34,3.75-0.31,5.21
					c-0.65,1.44-2.97,2.91-3.88,4.58c-0.79,1.45-2.87,4.06-2.25,5.89c0.96,2.83,6.56,2.57,9.17,3.16c4.94,1.1,9.69,3.15,14.61,4.27
					c2.83,0.66,8.35,1.14,10.28,2.83c0.07,0.06,0.14,0.12,0.2,0.19"/>
				<path style="fill:none;stroke:#231F20;stroke-width:7;" d="M310.96,322.68c-0.6,1.23-1.42,1.29-1.3,2.53
					c-0.05-0.24-0.09-0.47-0.13-0.71c-0.66-4.4,0.65-8.12,5.28-9.94c4.95-1.96,8.53,1.17,11.52,4.45c1.25-1.45,1.87-4.21,3.26-5.46
					c1.11-1.01,2.91-0.88,4.26-1.6c1.47-0.81,1.9,0.36,1.89-1.75c0-1.24-2.46-3.62-3.2-4.5c-2.15-2.61-5.41-4.53-5.58-8.19
					c-0.12-2.51,0.94-5.03,3.88-4.94c0.59-3.85-2.73-7.9-0.85-11.72c2.31-4.71,7.69-0.98,10.29,1.56c1.84-3.82,5.07-4.59,8.95-3.85
					c2.33,0.46,4.56,1.88,5.21-1.53c0.71-3.65-3.56-5.75,2.31-7.57c3.36-1.04,7.51-0.42,9.67,2.43c1.6-3.54,5.33-6.09,9.27-3.71
					c0.86,0.51,1.62,2.96,2.63,3.14c2.19,0.39,3.54-3.16,5.18-4.2c4.17-2.65,6.39,1.19,9.44,1.11c2.26-0.06,4.35-2.47,7.22-2.12
					c3.15,0.4,4.22,2.54,5.88,4.88c3.65-3.66,11.44-4.58,12.47,1.97c3.34-0.57,4.34,1.31,7.42,3.26c0.87,0.56,1.85,1.88,2.66,3.5
					c1.48,2.97,2.4,6.94,1.07,9.05c-0.01,0-0.01,0.01-0.01,0.01"/>
				<path style="fill:none;stroke:#231F20;stroke-width:7;" d="M428.77,279.63c2.94-4.17,6.851-6.92,12.131-4.92
					c0.96,0.37,1.949,1.52,3.02,1.56c1.521,0.05,1.64-1,2.92-1.75c2.36-1.37,6.88-1.6,9.28-0.06c1.97,1.26,1.93,4.91,3.979,5.43
					c3.271,0.83,5.261-3.32,8.641-0.27c2.41,2.2,1.27,2.84,5.189,2.46c5.221-0.52,7.71,3.08,6,7.25
					c-0.229,0.56-0.529,1.14-0.92,1.71c0.17-0.19,0.34-0.41,0.49-0.63"/>
				<path style="fill:none;stroke:#231F20;stroke-width:7;" d="M323.05,338.7c0.33-0.34,0.67-0.67,1.02-1
					c4.22-3.91,10.35-6.77,15.4-2.6c1.05,0.87,1.64,3.21,2.77,3.68c2.25,0.96,3.5-2.32,5.65-2.72c4.71-0.88,5.39,5.27,9.39,3.89
					c1.69-0.59,2.63-1.51,3.64-2.01c1.06-0.53,2.2-0.58,4.36,0.73c1.88,1.14,2.92,2.92,3.19,4.27"/>
				<path style="fill:none;stroke:#231F20;stroke-width:7;" d="M408.25,327.95c0,0,8.5,8.03,13.39,20.59
					c3.21,8.24,4.98,16.96,5.209,18.16c0.021,0.09,0.03,0.14,0.03,0.14"/>
				<path style="fill:none;stroke:#231F20;stroke-width:7;" d="M398.65,353.5c0,0,9.43,6.92,15.83,18.77
					c4.53,8.38,7.45,17.52,7.45,17.52"/>
				<path style="fill:none;stroke:#231F20;stroke-width:7;" d="M390.81,380.09c0,0,10.72,4.69,19.57,14.85
					c5.18,5.93,9.39,12.62,10.7,14.75c0.27,0.45,0.42,0.7,0.42,0.7"/>
				<path style="fill:none;stroke:#231F20;stroke-width:7;" d="M440.79,384.83c-2.91,2.2-6.07,4.98-9.021,8.37
					c-5.09,5.83-9.25,12.38-10.629,14.64c-0.32,0.52-0.49,0.81-0.49,0.81"/>
				<path style="fill:none;stroke:#231F20;stroke-width:7;" d="M438.75,367.44c-1.87,1.64-3.77,3.49-5.59,5.59
					c-4.74,5.44-8.67,11.5-10.3,14.12c-0.52,0.84-0.81,1.33-0.81,1.33"/>
				<path style="fill:none;stroke:#231F20;stroke-width:7;" d="M335.74,310.2c0,0,8.16,6.25,18.85,18.84
					c3.58,4.23,5.44,7.03,6.33,8.9l0.01,0.01"/>
				<path style="fill:none;stroke:#231F20;stroke-width:7;" d="M512.78,529.6c2.17-0.58,4.819-1.02,8.02-1.109"/>
				<path style="fill:none;stroke:#231F20;stroke-width:7;" d="M518.19,394.24c-2.631,0.79-5.21,1.96-6.931,3.67
					c-1.479,1.48-4.83,2.85-9.189,4.78c-10.07,4.44-25.54,11.85-35.82,30.4c-12.16,21.96-11.04,51.561,3.68,71.2
					c14.73,19.63,27.83,24.96,35.181,29.05c0,0,0.489-0.49,1.54-1.149"/>
				<path style="fill:none;stroke:#231F20;stroke-width:7;" d="M530.4,392.94c-0.19-0.04-0.36-0.07-0.53-0.1
					c-1.01-0.18-1.63-0.25-1.63-0.25s-1.5,0.05-3.66,0.33c-1.82,0.24-4.12,0.64-6.38,1.31"/>
				<path style="fill:none;stroke:#231F20;stroke-width:7;" d="M544.66,536.34l5.51-2.13c7.37-4.09,20.46-9.41,35.18-29.05
					c14.73-19.641,15.851-49.24,3.69-71.19c-14.72-26.6-40.1-30.28-45-35.19c-1.2-1.2-2.76-2.18-4.42-2.98
					c-3.24-1.56-6.9-2.42-9.17-2.85"/>
				<path style="fill:none;stroke:#231F20;stroke-width:7;" d="M520.81,528.49c1.351-0.04,2.801-0.021,4.351,0.08
					c0.04,0,0.08,0.01,0.12,0.01c2.05,0.14,3.95,0.45,5.67,0.87c1.05,0.26,2.03,0.55,2.95,0.87c0.279,0.09,0.54,0.189,0.8,0.29"/>
				<path style="fill:none;stroke:#231F20;stroke-width:7;" d="M510,530.22c-22.67-4.489-40.09-31.79-40.09-64.8
					c0-29.14,13.58-53.82,32.35-62.31c1.94-0.88,3.94-1.58,5.98-2.1"/>
				<path style="fill:none;stroke:#231F20;stroke-width:7;" d="M520.81,528.49h-0.01c-19.13-8.04-33.22-35.04-33.22-67.12
					c0-33.69,15.54-61.79,36.18-68.16c0.271-0.09,0.55-0.17,0.83-0.25"/>
				<path style="fill:none;stroke:#231F20;stroke-width:7;" d="M525.78,528.57c-0.17,0-0.34-0.011-0.5-0.021
					c-0.09-0.01-0.17-0.02-0.25-0.04c-10.4-1.37-18.73-31.18-18.73-67.74c0-35.02,7.63-63.83,17.41-67.43
					c0.03-0.01,0.05-0.02,0.08-0.03c0.65-0.23,1.32-0.35,1.99-0.35"/>
				<path style="fill:none;stroke:#231F20;stroke-width:7;" d="M540.49,532.34c22.93-4.18,44.01-32.3,44.01-65.56
					c0-32.16-16.55-58.89-38.35-64.43"/>
				<path style="fill:none;stroke:#231F20;stroke-width:7;" d="M534.14,529.6c18.87-8.319,32.681-35.109,32.681-66.869
					c0-24.94-8.2-47.561-20.83-60.221c-4.65-4.66-9.891-7.97-15.54-9.56c-0.021,0-0.03-0.01-0.05-0.01"/>
				<path style="fill:none;stroke:#231F20;stroke-width:7;" d="M530.94,529.46l0.01-0.01c9.64-3.99,17.13-32.61,17.13-67.34
					c0-35.53-8.2-66.23-18.21-69.271c-0.54-0.17-1.08-0.25-1.63-0.25"/>
				<path style="fill:none;stroke:#231F20;stroke-width:7;" d="M525.23,527.08c3.069-8.85,5.3-34.811,5.3-65.43
					c0-35.5-2.99-64.71-6.82-68.311"/>
				<path style="fill:none;stroke:#231F20;stroke-width:7;stroke-linecap:round;stroke-linejoin:round;" d="M533.69,539.65
					c-0.131,0.01-0.261,0.01-0.381,0.02"/>
				<path style="fill:none;stroke:#231F20;stroke-width:7;stroke-linecap:round;stroke-linejoin:round;" d="M532.93,539.68
					c-2.39,0.08-5.01,0.021-7.76-0.21c-0.83-0.069-1.64-0.149-2.439-0.25c-3.391-0.39-6.49-1.01-9.051-1.739
					c-4.52-1.311-7.37-3.03-7.229-4.681c0.02-0.21,0.08-0.41,0.2-0.609c0,0-0.011,0,0-0.011c0.439-0.779,1.619-1.449,3.35-1.96
					c0.8-0.239,1.73-0.439,2.75-0.609c0.01,0,0.02,0,0.03-0.011c2.109-0.34,4.649-0.52,7.45-0.529c1.829,0,3.77,0.08,5.779,0.25
					c2.33,0.189,4.561,0.489,6.61,0.87c0.72,0.13,1.41,0.27,2.08,0.42c2.24,0.489,4.21,1.08,5.79,1.729
					c2.75,1.11,4.35,2.391,4.25,3.641c-0.01,0.119-0.04,0.239-0.08,0.359c-0.59,1.66-4.29,2.83-9.54,3.22
					c-0.46,0.04-0.94,0.07-1.43,0.091"/>
				<path style="fill:none;stroke:#231F20;stroke-width:7;" d="M518.19,394.24c0,0,0,0,0.01-0.01c0.12-0.1,2.09-1.93,3.28-11.05
					c1.229-9.41,1.229-6.55,1.229-9.41s9.62,2.86,9.62,2.86s-0.61,1.84,1.02,8.18c1.631,6.33,3.69,8.4,6.271,10.99
					c0.01,0.01,0.02,0.02,0.03,0.03"/>
				<path style="fill:none;stroke:#231F20;stroke-width:7;" d="M520.94,528.57c-0.24,0.149-0.471,0.319-0.71,0.5
					c-2.561,1.91-5.101,5.05-6.551,8.41c-1.3,2.989-1.739,6.149-0.54,8.75c1.24,2.729,5.58,4.14,4.271,7.779
					c-1.141,3.141-4.95,4.061-5.55,7.57c-0.53,3.09,0.88,6.13,3.29,7.97"/>
				<path style="fill:none;stroke:#231F20;stroke-width:7;" d="M525.85,530.33c-1,1.95-2.85,5.67-3.119,8.89
					c-0.141,1.71,0.159,3.28,1.26,4.37c2.1,2.12,5.569,4.141,4.25,7.771c-1.13,3.14-4.94,4.069-5.55,7.58
					c-0.521,3.09,0.89,6.13,3.29,7.97"/>
				<path style="fill:none;stroke:#231F20;stroke-width:7;" d="M537.2,562.84c-2.4-1.85-3.811-4.88-3.271-7.97
					c0.61-3.51,4.4-4.44,5.53-7.57c1.15-3.149-1.43-4.97-3.4-6.87c0,0-0.409-0.31-0.939-0.87c-1.04-1.069-2.58-3.06-2.58-5.399
					c0-3.54,0-3.54,0-3.54"/>
				<path style="fill:none;stroke:#231F20;stroke-width:7;" d="M355.43,469.83c0.32,0.08,0.64,0.17,0.95,0.25
					c31.1,8.35,53.69,33.41,53.69,63.04c0,36.45-34.21,66.01-76.42,66.01s-76.42-29.56-76.42-66.01c0-24.19,15.05-45.32,37.5-56.82
					h0.01"/>
				<path style="fill:none;stroke:#231F20;stroke-width:7;" d="M328.81,467.24c1.6-0.08,3.22-0.13,4.84-0.13
					c4.17,0,8.25,0.29,12.24,0.84h0.01"/>
				<path style="fill:none;stroke:#231F20;stroke-width:7;" d="M298.33,474.56c4.6-2.069,14.42-6.029,22.62-7.27h0.01"/>
				<path style="fill:none;stroke:#231F20;stroke-width:7;" d="M333.83,480.86c3.04-5.88,7.25-9.99,12.06-12.91
					c6.95-4.21,15.17-5.92,22.97-6.79c-4.02,3.27-8.5,5.84-12.48,8.92c-3.09,2.39-5.88,5.09-7.94,8.64
					c-1.81,3.11-4.44,8.46-8.13,10.391c-1.49,0.79-3.15,1.01-4.99,0.31"/>
				<path style="fill:none;stroke:#231F20;stroke-width:7;" d="M340.45,489.37c15.58,4.25,22.36,17.54,26.56,30.149
					c-7.16-5.779-12.48-13.399-21.43-16.329c-3.97-1.29-11.15-3.061-12.89-7.49c-0.27-0.69-0.41-1.44-0.37-2.271
					c0-0.27,0.03-0.55,0.07-0.83"/>
				<path style="fill:none;stroke:#231F20;stroke-width:7;" d="M327.19,491.92c-0.12,0.01-0.23,0.021-0.35,0.021
					c-0.4,0.04-0.8,0.06-1.19,0.079c-13.49,0.561-23.27-7.02-30.92-15.72c-1.01-1.14-1.98-2.31-2.91-3.47
					c2.12,0.71,4.17,1.57,6.2,2.439c6.33,2.74,12.43,5.721,19.56,5.45c1.64-0.06,3.77-0.229,5.94-0.189"/>
				<path style="fill:none;stroke:#231F20;stroke-width:7;" d="M325.67,492.01c-0.01,0-0.01,0.01-0.02,0.01
					c-15.58,7.03-19.38,23.011-24.61,37.83c4.54-1.75,7.36-5.159,10.27-8.6c3-3.56,4.55-8.38,8.4-10.93
					c3.42-2.25,12.62-8.891,12.98-14.62c0.05-0.78-0.06-1.54-0.37-2.271c-0.09-0.22-0.21-0.439-0.34-0.66"/>
				<path style="fill:none;stroke:#231F20;stroke-width:7;" d="M326.84,491.94c-0.7-0.471-1.26-1.19-1.55-2.28
					c0,0,0.1-4.36-0.4-9.271c-0.37-3.699-1.09-7.72-2.44-10.43c-0.38-0.76-0.89-1.66-1.5-2.67c-4.43-7.35-13.98-20.021-13.98-20.021
					l7.06-4.67c0,0,10.03,15.521,14.78,24.641c0.92,1.76,1.64,3.279,2.06,4.41c1.01,2.72,2.02,6.06,2.71,9.27
					c0.69,3.15,1.06,6.18,0.81,8.37c-0.14,1.28-0.49,2.27-1.12,2.84c0,0-0.36,0.13-0.93,0.26
					C331.01,492.71,328.53,493.07,326.84,491.94z"/>
			</g>
		</g>
	</g>
</g>
<rect style="fill:none;" width="850.394" height="850.394"/>
</svg>
