<?xml version="1.0" encoding="iso-8859-1"?>
<!-- Generator: Adobe Illustrator 12.0.1, SVG Export Plug-In . SVG Version: 6.00 Build 51448)  -->
<!DOCTYPE svg PUBLIC "-//W3C//DTD SVG 1.1//EN" "http://www.w3.org/Graphics/SVG/1.1/DTD/svg11.dtd" [
	<!ENTITY ns_svg "http://www.w3.org/2000/svg">
	<!ENTITY ns_xlink "http://www.w3.org/1999/xlink">
]>
<svg  version="1.1" id="Layer_1" xmlns="&ns_svg;" xmlns:xlink="&ns_xlink;" width="850.89" height="850.89"
	 viewBox="0 0 850.89 850.89" style="overflow:visible;enable-background:new 0 0 850.89 850.89;" xml:space="preserve">
<g>
	<g id="XMLID_1_">
		<g>
			<polygon style="fill:#FFFFC2;" points="303.85,716.52 292.16,727.55 294.92,743.12 280.47,735.77 266.02,743.12 268.78,727.55 
				257.09,716.52 273.25,714.25 280.47,700.08 287.7,714.25 			"/>
			<polygon style="fill:#FFFFC2;" points="561.85,692.52 550.16,703.55 552.92,719.12 538.47,711.77 524.02,719.12 526.78,703.55 
				515.09,692.52 531.25,690.25 538.47,676.08 545.7,690.25 			"/>
			<polygon style="fill:#FFFFC2;" points="707.85,164.52 696.16,175.55 698.92,191.12 684.47,183.77 670.02,191.12 672.78,175.55 
				661.09,164.52 677.25,162.25 684.47,148.08 691.7,162.25 			"/>
			<polygon style="fill:#FFFFC2;" points="381.94,97.22 370.25,108.25 373.01,123.82 358.56,116.47 344.11,123.82 346.87,108.25 
				335.18,97.22 351.34,94.95 358.56,80.78 365.79,94.95 			"/>
			<polygon style="fill:#FFFFC2;" points="146.4,230.52 134.71,241.55 137.47,257.12 123.02,249.77 108.57,257.12 111.33,241.55 
				99.64,230.52 115.8,228.25 123.02,214.08 130.25,228.25 			"/>
			<polygon style="fill:#A9D7F3;" points="523.07,398.97 677.75,429.08 677.72,429.22 677.72,614.96 676.09,619.67 520.47,565.96 
				520.47,538.61 520.47,412.61 			"/>
			<polygon style="fill:#A9D7F3;" points="677.72,614.96 677.72,429.22 677.75,429.08 778,448.6 778,654.85 676.09,619.68 
				676.09,619.67 			"/>
			<path style="fill:#7A7878;" d="M583.98,229.21L528.77,372.99l-0.039-0.01c-3.721,10.19-19.37,19.09-41.94,24.95l-0.51-4.03
				l42.17-140.16l-0.62-3.2c0.96-0.18,1.91-0.37,2.84-0.57C556.54,244.66,575.54,237.44,583.98,229.21z"/>
			<path style="fill:#C8C8C8;" d="M541.35,191.53c29.37,7.21,47.49,17.11,47.49,28.03c0,3.33-1.68,6.56-4.859,9.65
				c-8.44,8.23-27.44,15.45-53.311,20.76l-0.8-3.92l11.11-52.99L541.35,191.53z"/>
			<path style="fill:#7A7878;" d="M424.75,199.62c23.59,0,42.73,7.14,42.73,15.95s-19.141,15.96-42.73,15.96
				c-23.61,0-42.74-7.15-42.74-15.96S401.14,199.62,424.75,199.62z"/>
			<rect x="407.52" y="232.66" style="fill:#7A7878;" width="35.32" height="21.65"/>
			<path style="fill:#C8C8C8;" d="M434.97,570.42c-0.149-23.46-1.01-156.31,0.03-159.43l-0.24-5.92c19.38-0.74,37.2-3.28,52.03-7.14
				c22.57-5.86,38.22-14.76,41.94-24.95l0.039,0.01l-1.47,3.82l-4.229,22.16l-2.601-0.51v14.15v126l-79.76,33.05L434.97,570.42z"/>
			<path style="fill:#C8C8C8;" d="M442.84,232.66h-35.32v21.65h35.32V232.66z M424.75,231.53c23.59,0,42.73-7.15,42.73-15.96
				s-19.141-15.95-42.73-15.95c-23.61,0-42.74,7.14-42.74,15.95S401.14,231.53,424.75,231.53z M360.65,253.74l-8.54-66.66l-0.4-3.35
				c21.87-2.6,46.46-4.06,72.47-4.06c45.85,0,87.32,4.54,117.169,11.86l-0.369,1.53l-11.11,52.99l0.8,3.92
				c-0.93,0.2-1.88,0.39-2.84,0.57c-28.3,5.57-64.37,8.9-103.65,8.9c-22.62,0-44.18-1.11-63.79-3.11L360.65,253.74z"/>
			<path style="fill:#C8C8C8;" d="M329.03,406.44l0.7-0.04l-1.1-20.97c17.81,11.81,53.4,19.86,94.41,19.86
				c3.96,0,7.87-0.08,11.72-0.22l0.24,5.92c-1.04,3.12-0.18,135.97-0.03,159.43l-102.72-22.17h-3.22V406.44z"/>
			<path style="fill:#C8C8C8;" d="M352.11,187.08l8.54,66.66l-0.26,2.59c-14.29-1.45-27.55-3.38-39.44-5.71l0.39-2.01l-11.97-54.69
				l-0.66-2.8c12.54-2.99,27.04-5.49,43-7.39L352.11,187.08z"/>
			<polygon style="fill:#A9D7F3;" points="171.75,437.06 329.03,406.44 329.03,548.25 329.03,573.94 173.41,627.65 171.78,622.94 
				171.78,437.2 			"/>
			<path style="fill:#7A7878;" d="M316.62,368.21l-54.25-141.23c7.38,9.5,28.68,17.81,58.58,23.64c11.89,2.33,25.15,4.26,39.44,5.71
				c19.61,2,41.17,3.11,63.79,3.11c39.28,0,75.35-3.33,103.65-8.9l0.62,3.2L486.28,393.9l0.51,4.03
				c-14.83,3.86-32.65,6.4-52.03,7.14c-3.85,0.14-7.76,0.22-11.72,0.22c-41.01,0-76.6-8.05-94.41-19.86
				c-7.75-5.13-12.13-10.97-12.13-17.17L316.62,368.21z"/>
			<path style="fill:#C8C8C8;" d="M309.37,193.92l11.97,54.69l-0.39,2.01c-29.9-5.83-51.2-14.14-58.58-23.64l-2.85-7.42
				c0-11.13,18.83-21.2,49.19-28.44L309.37,193.92z"/>
			<polygon style="fill:#A9D7F3;" points="173.41,627.65 71.5,662.82 71.5,456.58 171.75,437.06 171.78,437.2 171.78,622.94 			"/>
		</g>
		<g>
			<polygon style="fill:none;stroke:#231F20;stroke-width:21;" points="329.03,406.44 329.03,548.25 329.03,573.94 173.41,627.65 
				71.5,662.82 71.5,456.58 171.75,437.06 			"/>
			<line style="fill:none;stroke:#231F20;stroke-width:21;" x1="171.78" y1="437.2" x2="171.78" y2="622.94"/>
			<line style="fill:none;stroke:#231F20;stroke-width:21;" x1="262.25" y1="424.25" x2="262.94" y2="588.75"/>
			<polygon style="fill:none;stroke:#231F20;stroke-width:21;" points="523.07,398.97 520.47,398.46 520.47,412.61 520.47,538.61 
				520.47,565.96 676.09,619.67 676.09,619.68 778,654.85 778,448.6 677.75,429.08 			"/>
			<line style="fill:none;stroke:#231F20;stroke-width:21;" x1="677.72" y1="429.22" x2="677.72" y2="614.96"/>
			<line style="fill:none;stroke:#231F20;stroke-width:21;" x1="586.25" y1="416.25" x2="586.56" y2="580.78"/>
			<path style="fill:none;stroke:#231F20;stroke-width:21;" d="M541.35,191.53c29.37,7.21,47.49,17.11,47.49,28.03
				c0,3.33-1.68,6.56-4.859,9.65c-8.44,8.23-27.44,15.45-53.311,20.76c-0.93,0.2-1.88,0.39-2.84,0.57
				c-28.3,5.57-64.37,8.9-103.65,8.9c-22.62,0-44.18-1.11-63.79-3.11c-14.29-1.45-27.55-3.38-39.44-5.71
				c-29.9-5.83-51.2-14.14-58.58-23.64c-1.87-2.41-2.85-4.89-2.85-7.42c0-11.13,18.83-21.2,49.19-28.44
				c12.54-2.99,27.04-5.49,43-7.39c21.87-2.6,46.46-4.06,72.47-4.06C470.03,179.67,511.5,184.21,541.35,191.53z"/>
			<polyline style="fill:none;stroke:#231F20;stroke-width:21;" points="259.52,219.56 262.37,226.98 316.62,368.21 319.92,376.81 
							"/>
			<polyline style="fill:none;stroke:#231F20;stroke-width:21;" points="587.69,219.56 583.98,229.21 528.77,372.99 527.3,376.81 
							"/>
			<polyline style="fill:none;stroke:#231F20;stroke-width:21;" points="332.25,548.25 434.97,570.42 440.71,571.66 520.47,538.61 
							"/>
			<line style="fill:none;stroke:#231F20;stroke-width:14;" x1="329.03" y1="253.74" x2="352.96" y2="389.34"/>
			<line style="fill:none;stroke:#231F20;stroke-width:14;" x1="396.26" y1="265.14" x2="398.54" y2="397.32"/>
			<line style="fill:none;stroke:#231F20;stroke-width:14;" x1="461.21" y1="266.27" x2="448.68" y2="397.32"/>
			<line style="fill:none;stroke:#231F20;stroke-width:14;" x1="528.45" y1="253.74" x2="486.28" y2="393.9"/>
			<path style="fill:none;stroke:#231F20;stroke-width:21;" d="M529.59,368.26c0,1.6-0.29,3.17-0.859,4.72
				c-3.721,10.19-19.37,19.09-41.94,24.95c-14.83,3.86-32.65,6.4-52.03,7.14c-3.85,0.14-7.76,0.22-11.72,0.22
				c-41.01,0-76.6-8.05-94.41-19.86c-7.75-5.13-12.13-10.97-12.13-17.17"/>
			<path style="fill:none;stroke:#231F20;stroke-width:21;" d="M435,410.99c-1.04,3.12-0.18,135.97-0.03,159.43
				c0.021,2.271,0.03,3.521,0.03,3.521"/>
			
				<line style="fill:none;stroke:#231F20;stroke-width:21;stroke-linecap:round;stroke-linejoin:round;" x1="355.24" y1="436.06" x2="432.72" y2="447.46"/>
			
				<line style="fill:none;stroke:#231F20;stroke-width:21;stroke-linecap:round;stroke-linejoin:round;" x1="354.67" y1="479.36" x2="431.58" y2="491.9"/>
			
				<line style="fill:none;stroke:#231F20;stroke-width:21;stroke-linecap:round;stroke-linejoin:round;" x1="354.67" y1="522.1" x2="430.45" y2="534.06"/>
			
				<line style="fill:none;stroke:#231F20;stroke-width:21;stroke-linecap:round;stroke-linejoin:round;" x1="497.25" y1="425.81" x2="438.99" y2="444.04"/>
			
				<line style="fill:none;stroke:#231F20;stroke-width:21;stroke-linecap:round;stroke-linejoin:round;" x1="497.68" y1="469.11" x2="439.85" y2="488.48"/>
			
				<line style="fill:none;stroke:#231F20;stroke-width:21;stroke-linecap:round;stroke-linejoin:round;" x1="497.69" y1="511.84" x2="440.7" y2="530.64"/>
			
				<line style="fill:none;stroke:#231F20;stroke-width:21;stroke-linecap:round;stroke-linejoin:round;" x1="420.48" y1="572.23" x2="420.48" y2="621.8"/>
			
				<line style="fill:none;stroke:#231F20;stroke-width:7;stroke-linecap:round;stroke-linejoin:round;" x1="309.37" y1="193.92" x2="321.34" y2="248.61"/>
			
				<line style="fill:none;stroke:#231F20;stroke-width:7;stroke-linecap:round;stroke-linejoin:round;" x1="352.11" y1="187.08" x2="360.65" y2="253.74"/>
			
				<line style="fill:none;stroke:#231F20;stroke-width:7;stroke-linecap:round;stroke-linejoin:round;" x1="494.83" y1="184.52" x2="487.14" y2="247.76"/>
			
				<line style="fill:none;stroke:#231F20;stroke-width:7;stroke-linecap:round;stroke-linejoin:round;" x1="540.98" y1="193.06" x2="529.87" y2="246.05"/>
			<path style="fill:none;stroke:#231F20;stroke-width:21;" d="M424.75,199.62c23.59,0,42.73,7.14,42.73,15.95
				s-19.141,15.96-42.73,15.96c-23.61,0-42.74-7.15-42.74-15.96S401.14,199.62,424.75,199.62z"/>
			
				<rect x="407.52" y="232.66" style="fill:none;stroke:#231F20;stroke-width:14;stroke-linecap:round;stroke-linejoin:round;" width="35.32" height="21.65"/>
			<polyline style="fill:none;stroke:#231F20;stroke-width:0.25;" points="330.25,416.25 329.73,406.4 328.63,385.43 328.25,378.25 
							"/>
			<polygon style="fill:none;stroke:#000000;stroke-width:7;stroke-linecap:round;stroke-linejoin:round;" points="123.02,249.77 
				137.47,257.12 134.71,241.55 146.4,230.52 130.25,228.25 123.02,214.08 115.8,228.25 99.64,230.52 111.33,241.55 108.57,257.12 
							"/>
			<polygon style="fill:none;stroke:#000000;stroke-width:7;stroke-linecap:round;stroke-linejoin:round;" points="684.47,183.77 
				698.92,191.12 696.16,175.55 707.85,164.52 691.7,162.25 684.47,148.08 677.25,162.25 661.09,164.52 672.78,175.55 
				670.02,191.12 			"/>
			<polygon style="fill:none;stroke:#000000;stroke-width:7;stroke-linecap:round;stroke-linejoin:round;" points="358.56,116.47 
				373.01,123.82 370.25,108.25 381.94,97.22 365.79,94.95 358.56,80.78 351.34,94.95 335.18,97.22 346.87,108.25 344.11,123.82 			
				"/>
			<polygon style="fill:none;stroke:#000000;stroke-width:7;stroke-linecap:round;stroke-linejoin:round;" points="538.47,711.77 
				552.92,719.12 550.16,703.55 561.85,692.52 545.7,690.25 538.47,676.08 531.25,690.25 515.09,692.52 526.78,703.55 
				524.02,719.12 			"/>
			<polygon style="fill:none;stroke:#000000;stroke-width:7;stroke-linecap:round;stroke-linejoin:round;" points="280.47,735.77 
				294.92,743.12 292.16,727.55 303.85,716.52 287.7,714.25 280.47,700.08 273.25,714.25 257.09,716.52 268.78,727.55 
				266.02,743.12 			"/>
		</g>
	</g>
</g>
<rect x="0.25" y="0.25" style="fill:none;" width="850.394" height="850.394"/>
</svg>
