<svg xmlns="http://www.w3.org/2000/svg" width="850.89" height="850.89" viewBox="0 0 850.89 850.89" overflow="visible"><path fill="#ffffc2" d="M303.85 716.52l-11.69 11.03 2.76 15.57-14.45-7.35-14.45 7.35 2.76-15.57-11.69-11.03 16.16-2.27 7.22-14.17 7.23 14.17zM561.85 692.52l-11.69 11.03 2.76 15.57-14.45-7.35-14.45 7.35 2.76-15.57-11.69-11.03 16.16-2.27 7.22-14.17 7.23 14.17zM707.85 164.52l-11.69 11.03 2.76 15.57-14.45-7.35-14.45 7.35 2.76-15.57-11.69-11.03 16.16-2.27 7.22-14.17 7.23 14.17zM381.94 97.22l-11.69 11.03 2.76 15.57-14.45-7.35-14.45 7.35 2.76-15.57-11.69-11.03 16.16-2.27 7.22-14.17 7.23 14.17zM146.4 230.52l-11.69 11.03 2.76 15.57-14.45-7.35-14.45 7.35 2.76-15.57-11.69-11.03 16.16-2.27 7.22-14.17 7.23 14.17z"/><path fill="#a9d7f3" d="M523.07 398.97l154.68 30.11-.03.14v185.74l-1.63 4.71-155.62-53.71V412.61z"/><path fill="#a9d7f3" d="M677.72 614.96V429.22l.03-.14L778 448.6v206.25l-101.91-35.17v-.01z"/><path d="M583.98 229.21l-55.21 143.78-.039-.01c-3.721 10.19-19.37 19.09-41.94 24.95l-.51-4.03 42.17-140.16-.62-3.2c.96-.18 1.91-.37 2.84-.57 25.869-5.31 44.869-12.53 53.309-20.76z" fill="#7a7878"/><path d="M541.35 191.53c29.37 7.21 47.49 17.11 47.49 28.03 0 3.33-1.68 6.56-4.859 9.65-8.44 8.23-27.44 15.45-53.311 20.76l-.8-3.92 11.11-52.99.37-1.53z" fill="#c8c8c8"/><path d="M424.75 199.62c23.59 0 42.73 7.14 42.73 15.95s-19.141 15.96-42.73 15.96c-23.61 0-42.74-7.15-42.74-15.96s19.13-15.95 42.74-15.95zM407.52 232.66h35.32v21.65h-35.32z" fill="#7a7878"/><path d="M434.97 570.42c-.149-23.46-1.01-156.31.03-159.43l-.24-5.92c19.38-.74 37.2-3.28 52.03-7.14 22.57-5.86 38.22-14.76 41.94-24.95l.039.01-1.47 3.82-4.229 22.16-2.601-.51v140.15l-79.76 33.05-5.739-1.24zM442.84 232.66h-35.32v21.65h35.32v-21.65zm-18.09-1.13c23.59 0 42.73-7.15 42.73-15.96s-19.141-15.95-42.73-15.95c-23.61 0-42.74 7.14-42.74 15.95s19.13 15.96 42.74 15.96zm-64.1 22.21l-8.54-66.66-.4-3.35c21.87-2.6 46.46-4.06 72.47-4.06 45.85 0 87.32 4.54 117.169 11.86l-.369 1.53-11.11 52.99.8 3.92c-.93.2-1.88.39-2.84.57-28.3 5.57-64.37 8.9-103.65 8.9-22.62 0-44.18-1.11-63.79-3.11l.26-2.59z" fill="#c8c8c8"/><path d="M329.03 406.44l.7-.04-1.1-20.97c17.81 11.81 53.4 19.86 94.41 19.86 3.96 0 7.87-.08 11.72-.22l.24 5.92c-1.04 3.12-.18 135.97-.03 159.43l-102.72-22.17h-3.22V406.44zM352.11 187.08l8.54 66.66-.26 2.59c-14.29-1.45-27.55-3.38-39.44-5.71l.39-2.01-11.97-54.69-.66-2.8c12.54-2.99 27.04-5.49 43-7.39l.4 3.35z" fill="#c8c8c8"/><path fill="#a9d7f3" d="M171.75 437.06l157.28-30.62v167.5l-155.62 53.71-1.63-4.71V437.2z"/><path d="M316.62 368.21l-54.25-141.23c7.38 9.5 28.68 17.81 58.58 23.64 11.89 2.33 25.15 4.26 39.44 5.71 19.61 2 41.17 3.11 63.79 3.11 39.28 0 75.35-3.33 103.65-8.9l.62 3.2-42.17 140.16.51 4.03c-14.83 3.86-32.65 6.4-52.03 7.14-3.85.14-7.76.22-11.72.22-41.01 0-76.6-8.05-94.41-19.86-7.75-5.13-12.13-10.97-12.13-17.17l.12-.05z" fill="#7a7878"/><path d="M309.37 193.92l11.97 54.69-.39 2.01c-29.9-5.83-51.2-14.14-58.58-23.64l-2.85-7.42c0-11.13 18.83-21.2 49.19-28.44l.66 2.8z" fill="#c8c8c8"/><path fill="#a9d7f3" d="M173.41 627.65L71.5 662.82V456.58l100.25-19.52.03.14v185.74z"/><g fill="none"><path stroke="#231f20" stroke-width="21" d="M329.03 406.44v167.5l-155.62 53.71L71.5 662.82V456.58l100.25-19.52zM171.78 437.2v185.74M262.25 424.25l.69 164.5M523.07 398.97l-2.6-.51v167.5l155.62 53.71v.01L778 654.85V448.6l-100.25-19.52zM677.72 429.22v185.74M586.25 416.25l.31 164.53M541.35 191.53c29.37 7.21 47.49 17.11 47.49 28.03 0 3.33-1.68 6.56-4.859 9.65-8.44 8.23-27.44 15.45-53.311 20.76-.93.2-1.88.39-2.84.57-28.3 5.57-64.37 8.9-103.65 8.9-22.62 0-44.18-1.11-63.79-3.11-14.29-1.45-27.55-3.38-39.44-5.71-29.9-5.83-51.2-14.14-58.58-23.64-1.87-2.41-2.85-4.89-2.85-7.42 0-11.13 18.83-21.2 49.19-28.44 12.54-2.99 27.04-5.49 43-7.39 21.87-2.6 46.46-4.06 72.47-4.06 45.85 0 87.32 4.54 117.17 11.86z"/><path stroke="#231f20" stroke-width="21" d="M259.52 219.56l2.85 7.42 54.25 141.23 3.3 8.6M587.69 219.56l-3.71 9.65-55.21 143.78-1.47 3.82M332.25 548.25l102.72 22.17 5.74 1.24 79.76-33.05"/><path stroke="#231f20" stroke-width="14" d="M329.03 253.74l23.93 135.6M396.26 265.14l2.28 132.18M461.21 266.27l-12.53 131.05M528.45 253.74L486.28 393.9"/><path d="M529.59 368.26c0 1.6-.29 3.17-.859 4.72-3.721 10.19-19.37 19.09-41.94 24.95-14.83 3.86-32.65 6.4-52.03 7.14-3.85.14-7.76.22-11.72.22-41.01 0-76.6-8.05-94.41-19.86-7.75-5.13-12.13-10.97-12.13-17.17M435 410.99c-1.04 3.12-.18 135.97-.03 159.43.021 2.271.03 3.521.03 3.521" stroke="#231f20" stroke-width="21"/><path stroke="#231f20" stroke-width="21" stroke-linecap="round" stroke-linejoin="round" d="M355.24 436.06l77.48 11.4M354.67 479.36l76.91 12.54M354.67 522.1l75.78 11.96M497.25 425.81l-58.26 18.23M497.68 469.11l-57.83 19.37M497.69 511.84l-56.99 18.8M420.48 572.23v49.57"/><path stroke="#231f20" stroke-width="7" stroke-linecap="round" stroke-linejoin="round" d="M309.37 193.92l11.97 54.69M352.11 187.08l8.54 66.66M494.83 184.52l-7.69 63.24M540.98 193.06l-11.11 52.99"/><path d="M424.75 199.62c23.59 0 42.73 7.14 42.73 15.95s-19.141 15.96-42.73 15.96c-23.61 0-42.74-7.15-42.74-15.96s19.13-15.95 42.74-15.95z" stroke="#231f20" stroke-width="21"/><path stroke="#231f20" stroke-width="14" stroke-linecap="round" stroke-linejoin="round" d="M407.52 232.66h35.32v21.65h-35.32z"/><path stroke="#231f20" stroke-width=".25" d="M330.25 416.25l-.52-9.85-1.1-20.97-.38-7.18"/><path stroke="#000" stroke-width="7" stroke-linecap="round" stroke-linejoin="round" d="M123.02 249.77l14.45 7.35-2.76-15.57 11.69-11.03-16.15-2.27-7.23-14.17-7.22 14.17-16.16 2.27 11.69 11.03-2.76 15.57zM684.47 183.77l14.45 7.35-2.76-15.57 11.69-11.03-16.15-2.27-7.23-14.17-7.22 14.17-16.16 2.27 11.69 11.03-2.76 15.57zM358.56 116.47l14.45 7.35-2.76-15.57 11.69-11.03-16.15-2.27-7.23-14.17-7.22 14.17-16.16 2.27 11.69 11.03-2.76 15.57zM538.47 711.77l14.45 7.35-2.76-15.57 11.69-11.03-16.15-2.27-7.23-14.17-7.22 14.17-16.16 2.27 11.69 11.03-2.76 15.57zM280.47 735.77l14.45 7.35-2.76-15.57 11.69-11.03-16.15-2.27-7.23-14.17-7.22 14.17-16.16 2.27 11.69 11.03-2.76 15.57z"/></g><path fill="none" d="M.25.25h850.394v850.394H.25z"/></svg>