<svg xmlns="http://www.w3.org/2000/svg" width="850.394" height="850.394" viewBox="0 0 850.394 850.394" overflow="visible"><path d="M688.94 350.88c-6.69.5-43 6.89-66.65 10.68-22.76 3.49-45.7 6.39-68.55 9.28-44.01 5.59-187.39 16.56-198.17 28.14-12.87 13.77-6.78 22.35 1.6 26.14 4.19 1.899 8.88 2.7 12.17 2.3 82.521-8.98 185.8-23.45 268.41-32.83 17.86-2 53.98-4.69 67.16-18.66 4.59-4.89 5.479-9.28 4.09-13.08-2.4-6.68-11.78-11.27-20.06-11.97zM379.12 786.13c-10.97-3.7-21.25-9.18-30.43-17.26-22.55-19.76-34.13-46.601-38.82-76.24-2.29-14.46 3.29-132.31 1.8-150.27-3.79-45.301 2.69-89.601 2.69-135.101 0-22.05 11.78-51.49 33.23-57.77 40.01-11.88 94.101-14.17 140.49-16.67 50.2-2.7 85.2-14.89 146.27-29.25 1.94-.46 3.91-.92 5.9-1.38 4.79-1.2 9.68-2.3 14.77-3.39 34.12-7.49 54.271 23.85 65.45 60.76 7.88 25.65 11.48 54.18 12.471 74.04 2.199 42.61-1.79 85.42.31 128.021 1.89 36.02 8.37 73.74-1.8 108.86-22.251 76.13-112.551 76.74-176.711 92.7-40.521 10.181-95.101 30.53-142.99 28.431-11.28-.401-22.25-2.091-32.63-5.481z" fill="#0b00ea"/><path d="M709 362.85c1.39 3.8.5 8.19-4.09 13.08-13.18 13.97-49.3 16.66-67.16 18.66-82.61 9.38-185.89 23.85-268.41 32.83-3.29.4-7.98-.4-12.17-2.3-8.38-3.79-14.47-12.37-1.6-26.14 10.78-11.58 154.161-22.55 198.17-28.14 22.85-2.89 45.79-5.79 68.55-9.28 23.65-3.79 59.96-10.18 66.65-10.68 8.28.7 17.66 5.29 20.06 11.97z" fill="#a3d9ff"/><path d="M630.59 283.4c-16.25 3.19-33.51 3.52-48.71 3.52-42.91 0-83.92 5.29-125.53 12.87-21.75 3.9-44.1 5.99-65.66 11.68-19.95 5.29-44.5 7.88-63.65 14.27-17.27 5.79-37.13 16.06-46.7-.6-17.87-31.03-19.16-40.31-25.55-62.56-7.18-25.15-17.86-63.46-15.86-88.01.3-4.69 1.2-8.88 2.59-12.37 1.2-3.1 2.9-5.59 4.99-7.49 24.85-20.15 55.58-20.85 86.91-22.65a3572.6 3572.6 0 0 0 47.3-2.99c.09-.01.17-.01.26-.02 13.29-.89 26.47-1.77 39.76-2.85.1 0 .19-.01.29-.02 18.161-1.3 36.31-2.8 54.38-4.3 26.54-2.29 59.97-10.97 88.51-8.08 4.89.5 9.67 1.3 14.26 2.6 41.82 11.77 67.96 82.81 85.62 119.03 8.38 17.07 13.46 28.24-5.689 38.62-6.88 3.79-14.57 6.39-22.551 8.28-1.64.39-3.3.75-4.97 1.07z" fill="#787878"/><path d="M379.12 786.13c10.38 3.39 21.35 5.08 32.63 5.48v.109c-21.95 7.58-96.19 2.99-125.12-8.489-45.9-18.15-67.76-31.23-79.63-78.02-1.3-5.29-2.4-11.67-3.2-18.77-3.79-32.521-2.59-80.11-1.49-104.66.89-18.471-23.45-407.21 36.62-407.21-2 24.55 8.68 62.86 15.86 88.01 6.39 22.25 7.68 31.53 25.55 62.56 9.57 16.66 29.43 6.39 46.7.6 19.15-6.39 43.7-8.98 63.65-14.27 21.56-5.69 43.91-7.78 65.66-11.68 41.61-7.58 82.62-12.87 125.53-12.87 15.2 0 32.46-.33 48.71-3.52-.03 1.81-.04 3.63.12 5.29.38 4.02 1.59 7.66 2.68 11.35.341 1.16.67 2.34.96 3.53-61.069 14.36-96.069 26.55-146.27 29.25-46.39 2.5-100.48 4.79-140.49 16.67-21.45 6.28-33.23 35.72-33.23 57.77 0 45.5-6.48 89.8-2.69 135.101 1.49 17.96-4.09 135.81-1.8 150.27 4.69 29.64 16.27 56.48 38.82 76.24 9.18 8.079 19.46 13.559 30.43 17.259z" fill="#a3d9ff"/><path d="M563.92 113.8c-28.54-2.89-61.97 5.79-88.51 8.08-18.07 1.5-36.22 3-54.38 4.3-.1.01-.19.02-.29.02l-.03-.44c1.17-7.46 1.23-14.73 3.62-22.01 8.58-26.11 34.7-51.69 63.55-51.61 12.38 0 23.561 2.59 33.13 10.87 9.58 8.29 17.96 25.85 42.91 50.79zM246.51 154.71c-2.09 1.9-3.79 4.39-4.99 7.49-1.39 3.49-2.29 7.68-2.59 12.37-60.07 0-35.73 388.74-36.62 407.21-1.1 24.55-2.3 72.14 1.49 104.66-12.57-12.471-23.65-18.95-37.41-32.721-7.79-7.779-24.55-30.63-30.74-66.05-9.27-52.689-5.59-135.01-3.19-196.87 2.59-69.45 10.88-146.18 23.45-203.16 6.58-29.74 14.27-54.08 22.95-69.35 16.05-28.25 46.99-39.78 77.55-43.54 31.48-3.88 65.3 3.06 93.49 17.59 7.11 3.66 13.56 8.35 18.66 14.56 2.57 3.13 4.75 6.55 6.72 10.08 1.5 2.69 5.65 8.26 5.65 11.32l.05.75c-.09.01-.17.01-.26.02a3572.6 3572.6 0 0 1-47.3 2.99c-31.33 1.801-62.06 2.501-86.91 22.651z" fill="#787878"/><g fill="none" stroke="#000" stroke-width="28.092"><path d="M634.35 303.57c1.94-.46 3.91-.92 5.9-1.38 4.79-1.2 9.68-2.3 14.77-3.39 34.12-7.49 54.271 23.85 65.45 60.76 7.88 25.65 11.48 54.18 12.471 74.04 2.199 42.61-1.79 85.42.31 128.021 1.89 36.02 8.37 73.74-1.8 108.86C709.2 746.61 618.9 747.22 554.74 763.18c-40.521 10.181-95.101 30.53-142.99 28.431-11.28-.4-22.25-2.091-32.63-5.48-10.97-3.7-21.25-9.18-30.43-17.26-22.55-19.76-34.13-46.601-38.82-76.24-2.29-14.46 3.29-132.31 1.8-150.27-3.79-45.301 2.69-89.601 2.69-135.101 0-22.05 11.78-51.49 33.23-57.77 40.01-11.88 94.101-14.17 140.49-16.67 50.2-2.7 85.2-14.89 146.27-29.25zM243.32 157.31c1.1-1 2.09-1.9 3.19-2.6 24.85-20.15 55.58-20.85 86.91-22.65a3572.6 3572.6 0 0 0 47.3-2.99c.09-.01.17-.01.26-.02 13.29-.89 26.47-1.77 39.76-2.85.1 0 .19-.01.29-.02 18.161-1.3 36.31-2.8 54.38-4.3 26.54-2.29 59.97-10.97 88.51-8.08 4.89.5 9.67 1.3 14.26 2.6 41.82 11.77 67.96 82.81 85.62 119.03 8.38 17.07 13.46 28.24-5.689 38.62-6.88 3.79-14.57 6.39-22.551 8.28-1.64.39-3.3.75-4.97 1.07-16.25 3.19-33.51 3.52-48.71 3.52-42.91 0-83.92 5.29-125.53 12.87-21.75 3.9-44.1 5.99-65.66 11.68-19.95 5.29-44.5 7.88-63.65 14.27-17.27 5.79-37.13 16.06-46.7-.6-17.87-31.03-19.16-40.31-25.55-62.56-7.18-25.15-17.86-63.46-15.86-88.01.3-4.69 1.2-8.88 2.59-12.37 1.2-3.1 2.9-5.59 4.99-7.49M688.94 350.88c-1.4-.1-2.79-.1-4.091 0"/><path d="M688.94 350.88c-6.69.5-43 6.89-66.65 10.68-22.76 3.49-45.7 6.39-68.55 9.28-44.01 5.59-187.39 16.56-198.17 28.14-12.87 13.77-6.78 22.35 1.6 26.14 4.19 1.899 8.88 2.7 12.17 2.3 82.521-8.98 185.8-23.45 268.41-32.83 17.86-2 53.98-4.69 67.16-18.66 4.59-4.89 5.479-9.28 4.09-13.08-2.4-6.68-11.78-11.27-20.06-11.97zM689.54 350.88h-.6M356.87 425.82c-6.09 33.331 1.6 62.86 1.6 96.291 0 54.88-9.68 173.72-3.6 209.229 2.1 12.38 11.38 47.01 24.25 54.79 1.6.89 3.29 1.5 4.99 1.5"/><path d="M238.93 174.57c-60.07 0-35.73 388.74-36.62 407.21-1.1 24.55-2.3 72.14 1.49 104.66.8 7.1 1.9 13.479 3.2 18.77 11.87 46.79 33.73 59.87 79.63 78.021 28.93 11.479 103.17 16.069 125.12 8.489M420.71 125.76c1.17-7.46 1.23-14.73 3.62-22.01 8.58-26.11 34.7-51.69 63.55-51.61 12.38 0 23.561 2.59 33.13 10.87 9.58 8.29 17.96 25.85 42.91 50.79"/><path d="M380.93 128.3c0-3.06-4.15-8.63-5.65-11.32-1.97-3.53-4.15-6.95-6.72-10.08-5.1-6.21-11.55-10.9-18.66-14.56-28.19-14.53-62.01-21.47-93.49-17.59-30.56 3.76-61.5 15.29-77.55 43.54-8.68 15.27-16.37 39.61-22.95 69.35-12.57 56.98-20.86 133.71-23.45 203.16-2.4 61.86-6.08 144.181 3.19 196.87 6.19 35.42 22.95 58.271 30.74 66.05 13.76 13.771 24.84 20.25 37.41 32.721M235.14 158.9c-34.03-32.12-66.26-15.86-79.23 28.74M633.39 300.04c-1.09-3.69-2.3-7.33-2.68-11.35-.16-1.66-.15-3.48-.12-5.29 0-.27 0-.53.01-.8M634.47 304.05l-.12-.48c-.29-1.19-.619-2.37-.96-3.53"/></g><path fill="none" d="M0 0h850.394v850.394H0z"/></svg>