<?xml version="1.0" encoding="iso-8859-1"?>
<!-- Generator: Adobe Illustrator 12.0.1, SVG Export Plug-In . SVG Version: 6.00 Build 51448)  -->
<!DOCTYPE svg PUBLIC "-//W3C//DTD SVG 1.1//EN" "http://www.w3.org/Graphics/SVG/1.1/DTD/svg11.dtd" [
	<!ENTITY ns_svg "http://www.w3.org/2000/svg">
	<!ENTITY ns_xlink "http://www.w3.org/1999/xlink">
]>
<svg  version="1.1" id="Layer_1" xmlns="&ns_svg;" xmlns:xlink="&ns_xlink;" width="850.394" height="850.394"
	 viewBox="0 0 850.394 850.394" style="overflow:visible;enable-background:new 0 0 850.394 850.394;" xml:space="preserve">
<g id="XMLID_10_">
	<g>
		<path style="fill:#A3D9FF;" d="M569.9,660.8l19.729-47.439c-0.09-0.511-0.229-1.24-0.42-2.17c-4-19.66-29.08-127.381-36.479-78.57
			c-4.19,27.63-0.681,43.1,3.079,88.26l2.271,3.64c-65.14,23.07-180.34,24.04-258.5,6.021L304,628c0,0,41.16-102.89,71.37-133.1
			c17.95-17.94,109.7-112.42,181.25-186.18c8.03,6.5,15.13,14.26,20.38,23.53c13.59,23.98,36.44,77,57.46,132.01
			c19.71,51.601,37.8,104.95,45.12,137.721c0,29.619-64.94,104.319-64.94,104.319l-55.58-19.43L569.9,660.8z"/>
		<path style="fill:#787878;" d="M556.62,308.72c-71.55,73.76-163.3,168.24-181.25,186.18C345.16,525.11,304,628,304,628
			c0.94-12.24,2.17-26.56,4.14-41.76c4.96-38.3,14.62-82.26,36.25-113.03c22-31.3,103.59-115.73,173.14-185.94
			c20.12-20.31,39.22-39.42,55.59-55.72c23.84-23.74,41.87-41.49,48.7-48.22l20.279,37.19c-5.359,5.54-17.989,18.58-35.01,36.14
			C592.79,271.41,575.4,289.35,556.62,308.72z"/>
		<path style="fill:#C8C8C8;" d="M306.18,532.6c2.88,19.03,3.24,32.42,1.96,53.641c-1.97,15.2-3.2,29.52-4.14,41.76l-4.42,2.54
			c-10.94-2.521-21.16-5.42-30.41-8.68l-1.98,1.01l-4.86-9.53C264.34,602.07,298.43,481.48,306.18,532.6z"/>
		<path style="fill:#A3D9FF;" d="M517.53,287.27c-69.55,70.21-151.14,154.64-173.14,185.94c-21.63,30.771-31.29,74.73-36.25,113.03
			c1.28-21.221,0.92-34.61-1.96-53.641c-7.75-51.119-41.84,69.471-43.85,80.74l4.86,9.53l22.59,44.26l10.06,19.73l0.19-0.08
			l0.01,0.01c2.04,5.229,4.87,11.34,7.82,17.35l-63.6,2.141c0,0-64.21-59.4-71.88-104.32c8.62-38.63,34.46-105.81,59.97-165.04
			c19.21-44.62,38.24-84.73,49.55-104.69c26.34-46.48,98.96-54.63,98.96-54.63l0.44-0.42c7.63,7.97,16.26,14.19,25.51,18.28
			c8.24,3.65,14.25,2.71,23.64,2.71c10.149,0,16.85,0.62,25.63-3.62c9.28-4.48,17.92-11.13,25.479-19.55l2.44,1
			C484,276,495.86,279.22,517.53,287.27z"/>
		<path style="fill:#787878;" d="M589.63,613.36L569.9,660.8c-65.011,29.391-199.021,29.98-280.121,6.33l-22.59-44.26l1.98-1.01
			c9.25,3.26,19.47,6.159,30.41,8.68c78.16,18.02,193.36,17.05,258.5-6.021c9.9-3.51,18.64-7.52,25.92-12.06l5.21-1.27
			C589.4,612.12,589.54,612.85,589.63,613.36z"/>
		<path style="fill:#C8C8C8;" d="M634.7,315.95v148.22l-0.24,0.09c-21.02-55.01-43.87-108.03-57.46-132.01
			c-5.25-9.27-12.35-17.03-20.38-23.53c18.78-19.37,36.17-37.31,50.47-52.06l5.9,0.51C626.53,272.98,634.7,293.51,634.7,315.95z"/>
		<path style="fill:#FFEEC8;" d="M531.88,756.16c0.311-8.53,1.28-17.811,5.29-25.44c3.03-5.729,15.71-28.6,21.7-43.91l0.189,0.061
			l55.58,19.43c0,0,3.91,20.24,3.49,42.21c-0.03,2.04-3.09,13.45-15.75,28.71c-4.03,4.84-13.18,5.511-13.18,5.511
			c-16.32,0.47-54.931-2.73-56.26-7.341c-1.2-4.159-1.261-12.26-1.141-16.58C531.82,757.94,531.85,757.05,531.88,756.16z"/>
		<path style="fill:#C8C8C8;" d="M589.21,611.19l-5.21,1.27c-7.28,4.54-16.02,8.55-25.92,12.06l-2.271-3.64
			c-3.76-45.16-7.27-60.63-3.079-88.26C560.13,483.81,585.21,591.53,589.21,611.19z"/>
		<path style="fill:#C8C8C8;" d="M571.17,229.59l1.95,1.96c-16.37,16.3-35.47,35.41-55.59,55.72C495.86,279.22,484,276,484,276
			l-2.44-1c11.48-12.78,20.471-29.63,25.44-49.12c5.71,0.98,9.47-1.74,11.49-4.77l25.79,4.41
			C553.64,225.52,562.67,226.95,571.17,229.59z"/>
		<path style="fill:#FFEEC8;" d="M558.87,686.8v0.01c-5.99,15.311-18.67,38.181-21.7,43.91c-4.01,7.63-4.979,16.91-5.29,25.44
			c-14.1,5.5-35.21-12.47-18.479-20.53c13.359-6.439,36.77-31.03,45.229-48.91L558.87,686.8z"/>
		<path style="fill:#A3D9FF;" d="M511.14,171.95l0.92-0.01c1.381-0.5,2.881-0.77,4.49-0.77c0.75,0,1.54,0.06,2.34,0.19
			c9.5,1.52,8.23,12.19,5.62,17.52c-6.359,12.95-3.46,17.71-4.25,27.6c-0.109,1.29-0.689,3.01-1.77,4.63
			c-2.021,3.03-5.78,5.75-11.49,4.77c2.79-10.91,4.32-22.66,4.32-34.98c0-6.58-0.101-11.18-0.301-18.95H511.14z"/>
		<path style="fill:#9C5B16;" d="M450.46,101.71c-16.62,11.63-72.79,30.14-79.92,35.37c0,0-12.74,13.13-21.57,24.44
			c-3.17,4.06-5.84,7.88-7.23,10.78l-0.83-26.94c0-42.98,35.07-67.92,35.07-67.92c4.06-2.76,6.77-4.15,6.77-4.15
			c17.9-10.64,41.04-14.4,70.54-10.95c35.64,4.15,62.99,39.65,68.2,83.81c0.84,7.19-1.2,14.79-2.44,22.38l-2.5,2.64
			c-1.609,0-3.109,0.27-4.49,0.77l-0.92,0.01c-0.04-0.19-0.08-0.39-0.13-0.59c-3.279-13.16-17.55-24.37-21.21-29.43
			c-19.77-27.29-34.72-37.53-38.37-39.78c-0.569-0.35-0.859-0.51-0.859-0.51C450.53,101.66,450.5,101.69,450.46,101.71z"/>
		<path style="fill:#FFEEC8;" d="M480.09,176.84c-2.79-1.32-5.84-2.06-9.1-1.99c-4.45,0.1-9.01,1.95-12.45,4.89l2.65,0.01
			c0.02,0.3,0.1,0.61,0.1,1.3c0,4.9,4.18,8.86,9.31,8.86c5.11,0,9.28-3.96,9.28-8.86c0-1.34,0.09-1.95-0.24-2.73L480.09,176.84z
			 M507,225.88c-4.97,19.49-13.96,36.34-25.44,49.12c-7.56,8.42-16.199,15.07-25.479,19.55c-8.78,4.24-15.48,3.62-25.63,3.62
			c-9.39,0-15.4,0.94-23.64-2.71c-9.25-4.09-17.88-10.31-25.51-18.28c-12.27-12.84-21.9-30.2-27.2-50.46
			c-2.91-11.15-4.51-23.18-4.51-35.82c0-4.05,0.01-11.15,0.07-18.01c0.03-3.84,0.08-7.61,0.15-10.72l-0.84-0.65
			c8.83-11.31,21.57-24.44,21.57-24.44c7.13-5.23,63.3-23.74,79.92-35.37c0.18,0.16,0.521,0.31,0.97,0.44
			c3.65,2.25,18.601,12.49,38.37,39.78c3.66,5.06,17.931,16.27,21.21,29.43c0,0.2,0.01,0.39,0.01,0.59
			c0.2,7.77,0.301,12.37,0.301,18.95C511.32,203.22,509.79,214.97,507,225.88z M404.93,179.24c-3.3-2.49-7.45-4.03-11.49-4.12
			c-4.45-0.09-8.51,1.33-12.08,3.65l3.27,0.34c-0.13,0.58-0.07,1.18-0.07,2.22c0,4.89,4.16,8.86,9.29,8.86s9.28-3.97,9.28-8.86
			L404.93,179.24z M434.07,239.76c-0.13,0.02-0.271,0.05-0.41,0.07l0.78-0.06C434.31,239.77,434.19,239.77,434.07,239.76z"/>
		<path style="fill:#ABDA4D;" d="M480.09,176.84l-0.45,1.48c0.33,0.78,0.24,1.39,0.24,2.73c0,4.9-4.17,8.86-9.28,8.86
			c-5.13,0-9.31-3.96-9.31-8.86c0-0.69-0.08-1-0.1-1.3l-2.65-0.01c3.44-2.94,8-4.79,12.45-4.89
			C474.25,174.78,477.3,175.52,480.09,176.84z M470.54,184.12c1.84,0,3.34-1.34,3.34-2.99s-1.5-2.99-3.34-2.99
			c-1.86,0-3.35,1.34-3.35,2.99S468.68,184.12,470.54,184.12z"/>
		<path d="M473.88,181.13c0,1.65-1.5,2.99-3.34,2.99c-1.86,0-3.35-1.34-3.35-2.99s1.489-2.99,3.35-2.99
			C472.38,178.14,473.88,179.48,473.88,181.13z"/>
		<path style="fill:#ABDA4D;" d="M384.63,179.11l-3.27-0.34c3.57-2.32,7.63-3.74,12.08-3.65c4.04,0.09,8.19,1.63,11.49,4.12
			l-1.8,2.09c0,4.89-4.15,8.86-9.28,8.86s-9.29-3.97-9.29-8.86C384.56,180.29,384.5,179.69,384.63,179.11z M397.17,181.15
			c0-1.65-1.51-2.99-3.36-2.99s-3.35,1.34-3.35,2.99s1.5,2.99,3.35,2.99S397.17,182.8,397.17,181.15z"/>
		<path d="M393.81,178.16c1.85,0,3.36,1.34,3.36,2.99s-1.51,2.99-3.36,2.99s-3.35-1.34-3.35-2.99S391.96,178.16,393.81,178.16z"/>
		<path style="fill:#C8C8C8;" d="M381.3,277.18l-0.44,0.42c0,0-72.62,8.15-98.96,54.63c-11.31,19.96-30.34,60.07-49.55,104.69
			l-1.95-0.61V315.95c0-49.94,40.48-90.43,90.42-90.43l21.79-2.82c2.14,2.81,5.86,5.11,11.32,4.07l0.17-0.05
			C359.4,246.98,369.03,264.34,381.3,277.18z"/>
		<path style="fill:#FFEEC8;" d="M342.61,222.7c-1.38-1.8-2.11-3.81-2.23-5.28c-0.8-9.88,2.1-14.65-4.25-27.6
			c-2.61-5.33-3.9-16,5.61-17.52c2.5-0.4,4.79-0.15,6.83,0.58l1.09,0.01c-0.06,6.86-0.07,13.96-0.07,18.01
			c0,12.64,1.6,24.67,4.51,35.82l-0.17,0.05C348.47,227.81,344.75,225.51,342.61,222.7z"/>
		<path style="fill:#FFEEC8;" d="M345.51,735.62c16.72,8.06-4.39,26.03-18.49,20.53c-0.31-8.53-1.27-17.82-5.29-25.45
			c-1.99-3.771-8.17-14.98-13.87-26.561l3.44-0.12C321.92,717.76,336.17,731.13,345.51,735.62z"/>
		<path style="fill:#FFEEC8;" d="M327.02,756.15c0.03,0.89,0.06,1.779,0.08,2.649c0.12,4.32,0.06,12.41-1.14,16.58
			c-1.33,4.59-39.94,7.811-56.25,7.33c0,0-9.16-0.66-13.19-5.51c-12.66-15.25-15.71-26.66-15.75-28.7
			c-0.41-21.97,3.49-42.22,3.49-42.22l63.6-2.141c5.7,11.58,11.88,22.79,13.87,26.561C325.75,738.33,326.71,747.62,327.02,756.15z"
			/>
	</g>
	<g>
		<path style="fill:none;stroke:#231F20;stroke-width:14;" d="M510.98,170.35c0.01,0.34,0.02,0.68,0.029,1.01
			c0,0.2,0.01,0.39,0.01,0.59c0.2,7.77,0.301,12.37,0.301,18.95c0,12.32-1.53,24.07-4.32,34.98c-4.97,19.49-13.96,36.34-25.44,49.12
			c-7.56,8.42-16.199,15.07-25.479,19.55"/>
		<path style="fill:none;stroke:#231F20;stroke-width:5.207;stroke-linecap:square;stroke-miterlimit:10;" d="M374.18,185.31
			c2.09-2.52,4.49-4.79,7.18-6.54c3.57-2.32,7.63-3.74,12.08-3.65c4.04,0.09,8.19,1.63,11.49,4.12c1.98,1.5,3.66,3.33,4.83,5.41"/>
		<path style="fill:none;stroke:#231F20;stroke-width:5.207;stroke-linecap:square;stroke-miterlimit:10;" d="M403.13,181.33
			c0,4.89-4.15,8.86-9.28,8.86s-9.29-3.97-9.29-8.86c0-1.04-0.06-1.64,0.07-2.22c0.03-0.1,0.05-0.2,0.09-0.3"/>
		<path style="fill:none;stroke:#231F20;stroke-width:5.207;stroke-linecap:square;stroke-miterlimit:10;" d="M490.25,185.04
			c-2.83-3.42-6.25-6.37-10.16-8.2c-2.79-1.32-5.84-2.06-9.1-1.99c-4.45,0.1-9.01,1.95-12.45,4.89c-1.55,1.33-2.88,2.9-3.86,4.63"/>
		<path style="fill:none;stroke:#231F20;stroke-width:5.207;stroke-linecap:square;stroke-miterlimit:10;" d="M461.19,179.75
			c0.02,0.3,0.1,0.61,0.1,1.3c0,4.9,4.18,8.86,9.31,8.86c5.11,0,9.28-3.96,9.28-8.86c0-1.34,0.09-1.95-0.24-2.73"/>
		<path style="fill:none;stroke:#231F20;stroke-width:14;" d="M348.57,172.88c-2.04-0.73-4.33-0.98-6.83-0.58
			c-9.51,1.52-8.22,12.19-5.61,17.52c6.35,12.95,3.45,17.72,4.25,27.6c0.12,1.47,0.85,3.48,2.23,5.28
			c2.14,2.81,5.86,5.11,11.32,4.07"/>
		<path style="fill:none;stroke:#231F20;stroke-width:14;" d="M512.06,171.94c1.381-0.5,2.881-0.77,4.49-0.77
			c0.75,0,1.54,0.06,2.34,0.19c9.5,1.52,8.23,12.19,5.62,17.52c-6.359,12.95-3.46,17.71-4.25,27.6c-0.109,1.29-0.689,3.01-1.77,4.63
			c-2.021,3.03-5.78,5.75-11.49,4.77c-0.09-0.01-0.19-0.03-0.29-0.05"/>
		<path style="fill:none;stroke:#231F20;stroke-width:7;" d="M411.5,263.36c11.67,4.66,30.21,4.11,40.15-0.22"/>
		<path style="fill:none;stroke:#231F20;stroke-width:14;" d="M406.81,295.46c-9.25-4.09-17.88-10.31-25.51-18.28
			c-12.27-12.84-21.9-30.2-27.2-50.46c-2.91-11.15-4.51-23.18-4.51-35.82c0-4.05,0.01-11.15,0.07-18.01
			c0.03-3.84,0.08-7.61,0.15-10.72"/>
		<path style="fill:none;stroke:#231F20;stroke-width:14;" d="M456.08,294.55c-8.78,4.24-15.48,3.62-25.63,3.62
			c-9.39,0-15.4,0.94-23.64-2.71"/>
		<path style="fill:none;stroke:#231F20;stroke-width:7;" d="M434.07,239.76c4.37-0.84,3.6-3.43,8.319-2.28
			c4.11,0.99,8.45,3.03,9.46-3.38c0.71-4.4-2.6-4.98-4.359-8.52"/>
		<path style="fill:none;stroke:#231F20;stroke-width:7;" d="M434.07,239.76c0.12,0.01,0.239,0.01,0.37,0.01l-0.78,0.06
			C433.8,239.81,433.94,239.78,434.07,239.76z"/>
		<path style="fill:none;stroke:#231F20;stroke-width:7;" d="M420.17,184.83c7.35,8.07,5.12,27,1.83,36.87l-1.38,3.84
			c-1.76,3.53-5.07,4.11-4.37,8.52c1.02,6.4,5.37,4.35,9.46,3.38c4.75-1.16,3.64,2.16,8.36,2.32"/>
		<path style="fill:none;stroke:#231F20;stroke-width:5.207;" d="M397.17,181.15c0,1.65-1.51,2.99-3.36,2.99s-3.35-1.34-3.35-2.99
			s1.5-2.99,3.35-2.99S397.17,179.5,397.17,181.15z"/>
		<path style="fill:none;stroke:#231F20;stroke-width:5.207;" d="M473.88,181.13c0,1.65-1.5,2.99-3.34,2.99
			c-1.86,0-3.35-1.34-3.35-2.99s1.489-2.99,3.35-2.99C472.38,178.14,473.88,179.48,473.88,181.13z"/>
		<path style="fill:none;stroke:#231F20;stroke-width:7;" d="M415.3,170.04c-3.96-8.35-19.47-11.61-27.31-10.04
			c-7.39,1.48-11.04,2.36-18.74,8.33"/>
		<path style="fill:none;stroke:#231F20;stroke-width:7;" d="M447.43,168.21c3.96-8.34,19.46-11.6,27.301-10.04
			c7.399,1.48,11.05,2.36,18.739,8.32"/>
		<path style="fill:none;stroke:#231F20;stroke-width:14;" d="M519.05,168.53c1.24-7.59,3.28-15.19,2.44-22.38
			c-5.21-44.16-32.561-79.66-68.2-83.81c-29.5-3.45-52.64,0.31-70.54,10.95c0,0-2.71,1.39-6.77,4.15c0,0-35.07,24.94-35.07,67.92
			l0.83,26.94c1.39-2.9,4.06-6.72,7.23-10.78c8.83-11.31,21.57-24.44,21.57-24.44c7.13-5.23,63.3-23.74,79.92-35.37
			c0.04-0.02,0.07-0.05,0.11-0.07c0,0,0.29,0.16,0.859,0.51c3.65,2.25,18.601,12.49,38.37,39.78c3.66,5.06,17.931,16.27,21.21,29.43
			c0.05,0.2,0.09,0.4,0.13,0.59c0.271,1.19,0.44,2.4,0.511,3.62"/>
		<path style="fill:none;stroke:#231F20;stroke-width:14;" d="M457.06,102.88c-0.829,0.01-3.939-0.24-5.63-0.73
			c-0.449-0.13-0.79-0.28-0.97-0.44c-0.07-0.05-0.11-0.11-0.13-0.17c5.09-4.97,9.13-13.08,9.13-21.3"/>
		<path style="fill:none;stroke:#231F20;stroke-width:21;" d="M305.48,621.13c1.17-14.07,2.08-25.29,2.66-34.89
			c1.28-21.221,0.92-34.61-1.96-53.641c-7.75-51.119-41.84,69.471-43.85,80.74l4.86,9.53l22.59,44.26l10.06,19.73"/>
		<path style="fill:none;stroke:#231F20;stroke-width:21;stroke-miterlimit:10;" d="M298.82,683.52c0.36,1.04,0.77,2.131,1.21,3.261
			l0.01,0.01c2.04,5.229,4.87,11.34,7.82,17.35c5.7,11.58,11.88,22.79,13.87,26.561c4.02,7.63,4.98,16.92,5.29,25.45
			c0.03,0.89,0.06,1.779,0.08,2.649c0.12,4.32,0.06,12.41-1.14,16.58c-1.33,4.59-39.94,7.811-56.25,7.33c0,0-9.16-0.66-13.19-5.51
			c-12.66-15.25-15.71-26.66-15.75-28.7c-0.41-21.97,3.49-42.22,3.49-42.22s-64.21-59.4-71.88-104.32
			c8.62-38.63,34.46-105.81,59.97-165.04c19.21-44.62,38.24-84.73,49.55-104.69c26.34-46.48,98.96-54.63,98.96-54.63"/>
		<path style="fill:none;stroke:#231F20;stroke-width:21;stroke-miterlimit:10;" d="M300.27,686.7
			c2.55,5.39,6.45,11.39,11.03,17.319c10.62,13.74,24.87,27.11,34.21,31.601c16.72,8.06-4.39,26.03-18.49,20.53
			c-0.33-0.12-0.66-0.261-0.99-0.42"/>
		<path style="fill:none;stroke:#231F20;stroke-width:21;stroke-miterlimit:10;" d="M624.82,180.39c0,0-1.04,1.02-3,2.94
			c-6.83,6.73-24.86,24.48-48.7,48.22c-16.37,16.3-35.47,35.41-55.59,55.72c-69.55,70.21-151.14,154.64-173.14,185.94
			c-21.63,30.771-31.29,74.73-36.25,113.03c-1.97,15.2-3.2,29.52-4.14,41.76"/>
		<path style="fill:none;stroke:#231F20;stroke-width:21;stroke-miterlimit:10;" d="M304,628c0,0,41.16-102.89,71.37-133.1
			c17.95-17.94,109.7-112.42,181.25-186.18c18.78-19.37,36.17-37.31,50.47-52.06c17.021-17.56,29.65-30.6,35.01-36.14
			c1.87-1.92,2.86-2.94,2.86-2.94"/>
		<path style="fill:none;stroke:#231F20;stroke-width:21;" d="M205.76,614.08c18.66-7.67,51.12-9.74,55.77,4.65"/>
		<path style="fill:none;stroke:#231F20;stroke-width:21;" d="M555.81,620.88c-3.76-45.16-7.27-60.63-3.079-88.26
			c7.399-48.811,32.479,58.91,36.479,78.57c0.19,0.93,0.33,1.659,0.42,2.17L569.9,660.8l-10.841,26.07"/>
		<path style="fill:none;stroke:#231F20;stroke-width:21;stroke-miterlimit:10;" d="M517.54,287.27h-0.01
			C495.86,279.22,484,276,484,276"/>
		<path style="fill:none;stroke:#231F20;stroke-width:21;stroke-miterlimit:10;" d="M558.87,686.81
			c-5.99,15.311-18.67,38.181-21.7,43.91c-4.01,7.63-4.979,16.91-5.29,25.44c-0.03,0.89-0.06,1.78-0.08,2.649
			c-0.12,4.32-0.06,12.421,1.141,16.58c1.329,4.61,39.939,7.811,56.26,7.341c0,0,9.149-0.671,13.18-5.511
			c12.66-15.26,15.72-26.67,15.75-28.71c0.42-21.97-3.49-42.21-3.49-42.21s64.94-74.7,64.94-104.319
			c-7.32-32.771-25.41-86.12-45.12-137.721c-21.02-55.01-43.87-108.03-57.46-132.01c-5.25-9.27-12.35-17.03-20.38-23.53l-0.01-0.01"
			/>
		<path style="fill:none;stroke:#231F20;stroke-width:21;stroke-miterlimit:10;" d="M560.09,683.53c-0.359,1.04-0.77,2.13-1.22,3.27
			"/>
		<path style="fill:none;stroke:#231F20;stroke-width:21;stroke-miterlimit:10;" d="M558.63,686.72
			c-8.46,17.88-31.87,42.471-45.229,48.91c-16.73,8.061,4.38,26.03,18.479,20.53c0.34-0.12,0.67-0.26,1-0.42"/>
		<path style="fill:none;stroke:#231F20;stroke-width:21;" d="M646.2,614.1c-18.66-7.68-50-9.75-55.771,4.65"/>
		<path style="fill:none;stroke:#231F20;stroke-width:21;stroke-miterlimit:10;" d="M612.99,257.17
			c13.54,15.81,21.71,36.34,21.71,58.78v148.22"/>
		<path style="fill:none;stroke:#231F20;stroke-width:21;stroke-miterlimit:10;" d="M512,220l6.49,1.11l25.79,4.41
			c9.359,0,18.39,1.43,26.89,4.07"/>
		<path style="fill:none;stroke:#231F20;stroke-width:21;stroke-miterlimit:10;" d="M230.4,436.31V315.95
			c0-49.94,40.48-90.43,90.42-90.43l21.79-2.82L348,222"/>
		<path style="fill:none;stroke:#231F20;stroke-width:21;stroke-miterlimit:10;" d="M269.17,621.86
			c9.25,3.26,19.47,6.159,30.41,8.68c78.16,18.02,193.36,17.05,258.5-6.021c9.9-3.51,18.64-7.52,25.92-12.06"/>
		<path style="fill:none;stroke:#231F20;stroke-width:21;stroke-miterlimit:10;" d="M285.89,665.97c1.28,0.391,2.58,0.78,3.89,1.16
			c81.1,23.65,215.11,23.061,280.121-6.33c0.34-0.149,0.68-0.3,1.02-0.46"/>
		<line style="fill:none;stroke:#231F20;stroke-width:21;stroke-miterlimit:10;" x1="558.87" y1="686.8" x2="558.87" y2="686.81"/>
	</g>
</g>
<rect style="fill:none;" width="850.394" height="850.394"/>
<line style="fill:none;stroke:#000000;stroke-width:14;stroke-linecap:round;stroke-linejoin:round;" x1="653" y1="254.147" x2="697.358" y2="301.734"/>
<line style="fill:none;stroke:#000000;stroke-width:14;stroke-linecap:round;stroke-linejoin:round;" x1="653" y1="254.147" x2="709.689" y2="211.341"/>
<line style="fill:none;stroke:#000000;stroke-width:14;stroke-linecap:round;stroke-linejoin:round;" x1="653" y1="254.147" x2="807.604" y2="265.765"/>
</svg>
