<?xml version="1.0" encoding="iso-8859-1"?>
<!-- Generator: Adobe Illustrator 12.0.1, SVG Export Plug-In . SVG Version: 6.00 Build 51448)  -->
<!DOCTYPE svg PUBLIC "-//W3C//DTD SVG 1.1//EN" "http://www.w3.org/Graphics/SVG/1.1/DTD/svg11.dtd" [
	<!ENTITY ns_svg "http://www.w3.org/2000/svg">
	<!ENTITY ns_xlink "http://www.w3.org/1999/xlink">
]>
<svg  version="1.1" id="Layer_1" xmlns="&ns_svg;" xmlns:xlink="&ns_xlink;" width="850.394" height="850.394"
	 viewBox="0 0 850.394 850.394" style="overflow:visible;enable-background:new 0 0 850.394 850.394;" xml:space="preserve">
<g id="XMLID_1_">
	<g>
		<path style="fill:#C8C8C8;" d="M222.33,771.25C221.68,729,222.5,682.7,222,664v-1.06h226.67v4.79
			c-0.43,16.14-0.92,64-1.47,103.569L222.33,771.25z"/>
		<path style="fill:#C8C8C8;" d="M330.5,399.13h1.44v1.68h2.79v0.69v6.51l10.63-15.4l-1.12-0.86l39.91-52.15l-12.53-28.79
			l39.78,13.9l-24.58-63.83l0.3-0.47c5.32,3.43,10.13,6.16,14.47,8.58l-1.35,3.54c6.63,4.31,18.99,14.17,30.729,23.99
			c11.73,9.81,22.851,19.58,26.971,23.71c0,0,47.439,95.63,61.779,153.59c9.88,39.979,34.24,123.76,34.24,123.76L518,612l-3.69-0.74
			c0.341-1.68,0.7-3.02,1.04-3.96L440.74,444l20.52,218.68l-2.79,0.261h-9.8H222h-11.68l-3.92-0.131
			c2.58-73.26,18.64-219.699,18.64-219.699L152.09,602.77L118,592l-4.72-0.45c5.43-18.79,24.35-84.59,32.77-118.62
			c14.35-57.959,61.76-153.59,61.76-153.59c3.89-3.88,8.94-7.99,14.67-12.14c5.21-3.78,10.98-7.6,16.97-11.33
			c5.59,7.57,13.98,12.2,15.9,20.31l0.47,2.98l42.78-6.79l-13.07,27.98L330.5,399.13z"/>
		<path style="fill:#ED107F;" d="M304.45,267.76l26.05,131.37l-44.97-58.78l13.07-27.98l-42.78,6.79l-0.47-2.98
			c4.34-2.55,33.02-25.88,37.53-29.6c6.2-5.14,9.66-5.64,9.66-14.85c0-1.21-0.03-2.54-0.14-3.91L304.45,267.76z"/>
		<path style="fill:#ED107F;" d="M344.24,391.75l-5.07,6.63c5.89-27.68,23.59-94.51,26.1-106.33c0.51-2.4,9.08-26.84,14.23-40.39
			l1.68-0.26c2.74,5.75,5.48,8.71,5.48,8.71c0.15,0.1,0.31,0.2,0.46,0.3l-0.3,0.47l24.58,63.83l-39.78-13.9l12.53,28.79
			L344.24,391.75z"/>
		<path style="fill:#FAA41A;" d="M700.11,93.56c-1.521,2.53,0.199,6.87,4.069,9.98c3.61,2.9,7.88,3.76,10.17,2.19l-12.93,16.07
			c-2.31,1.54-6.55,0.68-10.15-2.2c-4.079-3.29-5.779-7.93-3.789-10.38l-0.011-0.01l12.61-15.67L700.11,93.56z"/>
		<path style="fill:#FAA41A;" d="M714.35,105.73c-2.29,1.57-6.56,0.71-10.17-2.19c-3.87-3.11-5.59-7.45-4.069-9.98
			c0.069-0.14,0.159-0.27,0.26-0.39c1.979-2.46,6.899-1.79,10.97,1.49c4.061,3.27,5.76,7.91,3.78,10.37
			C714.9,105.3,714.64,105.54,714.35,105.73z"/>
		<path style="fill:#F6CC4B;" d="M687.48,109.22c-1.99,2.45-0.29,7.09,3.789,10.38c3.601,2.88,7.841,3.74,10.15,2.2l-25.78,32.04
			l-27.77,34.51c-0.46,0.57-1.08,0.98-1.811,1.22c-2.359,0.81-5.85-0.11-8.949-2.6c-2.771-2.22-4.44-5.06-4.61-7.43
			c-0.09-1.12,0.16-2.12,0.78-2.91l-0.021-0.02l33.181-41.25l21.029-26.15L687.48,109.22z"/>
		<path style="fill:#797878;" d="M637.11,186.97c3.1,2.49,6.59,3.41,8.949,2.6c0,0-17.47,11.19-18.869,12.25
			c-3.561,2.69-3.891-3.36-3.891-3.36l9.08-18.91l0.12-0.01C632.67,181.91,634.34,184.75,637.11,186.97z"/>
		<path style="fill:#FFFFFF;" d="M647.87,188.35l27.77-34.51l0.341,0.27l70.229,124.01l-149.7,82.85L485.88,155.46l151.68-71.45
			l28.881,51.35l-33.181,41.25l0.021,0.02c-0.62,0.79-0.87,1.79-0.78,2.91l-0.12,0.01l-9.08,18.91l-4.31,9.56l8.2-6.2
			c1.399-1.06,18.869-12.25,18.869-12.25C646.79,189.33,647.41,188.92,647.87,188.35z"/>
		<path style="fill:#EF947D;" d="M314.26,230.31c4.98-0.4,9.05-0.44,16.08-3.61c-2.52,4.11-5.16,8.45-9.64,10.43
			c-6.09,2.69-12.6,2.16-17.6-1.98c-1.85-1.53-4.73-3.34-6.05-5.07C301.98,231.52,309.31,230.69,314.26,230.31z"/>
		<path style="fill:#EF947D;" d="M314.26,230.31c-4.95,0.38-12.28,1.21-17.21-0.23c-1.27-1.67-1.08-3.26,2.95-4.43
			c2.5-0.73,5.5-1.29,8.07-0.69c1.37,0.31,3.37,1.62,4.61,1.12c1.96-5,15.75-1.82,19.43-2.19c-0.6,0.9-1.18,1.85-1.77,2.81
			C323.31,229.87,319.24,229.91,314.26,230.31z"/>
		<path style="fill:#FFFFFF;" d="M338.99,177.46c0-1.86-1.71-3.37-3.83-3.37c-2.13,0-3.83,1.51-3.83,3.37c0,1.87,1.7,3.37,3.83,3.37
			C337.28,180.83,338.99,179.33,338.99,177.46z M340.84,174.71c0.67,0.96,0.56,1.28,0.56,2.53c0,3.31-2.83,6.01-6.29,6.01
			c-3.48,0-6.3-2.7-6.3-6.01c0-0.93-0.25-0.84,0.14-1.62l-0.31-0.51c2.03-1.26,4.4-2.02,6.73-2.08c2.02-0.04,3.93,0.37,5.69,1.13
			v0.01L340.84,174.71z"/>
		<path style="fill:#FFFFFF;" d="M335.11,183.25c3.46,0,6.29-2.7,6.29-6.01c0-1.25,0.11-1.57-0.56-2.53l0.22-0.54
			c2.34,0.99,4.43,2.58,6.23,4.48l-0.14,0.12c-2.49,2.3-5.35,4.34-8.66,5.52c-2,0.71-4.76,0.84-6.85,0.41
			c-0.89-0.18-1.99-0.4-2.8-0.79c-0.69-0.31-1.28-1.05-1.93-1.36c-0.95-0.44-2.04-0.04-2.94-0.6c-1.05-0.66-0.25-1.4,0.35-2.47
			c0.99-1.76,2.52-3.26,4.32-4.37l0.31,0.51c-0.39,0.78-0.14,0.69-0.14,1.62C328.81,180.55,331.63,183.25,335.11,183.25z"/>
		<path style="fill:#FFFFFF;" d="M289.62,177.24c0,3.31-2.82,6.01-6.29,6.01c-3.48,0-6.31-2.7-6.31-6.01c0-1.25-0.11-1.57,0.56-2.53
			l-0.21-0.54c1.76-0.77,3.66-1.18,5.68-1.14c2.33,0.06,4.71,0.82,6.74,2.08l-0.31,0.51C289.86,176.4,289.62,176.31,289.62,177.24z
			 M283.26,180.83c2.13,0,3.84-1.5,3.84-3.37c0-1.86-1.71-3.37-3.84-3.37c-2.12,0-3.83,1.51-3.83,3.37
			C279.43,179.33,281.14,180.83,283.26,180.83z"/>
		<path style="fill:#FFFFFF;" d="M283.33,183.25c3.47,0,6.29-2.7,6.29-6.01c0-0.93,0.24-0.84-0.14-1.62l0.31-0.51
			c1.8,1.11,3.33,2.61,4.32,4.37c0.6,1.07,1.4,1.81,0.35,2.47c-0.9,0.56-1.98,0.16-2.95,0.6c-0.65,0.31-1.23,1.05-1.93,1.36
			c-0.81,0.39-1.91,0.61-2.8,0.79c-2.09,0.43-4.84,0.3-6.85-0.41c-3.31-1.18-6.17-3.22-8.65-5.52l-0.14-0.12
			c1.8-1.9,3.89-3.49,6.23-4.48l0.21,0.54c-0.67,0.96-0.56,1.28-0.56,2.53C277.02,180.55,279.85,183.25,283.33,183.25z"/>
		<path style="fill:#FFEEC8;" d="M553.96,597.58c9.49,30.26,11.29,67.55,7.97,79.36c-1.949,6.989-10.979,16.859-19.51,15.85
			c-9.439-1.021-11.6-23.25-16.16-30.33c-7.13,1.48-3.47,11.88-8.75,11.88c-4.569-4.55-6.1-17.1-6.1-30.24
			c0-12.58,1.41-25.689,2.899-32.84L518,612L553.96,597.58z"/>
		<path style="fill:#FFEEC8;" d="M152.09,602.77l-1.66,3.641c1.8,4.939,3.93,21.229,3.93,36.729c0,13.17-1.54,25.761-6.11,30.32
			c-5.24,0-1.6-10.43-8.76-11.88c-4.55,7.07-6.71,29.29-16.14,30.33c-8.51,1.01-17.56-8.891-19.51-15.851
			c-3.32-11.829-1.54-49.109,7.96-79.39c0,0,0.54-1.85,1.48-5.12L118,592L152.09,602.77z"/>
		<path style="fill:#FFEEC8;" d="M330.5,399.13l-26.05-131.37l-2.05,0.06c-0.28-3.52-1.12-7.25-3.45-9.63
			c9.48,7.88,23.3,3.88,34.28,2.55c14.67-1.79,20.36-17.4,30.58-26.25c4.45-3.85,9.2-7.82,11.61-12.85l0.42,0.21
			c-0.79,13.18,2.28,23.11,5.34,29.55l-1.68,0.26c-5.15,13.55-13.72,37.99-14.23,40.39c-2.51,11.82-20.21,78.65-26.1,106.33
			l5.07-6.63l1.12,0.86l-10.63,15.4v-6.51v-0.69h2.02v-4.27h-4.81v2.59H330.5z"/>
		<path style="fill:#FFEEC8;" d="M347.29,178.65c-1.8-1.9-3.89-3.49-6.23-4.48v-0.01c-1.76-0.76-3.67-1.17-5.69-1.13
			c-2.33,0.06-4.7,0.82-6.73,2.08c-1.8,1.11-3.33,2.61-4.32,4.37c-0.6,1.07-1.4,1.81-0.35,2.47c0.9,0.56,1.99,0.16,2.94,0.6
			c0.65,0.31,1.24,1.05,1.93,1.36c0.81,0.39,1.91,0.61,2.8,0.79c2.09,0.43,4.85,0.3,6.85-0.41c3.31-1.18,6.17-3.22,8.66-5.52
			L347.29,178.65z M330.34,226.7c0.59-0.96,1.17-1.91,1.77-2.81c-3.68,0.37-17.47-2.81-19.43,2.19c-1.24,0.5-3.24-0.81-4.61-1.12
			c-2.57-0.6-5.57-0.04-8.07,0.69c-4.03,1.17-4.22,2.76-2.95,4.43c1.32,1.73,4.2,3.54,6.05,5.07c5,4.14,11.51,4.67,17.6,1.98
			C325.18,235.15,327.82,230.81,330.34,226.7z M258.84,177.86c-0.25-10.09,4.68-20.7,12.75-26.62c6.2-4.57,40.02-20.69,54.48-30.83
			c0.21,0.46,0.57,0.76,1.07,0.9c5.26,5.59,31.57,33.48,45.79,47.71c13.27,13.27,4.24,45.84,3.95,47.85
			c-0.24,1.7-0.75,3.28-1.46,4.77c-2.41,5.03-7.16,9-11.61,12.85c-10.22,8.85-15.91,24.46-30.58,26.25
			c-10.98,1.33-24.8,5.33-34.28-2.55c-0.38-0.38-0.79-0.73-1.25-1.03c-0.01-0.01-0.01-0.01-0.02-0.02
			c-5.68-4.63-12.46-9.05-17-14.77c-3.05-3.85-18.46-21.82-18.46-37.44C262.22,190.71,259.08,187.31,258.84,177.86z M271.14,178.65
			l0.14,0.12c2.48,2.3,5.34,4.34,8.65,5.52c2.01,0.71,4.76,0.84,6.85,0.41c0.89-0.18,1.99-0.4,2.8-0.79
			c0.7-0.31,1.28-1.05,1.93-1.36c0.97-0.44,2.05-0.04,2.95-0.6c1.05-0.66,0.25-1.4-0.35-2.47c-0.99-1.76-2.52-3.26-4.32-4.37
			c-2.03-1.26-4.41-2.02-6.74-2.08c-2.02-0.04-3.92,0.37-5.68,1.14C275.03,175.16,272.94,176.75,271.14,178.65z"/>
		<path style="fill:#9C5C25;" d="M326.07,120.41c-14.46,10.14-48.28,26.26-54.48,30.83c-8.07,5.92-13,16.53-12.75,26.62
			c0.24,9.45,3.38,12.85,3.38,27.07c0,15.62,15.41,33.59,18.46,37.44c4.54,5.72,11.32,10.14,17,14.77c0.01,0.01,0.01,0.01,0.02,0.02
			c0.38,0.31,0.75,0.62,1.12,0.93c0.04,0.04,0.09,0.07,0.13,0.1c2.33,2.38,3.17,6.11,3.45,9.63c0.11,1.37,0.14,2.7,0.14,3.91
			c0,9.21-3.46,9.71-9.66,14.85c-4.51,3.72-33.19,27.05-37.53,29.6c-1.92-8.11-10.31-12.74-15.9-20.31
			c-4.52-6.11-7.22-14.16-3.22-27.52c2.34-7.8,4.68-17.31,6.31-21.49c6.3-16.15,0.66-64.91,0.15-72.03
			c-1.31-18.38,5.5-46.28,15.39-62.4c16.68-27.16,43.86-38.87,85.7-33.98c31.08,3.62,59.48,37.62,59.48,80.71
			c0,15.1-5.94,31.79-4.23,46.84c0.97,8.65,7.43,41.6,17.77,51.94c5.14,5.11,7.52,17.1,5.4,24.35c-5.34-5.07-12.08-8.56-20.61-13.3
			c-4.34-2.42-9.15-5.15-14.47-8.58c-0.15-0.1-0.31-0.2-0.46-0.3c0,0-2.74-2.96-5.48-8.71c-3.06-6.44-6.13-16.37-5.34-29.55
			l-0.42-0.21c0.71-1.49,1.22-3.07,1.46-4.77c0.29-2.01,9.32-34.58-3.95-47.85c-14.22-14.23-40.53-42.12-45.79-47.71
			c-0.61-0.64-0.94-0.99-0.94-0.99C326.16,120.35,326.12,120.38,326.07,120.41z"/>
		<path style="fill:#231F20;" d="M335.16,175.97c0.77,0,1.38,0.67,1.38,1.49c0,0.83-0.61,1.51-1.38,1.51
			c-0.75,0-1.37-0.68-1.37-1.51C333.79,176.64,334.41,175.97,335.16,175.97z"/>
		<path style="fill:#231F20;" d="M335.16,178.97c0.77,0,1.38-0.68,1.38-1.51c0-0.82-0.61-1.49-1.38-1.49
			c-0.75,0-1.37,0.67-1.37,1.49C333.79,178.29,334.41,178.97,335.16,178.97z M338.99,177.46c0,1.87-1.71,3.37-3.83,3.37
			c-2.13,0-3.83-1.5-3.83-3.37c0-1.86,1.7-3.37,3.83-3.37C337.28,174.09,338.99,175.6,338.99,177.46z"/>
		<path style="fill:#231F20;" d="M283.26,178.97c-0.76,0-1.37-0.68-1.37-1.51c0-0.82,0.61-1.49,1.37-1.49
			c0.77,0,1.38,0.67,1.38,1.49C284.64,178.29,284.03,178.97,283.26,178.97z"/>
		<path style="fill:#231F20;" d="M279.43,177.46c0-1.86,1.71-3.37,3.83-3.37c2.13,0,3.84,1.51,3.84,3.37c0,1.87-1.71,3.37-3.84,3.37
			C281.14,180.83,279.43,179.33,279.43,177.46z M284.64,177.46c0-0.82-0.61-1.49-1.38-1.49c-0.76,0-1.37,0.67-1.37,1.49
			c0,0.83,0.61,1.51,1.37,1.51C284.03,178.97,284.64,178.29,284.64,177.46z"/>
	</g>
	<g>
		<path style="fill:none;stroke:#231F20;stroke-width:14;" d="M111.8,596.67c0,0,0.54-1.85,1.48-5.12
			c5.43-18.79,24.35-84.59,32.77-118.62c14.35-57.959,61.76-153.59,61.76-153.59c3.89-3.88,8.94-7.99,14.67-12.14
			c5.21-3.78,10.98-7.6,16.97-11.33c0.6-0.38,1.2-0.75,1.8-1.12"/>
		<path style="fill:none;stroke:#231F20;stroke-width:14;" d="M206.16,670.98c0.06-2.601,0.14-5.33,0.24-8.171
			c2.58-73.26,18.64-219.699,18.64-219.699L152.09,602.77l-1.66,3.641c1.8,4.939,3.93,21.229,3.93,36.729
			c0,13.17-1.54,25.761-6.11,30.32c-5.24,0-1.6-10.43-8.76-11.88c-4.55,7.07-6.71,29.29-16.14,30.33
			c-8.51,1.01-17.56-8.891-19.51-15.851c-3.32-11.829-1.54-49.109,7.96-79.39"/>
		<path style="fill:none;stroke:#231F20;stroke-width:14;" d="M222.33,771.25C221.68,729,222.5,682.7,222,664"/>
		<path style="fill:none;stroke:#231F20;stroke-width:14;" d="M553.96,597.58c0,0-24.36-83.78-34.24-123.76
			c-14.34-57.96-61.779-153.59-61.779-153.59c-4.12-4.13-15.24-13.9-26.971-23.71c-11.74-9.82-24.1-19.68-30.729-23.99"/>
		<path style="fill:none;stroke:#231F20;stroke-width:14;" d="M462.26,673.31l-1-10.63L440.74,444l74.609,163.3
			c-0.34,0.94-0.699,2.28-1.04,3.96c-1.489,7.15-2.899,20.26-2.899,32.84c0,13.141,1.53,25.69,6.1,30.24
			c5.28,0,1.62-10.399,8.75-11.88c4.561,7.08,6.721,29.31,16.16,30.33c8.53,1.01,17.561-8.86,19.51-15.85
			c3.32-11.811,1.521-49.101-7.97-79.36"/>
		<path style="fill:none;stroke:#231F20;stroke-width:14;" d="M447.2,771.3c0.55-39.569,1.04-87.43,1.47-103.569"/>
		<polyline style="fill:none;stroke:#231F20;stroke-width:14;" points="210.32,662.94 222,662.94 448.67,662.94 458.47,662.94 		"/>
		<polyline style="fill:none;stroke:#231F20;stroke-width:14;" points="118,592 152.09,602.77 156,604 		"/>
		<line style="fill:none;stroke:#231F20;stroke-width:14;" x1="553.96" y1="597.58" x2="518" y2="612"/>
		<polyline style="fill:none;stroke:#231F20;stroke-width:14;" points="304.45,267.76 330.5,399.13 285.53,340.35 298.6,312.37 
			255.82,319.16 250.74,319.97 		"/>
		<path style="fill:none;stroke:#231F20;stroke-width:14;" d="M379.5,251.66c-5.15,13.55-13.72,37.99-14.23,40.39
			c-2.51,11.82-20.21,78.65-26.1,106.33l5.07-6.63l39.91-52.15l-12.53-28.79l39.78,13.9l-24.58-63.83"/>
		<polyline style="fill:none;stroke:#231F20;stroke-width:9.7585;" points="323.5,392.44 334.73,408.01 345.36,392.61 		"/>
		<polygon style="fill:none;stroke:#231F20;stroke-width:9.7585;" points="331.94,399.13 331.94,396.54 336.75,396.54 
			336.75,400.81 334.73,400.81 331.94,400.81 		"/>
		<polyline style="fill:none;stroke:#231F20;stroke-width:14;" points="334.73,401.5 334.73,408.01 334.73,656.43 		"/>
		<path style="fill:none;stroke:#231F20;stroke-width:7;" d="M318.8,169.48c5.33-8.86,18.26-10.27,25.67-7.39
			c3.98,1.56,6.38,3.4,7.43,4.44"/>
		<path style="fill:none;stroke:#231F20;stroke-width:7;" d="M290.87,166.21c-7.4-6.6-22.22-5.2-27.77,2.33"/>
		<path style="fill:none;stroke:#231F20;stroke-width:7;" d="M299.67,171.41c7.72,5.78,3.63,25.34,1.69,31.18
			c-0.62,1.86-3.29,5.15-1.41,7.09c0.91,0.94,2.07,0.43,3.2,0.61c1.18,0.18,1.89,0.3,3.24,0.8c2.62,0.97,4.52,1.56,6.87-0.15
			c2.56-1.85,2.36-3.16,6.13-2.97c3.17,0.14,6.67,1.03,6.52-3.84c-0.12-3.36-2.64-3.31-4.44-5.68"/>
		<path style="fill:none;stroke:#231F20;stroke-width:4;" d="M312.46,226.93c0.04-0.31,0.11-0.59,0.22-0.85
			c1.96-5,15.75-1.82,19.43-2.19c-0.6,0.9-1.18,1.85-1.77,2.81c-2.52,4.11-5.16,8.45-9.64,10.43c-6.09,2.69-12.6,2.16-17.6-1.98
			c-1.85-1.53-4.73-3.34-6.05-5.07c-1.27-1.67-1.08-3.26,2.95-4.43c2.5-0.73,5.5-1.29,8.07-0.69c1.37,0.31,3.37,1.62,4.61,1.12
			c0.2-0.08,0.39-0.22,0.55-0.42"/>
		<path style="fill:none;stroke:#231F20;stroke-width:4;" d="M297.05,230.08c4.93,1.44,12.26,0.61,17.21,0.23
			c4.98-0.4,9.05-0.44,16.08-3.61"/>
		<path style="fill:none;stroke:#231F20;stroke-width:3.2528;stroke-linecap:square;stroke-miterlimit:10;" d="M348.43,179.94
			c-0.37-0.44-0.75-0.88-1.14-1.29c-1.8-1.9-3.89-3.49-6.23-4.48v-0.01c-1.76-0.76-3.67-1.17-5.69-1.13
			c-2.33,0.06-4.7,0.82-6.73,2.08c-1.8,1.11-3.33,2.61-4.32,4.37c-0.6,1.07-1.4,1.81-0.35,2.47c0.9,0.56,1.99,0.16,2.94,0.6
			c0.65,0.31,1.24,1.05,1.93,1.36c0.81,0.39,1.91,0.61,2.8,0.79c2.09,0.43,4.85,0.3,6.85-0.41c3.31-1.18,6.17-3.22,8.66-5.52"/>
		<path style="fill:none;stroke:#231F20;stroke-width:1.6264;stroke-linecap:square;stroke-miterlimit:10;" d="M328.95,175.62
			c-0.39,0.78-0.14,0.69-0.14,1.62c0,3.31,2.82,6.01,6.3,6.01c3.46,0,6.29-2.7,6.29-6.01c0-1.25,0.11-1.57-0.56-2.53"/>
		<path style="fill:none;stroke:#231F20;stroke-width:1.6264;" d="M331.33,177.46c0,1.87,1.7,3.37,3.83,3.37
			c2.12,0,3.83-1.5,3.83-3.37c0-1.86-1.71-3.37-3.83-3.37C333.03,174.09,331.33,175.6,331.33,177.46z"/>
		<path style="fill:none;stroke:#231F20;stroke-width:1.6264;" d="M333.79,177.46c0,0.83,0.62,1.51,1.37,1.51
			c0.77,0,1.38-0.68,1.38-1.51c0-0.82-0.61-1.49-1.38-1.49C334.41,175.97,333.79,176.64,333.79,177.46z"/>
		<path style="fill:none;stroke:#231F20;stroke-width:3.2528;stroke-linecap:square;stroke-miterlimit:10;" d="M270,179.94
			c0.37-0.44,0.75-0.88,1.14-1.29c1.8-1.9,3.89-3.49,6.23-4.48c1.76-0.77,3.66-1.18,5.68-1.14c2.33,0.06,4.71,0.82,6.74,2.08
			c1.8,1.11,3.33,2.61,4.32,4.37c0.6,1.07,1.4,1.81,0.35,2.47c-0.9,0.56-1.98,0.16-2.95,0.6c-0.65,0.31-1.23,1.05-1.93,1.36
			c-0.81,0.39-1.91,0.61-2.8,0.79c-2.09,0.43-4.84,0.3-6.85-0.41c-3.31-1.18-6.17-3.22-8.65-5.52"/>
		<path style="fill:none;stroke:#231F20;stroke-width:1.6264;stroke-linecap:square;stroke-miterlimit:10;" d="M289.48,175.62
			c0.38,0.78,0.14,0.69,0.14,1.62c0,3.31-2.82,6.01-6.29,6.01c-3.48,0-6.31-2.7-6.31-6.01c0-1.25-0.11-1.57,0.56-2.53"/>
		<path style="fill:none;stroke:#231F20;stroke-width:1.6264;" d="M287.1,177.46c0,1.87-1.71,3.37-3.84,3.37
			c-2.12,0-3.83-1.5-3.83-3.37c0-1.86,1.71-3.37,3.83-3.37C285.39,174.09,287.1,175.6,287.1,177.46z"/>
		<path style="fill:none;stroke:#231F20;stroke-width:1.6264;" d="M284.64,177.46c0,0.83-0.61,1.51-1.38,1.51
			c-0.76,0-1.37-0.68-1.37-1.51c0-0.82,0.61-1.49,1.37-1.49C284.03,175.97,284.64,176.64,284.64,177.46z"/>
		<path style="fill:none;stroke:#231F20;stroke-width:13.0114;" d="M297.7,257.16c0.46,0.3,0.87,0.65,1.25,1.03
			c2.33,2.38,3.17,6.11,3.45,9.63c0.11,1.37,0.14,2.7,0.14,3.91"/>
		<path style="fill:none;stroke:#231F20;stroke-width:14;" d="M327.14,121.31c5.26,5.59,31.57,33.48,45.79,47.71
			c13.27,13.27,4.24,45.84,3.95,47.85c-0.24,1.7-0.75,3.28-1.46,4.77c-2.41,5.03-7.16,9-11.61,12.85
			c-10.22,8.85-15.91,24.46-30.58,26.25c-10.98,1.33-24.8,5.33-34.28-2.55c-0.04-0.03-0.09-0.06-0.13-0.1
			c-0.37-0.31-0.74-0.62-1.12-0.93c-0.01-0.01-0.01-0.01-0.02-0.02c-5.68-4.63-12.46-9.05-17-14.77
			c-3.05-3.85-18.46-21.82-18.46-37.44c0-14.22-3.14-17.62-3.38-27.07c-0.25-10.09,4.68-20.7,12.75-26.62
			c6.2-4.57,40.02-20.69,54.48-30.83c0.05-0.03,0.09-0.06,0.13-0.09C326.2,120.32,326.53,120.67,327.14,121.31z"/>
		<path style="fill:none;stroke:#231F20;stroke-width:14;" d="M375.84,221.85c-0.79,13.18,2.28,23.11,5.34,29.55
			c2.74,5.75,5.48,8.71,5.48,8.71c0.15,0.1,0.31,0.2,0.46,0.3c5.32,3.43,10.13,6.16,14.47,8.58c8.53,4.74,15.27,8.23,20.61,13.3
			c2.12-7.25-0.26-19.24-5.4-24.35C406.46,247.6,400,214.65,399.03,206c-1.71-15.05,4.23-31.74,4.23-46.84
			c0-43.09-28.4-77.09-59.48-80.71c-41.84-4.89-69.02,6.82-85.7,33.98c-9.89,16.12-16.7,44.02-15.39,62.4
			c0.51,7.12,6.15,55.88-0.15,72.03c-1.63,4.18-3.97,13.69-6.31,21.49c-4,13.36-1.3,21.41,3.22,27.52
			c5.59,7.57,13.98,12.2,15.9,20.31c4.34-2.55,33.02-25.88,37.53-29.6c6.2-5.14,9.66-5.64,9.66-14.85"/>
		<path style="fill:none;stroke:#231F20;stroke-width:14;" d="M327.88,121.4c-0.27,0-0.52-0.03-0.74-0.09
			c-0.5-0.14-0.86-0.44-1.07-0.9c-0.03-0.06-0.06-0.12-0.08-0.18c4.45-4.34,6.63-11.2,7.97-17.04"/>
		<path style="fill:none;stroke:#231F20;stroke-width:14;" d="M700.11,93.56c-1.521,2.53,0.199,6.87,4.069,9.98
			c3.61,2.9,7.88,3.76,10.17,2.19c0.29-0.19,0.551-0.43,0.771-0.7c1.979-2.46,0.28-7.1-3.78-10.37c-4.07-3.28-8.99-3.95-10.97-1.49
			C700.27,93.29,700.18,93.42,700.11,93.56z"/>
		<path style="fill:none;stroke:#231F20;stroke-width:14;" d="M687.48,109.22c-1.99,2.45-0.29,7.09,3.789,10.38
			c3.601,2.88,7.841,3.74,10.15,2.2c0.3-0.19,0.57-0.44,0.8-0.72"/>
		<path style="fill:none;stroke:#231F20;stroke-width:13.0114;" d="M648.02,188.48c0.011-0.02,0.011-0.02,0.011-0.03"/>
		<path style="fill:none;stroke:#231F20;stroke-width:14;" d="M633.3,176.6c-0.01,0.01-0.02,0.02-0.02,0.03
			c-0.62,0.79-0.87,1.79-0.78,2.91c0.17,2.37,1.84,5.21,4.61,7.43c3.1,2.49,6.59,3.41,8.949,2.6c0.73-0.24,1.351-0.65,1.811-1.22"/>
		<polyline style="fill:none;stroke:#231F20;stroke-width:14;" points="647.87,188.35 675.64,153.84 701.42,121.8 714.35,105.73 
			714.64,105.37 		"/>
		<polyline style="fill:none;stroke:#231F20;stroke-width:14;" points="700.08,93.54 687.47,109.21 666.44,135.36 633.26,176.61 		
			"/>
		<path style="fill:none;stroke:#231F20;stroke-width:14;" d="M632.38,179.55l-9.08,18.91c0,0,0.33,6.05,3.891,3.36
			c1.399-1.06,18.869-12.25,18.869-12.25"/>
		<polyline style="fill:none;stroke:#231F20;stroke-width:14;stroke-linecap:round;stroke-linejoin:round;" points="623.3,198.46 
			618.99,208.02 627.19,201.82 		"/>
		<polyline style="fill:none;stroke:#231F20;stroke-width:14;" points="666.65,135.73 666.44,135.36 637.56,84.01 485.88,155.46 
			596.51,360.97 746.21,278.12 675.98,154.11 		"/>
	</g>
</g>
<rect style="fill:none;" width="850.394" height="850.394"/>
</svg>
