<svg xmlns="http://www.w3.org/2000/svg" width="850.394" height="850.394" viewBox="0 0 850.394 850.394" overflow="visible"><path fill="none" d="M368 368.25h113.386v113.386H368z"/><path d="M484.25 50.65c16.71 0 30.27 14.12 30.27 31.55s-13.56 31.55-30.27 31.55c-16.73 0-30.3-14.12-30.3-31.55s13.57-31.55 30.3-31.55zM465.17 137.45c12.3 0 22.26 10.38 22.26 23.19 0 12.8-9.96 23.18-22.26 23.18-12.29 0-22.25-10.38-22.25-23.18 0-12.81 9.96-23.19 22.25-23.19zM385.55 105.91c16.72 0 30.28 14.13 30.28 31.55 0 17.43-13.56 31.55-30.28 31.55-16.73 0-30.29-14.12-30.29-31.55 0-17.42 13.56-31.55 30.29-31.55zM376.02 274.53c-2.77-1.12-5.69-1.76-8.73-1.76-16.99 0-42.57 3.49-53.97 23.69-10.58 18.72-74.94 109.82-81.3 113.37-7.62 4.29-14.08 5.99-14.26 1.21 0 0-3.31-8.29 6.93-27.88 12.41-23.76 10.17-42.86 4.11-49.98-6.03-7.12-12.94-6.9-16.77-2.17-.39.48-.74 1.01-1.04 1.59l-.19-.1c-12.62-21.87-10.94-75.18 35.72-85.52 17.67-3.91 29.39-2.52 43.87 2.9 4.69-28.3 42.79-56.27 70.67-60.5 65.959-10 80.84 18.76 96.26 28.6 11.39 7.28 4.38 6.72 18.55-.37 9.64-4.83 16.05-10.46 26.92-13.4 36.79-9.94 84.35 13.81 82.64 55.77 26.96 1.69 44.36 11.09 58.78 35.17 7.8 13.05 8.78 25.34 8.01 40.81-.989 20.1-11.319 40.68-12.529 39.65l-4.271.92c-8.3-23.68-7.41-32.23-11.25-36.94-3.83-4.72-10.729-4.94-16.76 2.17-6.05 7.13-8.3 26.23 4.1 49.98 10.25 19.59 6.931 27.89 6.931 27.89-.171 4.78-6.631 3.08-14.25-1.22-6.36-3.55-70.721-94.65-81.29-113.37-11.41-20.19-36.99-23.69-53.98-23.69-22.08 0-37.86 34.08-37.86 34.08-.89 20.94 17.521 87.11 30.891 127.879l-.28.091c-2.79 5.819-8.689 10.369-19.53 10.369-12.109 0-26.86-11.8-32.78-19.93-16.27 10.55-28.99 17.49-37.65 18.17l-3.12-.689c13-36.2 37.58-120.35 36.56-144.47-.002 0-11.732-25.35-29.132-32.32z" fill="#fff"/><path d="M438.14 663.38c-.229.07-.46.13-.71.2l1.71-.29c-.35.04-.68.07-1 .09zm91.17-116.21c27.44 30.521 56.78 61.19 75.101 90.65l-.021.01c-14.79 93.439-68.899 151.85-146.77 160.4-94.53 10.4-181.14-77.04-203.79-199.43 10.72-13.28 22.73-26.71 34.92-40.17 2-2.2 4-4.399 6-6.61 26.18-28.84 52.35-57.72 67.67-85.479 1.37-2.49 3.53-7.86 6.17-15.22l3.12.689c8.66-.68 21.38-7.62 37.65-18.17 5.92 8.13 20.67 19.93 32.78 19.93 10.841 0 16.74-4.55 19.53-10.369l.28-.091c5.17 15.75 9.58 27.71 11.84 31.801 12.94 23.459 33.62 47.709 55.52 72.059z" fill="#ffeec8"/><path d="M376.02 274.53c17.4 6.97 29.13 32.32 29.13 32.32 1.02 24.12-23.56 108.27-36.56 144.47-2.64 7.359-4.8 12.729-6.17 15.22-15.32 27.76-41.49 56.64-67.67 85.479-2 2.211-4 4.41-6 6.61-12.19 13.46-24.2 26.89-34.92 40.17-17.5 21.67-31.57 42.94-37.41 63.32L216 662l-78.12-76.17c8.53-15.12 23-42.89 23-90.79l.32-.08c-6.05-24.479 1.3-54.31 8.97-70.21 7.98-16.56 22.31-33.12 30.62-56.8 7.44-21.25 7.5-30.31 10.2-35.35.3-.58.65-1.11 1.04-1.59 3.83-4.73 10.74-4.95 16.77 2.17 6.06 7.12 8.3 26.22-4.11 49.98-10.24 19.59-6.93 27.88-6.93 27.88.18 4.78 6.64 3.08 14.26-1.21 6.36-3.55 70.72-94.65 81.3-113.37 11.4-20.2 36.98-23.69 53.97-23.69 3.04 0 5.96.64 8.73 1.76zM468.92 281.35c16.99 0 42.57 3.5 53.98 23.69 10.569 18.72 74.93 109.82 81.29 113.37 7.619 4.3 14.079 6 14.25 1.22 0 0 3.319-8.3-6.931-27.89-12.399-23.75-10.149-42.85-4.1-49.98 6.03-7.11 12.93-6.89 16.76-2.17 3.84 4.71 2.95 13.26 11.25 36.94 8.311 23.68 22.64 40.24 30.62 56.8 7.67 15.9 15.03 45.729 8.97 70.21l.32.08c0 44.939 12.729 72.16 21.35 87.85l-75.609 84.24c-2.721-12.32-8.63-24.99-16.66-37.89-18.32-29.46-47.66-60.13-75.101-90.65-21.899-24.35-42.579-48.6-55.52-72.06-2.26-4.091-6.67-16.051-11.84-31.801-13.37-40.77-31.78-106.939-30.891-127.879.002 0 15.782-34.08 37.862-34.08z" fill="#ffeec8"/><g fill="none" stroke="#231f20"><path d="M407.14 720.36c26.64 7.37 67.03 1.729 87.72-10.13M604.39 637.83c-14.79 93.439-68.899 151.85-146.77 160.4-94.53 10.4-181.14-77.04-203.79-199.43" stroke-width="21"/><path d="M438.14 663.38c9.54-2.84 7.15-8.41 17.82-7.03 9.19 1.19 19.17 4.61 19.87-9.63.47-9.819-6.9-10.27-11.6-17.59" stroke-width="14"/><path d="M438.14 663.38c.32-.02.65-.05 1-.09l-1.71.29c.25-.07.48-.13.71-.2z" stroke-width="14"/><path d="M394.73 546.62c17.99 15.86 17.68 57.79 12.86 80.14l-2.1 8.721c-3 8.14-10.1 10.21-7.5 19.68 3.76 13.75 12.77 8.24 21.48 5.09 10.049-3.62 8.52 3.79 18.669 3.13" stroke-width="14"/><path d="M361.41 569.93c-18.96-11.91-66.66-14.43-88.49 6.4M529.33 547.17h-.021c-17.199.4-34.85 4.95-45.89 15.49" stroke-width="21"/><path d="M160.88 495.04c0 47.9-14.47 75.67-23 90.79-.8 1.42-1.55 2.74-2.23 3.939M232.02 409.83c-7.62 4.29-14.08 5.99-14.26 1.21 0 0-3.31-8.29 6.93-27.88 12.41-23.76 10.17-42.86 4.11-49.98-6.03-7.12-12.94-6.9-16.77-2.17-.39.48-.74 1.01-1.04 1.59-2.7 5.04-2.76 14.1-10.2 35.35-8.31 23.68-22.64 40.24-30.62 56.8-7.67 15.9-15.02 45.73-8.97 70.21.25 1.01.52 2.01.82 3M294.75 552.02c26.18-28.84 52.35-57.72 67.67-85.479 1.37-2.49 3.53-7.86 6.17-15.22 13-36.2 37.58-120.35 36.56-144.47 0 0-11.73-25.35-29.13-32.32-2.77-1.12-5.69-1.76-8.73-1.76-16.99 0-42.57 3.49-53.97 23.69-10.58 18.72-74.94 109.82-81.3 113.37" stroke-width="21" stroke-miterlimit="10"/><path d="M288.75 558.63c2-2.2 4-4.399 6-6.61" stroke-width="20.328" stroke-miterlimit="10"/><path d="M215.15 667.12c.37-1.66.79-3.33 1.27-5 5.84-20.38 19.91-41.65 37.41-63.32 10.72-13.28 22.73-26.71 34.92-40.17M675.33 503.62c0 44.939 12.729 72.16 21.35 87.85 1.431 2.61 2.75 4.9 3.88 6.9M604.19 418.41c7.619 4.3 14.079 6 14.25 1.22 0 0 3.319-8.3-6.931-27.89-12.399-23.75-10.149-42.85-4.1-49.98 6.03-7.11 12.93-6.89 16.76-2.17 3.84 4.71 2.95 13.26 11.25 36.94 8.311 23.68 22.64 40.24 30.62 56.8 7.67 15.9 15.03 45.729 8.97 70.21-.25 1.01-.52 2.02-.819 3.02M621.07 675.71c-2.721-12.32-8.63-24.99-16.66-37.89-18.32-29.46-47.66-60.13-75.101-90.65-21.899-24.35-42.579-48.6-55.52-72.06-2.26-4.091-6.67-16.051-11.84-31.801-13.37-40.77-31.78-106.939-30.891-127.879 0 0 15.78-34.08 37.86-34.08 16.99 0 42.57 3.5 53.98 23.69 10.569 18.72 74.93 109.82 81.29 113.37M415.83 137.46c0 17.43-13.56 31.55-30.28 31.55-16.73 0-30.29-14.12-30.29-31.55 0-17.42 13.56-31.55 30.29-31.55 16.72 0 30.28 14.13 30.28 31.55zM514.52 82.2c0 17.43-13.56 31.55-30.27 31.55-16.73 0-30.3-14.12-30.3-31.55s13.569-31.55 30.3-31.55c16.71 0 30.27 14.12 30.27 31.55zM487.43 160.64c0 12.8-9.96 23.18-22.26 23.18-12.29 0-22.25-10.38-22.25-23.18 0-12.81 9.96-23.19 22.25-23.19 12.3 0 22.26 10.38 22.26 23.19z" stroke-width="21" stroke-miterlimit="10"/><path d="M371.71 452.01c8.66-.68 21.38-7.62 37.65-18.17 5.92 8.13 20.67 19.93 32.78 19.93 10.841 0 16.74-4.55 19.53-10.369M210.8 332.5c-12.62-21.87-10.94-75.18 35.72-85.52 17.67-3.91 29.39-2.52 43.87 2.9 4.69-28.3 42.79-56.27 70.67-60.5 65.959-10 80.84 18.76 96.26 28.6 11.39 7.28 4.38 6.72 18.55-.37 9.64-4.83 16.05-10.46 26.92-13.4 36.79-9.94 84.35 13.81 82.64 55.77 26.96 1.69 44.36 11.09 58.78 35.17 7.8 13.05 8.78 25.34 8.01 40.81-.989 20.1-11.319 40.68-12.529 39.65" stroke-width="21"/><path stroke-width="14" stroke-miterlimit="10" d="M348.99 274.3l-26.44 68.5-44.05 64.37M376.09 274.3l-.07.23-26.37 81.82-32.19 50.82M393.68 291.89l-26.44 82.05M489.31 285.8l26.44 68.5 44.04 64.37M462.2 285.8l26.45 82.05 32.18 50.82M444.61 303.39l26.45 82.05"/></g><path fill="none" d="M0 0h850.394v850.394H0z"/></svg>