<svg xmlns="http://www.w3.org/2000/svg" width="850.394" height="850.394" viewBox="0 0 850.394 850.394" overflow="visible"><path d="M591.28 596.14c2.1 15.58 2.1 53.53 2.1 70.16 0 16.641-3.37 41.32-7.81 45.75l-42.59-.53s0-3.13 2.05-11.96c2.109-8.85 18.979-6.5 24.439-11.949 5.46-5.44 4.69-27.53 4.69-61.851 0-34.29-8.25-72.229-8.25-72.229 12.061 14.409 23.921 31.649 25.371 42.609z" fill="#9c5b16"/><path d="M553.4 497.62c7.109 2.72 15.64 10.53 28.909 9.11l.36 3.26c11.21 18.95 46.21 10.55 61.07.26 16.3-11.31 20.49-43.29 13.75-60.8-15.79-40.98-66.771-44.96-90.09-8.66l-.03.49a177.32 177.32 0 0 0-17.16-.4h-.01c-.42-.08-12.11-2.24-28.48-5.72v-.01c-1.68-4.881-5.26-18.53-5.26-20.88 0-8.83-5.21-16.64-16.13-13.53-10.9 3.12-27.54 4.7-44.16 2.09-12.06-1.89-20.29-15.79-26.08-26.46 11.311.26 17.09-18.48 5.04-22.39 9.38-2.1 28.83-7.21 28.83-13.52 0-8.31 2.08-19.22 20.271-29.1 3.52-1.91 7.26-3.51 11.109-4.81 6 0 13.41 13.35 14.66 18.33 1.83 7.35-.83 14.32-3.94 20.94-2.97 6.31-7.159 11.95-7.01 19.2.13 6.78 4.41 14.46 11.51 16.12 7.301 1.67 12.271-2.9 17.801-6.77 7.5-5.24 14.34-11.44 22.43-15.6 6.57-3.33 13.12-8.79 14.44-16.42.63-3.63 1.369-13.16-.881-16.94.15.19.301.36.45.5 3.11 3.13 41.04 64.98 69.63 76.39 14.48 5.8 37.301 13.84 54.78 17.01l-2.8-.46c.939.17 1.87.32 2.8.46l.17.03c4.94.76 9.64 1.16 14.15 1.16 0 0 28.279-2.6 50.2-3.41l8.01 127.61c-25.98 14.03-92.49 27.55-113.29 31.17-20.78 3.649-17.141 22.88-20.51 50.42-3.381 27.54 0 60.54-3.65 64.18-3.63 3.65-8.06 8.061-11.16 17.41-3.12 9.36-8.45 23.79-11.95 27.28-3.54 3.52-38.739 0-38.739 0l2.359-10.66c2.34-10.65 16.36-8.04 20.771-12.45 4.439-4.43 7.81-29.109 7.81-45.75 0-16.63 0-54.58-2.1-70.16-1.45-10.96-13.311-28.199-25.37-42.609-5.09-6.101-10.23-11.7-14.63-16.101-8.721-8.72-14.34-23.67-19.08-39.91 5.6.74 9.35 1.101 10.58.98 2.06-.19 3.62-.71 4.8-1.53l5.82.65zm63.77 76.9c6.67-6.619.96-15.319-4.28-19.71-4.899-4.119-6.62-7.96-3.72-17.47l-.83-.42c-8.28 8.28-12.35 17.41-10.149 28.811 1.589 8.289 11.729 16.019 18.979 8.789zM473.31 342.01c4.58 1.96 11.811 1.67 8.881-5.44-3.071-7.53-13.731-3.76-8.881 5.44z" fill="#9c5b16"/><path d="M564.35 325.41c2.25 3.78 1.511 13.31.881 16.94-1.32 7.63-7.87 13.09-14.44 16.42-8.09 4.16-14.93 10.36-22.43 15.6-5.53 3.87-10.5 8.44-17.801 6.77-7.1-1.66-11.38-9.34-11.51-16.12-.149-7.25 4.04-12.89 7.01-19.2 3.11-6.62 5.771-13.59 3.94-20.94-1.25-4.98-8.66-18.33-14.66-18.33 16.061-5.45 34.01-5.8 45.59-2.19 14.33 4.45 20.21 17.18 23.42 21.05z" fill="#9c5b16"/><path d="M482.19 336.57c2.93 7.11-4.301 7.4-8.881 5.44-4.849-9.2 5.811-12.97 8.881-5.44z" fill="#f6cc4b"/><path d="M435.13 353.98c12.05 3.91 6.271 22.65-5.04 22.39-2.2-4.05-4.05-7.63-5.62-9.92-5.72-8.32 5.72-11.45 5.72-11.45s1.96-.36 4.94-1.02z"/><path fill="#787878" d="M260.46 523.49L212.33 684.7 210 684 62 604l25.6-135.61 1.09.21z"/><path d="M260.46 523.49L88.69 468.6c4.2-21.409 18.66-111.02 66.52-172.609 43.67-56.18 121.36-87.08 140.9-89.52 19.54-2.46 47.75-6 47.75-6h.01c1.36 32.98 19.13 60.09 45.24 64.99 2.59 20.7-16.09 64.55-16.09 64.55l49.29 75.73c19.27 11.14 67.97 22.729 99.41 29.41v.01c16.37 3.479 28.061 5.64 28.48 5.72h.01c-13.71 17.53 7.99 48.69-2.63 56.09-1.18.82-2.74 1.34-4.8 1.53-1.23.12-4.98-.24-10.58-.98-36.391-4.84-150.98-25.85-161.88-36.739-14.48-18.471-26.47-33.83-36.41-46.65L262.1 524.01l-1.64-.52z" fill="#a3d9ff"/><path d="M617.47 486.1l-.06-.069c18.84-19.12.55-44.62-14.51-41.641-6.32 1.261-18.29-1.88-35.53-3.109l.03-.49c23.319-36.3 74.3-32.32 90.09 8.66 6.74 17.51 2.55 49.49-13.75 60.8-14.86 10.29-49.86 18.69-61.07-.26l-.36-3.26c9.12-.971 20.49-6.301 35.16-20.631z" fill="#fff400"/><path d="M602.9 444.39c15.06-2.979 33.35 22.521 14.51 41.641l.06.069c-14.67 14.33-26.04 19.66-35.16 20.631-13.27 1.42-21.8-6.391-28.909-9.11l-5.82-.65c10.62-7.399-11.08-38.56 2.63-56.09 6.2-.16 11.92.03 17.16.4 17.239 1.229 29.209 4.369 35.529 3.109zM418.16 110.66c32.08 6.02 51.55 45.55 43.54 88.3-8.061 42.76-40.53 72.52-72.59 66.5-26.11-4.9-43.88-32.01-45.24-64.99-.31-7.53.23-15.36 1.72-23.31 8.02-42.75 40.52-72.52 72.57-66.5z" fill="#ffeec8"/><path d="M667.49 645.18c-2.891 9.521-1.181 13.36 3.72 17.48 5.25 4.39 10.95 13.08 4.29 19.71-7.26 7.22-17.4-.5-18.99-8.79-2.2-11.4 1.87-20.54 10.15-28.811l.83.411zM609.17 537.34c-2.9 9.51-1.18 13.351 3.72 17.47 5.24 4.391 10.95 13.091 4.28 19.71-7.25 7.23-17.39-.5-18.979-8.789-2.2-11.4 1.869-20.53 10.149-28.811l.83.42z" fill="#a3d9ff"/><g fill="none" stroke="#231f20"><path d="M689.21 419.31c-17.479-3.17-40.3-11.21-54.78-17.01-28.59-11.41-66.52-73.26-69.63-76.39a4.61 4.61 0 0 1-.45-.5c-3.21-3.87-9.09-16.6-23.42-21.05-11.58-3.61-29.529-3.26-45.59 2.19-3.85 1.3-7.59 2.9-11.109 4.81-18.19 9.88-20.271 20.79-20.271 29.1 0 6.31-19.45 11.42-28.83 13.52-2.979.66-4.939 1.02-4.939 1.02s-11.44 3.13-5.72 11.45c1.57 2.29 3.419 5.87 5.62 9.92 5.79 10.67 14.021 24.57 26.08 26.46 16.62 2.61 33.26 1.03 44.16-2.09 10.92-3.11 16.13 4.7 16.13 13.53 0 2.35 3.58 16 5.26 20.88" stroke-width="14"/><path d="M689.21 419.31c-.93-.14-1.86-.29-2.8-.46l2.8.46zM753.73 417.09c-21.921.81-50.2 3.41-50.2 3.41-4.511 0-9.21-.4-14.15-1.16l-.17-.03M532.2 497.51v.01c4.74 16.24 10.359 31.19 19.08 39.91 4.399 4.4 9.54 10 14.63 16.101 12.06 14.41 23.92 31.649 25.37 42.609 2.1 15.58 2.1 53.53 2.1 70.16 0 16.641-3.37 41.32-7.81 45.75-4.41 4.41-18.431 1.8-20.771 12.45l-2.359 10.66s35.199 3.52 38.739 0c3.5-3.49 8.83-17.92 11.95-27.28 3.101-9.35 7.53-13.76 11.16-17.41 3.65-3.64.27-36.64 3.65-64.18 3.369-27.54-.271-46.771 20.51-50.42 20.8-3.62 87.31-17.14 113.29-31.17" stroke-width="14"/><path d="M565.91 553.53s8.25 37.939 8.25 72.229c0 34.32.77 56.41-4.69 61.851-5.46 5.449-22.33 3.1-24.439 11.949-2.05 8.83-2.05 11.96-2.05 11.96l42.59.53M495.34 306.55c6 0 13.41 13.35 14.66 18.33 1.83 7.35-.83 14.32-3.94 20.94-2.97 6.31-7.159 11.95-7.01 19.2.13 6.78 4.41 14.46 11.51 16.12 7.301 1.67 12.271-2.9 17.801-6.77 7.5-5.24 14.34-11.44 22.43-15.6 6.57-3.33 13.12-8.79 14.44-16.42.63-3.63 1.369-13.16-.881-16.94a4.1 4.1 0 0 0-.6-.79" stroke-width="14"/><path d="M435.12 353.97l.01.01c12.05 3.91 6.271 22.65-5.04 22.39-.27-.01-.55-.02-.82-.05M473.31 342.01c-4.85-9.2 5.811-12.97 8.881-5.44 2.929 7.11-4.301 7.4-8.881 5.44z" stroke-width="7"/><path d="M343.87 200.47c-.31-7.53.23-15.36 1.72-23.31 8.02-42.75 40.52-72.52 72.57-66.5 32.08 6.02 51.55 45.55 43.54 88.3-8.061 42.76-40.53 72.52-72.59 66.5-26.11-4.9-43.88-32.01-45.24-64.99z" stroke-width="21"/><path d="M550.2 440.88c-.42-.08-12.11-2.24-28.48-5.72v-.01c-31.439-6.681-80.14-18.271-99.41-29.41l-49.29-75.73s18.68-43.85 16.09-64.55" stroke-width="21"/><path d="M283.02 342.36c2.71 7.18 2.45 9.27 50.89 71.77 9.94 12.82 21.93 28.18 36.41 46.65 10.9 10.89 125.49 31.899 161.88 36.739 5.6.74 9.35 1.101 10.58.98 2.06-.19 3.62-.71 4.8-1.53 10.62-7.399-11.08-38.56 2.63-56.09" stroke-width="21"/><path d="M343.86 200.47s-28.21 3.54-47.75 6c-19.54 2.44-97.23 33.34-140.9 89.52-47.86 61.59-62.32 151.2-66.52 172.609l171.77 54.891 1.64.52 71.81-109.88.09-.13M550.2 440.88h.01c6.2-.16 11.92.03 17.16.4 17.24 1.229 29.21 4.37 35.53 3.109 15.06-2.979 33.35 22.521 14.51 41.641" stroke-width="21"/><path stroke-width="21" d="M262.1 518.01l-1.64 5.48-48.13 161.21-1.8 6.02M553.4 497.62c7.109 2.72 15.64 10.53 28.909 9.11 9.12-.971 20.49-6.301 35.16-20.631.55-.54 1.11-1.09 1.67-1.649"/><path d="M567.4 440.79c23.319-36.3 74.3-32.32 90.09 8.66 6.74 17.51 2.55 49.49-13.75 60.8-14.86 10.29-49.86 18.69-61.07-.26" stroke-width="21"/><path d="M666.66 644.77c-8.28 8.271-12.351 17.41-10.15 28.811 1.59 8.29 11.73 16.01 18.99 8.79 6.66-6.63.96-15.32-4.29-19.71-4.9-4.12-6.61-7.96-3.72-17.48l-.83-.411zM608.34 536.92c-8.28 8.28-12.35 17.41-10.149 28.811 1.59 8.289 11.729 16.02 18.979 8.789 6.67-6.619.96-15.319-4.28-19.71-4.899-4.119-6.62-7.96-3.72-17.47l-.83-.42z" stroke-width="14"/><path stroke-width="21" d="M88.69 462.6l-1.09 5.79L62 604"/></g><path fill="none" d="M0 0h850.394v850.394H0z"/></svg>