<?xml version="1.0" encoding="iso-8859-1"?>
<!-- Generator: Adobe Illustrator 12.0.1, SVG Export Plug-In . SVG Version: 6.00 Build 51448)  -->
<!DOCTYPE svg PUBLIC "-//W3C//DTD SVG 1.1//EN" "http://www.w3.org/Graphics/SVG/1.1/DTD/svg11.dtd" [
	<!ENTITY ns_svg "http://www.w3.org/2000/svg">
	<!ENTITY ns_xlink "http://www.w3.org/1999/xlink">
]>
<svg  version="1.1" id="Layer_1" xmlns="&ns_svg;" xmlns:xlink="&ns_xlink;" width="850.394" height="850.394"
	 viewBox="0 0 850.394 850.394" style="overflow:visible;enable-background:new 0 0 850.394 850.394;" xml:space="preserve">
<g id="XMLID_8_">
	<g>
		<path style="fill:#787878;" d="M620.27,760.43c-5.119,8.12-8.949,9.36-16.189,13.721c-6.96,4.18-16.08,3.399-25.89,0.14
			c0.64-1.18,0.79-2.71,0.22-4.7C576.03,761.33,602.48,754.86,620.27,760.43z"/>
		<path style="fill:#FFEEC8;" d="M623.03,761.35c-0.86-0.31-1.78-0.6-2.761-0.92c-17.789-5.569-44.239,0.9-41.859,9.16
			c0.57,1.99,0.42,3.521-0.22,4.7c-3.12,5.72-17.851,3-17.851,3c-11.46-3.16-21.56-9.22-23.39-19.48
			c-0.21-1.189,0.42-2.579,1.7-4.109l-0.011-0.01c-7.409,1.329-24.21-6.721-28.31-20.91c-0.23-0.771-0.42-1.57-0.561-2.38
			c-0.319-1.801,1.48-4.351,4.66-7.351l-0.12-0.939c-5.54,0.63-18.27-11.471-15.93-20.79c0.54-2.16,2.54-4.92,5.48-7.99
			c3.159-3.311,7.42-7,12.109-10.72c16.08-12.75,37.29-25.91,37.29-25.91s-21.05-6.91-34.189-10.78
			c-13.13-3.88-36.36,19.33-50.771,30.86c-3.35,2.68-7.49,2.109-10.92-0.2c-4.979-3.37-8.46-10.4-5.899-16.561
			c-0.011-0.01-0.011-0.01,0-0.01c0.31-0.76,0.71-1.49,1.21-2.21c14.489-20.78,55.56-47.83,55.56-47.83s26.97,3.38,48.14,6.67h0.011
			c9.149,1.42,17.22,2.82,21.54,3.931c14.35,3.67,153.779,26.06,153.779,26.06L760.69,766.44
			c-16.73-11.971-32.671-1.19-49.761,2.909c-16.55,3.96-38.859,11.011-55.8,6.58C639.09,771.73,638.12,766.63,623.03,761.35z"/>
		<path style="fill:#C8C8C8;" d="M363.47,542.66c0.18-0.28,2.3,0.689,0.44,0.6C363.52,542.93,363.42,542.75,363.47,542.66z"/>
		<path style="fill:#FFEEC8;" d="M145.13,313.82l0.35,0.39c6.58,7.19,14.31,13.75,23.53,17.92c2.47,1.12,5.39,1.94,8.4,2.45
			c3.81,0.63,7.76,0.76,11.17,0.35c2.59-0.32,5.79-0.69,8.23-1.59c2.06-0.73,3.93-2.73,5.86-3.45c2.87-1.05,5.88,0.34,8.59-1.04
			c3.18-1.63,1.07-3.94-0.42-7.15c-2.43-5.29-6.46-9.98-11.34-13.6c-5.54-4.11-12.18-6.85-18.86-7.56
			c-5.99-0.62-11.73,0.19-17.11,2.06C156.78,304.94,150.59,308.93,145.13,313.82z M187.65,481.72
			c9.13,3.98,17.39,9.431,27.04,12.601c13.68,4.529,29.74,3.189,44.01,3.149c23-0.08,41.69,5.511,60.21-9.79
			c0.67-0.55,1.34-1.13,2.01-1.739c-21.24-1.381-36.76-8.601-50.22-11.16c-11.23-2.141-17.73,5.26-27.61-0.17
			c-16.17-8.891-30.27,3.319-46.35,6.47C193.78,481.66,190.76,481.94,187.65,481.72z M371,332.71
			c-4.77-5.94-10.47-11.06-17.05-14.47c-4.81-2.51-10.08-4.1-15.8-4.45c-7.4-0.45-15.16,1.56-21.72,5.37
			c-4.63,2.69-8.66,6.28-11.55,10.53c-1.98,2.92-4.47,4.85-1.58,6.98c2.43,1.81,5.64,0.93,8.3,2.45c1.78,1.02,3.29,3.29,5.21,4.36
			c2.26,1.29,5.34,2.17,7.85,2.92c3.83,1.12,8.5,1.64,12.92,1.43c2.41-0.11,4.76-0.43,6.85-0.99c9.79-2.59,18.5-7.79,26.16-13.8
			L371,332.71z M390.27,171.52c0.4,0.18,0.77,0.4,1.13,0.67c0,0,10.62,60.2,30.54,83.71c19.91,23.5,6.041,108.22,21.68,126.69h0.01
			c-1.24,17.22-4.82,34.88-8.39,49.22c-4.141,16.65-8.26,28.811-8.641,30.551c-1.32,5.859-9.07,18.26-20.49,32.659
			c-12.01,15.15-28.06,32.521-44.93,46.86c-7.7,6.53-15.56,12.44-23.29,17.22c-1.39,0.851-2.77,1.67-4.14,2.45
			c-11.68,6.62-22.91,10.42-32.61,9.61c-29.54-2.44-90.83,2.2-114.27-21.21c-3.29-3.29-7.06-8.16-10.97-13.88
			c-0.52-0.75-1.04-1.521-1.56-2.311c-12.98-19.46-27.14-46.92-31.11-55.8c-5.72-12.79-23.62-33.87-25.8-69.33
			c-0.2-3.24-0.26-6.61-0.18-10.1c0.47-19.3-2.86-38.96-3.89-57.95c-0.38-7.03-0.45-13.96,0.11-20.75
			c1.45-17.51,6.56-37.74,9.74-76.28l21.17-29.34c86.46-73.25,129.35-7.26,167.02-13.95c14.53-2.57,30.62-4.8,44.25-11.05
			C364.4,185.21,381.37,167.41,390.27,171.52z M286.47,426.76c-6.83-3.86-16.2-6.7-22.68,0.141c5.74-2.331,10.44-1.46,19.41-0.28
			C284.28,426.76,285.37,426.81,286.47,426.76z M227.86,382.07c-0.01,0.02-0.02,0.04-0.03,0.06c-0.94,2.22-14.71,13.52-16.48,17.45
			c-2.48,5.47-2.44,13.7,0.48,17.26c2.42,2.96,10.01,6.56,13.29,7.35c3.4,0.82,5.44,1.34,9.28,3.15
			C217.48,416.59,224.21,394.69,227.86,382.07z"/>
		<path style="fill:#C8C8C8;" d="M391.21,513.68c-6.11,7.16-6.73,16.66-1.39,21.221c5.35,4.56,14.62,2.46,20.74-4.7
			c6.12-7.17,6.74-16.67,1.4-21.23C406.62,504.4,397.33,506.52,391.21,513.68z M362.51,564.48c6.12-7.171,6.74-16.671,1.4-21.221
			c1.86,0.09-0.26-0.88-0.44-0.6l-2.29-0.78c16.87-14.34,32.92-31.71,44.93-46.86l1.99,0.421c3.71-0.801,7.33-0.221,10.55,1.329
			c6.32,3.021,11.06,9.75,11.81,17.04c1.53,15.16-8.81,23.19-15.44,35.171c-1.74,3.14-4.74,7.89-4.31,11.63
			c0.52,4.5,2.57,9.609,4.14,13.979c6.14,16.97-6.86,39.55-23.2,46.57c-3.76,1.62-7.33,2.229-10.89,1.75
			c-2.87-0.37-5.75-1.45-8.71-3.271c-2.72-1.68-5.51-4.01-7.28-6.699c-1.48-2.23-2.24-5.11-3.56-7.431l0.4,0.01
			c-3.21-4.119-5.88-6.85-9.94-10.149c-3.24-2.63-6.66-5.09-9.04-8.57c-6.28-9.17-11.51-14.229-8.63-24.8l-0.25-0.45
			c1.37-0.78,2.75-1.6,4.14-2.45l0.29,0.46c-0.25,3.841,0.93,7.351,3.59,9.631C347.12,573.75,356.4,571.66,362.51,564.48z
			 M394.63,596.25c6.12-7.14,6.75-16.65,1.4-21.22c-5.34-4.55-14.62-2.44-20.74,4.71c-6.12,7.17-6.74,16.68-1.4,21.229
			C379.23,605.54,388.51,603.41,394.63,596.25z"/>
		<path style="fill:#787878;" d="M363.91,543.26c5.34,4.55,4.72,14.05-1.4,21.221c-6.11,7.18-15.39,9.27-20.74,4.71
			c-2.66-2.28-3.84-5.79-3.59-9.631l-0.29-0.46c7.73-4.779,15.59-10.689,23.29-17.22l2.29,0.78
			C363.42,542.75,363.52,542.93,363.91,543.26z"/>
		<path style="fill:#FFEEC8;" d="M175.9,536.07c3.91,5.72,7.68,10.59,10.97,13.88c23.44,23.41,84.73,18.77,114.27,21.21
			c9.7,0.81,20.93-2.99,32.61-9.61L334,562c-2.88,10.57,2.35,15.63,8.63,24.8c2.38,3.48,5.8,5.94,9.04,8.57
			c4.06,3.3,6.73,6.03,9.94,10.149l-0.4-0.01l-208.67-5.3c15.7-23.09,18.27-41.28,21.8-66.45
			C174.86,534.55,175.38,535.32,175.9,536.07z"/>
		<path style="fill:#787878;" d="M510.34,673.36c2.8,2.88,4.72,6.159,5.63,9.25c-4.689,3.72-8.95,7.409-12.109,10.72
			c-2.82-1.07-5.74-2.99-8.301-5.64c-6.329-6.53-8.149-15.04-4.079-18.99C495.56,664.75,504.01,666.83,510.34,673.36z"/>
		<path style="fill:#787878;" d="M498.38,701.32c-2.34,9.319,10.39,21.42,15.93,20.79l0.12,0.939c-3.18,3-4.979,5.55-4.66,7.351
			c0.141,0.81,0.33,1.609,0.561,2.38c-11.34-8.681-11.88-10.011-20.98-19.38c-13.14-13.551-17.54-22.391-31.97-36.82
			c3.43,2.31,7.57,2.88,10.92,0.2c14.41-11.53,37.641-34.74,50.771-30.86c13.14,3.87,34.189,10.78,34.189,10.78
			s-21.21,13.16-37.29,25.91c-0.91-3.091-2.83-6.37-5.63-9.25c-6.33-6.53-14.78-8.61-18.859-4.66c-4.07,3.95-2.25,12.46,4.079,18.99
			c2.561,2.649,5.48,4.569,8.301,5.64C500.92,696.4,498.92,699.16,498.38,701.32z"/>
		<path style="fill:#787878;" d="M539.31,593.07c4.99,6.859,10.83,14.89,17.08,23.569c-21.17-3.29-48.14-6.67-48.14-6.67
			s-41.07,27.05-55.56,47.83c-0.5,0.72-0.9,1.45-1.21,2.21c-10.28-15.38-22.36-22.99-22.36-22.99l-22.63-6.189
			c11.42,1.07,24.3-11.58,28.89-26.061c3.04-9.6,3.04-18.869,3.23-30.449c0.239-15.92,1.229-18.28,6.88-28.33
			c7.63-13.681,7.779-24.23,2.399-33.54l0.37-0.22c0,0,20.771,7.56,35.36,17.869C500.92,542.34,511.95,555.38,539.31,593.07z"/>
		<path style="fill:#787878;" d="M396.03,575.03c5.35,4.569,4.72,14.08-1.4,21.22c-6.12,7.16-15.4,9.29-20.74,4.72
			c-5.34-4.55-4.72-14.06,1.4-21.229C381.41,572.59,390.69,570.48,396.03,575.03z"/>
		<path style="fill:#787878;" d="M411.96,508.97c5.34,4.561,4.72,14.061-1.4,21.23c-6.12,7.16-15.39,9.26-20.74,4.7
			c-5.34-4.561-4.72-14.061,1.39-21.221C397.33,506.52,406.62,504.4,411.96,508.97z"/>
		<path style="fill:#C8C8C8;" d="M447.89,512.45c5.38,9.31,5.23,19.859-2.399,33.54c-5.65,10.05-6.641,12.41-6.88,28.33
			c-0.19,11.58-0.19,20.85-3.23,30.449c-4.59,14.48-17.47,27.131-28.89,26.061c-8.11-0.79-8.13-0.79-25.73-7.92
			c3.56,0.479,7.13-0.13,10.89-1.75c16.34-7.021,29.34-29.601,23.2-46.57c-1.57-4.37-3.62-9.479-4.14-13.979
			c-0.43-3.74,2.57-8.49,4.31-11.63c6.63-11.98,16.97-20.011,15.44-35.171c-0.75-7.29-5.49-14.02-11.81-17.04
			c10,2.311,20.93,3.74,27.45,12.91C446.75,510.59,447.35,511.51,447.89,512.45z"/>
		<path style="fill:#9C5B16;" d="M442.92,353.56c1.36,9.01,1.44,18.95,0.71,29.03h-0.01c-15.64-18.47-1.771-103.19-21.68-126.69
			c-19.92-23.51-30.54-83.71-30.54-83.71c-0.36-0.27-0.73-0.49-1.13-0.67c-8.9-4.11-25.87,13.69-34.62,17.69
			c-13.63,6.25-29.72,8.48-44.25,11.05c-37.67,6.69-80.56-59.3-167.02,13.95l-21.17,29.34c-3.18,38.54-8.29,58.77-9.74,76.28
			c-0.56,6.79-0.49,13.72-0.11,20.75c-13.81-16.3-18.92-22.69-19.23-23.07c-0.01-0.01-0.01-0.01-0.01-0.02
			c0.5-47.2,5.77-138.77,36.59-176.23c67.56-82.14,143.58-81.89,249.5-60.58c78.62,15.82,140.6,92.93,111.43,237.17
			c-2.149-2.52-5.199-4.48-9.359-5.57C457.96,305.92,440.63,334.29,442.92,353.56z"/>
		<path style="fill:#F0947D;" d="M270.7,474.78c13.46,2.56,28.98,9.779,50.22,11.16c-0.67,0.609-1.34,1.189-2.01,1.739l-0.07-0.08
			c-34.77,0.03-86.15-1.88-121.74-4.819l-0.36-1.7c16.08-3.15,30.18-15.36,46.35-6.47C252.97,480.04,259.47,472.64,270.7,474.78z"/>
		<path style="fill:#F0947D;" d="M214.69,494.32c-9.65-3.17-17.91-8.62-27.04-12.601c3.11,0.221,6.13-0.06,9.09-0.64l0.36,1.7
			c35.59,2.939,86.97,4.85,121.74,4.819l0.07,0.08c-18.52,15.301-37.21,9.71-60.21,9.79C244.43,497.51,228.37,498.85,214.69,494.32z
			"/>
		<path style="fill:#FFEEC8;" d="M227.86,382.07c-3.65,12.62-10.38,34.52,6.54,45.27c-3.84-1.81-5.88-2.33-9.28-3.15
			c-3.28-0.79-10.87-4.39-13.29-7.35c-2.92-3.56-2.96-11.79-0.48-17.26c1.77-3.93,15.54-15.23,16.48-17.45
			C227.84,382.11,227.85,382.09,227.86,382.07z"/>
		<path style="fill:#ABDA4D;" d="M191.2,314.23c0.44-5.34-4.11-10.09-10.2-10.6c-6.08-0.49-11.36,3.43-11.81,8.78
			c-0.44,5.35,4.12,10.09,10.2,10.59C185.48,323.5,190.76,319.58,191.2,314.23z M180.64,300.54c6.68,0.71,13.32,3.45,18.86,7.56
			l-1.04,1.4c0.94,2.33,0.25,2.02,0.02,4.67c-0.78,9.53-9.5,16.58-19.49,15.77c-0.3-0.02-0.59-0.06-0.88-0.09
			c-9.53-1.25-16.53-9.42-15.77-18.67c0.28-3.36,0.07-4.39,1.83-6.65l-0.64-1.93C168.91,300.73,174.65,299.92,180.64,300.54z"/>
		<path style="fill:#ABDA4D;" d="M347.49,327.36c0.44-5.34-4.12-10.08-10.21-10.58c-6.09-0.51-11.36,3.42-11.8,8.76
			c-0.43,5.35,4.11,10.1,10.21,10.6C341.77,336.65,347.05,332.71,347.49,327.36z M338.15,313.79c5.72,0.35,10.99,1.94,15.8,4.45
			l-0.51,1.65c1.72,2.92,1.3,3.81,1.01,7.39c-0.72,8.74-8.12,15.4-17.04,15.81c-0.81,0.03-1.63,0.02-2.46-0.05
			c-9.99-0.82-17.44-9.22-16.65-18.75c0.22-2.64-0.51-2.46,0.79-4.59l-2.66-0.54C322.99,315.35,330.75,313.34,338.15,313.79z"/>
		<path style="fill:#FFFFFF;" d="M162.34,311.18c-0.76,9.25,6.24,17.42,15.77,18.67l-0.7,4.73c-3.01-0.51-5.93-1.33-8.4-2.45
			c-9.22-4.17-16.95-10.73-23.53-17.92l-0.35-0.39c5.46-4.89,11.65-8.88,18.4-11.22l0.64,1.93
			C162.41,306.79,162.62,307.82,162.34,311.18z"/>
		<path style="fill:#FFFFFF;" d="M178.99,329.94c9.99,0.81,18.71-6.24,19.49-15.77c0.23-2.65,0.92-2.34-0.02-4.67l1.04-1.4
			c4.88,3.62,8.91,8.31,11.34,13.6c1.49,3.21,3.6,5.52,0.42,7.15c-2.71,1.38-5.72-0.01-8.59,1.04c-1.93,0.72-3.8,2.72-5.86,3.45
			c-2.44,0.9-5.64,1.27-8.23,1.59c-3.41,0.41-7.36,0.28-11.17-0.35l0.7-4.73C178.4,329.88,178.69,329.92,178.99,329.94z"/>
		<path style="fill:#FFFFFF;" d="M337.58,347.83c-4.42,0.21-9.09-0.31-12.92-1.43c-2.51-0.75-5.59-1.63-7.85-2.92
			c-1.92-1.07-3.43-3.34-5.21-4.36c-2.66-1.52-5.87-0.64-8.3-2.45c-2.89-2.13-0.4-4.06,1.58-6.98c2.89-4.25,6.92-7.84,11.55-10.53
			l2.66,0.54c-1.3,2.13-0.57,1.95-0.79,4.59c-0.79,9.53,6.66,17.93,16.65,18.75c0.83,0.07,1.65,0.08,2.46,0.05L337.58,347.83z"/>
		<path style="fill:#FFFFFF;" d="M370.59,333.04c-7.66,6.01-16.37,11.21-26.16,13.8c-2.09,0.56-4.44,0.88-6.85,0.99l-0.17-4.74
			c8.92-0.41,16.32-7.07,17.04-15.81c0.29-3.58,0.71-4.47-1.01-7.39l0.51-1.65c6.58,3.41,12.28,8.53,17.05,14.47L370.59,333.04z"/>
		<path style="fill:#FFEEC8;" d="M94.13,317.51c0.31,0.38,5.42,6.77,19.23,23.07c1.03,18.99,4.36,38.65,3.89,57.95
			c-0.08,3.49-0.02,6.86,0.18,10.1c-14.61-2.33-23.27-20.75-24.12-30.03C91.69,360.71,100.22,343.2,94.13,317.51z"/>
		<path style="fill:#FFEEC8;" d="M491.64,317.85c7.79,9.13,3.9,25.6-1.08,34.59c-15.439,27.91-10.359,39.06-13.84,61.04
			c-1.96,12.28-25.95,36.33-41.479,18.33c3.569-14.339,7.149-32,8.39-49.22c0.73-10.08,0.65-20.02-0.71-29.03
			c-2.29-19.27,15.04-47.64,39.36-41.28C486.44,313.37,489.49,315.33,491.64,317.85z"/>
		<path d="M336.85,322.16c2.18,0.18,3.79,2.25,3.6,4.63c-0.21,2.37-2.13,4.15-4.32,3.97c-2.17-0.17-3.78-2.25-3.59-4.63
			C332.75,323.76,334.67,321.99,336.85,322.16z"/>
		<path style="fill:#231F20;" d="M336.85,322.16c-2.18-0.17-4.1,1.6-4.31,3.97c-0.19,2.38,1.42,4.46,3.59,4.63
			c2.19,0.18,4.11-1.6,4.32-3.97C340.64,324.41,339.03,322.34,336.85,322.16z M337.28,316.78c6.09,0.5,10.65,5.24,10.21,10.58
			c-0.44,5.35-5.72,9.29-11.8,8.78c-6.1-0.5-10.64-5.25-10.21-10.6C325.92,320.2,331.19,316.27,337.28,316.78z"/>
		<path d="M180.54,309.02c2.19,0.19,3.79,2.25,3.59,4.62c-0.19,2.38-2.12,4.17-4.29,3.98c-2.19-0.18-3.79-2.25-3.6-4.63
			C176.44,310.62,178.36,308.84,180.54,309.02z"/>
		<path style="fill:#231F20;" d="M179.84,317.62c2.17,0.19,4.1-1.6,4.29-3.98c0.2-2.37-1.4-4.43-3.59-4.62
			c-2.18-0.18-4.1,1.6-4.3,3.97C176.05,315.37,177.65,317.44,179.84,317.62z M181,303.63c6.09,0.51,10.64,5.26,10.2,10.6
			c-0.44,5.35-5.72,9.27-11.81,8.77c-6.08-0.5-10.64-5.24-10.2-10.59C169.64,307.06,174.92,303.14,181,303.63z"/>
	</g>
	<g>
		<path style="fill:none;stroke:#231F20;stroke-width:14;" d="M408.1,495.44c3.71-0.801,7.33-0.221,10.55,1.329
			c6.32,3.021,11.06,9.75,11.81,17.04c1.53,15.16-8.81,23.19-15.44,35.171c-1.74,3.14-4.74,7.89-4.31,11.63
			c0.52,4.5,2.57,9.609,4.14,13.979c6.14,16.97-6.86,39.55-23.2,46.57c-3.76,1.62-7.33,2.229-10.89,1.75
			c-2.87-0.37-5.75-1.45-8.71-3.271c-2.72-1.68-5.51-4.01-7.28-6.699c-1.48-2.23-2.24-5.11-3.56-7.431
			c-0.25-0.439-0.52-0.85-0.81-1.229"/>
		<path style="fill:none;stroke:#231F20;stroke-width:14;" d="M361.61,605.52c-3.21-4.119-5.88-6.85-9.94-10.149
			c-3.24-2.63-6.66-5.09-9.04-8.57c-6.28-9.17-11.51-14.229-8.63-24.8"/>
		<path style="fill:none;stroke:#231F20;stroke-width:14;" d="M411.96,508.97c5.34,4.561,4.72,14.061-1.4,21.23
			c-6.12,7.16-15.39,9.26-20.74,4.7c-5.34-4.561-4.72-14.061,1.39-21.221C397.33,506.52,406.62,504.4,411.96,508.97z"/>
		<path style="fill:none;stroke:#231F20;stroke-width:14;" d="M396.03,575.03c5.35,4.569,4.72,14.08-1.4,21.22
			c-6.12,7.16-15.4,9.29-20.74,4.72c-5.34-4.55-4.72-14.06,1.4-21.229C381.41,572.59,390.69,570.48,396.03,575.03z"/>
		<path style="fill:none;stroke:#231F20;stroke-width:14;" d="M363.91,543.26c1.86,0.09-0.26-0.88-0.44-0.6
			C363.42,542.75,363.52,542.93,363.91,543.26c5.34,4.55,4.72,14.05-1.4,21.221c-6.11,7.18-15.39,9.27-20.74,4.71
			c-2.66-2.28-3.84-5.79-3.59-9.631"/>
		<path style="fill:none;stroke:#231F20;stroke-width:14;" d="M380.63,622.86c0.04,0.02,0.09,0.04,0.13,0.05
			c17.6,7.13,17.62,7.13,25.73,7.92c11.42,1.07,24.3-11.58,28.89-26.061c3.04-9.6,3.04-18.869,3.23-30.449
			c0.239-15.92,1.229-18.28,6.88-28.33c7.63-13.681,7.779-24.23,2.399-33.54c-0.54-0.94-1.14-1.86-1.79-2.771
			c-6.52-9.17-17.449-10.6-27.45-12.91c-0.02-0.01-0.05-0.01-0.07-0.02"/>
		<path style="fill:none;stroke:#231F20;stroke-width:14;" d="M556.39,616.64c-6.25-8.68-12.09-16.71-17.08-23.569
			c-27.359-37.69-38.39-50.73-55.689-62.971c-14.59-10.31-35.36-17.869-35.36-17.869"/>
		<path style="fill:none;stroke:#231F20;stroke-width:14;" d="M557.24,617.81c-0.28-0.39-0.561-0.779-0.84-1.17"/>
		<path style="fill:none;stroke:#231F20;stroke-width:14;" d="M576.96,773.88c0.41,0.14,0.82,0.28,1.23,0.41
			c9.81,3.26,18.93,4.04,25.89-0.14c7.24-4.36,11.07-5.601,16.189-13.721"/>
		<path style="fill:none;stroke:#231F20;stroke-width:14;" d="M457.38,676.58c14.43,14.43,18.83,23.27,31.97,36.82
			c9.101,9.369,9.641,10.699,20.98,19.38c0.01,0,0.02,0.01,0.03,0.02"/>
		<path style="fill:none;stroke:#231F20;stroke-width:14;" d="M406.49,630.83l22.63,6.189c0,0,12.08,7.61,22.36,22.99"/>
		<path style="fill:none;stroke:#231F20;stroke-width:14;" d="M503.89,693.34c-0.01,0-0.02-0.01-0.029-0.01
			c-2.82-1.07-5.74-2.99-8.301-5.64c-6.329-6.53-8.149-15.04-4.079-18.99c4.079-3.95,12.529-1.87,18.859,4.66
			c2.8,2.88,4.72,6.159,5.63,9.25c0.011,0.02,0.011,0.04,0.021,0.06"/>
		<path style="fill:none;stroke:#231F20;stroke-width:14;" d="M224.94,293.69c-6.74-17.86-38.11-27.21-54.53-25.31
			c-15.45,1.77-23.13,2.97-40,13.94"/>
		<path style="fill:none;stroke:#231F20;stroke-width:14;" d="M288.58,295.92c9.59-16.51,42.07-20.58,57.96-16.01
			c14.95,4.29,22.33,6.73,37.15,20.32"/>
		<path style="fill:none;stroke:#231F20;stroke-width:6.6233;stroke-linecap:square;stroke-miterlimit:10;" d="M141.51,317.27
			c1.17-1.19,2.37-2.35,3.62-3.45c5.46-4.89,11.65-8.88,18.4-11.22c5.38-1.87,11.12-2.68,17.11-2.06
			c6.68,0.71,13.32,3.45,18.86,7.56c4.88,3.62,8.91,8.31,11.34,13.6c1.49,3.21,3.6,5.52,0.42,7.15c-2.71,1.38-5.72-0.01-8.59,1.04
			c-1.93,0.72-3.8,2.72-5.86,3.45c-2.44,0.9-5.64,1.27-8.23,1.59c-3.41,0.41-7.36,0.28-11.17-0.35c-3.01-0.51-5.93-1.33-8.4-2.45
			c-9.22-4.17-16.95-10.73-23.53-17.92"/>
		<path style="fill:none;stroke:#231F20;stroke-width:6.6233;stroke-linecap:square;stroke-miterlimit:10;" d="M198.46,309.5
			c0.94,2.33,0.25,2.02,0.02,4.67c-0.78,9.53-9.5,16.58-19.49,15.77c-0.3-0.02-0.59-0.06-0.88-0.09
			c-9.53-1.25-16.53-9.42-15.77-18.67c0.28-3.36,0.07-4.39,1.83-6.65c0.12-0.15,0.24-0.31,0.38-0.47"/>
		<path style="fill:none;stroke:#231F20;stroke-width:6.6233;stroke-linecap:square;stroke-miterlimit:10;" d="M374,336.71
			c-0.96-1.37-1.95-2.71-3-4c-4.77-5.94-10.47-11.06-17.05-14.47c-4.81-2.51-10.08-4.1-15.8-4.45c-7.4-0.45-15.16,1.56-21.72,5.37
			c-4.63,2.69-8.66,6.28-11.55,10.53c-1.98,2.92-4.47,4.85-1.58,6.98c2.43,1.81,5.64,0.93,8.3,2.45c1.78,1.02,3.29,3.29,5.21,4.36
			c2.26,1.29,5.34,2.17,7.85,2.92c3.83,1.12,8.5,1.64,12.92,1.43c2.41-0.11,4.76-0.43,6.85-0.99c9.79-2.59,18.5-7.79,26.16-13.8"/>
		<path style="fill:none;stroke:#231F20;stroke-width:6.6233;stroke-linecap:square;stroke-miterlimit:10;" d="M319.09,319.7
			c-1.3,2.13-0.57,1.95-0.79,4.59c-0.79,9.53,6.66,17.93,16.65,18.75c0.83,0.07,1.65,0.08,2.46,0.05
			c8.92-0.41,16.32-7.07,17.04-15.81c0.29-3.58,0.71-4.47-1.01-7.39"/>
		<path style="fill:none;stroke:#231F20;stroke-width:14;" d="M94.13,317.51c0.31,0.38,5.42,6.77,19.23,23.07l0.01,0.01"/>
		<path style="fill:none;stroke:#231F20;stroke-width:14;" d="M491.61,318.01c0.01-0.05,0.02-0.11,0.029-0.16
			C520.81,173.61,458.83,96.5,380.21,80.68c-105.92-21.31-181.94-21.56-249.5,60.58c-30.82,37.46-36.09,129.03-36.59,176.23"/>
		<path style="fill:none;stroke:#231F20;stroke-width:14;" d="M175.9,536.07c3.91,5.72,7.68,10.59,10.97,13.88
			c23.44,23.41,84.73,18.77,114.27,21.21c9.7,0.81,20.93-2.99,32.61-9.61c1.37-0.78,2.75-1.6,4.14-2.45
			c7.73-4.779,15.59-10.689,23.29-17.22c16.87-14.34,32.92-31.71,44.93-46.86c11.42-14.399,19.17-26.8,20.49-32.659
			c0.381-1.74,4.5-13.9,8.641-30.551c3.569-14.339,7.149-32,8.39-49.22c0.73-10.08,0.65-20.02-0.71-29.03
			c-0.45-2.99-1.04-5.89-1.79-8.65"/>
		<path style="fill:none;stroke:#231F20;stroke-width:14;" d="M443.62,382.59c-15.64-18.47-1.771-103.19-21.68-126.69
			c-19.92-23.51-30.54-83.71-30.54-83.71c-0.36-0.27-0.73-0.49-1.13-0.67c-8.9-4.11-25.87,13.69-34.62,17.69
			c-13.63,6.25-29.72,8.48-44.25,11.05c-37.67,6.69-80.56-59.3-167.02,13.95l-21.17,29.34c-3.18,38.54-8.29,58.77-9.74,76.28
			c-0.56,6.79-0.49,13.72-0.11,20.75c1.03,18.99,4.36,38.65,3.89,57.95c-0.08,3.49-0.02,6.86,0.18,10.1
			c2.18,35.46,20.08,56.54,25.8,69.33c3.97,8.88,18.13,36.34,31.11,55.8c0.52,0.79,1.04,1.561,1.56,2.311"/>
		<path style="fill:none;stroke:#231F20;stroke-width:14;" d="M387.92,176.58c0.74-1.65,1.52-3.34,2.35-5.06
			c8.58-17.74,21.98-38.26,35.03-50.55"/>
		<path style="fill:none;stroke:#231F20;stroke-width:7;" d="M187.65,481.72c3.11,0.221,6.13-0.06,9.09-0.64
			c16.08-3.15,30.18-15.36,46.35-6.47c9.88,5.43,16.38-1.971,27.61,0.17c13.46,2.56,28.98,9.779,50.22,11.16
			c2.21,0.14,4.48,0.22,6.82,0.22"/>
		<path style="fill:none;stroke:#231F20;stroke-width:7;" d="M181.26,479.28c2.19,0.71,4.31,1.54,6.39,2.439
			c9.13,3.98,17.39,9.431,27.04,12.601c13.68,4.529,29.74,3.189,44.01,3.149c23-0.08,41.69,5.511,60.21-9.79
			c0.67-0.55,1.34-1.13,2.01-1.739c0.01-0.011,0.01-0.011,0.02-0.021"/>
		<path style="fill:none;stroke:#231F20;stroke-width:7;" d="M197.1,482.78c35.59,2.939,86.97,4.85,121.74,4.819"/>
		<path style="fill:none;stroke:#231F20;stroke-width:7;" d="M227.98,301.76c21.19,18.76,6.99,63.67-0.12,80.31
			c-0.01,0.02-0.02,0.04-0.03,0.06c-0.94,2.22-14.71,13.52-16.48,17.45c-2.48,5.47-2.44,13.7,0.48,17.26
			c2.42,2.96,10.01,6.56,13.29,7.35c3.4,0.82,5.44,1.34,9.28,3.15c7.41,3.46,18.02,6.08,25.33,1.641c1.45-0.87,2.78-1.561,4.06-2.08
			c5.74-2.331,10.44-1.46,19.41-0.28c1.08,0.14,2.17,0.189,3.27,0.14c8.33-0.319,16.81-6.01,17.45-18.63
			c0.49-9.87-7.29-5.71-12-13.06"/>
		<path style="fill:none;stroke:#231F20;stroke-width:7;" d="M228.14,381.07c-0.09,0.33-0.19,0.66-0.28,1
			c-3.65,12.62-10.38,34.52,6.54,45.27"/>
		<path style="fill:none;stroke:#231F20;stroke-width:14;" d="M442.99,354.12c-0.03-0.18-0.05-0.37-0.07-0.56
			c-2.29-19.27,15.04-47.64,39.36-41.28c4.16,1.09,7.21,3.05,9.359,5.57c7.79,9.13,3.9,25.6-1.08,34.59
			c-15.439,27.91-10.359,39.06-13.84,61.04c-1.96,12.28-25.95,36.33-41.479,18.33"/>
		<path style="fill:none;stroke:#231F20;stroke-width:14;" d="M94.12,317.49c0,0.01,0,0.01,0.01,0.02
			c6.09,25.69-2.44,43.2-0.82,61.09c0.85,9.28,9.51,27.7,24.12,30.03c0.49,0.08,0.99,0.14,1.49,0.18"/>
		<path style="fill:none;stroke:#231F20;stroke-width:7;" d="M262.03,429.1c0.56-0.819,1.14-1.55,1.76-2.199
			c6.48-6.84,15.85-4,22.68-0.141c0.47,0.271,0.94,0.54,1.39,0.82"/>
		<path style="fill:none;stroke:#231F20;stroke-width:14;" d="M174.67,531.4c-0.11,0.79-0.22,1.58-0.33,2.359
			c-3.53,25.17-6.1,43.36-21.8,66.45"/>
		<path style="fill:none;stroke:#231F20;stroke-width:14;" d="M457.38,676.58c3.43,2.31,7.57,2.88,10.92,0.2
			c14.41-11.53,37.641-34.74,50.771-30.86c13.14,3.87,34.189,10.78,34.189,10.78s-21.21,13.16-37.29,25.91
			c-4.689,3.72-8.95,7.409-12.109,10.72c-2.94,3.07-4.94,5.83-5.48,7.99c-2.34,9.319,10.39,21.42,15.93,20.79
			c0.07-0.011,0.141-0.021,0.21-0.03"/>
		<path style="fill:none;stroke:#231F20;stroke-width:14;" d="M556.39,616.64c-21.17-3.29-48.14-6.67-48.14-6.67
			s-41.07,27.05-55.56,47.83c-0.5,0.72-0.9,1.45-1.21,2.21c-0.011,0-0.011,0,0,0.01c-2.561,6.16,0.92,13.19,5.899,16.561"/>
		<path style="fill:none;stroke:#231F20;stroke-width:14;" d="M731.72,646.63c0,0-139.43-22.39-153.779-26.06
			c-4.32-1.11-12.391-2.511-21.54-3.931h-0.011"/>
		<path style="fill:none;stroke:#231F20;stroke-width:14;" d="M575.14,685.15c0,0-45.71,23.81-60.71,37.899
			c-3.18,3-4.979,5.55-4.66,7.351c0.141,0.81,0.33,1.609,0.561,2.38c4.1,14.189,20.9,22.239,28.31,20.91"/>
		<path style="fill:none;stroke:#231F20;stroke-width:14;" d="M623.03,761.35c15.09,5.28,16.06,10.381,32.1,14.58
			c16.94,4.431,39.25-2.62,55.8-6.58c17.09-4.1,33.03-14.88,49.761-2.909"/>
		<path style="fill:none;stroke:#231F20;stroke-width:14;" d="M595.12,722.89c0,0-46.8,19.261-56.47,30.811
			c-1.28,1.53-1.91,2.92-1.7,4.109c1.83,10.261,11.93,16.32,23.39,19.48c0,0,14.73,2.72,17.851-3c0.64-1.18,0.79-2.71,0.22-4.7
			c-2.38-8.26,24.07-14.729,41.859-9.16c0.98,0.32,1.9,0.61,2.761,0.92"/>
	</g>
</g>
<rect style="fill:none;" width="850.394" height="850.394"/>
</svg>
