<svg xmlns="http://www.w3.org/2000/svg" width="850.394" height="850.394" viewBox="0 0 850.394 850.394" overflow="visible"><path d="M328 105.87c-15.58 10.91-51.99 28.28-58.68 33.19-4.58 3.37-8.22 8.14-10.6 13.49-2.13 4.79-3.25 10.05-3.13 15.19.25 10.18 3.64 13.84 3.64 29.16 0 7.69 3.48 15.92 7.56 22.98l-29.04 15.29c5.31-10.62 3.46-23.74 3.46-23.74-.2-20.18-2.67-42.2-3.02-46.96-1.41-19.78 5.93-49.83 16.59-67.2 17.96-29.25 47.22-41.85 92.29-36.6 33.48 3.9 64.07 40.52 64.07 86.93 0 16.26-7.22 34.23.91 50.45l-32.97 20.29c1.85-2.57 3.2-5.39 3.65-8.6.31-2.15 10.04-37.22-4.26-51.52-15.34-15.34-43.71-45.41-49.34-51.4l-.99-1.05c-.05.03-.09.06-.14.1z" fill="#9c5c25"/><path d="M312.55 217.35c2.19-5.51 17.42-2 21.47-2.41-3.49 5.27-6.5 11.94-12.62 14.64-6.71 2.97-13.92 2.39-19.44-2.19-4.04-3.32-12.48-7.88-3.43-10.5 2.77-.81 6.07-1.43 8.93-.77 1.51.34 3.73 1.8 5.09 1.23z" fill="#ef947d"/><path d="M330.18 161.01c2.25-1.4 4.88-2.24 7.46-2.3 2.23-.05 4.34.41 6.28 1.26l-.24.6c.75 1.05.61 1.42.61 2.79 0 3.66-3.11 6.64-6.95 6.64-3.84 0-6.96-2.98-6.96-6.64 0-1.02-.28-.93.15-1.79l-.35-.56zm2.98 2.6c0 2.06 1.9 3.72 4.24 3.72 2.35 0 4.24-1.66 4.24-3.72 0-2.07-1.89-3.73-4.24-3.73-2.34 0-4.24 1.66-4.24 3.73z" fill="#fff"/><path d="M330.38 163.36c0 3.66 3.12 6.64 6.96 6.64s6.95-2.98 6.95-6.64c0-1.37.14-1.74-.61-2.79l.24-.6c2.59 1.09 4.9 2.84 6.88 4.94l-.15.14c-2.74 2.54-5.91 4.81-9.57 6.1-2.2.8-5.25.93-7.57.46-.98-.21-2.19-.44-3.09-.88-.77-.34-1.42-1.16-2.13-1.5-1.07-.49-2.27-.05-3.25-.67-1.17-.72-.29-1.54.38-2.71 1.1-1.95 2.78-3.61 4.76-4.84l.35.56c-.43.86-.15.77-.15 1.79zM277.62 160.66c2.58.06 5.2.9 7.45 2.3l-.35.57c.43.85.15.76.15 1.78 0 3.66-3.11 6.64-6.95 6.64-3.85 0-6.96-2.98-6.96-6.64 0-1.39-.14-1.74.62-2.8l-.24-.6c1.94-.84 4.05-1.3 6.28-1.25zm.23 1.17c-2.34 0-4.24 1.67-4.24 3.73s1.9 3.73 4.24 3.73c2.35 0 4.23-1.67 4.23-3.73s-1.88-3.73-4.23-3.73z" fill="#fff"/><path d="M270.96 165.31c0 3.66 3.11 6.64 6.96 6.64 3.84 0 6.95-2.98 6.95-6.64 0-1.02.28-.93-.15-1.78l.35-.57c1.98 1.22 3.67 2.88 4.77 4.83.66 1.18 1.55 2 .38 2.72-.99.62-2.19.18-3.25.68-.71.33-1.36 1.15-2.13 1.5-.9.42-2.12.66-3.1.87-2.31.48-5.36.33-7.57-.46-3.65-1.3-6.82-3.57-9.57-6.1l-.15-.13c1.99-2.1 4.3-3.86 6.89-4.96l.24.6c-.76 1.06-.62 1.41-.62 2.8z" fill="#fff"/><path d="M350.8 164.91c-1.98-2.1-4.29-3.85-6.88-4.94a14.73 14.73 0 0 0-6.28-1.26c-2.58.06-5.21.9-7.46 2.3-1.98 1.23-3.66 2.89-4.76 4.84-.67 1.17-1.55 1.99-.38 2.71.98.62 2.18.18 3.25.67.71.34 1.36 1.16 2.13 1.5.9.44 2.11.67 3.09.88 2.32.47 5.37.34 7.57-.46 3.66-1.29 6.83-3.56 9.57-6.1l.15-.14zm-86.35 1.96l.15.13c2.75 2.53 5.92 4.8 9.57 6.1 2.21.79 5.26.94 7.57.46.98-.21 2.2-.45 3.1-.87.77-.35 1.42-1.17 2.13-1.5 1.06-.5 2.26-.06 3.25-.68 1.17-.72.28-1.54-.38-2.72-1.1-1.95-2.79-3.61-4.77-4.83-2.25-1.4-4.87-2.24-7.45-2.3-2.23-.05-4.34.41-6.28 1.25-2.59 1.1-4.9 2.86-6.89 4.96zm20.29 76.15c-2.06-1.82-3.98-3.74-5.62-5.81-1.78-2.24-7.48-8.96-12.32-17.33h-.01c-4.08-7.06-7.56-15.29-7.56-22.98 0-15.32-3.39-18.98-3.64-29.16-.12-5.14 1-10.4 3.13-15.19 2.38-5.35 6.02-10.12 10.6-13.49 6.69-4.91 43.1-22.28 58.68-33.19.24.49.61.81 1.13.95 5.63 5.99 34 36.06 49.34 51.4 14.3 14.3 4.57 49.37 4.26 51.52-.45 3.21-1.8 6.03-3.65 8.6-2.79 3.86-6.72 7.17-10.44 10.39-5.04 4.36-9.06 10.26-13.45 15.55-5.2 6.26-10.92 11.67-19.48 12.72-11.88 1.45-26.83 5.78-37.05-2.86-4.35-3.68-9.46-7.17-13.92-11.12zm49.28-28.08c-4.05.41-19.28-3.1-21.47 2.41-1.36.57-3.58-.89-5.09-1.23-2.86-.66-6.16-.04-8.93.77-9.05 2.62-.61 7.18 3.43 10.5 5.52 4.58 12.73 5.16 19.44 2.19 6.12-2.7 9.13-9.37 12.62-14.64z" fill="#ffeec8"/><path d="M368.65 251.13l-1.57 3c-7.57 18.54-26.93 31.73-49.62 31.73-22.65 0-41.99-13.15-49.59-31.65l-5.03-.12c10.64-5.6 18.99-9.67 21.9-11.07 4.46 3.95 9.57 7.44 13.92 11.12 10.22 8.64 25.17 4.31 37.05 2.86 8.56-1.05 14.28-6.46 19.48-12.72 2.52 1.25 7.31 3.65 13.46 6.85zM509.15 581.04c4.869 30.18 1.409 65.96-3.4 76.78-2.82 6.359-12.81 14.54-20.78 12.399-8.85-2.29-7.83-23.779-11.189-31.14-7.021.39-5 10.83-10 10.11-2.101-2.801-2.931-7.891-2.931-14.04 0-17.65 6.841-44.061 10.131-50.17l-1.101-3.78L474 580l34-6 .6-.05c.36 4.49.55 7.09.55 7.09zM174.28 633.74c0 6.149-.83 11.24-2.93 14.04-4.99.729-2.97-9.721-10-10.11-3.35 7.37-2.34 28.85-11.19 31.15-7.96 2.13-17.96-6.051-20.78-12.41-4.81-10.82-8.27-46.59-3.4-76.771 0 0 .27-3.64.78-9.75L128 570l37.17 10.09-1.02 3.48c3.29 6.11 10.13 32.52 10.13 50.17z" fill="#ffeec8"/><path d="M212.81 417.61l-.16-.01-47.48 162.49L128 570l-1.24-.11c1.94-23.27 7.37-82.409 14.74-112.939 26.54-110.08 54.77-159.75 54.77-159.75 11.63-11.62 34.03-25.3 53.52-36.08 4.57-2.52 8.98-4.89 13.05-7.03l5.03.12c7.6 18.5 26.94 31.65 49.59 31.65 22.69 0 42.05-13.19 49.62-31.73l1.57-3c21.08 10.99 58.15 31.47 74.32 47.64 0 0 24.12 49.51 50.66 159.59 7.67 31.779 13.24 94.52 14.97 115.59l-.6.049-34 6-4.12 1.2-47.4-162.2-1.77.09 7.58 146.23-3.12.16H211.22l-3.82-.021c1.5-61.549 4.93-137.459 5.41-147.849z" fill="#fff"/><path d="M428.6 571.17l.301-.02c.739 12.52 1.229 26.83 1.229 42.75 0 17.84-1.95 128.71-4.71 171.659l-89.86 1.58-8.3-147.27-17.18-.08-9.11 147.35-89.42-5.62c-2.84-43.96-4.86-150.26-4.86-168.43 0-13.42.27-29.93.71-47.63l3.82.021h213.95l3.12-.16.31 5.85z" fill="#797878"/><path d="M703.01 194.73h3.21c.87 2.5 1.351 5.24 1.351 8.11 0 11.74-7.99 21.26-17.851 21.26-9.859 0-17.84-9.52-17.84-21.26 0-2.87.48-5.61 1.351-8.11h29.779z" fill="#231f20"/><path d="M706.22 194.73h-3.21v-6.07a22.26 22.26 0 0 1 3.21 6.07z" fill="#231f20"/><path d="M703.01 188.66v6.07h-29.78c2.67-7.72 9.039-13.15 16.489-13.15 5.281 0 10.031 2.73 13.291 7.08zM628.56 203.05c2.851 3.77 4.58 8.75 4.58 14.22 0 3.87-.87 7.49-2.39 10.62h-30.91c-1.52-3.13-2.39-6.75-2.39-10.62 0-11.74 7.99-21.27 17.84-21.27 5.27 0 10.01 2.72 13.27 7.05z" fill="#231f20"/><path d="M599.84 227.89h30.91c-3.08 6.36-8.85 10.64-15.46 10.64s-12.38-4.28-15.45-10.64zM556.3 262.06h.74c2.41 3.62 3.84 8.19 3.84 13.16 0 9.49-5.21 17.52-12.41 20.26h-10.88c-7.189-2.74-12.399-10.77-12.399-20.26 0-4.97 1.43-9.54 3.84-13.16H556.3zM557.04 262.06h-.74v-1.05c.26.34.51.69.74 1.05zM556.3 261.01v1.05h-27.27c3.26-4.94 8.319-8.1 14-8.1 5.27 0 10.01 2.72 13.27 7.05zM537.59 295.48h10.88c-1.72.66-3.54 1.01-5.439 1.01-1.901 0-3.721-.35-5.441-1.01zM337.4 161.95c.84 0 1.52.74 1.52 1.66 0 .91-.68 1.65-1.52 1.65s-1.51-.74-1.51-1.65c0-.92.67-1.66 1.51-1.66z" fill="#231f20"/><path d="M338.92 163.61c0-.92-.68-1.66-1.52-1.66s-1.51.74-1.51 1.66c0 .91.67 1.65 1.51 1.65s1.52-.74 1.52-1.65zm-1.52 3.72c-2.34 0-4.24-1.66-4.24-3.72 0-2.07 1.9-3.73 4.24-3.73 2.35 0 4.24 1.66 4.24 3.73 0 2.06-1.89 3.72-4.24 3.72zM277.85 167.22c-.84 0-1.51-.75-1.51-1.66 0-.92.67-1.66 1.51-1.66s1.53.74 1.53 1.66c0 .91-.69 1.66-1.53 1.66z" fill="#231f20"/><path d="M277.85 163.9c-.84 0-1.51.74-1.51 1.66 0 .91.67 1.66 1.51 1.66s1.53-.75 1.53-1.66c0-.92-.69-1.66-1.53-1.66zm-4.24 1.66c0-2.06 1.9-3.73 4.24-3.73 2.35 0 4.23 1.67 4.23 3.73s-1.88 3.73-4.23 3.73c-2.34 0-4.24-1.67-4.24-3.73z" fill="#231f20"/><g fill="none"><path d="M211.55 781.52c-2.84-43.96-4.86-150.26-4.86-168.43 0-13.42.27-29.93.71-47.63 1.5-61.55 4.93-137.46 5.41-147.85.03-.79.05-1.2.05-1.2M428.82 575.47l-.22-4.3-.31-5.85-7.58-146.23-.09-1.82M425.42 785.56c2.76-42.949 4.71-153.819 4.71-171.659 0-15.92-.49-30.23-1.229-42.75M335.56 787.14l-8.3-147.27-17.18-.08-9.11 147.35M211.22 565.48h213.95M125.98 579.64s.27-3.64.78-9.75c1.94-23.27 7.37-82.409 14.74-112.939 26.54-110.08 54.77-159.75 54.77-159.75 11.63-11.62 34.03-25.3 53.52-36.08 4.57-2.52 8.98-4.89 13.05-7.03 10.64-5.6 18.99-9.67 21.9-11.07.73-.36 1.12-.54 1.12-.54" stroke="#231f20" stroke-width="14"/><path d="M212.65 417.6l-47.48 162.49-1.02 3.48c3.29 6.109 10.13 32.52 10.13 50.17 0 6.149-.83 11.24-2.93 14.04-4.99.729-2.97-9.721-10-10.11-3.35 7.37-2.34 28.85-11.19 31.15-7.96 2.13-17.96-6.051-20.78-12.41-4.81-10.82-8.27-46.59-3.4-76.771" stroke="#231f20" stroke-width="14"/><path stroke="#231f20" stroke-width="14" d="M128 570l37.17 10.09 2.09.57M509.15 581.04s-.19-2.6-.551-7.09c-1.729-21.07-7.3-83.811-14.97-115.59-26.54-110.081-50.66-159.59-50.66-159.59-16.17-16.17-53.24-36.65-74.32-47.64-6.15-3.2-10.94-5.6-13.46-6.85-1.26-.62-1.95-.95-1.95-.95M422.48 419l47.4 162.2 1.101 3.78c-3.29 6.109-10.131 32.52-10.131 50.17 0 6.149.83 11.239 2.931 14.04 5 .72 2.979-9.721 10-10.11 3.359 7.36 2.34 28.85 11.189 31.14 7.971 2.141 17.96-6.04 20.78-12.399 4.81-10.82 8.27-46.601 3.4-76.78M508 574l-34 6"/><path d="M367.08 254.13c-7.57 18.54-26.93 31.73-49.62 31.73-22.65 0-41.99-13.15-49.59-31.65" stroke="#231f20" stroke-width="14"/><path d="M628.56 203.05c2.851 3.77 4.58 8.75 4.58 14.22 0 3.87-.87 7.49-2.39 10.62-3.08 6.36-8.85 10.64-15.46 10.64s-12.38-4.28-15.45-10.64c-1.52-3.13-2.39-6.75-2.39-10.62 0-11.74 7.99-21.27 17.84-21.27 5.27 0 10.01 2.72 13.27 7.05zM706.22 194.73c.87 2.5 1.351 5.24 1.351 8.11 0 11.74-7.99 21.26-17.851 21.26-9.859 0-17.84-9.52-17.84-21.26 0-2.87.48-5.61 1.351-8.11 2.67-7.72 9.039-13.15 16.489-13.15 5.28 0 10.03 2.73 13.29 7.08a22.26 22.26 0 0 1 3.21 6.07z" stroke="#231f20" stroke-width="6.266"/><path stroke="#231f20" stroke-width="12.532" d="M628.56 217.43v-97.2l74.45-21.27V202.84"/><path d="M557.04 262.06c2.41 3.62 3.84 8.19 3.84 13.16 0 9.49-5.21 17.52-12.41 20.26-1.72.66-3.54 1.01-5.439 1.01-1.9 0-3.721-.35-5.44-1.01-7.189-2.74-12.399-10.77-12.399-20.26 0-4.97 1.43-9.54 3.84-13.16 3.26-4.94 8.319-8.1 14-8.1 5.27 0 10.01 2.72 13.27 7.05.258.34.508.69.738 1.05z" stroke="#231f20" stroke-width="6.266"/><path stroke="#231f20" stroke-width="12.532" d="M556.3 275.39V178.19"/><path stroke="#231f20" stroke-width="7" d="M477.32 194.73H729.45M477.32 227.89h252.13M477.32 262.06h252.13M477.32 295.48h252.13M319.31 154.79c5.88-9.81 20.19-11.37 28.38-8.17 4.39 1.71 7.07 3.74 8.22 4.9M288.44 151.16c-7.78-6.94-22.98-5.87-29.72 1.39-.36.37-.69.77-.99 1.18M298.16 156.91c8.54 6.39 4.02 28.03 1.87 34.48-.68 2.05-3.63 5.7-1.56 7.84 1 1.03 2.28.47 3.55.67 1.3.2 2.07.33 3.57.89 2.89 1.07 5 1.73 7.6-.17 2.82-2.04 2.61-3.49 6.77-3.29 3.5.17 7.38 1.15 7.2-4.24-.12-3.71-2.91-3.66-4.9-6.28M312.55 217.35c.23-.09.43-.24.6-.46"/><path d="M312.55 217.35c2.19-5.51 17.42-2 21.47-2.41-3.49 5.27-6.5 11.94-12.62 14.64-6.71 2.97-13.92 2.39-19.44-2.19-4.04-3.32-12.48-7.88-3.43-10.5 2.77-.81 6.07-1.43 8.93-.77 1.51.34 3.73 1.8 5.09 1.23zM312.31 218.3c.04-.34.12-.66.24-.95" stroke="#231f20" stroke-width="7"/><path d="M266.79 219.88c-4.08-7.06-7.56-15.29-7.56-22.98 0-15.32-3.39-18.98-3.64-29.16-.12-5.14 1-10.4 3.13-15.19 2.38-5.35 6.02-10.12 10.6-13.49 6.69-4.91 43.1-22.28 58.68-33.19.05-.04.09-.07.14-.1l.99 1.05c5.63 5.99 34 36.06 49.34 51.4 14.3 14.3 4.57 49.37 4.26 51.52-.45 3.21-1.8 6.03-3.65 8.6-2.79 3.86-6.72 7.17-10.44 10.39-5.04 4.36-9.06 10.26-13.45 15.55-5.2 6.26-10.92 11.67-19.48 12.72-11.88 1.45-26.83 5.78-37.05-2.86-4.35-3.68-9.46-7.17-13.92-11.12-2.06-1.82-3.98-3.74-5.62-5.81-1.78-2.24-7.48-8.96-12.32-17.33" stroke="#231f20" stroke-width="14"/><path d="M266.8 219.88h-.01l-29.04 15.29c5.31-10.62 3.46-23.74 3.46-23.74-.2-20.18-2.67-42.2-3.02-46.96-1.41-19.78 5.93-49.83 16.59-67.2 17.96-29.25 47.22-41.85 92.29-36.6 33.48 3.9 64.07 40.52 64.07 86.93 0 16.26-7.22 34.23.91 50.45l-32.97 20.29-.06.04" stroke="#231f20" stroke-width="14"/><path d="M263.18 168.3c.41-.49.83-.97 1.27-1.43 1.99-2.1 4.3-3.86 6.89-4.96 1.94-.84 4.05-1.3 6.28-1.25 2.58.06 5.2.9 7.45 2.3 1.98 1.22 3.67 2.88 4.77 4.83.66 1.18 1.55 2 .38 2.72-.99.62-2.19.18-3.25.68-.71.33-1.36 1.15-2.13 1.5-.9.42-2.12.66-3.1.87-2.31.48-5.36.33-7.57-.46-3.65-1.3-6.82-3.57-9.57-6.1" stroke="#231f20" stroke-width="3.635" stroke-linecap="square" stroke-miterlimit="10"/><path d="M284.72 163.53c.43.85.15.76.15 1.78 0 3.66-3.11 6.64-6.95 6.64-3.85 0-6.96-2.98-6.96-6.64 0-1.39-.14-1.74.62-2.8M352.07 166.34c-.41-.49-.83-.97-1.27-1.43-1.98-2.1-4.29-3.85-6.88-4.94a14.73 14.73 0 0 0-6.28-1.26c-2.58.06-5.21.9-7.46 2.3-1.98 1.23-3.66 2.89-4.76 4.84-.67 1.17-1.55 1.99-.38 2.71.98.62 2.18.18 3.25.67.71.34 1.36 1.16 2.13 1.5.9.44 2.11.67 3.09.88 2.32.47 5.37.34 7.57-.46 3.66-1.29 6.83-3.56 9.57-6.1" stroke="#231f20" stroke-width="3.635" stroke-linecap="square" stroke-miterlimit="10"/><path d="M330.53 161.57c-.43.86-.15.77-.15 1.79 0 3.66 3.12 6.64 6.96 6.64s6.95-2.98 6.95-6.64c0-1.37.14-1.74-.61-2.79" stroke="#231f20" stroke-width="3.635" stroke-linecap="square" stroke-miterlimit="10"/><path d="M329.96 106.93c-.31 0-.58-.03-.83-.11-.52-.14-.89-.46-1.13-.95-.03-.06-.05-.13-.08-.2 4.79-4.66 7.14-12.06 8.57-18.34" stroke="#231f20" stroke-width="14"/><path stroke="#797878" d="M335.56 787.14l89.86-1.58"/></g><path fill="none" d="M0 0h850.394v850.394H0z"/></svg>