<?xml version="1.0" encoding="iso-8859-1"?>
<!-- Generator: Adobe Illustrator 12.0.1, SVG Export Plug-In . SVG Version: 6.00 Build 51448)  -->
<!DOCTYPE svg PUBLIC "-//W3C//DTD SVG 1.1//EN" "http://www.w3.org/Graphics/SVG/1.1/DTD/svg11.dtd" [
	<!ENTITY ns_svg "http://www.w3.org/2000/svg">
	<!ENTITY ns_xlink "http://www.w3.org/1999/xlink">
]>
<svg  version="1.1" id="Layer_1" xmlns="&ns_svg;" xmlns:xlink="&ns_xlink;" width="850.394" height="850.394"
	 viewBox="0 0 850.394 850.394" style="overflow:visible;enable-background:new 0 0 850.394 850.394;" xml:space="preserve">
<g id="XMLID_11_">
	<g>
		<path style="fill:#FFFFC2;" d="M446.85,583.44c-20.659,9.79-15.739,53.939-15.3,57.56H414.3c0.43-3.55,5.39-47.77-15.29-57.57
			c-6.55-3.1-15.15,2.75-15.15,2.75s-7.41,4.37-11.54,16.19l-1.01-0.351c0,0-11.68-17.939-23.36-12.939
			c-3.83,1.64-6.36,5.26-8.05,9.74l-1.13-0.78c0,0-10.44-16.03-20.87-11.56c-10.45,4.479-10.08,25.359-10.45,34.3L306,621.26
			c-0.22-0.06-0.44-0.13-0.65-0.189C290.44,576.06,281.1,508.18,281.1,508.18l0.03-3.6c0.38,0.01,0.77,0.01,1.16,0.01
			c17.98,0,28.77,41.94,34.76,55.12c0,0,16.78,15.58,103.08,14.39h1.64c86.29,1.2,103.08-14.38,103.08-14.38
			c5.99-13.189,16.78-55.13,34.761-55.13c0.39,0,0.779,0,1.159-0.01l0.03,3.61c0,0-8.109,58.89-21.27,103.34
			c-0.141,0.479-0.28,0.96-0.42,1.439c-0.71,2.37-1.44,4.7-2.19,6.98c-0.1-10.15,0.561-29.38-8.96-33.46
			c-10.44-4.471-20.87,11.56-20.87,11.56l-1.39,0.141c-1.681-4.181-4.15-7.54-7.8-9.11c-11.67-5-23.36,12.95-23.36,12.95l-1,0.35
			C469.41,590.56,462,586.19,462,586.19S453.39,580.34,446.85,583.44z"/>
		<path style="fill:#FFFFC2;" d="M503.21,675.85c-15.13,14.87-36.89,25.5-82.24,25.33c-0.48,0-0.96-0.01-1.44-0.01v0.01
			c-16.76-0.02-30.24-1.54-41.35-4.22v-53.94l0.37-3.09c3.24,0.48,6.14,0.79,8.61,0.88c21.69,0.83,27.11,0.421,27.11,0.421
			s0.01-0.08,0.03-0.23h17.25c0.021,0.16,0.03,0.24,0.03,0.24s5.42,0.41,27.12-0.42c4.95-0.19,11.649-1.24,19.3-2.83
			c7.25-1.51,15.34-3.49,23.57-5.67l1.25,4.689v37.76L503.21,675.85z"/>
		<path style="fill:#FFFFC2;" d="M431.55,641c-0.439-3.62-5.359-47.77,15.3-57.56c6.54-3.101,15.15,2.75,15.15,2.75
			s7.41,4.369,11.54,16.189c1.43,4.09,2.47,9.07,2.67,15.07c0.51,15.069,1.25,17.53,1.25,17.53l0.54,3.01
			c-7.65,1.59-14.35,2.64-19.3,2.83c-21.7,0.83-27.12,0.42-27.12,0.42S431.57,641.16,431.55,641z"/>
		<path style="fill:#FFFFC2;" d="M414.27,641.23c0,0-5.42,0.409-27.11-0.421c-2.47-0.09-5.37-0.399-8.61-0.88
			c-4.68-0.699-10.06-1.76-15.84-3.06l5.67-1.9c0,0,0.75-2.46,1.26-17.52c0.21-6.01,1.25-10.99,2.68-15.08
			c4.13-11.82,11.54-16.19,11.54-16.19s8.6-5.85,15.15-2.75c20.68,9.801,15.72,54.021,15.29,57.57
			C414.28,641.15,414.27,641.23,414.27,641.23z"/>
		<path style="fill:#FFFFC2;" d="M420.95,785.2c-4.59,0.359-19.1,0.689-41.57-6.15c-70.16-21.359-116.26-86.3-119.86-118.66
			c-3.59-32.359-10.78-159.399-10.78-159.399l0.1-0.34c8.55,2.46,19.16,3.859,32.29,3.93l-0.03,3.6c0,0,9.34,67.88,24.25,112.891
			c0.04,0.12,0.08,0.25,0.12,0.37c4.24,12.75,8.93,23.63,13.98,30.569c5.56,7.641,10.81,15.07,17.19,21.75
			c9.64,10.09,21.85,18.46,41.54,23.2c11.11,2.68,24.59,4.2,41.35,4.22c0.48,0,0.96,0,1.44,0c45.35,0.17,67.11-10.46,82.24-25.33
			c7.33-7.199,13.09-15.399,19.23-23.84c4.92-6.76,9.5-17.26,13.659-29.59c0.29-0.09,0.58-0.17,0.86-0.26
			c-0.02-0.67-0.03-1.41-0.04-2.21c0.75-2.28,1.48-4.61,2.19-6.98c0.14-0.479,0.279-0.96,0.42-1.439
			c13.16-44.45,21.27-103.34,21.27-103.34l-0.03-3.61c13.131-0.07,23.74-1.47,32.29-3.93l0.101,0.35c0,0-7.19,127.04-10.78,159.4
			c-3.6,32.359-49.7,97.29-119.85,118.649C440.05,785.89,425.54,785.57,420.95,785.2z"/>
		<path style="fill:#FFFFC2;" d="M527.96,586.49c9.521,4.08,8.86,23.31,8.96,33.46c-0.27,0.83-0.54,1.66-0.82,2.47
			c-7.859,2.39-16.779,5.021-25.819,7.53l-0.69-2.48c-0.29-6.89-0.18-20.08-3.89-29.279l1.39-0.141
			C507.09,598.05,517.52,582.02,527.96,586.49z"/>
		<path style="fill:#FFFFC2;" d="M536.1,622.42c-4.159,12.33-8.739,22.83-13.659,29.59c-6.141,8.44-11.9,16.641-19.23,23.84
			l-0.39-1.08v-37.76l-1.25-4.689c2.899-0.771,5.81-1.561,8.71-2.36v-0.01C519.32,627.44,528.24,624.81,536.1,622.42z"/>
		<path style="fill:#FFFFC2;" d="M510.28,629.95v0.01c-2.9,0.8-5.811,1.59-8.71,2.36c-8.23,2.18-16.32,4.16-23.57,5.67l-0.54-3.01
			c0,0-0.74-2.461-1.25-17.53c-0.2-6-1.24-10.98-2.67-15.07l1-0.35c0,0,11.69-17.95,23.36-12.95c3.649,1.57,6.119,4.93,7.8,9.11
			c3.71,9.199,3.6,22.39,3.89,29.279L510.28,629.95z"/>
		<path style="fill:#FFFFC2;" d="M378.55,639.93l-0.37,3.09v53.94c-19.69-4.74-31.9-13.11-41.54-23.2l1.39-0.189V635.81l0.7-4.989
			c8.21,2.239,16.43,4.35,23.98,6.05C368.49,638.17,373.87,639.23,378.55,639.93z"/>
		<path style="fill:#FFFFC2;" d="M371.31,602.02l1.01,0.351c-1.43,4.09-2.47,9.07-2.68,15.08c-0.51,15.06-1.26,17.52-1.26,17.52
			l-5.67,1.9c-7.55-1.7-15.77-3.811-23.98-6.05c-2.41-0.66-4.82-1.33-7.22-2.011l4.76-1.35c0.28-6.729,0.18-19.479,3.63-28.64
			c1.69-4.48,4.22-8.101,8.05-9.74C359.63,584.08,371.31,602.02,371.31,602.02z"/>
		<path style="fill:#FFFFC2;" d="M338.77,598.04l1.13,0.78c-3.45,9.16-3.35,21.91-3.63,28.64l-4.76,1.35
			c-9.09-2.569-17.92-5.22-25.51-7.55l1.45-0.479c0.37-8.94,0-29.82,10.45-34.3C328.33,582.01,338.77,598.04,338.77,598.04z"/>
		<path style="fill:#FFFFC2;" d="M338.73,630.82l-0.7,4.989v37.761l-1.39,0.189c-6.38-6.68-11.63-14.109-17.19-21.75
			c-5.05-6.939-9.74-17.819-13.98-30.569l0.53-0.181c7.59,2.33,16.42,4.98,25.51,7.55C333.91,629.49,336.32,630.16,338.73,630.82z"
			/>
		<path style="fill:#FFFFC2;" d="M424.7,412.15c0,0,11.609-5.85,19.85,40.9c9.311,52.79,7.181,59.931-19.19,62.33l-1.64-0.01
			c-26.36-2.39-29.56-9.74-19.18-62.32c9.59-48.54,18.36-40.68,18.36-40.68L424.7,412.15z"/>
		<path style="fill:#FFFFC2;" d="M444.55,453.05c-8.24-46.75-19.85-40.9-19.85-40.9l-1.8,0.22c0,0-8.77-7.86-18.36,40.68
			c-10.38,52.58-7.18,59.931,19.18,62.32l1.64,0.01C451.73,512.98,453.86,505.84,444.55,453.05z M644.7,220.53
			c15.59,62.33,0,133.04-10.79,165.4c0,0-7.19,39.55-7.19,67.12c0,20.88-6.18,39.7-33.66,47.601c-8.55,2.46-19.159,3.859-32.29,3.93
			c-0.38,0.01-0.77,0.01-1.159,0.01c-17.98,0-28.771,41.94-34.761,55.13c0,0-16.79,15.58-103.08,14.38h-1.64
			c-86.3,1.19-103.08-14.39-103.08-14.39c-5.99-13.18-16.78-55.12-34.76-55.12c-0.39,0-0.78,0-1.16-0.01
			c-13.13-0.07-23.74-1.47-32.29-3.93c-27.48-7.9-33.66-26.73-33.66-47.601c0-27.57-7.19-67.12-7.19-67.12
			c-10.79-32.36-26.37-103.07-10.79-165.4c15.58-62.33,59.92-106.67,109.07-127.04c60.2-24.97,107.86-23.97,107.86-23.97h13.63
			c0,0,47.67-1,107.87,23.97C584.78,113.86,629.12,158.2,644.7,220.53z M581.18,387.13c0-27.14-24.149-41.95-53.93-41.95
			c-29.79,0-53.94,14.81-53.94,41.95c0,27.13,24.15,49.14,53.94,49.14C557.03,436.27,581.18,414.26,581.18,387.13z M368.59,387.13
			c0-27.14-24.15-41.95-53.94-41.95c-29.78,0-53.93,14.81-53.93,41.95c0,27.13,24.15,49.14,53.93,49.14
			C344.44,436.27,368.59,414.26,368.59,387.13z"/>
		<path style="fill:#231F20;" d="M527.25,345.18c29.78,0,53.93,14.81,53.93,41.95c0,27.13-24.149,49.14-53.93,49.14
			c-29.79,0-53.94-22.01-53.94-49.14C473.31,359.99,497.46,345.18,527.25,345.18z"/>
		<path style="fill:#231F20;" d="M314.65,345.18c29.79,0,53.94,14.81,53.94,41.95c0,27.13-24.15,49.14-53.94,49.14
			c-29.78,0-53.93-22.01-53.93-49.14C260.72,359.99,284.87,345.18,314.65,345.18z"/>
	</g>
	<g>
		<path style="fill:none;stroke:#231F20;stroke-width:14;" d="M248.74,500.99c0,0,7.19,127.04,10.78,159.399
			c3.6,32.36,49.7,97.301,119.86,118.66c22.47,6.84,36.98,6.51,41.57,6.15c1.04-0.08,1.57-0.16,1.57-0.16"/>
		<path style="fill:none;stroke:#231F20;stroke-width:14;" d="M281.1,508.18c0,0,9.34,67.88,24.25,112.891
			c0.04,0.12,0.08,0.25,0.12,0.37c4.24,12.75,8.93,23.63,13.98,30.569c5.56,7.641,10.81,15.07,17.19,21.75
			c9.64,10.09,21.85,18.46,41.54,23.2c11.11,2.68,24.59,4.2,41.35,4.22c0.48,0,0.96,0,1.44,0c1.3-0.01,2.62-0.02,3.95-0.04"/>
		<path style="fill:none;stroke:#231F20;stroke-width:14;" d="M248.84,500.65c-27.48-7.9-33.66-26.73-33.66-47.601
			c0-27.57-7.19-67.12-7.19-67.12c-10.79-32.36-26.37-103.07-10.79-165.4c15.58-62.33,59.92-106.67,109.07-127.04
			c60.2-24.97,107.86-23.97,107.86-23.97h13.63c0,0,47.67-1,107.87,23.97c49.15,20.37,93.49,64.71,109.07,127.04
			c15.59,62.33,0,133.04-10.79,165.4c0,0-7.19,39.55-7.19,67.12c0,20.88-6.18,39.7-33.66,47.601c-8.55,2.46-19.159,3.859-32.29,3.93
			c-0.38,0.01-0.77,0.01-1.159,0.01c-17.98,0-28.771,41.94-34.761,55.13c0,0-16.79,15.58-103.08,14.38h-1.64
			c-86.3,1.19-103.08-14.39-103.08-14.39c-5.99-13.18-16.78-55.12-34.76-55.12c-0.39,0-0.78,0-1.16-0.01
			C268,504.51,257.39,503.11,248.84,500.65z"/>
		<path style="fill:none;stroke:#231F20;stroke-width:14;" d="M593.16,501c0,0-7.19,127.04-10.78,159.4
			c-3.6,32.359-49.7,97.29-119.85,118.649c-22.48,6.84-36.99,6.521-41.58,6.15c-1.04-0.07-1.57-0.15-1.57-0.15"/>
		<path style="fill:none;stroke:#231F20;stroke-width:14;" d="M416.98,701.14c0.86,0.021,1.71,0.021,2.55,0.03
			c0.48,0,0.96,0.01,1.44,0.01c45.35,0.17,67.11-10.46,82.24-25.33c7.33-7.199,13.09-15.399,19.23-23.84
			c4.92-6.76,9.5-17.26,13.659-29.59c0.28-0.81,0.551-1.64,0.82-2.47c0.75-2.28,1.48-4.61,2.19-6.98"/>
		<path style="fill:none;stroke:#231F20;stroke-width:14;" d="M539.53,611.53c-0.141,0.479-0.28,0.96-0.42,1.439"/>
		<path style="fill:none;stroke:#231F20;stroke-width:14;" d="M560.8,508.19c0,0-8.109,58.89-21.27,103.34"/>
		<path style="fill:none;stroke:#231F20;stroke-width:14;" d="M425.36,515.38c26.371-2.399,28.5-9.54,19.19-62.33
			c-8.24-46.75-19.85-40.9-19.85-40.9l-1.8,0.22c0,0-8.77-7.86-18.36,40.68c-10.38,52.58-7.18,59.931,19.18,62.32L425.36,515.38z"/>
		<path style="fill:none;stroke:#231F20;stroke-width:14;" d="M368.38,634.97c0,0,0.75-2.46,1.26-17.52
			c0.21-6.01,1.25-10.99,2.68-15.08c4.13-11.82,11.54-16.19,11.54-16.19s8.6-5.85,15.15-2.75c20.68,9.801,15.72,54.021,15.29,57.57
			c-0.02,0.15-0.03,0.23-0.03,0.23s-5.42,0.409-27.11-0.421c-2.47-0.09-5.37-0.399-8.61-0.88c-4.68-0.699-10.06-1.76-15.84-3.06
			c-7.55-1.7-15.77-3.811-23.98-6.05c-2.41-0.66-4.82-1.33-7.22-2.011c-9.09-2.569-17.92-5.22-25.51-7.55
			c-0.22-0.06-0.44-0.13-0.65-0.189c-0.19-0.061-0.37-0.11-0.55-0.17"/>
		<path style="fill:none;stroke:#231F20;stroke-width:14;" d="M371.31,602.02c0,0-11.68-17.939-23.36-12.939
			c-3.83,1.64-6.36,5.26-8.05,9.74c-3.45,9.16-3.35,21.91-3.63,28.64"/>
		<path style="fill:none;stroke:#231F20;stroke-width:14;" d="M338.77,598.04c0,0-10.44-16.03-20.87-11.56
			c-10.45,4.479-10.08,25.359-10.45,34.3"/>
		<path style="fill:none;stroke:#231F20;stroke-width:14;" d="M477.46,634.98c0,0-0.74-2.461-1.25-17.53
			c-0.2-6-1.24-10.98-2.67-15.07C469.41,590.56,462,586.19,462,586.19s-8.61-5.851-15.15-2.75
			c-20.659,9.79-15.739,53.939-15.3,57.56c0.021,0.16,0.03,0.24,0.03,0.24s5.42,0.41,27.12-0.42c4.95-0.19,11.649-1.24,19.3-2.83
			c7.25-1.51,15.34-3.49,23.57-5.67c2.899-0.771,5.81-1.561,8.71-2.36v-0.01c9.04-2.51,17.96-5.141,25.819-7.53
			c0.29-0.09,0.58-0.17,0.86-0.26c0.09-0.03,0.17-0.05,0.26-0.08"/>
		<path style="fill:none;stroke:#231F20;stroke-width:14;" d="M474.54,602.03c0,0,11.69-17.95,23.36-12.95
			c3.649,1.57,6.119,4.93,7.8,9.11c3.71,9.199,3.6,22.39,3.89,29.279"/>
		<path style="fill:none;stroke:#231F20;stroke-width:14;" d="M507.09,598.05c0,0,10.43-16.03,20.87-11.56
			c9.521,4.08,8.86,23.31,8.96,33.46c0.01,0.8,0.021,1.54,0.04,2.21c0.01,0.17,0.01,0.32,0.021,0.479"/>
		<polyline style="fill:none;stroke:#231F20;stroke-width:14;" points="419.53,647.21 419.53,701.17 419.53,701.18 419.53,701.33 		
			"/>
		<line style="fill:none;stroke:#231F20;stroke-width:14;" x1="461.47" y1="647.21" x2="461.47" y2="695.14"/>
		<polyline style="fill:none;stroke:#231F20;stroke-width:14;" points="378.18,643.02 378.18,696.96 378.18,697.14 		"/>
		<line style="fill:none;stroke:#231F20;stroke-width:14;" x1="502.82" y1="637.01" x2="502.82" y2="674.77"/>
		<line style="fill:none;stroke:#231F20;stroke-width:14;" x1="338.03" y1="635.81" x2="338.03" y2="673.57"/>
		<polyline style="fill:none;stroke:#231F20;stroke-width:14;" points="402,641 414.3,641 431.55,641 440,641 		"/>
	</g>
</g>
<rect style="fill:none;" width="850.394" height="850.394"/>
</svg>
