<?xml version="1.0" encoding="iso-8859-1"?>
<!-- Generator: Adobe Illustrator 12.0.1, SVG Export Plug-In . SVG Version: 6.00 Build 51448)  -->
<!DOCTYPE svg PUBLIC "-//W3C//DTD SVG 1.1//EN" "http://www.w3.org/Graphics/SVG/1.1/DTD/svg11.dtd" [
	<!ENTITY ns_svg "http://www.w3.org/2000/svg">
	<!ENTITY ns_xlink "http://www.w3.org/1999/xlink">
]>
<svg  version="1.1" id="Layer_1" xmlns="&ns_svg;" xmlns:xlink="&ns_xlink;" width="850.394" height="850.394"
	 viewBox="0 0 850.394 850.394" style="overflow:visible;enable-background:new 0 0 850.394 850.394;" xml:space="preserve">
<g id="XMLID_2_">
	<g>
		<path style="fill:#A3D9FF;" d="M277.32,721.38c-1.52-5.88-2.73-12.17-3.69-18.59c-0.96-30.09,20.56-60.04,49.95-55.83
			c31.56,4.5,47.74,52.97,64.05,77.22c-0.23,4.221-0.54,8.44-0.97,12.641c-0.64,6.25-1.15,13.609-4.34,19.199
			c-12.91,22.601-61.87,23.131-91.47-6.46C284.73,743.45,280.39,733.26,277.32,721.38z"/>
		<path style="fill:#A3D9FF;" d="M529.04,646.92c29.39-4.2,50.9,25.73,49.96,55.8c-0.97,6.45-2.18,12.78-3.71,18.69
			c0,0.01-0.01,0.01-0.01,0.02c-3.07,11.84-7.41,22-13.511,28.101c-29.59,29.6-78.55,29.06-91.46,6.46
			c-3.189-5.59-3.71-12.95-4.34-19.21c-0.43-4.2-0.739-8.41-0.97-12.63C481.31,699.9,497.49,651.44,529.04,646.92z"/>
		<path style="fill:#A3D9FF;" d="M558.46,89.61c-23.25-9.47-60.87,6.46-76.63,19.36c-13.63,11.15-30.34,11.07-55.91,11.07l0.79,0.03
			c-25.58,0-42.28,0.08-55.91-11.08c-15.43-12.61-51.15-28.42-74.45-20.22c35.91-13.47,130.09-11.74,130.09-11.74L426.18,77
			C426.18,77,524.35,75.2,558.46,89.61z"/>
		<path style="fill:#A3D9FF;" d="M440.18,577.43c-2.72-2.05-7.699-4.16-13.62-4.939l-0.489,0.029c-5.92,0.78-10.9,2.881-13.62,4.94
			c-6.13,4.63-12.77,13.31-14.89,20.38c-3.12,10.41-4.65,21.29-5.77,32.07c-2.62,25.07-2.71,50.32-3.44,75.49
			c-0.18,6.25-0.37,12.52-0.72,18.779c-16.31-24.25-32.49-72.72-64.05-77.22c-29.39-4.21-50.91,25.74-49.95,55.83
			c-4.93-33.07-3.22-69.44-3.22-69.44V243.82l-153.88,52.72L86.4,233.06c0,0,151.04-103.79,201.23-139.89
			c2.22-1.6,5.12-3.04,8.56-4.34c0.05-0.02,0.1-0.04,0.16-0.06c23.3-8.2,59.02,7.61,74.45,20.22
			c13.63,11.16,30.33,11.08,55.91,11.08l-0.79-0.03c25.57,0,42.28,0.08,55.91-11.07c15.76-12.9,53.38-28.83,76.63-19.36
			c0.38,0.16,0.76,0.32,1.13,0.49c2.09,0.94,3.9,1.96,5.41,3.04c50.18,36.11,201.23,139.89,201.23,139.89l-30.141,63.49
			l-153.87-52.73v389.53c0,0,1.71,36.34-3.22,69.399c0.94-30.069-20.57-60-49.96-55.8c-31.55,4.521-47.73,52.98-64.04,77.23
			c-0.35-6.25-0.54-12.53-0.72-18.78c-0.73-25.17-0.82-50.42-3.44-75.48c-1.13-10.8-2.649-21.67-5.77-32.08
			C452.95,590.75,446.31,582.06,440.18,577.43z"/>
	</g>
	<g>
		<path style="fill:none;stroke:#231F20;stroke-width:21;" d="M277.35,721.46c-0.01-0.03-0.02-0.05-0.03-0.08
			c-2.3-5.99-3.49-12.29-3.69-18.59c-0.96-30.09,20.56-60.04,49.95-55.83c31.56,4.5,47.74,52.97,64.05,77.22"/>
		<path style="fill:none;stroke:#231F20;stroke-width:21;" d="M296.19,88.83c-3.44,1.3-6.34,2.74-8.56,4.34
			C237.44,129.27,86.4,233.06,86.4,233.06l30.13,63.48l153.88-52.72v389.53c0,0-1.71,36.37,3.22,69.44
			c0.96,6.42,2.17,12.71,3.69,18.59c3.07,11.88,7.41,22.07,13.53,28.18c29.6,29.591,78.56,29.061,91.47,6.46
			c3.19-5.59,3.7-12.949,4.34-19.199c0.43-4.2,0.74-8.42,0.97-12.641c0.35-6.26,0.54-12.529,0.72-18.779
			c0.73-25.17,0.82-50.42,3.44-75.49c1.12-10.78,2.65-21.66,5.77-32.07c2.12-7.07,8.76-15.75,14.89-20.38
			c2.72-2.06,7.7-4.16,13.62-4.94"/>
		<path style="fill:none;stroke:#231F20;stroke-width:21;" d="M558.46,89.61C524.35,75.2,426.18,77,426.18,77l0.261,0.03
			c0,0-94.181-1.73-130.09,11.74"/>
		<path style="fill:none;stroke:#231F20;stroke-width:21;" d="M575.29,721.41c1.53-5.91,2.74-12.24,3.71-18.69
			c4.93-33.06,3.22-69.399,3.22-69.399V243.79l153.87,52.73l30.141-63.49c0,0-151.051-103.78-201.23-139.89
			c-1.51-1.08-3.32-2.1-5.41-3.04"/>
		<path style="fill:none;stroke:#231F20;stroke-width:21;" d="M426.56,572.49c5.921,0.779,10.9,2.89,13.62,4.939
			c6.13,4.63,12.771,13.32,14.891,20.38c3.12,10.41,4.64,21.28,5.77,32.08c2.62,25.061,2.71,50.311,3.44,75.48
			c0.18,6.25,0.37,12.53,0.72,18.78c0.23,4.22,0.54,8.43,0.97,12.63c0.63,6.26,1.15,13.62,4.34,19.21
			c12.91,22.6,61.87,23.14,91.46-6.46c6.101-6.101,10.44-16.261,13.511-28.101"/>
		<path style="fill:none;stroke:#231F20;stroke-width:21;" d="M575.28,721.43c0-0.01,0.01-0.01,0.01-0.02
			c2.32-6.021,3.51-12.36,3.71-18.69c0.94-30.069-20.57-60-49.96-55.8c-31.55,4.521-47.73,52.98-64.04,77.23"/>
		<path style="fill:none;stroke:#231F20;stroke-width:21;" d="M559.59,90.1c-0.37-0.17-0.75-0.33-1.13-0.49
			c-23.25-9.47-60.87,6.46-76.63,19.36c-13.63,11.15-30.34,11.07-55.91,11.07l0.79,0.03c-25.58,0-42.28,0.08-55.91-11.08
			c-15.43-12.61-51.15-28.42-74.45-20.22c-0.06,0.02-0.11,0.04-0.16,0.06c-0.85,0.3-1.67,0.63-2.48,1"/>
		<path style="fill:none;stroke:#231F20;stroke-width:21;" d="M482.39,547.8c0,13.38-25.29,24.21-56.49,24.21
			s-56.49-10.83-56.49-24.21"/>
	</g>
</g>
<rect style="fill:none;" width="850.394" height="850.394"/>
</svg>
