<svg xmlns="http://www.w3.org/2000/svg" width="850.394" height="850.394" viewBox="0 0 850.394 850.394" overflow="visible"><path d="M412.63 681.7c.59 2.06.54 3.899 0 5.55-4 12.02-34.59 13.51-34.59 13.51s-94.51 9.53-133.44 15.09c-38.91 5.561-49.49 12.971-54 17.48-13.9 13.89-31 15.72-42.89 13.49-17.59-3.271-30.98-17.46-48.67-60.561-15.67-38.18-12.39-66.79 1.02-85.26l.01-.01a55.2 55.2 0 0 1 5.64-6.601c6.89-6.88 18.86-8.12 29.44-7.87l2.72 1.49c6.46 24.63 18.62 49.84 18.62 49.84 14.32 26.181 26.59 37.53 48.43 42.061 30.61 6.35 50.29-7.28 67.76-20 10.92-7.97 71.01-14.83 120.71-18.86l.11 1.34c9.18 16.791 17.08 32.181 19.13 39.311z" fill="#ffffc2"/><path d="M472.65 586.22c.59 2.061.55 3.9 0 5.55-4 12.021-34.58 13.511-34.58 13.511s-94.521 9.529-133.44 15.09c-38.92 5.56-49.51 12.979-54.02 17.479-13.89 13.9-30.99 15.721-42.88 13.49-17.58-3.27-30.98-17.47-48.67-60.56-15.67-38.181-12.39-66.8 1.02-85.261l.01-.01a55.19 55.19 0 0 1 5.64-6.6c12.29-12.29 40.77-6.57 48.67-6.57 7.91 0 133.28-22.25 158.65-29.58 25.37-7.31 37.51 6.7 46.71 24 9.2 17.321 47.96 82.321 52.89 99.461zM561.05 455.62c-5.729 3.75-12.92 6.45-21.7 6.45-32.72 0-67.8-12.811-99.08-21.141-12.26-3.26-32.049-7.92-44.04-12.63-25.49-10.03-27.18-39.44-27.58-55.91-.35-14.44.71-29.25.31-43.84-.83-30.4.55-65.73-9.9-94.76-10.19-28.32-11.98-63.08 8.05-77.9 2.9-2.15 6.26-3.88 10.11-5.11 30.48-9.72 119.669-10.05 173.799 44.1 30.48 30.48 35.021 53.18 35.021 99.87 0 3.17-.15 8.61-.41 15.56-1.42 38.51-6.09 123.23-6.09 123.23s-5.59 13.671-18.49 22.081z" fill="#ffffc2"/><path d="M776.71 294.75c0 60.97 2.59 49.94-14.92 59.02-2.95 1.52-18.271 9.31-39.39 20.03l-.521-1.03s2.17-87.21 2.88-127.68l35.08-16.49c.001 11.68 16.871-7.78 16.871 66.15zM631.36 288.99l49.31-23.18c-1.5 44.18-5.29 128.8-5.29 128.8l1.23 2.43c-16.48 8.35-33.591 17.03-49.641 25.17l-1.5-2.95c.001 0 4.281-86.53 5.891-130.27z" fill="#f6cc4b"/><path d="M680.67 265.81l44.09-20.72c-.71 40.47-2.88 127.68-2.88 127.68l.521 1.03c-13.471 6.84-29.311 14.88-45.79 23.24l-1.23-2.43c-.001 0 3.789-84.62 5.289-128.8zM585.97 310.32l45.391-21.33c-1.61 43.74-5.891 130.27-5.891 130.27l1.5 2.95c-28.529 14.45-53.689 27.21-65.92 33.41 12.9-8.41 18.49-22.08 18.49-22.08s4.67-84.72 6.09-123.23l.34.01z" fill="#f6cc4b"/><path d="M160.08 505.52c-13.41 18.461-16.69 47.08-1.02 85.261 17.69 43.09 31.09 57.29 48.67 60.56 11.89 2.23 28.99.41 42.88-13.49 4.51-4.5 15.1-11.92 54.02-17.479 38.92-5.561 133.44-15.09 133.44-15.09s30.58-1.49 34.58-13.511c.319 1.311 11.029 45.48-13.94 45.48-9.5 0-35.54 1.39-65.32 3.8-49.7 4.03-109.79 10.891-120.71 18.86-17.47 12.72-37.15 26.35-67.76 20-21.84-4.53-34.11-15.88-48.43-42.061 0 0-12.16-25.21-18.62-49.84-2.89-11.02-4.64-21.92-3.65-30.39 2.81-23.9 23.85-49.68 25.86-52.1z" fill="#faa41f"/><path d="M100.06 601c-13.41 18.47-16.69 47.08-1.02 85.26 17.69 43.101 31.08 57.29 48.67 60.561 11.89 2.229 28.99.399 42.89-13.49 4.51-4.51 15.09-11.92 54-17.48 38.93-5.56 133.44-15.09 133.44-15.09s30.59-1.49 34.59-13.51c.32 1.31 11.03 45.49-13.94 45.49-25.34 0-168.57 9.91-186.04 22.64-17.46 12.73-37.14 26.351-67.75 20.01-21.84-4.529-34.1-15.88-48.42-42.069 0 0-25.49-52.82-22.28-80.221C77 629.2 98.05 603.42 100.06 601zM681.27 242.39c0 4.1-.229 12.53-.6 23.42l-49.31 23.18c.38-10.18.609-18.04.609-21.96 0-46.69-4.55-69.39-35.01-99.87-54.16-54.14-144.34-57.34-174.81-47.62l-.79-1.36c14.28-8.32 30.6-16.62 47.98-23.3l.44 1.14c30.47-9.73 122.33-7.65 176.46 46.49C676.72 173 681.27 195.7 681.27 242.39z" fill="#faa41f"/><path d="M724.97 227.83c0 3.36-.08 9.43-.21 17.26l-44.09 20.72c.37-10.89.6-19.32.6-23.42 0-46.69-4.55-69.39-35.029-99.88-54.13-54.14-145.99-56.22-176.46-46.49l-.44-1.14c10.9-4.19 22.21-7.74 33.7-10.25 14.13-3.08 27.69-5.61 40.729-7.52 40.86-1.72 104.41 9.07 146.181 50.84 30.469 30.48 35.019 53.18 35.019 99.88z" fill="#faa41f"/><path d="M367.11 155.89s21.89-18.87 54.25-37.71l.79 1.36c30.47-9.72 120.65-6.52 174.81 47.62 30.46 30.48 35.01 53.18 35.01 99.87 0 3.92-.229 11.78-.609 21.96l-45.391 21.33-.34-.01c.26-6.95.41-12.39.41-15.56 0-46.69-4.54-69.39-35.021-99.87-54.13-54.15-143.319-53.82-173.799-44.1-3.85 1.23-7.21 2.96-10.11 5.11zM768.93 181.91c0 37.62-9.09 35.02-9.09 46.69l-35.08 16.49c.13-7.83.21-13.9.21-17.26 0-46.7-4.55-69.4-35.02-99.88-41.77-41.77-105.32-52.56-146.18-50.84 52.801-7.74 96.921-5.49 134.36 10.12 46.7 19.45 90.8 57.07 90.8 94.68z" fill="#faa41f"/><g fill="none" stroke="#231f20"><path d="M100.06 601c-13.41 18.47-16.69 47.08-1.02 85.26 17.69 43.101 31.08 57.29 48.67 60.561 11.89 2.229 28.99.399 42.89-13.49 4.51-4.51 15.09-11.92 54-17.48 38.93-5.56 133.44-15.09 133.44-15.09s30.59-1.49 34.59-13.51c.54-1.65.59-3.49 0-5.55-2.05-7.13-9.95-22.521-19.13-39.311M135.15 586.52c-10.58-.25-22.55.99-29.44 7.87a55.044 55.044 0 0 0-5.64 6.601" stroke-width="14"/><path d="M412.62 687.22s0 .011.01.03c.32 1.31 11.03 45.49-13.94 45.49-25.34 0-168.57 9.91-186.04 22.64-17.46 12.73-37.14 26.351-67.75 20.01-21.84-4.529-34.1-15.88-48.42-42.069 0 0-25.49-52.82-22.28-80.221 2.8-23.9 23.85-49.68 25.86-52.1l.01-.01.15-.181M561.05 455.62c-5.729 3.75-12.92 6.45-21.7 6.45-32.72 0-67.8-12.811-99.08-21.141-12.26-3.26-32.049-7.92-44.04-12.63-25.49-10.03-27.18-39.44-27.58-55.91-.35-14.44.71-29.25.31-43.84-.83-30.4.55-65.73-9.9-94.76-10.19-28.32-11.98-63.08 8.05-77.9 2.9-2.15 6.26-3.88 10.11-5.11 30.48-9.72 119.669-10.05 173.799 44.1 30.48 30.48 35.021 53.18 35.021 99.87 0 3.17-.15 8.61-.41 15.56-1.42 38.51-6.09 123.23-6.09 123.23s-5.59 13.671-18.49 22.081z" stroke-width="14"/><path d="M422.15 119.54c30.47-9.72 120.65-6.52 174.81 47.62 30.46 30.48 35.01 53.18 35.01 99.87 0 3.92-.229 11.78-.609 21.96-1.61 43.74-5.891 130.27-5.891 130.27" stroke-width="7"/><path d="M469.78 96.02c30.47-9.73 122.33-7.65 176.46 46.49 30.48 30.49 35.03 53.19 35.03 99.88 0 4.1-.229 12.53-.6 23.42-1.5 44.18-5.29 128.8-5.29 128.8" stroke-width="7"/><path d="M514.59 81.45c6.96-2.23 17.08-3.83 29.18-4.34 40.86-1.72 104.41 9.07 146.181 50.84 30.47 30.48 35.02 53.18 35.02 99.88 0 3.36-.08 9.43-.21 17.26-.71 40.47-2.88 127.68-2.88 127.68" stroke-width="7"/><path d="M367.11 155.89s21.89-18.87 54.25-37.71c14.28-8.32 30.6-16.62 47.98-23.3 10.9-4.19 22.21-7.74 33.7-10.25 14.13-3.08 27.69-5.61 40.729-7.52 52.801-7.74 96.921-5.49 134.36 10.12 46.7 19.45 90.8 57.07 90.8 94.68 0 37.62-9.09 35.02-9.09 46.69 0 11.68 16.87-7.78 16.87 66.15 0 60.97 2.59 49.94-14.92 59.02-2.95 1.52-18.271 9.31-39.39 20.03-13.471 6.84-29.311 14.88-45.79 23.24-16.48 8.35-33.591 17.03-49.641 25.17-28.529 14.45-53.689 27.21-65.92 33.41-5.01 2.53-7.85 3.97-7.85 3.97" stroke-width="14"/><path stroke-width="14" d="M759.84 228.6l-35.08 16.49-44.09 20.72-49.31 23.18-45.39 21.33M160.08 505.52c-13.41 18.461-16.69 47.08-1.02 85.261 17.69 43.09 31.09 57.29 48.67 60.56 11.89 2.23 28.99.41 42.88-13.49 4.51-4.5 15.1-11.92 54.02-17.479 38.92-5.561 133.44-15.09 133.44-15.09s30.58-1.49 34.58-13.511c.55-1.649.59-3.489 0-5.55-4.931-17.14-43.69-82.14-52.891-99.46-9.2-17.3-21.34-31.31-46.71-24-25.37 7.33-150.74 29.58-158.65 29.58-7.9 0-36.38-5.72-48.67 6.57a55.034 55.034 0 0 0-5.64 6.6"/><path d="M472.64 591.74s0 .01.011.029c.319 1.311 11.029 45.48-13.94 45.48-9.5 0-35.54 1.39-65.32 3.8-49.7 4.03-109.79 10.891-120.71 18.86-17.47 12.72-37.15 26.35-67.76 20-21.84-4.53-34.11-15.88-48.43-42.061 0 0-12.16-25.21-18.62-49.84-2.89-11.02-4.64-21.92-3.65-30.39 2.81-23.9 23.85-49.68 25.86-52.101l.01-.01.15-.18" stroke-width="14"/></g><path fill="none" d="M0 0h850.394v850.394H0z"/></svg>