<?xml version="1.0" encoding="iso-8859-1"?>
<!-- Generator: Adobe Illustrator 12.0.1, SVG Export Plug-In . SVG Version: 6.00 Build 51448)  -->
<!DOCTYPE svg PUBLIC "-//W3C//DTD SVG 1.1//EN" "http://www.w3.org/Graphics/SVG/1.1/DTD/svg11.dtd" [
	<!ENTITY ns_svg "http://www.w3.org/2000/svg">
	<!ENTITY ns_xlink "http://www.w3.org/1999/xlink">
]>
<svg  version="1.1" id="Layer_1" xmlns="&ns_svg;" xmlns:xlink="&ns_xlink;" width="850.394" height="850.394"
	 viewBox="0 0 850.394 850.394" style="overflow:visible;enable-background:new 0 0 850.394 850.394;" xml:space="preserve">
<g id="XMLID_1_">
	<g>
		<path style="fill:#FFFFFF;" d="M681.054,510.301c-3.048,8.713-8.092,17.138-14.932,25.194l-3.284-2.198
			c-209.736-183.903-535.508-42.035-558.014,7.006l-0.937,0.911c-9.002-9.204-15.605-18.951-19.485-29.101
			c-2.68-6.971-4.072-14.126-4.072-21.42c0-71.968,135.239-130.3,302.065-130.3c166.834,0,302.056,58.333,302.056,130.3
			C684.451,497.357,683.295,503.907,681.054,510.301z"/>
		<path style="fill:#A9D7F3;" d="M382.807,781.995c-123.005-0.534-246.964-19.17-298.405-269.882
			c3.88,10.149,10.483,19.896,19.485,29.101c45.739,46.869,153.208,79.778,278.508,79.778c130.343,0,241.385-35.606,283.727-85.497
			c6.84-8.057,11.884-16.481,14.932-25.194c-52.422,272.877-188.755,271.957-298.247,271.721V781.995z"/>
		<path style="fill:#F6CC4B;" d="M662.838,533.297l3.284,2.198c-42.342,49.891-153.384,85.497-283.727,85.497
			c-125.299,0-232.769-32.909-278.508-79.778l0.937-0.911C127.33,491.262,453.102,349.394,662.838,533.297z"/>
	</g>
	<g>
		<path style="fill:none;stroke:#010101;stroke-width:18.3903;" d="M84.402,512.113c-2.68-6.971-4.072-14.126-4.072-21.42
			c0-71.968,135.239-130.3,302.065-130.3c166.834,0,302.056,58.333,302.056,130.3c0,6.664-1.156,13.214-3.397,19.607
			c-3.048,8.713-8.092,17.138-14.932,25.194c-42.342,49.891-153.384,85.497-283.727,85.497
			c-125.299,0-232.769-32.909-278.508-79.778C94.885,532.01,88.282,522.263,84.402,512.113z"/>
		<path style="fill:none;stroke:#010101;stroke-width:18.3903;" d="M81.145,495.439c1.051,5.666,2.128,11.227,3.257,16.674
			c51.44,250.712,175.4,269.348,298.405,269.882c1.997,0.009,3.984,0.009,5.981,0.009"/>
		<path style="fill:none;stroke:#010101;stroke-width:18.3903;" d="M682.516,502.507c-0.481,2.618-0.963,5.219-1.462,7.794
			c-52.422,272.877-188.755,271.957-298.247,271.721c-2.978-0.009-5.938-0.018-8.88-0.018"/>
		<path style="fill:none;stroke:#010101;stroke-width:12.2602;" d="M104.824,540.303c22.506-49.041,348.277-190.909,558.014-7.006"
			/>
		<path style="fill:none;stroke:#010101;stroke-width:12.2602;" d="M277.956,204.023c-46.965,39.741,61.634,75.059,0,140.117"/>
		<path style="fill:none;stroke:#010101;stroke-width:12.2602;" d="M377.789,176c-45.538,38.532,63.052,73.561,0,140.116"/>
		<path style="fill:none;stroke:#010101;stroke-width:12.2602;" d="M481.125,204.023c-45.538,38.532,63.052,73.562,0,140.117"/>
	</g>
</g>
<rect style="fill:none;" width="850.394" height="850.394"/>
<g id="XMLID_454_">
	<g>
		<path style="fill:#FFA500;" d="M757.551,89.82c0.014,7.257-1.644,13.798-4.613,17.62c-12.992,16.71-41.184,18.569-62.808,20.472
			c-35.518,3.121-54.399,5.976-81.829,7.827c-13.288,0.898-148.861,2.632-157.81,2.928c-15.101,0.502-36.406,1.929-43.662-3.292
			c-2.438-1.765-7.645-4.654-6.271-10.073c4.019-15.824,40.279-24.063,50.004-25.916c12.94-2.465,25.191-5.601,38.109-7.964
			c13.755-2.51,27.372-5.793,41.166-8.267c28.657-5.14,52.032-10.152,86.263-14.915c18.293-2.543,83.003-16.658,89.64-17.81
			c10.28-1.789,22.464-0.077,33.219,4.845C752.033,61.256,757.529,76.707,757.551,89.82z"/>
	</g>
	<g>
		<path style="fill:none;stroke:#000000;stroke-width:10.7255;" d="M705.74,50.431c10.28-1.789,22.464-0.077,33.219,4.845
			c13.074,5.98,18.57,21.431,18.592,34.544c0.014,7.257-1.644,13.798-4.613,17.62c-12.992,16.71-41.184,18.569-62.808,20.472
			c-35.518,3.121-54.399,5.976-81.829,7.827c-13.288,0.898-148.861,2.632-157.81,2.928c-15.101,0.502-36.406,1.929-43.662-3.292
			c-2.438-1.765-7.645-4.654-6.271-10.073c4.019-15.824,40.279-24.063,50.004-25.916c12.94-2.465,25.191-5.601,38.109-7.964
			c13.755-2.51,27.372-5.793,41.166-8.267c28.657-5.14,52.032-10.152,86.263-14.915C634.394,65.697,699.104,51.583,705.74,50.431z"
			/>
		<line style="fill:none;stroke:#000000;stroke-width:10.7255;" x1="755.897" y1="77.324" x2="796.715" y2="61.227"/>
		<path style="fill:none;stroke:#000000;stroke-width:10.7255;" d="M757.47,89.871c0,0,0.026-0.021,0.081-0.051
			c0.785-0.465,7.789-3.519,42.088,9.107"/>
		<path style="fill:none;stroke:#000000;stroke-width:10.7255;" d="M757.435,86.571c0,0,33.842-4.243,48.627-6.096"/>
		<path style="fill:none;stroke:#000000;stroke-width:10.7255;" d="M696.938,53.378c0,0,6.829,6.915,8.236,18.144"/>
		<path style="fill:none;stroke:#000000;stroke-width:10.7255;" d="M602.046,71.282c0,0,4.794,4.413,6.202,15.647"/>
		<path style="fill:none;stroke:#000000;stroke-width:10.7255;" d="M500.002,135.914c0,0,4.076-8.27,2.667-19.504"/>
	</g>
</g>
<g id="XMLID_2_">
	<g>
		<path style="fill:#C8C8C8;" d="M788.3,341.04c8.311,28.53,5.94,43.39-3.59,62.4C775.21,422.47,754,448,754,448
			c-2.53,3.98-4.52,8.49-5.53,13.89c-2.38,12.69,4.75,34.681,4.75,34.681l0.601,285.13l-34.99-0.15l0.61-285.13
			c0,0,7.13-21.979,4.75-34.66c-1.011-5.42-3-9.939-5.54-13.909c0,0-21.221-25.53-30.721-44.561c-9.5-19.01-11.88-33.87-3.569-62.4
			c8.33-28.53,18.03-46.6,33.28-53.5c9.1-4.11,19.43-4.52,19.43-4.52c6.229,0.25,10.24,1.2,17.939,4.67
			C770.26,294.44,779.98,312.5,788.3,341.04z"/>
	</g>
	<g>
		<path style="fill:none;stroke:#231F20;stroke-width:14;" d="M737.07,282.87c6.229,0.25,10.24,1.2,17.939,4.67
			c15.25,6.9,24.971,24.96,33.29,53.5c8.311,28.53,5.94,43.39-3.59,62.4C775.21,422.47,754,448,754,448
			c-2.53,3.98-4.52,8.49-5.53,13.89c-2.38,12.69,4.75,34.681,4.75,34.681l0.601,285.13l-34.99-0.15l0.61-285.13
			c0,0,7.13-21.979,4.75-34.66c-1.011-5.42-3-9.939-5.54-13.909c0,0-21.221-25.53-30.721-44.561c-9.5-19.01-11.88-33.87-3.569-62.4
			c8.33-28.53,18.03-46.6,33.28-53.5C726.74,283.28,737.07,282.87,737.07,282.87z"/>
	</g>
</g>
</svg>
