<?xml version="1.0" encoding="iso-8859-1"?>
<!-- Generator: Adobe Illustrator 12.0.1, SVG Export Plug-In . SVG Version: 6.00 Build 51448)  -->
<!DOCTYPE svg PUBLIC "-//W3C//DTD SVG 1.1//EN" "http://www.w3.org/Graphics/SVG/1.1/DTD/svg11.dtd" [
	<!ENTITY ns_svg "http://www.w3.org/2000/svg">
	<!ENTITY ns_xlink "http://www.w3.org/1999/xlink">
]>
<svg  version="1.1" id="Layer_1" xmlns="&ns_svg;" xmlns:xlink="&ns_xlink;" width="850.394" height="850.394"
	 viewBox="0 0 850.394 850.394" style="overflow:visible;enable-background:new 0 0 850.394 850.394;" xml:space="preserve">
<g>
	<g id="XMLID_4_">
		<g>
			<path style="fill:#ED1E29;" d="M101.837,470.843c-21.513,29.297-27.664,63.13-24.26,63.13c3.413,0,20.777-18.474,41.323-31.397
				c17.754-11.166,52.695-40.86,72.302-77.347c19.474-36.225,24.748-91.747,20.919-130.905
				c-3.696-37.601-15.539-53.177-21.194-58.593c0,0-13.978,6.611-32.574,3.306c-1.711-0.299-2.863,0.326-3.608,1.566
				c-0.009,0.009-0.009,0.018-0.009,0.018c-0.523,1.712-0.86,2.816-0.931,3.034c-0.009,0.027-0.009,0.036-0.009,0.036
				c-0.7,5.053,0.913,13.022,2.331,18.185c3.067,11.157,11.603,49.88,5.451,90.696C155.445,393.387,123.341,441.528,101.837,470.843
				z"/>
			<path style="fill:#34A047;" d="M161.243,219.665c-2.402,7.607-5.106,16.392-6.498,20.938c0.745-1.241,1.897-1.865,3.608-1.566
				c18.596,3.305,32.574-3.306,32.574-3.306s-11.594-10.487-13.641-21.653c-2.048-11.157-3.865-56.356-9.901-76.741
				c-0.319-1.078-0.647-2.101-0.975-3.088l-0.018,0.009c0.328,1.268,5.965,23.301,5.097,46.331
				C170.798,198.799,163.45,212.691,161.243,219.665z"/>
			<path style="fill:#FFFFFF;" d="M654.392,633.453c29.906-24.487,47.527-54.563,47.527-87.073
				c0-74.215-91.785-135.732-211.898-147.062c1.037,0.625,2.038,1.277,3.005,1.956c5.912,4.175,10.654,9.817,16.46,14.245
				c7.543,5.751,17.134,6.466,26.308,7.372c13.109,1.295,23.144,2.998,29.569,11.393c67.889,22.024,113.502,62.931,113.502,109.75
				c0,70.166-102.448,127.047-228.829,127.047c-126.38,0-228.82-56.881-228.82-127.047c0-47.454,46.836-88.813,116.24-110.638
				c6.453-7.471,16.177-9.083,28.71-10.324c9.183-0.905,18.765-1.621,26.308-7.372c5.806-4.428,11.39-9.047,16.469-14.245
				c0.647-0.661,1.348-1.295,2.074-1.883l-2.872-0.073c-119.183,11.791-210.011,73.064-210.011,146.88
				c0,30.238,15.237,58.366,41.43,81.849c45.046,40.408,122.489,67.078,210.463,67.078
				C534.153,695.307,608.645,670.928,654.392,633.453z"/>
			<path style="fill:#FFF5B4;" d="M245.156,506.66c-2.898,3.821-7.631,13.213-4.254,17.731c6.063,8.105,6.94,0.027,16.46-7.417
				c5.514-4.075,10.247-11.365,5.868-17.451C259.312,494.099,248.729,501.951,245.156,506.66z"/>
			<path style="fill:#FFF5B4;" d="M245.156,551.053c-2.898,3.821-7.631,13.213-4.254,17.731c6.063,8.114,6.94,0.036,16.46-7.426
				c5.514-4.057,10.247-11.356,5.868-17.433C259.312,538.492,248.729,546.344,245.156,551.053z"/>
			<path style="fill:#FFF5B4;" d="M337.456,433.396c-69.404,21.825-116.24,63.184-116.24,110.638
				c0,70.166,102.439,127.047,228.82,127.047c126.381,0,228.829-56.881,228.829-127.047c0-46.819-45.613-87.726-113.502-109.75
				c2.27,2.952,4.087,6.729,5.434,11.609c1.959,7.091,4.894,13.34,17.949,19.426c3.129,1.467,7.65,4.338,12.569,7.081
				c33.86,18.919,49.566,44.629,37.122,63.312c-18.898,28.372-67.517,10.722-93.346,26.389l-0.398,0.281
				c-4.999,3.768-8.279,8.214-12.321,12.978c-20.661,24.333-55.124,29.205-78.613,26.543l-5.549,0.181
				c-23.498,2.672-57.96-2.219-78.622-26.552c-6.781-7.979-11.408-15.097-25.669-19.552c-9.954-3.115-35.695-6.512-45.206-11.366
				c-22.479-11.474-21.309-38.352-14.484-56.283c3.28-8.648,21.123-19.153,28.994-22.821c13.048-6.095,15.982-12.343,17.94-19.434
				C332.678,440.587,334.788,436.493,337.456,433.396z M240.902,524.392c-3.377-4.519,1.356-13.91,4.254-17.731
				c3.572-4.709,14.156-12.562,18.074-7.137c4.378,6.086-0.354,13.376-5.868,17.451
				C247.842,524.419,246.965,532.497,240.902,524.392z M240.902,568.784c-3.377-4.519,1.356-13.91,4.254-17.731
				c3.572-4.709,14.156-12.561,18.074-7.127c4.378,6.076-0.354,13.376-5.868,17.433C247.842,568.82,246.965,576.898,240.902,568.784
				z M273.742,583.428c-5.575-4.963-2.491-13.131,2.048-18.329c7.711-9.373,6.852-17.451,14.475-10.867
				c4.263,3.658,1.631,13.874-0.39,18.248C287.375,577.867,278.715,587.865,273.742,583.428z M283.954,613.422
				c-0.098-5.696,9.156-10.388,13.703-11.71c5.62-1.611,18.703-1.53,18.703,5.226c0,7.534-8.048,10.541-14.856,10.469
				C289.52,617.633,284.131,623.619,283.954,613.422z M328.432,586.661c-10.787-5.334-18.242-2.509-13.872-11.683
				c2.438-5.116,12.764-5.017,17.408-4.084c5.726,1.15,17.355,7.271,14.359,13.294C342.987,590.917,334.478,589.876,328.432,586.661
				z M324.842,630.7c-3.368-4.519,1.356-13.91,4.246-17.74c3.59-4.7,14.164-12.552,18.091-7.127
				c4.37,6.076-0.363,13.375-5.886,17.441C331.783,630.719,330.905,638.797,324.842,630.7z M357.674,645.344
				c-5.558-4.962-2.481-13.14,2.057-18.329c7.703-9.382,6.852-17.451,14.483-10.876c4.255,3.658,1.631,13.874-0.399,18.248
				C371.324,639.774,362.665,649.781,357.674,645.344z M392.34,616.745c-5.593-10.84-13.242-13.067-4.396-17.813
				c4.929-2.635,13.189,3.704,16.39,7.264c3.944,4.392,9.741,16.373,3.838,19.406C401.577,628.989,395.336,622.994,392.34,616.745z
				 M418.719,657.135c-10.787-5.334-18.242-2.508-13.872-11.682c2.428-5.117,12.764-5.018,17.408-4.094
				c5.727,1.15,17.347,7.281,14.359,13.304C433.265,661.392,424.755,660.35,418.719,657.135z M433.345,630.157
				c-3.927-5.434,6.532-13.439,11.993-15.549c4.432-1.712,14.607-3.56,17.834,1.077c5.797,8.305-2.013,6.774-11.789,13.855
				C445.958,633.753,437.741,636.225,433.345,630.157z M462.817,658.929c-2.987-6.022,8.633-12.153,14.359-13.304
				c4.653-0.924,14.979-1.023,17.417,4.093c4.37,9.174-3.085,6.349-13.872,11.674C474.677,664.606,466.167,665.657,462.817,658.929z
				 M491.27,629.858c-5.903-3.024-0.115-15.006,3.829-19.398c3.2-3.567,11.471-9.907,16.398-7.263
				c8.837,4.745,1.196,6.974-4.396,17.813C504.096,627.259,497.864,633.254,491.27,629.858z M525.617,638.651
				c-2.021-4.374-4.653-14.589-0.39-18.257c7.623-6.565,6.771,1.504,14.483,10.886c4.529,5.189,7.614,13.366,2.048,18.329
				C536.776,654.047,528.117,644.04,525.617,638.651z M558.139,627.54c-5.522-4.066-10.256-11.365-5.877-17.442
				c3.927-5.424,14.502,2.428,18.082,7.128c2.899,3.83,7.623,13.222,4.246,17.74C568.527,643.063,567.649,634.993,558.139,627.54z
				 M553.104,588.454c-2.987-6.022,8.633-12.145,14.359-13.294c4.645-0.934,14.979-1.033,17.417,4.093
				c4.361,9.165-3.085,6.34-13.881,11.674C564.964,594.142,556.454,595.183,553.104,588.454z M583.081,611.193
				c0-6.746,13.084-6.828,18.694-5.216c4.547,1.322,13.81,6.014,13.712,11.71c-0.177,10.196-5.566,4.22-17.55,3.984
				C591.13,621.753,583.081,618.737,583.081,611.193z M609.558,589.232c-2.021-4.374-4.653-14.589-0.39-18.257
				c7.623-6.574,6.771,1.504,14.483,10.877c4.529,5.198,7.614,13.375,2.048,18.329C620.718,604.619,612.058,594.612,609.558,589.232
				z M642.079,565.624c-5.522-4.066-10.255-11.356-5.877-17.434c3.927-5.434,14.502,2.418,18.083,7.128
				c2.898,3.821,7.622,13.213,4.245,17.731C652.468,581.164,651.59,573.086,642.079,565.624z M650.172,528.141
				c-5.522-4.066-10.256-11.365-5.877-17.441c3.927-5.434,14.502,2.427,18.083,7.136c2.898,3.813,7.622,13.204,4.245,17.731
				C660.561,543.672,659.683,535.594,650.172,528.141z"/>
			<path style="fill:#ABD150;" d="M450.026,695.307c-87.974,0-165.417-26.67-210.463-67.078
				C259.099,695.37,344.91,745.93,447.819,745.93c100.215,0,184.217-47.961,206.572-112.477
				C608.645,670.928,534.153,695.307,450.026,695.307z"/>
			<path style="fill:#FFF5B4;" d="M275.79,565.099c-4.539,5.198-7.623,13.366-2.048,18.329c4.973,4.438,13.633-5.561,16.132-10.948
				c2.021-4.374,4.653-14.59,0.39-18.248C282.642,547.647,283.501,555.726,275.79,565.099z"/>
			<path style="fill:#ED1E29;" d="M490.021,399.318c-10.982-6.602-25.759-10.016-39.684-9.355c0,0-25.954-1.168-39.32,9.609
				c-0.727,0.588-1.427,1.222-2.074,1.883c-5.079,5.198-10.663,9.817-16.469,14.245c-7.543,5.751-17.125,6.466-26.308,7.372
				c-12.533,1.241-22.257,2.853-28.71,10.324c-2.668,3.097-4.777,7.19-6.293,12.679c-1.958,7.091-4.893,13.339-17.94,19.434
				c-7.871,3.668-25.714,14.173-28.994,22.821c-6.825,17.932-7.995,44.81,14.484,56.283c9.511,4.854,35.251,8.251,45.206,11.366
				c14.262,4.455,18.889,11.573,25.669,19.552c20.662,24.333,55.125,29.224,78.622,26.552l5.549-0.181
				c23.489,2.662,57.952-2.21,78.613-26.543c4.042-4.764,7.322-9.21,12.321-12.978l0.398-0.281
				c25.829-15.667,74.447,1.983,93.346-26.389c12.444-18.683-3.262-44.393-37.122-63.312c-4.919-2.743-9.44-5.614-12.569-7.081
				c-13.056-6.086-15.99-12.335-17.949-19.426c-1.347-4.881-3.164-8.657-5.434-11.609c-6.426-8.395-16.46-10.098-29.569-11.393
				c-9.174-0.906-18.765-1.621-26.308-7.372c-5.806-4.428-10.548-10.07-16.46-14.245
				C492.059,400.595,491.058,399.943,490.021,399.318z M305.183,527.933c-2.722-8.938,1.879-13.177,8.092-18.312
				c5.646-4.691,9.192-11.438,15.255-15.567c8.314-5.669,11.408-1.367,19.217,2.481c5.105,2.518,11.594,2.526,15.334,7.562
				c4.308,5.814,4.467,4.284,3.572,13.141c0,0-2.278,5.651-2.518,6.629c-1.782,7.362-7.366,7.118-13.562,9.256
				c-9.555,3.305-14.732,12.415-25.466,14.172C314.941,548.942,307.851,536.681,305.183,527.933z M421.742,560.145
				c-9.724-3.441-10.317-17.677-8.633-26.67c1.729-9.201,7.747-10.722,15.601-12.253c7.136-1.403,13.385-5.65,20.626-6.366
				c9.963-0.996,10.708,4.293,15.805,11.447c3.351,4.682,9.059,7.815,10.024,14.063c1.126,7.2,1.959,5.932-2.916,13.304
				c0,0-4.627,3.885-5.283,4.637c-4.973,5.633-9.785,2.717-16.238,1.621C440.781,558.243,432.015,563.776,421.742,560.145z
				 M425.491,475.108c-9.724-3.441-10.317-17.677-8.633-26.67c1.729-9.201,7.747-10.713,15.6-12.253
				c7.136-1.403,13.385-5.65,20.626-6.366c9.964-0.996,10.708,4.293,15.805,11.446c3.351,4.683,9.059,7.815,10.025,14.064
				c1.125,7.199,1.968,5.932-2.917,13.304c0,0-4.617,3.885-5.282,4.637c-4.973,5.633-9.777,2.717-16.229,1.621
				C444.531,473.207,435.765,478.74,425.491,475.108z M520.512,507.684c-8.004-7.671-4.272-12.126-2.181-21.59
				c1.365-6.222-0.23-13.304,4.122-18.638c4.999-6.148,3.377-5.932,12.853-7.163c0,0,6.479,1.104,7.561,1.114
				c8.146,0.117,9.28,6.284,13.057,12.515c5.823,9.608,16.638,13.005,21.131,24.289c4.246,10.686-6.825,21.48-15.316,26.561
				c-8.669,5.198-14.244,1.223-21.167-4.292C534.277,515.472,526.326,513.271,520.512,507.684z"/>
			<path style="fill:#FFF5B4;" d="M297.657,601.712c-4.547,1.322-13.801,6.014-13.703,11.71c0.177,10.197,5.566,4.211,17.55,3.984
				c6.808,0.072,14.856-2.935,14.856-10.469C316.36,600.182,303.277,600.101,297.657,601.712z"/>
			<path style="fill:#9C5C25;" d="M313.275,509.621c-6.213,5.135-10.814,9.373-8.092,18.312c2.668,8.748,9.759,21.01,19.926,19.361
				c10.734-1.757,15.911-10.867,25.466-14.172c6.196-2.138,11.78-1.894,13.562-9.256c0.239-0.978,2.518-6.629,2.518-6.629
				c0.895-8.856,0.735-7.326-3.572-13.141c-3.741-5.035-10.229-5.044-15.334-7.562c-7.809-3.849-10.902-8.15-19.217-2.481
				C322.467,498.184,318.921,504.93,313.275,509.621z"/>
			<path style="fill:#FFF5B4;" d="M314.561,574.979c-4.37,9.174,3.084,6.349,13.872,11.683c6.045,3.215,14.555,4.256,17.896-2.473
				c2.996-6.022-8.633-12.144-14.359-13.294C327.324,569.962,316.998,569.862,314.561,574.979z"/>
			<path style="fill:#FFF5B4;" d="M329.088,612.96c-2.89,3.83-7.614,13.222-4.246,17.74c6.063,8.097,6.94,0.019,16.451-7.426
				c5.522-4.066,10.256-11.365,5.886-17.441C343.252,600.408,332.678,608.26,329.088,612.96z"/>
			<path style="fill:#FFF5B4;" d="M359.73,627.015c-4.538,5.189-7.614,13.367-2.057,18.329c4.991,4.438,13.65-5.569,16.141-10.957
				c2.03-4.374,4.654-14.59,0.399-18.248C366.582,609.563,367.433,617.633,359.73,627.015z"/>
			<path style="fill:#FFF5B4;" d="M387.944,598.932c-8.846,4.746-1.196,6.974,4.396,17.813c2.996,6.249,9.236,12.244,15.831,8.856
				c5.903-3.033,0.106-15.015-3.838-19.406C401.133,602.636,392.873,596.297,387.944,598.932z"/>
			<path style="fill:#FFF5B4;" d="M404.848,645.453c-4.37,9.174,3.084,6.348,13.872,11.682c6.036,3.215,14.545,4.257,17.896-2.472
				c2.987-6.022-8.633-12.153-14.359-13.304C417.611,640.436,407.276,640.336,404.848,645.453z"/>
			<path style="fill:#9C5C25;" d="M413.108,533.475c-1.684,8.993-1.09,23.229,8.633,26.67c10.273,3.632,19.04-1.901,28.985-0.217
				c6.453,1.096,11.266,4.012,16.238-1.621c0.656-0.752,5.283-4.637,5.283-4.637c4.875-7.372,4.042-6.104,2.916-13.304
				c-0.966-6.248-6.674-9.382-10.024-14.063c-5.097-7.154-5.842-12.443-15.805-11.447c-7.241,0.716-13.49,4.963-20.626,6.366
				C420.855,522.753,414.837,524.273,413.108,533.475z"/>
			<path style="fill:#9C5C25;" d="M416.858,448.438c-1.684,8.993-1.09,23.229,8.633,26.67c10.273,3.632,19.04-1.901,28.994-0.217
				c6.452,1.096,11.257,4.012,16.229-1.621c0.665-0.752,5.282-4.637,5.282-4.637c4.885-7.372,4.042-6.104,2.917-13.304
				c-0.967-6.249-6.675-9.382-10.025-14.064c-5.097-7.153-5.841-12.442-15.805-11.446c-7.241,0.716-13.49,4.963-20.626,6.366
				C424.605,437.726,418.586,439.237,416.858,448.438z"/>
			<path style="fill:#FFF5B4;" d="M445.338,614.608c-5.461,2.109-15.92,10.115-11.993,15.549c4.396,6.067,12.613,3.596,18.038-0.616
				c9.776-7.081,17.586-5.551,11.789-13.855C459.945,611.049,449.77,612.896,445.338,614.608z"/>
			<path style="fill:#FFF5B4;" d="M477.177,645.625c-5.727,1.15-17.347,7.281-14.359,13.304c3.35,6.729,11.859,5.678,17.904,2.463
				c10.787-5.325,18.242-2.5,13.872-11.674C492.156,644.602,481.83,644.701,477.177,645.625z"/>
			<path style="fill:#FFF5B4;" d="M495.099,610.46c-3.944,4.393-9.732,16.374-3.829,19.398c6.595,3.396,12.826-2.6,15.831-8.848
				c5.593-10.84,13.233-13.068,4.396-17.813C506.569,600.553,498.299,606.893,495.099,610.46z"/>
			<path style="fill:#9C5C25;" d="M518.331,486.094c-2.092,9.464-5.823,13.919,2.181,21.59c5.814,5.587,13.766,7.788,20.059,12.796
				c6.923,5.515,12.498,9.49,21.167,4.292c8.491-5.08,19.563-15.875,15.316-26.561c-4.493-11.284-15.308-14.681-21.131-24.289
				c-3.776-6.23-4.911-12.397-13.057-12.515c-1.081-0.01-7.561-1.114-7.561-1.114c-9.476,1.231-7.854,1.015-12.853,7.163
				C518.101,472.79,519.696,479.872,518.331,486.094z"/>
			<path style="fill:#FFF5B4;" d="M525.228,620.395c-4.264,3.668-1.631,13.883,0.39,18.257c2.5,5.389,11.159,15.396,16.142,10.958
				c5.566-4.963,2.481-13.14-2.048-18.329C531.999,621.898,532.851,613.829,525.228,620.395z"/>
			<path style="fill:#FFF5B4;" d="M552.262,610.098c-4.379,6.077,0.354,13.376,5.877,17.442c9.511,7.453,10.389,15.522,16.451,7.426
				c3.377-4.519-1.347-13.91-4.246-17.74C566.764,612.525,556.188,604.674,552.262,610.098z"/>
			<path style="fill:#FFF5B4;" d="M567.464,575.16c-5.727,1.149-17.347,7.271-14.359,13.294c3.35,6.729,11.859,5.688,17.896,2.473
				c10.796-5.334,18.242-2.509,13.881-11.674C582.443,574.127,572.108,574.227,567.464,575.16z"/>
			<path style="fill:#FFF5B4;" d="M601.775,605.978c-5.61-1.612-18.694-1.53-18.694,5.216c0,7.544,8.049,10.56,14.856,10.479
				c11.983,0.235,17.373,6.212,17.55-3.984C615.585,611.991,606.322,607.3,601.775,605.978z"/>
			<path style="fill:#FFF5B4;" d="M609.168,570.976c-4.264,3.668-1.631,13.883,0.39,18.257c2.5,5.38,11.16,15.387,16.142,10.949
				c5.566-4.954,2.481-13.131-2.048-18.329C615.939,572.479,616.791,564.401,609.168,570.976z"/>
			<path style="fill:#FFF5B4;" d="M636.202,548.19c-4.378,6.077,0.354,13.367,5.877,17.434c9.511,7.462,10.389,15.54,16.451,7.426
				c3.377-4.519-1.347-13.91-4.245-17.731C650.704,550.608,640.129,542.757,636.202,548.19z"/>
			<path style="fill:#FFF5B4;" d="M644.295,510.699c-4.379,6.076,0.354,13.375,5.877,17.441c9.511,7.453,10.389,15.531,16.451,7.426
				c3.377-4.527-1.347-13.919-4.245-17.731C658.797,513.126,648.222,505.266,644.295,510.699z"/>
		</g>
		<g>
			<path style="fill:none;stroke:#231F20;stroke-width:12.5432;" d="M337.491,433.388c-0.009,0-0.027,0.009-0.036,0.009
				c-69.404,21.825-116.24,63.184-116.24,110.638c0,70.166,102.439,127.047,228.82,127.047
				c126.381,0,228.829-56.881,228.829-127.047c0-46.819-45.613-87.726-113.502-109.75c-14.492-4.719-30.013-8.558-46.313-11.42"/>
			<path style="fill:none;stroke:#231F20;stroke-width:18.8148;" d="M408.145,399.5c-119.183,11.791-210.011,73.064-210.011,146.88
				c0,30.238,15.237,58.366,41.43,81.849c45.046,40.408,122.489,67.078,210.463,67.078c84.127,0,158.618-24.379,204.365-61.854
				c29.906-24.487,47.527-54.563,47.527-87.073c0-74.215-91.785-135.732-211.898-147.062c-0.01,0-0.01,0-0.019,0"/>
			<path style="fill:none;stroke:#231F20;stroke-width:12.3626;" d="M539.711,631.28c-7.712-9.382-6.86-17.451-14.483-10.886
				c-4.264,3.668-1.631,13.883,0.39,18.257c2.5,5.389,11.159,15.396,16.142,10.958C547.325,644.646,544.24,636.47,539.711,631.28z"
				/>
			<path style="fill:none;stroke:#231F20;stroke-width:12.3626;" d="M507.101,621.011c5.593-10.84,13.233-13.068,4.396-17.813
				c-4.928-2.645-13.198,3.695-16.398,7.263c-3.944,4.393-9.732,16.374-3.829,19.398
				C497.864,633.254,504.096,627.259,507.101,621.011z"/>
			<path style="fill:none;stroke:#231F20;stroke-width:12.3626;" d="M558.139,627.54c9.511,7.453,10.389,15.522,16.451,7.426
				c3.377-4.519-1.347-13.91-4.246-17.74c-3.58-4.7-14.155-12.552-18.082-7.128C547.883,616.175,552.616,623.474,558.139,627.54z"/>
			<path style="fill:none;stroke:#231F20;stroke-width:12.3626;" d="M623.651,581.853c-7.712-9.373-6.86-17.451-14.483-10.877
				c-4.264,3.668-1.631,13.883,0.39,18.257c2.5,5.38,11.16,15.387,16.142,10.949C631.266,595.228,628.181,587.051,623.651,581.853z"
				/>
			<path style="fill:none;stroke:#231F20;stroke-width:12.3626;" d="M642.079,565.624c9.511,7.462,10.389,15.54,16.451,7.426
				c3.377-4.519-1.347-13.91-4.245-17.731c-3.581-4.71-14.156-12.562-18.083-7.128C631.824,554.268,636.557,561.558,642.079,565.624
				z"/>
			<path style="fill:none;stroke:#231F20;stroke-width:12.3626;" d="M650.172,528.141c9.511,7.453,10.389,15.531,16.451,7.426
				c3.377-4.527-1.347-13.919-4.245-17.731c-3.581-4.709-14.156-12.569-18.083-7.136
				C639.916,516.775,644.649,524.074,650.172,528.141z"/>
			<path style="fill:none;stroke:#231F20;stroke-width:12.3626;" d="M597.938,621.672c11.983,0.235,17.373,6.212,17.55-3.984
				c0.098-5.696-9.165-10.388-13.712-11.71c-5.61-1.612-18.694-1.53-18.694,5.216C583.081,618.737,591.13,621.753,597.938,621.672z"
				/>
			<path style="fill:none;stroke:#231F20;stroke-width:12.3626;" d="M571,590.927c10.796-5.334,18.242-2.509,13.881-11.674
				c-2.438-5.126-12.772-5.026-17.417-4.093c-5.727,1.149-17.347,7.271-14.359,13.294C556.454,595.183,564.964,594.142,571,590.927z
				"/>
			<path style="fill:none;stroke:#231F20;stroke-width:12.3626;" d="M480.722,661.392c10.787-5.325,18.242-2.5,13.872-11.674
				c-2.438-5.116-12.764-5.017-17.417-4.093c-5.727,1.15-17.347,7.281-14.359,13.304
				C466.167,665.657,474.677,664.606,480.722,661.392z"/>
			<path style="fill:none;stroke:#231F20;stroke-width:12.3626;" d="M451.383,629.541c9.776-7.081,17.586-5.551,11.789-13.855
				c-3.227-4.637-13.402-2.789-17.834-1.077c-5.461,2.109-15.92,10.115-11.993,15.549
				C437.741,636.225,445.958,633.753,451.383,629.541z"/>
			<path style="fill:none;stroke:#231F20;stroke-width:12.3626;" d="M359.73,627.015c7.703-9.382,6.852-17.451,14.483-10.876
				c4.255,3.658,1.631,13.874-0.399,18.248c-2.491,5.388-11.15,15.395-16.141,10.957
				C352.116,640.382,355.192,632.204,359.73,627.015z"/>
			<path style="fill:none;stroke:#231F20;stroke-width:12.3626;" d="M392.34,616.745c-5.593-10.84-13.242-13.067-4.396-17.813
				c4.929-2.635,13.189,3.704,16.39,7.264c3.944,4.392,9.741,16.373,3.838,19.406C401.577,628.989,395.336,622.994,392.34,616.745z"
				/>
			<path style="fill:none;stroke:#231F20;stroke-width:12.3626;" d="M341.293,623.274c-9.511,7.444-10.388,15.522-16.451,7.426
				c-3.368-4.519,1.356-13.91,4.246-17.74c3.59-4.7,14.164-12.552,18.091-7.127C351.549,611.909,346.816,619.208,341.293,623.274z"
				/>
			<path style="fill:none;stroke:#231F20;stroke-width:12.3626;" d="M275.79,565.099c7.711-9.373,6.852-17.451,14.475-10.867
				c4.263,3.658,1.631,13.874-0.39,18.248c-2.5,5.388-11.16,15.386-16.132,10.948C268.167,578.465,271.251,570.297,275.79,565.099z"
				/>
			<path style="fill:none;stroke:#231F20;stroke-width:12.3626;" d="M257.362,561.358c-9.52,7.462-10.397,15.54-16.46,7.426
				c-3.377-4.519,1.356-13.91,4.254-17.731c3.572-4.709,14.156-12.561,18.074-7.127
				C267.608,550.002,262.875,557.302,257.362,561.358z"/>
			<path style="fill:none;stroke:#231F20;stroke-width:12.3626;" d="M257.362,516.975c-9.52,7.444-10.397,15.522-16.46,7.417
				c-3.377-4.519,1.356-13.91,4.254-17.731c3.572-4.709,14.156-12.562,18.074-7.137
				C267.608,505.609,262.875,512.899,257.362,516.975z"/>
			<path style="fill:none;stroke:#231F20;stroke-width:12.3626;" d="M301.504,617.406c-11.984,0.227-17.373,6.213-17.55-3.984
				c-0.098-5.696,9.156-10.388,13.703-11.71c5.62-1.611,18.703-1.53,18.703,5.226C316.36,614.472,308.312,617.479,301.504,617.406z"
				/>
			<path style="fill:none;stroke:#231F20;stroke-width:12.3626;" d="M328.432,586.661c-10.787-5.334-18.242-2.509-13.872-11.683
				c2.438-5.116,12.764-5.017,17.408-4.084c5.726,1.15,17.355,7.271,14.359,13.294C342.987,590.917,334.478,589.876,328.432,586.661
				z"/>
			<path style="fill:none;stroke:#231F20;stroke-width:12.3626;" d="M418.719,657.135c-10.787-5.334-18.242-2.508-13.872-11.682
				c2.428-5.117,12.764-5.018,17.408-4.094c5.727,1.15,17.347,7.281,14.359,13.304C433.265,661.392,424.755,660.35,418.719,657.135z
				"/>
			<path style="fill:none;stroke:#231F20;stroke-width:18.8148;" d="M472.248,553.67c4.875-7.372,4.042-6.104,2.916-13.304
				c-0.966-6.248-6.674-9.382-10.024-14.063c-5.097-7.154-5.842-12.443-15.805-11.447c-7.241,0.716-13.49,4.963-20.626,6.366
				c-7.854,1.531-13.872,3.052-15.601,12.253c-1.684,8.993-1.09,23.229,8.633,26.67c10.273,3.632,19.04-1.901,28.985-0.217
				c6.453,1.096,11.266,4.012,16.238-1.621C467.621,557.555,472.248,553.67,472.248,553.67z"/>
			<path style="fill:none;stroke:#231F20;stroke-width:18.8148;" d="M475.997,468.634c4.885-7.372,4.042-6.104,2.917-13.304
				c-0.967-6.249-6.675-9.382-10.025-14.064c-5.097-7.153-5.841-12.442-15.805-11.446c-7.241,0.716-13.49,4.963-20.626,6.366
				c-7.853,1.54-13.872,3.052-15.6,12.253c-1.684,8.993-1.09,23.229,8.633,26.67c10.273,3.632,19.04-1.901,28.994-0.217
				c6.452,1.096,11.257,4.012,16.229-1.621C471.38,472.519,475.997,468.634,475.997,468.634z"/>
			<path style="fill:none;stroke:#231F20;stroke-width:18.8148;" d="M366.653,517.237c0.895-8.856,0.735-7.326-3.572-13.141
				c-3.741-5.035-10.229-5.044-15.334-7.562c-7.809-3.849-10.902-8.15-19.217-2.481c-6.063,4.13-9.608,10.876-15.255,15.567
				c-6.213,5.135-10.814,9.373-8.092,18.312c2.668,8.748,9.759,21.01,19.926,19.361c10.734-1.757,15.911-10.867,25.466-14.172
				c6.196-2.138,11.78-1.894,13.562-9.256C364.375,522.889,366.653,517.237,366.653,517.237z"/>
			<path style="fill:none;stroke:#231F20;stroke-width:18.8148;" d="M535.306,460.293c-9.476,1.231-7.854,1.015-12.853,7.163
				c-4.353,5.334-2.757,12.416-4.122,18.638c-2.092,9.464-5.823,13.919,2.181,21.59c5.814,5.587,13.766,7.788,20.059,12.796
				c6.923,5.515,12.498,9.49,21.167,4.292c8.491-5.08,19.563-15.875,15.316-26.561c-4.493-11.284-15.308-14.681-21.131-24.289
				c-3.776-6.23-4.911-12.397-13.057-12.515C541.785,461.397,535.306,460.293,535.306,460.293z"/>
			<path style="fill:none;stroke:#231F20;stroke-width:18.8148;" d="M239.545,628.156c0.009,0.026,0.018,0.045,0.018,0.072
				C259.099,695.37,344.91,745.93,447.819,745.93c100.215,0,184.217-47.961,206.572-112.477c0.159-0.443,0.31-0.887,0.461-1.34"/>
			<path style="fill:none;stroke:#231F20;stroke-width:18.8148;" d="M565.362,434.284c2.27,2.952,4.087,6.729,5.434,11.609
				c1.959,7.091,4.894,13.34,17.949,19.426c3.129,1.467,7.65,4.338,12.569,7.081c33.86,18.919,49.566,44.629,37.122,63.312
				c-18.898,28.372-67.517,10.722-93.346,26.389l-0.398,0.281c-4.999,3.768-8.279,8.214-12.321,12.978
				c-20.661,24.333-55.124,29.205-78.613,26.543l-5.549,0.181c-23.498,2.672-57.96-2.219-78.622-26.552
				c-6.781-7.979-11.408-15.097-25.669-19.552c-9.954-3.115-35.695-6.512-45.206-11.366c-22.479-11.474-21.309-38.352-14.484-56.283
				c3.28-8.648,21.123-19.153,28.994-22.821c13.048-6.095,15.982-12.343,17.94-19.434c1.516-5.488,3.625-9.582,6.293-12.679
				c6.453-7.471,16.177-9.083,28.71-10.324c9.183-0.905,18.765-1.621,26.308-7.372c5.806-4.428,11.39-9.047,16.469-14.245
				c0.647-0.661,1.348-1.295,2.074-1.883c13.367-10.777,39.32-9.609,39.32-9.609c13.925-0.661,28.701,2.753,39.684,9.355
				c1.037,0.625,2.038,1.277,3.005,1.956c5.912,4.175,10.654,9.817,16.46,14.245c7.543,5.751,17.134,6.466,26.308,7.372
				C548.902,424.187,558.937,425.889,565.362,434.284z"/>
			<path style="fill:none;stroke:#231F20;stroke-width:12.5432;" d="M154.736,240.62c-0.47,0.788-0.771,1.83-0.931,3.034"/>
			<path style="fill:none;stroke:#231F20;stroke-width:12.5432;" d="M153.797,243.69c-0.7,5.053,0.913,13.022,2.331,18.185
				c3.067,11.157,11.603,49.88,5.451,90.696c-6.134,40.815-38.238,88.957-59.742,118.271c-21.513,29.297-27.664,63.13-24.26,63.13
				c3.413,0,20.777-18.474,41.323-31.397c17.754-11.166,52.695-40.86,72.302-77.347c19.474-36.225,24.748-91.747,20.919-130.905
				c-3.696-37.601-15.539-53.177-21.194-58.593c0,0-13.978,6.611-32.574,3.306c-1.711-0.299-2.863,0.326-3.608,1.566"/>
			<path style="fill:none;stroke:#231F20;stroke-width:12.5432;stroke-linecap:round;stroke-linejoin:round;" d="M190.927,235.73
				c0,0-11.594-10.487-13.641-21.653c-2.048-11.157-3.865-56.356-9.901-76.741c-0.319-1.078-0.647-2.101-0.975-3.088
				c-6.674-19.616-16.611-21.508-23.436-21.508"/>
			<path style="fill:none;stroke:#231F20;stroke-width:12.5432;" d="M166.375,134.203c0,0,0.009,0.018,0.018,0.054
				c0.328,1.268,5.965,23.301,5.097,46.331c-0.691,18.211-8.04,32.104-10.247,39.077c-2.402,7.607-5.106,16.392-6.498,20.938
				c-0.009,0.009-0.009,0.018-0.009,0.018c-0.523,1.712-0.86,2.816-0.931,3.034c-0.009,0.027-0.009,0.036-0.009,0.036"/>
		</g>
	</g>
</g>
<rect style="fill:none;" width="850.394" height="850.394"/>
<g>
	<g id="XMLID_9_">
		<g>
			<path style="fill:#A9D7F3;" d="M805.964,291.422l-0.76,1.118l-46.624-0.243c0.186-5.067-0.004-8.761-0.084-9.967v-0.005
				c0.005-0.128,0.009-0.256,0.009-0.384c0-0.088-0.004-0.172-0.009-0.265c-0.026-0.764-0.186-1.52-0.473-2.257l0.349-0.128
				c3.535,1.768,9.721,0.884,15.905-2.651l0.509-1.595C785.654,280.704,797.645,285.413,805.964,291.422z"/>
			<path style="fill:#FFEEC8;" d="M787.289,135.689c8.619,1.383,7.457,11.059,5.09,15.879c-5.757,11.748-3.124,16.073-3.853,25.033
				c-0.274,3.309-3.95,9.653-11.615,8.58c2.284-9.91,3.508-20.57,3.508-31.766c0-5.964-0.075-10.144-0.261-17.187h0.11l0.83-0.009
				c1.264-0.451,2.625-0.703,4.083-0.703C785.866,135.517,786.568,135.574,787.289,135.689z"/>
			<path style="fill:#9C5B16;" d="M780.145,135.707c0-0.004-0.004-0.014-0.004-0.018c-2.969-11.929-15.905-22.086-19.228-26.672
				c-17.894-24.714-31.439-34.006-34.766-36.056c-0.521-0.327-0.791-0.468-0.791-0.468c-0.035,0.022-0.062,0.044-0.098,0.066
				c-15.078,10.533-65.983,27.313-72.451,32.058c0,0-11.554,11.911-19.555,22.157c-2.872,3.685-5.293,7.148-6.557,9.773
				l-0.751-24.428c0-38.958,31.797-61.57,31.797-61.57c3.681-2.5,6.137-3.76,6.137-3.76c16.223-9.645,37.195-13.046,63.947-9.932
				c32.301,3.769,57.09,35.941,61.817,75.991c0.769,6.512-1.078,13.396-2.204,20.283l-2.258,2.386c-1.458,0-2.819,0.252-4.083,0.703
				l-0.83,0.009C780.229,136.047,780.193,135.879,780.145,135.707z"/>
			<path style="fill:#FFEEC8;" d="M710.344,197.71c-0.106,0.018-0.208,0.031-0.318,0.049l0.716-0.044
				C710.604,197.714,710.468,197.714,710.344,197.71z M752.121,140.66v-0.004c-0.605-0.288-1.229-0.539-1.86-0.76
				c-0.632-0.225-1.281-0.411-1.935-0.565c-0.332-0.08-0.663-0.146-0.999-0.203c-0.331-0.062-0.671-0.11-1.012-0.15
				c-0.34-0.04-0.685-0.071-1.029-0.088c-0.468-0.026-0.941-0.035-1.423-0.026c-4.029,0.093-8.169,1.763-11.279,4.427l2.395,0.022
				c0.018,0.265,0.102,0.539,0.102,1.17c0,4.44,3.769,8.041,8.426,8.041c4.644,0,8.416-3.601,8.416-8.041
				c0-0.72,0.026-1.206-0.013-1.635c-0.009-0.115-0.022-0.225-0.049-0.335c0.004-0.004,0.004-0.004,0-0.004
				c-0.035-0.168-0.089-0.332-0.159-0.504L752.121,140.66z M776.911,185.18c-4.904,21.287-14.704,39.087-27.825,51.139
				c-6.429,5.912-13.656,10.44-21.489,13.33l-0.446-0.11c0.331-1.378,0.641-2.814,0.923-4.25c0.313-1.586,0.592-3.172,0.84-4.683
				l0.146,0.022c3.583-4.002,5.372-12.432,5.372-12.432c-0.168-0.481-2.293-3.332-2.293-3.332
				c-2.717-3.631-9.808-10.095-12.984-11.942c-3.791-2.218-9.38,2.103-9.38,2.103s-5.897-4.321-9.693-2.103
				c-3.79,2.209-13.695,13.272-14.327,15.062c0,0,1.789,7.17,5.372,11.173l0.221-0.035c0.614,3.932,1.467,8.558,2.532,12.481
				l-0.398,0.11c-11.195-2.642-21.339-8.509-29.954-16.917v-0.004c-0.38-0.371-0.756-0.747-1.131-1.126
				c-11.589-11.796-20.288-28.271-24.892-47.702c-2.399-10.131-3.685-21.061-3.685-32.548c0-3.676,0.004-10.122,0.058-16.338
				c0.026-3.481,0.07-6.893,0.137-9.711l-0.76-0.592c8.001-10.246,19.555-22.157,19.555-22.157
				c6.468-4.745,57.373-21.525,72.451-32.058c0.168,0.15,0.481,0.283,0.889,0.402c3.326,2.05,16.872,11.341,34.766,36.056
				c3.322,4.586,16.259,14.743,19.228,26.672c0.009,0.181,0.013,0.358,0.018,0.539c0.186,7.042,0.261,11.222,0.261,17.187
				C780.419,164.61,779.195,175.271,776.911,185.18z M683.973,142.842c-2.991-2.257-6.738-3.649-10.4-3.733
				c-1.348-0.027-2.66,0.097-3.924,0.354c-0.229,0.044-0.464,0.093-0.693,0.15c-0.221,0.053-0.446,0.115-0.667,0.181
				c0,0-0.005,0-0.009,0c-0.893,0.252-1.763,0.57-2.606,0.95c0,0,0,0.004-0.005,0c-0.42,0.19-0.835,0.389-1.246,0.609
				c-0.618,0.327-1.219,0.681-1.807,1.065l2.911,0.601c-0.053,0.446-0.018,0.95-0.018,1.71c0,2.359,1.065,4.484,2.762,5.951
				c0.301,0.261,0.618,0.499,0.954,0.716c1.343,0.87,2.96,1.374,4.705,1.374c1.308,0,2.55-0.283,3.649-0.791
				c0.005,0,0.005-0.004,0.005-0.004c0.366-0.168,0.72-0.362,1.056-0.579c0.331-0.217,0.649-0.455,0.95-0.716
				c1.696-1.467,2.757-3.592,2.757-5.951L683.973,142.842z"/>
			<path style="fill:#FFEEC8;" d="M780.145,135.707c0.005,0.176,0.009,0.349,0.014,0.521c-0.005-0.181-0.009-0.358-0.018-0.539
				C780.141,135.693,780.145,135.703,780.145,135.707z"/>
			<path style="fill:#FFEEC8;" d="M756.672,277.01c-2.13-2.836-5.986-5.395-10.82-7.498c2.806,4.979,4.913,11.946,4.131,18.732
				c-2.146-8.301-1.723-10.237-5.015-16.082c-0.477-0.853-1.016-1.617-1.488-2.368c-4.176-6.645-10.71-11.456-18.176-14.059
				c0.68-1.758,1.299-3.905,1.847-6.198l0.446,0.11c7.833-2.89,15.061-7.418,21.489-13.33l0.438,0.469
				c-4.286,19.55,9.26,29.928,25.263,38.256l-0.509,1.595c-6.185,3.535-12.37,4.418-15.905,2.651l-0.349,0.128
				C757.719,278.596,757.264,277.792,756.672,277.01z"/>
			<path style="fill:#FFFFFF;" d="M758.496,282.33c0.08,1.206,0.27,4.899,0.084,9.967l-7.975-0.044
				C755.421,289.416,758.302,286.005,758.496,282.33z"/>
			<path style="fill:#FBEE34;" d="M750.605,292.252l7.975,0.044c-0.504,13.815-3.813,37.881-19.881,49.894
				c-6.406,4.789-14.841,7.665-25.935,7.21l0.115,0.036c-39.268,1.612-45.224-38.495-45.838-57.621l7.378,0.035
				c0,0,0,0.004,0.005,0.004c0.133,0.084,0.27,0.168,0.411,0.252c4.197,2.532,9.914,4.613,16.62,6.04
				c6.38,1.365,13.656,2.134,21.384,2.134c14.624,0,27.648-2.766,36.008-7.06C749.457,292.906,750.045,292.583,750.605,292.252z"/>
			<path style="fill:#FFEEC8;" d="M758.505,281.94c0-0.088,0-0.177-0.009-0.265C758.501,281.768,758.505,281.852,758.505,281.94z"/>
			<path style="fill:#FFFFC2;" d="M758.496,282.325v0.005c-0.194,3.676-3.075,7.086-7.891,9.923l-1.444-0.009
				c0.401-1.313,0.667-2.651,0.821-3.999c0.782-6.786-1.325-13.753-4.131-18.732c4.834,2.103,8.69,4.661,10.82,7.498
				c1.064,1.718,1.74,3.366,1.824,4.665c0.009,0.088,0.009,0.177,0.009,0.265C758.505,282.069,758.501,282.197,758.496,282.325z"/>
			<path style="fill:#9E5B16;" d="M758.023,279.418c0.287,0.738,0.446,1.493,0.473,2.257c-0.084-1.299-0.76-2.947-1.824-4.665
				C757.264,277.792,757.719,278.596,758.023,279.418z"/>
			<path style="fill:#FFEEC8;" d="M752.121,140.655v0.004c-0.605-0.283-1.229-0.539-1.86-0.765
				C750.893,140.116,751.516,140.368,752.121,140.655z"/>
			<path style="fill:#ABDA4D;" d="M752.121,140.66l-0.42,1.343c0.07,0.172,0.124,0.336,0.159,0.504c0.004,0,0.004,0,0,0.004
				c0.022,0.106,0.04,0.221,0.049,0.335c0.039,0.429,0.013,0.915,0.013,1.635c0,4.44-3.772,8.041-8.416,8.041
				c-4.657,0-8.426-3.601-8.426-8.041c0-0.632-0.084-0.906-0.102-1.17l-2.395-0.022c3.11-2.664,7.25-4.334,11.279-4.427
				c0.481-0.009,0.955,0,1.423,0.026c0.345,0.022,0.689,0.049,1.029,0.088c0.341,0.044,0.681,0.093,1.012,0.15
				c0.336,0.058,0.667,0.128,0.999,0.203c0.653,0.155,1.303,0.345,1.935,0.565C750.893,140.121,751.516,140.377,752.121,140.66z
				 M746.497,144.552c0-1.493-1.361-2.708-3.04-2.708s-3.039,1.215-3.039,2.708c0,1.498,1.36,2.708,3.039,2.708
				S746.497,146.049,746.497,144.552z"/>
			<path style="fill:#ABDA4D;" d="M751.86,142.511c0.026,0.11,0.04,0.221,0.049,0.335C751.9,142.731,751.883,142.617,751.86,142.511
				z"/>
			<path style="fill:#9E5B16;" d="M749.161,292.244l1.444,0.009c-0.561,0.331-1.148,0.654-1.758,0.967l-0.005-0.004
				C748.958,292.893,749.063,292.57,749.161,292.244z"/>
			<path style="fill:#FFFFC2;" d="M749.982,288.245c-0.154,1.348-0.42,2.686-0.821,3.999l-74.736-0.389
				c-0.005,0-0.005,0-0.005-0.004c-0.158-0.097-0.313-0.194-0.468-0.296c-0.782-0.508-1.502-1.029-2.156-1.568l0.866-0.093
				c1.647-9.15,4.988-16.422,9.389-21.989c3.888-4.913,8.597-8.496,13.7-10.855c0.004,0.004,0.004,0.013,0.009,0.018
				c3.618,7.763,9.547,9.159,14.491,8.849c4.943,0.31,10.873-1.086,14.491-8.849c0.19-0.411,0.38-0.857,0.562-1.33
				c7.466,2.603,14,7.414,18.176,14.059c0.473,0.751,1.012,1.515,1.488,2.368C748.26,278.008,747.836,279.944,749.982,288.245z"/>
			<path style="fill:#FFFFC2;" d="M674.425,291.854l74.736,0.389c-0.098,0.327-0.203,0.649-0.318,0.972l0.005,0.004
				c-8.359,4.294-21.384,7.06-36.008,7.06c-7.728,0-15.004-0.769-21.384-2.134c-6.706-1.427-12.423-3.508-16.62-6.04
				C674.694,292.022,674.558,291.938,674.425,291.854z"/>
			<path style="fill:#FFEEC8;" d="M748.326,139.33c0.653,0.155,1.303,0.34,1.935,0.565
				C749.629,139.674,748.979,139.484,748.326,139.33z"/>
			<path style="fill:#FFEEC8;" d="M747.327,139.126c0.336,0.058,0.667,0.124,0.999,0.203
				C747.994,139.254,747.663,139.184,747.327,139.126z"/>
			<path style="fill:#FFEEC8;" d="M746.315,138.976c0.341,0.04,0.681,0.088,1.012,0.15
				C746.996,139.069,746.656,139.021,746.315,138.976z"/>
			<path style="fill:#FFEEC8;" d="M745.286,138.888c0.345,0.018,0.689,0.049,1.029,0.088
				C745.976,138.937,745.631,138.91,745.286,138.888z"/>
			<ellipse cx="743.457" cy="144.552" rx="3.04" ry="2.708"/>
			<path style="fill:#EE947D;" d="M732.138,224.863c0,0,2.125,2.85,2.293,3.332c0,0-1.789,8.43-5.372,12.432l-0.146-0.022
				c0.923-5.593,1.409-10.197,1.409-10.197s-3.265-3.795-8.01-6.64c-3.968-2.381-7.162-0.632-8.846,0
				c-1.691,0.636-5.796,0.738-7.483,0.106c-1.688-0.632-4.882-2.381-8.854,0c-4.735,2.85-6.954,6.534-6.954,6.534
				s0.407,3.813,1.171,8.712l-0.221,0.035c-3.583-4.002-5.372-11.173-5.372-11.173c0.632-1.79,10.537-12.853,14.327-15.062
				c3.796-2.218,9.693,2.103,9.693,2.103s5.589-4.321,9.38-2.103C722.33,214.768,729.421,221.232,732.138,224.863z"/>
			<path style="fill:#EE947D;" d="M730.322,230.408c0,0-0.486,4.604-1.409,10.197c-0.248,1.511-0.526,3.097-0.84,4.683
				c-0.282,1.436-0.592,2.872-0.923,4.25c-0.548,2.293-1.167,4.44-1.847,6.198c-9.327-3.256-20.107-3.062-29.553,1.313
				c-0.685-1.476-1.313-3.362-1.873-5.448c-1.065-3.923-1.918-8.549-2.532-12.481c-0.764-4.899-1.171-8.712-1.171-8.712
				s2.219-3.685,6.954-6.534c3.973-2.381,7.166-0.632,8.854,0c1.688,0.632,5.792,0.53,7.483-0.106c1.684-0.632,4.878-2.381,8.846,0
				C727.058,226.613,730.322,230.408,730.322,230.408z"/>
			<path style="fill:#FFFFC2;" d="M725.304,255.737c-0.182,0.473-0.371,0.919-0.562,1.33c-3.618,7.763-9.548,9.159-14.491,8.849
				c0.018-0.004,0.035-0.004,0.053-0.004h-0.105c0.018,0,0.035,0,0.053,0.004c-4.944,0.31-10.873-1.086-14.491-8.849
				c-0.005-0.004-0.005-0.013-0.009-0.018C705.196,252.675,715.977,252.481,725.304,255.737z"/>
			<path style="fill:#9E5B16;" d="M710.304,265.912c-0.018,0-0.035,0-0.053,0.004c-0.018-0.004-0.035-0.004-0.053-0.004H710.304z"/>
			<path style="fill:#FFEEC8;" d="M693.878,251.602c0.561,2.085,1.188,3.972,1.873,5.448c-5.104,2.359-9.813,5.942-13.7,10.855
				l-1.437-0.102c-11.906,3.327-12.37,7.069-13.439,14.138c-13.572,0-26.323-1.604-26.323-7.952l-1.82-0.773
				c15.543-8.24,28.408-18.587,24.221-37.708l0.273-0.711c8.615,8.408,18.759,14.275,29.954,16.917L693.878,251.602z"/>
			<path style="fill:#ABDA4D;" d="M665.526,143.019l-2.911-0.601c0.588-0.384,1.188-0.738,1.807-1.065
				c0.411-0.216,0.826-0.419,1.246-0.609c0.005,0.004,0.005,0,0.005,0c0.844-0.376,1.714-0.694,2.606-0.95c0.004,0,0.009,0,0.009,0
				c0.221-0.062,0.446-0.124,0.667-0.181c0.229-0.053,0.464-0.102,0.693-0.15c1.264-0.256,2.576-0.38,3.924-0.354
				c3.662,0.084,7.409,1.476,10.4,3.733l-1.626,1.887c0,2.359-1.061,4.484-2.757,5.951c-0.301,0.261-0.619,0.499-0.95,0.716
				c-0.336,0.216-0.689,0.411-1.056,0.579c-0.005,0-0.005,0.004-0.005,0.004c-1.104,0.504-2.342,0.787-3.645,0.787
				c-1.741,0-3.362-0.504-4.71-1.37c-0.336-0.217-0.653-0.455-0.954-0.716c-1.696-1.467-2.762-3.592-2.762-5.951
				C665.509,143.969,665.474,143.465,665.526,143.019z M673.903,147.278c1.675,0,3.035-1.21,3.035-2.704
				c0-1.498-1.36-2.717-3.035-2.717c-1.684,0-3.035,1.219-3.035,2.717C670.868,146.067,672.22,147.278,673.903,147.278z"/>
			<path style="fill:#FFFFC2;" d="M680.614,267.803l1.437,0.102c-4.4,5.567-7.741,12.839-9.389,21.989l-0.866,0.093
				c-2.96-2.43-4.621-5.16-4.621-8.045C668.244,274.872,668.708,271.129,680.614,267.803z"/>
			<path style="fill:#ABDA4D;" d="M678.64,151.396c0.331-0.217,0.649-0.455,0.95-0.716
				C679.289,150.94,678.971,151.179,678.64,151.396z"/>
			<path style="fill:#ABDA4D;" d="M677.584,151.974c0.366-0.168,0.72-0.362,1.056-0.579
				C678.304,151.612,677.95,151.806,677.584,151.974z"/>
			<path style="fill:#ABDA4D;" d="M677.584,151.974c0,0,0,0.004-0.005,0.004C677.579,151.979,677.579,151.974,677.584,151.974z"/>
			<path d="M676.938,144.574c0,1.494-1.36,2.704-3.035,2.704c-1.684,0-3.035-1.21-3.035-2.704c0-1.498,1.352-2.717,3.035-2.717
				C675.578,141.857,676.938,143.076,676.938,144.574z"/>
			<path style="fill:#FFFFC2;" d="M674.42,291.85c0,0.004,0,0.004,0.005,0.004C674.42,291.854,674.42,291.85,674.42,291.85z"/>
			<path style="fill:#FFFFFF;" d="M674.42,291.85l-7.378-0.035c-0.137-4.268-0.009-7.489,0.075-8.973
				c0.04,2.532,1.852,4.966,4.621,7.148c0.681,0.539,1.428,1.061,2.214,1.564C674.106,291.656,674.262,291.753,674.42,291.85z"/>
			<path style="fill:#ABDA4D;" d="M673.935,152.765c1.303,0,2.54-0.283,3.645-0.787c-1.1,0.508-2.342,0.791-3.649,0.791
				c-1.745,0-3.362-0.504-4.705-1.374C670.572,152.261,672.193,152.765,673.935,152.765z"/>
			<path style="fill:#FFFFFF;" d="M673.952,291.554c-0.786-0.503-1.533-1.025-2.214-1.564l0.058-0.004
				C672.45,290.525,673.17,291.046,673.952,291.554z"/>
			<path style="fill:#FFFFFF;" d="M671.796,289.986l-0.058,0.004c-2.77-2.183-4.581-4.617-4.621-7.148
				c0.022-0.438,0.044-0.725,0.053-0.839c0.005-0.04,0.005-0.062,0.005-0.062C667.175,284.826,668.836,287.556,671.796,289.986z"/>
			<path style="fill:#ABDA4D;" d="M668.955,139.612c0.229-0.057,0.464-0.106,0.693-0.15
				C669.419,139.511,669.185,139.56,668.955,139.612z"/>
			<path style="fill:#FFEEC8;" d="M668.955,139.612c-0.221,0.058-0.446,0.119-0.667,0.181
				C668.509,139.727,668.734,139.666,668.955,139.612z"/>
			<path style="fill:#ABDA4D;" d="M668.271,150.68c0.301,0.261,0.618,0.499,0.954,0.716
				C668.889,151.179,668.571,150.94,668.271,150.68z"/>
			<path style="fill:#A9D7F3;" d="M667.175,281.94c0,0,0,0.022-0.005,0.062c-0.044,0.283-0.062,0.561-0.053,0.839
				c-0.084,1.484-0.212,4.705-0.075,8.973l-62.012-0.327c8.571-6.861,22.072-11.946,34.001-18.273l1.82,0.773
				C640.852,280.337,653.603,281.94,667.175,281.94z"/>
			<path style="fill:#A9D7F3;" d="M667.117,282.842c-0.009-0.278,0.009-0.557,0.053-0.839
				C667.161,282.117,667.14,282.404,667.117,282.842z"/>
			<path style="fill:#FFEEC8;" d="M668.279,139.793c-0.893,0.256-1.763,0.574-2.606,0.95
				C666.517,140.363,667.387,140.045,668.279,139.793z"/>
			<path style="fill:#FFEEC8;" d="M664.422,141.353c0.411-0.221,0.826-0.419,1.246-0.609
				C665.248,140.934,664.833,141.137,664.422,141.353z"/>
			<path style="fill:#FFFFC2;" d="M663.525,234.791v0.004c-0.38-0.371-0.76-0.751-1.131-1.131
				C662.77,234.044,663.146,234.42,663.525,234.791z"/>
			<path style="fill:#FFEEC8;" d="M637.503,185.962c-7.952,1.378-11.761-5.138-12.035-8.514c-0.737-8.964,1.9-13.281-3.856-25.024
				c-2.368-4.825-3.53-14.5,5.085-15.878c2.267-0.367,4.343-0.137,6.194,0.525l0.985,0.005c-0.054,6.216-0.058,12.662-0.058,16.338
				C633.818,164.901,635.104,175.832,637.503,185.962z"/>
		</g>
		<g>
			<path style="fill:none;stroke:#231F20;stroke-width:6.1853;" d="M780.141,135.689c0.009,0.181,0.013,0.358,0.018,0.539"/>
			<path style="fill:none;stroke:#231F20;stroke-width:4.0023;stroke-linecap:square;stroke-miterlimit:10;" d="M668.271,150.68
				c0.301,0.261,0.618,0.499,0.954,0.716c1.348,0.866,2.969,1.37,4.71,1.37c1.303,0,2.54-0.283,3.645-0.787c0,0,0-0.004,0.005-0.004
				c0.366-0.168,0.72-0.362,1.056-0.579c0.331-0.217,0.649-0.455,0.95-0.716"/>
			<path style="fill:none;stroke:#231F20;stroke-width:4.0023;stroke-linecap:square;stroke-miterlimit:10;" d="M669.648,139.462
				c-0.229,0.044-0.464,0.093-0.693,0.15"/>
			<path style="fill:none;stroke:#231F20;stroke-width:7;" d="M780.269,136.228c-0.04-0.181-0.075-0.349-0.124-0.521
				c0-0.004-0.004-0.014-0.004-0.018c-2.969-11.929-15.905-22.086-19.228-26.672c-17.894-24.714-31.439-34.006-34.766-36.056
				c-0.521-0.327-0.791-0.468-0.791-0.468c-0.035,0.022-0.062,0.044-0.098,0.066c-15.078,10.533-65.983,27.313-72.451,32.058
				c0,0-11.554,11.911-19.555,22.157c-2.872,3.685-5.293,7.148-6.557,9.773l-0.751-24.428c0-38.958,31.797-61.57,31.797-61.57
				c3.681-2.5,6.137-3.76,6.137-3.76c16.223-9.645,37.195-13.046,63.947-9.932c32.301,3.769,57.09,35.941,61.817,75.991
				c0.769,6.512-1.078,13.396-2.204,20.283l-2.258,2.386"/>
			<path style="fill:none;stroke:#231F20;stroke-width:4.0023;stroke-linecap:square;stroke-miterlimit:10;" d="M745.286,138.888
				c0.345,0.018,0.689,0.049,1.029,0.088c0.341,0.04,0.681,0.088,1.012,0.15c0.336,0.058,0.667,0.124,0.999,0.203
				c0.653,0.155,1.303,0.34,1.935,0.565c0.632,0.221,1.255,0.473,1.86,0.76v0.004"/>
			<path style="fill:none;stroke:#231F20;stroke-width:4.0023;stroke-linecap:square;stroke-miterlimit:10;" d="M751.86,142.511
				c0.022,0.106,0.04,0.221,0.049,0.335"/>
			<path style="fill:none;stroke:#231F20;stroke-width:4.0023;stroke-linecap:square;stroke-miterlimit:10;" d="M669.648,139.462
				c1.264-0.256,2.576-0.38,3.924-0.354c3.662,0.084,7.409,1.476,10.4,3.733c1.793,1.348,3.317,3.018,4.378,4.896"/>
			
				<line style="fill:none;stroke:#231F20;stroke-width:4.0023;stroke-linecap:square;stroke-miterlimit:10;" x1="668.279" y1="139.793" x2="668.288" y2="139.793"/>
			
				<line style="fill:none;stroke:#231F20;stroke-width:4.0023;stroke-linecap:square;stroke-miterlimit:10;" x1="665.668" y1="140.744" x2="665.673" y2="140.744"/>
			<path style="fill:none;stroke:#231F20;stroke-width:4.0023;stroke-linecap:square;stroke-miterlimit:10;" d="M656.104,148.342
				c1.895-2.279,4.073-4.338,6.512-5.924c0.588-0.384,1.188-0.738,1.807-1.065"/>
			<path style="fill:none;stroke:#231F20;stroke-width:4.0023;stroke-linecap:square;stroke-miterlimit:10;" d="M682.347,144.729
				c0,2.359-1.061,4.484-2.757,5.951c-0.301,0.261-0.619,0.499-0.95,0.716c-0.336,0.216-0.689,0.411-1.056,0.579
				c0,0,0,0.004-0.005,0.004c-1.1,0.508-2.342,0.791-3.649,0.791c-1.745,0-3.362-0.504-4.705-1.374
				c-0.336-0.217-0.653-0.455-0.954-0.716c-1.696-1.467-2.762-3.592-2.762-5.951c0-0.76-0.035-1.264,0.018-1.71
				c0.031-0.194,0.063-0.384,0.133-0.57"/>
			<path style="fill:none;stroke:#231F20;stroke-width:4.0023;stroke-linecap:square;stroke-miterlimit:10;" d="M761.328,148.091
				c-2.563-3.097-5.668-5.774-9.207-7.431c-0.605-0.283-1.229-0.539-1.86-0.765c-0.632-0.221-1.281-0.411-1.935-0.565
				c-0.332-0.075-0.663-0.146-0.999-0.203c-0.331-0.058-0.671-0.106-1.012-0.15c-0.34-0.04-0.685-0.066-1.029-0.088
				c-0.468-0.026-0.941-0.035-1.423-0.026c-4.029,0.093-8.169,1.763-11.279,4.427c-1.418,1.211-2.62,2.638-3.503,4.202"/>
			<path style="fill:none;stroke:#231F20;stroke-width:4.0023;stroke-linecap:square;stroke-miterlimit:10;" d="M734.979,143.311
				c0.018,0.265,0.102,0.539,0.102,1.17c0,4.44,3.769,8.041,8.426,8.041c4.644,0,8.416-3.601,8.416-8.041
				c0-0.72,0.026-1.206-0.013-1.635c-0.009-0.115-0.022-0.225-0.049-0.335c0.004-0.004,0.004-0.004,0-0.004
				c-0.031-0.168-0.079-0.332-0.154-0.504"/>
			<path style="fill:none;stroke:#231F20;stroke-width:7;" d="M632.891,137.072c-1.852-0.663-3.928-0.892-6.194-0.525
				c-8.615,1.378-7.453,11.054-5.085,15.878c5.757,11.743,3.119,16.06,3.856,25.024c0.274,3.375,4.083,9.892,12.035,8.514
				c0.075-0.009,0.154-0.022,0.238-0.04"/>
			<path style="fill:none;stroke:#231F20;stroke-width:7;" d="M781.099,136.219c1.264-0.451,2.625-0.703,4.083-0.703
				c0.685,0,1.387,0.058,2.107,0.172c8.619,1.383,7.457,11.059,5.09,15.879c-5.757,11.748-3.124,16.073-3.853,25.033
				c-0.274,3.309-3.95,9.653-11.615,8.58c-0.217-0.026-0.438-0.062-0.667-0.106"/>
			<path style="fill:none;stroke:#231F20;stroke-width:7;" d="M693.479,251.712c-11.195-2.642-21.339-8.509-29.954-16.917
				c-0.38-0.371-0.76-0.751-1.131-1.131c-11.589-11.796-20.288-28.271-24.892-47.702c-2.399-10.131-3.685-21.061-3.685-32.548
				c0-3.676,0.004-10.122,0.058-16.338c0.026-3.481,0.07-6.893,0.137-9.711"/>
			<path style="fill:none;stroke:#231F20;stroke-width:7;" d="M780.118,134.779c0.009,0.31,0.018,0.614,0.026,0.91
				c0,0.004,0,0.014,0,0.018c0.005,0.176,0.009,0.349,0.014,0.521c0.186,7.042,0.261,11.222,0.261,17.187
				c0,11.195-1.224,21.856-3.508,31.766c-4.904,21.287-14.704,39.087-27.825,51.139c-6.429,5.912-13.656,10.44-21.489,13.33"/>
			<path style="fill:none;stroke:#231F20;stroke-width:6.1853;" d="M710.344,197.71c4.016-0.747,3.296-3.124,7.604-2.076
				c3.711,0.896,7.647,2.743,8.575-3.058c0.637-3.994-2.368-4.524-3.963-7.731"/>
			<path style="fill:none;stroke:#231F20;stroke-width:6.1853;" d="M710.344,197.71c0.124,0.004,0.261,0.004,0.397,0.004
				l-0.716,0.044C710.136,197.741,710.237,197.728,710.344,197.71z"/>
			<path style="fill:none;stroke:#231F20;stroke-width:6.1853;" d="M697.792,147.91c6.662,7.307,4.644,24.476,1.666,33.414
				l-1.255,3.486c-1.596,3.203-4.595,3.729-3.963,7.723c0.928,5.801,4.868,3.945,8.575,3.053c4.285-1.034,3.317,1.948,7.528,2.125"
				/>
			<path style="fill:none;stroke:#231F20;stroke-width:3.3588;" d="M676.938,144.574c0,1.494-1.36,2.704-3.035,2.704
				c-1.684,0-3.035-1.21-3.035-2.704c0-1.498,1.352-2.717,3.035-2.717C675.578,141.857,676.938,143.076,676.938,144.574z"/>
			<ellipse style="fill:none;stroke:#231F20;stroke-width:3.3588;" cx="743.457" cy="144.552" rx="3.039" ry="2.708"/>
			<path style="fill:none;stroke:#231F20;stroke-width:6.1853;" d="M693.378,134.496c-3.592-7.568-17.646-10.515-24.763-9.092
				c-6.685,1.33-10.003,2.134-16.975,7.542"/>
			<path style="fill:none;stroke:#231F20;stroke-width:6.1853;" d="M722.502,132.844c3.597-7.572,17.65-10.524,24.764-9.097
				c6.697,1.33,10.012,2.129,16.979,7.542"/>
			<path style="fill:none;stroke:#231F20;stroke-width:7;" d="M731.241,73.62c-0.756,0.004-3.565-0.212-5.094-0.658
				c-0.407-0.119-0.721-0.252-0.889-0.402c-0.057-0.048-0.097-0.102-0.119-0.159c4.626-4.506,8.271-11.854,8.271-19.307"/>
			<path style="fill:none;stroke:#231F20;stroke-width:7;" d="M663.252,235.507c4.188,19.121-8.678,29.468-24.221,37.708
				c-11.929,6.327-25.43,11.412-34.001,18.273"/>
			<path style="fill:none;stroke:#231F20;stroke-width:7;" d="M749.523,236.788c-4.286,19.55,9.26,29.928,25.263,38.256
				c10.868,5.66,22.858,10.369,31.178,16.378c0.609,0.438,1.206,0.893,1.776,1.347"/>
			<path style="fill:none;stroke:#000000;stroke-width:3.0926;stroke-linecap:round;stroke-linejoin:round;" d="M729.059,240.627
				c3.583-4.002,5.372-12.432,5.372-12.432c-0.168-0.481-2.293-3.332-2.293-3.332c-2.717-3.631-9.808-10.095-12.984-11.942
				c-3.791-2.218-9.38,2.103-9.38,2.103s-5.897-4.321-9.693-2.103c-3.79,2.209-13.695,13.272-14.327,15.062
				c0,0,1.789,7.17,5.372,11.173"/>
			<path style="fill:none;stroke:#000000;stroke-width:3.0926;stroke-linecap:round;stroke-linejoin:round;" d="M695.751,257.049
				c-0.685-1.476-1.313-3.362-1.873-5.448c-1.065-3.923-1.918-8.549-2.532-12.481c-0.764-4.899-1.171-8.712-1.171-8.712
				s2.219-3.685,6.954-6.534c3.973-2.381,7.166-0.632,8.854,0c1.688,0.632,5.792,0.53,7.483-0.106c1.684-0.632,4.878-2.381,8.846,0
				c4.745,2.845,8.01,6.64,8.01,6.64s-0.486,4.604-1.409,10.197c-0.248,1.511-0.526,3.097-0.84,4.683"/>
			<path style="fill:none;stroke:#000000;stroke-width:3.0926;stroke-linecap:round;stroke-linejoin:round;" d="M728.073,245.288
				c-0.282,1.436-0.592,2.872-0.923,4.25c-0.548,2.293-1.167,4.44-1.847,6.198"/>
			<path style="fill:none;stroke:#000000;stroke-width:3.0926;stroke-linecap:round;stroke-linejoin:round;" d="M709.773,224.506
				c0,0,2.107,12.119,1.057,22.656"/>
			<path style="fill:none;stroke:#000000;stroke-width:6.1853;" d="M667.175,281.94c0,2.885,1.661,5.616,4.621,8.045
				c0.654,0.539,1.374,1.061,2.156,1.568"/>
			<path style="fill:none;stroke:#000000;stroke-width:4.5612;" d="M748.848,293.22l-0.005-0.004
				c0.115-0.322,0.221-0.645,0.318-0.972c0.401-1.313,0.667-2.651,0.821-3.999c0.782-6.786-1.325-13.753-4.131-18.732
				c4.834,2.103,8.69,4.661,10.82,7.498c0.592,0.782,1.047,1.586,1.352,2.408c0.287,0.738,0.446,1.493,0.473,2.257
				c0.009,0.088,0.009,0.177,0.009,0.265"/>
			<path style="fill:none;stroke:#000000;stroke-width:7;" d="M667.175,281.94c1.069-7.069,1.533-10.811,13.439-14.138"/>
			<path style="fill:none;stroke:#000000;stroke-width:7;" d="M758.496,282.33c-0.194,3.676-3.075,7.086-7.891,9.923
				c-0.561,0.331-1.148,0.654-1.758,0.967c-8.359,4.294-21.384,7.06-36.008,7.06c-7.728,0-15.004-0.769-21.384-2.134
				c-6.706-1.427-12.423-3.508-16.62-6.04c-0.142-0.084-0.278-0.168-0.411-0.252c-0.005,0-0.005,0-0.005-0.004
				c-0.158-0.097-0.313-0.194-0.468-0.296c-0.786-0.503-1.533-1.025-2.214-1.564c-2.77-2.183-4.581-4.617-4.621-7.148
				c-0.009-0.278,0.009-0.557,0.053-0.839"/>
			<path style="fill:none;stroke:#000000;stroke-width:7;" d="M743.352,266.919c4.462,0,10.378,5.324,13.32,10.091
				c1.064,1.718,1.74,3.366,1.824,4.665c0.005,0.093,0.009,0.177,0.009,0.265c0,0.128-0.004,0.256-0.009,0.384"/>
			<path style="fill:none;stroke:#000000;stroke-width:7;" d="M667.17,282.002c0.005-0.04,0.005-0.062,0.005-0.062"/>
			<path style="fill:none;stroke:#000000;stroke-width:6.1853;" d="M667.117,282.842c0.022-0.438,0.044-0.725,0.053-0.839"/>
			<path style="fill:none;stroke:#000000;stroke-width:4.5612;" d="M738.699,342.19c-6.406,4.789-14.841,7.665-25.935,7.21
				l0.115,0.036c-39.268,1.612-45.224-38.495-45.838-57.621c-0.137-4.268-0.009-7.489,0.075-8.973"/>
			<path style="fill:none;stroke:#000000;stroke-width:7;" d="M758.466,281.905c0,0,0.013,0.146,0.03,0.419v0.005
				c0.08,1.206,0.27,4.899,0.084,9.967c-0.504,13.815-3.813,37.881-19.881,49.894"/>
			<path style="fill:none;stroke:#000000;stroke-width:7;" d="M672.662,289.893c1.647-9.15,4.988-16.422,9.389-21.989
				c3.888-4.913,8.597-8.496,13.7-10.855c9.445-4.374,20.226-4.568,29.553-1.313c7.466,2.603,14,7.414,18.176,14.059
				c0.473,0.751,1.012,1.515,1.488,2.368c3.292,5.845,2.868,7.78,5.015,16.082c0.133,0.521,0.278,1.069,0.438,1.648"/>
			<path style="fill:none;stroke:#231F20;stroke-width:7;" d="M640.852,273.988c0,6.349,12.751,7.952,26.323,7.952"/>
			<path style="fill:none;stroke:#231F20;stroke-width:7;" d="M758.372,279.29c3.535,1.768,9.721,0.884,15.905-2.651"/>
		</g>
	</g>
</g>
<rect style="fill:none;" width="850.394" height="850.394"/>
</svg>
