<?xml version="1.0" encoding="iso-8859-1"?>
<!-- Generator: Adobe Illustrator 12.0.1, SVG Export Plug-In . SVG Version: 6.00 Build 51448)  -->
<!DOCTYPE svg PUBLIC "-//W3C//DTD SVG 1.1//EN" "http://www.w3.org/Graphics/SVG/1.1/DTD/svg11.dtd" [
	<!ENTITY ns_svg "http://www.w3.org/2000/svg">
	<!ENTITY ns_xlink "http://www.w3.org/1999/xlink">
]>
<svg  version="1.1" id="Layer_1" xmlns="&ns_svg;" xmlns:xlink="&ns_xlink;" width="850.394" height="850.394"
	 viewBox="0 0 850.394 850.394" style="overflow:visible;enable-background:new 0 0 850.394 850.394;" xml:space="preserve">
<g>
	<g id="XMLID_2_">
		<g>
			<path style="fill:#ABD150;" d="M659.54,741.97l0.15,0.601l-29.931,2.8c-3.819-39.2-5.88-78.94-10.3-118.28
				c-1.75-15.609-6.09-37.89-13.86-51.62c-5.13-9.06-16.04-22.689-27.869-23.979c11.06-2.62,29.02,11.569,34.67,20.79
				c11.25,18.38,12.369,30.14,15.979,43.95l16.76,67.64L659.54,741.97z"/>
			<path style="fill:#ABD150;" d="M687.59,739.3l-0.34,1.351l-27.71,1.319l-14.4-58.1h0.011c-2.391-30.49-4.62-63.9-8.04-94.29
				c-2.091-18.64-7.271-37.89-16.551-54.29c-6.13-10.81-19.159-34.44-33.27-35.98c13.21-3.119,28.85,9.5,40.24,22.95
				c7.34,8.67,17.2,25.11,24.489,47.66l11.19,53.22l19.5,92.73v0.04l2.43,11.53L687.59,739.3z"/>
			<polygon style="fill:#ABD150;" points="682.71,715.87 663.21,623.14 672.28,504.01 			"/>
			<polygon style="fill:#ABD150;" points="707.59,658.57 691.77,722.42 691.75,722.42 689.78,607.99 699.12,483.38 			"/>
			<path style="fill:#ABD150;" d="M769.2,549.57c-11.811,1.29-22.73,14.93-27.851,23.989c-7.779,13.73-12.109,36-13.869,51.62
				c-4.421,39.33-6.471,79.08-10.301,118.271l-29.93-2.8l0.34-1.351l4.18-16.88l15.82-63.85l10.97-44.25
				c3.62-13.811,4.74-25.57,15.99-43.96C740.18,561.15,758.14,546.96,769.2,549.57z"/>
			<path style="fill:#9C5C25;" d="M511.08,372.39c-17.34,40.57-29.44,70-33.96,130.09c0,0,1.21,67.789,2.09,89.6
				c1.23,30.68,2.71,73.89,22.21,98.75c10.4,13.25,19.7,19.26,25.5,30.08c1.09,2.28,2.13,4.689,3.07,7.16
				c0,0.01,0.01,0.029,0.01,0.04c5.82,15.399,7.46,33.47-10.17,40.149c-10.36,3.931-17.72,4.66-28.14,7.98
				c-32.19,10.26-52.24,18.83-98.51-0.931c0,0-38.03-5.569-38.05-38.89v-0.02c6.29-31.141,17.28-21.25,29.64-44.29
				c12.99-24.23,7.27-75.13,7.27-102.19c0-34.58,0.97-67.76-7.27-101.229c-4.39-17.82-48.46-88.74-72.19-126.141
				c6.92-1.77,17.67-4.62,28.03-7.85l-14.4-8.13l-3.79,3.66c-3.64,2.45-8.42,5.38-12.76,7.73c-7.28-11.44-12.03-18.76-12.03-18.76
				L142.17,216.96l18.08-19.19l149.7,102.37l-1.22-213.52l27.96-19.73l15.72,241.84l71.12,90.56l67.01-135.19L431.22,83.28
				L457.91,75l70.64,168.31l143.46-125.89l22.96,12.97L551.88,276.97c-13.54,23.51-14.53,30.35-13.5,30.35l-0.01,3.09
				c-6-0.02-9.99-0.09-16.8-0.22c-17.57-0.32-20.82,28.93-1.36,27.59c0.01,0.01,0.021,0,0.03,0c0.37-0.02,0.76-0.06,1.149-0.11
				l0.221-0.03h0.01C521.83,337.81,524.59,340.74,511.08,372.39z"/>
			<path style="fill:#9C5C25;" d="M684.45,309.46l1.66,12.18l-65.601,6.38l0.34-3.1l-5.68,3.62l-93.55,9.1h-0.01l-0.221,0.03
				l-1.149,0.11c-0.01,0-0.021,0.01-0.03,0c-19.46,1.34-16.21-27.91,1.36-27.59c6.81,0.13,10.8,0.2,16.8,0.22
				C552.86,310.47,579.01,310.18,684.45,309.46z"/>
			<path style="fill:#ABD150;" d="M765.13,189.51c-1.28,0.15-4.5,1.72-8.86,3c-2.05,0.61-13.21,7.92-26.159,5.51
				c-6.061-1.14-13.061-6.25-17.16-13.4c-4.53-7.92-4.79-9.58-6.28-13.32c-1.07-2.66-1.34-4.86-0.91-6.7
				c0.21-0.89,0.59-1.7,1.12-2.43c0.23-0.32,0.51-0.6,0.83-0.86c2.76-2.17,8.73-2.12,13.05-1.93c6.33,0.29,15.92,1.09,21.88,3.25
				c5.03,1.86,10.051,5.16,12.9,9.77C759.11,178.14,759.38,185.25,765.13,189.51z"/>
			<path style="fill:#ABD150;" d="M677.83,277.34c-3.23,2.88-7.83,6.7-11.33,6.78c-0.41,0-0.8-0.04-1.18-0.14
				c-0.87-0.23-1.681-0.62-2.4-1.19c-1.51-1.14-2.689-3.01-3.54-5.74c-1.21-3.85-2.06-5.3-3.57-14.31
				c-1.35-8.13,0.82-16.52,4.801-21.22c8.52-10.07,21.77-11.47,23.739-12.3c4.19-1.77,7.681-2.59,8.761-3.29
				c-1.75,6.94,2.529,12.61,3.409,19.32c0.7,5.37-1.09,11.11-3.819,15.74C689.46,266.43,682.54,273.12,677.83,277.34z"/>
			<path style="fill:#ABD150;" d="M620.75,352.11c0.89-0.17,1.77-0.16,2.67,0.03c1.85,0.38,3.72,1.56,5.68,3.65
				c2.761,2.95,4.15,3.9,9.4,11.35c4.74,6.75,6.41,15.26,4.85,21.22c-3.3,12.76-14.649,19.76-16.069,21.36
				c-3.021,3.4-5.8,5.66-6.48,6.75c-1.42-7.01-7.74-10.28-11.42-15.94c-2.97-4.54-3.84-10.49-3.38-15.84
				c0.56-6.31,3.91-15.33,6.33-21.18c1.66-3.99,4.15-9.42,7.29-11.01C619.99,352.31,620.36,352.18,620.75,352.11z"/>
			<path style="fill:#ABD150;" d="M507.69,120.85c-0.28-3.49,3.06-8.45,5.6-11.95c3.72-5.11,9.68-12.68,14.77-16.45
				c4.33-3.18,9.86-5.54,15.271-5.38c6.76,0.2,12.84,3.89,19.57,1.44c-0.591,1.15-1.061,4.7-2.391,9.05
				c-0.62,2.04-0.68,15.38-9.84,24.85c-4.28,4.44-12.41,7.46-20.64,6.93c-9.11-0.59-10.63-1.29-14.58-2.11
				c-2.811-0.57-4.79-1.56-6.08-2.94c-0.63-0.67-1.101-1.42-1.42-2.27C507.81,121.66,507.72,121.26,507.69,120.85z"/>
			<path style="fill:#ABD150;" d="M439.64,310.47c-3.279,1.27-8.979-0.53-13.05-1.97c-5.97-2.13-14.91-5.69-19.97-9.5
				c-4.27-3.25-8.11-7.87-9.49-13.11c-1.73-6.54,0.09-13.42-4.17-19.17c1.27,0.23,4.81-0.33,9.35-0.28
				c2.14,0.02,14.95-3.72,26.62,2.38c5.471,2.85,10.681,9.79,12.511,17.83c2.01,8.89,1.77,10.56,2.109,14.57
				c0.24,2.86-0.14,5.04-1.09,6.68c-0.46,0.78-1.06,1.44-1.78,1.99C440.37,310.13,440.02,310.32,439.64,310.47z"/>
			<path style="fill:#ABD150;" d="M444.6,203.09c-0.97,0.85-2.71,3.98-5.55,7.53c-1.33,1.67-6.29,14.06-18.3,19.49
				c-5.61,2.55-14.27,2.37-21.73-1.15c-8.25-3.9-9.42-5.11-12.79-7.33c-2.39-1.56-3.88-3.21-4.57-4.97
				c-0.34-0.85-0.5-1.73-0.48-2.63c0-0.39,0.07-0.79,0.19-1.18c1.02-3.36,5.95-6.74,9.6-9.06c5.34-3.38,13.67-8.23,19.78-9.86
				c5.2-1.36,11.22-1.53,16.19,0.62C433.15,197.22,437.44,202.89,444.6,203.09z"/>
			<path style="fill:#ABD150;" d="M305.11,364.39c0.67,3.44-2.11,8.73-4.27,12.49c-3.15,5.48-8.25,13.64-12.9,17.94
				c-3.96,3.63-9.21,6.58-14.61,7c-6.74,0.53-13.19-2.48-19.6,0.68c0.45-1.21,0.53-4.79,1.39-9.25c0.4-2.1-0.98-15.37,7.11-25.78
				c3.77-4.86,11.52-8.74,19.76-9.1c9.12-0.4,10.72,0.13,14.73,0.51c2.85,0.28,4.93,1.05,6.36,2.28c0.7,0.59,1.25,1.29,1.66,2.1
				C304.92,363.61,305.04,363.99,305.11,364.39z"/>
			<path style="fill:#ABD150;" d="M275.53,197.92c0.09,0.91-0.01,1.8-0.28,2.66c-0.11,0.37-0.29,0.73-0.52,1.07
				c-1.91,2.94-7.6,4.8-11.76,6c-6.07,1.74-15.42,4.05-21.75,3.9c-5.37-0.16-11.19-1.69-15.36-5.15
				c-5.21-4.31-7.74-10.96-14.54-13.16c1.16-0.55,3.71-3.06,7.43-5.66c1.76-1.24,10-11.73,23.05-13.57
				c6.1-0.86,14.36,1.75,20.53,7.23c6.82,6.06,7.6,7.55,10.21,10.62C274.4,194.04,275.36,196.04,275.53,197.92z"/>
			<path style="fill:#ABD150;" d="M275.09,103.67c0.12,0.91,0.06,1.8-0.17,2.67c-0.1,0.38-0.26,0.75-0.47,1.1
				c-1.81,3.01-7.4,5.1-11.51,6.46c-6,1.99-15.25,4.67-21.58,4.78c-5.37,0.06-11.25-1.23-15.55-4.52
				c-5.38-4.09-8.18-10.64-15.07-12.56c1.14-0.6,3.59-3.21,7.2-5.96c1.7-1.3,9.51-12.12,22.47-14.49
				c6.06-1.11,14.43,1.17,20.81,6.39c7.06,5.78,7.9,7.24,10.64,10.2C273.8,99.85,274.84,101.8,275.09,103.67z"/>
			<path style="fill:#ABD150;" d="M186.82,298.21c0.67,3.44-2.12,8.73-4.27,12.49c-3.15,5.48-8.26,13.65-12.9,17.94
				c-3.97,3.63-9.21,6.58-14.61,7c-6.74,0.53-13.19-2.48-19.61,0.68c0.45-1.21,0.54-4.79,1.4-9.25c0.4-2.1-0.99-15.37,7.1-25.78
				c3.78-4.86,11.53-8.74,19.77-9.1c9.11-0.4,10.72,0.13,14.73,0.51c2.85,0.28,4.93,1.05,6.36,2.28c0.7,0.59,1.25,1.29,1.65,2.1
				C186.62,297.43,186.75,297.81,186.82,298.21z"/>
			<path style="fill:#ABD150;" d="M126.15,239.65c0.67,3.44-2.12,8.73-4.27,12.49c-3.15,5.48-8.26,13.65-12.91,17.94
				c-3.96,3.63-9.2,6.58-14.6,7c-6.74,0.53-13.19-2.48-19.61,0.68c0.45-1.21,0.54-4.79,1.4-9.25c0.4-2.1-0.99-15.37,7.1-25.78
				c3.78-4.86,11.53-8.74,19.77-9.1c9.11-0.4,10.72,0.13,14.73,0.51c2.85,0.28,4.93,1.05,6.36,2.27c0.7,0.6,1.24,1.3,1.65,2.11
				C125.95,238.87,126.08,239.25,126.15,239.65z"/>
		</g>
		<g>
			<path style="fill:none;stroke:#231F20;stroke-width:21;" d="M529.99,728.07c-0.94-2.471-1.98-4.88-3.07-7.16"/>
			<path style="fill:none;stroke:#231F20;stroke-width:21;" d="M355.13,736.42c0.02,33.32,38.05,38.89,38.05,38.89
				c46.27,19.761,66.32,11.19,98.51,0.931c10.42-3.32,17.779-4.05,28.14-7.98c17.63-6.68,15.99-24.75,10.17-40.149"/>
			<path style="fill:none;stroke:#231F20;stroke-width:21;" d="M355.08,736.66c-0.16,0.78-0.31,1.58-0.46,2.41L355.08,736.66z"/>
			<path style="fill:none;stroke:#231F20;stroke-width:21;" d="M445.87,427.75l-22.34-28.46l-71.12-90.56L336.69,66.89l-27.96,19.73
				l1.22,213.52l-149.7-102.37l-18.08,19.19L297.63,339.2c0,0,4.75,7.32,12.03,18.76c0.94,1.46,1.91,3,2.92,4.59
				c23.73,37.4,67.8,108.32,72.19,126.141c8.24,33.47,7.27,66.649,7.27,101.229c0,27.061,5.72,77.96-7.27,102.19
				c-12.36,23.04-23.35,13.149-29.64,44.29c0,0,0,0.02-0.05,0.26c0.01-0.08,0.03-0.16,0.05-0.24"/>
			<path style="fill:none;stroke:#231F20;stroke-width:21;" d="M521.62,337.64c0.21,0.17,2.97,3.1-10.54,34.75
				c-17.34,40.57-29.44,70-33.96,130.09c0,0,1.21,67.789,2.09,89.6c1.23,30.68,2.71,73.89,22.21,98.75
				c10.4,13.25,19.7,19.26,25.5,30.08c1.18,2.16,2.2,4.52,3.07,7.16c0,0.01,0.01,0.029,0.01,0.04c0.16,0.51,0.32,1.029,0.48,1.569"
				/>
			<path style="fill:none;stroke:#231F20;stroke-width:21;" d="M423.53,399.29l67.01-135.19L431.22,83.28L457.91,75l70.64,168.31
				l143.46-125.89l22.96,12.97L551.88,276.97c-13.54,23.51-14.53,30.35-13.5,30.35c0.34,0,0.88-0.7,1.28-1.78"/>
			<path style="fill:none;stroke:#231F20;stroke-width:14;" d="M275.53,197.92c-0.17-1.88-1.13-3.88-2.99-6.06
				c-2.61-3.07-3.39-4.56-10.21-10.62c-6.17-5.48-14.43-8.09-20.53-7.23c-13.05,1.84-21.29,12.33-23.05,13.57
				c-3.72,2.6-6.27,5.11-7.43,5.66c6.8,2.2,9.33,8.85,14.54,13.16c4.17,3.46,9.99,4.99,15.36,5.15c6.33,0.15,15.68-2.16,21.75-3.9
				c4.16-1.2,9.85-3.06,11.76-6c0.23-0.34,0.41-0.7,0.52-1.07C275.52,199.72,275.62,198.83,275.53,197.92z"/>
			<path style="fill:none;stroke:#231F20;stroke-width:14;" d="M274.74,201.66c0,0,14.93,5.89,22.41,8.23l5.14-6.34l-5.27-0.01
				c-6.73-1.21-16.28-3.53-21.48-5.62"/>
			<path style="fill:none;stroke:#231F20;stroke-width:14;" d="M124.12,236.41c-1.43-1.22-3.51-1.99-6.36-2.27
				c-4.01-0.38-5.62-0.91-14.73-0.51c-8.24,0.36-15.99,4.24-19.77,9.1c-8.09,10.41-6.7,23.68-7.1,25.78
				c-0.86,4.46-0.95,8.04-1.4,9.25c6.42-3.16,12.87-0.15,19.61-0.68c5.4-0.42,10.64-3.37,14.6-7c4.65-4.29,9.76-12.46,12.91-17.94
				c2.15-3.76,4.94-9.05,4.27-12.49c-0.07-0.4-0.2-0.78-0.38-1.13C125.36,237.71,124.82,237.01,124.12,236.41z"/>
			<path style="fill:none;stroke:#231F20;stroke-width:14;" d="M126.15,239.65c0,0,14.83-6.17,21.82-9.69l-0.72-8.13l-3.79,3.66
				c-5.68,3.82-14.14,8.81-19.34,10.92"/>
			<path style="fill:none;stroke:#231F20;stroke-width:14;" d="M184.79,294.98c-1.43-1.23-3.51-2-6.36-2.28
				c-4.01-0.38-5.62-0.91-14.73-0.51c-8.24,0.36-15.99,4.24-19.77,9.1c-8.09,10.41-6.7,23.68-7.1,25.78
				c-0.86,4.46-0.95,8.04-1.4,9.25c6.42-3.16,12.87-0.15,19.61-0.68c5.4-0.42,10.64-3.37,14.61-7c4.64-4.29,9.75-12.46,12.9-17.94
				c2.15-3.76,4.94-9.05,4.27-12.49c-0.07-0.4-0.2-0.78-0.38-1.13C186.04,296.27,185.49,295.57,184.79,294.98z"/>
			<path style="fill:none;stroke:#231F20;stroke-width:14;" d="M186.82,298.21c0,0,18.31-4.32,35.5-9.69l-14.4-8.13l-3.79,3.66
				c-5.67,3.82-14.14,8.81-19.33,10.92"/>
			<path style="fill:none;stroke:#231F20;stroke-width:14;" d="M303.08,361.16c-1.43-1.23-3.51-2-6.36-2.28
				c-4.01-0.38-5.61-0.91-14.73-0.51c-8.24,0.36-15.99,4.24-19.76,9.1c-8.09,10.41-6.71,23.68-7.11,25.78
				c-0.86,4.46-0.94,8.04-1.39,9.25c6.41-3.16,12.86-0.15,19.6-0.68c5.4-0.42,10.65-3.37,14.61-7c4.65-4.3,9.75-12.46,12.9-17.94
				c2.16-3.76,4.94-9.05,4.27-12.49c-0.07-0.4-0.19-0.78-0.37-1.13C304.33,362.45,303.78,361.75,303.08,361.16z"/>
			<path style="fill:none;stroke:#231F20;stroke-width:14;" d="M305.12,364.39c0,0,2.89-0.68,7.46-1.84
				c6.92-1.77,17.67-4.62,28.03-7.85l-14.4-8.13l-3.79,3.66c-3.64,2.45-8.42,5.38-12.76,7.73c-2.43,1.31-4.71,2.43-6.57,3.19"/>
			<path style="fill:none;stroke:#231F20;stroke-width:14;" d="M275.09,103.67c-0.25-1.87-1.29-3.82-3.23-5.93
				c-2.74-2.96-3.58-4.42-10.64-10.2c-6.38-5.22-14.75-7.5-20.81-6.39c-12.96,2.37-20.77,13.19-22.47,14.49
				c-3.61,2.75-6.06,5.36-7.2,5.96c6.89,1.92,9.69,8.47,15.07,12.56c4.3,3.29,10.18,4.58,15.55,4.52
				c6.33-0.11,15.58-2.79,21.58-4.78c4.11-1.36,9.7-3.45,11.51-6.46c0.21-0.35,0.37-0.72,0.47-1.1
				C275.15,105.47,275.21,104.58,275.09,103.67z"/>
			<path style="fill:none;stroke:#231F20;stroke-width:14;" d="M274.45,107.44c0,0,15.16,5.29,22.73,7.32l4.87-6.54l-5.26,0.2
				c-6.77-0.94-16.41-2.86-21.69-4.75"/>
			<path style="fill:none;stroke:#231F20;stroke-width:14;" d="M381.66,216.66c0.69,1.76,2.18,3.41,4.57,4.97
				c3.37,2.22,4.54,3.43,12.79,7.33c7.46,3.52,16.12,3.7,21.73,1.15c12.01-5.43,16.97-17.82,18.3-19.49
				c2.84-3.55,4.58-6.68,5.55-7.53c-7.159-0.2-11.449-5.87-17.659-8.54c-4.97-2.15-10.99-1.98-16.19-0.62
				c-6.11,1.63-14.44,6.48-19.78,9.86c-3.65,2.32-8.58,5.7-9.6,9.06c-0.12,0.39-0.19,0.79-0.19,1.18
				C381.16,214.93,381.32,215.81,381.66,216.66z"/>
			<path style="fill:none;stroke:#231F20;stroke-width:14;" d="M381.37,212.85c0,0-15.99-1.46-23.83-1.6l-3.14,7.52l5.05-1.46
				c6.81-0.74,16.62-1.2,22.2-0.65"/>
			<path style="fill:none;stroke:#231F20;stroke-width:14;" d="M509.37,124.29c1.29,1.38,3.27,2.37,6.08,2.94
				c3.95,0.82,5.47,1.52,14.58,2.11c8.229,0.53,16.359-2.49,20.64-6.93c9.16-9.47,9.22-22.81,9.84-24.85
				c1.33-4.35,1.8-7.9,2.391-9.05c-6.73,2.45-12.811-1.24-19.57-1.44c-5.41-0.16-10.94,2.2-15.271,5.38
				c-5.09,3.77-11.05,11.34-14.77,16.45c-2.54,3.5-5.88,8.46-5.6,11.95c0.029,0.41,0.119,0.81,0.26,1.17
				C508.27,122.87,508.74,123.62,509.37,124.29z"/>
			<path style="fill:none;stroke:#231F20;stroke-width:14;" d="M507.7,120.85c0,0,0,0-0.01,0c-0.54,0.16-15.54,4.58-22.74,7.28
				l-0.15,8.16l4.16-3.22c6.05-3.19,15.01-7.24,20.4-8.77"/>
			<path style="fill:none;stroke:#231F20;stroke-width:14;" d="M705.76,164.6c-0.43,1.84-0.16,4.04,0.91,6.7
				c1.49,3.74,1.75,5.4,6.28,13.32c4.1,7.15,11.1,12.26,17.16,13.4c12.949,2.41,24.109-4.9,26.159-5.51c4.36-1.28,7.58-2.85,8.86-3
				c-5.75-4.26-6.02-11.37-9.59-17.11c-2.85-4.61-7.87-7.91-12.9-9.77c-5.96-2.16-15.55-2.96-21.88-3.25
				c-4.319-0.19-10.29-0.24-13.05,1.93c-0.32,0.26-0.6,0.54-0.83,0.86C706.35,162.9,705.97,163.71,705.76,164.6z"/>
			<path style="fill:none;stroke:#231F20;stroke-width:14;" d="M707.71,161.31c0,0-12.28-10.35-18.62-14.96l-6.89,4.38l4.979,1.69
				c6,3.29,14.32,8.53,18.57,12.18"/>
			<path style="fill:none;stroke:#231F20;stroke-width:14;" d="M442.46,307.9c0.95-1.64,1.33-3.82,1.09-6.68
				c-0.34-4.01-0.1-5.68-2.109-14.57c-1.83-8.04-7.04-14.98-12.511-17.83c-11.67-6.1-24.479-2.36-26.62-2.38
				c-4.54-0.05-8.08,0.51-9.35,0.28c4.26,5.75,2.44,12.63,4.17,19.17c1.38,5.24,5.22,9.86,9.49,13.11c5.06,3.81,14,7.37,19.97,9.5
				c4.07,1.44,9.771,3.24,13.05,1.97c0.38-0.15,0.73-0.34,1.04-0.58C441.4,309.34,442,308.68,442.46,307.9z"/>
			<path style="fill:none;stroke:#231F20;stroke-width:14;" d="M439.63,310.46c0,0,0,0,0.01,0.01
				c0.271,0.42,8.801,13.59,13.44,19.75l3.59-5.25c-4.78-4.89-11.2-12.34-14.2-17.07"/>
			<line style="fill:none;stroke:#231F20;stroke-width:14;" x1="521.39" y1="337.67" x2="520.24" y2="337.78"/>
			<line style="fill:none;stroke:#231F20;stroke-width:21;" x1="521.62" y1="337.64" x2="521.61" y2="337.64"/>
			<path style="fill:none;stroke:#231F20;stroke-width:14;" d="M521.61,337.64l-0.221,0.03c-0.39,0.05-0.779,0.09-1.149,0.11
				c-0.01,0-0.021,0.01-0.03,0c-19.46,1.34-16.21-27.91,1.36-27.59c6.81,0.13,10.8,0.2,16.8,0.22c14.49,0.06,40.64-0.23,146.08-0.95
				l1.66,12.18l-65.601,6.38l-5.34,0.52l-93.55,9.1"/>
			<path style="fill:none;stroke:#231F20;stroke-width:14;" d="M662.92,282.79c-1.51-1.14-2.689-3.01-3.54-5.74
				c-1.21-3.85-2.06-5.3-3.57-14.31c-1.35-8.13,0.82-16.52,4.801-21.22c8.52-10.07,21.77-11.47,23.739-12.3
				c4.19-1.77,7.681-2.59,8.761-3.29c-1.75,6.94,2.529,12.61,3.409,19.32c0.7,5.37-1.09,11.11-3.819,15.74
				c-3.24,5.44-10.16,12.13-14.87,16.35c-3.23,2.88-7.83,6.7-11.33,6.78c-0.41,0-0.8-0.04-1.18-0.14
				C664.45,283.75,663.64,283.36,662.92,282.79z"/>
			<path style="fill:none;stroke:#231F20;stroke-width:14;" d="M666.5,284.11c0,0,0,0,0,0.01c-0.09,0.47-2.99,15.9-4.95,23.35
				l-8.1,0.98l2.79-4.46c2.55-6.35,5.68-15.67,6.67-21.19"/>
			<path style="fill:none;stroke:#231F20;stroke-width:14;" d="M623.42,352.14c1.85,0.38,3.72,1.56,5.68,3.65
				c2.761,2.95,4.15,3.9,9.4,11.35c4.74,6.75,6.41,15.26,4.85,21.22c-3.3,12.76-14.649,19.76-16.069,21.36
				c-3.021,3.4-5.8,5.66-6.48,6.75c-1.42-7.01-7.74-10.28-11.42-15.94c-2.97-4.54-3.84-10.49-3.38-15.84
				c0.56-6.31,3.91-15.33,6.33-21.18c1.66-3.99,4.15-9.42,7.29-11.01c0.37-0.19,0.74-0.32,1.13-0.39
				C621.64,351.94,622.52,351.95,623.42,352.14z"/>
			<path style="fill:none;stroke:#231F20;stroke-width:14;" d="M619.62,352.5c0,0-4.17-15.5-5.64-23.2l1.189-0.76l5.68-3.62
				l-0.34,3.1l-0.24,2.13c0.44,6.83,1.66,16.58,3.15,21.98"/>
			<polyline style="fill:none;stroke:#231F20;stroke-width:14;" points="663.21,623.14 672.28,504.01 682.71,715.87 			"/>
			<polyline style="fill:none;stroke:#231F20;stroke-width:14;" points="691.75,722.42 689.78,607.99 699.12,483.38 707.59,658.57 
							"/>
			<polyline style="fill:none;stroke:#231F20;stroke-width:13.5937;" points="687.25,740.65 659.54,741.97 659.06,741.99 			"/>
			<path style="fill:none;stroke:#231F20;stroke-width:14;" d="M645.15,683.87c-2.391-30.49-4.62-63.9-8.04-94.29
				c-2.091-18.64-7.271-37.89-16.551-54.29c-6.13-10.81-19.159-34.44-33.27-35.98c13.21-3.119,28.85,9.5,40.24,22.95
				c7.34,8.67,17.2,25.11,24.489,47.66l11.19,53.22l19.5,92.73v0.04l2.43,11.53l2.45,11.859v0.021"/>
			<path style="fill:none;stroke:#231F20;stroke-width:14;" d="M659.54,741.97l0.15,0.601l-29.931,2.8
				c-3.819-39.2-5.88-78.94-10.3-118.28c-1.75-15.609-6.09-37.89-13.86-51.62c-5.13-9.06-16.04-22.689-27.869-23.979
				c11.06-2.62,29.02,11.569,34.67,20.79c11.25,18.38,12.369,30.14,15.979,43.95l16.76,67.64L659.54,741.97z"/>
			<path style="fill:none;stroke:#231F20;stroke-width:14;" d="M687.25,740.65l29.93,2.8c3.83-39.19,5.88-78.94,10.301-118.271
				c1.76-15.62,6.09-37.89,13.869-51.62c5.12-9.06,16.04-22.699,27.851-23.989c-11.061-2.61-29.021,11.58-34.65,20.79
				c-11.25,18.39-12.37,30.149-15.99,43.96l-10.97,44.25l-15.82,63.85l-4.18,16.88L687.25,740.65z"/>
		</g>
	</g>
</g>
<rect style="fill:none;" width="850.394" height="850.394"/>
</svg>
