<svg xmlns="http://www.w3.org/2000/svg" width="850.394" height="850.394" viewBox="0 0 850.394 850.394" overflow="visible"><path d="M216.57 513.75c20.31.78 26.78 15.92 42.12 26.66 15.58 10.92 41.58 21.32 82.09 16.53l9.6-1.07c56.45-3.71 87.01-17.29 100.23-17.64 25.6-.671 50.56 1.81 72.97 5.779 4.9 10.71 7.52 22.021 7.52 33.721 0 67.13-86.399 121.55-192.979 121.55s-192.99-54.42-192.99-121.55c0-23.811 10.87-46.011 29.63-64.761 13.349 5.061 24.769.141 41.809.781z" fill="#a9d7f3"/><path d="M733.58 538.57l-1.37 2.55c-23.47 17.78-45.04-13.29-55.06-29.46-28.931-46.68-57.471-66-76.301-74.37 25.761 5.74 42.24 7.979 69.29 18.96l-.37.92 31.761 44.76c5.66 6.06 16.93 25.24 32.05 36.64z" fill="#ffeec8"/><path d="M492.28 452.83c1.239 1.86 2.67 3.49 4.33 4.77 13.92 10.811 32.72 17.83 49.39 19.61 41.5 4.43 75.15 37.05 74.11 65.06-1.04 27.511-21.48 21.23-53.641 11.771-12.569-3.69-27.09-7.23-42.89-10.03-22.41-3.97-47.37-6.45-72.97-5.779-13.221.35-43.78 13.93-100.23 17.64l-9.6 1.07c-40.51 4.79-66.51-5.61-82.09-16.53-15.34-10.74-21.81-25.88-42.12-26.66-17.04-.64-28.46 4.28-41.81-.78-3.64-1.38-7.42-3.5-11.5-6.68-15.35-11.97-18.09-22.76-27.5-45.33-2.43-7.29-4.46-15.1-6.09-23.44 0 0-17.59-94.359-52.78-185.529l207.92-118.35c12.79 104.49 38.91 178.06 38.91 178.06 4.35 16.54 9.15 25.18 14.36 29.35 7.54 6.04 15.94 2.72 25.09.51 26.46-6.39 60.08-17.68 86.11-19.45 20.16-1.37 44.029-6.08 64.01-1.81 16.13 3.46 163.92 70.2 191.27 93.12 8.681 7.26 44.921 54.16 49.73 73.5.87 3.5.71 6.1-.83 7.4-40.22 33.88-67.88-31.78-83.02-37.95l-.301-.12c-27.05-10.98-43.529-13.22-69.29-18.96h-.01c-3.35-.74-6.85-1.55-10.56-2.44-32.19-7.72-63.38 1.11-92.2 16.681l-5.798 1.296z" fill="#ffeec8"/><path d="M755.22 486.67c23.011 33.94 29.221 47.01 24.511 50.98-17.471 14.71-33.221 10.659-46.15.92-15.12-11.4-26.39-30.58-32.05-36.641l-31.761-44.76.37-.92.301.12c15.14 6.17 42.8 71.83 83.02 37.95 1.54-1.301 1.7-3.9.83-7.4l.929-.249z" fill="#ffeec8"/><g fill="none" stroke="#231f20" stroke-width="21"><path d="M135.89 461.37c-.05-.14-.09-.271-.13-.41-2.43-7.29-4.46-15.1-6.09-23.44 0 0-17.59-94.359-52.78-185.529M600.85 437.29c25.761 5.74 42.24 7.979 69.29 18.96l.301.12c15.14 6.17 42.8 71.83 83.02 37.95 1.54-1.301 1.7-3.9.83-7.4-4.81-19.34-41.05-66.24-49.73-73.5-27.35-22.92-175.14-89.66-191.27-93.12-19.98-4.27-43.85.44-64.01 1.81-26.03 1.77-59.65 13.06-86.11 19.45-9.15 2.21-17.55 5.53-25.09-.51-5.21-4.17-10.01-12.81-14.36-29.35 0 0-26.12-73.57-38.91-178.06"/><path d="M498.08 451.53c28.82-15.57 60.01-24.4 92.2-16.681 3.71.891 7.21 1.7 10.56 2.44M755.22 486.67c23.011 33.94 29.221 47.01 24.511 50.98-17.471 14.71-33.221 10.659-46.15.92-15.12-11.4-26.39-30.58-32.05-36.641l-31.761-44.76M732.21 541.12c-23.47 17.78-45.04-13.29-55.06-29.46-28.931-46.68-57.471-66-76.301-74.37h-.01M304 447.11s48.49-26.59 34.08-106.061c-.15-.89-.32-1.79-.5-2.69"/><path d="M135.54 460.44c.07.17.15.35.22.52 9.41 22.57 12.15 33.36 27.5 45.33 4.08 3.18 7.86 5.3 11.5 6.68 13.35 5.061 24.77.141 41.81.78 20.31.78 26.78 15.92 42.12 26.66 15.58 10.92 41.58 21.32 82.09 16.53l9.6-1.07c56.45-3.71 87.01-17.29 100.23-17.64 25.6-.671 50.56 1.81 72.97 5.779 15.8 2.8 30.32 6.34 42.89 10.03 32.16 9.46 52.601 15.74 53.641-11.771 1.04-28.01-32.61-60.63-74.11-65.06-16.67-1.78-35.47-8.8-49.39-19.61-1.66-1.279-3.091-2.909-4.33-4.77-6.721-10.07-8.15-27.23-12.24-36.74"/><path d="M523.5 543.82c.03.06.06.13.08.189 4.9 10.71 7.52 22.021 7.52 33.721 0 67.13-86.399 121.55-192.979 121.55s-192.99-54.42-192.99-121.55c0-23.811 10.87-46.011 29.63-64.761.61-.609 1.24-1.22 1.87-1.83M228.3 521.22s-43.72 31.99-3.2 88.49"/></g><path fill="none" d="M0 0h850.394v850.394H0z"/></svg>