<?xml version="1.0" encoding="iso-8859-1"?>
<!-- Generator: Adobe Illustrator 12.0.1, SVG Export Plug-In . SVG Version: 6.00 Build 51448)  -->
<!DOCTYPE svg PUBLIC "-//W3C//DTD SVG 1.1//EN" "http://www.w3.org/Graphics/SVG/1.1/DTD/svg11.dtd" [
	<!ENTITY ns_svg "http://www.w3.org/2000/svg">
	<!ENTITY ns_xlink "http://www.w3.org/1999/xlink">
]>
<svg  version="1.1" id="Layer_1" xmlns="&ns_svg;" xmlns:xlink="&ns_xlink;" width="850.394" height="850.394"
	 viewBox="0 0 850.394 850.394" style="overflow:visible;enable-background:new 0 0 850.394 850.394;" xml:space="preserve">
<g id="XMLID_7_">
	<g>
		<path style="fill:#9C5C25;" d="M490.07,740.82l2.85,16.42l-31.99,1.14c0,0-0.699-6.32,0.11-20.05c0.22-3.71,0.55-7.96,1.03-12.771
			c2.27-22.64-5.391-87.729-17.261-99.609l-1.779-2.05l43.14-37.41l1.09,1.26L490.07,740.82z"/>
		<path style="fill:#9C5C25;" d="M740.73,744.73l1.59,16.579l-30.971-0.67c0,0-0.369-10.229,3.591-32.64
			c3.92-22.23,0.43-77.32-7.351-92.59c0.9-8.41,1.74-17.69,2.07-25.58c0.5-12.1,1.6-33.17,6.149-53.811l4.03,0.33
			c7.36,6.221,22.36,17.131,22.36,17.131L740.73,744.73z"/>
		<path style="fill:#231F20;" d="M244.71,342.64c4.94,7.21-4.49,13.95-8.84,17.68l-4.86,0.61c-3.93-4.68-6.51-9.95-6.38-16.16
			l4.61,0.08C235.37,343.04,239.76,335.39,244.71,342.64z"/>
		<path style="fill:#9C5C25;" d="M707.59,635.41c-1.439,13.33-3.03,24.5-3.03,24.5l-32.47,84.88l2.11,27.74h-31.33
			c0,0,0-33.96,11.33-69.04c11.319-35.09,20.37-66.221,14.71-99.04c-5.94-34.49-8.11-38.521-19.3-74.391
			c-37.82,13.46-113.69,13.271-113.69,13.271l-49.75,43.16l-43.14,37.41l-1.04,0.909c0,0-8.49,93.95-6.8,93.95
			c1.699,0,20.369,19.24,20.369,19.24l-26.38,32.5c0,0-25.58-33.19-27.41-66.45c-2.26-41.31-3.96-84.88,7.36-103.56l27.44-48.601
			c-16.83-3.55-68.021-16.25-82.98-42.14c-41.34-71.55-50.82-146.94-50.82-146.94l-0.02-2.03c-4.64,0.01-9.63,0.44-14.56,1.61
			c-17.82,4.24-29.99,20.59-44.84,9.56c-4.55-3.38-8.95-6.98-12.34-11.02l4.86-0.61c4.35-3.73,13.78-10.47,8.84-17.68
			c-4.95-7.25-9.34,0.4-15.47,2.21l-4.61-0.08c0.11-5.91,2.66-12.67,8.82-20.59c0,0,15.74-23.43,32.5-42.99
			c6.75-7.87,13.67-15.12,19.79-19.96c3.95-3.12,7.57-5.24,10.6-5.88c24.2-5.1,44.48,17.06,44.48,17.06l1.62,4.51
			c-0.04-8.52,10.98-25.82,39.52-34.61c28.55-8.8,32.15-6.33,21.44,21.22c-8.54,21.95-29.78,31.87-38.05,34.99l5.6,0.2
			c0,0,29.72,40.32,65.37,50.51c35.66,10.18,150.239-1.7,203.72,8.49c53.49,10.18,117.14,50.92,117.14,73
			c0,22.061-8.479,60.261-26.3,86.59c-7.25,10.681-11.97,24.601-15.07,38.71c-4.55,20.641-5.649,41.711-6.149,53.811
			C709.33,617.72,708.49,627,707.59,635.41z M321.55,307.08c5.83-1.28,7.63-6.69,4.31-11.46c-3.78-5.43-10.06-4.99-15.39-2.83
			c-2.91,1.19-15.95,12.23-16.96,13.93l1.42-1.14c2.11,0,4.23,0,6.28,0.22C307.87,306.54,314.8,308.57,321.55,307.08z"/>
		<path style="fill:#231F20;" d="M293.51,306.72c1.01-1.7,14.05-12.74,16.96-13.93c5.33-2.16,11.61-2.6,15.39,2.83
			c3.32,4.77,1.52,10.18-4.31,11.46c-6.75,1.49-13.68-0.54-20.34-1.28c-2.05-0.22-4.17-0.22-6.28-0.22L293.51,306.72z"/>
	</g>
	<g>
		<path style="fill:none;stroke:#231F20;stroke-width:21;" d="M370.95,298.72c0,0,29.72,40.32,65.37,50.51
			c35.66,10.18,150.239-1.7,203.72,8.49c53.49,10.18,117.14,50.92,117.14,73c0,22.061-8.479,60.261-26.3,86.59
			c-7.25,10.681-11.97,24.601-15.07,38.71c-4.55,20.641-5.649,41.711-6.149,53.811c-0.33,7.89-1.17,17.17-2.07,25.58
			c-1.439,13.33-3.03,24.5-3.03,24.5l-32.47,84.88l2.11,27.74h-31.33c0,0,0-33.96,11.33-69.04
			c11.319-35.09,20.37-66.221,14.71-99.04c-5.94-34.49-8.11-38.521-19.3-74.391c-0.87-2.779-1.79-5.76-2.771-8.949"/>
		<path style="fill:none;stroke:#231F20;stroke-width:21;" d="M655.54,527.7c-1.85,0.83-3.83,1.62-5.93,2.359
			c-37.82,13.46-113.69,13.271-113.69,13.271l-49.75,43.16l-43.14,37.41l-1.04,0.909c0,0-8.49,93.95-6.8,93.95
			c1.699,0,20.369,19.24,20.369,19.24l-26.38,32.5c0,0-25.58-33.19-27.41-66.45c-2.26-41.31-3.96-84.88,7.36-103.56l27.44-48.601
			l20.97-37.14"/>
		<path style="fill:none;stroke:#231F20;stroke-width:21;" d="M719.84,556.35c7.36,6.221,22.36,17.131,22.36,17.131l-1.47,171.25
			l1.59,16.579l-30.971-0.67c0,0-0.369-10.229,3.591-32.64c3.92-22.23,0.43-77.32-7.351-92.59c-0.07-0.13-0.14-0.26-0.21-0.391"/>
		<path style="fill:none;stroke:#231F20;stroke-width:21;" d="M487.26,587.75l2.811,153.07l2.85,16.42l-31.99,1.14
			c0,0-0.699-6.32,0.11-20.05c0.22-3.71,0.55-7.96,1.03-12.771c2.27-22.64-5.391-87.729-17.261-99.609"/>
		<path style="fill:none;stroke:#231F20;stroke-width:21;" d="M302.77,362.81c0,0,9.48,75.39,50.82,146.94
			c14.96,25.89,66.15,38.59,82.98,42.14c3.42,0.721,5.42,1.061,5.42,1.061"/>
		<path style="fill:none;stroke:#231F20;stroke-width:21;" d="M284.2,259.05c0,0-3.38-11.04-12.15-21.66
			c-5.92-7.17-14.31-14.14-25.77-17.39c-12.78-3.63-20.25-4.85-23.55-2.59c-1.58,1.07-2.21,2.94-2.01,5.73
			c0.3,4.35,2.62,10.93,6.47,20.2c10.98,26.46,28.21,36.13,37.1,36.13c0.38,0,0.74-0.02,1.09-0.05"/>
		<path style="fill:none;stroke:#231F20;stroke-width:21;" d="M361.97,299.67c0,0,1.27-0.35,3.38-1.15
			c8.27-3.12,29.51-13.04,38.05-34.99c10.71-27.55,7.11-30.02-21.44-21.22c-28.54,8.79-39.56,26.09-39.52,34.61l-1.62-4.51
			c0,0-20.28-22.16-44.48-17.06c-3.03,0.64-6.65,2.76-10.6,5.88c-6.12,4.84-13.04,12.09-19.79,19.96
			c-16.76,19.56-32.5,42.99-32.5,42.99c-6.16,7.92-8.71,14.68-8.82,20.59c-0.13,6.21,2.45,11.48,6.38,16.16
			c3.39,4.04,7.79,7.64,12.34,11.02c14.85,11.03,27.02-5.32,44.84-9.56c4.93-1.17,9.92-1.6,14.56-1.61
			c12.16-0.01,21.95,2.88,21.95,2.88"/>
		<path style="fill:none;stroke:#231F20;stroke-width:14;stroke-linecap:round;stroke-linejoin:round;" d="M293.51,306.72
			c1.01-1.7,14.05-12.74,16.96-13.93c5.33-2.16,11.61-2.6,15.39,2.83c3.32,4.77,1.52,10.18-4.31,11.46
			c-6.75,1.49-13.68-0.54-20.34-1.28c-2.05-0.22-4.17-0.22-6.28-0.22"/>
		<path style="fill:none;stroke:#231F20;stroke-width:21;stroke-linecap:round;" d="M119.56,84.46c0,0-17.5,79.5,30.2,62.01
			c47.71-17.49,50.88-58.83,50.88-58.83"/>
		<path style="fill:none;stroke:#231F20;stroke-width:21;stroke-linecap:round;" d="M87.75,112.29c0,0,19.09,47.7,73.14,83.47
			c19.07,12.62,40.12,21.09,59.83,27.38c4.64,1.49,9.2,2.85,13.64,4.12c14.23,4.05,27.27,7.15,37.69,10.13
			c9.58,2.75,16.95,5.4,21,8.61c0.9,0.71,1.64,1.45,2.2,2.23"/>
		<path style="fill:none;stroke:#231F20;stroke-width:21;stroke-linecap:round;" d="M199.85,171.91c0,0,7.49,27.97,22.88,45.5
			c3.47,3.97,7.34,7.4,11.63,9.85c0.67,0.39,1.36,0.75,2.06,1.09"/>
		<path style="fill:none;stroke:#231F20;stroke-width:21;stroke-linecap:round;" d="M277.76,176.68
			c19.23,7.96,19.85,53.68,15.29,69.32c-0.06,0.22-0.12,0.43-0.19,0.64"/>
		<path style="fill:none;stroke:#231F20;stroke-width:21;stroke-linecap:round;" d="M492.07,83.18c0,0,20.149,78.87-28.12,62.98
			c-48.24-15.88-52.81-57.1-52.81-57.1"/>
		<path style="fill:none;stroke:#231F20;stroke-width:21;stroke-linecap:round;" d="M524.79,109.92c0,0-17.47,48.31-70.31,85.88
			c-23.011,16.36-49.23,26.48-72.331,33.92c-27.07,8.71-49.84,13.72-58.07,20.71c-0.88,0.74-1.59,1.5-2.12,2.3"/>
		<path style="fill:none;stroke:#231F20;stroke-width:21;stroke-linecap:round;" d="M414.75,173.26c0,0-9.84,42.34-32.6,56.46
			c-0.67,0.42-1.36,0.81-2.06,1.18"/>
		<path style="fill:none;stroke:#231F20;stroke-width:21;stroke-linecap:round;" d="M337.05,180.64
			c-18.96,8.59-18.05,54.32-12.97,69.79c0.07,0.22,0.14,0.43,0.21,0.63"/>
		<path style="fill:none;stroke:#231F20;stroke-width:14;stroke-linecap:round;" d="M229.24,344.85c6.13-1.81,10.52-9.46,15.47-2.21
			c4.94,7.21-4.49,13.95-8.84,17.68"/>
	</g>
</g>
<rect style="fill:none;" width="850.394" height="850.394"/>
</svg>
