<svg xmlns="http://www.w3.org/2000/svg" width="850.394" height="850.394" viewBox="0 0 850.394 850.394" overflow="visible"><path d="M770.68 355.67c28.29 9.43 38.2 33.75-6.859 52.3-46.36 19.089-151.79 53.9-193.07 67.37 0 0-18.3 3.8-14.87 16.24 3.43 12.43 33.01 103.33 54.45 167.63 8.35 25.07 15.43 62.6-3.43 69.46-35.24 12.82-55.761-15.02-103.761-82.32-55.439-77.739-72.67-96.25-79.53-96.25l-.85-.43c-14.8-3-37.95 21.22-97.9 90.25-54.2 62.4-75.34 89.811-109.55 74.43-18.3-8.229-8.47-45.149 1.71-69.52 26.13-62.55 62.33-151.021 66.67-163.16 4.34-12.15-13.63-17.3-13.63-17.3-40.17-16.48-142.75-58.97-187.57-81.43-43.56-21.82-31.89-45.35-2.98-52.67 28.92-7.31 156.22 9.42 219.34 16.24 44.54 4.81 45.26 4.21 45.26 4.21 8.6-29.03 26.02-90.08 39.22-140.69 13.21-50.61 17.99-99.17 49.3-96.95l1.92-.08c31.72-.86 32.58 48.88 42.01 100.33 5.171 28.15 11.351 59.51 16.95 86.98-1.939-2.25-5.08-3.66-8.59-3.56-5.72.17-10.229 4.31-10.1 9.26.16 4.94 4.91 8.81 10.63 8.64 4.6-.14 8.42-2.85 9.67-6.48 1.68 8.2 3.3 15.98 4.79 23.11-1.891-2.5-5.22-4.12-8.96-4.01-5.73.17-10.24 4.31-10.101 9.25.141 4.95 4.9 8.82 10.631 8.65 4.859-.15 8.869-3.18 9.859-7.13 1.48 7.02 2.82 13.27 3.95 18.49 0 0 .67.65 45.45-.86 63.451-2.15 191.641-9.43 219.941 0zm-3.91 31.47c.011-5.72-3.989-10.37-8.93-10.38-4.939-.01-8.96 4.62-8.97 10.34-.01 5.73 3.99 10.38 8.93 10.39 4.94.01 8.96-4.63 8.97-10.35zm-27.73-8.31c.01-5.72-3.99-10.37-8.92-10.38-4.95-.01-8.97 4.62-8.97 10.35-.021 5.72 3.97 10.37 8.93 10.38 4.94.01 8.95-4.62 8.96-10.35zm-14.12 28.11c.01-5.73-4-10.37-8.93-10.38-4.95-.01-8.971 4.62-8.98 10.35-.01 5.72 3.99 10.37 8.94 10.38 4.93.01 8.95-4.63 8.97-10.35zm-24.04-22.93c4.92-.4 8.54-5.34 8.08-11.05s-4.83-10.01-9.75-9.61c-4.93.4-8.55 5.34-8.1 11.05.46 5.71 4.83 10 9.77 9.61zm-13.64 23.69c4.93-.4 8.54-5.35 8.09-11.05-.46-5.71-4.83-10.01-9.75-9.61-4.94.39-8.55 5.34-8.1 11.04.46 5.71 4.83 10.01 9.76 9.62zm-9.08 12.61c0-5.72-4-10.37-8.94-10.38-4.939-.01-8.96 4.63-8.97 10.35-.01 5.72 3.99 10.371 8.93 10.38 4.95.01 8.96-4.62 8.98-10.35zm-10.71-37.17c4.91-.39 8.53-5.34 8.069-11.05-.449-5.7-4.829-10.01-9.739-9.62-4.931.4-8.561 5.35-8.09 11.06.45 5.7 4.83 10.01 9.76 9.61zm-13.48 16.35c.021-5.73-3.989-10.37-8.93-10.38-4.94-.01-8.96 4.62-8.97 10.35-.021 5.71 3.989 10.37 8.93 10.38 4.94.01 8.96-4.63 8.97-10.35zm-16.64 37.19c4.93-.399 8.56-5.35 8.1-11.05-.47-5.71-4.83-10.01-9.76-9.61-4.92.39-8.55 5.33-8.08 11.04.45 5.71 4.82 10.01 9.74 9.62zm-7.2-56.94c4.92-.39 8.55-5.34 8.08-11.04-.45-5.71-4.83-10.01-9.75-9.62-4.93.4-8.54 5.35-8.09 11.06.46 5.7 4.83 10 9.76 9.6zm-6.85 24.81c.01-5.73-3.99-10.38-8.931-10.39-4.939-.01-8.96 4.63-8.979 10.36-.01 5.71 4 10.36 8.939 10.37 4.941.01 8.961-4.62 8.971-10.34zm-16.13 39.69c4.939-.4 8.56-5.351 8.1-11.05-.46-5.71-4.83-10.01-9.75-9.61-4.93.4-8.55 5.34-8.09 11.05.45 5.7 4.82 10.01 9.74 9.61zm1.01-62c.76-5.67-2.601-10.81-7.5-11.46-4.9-.65-9.49 3.42-10.24 9.09-.76 5.67 2.6 10.81 7.5 11.46 4.9.66 9.48-3.42 10.24-9.09zm-9.19 336.14c5.32-2.13 8.13-7.58 6.3-12.16-1.84-4.6-7.64-6.58-12.96-4.45-5.31 2.131-8.13 7.58-6.279 12.16 1.839 4.58 7.629 6.58 12.939 4.45zm-2.67-28.82c5.32-2.13 8.13-7.579 6.3-12.159-1.84-4.601-7.64-6.58-12.96-4.45-5.3 2.13-8.12 7.569-6.279 12.16 1.849 4.589 7.639 6.579 12.939 4.449zm-5.79-30.09c5.12-2.569 7.48-8.229 5.271-12.649s-8.16-5.931-13.28-3.36c-5.12 2.54-7.47 8.21-5.26 12.63s8.159 5.939 13.269 3.379zm-.2-249.96c0-5.73-4-10.37-8.93-10.38-4.95-.01-8.97 4.62-8.979 10.35 0 5.72 3.989 10.37 8.939 10.38 4.94.01 8.95-4.63 8.97-10.35zM578.8 628.13c5.141-2.56 7.48-8.22 5.271-12.63-2.21-4.44-8.15-5.94-13.261-3.38-5.119 2.56-7.479 8.229-5.27 12.649 2.2 4.411 8.16 5.921 13.26 3.361zm-4.09-176.24c4.92-.39 8.55-5.35 8.09-11.05-.47-5.7-4.83-10.01-9.76-9.609-4.93.399-8.54 5.35-8.09 11.05.46 5.709 4.83 9.999 9.76 9.609zm2.36-68.63c.76-5.68-2.61-10.81-7.5-11.46-4.9-.66-9.49 3.42-10.25 9.09-.75 5.67 2.609 10.8 7.51 11.45 4.89.66 9.49-3.41 10.24-9.08zm-9.07 209c5.12-2.569 7.48-8.22 5.27-12.64-2.21-4.42-8.159-5.94-13.279-3.37-5.11 2.55-7.471 8.22-5.26 12.64 2.209 4.42 8.159 5.92 13.269 3.37zm-3.04 94.7c5.32-2.13 8.12-7.57 6.29-12.16-1.84-4.59-7.64-6.58-12.96-4.45-5.3 2.131-8.12 7.58-6.28 12.16 1.85 4.6 7.63 6.58 12.95 4.45zm-1.52-31.28c5.13-2.56 7.489-8.229 5.27-12.649-2.21-4.42-8.15-5.92-13.29-3.36-5.1 2.561-7.46 8.21-5.25 12.63s8.15 5.939 13.27 3.379zm-3.83-241.11c.01-5.73-3.99-10.38-8.931-10.39-4.939 0-8.96 4.63-8.97 10.35 0 5.73 3.99 10.37 8.93 10.38 4.941.01 8.961-4.62 8.971-10.34zm-15.07 44.88c4.92-.391 8.55-5.351 8.08-11.04-.46-5.71-4.83-10.01-9.75-9.62-4.93.4-8.55 5.35-8.09 11.07.45 5.69 4.82 9.99 9.76 9.59zm-.34 110c5.56-1.42 9.05-6.46 7.819-11.24-1.229-4.8-6.71-7.53-12.27-6.1-5.54 1.42-9.03 6.439-7.81 11.239 1.231 4.781 6.721 7.521 12.261 6.101zm1.14 48.94c5.3-2.13 8.13-7.58 6.29-12.159-1.84-4.601-7.63-6.601-12.95-4.45-5.319 2.13-8.14 7.569-6.29 12.16 1.84 4.589 7.64 6.579 12.95 4.449zm5.38-132.03c2.21-4.42-.149-10.091-5.26-12.65-5.13-2.56-11.07-1.04-13.28 3.36-2.21 4.43.15 10.09 5.261 12.649 5.119 2.561 11.069 1.061 13.279-3.359zm-6.99-102.48c.75-5.67-2.61-10.8-7.5-11.46-4.9-.65-9.49 3.42-10.25 9.1-.761 5.67 2.609 10.8 7.51 11.45 4.89.66 9.49-3.41 10.24-9.09zm-8.66 264.72c5.31-2.13 8.13-7.58 6.29-12.159-1.851-4.601-7.641-6.58-12.96-4.45-5.311 2.13-8.12 7.569-6.28 12.17 1.84 4.579 7.64 6.569 12.95 4.439zM531.63 541c5.55-1.42 9.04-6.46 7.82-11.24-1.23-4.8-6.72-7.529-12.26-6.109s-9.051 6.449-7.82 11.25c1.23 4.779 6.72 7.519 12.26 6.099zm-2.46 50.81c5.32-2.13 8.13-7.579 6.29-12.17-1.84-4.58-7.64-6.569-12.96-4.439-5.31 2.13-8.12 7.58-6.28 12.16s7.64 6.579 12.95 4.449zm-10.59-81.51c5.55-1.42 9.04-6.439 7.82-11.24-1.23-4.779-6.721-7.52-12.261-6.1s-9.05 6.46-7.819 11.25c1.23 4.79 6.72 7.51 12.26 6.09zm-.67 109.94c5.12-2.57 7.479-8.23 5.26-12.65-2.21-4.42-8.15-5.93-13.28-3.359-5.109 2.539-7.47 8.21-5.26 12.63 2.21 4.429 8.15 5.939 13.28 3.379zm-5.67-57.16c5.31-2.13 8.12-7.57 6.29-12.16-1.84-4.59-7.641-6.57-12.96-4.46-5.32 2.14-8.12 7.59-6.28 12.18 1.83 4.59 7.63 6.57 12.95 4.44zm6.34-121.38c.5-4.9-3.7-9.37-9.39-9.96-5.7-.601-10.721 2.91-11.23 7.83-.5 4.91 3.68 9.38 9.38 9.979 5.68.571 10.73-2.929 11.24-7.849zm-1.93-31.05c.51-4.91-3.7-9.38-9.381-9.96-5.71-.59-10.72 2.92-11.239 7.82-.511 4.92 3.7 9.39 9.39 9.98 5.69.59 10.72-2.92 11.23-7.84zm-10.64 71.21c5.55-1.42 9.05-6.46 7.82-11.24-1.23-4.8-6.72-7.53-12.271-6.11-5.529 1.42-9.04 6.45-7.81 11.25 1.221 4.78 6.721 7.52 12.261 6.1zm6.63-96.96c.75-5.68-2.609-10.81-7.51-11.46-4.899-.65-9.479 3.42-10.24 9.1-.76 5.67 2.61 10.79 7.5 11.45 4.91.65 9.49-3.42 10.25-9.09zm-13.05 210.18c5.141-2.561 7.49-8.23 5.28-12.65s-8.16-5.92-13.29-3.359c-5.1 2.56-7.46 8.21-5.25 12.63s8.15 5.939 13.26 3.379zm-3.53-58.57c5.32-2.13 8.131-7.569 6.29-12.17-1.84-4.58-7.63-6.58-12.949-4.45-5.311 2.141-8.131 7.591-6.28 12.17 1.829 4.6 7.629 6.58 12.939 4.45zm-15.71 31.33c5.141-2.56 7.48-8.21 5.28-12.63-2.21-4.43-8.16-5.94-13.27-3.38-5.12 2.56-7.48 8.229-5.271 12.65 2.211 4.42 8.161 5.92 13.261 3.36zm5.2-97.48c2.21-4.431-.149-10.091-5.26-12.65-5.13-2.56-11.07-1.05-13.28 3.36-2.21 4.42.15 10.09 5.271 12.649 5.109 2.561 11.059 1.061 13.269-3.359zm-6.98-85.82c.51-4.92-3.681-9.38-9.38-9.97-5.7-.6-10.73 2.91-11.24 7.83-.521 4.91 3.7 9.38 9.399 9.98 5.681.58 10.711-2.93 11.221-7.84zm-.44 37.82c1.38-4.75-1.979-9.9-7.47-11.49-5.51-1.58-11.07.98-12.44 5.73s1.971 9.88 7.471 11.47 11.069-.98 12.439-5.71zm-3.44 82.33c2.21-4.421-.15-10.08-5.25-12.641-5.141-2.56-11.08-1.05-13.301 3.37-2.21 4.42.16 10.08 5.28 12.64 5.121 2.571 11.061 1.061 13.271-3.369zm-5.01-150.89c.49-4.9-3.71-9.38-9.39-9.96-5.7-.6-10.72 2.9-11.23 7.82-.51 4.92 3.671 9.38 9.381 9.98 5.679.58 10.729-2.92 11.239-7.84zm-1.93-31.05c.51-4.92-3.7-9.38-9.38-9.96-5.71-.6-10.72 2.91-11.24 7.82-.51 4.92 3.7 9.39 9.38 9.98 5.7.59 10.73-2.92 11.24-7.84zm-5.7 219.94c5.13-2.561 7.49-8.221 5.28-12.641-2.22-4.42-8.14-5.93-13.28-3.38-5.1 2.561-7.47 8.23-5.26 12.65 2.21 4.411 8.16 5.921 13.26 3.371zm4.1-253.24c.51-4.92-3.681-9.38-9.381-9.97-5.699-.6-10.729 2.91-11.239 7.83-.521 4.92 3.7 9.38 9.39 9.98 5.69.58 10.72-2.92 11.23-7.84zm-1.44 160.97c1.36-4.76-1.99-9.89-7.47-11.479-5.521-1.601-11.08.97-12.45 5.71-1.37 4.76 1.979 9.899 7.47 11.489 5.5 1.59 11.07-.98 12.45-5.72zm-.49-192.02c.511-4.92-3.68-9.38-9.38-9.98-5.7-.58-10.729 2.92-11.24 7.84-.51 4.91 3.7 9.39 9.4 9.97 5.68.6 10.71-2.92 11.22-7.83zm-.08-32.42c.91-4.85-2.92-9.65-8.529-10.7-5.63-1.06-10.931 2.03-11.851 6.88-.91 4.87 2.91 9.65 8.55 10.71 5.62 1.05 10.91-2.02 11.83-6.89zm-4.61-48.41c.92-4.87-2.9-9.65-8.53-10.71s-10.92 2.03-11.84 6.89c-.91 4.85 2.899 9.65 8.54 10.71 5.62 1.05 10.92-2.04 11.83-6.89zm-8.82 303.12c1.38-4.75-1.96-9.9-7.45-11.49-5.5-1.58-11.08.979-12.45 5.729-1.369 4.75 1.971 9.88 7.48 11.471 5.49 1.6 11.07-.97 12.42-5.71zm-2.99-347.89c.9-4.86-2.91-9.65-8.52-10.7-5.641-1.07-10.94 2.02-11.851 6.88-.93 4.86 2.9 9.65 8.53 10.71 5.621 1.05 10.941-2.03 11.841-6.89zm-2.87 71.24c.511-4.91-3.68-9.38-9.369-9.97-5.711-.6-10.74 2.91-11.25 7.83-.51 4.92 3.7 9.38 9.41 9.98 5.679.58 10.699-2.92 11.209-7.84zm-5.6 41.91c.9-4.85-2.92-9.65-8.54-10.71-5.62-1.05-10.93 2.03-11.84 6.88-.92 4.87 2.9 9.67 8.54 10.71 5.63 1.07 10.92-2.01 11.84-6.88zm-.64 31.11c.909-4.86-2.91-9.66-8.54-10.71-5.63-1.06-10.93 2.03-11.84 6.88-.91 4.86 2.91 9.65 8.54 10.71 5.62 1.06 10.93-2.03 11.84-6.88zm-.06 131.49c1.23-4.8-2.27-9.84-7.81-11.26-5.55-1.42-11.04 1.32-12.26 6.11-1.23 4.79 2.27 9.82 7.81 11.24s11.04-1.31 12.26-6.09zm-1.1-98.17c.93-4.86-2.9-9.65-8.53-10.71-5.62-1.05-10.92 2.02-11.84 6.89-.92 4.85 2.91 9.64 8.54 10.71 5.63 1.06 10.92-2.04 11.83-6.89zm-.16 198.37c1.38-4.75-1.97-9.9-7.46-11.48-5.51-1.59-11.08.98-12.45 5.721-1.38 4.75 1.97 9.89 7.47 11.479 5.5 1.59 11.07-.97 12.44-5.72zm-.47-167.26c.92-4.87-2.91-9.66-8.53-10.71-5.63-1.06-10.92 2.02-11.84 6.88-.91 4.86 2.9 9.65 8.53 10.71 5.62 1.05 10.94-2.03 11.84-6.88zm-2.33-182.95c.899-4.86-2.91-9.65-8.53-10.7-5.63-1.07-10.93 2.02-11.85 6.87-.92 4.87 2.91 9.66 8.54 10.71 5.62 1.06 10.92-2.02 11.84-6.88zm-.51 214.57c.51-4.92-3.69-9.39-9.38-9.99-5.71-.58-10.73 2.93-11.24 7.85-.51 4.91 3.7 9.38 9.4 9.97 5.68.6 10.71-2.92 11.22-7.83zm-7.99 63.88c1.22-4.78-2.28-9.82-7.82-11.24-5.55-1.42-11.04 1.31-12.27 6.1-1.22 4.79 2.28 9.82 7.82 11.24 5.55 1.42 11.04-1.3 12.27-6.1zm-1.93-250.68c.51-4.92-3.69-9.39-9.39-9.98-5.69-.58-10.72 2.92-11.23 7.84-.51 4.91 3.69 9.38 9.39 9.96 5.69.61 10.72-2.91 11.23-7.82zm-6.09 349.15c2.21-4.42-.15-10.09-5.27-12.65-5.11-2.56-11.05-1.05-13.27 3.381-2.21 4.42.15 10.069 5.27 12.63 5.11 2.559 11.07 1.059 13.27-3.361zm-.87-316.45c.51-4.9-3.7-9.38-9.38-9.96-5.7-.6-10.73 2.92-11.23 7.83-.52 4.92 3.68 9.38 9.37 9.97 5.7.59 10.73-2.92 11.24-7.84zm-4.16 248.68c1.22-4.801-2.28-9.83-7.82-11.261-5.55-1.42-11.04 1.32-12.26 6.11-1.23 4.79 2.27 9.83 7.81 11.25 5.55 1.421 11.04-1.319 12.27-6.099zm-.5-178.83c1.54-4.69-1.62-9.94-7.06-11.72-5.45-1.79-11.1.58-12.64 5.28-1.53 4.7 1.62 9.95 7.08 11.73 5.43 1.78 11.08-.59 12.62-5.29zm-4.12 118.69c1.84-4.58-.98-10.03-6.29-12.16-5.31-2.13-11.11-.14-12.95 4.44-1.84 4.6.97 10.04 6.29 12.17 5.31 2.13 11.11.15 12.95-4.45zm-.55-87.94c1.53-4.69-1.63-9.94-7.07-11.72-5.44-1.79-11.1.59-12.64 5.28-1.54 4.7 1.63 9.95 7.07 11.74 5.43 1.77 11.09-.59 12.64-5.3zm-.83-64.53c.52-4.91-3.7-9.37-9.38-9.98-5.7-.58-10.73 2.92-11.24 7.84-.51 4.92 3.7 9.39 9.4 9.97 5.68.6 10.71-2.91 11.22-7.83zm-4.66 97.43c1.54-4.7-1.63-9.95-7.06-11.72-5.44-1.79-11.09.58-12.64 5.27-1.53 4.7 1.63 9.95 7.07 11.73 5.44 1.78 11.1-.58 12.63-5.28zm-1.92 143.62c1.23-4.78-2.27-9.82-7.81-11.24-5.56-1.42-11.04 1.32-12.27 6.101-1.22 4.779 2.27 9.819 7.83 11.25 5.54 1.419 11.02-1.311 12.25-6.111zm-2.76-112.87c1.55-4.69-1.62-9.95-7.06-11.73-5.44-1.78-11.1.59-12.63 5.28-1.55 4.71 1.62 9.96 7.06 11.74 5.43 1.78 11.1-.59 12.63-5.29zm-5.45 50.87c1.84-4.59-.97-10.03-6.29-12.17-5.31-2.12-11.11-.14-12.95 4.46-1.84 4.58.97 10.03 6.29 12.16 5.32 2.13 11.11.14 12.95-4.45zm-6.14 92.61c2.21-4.42-.16-10.09-5.27-12.641-5.12-2.569-11.06-1.05-13.27 3.37-2.21 4.42.14 10.08 5.27 12.641 5.11 2.56 11.05 1.05 13.27-3.37zm-5.08-206.18c2.22-4.42-.14-10.07-5.25-12.63-5.13-2.56-11.07-1.05-13.28 3.36-2.21 4.42.15 10.09 5.26 12.65 5.11 2.56 11.06 1.04 13.27-3.38zm-5.71 142.3c1.84-4.601-.98-10.04-6.29-12.181-5.32-2.13-11.11-.13-12.95 4.46-1.84 4.58.96 10.021 6.28 12.17 5.32 2.131 11.12.131 12.96-4.449zm-3.43-56.55c2.21-4.42-.15-10.07-5.26-12.63-5.12-2.56-11.07-1.05-13.28 3.36-2.21 4.42.15 10.09 5.27 12.65 5.11 2.56 11.06 1.04 13.27-3.38zm-2.29-49.16c2.21-4.42-.15-10.08-5.26-12.64-5.12-2.55-11.06-1.04-13.27 3.37-2.21 4.42.14 10.09 5.26 12.64 5.11 2.56 11.06 1.05 13.27-3.37zm-1.79 194.75c2.21-4.431-.16-10.091-5.27-12.65-5.12-2.56-11.06-1.05-13.28 3.37-2.2 4.43.15 10.09 5.28 12.649 5.11 2.561 11.06 1.051 13.27-3.369zm-8.66-62.47c1.84-4.58-.98-10.04-6.29-12.17-5.32-2.13-11.12-.13-12.96 4.45-1.84 4.58.99 10.04 6.3 12.17s11.1.13 12.95-4.45zm-5.68-52.7c1.84-4.591-.98-10.03-6.29-12.181-5.31-2.13-11.11-.13-12.95 4.47-1.84 4.58.97 10.03 6.29 12.16 5.31 2.131 11.11.141 12.95-4.449zm-1.69 82.76c1.85-4.59-.98-10.04-6.28-12.17-5.32-2.13-11.11-.141-12.95 4.449-1.85 4.591.96 10.03 6.28 12.16 5.31 2.131 11.11.151 12.95-4.439zm-3.22 59.64c2.21-4.42-.14-10.08-5.25-12.64-5.13-2.561-11.07-1.061-13.29 3.37-2.21 4.42.15 10.08 5.28 12.64 5.11 2.56 11.06 1.05 13.26-3.37zm-5.18-196.41c0-5.73-4.01-10.37-8.96-10.37-4.94 0-8.95 4.64-8.95 10.37 0 5.72 4.01 10.36 8.95 10.36 4.95 0 8.96-4.64 8.96-10.36zm-7.77 163.34c1.84-4.59-.97-10.029-6.29-12.17-5.31-2.12-11.11-.14-12.95 4.45s.98 10.04 6.29 12.17c5.32 2.13 11.11.14 12.95-4.45zm-5.34 58.23c2.21-4.42-.15-10.09-5.26-12.64-5.13-2.57-11.07-1.051-13.28 3.359-2.22 4.42.14 10.08 5.26 12.65 5.13 2.561 11.07 1.051 13.28-3.369zm-.24-142.01c1.23-4.79-2.27-9.82-7.81-11.24s-11.04 1.31-12.26 6.1c-1.23 4.78 2.27 9.82 7.81 11.24 5.55 1.42 11.04-1.31 12.26-6.1zm-1.45 29.35c1.22-4.79-2.28-9.82-7.82-11.24-5.55-1.43-11.03 1.311-12.26 6.101s2.27 9.819 7.81 11.24c5.55 1.419 11.04-1.311 12.27-6.101zm-1.5-76.94c1.84-4.58-.97-10.03-6.28-12.16-5.32-2.13-11.11-.14-12.96 4.45-1.84 4.59.98 10.03 6.29 12.16 5.31 2.13 11.11.15 12.95-4.45zm-8.4 160.1c1.84-4.59-.98-10.04-6.29-12.17-5.32-2.14-11.11-.14-12.95 4.45-1.84 4.58.97 10.029 6.29 12.17 5.31 2.13 11.11.13 12.95-4.45zm-3.15-52.47c1.22-4.79-2.28-9.83-7.82-11.25-5.55-1.42-11.03 1.319-12.26 6.1-1.23 4.79 2.27 9.83 7.82 11.25 5.54 1.42 11.03-1.32 12.26-6.1zm-2.75 109.26c1.84-4.59-.98-10.04-6.28-12.17-5.32-2.13-11.12-.141-12.96 4.45-1.84 4.59.98 10.029 6.29 12.159 5.31 2.131 11.11.141 12.95-4.439zm-.09-253.98c0-5.72-4.01-10.36-8.95-10.36s-8.95 4.64-8.95 10.36 4.01 10.37 8.95 10.37 8.95-4.65 8.95-10.37zm-9.74 173.17c1.23-4.789-2.27-9.819-7.81-11.239-5.55-1.431-11.04 1.31-12.27 6.1-1.22 4.78 2.27 9.82 7.83 11.24 5.54 1.419 11.02-1.311 12.25-6.101zm-.44 50.59c1.84-4.591-.97-10.03-6.29-12.16-5.31-2.141-11.11-.141-12.95 4.439-1.84 4.591.98 10.04 6.29 12.17 5.31 2.131 11.11.131 12.95-4.449zm-7.56-157.18c1.21-5.6-1.73-10.979-6.56-12.029-4.83-1.04-9.73 2.64-10.94 8.239-1.21 5.591 1.73 10.971 6.56 12.021 4.83 1.039 9.73-2.651 10.94-8.231zm-2.21-35.93c.75-5.68-2.62-10.8-7.52-11.44-4.9-.65-9.48 3.43-10.23 9.11-.74 5.67 2.63 10.8 7.53 11.44 4.9.64 9.48-3.44 10.22-9.11zm-8.02 231.48c2.21-4.421-.14-10.08-5.25-12.641-5.13-2.56-11.07-1.06-13.29 3.37-2.21 4.42.15 10.08 5.28 12.64 5.12 2.561 11.06 1.051 13.26-3.369zm-1.84 30.21c1.85-4.591-.97-10.03-6.28-12.171-5.32-2.13-11.11-.14-12.96 4.45-1.83 4.59.98 10.04 6.29 12.17 5.32 2.131 11.11.141 12.95-4.449zm-2.72-93.63c2.21-4.42-.14-10.079-5.26-12.64-5.12-2.56-11.06-1.05-13.27 3.37-2.21 4.42.14 10.08 5.26 12.64 5.11 2.56 11.06 1.05 13.27-3.37zm-.43-203.73c0-5.73-4.01-10.37-8.96-10.37-4.94 0-8.95 4.64-8.95 10.37 0 5.72 4.01 10.36 8.95 10.36 4.95 0 8.96-4.64 8.96-10.36zm-10.37 239.61c2.21-4.421-.15-10.091-5.27-12.65-5.12-2.56-11.05-1.05-13.27 3.38-2.21 4.41.15 10.07 5.27 12.63 5.11 2.56 11.06 1.05 13.27-3.36zm-3.32-179.5c1.21-5.601-1.73-10.98-6.56-12.021-4.83-1.05-9.73 2.64-10.94 8.24-1.21 5.59 1.73 10.979 6.56 12.02s9.73-2.649 10.94-8.239zm-3.05-33.5c.74-5.68-2.63-10.8-7.53-11.45-4.9-.64-9.48 3.44-10.23 9.11-.74 5.68 2.63 10.8 7.53 11.45 4.9.64 9.48-3.44 10.23-9.11zm-5.33 244.33c2.22-4.42-.15-10.09-5.26-12.64-5.13-2.57-11.07-1.05-13.28 3.36-2.21 4.42.15 10.08 5.27 12.649 5.12 2.561 11.06 1.051 13.27-3.369zm-6.13 29.01c1.84-4.59-.97-10.03-6.28-12.16s-11.11-.14-12.95 4.45c-1.84 4.58.97 10.029 6.29 12.16 5.3 2.13 11.1.14 12.94-4.45zm-2.66 28.83c1.84-4.591-.98-10.04-6.28-12.17-5.32-2.131-11.12-.141-12.96 4.449-1.84 4.58.97 10.03 6.29 12.17 5.31 2.121 11.11.131 12.95-4.449zm.17-333.9c0-5.72-4.01-10.36-8.95-10.36-4.94 0-8.95 4.64-8.95 10.36 0 5.73 4.01 10.37 8.95 10.37 4.94 0 8.95-4.64 8.95-10.37zm-14.16 53.36c1.21-5.6-1.73-10.98-6.56-12.03-4.83-1.04-9.73 2.64-10.94 8.24-1.21 5.59 1.73 10.98 6.56 12.02 4.84 1.04 9.73-2.64 10.94-8.23zm-3.92-30.91c.74-5.68-2.63-10.8-7.53-11.44-4.9-.65-9.48 3.43-10.22 9.11-.75 5.67 2.62 10.79 7.52 11.44 4.9.64 9.48-3.44 10.23-9.11zm-10.33-36.05c1.22-5.6-1.73-10.98-6.56-12.03-4.83-1.04-9.73 2.64-10.94 8.24-1.2 5.59 1.74 10.97 6.56 12.02 4.84 1.04 9.74-2.65 10.94-8.23zm-14.66 55.47c1.21-5.6-1.73-10.98-6.56-12.02-4.83-1.05-9.73 2.64-10.94 8.24-1.21 5.59 1.73 10.98 6.56 12.02 4.83 1.05 9.73-2.65 10.94-8.24zm-4.77-28.48c.75-5.68-2.62-10.81-7.53-11.45-4.89-.64-9.47 3.44-10.22 9.12-.74 5.67 2.63 10.79 7.52 11.44 4.91.64 9.48-3.44 10.23-9.11zm-18-28.56c1.21-5.6-1.73-10.98-6.56-12.02s-9.73 2.64-10.94 8.24c-1.21 5.59 1.73 10.98 6.56 12.02 4.83 1.04 9.73-2.65 10.94-8.24zm-8.72 46c.75-5.67-2.62-10.79-7.52-11.44-4.9-.64-9.48 3.44-10.23 9.11-.74 5.68 2.63 10.8 7.53 11.44 4.9.64 9.48-3.44 10.22-9.11zm-14.15-24.27c1.21-5.6-1.73-10.98-6.56-12.03-4.83-1.04-9.73 2.64-10.94 8.24s1.73 10.98 6.56 12.02 9.73-2.64 10.94-8.23zm-10.39-25.28c1.22-5.6-1.72-10.98-6.55-12.03-4.83-1.04-9.73 2.65-10.94 8.24-1.21 5.6 1.72 10.98 6.55 12.02 4.84 1.05 9.74-2.64 10.94-8.23zm-20.04 30.12c.74-5.68-2.63-10.8-7.53-11.45-4.9-.64-9.48 3.44-10.23 9.12-.74 5.67 2.63 10.79 7.53 11.44 4.9.64 9.48-3.44 10.23-9.11zm-10.3-29.72c.75-5.68-2.62-10.81-7.53-11.45-4.89-.64-9.47 3.43-10.22 9.12-.74 5.67 2.63 10.79 7.53 11.43 4.9.64 9.48-3.43 10.22-9.1zm-28.58 4.57c.75-5.69-2.62-10.81-7.53-11.45-4.89-.64-9.47 3.44-10.22 9.11-.74 5.67 2.63 10.8 7.52 11.45 4.91.64 9.49-3.44 10.23-9.11z" fill="#f6cc4b"/><path d="M757.84 376.76c4.94.01 8.94 4.66 8.93 10.38-.01 5.72-4.029 10.36-8.97 10.35-4.939-.01-8.939-4.66-8.93-10.39.01-5.72 4.03-10.35 8.97-10.34zM730.12 368.45c4.93.01 8.93 4.66 8.92 10.38-.01 5.73-4.021 10.36-8.96 10.35-4.96-.01-8.95-4.66-8.93-10.38 0-5.73 4.02-10.36 8.97-10.35zM715.99 396.56c4.93.01 8.939 4.65 8.93 10.38-.02 5.72-4.04 10.36-8.97 10.35-4.95-.01-8.95-4.66-8.94-10.38.01-5.73 4.03-10.36 8.98-10.35zM708.96 372.96c.46 5.71-3.16 10.65-8.08 11.05-4.939.39-9.31-3.9-9.77-9.61-.45-5.71 3.17-10.65 8.1-11.05 4.92-.4 9.29 3.9 9.75 9.61zM695.33 396.65c.45 5.7-3.16 10.65-8.09 11.05-4.931.39-9.3-3.91-9.76-9.62-.45-5.7 3.159-10.65 8.1-11.04 4.92-.4 9.29 3.9 9.75 9.61zM669.22 409.93c4.94.01 8.94 4.66 8.94 10.38-.021 5.73-4.03 10.36-8.98 10.35-4.939-.01-8.939-4.66-8.93-10.38.01-5.72 4.03-10.36 8.97-10.35zM675.52 372.09c.461 5.71-3.159 10.66-8.069 11.05-4.931.4-9.311-3.91-9.76-9.61-.471-5.71 3.159-10.66 8.09-11.06 4.909-.39 9.289 3.92 9.739 9.62zM645.04 389.11c4.94.01 8.95 4.65 8.93 10.38-.01 5.72-4.029 10.36-8.97 10.35-4.94-.01-8.95-4.67-8.93-10.38.01-5.73 4.03-10.36 8.97-10.35zM645.43 425.63c.46 5.7-3.17 10.65-8.1 11.05-4.92.391-9.29-3.91-9.74-9.62-.47-5.709 3.16-10.649 8.08-11.04 4.93-.4 9.29 3.9 9.76 9.61zM638.21 368.7c.47 5.7-3.16 10.65-8.08 11.04-4.93.4-9.3-3.9-9.76-9.6-.45-5.71 3.16-10.66 8.09-11.06 4.92-.39 9.3 3.91 9.75 9.62zM614.35 394.16c4.94.01 8.94 4.66 8.931 10.39-.011 5.72-4.03 10.35-8.971 10.34-4.939-.01-8.949-4.66-8.939-10.37.019-5.73 4.039-10.37 8.979-10.36zM615.25 433.19c.46 5.699-3.16 10.649-8.1 11.05-4.92.399-9.29-3.91-9.74-9.61-.46-5.71 3.16-10.65 8.09-11.05 4.92-.4 9.29 3.9 9.75 9.61zM600.66 370.78c4.899.65 8.26 5.79 7.5 11.46-.76 5.67-5.34 9.75-10.24 9.09-4.9-.65-8.26-5.79-7.5-11.46.75-5.67 5.34-9.74 10.24-9.09zM605.27 706.22c1.83 4.58-.979 10.03-6.3 12.16-5.31 2.13-11.1.13-12.939-4.45-1.851-4.58.97-10.029 6.279-12.16 5.32-2.13 11.12-.15 12.96 4.45zM602.6 677.4c1.83 4.58-.979 10.029-6.3 12.159-5.3 2.131-11.09.141-12.939-4.449-1.841-4.591.979-10.03 6.279-12.16 5.32-2.13 11.12-.15 12.96 4.45zM595.78 646.82c2.21 4.42-.15 10.08-5.271 12.649-5.109 2.561-11.06 1.04-13.27-3.38s.14-10.09 5.26-12.63c5.121-2.569 11.071-1.059 13.281 3.361zM581.38 399.13c4.93.01 8.93 4.65 8.93 10.38-.02 5.72-4.029 10.36-8.97 10.35-4.95-.01-8.939-4.66-8.939-10.38.009-5.73 4.029-10.36 8.979-10.35zM584.07 615.5c2.21 4.41-.13 10.07-5.271 12.63-5.1 2.561-11.06 1.05-13.26-3.36-2.21-4.42.15-10.09 5.27-12.649 5.111-2.561 11.051-1.061 13.261 3.379zM582.8 440.84c.46 5.7-3.17 10.66-8.09 11.05-4.93.391-9.3-3.899-9.76-9.609-.45-5.7 3.16-10.65 8.09-11.05 4.93-.401 9.29 3.909 9.76 9.609zM569.57 371.8c4.89.65 8.26 5.78 7.5 11.46-.75 5.67-5.351 9.74-10.24 9.08-4.9-.65-8.26-5.78-7.51-11.45.76-5.67 5.35-9.75 10.25-9.09zM573.27 579.62c2.211 4.42-.149 10.07-5.27 12.64-5.11 2.55-11.06 1.05-13.27-3.37-2.211-4.42.149-10.09 5.26-12.64 5.12-2.57 11.07-1.05 13.28 3.37zM571.25 674.8c1.83 4.59-.97 10.03-6.29 12.16s-11.1.15-12.95-4.45c-1.84-4.58.98-10.029 6.28-12.16 5.32-2.13 11.12-.14 12.96 4.45zM568.71 643.03c2.22 4.42-.14 10.09-5.27 12.649-5.12 2.561-11.061 1.04-13.271-3.38s.15-10.069 5.25-12.63c5.141-2.559 11.081-1.059 13.291 3.361zM550.68 404.18c4.94.01 8.94 4.66 8.931 10.39-.011 5.72-4.03 10.35-8.971 10.34-4.939-.01-8.93-4.65-8.93-10.38.01-5.72 4.03-10.35 8.97-10.35zM552.62 448.41c.47 5.689-3.16 10.649-8.08 11.04-4.94.399-9.31-3.9-9.76-9.59-.46-5.721 3.16-10.67 8.09-11.07 4.92-.39 9.29 3.91 9.75 9.62zM552.02 558.21c1.23 4.78-2.26 9.82-7.819 11.24-5.54 1.42-11.03-1.32-12.26-6.101-1.221-4.8 2.27-9.819 7.81-11.239 5.559-1.43 11.039 1.3 12.269 6.1zM551.63 606.23c1.84 4.579-.99 10.029-6.29 12.159-5.31 2.13-11.109.141-12.95-4.449-1.85-4.591.971-10.03 6.29-12.16 5.32-2.15 11.11-.15 12.95 4.45zM545.46 473.71c5.11 2.56 7.47 8.23 5.26 12.65s-8.16 5.92-13.279 3.359c-5.11-2.56-7.471-8.22-5.261-12.649 2.21-4.4 8.15-5.92 13.28-3.36zM536.23 372.42c4.89.66 8.25 5.79 7.5 11.46-.75 5.68-5.351 9.75-10.24 9.09-4.9-.65-8.271-5.78-7.51-11.45.76-5.68 5.35-9.75 10.25-9.1zM541.36 636.44c1.84 4.579-.98 10.029-6.29 12.159-5.311 2.131-11.11.141-12.95-4.439-1.84-4.601.97-10.04 6.28-12.17 5.32-2.13 11.11-.15 12.96 4.45zM539.45 529.76c1.22 4.78-2.271 9.82-7.82 11.24-5.54 1.42-11.03-1.32-12.26-6.1-1.23-4.801 2.28-9.83 7.82-11.25s11.03 1.31 12.26 6.11zM535.46 579.64c1.84 4.591-.97 10.04-6.29 12.17-5.31 2.131-11.11.131-12.95-4.449s.971-10.03 6.28-12.16c5.32-2.131 11.12-.141 12.96 4.439zM526.4 499.06c1.22 4.801-2.271 9.82-7.82 11.24-5.54 1.42-11.03-1.3-12.26-6.09-1.23-4.79 2.279-9.83 7.819-11.25s11.031 1.32 12.261 6.1zM523.17 607.59c2.22 4.42-.14 10.08-5.26 12.65-5.13 2.56-11.07 1.05-13.28-3.38-2.21-4.42.15-10.091 5.26-12.63 5.13-2.57 11.07-1.06 13.28 3.36zM518.53 550.92c1.83 4.59-.98 10.03-6.29 12.16-5.32 2.13-11.12.15-12.95-4.44-1.84-4.59.96-10.04 6.28-12.18 5.32-2.11 11.12-.13 12.96 4.46zM509.19 431.74c5.689.59 9.89 5.06 9.39 9.96-.51 4.92-5.561 8.42-11.24 7.85-5.7-.6-9.88-5.069-9.38-9.979.51-4.921 5.53-8.431 11.23-7.831zM507.27 400.69c5.681.58 9.891 5.05 9.381 9.96-.511 4.92-5.54 8.43-11.23 7.84-5.689-.59-9.9-5.06-9.39-9.98.519-4.9 5.529-8.41 11.239-7.82zM513.83 470.62c1.229 4.78-2.271 9.82-7.82 11.24-5.54 1.42-11.04-1.32-12.26-6.101-1.23-4.8 2.28-9.83 7.81-11.25 5.55-1.419 11.04 1.311 12.27 6.111zM505.13 373.44c4.9.65 8.26 5.78 7.51 11.46-.76 5.67-5.34 9.74-10.25 9.09-4.89-.66-8.26-5.78-7.5-11.45.76-5.68 5.34-9.75 10.24-9.1zM504.87 582.43c2.21 4.42-.14 10.09-5.28 12.65-5.109 2.56-11.05 1.04-13.26-3.38s.15-10.07 5.25-12.63c5.13-2.56 11.08-1.06 13.29 3.36zM502.35 524.34c1.841 4.601-.97 10.04-6.29 12.17-5.31 2.13-11.109.15-12.939-4.45-1.851-4.579.97-10.029 6.28-12.17 5.319-2.13 11.109-.13 12.949 4.45zM499.91 331.28c.49 2.33.97 4.58 1.43 6.76-.99 3.95-5 6.98-9.859 7.13-5.73.17-10.49-3.7-10.631-8.65-.14-4.94 4.37-9.08 10.101-9.25 3.739-.11 7.069 1.51 8.959 4.01zM493.51 300.31c.54 2.66 1.08 5.28 1.61 7.86-1.25 3.63-5.07 6.34-9.67 6.48-5.72.17-10.47-3.7-10.63-8.64-.13-4.95 4.38-9.09 10.1-9.26 3.51-.1 6.65 1.31 8.59 3.56zM485.63 555.21c2.2 4.42-.14 10.07-5.28 12.63-5.1 2.561-11.05 1.061-13.26-3.359-2.21-4.421.15-10.091 5.271-12.65 5.109-2.561 11.059-1.051 13.269 3.379zM480.29 457.71c5.11 2.56 7.47 8.22 5.26 12.65-2.21 4.42-8.16 5.92-13.27 3.359-5.12-2.56-7.48-8.229-5.271-12.649 2.211-4.41 8.151-5.92 13.281-3.36zM469.19 374.57c5.699.59 9.89 5.05 9.38 9.97-.511 4.91-5.54 8.42-11.221 7.84-5.699-.6-9.92-5.07-9.399-9.98.51-4.92 5.54-8.43 11.24-7.83zM470.66 410.87c5.49 1.59 8.85 6.74 7.47 11.49-1.37 4.73-6.939 7.3-12.439 5.71s-8.841-6.72-7.471-11.47 6.93-7.31 12.44-5.73zM469.44 492.05c5.1 2.561 7.46 8.22 5.25 12.641-2.21 4.43-8.15 5.939-13.271 3.369-5.12-2.56-7.49-8.22-5.28-12.64 2.221-4.42 8.161-5.93 13.301-3.37zM460.29 343.84c5.68.58 9.88 5.06 9.39 9.96-.51 4.92-5.56 8.42-11.239 7.84-5.71-.6-9.891-5.06-9.381-9.98.51-4.92 5.53-8.42 11.23-7.82zM458.37 312.79c5.68.58 9.89 5.04 9.38 9.96s-5.54 8.43-11.24 7.84c-5.68-.59-9.89-5.06-9.38-9.98.52-4.91 5.53-8.42 11.24-7.82zM467.33 530.05c2.21 4.42-.15 10.08-5.28 12.641-5.1 2.55-11.05 1.04-13.26-3.37-2.21-4.42.16-10.09 5.26-12.65 5.14-2.551 11.06-1.041 13.28 3.379zM456.77 279.48c5.7.59 9.891 5.05 9.381 9.97-.511 4.92-5.54 8.42-11.23 7.84-5.689-.6-9.91-5.06-9.39-9.98.509-4.92 5.539-8.43 11.239-7.83zM457.24 438.94c5.479 1.59 8.83 6.72 7.47 11.479-1.38 4.74-6.95 7.311-12.45 5.72-5.49-1.59-8.84-6.729-7.47-11.489 1.37-4.74 6.93-7.31 12.45-5.71zM454.84 248.42c5.7.6 9.891 5.06 9.38 9.98-.51 4.91-5.54 8.43-11.22 7.83-5.7-.58-9.91-5.06-9.4-9.97.51-4.92 5.54-8.42 11.24-7.84zM455.61 215.28c5.609 1.05 9.439 5.85 8.529 10.7-.92 4.87-6.21 7.94-11.83 6.89-5.64-1.06-9.46-5.84-8.55-10.71.921-4.85 6.221-7.94 11.851-6.88zM451 166.86c5.63 1.06 9.45 5.84 8.53 10.71-.91 4.85-6.21 7.94-11.83 6.89-5.641-1.06-9.45-5.86-8.54-10.71.92-4.86 6.21-7.95 11.84-6.89zM443.26 469.2c5.49 1.59 8.83 6.74 7.45 11.49-1.35 4.739-6.93 7.31-12.42 5.71-5.51-1.591-8.85-6.721-7.48-11.471 1.37-4.749 6.95-7.309 12.45-5.729zM439.2 122.1c5.609 1.05 9.42 5.84 8.52 10.7-.899 4.86-6.22 7.94-11.84 6.89-5.63-1.06-9.46-5.85-8.53-10.71.91-4.86 6.21-7.95 11.85-6.88zM435.48 194.07c5.689.59 9.88 5.06 9.369 9.97-.51 4.92-5.529 8.42-11.21 7.84-5.71-.6-9.919-5.06-9.41-9.98.511-4.92 5.541-8.43 11.251-7.83zM430.71 235.24c5.62 1.06 9.44 5.86 8.54 10.71-.92 4.87-6.21 7.95-11.84 6.88-5.64-1.04-9.46-5.84-8.54-10.71.91-4.85 6.22-7.93 11.84-6.88zM430.07 266.35c5.63 1.05 9.449 5.85 8.54 10.71-.91 4.85-6.221 7.94-11.841 6.88-5.629-1.06-9.45-5.85-8.54-10.71.911-4.85 6.211-7.94 11.841-6.88zM430.74 397.29c5.54 1.42 9.04 6.46 7.81 11.26-1.22 4.78-6.72 7.51-12.26 6.09s-9.04-6.45-7.81-11.24c1.22-4.79 6.71-7.53 12.26-6.11zM428.92 299.67c5.63 1.06 9.46 5.85 8.53 10.71-.91 4.85-6.2 7.95-11.83 6.89-5.63-1.07-9.46-5.86-8.54-10.71.92-4.87 6.22-7.94 11.84-6.89zM429.83 497.27c5.49 1.58 8.84 6.73 7.46 11.48-1.37 4.75-6.94 7.31-12.44 5.72-5.5-1.59-8.85-6.729-7.47-11.479 1.37-4.741 6.94-7.311 12.45-5.721zM428.29 330.78c5.62 1.05 9.45 5.84 8.53 10.71-.9 4.85-6.221 7.93-11.84 6.88-5.63-1.06-9.44-5.85-8.53-10.71.92-4.86 6.21-7.94 11.84-6.88zM425.96 147.84c5.62 1.05 9.43 5.84 8.53 10.7-.92 4.86-6.221 7.94-11.84 6.88-5.63-1.05-9.46-5.84-8.54-10.71.92-4.85 6.22-7.94 11.85-6.87zM424.6 363.12c5.69.6 9.89 5.07 9.38 9.99-.511 4.91-5.54 8.43-11.221 7.83-5.7-.59-9.91-5.06-9.4-9.97.511-4.92 5.531-8.43 11.241-7.85zM418.17 425.75c5.54 1.42 9.04 6.46 7.82 11.24-1.23 4.8-6.72 7.52-12.27 6.1-5.54-1.42-9.04-6.45-7.82-11.24 1.23-4.79 6.72-7.52 12.27-6.1zM414.67 176.33c5.7.59 9.9 5.06 9.39 9.98-.51 4.91-5.54 8.43-11.23 7.82-5.7-.58-9.9-5.05-9.39-9.96.51-4.92 5.54-8.42 11.23-7.84zM412.7 522.81c5.12 2.561 7.48 8.23 5.27 12.65-2.2 4.42-8.16 5.92-13.27 3.36-5.12-2.561-7.48-8.21-5.27-12.63 2.22-4.43 8.16-5.94 13.27-3.38zM407.72 209.05c5.68.58 9.89 5.06 9.38 9.96-.51 4.92-5.54 8.43-11.24 7.84-5.69-.59-9.89-5.05-9.37-9.97.5-4.91 5.53-8.43 11.23-7.83zM405.12 456.43c5.54 1.431 9.04 6.46 7.82 11.261-1.23 4.779-6.72 7.52-12.27 6.1-5.54-1.42-9.04-6.46-7.81-11.25 1.22-4.791 6.71-7.531 12.26-6.111zM405.38 277.14c5.44 1.78 8.6 7.03 7.06 11.72-1.54 4.7-7.19 7.07-12.62 5.29-5.46-1.78-8.61-7.03-7.08-11.73 1.54-4.7 7.19-7.07 12.64-5.28zM402.03 395.39c5.31 2.13 8.13 7.58 6.29 12.16-1.84 4.6-7.64 6.58-12.95 4.45-5.32-2.13-8.13-7.57-6.29-12.17 1.84-4.58 7.64-6.57 12.95-4.44zM400.7 307.89c5.44 1.78 8.6 7.03 7.07 11.72-1.55 4.71-7.21 7.07-12.64 5.3-5.44-1.79-8.61-7.04-7.07-11.74 1.54-4.69 7.2-7.07 12.64-5.28zM397.56 245.1c5.68.61 9.9 5.07 9.38 9.98-.51 4.92-5.54 8.43-11.22 7.83-5.7-.58-9.91-5.05-9.4-9.97.51-4.92 5.54-8.42 11.24-7.84zM395.22 340.79c5.43 1.77 8.6 7.02 7.06 11.72-1.53 4.7-7.19 7.06-12.63 5.28-5.44-1.78-8.6-7.03-7.07-11.73 1.55-4.69 7.2-7.06 12.64-5.27zM392.55 484.89c5.54 1.42 9.04 6.46 7.81 11.24-1.23 4.8-6.71 7.53-12.25 6.11-5.56-1.431-9.05-6.471-7.83-11.25 1.23-4.78 6.71-7.52 12.27-6.1zM390.54 371.53c5.44 1.78 8.61 7.04 7.06 11.73-1.53 4.7-7.2 7.07-12.63 5.29-5.44-1.78-8.61-7.03-7.06-11.74 1.53-4.69 7.19-7.06 12.63-5.28zM385.86 421.96c5.32 2.14 8.13 7.58 6.29 12.17-1.84 4.59-7.63 6.58-12.95 4.45-5.32-2.13-8.13-7.58-6.29-12.16 1.84-4.6 7.64-6.58 12.95-4.46zM380.74 514.1c5.11 2.551 7.48 8.221 5.27 12.641-2.22 4.42-8.16 5.93-13.27 3.37-5.13-2.561-7.48-8.221-5.27-12.641 2.21-4.42 8.15-5.94 13.27-3.37zM375.68 307.93c5.11 2.56 7.47 8.21 5.25 12.63-2.21 4.42-8.16 5.94-13.27 3.38-5.11-2.56-7.47-8.23-5.26-12.65 2.21-4.41 8.15-5.92 13.28-3.36zM368.93 450.68c5.31 2.141 8.13 7.58 6.29 12.181-1.84 4.58-7.64 6.58-12.96 4.449-5.32-2.149-8.12-7.59-6.28-12.17 1.84-4.59 7.63-6.59 12.95-4.46zM366.53 393.68c5.11 2.56 7.47 8.21 5.26 12.63s-8.16 5.94-13.27 3.38c-5.12-2.56-7.48-8.23-5.27-12.65 2.21-4.41 8.16-5.92 13.28-3.36zM364.24 344.51c5.11 2.56 7.47 8.22 5.26 12.64s-8.16 5.93-13.27 3.37c-5.12-2.55-7.47-8.22-5.26-12.64 2.21-4.41 8.15-5.92 13.27-3.37zM362.44 539.25c5.11 2.56 7.48 8.22 5.27 12.65-2.21 4.42-8.16 5.93-13.27 3.369-5.13-2.56-7.48-8.22-5.28-12.649 2.22-4.42 8.16-5.93 13.28-3.37zM352.76 477.26c5.31 2.13 8.13 7.59 6.29 12.17-1.85 4.58-7.64 6.58-12.95 4.45s-8.14-7.59-6.3-12.17c1.84-4.58 7.64-6.58 12.96-4.45zM347.08 424.55c5.31 2.15 8.13 7.59 6.29 12.181-1.84 4.59-7.64 6.579-12.95 4.449-5.32-2.13-8.13-7.58-6.29-12.16 1.84-4.6 7.64-6.6 12.95-4.47zM345.4 507.32c5.3 2.13 8.13 7.58 6.28 12.17-1.84 4.59-7.64 6.569-12.95 4.439-5.32-2.13-8.13-7.569-6.28-12.16 1.84-4.589 7.63-6.579 12.95-4.449zM343.21 566.49c5.11 2.56 7.46 8.22 5.25 12.64-2.2 4.42-8.15 5.93-13.26 3.37-5.13-2.56-7.49-8.22-5.28-12.64 2.22-4.43 8.16-5.93 13.29-3.37zM334.32 372.35c4.95 0 8.96 4.64 8.96 10.37 0 5.72-4.01 10.36-8.96 10.36-4.94 0-8.95-4.64-8.95-10.36 0-5.73 4.01-10.37 8.95-10.37zM329.22 533.89c5.32 2.141 8.13 7.58 6.29 12.17-1.84 4.591-7.63 6.58-12.95 4.45-5.31-2.13-8.13-7.58-6.29-12.17s7.64-6.57 12.95-4.45zM324.91 591.65c5.11 2.55 7.47 8.22 5.26 12.64s-8.15 5.93-13.28 3.37c-5.12-2.57-7.48-8.23-5.26-12.65 2.21-4.41 8.15-5.93 13.28-3.36zM322.12 451.04c5.54 1.42 9.04 6.45 7.81 11.24-1.22 4.79-6.71 7.52-12.26 6.1-5.54-1.42-9.04-6.46-7.81-11.24 1.22-4.79 6.72-7.52 12.26-6.1zM320.66 480.39c5.54 1.42 9.04 6.45 7.82 11.24-1.23 4.79-6.72 7.521-12.27 6.101-5.54-1.421-9.04-6.45-7.81-11.24s6.71-7.531 12.26-6.101zM320.7 402.53c5.31 2.13 8.12 7.58 6.28 12.16-1.84 4.6-7.64 6.58-12.95 4.45s-8.13-7.57-6.29-12.16c1.85-4.59 7.64-6.58 12.96-4.45zM312.29 562.62c5.31 2.13 8.13 7.58 6.29 12.17-1.84 4.58-7.64 6.58-12.95 4.45-5.32-2.141-8.13-7.59-6.29-12.17 1.84-4.59 7.63-6.59 12.95-4.45zM307.61 511.07c5.54 1.42 9.04 6.46 7.82 11.25-1.23 4.779-6.72 7.52-12.26 6.1-5.55-1.42-9.05-6.46-7.82-11.25 1.23-4.78 6.71-7.52 12.26-6.1zM306.4 619.41c5.3 2.13 8.12 7.58 6.28 12.17-1.84 4.58-7.64 6.57-12.95 4.439-5.31-2.13-8.13-7.569-6.29-12.159 1.84-4.59 7.64-6.58 12.96-4.45zM303.64 367.24c4.94 0 8.95 4.64 8.95 10.36s-4.01 10.37-8.95 10.37-8.95-4.65-8.95-10.37c0-5.72 4.01-10.36 8.95-10.36zM295.04 539.53c5.54 1.42 9.04 6.45 7.81 11.239-1.23 4.79-6.71 7.521-12.25 6.101-5.56-1.42-9.05-6.46-7.83-11.24 1.23-4.79 6.72-7.53 12.27-6.1zM296.12 589.2c5.32 2.13 8.13 7.569 6.29 12.16-1.84 4.58-7.64 6.58-12.95 4.449-5.31-2.13-8.13-7.579-6.29-12.17 1.84-4.579 7.64-6.579 12.95-4.439zM288.29 432.15c4.83 1.05 7.77 6.43 6.56 12.029-1.21 5.58-6.11 9.271-10.94 8.23-4.83-1.05-7.77-6.43-6.56-12.021 1.21-5.598 6.11-9.278 10.94-8.238zM285.12 396.81c4.9.64 8.27 5.76 7.52 11.44-.74 5.67-5.32 9.75-10.22 9.11-4.9-.64-8.27-5.77-7.53-11.44.75-5.68 5.33-9.76 10.23-9.11zM279.37 627.09c5.11 2.561 7.46 8.22 5.25 12.641-2.2 4.42-8.14 5.93-13.26 3.369-5.13-2.56-7.49-8.22-5.28-12.64 2.22-4.43 8.16-5.93 13.29-3.37zM276.5 657.77c5.31 2.141 8.13 7.58 6.28 12.171-1.84 4.59-7.63 6.579-12.95 4.449-5.31-2.13-8.12-7.58-6.29-12.17 1.85-4.59 7.64-6.58 12.96-4.45zM274.8 563.67c5.12 2.561 7.47 8.22 5.26 12.64-2.21 4.421-8.16 5.931-13.27 3.37-5.12-2.56-7.47-8.22-5.26-12.64s8.15-5.93 13.27-3.37zM270.67 362.21c4.95 0 8.96 4.64 8.96 10.37 0 5.72-4.01 10.36-8.96 10.36-4.94 0-8.95-4.64-8.95-10.36 0-5.73 4.01-10.37 8.95-10.37zM263.99 599.54c5.12 2.56 7.48 8.229 5.27 12.65-2.21 4.409-8.16 5.92-13.27 3.359-5.12-2.56-7.48-8.22-5.27-12.63 2.22-4.429 8.15-5.939 13.27-3.379zM259.38 420.67c4.83 1.04 7.77 6.42 6.56 12.021-1.21 5.59-6.11 9.279-10.94 8.239s-7.77-6.43-6.56-12.02c1.21-5.6 6.11-9.29 10.94-8.24zM255.36 387.74c4.9.65 8.27 5.77 7.53 11.45-.75 5.67-5.33 9.75-10.23 9.11-4.9-.65-8.27-5.77-7.53-11.45.75-5.67 5.33-9.75 10.23-9.11zM252.3 630.88c5.11 2.55 7.48 8.22 5.26 12.64-2.21 4.421-8.15 5.931-13.27 3.37-5.12-2.569-7.48-8.229-5.27-12.649 2.21-4.411 8.15-5.931 13.28-3.361zM245.15 660.37c5.31 2.13 8.12 7.57 6.28 12.16-1.84 4.59-7.64 6.58-12.94 4.45-5.32-2.131-8.13-7.58-6.29-12.16 1.84-4.59 7.64-6.58 12.95-4.45zM242.49 689.19c5.3 2.13 8.12 7.579 6.28 12.17-1.84 4.58-7.64 6.569-12.95 4.449-5.32-2.14-8.13-7.59-6.29-12.17 1.84-4.589 7.64-6.579 12.96-4.449zM239.99 357.1c4.94 0 8.95 4.64 8.95 10.36 0 5.73-4.01 10.37-8.95 10.37-4.94 0-8.95-4.64-8.95-10.37 0-5.72 4.01-10.36 8.95-10.36zM228.22 408.79c4.83 1.05 7.77 6.43 6.56 12.03-1.21 5.59-6.1 9.27-10.94 8.23-4.83-1.04-7.77-6.43-6.56-12.02 1.21-5.6 6.11-9.28 10.94-8.24zM223.33 378.47c4.9.64 8.27 5.76 7.53 11.44-.75 5.67-5.33 9.75-10.23 9.11-4.9-.65-8.27-5.77-7.52-11.44.74-5.68 5.32-9.76 10.22-9.11zM213.97 341.83c4.83 1.05 7.78 6.43 6.56 12.03-1.2 5.58-6.1 9.27-10.94 8.23-4.82-1.05-7.76-6.43-6.56-12.02 1.21-5.6 6.11-9.28 10.94-8.24zM199.31 397.31c4.83 1.04 7.77 6.42 6.56 12.02-1.21 5.59-6.11 9.29-10.94 8.24-4.83-1.04-7.77-6.43-6.56-12.02 1.21-5.6 6.11-9.29 10.94-8.24zM193.57 369.4c4.91.64 8.28 5.77 7.53 11.45-.75 5.67-5.32 9.75-10.23 9.11-4.89-.65-8.26-5.77-7.52-11.44.75-5.68 5.33-9.76 10.22-9.12zM176.54 340.27c4.83 1.04 7.77 6.42 6.56 12.02-1.21 5.59-6.11 9.28-10.94 8.24-4.83-1.04-7.77-6.43-6.56-12.02 1.21-5.6 6.11-9.28 10.94-8.24zM166.86 386.85c4.9.65 8.27 5.77 7.52 11.44-.74 5.67-5.32 9.75-10.22 9.11-4.9-.64-8.27-5.76-7.53-11.44.75-5.67 5.33-9.75 10.23-9.11zM153.67 361.99c4.83 1.05 7.77 6.43 6.56 12.03-1.21 5.59-6.11 9.27-10.94 8.23s-7.77-6.42-6.56-12.02 6.11-9.28 10.94-8.24zM143.29 336.71c4.83 1.05 7.77 6.43 6.55 12.03-1.2 5.59-6.1 9.28-10.94 8.23-4.83-1.04-7.76-6.42-6.55-12.02 1.21-5.59 6.11-9.28 10.94-8.24zM122.27 367.41c4.9.65 8.27 5.77 7.53 11.45-.75 5.67-5.33 9.75-10.23 9.11-4.9-.65-8.27-5.77-7.53-11.44.75-5.68 5.33-9.76 10.23-9.12zM111.97 337.69c4.91.64 8.28 5.77 7.53 11.45-.74 5.67-5.32 9.74-10.22 9.1-4.9-.64-8.27-5.76-7.53-11.43.75-5.69 5.33-9.76 10.22-9.12zM83.39 342.26c4.91.64 8.28 5.76 7.53 11.45-.74 5.67-5.32 9.75-10.23 9.11-4.89-.65-8.26-5.78-7.52-11.45.75-5.67 5.33-9.75 10.22-9.11z" fill="#ffffc2"/><g fill="none" stroke="#231f20"><path d="M501.34 338.04c1.48 7.02 2.82 13.27 3.95 18.49 0 0 .67.65 45.45-.86 63.45-2.15 191.64-9.43 219.939 0 28.29 9.43 38.2 33.75-6.859 52.3-46.36 19.089-151.79 53.9-193.07 67.37 0 0-18.3 3.8-14.87 16.24 3.43 12.43 33.01 103.33 54.45 167.63 8.35 25.07 15.43 62.6-3.43 69.46-35.24 12.82-55.761-15.02-103.761-82.32-55.439-77.739-72.67-96.25-79.53-96.25l-.85-.43c-14.8-3-37.95 21.22-97.9 90.25-54.2 62.4-75.34 89.811-109.55 74.43-18.3-8.229-8.47-45.149 1.71-69.52 26.13-62.55 62.33-151.021 66.67-163.16 4.34-12.15-13.63-17.3-13.63-17.3-40.17-16.48-142.75-58.97-187.57-81.43-43.56-21.82-31.89-45.35-2.98-52.67 28.92-7.31 156.22 9.42 219.34 16.24 44.54 4.81 45.26 4.21 45.26 4.21 8.6-29.03 26.02-90.08 39.22-140.69 13.21-50.61 17.99-99.17 49.3-96.95l1.92-.08c31.72-.86 32.58 48.88 42.01 100.33 5.171 28.15 11.351 59.51 16.95 86.98.54 2.66 1.08 5.28 1.61 7.86 1.68 8.2 3.3 15.98 4.79 23.11.491 2.33.971 4.58 1.431 6.76z" stroke-width="14"/><path d="M279.63 372.58c0 5.72-4.01 10.36-8.96 10.36-4.94 0-8.95-4.64-8.95-10.36 0-5.73 4.01-10.37 8.95-10.37 4.95 0 8.96 4.64 8.96 10.37zM248.94 367.46c0 5.73-4.01 10.37-8.95 10.37-4.94 0-8.95-4.64-8.95-10.37 0-5.72 4.01-10.36 8.95-10.36 4.94 0 8.95 4.64 8.95 10.36zM343.28 382.72c0 5.72-4.01 10.36-8.96 10.36-4.94 0-8.95-4.64-8.95-10.36 0-5.73 4.01-10.37 8.95-10.37 4.95 0 8.96 4.64 8.96 10.37zM312.59 377.6c0 5.72-4.01 10.37-8.95 10.37s-8.95-4.65-8.95-10.37c0-5.72 4.01-10.36 8.95-10.36s8.95 4.64 8.95 10.36zM230.86 389.91c-.75 5.67-5.33 9.75-10.23 9.11-4.9-.65-8.27-5.77-7.52-11.44.74-5.68 5.32-9.76 10.22-9.11 4.9.64 8.27 5.76 7.53 11.44zM201.1 380.85c-.75 5.67-5.32 9.75-10.23 9.11-4.89-.65-8.26-5.77-7.52-11.44.75-5.68 5.33-9.76 10.22-9.12 4.91.64 8.28 5.77 7.53 11.45zM292.64 408.25c-.74 5.67-5.32 9.75-10.22 9.11-4.9-.64-8.27-5.77-7.53-11.44.75-5.68 5.33-9.76 10.23-9.11 4.9.64 8.27 5.76 7.52 11.44zM262.89 399.19c-.75 5.67-5.33 9.75-10.23 9.11-4.9-.65-8.27-5.77-7.53-11.45.75-5.67 5.33-9.75 10.23-9.11 4.9.65 8.27 5.77 7.53 11.45zM119.5 349.14c-.74 5.67-5.32 9.74-10.22 9.1-4.9-.64-8.27-5.76-7.53-11.43.75-5.69 5.33-9.76 10.22-9.12 4.91.64 8.28 5.77 7.53 11.45zM90.92 353.71c-.74 5.67-5.32 9.75-10.23 9.11-4.89-.65-8.26-5.78-7.52-11.45.75-5.67 5.33-9.75 10.22-9.11 4.91.64 8.28 5.76 7.53 11.45zM174.38 398.29c-.74 5.67-5.32 9.75-10.22 9.11-4.9-.64-8.27-5.76-7.53-11.44.75-5.67 5.33-9.75 10.23-9.11 4.9.65 8.27 5.77 7.52 11.44zM129.8 378.86c-.75 5.67-5.33 9.75-10.23 9.11-4.9-.65-8.27-5.77-7.53-11.44.75-5.68 5.33-9.76 10.23-9.12 4.9.65 8.27 5.77 7.53 11.45zM234.78 420.82c-1.21 5.59-6.1 9.27-10.94 8.23-4.83-1.04-7.77-6.43-6.56-12.02 1.21-5.6 6.11-9.28 10.94-8.24 4.83 1.05 7.77 6.43 6.56 12.03zM205.87 409.33c-1.21 5.59-6.11 9.29-10.94 8.24-4.83-1.04-7.77-6.43-6.56-12.02 1.21-5.6 6.11-9.29 10.94-8.24 4.83 1.04 7.77 6.42 6.56 12.02zM294.85 444.18c-1.21 5.58-6.11 9.271-10.94 8.23-4.83-1.05-7.77-6.43-6.56-12.021 1.21-5.6 6.11-9.279 10.94-8.239 4.83 1.05 7.77 6.43 6.56 12.03zM265.94 432.69c-1.21 5.59-6.11 9.279-10.94 8.239s-7.77-6.43-6.56-12.02c1.21-5.6 6.11-9.29 10.94-8.24 4.83 1.041 7.77 6.421 6.56 12.021zM160.23 374.02c-1.21 5.59-6.11 9.27-10.94 8.23s-7.77-6.42-6.56-12.02 6.11-9.28 10.94-8.24c4.83 1.05 7.77 6.43 6.56 12.03zM149.84 348.74c-1.2 5.59-6.1 9.28-10.94 8.23-4.83-1.04-7.76-6.42-6.55-12.02 1.21-5.59 6.11-9.28 10.94-8.24 4.83 1.05 7.77 6.43 6.55 12.03zM220.53 353.86c-1.2 5.58-6.1 9.27-10.94 8.23-4.82-1.05-7.76-6.43-6.56-12.02 1.21-5.6 6.11-9.28 10.94-8.24 4.83 1.05 7.78 6.43 6.56 12.03zM183.1 352.29c-1.21 5.59-6.11 9.28-10.94 8.24-4.83-1.04-7.77-6.43-6.56-12.02 1.21-5.6 6.11-9.28 10.94-8.24s7.77 6.42 6.56 12.02zM307.61 511.07c5.54 1.42 9.04 6.46 7.82 11.25-1.23 4.779-6.72 7.52-12.26 6.1-5.55-1.42-9.05-6.46-7.82-11.25 1.23-4.78 6.71-7.52 12.26-6.1zM295.04 539.53c5.54 1.42 9.04 6.45 7.81 11.239-1.23 4.79-6.71 7.521-12.25 6.101-5.56-1.42-9.05-6.46-7.83-11.24 1.23-4.79 6.72-7.53 12.27-6.1zM322.12 451.04c5.54 1.42 9.04 6.45 7.81 11.24-1.22 4.79-6.71 7.52-12.26 6.1-5.54-1.42-9.04-6.46-7.81-11.24 1.22-4.79 6.72-7.52 12.26-6.1zM320.66 480.39c5.54 1.42 9.04 6.45 7.82 11.24-1.23 4.79-6.72 7.521-12.27 6.101-5.54-1.421-9.04-6.45-7.81-11.24s6.71-7.531 12.26-6.101zM312.29 562.62c5.31 2.13 8.13 7.58 6.29 12.17-1.84 4.58-7.64 6.58-12.95 4.45-5.32-2.141-8.13-7.59-6.29-12.17 1.84-4.59 7.63-6.59 12.95-4.45zM296.12 589.2c5.32 2.13 8.13 7.569 6.29 12.16-1.84 4.58-7.64 6.58-12.95 4.449-5.31-2.13-8.13-7.579-6.29-12.17 1.84-4.579 7.64-6.579 12.95-4.439zM345.4 507.32c5.3 2.13 8.13 7.58 6.28 12.17-1.84 4.59-7.64 6.569-12.95 4.439-5.32-2.13-8.13-7.569-6.28-12.16 1.84-4.589 7.63-6.579 12.95-4.449zM329.22 533.89c5.32 2.141 8.13 7.58 6.29 12.17-1.84 4.591-7.63 6.58-12.95 4.45-5.31-2.13-8.13-7.58-6.29-12.17s7.64-6.57 12.95-4.45zM245.15 660.37c5.31 2.13 8.12 7.57 6.28 12.16-1.84 4.59-7.64 6.58-12.94 4.45-5.32-2.131-8.13-7.58-6.29-12.16 1.84-4.59 7.64-6.58 12.95-4.45zM242.49 689.19c5.3 2.13 8.12 7.579 6.28 12.17-1.84 4.58-7.64 6.569-12.95 4.449-5.32-2.14-8.13-7.59-6.29-12.17 1.84-4.589 7.64-6.579 12.96-4.449zM306.4 619.41c5.3 2.13 8.12 7.58 6.28 12.17-1.84 4.58-7.64 6.57-12.95 4.439-5.31-2.13-8.13-7.569-6.29-12.159 1.84-4.59 7.64-6.58 12.96-4.45zM276.5 657.77c5.31 2.141 8.13 7.58 6.28 12.171-1.84 4.59-7.63 6.579-12.95 4.449-5.31-2.13-8.12-7.58-6.29-12.17 1.85-4.59 7.64-6.58 12.96-4.45zM343.21 566.49c5.11 2.56 7.46 8.22 5.25 12.64-2.2 4.42-8.15 5.93-13.26 3.37-5.13-2.56-7.49-8.22-5.28-12.64 2.22-4.43 8.16-5.93 13.29-3.37zM324.91 591.65c5.11 2.55 7.47 8.22 5.26 12.64s-8.15 5.93-13.28 3.37c-5.12-2.57-7.48-8.23-5.26-12.65 2.21-4.41 8.15-5.93 13.28-3.36zM380.74 514.1c5.11 2.551 7.48 8.221 5.27 12.641-2.22 4.42-8.16 5.93-13.27 3.37-5.13-2.561-7.48-8.221-5.27-12.641 2.21-4.42 8.15-5.94 13.27-3.37zM362.44 539.25c5.11 2.56 7.48 8.22 5.27 12.65-2.21 4.42-8.16 5.93-13.27 3.369-5.13-2.56-7.48-8.22-5.28-12.649 2.22-4.42 8.16-5.93 13.28-3.37zM279.37 627.09c5.11 2.561 7.46 8.22 5.25 12.641-2.2 4.42-8.14 5.93-13.26 3.369-5.13-2.56-7.49-8.22-5.28-12.64 2.22-4.43 8.16-5.93 13.29-3.37zM252.3 630.88c5.11 2.55 7.48 8.22 5.26 12.64-2.21 4.421-8.15 5.931-13.27 3.37-5.12-2.569-7.48-8.229-5.27-12.649 2.21-4.411 8.15-5.931 13.28-3.361zM274.8 563.67c5.12 2.561 7.47 8.22 5.26 12.64-2.21 4.421-8.16 5.931-13.27 3.37-5.12-2.56-7.47-8.22-5.26-12.64s8.15-5.93 13.27-3.37zM263.99 599.54c5.12 2.56 7.48 8.229 5.27 12.65-2.21 4.409-8.16 5.92-13.27 3.359-5.12-2.56-7.48-8.22-5.27-12.63 2.22-4.429 8.15-5.939 13.27-3.379zM527.19 523.65c-5.54 1.42-9.051 6.449-7.82 11.25 1.229 4.779 6.72 7.52 12.26 6.1 5.55-1.42 9.04-6.46 7.82-11.24-1.23-4.8-6.72-7.53-12.26-6.11zM539.75 552.11c-5.54 1.42-9.03 6.439-7.81 11.239 1.229 4.78 6.72 7.521 12.26 6.101 5.56-1.42 9.05-6.46 7.819-11.24-1.229-4.8-6.709-7.53-12.269-6.1zM501.56 464.51c-5.529 1.42-9.04 6.45-7.81 11.25 1.22 4.78 6.72 7.521 12.26 6.101 5.55-1.42 9.05-6.46 7.82-11.24-1.23-4.801-6.72-7.531-12.27-6.111zM514.14 492.96c-5.54 1.42-9.05 6.46-7.819 11.25 1.229 4.79 6.72 7.51 12.26 6.09 5.55-1.42 9.04-6.439 7.82-11.24-1.231-4.78-6.721-7.52-12.261-6.1zM522.5 575.2c-5.31 2.13-8.12 7.58-6.28 12.16s7.641 6.58 12.95 4.449c5.32-2.13 8.13-7.579 6.29-12.17-1.84-4.579-7.64-6.569-12.96-4.439zM538.68 601.78c-5.319 2.13-8.14 7.569-6.29 12.16 1.841 4.59 7.641 6.579 12.95 4.449 5.3-2.13 8.13-7.58 6.29-12.159-1.84-4.6-7.63-6.6-12.95-4.45zM489.4 519.89c-5.311 2.141-8.131 7.591-6.28 12.17 1.83 4.601 7.63 6.58 12.939 4.45 5.32-2.13 8.131-7.569 6.29-12.17-1.839-4.58-7.629-6.58-12.949-4.45zM505.57 546.46c-5.32 2.14-8.12 7.59-6.28 12.18 1.83 4.591 7.63 6.57 12.95 4.44 5.31-2.13 8.12-7.57 6.29-12.16-1.84-4.59-7.64-6.57-12.96-4.46zM589.64 672.95c-5.3 2.13-8.12 7.569-6.279 12.16 1.85 4.59 7.64 6.58 12.939 4.449 5.32-2.13 8.13-7.579 6.3-12.159-1.84-4.6-7.64-6.58-12.96-4.45zM592.31 701.77c-5.31 2.131-8.13 7.58-6.279 12.16 1.84 4.58 7.63 6.58 12.939 4.45 5.32-2.13 8.13-7.58 6.3-12.16-1.84-4.6-7.64-6.58-12.96-4.45zM528.4 631.99c-5.311 2.13-8.12 7.569-6.28 12.17 1.84 4.58 7.64 6.57 12.95 4.439 5.31-2.13 8.13-7.58 6.29-12.159-1.85-4.6-7.64-6.58-12.96-4.45zM558.29 670.35c-5.3 2.131-8.12 7.58-6.28 12.16 1.851 4.601 7.63 6.58 12.95 4.45s8.12-7.57 6.29-12.16c-1.84-4.59-7.64-6.58-12.96-4.45zM491.58 579.07c-5.1 2.56-7.46 8.21-5.25 12.63s8.15 5.939 13.26 3.38c5.141-2.561 7.49-8.23 5.28-12.65s-8.16-5.92-13.29-3.36zM509.89 604.23c-5.109 2.539-7.47 8.21-5.26 12.63 2.21 4.43 8.15 5.939 13.28 3.38 5.12-2.57 7.479-8.23 5.26-12.65-2.21-4.42-8.15-5.93-13.28-3.36zM454.05 526.67c-5.1 2.561-7.47 8.23-5.26 12.65 2.21 4.41 8.16 5.92 13.26 3.37 5.13-2.561 7.49-8.221 5.28-12.641-2.22-4.419-8.14-5.929-13.28-3.379zM472.36 551.83c-5.12 2.56-7.48 8.229-5.271 12.65 2.21 4.42 8.16 5.92 13.26 3.359 5.141-2.56 7.48-8.21 5.28-12.63-2.209-4.429-8.159-5.939-13.269-3.379zM555.42 639.67c-5.1 2.561-7.46 8.21-5.25 12.63s8.15 5.94 13.271 3.38c5.13-2.56 7.489-8.229 5.27-12.649-2.211-4.421-8.151-5.921-13.291-3.361zM582.5 643.46c-5.12 2.54-7.47 8.21-5.26 12.63s8.16 5.94 13.27 3.38c5.12-2.569 7.48-8.229 5.271-12.649s-8.161-5.931-13.281-3.361zM559.99 576.25c-5.11 2.55-7.471 8.22-5.26 12.64 2.21 4.42 8.159 5.92 13.27 3.37 5.12-2.569 7.48-8.22 5.27-12.64-2.21-4.42-8.16-5.94-13.28-3.37zM570.81 612.12c-5.119 2.56-7.479 8.229-5.27 12.649 2.2 4.41 8.16 5.921 13.26 3.36 5.141-2.56 7.48-8.22 5.271-12.63-2.211-4.439-8.151-5.939-13.261-3.379zM395.13 324.91c5.43 1.77 11.09-.59 12.64-5.3 1.53-4.69-1.63-9.94-7.07-11.72-5.44-1.79-11.1.59-12.64 5.28-1.54 4.7 1.63 9.95 7.07 11.74zM399.82 294.15c5.43 1.78 11.08-.59 12.62-5.29 1.54-4.69-1.62-9.94-7.06-11.72-5.45-1.79-11.1.58-12.64 5.28-1.53 4.7 1.62 9.95 7.08 11.73zM384.97 388.55c5.43 1.78 11.1-.59 12.63-5.29 1.55-4.69-1.62-9.95-7.06-11.73-5.44-1.78-11.1.59-12.63 5.28-1.55 4.71 1.62 9.96 7.06 11.74zM389.65 357.79c5.44 1.78 11.1-.58 12.63-5.28 1.54-4.7-1.63-9.95-7.06-11.72-5.44-1.79-11.09.58-12.64 5.27-1.53 4.7 1.63 9.95 7.07 11.73zM426.77 283.94c5.62 1.06 10.931-2.03 11.841-6.88.909-4.86-2.91-9.66-8.54-10.71-5.63-1.06-10.93 2.03-11.84 6.88-.911 4.86 2.909 9.65 8.539 10.71zM427.41 252.83c5.63 1.07 10.92-2.01 11.84-6.88.9-4.85-2.92-9.65-8.54-10.71-5.62-1.05-10.93 2.03-11.84 6.88-.92 4.87 2.9 9.67 8.54 10.71zM424.98 348.37c5.62 1.05 10.94-2.03 11.84-6.88.92-4.87-2.91-9.66-8.53-10.71-5.63-1.06-10.92 2.02-11.84 6.88-.91 4.86 2.9 9.65 8.53 10.71zM425.62 317.27c5.63 1.06 10.92-2.04 11.83-6.89.93-4.86-2.9-9.65-8.53-10.71-5.62-1.05-10.92 2.02-11.84 6.89-.92 4.85 2.91 9.64 8.54 10.71zM422.65 165.42c5.62 1.06 10.92-2.02 11.84-6.88.899-4.86-2.91-9.65-8.53-10.7-5.63-1.07-10.93 2.02-11.85 6.87-.92 4.87 2.91 9.66 8.54 10.71zM435.88 139.69c5.62 1.05 10.94-2.03 11.84-6.89.9-4.86-2.91-9.65-8.52-10.7-5.641-1.07-10.94 2.02-11.851 6.88-.929 4.86 2.901 9.65 8.531 10.71zM452.31 232.87c5.62 1.05 10.91-2.02 11.83-6.89.91-4.85-2.92-9.65-8.529-10.7-5.63-1.06-10.931 2.03-11.851 6.88-.91 4.87 2.91 9.65 8.55 10.71zM447.7 184.46c5.62 1.05 10.92-2.04 11.83-6.89.92-4.87-2.9-9.65-8.53-10.71s-10.92 2.03-11.84 6.89c-.91 4.85 2.9 9.65 8.54 10.71zM454.92 297.29c5.69.58 10.72-2.92 11.23-7.84.51-4.92-3.681-9.38-9.381-9.97-5.699-.6-10.729 2.91-11.239 7.83-.52 4.92 3.7 9.38 9.39 9.98zM453 266.23c5.68.6 10.71-2.92 11.22-7.83.511-4.92-3.68-9.38-9.38-9.98-5.7-.58-10.729 2.92-11.24 7.84-.51 4.91 3.7 9.39 9.4 9.97zM458.44 361.64c5.68.58 10.729-2.92 11.239-7.84.49-4.9-3.71-9.38-9.39-9.96-5.7-.6-10.72 2.9-11.23 7.82-.509 4.92 3.671 9.38 9.381 9.98zM456.51 330.59c5.7.59 10.73-2.92 11.24-7.84s-3.7-9.38-9.38-9.96c-5.71-.6-10.72 2.91-11.24 7.82-.51 4.92 3.7 9.39 9.38 9.98zM433.64 211.88c5.681.58 10.7-2.92 11.21-7.84.511-4.91-3.68-9.38-9.369-9.97-5.711-.6-10.74 2.91-11.25 7.83-.511 4.92 3.699 9.38 9.409 9.98zM412.83 194.13c5.69.61 10.72-2.91 11.23-7.82.51-4.92-3.69-9.39-9.39-9.98-5.69-.58-10.72 2.92-11.23 7.84-.51 4.91 3.69 9.38 9.39 9.96zM395.72 262.91c5.68.6 10.71-2.91 11.22-7.83.52-4.91-3.7-9.37-9.38-9.98-5.7-.58-10.73 2.92-11.24 7.84-.51 4.92 3.7 9.39 9.4 9.97zM405.86 226.85c5.7.59 10.73-2.92 11.24-7.84.51-4.9-3.7-9.38-9.38-9.96-5.7-.6-10.73 2.92-11.23 7.83-.52 4.92 3.68 9.38 9.37 9.97zM499.91 331.28c-1.891-2.5-5.22-4.12-8.96-4.01-5.73.17-10.24 4.31-10.101 9.25.141 4.95 4.9 8.82 10.631 8.65 4.859-.15 8.869-3.18 9.859-7.13.17-.69.25-1.41.23-2.14-.049-1.71-.649-3.29-1.659-4.62zM493.51 300.31c-1.939-2.25-5.08-3.66-8.59-3.56-5.72.17-10.229 4.31-10.1 9.26.16 4.94 4.91 8.81 10.63 8.64 4.6-.14 8.42-2.85 9.67-6.48.31-.88.46-1.81.43-2.78-.06-1.92-.81-3.67-2.04-5.08zM467.35 392.38c5.681.58 10.71-2.93 11.221-7.84.51-4.92-3.681-9.38-9.38-9.97-5.7-.6-10.73 2.91-11.24 7.83-.521 4.91 3.699 9.38 9.399 9.98zM422.76 380.94c5.681.6 10.71-2.92 11.221-7.83.51-4.92-3.69-9.39-9.38-9.99-5.71-.58-10.73 2.93-11.24 7.85-.511 4.91 3.699 9.38 9.399 9.97zM507.34 449.55c5.68.57 10.73-2.93 11.24-7.85.5-4.9-3.7-9.37-9.39-9.96-5.7-.601-10.721 2.91-11.23 7.83-.5 4.91 3.68 9.38 9.38 9.98zM505.42 418.49c5.69.59 10.72-2.92 11.23-7.84.51-4.91-3.7-9.38-9.381-9.96-5.71-.59-10.72 2.92-11.239 7.82-.51 4.92 3.7 9.39 9.39 9.98zM559.32 380.89c-.75 5.67 2.609 10.8 7.51 11.45 4.89.66 9.49-3.41 10.24-9.08.76-5.68-2.61-10.81-7.5-11.46-4.9-.66-9.49 3.42-10.25 9.09zM590.42 379.87c-.76 5.67 2.6 10.81 7.5 11.46 4.9.66 9.48-3.42 10.24-9.09.76-5.67-2.601-10.81-7.5-11.46-4.9-.65-9.49 3.42-10.24 9.09zM494.89 382.54c-.76 5.67 2.61 10.79 7.5 11.45 4.91.65 9.49-3.42 10.25-9.09.75-5.68-2.609-10.81-7.51-11.46-4.9-.65-9.48 3.42-10.24 9.1zM525.98 381.52c-.761 5.67 2.609 10.8 7.51 11.45 4.89.66 9.49-3.41 10.24-9.09.75-5.67-2.61-10.8-7.5-11.46-4.9-.65-9.49 3.42-10.25 9.1zM605.37 404.52c-.01 5.71 4 10.36 8.939 10.37 4.94.01 8.96-4.62 8.971-10.34.01-5.73-3.99-10.38-8.931-10.39-4.939-.01-8.959 4.63-8.979 10.36zM636.07 399.46c-.021 5.71 3.989 10.37 8.93 10.38 4.94.01 8.96-4.63 8.97-10.35.021-5.73-3.989-10.37-8.93-10.38-4.94-.01-8.96 4.62-8.97 10.35zM541.71 414.53c0 5.73 3.99 10.37 8.93 10.38 4.94.01 8.96-4.62 8.971-10.34.01-5.73-3.99-10.38-8.931-10.39-4.94 0-8.96 4.63-8.97 10.35zM572.4 409.48c0 5.72 3.989 10.37 8.939 10.38 4.94.01 8.95-4.63 8.97-10.35 0-5.73-4-10.37-8.93-10.38-4.949-.01-8.969 4.62-8.979 10.35zM721.15 378.8c-.021 5.72 3.97 10.37 8.93 10.38 4.939.01 8.95-4.62 8.96-10.35.01-5.72-3.99-10.37-8.92-10.38-4.95-.01-8.97 4.62-8.97 10.35zM748.87 387.1c-.01 5.73 3.99 10.38 8.93 10.39 4.94.01 8.96-4.63 8.97-10.35.011-5.72-3.989-10.37-8.93-10.38-4.94-.01-8.96 4.62-8.97 10.34zM660.25 420.28c-.01 5.72 3.99 10.371 8.93 10.38 4.95.01 8.96-4.62 8.98-10.35 0-5.72-4-10.37-8.94-10.38-4.94-.01-8.96 4.63-8.97 10.35zM707.01 406.91c-.01 5.72 3.99 10.37 8.94 10.38 4.93.01 8.95-4.63 8.97-10.35.01-5.73-4-10.37-8.93-10.38-4.95-.01-8.97 4.62-8.98 10.35zM597.41 434.63c.45 5.7 4.82 10.01 9.74 9.61 4.939-.4 8.56-5.351 8.1-11.05-.46-5.71-4.83-10.01-9.75-9.61-4.93.4-8.55 5.34-8.09 11.05zM627.59 427.06c.45 5.71 4.82 10.011 9.74 9.62 4.93-.399 8.56-5.35 8.1-11.05-.47-5.71-4.83-10.01-9.76-9.61-4.92.39-8.55 5.33-8.08 11.04zM534.78 449.86c.45 5.689 4.819 9.989 9.76 9.59 4.92-.391 8.55-5.351 8.08-11.04-.46-5.71-4.83-10.01-9.75-9.62-4.93.4-8.55 5.35-8.09 11.07zM564.95 442.28c.46 5.71 4.83 10 9.76 9.609 4.92-.39 8.55-5.35 8.09-11.05-.47-5.7-4.83-10.01-9.76-9.609-4.93.4-8.54 5.35-8.09 11.05zM677.48 398.08c.46 5.71 4.829 10.01 9.76 9.62 4.93-.4 8.54-5.35 8.09-11.05-.46-5.71-4.83-10.01-9.75-9.61-4.94.39-8.55 5.34-8.1 11.04zM691.11 374.4c.46 5.71 4.83 10 9.77 9.61 4.92-.4 8.54-5.34 8.08-11.05s-4.83-10.01-9.75-9.61c-4.93.4-8.55 5.34-8.1 11.05zM620.37 370.14c.46 5.7 4.83 10 9.76 9.6 4.92-.39 8.55-5.34 8.08-11.04-.45-5.71-4.83-10.01-9.75-9.62-4.93.4-8.54 5.35-8.09 11.06zM657.69 373.53c.449 5.7 4.829 10.01 9.76 9.61 4.91-.39 8.53-5.34 8.069-11.05-.449-5.7-4.829-10.01-9.739-9.62-4.93.4-8.56 5.35-8.09 11.06zM405.12 456.43c5.54 1.431 9.04 6.46 7.82 11.261-1.23 4.779-6.72 7.52-12.27 6.1-5.54-1.42-9.04-6.46-7.81-11.25 1.22-4.791 6.71-7.531 12.26-6.111zM392.55 484.89c5.54 1.42 9.04 6.46 7.81 11.24-1.23 4.8-6.71 7.53-12.25 6.11-5.56-1.431-9.05-6.471-7.83-11.25 1.23-4.78 6.71-7.52 12.27-6.1zM430.74 397.29c5.54 1.42 9.04 6.46 7.81 11.26-1.22 4.78-6.72 7.51-12.26 6.09s-9.04-6.45-7.81-11.24c1.22-4.79 6.71-7.53 12.26-6.11zM418.17 425.75c5.54 1.42 9.04 6.46 7.82 11.24-1.23 4.8-6.72 7.52-12.27 6.1-5.54-1.42-9.04-6.45-7.82-11.24 1.23-4.79 6.72-7.52 12.27-6.1zM368.93 450.68c5.31 2.141 8.13 7.58 6.29 12.181-1.84 4.58-7.64 6.58-12.96 4.449-5.32-2.149-8.12-7.59-6.28-12.17 1.84-4.59 7.63-6.59 12.95-4.46zM352.76 477.26c5.31 2.13 8.13 7.59 6.29 12.17-1.85 4.58-7.64 6.58-12.95 4.45s-8.14-7.59-6.3-12.17c1.84-4.58 7.64-6.58 12.96-4.45zM402.03 395.39c5.31 2.13 8.13 7.58 6.29 12.16-1.84 4.6-7.64 6.58-12.95 4.45-5.32-2.13-8.13-7.57-6.29-12.17 1.84-4.58 7.64-6.57 12.95-4.44zM385.86 421.96c5.32 2.14 8.13 7.58 6.29 12.17-1.84 4.59-7.63 6.58-12.95 4.45-5.32-2.13-8.13-7.58-6.29-12.16 1.84-4.6 7.64-6.58 12.95-4.46zM320.7 402.53c5.31 2.13 8.12 7.58 6.28 12.16-1.84 4.6-7.64 6.58-12.95 4.45s-8.13-7.57-6.29-12.16c1.85-4.59 7.64-6.58 12.96-4.45zM347.08 424.55c5.31 2.15 8.13 7.59 6.29 12.181-1.84 4.59-7.64 6.579-12.95 4.449-5.32-2.13-8.13-7.58-6.29-12.16 1.84-4.6 7.64-6.6 12.95-4.47zM443.26 469.2c5.49 1.59 8.83 6.74 7.45 11.49-1.35 4.739-6.93 7.31-12.42 5.71-5.51-1.591-8.85-6.721-7.48-11.471 1.37-4.749 6.95-7.309 12.45-5.729zM429.83 497.27c5.49 1.58 8.84 6.73 7.46 11.48-1.37 4.75-6.94 7.31-12.44 5.72-5.5-1.59-8.85-6.729-7.47-11.479 1.37-4.741 6.94-7.311 12.45-5.721zM470.66 410.87c5.49 1.59 8.85 6.74 7.47 11.49-1.37 4.73-6.939 7.3-12.439 5.71s-8.841-6.72-7.471-11.47 6.93-7.31 12.44-5.73zM457.24 438.94c5.479 1.59 8.83 6.72 7.47 11.479-1.38 4.74-6.95 7.311-12.45 5.72-5.49-1.59-8.84-6.729-7.47-11.489 1.37-4.74 6.93-7.31 12.45-5.71zM469.44 492.05c5.1 2.561 7.46 8.22 5.25 12.641-2.21 4.43-8.15 5.939-13.271 3.369-5.12-2.56-7.49-8.22-5.28-12.64 2.221-4.42 8.161-5.93 13.301-3.37zM545.46 473.71c5.11 2.56 7.47 8.23 5.26 12.65s-8.16 5.92-13.279 3.359c-5.11-2.56-7.471-8.22-5.261-12.649 2.21-4.4 8.15-5.92 13.28-3.36zM480.29 457.71c5.11 2.56 7.47 8.22 5.26 12.65-2.21 4.42-8.16 5.92-13.27 3.359-5.12-2.56-7.48-8.229-5.271-12.649 2.211-4.41 8.151-5.92 13.281-3.36zM366.53 393.68c5.11 2.56 7.47 8.21 5.26 12.63s-8.16 5.94-13.27 3.38c-5.12-2.56-7.48-8.23-5.27-12.65 2.21-4.41 8.16-5.92 13.28-3.36zM364.24 344.51c5.11 2.56 7.47 8.22 5.26 12.64s-8.16 5.93-13.27 3.37c-5.12-2.55-7.47-8.22-5.26-12.64 2.21-4.41 8.15-5.92 13.27-3.37zM375.68 307.93c5.11 2.56 7.47 8.21 5.25 12.63-2.21 4.42-8.16 5.94-13.27 3.38-5.11-2.56-7.47-8.23-5.26-12.65 2.21-4.41 8.15-5.92 13.28-3.36zM412.7 522.81c5.12 2.561 7.48 8.23 5.27 12.65-2.2 4.42-8.16 5.92-13.27 3.36-5.12-2.561-7.48-8.21-5.27-12.63 2.22-4.43 8.16-5.94 13.27-3.38z" stroke-width="6.86"/></g><path fill="none" d="M0 0h850.394v850.394H0z"/></svg>