<svg xmlns="http://www.w3.org/2000/svg" width="850.394" height="850.394" viewBox="0 0 850.394 850.394" overflow="visible"><path d="M714.65 237.15c62.279 81.31 74.39 245.66 34.6 301.03S519.14 707.74 418.79 695.62C319.2 683.6 225.58 588.1 218 554c-20-90-4-114 10.48-166.33.17-.62.43-1.31.78-2.07 7.01-15.27 48.06-57.96 51.05-82.02 5.24-7.58 17.06-24.07 33.87-43.56 37.3-43.26 99.31-101.38 168.629-109.38 89.971-10.38 169.561 5.19 231.841 86.51z" fill="#c8c8c8"/><path d="M279.93 218.74c39.78-39.8 96.01-31.14 96.01-31.14s-31.85 37.65-61.93 72.28c-10.47 12.05-20.72 23.73-29.34 33.34-17.39 19.38-39.76 51.37-57.44 91.49-16.3 36.96-28.6 80.79-29.39 128.021C196.22 611.23 320 666 320 666s-75.55 14.68-149.94-13C95.67 625.33 59.33 560.44 59.33 493.84c0-51.44 180.81-235.31 220.6-275.1z" fill="#231f20"/><g fill="none" stroke="#231f20" stroke-width="31.142"><path d="M280.31 303.58c.03-.23.06-.46.08-.69-1.97 3.26-2.98 4.88-3.11 5.12-.02.03-.02.03 0 0 .16-.21 1.19-1.78 3.03-4.43 5.24-7.58 17.06-24.07 33.87-43.56 37.3-43.26 99.31-101.38 168.629-109.38 89.971-10.38 169.561 5.19 231.841 86.51 62.279 81.31 74.39 245.66 34.6 301.03S519.14 707.74 418.79 695.62C319.2 683.6 225.58 588.1 218 554c-20-90-4-114 10.48-166.33.17-.62.43-1.31.78-2.07 7.01-15.27 48.06-57.96 51.05-82.02z"/><path d="M402.74 679.38c5.73-32.45 36.68-109.42 45.069-119.42 6.07-7.229 42.421-96.54 59.591-108.85 20.46-14.67 40.85-20.36 32.43-44.67-10.311-29.74 6.939-70.23 33.81-85.39"/></g><path fill="none" d="M0 0h850.394v850.394H0z"/></svg>