<?xml version="1.0" encoding="iso-8859-1"?>
<!-- Generator: Adobe Illustrator 12.0.1, SVG Export Plug-In . SVG Version: 6.00 Build 51448)  -->
<!DOCTYPE svg PUBLIC "-//W3C//DTD SVG 1.1//EN" "http://www.w3.org/Graphics/SVG/1.1/DTD/svg11.dtd" [
	<!ENTITY ns_svg "http://www.w3.org/2000/svg">
	<!ENTITY ns_xlink "http://www.w3.org/1999/xlink">
]>
<svg  version="1.1" id="Layer_1" xmlns="&ns_svg;" xmlns:xlink="&ns_xlink;" width="850.394" height="850.394"
	 viewBox="0 0 850.394 850.394" style="overflow:visible;enable-background:new 0 0 850.394 850.394;" xml:space="preserve">
<g id="XMLID_15_">
	<g>
		<path style="fill:#787878;" d="M614.77,385.09l-58.14,6.86l0.05,0.41l-1.8,53.26l-0.01,0.02l-0.21,5.44H436.94h-17.2v-0.89V282.76
			l60.6-90.79l-10.12-28.15l28.54,6.79l9.92-90.06c0.5,0.16,1.021,0.33,1.53,0.5c15.96,5.24,36.521,14.05,44.88,18.79
			c13.72,7.79,23.72,51.54,23.72,51.54L614.77,385.09z M533.67,373.22V348.3H471.7v24.92H533.67z M451.43,299.25
			c0-4.33-3.5-7.83-7.819-7.83c-4.32,0-7.841,3.5-7.841,7.83s3.521,7.83,7.841,7.83C447.93,307.08,451.43,303.58,451.43,299.25z
			 M451.34,360.6c0-4.32-3.5-7.82-7.83-7.82c-4.319,0-7.83,3.5-7.83,7.82c0,4.33,3.511,7.85,7.83,7.85
			C447.84,368.45,451.34,364.93,451.34,360.6z"/>
		<path style="fill:#787878;" d="M419.74,450.19v0.89h-2.97H299.02l-1.99-58.73l0.05-0.39l-58.12-6.87l35.94-233.71
			c0,0,10.01-43.75,23.73-51.54c8.63-4.89,31.36-15.08,47.45-20.33l4.49,84.73l28.53-6.8l-11.08,25.04l53.3,76.63
			c-1.67,15.22-1.58,23.65-1.58,23.65V450.19z"/>
		<path style="fill:#787878;" d="M480.34,191.97l-60.6,90.79c0,0-0.09-8.43,1.58-23.65c1.03-9.39,2.73-21.37,5.53-35.55v-0.01
			c2.94-14.82,7.07-32.06,12.91-51.28c14.87-48.99,30.12-96.68,32.181-103.1c0.149-0.48,0.229-0.73,0.229-0.73l38.061,12.55
			l-0.021,0.06c-0.51-0.17-1.03-0.34-1.53-0.5l-9.92,90.06l-28.54-6.79L480.34,191.97z"/>
		<path style="fill:#C8C8C8;" d="M471.64,69.08l0.301,0.09c-2.061,6.42-17.311,54.11-32.181,103.1
			c-5.84,19.22-9.97,36.46-12.91,51.28c-2.97-16.32-6.109-28.93-12.899-51.28c-15.74-51.84-28.15-103.48-28.53-105.08l0.91-0.01
			C386.33,67.18,436,43.17,471.64,69.08z"/>
		<path style="fill:#787878;" d="M426.85,223.55v0.01c-2.8,14.18-4.5,26.16-5.53,35.55l-53.3-76.63l11.08-25.04l-28.53,6.8
			l-4.49-84.73l-0.05-0.16l39.38-12.2c0,0,0,0.01,0.01,0.04c0.38,1.6,12.79,53.24,28.53,105.08
			C420.74,194.62,423.88,207.23,426.85,223.55z"/>
		<polygon style="fill:#787878;" points="419.74,451.08 436.94,451.08 554.66,451.08 541.59,788.71 448.16,788.71 427.4,477.28 
			424.96,477.28 404.2,788.71 310.77,788.71 298.91,451.08 299.02,451.08 416.77,451.08 		"/>
		<rect x="471.7" y="348.3" style="fill:#C8C8C8;" width="61.97" height="24.92"/>
		<path style="fill:#C8C8C8;" d="M443.61,291.42c4.319,0,7.819,3.5,7.819,7.83s-3.5,7.83-7.819,7.83c-4.32,0-7.841-3.5-7.841-7.83
			S439.29,291.42,443.61,291.42z"/>
		<path style="fill:#C8C8C8;" d="M443.51,352.78c4.33,0,7.83,3.5,7.83,7.82c0,4.33-3.5,7.85-7.83,7.85c-4.319,0-7.83-3.52-7.83-7.85
			C435.68,356.28,439.19,352.78,443.51,352.78z"/>
	</g>
	<g>
		<path style="fill:none;stroke:#000000;stroke-width:19.8824;" d="M337.02,222.88l-29.1,170.36l-10.84-1.28l-58.12-6.87
			l35.94-233.71c0,0,10.01-43.75,23.73-51.54c8.63-4.89,31.36-15.08,47.45-20.33l4.49,84.73l28.53-6.8l-11.08,25.04l53.3,76.63
			l5.53,7.96"/>
		<polyline style="fill:none;stroke:#000000;stroke-width:19.8824;" points="416.77,451.08 299.02,451.08 297.03,392.35 		"/>
		<path style="fill:none;stroke:#000000;stroke-width:19.8824;" d="M342.37,80.48l3.66-1.13l39.38-12.2c0,0,0,0.01,0.01,0.04
			c0.38,1.6,12.79,53.24,28.53,105.08c6.79,22.35,9.93,34.96,12.899,51.28"/>
		<path style="fill:none;stroke:#000000;stroke-width:19.8824;" d="M516.69,222.88L545.8,393.23l10.83-1.28l58.14-6.86
			l-35.96-233.71c0,0-10-43.75-23.72-51.54c-8.359-4.74-28.92-13.55-44.88-18.79c-0.51-0.17-1.03-0.34-1.53-0.5l-9.92,90.06
			l-28.54-6.79l10.12,28.15l-60.6,90.79V450.19"/>
		<line style="fill:none;stroke:#000000;stroke-width:19.8824;" x1="554.88" y1="445.62" x2="556.68" y2="392.36"/>
		<polyline style="fill:none;stroke:#000000;stroke-width:19.8824;" points="416.77,451.08 419.74,451.08 436.94,451.08 
			554.66,451.08 554.69,451.08 554.87,445.64 		"/>
		<path style="fill:none;stroke:#000000;stroke-width:6.6275;" d="M435.77,299.25c0,4.33,3.521,7.83,7.841,7.83
			c4.319,0,7.819-3.5,7.819-7.83s-3.5-7.83-7.819-7.83C439.29,291.42,435.77,294.92,435.77,299.25z"/>
		<path style="fill:none;stroke:#000000;stroke-width:6.6275;" d="M435.68,360.6c0,4.33,3.511,7.85,7.83,7.85
			c4.33,0,7.83-3.52,7.83-7.85c0-4.32-3.5-7.82-7.83-7.82C439.19,352.78,435.68,356.28,435.68,360.6z"/>
		<path style="fill:none;stroke:#000000;stroke-width:19.8824;" d="M426.85,223.56c-2.8,14.18-4.5,26.16-5.53,35.55
			c-1.67,15.22-1.58,23.65-1.58,23.65"/>
		<path style="fill:none;stroke:#000000;stroke-width:19.8824;" d="M511.57,81.43l-1.34-0.44L472.17,68.44c0,0-0.08,0.25-0.229,0.73
			c-2.061,6.42-17.311,54.11-32.181,103.1c-5.84,19.22-9.97,36.46-12.91,51.28v0.01"/>
		<rect x="471.7" y="348.3" style="fill:none;stroke:#000000;stroke-width:19.8824;" width="61.97" height="24.92"/>
		<path style="fill:none;stroke:#000000;stroke-width:19.8824;" d="M386.33,67.18c0,0,49.67-24.01,85.31,1.9"/>
		<polyline style="fill:none;stroke:#000000;stroke-width:19.8824;" points="554.97,443.17 554.88,445.62 554.87,445.64 
			554.66,451.08 541.59,788.71 448.16,788.71 427.4,477.28 424.96,477.28 404.2,788.71 310.77,788.71 298.91,451.08 298.63,443.17 
					"/>
	</g>
</g>
<rect style="fill:none;" width="850.394" height="850.394"/>
</svg>
