<svg xmlns="http://www.w3.org/2000/svg" width="850.394" height="850.394" viewBox="0 0 850.394 850.394" overflow="visible"><path d="M475.72 85.49v98.13h.92c1.851.41 3.7.84 5.561 1.3-3.21 18.38-29.41 32.7-61.23 32.7-31.95 0-58.21-14.42-61.27-32.89 1.12-.28 2.24-.55 3.35-.8h1.41V85.49c0-2.48.49-4.89 1.42-7.21l2.74.8c0 8.98 23.43 16.26 52.34 16.26s52.35-7.28 52.35-16.26l.98-.8c.939 2.32 1.429 4.73 1.429 7.21z" fill="#fff"/><path d="M474.29 78.28l-.98.8c0 8.98-23.439 16.26-52.35 16.26s-52.34-7.28-52.34-16.26l-2.74-.8c5.7-14.14 27.8-24.69 54.21-24.69 26.4 0 48.51 10.55 54.2 24.69z" fill="#fff"/><path d="M574.08 482.28c5.84 36.2 12.84 141.33 5.84 200.899-7.01 59.58-28.61 81.19-28.61 81.19s-31.64 34.39-130.35 34.39c-104.54 0-130.82-34.47-130.82-34.47s-21.62-21.61-28.62-81.18c-7.01-59.57 0-164.7 5.84-200.91 5.84-36.21 10.51-134.33 3.5-165.87-7.01-31.54-7.01-71.26 36.21-107.47 14.41-12.07 33.83-19.53 52.63-24.13 3.06 18.47 29.32 32.89 61.27 32.89 31.82 0 58.02-14.32 61.23-32.7 18.66 4.61 37.87 12.05 52.16 24.03 43.229 36.21 43.229 75.92 36.22 107.46s-2.34 129.661 3.5 165.871zm-51.93 254.56v-91.11H420.96v91.109h101.19zm-64.23-335.25c0-20.41-16.54-36.95-36.95-36.95-20.41 0-36.96 16.54-36.96 36.95 0 20.42 16.55 36.96 36.96 36.96s36.95-16.54 36.95-36.96z" fill="orange"/><path d="M522.15 645.73v91.109H420.96V645.73h101.19zm-11.42 32.22v-5.09h-20.65v30.12h6.09v-12.81h12.561v-5.09H496.17v-7.13h14.56zm-26.68 8.83c.67-1.261 1.01-2.811 1.01-4.66 0-2.4-.579-4.351-1.739-5.87-1.17-1.51-2.61-2.49-4.33-2.94-1.12-.3-3.53-.449-7.221-.449h-9.739v30.12h6.09v-11.37h3.95c2.75 0 4.84-.15 6.29-.44 1.069-.229 2.109-.7 3.14-1.42 1.039-.721 1.889-1.711 2.549-2.971zm-34.16-5.05l6.091-.221c-.101-2.77-1.101-4.99-3.011-6.66-1.899-1.659-4.739-2.489-8.52-2.489-2.311 0-4.28.35-5.91 1.05-1.64.689-2.89 1.71-3.76 3.05-.87 1.33-1.3 2.771-1.3 4.3 0 2.391.92 4.41 2.77 6.07 1.31 1.18 3.59 2.17 6.84 2.979 2.53.641 4.15 1.08 4.86 1.32 1.04.37 1.77.811 2.18 1.311.42.5.63 1.109.63 1.819 0 1.11-.5 2.08-1.49 2.91-.989.83-2.47 1.25-4.43 1.25-1.85 0-3.32-.47-4.41-1.4-1.09-.93-1.81-2.39-2.17-4.38l-5.91.561c.4 3.37 1.62 5.939 3.66 7.7 2.04 1.76 4.971 2.64 8.78 2.64 2.62 0 4.8-.36 6.56-1.1 1.75-.73 3.11-1.851 4.07-3.36s1.43-3.13 1.43-4.85c0-1.91-.399-3.511-1.199-4.811a8.4 8.4 0 0 0-3.32-3.06c-1.42-.75-3.6-1.471-6.55-2.181-2.96-.699-4.82-1.37-5.58-2.01-.61-.51-.91-1.12-.91-1.83 0-.78.32-1.399.96-1.859 1-.73 2.37-1.091 4.13-1.091 1.71 0 2.99.341 3.84 1.011.849.681 1.409 1.791 1.669 3.331z" fill="orange"/><path d="M510.73 672.86v5.09h-14.56v7.13h12.56v5.09h-12.56v12.81h-6.09v-30.12zM485.06 682.12c0 1.85-.34 3.399-1.01 4.66-.66 1.26-1.51 2.25-2.55 2.97-1.03.72-2.07 1.19-3.14 1.42-1.45.29-3.54.44-6.29.44h-3.95v11.37h-6.09v-30.12h9.739c3.69 0 6.101.149 7.221.449 1.72.45 3.16 1.431 4.33 2.94 1.16 1.521 1.74 3.471 1.74 5.871zm-6.94 2.44c.46-.67.689-1.46.689-2.35 0-1.1-.319-2-.96-2.72-.64-.71-1.46-1.16-2.439-1.33-.72-.141-2.18-.21-4.36-.21h-2.93v8.56h3.32c2.39 0 3.979-.16 4.79-.47.8-.32 1.44-.81 1.89-1.48z"/><path d="M478.81 682.21c0 .89-.229 1.68-.689 2.35-.45.671-1.09 1.16-1.89 1.48-.811.31-2.4.47-4.79.47h-3.32v-8.56h2.93c2.181 0 3.641.069 4.36.21.979.17 1.8.62 2.439 1.33.64.72.96 1.62.96 2.72z" fill="orange"/><path d="M455.98 681.51l-6.091.221c-.26-1.54-.819-2.65-1.67-3.33-.85-.67-2.13-1.011-3.84-1.011-1.76 0-3.13.36-4.13 1.091-.64.46-.96 1.079-.96 1.859 0 .71.3 1.32.91 1.83.76.64 2.62 1.311 5.58 2.01 2.95.71 5.13 1.431 6.55 2.181a8.387 8.387 0 0 1 3.32 3.06c.8 1.3 1.199 2.9 1.199 4.811 0 1.72-.47 3.34-1.43 4.85s-2.32 2.63-4.07 3.36c-1.76.739-3.939 1.1-6.56 1.1-3.81 0-6.74-.88-8.78-2.64-2.04-1.761-3.26-4.33-3.66-7.7l5.91-.561c.36 1.99 1.08 3.45 2.17 4.38 1.09.931 2.561 1.4 4.41 1.4 1.96 0 3.44-.42 4.43-1.25.99-.83 1.49-1.8 1.49-2.91 0-.71-.21-1.319-.63-1.819-.41-.5-1.14-.94-2.18-1.311-.71-.24-2.33-.68-4.86-1.32-3.25-.81-5.53-1.8-6.84-2.979-1.85-1.66-2.77-3.68-2.77-6.07 0-1.529.43-2.97 1.3-4.3.87-1.34 2.12-2.36 3.76-3.05 1.63-.7 3.6-1.05 5.91-1.05 3.78 0 6.62.83 8.52 2.489 1.912 1.669 2.912 3.889 3.012 6.659zM420.97 364.64c20.41 0 36.95 16.54 36.95 36.95 0 20.42-16.54 36.96-36.95 36.96-20.41 0-36.96-16.54-36.96-36.96 0-20.41 16.55-36.95 36.96-36.95z"/><g fill="none" stroke="#000"><path d="M364.46 192.36V85.49c0-2.48.49-4.89 1.42-7.21 5.7-14.14 27.8-24.69 54.21-24.69 26.4 0 48.51 10.55 54.2 24.69.94 2.32 1.43 4.73 1.43 7.21v109.36" stroke-width="21.026"/><path d="M363.05 183.93c-1.11.25-2.23.52-3.35.8-18.8 4.6-38.22 12.06-52.63 24.13-43.22 36.21-43.22 75.93-36.21 107.47 7.01 31.54 2.34 129.66-3.5 165.87-5.84 36.21-12.85 141.34-5.84 200.91 7 59.569 28.62 81.18 28.62 81.18s26.28 34.47 130.82 34.47c98.71 0 130.35-34.39 130.35-34.39s21.601-21.61 28.61-81.19c7-59.569 0-164.699-5.84-200.899-5.84-36.21-10.51-134.33-3.5-165.87s7.01-71.25-36.22-107.46c-14.29-11.98-33.5-19.42-52.16-24.03-1.86-.46-3.71-.89-5.561-1.3M473.31 79.08c0 8.98-23.439 16.26-52.35 16.26s-52.34-7.28-52.34-16.26" stroke-width="21.026"/><path d="M482.53 181.11c0 1.29-.11 2.56-.33 3.81-3.21 18.38-29.41 32.7-61.23 32.7-31.95 0-58.21-14.42-61.27-32.89-.2-1.19-.3-2.4-.3-3.62" stroke-width="21.026"/><path stroke-width="14.017" d="M420.96 645.73h101.19v91.109H420.96z"/><path d="M457.92 401.59c0 20.42-16.54 36.96-36.95 36.96-20.41 0-36.96-16.54-36.96-36.96 0-20.41 16.55-36.95 36.96-36.95s36.95 16.54 36.95 36.95zM419.69 301.34v45.88M365.53 400.74h-45.87M520.58 400.74H474.7M419.69 455.12v45.87M333.06 309.03l49.65 49.64M460.68 443.65l49.64 49.64M509.88 309.76l-49.64 49.64M375.26 437.38l-49.64 49.64" stroke-width="21.026"/></g><path fill="none" d="M0 0h850.394v850.394H0z"/></svg>