<?xml version="1.0" encoding="iso-8859-1"?>
<!-- Generator: Adobe Illustrator 12.0.1, SVG Export Plug-In . SVG Version: 6.00 Build 51448)  -->
<!DOCTYPE svg PUBLIC "-//W3C//DTD SVG 1.1//EN" "http://www.w3.org/Graphics/SVG/1.1/DTD/svg11.dtd" [
	<!ENTITY ns_svg "http://www.w3.org/2000/svg">
	<!ENTITY ns_xlink "http://www.w3.org/1999/xlink">
]>
<svg  version="1.1" id="Layer_1" xmlns="&ns_svg;" xmlns:xlink="&ns_xlink;" width="850.394" height="850.394"
	 viewBox="0 0 850.394 850.394" style="overflow:visible;enable-background:new 0 0 850.394 850.394;" xml:space="preserve">
<g id="XMLID_231_">
	<g>
		<path style="fill:#EB6B80;" d="M744.47,287.8c51.24,2.79,69.95,50.14,33.931,87.46c-32.471,33.61-23.761,18.25-83.57,62.971
			c0,0-77.55,54.979-198.33,102.449c0,0-149.74,57.391-233.42,42.431C175.84,567.51,144.81,566.3,85.05,515.89
			c-40.19-33.899-41.69-65-2.94-91.09c38.75-26.08,33.51-28.14,111.95-68.79c72-37.31,154.74-62.1,154.74-62.1
			s107.8-35.03,215.19-32.48C671.36,263.98,693.23,285,744.47,287.8z M550.83,266.53l38.71,49.91
			C588.17,294.15,570.12,276.09,550.83,266.53z M527.3,284.02l38.72,49.9C564.65,311.65,546.59,293.58,527.3,284.02z M370.52,501.73
			c0.13-22.311-16.69-41.53-35.3-52.36L370.52,501.73z M345.89,517.63c0.11-22.33-16.7-41.55-35.31-52.37L345.89,517.63z"/>
		<path style="fill:#FFFFFF;" d="M589.54,316.44l-38.71-49.91C570.12,276.09,588.17,294.15,589.54,316.44z"/>
		<path style="fill:#FFFFFF;" d="M566.02,333.92l-38.72-49.9C546.59,293.58,564.65,311.65,566.02,333.92z"/>
		<path style="fill:#FFFFFF;" d="M335.22,449.37c18.61,10.83,35.43,30.05,35.3,52.36L335.22,449.37z"/>
		<path style="fill:#FFFFFF;" d="M310.58,465.26c18.61,10.82,35.42,30.04,35.31,52.37L310.58,465.26z"/>
	</g>
	<g>
		<path style="fill:none;stroke:#000000;stroke-width:21.868;" d="M348.8,293.91c0,0,107.8-35.03,215.19-32.48
			C671.36,263.98,693.23,285,744.47,287.8c51.24,2.79,69.95,50.14,33.931,87.46c-32.471,33.61-23.761,18.25-83.57,62.971
			c0,0-77.55,54.979-198.33,102.449c0,0-149.74,57.391-233.42,42.431C175.84,567.51,144.81,566.3,85.05,515.89
			c-40.19-33.899-41.69-65-2.94-91.09c38.75-26.08,33.51-28.14,111.95-68.79C266.06,318.7,348.8,293.91,348.8,293.91z"/>
		<path style="fill:none;stroke:#000000;stroke-width:21.868;" d="M550.83,266.53c19.29,9.56,37.34,27.62,38.71,49.91"/>
		<path style="fill:none;stroke:#000000;stroke-width:21.868;" d="M527.3,284.02c19.29,9.56,37.351,27.63,38.72,49.9"/>
		<path style="fill:none;stroke:#000000;stroke-width:21.868;" d="M335.22,449.37c18.61,10.83,35.43,30.05,35.3,52.36"/>
		<path style="fill:none;stroke:#000000;stroke-width:21.868;" d="M310.58,465.26c18.61,10.82,35.42,30.04,35.31,52.37"/>
	</g>
</g>
<rect style="fill:none;" width="850.394" height="850.394"/>
</svg>
