<svg xmlns="http://www.w3.org/2000/svg" width="850.394" height="850.394" viewBox="0 0 850.394 850.394" overflow="visible"><path d="M744.47 287.8c51.24 2.79 69.95 50.14 33.931 87.46-32.471 33.61-23.761 18.25-83.57 62.971 0 0-77.55 54.979-198.33 102.449 0 0-149.74 57.391-233.42 42.431C175.84 567.51 144.81 566.3 85.05 515.89c-40.19-33.899-41.69-65-2.94-91.09 38.75-26.08 33.51-28.14 111.95-68.79 72-37.31 154.74-62.1 154.74-62.1s107.8-35.03 215.19-32.48c107.37 2.55 129.24 23.57 180.48 26.37zm-193.64-21.27l38.71 49.91c-1.37-22.29-19.42-40.35-38.71-49.91zm-23.53 17.49l38.72 49.9c-1.37-22.27-19.43-40.34-38.72-49.9zM370.52 501.73c.13-22.311-16.69-41.53-35.3-52.36l35.3 52.36zm-24.63 15.9c.11-22.33-16.7-41.55-35.31-52.37l35.31 52.37z" fill="#eb6b80"/><path d="M589.54 316.44l-38.71-49.91c19.29 9.56 37.34 27.62 38.71 49.91zM566.02 333.92l-38.72-49.9c19.29 9.56 37.35 27.63 38.72 49.9zM335.22 449.37c18.61 10.83 35.43 30.05 35.3 52.36l-35.3-52.36zM310.58 465.26c18.61 10.82 35.42 30.04 35.31 52.37l-35.31-52.37z" fill="#fff"/><g fill="none" stroke="#000" stroke-width="21.868"><path d="M348.8 293.91s107.8-35.03 215.19-32.48c107.37 2.55 129.24 23.57 180.48 26.37 51.24 2.79 69.95 50.14 33.931 87.46-32.471 33.61-23.761 18.25-83.57 62.971 0 0-77.55 54.979-198.33 102.449 0 0-149.74 57.391-233.42 42.431C175.84 567.51 144.81 566.3 85.05 515.89c-40.19-33.899-41.69-65-2.94-91.09 38.75-26.08 33.51-28.14 111.95-68.79 72-37.31 154.74-62.1 154.74-62.1zM550.83 266.53c19.29 9.56 37.34 27.62 38.71 49.91M527.3 284.02c19.29 9.56 37.351 27.63 38.72 49.9M335.22 449.37c18.61 10.83 35.43 30.05 35.3 52.36M310.58 465.26c18.61 10.82 35.42 30.04 35.31 52.37"/></g><path fill="none" d="M0 0h850.394v850.394H0z"/></svg>