<svg xmlns="http://www.w3.org/2000/svg" width="850.394" height="850.394" viewBox="0 0 850.394 850.394" overflow="visible"><path d="M323.43 431.51c5.23 0 9.47 3.78 9.47 8.45 0 4.66-4.24 8.44-9.47 8.44s-9.48-3.78-9.48-8.44c0-4.67 4.25-8.45 9.48-8.45zM540.3 431.45c5.23 0 9.47 3.78 9.47 8.45 0 4.659-4.239 8.439-9.47 8.439-5.229 0-9.47-3.78-9.47-8.439 0-4.67 4.24-8.45 9.47-8.45z"/><path d="M323.52 465.51c-14.49 0-26.26-11.22-26.26-25.06 0-3.431-.21-5.181.46-7.12l-4.52-3.061c8.83-4.79 18.61-7.569 29.19-7.339 12 .28 24.29 5.04 33.82 12.7L354 438c0 13.84-15.99 27.51-30.48 27.51zm9.38-25.55c0-4.67-4.24-8.45-9.47-8.45s-9.48 3.78-9.48 8.45c0 4.66 4.25 8.44 9.48 8.44s9.47-3.78 9.47-8.44zM567.31 427.75l-1.3 4.2c.94 2.2.681 3.939.681 7.72 0 13.84-11.771 25.061-26.24 25.061-14.5 0-26.25-11.221-26.25-25.061 0-1.96-.271-2.83-.32-3.65l-4.76-2.239c9.33-7.04 21.02-11.37 32.45-11.63 9.209-.201 17.829 1.889 25.739 5.599zm-17.54 12.15c0-4.67-4.239-8.45-9.47-8.45-5.229 0-9.47 3.78-9.47 8.45 0 4.659 4.24 8.439 9.47 8.439 5.23.001 9.47-3.779 9.47-8.439z" fill="#fff"/><path d="M180.55 414.46c5.4-.31 10.42.48 15 2.11l1.95-.16c1.61 20.27.93 40.83.93 51.109 0 35.73 4.52 69.74 12.76 101.261l-.51.13c-25.31 4.83-37.41-15.811-38.29-26.43-2.28-27.94 5.93-41.41-12.02-78.03-7.37-15.05-10.99-45.21 15.87-49.52 1.46-.23 2.9-.39 4.31-.47zM676.97 412.27c26.88 4.31 23.25 34.47 15.87 49.52-17.95 36.62-9.729 50.09-12.01 78.03-.87 10.5-12.73 30.8-37.47 26.56 7.87-30.85 12.18-64.04 12.18-98.86 0-11.22.27-32.779 2.94-53.87 5.25-1.76 11.06-2.39 17.34-1.54.38.04.76.1 1.15.16z" fill="#ffeec8"/><path d="M437.1 605.64c-.01-.01-.01-.01-.01 0-.33.061-.68.12-1.03.17l2.23-.149c-.41-.001-.81-.011-1.19-.021zm221.38-191.99c-2.671 21.09-2.94 42.65-2.94 53.87 0 34.82-4.31 68.011-12.18 98.86-23.32 91.39-77.85 162.23-143.93 194.1-24.819 11.979-43.729 10.27-72.439 10.27-26.55 0-43.54 2.65-66.82-7.67-68.28-30.24-124.74-101.5-148.98-194.3-8.24-31.521-12.76-65.53-12.76-101.261 0-10.279.68-30.84-.93-51.109-1.19-14.97-3.63-29.78-8.53-40.18l-5.46-1.62c24.46-49.37 124.48-86.34 244.141-86.34 116.58 0 214.52 35.09 242.1 82.55-5.802 10.75-9.242 26.65-11.272 42.83zm-91.17 14.1c-7.909-3.71-16.529-5.8-25.739-5.6-11.431.26-23.12 4.59-32.45 11.63l4.76 2.239c.05.82.32 1.69.32 3.65 0 13.84 11.75 25.061 26.25 25.061 14.47 0 26.24-11.221 26.24-25.061 0-3.78.26-5.52-.681-7.72l1.3-4.199zm-211.1 7.88c-9.53-7.66-21.82-12.42-33.82-12.7-10.58-.23-20.36 2.55-29.19 7.339l4.52 3.061c-.67 1.939-.46 3.689-.46 7.12 0 13.84 11.77 25.06 26.26 25.06 14.49 0 30.48-13.67 30.48-27.51l2.21-2.37z" fill="#ffeec8"/><path d="M685.67 353.78c0 7.53-5.47 30.51-8.15 44.25-.01-9.39-2.699-18.51-7.77-27.21-27.58-47.46-125.52-82.55-242.1-82.55-119.66 0-219.68 36.97-244.141 86.34-3.74 7.55-5.72 15.4-5.72 23.44-3.2-14.23-8.68-34.15-8.68-44.27 0-151.52 96.91-290.72 258.28-290.72 158.021 0 258.281 139.2 258.281 290.72z" fill="#0b00ea"/><g fill="none" stroke="#231f20"><path d="M267.93 451.72c7.16-8.649 15.65-16.239 25.27-21.45 8.83-4.79 18.61-7.569 29.19-7.339 12 .28 24.29 5.04 33.82 12.7 5 4.01 9.23 8.82 12.27 14.2" stroke-width="14" stroke-linecap="square" stroke-miterlimit="10"/><path d="M354 438c0 13.84-15.99 27.51-30.48 27.51s-26.26-11.22-26.26-25.06c0-3.431-.21-5.181.46-7.12M596.02 450.93c-7.989-9.67-17.659-18-28.71-23.18-7.909-3.71-16.529-5.8-25.739-5.6-11.431.26-23.12 4.59-32.45 11.63-5.59 4.22-10.32 9.41-13.64 15.279" stroke-width="14" stroke-linecap="square" stroke-miterlimit="10"/><path d="M513.88 436.02c.05.82.32 1.69.32 3.65 0 13.84 11.75 25.061 26.25 25.061 14.47 0 26.24-11.221 26.24-25.061 0-3.78.26-5.52-.681-7.72" stroke-width="14" stroke-linecap="square" stroke-miterlimit="10"/><path d="M195.55 416.57c-4.58-1.63-9.6-2.42-15-2.11-1.41.08-2.85.24-4.31.47-26.86 4.31-23.24 34.47-15.87 49.52 17.95 36.62 9.74 50.09 12.02 78.03.88 10.619 12.98 31.26 38.29 26.43M657.67 413.92c.271-.1.54-.19.811-.27 5.25-1.76 11.06-2.39 17.34-1.54.38.04.76.1 1.149.16 26.88 4.31 23.25 34.47 15.87 49.52-17.95 36.62-9.729 50.09-12.01 78.03-.87 10.5-12.73 30.8-37.47 26.56-.271-.04-.54-.09-.82-.14M373.41 672.33c33.01 13.17 85.42 11.63 113.51-.63" stroke-width="21"/><path d="M360.17 763.08c-68.28-30.24-124.74-101.5-148.98-194.3-8.24-31.521-12.76-65.53-12.76-101.261 0-10.279.68-30.84-.93-51.109-1.19-14.97-3.63-29.78-8.53-40.18M499.43 760.48c-24.819 11.979-43.729 10.27-72.439 10.27-26.55 0-43.54 2.65-66.82-7.67M669.75 370.82c-5.8 10.75-9.24 26.65-11.27 42.83-2.671 21.09-2.94 42.65-2.94 53.87 0 34.82-4.31 68.011-12.18 98.86-23.32 91.39-77.85 162.23-143.93 194.1" stroke-width="21"/><path d="M437.1 605.64c12.471-2.34 10.25-9.72 23.65-6.479 11.58 2.81 23.86 8.58 26.74-9.521 2-12.46-7.36-14.1-12.34-24.1" stroke-width="14"/><path d="M397.92 450.36c20.76 22.79 14.48 76.33 5.19 104.199l-3.91 10.851c-4.98 10-14.34 11.63-12.35 24.1 2.88 18.09 15.17 12.311 26.74 9.521 13.37-3.23 10.32 6.069 23.5 6.609 0-.01 0-.01.01 0 .381.011.78.021 1.19.021l-2.23.149c.351-.05.7-.109 1.03-.17" stroke-width="14"/><path d="M332.9 439.96c0 4.66-4.24 8.44-9.47 8.44s-9.48-3.78-9.48-8.44c0-4.67 4.25-8.45 9.48-8.45s9.47 3.78 9.47 8.45zM549.77 439.9c0 4.659-4.239 8.439-9.47 8.439-5.229 0-9.47-3.78-9.47-8.439 0-4.67 4.24-8.45 9.47-8.45s9.47 3.78 9.47 8.45z" stroke-width="7"/><path d="M384.15 408.53c-11.19-23.59-55.02-32.78-77.21-28.35-20.85 4.15-31.19 6.66-52.94 23.52M474.97 403.37c11.2-23.58 55.03-32.79 77.21-28.36 20.88 4.16 31.21 6.66 52.94 23.52" stroke-width="14"/><path d="M179.79 408.43c-.37-2.76-1.09-6.34-2-10.38-3.2-14.23-8.68-34.15-8.68-44.27 0-151.52 96.91-290.72 258.28-290.72 158.021 0 258.28 139.2 258.28 290.72 0 7.53-5.47 30.51-8.15 44.25-.689 3.55-1.199 6.48-1.38 8.37" stroke-width="21"/><path d="M180.58 414.54c-.01-.03-.02-.05-.03-.08-1.82-5.34-2.76-10.82-2.76-16.38v-.03c0-8.04 1.98-15.89 5.72-23.44 24.46-49.37 124.48-86.34 244.141-86.34 116.58 0 214.52 35.09 242.1 82.55 5.07 8.7 7.76 17.82 7.77 27.21v.05c0 3.79-.439 7.53-1.3 11.22" stroke-width="21"/></g><path fill="none" d="M0 0h850.394v850.394H0z"/></svg>