<svg xmlns="http://www.w3.org/2000/svg" width="850.394" height="850.394" viewBox="0 0 850.394 850.394" overflow="visible"><path d="M579.93 389.62c23.9 0 85.21 7.7 85.21 42.61 0 23.5-4.3 43.6-14.6 56.199h-.1c-21.41.101-58.7-14.899-73.21-30.5-8.601-9.1-3.2-19-3.2-30.8 0-13.099 5.11-35.499 5.9-37.509zM538.23 551.43c1.6 6.2 17.1 31.511-16.4 38.21v.19c-10.5 1.6-19.7 2.5-26.2 2.5-21.3 0-28.899-37 6-50.2 1.5-.6 3.5-1.3 6-2.2 7.2-1.1 18.3-.6 21.11 1.311 3.59 2.499 8.49 6.189 9.49 10.189z" fill="#ffeec8"/><path d="M521.83 589.64c33.5-6.699 18-32.01 16.4-38.21-1-4-5.9-7.689-9.49-10.189-2.811-1.91-13.91-2.41-21.11-1.311 26-9 100.8-32.5 123.4-38.699 8-2.2 14.51-6.601 19.41-12.801h.1c10.3-12.6 14.6-32.699 14.6-56.199 0-34.911-61.31-42.61-85.21-42.61-16.8 0-61 3.91-96 6.91h-.1c-14.6 1.3-27.6 2.4-36.3 2.89-10.8.71-27.3 6.91-44.6 12.91-11.1 4-22.71 7.8-33.31 10.1-27.3 6-47.5-1.7-54.5-21.3-6.2-17.2 30.61-22.6 30.61-22.6s9.8-3.71 22.9-8.6c5.2-1.9 10.9-4.11 16.8-6.2 18.6-7 38.7-14.31 46.3-16.7 16-5 106-25.41 106.899-25.5 0 0 40.11-4.11 65.2-15.31 17.2-7.7 43.41-33.7 78.41-27.3 14.2 2.61 19.1.4 25.49-6 13-13 31.51-4.2 53.71 3.41 13 4.49 21.39 7.7 26.199 9.59v.1c43.4 111.61 71.7 178.31-3.3 261.61l-.399 2.3c-12.4-2-35.801-5.1-51.511-2.699-22.1 3.399-75 17-75 17-31.489 7.699-74.09 13.71-98.689 18.8-12.811 2.6-25.61 5-36.91 6.8v-.192z" fill="#ffeec8"/><path d="M232.42 430.53c19.6 4.3 181.51 62.2 181.51 62.2s30.7 10.6 27.19 27.199c-3.19 15.4-10.19 16.9-11.19 17.101h-.1c-6.9-.101-15.8-1.3-27-4.7-34.91-10.69-189.91-68.6-189.91-68.6s-13-13.9-10.7-28.9c0 0 10.7-8.6 30.2-4.3z" fill="#fff400"/><path d="M279.32 399.33c0 18.6 28.8 33.8 64.31 33.8 31.1 0 53.29-5.399 59.3-20.8 17.3-6 33.8-12.2 44.6-12.91 8.7-.49 21.7-1.59 36.3-2.89h.1l25.4 9.3 18.7 6.8s15.3 12.8 3.399 31.5c-11.899 18.8-81.3 88.2-81.3 88.2s-5.7 4.9-20.2 4.7c1-.2 8-1.7 11.19-17.101 3.51-16.6-27.19-27.199-27.19-27.199s-161.91-57.9-181.51-62.2c-19.5-4.3-30.2 4.3-30.2 4.3.7-4.6 2.9-9.3 7.3-13.7l40.2-35.7 44.11-39.21s16.99-6.8 31.5-3.39c14.49 3.39 60.1 20.9 60.1 20.9-5.9 2.09-11.6 4.3-16.8 6.2l-.71-1.81c-7.5-1.69-15.69-2.5-24.29-2.5-35.509 0-64.309 15.11-64.309 33.71z" fill="#fff400"/><path d="M315.12 401.13c7 19.6 27.2 27.3 54.5 21.3 10.6-2.3 22.21-6.1 33.31-10.1-6.01 15.4-28.2 20.8-59.3 20.8-35.51 0-64.31-15.2-64.31-33.8s28.8-33.71 64.31-33.71c8.6 0 16.79.81 24.29 2.5l.71 1.81c-13.1 4.89-22.9 8.6-22.9 8.6s-36.81 5.4-30.61 22.6z" fill="#f73900"/><g fill="none" stroke="#000" stroke-width="15.331"><path d="M71.91 317.62l177.81 67.81M402.93 412.33c-6.01 15.4-28.2 20.8-59.3 20.8-35.51 0-64.31-15.2-64.31-33.8s28.8-33.71 64.31-33.71c8.6 0 16.79.81 24.29 2.5M429.83 537.03c-6.9-.101-15.8-1.3-27-4.7-34.91-10.69-189.91-68.6-189.91-68.6s-13-13.9-10.7-28.9c.7-4.6 2.9-9.3 7.3-13.7M483.93 396.53l25.4 9.3 18.7 6.8s15.3 12.8 3.399 31.5c-11.899 18.8-81.3 88.2-81.3 88.2s-5.7 4.9-20.2 4.7"/><path d="M209.52 421.13l40.2-35.7 44.11-39.21s16.99-6.8 31.5-3.39c14.49 3.39 60.1 20.9 60.1 20.9M202.22 434.83s10.7-8.6 30.2-4.3c19.6 4.3 181.51 62.2 181.51 62.2s30.7 10.6 27.19 27.199c-3.19 15.4-10.19 16.9-11.19 17.101h-.1M650.44 488.43c-4.9 6.2-11.41 10.601-19.41 12.801-22.601 6.199-97.4 29.699-123.4 38.699-2.5.9-4.5 1.601-6 2.2-34.899 13.2-27.3 50.2-6 50.2 6.5 0 15.7-.9 26.2-2.5 11.3-1.8 24.1-4.2 36.91-6.8 24.6-5.09 67.2-11.101 98.689-18.8 0 0 52.9-13.601 75-17 15.71-2.4 39.11.699 51.511 2.699 5.199.801 8.489 1.5 8.489 1.5"/><path d="M792.43 287.82s-1.489-.6-4.79-1.9c-4.81-1.89-13.199-5.1-26.199-9.59-22.2-7.61-40.71-16.41-53.71-3.41-6.391 6.4-11.29 8.61-25.49 6-35-6.4-61.21 19.6-78.41 27.3-25.09 11.2-65.2 15.31-65.2 15.31-.899.09-90.899 20.5-106.899 25.5-7.601 2.39-27.701 9.7-46.3 16.7-5.9 2.09-11.6 4.3-16.8 6.2-13.1 4.89-22.9 8.6-22.9 8.6s-36.81 5.4-30.61 22.6c7 19.6 27.2 27.3 54.5 21.3 10.6-2.3 22.21-6.1 33.31-10.1 17.3-6 33.8-12.2 44.6-12.91 8.7-.49 21.7-1.59 36.3-2.89h.1c35-3 79.2-6.91 96-6.91 23.9 0 85.21 7.7 85.21 42.61 0 23.5-4.3 43.6-14.6 56.199"/><path d="M579.93 389.53v.09c-.79 2.01-5.899 24.41-5.899 37.51 0 11.8-5.4 21.7 3.2 30.8 14.51 15.601 51.8 30.601 73.21 30.5h.1M613.23 446.73c.3-24.9 40.909-25.5 50.21-16.2M501.63 542.13c.7-1 3-1.7 6-2.2 7.2-1.1 18.3-.6 21.11 1.311 3.59 2.5 8.49 6.189 9.49 10.189 1.6 6.2 17.1 31.511-16.4 38.21"/></g><path fill="none" d="M0 0h850.394v850.394H0z"/></svg>