<svg xmlns="http://www.w3.org/2000/svg" width="850.394" height="850.394" viewBox="0 0 850.394 850.394" overflow="visible"><path d="M726.69 172.36c11.689 33.5 8.939 68.43-9.221 122.63-12.92 38.59-19.8 46.53-19.8 46.53s-36.52 3.7-65.5-5.77c-.01.01-.01 0-.01 0-3.45-1.12-6.78-2.43-9.94-3.95-6.68-3.23-14.68-7.09-23.439-11.48 0 0 3.22-6.68 11.59-24.01s37.55-63.54 53.17-111.7c15.63-48.16-21.14-79.53-21.14-79.53.859-.17 1.63-.42 2.29-.76 1.45.47 65.58 20.95 82 68.04z" fill="#a9d7f3"/><path d="M642.4 105.08s36.77 31.37 21.14 79.53c-15.62 48.16-44.8 94.37-53.17 111.7s-11.59 24.01-11.59 24.01c-30.17-15.1-69.38-36.43-94.94-59.42-18.18-16.35-37.939-31.47-56.66-43.17 5.551-11.79 35.73-72.71 82.83-109.05 49.2-37.97 83.54-17.24 83.54-17.24 2.04 3.56 6.59 7.47 12.53 10.33 6.15 2.97 12.25 4.09 16.32 3.31z" fill="#a9d7f3"/><path d="M644.69 104.32c-.66.34-1.431.59-2.29.76-4.07.78-10.17-.34-16.32-3.31-5.94-2.86-10.49-6.77-12.53-10.33-.76-1.34-1.17-2.63-1.16-3.8.011-.65.141-1.26.41-1.82 2.061-4.28 11.351-4.07 20.75.48 9.41 4.53 15.351 11.68 13.29 15.95-.43.88-1.17 1.58-2.15 2.07z" fill="#231f20"/><path d="M447.18 217.73c18.721 11.7 38.48 26.82 56.66 43.17 25.561 22.99 64.771 44.32 94.94 59.42 8.76 4.39 16.76 8.25 23.439 11.48 3.16 1.52 6.49 2.83 9.94 3.95-46.47 22.67-64.5 28.47-64.5 28.47-32.08 11.19-56.78 13.42-86.601 6.92-.899-.19-1.779-.4-2.689-.61-67.91-15.82-99.18-75.94-99.18-75.94-12.81-15.08-26.43-25.51-39.35-32.81-27.58-15.56-52.02-16.84-58.79-18.4-15.11-3.48-9.19-8.64-9.19-8.64l122.17-45.18s5.27 3.31 30.02 15.27c7.391 3.56 15.161 7.92 23.131 12.9z" fill="#a9d7f3"/><path d="M612.39 87.64c-.01 1.17.4 2.46 1.16 3.8 0 0-34.34-20.73-83.54 17.24-47.1 36.34-77.279 97.26-82.83 109.05-7.97-4.98-15.739-9.34-23.13-12.9-24.75-11.96-30.02-15.27-30.02-15.27 24.61-65.2 61.69-96.14 61.69-96.14 60.01-58.16 137.71-17.25 156.67-5.78z" fill="#a9d7f3"/><path d="M439.9 540.19l1.68-.311c3.939-1.41 8.34-1.899 13.14-1.13 18.29 2.93 15.83 23.46 10.8 33.71-12.21 24.92-6.619 34.08-8.17 53.11-.58 7.029-8.399 20.5-24.649 18.22 4.85-21.04 7.439-43.68 7.439-67.44 0-12.97-.18-21.97-.58-37.63.12.491.23.981.34 1.471z" fill="#ffeec8"/><path d="M439.56 538.72c-6.319-25.3-33.76-46.859-40.81-56.59-37.98-52.439-66.73-72.17-73.79-76.52-1.11-.69-1.68-1-1.68-1l-.21.15c-32.01 22.351-140.04 57.971-153.76 68.04 0 0-24.52 25.271-41.5 47.021-6.11 7.81-11.24 15.17-13.92 20.739l-1.6-51.84c0-82.68 67.49-130.68 67.49-130.68 7.8-5.31 13.03-7.97 13.03-7.97 34.41-20.48 78.93-27.7 135.71-21.08 68.56 7.99 121.18 76.27 131.2 161.279 1.63 13.811-2.609 33.86-5 48.48-4.8-.77-9.2-.28-13.14 1.13l-1.68.311c-.11-.49-.22-.98-.34-1.47z" fill="#9c5b16"/><path d="M235.45 553.91c-6.34-4.78-14.31-7.73-22.08-7.91-8.12-.17-15.55 2.26-22.15 6.31l5.19 1.37c-.25 1.11-.14 2.261-.14 4.25 0 9.42 8 17.07 17.87 17.07 9.86 0 17.86-7.65 17.86-17.07l3.45-4.02zm197.25 89.88c-19.71 85.51-76.66 144.54-148.13 144.54-71.02 0-127.7-58.271-147.74-142.88-5.11-21.5-7.84-44.71-7.84-69.101 0-7.79.02-21.449.13-34.649.06-7.4.15-14.65.29-20.63l-1.6-1.25c16.98-21.75 41.5-47.021 41.5-47.021 13.72-10.069 121.75-45.689 153.76-68.04.35.31 1.03.6 1.89.85 7.06 4.35 35.81 24.081 73.79 76.52 7.05 9.73 34.49 31.29 40.81 56.59.4 15.66.58 24.66.58 37.63 0 23.761-2.59 46.401-7.44 67.441zm-141.33 26.58c-.2.04-.41.08-.63.11l1.52-.091c-.31.001-.61-.009-.89-.019zm88.69-121.1c-5.38-2.52-11.23-3.939-17.5-3.81-8.57.21-17.34 3.76-23.94 9.42l5.09.03c.03.56.22 1.149.22 2.49 0 9.42 7.99 17.06 17.87 17.06 9.84 0 17.85-7.64 17.85-17.06 0-2.57.19-3.75-.45-5.261l.86-2.869z" fill="#ffeec8"/><path d="M380.06 549.27l-.86 2.87c.64 1.511.45 2.69.45 5.261 0 9.42-8.01 17.06-17.85 17.06-9.88 0-17.87-7.64-17.87-17.06 0-1.341-.19-1.931-.22-2.49l-5.09-.03c6.6-5.66 15.37-9.21 23.94-9.42 6.27-.131 12.12 1.289 17.5 3.809zm-11.92 8.28c0-3.18-2.88-5.74-6.45-5.74-3.56 0-6.44 2.561-6.44 5.74 0 3.181 2.88 5.75 6.44 5.75 3.57 0 6.45-2.57 6.45-5.75z" fill="#abda4d"/><path d="M361.69 551.81c3.57 0 6.45 2.561 6.45 5.74 0 3.181-2.88 5.75-6.45 5.75-3.56 0-6.44-2.569-6.44-5.75 0-3.18 2.88-5.74 6.44-5.74z"/><path d="M196.41 553.68l-5.19-1.37c6.6-4.05 14.03-6.479 22.15-6.31 7.77.18 15.74 3.13 22.08 7.91l-3.45 4.02c0 9.42-8 17.07-17.86 17.07-9.87 0-17.87-7.65-17.87-17.07 0-1.99-.11-3.14.14-4.25zm17.67 9.66c3.56 0 6.44-2.57 6.44-5.74 0-3.18-2.88-5.76-6.44-5.76s-6.45 2.58-6.45 5.76c0 3.17 2.89 5.74 6.45 5.74z" fill="#abda4d"/><path d="M220.52 557.6c0 3.17-2.88 5.74-6.44 5.74s-6.45-2.57-6.45-5.74c0-3.18 2.89-5.76 6.45-5.76s6.44 2.58 6.44 5.76z"/><path d="M136.83 645.45c-16.88 2.93-24.97-10.91-25.56-18.07-1.55-19.02 4.04-28.189-8.18-53.11-5.02-10.25-7.49-30.779 10.8-33.71 4.8-.77 9.21-.29 13.14 1.12l2.09.021c-.11 13.2-.13 26.859-.13 34.649 0 24.39 2.73 47.6 7.84 69.1z" fill="#ffeec8"/><g fill="none" stroke="#231f20"><path d="M176.3 565.6c4.3-5.199 9.3-9.83 14.92-13.29 6.6-4.05 14.03-6.479 22.15-6.31 7.77.18 15.74 3.13 22.08 7.91 3.81 2.88 7.04 6.41 9.29 10.399" stroke-width="14" stroke-linecap="square" stroke-miterlimit="10"/><path d="M232 557.93c0 9.42-8 17.07-17.86 17.07-9.87 0-17.87-7.65-17.87-17.07 0-1.989-.11-3.14.14-4.25.04-.199.1-.399.17-.6" stroke-width="7" stroke-linecap="square" stroke-miterlimit="10"/><path d="M399.62 565.06c-5.45-6.579-12.04-12.26-19.56-15.79-5.38-2.52-11.23-3.939-17.5-3.81-8.57.21-17.34 3.76-23.94 9.42-3 2.57-5.55 5.58-7.43 8.91" stroke-width="14" stroke-linecap="square" stroke-miterlimit="10"/><path d="M343.71 554.91c.03.56.22 1.149.22 2.49 0 9.42 7.99 17.06 17.87 17.06 9.84 0 17.85-7.64 17.85-17.06 0-2.57.19-3.75-.45-5.261" stroke-width="7" stroke-linecap="square" stroke-miterlimit="10"/><path d="M127.03 541.68c-3.93-1.41-8.34-1.89-13.14-1.12-18.29 2.931-15.82 23.46-10.8 33.71 12.22 24.921 6.63 34.091 8.18 53.11.59 7.16 8.68 21 25.56 18.07.16-.021.33-.05.5-.08M441.58 539.88c3.939-1.41 8.34-1.899 13.14-1.13 18.29 2.93 15.83 23.46 10.8 33.71-12.21 24.92-6.619 34.08-8.17 53.11-.58 7.029-8.399 20.5-24.649 18.22-.46-.06-.931-.14-1.41-.23" stroke-width="14"/><path d="M248.1 715.77c22.47 8.961 58.14 7.9 77.26-.43M439.51 536.81c.021.65.03 1.29.05 1.91.4 15.66.58 24.66.58 37.63 0 23.761-2.59 46.4-7.439 67.44-19.71 85.51-76.66 144.54-148.13 144.54-71.02 0-127.7-58.271-147.74-142.88-5.11-21.5-7.84-44.71-7.84-69.101 0-7.79.02-21.449.13-34.649.06-7.4.15-14.65.29-20.63" stroke-width="21"/><path d="M291.37 670.37c8.57-1.561 7.03-6.63 16.18-4.41 7.88 1.91 16.24 5.84 18.2-6.49 1.36-8.47-5.01-9.58-8.4-16.399M291.37 670.37c.28.01.58.02.89.02l-1.52.091c.22-.031.43-.071.63-.111zM264.78 564.67c14.13 15.521 9.86 51.96 3.53 70.93l-2.66 7.381c-3.39 6.81-9.75 7.92-8.41 16.409 1.97 12.311 10.33 8.38 18.21 6.48 9.07-2.2 7.03 4.1 15.92 4.5" stroke-width="14"/><path d="M220.52 557.6c0 3.17-2.88 5.74-6.44 5.74s-6.45-2.57-6.45-5.74c0-3.18 2.89-5.76 6.45-5.76s6.44 2.58 6.44 5.76zM368.14 557.55c0 3.181-2.88 5.75-6.45 5.75-3.56 0-6.44-2.569-6.44-5.75 0-3.18 2.88-5.74 6.44-5.74 3.57 0 6.45 2.56 6.45 5.74z" stroke-width="6.615"/><path d="M255.41 536.2c-7.62-16.05-37.45-22.311-52.55-19.29-14.2 2.82-21.23 4.53-36.04 16M317.23 532.69c7.62-16.061 37.46-22.32 52.55-19.301 14.21 2.841 21.25 4.53 36.04 16.011" stroke-width="14"/><path d="M454.72 538.75c2.391-14.62 6.63-34.67 5-48.48-10.02-85.01-62.64-153.29-131.2-161.279-56.78-6.62-101.3.6-135.71 21.08 0 0-5.23 2.66-13.03 7.97 0 0-67.49 48-67.49 130.68l1.6 51.84c2.68-5.569 7.81-12.93 13.92-20.739 16.98-21.75 41.5-47.021 41.5-47.021 13.72-10.069 121.75-45.689 153.76-68.04l.21-.15s.57.31 1.68 1c7.06 4.35 35.81 24.081 73.79 76.52 7.05 9.73 34.49 31.29 40.81 56.59.12.49.23.98.341 1.471.47 2.199.779 4.42.899 6.67" stroke-width="21"/><path d="M335.77 407c-1.59.01-7.55-.45-10.81-1.39-.86-.25-1.54-.54-1.89-.85a.853.853 0 0 1-.25-.34c9.81-9.56 17.56-25.16 17.56-40.98M612.39 87.64c-18.96-11.47-96.659-52.38-156.67 5.78 0 0-37.08 30.94-61.69 96.14M612.39 87.64c.011-.65.141-1.26.41-1.82 2.061-4.28 11.351-4.07 20.75.48 9.41 4.53 15.351 11.68 13.29 15.95-.43.88-1.17 1.58-2.149 2.07-.66.34-1.431.59-2.29.76-4.07.78-10.17-.34-16.32-3.31-5.94-2.86-10.49-6.77-12.53-10.33-.761-1.34-1.171-2.63-1.161-3.8z" stroke-width="21"/><path d="M613.55 91.44s-34.34-20.73-83.54 17.24c-47.1 36.34-77.279 97.26-82.83 109.05a98.53 98.53 0 0 0-.93 2.01M481.06 371.14c29.82 6.5 54.521 4.27 86.601-6.92 0 0 18.03-5.8 64.5-28.47" stroke-width="21"/><path d="M478.37 370.53c.91.21 1.79.42 2.689.61" stroke-width="19.844"/><path d="M339.84 261.78c12.92 7.3 26.54 17.73 39.35 32.81 0 0 31.27 60.12 99.18 75.94M644.67 104.32h.021c1.449.47 65.579 20.95 82 68.04 11.689 33.5 8.939 68.43-9.221 122.63-12.92 38.59-19.8 46.53-19.8 46.53s-36.52 3.7-65.5-5.77c-.01.01-.01 0-.01 0-3.45-1.12-6.78-2.43-9.94-3.95-6.68-3.23-14.68-7.09-23.439-11.48-30.17-15.1-69.38-36.43-94.94-59.42-18.18-16.35-37.939-31.47-56.66-43.17-7.97-4.98-15.739-9.34-23.13-12.9-24.75-11.96-30.02-15.27-30.02-15.27l-122.17 45.18s-5.92 5.16 9.19 8.64c6.77 1.56 31.21 2.84 58.79 18.4" stroke-width="21"/><path d="M642.4 105.08s36.77 31.37 21.14 79.53c-15.62 48.16-44.8 94.37-53.17 111.7s-11.59 24.01-11.59 24.01M696.19 413.48l47.46 16.21-27.17 42.07M737.07 432.99c-40.62 18.979-86.7 28.149-141.681-7.22" stroke-width="21"/></g><path fill="none" d="M0 0h850.394v850.394H0z"/></svg>