<?xml version="1.0" encoding="iso-8859-1"?>
<!-- Generator: Adobe Illustrator 12.0.1, SVG Export Plug-In . SVG Version: 6.00 Build 51448)  -->
<!DOCTYPE svg PUBLIC "-//W3C//DTD SVG 1.1//EN" "http://www.w3.org/Graphics/SVG/1.1/DTD/svg11.dtd" [
	<!ENTITY ns_svg "http://www.w3.org/2000/svg">
	<!ENTITY ns_xlink "http://www.w3.org/1999/xlink">
]>
<svg  version="1.1" id="Layer_1" xmlns="&ns_svg;" xmlns:xlink="&ns_xlink;" width="850.394" height="850.394"
	 viewBox="0 0 850.394 850.394" style="overflow:visible;enable-background:new 0 0 850.394 850.394;" xml:space="preserve">
<g id="XMLID_1_">
	<g>
		<path style="fill:#FFFFC2;" d="M713.38,470.44l1.09,7.77c0,7.61-6.08,13.79-13.56,13.79H142.57c-7.49,0-13.56-6.18-13.56-13.79
			l0.86-6.09l33.35-236.85c0-7.62,6.07-13.79,13.56-13.79H638.44h28.25c7.489,0,13.56,6.17,13.56,13.79L713.38,470.44z"/>
		<path style="fill:#C8C8C8;" d="M689.8,266.12L717.94,469.8l-4.561,0.641l-33.13-235.17c0-7.62-6.07-13.79-13.56-13.79h-28.25
			v-5.74l30.77-38.43v-1.87h29.5c9.73,0,17.63,8.87,17.63,19.81l5.32,39.01L689.8,266.12z"/>
		<polygon style="fill:#C8C8C8;" points="758.62,505.05 717.94,469.8 689.8,266.12 721.66,234.26 		"/>
		<path style="fill:#C8C8C8;" d="M677,538.08l-34.51,124.99c0,6.76-7.891,12.239-17.641,12.239l-407.43-0.029
			c-9.74,0-17.64-5.49-17.64-12.24l-34.51-124.99L677,538.08z"/>
		<path style="fill:#C8C8C8;" d="M758.62,505.05l1.81,13.23c0,10.93-7.899,19.8-17.64,19.8h-48.74v-0.04l-33.59-38.43l-477.98,0.01
			l-33.59,38.43H99.48c-9.74,0-17.64-8.88-17.64-19.81l1.48-10.84l41.54-35.99l5.01,0.71l-0.86,6.09c0,7.61,6.07,13.79,13.56,13.79
			h558.34c7.479,0,13.56-6.18,13.56-13.79l-1.09-7.77l4.561-0.641L758.62,505.05z"/>
		<polygon style="fill:#C8C8C8;" points="120.48,235.19 153,267.72 124.86,471.41 83.32,507.4 120.47,235.19 		"/>
		<polygon style="fill:#C8C8C8;" points="677,538.08 165.27,538.05 148.89,538.05 182.48,499.62 660.46,499.61 694.05,538.04 
			694.05,538.08 		"/>
		<path style="fill:#C8C8C8;" d="M203.06,215.74h435.38v5.74H176.78c-7.49,0-13.56,6.17-13.56,13.79l-33.35,236.85l-5.01-0.71
			L153,267.72l-32.52-32.53h-0.01l5.46-39.99c0-10.93,7.9-19.8,17.63-19.8h28.74v1.91L203.06,215.74z"/>
		<polygon style="fill:#C8C8C8;" points="669.21,175.44 669.21,177.31 638.44,215.74 203.06,215.74 172.3,177.31 172.3,175.4 		"/>
	</g>
	<g>
		<path style="fill:none;stroke:#231F20;stroke-width:14;" d="M148.89,538.05H99.48c-9.74,0-17.64-8.88-17.64-19.81l1.48-10.84
			l37.15-272.21l5.46-39.99c0-10.93,7.9-19.8,17.63-19.8h28.74l496.91,0.04h29.5c9.73,0,17.63,8.87,17.63,19.81l5.32,39.01
			l36.96,270.79l1.81,13.23c0,10.93-7.899,19.8-17.64,19.8h-48.74H677l-511.73-0.03H148.89z"/>
		<path style="fill:none;stroke:#231F20;stroke-width:14;" d="M164.51,535.29l0.76,2.76l34.51,124.99c0,6.75,7.9,12.24,17.64,12.24
			l407.43,0.029c9.75,0,17.641-5.479,17.641-12.239L677,538.08l0.76-2.76"/>
		<polyline style="fill:none;stroke:#231F20;stroke-width:14;" points="694.05,538.04 660.46,499.61 182.48,499.62 148.89,538.05 		
			"/>
		<polyline style="fill:none;stroke:#231F20;stroke-width:14;" points="172.3,177.31 203.06,215.74 638.44,215.74 669.21,177.31 		
			"/>
		<polyline style="fill:none;stroke:#231F20;stroke-width:14;" points="120.48,235.19 153,267.72 124.86,471.41 83.32,507.4 		"/>
		<polyline style="fill:none;stroke:#231F20;stroke-width:14;" points="722.33,233.59 721.66,234.26 689.8,266.12 717.94,469.8 
			758.62,505.05 759.48,505.79 		"/>
		<path style="fill:none;stroke:#231F20;stroke-width:14;" d="M713.38,470.44l1.09,7.77c0,7.61-6.08,13.79-13.56,13.79H142.57
			c-7.49,0-13.56-6.18-13.56-13.79l0.86-6.09l33.35-236.85c0-7.62,6.07-13.79,13.56-13.79H638.44h28.25
			c7.489,0,13.56,6.17,13.56,13.79L713.38,470.44z"/>
	</g>
</g>
<rect style="fill:none;" width="850.394" height="850.394"/>
</svg>
