<svg xmlns="http://www.w3.org/2000/svg" width="850.394" height="850.394" viewBox="0 0 850.394 850.394" overflow="visible"><path d="M350.12 314.78c17.49-8.22 28.25-18.82 28.86-30.43.1 1.49.26 4.41.36 8.48.44 18.85-.55 62.2-16.26 100.28-1.08 2.61-2.22 5.19-3.44 7.74-7.49 15.68-17.75 30.06-31.77 40.919-.42.341-.85.671-1.28.99-16.95 12.681-39.28 20.28-68.63 19.08l.29.08c-30.05 1.24-52.73-6.76-69.83-19.979-14.72-11.381-25.3-26.63-32.88-43.2-23.56-51.41-18.24-115.43-18.24-115.43 0 10.38 8.12 19.99 21.94 27.88 21.86 12.49 58.02 20.65 98.92 20.65 36.82 0 69.8-6.61 91.96-17.06z" fill="#abd150"/><path d="M438.23 467.31c0 45.78-81 82.91-180.911 82.91-99.9 0-180.9-37.13-180.9-82.91 0-28.5 31.37-53.64 79.12-68.569 7.58 16.57 18.16 31.819 32.88 43.2-5.42 4.319-8.47 9.239-8.47 14.43 0 17.61 35.05 31.87 78.3 31.87 43.26 0 78.32-14.26 78.32-31.87 0-5.25-3.13-10.22-8.68-14.58l-.02-.021c14.02-10.859 24.28-25.24 31.77-40.919L362 402c48.78 14.85 76.23 36.44 76.23 65.31z" fill="#abd150"/><path d="M663.34 491.36l-.7.399c-5.38-9.14-17.909-12.52-24.8-5.479a8.29 8.29 0 0 0-4.66-3.32c-3.31-8.56 3.721-18.29 13.54-20.34.261.35.5.72.721 1.1l15.899 27.64z" fill="#faa41a"/><path d="M663.34 491.36l-.7.399c-5.38-9.14-17.909-12.52-24.8-5.479a8.29 8.29 0 0 0-4.66-3.32c-3.31-8.56 3.721-18.29 13.54-20.34.261.35.5.72.721 1.1l15.899 27.64z" fill="#faa41a"/><path d="M662.64 491.76l.7-.399 11.04 19.21-.7.399c-5.38-9.14-17.89-12.52-24.77-5.489L638.17 486.8c-.1-.18-.21-.35-.33-.52 6.89-7.04 19.42-3.66 24.8 5.48z" fill="#faa41a"/><path d="M673.68 510.97l.7-.399 10.45 18.16-.7.399c-5.38-9.14-17.89-12.52-24.78-5.49l-10.44-18.16c6.88-7.03 19.39-3.65 24.77 5.49z" fill="#faa41a"/><path d="M684.13 529.13l.7-.399 10.13 17.619-.1.051c-5.41-9.21-18.07-12.561-24.931-5.351l-.43.25-10.15-17.66c6.891-7.03 19.401-3.65 24.781 5.49z" fill="#faa41a"/><path d="M694.86 546.4l.1-.051 9.97 17.341-.09.05c-5.41-9.21-18.07-12.561-24.93-5.34l-.43.25-9.98-17.35.43-.25c6.86-7.21 19.52-3.86 24.93 5.35z" fill="#faa41a"/><path d="M704.84 563.74l.09-.05 6.74 11.72c2.73 4.74 1.771 10.56-1.99 13.92l-1.569-2.1c-.28-10.95-10.23-20.101-19.82-16.721l-1.54.78-7.27-12.64.43-.25c6.859-7.219 19.519-3.869 24.929 5.341z" fill="#faa41a"/><path d="M707.92 590.6l-3.16 1.811v.01l-17.04 9.8c5.28-6.229 6.24-15.359.49-20.83l-2.61-.159c2.42-2.75 3-6.73 1.15-9.94l1.54-.78c9.59-3.38 19.54 5.771 19.82 16.721l1.569 2.1c-.529.477-1.119.897-1.759 1.267z" fill="#faa41a"/><path d="M688.21 581.39c5.75 5.471 4.79 14.601-.49 20.83l-16.92 9.721c5.28-6.23 6.24-15.36.49-20.83l-.46-.811 12.38-7.12a9.296 9.296 0 0 0 2.39-1.949l2.61.159z" fill="#faa41a"/><path d="M671.29 591.11c5.75 5.47 4.79 14.6-.49 20.83l-18.7 10.76c5.29-6.23 6.25-15.36.49-20.83l-.47-.811 18.71-10.76.46.811z" fill="#faa41a"/><path d="M652.59 601.87c5.76 5.47 4.8 14.6-.49 20.83L634.19 633c5.279-6.24 6.239-15.37.479-20.84l-.46-.8 17.91-10.301.471.811z" fill="#faa41a"/><path d="M634.67 612.16c5.76 5.47 4.8 14.6-.479 20.84l-18.21 10.47c5.279-6.229 6.239-15.359.489-20.83l-.47-.82 18.21-10.46.46.8z" fill="#faa41a"/><path d="M634.67 612.16c5.76 5.47 4.8 14.6-.479 20.84l-18.21 10.47c5.279-6.229 6.239-15.359.489-20.83l-.47-.82 18.21-10.46.46.8z" fill="#faa41a"/><path d="M616.47 622.64c5.75 5.471 4.79 14.601-.489 20.83l-19.221 11.05c5.3-6.22 6.26-15.369.5-20.84l-.47-.81L616 621.82l.47.82z" fill="#faa41a"/><path d="M597.26 633.68c5.76 5.471 4.8 14.62-.5 20.84 0 .011-.01.011-.01.011l-18.16 10.439c5.3-6.229 6.26-15.38.51-20.85l-.47-.811 18.16-10.439.47.81z" fill="#faa41a"/><path d="M579.1 644.12c5.75 5.47 4.79 14.62-.51 20.85l-.01.011-16.12 9.26c4.28-6.13 4.7-14.33-.62-19.38l-.82-1.42 17.61-10.131.47.81z" fill="#faa41a"/><path d="M561.84 654.86c5.32 5.05 4.9 13.25.62 19.38v.01l-17.35 9.97c4.27-6.14 4.689-14.33-.62-19.38l-.82-1.43 17.35-9.97.82 1.42z" fill="#faa41a"/><path d="M544.49 664.84c5.31 5.05 4.89 13.24.62 19.38l-19.32 11.11c-4.74 2.729-10.76 1.31-14.15-3.08l1.641-.48c10.399-1.409 18.18-11.46 14.93-20.34a9.284 9.284 0 0 0 3.59-1.189l11.87-6.83.819 1.429z" fill="#faa41a"/><path d="M510.77 690.94l-14.71-25.591 1-.569c5.4 9.21 18.061 12.56 24.921 5.35l.13-.2c1.739 1.23 3.92 1.761 6.1 1.5 3.25 8.88-4.53 18.931-14.93 20.34l-1.641.48c-.31-.41-.6-.85-.87-1.31z" fill="#faa41a"/><path d="M497.06 664.78l-1 .569-11.05-19.21 1-.569c5.311 9.029 17.58 12.43 24.51 5.75l9.211 16.01a8.046 8.046 0 0 0 2.38 2.6l-.13.2c-6.861 7.21-19.521 3.86-24.921-5.35z" fill="#faa41a"/><path d="M486.01 645.57l-1 .569-10.44-18.159 1-.57c5.31 9.03 17.569 12.43 24.51 5.75l10.439 18.16c-6.929 6.68-19.199 3.28-24.509-5.75z" fill="#faa41a"/><path d="M475.57 627.41l-1 .57-10.12-17.61.38-.22c5.42 9.199 18.07 12.56 24.93 5.35l.13-.07 10.19 17.73c-6.94 6.68-19.2 3.28-24.51-5.75z" fill="#faa41a"/><path d="M464.83 610.15l-.38.22-9.98-17.36.391-.22c5.399 9.21 18.06 12.57 24.92 5.35l.13-.069 9.979 17.359-.13.07c-6.86 7.21-19.51 3.85-24.93-5.35z" fill="#faa41a"/><path d="M465.16 582.98l5.32-1.631c.17.5.39 1 .67 1.48l8.76 15.24-.13.069c-6.86 7.221-19.521 3.86-24.92-5.35l-.391.22-4.91-8.54-3.01-5.229c-3.12-5.42-1.439-12.221 3.75-15.2l2.59-1.49.16.28c-1.579 9.291 4.111 18.641 12.111 20.151z" fill="#faa41a"/><path d="M452.89 562.55l25.48-14.649c-8.99 5.34-12.351 17.619-5.601 24.52-2.409 2.36-3.319 5.84-2.289 8.93l-5.32 1.631c-8-1.511-13.69-10.86-12.11-20.15l-.16-.282z" fill="#faa41a"/><path d="M479.02 547.53l16.16-9.29c-8.819 5.319-12.14 17.29-5.72 24.21l-14.76 8.49a9.18 9.18 0 0 0-1.931 1.479c-6.75-6.9-3.39-19.18 5.601-24.52.22-.129.43-.249.65-.369z" fill="#faa41a"/><path d="M495.95 537.79l17.84-10.26c-8.75 5.35-12.03 17.27-5.64 24.17l-18.69 10.75c-6.42-6.92-3.1-18.891 5.72-24.21l.77-.45z" fill="#faa41a"/><path d="M514.64 527.04l17.17-9.87c-8.819 5.32-12.159 17.311-5.75 24.23l-17.909 10.3c-6.391-6.9-3.11-18.82 5.64-24.17l.849-.49z" fill="#faa41a"/><path d="M532.56 516.74l17.341-9.971c-8.73 5.351-12.011 17.261-5.631 24.16L526.06 541.4c-6.409-6.92-3.069-18.91 5.75-24.23.25-.15.5-.29.75-.43zM569.98 495.23l17.38-10c-8.811 5.329-12.12 17.3-5.71 24.21l-18.17 10.439c-6.44-6.96-3.03-19.05 5.899-24.31a21.6 21.6 0 0 1 .601-.339z" fill="#faa41a"/><path d="M550.76 506.27l18.62-10.699c-8.93 5.26-12.34 17.35-5.899 24.31l-19.211 11.05c-6.38-6.899-3.1-18.81 5.631-24.16l.859-.501zM588.14 484.78l12.771-7.34c-6.07 6.18-7.5 16-1.5 21.779l-17.76 10.221c-6.41-6.91-3.101-18.881 5.71-24.21l.779-.45z" fill="#faa41a"/><path d="M600.91 477.44l17.359-9.99c-6.069 6.18-7.5 16-1.51 21.79l-17.35 9.979c-5.999-5.779-4.569-15.599 1.501-21.779z" fill="#faa41a"/><path d="M632.42 459.32c4.82-2.771 10.96-1.271 14.3 3.3-9.819 2.05-16.85 11.78-13.54 20.34-2.26-.65-4.81-.39-7.069.91l-9.351 5.37c-5.99-5.79-4.56-15.61 1.51-21.79l14.15-8.13zM578.58 664.98l.01-.011 18.16-10.439s.01 0 .01-.011l19.221-11.05L634.19 633l17.909-10.3 18.7-10.76 16.92-9.721 17.04-9.8 1.21 2.09 1.811 3.15c3.109 5.399 1.439 12.21-3.75 15.189L521.9 717.57c-5.181 2.979-11.9 1.01-15.021-4.4l-64.22-111.7c-3.12-5.399-1.44-12.21 3.75-15.189l3.149-1.811 4.91 8.54 9.98 17.36 10.12 17.61 10.439 18.159 11.05 19.21 14.71 25.591c.271.46.561.899.87 1.31 3.391 4.39 9.41 5.81 14.15 3.08l19.32-11.11 17.35-9.97v-.01l16.123-9.26z" fill="#faa41a"/><path d="M508.15 551.7l17.909-10.3 18.21-10.471 19.211-11.05 18.17-10.439 17.76-10.221 17.35-9.979 9.351-5.37c2.26-1.3 4.81-1.561 7.069-.91a8.296 8.296 0 0 1 4.66 3.32c.12.17.23.34.33.52l10.74 18.681 10.439 18.159 10.15 17.66 9.98 17.351 7.27 12.64c1.85 3.21 1.27 7.19-1.15 9.94-.67.76-1.46 1.42-2.39 1.949l-12.38 7.12-18.71 10.76-17.91 10.301L616 621.82l-19.21 11.05-18.16 10.439-17.61 10.131-17.35 9.97-11.87 6.83a9.267 9.267 0 0 1-3.59 1.189c-2.18.261-4.36-.27-6.1-1.5a8.036 8.036 0 0 1-2.38-2.6l-9.211-16.01-10.439-18.16-10.19-17.73-9.979-17.359-8.76-15.24c-.28-.48-.5-.98-.67-1.48-1.03-3.09-.12-6.569 2.289-8.93a9.146 9.146 0 0 1 1.931-1.479l14.76-8.49L508.15 551.7z" fill="#faa41a"/><path d="M634.69 119.26c78.689 0 142.479 63.8 142.479 142.5 0 78.71-63.79 142.5-142.479 142.5-78.7 0-142.5-63.79-142.5-142.5 0-78.7 63.8-142.5 142.5-142.5zm121.29 142.5c0-66.99-54.311-121.3-121.29-121.3-67.011 0-121.32 54.31-121.32 121.3s54.31 121.31 121.32 121.31c66.98 0 121.29-54.32 121.29-121.31z" fill="#394ea1"/><path d="M736.03 265.23c.52.67.779 1.6.779 2.78 0 1.26-.27 2.26-.81 2.97-.54.72-1.21 1.08-1.99 1.08-.72 0-1.35-.3-1.88-.91-.53-.6-.84-1.48-.939-2.62l-3.721.56c.2 2.12.91 3.79 2.12 5.01 1.21 1.22 2.69 1.84 4.45 1.84 1.82 0 3.4-.73 4.72-2.19 1.33-1.45 1.99-3.29 1.99-5.51 0-1.53-.35-2.8-1.05-3.82-.69-1.01-1.601-1.67-2.71-1.97.96-.64 1.68-1.39 2.16-2.24.479-.86.729-1.81.729-2.88 0-1.57-.54-3-1.61-4.3-1.069-1.29-2.52-1.94-4.34-1.94-1.62 0-2.97.51-4.029 1.52-1.07 1.01-1.78 2.63-2.15 4.86l3.53.72c.09-1.08.37-1.89.85-2.43.47-.55 1.04-.82 1.69-.82.64 0 1.18.23 1.59.71.41.47.62 1.13.62 1.97 0 1-.29 1.78-.86 2.33-.58.55-1.38.82-2.38.8l-.41 3.81c.67-.23 1.26-.34 1.75-.34.741 0 1.381.33 1.901 1.01zm-106.99-91.09V149.7h-3.09c-.44 1.45-1.24 2.72-2.38 3.83-1.141 1.1-2.24 1.87-3.311 2.3v4.25c1.87-.75 3.521-1.93 4.94-3.53v17.59h3.841zm9.13 180.62l3.72-.5c-.279-2.03-.93-3.55-1.939-4.56-1.021-1-2.26-1.5-3.74-1.5-2.15 0-3.9.98-5.27 2.94-1.37 1.96-2.051 5.17-2.051 9.62 0 4.4.66 7.54 1.971 9.44 1.319 1.9 2.979 2.84 4.979 2.84 1.82 0 3.34-.73 4.58-2.19 1.23-1.46 1.85-3.47 1.85-6.04 0-2.41-.59-4.35-1.75-5.8-1.17-1.46-2.539-2.18-4.1-2.18-.71 0-1.36.17-1.95.51-.59.35-1.12.86-1.6 1.55.14-2.76.49-4.58 1.04-5.49.55-.9 1.24-1.36 2.08-1.36 1.28 0 2 .91 2.18 2.72zm4.8-194.99c-.38.67-1.42 1.97-3.1 3.88-2.13 2.4-3.57 4.34-4.3 5.82a12.74 12.74 0 0 0-1.32 4.67h13.43v-4.34h-7.62c.2-.42.471-.85.79-1.3.33-.44 1.11-1.35 2.341-2.73 1.319-1.48 2.26-2.68 2.829-3.63.561-.95.98-1.89 1.261-2.82.27-.94.399-1.9.399-2.9 0-1.75-.529-3.31-1.59-4.68-1.07-1.36-2.649-2.04-4.75-2.04-1.91 0-3.439.58-4.58 1.74-1.149 1.16-1.84 2.98-2.08 5.45l3.82.5c.13-2.54 1.04-3.81 2.74-3.81.779 0 1.41.27 1.88.81.479.54.72 1.35.72 2.41 0 .99-.29 1.98-.87 2.97zm-.17 102.01c-.06-4.51-3.74-8.16-8.28-8.16h-.029c-4.55.02-8.23 3.71-8.23 8.26 0 4.57 3.7 8.26 8.26 8.26 4.57 0 8.28-3.69 8.28-8.26l-.001-.1zm-105.12 4.03c-.149 2.76-.5 4.58-1.05 5.48-.54.9-1.25 1.35-2.1 1.35-1.28 0-2-.91-2.181-2.72l-3.72.5c.28 2.06.91 3.59 1.9 4.58.979.99 2.229 1.48 3.739 1.48 2.181 0 3.95-.97 5.311-2.93 1.37-1.96 2.05-5.17 2.05-9.64 0-4.39-.649-7.53-1.96-9.43-1.31-1.89-2.979-2.84-5-2.84-1.81 0-3.33.74-4.56 2.21-1.23 1.47-1.851 3.49-1.851 6.06 0 2.4.59 4.32 1.76 5.77 1.171 1.45 2.521 2.18 4.04 2.18.74 0 1.41-.17 2.011-.52.601-.34 1.141-.85 1.611-1.53zm97.01-125.35c66.979 0 121.29 54.31 121.29 121.3s-54.311 121.31-121.29 121.31c-67.011 0-121.32-54.32-121.32-121.31 0-66.99 54.31-121.3 121.32-121.3z" fill="#a8d7f4"/><path d="M327.89 441.79c5.55 4.36 8.68 9.33 8.68 14.58 0 17.61-35.06 31.87-78.32 31.87-43.25 0-78.3-14.26-78.3-31.87 0-5.19 3.05-10.11 8.47-14.43 17.1 13.22 39.78 21.22 69.83 19.979l-.29-.08c29.35 1.2 51.68-6.399 68.63-19.08.43-.319.86-.649 1.28-.99l.02.021zM378.98 284.32v.03c-.61 11.61-11.37 22.21-28.86 30.43 2.8-2.55 6.58-5.25 6.58-8.05 0-15.25-44.49-27.62-99.38-27.62-54.88 0-99.38 12.37-99.38 27.62 0 1.52.44 3.01 1.3 4.46-13.82-7.89-21.94-17.5-21.94-27.88 0-26.8 54.11-48.53 120.86-48.53 66.74 0 120.85 21.73 120.85 48.53 0 .34-.01.68-.03 1.01z" fill="#fff"/><path d="M356.7 306.73c0 2.8-3.78 5.5-6.58 8.05-22.16 10.45-55.14 17.06-91.96 17.06-40.9 0-77.06-8.16-98.92-20.65-.86-1.45-1.3-2.94-1.3-4.46 0-15.25 44.5-27.62 99.38-27.62 54.89 0 99.38 12.37 99.38 27.62z" fill="#f6cc4b"/><path d="M736 270.98c.54-.71.81-1.71.81-2.97 0-1.18-.26-2.11-.779-2.78-.521-.68-1.16-1.01-1.9-1.01-.49 0-1.08.11-1.75.34l.41-3.81c1 .02 1.8-.25 2.38-.8.57-.55.86-1.33.86-2.33 0-.84-.21-1.5-.62-1.97-.41-.48-.95-.71-1.59-.71-.65 0-1.221.27-1.69.82-.479.54-.76 1.35-.85 2.43l-3.53-.72c.37-2.23 1.08-3.85 2.15-4.86 1.06-1.01 2.409-1.52 4.029-1.52 1.82 0 3.271.65 4.34 1.94 1.07 1.3 1.61 2.73 1.61 4.3 0 1.07-.25 2.02-.729 2.88-.48.85-1.2 1.6-2.16 2.24 1.109.3 2.02.96 2.71 1.97.7 1.02 1.05 2.29 1.05 3.82 0 2.22-.66 4.06-1.99 5.51-1.319 1.46-2.899 2.19-4.72 2.19-1.76 0-3.24-.62-4.45-1.84-1.21-1.22-1.92-2.89-2.12-5.01l3.721-.56c.1 1.14.409 2.02.939 2.62.53.61 1.16.91 1.88.91.779 0 1.449-.36 1.989-1.08zM643.84 156.8c0-1.06-.24-1.87-.72-2.41-.47-.54-1.101-.81-1.88-.81-1.7 0-2.61 1.27-2.74 3.81l-3.82-.5c.24-2.47.931-4.29 2.08-5.45 1.141-1.16 2.67-1.74 4.58-1.74 2.101 0 3.68.68 4.75 2.04 1.061 1.37 1.59 2.93 1.59 4.68 0 1-.13 1.96-.399 2.9-.28.93-.7 1.87-1.261 2.82-.569.95-1.51 2.15-2.829 3.63-1.23 1.38-2.011 2.29-2.341 2.73-.319.45-.59.88-.79 1.3h7.62v4.34h-13.43c.14-1.64.58-3.19 1.32-4.67.729-1.48 2.17-3.42 4.3-5.82 1.68-1.91 2.72-3.21 3.1-3.88.58-.99.87-1.98.87-2.97zM634.52 253.62c4.54 0 8.221 3.65 8.28 8.16v.1c0 4.57-3.71 8.26-8.28 8.26-4.56 0-8.26-3.69-8.26-8.26 0-4.55 3.681-8.24 8.23-8.26h.03z"/><path d="M637.75 361.36c.51.73.77 1.89.77 3.48 0 1.54-.239 2.64-.71 3.32-.479.67-1.069 1.01-1.779 1.01-.74 0-1.391-.41-1.971-1.22-.569-.81-.859-1.99-.859-3.52 0-1.39.26-2.42.77-3.12.511-.7 1.141-1.05 1.87-1.05.759 0 1.389.37 1.909 1.1z" fill="#a8d7f4"/><path d="M638.52 364.84c0-1.59-.26-2.75-.77-3.48-.52-.73-1.15-1.1-1.91-1.1-.729 0-1.359.35-1.87 1.05-.51.7-.77 1.73-.77 3.12 0 1.53.29 2.71.859 3.52.58.81 1.23 1.22 1.971 1.22.71 0 1.3-.34 1.779-1.01.471-.68.711-1.78.711-3.32zm3.75-.03c0 2.57-.619 4.58-1.85 6.04-1.24 1.46-2.76 2.19-4.58 2.19-2 0-3.66-.94-4.979-2.84-1.311-1.9-1.971-5.04-1.971-9.44 0-4.45.681-7.66 2.051-9.62 1.369-1.96 3.119-2.94 5.27-2.94 1.48 0 2.72.5 3.74 1.5 1.01 1.01 1.66 2.53 1.939 4.56l-3.72.5c-.18-1.81-.9-2.72-2.18-2.72-.84 0-1.53.46-2.08 1.36-.55.91-.9 2.73-1.04 5.49.479-.69 1.01-1.2 1.6-1.55.59-.34 1.24-.51 1.95-.51 1.561 0 2.93.72 4.1 2.18 1.16 1.45 1.75 3.39 1.75 5.8zM629.04 149.7v24.44h-3.84v-17.59c-1.42 1.6-3.07 2.78-4.94 3.53v-4.25c1.07-.43 2.17-1.2 3.311-2.3 1.14-1.11 1.939-2.38 2.38-3.83h3.089z"/><path d="M537.35 260.25c0 1.39-.26 2.43-.779 3.13-.521.69-1.141 1.04-1.86 1.04-.76 0-1.4-.36-1.92-1.09-.521-.73-.78-1.88-.78-3.44 0-1.57.24-2.69.71-3.37.48-.67 1.07-1 1.78-1 .74 0 1.4.4 1.98 1.22.579.82.869 1.99.869 3.51z" fill="#a8d7f4"/><path d="M536.57 263.38c.52-.7.779-1.74.779-3.13 0-1.52-.29-2.69-.869-3.51-.58-.82-1.24-1.22-1.98-1.22-.71 0-1.3.33-1.78 1-.47.68-.71 1.8-.71 3.37 0 1.56.26 2.71.78 3.44s1.16 1.09 1.92 1.09c.72 0 1.34-.35 1.86-1.04zm3.1-8.9c1.311 1.9 1.96 5.04 1.96 9.43 0 4.47-.68 7.68-2.05 9.64-1.36 1.96-3.13 2.93-5.311 2.93-1.51 0-2.76-.49-3.739-1.48-.99-.99-1.62-2.52-1.9-4.58l3.72-.5c.181 1.81.9 2.72 2.181 2.72.85 0 1.56-.45 2.1-1.35.55-.9.9-2.72 1.05-5.48-.47.68-1.01 1.19-1.609 1.53-.601.35-1.271.52-2.011.52-1.52 0-2.869-.73-4.04-2.18-1.17-1.45-1.76-3.37-1.76-5.77 0-2.57.62-4.59 1.851-6.06 1.229-1.47 2.75-2.21 4.56-2.21 2.018 0 3.688.95 4.998 2.84z"/><g fill="none" stroke="#000"><path d="M368 394c10.82-3.25 28.84-21.41 45.15-51.66 6.07-11.29 12.24-24.69 14.41-34.69 0 0 3.271-13.69-2.41-13.94-14.62-.62-45.73-.88-45.73-.88M378.98 284.35c-.61 11.61-11.37 22.21-28.86 30.43-22.16 10.45-55.14 17.06-91.96 17.06-40.9 0-77.06-8.16-98.92-20.65-13.82-7.89-21.94-17.5-21.94-27.88 0-26.8 54.11-48.53 120.86-48.53 66.74 0 120.85 21.73 120.85 48.53 0 .34-.01.68-.03 1.01M362 402c48.78 14.85 76.23 36.44 76.23 65.31 0 45.78-81 82.91-180.911 82.91-99.9 0-180.9-37.13-180.9-82.91 0-28.5 31.37-53.64 79.12-68.569h.01" stroke-width="21"/><path d="M326.59 442.76c-16.95 12.681-39.28 20.28-68.63 19.08l.29.08c-30.05 1.24-52.73-6.76-69.83-19.979-14.72-11.381-25.3-26.63-32.88-43.2-23.56-51.41-18.24-115.43-18.24-115.43M378.9 283.22s.03.38.08 1.1v.03c.1 1.49.26 4.41.36 8.48.44 18.85-.55 62.2-16.26 100.28-1.08 2.61-2.22 5.19-3.44 7.74-7.49 15.68-17.75 30.06-31.77 40.919-.42.341-.85.671-1.28.99" stroke-width="21"/><path d="M327.89 441.79c5.55 4.36 8.68 9.33 8.68 14.58 0 17.61-35.06 31.87-78.32 31.87-43.25 0-78.3-14.26-78.3-31.87 0-5.19 3.05-10.11 8.47-14.43" stroke-width="14"/><path d="M159.96 312.3c-.27-.37-.51-.74-.72-1.11-.86-1.45-1.3-2.94-1.3-4.46 0-15.25 44.5-27.62 99.38-27.62 54.89 0 99.38 12.37 99.38 27.62 0 2.8-3.78 5.5-6.58 8.05l-.03.03" stroke-width="21"/><path d="M569.98 495.23l17.38-10 .779-.45 12.771-7.34 17.359-9.99 14.15-8.13c4.82-2.771 10.96-1.271 14.3 3.3.261.35.5.72.721 1.1l15.899 27.641 11.04 19.21 10.45 18.16 10.13 17.619 9.97 17.341 6.74 11.72c2.73 4.74 1.771 10.56-1.99 13.92-.529.479-1.12.9-1.76 1.27l-3.16 1.811v.01l-17.04 9.8-16.92 9.721-18.7 10.76L634.19 633l-18.21 10.47-19.221 11.05M532.56 516.74l17.34-9.97.86-.5 18.62-10.7M479.02 547.53l16.16-9.29.77-.45 17.84-10.26.85-.49 17.17-9.87M562.46 674.25l-17.35 9.97-19.32 11.11c-4.74 2.729-10.76 1.31-14.15-3.08-.31-.41-.6-.85-.87-1.31l-14.71-25.591-11.05-19.21-10.44-18.159-10.12-17.61-9.98-17.36-4.91-8.54-3.01-5.229c-3.12-5.42-1.439-12.221 3.75-15.2l2.59-1.49 25.48-14.649M578.58 664.98l-16.12 9.26M596.75 654.53l-18.16 10.44" stroke-width="7"/><path d="M686.75 571.29c1.85 3.21 1.27 7.19-1.15 9.94-.67.76-1.46 1.42-2.39 1.949l-12.38 7.12-18.71 10.76-17.91 10.301L616 621.82l-19.21 11.05-18.16 10.439-17.61 10.131-17.35 9.97-11.87 6.83a9.267 9.267 0 0 1-3.59 1.189c-2.18.261-4.36-.27-6.1-1.5a8.036 8.036 0 0 1-2.38-2.6l-9.211-16.01-10.439-18.16-10.19-17.73-9.979-17.359-8.76-15.24c-.28-.48-.5-.98-.67-1.48-1.03-3.09-.12-6.569 2.289-8.93a9.146 9.146 0 0 1 1.931-1.479l14.76-8.49 18.69-10.75 17.909-10.3 18.21-10.471 19.211-11.05 18.17-10.439 17.76-10.221 17.35-9.979 9.351-5.37c2.26-1.3 4.81-1.561 7.069-.91a8.296 8.296 0 0 1 4.66 3.32c.12.17.23.34.33.52l10.74 18.681 10.439 18.159 10.15 17.66 9.98 17.351 7.27 12.638z" stroke-width="14"/><path d="M473.11 572.76c-.12-.109-.23-.22-.341-.34-6.75-6.9-3.39-19.18 5.601-24.52.22-.131.43-.25.649-.37M490.03 563.03c-.2-.19-.391-.38-.57-.58-6.42-6.92-3.1-18.891 5.72-24.21.25-.16.511-.311.771-.45M508.72 552.28c-.2-.19-.39-.38-.569-.58-6.391-6.9-3.11-18.82 5.64-24.17.28-.17.56-.33.85-.49M526.64 541.99a11.92 11.92 0 0 1-.58-.59c-6.409-6.92-3.069-18.91 5.75-24.23.25-.15.5-.29.75-.43M544.85 531.52c-.199-.189-.399-.39-.58-.59-6.38-6.899-3.1-18.81 5.631-24.16.279-.18.569-.34.859-.5M564.06 520.47c-.199-.189-.399-.39-.579-.59-6.44-6.96-3.03-19.05 5.899-24.31.2-.12.4-.23.601-.34M582.22 510.02c-.2-.189-.39-.38-.569-.579-6.41-6.91-3.101-18.881 5.71-24.21.26-.16.52-.311.779-.45M599.48 499.29l-.07-.07c-6-5.779-4.57-15.6 1.5-21.779a18.897 18.897 0 0 1 4.479-3.391M616.83 489.31l-.07-.069c-5.99-5.79-4.56-15.61 1.51-21.79a19.02 19.02 0 0 1 4.48-3.38M633.59 483.9a13.6 13.6 0 0 1-.41-.94c-3.31-8.56 3.721-18.29 13.54-20.34.431-.101.87-.18 1.32-.24M469.27 583.05c-1.42.21-2.789.17-4.109-.069-8-1.511-13.69-10.86-12.11-20.15M688.21 581.39c5.75 5.471 4.79 14.601-.49 20.83a18.987 18.987 0 0 1-5.42 4.41M671.29 591.11c5.75 5.47 4.79 14.6-.49 20.83a18.899 18.899 0 0 1-5.42 4.42M652.59 601.87c5.76 5.47 4.8 14.6-.49 20.83a18.838 18.838 0 0 1-5.42 4.41M634.67 612.16c5.76 5.47 4.8 14.6-.479 20.84a19.097 19.097 0 0 1-5.431 4.42M616.47 622.64c5.75 5.471 4.79 14.601-.489 20.83a19.005 19.005 0 0 1-5.421 4.41M597.26 633.68c5.76 5.471 4.8 14.62-.5 20.84 0 .011-.01.011-.01.011a19.02 19.02 0 0 1-5.4 4.39M579.1 644.12c5.75 5.47 4.79 14.62-.51 20.85l-.01.011a19.02 19.02 0 0 1-5.4 4.39M561.84 654.86c5.32 5.05 4.9 13.25.62 19.38v.01a19.25 19.25 0 0 1-6.54 5.85M544.49 664.84c5.31 5.05 4.89 13.24.62 19.38-1.65 2.351-3.86 4.41-6.54 5.86M521.98 670.13c-6.86 7.21-19.521 3.86-24.921-5.35-.109-.19-.22-.38-.319-.57M510.93 650.91c-.13.14-.27.28-.41.41-6.93 6.68-19.199 3.279-24.51-5.75-.109-.19-.22-.38-.319-.57M500.49 632.75c-.13.14-.271.28-.41.41-6.94 6.68-19.2 3.28-24.51-5.75-.11-.19-.221-.38-.32-.57M489.76 615.5c-6.859 7.21-19.51 3.85-24.93-5.35-.11-.19-.22-.381-.32-.57M479.78 598.14c-6.86 7.221-19.521 3.86-24.92-5.35-.11-.19-.221-.38-.32-.57M637.71 486.41c.04-.04.08-.09.13-.13 6.891-7.04 19.42-3.66 24.8 5.479.11.19.221.38.32.57M648.76 505.63l.15-.149c6.88-7.03 19.39-3.65 24.77 5.489.11.19.221.38.32.57M659.2 523.79l.149-.15c6.891-7.029 19.4-3.649 24.78 5.49.11.19.22.38.32.57M669.93 541.05c6.86-7.21 19.521-3.859 24.931 5.351.109.189.22.38.319.569M679.91 558.4c6.859-7.221 19.52-3.87 24.93 5.34.11.189.22.38.32.569M527.72 670.25c.19.39.351.78.49 1.18 3.25 8.88-4.53 18.931-14.93 20.34M688.29 570.51c9.59-3.38 19.54 5.771 19.82 16.721" stroke-width="7"/><path d="M705.97 594.51l1.811 3.15c3.109 5.399 1.439 12.21-3.75 15.189L521.9 717.57c-5.181 2.979-11.9 1.01-15.021-4.4l-64.22-111.7c-3.12-5.399-1.44-12.21 3.75-15.189M755.98 261.76c0 66.99-54.311 121.31-121.29 121.31-67.011 0-121.32-54.32-121.32-121.31 0-66.99 54.31-121.3 121.32-121.3 66.98 0 121.29 54.31 121.29 121.3z" stroke-width="14"/><path d="M777.17 261.76c0 78.71-63.79 142.5-142.479 142.5-78.7 0-142.5-63.79-142.5-142.5 0-78.7 63.8-142.5 142.5-142.5 78.689 0 142.479 63.8 142.479 142.5z" stroke-width="21"/><path stroke-width="14" d="M538.47 221.55l29.5 11.79M568.5 181.84l17.71 23.61M728.44 220.92l-29.49 11.81M698.39 181.23l-17.7 23.6M540.75 304.56l29.51-11.81M570.79 344.25l17.7-23.6M730.72 305.17l-29.5-11.79M700.68 344.87l-17.7-23.6M634.49 184.94V258.16M688.53 261.78H634.22"/></g><path fill="none" d="M0 0h850.394v850.394H0z"/></svg>