<?xml version="1.0" encoding="iso-8859-1"?>
<!-- Generator: Adobe Illustrator 12.0.1, SVG Export Plug-In . SVG Version: 6.00 Build 51448)  -->
<!DOCTYPE svg PUBLIC "-//W3C//DTD SVG 1.1//EN" "http://www.w3.org/Graphics/SVG/1.1/DTD/svg11.dtd" [
	<!ENTITY ns_svg "http://www.w3.org/2000/svg">
	<!ENTITY ns_xlink "http://www.w3.org/1999/xlink">
]>
<svg  version="1.1" id="Layer_1" xmlns="&ns_svg;" xmlns:xlink="&ns_xlink;" width="850.394" height="850.394"
	 viewBox="0 0 850.394 850.394" style="overflow:visible;enable-background:new 0 0 850.394 850.394;" xml:space="preserve">
<g id="XMLID_11_">
	<g>
		<polygon style="fill:#FBED24;" points="473.44,428.37 726.62,428.37 745.07,428.37 745.07,467.8 453.89,467.8 453.89,428.37 		"/>
		<path style="fill:#ED1E29;" d="M394.83,405.77l5.75,21.57L360.91,447c-9.19-14.66-20.33-27.34-33.27-37.41l37.07-30.7l5.77-4.78
			L394.83,405.77z"/>
		<path style="fill:#ED1E29;" d="M364.21,378.29l0.5,0.6l-37.07,30.7c-10.49-8.19-22.17-14.66-34.93-19.09l33.33-39.44l3.74-4.43
			L364.21,378.29z"/>
		<path style="fill:#ED1E29;" d="M326.04,351.06l-33.33,39.44c-11.7-4.07-24.32-6.43-37.79-6.81l0.07-1.92l25.35-41.55l7.34-12.03
			l37.23,21.92L326.04,351.06z"/>
		<path style="fill:#ED1E29;" d="M280.34,340.22l-25.35,41.55l-0.07,1.92c-1.35-0.05-2.7-0.07-4.07-0.07
			c-9.03,0-17.88,0.87-26.47,2.54l-0.71-4.04l13.62-46.41l3.43-11.69l37.58,14.96L280.34,340.22z"/>
		<path style="fill:#ED1E29;" d="M237.29,335.71l-13.62,46.41l0.71,4.04c-11.65,2.26-22.84,6-33.4,11.02l-1.4-4.62l3.57-53.68
			l0.43-6.51l41.22,2.61L237.29,335.71z"/>
		<path style="fill:#ED1E29;" d="M139.83,361.59l20.87-18.78l28.71-4.18l3.74,0.25l-3.57,53.68l1.4,4.62
			c-8.74,4.16-17.05,9.2-24.82,15.03L166,412L139.83,361.59z"/>
	</g>
	<g>
		<path style="fill:none;stroke:#231F20;stroke-width:14;" d="M757.81,252.03c0,53.01-26.159,99.92-66.27,128.52
			c-25.75,18.35-57.24,29.16-91.26,29.2c-0.061,0-0.13,0-0.19,0c-0.06,0-0.13,0-0.189,0c-34.11-0.04-65.681-10.91-91.471-29.35
			c-40-28.61-66.069-75.45-66.069-128.37c0-87.11,70.62-157.73,157.729-157.73c0.61,0,1.22,0,1.83,0.01
			C688.19,95.29,757.81,165.53,757.81,252.03z"/>
		<path style="fill:none;stroke:#231F20;stroke-width:14;" d="M684.11,252.03c0,1.39-0.03,2.77-0.101,4.14
			c-0.5,10.27-2.84,20.05-6.7,29.02c-3.17,7.36-7.359,14.19-12.39,20.28c-4.91,5.96-10.63,11.23-16.99,15.64
			c-8.01,5.56-17.04,9.76-26.75,12.26v0.01c-6.739,1.74-13.81,2.67-21.09,2.67c-7.25,0-14.29-0.92-21-2.65
			c-9.89-2.54-19.08-6.84-27.21-12.55c-6.21-4.36-11.81-9.54-16.62-15.38c-5.16-6.24-9.43-13.25-12.63-20.82
			c-3.93-9.35-6.229-19.55-6.52-30.25c-0.03-0.79-0.04-1.58-0.04-2.37c0-11.36,2.25-22.19,6.34-32.07
			c2.95-7.15,6.87-13.81,11.58-19.8c5.29-6.74,11.59-12.64,18.67-17.49c7.38-5.06,15.6-8.97,24.42-11.47
			c7.31-2.08,15.03-3.19,23.01-3.19c7.26,0,14.311,0.92,21.03,2.66c9.1,2.34,17.61,6.17,25.24,11.23
			c7.59,5,14.31,11.22,19.909,18.36c4.48,5.72,8.24,12.05,11.131,18.83C681.72,229.21,684.11,240.34,684.11,252.03z"/>
		<path style="fill:none;stroke:#231F20;stroke-width:18.1878;" d="M614.35,252.03c0,2.62-0.63,5.08-1.72,7.22
			c-1.649,3.23-4.36,5.74-7.64,7.02c-1.53,0.59-3.181,0.92-4.9,0.92c-2.7,0-5.229-0.8-7.39-2.2c-2.351-1.52-4.26-3.74-5.46-6.39
			c-0.9-1.99-1.41-4.21-1.41-6.57c0-2.11,0.4-4.11,1.13-5.94c1.09-2.71,2.89-5.01,5.16-6.64c2.28-1.63,5.02-2.59,7.97-2.59
			c2.49,0,4.83,0.68,6.87,1.88c2.521,1.47,4.57,3.73,5.86,6.46C613.8,247.25,614.35,249.57,614.35,252.03z"/>
		<polyline style="fill:none;stroke:#231F20;stroke-width:14;" points="600.09,94.3 600.09,95.74 600.09,168.01 600.09,236.86 
			600.09,252.03 600.09,267.19 600.09,336.05 600.09,409.75 		"/>
		<polyline style="fill:none;stroke:#231F20;stroke-width:7;" points="442.36,252.03 512.73,252.03 516.07,252.03 585.83,252.03 
			600.09,252.03 614.35,252.03 684.11,252.03 687.44,252.03 757.81,252.03 759.64,252.03 		"/>
		<polyline style="fill:none;stroke:#231F20;stroke-width:7;" points="599.48,95.74 577.04,167.71 511.52,129.49 532.15,199.85 
			457.52,202.28 512.73,251.42 		"/>
		<polyline style="fill:none;stroke:#231F20;stroke-width:7;" points="601.91,95.51 621.92,167.71 687.45,129.49 666.81,199.85 
			741.44,202.28 687.44,250.82 		"/>
		<polyline style="fill:none;stroke:#231F20;stroke-width:7;" points="600.09,410.35 599.9,409.75 577.64,338.4 512.12,376.61 
			512.74,374.5 532.75,306.25 458.13,303.81 514.55,254.46 		"/>
		<polyline style="fill:none;stroke:#231F20;stroke-width:7;" points="600.09,410.35 600.28,409.75 622.54,338.4 688.06,376.61 
			687.67,375.27 667.42,306.25 742.04,303.81 686.84,256.28 		"/>
		<polyline style="fill:none;stroke:#231F20;stroke-width:6.0626;" points="646.95,181.05 646.36,181.9 607.37,238.08 		"/>
		<line style="fill:none;stroke:#231F20;stroke-width:6.0626;" x1="612.82" y1="245.2" x2="676.98" y2="219.27"/>
		<polyline style="fill:none;stroke:#231F20;stroke-width:6.0626;" points="551.86,181.51 552.66,182.67 591.45,238.53 		"/>
		<polyline style="fill:none;stroke:#231F20;stroke-width:6.0626;" points="585.98,245.66 522.41,219.96 521.83,219.72 		"/>
		<polyline style="fill:none;stroke:#231F20;stroke-width:21;" points="728.09,430.37 726.62,428.37 691.54,380.55 687.67,375.27 
			647.93,321.11 607.82,266.44 		"/>
		<polyline style="fill:none;stroke:#231F20;stroke-width:6.0626;" points="613.28,259.31 677.31,285.19 677.43,285.24 		"/>
		<polyline style="fill:none;stroke:#231F20;stroke-width:21;" points="473.3,428.56 473.44,428.37 508.43,380.4 512.74,374.5 
			551.88,320.85 591.9,265.99 		"/>
		<polyline style="fill:none;stroke:#231F20;stroke-width:6.0626;" points="586.44,258.85 522.63,284.65 522.28,284.79 		"/>
		<polygon style="fill:none;stroke:#231F20;stroke-width:21;" points="726.62,428.37 745.07,428.37 745.07,467.8 453.89,467.8 
			453.89,428.37 473.44,428.37 		"/>
		<path style="fill:none;stroke:#231F20;stroke-width:28;" d="M384.67,504.88c-5.13-21.32-13.14-40.92-23.76-57.88
			c-9.19-14.66-20.33-27.34-33.27-37.41c-10.49-8.19-22.17-14.66-34.93-19.09c-11.7-4.07-24.32-6.43-37.79-6.81
			c-1.35-0.05-2.7-0.07-4.07-0.07c-9.03,0-17.88,0.87-26.47,2.54c-11.65,2.26-22.84,6-33.4,11.02c-8.74,4.16-17.05,9.2-24.82,15.03
			c-25.81,19.32-45.76,47.23-56.36,79.94c-5.47,16.899-8.45,35.08-8.45,54.02c0,27.91,6.47,54.18,17.87,77.13
			c15.27,30.771,39.41,55.57,68.69,70.37c12.62,6.37,26.2,10.89,40.43,13.23c0,0,1.12,0.33,3.22,0.819
			c8.15,1.931,31.02,6.38,59.5,3.79c10.68-0.97,22.15-2.93,33.93-6.39c15.04-4.41,30.59-11.26,45.64-21.601
			c99.71-68.5,55.25-40.21,117.07-81.96c0,0,142.29-107.79,271.62,43.78"/>
		<polyline style="fill:none;stroke:#231F20;stroke-width:28;" points="115.06,492.38 147.93,492.38 119.22,623.3 90.01,756.48 		
			"/>
		<polyline style="fill:none;stroke:#231F20;stroke-width:28;" points="150.66,484.03 152.01,491.65 176.29,628.29 187.91,693.67 
			199.07,756.48 		"/>
		<line style="fill:none;stroke:#231F20;stroke-width:28;" x1="232.87" y1="711.45" x2="248.64" y2="756.48"/>
		<polyline style="fill:none;stroke:#231F20;stroke-width:28;" points="150.02,632.76 176.29,628.29 202.21,623.89 231.56,707.72 
			232.87,711.45 		"/>
		<polyline style="fill:none;stroke:#231F20;stroke-width:28;" points="255.96,674.5 288.14,667.62 309.71,663.01 324.99,705.12 
			343.62,756.48 		"/>
		<polyline style="fill:none;stroke:#231F20;stroke-width:28;" points="288.83,670.85 291.06,711.51 293.53,756.48 		"/>
		<polyline style="fill:none;stroke:#231F20;stroke-width:14;" points="189.41,338.63 160.7,342.81 139.83,361.59 166,412 		"/>
		<polyline style="fill:none;stroke:#231F20;stroke-width:14;" points="234.8,334.98 193.58,332.37 193.15,338.88 189.58,392.56 		
			"/>
		<polyline style="fill:none;stroke:#231F20;stroke-width:14;" points="278.3,338.98 240.72,324.02 237.29,335.71 223.67,382.12 		
			"/>
		<polyline style="fill:none;stroke:#231F20;stroke-width:14;" points="254.99,381.77 280.34,340.22 287.68,328.19 324.91,350.11 		
			"/>
		<polyline style="fill:none;stroke:#231F20;stroke-width:14;" points="291.86,391.51 292.71,390.5 326.04,351.06 329.78,346.63 
			364.21,378.29 		"/>
		<polyline style="fill:none;stroke:#231F20;stroke-width:14;" points="360.57,447.17 360.91,447 400.58,427.34 394.83,405.77 
			370.48,374.11 364.71,378.89 327.64,409.59 325.95,410.99 		"/>
	</g>
</g>
<rect style="fill:none;" width="850.394" height="850.394"/>
</svg>
