<?xml version="1.0" encoding="iso-8859-1"?>
<!-- Generator: Adobe Illustrator 12.0.1, SVG Export Plug-In . SVG Version: 6.00 Build 51448)  -->
<!DOCTYPE svg PUBLIC "-//W3C//DTD SVG 1.1//EN" "http://www.w3.org/Graphics/SVG/1.1/DTD/svg11.dtd" [
	<!ENTITY ns_svg "http://www.w3.org/2000/svg">
	<!ENTITY ns_xlink "http://www.w3.org/1999/xlink">
]>
<svg  version="1.1" id="Layer_1" xmlns="&ns_svg;" xmlns:xlink="&ns_xlink;" width="850.394" height="850.394"
	 viewBox="0 0 850.394 850.394" style="overflow:visible;enable-background:new 0 0 850.394 850.394;" xml:space="preserve">
<g>
	<g id="XMLID_6_">
		<g>
			<path style="fill:#C8C8C8;" d="M402.619,102.284c127.232,0,195.476,20.617,195.476,46.072c0,25.063-66.122,45.433-189.562,46.058
				c-1.947,0.015-3.923,0.015-5.914,0.015c-1.991,0-3.966,0-5.928-0.015c-1.599-0.015-3.182-0.015-4.766-0.029
				c-0.349-0.015-0.712-0.015-1.061-0.015c-119.706-1.235-183.736-21.358-183.736-46.014
				C207.128,122.901,275.358,102.284,402.619,102.284z"/>
			<path style="fill:#7A7878;" d="M154.169,705.479l-0.566-1.031v-12.074c31.775,33.389,112.18,58.132,249.597,58.132
				c131.853,0,208.451-22.782,245.341-54.121v8.106l-0.843,0.684c3.835,4.91,5.841,10.011,5.841,15.212
				c0,41.655-93.815,75.421-252.649,75.421s-252.663-33.766-252.663-75.421C148.227,715.707,150.93,710.056,154.169,705.479z"/>
			<path style="fill:#7A7878;" d="M207.128,148.356c0,24.656,64.03,44.779,183.736,46.014
				c-126.709-1.104-211.037-19.368-237.262-44.067c-5.754-5.419-8.703-11.144-8.703-17.057c0-33.795,96.372-61.183,258.3-61.183
				c161.942,0,258.301,27.388,258.301,61.183c0,7.308-4.505,14.326-13.222,20.82c-31.093,23.218-115.74,39.883-239.747,40.348
				c123.44-0.625,189.562-20.995,189.562-46.058c0-25.455-68.243-46.072-195.476-46.072
				C275.358,102.284,207.128,122.901,207.128,148.356z"/>
			<path style="fill:#7A7878;" d="M648.541,154.415v49.458c-36.89,24.99-113.488,43.137-245.341,43.137
				c-137.417,0-217.822-19.716-249.597-46.333v-50.373c26.225,24.7,110.553,42.963,237.262,44.067c0.349,0,0.712,0,1.061,0.015
				c1.583,0.014,3.167,0.014,4.766,0.029c1.961,0.015,3.937,0.015,5.928,0.015c1.99,0,3.966,0,5.914-0.015
				c124.006-0.465,208.654-17.13,239.747-40.348L648.541,154.415z"/>
			<path style="fill:#FFFFC2;" d="M648.541,203.872v492.512c-36.89,31.339-113.488,54.121-245.341,54.121
				c-137.417,0-217.822-24.743-249.597-58.132V200.676c31.775,26.618,112.18,46.333,249.597,46.333
				C535.053,247.009,611.651,228.862,648.541,203.872z"/>
		</g>
		<g>
			<path style="fill:none;stroke:#231F20;stroke-width:21;" d="M390.865,194.37c-126.709-1.104-211.037-19.368-237.262-44.067
				c-5.754-5.419-8.703-11.144-8.703-17.057c0-33.795,96.372-61.183,258.3-61.183c161.942,0,258.301,27.388,258.301,61.183
				c0,7.308-4.505,14.326-13.222,20.82c-31.093,23.218-115.74,39.883-239.747,40.348"/>
			<path style="fill:none;stroke:#231F20;stroke-width:21;" d="M396.691,194.414c-1.599-0.015-3.182-0.015-4.766-0.029"/>
			<path style="fill:none;stroke:#231F20;stroke-width:21;" d="M648.541,203.872c-36.89,24.99-113.488,43.137-245.341,43.137
				c-137.417,0-217.822-19.716-249.597-46.333l-0.015-0.015"/>
			<path style="fill:none;stroke:#231F20;stroke-width:21;" d="M648.541,696.384c-36.89,31.339-113.488,54.121-245.341,54.121
				c-137.417,0-217.822-24.743-249.597-58.132l-0.015-0.015"/>
			<polyline style="fill:none;stroke:#231F20;stroke-width:21;" points="153.603,148.08 153.603,150.303 153.603,200.676 
				153.603,692.373 153.603,704.447 			"/>
			<polyline style="fill:none;stroke:#231F20;stroke-width:21;" points="648.541,154.415 648.541,203.872 648.541,696.384 
				648.541,704.49 			"/>
			<path style="fill:none;stroke:#231F20;stroke-width:21;" d="M647.698,705.174c3.835,4.91,5.841,10.011,5.841,15.212
				c0,41.655-93.815,75.421-252.649,75.421s-252.663-33.766-252.663-75.421c0-4.679,2.703-10.33,5.942-14.907
				c0.218-0.305,0.436-0.61,0.654-0.9"/>
			<path style="fill:none;stroke:#231F20;stroke-width:21;" d="M390.865,194.37c-119.706-1.235-183.736-21.358-183.736-46.014
				c0-25.455,68.229-46.072,195.491-46.072c127.232,0,195.476,20.617,195.476,46.072c0,25.063-66.122,45.433-189.562,46.058
				c-1.947,0.015-3.923,0.015-5.914,0.015c-1.991,0-3.966,0-5.928-0.015c-1.599-0.015-3.182-0.015-4.766-0.029
				C391.577,194.37,391.214,194.37,390.865,194.37z"/>
		</g>
	</g>
</g>
<rect style="fill:none;" width="850.394" height="850.394"/>
</svg>
