<svg xmlns="http://www.w3.org/2000/svg" width="850.394" height="850.394" viewBox="0 0 850.394 850.394" overflow="visible"><path d="M402.619 102.284c127.232 0 195.476 20.617 195.476 46.072 0 25.063-66.122 45.433-189.562 46.058-1.947.015-3.923.015-5.914.015-1.991 0-3.966 0-5.928-.015-1.599-.015-3.182-.015-4.766-.029-.349-.015-.712-.015-1.061-.015-119.706-1.235-183.736-21.358-183.736-46.014 0-25.455 68.23-46.072 195.491-46.072z" fill="#c8c8c8"/><path d="M154.169 705.479l-.566-1.031v-12.074c31.775 33.389 112.18 58.132 249.597 58.132 131.853 0 208.451-22.782 245.341-54.121v8.106l-.843.684c3.835 4.91 5.841 10.011 5.841 15.212 0 41.655-93.815 75.421-252.649 75.421s-252.663-33.766-252.663-75.421c0-4.68 2.703-10.331 5.942-14.908zM207.128 148.356c0 24.656 64.03 44.779 183.736 46.014-126.709-1.104-211.037-19.368-237.262-44.067-5.754-5.419-8.703-11.144-8.703-17.057 0-33.795 96.372-61.183 258.3-61.183 161.942 0 258.301 27.388 258.301 61.183 0 7.308-4.505 14.326-13.222 20.82-31.093 23.218-115.74 39.883-239.747 40.348 123.44-.625 189.562-20.995 189.562-46.058 0-25.455-68.243-46.072-195.476-46.072-127.259 0-195.489 20.617-195.489 46.072z" fill="#7a7878"/><path d="M648.541 154.415v49.458c-36.89 24.99-113.488 43.137-245.341 43.137-137.417 0-217.822-19.716-249.597-46.333v-50.373c26.225 24.7 110.553 42.963 237.262 44.067.349 0 .712 0 1.061.015 1.583.014 3.167.014 4.766.029 1.961.015 3.937.015 5.928.015 1.99 0 3.966 0 5.914-.015 124.006-.465 208.654-17.13 239.747-40.348l.26.348z" fill="#7a7878"/><path d="M648.541 203.872v492.512c-36.89 31.339-113.488 54.121-245.341 54.121-137.417 0-217.822-24.743-249.597-58.132V200.676c31.775 26.618 112.18 46.333 249.597 46.333 131.853 0 208.451-18.147 245.341-43.137z" fill="#ffffc2"/><g fill="none" stroke="#231f20" stroke-width="21"><path d="M390.865 194.37c-126.709-1.104-211.037-19.368-237.262-44.067-5.754-5.419-8.703-11.144-8.703-17.057 0-33.795 96.372-61.183 258.3-61.183 161.942 0 258.301 27.388 258.301 61.183 0 7.308-4.505 14.326-13.222 20.82-31.093 23.218-115.74 39.883-239.747 40.348M396.691 194.414c-1.599-.015-3.182-.015-4.766-.029M648.541 203.872c-36.89 24.99-113.488 43.137-245.341 43.137-137.417 0-217.822-19.716-249.597-46.333l-.015-.015M648.541 696.384c-36.89 31.339-113.488 54.121-245.341 54.121-137.417 0-217.822-24.743-249.597-58.132l-.015-.015M153.603 148.08v556.367M648.541 154.415V704.49"/><path d="M647.698 705.174c3.835 4.91 5.841 10.011 5.841 15.212 0 41.655-93.815 75.421-252.649 75.421s-252.663-33.766-252.663-75.421c0-4.679 2.703-10.33 5.942-14.907.218-.305.436-.61.654-.9M390.865 194.37c-119.706-1.235-183.736-21.358-183.736-46.014 0-25.455 68.229-46.072 195.491-46.072 127.232 0 195.476 20.617 195.476 46.072 0 25.063-66.122 45.433-189.562 46.058-1.947.015-3.923.015-5.914.015-1.991 0-3.966 0-5.928-.015-1.599-.015-3.182-.015-4.766-.029-.349-.015-.712-.015-1.061-.015z"/></g><path fill="none" d="M0 0h850.394v850.394H0z"/><g><path d="M404.83 396.321c7.445-14.409 17.757-24.507 29.565-31.65 17.027-10.318 37.172-14.501 56.29-16.651-9.467 7.683-19.936 13.8-29.391 20.956h-.006c-8.041 6.083-15.353 12.908-20.677 22.079-4.427 7.619-10.869 20.741-19.907 25.486l.325.603c38.208 10.458 54.819 43.017 65.114 73.926-17.561-14.184-30.584-32.839-52.513-40.022-9.751-3.192-27.352-7.509-31.604-18.383v-.006c.122-1.906-.157-3.777-.927-5.567.018-.655.081-1.327.186-2.017l-.122-.51c1.39-.324 2.265-.637 2.265-.637 4.189-3.783 3.436-15.26.782-27.508l.62-.099z" fill="#00e800"/><path d="M356.291 302.54s24.565 38.023 36.228 60.375c2.253 4.316 4.026 8.047 5.046 10.811 2.462 6.663 4.948 14.837 6.646 22.694 2.653 12.248 3.407 23.725-.782 27.508 0 0-.875.313-2.265.637-3.262.788-9.357 1.68-13.493-1.101-1.704-1.142-3.077-2.909-3.783-5.568 0 0 .243-10.486-.939-22.404-.909-9.166-2.659-19.177-6.008-25.909-.921-1.86-2.172-4.073-3.656-6.529-10.875-18.006-34.298-49.078-34.298-49.078l17.304-11.436z" fill="#00e800"/><path d="M392.519 362.915c3.922-.214 7.874-.319 11.859-.319 10.214 0 20.237.707 30.011 2.068l.006.006c-11.808 7.144-22.12 17.242-29.565 31.65l-.62.099c-1.698-7.856-4.183-16.031-6.646-22.694-1.019-2.763-2.792-6.494-5.045-10.81z" fill="#f73900"/><path d="M316.379 382.3c15.758 6.79 30.891 14.31 48.608 13.655 4.026-.15 12.636-.55 17.96-.463 1.182 11.917.939 22.404.939 22.404.707 2.659 2.08 4.426 3.783 5.568-.962.081-1.912.139-2.856.174-33.087 1.419-57.084-17.184-75.82-38.521a240.881 240.881 0 0 1-7.126-8.517c4.953 1.674 9.761 3.655 14.512 5.7z" fill="#00e800"/><path d="M316.379 382.3c11.28-5.087 36.801-16.21 56.898-19.24l.006-.006c1.483 2.457 2.735 4.669 3.656 6.529 3.349 6.732 5.099 16.743 6.008 25.909-5.324-.087-13.934.313-17.96.463-17.716.655-32.849-6.865-48.608-13.655z" fill="#f73900"/><path d="M324.461 516.387c12.815-36.349 22.125-75.542 60.352-92.744v-.005a60.812 60.812 0 0 0 2.856-.174c4.136 2.78 10.231 1.889 13.493 1.101l.122.51a16.568 16.568 0 0 0-.186 2.017c-.069 2.027.267 3.876.927 5.567v.006c-.875 14.066-23.412 30.329-31.813 35.874-9.438 6.228-13.238 18.029-20.585 26.743-7.136 8.463-14.048 16.806-25.166 21.105z" fill="#00e800"/><path d="M404.378 686.185c-103.456 0-187.318-72.442-187.318-161.791 0-59.274 36.894-111.098 91.933-139.277 18.736 21.337 42.733 39.941 75.82 38.521v.005c-38.226 17.202-47.536 56.395-60.352 92.744 11.118-4.299 18.029-12.642 25.167-21.105 7.347-8.714 11.147-20.516 20.585-26.743 8.4-5.545 30.938-21.808 31.813-35.874 4.252 10.874 21.853 15.19 31.604 18.383 21.929 7.184 34.952 25.839 52.513 40.022-10.295-30.909-26.905-63.469-65.114-73.926l-.325-.603c9.038-4.745 15.48-17.868 19.907-25.486 5.324-9.171 12.636-15.996 20.677-22.079h.006c77.437 19.86 130.396 82.078 130.396 155.418 0 89.348-83.862 161.791-187.312 161.791z" fill="#f73900"/><g fill="none" stroke="#000" stroke-width="10.938"><path d="M461.294 368.975c77.437 19.86 130.396 82.078 130.396 155.418 0 89.349-83.862 161.791-187.313 161.791-103.456 0-187.318-72.442-187.318-161.791 0-59.274 36.894-111.098 91.933-139.277M392.519 362.915c3.922-.214 7.874-.319 11.859-.319 10.214 0 20.237.707 30.011 2.068M316.379 382.3c11.28-5.087 36.801-16.21 56.898-19.24"/><path d="M404.83 396.321c7.445-14.409 17.757-24.507 29.565-31.65 17.027-10.318 37.172-14.501 56.29-16.651-9.467 7.683-19.936 13.8-29.391 20.956h-.006c-8.041 6.083-15.353 12.908-20.677 22.079-4.427 7.619-10.869 20.741-19.907 25.486-3.638 1.912-7.706 2.468-12.224.747M402.026 432.658c-.661-1.691-.997-3.54-.927-5.567.018-.655.081-1.327.186-2.017M421.029 417.143c38.208 10.458 54.819 43.017 65.114 73.926-17.561-14.184-30.584-32.839-52.513-40.022-9.751-3.192-27.352-7.509-31.604-18.383M388.55 423.4c-.295.023-.591.052-.88.064-.962.081-1.912.139-2.856.174-33.087 1.419-57.084-17.184-75.82-38.521a240.881 240.881 0 0 1-7.126-8.517c4.954 1.674 9.762 3.656 14.513 5.701 15.758 6.79 30.891 14.31 48.608 13.655 4.026-.15 12.636-.55 17.96-.463"/><path d="M384.813 423.643c-38.226 17.202-47.536 56.395-60.352 92.744 11.118-4.299 18.029-12.642 25.167-21.105 7.347-8.714 11.147-20.516 20.585-26.743 8.4-5.545 30.938-21.808 31.813-35.874v-.006c.122-1.906-.157-3.777-.927-5.567a12.242 12.242 0 0 0-.829-1.6"/><path d="M387.669 423.464c-1.704-1.142-3.077-2.909-3.783-5.568 0 0 .243-10.486-.939-22.404-.909-9.166-2.659-19.177-6.008-25.909-.921-1.86-2.172-4.073-3.656-6.529-10.875-18.006-34.298-49.078-34.298-49.078l17.305-11.437s24.565 38.023 36.228 60.375c2.253 4.316 4.026 8.047 5.046 10.811 2.462 6.663 4.948 14.837 6.646 22.694 2.653 12.248 3.407 23.725-.782 27.508 0 0-.875.313-2.265.637-3.262.789-9.357 1.68-13.494-1.1z"/></g></g></svg>