<?xml version="1.0" encoding="iso-8859-1"?>
<!-- Generator: Adobe Illustrator 12.0.1, SVG Export Plug-In . SVG Version: 6.00 Build 51448)  -->
<!DOCTYPE svg PUBLIC "-//W3C//DTD SVG 1.1//EN" "http://www.w3.org/Graphics/SVG/1.1/DTD/svg11.dtd" [
	<!ENTITY ns_svg "http://www.w3.org/2000/svg">
	<!ENTITY ns_xlink "http://www.w3.org/1999/xlink">
]>
<svg  version="1.1" id="Layer_1" xmlns="&ns_svg;" xmlns:xlink="&ns_xlink;" width="850.394" height="850.394"
	 viewBox="0 0 850.394 850.394" style="overflow:visible;enable-background:new 0 0 850.394 850.394;" xml:space="preserve">
<g id="XMLID_3_">
	<g>
		<path style="fill:#787878;" d="M743.05,633.25c-29.64,9.32-138.88,5.09-138.88,5.09s-0.58,0-1.7-0.01l0.011-2.61
			c0,0,0-268.729,0-351.36c0-7.82,0-13.97,0-18.07c0-57.58-18.07-105.32-18.07-105.32v-0.23l45.17-0.02
			c0,0,71.979,10.16,101.62,82.99c21.35,52.46,37.26,118.56,37.26,181.22c0,62.669,0,162.6,0,162.6S772.69,623.94,743.05,633.25z
			 M734.58,550.26c0-25.25-20.47-45.72-45.73-45.72c-25.25,0-45.729,20.47-45.729,45.72c0,25.26,20.479,45.73,45.729,45.73
			C714.11,595.99,734.58,575.52,734.58,550.26z M719.91,443.56v-27.1h-64.36v27.1H719.91z"/>
		<path style="fill:#C8C8C8;" d="M602.47,638.33c-13.239-0.08-101.95-0.61-203.86-1.2c-5.27-5.84-12.9-9.52-21.39-9.52
			c-8.39,0-15.94,3.59-21.2,9.31c-80.45-0.47-159-0.93-206.32-1.189v-0.011c0,0,0-268.729,0-351.36h452.78
			c0,82.63,0,351.36,0,351.36L602.47,638.33z"/>
		<path style="fill:#FFFFFF;" d="M399.24,161.78v96.43h56.46v-96.43H399.24z M223.63,160.93l360.78-0.19v0.23
			c0,0,18.07,47.74,18.07,105.32c0,4.1,0,10.25,0,18.07H149.7c0-7.82,0-13.97,0-18.07c0-57.58,18.07-105.32,18.07-105.32v-0.01
			l31.05-0.02v96.42h56.45v-96.43H223.63z M555.62,257.26V165.8h-56.46v91.46H555.62z M355.2,256.41v-91.46h-56.45v91.46H355.2z"/>
		<rect x="499.16" y="165.8" style="fill:#C8C8C8;" width="56.46" height="91.46"/>
		<rect x="399.24" y="161.78" style="fill:#C8C8C8;" width="56.46" height="96.43"/>
		<rect x="298.75" y="164.95" style="fill:#C8C8C8;" width="56.45" height="91.46"/>
		<polygon style="fill:#C8C8C8;" points="255.27,160.93 255.27,257.36 198.82,257.36 198.82,160.94 223.63,160.93 		"/>
		<rect x="105.66" y="642.29" style="fill:#C8C8C8;" width="32.75" height="22.58"/>
		<path style="fill:#C8C8C8;" d="M398.61,637.13c4.6,5.101,7.4,11.86,7.4,19.271c0,15.909-12.89,28.8-28.79,28.8
			c-15.9,0-28.8-12.891-28.8-28.8c0-7.511,2.88-14.36,7.6-19.48c5.26-5.72,12.81-9.31,21.2-9.31
			C385.71,627.61,393.34,631.29,398.61,637.13z"/>
		<rect x="619.41" y="642.29" style="fill:#C8C8C8;" width="32.75" height="22.58"/>
		<path style="fill:#C8C8C8;" d="M688.85,504.54c25.261,0,45.73,20.47,45.73,45.72c0,25.26-20.47,45.73-45.73,45.73
			c-25.25,0-45.729-20.471-45.729-45.73C643.12,525.01,663.6,504.54,688.85,504.54z"/>
		<rect x="655.55" y="416.46" style="fill:#C8C8C8;" width="64.36" height="27.1"/>
		<path style="fill:#787878;" d="M167.77,160.96v0.01c0,0-18.07,47.74-18.07,105.32c0,4.1,0,10.25,0,18.07
			c0,82.63,0,351.36,0,351.36v0.011c-23.94-0.131-39.88-0.211-44.04-0.211c-24.84,0-25.96-55.329-25.96-55.329s0-264.22,0-291.311
			c0-27.1,6.61-67.91,6.61-67.91c12.26-57.75,60-60,60-60L167.77,160.96z"/>
	</g>
	<g>
		<path style="fill:none;stroke:#000000;stroke-width:20.3241;" d="M398.61,637.13c101.91,0.59,190.621,1.12,203.86,1.2
			c1.12,0.01,1.7,0.01,1.7,0.01s109.24,4.23,138.88-5.09c29.641-9.31,25.41-45.72,25.41-45.72s0-99.931,0-162.6
			c0-62.66-15.91-128.76-37.26-181.22c-29.641-72.83-101.62-82.99-101.62-82.99l-45.17,0.02l-360.78,0.19l-24.81,0.01l-31.05,0.02
			l-21.46,0.01c0,0-47.74,2.25-60,60c0,0-6.61,40.81-6.61,67.91c0,27.09,0,291.311,0,291.311s1.12,55.329,25.96,55.329
			c4.16,0,20.1,0.08,44.04,0.211c47.32,0.26,125.87,0.72,206.32,1.189c0.01,0,0.03,0,0.04,0"/>
		<path style="fill:none;stroke:#000000;stroke-width:20.3241;" d="M167.77,160.97c0,0-18.07,47.74-18.07,105.32
			c0,4.1,0,10.25,0,18.07c0,82.63,0,351.36,0,351.36"/>
		<path style="fill:none;stroke:#000000;stroke-width:20.3241;" d="M584.41,160.97c0,0,18.07,47.74,18.07,105.32
			c0,4.1,0,10.25,0,18.07c0,82.63,0,351.36,0,351.36"/>
		<path style="fill:none;stroke:#000000;stroke-width:20.3241;" d="M734.58,550.26c0,25.26-20.47,45.73-45.73,45.73
			c-25.25,0-45.729-20.471-45.729-45.73c0-25.25,20.479-45.72,45.729-45.72C714.11,504.54,734.58,525.01,734.58,550.26z"/>
		<rect x="655.55" y="416.46" style="fill:none;stroke:#000000;stroke-width:20.3241;" width="64.36" height="27.1"/>
		
			<line style="fill:none;stroke:#000000;stroke-width:20.3241;stroke-linecap:round;stroke-linejoin:round;" x1="688.85" y1="504.54" x2="688.85" y2="563.25"/>
		
			<rect x="105.66" y="642.29" style="fill:none;stroke:#000000;stroke-width:20.3241;stroke-linecap:round;stroke-linejoin:round;" width="32.75" height="22.58"/>
		
			<rect x="619.41" y="642.29" style="fill:none;stroke:#000000;stroke-width:20.3241;stroke-linecap:round;stroke-linejoin:round;" width="32.75" height="22.58"/>
		<path style="fill:none;stroke:#000000;stroke-width:20.3241;stroke-linecap:round;stroke-linejoin:round;" d="M398.61,637.13
			c4.6,5.101,7.4,11.86,7.4,19.271c0,15.909-12.89,28.8-28.79,28.8c-15.9,0-28.8-12.891-28.8-28.8c0-7.511,2.88-14.36,7.6-19.48
			c5.26-5.72,12.81-9.31,21.2-9.31C385.71,627.61,393.34,631.29,398.61,637.13z"/>
		<line style="fill:none;stroke:#000000;stroke-width:20.3241;" x1="377.22" y1="557.6" x2="377.22" y2="627.61"/>
		<polygon style="fill:none;stroke:#000000;stroke-width:20.3241;" points="223.63,160.93 255.27,160.93 255.27,257.36 
			198.82,257.36 198.82,160.94 198.82,160.93 		"/>
		<rect x="298.75" y="164.95" style="fill:none;stroke:#000000;stroke-width:20.3241;" width="56.45" height="91.46"/>
		<rect x="399.24" y="161.78" style="fill:none;stroke:#000000;stroke-width:20.3241;" width="56.46" height="96.43"/>
		<rect x="499.16" y="165.8" style="fill:none;stroke:#000000;stroke-width:20.3241;" width="56.46" height="91.46"/>
		<line style="fill:none;stroke:#000000;stroke-width:20.3241;" x1="149.7" y1="284.36" x2="602.48" y2="284.36"/>
	</g>
</g>
<rect style="fill:none;" width="850.394" height="850.394"/>
</svg>
