<?xml version="1.0" encoding="iso-8859-1"?>
<!-- Generator: Adobe Illustrator 12.0.1, SVG Export Plug-In . SVG Version: 6.00 Build 51448)  -->
<!DOCTYPE svg PUBLIC "-//W3C//DTD SVG 1.1//EN" "http://www.w3.org/Graphics/SVG/1.1/DTD/svg11.dtd" [
	<!ENTITY ns_svg "http://www.w3.org/2000/svg">
	<!ENTITY ns_xlink "http://www.w3.org/1999/xlink">
]>
<svg  version="1.1" id="Layer_1" xmlns="&ns_svg;" xmlns:xlink="&ns_xlink;" width="850.394" height="850.394"
	 viewBox="0 0 850.394 850.394" style="overflow:visible;enable-background:new 0 0 850.394 850.394;" xml:space="preserve">
<g id="XMLID_11_">
	<g>
		<path style="fill:#C8C8C8;" d="M508.78,135.94c7.609,0,13.779,5.82,13.779,13c0,7.19-6.17,13.01-13.779,13.01
			c-7.601,0-13.771-5.82-13.771-13.01C495.01,141.76,501.18,135.94,508.78,135.94z"/>
		<polygon style="fill:#A8D7F4;" points="452.67,360 452.67,361.5 427.47,361.44 399.91,361.44 398.02,304.52 452.67,304.52 
			452.67,306 		"/>
		<path style="fill:#FFFFFF;" d="M399.91,361.44h27.56l25.2,0.06l80.19,0.21v1.85c0,0,41.02,76.94,20.489,131.69
			c-20.449,54.54-91.71,73.51-123.84,75.85l-2.21,0.051c-31.85-2.17-102.52-21.32-123.08-76.17
			c-18.7-49.851,13.63-118.101,19.57-129.92v-3.62H399.91z"/>
		<path style="fill:#FFFFFF;" d="M340.8,575.51c-24.42-13.779-46.43-33.79-56.99-61.97c-23.72-63.23,23.66-152.1,23.66-152.1h16.32
			v3.62c-5.94,11.82-38.27,80.07-19.57,129.92c20.56,54.85,91.23,74,123.08,76.17l2.21-0.051c32.13-2.34,103.391-21.31,123.84-75.85
			c20.53-54.75-20.489-131.69-20.489-131.69v-1.85l15.02,0.04c0,0,47.38,88.87,23.66,152.11c-11.62,31-37.46,52.04-65.13,65.75
			c-28.55,14.14-59.05,20.47-77.891,21.84l-2.549,0.069C405.54,600.13,371.29,592.69,340.8,575.51z"/>
		<path style="fill:#A8D7F4;" d="M506.41,579.61l4.729,1.59c-2.699,7.399-33.42,102.689-20.5,135.89
			c19.761,50.811-33.87,64.92-64.919,64.92l0.45-0.04c-31.05,0-84.68-14.109-64.92-64.91c10.88-27.979-18.46-134.43-20.45-141.55
			c30.49,17.181,64.74,24.62,85.17,26.01l2.549-0.069C447.36,600.08,477.86,593.75,506.41,579.61z"/>
		<path style="fill:#A8D7F4;" d="M619.24,88.73v2.19c0,10.35-8.391,18.73-18.73,18.73h-355.6c-10.34,0-18.72-8.38-18.72-18.73v-2.19
			c0-10.33,8.38-18.72,18.72-18.72h355.6C610.85,70.01,619.24,78.4,619.24,88.73z"/>
		<path style="fill:#A8D7F4;" d="M398.02,304.52H263.63c-10.34,0-18.72-8.38-18.72-18.72V109.65h355.6l2.221,176.15
			c0,10.34-8.391,18.72-18.73,18.72H452.67H398.02z M522.56,148.94c0-7.18-6.17-13-13.779-13c-7.601,0-13.771,5.82-13.771,13
			c0,7.19,6.17,13.01,13.771,13.01C516.39,161.95,522.56,156.13,522.56,148.94z"/>
	</g>
	<g>
		<path style="fill:none;stroke:#000000;stroke-width:21;" d="M244.91,109.65c-10.34,0-18.72-8.38-18.72-18.73v-2.19
			c0-10.33,8.38-18.72,18.72-18.72h355.6c10.34,0,18.73,8.39,18.73,18.72v2.19c0,10.35-8.391,18.73-18.73,18.73H244.91z"/>
		<path style="fill:none;stroke:#000000;stroke-width:21;" d="M600.51,109.65l2.221,176.15c0,10.34-8.391,18.72-18.73,18.72H452.67
			h-54.65H263.63c-10.34,0-18.72-8.38-18.72-18.72V109.65"/>
		<polyline style="fill:none;stroke:#000000;stroke-width:14;" points="400,364 399.91,361.44 398.02,304.52 398,304 		"/>
		<line style="fill:none;stroke:#000000;stroke-width:14;" x1="452.67" y1="306" x2="452.67" y2="360"/>
		<path style="fill:none;stroke:#000000;stroke-width:14;" d="M323.79,365.06c-5.94,11.82-38.27,80.07-19.57,129.92
			c20.56,54.85,91.23,74,123.08,76.17l2.21-0.051c32.13-2.34,103.391-21.31,123.84-75.85c20.53-54.75-20.489-131.69-20.489-131.69"
			/>
		<path style="fill:none;stroke:#000000;stroke-width:21;" d="M340.8,575.51c30.49,17.181,64.74,24.62,85.17,26.01l2.549-0.069
			c18.841-1.37,49.341-7.7,77.891-21.84c27.67-13.71,53.51-34.75,65.13-65.75c23.72-63.24-23.66-152.11-23.66-152.11l-15.02-0.04
			l-80.19-0.21l-25.2-0.06h-27.56h-76.12h-16.32c0,0-47.38,88.87-23.66,152.1C294.37,541.72,316.38,561.73,340.8,575.51z"/>
		<path style="fill:none;stroke:#000000;stroke-width:21;" d="M511.19,581.29c0.22-0.72,0.189-0.72-0.051-0.09
			c-2.699,7.399-33.42,102.689-20.5,135.89c19.761,50.811-33.87,64.92-64.919,64.92l0.45-0.04c-31.05,0-84.68-14.109-64.92-64.91
			c10.88-27.979-18.46-134.43-20.45-141.55c-0.06-0.25-0.1-0.38-0.1-0.38"/>
		<path style="fill:none;stroke:#000000;stroke-width:14;" d="M522.56,148.94c0,7.19-6.17,13.01-13.779,13.01
			c-7.601,0-13.771-5.82-13.771-13.01c0-7.18,6.17-13,13.771-13C516.39,135.94,522.56,141.76,522.56,148.94z"/>
		<line style="fill:none;stroke:#000000;stroke-width:14;" x1="522.56" y1="148.94" x2="579.26" y2="148.94"/>
	</g>
</g>
<rect style="fill:none;" width="850.394" height="850.394"/>
</svg>
