<?xml version="1.0" encoding="iso-8859-1"?>
<!-- Generator: Adobe Illustrator 12.0.1, SVG Export Plug-In . SVG Version: 6.00 Build 51448)  -->
<!DOCTYPE svg PUBLIC "-//W3C//DTD SVG 1.1//EN" "http://www.w3.org/Graphics/SVG/1.1/DTD/svg11.dtd" [
	<!ENTITY ns_svg "http://www.w3.org/2000/svg">
	<!ENTITY ns_xlink "http://www.w3.org/1999/xlink">
]>
<svg  version="1.1" id="Layer_1" xmlns="&ns_svg;" xmlns:xlink="&ns_xlink;" width="850.394" height="850.394"
	 viewBox="0 0 850.394 850.394" style="overflow:visible;enable-background:new 0 0 850.394 850.394;" xml:space="preserve">
<g id="XMLID_6_">
	<g>
		<polygon style="fill:#A3D9FF;" points="403.176,748.652 403.176,785.836 149.965,785.836 149.965,748.652 167.325,748.652 
			385.937,748.652 		"/>
		<polygon style="fill:#A3D9FF;" points="385.937,748.216 385.937,748.652 167.325,748.652 167.325,748.625 190.701,259.98 
			362.729,259.98 362.858,259.971 		"/>
		<polygon style="fill:#C8C8C8;" points="362.729,257.191 362.858,259.971 362.729,259.98 190.701,259.98 190.831,257.191 
			235.323,223.141 317.157,223.141 		"/>
		<polygon style="fill:#FFFFFF;" points="315.54,123.63 324.81,223.141 228.099,222.964 238.029,123.63 285.218,123.63 
			288.072,123.63 		"/>
	</g>
	<g>
		<polygon style="fill:none;stroke:#000000;stroke-width:18.3782;" points="385.937,748.652 403.176,748.652 403.176,785.836 
			149.965,785.836 149.965,748.652 167.325,748.652 		"/>
		<polyline style="fill:none;stroke:#000000;stroke-width:18.3782;" points="385.937,748.216 362.858,259.971 362.729,257.191 
			317.157,223.141 235.323,223.141 190.831,257.191 190.701,259.98 167.325,748.625 		"/>
		<line style="fill:none;stroke:#000000;stroke-width:18.3782;" x1="228.099" y1="222.964" x2="228.015" y2="223.838"/>
		<polygon style="fill:none;stroke:#000000;stroke-width:18.3782;" points="228.099,222.964 324.81,223.141 315.54,123.63 
			288.072,123.63 285.218,123.63 238.029,123.63 		"/>
		
			<line style="fill:none;stroke:#000000;stroke-width:0.4649;stroke-linecap:round;stroke-linejoin:round;" x1="228.07" y1="222.964" x2="228.099" y2="222.964"/>
		<line style="fill:none;stroke:#000000;stroke-width:18.3782;" x1="190.701" y1="259.98" x2="362.729" y2="259.98"/>
	</g>
</g>
<g id="XMLID_5_">
	<g>
		<polygon style="fill:#FFFFFF;" points="713.204,117.394 695.536,117.394 695.536,80.687 704.462,80.687 713.204,80.687 
			713.204,80.974 		"/>
		<polygon style="fill:#FFFFFF;" points="749.573,117.394 730.202,117.394 730.202,117.311 730.448,81.084 730.448,80.687 
			749.573,80.687 749.573,80.867 749.573,117.2 		"/>
		<polygon style="fill:#FFFFFF;" points="766.886,117.394 749.573,117.394 749.573,117.2 749.573,80.867 749.573,80.687 
			766.886,80.687 766.886,81.218 766.886,116.96 		"/>
		<polygon style="fill:#FFFFFF;" points="783.314,117.394 766.886,117.394 766.886,116.96 766.886,81.218 766.886,80.687 
			777.174,80.687 783.314,80.687 		"/>
		<polygon style="fill:#FFFFFF;" points="713.204,117.394 713.204,80.974 713.204,80.687 730.448,80.687 730.448,81.084 
			730.202,117.311 730.202,117.394 		"/>
		<path style="fill:#00E800;" d="M606.563,93.086H403.74c0,0-12.917-0.845-12.917-8.875c0-8.455,14.192-9.162,14.192-9.162
			l199.634,0.563c14.03,0,21.049,0,46.554-7.887c25.517-7.892,53.259-3.385,53.259-3.385h72.712c5.111,0,9.25,3.662,9.25,8.173
			c0,2.253-1.035,4.299-2.707,5.777c-1.672,1.482-3.987,2.396-6.543,2.396h-10.288h-17.313h-19.125h-17.244h-8.742
			c0,0-32.843-4.507-51.341,3.944C634.623,93.086,625.061,93.086,606.563,93.086z"/>
	</g>
	<g>
		<path style="fill:none;stroke:#000000;stroke-width:9.3582;" d="M704.462,80.687c0,0-32.843-4.507-51.341,3.944
			c-18.498,8.455-28.061,8.455-46.559,8.455H403.74c0,0-12.917-0.845-12.917-8.875c0-8.455,14.192-9.162,14.192-9.162l199.634,0.563
			c14.03,0,21.049,0,46.554-7.887c25.517-7.892,53.259-3.385,53.259-3.385h72.712c5.111,0,9.25,3.662,9.25,8.173
			c0,2.253-1.035,4.299-2.707,5.777c-1.672,1.482-3.987,2.396-6.543,2.396"/>
		<polygon style="fill:none;stroke:#000000;stroke-width:9.3582;" points="713.204,117.394 695.536,117.394 695.536,80.687 
			704.462,80.687 713.204,80.687 730.448,80.687 749.573,80.687 766.886,80.687 777.174,80.687 783.314,80.687 783.314,117.394 
			766.886,117.394 749.573,117.394 730.202,117.394 		"/>
		<line style="fill:none;stroke:#000000;stroke-width:9.3582;" x1="749.573" y1="117.2" x2="749.573" y2="80.867"/>
		<line style="fill:none;stroke:#000000;stroke-width:9.3582;" x1="730.202" y1="117.311" x2="730.448" y2="81.084"/>
		<polyline style="fill:none;stroke:#000000;stroke-width:9.3582;" points="713.204,117.421 713.204,117.394 713.204,80.974 		"/>
		<line style="fill:none;stroke:#000000;stroke-width:9.3582;" x1="766.886" y1="116.96" x2="766.886" y2="81.218"/>
	</g>
</g>
<rect style="fill:none;" width="850.394" height="850.394"/>
</svg>
