<?xml version="1.0" encoding="iso-8859-1"?>
<!-- Generator: Adobe Illustrator 12.0.1, SVG Export Plug-In . SVG Version: 6.00 Build 51448)  -->
<!DOCTYPE svg PUBLIC "-//W3C//DTD SVG 1.1//EN" "http://www.w3.org/Graphics/SVG/1.1/DTD/svg11.dtd" [
	<!ENTITY ns_svg "http://www.w3.org/2000/svg">
	<!ENTITY ns_xlink "http://www.w3.org/1999/xlink">
]>
<svg  version="1.1" id="Layer_1" xmlns="&ns_svg;" xmlns:xlink="&ns_xlink;" width="850.394" height="850.394"
	 viewBox="0 0 850.394 850.394" style="overflow:visible;enable-background:new 0 0 850.394 850.394;" xml:space="preserve">
<g id="XMLID_6_">
	<g>
		<path style="fill:#787878;" d="M533.01,103.23v377.63c0,18.979-15.39,34.37-34.37,34.37H373.36c-18.99,0-34.37-15.391-34.37-34.37
			V103.23c0-18.98,15.38-34.37,34.37-34.37h125.28C517.62,68.86,533.01,84.25,533.01,103.23z M491.2,152.33
			c0-30.48-24.71-55.19-55.2-55.19s-55.2,24.71-55.2,55.19c0,30.49,24.71,55.2,55.2,55.2S491.2,182.82,491.2,152.33z M491.2,290.63
			c0-30.49-24.71-55.2-55.2-55.2s-55.2,24.71-55.2,55.2c0,30.48,24.71,55.19,55.2,55.19S491.2,321.11,491.2,290.63z M491.2,431.13
			c0-30.49-24.71-55.2-55.2-55.2s-55.2,24.71-55.2,55.2c0,30.48,24.71,55.2,55.2,55.2S491.2,461.61,491.2,431.13z"/>
		<path style="fill:#FF001C;" d="M436,97.14c30.49,0,55.2,24.71,55.2,55.19c0,30.49-24.71,55.2-55.2,55.2s-55.2-24.71-55.2-55.2
			C380.8,121.85,405.51,97.14,436,97.14z"/>
		<path style="fill:#FFA500;" d="M436,235.43c30.49,0,55.2,24.71,55.2,55.2c0,30.48-24.71,55.19-55.2,55.19s-55.2-24.71-55.2-55.19
			C380.8,260.14,405.51,235.43,436,235.43z"/>
		<path style="fill:#00E800;" d="M436,375.93c30.49,0,55.2,24.71,55.2,55.2c0,30.48-24.71,55.2-55.2,55.2s-55.2-24.72-55.2-55.2
			C380.8,400.64,405.51,375.93,436,375.93z"/>
		<rect x="413.42" y="515.6" style="fill:#787878;" width="45.16" height="271.04"/>
	</g>
	<g>
		<path style="fill:none;stroke:#231F20;stroke-width:21;" d="M533.01,480.86c0,18.979-15.39,34.37-34.37,34.37H373.36
			c-18.99,0-34.37-15.391-34.37-34.37V103.23c0-18.98,15.38-34.37,34.37-34.37h125.28c18.98,0,34.37,15.39,34.37,34.37V480.86z"/>
		<path style="fill:none;stroke:#231F20;stroke-width:21;" d="M491.2,152.33c0,30.49-24.71,55.2-55.2,55.2s-55.2-24.71-55.2-55.2
			c0-30.48,24.71-55.19,55.2-55.19S491.2,121.85,491.2,152.33z"/>
		<path style="fill:none;stroke:#231F20;stroke-width:21;" d="M491.2,290.63c0,30.48-24.71,55.19-55.2,55.19s-55.2-24.71-55.2-55.19
			c0-30.49,24.71-55.2,55.2-55.2S491.2,260.14,491.2,290.63z"/>
		<path style="fill:none;stroke:#231F20;stroke-width:21;" d="M491.2,431.13c0,30.48-24.71,55.2-55.2,55.2s-55.2-24.72-55.2-55.2
			c0-30.49,24.71-55.2,55.2-55.2S491.2,400.64,491.2,431.13z"/>
		<polyline style="fill:none;stroke:#231F20;stroke-width:21;" points="413.42,786.64 413.42,515.6 458.58,515.6 458.58,786.64 		
			"/>
	</g>
</g>
<rect style="fill:none;" width="850.394" height="850.394"/>
</svg>
