<?xml version="1.0" encoding="iso-8859-1"?>
<!-- Generator: Adobe Illustrator 12.0.1, SVG Export Plug-In . SVG Version: 6.00 Build 51448)  -->
<!DOCTYPE svg PUBLIC "-//W3C//DTD SVG 1.1//EN" "http://www.w3.org/Graphics/SVG/1.1/DTD/svg11.dtd" [
	<!ENTITY ns_svg "http://www.w3.org/2000/svg">
	<!ENTITY ns_xlink "http://www.w3.org/1999/xlink">
]>
<svg  version="1.1" id="Layer_1" xmlns="&ns_svg;" xmlns:xlink="&ns_xlink;" width="850.394" height="850.394"
	 viewBox="0 0 850.394 850.394" style="overflow:visible;enable-background:new 0 0 850.394 850.394;" xml:space="preserve">
<g id="XMLID_9_">
	<g>
		<path style="fill:#FFEEC8;" d="M612.529,443.806c4.525,16.552,5.278,35.518,3.52,41.825c-1.118,3.974-6.285,9.632-11.153,9.028
			c-5.391-0.574-6.605-13.278-9.237-17.334c-4.086,0.843-1.983,6.807-5.003,6.807c-2.616-2.609-3.488-9.804-3.488-17.318
			c0-8.864,1.215-18.191,2.243-21.017L612.529,443.806z"/>
		<path style="fill:#A9D7F3;" d="M541.637,405.665c1.565,4.205,5.621,16.044,8.275,32.647l-1.514,0.238l-126.868-0.76
			c2.319-19.996,6.099-32.073,6.099-32.073l-4.213-53.805l-42.645,93.371l-22.09-5.562c0,0,13.912-47.901,19.578-70.751
			c8.201-33.146,35.309-87.816,35.309-87.816c6.911-6.896,18.542-15.023,28.45-21.419c9.654-6.233,17.669-10.833,18.064-11.064
			c6.046,6.345,13.747,10.147,22.135,10.147c9.133,0,17.453-4.503,23.7-11.884c0.515,0.298,9.513,5.427,20.145,12.182
			c10.952,6.956,23.626,15.641,30.545,22.545c0,0,27.107,54.663,35.309,87.809c5.628,22.851,19.563,70.767,19.563,70.767
			c0.373,1.17,0.716,2.363,1.051,3.57l-23.119,1.991l-42.667-93.371L541.637,405.665z"/>
		<path style="fill:#231F20;" d="M540.235,669.711l0.037-0.015c0.022,7.478,14.501,14.083,25.803,20.531
			c7.046,4.026,11.071,10.989,8.983,18.438c-1.752,6.181-15.365,9.64-22.254,5.688c-11.943-6.821-4.167-4.488-13.062-7.933
			c-20.487-8.007-24.409-4.168-25.833-28.42L540.235,669.711z"/>
		<path style="fill:#7A7878;" d="M552.395,469.162c0,34.189-11.049,185.467-12.159,200.549l-26.325,8.29l-2.445-16.372h-0.022
			L491.335,484.55l-10.206-0.037L460.59,662.33l0.037,0.008l-1.745,13.837l-25.832-8.402c0,0.224-0.016,0.439-0.045,0.663
			c-1.454-18.108-13.249-165.971-13.249-199.759c0-11.607,0.746-22.022,1.774-30.887l126.868,0.76l1.514-0.238
			C551.358,447.34,552.395,457.777,552.395,469.162z"/>
		<path style="fill:#FFEEC8;" d="M505.918,246.933c-6.247,7.381-14.567,11.884-23.7,11.884c-8.388,0-16.089-3.802-22.135-10.147
			c-7.963-8.357-13.055-21.136-13.055-35.458c0-25.184,15.753-45.612,35.189-45.612c19.451,0,35.204,20.428,35.204,45.612
			C517.422,226.572,512.985,238.598,505.918,246.933z"/>
		<path style="fill:#231F20;" d="M433.005,668.436c0.029-0.224,0.045-0.439,0.045-0.663l25.832,8.402
			c-1.438,24.267-5.36,20.428-25.862,28.427c-8.887,3.43-1.11,1.118-13.054,7.94c-6.896,3.943-20.495,0.47-22.254-5.703
			c-2.11-7.434,1.931-14.404,8.984-18.415C417.669,682.153,432.133,675.66,433.005,668.436z"/>
		<path style="fill:#FFEEC8;" d="M380.772,445.282c1.021,2.833,2.244,12.152,2.244,21.017c0,7.522-0.88,14.709-3.497,17.318
			c-2.997,0-0.924-5.964-5.01-6.791c-2.602,4.04-3.84,16.774-9.23,17.341c-4.861,0.581-10.042-5.063-11.161-9.043
			c-1.901-6.777-0.872-28.085,4.563-45.403L380.772,445.282z"/>
	</g>
	<g>
		<path style="fill:none;stroke:#231F20;stroke-width:10.4375;" d="M460.083,248.669c-7.963-8.357-13.055-21.136-13.055-35.458
			c0-25.184,15.753-45.612,35.189-45.612c19.451,0,35.204,20.428,35.204,45.612c0,13.36-4.437,25.386-11.504,33.721
			c-6.247,7.381-14.567,11.884-23.7,11.884C473.83,258.816,466.129,255.014,460.083,248.669z"/>
		<path style="fill:none;stroke:#231F20;stroke-width:10.4375;" d="M358.682,439.721c0,0,13.912-47.901,19.578-70.751
			c8.201-33.146,35.309-87.816,35.309-87.816c6.911-6.896,18.542-15.023,28.45-21.419c9.654-6.233,17.669-10.833,18.064-11.064
			c0.007-0.007,0.015-0.007,0.015-0.007"/>
		<path style="fill:none;stroke:#231F20;stroke-width:10.4375;" d="M433.154,670.255c0,0-0.053-0.626-0.149-1.819
			c-1.454-18.108-13.249-165.971-13.249-199.759c0-11.607,0.746-22.022,1.774-30.887c2.319-19.996,6.099-32.073,6.099-32.073
			l-4.213-53.805l-42.645,93.371c1.021,2.833,2.244,12.152,2.244,21.017c0,7.522-0.88,14.709-3.497,17.318
			c-2.997,0-0.924-5.964-5.01-6.791c-2.602,4.04-3.84,16.774-9.23,17.341c-4.861,0.581-10.042-5.063-11.161-9.043
			c-1.901-6.777-0.872-28.085,4.563-45.403"/>
		<path style="fill:none;stroke:#231F20;stroke-width:10.4375;" d="M611.479,440.235c0,0-13.935-47.916-19.563-70.767
			c-8.201-33.146-35.309-87.809-35.309-87.809c-6.919-6.904-19.593-15.589-30.545-22.545c-10.632-6.755-19.63-11.884-20.145-12.182
			c-0.015,0-0.022-0.007-0.022-0.007"/>
		<path style="fill:none;stroke:#231F20;stroke-width:10.4375;" d="M541.45,407.61l0.187-1.946l5.106-53.239l42.667,93.371
			c-1.028,2.825-2.243,12.152-2.243,21.017c0,7.515,0.872,14.709,3.488,17.318c3.02,0,0.917-5.964,5.003-6.807
			c2.632,4.056,3.847,16.76,9.237,17.334c4.868,0.604,10.035-5.055,11.153-9.028c1.759-6.308,1.006-25.273-3.52-41.825
			c-0.335-1.207-0.678-2.4-1.051-3.57"/>
		<path style="fill:none;stroke:#231F20;stroke-width:10.4375;" d="M540.146,670.926c0,0,0.03-0.417,0.09-1.215
			c1.11-15.082,12.159-166.359,12.159-200.549c0-11.385-1.036-21.822-2.482-30.851c-2.654-16.603-6.71-28.442-8.275-32.647
			c-0.41-1.104-0.648-1.678-0.648-1.678"/>
		<path style="fill:none;stroke:#231F20;stroke-width:10.4375;" d="M460.694,661.83l-0.067,0.508l-1.745,13.837
			c-1.438,24.267-5.36,20.428-25.862,28.427c-8.887,3.43-1.11,1.118-13.054,7.94c-6.896,3.943-20.495,0.47-22.254-5.703
			c-2.11-7.434,1.931-14.404,8.984-18.415c10.974-6.271,25.438-12.764,26.31-19.988c0.029-0.224,0.045-0.439,0.045-0.663"/>
		<path style="fill:none;stroke:#231F20;stroke-width:10.4375;" d="M511.465,661.629l2.445,16.372
			c1.424,24.252,5.346,20.413,25.833,28.42c8.895,3.444,1.118,1.111,13.062,7.933c6.889,3.951,20.502,0.492,22.254-5.688
			c2.088-7.448-1.938-14.411-8.983-18.438c-11.302-6.448-25.78-13.054-25.803-20.531"/>
		<polyline style="fill:none;stroke:#231F20;stroke-width:10.4375;" points="511.569,662.777 511.442,661.629 491.335,484.55 
			481.129,484.513 460.59,662.33 		"/>
		<polyline style="fill:none;stroke:#231F20;stroke-width:10.4375;" points="420.905,437.782 421.531,437.79 548.398,438.55 		"/>
		<line style="fill:none;stroke:#231F20;stroke-width:10.4375;" x1="358.682" y1="439.721" x2="380.772" y2="445.282"/>
		<polyline style="fill:none;stroke:#231F20;stroke-width:10.4375;" points="589.41,445.797 612.529,443.806 613.253,443.746 		"/>
		<line style="fill:none;stroke:#231F20;stroke-width:10.4375;" x1="433.05" y1="667.772" x2="458.882" y2="676.175"/>
		<polyline style="fill:none;stroke:#231F20;stroke-width:10.4375;" points="513.91,678.001 540.235,669.711 540.272,669.696 		"/>
	</g>
</g>
<rect style="fill:none;" width="850.394" height="850.394"/>
<g id="XMLID_1_">
	<g>
		<path style="fill:#ABD153;" d="M755,741.486H161.51V105.161H755V741.486z M651.675,423.324c0-106.161-86.06-192.23-192.23-192.23
			c-106.161,0-192.23,86.069-192.23,192.23c0,106.171,86.069,192.239,192.23,192.239
			C565.615,615.563,651.675,529.495,651.675,423.324z"/>
	</g>
	<g>
		<rect x="161.51" y="105.161" style="fill:none;stroke:#231F20;stroke-width:14;" width="593.49" height="636.325"/>
		<path style="fill:none;stroke:#231F20;stroke-width:14;stroke-linecap:round;stroke-linejoin:round;" d="M651.675,423.324
			c0,106.171-86.06,192.239-192.23,192.239c-106.161,0-192.23-86.068-192.23-192.239c0-106.161,86.069-192.23,192.23-192.23
			C565.615,231.094,651.675,317.163,651.675,423.324z"/>
	</g>
</g>
<g>
	<line style="fill:#FFFFFF;stroke:#231F20;stroke-width:21;" x1="65.529" y1="401.019" x2="317.927" y2="400.217"/>
	<polyline style="fill:none;stroke:#231F20;stroke-width:21;" points="235.17,326.655 319.531,400.489 235.509,474.826 	"/>
</g>
<rect style="fill:none;" width="850.394" height="850.394"/>
</svg>
