<?xml version="1.0" encoding="iso-8859-1"?>
<!-- Generator: Adobe Illustrator 12.0.1, SVG Export Plug-In . SVG Version: 6.00 Build 51448)  -->
<!DOCTYPE svg PUBLIC "-//W3C//DTD SVG 1.1//EN" "http://www.w3.org/Graphics/SVG/1.1/DTD/svg11.dtd" [
	<!ENTITY ns_svg "http://www.w3.org/2000/svg">
	<!ENTITY ns_xlink "http://www.w3.org/1999/xlink">
]>
<svg  version="1.1" id="Layer_1" xmlns="&ns_svg;" xmlns:xlink="&ns_xlink;" width="850.394" height="850.394"
	 viewBox="0 0 850.394 850.394" style="overflow:visible;enable-background:new 0 0 850.394 850.394;" xml:space="preserve">
<g id="XMLID_17_">
	<g>
		<path style="fill:#797878;" d="M666.09,499.94c25.05-1.221,56.21-2.83,72.37-4.011c5.1-0.37,9.55-0.819,13.42-1.3
			c18.67-2.32,23.97-5.5,23.97-5.5l0.311,13.91c0,0,1.84,3.4-23.8,8.04c-25.65,4.63-123.95,7.1-123.95,7.1V501.73
			C628.41,501.73,645.11,500.97,666.09,499.94z"/>
		<path style="fill:#797878;" d="M775.85,474.92c0,14.21,0,14.21,0,14.21s-5.3,3.18-23.97,5.5l-0.14-1.49V454.5l-85.65,1.86v43.58
			c-20.979,1.029-37.68,1.79-37.68,1.79l-0.04-75.98l0.03-0.93c0.21,0.02,0.42,0.02,0.63,0.02c14.22,0,119,0.31,133.84,0.31
			c5.92,0,9.49,0,11.47,0c0.5,0,0.891,0,1.2,0C775.54,425.15,775.85,460.7,775.85,474.92z M768.9,463.78
			c0-4.181-2.99-7.561-6.65-7.561c-3.68,0-6.65,3.38-6.65,7.561c0,4.18,2.971,7.569,6.65,7.569
			C765.91,471.35,768.9,467.96,768.9,463.78z M660.09,469.81c0-4.18-2.979-7.579-6.63-7.579c-3.7,0-6.66,3.399-6.66,7.579
			c0,4.181,2.96,7.57,6.66,7.57C657.11,477.38,660.09,473.99,660.09,469.81z"/>
		<path style="fill:#FFFFFF;" d="M774.34,423.64v1.51c-1.979,0-5.55,0-11.47,0c-14.84,0-119.62-0.31-133.84-0.31
			c-0.21,0-0.42,0-0.63-0.02c-7.631-0.26-10.681-5.41-11.891-9.87c-0.95-3.46-0.779-6.5-0.779-6.5s0.64-42.65,1.55-57.18
			c0.13-2.09,0.79-3.68,2.01-4.89c4.96-4.91,19.22-3.45,45.29-3.45c29.88,0,97.22,7.39,107.71,8.57c0.15,2.53,2.05,35.46,2.05,54.17
			c0,15.45,0,17.68,0,17.94V423.64z"/>
		<path style="fill:#ED1E29;" d="M772.29,351.5c-10.49-1.18-77.83-8.57-107.71-8.57c-26.07,0-40.33-1.46-45.29,3.45l-2.01-1.5
			l-43.88,9.49v56.86l43.109,3.72c1.21,4.46,4.26,9.61,11.891,9.87l-0.03,0.93l0.04,75.98v16.449l-2.09,0.24l-73.03-19
			c1.77-5.51,2.79-12,2.79-18.939c0-19.971-8.43-36.171-18.85-36.171c-10.41,0-18.851,16.2-18.851,36.171
			c0,3.539,0.26,6.949,0.76,10.18l-83.71-21.45c0.87-3.45,1.36-7.32,1.36-11.41c0-14.47-6.11-26.189-13.66-26.189
			c-7.54,0-13.65,11.72-13.65,26.189c0,1.65,0.08,3.26,0.24,4.83h-0.02l-19.59-5.03c0,0,1.38-60.729,1.38-79.27
			c0-66,7.88-93.2,7.88-93.2l210.97-86.59c0,0,19-9.85,36.15-9.85c0,0,47.76-0.46,87.63,12.52c39.88,12.98,35.78,14.39,36.16,22.72
			c0.12,2.53,0.25,6.32,0.399,11.02l-0.399,0.01c0,0-28.74-13.91-58.891-19.01c-30.13-5.09-56.1-8.35-62.58-8.35
			c-6.479,0-14.84-1.85-14.84,14.38s-1.859,43.11-1.859,43.11s-3.141,14.69,19.479,14.69c35.93,0,120.55,14.12,120.55,14.12h0.16
			c0.75,29.99,1.38,57.75,1.38,57.75S773.2,351.6,772.29,351.5z M582.79,310.89v-78.86l-155.58,61.81L425.07,345L582.79,310.89z"/>
		<path style="fill:#FFFFFF;" d="M772.3,293.9h-0.16c0,0-84.62-14.12-120.55-14.12c-22.62,0-19.479-14.69-19.479-14.69
			s1.859-26.88,1.859-43.11s8.36-14.38,14.84-14.38c6.48,0,32.45,3.26,62.58,8.35c30.15,5.1,58.891,19.01,58.891,19.01l0.399-0.01
			C771.15,249.3,771.75,272.19,772.3,293.9z"/>
		<path style="fill:#FBED24;" d="M751.74,493.14l0.14,1.49c-3.87,0.48-8.32,0.93-13.42,1.3c-16.16,1.181-47.32,2.79-72.37,4.011
			v-43.58l85.65-1.86V493.14z"/>
		<path style="fill:#FBED24;" d="M165.73,663.69c-2.93-2.99-4.68-6.99-4.68-12.12c0-10.78,1.36-26.141,1.36-37
			c0-2.63,0.61-5.32,1.55-7.9l0.24,0.09c0,0,289.68-43.27,305.45-43.27c15.75,0,23.619,13.5,30.38,31.51
			c3.84,10.24,11.859,28.73,20.229,43.78c6.37,11.42,12.931,20.859,18.03,23.18c3.229,1.47,11.72,1.73,22.36,1.35
			c16.899-0.619,39.22-2.89,54.479-4.63c10.34-1.17,17.44-2.1,17.44-2.1h0.01c1,6.2,1.4,12.439,0.81,18.32
			c-2.81,28.14-6.47,31.8-6.47,31.8l-6.47,0.68l-60.22,6.351c0,0-30.37,6.189-42.19-5.631c-11.82-11.81-27.58-21.949-27.58-21.949
			s-290.2-15.2-302.49-15.2C178.99,670.95,170.68,668.74,165.73,663.69z M465.57,679.62l-6.391-95.91l-38.37,6.39l6.4,89.521H465.57
			z"/>
		<path style="fill:#FBED24;" d="M632.58,656.58h-0.01c0,0-7.101,0.93-17.44,2.1c-2.38-11.069,4.38-22.92,9.82-28.229l0.42-0.16
			C628.26,638.03,631.1,647.26,632.58,656.58z"/>
		<path style="fill:#0071BC;" d="M625.37,630.29l-0.42,0.16c-5.44,5.31-12.2,17.16-9.82,28.229c-15.26,1.74-37.58,4.011-54.479,4.63
			c-3.96-9.05-8.65-15.5-14.471-20.06c-8.069-6.32-15.939-6.54-25.92-4.47c-8.37-15.05-16.39-33.54-20.229-43.78
			c-6.761-18.01-14.63-31.51-30.38-31.51c-15.771,0-305.45,43.27-305.45,43.27l-0.24-0.09c3.08-8.5,9.7-15.86,9.7-15.86l316.8-49.27
			c0,0,53.94-6.8,75.96,6.75c11.85,7.28,19.87,14.51,26.59,22.979c-0.34-0.229-6.189-3.84-25.46-3.84
			c-17.46,0-50.26,5.63-50.26,5.63s10.31,27.94,18,35.641c7.69,7.68,20.64,9,41.64,9c21.011,0,37.09-11.67,37.09-11.67l0.171-0.09
			c0.75,1.38,1.529,2.8,2.319,4.25C616.51,610.19,620.99,618.52,625.37,630.29z"/>
		<path style="fill:#797878;" d="M620.45,707.38l-2.97,22.03l-0.421,3.12l-76.85,11.239c0,0-32.02-12.319-36.8-17.1
			c-0.69-0.689-1.45-2.02-2.25-3.8c-4.72-10.54-10.7-36.72-10.7-36.72s15.76,10.14,27.58,21.949
			c11.82,11.82,42.19,5.631,42.19,5.631L620.45,707.38z"/>
		<path style="fill:#FFFFFF;" d="M617.28,344.88l2.01,1.5c-1.22,1.21-1.88,2.8-2.01,4.89c-0.91,14.53-1.55,57.18-1.55,57.18
			s-0.171,3.04,0.779,6.5l-43.109-3.72v-56.86L617.28,344.88z"/>
		<path style="fill:#FFFFFF;" d="M614.19,605.94l-0.171,0.09c0,0-16.079,11.67-37.09,11.67c-21,0-33.949-1.32-41.64-9
			c-7.69-7.7-18-35.641-18-35.641s32.8-5.63,50.26-5.63c19.271,0,25.12,3.61,25.46,3.84c0.01,0.011,0.021,0.011,0.021,0.011
			C600.52,580.7,606.4,591.66,614.19,605.94z"/>
		<polygon style="fill:#FFFFFF;" points="582.79,232.03 582.79,310.89 425.07,345 427.21,293.84 		"/>
		<path style="fill:#FBED24;" d="M546.18,643.25c5.82,4.56,10.511,11.01,14.471,20.06c-10.641,0.381-19.131,0.12-22.36-1.35
			c-5.1-2.32-11.66-11.76-18.03-23.18C530.24,636.71,538.11,636.93,546.18,643.25z"/>
		<path style="fill:#797878;" d="M519.14,490.66c-0.5-3.23-0.76-6.641-0.76-10.18c0-19.971,8.44-36.171,18.851-36.171
			c10.42,0,18.85,16.2,18.85,36.171c0,6.939-1.021,13.43-2.79,18.939h-0.01c-3.3,10.33-9.25,17.22-16.05,17.22
			C528.66,516.64,521.43,505.68,519.14,490.66z M546.81,480.93c0-7.76-3.869-14.06-8.649-14.06s-8.67,6.3-8.67,14.06
			c0,7.78,3.89,14.07,8.67,14.07S546.81,488.71,546.81,480.93z"/>
		<path style="fill:#C8C8C8;" d="M538.16,466.87c4.78,0,8.649,6.3,8.649,14.06c0,7.78-3.869,14.07-8.649,14.07
			s-8.67-6.29-8.67-14.07C529.49,473.17,533.38,466.87,538.16,466.87z"/>
		<path style="fill:#A8D7F4;" d="M322.34,177.92l54.79-11.48c2.41-0.6,4.95-1.22,7.6-1.85c32.61-7.8,81.33-17.89,94.76-19.54
			c6.76-0.83,14.41,0.3,22.43,2.63l-0.41,1.47c0,0-0.96,7.61-4.97,9.68c-4.021,2.06-14.33,4.93-14.33,4.93l0.2,3.55
			c0,0,11.22-0.69,18.93-4.66c7.72-3.97,9.82-10.54,9.82-10.54l0.43-1.16c6.18,2.36,12.47,5.2,18.63,8.21
			c17.61,8.58,10.7,15.22-0.2,23.27c-10.899,8.04-34.67,20.28-34.67,20.28L394.9,224.58l-1.25,0.27c0,0-17.2-6.06-37.86-4.35
			c-20.65,1.69-51.83,16.92-51.83,16.92s-67.76,8.64-87.77,10.24c-24.59,1.95-41.07,0.92-55.47-8.28l-0.72-1.4l9.96-5.13
			c0,0-25.54-9.36-36.94-3.49v-0.01l2.14-1.75L72.2,177.12l20.94-5.91l93.65,35.11L322.34,177.92z"/>
		<path style="fill:#797878;" d="M500.94,722.97l5.77,20.8l-0.14,1.08L187.75,704.2l0.11-0.87l-22.13-39.64
			c4.95,5.05,13.26,7.26,22.24,7.26c12.29,0,302.49,15.2,302.49,15.2s5.98,26.18,10.7,36.72L500.94,722.97z"/>
		<polygon style="fill:#FFFFFF;" points="459.18,583.71 465.57,679.62 427.21,679.62 420.81,590.1 		"/>
		<path style="fill:#797878;" d="M436.79,457.8c0,4.09-0.49,7.96-1.36,11.41c-2.21,8.75-6.89,14.78-12.3,14.78
			c-6.68,0-12.24-9.21-13.41-21.36c-0.16-1.57-0.24-3.18-0.24-4.83c0-14.47,6.11-26.189,13.65-26.189
			C430.68,431.61,436.79,443.33,436.79,457.8z M430.07,458.14c0-5.64-2.811-10.199-6.271-10.199s-6.26,4.56-6.26,10.199
			c0,5.62,2.8,10.17,6.26,10.17S430.07,463.76,430.07,458.14z"/>
		<path style="fill:#C8C8C8;" d="M423.8,447.94c3.46,0,6.271,4.56,6.271,10.199c0,5.62-2.811,10.17-6.271,10.17
			s-6.26-4.55-6.26-10.17C417.54,452.5,420.34,447.94,423.8,447.94z"/>
		<path style="fill:#A8D7F4;" d="M240.31,338.22l-77.06,56.65l-12.04-3.86l152.75-153.59c0,0,31.18-15.23,51.83-16.92
			c20.66-1.71,37.86,4.35,37.86,4.35l1.25-0.27l-60.93,44.79c-0.01,0-0.01,0-0.01,0l-23.74,17.46l-47.36,34.82L240.31,338.22z"/>
		<path style="fill:#A8D7F4;" d="M384.37,163.12l0.36,1.47c-2.65,0.63-5.19,1.25-7.6,1.85l-54.79,11.48l-31.12-89.97
			c0,0,9.94-0.84,16.5,1.26c3.41,1.09,23.88,20.9,42.8,39.75c0,0,0,0,0.01,0c4.35,4.33,8.62,8.61,12.58,12.6
			C375.16,153.69,384.37,163.12,384.37,163.12z"/>
		<path style="fill:#797878;" d="M370.71,127.9c3.4,1.09,5.35,9.64-0.26,12.52l-7.34,1.14c-3.96-3.99-8.23-8.27-12.58-12.6
			C351.06,128.89,367.35,126.83,370.71,127.9z"/>
		<path style="fill:#797878;" d="M365.05,272.62c2.85,4.11,2.49,10.06-4.2,12.3l-0.1-0.33c-12.5,0.19-10.17-14.53,2.27-12.14
			L365.05,272.62z"/>
		<path style="fill:#797878;" d="M365.05,272.62l-2.03-0.17c-12.44-2.39-14.77,12.33-2.27,12.14l0.1,0.33
			c-0.26,0.09-0.54,0.17-0.82,0.25c-9.1,2.44-41.45-2.65-49.81,1.66l23.74-17.46c0,0,0,0,0.01,0c0.64-0.02,26.4-0.88,28.71,0.81
			C363.61,270.86,364.41,271.69,365.05,272.62z"/>
		<path style="fill:#797878;" d="M288.66,323.54l0.09-1.66c5.21,3.8,6.44,12.51-2.66,14.96c-1.04,0.28-2.49,0.48-4.25,0.62
			c-2.34-1.45-3.8-4.81-3.45-7.56C279.08,324.8,284.29,323.32,288.66,323.54z"/>
		<path style="fill:#797878;" d="M288.75,321.88l-0.09,1.66c-4.37-0.22-9.58,1.26-10.27,6.36c-0.35,2.75,1.11,6.11,3.45,7.56
			c-9.84,0.79-29.34-0.25-41.53,0.76l22.55-16.57C271.89,320.71,287.01,320.6,288.75,321.88z"/>
		<path style="fill:#ED1E29;" d="M169.96,232.85l-9.96,5.13l-58.78,30.25l-16.95,1l48.75-39.88v0.01
			C144.42,223.49,169.96,232.85,169.96,232.85z"/>
	</g>
	<g>
		<path style="fill:none;stroke:#231F20;stroke-width:14;" d="M350.52,128.96c-18.92-18.85-39.39-38.66-42.8-39.75
			c-6.56-2.1-16.5-1.26-16.5-1.26l31.12,89.97l0.5,1.44"/>
		<path style="fill:none;stroke:#231F20;stroke-width:14;" d="M384.37,163.12c0,0-9.21-9.43-21.26-21.56
			c-3.96-3.99-8.23-8.27-12.58-12.6"/>
		<path style="fill:none;stroke:#231F20;stroke-width:14;" d="M160.72,239.38c14.4,9.2,30.88,10.23,55.47,8.28
			c20.01-1.6,87.77-10.24,87.77-10.24s31.18-15.23,51.83-16.92c20.66-1.71,37.86,4.35,37.86,4.35l1.25-0.27l100.45-21.87
			c0,0,23.771-12.24,34.67-20.28c10.9-8.05,17.811-14.69,0.2-23.27c-6.16-3.01-12.45-5.85-18.63-8.21
			c-3.26-1.24-6.49-2.35-9.67-3.27c-8.02-2.33-15.67-3.46-22.43-2.63c-13.431,1.65-62.15,11.74-94.76,19.54
			c-2.65,0.63-5.19,1.25-7.6,1.85l-54.79,11.48l-135.55,28.4l-93.65-35.11l-20.94,5.91l62.96,50.48l-2.14,1.75l-48.75,39.88l16.95-1
			L160,237.98l9.96-5.13c0,0-25.54-9.36-36.94-3.49"/>
		<line style="fill:none;stroke:#231F20;stroke-width:14;" x1="333.97" y1="269.37" x2="394.9" y2="224.58"/>
		<polyline style="fill:none;stroke:#231F20;stroke-width:14;" points="303.96,237.42 151.21,391.01 163.25,394.87 240.31,338.22 
			262.86,321.65 310.22,286.83 333.96,269.37 		"/>
		<path style="fill:none;stroke:#231F20;stroke-width:7;" d="M350.52,128.96c0,0,0,0,0.01,0c0.53-0.07,16.82-2.13,20.18-1.06
			c3.4,1.09,5.35,9.64-0.26,12.52l-7.34,1.14"/>
		<path style="fill:none;stroke:#231F20;stroke-width:7;" d="M333.96,269.37c0,0,0,0,0.01,0c0.64-0.02,26.4-0.88,28.71,0.81
			c0.93,0.68,1.73,1.51,2.37,2.44c2.85,4.11,2.49,10.06-4.2,12.3c-0.26,0.09-0.54,0.17-0.82,0.25c-9.1,2.44-41.45-2.65-49.81,1.66"
			/>
		<path style="fill:none;stroke:#231F20;stroke-width:7;" d="M262.86,321.65c9.03-0.94,24.15-1.05,25.89,0.23
			c5.21,3.8,6.44,12.51-2.66,14.96c-1.04,0.28-2.49,0.48-4.25,0.62c-9.84,0.79-29.34-0.25-41.53,0.76
			c-0.28,0.02-0.56,0.04-0.83,0.07"/>
		<path style="fill:none;stroke:#231F20;stroke-width:7;" d="M363.02,272.45c-12.44-2.39-14.77,12.33-2.27,12.14"/>
		<path style="fill:none;stroke:#231F20;stroke-width:7;" d="M288.98,323.56c-0.11-0.01-0.21-0.02-0.32-0.02
			c-4.37-0.22-9.58,1.26-10.27,6.36c-0.35,2.75,1.11,6.11,3.45,7.56c0.37,0.23,0.75,0.41,1.16,0.54"/>
		<path style="fill:none;stroke:#231F20;stroke-width:12.7882;" d="M501.51,149.15c0,0-0.96,7.61-4.97,9.68
			c-4.021,2.06-14.33,4.93-14.33,4.93l0.2,3.55c0,0,11.22-0.69,18.93-4.66c7.72-3.97,9.82-10.54,9.82-10.54"/>
		<path style="fill:none;stroke:#231F20;stroke-width:12.7882;" d="M772.28,351.35c0,0,0,0.05,0.01,0.15
			c0.15,2.53,2.05,35.46,2.05,54.17c0,15.45,0,17.68,0,17.97v-0.03"/>
		<path style="fill:none;stroke:#231F20;stroke-width:14;" d="M770.28,234.96c0,0-28.74-13.91-58.891-19.01
			c-30.13-5.09-56.1-8.35-62.58-8.35c-6.479,0-14.84-1.85-14.84,14.38s-1.859,43.11-1.859,43.11s-3.141,14.69,19.479,14.69
			c35.93,0,120.55,14.12,120.55,14.12"/>
		<polyline style="fill:none;stroke:#231F20;stroke-width:14;" points="666.09,499.95 666.09,499.94 666.09,456.36 751.74,454.5 
			751.74,493.14 		"/>
		<path style="fill:none;stroke:#231F20;stroke-width:12.7882;" d="M660.09,469.81c0,4.181-2.979,7.57-6.63,7.57
			c-3.7,0-6.66-3.39-6.66-7.57c0-4.18,2.96-7.579,6.66-7.579C657.11,462.23,660.09,465.63,660.09,469.81z"/>
		<path style="fill:none;stroke:#231F20;stroke-width:12.7882;" d="M768.9,463.78c0,4.18-2.99,7.569-6.65,7.569
			c-3.68,0-6.65-3.39-6.65-7.569c0-4.181,2.971-7.561,6.65-7.561C765.91,456.22,768.9,459.6,768.9,463.78z"/>
		<path style="fill:none;stroke:#231F20;stroke-width:14;" d="M628.41,501.73v16.449c0,0,98.3-2.47,123.95-7.1
			c25.64-4.64,23.8-8.04,23.8-8.04l-0.311-13.91"/>
		<path style="fill:none;stroke:#231F20;stroke-width:14;" d="M553.28,499.42c-3.3,10.33-9.25,17.22-16.05,17.22
			c-8.57,0-15.801-10.96-18.091-25.979c-0.5-3.23-0.76-6.641-0.76-10.18c0-19.971,8.44-36.171,18.851-36.171
			c10.42,0,18.85,16.2,18.85,36.171c0,6.939-1.021,13.43-2.79,18.939"/>
		<polyline style="fill:none;stroke:#231F20;stroke-width:14;" points="553.28,499.42 553.29,499.42 626.32,518.42 		"/>
		<polyline style="fill:none;stroke:#231F20;stroke-width:14;" points="435.43,469.21 519.14,490.66 519.16,490.66 		"/>
		<path style="fill:none;stroke:#231F20;stroke-width:14;" d="M628.37,425.75l0.04,75.98c0,0,16.7-0.761,37.68-1.79
			c25.05-1.221,56.21-2.83,72.37-4.011c5.1-0.37,9.55-0.819,13.42-1.3c18.67-2.32,23.97-5.5,23.97-5.5s0,0,0-14.21
			c0-14.22-0.31-49.77-0.31-49.77c-0.31,0-0.7,0-1.2,0c-1.979,0-5.55,0-11.47,0c-14.84,0-119.62-0.31-133.84-0.31
			c-0.21,0-0.42,0-0.63-0.02c-7.631-0.26-10.681-5.41-11.891-9.87c-0.95-3.46-0.779-6.5-0.779-6.5s0.64-42.65,1.55-57.18
			c0.13-2.09,0.79-3.68,2.01-4.89c4.96-4.91,19.22-3.45,45.29-3.45c29.88,0,97.22,7.39,107.71,8.57c0.91,0.1,1.39,0.15,1.39,0.15
			s-0.63-27.76-1.38-57.75c-0.55-21.71-1.149-44.6-1.62-58.95c-0.149-4.7-0.279-8.49-0.399-11.02c-0.38-8.33,3.72-9.74-36.16-22.72
			c-39.87-12.98-87.63-12.52-87.63-12.52c-17.15,0-36.15,9.85-36.15,9.85l-210.97,86.59c0,0-7.88,27.2-7.88,93.2
			c0,18.54-1.38,79.27-1.38,79.27l19.59,5.03"/>
		<path style="fill:none;stroke:#231F20;stroke-width:12.7882;" d="M546.81,480.93c0,7.78-3.869,14.07-8.649,14.07
			s-8.67-6.29-8.67-14.07c0-7.76,3.89-14.06,8.67-14.06S546.81,473.17,546.81,480.93z"/>
		<path style="fill:none;stroke:#231F20;stroke-width:14;" d="M409.72,462.63c-0.16-1.57-0.24-3.18-0.24-4.83
			c0-14.47,6.11-26.189,13.65-26.189c7.55,0,13.66,11.72,13.66,26.189c0,4.09-0.49,7.96-1.36,11.41
			c-2.21,8.75-6.89,14.78-12.3,14.78C416.45,483.99,410.89,474.78,409.72,462.63z"/>
		<path style="fill:none;stroke:#231F20;stroke-width:12.7882;" d="M430.07,458.14c0,5.62-2.811,10.17-6.271,10.17
			s-6.26-4.55-6.26-10.17c0-5.64,2.8-10.199,6.26-10.199S430.07,452.5,430.07,458.14z"/>
		<polyline style="fill:none;stroke:#231F20;stroke-width:14;" points="617.28,344.88 573.4,354.37 573.4,411.23 616.51,414.95 		
			"/>
		<path style="fill:none;stroke:#231F20;stroke-width:14;" d="M593.01,571.27c-6.72-8.47-14.74-15.699-26.59-22.979
			c-22.02-13.55-75.96-6.75-75.96-6.75l-316.8,49.27c0,0-6.62,7.36-9.7,15.86c-0.94,2.58-1.55,5.271-1.55,7.9
			c0,10.859-1.36,26.22-1.36,37c0,5.13,1.75,9.13,4.68,12.12c4.95,5.05,13.26,7.26,22.24,7.26c12.29,0,302.49,15.2,302.49,15.2
			s15.76,10.14,27.58,21.949c11.82,11.82,42.19,5.631,42.19,5.631l60.22-6.351l6.47-0.68c0,0,3.66-3.66,6.47-31.8
			c0.591-5.881,0.19-12.12-0.81-18.32c-1.48-9.32-4.32-18.55-7.21-26.29c-4.38-11.771-8.86-20.1-8.86-20.1
			c-0.79-1.45-1.569-2.87-2.319-4.25c-7.79-14.28-13.671-25.24-21.16-34.66"/>
		<path style="fill:none;stroke:#231F20;stroke-width:7;" d="M632.57,656.58c0,0-7.101,0.93-17.44,2.1
			c-15.26,1.74-37.58,4.011-54.479,4.63c-10.641,0.381-19.131,0.12-22.36-1.35c-5.1-2.32-11.66-11.76-18.03-23.18
			c-8.37-15.05-16.39-33.54-20.229-43.78c-6.761-18.01-14.63-31.51-30.38-31.51c-15.771,0-305.45,43.27-305.45,43.27"/>
		<path style="fill:none;stroke:#231F20;stroke-width:14;" d="M624.95,630.45c-5.44,5.31-12.2,17.16-9.82,28.229
			c0.07,0.34,0.16,0.69,0.25,1.03"/>
		<path style="fill:none;stroke:#231F20;stroke-width:14;" d="M519.72,638.89c0.181-0.04,0.36-0.08,0.54-0.109
			c9.98-2.07,17.851-1.851,25.92,4.47c5.82,4.56,10.511,11.01,14.471,20.06c0.05,0.11,0.1,0.221,0.149,0.341"/>
		<path style="fill:none;stroke:#231F20;stroke-width:14;" d="M614.02,606.03c0,0-16.079,11.67-37.09,11.67
			c-21,0-33.949-1.32-41.64-9c-7.69-7.7-18-35.641-18-35.641s32.8-5.63,50.26-5.63c19.271,0,25.12,3.61,25.46,3.84
			c0.01,0.011,0.021,0.011,0.021,0.011"/>
		<path style="fill:none;stroke:#231F20;stroke-width:14;" d="M620.45,707.38l-2.97,22.03l-0.421,3.12l-76.85,11.239
			c0,0-32.02-12.319-36.8-17.1c-0.69-0.689-1.45-2.02-2.25-3.8c-4.72-10.54-10.7-36.72-10.7-36.72"/>
		<polyline style="fill:none;stroke:#231F20;stroke-width:15.9853;" points="165.71,663.65 165.73,663.69 187.86,703.33 		"/>
		<polyline style="fill:none;stroke:#231F20;stroke-width:14;" points="165.41,701.35 187.75,704.2 506.57,744.85 539.54,749.05 
			582.8,754.57 646.12,762.64 		"/>
		<polyline style="fill:none;stroke:#231F20;stroke-width:14;" points="621.09,729.9 692.31,735.3 697.34,735.68 		"/>
		<line style="fill:none;stroke:#231F20;stroke-width:15.9853;" x1="500.94" y1="722.97" x2="506.71" y2="743.77"/>
		<polyline style="fill:none;stroke:#231F20;stroke-width:7;" points="581.81,754.74 582.8,754.57 692.29,735.57 		"/>
		<polygon style="fill:none;stroke:#231F20;stroke-width:12.7882;" points="465.57,679.62 427.21,679.62 420.81,590.1 
			459.18,583.71 		"/>
		<polygon style="fill:none;stroke:#231F20;stroke-width:14;" points="427.21,293.84 582.79,232.03 582.79,310.89 425.07,345 		"/>
	</g>
</g>
<rect style="fill:none;" width="850.394" height="850.394"/>
</svg>
