<svg id="Layer_1" xmlns="http://www.w3.org/2000/svg" viewBox="0 0 850 850"><style>.st0{fill:#a9d7f3}.st1{fill:#ffeec8}.st2{fill:#7a7878}.st3,.st4,.st5,.st6{fill:none;stroke:#231f20;stroke-width:14;stroke-linecap:round;stroke-miterlimit:10}.st4,.st5,.st6{stroke-width:7}.st5,.st6{stroke-width:7.25}.st6{stroke-width:21}</style><path class="st0" d="M367.1 423.8l-3.5-1.8-3.5-2.5-3.8-3-3.7-3.7-3.8-3.8-3.5-4.2-3.7-4.3-3.3-4.2-6-8.3-4.7-7-4.3-6.7-2.5-.3.8-2.2.5-2.5 5.2-25 1.8-9 1.5-8 1-8.3 1.2-9.5 2.5-27.7 1.3-5 2.2-19 1-8.8.8-8.2V229l-.5-4-.5-3.7-1-3.8-1-4-1.3-3.7 1.8 3.5 1.7 3.5 1.5 3.7 1.5 4 2.8 8.5 2.2 8.8 2 9 1.8 9.2 1.2 9 1.3 8.8.7 8.5.8 7.7.7 13.3.5 9v3.2l.5 3 1.5 5.8 1.8 5.7 1.7 5.8 1.8 5.7 4.2 11 4.3 10.5 8 18.8 3.2 7.5 2.3 6.2-.5.5-3.3 3.3-5 5.5-2.7 3.2-2.8 3.8-2.5 4z"/><path class="st1" d="M380.8 468.8l-3.5-3.8-3.2-4.2-1.3-2.3-1.5-2.2-1-2.5-.7-2.5-.8-2.5-.2-1.8-.3-1.5v-8l-.5-5.7-.7-8 2.2-4 2.5-4 2.8-3.8 2.7-3.2 5-5.5 3.3-3.3 5.7.5 3 2 3.8 2.3 8.7 5 4.5 2.5 4 2.5 3.3 2.5 1.2 1.2.8 1.3.7 1.2 1 2 1.5 3.5 1.3 4.3 1 4.2.5 5v3.3l-.5 2.5-.5 1-.5.7-.5.3h-.8l-3-.8-2.5-1-2.2-1.5-1.8-1.7-2.2-2.5-2.3-1.8-1-.7-1-.5-.7-.3-1 .3-2 1-1.8 1-1 1.2-.5 1.5-.2 1.3v2.2l.2.8-.7-1-1-1-1-.8-1.3-.2-1.2-.3-1.3.5-1.2.8-1.3 1.5-.7 1.5-.5 1.2-.5 1.3-.3 1 .3 1.2v1.3l1 2.2-1.3-.7-1.2-.5-1-.3h-1.3l-1.2.3-1 .5-1 .7-1 .8-.8 1-.5.7-.5 2v2.3l.3 2 .5 2.2.7 2 .8 1.5.7 1.3zM233.3 507.8l84.3-22.8.5 1.5 3.7 11 3.8 11.5 4.5 14 4.2 14.5 3.8 14 1.5 6.5 1 5.8.5 4.7.2 4-.5 3.8-.7 4.7-1.3 5.8-1.7 6.5-4.3 14.2-5 16-5.5 16-5.5 15.3-5 13.5-4 10.5-3.5 8.2-2.7 7.8-2.5 7-2 6.2-2.5 8.8-.8 3-1.2 3-1 3-.8 2.7-.2 2.5-.3 2.5v2.5l.3 2.3.5 2.2.5 2 1 2 1 1.8 1 1.7 1.2 1.8 1.5 1.5 3 3 3.5 2.5 3.5 2.2 3.8 2 3.7 2 7.3 3 6.2 2.5 4.5 2.3 3.3 2.2 1.2 1 1 1 .5 1 .5.8.3 1v.7l-.3.8-.2.7-.8.8-.7.7-2 1-2.5 1-3 1-3.5.5-3.8.5-4 .3-4-.3-4-.2-3.7-.5-4-.8-3.3-1-5.7-2-2.8-1-3-1-3.2-.7-4-.8h-12.8l-3.5-.2-3.2-.3-3.3-1-1.2-.5-1.3-.7-2.7-2.3-2-2-1.3-2.2-1-2.3-.5-2.2V761l.5-2.7.5-2.8 2-6.7 2.8-7.8 3-9.2 1.5-5.5 1.5-5.5 1-5.8.5-5.5.2-5.5-.2-5.5-.5-5.5-.5-5.7-1.3-11.5-.7-6-.5-6.3-.3-6.5v-6.7l.3-7 .5-7.3 1.2-8 1.8-8.2.7-2.8 1-3 2.8-6 2.7-6 3-6.2 1-3 1-3 .8-3 .2-3V581l-.5-3-1-2.7-1.5-2.5-4-5.3-4.7-5.2-5-5-5.3-5-8.2-7.5-7.8-7.5-6-6-5.2-6-5-6-5-6.3.7-.5z"/><path class="st1" d="M215.6 513l5 6.3 5 6 5.2 6 6 6 7.8 7.5 8.2 7.5-3 3.7-.7 2.3-1 2.5-1.3 2.2-1.5 2.5-2 2.3-2 2.2-5 5-5.7 4.8-6.8 5.2-15.7 11.5-7.5 5.5-7.5 5.8-14 11.2-13.3 11-11.7 10.3-9.8 8.7-7.5 7-6.5 6.3-1.7 3.2-1.5 3.5-.8 3.3-.5 3.5v3.5l.3 3.5.5 3.5.7 3.5 1 3.2 1.3 3.5 2.7 6.3 3 6 2.8 5.2 2.2 4.8 1.3 3.5.2 1.7.3 1.3v1.2l-.3 1-.2.8-.5.7-.8.5-.7.3-1 .2h-1l-2.3-.2-2.7-.8-2.8-1.2-3.2-1.8-3-2-3.3-2.2-3.2-2.5-3-2.5-2.8-3-2.5-2.8-2-2.7-3.2-5.3-1.5-2.5-1.8-2.7-2.2-2.5-2.5-3-1.3-.8-1-1-3-1.5-3.5-1.7-3.5-2-3.2-2.3-1.3-1.2-1.2-1.3-1.3-1.5-.7-1.5-.3-1.7-.2-2 .5-2.8.7-2.7 1.5-2.5 1.8-2.5 2-2.3 2.5-2.2 5.2-4.8 5.8-4.7 2.7-2.8 2.8-2.7 2.5-2.8 2.5-3 2-3.5 1.7-3.5 10.3-23 2.5-6.2 3-5.8 3.5-5 3.5-4.5 3.7-4.2 3.8-3.8 4-3.2 3.7-2.8 3.8-2.7 3.7-2.3 6.8-3.5 5.5-2.7 3.7-2 .8-.8 1-1 1.7-2.7 1.5-3.3 1.3-4 1.2-4.5 1.3-4.7 1-5.3 1-5.5 1.5-11.2 1.2-11 1.5-18.3 2.5 5 2.8 4.3 2.5 4 2.7 3.2 2.5 3 2.3 2.5 3.5 3.8 28.7-5-17 4.7zM208.1 423.5h1.2l1 .5 1 .5.8.8.7.7.5 1 .5 1 .3 1v1.8l-.5 1-.5.7-.5.8-1 .5-1 .5-1.3.2h-7.5l-1.7-.5-.5-.2-1.8.5-.5-3-1.2-5.8-1.5-5.7-1.5-5.3-1-2.2-1-2 4 4 4.5 4.2 2.2 1.8 2.3 1.5 2 1.2z"/><path class="st1" d="M138.3 389.5l1 7 27.8-6.7 3.7 3.2 3.5 2.8 6 4.5 4.8 3.5 2.2 2 2 2 1 1.2.8 1.3 1 2 1 2.2 1.5 5.3 1.5 5.7 1.2 5.8.5 3 2.3 7.7 1.7 5.8 1.5 3.7.3 1.5v2l-.5.8-.5.7-.5.5-.8.3-.7.2h-.8l-1-.2v.5l-1 1.2-1.5 1.5-1.7 1.3-2 .7-.8.3h-.7l-1.5-.5-1-.8-.8-.7v1l-.2.7-.8.8-.7.5-2 1-2.5 1-1 .2-1.3.3-1.2-.5-1.3-.5-2.2-.5-2.8-.5-2.5-1-2-1.3-2-1.5-2-1.7-4.2-4.5-4.3-4.8-4-5-6.5-8.7-2.7-4.3-1-3.2-1-4.8-1-6-1-6.5-1.8-12.7-.7-8.5zM420.3 453.3l.3 1v1.7l-.3 1-.2 1-.8.8-1 1-2.2 1.7-2.3 1.3-1.2.5-1 .2-.8-.2-.7-.5-.5-.8-.5-1-.5-1.7-1-1.8-2-3.2-2-3.3-1-1.5-.8-1.7-1-1.5-.2-.8v-2.2l.2-1.3.5-1.5 1-1.2 1.8-1 2-1 1-.3.7.3 1 .5 1 .7 2.3 1.8 2.2 2.5 2 3 2 3 1.5 2.5.8 2zM396.6 464.8l2 3.7.5 1.5.2 1.5v1.3l-.5 1.2-1 1.3-1 .7-1.5.8-1.2.5-1.5.2-1.5-.2-1.3-.5-1.5-1-1.7-1.3-3.3-3.2-.7-1.3-.8-1.5-.7-2-.5-2.2-.3-2V460l.5-2 .5-.7.8-1 1-.8 1-.7 1-.5 1.2-.3h1.3l1 .3 1.2.5 1.3.7 1 2 1.2 2 3.3 5.3z"/><path class="st1" d="M408.8 468.3l-1 .7-1 .8-2.5 1-2.2.5-1.8.2h-1l-.2-1.5-.5-1.5-2-3.7-3.3-5.3-1.2-2-1-2-1-2.2V452l-.3-1.2.3-1 .5-1.3.5-1.2.7-1.5 1.3-1.5 1.2-.8 1.3-.5 1.2.3 1.3.2 1 .8 1 1 .7 1 1 1.5.8 1.7 1 1.5 2 3.3 2 3.2 1 1.8.5 1.7.5 1 .5.8v2.7l-.3 1.3-.5.7zM356.1 127.8l-.5 5.2-.5 5-1 5-1.5 4.8-1.5 4.5-2 4.5-2.3 4.2-2.2 4-2.8 3.5-2.7 3.5-3.3 3.3-3.2 2.7-3.5 2.5-3.5 2-3.8 2-3.7 1.3-3.5 1-3.3.5-3.5.5h-3.5l-3.7-.5-4-.5-3.8-1.3-3.5-1.2-3.5-1.8-3.2-2-3.3-2.5-3-2.5-1.5-1.5-2-2.2-2-2.5-1.7-2.5-1.8-2.8-1.7-2.7-1.5-2.8-1.3-3.2-1.2-3-1.3-3.3-.7-3.2-1-3.5-.5-3.5-.5-3.5-.3-3.8-.2-3.7v-3.5l.5-6.5 1-6 1.5-6 1.7-5.5 2.3-5.3 2.7-5 3-4.7 3.5-4.3 3.5-4 4-3.2 4.3-3 4.2-2.5 4.8-1.8 2.2-.7 2.5-.8 2.5-.5 2.5-.2 2.5-.3h2.5l2.5.3 2.5.2 2.5.5 2.5.8 2.3.7 2.2 1 4.5 2.3 4.3 2.7 4 3.3 3.7 3.5 3.3 4.2 3 4.5 2.7 4.8 2.3 5.2 2 5.5 1.5 5.8 1 6 .5 6z"/><path class="st2" d="M187.8 460.8l.8.7 1 .8 1.5.5h.7l.8-.3 2-.7 1.7-1.3 1.5-1.5 1-1.2v-.5l1 .2h.8l.7-.2.8-.3.5-.5.5-.7.5-.8v-2l-.3-1.5-1.5-3.7-1.7-5.8-2.3-7.7 1.8-.5.5.2 1.7.5h7.5l1.3-.2 1-.5 1-.5.5-.8.5-.7.5-1V429l-.3-1-.5-1-.5-1-.7-.7-.8-.8-1-.5-1-.5h-1.2l-2-.5-2-1.2-2.3-1.5-2.2-1.8-4.5-4.2-4-4-.8-1.3-1-1.2-2-2-2.2-2-4.8-3.5-6-4.5-3.5-2.8-3.7-3.2 9.5-2.3.7-2.2.8-3 1.7-8.3 4 .8 3 2 3 2 3.3 2 3.5 1.7 7.5 3.3 8 2.7 8 2.8 8.2 2.2 8 2 7.8 1.5 11.7 2.5 6.5 1 6.5.8 6.8.5h3.2l3.3-.3 3.2-.2 3-.8 3-.7 3-1 .8-.5 1.7 3 .8 3.7 1 4.8 2.7 11.7 3.5 13.5 4 14.3 7 24.5 3 10.7-1.2.5-84.3 22.8-28.7 5-3.5-3.8-2.3-2.5-2.5-3-2.7-3.2-2.5-4-2.8-4.3-2.5-5-1.7-4.5-1.8-5-1.7-5.5-1.3-5.7 1.3-.3 1-.2 2.5-1 2-1 .7-.5.8-.8.2-.7z"/><path class="st0" d="M215.1 258.5l-1.8 1.5-1.5 2-1.5 2-1.7 2.5-3 5.8-2.8 6.5-2.7 7-2.5 8-2.3 8.2-2.2 8.5-2.3 8.8-1.7 8.7-3.8 17.3-5.5 28.7-1.7 8.3-.8 3-.7 2.2-9.5 2.3-27.8 6.7-1-7-.7-7.5-.5-7.7-.3-8v-8.8l.3-8.7.5-9 .7-9.3 1.3-9.5 1.5-9.7 2-9.8 2.2-9.7 2.8-10 3-9.8 3.5-9.7 4-9.8 4.5-9.5 4.5-9 4.2-8.2 4.5-7.8 4.5-7.2 4.5-7 4.8-6.3 4.5-5.7 4.7-5.5 2.8-1.5 3-1.5 3.7-2 4.8-1.8 5.2-2 5.8-1.7 6-1.3.5 2.8.5 2.5 1.5 6.5 1 4.5.5 5.2.7 5.8.3 6.2-.3 6.5-.5 6.5-.5 3.5-.5 3.3-.7 3.2-1 3.3-1.3 3.2-1.2 3.3-1.5 3-1.8 3-2 2.7-2.2 2.8-2.5 2.5-2.8 2.5z"/><path class="st0" d="M294.3 398.8l-3 1-3 .7-3 .8-3.2.2-3.3.3h-3.2l-6.8-.5-6.5-.8-6.5-1-11.7-2.5-7.8-1.5-8-2-8.2-2.2-8-2.8-8-2.7-7.5-3.3-3.5-1.7-3.3-2-3-2-3-2-4-.8 5.5-28.7 3.8-17.3 1.7-8.7 2.3-8.8 2.2-8.5 2.3-8.2 2.5-8 2.7-7 2.8-6.5 3-5.8 1.7-2.5 1.5-2 1.5-2 1.8-1.5 1.7-1.2 2.8-2.5 2.5-2.5 2.2-2.8 2-2.7 1.8-3 1.5-3 1.2-3.3 1.3-3.2 1-3.3.7-3.2.5-3.3.5-3.5.5-6.5.3-6.5-.3-6.2-.7-5.8-.5-5.2-1-4.5-1.5-6.5-.5-2.5-.5-2.8h.5l6.5-.5 10.7-.2h6.5l7 .2 7.3.5 7.2 1 3 2.5 3.3 2.5 3.2 2 3.5 1.8 3.5 1.2 3.8 1.3 4 .5 3.7.5h3.5l3.5-.5 3.3-.5 3.5-1 5 2 4.2 5.7 3.8 5.5 2.7 5.5 2.5 5.3 1.3 3.7 1 4 1 3.8.5 3.7.5 4v11.8l-.8 8.2-1 8.8-2.2 19-1.3 5-2.5 27.7-1.2 9.5-1 8.3-1.5 8-1.8 9-5.2 25-.5 2.5-.8 2.2-1.5 3.5-2 3-2.2 3-2.5 2.5-3 2.5-3 2.5-7 4.5-4.5 2.8z"/><path class="st3" d="M274.8 174l1.5 1.5 3 2.5 3.3 2.5 3.2 2 3.5 1.8 3.5 1.2 3.8 1.3 4 .5 3.7.5h3.5l3.5-.5 3.3-.5 3.5-1 3.7-1.3 3.8-2 3.5-2 3.5-2.5 3.2-2.7 3.3-3.3 2.7-3.5 2.8-3.5 2.2-4 2.3-4.2 2-4.5 1.5-4.5 1.5-4.8 1-5 .5-5 .5-5.2v-6.5l-.5-6-1-6-1.5-5.8-2-5.5-2.3-5.2-2.7-4.8-3-4.5-3.3-4.2-3.7-3.5-4-3.3-4.3-2.7-4.5-2.3-2.2-1-2.3-.7-2.5-.8-2.5-.5-2.5-.2-2.5-.3h-2.5l-2.5.3-2.5.2-2.5.5-2.5.8-2.2.7-4.8 1.8-4.2 2.5-4.3 3-4 3.2-3.5 4-3.5 4.3-3 4.7-2.7 5-2.3 5.3-1.7 5.5-1.5 6-1 6-.5 6.5v3.5l.2 3.7.3 3.8.5 3.5.5 3.5 1 3.5.7 3.2 1.3 3.3 1.2 3 1.3 3.2 1.5 2.8 1.7 2.7 1.8 2.8 1.7 2.5 2 2.5 2 2.2M323.1 187.8l4.2 5.7 3.8 5.5 2.7 5.5 2.5 5.3 1.3 3.7 1 4 1 3.8.5 3.7.5 4v11.8l-.8 8.2-1 8.8-2.2 19-1.3 5-2.5 27.7-1.2 9.5-1 8.3-1.5 8-1.8 9-5.2 25-.5 2.5-.8 2.2-1.5 3.5-2 3-2.2 3-2.5 2.5-3 2.5-3 2.5-7 4.5-4.5 2.8-.8.5-3 1-3 .7-3 .8-3.2.2-3.3.3h-3.2l-6.8-.5-6.5-.8-6.5-1-11.7-2.5-7.8-1.5-8-2-8.2-2.2-8-2.8-8-2.7-7.5-3.3-3.5-1.7-3.3-2-3-2-3-2M231.1 174.5l5.5-.7h5.2"/><path class="st3" d="M219.8 255.8l-1.5.5-1.5 1-1.7 1.2-1.8 1.5-1.5 2-1.5 2-1.7 2.5-3 5.8-2.8 6.5-2.7 7-2.5 8-2.3 8.2-2.2 8.5-2.3 8.8-1.7 8.7-3.8 17.3-5.5 28.7-1.7 8.3-.8 3-.7 2.2-9.5 2.3-27.8 6.7-1-7-.7-7.5-.5-7.7-.3-8v-8.8l.3-8.7.5-9 .7-9.3 1.3-9.5 1.5-9.7 2-9.8 2.2-9.7 2.8-10 3-9.8 3.5-9.7 4-9.8 4.5-9.5 4.5-9 4.2-8.2 4.5-7.8 4.5-7.2 4.5-7 4.8-6.3 4.5-5.7 4.7-5.5 2.8-1.5 3-1.5 3.7-2 4.8-1.8 5.2-2 5.8-1.7 6-1.3h.5"/><path class="st4" d="M135.1 389.8l.7 8.5 1.8 12.7 1 6.5 1 6 1 4.8 1 3.2 2.7 4.3 6.5 8.7 4 5 4.3 4.8 4.2 4.5 2 1.7 2 1.5 2 1.3 2.5 1 2.8.5 2.2.5h1.8l.2-.3-.2-.2-1.3-1.3-1.7-1.5-3-3.2-5-6-1-1.5-1.3-2.3-2.5-5-2.7-6.2"/><path class="st4" d="M175.8 464.3l.3.2.7.8 1.3.5 1.2.5 1.3-.3 1-.2 2.5-1 2-1 .7-.5.8-.8.2-.7v-1l-.2-.5-.5-.8-2.3-2.7-2.2-2.8-2.5-3.7-3-5.8-7.5-14.7"/><path class="st4" d="M187.6 460.5l.2.3.8.7 1 .8 1.5.5h.7l.8-.3 2-.7 1.7-1.3 1.5-1.5 1-1.2M166.6 389.3l.5.5 3.7 3.2 3.5 2.8 6 4.5 4.8 3.5 2.2 2 2 2 1 1.2.8 1.3 1 2 1 2.2 1.5 5.3 1.5 5.7 1.2 5.8.5 3 2.3 7.7 1.7 5.8 1.5 3.7.3 1.5v2l-.5.8-.5.7-.5.5-.8.3-.7.2h-.8l-1-.2-.5-.5-.5-.5-1.7-2-1.8-2-1.2-1.5-1.3-2-3.2-6.8-1.5-2.7-2-4.3-1.3-2.5-1.2-3.5-1-4-1.3-4.7"/><path class="st3" d="M332.1 203.5l2.2 3 2 3.3 1.8 3.5 1.7 3.5 1.5 3.7 1.5 4 2.8 8.5 2.2 8.8 2 9 1.8 9.2 1.2 9 1.3 8.8.7 8.5.8 7.7.7 13.3.5 9v3.2l.5 3M357.3 322.5l1.5 5.8 1.8 5.7 1.7 5.8 1.8 5.7 4.2 11 4.3 10.5 8 18.8 3.2 7.5 2.3 6.2-.5.5-3.3 3.3-5 5.5-2.7 3.2-2.8 3.8-2.5 4-2.2 4M367.1 423.8l-3.5-1.8-3.5-2.5-3.8-3-3.7-3.7-3.8-3.8-3.5-4.2-3.7-4.3-3.3-4.2-6-8.3-4.7-7-4.3-6.7"/><path class="st4" d="M400.8 446.3l.3.2M426.6 440l.2 2.8v1.7l-.7 2-1 2.3-1 1.7-1.3 1.8-1 1-1 .5h-.2v-.5l-.8-2-1.5-2.5-2-3-2-3-2.2-2.5-2.3-1.8-1-.7-1-.5-.7-.3-1 .3-2 1-1.8 1-1 1.2-.5 1.5-.2 1.3v2.2l.2.8M391.3 400.5l3 2 3.8 2.3 8.7 5 4.5 2.5 4 2.5 3.3 2.5 1.2 1.2.8 1.3.7 1.2 1 2 1.5 3.5 1.3 4.3 1 4.2.5 5"/><path class="st4" d="M420.3 453.3l.3 1v1.7l-.3 1-.2 1-.8.8-1 1-2.2 1.7-2.3 1.3-1.2.5-1 .2-.8-.2-.7-.5-.5-.8-.5-1-.5-1.7-1-1.8-2-3.2-2-3.3-1-1.5-.8-1.7-1-1.5-.7-1-1-1-1-.8-1.3-.2-1.2-.3-1.3.5-1.2.8-1.3 1.5-.7 1.5-.5 1.2-.5 1.3-.3 1 .3 1.2v1.3l1 2.2 1 2 1.2 2 3.3 5.3"/><path class="st5" d="M409.8 462l.3.8v2.7l-.3 1.3-.5.7-.5.8-1 .7-1 .8-2.5 1-2.2.5-1.8.2"/><path class="st4" d="M367.1 423.8l.7 8 .5 5.7v8l.3 1.5.2 1.8.8 2.5.7 2.5 1 2.5 1.5 2.2 1.3 2.3 3.2 4.2 3.5 3.8 2.5 2.5 3.3 3.2 1.7 1.3 1.5 1 1.3.5 1.5.2 1.5-.2 1.2-.5 1.5-.8 1-.7 1-1.3.5-1.2v-1.3l-.2-1.5-.5-1.5-2-3.7-1-2.5-1.3-3"/><path class="st4" d="M395.3 460.8l-1-1.8-1-1.5-1.2-1.2-1-.8-1.3-.7-1.2-.5-1-.3h-1.3l-1.2.3-1 .5-1 .7-1 .8-.8 1-.5.7-.5 2v2.3l.3 2 .5 2.2.7 2 .8 1.5.7 1.3M425.1 430.8l.7 1.7.5 2.3.3 2.7v5.8l-.5 2.5-.5 1-.5.7-.5.3h-.8l-3-.8-2.5-1-2.2-1.5-1.8-1.7-1.2-2-.3-1-.2-1-.3-1.8.3-2 .5-1.7.2-1.5-.2-1.3v-.7l-.5-.3-.5-.5-.8-.2-4.7-1-3.5-1.3-3-1.5-2.3-1.5-1.5-1.5-1.5-1.7-2.2-3.8"/><path class="st3" d="M179.3 465.8v.5l1.3 5.7 1.7 5.5 1.8 5 1.7 4.5 2.5 5 2.8 4.3 2.5 4 2.7 3.2 2.5 3 2.3 2.5 3.5 3.8 28.7-5 1.3-.3"/><path class="st3" d="M186.3 484l-.5 3-1.5 18.3-1.2 11-1.5 11.2-1 5.5-1 5.3-1.3 4.7-1.2 4.5-1.3 4-1.5 3.3-1.7 2.7-1 1-.8.8-3.7 2-5.5 2.7-6.8 3.5-3.7 2.3-3.8 2.7-3.7 2.8-4 3.2-3.8 3.8-3.7 4.2-3.5 4.5-3.5 5-3 5.8-2.5 6.2-10.3 23-1.7 3.5-2 3.5-2.5 3-2.5 2.8-2.8 2.7-2.7 2.8-5.8 4.7-5.2 4.8-2.5 2.2-2 2.3-1.8 2.5-1.5 2.5-.7 2.7-.5 2.8.2 2 .3 1.7.7 1.5 1.3 1.5 1.2 1.3 1.3 1.2 3.2 2.3 3.5 2 3.5 1.7 3 1.5 1 1 1.3.8 2.5 3 2.2 2.5 1.8 2.7 1.5 2.5 3.2 5.3 2 2.7 2.5 2.8 2.8 3 3 2.5 3.2 2.5 3.3 2.2 3 2 3.2 1.8 2.8 1.2 2.7.8 2.3.2h1l1-.2.7-.3.8-.5.5-.7.2-.8.3-1v-1.2l-.3-1.3-.2-1.7-1.3-3.5-2.2-4.8-2.8-5.2-3-6-2.7-6.3-1.3-3.5-1-3.2-.7-3.5-.5-3.5-.3-3.5v-3.5l.5-3.5.8-3.3 1.5-3.5 1.7-3.2 6.5-6.3 7.5-7 9.8-8.7 11.7-10.3 13.3-11 14-11.2 7.5-5.8 7.5-5.5 15.7-11.5 6.8-5.2 5.7-4.8 5-5 2-2.2 2-2.3 1.5-2.5 1.3-2.2 1-2.5.7-2.3"/><path class="st3" d="M318.1 486.5l3.7 11 3.8 11.5 4.5 14 4.2 14.5 3.8 14 1.5 6.5 1 5.8.5 4.7.2 4-.5 3.8-.7 4.7-1.3 5.8-1.7 6.5-4.3 14.2-5 16-5.5 16-5.5 15.3-5 13.5-4 10.5-3.5 8.2-2.7 7.8-2.5 7-2 6.2-2.5 8.8-.8 3-1.2 3-1 3-.8 2.7-.2 2.5-.3 2.5v2.5l.3 2.3.5 2.2.5 2 1 2 1 1.8 1 1.7 1.2 1.8 1.5 1.5 3 3 3.5 2.5 3.5 2.2 3.8 2 3.7 2 7.3 3 6.2 2.5 4.5 2.3 3.3 2.2 1.2 1 1 1 .5 1 .5.8.3 1v.7l-.3.8-.2.7-.8.8-.7.7-2 1-2.5 1-3 1-3.5.5-3.8.5-4 .3-4-.3-4-.2-3.7-.5-4-.8-3.3-1-5.7-2-2.8-1-3-1-3.2-.7-4-.8h-12.8l-3.5-.2-3.2-.3-3.3-1-1.2-.5-1.3-.7-2.7-2.3-2-2-1.3-2.2-1-2.3-.5-2.2V761l.5-2.7.5-2.8 2-6.7 2.8-7.8 3-9.2 1.5-5.5 1.5-5.5 1-5.8.5-5.5.2-5.5-.2-5.5-.5-5.5-.5-5.7-1.3-11.5-.7-6-.5-6.3-.3-6.5v-6.7l.3-7 .5-7.3 1.2-8 1.8-8.2.7-2.8 1-3 2.8-6 2.7-6 3-6.2 1-3 1-3 .8-3 .2-3V581l-.5-3-1-2.7-1.5-2.5-4-5.3-4.7-5.2-5-5-5.3-5-8.2-7.5-7.8-7.5-6-6-5.2-6-5-6-5-6.3-.5-1"/><path class="st3" d="M216.3 512.5l17-4.7 84.3-22.8 1.2-.5-3-10.7-7-24.5-4-14.3-3.5-13.5-2.7-11.7-1-4.8-.8-3.7M231.1 177.3l.5 2.5 1.5 6.5 1 4.5.5 5.2.7 5.8.3 6.2-.3 6.5-.5 6.5-.5 3.5-.5 3.3-.7 3.2-1 3.3-1.3 3.2-1.2 3.3-1.5 3-1.8 3-2 2.7-2.2 2.8-2.5 2.5-2.8 2.5-1.7 1.2-2 1.5-2.3 1.3M230.1 174.5h1l6.5-.5 10.7-.2h6.5l7 .2 7.3.5 7.2 1h1.3"/><path class="st4" d="M187.6 406.3l3.5 4 4 4 4.5 4.2 2.2 1.8 2.3 1.5 2 1.2 2 .5h1.2l1 .5 1 .5.8.8.7.7.5 1 .5 1 .3 1v1.8l-.5 1-.5.7-.5.8-1 .5-1 .5-1.3.2h-7.5l-1.7-.5-.5-.2"/><path class="st6" d="M686.6 590.5L602.3 667l84.3 76.3"/><path class="st6" d="M477.8 499l12-.7 12.3-.5 12.2-.5h25.3l12.2.5 12.3.5 12 .7 11.7 1 11.5 1.3 11.5 1.5 11 1.5 10.8 1.7 10.5 2 10.2 2.3 9.8 2.2 9.7 2.5 9 2.5 9 2.8 8.5 3 8 3.2 7.8 3.3 7 3.2 7 3.5 6.2 3.5 5.8 3.8 5.5 4 4.7 3.7 4.5 4.3 3.8 4 3.2 4.2 2.8 4.3 2.2 4.5 1.5 4.5.5 2.2.5 2.3.3 2.2v2.3l-.3 3.5-.5 3.5-1 3.5-1.2 3.5-1.8 3.5-2 3.2-2.2 3.5-2.8 3.3-3 3.2-3.5 3-3.7 3.3-4 3-4.3 3-4.5 2.7-5 3-5 2.8-5.5 2.5-5.7 2.7-6 2.5-6 2.5-6.5 2.3-6.8 2.2-6.7 2.3-7.3 2-15 4-15.5 3.5-16.5 3-17.2 2.5"/></svg>