<?xml version="1.0" encoding="iso-8859-1"?>
<!-- Generator: Adobe Illustrator 12.0.1, SVG Export Plug-In . SVG Version: 6.00 Build 51448)  -->
<!DOCTYPE svg PUBLIC "-//W3C//DTD SVG 1.1//EN" "http://www.w3.org/Graphics/SVG/1.1/DTD/svg11.dtd" [
	<!ENTITY ns_svg "http://www.w3.org/2000/svg">
	<!ENTITY ns_xlink "http://www.w3.org/1999/xlink">
]>
<svg  version="1.1" id="Layer_1" xmlns="&ns_svg;" xmlns:xlink="&ns_xlink;" width="850.394" height="850.394"
	 viewBox="0 0 850.394 850.394" style="overflow:visible;enable-background:new 0 0 850.394 850.394;" xml:space="preserve">
<g>
	<g id="XMLID_1_">
		<g>
			<path style="fill:#FFEEC8;" d="M298.57,356.02c-23.09-14.32-32.44-33.8-24.84-53.71c4.51-11.86,19.89-7.6,30.69-2.8
				c6.38,2.84,11.17,5.87,11.17,5.87S406.67,346,466.69,372.81c29.3,13.08,51.199,22.88,51.479,23.04c0,0,36.53,25.26,65.58,33.86
				c19.89,5.9,60.51,2.95,85.21,33.34c10.06,12.391,15.74,14.11,25.69,13.32c20.189-1.57,29.46,19.03,42.51,41.33
				c8.22,14.01,13.14,23.02,15.66,27.78L587.85,753.38c0,0-46.6-4.229-67.6-17.26c-21-13-76.54-51.68-76.54-51.68
				c-31.9-16.16-71.86-41.69-96.22-55.12c-12.55-6.92-25.03-14.101-35.69-20.73l0.05-0.09c32.8,18.37,38-13.98,41.1-20.22
				c2.05-4.101,0.57-10.771-0.65-15.45c-0.93-3.561-9.84-11.89-16.65-16.14c28.43,11.159,107.78,45.06,131.13,56.01
				c8.34,3.91,16.88,4.83,25.45,3.29c17.75-3.2,35.689-16.94,52.56-36.67c25.02-29.271-20.87-79.67-40.86-96.761
				c0.13-0.13,0.11-0.149-0.06-0.05c-5.18-4.41-19.07-13.72-37.32-25.37c-52.86-33.74-142.28-87.11-162.41-97.91
				C302.2,358.19,300.35,357.12,298.57,356.02z"/>
			<path style="fill:#FFEEC8;" d="M503.93,482.56c19.99,17.091,65.88,67.49,40.86,96.761c-16.87,19.729-34.81,33.47-52.56,36.67
				l-0.011-0.061c-17.93-15.29-38.54-54.64-39.58-78.08c-0.62-13.869,10.96-18.239,19.45-28.17c9.43-11.04,29.9-26.149,31.78-27.17
				C503.89,482.53,503.91,482.54,503.93,482.56z"/>
			<path style="fill:#FFFFC2;" d="M256.61,256v100.5l41.96-0.48c1.78,1.1,3.63,2.17,5.57,3.21c20.13,10.8,109.55,64.17,162.41,97.91
				L466,458l1.52,18.35H96.47V98.49h371.57v271.28l-1.35,3.04C406.67,346,315.59,305.38,315.59,305.38s-4.79-3.03-11.17-5.87
				l5.57-0.57V256v-56.5h-53.38V256z"/>
			<path style="fill:#FFEEC8;" d="M352.3,572.83c1.22,4.68,2.7,11.35,0.65,15.45c-3.1,6.239-8.3,38.59-41.1,20.22l-0.05,0.09
				c-10.04-6.229-18.47-12-23.84-16.6c-17.84-15.26,2.29-51.8,41.01-37.84c1.7,0.609,3.95,1.47,6.68,2.54
				C342.46,560.94,351.37,569.27,352.3,572.83z"/>
			<path style="fill:#F6CC4B;" d="M309.99,256v42.94l-5.57,0.57c-10.8-4.8-26.18-9.06-30.69,2.8c-7.6,19.91,1.75,39.39,24.84,53.71
				l-41.96,0.48V256H306H309.99z"/>
			<polygon style="fill:#ED1D31;" points="309.99,199.5 309.99,256 306,256 256.61,256 256.61,199.5 			"/>
		</g>
		<g>
			<path style="fill:none;stroke:#231F20;stroke-width:21;" d="M754.97,549.62c0,0-0.66-1.33-2.149-4.14
				c-2.521-4.761-7.44-13.771-15.66-27.78c-13.05-22.3-22.32-42.9-42.51-41.33c-9.95,0.79-15.631-0.93-25.69-13.32
				c-24.7-30.39-65.32-27.439-85.21-33.34c-29.05-8.6-65.58-33.86-65.58-33.86c-0.28-0.16-22.18-9.96-51.479-23.04
				C406.67,346,315.59,305.38,315.59,305.38s-4.79-3.03-11.17-5.87c-10.8-4.8-26.18-9.06-30.69,2.8
				c-7.6,19.91,1.75,39.39,24.84,53.71c1.78,1.1,3.63,2.17,5.57,3.21c20.13,10.8,109.55,64.17,162.41,97.91
				c18.25,11.65,32.141,20.96,37.32,25.37c0.02,0.021,0.04,0.03,0.06,0.05c19.99,17.091,65.88,67.49,40.86,96.761
				c-16.87,19.729-34.81,33.47-52.56,36.67c-8.57,1.54-17.11,0.62-25.45-3.29c-23.351-10.95-102.7-44.851-131.13-56.01
				c-2.73-1.07-4.98-1.931-6.68-2.54c-38.72-13.96-58.85,22.58-41.01,37.84c5.37,4.6,13.8,10.37,23.84,16.6
				c10.66,6.63,23.14,13.811,35.69,20.73c24.36,13.43,64.32,38.96,96.22,55.12c0,0,55.54,38.68,76.54,51.68
				c21,13.03,67.6,17.26,67.6,17.26"/>
			<path style="fill:none;stroke:#231F20;stroke-width:21;" d="M503.93,482.56c0.13-0.13,0.11-0.149-0.06-0.05
				c-1.88,1.021-22.351,16.13-31.78,27.17c-8.49,9.931-20.07,14.301-19.45,28.17c1.04,23.44,21.65,62.79,39.58,78.08"/>
			<path style="fill:none;stroke:#231F20;stroke-width:21;" d="M490.86,554.2c18.149-20.61,52.59,7.939,53.71,22.479"/>
			<path style="fill:none;stroke:#231F20;stroke-width:21;" d="M328.97,554.15c1.37-0.29,3.84,0.77,6.68,2.54
				c6.81,4.25,15.72,12.579,16.65,16.14c1.22,4.68,2.7,11.35,0.65,15.45c-3.1,6.239-8.3,38.59-41.1,20.22"/>
			<polyline style="fill:none;stroke:#231F20;stroke-width:21;" points="468.04,369.77 468.04,98.49 96.47,98.49 96.47,476.35 
				467.52,476.35 466,458 			"/>
			<polyline style="fill:none;stroke:#231F20;stroke-width:21;" points="300,356 298.57,356.02 256.61,356.5 256.61,256 
				256.61,199.5 309.99,199.5 309.99,256 309.99,298.94 			"/>
			<polyline style="fill:none;stroke:#231F20;stroke-width:14;" points="256,256 256.61,256 306,256 			"/>
		</g>
	</g>
</g>
<rect style="fill:none;" width="850.394" height="850.394"/>
</svg>
