<svg xmlns="http://www.w3.org/2000/svg" width="850.394" height="850.394" viewBox="0 0 850.394 850.394" overflow="visible"><path d="M691.78 245.42v240.94h-2.3c0-2.681-.4-5.091-1.381-7.12-20.54-42.57-22.6-24.79-22.6-24.79s5.02 52.85-10.85 34.78c-15.841-18.061 1.31-40.7-29.601-54.801-30.899-14.12-16.59.25-16.59.25s21.9 7.7 20.85 23.771c-1.029 16.069-9.359 20.01-10.17 32.51-.58 8.83-28.47-68.26-58.25-70.19-20.979-1.37-23.3-14.06-27.58-23.77-4.31-9.69-5.569 9.51-6.02 16.65-.47 7.14 2.03 53.541 29.47 71.47l4.21 3.899c13.261 8.961 25.55 14.2 21.15 13.9-12.49-.8-17.48 6.94-33.54 5.89-16.09-1.04-20.88-23.77-20.88-23.77s-12.41-16.03-2.4 16.43c9.98 32.471 34.65 18.391 50.51 36.471 15.851 18.05-27.81 14.1-27.81 14.1s-15-6.78 15.76 29.13c15.99 18.69 58.51 4.34 77.07 22.9v.729H179.36c-13.68 0-24.76-11.17-24.76-24.95V245.42c0-13.78 11.08-24.95 24.76-24.95h487.65c13.69 0 24.77 11.17 24.77 24.95zM221.8 338.49c-2.13-.6-6.77 1.56-5.67 2.04l-.02.03c-.34-.18-1.84-.87-3.24.38-1.31 1.18-2.97 2.6-2.28 3.65-.56-.24-1.74-.61-2.66.05-1.28.91-2.19 2.68-2.35 3.71l-.69.37c-1.87 0-3.4 2.49-2.86 4.07.32.99 1.18 2.41 1.96 3.6l.01.01c.36.54.7 1.04.98 1.42 1.9 2.63 4.17 5.52 7.15 7.08 3.14 1.66 5.46 1.94 13.29 4.3 6.61 11.32 11.95 21.89 25.64 15.29 13.88-6.71 12.4-24.97 32.61-25.17 14.62 12.63 24.86 22.71 33.19 41.02 2.38 5.21 2.77 8.53 6.81 10.35l-1.15 3.31c-8.36 15.38-21.38 26.35-32.96 38.93-10.94 11.891-14.15 19.17-16.34 38.641-1.39 12.399-6.66 42.069-9.46 50.26-.44 1.29 4.8 2.79 11.55 3.93l-.4 2.15c1.28 18.229-17.35 16.72-25.05 17.25-15.28 1.05-3.12 9.53 7.3 11.5 5.57 1.05 8-.26 13.61 1.08 3.29.79 8.8 4.13 12.67 3.09 9.43-2.54 3.52-24.03 10.17-33.13v-.19c3.58.03 6.43-.24 7.73-.91 3.45-21.58 2.76-35.09 7.35-51.729 2.72-9.84 8.36-16.71 16.77-21.67 10.58-6.23 12.29-6.97 22.3-14.37.46-.34.93-.68 1.4-1.021l3.51 1c6.43 12.4 13.64 26.511 21.17 38.141 8.6 13.28 20.26 3.25 31.74-2.47 34.21-17 19.71-9.141 42.439-19.211 3.54-1.569 3.7-4.47 2.41-7.989l.84-.32c9.851-9.95 18.511 6.46 23.421 12.41 9.739 11.82 9.569-3.01 5.109-12.63-2.38-5.15-4.859-6.351-7.03-11.7-1.26-3.14-1.439-10-4.85-12.1-6.72-4.141-15.8 6.63-26.68 6.63-6.141-.25-33.59 12.51-40.41 13.31-1.46-9.28-9.63-28.1-13.03-37.27 2.05-2.68 3.76-5.45 5.04-8.31 6.43-14.38-2.38-25.23-10.33-37.52-.02-.78-.1-1.59-.26-2.41-2.91-15.21-11.81-26.34-19.75-44.75 9.64 2.67 19.05 7.5 30.92 14.69 3.22 1.95 8.77 7.65 13.02 7.05 1.09-.16 2.13-.55 3.17-1.1.54 6.31-.35 9.21.38 12.89.19.96.7 1.9 1.4 2.85l-.45.33c2.54 3.77 3.5 8.27 2.62 12.8 2.64 1.32 4.59-2.38 5.07-4.88 3.05 4.09 3.98 6.99 4.91 7.64.97.69 2.28.23 2.53-.83l.199.07c.91.13 2.61-.19 3.7-1.04.84-.65.771-1.83.7-2.31.75.96 2.29-.08 3.64-.9.94-.58 1.16-1.41 1.181-2 .63-1.08 1.5-3.23 1.52-4.49.09-6.07-3.96-18.09-4.25-18.65-1.38-2.64-6.55-6.45-8.83-8.5-10.41-16.44-22.69-29.49-50.94-41.04-30.91-12.63-48.27-12.56-72.47-2.04l-.39-.27c3.61-5.45 5.79-12.46 5.79-20.1 0-17.4-11.29-31.5-25.2-31.5-13.92 0-25.21 14.1-25.21 31.5 0 15.08 8.48 27.69 19.8 30.78l-.05.19c-11.12-1.11-21.64 22.12-25.45 30.11-3.73 7.88-4.42 12.44-12.68 10.15a5.36 5.36 0 0 0-.3-1.11l-.12.04c-1.88-3.51-2.01-6.67-4.66-9.25-.34-.34-1.83-1.72-4.81-3.16-.82-.66-2.56-1.33-4.23-1.68-.01-.01-.02-.01-.03-.01-.379-.132-.769-.242-1.179-.362z" fill="#fff"/><path d="M387.8 425.61c-9.63 12.65-26.52 23.4-38.64 32.2-.47.341-.94.681-1.4 1.021-10.01 7.4-11.72 8.14-22.3 14.37-8.41 4.96-14.05 11.83-16.77 21.67-4.59 16.64-3.9 30.149-7.35 51.729-1.3.67-4.15.94-7.73.91-5.38-.05-12.41-.76-18.3-1.75-6.75-1.14-11.99-2.64-11.55-3.93 2.8-8.19 8.07-37.86 9.46-50.26 2.19-19.471 5.4-26.75 16.34-38.641 11.58-12.58 24.6-23.55 32.96-38.93l1.15-3.31c.75.34 1.63.62 2.66.86 8.13 1.84 17.85-3.09 25.07-5.25 12.61-3.75 31.46-13.01 31.11-26.52 7.95 12.29 16.76 23.14 10.33 37.52-1.28 2.861-2.99 5.631-5.04 8.311z" fill="#2c308c"/><path d="M441.24 449.57c1.89 5.569 7.229 12.35 9.189 17.71 1.29 3.52 1.13 6.42-2.41 7.989-22.729 10.07-8.229 2.211-42.439 19.211-11.48 5.72-23.14 15.75-31.74 2.47-7.53-11.63-14.74-25.74-21.17-38.141l-3.51-1c12.12-8.8 29.01-19.55 38.64-32.2 3.4 9.17 11.57 27.99 13.03 37.27 6.82-.799 34.27-13.559 40.41-13.309z" fill="#2c308c"/><path d="M293.61 547.51v.19c-6.65 9.1-.74 30.59-10.17 33.13-3.87 1.04-9.38-2.3-12.67-3.09-5.61-1.34-8.04-.03-13.61-1.08-10.42-1.97-22.58-10.45-7.3-11.5 7.7-.53 26.33.979 25.05-17.25l.4-2.15c5.89.99 12.92 1.7 18.3 1.75zM479.8 466.74c4.46 9.62 4.63 24.45-5.109 12.63-4.91-5.95-13.57-22.36-23.421-12.41l-.84.32c-1.96-5.36-7.3-12.141-9.189-17.71 10.88 0 19.96-10.771 26.68-6.63 3.41 2.1 3.59 8.96 4.85 12.1 2.169 5.35 4.649 6.55 7.029 11.7z" fill="#231f20"/><path d="M416.77 374.93c.7.81 1.31 1.58 1.86 2.32-.48 2.5-2.43 6.2-5.07 4.88.88-4.53-.08-9.03-2.62-12.8l.45-.33c1.38 1.86 3.51 3.76 5.38 5.93z" fill="#ffeec8"/><path d="M429.97 383.09c-1.09.85-2.79 1.17-3.7 1.04l-.199-.07c-.25 1.06-1.561 1.52-2.53.83-.93-.65-1.86-3.55-4.91-7.64-.55-.74-1.16-1.51-1.86-2.32-1.87-2.17-4-4.07-5.38-5.93-.7-.95-1.21-1.89-1.4-2.85-.73-3.68.16-6.58-.38-12.89 3.7-1.91 7.49-5.65 14.32-7.02 2.28 2.05 7.45 5.86 8.83 8.5.29.56 4.34 12.58 4.25 18.65-.02 1.26-.89 3.41-1.52 4.49-.021.59-.24 1.42-1.181 2-1.35.82-2.89 1.86-3.64.9.07.48.14 1.66-.7 2.31zM221.36 345.24c.29.22.6.37.92.48.47.98.6 2.04.13 3.14-1.42 3.28-4.19 2.13-4.89 1.58-.01-.01-.02-.02-.03-.02-.17-.18-.35-.34-.54-.47-1.93-1.38-3.45-3.72-5.6-4.76-.37-.18-.61-.38-.75-.6h-.01c-.69-1.05.97-2.47 2.28-3.65 1.4-1.25 2.9-.56 3.24-.38l.02-.03c.74.33 2.09 1.05 3.37 2.04.37 1.09.98 2.01 1.86 2.67z" fill="#ffeec8"/><path d="M216.95 354.79c-2.09.86-3.35.51-4.67-.49-1.09-.82-2.22-2.11-3.88-3.53-1.77-1.31-2.03-2.03-3.49-2.05h-.02l.69-.37c.16-1.03 1.07-2.8 2.35-3.71.92-.66 2.1-.29 2.66-.05h.01c.14.22.38.42.75.6 2.15 1.04 3.67 3.38 5.6 4.76.19.13.37.29.54.47.01 0 .02.01.03.02 1.27 1.26 1.95 3.32-.57 4.35z" fill="#ffeec8"/><path d="M216.95 354.79c-2.09.86-3.35.51-4.67-.49-1.09-.82-2.22-2.11-3.88-3.53-1.77-1.31-2.03-2.03-3.49-2.05h-.02l.69-.37c.16-1.03 1.07-2.8 2.35-3.71.92-.66 2.1-.29 2.66-.05h.01c.14.22.38.42.75.6 2.15 1.04 3.67 3.38 5.6 4.76.19.13.37.29.54.47.01 0 .02.01.03.02 1.27 1.26 1.95 3.32-.57 4.35z" fill="#ffeec8"/><path d="M221.36 345.24c.29.22.6.37.92.48.47.98.6 2.04.13 3.14-1.42 3.28-4.19 2.13-4.89 1.58-.01-.01-.02-.02-.03-.02-.17-.18-.35-.34-.54-.47-1.93-1.38-3.45-3.72-5.6-4.76-.37-.18-.61-.38-.75-.6h-.01c-.69-1.05.97-2.47 2.28-3.65 1.4-1.25 2.9-.56 3.24-.38l.02-.03c.74.33 2.09 1.05 3.37 2.04.37 1.09.98 2.01 1.86 2.67z" fill="#ffeec8"/><path d="M222.41 348.86c.47-1.1.34-2.16-.13-3.14-.56-1.2-1.64-2.28-2.78-3.15-.33-.91-.48-1.95-.48-3.07 0-1.04 1.92-1.08 3.96-.65.01 0 .02 0 .03.01 1.65.53 3.06 1.11 4.23 1.68 2.98 1.44 4.47 2.82 4.81 3.16 2.65 2.58 2.78 5.74 4.66 9.25l.12-.04c.14.36.24.73.3 1.11 1.09 5.88-5.56 13.99-12 14.68.1.17.2.33.29.5-7.83-2.36-10.15-2.64-13.29-4.3-2.98-1.56-5.25-4.45-7.15-7.08a39.4 39.4 0 0 1-.98-1.42c1.07 1.06 4.66 3.54 6.99 2.07 1.47-.92 2.01-2.5 1.29-4.17 1.32 1 2.58 1.35 4.67.49 2.52-1.03 1.84-3.09.57-4.35.7.55 3.47 1.7 4.89-1.58zM305.92 282.79c0 7.64-2.18 14.65-5.79 20.1-4.63 6.97-11.61 11.41-19.41 11.41-1.86 0-3.67-.25-5.41-.73-11.32-3.09-19.8-15.7-19.8-30.78 0-17.4 11.29-31.5 25.21-31.5 13.91 0 25.2 14.1 25.2 31.5z" fill="#ffeec8"/><path d="M762.57 197.78v462.35c0 13.67-11.08 24.76-24.761 24.76H112.27c-13.67 0-24.75-11.09-24.75-24.76V197.78c0-13.68 11.08-24.76 24.75-24.76h625.54c13.68 0 24.76 11.08 24.76 24.76zm-70.79 382.07V245.42c0-13.78-11.08-24.95-24.771-24.95H179.36c-13.68 0-24.76 11.17-24.76 24.95v334.43c0 13.78 11.08 24.95 24.76 24.95H667.01c13.69 0 24.77-11.17 24.77-24.95zm-8 64.98c0-9.24-7.5-16.74-16.75-16.74-9.24 0-16.74 7.5-16.74 16.74s7.5 16.74 16.74 16.74c9.25 0 16.75-7.5 16.75-16.74zm-58.24 18.92v-37.84h-77.15v37.84h77.15z" fill="#c8c8c8"/><path d="M691.78 540.74v39.109c0 13.78-11.08 24.95-24.771 24.95h-26.18v-.729c-18.561-18.561-61.08-4.21-77.07-22.9C533 545.26 548 552.04 548 552.04s43.66 3.95 27.81-14.1c-15.859-18.08-40.529-4-50.51-36.471-10.01-32.46 2.4-16.43 2.4-16.43s4.79 22.729 20.88 23.77c16.06 1.051 21.05-6.689 33.54-5.89 4.399.3-7.89-4.939-21.15-13.9l-4.21-3.899c-27.439-17.93-29.939-64.33-29.47-71.47.45-7.14 1.71-26.34 6.02-16.65 4.28 9.71 6.601 22.4 27.58 23.77 29.78 1.93 57.67 79.02 58.25 70.19.811-12.5 9.141-16.44 10.17-32.51 1.051-16.07-20.85-23.771-20.85-23.771s-14.31-14.37 16.59-.25c30.91 14.101 13.76 36.74 29.601 54.801 15.869 18.069 10.85-34.78 10.85-34.78s2.06-17.78 22.6 24.79c.98 2.029 1.381 4.439 1.381 7.12 0 15.899-14.011 41.3-2.801 54.38h5.099z" fill="#ef3d27"/><path d="M409.61 353.26c-1.04.55-2.08.94-3.17 1.1-4.25.6-9.8-5.1-13.02-7.05-11.87-7.19-21.28-12.02-30.92-14.69 7.94 18.41 16.84 29.54 19.75 44.75.16.82.24 1.63.26 2.41.35 13.51-18.5 22.77-31.11 26.52-7.22 2.16-16.94 7.09-25.07 5.25-1.03-.24-1.91-.52-2.66-.86-4.04-1.82-4.43-5.14-6.81-10.35-8.33-18.31-18.57-28.39-33.19-41.02-20.21.2-18.73 18.46-32.61 25.17-13.69 6.6-19.03-3.97-25.64-15.29-.09-.17-.19-.33-.29-.5 6.44-.69 13.09-8.8 12-14.68 8.26 2.29 8.95-2.27 12.68-10.15 3.81-7.99 14.33-31.22 25.45-30.11l.05-.19c1.74.48 3.55.73 5.41.73 7.8 0 14.78-4.44 19.41-11.41l.39.27c24.2-10.52 41.56-10.59 72.47 2.04 28.25 11.55 40.53 24.6 50.94 41.04-6.83 1.37-10.62 5.11-14.32 7.02z" fill="#ed1d31"/><path d="M667.03 628.09c9.25 0 16.75 7.5 16.75 16.74s-7.5 16.74-16.75 16.74c-9.24 0-16.74-7.5-16.74-16.74s7.5-16.74 16.74-16.74zM548.39 625.91h77.15v37.84h-77.15z" fill="#231f20"/><g fill="none" stroke="#231f20"><path d="M762.57 660.13c0 13.67-11.08 24.76-24.761 24.76H112.27c-13.67 0-24.75-11.09-24.75-24.76V197.78c0-13.68 11.08-24.76 24.75-24.76h625.54c13.681 0 24.761 11.08 24.761 24.76v462.35z" stroke-width="21"/><path d="M691.78 540.74v39.109c0 13.78-11.08 24.95-24.771 24.95H179.36c-13.68 0-24.76-11.17-24.76-24.95V245.42c0-13.78 11.08-24.95 24.76-24.95h487.65c13.69 0 24.771 11.17 24.771 24.95v295.32z" stroke-width="14"/><path d="M275.31 313.57c-11.32-3.09-19.8-15.7-19.8-30.78 0-17.4 11.29-31.5 25.21-31.5 13.91 0 25.2 14.1 25.2 31.5 0 7.64-2.18 14.65-5.79 20.1-4.63 6.97-11.61 11.41-19.41 11.41-1.86 0-3.67-.25-5.41-.73zM275.26 313.76c-11.12-1.11-21.64 22.12-25.45 30.11-3.73 7.88-4.42 12.44-12.68 10.15-.47-.12-.96-.28-1.48-.45M224.54 367.7c.2.33.4.67.59 1 .1.17.2.33.29.5 6.61 11.32 11.95 21.89 25.64 15.29 13.88-6.71 12.4-24.97 32.61-25.17h.65" stroke-width="14"/><path d="M281.37 357.35c.78.67 1.55 1.33 2.3 1.97 14.62 12.63 24.86 22.71 33.19 41.02 2.38 5.21 2.77 8.53 6.81 10.35.75.34 1.63.62 2.66.86 8.13 1.84 17.85-3.09 25.07-5.25 12.61-3.75 31.46-13.01 31.11-26.52-.02-.78-.1-1.59-.26-2.41-2.91-15.21-11.81-26.34-19.75-44.75-.02-.04-.03-.07-.05-.11" stroke-width="14"/><path d="M300.52 303.16c24.2-10.52 41.56-10.59 72.47 2.04 28.25 11.55 40.53 24.6 50.94 41.04-6.83 1.37-10.62 5.11-14.32 7.02-1.04.55-2.08.94-3.17 1.1-4.25.6-9.8-5.1-13.02-7.05-11.87-7.19-21.28-12.02-30.92-14.69-3.29-.92-6.61-1.58-10.06-2M322.52 414c-8.36 15.38-21.38 26.35-32.96 38.93-10.94 11.891-14.15 19.17-16.34 38.641-1.39 12.399-6.66 42.069-9.46 50.26-.44 1.29 4.8 2.79 11.55 3.93 5.89.99 12.92 1.7 18.3 1.75 3.58.03 6.43-.24 7.73-.91 3.45-21.58 2.76-35.09 7.35-51.729 2.72-9.84 8.36-16.71 16.77-21.67 10.58-6.23 12.29-6.97 22.3-14.37.46-.34.93-.68 1.4-1.021 12.12-8.8 29.01-19.55 38.64-32.2 2.05-2.68 3.76-5.45 5.04-8.31 6.43-14.38-2.38-25.23-10.33-37.52-.01 0-.01-.01-.01-.01" stroke-width="14"/><path d="M352.67 458.81c6.43 12.4 13.64 26.511 21.17 38.141 8.6 13.28 20.26 3.25 31.74-2.47 34.21-17 19.71-9.141 42.439-19.211 3.54-1.569 3.7-4.47 2.41-7.989-1.96-5.36-7.3-12.141-9.189-17.71-6.141-.25-33.59 12.51-40.41 13.31-1.46-9.28-9.63-28.1-13.03-37.27-.03-.07-.05-.14-.08-.21M441.24 449.57c10.88 0 19.96-10.771 26.68-6.63 3.41 2.1 3.59 8.96 4.85 12.1 2.171 5.35 4.65 6.55 7.03 11.7 4.46 9.62 4.63 24.45-5.109 12.63-4.91-5.95-13.57-22.36-23.421-12.41M293.61 547.7c-6.65 9.1-.74 30.59-10.17 33.13-3.87 1.04-9.38-2.3-12.67-3.09-5.61-1.34-8.04-.03-13.61-1.08-10.42-1.97-22.58-10.45-7.3-11.5 7.7-.53 26.33.979 25.05-17.25M271.18 332.51c2.39 6.62 7.6 20.4 13.12 26.81.92 1.07 1.84 1.93 2.76 2.52" stroke-width="14"/><path d="M222.98 338.85c-.38-.13-.77-.24-1.18-.36-2.13-.6-6.77 1.56-5.67 2.04.74.33 2.09 1.05 3.37 2.04 1.14.87 2.22 1.95 2.78 3.15.47.98.6 2.04.13 3.14-1.42 3.28-4.19 2.13-4.89 1.58M236.71 352.95c-1.88-3.51-2.01-6.67-4.66-9.25-.34-.34-1.83-1.72-4.81-3.16-1.17-.57-2.58-1.15-4.23-1.68" stroke-width="7"/><path d="M210.6 344.59c.14.22.38.42.75.6 2.15 1.04 3.67 3.38 5.6 4.76.19.13.37.29.54.47.01 0 .02.01.03.02 1.27 1.26 1.95 3.32-.57 4.35-2.09.86-3.35.51-4.67-.49-1.09-.82-2.22-2.11-3.88-3.53M216.18 340.6s-.02-.02-.07-.04c-.34-.18-1.84-.87-3.24.38-1.31 1.18-2.97 2.6-2.28 3.65" stroke-width="8.735"/><path d="M210.91 344.74s-.12-.07-.31-.15h-.01c-.56-.24-1.74-.61-2.66.05-1.28.91-2.19 2.68-2.35 3.71" stroke-width="7"/><path d="M203.99 356.39c-.78-1.19-1.64-2.61-1.96-3.6-.54-1.58.99-4.07 2.86-4.07h.02c1.46.02 1.72.74 3.49 2.05.59.44 1.35.95 2.38 1.52M229.83 370.57c-1.64-.52-3.1-.98-4.41-1.37-7.83-2.36-10.15-2.64-13.29-4.3-2.98-1.56-5.25-4.45-7.15-7.08a39.4 39.4 0 0 1-.98-1.42" stroke-width="8.735"/><path d="M210.17 351.74c1.06.83 1.74 1.71 2.11 2.56.72 1.67.18 3.25-1.29 4.17-2.33 1.47-5.92-1.01-6.99-2.07l-.01-.01" stroke-width="7"/><path d="M423.93 346.24c2.28 2.05 7.45 5.86 8.83 8.5.29.56 4.34 12.58 4.25 18.65-.02 1.26-.89 3.41-1.52 4.49-.37.59-.65.87-.7.5-.15-1.16.16-1.45-1.39-7.63-.46-1.87-3.591-7.1-3.591-7.1M430.67 380.77a1.95 1.95 0 0 1-.3-.69c-.58-2.31-.61-3.74-2.83-8.12-1.38-2.74-3.51-7.08-3.51-7.08" stroke-width="7" stroke-miterlimit="10"/><path d="M435.43 377.18s.08.29.061.7c-.021.59-.24 1.42-1.181 2-1.35.82-2.89 1.86-3.64.9" stroke-width="7" stroke-miterlimit="10"/><path d="M430.63 380.56s.021.08.04.21v.01c.07.48.14 1.66-.7 2.31-1.09.85-2.79 1.17-3.7 1.04M409.5 352.09c.04.4.08.79.11 1.17.54 6.31-.35 9.21.38 12.89.19.96.7 1.9 1.4 2.85 1.38 1.86 3.51 3.76 5.38 5.93.7.81 1.31 1.58 1.86 2.32 3.05 4.09 3.98 6.99 4.91 7.64.97.69 2.28.23 2.53-.83.06-.24.06-.52-.021-.82-.45-1.86.061-2.16-2.74-7.55-.88-1.71-1.51-4.15-5.93-9.43" stroke-width="7" stroke-miterlimit="10"/><path d="M224.33 368.76c.27 0 .53-.02.8-.06 6.44-.69 13.09-8.8 12-14.68a5.36 5.36 0 0 0-.3-1.11c-.08-.2-.17-.4-.27-.6" stroke-width="8.735" stroke-miterlimit="10"/><path d="M410.54 368.76c.14.19.27.38.4.57 2.54 3.77 3.5 8.27 2.62 12.8 2.64 1.32 4.59-2.38 5.07-4.88.02-.12.04-.23.06-.34M227.27 340.56c-.01-.01-.02-.01-.03-.02-.82-.66-2.56-1.33-4.23-1.68-.01-.01-.02-.01-.03-.01-2.04-.43-3.96-.39-3.96.65 0 1.12.15 2.16.48 3.07.37 1.09.98 2.01 1.86 2.67.29.22.6.37.92.48 2.1.73 4.56-.44 4.56 1.53 0 6.85 1.94 8.04 4.01 10.1" stroke-width="7"/><path d="M640.83 604.07c-18.561-18.561-61.08-4.21-77.07-22.9C533 545.26 548 552.04 548 552.04s43.66 3.95 27.81-14.1c-15.859-18.08-40.529-4-50.51-36.471-10.01-32.46 2.4-16.43 2.4-16.43s4.79 22.729 20.88 23.77c16.06 1.051 21.05-6.689 33.54-5.89 4.399.3-7.89-4.939-21.15-13.9l-4.21-3.899c-27.439-17.93-29.939-64.33-29.47-71.47.45-7.14 1.71-26.34 6.02-16.65 4.28 9.71 6.601 22.4 27.58 23.77 29.78 1.93 57.67 79.02 58.25 70.19.811-12.5 9.141-16.44 10.17-32.51 1.051-16.07-20.85-23.771-20.85-23.771s-14.31-14.37 16.59-.25c30.91 14.101 13.76 36.74 29.601 54.801 15.869 18.069 10.85-34.78 10.85-34.78s2.06-17.78 22.6 24.79c.98 2.029 1.381 4.439 1.381 7.12 0 15.899-14.011 41.3-2.801 54.38" stroke-width="14"/></g><path fill="none" d="M0 0h850.394v850.394H0z"/></svg>