<?xml version="1.0" encoding="iso-8859-1"?>
<!-- Generator: Adobe Illustrator 12.0.1, SVG Export Plug-In . SVG Version: 6.00 Build 51448)  -->
<!DOCTYPE svg PUBLIC "-//W3C//DTD SVG 1.1//EN" "http://www.w3.org/Graphics/SVG/1.1/DTD/svg11.dtd" [
	<!ENTITY ns_svg "http://www.w3.org/2000/svg">
	<!ENTITY ns_xlink "http://www.w3.org/1999/xlink">
]>
<svg  version="1.1" id="Layer_1" xmlns="&ns_svg;" xmlns:xlink="&ns_xlink;" width="850.394" height="850.394"
	 viewBox="0 0 850.394 850.394" style="overflow:visible;enable-background:new 0 0 850.394 850.394;" xml:space="preserve">
<g id="XMLID_1_">
	<g>
		<polygon style="fill:#50264B;" points="262.102,263.018 181.312,295.533 149.248,252.236 276.495,190.369 348.838,190.369 
			348.838,706.807 262.102,706.807 		"/>
	</g>
	<g>
	</g>
</g>
<rect style="fill:none;" width="850.394" height="850.394"/>
<g id="XMLID_2_">
	<g>
		<path style="fill:#50264B;" d="M700.299,620.382v80.729H397.177v-26.504l146.602-238.272
			c29.274-47.674,43.923-87.794,43.923-120.359c0-38.604-20.977-57.903-62.924-57.903c-32.053,0-57.873,18.697-77.483,56.09
			l-55.265-48.061c10.949-24.372,28.16-44.636,51.64-60.762c23.48-16.142,49.435-24.201,77.87-24.201
			c47.369,0,84.436,11.908,111.177,35.729c26.749,23.822,40.12,56.877,40.12,99.181c0,38.805-17.167,87.14-51.478,145.012
			l-94.761,159.319H700.299z"/>
	</g>
	<g>
		<path style="fill:none;stroke:#000000;stroke-width:0.3752;stroke-linecap:round;stroke-linejoin:round;" d="M397.177,701.111
			v-26.504l146.602-238.272c29.274-47.674,43.923-87.794,43.923-120.359c0-38.604-20.977-57.903-62.924-57.903
			c-32.053,0-57.873,18.697-77.483,56.09l-55.265-48.061c10.949-24.372,28.16-44.636,51.64-60.762
			c23.48-16.142,49.435-24.201,77.87-24.201c47.369,0,84.436,11.908,111.177,35.729c26.749,23.822,40.12,56.877,40.12,99.181
			c0,38.805-17.167,87.14-51.478,145.012l-94.761,159.319h173.7v80.729H397.177z"/>
	</g>
</g>
</svg>
