<svg xmlns="http://www.w3.org/2000/svg" width="850.394" height="850.394" viewBox="0 0 850.394 850.394" overflow="visible"><path d="M281.05 436.78c0-6.87-6.31-12.44-14.14-12.44-7.81 0-14.14 5.57-14.14 12.44 0 6.88 6.33 12.439 14.14 12.439 7.83.001 14.14-5.559 14.14-12.439zm-14.92-16.34c8.59.2 17.34 3 24.84 7.64l-1.15 1.91c1.44 2.859.52 2.56.52 5.95 0 12.239-10.39 22.17-23.21 22.17s-23.22-9.931-23.22-22.17c0-4.601-.44-5.78 2.07-9.32l-.83-2.02c6.5-2.78 13.51-4.32 20.98-4.16zM479.75 430.28c0-6.87-6.33-12.44-14.15-12.44-7.819 0-14.13 5.57-14.13 12.44 0 6.88 6.311 12.439 14.13 12.439 7.82.001 14.15-5.559 14.15-12.439zm-13.37-16.34c7.47-.16 14.49 1.37 20.99 4.15l-.83 2.03c2.5 3.54 2.07 4.72 2.07 9.32 0 12.229-10.4 22.17-23.23 22.17-12.82 0-23.21-9.94-23.21-22.17 0-3.21-.81-3.11.3-5.51l-3.359-.75c.8-.56 1.609-1.1 2.439-1.61 7.5-4.64 16.25-7.43 24.83-7.63z" fill="#c8c8c8"/><path d="M290.99 428.09c6.62 4.11 12.25 9.66 15.91 16.15 2.23 3.939 5.18 6.67 1.29 9.069-3.31 2.061-7.31.61-10.86 2.25-2.38 1.12-4.56 3.86-7.1 5.021-3.02 1.4-7.06 2.21-10.34 2.89-7.72 1.59-17.88 1.12-25.27-1.51-12.19-4.34-22.76-11.9-31.91-20.37l-.49-.479c6.62-6.98 14.31-12.83 22.92-16.51h.01l.83 2.02c-2.51 3.54-2.07 4.72-2.07 9.32 0 12.239 10.4 22.17 23.22 22.17 12.82 0 23.21-9.931 23.21-22.17 0-3.391.92-3.091-.52-5.95l1.15-1.91c.01-.001.01.009.02.009zM487.38 418.09c8.61 3.69 16.3 9.54 22.92 16.521l-.49.479c-9.159 8.47-19.72 16.03-31.92 20.37-7.38 2.63-17.54 3.09-25.27 1.51-3.271-.68-7.311-1.489-10.33-2.89-2.55-1.17-4.73-3.91-7.11-5.03-3.55-1.64-7.54-.18-10.85-2.24-3.89-2.399-.94-5.14 1.28-9.079 3.21-5.681 7.93-10.65 13.5-14.55l3.359.75c-1.109 2.4-.3 2.3-.3 5.51 0 12.229 10.39 22.17 23.21 22.17 12.83 0 23.23-9.94 23.23-22.17 0-4.601.43-5.78-2.07-9.32l.83-2.03h.011z" fill="#fff"/><path d="M434.7 224.21c-.16.11-.32.22-.47.34-48.8 34.65-55.351 88.06-120.561 111.96 0 0 20.72-65.41 4.36-92.68l-83.39 94.41c-26.73 21.73-42.84 71.16-41.99 105.84.82 33.95 12.12 46.16 12.12 97.27 0 17.54 5.41 35.91 13.18 53.29.1.21.19.431.29.641l-1.61.729c-9.81 18.54-51.24 49.07-51.24 49.07 5.67-75.43-27.17-192.01-30.79-211.92-15.01-82.47 14.4-181.14 55.32-244.39 62.2-96.16 157.55-132.56 307.94-115.03C609.56 86.76 711.64 222.02 711.64 376.85c0 54.26-21.39 114.24-15.26 168.33 1.75 15.54 7.311 55.83 16.351 84.63 0 0-81.771-21.81-92.681-50.149l-2.109-.13c5.29-20.8 26.149-100.891-2.24-174.32 0 0-21.09-59.26-41.42-93.34a85 85 0 0 0-.971-1.6c-.649-1.05-1.3-2.11-1.97-3.15-.21-.33-.42-.66-.63-.98-6.55-10-12.88-16.83-18.26-17.6-22.891-3.27-54.51 112.3-54.51 112.3-55.221-55.79-62.5-162.6-63.181-175.37l-.059-1.261z" fill="#9c5c25"/><path d="M612.42 603.65c-.32 19.8 37.6 107.239 46.24 126.899L349.65 781.36c0-15.591-1.21-36.841-12.93-48.69 34.07 28.4 83.75 14.021 123.24 9.2 52.76-6.44 73.17-62.53 109.88-94.32 15.51-13.43 32.09-27.27 41-44.649l1.58.749z" fill="#ffeec8"/><path d="M509.81 435.09l.49-.479c-6.62-6.98-14.31-12.831-22.92-16.521h-.01c-6.5-2.78-13.521-4.31-20.99-4.15-8.58.2-17.33 2.99-24.83 7.63-.83.51-1.64 1.05-2.439 1.61-5.57 3.9-10.29 8.87-13.5 14.55-2.22 3.939-5.17 6.68-1.28 9.079 3.31 2.061 7.3.601 10.85 2.24 2.38 1.12 4.561 3.86 7.11 5.03 3.02 1.4 7.06 2.21 10.33 2.89 7.729 1.58 17.89 1.12 25.27-1.51 12.199-4.339 22.759-11.899 31.919-20.369zm-317.16 8.99c-.85-34.68 15.26-84.11 41.99-105.84l83.39-94.41c16.36 27.27-4.36 92.68-4.36 92.68 65.21-23.9 71.76-77.31 120.561-111.96.159.33.329.64.529.92.681 12.77 7.96 119.58 63.181 175.37 0 0 31.619-115.57 54.51-112.3 5.38.77 11.71 7.6 18.26 17.6.21.32.42.65.63.98.67 1.04 1.32 2.1 1.97 3.15.33.53.65 1.06.971 1.6 20.33 34.08 41.42 93.34 41.42 93.34 28.39 73.43 7.53 153.521 2.24 174.32-.601 2.37-1 3.96-1.101 4.7-.93 6.689-3.04 12.88-6 18.67-8.91 17.38-25.49 31.22-41 44.649-36.71 31.79-57.12 87.88-109.88 94.32-39.49 4.82-89.17 19.2-123.24-9.2a29.037 29.037 0 0 0-4.33-3.6c-20.46-16.7-44.9-32.59-61.27-53.2-7.5-9.44-35.75-42.62-52.88-80.59-.1-.21-.19-.431-.29-.641-7.77-17.38-13.18-35.75-13.18-53.29-.001-51.108-11.301-63.318-12.121-97.268zm114.25.16c-3.66-6.49-9.29-12.04-15.91-16.15-.01 0-.01-.01-.02-.01-7.5-4.64-16.25-7.44-24.84-7.64-7.47-.16-14.48 1.38-20.98 4.16h-.01c-8.61 3.68-16.3 9.53-22.92 16.51l.49.479c9.15 8.47 19.72 16.03 31.91 20.37 7.39 2.63 17.55 3.1 25.27 1.51 3.28-.68 7.32-1.489 10.34-2.89 2.54-1.16 4.72-3.9 7.1-5.021 3.55-1.64 7.55-.189 10.86-2.25 3.89-2.398.94-5.128-1.29-9.068zm199.76 158.31c0-1.2-.65-2.17-1.44-2.17-.779 0-1.43.97-1.43 2.17 0 1.21.65 2.19 1.43 2.19.79 0 1.44-.98 1.44-2.19zm-259.15-61.06c0-1.2-.65-2.181-1.44-2.181-.78 0-1.43.98-1.43 2.181 0 1.21.65 2.189 1.43 2.189.79.001 1.44-.979 1.44-2.189z" fill="#ffeec8"/><path d="M465.6 417.84c7.82 0 14.15 5.57 14.15 12.44 0 6.88-6.33 12.439-14.15 12.439-7.819 0-14.13-5.56-14.13-12.439 0-6.87 6.31-12.44 14.13-12.44zM266.91 424.34c7.83 0 14.14 5.57 14.14 12.44 0 6.88-6.31 12.439-14.14 12.439-7.81 0-14.14-5.56-14.14-12.439 0-6.87 6.33-12.44 14.14-12.44z" fill="#231f20"/><g fill="none" stroke="#231f20"><path d="M511.2 378.7c8.12 4.27 13.43 8.49 16.17 11.23M405.26 400.84c13.86-23.1 41.74-32.49 66.54-32.26M302.24 388.76c-27.35-24.38-82-19.17-102.48 8.57M331.39 432.46c21.04 15.74 21.23 66.04 17.58 93.23-1.3 9.619-6.95 19.619-6.95 19.619-8.59 12.271-8.49 28.23 2.45 33.94l4.09 1.22c19.22 20.45 32.54 14.71 43.35 6.87 11.7-8.49 10.83-14.49 28.09-13.66 2.83.141 5.71.4 8.52.57 11.631.73 21.95-.13 21.37-18.14-.5-15.42-12.09-15.23-20.37-26.07M332.21 728.95l.18.12a28.916 28.916 0 0 1 4.33 3.6c11.72 11.85 12.93 33.1 12.93 48.69" stroke-width="14"/><path d="M574.28 311.87c20.33 34.08 41.42 93.34 41.42 93.34 28.39 73.43 7.53 153.521 2.24 174.32-.601 2.37-1 3.96-1.101 4.7-.93 6.689-3.04 12.88-6 18.67-8.91 17.38-25.49 31.22-41 44.649-36.71 31.79-57.12 87.88-109.88 94.32-39.49 4.82-89.17 19.2-123.24-9.2-.13-.1-.26-.21-.39-.32-1.29-1.1-2.61-2.189-3.94-3.279-20.46-16.7-44.9-32.59-61.27-53.2-7.5-9.44-35.75-42.62-52.88-80.59-.1-.21-.19-.431-.29-.641-7.77-17.38-13.18-35.75-13.18-53.29 0-51.109-11.3-63.319-12.12-97.27-.85-34.68 15.26-84.11 41.99-105.84l83.39-94.41c16.36 27.27-4.36 92.68-4.36 92.68 65.21-23.9 71.76-77.31 120.561-111.96.149-.12.31-.23.47-.34l.06 1.26c.681 12.77 7.96 119.58 63.181 175.37 0 0 31.619-115.57 54.51-112.3 5.38.77 11.71 7.6 18.26 17.6" stroke-width="14"/><path d="M216.63 596.01c-9.81 18.54-51.24 49.07-51.24 49.07 5.67-75.43-27.17-192.01-30.79-211.92-15.01-82.47 14.4-181.14 55.32-244.39 62.2-96.16 157.55-132.56 307.94-115.03 111.7 13.02 213.78 148.28 213.78 303.11 0 54.26-21.39 114.24-15.26 168.33 1.75 15.54 7.311 55.83 16.351 84.63 0 0-81.771-21.81-92.681-50.149" stroke-width="14"/><path d="M612.42 603.65c-.32 19.8 37.6 107.239 46.24 126.899a625.28 625.28 0 0 0 1.74 3.94" stroke-width="14"/><path d="M217.96 445.9a87.006 87.006 0 0 1 4.25-4.78l.01-.01c6.62-6.98 14.31-12.83 22.92-16.51h.01c6.5-2.78 13.51-4.32 20.98-4.16 8.59.2 17.34 3 24.84 7.64.01 0 .01.01.02.01 6.62 4.11 12.25 9.66 15.91 16.15 2.23 3.939 5.18 6.67 1.29 9.069-3.31 2.061-7.31.61-10.86 2.25-2.38 1.12-4.56 3.86-7.1 5.021-3.02 1.4-7.06 2.21-10.34 2.89-7.72 1.59-17.88 1.12-25.27-1.51-12.19-4.34-22.76-11.9-31.91-20.37" stroke-width="14" stroke-linecap="square" stroke-miterlimit="10"/><path d="M289.82 429.99c1.44 2.859.52 2.56.52 5.95 0 12.239-10.39 22.17-23.21 22.17s-23.22-9.931-23.22-22.17c0-4.601-.44-5.78 2.07-9.32" stroke-width="6.542" stroke-linecap="square" stroke-miterlimit="10"/><path d="M514.55 439.4a90.716 90.716 0 0 0-4.24-4.78l-.01-.01c-6.62-6.98-14.31-12.831-22.92-16.521h-.01c-6.5-2.78-13.521-4.31-20.99-4.15-8.58.2-17.33 2.99-24.83 7.63-.83.51-1.64 1.05-2.439 1.61-5.57 3.9-10.29 8.87-13.5 14.55-2.22 3.939-5.17 6.68-1.28 9.079 3.31 2.061 7.3.601 10.85 2.24 2.38 1.12 4.561 3.86 7.11 5.03 3.02 1.4 7.06 2.21 10.33 2.89 7.729 1.58 17.89 1.12 25.27-1.51 12.2-4.34 22.761-11.9 31.92-20.37" stroke-width="14" stroke-linecap="square" stroke-miterlimit="10"/><path d="M442.69 423.49c-.08.16-.15.31-.221.44-1.109 2.4-.3 2.3-.3 5.51 0 12.229 10.39 22.17 23.21 22.17 12.83 0 23.23-9.94 23.23-22.17 0-4.601.43-5.78-2.07-9.32" stroke-width="6.542" stroke-linecap="square" stroke-miterlimit="10"/><path d="M440.76 228.09c-2.77.03-4.779-.84-6-2.62-.2-.28-.37-.59-.529-.92-.101-.21-.2-.43-.28-.66 15.99-15.58 23.819-40.23 28.62-61.22" stroke-width="14"/><path d="M334.2 645.37s58.47-23.021 121.25.38M506.66 602.55c0 1.21-.65 2.19-1.44 2.19-.779 0-1.43-.98-1.43-2.19 0-1.2.65-2.17 1.43-2.17.79 0 1.44.97 1.44 2.17zM247.51 541.49c0 1.21-.65 2.189-1.44 2.189-.78 0-1.43-.979-1.43-2.189 0-1.2.65-2.181 1.43-2.181.79.001 1.44.981 1.44 2.181z" stroke-width="19.626"/><path d="M428.29 571.89c.06.79.13 1.58.229 2.36 5.24 44.41 67.311 71.92 94.49 71.92M343.25 583.75s-13.22 38.43-57.93 68.96" stroke-width="14"/><path d="M422.16 436.83s13.09-36.53 59.97-34.9M307.67 439s-13.09-36.52-59.97-34.89" stroke-width="7"/><path d="M539.37 264.55s16.76 18.77 31.34 41.59c.21.32.42.65.63.98.67 1.04 1.32 2.1 1.97 3.15.33.53.65 1.06.971 1.6 2.72 4.5 5.3 9.13 7.609 13.74" stroke-width="14"/><path d="M229.17 461.9c1.64.819 2.45 1.64 3.27 3.27 19.63 9 49.88 11.45 67.87-4.09M505.57 456.18c-1.641.82-2.46 1.63-3.271 3.271-19.63 8.99-49.89 11.45-67.88-4.09" stroke-width="6.542"/></g><path fill="none" d="M0 0h850.394v850.394H0z"/></svg>