<svg xmlns="http://www.w3.org/2000/svg" width="850.394" height="850.394" viewBox="0 0 850.394 850.394" overflow="visible"><path fill="#f6cc4b" d="M341.88 575.32l17.31 19.45 13.45 15.12 13.74 15.43 71.23-70.22.01.01 42.61-37.94 21.7 2.99-21.6 157.29-325.58-48.26 22.26-150.15 167.83 24.88.58.73-50.43 40.47 13.42 15.08z"/><path fill="#787878" d="M418.96 511.69l-1.52 1.35-75.56 62.28-13.47-15.12 75.57-62.28 1.52-1.35z"/><path fill="#787878" d="M359.19 594.77l-17.31-19.45 75.56-62.28 1.52-1.35 12.42 13.96zM405.5 496.57l-1.52 1.35-75.57 62.28-13.42-15.08 50.43-40.47 27.57-22.12z"/><path d="M197.01 479.04l-22.26 150.15 325.58 48.26 21.6-157.29-21.699-2.99 6.93-6.18.02.01s38-32.01 38.63-42.74c.631-10.74-1.159-28.97 11.391-40.149 12.55-11.17 17.069-10.9 32.14-16.831 15.08-5.92 39.44-35.11 55.97-56.24 9.841-12.59 21.061-27.51 27.2-37.6 0 0 6.91-10.59-.12-18.5-7.029-7.9-18.149-2.57-18.149-2.57-10.73 4.94-26.851 14.34-40.51 22.66-22.9 13.97-54.721 34.79-62.341 49.07-7.62 14.3-7.89 18.81-20.449 29.99-12.53 11.17-30.46 7.29-41.19 6.67-10.71-.62-46.92 33.41-46.92 33.41l-.271.24-.06-.07-49.56 44.13.05.061-27.57 22.12-.58-.73L197.01 479.04zm513.9 171.29s.28 51.11-59.17 83.08c-53.31 28.65-171.44 45.41-219.04 45.41l-18.84.38c-47.6 0-165.71-16.76-219.02-45.41-59.45-31.97-59.17-83.08-59.17-83.08V161.84c5.85 45.48 132.5 81.81 287.88 81.81 152.22 0 276.86-34.88 287.36-79.05v485.73z" fill="#ffeec8"/><path fill="#c8c8c8" d="M431.38 525.65l-12.42-13.96-13.46-15.12-12.51-14.04-.05-.06 49.56-44.13.06.07 64.6 72.58-6.93 6.18-42.61 37.94-.01-.01-12.75-14.32zM710.91 164.6c-10.5 44.17-135.141 79.05-287.36 79.05-155.38 0-282.03-36.33-287.88-81.81-.14-1.09-.21-2.19-.21-3.29 0-47 128.98-85.09 288.09-85.09 159.101 0 288.08 38.09 288.08 85.09 0 2.03-.24 4.05-.72 6.05zm-47.5-8.73c0-29.11-108.021-52.7-241.23-52.7-133.24 0-241.23 23.59-241.23 52.7 0 29.11 107.99 52.7 241.23 52.7 133.21 0 241.23-23.59 241.23-52.7z"/><path d="M672.39 298.94c7.03 7.91.12 18.5.12 18.5-6.14 10.09-17.359 25.01-27.2 37.6-16.529 21.13-40.89 50.32-55.97 56.24-15.07 5.93-19.59 5.66-32.14 16.831-12.55 11.18-10.76 29.409-11.391 40.149-.63 10.73-38.63 42.74-38.63 42.74l-.02-.01-64.601-72.58.271-.24s36.21-34.03 46.92-33.41c10.73.62 28.66 4.5 41.19-6.67 12.56-11.18 12.829-15.69 20.449-29.99 7.62-14.28 39.44-35.1 62.341-49.07 13.659-8.32 29.779-17.72 40.51-22.66.001 0 11.121-5.33 18.151 2.57z" fill="#be0000"/><path d="M422.18 103.17c133.209 0 241.23 23.59 241.23 52.7 0 29.11-108.021 52.7-241.23 52.7-133.24 0-241.23-23.59-241.23-52.7 0-29.11 107.99-52.7 241.23-52.7z" fill="#f6cc4b"/><path fill="#787878" d="M444.86 540.78l12.75 14.32-71.23 70.22-13.74-15.43zM431.38 525.65l13.48 15.13-72.22 69.11-13.45-15.12z"/><g fill="none" stroke="#000"><path d="M135.67 161.84c-.14-1.09-.21-2.19-.21-3.29 0-47 128.98-85.09 288.09-85.09 159.101 0 288.08 38.09 288.08 85.09 0 2.03-.24 4.05-.72 6.05-10.5 44.17-135.141 79.05-287.36 79.05-155.38 0-282.03-36.33-287.88-81.81z" stroke-width="25.467"/><path d="M663.41 155.87c0 29.11-108.021 52.7-241.23 52.7-133.24 0-241.23-23.59-241.23-52.7 0-29.11 107.99-52.7 241.23-52.7 133.21 0 241.23 23.59 241.23 52.7z" stroke-width="25.467"/><path d="M710.91 160.41v489.92s.28 51.11-59.17 83.08c-53.31 28.65-171.44 45.41-219.04 45.41l-18.84.38c-47.6 0-165.71-16.76-219.02-45.41-59.45-31.97-59.17-83.08-59.17-83.08V157.99" stroke-width="25.467"/><path stroke-width="17" d="M500.23 517.17l21.7 2.99-21.6 157.29-325.58-48.26 22.26-150.15 167.83 24.88"/><path stroke-width="16.978" d="M397.32 479.05l-4.33 3.48-27.57 22.12-50.43 40.47 13.42 15.08 13.47 15.12 17.31 19.45 13.45 15.12 13.74 15.43 71.23-70.22 3.94-3.89"/><path stroke-width="16.978" d="M392.99 482.53l-.05-.06 49.56-44.13.06.07 64.6 72.58-6.93 6.18-42.61 37.94-.01-.01-12.75-14.32-13.48-15.13-12.42-13.96-13.46-15.12zM442.83 438.17s36.21-34.03 46.92-33.41c10.73.62 28.66 4.5 41.19-6.67 12.56-11.18 12.829-15.69 20.449-29.99 7.62-14.28 39.44-35.1 62.341-49.07 13.659-8.32 29.779-17.72 40.51-22.66 0 0 11.12-5.33 18.149 2.57 7.03 7.91.12 18.5.12 18.5-6.14 10.09-17.359 25.01-27.2 37.6-16.529 21.13-40.89 50.32-55.97 56.24-15.07 5.93-19.59 5.66-32.14 16.831-12.55 11.18-10.76 29.409-11.391 40.149-.63 10.73-38.63 42.74-38.63 42.74M372.64 609.89l72.22-69.11"/><path stroke-width="16.978" d="M359.19 594.77l72.19-69.12.01-.01M328.41 560.2l75.57-62.28M341.88 575.32l75.56-62.28"/></g><path fill="none" d="M0 0h850.394v850.394H0z"/></svg>