<?xml version="1.0" encoding="iso-8859-1"?>
<!-- Generator: Adobe Illustrator 12.0.1, SVG Export Plug-In . SVG Version: 6.00 Build 51448)  -->
<!DOCTYPE svg PUBLIC "-//W3C//DTD SVG 1.1//EN" "http://www.w3.org/Graphics/SVG/1.1/DTD/svg11.dtd" [
	<!ENTITY ns_svg "http://www.w3.org/2000/svg">
	<!ENTITY ns_xlink "http://www.w3.org/1999/xlink">
]>
<svg  version="1.1" id="Layer_1" xmlns="&ns_svg;" xmlns:xlink="&ns_xlink;" width="850.394" height="850.394"
	 viewBox="0 0 850.394 850.394" style="overflow:visible;enable-background:new 0 0 850.394 850.394;" xml:space="preserve">
<g id="XMLID_2_">
	<g>
		<path style="fill:#9C5C25;" d="M693.44,587.39c7.52,23.99,8.939,53.551,6.31,62.91c-1.54,5.54-8.7,13.351-15.46,12.57
			c-7.48-0.82-9.2-18.43-12.81-24.05c-5.65,1.17-2.75,9.42-6.931,9.42c-3.62-3.61-4.84-13.57-4.84-23.99
			c0-11.58,1.51-23.73,2.88-28.37L688,584l4.14-1.09C692.97,585.77,693.44,587.39,693.44,587.39z"/>
		<path style="fill:#ED1E29;" d="M431.62,473.41c-16.63,20.84-24.53,30.46-39.66,32.859c-31.32,4.98-33.67-3.199-39.65-20.699
			c-0.3-0.891-0.6-1.771-0.89-2.641l0.03-0.01c11.97-25.56,27.43-52.43,40.55-73.87c0.99-1.62,1.97-3.21,2.93-4.77
			c13.69-22.14,24.17-37.4,24.17-37.4c11.959-11.96,37.77-26.55,55.44-35.82l3.47,0.45c6.26,15.23,22.17,26.05,40.811,26.05
			c18.66,0,34.59-10.85,40.819-26.12l1.141-2.94c4.06,2.37,8.68,5.11,13.529,8.09c15.54,9.52,33.471,21.43,43.03,31
			c0,0,37.601,75.79,48.96,121.73c6.61,26.729,21.391,78.17,25.84,93.59L688,584l-25.41,11.88c0.08-0.29,0.17-0.54,0.25-0.77
			L603.71,465.68l6.31,121.83l-2.579,0.13H431.4l-3.24-0.069c1.07-52.04,3.55-114.09,3.55-114.09L431.62,473.41z"/>
		<path style="fill:#797878;" d="M610.27,592.32l0.24-0.011c0.61,10.301,1.021,22.08,1.021,35.171
			c0,14.689-1.61,105.909-3.88,141.27l-73.931,1.28l-6.84-121.17l-14.14-0.08l-7.37,119.31l-5.5-0.34l-68.22-0.78l0.02-1.55
			c-2.34-36.18-4-123.66-4-138.6c0-11.311,0.19-24.9,0.49-39.25l3.24,0.069h176.04l2.579-0.13L610.27,592.32z"/>
		<path style="fill:#9C5C25;" d="M560.78,328.5l-1.141,2.94c-6.229,15.27-22.159,26.12-40.819,26.12
			c-18.641,0-34.551-10.82-40.811-26.05l-3.47-0.45c10.61-5.56,18.28-9.2,18.28-9.2l0.569-0.85c7.561,5.36,16.23,8.41,25.44,8.41
			c9.78,0,18.96-3.44,26.84-9.47h0.01C546.25,320.27,552.29,323.56,560.78,328.5z"/>
		<path style="fill:#9C5C25;" d="M548.07,201.34c14.52,12.46,24.109,33.94,24.109,58.34c0,25.72-10.649,48.19-26.5,60.27h-0.01
			c-7.88,6.03-17.06,9.47-26.84,9.47c-9.21,0-17.88-3.05-25.44-8.41c-16.64-11.82-27.93-34.85-27.93-61.33
			c0-37.03,22.08-67.31,49.97-69.6c1.13-0.09,2.261-0.14,3.4-0.14C529.63,189.94,539.68,194.13,548.07,201.34z"/>
		<path style="fill:#ABD150;" d="M548.07,84.1v117.24c-8.391-7.21-18.44-11.4-29.24-11.4c-1.14,0-2.271,0.05-3.4,0.14l-0.359-4.43
			v-71.56H208.72V764.44l-33.35-0.381V84.1H548.07z"/>
		<path style="fill:#F6CC4B;" d="M396.53,312.82l0.13-2.83c5.32-4.78,23.84-32.63,23.84-45.12c0-0.95-0.11-1.82-0.34-2.58
			c-3.65-1.96-5.02,6.7-10.57,5.03c-0.52-6.64,6.26-22.98,0.05-27.22c-5.58-3.89-15.6-0.35-19.56,3.8
			c-6.73,7.02-19.39,33.76-24.06,58.48c0,0-0.5,1.89-1.36,5.3c-3.08,12.16-10.79,43.61-17.04,77.05
			c-6.72,35.96-10.43,55.34,3.8,98.2c0.29,0.87,0.59,1.75,0.89,2.641c5.98,17.5,8.33,25.68,39.65,20.699
			c15.13-2.399,23.03-12.02,39.66-32.859l0.09,0.07c0,0-2.479,62.05-3.55,114.09c-0.3,14.35-0.49,27.939-0.49,39.25
			c0,14.939,1.66,102.42,4,138.6l-0.02,1.55l-222.93-2.529V114.09h306.35v71.56l0.359,4.43c-27.89,2.29-49.97,32.57-49.97,69.6
			c0,26.48,11.29,49.51,27.93,61.33l-0.569,0.85c0,0-7.67,3.64-18.28,9.2c-17.67,9.27-43.48,23.86-55.44,35.82
			c0,0-10.48,15.26-24.17,37.4c-0.96,1.56-1.94,3.15-2.93,4.77L396.53,312.82z M262.07,489.74c0-9.01-7.3-16.311-16.31-16.311
			c-9.01,0-16.31,7.301-16.31,16.311s7.3,16.31,16.31,16.31C254.77,506.05,262.07,498.75,262.07,489.74z"/>
		<path style="fill:#9C5C25;" d="M420.16,262.29c0.23,0.76,0.34,1.63,0.34,2.58c0,12.49-18.52,40.34-23.84,45.12l-0.13,2.83L366,308
			l-1.34-0.32c0.86-3.41,1.36-5.3,1.36-5.3c4.67-24.72,17.33-51.46,24.06-58.48c3.96-4.15,13.98-7.69,19.56-3.8
			c6.21,4.24-0.57,20.58-0.05,27.22C415.14,268.99,416.51,260.33,420.16,262.29z"/>
		<path style="fill:#ED1E29;" d="M396.53,312.82L392,409.05c-13.12,21.44-28.58,48.311-40.55,73.87l-0.03,0.01
			c-14.23-42.859-10.52-62.24-3.8-98.2c6.25-33.44,13.96-64.89,17.04-77.05L366,308L396.53,312.82z"/>
		<circle style="fill:#FBED24;" cx="245.76" cy="489.74" r="16.31"/>
	</g>
	<g>
		<polyline style="fill:none;stroke:#231F20;stroke-width:14;" points="208.72,766.87 208.72,764.44 208.72,114.09 515.07,114.09 
			515.07,185.65 		"/>
		<polyline style="fill:none;stroke:#231F20;stroke-width:21;" points="175.37,766.41 175.37,764.06 175.37,84.1 548.07,84.1 
			548.07,201.34 548.07,202.49 		"/>
		<circle style="fill:none;stroke:#231F20;stroke-width:18.942;" cx="245.76" cy="489.74" r="16.31"/>
		<path style="fill:none;stroke:#231F20;stroke-width:14;" d="M492.82,321.86c0,0-7.67,3.64-18.28,9.2
			c-17.67,9.27-43.48,23.86-55.44,35.82c0,0-10.48,15.26-24.17,37.4c-0.96,1.56-1.94,3.15-2.93,4.77
			c-13.12,21.44-28.58,48.311-40.55,73.87"/>
		<path style="fill:none;stroke:#231F20;stroke-width:14;" d="M431.67,765.42c-2.34-36.18-4-123.66-4-138.6
			c0-11.311,0.19-24.9,0.49-39.25c1.07-52.04,3.55-114.09,3.55-114.09"/>
		<path style="fill:none;stroke:#231F20;stroke-width:14;" d="M545.67,319.95c-0.03-0.01-0.04-0.02-0.04-0.02"/>
		<path style="fill:none;stroke:#231F20;stroke-width:14;" d="M693.44,587.39c0,0-0.471-1.62-1.301-4.479
			c-4.449-15.42-19.229-66.86-25.84-93.59c-11.359-45.94-48.96-121.73-48.96-121.73c-9.56-9.57-27.49-21.48-43.03-31
			c-4.85-2.98-9.47-5.72-13.529-8.09c-8.49-4.94-14.53-8.23-15.101-8.55"/>
		<path style="fill:none;stroke:#231F20;stroke-width:14;" d="M610.45,595.87l-0.181-3.55l-0.25-4.811l-6.31-121.83l59.13,129.431
			c-0.08,0.229-0.17,0.479-0.25,0.77c-1.37,4.64-2.88,16.79-2.88,28.37c0,10.42,1.22,20.38,4.84,23.99c4.181,0,1.28-8.25,6.931-9.42
			c3.609,5.62,5.329,23.229,12.81,24.05c6.76,0.78,13.92-7.03,15.46-12.57c2.63-9.359,1.21-38.92-6.31-62.91"/>
		<path style="fill:none;stroke:#231F20;stroke-width:14;" d="M607.65,768.75c2.27-35.36,3.88-126.58,3.88-141.27
			c0-13.091-0.41-24.87-1.021-35.171"/>
		<polyline style="fill:none;stroke:#231F20;stroke-width:14;" points="533.72,770.03 526.88,648.86 512.74,648.78 505.37,768.09 
			505.25,770.03 		"/>
		<line style="fill:none;stroke:#231F20;stroke-width:14;" x1="431.4" y1="587.64" x2="607.44" y2="587.64"/>
		<path style="fill:none;stroke:#231F20;stroke-width:14;" d="M366.02,302.38c0,0-0.5,1.89-1.36,5.3
			c-3.08,12.16-10.79,43.61-17.04,77.05c-6.72,35.96-10.43,55.34,3.8,98.2c0.29,0.87,0.59,1.75,0.89,2.641
			c5.98,17.5,8.33,25.68,39.65,20.699c15.13-2.399,23.03-12.02,39.66-32.859c4.8-6.021,10.33-12.99,16.979-20.99"/>
		<path style="fill:none;stroke:#231F20;stroke-width:14;" d="M392,409.05l4.53-96.23l0.13-2.83c5.32-4.78,23.84-32.63,23.84-45.12
			c0-0.95-0.11-1.82-0.34-2.58c-3.65-1.96-5.02,6.7-10.57,5.03c-0.52-6.64,6.26-22.98,0.05-27.22c-5.58-3.89-15.6-0.35-19.56,3.8
			c-6.73,7.02-19.39,33.76-24.06,58.48"/>
		<polyline style="fill:none;stroke:#231F20;stroke-width:14;" points="366,308 396.53,312.82 398.27,313.1 		"/>
		<polyline style="fill:none;stroke:#231F20;stroke-width:18.942;" points="688,584 662.59,595.88 661.62,596.33 		"/>
		<path style="fill:none;stroke:#231F20;stroke-width:14;" d="M559.64,331.44c-6.229,15.27-22.159,26.12-40.819,26.12
			c-18.641,0-34.551-10.82-40.811-26.05"/>
		<path style="fill:none;stroke:#231F20;stroke-width:14;" d="M548.07,201.34c14.52,12.46,24.109,33.94,24.109,58.34
			c0,25.72-10.649,48.19-26.5,60.27h-0.01c-7.88,6.03-17.06,9.47-26.84,9.47c-9.21,0-17.88-3.05-25.44-8.41
			c-16.64-11.82-27.93-34.85-27.93-61.33c0-37.03,22.08-67.31,49.97-69.6c1.13-0.09,2.261-0.14,3.4-0.14
			C529.63,189.94,539.68,194.13,548.07,201.34z"/>
	</g>
</g>
<rect style="fill:none;" width="850.394" height="850.394"/>
</svg>
