<svg id="Layer_1" xmlns="http://www.w3.org/2000/svg" viewBox="0 0 850 850"><style>.st0{fill:#ffffc2}.st1{fill:#f6cc4b}.st2{fill:#ee947d}.st3,.st4{fill:none;stroke:#231f20;stroke-width:14;stroke-linecap:round;stroke-miterlimit:10}.st4{stroke-width:20}</style><path class="st0" d="M583.5 287.8h1.8l3-1 3.2-.5h3.5l3.8.2 3.2.8 2.8 1.2 2.2 1.5 2 1.8 1.5 2 1.3 2.2.7 2.5.5 2.5.3 2.5v5.5l-.5 2.5-.5 2.8-.8 2.2-1 2.3-.7 2.2-2.3 4.5-1.7 4.3-1.3 4-1.2 3.7-.8 3.5-.5 3.3-.5 3v3l-.2 6 .2 5.7v6.3l-.2 7-.3 1.2-.2 1.8-.5 1.7-1 1.5-.8 1.8-1.2 1.7-1.3 1.8-1.5 1.5-1.7 1.5-2 1.5-2.3 1-2.2.7-2.5.8-2.8.2h-3l-3.2-.5-1.3-.2 2.3-8.5 2-8.3 1.7-8.5 1.5-8.5 1.3-8.7.7-8.5.5-8.8.3-8.5-.3-17.7-.2-19.5zM276.5 394.8l-2 .7-3 .3h-3l-2.7-.3-2.5-.5-2.5-1-2-1-2-1.2-1.8-1.5-1.5-1.5-1.5-1.8-1-1.7-1-1.8-.7-1.7-.8-1.8-.2-1.5-.3-1.5-.2-6.7V364l.2-6v-5.7l-.2-3-.5-3.3-.5-3.2-.8-3.5-1-3.8-1.5-3.7-1.7-4.3-2-4.7-1-2-.8-2.3-.7-2.5-.8-2.5-.2-2.7-.3-2.8v-2.5l.3-2.7.5-2.5 1-2.5 1-2.3 1.5-2 2-1.7 2.5-1.5 2.7-1 3.3-.8 3.5-.5 3.5.3 3.2.5 3 .7h2.3L266 325l.3 8.8.5 9 1 8.7 1 8.8 1.5 8.7 2 8.8 2 8.5z"/><path class="st0" d="M393.5 518.8l1.8 1.3 2.3 1 3.3 1.5 4.5 1.5 5.5 1.3 3.3.3 3.5.5 4 .3h4.3l8.5-.3 7.5-.8 6-1 4.8-1 3.5-1.3 2.5-1 2-1 2.5-3 2-3.5 2.3-3.5 1.8-3.3 2.5-5.8 1-2.3-1-1.3-1.3-2-2-2.8-2.6-2.6-2.8-3-6.5-6.5-6.8-5.8-3-2.3-2.5-1.5-1.3-.8-1.5-.3-1.3-.3H439l-3 .5-2.5 1-2.5 1.3-1.8 1-1.8 1.3-1.8-1.3-2-1-2.5-1.3-2.8-1-3-.5H414l-1.5.3-1.3.3-1.5.8-3 2-3.8 3.5-4.3 4-4.3 4.5-3.8 4.3-3.5 4-2.5 3.3-1 1.8.5 2.3 2 5.3 1.3 3.3 1.8 3.5 2 3.3 2.4 2.8zm32.8-86.5l-.8.3 1.5-.3h-.7zm-40.3 116l-5.5-2-4.5-2-3.8-2-3-2-2.3-1.8-1.5-1.5-1-1-6.5-5.5-6.3-6-6.5-6.8-6.5-7-6.3-7.8-6.3-8-6-8.5-6-8.8-5.8-9.5-5.5-9.5-5.3-10-4.8-10.3-4.8-10.8L284 417l-4-11-3.5-11.3-2.3-8.5-2-8.5-2-8.8-1.5-8.8-1-8.8-1-8.8-.5-9-.2-8.5.3-35.5.3-21-1.5-1.3 6.8-8.5 7-8.5 7.3-8 6.5-7.3 10.5-11.5 4.3-4.3 1.5-1 2.3-1.3 5.8-2.8 7.5-3.3 8.8-3.8 21.5-8.5 24.3-9.5L404 179l12.3-5 11.8-5.3 10.8-5 10-5 8.5-4.5 3.8-2.3 3.3-2.3.8.5 1.3.3 3.5 2.5 5.8 4.3 7.5 6 4.3 3.8 4.8 4.3 5 5 5.5 5.5 5.8 6 6.3 6.8 6.3 7.5 6.8 8.3 6.8 8.8 7.3 9.8 1.5 2 2 2.3 5.3 5.3 6 6.3 6.3 7.3 3.3 3.8 3.3 4 3 4.3 3 4.3 2.5 4.5 2.3 4.5 2 4.8 1.5 4.8v1.3l.3 19.5.3 17.8-.3 8.5-.5 8.8-.8 8.5-1.3 8.8-1.5 8.5-1.8 8.5-2 8.3-2.3 8.5-3.8 11.5-4 11.5-4.5 11-4.8 11-5.3 10.5-5.5 10.3-5.8 10-6 9.5-6.3 9-6.3 8.5-6.3 8.3-6.5 7.5-6.5 7.3-6.3 6.5-6.5 5.8-6.3 5.3-1.5 1.8-1.8 1.5-2.5 1.8-2.8 1.8-3.3 1.5-6.5 3-5.8 2.3-4.3 1.5-10.3 1-10.5.5-11.8.3h-8.8l-8.3-.8-7.3-1-6.5-1.5-5.7-3.1z"/><path class="st1" d="M307.3 219.3l-4.3 4.2-10.5 11.5-6.5 7.3-7.2 8-7 8.5-6.8 8.5-4.5 5.7-4 5.8-3.2 5-2.5 4.7-1.8-53 .3-7.7.5-7.8 1-7.2 1.2-7.3 1.5-7 2-6.7 2-6.5 2.3-6.3 2.5-6 2.7-6 3-5.5 2.8-5.2 3.2-5.3 3-4.7 3.3-4.8 3.2-4.5 6.5-8 6.3-7 5.7-6 5.3-5 4.2-3.7 3.5-3 3-2.3 5.5-3.5 4-2.5 3.8-2 6.7-3.7 7-3.5 7-3.3 7.5-2.7 7.8-2.5 8-2 8.2-2 8.5-1.5 8.8-1.3 9-.7 9.2-.5 9.8-.3h9.7l10.3.5 10.2.8 10.8 1.2 6.5.8 6.5 1.5 6.2 1.5 6.3 2 6 2.2 6 2.8 5.7 3 5.8 3 5.7 3.7 5.3 3.8 5.2 4 5.3 4.5 5 4.5 4.7 5 4.8 5 4.5 5.5 4.2 5.5 4 6 4 6 3.8 6.2 3.5 6.5 3.5 6.5 3.2 6.8 2.8 7 2.7 7.2 2.5 7.3 2.3 7.5 2.2 7.7 1.8 7.8 1.5 7.7 1.5 8 1 8 .2 5.5v6.3l-.5 6.2-.7 6.5-2 13-2 12-3.8-.2h-3.5l-3.2.5-3 1h-1.8l-.2-1.3-1.5-4.7-2-4.8-2.3-4.5-2.5-4.5-3-4.2-3-4.3-3.2-4-3.3-3.7-6.2-7.3-6-6.2-5.3-5.3-2-2.2-1.5-2-7.2-9.8-6.8-8.7-6.7-8.3-6.3-7.5-6.2-6.7-5.8-6-5.5-5.5-5-5-4.7-4.3-4.3-3.7-7.5-6-5.7-4.3-3.5-2.5-1.8-1-.2.3-3.3 2.2-3.7 2.3-8.5 4.5-10 5-10.8 5-11.7 5.2-12.3 5-25.2 10.3-24.3 9.5-21.5 8.5-8.7 3.7-7.5 3.3-5.8 2.7-2.2 1.3z"/><path class="st2" d="M468.3 492.8l2 2.7 1.2 2 1 1.3-1 2.2-2.5 5.8-1.7 3.2-2.3 3.5-2 3.5-2.5 3-2 1-2.5 1-3.5 1.3-4.7 1-6 1-7.5.7-8.5.3h-4.3l-4-.3-3.5-.5-3.2-.2-5.5-1.3-4.5-1.5-3.3-1.5-2.2-1-1.8-1.2-2.2-3-2-3.3-1.8-3.5-1.2-3.2-2-5.3-.5-2.2 1-1.8 2.5-3.2 3.5-4 3.7-4.3 4.3-4.5 4.2-4 3.8-3.5 3-2 1.5-.7 1.2-.3 1.5-.2h1.5l3 .5 2.8 1 2.5 1.2 2 1 1.7 1.3 1.8-1.3 1.7-1 2.5-1.2 2.5-1 3-.5h1.5l1.3.2 1.5.3 1.2.7 2.5 1.5 3 2.3 6.8 5.7 6.5 6.5 2.7 3z"/><path class="st3" d="M304.3 324.3l6.7-1.3 7-1 7-1 6.8-.7 13.2-.8 12.3-.5h10.5l8.2.3 7.3.2M541 322.8l-7-1.5-6.7-1-7-.8-7-.7-13.3-1-12.2-.3H469l-7.2.5M264 289.5l-3-.7-3.2-.5-3.5-.3-3.5.5-3.3.8-2.7 1-2.5 1.5-2 1.7-1.5 2-1 2.3-1 2.5-.5 2.5-.3 2.7v2.5l.3 2.8.2 2.7.8 2.5.7 2.5.8 2.3 1 2 2 4.7 1.7 4.3 1.5 3.7 1 3.8.8 3.5.5 3.2.5 3.3.2 3v5.7l-.2 6v6.3l.2 6.7.3 1.5.2 1.5.8 1.8.7 1.7 1 1.8 1 1.7 1.5 1.8 1.5 1.5 1.8 1.5 2 1.2 2 1 2.5 1 2.5.5 2.7.3h3l3-.3M585.3 287.8l3-1 3.2-.5h3.5l3.8.2 3.2.8 2.8 1.2 2.2 1.5 2 1.8 1.5 2 1.3 2.2.7 2.5.5 2.5.3 2.5v5.5l-.5 2.5-.5 2.8-.8 2.2-1 2.3-.7 2.2-2.3 4.5-1.7 4.3-1.3 4-1.2 3.7-.8 3.5-.5 3.3-.5 3v3l-.2 6 .2 5.7v6.3l-.2 7-.3 1.2-.2 1.8-.5 1.7-1 1.5-.8 1.8-1.2 1.7-1.3 1.8-1.5 1.5-1.7 1.5-2 1.5-2.3 1-2.2.7-2.5.8-2.8.2h-3l-3.2-.5"/><path class="st3" d="M583 284.5l.3 2v1.3l.2 19.5.3 17.7-.3 8.5-.5 8.8-.7 8.5-1.3 8.7-1.5 8.5-1.7 8.5-2 8.3-2.3 8.5-3.7 11.5-4 11.5-4.5 11-4.8 11-5.2 10.5-5.5 10.2-5.8 10-6 9.5-6.2 9-6.3 8.5-6.2 8.3-6.5 7.5-6.5 7.2-6.3 6.5-6.5 5.8-6.2 5.2-1.5 1.8-1.8 1.5-2.5 1.7-2.7 1.8-3.3 1.5-6.5 3-5.7 2.2-4.3 1.5-10.2 1-10.5.5-11.8.3h-8.7l-8.3-.8-7.2-1-6.5-1.5-5.8-1.7-5.5-2-4.5-2-3.7-2-3-2-2.3-1.8-1.5-1.5-1-1-6.5-5.5-6.2-6-6.5-6.7-6.5-7-6.3-7.8-6.2-8-6-8.5-6-8.7-5.8-9.5-5.5-9.5-5.2-10-4.8-10.3-4.7-10.7L284 417l-4-11-3.5-11.2-2.2-8.5-2-8.5-2-8.8-1.5-8.7-1-8.8-1-8.7-.5-9-.3-8.8.3-35.5.2-21"/><path class="st3" d="M426.3 432.3l2.7-.8 2.3-1 1.5-1 1.5-1 1.5-.7 1.7-.5h2.3l3 .5 6 1.5 2.7.5 1.5.2h1.3l1.2-.2 1.3-.5 1-.5 1-1 .7-1.3.8-1.2.5-2 .5-2 .2-1.5v-1.5l-.2-1.3-.3-1-1-2-1.2-1.7-3-3.5-1.8-2-1.2-2.3M426.3 432.3h.7l-1.5.2zM399 324.5l1.3 1.5 1.2 1.5 2 3.8 1.8 4 1.2 4.5 1 4.5.8 5 .2 5 .3 5-.3 5.2-.2 5-.8 5-.7 5-.8 4.8-1 4.5-1.2 4.2-1 3.8-2.8 7.5-1.5 2.5-1.5 2-3.2 3.2-1.3 1.8-1 2-.2 1.2v4l.5 2.3.7 1.7.5 1.5 1 1.3 1 .7 1 .8 1.3.2 1 .3h2.7l3-.5 6-1.5 3-.5h1l1 .2 1.8.5 1.5 1 1.2 1 1.8 1 2 1 1.5.3h1.5M598.8 286.5l2-12 2-13 .7-6.5.5-6.2v-6.3l-.2-5.5-1-8-1.5-8-1.5-7.7-1.8-7.8-2.2-7.7-2.3-7.5-2.5-7.3-2.7-7.2-2.8-7-3.2-6.8-3.5-6.5-3.5-6.5-3.8-6.2-4-6-4-6-4.2-5.5-4.5-5.5-4.8-5-4.7-5-5-4.5-5.3-4.5-5.2-4-5.3-3.8-5.7-3.7-5.8-3-5.7-3-6-2.8-6-2.2-6.3-2-6.2-1.5-6.5-1.5-6.5-.8-10.8-1.2-10.2-.8-10.3-.5h-9.7l-9.8.3-9.2.5-9 .7-8.8 1.3-8.5 1.5-8.2 2-8 2-7.8 2.5-7.5 2.7-7 3.3-7 3.5-6.7 3.7-3.8 2-4 2.5-5.5 3.5-3 2.3-3.5 3-4.2 3.7-5.3 5-5.7 6-6.3 7-6.5 8-3.2 4.5-3.3 4.8-3 4.7-3.2 5.3-2.8 5.2-3 5.5-2.7 6-2.5 6-2.3 6.3-2 6.5-2 6.7-1.5 7-1.2 7.3-1 7.2-.5 7.8-.3 7.7 1.8 53 2.5-4.7 3.2-5 4-5.8 4.5-5.7 6.8-8.5 7-8.5 7.2-8 6.5-7.3 10.5-11.5 4.3-4.2 1.5-1 2.2-1.3 5.8-2.7 7.5-3.3 8.7-3.7 21.5-8.5 24.3-9.5L404 179l12.3-5 11.7-5.2 10.8-5 10-5 8.5-4.5 3.7-2.3 3.3-2.2.2-.3 1.8 1 3.5 2.5 5.7 4.3 7.5 6 4.3 3.7 4.7 4.3 5 5 5.5 5.5 5.8 6 6.2 6.7 6.3 7.5 6.7 8.3 6.8 8.7 7.2 9.8 1.5 2 2 2.2 5.3 5.3 6 6.2 6.2 7.3 3.3 3.7 3.2 4 3 4.3 3 4.2 2.5 4.5 2.3 4.5 2 4.8 1.5 4.7.2 1.3.5 3.5.5 3.5"/><path class="st3" d="M477.3 152l-5-.2-3.3-.5-2.7-.8-1.3-.2-.7-.5-.3-.3 3.5-4 3.5-4.5 3-4.7 2.8-5.3 2-5.7 1-2.8.7-3 .5-3 .5-3 .3-3 .2-3M460.5 520l2.5-3 2-3.5 2.3-3.5 1.7-3.2 2.5-5.8 1-2.2-1-1.3-1.2-2-2-2.7-2.3-2.8-2.7-3-6.5-6.5-6.8-5.7-3-2.3-2.5-1.5-1.2-.7-1.5-.3-1.3-.2H439l-3 .5-2.5 1-2.5 1.2-1.7 1-1.8 1.3-1.7-1.3-2-1-2.5-1.2-2.8-1-3-.5H414l-1.5.2-1.2.3-1.5.7-3 2-3.8 3.5-4.2 4-4.3 4.5-3.7 4.3-3.5 4-2.5 3.2-1 1.8.5 2.2 2 5.3 1.2 3.2 1.8 3.5 2 3.3 2.2 3 1.8 1.2 2.2 1 3.3 1.5 4.5 1.5 5.5 1.3 3.2.2 3.5.5 4 .3h4.3l8.5-.3 7.5-.7 6-1 4.7-1 3.5-1.3 2.5-1z"/><path class="st4" d="M392 530.8l-1 2.7M376 577l-1 2.8M359.8 623.3l-1 2.7M343.5 669.5l-1 2.8M327.5 715.8l-1 3M311.3 762l-1 3M454.3 535.8l1 2.7M470.5 582l1 2.8M486.5 628.3l1 2.7M502.8 674.5l1 2.8M519 720.8l1 2.7M535 767l1 2.8M422.5 527.8v3M422.3 576.8v3M422 625.8v3M421.8 674.8v3M421.5 723.8v3M421.5 772.8l-.2 3"/></svg>