<svg xmlns="http://www.w3.org/2000/svg" width="850.394" height="850.394" viewBox="0 0 850.394 850.394" overflow="visible"><path d="M151.68 215.34c4.54 11.1-6.73 11.56-13.87 8.49-7.58-14.35 9.06-20.24 13.87-8.49z" fill="#231f20"/><path d="M276.33 520.82c2.46 18.37 2.46 63.069 2.46 82.67 0 19.6-3.97 48.67-9.19 53.89l-50.19-.62s0-3.67 2.42-14.1c2.48-10.4 22.36-7.63 28.79-14.07 6.43-6.41 5.52-32.439 5.52-72.87 0-40.41-9.7-85.09-9.7-85.09l.01-.01c14.2 16.99 28.17 37.31 29.88 50.2zM660.14 574.6s-13.949 33.19-17.62 44.801c-3.67 11.63-3.06 19.6-16.539 23.89-13.461 4.28-34.9-4.29-34.9-4.29 0-6.11 3.67-13.47 12.24-13.47 8.569 0 12.26-6.13 15.93-22.67 3.67-16.53 0-30.591-6.73-44.67-6.739-14.101-30.64-44.08-47.779-61.25-22.03-22.03-20.82-54.08-20.82-54.08v-.04c9.55.56 17.561 3.12 22.64 8.21 15.631 15.609 37.671 58.46 56.971 77.76C638.72 543.98 650.86 562.6 660.14 574.6z" fill="#f6cc4b"/><path d="M708.85 207.59s23.811 77.1 13.32 117.35c0 0-10.13 57.26-44.87 60.37-2.229-3.87-3.859-6.28-4.229-6.82a37.586 37.586 0 0 0-1.851-3.57l.61-.35c.15-14.86 7.66-21.95 18.91-42.54 17.62-32.25 12.529-90.57.689-124.9-4.179-12.11 3.251-33.41 17.421.46zM244.61 201.86c2.64 4.46 1.77 15.67 1.02 19.94-1.56 8.98-9.27 15.42-17.01 19.35-9.54 4.9-17.59 12.2-26.43 18.37-6.52 4.56-12.37 9.95-20.98 7.98-8.36-1.95-13.41-11.01-13.56-18.99-.17-8.55 4.76-15.19 8.27-22.63 3.68-7.79 6.8-16 4.63-24.67-1.47-5.86-10.18-21.59-17.26-21.6 18.92-6.42 40.06-6.83 53.72-2.58 16.88 5.27 23.81 20.29 27.6 24.83z" fill="#9e5c26"/><path d="M673.07 378.49c.85 1.9 1.29 3.45 1.29 4.57 0 9.8-8.591 77.75-8.591 102.88 0 25.1 32.45 70.409 36.131 79.6 3.67 9.17 0 69.79 0 87.55s0 33.67-12.86 33.67c-12.85 0-29.39 0-33.67-4.27-4.29-4.3 4.28-14.101 15.31-19.601 11.03-5.51 6.11-70.409-3.68-80.21-2.08-2.08-4.37-4.84-6.86-8.08-9.279-12-21.42-30.619-36.609-45.81-19.3-19.3-41.34-62.15-56.971-77.76-5.079-5.09-13.09-7.65-22.64-8.21-19.75-1.15-46.1 6.239-66.74 17.39-30.62 16.53-108.99 32.46-133.49 36.73-24.5 4.3-20.2 26.96-24.17 59.409-3.99 32.44 0 71.341-4.3 75.62-4.27 4.311-9.49 9.48-13.16 20.511-3.67 11.029-9.95 28.029-14.08 32.149-4.16 4.13-45.63 0-45.63 0l2.76-12.57c2.77-12.54 19.28-9.479 24.49-14.68 5.22-5.22 9.19-34.29 9.19-53.89 0-19.601 0-64.3-2.46-82.67-1.71-12.891-15.68-33.21-29.88-50.2-6.01-7.19-12.07-13.79-17.26-18.98-17.46-17.439-22.05-48.37-22.05-73.479 0-25.1-18.98-61.23-18.98-71.64 0-10.4-6.12-19.59-18.99-15.92-12.85 3.67-32.44 5.52-52.03 2.46-14.21-2.24-23.9-18.61-30.72-31.18 15.64.43 10.35-22.53 25.37-30.32-.81.13-19.97 3.3-30.41 7.62 2.4-1.73 5.15-2.48 5.15-2.48s39.78-7.33 39.78-17.13c0-9.78 2.46-22.65 23.88-34.29 4.15-2.25 8.55-4.13 13.09-5.67h.01c7.08.01 15.79 15.74 17.26 21.6 2.17 8.67-.95 16.88-4.63 24.67-3.51 7.44-8.44 14.08-8.27 22.63.15 7.98 5.2 17.04 13.56 18.99 8.61 1.97 14.46-3.42 20.98-7.98 8.84-6.17 16.89-13.47 26.43-18.37 7.74-3.93 15.45-10.37 17.01-19.35.75-4.27 1.62-15.48-1.02-19.94.16.21.33.4.5.57 3.67 3.68 48.36 76.55 82.05 90.01 33.67 13.46 59.4 21.43 81.44 21.43 0 0 46.54-4.28 72.27-4.28 25.7 0 67.63-4.6 113.55 7.64 37.74 10.07 67.41 41.39 76.8 57.69a37.687 37.687 0 0 1 1.85 3.571zM137.81 223.83c7.14 3.07 18.41 2.61 13.87-8.49-4.81-11.75-21.45-5.86-13.87 8.49z" fill="#9e5c26"/><path d="M81.38 239.18c10.44-4.32 29.6-7.49 30.41-7.62-15.02 7.79-9.73 30.75-25.37 30.32-2.6-4.77-4.78-8.99-6.63-11.69-3.69-5.37-1.31-8.91 1.59-11.01z" fill="#231f20"/><path d="M79.79 250.19c1.85 2.7 4.03 6.92 6.63 11.69-.32 0-.64-.02-.98-.05 0 0-8.67-9.75-10.64-16.84-.57-2.04 2.26-4.02 6.58-5.81-2.9 2.1-5.28 5.64-1.59 11.01z" fill="#231f20"/><g fill="none" stroke="#231f20"><path d="M86.42 261.88c6.82 12.57 16.51 28.94 30.72 31.18 19.59 3.06 39.18 1.21 52.03-2.46 12.87-3.67 18.99 5.52 18.99 15.92 0 10.41 18.98 46.54 18.98 71.64 0 25.11 4.59 56.04 22.05 73.479 5.19 5.19 11.25 11.79 17.26 18.98 14.2 16.99 28.17 37.31 29.88 50.2 2.46 18.37 2.46 63.069 2.46 82.67 0 19.6-3.97 48.67-9.19 53.89-5.21 5.2-21.72 2.14-24.49 14.68l-2.76 12.57s41.47 4.13 45.63 0c4.13-4.12 10.41-21.12 14.08-32.149 3.67-11.03 8.89-16.2 13.16-20.511 4.3-4.279.31-43.18 4.3-75.62 3.97-32.449-.33-55.109 24.17-59.409 24.5-4.271 102.87-20.2 133.49-36.73 20.641-11.15 46.99-18.54 66.74-17.39 9.55.56 17.561 3.12 22.64 8.21 15.631 15.609 37.671 58.46 56.971 77.76 15.189 15.19 27.33 33.81 36.609 45.81 2.49 3.24 4.78 6 6.86 8.08 9.79 9.801 14.71 74.7 3.68 80.21-11.029 5.5-19.6 15.301-15.31 19.601 4.28 4.27 20.82 4.27 33.67 4.27 12.86 0 12.86-15.91 12.86-33.67s3.67-78.38 0-87.55c-3.681-9.19-36.131-54.5-36.131-79.6 0-25.131 8.591-93.081 8.591-102.88 0-1.12-.44-2.67-1.29-4.57a37.586 37.586 0 0 0-1.851-3.57c-9.39-16.3-39.06-47.62-76.8-57.69-45.92-12.24-87.85-7.64-113.55-7.64-25.73 0-72.27 4.28-72.27 4.28-22.04 0-47.77-7.97-81.44-21.43-33.69-13.46-78.38-86.33-82.05-90.01-.17-.17-.34-.36-.5-.57-3.79-4.54-10.72-19.56-27.6-24.83-13.66-4.25-34.8-3.84-53.72 2.58" stroke-width="14"/><path d="M163.28 179.61c-4.54 1.54-8.94 3.42-13.09 5.67-21.42 11.64-23.88 24.51-23.88 34.29 0 9.8-39.78 17.13-39.78 17.13s-2.75.75-5.15 2.48M246.44 470.63s9.7 44.68 9.7 85.09c0 40.431.91 66.46-5.52 72.87-6.43 6.44-26.31 3.67-28.79 14.07-2.42 10.43-2.42 14.1-2.42 14.1l50.19.62M543.92 442.86s-1.21 32.05 20.82 54.08c17.14 17.17 41.04 47.149 47.779 61.25 6.73 14.079 10.4 28.14 6.73 44.67-3.67 16.54-7.36 22.67-15.93 22.67s-12.24 7.359-12.24 13.47c0 0 21.439 8.57 34.9 4.29 13.479-4.29 12.869-12.26 16.539-23.89 3.671-11.61 17.62-44.801 17.62-44.801M671.83 374.57c.15-14.86 7.66-21.95 18.91-42.54 17.62-32.25 12.529-90.57.689-124.9-4.18-12.11 3.25-33.41 17.42.46 0 0 23.811 77.1 13.32 117.35 0 0-10.13 57.26-44.87 60.37-.069.01-.149.01-.22.02" stroke-width="14"/><path d="M672.99 378.37s.029.04.08.12c.37.54 2 2.95 4.229 6.82.84 1.44 1.76 3.09 2.74 4.92" stroke-width="18.903"/><path d="M163.28 179.61h.01c7.08.01 15.79 15.74 17.26 21.6 2.17 8.67-.95 16.88-4.63 24.67-3.51 7.44-8.44 14.08-8.27 22.63.15 7.98 5.2 17.04 13.56 18.99 8.61 1.97 14.46-3.42 20.98-7.98 8.84-6.17 16.89-13.47 26.43-18.37 7.74-3.93 15.45-10.37 17.01-19.35.75-4.27 1.62-15.48-1.02-19.94-.22-.37-.46-.68-.72-.95" stroke-width="14"/><path d="M81.38 239.18c-4.32 1.79-7.15 3.77-6.58 5.81 1.97 7.09 10.64 16.84 10.64 16.84.34.03.66.05.98.05 15.64.43 10.35-22.53 25.4-30.33-.01.01-.02.01-.03.01-.81.13-19.97 3.3-30.41 7.62z" stroke-width="12.602"/><path d="M137.81 223.83c-7.58-14.35 9.06-20.24 13.87-8.49 4.54 11.1-6.73 11.56-13.87 8.49z" stroke-width="6.301"/><path d="M740.73 201.69s22.14-1.16 19.81 22.12M754.3 189.03s22.16-1.15 19.82 22.12M634.22 211.12s-8.55-20.46 14.15-26.11M617.72 202.6s-8.54-20.47 14.15-26.11" stroke-width="12.602"/></g><path fill="none" d="M0 0h850.394v850.394H0z"/></svg>