<svg id="Layer_1" xmlns="http://www.w3.org/2000/svg" viewBox="0 0 850 850"><style>.st0{fill:#a9d7f3}.st1{fill:#f6cc4b}.st2{fill:#ffeec8}.st3{fill:#eedceb}.st4{fill:#cc82b7}.st5{fill:#fff}.st6,.st7,.st8{fill:none;stroke:#231f20;stroke-width:28;stroke-linecap:round;stroke-miterlimit:10}.st7,.st8{stroke-width:14}.st8{stroke-width:21}</style><path class="st0" d="M368.8 330.6l-1-2 16.5-45 .7-2.8 4.8 1.3 5 .7 5 .3h4.7l5-.8 4.5-1 4.8-1.5 4.2-2.2 3.8-2.3 3.5-2.5 3.2-2.7 2.8-3.3 2.7-3.2 2.3-3.8 2-4 2-4 2.5.8 71.7 21.2 37.5 35h.3v.3l20.5 22 12.2 13 7.8 7.7v.5l-12 3-12.8 3-26.5 6-27.2 5.5-27.5 5.3-52.3 9.5-23.2 4.5-20.5 4z"/><path class="st1" d="M753.3 636.1l-4.5 141L87 521.8v-117l65.5 22.8 180 62.5zM342.5 249.3l-96.2 17.5-23.3-34.7-12.5-19.5-10-16-1.5-2.8-1-2.2 2.8-.5 124.5-16.5-.8 3.5-.7 3.5-.5 3.7-.3 3.8v4l.3 4 .2 3.7.5 4 .8 4 .7 4.3 1 4 1.3 4 1.5 4 1.7 4.2 1.8 4 2 4 3.7 6.3z"/><path class="st2" d="M173.5 148.3l5 5.3 4 4.5 3.5 4 2.8 3.7 2.2 3.3 1.8 2.7 1.2 2.8 1 2.2.5 2 .5 2 .5 3.5.5 3.5.3 1.8.7 2 1 2.2 1.5 2.8 10 16 12.5 19.5 23.3 34.7 5.7 8.8 116.8 55 27 62.5-15 3.5-6.3 1.5-5.5 1.7v-.2l-6.7-3.5-7.3-3.5-16-7-17.7-8-9.3-4.5-10-4.8-10-5.2-10.2-5.8-10.5-6.5-10.8-7-11-7.7-11-8.3-5.5-4.5-5.5-4.7-5.5-5-5.7-5.3-17-31.5-34.8-64.7-4.7-3.8-5-4.2-5.8-5.3-3.5-3.2-3.5-3.5-3-3.8-3-3.7-2.5-3.5-2-3.8-.7-1.7-.5-1.8-.5-1.7-.3-1.5.3-3.3.5-3.5.7-3.5 1.3-3.7 1.7-3.8 2-3.5 2.5-3.2 2.8-2.8 1.5-1.2 1.5-1.3 1.5-.7 1.7-.8 2-.7 1.8-.3 2-.2h2l2 .2 2.2.8 2 .7 2.3 1 2.5 1.5 2.2 1.8 2.5 2zM325.3 174.6l1.5-5.5 2-5 2.5-4.8 2.7-4.5 3.3-4 3.7-3.5 2-1.7 2-1.5 2.3-1.5 2.2-1.3 4.5-2.2 4.3-1.5 4.7-1 4.8-.5 4.7-.3 4.8.3 4.7.7 5 1.3 4.8 1.5 5 2 4.7 2.2 4.5 3 4.5 3 4.5 3.5 4.3 4 4.2 4 4 4.8 3.8 4.7 3.2 5.3 3.3 5.7 3 5.8 2.5 5.7 2 5.8 1.7 6 1.3 5.7.7 5.8.5 5.7v5.5l-.2 6.5-1 6-1.3 6-1.7 5.5-2 4-2 4-2.3 3.8-2.7 3.2-2.8 3.3-3.2 2.7-3.5 2.5-3.8 2.3-4.2 2.2-4.8 1.5-4.5 1-5 .8h-4.7l-5-.3-5-.7-4.8-1.3-6-2-5.5-2.7-5.7-3-5.5-3.8-5.3-4.2-5-4.8-5-5.2-4.5-5.8-4-5.7-3.7-6.3-2-4-1.8-4-1.7-4.2-1.5-4-1.3-4-1-4-.7-4.3-.8-4-.5-4-.2-3.7-.3-4v-4l.3-3.8.5-3.7.7-3.5z"/><path class="st1" d="M451.3 227.8h-1.8v-5.5l-.5-5.7-.7-5.8-1.3-5.7-1.7-6-2-5.8-2.5-5.7-3-5.8-3.3-5.7-3.2-5.3-3.8-4.7-4-4.8 5.8-.7 71.2-9.5 13 74.2-9-8zM176.5 282.3l108.5 113h-.2l-131 28.8-1.3 3.5L87 404.8V206.3l62-7.5 5.8 5.3 5 4.2 4.7 3.8 34.8 64.7-2.8 1.5z"/><path class="st3" d="M597.8 351.8l-7.8-7.7-12.2-13-20.5-22v-.3h-.3l4.3-18 2-9.7 2-10 72.2 64.2.8 4.5-6.5 2.3-7.8 2.5-8.2 2.7-8.8 2.5-9.2 2.5zM332.5 444.8l3.3.5-.5 4.8-.5 4.7-.5 9.8v20.2l-1.8 5.3-180-62.5 1.3-3.5 131-28.8h.2z"/><path class="st3" d="M364.5 401.3l-3.5 1.5-3 1.8-3 1.7-2.7 2-2.3 2.3-2.2 2.5-2 2.5-1.8 3-1.7 2.7-1.3 3-1.2 3.3-1 3.2-1 3.5-.8 3.5-1.2 7.5-3.3-.5-47.5-49.5-108.5-113 20-4 2.8-1.5 17 31.5 5.7 5.3 5.5 5 5.5 4.7 5.5 4.5 11 8.3 11 7.7 10.8 7 10.5 6.5 10.2 5.8 10 5.2 10 4.8 9.3 4.5 17.7 8 16 7 7.3 3.5 6.7 3.5v.2zM385 280.8l-.7 2.8-16.5 45 1 2-116.8-55-5.7-8.8 96.2-17.5 4.5 5.8 5 5.2 5 4.8 5.3 4.2 5.5 3.8 5.7 3 5.5 2.7zM510.3 265.3l9.2 8.5-71.7-21.2-2.5-.8 1.7-5.5 1.3-6 1-6 .2-6.5h1.8l53.2-10.5 9 8 3.5 20.8z"/><path class="st4" d="M395.8 393.1l20.5-4 23.2-4.5 52.3-9.5 27.5-5.3 27.2-5.5 26.5-6 12.8-3 12-3 9.2-2.5 8.8-2.5 8.2-2.7 7.8-2.5 6.5-2.3 7.2-2.2 7-1.8 6.3-1.2 6.2-1 6-.5h12l6.3.7 6.2.8 7 1.2 15 3 38.8 8.5 6.2 1.8-9.2 287-420.8-146 1.8-5.3v-20.2l.5-9.8.5-4.7.5-4.8 1.2-7.5.8-3.5 1-3.5 1-3.2 1.2-3.3 1.3-3 1.7-2.7 1.8-3 2-2.5 2.2-2.5 2.3-2.3 2.7-2 3-1.7 3-1.8 3.5-1.5 4.5-1.5 5.5-1.7 6.3-1.5z"/><path class="st2" d="M544 161.3l24.3 88.8-1.3 10.2-1.7 10.8-51.8-45.8-13-74.2 39.3-5.3z"/><path class="st2" d="M513.5 225.3l51.8 45.8-2 10-2 9.7-4.3 18-31-33-6.5-2-9.2-8.5 6.7-19.2z"/><path class="st5" d="M557 308.8l-37.5-35 6.5 2z"/><path class="st2" d="M539.8 145.8l-39.3 5.3-.7-4.8-1-4.5-1-3.7-1-3-1.3-2.8-2.2-4.5-2-4-1-2-.8-2.5-.7-2.7-.8-3.3-.2-4-.3-4.7v-5.5l.3-6.8.2-3.2.5-3.3.8-2.7.7-2.8 1-2.2 1-2 1.3-2 1.5-1.5 1.5-1.3 1.5-1.2 1.7-1 1.5-.8 2-.5 1.8-.5h2l1.7-.2 4 .5 4 .7 3.8 1.3 3.7 1.5 3.5 2 3 2.2 2.8 2.3 2 2.2 1 1.3.7 1.5 1.3 3.2 1 3.8.5 4 .5 4.5v4.5l-.3 4.5-.2 4.5-.8 8.5-1 7.2-1.2 6.8z"/><path class="st6" d="M87 147.8v516.5"/><path class="st7" d="M539.8 145.8l4.2-.5 1-.2M429.3 160.6l71.2-9.5M200.8 191.1l124.5-16.5 1-.3M87 206.3l62-7.5 2.3-.2"/><path class="st8" d="M756.8 637.1l-3.5-1-420.8-146-180-62.5L87 404.8M748.8 777.1L87 521.8M334.3 484.8v-20.2l.5-9.8.5-4.7.5-4.8 1.2-7.5.8-3.5 1-3.5 1-3.2 1.2-3.3 1.3-3 1.7-2.7 1.8-3 2-2.5 2.2-2.5 2.3-2.3 2.7-2 3-1.7 3-1.8 3.5-1.5 4.5-1.5 5.5-1.7 6.3-1.5 15-3.5 20.5-4 23.2-4.5 52.3-9.5 27.5-5.3 27.2-5.5 26.5-6 12.8-3 12-3 9.2-2.5 8.8-2.5 8.2-2.7 7.8-2.5 6.5-2.3 7.2-2.2 7-1.8 6.3-1.2 6.2-1 6-.5h12l6.3.7 6.2.8 7 1.2 15 3 38.8 8.5 6.2 1.8 1.3.2M544 161.3v-62"/><path class="st7" d="M153.8 424.1l131-28.8M196.5 278.3l-20 4 108.5 113 47.5 49.5M343.3 249.3h-.8l-96.2 17.5-1.5.3M513.5 225.3l-9-8-53.2 10.5M637.5 335.3l-72.2-64.2"/><path class="st7" d="M423.5 161.3l4 4.8 3.8 4.7 3.2 5.3 3.3 5.7 3 5.8 2.5 5.7 2 5.8 1.7 6 1.3 5.7.7 5.8.5 5.7v5.5l-.2 6.5-1 6-1.3 6-1.7 5.5-2 4-2 4-2.3 3.8-2.7 3.2-2.8 3.3-3.2 2.7-3.5 2.5-3.8 2.3-4.2 2.2-4.8 1.5-4.5 1-5 .8h-4.7l-5-.3-5-.7-4.8-1.3-6-2-5.5-2.7-5.7-3-5.5-3.8-5.3-4.2-5-4.8-5-5.2-4.5-5.8-4-5.7-3.7-6.3-2-4-1.8-4-1.7-4.2-1.5-4-1.3-4-1-4-.7-4.3-.8-4-.5-4-.2-3.7-.3-4v-4l.3-3.8.5-3.7.7-3.5.8-3.5 1.5-5.5 2-5 2.5-4.8 2.7-4.5 3.3-4 3.7-3.5 2-1.7 2-1.5 2.3-1.5 2.2-1.3 4.5-2.2 4.3-1.5 4.7-1 4.8-.5 4.7-.3 4.8.3 4.7.7 5 1.3 4.8 1.5 5 2 4.7 2.2 4.5 3 4.5 3 4.5 3.5 4.3 4zM557 308.8l4.3-18 2-9.7 2-10 1.7-10.8 1.3-10.2-24.3-88.8-4.2-15.5-3-11.7 1.2-6.8 1-7.2.8-8.5.2-4.5.3-4.5v-4.5l-.5-4.5-.5-4-1-3.8-1.3-3.2-.7-1.5-1-1.3-2-2.2-2.8-2.3-3-2.2-3.5-2-3.7-1.5-3.8-1.3-4-.7-4-.5-1.7.2h-2l-1.8.5-2 .5-1.5.8-1.7 1-1.5 1.2-1.5 1.3-1.5 1.5-1.3 2-1 2-1 2.2-.7 2.8-.8 2.7-.5 3.3-.2 3.2-.3 6.8v5.5l.3 4.7.2 4 .8 3.3.7 2.7.8 2.5 1 2 2 4 2.2 4.5 1.3 2.8 1 3 1 3.7 1 4.5.7 4.8 13 74.2 3.5 20.8-6.7 19.2M369 399.6l-6.7-3.5-7.3-3.5-16-7-17.7-8-9.3-4.5-10-4.8-10-5.2-10.2-5.8-10.5-6.5-10.8-7-11-7.7-11-8.3-5.5-4.5-5.5-4.7-5.5-5-5.7-5.3-17-31.5-34.8-64.7-4.7-3.8-5-4.2-5.8-5.3-3.5-3.2-3.5-3.5-3-3.8-3-3.7-2.5-3.5-2-3.8-.7-1.7-.5-1.8-.5-1.7-.3-1.5.3-3.3.5-3.5.7-3.5 1.3-3.7 1.7-3.8 2-3.5 2.5-3.2 2.8-2.8 1.5-1.2 1.5-1.3 1.5-.7 1.7-.8 2-.7 1.8-.3 2-.2h2l2 .2 2.2.8 2 .7 2.3 1 2.5 1.5 2.2 1.8 2.5 2 2.5 2.2 5 5.3 4 4.5 3.5 4 2.8 3.7 2.2 3.3 1.8 2.7 1.2 2.8 1 2.2.5 2 .5 2 .5 3.5.5 3.5.3 1.8.7 2 1 2.2 1.5 2.8 10 16 12.5 19.5 23.3 34.7 5.7 8.8 116.8 55 .5.2"/><path class="st7" d="M384.3 283.6l-16.5 45 1 2 27 62.5.7 2M557.3 309.1l20.5 22 12.2 13 7.8 7.7M447.8 252.6l71.7 21.2 6.5 2 31 33h.3v.3h.2-.2v-.3"/></svg>