<?xml version="1.0" encoding="iso-8859-1"?>
<!-- Generator: Adobe Illustrator 12.0.1, SVG Export Plug-In . SVG Version: 6.00 Build 51448)  -->
<!DOCTYPE svg PUBLIC "-//W3C//DTD SVG 1.1//EN" "http://www.w3.org/Graphics/SVG/1.1/DTD/svg11.dtd" [
	<!ENTITY ns_svg "http://www.w3.org/2000/svg">
	<!ENTITY ns_xlink "http://www.w3.org/1999/xlink">
]>
<svg  version="1.1" id="Layer_1" xmlns="&ns_svg;" xmlns:xlink="&ns_xlink;" width="850.394" height="850.394"
	 viewBox="0 0 850.394 850.394" style="overflow:visible;enable-background:new 0 0 850.394 850.394;" xml:space="preserve">
<g>
	<g id="XMLID_1_">
		<g>
			<path style="fill:#787878;" d="M805.06,340.9c-1.01,2.71-2.479,5.37-4.399,7.84c-4.641,5.97-10.98,9.63-17.22,10.59
				c-5.19,0.8-10.33-0.27-14.391-3.43c-8.96-6.96-9.319-21.46-0.819-32.4c8.51-10.92,22.659-14.12,31.609-7.15
				C806.76,321.74,808.55,331.64,805.06,340.9z"/>
			<path style="fill:#C8C8C8;" d="M751.92,417.12l-2.96-3.55l34.48-54.24c6.239-0.96,12.579-4.62,17.22-10.59
				c1.92-2.47,3.39-5.13,4.399-7.84c0.08,0.61,1.631,13.88-7.52,28.85c-9.36,15.32-36.3,44.93-36.3,44.93l-6.69,5.59L751.92,417.12z
				"/>
			<path style="fill:#787878;" d="M683.56,313.57c6.801-7.2,16.48-9.94,24.37-6.09c10.19,4.99,13.521,19.11,7.44,31.54
				c-6.09,12.43-19.28,18.48-29.47,13.49c-4.62-2.26-7.841-6.41-9.4-11.42c-1.87-6.04-1.36-13.34,1.96-20.13
				C679.84,318.15,681.58,315.67,683.56,313.57z"/>
			<path style="fill:#C8C8C8;" d="M683.56,313.57c-1.979,2.1-3.72,4.58-5.1,7.39c-3.32,6.79-3.83,14.09-1.96,20.13l-33.6,54.78
				l-8.471-2.08l2.09-8.47c0,0,14.771-37.2,24.431-52.34C670.32,318.31,682.79,313.84,683.56,313.57z"/>
			<rect x="348.62" y="293.93" width="24.36" height="54.39"/>
			<rect x="348.62" y="382.53" width="24.09" height="54.39"/>
			<path style="fill:#0B00EA;" d="M348.62,436.92v162.39c0,7.49-6.32,13.561-14.11,13.561H88.2c-7.79,0-14.11-6.07-14.11-13.561
				V234.93c0-7.5,6.32-13.57,14.11-13.57h221.83h24.48c7.79,0,14.11,6.07,14.11,13.57v59v54.39v34.21h-0.27v54.39H348.62z
				 M271.74,522.72V310.59c0-4.36-2.56-7.9-5.73-7.9h-99.98c-3.17,0-5.73,3.54-5.73,7.9v212.13c0,4.36,2.56,7.9,5.73,7.9h99.98
				C269.18,530.62,271.74,527.08,271.74,522.72z"/>
			<rect x="348.35" y="382.53" width="0.27" height="54.39"/>
			<path style="fill:#C8C8C8;" d="M247.98,362.13c0-17.58-14.26-31.83-31.84-31.83c-17.59,0-31.85,14.25-31.85,31.83
				c0,17.59,14.26,31.85,31.85,31.85C233.72,393.98,247.98,379.72,247.98,362.13z M271.74,310.59v212.13c0,4.36-2.56,7.9-5.73,7.9
				h-99.98c-3.17,0-5.73-3.54-5.73-7.9V310.59c0-4.36,2.56-7.9,5.73-7.9h99.98C269.18,302.69,271.74,306.23,271.74,310.59z
				 M247.15,466.16c0-17.59-14.26-31.84-31.84-31.84c-17.59,0-31.84,14.25-31.84,31.84c0,17.58,14.25,31.84,31.84,31.84
				C232.89,498,247.15,483.74,247.15,466.16z"/>
			<path style="fill:#787878;" d="M216.14,330.3c17.58,0,31.84,14.25,31.84,31.83c0,17.59-14.26,31.85-31.84,31.85
				c-17.59,0-31.85-14.26-31.85-31.85C184.29,344.55,198.55,330.3,216.14,330.3z"/>
			<path style="fill:#787878;" d="M215.31,434.32c17.58,0,31.84,14.25,31.84,31.84c0,17.58-14.26,31.84-31.84,31.84
				c-17.59,0-31.84-14.26-31.84-31.84C183.47,448.57,197.72,434.32,215.31,434.32z"/>
		</g>
		<g>
			<line style="fill:none;stroke:#000000;stroke-width:19.9156;" x1="348.62" y1="348.32" x2="348.62" y2="382.53"/>
			<path style="fill:none;stroke:#000000;stroke-width:19.9156;" d="M348.62,436.92v162.39c0,7.49-6.32,13.561-14.11,13.561H88.2
				c-7.79,0-14.11-6.07-14.11-13.561V234.93c0-7.5,6.32-13.57,14.11-13.57h221.83h24.48c7.79,0,14.11,6.07,14.11,13.57v59"/>
			<path style="fill:none;stroke:#000000;stroke-width:19.9156;" d="M166.03,530.62c-3.17,0-5.73-3.54-5.73-7.9V310.59
				c0-4.36,2.56-7.9,5.73-7.9h99.98c3.17,0,5.73,3.54,5.73,7.9v212.13c0,4.36-2.56,7.9-5.73,7.9H166.03z"/>
			<path style="fill:none;stroke:#000000;stroke-width:19.9156;" d="M216.14,393.98c-17.59,0-31.85-14.26-31.85-31.85
				c0-17.58,14.26-31.83,31.85-31.83c17.58,0,31.84,14.25,31.84,31.83C247.98,379.72,233.72,393.98,216.14,393.98z"/>
			<path style="fill:none;stroke:#000000;stroke-width:19.9156;" d="M215.31,498c-17.59,0-31.84-14.26-31.84-31.84
				c0-17.59,14.25-31.84,31.84-31.84c17.58,0,31.84,14.25,31.84,31.84C247.15,483.74,232.89,498,215.31,498z"/>
			<rect x="348.62" y="293.93" style="fill:none;stroke:#000000;stroke-width:19.9156;" width="24.36" height="54.39"/>
			<polygon style="fill:none;stroke:#000000;stroke-width:19.9156;" points="348.62,436.92 348.35,436.92 348.35,382.53 
				348.62,382.53 372.71,382.53 372.71,436.92 			"/>
			<polyline style="fill:none;stroke:#000000;stroke-width:29.8734;stroke-linecap:round;stroke-linejoin:round;" points="
				319.99,185.05 310.03,185.05 291.36,185.05 291.36,214.93 			"/>
			<line style="fill:none;stroke:#000000;stroke-width:9.9578;" x1="310.03" y1="185.05" x2="310.03" y2="221.36"/>
			<line style="fill:none;stroke:#000000;stroke-width:14.9367;" x1="247.98" y1="362.13" x2="247.98" y2="462.04"/>
			<path style="fill:none;stroke:#000000;stroke-width:14.9367;" d="M683.56,313.57c6.801-7.2,16.48-9.94,24.37-6.09
				c10.19,4.99,13.521,19.11,7.44,31.54c-6.09,12.43-19.28,18.48-29.47,13.49c-4.62-2.26-7.841-6.41-9.4-11.42
				c-1.87-6.04-1.36-13.34,1.96-20.13C679.84,318.15,681.58,315.67,683.56,313.57z"/>
			<path style="fill:none;stroke:#000000;stroke-width:14.9367;" d="M683.6,313.56c0,0-0.01,0-0.04,0.01
				c-0.77,0.27-13.239,4.74-22.609,19.41c-9.66,15.14-24.431,52.34-24.431,52.34l-2.09,8.47l8.471,2.08l33.6-54.78l0.01-0.02"/>
			<path style="fill:none;stroke:#000000;stroke-width:14.9367;" d="M805.06,340.9c3.49-9.26,1.7-19.16-5.22-24.55
				c-8.95-6.97-23.1-3.77-31.609,7.15c-8.5,10.94-8.141,25.44,0.819,32.4c4.061,3.16,9.2,4.23,14.391,3.43
				c6.239-0.96,12.579-4.62,17.22-10.59C802.58,346.27,804.05,343.61,805.06,340.9z"/>
			<path style="fill:none;stroke:#000000;stroke-width:14.9367;" d="M805.06,340.88c0,0,0,0.01,0,0.02
				c0.08,0.61,1.631,13.88-7.52,28.85c-9.36,15.32-36.3,44.93-36.3,44.93l-6.69,5.59l-2.63-3.15l-2.96-3.55l34.48-54.24l0.01-0.02"
				/>
			<path style="fill:none;stroke:#000000;stroke-width:14.9367;" d="M634.86,394.83c-16.19,14.42-3.62,38.41,2.5,54.77
				c8.479,22.681,17.31,42.261,16.25,66.9c-1.311,30.79-18.721,56.35-42.62,73.31c-24.98,17.75-57.07,26.101-85.24,21.19
				c-48.8-8.5-96.27-44.81-77.75-121.77c2.64-10.971,7.64-20.841,13.97-29.87l2.04-2.79c47.67-66.97,40.41-131.11,0.67-191.85
				c-29.239-44.69-84.47-76.53-138.459-77.18"/>
			<path style="fill:none;stroke:#000000;stroke-width:14.9367;" d="M610.52,590.12c0.15-0.101,0.311-0.21,0.471-0.311
				c34.399-22.859,89.899-48.729,109.63-87.42c11.81-23.159,14.53-62.26,31.3-85.27c3.17-4.34,6.83-8.11,11.15-11.09"/>
		</g>
	</g>
</g>
<rect style="fill:none;" width="850.394" height="850.394"/>
</svg>
