<?xml version="1.0" encoding="iso-8859-1"?>
<!-- Generator: Adobe Illustrator 12.0.1, SVG Export Plug-In . SVG Version: 6.00 Build 51448)  -->
<!DOCTYPE svg PUBLIC "-//W3C//DTD SVG 1.1//EN" "http://www.w3.org/Graphics/SVG/1.1/DTD/svg11.dtd" [
	<!ENTITY ns_svg "http://www.w3.org/2000/svg">
	<!ENTITY ns_xlink "http://www.w3.org/1999/xlink">
]>
<svg  version="1.1" id="Layer_1" xmlns="&ns_svg;" xmlns:xlink="&ns_xlink;" width="850.394" height="850.394"
	 viewBox="0 0 850.394 850.394" style="overflow:visible;enable-background:new 0 0 850.394 850.394;" xml:space="preserve">
<g id="XMLID_12_">
	<g>
		<path style="fill:#FAA41F;" d="M591.53,628.13c-1.53-37.46,28.71-54.56,28.71-54.56l2.47-1.28c1.53,3.18,3.97,5.25,6.73,5.25
			c1.3,0,2.529-0.46,3.63-1.29l3.149,0.17c0,0,23.38,9.55,24.431,47.021l-0.011,0.869c-11.64,0.96-2.189,31.721-14.04,43.95
			c-9.29,9.59-27.659,15.3-39.85,1.63l0.01-0.01c-14.46-18.06-4.39-41.13-15.189-40.91L591.53,628.13z"/>
		<path style="fill:#FAA41F;" d="M629.44,551.39c4.63,0,8.38,5.851,8.38,13.07c0,5.19-1.94,9.68-4.75,11.79
			c-1.101,0.83-2.33,1.29-3.63,1.29c-2.761,0-5.2-2.07-6.73-5.25c-1.04-2.19-1.66-4.9-1.66-7.83
			C621.05,557.24,624.81,551.39,629.44,551.39z"/>
		<path style="fill:#FAA41F;" d="M599.86,479.65l-0.73,0.42c-2.87-0.67-43.17-9.141-58.06,44.439
			c-10.5,37.78-8.71,88.03,11.5,105.21c20.21,17.2,31.1,19.16,31.1,19.16l0.93-0.12c0.99,7.61,2.301,17.03,1.4,27.63
			c-2.23,26.21-11.71,29.301-33.58,30.49c-21.87,1.2-29.939-20.09-38.78-38.04c-8.84-17.95-28.08-25.88-38.659-49.76
			c-10.591-23.89-1.101-26.97,5.779-42.28c6.88-15.28-6.88-14.12-13.22-44.18c-6.33-30.07,18.11-27.16,13.43-46.18
			c-4.68-19.021-4.439-27.74,7.09-46.83c5.99-9.9,15.141-4.21,21.95-21.01c6.83-16.79,10.811-22.35,37.26-28.84
			c26.45-6.49,27.53,27.1,42.12,38.811c14.58,11.71,7.2,20.67,7.641,40.22C597.13,473.17,598.2,476.74,599.86,479.65z"/>
		<path style="fill:#FAA41F;" d="M761.2,474.49c-3.36,19.3,20.819,14.72,16.58,45.149c-4.25,30.42-18.061,30.221-10.15,44.99
			c7.92,14.79,17.59,17.21,8.67,41.78c-8.899,24.55-27.56,33.78-35.13,52.29c-7.59,18.53-14.17,40.319-36.08,40.63
			c-21.89,0.31-31.57-2.12-35.59-28.11c-1.63-10.52-0.98-20.02-0.52-27.68l0.939,0.06c0,0,10.73-2.699,29.71-21.239
			c18.99-18.54,17.311-68.79,4.24-105.75c-17.96-50.761-55.68-41.87-60.61-40.46c1.17-3.16,1.62-6.881,0.94-11.28
			c-3-19.33-8.891-27.96,4.859-40.65c13.74-12.69,12.5-46.27,39.341-41.62c26.83,4.65,31.18,9.93,39.149,26.21
			c7.96,16.28,16.7,9.98,23.351,19.45C763.72,446.51,764.55,455.19,761.2,474.49z"/>
		<path style="fill:#FAA41F;" d="M661.88,624.32c-0.439-0.04-0.85-0.04-1.24-0.011l0.011-0.869
			C659.6,585.97,636.22,576.42,636.22,576.42l-3.149-0.17c2.81-2.11,4.75-6.6,4.75-11.79c0-7.22-3.75-13.07-8.38-13.07
			c-4.631,0-8.391,5.851-8.391,13.07c0,2.93,0.62,5.64,1.66,7.83l-2.47,1.28c0,0-30.24,17.1-28.71,54.56l0.04,0.84
			c-0.37,0-0.78,0.04-1.2,0.101c-8,1.229-7.23,8.479-5.771,19.689l-0.93,0.12c0,0-10.89-1.96-31.1-19.16
			c-20.21-17.18-22-67.43-11.5-105.21c14.89-53.58,55.189-45.109,58.06-44.439l0.73-0.42c5.46,9.59,17.33,12.05,22.08,12.659
			c3.75-0.899,17.14-4.859,21.319-16.159c4.931-1.41,42.65-10.301,60.61,40.46c13.07,36.96,14.75,87.21-4.24,105.75
			C680.65,640.9,669.92,643.6,669.92,643.6l-0.939-0.06C669.67,632.27,669.94,624.99,661.88,624.32z"/>
		<path style="fill:#F6CC4B;" d="M280.43,588.4l-1.77,2.569c-6.6,11.16-18.27,19.771-38.03,19.86l-0.01-0.44
			c-30.76-16.18-61.79-57.609-68.14-70.699c-8.24-16.971-14.82-32.07-14.22-51.431c0.68-21.63,5.36-42.1-1.12-63.57
			c-5.19-17.16-18.57-30.54-27.1-45.95c-5.16-9.31-5.7-16.68-6.16-26.83c-0.92-20.3-0.79-42.62,12.82-58.99
			c14.31-17.22,23.19-24.15,21.63-49.22c-1.08-17.15-8.68-31.36-3.83-47.55c5.76-19.26,20.57-32.4,31.6-39.9
			c33.32-11.83,47.45-1.06,48.75,0.01c-30.78,15.73-39.68,57.11-41.99,72.12c-3.23,21.04,9.72,83.36,1.62,127.07
			c-8.09,43.7,9.72,106.83,23.47,153.77C228.33,544.62,252.04,576.79,280.43,588.4z"/>
		<path style="fill:#F6CC4B;" d="M172.48,539.69c6.35,13.09,37.38,54.52,68.14,70.699l0.01,0.44c-11.77,0.06-26.4-2.9-44.53-10.15
			c-48.56-19.42-82.55-46.13-111.69-130.3C55.27,386.2,81.17,290.7,81.17,290.7c17.81-46.94,49.37-112.5,100.36-132.73
			c1.56-0.62,3.08-1.19,4.57-1.72c-11.03,7.5-25.84,20.64-31.6,39.9c-4.85,16.19,2.75,30.4,3.83,47.55
			c1.56,25.07-7.32,32-21.63,49.22c-13.61,16.37-13.74,38.69-12.82,58.99c0.46,10.15,1,17.52,6.16,26.83
			c8.53,15.41,21.91,28.79,27.1,45.95c6.48,21.47,1.8,41.94,1.12,63.57C157.66,507.62,164.24,522.72,172.48,539.69z"/>
		<path style="fill:#F6CC4B;" d="M425.15,511.65c-22.82,43.5-63.87,69.409-100.99,78.279c-5.01,1.2-9.94,2.08-14.75,2.66
			c-3.47,0.42-6.93,0.49-10.34,0.26c-6.37-0.449-12.61-1.989-18.64-4.449c-28.39-11.61-52.1-43.78-62.48-79.181
			c-13.75-46.939-31.56-110.07-23.47-153.77c8.1-43.71-4.85-106.03-1.62-127.07c2.31-15.01,11.21-56.39,41.99-72.12
			c12.36-6.31,28.25-8.49,48.66-3.15l0.35,0.6c6.36-4.78,18.42-5.37,33.64-3.03c42.09,6.48,89.84,24.28,116.55,125.45
			S451.05,462.28,425.15,511.65z"/>
	</g>
	<g>
		<path style="fill:none;stroke:#231F20;stroke-width:14;" d="M620.96,492.52c0,0,0.36-0.069,0.98-0.21
			c3.75-0.899,17.14-4.859,21.319-16.159c1.17-3.16,1.62-6.881,0.94-11.28c-3-19.33-8.891-27.96,4.859-40.65
			c13.74-12.69,12.5-46.27,39.341-41.62c26.83,4.65,31.18,9.93,39.149,26.21c7.96,16.28,16.7,9.98,23.351,19.45
			c12.819,18.25,13.649,26.931,10.3,46.23c-3.36,19.3,20.819,14.72,16.58,45.149c-4.25,30.42-18.061,30.221-10.15,44.99
			c7.92,14.79,17.59,17.21,8.67,41.78c-8.899,24.55-27.56,33.78-35.13,52.29c-7.59,18.53-14.17,40.319-36.08,40.63
			c-21.89,0.31-31.57-2.12-35.59-28.11c-1.63-10.52-0.98-20.02-0.52-27.68c0.689-11.271,0.96-18.55-7.101-19.22
			c-0.439-0.04-0.85-0.04-1.24-0.011c-11.64,0.96-2.189,31.721-14.04,43.95c-9.29,9.59-27.659,15.3-39.85,1.63
			c-1.78-2.01-3.44-4.43-4.91-7.33"/>
		<path style="fill:none;stroke:#231F20;stroke-width:14;" d="M642.72,476.31c0,0,0.19-0.06,0.54-0.159
			c4.931-1.41,42.65-10.301,60.61,40.46c13.07,36.96,14.75,87.21-4.24,105.75C680.65,640.9,669.92,643.6,669.92,643.6"/>
		<path style="fill:none;stroke:#231F20;stroke-width:14;" d="M633.07,576.25c-1.101,0.83-2.33,1.29-3.63,1.29
			c-2.761,0-5.2-2.07-6.73-5.25c-1.04-2.19-1.66-4.9-1.66-7.83c0-7.22,3.76-13.07,8.391-13.07c4.63,0,8.38,5.851,8.38,13.07
			C637.82,569.65,635.88,574.14,633.07,576.25z"/>
		<path style="fill:none;stroke:#231F20;stroke-width:14;" d="M636.22,576.42c0,0,23.38,9.55,24.431,47.021"/>
		<path style="fill:none;stroke:#231F20;stroke-width:14;" d="M623.97,492.5c0,0-0.76-0.03-2.029-0.19
			c-4.75-0.609-16.62-3.069-22.08-12.659c-1.66-2.91-2.73-6.48-2.83-10.86c-0.44-19.55,6.939-28.51-7.641-40.22
			c-14.59-11.71-15.67-45.3-42.12-38.811c-26.449,6.49-30.43,12.05-37.26,28.84c-6.81,16.8-15.96,11.11-21.95,21.01
			c-11.529,19.09-11.77,27.81-7.09,46.83c4.681,19.02-19.76,16.109-13.43,46.18c6.34,30.06,20.1,28.899,13.22,44.18
			c-6.88,15.311-16.37,18.391-5.779,42.28c10.579,23.88,29.819,31.81,38.659,49.76c8.841,17.95,16.91,39.24,38.78,38.04
			c21.87-1.189,31.35-4.28,33.58-30.49c0.9-10.6-0.41-20.02-1.4-27.63c-1.46-11.21-2.229-18.46,5.771-19.689
			c0.42-0.061,0.83-0.101,1.2-0.101c10.8-0.22,0.729,22.851,15.189,40.91"/>
		<path style="fill:none;stroke:#231F20;stroke-width:14;" d="M599.29,480.11c0,0-0.05-0.011-0.16-0.04
			c-2.87-0.67-43.17-9.141-58.06,44.439c-10.5,37.78-8.71,88.03,11.5,105.21c20.21,17.2,31.1,19.16,31.1,19.16"/>
		<path style="fill:none;stroke:#231F20;stroke-width:14;" d="M620.24,573.57c0,0-30.24,17.1-28.71,54.56"/>
		<path style="fill:none;stroke:#231F20;stroke-width:14;stroke-linecap:round;stroke-linejoin:round;" d="M281.46,156.06
			c0.68-0.88,1.48-1.66,2.4-2.35c6.36-4.78,18.42-5.37,33.64-3.03c42.09,6.48,89.84,24.28,116.55,125.45s17,186.15-8.9,235.521
			c-22.82,43.5-63.87,69.409-100.99,78.279c-5.01,1.2-9.94,2.08-14.75,2.66c-3.47,0.42-6.93,0.49-10.34,0.26
			c-6.37-0.449-12.61-1.989-18.64-4.449c-28.39-11.61-52.1-43.78-62.48-79.181c-13.75-46.939-31.56-110.07-23.47-153.77
			c8.1-43.71-4.85-106.03-1.62-127.07c2.31-15.01,11.21-56.39,41.99-72.12c12.36-6.31,28.25-8.49,48.66-3.15"/>
		<path style="fill:none;stroke:#231F20;stroke-width:14;" d="M234.95,156.35c0,0-0.03-0.03-0.1-0.09
			c-1.3-1.07-15.43-11.84-48.75-0.01c-1.49,0.53-3.01,1.1-4.57,1.72C130.54,178.2,98.98,243.76,81.17,290.7
			c0,0-25.9,95.5,3.24,179.68c29.14,84.17,63.13,110.88,111.69,130.3c18.13,7.25,32.76,10.21,44.53,10.15
			c19.76-0.09,31.43-8.7,38.03-19.86"/>
		<path style="fill:none;stroke:#231F20;stroke-width:14;stroke-linecap:round;stroke-linejoin:round;" d="M270.56,189.8
			c1.32,4.95-7.78,40.7-8.92,46.9c-1.74,9.49-2.8,16.4,0.24,26.05c5.03,15.96,15.22,31.02,16.6,47.92
			c1.71,21.13-7.26,39.06-12.57,58.89c-4.75,17.74-1.57,33.01,2.83,50.34c3.75,14.791,10.86,27.291,9.13,43.34
			c-1.7,15.689-8.88,30.38-9.73,46.31c-0.93,17.42,4.87,35.53,11.08,51.74c4.52,11.78,13.51,21.52,19.85,31.56
			c0.8,1.25,1.55,2.511,2.25,3.78"/>
		<path style="fill:none;stroke:#231F20;stroke-width:14;stroke-linecap:round;stroke-linejoin:round;" d="M335.31,227.57
			c1.32,5.25-6.16,18.79-7.3,25.36c-1.74,10.04-2.8,17.36,0.24,27.57c5.02,16.89,15.22,32.84,16.59,50.71
			c1.72,22.37-7.25,41.35-12.56,62.33c-4.75,18.77-1.57,34.93,2.83,53.28c3.75,15.64,10.85,28.89,9.12,45.87
			c-1.69,16.55-2.44,74.43-20.07,97.239c-0.06,0.08-0.12,0.16-0.18,0.23"/>
		<path style="fill:none;stroke:#231F20;stroke-width:14;stroke-linecap:round;stroke-linejoin:round;" d="M393.79,322.35
			c1.31,5.25-6.17,18.79-7.31,25.36c-1.74,10.04-2.8,17.37,0.24,27.57c5.03,16.9,15.22,32.84,16.6,50.71
			c1.72,22.37-7.26,41.35-12.57,62.33c-4.5,17.79-0.4,53.279-32.78,83.5"/>
		<path style="fill:none;stroke:#231F20;stroke-width:14;stroke-linecap:round;stroke-linejoin:round;" d="M192.86,152.03
			c-1.96,1.12-4.26,2.53-6.76,4.22c-11.03,7.5-25.84,20.64-31.6,39.9c-4.85,16.19,2.75,30.4,3.83,47.55
			c1.56,25.07-7.32,32-21.63,49.22c-13.61,16.37-13.74,38.69-12.82,58.99c0.46,10.15,1,17.52,6.16,26.83
			c8.53,15.41,21.91,28.79,27.1,45.95c6.48,21.47,1.8,41.94,1.12,63.57c-0.6,19.36,5.98,34.46,14.22,51.431
			c6.35,13.09,37.38,54.52,68.14,70.699"/>
	</g>
</g>
<rect style="fill:none;" width="850.394" height="850.394"/>
</svg>
