<svg xmlns="http://www.w3.org/2000/svg" width="850.394" height="850.394" viewBox="0 0 850.394 850.394" overflow="visible"><path d="M383.19 543.79c-12.48 8.6-27.51 23.53-38.56 25.43-4.19.73-7.81-.41-10.5-4.479-1.02-1.54-3.02-5.641-5.61-11.36-1.78-3.91-3.84-8.58-6.05-13.71-11.74-27.229-27.89-67.32-29.94-74.96-3.01-11.18 35.02-164.12 43.2-178.31S440 230 440 230l3-1.14c9.65 25.52 29.13 43.3 52.33 44.34 24.479 1.1 46.51-16.7 57.99-43.57l.68.37 82.62 47.47s39.91 143.97 36.84 177.169C670.4 487.86 632.5 566.76 630.05 571c-.26.46-.859.67-1.74.67-7.31 0-34.22-14.47-51.529-20.939l-2.101 1.39c-3.319 6.03-7.79 11.38-12.62 16.43l-1.13-1.09h-68.78v.021h-89.17c-5.85-7.171-10.49-14.53-15.36-23.391l-4.43-.301z" fill="#a8d7f4"/><path d="M553.32 229.63c-11.48 26.87-33.511 44.67-57.99 43.57-23.2-1.04-42.68-18.82-52.33-44.34-4.7-12.43-7.07-26.7-6.39-41.77 2.08-46.01 31.729-82.04 66.239-80.49 34.5 1.55 60.79 40.12 58.721 86.12-.61 13.37-3.54 25.9-8.25 36.91z" fill="#ffeec8"/><path d="M347.14 738.58c7.6 0 13.77-6.16 13.77-13.771 0-7.609-6.17-13.779-13.77-13.779-7.61 0-13.78 6.17-13.78 13.779 0 7.611 6.17 13.771 13.78 13.771zm313.03-67.31s-2.32-6.899 1.24-12.409l.72.029 26.11 71.7c1.779 7.73-4.82 10.78-10.771 10.78H492.15l-184.9.02c-4.13 0-8.56-1.46-10.3-4.93-.77-1.54-1.02-3.47-.47-5.84l50.35-133.811c1.2 2.28 2.75 4.7 4.64 7.58 6.28 9.57 14.22 16.96 24.8 21.24 3.28 1.33 6.62 1.49 10.05.86l.73 3.67c1.58 21.979 28.96 49.6 66.08 64.359 44.061 17.53 87.4 12.561 96.811-11.09 7.79-19.59-10.131-45.85-41.551-64.239l32.79-8.87c.25-10.29 1.28-21.851 6.45-27.261 4.62-4.819 9.7-9.52 14.43-14.51 4.83-5.05 9.301-10.399 12.62-16.43l2.101-1.39c17.31 6.47 44.22 20.939 51.529 20.939l.41 3.65c.811.93 1.54 1.899 2.19 2.91l20.16 53.609.42 1.37c-14.75 4.79-15.07 19.56-15.07 19.56 0 3.261 1.11 21.021 1.11 24.62 0 7.904 22.64 8.954 22.64-6.116zm-26.88 47.68c0-7.601-6.18-13.78-13.78-13.78-7.609 0-13.77 6.18-13.77 13.78 0 7.609 6.16 13.78 13.77 13.78 7.6 0 13.78-6.17 13.78-13.78zm-7.5-38.56c0-10.56-8.56-19.109-19.12-19.109-10.55 0-19.1 8.55-19.1 19.109 0 10.551 8.55 19.11 19.1 19.11 10.56 0 19.12-8.56 19.12-19.11zm-42.85 33.01c0-7.61-6.181-13.78-13.771-13.78-7.62 0-13.78 6.17-13.78 13.78 0 7.6 6.16 13.77 13.78 13.77 7.591 0 13.771-6.17 13.771-13.77zm-182.98 1.15c0-7.6-6.17-13.77-13.78-13.77-7.61 0-13.78 6.17-13.78 13.77 0 7.61 6.17 13.78 13.78 13.78 7.61 0 13.78-6.17 13.78-13.78zm-20.86-42.27c0-10.561-8.55-19.11-19.11-19.11-10.55 0-19.11 8.55-19.11 19.11 0 10.55 8.56 19.109 19.11 19.109 10.56.001 19.11-8.559 19.11-19.109z" fill="#fff5b4"/><path d="M746.18 724.05c-16.75 0-30.34-7.05-30.34-15.76 0-3.85 2.04-6.95 6.43-9.7L724 650l-.25-2.37c3.28-.35 6.49-.71 9.61-1.1h.01c4.31-1.2 6.06-5.431 6.06-10.19 0-6.87-3.66-14.81-8.56-16.189-2.69.35-5.521.729-8.44 1.14l-.16-1.13v-16.95h.28c0 6.34 10.561 11.49 23.58 11.49 12.41 0 22.59-4.681 23.5-10.62l-.43 93.939c4.56 2.75 7.33 6.341 7.33 10.271 0 8.709-13.59 15.759-30.35 15.759z" fill="#c8c8c8"/><path d="M723.75 647.63c-16.59 1.79-34.69 3.14-49.46 4.75-7.08.76-10.89 3.41-12.88 6.48-3.561 5.51-1.24 12.409-1.24 12.409 0 15.07-22.64 14.021-22.64 6.12 0-3.6-1.11-21.359-1.11-24.62 0 0 .32-14.77 15.07-19.56.99-.32 2.029-.6 3.149-.82 16.83-3.37 45.181-7.97 67.79-11.1 2.92-.41 5.75-.79 8.44-1.14 4.899 1.38 8.56 9.319 8.56 16.189 0 4.76-1.75 8.99-6.06 10.19h-.01c-3.119.392-6.329.752-9.609 1.102zM769.78 570.23l-.15 33.85c-.91 5.939-11.09 10.62-23.5 10.62-13.02 0-23.58-5.15-23.58-11.49h-.28v-3.08l10.36-1.3c5.95-1.75 5.351-8.79-.84-9.75l-9.35 1.18-.171-1.34v-18.69l.431-.301c3.13 4.88 12.46 8.42 23.479 8.42 10.92 0 20.17-3.46 23.38-8.27l.221.151z" fill="#c8c8c8"/><path d="M770.78 566.34c0 1.311-.431 2.57-1.221 3.74-3.21 4.81-12.46 8.27-23.38 8.27-11.02 0-20.35-3.54-23.479-8.42-.73-1.13-1.12-2.34-1.12-3.59 0-6.62 11.02-12 24.6-12 13.6 0 24.6 5.38 24.6 12zM731.79 589.08c6.19.96 6.79 8 .84 9.75l-10.36 1.3-38.89 4.89a4.179 4.179 0 0 1-4.67-3.63l-.17-1.39a4.157 4.157 0 0 1 3.62-4.67l40.28-5.07 9.35-1.18z" fill="#c8c8c8"/><path d="M619.51 705.17c7.601 0 13.78 6.18 13.78 13.78 0 7.609-6.18 13.78-13.78 13.78-7.609 0-13.77-6.171-13.77-13.78 0-7.6 6.16-13.78 13.77-13.78zM606.67 661.28c10.561 0 19.12 8.55 19.12 19.109 0 10.551-8.56 19.11-19.12 19.11-10.55 0-19.1-8.56-19.1-19.11 0-10.559 8.55-19.109 19.1-19.109zM569.17 699.62c7.59 0 13.771 6.17 13.771 13.78 0 7.6-6.181 13.77-13.771 13.77-7.62 0-13.78-6.17-13.78-13.77 0-7.61 6.16-13.78 13.78-13.78z" fill="#fff"/><path d="M492.15 567.48v-.021h68.779l1.13 1.09c-4.729 4.99-9.81 9.69-14.43 14.51-5.17 5.41-6.2 16.971-6.45 27.261l-32.79 8.87c-6.52-3.82-13.62-7.301-21.189-10.311-22.66-9.02-45.13-12.09-62.89-9.72l-4.85.66c-1.83-9.61-5.03-19.811-9.8-24.79-2.42-2.53-4.63-5.03-6.68-7.55h89.17z" fill="#fff5b4"/><path d="M508.39 619.19c31.42 18.39 49.341 44.649 41.551 64.239-9.41 23.65-52.75 28.62-96.811 11.09-37.12-14.76-64.5-42.38-66.08-64.359l-.73-3.67c10.45-1.91 21.73-11.16 34.56-17.061-.31-2.97-.78-6.25-1.42-9.609l4.85-.66c17.76-2.37 40.23.7 62.89 9.72 7.57 3.01 14.67 6.49 21.19 10.31z" fill="#fff"/><path d="M345.12 571.8l-.49-2.58c11.05-1.899 26.08-16.83 38.56-25.43l4.43.3c4.87 8.86 9.51 16.22 15.36 23.391 2.05 2.52 4.26 5.02 6.68 7.55 4.77 4.979 7.97 15.18 9.8 24.79.64 3.359 1.11 6.64 1.42 9.609-12.83 5.9-24.11 15.15-34.56 17.061-3.43.63-6.77.47-10.05-.86-10.58-4.28-18.52-11.67-24.8-21.24-1.89-2.88-3.44-5.3-4.64-7.58-3.61-6.841-4.15-12.381-1.71-25.011z" fill="#ffeec8"/><path d="M386.18 700.78c7.61 0 13.78 6.17 13.78 13.77 0 7.61-6.17 13.78-13.78 13.78-7.61 0-13.78-6.17-13.78-13.78 0-7.6 6.17-13.77 13.78-13.77zM359.99 653.17c10.56 0 19.11 8.55 19.11 19.11 0 10.55-8.55 19.109-19.11 19.109-10.55 0-19.11-8.56-19.11-19.109 0-10.56 8.56-19.11 19.11-19.11zM347.14 711.03c7.6 0 13.77 6.17 13.77 13.779 0 7.61-6.17 13.771-13.77 13.771-7.61 0-13.78-6.16-13.78-13.771 0-7.609 6.17-13.779 13.78-13.779z" fill="#fff"/><path d="M346.83 596.81l-50.35 133.81c-.55 2.37-.3 4.3.47 5.84L294 738H42l30.21-184.43h255.08l1.23-.19c2.59 5.72 4.59 9.82 5.61 11.36 2.69 4.069 6.31 5.21 10.5 4.479l.49 2.58c-2.44 12.631-1.9 18.171 1.71 25.011zm-50.18-4.92s1.1-4.6-.82-4.68c-4.91-.229-15.37-.31-15.37-.31h-.04a77.58 77.58 0 0 0-.11-2.78v-.061c.01-.119.01-.239.01-.359 0-9.01-18.2-16.32-40.65-16.32s-40.65 7.311-40.65 16.32c0 0-1.79 21.54 6.14 38.83h-.01c-10.33 3.229-18.38 7.88-22.81 13.34-4.3-.521-8.71-.89-13.21-1.11-47.36-2.33-86.59 12.94-87.64 34.12-1.04 21.17 36.51 40.22 83.87 42.55 47.36 2.32 86.6-12.949 87.64-34.12.12-2.409.59-3.18.26-4.56 26.92-2.87 46.98-13.94 46.98-27.16 0-9.5-10.36-17.88-26.17-22.92.57-1.22 1.08-2.46 1.55-3.71l.6.21c2.92-.88 7.64-3.84 12.23-10.22 1.13-1.58 2.26-3.37 3.35-5.391 2.04-3.799 4.12-8.309 4.85-11.669z" fill="#abd150"/><path d="M295.83 587.21c1.92.08.82 4.68.82 4.68-.73 3.36-2.81 7.87-4.85 11.67a50.306 50.306 0 0 1-3.35 5.391c-4.59 6.38-9.31 9.34-12.23 10.22l-.6-.21c4.66-12.39 4.95-26 4.8-32.06h.04c0-.001 10.46.079 15.37.309z" fill="#abd150"/><path d="M253.26 672.75c-4.45.48-9.1.73-13.87.73-33.61 0-60.85-12.48-60.85-27.891 0-3.42 1.34-6.7 3.8-9.72 4.43-5.46 12.48-10.11 22.81-13.34h.01c5.51 12.04 15.73 22.029 34.54 21.26l-.1-.03c9.87.41 17.39-2.16 23.09-6.43 5.11-3.82 8.77-9.01 11.38-14.66 15.81 5.04 26.17 13.42 26.17 22.92 0 13.221-20.06 24.291-46.98 27.161z" fill="#fff"/><path d="M274.07 622.67c-2.61 5.65-6.27 10.84-11.38 14.66-5.7 4.27-13.22 6.84-23.09 6.43l.1.03c-18.81.77-29.03-9.22-34.54-21.26-7.93-17.29-6.14-38.83-6.14-38.83 0 9.01 18.2 16.33 40.65 16.33 22.1 0 40.08-7.09 40.64-15.91.03.51.08 1.47.11 2.78.15 6.06-.14 19.67-4.8 32.06-.47 1.25-.98 2.49-1.55 3.71z" fill="#ef947d"/><path d="M280.31 584.06v.061c-.56 8.82-18.54 15.91-40.64 15.91-22.45 0-40.65-7.32-40.65-16.33s18.2-16.32 40.65-16.32 40.65 7.311 40.65 16.32c0 .119 0 .239-.01.359z" fill="#fff"/><path d="M253.26 672.75c.33 1.38-.14 2.15-.26 4.56-1.04 21.171-40.28 36.44-87.64 34.12-47.36-2.33-84.91-21.38-83.87-42.55 1.05-21.18 40.28-36.45 87.64-34.12 4.5.221 8.91.59 13.21 1.11-2.46 3.02-3.8 6.3-3.8 9.72 0 15.41 27.24 27.891 60.85 27.891 4.77-.001 9.42-.251 13.87-.731z" fill="#ef947d"/><g fill="none" stroke="#231f20"><path d="M252.33 670.52c.51.961.79 1.65.93 2.23.33 1.38-.14 2.15-.26 4.56-1.04 21.171-40.28 36.44-87.64 34.12-47.36-2.33-84.91-21.38-83.87-42.55 1.05-21.18 40.28-36.45 87.64-34.12 4.5.221 8.91.59 13.21 1.11.67.07 1.34.149 2 .24M402.98 567.48h89.59M662.13 658.89l26.11 71.7c1.779 7.73-4.82 10.78-10.771 10.78H492.15l-184.9.02c-4.13 0-8.56-1.46-10.3-4.93-.77-1.54-1.02-3.47-.47-5.84l50.35-133.811.39-1.02M628.72 575.32c.811.93 1.54 1.899 2.19 2.91l20.16 53.609M492.15 567.46h68.78" stroke-width="14"/><path d="M443 228.86c-4.7-12.43-7.07-26.7-6.39-41.77 2.08-46.01 31.729-82.04 66.239-80.49 34.5 1.55 60.79 40.12 58.721 86.12-.61 13.37-3.54 25.9-8.25 36.91-11.48 26.87-33.511 44.67-57.99 43.57-23.2-1.04-42.68-18.82-52.33-44.34zM322.47 539.67c2.21 5.13 4.27 9.8 6.05 13.71 2.59 5.72 4.59 9.82 5.61 11.36 2.69 4.069 6.31 5.21 10.5 4.479 11.05-1.899 26.08-16.83 38.56-25.43 4.09-2.81 7.91-4.95 11.22-5.73 0 0-35.39-62.439-29.19-92.89 6.21-30.45 25.41-88.38 25.41-88.38" stroke-width="21"/><path d="M440 230s-96.09 42.21-104.27 56.4-46.21 167.13-43.2 178.31c2.05 7.64 18.2 47.73 29.94 74.96M554 230l82.62 47.47s39.91 143.97 36.84 177.169C670.4 487.86 632.5 566.76 630.05 571c-.26.46-.859.67-1.74.67-7.31 0-34.22-14.47-51.529-20.939 0 0 29.06-75.49 29.239-97.141.19-21.63-21.06-78.28-20.27-97.68" stroke-width="21"/><path d="M345.33 570.75l-.21 1.05c-2.44 12.63-1.9 18.17 1.71 25.01 1.2 2.28 2.75 4.7 4.64 7.58 6.28 9.57 14.22 16.96 24.8 21.24 3.28 1.33 6.62 1.49 10.05.86 10.45-1.91 21.73-11.16 34.56-17.061 1.21-.56 2.44-1.09 3.68-1.58" stroke-width="12.876"/><path d="M387.62 544.09c4.87 8.86 9.51 16.22 15.36 23.391 2.05 2.52 4.26 5.02 6.68 7.55 4.77 4.979 7.97 15.18 9.8 24.79.64 3.359 1.11 6.64 1.42 9.609.23 2.13.37 4.101.43 5.811M616.98 578.77c-.461 13.73 1.56 21.9-6.141 33.65-6.29 9.57-14.22 16.96-24.8 21.24-5 2.03-33.33-11.72-44.94-17.23-2.14-1.02-3.72-1.75-4.47-2.06" stroke-width="12.876"/><path d="M574.68 552.12c-3.319 6.03-7.79 11.38-12.62 16.43-4.729 4.99-9.81 9.69-14.43 14.51-5.17 5.41-6.2 16.971-6.45 27.261a338.23 338.23 0 0 0-.08 6.109c-.02 2.53-.04 4.86-.109 6.84" stroke-width="12.876"/><path d="M424.31 599.16c17.76-2.37 40.23.7 62.89 9.72 7.569 3.01 14.67 6.49 21.189 10.311 31.42 18.39 49.341 44.649 41.551 64.239-9.41 23.65-52.75 28.62-96.811 11.09-37.12-14.76-64.5-42.38-66.08-64.359" stroke-width="14"/><path d="M291.8 603.56c2.04-3.8 4.12-8.31 4.85-11.67 0 0 1.1-4.6-.82-4.68-4.91-.229-15.37-.31-15.37-.31M288.45 608.95c1.13-1.58 2.26-3.37 3.35-5.391M276.22 619.17c2.92-.88 7.64-3.84 12.23-10.22" stroke-width="7"/><path d="M280.31 584.12c-.56 8.82-18.54 15.91-40.64 15.91-22.45 0-40.65-7.32-40.65-16.33s18.2-16.32 40.65-16.32 40.65 7.311 40.65 16.32c0 .12 0 .24-.01.359M273.02 622.34c.35.11.71.22 1.05.33 15.81 5.04 26.17 13.42 26.17 22.92 0 13.22-20.06 24.29-46.98 27.16-4.45.48-9.1.73-13.87.73-33.61 0-60.85-12.48-60.85-27.891 0-3.42 1.34-6.7 3.8-9.72 4.43-5.46 12.48-10.11 22.81-13.34" stroke-width="14"/><path d="M262.69 637.33c-5.7 4.27-13.22 6.84-23.09 6.43l.1.03c-18.81.77-29.03-9.22-34.54-21.26-7.93-17.29-6.14-38.83-6.14-38.83M280.28 583.68l.03.38v.061c.03.51.08 1.47.11 2.78.15 6.06-.14 19.67-4.8 32.06-.47 1.25-.98 2.49-1.55 3.71-2.61 5.65-6.27 10.84-11.38 14.66" stroke-width="14"/><path stroke-width="21" d="M541.19 610.32h-.01l-32.79 8.87-51.63 13.97"/><path d="M458.45 630.58c-.2-.17-.41-.34-.62-.49-12.84-9.95-38.59-6.85-38.59 9.34" stroke-width="14" stroke-linecap="round" stroke-linejoin="round"/><path d="M461.21 628.71c-.99.47-2.13.92-3.38 1.38-.32.12-.64.23-.97.351-9.681 3.439-24.62 7.76-27.04 27.1" stroke-width="14" stroke-linecap="round" stroke-linejoin="round"/><path d="M456.86 630.43v.011c-4.65 9.819-6.511 21.56 3.05 31.109" stroke-width="14" stroke-linecap="round" stroke-linejoin="round"/><path stroke-width="14" d="M72.21 553.57h255.08"/><path d="M625.79 680.39c0 10.551-8.56 19.11-19.12 19.11-10.55 0-19.1-8.56-19.1-19.11 0-10.56 8.55-19.109 19.1-19.109 10.56-.001 19.12 8.549 19.12 19.109zM379.1 672.28c0 10.55-8.55 19.109-19.11 19.109-10.55 0-19.11-8.56-19.11-19.109 0-10.561 8.56-19.11 19.11-19.11 10.56 0 19.11 8.55 19.11 19.11zM633.29 718.95c0 7.609-6.18 13.78-13.78 13.78-7.609 0-13.77-6.171-13.77-13.78 0-7.601 6.16-13.78 13.77-13.78 7.6 0 13.78 6.18 13.78 13.78zM582.94 713.4c0 7.6-6.181 13.77-13.771 13.77-7.62 0-13.78-6.17-13.78-13.77 0-7.61 6.16-13.78 13.78-13.78 7.591 0 13.771 6.17 13.771 13.78zM399.96 714.55c0 7.61-6.17 13.78-13.78 13.78-7.61 0-13.78-6.17-13.78-13.78 0-7.6 6.17-13.77 13.78-13.77 7.61 0 13.78 6.17 13.78 13.77zM360.91 724.81c0 7.61-6.17 13.771-13.77 13.771-7.61 0-13.78-6.16-13.78-13.771 0-7.609 6.17-13.779 13.78-13.779 7.6-.001 13.77 6.169 13.77 13.779zM722.27 600.13v20.03" stroke-width="7"/><path stroke-width="14" d="M722.27 570.23v18.69M769.56 570.08c.79-1.17 1.221-2.43 1.221-3.74 0-6.62-11-12-24.601-12-13.58 0-24.6 5.38-24.6 12 0 1.25.39 2.46 1.12 3.59 3.13 4.88 12.46 8.42 23.479 8.42 10.921 0 20.171-3.46 23.381-8.27zM722.55 603.21c0 6.34 10.561 11.49 23.58 11.49 12.41 0 22.59-4.681 23.5-10.62.05-.29.07-.58.07-.87M734.44 646.39c-.351.051-.71.091-1.07.141h-.01c-3.12.39-6.33.75-9.61 1.1-16.59 1.79-34.69 3.14-49.46 4.75-7.08.76-10.89 3.41-12.88 6.48-3.561 5.51-1.24 12.409-1.24 12.409 0 15.07-22.64 14.021-22.64 6.12 0-3.6-1.11-21.359-1.11-24.62 0 0 .32-14.77 15.07-19.56.99-.32 2.029-.6 3.149-.82 16.83-3.37 45.181-7.97 67.79-11.1 2.92-.41 5.75-.79 8.44-1.14 4.899 1.38 8.56 9.319 8.56 16.189 0 4.76-1.75 8.99-6.06 10.19"/><path d="M722.44 590.26l9.35-1.18c6.19.96 6.79 8 .84 9.75l-10.36 1.3-38.89 4.89a4.179 4.179 0 0 1-4.67-3.63l-.17-1.39a4.157 4.157 0 0 1 3.62-4.67l40.28-5.07z" stroke-width="6.438"/><path d="M724 650l-1.73 48.59c-4.39 2.75-6.43 5.851-6.43 9.7 0 8.71 13.59 15.76 30.34 15.76 16.761 0 30.351-7.05 30.351-15.76 0-3.93-2.771-7.521-7.33-10.271l.43-93.939.15-33.85" stroke-width="14"/></g><path fill="none" d="M0 0h850.394v850.394H0z"/></svg>