<svg id="Layer_1" xmlns="http://www.w3.org/2000/svg" viewBox="0 0 850 850"><style>.st0{fill:#ffeec8}.st1{fill:#fff}.st2{fill:#a9d7f3}.st3{fill:#231f20}.st4{fill:#ee947d}.st5,.st6,.st7,.st8{fill:none;stroke:#231f20;stroke-width:14;stroke-linecap:round;stroke-miterlimit:10}.st6,.st7,.st8{stroke-width:6.75}.st7,.st8{stroke-width:21}.st8{stroke-width:3.25}</style><path class="st0" d="M262.6 412.5v6.8l.2 3.2.5 3 .5 2.8.8 2.2 1.2 1.8.5.7.8.5.2.3-.2 1.7h-.5l-8.8-1.7-9.5-1.3v-.2l-.7-.5-.8-.8-.7-1-.5-1-.8-2.5-.7-3.2-.3-3.3-.2-3.7.2-7.5 9.5 1.7z"/><path class="st0" d="M248.3 432.5l-5.2-.5-5-.2h-7.5v-.3l-1-.5-.8-.7-.7-1-.8-1-1.2-2.8-.8-3.2-.7-3.5-.5-3.8-.3-4-.2-3.7h2l9 .5 9.2 1-.2 7.5.2 3.7.3 3.3.7 3.2.8 2.5.5 1 .7 1 .8.8.7.5z"/><path class="st0" d="M230.6 431.8l-4 .2h-1.5l-6 .5-6.3.5v-.7l-1-.5-.7-.8-.8-1-.7-1-1.3-2.7-.7-3.3-.8-3.7-.5-3.8-.5-7.7 8.8-.5h9l.2 3.7.3 4 .5 3.8.7 3.5.8 3.2 1.2 2.8.8 1 .7 1 .8.7 1 .5z"/><path class="st0" d="M212.8 432.3v.7l-8.7 1.5-8.8 1.8-1-.8-.7-1-1.8-2.2-1.5-2.8-1.5-3.2-1.2-3.8-1-3.7-2-8.3 10.5-1.5 5.2-.7 5.5-.5.5 7.7.5 3.8.8 3.7.7 3.3 1.3 2.7.7 1 .8 1 .7.8z"/><path class="st0" d="M195.3 436.3l-4 1-7.5 2-7.5 2.5-2-1.8-2-2.5-2-3-1.7-3.2-2-3.5-1.8-3.8-3-7.7 5.3-1.5 5.7-1.5 5.8-1.5 6-1.3 2 8.3 1 3.7 1.2 3.8 1.5 3.2 1.5 2.8 1.8 2.2.7 1z"/><path class="st0" d="M161.8 416.3l3 7.7 1.8 3.8 2 3.5 1.7 3.2 2 3 2 2.5 2 1.8-5.2 2-5 2-9.5 4.2-1.3-.7-1.2-.8-2.3-2-2.5-2.7-2.5-3.3-2.2-3.5-2.3-4-4.2-8 5.5-2.2 5.7-2.3 6.3-2.2z"/><path class="st0" d="M138.1 425l4.2 8 2.3 4 2.2 3.5 2.5 3.3 2.5 2.7 2.3 2 1.2.8 1.3.7-10.3 5-9.2 5.3-1.3-.5-1.2-.8-1.3-.7-1.2-1-2.5-2.8-2.5-3.2-2.5-3.8-2.5-4.2-4.5-8.3 9.7-5z"/><path class="st0" d="M125.1 467.5l-7.3 5.3-5.5 4-4.5 3.5-12-31.8 4-2.7 4.8-3.3 6.2-3.5 6.8-4 4.5 8.3 2.5 4.2 2.5 3.8 2.5 3.2 2.5 2.8 1.2 1 1.3.7 1.2.8 1.3.5-6.3 3.7z"/><path class="st0" d="M125.1 467.5l-7.3 5.3-5.5 4-4.5 3.5-12-31.8 4-2.7 4.8-3.3 6.2-3.5 6.8-4 4.5 8.3 2.5 4.2 2.5 3.8 2.5 3.2 2.5 2.8 1.2 1 1.3.7 1.2.8 1.3.5-6.3 3.7z"/><path class="st0" d="M138.1 425l4.2 8 2.3 4 2.2 3.5 2.5 3.3 2.5 2.7 2.3 2 1.2.8 1.3.7-10.3 5-9.2 5.3-1.3-.5-1.2-.8-1.3-.7-1.2-1-2.5-2.8-2.5-3.2-2.5-3.8-2.5-4.2-4.5-8.3 9.7-5z"/><path class="st0" d="M161.8 416.3l3 7.7 1.8 3.8 2 3.5 1.7 3.2 2 3 2 2.5 2 1.8-5.2 2-5 2-9.5 4.2-1.3-.7-1.2-.8-2.3-2-2.5-2.7-2.5-3.3-2.2-3.5-2.3-4-4.2-8 5.5-2.2 5.7-2.3 6.3-2.2zM230.6 431.8l-4 .2h-1.5l-6 .5-6.3.5v-.7l-1-.5-.7-.8-.8-1-.7-1-1.3-2.7-.7-3.3-.8-3.7-.5-3.8-.5-7.7 8.8-.5h9l.2 3.7.3 4 .5 3.8.7 3.5.8 3.2 1.2 2.8.8 1 .7 1 .8.7 1 .5z"/><path class="st0" d="M195.3 436.3l-4 1-7.5 2-7.5 2.5-2-1.8-2-2.5-2-3-1.7-3.2-2-3.5-1.8-3.8-3-7.7 5.3-1.5 5.7-1.5 5.8-1.5 6-1.3 2 8.3 1 3.7 1.2 3.8 1.5 3.2 1.5 2.8 1.8 2.2.7 1z"/><path class="st0" d="M212.8 432.3v.7l-8.7 1.5-8.8 1.8-1-.8-.7-1-1.8-2.2-1.5-2.8-1.5-3.2-1.2-3.8-1-3.7-2-8.3 10.5-1.5 5.2-.7 5.5-.5.5 7.7.5 3.8.8 3.7.7 3.3 1.3 2.7.7 1 .8 1 .7.8zM262.6 412.5v6.8l.2 3.2.5 3 .5 2.8.8 2.2 1.2 1.8.5.7.8.5.2.3-.2 1.7h-.5l-8.8-1.7-9.5-1.3v-.2l-.7-.5-.8-.8-.7-1-.5-1-.8-2.5-.7-3.2-.3-3.3-.2-3.7.2-7.5 9.5 1.7z"/><path class="st0" d="M248.3 432.5l-5.2-.5-5-.2h-7.5v-.3l-1-.5-.8-.7-.7-1-.8-1-1.2-2.8-.8-3.2-.7-3.5-.5-3.8-.3-4-.2-3.7h2l9 .5 9.2 1-.2 7.5.2 3.7.3 3.3.7 3.2.8 2.5.5 1 .7 1 .8.8.7.5z"/><path class="st0" d="M138.1 425l-10.8 5-9.7 5-6.8 4-6.2 3.5-4.8 3.3-4 2.7-34.5-92 2.5-1.5 4.3-2.7 5.7-3.5 7.8-4 9.2-4.5 10.5-4.8 5.8-2.2 6.2-2.3 6.5-2.2 6.8-2.3 7-2 7.2-1.7 7.5-1.8 8-1.2 8-1.3 8.3-1 8.7-.7 8.8-.3h8.7l9.3.3 9.2.7 9.5 1.3 9.5 1.7 9.8 2 10 2.8 10 3.2 8.5 3 8.2 3.5 7.8 3.3 7.2 3.7 6.8 3.5 6.5 3.5 5.7 3.5 5.3 3.3 9 6 6.7 4.7 4 3.3 1.5 1.2 13.8 117.5-2.8.8-.7-2.3-1-2.5-1.5-2.5-2-2.5-2.5-2.7-2.8-2.8-3.2-3-3.8-2.7-6.7-4.8-7.5-4.7-9-5-10-5.3-4.8-2.2-5-2-4.7-2-4.5-1.8-9-2.7-8.5-2.3.2-1.7-.2-.3-.8-.5-.5-.7-1.2-1.8-.8-2.2-.5-2.8-.5-3-.2-3.2v-6.8l-9.3-2-9.5-1.7-9.2-1-9-.5h-11l-8.8.5-5.5.5-5.2.7-10.5 1.5-6 1.3-5.8 1.5-5.7 1.5-5.3 1.5-6.2 2-6.3 2.2-5.7 2.3zM724.6 466.5l-5.8-3.5-6.2-3.7 1.2-.5 1.3-.8 1.2-.7 1.3-1 2.5-2.8 2.5-3.2 2.5-3.8 2.5-4 4.2-8.5 7.3 4 6 3.8 5 3.2 3.7 2.8-12 31.7-4.5-3.7-5.5-4z"/><path class="st0" d="M711.6 424l5.5 2.5 5.2 2.5 9.5 5-4.2 8.5-2.5 4-2.5 3.8-2.5 3.2-2.5 2.8-1.3 1-1.2.7-1.3.8-1.2.5-9.3-5.3-10.2-5 1.2-.7 1.3-.8 2.2-2 2.5-2.7 2.3-3.3 2.5-3.5 2.2-4z"/><path class="st0" d="M711.6 424l-4.3 8-2.2 4-2.5 3.5-2.3 3.3-2.5 2.7-2.2 2-1.3.8-1.2.7-9.5-4.2-5.3-2-5-2 2-1.8 2-2.5 2-3 1.8-3.2 2-3.5 1.7-3.8 3-7.7 6.3 2 6 2.2 6 2.3zM665.1 409.8l-2 8-1 3.7-1.3 3.8-1.5 3.2-1.5 2.8-1.7 2.2-.8 1-1 .8-8.7-1.8-9-1.5.2-.7 1-.5.8-.8.7-1 .8-1 1.2-2.7.8-3.3.7-3.5.5-4 .5-7.7 5.5.5 5.3.7z"/><path class="st0" d="M658.3 436.3l-4-1 1-.8.8-1 1.7-2.2 1.5-2.8 1.5-3.2 1.3-3.8 1-3.7 2-8 6 1 5.7 1.5 5.5 1.5 5.5 1.5-3 7.7-1.7 3.8-2 3.5-1.8 3.2-2 3-2 2.5-2 1.8-7.5-2.5zM624.1 406.3h2l-.5 7.7-.5 3.8-.8 3.7-1 3-1 2.8-.7 1.2-.8.8-.7.7-1 .5v.3h-7.5l-5 .2-5.5.5v-.2l1-.5.7-.8.5-.7.8-1.3.7-2.5.8-3 .2-3.5.3-3.7-.3-7.3 9.3-1.2z"/><path class="st0" d="M619.1 430.5l1-.5.7-.7.8-.8.7-1.2 1-2.8 1-3 .8-3.7.5-3.8.5-7.7h9l8.7.5-.5 7.7-.5 4-.7 3.5-.8 3.3-1.2 2.7-.8 1-.7 1-.8.8-1 .5-.2.7-6-.5-6-.5h-1.5l-4-.2zM591.8 432.8l-9.5 1.7v-1.7l.8-.5.5-.5 1.2-2 1-2.3.5-2.7.5-3 .3-3.3-.3-7 9.5-2 9.5-1.5.3 7.3-.3 3.7-.2 3.5-.8 3-.7 2.5-.8 1.3-.5.7-.7.8-1 .5v.2zM724.6 466.5l-5.8-3.5-6.2-3.7 1.2-.5 1.3-.8 1.2-.7 1.3-1 2.5-2.8 2.5-3.2 2.5-3.8 2.5-4 4.2-8.5 7.3 4 6 3.8 5 3.2 3.7 2.8-12 31.7-4.5-3.7-5.5-4z"/><path class="st0" d="M711.6 424l5.5 2.5 5.2 2.5 9.5 5-4.2 8.5-2.5 4-2.5 3.8-2.5 3.2-2.5 2.8-1.3 1-1.2.7-1.3.8-1.2.5-9.3-5.3-10.2-5 1.2-.7 1.3-.8 2.2-2 2.5-2.7 2.3-3.3 2.5-3.5 2.2-4z"/><path class="st0" d="M711.6 424l-4.3 8-2.2 4-2.5 3.5-2.3 3.3-2.5 2.7-2.2 2-1.3.8-1.2.7-9.5-4.2-5.3-2-5-2 2-1.8 2-2.5 2-3 1.8-3.2 2-3.5 1.7-3.8 3-7.7 6.3 2 6 2.2 6 2.3zM665.1 409.8l-2 8-1 3.7-1.3 3.8-1.5 3.2-1.5 2.8-1.7 2.2-.8 1-1 .8-8.7-1.8-9-1.5.2-.7 1-.5.8-.8.7-1 .8-1 1.2-2.7.8-3.3.7-3.5.5-4 .5-7.7 5.5.5 5.3.7z"/><path class="st0" d="M658.3 436.3l-4-1 1-.8.8-1 1.7-2.2 1.5-2.8 1.5-3.2 1.3-3.8 1-3.7 2-8 6 1 5.7 1.5 5.5 1.5 5.5 1.5-3 7.7-1.7 3.8-2 3.5-1.8 3.2-2 3-2 2.5-2 1.8-7.5-2.5zM624.1 406.3h2l-.5 7.7-.5 3.8-.8 3.7-1 3-1 2.8-.7 1.2-.8.8-.7.7-1 .5v.3h-7.5l-5 .2-5.5.5v-.2l1-.5.7-.8.5-.7.8-1.3.7-2.5.8-3 .2-3.5.3-3.7-.3-7.3 9.3-1.2z"/><path class="st0" d="M619.1 430.5l1-.5.7-.7.8-.8.7-1.2 1-2.8 1-3 .8-3.7.5-3.8.5-7.7h9l8.7.5-.5 7.7-.5 4-.7 3.5-.8 3.3-1.2 2.7-.8 1-.7 1-.8.8-1 .5-.2.7-6-.5-6-.5h-1.5l-4-.2zM591.8 432.8l-9.5 1.7v-1.7l.8-.5.5-.5 1.2-2 1-2.3.5-2.7.5-3 .3-3.3-.3-7 9.5-2 9.5-1.5.3 7.3-.3 3.7-.2 3.5-.8 3-.7 2.5-.8 1.3-.5.7-.7.8-1 .5v.2z"/><path class="st0" d="M512.8 467.3l-3.7 3-3.5 3-3 2.7-2.3 2.8-2 2.7-1.5 2.5-1 2.5-.5 2.5-4.2-.7L506.3 370l1.5-1.2 4-3.3 6.8-4.7 9-6 5.2-3.3 5.8-3.5 6.5-3.5 6.7-3.5 7.3-3.7 7.7-3.3 8.3-3.5 8.5-3 10.5-3.2 10.2-2.8 10.3-2.2 10-1.8 10-1 9.5-.7 9.7-.3h9.3l9 .5 8.7 1 8.8 1 8.2 1.5 8 1.5 7.8 2 7.5 2 7.2 2.3 6.8 2.2 6.5 2.3 6.2 2.5 5.8 2.5 10.2 4.7 8.8 4.5 7 4 5 3.3 4.2 2.7-35 91.8-3.7-2.8-5-3.2-6-3.8-7.3-4-9.5-5-5.2-2.5-5.5-2.5-5.5-2.2-6-2.3-6-2.2-6.3-2-5.5-1.5-5.5-1.5-5.7-1.5-6-1-10.5-1.8-5.3-.7-5.5-.5-8.7-.5h-11l-9 .5-9.3 1.2-9.5 1.5-9.5 2 .3 7-.3 3.3-.5 3-.5 2.7-1 2.3-1.2 2-.5.5-.8.5v1.7l-8.5 2.3-8.7 2.7-4.8 1.8-4.7 2-4.8 2-4.7 2.2-10 5.3-9 5-7.8 4.7z"/><path class="st1" d="M547.8 512.5l-6.2-3-5.8-3-4.7-3.2-4-3.5-3.5-3.5-2.8-3.3-2.5-3.5-1.7-3.2-1.5-3.3-1-3.2-.8-2.8-.2-2.7-.3-2.3v-4.7l6.5-4.8 7.8-4.7 9-5 10-5.3 4.7-2.2 4.8-2 4.7-2 4.8-1.8 8.7-2.7 8.5-2.3 9.5-1.7-3.2 3.2-3.3 3.8-2.5 4-2.2 4.2-1.8 4.5-1.5 4.8-.7 4.7-.3 5 .3 4.8.7 4.7 1.3 4.3 1.5 4.2 2 4.3 2.2 3.7 2.8 3.5 3 3.3 3.2 3 3.5 2.7 4 2.3 4 2 4.3 1.5 4.5 1 4.5.7 4.7.3 4.8-.3 4.7-.7 4.5-1 4.3-1.5 4-2 4-2.3 3.5-2.7 3.2-3 3-3.3 2.8-3.5 2.2-3.7 2-4.3 1.5-4.2 1.3-4.3.7-4.7.3-4.8-.3-4-.7-4-1-4.2-1.3-4-1.7-4-1.8-3.8-2.2-3.5-2.3-3.2 7.5 2 7.5 2.5 5 2 5.3 2 9.5 4.2 10.2 5 9.3 5.3 6.2 3.7 5.8 3.5-.3 2-.2 3.5-1 4.5-1.5 5.5-1.3 3.3-1.5 3.2-1.7 3.3-2 3.5-2.3 3.7-2.7 3.5-3.3 3.8-3.5 3.7-3.7 3.5-3.8 3-3.5 2.5-3.5 2.5-3.7 2-3.5 2-4.5 2-4.3 1.8-4.5 1.5-4.2 1.2-4.5 1-4.5 1-4.5.8-4.5.5-4.5.2-4.3.3-8.7-.3-8.3-.5-7.7-1-9.3-2-8.7-2.2-8.8-2.5-8.5-2.8-8-3-7.7-3.2z"/><path class="st2" d="M610.6 468.3l.3 2.5.8 2 1 2.3 1.5 1.8 1.8 1.3 2 1.3 2.3.8 2.5.3 2.5-.3 2.3-.8 2-1.3 1.8-1.3 1.5-1.8 1-2.3.8-2 .3-2.5-.3-2.5-.8-2.3-1-2-1.5-1.8-1.8-1.5-2-1-2.3-.8-2.5-.3-2.5.3-2.3.8-2 1-1.8 1.5-1.5 1.8-1 2-.8 2.3-.3 2.5zm12.2 45l-4.8-.3-4.5-.8-4.5-1-4.3-1.5-4-2-4-2.3-3.5-2.8-3.3-3-3-3.3-2.8-3.5-2.3-3.8-2-4.3-1.5-4.3-1.3-4.3-.8-4.8-.3-4.8.3-5 .8-4.8 1.5-4.8 1.8-4.5 2.3-4.3 2.5-4 3.3-3.8 3.3-3.3 9.3-1.3 5.5-.5 5-.3h7.5l4 .3h1.5l6 .5 6 .5 9 1.5 8.8 1.8 4 1 2.3 3.3 2.3 3.5 1.8 3.8 1.8 4 1.3 4 1 4.3.8 4 .3 4-.3 4.8-.8 4.8-1.3 4.3-1.5 4.3-2 4.3-2.3 3.8-2.8 3.5-3 3.3-3.3 3-3.5 2.8-4 2.3-4 2-4.3 1.5-4.5 1-4.8.8-4.7.4z"/><path class="st3" d="M622.6 480.3l-2.5-.3-2.3-.7-2-1.3-1.7-1.2-1.5-1.8-1-2.2-.8-2-.2-2.5.2-2.5.8-2.3 1-2 1.5-1.7 1.7-1.5 2-1 2.3-.8 2.5-.2 2.5.2 2.2.8 2 1 1.8 1.5 1.5 1.7 1 2 .7 2.3.3 2.5-.3 2.5-.7 2-1 2.2-1.5 1.8-1.8 1.2-2 1.3-2.2.7z"/><path class="st4" d="M528.3 505l-2.7-.5-2.5-.5-4.8-.2h-8.5l-3.7-.5-1.8-.5-1.7-.5-1.5-1-1.5-1-1.3-1.5-1.5-2-1-1.8-.5-2-.2-2 .2-2 .5-2.5 1-2.5 1.5-2.5 2-2.7 2.3-2.8 3-2.7 3.5-3 3.7-3v4.7l.3 2.3.2 2.7.8 2.8 1 3.2 1.5 3.3 1.7 3.2 2.5 3.5 2.8 3.3 3.5 3.5 4 3.5 4.7 3.2 5.8 3 6.2 3-11-4.5-4.7-1.7z"/><path class="st1" d="M176.3 441.8l7.5-2.5 7.5-2-2.2 3.2-2.3 3.5-1.7 3.8-1.8 4-1.2 4-1 4.2-.8 4-.2 4 .2 4.8.8 4.7 1 4.3 1.7 4.2 2 4 2.3 4 2.7 3.5 3 3.3 3.3 3 3.5 2.7 4 2.3 4 2 4.2 1.5 4.5 1 4.5.7 4.8.3 4.7-.3 4.8-.7 4.5-1 4.2-1.5 4-2 4-2.3 3.5-2.7 3.3-3 3-3.3 2.7-3.5 2.3-4 2-4 1.5-4.2 1.2-4.3.8-4.7.2-4.8-.2-5-1-4.7-1.3-4.8-1.7-4.5-2.3-4.2-2.7-4-3-3.8-3.3-3.2 8.8 1.7h.5l8.5 2.3 9 2.7 4.5 1.8 4.7 2 5 2 4.8 2.2 10 5.3 9 5 7.5 4.7 6.7 4.8v4.7l-.2 2.3-.5 2.7-.5 2.8-1.3 3.2-1.2 3-2 3.5-2.3 3.3-2.7 3.5-3.5 3.5-4 3.2-5 3.3-5.5 3.2-6.3 3-13.7 5.8-7.8 3-8 3-8.5 3-8.7 2.5-9 2.2-9 2-7.8 1-8.2.5-8.8.3-4.2-.3-4.5-.2-4.5-.5-4.5-.8-4.5-1-4.5-1-4.3-1.2-4.5-1.5-4.5-1.8-4.2-2-3.8-2-3.5-2.2-3.5-2.3-3.5-2.5-4-3.2-3.5-3.3-3.7-3.7-3-3.8-2.8-3.7-2.5-3.5-2-3.5-1.5-3.5-1.5-3.3-1.2-3-1.5-5.5-1-4.7-.3-3.3-.2-2 5.7-3.5 6.3-3.7 9.2-5.3 10.3-5 9.5-4.2 5-2z"/><path class="st4" d="M301.8 513.5l6.3-3 5.5-3.2 5-3.3 4-3.2 3.5-3.5 2.7-3.5 2.3-3.3 2-3.5 1.2-3 1.3-3.2.5-2.8.5-2.7.2-2.3v-4.7l3.8 2.7 3.2 3 2.8 2.8 2.5 2.7 2 2.5 1.5 2.5 1 2.5.7 2.3.3 2.2-.3 2.3-.5 2-1 2-1.5 1.7-1.2 1.8-1.5 1-1.8 1-1.5.5-1.7.5-3.8.5h-8.5l-4.7.2-2.5.5-2.8.5-3.7 1.3-4.8 1.7z"/><path class="st2" d="M227.1 481l2.3-.3 2.3-.5 2.3-1.3 1.8-1.3 1.3-2 1.3-2 .8-2.3.3-2.3-.3-2.5-.8-2.3-1.3-2-1.3-1.8-1.8-1.5-2.3-1-2.3-.8-2.3-.3-2.5.3-2.3.8-2 1-1.8 1.5-1.5 1.8-1 2-.8 2.3-.3 2.5.3 2.3.8 2.3 1 2 1.5 2 1.8 1.3 2 1.3 2.3.5 2.5.3zm-31.8-44.7l8.8-1.8 8.8-1.5 6.3-.5 6-.5h1.5l4-.3h7.5l5 .3 5.3.5 9.5 1.3 3.3 3.3 3 3.8 2.8 4 2.3 4.3 1.8 4.5 1.3 4.8 1 4.8.3 5-.3 4.8-.8 4.8-1.3 4.3-1.5 4.3-2 4-2.3 4-2.8 3.5-3 3.3-3.3 3-3.5 2.8-4 2.3-4 2-4.3 1.5-4.5 1-4.8.8-4.8.3-4.8-.3-4.5-.8-4.5-1-4.3-1.5-4-2-4-2.3-3.5-2.8-3.3-3-3-3.3-2.8-3.5-2.3-4-2-4-1.8-4.3-1-4.3-.8-4.8-.3-4.8.3-4 .8-4 1-4.3 1.3-4 1.8-4 1.8-3.8 2.3-3.5 2.3-3.3 4-1.1z"/><path class="st3" d="M227.1 481l-2.5-.2-2.3-.5-2-1.3-1.7-1.2-1.5-2-1-2-.8-2.3-.2-2.2.2-2.5.8-2.3 1-2 1.5-1.7 1.7-1.5 2-1 2.3-.8 2.5-.2 2.2.2 2.3.8 2.2 1 1.8 1.5 1.2 1.7 1.3 2 .7 2.3.3 2.5-.3 2.2-.7 2.3-1.3 2-1.2 2-1.8 1.2-2.2 1.3-2.3.5z"/><path class="st5" d="M256.8 433l1 .8 3.3 3.2 3 3.8 2.7 4 2.3 4.2 1.7 4.5 1.3 4.8 1 4.7.2 5-.2 4.8-.8 4.7-1.2 4.3-1.5 4.2-2 4-2.3 4-2.7 3.5-3 3.3-3.3 3-3.5 2.7-4 2.3-4 2-4.2 1.5-4.5 1-4.8.7-4.7.3-4.8-.3-4.5-.7-4.5-1-4.2-1.5-4-2-4-2.3-3.5-2.7-3.3-3-3-3.3-2.7-3.5-2.3-4-2-4-1.7-4.2-1-4.3-.8-4.7-.2-4.8.2-4 .8-4 1-4.2 1.2-4 1.8-4 1.7-3.8 2.3-3.5 2.2-3.2 1.5-1.8"/><path class="st6" d="M239.1 469.3l-.3 2.2-.7 2.3-1.3 2-1.2 2-1.8 1.2-2.2 1.3-2.3.5-2.2.2-2.5-.2-2.3-.5-2-1.3-1.7-1.2-1.5-2-1-2-.8-2.3-.2-2.2.2-2.5.8-2.3 1-2 1.5-1.7 1.7-1.5 2-1 2.3-.8 2.5-.2 2.2.2 2.3.8 2.2 1 1.8 1.5 1.2 1.7 1.3 2 .7 2.3z"/><path class="st5" d="M168.1 526.5l-3.8-2-3.5-2.2-3.5-2.3-3.5-2.5-4-3.2-3.5-3.3-3.7-3.7-3-3.8-2.8-3.7-2.5-3.5-2-3.5-1.5-3.5-1.5-3.3-1.2-3-1.5-5.5-1-4.7-.3-3.3-.2-2v-.2M336.8 468.3l3.8 2.7 3.2 3 2.8 2.8 2.5 2.7 2 2.5 1.5 2.5 1 2.5.7 2.3.3 2.2-.3 2.3-.5 2-1 2-1.5 1.7-1.2 1.8-1.5 1-1.8 1-1.5.5-1.7.5-3.8.5h-8.5l-4.7.2-2.5.5-2.8.5-3.7 1.3-4.8 1.7-11 4.5-13.7 5.8-7.8 3-8 3-8.5 3-8.7 2.5-9 2.2-9 2-7.8 1-8.2.5-8.8.3-4.2-.3-4.5-.2-4.5-.5-4.5-.8-4.5-1-4.5-1-4.3-1.2-4.5-1.5-4.5-1.8-4.2-2"/><path class="st5" d="M107.8 480.3l4.5-3.5 5.5-4 7.3-5.3 5.7-3.5 6.3-3.7 9.2-5.3 10.3-5 9.5-4.2 5-2 5.2-2 7.5-2.5 7.5-2 4-1 8.8-1.8 8.7-1.5 6.3-.5 6-.5h1.5l4-.2h7.5l5 .2 5.2.5 9.5 1.3 8.8 1.7h.5l8.5 2.3 9 2.7 4.5 1.8 4.7 2 5 2 4.8 2.2 10 5.3 9 5 7.5 4.7 6.7 4.8"/><path class="st5" d="M336.6 467.3l.2 1v4.7l-.2 2.3-.5 2.7-.5 2.8-1.3 3.2-1.2 3-2 3.5-2.3 3.3-2.7 3.5-3.5 3.5-4 3.2-5 3.3-5.5 3.2-6.3 3M91.3 451.8l4.5-3.3 4-2.7 4.8-3.3 6.2-3.5 6.8-4 9.7-5 10.8-5 5.5-2.2 5.7-2.3 6.3-2.2 6.2-2 5.3-1.5 5.7-1.5 5.8-1.5 6-1.3 10.5-1.5 5.2-.7 5.5-.5 8.8-.5h11l9 .5 9.2 1 9.5 1.7 9.3 2 5.7 1.5 5.5 1.8 5.5 2 5.5 2 5.5 2.2 5.3 2.5 5.2 2.8 5.3 3 5.2 3.2 5 3.3 4.8 3.5 4.7 4 4.5 4 4.5 4.2 4.3 4.5 4 4.8"/><path class="st7" d="M60.8 357l.5-.5 2.5-1.5 4.3-2.7 5.7-3.5 7.8-4 9.2-4.5 10.5-4.8 5.8-2.2 6.2-2.3 6.5-2.2 6.8-2.3 7-2 7.2-1.7 7.5-1.8 8-1.2 8-1.3 8.3-1 8.7-.7 8.8-.3h8.7l9.3.3 9.2.7 9.5 1.3 9.5 1.7 9.8 2 10 2.8 10 3.2 8.5 3 8.2 3.5 7.8 3.3 7.2 3.7 6.8 3.5 6.5 3.5 5.7 3.5 5.3 3.3 9 6 6.7 4.7 4 3.3 1.5 1.2"/><path class="st8" d="M110.1 418.3l2.2 5 2.3 5.2 3 6.5 4.5 8.3 2.5 4.2 2.5 3.8 2.5 3.2 2.5 2.8 1.2 1 1.3.7 1.2.8 1.3.5h1.2M130.6 408.3l2 5 2.5 5.5 3 6.2 4.2 8 2.3 4 2.2 3.5 2.5 3.3 2.5 2.7 2.3 2 1.2.8 1.3.7 1 .3h1M155.6 398.8l1.7 5.2 2 5.8 2.5 6.5 3 7.7 1.8 3.8 2 3.5 1.7 3.2 2 3 2 2.5 2 1.8 1.8 1 1 .2.7.3M181.1 389l.7 6.8 1 6.7 1.8 8 2 8.3 1 3.7 1.2 3.8 1.5 3.2 1.5 2.8 1.8 2.2.7 1 1 .8.8.5 1 .2M206.1 393.8l-.3 4.2v9.8l.5 7.7.5 3.8.8 3.7.7 3.3 1.3 2.7.7 1 .8 1 .7.8 1 .5M223.8 393l-.2 4.3v10l.2 3.7.3 4 .5 3.8.7 3.5.8 3.2 1.2 2.8.8 1 .7 1 .8.7 1 .5M245.6 393.5l-.8 4.8-.5 4.7-.5 5.8-.2 7.5.2 3.7.3 3.3.7 3.2.8 2.5.5 1 .7 1 .8.8.7.5M264.6 395l-.8 5.3-.7 5.7-.5 6.5v6.8l.2 3.2.5 3 .5 2.8.8 2.2 1.2 1.8.5.7.8.5.2.3M142.1 507.8l-2 .7-2 .8-2.5 1.5-2.8 1.5-2.5 2-2.2 2.2-1 1.3-.8 1.5M154.3 517l-.5.5-2.5 2-1.7 1.8-1.8 2-1.7 2.2-1.5 2.3-1.3 2.5-.2 1.2-.3 1.5M168.6 525.8l-.5.7-1.8 2.8-1.2 2-1.3 2.2-1 2.5-1 2.8-.2 2.5v2.7"/><path class="st5" d="M592.8 432l-1 .8-3.2 3.2-3.3 3.8-2.5 4-2.2 4.2-1.8 4.5-1.5 4.8-.7 4.7-.3 5 .3 4.8.7 4.7 1.3 4.3 1.5 4.2 2 4.3 2.2 3.7 2.8 3.5 3 3.3 3.2 3 3.5 2.7 4 2.3 4 2 4.3 1.5 4.5 1 4.5.7 4.7.3 4.8-.3 4.7-.7 4.5-1 4.3-1.5 4-2 4-2.3 3.5-2.7 3.2-3 3-3.3 2.8-3.5 2.2-3.7 2-4.3 1.5-4.2 1.3-4.3.7-4.7.3-4.8-.3-4-.7-4-1-4.2-1.3-4-1.7-4-1.8-3.8-2.2-3.5-2.3-3.2-1.5-1.8"/><path class="st6" d="M634.6 468.3l-.3-2.5-.7-2.3-1-2-1.5-1.7-1.8-1.5-2-1-2.2-.8-2.5-.2-2.5.2-2.3.8-2 1-1.7 1.5-1.5 1.7-1 2-.8 2.3-.2 2.5.2 2.5.8 2 1 2.2 1.5 1.8 1.7 1.2 2 1.3 2.3.7 2.5.3 2.5-.3 2.2-.7 2-1.3 1.8-1.2 1.5-1.8 1-2.2.7-2z"/><path class="st5" d="M741.8 479.5l-4.5-3.7-5.5-4-7.2-5.3-5.8-3.5-6.2-3.7-9.3-5.3-10.2-5-9.5-4.2-5.3-2-5-2-7.5-2.5-7.5-2-4-1-8.7-1.8-9-1.5-6-.5-6-.5h-1.5l-4-.2h-7.5l-5 .2-5.5.5-9.3 1.3-9.5 1.7-8.5 2.3-8.7 2.7-4.8 1.8-4.7 2-4.8 2-4.7 2.2-10 5.3-9 5-7.8 4.7-6.5 4.8-3.7 3-3.5 3-3 2.7-2.3 2.8-2 2.7-1.5 2.5-1 2.5-.5 2.5-.2 2 .2 2 .5 2 1 1.8 1.5 2 1.3 1.5 1.5 1 1.5 1 1.7.5 1.8.5 3.7.5h8.5l4.8.2 2.5.5 2.7.5 3.8 1.3 4.7 1.7 11 4.5 13.8 5.8 7.7 3.2 8 3 8.5 2.8 8.8 2.5 8.7 2.2 9.3 2 7.7 1 8.3.5 8.7.3 4.3-.3 4.5-.2 4.5-.5 4.5-.8 4.5-1 4.5-1 4.2-1.2 4.5-1.5 4.3-1.8 4.5-2 3.5-2 3.7-2 3.5-2.5 3.5-2.5 3.8-3 3.7-3.5 3.5-3.7 3.3-3.8 2.7-3.5 2.3-3.7 2-3.5 1.7-3.3 1.5-3.2 1.3-3.3 1.5-5.5 1-4.5.2-3.5.3-2v-.2"/><path class="st5" d="M513.1 466.3l-.3 1v4.7l.3 2.3.2 2.7.8 2.8 1 3.2 1.5 3.3 1.7 3.2 2.5 3.5 2.8 3.3 3.5 3.5 4 3.5 4.7 3.2 5.8 3 6.2 3M758.3 451l-4.5-3.2-3.7-2.8-5-3.2-6-3.8-7.3-4-9.5-5-5.2-2.5-5.5-2.5-5.5-2.2-6-2.3-6-2.2-6.3-2-5.5-1.5-5.5-1.5-5.7-1.5-6-1-10.5-1.8-5.3-.7-5.5-.5-8.7-.5h-11l-9 .5-9.3 1.2-9.5 1.5-9.5 2-5.5 1.5-5.5 1.8-5.5 2-5.5 2-5.5 2.2-5.2 2.5-5.3 2.8-5.2 3-5.3 3.2-5 3.3-4.7 3.5-4.8 4-4.5 4-4.5 4.2-4.2 4.5-4 4.8"/><path class="st7" d="M788.8 356l-4.2-2.7-5-3.3-7-4-8.8-4.5-10.2-4.7-5.8-2.5-6.2-2.5-6.5-2.3-6.8-2.2-7.2-2.3-7.5-2-7.8-2-8-1.5-8.2-1.5-8.8-1-8.7-1-9-.5h-9.3l-9.7.3-9.5.7-10 1-10 1.8-10.3 2.2-10.2 2.8-10.5 3.2-8.5 3-8.3 3.5-7.7 3.3-7.3 3.7-6.7 3.5-6.5 3.5-5.8 3.5-5.2 3.3-9 6-6.8 4.7-4 3.3-1.5 1.2"/><path class="st8" d="M739.6 417.3l-2.3 5-2.2 5.2-3.3 6.5-4.2 8.5-2.5 4-2.5 3.8-2.5 3.2-2.5 2.8-1.3 1-1.2.7-1.3.8-1.2.5h-1.3M719.1 407.3l-2 5-2.5 5.5-3 6.2-4.3 8-2.2 4-2.5 3.5-2.3 3.3-2.5 2.7-2.2 2-1.3.8-1.2.7-1 .3-1 .2M693.8 397.8l-1.5 5.2-2 5.8-2.5 6.5-3 7.7-1.7 3.8-2 3.5-1.8 3.2-2 3-2 2.5-2 1.8-1.7 1-1 .5h-.8M668.6 388l-.8 6.8-1.2 6.7-1.5 8.3-2 8-1 3.7-1.3 3.8-1.5 3.2-1.5 2.8-1.7 2.2-.8 1-1 .8-.7.5-1 .2M643.6 392.8l.2 4.2v9.8l-.5 7.7-.5 4-.7 3.5-.8 3.3-1.2 2.7-.8 1-.7 1-.8.8-1 .5M625.8 392l.3 4.3v10l-.5 7.7-.5 3.8-.8 3.7-1 3-1 2.8-.7 1.2-.8.8-.7.7-1 .5M604.1 392.5l.7 4.8.5 4.7.5 6 .3 7.3-.3 3.7-.2 3.5-.8 3-.7 2.5-.8 1.3-.5.7-.7.8-1 .5M585.1 394l.7 5.5.8 5.5.2 6.5.3 7-.3 3.3-.5 3-.5 2.7-1 2.3-1.2 2-.5.5-.8.5M707.6 506.8l2 .7 2 .8 2.5 1.5 2.7 1.5 2.5 2 2.3 2.2 1 1.3.7 1.5M695.3 516l.5.5 2.5 2.3 1.8 1.5 1.7 2 1.8 2.2 1.5 2.3 1 2.5.5 1.2.2 1.5M681.1 524.8l.5.7 1.7 2.8 1.3 2 1.2 2.2 1 2.5.8 2.8.5 2.7v2.5"/></svg>