<?xml version="1.0" encoding="iso-8859-1"?>
<!-- Generator: Adobe Illustrator 12.0.1, SVG Export Plug-In . SVG Version: 6.00 Build 51448)  -->
<!DOCTYPE svg PUBLIC "-//W3C//DTD SVG 1.1//EN" "http://www.w3.org/Graphics/SVG/1.1/DTD/svg11.dtd" [
	<!ENTITY ns_svg "http://www.w3.org/2000/svg">
	<!ENTITY ns_xlink "http://www.w3.org/1999/xlink">
]>
<svg  version="1.1" id="Layer_1" xmlns="&ns_svg;" xmlns:xlink="&ns_xlink;" width="850.394" height="850.394"
	 viewBox="0 0 850.394 850.394" style="overflow:visible;enable-background:new 0 0 850.394 850.394;" xml:space="preserve">
<g id="XMLID_4_">
	<g>
		<path style="fill:#F0947D;" d="M311.29,313.93l-3.61,69.41c-56.95-2.95-100.77-16.25-104.75-32.47c-0.2-0.8-0.3-1.61-0.3-2.42
			C202.7,330.82,249.81,316.33,311.29,313.93z"/>
		<path style="fill:#F0947D;" d="M458.37,349.07c-0.05,17.75-47.89,32.33-109.97,34.6l-4.17-0.22l3.62-69.56L350,314
			C407.9,317.51,458.39,332.13,458.37,349.07z"/>
		<path style="fill:#FF001C;" d="M307.68,383.34l3.61-69.41L320,146.69c0.57-11.04,8.77-19.65,18.47-19.65
			c0.27,0,0.55,0.01,0.83,0.02c10.06,0.53,17.75,10.15,17.15,21.5l-8.6,165.33l-3.62,69.56l-0.98,18.88
			c-0.58,11.06-8.79,19.64-18.51,19.64c-0.26,0-0.53-0.01-0.8-0.02c-10.07-0.52-17.74-10.16-17.15-21.49L307.68,383.34z"/>
		<path style="fill:#FF001C;" d="M757.61,353.69c-12.82-2.95-35.351-15.35-58.841-33.13c-26.819-20.31-46.529-41.34-49.779-52.16
			c-0.721-2.36-0.641-4.24,0.319-5.52c5.41-7.11,36.261,7.18,68.96,31.95c32.7,24.76,54.811,50.59,49.421,57.71
			C766.18,354.54,762.64,354.84,757.61,353.69z"/>
		<path style="fill:#FF001C;" d="M658.35,333.22l-9.359-64.82c3.25,10.82,22.96,31.85,49.779,52.16
			c23.49,17.78,46.021,30.18,58.841,33.13l-61.811,7.76L494,606l-2.58,0.33l-12.04-93.74L484,512L658.35,333.22z"/>
		<path style="fill:#FF001C;" d="M479.38,512.59l12.04,93.74l5.53,43.03l1.2,5.76c-5.91,33.42-79.021,59.72-168.22,59.49
			c-93.01-0.221-168.35-29.17-168.26-64.601l37.31-298.72l3.95-0.42c3.98,16.22,47.8,29.52,104.75,32.47l-0.89,17.12
			c-0.59,11.33,7.08,20.97,17.15,21.49c0.27,0.01,0.54,0.02,0.8,0.02c9.72,0,17.93-8.58,18.51-19.64l0.98-18.88l4.17,0.22
			c62.08-2.27,109.92-16.85,109.97-34.6L479.38,512.59z"/>
	</g>
	<g>
		<path style="fill:none;stroke:#231F20;stroke-width:21;" d="M311.32,313.93c-0.01,0-0.02,0-0.03,0
			c-61.48,2.4-108.59,16.89-108.66,34.52c0,0.81,0.1,1.62,0.3,2.42c3.98,16.22,47.8,29.52,104.75,32.47c0.01,0,0.01,0,0.02,0"/>
		<path style="fill:none;stroke:#231F20;stroke-width:21;" d="M348.4,383.67c62.08-2.27,109.92-16.85,109.97-34.6
			C458.39,332.13,407.9,317.51,350,314"/>
		<path style="fill:none;stroke:#231F20;stroke-width:21;stroke-linecap:round;" d="M198.98,351.29l-37.31,298.72
			c-0.09,35.431,75.25,64.38,168.26,64.601c89.2,0.229,162.31-26.07,168.22-59.49l-1.2-5.76l-5.53-43.03l-12.04-93.74l-21.01-163.52
			"/>
		<path style="fill:none;stroke:#231F20;stroke-width:21;stroke-linecap:round;" d="M757.61,353.69
			c5.029,1.15,8.569,0.85,10.08-1.15c5.39-7.12-16.721-32.95-49.421-57.71c-32.699-24.77-63.55-39.06-68.96-31.95
			c-0.96,1.28-1.04,3.16-0.319,5.52c3.25,10.82,22.96,31.85,49.779,52.16C722.26,338.34,744.79,350.74,757.61,353.69z"/>
		<polyline style="fill:none;stroke:#231F20;stroke-width:21;stroke-linecap:round;" points="757.75,353.67 757.61,353.69 
			695.8,361.45 494,606 		"/>
		<polyline style="fill:none;stroke:#231F20;stroke-width:21;stroke-linecap:round;" points="648.9,267.78 648.99,268.4 
			658.35,333.22 484,512 		"/>
		<path style="fill:none;stroke:#231F20;stroke-width:21;stroke-linecap:round;" d="M142.82,465.17
			c15.07,20.22,25.2,48.65,25.2,83.12"/>
		<path style="fill:none;stroke:#231F20;stroke-width:21;stroke-linecap:round;" d="M198.98,351.29
			c-13.99-48-100.31-39.31-114.89,0.41c-2.92,7.95-3.26,15.65-1.88,23.07c4.15,22.27,23.99,42.13,36.71,59.22
			c7.08,9.51,15.59,20,23.9,31.18"/>
		<path style="fill:none;stroke:#231F20;stroke-width:21;stroke-linecap:round;" d="M307.68,383.34l-0.89,17.12
			c-0.59,11.33,7.08,20.97,17.15,21.49c0.27,0.01,0.54,0.02,0.8,0.02c9.72,0,17.93-8.58,18.51-19.64l0.98-18.88l3.62-69.56
			l8.6-165.33c0.6-11.35-7.09-20.97-17.15-21.5c-0.28-0.01-0.56-0.02-0.83-0.02c-9.7,0-17.9,8.61-18.47,19.65l-8.71,167.24
			L307.68,383.34z"/>
	</g>
</g>
<rect style="fill:none;" width="850.394" height="850.394"/>
</svg>
