<?xml version="1.0" encoding="iso-8859-1"?>
<!-- Generator: Adobe Illustrator 12.0.1, SVG Export Plug-In . SVG Version: 6.00 Build 51448)  -->
<!DOCTYPE svg PUBLIC "-//W3C//DTD SVG 1.1//EN" "http://www.w3.org/Graphics/SVG/1.1/DTD/svg11.dtd" [
	<!ENTITY ns_svg "http://www.w3.org/2000/svg">
	<!ENTITY ns_xlink "http://www.w3.org/1999/xlink">
]>
<svg  version="1.1" id="Layer_1" xmlns="&ns_svg;" xmlns:xlink="&ns_xlink;" width="850.394" height="850.394"
	 viewBox="0 0 850.394 850.394" style="overflow:visible;enable-background:new 0 0 850.394 850.394;" xml:space="preserve">
<g>
	<g id="XMLID_15_">
		<g>
			<path style="fill:#7A7878;" d="M338.72,690.67v-84.38v-0.09h171.56v84.13c0,0,20.06,26.4,89.83,36.72v29.34l-122.91,0.37H248.87
				v-29.35C318.63,717.1,338.72,690.67,338.72,690.67z"/>
			<path style="fill:#231F20;" d="M699.57,546.46c9.649,0,17.46,7.82,17.46,17.44c0,9.649-7.811,17.46-17.46,17.46
				c-9.63,0-17.431-7.811-17.431-17.46C682.14,554.28,689.94,546.46,699.57,546.46z"/>
			<path style="fill:#FFFFFF;" d="M357.67,281.78h-19.93l-14.88,68.54l-17.2-68.54h-23.6l-17.83,67.41l-14.76-67.41h-20.3
				l23.28,98.13h21.63l19.4-73.36l19.44,73.36h21.27L357.67,281.78z M487.02,281.78h-19.93l-14.89,68.54L435,281.78h-23.59
				l-17.83,67.41l-14.76-67.41h-20.3l23.27,98.13h21.63l19.41-73.36l19.439,73.36h21.261L487.02,281.78z M487.86,281.78
				l23.279,98.13h21.63l19.4-73.36l19.44,73.36h21.27l23.48-98.13H596.43l-14.88,68.54l-17.2-68.54h-23.6l-17.83,67.41l-14.76-67.41
				H487.86z M699.19,154.31v366.54H151.9V154.31H699.19z"/>
			<path style="fill:#7A7878;" d="M510.28,606.2H338.72H131.03c-23.58,0-42.69-19.11-42.69-42.7V136.75
				c0-23.58,19.11-42.7,42.69-42.7h587.43c23.58,0,42.7,19.12,42.7,42.7V563.5c0,23.59-19.12,42.7-42.7,42.7H510.28z M677.67,564.18
				c0-9.63-7.82-17.43-17.46-17.43s-17.44,7.8-17.44,17.43c0,9.65,7.801,17.44,17.44,17.44S677.67,573.83,677.67,564.18z
				 M682.14,563.9c0,9.649,7.801,17.46,17.431,17.46c9.649,0,17.46-7.811,17.46-17.46c0-9.62-7.811-17.44-17.46-17.44
				C689.94,546.46,682.14,554.28,682.14,563.9z M699.19,520.85V154.31H151.9v366.54H699.19z"/>
			<path style="fill:#231F20;" d="M660.21,546.75c9.64,0,17.46,7.8,17.46,17.43c0,9.65-7.82,17.44-17.46,17.44
				s-17.44-7.79-17.44-17.44C642.77,554.55,650.57,546.75,660.21,546.75z"/>
			<polygon style="fill:#231F20;" points="616.36,281.78 592.88,379.91 571.61,379.91 552.17,306.55 532.77,379.91 511.14,379.91 
				487.86,281.78 508.16,281.78 522.92,349.19 540.75,281.78 564.35,281.78 581.55,350.32 596.43,281.78 			"/>
			<polygon style="fill:#231F20;" points="487.02,281.78 463.53,379.91 442.27,379.91 422.83,306.55 403.42,379.91 381.79,379.91 
				358.52,281.78 378.82,281.78 393.58,349.19 411.41,281.78 435,281.78 452.2,350.32 467.09,281.78 			"/>
			<polygon style="fill:#231F20;" points="357.67,281.78 334.19,379.91 312.92,379.91 293.48,306.55 274.08,379.91 252.45,379.91 
				229.17,281.78 249.47,281.78 264.23,349.19 282.06,281.78 305.66,281.78 322.86,350.32 337.74,281.78 			"/>
		</g>
		<g>
			<path style="fill:none;stroke:#231F20;stroke-width:21;" d="M338.72,606.2H131.03c-23.58,0-42.69-19.11-42.69-42.7V136.75
				c0-23.58,19.11-42.7,42.69-42.7h587.43c23.58,0,42.7,19.12,42.7,42.7V563.5c0,23.59-19.12,42.7-42.7,42.7H510.28H338.72z"/>
			<rect x="151.9" y="154.31" style="fill:none;stroke:#231F20;stroke-width:21;" width="547.291" height="366.54"/>
			<path style="fill:none;stroke:#231F20;stroke-width:21;" d="M510.28,605.95v0.25v84.13c0,0,20.06,26.4,89.83,36.72v29.34
				l-122.91,0.37H248.87v-29.35c69.76-10.311,89.85-36.74,89.85-36.74v-84.38"/>
		</g>
	</g>
</g>
<rect style="fill:none;" width="850.394" height="850.394"/>
</svg>
