<?xml version="1.0" encoding="iso-8859-1"?>
<!-- Generator: Adobe Illustrator 12.0.1, SVG Export Plug-In . SVG Version: 6.00 Build 51448)  -->
<!DOCTYPE svg PUBLIC "-//W3C//DTD SVG 1.1//EN" "http://www.w3.org/Graphics/SVG/1.1/DTD/svg11.dtd" [
	<!ENTITY ns_svg "http://www.w3.org/2000/svg">
	<!ENTITY ns_xlink "http://www.w3.org/1999/xlink">
]>
<svg  version="1.1" id="Layer_1" xmlns="&ns_svg;" xmlns:xlink="&ns_xlink;" width="850.394" height="850.394"
	 viewBox="0 0 850.394 850.394" style="overflow:visible;enable-background:new 0 0 850.394 850.394;" xml:space="preserve">
<g id="XMLID_21_">
	<g>
		<path style="fill:#858485;" d="M745.15,570.82c43.159,57.12,22.859,96.47-6.341,102.819c-29.199,6.341-281.8-40.62-511.569,77.431
			c0,0-102.86,55.729-130.74-13.96c-20.32-50.78,26.65-135.83,118.05-225.95c44.35,46.28,107.98,73.62,182.8,73.62
			c86.2,0,162.22-43.84,207.18-110.561C612.28,477.43,703.84,516.14,745.15,570.82z"/>
		<path style="fill:#394EA1;" d="M604.53,474.22C559.57,540.94,483.55,584.78,397.35,584.78c-74.82,0-138.45-27.34-182.8-73.62
			c-42.49-44.33-67.28-106.03-67.28-177.72c0-95.76,53.29-179.02,131.71-221.45l0.31,0.58c0,0,69.81,78.7,125.67,106.63
			c55.85,27.93,112.97,13.96,125.66-17.77c11-27.5,4.86-68.32,3.01-78.75c68.49,44.83,113.78,122.48,113.78,210.76
			C647.41,385.6,631.6,434.06,604.53,474.22z M620.76,407.07c0-71.51-57.54-129.48-128.54-129.48
			c-70.979,0-128.51,57.97-128.51,129.48c0,71.51,57.53,129.47,128.51,129.47C563.22,536.54,620.76,478.58,620.76,407.07z"/>
		<path style="fill:#C8C8C8;" d="M492.22,277.59c71,0,128.54,57.97,128.54,129.48c0,71.51-57.54,129.47-128.54,129.47
			c-70.979,0-128.51-57.96-128.51-129.47C363.71,335.56,421.24,277.59,492.22,277.59z M483.66,501.01
			c60.31,0,109.17-47.74,109.17-106.63s-48.86-106.63-109.17-106.63c-8.03,0-15.86,0.84-23.391,2.45l0.211,2.02
			c-38.471,4.38-69.621,30.32-78.601,64.21l-0.24-0.06c-4.61,11.81-7.14,24.62-7.14,38.01C374.5,453.27,423.36,501.01,483.66,501.01
			z"/>
		<path style="fill:#C8C8C8;" d="M592.83,394.38c0,58.89-48.86,106.63-109.17,106.63c-60.3,0-109.16-47.74-109.16-106.63
			c0-13.39,2.53-26.2,7.14-38.01l0.24,0.06c-1.73,6.46-2.64,13.22-2.64,20.17c0,46.97,41.54,85.05,92.83,85.05
			c51.279,0,92.83-38.081,92.83-85.05c0-46.97-41.551-85.04-92.83-85.04c-3.931,0-7.79,0.22-11.59,0.66l-0.211-2.02
			c7.53-1.61,15.36-2.45,23.391-2.45C543.97,287.75,592.83,335.49,592.83,394.38z"/>
		<path style="fill:#C8C8C8;" d="M472.07,291.56c51.279,0,92.83,38.07,92.83,85.04c0,46.97-41.551,85.05-92.83,85.05
			c-51.291,0-92.83-38.081-92.83-85.05c0-6.95,0.91-13.71,2.64-20.17c8.98-33.89,40.13-59.83,78.601-64.21
			C464.28,291.78,468.14,291.56,472.07,291.56z M526.81,362.64c0-36.45-31.189-66-69.67-66c-38.479,0-69.66,29.55-69.66,66
			c0,36.46,31.18,66.01,69.66,66.01C495.62,428.65,526.81,399.1,526.81,362.64z"/>
		<path style="fill:#C8C8C8;" d="M533.63,122.68c1.851,10.43,7.99,51.25-3.01,78.75c-12.69,31.73-69.811,45.7-125.66,17.77
			c-55.86-27.93-125.67-106.63-125.67-106.63l-0.31-0.58c35.23-19.06,75.54-29.88,118.37-29.88
			C447.62,82.11,494.43,97.02,533.63,122.68z"/>
		<path style="fill:#C8C8C8;" d="M457.14,296.64c38.48,0,69.67,29.55,69.67,66c0,36.46-31.189,66.01-69.67,66.01
			c-38.479,0-69.66-29.55-69.66-66.01C387.48,326.19,418.66,296.64,457.14,296.64z M472.24,358.19c0-9.46-7.391-17.13-16.51-17.13
			c-9.11,0-16.49,7.67-16.49,17.13c0,9.47,7.38,17.14,16.49,17.14C464.85,375.33,472.24,367.66,472.24,358.19z"/>
		<path style="fill:#FFFFFF;" d="M455.73,341.06c9.119,0,16.51,7.67,16.51,17.13c0,9.47-7.391,17.14-16.51,17.14
			c-9.11,0-16.49-7.67-16.49-17.14C439.24,348.73,446.62,341.06,455.73,341.06z"/>
	</g>
	<g>
		<path style="fill:none;stroke:#000000;stroke-width:21;" d="M604,474c0,0,0.18,0.07,0.53,0.22
			c7.75,3.21,99.31,41.92,140.62,96.601c43.159,57.12,22.859,96.47-6.341,102.819c-29.199,6.341-281.8-40.62-511.569,77.431
			c0,0-102.86,55.729-130.74-13.96c-20.32-50.78,26.65-135.83,118.05-225.95"/>
		<path style="fill:none;stroke:#000000;stroke-width:21;" d="M533.63,122.68c68.49,44.83,113.78,122.48,113.78,210.76
			c0,52.16-15.811,100.62-42.88,140.78C559.57,540.94,483.55,584.78,397.35,584.78c-74.82,0-138.45-27.34-182.8-73.62
			c-42.49-44.33-67.28-106.03-67.28-177.72c0-95.76,53.29-179.02,131.71-221.45c35.23-19.06,75.54-29.88,118.37-29.88
			C447.62,82.11,494.43,97.02,533.63,122.68z"/>
		<path style="fill:none;stroke:#000000;stroke-width:21;" d="M279.29,112.57c0,0,69.81,78.7,125.67,106.63
			c55.85,27.93,112.97,13.96,125.66-17.77c11-27.5,4.86-68.32,3.01-78.75c-0.28-1.61-0.46-2.49-0.46-2.49"/>
		<path style="fill:none;stroke:#000000;stroke-width:21;" d="M472.24,358.19c0,9.47-7.391,17.14-16.51,17.14
			c-9.11,0-16.49-7.67-16.49-17.14c0-9.46,7.38-17.13,16.49-17.13C464.85,341.06,472.24,348.73,472.24,358.19z"/>
		<path style="fill:none;stroke:#000000;stroke-width:21;" d="M620.76,407.07c0,71.51-57.54,129.47-128.54,129.47
			c-70.979,0-128.51-57.96-128.51-129.47c0-71.51,57.53-129.48,128.51-129.48C563.22,277.59,620.76,335.56,620.76,407.07z"/>
		<path style="fill:none;stroke:#000000;stroke-width:21;" d="M460.27,290.2c7.53-1.61,15.36-2.45,23.391-2.45
			c60.31,0,109.17,47.74,109.17,106.63s-48.86,106.63-109.17,106.63c-60.3,0-109.16-47.74-109.16-106.63
			c0-13.39,2.53-26.2,7.14-38.01"/>
		<path style="fill:none;stroke:#000000;stroke-width:21;" d="M460.48,292.22c3.8-0.44,7.659-0.66,11.59-0.66
			c51.279,0,92.83,38.07,92.83,85.04c0,46.97-41.551,85.05-92.83,85.05c-51.291,0-92.83-38.081-92.83-85.05
			c0-6.95,0.91-13.71,2.64-20.17C390.86,322.54,422.01,296.6,460.48,292.22z"/>
		<path style="fill:none;stroke:#000000;stroke-width:21;" d="M526.81,362.64c0,36.46-31.189,66.01-69.67,66.01
			c-38.479,0-69.66-29.55-69.66-66.01c0-36.45,31.18-66,69.66-66C495.62,296.64,526.81,326.19,526.81,362.64z"/>
	</g>
</g>
<rect style="fill:none;" width="850.394" height="850.394"/>
</svg>
