<svg xmlns="http://www.w3.org/2000/svg" width="850.394" height="850.394" viewBox="0 0 850.394 850.394" overflow="visible"><path d="M591.03 161.71c-30.28 21.22-101.021 54.97-114.021 64.52-16.89 12.38-27.2 34.57-26.68 55.73.49 19.78 1.58 37.1 1.979 61.72.54 32.69 37.341 65.22 43.73 73.26 10.15 12.8 23.9 12.67 30.21 40.69 4.33 19.28-2.5 36.21-14.41 48.15-14.93 14.899-59.72 60.3-68.82 65.63-7.229-30.67-58.75-37.51-40-100.09 4.9-16.33 9.79-36.23 13.2-44.96 13.18-33.82 1.37-135.851.3-150.771-2.76-38.44 11.52-96.84 32.24-130.59 34.9-56.83 91.74-81.32 179.33-71.11C693.15 81.47 752.6 152.63 752.6 242.8c0 31.6-12.46 66.53-8.89 98.04 2.05 18.1 11.28 65.31 32.92 86.93 10.71 10.73 15.75 35.811 11.26 51-13.42-30.199-54.449-23.3-74.35-46.43 0 0-18.55-45.32-18.34-58.34.54-33.02 21.67-82.77-6.101-110.57-29.77-29.77-84.859-88.18-95.85-99.85-1.26-1.34-1.94-2.06-1.94-2.06-.089.06-.179.13-.279.19z" fill="#f6cc4b"/><path d="M97.5 588.04l.33.31c5.91 5.46 12.72 10.33 20.59 13.131 1.6.569 3.4.979 5.28 1.229 3.71.521 7.72.43 11.03-.25 2.11-.45 4.71-.96 6.66-1.86 1.65-.77 3.05-2.529 4.58-3.25 2.3-1.06 4.86-.119 7.01-1.449 2.51-1.54.61-3.311-.83-5.841-2.36-4.189-6-7.77-10.26-10.43-4.84-3-10.49-4.81-16.03-4.93-4.83-.101-9.37.89-13.56 2.689-5.56 2.371-10.52 6.151-14.8 10.651zm185.87-4.21c-4.27-4.49-9.23-8.271-14.79-10.64-4.19-1.801-8.73-2.79-13.55-2.681-5.54.12-11.19 1.92-16.02 4.92-4.27 2.65-7.91 6.24-10.28 10.42-1.43 2.551-3.34 4.311-.83 5.86 2.14 1.33 4.71.38 7 1.44 1.54.729 2.94 2.489 4.58 3.239 1.96.9 4.56 1.42 6.67 1.88 3.32.681 7.32.771 11.03.25 1.87-.26 3.67-.67 5.27-1.239 7.88-2.79 14.7-7.681 20.59-13.141l.33-.308zm24.78-174.82c40.51 26.11 58.23 74.73 58.23 130.59 0 2.301.37 3.61-1.79 7.98l-5.75 1.07c1.11 0 2.25.1 3.42.3 13.96 2.439 12.08 19.52 8.25 28.04-9.34 20.75-4.84 22.52-6.02 38.34-.67 8.83-12.99 27.34-25.07 15.46l-2.33-.11c-1.31 24.82-7.35 48.48-7.65 50.65-2.1 15.07-56.05 78.71-87.93 89.99-22.45 7.93-59.96 15.8-87.59-8.891-11.65-10.399-32.67-42.96-37.45-51.63-5.59-10.149-22.73-26.84-24.56-58.359-.49-8.36-1.93-16.721-3.43-25.03-2.1-11.57-4.34-23.021-4.34-34.141 0-9.699 1.38-20.619 2.12-37.17.4-.39.82-.77 1.26-1.149-.38-.351-.77-.69-1.17-1 .02-.44.04-.891.05-1.34.18-4.551.29-9.511.32-14.96 4.73-101.74 62.22-146.55 136.74-148.93 35.18-1.12 63.16 6.4 84.69 20.29zm-60.9 282.53c-8.72.89-41.52-6.67-46.25 5.2-2.94 1.17-7.69-1.931-10.93-2.67-6.13-1.431-13.25-.08-19.22 1.66-9.57 2.77-10.05 6.55-7.04 10.529 3.13 4.11 10 8.44 14.41 12.09 11.91 9.82 27.41 11.091 41.87 4.69 10.68-4.71 16.97-15.04 22.98-24.83 1.39-2.279 2.77-4.529 4.18-6.669z" fill="#ffeec8"/><path d="M283.37 583.83l-.33.31c-5.89 5.46-12.71 10.351-20.59 13.141-1.6.569-3.4.979-5.27 1.239l-.51-3.869c7.19-1.051 12.69-6.99 12.69-14.15 0-2.96.29-3.73-1.32-6.02l.54-1.29c5.56 2.369 10.52 6.149 14.79 10.639z" fill="#fff"/><path d="M268.04 574.48c1.61 2.289 1.32 3.06 1.32 6.02 0 7.16-5.5 13.1-12.69 14.15-.74.1-1.51.159-2.28.159-8.27 0-14.97-6.409-14.97-14.31 0-2.19-.6-1.99.33-3.84l-.74-1.23c4.83-3 10.48-4.8 16.02-4.92 4.82-.109 9.36.88 13.55 2.681l-.54 1.29zm-4.39 6.57c0-4.45-4.08-8.03-9.12-8.03-5.04 0-9.12 3.58-9.12 8.03 0 4.42 4.08 8.021 9.12 8.021 5.04-.001 9.12-3.601 9.12-8.021z" fill="#abda4d"/><path d="M254.53 573.02c5.04 0 9.12 3.58 9.12 8.03 0 4.42-4.08 8.021-9.12 8.021-5.04 0-9.12-3.601-9.12-8.021 0-4.45 4.08-8.03 9.12-8.03zm3.27 8.03c0-1.97-1.46-3.58-3.26-3.58-1.81 0-3.28 1.61-3.28 3.58 0 1.96 1.47 3.561 3.28 3.561 1.8-.001 3.26-1.601 3.26-3.561z" fill="#231f20"/><path d="M256.67 594.65l.51 3.869c-3.71.521-7.71.431-11.03-.25-2.11-.46-4.71-.979-6.67-1.88-1.64-.75-3.04-2.51-4.58-3.239-2.29-1.061-4.86-.11-7-1.44-2.51-1.55-.6-3.31.83-5.86 2.37-4.18 6.01-7.77 10.28-10.42l.74 1.23c-.93 1.85-.33 1.649-.33 3.84 0 7.9 6.7 14.31 14.97 14.31.77 0 1.54-.06 2.28-.16z" fill="#fff"/><path d="M254.54 577.47c1.8 0 3.26 1.61 3.26 3.58 0 1.96-1.46 3.561-3.26 3.561-1.81 0-3.28-1.601-3.28-3.561 0-1.97 1.47-3.58 3.28-3.58z"/><path d="M201 696.74c4.73-11.87 37.53-4.311 46.25-5.2-1.41 2.14-2.79 4.39-4.18 6.67l-.01-.01c-16.74 7.569-26.43 7.66-38.28 8.6-11.78.931-29.22 2.9-40.95-.55l-.02.01c-3.01-3.979-2.53-7.76 7.04-10.529 5.97-1.74 13.09-3.091 19.22-1.66 3.24.739 7.99 3.839 10.93 2.669z" fill="#f0947d"/><path d="M243.06 698.2l.01.01c-6.01 9.79-12.3 20.12-22.98 24.83-14.46 6.4-29.96 5.13-41.87-4.69-4.41-3.649-11.28-7.979-14.41-12.09l.02-.01c11.73 3.45 29.17 1.48 40.95.55 11.85-.94 21.54-1.03 38.28-8.6z" fill="#f0947d"/><path d="M152.15 590.06c1.44 2.53 3.34 4.301.83 5.841-2.15 1.33-4.71.39-7.01 1.449-1.53.721-2.93 2.48-4.58 3.25-1.95.9-4.55 1.41-6.66 1.86-3.31.68-7.32.771-11.03.25l.51-3.88c.74.1 1.51.16 2.28.16 8.27 0 14.98-6.4 14.98-14.29 0-2.19.59-2-.34-3.84l.76-1.23c4.26 2.66 7.9 6.24 10.26 10.43z" fill="#fff"/><path d="M141.89 579.63l-.76 1.23c.93 1.84.34 1.649.34 3.84 0 7.89-6.71 14.29-14.98 14.29-.77 0-1.54-.061-2.28-.16-7.19-1.05-12.7-6.98-12.7-14.13 0-2.97-.28-3.73 1.33-6.01l-.54-1.301c4.19-1.8 8.73-2.79 13.56-2.689 5.54.12 11.19 1.93 16.03 4.93zm-6.42 5.61c0-4.44-4.08-8.03-9.12-8.03s-9.12 3.59-9.12 8.03c0 4.439 4.08 8.029 9.12 8.029s9.12-3.589 9.12-8.029z" fill="#abda4d"/><path d="M126.35 577.21c5.04 0 9.12 3.59 9.12 8.03 0 4.439-4.08 8.029-9.12 8.029s-9.12-3.59-9.12-8.029c0-4.44 4.08-8.03 9.12-8.03zm3.27 8.03c0-1.971-1.47-3.561-3.27-3.561-1.82 0-3.28 1.59-3.28 3.561 0 1.97 1.46 3.56 3.28 3.56 1.8 0 3.27-1.59 3.27-3.56z" fill="#231f20"/><path d="M126.35 581.68c1.8 0 3.27 1.59 3.27 3.561 0 1.97-1.47 3.56-3.27 3.56-1.82 0-3.28-1.59-3.28-3.56 0-1.971 1.46-3.561 3.28-3.561z"/><path d="M124.21 598.83l-.51 3.88c-1.88-.25-3.68-.66-5.28-1.229-7.87-2.801-14.68-7.671-20.59-13.131l-.33-.31c4.28-4.5 9.24-8.28 14.8-10.65l.54 1.301c-1.61 2.279-1.33 3.04-1.33 6.01 0 7.149 5.51 13.079 12.7 14.129z" fill="#fff"/><path d="M86.26 556.1c-.74 16.551-2.12 27.471-2.12 37.17 0 11.12 2.24 22.57 4.34 34.141-9.3 4.16-19.01-3.74-19.5-10.17-1.18-15.811 3.08-18.561-6.24-39.32-3.83-8.51-5.72-25.59 8.24-28.03 6.03-1.05 11.24.721 15.37 4.061l-.09 2.148z" fill="#ffeec8"/><g fill="none" stroke="#231f20"><path d="M593.25 163.58c10.99 11.67 66.08 70.08 95.85 99.85 27.771 27.8 6.641 77.55 6.101 110.57-.21 13.02 18.34 58.34 18.34 58.34 19.9 23.13 60.93 16.23 74.35 46.43 4.49-15.189-.55-40.27-11.26-51-21.64-21.62-30.87-68.83-32.92-86.93-3.57-31.51 8.89-66.44 8.89-98.04 0-90.17-59.449-161.33-124.51-168.91C540.5 63.68 483.66 88.17 448.76 145c-20.72 33.75-35 92.15-32.24 130.59 1.07 14.92 12.88 116.95-.3 150.771-3.41 8.729-8.3 28.63-13.2 44.96-18.75 62.58 32.77 69.42 40 100.09 9.101-5.33 53.891-50.73 68.82-65.63 11.91-11.94 18.74-28.87 14.41-48.15-6.31-28.02-20.06-27.89-30.21-40.69-6.39-8.04-43.19-40.57-43.73-73.26-.399-24.62-1.489-41.94-1.979-61.72-.521-21.16 9.79-43.35 26.68-55.73 13-9.55 83.74-43.3 114.021-64.52.1-.06.189-.13.279-.19-.001-.001.679.719 1.939 2.059z" stroke-width="21"/><path d="M594.84 163.78c-.59.01-1.12-.06-1.59-.2-1.03-.28-1.78-.91-2.22-1.87-.061-.12-.11-.24-.16-.37 9.31-9.07 13.88-23.44 16.66-35.66" stroke-width="21"/><path d="M215.6 562.05c12.66-21.1 43.45-24.47 61.08-17.58 9.45 3.69 15.21 8.061 17.7 10.55M149.14 554.26c-15.91-14.2-46.15-12.85-61.62.69-.44.38-.86.76-1.26 1.149a30.342 30.342 0 0 0-3.23 3.69" stroke-width="14"/><path d="M170.05 566.62c18.39 13.75 8.66 60.33 4.03 74.21-1.48 4.42-7.82 12.28-3.36 16.88 2.16 2.23 4.93 1.021 7.63 1.45 2.81.43 4.48.71 7.7 1.899 6.22 2.32 10.76 3.721 16.36-.35 6.07-4.4 5.63-7.51 14.58-7.08 7.53.36 15.87 2.47 15.5-9.13-.25-7.99-6.27-7.89-10.56-13.53M200.5 698.77c.09-.729.26-1.409.5-2.029 4.73-11.87 37.53-4.311 46.25-5.2-1.41 2.14-2.79 4.39-4.18 6.67-6.01 9.79-12.3 20.12-22.98 24.83-14.46 6.4-29.96 5.13-41.87-4.69-4.41-3.649-11.28-7.979-14.41-12.09-3.01-3.979-2.53-7.76 7.04-10.529 5.97-1.74 13.09-3.091 19.22-1.66 3.24.739 7.99 3.84 10.93 2.67.5-.2.95-.521 1.33-1" stroke-width="7"/><path d="M163.83 706.25c11.73 3.45 29.17 1.48 40.95.55 11.85-.939 21.54-1.03 38.28-8.6" stroke-width="7"/><path d="M94.77 591.12c.88-1.061 1.79-2.09 2.73-3.08 4.28-4.5 9.24-8.28 14.8-10.65 4.19-1.8 8.73-2.79 13.56-2.689 5.54.12 11.19 1.93 16.03 4.93 4.26 2.66 7.9 6.24 10.26 10.43 1.44 2.53 3.34 4.301.83 5.841-2.15 1.33-4.71.39-7.01 1.449-1.53.721-2.93 2.48-4.58 3.25-1.95.9-4.55 1.41-6.66 1.86-3.31.68-7.32.771-11.03.25-1.88-.25-3.68-.66-5.28-1.229-7.87-2.801-14.68-7.671-20.59-13.131" stroke-width="6.629" stroke-linecap="square" stroke-miterlimit="10"/><path d="M141.13 580.86c.93 1.84.34 1.649.34 3.84 0 7.89-6.71 14.29-14.98 14.29-.77 0-1.54-.061-2.28-.16-7.19-1.05-12.7-6.98-12.7-14.13 0-2.97-.28-3.73 1.33-6.01" stroke-width="4.972" stroke-linecap="square" stroke-miterlimit="10"/><path d="M286.11 586.92c-.88-1.06-1.79-2.09-2.74-3.09-4.27-4.49-9.23-8.271-14.79-10.64-4.19-1.801-8.73-2.79-13.55-2.681-5.54.12-11.19 1.92-16.02 4.92-4.27 2.65-7.91 6.24-10.28 10.42-1.43 2.551-3.34 4.311-.83 5.86 2.14 1.33 4.71.38 7 1.44 1.54.729 2.94 2.489 4.58 3.239 1.96.9 4.56 1.42 6.67 1.88 3.32.681 7.32.771 11.03.25 1.87-.26 3.67-.67 5.27-1.239 7.88-2.79 14.7-7.681 20.59-13.141" stroke-width="6.629" stroke-linecap="square" stroke-miterlimit="10"/><path d="M239.75 576.66c-.93 1.85-.33 1.649-.33 3.84 0 7.9 6.7 14.31 14.97 14.31.77 0 1.54-.06 2.28-.159 7.19-1.051 12.69-6.99 12.69-14.15 0-2.96.29-3.73-1.32-6.02" stroke-width="4.972" stroke-linecap="square" stroke-miterlimit="10"/><path d="M86.73 535.07c0 .87 0 1.729-.01 2.58-.03 5.449-.14 10.409-.32 14.96-.01.449-.03.899-.05 1.34l-.09 2.149c-.74 16.551-2.12 27.471-2.12 37.17 0 11.12 2.24 22.57 4.34 34.141 1.5 8.31 2.94 16.67 3.43 25.03 1.83 31.52 18.97 48.21 24.56 58.359 4.78 8.67 25.8 41.23 37.45 51.63 27.63 24.69 65.14 16.82 87.59 8.891 31.88-11.28 85.83-74.92 87.93-89.99.3-2.17 6.34-25.83 7.65-50.65.71-13.779-.02-27.92-4.02-38.93M336.81 580.98c-2.84-12.65 6.29-32.33 22.03-32.33 1.11 0 2.25.1 3.42.3 13.96 2.439 12.08 19.52 8.25 28.04-9.34 20.75-4.84 22.52-6.02 38.34-.67 8.83-12.99 27.34-25.07 15.46" stroke-width="14"/><path d="M88.61 556.02c-.35-.369-.72-.72-1.09-1.069-.38-.351-.77-.69-1.17-1-4.13-3.34-9.34-5.11-15.37-4.061-13.96 2.44-12.07 19.521-8.24 28.03 9.32 20.76 5.06 23.51 6.24 39.32.49 6.43 10.2 14.33 19.5 10.17.26-.12.53-.25.79-.391M86.4 552.61c-.02-5.12.09-10.101.32-14.96 4.73-101.74 62.22-146.55 136.74-148.93 35.18-1.12 63.16 6.4 84.69 20.29 40.51 26.11 58.23 74.73 58.23 130.59 0 2.301.37 3.61-1.79 7.98" stroke-width="14"/><path stroke-width="21" d="M283.06 466.25l-48.5 13.25-1.12-50.18"/><path d="M238.18 473.07c15.97-26.801 36.8-51.16 69.97-64.061 14.6-5.69 31.59-9.16 51.61-9.64" stroke-width="21"/></g><path fill="none" d="M0 0h850.394v850.394H0z"/></svg>