<svg xmlns="http://www.w3.org/2000/svg" width="850.394" height="850.394" viewBox="0 0 850.394 850.394" overflow="visible"><path d="M477.6 721.11l-.75.68 28.83 26.13-61.84 40.51c14.851-136.949 24.32-203.26 31.34-238.37 6.601-32.989 58.54-52.77 71.74-53.6 17.19-1.08 59.75 5.98 73.29 8.33 2.67.46 4.21.74 4.21.74-2.06 14.02-6.5 20.02.12 35.279 3.61 8.351 4.42 30.79-14.98 39.11-15.81 6.79-45.04 5.41-56.729 15.021-17.74 14.56-12.41 36.159-4.08 52.449l39.99 45.971-.741.64-42.12 27.59h-67.84l-.44-.48zM631.02 434.21c-7.42 8.24-4.359 27.57-1.039 38.67l-2.061 6.72c-20.5-2.04-79.36-9.529-79.36-9.529s17.601-71.69 28.04-78.33c9.07-5.771 54.42 42.469 54.42 42.469z" fill="#ffeec8"/><path d="M652.01 428.02l-20.99 6.19s-45.35-48.24-54.42-42.47c-10.439 6.64-28.04 78.33-28.04 78.33s58.86 7.489 79.36 9.529l-7.71 25.19c-13.54-2.35-56.1-9.41-73.29-8.33-13.2.83-65.14 20.61-71.74 53.6-7.02 35.11-16.489 101.421-31.34 238.37l-25.42-.92c7.58-51.76 32.19-248.6 41.92-272.91 4.94-12.369 61.84-40.399 61.84-40.399 12.37-32.16 31.87-110.49 51.12-110.49 27.62 0 78.7 64.29 78.7 64.29l.01.02z" fill="#ee947d"/><path d="M652.01 428.02L652 428s-51.08-64.29-78.7-64.29c-19.25 0-38.75 78.33-51.12 110.49 0 0-56.899 28.03-61.84 40.399C450.61 538.91 426 735.75 418.42 787.51l-295.49-10.63c14.97-58.01 79.58-85.13 141.31-114.42 17.48-8.29 36.68-14.2 41.45-37.43 5.77-28.101-9.36-59.681-12.63-85.92 12.49-3.86 9.72-14.431 15.67-32.49l11.86-40.3c-6.93-24.13-33.47-36.75-40.44-64.28-8.19-32.35 8.2-54.46 31.65-64.93 23.44-10.46 33.18 9.49 45.44 34.82 0 0 1.13 17.01 13.9-5.47 12.74-22.48 9.48-58.06 14.59-86.69 5.1-28.65 31.9-16.9 83.3-27.62 51.399-10.73 67.83-6.23 93.09-24.97 7.36-5.47 13.38-11.8 17.7-18.59l1.729.32c9.65 7.4 15.63 14.03 21.96 41.23 4.86 21 4.721 39.28 3.41 59.02-1.25 18.21-1.07 18.49 15.35 37.33 23.91 27.44 28 33.73 40.261 43.8 12.239 10.04 3.79 33.02-4.57 35.979h-.01l-5.94 1.751z" fill="#ffeec8"/><path d="M293.06 539.11c-2.68.83-6.07 1.34-10.41 1.56-24.5 1.19-32.41-10.61-74.93-51.01-47.6-45.23-58.19-115.47-63.53-148.11-5.34-32.66-6.07-112.64 16-146.72 22.07-34.07 43.55-57.54 43.55-57.54s74.32-67.97 127.12-69.69c52.79-1.72 101.31-8.53 135.36 6.83 34.061 15.37 88.99 59.2 109.8 82.17 14.74 16.27 14.29 35.5 3.801 51.99-4.32 6.79-10.34 13.12-17.7 18.59-25.26 18.74-41.69 14.24-93.09 24.97-51.4 10.72-78.2-1.03-83.3 27.62-5.11 28.63-1.85 64.21-14.59 86.69-12.77 22.48-13.9 5.47-13.9 5.47-12.26-25.33-22-45.28-45.44-34.82-23.45 10.47-39.84 32.58-31.65 64.93 6.97 27.53 33.51 40.15 40.44 64.28l-11.86 40.3c-5.951 18.06-3.181 28.63-15.671 32.49z" fill="#9e5c26"/><g fill="none" stroke="#231f20"><path d="M579.82 208.59c-4.32 6.79-10.34 13.12-17.7 18.59-25.26 18.74-41.69 14.24-93.09 24.97-51.4 10.72-78.2-1.03-83.3 27.62-5.11 28.63-1.85 64.21-14.59 86.69-12.77 22.48-13.9 5.47-13.9 5.47-12.26-25.33-22-45.28-45.44-34.82-23.45 10.47-39.84 32.58-31.65 64.93 6.97 27.53 33.51 40.15 40.44 64.28l-11.86 40.3c-5.95 18.06-3.18 28.63-15.67 32.49-2.68.83-6.07 1.34-10.41 1.56-24.5 1.19-32.41-10.61-74.93-51.01-47.6-45.23-58.19-115.47-63.53-148.11-5.34-32.66-6.07-112.64 16-146.72 22.07-34.07 43.55-57.54 43.55-57.54s74.32-67.97 127.12-69.69c52.79-1.72 101.31-8.53 135.36 6.83 34.061 15.37 88.99 59.2 109.8 82.17 14.74 16.27 14.29 35.5 3.8 51.99z" stroke-width="14"/><path d="M292.48 532.03c.08 2.31.28 4.67.58 7.08 3.27 26.239 18.4 57.819 12.63 85.92-4.77 23.229-23.97 29.14-41.45 37.43-61.73 29.29-126.34 56.41-141.31 114.42M657.96 426.27c8.36-2.959 16.81-25.939 4.57-35.979-12.261-10.07-16.351-16.36-40.261-43.8-16.42-18.84-16.6-19.12-15.35-37.33 1.311-19.74 1.45-38.02-3.41-59.02-6.33-27.2-12.31-33.83-21.96-41.23M647.51 432.14c3.71-2.88 5.141-4 10.44-5.87M631.85 479.97c.82-4.95-1.43-5.62-1.869-7.09-3.32-11.1-6.381-30.43 1.039-38.67M592.21 697.35l-3.47-3.989-39.99-45.971c-8.33-16.29-13.66-37.89 4.08-52.449 11.689-9.61 40.92-8.23 56.729-15.021 19.4-8.32 18.591-30.76 14.98-39.11-6.62-15.26-2.18-21.26-.12-35.279" stroke-width="14"/><path d="M652 428s-51.08-64.29-78.7-64.29c-19.25 0-38.75 78.33-51.12 110.49 0 0-56.899 28.03-61.84 40.399C450.61 538.91 426 735.75 418.42 787.51c-.05.311-.1.62-.14.92" stroke-width="14"/><path d="M631.02 434.21s-45.35-48.24-54.42-42.47c-10.439 6.64-28.04 78.33-28.04 78.33s58.86 7.489 79.36 9.529c1.54.16 2.86.28 3.93.37M624.42 505.53s-1.54-.28-4.21-.74c-13.54-2.35-56.1-9.41-73.29-8.33-13.2.83-65.14 20.61-71.74 53.6-7.02 35.11-16.489 101.421-31.34 238.37" stroke-width="14"/><path stroke-width="21" d="M733.89 721.59H478.04M539.22 665.16l-61.62 55.95-.75.68 28.83 26.13 33.64 30.48"/><path stroke-width="14" d="M657.96 426.27h-.01"/></g><path fill="none" d="M0 0h850.394v850.394H0z"/></svg>