<svg xmlns="http://www.w3.org/2000/svg" width="850.394" height="850.394" viewBox="0 0 850.394 850.394" overflow="visible"><path fill="#f6cc4b" d="M738.18 597.46v168.97l-251.06-2.38V597.46z"/><path fill="#c8c8c8" d="M614.06 298.04l10.26-13.78 6.99-9.4 28.02 13.39-24.46 32.87-21.52-22.13z"/><path d="M631.31 274.86l-6.989 9.4-10.261 13.78c-9.85-2.92-18.029 8.46-18.029 8.46l-.78.14c-.11-.63-.3-.94-.3-.94L576 291.61s-.72-.19-1.96.18l-.03-.28s9.65-12.98 5.74-25.28c-3.92-12.32-39.25-29.19-39.25-29.19s27.33-1.74 55.05 11.23 35.76 26.59 35.76 26.59z" fill="#c8c8c8"/><path d="M595.25 306.64c.26 1.41.14 4.39-3.34 9.06-1.47 1.99-7.29 9.87-15.021 20.48l-5.88 1.08c-5.81-3.07-12.31-6.66-17.069-11.79-2.101-2.26-3.86-4.82-5.08-7.76-.16-.38-.32-.72-.5-1.05l4.409-.01c7.54-9.94 13.08-17.33 14.511-19.25 2.8-3.77 5.189-5.14 6.76-5.61 1.24-.37 1.96-.18 1.96-.18l18.95 14.09s.19.31.3.94z" fill="#f6cc4b"/><path d="M571.01 337.26c9.92 5.26 17.811 9 11.51 16.4-15.199 17.8-30.119 27.35-47.029 31.32-7.67 1.8-15.74 2.45-24.44 2.19-.25-12.5-17.76-34.21-13.859-51.97h.02c26.17-7.5 44.91-29.99 51.15-18.54.18.33.34.67.5 1.05 1.22 2.94 2.979 5.5 5.08 7.76 4.758 5.13 11.258 8.72 17.068 11.79z" fill="#ffeec8"/><path d="M535.49 384.98l4.91 2.3c-8.721 12.57-15.931 23.43-18.99 29.12-8.12 15.07-17.59 13.19-27.8 5.6-6.261-4.66-10.431-14.52-10.011-21.46 11.16-2.19 19.08-3.89 21.16-4.64 4.7-1.68 6.38-4.74 6.29-8.73 8.701.26 16.771-.39 24.441-2.19z" fill="#f6cc4b"/><path d="M518.92 582.13c3.05 15.101-20.61 4.87-38.67 10.76-2.93.95-5.71 2.33-8.2 4.311-11.03 8.77-16.3-17.41-33.52-37.021l36.12-41.05c23.62 12.77 37.72 30.53 44.27 63z" fill="#ffeec8"/><path d="M511.05 387.17c.09 3.99-1.59 7.05-6.29 8.73-2.08.75-10 2.45-21.16 4.64-22.189 4.34-57.159 10.6-84.31 15.13-8.96 1.49-17.06 2.8-23.57 3.78l-31.41 61.689-46.71 91.721-1.51 2.96-39.93-15.41-155.87-60.17-.05-.021s26.84-95.69 55.57-164.89c34.7-83.59 69.81-125.38 112.46-132.38l8.85-1.45c8.45 12.08 86.05 122.78 111.61 148.56 1.74-.02 3.53-.08 5.35-.16 42.75-1.96 104.41-18.77 104.41-18.77a20.93 20.93 0 0 0-1.3 4.07c-3.9 17.761 13.61 39.471 13.86 51.971z" fill="#a8d7f4"/><path d="M474.64 519.12l.011.01-36.12 41.05-.011.011L346 482l-1.69-.86 31.41-61.689c6.51-.98 14.61-2.29 23.57-3.78L400 420l74.64 99.12z" fill="#a8d7f4"/><path d="M382.26 245.79c-5.58.55-11.21.16-16.75-1.27-21.44-5.52-36.41-25.32-41.27-50.58-2.67-13.92-2.28-29.49 1.79-45.25 11.45-44.33 47.68-73.31 80.93-64.72 33.271 8.58 50.93 51.49 39.49 95.82-9.55 36.95-36.29 63.23-64.19 66z" fill="#ffeec8"/><path d="M394 348l.08 1.9c-1.82.08-3.61.14-5.35.16-25.56-25.78-103.16-136.48-111.61-148.56C297.09 198.19 322 194 322 194l2.24-.06c4.86 25.26 19.83 45.06 41.27 50.58 5.54 1.43 11.17 1.82 16.75 1.27C394.11 264.39 394 348 394 348z" fill="#a8d7f4"/><path fill="#797878" d="M297.6 572.86l-5.81 188.59-37.06-.36L254 566l2.16-5.59 39.93 15.41z"/><path d="M100.29 500.24l155.87 60.17L254 566l.73 195.09-106.3-1.05c-2.09-18.01-10.92-87.75-24.46-110.79-25.62-43.61-42.54-77.13-23.68-149.01z" fill="#797878"/><g fill="none" stroke="#231f20"><path d="M324.24 193.94c-2.67-13.92-2.28-29.49 1.79-45.25 11.45-44.33 47.68-73.31 80.93-64.72 33.271 8.58 50.93 51.49 39.49 95.82-9.55 36.95-36.29 63.23-64.19 66-5.58.55-11.21.16-16.75-1.27-21.44-5.52-36.41-25.32-41.27-50.58zM322 194s-24.91 4.19-44.88 7.5l-8.85 1.45c-42.65 7-77.76 48.79-112.46 132.38-28.73 69.2-55.57 164.89-55.57 164.89l.05.021 155.87 60.17 39.93 15.41 1.51-2.96 46.71-91.721 31.41-61.689.02-.03" stroke-width="21"/><path d="M394 348s.11-83.61-11.74-102.21c-.02-.03-.03-.05-.05-.08M390.94 352.2c-.69-.63-1.42-1.34-2.21-2.14-25.56-25.78-103.16-136.48-111.61-148.56-.48-.7-.74-1.07-.74-1.07M265.83 338.83c11.78 11.26 83.16 82.83 94.67 82.55" stroke-width="21"/><path d="M360.5 421.38c2.02-.05 7.51-.77 15.22-1.93 6.51-.98 14.61-2.29 23.57-3.78 27.15-4.53 62.12-10.79 84.31-15.13 11.16-2.19 19.08-3.89 21.16-4.64 4.7-1.68 6.38-4.74 6.29-8.73-.25-12.5-17.76-34.21-13.859-51.97.29-1.38.72-2.74 1.3-4.07 0 0-61.66 16.81-104.41 18.77-1.82.08-3.61.14-5.35.16-1.88.03-3.71.02-5.48-.02" stroke-width="21"/><path d="M553.94 325.47c-2.101-2.26-3.86-4.82-5.08-7.76-.16-.38-.32-.72-.5-1.05-6.24-11.45-24.98 11.04-51.15 18.54M509.21 387.11c.62.03 1.23.05 1.84.06 8.7.26 16.771-.39 24.44-2.19 16.91-3.97 31.83-13.52 47.029-31.32 6.301-7.4-1.59-11.14-11.51-16.4-5.81-3.07-12.31-6.66-17.069-11.79M480.25 592.89c-2.93.95-5.71 2.33-8.2 4.311-11.03 8.77-16.3-17.41-33.52-37.021a70.93 70.93 0 0 0-3.141-3.359" stroke-width="21"/><path d="M474.65 519.13c23.619 12.771 37.72 30.53 44.27 63 3.05 15.101-20.61 4.87-38.67 10.76M471.11 517.27a91.649 91.649 0 0 1 3.529 1.851" stroke-width="21"/><path d="M576.89 336.18c7.73-10.61 13.551-18.49 15.021-20.48 3.479-4.67 3.6-7.65 3.34-9.06-.11-.63-.3-.94-.3-.94L576 291.61s-.72-.19-1.96.18c-1.57.47-3.96 1.84-6.76 5.61-1.431 1.92-6.971 9.31-14.511 19.25M484 398c-.21.78-.35 1.64-.4 2.54-.42 6.94 3.75 16.8 10.011 21.46 10.21 7.59 19.68 9.47 27.8-5.6 3.06-5.69 10.27-16.55 18.99-29.12M574.01 291.51s9.65-12.98 5.74-25.28c-3.92-12.32-39.25-29.19-39.25-29.19s27.33-1.74 55.05 11.23 35.76 26.59 35.76 26.59M596.03 306.5s8.18-11.38 18.029-8.46c.53.16 1.061.36 1.601.6" stroke-width="14"/><path stroke-width="14" d="M631.31 274.86l28.02 13.39-24.46 32.87-21.52-22.13.71-.95 10.26-13.78z"/><path d="M100.96 497.73c-.23.84-.45 1.68-.67 2.51-18.86 71.88-1.94 105.399 23.68 149.01 13.54 23.04 22.37 92.78 24.46 110.79.32 2.74.48 4.28.48 4.28M297.79 566.68l-.19 6.18-5.81 188.59M254 566l.73 195.09v1.32M400 420l74.64 99.12.01.01-36.12 41.05-.01.01L346 482M487.12 766.43V597.46h251.06v168.97" stroke-width="21"/></g><path fill="none" d="M0 0h850.394v850.394H0z"/></svg>