<?xml version="1.0" encoding="iso-8859-1"?>
<!-- Generator: Adobe Illustrator 12.0.1, SVG Export Plug-In . SVG Version: 6.00 Build 51448)  -->
<!DOCTYPE svg PUBLIC "-//W3C//DTD SVG 1.1//EN" "http://www.w3.org/Graphics/SVG/1.1/DTD/svg11.dtd" [
	<!ENTITY ns_svg "http://www.w3.org/2000/svg">
	<!ENTITY ns_xlink "http://www.w3.org/1999/xlink">
]>
<svg  version="1.1" id="Layer_1" xmlns="&ns_svg;" xmlns:xlink="&ns_xlink;" width="850.394" height="850.394"
	 viewBox="0 0 850.394 850.394" style="overflow:visible;enable-background:new 0 0 850.394 850.394;" xml:space="preserve">
<g>
	<g id="XMLID_1_">
		<g>
			<path style="fill:#A3D9FF;" d="M638.65,99.28c-3.9,6.44,0.479,17.5,10.359,25.41c9.13,7.36,19.931,9.54,25.78,5.63l-32.84,40.83
				c-5.851,3.92-16.65,1.73-25.8-5.62c-10.25-8.24-14.591-19.89-9.801-26.19l32.24-40.09L638.65,99.28z"/>
			<path style="fill:#0B00EA;" d="M674.79,130.32c-5.85,3.91-16.65,1.73-25.78-5.63c-9.88-7.91-14.26-18.97-10.359-25.41
				c0.189-0.34,0.409-0.66,0.659-0.97c5.04-6.24,17.521-4.55,27.881,3.79c10.35,8.33,14.68,20.13,9.64,26.38
				C676.25,129.2,675.56,129.82,674.79,130.32z"/>
			<path style="fill:#0B00EA;" d="M553.02,205.63l53.33-66.29c-4.79,6.3-0.449,17.95,9.801,26.19c9.149,7.35,19.949,9.54,25.8,5.62
				l-65.55,81.5l-70.62,87.8c-1.2,1.47-2.8,2.51-4.681,3.13h-0.01c-6.02,2-14.89-0.33-22.75-6.66c-7-5.62-11.24-12.85-11.71-18.87
				c-0.22-2.86,0.41-5.44,2.01-7.46l-0.029-0.02L553.02,205.63z"/>
			<path style="fill:#C8C8C8;" d="M478.34,336.92c7.86,6.33,16.73,8.66,22.75,6.66c-1.47,0.95-44.43,28.47-47.96,31.11
				c-9.04,6.86-9.89-8.53-9.89-8.53l23.13-48.09l0.26-0.02C467.1,324.07,471.34,331.3,478.34,336.92z"/>
			<path style="fill:#F6CC4B;" d="M239.12,365.62c0.09,2.44-0.58,4.75-2,6.93c-1.42,2.19-3.42,3.96-6,5.32
				c-2.61,1.37-4.9,1.83-6.87,1.36c-1.98-0.47-3.43-1.59-4.37-3.37c-0.61-1.16-0.86-2.37-0.73-3.65c0.12-1.27,0.62-2.46,1.5-3.55
				c0.88-1.09,2.59-2.56,5.14-4.41c4.49-3.25,7.7-6.01,9.61-8.28l1.3,2.43C238.24,361.33,239.05,363.74,239.12,365.62z"/>
			<path style="fill:#F6CC4B;" d="M285.42,446.04c2.64,5.02,3.58,9.36,2.8,13.01c-0.78,3.65-2.63,6.24-5.53,7.771
				c-2.83,1.489-5.77,1.66-8.8,0.5c-0.8-0.301-1.6-0.7-2.41-1.181c-2.39-1.42-4.83-4.5-7.32-9.22c-2.53-4.8-3.4-9.02-2.62-12.67
				c0.1-0.46,0.21-0.9,0.34-1.32c0.92-2.96,2.64-5.109,5.19-6.449c2.88-1.521,5.98-1.591,9.3-0.211
				C279.69,437.64,282.71,440.9,285.42,446.04z"/>
			<path style="fill:#F6CC4B;" d="M380.14,629.76c2.58,4.9,3.48,9.07,2.7,12.53c-0.1,0.43-0.21,0.85-0.34,1.25
				c-0.92,2.82-2.64,4.89-5.2,6.24c-2.88,1.52-6.05,1.59-9.49,0.22c-3.43-1.38-6.48-4.59-9.14-9.63
				c-2.75-5.21-3.76-9.55-3.05-13.021c0.71-3.47,2.54-5.989,5.5-7.55c1.64-0.859,3.33-1.28,5.08-1.27
				c1.49,0.02,3.02,0.359,4.58,1.01C374.18,620.97,377.3,624.38,380.14,629.76z"/>
			<path style="fill:#F6CC4B;" d="M505.78,340.45l70.62-87.8l0.859,0.69l178.65,315.49L375.11,779.56L93.66,256.77L479.52,75
				l73.5,130.63L468.61,310.57l0.029,0.02c-1.6,2.02-2.229,4.6-2.01,7.46l-0.26,0.02l-23.13,48.09l-10.971,24.33l20.86-15.8
				c3.53-2.64,46.49-30.16,47.96-31.11h0.01C502.98,342.96,504.58,341.92,505.78,340.45z M396.28,645.64l-28.65-54.35l-6.69,3.53
				l10.29,19.51c-1.51-0.74-3.12-1.22-4.83-1.42c-0.57-0.07-1.15-0.11-1.74-0.11c-2.38-0.03-4.75,0.58-7.11,1.82
				c-3.23,1.71-5.7,4.1-7.42,7.18c-1.71,3.08-2.38,6.561-1.99,10.45c0.38,3.89,1.6,7.8,3.67,11.73c2.13,4.02,4.73,7.21,7.8,9.55
				c3.08,2.33,6.39,3.68,9.93,4.02s6.88-0.31,10.02-1.96c4.84-2.55,7.48-6.43,7.92-11.64l2.61,4.95L396.28,645.64z M341.82,554.17
				c1.6-4.11,1.57-8.61-0.09-13.5l-7.05,2.58c1.3,3.59,1.49,6.65,0.59,9.18c-0.9,2.53-2.65,4.49-5.26,5.86
				c-3.25,1.71-6.52,1.9-9.8,0.57c-3.28-1.33-6.32-4.65-9.11-9.94c-2.75-5.21-3.71-9.58-2.88-13.1c0.83-3.511,2.92-6.16,6.28-7.931
				c2.22-1.17,4.47-1.5,6.74-0.989c2.27,0.5,4.41,1.92,6.42,4.229l5.94-4.399c-2.86-3.57-6.22-5.721-10.07-6.45
				c-3.85-0.73-7.91,0.029-12.18,2.279c-3.39,1.78-6.09,4.23-8.13,7.341c-2.04,3.109-2.92,6.63-2.64,10.56
				c0.27,3.92,1.53,8.01,3.77,12.26c3.46,6.57,7.75,10.761,12.88,12.561c5.12,1.8,10.37,1.279,15.75-1.561
				C337.27,561.46,340.22,558.28,341.82,554.17z M295.23,460.15c1.39-5.44,0.31-11.53-3.25-18.271c-1.5-2.85-3.3-5.31-5.4-7.38
				c-2.11-2.08-4.32-3.64-6.65-4.67c-2.32-1.03-4.82-1.47-7.49-1.311c-2.68,0.171-5.22,0.891-7.64,2.16
				c-4.37,2.301-7.03,5.96-7.98,10.96l-10.22-19.38l-6.69,3.52l28.65,54.35l6.19-3.26l-2.6-4.92c4.69,2.479,9.35,2.49,13.99,0.05
				C290.8,469.54,293.83,465.59,295.23,460.15z M247.63,374.75l6.96-3.67c-1.61-1.09-2.99-2.38-4.13-3.89
				c-1.15-1.5-3.35-5.35-6.62-11.55l-4.68-8.88c-1.56-2.96-2.75-4.95-3.58-5.97c-1.36-1.62-2.85-2.77-4.47-3.44
				c-1.62-0.68-3.69-0.86-6.21-0.54c-2.53,0.32-5.47,1.37-8.84,3.14c-3.39,1.79-6.13,3.83-8.22,6.11c-2.09,2.29-3.36,4.64-3.82,7.08
				c-0.46,2.43-0.25,5.2,0.63,8.3l6.99-2.55c-0.75-3.16-0.66-5.69,0.27-7.58c0.92-1.89,2.96-3.66,6.11-5.32
				c3.38-1.78,6.32-2.37,8.83-1.77c1.85,0.44,3.49,2.02,4.92,4.73c0.13,0.25,0.42,0.84,0.88,1.76c-2.09,2.24-5.67,5.1-10.74,8.6
				c-2.48,1.72-4.29,3.1-5.42,4.13c-1.53,1.44-2.75,3.02-3.67,4.73c-0.92,1.72-1.39,3.6-1.43,5.66c-0.05,2.06,0.44,4.05,1.46,5.98
				c1.73,3.29,4.32,5.37,7.77,6.26c3.44,0.88,7.33,0.18,11.67-2.11c2.63-1.38,4.87-3.11,6.71-5.19c1.83-2.07,3.43-4.81,4.79-8.22
				C244.96,372.31,246.24,373.71,247.63,374.75z"/>
			<path style="fill:#231F20;" d="M367.63,591.29l28.65,54.35l-6.19,3.261l-2.61-4.95l-4.98-0.41c0.13-0.4,0.24-0.82,0.34-1.25
				c0.78-3.46-0.12-7.63-2.7-12.53c-2.84-5.38-5.96-8.79-9.36-10.22c-1.56-0.65-3.09-0.99-4.58-1.01l0.2-5.62
				c1.71,0.2,3.32,0.68,4.83,1.42l-10.29-19.51L367.63,591.29z"/>
			<path style="fill:#231F20;" d="M366.2,618.53c-1.75-0.011-3.44,0.41-5.08,1.27c-2.96,1.561-4.79,4.08-5.5,7.55
				c-0.71,3.471,0.3,7.811,3.05,13.021c2.66,5.04,5.71,8.25,9.14,9.63c3.44,1.37,6.61,1.3,9.49-0.22c2.56-1.351,4.28-3.42,5.2-6.24
				l4.98,0.41c-0.44,5.21-3.08,9.09-7.92,11.64c-3.14,1.65-6.48,2.3-10.02,1.96s-6.85-1.689-9.93-4.02
				c-3.07-2.34-5.67-5.53-7.8-9.55c-2.07-3.931-3.29-7.841-3.67-11.73c-0.39-3.89,0.28-7.37,1.99-10.45
				c1.72-3.08,4.19-5.47,7.42-7.18c2.36-1.24,4.73-1.851,7.11-1.82c0.59,0,1.17,0.04,1.74,0.11L366.2,618.53z"/>
			<path style="fill:#231F20;" d="M341.73,540.67c1.66,4.89,1.69,9.39,0.09,13.5c-1.6,4.11-4.55,7.29-8.84,9.55
				c-5.38,2.84-10.63,3.36-15.75,1.561c-5.13-1.8-9.42-5.99-12.88-12.561c-2.24-4.25-3.5-8.34-3.77-12.26
				c-0.28-3.93,0.6-7.45,2.64-10.56c2.04-3.11,4.74-5.561,8.13-7.341c4.27-2.25,8.33-3.01,12.18-2.279
				c3.85,0.729,7.21,2.88,10.07,6.45l-5.94,4.399c-2.01-2.31-4.15-3.729-6.42-4.229c-2.27-0.511-4.52-0.181-6.74,0.989
				c-3.36,1.771-5.45,4.42-6.28,7.931c-0.83,3.52,0.13,7.89,2.88,13.1c2.79,5.29,5.83,8.61,9.11,9.94c3.28,1.33,6.55,1.14,9.8-0.57
				c2.61-1.37,4.36-3.33,5.26-5.86c0.9-2.529,0.71-5.59-0.59-9.18L341.73,540.67z"/>
			<path style="fill:#231F20;" d="M272.15,471.95l2.6,4.92l-6.19,3.26l-28.65-54.35l6.69-3.52l10.22,19.38l5.06,1.29
				c-0.13,0.42-0.24,0.86-0.34,1.32c-0.78,3.65,0.09,7.87,2.62,12.67c2.49,4.72,4.93,7.8,7.32,9.22c0.81,0.48,1.61,0.88,2.41,1.181
				L272.15,471.95z"/>
			<path style="fill:#231F20;" d="M286.14,472c-4.64,2.44-9.3,2.43-13.99-0.05l1.74-4.63c3.03,1.16,5.97,0.989,8.8-0.5
				c2.9-1.53,4.75-4.12,5.53-7.771c0.78-3.649-0.16-7.99-2.8-13.01c-2.71-5.14-5.73-8.4-9.05-9.771c-3.32-1.38-6.42-1.31-9.3,0.211
				c-2.55,1.34-4.27,3.489-5.19,6.449l-5.06-1.29c0.95-5,3.61-8.659,7.98-10.96c2.42-1.27,4.96-1.989,7.64-2.16
				c2.67-0.159,5.17,0.28,7.49,1.311c2.33,1.03,4.54,2.59,6.65,4.67c2.1,2.07,3.9,4.53,5.4,7.38c3.56,6.74,4.64,12.83,3.25,18.271
				C293.83,465.59,290.8,469.54,286.14,472z"/>
			<path style="fill:#231F20;" d="M237.12,372.55c1.42-2.18,2.09-4.49,2-6.93c-0.07-1.88-0.88-4.29-2.42-7.22l-1.3-2.43
				c-1.91,2.27-5.12,5.03-9.61,8.28c-2.55,1.85-4.26,3.32-5.14,4.41c-0.88,1.09-1.38,2.28-1.5,3.55c-0.13,1.28,0.12,2.49,0.73,3.65
				c0.94,1.78,2.39,2.9,4.37,3.37c1.97,0.47,4.26,0.01,6.87-1.36C233.7,376.51,235.7,374.74,237.12,372.55z M243.79,370.55
				c-1.36,3.41-2.96,6.15-4.79,8.22c-1.84,2.08-4.08,3.81-6.71,5.19c-4.34,2.29-8.23,2.99-11.67,2.11
				c-3.45-0.89-6.04-2.97-7.77-6.26c-1.02-1.93-1.51-3.92-1.46-5.98c0.04-2.06,0.51-3.94,1.43-5.66c0.92-1.71,2.14-3.29,3.67-4.73
				c1.13-1.03,2.94-2.41,5.42-4.13c5.07-3.5,8.65-6.36,10.74-8.6c-0.46-0.92-0.75-1.51-0.88-1.76c-1.43-2.71-3.07-4.29-4.92-4.73
				c-2.51-0.6-5.45-0.01-8.83,1.77c-3.15,1.66-5.19,3.43-6.11,5.32c-0.93,1.89-1.02,4.42-0.27,7.58l-6.99,2.55
				c-0.88-3.1-1.09-5.87-0.63-8.3c0.46-2.44,1.73-4.79,3.82-7.08c2.09-2.28,4.83-4.32,8.22-6.11c3.37-1.77,6.31-2.82,8.84-3.14
				c2.52-0.32,4.59-0.14,6.21,0.54c1.62,0.67,3.11,1.82,4.47,3.44c0.83,1.02,2.02,3.01,3.58,5.97l4.68,8.88
				c3.27,6.2,5.47,10.05,6.62,11.55c1.14,1.51,2.52,2.8,4.13,3.89l-6.96,3.67C246.24,373.71,244.96,372.31,243.79,370.55z"/>
		</g>
		<g>
			<path style="fill:none;stroke:#231F20;stroke-width:21;" d="M638.65,99.28c-3.9,6.44,0.479,17.5,10.359,25.41
				c9.13,7.36,19.931,9.54,25.78,5.63c0.77-0.5,1.46-1.12,2.04-1.84c5.04-6.25,0.71-18.05-9.64-26.38
				c-10.36-8.34-22.841-10.03-27.881-3.79C639.06,98.62,638.84,98.94,638.65,99.28z"/>
			<path style="fill:none;stroke:#231F20;stroke-width:21;" d="M606.49,139.14c-0.05,0.07-0.101,0.13-0.141,0.2
				c-4.79,6.3-0.449,17.95,9.801,26.19c9.149,7.35,19.949,9.54,25.8,5.62c0.77-0.51,1.46-1.12,2.04-1.85"/>
			<path style="fill:none;stroke:#231F20;stroke-width:21;" d="M506.14,340.77c0.011-0.04,0.03-0.04,0.04-0.06"/>
			<path style="fill:none;stroke:#231F20;stroke-width:21;" d="M501.1,343.58c1.881-0.62,3.48-1.66,4.681-3.13"/>
			<path style="fill:none;stroke:#231F20;stroke-width:21;" d="M468.68,310.54c-0.01,0.02-0.029,0.03-0.04,0.05
				c-1.6,2.02-2.229,4.6-2.01,7.46c0.47,6.02,4.71,13.25,11.71,18.87c7.86,6.33,16.73,8.66,22.75,6.66"/>
			<polyline style="fill:none;stroke:#231F20;stroke-width:21;" points="505.78,340.45 576.4,252.65 641.95,171.15 674.79,130.32 
				675.59,129.33 			"/>
			<polyline style="fill:none;stroke:#231F20;stroke-width:21;" points="638.59,99.25 606.35,139.34 553.02,205.63 468.61,310.57 
							"/>
			<path style="fill:none;stroke:#231F20;stroke-width:21;" d="M466.37,318.07l-23.13,48.09c0,0,0.85,15.39,9.89,8.53
				c3.53-2.64,46.49-30.16,47.96-31.11h0.01c0.021-0.01,0.03-0.02,0.03-0.02"/>
			<polyline style="fill:none;stroke:#231F20;stroke-width:21;stroke-linecap:round;stroke-linejoin:round;" points="443.24,366.16 
				432.27,390.49 453.13,374.69 			"/>
			<polyline style="fill:none;stroke:#231F20;stroke-width:21;" points="553.54,206.56 553.02,205.63 479.52,75 93.66,256.77 
				375.11,779.56 755.91,568.83 577.26,253.34 			"/>
			<line style="fill:none;stroke:#231F20;stroke-width:21;" x1="276.68" y1="346.12" x2="505.87" y2="219.54"/>
			<line style="fill:none;stroke:#231F20;stroke-width:21;" x1="325.2" y1="433.69" x2="443.24" y2="366.16"/>
			<line style="fill:none;stroke:#231F20;stroke-width:21;" x1="373.04" y1="523.02" x2="602.23" y2="396.43"/>
			<line style="fill:none;stroke:#231F20;stroke-width:21;" x1="422.37" y1="617.97" x2="651.56" y2="491.38"/>
		</g>
	</g>
</g>
<rect style="fill:none;" width="850.394" height="850.394"/>
</svg>
