<svg xmlns="http://www.w3.org/2000/svg" width="851.999" height="851.289" viewBox="0 0 851.999 851.289" overflow="visible"><path d="M489.035 370.485c-5.92-6.23-12.79-11.46-20.47-14.75-5.81-2.48-12.07-3.85-18.74-3.71-7.66.18-15.479 2.68-22.16 6.84-5.91 3.65-10.95 8.61-14.22 14.4-1.98 3.52-4.62 5.96-1.15 8.1 2.96 1.84 6.52.54 9.69 2 2.13 1 4.07 3.45 6.34 4.48 2.7 1.26 6.3 1.98 9.221 2.59 6.899 1.41 15.97.99 22.56-1.35 10.88-3.88 20.31-10.62 28.48-18.18l.449-.42zm-154.75 266.08c-.17-.12-.34-.25-.51-.38-22.5-17.31-41.03-39.78-52.36-62.08-21.38-42.1-36.89-58.28-47.65-108.37-9.59-44.59 3.66-55.02 2.92-85.31-.29-11.79-2.51-23.07-3.96-33.9-2.55-18.96-2.77-36.53 13.69-52.99 17.28-17.28 168.61-76.84 189.38-120.64-11.65 32.67 86.1 109.52 124.899 165.01 30.66 43.86 19.46 151.101 14.59 166.09-3.68 11.32-8.859 20.94-15.02 29.851-6.99 10.08-15.23 19.229-23.95 28.83-32.75 36.05-44.93 44.029-92.22 70.33-30.809 17.13-83.109 23.51-109.809 3.559zm22.84-111.599c-8.48-1.96-31.67 6.43-44.34 12.43 3.09 0 5.76.78 8.18 1.96 6.16 3.04 10.65 8.78 16.31 11.21 21.67 9.3 41.38 13.33 61.39 4.49 12.24-5.42 19.91-6.79 28.49-6.391 4.16.19 8.55.801 13.78 1.561-14-14-59.6-31.061-69.3-21.36-4.7 4.69-10.25-2.93-14.51-3.9zm-111.95-148.631l.43.4c7.82 7.24 16.85 13.71 27.28 17.41 6.32 2.26 15 2.65 21.6 1.3 2.8-.58 6.25-1.27 8.84-2.48 2.17-.99 4.03-3.33 6.07-4.29 3.03-1.4 6.45-.15 9.28-1.91 3.32-2.06.8-4.39-1.1-7.76-3.13-5.54-7.94-10.29-13.6-13.8-6.41-3.98-13.9-6.37-21.25-6.55-6.39-.14-12.39 1.18-17.95 3.56-7.36 3.151-13.94 8.16-19.6 14.12z" fill="#ffeec8"/><path d="M377.485 540.796c-16.3 1.279-33.82-2.92-54.23-2.92l-2.29 1.479c-2.42-1.18-5.09-1.96-8.18-1.96 12.67-6 35.86-14.39 44.34-12.43 4.26.97 9.81 8.59 14.51 3.899 9.7-9.7 55.3 7.36 69.3 21.36-5.23-.76-9.62-1.37-13.78-1.561l.12-2.77c-23.15-10.328-33.4-6.398-49.79-5.097z" fill="#fad7d9"/><path d="M427.275 545.896l-.12 2.77c-8.58-.399-16.25.971-28.49 6.391-20.01 8.84-39.72 4.81-61.39-4.49-5.66-2.43-10.15-8.17-16.31-11.21l2.29-1.479c20.41 0 37.93 4.199 54.23 2.92 16.39-1.303 26.64-5.233 49.79 5.098z" fill="#fad7d9"/><path d="M436.645 170.936c-.33.63-.62 1.29-.85 1.96-20.771 43.8-172.101 103.36-189.38 120.64-16.46 16.46-16.24 34.03-13.69 52.99 1.45 10.83 3.67 22.11 3.96 33.9.74 30.29-12.51 40.72-2.92 85.31 10.76 50.09 26.27 66.271 47.65 108.37 11.33 22.3 29.86 44.771 52.36 62.08.17.13.34.26.51.38 10.96 10.75 14.53 30.4 11.37 43.35-4.23 17.341-12.65 25.66-29.2 37.83-15.08 11.091-117.95 42.971-131.88 51.15-11.09-47.01-80.25-3.93-51.52-99.8 7.5-25.03 15-55.521 20.22-68.92 20.2-51.79 2.12-208.14.47-230.99-4.23-58.9 17.64-148.4 49.39-200.09 53.48-87.1 140.58-124.63 274.791-108.98 99.68 11.62 190.77 120.65 190.77 258.82 0 48.42-19.09 101.95-13.62 150.22 3.141 27.73 9.061 90.07 42.2 123.21 16.43 16.431 19.16 78.07 12.29 101.32-46.34-18.85-106.56-28.57-122.78-44.79-35.59-35.59-24.479-94.24-24.16-114.19l-2.359-.859c6.16-8.91 11.34-18.53 15.02-29.851 4.87-14.989 16.07-122.229-14.59-166.09-38.8-55.49-136.55-132.34-124.899-165.01.317-.661.597-1.311.847-1.96z" fill="#9e5b16"/><path d="M586.785 648.896c16.221 16.22 76.44 25.94 122.78 44.79-66.05 152.8-524.99 75.21-524.99 75.21 13.93-8.18 116.8-40.06 131.88-51.15 16.55-12.17 24.97-20.489 29.2-37.83 3.16-12.949-.41-32.6-11.37-43.35 26.7 19.95 79 13.57 109.81-3.56 47.29-26.301 59.47-34.28 92.22-70.33 8.72-9.601 16.96-18.75 23.95-28.83l2.359.859c-.319 19.95-11.429 78.601 24.161 114.191z" fill="#ffeec8"/><path d="M489.035 370.485l-.449.42c-8.171 7.56-17.601 14.3-28.48 18.18-6.59 2.34-15.66 2.76-22.56 1.35-2.921-.61-6.521-1.33-9.221-2.59-2.27-1.03-4.21-3.48-6.34-4.48-3.17-1.46-6.73-.16-9.69-2-3.47-2.14-.83-4.58 1.15-8.1 3.27-5.79 8.31-10.75 14.22-14.4l1.021 1.69c-1.28 2.55-.46 2.28-.46 5.31 0 10.92 9.27 19.78 20.71 19.78 11.45 0 20.729-8.86 20.729-19.78 0-4.1.381-5.16-1.84-8.32l.74-1.81c7.68 3.29 14.55 8.52 20.47 14.75z" fill="#fff"/><path d="M467.825 357.545c2.221 3.16 1.84 4.22 1.84 8.32 0 10.92-9.279 19.78-20.729 19.78-11.44 0-20.71-8.86-20.71-19.78 0-3.03-.82-2.76.46-5.31l-1.021-1.69c6.681-4.16 14.5-6.66 22.16-6.84 6.67-.14 12.931 1.23 18.74 3.71l-.74 1.81zm-6.07 9.071c0-6.13-5.65-11.1-12.62-11.1-6.98 0-12.61 4.97-12.61 11.1 0 6.14 5.63 11.1 12.61 11.1 6.97-.001 12.62-4.961 12.62-11.1z" fill="#9e5b16"/><path d="M449.135 355.516c6.97 0 12.62 4.97 12.62 11.1 0 6.14-5.65 11.1-12.62 11.1-6.98 0-12.61-4.96-12.61-11.1 0-6.131 5.63-11.1 12.61-11.1zm4.53 11.1c0-2.72-2.02-4.93-4.529-4.93-2.49 0-4.521 2.21-4.521 4.93 0 2.73 2.03 4.94 4.521 4.94 2.509 0 4.529-2.21 4.529-4.94z"/><path d="M449.135 361.686c2.51 0 4.529 2.21 4.529 4.93 0 2.73-2.02 4.94-4.529 4.94-2.49 0-4.521-2.21-4.521-4.94.001-2.72 2.031-4.93 4.521-4.93zM317.575 379.005c1.9 3.37 4.42 5.7 1.1 7.76-2.83 1.76-6.25.51-9.28 1.91-2.04.96-3.9 3.3-6.07 4.29-2.59 1.21-6.04 1.9-8.84 2.48-6.6 1.35-15.28.96-21.6-1.3-10.43-3.7-19.46-10.17-27.28-17.41l-.43-.4c5.66-5.96 12.24-10.97 19.6-14.12l.72 1.73c-2.14 3.03-1.77 4.04-1.77 7.97 0 10.46 8.89 18.94 19.85 18.94s19.85-8.48 19.85-18.94c0-2.91.78-2.65-.45-5.09l1-1.62c5.66 3.51 10.47 8.26 13.6 13.8z" fill="#fff"/><path d="M303.975 365.206l-1 1.62c1.23 2.44.45 2.18.45 5.09 0 10.46-8.89 18.94-19.85 18.94s-19.85-8.48-19.85-18.94c0-3.93-.37-4.94 1.77-7.97l-.72-1.73c5.56-2.38 11.56-3.7 17.95-3.56 7.35.179 14.84 2.57 21.25 6.55zm-8.5 7.419c0-5.87-5.4-10.63-12.08-10.63s-12.1 4.76-12.1 10.63c0 5.89 5.42 10.63 12.1 10.63s12.08-4.739 12.08-10.63z" fill="#9e5b16"/><path d="M283.395 361.996c6.68 0 12.08 4.76 12.08 10.63 0 5.89-5.4 10.63-12.08 10.63s-12.1-4.74-12.1-10.63c0-5.871 5.42-10.63 12.1-10.63zm4.32 10.629c0-2.6-1.94-4.72-4.33-4.72-2.4 0-4.33 2.12-4.33 4.72 0 2.62 1.93 4.74 4.33 4.74 2.39.001 4.33-2.119 4.33-4.74z"/><path d="M283.385 367.905c2.39 0 4.33 2.12 4.33 4.72 0 2.62-1.94 4.74-4.33 4.74-2.4 0-4.33-2.12-4.33-4.74 0-2.6 1.93-4.72 4.33-4.72z" fill="#fff"/><g fill="none" stroke="#000"><path d="M390.335 295.996c10.86 47.49 65.06 10.5 89.44 20.02 13.07 5.11 21.04 11.16 24.48 14.59M345.695 298.206c-2.28 5.54 2.22 18.39-16.73 21.33-43.43 6.75-74.14-5.67-96.24 26.99-.33.47-.65.96-.97 1.46M407.895 437.995c8.17 4.9 10.76 8.631 10.76 16.41 0 16.061-21.45 13.45-30.41 15-5.78 1-10.34 4-17.74 7.271-13.82 6.1-26.34 3.6-37.3-4.011-7.28-5.05-9.34-13.42-7.3-19.55 4.32-12.939 24.29-67.31 24.29-109.52M320.965 539.355c-2.42-1.18-5.09-1.96-8.18-1.96 12.67-6 35.86-14.39 44.34-12.43 4.26.97 9.81 8.59 14.51 3.899 9.7-9.7 55.3 7.36 69.3 21.36-5.23-.76-9.62-1.37-13.78-1.561-8.58-.399-16.25.971-28.49 6.391-20.01 8.84-39.72 4.81-61.39-4.49-5.66-2.428-10.15-8.168-16.31-11.209z" stroke-width="11.676"/><path d="M323.255 537.876c20.41 0 37.93 4.199 54.23 2.92 16.39-1.301 26.64-5.23 49.79 5.1" stroke-width="11.676"/><path d="M435.795 172.896c-11.65 32.67 86.1 109.52 124.899 165.01 30.66 43.86 19.46 151.101 14.59 166.09-3.68 11.32-8.859 20.94-15.02 29.851-6.99 10.08-15.23 19.229-23.95 28.83-32.75 36.05-44.93 44.029-92.22 70.33-30.81 17.13-83.11 23.51-109.81 3.56-.17-.12-.34-.25-.51-.38-22.5-17.31-41.03-39.78-52.36-62.08-21.38-42.1-36.89-58.28-47.65-108.37-9.59-44.59 3.66-55.02 2.92-85.31-.29-11.79-2.51-23.07-3.96-33.9-2.55-18.96-2.77-36.53 13.69-52.99 17.281-17.282 168.611-76.842 189.381-120.641.319-.66.6-1.31.85-1.96a14.1 14.1 0 0 0-.85 1.96z" stroke-width="17.514"/><path d="M241.545 380.425c1.16-1.4 2.37-2.77 3.63-4.09 5.66-5.96 12.24-10.97 19.6-14.12 5.56-2.38 11.56-3.7 17.95-3.56 7.35.18 14.84 2.57 21.25 6.55 5.66 3.51 10.47 8.26 13.6 13.8 1.9 3.37 4.42 5.7 1.1 7.76-2.83 1.76-6.25.51-9.28 1.91-2.04.96-3.9 3.3-6.07 4.29-2.59 1.21-6.04 1.9-8.84 2.48-6.6 1.35-15.28.96-21.6-1.3-10.43-3.7-19.46-10.17-27.28-17.41" stroke-width="11.184" stroke-linecap="square" stroke-miterlimit="10"/><path d="M302.975 366.826c1.23 2.44.45 2.18.45 5.09 0 10.46-8.89 18.94-19.85 18.94s-19.85-8.48-19.85-18.94c0-3.93-.37-4.94 1.77-7.97" stroke-width="5.592" stroke-linecap="square" stroke-miterlimit="10"/><path d="M562.625 534.705c-.319 19.95-11.43 78.601 24.16 114.19 16.221 16.22 76.44 25.94 122.78 44.79 6.87-23.25 4.14-84.89-12.29-101.32-33.14-33.14-39.06-95.479-42.2-123.21-5.47-48.27 13.62-101.8 13.62-150.22 0-138.17-91.09-247.2-190.77-258.82-134.21-15.65-221.311 21.88-274.791 108.98-31.75 51.69-53.62 141.19-49.39 200.09 1.65 22.85 19.73 179.2-.47 230.99-5.22 13.399-12.72 43.89-20.22 68.92-28.73 95.87 40.43 52.79 51.52 99.8 13.93-8.18 116.8-40.06 131.88-51.15 16.55-12.17 24.97-20.489 29.2-37.83 3.16-12.949-.41-32.6-11.37-43.35a27.948 27.948 0 0 0-4.19-3.42" stroke-width="17.514"/><path d="M492.815 374.755a84.852 84.852 0 0 0-3.78-4.27c-5.92-6.23-12.79-11.46-20.47-14.75-5.81-2.48-12.07-3.85-18.74-3.71-7.66.18-15.479 2.68-22.16 6.84-5.91 3.65-10.95 8.61-14.22 14.4-1.98 3.52-4.62 5.96-1.15 8.1 2.96 1.84 6.52.54 9.69 2 2.13 1 4.07 3.45 6.34 4.48 2.7 1.26 6.3 1.98 9.221 2.59 6.899 1.41 15.97.99 22.56-1.35 10.88-3.88 20.31-10.62 28.48-18.18" stroke-width="11.676" stroke-linecap="square" stroke-miterlimit="10"/><path d="M428.685 360.556c-1.28 2.55-.46 2.28-.46 5.31 0 10.92 9.27 19.78 20.71 19.78 11.45 0 20.729-8.86 20.729-19.78 0-4.1.381-5.16-1.84-8.32" stroke-width="5.838" stroke-linecap="square" stroke-miterlimit="10"/><path d="M436.645 170.936c8.17-13.11 13.84-27.36 18.11-46.09" stroke-width="17.514"/></g><path fill="none" d="M1.605.896h850.394V851.29H1.605z"/></svg>