<?xml version="1.0" encoding="utf-8"?>
<!-- Generator: Adobe Illustrator 21.0.2, SVG Export Plug-In . SVG Version: 6.00 Build 0)  -->
<svg version="1.1" id="Layer_1" xmlns="http://www.w3.org/2000/svg" xmlns:xlink="http://www.w3.org/1999/xlink" x="0px" y="0px"
	 viewBox="0 0 850.4 850.4" style="enable-background:new 0 0 850.4 850.4;" xml:space="preserve">
<style type="text/css">
	.st0{fill:#FFFFFF;}
	.st1{fill:#787878;}
	.st2{fill:none;stroke:#000000;stroke-width:13.3678;}
	.st3{fill:none;stroke:#000000;stroke-width:13.3678;stroke-dasharray:16.1087;}
	.st4{fill:#FFEEC8;}
	.st5{fill:#A3D9FF;}
	.st6{fill:#0B00EA;}
	.st7{fill:none;stroke:#000000;stroke-width:16.7332;}
	.st8{fill:none;stroke:#000000;stroke-width:8.3666;stroke-linecap:square;stroke-miterlimit:10;}
	.st9{fill:#33A02C;}
	.st10{fill:none;stroke:#000000;stroke-width:12.542;stroke-linecap:round;stroke-linejoin:round;}
	.st11{fill:none;stroke:#000000;stroke-width:8.3613;stroke-linecap:round;stroke-linejoin:round;}
</style>
<g id="XMLID_4_">
	<g>
		<path class="st0" d="M471.4,533.9v231.3c0-30.4-52.7-48.4-125.6-51.2l-0.3,0c0.2-1.3,0.3-2.5,0.3-3.8l0-0.9V478h0.9
			c73,0,124.8,24.6,124.8,55L471.4,533.9z"/>
		<path class="st1" d="M212.9,446c23.3,0,42.2,8.7,42.2,19.4c0,10.7-18.9,19.4-42.2,19.4s-42.2-8.7-42.2-19.4
			C170.7,454.7,189.6,446,212.9,446z"/>
		<path class="st0" d="M126.3,511.6c-24.6-8.8-41.4-21.3-45.4-35.4c-0.6-2.2-0.9-4.4-0.9-6.6c0-30.6,59.5-55.4,132.9-55.4
			c73.4,0,132.9,24.8,132.9,55.4c0,0.6,0,1.1-0.1,1.7C343.6,501,284.9,525,212.9,525C179.8,525,149.6,519.9,126.3,511.6z
			 M255.1,465.4c0-10.7-18.9-19.4-42.2-19.4s-42.2,8.7-42.2,19.4c0,10.7,18.9,19.4,42.2,19.4S255.1,476.2,255.1,465.4z"/>
		<path class="st0" d="M126.3,511.6c23.3,8.3,53.5,13.4,86.6,13.4c72.1,0,130.8-23.9,132.9-53.7l0.1,0v6.8v231.2l0,0.9
			c0,1.3-0.1,2.6-0.3,3.8c-4.7,28.7-62,51.3-131.9,51.3c-73,0-132.2-24.7-132.2-55.1l-0.5-233.9C84.9,490.3,101.7,502.8,126.3,511.6
			z"/>
	</g>
	<g>
		<path class="st2" d="M255.1,465.4c0,10.7-18.9,19.4-42.2,19.4s-42.2-8.7-42.2-19.4c0-10.7,18.9-19.4,42.2-19.4
			S255.1,454.7,255.1,465.4z"/>
		<path class="st2" d="M80.9,476.1c-0.6-2.2-0.9-4.4-0.9-6.6c0-30.6,59.5-55.4,132.9-55.4c73.4,0,132.9,24.8,132.9,55.4
			c0,0.6,0,1.1-0.1,1.7C343.6,501,284.9,525,212.9,525c-33.1,0-63.3-5-86.6-13.4C101.7,502.8,84.9,490.3,80.9,476.1z"/>
		<path class="st2" d="M345.8,471.2v6.8v231.2l0,0.9c0,1.3-0.1,2.6-0.3,3.8c-4.7,28.7-62,51.3-131.9,51.3
			c-73,0-132.2-24.7-132.2-55.1l-0.5-233.9V476"/>
		<path class="st2" d="M345.8,713.9c73,2.9,125.6,20.8,125.6,51.2V533.9l0-0.9c0-30.4-51.7-55-124.8-55"/>
		<polyline class="st3" points="126.3,511.6 126.3,511.6 126.3,748.2 		"/>
	</g>
</g>
<g id="XMLID_10_">
	<g>
		<polygon class="st0" points="707.7,239.5 708.2,241.8 707.7,244.1 707.3,246.5 706.3,248.4 704.9,250.2 703.1,251.6 701.2,252.6 
			699.3,253.5 697,253.5 694.6,253.5 692.3,252.6 690.4,251.6 689,250.2 687.6,248.4 686.7,246.5 685.7,244.1 685.7,241.8 
			685.7,239.5 686.7,237.6 687.6,235.2 689,233.8 690.4,232.4 692.3,231 694.6,230.6 697,230.1 699.3,230.6 701.2,231 703.1,232.4 
			704.9,233.8 706.3,235.2 707.3,237.6 		"/>
		<polygon class="st0" points="697.9,271.3 697.9,272.7 697.4,274.6 696.5,276 695.6,277.4 694.2,278.3 692.7,279.3 691.3,279.8 
			689.9,279.8 688.1,279.8 686.7,279.3 685.2,278.3 683.8,277.4 682.9,276 682,274.6 681.5,272.7 681.5,271.3 681.5,269.4 
			682,267.6 682.9,266.2 683.8,265.2 685.2,263.8 686.7,263.3 688.1,262.9 689.9,262.4 691.3,262.9 692.7,263.3 694.2,263.8 
			695.6,265.2 696.5,266.2 697.4,267.6 697.9,269.4 		"/>
		<polygon class="st0" points="671.2,262.4 671.2,264.8 670.7,267.1 669.3,269 667.9,270.8 666.5,272.3 664.6,273.2 662.3,274.1 
			659.9,274.1 658.1,274.1 655.7,273.2 653.8,272.3 652,270.8 651,269 649.6,267.1 649.2,264.8 648.7,262.4 649.2,260.1 
			649.6,258.2 651,255.8 652,254.4 653.8,253 655.7,251.6 658.1,251.2 659.9,250.7 662.3,251.2 664.6,251.6 666.5,253 667.9,254.4 
			669.3,255.8 670.7,258.2 671.2,260.1 		"/>
		<path class="st0" d="M648.2,313l-2.8,0.5l-2.8,0.9l-2.8,0.9l-2.3,1.9l-2.3,1.9l-1.9,2.3l-6.1,9.4l-9.4,14.1l-9.4,12.6l-3.3,4.2
			c0,0-1,1.2-1.9,1.9l-1.9,0.9l-1.9,0.5c0,0-1.6-0.5-1.9-1.4c-0.3-0.9,0-1.9,0-1.9l2.8-8l1.4-3.3l0.9-2.8l0.9-2.8v-2.8v-2.3
			l-0.5-1.9l-0.5-1.4l-0.9-1.4l-1.4-1.4l-1.9-0.5l-1.4,0.5l-1.4,0.9l-0.4,0.5l-0.1-0.1l-1.4-3.8l-0.9-4.2v-4.7l0.9-5.2l0.5-2.3
			l0.9-2.3l1.4-1.9l1.9-1.9l1.9-1.9l2.3-1.4l2.8-1.4l2.8-0.9l4.7-0.9h4.2l3.7,0.9l3.8,0.9l1.4-3.8l1.9-3.7l3.3-3.7l3.3-3.3l4.2-2.8
			l4.2-2.3l3.8-1.9l4.2-0.9l8.4-0.5h6.6l5.6,1.4l4.2,1.9l3.7,1.9l2.8,2.3l2.3,2.3l1.9,1.4l2.3,1.4l0.9,0.5l0.9-0.5l2.8-1.4l4.7-2.8
			l2.3-1.4l2.8-0.9l2.8-0.5l2.8-0.5l5.2,0.5l5.2,1.4l5.2,2.3l1.9,1.4l1.9,1.9l1.9,1.9l1.4,1.9l1.4,2.3l0.9,2.8l0.5,2.3v2.8l3.7,0.5
			l3.3,0.9l2.8,0.9l2.8,1.4l2.3,1.4l2.3,2.3l2.3,2.8l1.9,2.8l1.9,3.8l0.9,3.7l0.5,3.8v4.2l-0.9,5.2l-1.4,5.2l-1.4,3.3l-0.9,0.9
			l-1.7,0.8l-0.1-0.3l-1.4-5.6l-0.9-4.2l-0.9-2.3l-0.5-1.9l-1.4-0.9h-1.4l-1.9,0.5l-1.9,1.4l-0.5,1.4l-0.9,1.4v1.9l-0.5,2.3l0.5,2.3
			l0.5,2.8l0.9,3.3l1.9,3.3l1.9,4.7l0.5,3.3v1.9v0.5l-0.5,0.9h-0.9l-1.9-0.5l-1.9-0.9l-1.9-1.9l-3.3-4.2l-9.4-13.1l-9.8-13.6
			l-6.1-9.4l-1.9-2.3l-1.9-2.3l-2.8-1.4l-2.3-0.9l-2.8-0.9l-2.8-0.5l-5.2-0.5l-3.3,0.5l-2.8,1.4l-2.4,2.3l-1.9,2.3l-2.8,4.2
			l-0.9,1.9v5.6l1.9,7.5l1.9,8.9l2.8,9.8l5,16.9l-1.3,0.4l-1.9,1.4l-1.9,0.5L681,380l-1.4-0.5l-1.9-0.5l-3.8-1.9l-2.8-2.4l-2.3-2.3
			l-8,4.7l-3.3,1.4l-2.3,0.5l-1.4-0.5l1.4-3.7l5.6-17.8l2.3-9.4l2.3-9.4l1.4-7.5l0.5-5.6l-0.9-1.9l-2.8-4.2l-2.3-2.3l-2.3-1.9
			l-2.8-1.4l-2.8-0.9L648.2,313z"/>
		<polygon class="st4" points="622,438.6 618.6,425.1 621,422.2 629.5,412.8 637.9,403.4 645.4,394.1 648.7,389.4 651.5,384.7 
			652.9,381 653.8,378.5 655.3,379.1 657.6,378.6 660.9,377.2 668.8,372.5 671.2,374.9 674,377.2 677.7,379.1 679.6,379.5 681,380 
			683.8,379.5 685.7,379.1 687.6,377.7 688.9,377.3 689,377.7 691.3,384.2 692.7,388 695.6,392.7 698.8,397.4 706.3,406.7 
			714.8,416.1 723.2,425.5 731.6,434.8 738.7,444.2 741.9,448.9 738.2,458.3 732.6,465.8 727.9,471.4 726,473.7 721.8,478.4 
			717.6,482.6 711,491.1 707.7,494.3 704,497.6 702.1,498.6 699.8,499.5 697.4,500.4 694.6,500.9 685.7,501.8 681,502.8 
			676.3,502.8 671.7,502.8 667.4,502.3 663.2,500.4 661.3,499.5 659.5,498.1 649.6,490.1 645,486.4 640.7,481.7 630.4,466.7 
			624.8,450.8 		"/>
		<path class="st4" d="M774.3,428.8l2.6,4.4l-0.2,0.1c-1.1,7.3-6.3,15.9-11,21.6c-5.2,6.2-10.5,7.1-18.2,7.2l-0.1,0l-1.3-4.3
			l-1.9-4.2l-2.4-4.7l-3.3-4.7l-7-9.4l-8.4-9.4l-8.4-9.4l-8.4-9.4l-7.5-9.4l-3.3-4.7l-2.8-4.7l-1.4-3.7l-2.3-6.6l-0.1-0.4l-5-16.9
			l-2.8-9.8l-1.9-8.9l-1.9-7.5v-5.6l0.9-1.9l2.8-4.2l1.9-2.3l2.4-2.3l2.8-1.4l3.3-0.5l5.2,0.5l2.8,0.5l2.8,0.9l2.3,0.9l2.8,1.4
			l1.9,2.3l1.9,2.3l6.1,9.4l9.8,13.6l9.4,13.1l3.3,4.2l1.9,1.9l1.9,0.9l1.9,0.5h0.9l0.5-0.9v-0.5V365l-0.5-3.3l-1.9-4.7l-1.9-3.3
			l-0.9-3.3l-0.5-2.8l-0.5-2.3l0.5-2.3v-1.9l0.9-1.4l0.5-1.4l1.9-1.4l1.9-0.5h1.4l1.4,0.9l0.5,1.9l0.9,2.3l0.9,4.2l1.4,5.6l0.1,0.3
			l2.7,5.8l3.3,5.2l2.8,5.1l2.8,4.7l1.9,5.1l1.9,7v3.7l0.5,3.7l-0.9,6.1l0.5,7l0.5,6.1l1.4,5.2l1.4,4.7l1.4,4.2L774.3,428.8z"/>
		<path class="st4" d="M618.6,425.1l-5.5,6.5l-7.5,9.4l-2.8,4.7l-2.8,4.7l-1.9,4.7l-1.2,3.5l-0.3-0.1c-7-2.4-14.5-4.2-20.8-9.6
			c-6.1-5.3-5.1-11.7-8.8-18l0.1-0.2l2.8-5.2l1.9-3.3l1.4-3.8l1.4-4.7l0.9-5.6l0.9-6.1v-6.6l-0.5-6.6v-3.8l0.5-3.7l1.4-6.6l2.3-5.6
			l2.3-4.7l3.3-5.2l2.8-5.2l2.8-6.1l1.9-5.6l0.9-3.8l0.5-2.8l0.6-0.9l0.4-0.5l1.4-0.9l1.4-0.5l1.9,0.5l1.4,1.4l0.9,1.4l0.5,1.4
			l0.5,1.9v2.3v2.8l-0.9,2.8l-0.9,2.8l-1.4,3.3l-2.8,8c0,0-0.3,1,0,1.9c0.3,0.9,1.9,1.4,1.9,1.4l1.9-0.5l1.9-0.9
			c0.9-0.6,1.9-1.9,1.9-1.9l3.3-4.2l9.4-12.6l9.4-14.1l6.1-9.4l1.9-2.3l2.3-1.9l2.3-1.9l2.8-0.9l2.8-0.9l2.8-0.5l5.2-0.5l2.8,0.9
			l2.8,1.4l2.3,1.9l2.3,2.3l2.8,4.2l0.9,1.9l-0.5,5.6l-1.4,7.5l-2.3,9.4l-2.3,9.4l-5.6,17.8l-1.4,3.7l-0.9,2.4l-1.4,3.8l-2.8,4.7
			l-3.3,4.7l-7.5,9.4l-8.4,9.4l-8.4,9.4L618.6,425.1z"/>
		<path class="st5" d="M788,209.5L788,209.5c4.2,27.9,7.2,58.4,7.2,88.3c0,83.7-8.4,267.7-15.3,315.1c-7,47.4-9,65.6-47.4,72.5
			c-38.8,7-79.7,6.5-118.6-0.4c-38.4-6.9-40.4-25.1-47.4-72.5c-7-47.4-15.3-231.5-15.3-315.1c0-29.7,3-60.1,7.1-87.8l0,0
			c0.8-6.1,52.4-11,114.7-11C735.5,198.5,787.2,203.4,788,209.5z M596.9,458.5l1.2-3.5l1.9-4.7l2.8-4.7l2.8-4.7l7.5-9.4l5.5-6.5
			l3.4,13.5l2.8,12.2l5.6,15.9l10.3,15l4.2,4.7l4.7,3.8l9.8,8l1.9,1.4l1.9,0.9l4.2,1.9l4.2,0.5h4.7h4.7l4.7-0.9l8.9-0.9l2.8-0.5
			l2.3-0.9l2.3-0.9l1.9-0.9l3.7-3.3l3.3-3.3l6.6-8.4l4.2-4.2l4.2-4.7l1.9-2.3l4.7-5.6l5.6-7.5l3.7-9.4l2.4,4.7l1.9,4.2l1.3,4.3
			l0.1,0c7.6,0,13-0.9,18.2-7.2c4.7-5.7,10-14.3,11-21.6l0.2-0.1l-2.6-4.4l-1.4-3.3l-1.4-4.2l-1.4-4.7l-1.4-5.2l-0.5-6.1l-0.5-7
			l0.9-6.1l-0.5-3.7v-3.7l-1.9-7l-1.9-5.1l-2.8-4.7l-2.8-5.1l-3.3-5.2l-2.7-5.8l1.7-0.8l0.9-0.9l1.4-3.3l1.4-5.2l0.9-5.2v-4.2
			l-0.5-3.8l-0.9-3.7L756,321l-1.9-2.8l-2.3-2.8l-2.3-2.3l-2.3-1.4l-2.8-1.4l-2.8-0.9l-3.3-0.9l-3.7-0.5v-2.8l-0.5-2.3l-0.9-2.8
			l-1.4-2.3l-1.4-1.9l-1.9-1.9l-1.9-1.9l-1.9-1.4l-5.2-2.3l-5.2-1.4l-5.2-0.5l-2.8,0.5l-2.8,0.5l-2.8,0.9l-2.3,1.4l-4.7,2.8
			l-2.8,1.4l-0.9,0.5l-0.9-0.5l-2.3-1.4l-1.9-1.4l-2.3-2.3l-2.8-2.3l-3.7-1.9l-4.2-1.9l-5.6-1.4h-6.6l-8.4,0.5l-4.2,0.9l-3.8,1.9
			l-4.2,2.3l-4.2,2.8l-3.3,3.3l-3.3,3.7l-1.9,3.7l-1.4,3.8l-3.8-0.9l-3.7-0.9h-4.2l-4.7,0.9l-2.8,0.9l-2.8,1.4l-2.3,1.4l-1.9,1.9
			l-1.9,1.9l-1.4,1.9l-0.9,2.3l-0.5,2.3l-0.9,5.2v4.7l0.9,4.2l1.4,3.8l0.1,0.1l-0.6,0.9l-0.5,2.8l-0.9,3.8l-1.9,5.6l-2.8,6.1
			l-2.8,5.2l-3.3,5.2l-2.3,4.7l-2.3,5.6l-1.4,6.6l-0.5,3.7v3.8l0.5,6.6v6.6l-0.9,6.1l-0.9,5.6l-1.4,4.7l-1.4,3.8l-1.9,3.3l-2.8,5.2
			l-0.1,0.2c3.7,6.2,2.7,12.7,8.8,18c6.3,5.4,13.8,7.1,20.8,9.6L596.9,458.5z M708.2,241.8l-0.5-2.3l-0.5-1.9l-0.9-2.3l-1.4-1.4
			l-1.9-1.4l-1.9-1.4l-1.9-0.5l-2.3-0.5l-2.3,0.5l-2.3,0.5l-1.9,1.4l-1.4,1.4l-1.4,1.4l-0.9,2.3l-0.9,1.9v2.3v2.3l0.9,2.3l0.9,1.9
			l1.4,1.9l1.4,1.4l1.9,0.9l2.3,0.9h2.3h2.3l1.9-0.9l1.9-0.9l1.9-1.4l1.4-1.9l0.9-1.9l0.5-2.3L708.2,241.8z M697.9,272.7v-1.4v-1.9
			l-0.5-1.9l-0.9-1.4l-0.9-0.9l-1.4-1.4l-1.4-0.5l-1.4-0.5l-1.4-0.5l-1.9,0.5l-1.4,0.5l-1.4,0.5l-1.4,1.4l-0.9,0.9l-0.9,1.4
			l-0.5,1.9v1.9v1.4l0.5,1.9l0.9,1.4l0.9,1.4l1.4,0.9l1.4,0.9l1.4,0.5h1.9h1.4l1.4-0.5l1.4-0.9l1.4-0.9l0.9-1.4l0.9-1.4L697.9,272.7
			z M671.2,264.8v-2.3v-2.3l-0.5-1.9l-1.4-2.3l-1.4-1.4l-1.4-1.4l-1.9-1.4l-2.3-0.5l-2.3-0.5l-1.9,0.5l-2.3,0.5l-1.9,1.4l-1.9,1.4
			l-0.9,1.4l-1.4,2.3l-0.5,1.9l-0.5,2.3l0.5,2.3l0.5,2.3l1.4,1.9l0.9,1.9l1.9,1.4l1.9,0.9l2.3,0.9h1.9h2.3l2.3-0.9l1.9-0.9l1.4-1.4
			l1.4-1.9l1.4-1.9L671.2,264.8z"/>
		<path class="st6" d="M703,89.8c3.8,3.9,6.1,8.6,6.1,13.6c0,13.5-15.9,24.4-35.6,24.4c-19.6,0-35.6-10.9-35.6-24.4
			c0-4.8,2-9.2,5.4-13h1.5v8.1h56.5v-7.9L703,89.8z"/>
		<path class="st6" d="M645,90.5h-1.5c-3.5,3.8-5.4,8.2-5.4,13c0,13.5,15.9,24.4,35.6,24.4c19.6,0,35.6-10.9,35.6-24.4
			c0-5.1-2.2-9.7-6.1-13.6l-1.6,0.9v7.9H645L645,90.5L645,90.5z M788,209.5L788,209.5c-0.8-6.1-52.5-11-114.9-11
			c-62.4,0-113.9,4.9-114.7,11l0,0c7.6-50.5,19-92.5,23.5-106c7-20.9,90.6-18.1,90.6-18.1s85.1-2.3,92.1,18.6
			C769,117.4,780.4,159.1,788,209.5z"/>
	</g>
	<g>
		<path class="st7" d="M558.3,209.5c-4.2,27.8-7.1,58.2-7.1,87.8c0,83.7,8.4,267.7,15.3,315.1c7,47.4,9,65.6,47.4,72.5
			c38.8,7,79.7,7.4,118.6,0.4c38.4-6.9,40.4-25.1,47.4-72.5c7-47.4,15.3-231.5,15.3-315.1c0-29.8-3-60.4-7.2-88.3
			c-7.6-50.4-19-92.1-23.5-105.6c-7-20.9-92.1-18.6-92.1-18.6s-83.7-2.8-90.6,18.1C577.4,117,565.9,158.9,558.3,209.5z"/>
		<path class="st7" d="M558.4,209.6c0,0,0-0.1,0-0.1c0.8-6.1,52.4-11,114.7-11c62.4,0,114.1,4.9,114.9,11c0,0,0,0.1,0,0.1"/>
		<polyline class="st7" points="701.4,90.7 701.4,98.6 645,98.6 645,90.5 645,89.9 		"/>
		<path class="st7" d="M703,89.8c3.8,3.9,6.1,8.6,6.1,13.6c0,13.5-15.9,24.4-35.6,24.4c-19.6,0-35.6-10.9-35.6-24.4
			c0-4.8,2-9.2,5.4-13"/>
		<polyline class="st8" points="630.4,466.7 640.7,481.7 645,486.4 649.6,490.1 659.5,498.1 661.3,499.5 663.2,500.4 667.4,502.3 
			671.7,502.8 676.3,502.8 681,502.8 685.7,501.8 694.6,500.9 697.4,500.4 699.8,499.5 702.1,498.6 704,497.6 707.7,494.3 
			711,491.1 717.6,482.6 721.8,478.4 726,473.7 727.9,471.4 732.6,465.8 738.2,458.3 741.9,448.9 		"/>
		<polyline class="st8" points="676.3,418 678.2,416.6 680.1,415.6 684.3,414.7 688.5,414.7 692.7,415.2 697,416.1 700.2,417.5 
			704.9,418.9 		"/>
		<polyline class="st8" points="651,423.1 647.8,421.7 643.5,421.2 638.9,421.2 633.7,421.7 629,423.1 624.3,424.5 620.6,427.3 
			620.1,427.9 620.3,427.6 		"/>
		<polyline class="st8" points="659.9,470.9 664.2,471.4 668.8,471.9 677.7,470.9 682,470.9 685.7,470.5 689.9,469 695.1,467.2 		
			"/>
		<polyline class="st8" points="630.4,466.7 624.8,450.8 622,438.6 618.6,425.1 		"/>
		<polyline class="st8" points="576.5,395.5 576.5,402 575.6,408.1 574.7,413.8 573.3,418.4 571.9,422.2 570,425.5 567.2,430.6 		
			"/>
		<path class="st8" d="M603.3,363.6l-1.9,0.9l-1.9,0.5c0,0-1.6-0.5-1.9-1.4c-0.3-0.9,0-1.9,0-1.9l2.8-8l1.4-3.3l0.9-2.8l0.9-2.8
			v-2.8v-2.3l-0.5-1.9l-0.5-1.4l-0.9-1.4l-1.4-1.4l-1.9-0.5l-1.4,0.5l-1.4,0.9l-0.4,0.5l-0.6,0.9l-0.5,2.8l-0.9,3.8l-1.9,5.6
			l-2.8,6.1l-2.8,5.2l-3.3,5.2l-2.3,4.7l-2.3,5.6l-1.4,6.6l-0.5,3.7v3.8l0.5,6.6"/>
		<path class="st8" d="M596.7,459.2l0.2-0.7l1.2-3.5l1.9-4.7l2.8-4.7l2.8-4.7l7.5-9.4l5.5-6.5l2.4-2.9l8.4-9.4l8.4-9.4l7.5-9.4
			l3.3-4.7l2.8-4.7l1.4-3.8l0.9-2.4l1.4-3.7l5.6-17.8l2.3-9.4l2.3-9.4l1.4-7.5l0.5-5.6l-0.9-1.9l-2.8-4.2l-2.3-2.3l-2.3-1.9
			l-2.8-1.4l-2.8-0.9l-5.2,0.5l-2.8,0.5l-2.8,0.9l-2.8,0.9l-2.3,1.9l-2.3,1.9l-1.9,2.3l-6.1,9.4l-9.4,14.1l-9.4,12.6l-3.3,4.2
			c0,0-1,1.2-1.9,1.9"/>
		<polyline class="st8" points="767.7,398.3 768.2,405.3 768.7,411.4 770.1,416.6 771.5,421.2 772.9,425.5 774.3,428.8 776.9,433.1 
			777.1,433.4 		"/>
		<polyline class="st8" points="741.5,366.9 743.4,367.8 745.2,368.3 746.2,368.3 746.6,367.4 746.6,366.9 746.6,365 746.2,361.7 
			744.3,357.1 742.4,353.8 741.5,350.5 741,347.7 740.5,345.4 741,343 741,341.1 741.9,339.7 742.4,338.3 744.3,336.9 746.2,336.4 
			747.6,336.4 749,337.4 749.4,339.3 750.4,341.6 751.3,345.8 752.7,351.4 752.9,351.8 755.5,357.5 758.8,362.7 761.6,367.8 
			764.4,372.5 766.3,377.7 768.2,384.7 768.2,388.4 768.7,392.2 767.7,398.3 		"/>
		<polyline class="st8" points="747.6,462.5 747.4,462.1 746.2,457.8 744.3,453.6 741.9,448.9 738.7,444.2 731.6,434.8 723.2,425.5 
			714.8,416.1 706.3,406.7 698.8,397.4 695.6,392.7 692.7,388 691.3,384.2 689,377.7 688.9,377.3 683.8,360.3 681,350.5 
			679.2,341.6 677.3,334.1 677.3,328.5 678.2,326.6 681,322.4 682.9,320 685.2,317.7 688.1,316.3 691.3,315.8 696.5,316.3 
			699.3,316.8 702.1,317.7 704.5,318.6 707.3,320 709.1,322.4 711,324.7 717.1,334.1 727,347.7 736.3,360.8 739.6,365 741.5,366.9 
					"/>
		<polygon class="st8" points="671.2,262.4 671.2,264.8 670.7,267.1 669.3,269 667.9,270.8 666.5,272.3 664.6,273.2 662.3,274.1 
			659.9,274.1 658.1,274.1 655.7,273.2 653.8,272.3 652,270.8 651,269 649.6,267.1 649.2,264.8 648.7,262.4 649.2,260.1 
			649.6,258.2 651,255.8 652,254.4 653.8,253 655.7,251.6 658.1,251.2 659.9,250.7 662.3,251.2 664.6,251.6 666.5,253 667.9,254.4 
			669.3,255.8 670.7,258.2 671.2,260.1 		"/>
		<polygon class="st8" points="708.2,241.8 707.7,244.1 707.3,246.5 706.3,248.4 704.9,250.2 703.1,251.6 701.2,252.6 699.3,253.5 
			697,253.5 694.6,253.5 692.3,252.6 690.4,251.6 689,250.2 687.6,248.4 686.7,246.5 685.7,244.1 685.7,241.8 685.7,239.5 
			686.7,237.6 687.6,235.2 689,233.8 690.4,232.4 692.3,231 694.6,230.6 697,230.1 699.3,230.6 701.2,231 703.1,232.4 704.9,233.8 
			706.3,235.2 707.3,237.6 707.7,239.5 		"/>
		<polygon class="st8" points="697.9,271.3 697.9,272.7 697.4,274.6 696.5,276 695.6,277.4 694.2,278.3 692.7,279.3 691.3,279.8 
			689.9,279.8 688.1,279.8 686.7,279.3 685.2,278.3 683.8,277.4 682.9,276 682,274.6 681.5,272.7 681.5,271.3 681.5,269.4 
			682,267.6 682.9,266.2 683.8,265.2 685.2,263.8 686.7,263.3 688.1,262.9 689.9,262.4 691.3,262.9 692.7,263.3 694.2,263.8 
			695.6,265.2 696.5,266.2 697.4,267.6 697.9,269.4 		"/>
		<polyline class="st8" points="655.3,379.1 657.6,378.6 660.9,377.2 668.8,372.5 671.2,374.9 674,377.2 677.7,379.1 679.6,379.5 
			681,380 683.8,379.5 685.7,379.1 687.6,377.7 		"/>
		<polyline class="st8" points="595.3,335 593.9,331.3 592.9,327.1 592.9,322.4 593.9,317.2 594.3,314.9 595.3,312.6 596.7,310.7 
			598.6,308.8 600.4,306.9 602.8,305.5 605.6,304.1 608.4,303.2 613.1,302.2 617.3,302.2 621,303.2 624.8,304.1 626.2,300.4 
			628.1,296.6 631.4,292.9 634.6,289.6 638.9,286.8 643.1,284.4 646.8,282.6 651,281.6 659.5,281.2 666,281.2 671.7,282.6 
			675.9,284.4 679.6,286.3 682.4,288.7 684.8,291 686.7,292.4 689,293.8 689.9,294.3 690.9,293.8 693.7,292.4 698.4,289.6 
			700.7,288.2 703.5,287.3 706.3,286.8 709.1,286.3 714.3,286.8 719.5,288.2 724.6,290.5 726.5,291.9 728.3,293.8 730.2,295.7 
			731.6,297.6 733,299.9 734,302.7 734.5,305.1 734.5,307.9 738.2,308.3 741.5,309.3 744.3,310.2 747.1,311.6 749.4,313 
			751.8,315.4 754.1,318.2 756,321 757.9,324.7 758.8,328.5 759.3,332.2 759.3,336.4 758.3,341.6 756.9,346.8 755.5,350 754.6,351 
					"/>
		<polyline class="st8" points="662.3,421.2 663.2,427.3 664.2,437.2 665.1,442.3 666.5,447.5 668.4,451.7 669.3,453.6 670.7,455 		
			"/>
	</g>
</g>
<g id="XMLID_318_">
	<g>
		<path class="st9" d="M493.5,178.5L73.9,325l-14.4-41.6c-22.5-64.9,44.8-105.7,180.1-152.6c135.3-46.9,218.8-53.9,241.3,10.9
			L493.5,178.5z"/>
	</g>
	<g>
		<path class="st10" d="M73.9,325l-14.4-41.6c-22.5-64.9,44.8-105.7,180.1-152.6c135.3-46.9,218.8-53.9,241.3,10.9l12.8,36.9"/>
		<path class="st11" d="M96,224.6c30.3-25.7,82.7-48.8,154-73.5c67.6-23.5,122.3-36.9,162.9-36.5"/>
		<line class="st10" x1="70.9" y1="253" x2="93.1" y2="316.8"/>
		<line class="st10" x1="87.7" y1="246.8" x2="109.9" y2="310.7"/>
		<line class="st10" x1="103.2" y1="241.6" x2="125.3" y2="305.5"/>
		<line class="st10" x1="118.3" y1="236.4" x2="140.5" y2="300.2"/>
		<line class="st10" x1="133.8" y1="231.2" x2="155.9" y2="295"/>
		<line class="st10" x1="150.6" y1="225" x2="172.7" y2="288.9"/>
		<line class="st10" x1="166" y1="219.8" x2="188.2" y2="283.7"/>
		<line class="st10" x1="182.3" y1="214.6" x2="204.4" y2="278.4"/>
		<line class="st10" x1="197.8" y1="209.4" x2="219.9" y2="273.2"/>
		<line class="st10" x1="214.6" y1="203.2" x2="236.7" y2="267"/>
		<line class="st10" x1="230" y1="198" x2="252.2" y2="261.8"/>
		<line class="st10" x1="245.2" y1="192.8" x2="267.3" y2="256.6"/>
		<line class="st10" x1="260.6" y1="187.6" x2="282.8" y2="251.4"/>
		<line class="st10" x1="277.4" y1="181.4" x2="299.6" y2="245.2"/>
		<line class="st10" x1="292.9" y1="176.2" x2="315" y2="240"/>
		<line class="st10" x1="309.4" y1="170.8" x2="331.6" y2="234.7"/>
		<line class="st10" x1="324.9" y1="165.6" x2="347" y2="229.5"/>
		<line class="st10" x1="341.7" y1="159.5" x2="363.8" y2="223.3"/>
		<line class="st10" x1="357.1" y1="154.3" x2="379.3" y2="218.1"/>
		<line class="st10" x1="372.3" y1="149" x2="394.4" y2="212.9"/>
		<line class="st10" x1="387.7" y1="143.8" x2="409.9" y2="207.7"/>
		<line class="st10" x1="404.5" y1="137.7" x2="426.7" y2="201.5"/>
		<line class="st10" x1="420" y1="132.5" x2="442.1" y2="196.3"/>
		<line class="st10" x1="435.3" y1="126.4" x2="457.5" y2="190.3"/>
		<line class="st10" x1="450.8" y1="121.2" x2="472.9" y2="185.1"/>
	</g>
</g>
</svg>
