<?xml version="1.0" encoding="utf-8"?>
<!-- Generator: Adobe Illustrator 21.0.2, SVG Export Plug-In . SVG Version: 6.00 Build 0)  -->
<svg version="1.1" id="Layer_1" xmlns="http://www.w3.org/2000/svg" xmlns:xlink="http://www.w3.org/1999/xlink" x="0px" y="0px" width="850.4" height="850.4"
	 viewBox="0 0 850.4 850.4" style="enable-background:new 0 0 850.4 850.4;" xml:space="preserve">
<style type="text/css">
	.st0{fill:#C8C8C8;}
	.st1{fill:none;stroke:#000000;stroke-width:17.6022;}
	.st2{fill:none;stroke:#000000;stroke-width:18.379;}
	.st3{fill:none;stroke:#000000;stroke-width:18.5794;}
</style>
<g>
	<g>
		<g id="XMLID_6_">
			<g>
				<path class="st0" d="M690.3,366.5c0,174.2,0,381,0,381h-43.3l0.7-351.8c0,0,0.3-13.2-1.1-29.3L690.3,366.5L690.3,366.5z"/>
				<path class="st0" d="M690.3,131.7c0,11.9,0,115.7,0,234.8h-43.6c-1-11.8-2.9-25.2-6.3-36.1c-8.1-25.6-17.6-27.1-12.4-74.1
					c5.1-46.9,15-78,21.3-109.3c5.9-29.4,10.8-48.8,30.8-43.3C680.1,103.8,690.3,102.4,690.3,131.7z"/>
			</g>
			<g>
				<path class="st1" d="M646.7,366.5c1.3,16.1,1.1,29.3,1.1,29.3l-0.7,351.8h43.3c0,0,0-206.9,0-381c0-119.1,0-222.9,0-234.8
					c0-29.4-10.3-27.9-10.3-27.9c-20.1-5.6-24.9,13.9-30.8,43.3c-6.3,31.3-16.2,62.4-21.3,109.3s4.4,48.4,12.4,74.1
					C643.8,341.3,645.7,354.7,646.7,366.5z"/>
				<polyline class="st1" points="646.7,366.5 646.7,366.5 690.3,366.5 				"/>
			</g>
		</g>
	</g>
	<g id="XMLID_15_">
		<g>
			<path class="st0" d="M422,111.3c0-9.2,18.4-5.1,38-5.1c15.7,0,37.1-6.3,37.4,5.5l0,0c0,0,6,109.1,9.2,139.1
				c2.1,20.2-0.8,37.5-10.4,47.3c-9.7,9.7-19.6,19.6-22.7,36c-3,16.3,6.1,44.7,6.1,44.7l0.8,367.4h-41.1l0.8-367.4
				c0,0,9.2-28.3,6.2-44.7c-3-16.3-13-26.3-22.8-36c-9.7-9.7-12.6-27-10.4-47.3c3.1-30.1,9.2-139.1,9.2-139.1L422,111.3z"/>
		</g>
		<g>
			<path class="st2" d="M497.6,111.6c0,0,6,109.1,9.2,139.1c2.1,20.2-0.8,37.5-10.4,47.3c-9.7,9.7-19.6,19.6-22.7,36
				c-3,16.3,6.1,44.7,6.1,44.7l0.8,367.4h-41.1l0.8-367.4c0,0,9.2-28.3,6.2-44.7c-3-16.3-13-26.3-22.8-36
				c-9.7-9.7-12.6-27-10.4-47.3c3.1-30.1,9.2-139.1,9.2-139.1"/>
			<line class="st2" x1="444.4" y1="111.8" x2="444.4" y2="232.7"/>
			<line class="st2" x1="472.7" y1="111.8" x2="472.7" y2="232.6"/>
		</g>
	</g>
	<g id="XMLID_14_">
		<g>
			<path class="st0" d="M302,176.2c10.9,37.2,7.7,56.6-4.6,81.3c-12.3,24.8-40,57.9-40,57.9c-3.3,5.2-5.9,11-7.2,18.1
				c-3.1,16.5,6.2,45.2,6.2,45.2l0.8,371.4l-45.5-0.2l0.8-371.4c0,0,9.3-28.7,6.2-45.2c-1.3-7-3.9-12.9-7.2-18.1
				c0,0-27.6-33.3-40-58c-12.4-24.8-15.5-44.1-4.7-81.3c10.9-37.2,23.5-60.7,43.3-69.7c11.8-5.4,25.3-5.9,25.3-5.9
				c8.1,0.3,13.4,1.6,23.4,6.1C278.6,115.5,291.2,139,302,176.2z"/>
		</g>
		<g>
			<path class="st3" d="M235.3,100.4c8.1,0.3,13.4,1.6,23.4,6.1c19.9,8.9,32.5,32.5,43.3,69.7c10.9,37.2,7.7,56.6-4.6,81.3
				c-12.3,24.8-40,57.9-40,57.9c-3.3,5.2-5.9,11-7.2,18.1c-3.1,16.5,6.2,45.2,6.2,45.2l0.8,371.4l-45.5-0.2l0.8-371.4
				c0,0,9.3-28.7,6.2-45.2c-1.3-7-3.9-12.9-7.2-18.1c0,0-27.6-33.3-40-58c-12.4-24.8-15.5-44.1-4.7-81.3
				c10.9-37.2,23.5-60.7,43.3-69.7C221.8,101,235.3,100.4,235.3,100.4z"/>
		</g>
	</g>
</g>
</svg>
