<?xml version="1.0" encoding="utf-8"?>
<!-- Generator: Adobe Illustrator 21.0.2, SVG Export Plug-In . SVG Version: 6.00 Build 0)  -->
<svg version="1.1" id="Layer_1" xmlns="http://www.w3.org/2000/svg" xmlns:xlink="http://www.w3.org/1999/xlink" x="0px" y="0px" width="850.4" height="850.4"
	 viewBox="0 0 850.4 850.4" style="enable-background:new 0 0 850.4 850.4;" xml:space="preserve">
<style type="text/css">
	.st0{fill:#FFFFFF;}
	.st1{fill:none;stroke:#231F20;stroke-width:11.9568;}
	.st2{fill:#FBED24;}
	.st3{fill:none;stroke:#231F20;stroke-width:16.0588;}
	.st4{fill:#797878;}
	.st5{fill:none;stroke:#231F20;stroke-width:7.4662;}
	.st6{fill:none;stroke:#231F20;stroke-width:7.4662;stroke-linecap:round;stroke-linejoin:round;stroke-dasharray:7.1091,21.3274;}
</style>
<g>
	<g id="XMLID_6_">
		<g>
			<path class="st0" d="M387.4,498l51.7,3c-1,1.4-1.9,2.9-2.8,4.5l-44.4-4.2C390.4,499.7,388.9,498.6,387.4,498z"/>
			<path class="st0" d="M267.3,614.6l51.7-3c-1.5,0.6-3,1.7-4.5,3.3l-44.4,4.2C269.3,617.4,268.3,615.9,267.3,614.6z"/>
			<path class="st0" d="M543.4,541.4c6.5,9.4,12.1,26.3,3,40.9c-9.1,14.5-35.9,13.4-35.9,13.4l-136.1-0.5c0,0-26.7,1.4-37.3-13.4
				c-9.5-13.3-11.5-33.3,2.8-48.5c9.1-9.7,27.7-12.1,27.7-12.1s-4.9-17.6,11-23.3c0,0,4.1-1.8,8.6,0c0,0,0,0.1,0,0.1l0.2,0
				c1.5,0.6,3,1.7,4.5,3.3l44.4,4.2c0.9-1.6,1.8-3.1,2.8-4.5l0.7,0c0,0,0-0.3-0.1-0.9c14.2-18.3,36.3-9.2,36.3-9.2
				c14.3,6.9,17,16.7,17,16.7c5.8-4.1,12.4-1.5,12.4-1.5c16.1,5.9,10.4,23.2,10.4,23.2S533.3,526.7,543.4,541.4z"/>
			<path class="st0" d="M451.2,729.1c6.5,9.4,12.1,26.3,3,40.9c-9,14.5-35.9,13.4-35.9,13.4L282.2,783c0,0-26.7,1.4-37.3-13.4
				c-9.5-13.3-11.5-33.3,2.8-48.5c9.1-9.7,27.7-12.1,27.7-12.1s0,0,0,0l56.7-0.2c0,0,26.7,1.4,37.3-13.4c3.8-5.3,6.4-11.7,7.3-18.4
				c4.3,0.6,7.1,1.8,7.1,1.8c14.3,6.9,17,16.7,17,16.7c5.8-4.1,12.4-1.5,12.4-1.5c16.1,5.9,10.4,23.2,10.4,23.2
				S441.1,714.4,451.2,729.1z"/>
			<path class="st0" d="M439.8,501.1l-0.7,0c0.2-0.3,0.4-0.6,0.6-0.9C439.8,500.7,439.8,501.1,439.8,501.1z"/>
			<path class="st0" d="M439.7,500.2c-0.2,0.3-0.4,0.6-0.6,0.9l-51.7-3c-0.1,0-0.1-0.1-0.2-0.1c1.4-15.2,12.6-21,21.4-21.9
				c6.2-0.6,11.9,0.9,11.9,0.9C436.7,480.5,439.3,496.2,439.7,500.2z"/>
			<path class="st0" d="M387.4,498l-0.2,0c0,0,0-0.1,0-0.1C387.2,497.9,387.3,498,387.4,498z"/>
			<path class="st0" d="M366.5,646.8c8.6,9.1,11.3,20,10.1,30.1c-7.7-1.2-20-0.7-29.1,11.1c-0.4-3.9-3-19.7-19.3-23.2
				c0,0-5.7-1.5-11.9-0.9c-8.7,0.8-19.9,6.7-21.3,21.9c-4.5-1.8-8.6,0-8.6,0c-15.7,5.7-11.1,22.8-11,23.3l-79.4,0.3
				c0,0-26.9,1.1-35.9-13.4c-9-14.5-3.5-31.4,3-40.9c10.1-14.7,27.7-12.1,27.7-12.1s-5.7-17.3,10.4-23.2c0,0,6.6-2.6,12.4,1.5
				c0,0,2.7-9.9,17-16.7c0,0,22.1-9,36.3,9.3c-0.1,0.6-0.1,0.9-0.1,0.9l0.7,0c1,1.4,1.9,2.9,2.8,4.5l44.4-4.2c1.5-1.6,3-2.7,4.5-3.3
				l0.2,0c0,0,0-0.1,0-0.1c4.5-1.8,8.6,0,8.6,0c15.9,5.8,11,23.3,11,23.3S357.4,637.1,366.5,646.8z"/>
			<path class="st0" d="M347.5,687.9c9.1-11.7,21.5-12.2,29.1-11.1c-0.8,6.7-3.4,13.1-7.3,18.4c-10.7,14.8-37.3,13.4-37.3,13.4
				l-56.7,0.2c-0.2-0.6-4.7-17.6,11-23.3c0,0,4.1-1.8,8.6,0c0,0,0,0.1,0,0.1l0.2,0c1.5,0.6,3.1,1.7,4.5,3.3l44.4,4.2
				c0.9-1.7,1.8-3.1,2.8-4.5l0.7,0C347.5,688.8,347.5,688.5,347.5,687.9z"/>
			<path class="st0" d="M347.5,688.8l-0.7,0c0.2-0.3,0.4-0.6,0.6-0.8C347.5,688.5,347.5,688.8,347.5,688.8z"/>
			<path class="st0" d="M347.5,687.9c-0.2,0.3-0.4,0.6-0.6,0.8l-51.7-3c-0.1,0-0.1-0.1-0.2-0.1c1.4-15.2,12.6-21,21.3-21.9
				c6.2-0.6,11.9,0.9,11.9,0.9C344.5,668.3,347.1,684,347.5,687.9z"/>
			<path class="st0" d="M319.3,611.4C319.3,611.5,319.3,611.5,319.3,611.4l-0.2,0.1C319.1,611.5,319.2,611.5,319.3,611.4z"/>
			<path class="st0" d="M319.3,611.4c-0.1,0-0.1,0.1-0.2,0.1l-51.7,3c-0.2-0.3-0.4-0.6-0.6-0.9c0.4-3.9,3-19.7,19.3-23.2
				c0,0,5.7-1.5,11.9-0.9C306.6,590.4,317.8,596.3,319.3,611.4z"/>
			<path class="st0" d="M295.1,685.8l51.7,3c-1,1.4-1.9,2.9-2.8,4.5l-44.4-4.2C298.2,687.4,296.6,686.4,295.1,685.8z"/>
			<path class="st0" d="M295.1,685.8l-0.2,0c0,0,0-0.1,0-0.1C295,685.7,295,685.7,295.1,685.8z"/>
			<path class="st0" d="M267.3,614.6l-0.7,0c0,0,0-0.3,0.1-0.9C266.9,614,267.1,614.3,267.3,614.6z"/>
		</g>
		<g>
			<path class="st1" d="M319.3,611.4c-1.5-15.2-12.6-21-21.4-21.9c-6.2-0.6-11.9,0.9-11.9,0.9c-16.3,3.5-18.9,19.3-19.3,23.2"/>
			<path class="st1" d="M376.6,676.9c1.3-10.1-1.5-21-10.1-30.1c-9.1-9.7-27.7-12.1-27.7-12.1s4.9-17.6-11-23.3c0,0-4.1-1.8-8.6,0
				c-0.1,0-0.1,0.1-0.2,0.1c-1.5,0.6-3,1.7-4.5,3.3"/>
			<path class="st1" d="M270.2,619.1c-0.9-1.6-1.8-3.1-2.8-4.5c-0.2-0.3-0.4-0.6-0.6-0.9c-14.2-18.3-36.3-9.3-36.3-9.3
				c-14.3,6.9-17,16.7-17,16.7c-5.8-4.1-12.4-1.5-12.4-1.5c-16.1,5.9-10.4,23.2-10.4,23.2s-17.6-2.7-27.7,12.1
				c-6.5,9.4-12.1,26.3-3,40.9c9.1,14.5,35.9,13.4,35.9,13.4l79.4-0.3"/>
			<path class="st1" d="M294.9,685.7c1.4-15.2,12.6-21,21.3-21.9c6.2-0.6,11.9,0.9,11.9,0.9c16.3,3.5,18.9,19.3,19.3,23.2"/>
			<path class="st1" d="M344,693.3c0.9-1.7,1.8-3.1,2.8-4.5c0.2-0.3,0.4-0.6,0.6-0.8c9.1-11.7,21.5-12.2,29.1-11.1
				c4.3,0.6,7.1,1.8,7.1,1.8c14.3,6.9,17,16.7,17,16.7c5.8-4.1,12.4-1.5,12.4-1.5c16.1,5.9,10.4,23.2,10.4,23.2s17.6-2.7,27.7,12.1
				c6.5,9.4,12.1,26.3,3,40.9c-9,14.5-35.9,13.4-35.9,13.4L282.2,783c0,0-26.7,1.4-37.3-13.4c-9.5-13.3-11.5-33.3,2.8-48.5
				c9.1-9.7,27.7-12.1,27.7-12.1s0,0,0,0c-0.2-0.6-4.7-17.6,11-23.3c0,0,4.1-1.8,8.6,0c0.1,0,0.1,0.1,0.2,0.1
				c1.5,0.6,3.1,1.7,4.5,3.3"/>
			<path class="st1" d="M387.2,497.9c1.4-15.2,12.6-21,21.4-21.9c6.2-0.6,11.9,0.9,11.9,0.9c16.3,3.5,18.9,19.3,19.3,23.2"/>
			<path class="st1" d="M436.2,505.5c0.9-1.6,1.8-3.1,2.8-4.5c0.2-0.3,0.4-0.6,0.6-0.9c14.2-18.3,36.3-9.2,36.3-9.2
				c14.3,6.9,17,16.7,17,16.7c5.8-4.1,12.4-1.5,12.4-1.5c16.1,5.9,10.4,23.2,10.4,23.2s17.6-2.7,27.7,12.1c6.5,9.4,12.1,26.3,3,40.9
				c-9.1,14.5-35.9,13.4-35.9,13.4l-136.1-0.5c0,0-26.7,1.4-37.3-13.4c-9.5-13.3-11.5-33.3,2.8-48.5c9.1-9.7,27.7-12.1,27.7-12.1
				s-4.9-17.6,11-23.3c0,0,4.1-1.8,8.6,0c0.1,0,0.1,0.1,0.2,0.1c1.5,0.6,3,1.7,4.5,3.3"/>
		</g>
	</g>
</g>
<g>
	<g id="XMLID_4_">
		<g>
			<path class="st2" d="M240.9,160.6c54.8,0,99.3,44.5,99.3,99.3c0,54.8-44.5,99.3-99.3,99.3c-54.8,0-99.3-44.5-99.3-99.3
				C141.6,205,186,160.6,240.9,160.6z"/>
		</g>
		<g>
			<path class="st3" d="M340.2,259.9c0,54.8-44.5,99.3-99.3,99.3c-54.8,0-99.3-44.5-99.3-99.3c0-54.8,44.5-99.3,99.3-99.3
				C295.7,160.6,340.2,205,340.2,259.9z"/>
			<line class="st3" x1="240.1" y1="142.5" x2="240.1" y2="66.9"/>
			<line class="st3" x1="179.8" y1="157.2" x2="138.1" y2="94.2"/>
			<line class="st3" x1="136.6" y1="203.6" x2="68.1" y2="171.6"/>
			<line class="st3" x1="302.5" y1="156" x2="344.2" y2="93"/>
			<line class="st3" x1="345.7" y1="202.4" x2="414.2" y2="170.4"/>
			<line class="st3" x1="300" y1="363.4" x2="341.7" y2="426.3"/>
			<line class="st3" x1="343.3" y1="316.9" x2="411.7" y2="348.9"/>
			<line class="st3" x1="177.3" y1="364.6" x2="135.6" y2="427.5"/>
			<line class="st3" x1="134.1" y1="318.1" x2="65.7" y2="350.1"/>
			<line class="st3" x1="122.5" y1="261" x2="47" y2="261"/>
			<line class="st3" x1="433.6" y1="261" x2="358" y2="261"/>
			<line class="st3" x1="240.1" y1="451.2" x2="240.1" y2="375.7"/>
		</g>
	</g>
</g>
<g id="XMLID_13_">
	<g>
		<path class="st4" d="M644.4,220.7l50.2,2.9c-1,1.3-1.9,2.8-2.8,4.4l-43.1-4.1C647.4,222.4,645.9,221.4,644.4,220.7z"/>
		<path class="st4" d="M667.9,148.6c4.4-1.7,8.3,0,8.3,0c15.4,5.6,10.7,22.6,10.7,22.6s18,2.3,26.9,11.7c8.3,8.9,11,19.4,9.8,29.2
			c-7.5-1.1-19.5-0.7-28.3,10.7c-0.4-3.8-2.9-19.1-18.7-22.5c0,0-5.5-1.5-11.6-0.9c-8.5,0.8-19.3,6.5-20.7,21.2
			c-4.4-1.7-8.4,0-8.4,0c-15.2,5.5-10.8,22.1-10.7,22.6l-77.1,0.3c0,0-26.1,1.1-34.9-13c-8.8-14.1-3.4-30.5,2.9-39.7
			c9.8-14.3,26.9-11.7,26.9-11.7s-5.6-16.8,10.1-22.5c0,0,6.4-2.5,12,1.5c0,0,2.7-9.6,16.5-16.2c0,0,21.4-8.8,35.2,9
			c0.4-3.8,2.9-19.1,18.7-22.5c0,0,5.5-1.5,11.6-0.9C655.6,128.2,666.4,133.9,667.9,148.6z"/>
		<path class="st4" d="M795.9,262.9c6.3,9.2,11.7,25.6,2.9,39.7s-34.9,13-34.9,13l-132.1-0.5c0,0-25.9,1.4-36.2-13
			c-9.3-12.9-11.2-32.3,2.7-47.1c8.9-9.4,26.9-11.7,26.9-11.7s0,0,0,0l55-0.2c0,0,25.9,1.4,36.2-13c3.7-5.2,6.2-11.4,7-17.9
			c4.2,0.6,6.9,1.7,6.9,1.7c13.8,6.7,16.5,16.2,16.5,16.2c5.6-4,12-1.5,12-1.5c15.6,5.8,10.1,22.5,10.1,22.5
			S786.1,248.6,795.9,262.9z"/>
		<path class="st4" d="M695.2,222.9c8.8-11.4,20.8-11.9,28.3-10.7c-0.8,6.5-3.3,12.7-7,17.9c-10.4,14.4-36.2,13-36.2,13l-55,0.2
			c-0.1-0.5-4.5-17.1,10.7-22.6c0,0,4-1.7,8.4,0c0,0,0,0,0,0.1l0.2,0c1.5,0.6,3,1.6,4.4,3.2l43.1,4.1c0.9-1.6,1.8-3.1,2.8-4.4l0.7,0
			C695.3,223.7,695.3,223.4,695.2,222.9z"/>
		<path class="st0" d="M695.3,223.7l-0.7,0c0.2-0.3,0.4-0.6,0.6-0.8C695.3,223.4,695.3,223.7,695.3,223.7z"/>
		<path class="st4" d="M695.2,222.9c-0.2,0.3-0.4,0.5-0.6,0.8l-50.2-2.9c-0.1,0-0.1-0.1-0.2-0.1c1.4-14.7,12.3-20.4,20.7-21.2
			c6.1-0.6,11.6,0.9,11.6,0.9C692.3,203.7,694.8,219,695.2,222.9z"/>
		<polygon class="st2" points="684.3,340.9 655.1,406 676.3,408.2 632.4,509 651.4,419.8 636.3,416.6 658.5,338.4 		"/>
		<path class="st0" d="M644.4,220.7l-0.2,0c0,0,0,0,0-0.1C644.3,220.7,644.3,220.7,644.4,220.7z"/>
		<polygon class="st2" points="564.3,282.6 535.1,347.7 556.3,349.9 512.4,450.8 531.4,361.6 516.4,358.4 538.6,280.2 		"/>
	</g>
	<g>
		<path class="st5" d="M667.9,148.7C667.9,148.6,667.9,148.6,667.9,148.7c-1.4-14.8-12.3-20.5-20.7-21.3c-6.1-0.6-11.6,0.9-11.6,0.9
			c-15.8,3.4-18.3,18.7-18.7,22.5c-0.1,0.6-0.1,0.9-0.1,0.9"/>
		<path class="st5" d="M723.5,212.1c1.2-9.8-1.4-20.3-9.8-29.2c-8.9-9.4-26.9-11.7-26.9-11.7s4.8-17-10.7-22.6c0,0-4-1.7-8.3,0
			c-1.5,0.6-3.1,1.6-4.6,3.3"/>
		<path class="st5" d="M620.2,156c-1.1-1.9-2.2-3.7-3.4-5.2c-13.8-17.7-35.2-9-35.2-9c-13.8,6.7-16.5,16.2-16.5,16.2
			c-5.6-4-12-1.5-12-1.5c-15.6,5.8-10.1,22.5-10.1,22.5s-17.1-2.6-26.9,11.7c-6.3,9.2-11.7,25.6-2.9,39.7c8.8,14.1,34.9,13,34.9,13
			l77.1-0.3"/>
		<path class="st5" d="M644.2,220.7c1.4-14.7,12.3-20.4,20.7-21.2c6.1-0.6,11.6,0.9,11.6,0.9c15.8,3.4,18.3,18.7,18.7,22.5"/>
		<path class="st5" d="M691.8,228.1c0.9-1.6,1.8-3.1,2.8-4.4c0.2-0.3,0.4-0.6,0.6-0.8c8.8-11.4,20.8-11.9,28.3-10.7
			c4.2,0.6,6.9,1.7,6.9,1.7c13.8,6.7,16.5,16.2,16.5,16.2c5.6-4,12-1.5,12-1.5c15.6,5.8,10.1,22.5,10.1,22.5s17.1-2.6,26.9,11.7
			c6.3,9.2,11.7,25.6,2.9,39.7c-8.8,14.1-34.9,13-34.9,13l-132.1-0.5c0,0-25.9,1.4-36.2-13c-9.3-12.9-11.2-32.3,2.7-47.1
			c8.9-9.4,26.9-11.7,26.9-11.7s0,0,0,0c-0.1-0.5-4.5-17.1,10.6-22.6c0,0,4-1.7,8.4,0c0.1,0,0.1,0,0.2,0.1c1.5,0.6,3,1.6,4.4,3.2"/>
		<line class="st6" x1="611.4" y1="339.3" x2="559.9" y2="497.5"/>
		<line class="st6" x1="732.4" y1="340.3" x2="692.3" y2="463.2"/>
		<polygon class="st5" points="512.4,450.8 556.3,349.9 535.1,347.7 564.3,282.6 538.6,280.2 516.4,358.4 531.4,361.6 		"/>
		<polygon class="st5" points="632.4,509 676.3,408.2 655.1,406 684.3,340.9 658.5,338.4 636.3,416.6 651.4,419.8 		"/>
	</g>
</g>
</svg>
