<?xml version="1.0" encoding="utf-8"?>
<!-- Generator: Adobe Illustrator 16.0.0, SVG Export Plug-In . SVG Version: 6.00 Build 0)  -->
<!DOCTYPE svg PUBLIC "-//W3C//DTD SVG 1.1//EN" "http://www.w3.org/Graphics/SVG/1.1/DTD/svg11.dtd">
<svg version="1.1" id="Layer_1" xmlns="http://www.w3.org/2000/svg" xmlns:xlink="http://www.w3.org/1999/xlink" x="0px" y="0px"
	 width="500px" height="500px" viewBox="0 0 500 500" enable-background="new 0 0 500 500" xml:space="preserve">
<g id="Layer_1_copy_100">
	<g>
		<g>
			<path fill="#FCC393" d="M211.473,246.897c0,0,1.585,19.937-9.201,26.262c-10.783,6.334-17.142,83.722-17.142,83.722
				l129.825,23.534l-14.168-84.924l-15.559-26.062c0,0-5.138-8.376-2.244-22.533C285.876,232.737,211.372,235.517,211.473,246.897z"
				/>
		</g>
		<g>
			<path fill="#281912" d="M318.754,384.273l-136.962-24.83l0.229-2.821c1.524-18.53,7.371-79.515,18.674-86.152
				c7.435-4.36,8.059-18.319,7.674-23.329l-0.011-0.213c-0.008-1.146,0.332-2.876,2.018-4.576
				c6.396-6.453,28.687-8.175,40.851-8.175c10.155,0,27.992,0.971,33.31,7.483c1.413,1.73,1.933,3.759,1.502,5.862
				c-2.578,12.628,1.678,19.994,1.864,20.298l15.862,26.584l0.099,0.574L318.754,384.273z M188.474,354.316l122.678,22.246
				l-13.344-79.98l-15.254-25.557c-0.218-0.351-5.728-9.564-2.627-24.751c0.033-0.165,0.067-0.317-0.225-0.673
				c-2.04-2.503-11.821-5.193-28.479-5.193c-21.896,0-35.335,4.222-36.622,6.549c0.172,2.78,0.92,22.041-10.761,28.893
				C198.201,279.164,191.581,318.587,188.474,354.316z"/>
		</g>
	</g>
	<g>
		<g>
			<path fill="#FCC393" d="M339.169,149.547c-1.079,0-2.122,0.224-3.127,0.549c-8.583-41.95-46.468-73.57-91.937-73.57
				c-46.662,0-85.246,33.327-92.452,76.929c-1.727-1.103-3.632-1.767-5.657-1.767c-7.319,0-13.252,7.988-13.252,17.836
				c0,9.857,5.933,17.845,13.252,17.845c2.183,0,4.222-0.781,6.038-2.055c8.241,42.376,46.303,74.436,92.071,74.436
				c45.97,0,84.139-32.34,92.157-74.985c0.938,0.284,1.905,0.463,2.906,0.463c7.315,0,13.249-7.992,13.249-17.84
				C352.418,157.535,346.484,149.547,339.169,149.547z"/>
		</g>
		<g>
			<path fill="#281912" d="M244.105,262.871c-45.059,0-84.058-30.458-94.271-72.991c-1.252,0.407-2.537,0.609-3.838,0.609
				c-9.022,0-16.369-9.404-16.369-20.964c0-11.556,7.347-20.956,16.369-20.956c1.117,0,2.224,0.149,3.313,0.449
				c9.199-44.046,48.429-75.61,94.796-75.61c44.965,0,84.131,30.54,94.319,73.046c0.251-0.019,0.498-0.026,0.744-0.026
				c9.026,0,16.368,9.404,16.368,20.96c0,11.75-7.637,21.315-16.824,20.949C329.085,231.706,289.787,262.871,244.105,262.871z
				 M154.175,180.012l0.918,4.708c8.104,41.67,45.542,71.915,89.013,71.915c43.731,0,81.199-30.469,89.094-72.445l0.643-3.415
				l3.32,1.009c0.731,0.221,1.387,0.329,2.007,0.329c5.492,0,10.132-6.744,10.132-14.725s-4.64-14.724-10.132-14.724
				c-0.636,0-1.341,0.13-2.152,0.396l-3.324,1.087l-0.702-3.422c-8.425-41.188-45.806-71.082-88.884-71.082
				c-44.671,0-82.26,31.253-89.378,74.316l-0.77,4.67l-3.987-2.548c-6.862-4.394-14.111,3.557-14.111,13.442
				c0,10.032,7.47,18.08,14.384,13.238L154.175,180.012z"/>
		</g>
	</g>
	<g>
		<path fill="#141211" d="M210.352,167.379c0,7.129-4.621,12.909-10.318,12.909c-5.694,0-10.316-5.78-10.316-12.909
			c0-7.128,4.622-12.908,10.316-12.908C205.73,154.471,210.352,160.251,210.352,167.379z"/>
	</g>
	<g>
		<path fill="#FFFFFA" d="M202.17,167.387c0,2.481-1.864,4.491-4.166,4.491c-2.301,0-4.166-2.01-4.166-4.491
			c0-2.488,1.865-4.498,4.166-4.498C200.306,162.889,202.17,164.899,202.17,167.387z"/>
	</g>
	<g>
		<path fill="#141211" d="M294.432,167.379c0,7.129-4.625,12.909-10.318,12.909c-5.697,0-10.32-5.78-10.32-12.909
			c0-7.128,4.623-12.908,10.32-12.908C289.807,154.471,294.432,160.251,294.432,167.379z"/>
	</g>
	<g>
		<path fill="#FFFFFA" d="M286.249,167.387c0,2.481-1.868,4.491-4.166,4.491c-2.301,0-4.166-2.01-4.166-4.491
			c0-2.488,1.865-4.498,4.166-4.498C284.381,162.889,286.249,164.899,286.249,167.387z"/>
	</g>
	<g>
		<path fill="#834C1F" d="M234.26,190.906c0,0,13.601,2.025,15.476-5.567c1.875-7.592,0-22.45,0-22.45s8.433,11.321,4.214,24.983
			C249.735,201.536,227.767,190.794,234.26,190.906z"/>
	</g>
	<g opacity="0.7">
		<g>
			<path fill="#F9A880" d="M202.17,195.722c0,4.615-5.829,8.347-13.032,8.347c-7.185,0-13.017-3.732-13.017-8.347
				c0-4.617,5.832-8.354,13.017-8.354C196.341,187.369,202.17,191.105,202.17,195.722z"/>
		</g>
	</g>
	<g opacity="0.7">
		<g>
			<path fill="#F9A880" d="M314.801,194.818c0,4.611-5.831,8.351-13.022,8.351c-7.188,0-13.025-3.74-13.025-8.351
				c0-4.618,5.837-8.351,13.025-8.351C308.97,186.468,314.801,190.201,314.801,194.818z"/>
		</g>
	</g>
	<g>
		<path fill="#FFFFFF" d="M216.442,207.615c0,0,6.097,23.789,27.663,22.776c21.565-1.017,29.687-22.776,29.687-22.776
			s-9.526,11.403-29.687,11.403C223.395,219.018,216.442,207.615,216.442,207.615z"/>
	</g>
	<g>
		<path fill="#301E12" d="M185.23,152.573c0,0,4.692-6.583,13.6-5.825c8.914,0.762,9.844,2.533,10.319-2.275
			c0.467-4.809-3.755-5.821-10.319-5.063C192.27,140.172,179.61,154.101,185.23,152.573z"/>
	</g>
	<g>
		<path fill="#301E12" d="M300.021,152.573c0,0-4.688-6.583-13.596-5.825c-8.908,0.762-9.846,2.533-10.312-2.275
			c-0.471-4.809,3.756-5.821,10.312-5.063C292.989,140.172,305.651,154.101,300.021,152.573z"/>
	</g>
	<g>
		<path fill="#646565" d="M200.134,277.407c0,0-11.575,50.026,41.063,48.344c59.329-1.896,45.022-31.62,46.542-52.121
			c0,0-5.437-1.022,43.916,10.364c49.348,11.388,65.293,25.055,72.882,119.954c3.801,27.339-37.197,20.501-37.197,20.501
			l-245.983,1.637c0,0-34.927,8.234-27.335-30.486C101.613,356.88,96.854,278.368,200.134,277.407z"/>
		<path fill="#281912" d="M114.081,429.934c-8.381,0-15.015-2.68-19.192-7.75c-4.958-6.029-6.281-15.176-3.927-27.188
			c0.971-4.955,1.752-10.674,2.577-16.727c5.598-41.065,14.053-103.119,106.562-103.979c0.011,0,0.022,0,0.033,0
			c0.938,0,1.83,0.431,2.424,1.165c0.599,0.74,0.822,1.719,0.613,2.648c-0.048,0.203-4.476,20.263,5.851,33.22
			c6.005,7.532,15.969,11.35,29.618,11.35c0.803,0,1.617-0.011,2.462-0.041c19.559-0.62,32.146-4.292,38.482-11.216
			c6.314-6.9,5.758-16.708,5.221-26.189c-0.205-3.613-0.416-7.338-0.236-10.851c-0.112-0.39-0.148-0.8-0.094-1.211
			c0.226-1.535,1.551-2.679,3.102-2.679c0.189,0,0.55,0.041,0.74,0.078c0.254,0.049,0.496,0.123,0.722,0.229
			c1.912,0.504,10.051,2.484,43.317,10.162c52.488,12.116,67.773,28.758,75.292,122.746c0.899,6.463-0.473,11.943-4.097,16.109
			c-6.127,7.038-17.369,8.512-25.72,8.512c-5.354,0-9.609-0.587-10.723-0.755L121.695,429.2
			C120.688,429.408,117.754,429.934,114.081,429.934z M196.431,280.593c-83.612,2.369-91.171,57.849-96.716,98.521
			c-0.836,6.146-1.628,11.949-2.633,17.087c-1.98,10.092-1.099,17.504,2.622,22.024c3.726,4.524,9.876,5.479,14.377,5.479
			c3.71,0,6.535-0.647,6.565-0.655c0.224-0.048,0.455-0.074,0.691-0.077l245.979-1.637c0.153-0.005,0.358,0.011,0.534,0.041
			c0.041,0.007,4.401,0.717,9.979,0.717c7.054,0,16.432-1.104,21.017-6.369c2.425-2.783,3.276-6.494,2.604-11.344
			c-7.604-95.004-23.452-106.488-70.498-117.347c-20.217-4.663-33.857-7.851-40.217-9.394c0.015,2.305,0.148,4.727,0.291,7.233
			c0.582,10.274,1.24,21.916-6.846,30.752c-7.527,8.228-21.558,12.558-42.888,13.241c-0.907,0.029-1.786,0.045-2.655,0.045
			c-15.659,0-27.271-4.622-34.52-13.733C194.824,303.482,195.497,287.797,196.431,280.593z"/>
	</g>
	<g>
		<path fill="#ED7FB2" d="M160.392,282.829c-63.549,17.981-61.02,80.114-67.506,113.203c-7.592,38.719,27.334,30.486,27.334,30.486
			l51.029-0.341L160.392,282.829z"/>
		<path fill="#281912" d="M112.949,430.367h-0.004c-8.381,0-15.02-2.678-19.193-7.752c-4.961-6.026-6.28-15.174-3.927-27.186
			c0.972-4.953,1.749-10.675,2.575-16.723c4.778-35.064,11.32-83.083,67.146-98.88c0.896-0.259,1.86-0.091,2.631,0.444
			c0.766,0.539,1.251,1.388,1.323,2.32l10.853,143.352c0.07,0.862-0.228,1.707-0.814,2.346c-0.583,0.636-1.408,0.998-2.271,1.006
			l-50.708,0.336C119.552,429.84,116.622,430.367,112.949,430.367z M157.578,286.938c-48.525,15.764-54.563,60.057-58.998,92.605
			c-0.837,6.148-1.629,11.952-2.639,17.086c-1.976,10.096-1.095,17.505,2.624,22.025c3.729,4.527,9.879,5.477,14.38,5.477h0.004
			c3.706,0,6.531-0.643,6.562-0.648c0.22-0.05,0.455-0.079,0.687-0.083l47.688-0.317L157.578,286.938z"/>
	</g>
	<g>
		<path fill="#ED7FB2" d="M339.498,425.062l26.706-0.181c0,0,40.998,6.834,37.197-20.501
			c-7.587-94.898-23.534-108.566-72.886-119.954L339.498,425.062z"/>
		<path fill="#281912" d="M376.691,428.76c-5.354,0-9.609-0.59-10.724-0.758l-26.456,0.175c-0.004,0-0.012,0-0.012,0
			c-1.646,0-3.011-1.276-3.119-2.917l-8.975-140.635c-0.063-0.982,0.344-1.936,1.092-2.574c0.75-0.636,1.763-0.882,2.72-0.66
			c52.489,12.111,67.774,28.752,75.287,122.744c0.904,6.465-0.463,11.944-4.095,16.114
			C396.292,427.281,385.046,428.76,376.691,428.76z M366.204,421.762c0.172,0,0.339,0.02,0.508,0.046
			c0.045,0.009,4.405,0.718,9.979,0.718c7.062,0,16.436-1.103,21.02-6.371c2.426-2.782,3.277-6.493,2.604-11.344
			c-7.38-92.205-22.526-105.74-66.423-116.381l8.522,133.493l23.767-0.161C366.188,421.762,366.196,421.762,366.204,421.762z"/>
	</g>
	<g>
		<path fill="#FFFFFF" d="M145.204,360.126c0.187,2.586,2.428,4.528,5.014,4.341c2.582-0.183,4.524-2.428,4.338-5.01
			c-0.183-2.582-2.425-4.523-5.01-4.341C146.964,355.299,145.021,357.545,145.204,360.126z"/>
	</g>
	<g>
		<path fill="#FFFFFF" d="M147.154,387.318c0.183,2.578,2.429,4.524,5.011,4.342c2.581-0.188,4.523-2.432,4.338-5.014
			s-2.429-4.523-5.011-4.342C148.911,382.491,146.968,384.734,147.154,387.318z"/>
	</g>
	<g>
		<path fill="#FFFFFF" d="M149.101,414.502c0.187,2.583,2.429,4.528,5.015,4.346c2.578-0.186,4.521-2.432,4.334-5.014
			c-0.18-2.581-2.425-4.523-5.007-4.338C150.856,409.68,148.914,411.921,149.101,414.502z"/>
	</g>
	<g>
		<path fill="#FFFFFF" d="M360.354,360.126c-0.188,2.586-2.429,4.528-5.011,4.341c-2.578-0.183-4.521-2.428-4.338-5.01
			c0.188-2.582,2.429-4.523,5.011-4.341C358.597,355.299,360.536,357.545,360.354,360.126z"/>
	</g>
	<g>
		<path fill="#FFFFFF" d="M358.406,387.318c-0.187,2.578-2.424,4.524-5.006,4.342c-2.586-0.188-4.524-2.432-4.34-5.014
			c0.186-2.582,2.427-4.523,5.008-4.342C356.65,382.491,358.594,384.734,358.406,387.318z"/>
	</g>
	<g>
		<path fill="#FFFFFF" d="M356.46,414.502c-0.183,2.583-2.429,4.528-5.006,4.346c-2.582-0.186-4.525-2.432-4.338-5.014
			c0.183-2.581,2.424-4.523,5.006-4.338C354.703,409.68,356.643,411.921,356.46,414.502z"/>
	</g>
	<g>
		<path fill="#969891" d="M269.508,57.185c-46.128-0.621-30.076-37.202-2.844-40.318c8.706-0.997,28.388-0.452,40.53,11.108
			c12.143,11.563,3.542,24.308-3.013,31.197C297.623,66.058,287.583,57.423,269.508,57.185z"/>
		<path fill="#281912" d="M297.648,64.948c-3.058,0-6.359-0.837-10.186-1.808c-5.085-1.285-10.843-2.746-17.997-2.84
			c-28.224-0.377-31.927-13.405-32.207-18.987c-0.643-12.83,12.932-25.697,29.05-27.543c2.045-0.235,4.383-0.359,6.758-0.359
			c8.722,0,25.029,1.599,36.271,12.307c10.335,9.834,9.273,22.81-2.898,35.602C304.115,63.764,301.239,64.948,297.648,64.948z
			 M273.066,19.646c-2.711,0-4.784,0.172-6.047,0.317c-13.772,1.573-23.958,12.599-23.531,21.035
			c0.398,7.969,10.139,12.856,26.06,13.069c7.891,0.104,14.294,1.726,19.442,3.03c3.423,0.866,6.378,1.614,8.657,1.614
			c1.895,0,3.131-0.489,4.276-1.688c9.856-10.361,10.906-19.376,3.117-26.793C295.007,20.678,279.338,19.646,273.066,19.646z"/>
	</g>
	<g>
		<path fill="#969891" d="M151.653,153.455c-1.895-15.573,59.675-26.853,87.337-66.385c21.479,51.594,98.977,63.026,98.977,63.026
			C355.556,41.003,233.938,47.235,233.938,47.235c-116.301-1.797-95.034,107.236-95.034,107.236
			C138.883,154.422,151.653,153.455,151.653,153.455z"/>
		<path fill="#281912" d="M138.896,157.591c-1.468,0-2.768-1.043-3.052-2.526c-0.385-1.958-9.049-48.413,17.739-80.922
			c16.433-19.936,42.515-30.046,77.53-30.046c0.911,0,1.849,0.007,2.771,0.022c0.367-0.019,1.626-0.067,3.61-0.067
			c13.941,0,61.479,2.396,87.711,33.196c15.434,18.125,20.761,42.798,15.837,73.349c-0.272,1.681-1.846,2.843-3.53,2.585
			c-0.811-0.119-20.021-3.026-42.193-12.382c-27.407-11.563-46.981-27.973-56.968-47.678
			c-15.954,19.978-40.325,32.539-58.438,41.876c-13.245,6.822-25.754,13.267-25.167,18.079c0.104,0.848-0.146,1.696-0.684,2.354
			c-0.541,0.658-1.326,1.065-2.175,1.132c-4.379,0.333-11.515,0.885-12.485,0.986c-0.038,0.004-0.079,0.011-0.12,0.015
			C139.155,157.583,139.027,157.591,138.896,157.591z M231.114,50.328c-33.055,0-57.511,9.341-72.702,27.76
			c-21.364,25.904-18.256,62.735-16.877,73.028l7.218-0.564c1.854-7.465,13.249-13.338,28.306-21.099
			c19.84-10.226,44.532-22.951,59.379-44.169c0.65-0.934,1.757-1.438,2.893-1.312c1.129,0.124,2.101,0.852,2.537,1.898
			c18.181,43.672,79.099,57.829,93.491,60.602c3.783-27.207-1.224-49.124-14.897-65.178c-24.501-28.772-69.698-31.007-82.965-31.007
			c-2.142,0-3.355,0.06-3.404,0.06C232.963,50.336,232.025,50.328,231.114,50.328z"/>
	</g>
	<g>
		<ellipse fill="#FFFFFF" cx="190.546" cy="296.334" rx="7.715" ry="6.751"/>
	</g>
	<g>
		<ellipse fill="#FFFFFF" cx="192.847" cy="311.675" rx="7.717" ry="8.148"/>
	</g>
	<g>
		<ellipse fill="#FFFFFF" cx="201.453" cy="324.419" rx="8.608" ry="7.392"/>
	</g>
	<g>
		<path fill="#FFFFFF" d="M223.23,332.27c0.471,3.698-2.955,7.188-7.659,7.793c-4.703,0.605-8.907-1.904-9.382-5.604
			c-0.474-3.695,2.955-7.189,7.663-7.791C218.553,326.064,222.752,328.57,223.23,332.27z"/>
	</g>
	<g>
		<path fill="#FFFFFF" d="M240.04,336.708c0,3.729-3.755,6.751-8.385,6.751c-4.629,0-8.38-3.021-8.38-6.751
			c0-3.733,3.751-6.756,8.38-6.756C236.285,329.953,240.04,332.975,240.04,336.708z"/>
	</g>
	<g>
		<path fill="#FFFFFF" d="M256.58,336.708c0,3.729-3.451,6.751-7.719,6.751c-4.256,0-7.716-3.021-7.716-6.751
			c0-3.733,3.46-6.756,7.716-6.756C253.129,329.953,256.58,332.975,256.58,336.708z"/>
	</g>
	<g>
		<path fill="#FFFFFF" d="M286.98,329.953c0,3.729-3.455,6.756-7.715,6.756c-4.264,0-7.719-3.027-7.719-6.756
			s3.455-6.751,7.719-6.751C283.525,323.202,286.98,326.225,286.98,329.953z"/>
	</g>
	<g>
		<path fill="#FFFFFF" d="M297.484,319.824c0,3.729-3.457,6.752-7.715,6.752c-4.265,0-7.721-3.021-7.721-6.752
			c0-3.729,3.456-6.754,7.721-6.754C294.027,313.07,297.484,316.096,297.484,319.824z"/>
	</g>
	<g>
		<path fill="#FFFFFF" d="M302.419,307.619c0,3.729-3.456,6.751-7.718,6.751c-4.264,0-7.721-3.022-7.721-6.751
			c0-3.733,3.457-6.756,7.721-6.756C298.963,300.863,302.419,303.885,302.419,307.619z"/>
	</g>
	<g>
		<path fill="#FFFFFF" d="M306.574,294.111c0,3.729-3.456,6.752-7.715,6.752c-4.264,0-7.721-3.022-7.721-6.752
			c0-3.731,3.457-6.754,7.721-6.754C303.118,287.357,306.574,290.379,306.574,294.111z"/>
	</g>
	<g>
		<path fill="#FFFFFF" d="M306.574,280.359c0,3.729-3.456,6.75-7.715,6.75c-4.264,0-7.721-3.021-7.721-6.75
			c0-3.729,3.457-6.756,7.721-6.756C303.118,273.604,306.574,276.63,306.574,280.359z"/>
	</g>
	<g>
		<path fill="#FFFFFF" d="M197.324,282.829c0,3.729-3.456,6.751-7.715,6.751c-4.268,0-7.72-3.021-7.72-6.751s3.452-6.751,7.72-6.751
			C193.868,276.078,197.324,279.1,197.324,282.829z"/>
	</g>
	<g>
		<ellipse fill="#FFFFFF" cx="265.732" cy="334.567" rx="7.717" ry="6.751"/>
	</g>
	<g opacity="0.7">
		<path fill="#6B6C6C" d="M185.888,158.338c-0.074,0-0.153-0.003-0.231-0.026l-9.009-2.078c-0.557-0.131-0.907-0.684-0.78-1.244
			c0.13-0.562,0.691-0.904,1.244-0.781l9.008,2.078c0.561,0.131,0.908,0.688,0.781,1.248
			C186.788,158.017,186.361,158.338,185.888,158.338z"/>
	</g>
	<g opacity="0.7">
		<path fill="#6B6C6C" d="M177.791,166.606c-0.403,0-0.784-0.239-0.945-0.635c-0.205-0.52,0.045-1.113,0.564-1.323l8.384-3.37
			c0.513-0.202,1.114,0.041,1.318,0.564c0.21,0.52-0.044,1.11-0.563,1.319l-8.381,3.37
			C178.045,166.584,177.919,166.606,177.791,166.606z"/>
	</g>
	<g opacity="0.7">
		<path fill="#6B6C6C" d="M301.575,158.573c-0.464,0-0.881-0.317-0.99-0.784c-0.127-0.546,0.217-1.091,0.763-1.218l8.803-2.032
			c0.553-0.135,1.092,0.213,1.219,0.758c0.126,0.545-0.214,1.095-0.759,1.218l-8.804,2.033
			C301.729,158.566,301.65,158.573,301.575,158.573z"/>
	</g>
	<g opacity="0.7">
		<path fill="#6B6C6C" d="M310.168,166.606c-0.127,0-0.258-0.022-0.381-0.075l-8.38-3.37c-0.521-0.209-0.773-0.799-0.562-1.319
			c0.205-0.523,0.799-0.776,1.318-0.564l8.381,3.37c0.52,0.209,0.771,0.803,0.564,1.323
			C310.949,166.368,310.568,166.606,310.168,166.606z"/>
	</g>
	<g opacity="0.7">
		<path fill="#6B6C6C" d="M251.787,134.486c-5.22,0-9.819-1.737-10.092-1.842c-6.427-2.571-12.311-0.045-12.367-0.023
			c-0.526,0.235-1.14-0.004-1.371-0.527c-0.231-0.527,0.004-1.136,0.526-1.371c0.27-0.12,6.718-2.918,13.971-0.015
			c0.074,0.03,8.704,3.277,15.157,0.695c0.529-0.213,1.136,0.045,1.349,0.575c0.217,0.535-0.045,1.14-0.575,1.353
			C256.255,134.18,253.969,134.486,251.787,134.486z"/>
	</g>
	<g opacity="0.7">
		<path fill="#6B6C6C" d="M248.868,130.156c-3.702,0-6.949-1.774-7.14-1.883c-4.289-2.489-8.159-0.052-8.197-0.026
			c-0.407,0.257-0.938,0.138-1.191-0.262c-0.262-0.4-0.146-0.934,0.253-1.192c0.198-0.126,4.809-3.022,9.992-0.022
			c0.041,0.026,5.843,3.175,10.133,0.695c0.411-0.239,0.94-0.101,1.185,0.314c0.234,0.411,0.097,0.938-0.317,1.177
			C252.062,129.838,250.427,130.156,248.868,130.156z"/>
	</g>
	<g>
		<g>
			<path fill="#281912" d="M258.52,157.288c-16.692-9.953-26.677-0.818-27.091-0.426l-4.33-4.484
				c0.55-0.53,13.678-12.923,34.616-0.444L258.52,157.288z"/>
		</g>
		<g>
			<polygon fill="#281912" points="312.262,156.197 311.062,150.081 337.073,144.992 338.272,151.108 			"/>
		</g>
		<g>
			
				<rect x="150.624" y="147.536" transform="matrix(-0.9876 -0.1568 0.1568 -0.9876 302.5435 325.1754)" fill="#281912" width="26.95" height="6.234"/>
		</g>
		<g>
			<path fill="#281912" d="M203.521,191.568c-16.723,0-30.334-13.607-30.334-30.334c0-16.73,13.611-30.334,30.334-30.334
				c16.728,0,30.335,13.604,30.335,30.334C233.856,177.961,220.249,191.568,203.521,191.568z M203.521,137.131
				c-13.285,0-24.098,10.812-24.098,24.102s10.812,24.103,24.098,24.103c13.291,0,24.104-10.812,24.104-24.103
				C227.625,147.944,216.812,137.131,203.521,137.131z"/>
		</g>
		<g>
			<path fill="#281912" d="M285.913,191.568c-16.728,0-30.334-13.607-30.334-30.334c0-16.73,13.606-30.334,30.334-30.334
				c16.729,0,30.338,13.604,30.338,30.334C316.251,177.961,302.644,191.568,285.913,191.568z M285.913,137.131
				c-13.29,0-24.103,10.812-24.103,24.102s10.812,24.103,24.103,24.103c13.294,0,24.103-10.812,24.103-24.103
				C310.016,147.944,299.207,137.131,285.913,137.131z"/>
		</g>
	</g>
	<g>
		<g>
			<g>
				<ellipse fill="#FAA625" cx="320.209" cy="278.506" rx="9.981" ry="17.713"/>
			</g>
			<g>
				<path fill="#27140E" d="M320.211,296.48c-5.646,0-10.241-8.062-10.241-17.975c0-9.908,4.597-17.968,10.241-17.968
					c5.642,0,10.238,8.06,10.238,17.968C330.449,288.418,325.853,296.48,320.211,296.48z M320.211,261.05
					c-5.365,0-9.722,7.831-9.722,17.456c0,9.624,4.355,17.455,9.722,17.455c5.361,0,9.718-7.831,9.718-17.455
					C329.929,268.881,325.572,261.05,320.211,261.05z"/>
			</g>
		</g>
		<g>
			<g>
				<path fill="#6D7EBE" d="M309.877,328.092c0-12.621,0-25.24,0-37.861c7.088,0,14.179,0,21.271,0c0,12.153,0,25.424,0,37.578
					L309.877,328.092z"/>
			</g>
			<g>
				<path fill="#27140E" d="M309.877,329.9c-0.479,0-0.934-0.188-1.273-0.522c-0.345-0.34-0.534-0.803-0.534-1.285V290.23
					c0-0.998,0.807-1.81,1.809-1.81h21.271c0.999,0,1.81,0.812,1.81,1.81v37.578c0,0.986-0.797,1.793-1.782,1.805l-21.273,0.287
					C309.893,329.9,309.885,329.9,309.877,329.9z M311.682,292.035v34.229l17.661-0.236v-33.991L311.682,292.035L311.682,292.035z"
					/>
			</g>
		</g>
		<g>
			<g>
				<rect x="226.014" y="354.361" fill="#894620" width="189.108" height="67.974"/>
			</g>
			<g>
				<path fill="#27140E" d="M415.122,424.139H226.014c-0.997,0-1.808-0.812-1.808-1.805v-67.973c0-0.994,0.811-1.801,1.808-1.801
					h189.108c0.998,0,1.808,0.807,1.808,1.801v67.973C416.93,423.328,416.12,424.139,415.122,424.139z M227.822,420.529h185.491
					V356.17H227.822V420.529z"/>
			</g>
		</g>
		<g>
			<g>
				<path fill="#F0516C" d="M245.932,327.977c-13.162-0.561-26.258-1.047-29.546,8.271c0,6.266,0,13.868,0,21.273
					c0,7.08-1.647,15.605,3.501,18.353c7.263,2.784,19.2-11.963,23.68-12.44c18.05-1.922,25.033,14.193,37.826,14.183
					c8.015-0.009,17.747-10.462,28.364-13.003c23.938-5.733,34.105,13.881,50.82,13.003c11.803-0.62,21.789-14.115,33.095-14.183
					c12.416-0.074,23.072,16.551,30.731,14.183c7.657-2.368,6.89-44.47-8.272-49.64
					C410.325,325.997,245.932,327.977,245.932,327.977z"/>
			</g>
			<g>
				<path fill="#27140E" d="M422.838,379.652L422.838,379.652c-3.949,0-7.929-2.971-12.539-6.407
					c-5.036-3.751-10.742-8.007-16.545-8.007h-0.07c-5.175,0.029-10.202,3.262-15.526,6.685c-5.484,3.523-11.153,7.165-17.485,7.498
					c-7.569,0.394-13.693-3.016-20.176-6.629c-6.55-3.649-13.322-7.423-22.187-7.423c-2.618,0-5.354,0.337-8.134,1.001
					c-4.748,1.136-9.394,4.001-13.879,6.771c-5.234,3.225-10.179,6.273-14.904,6.28c-6.199,0-10.943-3.276-15.966-6.752
					c-5.397-3.731-10.979-7.592-18.92-7.592c-0.896,0-1.819,0.053-2.75,0.149c-1.154,0.123-4.188,2.557-6.623,4.51
					c-4.85,3.89-10.347,8.295-15.274,8.295c-0.927,0-1.809-0.161-2.618-0.467c-0.071-0.03-0.139-0.061-0.206-0.096
					c-5.149-2.75-4.856-9.373-4.581-15.777c0.063-1.394,0.123-2.832,0.123-4.168v-21.274c0-0.205,0.034-0.406,0.105-0.603
					c3.026-8.578,12.932-9.731,22.219-9.731c3.026,0,6.229,0.134,9.056,0.254c2.258-0.026,74.146-0.878,123.467-0.878
					c44.424,0,46.432,0.684,47.29,0.979c10.095,3.441,14.462,20.773,14.253,35.428c-0.069,4.768-0.792,16.023-6.028,17.642
					C424.265,379.547,423.562,379.652,422.838,379.652z M393.754,361.625c6.998,0,13.22,4.637,18.701,8.725
					c3.927,2.926,7.633,5.693,10.383,5.693l0,0c0.365,0,0.705-0.052,1.03-0.152c1.368-0.426,3.355-5.127,3.49-14.246
					c0.101-6.982-0.938-14.291-2.852-20.041c-1.514-4.559-4.301-10.33-8.964-11.918c-1.054-0.287-8.488-0.785-46.12-0.785
					c-49.84,0-122.74,0.871-123.47,0.881c-0.03,0-0.063,0-0.097-0.002c-2.806-0.116-5.989-0.25-8.956-0.25
					c-11.168,0-16.798,2.109-18.711,7.041v20.953c0,1.42-0.063,2.896-0.127,4.322c-0.238,5.475-0.464,10.648,2.574,12.383
					c0.37,0.129,0.773,0.189,1.222,0.189c3.658,0,8.848-4.158,13.018-7.502c3.516-2.816,6.292-5.044,8.504-5.28
					c1.049-0.11,2.1-0.167,3.126-0.167c9.064,0,15.395,4.374,20.977,8.23c4.74,3.277,8.836,6.109,13.891,6.109
					c3.722-0.006,8.238-2.789,13.025-5.744c4.729-2.918,9.627-5.933,14.937-7.207c3.053-0.731,6.075-1.103,8.975-1.103
					c9.801,0,17.313,4.188,23.946,7.888c5.716,3.185,11.118,6.194,17.228,6.194c0.332,0,0.666-0.008,1.002-0.026
					c5.372-0.279,10.633-3.662,15.717-6.927c5.526-3.549,11.24-7.222,17.46-7.26L393.754,361.625L393.754,361.625z"/>
			</g>
		</g>
		<g>
			<g>
				<path fill="#623214" d="M415.122,387.146c0,14.183,0,28.369,0,42.548c6.184,1.704,13.799,1.963,17.729,5.911
					c2.282,4.411,2.821,10.576,2.365,17.729c-76.432,0-152.862,0-229.295,0c-2.179-16.361,4.401-23.965,20.093-22.456
					c0-14.971,0-29.94,0-44.913c9.688-4.583,15.222-7.271,24.82-5.908c9.928,1.399,17.527,10.068,27.188,10.635
					c15.168,0.896,28.795-12.111,44.908-10.635c15.868,1.448,21.178,12.107,39.003,10.635
					C378.638,389.314,396.729,370.236,415.122,387.146z"/>
			</g>
			<g>
				<path fill="#27140E" d="M435.216,455.138H205.921c-0.907,0-1.67-0.668-1.79-1.564c-1.154-8.668,0.102-15.157,3.726-19.298
					c3.131-3.575,7.988-5.388,14.44-5.388c0.617,0,1.255,0.015,1.909,0.048v-42.971c0-0.697,0.407-1.332,1.039-1.632l0.347-0.165
					c7.988-3.777,13.264-6.271,20.501-6.271c1.599,0,3.231,0.123,4.995,0.369c5.1,0.721,9.527,3.185,13.812,5.563
					c4.431,2.462,8.619,4.79,13.223,5.058c0.463,0.03,0.936,0.047,1.408,0.047c6.441,0,12.644-2.512,19.212-5.168
					c6.848-2.769,13.928-5.635,21.61-5.635c0.919,0,1.838,0.045,2.74,0.123c7.324,0.672,12.461,3.195,17.431,5.635
					c5.381,2.637,10.462,5.137,18.12,5.137l0,0c1.014,0,2.074-0.049,3.144-0.133c5.089-0.424,10.375-2.599,15.973-4.91
					c6.672-2.75,13.569-5.594,20.712-5.594c6.584,0,12.432,2.43,17.871,7.432c0.37,0.341,0.586,0.822,0.586,1.326v41.146
					c1.29,0.307,2.646,0.575,3.965,0.837c4.929,0.964,10.021,1.969,13.238,5.201c0.126,0.131,0.238,0.28,0.321,0.444
					c2.249,4.349,3.089,10.458,2.562,18.674C436.957,454.402,436.168,455.138,435.216,455.138z M207.527,451.525h225.974
					c0.272-6.516-0.427-11.385-2.126-14.833c-2.479-2.31-6.897-3.18-11.176-4.021c-1.85-0.366-3.758-0.74-5.556-1.232
					c-0.784-0.217-1.331-0.927-1.331-1.745v-41.74c-4.568-4.005-9.43-5.956-14.841-5.956c-6.426,0-12.988,2.71-19.338,5.329
					c-5.604,2.31-11.398,4.698-17.048,5.166c-1.17,0.095-2.324,0.146-3.441,0.146l0,0c-8.495,0-14.196-2.802-19.712-5.507
					c-4.891-2.403-9.509-4.671-16.166-5.278c-0.793-0.071-1.604-0.108-2.414-0.108c-6.979,0-13.728,2.729-20.258,5.369
					c-6.595,2.667-13.42,5.428-20.563,5.428c-0.541,0-1.088-0.015-1.622-0.049c-5.421-0.316-10.169-2.958-14.765-5.507
					c-4.178-2.323-8.123-4.518-12.562-5.141c-1.595-0.229-3.063-0.341-4.49-0.341c-6.232,0-11.104,2.216-18.271,5.604v43.77
					c0,0.509-0.221,0.994-0.598,1.334c-0.373,0.344-0.878,0.513-1.383,0.464c-7.196-0.694-12.352,0.646-15.269,3.979
					C207.872,439.742,206.848,444.744,207.527,451.525z"/>
			</g>
		</g>
		<g>
			<g>
				<path fill="#4E4E4E" d="M226.152,430.878c-15.692-1.509-22.264,6.095-20.09,22.456c76.432,0,152.863,0,229.295,0
					c0.455-7.152-0.078-13.317-2.365-17.729c-3.93-3.948-11.549-4.207-17.732-5.911L226.152,430.878z"/>
			</g>
			<g>
				<path fill="#27140E" d="M435.357,455.138H206.062c-0.904,0-1.673-0.668-1.793-1.564c-1.151-8.668,0.104-15.162,3.729-19.298
					c3.714-4.244,9.83-5.996,18.236-5.2l189.018-1.186c0.173-0.004,0.329,0.022,0.487,0.067c1.674,0.456,3.516,0.818,5.297,1.173
					c4.929,0.964,10.021,1.969,13.232,5.201c0.137,0.131,0.239,0.28,0.326,0.444c2.252,4.349,3.089,10.452,2.562,18.674
					C437.099,454.402,436.311,455.138,435.357,455.138z M207.666,451.525h225.98c0.269-6.516-0.432-11.389-2.128-14.833
					c-2.479-2.31-6.899-3.18-11.178-4.022c-1.768-0.345-3.587-0.702-5.312-1.167l-188.865,1.182c-0.06,0-0.119,0-0.179-0.008
					c-7.2-0.694-12.353,0.646-15.27,3.979C208.009,439.742,206.985,444.744,207.666,451.525z"/>
			</g>
		</g>
		<g>
			<g>
				<path fill="#FDD71E" d="M317.836,238.304c15.176,7.204,34.877,41.445,8.271,49.643c7.967-6.674-0.077-18.809-5.91-22.459
					c-1.268,5.824-6.336,7.851-8.271,13.003c-0.908,5.639,1.666,7.784,4.728,9.456c-9.584,0.062-16.237-9.744-15.368-18.912
					C302.408,257.277,320.219,251.352,317.836,238.304z"/>
			</g>
			<g>
				<path fill="#27140E" d="M316.564,289.755c-4.479,0-8.714-1.946-11.927-5.481c-3.751-4.121-5.676-9.885-5.151-15.406
					c0.567-5.938,4.771-10.361,8.833-14.635c4.564-4.812,8.88-9.356,7.737-15.604c-0.124-0.666,0.138-1.345,0.677-1.752
					c0.538-0.418,1.263-0.494,1.876-0.206c10.938,5.197,23.354,22.647,22.349,36.528c-0.403,5.628-3.217,13.055-14.316,16.474
					c-0.821,0.255-1.707-0.108-2.117-0.862c-0.411-0.754-0.231-1.692,0.426-2.246c1.977-1.658,2.851-3.739,2.668-6.366
					c-0.309-4.438-3.546-9.082-6.506-11.739c-1.021,2.275-2.552,3.98-3.941,5.533c-1.396,1.562-2.724,3.037-3.489,4.97
					c-0.681,4.543,1.247,5.993,3.837,7.401c0.723,0.396,1.084,1.229,0.886,2.025c-0.201,0.799-0.918,1.358-1.74,1.366H316.564z
					 M319.83,241.524c-0.388,6.232-4.864,10.951-8.893,15.192c-3.812,4.009-7.405,7.794-7.854,12.494
					c-0.435,4.528,1.146,9.25,4.226,12.64c1.021,1.117,2.158,2.032,3.39,2.728c-0.71-1.621-0.99-3.681-0.562-6.374
					c0.021-0.115,0.053-0.235,0.099-0.348c0.992-2.645,2.645-4.49,4.242-6.272c1.73-1.929,3.359-3.747,3.953-6.476
					c0.128-0.58,0.523-1.053,1.062-1.281c0.545-0.229,1.166-0.176,1.658,0.131c4.606,2.889,9.632,9.654,10.068,15.994
					c0.095,1.38-0.028,2.689-0.365,3.916c3.976-2.516,6.157-6.172,6.502-10.926C338.152,261.898,328.921,247.581,319.83,241.524z"/>
			</g>
		</g>
	</g>
</g>
</svg>
