<?xml version="1.0" encoding="iso-8859-1"?>
<!-- Generator: Adobe Illustrator 12.0.1, SVG Export Plug-In . SVG Version: 6.00 Build 51448)  -->
<!DOCTYPE svg PUBLIC "-//W3C//DTD SVG 1.1//EN" "http://www.w3.org/Graphics/SVG/1.1/DTD/svg11.dtd" [
	<!ENTITY ns_svg "http://www.w3.org/2000/svg">
	<!ENTITY ns_xlink "http://www.w3.org/1999/xlink">
]>
<svg  version="1.1" id="Layer_1" xmlns="&ns_svg;" xmlns:xlink="&ns_xlink;" width="850.394" height="850.394"
	 viewBox="0 0 850.394 850.394" style="overflow:visible;enable-background:new 0 0 850.394 850.394;" xml:space="preserve">
<rect x="368" y="368.249" style="fill:none;" width="113.386" height="113.386"/>
<g id="XMLID_1_">
	<g>
		<path style="fill:#F6CC4B;" d="M570,676c0.16-0.04,0.3-0.08,0.42-0.11c-0.09,0.04-0.18,0.08-0.27,0.11
			c-0.15,0.05-0.311,0.1-0.49,0.15C569.77,676.1,569.89,676.05,570,676z"/>
		<path style="fill:#F6CC4B;" d="M764.17,364.73C777.53,508.51,706,606,600,660c-9.95,6.45-20.67,11.94-29.58,15.89
			c-0.12,0.03-0.26,0.07-0.42,0.11c-0.11,0.05-0.23,0.1-0.34,0.15c-3.29,1-10.62,3.33-15.66,5.85c2.72-0.68,6.84-2.11,11.81-4.15
			C402.35,748.38,75.95,654.12,63.91,502.72c-9.67-121.43,96.47-10.42,166.83-67.39l-2.51,2.11c-2.24,1.59-4.49,3.18-4.11,3.439
			l4.11-3.439c2.25-1.591,4.5-3.171,4.11-3.44c15.66-8,19.66-18,26.27-42.18c5.79-49.76-16.61-71.24-37.01-94.74
			c-5.81-94.62,167.19-142.28,257.85-142.59C613.2,154.04,751.96,233.46,764.17,364.73z M717,378c0-32.58-26.42-59-59-59
			s-59,26.42-59,59s26.42,59,59,59S717,410.58,717,378z M637,542c0-32.58-26.42-59-59-59s-59,26.42-59,59s26.42,59,59,59
			S637,574.58,637,542z M566,259c0-32.58-26.42-59-59-59s-59,26.42-59,59s26.42,59,59,59S566,291.58,566,259z M443,596
			c0-32.58-26.42-59-59-59s-59,26.42-59,59s26.42,59,59,59S443,628.58,443,596z M379.75,396.91
			c58.51-18.36,41.44-100.51-10.69-105.32C291.02,284.4,283.04,427.25,379.75,396.91z M271,546c0-32.58-26.42-59-59-59
			s-59,26.42-59,59s26.42,59,59,59S271,578.58,271,546z"/>
		<path style="fill:#F6CC4B;" d="M569.66,676.15c0.18-0.051,0.34-0.101,0.49-0.15c-1.311,0.58-2.57,1.12-3.79,1.62
			C567.47,677.14,568.57,676.65,569.66,676.15z"/>
		<path style="fill:#FAA41F;" d="M658,319c32.58,0,59,26.42,59,59s-26.42,59-59,59s-59-26.42-59-59S625.42,319,658,319z"/>
		<path style="fill:#FBEE34;" d="M578,483c32.58,0,59,26.42,59,59s-26.42,59-59,59s-59-26.42-59-59S545.42,483,578,483z"/>
		<path style="fill:#ED1D31;" d="M507,200c32.58,0,59,26.42,59,59s-26.42,59-59,59s-59-26.42-59-59S474.42,200,507,200z"/>
		<path style="fill:#33A048;" d="M384,537c32.58,0,59,26.42,59,59s-26.42,59-59,59s-59-26.42-59-59S351.42,537,384,537z"/>
		<path style="fill:#0D72BA;" d="M212,487c32.58,0,59,26.42,59,59s-26.42,59-59,59s-59-26.42-59-59S179.42,487,212,487z"/>
	</g>
	<g>
		<path style="fill:none;stroke:#231F20;stroke-width:14;" d="M232.34,434c0.39,0.27-1.86,1.85-4.11,3.44
			c-2.24,1.59-4.49,3.18-4.11,3.439"/>
		<path style="fill:none;stroke:#231F20;stroke-width:14;" d="M565.81,677.85C402.35,748.38,75.95,654.12,63.91,502.72
			c-9.67-121.43,96.47-10.42,166.83-67.39"/>
		<path style="fill:none;stroke:#231F20;stroke-width:14;" d="M232.34,434c15.66-8,19.66-18,26.27-42.18
			c5.79-49.76-16.61-71.24-37.01-94.74c-5.81-94.62,167.19-142.28,257.85-142.59c133.75-0.45,272.51,78.97,284.72,210.24
			C777.53,508.51,706,606,600,660c-9.95,6.45-20.67,11.94-29.58,15.89c-0.09,0.04-0.18,0.08-0.27,0.11
			c-1.311,0.58-2.57,1.12-3.79,1.62c-0.19,0.08-0.37,0.16-0.551,0.229c-4.97,2.04-9.09,3.471-11.81,4.15
			c5.04-2.52,12.37-4.85,15.66-5.85c0.18-0.051,0.34-0.101,0.49-0.15c0.64-0.19,1.06-0.31,1.18-0.35c0.03-0.011,0.04-0.011,0,0
			c-0.1,0.02-0.39,0.1-0.91,0.239c-0.12,0.03-0.26,0.07-0.42,0.11c-0.11,0.05-0.23,0.1-0.34,0.15c-1.09,0.5-2.19,0.989-3.3,1.47"/>
		<line style="fill:none;stroke:#231F20;stroke-width:14;" x1="230.74" y1="435.33" x2="232.34" y2="434"/>
		<path style="fill:none;stroke:#231F20;stroke-width:14;" d="M369.06,291.59c-78.04-7.19-86.02,135.66,10.69,105.32
			C438.26,378.55,421.19,296.4,369.06,291.59z"/>
		<path style="fill:none;stroke:#231F20;stroke-width:14;" d="M566,259c0,32.58-26.42,59-59,59s-59-26.42-59-59s26.42-59,59-59
			S566,226.42,566,259z"/>
		<path style="fill:none;stroke:#231F20;stroke-width:14;" d="M717,378c0,32.58-26.42,59-59,59s-59-26.42-59-59s26.42-59,59-59
			S717,345.42,717,378z"/>
		<path style="fill:none;stroke:#231F20;stroke-width:14;" d="M637,542c0,32.58-26.42,59-59,59s-59-26.42-59-59s26.42-59,59-59
			S637,509.42,637,542z"/>
		<path style="fill:none;stroke:#231F20;stroke-width:14;" d="M443,596c0,32.58-26.42,59-59,59s-59-26.42-59-59s26.42-59,59-59
			S443,563.42,443,596z"/>
		<path style="fill:none;stroke:#231F20;stroke-width:14;" d="M271,546c0,32.58-26.42,59-59,59s-59-26.42-59-59s26.42-59,59-59
			S271,513.42,271,546z"/>
	</g>
</g>
<rect style="fill:none;" width="850.394" height="850.394"/>
</svg>
