<?xml version="1.0" encoding="iso-8859-1"?>
<!-- Generator: Adobe Illustrator 12.0.1, SVG Export Plug-In . SVG Version: 6.00 Build 51448)  -->
<!DOCTYPE svg PUBLIC "-//W3C//DTD SVG 1.1//EN" "http://www.w3.org/Graphics/SVG/1.1/DTD/svg11.dtd" [
	<!ENTITY ns_svg "http://www.w3.org/2000/svg">
	<!ENTITY ns_xlink "http://www.w3.org/1999/xlink">
]>
<svg  version="1.1" id="Layer_1" xmlns="&ns_svg;" xmlns:xlink="&ns_xlink;" width="850.394" height="850.394"
	 viewBox="0 0 850.394 850.394" style="overflow:visible;enable-background:new 0 0 850.394 850.394;" xml:space="preserve">
<g id="XMLID_5_">
	<g>
		<path style="fill:#FFEEC8;" d="M789.21,483.04c2.43,5.58,1.84,13.64-0.92,22.58l-0.03-0.01c0,0-115.5-56.03-188.02-69.44
			c-46.11-8.52-85.63-1.59-205.87-16.4c-4.04-0.5-8.17-1.02-12.39-1.57c-74.14-9.62-156.87-26-205.62-18.2
			c-48.76,7.8-113.55,76.1-113.55,76.1l-0.91-0.02c0.25-20.07,0.91-37.97,0.91-37.97s28.04-43.21,77.79-60.23
			s82.24-18.46,193.92-2.82c0,0,169.67,23.41,206.27,23.41c36.59,0,125.32,19.62,167.46,35.87S779.07,459.76,789.21,483.04z"/>
		<path style="fill:#BE0000;" d="M788.26,505.61l0.03,0.01c-8.78,28.33-39.44,65.53-65.2,60.689
			c-33.89-6.35-134.149-53.63-175.81-43.05c-41.67,10.59-96.74,18.351-131.33,29.641c-6.68,2.18-15.07,5.439-24.62,9.35
			c6.34-6.79,23.99-20.4,29.69-29.76c7.86-12.91,15.55-32.49,16.39-47.51c1.34-23.98-18.64-56.721-43.04-65.21
			c120.24,14.81,159.76,7.88,205.87,16.4C672.76,449.58,788.26,505.61,788.26,505.61z"/>
		<path style="fill:#BE0000;" d="M394.37,419.77c24.4,8.49,44.38,41.23,43.04,65.21c-0.84,15.02-8.53,34.6-16.39,47.51
			c-5.7,9.359-23.35,22.97-29.69,29.76c-39.87,16.35-99.78,44.15-138.53,52.82c0,0-84.63,10.739-119.01-7
			c-34.38-17.75-65.43-29.95-70.98-85.391c-1.05-10.51-1.13-29.359-0.91-46.6l0.91,0.02c0,0,64.79-68.3,113.55-76.1
			c48.75-7.8,131.48,8.58,205.62,18.2C386.2,418.75,390.33,419.27,394.37,419.77z"/>
	</g>
	<g>
		<path style="fill:none;stroke:#000000;stroke-width:19.9618;" d="M61.9,476.08c0.25-20.07,0.91-37.97,0.91-37.97
			s28.04-43.21,77.79-60.23s82.24-18.46,193.92-2.82c0,0,169.67,23.41,206.27,23.41c36.59,0,125.32,19.62,167.46,35.87
			s70.82,25.42,80.96,48.7c2.43,5.58,1.84,13.64-0.92,22.58c-8.78,28.33-39.44,65.53-65.2,60.689
			c-33.89-6.35-134.149-53.63-175.81-43.05c-41.67,10.59-96.74,18.351-131.33,29.641c-6.68,2.18-15.07,5.439-24.62,9.35
			c-39.87,16.35-99.78,44.15-138.53,52.82c0,0-84.63,10.739-119.01-7c-34.38-17.75-65.43-29.95-70.98-85.391
			C61.76,512.17,61.68,493.32,61.9,476.08z"/>
		<path style="fill:none;stroke:#000000;stroke-width:19.9618;" d="M62.81,476.1c0,0,64.79-68.3,113.55-76.1
			c48.75-7.8,131.48,8.58,205.62,18.2c4.22,0.55,8.35,1.07,12.39,1.57c120.24,14.81,159.76,7.88,205.87,16.4
			c72.52,13.41,188.02,69.44,188.02,69.44"/>
		<path style="fill:none;stroke:#000000;stroke-width:19.9618;" d="M394.37,419.77c24.4,8.49,44.38,41.23,43.04,65.21
			c-0.84,15.02-8.53,34.6-16.39,47.51c-5.7,9.359-23.35,22.97-29.69,29.76c-0.29,0.31-0.56,0.61-0.8,0.89"/>
		<path style="fill:none;stroke:#000000;stroke-width:19.9618;" d="M418.79,535.96c12.36-14.66,39.05-57.2,59.56-58.76
			c22.631-1.72,40.28,11,63.7,10.01c21.32-0.9,37.8-0.55,57.55,4.38c23.03,5.76,27.69,14.32,27.69,38.851"/>
		<path style="fill:none;stroke:#000000;stroke-width:19.9618;" d="M641.71,534.87c-0.51-12.12,9.13-29.811,21.07-32.18
			c12.59-2.5,24.439,6.689,35.51,10.89c21.95,8.34,64.02,0.689,64.02,34.54"/>
	</g>
</g>
<g id="XMLID_11_">
	<g>
		<path style="fill:#FFFFFF;" d="M697.592,248.042c-16.086,9.155-43.741,13.582-53.868,13.548
			c-24.201-0.078-38.8,0.022-61.112-10.888l-0.234-1.163c-1.576,0.302-3.052,0.492-4.404,0.537
			c8.271-4.963,7.646-22.748,2.627-32.171c-2.861-5.411-7.747-13.325-15.762-13.425c12.14-2.996,19.686-10.004,27.264-20.713
			c6.729-9.513,8.262-18.791,11.402-29.689c3.969-13.794,13.906-28.382,23.598-38.845c0.066-0.078,0.146-0.157,0.212-0.224
			c6.204-6.629,13.47-11.29,21.272-14.23c20.088-7.579,43.729-3.801,61.973,6.942c1.521-1.621,3.298-3.208,5.365-4.74
			c9.055-6.741,51.432-19.831,62.722-18.668c0.313,15.248-16.354,50.135-22.457,64.13c-0.805,1.856-2.393,4.17-4.494,6.64
			c3.589,4.326,6.54,7.802,7.624,15.203c1.453,9.982,1.543,26.414-0.213,36.33c-4.639,26.146-34.261,41.125-58.439,42.343
			L697.592,248.042z M666.985,176.512c2.303-1.99,5.467-1.934,7.903-3.689c-6.819-0.011-12.386-3.543-18.769-3.454
			c-10.943,0.134-5.31,12.509-12.218,16.13c5.377-2.817,14.744,1.688,19.271-2.057C665.197,181.766,664.683,178.513,666.985,176.512
			z"/>
		<path d="M674.889,172.823c-2.437,1.755-5.601,1.699-7.903,3.689c-2.303,2.001-1.788,5.254-3.812,6.931
			c-4.527,3.745-13.895-0.76-19.271,2.057c6.908-3.622,1.274-15.996,12.218-16.13C662.503,169.28,668.069,172.813,674.889,172.823z"
			/>
		<path style="fill:#FFFFFF;" d="M626.564,114.305c-0.011-8.976,0.213-38.465-3.42-47.542c9.076,4.237,24.737,25.721,25.251,33.524
			l0.19,0.492c-7.803,2.94-15.068,7.601-21.272,14.23L626.564,114.305z"/>
		<path style="fill:#FFFFFF;" d="M577.973,250.077c-3.186,1.923-7.68,1.934-13.761-1.163c-13.392-6.819-19.719-35.726-7.009-42.377
			c2.817-1.476,5.354-2.079,7.635-2.057c8.015,0.101,12.9,8.015,15.762,13.425C585.618,227.329,586.244,245.114,577.973,250.077z
			 M573.199,235.221c1.834-0.056,0.962-6.338,0.794-7.478c-0.302-2.035-0.671-4.583-1.989-6.249c0,0-2.236-2.168-2.46,0.906
			c-0.179,2.604,0.984,5.108,1.699,7.5C571.534,230.873,571.713,235.254,573.199,235.221z M561.943,233.846
			c0.871,0.034,0.234-2.079,0.021-6.718c-0.212-4.639,0.425-5.689-0.67-6.304C559.483,219.817,561.06,233.813,561.943,233.846z"/>
	</g>
	<g>
		<path style="fill:none;stroke:#000000;stroke-width:14.5318;" d="M710.883,107.911c-0.112-0.067-0.213-0.123-0.324-0.19
			c-18.243-10.743-41.885-14.521-61.973-6.942c-7.803,2.94-15.068,7.601-21.272,14.23c-0.066,0.067-0.146,0.146-0.212,0.224
			c-9.691,10.463-19.629,25.05-23.598,38.845c-3.141,10.898-4.673,20.177-11.402,29.689c-7.578,10.709-15.124,17.718-27.264,20.713
			c-1.453,0.369-2.974,0.671-4.571,0.917"/>
		<path style="fill:none;stroke:#000000;stroke-width:8.9426;" d="M577.168,250.099c0.257,0,0.525,0,0.805-0.022
			c1.353-0.044,2.828-0.235,4.404-0.537c9.423-1.799,21.977-7.445,29.41-9.881c10.027-3.287,17.125-11.257,26.47-14.789"/>
		<path style="fill:none;stroke:#000000;stroke-width:14.5318;" d="M582.611,250.703c22.313,10.91,36.911,10.81,61.112,10.888
			c10.127,0.034,37.782-4.393,53.868-13.548c0.794-0.447,1.554-0.906,2.28-1.375"/>
		<path style="fill:none;stroke:#000000;stroke-width:14.5318;" d="M701.438,141.546c-0.202-13.727,0.436-24.581,9.121-33.825
			c1.521-1.621,3.298-3.208,5.365-4.74c9.055-6.741,51.432-19.831,62.722-18.668c0.313,15.248-16.354,50.135-22.457,64.13
			c-0.805,1.856-2.393,4.17-4.494,6.64c-7.836,9.233-22.792,20.77-30.763,19.953"/>
		<path style="fill:none;stroke:#000000;stroke-width:14.5318;" d="M626.564,114.305c-0.011-8.976,0.213-38.465-3.42-47.542
			c9.076,4.237,24.737,25.721,25.251,33.524"/>
		<path style="fill:none;stroke:#000000;stroke-width:12.2961;" d="M564.838,204.48c-2.28-0.022-4.817,0.581-7.635,2.057
			c-12.71,6.651-6.383,35.558,7.009,42.377c6.081,3.097,10.575,3.085,13.761,1.163c8.271-4.963,7.646-22.748,2.627-32.171
			C577.738,212.495,572.853,204.581,564.838,204.48z"/>
		<path style="fill:none;stroke:#000000;stroke-width:5.5891;" d="M569.544,222.399c-0.179,2.604,0.984,5.108,1.699,7.5
			c0.291,0.973,0.47,5.354,1.956,5.321c1.834-0.056,0.962-6.338,0.794-7.478c-0.302-2.035-0.671-4.583-1.989-6.249
			C572.004,221.494,569.768,219.325,569.544,222.399z"/>
		<path style="fill:none;stroke:#000000;stroke-width:5.5891;" d="M561.965,227.127c-0.212-4.639,0.425-5.689-0.67-6.304
			c-1.812-1.006-0.235,12.989,0.648,13.022C562.814,233.879,562.178,231.767,561.965,227.127z"/>
	</g>
</g>
<rect style="fill:none;" width="850.394" height="850.394"/>
</svg>
