<?xml version="1.0" encoding="iso-8859-1"?>
<!-- Generator: Adobe Illustrator 12.0.1, SVG Export Plug-In . SVG Version: 6.00 Build 51448)  -->
<!DOCTYPE svg PUBLIC "-//W3C//DTD SVG 1.1//EN" "http://www.w3.org/Graphics/SVG/1.1/DTD/svg11.dtd" [
	<!ENTITY ns_svg "http://www.w3.org/2000/svg">
	<!ENTITY ns_xlink "http://www.w3.org/1999/xlink">
]>
<svg  version="1.1" id="Layer_1" xmlns="&ns_svg;" xmlns:xlink="&ns_xlink;" width="850.394" height="850.394"
	 viewBox="0 0 850.394 850.394" style="overflow:visible;enable-background:new 0 0 850.394 850.394;" xml:space="preserve">
<g id="XMLID_2_">
	<g>
		<polygon style="fill:#ED1E29;" points="413.23,563.7 413.34,563.7 420.21,563.7 430.66,625.58 430.66,792.91 413.23,792.91 
			413.12,792.91 395.69,792.91 395.69,625.58 406.15,563.7 413.02,563.7 		"/>
		<path style="fill:#FFFFFF;" d="M341.06,278.58v9.19c-2.51-2.92-4.9-5.98-7.17-9.19H341.06z"/>
		<path style="fill:#FFFFFF;" d="M341.06,90.1v0.47h-0.41C340.79,90.41,340.92,90.25,341.06,90.1z"/>
	</g>
	<g>
		<path style="fill:none;stroke:#231F20;stroke-width:20.917;" d="M516.96,165.41c1.06,7.64,1.62,15.5,1.62,23.52
			c0,4.99-0.22,9.93-0.64,14.78c-1.131,13.1-3.74,25.63-7.631,37.32c-5.8,17.42-14.409,32.97-25.119,45.72
			c-8.15,9.71-17.5,17.8-27.761,23.86c-8.93,5.29-18.54,9.04-28.609,10.99c-5.26,1.02-10.65,1.55-16.13,1.55
			c-15.22,0-29.7-4.07-42.78-11.41c-10.66-5.97-20.39-14.11-28.85-23.97c-2.51-2.92-4.9-5.98-7.17-9.19
			c-7.82-11.02-14.21-23.69-18.82-37.55c-3.88-11.67-6.49-24.18-7.62-37.25c-0.43-4.88-0.65-9.83-0.65-14.85
			c0-8.11,0.57-16.05,1.65-23.76c1.85-13.11,5.2-25.56,9.82-37.05c5.68-14.15,13.29-26.85,22.38-37.55
			c0.14-0.16,0.27-0.32,0.41-0.47c8.32-9.7,17.87-17.73,28.32-23.67c8.96-5.1,18.57-8.66,28.64-10.43c4.8-0.84,9.69-1.28,14.67-1.28
			c5.48,0,10.87,0.53,16.13,1.55c9.66,1.87,18.899,5.4,27.52,10.35c10.48,6.02,20.061,14.14,28.391,23.95
			c0.149,0.18,0.31,0.36,0.46,0.55c8.89,10.58,16.329,23.09,21.92,37C511.76,139.68,515.12,152.22,516.96,165.41z"/>
		<line style="fill:none;stroke:#231F20;stroke-width:20.917;" x1="413.23" y1="326.31" x2="413.23" y2="563.7"/>
		<polyline style="fill:none;stroke:#231F20;stroke-width:6.9723;" points="413.34,563.7 420.21,563.7 430.66,625.58 430.66,792.91 
			413.23,792.91 413.12,792.91 395.69,792.91 395.69,625.58 406.15,563.7 413.02,563.7 		"/>
		<polyline style="fill:none;stroke:#231F20;stroke-width:6.9723;" points="413.34,563.7 413.23,563.7 413.02,563.7 		"/>
		<polyline style="fill:none;stroke:#231F20;stroke-width:6.9723;" points="338.17,90.57 340.65,90.57 341.06,90.57 369.91,90.57 
			398.75,90.57 427.49,90.57 456.34,90.57 484.73,90.57 485.19,90.57 491.13,90.57 		"/>
		<polyline style="fill:none;stroke:#231F20;stroke-width:6.9723;" points="504.2,128.12 507.11,128.12 513.93,128.12 		"/>
		<polyline style="fill:none;stroke:#231F20;stroke-width:6.9723;" points="323.36,128.12 341.06,128.12 369.91,128.12 
			398.75,128.12 427.49,128.12 456.34,128.12 485.19,128.12 504.2,128.12 		"/>
		<polyline style="fill:none;stroke:#231F20;stroke-width:6.9723;" points="312.32,128.12 318.27,128.12 323.36,128.12 		"/>
		<line style="fill:none;stroke:#231F20;stroke-width:6.9723;" x1="508.56" y1="165.8" x2="513.93" y2="165.8"/>
		<polyline style="fill:none;stroke:#231F20;stroke-width:6.9723;" points="316.38,165.8 341.06,165.8 369.91,165.8 398.75,165.8 
			427.49,165.8 456.34,165.8 485.19,165.8 508.56,165.8 		"/>
		<line style="fill:none;stroke:#231F20;stroke-width:6.9723;" x1="312.32" y1="165.8" x2="316.38" y2="165.8"/>
		<line style="fill:none;stroke:#231F20;stroke-width:6.9723;" x1="509.43" y1="203.35" x2="513.93" y2="203.35"/>
		<polyline style="fill:none;stroke:#231F20;stroke-width:6.9723;" points="312.32,203.35 341.06,203.35 369.91,203.35 
			398.75,203.35 427.49,203.35 456.34,203.35 485.19,203.35 509.43,203.35 		"/>
		<polyline style="fill:none;stroke:#231F20;stroke-width:6.9723;" points="504.2,241.03 510.31,241.03 513.93,241.03 		"/>
		<polyline style="fill:none;stroke:#231F20;stroke-width:6.9723;" points="319.44,241.03 341.06,241.03 369.91,241.03 
			398.75,241.03 427.49,241.03 456.34,241.03 485.19,241.03 504.2,241.03 		"/>
		<polyline style="fill:none;stroke:#231F20;stroke-width:6.9723;" points="312.32,241.03 315.07,241.03 319.44,241.03 		"/>
		<polyline style="fill:none;stroke:#231F20;stroke-width:6.9723;" points="332.07,278.58 333.89,278.58 341.06,278.58 
			369.91,278.58 398.75,278.58 427.49,278.57 456.34,278.57 485.19,278.57 490.26,278.57 		"/>
		<polyline style="fill:none;stroke:#231F20;stroke-width:6.9723;" points="485.19,90.89 485.19,90.57 485.19,82.17 		"/>
		<polyline style="fill:none;stroke:#231F20;stroke-width:6.9723;" points="485.19,280.88 485.19,278.57 485.19,241.03 
			485.19,203.35 485.19,165.8 485.19,128.12 485.19,91.12 485.19,90.89 		"/>
		<path style="fill:none;stroke:#231F20;stroke-width:6.9723;" d="M485.19,287.85c0,0,0-0.44,0-1.1c0-1.97,0-5.86,0-5.87"/>
		<polyline style="fill:none;stroke:#231F20;stroke-width:6.9723;" points="456.34,307.94 456.34,278.57 456.34,241.03 
			456.34,203.35 456.34,165.8 456.34,128.12 456.34,90.57 456.34,66.62 456.34,66.48 		"/>
		<polyline style="fill:none;stroke:#231F20;stroke-width:6.9723;" points="427.49,314.43 427.49,278.57 427.49,241.03 
			427.49,203.35 427.49,165.8 427.49,128.12 427.49,90.57 427.49,60.81 		"/>
		<line style="fill:none;stroke:#231F20;stroke-width:6.9723;" x1="427.49" y1="316.25" x2="427.49" y2="314.43"/>
		<polyline style="fill:none;stroke:#231F20;stroke-width:6.9723;" points="398.75,314.44 398.75,278.58 398.75,241.03 
			398.75,203.35 398.75,165.8 398.75,128.12 398.75,90.57 398.75,60.38 		"/>
		<line style="fill:none;stroke:#231F20;stroke-width:6.9723;" x1="398.75" y1="316.25" x2="398.75" y2="314.44"/>
		<polyline style="fill:none;stroke:#231F20;stroke-width:6.9723;" points="369.91,305.28 369.91,278.58 369.91,241.03 
			369.91,203.35 369.91,165.8 369.91,128.12 369.91,90.57 369.91,67.36 		"/>
		<polyline style="fill:none;stroke:#231F20;stroke-width:6.9723;" points="369.91,316.25 369.91,311.74 369.91,305.28 		"/>
		<polyline style="fill:none;stroke:#231F20;stroke-width:6.9723;" points="341.06,287.85 341.06,287.77 341.06,278.58 
			341.06,241.03 341.06,203.35 341.06,165.8 341.06,128.12 341.06,90.57 341.06,90.1 341.06,86.95 		"/>
	</g>
</g>
<rect style="fill:none;" width="850.394" height="850.394"/>
</svg>
