<?xml version="1.0" encoding="iso-8859-1"?>
<!-- Generator: Adobe Illustrator 12.0.1, SVG Export Plug-In . SVG Version: 6.00 Build 51448)  -->
<!DOCTYPE svg PUBLIC "-//W3C//DTD SVG 1.1//EN" "http://www.w3.org/Graphics/SVG/1.1/DTD/svg11.dtd" [
	<!ENTITY ns_svg "http://www.w3.org/2000/svg">
	<!ENTITY ns_xlink "http://www.w3.org/1999/xlink">
]>
<svg  version="1.1" id="Layer_1" xmlns="&ns_svg;" xmlns:xlink="&ns_xlink;" width="850.394" height="850.394"
	 viewBox="0 0 850.394 850.394" style="overflow:visible;enable-background:new 0 0 850.394 850.394;" xml:space="preserve">
<g id="XMLID_279_">
	<g>
		<path style="fill:#FFF400;" d="M737.03,258.03c3.55,14.89,9.88,29.77,19.89,42.9c-5-4.61-11.77-8.83-19.45-12.05
			c-19.6-8.21-45.13-9.85-62.3,5.48l-0.01-0.01c2.83-3.15,5.35-5.89,7.899-8.44c10.351-10.34,12.96-30.22,21.591-62.95
			c8.54-32.38,8.989-36.88,8.989-36.88h27.891C741.53,186.08,732.53,239.14,737.03,258.03z"/>
		<path style="fill:#FFF400;" d="M70.56,503.28l6.97-11.431c0,0,135.72,67.4,253.24,60.2c117.52-7.189,229.65-35.38,310.6-116.33
			c80.95-80.94,95.22-109.33,96.1-146.83v-0.01c7.681,3.22,14.45,7.44,19.45,12.05c2.69,3.53,5.65,6.93,8.89,10.17
			c15.29,15.29,26.08,69.25,15.29,107.03c-10.79,37.771-40.47,81.851-84.54,125.92c-62.96,62.96-188.88,115.12-304.01,115.12
			c-69.25,0-102.99-6.74-151.55-19.34c-66.42-17.22-112.88-51.71-112.88-51.71s-35.07-33.28-51.26-65.66
			c-6.79-13.58-10.18-26.14-10.53-36.57h0.02L70.56,503.28z"/>
		<path style="fill:#FFF400;" d="M737.47,288.88v0.01c-0.88,37.5-15.149,65.89-96.1,146.83
			c-80.95,80.95-193.08,109.141-310.6,116.33c-117.52,7.2-253.24-60.2-253.24-60.2l23.19-38.02c17.41-1.97,41.08-1.97,72.37-1.97
			c44.98,0,96.24,16.64,148.41,16.64c52.16,0,130.41-3.6,186.18-35.08c55.761-31.48,93.09-61.61,124.12-92.64
			c23.38-23.38,34.76-36.8,43.36-46.43l0.01,0.01C692.34,279.03,717.87,280.67,737.47,288.88z"/>
		<path d="M101.14,453.14l-0.42,0.69c-2.09,0.229-4.09,0.5-6,0.79L101.14,453.14z"/>
		<path d="M100.72,453.83l-23.19,38.02l-6.97,11.431l-4.21-17.391l15-28.189l13.37-3.08C96.63,454.33,98.63,454.06,100.72,453.83z"
			/>
	</g>
	<g>
		<path style="fill:none;stroke:#000000;stroke-width:21.586;" d="M100.72,453.83c17.41-1.97,41.08-1.97,72.37-1.97
			c44.98,0,96.24,16.64,148.41,16.64c52.16,0,130.41-3.6,186.18-35.08c55.761-31.48,93.09-61.61,124.12-92.64
			c23.38-23.38,34.76-36.8,43.36-46.43c2.83-3.15,5.35-5.89,7.899-8.44c10.351-10.34,12.96-30.22,21.591-62.95
			c8.54-32.38,8.989-36.88,8.989-36.88h27.891c0,0-9,53.06-4.5,71.95c3.55,14.89,9.88,29.77,19.89,42.9
			c2.69,3.53,5.65,6.93,8.89,10.17c15.29,15.29,26.08,69.25,15.29,107.03c-10.79,37.771-40.47,81.851-84.54,125.92
			c-62.96,62.96-188.88,115.12-304.01,115.12c-69.25,0-102.99-6.74-151.55-19.34c-66.42-17.22-112.88-51.71-112.88-51.71
			s-35.07-33.28-51.26-65.66c-6.79-13.58-10.18-26.14-10.53-36.57c-0.49-14.43,4.84-24.79,15.02-28.189
			c3.87-1.29,8.31-2.29,13.37-3.08"/>
		<path style="fill:none;stroke:#000000;stroke-width:14.3907;" d="M77.53,491.85c0,0,135.72,67.4,253.24,60.2
			c117.52-7.189,229.65-35.38,310.6-116.33c80.95-80.94,95.22-109.33,96.1-146.83"/>
		<polygon style="fill:none;stroke:#000000;stroke-width:14.3907;" points="81.35,457.7 94.72,454.62 101.14,453.14 100.72,453.83 
			77.53,491.85 70.56,503.28 66.35,485.89 		"/>
		<path style="fill:none;stroke:#000000;stroke-width:21.586;" d="M675.17,294.36c17.17-15.33,42.7-13.69,62.3-5.48
			c7.681,3.22,14.45,7.44,19.45,12.05c0.1,0.08,0.2,0.18,0.3,0.27"/>
	</g>
</g>
<rect style="fill:none;" width="850.394" height="850.394"/>
</svg>
