<?xml version="1.0" encoding="iso-8859-1"?>
<!-- Generator: Adobe Illustrator 12.0.1, SVG Export Plug-In . SVG Version: 6.00 Build 51448)  -->
<!DOCTYPE svg PUBLIC "-//W3C//DTD SVG 1.1//EN" "http://www.w3.org/Graphics/SVG/1.1/DTD/svg11.dtd" [
	<!ENTITY ns_svg "http://www.w3.org/2000/svg">
	<!ENTITY ns_xlink "http://www.w3.org/1999/xlink">
]>
<svg  version="1.1" id="Layer_1" xmlns="&ns_svg;" xmlns:xlink="&ns_xlink;" width="850.394" height="850.394"
	 viewBox="0 0 850.394 850.394" style="overflow:visible;enable-background:new 0 0 850.394 850.394;" xml:space="preserve">
<g id="XMLID_1_">
	<g>
		<path style="fill:#9C5C25;" d="M503.51,195.96c-9.2-6.89-14.31-9.62-14.31-9.62c-0.13,0.09-0.26,0.18-0.391,0.27
			c-48.979,34.14-213.85,88.51-234.8,103.88c0,0-37.43,38.6-63.38,71.82c-9.32,11.93-17.16,23.17-21.25,31.67l-2.46-79.17
			c0-126.3,103.09-199.61,103.09-199.61c11.92-8.1,19.9-12.17,19.9-12.17c52.57-31.29,120.57-42.31,207.29-32.2
			c104.72,12.21,185.08,116.5,200.41,246.34c2.3,19.56-6.71,51.34-10.95,73.66c-6.061-0.52-11.67,0.29-16.76,2.1l-2.69,0.02
			c-0.12-0.57-0.25-1.14-0.39-1.7c-9.61-38.68-51.58-71.64-62.351-86.51C559.24,242.29,522.58,210.22,503.51,195.96z"/>
		<path style="fill:#FFEEC8;" d="M192.64,395.72c0.09-11.29,0.23-22.36,0.44-31.5l-2.45-1.91c25.95-33.22,63.38-71.82,63.38-71.82
			c20.95-15.37,185.82-69.74,234.8-103.88c1.971,2.86,11.171,8.81,14.7,9.35c19.07,14.26,55.73,46.33,100.96,108.78
			c10.771,14.87,52.74,47.83,62.351,86.51c0.01,0.57,0.029,1.14,0.04,1.7c0.58,22.84,0.83,36.39,0.83,55.71
			c0,35.05-5.53,69.51-14.921,102.24c-29.02,101.26-94.84,185.88-147.38,219.369c-25.81,12.461-45.479,10.681-75.319,10.681
			c-27.6,0-45.271,2.75-69.47-7.97c-56.72-31.79-123.58-116.841-152.98-219.61c-9.57-33.43-15.17-68.75-15.17-104.71
			C192.45,436.75,192.47,415.88,192.64,395.72z M440.58,609.29h-0.01c-0.351,0.06-0.7,0.12-1.07,0.18l2.32-0.16
			C441.39,609.31,440.98,609.3,440.58,609.29z M432.8,402.51v9.81c0,0,7.72,0.3,16.351,5.35c9.489,5.57,8.909,10.7,8.909,10.7
			l0.29-1.15c0.181,6.05,1.79,11.34,2.69,15.141c2.67,11.29,18.14,63.029,51.44,75.819c33.289,12.78,73.14,10.41,94.239-8.93
			c21.11-19.33,28.55-46.68,28.25-66.89c-0.16-10.69-0.069-19.88,0.061-26.17c0.109-5.61,0.239-8.92,0.239-8.92h13.08v-15.76
			c0,0-29.109-10.75-43.979-13.79c-0.97-0.19-1.87-0.35-2.7-0.48c-3.54-0.54-9.99-1.38-18.32-1.99
			c-6.899-2.42-14.05-3.93-23.119-5.74c-19.65-3.93-55.66,2.45-73.07,19.6c-12.92,6.52-20.33,13.59-24.4,20.51l0.37-1.46
			C449.74,402.21,444.68,402.51,432.8,402.51z M431.1,402.51c-11.89,0-16.939-0.3-30.33,5.65l-0.46,0.1
			c-4.56-7-12.68-14.12-26.58-20.62c-5-2.33-10.24-4.28-15.61-5.9c-16.82-6.98-37.06-9.34-50.74-7.22
			c-20.88-0.44-38.36,1.69-45.16,2.72c-0.78,0.12-1.69,0.26-2.7,0.42C242.92,380.29,198,388,198,388l2,18l28.63,1.27
			c0,0,0.13,3.31,0.24,8.92c0.12,6.29,0.21,15.48,0.05,26.15c-0.29,20.22,7.15,47.58,28.25,66.91c21.11,19.32,60.95,21.7,94.26,8.92
			c28.67-11.01,44.11-50.9,49.56-68.99c0.88-2.92,1.5-5.27,1.87-6.84c0.86-3.64,2.37-8.64,2.66-14.38l0.31,0.021
			c0.08-1.29,0.98-5.65,8.92-10.311c8.62-5.05,16.35-5.35,16.35-5.35V402.51z"/>
		<path style="fill:#FFEEC8;" d="M686.66,390.83c1.09,0.08,2.189,0.21,3.31,0.39c27.94,4.48,24.17,35.839,16.5,51.48
			c-18.66,38.069-10.12,52.08-12.489,81.13c-0.921,11.04-13.511,32.49-39.811,27.47l-1.4-0.399
			c9.391-32.73,14.921-67.19,14.921-102.24c0-19.32-0.25-32.87-0.83-55.71h0.35l2.69-0.02C674.99,391.12,680.6,390.31,686.66,390.83
			z"/>
		<path style="fill:#FFEEC8;" d="M207.62,553.37l-2.44,0.7c-26.31,5.02-38.9-16.431-39.8-27.471c-2.38-29.05,6.16-43.06-12.5-81.13
			c-7.67-15.649-11.44-47.01,16.5-51.49c7.33-1.17,14.06-0.43,20.07,1.72l3.19,0.02c-0.17,20.16-0.19,41.03-0.19,52.94
			C192.45,484.62,198.05,519.94,207.62,553.37z"/>
		<path style="fill:#231F20;" d="M634.97,416.19l-18.51-23.18l-12.11-15.18C631.1,385.27,634.97,416.19,634.97,416.19z"/>
		<path style="fill:#231F20;" d="M604.35,377.83l12.11,15.18l-1.19,0.95c-13.159-10.2-22.3-15.34-31.92-18.71
			c8.33,0.61,14.78,1.45,18.32,1.99c0.83,0.13,1.73,0.29,2.7,0.48L604.35,377.83z"/>
		<path style="fill:#231F20;" d="M635.27,407.27c0,0-0.13,3.31-0.239,8.92h-0.061c0,0-3.87-30.92-30.62-38.36l0.021-0.11
			c14.87,3.04,43.979,13.79,43.979,13.79v15.76H635.27z"/>
		<path style="fill:#231F20;" d="M547.88,428.19c5.43,0,9.84,3.92,9.84,8.779c0,4.851-4.41,8.78-9.84,8.78
			c-5.439,0-9.86-3.93-9.86-8.78C538.02,432.11,542.44,428.19,547.88,428.19z"/>
		<path style="fill:#231F20;" d="M557.72,436.97c0-4.859-4.41-8.779-9.84-8.779c-5.439,0-9.86,3.92-9.86,8.779
			c0,4.851,4.421,8.78,9.86,8.78C553.31,445.75,557.72,441.82,557.72,436.97z M549.2,424.36c9.2-0.2,17.819,1.8,25.77,5.38
			c0.53,1.87,0.33,3.67,0.33,7c0,14.38-12.229,26.05-27.27,26.05c-15.08,0-27.29-11.67-27.29-26.05c0-1.92-0.25-2.84-0.33-3.65
			C529.13,427.78,539.26,424.59,549.2,424.36z"/>
		<path style="fill:#231F20;" d="M520.41,433.09c0.08,0.811,0.33,1.73,0.33,3.65c0,14.38,12.21,26.05,27.29,26.05
			c15.04,0,27.27-11.67,27.27-26.05c0-3.33,0.2-5.13-0.33-7c-7.95-3.58-16.569-5.58-25.77-5.38
			C539.26,424.59,529.13,427.78,520.41,433.09z M487.16,389.11c0.97-0.49,1.979-0.97,3.02-1.46c30.19-14.1,69.351-14.16,93.17-12.4
			c9.62,3.37,18.761,8.51,31.92,18.71l1.19-0.95l18.51,23.18h0.061c-0.13,6.29-0.221,15.48-0.061,26.17
			c0.3,20.21-7.14,47.56-28.25,66.89c-21.1,19.34-60.95,21.71-94.239,8.93c-33.301-12.79-48.771-64.529-51.44-75.819
			c-0.9-3.801-2.51-9.091-2.69-15.141l4.41-17.6C466.83,402.7,474.24,395.63,487.16,389.11z"/>
		<path style="fill:#231F20;" d="M462.76,409.62l-4.41,17.6C458.18,421.8,459.15,415.77,462.76,409.62z"/>
		<path style="fill:#231F20;" d="M462.76,409.62c-3.609,6.15-4.58,12.18-4.41,17.6l-0.29,1.15c0,0,0.58-5.13-8.909-10.7
			c-8.631-5.05-16.351-5.35-16.351-5.35v-9.81c11.88,0,16.94-0.3,30.33,5.65L462.76,409.62z"/>
		<path style="fill:#231F20;" d="M400.99,449.18c-5.45,18.09-20.89,57.98-49.56,68.99c-33.31,12.78-73.15,10.4-94.26-8.92
			c-21.1-19.33-28.54-46.69-28.25-66.91c0.16-10.67,0.07-19.86-0.05-26.15h0.05c0,0,3.87-30.92,30.63-38.36l-0.03-0.17
			c1.01-0.16,1.92-0.3,2.7-0.42c6.8-1.03,24.28-3.16,45.16-2.72c16.02,0.34,34.03,2.19,50.74,7.22c5.37,1.62,10.61,3.57,15.61,5.9
			c13.9,6.5,22.02,13.62,26.58,20.62c4.48,6.91,5.51,13.71,5.21,19.7c-0.29,5.74-1.8,10.74-2.66,14.38
			C402.49,443.91,401.87,446.26,400.99,449.18z M332.25,437.04c0-4.86-4.41-8.79-9.85-8.79s-9.85,3.93-9.85,8.79
			c0,4.84,4.41,8.77,9.85,8.77S332.25,441.88,332.25,437.04z"/>
		<path style="fill:#231F20;" d="M322.4,428.25c5.44,0,9.85,3.93,9.85,8.79c0,4.84-4.41,8.77-9.85,8.77s-9.85-3.93-9.85-8.77
			C312.55,432.18,316.96,428.25,322.4,428.25z"/>
		<path style="fill:#231F20;" d="M259.55,377.83c-26.76,7.44-30.63,38.36-30.63,38.36h-0.05c-0.11-5.61-0.24-8.92-0.24-8.92L200,406
			l-2-18c0,0,44.92-7.71,61.52-10.34L259.55,377.83z"/>
	</g>
	<g>
		<path style="fill:none;stroke:#231F20;stroke-width:21;" d="M228.87,416.19c-0.11-5.61-0.24-8.92-0.24-8.92L200,406l-2-18
			c0,0,44.92-7.71,61.52-10.34c1.01-0.16,1.92-0.3,2.7-0.42c6.8-1.03,24.28-3.16,45.16-2.72c16.02,0.34,34.03,2.19,50.74,7.22
			c5.37,1.62,10.61,3.57,15.61,5.9c13.9,6.5,22.02,13.62,26.58,20.62c4.48,6.91,5.51,13.71,5.21,19.7
			c-0.29,5.74-1.8,10.74-2.66,14.38c-0.37,1.57-0.99,3.92-1.87,6.84c-5.45,18.09-20.89,57.98-49.56,68.99
			c-33.31,12.78-73.15,10.4-94.26-8.92c-21.1-19.33-28.54-46.69-28.25-66.91C229.08,431.67,228.99,422.48,228.87,416.19z"/>
		<path style="fill:none;stroke:#231F20;stroke-width:23.3826;" d="M228.92,416.19c0,0,3.87-30.92,30.63-38.36"/>
		<path style="fill:none;stroke:#231F20;stroke-width:23.3826;" d="M400.77,408.16c13.39-5.95,18.44-5.65,30.33-5.65v9.81
			c0,0-7.729,0.3-16.35,5.35c-7.94,4.66-8.84,9.021-8.92,10.311c-0.02,0.25,0,0.39,0,0.39"/>
		<path style="fill:none;stroke:#231F20;stroke-width:21;" d="M458.35,427.22c0.181,6.05,1.79,11.34,2.69,15.141
			c2.67,11.29,18.14,63.029,51.44,75.819c33.289,12.78,73.14,10.41,94.239-8.93c21.11-19.33,28.55-46.68,28.25-66.89
			c-0.16-10.69-0.069-19.88,0.061-26.17c0.109-5.61,0.239-8.92,0.239-8.92h13.08v-15.76c0,0-29.109-10.75-43.979-13.79
			c-0.97-0.19-1.87-0.35-2.7-0.48c-3.54-0.54-9.99-1.38-18.32-1.99c-23.819-1.76-62.979-1.7-93.17,12.4
			c-1.04,0.49-2.05,0.97-3.02,1.46c-12.92,6.52-20.33,13.59-24.4,20.51"/>
		<path style="fill:none;stroke:#231F20;stroke-width:21;" d="M634.97,416.19c0,0-3.87-30.92-30.62-38.36"/>
		<path style="fill:none;stroke:#231F20;stroke-width:21;" d="M463.13,408.16c-13.39-5.95-18.45-5.65-30.33-5.65v9.81
			c0,0,7.72,0.3,16.351,5.35c9.489,5.57,8.909,10.7,8.909,10.7"/>
		<path style="fill:none;stroke:#231F20;stroke-width:15.5884;stroke-linecap:square;stroke-miterlimit:10;" d="M264.71,449.27
			c14.26-17.25,33.62-30.43,56.61-29.939c19.01,0.44,38.73,11.7,47.92,27.97"/>
		<path style="fill:none;stroke:#231F20;stroke-width:15.5884;stroke-linecap:square;stroke-miterlimit:10;" d="M349.78,437.54
			c0,14.4-12.22,26.07-27.29,26.07c-15.06,0-27.29-11.67-27.29-26.07c0-3.56-0.22-5.38,0.47-7.39"/>
		<path style="fill:none;stroke:#231F20;stroke-width:15.5884;stroke-linecap:square;stroke-miterlimit:10;" d="M605.8,454.29
			c-8.54-10.34-18.93-19.21-30.83-24.55c-7.95-3.58-16.569-5.58-25.77-5.38c-9.94,0.23-20.07,3.42-28.79,8.73
			c-7.96,4.851-14.74,11.48-19.13,19.25"/>
		<path style="fill:none;stroke:#231F20;stroke-width:15.5884;stroke-linecap:square;stroke-miterlimit:10;" d="M520.4,432.94
			c0,0.05,0.01,0.1,0.01,0.149c0.08,0.811,0.33,1.73,0.33,3.65c0,14.38,12.21,26.05,27.29,26.05c15.04,0,27.27-11.67,27.27-26.05
			c0-3.33,0.2-5.13-0.33-7c-0.09-0.34-0.21-0.681-0.359-1.03"/>
		<path style="fill:none;stroke:#231F20;stroke-width:21;" d="M189.45,395.7c-6.01-2.15-12.74-2.89-20.07-1.72
			c-27.94,4.48-24.17,35.84-16.5,51.49c18.66,38.07,10.12,52.08,12.5,81.13c0.9,11.04,13.49,32.49,39.8,27.471"/>
		<path style="fill:none;stroke:#231F20;stroke-width:21;" d="M669.9,392.93c5.09-1.81,10.699-2.62,16.76-2.1
			c1.09,0.08,2.189,0.21,3.31,0.39c27.94,4.48,24.17,35.839,16.5,51.48c-18.66,38.069-10.12,52.08-12.489,81.13
			c-0.921,11.04-13.511,32.49-39.811,27.47"/>
		<path style="fill:none;stroke:#231F20;stroke-width:21;" d="M374.36,678.62c34.33,13.689,88.81,12.1,118.02-0.65"/>
		<path style="fill:none;stroke:#231F20;stroke-width:21;" d="M666.74,388.25c0.029,1.02,0.05,2.02,0.08,3
			c0.01,0.57,0.029,1.14,0.04,1.7c0.58,22.84,0.83,36.39,0.83,55.71c0,35.05-5.53,69.51-14.921,102.24
			c-29.02,101.26-94.84,185.88-147.38,219.369c-25.81,12.461-45.479,10.681-75.319,10.681c-27.6,0-45.271,2.75-69.47-7.97
			c-56.72-31.79-123.58-116.841-152.98-219.61c-9.57-33.43-15.17-68.75-15.17-104.71c0-11.91,0.02-32.78,0.19-52.94
			c0.09-11.29,0.23-22.36,0.44-31.5"/>
		<path style="fill:none;stroke:#231F20;stroke-width:14;" d="M440.58,609.29c12.96-2.43,10.65-10.12,24.59-6.74
			c12.04,2.92,24.811,8.931,27.8-9.899c2.07-12.94-7.66-14.65-12.83-25.061"/>
		<path style="fill:none;stroke:#231F20;stroke-width:14;" d="M399.85,447.85c0.39,0.431,0.78,0.881,1.14,1.33
			c20.2,24.391,13.73,78.551,4.25,107l-4.06,11.29c-5.18,10.391-14.91,12.08-12.84,25.05c2.99,18.801,15.77,12.811,27.79,9.9
			c13.9-3.36,10.74,6.311,24.44,6.87h0.01c0.4,0.01,0.81,0.02,1.24,0.02l-2.32,0.16c0.37-0.06,0.72-0.12,1.07-0.18"/>
		<path style="fill:none;stroke:#231F20;stroke-width:7.7942;" d="M332.25,437.04c0,4.84-4.41,8.77-9.85,8.77s-9.85-3.93-9.85-8.77
			c0-4.86,4.41-8.79,9.85-8.79S332.25,432.18,332.25,437.04z"/>
		<path style="fill:none;stroke:#231F20;stroke-width:7.7942;" d="M557.72,436.97c0,4.851-4.41,8.78-9.84,8.78
			c-5.439,0-9.86-3.93-9.86-8.78c0-4.859,4.421-8.779,9.86-8.779C553.31,428.19,557.72,432.11,557.72,436.97z"/>
		<path style="fill:none;stroke:#231F20;stroke-width:21;" d="M385.53,404.36c-4.76-10.02-15.18-17.54-27.41-22.62
			c-16.82-6.98-37.06-9.34-50.74-7.22c-0.73,0.11-1.43,0.23-2.12,0.37c-21.68,4.31-32.43,6.92-55.04,24.45"/>
		<path style="fill:none;stroke:#231F20;stroke-width:21;" d="M479.96,399c1.72-3.62,4.18-6.92,7.2-9.89
			c17.41-17.15,53.42-23.53,73.07-19.6c9.069,1.81,16.22,3.32,23.119,5.74c9.62,3.37,18.761,8.51,31.92,18.71"/>
		<path style="fill:none;stroke:#231F20;stroke-width:21;" d="M685.75,395.92c0.27-1.63,0.57-3.33,0.91-5.09
			c4.24-22.32,13.25-54.1,10.95-73.66C682.28,187.33,601.92,83.04,497.2,70.83c-86.72-10.11-154.72,0.91-207.29,32.2
			c0,0-7.98,4.07-19.9,12.17c0,0-103.09,73.31-103.09,199.61l2.46,79.17c4.09-8.5,11.93-19.74,21.25-31.67
			c25.95-33.22,63.38-71.82,63.38-71.82c20.95-15.37,185.82-69.74,234.8-103.88c0.131-0.09,0.261-0.18,0.391-0.27
			c0,0,5.109,2.73,14.31,9.62c19.07,14.26,55.73,46.33,100.96,108.78c10.771,14.87,52.74,47.83,62.351,86.51
			c0.14,0.56,0.27,1.13,0.39,1.7c0.79,3.51,1.3,7.07,1.49,10.66"/>
		<path style="fill:none;stroke:#231F20;stroke-width:21;" d="M504,196c-0.15,0-0.31-0.01-0.49-0.04
			c-3.529-0.54-12.729-6.49-14.7-9.35c-0.14-0.21-0.25-0.4-0.31-0.57c14.98-14.6,26.83-38.43,26.83-62.6"/>
	</g>
</g>
<rect style="fill:none;" width="850.394" height="850.394"/>
</svg>
