<?xml version="1.0" encoding="iso-8859-1"?>
<!-- Generator: Adobe Illustrator 12.0.1, SVG Export Plug-In . SVG Version: 6.00 Build 51448)  -->
<!DOCTYPE svg PUBLIC "-//W3C//DTD SVG 1.1//EN" "http://www.w3.org/Graphics/SVG/1.1/DTD/svg11.dtd" [
	<!ENTITY ns_svg "http://www.w3.org/2000/svg">
	<!ENTITY ns_xlink "http://www.w3.org/1999/xlink">
]>
<svg  version="1.1" id="Layer_1" xmlns="&ns_svg;" xmlns:xlink="&ns_xlink;" width="850.394" height="850.394"
	 viewBox="0 0 850.394 850.394" style="overflow:visible;enable-background:new 0 0 850.394 850.394;" xml:space="preserve">
<g id="XMLID_2_">
	<g>
		<polygon style="fill:#FFF5B4;" points="229.31,246.08 229.31,601.13 114.37,734.37 99.1,719.1 99.1,120.11 113.19,111.5 		"/>
		<polygon style="fill:#FFF5B4;" points="229.31,246.08 229.31,245.41 375.93,245.41 366.75,278.29 481.77,278.29 472.59,245.41 
			618.13,245.41 618.13,246.79 618.13,601.05 618.13,601.13 229.31,601.13 		"/>
		<polygon style="fill:#FFF5B4;" points="750.15,117.12 750.15,726.7 732.49,733.43 618.27,601.05 618.13,601.05 618.13,246.79 
			618.95,246.79 736.42,110.62 		"/>
		<polygon style="fill:#F6CC4B;" points="618.27,601.05 732.49,733.43 710.82,741.69 423.72,741.77 107.98,741.77 114.37,734.37 
			229.31,601.13 618.13,601.13 618.13,601.05 		"/>
		<polygon style="fill:#FFFFFF;" points="736.42,110.62 618.95,246.79 618.13,246.79 618.13,245.41 472.59,245.41 459.71,199.3 
			423.84,199.3 388.81,199.3 375.93,245.41 229.31,245.41 229.31,246.08 113.19,111.5 121.8,106.24 424.54,106.15 726.98,106.15 		
			"/>
		<polygon style="fill:#FBED24;" points="472.59,245.41 481.77,278.29 366.75,278.29 375.93,245.41 		"/>
		<polygon style="fill:#FBED24;" points="423.84,199.3 459.71,199.3 472.59,245.41 375.93,245.41 388.81,199.3 		"/>
	</g>
	<g>
		<polyline style="fill:none;stroke:#231F20;stroke-width:18.7605;" points="472.59,245.41 618.13,245.41 618.13,246.79 
			618.13,601.05 618.13,601.13 229.31,601.13 229.31,246.08 229.31,245.41 375.93,245.41 		"/>
		<polyline style="fill:none;stroke:#231F20;stroke-width:18.7605;" points="618.27,601.05 732.49,733.43 739.6,741.68 
			710.82,741.69 423.72,741.77 107.98,741.77 114.37,734.37 229.31,601.13 		"/>
		<polyline style="fill:none;stroke:#231F20;stroke-width:18.7605;" points="229.99,246.87 229.31,246.08 113.19,111.5 
			108.65,106.24 121.8,106.24 424.54,106.15 726.98,106.15 740.28,106.15 736.42,110.62 618.95,246.79 		"/>
		<polyline style="fill:none;stroke:#231F20;stroke-width:18.7605;" points="99.1,98.05 99.1,120.11 99.1,719.1 99.1,749.96 		"/>
		<polyline style="fill:none;stroke:#231F20;stroke-width:18.7605;" points="750.15,97.88 750.15,117.12 750.15,726.7 
			750.15,749.79 		"/>
		<line style="fill:none;stroke:#231F20;stroke-width:18.7605;" x1="423.84" y1="147.2" x2="423.84" y2="199.3"/>
		<polygon style="fill:none;stroke:#231F20;stroke-width:18.7605;" points="375.93,245.41 366.75,278.29 481.77,278.29 
			472.59,245.41 459.71,199.3 423.84,199.3 388.81,199.3 		"/>
		<line style="fill:none;stroke:#231F20;stroke-width:6.2535;" x1="422.8" y1="349.69" x2="422.8" y2="492.65"/>
		<line style="fill:none;stroke:#231F20;stroke-width:6.2535;" x1="357.14" y1="304.06" x2="272.2" y2="356.18"/>
		<line style="fill:none;stroke:#231F20;stroke-width:6.2535;" x1="380.59" y1="338.98" x2="312.32" y2="446.85"/>
		<line style="fill:none;stroke:#231F20;stroke-width:6.2535;" x1="496.28" y1="302.5" x2="581.23" y2="354.61"/>
		<line style="fill:none;stroke:#231F20;stroke-width:6.2535;" x1="472.83" y1="337.42" x2="541.1" y2="445.29"/>
	</g>
</g>
<rect style="fill:none;" width="850.394" height="850.394"/>
</svg>
