<?xml version="1.0" encoding="iso-8859-1"?>
<!-- Generator: Adobe Illustrator 12.0.1, SVG Export Plug-In . SVG Version: 6.00 Build 51448)  -->
<!DOCTYPE svg PUBLIC "-//W3C//DTD SVG 1.1//EN" "http://www.w3.org/Graphics/SVG/1.1/DTD/svg11.dtd" [
	<!ENTITY ns_svg "http://www.w3.org/2000/svg">
	<!ENTITY ns_xlink "http://www.w3.org/1999/xlink">
]>
<svg  version="1.1" id="Layer_1" xmlns="&ns_svg;" xmlns:xlink="&ns_xlink;" width="850.394" height="850.394"
	 viewBox="0 0 850.394 850.394" style="overflow:visible;enable-background:new 0 0 850.394 850.394;" xml:space="preserve">
<g>
	<g id="XMLID_3_">
		<g>
			<path style="fill:#FFF400;" d="M327.19,204.29c9.08,3.56,15.65,14.13,12.73,23.99c-3.7,0-12.06-1.05-19.96-3.38l0.11-0.39
				c0.72,0.21,1.47,0.32,2.24,0.32c4.95,0,8.95-4.52,8.95-10.11c0-4.53-2.64-8.37-6.29-9.66l0.38-1.37
				C326.05,203.88,326.66,204.08,327.19,204.29z"/>
			<path style="fill:#FFF400;" d="M304.14,206.15c3.33-5.23,15.12-4.19,21.21-2.46l-0.38,1.37c-0.84-0.29-1.73-0.45-2.66-0.45
				c-4.94,0-8.94,4.53-8.94,10.11c0,4.72,2.85,8.67,6.7,9.79l-0.11,0.39C308.57,221.54,298.15,215.52,304.14,206.15z"/>
			<path style="fill:#FFF400;" d="M408.73,213.33c6.01-0.75,13.2-0.34,15.71,3.56c5.81,9.1-3.83,15.05-14.82,18.46l-0.25-2.77
				c4.69-0.29,8.42-4.48,8.42-9.62c0-5.32-4.01-9.63-8.95-9.63C408.8,213.33,408.77,213.33,408.73,213.33z"/>
			<path style="fill:#FFF400;" d="M408.84,232.6c0.18,0,0.36-0.01,0.53-0.02l0.25,2.77c-8.18,2.54-17.11,3.68-20.96,3.68
				c-1.3-4.34-0.76-8.82,1.03-12.77c2.28-5.04,6.59-9.23,11.69-11.22c1.23-0.49,2.99-0.97,5-1.34c-3.74,1.15-6.49,4.86-6.49,9.26
				C399.89,228.29,403.9,232.6,408.84,232.6z"/>
			<path style="fill:#F6CC4B;" d="M361.84,279.54c5.18,2.44,15.69-3.5,15.89-11.91l-1.58-2.37c-8.04-2.74-23.8-3.96-21.43,3.18
				C357.59,277.02,358.48,277.94,361.84,279.54z M389.69,226.26c-1.79,3.95-2.33,8.43-1.03,12.77c3.85,0,12.78-1.14,20.96-3.68
				c10.99-3.41,20.63-9.36,14.82-18.46c-2.51-3.9-9.7-4.31-15.71-3.56c-0.81,0.01-1.6,0.14-2.35,0.37c-2.01,0.37-3.77,0.85-5,1.34
				C396.28,217.03,391.97,221.22,389.69,226.26z M305.31,285.84c-5.75-4.41-11.77-8.5-18.67-11.44c-1.92-0.82-4.22-1.69-6.77-2.65
				c-14.75-5.53-37.96-13.88-46.46-31.36c-1.15-5.1-2.35-10.78-3.49-17.42c-0.18-1.08-0.37-2.19-0.55-3.32
				c-5.26-32.94,22.48-52.24,22.48-82.67s12.43-67.79,17.3-72.62c4.83-4.85,61.54,61.56,61.54,61.56s52.09-6.23,74.66,8.29
				c17.29,11.12,74.74-38.74,74.74-38.74s5.55,22.14-8.27,53.96c-13.851,31.82-13.851,44.26-13.851,44.26s6.96,25.32,5.681,44.16
				c-0.48,7.03-2.11,13.15-5.681,16.72c-2.2,2.2-4,4.93-5.39,8.01c-3.34,3.34-8,7.64-13.65,12.31
				c-5.89,4.87-12.85,10.15-20.479,15.17c-24.79,16.27-56.72,29.76-82.48,17.56C324.46,302.17,315.29,293.5,305.31,285.84z
				 M339.92,228.28c2.92-9.86-3.65-20.43-12.73-23.99c-0.53-0.21-1.14-0.41-1.84-0.6c-6.09-1.73-17.88-2.77-21.21,2.46
				c-5.99,9.37,4.43,15.39,15.82,18.75C327.86,227.23,336.22,228.28,339.92,228.28z"/>
			<path style="fill:#F6CC4B;" d="M279.87,271.75c2.55,0.96,4.85,1.83,6.77,2.65c6.9,2.94,12.92,7.03,18.67,11.44
				c9.98,7.66,19.15,16.33,30.66,21.78c25.76,12.2,57.69-1.29,82.48-17.56c7.63-5.02,14.59-10.3,20.479-15.17
				c3.44,1.26,6.79,2.77,10.011,4.52c-0.421,12.74,3.59,26.44,11.779,34.64c4.34,4.34,14.261,8.4,27.19,14.65
				c30.33,14.65,77.18,41.35,107.02,111.92c0,0,22.13,51.89,22.13,152.87c0,0,0.71,60.649,20.73,70.06
				c22.16,10.42,41.61,53.76,18.26,86.73c-31.34,44.26-85.35,35.26-168.35,36.17c-34.681,0.399-150.61-0.72-205.41-12.311
				c-8.66-1.83-15.17-4.55-19.73-7.75c-44.16,3.08-41.12-2.689-45.39-10.89c-8-15.37,8.37-41.67,22.23-41.67
				c13.82,0,13.74-34.66,13.74-34.66S247.7,534,247.7,486.97c0-47.04-8.3-56.729-23.52-102.37
				c-15.22-45.65,15.22-89.92,15.22-107.91c0-12.65-2.8-22.22-5.99-36.3C241.91,257.87,265.12,266.22,279.87,271.75z"/>
			<path d="M408.84,213.33c4.94,0,8.95,4.31,8.95,9.63c0,5.14-3.73,9.33-8.42,9.62c-0.17,0.01-0.35,0.02-0.53,0.02
				c-4.94,0-8.95-4.31-8.95-9.64c0-4.4,2.75-8.11,6.49-9.26c0.75-0.14,1.54-0.27,2.35-0.37
				C408.77,213.33,408.8,213.33,408.84,213.33z"/>
			<path style="fill:#231F20;" d="M408.73,213.33c-0.81,0.1-1.6,0.23-2.35,0.37C407.13,213.47,407.92,213.34,408.73,213.33z"/>
			<path style="fill:#231F20;" d="M376.15,265.26l1.58,2.37c-0.2,8.41-10.71,14.35-15.89,11.91c-3.36-1.6-4.25-2.52-7.12-11.1
				C352.35,261.3,368.11,262.52,376.15,265.26z"/>
			<path d="M324.97,205.06c3.65,1.29,6.29,5.13,6.29,9.66c0,5.59-4,10.11-8.95,10.11c-0.77,0-1.52-0.11-2.24-0.32
				c-3.85-1.12-6.7-5.07-6.7-9.79c0-5.58,4-10.11,8.94-10.11C323.24,204.61,324.13,204.77,324.97,205.06z"/>
		</g>
		<g>
			<path style="fill:none;stroke:#231F20;stroke-width:21;" d="M623.28,714.48c-10.37,10.38-150.101,17.369-180.54,17.369
				c-16.08,0-47.08,0.87-76.16,1.221c-22.7,0.279-44.23,0.26-56.62-0.74c-1.78-0.14-3.36-0.3-4.74-0.48
				c-42.9-5.72-63.98,19.631-42.66,34.54c4.56,3.2,11.07,5.92,19.73,7.75c54.8,11.591,170.729,12.71,205.41,12.311
				c83-0.91,137.01,8.09,168.35-36.17c23.351-32.971,3.9-76.311-18.26-86.73c-20.021-9.41-20.73-70.06-20.73-70.06
				c0-100.98-22.13-152.87-22.13-152.87c-29.84-70.57-76.689-97.27-107.02-111.92c-12.93-6.25-22.851-10.31-27.19-14.65
				c-8.189-8.2-12.2-21.9-11.779-34.64c0.199-6.06,1.409-11.9,3.64-16.83c1.39-3.08,3.189-5.81,5.39-8.01
				c3.57-3.57,5.2-9.69,5.681-16.72c1.279-18.84-5.681-44.16-5.681-44.16s0-12.44,13.851-44.26c13.819-31.82,8.27-53.96,8.27-53.96
				s-57.45,49.86-74.74,38.74c-22.57-14.52-74.66-8.29-74.66-8.29s-56.71-66.41-61.54-61.56c-4.87,4.83-17.3,42.19-17.3,72.62
				s-27.74,49.73-22.48,82.67c0.18,1.13,0.37,2.24,0.55,3.32c1.14,6.64,2.34,12.32,3.49,17.42c3.19,14.08,5.99,23.65,5.99,36.3
				c0,17.99-30.44,62.26-15.22,107.91c15.22,45.64,23.52,55.33,23.52,102.37c0,47.03,5.44,192.2,5.44,192.2s0.08,34.66-13.74,34.66
				c-13.86,0-30.23,26.3-22.23,41.67c4.27,8.2,1.23,13.97,45.39,10.89c0.01,0,0.03,0,0.04,0"/>
			<path style="fill:none;stroke:#231F20;stroke-width:21;" d="M474.57,495.27c0,0-34.59,65.021-53.95,107.91
				c-19.37,42.87-54.04,129.891-54.04,129.891"/>
			<line style="fill:none;stroke:#231F20;stroke-width:21;" x1="327.31" y1="592.85" x2="309.96" y2="732.33"/>
			<path style="fill:none;stroke:#231F20;stroke-width:21;" d="M565.86,563.05c-89.65-7.569-153.15,93.71-154.15,168.92"/>
			<path style="fill:none;stroke:#231F20;stroke-width:7;" d="M319.96,224.9c7.9,2.33,16.26,3.38,19.96,3.38
				c2.92-9.86-3.65-20.43-12.73-23.99c-0.53-0.21-1.14-0.41-1.84-0.6c-6.09-1.73-17.88-2.77-21.21,2.46
				C298.15,215.52,308.57,221.54,319.96,224.9z"/>
			<path style="fill:none;stroke:#231F20;stroke-width:7;" d="M408.73,213.33c6.01-0.75,13.2-0.34,15.71,3.56
				c5.81,9.1-3.83,15.05-14.82,18.46c-8.18,2.54-17.11,3.68-20.96,3.68c-1.3-4.34-0.76-8.82,1.03-12.77
				c2.28-5.04,6.59-9.23,11.69-11.22c1.23-0.49,2.99-0.97,5-1.34"/>
			<path style="fill:none;stroke:#231F20;stroke-width:7;" d="M376.15,265.26c-8.04-2.74-23.8-3.96-21.43,3.18
				c2.87,8.58,3.76,9.5,7.12,11.1c5.18,2.44,15.69-3.5,15.89-11.91L376.15,265.26z"/>
			<path style="fill:none;stroke:#231F20;stroke-width:21;" d="M452.65,262.51c-0.021,0.02-0.051,0.05-0.07,0.07
				c-3.34,3.34-8,7.64-13.65,12.31c-5.89,4.87-12.85,10.15-20.479,15.17c-24.79,16.27-56.72,29.76-82.48,17.56
				c-11.51-5.45-20.68-14.12-30.66-21.78c-5.75-4.41-11.77-8.5-18.67-11.44c-1.92-0.82-4.22-1.69-6.77-2.65
				c-14.75-5.53-37.96-13.88-46.46-31.36c-1.89-3.87-3.05-8.19-3.24-13.03"/>
			<path style="fill:none;stroke:#231F20;stroke-width:7;" d="M324.97,205.06c3.65,1.29,6.29,5.13,6.29,9.66
				c0,5.59-4,10.11-8.95,10.11c-0.77,0-1.52-0.11-2.24-0.32c-3.85-1.12-6.7-5.07-6.7-9.79c0-5.58,4-10.11,8.94-10.11
				C323.24,204.61,324.13,204.77,324.97,205.06z"/>
			<path style="fill:none;stroke:#231F20;stroke-width:7;" d="M408.73,213.33c0.04,0,0.07,0,0.11,0c4.94,0,8.95,4.31,8.95,9.63
				c0,5.14-3.73,9.33-8.42,9.62c-0.17,0.01-0.35,0.02-0.53,0.02c-4.94,0-8.95-4.31-8.95-9.64c0-4.4,2.75-8.11,6.49-9.26
				C407.13,213.47,407.92,213.34,408.73,213.33z"/>
			<path style="fill:none;stroke:#231F20;stroke-width:7;" d="M389.89,225.98c-0.07,0.09-0.13,0.18-0.2,0.28
				c-11.16,15.65-12.13,46.36-12.12,43.72"/>
			<path style="fill:none;stroke:#231F20;stroke-width:7;stroke-linecap:round;stroke-linejoin:round;" d="M391.72,266.37
				c11.03-2.81,21.87-11.22,32.65-15.42c12.84-5.01,25.95-9.55,39.28-13.1c1.27-0.34,2.55-0.68,3.83-1
				c25.789-6.49,50.359-7.42,76.21-0.6"/>
			<path style="fill:none;stroke:#231F20;stroke-width:7;stroke-linecap:round;stroke-linejoin:round;" d="M399.75,270.39
				c13.35-1.52,26.87-0.04,39.18,4.5c3.44,1.26,6.79,2.77,10.011,4.52c7.59,4.11,14.489,9.56,20.29,16.36
				c8.739,10.25,14.17,21.37,18.68,32.93c4.439,11.31,7.99,23.04,12.92,34.75"/>
			<path style="fill:none;stroke:#231F20;stroke-width:7;stroke-linecap:round;stroke-linejoin:round;" d="M387.7,276.42
				c10.02,3.64,21.02,7.93,30.75,13.64c4.91,2.87,9.5,6.11,13.479,9.81c10.761,10,17.25,22.49,23.391,35.46"/>
			<path style="fill:none;stroke:#231F20;stroke-width:7;stroke-linecap:round;stroke-linejoin:round;" d="M339.03,257.63
				c-11.04-2.82-21.88-11.22-32.65-15.43c-14.07-5.49-28.46-10.4-43.11-14.09c-11.28-2.85-22.32-4.62-33.35-5.14
				c-14.18-0.69-28.32,0.7-42.86,4.53"/>
			<path style="fill:none;stroke:#231F20;stroke-width:7;stroke-linecap:round;stroke-linejoin:round;" d="M330.99,261.65
				c-17.83-2.03-35.98,1.29-51.12,10.1c-6.83,3.97-13.05,9.06-18.35,15.28c-17.31,20.28-21.65,44.02-31.61,67.67"/>
			<path style="fill:none;stroke:#231F20;stroke-width:7;stroke-linecap:round;stroke-linejoin:round;" d="M343.04,267.67
				c-12.51,4.55-26.53,10.1-37.73,18.17c-2.3,1.64-4.48,3.4-6.5,5.28c-10.76,10-17.24,22.5-23.38,35.46"/>
		</g>
	</g>
</g>
<rect style="fill:none;" width="850.394" height="850.394"/>
</svg>
