<?xml version="1.0" encoding="iso-8859-1"?>
<!-- Generator: Adobe Illustrator 12.0.1, SVG Export Plug-In . SVG Version: 6.00 Build 51448)  -->
<!DOCTYPE svg PUBLIC "-//W3C//DTD SVG 1.1//EN" "http://www.w3.org/Graphics/SVG/1.1/DTD/svg11.dtd" [
	<!ENTITY ns_svg "http://www.w3.org/2000/svg">
	<!ENTITY ns_xlink "http://www.w3.org/1999/xlink">
]>
<svg  version="1.1" id="Layer_1" xmlns="&ns_svg;" xmlns:xlink="&ns_xlink;" width="850.394" height="850.394"
	 viewBox="0 0 850.394 850.394" style="overflow:visible;enable-background:new 0 0 850.394 850.394;" xml:space="preserve">
<g id="XMLID_4_">
	<g>
		<path style="fill:#A3D9FF;" d="M653.21,112.83v633.34H192.3V112.83H653.21z M599.47,609.21c7.771-7.68,12.55-18.07,12.55-29.5
			c0-23.67-20.47-42.85-45.71-42.85c-25.25,0-45.71,19.18-45.71,42.85c0,11.86,5.141,22.59,13.44,30.35v0.011V712.56l32.27-38.569
			l33.57,33.569V609.61L599.47,609.21z"/>
		<path style="fill:#0B00EA;" d="M675.59,91.28v676.44H169.91V91.28H675.59z M653.21,746.17V112.83H192.3v633.34H653.21z"/>
		<path style="fill:#FFF400;" d="M599.88,609.61v97.949l-33.57-33.569l-32.27,38.569V610.07c8.27,7.72,19.67,12.5,32.27,12.5
			c13.051,0,24.83-5.13,33.16-13.36L599.88,609.61z"/>
		<path style="fill:#FFF400;" d="M612.02,579.71c0,11.43-4.779,21.82-12.55,29.5c-8.33,8.23-20.109,13.36-33.16,13.36
			c-12.6,0-24-4.78-32.27-12.5v-0.011c-8.3-7.76-13.44-18.489-13.44-30.35c0-23.67,20.46-42.85,45.71-42.85
			C591.55,536.86,612.02,556.04,612.02,579.71z"/>
	</g>
	<g>
		<rect x="192.3" y="112.83" style="fill:none;stroke:#231F20;stroke-width:14;" width="460.91" height="633.34"/>
		<rect x="169.91" y="91.28" style="fill:none;stroke:#231F20;stroke-width:14;" width="505.68" height="676.44"/>
		<path style="fill:none;stroke:#231F20;stroke-width:21;" d="M534.04,610.06c-8.3-7.76-13.44-18.489-13.44-30.35
			c0-23.67,20.46-42.85,45.71-42.85c25.24,0,45.71,19.18,45.71,42.85c0,11.43-4.779,21.82-12.55,29.5
			c-8.33,8.23-20.109,13.36-33.16,13.36c-12.6,0-24-4.78-32.27-12.5"/>
		<polyline style="fill:none;stroke:#231F20;stroke-width:21;" points="534.04,610.06 534.04,610.07 534.04,712.56 566.31,673.99 
			599.88,707.56 599.88,609.61 		"/>
		<line style="fill:none;stroke:#231F20;stroke-width:21;" x1="237.89" y1="269.51" x2="609.27" y2="269.51"/>
		<line style="fill:none;stroke:#231F20;stroke-width:21;" x1="237.89" y1="310.13" x2="609.27" y2="310.13"/>
		<line style="fill:none;stroke:#231F20;stroke-width:21;" x1="237.89" y1="352.13" x2="609.27" y2="352.13"/>
		<line style="fill:none;stroke:#231F20;stroke-width:21;" x1="237.89" y1="396.06" x2="609.27" y2="396.06"/>
		<line style="fill:none;stroke:#231F20;stroke-width:21;" x1="237.89" y1="436.68" x2="609.27" y2="436.68"/>
		<line style="fill:none;stroke:#231F20;stroke-width:21;" x1="237.89" y1="478.69" x2="609.27" y2="478.69"/>
		<line style="fill:none;stroke:#231F20;stroke-width:21;" x1="299.23" y1="200.7" x2="545.44" y2="200.7"/>
		<line style="fill:none;stroke:#231F20;stroke-width:21;" x1="237.89" y1="565.45" x2="397.88" y2="565.45"/>
	</g>
</g>
<rect style="fill:none;" width="850.394" height="850.394"/>
</svg>
