<?xml version="1.0" encoding="iso-8859-1"?>
<!-- Generator: Adobe Illustrator 12.0.1, SVG Export Plug-In . SVG Version: 6.00 Build 51448)  -->
<!DOCTYPE svg PUBLIC "-//W3C//DTD SVG 1.1//EN" "http://www.w3.org/Graphics/SVG/1.1/DTD/svg11.dtd" [
	<!ENTITY ns_svg "http://www.w3.org/2000/svg">
	<!ENTITY ns_xlink "http://www.w3.org/1999/xlink">
]>
<svg  version="1.1" id="Layer_1" xmlns="&ns_svg;" xmlns:xlink="&ns_xlink;" width="850.394" height="850.394"
	 viewBox="0 0 850.394 850.394" style="overflow:visible;enable-background:new 0 0 850.394 850.394;" xml:space="preserve">
<g>
	<g id="XMLID_183_">
		<g>
			<path style="fill:#FFEEC8;" d="M516.85,394.43c8.5,8.49,22.891,22.24,26.96,17.86c8.12-8.72-12.239-18.6-24.75-18.16
				c-0.26,0.01-0.489-0.05-0.67-0.16L516.85,394.43z M193.35,299.61c-6.88-9.8-18.87-26.16-23.68-22.52
				c-9.5,7.19,8.85,20.43,21.26,22.14c0.43,0.06,0.71,0.27,0.88,0.6L193.35,299.61z M78.95,278.95c-1.01-9.35,3.02-19.21,18.3-27
				c1.37-0.7,2.88-1.44,4.52-2.21c39.56-18.76,153.04-58.78,153.04-58.78s33.88-11.86,69.46,10.17
				c35.58,22.02,448.96,349,448.96,349L536.04,675.5L97.25,309.55C97.25,309.55,80.67,295,78.95,278.95z M542.15,594.61l0.14-1.99
				c-10.55,5.21-29.85,15.04-26.88,20.53c5.67,10.47,21.53-5.681,25.1-17.67C540.72,594.77,541.32,594.55,542.15,594.61z"/>
			<path style="fill:#EFFFD7;" d="M536.04,675.5l-0.521,1.22L78.95,484.85V278.95c1.72,16.05,18.3,30.6,18.3,30.6L536.04,675.5z"/>
		</g>
		<g>
			<path style="fill:none;stroke:#009CA1;stroke-width:13.5536;" d="M300.52,342.23c-8.4-22.33-11.17-24.12-33.63-18.18
				c-7.99,2.12-6.54-8.47-12.66-11.23c-8.5-3.82-13.29-2.58-22.76,0.24c-16.06,4.79-24.78,12.63-35.64,2.23
				c-1.46-1.4-2.96-3.14-4.52-5.25c-1.34-1.81,1.59-8.19,0.5-10.21c-0.17-0.33-0.45-0.54-0.88-0.6
				c-12.41-1.71-30.76-14.95-21.26-22.14c4.81-3.64,16.8,12.72,23.68,22.52c2.43,3.46,4.23,6.1,4.84,6.75
				c11.73,12.4,20.32,0.09,32.04-4.69c23.28-9.51,19.68,6.59,36.02,11.07c14.06,3.85,21.42-12.01,23.61-22.89
				c4.77-9.71,12.82-2.91,15.28-1.41"/>
			<path style="fill:none;stroke:#009CA1;stroke-width:13.5536;" d="M193.99,310.96c0.76,1.32,1.38,2.78,1.84,4.33
				c2.56,8.42,0.78,19.59-5.66,26.18"/>
			<path style="fill:none;stroke:#009CA1;stroke-width:13.5536;" d="M403.7,370.64c12.12,20.55,15.15,21.84,36.25,12.12
				c7.51-3.46,7.899,7.22,14.42,8.88c9.02,2.31,13.52,0.26,22.38-4.15c15-7.49,22.24-16.72,34.73-8.31
				c1.68,1.12,3.449,2.56,5.34,4.37c1.739,1.64-0.38,9.2,1.569,10.42c0.181,0.11,0.41,0.17,0.67,0.16
				c12.511-0.44,32.87,9.44,24.75,18.16c-4.069,4.38-18.46-9.37-26.96-17.86c-3.119-3.11-5.439-5.51-6.18-6.06
				c-13.68-10.21-20.02,3.4-30.74,10.13c-21.3,13.38-20.529-3.11-37.39-4.71c-14.521-1.37-19.04,15.52-19.32,26.62
				c-3.03,10.38-12.13,5.07-14.82,4.01"/>
			<path style="fill:none;stroke:#009CA1;stroke-width:13.5536;" d="M514.03,383.1c-0.971-1.16-1.83-2.48-2.55-3.92
				c-3.98-7.84-4.171-19.17,1.05-26.79"/>
			<path style="fill:none;stroke:#009CA1;stroke-width:13.5536;" d="M599.56,493.63c-23.34,4.93-25.529,7.39-23.05,30.5
				c0.891,8.22-9.35,5.19-13.01,10.83c-5.06,7.81-4.56,12.73-3.2,22.53c2.3,16.609,8.76,26.41-3.2,35.569
				c-1.6,1.23-3.529,2.45-5.85,3.671c-1.75,0.92-6.52-1.961-9.1-2.12c-0.83-0.061-1.431,0.159-1.641,0.87
				c-3.569,11.989-19.43,28.14-25.1,17.67c-2.97-5.49,16.33-15.32,26.88-20.53c3.27-1.62,5.69-2.79,6.36-3.25
				c14.029-9.72,3.159-20.07,0.199-32.38c-5.88-24.46,9.49-18.46,16.391-33.931c5.93-13.329-8.641-22.989-19.07-26.8
				c-8.87-6.189-0.939-13.109,0.92-15.319"/>
			<path style="fill:none;stroke:#009CA1;stroke-width:13.5536;" d="M552.56,594.22c1.421-0.55,2.94-0.939,4.54-1.16
				c8.71-1.26,19.5,2.171,25.051,9.54"/>
			<path style="fill:none;stroke:#000000;stroke-width:21;" d="M557.23,657.66l-438.8-365.94c0,0-25.27-22.18-16.66-41.98"/>
			<path style="fill:none;stroke:#000000;stroke-width:21;" d="M101.77,249.74c39.56-18.76,153.04-58.78,153.04-58.78
				s33.88-11.86,69.46,10.17c35.58,22.02,448.96,349,448.96,349L536.04,675.5L97.25,309.55c0,0-16.58-14.55-18.3-30.6
				c-1.01-9.35,3.02-19.21,18.3-27C98.62,251.25,100.13,250.51,101.77,249.74z"/>
			<polyline style="fill:none;stroke:#000000;stroke-width:21;" points="78.95,278.76 78.95,278.95 78.95,484.85 535.52,676.72 
				535.52,676.73 537.96,677.75 			"/>
		</g>
	</g>
</g>
<rect style="fill:none;" width="850.394" height="850.394"/>
<g id="XMLID_87_">
	<g>
		<g id="XMLID_88_">
			<g>
				<path style="fill:#F6CC4B;" d="M746.22,220.02c12.57,0,22.771,8.46,22.771,18.87l0.42,0.79l-33.22,17.56l-0.96-1.81
					c-7.021-3.21-11.78-9.41-11.78-16.54C723.45,228.48,733.64,220.02,746.22,220.02z"/>
				<path style="fill:#F6CC4B;" d="M713.57,169.38c0-5.53,5.399-11,12.06-11c6.65,0,12.05,4.47,12.05,10
					c0,5.51-5.399,9.99-12.05,9.99C718.97,178.37,713.57,174.89,713.57,169.38z"/>
				<path style="fill:#F6CC4B;" d="M659.3,195.02c-8.88,0-16.1-6.98-16.1-14.35c0-7.38,7.22-13.36,16.1-13.36
					c8.91,0,16.12,6.98,16.12,14.36C675.42,189.04,668.21,195.02,659.3,195.02z"/>
				<path style="fill:#F6CC4B;" d="M617.56,91.96c12.57,0,22.771,8.45,22.771,18.87c0,10.43-10.2,18.88-22.771,18.88
					c-12.579,0-22.77-8.45-22.77-18.88C594.79,100.41,604.98,91.96,617.56,91.96z"/>
				<path style="fill:#F6CC4B;" d="M539.23,74.62c6.649,0,12.05,4.47,12.05,9.99s-5.4,9.99-12.05,9.99
					c-6.66,0-12.051-4.47-12.051-9.99S532.57,74.62,539.23,74.62z"/>
				<path style="fill:#F6CC4B;" d="M480.3,80.72c2.44,7.27,10.53,13.02,8.99,12.25L704.9,273.78l-0.221,0.52L480.3,179.16V80.72z"/>
				<path style="fill:#F6CC4B;" d="M736.19,257.24l-31.29,16.54L489.29,92.97c1.54,0.77-6.55-4.98-8.99-12.25
					c-1.75-5.19-0.62-11.16,8.99-16.06C509.13,54.54,554.93,45.17,564,42c0,0.24,23.12-10.8,36.84-2.31
					c17.49,10.82,220.61,172.49,220.61,172.49l-52.04,27.5l-0.42-0.79c0-10.41-10.2-18.87-22.771-18.87
					c-12.58,0-22.77,8.46-22.77,18.87c0,7.13,4.76,13.33,11.78,16.54L736.19,257.24z M713.57,169.38c0,5.51,5.399,8.99,12.06,8.99
					c6.65,0,12.05-4.48,12.05-9.99c0-5.53-5.399-10-12.05-10C718.97,158.38,713.57,163.85,713.57,169.38z M643.2,180.67
					c0,7.37,7.22,14.35,16.1,14.35c8.91,0,16.12-5.98,16.12-13.35c0-7.38-7.21-14.36-16.12-14.36
					C650.42,167.31,643.2,173.29,643.2,180.67z M594.79,110.83c0,10.43,10.19,18.88,22.77,18.88c12.57,0,22.771-8.45,22.771-18.88
					c0-10.42-10.2-18.87-22.771-18.87C604.98,91.96,594.79,100.41,594.79,110.83z M527.18,84.61c0,5.52,5.391,9.99,12.051,9.99
					c6.649,0,12.05-4.47,12.05-9.99s-5.4-9.99-12.05-9.99C532.57,74.62,527.18,79.09,527.18,84.61z"/>
			</g>
			<g>
				<line style="fill:none;stroke:#000000;stroke-width:14;" x1="736.19" y1="257.24" x2="704.9" y2="273.78"/>
				<path style="fill:none;stroke:#000000;stroke-width:14;" d="M480.3,80.72c-1.75-5.19-0.62-11.16,8.99-16.06
					C509.13,54.54,554.93,45.17,564,42c0,0.24,23.12-10.8,36.84-2.31c17.49,10.82,220.61,172.49,220.61,172.49l-52.04,27.5"/>
				<path style="fill:none;stroke:#000000;stroke-width:14;" d="M480.3,80.72c2.44,7.27,10.53,13.02,8.99,12.25L704.9,273.78"/>
				<line style="fill:none;stroke:#000000;stroke-width:14;" x1="769.41" y1="239.68" x2="736.19" y2="257.24"/>
				<polyline style="fill:none;stroke:#000000;stroke-width:14;" points="480.3,78.83 480.3,80.72 480.3,179.16 704.68,274.3 
					706.51,275.08 				"/>
				<path style="fill:none;stroke:#000000;stroke-width:14;" d="M640.33,110.83c0,10.43-10.2,18.88-22.771,18.88
					c-12.579,0-22.77-8.45-22.77-18.88c0-10.42,10.19-18.87,22.77-18.87C630.13,91.96,640.33,100.41,640.33,110.83z"/>
				<path style="fill:none;stroke:#000000;stroke-width:14;" d="M735.23,255.43c-7.021-3.21-11.78-9.41-11.78-16.54
					c0-10.41,10.189-18.87,22.77-18.87c12.57,0,22.771,8.46,22.771,18.87"/>
				<path style="fill:none;stroke:#000000;stroke-width:14;" d="M675.42,181.67c0,7.37-7.21,13.35-16.12,13.35
					c-8.88,0-16.1-6.98-16.1-14.35c0-7.38,7.22-13.36,16.1-13.36C668.21,167.31,675.42,174.29,675.42,181.67z"/>
				<path style="fill:none;stroke:#000000;stroke-width:14;" d="M737.68,168.38c0,5.51-5.399,9.99-12.05,9.99
					c-6.66,0-12.06-3.48-12.06-8.99c0-5.53,5.399-11,12.06-11C732.28,158.38,737.68,162.85,737.68,168.38z"/>
				<path style="fill:none;stroke:#000000;stroke-width:14;" d="M551.28,84.61c0,5.52-5.4,9.99-12.05,9.99
					c-6.66,0-12.051-4.47-12.051-9.99s5.391-9.99,12.051-9.99C545.88,74.62,551.28,79.09,551.28,84.61z"/>
			</g>
		</g>
	</g>
</g>
</svg>
