<?xml version="1.0" encoding="iso-8859-1"?>
<!-- Generator: Adobe Illustrator 12.0.1, SVG Export Plug-In . SVG Version: 6.00 Build 51448)  -->
<!DOCTYPE svg PUBLIC "-//W3C//DTD SVG 1.1//EN" "http://www.w3.org/Graphics/SVG/1.1/DTD/svg11.dtd" [
	<!ENTITY ns_svg "http://www.w3.org/2000/svg">
	<!ENTITY ns_xlink "http://www.w3.org/1999/xlink">
]>
<svg  version="1.1" id="Layer_1" xmlns="&ns_svg;" xmlns:xlink="&ns_xlink;" width="850.394" height="850.394"
	 viewBox="0 0 850.394 850.394" style="overflow:visible;enable-background:new 0 0 850.394 850.394;" xml:space="preserve">
<g>
	<g id="XMLID_2_">
		<g>
			<path style="fill:#FFF400;" d="M515.75,129.72c-4.08,8-10.31,7.43-13.25,2.3c0,0,1.12-5.54,7.96-4.58
				c2.21,0.32,4.07,0.86,5.64,1.57L515.75,129.72z"/>
			<path style="fill:#FF001C;" d="M494.93,147.18c2.08,2.34,3.181,12.31,3.181,20.56c0,0-22.641-3.07-19.971-27.88
				c1.12,0.03,2.16,0.06,3.061,0.07c0.03,0,0.06,0,0.09,0C488.33,140.34,490.62,142.32,494.93,147.18z"/>
			<path style="fill:#FF001C;" d="M526.57,77.91c8.31,1.8,14.37,8.12,14.359,21.31c-0.02,6.16-4.08,11.66-9.939,14.12
				c-7.01-5.9-13.12-6.74-13.12-6.74c-21.71-4.33-34.24,13.22-34.24,13.22s-1.63,0.2-4.09,1.26c-9.43-2.42-8.43-10.96-4.6-14.8
				c3.17-3.16,5.51-0.39,8.369-4.28c1.351-1.82,1.181-5.88,3.5-7.49c2.011-1.4,4.21-0.07,6.101-1.6c3.22-2.61,1.649-9.09,5.8-10.57
				c8.26-2.94,9.33,0.75,11.44,0.7c2.699-0.05,3.439-5.61,6.3-6.6C522.03,74.48,521.46,76.8,526.57,77.91z"/>
			<path style="fill:#9C5B16;" d="M516.1,129.01c-1.569-0.71-3.43-1.25-5.64-1.57c-6.84-0.96-7.96,4.58-7.96,4.58
				c2.94,5.13,9.17,5.7,13.25-2.3L516.1,129.01z M494.93,147.18c-4.31-4.86-6.6-6.84-13.64-7.25c-0.03,0-0.06,0-0.09,0
				c-0.931-0.06-1.95-0.08-3.061-0.08v0.01c-6.399-0.19-15.43-0.59-15.43-0.59c5.07-11.54,12.33-16.29,16.83-18.19
				c2.46-1.06,4.09-1.26,4.09-1.26s12.53-17.55,34.24-13.22c0,0,6.11,0.84,13.12,6.74c6.109,5.13,12.91,14.11,16.93,29.72
				c0,0,10,47.31,17.3,54.61c7.3,7.29,29.74,18.38,56.771,14.05c27.04-4.32,55.26-6.06,58.939-14.05
				c6.221-13.52,13.25-31.63,22.17-40.56c13.78-13.78,24.33-16.76,24.33-16.76s6.84,3.79,13.32,9.17c2.65-1.35,5.18-2.39,7.51-3.1
				c0,0,6.26,16.09,3.79,18.56v0.01c3.021,0.04,6.23,0.72,9.9,1.96c-0.7,2.9-1.21,10.51-1.45,13.42l0.61,1.86
				c1.02-0.35,2.05-0.62,3.069-0.8c0.721,17.91-0.819,37.94-10.8,53.42c-4.42,6.87-4.33,11.52-5.84,19.74
				c-1.25,6.86-4.72,17.66-10.96,23.91c0,0-3.24,23.98-14.09,46.23c-14.61,29.92-49.471,53-74.811,53
				c-17.51,0-32.51,12.17-35.989,21.64c-4.761,12.98-17.271,13.49-19.98,1.06c-2.29-10.54-21.35-31.09-26.49-36.23
				c-5.13-5.14-38.43-13.57-60.01-35.14c-12.7-12.7-20.34-29.61-23.96-48.06c-4.98-25.43-3.21-53.19,2.67-73.11
				c4.25-14.37,5.58-17.8,14.19-40.15C498.11,159.49,497.01,149.52,494.93,147.18z"/>
			<path style="fill:#7BD3F7;" d="M648.99,426.42l-13.141-5.84C641.75,421.02,645.03,423.35,648.99,426.42z"/>
			<path style="fill:#7BD3F7;" d="M598.54,453.34l-13.14-5.83C591.3,447.95,594.59,450.28,598.54,453.34z"/>
		</g>
		<g>
			<polyline style="fill:none;stroke:#231F20;stroke-width:21;" points="284.36,575.35 284.36,664.09 284.36,719.83 284.36,769.56 
				284.36,769.65 			"/>
			<polyline style="fill:none;stroke:#231F20;stroke-width:21;" points="649.91,493.74 649.91,496.6 649.91,560.53 649.91,608.97 
				649.91,648.33 542.77,684.82 289.09,771.23 284.36,769.56 84.26,698.75 84.05,652.08 83.81,601.03 83.49,529.68 83.45,521.12 			
				"/>
			<polyline style="fill:none;stroke:#231F20;stroke-width:21;" points="423.02,545.3 423.02,545.48 423.02,624.81 423.02,677.78 
				423.02,718.26 			"/>
			<polyline style="fill:none;stroke:#231F20;stroke-width:21;" points="542.77,519.36 542.77,519.68 542.77,590.88 542.77,641.46 
				542.77,684.82 542.77,689.65 			"/>
			<polyline style="fill:none;stroke:#231F20;stroke-width:14;" points="649.91,560.53 542.77,590.88 423.02,624.81 284.36,664.09 
				83.81,601.03 83.73,601 			"/>
			<polyline style="fill:none;stroke:#231F20;stroke-width:14;" points="649.91,608.97 542.77,641.46 423.02,677.78 284.36,719.83 
				84.05,652.08 84.04,652.08 			"/>
			<polyline style="fill:none;stroke:#231F20;stroke-width:21;" points="83.5,529.68 432.18,462.96 658.23,494.81 649.91,496.6 
				542.77,519.68 423.02,545.48 284.36,575.35 83.5,529.68 			"/>
			<path style="fill:none;stroke:#231F20;stroke-width:14;" d="M481.29,139.93c0.62,0.01,1.16,0.02,1.62,0.02"/>
			<path style="fill:none;stroke:#231F20;stroke-width:14;" d="M740.86,149.61c-0.04-0.03-0.07-0.06-0.11-0.09
				c-6.48-5.38-13.32-9.17-13.32-9.17s-10.55,2.98-24.33,16.76c-8.92,8.93-15.949,27.04-22.17,40.56
				c-3.68,7.99-31.899,9.73-58.939,14.05c-27.03,4.33-49.471-6.76-56.771-14.05c-7.3-7.3-17.3-54.61-17.3-54.61
				c-4.02-15.61-10.82-24.59-16.93-29.72c-7.01-5.9-13.12-6.74-13.12-6.74c-21.71-4.33-34.24,13.22-34.24,13.22s-1.63,0.2-4.09,1.26
				c-4.5,1.9-11.76,6.65-16.83,18.19c0,0,9.03,0.4,15.43,0.59c1.12,0.03,2.16,0.06,3.061,0.07"/>
			<path style="fill:none;stroke:#231F20;stroke-width:14;" d="M704.99,207.13c6.819-6.08,11.55-13.83,17.59-20.81
				c4.88-5.65,8.39-11.45,14.439-15.83c5.36-3.88,9.931-5.6,15.03-5.5c3.021,0.04,6.23,0.72,9.9,1.96
				c-0.7,2.9-1.21,10.51-1.45,13.42"/>
			<path style="fill:none;stroke:#231F20;stroke-width:14;" d="M699.86,190.64c11.35-19.95,27.68-34.4,40.89-41.12
				c2.65-1.35,5.18-2.39,7.51-3.1c0,0,6.26,16.09,3.79,18.56"/>
			<path style="fill:none;stroke:#231F20;stroke-width:14;" d="M530.62,303.64c0,0,16.22,22.17,64.34,22.17
				c44.34,0,78.67-0.81,85.43-7.57c6.761-6.75-22.159-32.44-37.31-42.72c-15.14-10.27-34.061-23.78-34.061-23.78"/>
			<path style="fill:none;stroke:#231F20;stroke-width:14;stroke-linecap:round;stroke-linejoin:round;" d="M595.75,413.02
				c0,0-8.76,29.99-12.41,29.99c-3.649,0-13.79-1.62-16.83,1.41"/>
			<path style="fill:none;stroke:#231F20;stroke-width:14;stroke-linecap:round;stroke-linejoin:round;" d="M563.54,457.64
				c8.95-5.21,16.52-8.81,23.12-11.399c4.52-1.771,14.88-32.21,16.72-36.89"/>
			<path style="fill:none;stroke:#231F20;stroke-width:12.7735;stroke-linecap:round;stroke-linejoin:round;" d="M585.4,447.51
				c5.899,0.44,9.189,2.771,13.14,5.83"/>
			<path style="fill:none;stroke:#231F20;stroke-width:14;stroke-linecap:round;stroke-linejoin:round;" d="M647.68,381.21
				c0,0.02-10.21,34.86-13.899,34.86c-3.65,0-13.78-1.62-16.82,1.42"/>
			<path style="fill:none;stroke:#231F20;stroke-width:14;stroke-linecap:round;stroke-linejoin:round;" d="M613.98,430.71
				c8.949-5.2,16.47-8.79,23.069-11.39c4.521-1.78,15.09-34.94,16.94-39.62"/>
			<path style="fill:none;stroke:#231F20;stroke-width:12.7735;stroke-linecap:round;stroke-linejoin:round;" d="M635.85,420.58
				c5.9,0.44,9.181,2.77,13.141,5.84"/>
			<path style="fill:none;stroke:#231F20;stroke-width:14;" d="M478.14,139.85v0.01c-2.67,24.81,19.971,27.88,19.971,27.88
				c-8.61,22.35-9.94,25.78-14.19,40.15c-5.88,19.92-7.65,47.68-2.67,73.11c3.62,18.45,11.26,35.36,23.96,48.06
				c21.58,21.57,54.88,30,60.01,35.14c5.141,5.14,24.2,25.69,26.49,36.23c2.71,12.43,15.22,11.92,19.98-1.06
				c3.479-9.47,18.479-21.64,35.989-21.64c25.34,0,60.2-23.08,74.811-53c10.85-22.25,14.09-46.23,14.09-46.23
				c6.24-6.25,9.71-17.05,10.96-23.91c1.51-8.22,1.42-12.87,5.84-19.74c9.98-15.48,11.521-35.51,10.8-53.42
				c-1.02,0.18-2.05,0.45-3.069,0.8c-7.17,2.43-14.271,8.55-19.61,13.39c-8.66,7.86-14.93,17.83-24.07,26.97"/>
			<path style="fill:none;stroke:#231F20;stroke-width:7;" d="M515.75,129.72c-4.08,8-10.31,7.43-13.25,2.3c0,0,1.12-5.54,7.96-4.58
				c2.21,0.32,4.07,0.86,5.64,1.57c1.221,0.56,2.271,1.21,3.16,1.94"/>
			<path style="fill:none;stroke:#231F20;stroke-width:14;" d="M478.14,139.85c1.11,0,2.13,0.02,3.061,0.08c0.03,0,0.06,0,0.09,0
				c7.04,0.41,9.33,2.39,13.64,7.25c2.08,2.34,3.181,12.31,3.181,20.56"/>
			<path style="fill:none;stroke:#231F20;stroke-width:14;" d="M480.13,121.22c-0.2-0.04-0.399-0.09-0.59-0.14
				c-9.43-2.42-8.43-10.96-4.6-14.8c3.17-3.16,5.51-0.39,8.369-4.28c1.351-1.82,1.181-5.88,3.5-7.49c2.011-1.4,4.21-0.07,6.101-1.6
				c3.22-2.61,1.649-9.09,5.8-10.57c8.26-2.94,9.33,0.75,11.44,0.7c2.699-0.05,3.439-5.61,6.3-6.6c5.58-1.96,5.01,0.36,10.12,1.47
				c8.31,1.8,14.37,8.12,14.359,21.31c-0.02,6.16-4.08,11.66-9.939,14.12c-0.3,0.12-0.601,0.24-0.91,0.35"/>
		</g>
	</g>
</g>
<rect style="fill:none;" width="850.394" height="850.394"/>
</svg>
