<?xml version="1.0" encoding="iso-8859-1"?>
<!-- Generator: Adobe Illustrator 12.0.1, SVG Export Plug-In . SVG Version: 6.00 Build 51448)  -->
<!DOCTYPE svg PUBLIC "-//W3C//DTD SVG 1.1//EN" "http://www.w3.org/Graphics/SVG/1.1/DTD/svg11.dtd" [
	<!ENTITY ns_svg "http://www.w3.org/2000/svg">
	<!ENTITY ns_xlink "http://www.w3.org/1999/xlink">
]>
<svg  version="1.1" id="Layer_1" xmlns="&ns_svg;" xmlns:xlink="&ns_xlink;" width="850.394" height="850.394"
	 viewBox="0 0 850.394 850.394" style="overflow:visible;enable-background:new 0 0 850.394 850.394;" xml:space="preserve">
<g id="XMLID_2_">
	<g>
		<rect x="356.97" y="373.83" style="fill:#FFEEC8;" width="150.18" height="56.29"/>
		<path style="fill:#787878;" d="M771.8,742.56c2.59,20.46-10.08,22.45-22.45,22.45H724h-11.27H116.78
			c-12.38,0-24.95-1.99-22.36-22.45l21.06-81.63c3.19-15.56,10.08-22.35,22.35-22.35h571h12.57h6.89c12.38,0,19.26,6.79,22.45,22.35
			L771.8,742.56z"/>
		<polygon style="fill:#787878;" points="771.6,765.01 771.6,809.82 94.92,809.82 94.92,765.01 116.78,765.01 712.73,765.01 
			724,765.01 749.35,765.01 		"/>
		<path style="fill:#FFEEC8;" d="M699.75,430.12v179.81H164.38V430.12h192.59h150.18H699.75z M653.35,565.43v-29.64H488.39v29.64
			H653.35z M653.35,499.27v-29.64H550.66v29.64H653.35z"/>
		<rect x="488.39" y="535.79" style="fill:#C8C8C8;" width="164.96" height="29.64"/>
		<rect x="550.66" y="469.63" style="fill:#C8C8C8;" width="102.689" height="29.64"/>
		<path style="fill:#00E800;" d="M602.75,324.74c6.09,0,10.88,4.88,10.88,10.87c0,5.99-4.79,10.88-10.88,10.88
			c-5.98,0-10.78-4.89-10.78-10.88C591.97,329.62,596.77,324.74,602.75,324.74z"/>
		<rect x="261.57" y="80.45" style="fill:#00EFDC;" width="340.99" height="228.32"/>
		<path style="fill:#FFEEC8;" d="M614.52,42.93c14.78,0,26.66,11.88,26.66,26.54v265.85c0,14.76-11.88,26.64-26.66,26.64H248.6
			c-14.67,0-26.64-11.88-26.64-26.64V69.47c0-14.66,11.97-26.54,26.64-26.54H614.52z M589.18,335.81c0-5.99-4.89-10.87-10.88-10.87
			c-5.979,0-10.87,4.88-10.87,10.87c0,5.99,4.891,10.88,10.87,10.88C584.29,346.69,589.18,341.8,589.18,335.81z M591.97,335.61
			c0,5.99,4.8,10.88,10.78,10.88c6.09,0,10.88-4.89,10.88-10.88c0-5.99-4.79-10.87-10.88-10.87
			C596.77,324.74,591.97,329.62,591.97,335.61z M602.56,308.77V80.45H261.57v228.32H602.56z"/>
		<path style="fill:#00E800;" d="M578.3,324.94c5.99,0,10.88,4.88,10.88,10.87c0,5.99-4.89,10.88-10.88,10.88
			c-5.979,0-10.87-4.89-10.87-10.88C567.43,329.82,572.32,324.94,578.3,324.94z"/>
	</g>
	<g>
		<path style="fill:none;stroke:#000000;stroke-width:23.708;" d="M641.18,335.32c0,14.76-11.88,26.64-26.66,26.64H248.6
			c-14.67,0-26.64-11.88-26.64-26.64V69.47c0-14.66,11.97-26.54,26.64-26.54H614.52c14.78,0,26.66,11.88,26.66,26.54V335.32z"/>
		<rect x="261.57" y="80.45" style="fill:none;stroke:#000000;stroke-width:23.708;" width="340.99" height="228.32"/>
		<polyline style="fill:none;stroke:#000000;stroke-width:23.708;" points="356.97,430.12 356.97,373.83 507.15,373.83 
			507.15,430.12 		"/>
		<polygon style="fill:none;stroke:#000000;stroke-width:23.708;" points="507.15,430.12 699.75,430.12 699.75,609.93 
			164.38,609.93 164.38,430.12 356.97,430.12 		"/>
		<rect x="488.39" y="535.79" style="fill:none;stroke:#000000;stroke-width:23.708;" width="164.96" height="29.64"/>
		<rect x="550.66" y="469.63" style="fill:none;stroke:#000000;stroke-width:23.708;" width="102.689" height="29.64"/>
		<path style="fill:none;stroke:#000000;stroke-width:23.708;" d="M116.78,765.01c-12.38,0-24.95-1.99-22.36-22.45l21.06-81.63
			c3.19-15.56,10.08-22.35,22.35-22.35h571"/>
		<path style="fill:none;stroke:#000000;stroke-width:23.708;" d="M749.35,765.01c12.37,0,25.04-1.99,22.45-22.45l-21.06-81.63
			c-3.19-15.56-10.07-22.35-22.45-22.35h-6.89h-12.57"/>
		
			<line style="fill:none;stroke:#000000;stroke-width:23.708;stroke-dasharray:23.708;" x1="159.79" y1="672.11" x2="706.33" y2="672.11"/>
		
			<line style="fill:none;stroke:#000000;stroke-width:23.708;stroke-dasharray:23.708;" x1="159.79" y1="703.74" x2="706.33" y2="703.74"/>
		
			<line style="fill:none;stroke:#000000;stroke-width:23.708;stroke-dasharray:23.708;" x1="586.19" y1="738.67" x2="722.2" y2="738.67"/>
		<line style="fill:none;stroke:#000000;stroke-width:23.708;" x1="287.81" y1="738.67" x2="570.42" y2="738.67"/>
		
			<line style="fill:none;stroke:#000000;stroke-width:23.708;stroke-dasharray:23.708;" x1="159.79" y1="738.67" x2="287.81" y2="738.67"/>
		<polygon style="fill:none;stroke:#000000;stroke-width:23.708;" points="749.35,765.01 771.6,765.01 771.6,809.82 94.92,809.82 
			94.92,765.01 116.78,765.01 712.73,765.01 724,765.01 		"/>
	</g>
</g>
<rect style="fill:none;" width="850.394" height="850.394"/>
</svg>
