<?xml version="1.0" encoding="iso-8859-1"?>
<!-- Generator: Adobe Illustrator 12.0.1, SVG Export Plug-In . SVG Version: 6.00 Build 51448)  -->
<!DOCTYPE svg PUBLIC "-//W3C//DTD SVG 1.1//EN" "http://www.w3.org/Graphics/SVG/1.1/DTD/svg11.dtd" [
	<!ENTITY ns_svg "http://www.w3.org/2000/svg">
	<!ENTITY ns_xlink "http://www.w3.org/1999/xlink">
]>
<svg  version="1.1" id="Layer_1" xmlns="&ns_svg;" xmlns:xlink="&ns_xlink;" width="850.89" height="850.89"
	 viewBox="0 0 850.89 850.89" style="overflow:visible;enable-background:new 0 0 850.89 850.89;" xml:space="preserve">
<g>
	<g id="XMLID_1_">
		<g>
			<path style="fill:#FFF5B4;" d="M385.42,721.5c2.72-0.31,3.39,1.42,5.05,2.17C391.9,719.35,386.5,719.26,385.42,721.5z
				 M160.14,658.97c-1.22,0.641-2.42,1.3-2.08,3.49c-2.4-2.25-5.92-3.36-7.64-6.28c1.64-3.56,1.05-5.21-0.7-8.37
				c-1.45-1.52-1.98,0.351-4.16,0c-0.86-4.579,2.06-5.359,2.08-9.069c-4.12-8.41-16.73-12.55-26.39-7.67
				c-5.14-2.271-11.16-3.67-14.58-7.67c-1.22,0.83-3.92,0.159-4.8,1.319c-0.03-0.01-0.06-0.01-0.09-0.01
				c-1.15-2.72-1.81-6.52,0.73-7.59c-1.94-1.54-3.82-3.14-6.25-4.18c-1.5,0.579-0.59,3.59-2.08,4.18c-3.78-0.94-3.29-6.18-9.16-5.01
				c-0.11-0.07-0.23-0.141-0.34-0.21c7-10.46,21.21-13.66,24.08-28.261c-2.89-3.569-0.55-8.92,2.77-12.55
				c-1.77-4.27-2.95-9.439,0-13.26c0.3-1.99-3.29-2.021-4.86-4.18c-3.5-4.841-3-16.471-4.86-23.021c-1.46-5.16-6.26-6.82,0.7-10.46
				c1.36,5.95,7.86-1.26,10.41,3.49h0.69c1.02,1.53,1.85,3.26,4.87,2.79c2.84-0.33,1.53-5.59,2.08-6.28
				c4.09-3.56,4.92-10.41,9.03-13.95c-0.65-2.6-3.3-3.2-3.48-6.279c1.64-4.631,5.44-7.091,6.25-12.561
				c4.12-1.24,3.42,0.851,7.64,0.7c-0.14-3.57-2.07-5.35-4.16-6.97c-0.74-3.53,1.58-3.99,1.38-6.98c-0.4,0.12-0.8,0.21-1.2,0.29
				c-0.04-0.1-0.1-0.2-0.18-0.29c-0.27,0.17-0.54,0.33-0.81,0.46c-6.54,0.92-12.8-2.34-18.64-6.04c1.49-5.45,4.07-11.99,0.7-16.74
				c1.86-1.149,3.07-2.949,4.86-4.18c6.49,2.04,11.04,0.3,19.95,1.37c0.07,0.05,0.14,0.1,0.2,0.16c0.12,4,2.41,5.85,6.93,5.439
				c2.3-0.01,0.7-3.939,2.08-4.88c2.71,2.62,3.56,7.12,6.25,9.761c2.55,0,5.09,0,7.64,0c-0.26-0.73-0.48-1.431-0.66-2.101
				c-1.7-6.3-0.37-10.72-1.42-19.52c-0.99-1.69-2.55-2.79-4.59-3.41c-0.1-0.13-0.2-0.25-0.29-0.38c-0.4-8.55-9.85-8.041-17.34-9.46
				c-0.22-4.21,1.63-10.91,2.59-16.36c0.37-0.63,0.77-1.24,1.21-1.81c3.98-2.63,9.47-3.74,14.25-5.55
				c-1.18-3.92-6.97-3.22-6.94-8.36c-3.51-0.78-4.86,1.68-7.64-1.4c-0.03-5.58,4.61-11.33,6.25-17.44
				c-4.5-5.81-8.61,2.15-15.51,0.97c-0.43-0.23-0.86-0.49-1.27-0.77c-0.86-3.81-4.26-5.08-6.14-7.87
				c-1.94-11.58,2.2-20.64,2.78-29.99c-3.81-1.1-1.97-3.57-4.17-6.28c3-0.59,3.18-2.87,1.39-4.89c2.92-5.67,12.15-5,13.2-12.55
				c4.71,1.69,6.9-2.63,11.8-2.79c2.34-3.07,6.67-6.83,5.56-11.16c2.88-3.38,7-5.52,9.72-9.07c4.46,5.64,8.55,0.32,13.88-0.7
				c0.55,3.64,1.73,6.64,2.09,10.47c2.31-0.23,3.08-2.02,6.25-1.4c1.71,1.8-2.18,5.41-0.7,6.98c8.74,2.54,23.05,1.37,27.08,10.46
				c3.72,0.01,5.97-1.44,6.94-4.18c0.74-3.53-2.05-3.52-2.77-5.58c0.33-2.92,1.33-5.17,2.08-7.68c6.05,1.32,9.71,0.01,13.89-2.09
				c3.46,0.24,3.55,3.88,8.33,2.79c2.68-0.79,1.94-5.03,3.47-6.98c-0.33-2.68-3.34-2.69-4.16-4.88c2.35-3.68,0.3-11.78,3.47-14.64
				c3.68,5.1,15.54,14.32,20.83,6.97c-0.79-2.93-3.92-3.5-2.78-8.37c5.57-0.25,9.81-0.51,13.89-3.49c1.5,2.67-1.66,7.13,3.47,6.98
				c-1.62,3.02-2.61,6.68-4.86,9.06c0.94,2.38,4.2,3.51,6.25,2.79c-0.16,6.31-0.6,9.56-1.39,14.65c-1.24,0.09-1.46-0.85-2.78-0.69
				c-3.72,10.86,22.09,18.3,21.53,4.18c2.88-0.8,2.7,1.47,4.86,1.4c0.83-2.42,1.51-5,1.39-8.38c6.41-4.48,16.49-5.28,25-7.67
				c5.63,3.41,7.82,10.27,13.19,13.95c10-3.51,15.72-0.03,22.22,0c1.64,1.64-0.12,3.43,0,5.58c0.48,2.19,1.85,0.91,3.47,0.7
				c-4.14,4.01,4.19,4.21,2.08,10.46c0.22,0.06,0.43,0.11,0.64,0.18c2.68,0.75,4.99,1.88,6.31,4.01c-3.12,4.16,2.83,6.51-0.7,11.16
				c2.1,3.4,3.73,2.14,7.64,1.39c2.99,2.23,6.33,4.19,7.64,6.28c0.2,0.45,0.24,0.76,0.19,0.95c-0.25,0.9-2.5-0.22-2.28,1.14
				c1.64,2.53,3.18,5.29,6.25,2.79c1.37,2.12,2.8,4.17,4.17,6.28c0.46-0.46,0.93-0.92,1.42-1.35c2.52-2.22,5.42-3.64,7.61-0.04
				c3.29,0.05,1.57-4.94,4.86-4.89c-0.16,3.05-1.75,6.61,0.69,8.37c1.73-0.58,3.72-0.91,6.25-0.69c2.02,1.22,1.75,4.75,3.47,6.27
				c2.17,0.32,2.22-1.49,2.08-3.48c1.3,0.09,2.33,0.45,2.779,1.39c3.851-1.72,3.74-7.41,4.86-11.86c6.601,0.35,7.271-5.26,11.8-6.97
				c2.681,3.67,6.92,1.06,11.12,0.7c2.29-4.21,6.2-6.79,13.19-6.28c3.05-4.36,9.979-2.74,13.88-4.88c1.54,0.54,1.74,2.43,2.78,3.48
				c4.479-2.92,12.14-0.57,18.06-0.69c3.05,1.26,2.53,3.69,6.25,1.39c0.01,1.64-1.2,2.05-0.7,4.19c6.34,1.25,5.8-4.42,9.721-5.58
				c0,2.09,0,4.18,0,6.27c1.8,1.45,2.579-1.55,4.859,0c2.79,2.09,2.38,7.38,4.86,9.77c2.38-0.18,3.34-1.77,6.25-1.4
				c4.74,10.59,9.06,21.59,18.75,27.21c4.22,0.04,3.31-5.05,6.25-6.28c1.35,5.1,0.08,9.58-2.78,13.25
				c-0.13,2.92,3.311,2.26,4.87,3.49c-3.46,5.36-9.08,8.55-9.03,17.44c1.33,3.07,6.36,2.44,9.721,3.48
				c-2.311,5.98,7.329,11.44,2.779,17.44c0.07,1.79,2.58,1.12,3.471,2.09c1.81,16.32,5.529,30.72,7.64,46.74
				c-3.17,1.899-5.62,2.52-9.03,2.79c-1.75,3.63,2.49,5.149,1.44,10.21c-0.181,0.06-0.36,0.13-0.53,0.2
				c-8.14-0.69-8.8,8.51-14.8,7.72c-0.28,1.7-1.16,4.92-2.351,9.04c-0.569,1.12-1.199,2.27-1.819,3.52
				c0.229-0.2,0.609-0.489,1.05-0.88c-4.8,16.3-13.03,42.851-10.771,49.01c-2.18,3.381-4.92,6.2-5.55,11.16
				c-9.92,3.521-11.99,14.92-15.97,24.41c-0.34,3.13,2.45,3.11,2.78,5.58c-0.471,3.02-2.73,4.24-4.17,6.27
				c1.27,11.761,5.08,20.94,6.939,32.091c7.08,4.04,5.26,14.43,7.641,22.319c1.89,6.25,8.1,11.69,5.56,23.021
				c0.3,1.56,3.42,0.28,4.86,0.7c-0.521,2.6-1.471,6.159,0.689,7.67c6.55-0.37,7.55-2.96,13.891-0.7
				c0.199,8.64,4.06,13.59,4.859,21.63c-0.82,0.8-2.46,0.79-4.17,0.69c-2.13,8.52,2.93,11.26,3.47,18.84
				c-3.71,1.96-5.689,0.52-9.71,0c0.62-1.24,2.811-0.891,2.08-3.49c-0.21-1.42-1.88-1.37-2.08-2.79
				c-3.84,1.26-7.319,2.88-9.029,6.28c-5.801-2.78-16.16-0.98-18.061-7.681c1.42-3.92,3.16-7.529,6.25-9.76
				c-0.399-1.45-1.46-2.26-2.08-3.49c-2.729,1.21-6.59,1.28-9.72,2.091c1.71,3.97-4.94,6.93-1.39,9.77
				c-1.381,1.4-3.28,2.28-4.17,4.18c1.149,1.17,0.56,4.101,3.479,3.49c-10.83,3.8-23.21-2.66-34.72-2.79
				c-0.63-1.47-1.08-3.1-2.09-4.18c-4.9,6.3-13.62-0.18-20.131-0.7c0.19-0.17,0.391-0.33,0.591-0.49
				c2.63-0.399,5.14-0.87,7.479-1.41c4.061,0.421,8.54,1.73,12.76,0.5c-0.779-4.899-3.17-11.56-8.33-9.76
				c0.061,3.88,4.021,3.851,4.86,6.98c-7.77,1.13-12.21-5.851-20.83-1.4c0.07,1.78,2.32,1.38,4.16,1.4
				c-0.15,0.05-0.31,0.09-0.47,0.12c-0.49,0.069-0.99,0.149-1.49,0.25c-6.16,0.619-14.7-2.75-21.65,0.319
				c0.61-2.239-1.8-1.45-2.08-2.79c-5.88,3.29-10.13,1.83-17.359,2.101c-2.03,0.58,0.91,1.75,0,3.479
				c-2.96-0.51-4.93-2.02-6.94-3.479c-0.69,1.62-1.53,3.109-2.78,4.18c-2.05-1.32-4.3,0.2-5.55-0.7c-1.57-1.51,0.57-2.38,0-4.88
				c-1.73-1.46-2.39,4.08-6.25,2.79c-1.58,2.45,1.46,2.29,0,4.18c-2.39,1.091-6.75,0.2-6.25,4.19c6.29,4.49,13.66-6.89,20.14,0
				c-11.62,0.31-25.11,6.66-34.21,2.69c3,0.029,6.08,0.14,8.95,0.039c0.3-7.439-3.89-3.6-7.92-2.89c-0.56,0.08-1.06-0.03-1.52-0.24
				c0.12-0.439,0.15-0.96-0.02-1.689c-1.01-0.65-2.17-0.87-3.34-0.811c-0.61-0.27-1.27-0.25-2.06,0.351
				c-1.49,0.43-2.82,1.17-3.63,1.85c-6.55-5.189-17.12-1.97-20.83,3.49c-2.16,0.07-1.98-2.2-4.86-1.4
				c0.01,5.11,6.06,4.141,11.11,4.19c-1.19,1.59-5.3,0.25-7.64,0.689c-3.23,1.181-8.67,0.131-11.8,1.4
				c-1.05-0.81-1.7-2.01-3.47-2.09c-1.92,0.17-2.12,2.05-2.78,3.479c-17.21-0.199-30.39,6.19-42.36,11.86
				c-9.82,4.65-22.09,5.7-30.31,11.69c-0.18,0.05-0.36,0.1-0.54,0.13c-2.79-0.34-3.71,1.21-6.64,0.739
				c-4.01,3.551-9.94,5.19-15.29,7.4c-0.39,0.03-0.78,0.07-1.16,0.11c-5.93-1.92-10.11,0.43-13.93,3.68
				c-3.26,2.14-6.02,5.26-9.22,7.73c-0.88,0.529-1.8,0.979-2.76,1.31c-3.04,1.04-7.13-0.33-10.42,0.69
				c-2.92,0.909-3.09,3.26-5.55,4.89c-1.63,1.07-3.5,1.91-5.38,2.72c-3.73,1.62-7.45,3.17-9.2,6.351
				c-5.28,0.869-7.63-1.181-10.42-2.79c0.76-14.851,1.2-28.091-2.08-43.95c1.66-0.42,3.17-1,5.55-0.7
				c-1.95-4.29-3.3-8.49-2.08-13.95c1.46-1.529,2.71-1.529,4.17,0c4.03-3.87,2.58-10.02,3.47-16.04c2.4-0.55,2.93,0.771,4.17,1.4
				c1.74-2.17,5.38-5.49,3.47-9.07c-0.93-2.149-3.09,1.3-4.17-0.7c-3.12-6.21,5.52-11.14,2.08-15.35c0.22-0.94,1.74-0.57,2.78-0.69
				c-3.12-6.1-7.67-13.579-4.16-22.319c-0.7-1.391-1.21-2.98-2.78-3.49c-1.82,0.73-2.27,2.83-2.08,5.58c-1.63-0.93-2-3.12-2.78-4.89
				c-1.33,0.31-1.75,1.51-3.47,1.399C169.26,661.43,161.27,663.65,160.14,658.97z M497.83,709.25c0.17-2.56-1.04-3.76-3.6-3.6
				C494.52,707.76,496.69,707.99,497.83,709.25z"/>
			<path style="fill:#FFFFFF;" d="M111.53,557.83c-2.95,3.82-1.77,8.99,0,13.26c-3.32,3.63-5.66,8.98-2.77,12.55
				c-2.87,14.601-17.08,17.801-24.08,28.261c-0.56-0.341-1.1-0.69-1.62-1.061c1.64-3.24,6.36-3.38,6.95-7.67
				c9.53-3.21,14.81-10.7,18.05-20.229c-4.77-2.37,1.31-9.721,2.09-13.25c-1.96-3.28-2.03-10.141,0.69-12.551
				c-8.23-3.6-10.19-16.409-9.72-26.51c-1.94-7.78-14.42-6.42-11.81-16.74c-11.34-2.29-13.58,5.75-11.8,14.65
				c-3.94,6.11-11.38,8.92-11.92,17.15c-0.03-1.37-0.59-2.69-0.58-4.601c2.84-6.53,14.85-9.42,10.42-18.83
				c1.02-7.279,6.39-12.02,14.58-8.37c1.53,1.53-0.69,2.851,0,5.58c2.57,1.37,4.46,3.42,7.64,4.19c1.58-1.43,2.45-3.59,4.86-4.19
				c1.51,5.561,8.75-1.77,10.41,4.19c-2.55-4.75-9.05,2.46-10.41-3.49c-6.96,3.64-2.16,5.3-0.7,10.46
				c1.86,6.55,1.36,18.18,4.86,23.021C108.24,555.81,111.83,555.84,111.53,557.83z"/>
			<path style="fill:#FFFFFF;" d="M486.49,723.84c11.51,0.13,23.89,6.59,34.72,2.79c-2.92,0.61-2.33-2.32-3.479-3.49
				c0.89-1.899,2.789-2.779,4.17-4.18c-3.551-2.84,3.1-5.8,1.39-9.77c3.13-0.811,6.99-0.881,9.72-2.091
				c0.62,1.23,1.681,2.04,2.08,3.49c-3.09,2.23-4.83,5.84-6.25,9.76c1.9,6.7,12.26,4.9,18.061,7.681
				c1.71-3.4,5.189-5.021,9.029-6.28c0.2,1.42,1.87,1.37,2.08,2.79c0.73,2.6-1.46,2.25-2.08,3.49c4.021,0.52,6,1.96,9.71,0
				c-0.54-7.58-5.6-10.32-3.47-18.84c1.71,0.1,3.35,0.109,4.17-0.69c-0.8-8.04-4.66-12.99-4.859-21.63
				c-6.341-2.26-7.341,0.33-13.891,0.7c-2.16-1.511-1.21-5.07-0.689-7.67c-1.44-0.42-4.561,0.859-4.86-0.7
				c2.54-11.33-3.67-16.771-5.56-23.021c-2.381-7.89-0.561-18.279-7.641-22.319c-1.859-11.15-5.67-20.33-6.939-32.091
				c1.439-2.029,3.699-3.25,4.17-6.27c-0.33-2.47-3.12-2.45-2.78-5.58c3.979-9.49,6.05-20.89,15.97-24.41
				c0.63-4.96,3.37-7.779,5.55-11.16c-2.26-6.159,5.971-32.71,10.771-49.01c0.37-0.32,0.8-0.71,1.229-1.17
				c-4.109,16.01-13.34,42.48-11.3,50.18c-2.149,3.881-5.18,6.891-5.56,12.551c-10.82,2.149-11.24,14.739-15.97,23.02
				c1,2.26,2.789,3.71,3.479,6.28c-1.78,2.16-3.52,4.38-4.87,6.97c2.45,9.1,4.73,19.04,6.95,30c7.36,4.09,5.21,14.93,7.64,23.01
				c1.88,6.29,8.54,12.12,5.551,22.32c1.439,0.42,4.56-0.86,4.859,0.7c0.271,3.8-1.38,5.439,0.69,7.67
				c4.319,1.08,3.96-2.54,6.95-2.79c1.55,2.17,6.279,1.14,7.64,3.49c-0.57,8.939,3.79,12.93,4.86,20.229
				c-0.94,1.38-1.931,2.71-4.86,2.09c-1.54,8.99,3.95,10.91,3.47,18.83c-0.99,0.17-1.17,1.15-2.08,1.4
				c-3.99,0.74-5.27-1.22-8.33-1.4c-9.81,4.48-11.89-3.29-22.92-2.09c-1.49-2.689-4.68-3.67-5.55-6.97c1.57-4,4.49-6.65,6.24-10.47
				c-2.8-1.761-5.21,1.939-9.72,0.699c1.85,4.11-0.91,5.471-2.771,7.67c0.97,1.171,4.23,0.061,4.23,2.21
				c0,0.171-0.03,0.36-0.07,0.58c-3.41-0.18-5.86,0.62-6.25,3.49c0.189,2.141,3.24,1.4,2.78,4.19
				c-11.851,3.62-24.42-3.11-36.801-3.49c0.101-1.73-0.359-2.9-1.39-3.49c-4.81,6.561-14.12-1.18-20.83-1.39
				c0.08-0.32,0.11-0.62,0.11-0.91c0.63-0.09,1.25-0.18,1.87-0.28c-0.2,0.16-0.4,0.32-0.591,0.49c6.511,0.521,15.23,7,20.131,0.7
				C485.41,720.74,485.86,722.37,486.49,723.84z"/>
			<path style="fill:#FFFFFF;" d="M460.83,719.04c-0.38-1.84-2.96-1.47-4.01-2.63c1.14-0.22,2.279-0.47,3.41-0.71
				c1.47,0.399,2.729,1.43,2.76,3.05C462.28,718.85,461.56,718.95,460.83,719.04z"/>
			<path style="fill:#FFFFFF;" d="M464.49,714.9c-0.48,0.119-0.971,0.199-1.49,0.25C463.5,715.05,464,714.97,464.49,714.9z"/>
			<path style="fill:#FFFFFF;" d="M106.67,623.4c3.42,4,9.44,5.399,14.58,7.67c9.66-4.88,22.27-0.74,26.39,7.67
				c-0.02,3.71-2.94,4.49-2.08,9.069c2.18,0.351,2.71-1.52,4.16,0c1.75,3.16,2.34,4.811,0.7,8.37c1.72,2.92,5.24,4.03,7.64,6.28
				c-0.34-2.19,0.86-2.85,2.08-3.49c1.13,4.681,9.12,2.46,9.03,8.37c1.72,0.11,2.14-1.09,3.47-1.399c0.78,1.77,1.15,3.96,2.78,4.89
				c-0.19-2.75,0.26-4.85,2.08-5.58c1.57,0.51,2.08,2.1,2.78,3.49c-3.51,8.74,1.04,16.22,4.16,22.319
				c-1.04,0.12-2.56-0.25-2.78,0.69l-0.03-0.01c0.35-0.83,0.8-1.55,1.42-2.08c-5.33-4.83-4.47-14.82-4.86-23.021
				c-3.01-0.22-0.32,5.261-3.47,4.891c-1.68-0.4-1.54-2.641-2.08-4.19c-2.19-0.34-1.57,2.141-4.17,1.4
				c0.33-6.15-7.01-4.58-9.03-8.37c-0.38,1.24-0.35,2.89-1.38,3.49c-3.07-3.53-6.39-2.761-8.34-7.681
				c1.06-4.399,0.93-3.88-0.69-7.67c-2.74-0.33-3.61,1.46-4.86-0.7c-0.15-4.329,2.31-6.05,2.77-9.76
				c-5.95-7.14-16.07-10.47-26.38-6.28c-6.66-1.819-11.74-6.829-18.69-7.05C102.75,623.56,105.45,624.23,106.67,623.4z"/>
			<path style="fill:#FFFFFF;" d="M376.22,721.64c-0.7,0.03-1.4,0.16-2.06,0.351C374.95,721.39,375.61,721.37,376.22,721.64z"/>
			<path style="fill:#FFFFFF;" d="M336.5,732.27c-1.41-0.17-2.8-0.409-4.16-0.76c0.19,1.59-0.17,2.63-1.39,2.79
				c-30.48,1.57-47.84,16.311-73.36,22.851c8.22-5.99,20.49-7.04,30.31-11.69c11.97-5.67,25.15-12.06,42.36-11.86
				c0.66-1.43,0.86-3.31,2.78-3.479c1.77,0.08,2.42,1.28,3.47,2.09L336.5,732.27z"/>
			<path style="fill:#FFFFFF;" d="M445.23,716.46c3.619,1.2,7.609,0.72,11.59-0.05c1.05,1.16,3.63,0.79,4.01,2.63
				c-11.39,1.46-23.9,1.89-31.46,1.74C430.06,715.93,443.22,722.03,445.23,716.46z"/>
			<path style="fill:#FFFFFF;" d="M379.56,722.45c0.17,0.729,0.14,1.25,0.02,1.689c-1.28-0.609-2.24-2.029-3.36-2.5
				C377.39,721.58,378.55,721.8,379.56,722.45z"/>
			<path style="fill:#FFFFFF;" d="M376.06,725.11c0.12-1.811-1.11-2.261-2.17-2.891c0.09-0.08,0.18-0.16,0.27-0.229
				c0.66-0.19,1.36-0.32,2.06-0.351c1.12,0.471,2.08,1.891,3.36,2.5c-0.21,0.86-0.73,1.41-0.72,2.49c0.39,0.22,0.79,0.42,1.21,0.601
				c-0.64-0.011-1.27-0.011-1.9-0.011c-3.12,0-6.09,0.15-8.6,0.771c-2.15-0.25-1.36-3.45-5.04-2.16
				C366.84,722.49,371.44,724.99,376.06,725.11z"/>
			<path style="fill:#FFFFFF;" d="M462.99,718.75c-0.03-1.62-1.29-2.65-2.76-3.05c0.93-0.2,1.859-0.391,2.77-0.55
				c0.52-0.051,1.01-0.131,1.49-0.25c3.85-0.591,7.41-0.551,10.279,1.56c-0.779,0.21-1.6,0.41-2.43,0.6
				c-2.75-0.3-5.32-0.18-7.479,1.41C464.24,718.57,463.62,718.66,462.99,718.75z"/>
			<polygon style="fill:#34A047;" points="809.42,66.04 809.42,210.88 736.89,210.88 736.89,210.06 736.89,66.67 736.89,66.04 			
				"/>
			<polygon style="fill:#FFFFFF;" points="736.89,210.06 736.89,210.88 662.91,210.88 662.91,209.29 662.91,68.19 662.91,66.04 
				736.89,66.04 736.89,66.67 			"/>
			<polygon style="fill:#FAA41A;" points="662.91,209.29 662.91,210.88 588.4,210.88 588.4,66.04 662.91,66.04 662.91,68.19 			"/>
			<path style="fill:#C8C8C8;" d="M572.91,57.05c-4.19-1.87-6.99-5.23-6.99-9.08c0-5.87,6.53-10.63,14.59-10.63
				c8.05,0,14.59,4.76,14.59,10.63c0,3.75-2.67,7.05-6.699,8.94c-2.28,1.07-4.99,1.69-7.891,1.69
				C577.72,58.6,575.12,58.04,572.91,57.05z"/>
			<path style="fill:#C8C8C8;" d="M588.4,210.88v101.9H573.34l-0.43-255.73c2.21,0.99,4.81,1.55,7.6,1.55
				c2.9,0,5.61-0.62,7.891-1.69v9.13h-1.351l1.33,144.84H588.4z"/>
			<polygon style="fill:#FFFFFF;" points="588.4,66.04 588.4,210.88 588.38,210.88 587.05,66.04 			"/>
			<path style="fill:#FFFFFF;" d="M574.67,426c2.11,16.26,6.061,30.66,7.64,47.44c-3.119,0.81-4.319,3.56-9.029,2.779
				c-0.32,4.05,2.52,4.92,2.09,9.07c-0.45,0.13-0.9,0.28-1.34,0.45c1.05-5.061-3.19-6.58-1.44-10.21
				c3.41-0.271,5.86-0.891,9.03-2.79c-2.11-16.021-5.83-30.42-7.64-46.74c-0.891-0.97-3.4-0.3-3.471-2.09
				c4.55-6-5.09-11.46-2.779-17.44c-3.36-1.04-8.391-0.41-9.721-3.48c-0.05-8.89,5.57-12.08,9.03-17.44c-1.56-1.23-5-0.57-4.87-3.49
				c2.86-3.67,4.13-8.15,2.78-13.25c-2.94,1.23-2.03,6.32-6.25,6.28c-9.69-5.62-14.01-16.62-18.75-27.21
				c-2.91-0.37-3.87,1.22-6.25,1.4c-2.48-2.39-2.07-7.68-4.86-9.77c-2.28-1.55-3.06,1.45-4.859,0c0-2.09,0-4.18,0-6.27
				c-3.921,1.16-3.381,6.83-9.721,5.58c-0.5-2.14,0.71-2.55,0.7-4.19c-3.72,2.3-3.2-0.13-6.25-1.39
				c-5.92,0.12-13.58-2.23-18.06,0.69c-1.04-1.05-1.24-2.94-2.78-3.48c-3.9,2.14-10.83,0.52-13.88,4.88
				c-6.99-0.51-10.9,2.07-13.19,6.28c-4.2,0.36-8.439,2.97-11.12-0.7c-4.529,1.71-5.199,7.32-11.8,6.97
				c-1.12,4.45-1.01,10.14-4.86,11.86c-0.449-0.94-1.479-1.3-2.779-1.39c0.14,1.99,0.09,3.8-2.08,3.48
				c-1.72-1.52-1.45-5.05-3.47-6.27c-2.53-0.22-4.52,0.11-6.25,0.69c-2.44-1.76-0.85-5.32-0.69-8.37c-3.29-0.05-1.57,4.94-4.86,4.89
				c-2.19-3.6-5.09-2.18-7.61,0.04l-0.03-0.04c0.52-4.12,6.04-3.76,8.33-1.4c1.51-1.5,0.84-5.2,4.86-4.18c0.53,3.58-1.2,5.29,0,7.67
				c2.79,0.48,3.96-0.67,6.25-0.7c2.18,1.53,2.56,4.86,4.17,6.98c-0.79-5.01,3.739-2.42,5.55-3.49c1.84-2.8,1.47-7.83,3.47-10.46
				c5.851-0.18,6.78-5.29,11.11-6.98c4.18,2.67,6.43,1.36,11.81,0.7c-0.22-1.62,0.11-2.68,0.69-3.49
				c8.99-2.87,18.31-6.57,27.08-7.67c1.43,0.19,1.39,1.86,2.08,2.79c8.59-2.5,18.989,1.2,25,1.39c1,2.08-2.44,4.25,0.689,4.19
				c4.2-0.21,3.45-5.38,7.641-5.58c1.579,0.74,0.27,4.38,0.699,6.28c6.271-2.67,7.42,4.83,9.021,9.06
				c2.78,0.23,3.859-1.24,6.95-0.69c4.85,10.46,8.93,21.71,18.75,27.2c2.399-1.54,3.42-4.46,4.159-7.67
				c-2.5-0.72-4.54-2.57-5.51-4.88c8.47,2.41,11.021,14.41,4.82,20.92c1.5,1.05,4.32,0.77,4.86,2.79
				c-2.761,5.65-10.271,10.07-8.33,18.14c2.47,1.23,6.319,1.08,9.02,2.09c-0.979,8.15,7.38,12.13,3.47,18.83
				C573.48,424.42,574.5,424.78,574.67,426z"/>
			<path style="fill:#FFFFFF;" d="M574.93,720.78c0.62,0.58,0.431,1.979,1.44,2.17c-2.37,1.71-6.101,2.06-8.65,3.6
				c-1.26-0.399,1.471-2.79,1.44-4.33C572.17,722.83,572.57,720.82,574.93,720.78z"/>
			<path style="fill:#FFFFFF;" d="M574.03,485.74c-0.011,0.08-0.03,0.16-0.05,0.25c-0.16-0.021-0.32-0.04-0.48-0.05
				C573.67,485.87,573.85,485.8,574.03,485.74z"/>
			<path style="fill:#FFFFFF;" d="M558.7,493.66c6,0.79,6.66-8.41,14.8-7.72c-6,2.439-10.85,7.77-14.1,10.51
				c0.63,3.43-1.011,6.03-2.591,7.72c0.521-2.03,0.96-3.9,1.28-5.53c0.45-1.439,0.69-2.979,0.61-4.77
				C558.7,493.8,558.7,493.73,558.7,493.66z"/>
			<path style="fill:#FFFFFF;" d="M557.83,333.31c0.62,2.74,3.13,5.08,2.96,6.9c-0.33,3.32-6.46,4.19-4.86,9.77
				c0.561,2.21,4.58,0.97,4.16,4.18c-0.76,2.47-2.25,4.19-2.08,7.58c-1.029-2.51-0.81-5.56,1.391-8.28
				c-1.591-0.96-4.341-0.76-4.17-3.48c-0.591-5.48,2.64-7.11,4.17-10.47c-0.69-1.97-1.221-4.04-1.65-6.18L557.83,333.31z"/>
			<path style="fill:#FFFFFF;" d="M558.7,493.66c0,0.07,0,0.14,0,0.21c0,1.2-0.22,2.82-0.61,4.77c-0.42,1.41-1.04,2.721-1.74,4.061
				C557.54,498.58,558.42,495.36,558.7,493.66z"/>
			<path style="fill:#FFFFFF;" d="M558.01,361.74c0.01,0.03,0.021,0.07,0.04,0.1c-0.01,0-0.03-0.01-0.04-0.01
				C558.01,361.8,558.01,361.77,558.01,361.74z"/>
			<path style="fill:#FFFFFF;" d="M557.83,333.31l-0.08,0.02c-1.47-7.21-1.86-15.22-3.91-23.11c0.88-2.37,3.851-2.64,4.17-5.58
				c-3.069-1.34-6.229-2.58-7.64-5.58c0.21-3.99,2.689-5.69,5.16-7.4c0.55,0.19,1.14,0.33,1.779,0.42c-3.1,1.53-6.02,3.25-6.25,7.68
				c3.08,1.56,5.971,3.3,8.341,5.58c-1.65,2.06-3.971,3.45-4.87,6.28c2.37,4.83,0.88,13.53,4.87,16.73
				C557.74,330.12,557.49,331.78,557.83,333.31z"/>
			<path style="fill:#FFFFFF;" d="M555.93,291.38c-0.13,0.09-0.27,0.19-0.399,0.28c-0.36-0.11-0.7-0.25-1.03-0.4
				C554.95,291.34,555.42,291.37,555.93,291.38z"/>
			<path style="fill:#FFFFFF;" d="M556.35,502.7c-0.239,0.84-0.5,1.72-0.77,2.64c-0.44,0.391-0.82,0.68-1.05,0.88
				C555.15,504.97,555.78,503.82,556.35,502.7z"/>
			<path style="fill:#FFFFFF;" d="M551.76,246.05c0.42,1.67,1,3.18,0.69,5.58c-7.38,6.05-3.79,17.84-9.03,23.71l-0.06,0.05
				c-0.19-0.26-0.4-0.51-0.63-0.74c5.199-4.95,1.149-18.02,9.029-23.02C552.73,249.19,549.81,247.16,551.76,246.05z"/>
			<path style="fill:#FFFFFF;" d="M543.42,275.34c4.48,4.51,4.96,13.05,11.08,15.92c-7.83-1.15-7.18-10.82-11.14-15.87
				L543.42,275.34z"/>
			<path style="fill:#FFFFFF;" d="M494.23,705.65c2.56-0.16,3.77,1.04,3.6,3.6C496.69,707.99,494.52,707.76,494.23,705.65z"/>
			<path style="fill:#FFFFFF;" d="M485.1,717.56c-4.22,1.23-8.699-0.079-12.76-0.5c0.83-0.189,1.65-0.39,2.43-0.6
				c-2.869-2.11-6.43-2.15-10.279-1.56c0.16-0.03,0.319-0.07,0.47-0.12c-1.84-0.021-4.09,0.38-4.16-1.4
				c8.62-4.45,13.061,2.53,20.83,1.4c-0.84-3.13-4.8-3.101-4.86-6.98C481.93,706,484.32,712.66,485.1,717.56z"/>
			<path style="fill:#FFFFFF;" d="M464.86,718.47c2.159-1.59,4.729-1.71,7.479-1.41C470,717.6,467.49,718.07,464.86,718.47z"/>
			<path style="fill:#FFFFFF;" d="M405.25,352.77l0.03,0.04c-0.49,0.43-0.96,0.89-1.42,1.35c-1.37-2.11-2.8-4.16-4.17-6.28
				c-3.07,2.5-4.61-0.26-6.25-2.79c-0.22-1.36,2.03-0.24,2.28-1.14l0.04,0.01c-0.37,1.21-0.63,2.33,0.46,3.23
				c1.04,2.3,1.7-1.46,3.47-0.7C401.97,348.15,401.81,352.26,405.25,352.77z"/>
			<path style="fill:#FFFFFF;" d="M396.22,340.91c0.21,1.03-0.16,2.07-0.46,3.05l-0.04-0.01c0.05-0.19,0.01-0.5-0.19-0.95
				c-1.31-2.09-4.65-4.05-7.64-6.28l0.04-0.14C391.04,337.43,393.86,339.06,396.22,340.91z"/>
			<path style="fill:#FFFFFF;" d="M385.42,721.5c1.08-2.24,6.48-2.15,5.05,2.17C388.81,722.92,388.14,721.19,385.42,721.5z"/>
			<path style="fill:#FFFFFF;" d="M387.93,336.58l-0.04,0.14c-3.91,0.75-5.54,2.01-7.64-1.39c3.53-4.65-2.42-7,0.7-11.16
				c-1.32-2.13-3.63-3.26-6.31-4.01l0.05-0.18c9.18-0.64,7.83,10.86,6.95,16.05C383.83,335.8,385.94,336.03,387.93,336.58z"/>
			<path style="fill:#FFFFFF;" d="M257.59,757.15c-0.08,0.05-0.16,0.109-0.24,0.17c-0.1-0.021-0.2-0.03-0.3-0.04
				C257.23,757.25,257.41,757.2,257.59,757.15z"/>
			<path style="fill:#FFFFFF;" d="M250.41,758.02c2.93,0.471,3.85-1.079,6.64-0.739c-2.15,0.55-4.36,1.029-6.64,1.439
				c-3.38,5.32-9.18,6.11-15.29,6.7C240.47,763.21,246.4,761.57,250.41,758.02z"/>
			<path style="fill:#FFFFFF;" d="M235.12,765.42c-0.23,0.08-0.46,0.18-0.68,0.271c-0.16-0.061-0.32-0.11-0.48-0.16
				C234.34,765.49,234.73,765.45,235.12,765.42z"/>
			<path style="fill:#FFFFFF;" d="M220.03,769.21c3.82-3.25,8-5.6,13.93-3.68c-4.42,0.41-8.92,0.859-12.72,2.95
				C220.83,768.71,220.43,768.95,220.03,769.21z"/>
			<path style="fill:#FFFFFF;" d="M210.81,776.94c3.2-2.471,5.96-5.591,9.22-7.73C216.97,771.8,214.13,774.95,210.81,776.94z"/>
			<path style="fill:#FFFFFF;" d="M208.05,778.25c0.96-0.33,1.88-0.78,2.76-1.31c-3.75,2.89-8.1,4.899-14.56,3.399
				c-1.58,3.63-5.64,4.641-9.5,6.33l-0.05-0.12c1.88-0.81,3.75-1.649,5.38-2.72c2.46-1.63,2.63-3.98,5.55-4.89
				C200.92,777.92,205.01,779.29,208.05,778.25z"/>
			<path style="fill:#FFFFFF;" d="M186.7,786.55l0.05,0.12c-1.29,0.57-2.56,1.2-3.7,2.04c-3.38,2.47-4.01,5.13-6.25,5.58
				c-4.89,0.99-8.05-1.08-11.11-4.88c1.78-15.66,1.04-27.37-1.39-43.95c1.63-0.22,2.61-1.1,4.87-0.7c-2.4-4.05-1.61-7.12-2.09-13.25
				c2.22-2.62,4.14-2.17,6.25-2.09c2.41-3.39,0.12-11.51,2.78-14.64c1.91-1.94,2.9,0.62,4.86,0.689c0.31-2.939,2.98-3.52,2.08-7.67
				c-2.14-0.52-1.33,1.91-3.47,1.391c-0.52-2.261-1.26-4.32-2.08-6.271c2.82-2.92,2.75-7.93,4.13-11.18l0.03,0.01
				c3.44,4.21-5.2,9.14-2.08,15.35c1.08,2,3.24-1.449,4.17,0.7c1.91,3.58-1.73,6.9-3.47,9.07c-1.24-0.63-1.77-1.95-4.17-1.4
				c-0.89,6.021,0.56,12.17-3.47,16.04c-1.46-1.529-2.71-1.529-4.17,0c-1.22,5.46,0.13,9.66,2.08,13.95
				c-2.38-0.3-3.89,0.28-5.55,0.7c3.28,15.859,2.84,29.1,2.08,43.95c2.79,1.609,5.14,3.659,10.42,2.79
				C179.25,789.72,182.97,788.17,186.7,786.55z"/>
			<path style="fill:#FFFFFF;" d="M165,459.48c-2.55,0-5.09,0-7.64,0c-2.69-2.641-3.54-7.141-6.25-9.761
				c-1.38,0.94,0.22,4.87-2.08,4.88c-4.52,0.41-6.81-1.439-6.93-5.439c1.02,0.87,1.75,2.16,2.07,4.05c2.12-0.51,2.04,1.2,4.16,0.69
				c2.26-0.521,0.16-5.42,3.48-4.881c2.52,2.351,3.36,6.391,5.55,9.07c2.11-0.439,5.98,0.891,6.94-0.7l0.04-0.01
				C164.52,458.05,164.74,458.75,165,459.48z"/>
			<path style="fill:#FFFFFF;" d="M164.34,457.38l-0.04,0.01c-1.47-1.069-2-3.1-2.77-4.88c3.96-4.13-1.69-7.479,0.69-13.95
				c-1.48-1.18-2.74-2.59-3.89-4.109c2.04,0.62,3.6,1.72,4.59,3.41C163.97,446.66,162.64,451.08,164.34,457.38z"/>
			<path style="fill:#FFFFFF;" d="M157,792.84c1.24-1.649,5.5-0.26,7.93-0.72C163.7,793.77,159.43,792.38,157,792.84z"/>
			<path style="fill:#FFFFFF;" d="M158.33,434.45c-0.09-0.03-0.18-0.05-0.27-0.08c0-0.101-0.01-0.2-0.02-0.3
				C158.13,434.2,158.23,434.32,158.33,434.45z"/>
			<path style="fill:#FFFFFF;" d="M158.04,434.07c-1.44-1.931-2.74-4.011-4.15-5.971c-3.91-2.189-11.94,0.101-14.58-4.89
				c0.51-5.8,1.64-10.99,3.98-14.96c-0.96,5.45-2.81,12.15-2.59,16.36C148.19,426.03,157.64,425.52,158.04,434.07z"/>
			<path style="fill:#FFFFFF;" d="M151.81,392.53c-0.03,5.14,5.76,4.44,6.94,8.36c-4.78,1.81-10.27,2.92-14.25,5.55
				c2.86-3.74,7.16-6.04,13.56-6.24c-2.92-1.43-7.76-4.08-6.95-6.98c-15.88,2.37-1.7-14.45-2.08-20.23
				c-4.41-1.81-6.46,2.6-9.72,2.79c-1.48,0.09-2.98-0.35-4.4-1.12c6.9,1.18,11.01-6.78,15.51-0.97c-1.64,6.11-6.28,11.86-6.25,17.44
				C146.95,394.21,148.3,391.75,151.81,392.53z"/>
			<path style="fill:#FFFFFF;" d="M144.5,406.44c-0.44,0.57-0.84,1.18-1.21,1.81c0.06-0.37,0.12-0.73,0.18-1.08
				C143.8,406.91,144.14,406.66,144.5,406.44z"/>
			<path style="fill:#FFFFFF;" d="M142.09,449.02c0,0.051,0,0.101,0.01,0.141c-0.06-0.061-0.13-0.11-0.2-0.16
				C141.96,449,142.03,449.01,142.09,449.02z"/>
			<path style="fill:#FFFFFF;" d="M140,488.08c-4.22,0.15-3.52-1.94-7.64-0.7c-0.81,5.47-4.61,7.93-6.25,12.561
				c0.18,3.079,2.83,3.68,3.48,6.279c-4.11,3.54-4.94,10.391-9.03,13.95c-0.55,0.69,0.76,5.95-2.08,6.28
				c-3.02,0.47-3.85-1.26-4.87-2.79c1.89,0.439,3.39,3.37,5.56,1.39c-0.18-9.95,7.62-11.87,9.03-20.229c-2.01-1-2.87-3.17-3.47-5.58
				c3.35-3.601,5.51-8.41,7.63-13.25c3.58-1.46,5.3,2.529,6.95,0.7c-1.23-2.721-3.92-3.98-4.86-6.98c0.17-2,2.18-3.96,1.57-5.29
				c0.4-0.08,0.8-0.17,1.2-0.29c0.2,2.99-2.12,3.45-1.38,6.98C137.93,482.73,139.86,484.51,140,488.08z"/>
			<path style="fill:#FFFFFF;" d="M121.95,446.93c5.24,2.761,15.31-1.56,19.95,2.07c-8.91-1.07-13.46,0.67-19.95-1.37
				c-1.79,1.23-3,3.03-4.86,4.18c3.37,4.75,0.79,11.29-0.7,16.74c5.84,3.7,12.1,6.96,18.64,6.04c-7.06,3.68-15.12-2.97-20.03-6.729
				c2.61-3.801,3.62-10.41,1.39-16.051C118.55,450.49,119.08,447.53,121.95,446.93z"/>
			<path style="fill:#FFFFFF;" d="M135.84,474.13c0.08,0.09,0.14,0.19,0.18,0.29c-0.33,0.07-0.66,0.13-0.99,0.17
				C135.3,474.46,135.57,474.3,135.84,474.13z"/>
			<path style="fill:#FFFFFF;" d="M134.91,374.66c-0.38-0.06-0.77-0.15-1.16-0.27c-0.03-0.17-0.06-0.34-0.11-0.5
				C134.05,374.17,134.48,374.43,134.91,374.66z"/>
			<path style="fill:#FFFFFF;" d="M101.78,624.71c0.03,0,0.06,0,0.09,0.01c-0.03,0.021-0.04,0.05-0.06,0.07
				C101.8,624.76,101.79,624.74,101.78,624.71z"/>
			<path style="fill:#FFFFFF;" d="M101.78,624.71c-0.67-0.02-1.35,0-2.05,0.08c1.35-3.2-0.78-5.771,1.39-8.37
				c-3.06,0.521-2.85-2.25-4.86-2.79c-0.35,1.74,0.02,4.21-2.08,4.19c-2.6-2.36-6.06-3.86-9.16-5.71c5.87-1.17,5.38,4.069,9.16,5.01
				c1.49-0.59,0.58-3.601,2.08-4.18c2.43,1.04,4.31,2.64,6.25,4.18C99.97,618.19,100.63,621.99,101.78,624.71z"/>
			<path style="fill:#FFFFFF;" d="M85.02,612.11c-0.18,0.04-0.37,0.08-0.57,0.13c0.07-0.12,0.15-0.23,0.23-0.34
				C84.79,611.97,84.91,612.04,85.02,612.11z"/>
			<path style="fill:#FFFFFF;" d="M65.59,545.69c0.02,0.22,0.01,0.439-0.02,0.67C65.57,546.13,65.58,545.91,65.59,545.69z"/>
			<path style="fill:#FFFFFF;" d="M65.57,546.38c-0.02,0.75,0.03,1.55,0.13,2.39c-4.29,0.73-4.98,0.431-7.63-1.399
				c-1.27,1.68-2.57,3.05-3.52,4.55l0.73-3.21c2.07-2.83,4.93-1.56,9.73-0.64C65.34,547.46,65.51,546.91,65.57,546.38z"/>
			<path style="fill:#FFFFFF;" d="M54.55,551.92l-2.33,10.17c0.19-2.47,0.51-4.83,0.99-7.05C53.46,553.88,53.94,552.88,54.55,551.92
				z"/>
		</g>
		<g>
			<polyline style="fill:none;stroke:#231F20;stroke-width:7;" points="587.05,66.04 588.4,66.04 662.91,66.04 736.89,66.04 
				809.42,66.04 809.42,210.88 736.89,210.88 662.91,210.88 588.4,210.88 588.38,210.88 			"/>
			<path style="fill:none;stroke:#231F20;stroke-width:7;" d="M572.91,57.05c-4.19-1.87-6.99-5.23-6.99-9.08
				c0-5.87,6.53-10.63,14.59-10.63c8.05,0,14.59,4.76,14.59,10.63c0,3.75-2.67,7.05-6.699,8.94c-2.28,1.07-4.99,1.69-7.891,1.69
				C577.72,58.6,575.12,58.04,572.91,57.05z"/>
			<polyline style="fill:none;stroke:#231F20;stroke-width:7;" points="572.91,56.75 572.91,57.05 573.34,312.78 			"/>
			<polyline style="fill:none;stroke:#231F20;stroke-width:7;" points="588.4,56.22 588.4,56.91 588.4,66.04 588.4,210.88 
				588.4,312.78 			"/>
			<line style="fill:none;stroke:#231F20;stroke-width:7;" x1="662.91" y1="68.19" x2="662.91" y2="209.29"/>
			<line style="fill:none;stroke:#231F20;stroke-width:7;" x1="736.89" y1="66.67" x2="736.89" y2="210.06"/>
			<path style="fill:none;stroke:#231F20;stroke-width:7;" d="M494.23,705.65c2.56-0.16,3.77,1.04,3.6,3.6
				C496.69,707.99,494.52,707.76,494.23,705.65z"/>
			<path style="fill:none;stroke:#231F20;stroke-width:7;" d="M463,715.15c0.5-0.101,1-0.181,1.49-0.25"/>
			<path style="fill:none;stroke:#231F20;stroke-width:7;" d="M456.82,716.41c1.14-0.22,2.279-0.47,3.41-0.71"/>
			<path style="fill:none;stroke:#231F20;stroke-width:7;" d="M462.99,718.75c-0.71,0.1-1.431,0.2-2.16,0.29"/>
			<path style="fill:none;stroke:#231F20;stroke-width:7;" d="M472.34,717.06c-2.34,0.54-4.85,1.011-7.479,1.41"/>
			<path style="fill:none;stroke:#231F20;stroke-width:7;" d="M390.47,723.67c-1.66-0.75-2.33-2.479-5.05-2.17
				C386.5,719.26,391.9,719.35,390.47,723.67z"/>
			<path style="fill:none;stroke:#231F20;stroke-width:7;" d="M379.58,724.14c0.46,0.21,0.96,0.32,1.52,0.24
				c4.03-0.71,8.22-4.55,7.92,2.89c-2.87,0.101-5.95-0.01-8.95-0.039"/>
			<path style="fill:none;stroke:#231F20;stroke-width:7;" d="M374.16,721.99c0.79-0.601,1.45-0.62,2.06-0.351"/>
			<path style="fill:none;stroke:#231F20;stroke-width:6.7608;" d="M558.7,493.87c0.08,1.79-0.16,3.33-0.61,4.77
				c-0.42,1.41-1.04,2.721-1.74,4.061c-0.569,1.12-1.199,2.27-1.819,3.52c0.229-0.2,0.609-0.489,1.05-0.88
				c0.37-0.32,0.8-0.71,1.229-1.17c1.58-1.689,3.221-4.29,2.591-7.72c3.25-2.74,8.1-8.07,14.1-10.51c0.17-0.07,0.35-0.141,0.53-0.2
				c0.439-0.17,0.89-0.32,1.34-0.45c0.43-4.15-2.41-5.021-2.09-9.07c4.71,0.78,5.91-1.97,9.029-2.779
				c-1.579-16.78-5.529-31.181-7.64-47.44c-0.17-1.22-1.189-1.58-2.78-1.39c3.91-6.7-4.449-10.68-3.47-18.83
				c-2.7-1.01-6.55-0.86-9.02-2.09c-1.94-8.07,5.569-12.49,8.33-18.14c-0.54-2.02-3.36-1.74-4.86-2.79
				c6.2-6.51,3.649-18.51-4.82-20.92c-0.01,0-0.03-0.01-0.04-0.01c0-0.03,0-0.06,0-0.09c-0.17-3.39,1.32-5.11,2.08-7.58
				c0.42-3.21-3.6-1.97-4.16-4.18c-1.6-5.58,4.53-6.45,4.86-9.77c0.17-1.82-2.34-4.16-2.96-6.9c-0.34-1.53-0.09-3.19,1.57-4.96
				c-3.99-3.2-2.5-11.9-4.87-16.73c0.899-2.83,3.22-4.22,4.87-6.28c-2.37-2.28-5.261-4.02-8.341-5.58c0.23-4.43,3.15-6.15,6.25-7.68
				c-0.64-0.09-1.229-0.23-1.779-0.42c-0.36-0.11-0.7-0.25-1.03-0.4c-6.12-2.87-6.6-11.41-11.08-15.92
				c5.24-5.87,1.65-17.66,9.03-23.71c0.31-2.4-0.271-3.91-0.69-5.58c-1.95,1.11,0.971,3.14,0,5.58c-7.88,5-3.83,18.07-9.029,23.02
				c0.229,0.23,0.439,0.48,0.63,0.74c3.96,5.05,3.31,14.72,11.14,15.87c0.45,0.08,0.92,0.11,1.43,0.12
				c-0.13,0.09-0.27,0.19-0.399,0.28c-2.471,1.71-4.95,3.41-5.16,7.4c1.41,3,4.57,4.24,7.64,5.58c-0.319,2.94-3.29,3.21-4.17,5.58
				c2.05,7.89,2.44,15.9,3.91,23.11c0.43,2.14,0.96,4.21,1.65,6.18c-1.53,3.36-4.761,4.99-4.17,10.47
				c-0.171,2.72,2.579,2.52,4.17,3.48c-2.2,2.72-2.42,5.77-1.391,8.28c0.01,0.03,0.021,0.07,0.04,0.1c0.97,2.31,3.01,4.16,5.51,4.88
				c-0.739,3.21-1.76,6.13-4.159,7.67c-9.82-5.49-13.9-16.74-18.75-27.2c-3.091-0.55-4.17,0.92-6.95,0.69
				c-1.601-4.23-2.75-11.73-9.021-9.06c-0.43-1.9,0.88-5.54-0.699-6.28c-4.19,0.2-3.44,5.37-7.641,5.58
				c-3.13,0.06,0.311-2.11-0.689-4.19c-6.011-0.19-16.41-3.89-25-1.39c-0.69-0.93-0.65-2.6-2.08-2.79
				c-8.771,1.1-18.09,4.8-27.08,7.67c-0.58,0.81-0.91,1.87-0.69,3.49c-5.38,0.66-7.63,1.97-11.81-0.7
				c-4.33,1.69-5.26,6.8-11.11,6.98c-2,2.63-1.63,7.66-3.47,10.46c-1.811,1.07-6.34-1.52-5.55,3.49c-1.61-2.12-1.99-5.45-4.17-6.98
				c-2.29,0.03-3.46,1.18-6.25,0.7c-1.2-2.38,0.53-4.09,0-7.67c-4.02-1.02-3.35,2.68-4.86,4.18c-2.29-2.36-7.81-2.72-8.33,1.4
				c-3.44-0.51-3.28-4.62-5.56-6.28c-1.77-0.76-2.43,3-3.47,0.7c-1.09-0.9-0.83-2.02-0.46-3.23c0.3-0.98,0.67-2.02,0.46-3.05
				c-2.36-1.85-5.18-3.48-8.29-4.33c-1.99-0.55-4.1-0.78-6.29-0.55c0.88-5.19,2.23-16.69-6.95-16.05c2.37-5.63-5.24-6.47-2.08-11.16
				c-0.59-2.04-2.23,0.42-3.47,0c1.95-3.24,0.77-5.51-1.39-7.67c-5.05,1.54-15.24-2.52-20.13,1.39c-5.17-2.71-7.79-7.99-11.11-12.55
				c7.71-8.5,2.58-22.41,9.72-31.39c-2.63-3.64-2.48-10.07-6.25-12.55c0.25-2.77-0.64-6.69,0.69-8.37
				c6.69,0.44,12.49-0.02,14.58-4.19c0.51-2.13-0.7-2.54-0.69-4.18c0.63-2.86,3.89-3.07,4.86-5.58c1.68,0,3.37,0,5.05,0"/>
			<path style="fill:none;stroke:#231F20;stroke-width:6.7608;" d="M90.79,223.73c2.75,0,5.5,0,8.25,0
				c-3.85,1.71-3.63,7.52-8.34,8.37c2.51,7.44-8.87,5.6-6.25,15.34c5.12-3.63,15.94,1.73,15.28-8.37
				c8.21-0.07,13.14-1.14,16.66,3.49c0.55,7.75-0.35,14.05-4.16,17.44c0.16,1.92,2.58,1.59,3.47,2.79
				c-1.61,10.36,1.48,21.02,5.55,27.9c3.83,0.82,4.82-1.2,7.64-1.4c0.35,5.47,2.83,8.79,9.72,7.67c7.16,5.55,1.75,13.91-1.39,20.23
				c-3.5,1.92-13.32,4.62-9.02,9.77c-0.78,1.55-2.75,1.89-3.47,3.49c2.04,1.67,1.41,6.02,4.86,6.27c-0.3,7.05-5.81,18.69-3.48,27.9
				c0.49,1.94,3.63,6.63,7.53,9.27c0.41,0.28,0.84,0.54,1.27,0.77c1.42,0.77,2.92,1.21,4.4,1.12c3.26-0.19,5.31-4.6,9.72-2.79
				c0.38,5.78-13.8,22.6,2.08,20.23c-0.81,2.9,4.03,5.55,6.95,6.98c-6.4,0.2-10.7,2.5-13.56,6.24c-0.44,0.57-0.84,1.18-1.21,1.81
				c-2.34,3.97-3.47,9.16-3.98,14.96c2.64,4.99,10.67,2.7,14.58,4.89c1.41,1.96,2.71,4.04,4.15,5.971c0.09,0.13,0.19,0.25,0.29,0.38
				c1.15,1.52,2.41,2.93,3.89,4.109c-2.38,6.471,3.27,9.82-0.69,13.95c0.77,1.78,1.3,3.811,2.77,4.88
				c-0.96,1.591-4.83,0.261-6.94,0.7c-2.19-2.68-3.03-6.72-5.55-9.07c-3.32-0.539-1.22,4.36-3.48,4.881
				c-2.12,0.51-2.04-1.2-4.16-0.69c-0.32-1.89-1.05-3.18-2.07-4.05c-0.06-0.061-0.13-0.11-0.2-0.16
				c-4.64-3.63-14.71,0.69-19.95-2.07c-2.87,0.601-3.4,3.561-5.56,4.88c2.23,5.641,1.22,12.25-1.39,16.051
				c4.91,3.76,12.97,10.409,20.03,6.729c0.27-0.13,0.54-0.29,0.81-0.46c0.08,0.09,0.14,0.19,0.18,0.29c0.61,1.33-1.4,3.29-1.57,5.29
				c0.94,3,3.63,4.26,4.86,6.98c-1.65,1.829-3.37-2.16-6.95-0.7c-2.12,4.84-4.28,9.649-7.63,13.25c0.6,2.41,1.46,4.58,3.47,5.58
				c-1.41,8.359-9.21,10.279-9.03,20.229c-2.17,1.98-3.67-0.95-5.56-1.39c1.02,1.53,1.85,3.26,4.87,2.79
				c2.84-0.33,1.53-5.59,2.08-6.28c4.09-3.56,4.92-10.41,9.03-13.95c-0.65-2.6-3.3-3.2-3.48-6.279
				c1.64-4.631,5.44-7.091,6.25-12.561c4.12-1.24,3.42,0.851,7.64,0.7c-0.14-3.57-2.07-5.35-4.16-6.97
				c-0.74-3.53,1.58-3.99,1.38-6.98c-0.4,0.12-0.8,0.21-1.2,0.29c-0.33,0.07-0.66,0.13-0.99,0.17c-6.54,0.92-12.8-2.34-18.64-6.04
				c1.49-5.45,4.07-11.99,0.7-16.74c1.86-1.149,3.07-2.949,4.86-4.18c6.49,2.04,11.04,0.3,19.95,1.37c0.06,0,0.13,0.01,0.19,0.02
				c0,0.051,0,0.101,0.01,0.141c0.12,4,2.41,5.85,6.93,5.439c2.3-0.01,0.7-3.939,2.08-4.88c2.71,2.62,3.56,7.12,6.25,9.761
				c2.55,0,5.09,0,7.64,0c-0.26-0.73-0.48-1.431-0.66-2.101c-1.7-6.3-0.37-10.72-1.42-19.52c-0.99-1.69-2.55-2.79-4.59-3.41
				c-0.09-0.03-0.18-0.05-0.27-0.08c0-0.101-0.01-0.2-0.02-0.3c-0.4-8.55-9.85-8.041-17.34-9.46c-0.22-4.21,1.63-10.91,2.59-16.36
				c0.06-0.37,0.12-0.73,0.18-1.08c0.33-0.26,0.67-0.51,1.03-0.73c3.98-2.63,9.47-3.74,14.25-5.55c-1.18-3.92-6.97-3.22-6.94-8.36
				c-3.51-0.78-4.86,1.68-7.64-1.4c-0.03-5.58,4.61-11.33,6.25-17.44c-4.5-5.81-8.61,2.15-15.51,0.97
				c-0.38-0.06-0.77-0.15-1.16-0.27c-0.03-0.17-0.06-0.34-0.11-0.5c-0.86-3.81-4.26-5.08-6.14-7.87
				c-1.94-11.58,2.2-20.64,2.78-29.99c-3.81-1.1-1.97-3.57-4.17-6.28c3-0.59,3.18-2.87,1.39-4.89c2.92-5.67,12.15-5,13.2-12.55
				c4.71,1.69,6.9-2.63,11.8-2.79c2.34-3.07,6.67-6.83,5.56-11.16c2.88-3.38,7-5.52,9.72-9.07c4.46,5.64,8.55,0.32,13.88-0.7
				c0.55,3.64,1.73,6.64,2.09,10.47c2.31-0.23,3.08-2.02,6.25-1.4c1.71,1.8-2.18,5.41-0.7,6.98c8.74,2.54,23.05,1.37,27.08,10.46
				c3.72,0.01,5.97-1.44,6.94-4.18c0.74-3.53-2.05-3.52-2.77-5.58c0.33-2.92,1.33-5.17,2.08-7.68c6.05,1.32,9.71,0.01,13.89-2.09
				c3.46,0.24,3.55,3.88,8.33,2.79c2.68-0.79,1.94-5.03,3.47-6.98c-0.33-2.68-3.34-2.69-4.16-4.88c2.35-3.68,0.3-11.78,3.47-14.64
				c3.68,5.1,15.54,14.32,20.83,6.97c-0.79-2.93-3.92-3.5-2.78-8.37c5.57-0.25,9.81-0.51,13.89-3.49c1.5,2.67-1.66,7.13,3.47,6.98
				c-1.62,3.02-2.61,6.68-4.86,9.06c0.94,2.38,4.2,3.51,6.25,2.79c-0.16,6.31-0.6,9.56-1.39,14.65c-1.24,0.09-1.46-0.85-2.78-0.69
				c-3.72,10.86,22.09,18.3,21.53,4.18c2.88-0.8,2.7,1.47,4.86,1.4c0.83-2.42,1.51-5,1.39-8.38c6.41-4.48,16.49-5.28,25-7.67
				c5.63,3.41,7.82,10.27,13.19,13.95c10-3.51,15.72-0.03,22.22,0c1.64,1.64-0.12,3.43,0,5.58c0.48,2.19,1.85,0.91,3.47,0.7
				c-4.14,4.01,4.19,4.21,2.08,10.46c0.22,0.06,0.43,0.11,0.64,0.18c2.68,0.75,4.99,1.88,6.31,4.01c-3.12,4.16,2.83,6.51-0.7,11.16
				c2.1,3.4,3.73,2.14,7.64,1.39c2.99,2.23,6.33,4.19,7.64,6.28c0.2,0.45,0.24,0.76,0.19,0.95c-0.25,0.9-2.5-0.22-2.28,1.14
				c1.64,2.53,3.18,5.29,6.25,2.79c1.37,2.12,2.8,4.17,4.17,6.28c0.46-0.46,0.93-0.92,1.42-1.35c2.52-2.22,5.42-3.64,7.61-0.04
				c3.29,0.05,1.57-4.94,4.86-4.89c-0.16,3.05-1.75,6.61,0.69,8.37c1.73-0.58,3.72-0.91,6.25-0.69c2.02,1.22,1.75,4.75,3.47,6.27
				c2.17,0.32,2.22-1.49,2.08-3.48c1.3,0.09,2.33,0.45,2.779,1.39c3.851-1.72,3.74-7.41,4.86-11.86c6.601,0.35,7.271-5.26,11.8-6.97
				c2.681,3.67,6.92,1.06,11.12,0.7c2.29-4.21,6.2-6.79,13.19-6.28c3.05-4.36,9.979-2.74,13.88-4.88c1.54,0.54,1.74,2.43,2.78,3.48
				c4.479-2.92,12.14-0.57,18.06-0.69c3.05,1.26,2.53,3.69,6.25,1.39c0.01,1.64-1.2,2.05-0.7,4.19c6.34,1.25,5.8-4.42,9.721-5.58
				c0,2.09,0,4.18,0,6.27c1.8,1.45,2.579-1.55,4.859,0c2.79,2.09,2.38,7.38,4.86,9.77c2.38-0.18,3.34-1.77,6.25-1.4
				c4.74,10.59,9.06,21.59,18.75,27.21c4.22,0.04,3.31-5.05,6.25-6.28c1.35,5.1,0.08,9.58-2.78,13.25
				c-0.13,2.92,3.311,2.26,4.87,3.49c-3.46,5.36-9.08,8.55-9.03,17.44c1.33,3.07,6.36,2.44,9.721,3.48
				c-2.311,5.98,7.329,11.44,2.779,17.44c0.07,1.79,2.58,1.12,3.471,2.09c1.81,16.32,5.529,30.72,7.64,46.74
				c-3.17,1.899-5.62,2.52-9.03,2.79c-1.75,3.63,2.49,5.149,1.44,10.21c-0.011,0.08-0.03,0.16-0.05,0.25
				c-0.16-0.021-0.32-0.04-0.48-0.05c-8.14-0.69-8.8,8.51-14.8,7.72"/>
			<path style="fill:none;stroke:#231F20;stroke-width:6.7608;" d="M65.57,546.38c-0.06,0.53-0.23,1.08-0.56,1.69
				c-4.8-0.92-7.66-2.19-9.73,0.64"/>
			<path style="fill:none;stroke:#231F20;stroke-width:6.7608;" d="M52.22,562.09c0.19-2.47,0.51-4.83,0.99-7.05
				c0.25-1.16,0.73-2.16,1.34-3.12c0.95-1.5,2.25-2.87,3.52-4.55c2.65,1.83,3.34,2.13,7.63,1.399c-0.1-0.84-0.15-1.64-0.13-2.409
				c-0.01,0.01-0.01,0.01,0,0c0-0.23,0.01-0.45,0.02-0.67c0.54-8.23,7.98-11.04,11.92-17.15c-1.78-8.9,0.46-16.94,11.8-14.65
				c-2.61,10.32,9.87,8.96,11.81,16.74c-0.47,10.101,1.49,22.91,9.72,26.51c-2.72,2.41-2.65,9.271-0.69,12.551
				c-0.78,3.529-6.86,10.88-2.09,13.25c-3.24,9.529-8.52,17.02-18.05,20.229c-0.59,4.29-5.31,4.43-6.95,7.67
				c0.52,0.37,1.06,0.72,1.62,1.061c0.11,0.069,0.23,0.14,0.34,0.21c3.1,1.85,6.56,3.35,9.16,5.71c2.1,0.02,1.73-2.45,2.08-4.19
				c2.01,0.54,1.8,3.311,4.86,2.79c-2.17,2.6-0.04,5.17-1.39,8.37c0.7-0.08,1.38-0.1,2.05-0.08c0.03,0,0.06,0,0.09,0.01
				c6.95,0.221,12.03,5.23,18.69,7.05c10.31-4.189,20.43-0.859,26.38,6.28c-0.46,3.71-2.92,5.431-2.77,9.76
				c1.25,2.16,2.12,0.37,4.86,0.7c1.62,3.79,1.75,3.271,0.69,7.67c1.95,4.92,5.27,4.15,8.34,7.681c1.03-0.601,1-2.25,1.38-3.49
				c2.02,3.79,9.36,2.22,9.03,8.37c2.6,0.74,1.98-1.74,4.17-1.4c0.54,1.55,0.4,3.79,2.08,4.19c3.15,0.37,0.46-5.11,3.47-4.891
				c0.39,8.2-0.47,18.19,4.86,23.021c-0.62,0.53-1.07,1.25-1.42,2.08c-1.38,3.25-1.31,8.26-4.13,11.18
				c0.82,1.95,1.56,4.01,2.08,6.271c2.14,0.52,1.33-1.91,3.47-1.391c0.9,4.15-1.77,4.73-2.08,7.67c-1.96-0.069-2.95-2.63-4.86-0.689
				c-2.66,3.13-0.37,11.25-2.78,14.64c-2.11-0.08-4.03-0.53-6.25,2.09c0.48,6.13-0.31,9.2,2.09,13.25
				c-2.26-0.399-3.24,0.48-4.87,0.7c2.43,16.58,3.17,28.29,1.39,43.95c3.06,3.8,6.22,5.87,11.11,4.88c2.24-0.45,2.87-3.11,6.25-5.58
				c1.14-0.84,2.41-1.47,3.7-2.04c3.86-1.689,7.92-2.7,9.5-6.33c6.46,1.5,10.81-0.51,14.56-3.399c3.2-2.471,5.96-5.591,9.22-7.73
				c0.4-0.26,0.8-0.5,1.21-0.729c3.8-2.091,8.3-2.54,12.72-2.95c0.38-0.04,0.77-0.08,1.16-0.11c6.11-0.59,11.91-1.38,15.29-6.7
				c2.28-0.41,4.49-0.89,6.64-1.439c0.18-0.03,0.36-0.08,0.54-0.13c25.52-6.54,42.88-21.28,73.36-22.851
				c1.22-0.16,1.58-1.2,1.39-2.79c1.36,0.351,2.75,0.59,4.16,0.76c11.97,1.431,25.48-2.859,39.58-1.46
				c1.78-0.06,1.12-2.59,2.09-3.479c1.29,0.56,2.8,0.9,3.47,2.09c26.69-2.72,52.6-6.22,79.16-9.07c0.11-0.529,0.11-0.96,0.03-1.31
				c-0.38-1.84-2.96-1.47-4.01-2.63c-0.07-0.07-0.141-0.15-0.19-0.24c0.88-0.68,2.32-0.82,3.601-0.47
				c1.47,0.399,2.729,1.43,2.76,3.05c0,0.29-0.03,0.59-0.11,0.91c6.71,0.21,16.021,7.95,20.83,1.39c1.03,0.59,1.49,1.76,1.39,3.49
				c12.381,0.38,24.95,7.11,36.801,3.49c0.46-2.79-2.591-2.05-2.78-4.19c0.39-2.87,2.84-3.67,6.25-3.49
				c0.04-0.22,0.07-0.409,0.07-0.58c0-2.149-3.261-1.039-4.23-2.21c1.86-2.199,4.62-3.56,2.771-7.67c4.51,1.24,6.92-2.46,9.72-0.699
				c-1.75,3.819-4.67,6.47-6.24,10.47c0.87,3.3,4.06,4.28,5.55,6.97c11.03-1.2,13.11,6.57,22.92,2.09
				c3.061,0.181,4.34,2.141,8.33,1.4c0.91-0.25,1.09-1.23,2.08-1.4c0.48-7.92-5.01-9.84-3.47-18.83c2.93,0.62,3.92-0.71,4.86-2.09
				c-1.07-7.3-5.431-11.29-4.86-20.229c-1.36-2.351-6.09-1.32-7.64-3.49c-2.99,0.25-2.631,3.87-6.95,2.79
				c-2.07-2.23-0.42-3.87-0.69-7.67c-0.3-1.561-3.42-0.28-4.859-0.7c2.989-10.2-3.671-16.03-5.551-22.32
				c-2.43-8.08-0.279-18.92-7.64-23.01c-2.22-10.96-4.5-20.9-6.95-30c1.351-2.59,3.09-4.81,4.87-6.97
				c-0.69-2.57-2.479-4.021-3.479-6.28c4.729-8.28,5.149-20.87,15.97-23.02c0.38-5.66,3.41-8.67,5.56-12.551
				c-2.04-7.699,7.19-34.17,11.3-50.18c0.521-2.03,0.96-3.9,1.28-5.53c0.391-1.949,0.61-3.569,0.61-4.77c0-0.07,0-0.14,0-0.21
				c-0.28,1.7-1.16,4.92-2.351,9.04c-0.239,0.84-0.5,1.72-0.77,2.64c-4.8,16.3-13.03,42.851-10.771,49.01
				c-2.18,3.381-4.92,6.2-5.55,11.16c-9.92,3.521-11.99,14.92-15.97,24.41c-0.34,3.13,2.45,3.11,2.78,5.58
				c-0.471,3.02-2.73,4.24-4.17,6.27c1.27,11.761,5.08,20.94,6.939,32.091c7.08,4.04,5.26,14.43,7.641,22.319
				c1.89,6.25,8.1,11.69,5.56,23.021c0.3,1.56,3.42,0.28,4.86,0.7c-0.521,2.6-1.471,6.159,0.689,7.67
				c6.55-0.37,7.55-2.96,13.891-0.7c0.199,8.64,4.06,13.59,4.859,21.63c-0.82,0.8-2.46,0.79-4.17,0.69
				c-2.13,8.52,2.93,11.26,3.47,18.84c-3.71,1.96-5.689,0.52-9.71,0c0.62-1.24,2.811-0.891,2.08-3.49
				c-0.21-1.42-1.88-1.37-2.08-2.79c-3.84,1.26-7.319,2.88-9.029,6.28c-5.801-2.78-16.16-0.98-18.061-7.681
				c1.42-3.92,3.16-7.529,6.25-9.76c-0.399-1.45-1.46-2.26-2.08-3.49c-2.729,1.21-6.59,1.28-9.72,2.091
				c1.71,3.97-4.94,6.93-1.39,9.77c-1.381,1.4-3.28,2.28-4.17,4.18c1.149,1.17,0.56,4.101,3.479,3.49
				c-10.83,3.8-23.21-2.66-34.72-2.79c-0.63-1.47-1.08-3.1-2.09-4.18c-4.9,6.3-13.62-0.18-20.131-0.7
				c0.19-0.17,0.391-0.33,0.591-0.49c2.159-1.59,4.729-1.71,7.479-1.41c4.061,0.421,8.54,1.73,12.76,0.5
				c-0.779-4.899-3.17-11.56-8.33-9.76c0.061,3.88,4.021,3.851,4.86,6.98c-7.77,1.13-12.21-5.851-20.83-1.4
				c0.07,1.78,2.32,1.38,4.16,1.4c-0.15,0.05-0.31,0.09-0.47,0.12c-0.48,0.119-0.971,0.199-1.49,0.25
				c-6.16,0.619-14.7-2.75-21.65,0.319c0.61-2.239-1.8-1.45-2.08-2.79c-5.88,3.29-10.13,1.83-17.359,2.101
				c-2.03,0.58,0.91,1.75,0,3.479c-2.96-0.51-4.93-2.02-6.94-3.479c-0.69,1.62-1.53,3.109-2.78,4.18c-2.05-1.32-4.3,0.2-5.55-0.7
				c-1.57-1.51,0.57-2.38,0-4.88c-1.73-1.46-2.39,4.08-6.25,2.79c-1.58,2.45,1.46,2.29,0,4.18c-2.39,1.091-6.75,0.2-6.25,4.19
				c6.29,4.49,13.66-6.89,20.14,0c-11.62,0.31-25.11,6.66-34.21,2.69c-0.42-0.181-0.82-0.381-1.21-0.601
				c-0.01-1.08,0.51-1.63,0.72-2.49c0.12-0.439,0.15-0.96-0.02-1.689c-1.01-0.65-2.17-0.87-3.34-0.811
				c-0.7,0.03-1.4,0.16-2.06,0.351c-1.49,0.43-2.82,1.17-3.63,1.85c-6.55-5.189-17.12-1.97-20.83,3.49c-2.16,0.07-1.98-2.2-4.86-1.4
				c0.01,5.11,6.06,4.141,11.11,4.19c-1.19,1.59-5.3,0.25-7.64,0.689c-3.23,1.181-8.67,0.131-11.8,1.4
				c-1.05-0.81-1.7-2.01-3.47-2.09c-1.92,0.17-2.12,2.05-2.78,3.479c-17.21-0.199-30.39,6.19-42.36,11.86
				c-9.82,4.65-22.09,5.7-30.31,11.69c-0.08,0.05-0.16,0.109-0.24,0.17c-0.1-0.021-0.2-0.03-0.3-0.04
				c-2.79-0.34-3.71,1.21-6.64,0.739c-4.01,3.551-9.94,5.19-15.29,7.4c-0.23,0.08-0.46,0.18-0.68,0.271
				c-0.16-0.061-0.32-0.11-0.48-0.16c-5.93-1.92-10.11,0.43-13.93,3.68c-3.06,2.59-5.9,5.74-9.22,7.73
				c-0.88,0.529-1.8,0.979-2.76,1.31c-3.04,1.04-7.13-0.33-10.42,0.69c-2.92,0.909-3.09,3.26-5.55,4.89
				c-1.63,1.07-3.5,1.91-5.38,2.72c-3.73,1.62-7.45,3.17-9.2,6.351c-5.28,0.869-7.63-1.181-10.42-2.79
				c0.76-14.851,1.2-28.091-2.08-43.95c1.66-0.42,3.17-1,5.55-0.7c-1.95-4.29-3.3-8.49-2.08-13.95c1.46-1.529,2.71-1.529,4.17,0
				c4.03-3.87,2.58-10.02,3.47-16.04c2.4-0.55,2.93,0.771,4.17,1.4c1.74-2.17,5.38-5.49,3.47-9.07c-0.93-2.149-3.09,1.3-4.17-0.7
				c-3.12-6.21,5.52-11.14,2.08-15.35c0.22-0.94,1.74-0.57,2.78-0.69c-3.12-6.1-7.67-13.579-4.16-22.319
				c-0.7-1.391-1.21-2.98-2.78-3.49c-1.82,0.73-2.27,2.83-2.08,5.58c-1.63-0.93-2-3.12-2.78-4.89c-1.33,0.31-1.75,1.51-3.47,1.399
				c0.09-5.91-7.9-3.689-9.03-8.37c-1.22,0.641-2.42,1.3-2.08,3.49c-2.4-2.25-5.92-3.36-7.64-6.28c1.64-3.56,1.05-5.21-0.7-8.37
				c-1.45-1.52-1.98,0.351-4.16,0c-0.86-4.579,2.06-5.359,2.08-9.069c-4.12-8.41-16.73-12.55-26.39-7.67
				c-5.14-2.271-11.16-3.67-14.58-7.67c-1.22,0.83-3.92,0.159-4.8,1.319c-0.03,0.021-0.04,0.05-0.06,0.07
				c-0.01-0.03-0.02-0.05-0.03-0.08c-1.15-2.72-1.81-6.52,0.73-7.59c-1.94-1.54-3.82-3.14-6.25-4.18c-1.5,0.579-0.59,3.59-2.08,4.18
				c-3.78-0.94-3.29-6.18-9.16-5.01c-0.18,0.04-0.37,0.08-0.57,0.13c0.07-0.12,0.15-0.23,0.23-0.34
				c7-10.46,21.21-13.66,24.08-28.261c-2.89-3.569-0.55-8.92,2.77-12.55c-1.77-4.27-2.95-9.439,0-13.26
				c0.3-1.99-3.29-2.021-4.86-4.18c-3.5-4.841-3-16.471-4.86-23.021c-1.46-5.16-6.26-6.82,0.7-10.46c1.36,5.95,7.86-1.26,10.41,3.49
				c-1.66-5.96-8.9,1.37-10.41-4.19c-2.41,0.601-3.28,2.761-4.86,4.19c-3.18-0.771-5.07-2.82-7.64-4.19
				c-0.69-2.729,1.53-4.05,0-5.58c-8.19-3.649-13.56,1.091-14.58,8.37c4.43,9.41-7.58,12.3-10.42,18.83
				c-0.01,1.91,0.55,3.23,0.58,4.601c0.02,0.22,0.01,0.439-0.02,0.67"/>
			<path style="fill:none;stroke:#231F20;stroke-width:6.7608;" d="M157,792.84c2.43-0.46,6.7,0.93,7.93-0.72
				C162.5,792.58,158.24,791.19,157,792.84z"/>
			<path style="fill:none;stroke:#231F20;stroke-width:7;" d="M569.16,722.22c3.01,0.61,3.41-1.399,5.77-1.439
				c0.62,0.58,0.431,1.979,1.44,2.17c-2.37,1.71-6.101,2.06-8.65,3.6C566.46,726.15,569.19,723.76,569.16,722.22z"/>
		</g>
	</g>
</g>
<rect x="0.25" y="0.25" style="fill:none;" width="850.394" height="850.394"/>
</svg>
