<?xml version="1.0" encoding="iso-8859-1"?>
<!-- Generator: Adobe Illustrator 12.0.1, SVG Export Plug-In . SVG Version: 6.00 Build 51448)  -->
<!DOCTYPE svg PUBLIC "-//W3C//DTD SVG 1.1//EN" "http://www.w3.org/Graphics/SVG/1.1/DTD/svg11.dtd" [
	<!ENTITY ns_svg "http://www.w3.org/2000/svg">
	<!ENTITY ns_xlink "http://www.w3.org/1999/xlink">
]>
<svg  version="1.1" id="Layer_1" xmlns="&ns_svg;" xmlns:xlink="&ns_xlink;" width="850.394" height="850.394"
	 viewBox="0 0 850.394 850.394" style="overflow:visible;enable-background:new 0 0 850.394 850.394;" xml:space="preserve">
<g>
	<g id="XMLID_1_">
		<g>
			<path style="fill:#FFF5B4;" d="M204.68,150.73c0.11-2.85,0.23-5.71-1.37-6.84c-2.01,3.94-2.72,11.21-8.9,8.9
				c-0.64-1.5,0.42-6.14,0-9.58c-1.67-1.29-3.1-2.83-5.47-3.42c-2.68-10.78-16.33-10.58-17.1-23.27c5.82,1.08,7.74-3.75,9.76-8.57
				c0.16-0.11,0.33-0.22,0.5-0.32c-0.03-0.24-0.05-0.48-0.07-0.71c1.21-2.83,2.56-5.51,4.86-6.82c2.77,0.55,3.93,2.7,7.69,2.27
				c1.06,0.26,2.14,0.52,3.17,0.8c6.12,3.84,8.07,11.83,16.5,13.35c1.52-6.07,6.41-8.77,9.82-12.94c0.15-0.03,0.3-0.04,0.45-0.06
				c-0.02-0.15-0.03-0.3-0.04-0.45c0.83-1.08,1.55-2.27,2.09-3.65c4.58,1.81,3.37,9.4,9.58,9.58c1.01-0.36,1.72-1.02,2.73-1.37
				c-0.35-3.19-1.34-6.1,0.69-8.21c7.53,3.19,10.17,11.27,17.1,15.05c0.33-0.4,0.62-0.83,0.88-1.29c2.31,1.01,2.62,0.17,0.9-1.87
				c2.06-5.19,2.29-12.2,8.49-13.26c3.19,1.37,4.12,5.01,5.47,8.21c1.98-1.57,7.2-7.48,10.95-8.21c1.62-0.32,3.25-0.36,4.82-0.4
				c3.71-0.1,7.12-0.18,9.55-3.7c0.9-5.01-1.31-6.9-2.06-10.27c2.37,0.09,3.97-0.59,3.42-3.42c5.54,1.57,7.52-5.47,15.05-4.1
				c1.45-1.34,2.12-3.45,3.77-4.58c0.11-0.07,0.22-0.14,0.34-0.21c4.09,3.89,10.93,5.04,10.26,13.68c0.23,0,0.46,0.01,0.69,0.03
				c6.02,0.52,8.8,7.4,13.68,8.18c5.31,0.85,9.91-5.44,17.11-2.05c0.35,2.15,1.19,3.82,2.05,5.47c10.31-2.77,17.63-4.07,25.31,2.06
				c-1.43,3.81-3.54,6.95-5.47,10.26c-7.05-3.13-10.15,14.06-2.05,14.36c2.1,6.31,1.08,10.8,1.36,17.11
				c2.91-2.48,10.32,1.66,15.74,2.74c0.09,1.68,0.1,3.29-0.68,4.1c4.02,3.27,7.58,7.01,15.73,6.16c0.72,1.57,0.44,4.13,1.37,5.47
				c1.6-0.23,2.95-0.7,3.42-2.05c1.7,0.1,0.2,2.32,0,2.74c7.02-0.06,14.64-3.15,19.16-3.42c0.69,1.81,1.95,3.07,3.34,4.18h0.011
				c1.39,1.12,2.92,2.09,4.18,3.34c0.25,2.08-2.229,1.42-3.43,2.05c-2.05,0.69-1.21-1.52-1.37-2.73
				c-7.17,1.03-10.74,5.67-14.36,10.26c-2.47-0.41-4.59-1.15-6.84,0c-0.24,3.66,4.56,2.28,6.84,3.42
				c-4.24,10.59-17.27,12.38-27.37,17.11c-0.7,4.53,6.42,4.26,4.79,7.52c-6.79-0.05-10.62-3.06-15.05-5.47
				c-1.36-2.58,0.66-4.43,0.68-7.53c-1.28-1.68-5.46-0.48-6.16,0.69c1.18,4.52,3.19,8.22,4.11,12.99c-3.43,2.96-6.06,6.72-9.58,9.58
				c0.26,5.28-0.18,9.85-1.37,13.69c-8.89,2.05-11.52,10.37-19.15,13.68c-2.7,0.88-1.78-1.87-2.74-2.74
				c-8.68,5.46-8.52,19.77-14.37,28.06c0.75,1.99,0.77,4.71,1.78,6.43c0.03,0.18,0.07,0.36,0.12,0.54
				c-3.65,3.32-2.52,11.42-8.74,12.18c-1.97,3.84-0.92,5.96,0.68,7.83c0,0.13,0,0.25,0,0.38c0.54,0.41,1.05,0.84,1.54,1.3
				c0.42,0.46,0.83,0.93,1.2,1.44c3.1,4.31,5.86,14.13,8.9,18.47c3.08,4.42,7.65,7.53,9.57,11.63c8.43-0.82,9.5,8.32,15.74,7.53
				c-1.02,5.12,3.67,4.54,4.1,8.21c-2.08,0.66-2.85,2.62-4.1,4.11c4.5,19.9,20.53,28.28,33.53,39.68
				c-0.21,5.62,2.66,8.16,6.06,10.16c-0.17-0.08-0.33-0.14-0.47-0.2c5.73,3.82,30.84,19.64,36.96,25.11
				c-2.69,0.54-4.6-2.05-6.979-3.6c0.89,2.85,5.38,6.74,7.529,4.11c2.41,1.92,2.2,6.46,7.521,5.47c-0.88,1.17-1.41,2.69-3.42,2.73
				c11.84,11.199,20.489,25.58,30.79,38.319c2.369,0.551,2.63-1.02,4.79-0.689c1.67,2.21,0.76,7,4.109,7.53
				c-0.46,2.289-2.13,3.35-2.74,5.479c8.95,22.9,16.721,45.09,22.58,67.04c-3.1,0.37-1.63-3.85-3.43-4.78
				c-2.12,7.82,0.81,16.521,4.11,21.2c-1.61-0.21-1.271-2.37-3.42-2.05c-3.181,3.78,0.689,6.56,2.739,8.899
				c-1.84,8.75,5.28,13.641,7.521,20.521c-0.91,2.35-4.92,2.66-2.73,6.16c-13.729-0.19-8.229,12.8-3.43,19.84
				c-3.31-0.56-5.17-2.57-6.83-4.79c-0.979,3.5,1.03,9.9,4.1,11.63c-0.85,2.08-2.35-0.74-4.1,0c0.65,6.44-1.07,13.76-2.75,19.84
				c0.29,2.34,3.76-1.029,3.43,0.69c0.801,1.02,0.851,2.8,2.051,3.42c-2.471,1.86-2.21,6.46-5.48,7.52
				c-2.45,0.181-2.5-2.05-4.78-2.05c-0.399,5.08,1.07,12.021-1.37,15.061c-2.97,0-5.93,0-8.89,0c-2.26,1.62-3.68,4.08-4.8,6.84
				c-3.53,0.45-3.44,0.53-7.521,0.68c-1.97,4.14-6.069,6.15-9.409,8.91c-0.061,0-0.11-0.01-0.17-0.01
				c-0.011,0.06-0.011,0.109-0.021,0.17c-1.33,1.12-2.52,2.37-3.4,3.93c-9.38-3.09-13.31,3.601-13.689,11.63
				c-2.33-0.17-3.28-1.729-6.15-1.37c-6.51,2.62-13.739,4.511-17.11,10.261c-5.01,1.369-11.34,1.43-13,6.159
				c-5.65-2.659-6.71,2.671-10.26,4.11c-0.98-1.479,0.59-4.979,0.69-7.53c-0.95-1.79-3.54-1.939-5.48-2.739
				c-3.35,0.729,1.73,6.6-2.74,6.85c-2.47-1.04,0-3.05-0.68-6.16c-2.73-0.22-1.44,3.57-2.73,4.79c-2.21-1.22-3.48-3.37-4.11-6.16
				c-2.67,0.07-2.71,2.771-4.11,4.11c3.18,1.39,5.31,3.81,5.48,8.21c-2.52,0.22-6.06-0.59-7.53,0.68c2,3.021,5.68,4.351,8.21,6.84
				c-1.02,5.721-7.65,1.62-8.21,7.53c-2.54-1.34-4.79-2.96-7.52-4.109c1.18,4.739,6.19,5.67,9.57,8.21
				c0.37,2.43-2.42,1.689-2.05,4.109c-7.63-2.18-10.94-8.67-17.1-12.319c3.85,6.63,7.96,13.02,14.36,17.109
				c-1.82,2.28-1.37,6.84-3.42,8.891c-5.65,1.029-8.61-2.99-12.31,0c-5.49-6.601-11.25-12.921-17.1-19.15
				c3.14,7.65,15.28,16.93,13.68,27.36c-18.02,7.529-41.4,9.689-45.16,31.47c-7.65,3.02-15.63,10.85-25.31,7.53
				c2.32-4.061,7.88-4.891,8.21-10.94c-2.08-2.41-3.85,3.88-6.16,1.36c0.42-18.511,1.2-36.65,5.47-51.311
				c3.65-2.06,7.08-4.33,10.27-6.85c-1.44-7.061-7.84-6.79-13-8.891c0.18-2-1.55-2.1-1.37-4.1c-6-1.74-8.2,3.43-10.95,2.73
				c0.23-6.62-5.6-7.171-6.16-12.99c3.92,0.26,4.06-3.25,6.16-4.8c4.56,0,9.12,0,13.69,0c3.74-3.78,6.65-8.4,10.26-12.311
				c-1.51-2.689-2.11-7.189,0.68-8.89c3.14,2.56,8.33,3.069,12.32,4.78c1.35-1.16,1.83-3.181,2.05-5.471
				c6.68,2.681,12.35-1.1,19.16-2.05c4.04,0.74,2.97,6.6,5.47,8.89c2.09,1.75,1.83-3.229,4.79-2.729c2.69,0.95,4.63,2.66,7.53,3.42
				c2.89-1.87,2.6-3.61,1.36-6.84c3.87,0.75,1.61-5.391,1.37-6.851c-2.28-1.149-2.33,0.44-4.79,0.69c-1.09-5.06-5.75-6.56-9.57-8.9
				c-1-6.52-1.31-13.75-3.43-19.149c2.8-0.67,2.77,0.069,6.16,0c2.59-0.84,2.37-4.48,4.11-6.16c7.79,0.64,11.46,5.41,20.52,4.79
				c-0.2-5.8,1.36-9.44-0.68-13.69c2.74,0.59,8.27-3.029,13-0.68c2.16-0.35,1.11-3.91,2.74-4.79c2.59-1.87,4.58-0.3,8.89-0.69
				c6.68-3.979,14.03-17.38,23.94-9.569c2.16-0.811,3.81-2.13,5.48-3.42c-0.56-4.891,0.73-7.94,2.73-10.271
				c2.12-10.72-5.09-14.45-5.47-21.89c-0.53-10.53,8.5-16.66,6.84-26.68c-0.841-5.11-5.09-8.761-8.21-13
				c0.68-1.83,1.41-3.61,1.37-6.16c-7.77-5.05-9.87-15.23-4.79-25.311c2.09-0.5,2.5,0.69,4.11,0.681
				c3.75-2.881,3.3-7.99,2.84-13.011c-0.37-4.159-0.75-8.25,1.26-10.939c-0.72-3.37-3.97-4.24-4.79-7.521
				c2.71-0.68,4.97-0.949,6.84,0.681c0.319-4.7,2.109-7.931,3.43-11.63c-3.51-5.62-5.49-12.75-14.37-13
				c-2.17-3.431-4.4-6.801-6.92-9.891c0.02-0.12,0.05-0.25,0.08-0.37c-0.11,0.021-0.23,0.04-0.33,0.05
				c-0.98-1.199-2.01-2.369-3.1-3.47c1.97-3.51,6.76-4.2,10.95-5.479c1.42-2,2.64-4.2,2.74-7.521c-0.95-1.56-4.76-0.26-6.84-0.689
				c-0.73-5.42-8.71-3.61-8.21-10.26c-8.01-0.43-12.11-5.66-10.95-11.63c-1.25,0.81-0.54,3.57-1.37,4.79l-1.25,0.19
				c-5.26-7.83-14.23-22.86-14.49-28.24c-1.08-1.43-4.78-0.23-6.15-1.37c-2.05-4.57-4.67-8.56-6.16-13.68
				c-1.86-1.87-1.7,1.77-4.1,1.37c-9.93-11.74-25.09-18.25-28.74-36.27c-2.56-2.92-4.78-6.17-5.47-10.94
				c-2.17-0.08-5.39,2.31-6.16,1.37c-4.69-3.99-8.2-9.14-12.32-13.69c0.49-3.39,1.7-6.06,4.79-6.84c-4.2-8.97-18.8-7.85-27.37-13
				c-4.62-2.78-7.84-9.76-15.73-10.95c-0.97-8.84-14.26-5.35-17.79-11.63c2-4.16,7.73-4.58,9.58-8.89c-0.17-3.94-2.88-5.33-3.42-8.9
				c2.92,0.87,3.48,0.06,4.79-2.05c8.89,1.27,14.26,6.06,23.94,4.79c1.94-3.99,3.97-7.9,8.9-8.89c-2.94-5.89,2.31-7.4,5.52-10.21
				c2.13-1.85,3.35-4.28,0.63-8.95c-3.61-3.13-8.55-0.71-13.68-2.05c4.47-7.82-4.42-11.24-12.31-10.95
				c2.16-6.18,10.54-2.11,10.94-10.26c-7.55-6.37-15.1-12.72-23.94-17.79c-4.53,2.54-8.4,5.74-15.05,6.16
				c-1.11,3.68-2.58,7-4.79,9.57c-8.53-6.58-17.6-4.58-26.69-10.94c-3.76-6.73-6.7-14.28-12.31-19.16c1.22-3.11,2.77-5.89,5.47-7.53
				c-0.16-1.2-1.18-1.56-2.74-1.36c3.9-2.68,4.56-10.04,4.11-15.06C207.12,148.62,206.75,150.52,204.68,150.73z"/>
			<path style="fill:#ED1E29;" d="M809.6,63.04v117.75H629.9l-1.08-117.75H809.6z M728.95,126.76l13.41-12.81l-18.04-2.12l-7.5-17.3
				l-7.511,17.3l-18.05,2.12l13.42,12.81l-3.66,18.61l15.801-9.39l15.79,9.39L728.95,126.76z"/>
			<polygon style="fill:#FBED24;" points="742.36,113.95 728.95,126.76 732.61,145.37 716.82,135.98 701.02,145.37 704.68,126.76 
				691.26,113.95 709.31,111.83 716.82,94.53 724.32,111.83 			"/>
			<path style="fill:#C8C8C8;" d="M628.06,55c-1.85,0.87-4.05,1.38-6.42,1.38c-2.26,0-4.37-0.47-6.17-1.27
				c-3.41-1.51-5.68-4.25-5.68-7.38c0-4.77,5.31-8.64,11.85-8.64c6.551,0,11.86,3.87,11.86,8.64C633.5,50.78,631.33,53.47,628.06,55
				z"/>
			<path style="fill:#C8C8C8;" d="M621.64,56.38c2.37,0,4.57-0.51,6.42-1.38v208.01h-12.25l-0.34-207.9
				C617.27,55.91,619.38,56.38,621.64,56.38z"/>
			<path d="M593.97,152.79c0.74,0.58-12.68,10.38-2.05,2.05C592.18,154.64,592.49,153.27,593.97,152.79z"/>
			<path d="M485.19,158.94c-0.641-2.5-3.21-6.67-5.471-9.58c-0.87,3.63,3.261,5.83,1.36,8.21c-5.45-0.47-7.05-4.79-10.38-7.36
				l0.12-0.16c4.609,0.4,5.26,4.78,8.899,6.16c1.23-1.07-3.31-5.77-0.689-8.21c4.75,0.73,4.31,6.63,6.85,9.57
				c3.49,0.39,8.79-1.04,10.26,1.37c2.641,3.87-1.62,5.91-3.43,7.53c5.05-2.26,20.73,0.2,21.9-8.21c-1.021-1.26-2.86-1.71-3.42-3.42
				c1.39-0.66,1.479-2.63,1.369-4.79c2.37,0.55,2.631-1.02,4.79-0.69c-0.63,2.79-1.479,3.31-0.689,6.16
				c1.56,1.76,2.649,1.38,4.109,2.05c1.98,2.58-2.609,4.42,0.681,6.16c3.7,1.42,0.83-3.73,2.74-4.1c1.63,3.16,6.8,2.78,8.89,5.47
				c0.34,2.16-1.23,2.42-0.68,4.79c-2.551-0.04-4.33,0.69-6.16,1.37c-1.41,2.72-0.21,5.84,0,8.89c-1.37,0-2.74,0-4.101,0
				c-0.189,5.7,0.54,7.96-0.689,14.37c7.09-1.4,3.64,11.85,6.16,17.1c3.14,1.65,7.1,2.48,10.26,4.11c-0.83,4.29-3.58,3.13-6.15,1.37
				c0.09,3.1,2.05,4.33,2.73,6.84c11.31,0.43,26.45,0.58,26.68-13.68c-3.689-2.01-7.99-3.41-10.26-6.85c0.8-3.43-1.5-6.2,0-8.21
				c-2.3-0.43-6.351,0.88-7.521-0.68c-2.979-14.09,6.19-8.82,11.631-15.74c0.3-4.19-4.211-7.18-1.37-11.63
				c3.56,0.78,2.46,6.21,4.1,8.9c2.13-0.38,4.46-0.56,6.16-1.37c-0.97-4.29,3.06-10.36,6.84-9.58c-0.44,2.98-3.56,3.28-4.1,6.16
				c4.06-4.83,15.04-2.75,15.729-10.95c0.88-0.34,4.09-1.73,4.11-0.68c-3.3,0.81-3.7,4.51-5.48,6.84
				c-8.109,1.46-13.37,5.78-18.47,10.26c-3.23-0.27-4.5,1.45-6.16-0.68c0.07,7.42-9.56,9.91-12.31,10.26
				c0.33,2.4,1.02,4.45,0.68,7.53c3.2,0,6.39,0,9.58,0c-0.23,2.99,3.09,5.99,2.05,7.52c-4.149,0.96-2.81-3.57-4.79-4.79
				c1.63,2.26-0.56,5.23,0.69,6.84c2.64,4.5,9.01,2.84,10.26,7.53c3.56,13.29-21.55,15.84-30.78,14.37
				c2.79-3.69-4.45-8.15,0.681-10.26c-1.96-1.24-4.58-1.81-6.16-3.43c-0.771-4.7-1.88-9.06-1.37-15.05
				c-8.2,0.64-2.29-11.51-4.101-17.1c1.28-1.34,2.5-0.21,4.101,0c0.16-3.89-1.21-5.61,0-8.9c1.71-1.71,6.47-0.37,6.85-3.42
				c0-0.68,0-1.37,0-2.05c-0.729-2.46-6.22-0.17-6.85-2.74c-0.12,1.03,0.25,2.53-0.68,2.74c-2.021-0.48-4.83-0.19-5.48-2.05
				c-1.09-2.31,2.91-2.92,0.69-4.11c-1.11,2.12-5.65-5.18-4.11-8.21c-2.42,0.09-1.13,3.88-2.73,4.79c1.971,0.3,3.12,1.44,3.421,3.42
				c-0.931,7.13-8.211,5.45-15.061,6.84c-4.2,0.86-9.11,5.06-9.57,0.69c-0.159-3.81,5.83-1.47,4.101-6.84
				C493.34,157.59,489.65,159.56,485.19,158.94z"/>
			<path d="M473.56,674.13c4.08-0.149,3.99-0.229,7.521-0.68c1.12-2.76,2.54-5.22,4.8-6.84c2.96,0,5.92,0,8.89,0
				c2.44-3.04,0.971-9.98,1.37-15.061c2.28,0,2.33,2.23,4.78,2.05c3.271-1.06,3.01-5.659,5.48-7.52c-1.2-0.62-1.25-2.4-2.051-3.42
				c0.33-1.72-3.14,1.649-3.43-0.69c1.68-6.08,3.4-13.399,2.75-19.84c1.75-0.74,3.25,2.08,4.1,0c-3.069-1.729-5.079-8.13-4.1-11.63
				c1.66,2.22,3.521,4.23,6.83,4.79h0.11c0,0.47-0.03,0.92-0.11,1.37c-2.46-0.73-4.48-1.9-6.15-3.42c1.61,3.64,3,7.49,5.471,10.26
				c-1.601,0-3.2,0-4.79,0c-1.36,9.34,7.52,10.88,4.79,17.79c-4.92,0.82-3.851-4.36-5.471-6.84c1.181,3.49-4.029,4.13-1.369,6.84
				c0.279-0.86,0.88-1.4,2.05-1.37c-0.21,3.64,2.359,4.48,2.739,7.53c-3.56,2.88-4.09,9.08-10.949,6.84
				c-0.221,4.34,0.58,9.7-0.681,13c-2.89,0.76-6.51,0.79-10.26,0.68c-1.83,2.061-3.11,4.65-4.8,6.84c-2.51,0-5.01,0-7.521,0
				c-2.09,3.801-3.189,8.57-9.409,8.23C467.49,680.28,471.59,678.27,473.56,674.13z"/>
			<path d="M464.15,683.04c-0.061,0.05-0.131,0.11-0.19,0.16c0.01-0.061,0.01-0.11,0.021-0.17
				C464.04,683.03,464.09,683.04,464.15,683.04z"/>
			<path d="M445.51,419.62c-0.1-0.17-0.229-0.36-0.38-0.55c0.54-0.13,1.12-0.4,1.74-0.82c0.42,4.6,3.99,6.05,8.22,6.84
				c-0.51,2-3.7,1.32-3.43,4.101c12.26,9.409,18.75,24.59,29.42,35.579c2.1,0.5,2.02-1.18,4.11-0.68c2.399,2.61,2.92,7.11,5.47,9.57
				c-1.3,1.43-2.2,3.27-2.73,5.479c7.261,15.311,10.82,34.33,19.15,48.57c-1.07,0.07-2.37-0.09-2.05,1.37
				c1.55,6.06,6.739,11.08,4.79,18.47c-1.301-0.29-1.721-1.47-3.42-1.359c-1.08,8.149,3.05,11.079,4.79,16.42
				c-2.98,0.979-3.15-2.341-4.79-0.69c0.58,4.89,5.119,5.83,3.42,13c3.87,3.43,5.14,9.47,7.529,14.37
				c-4.229,3.72-1.93,9.05,1.36,12.32c-1.5,0.54-0.88,3.21-2.729,3.42c-1.62-2.94-2.221-3.84-5.48-4.11
				c-0.17-2.45,2.06-2.5,2.06-4.79c-12.699,2.96-2.1,11.79-1.949,19.16h-0.11c-4.8-7.04-10.3-20.03,3.43-19.84
				c-2.189-3.5,1.82-3.811,2.73-6.16c-2.24-6.88-9.36-11.771-7.521-20.521c-2.05-2.34-5.92-5.119-2.739-8.899
				c2.149-0.32,1.81,1.84,3.42,2.05c-3.301-4.68-6.23-13.38-4.11-21.2c1.8,0.931,0.33,5.15,3.43,4.78
				c-5.859-21.95-13.63-44.14-22.58-67.04c0.61-2.13,2.28-3.19,2.74-5.479c-3.35-0.53-2.439-5.32-4.109-7.53
				c-2.16-0.33-2.421,1.24-4.79,0.689c-10.301-12.739-18.95-27.12-30.79-38.319c2.01-0.04,2.54-1.561,3.42-2.73
				C447.71,426.08,447.92,421.54,445.51,419.62z"/>
			<path d="M445.13,419.07c0.15,0.19,0.28,0.38,0.38,0.55c-0.16-0.16-0.34-0.33-0.55-0.51C445.02,419.1,445.07,419.08,445.13,419.07
				z"/>
			<path d="M444.96,419.11c0.21,0.18,0.39,0.35,0.55,0.51c-2.149,2.63-6.64-1.26-7.529-4.11
				C440.36,417.06,442.27,419.65,444.96,419.11z"/>
			<path d="M415.4,398.41c-0.16-0.26-0.36-0.54-0.6-0.82c10.01,5.78,26.641,16.59,30.33,21.48c-0.06,0.01-0.11,0.03-0.17,0.04
				c-6.12-5.47-31.23-21.29-36.96-25.11c0.14,0.06,0.3,0.12,0.47,0.2C410.8,395.58,413.39,396.71,415.4,398.41z"/>
			<path d="M414.8,397.59c0.24,0.28,0.44,0.56,0.6,0.82c-2.01-1.7-4.6-2.83-6.93-4.21C409.81,394.8,412.06,396.01,414.8,397.59z"/>
			<path d="M408.92,449.77c0.1-0.01,0.22-0.029,0.33-0.05c-0.03,0.12-0.06,0.25-0.08,0.37C409.1,449.98,409.01,449.88,408.92,449.77
				z"/>
			<path d="M402.41,515.4c3.79-3.28,5.94-8.2,10.26-10.94c2.15,0.58,2.88,2.58,5.47,2.73c4.24-4.58,3.4-10.181,5.47-16.421
				c-1.18-2.689-4.34-3.409-4.1-7.529c2.86-0.641,4.05-1.431,6.84-0.681c4.881-8.609,0.811-16.17-5.47-20.529
				c-1.57-1.65-2.43-0.82-4.79-0.681c-1.22-4.779-7.78-6.25-6.92-11.26c2.52,3.09,4.75,6.46,6.92,9.891
				c8.88,0.25,10.86,7.38,14.37,13c-1.32,3.699-3.11,6.93-3.43,11.63c-1.87-1.63-4.13-1.36-6.84-0.681
				c0.82,3.28,4.07,4.15,4.79,7.521c-2.01,2.689-1.63,6.78-1.26,10.939l-0.11,0.011c-3.48,0.619-3.47,4.729-6.15,6.159
				c-2-0.739-2.58-2.899-5.48-2.739c-2.95,2.55-5.51,8.96-9.56,9.649L402.41,515.4z"/>
			<path d="M393.51,410.72c-1.16,5.97,2.94,11.2,10.95,11.63c-0.5,6.65,7.48,4.84,8.21,10.26c2.08,0.43,5.89-0.87,6.84,0.689
				c-0.1,3.32-1.32,5.521-2.74,7.521c-4.19,1.279-8.98,1.97-10.95,5.479c1.09,1.101,2.12,2.271,3.1,3.47
				c-3.38,0.511-3.59-2.159-4.46-4.159c3.6-5.28,14.42-3.36,14.36-12.311c-2.75-0.47-3.9,0.66-6.15,0.681
				c-1.55-5.29-9.06-4.62-9.58-10.94c-6.06-0.1-8.35-3.97-10.95-7.53C392.97,414.29,392.26,411.53,393.51,410.72z"/>
			<path d="M353.14,324.51c-1.92-4.1-6.49-7.21-9.57-11.63c-3.04-4.34-5.8-14.16-8.9-18.47c-0.37-0.51-0.78-0.98-1.2-1.44
				c5.28,4.95,7.68,12.78,10.78,19.91c4.15,2.24,6.38,6.39,8.89,10.27c5.98,0.63,9.88,3.35,12.32,7.52c2.09,0.5,2.01-1.18,4.1-0.68
				c-0.49,5.74,3.43,7.06,5.48,10.26c-9.55,4.29-2.03,13.43,3.42,20.53c7,9.12,17.54,16.08,24.63,22.57
				c-0.15,2.21,1.21,2.9,0.68,5.48c3.26,2.71,8.79,6.12,11.03,8.76c-2.74-1.58-4.99-2.79-6.33-3.39c-3.4-2-6.27-4.54-6.06-10.16
				c-13-11.4-29.03-19.78-33.53-39.68c1.25-1.49,2.02-3.45,4.1-4.11c-0.43-3.67-5.12-3.09-4.1-8.21
				C362.64,332.83,361.57,323.69,353.14,324.51z"/>
			<path d="M350.41,238.99c-4.13,2.62-2.78,6.5-4.79,12.32c-2.89,8.35-7.38,11.99-5.75,19.43c-1.01-1.72-1.03-4.44-1.78-6.43
				c5.85-8.29,5.69-22.6,14.37-28.06c0.96,0.87,0.04,3.62,2.74,2.74c7.63-3.31,10.26-11.63,19.15-13.68
				c1.19-3.84,1.63-8.41,1.37-13.69c3.52-2.86,6.15-6.62,9.58-9.58c-0.92-4.77-2.93-8.47-4.11-12.99c0.7-1.17,4.88-2.37,6.16-0.69
				c-0.02,3.1-2.04,4.95-0.68,7.53c4.43,2.41,8.26,5.42,15.05,5.47c1.63-3.26-5.49-2.99-4.79-7.52c10.1-4.73,23.13-6.52,27.37-17.11
				c-2.28-1.14-7.08,0.24-6.84-3.42c2.25-1.15,4.37-0.41,6.84,0c3.62-4.59,7.19-9.23,14.36-10.26c0.16,1.21-0.68,3.42,1.37,2.73
				c1.2-0.63,3.68,0.03,3.43-2.05c-1.26-1.25-2.79-2.22-4.18-3.34l0.069-0.08c5.761,2.85,8.601-1.34,13.681-2.74
				c1.609,0.23,0.67,2.99,2.06,3.43c1.23-2.42,0.811-6.49,2.73-8.21c3.5,0.24,7.13,4.2,4.109,6.84c2.63-1.02,4.971-2.33,6.15-4.79
				c-4.9-0.57-3.62-7.32-4.78-11.63c4.12-3.41,9.29,0.22,7.521,6.84l-0.12,0.16c-0.391-0.32-0.8-0.6-1.25-0.85
				c0.3-3.72,0.06-6.89-4.101-6.15c-1.859,4.75,1.4,9.88,4.101,12.31c-2.42,2.6-4.561,5.47-9.57,5.48c1.74-3.25,2.96-6.23-2.06-6.85
				c-0.851,3.49-0.5,8.17-4.101,8.9c-1.51-0.09-0.29-2.9-0.689-4.11c-7.07,0.45-6.84,8.21-14.37,8.21
				c-2.16,0.34-0.25-3.39-2.73-2.73c-4.779,2.06-7.689,5.99-10.95,9.57c-2.32,1.57-4.58-2.07-6.16,0.69
				c2.07,0.9,5.87,0.07,7.53,1.37c-5.03,10.25-15.72,14.83-28.05,17.79c-0.77,4.62,6.26,3.89,5.47,6.84
				c-1.52,5.69-15.26-2.05-18.47-4.11c0.82,1.92,0.75,4.72,0.69,7.53c-8.02,2.47-9.43,11.56-10.27,21.21
				c-8.62,3.23-12.9,10.81-20.52,15.05C354.77,238.73,350.99,240.47,350.41,238.99z"/>
			<path d="M340.14,271.15c-0.05,0.04-0.1,0.09-0.15,0.13c-0.05-0.18-0.09-0.36-0.12-0.54
				C339.95,270.89,340.04,271.02,340.14,271.15z"/>
			<path d="M336.04,283.46c-2.37-0.54-2.89,0.76-4.11,1.37c0,2.15,0,4.31,0,6.46c-1.6-1.87-2.65-3.99-0.68-7.83
				c6.22-0.76,5.09-8.86,8.74-12.18c0.2,0.82,0.48,1.68,0.84,2.6C337.17,275.02,337.42,280.06,336.04,283.46z"/>
			<path d="M333.47,292.97c-0.49-0.46-1-0.89-1.54-1.3c0-0.13,0-0.25,0-0.38C332.41,291.86,332.95,292.4,333.47,292.97z"/>
			<path d="M342.88,91.89c7.16,1.24,17.19-8.41,19.84,3.42c10.02-3.23,20.19-3.13,26,4.11c-2.3,3.63-4.26,7.59-6.84,10.95
				c-4.64-1.96-6.18,4.64-5.48,10.26c6.21,1.56,6.54,11.04,5.48,17.79c2.64-1.67,10.04,2.79,15.73,4.1c0,1.83,0,3.65,0,5.48
				c4.23,2.62,9.2,4.48,15.74,4.79c-0.07,2.12,0.31,3.79,1.37,4.78c0.63-1.19,2.14-1.51,4.1-1.36c0.12,1.02-0.24,2.52,0.69,2.73
				c5.01-1.68,13.521-3.25,17.101-4.1c2.22,0.51,1.64,3.84,2.739,5.47l-0.069,0.08h-0.011c-1.39-1.11-2.649-2.37-3.34-4.18
				c-4.52,0.27-12.14,3.36-19.16,3.42c0.2-0.42,1.7-2.64,0-2.74c-0.47,1.35-1.82,1.82-3.42,2.05c-0.93-1.34-0.65-3.9-1.37-5.47
				c-8.15,0.85-11.71-2.89-15.73-6.16c0.78-0.81,0.77-2.42,0.68-4.1c-5.42-1.08-12.83-5.22-15.74-2.74
				c-0.28-6.31,0.74-10.8-1.36-17.11c-8.1-0.3-5-17.49,2.05-14.36c1.93-3.31,4.04-6.45,5.47-10.26c-7.68-6.13-15-4.83-25.31-2.06
				c-0.86-1.65-1.7-3.32-2.05-5.47c-7.2-3.39-11.8,2.9-17.11,2.05c-4.88-0.78-7.66-7.66-13.68-8.18v-0.03
				C335.87,83.42,337.45,90.96,342.88,91.89z"/>
			<path d="M319.62,70c3.1,5.11,10.81,5.61,9.58,15.05v0.03c-0.23-0.02-0.46-0.03-0.69-0.03c0.67-8.64-6.17-9.79-10.26-13.68
				c-0.12,0.07-0.23,0.14-0.34,0.21l-0.09-0.12C318.44,71.01,319.05,70.53,319.62,70z"/>
			<path d="M314.14,76.16c-7.53-1.37-9.51,5.67-15.05,4.1l-0.07-0.13c5.71-3.14,13.18-4.58,18.8-8.67l0.09,0.12
				C316.26,72.71,315.59,74.82,314.14,76.16z"/>
			<path d="M288.18,97.62c3.53,0,6-2.31,8.17-5.04c0.86-4.51-1.28-6.01-2.05-8.9c1.33-1.44,2.94-2.58,4.72-3.55l0.07,0.13
				c0.55,2.83-1.05,3.51-3.42,3.42c0.75,3.37,2.96,5.26,2.06,10.27c-2.43,3.52-5.84,3.6-9.55,3.7V97.62z"/>
			<path d="M279.25,703.53c-0.89,1.729-4.33,3.12-9.08,4.109c-13.53,2.811-37.68,2.36-43.56-2.689c0.03,0,0.06-0.01,0.08-0.03
				c-0.03-0.01-0.06-0.02-0.1-0.04C227.85,702.85,276.44,703.43,279.25,703.53z"/>
			<path d="M292.94,707.65c-4.57,0-9.13,0-13.69,0c-2.1,1.55-2.24,5.06-6.16,4.8c0.56,5.819,6.39,6.37,6.16,12.99
				c2.75,0.699,4.95-4.471,10.95-2.73c-0.18,2,1.55,2.1,1.37,4.1c5.16,2.101,11.56,1.83,13,8.891c-3.19,2.52-6.62,4.79-10.27,6.85
				c-4.27,14.66-5.05,32.8-5.47,51.311c2.31,2.52,4.08-3.771,6.16-1.36c-0.33,6.05-5.89,6.88-8.21,10.94
				c9.68,3.319,17.66-4.511,25.31-7.53c3.76-21.78,27.14-23.94,45.16-31.47c1.6-10.431-10.54-19.71-13.68-27.36
				c5.85,6.229,11.61,12.55,17.1,19.15c3.7-2.99,6.66,1.029,12.31,0c2.05-2.051,1.6-6.61,3.42-8.891
				c-6.4-4.09-10.51-10.479-14.36-17.109c6.16,3.649,9.47,10.14,17.1,12.319c-0.37-2.42,2.42-1.68,2.05-4.109
				c-3.38-2.54-8.39-3.471-9.57-8.21c2.73,1.149,4.98,2.77,7.52,4.109c0.56-5.91,7.19-1.81,8.21-7.53
				c-2.53-2.489-6.21-3.819-8.21-6.84c1.47-1.27,5.01-0.46,7.53-0.68c-0.17-4.4-2.3-6.82-5.48-8.21c1.4-1.34,1.44-4.04,4.11-4.11
				c0.63,2.79,1.9,4.94,4.11,6.16c1.29-1.22,0-5.01,2.73-4.79c0.68,3.11-1.79,5.12,0.68,6.16c4.47-0.25-0.61-6.12,2.74-6.85
				c1.94,0.8,4.53,0.949,5.48,2.739c-0.1,2.551-1.67,6.051-0.69,7.53c3.55-1.439,4.61-6.77,10.26-4.11
				c1.66-4.729,7.99-4.79,13-6.159c3.371-5.75,10.6-7.641,17.11-10.261c2.87-0.359,3.82,1.2,6.15,1.37
				c0.38-8.029,4.31-14.72,13.689-11.63c0.881-1.56,2.07-2.81,3.4-3.93c-0.229,1.979-0.43,4.01-2.03,4.609
				c-2.979,0.021-6.16,0.23-8.21-0.68c-4.529,2.09-4.71,8.521-6.85,13c-1.92-0.81-3.93-1.54-6.15-2.05
				c-10.08,3.15-14.99,11.47-26.69,13c-1.73,0.77-1.58,3.43-3.42,4.1c-6.1-3.34-5.52,4.63-11.63,3.42
				c-0.08-4.699,2.46-9.72-3.42-9.58c0.58,2.61,1.11,5.131-1.37,6.16c-7.34,2.21-7.55-5.97-10.94-5.47
				c0.81,1.39,6.07,7.48,4.79,10.95c-2.83,0.95-5.29-1.96-6.85,0c2.54,2.02,5.7,3.42,7.53,6.149c-1.45,5.641-7.24,3.771-8.89,8.21
				c-0.48,2.761,2.88,1.681,2.73,4.101c-1.51,1.689-1.9,4.49-4.79,4.8c-2.97-1.36-5.14-3.53-7.52-5.479
				c0.61,4.869,4.7,6.25,7.52,8.899c-1.38,2.49-2.3,5.45-2.73,8.891c-3.04,2.989-5.85-0.19-9.58,0c-1.69,0.09-3.58,2.22-4.11,2.05
				c-3.1-0.95-3.48-6.48-6.84-6.15c3.96,2.99,4.55,9.67,3.42,14.37c-19.84,5.24-40.6,9.57-45.15,30.1
				c-7.34,3.431-18.71,13.33-28.06,6.16c4.13-1.58,5.43-5.979,8.9-8.21c-1.37-0.99-3.96,2.99-6.16,0
				c1.11-18.74,1.17-38.52,6.16-53.37c3.77-1.699,7.62-3.319,9.58-6.84c-2.85-5.6-12.29-4.59-15.05-10.26
				c-5.11-1.01-5.32,2.89-8.9,3.42c-1.37-7.07-6.37-10.51-8.89-16.42c0.22,0.12,0.42,0.22,0.62,0.31c4.53,1.94,5.48-4.3,8.96-5.1
				c4.33,0,8.66,0,13,0c2.96-3.65,5.93-7.3,8.89-10.95c-2.04-3.89-1.28-9.52,3.42-10.27c1.89,3.359,6.88,3.62,10.95,4.8
				c0.6-1.91,0.85-4.17,2.05-5.48c6.07,2.92,13.86-0.729,19.84-2.05c2.08,2.25,4.71,3.96,4.11,8.891c3.06,0.34,3.05-2.41,5.47-2.73
				c2.92,0.95,4.15,3.6,8.21,3.42c1.73-2.88-1.26-3.28-1.37-6.16c1.29-0.3,4.12,0.931,3.42-1.37c0.02-1.609-1.18-2.01-0.68-4.1
				c-2.56-0.74-1.95,1.7-4.11,1.37c-1.44-5.86-8.01-6.59-10.94-10.95c-0.93-6.14-0.64-13.5-3.43-17.79c1.23-2.04,5-2.58,7.53-1.37
				c1.65-1.99,1.86-5.439,4.11-6.84c7.1,1.11,11.43,4.98,19.15,5.47c1.86-4.35-0.76-10.66,0-15.05c3.12,2.39,8.7-2.41,14.37,0
				c-0.73-5.899,5.77-6.13,10.26-4.79c6.71-4.01,9.81-11.63,19.16-13c2.48,0.49,3.54,2.391,6.16,2.74c1.44-0.84,2.66-1.89,4.1-2.74
				c-0.68-5.24,1.14-7.979,2.74-10.939c1.07-9.08-6.459-15.011-5.47-23.95c0.93-8.53,8.26-15.101,6.15-24.63
				c-1.14-5.16-5.29-6.521-8.21-12.32c1.76-0.75,1.35-3.67,1.37-6.15c-8.67-3.34-9.07-17.92-3.42-25.319
				c1.36-1.65,3.26,1.14,4.79-0.681c1.73-2.609,0.92-7.75,2.05-10.949l0.11-0.011c0.46,5.021,0.91,10.13-2.84,13.011
				c-1.61,0.01-2.02-1.181-4.11-0.681c-5.08,10.08-2.98,20.261,4.79,25.311c0.04,2.55-0.69,4.33-1.37,6.16
				c3.12,4.239,7.37,7.89,8.21,13c1.659,10.02-7.371,16.149-6.84,26.68c0.38,7.439,7.59,11.17,5.47,21.89
				c-2,2.33-3.29,5.38-2.73,10.271c-1.67,1.29-3.32,2.609-5.48,3.42c-9.91-7.811-17.26,5.59-23.94,9.569
				c-4.31,0.391-6.3-1.18-8.89,0.69c-1.63,0.88-0.58,4.44-2.74,4.79c-4.73-2.35-10.26,1.27-13,0.68c2.04,4.25,0.48,7.891,0.68,13.69
				c-9.06,0.62-12.73-4.15-20.52-4.79c-1.74,1.68-1.52,5.32-4.11,6.16c-3.39,0.069-3.36-0.67-6.16,0
				c2.12,5.399,2.43,12.63,3.43,19.149c3.82,2.341,8.48,3.841,9.57,8.9c2.46-0.25,2.51-1.84,4.79-0.69
				c0.24,1.46,2.5,7.601-1.37,6.851c1.24,3.229,1.53,4.97-1.36,6.84c-2.9-0.76-4.84-2.47-7.53-3.42c-2.96-0.5-2.7,4.479-4.79,2.729
				c-2.5-2.29-1.43-8.149-5.47-8.89c-6.81,0.95-12.48,4.73-19.16,2.05c-0.22,2.29-0.7,4.311-2.05,5.471
				c-3.99-1.711-9.18-2.221-12.32-4.78c-2.79,1.7-2.19,6.2-0.68,8.89C299.59,699.25,296.68,703.87,292.94,707.65z"/>
			<path d="M276.51,353.93c6.92,3.77,14.64,6.13,16.43,13.69c1.62,6.87-2.94,11.94-3.43,19.15c-0.56,8.39,2.55,15.23,0.69,22.58
				c4.82,7.04,11.98,11.74,14.37,21.209c5.52,2,11.92,3.131,17.1,5.48c-0.43,1.85-2.86,1.7-2.74,4.1
				c1.14,2.29,2.29,4.561,3.42,6.841c2.92-0.4,4.53,0.489,6.85,0.689c4.84,7.36,1.84,16.78-4.11,20.521
				c3.75-0.78,5.03,0.899,5.48,3.42c-2.83,1.96-5.41,4.18-6.85,7.529c1.98,2.811,4.9,4.69,6.85,7.53c-1.33,2.09-3.41,3.43-4.79,5.47
				c4.44,13.061-2.15,24.61-13.69,26c0.77,9.181,8.32,12.17,17.11,8.21c10.2,2.11,11.86,12.761,23.94,13
				c0.44-3.67,2.72-5.489,2.74-9.58c-0.87-2.779-5-2.3-6.16-4.789c1.67-3.101-1.59-4.57-1.37-8.211c2.74,0,5.48,0,8.21,0
				c2.74-0.909,2.92-4.38,4.79-6.159c1.71,0.8,2.64,2.39,5.48,2.05c3.13-1.88,3.31-6.72,7.52-7.521c2.44,1.2,3.9,3.4,4.79,6.15
				c2.87-0.36,3.82,1.2,6.16,1.37c1.17,7.79,11.42,7.12,13.68,0.689c1.21,0.61,2,1.65,3.43,2.051l0.01,0.069
				c-1.03,0.19-2.17-0.01-3.44-0.75c-1.56,3.45-4.6,5.431-10.26,4.78c-1.79-1.63-2.86-3.98-4.1-6.15c-6.63,0.7-6.57-5.3-10.95-6.84
				c-3.18,2.061-3.77,6.721-8.21,7.521c-1.4-0.65-2.71-1.4-4.11-2.05c-0.6,5.329-5.63,6.229-11.63,6.159
				c0.64,6.551,4.2,7.58,7.53,12.311c-1.59,2.979-1.94,7.189-4.11,9.58c-11.85,1.2-14.64-11.271-23.94-12.32
				c-3.59-0.4-6.48,1.33-10.95,2.06c-3.72-2.229-6.17-5.75-6.74-11.13c-0.05-0.39-0.08-0.779-0.1-1.189
				c11.5-1.561,17.57-12.49,13.68-25.311c0.22-3.199,3.88-2.96,4.11-6.159c-2.77-2.021-5.06-4.521-6.85-7.521
				c1.43-3.28,7.23-5.37,6.16-8.9c-1.05-2.529-4.72,1.53-5.47-0.68c5.27-3.56,10.76-12.57,5.47-20.53
				c-2.73,0.23-3.79-1.22-6.84-0.68c-1.76-3.04-5.53-8.68-1.37-11.63c-5.94-1.13-11.18-2.96-16.42-4.79
				c-2.64-9.67-9.91-14.72-15.05-21.9c2.26-8.65-0.82-17.92,0-24.63c0.66-5.38,3.04-5.98,3.42-9.58c1.56-14.75-8.3-13.2-16.42-20.52
				c-3.53-3.19-3.97-8.39-8.93-11.57l0.04-0.06C272.32,344.45,273.53,350.08,276.51,353.93z"/>
			<path d="M266.94,342.99l-0.04,0.06c-0.41-0.27-0.85-0.52-1.33-0.75c-1.83-4.25-4-8.15-6.32-11.91
				C263.03,333.37,265.7,337.47,266.94,342.99z"/>
			<path d="M257.82,110.62c1.39-7.21,3.32-13.87,11.85-13.94c0,3.66,2.13,5.17,3.42,7.53c2.54-3.62,7.63-4.69,10.95-7.53
				c1.53,0.65,2.9,0.94,4.14,0.94v0.03c-1.57,0.04-3.2,0.08-4.82,0.4c-3.75,0.73-8.97,6.64-10.95,8.21
				c-1.35-3.2-2.28-6.84-5.47-8.21c-6.2,1.06-6.43,8.07-8.49,13.26C258.27,111.1,258.06,110.86,257.82,110.62z"/>
			<path d="M262.15,251.88c7.63-0.29,15.05,4.46,23.94,4.22c0.47-5.01,3.38-7.57,7.53-8.9c1.87-1.85-1.77-1.7-1.37-4.1
				c2.05-2.52,4.19-4.94,8.21-5.48l0.05,0.06c-3.21,2.81-8.46,4.32-5.52,10.21c-4.93,0.99-6.96,4.9-8.9,8.89
				c-9.68,1.27-15.05-3.52-23.94-4.79V251.88z"/>
			<path d="M258.45,111.31c1.72,2.04,1.41,2.88-0.9,1.87C257.89,112.6,258.19,111.97,258.45,111.31z"/>
			<path d="M259.25,330.39c-0.17-0.14-0.34-0.27-0.52-0.4c0.01-0.14,0.01-0.29,0.01-0.43C258.91,329.83,259.08,330.11,259.25,330.39
				z"/>
			<path d="M262.15,251.99c-1.31,2.11-1.87,2.92-4.79,2.05c0.54,3.57,3.25,4.96,3.42,8.9c-1.85,4.31-7.58,4.73-9.58,8.89
				c3.53,6.28,16.82,2.79,17.79,11.63c7.89,1.19,11.11,8.17,15.73,10.95c8.57,5.15,23.17,4.03,27.37,13
				c-3.09,0.78-4.3,3.45-4.79,6.84c4.12,4.55,7.63,9.7,12.32,13.69c0.77,0.94,3.99-1.45,6.16-1.37c0.69,4.77,2.91,8.02,5.47,10.94
				c3.65,18.02,18.81,24.53,28.74,36.27c2.4,0.4,2.24-3.24,4.1-1.37c1.49,5.12,4.11,9.11,6.16,13.68c1.37,1.14,5.07-0.06,6.15,1.37
				c0.26,5.38,9.23,20.41,14.49,28.24c1.35,1.99,2.45,3.52,3.11,4.3c-5.5-2.02-18.32-25.66-18.96-32.54c-1.6,0-3.2,0-4.79,0
				c-2.58-4.26-5.19-8.5-6.84-13.68c-0.85-1.96-1.99,2.97-3.42,0.68c-10.76-11.37-26.12-18.13-29.42-36.95
				c-2.39-2.4-5.32-4.26-4.79-9.57c-3.71-0.74-4.08,1.85-7.53,1.36c-3.4-5.94-9.25-9.45-12.31-15.73c1.7-1.72,1.02-5.82,4.1-6.16
				c-2.83-6.89-10.12-6.36-16.42-8.21c-9.94-2.93-16.25-12.05-25.31-15.05c-1.1-9.4-16.43-4.56-18.48-13
				c2.79-3.83,8.69-4.54,10.27-9.58c-1.74-2.37-3.5-4.72-4.11-8.21c2.09-0.98,4.13-1.41,6.16-1.48V251.99z"/>
			<path d="M226.57,99.42c-0.54,1.38-1.26,2.57-2.09,3.65c-0.23-2.82,0.69-4.5,2.77-5.02c3.97,2.41,4.24,11.43,10.27,9.58
				c-0.07-4.18-0.6-8.81,2.73-9.58c9.06,5.14,14.89,9.73,17.57,12.57c-0.15,0.82-0.31,1.65-0.46,2.48c0.06,0.03,0.13,0.06,0.19,0.08
				c-0.26,0.46-0.55,0.89-0.88,1.29c-6.93-3.78-9.57-11.86-17.1-15.05c-2.03,2.11-1.04,5.02-0.69,8.21
				c-1.01,0.35-1.72,1.01-2.73,1.37C229.94,108.82,231.15,101.23,226.57,99.42z"/>
			<path d="M226.69,704.92c-0.02,0.021-0.05,0.03-0.08,0.03c-0.01-0.01-0.03-0.021-0.04-0.03c0-0.01,0.01-0.03,0.02-0.04
				C226.63,704.9,226.66,704.91,226.69,704.92z"/>
			<path d="M226.57,704.92c0.01,0.01,0.03,0.021,0.04,0.03c-2.36,0.729-21.25-16.98-31.29-25.17c-3.02-2.46-5.24-4.07-5.98-4.07
				c2.38-1.46,34.03,27.9,37.25,29.17C226.58,704.89,226.57,704.91,226.57,704.92z"/>
			<path d="M224.48,103.07c0.01,0.15,0.02,0.3,0.04,0.45c-0.15,0.02-0.3,0.03-0.45,0.06C224.21,103.41,224.35,103.24,224.48,103.07z
				"/>
			<path d="M238.2,512.66c-11.5,4.07-24.68,4.3-33.52,10.27c-1.31,0.88-2.26,1.95-3,3.12c-0.31-1.13-0.13-2.2,0.94-3.12
				c8.6-7.359,23.7-6.1,34.9-11.64c1.89,1.53,2.54,4.3,4.79,5.479c12.52-3.89,24.44,1.851,34.33-0.68c2.29-0.59,3.86-2.92,6.03-3.43
				c6.21-1.43,11.78,2.06,17.79,2.74c1.03,1.939,1.43,4.5,2.05,6.84c4.84,1.189,5.07-2.23,7.53-3.42
				c-1.14,2.739-2.27,5.489-6.84,4.79c-1.99-1.2-2.99-3.391-2.74-6.841c-4.57-0.43-8.93-3.529-13.68-3.42
				c-4.25,0.101-8,3.57-12.32,4.101c-10.38,1.3-21.78-3.061-33.52,0C240.2,515.68,238.46,514.91,238.2,512.66z"/>
			<path d="M204.68,106.95c1.51,4.18,3.79,7.61,8.89,8.21c3.45-3.91,4.05-10.66,10.5-11.58c-3.41,4.17-8.3,6.87-9.82,12.94
				c-8.43-1.52-10.38-9.51-16.5-13.35C200.66,103.98,203.29,105.04,204.68,106.95z"/>
			<path d="M201.68,526.05c1.12,4.11,8.55,9.11,3.39,11.24c-0.33,2.81-9.65,5.02-13.68,7.3c0.66-2.55,1.85-4.58,2.34-7.3
				C198.75,534.88,199.15,529.94,201.68,526.05z"/>
			<path d="M195.78,102.16c0.71,0.29,1.36,0.63,1.97,1.01c-1.03-0.28-2.11-0.54-3.17-0.8C194.95,102.33,195.35,102.26,195.78,102.16
				z"/>
			<path d="M171.55,329.15c4.56,4.71,11.73,6.81,18.07,9.73c-0.61,1.51-2.94,5.57,0.69,5.48c4.27-5.05,12.07-10.04,18.47-8.9
				c1.14-1.13,0.54-4.02,0.68-6.16c6.36-1.06,2.65-8.18,10.27-8.21c1.81-0.99-2.51-1.53-1.37-4.1c12.49-7.74,25.49,7.34,34.89,2.73
				c2.64,2.47,5.52,4.7,5.49,9.84c-1.79-2.87-3.65-5.66-5.49-8.47c-9.18,4.46-21.67-10.52-33.52-3.42
				c-0.04,2.09,2.46,1.64,2.05,4.11c-2.2,0.3-3.71,1.31-6.16,1.37c-2.11,5.18-4.83,9.75-7.52,14.36
				c-6.33-2.73-13.87,2.86-16.42,8.22c-2.3,0.01-3.62-0.95-4.79-2.06c0.11-1.94,1.25-2.85,1.36-4.79
				c-6.86,0.87-12.36-5.34-16.75-9.68L171.55,329.15z"/>
			<path d="M186.89,100.1c-2.3,1.31-3.65,3.99-4.86,6.82c-0.35-4.62,1.88-6.72,4.17-7.5c3.22-1.1,0.94,0.96,4.79,2.05
				c1.14,0.32,2.36,0.61,3.59,0.9C190.82,102.8,189.66,100.65,186.89,100.1z"/>
			<path d="M182.03,106.92c0.02,0.23,0.04,0.47,0.07,0.71c-0.17,0.1-0.34,0.21-0.5,0.32C181.74,107.61,181.89,107.26,182.03,106.92z
				"/>
			<path d="M157.47,630.34c-6.59,8.75-9.87,18.09-14.51,27.65c-0.19-0.021-0.37-0.03-0.55-0.03c3.33-11.33,9.1-20.61,17.11-31.04
				c6.83-8.88,19.09-20.5,19.84-32.16c0.27-4.22-2.45-8.29,0-12.31c-7.46-6.29-9.53-15.07-6.84-27.37c6.1,0.86,9.09-1.4,12.32-3.42
				c-0.09-1.57-4.57-2.2-2.74-3.42c2.45-0.74,4.66-1.721,7.52-2.05c0.19-0.54,0.84-1.07,1.77-1.601c-0.18,0.71-0.33,1.46-0.4,2.28
				c-2.9-0.17-3.68,1.79-6.84,1.37c-0.37,2.43,2.42,1.68,2.05,4.109c-3.73,1.74-6.99,3.95-12.31,4.101
				c-4.1,9.66,0.25,21.26,6.15,25.319C182.97,606.01,168.44,615.77,157.47,630.34z"/>
			<path d="M142.42,124.73c4.57-4.54,5.59-12.65,13-14.36c0.8,2.15,2.12,3.8,3.41,5.47c5-4.39,10.76-0.08,17.11,0
				c1.21-3.31,2.97-6.07,5.66-7.89c-2.02,4.82-3.94,9.65-9.76,8.57c0.77,12.69,14.42,12.49,17.1,23.27c2.37,0.59,3.8,2.13,5.47,3.42
				c0.42,3.44-0.64,8.08,0,9.58c6.18,2.31,6.89-4.96,8.9-8.9c1.6,1.13,1.48,3.99,1.37,6.84c2.07-0.21,2.44-2.11,5.47-1.37
				c0.45,5.02-0.21,12.38-4.11,15.06c1.56-0.2,2.58,0.16,2.74,1.36c-2.7,1.64-4.25,4.42-5.47,7.53c5.61,4.88,8.55,12.43,12.31,19.16
				c9.09,6.36,18.16,4.36,26.69,10.94c2.21-2.57,3.68-5.89,4.79-9.57c6.65-0.42,10.52-3.62,15.05-6.16
				c8.84,5.07,16.39,11.42,23.94,17.79c-0.4,8.15-8.78,4.08-10.94,10.26c7.89-0.29,16.78,3.13,12.31,10.95
				c5.13,1.34,10.07-1.08,13.68,2.05c2.72,4.67,1.5,7.1-0.63,8.95l-0.05-0.06c1.32-2.75,0.39-6.55-0.68-8.89
				c-3.69-1.55-11.05,0.55-13.69-2.05c0-2.29,2.23-2.34,2.06-4.79c-2.36-5.66-8.53-3.31-13.69-6.16c0-8.18,10.3-1.94,10.26-10.26
				c-7.64-5.36-13.72-12.28-22.57-16.42c-4.54,2.53-8.91,5.23-15.05,6.15c0.98,5.55-2.82,6.31-4.79,8.9
				c-8.72-5.63-20.01-4.93-28.06-11.63c-3.36-7.13-7.01-13.97-12.31-19.16c1.2-2.9,3.01-5.2,4.79-7.53
				c-1.02-0.11-2.53,0.25-2.74-0.68c3.16-3.88,7-6.86,4.79-14.37c-2.5-0.85-3.67,3.11-4.79,1.37c-0.87-2.92,0.76-4.1-0.68-6.16
				c0.35,5.57-6.42,11.13-10.27,6.16c-0.38-3.12,1.22-4.26,0.69-7.52c-1.92-3.78-7.68-3.73-7.53-9.58
				c-7.53-4.78-14.28-10.35-17.1-19.84c-3.27-1.24-7.54,0.65-10.27,2.05c-1.91-1.51-2.36-4.48-4.78-5.48
				c-3.33,3.32-9.74,8.27-10.27,14.37c-0.16,1.82,0.01,3.65,0.43,5.43l-0.07,0.02C143.65,129.2,143.17,126.83,142.42,124.73z"/>
			<path d="M142.96,657.99c-0.4,0.819-0.81,1.64-1.23,2.46c0.21-0.84,0.44-1.67,0.68-2.49
				C142.59,657.96,142.77,657.97,142.96,657.99z"/>
			<path d="M141.73,660.45c0.42-0.82,0.83-1.641,1.23-2.46c12.45,0.8,39.61,16.149,47.17,22.09c3.78,2.96,2.66,3.58-7.63-1.15
				c-2.35-1.069-43.08-16.87-45.56-18.479c0.7-1.851,2.67-2.58,5.47-2.49C142.17,658.78,141.94,659.61,141.73,660.45z"/>
			<path d="M145.84,173.31c-0.22,4.06,6.3,4.39,8.21,4.11c2.54-4.11-1.94-4.75-2.74-7.53c0.11-6.04-0.5-12.82,3.42-15.05
				c-2.06-2.04-2.14-6.07-2.05-10.26c-5.96-1.23-7.29-7.08-8.54-13.03l0.07-0.02c1.39,5.79,5.49,11.05,9.84,13.73
				c-1.78,3.98,0.97,7.72,2.05,10.95c-6.07,1.79-3.81,16.22,0,18.47c-1.01,1.5-1.34,3.68-2.74,4.79c-2.11-1.11-6.03-3.19-8.89-1.37
				c0-1.37,0-2.74,0-4.11c-6.41-0.02-11.73,1.04-15.05,4.11c-3.43-4.48-0.36-13.7-1.89-19.93l0.09-0.02
				c1.28,5.14,1.87,10.86,1.8,17.9C133.88,174.12,138.84,172.7,145.84,173.31z"/>
			<path d="M124.63,264.31c1.34,5.97,1.85,12.76,4.91,17.01l-0.12,0.09c-1.33-1.64-3.84-2.09-4.11-4.79
				c0.74-5.3-0.7-8.43-2.05-11.63c-0.2-4.53,4.9-3.77,4.11-8.89l0.03-0.13c0.22,0.04,0.44,0.08,0.65,0.13
				C129.41,261.34,124.85,260.65,124.63,264.31z"/>
			<path d="M130.78,350.51c-5.9,1.63-7.12,7.93-11.63,10.95c-4.01-2.38-7.3-5.47-11.63-7.53c3.84-8.25,6.22-17.95,13.69-22.57
				c-0.04-5.29-1.68-8.72-0.69-13.69c-2.43-1.67-5.07-3.13-5.47-6.84c3.78-4.13,8.77-5.96,10.26-11.63
				c0.05-0.18-1.36-2.85-1.37-2.74c0.25-5.02,4.07-9.74,5.48-15.05l0.12-0.09c0.37,0.53,0.78,1.02,1.24,1.46
				c-2.55,4.47-7.21,11.95-4.1,17.79c-3.36,4.16-7.76,7.29-10.26,12.31c0.94,2.48,4.32,2.52,5.47,4.79
				c-1.94,3.58,0.29,8.68,0.68,13.69c-8.05,5.45-9.44,13.68-14.36,22.57c5.25,0.45,6.57,4.84,10.94,6.16
				c4.15-3.15,5.22-9.38,11.63-10.26c0.12-1.02-0.24-2.53,0.69-2.74c4.46,0.26,7.14-2.67,8.89-6.84c1.99-0.75,4.86-0.62,6.84-1.37
				c-0.02-3.44,0.34-6.5,2.06-8.21c1.83,0.68,3.61,1.41,6.16,1.37c4.79-2.38,5.58-9.69,12.99-7.53c0.79,1.8,1.86,3.33,3.14,4.64
				l-0.05,0.05c-2.2-2.18-4.13-3.88-5.82-4c-6.78-0.47-6.97,12.75-16.42,6.84c-0.88,2.54-1.08,5.77-2.06,8.21
				c-2.89-0.16-4.84,0.63-6.84,1.37c0.22,3.84-4.91,7.45-8.21,6.15C130.29,347.29,132.64,351,130.78,350.51z"/>
			<path d="M104.1,171.26c0.09-0.01,0.18-0.02,0.27-0.04c-0.09,0.27-0.2,0.53-0.31,0.79C104.08,171.76,104.1,171.52,104.1,171.26z"
				/>
			<path d="M94.52,226.68c-8.98,1-4.39-11.57-13-10.95c-1.8,1.62-3.58,3.26-4.1,6.16c-1.37,0-2.74,0-4.11,0
				c1.65-13.11,4.01-27.11,15.74-29.42c2.59-0.51,6.37,2.66,8.89-0.69c-2.46,0.41-3.85-0.24-4.1-2.05
				c0.61-8.07,7.28-10.66,10.22-17.72c-0.6,8.47-8.64,9.53-9.54,17.72c1.14,1.15,4.02,0.55,6.16,0.69c-1.84,4.95-6.23,3.25-13,3.42
				c-9.36,3.1-13.84,19.97-12.31,27.36c2.75-2.94,3.39-8.01,10.26-6.84c1.68,3.34,3.13,6.9,4.79,10.27c1.27,1.23,4.9,0.11,5.47,2.05
				c-1.54,7.81-4.79,13.91-8.21,19.84c1.7,4,2.63,8.77,5.48,11.63c3.55-1.89,8.06-1.56,10.94,0.68c2.88-1.22,2.8-5.41,6.16-6.16
				c6.3,2.38,12.19,2.36,17.14,3.3l-0.03,0.13c-5.66,1.65-10.73-1.49-17.79-2.06c-2.36,1.75-2.71,5.51-6.16,6.16
				c-2.28-3.16-6.54-3.08-9.58-0.68c-4.7-2.38-5.06-9.08-7.53-13.69C90.39,240.78,93.46,234.73,94.52,226.68z"/>
			<path d="M91.79,157.57c12.93,10.94,17.82-12.01,31.47-10.94c1.91,3.74,3.35,7.45,4.36,11.52l-0.09,0.02
				c-0.05-0.2-0.1-0.4-0.16-0.6c-7.32,4.91-12.14,12.3-23,13.65c0.16-0.43,0.3-0.87,0.42-1.33c10.23-1.18,14.86-7.94,21.21-13
				c-1.62-2.49-2.52-5.69-3.43-8.89c-14.77-0.5-13.22,17.23-27.36,13.68c-1.4-0.35-2.54-2.6-4.79-2.74
				c-3.68-0.22-6.52,1.46-9.58,4.11c-0.88-1.63-4.44-0.58-4.79-2.74c0.45-4.12,2.35-6.78,3.42-10.26c-3.16-0.97-6.27-0.59-9.51-0.07
				l-5.59-0.34c7.04-0.33,13.29-3.46,17.15,1.09c-2.3,1.96-5.28,6.36-3.42,10.27C82.94,162.15,85.71,157.24,91.79,157.57z"/>
			<path d="M59.63,149.36l4.74,0.28C62.82,149.72,61.24,149.66,59.63,149.36z"/>
		</g>
		<g>
			<polyline style="fill:none;stroke:#231F20;stroke-width:7;" points="628.82,63.04 809.6,63.04 809.6,180.79 629.9,180.79 			"/>
			<path style="fill:none;stroke:#231F20;stroke-width:7;" d="M615.47,55.11c-3.41-1.51-5.68-4.25-5.68-7.38
				c0-4.77,5.31-8.64,11.85-8.64c6.551,0,11.86,3.87,11.86,8.64c0,3.05-2.17,5.74-5.44,7.27c-1.85,0.87-4.05,1.38-6.42,1.38
				C619.38,56.38,617.27,55.91,615.47,55.11z"/>
			<polyline style="fill:none;stroke:#231F20;stroke-width:7;" points="615.47,54.87 615.47,55.11 615.81,263.01 			"/>
			<polyline style="fill:none;stroke:#231F20;stroke-width:7;" points="628.06,54.44 628.06,55 628.06,263.01 			"/>
			<polygon style="fill:none;stroke:#231F20;stroke-width:4;" points="728.95,126.76 742.36,113.95 724.32,111.83 716.82,94.53 
				709.31,111.83 691.26,113.95 704.68,126.76 701.02,145.37 716.82,135.98 732.61,145.37 			"/>
			<path style="fill:none;stroke:#231F20;stroke-width:7.174;" d="M445.13,419.07c0.54-0.13,1.12-0.4,1.74-0.82
				c0.42,4.6,3.99,6.05,8.22,6.84c-0.51,2-3.7,1.32-3.43,4.101c12.26,9.409,18.75,24.59,29.42,35.579c2.1,0.5,2.02-1.18,4.11-0.68
				c2.399,2.61,2.92,7.11,5.47,9.57c-1.3,1.43-2.2,3.27-2.73,5.479c7.261,15.311,10.82,34.33,19.15,48.57
				c-1.07,0.07-2.37-0.09-2.05,1.37c1.55,6.06,6.739,11.08,4.79,18.47c-1.301-0.29-1.721-1.47-3.42-1.359
				c-1.08,8.149,3.05,11.079,4.79,16.42c-2.98,0.979-3.15-2.341-4.79-0.69c0.58,4.89,5.119,5.83,3.42,13
				c3.87,3.43,5.14,9.47,7.529,14.37c-4.229,3.72-1.93,9.05,1.36,12.32c-1.5,0.54-0.88,3.21-2.729,3.42
				c-1.62-2.94-2.221-3.84-5.48-4.11c-0.17-2.45,2.06-2.5,2.06-4.79c-12.699,2.96-2.1,11.79-1.949,19.16c0,0.47-0.03,0.92-0.11,1.37
				c-2.46-0.73-4.48-1.9-6.15-3.42c1.61,3.64,3,7.49,5.471,10.26c-1.601,0-3.2,0-4.79,0c-1.36,9.34,7.52,10.88,4.79,17.79
				c-4.92,0.82-3.851-4.36-5.471-6.84c1.181,3.49-4.029,4.13-1.369,6.84c0.279-0.86,0.88-1.4,2.05-1.37
				c-0.21,3.64,2.359,4.48,2.739,7.53c-3.56,2.88-4.09,9.08-10.949,6.84c-0.221,4.34,0.58,9.7-0.681,13
				c-2.89,0.76-6.51,0.79-10.26,0.68c-1.83,2.061-3.11,4.65-4.8,6.84c-2.51,0-5.01,0-7.521,0c-2.09,3.801-3.189,8.57-9.409,8.23
				c-0.061,0-0.11-0.01-0.17-0.01c-0.011,0.06-0.011,0.109-0.021,0.17c-0.229,1.979-0.43,4.01-2.03,4.609
				c-2.979,0.021-6.16,0.23-8.21-0.68c-4.529,2.09-4.71,8.521-6.85,13c-1.92-0.81-3.93-1.54-6.15-2.05
				c-10.08,3.15-14.99,11.47-26.69,13c-1.73,0.77-1.58,3.43-3.42,4.1c-6.1-3.34-5.52,4.63-11.63,3.42
				c-0.08-4.699,2.46-9.72-3.42-9.58c0.58,2.61,1.11,5.131-1.37,6.16c-7.34,2.21-7.55-5.97-10.94-5.47
				c0.81,1.39,6.07,7.48,4.79,10.95c-2.83,0.95-5.29-1.96-6.85,0c2.54,2.02,5.7,3.42,7.53,6.149c-1.45,5.641-7.24,3.771-8.89,8.21
				c-0.48,2.761,2.88,1.681,2.73,4.101c-1.51,1.689-1.9,4.49-4.79,4.8c-2.97-1.36-5.14-3.53-7.52-5.479
				c0.61,4.869,4.7,6.25,7.52,8.899c-1.38,2.49-2.3,5.45-2.73,8.891c-3.04,2.989-5.85-0.19-9.58,0c-1.69,0.09-3.58,2.22-4.11,2.05
				c-3.1-0.95-3.48-6.48-6.84-6.15c3.96,2.99,4.55,9.67,3.42,14.37c-19.84,5.24-40.6,9.57-45.15,30.1
				c-7.34,3.431-18.71,13.33-28.06,6.16c4.13-1.58,5.43-5.979,8.9-8.21c-1.37-0.99-3.96,2.99-6.16,0
				c1.11-18.74,1.17-38.52,6.16-53.37c3.77-1.699,7.62-3.319,9.58-6.84c-2.85-5.6-12.29-4.59-15.05-10.26
				c-5.11-1.01-5.32,2.89-8.9,3.42c-1.37-7.07-6.37-10.51-8.89-16.42c0.22,0.12,0.42,0.22,0.62,0.31c4.53,1.94,5.48-4.3,8.96-5.1
				c4.33,0,8.66,0,13,0c2.96-3.65,5.93-7.3,8.89-10.95c-2.04-3.89-1.28-9.52,3.42-10.27c1.89,3.359,6.88,3.62,10.95,4.8
				c0.6-1.91,0.85-4.17,2.05-5.48c6.07,2.92,13.86-0.729,19.84-2.05c2.08,2.25,4.71,3.96,4.11,8.891c3.06,0.34,3.05-2.41,5.47-2.73
				c2.92,0.95,4.15,3.6,8.21,3.42c1.73-2.88-1.26-3.28-1.37-6.16c1.29-0.3,4.12,0.931,3.42-1.37c0.02-1.609-1.18-2.01-0.68-4.1
				c-2.56-0.74-1.95,1.7-4.11,1.37c-1.44-5.86-8.01-6.59-10.94-10.95c-0.93-6.14-0.64-13.5-3.43-17.79c1.23-2.04,5-2.58,7.53-1.37
				c1.65-1.99,1.86-5.439,4.11-6.84c7.1,1.11,11.43,4.98,19.15,5.47c1.86-4.35-0.76-10.66,0-15.05c3.12,2.39,8.7-2.41,14.37,0
				c-0.73-5.899,5.77-6.13,10.26-4.79c6.71-4.01,9.81-11.63,19.16-13c2.48,0.49,3.54,2.391,6.16,2.74c1.44-0.84,2.66-1.89,4.1-2.74
				c-0.68-5.24,1.14-7.979,2.74-10.939c1.07-9.08-6.459-15.011-5.47-23.95c0.93-8.53,8.26-15.101,6.15-24.63
				c-1.14-5.16-5.29-6.521-8.21-12.32c1.76-0.75,1.35-3.67,1.37-6.15c-8.67-3.34-9.07-17.92-3.42-25.319
				c1.36-1.65,3.26,1.14,4.79-0.681c1.73-2.609,0.92-7.75,2.05-10.949c-3.48,0.619-3.47,4.729-6.15,6.159
				c-2-0.739-2.58-2.899-5.48-2.739c-2.95,2.55-5.51,8.96-9.56,9.649c-1.03,0.19-2.17-0.01-3.44-0.75
				c-1.56,3.45-4.6,5.431-10.26,4.78c-1.79-1.63-2.86-3.98-4.1-6.15c-6.63,0.7-6.57-5.3-10.95-6.84
				c-3.18,2.061-3.77,6.721-8.21,7.521c-1.4-0.65-2.71-1.4-4.11-2.05c-0.6,5.329-5.63,6.229-11.63,6.159
				c0.64,6.551,4.2,7.58,7.53,12.311c-1.59,2.979-1.94,7.189-4.11,9.58c-11.85,1.2-14.64-11.271-23.94-12.32
				c-3.59-0.4-6.48,1.33-10.95,2.06c-3.72-2.229-6.17-5.75-6.74-11.13c-0.05-0.39-0.08-0.779-0.1-1.189
				c11.5-1.561,17.57-12.49,13.68-25.311c0.22-3.199,3.88-2.96,4.11-6.159c-2.77-2.021-5.06-4.521-6.85-7.521
				c1.43-3.28,7.23-5.37,6.16-8.9c-1.05-2.529-4.72,1.53-5.47-0.68c5.27-3.56,10.76-12.57,5.47-20.53
				c-2.73,0.23-3.79-1.22-6.84-0.68c-1.76-3.04-5.53-8.68-1.37-11.63c-5.94-1.13-11.18-2.96-16.42-4.79
				c-2.64-9.67-9.91-14.72-15.05-21.9c2.26-8.65-0.82-17.92,0-24.63c0.66-5.38,3.04-5.98,3.42-9.58c1.56-14.75-8.3-13.2-16.42-20.52
				c-3.53-3.19-3.97-8.39-8.93-11.57c-0.41-0.27-0.85-0.52-1.33-0.75c-1.83-4.25-4-8.15-6.32-11.91c-0.17-0.28-0.34-0.56-0.51-0.83
				c-1.79-2.87-3.65-5.66-5.49-8.47c-9.18,4.46-21.67-10.52-33.52-3.42c-0.04,2.09,2.46,1.64,2.05,4.11
				c-2.2,0.3-3.71,1.31-6.16,1.37c-2.11,5.18-4.83,9.75-7.52,14.36c-6.33-2.73-13.87,2.86-16.42,8.22c-2.3,0.01-3.62-0.95-4.79-2.06
				c0.11-1.94,1.25-2.85,1.36-4.79c-6.86,0.87-12.36-5.34-16.75-9.68c-2.2-2.18-4.13-3.88-5.82-4c-6.78-0.47-6.97,12.75-16.42,6.84
				c-0.88,2.54-1.08,5.77-2.06,8.21c-2.89-0.16-4.84,0.63-6.84,1.37c0.22,3.84-4.91,7.45-8.21,6.15c-1.86-0.48,0.49,3.23-1.37,2.74
				c-5.9,1.63-7.12,7.93-11.63,10.95c-4.01-2.38-7.3-5.47-11.63-7.53c3.84-8.25,6.22-17.95,13.69-22.57
				c-0.04-5.29-1.68-8.72-0.69-13.69c-2.43-1.67-5.07-3.13-5.47-6.84c3.78-4.13,8.77-5.96,10.26-11.63
				c0.05-0.18-1.36-2.85-1.37-2.74c0.25-5.02,4.07-9.74,5.48-15.05c-1.33-1.64-3.84-2.09-4.11-4.79c0.74-5.3-0.7-8.43-2.05-11.63
				c-0.2-4.53,4.9-3.77,4.11-8.89c-5.66,1.65-10.73-1.49-17.79-2.06c-2.36,1.75-2.71,5.51-6.16,6.16c-2.28-3.16-6.54-3.08-9.58-0.68
				c-4.7-2.38-5.06-9.08-7.53-13.69c4.08-5.05,7.15-11.1,8.21-19.15c-8.98,1-4.39-11.57-13-10.95c-1.8,1.62-3.58,3.26-4.1,6.16
				c-1.37,0-2.74,0-4.11,0c1.65-13.11,4.01-27.11,15.74-29.42c2.59-0.51,6.37,2.66,8.89-0.69c-2.46,0.41-3.85-0.24-4.1-2.05
				c0.61-8.07,7.28-10.66,10.22-17.72c0.11-0.26,0.22-0.52,0.31-0.79c0.16-0.43,0.3-0.87,0.42-1.33c10.23-1.18,14.86-7.94,21.21-13
				c-1.62-2.49-2.52-5.69-3.43-8.89c-14.77-0.5-13.22,17.23-27.36,13.68c-1.4-0.35-2.54-2.6-4.79-2.74
				c-3.68-0.22-6.52,1.46-9.58,4.11c-0.88-1.63-4.44-0.58-4.79-2.74c0.45-4.12,2.35-6.78,3.42-10.26c-3.16-0.97-6.27-0.59-9.51-0.07
				"/>
			<path style="fill:none;stroke:#231F20;stroke-width:7.174;" d="M408.47,394.2c-3.4-2-6.27-4.54-6.06-10.16
				c-13-11.4-29.03-19.78-33.53-39.68c1.25-1.49,2.02-3.45,4.1-4.11c-0.43-3.67-5.12-3.09-4.1-8.21c-6.24,0.79-7.31-8.35-15.74-7.53
				c-1.92-4.1-6.49-7.21-9.57-11.63c-3.04-4.34-5.8-14.16-8.9-18.47c-0.37-0.51-0.78-0.98-1.2-1.44c-0.52-0.57-1.06-1.11-1.54-1.68
				c-1.6-1.87-2.65-3.99-0.68-7.83c6.22-0.76,5.09-8.86,8.74-12.18c0.05-0.04,0.1-0.09,0.15-0.13c-0.1-0.13-0.19-0.26-0.27-0.41
				c-1.01-1.72-1.03-4.44-1.78-6.43c5.85-8.29,5.69-22.6,14.37-28.06c0.96,0.87,0.04,3.62,2.74,2.74
				c7.63-3.31,10.26-11.63,19.15-13.68c1.19-3.84,1.63-8.41,1.37-13.69c3.52-2.86,6.15-6.62,9.58-9.58
				c-0.92-4.77-2.93-8.47-4.11-12.99c0.7-1.17,4.88-2.37,6.16-0.69c-0.02,3.1-2.04,4.95-0.68,7.53c4.43,2.41,8.26,5.42,15.05,5.47
				c1.63-3.26-5.49-2.99-4.79-7.52c10.1-4.73,23.13-6.52,27.37-17.11c-2.28-1.14-7.08,0.24-6.84-3.42c2.25-1.15,4.37-0.41,6.84,0
				c3.62-4.59,7.19-9.23,14.36-10.26c0.16,1.21-0.68,3.42,1.37,2.73c1.2-0.63,3.68,0.03,3.43-2.05c-1.26-1.25-2.79-2.22-4.18-3.34
				h-0.011c-1.39-1.11-2.649-2.37-3.34-4.18c-4.52,0.27-12.14,3.36-19.16,3.42c0.2-0.42,1.7-2.64,0-2.74
				c-0.47,1.35-1.82,1.82-3.42,2.05c-0.93-1.34-0.65-3.9-1.37-5.47c-8.15,0.85-11.71-2.89-15.73-6.16c0.78-0.81,0.77-2.42,0.68-4.1
				c-5.42-1.08-12.83-5.22-15.74-2.74c-0.28-6.31,0.74-10.8-1.36-17.11c-8.1-0.3-5-17.49,2.05-14.36c1.93-3.31,4.04-6.45,5.47-10.26
				c-7.68-6.13-15-4.83-25.31-2.06c-0.86-1.65-1.7-3.32-2.05-5.47c-7.2-3.39-11.8,2.9-17.11,2.05c-4.88-0.78-7.66-7.66-13.68-8.18
				c-0.23-0.02-0.46-0.03-0.69-0.03c0.67-8.64-6.17-9.79-10.26-13.68c-0.12,0.07-0.23,0.14-0.34,0.21
				c-1.65,1.13-2.32,3.24-3.77,4.58c-7.53-1.37-9.51,5.67-15.05,4.1c0.55,2.83-1.05,3.51-3.42,3.42c0.75,3.37,2.96,5.26,2.06,10.27
				c-2.43,3.52-5.84,3.6-9.55,3.7c-1.57,0.04-3.2,0.08-4.82,0.4c-3.75,0.73-8.97,6.64-10.95,8.21c-1.35-3.2-2.28-6.84-5.47-8.21
				c-6.2,1.06-6.43,8.07-8.49,13.26c-0.26,0.66-0.56,1.29-0.9,1.87c-0.26,0.46-0.55,0.89-0.88,1.29
				c-6.93-3.78-9.57-11.86-17.1-15.05c-2.03,2.11-1.04,5.02-0.69,8.21c-1.01,0.35-1.72,1.01-2.73,1.37c-6.21-0.18-5-7.77-9.58-9.58
				c-0.54,1.38-1.26,2.57-2.09,3.65c-0.13,0.17-0.27,0.34-0.41,0.51c-3.41,4.17-8.3,6.87-9.82,12.94
				c-8.43-1.52-10.38-9.51-16.5-13.35c-0.61-0.38-1.26-0.72-1.97-1.01c-0.43,0.1-0.83,0.17-1.2,0.21c-3.76,0.43-4.92-1.72-7.69-2.27
				c-2.3,1.31-3.65,3.99-4.86,6.82c-0.14,0.34-0.29,0.69-0.43,1.03c-2.02,4.82-3.94,9.65-9.76,8.57
				c0.77,12.69,14.42,12.49,17.1,23.27c2.37,0.59,3.8,2.13,5.47,3.42c0.42,3.44-0.64,8.08,0,9.58c6.18,2.31,6.89-4.96,8.9-8.9
				c1.6,1.13,1.48,3.99,1.37,6.84c2.07-0.21,2.44-2.11,5.47-1.37c0.45,5.02-0.21,12.38-4.11,15.06c1.56-0.2,2.58,0.16,2.74,1.36
				c-2.7,1.64-4.25,4.42-5.47,7.53c5.61,4.88,8.55,12.43,12.31,19.16c9.09,6.36,18.16,4.36,26.69,10.94
				c2.21-2.57,3.68-5.89,4.79-9.57c6.65-0.42,10.52-3.62,15.05-6.16c8.84,5.07,16.39,11.42,23.94,17.79
				c-0.4,8.15-8.78,4.08-10.94,10.26c7.89-0.29,16.78,3.13,12.31,10.95c5.13,1.34,10.07-1.08,13.68,2.05
				c2.72,4.67,1.5,7.1-0.63,8.95c-3.21,2.81-8.46,4.32-5.52,10.21c-4.93,0.99-6.96,4.9-8.9,8.89c-9.68,1.27-15.05-3.52-23.94-4.79
				c-1.31,2.11-1.87,2.92-4.79,2.05c0.54,3.57,3.25,4.96,3.42,8.9c-1.85,4.31-7.58,4.73-9.58,8.89c3.53,6.28,16.82,2.79,17.79,11.63
				c7.89,1.19,11.11,8.17,15.73,10.95c8.57,5.15,23.17,4.03,27.37,13c-3.09,0.78-4.3,3.45-4.79,6.84c4.12,4.55,7.63,9.7,12.32,13.69
				c0.77,0.94,3.99-1.45,6.16-1.37c0.69,4.77,2.91,8.02,5.47,10.94c3.65,18.02,18.81,24.53,28.74,36.27c2.4,0.4,2.24-3.24,4.1-1.37
				c1.49,5.12,4.11,9.11,6.16,13.68c1.37,1.14,5.07-0.06,6.15,1.37c0.26,5.38,9.23,20.41,14.49,28.24c1.35,1.99,2.45,3.52,3.11,4.3
				c-5.5-2.02-18.32-25.66-18.96-32.54c-1.6,0-3.2,0-4.79,0c-2.58-4.26-5.19-8.5-6.84-13.68c-0.85-1.96-1.99,2.97-3.42,0.68
				c-10.76-11.37-26.12-18.13-29.42-36.95c-2.39-2.4-5.32-4.26-4.79-9.57c-3.71-0.74-4.08,1.85-7.53,1.36
				c-3.4-5.94-9.25-9.45-12.31-15.73c1.7-1.72,1.02-5.82,4.1-6.16c-2.83-6.89-10.12-6.36-16.42-8.21
				c-9.94-2.93-16.25-12.05-25.31-15.05c-1.1-9.4-16.43-4.56-18.48-13c2.79-3.83,8.69-4.54,10.27-9.58
				c-1.74-2.37-3.5-4.72-4.11-8.21c2.09-0.98,4.13-1.41,6.16-1.48c7.63-0.29,15.05,4.46,23.94,4.22c0.47-5.01,3.38-7.57,7.53-8.9
				c1.87-1.85-1.77-1.7-1.37-4.1c2.05-2.52,4.19-4.94,8.21-5.48c1.32-2.75,0.39-6.55-0.68-8.89c-3.69-1.55-11.05,0.55-13.69-2.05
				c0-2.29,2.23-2.34,2.06-4.79c-2.36-5.66-8.53-3.31-13.69-6.16c0-8.18,10.3-1.94,10.26-10.26c-7.64-5.36-13.72-12.28-22.57-16.42
				c-4.54,2.53-8.91,5.23-15.05,6.15c0.98,5.55-2.82,6.31-4.79,8.9c-8.72-5.63-20.01-4.93-28.06-11.63
				c-3.36-7.13-7.01-13.97-12.31-19.16c1.2-2.9,3.01-5.2,4.79-7.53c-1.02-0.11-2.53,0.25-2.74-0.68c3.16-3.88,7-6.86,4.79-14.37
				c-2.5-0.85-3.67,3.11-4.79,1.37c-0.87-2.92,0.76-4.1-0.68-6.16c0.35,5.57-6.42,11.13-10.27,6.16c-0.38-3.12,1.22-4.26,0.69-7.52
				c-1.92-3.78-7.68-3.73-7.53-9.58c-7.53-4.78-14.28-10.35-17.1-19.84c-3.27-1.24-7.54,0.65-10.27,2.05
				c-1.91-1.51-2.36-4.48-4.78-5.48c-3.33,3.32-9.74,8.27-10.27,14.37c-0.16,1.82,0.01,3.65,0.43,5.43
				c1.39,5.79,5.49,11.05,9.84,13.73c-1.78,3.98,0.97,7.72,2.05,10.95c-6.07,1.79-3.81,16.22,0,18.47c-1.01,1.5-1.34,3.68-2.74,4.79
				c-2.11-1.11-6.03-3.19-8.89-1.37c0-1.37,0-2.74,0-4.11c-6.41-0.02-11.73,1.04-15.05,4.11c-3.43-4.48-0.36-13.7-1.89-19.93
				c-0.05-0.2-0.1-0.4-0.16-0.6c-7.32,4.91-12.14,12.3-23,13.65c-0.09,0.02-0.18,0.03-0.27,0.04c0,0.26-0.02,0.5-0.04,0.75
				c-0.6,8.47-8.64,9.53-9.54,17.72c1.14,1.15,4.02,0.55,6.16,0.69c-1.84,4.95-6.23,3.25-13,3.42c-9.36,3.1-13.84,19.97-12.31,27.36
				c2.75-2.94,3.39-8.01,10.26-6.84c1.68,3.34,3.13,6.9,4.79,10.27c1.27,1.23,4.9,0.11,5.47,2.05c-1.54,7.81-4.79,13.91-8.21,19.84
				c1.7,4,2.63,8.77,5.48,11.63c3.55-1.89,8.06-1.56,10.94,0.68c2.88-1.22,2.8-5.41,6.16-6.16c6.3,2.38,12.19,2.36,17.14,3.3
				c0.22,0.04,0.44,0.08,0.65,0.13c1.36,5.24-3.2,4.55-3.42,8.21c1.34,5.97,1.85,12.76,4.91,17.01c0.37,0.53,0.78,1.02,1.24,1.46
				c-2.55,4.47-7.21,11.95-4.1,17.79c-3.36,4.16-7.76,7.29-10.26,12.31c0.94,2.48,4.32,2.52,5.47,4.79
				c-1.94,3.58,0.29,8.68,0.68,13.69c-8.05,5.45-9.44,13.68-14.36,22.57c5.25,0.45,6.57,4.84,10.94,6.16
				c4.15-3.15,5.22-9.38,11.63-10.26c0.12-1.02-0.24-2.53,0.69-2.74c4.46,0.26,7.14-2.67,8.89-6.84c1.99-0.75,4.86-0.62,6.84-1.37
				c-0.02-3.44,0.34-6.5,2.06-8.21c1.83,0.68,3.61,1.41,6.16,1.37c4.79-2.38,5.58-9.69,12.99-7.53c0.79,1.8,1.86,3.33,3.14,4.64
				c4.56,4.71,11.73,6.81,18.07,9.73c-0.61,1.51-2.94,5.57,0.69,5.48c4.27-5.05,12.07-10.04,18.47-8.9
				c1.14-1.13,0.54-4.02,0.68-6.16c6.36-1.06,2.65-8.18,10.27-8.21c1.81-0.99-2.51-1.53-1.37-4.1c12.49-7.74,25.49,7.34,34.89,2.73
				c2.64,2.47,5.52,4.7,5.49,9.84c0,0.14,0,0.29-0.01,0.43c0.18,0.13,0.35,0.26,0.52,0.4c3.78,2.98,6.45,7.08,7.69,12.6
				c5.38,1.46,6.59,7.09,9.57,10.94c6.92,3.77,14.64,6.13,16.43,13.69c1.62,6.87-2.94,11.94-3.43,19.15
				c-0.56,8.39,2.55,15.23,0.69,22.58c4.82,7.04,11.98,11.74,14.37,21.209c5.52,2,11.92,3.131,17.1,5.48
				c-0.43,1.85-2.86,1.7-2.74,4.1c1.14,2.29,2.29,4.561,3.42,6.841c2.92-0.4,4.53,0.489,6.85,0.689
				c4.84,7.36,1.84,16.78-4.11,20.521c3.75-0.78,5.03,0.899,5.48,3.42c-2.83,1.96-5.41,4.18-6.85,7.529
				c1.98,2.811,4.9,4.69,6.85,7.53c-1.33,2.09-3.41,3.43-4.79,5.47c4.44,13.061-2.15,24.61-13.69,26
				c0.77,9.181,8.32,12.17,17.11,8.21c10.2,2.11,11.86,12.761,23.94,13c0.44-3.67,2.72-5.489,2.74-9.58
				c-0.87-2.779-5-2.3-6.16-4.789c1.67-3.101-1.59-4.57-1.37-8.211c2.74,0,5.48,0,8.21,0c2.74-0.909,2.92-4.38,4.79-6.159
				c1.71,0.8,2.64,2.39,5.48,2.05c3.13-1.88,3.31-6.72,7.52-7.521c2.44,1.2,3.9,3.4,4.79,6.15c2.87-0.36,3.82,1.2,6.16,1.37
				c1.17,7.79,11.42,7.12,13.68,0.689c1.21,0.61,2,1.65,3.43,2.051c3.79-3.28,5.94-8.2,10.26-10.94c2.15,0.58,2.88,2.58,5.47,2.73
				c4.24-4.58,3.4-10.181,5.47-16.421c-1.18-2.689-4.34-3.409-4.1-7.529c2.86-0.641,4.05-1.431,6.84-0.681
				c4.881-8.609,0.811-16.17-5.47-20.529c-1.57-1.65-2.43-0.82-4.79-0.681c-1.22-4.779-7.78-6.25-6.92-11.26
				c0.02-0.12,0.05-0.25,0.08-0.37c-0.11,0.021-0.23,0.04-0.33,0.05c-3.38,0.511-3.59-2.159-4.46-4.159
				c3.6-5.28,14.42-3.36,14.36-12.311c-2.75-0.47-3.9,0.66-6.15,0.681c-1.55-5.29-9.06-4.62-9.58-10.94
				c-6.06-0.1-8.35-3.97-10.95-7.53c0.83-1.22,0.12-3.98,1.37-4.79c-1.16,5.97,2.94,11.2,10.95,11.63
				c-0.5,6.65,7.48,4.84,8.21,10.26c2.08,0.43,5.89-0.87,6.84,0.689c-0.1,3.32-1.32,5.521-2.74,7.521
				c-4.19,1.279-8.98,1.97-10.95,5.479c1.09,1.101,2.12,2.271,3.1,3.47c0.09,0.11,0.18,0.211,0.25,0.32
				c2.52,3.09,4.75,6.46,6.92,9.891c8.88,0.25,10.86,7.38,14.37,13c-1.32,3.699-3.11,6.93-3.43,11.63
				c-1.87-1.63-4.13-1.36-6.84-0.681c0.82,3.28,4.07,4.15,4.79,7.521c-2.01,2.689-1.63,6.78-1.26,10.939
				c0.46,5.021,0.91,10.13-2.84,13.011c-1.61,0.01-2.02-1.181-4.11-0.681c-5.08,10.08-2.98,20.261,4.79,25.311
				c0.04,2.55-0.69,4.33-1.37,6.16c3.12,4.239,7.37,7.89,8.21,13c1.659,10.02-7.371,16.149-6.84,26.68
				c0.38,7.439,7.59,11.17,5.47,21.89c-2,2.33-3.29,5.38-2.73,10.271c-1.67,1.29-3.32,2.609-5.48,3.42
				c-9.91-7.811-17.26,5.59-23.94,9.569c-4.31,0.391-6.3-1.18-8.89,0.69c-1.63,0.88-0.58,4.44-2.74,4.79
				c-4.73-2.35-10.26,1.27-13,0.68c2.04,4.25,0.48,7.891,0.68,13.69c-9.06,0.62-12.73-4.15-20.52-4.79
				c-1.74,1.68-1.52,5.32-4.11,6.16c-3.39,0.069-3.36-0.67-6.16,0c2.12,5.399,2.43,12.63,3.43,19.149
				c3.82,2.341,8.48,3.841,9.57,8.9c2.46-0.25,2.51-1.84,4.79-0.69c0.24,1.46,2.5,7.601-1.37,6.851c1.24,3.229,1.53,4.97-1.36,6.84
				c-2.9-0.76-4.84-2.47-7.53-3.42c-2.96-0.5-2.7,4.479-4.79,2.729c-2.5-2.29-1.43-8.149-5.47-8.89
				c-6.81,0.95-12.48,4.73-19.16,2.05c-0.22,2.29-0.7,4.311-2.05,5.471c-3.99-1.711-9.18-2.221-12.32-4.78
				c-2.79,1.7-2.19,6.2-0.68,8.89c-3.61,3.91-6.52,8.53-10.26,12.311c-4.57,0-9.13,0-13.69,0c-2.1,1.55-2.24,5.06-6.16,4.8
				c0.56,5.819,6.39,6.37,6.16,12.99c2.75,0.699,4.95-4.471,10.95-2.73c-0.18,2,1.55,2.1,1.37,4.1c5.16,2.101,11.56,1.83,13,8.891
				c-3.19,2.52-6.62,4.79-10.27,6.85c-4.27,14.66-5.05,32.8-5.47,51.311c2.31,2.52,4.08-3.771,6.16-1.36
				c-0.33,6.05-5.89,6.88-8.21,10.94c9.68,3.319,17.66-4.511,25.31-7.53c3.76-21.78,27.14-23.94,45.16-31.47
				c1.6-10.431-10.54-19.71-13.68-27.36c5.85,6.229,11.61,12.55,17.1,19.15c3.7-2.99,6.66,1.029,12.31,0
				c2.05-2.051,1.6-6.61,3.42-8.891c-6.4-4.09-10.51-10.479-14.36-17.109c6.16,3.649,9.47,10.14,17.1,12.319
				c-0.37-2.42,2.42-1.68,2.05-4.109c-3.38-2.54-8.39-3.471-9.57-8.21c2.73,1.149,4.98,2.77,7.52,4.109
				c0.56-5.91,7.19-1.81,8.21-7.53c-2.53-2.489-6.21-3.819-8.21-6.84c1.47-1.27,5.01-0.46,7.53-0.68c-0.17-4.4-2.3-6.82-5.48-8.21
				c1.4-1.34,1.44-4.04,4.11-4.11c0.63,2.79,1.9,4.94,4.11,6.16c1.29-1.22,0-5.01,2.73-4.79c0.68,3.11-1.79,5.12,0.68,6.16
				c4.47-0.25-0.61-6.12,2.74-6.85c1.94,0.8,4.53,0.949,5.48,2.739c-0.1,2.551-1.67,6.051-0.69,7.53
				c3.55-1.439,4.61-6.77,10.26-4.11c1.66-4.729,7.99-4.79,13-6.159c3.371-5.75,10.6-7.641,17.11-10.261
				c2.87-0.359,3.82,1.2,6.15,1.37c0.38-8.029,4.31-14.72,13.689-11.63c0.881-1.56,2.07-2.81,3.4-3.93
				c0.06-0.05,0.13-0.11,0.19-0.16c3.34-2.76,7.439-4.771,9.409-8.91c4.08-0.149,3.99-0.229,7.521-0.68
				c1.12-2.76,2.54-5.22,4.8-6.84c2.96,0,5.92,0,8.89,0c2.44-3.04,0.971-9.98,1.37-15.061c2.28,0,2.33,2.23,4.78,2.05
				c3.271-1.06,3.01-5.659,5.48-7.52c-1.2-0.62-1.25-2.4-2.051-3.42c0.33-1.72-3.14,1.649-3.43-0.69
				c1.68-6.08,3.4-13.399,2.75-19.84c1.75-0.74,3.25,2.08,4.1,0c-3.069-1.729-5.079-8.13-4.1-11.63c1.66,2.22,3.521,4.23,6.83,4.79
				c-4.8-7.04-10.3-20.03,3.43-19.84c-2.189-3.5,1.82-3.811,2.73-6.16c-2.24-6.88-9.36-11.771-7.521-20.521
				c-2.05-2.34-5.92-5.119-2.739-8.899c2.149-0.32,1.81,1.84,3.42,2.05c-3.301-4.68-6.23-13.38-4.11-21.2
				c1.8,0.931,0.33,5.15,3.43,4.78c-5.859-21.95-13.63-44.14-22.58-67.04c0.61-2.13,2.28-3.19,2.74-5.479
				c-3.35-0.53-2.439-5.32-4.109-7.53c-2.16-0.33-2.421,1.24-4.79,0.689c-10.301-12.739-18.95-27.12-30.79-38.319
				c2.01-0.04,2.54-1.561,3.42-2.73c-5.32,0.99-5.11-3.55-7.521-5.47c-2.149,2.63-6.64-1.26-7.529-4.11
				c2.38,1.55,4.289,4.14,6.979,3.6"/>
			<path style="fill:none;stroke:#231F20;stroke-width:7.174;" d="M59.63,149.36c1.61,0.3,3.19,0.36,4.74,0.28
				c7.04-0.33,13.29-3.46,17.15,1.09c-2.3,1.96-5.28,6.36-3.42,10.27c4.84,1.15,7.61-3.76,13.69-3.43
				c12.93,10.94,17.82-12.01,31.47-10.94c1.91,3.74,3.35,7.45,4.36,11.52c1.28,5.14,1.87,10.86,1.8,17.9
				c4.46-1.93,9.42-3.35,16.42-2.74c-0.22,4.06,6.3,4.39,8.21,4.11c2.54-4.11-1.94-4.75-2.74-7.53c0.11-6.04-0.5-12.82,3.42-15.05
				c-2.06-2.04-2.14-6.07-2.05-10.26c-5.96-1.23-7.29-7.08-8.54-13.03c-0.49-2.35-0.97-4.72-1.72-6.82
				c4.57-4.54,5.59-12.65,13-14.36c0.8,2.15,2.12,3.8,3.41,5.47c5-4.39,10.76-0.08,17.11,0c1.21-3.31,2.97-6.07,5.66-7.89
				c0.16-0.11,0.33-0.22,0.5-0.32c-0.03-0.24-0.05-0.48-0.07-0.71c-0.35-4.62,1.88-6.72,4.17-7.5c3.22-1.1,0.94,0.96,4.79,2.05
				c1.14,0.32,2.36,0.61,3.59,0.9c1.06,0.26,2.14,0.52,3.17,0.8c2.91,0.81,5.54,1.87,6.93,3.78c1.51,4.18,3.79,7.61,8.89,8.21
				c3.45-3.91,4.05-10.66,10.5-11.58c0.15-0.03,0.3-0.04,0.45-0.06c-0.02-0.15-0.03-0.3-0.04-0.45c-0.23-2.82,0.69-4.5,2.77-5.02
				c3.97,2.41,4.24,11.43,10.27,9.58c-0.07-4.18-0.6-8.81,2.73-9.58c9.06,5.14,14.89,9.73,17.57,12.57
				c0.24,0.24,0.45,0.48,0.63,0.69c1.72,2.04,1.41,2.88-0.9,1.87c-0.06-0.02-0.13-0.05-0.19-0.08c0.15-0.83,0.31-1.66,0.46-2.48
				c1.39-7.21,3.32-13.87,11.85-13.94c0,3.66,2.13,5.17,3.42,7.53c2.54-3.62,7.63-4.69,10.95-7.53c1.53,0.65,2.9,0.94,4.14,0.94
				c3.53,0,6-2.31,8.17-5.04c0.86-4.51-1.28-6.01-2.05-8.9c1.33-1.44,2.94-2.58,4.72-3.55c5.71-3.14,13.18-4.58,18.8-8.67
				c0.62-0.45,1.23-0.93,1.8-1.46c3.1,5.11,10.81,5.61,9.58,15.05c6.67-1.63,8.25,5.91,13.68,6.84c7.16,1.24,17.19-8.41,19.84,3.42
				c10.02-3.23,20.19-3.13,26,4.11c-2.3,3.63-4.26,7.59-6.84,10.95c-4.64-1.96-6.18,4.64-5.48,10.26
				c6.21,1.56,6.54,11.04,5.48,17.79c2.64-1.67,10.04,2.79,15.73,4.1c0,1.83,0,3.65,0,5.48c4.23,2.62,9.2,4.48,15.74,4.79
				c-0.07,2.12,0.31,3.79,1.37,4.78c0.63-1.19,2.14-1.51,4.1-1.36c0.12,1.02-0.24,2.52,0.69,2.73c5.01-1.68,13.521-3.25,17.101-4.1
				c2.22,0.51,1.64,3.84,2.739,5.47c5.761,2.85,8.601-1.34,13.681-2.74c1.609,0.23,0.67,2.99,2.06,3.43
				c1.23-2.42,0.811-6.49,2.73-8.21c3.5,0.24,7.13,4.2,4.109,6.84c2.63-1.02,4.971-2.33,6.15-4.79c-4.9-0.57-3.62-7.32-4.78-11.63
				c4.12-3.41,9.29,0.22,7.521,6.84c4.609,0.4,5.26,4.78,8.899,6.16c1.23-1.07-3.31-5.77-0.689-8.21c4.75,0.73,4.31,6.63,6.85,9.57
				c3.49,0.39,8.79-1.04,10.26,1.37c2.641,3.87-1.62,5.91-3.43,7.53c5.05-2.26,20.73,0.2,21.9-8.21c-1.021-1.26-2.86-1.71-3.42-3.42
				c1.39-0.66,1.479-2.63,1.369-4.79c2.37,0.55,2.631-1.02,4.79-0.69c-0.63,2.79-1.479,3.31-0.689,6.16
				c1.56,1.76,2.649,1.38,4.109,2.05c1.98,2.58-2.609,4.42,0.681,6.16c3.7,1.42,0.83-3.73,2.74-4.1c1.63,3.16,6.8,2.78,8.89,5.47
				c0.34,2.16-1.23,2.42-0.68,4.79c-2.551-0.04-4.33,0.69-6.16,1.37c-1.41,2.72-0.21,5.84,0,8.89c-1.37,0-2.74,0-4.101,0
				c-0.189,5.7,0.54,7.96-0.689,14.37c7.09-1.4,3.64,11.85,6.16,17.1c3.14,1.65,7.1,2.48,10.26,4.11c-0.83,4.29-3.58,3.13-6.15,1.37
				c0.09,3.1,2.05,4.33,2.73,6.84c11.31,0.43,26.45,0.58,26.68-13.68c-3.689-2.01-7.99-3.41-10.26-6.85c0.8-3.43-1.5-6.2,0-8.21
				c-2.3-0.43-6.351,0.88-7.521-0.68c-2.979-14.09,6.19-8.82,11.631-15.74c0.3-4.19-4.211-7.18-1.37-11.63
				c3.56,0.78,2.46,6.21,4.1,8.9c2.13-0.38,4.46-0.56,6.16-1.37c-0.97-4.29,3.06-10.36,6.84-9.58c-0.44,2.98-3.56,3.28-4.1,6.16
				c4.06-4.83,15.04-2.75,15.729-10.95c0.88-0.34,4.09-1.73,4.11-0.68c-3.3,0.81-3.7,4.51-5.48,6.84
				c-8.109,1.46-13.37,5.78-18.47,10.26c-3.23-0.27-4.5,1.45-6.16-0.68c0.07,7.42-9.56,9.91-12.31,10.26
				c0.33,2.4,1.02,4.45,0.68,7.53c3.2,0,6.39,0,9.58,0c-0.23,2.99,3.09,5.99,2.05,7.52c-4.149,0.96-2.81-3.57-4.79-4.79
				c1.63,2.26-0.56,5.23,0.69,6.84c2.64,4.5,9.01,2.84,10.26,7.53c3.56,13.29-21.55,15.84-30.78,14.37
				c2.79-3.69-4.45-8.15,0.681-10.26c-1.96-1.24-4.58-1.81-6.16-3.43c-0.771-4.7-1.88-9.06-1.37-15.05
				c-8.2,0.64-2.29-11.51-4.101-17.1c1.28-1.34,2.5-0.21,4.101,0c0.16-3.89-1.21-5.61,0-8.9c1.71-1.71,6.47-0.37,6.85-3.42
				c0-0.68,0-1.37,0-2.05c-0.729-2.46-6.22-0.17-6.85-2.74c-0.12,1.03,0.25,2.53-0.68,2.74c-2.021-0.48-4.83-0.19-5.48-2.05
				c-1.09-2.31,2.91-2.92,0.69-4.11c-1.11,2.12-5.65-5.18-4.11-8.21c-2.42,0.09-1.13,3.88-2.73,4.79c1.971,0.3,3.12,1.44,3.421,3.42
				c-0.931,7.13-8.211,5.45-15.061,6.84c-4.2,0.86-9.11,5.06-9.57,0.69c-0.159-3.81,5.83-1.47,4.101-6.84
				c-2.11-2.04-5.8-0.07-10.26-0.69c-0.641-2.5-3.21-6.67-5.471-9.58c-0.87,3.63,3.261,5.83,1.36,8.21
				c-5.45-0.47-7.05-4.79-10.38-7.36c-0.391-0.32-0.8-0.6-1.25-0.85c0.3-3.72,0.06-6.89-4.101-6.15
				c-1.859,4.75,1.4,9.88,4.101,12.31c-2.42,2.6-4.561,5.47-9.57,5.48c1.74-3.25,2.96-6.23-2.06-6.85
				c-0.851,3.49-0.5,8.17-4.101,8.9c-1.51-0.09-0.29-2.9-0.689-4.11c-7.07,0.45-6.84,8.21-14.37,8.21
				c-2.16,0.34-0.25-3.39-2.73-2.73c-4.779,2.06-7.689,5.99-10.95,9.57c-2.32,1.57-4.58-2.07-6.16,0.69
				c2.07,0.9,5.87,0.07,7.53,1.37c-5.03,10.25-15.72,14.83-28.05,17.79c-0.77,4.62,6.26,3.89,5.47,6.84
				c-1.52,5.69-15.26-2.05-18.47-4.11c0.82,1.92,0.75,4.72,0.69,7.53c-8.02,2.47-9.43,11.56-10.27,21.21
				c-8.62,3.23-12.9,10.81-20.52,15.05c-0.43-1.63-4.21,0.11-4.79-1.37c-4.13,2.62-2.78,6.5-4.79,12.32
				c-2.89,8.35-7.38,11.99-5.75,19.43c0.03,0.18,0.07,0.36,0.12,0.54c0.2,0.82,0.48,1.68,0.84,2.6c-3.66,1.14-3.41,6.18-4.79,9.58
				c-2.37-0.54-2.89,0.76-4.11,1.37c0,2.15,0,4.31,0,6.46c0,0.13,0,0.25,0,0.38c0.54,0.41,1.05,0.84,1.54,1.3
				c5.28,4.95,7.68,12.78,10.78,19.91c4.15,2.24,6.38,6.39,8.89,10.27c5.98,0.63,9.88,3.35,12.32,7.52c2.09,0.5,2.01-1.18,4.1-0.68
				c-0.49,5.74,3.43,7.06,5.48,10.26c-9.55,4.29-2.03,13.43,3.42,20.53c7,9.12,17.54,16.08,24.63,22.57
				c-0.15,2.21,1.21,2.9,0.68,5.48c3.26,2.71,8.79,6.12,11.03,8.76"/>
			<path style="fill:none;stroke:#231F20;stroke-width:7.174;" d="M593.97,152.79c0.74,0.58-12.68,10.38-2.05,2.05
				C592.18,154.64,592.49,153.27,593.97,152.79z"/>
			<path style="fill:none;stroke:#231F20;stroke-width:7.174;" d="M570.03,230.78c0.89,4.58,4.08,6.87,10.26,6.16
				c1.479,5.14,2.09,11.14,4.11,15.73c-1,2.43-3.971,2.88-5.48,4.79c-1.84,0.48-1.32-1.41-2.05-2.05
				c-10.37,12.99-14.94,30.07-19.16,46.53c-9.74,0.29-14.87,5.19-17.1,13c-4.351,0.67,4.81,2.01-0.17,2.05
				c-2.381,3.78-18.61,6.53-21.73,9.58c-13.59-5.57-30.11-8.2-42.41-15.05c0.53-4.84,0.891-12.4-2.74-16.43
				c1.87-6.03,0.33-11.48,1.37-17.78c0.37-1.52-1.31-0.98-1.37-2.06c0.46-2.73,1.7-4.68,2.74-6.84
				c11.54-3.74,16.09-14.46,28.73-17.1c0.279-1.65-1.25-1.49-0.681-3.42c-1.729-1.53-3.06,1.49-5.479,1.36
				c0.99-3.57,3.74-5.38,6.16-7.52c2.479,1.62,5.39,2.82,9.58,2.74c1.89-3.13,2.909-7.13,6.84-8.22
				c6.689,4.82,19.52,3.88,24.63-2.05c7.68-0.68,14.229,1.57,20.53,5.48c0.229-3.43-2.61-3.78-2.061-7.53
				C566.05,231.37,567.35,230.38,570.03,230.78z"/>
			<path style="fill:none;stroke:#231F20;stroke-width:5.7512;" d="M444.96,419.11c-6.12-5.47-31.23-21.29-36.96-25.11
				c0.14,0.06,0.3,0.12,0.47,0.2c1.34,0.6,3.59,1.81,6.33,3.39c10.01,5.78,26.641,16.59,30.33,21.48c0.15,0.19,0.28,0.38,0.38,0.55
				C445.35,419.46,445.17,419.29,444.96,419.11z"/>
			<path style="fill:none;stroke:#231F20;stroke-width:7.174;" d="M142.41,657.96c3.33-11.33,9.1-20.61,17.11-31.04
				c6.83-8.88,19.09-20.5,19.84-32.16c0.27-4.22-2.45-8.29,0-12.31c-7.46-6.29-9.53-15.07-6.84-27.37c6.1,0.86,9.09-1.4,12.32-3.42
				c-0.09-1.57-4.57-2.2-2.74-3.42c2.45-0.74,4.66-1.721,7.52-2.05c0.19-0.54,0.84-1.07,1.77-1.601c4.03-2.28,13.35-4.49,13.68-7.3
				c5.16-2.13-2.27-7.13-3.39-11.24c-0.31-1.13-0.13-2.2,0.94-3.12c8.6-7.359,23.7-6.1,34.9-11.64c1.89,1.53,2.54,4.3,4.79,5.479
				c12.52-3.89,24.44,1.851,34.33-0.68c2.29-0.59,3.86-2.92,6.03-3.43c6.21-1.43,11.78,2.06,17.79,2.74
				c1.03,1.939,1.43,4.5,2.05,6.84c4.84,1.189,5.07-2.23,7.53-3.42c-1.14,2.739-2.27,5.489-6.84,4.79
				c-1.99-1.2-2.99-3.391-2.74-6.841c-4.57-0.43-8.93-3.529-13.68-3.42c-4.25,0.101-8,3.57-12.32,4.101
				c-10.38,1.3-21.78-3.061-33.52,0c-0.74-1.771-2.48-2.54-2.74-4.79c-11.5,4.07-24.68,4.3-33.52,10.27c-1.31,0.88-2.26,1.95-3,3.12
				c-2.53,3.891-2.93,8.83-7.95,11.24c-0.49,2.72-1.68,4.75-2.34,7.3c-0.18,0.71-0.33,1.46-0.4,2.28c-2.9-0.17-3.68,1.79-6.84,1.37
				c-0.37,2.43,2.42,1.68,2.05,4.109c-3.73,1.74-6.99,3.95-12.31,4.101c-4.1,9.66,0.25,21.26,6.15,25.319
				c2.93,24.24-11.6,34-22.57,48.57c-6.59,8.75-9.87,18.09-14.51,27.65"/>
			<path style="fill:none;stroke:#231F20;stroke-width:7.174;" d="M190.13,680.08c3.78,2.96,2.66,3.58-7.63-1.15
				c-2.35-1.069-43.08-16.87-45.56-18.479c0.7-1.851,2.67-2.58,5.47-2.49c0.18,0,0.36,0.01,0.55,0.03
				C155.41,658.79,182.57,674.14,190.13,680.08z"/>
			<path style="fill:none;stroke:#231F20;stroke-width:7.174;" d="M226.61,704.95c-2.36,0.729-21.25-16.98-31.29-25.17
				c-3.02-2.46-5.24-4.07-5.98-4.07c2.38-1.46,34.03,27.9,37.25,29.17"/>
			<path style="fill:none;stroke:#231F20;stroke-width:7.174;" d="M226.59,704.88c1.26-2.03,49.85-1.45,52.66-1.35
				c-0.89,1.729-4.33,3.12-9.08,4.109c-13.53,2.811-37.68,2.36-43.56-2.689c-0.01-0.01-0.03-0.021-0.04-0.03
				C226.57,704.91,226.58,704.89,226.59,704.88z"/>
		</g>
	</g>
</g>
<rect style="fill-rule:evenodd;clip-rule:evenodd;fill:none;" width="850.394" height="850.394"/>
</svg>
