<?xml version="1.0" encoding="iso-8859-1"?>
<!-- Generator: Adobe Illustrator 12.0.1, SVG Export Plug-In . SVG Version: 6.00 Build 51448)  -->
<!DOCTYPE svg PUBLIC "-//W3C//DTD SVG 1.1//EN" "http://www.w3.org/Graphics/SVG/1.1/DTD/svg11.dtd" [
	<!ENTITY ns_svg "http://www.w3.org/2000/svg">
	<!ENTITY ns_xlink "http://www.w3.org/1999/xlink">
]>
<svg  version="1.1" id="Layer_1" xmlns="&ns_svg;" xmlns:xlink="&ns_xlink;" width="850.394" height="850.394"
	 viewBox="0 0 850.394 850.394" style="overflow:visible;enable-background:new 0 0 850.394 850.394;" xml:space="preserve">
<rect x="368" y="368.249" style="fill:none;" width="113.386" height="113.386"/>
<g>
	<g id="XMLID_3_">
		<g>
			<polygon style="fill:#FFF5B4;" points="438.345,755.79 438.345,796.42 161.655,796.42 161.655,755.79 181.055,755.79 
				419.415,755.79 			"/>
			<polygon style="fill:#FFF5B4;" points="419.415,749.8 419.415,755.79 181.055,755.79 181.055,749.8 206.175,221.82 
				394.145,221.82 394.285,221.81 			"/>
			<polygon style="fill:#FFF5B4;" points="394.145,218.77 394.285,221.81 394.145,221.82 206.175,221.82 206.325,218.77 
				233.405,184.4 234.575,184.4 305.285,184.4 310.495,184.4 365.895,184.4 367.065,184.4 			"/>
			<polygon style="fill:#FFFFFF;" points="342.585,72.82 365.895,184.4 310.495,184.4 305.285,184.4 234.575,184.4 257.885,72.82 
				309.455,72.82 312.575,72.82 			"/>
		</g>
		<g>
			<polygon style="fill:none;stroke:#231F20;stroke-width:21;" points="419.415,755.79 438.345,755.79 438.345,796.42 
				161.655,796.42 161.655,755.79 181.055,755.79 			"/>
			<polyline style="fill:none;stroke:#231F20;stroke-width:21;" points="419.415,749.8 394.285,221.81 394.145,218.77 
				367.065,184.4 365.895,184.4 310.495,184.4 305.285,184.4 234.575,184.4 233.405,184.4 206.325,218.77 206.175,221.82 
				181.055,749.8 			"/>
			<polyline style="fill:none;stroke:#231F20;stroke-width:21;" points="367.065,190.02 365.895,184.4 342.585,72.82 312.575,72.82 
				309.455,72.82 257.885,72.82 234.575,184.4 233.405,190.02 			"/>
			<line style="fill:none;stroke:#231F20;stroke-width:21;" x1="206.175" y1="221.82" x2="394.145" y2="221.82"/>
		</g>
	</g>
</g>
<rect style="fill:none;" width="850.394" height="850.394"/>
<g id="XMLID_1_">
	<g>
		<path style="fill:#34A047;" d="M715.202,205.643l27.163-4.722v-33.069l-28.813,4.487v-32.833l-29.765,4.727v32.833l-27.399,4.723
			v33.776l28.582-5.198v36.376l30.232-6.141V205.643z M791.678,270.009l-189.176,41.072V116.304l189.176-21.16V270.009z"/>
		<path style="fill:#231F20;" d="M728.023,81.635c0.49-0.015,0.992-0.023,1.498-0.023c8.54,0,15.468,2.206,15.468,4.924
			c0,2.715-6.928,4.92-15.468,4.92c-8.544,0-15.472-2.205-15.472-4.92C714.05,83.977,720.183,81.875,728.023,81.635z"/>
		<polygon style="fill:#FFFFFF;" points="715.202,205.643 715.202,240.602 684.97,246.742 684.97,210.366 656.388,215.563 
			656.388,181.788 683.787,177.065 683.787,144.232 713.552,139.506 713.552,172.339 742.365,167.852 742.365,200.921 		"/>
		<path style="fill:#231F20;" d="M607.167,96.848c0-2.718,6.928-4.92,15.472-4.92c1.022,0,2.019,0.03,2.984,0.091
			c7.114,0.441,12.483,2.434,12.483,4.829c0,2.719-6.924,4.924-15.468,4.924S607.167,99.566,607.167,96.848z"/>
		<path style="fill:#34A047;" d="M729.521,91.456c8.54,0,15.468-2.205,15.468-4.92c0-2.719-6.928-4.924-15.468-4.924
			c-0.506,0-1.008,0.008-1.498,0.023c-7.841,0.24-13.974,2.342-13.974,4.901C714.05,89.251,720.978,91.456,729.521,91.456z
			 M791.678,95.145l-189.176,21.16v194.777l-41.042-48.54l0.147-177.503l70.571-6.43l88.678-8.076l16.684-1.521l54.849,24.544
			L791.678,95.145z M625.623,92.019c-0.966-0.061-1.962-0.091-2.984-0.091c-8.544,0-15.472,2.202-15.472,4.92
			c0,2.719,6.928,4.924,15.472,4.924s15.468-2.206,15.468-4.924C638.106,94.453,632.737,92.46,625.623,92.019z"/>
	</g>
	<g>
		<line style="fill:none;stroke:#231F20;stroke-width:7.9848;" x1="602.502" y1="116.304" x2="602.502" y2="311.081"/>
		<polyline style="fill:none;stroke:#231F20;stroke-width:7.9848;" points="793.86,94.213 792.389,93.555 737.54,69.011 
			720.856,70.532 632.179,78.608 561.607,85.038 561.46,262.541 602.502,311.081 791.678,270.009 791.678,95.145 602.502,116.304 
			565.178,88.612 		"/>
		<polygon style="fill:none;stroke:#231F20;stroke-width:5.3232;" points="713.552,172.339 713.552,139.506 683.787,144.232 
			683.787,177.065 656.388,181.788 656.388,215.563 684.97,210.366 684.97,246.742 715.202,240.602 715.202,205.643 
			742.365,200.921 742.365,167.852 		"/>
		<polyline style="fill:none;stroke:#231F20;stroke-width:15.9697;stroke-linecap:round;stroke-linejoin:round;" points="
			625.623,92.019 632.179,78.608 645.608,51.14 705.612,46.92 720.856,70.532 728.023,81.635 		"/>
		<path style="fill:none;stroke:#231F20;stroke-width:2.8127;" d="M638.106,96.848c0,2.719-6.924,4.924-15.468,4.924
			s-15.472-2.206-15.472-4.924c0-2.718,6.928-4.92,15.472-4.92c1.022,0,2.019,0.03,2.984,0.091
			C632.737,92.46,638.106,94.453,638.106,96.848z"/>
		<path style="fill:none;stroke:#231F20;stroke-width:2.8127;" d="M744.989,86.536c0,2.715-6.928,4.92-15.468,4.92
			c-8.544,0-15.472-2.205-15.472-4.92c0-2.559,6.133-4.662,13.974-4.901c0.49-0.015,0.992-0.023,1.498-0.023
			C738.062,81.612,744.989,83.817,744.989,86.536z"/>
	</g>
</g>
</svg>
