<?xml version="1.0" encoding="iso-8859-1"?>
<!-- Generator: Adobe Illustrator 12.0.1, SVG Export Plug-In . SVG Version: 6.00 Build 51448)  -->
<!DOCTYPE svg PUBLIC "-//W3C//DTD SVG 1.1//EN" "http://www.w3.org/Graphics/SVG/1.1/DTD/svg11.dtd" [
	<!ENTITY ns_svg "http://www.w3.org/2000/svg">
	<!ENTITY ns_xlink "http://www.w3.org/1999/xlink">
]>
<svg  version="1.1" id="Layer_1" xmlns="&ns_svg;" xmlns:xlink="&ns_xlink;" width="850.394" height="850.394"
	 viewBox="0 0 850.394 850.394" style="overflow:visible;enable-background:new 0 0 850.394 850.394;" xml:space="preserve">
<g id="XMLID_2_">
	<g>
		<path style="fill:#ED1E29;" d="M780.97,138.27c0,18.17-7.46,34.87-19.52,53.68L652.44,333.12L541.23,191.13
			c-12.07-18.81-19.53-35.51-19.53-53.68c0-36.34,29.85-65.79,66.67-65.79c41.55,0,64.07,44.92,64.07,44.92
			c8.25-27.09,31.739-44.11,61.869-44.11C751.12,72.47,780.97,101.93,780.97,138.27z"/>
		<path style="fill:#FFEEC8;" d="M485.1,763.06h-0.01c-3.45,1.69-9.83,1.74-16.37-0.199c-7.33-2.19-14.84-6.891-18.64-14.641
			c-0.86-1.77,0.36-5.04,2.92-9.18l-0.57-0.35c-5.08,2.479-21.439-5.95-21.76-15.921c-0.17-5.05,5.88-14.939,13.42-25.239
			c5.05-6.9,10.771-13.98,15.73-19.9c6.93-8.29,12.37-14.28,12.37-14.28s-22.69-0.89-36.73-1.02c-0.3,0-0.6,0.01-0.91,0.03
			c-6.55,0.52-13.57,7.21-20.29,15.699c-7.45,9.421-14.51,21.061-20.15,29c-6.69,9.41-25.06-1.72-20.74-14.3
			c3.44-9.99,10.89-22.22,18.54-33.229c4.12-5.94,8.29-11.511,11.92-16.19c6.22-8.01,10.84-13.39,10.84-13.39s56.53-8.75,71.7-9.17
			c15.16-0.42,182.86-0.33,182.86-0.33L672,718l1,3.02c-4.48,3.04-8.94,6.28-13.7,8.961c-15.189,8.56-35.18,21.789-53.13,22.199
			c-17.979,0.391-19.61-4.949-38.729-5.46c-1.08-0.029-2.171-0.01-3.28,0.05c-14.601,0.79-31,8.91-35.04,15.75
			c-1.061,1.82-1.271,3.54-0.34,5.021c6.58,10.51-15.66,12.67-15.66,12.67c-12.19,0.11-23.83-3.03-28.53-12.61
			C484.04,766.48,484.27,764.93,485.1,763.06z"/>
		<path style="fill:#C8C8C8;" d="M564.16,746.77l0.18,3.671c0,0-0.29,3.979-3.97,9.529c-3.73,5.59-7.33,7.41-7.33,7.41
			c-5.48,3.01-12.83,0.38-21.05-4.72l-2.87-0.141C533.16,755.68,549.56,747.56,564.16,746.77z"/>
		<path style="fill:#ABD150;" d="M468.72,762.86l-0.81,2.8L67.78,650.03c31.66-10.84,71.59-25.07,81.08-31.011
			c16.29-10.18,18.32-55.979,18.32-55.979l1.5-1.74c16.31,19.69,33.66,34.9,49.85,43.97c17.1,7.58,29.59,5.641,49.09,5.641
			c3.59,0,6.97,0.03,10.2,0.05c6.41,14.59,18.14,24.64,32.8,34.42c0,0,19.47,11.59,32.98,8.9c13.52-2.69,21.85-11.67,33.22-4.09
			c3.27,2.189,7.26,4.85,11.27,7.52l3.82,1.82c-7.65,11.01-15.1,23.239-18.54,33.229c-4.32,12.58,14.05,23.71,20.74,14.3
			c5.64-7.939,12.7-19.579,20.15-29l3.9,0.41c6.5,4.78,15.51,11.4,25.28,18.58l0.649,0.48c-7.54,10.3-13.59,20.189-13.42,25.239
			c0.32,9.971,16.68,18.4,21.76,15.921l0.57,0.35c-2.56,4.14-3.78,7.41-2.92,9.18C453.88,755.97,461.39,760.67,468.72,762.86z"/>
		<path style="fill:#FFEEC8;" d="M456.18,336.85c14.33,5.82,11.681,25,6.761,35.04c-13.2,26.9-7.15,36.8-8.841,57.32
			c-0.64,7.81-9.529,22.96-28.12,19.42l-1-0.28c6.64-23.12,10.55-47.479,10.55-72.25c0-13.66-0.17-23.23-0.58-39.37h0.24l1.909-0.01
			c4.24-1.51,8.99-2.04,14.17-1.21C453.09,335.8,454.72,336.26,456.18,336.85z"/>
		<path style="fill:#9C5C25;" d="M309.19,190.9c-34.55,24.11-151.16,62.56-165.98,73.43c0,0-26.46,27.28-44.79,50.75
			c-6.59,8.44-12.12,16.38-15.01,22.38l-1.74-55.95c0-89.24,72.85-141.04,72.85-141.04c8.42-5.73,14.05-8.61,14.05-8.61
			c37.16-22.1,85.21-29.89,146.49-22.75c74,8.63,130.79,82.33,141.6,174.07c1.729,14.56,1.899,37.89-0.48,53.67
			c-1.46-0.59-3.09-1.05-4.91-1.34c-5.18-0.83-9.93-0.3-14.17,1.21l-1.909,0.01c-0.08-0.41-0.181-0.82-0.28-1.22
			c-6.8-27.32-36.45-50.61-44.05-61.11c-41.03-56.66-72.08-77.93-79.66-82.6c-1.18-0.73-1.79-1.06-1.79-1.06
			C309.34,190.79,309.27,190.84,309.19,190.9z"/>
		<path style="fill:#C8C8C8;" d="M434.55,662.36c6.99,4.229,15.86,9.6,25.271,15.27c-4.96,5.92-10.681,13-15.73,19.9l-0.649-0.48
			c-9.771-7.18-18.78-13.8-25.28-18.58l-3.9-0.41C420.98,669.57,428,662.88,434.55,662.36z"/>
		<path style="fill:#FFEEC8;" d="M214.61,363.91c-6.85-5.16-15.44-8.34-23.84-8.53c-8.77-0.19-16.79,2.43-23.91,6.81l5.61,1.49
			c-0.27,1.19-0.16,2.43-0.16,4.57c0,10.17,8.65,18.41,19.29,18.41c10.65,0,19.28-8.24,19.28-18.41L214.61,363.91z M329.82,529.08
			c4.85,4.86,11.07,8.689,16.52,10.85l-24.79-27.79C321.55,518.38,325.01,524.25,329.82,529.08z M370.71,358.91
			c-5.81-2.72-12.14-4.26-18.91-4.11c-9.24,0.21-18.71,4.04-25.84,10.15l5.5,0.04c0.03,0.6,0.23,1.24,0.23,2.69
			c0,10.16,8.63,18.41,19.29,18.41c10.63,0,19.27-8.25,19.27-18.41c0-2.78,0.2-4.06-0.49-5.68L370.71,358.91z M275.01,489.61
			c-0.23,0.04-0.47,0.08-0.72,0.12l1.63-0.101C275.6,489.63,275.3,489.62,275.01,489.61z M230.31,538
			c6.66,7.99,12.98,16.75,19.2,20.18c14.04,7.771,28.62,6.48,39.2,5.09c-1.81,1.311-3.51,2.881-4.97,4.74c0,0-1.86,1.91-3.02,3.641
			l-1.53,2.29c-1.16,1.739-2.21,4.199-2.21,4.199c-6.23,11.08-1.93,25.261-1.37,26.98c0.64,2.03,1.38,3.97,2.21,5.84
			c-3.23-0.02-6.61-0.05-10.2-0.05c-19.5,0-31.99,1.939-49.09-5.641c-16.19-9.069-33.54-24.279-49.85-43.97
			c-24.07-29.069-45.86-67.91-58.25-111.2c-6.76-23.63-10.72-48.58-10.72-74c0-8.42,0.01-23.17,0.13-37.41
			c0.07-7.98,0.16-15.8,0.31-22.26l-1.73-1.35c18.33-23.47,44.79-50.75,44.79-50.75c14.82-10.87,131.43-49.32,165.98-73.43
			c0.38,0.33,1.1,0.63,2.01,0.9c7.58,4.67,38.63,25.94,79.66,82.6c7.6,10.5,37.25,33.79,44.05,61.11c0.02,0.41,0.03,0.82,0.04,1.22
			c0.41,16.14,0.58,25.71,0.58,39.37c0,24.77-3.91,49.13-10.55,72.25c-13.7,47.811-39.01,90.36-65.36,120.4l-5.08,1.81
			c-14.98-9.5-29.33-15.63-46.4-14.159c-0.14,0.01-0.36,0.029-0.64,0.06c5.58-4.33,10.75-10.52,15.54-17.24
			c1.68-2.359,3.31-4.79,4.9-7.22l-2.4-1.1c-46.88-18.96-48.51-18.141-101.22,0.39c-0.56,0.2-1.13,0.4-1.71,0.6l2.28-0.02
			C226.72,533.78,228.53,535.86,230.31,538z"/>
		<path style="fill:#C8C8C8;" d="M277.82,610.96c-0.83-1.87-1.57-3.81-2.21-5.84c-0.56-1.72-4.86-15.9,1.37-26.98
			c0,0,1.05-2.46,2.21-4.199l1.53-2.29c1.16-1.73,3.02-3.641,3.02-3.641c1.46-1.859,3.16-3.43,4.97-4.74
			c1.94-0.25,3.75-0.51,5.39-0.72c4.71-0.59,9.17-2.81,13.4-6.09c0.28-0.03,0.5-0.05,0.64-0.06c17.07-1.471,31.42,4.659,46.4,14.159
			c1.4,0.891,2.8,1.801,4.21,2.74c0,0,18.16,13.54,20.86,27.061c2.69,13.52-2.4,24.67,8.95,32.239c3.6,2.4,8.04,5.36,12.42,8.29
			l2.85,2.45c-3.63,4.68-7.8,10.25-11.92,16.19l-3.82-1.82c-4.01-2.67-8-5.33-11.27-7.52c-11.37-7.58-19.7,1.399-33.22,4.09
			c-13.51,2.689-32.98-8.9-32.98-8.9C295.96,635.6,284.23,625.55,277.82,610.96z"/>
		<path style="fill:#FFFFFF;" d="M370.71,358.91l-0.95,3.09c0.69,1.62,0.49,2.9,0.49,5.68c0,10.16-8.64,18.41-19.27,18.41
			c-10.66,0-19.29-8.25-19.29-18.41c0-1.45-0.2-2.09-0.23-2.69l-5.5-0.04c7.13-6.11,16.6-9.94,25.84-10.15
			C358.57,354.65,364.9,356.19,370.71,358.91z M357.83,367.84c0-3.43-3.12-6.21-6.96-6.21c-3.85,0-6.97,2.78-6.97,6.21
			c0,3.43,3.12,6.2,6.97,6.2C354.71,374.04,357.83,371.27,357.83,367.84z"/>
		<path style="fill:#231F20;" d="M350.87,361.63c3.84,0,6.96,2.78,6.96,6.21c0,3.43-3.12,6.2-6.96,6.2c-3.85,0-6.97-2.77-6.97-6.2
			C343.9,364.41,347.02,361.63,350.87,361.63z"/>
		<path style="fill:#231F20;" d="M321.55,512.14l24.79,27.79c-5.45-2.16-11.67-5.989-16.52-10.85
			C325.01,524.25,321.55,518.38,321.55,512.14z"/>
		<path style="fill:#EF947D;" d="M325.54,530.9l2.4,1.1c-1.59,2.43-3.22,4.86-4.9,7.22L320,538h-89.69
			c-1.78-2.14-3.59-4.22-5.42-6.13L325.54,530.9z"/>
		<path style="fill:#EF947D;" d="M325.54,530.9l-100.65,0.97c-0.19-0.2-0.38-0.39-0.57-0.58
			C277.03,512.76,278.66,511.94,325.54,530.9z"/>
		<path style="fill:#EF947D;" d="M320,538l3.04,1.22c-4.79,6.721-9.96,12.91-15.54,17.24c-2.72,0.29-11.62,1.6-18.79,6.81
			c-10.58,1.391-25.16,2.681-39.2-5.09c-6.22-3.43-12.54-12.189-19.2-20.18H320z"/>
		<path style="fill:#231F20;" d="M288.71,563.27c7.17-5.21,16.07-6.52,18.79-6.81c-4.23,3.28-8.69,5.5-13.4,6.09
			C292.46,562.76,290.65,563.02,288.71,563.27z"/>
		<path style="fill:#231F20;" d="M224.89,531.87l-2.28,0.02c0.58-0.199,1.15-0.399,1.71-0.6
			C224.51,531.48,224.7,531.67,224.89,531.87z"/>
		<path style="fill:#FFFFFF;" d="M172.47,363.68l-5.61-1.49c7.12-4.38,15.14-7,23.91-6.81c8.4,0.19,16.99,3.37,23.84,8.53
			l-3.73,4.34c0,10.17-8.63,18.41-19.28,18.41c-10.64,0-19.29-8.24-19.29-18.41C172.31,366.11,172.2,364.87,172.47,363.68z
			 M198.5,367.88c0-3.43-3.12-6.2-6.96-6.2c-3.85,0-6.96,2.77-6.96,6.2c0,3.43,3.11,6.21,6.96,6.21
			C195.38,374.09,198.5,371.31,198.5,367.88z"/>
		<path style="fill:#231F20;" d="M191.54,361.68c3.84,0,6.96,2.77,6.96,6.2c0,3.43-3.12,6.21-6.96,6.21c-3.85,0-6.96-2.78-6.96-6.21
			C184.58,364.45,187.69,361.68,191.54,361.68z"/>
		<path style="fill:#FFEEC8;" d="M110.43,450.1l-1.73,0.49c-18.58,3.54-27.48-11.609-28.12-19.42c-1.68-20.52,4.35-30.42-8.83-57.33
			c-5.42-11.05-8.08-33.21,11.66-36.38c5.17-0.82,9.93-0.3,14.18,1.21l2.25,0.02c-0.12,14.24-0.13,28.99-0.13,37.41
			C99.71,401.52,103.67,426.47,110.43,450.1z"/>
	</g>
	<g>
		<path style="fill:none;stroke:#231F20;stroke-width:13.172;stroke-linecap:square;stroke-miterlimit:10;" d="M150.77,376.53
			c4.64-5.61,10.03-10.61,16.09-14.34c7.12-4.38,15.14-7,23.91-6.81c8.4,0.19,16.99,3.37,23.84,8.53c4.11,3.1,7.59,6.92,10.03,11.23
			"/>
		<path style="fill:none;stroke:#231F20;stroke-width:13.172;stroke-linecap:square;stroke-miterlimit:10;" d="M210.88,368.25
			c0,10.17-8.63,18.41-19.28,18.41c-10.64,0-19.29-8.24-19.29-18.41c0-2.14-0.11-3.38,0.16-4.57c0.05-0.22,0.11-0.44,0.18-0.66"/>
		<path style="fill:none;stroke:#231F20;stroke-width:13.172;stroke-linecap:square;stroke-miterlimit:10;" d="M391.8,375.95
			c-5.87-7.1-12.97-13.23-21.09-17.04c-5.81-2.72-12.14-4.26-18.91-4.11c-9.24,0.21-18.71,4.04-25.84,10.15
			c-3.24,2.78-6,6.03-8.03,9.62"/>
		<path style="fill:none;stroke:#231F20;stroke-width:13.172;stroke-linecap:square;stroke-miterlimit:10;" d="M331.46,364.99
			c0.03,0.6,0.23,1.24,0.23,2.69c0,10.16,8.63,18.41,19.29,18.41c10.63,0,19.27-8.25,19.27-18.41c0-2.78,0.2-4.06-0.49-5.68"/>
		<path style="fill:none;stroke:#231F20;stroke-width:14;" d="M97.59,338.67c-4.25-1.51-9.01-2.03-14.18-1.21
			c-19.74,3.17-17.08,25.33-11.66,36.38c13.18,26.91,7.15,36.81,8.83,57.33c0.64,7.811,9.54,22.96,28.12,19.42"/>
		<path style="fill:none;stroke:#231F20;stroke-width:14;" d="M437.1,336.72c4.24-1.51,8.99-2.04,14.17-1.21
			c1.82,0.29,3.45,0.75,4.91,1.34c14.33,5.82,11.681,25,6.761,35.04c-13.2,26.9-7.15,36.8-8.841,57.32
			c-0.64,7.81-9.529,22.96-28.12,19.42"/>
		<path style="fill:none;stroke:#231F20;stroke-width:14;" d="M278.03,610.96c-0.07,0-0.14,0-0.21,0c-3.23-0.02-6.61-0.05-10.2-0.05
			c-19.5,0-31.99,1.939-49.09-5.641c-16.19-9.069-33.54-24.279-49.85-43.97c-24.07-29.069-45.86-67.91-58.25-111.2
			c-6.76-23.63-10.72-48.58-10.72-74c0-8.42,0.01-23.17,0.13-37.41c0.07-7.98,0.16-15.8,0.31-22.26"/>
		<path style="fill:none;stroke:#231F20;stroke-width:14;" d="M434.86,333.41c0.02,0.71,0.04,1.41,0.05,2.1
			c0.02,0.41,0.03,0.82,0.04,1.22c0.41,16.14,0.58,25.71,0.58,39.37c0,24.77-3.91,49.13-10.55,72.25
			c-13.7,47.811-39.01,90.36-65.36,120.4"/>
		<path style="fill:none;stroke:#231F20;stroke-width:14;" d="M275.01,489.61c9.2-1.7,7.55-7.15,17.41-4.761
			c8.51,2.061,17.54,6.301,19.65-7c1.46-9.14-5.41-10.35-9.07-17.71"/>
		<path style="fill:none;stroke:#231F20;stroke-width:14;" d="M275.01,489.61c0.29,0.01,0.59,0.02,0.91,0.02l-1.63,0.101
			C274.54,489.69,274.78,489.65,275.01,489.61z"/>
		<path style="fill:none;stroke:#231F20;stroke-width:14;" d="M246.26,375.53c15.26,16.74,10.64,56.07,3.82,76.55l-2.87,7.97
			c-3.66,7.351-10.54,8.55-9.08,17.7c2.12,13.29,11.14,9.05,19.64,7c9.82-2.38,7.6,4.46,17.24,4.86"/>
		<path style="fill:none;stroke:#231F20;stroke-width:6.586;" d="M198.5,367.88c0,3.43-3.12,6.21-6.96,6.21
			c-3.85,0-6.96-2.78-6.96-6.21c0-3.43,3.11-6.2,6.96-6.2C195.38,361.68,198.5,364.45,198.5,367.88z"/>
		<path style="fill:none;stroke:#231F20;stroke-width:6.586;" d="M357.83,367.84c0,3.43-3.12,6.2-6.96,6.2
			c-3.85,0-6.97-2.77-6.97-6.2c0-3.43,3.12-6.21,6.97-6.21C354.71,361.63,357.83,364.41,357.83,367.84z"/>
		<path style="fill:none;stroke:#231F20;stroke-width:14;" d="M236.15,344.8c-8.23-17.33-40.42-24.09-56.72-20.83
			c-15.33,3.05-22.92,4.89-38.9,17.28"/>
		<path style="fill:none;stroke:#231F20;stroke-width:14;" d="M302.87,341.01c8.23-17.33,40.43-24.09,56.72-20.84
			c15.34,3.06,22.93,4.89,38.9,17.28"/>
		<path style="fill:none;stroke:#231F20;stroke-width:14;" d="M456,338c0.06-0.38,0.12-0.76,0.18-1.15
			c2.38-15.78,2.21-39.11,0.48-53.67c-10.811-91.74-67.6-165.44-141.6-174.07c-61.28-7.14-109.33,0.65-146.49,22.75
			c0,0-5.63,2.88-14.05,8.61c0,0-72.85,51.8-72.85,141.04l1.74,55.95c2.89-6,8.42-13.94,15.01-22.38
			c18.33-23.47,44.79-50.75,44.79-50.75c14.82-10.87,131.43-49.32,165.98-73.43c0.08-0.06,0.15-0.11,0.22-0.16
			c0,0,0.61,0.33,1.79,1.06c7.58,4.67,38.63,25.94,79.66,82.6c7.6,10.5,37.25,33.79,44.05,61.11c0.1,0.4,0.2,0.81,0.28,1.22
			c0.56,2.48,0.92,4.99,1.06,7.53"/>
		<path style="fill:none;stroke:#231F20;stroke-width:14;" d="M322.88,193.31c-1.72,0.01-8.16-0.49-11.68-1.51
			c-0.91-0.27-1.63-0.57-2.01-0.9c-0.14-0.12-0.24-0.25-0.29-0.38c10.6-10.31,18.96-27.15,18.96-44.23"/>
		<path style="fill:none;stroke:#231F20;stroke-width:14;" d="M669.23,620.45c0,0-167.7-0.09-182.86,0.33
			c-15.17,0.42-71.7,9.17-71.7,9.17s-4.62,5.38-10.84,13.39c-3.63,4.68-7.8,10.25-11.92,16.19c-7.65,11.01-15.1,23.239-18.54,33.229
			c-4.32,12.58,14.05,23.71,20.74,14.3c5.64-7.939,12.7-19.579,20.15-29c6.72-8.489,13.74-15.18,20.29-15.699
			c0.311-0.021,0.61-0.03,0.91-0.03c14.04,0.13,36.73,1.02,36.73,1.02s-5.44,5.99-12.37,14.28c-4.96,5.92-10.681,13-15.73,19.9
			c-7.54,10.3-13.59,20.189-13.42,25.239c0.32,9.971,16.68,18.4,21.76,15.921"/>
		<path style="fill:none;stroke:#231F20;stroke-width:14;" d="M501.78,685.23c0,0-37.48,35.5-48.78,53.81
			c-2.56,4.14-3.78,7.41-2.92,9.18c3.8,7.75,11.31,12.45,18.64,14.641c6.54,1.939,12.92,1.89,16.37,0.199"/>
		<path style="fill:none;stroke:#231F20;stroke-width:14;" d="M532.09,716.81c0,0-40.7,32.131-46.99,46.25
			c-0.83,1.87-1.06,3.421-0.51,4.54c4.7,9.58,16.34,12.721,28.53,12.61c0,0,22.24-2.16,15.66-12.67
			c-0.931-1.48-0.721-3.2,0.34-5.021c4.04-6.84,20.439-14.96,35.04-15.75c1.109-0.06,2.2-0.079,3.28-0.05
			c19.119,0.511,20.75,5.851,38.729,5.46c17.95-0.41,37.94-13.64,53.13-22.199c4.76-2.681,9.22-5.921,13.7-8.961
			c1.5-1.01,2.99-2,4.5-2.939"/>
		<path style="fill:none;stroke:#231F20;stroke-width:7;" d="M222.61,531.89c0.58-0.199,1.15-0.399,1.71-0.6
			c52.71-18.53,54.34-19.35,101.22-0.39"/>
		<path style="fill:none;stroke:#231F20;stroke-width:7;" d="M223.91,530.87c0.14,0.14,0.28,0.28,0.41,0.42
			c0.19,0.19,0.38,0.38,0.57,0.58c1.83,1.91,3.64,3.99,5.42,6.13c6.66,7.99,12.98,16.75,19.2,20.18
			c14.04,7.771,28.62,6.48,39.2,5.09c1.94-0.25,3.75-0.51,5.39-0.72c4.71-0.59,9.17-2.81,13.4-6.09
			c5.58-4.33,10.75-10.52,15.54-17.24c1.68-2.359,3.31-4.79,4.9-7.22c0.63-0.97,1.26-1.95,1.88-2.92"/>
		<polyline style="fill:none;stroke:#231F20;stroke-width:7;" points="320,538 230.31,538 230,538 		"/>
		<path style="fill:none;stroke:#231F20;stroke-width:7;" d="M204.17,538.31c19.74-7.439,24.79-15.27,24.79-27.79"/>
		<path style="fill:none;stroke:#231F20;stroke-width:7;" d="M346.34,539.93c-5.45-2.16-11.67-5.989-16.52-10.85
			c-4.81-4.83-8.27-10.7-8.27-16.94"/>
		<path style="fill:none;stroke:#231F20;stroke-width:14;" d="M460.19,677.85c-0.12-0.069-0.25-0.149-0.37-0.22
			c-9.41-5.67-18.28-11.04-25.271-15.27c-0.26-0.15-0.52-0.311-0.77-0.46"/>
		<path style="fill:none;stroke:#231F20;stroke-width:14;" d="M531.99,762.66c8.22,5.1,15.569,7.729,21.05,4.72
			c0,0,3.6-1.82,7.28-7.32c0.02-0.029,0.04-0.06,0.05-0.09c3.68-5.55,3.97-9.529,3.97-9.529"/>
		<path style="fill:none;stroke:#231F20;stroke-width:14;" d="M418.16,678.47c6.5,4.78,15.51,11.4,25.28,18.58"/>
		<path style="fill:none;stroke:#231F20;stroke-width:14;" d="M400.98,640.89c-4.38-2.93-8.82-5.89-12.42-8.29
			c-11.35-7.569-6.26-18.72-8.95-32.239c-2.7-13.521-20.86-27.061-20.86-27.061c-1.41-0.939-2.81-1.85-4.21-2.74
			c-14.98-9.5-29.33-15.63-46.4-14.159c-0.14,0.01-0.36,0.029-0.64,0.06c-2.72,0.29-11.62,1.6-18.79,6.81
			c-1.81,1.311-3.51,2.881-4.97,4.74c0,0-1.86,1.91-3.02,3.641l-1.53,2.29c-1.16,1.739-2.21,4.199-2.21,4.199
			c-6.23,11.08-1.93,25.261-1.37,26.98c0.64,2.03,1.38,3.97,2.21,5.84c6.41,14.59,18.14,24.64,32.8,34.42c0,0,19.47,11.59,32.98,8.9
			c13.52-2.69,21.85-11.67,33.22-4.09c3.27,2.189,7.26,4.85,11.27,7.52"/>
		<path style="fill:none;stroke:#231F20;stroke-width:14;" d="M167.18,563.04c0,0-2.03,45.8-18.32,55.979
			c-9.49,5.94-49.42,20.171-81.08,31.011"/>
		<path style="fill:none;stroke:#231F20;stroke-width:14;" d="M652.44,116.58c8.25-27.09,31.739-44.11,61.869-44.11
			c36.811,0,66.66,29.46,66.66,65.8c0,18.17-7.46,34.87-19.52,53.68L652.44,333.12L541.23,191.13
			c-12.07-18.81-19.53-35.51-19.53-53.68c0-36.34,29.85-65.79,66.67-65.79C629.92,71.66,652.44,116.58,652.44,116.58z"/>
	</g>
</g>
<rect style="fill:none;" width="850.394" height="850.394"/>
</svg>
