<?xml version="1.0" encoding="iso-8859-1"?>
<!-- Generator: Adobe Illustrator 12.0.1, SVG Export Plug-In . SVG Version: 6.00 Build 51448)  -->
<!DOCTYPE svg PUBLIC "-//W3C//DTD SVG 1.1//EN" "http://www.w3.org/Graphics/SVG/1.1/DTD/svg11.dtd" [
	<!ENTITY ns_svg "http://www.w3.org/2000/svg">
	<!ENTITY ns_xlink "http://www.w3.org/1999/xlink">
]>
<svg  version="1.1" id="Layer_1" xmlns="&ns_svg;" xmlns:xlink="&ns_xlink;" width="850.394" height="850.394"
	 viewBox="0 0 850.394 850.394" style="overflow:visible;enable-background:new 0 0 850.394 850.394;" xml:space="preserve">
<g id="XMLID_1_">
	<g>
		<path style="fill:#FFEEC8;" d="M614.656,171.21c-0.31,0.67-0.6,1.33-0.88,1.99C614.066,172.55,614.356,171.89,614.656,171.21z
			 M597.406,170.7h-0.01c-2.55,3.3-4.681,5.73-6.431,7.51l-0.26-0.26c0.57-7.24-5.47-10.2-10.38-8.67l-1.77-0.44
			c3.159-7.54,10.189-18.19,20.279-32c6.62-4.32,15.19-12.68,26.04-16.49c2.79-0.98,5.65-1.77,8.511-2.39
			c13.239-2.91,26.47-2.37,33.029-1.64c2.21,0.24,3.67,0.51,4.101,0.67c9.34,3.5,36.989,33.28,40.029,37.62
			c3.631,5.19,19.03,25.38,22.521,66.63c13.229,8.31,29.189,20.05,76.77,46.76c0,0-18.51,44.14-54.239,42.08
			c-9.801-6.59-17.53-17.27-26.82-24.75c-13.88-11.19-38.44-49.83-38.44-49.83c-24.13-4.34-56.989-29.33-65.84-46.72
			c-1.399,2.09-2.74,3.98-4.05,5.56c3.01-8.19-8.16-10.48-10.84-5.65l-0.67-0.22c1.149-5.05,2.64-10.06,4.8-15.18
			c-2.21,4.97-4.22,8.96-6.22,11.94l-0.511-0.33c2.16-6.36-5.149-11.69-11.729-5.12l-0.12-0.02
			C595.677,176.85,596.406,173.8,597.406,170.7z"/>
		<path style="fill:#FFEEC8;" d="M666.416,116.32c-6.56-0.73-19.79-1.27-33.029,1.64c-7.761-3.9-11.921-9.77-17.521-16.51
			c-7.66,0-20.37-2.34-26.38-6.57c-9.35,2.89-19.71-0.71-24.28-9.11c4.75,0.81,12.96,1.29,17.98-5.03
			c11.09-1.04,24.56,0.33,40.26,3.26C623.446,84,651.526,101.89,666.416,116.32z"/>
		<path style="fill:#FFEEC8;" d="M609.606,188.69c2.68-4.83,13.85-2.54,10.84,5.65c-2.43,2.94-4.77,4.79-7.3,4.79
			c-3,0-4.58-1.41-5.58-3.68c0.399-2.35,0.85-4.67,1.37-6.98L609.606,188.69z"/>
		<path style="fill:#787878;" d="M614.996,721.84c16.57,16.7,17.03,43.101,1.03,58.97l-5.09,5.061
			c-15.99,15.87-42.391,15.229-58.96-1.46L81.036,310.09c-16.57-16.69-17.03-43.09-1.03-58.98l5.07-5.03
			c16-15.9,42.4-15.25,58.97,1.45L614.996,721.84z M598.216,750.5c2.641-2.61,2.671-6.9,0.04-9.55
			c-2.619-2.63-6.909-2.641-9.55-0.01c-2.64,2.619-2.66,6.899-0.04,9.55C591.296,753.12,595.566,753.14,598.216,750.5z
			 M585.216,732.08c2.65-2.62,2.681-6.9,0.04-9.55c-2.64-2.641-6.899-2.67-9.56-0.03c-2.64,2.62-2.66,6.91-0.04,9.55
			C578.296,734.71,582.576,734.72,585.216,732.08z M576.236,760.6c2.64-2.63,2.66-6.909,0.03-9.56c-2.63-2.64-6.9-2.66-9.551-0.03
			c-2.649,2.641-2.659,6.91-0.039,9.55C569.316,763.22,573.586,763.23,576.236,760.6z M563.477,741.87
			c2.64-2.62,2.66-6.91,0.029-9.55c-2.63-2.641-6.909-2.66-9.55-0.03c-2.649,2.62-2.66,6.91-0.029,9.54
			C556.557,744.48,560.826,744.49,563.477,741.87z M530.376,682.17c2.63-2.62,2.65-6.9,0.021-9.55c-2.62-2.65-6.91-2.65-9.53-0.04
			c-2.65,2.65-2.68,6.92-0.04,9.56C523.446,684.79,527.727,684.8,530.376,682.17z M528.116,719.95c2.65-2.641,2.66-6.9,0.021-9.561
			c-2.62-2.64-6.9-2.67-9.54-0.029c-2.65,2.62-2.66,6.909-0.051,9.55C521.196,722.57,525.456,722.57,528.116,719.95z
			 M517.366,663.75c2.66-2.63,2.67-6.9,0.03-9.56c-2.62-2.65-6.91-2.66-9.54-0.03c-2.66,2.63-2.68,6.91-0.05,9.55
			C510.437,666.37,514.716,666.37,517.366,663.75z M508.387,692.26c2.64-2.62,2.659-6.91,0.029-9.56
			c-2.63-2.641-6.899-2.65-9.55-0.03c-2.65,2.64-2.67,6.91-0.03,9.55C501.466,694.87,505.727,694.9,508.387,692.26z M495.626,673.54
			c2.641-2.64,2.66-6.91,0.021-9.56c-2.63-2.641-6.891-2.66-9.55-0.03c-2.641,2.62-2.65,6.91-0.03,9.54
			C488.696,676.15,492.977,676.16,495.626,673.54z M469.137,638.64c2.659-2.62,2.67-6.909,0.02-9.56c-2.61-2.64-6.9-2.66-9.54-0.03
			c-2.65,2.641-2.67,6.91-0.04,9.55C462.216,641.26,466.486,641.28,469.137,638.64z M450.716,601.96c2.65-2.63,2.671-6.9,0.03-9.56
			c-2.62-2.65-6.91-2.65-9.54-0.03c-2.649,2.63-2.66,6.899-0.05,9.55C443.786,604.57,448.066,604.59,450.716,601.96z
			 M437.727,583.53c2.63-2.641,2.66-6.91,0.029-9.561c-2.619-2.64-6.909-2.66-9.55-0.02c-2.649,2.63-2.66,6.899-0.04,9.55
			C430.786,586.14,435.066,586.15,437.727,583.53z M428.736,612.04c2.64-2.63,2.66-6.9,0.03-9.56c-2.63-2.641-6.91-2.65-9.55-0.021
			c-2.65,2.62-2.67,6.89-0.04,9.54S426.086,614.67,428.736,612.04z M415.966,593.31c2.65-2.63,2.67-6.899,0.04-9.55
			c-2.62-2.64-6.89-2.67-9.56-0.029c-2.63,2.619-2.66,6.909-0.03,9.55C409.046,595.93,413.326,595.93,415.966,593.31z
			 M386.556,551.97c2.64-2.62,2.65-6.899,0.02-9.55c-2.63-2.64-6.9-2.65-9.55-0.03c-2.65,2.63-2.66,6.9-0.03,9.54
			C379.616,554.58,383.896,554.61,386.556,551.97z M372.096,522.77c2.63-2.63,2.66-6.909,0.03-9.55c-2.62-2.64-6.91-2.66-9.55-0.029
			c-2.65,2.619-2.66,6.899-0.04,9.54C365.167,525.38,369.426,525.39,372.096,522.77z M359.086,504.34c2.66-2.64,2.67-6.91,0.04-9.56
			c-2.63-2.65-6.9-2.66-9.56-0.04c-2.65,2.64-2.66,6.91-0.04,9.55C352.167,506.95,356.446,506.97,359.086,504.34z M350.106,532.85
			c2.64-2.64,2.66-6.899,0.03-9.55c-2.62-2.649-6.9-2.67-9.55-0.04c-2.64,2.641-2.66,6.91-0.03,9.55
			C343.187,535.47,347.456,535.48,350.106,532.85z M337.336,514.12c2.66-2.62,2.67-6.9,0.04-9.55c-2.63-2.65-6.9-2.67-9.55-0.03
			c-2.65,2.62-2.66,6.9-0.03,9.55C330.426,516.73,334.696,516.75,337.336,514.12z M301.346,481.12c2.64-2.63,2.66-6.91,0.03-9.561
			c-2.62-2.64-6.9-2.659-9.55-0.029c-2.64,2.63-2.66,6.92-0.03,9.56C294.426,483.74,298.696,483.75,301.346,481.12z M291.776,441.87
			c2.64-2.63,2.67-6.91,0.04-9.55c-2.63-2.65-6.91-2.67-9.57-0.03c-2.65,2.63-2.65,6.9-0.02,9.54
			C284.856,444.48,289.116,444.5,291.776,441.87z M278.776,423.43c2.65-2.62,2.66-6.89,0.03-9.54c-2.63-2.65-6.9-2.66-9.55-0.04
			c-2.65,2.64-2.66,6.91-0.04,9.56C271.846,426.05,276.126,426.07,278.776,423.43z M269.786,451.95c2.64-2.63,2.66-6.891,0.04-9.54
			c-2.63-2.66-6.91-2.66-9.56-0.04c-2.65,2.63-2.66,6.91-0.03,9.55C262.866,454.58,267.136,454.58,269.786,451.95z M257.026,433.22
			c2.65-2.62,2.66-6.89,0.03-9.55c-2.63-2.64-6.9-2.65-9.55-0.03c-2.64,2.62-2.66,6.9-0.03,9.55
			C250.106,435.84,254.376,435.85,257.026,433.22z M245.976,390.93c2.63-2.62,2.65-6.89,0.03-9.55c-2.62-2.65-6.91-2.66-9.55-0.02
			c-2.64,2.63-2.66,6.89-0.03,9.54C239.046,393.55,243.326,393.56,245.976,390.93z M211.806,366.22c2.65-2.63,2.67-6.91,0.04-9.56
			c-2.63-2.65-6.91-2.66-9.55-0.04c-2.66,2.64-2.66,6.91-0.04,9.56C204.886,368.83,209.156,368.85,211.806,366.22z M198.806,347.78
			c2.65-2.63,2.66-6.91,0.04-9.55c-2.63-2.65-6.91-2.66-9.56-0.03c-2.64,2.63-2.66,6.9-0.03,9.54
			C191.886,350.4,196.156,350.41,198.806,347.78z M189.816,376.3c2.65-2.63,2.67-6.91,0.04-9.56c-2.63-2.64-6.9-2.66-9.55-0.03
			s-2.66,6.91-0.03,9.55C182.896,378.91,187.176,378.93,189.816,376.3z M177.056,357.57c2.65-2.62,2.67-6.91,0.04-9.56
			c-2.63-2.63-6.91-2.65-9.55-0.02c-2.65,2.62-2.66,6.9-0.04,9.54C170.136,360.18,174.417,360.2,177.056,357.57z M144.956,297.21
			c2.65-2.62,2.68-6.9,0.04-9.55c-2.62-2.65-6.9-2.65-9.55-0.03c-2.65,2.64-2.66,6.9-0.03,9.55
			C138.046,299.83,142.316,299.84,144.956,297.21z M140.876,332.22c2.65-2.62,2.66-6.9,0.04-9.55c-2.62-2.65-6.91-2.66-9.55-0.02
			c-2.65,2.63-2.67,6.89-0.04,9.54S138.236,334.85,140.876,332.22z M131.966,278.79c2.65-2.63,2.66-6.92,0.03-9.57
			c-2.62-2.64-6.9-2.65-9.55-0.02c-2.65,2.63-2.66,6.9-0.03,9.55C125.046,281.4,129.316,281.41,131.966,278.79z M122.976,307.3
			c2.65-2.63,2.66-6.91,0.03-9.55c-2.62-2.65-6.9-2.66-9.55-0.04c-2.64,2.64-2.66,6.91-0.03,9.56S120.326,309.92,122.976,307.3z
			 M110.216,288.57c2.65-2.63,2.66-6.9,0.04-9.55c-2.63-2.65-6.91-2.66-9.55-0.04c-2.65,2.63-2.66,6.91-0.04,9.55
			C103.296,291.18,107.576,291.2,110.216,288.57z"/>
		<path style="fill:#FFEEC8;" d="M607.006,184.9l0.511,0.33c-3.96,5.9-7.91,7.88-13.41,5.73c0-3.31,0.31-7.12,1.05-11.2l0.12,0.02
			C601.856,173.21,609.166,178.54,607.006,184.9z"/>
		<path d="M598.256,740.95c2.631,2.649,2.601,6.939-0.04,9.55c-2.649,2.64-6.92,2.62-9.55-0.01c-2.62-2.65-2.6-6.931,0.04-9.55
			C591.347,738.31,595.637,738.32,598.256,740.95z"/>
		<path style="fill:#FFEEC8;" d="M590.706,177.95l0.26,0.26c-3.68,3.71-5.75,4.54-6.789,4.46c-7.78-0.62-9.24-5.2-5.62-13.83
			l1.77,0.44C585.236,167.75,591.276,170.71,590.706,177.95z"/>
		<path d="M585.256,722.53c2.641,2.649,2.61,6.93-0.04,9.55c-2.64,2.64-6.92,2.63-9.56-0.03c-2.62-2.64-2.6-6.93,0.04-9.55
			C578.356,719.86,582.616,719.89,585.256,722.53z"/>
		<path d="M576.267,751.04c2.63,2.65,2.609,6.93-0.03,9.56c-2.65,2.631-6.92,2.62-9.56-0.04c-2.62-2.64-2.61-6.909,0.039-9.55
			C569.366,748.38,573.637,748.4,576.267,751.04z"/>
		<path style="fill:#787878;" d="M564.236,52.16c9.18,9.17,0.92,17.43,0.92,17.43l-77.1,77.1l-0.301,0.3
			c-5.77-5.66-12.64-11.3-18.42-15.38l0.37-0.52l78.471-78.48C548.177,52.61,555.066,42.98,564.236,52.16z M558.506,67.19
			c0.79-0.8,0.931-2.19,0.311-3.12c-0.62-0.93-1.76-1.05-2.55-0.26c-0.78,0.79-0.92,2.19-0.311,3.12
			C556.576,67.86,557.716,67.98,558.506,67.19z M556.506,59.75c0.79-0.79,0.931-2.19,0.311-3.12c-0.62-0.93-1.76-1.05-2.54-0.26
			c-0.79,0.79-0.92,2.19-0.311,3.12C554.586,60.42,555.716,60.54,556.506,59.75z M553.106,70.87c0.8-0.79,0.93-2.18,0.32-3.12
			c-0.62-0.93-1.761-1.04-2.551-0.25c-0.779,0.79-0.92,2.19-0.31,3.12C551.187,71.55,552.326,71.66,553.106,70.87z M551.187,63.52
			c0.79-0.79,0.93-2.19,0.31-3.12c-0.609-0.93-1.75-1.05-2.54-0.25c-0.79,0.79-0.93,2.18-0.31,3.11
			C549.256,64.2,550.406,64.31,551.187,63.52z M546.156,81.86c0.79-0.79,0.93-2.18,0.31-3.12c-0.609-0.93-1.75-1.05-2.539-0.25
			c-0.79,0.79-0.931,2.18-0.311,3.12C544.236,82.54,545.376,82.65,546.156,81.86z M538.156,87.59c0.79-0.79,0.93-2.18,0.32-3.11
			c-0.62-0.93-1.761-1.05-2.55-0.26c-0.79,0.79-0.921,2.19-0.311,3.12C536.236,88.27,537.376,88.39,538.156,87.59z M536.166,80.15
			c0.79-0.78,0.931-2.18,0.311-3.11s-1.761-1.05-2.54-0.26c-0.79,0.79-0.931,2.19-0.311,3.12
			C534.246,80.83,535.376,80.95,536.166,80.15z M532.767,91.28c0.79-0.79,0.93-2.18,0.319-3.12c-0.62-0.93-1.76-1.04-2.55-0.25
			c-0.79,0.8-0.92,2.18-0.31,3.12C530.847,91.96,531.986,92.07,532.767,91.28z M530.847,83.93c0.79-0.79,0.93-2.19,0.31-3.12
			c-0.61-0.93-1.75-1.05-2.54-0.25c-0.79,0.79-0.93,2.18-0.31,3.11C528.927,84.61,530.057,84.73,530.847,83.93z M522.646,99.04
			c0.79-0.79,0.92-2.19,0.31-3.12c-0.62-0.94-1.76-1.05-2.55-0.25c-0.79,0.79-0.93,2.18-0.31,3.11
			C520.716,99.72,521.856,99.83,522.646,99.04z M514.286,111.56c0.78-0.8,0.92-2.19,0.311-3.12c-0.62-0.94-1.761-1.05-2.551-0.26
			c-0.779,0.79-0.92,2.19-0.3,3.12C512.356,112.23,513.496,112.35,514.286,111.56z M512.286,104.12c0.79-0.79,0.93-2.19,0.311-3.12
			c-0.61-0.94-1.75-1.05-2.54-0.26c-0.79,0.79-0.931,2.19-0.311,3.12C510.366,104.79,511.496,104.9,512.286,104.12z M508.896,115.24
			c0.79-0.79,0.92-2.18,0.31-3.11c-0.62-0.94-1.76-1.05-2.55-0.26c-0.78,0.79-0.92,2.18-0.31,3.12
			C506.966,115.92,508.106,116.04,508.896,115.24z M506.966,107.89c0.79-0.79,0.931-2.19,0.311-3.12s-1.75-1.05-2.54-0.26
			c-0.79,0.79-0.93,2.19-0.31,3.12C505.046,108.56,506.187,108.68,506.966,107.89z M496.956,123.79c0.78-0.79,0.931-2.18,0.311-3.12
			c-0.62-0.93-1.761-1.04-2.551-0.25c-0.779,0.79-0.92,2.19-0.31,3.12C495.026,124.47,496.166,124.58,496.956,123.79z
			 M490.716,135.21c0.79-0.79,0.921-2.19,0.311-3.12c-0.62-0.93-1.76-1.05-2.55-0.26s-0.92,2.19-0.311,3.12
			C488.786,135.88,489.927,136,490.716,135.21z M488.716,127.77c0.79-0.79,0.931-2.19,0.311-3.12c-0.61-0.93-1.76-1.05-2.54-0.26
			c-0.79,0.79-0.92,2.19-0.31,3.12C486.796,128.44,487.937,128.56,488.716,127.77z M485.326,138.89c0.78-0.79,0.92-2.18,0.311-3.11
			c-0.62-0.94-1.761-1.05-2.551-0.26s-0.93,2.19-0.31,3.12C483.396,139.57,484.536,139.68,485.326,138.89z M483.396,131.54
			c0.79-0.79,0.93-2.19,0.31-3.12c-0.62-0.93-1.75-1.05-2.54-0.26s-0.93,2.19-0.31,3.12
			C481.477,132.22,482.606,132.33,483.396,131.54z"/>
		<path d="M563.506,732.32c2.631,2.64,2.61,6.93-0.029,9.55c-2.65,2.62-6.92,2.61-9.55-0.04c-2.631-2.63-2.62-6.92,0.029-9.54
			C556.597,729.66,560.876,729.68,563.506,732.32z"/>
		<path d="M558.816,64.07c0.62,0.93,0.479,2.32-0.311,3.12c-0.79,0.79-1.93,0.67-2.55-0.26c-0.609-0.93-0.47-2.33,0.311-3.12
			C557.057,63.02,558.196,63.14,558.816,64.07z"/>
		<path d="M556.816,56.63c0.62,0.93,0.479,2.33-0.311,3.12s-1.92,0.67-2.54-0.26c-0.609-0.93-0.479-2.33,0.311-3.12
			C555.057,55.58,556.196,55.7,556.816,56.63z"/>
		<path d="M553.427,67.75c0.609,0.94,0.479,2.33-0.32,3.12c-0.78,0.79-1.92,0.68-2.54-0.25c-0.61-0.93-0.47-2.33,0.31-3.12
			C551.666,66.71,552.807,66.82,553.427,67.75z"/>
		<path d="M551.496,60.4c0.62,0.93,0.48,2.33-0.31,3.12c-0.78,0.79-1.931,0.68-2.54-0.26c-0.62-0.93-0.48-2.32,0.31-3.11
			C549.746,59.35,550.887,59.47,551.496,60.4z"/>
		<path d="M546.466,78.74c0.62,0.94,0.48,2.33-0.31,3.12c-0.78,0.79-1.92,0.68-2.54-0.25c-0.62-0.94-0.479-2.33,0.311-3.12
			C544.716,77.69,545.856,77.81,546.466,78.74z"/>
		<path d="M538.477,84.48c0.609,0.93,0.47,2.32-0.32,3.11c-0.78,0.8-1.92,0.68-2.54-0.25c-0.61-0.93-0.479-2.33,0.311-3.12
			C536.716,83.43,537.856,83.55,538.477,84.48z"/>
		<path d="M536.477,77.04c0.62,0.93,0.479,2.33-0.311,3.11c-0.79,0.8-1.92,0.68-2.54-0.25c-0.62-0.93-0.479-2.33,0.311-3.12
			C534.716,75.99,535.856,76.11,536.477,77.04z"/>
		<path d="M533.086,88.16c0.61,0.94,0.471,2.33-0.319,3.12c-0.78,0.79-1.92,0.68-2.54-0.25c-0.61-0.94-0.48-2.32,0.31-3.12
			C531.326,87.12,532.466,87.23,533.086,88.16z"/>
		<path d="M531.156,80.81c0.62,0.93,0.48,2.33-0.31,3.12c-0.79,0.8-1.92,0.68-2.54-0.26c-0.62-0.93-0.48-2.32,0.31-3.11
			C529.406,79.76,530.546,79.88,531.156,80.81z"/>
		<path d="M530.396,672.62c2.63,2.649,2.609,6.93-0.021,9.55c-2.649,2.63-6.93,2.62-9.55-0.03c-2.64-2.64-2.61-6.909,0.04-9.56
			C523.486,669.97,527.776,669.97,530.396,672.62z"/>
		<path d="M528.137,710.39c2.64,2.66,2.63,6.92-0.021,9.561c-2.66,2.62-6.92,2.62-9.57-0.04c-2.609-2.641-2.6-6.93,0.051-9.55
			C521.236,707.72,525.517,707.75,528.137,710.39z"/>
		<path d="M522.956,95.92c0.61,0.93,0.48,2.33-0.31,3.12s-1.931,0.68-2.55-0.26c-0.62-0.93-0.48-2.32,0.31-3.11
			C521.196,94.87,522.336,94.98,522.956,95.92z"/>
		<path d="M517.396,654.19c2.64,2.659,2.63,6.93-0.03,9.56c-2.65,2.62-6.93,2.62-9.56-0.04c-2.63-2.64-2.61-6.92,0.05-9.55
			C510.486,651.53,514.776,651.54,517.396,654.19z"/>
		<path d="M514.597,108.44c0.609,0.93,0.47,2.32-0.311,3.12c-0.79,0.79-1.93,0.67-2.54-0.26c-0.62-0.93-0.479-2.33,0.3-3.12
			C512.836,107.39,513.977,107.5,514.597,108.44z"/>
		<path d="M512.597,101c0.619,0.93,0.479,2.33-0.311,3.12c-0.79,0.78-1.92,0.67-2.54-0.26c-0.62-0.93-0.479-2.33,0.311-3.12
			C510.847,99.95,511.986,100.06,512.597,101z"/>
		<path d="M509.206,112.13c0.61,0.93,0.48,2.32-0.31,3.11c-0.79,0.8-1.931,0.68-2.55-0.25c-0.61-0.94-0.471-2.33,0.31-3.12
			C507.446,111.08,508.586,111.19,509.206,112.13z"/>
		<path d="M508.416,682.7c2.63,2.649,2.61,6.939-0.029,9.56c-2.66,2.641-6.921,2.61-9.551-0.04c-2.64-2.64-2.62-6.91,0.03-9.55
			C501.517,680.05,505.786,680.06,508.416,682.7z"/>
		<path d="M507.276,104.77c0.62,0.93,0.479,2.33-0.311,3.12c-0.779,0.79-1.92,0.67-2.539-0.26c-0.62-0.93-0.48-2.33,0.31-3.12
			C505.526,103.72,506.656,103.84,507.276,104.77z"/>
		<path style="fill:#FFEEC8;" d="M498.126,181.81c3.11,8.01,1.471,12.26-6.01,12.86c-1.05,0.08-3.11-0.75-6.79-4.46l0.25-0.26
			c-0.57-7.24,5.47-10.2,10.38-8.67L498.126,181.81z"/>
		<path style="fill:#FFEEC8;" d="M445.586,191.51c-2.76-3.98-5.89-8.07-9.56-11.74c-1.92-1.92-5.45-3.66-9.35-4.58v0.01
			l-21.55,21.54c0,0-8.26,8.26,0.92,17.44c9.18,9.18,16.06-0.46,16.06-0.46l22.189-22.19L445.586,191.51z M461.626,183.21
			c0.301,0.68,0.59,1.34,0.88,1.99C462.227,184.54,461.937,183.88,461.626,183.21z M409.956,128.31c8.01-0.88,25.8-1.47,41.45,4.04
			c10.85,3.81,19.42,12.17,26.04,16.49c4.64,6.36,8.64,12.04,11.9,17.06c0.859,1.31,1.659,2.57,2.409,3.78
			c2.91,4.71,5.061,8.76,6.37,12.13l-2.17-0.53c-4.91-1.53-10.95,1.43-10.38,8.67l-0.25,0.26c-1.76-1.77-3.88-4.2-6.439-7.51
			c0.989,3.1,1.729,6.15,2.239,9.06l-0.12,0.02c-6.569-6.57-13.88-1.24-11.72,5.12l-0.52,0.33c-2-2.98-4.011-6.97-6.221-11.94
			c2.16,5.12,3.65,10.13,4.801,15.18l-0.67,0.22c-2.681-4.83-13.841-2.54-10.841,5.65c-1.31-1.58-2.649-3.47-4.05-5.56
			c-8.85,17.39-41.71,42.38-65.84,46.72c0,0-24.55,38.64-38.44,49.83c-9.29,7.48-17.02,18.16-26.82,24.75
			c-38.76,9.15-54.24-40.33-54.24-42.08c47.59-26.71,63.54-38.45,76.77-46.76c3.49-41.25,18.89-61.44,22.52-66.63
			c3.04-4.34,30.69-34.12,40.03-37.62C406.206,128.83,407.687,128.56,409.956,128.31z"/>
		<path d="M497.267,120.67c0.62,0.94,0.47,2.33-0.311,3.12c-0.79,0.79-1.93,0.68-2.55-0.25c-0.61-0.93-0.47-2.33,0.31-3.12
			C495.506,119.63,496.646,119.74,497.267,120.67z"/>
		<path d="M495.646,663.98c2.64,2.649,2.62,6.92-0.021,9.56c-2.649,2.62-6.93,2.61-9.56-0.05c-2.62-2.63-2.61-6.92,0.03-9.54
			C488.756,661.32,493.017,661.34,495.646,663.98z"/>
		<path style="fill:#FFEEC8;" d="M489.776,165.62c-2.12-3.38-5.37-12.58,4.85-11.14c6.53,8.12,8.32,14.77-2.17,14.77l-0.7,0.43
			c-0.75-1.21-1.55-2.47-2.409-3.78L489.776,165.62z"/>
		<path style="fill:#FFEEC8;" d="M494.626,154.48c-10.22-1.44-6.97,7.76-4.85,11.14l-0.43,0.28c-3.261-5.02-7.261-10.7-11.9-17.06
			c-6.62-4.32-15.19-12.68-26.04-16.49c-15.65-5.51-33.44-4.92-41.45-4.04c15.17-13.06,48.86-2.74,48.86-2.74
			c2.11,0.56,5.979,2.82,10.52,6.04c5.78,4.08,12.65,9.72,18.42,15.38C490.336,149.53,492.687,152.07,494.626,154.48z"/>
		<path d="M491.026,132.09c0.61,0.93,0.479,2.33-0.311,3.12c-0.789,0.79-1.93,0.67-2.55-0.26c-0.609-0.93-0.479-2.33,0.311-3.12
			S490.406,131.16,491.026,132.09z"/>
		<path d="M489.026,124.65c0.62,0.93,0.479,2.33-0.311,3.12c-0.779,0.79-1.92,0.67-2.539-0.26c-0.61-0.93-0.48-2.33,0.31-3.12
			C487.267,123.6,488.416,123.72,489.026,124.65z"/>
		<path d="M485.637,135.78c0.609,0.93,0.47,2.32-0.311,3.11c-0.79,0.79-1.93,0.68-2.55-0.25c-0.62-0.93-0.48-2.33,0.31-3.12
			S485.017,134.84,485.637,135.78z"/>
		<path d="M483.706,128.42c0.62,0.93,0.48,2.33-0.31,3.12s-1.92,0.68-2.54-0.26c-0.62-0.93-0.48-2.33,0.31-3.12
			S483.086,127.49,483.706,128.42z"/>
		<path style="fill:#FFEEC8;" d="M481.126,191.76c0.74,4.08,1.051,7.89,1.051,11.2c-5.5,2.15-9.44,0.17-13.41-5.73l0.52-0.33
			c-2.16-6.36,5.15-11.69,11.72-5.12L481.126,191.76z"/>
		<path d="M469.156,629.08c2.65,2.65,2.64,6.939-0.02,9.56c-2.65,2.641-6.921,2.62-9.561-0.04c-2.63-2.64-2.61-6.909,0.04-9.55
			C462.256,626.42,466.546,626.44,469.156,629.08z"/>
		<path style="fill:#FFEEC8;" d="M467.347,200.47c0.52,2.31,0.97,4.63,1.369,6.98c-0.989,2.27-2.569,3.68-5.579,3.68
			c-2.53,0-4.87-1.85-7.301-4.79c-3-8.19,8.16-10.48,10.841-5.65L467.347,200.47z"/>
		<path d="M450.746,592.4c2.641,2.659,2.62,6.93-0.03,9.56c-2.649,2.63-6.93,2.61-9.56-0.04c-2.61-2.65-2.6-6.92,0.05-9.55
			C443.836,589.75,448.126,589.75,450.746,592.4z"/>
		<path style="fill:#787878;" d="M445.586,191.51l-1.29,0.02l-22.189,22.19c0,0-6.88,9.64-16.06,0.46
			c-9.18-9.18-0.92-17.44-0.92-17.44l21.55-21.54v-0.01c3.899,0.92,7.43,2.66,9.35,4.58
			C439.696,183.44,442.826,187.53,445.586,191.51z M438.576,187.23c0.78-0.79,0.92-2.18,0.311-3.12
			c-0.62-0.93-1.761-1.04-2.551-0.25c-0.779,0.79-0.92,2.19-0.31,3.12C436.646,187.91,437.786,188.02,438.576,187.23z
			 M431.606,182.53c0.79-0.79,0.93-2.18,0.31-3.12c-0.62-0.93-1.76-1.05-2.54-0.25c-0.79,0.79-0.93,2.18-0.31,3.11
			C429.687,183.21,430.816,183.32,431.606,182.53z M430.677,198.4c0.789-0.79,0.93-2.19,0.31-3.12c-0.61-0.93-1.75-1.04-2.54-0.26
			c-0.78,0.79-0.93,2.19-0.31,3.12C428.756,199.08,429.896,199.19,430.677,198.4z M423.476,203.61c0.79-0.79,0.93-2.19,0.31-3.12
			c-0.62-0.93-1.76-1.05-2.54-0.26c-0.79,0.79-0.93,2.19-0.31,3.12C421.556,204.28,422.696,204.4,423.476,203.61z M421.486,196.17
			c0.78-0.79,0.92-2.19,0.31-3.12c-0.62-0.93-1.76-1.05-2.55-0.26s-0.92,2.19-0.31,3.12
			C419.556,196.84,420.696,196.96,421.486,196.17z M418.086,207.29c0.79-0.79,0.93-2.18,0.31-3.11c-0.61-0.93-1.75-1.05-2.54-0.26
			s-0.93,2.19-0.31,3.12C416.156,207.97,417.296,208.08,418.086,207.29z M416.167,199.94c0.79-0.79,0.92-2.19,0.31-3.12
			c-0.62-0.93-1.76-1.04-2.55-0.25c-0.78,0.78-0.92,2.18-0.31,3.12C414.236,200.62,415.376,200.73,416.167,199.94z"/>
		<path d="M438.887,184.11c0.609,0.94,0.47,2.33-0.311,3.12c-0.79,0.79-1.93,0.68-2.55-0.25c-0.61-0.93-0.47-2.33,0.31-3.12
			C437.126,183.07,438.267,183.18,438.887,184.11z"/>
		<path d="M437.756,573.97c2.631,2.65,2.601,6.92-0.029,9.561c-2.66,2.62-6.94,2.609-9.561-0.03c-2.62-2.65-2.609-6.92,0.04-9.55
			C430.847,571.31,435.137,571.33,437.756,573.97z"/>
		<path d="M431.916,179.41c0.62,0.94,0.48,2.33-0.31,3.12c-0.79,0.79-1.92,0.68-2.54-0.26c-0.62-0.93-0.48-2.32,0.31-3.11
			C430.156,178.36,431.296,178.48,431.916,179.41z"/>
		<path d="M430.986,195.28c0.62,0.93,0.479,2.33-0.31,3.12c-0.78,0.79-1.921,0.68-2.54-0.26c-0.62-0.93-0.471-2.33,0.31-3.12
			C429.236,194.24,430.376,194.35,430.986,195.28z"/>
		<path d="M428.767,602.48c2.63,2.659,2.609,6.93-0.03,9.56c-2.65,2.63-6.93,2.61-9.56-0.04s-2.61-6.92,0.04-9.54
			C421.856,599.83,426.137,599.84,428.767,602.48z"/>
		<path d="M423.786,200.49c0.62,0.93,0.48,2.33-0.31,3.12c-0.78,0.79-1.92,0.67-2.54-0.26c-0.62-0.93-0.48-2.33,0.31-3.12
			C422.026,199.44,423.167,199.56,423.786,200.49z"/>
		<path d="M421.796,193.05c0.61,0.93,0.47,2.33-0.31,3.12c-0.79,0.79-1.93,0.67-2.55-0.26c-0.61-0.93-0.48-2.33,0.31-3.12
			S421.176,192.12,421.796,193.05z"/>
		<path d="M418.396,204.18c0.62,0.93,0.48,2.32-0.31,3.11s-1.93,0.68-2.54-0.25c-0.62-0.93-0.48-2.33,0.31-3.12
			S417.786,203.25,418.396,204.18z"/>
		<path d="M416.476,196.82c0.61,0.93,0.48,2.33-0.31,3.12c-0.79,0.79-1.93,0.68-2.55-0.25c-0.61-0.94-0.47-2.34,0.31-3.12
			C414.716,195.78,415.856,195.89,416.476,196.82z"/>
		<path d="M416.006,583.76c2.63,2.65,2.61,6.92-0.04,9.55c-2.64,2.62-6.92,2.62-9.55-0.029c-2.63-2.641-2.6-6.931,0.03-9.55
			C409.116,581.09,413.386,581.12,416.006,583.76z"/>
		<path d="M386.576,542.42c2.63,2.65,2.62,6.93-0.02,9.55c-2.66,2.641-6.94,2.61-9.56-0.04c-2.63-2.64-2.62-6.91,0.03-9.54
			C379.676,539.77,383.946,539.78,386.576,542.42z"/>
		<path d="M372.126,513.22c2.63,2.641,2.6,6.92-0.03,9.55c-2.67,2.62-6.93,2.61-9.56-0.039c-2.62-2.641-2.61-6.921,0.04-9.54
			C365.216,510.56,369.506,510.58,372.126,513.22z"/>
		<path d="M359.126,494.78c2.63,2.649,2.62,6.92-0.04,9.56c-2.64,2.63-6.92,2.61-9.56-0.05c-2.62-2.64-2.61-6.91,0.04-9.55
			C352.226,492.12,356.496,492.13,359.126,494.78z"/>
		<path d="M350.136,523.3c2.63,2.65,2.61,6.91-0.03,9.55c-2.65,2.631-6.92,2.62-9.55-0.04c-2.63-2.64-2.61-6.909,0.03-9.55
			C343.236,520.63,347.516,520.65,350.136,523.3z"/>
		<path d="M337.376,504.57c2.63,2.649,2.62,6.93-0.04,9.55c-2.64,2.63-6.91,2.61-9.54-0.03c-2.63-2.649-2.62-6.93,0.03-9.55
			C330.476,501.9,334.746,501.92,337.376,504.57z"/>
		<path d="M301.376,471.56c2.63,2.65,2.61,6.931-0.03,9.561c-2.65,2.63-6.92,2.62-9.55-0.03c-2.63-2.64-2.61-6.93,0.03-9.56
			C294.476,468.9,298.756,468.92,301.376,471.56z"/>
		<path d="M291.816,432.32c2.63,2.64,2.6,6.92-0.04,9.55c-2.66,2.63-6.92,2.61-9.55-0.04c-2.63-2.64-2.63-6.91,0.02-9.54
			C284.906,429.65,289.187,429.67,291.816,432.32z"/>
		<path d="M278.806,413.89c2.63,2.65,2.62,6.92-0.03,9.54c-2.65,2.64-6.93,2.62-9.56-0.02c-2.62-2.65-2.61-6.92,0.04-9.56
			C271.906,411.23,276.176,411.24,278.806,413.89z"/>
		<path d="M269.826,442.41c2.62,2.649,2.6,6.91-0.04,9.54c-2.65,2.63-6.92,2.63-9.55-0.03c-2.63-2.64-2.62-6.92,0.03-9.55
			C262.917,439.75,267.196,439.75,269.826,442.41z"/>
		<path d="M257.056,423.67c2.63,2.66,2.62,6.93-0.03,9.55c-2.65,2.63-6.92,2.62-9.55-0.029c-2.63-2.65-2.61-6.931,0.03-9.55
			C250.156,421.02,254.426,421.03,257.056,423.67z"/>
		<path d="M246.006,381.38c2.62,2.66,2.6,6.93-0.03,9.55c-2.65,2.63-6.93,2.62-9.55-0.03c-2.63-2.65-2.61-6.91,0.03-9.54
			C239.096,378.72,243.386,378.73,246.006,381.38z"/>
		<path d="M211.846,356.66c2.63,2.65,2.61,6.93-0.04,9.56c-2.65,2.63-6.92,2.61-9.55-0.04c-2.62-2.65-2.62-6.92,0.04-9.56
			C204.937,354,209.216,354.01,211.846,356.66z"/>
		<path d="M198.846,338.23c2.62,2.64,2.61,6.92-0.04,9.55c-2.65,2.63-6.92,2.62-9.55-0.04c-2.63-2.64-2.61-6.91,0.03-9.54
			C191.937,335.57,196.216,335.58,198.846,338.23z"/>
		<path d="M189.856,366.74c2.63,2.65,2.61,6.93-0.04,9.56c-2.64,2.63-6.92,2.61-9.54-0.04c-2.63-2.64-2.62-6.92,0.03-9.55
			S187.226,364.1,189.856,366.74z"/>
		<path d="M177.096,348.01c2.63,2.65,2.61,6.94-0.04,9.56c-2.64,2.63-6.92,2.61-9.55-0.04c-2.62-2.64-2.61-6.92,0.04-9.54
			C170.187,345.36,174.466,345.38,177.096,348.01z"/>
		<path d="M144.996,287.66c2.64,2.65,2.61,6.93-0.04,9.55c-2.64,2.63-6.91,2.62-9.54-0.03c-2.63-2.65-2.62-6.91,0.03-9.55
			C138.096,285.01,142.376,285.01,144.996,287.66z"/>
		<path d="M140.917,322.67c2.62,2.65,2.61,6.93-0.04,9.55c-2.64,2.63-6.92,2.62-9.55-0.03s-2.61-6.91,0.04-9.54
			C134.006,320.01,138.296,320.02,140.917,322.67z"/>
		<path d="M131.996,269.22c2.63,2.65,2.62,6.94-0.03,9.57c-2.65,2.62-6.92,2.61-9.55-0.04c-2.63-2.65-2.62-6.92,0.03-9.55
			C125.096,266.57,129.376,266.58,131.996,269.22z"/>
		<path d="M123.006,297.75c2.63,2.64,2.62,6.92-0.03,9.55c-2.65,2.62-6.92,2.62-9.55-0.03s-2.61-6.92,0.03-9.56
			C116.106,295.09,120.386,295.1,123.006,297.75z"/>
		<path d="M110.256,279.02c2.62,2.65,2.61,6.92-0.04,9.55c-2.64,2.63-6.92,2.61-9.55-0.04c-2.62-2.64-2.61-6.92,0.04-9.55
			C103.346,276.36,107.626,276.37,110.256,279.02z"/>
	</g>
	<g>
		<path style="fill:none;stroke:#000000;stroke-width:7;" d="M408.866,129.31c0.35-0.35,0.71-0.69,1.09-1
			c15.17-13.06,48.86-2.74,48.86-2.74c2.11,0.56,5.979,2.82,10.52,6.04c5.78,4.08,12.65,9.72,18.42,15.38
			c2.58,2.54,4.931,5.08,6.87,7.49c6.53,8.12,8.32,14.77-2.17,14.77"/>
		<path style="fill:none;stroke:#000000;stroke-width:7;" d="M462.546,185.29c2.16,5.12,3.65,10.13,4.801,15.18
			c0.52,2.31,0.97,4.63,1.369,6.98c-0.989,2.27-2.569,3.68-5.579,3.68c-2.53,0-4.87-1.85-7.301-4.79
			c-1.31-1.58-2.649-3.47-4.05-5.56c-1.899-2.82-3.93-6.01-6.2-9.27c-2.76-3.98-5.89-8.07-9.56-11.74
			c-1.92-1.92-5.45-3.66-9.35-4.58c-5.28-1.24-11.21-0.96-14.65,2.49c-9.79,9.78-13.34,18.51-14.58,19.07"/>
		<path style="fill:none;stroke:#000000;stroke-width:7;" d="M408.396,154.18c24.17,0,31.09,3.71,39.439,7.31
			c6.32,7.73,10.681,14.84,13.79,21.72c0.311,0.67,0.601,1.33,0.88,1.99"/>
		<path style="fill:none;stroke:#000000;stroke-width:7;" d="M418.696,143.47C417.806,143.47,416.906,143.46,418.696,143.47
			c13.72,0.11,26.43,1.18,36.04,6.95c13.07,8.24,20.42,20.59,24.15,32.28c0.989,3.1,1.729,6.15,2.239,9.06
			c0.74,4.08,1.051,7.89,1.051,11.2c-5.5,2.15-9.44,0.17-13.41-5.73c-2-2.98-4.011-6.97-6.221-11.94
			c-0.02-0.03-0.029-0.06-0.04-0.09c-0.29-0.65-0.579-1.31-0.88-1.99"/>
		<path style="fill:none;stroke:#000000;stroke-width:7;" d="M266.446,280c47.59-26.71,63.54-38.45,76.77-46.76
			c3.49-41.25,18.89-61.44,22.52-66.63c3.04-4.34,30.69-34.12,40.03-37.62c0.44-0.16,1.92-0.43,4.19-0.68
			c8.01-0.88,25.8-1.47,41.45,4.04c10.85,3.81,19.42,12.17,26.04,16.49c4.64,6.36,8.64,12.04,11.9,17.06
			c0.859,1.31,1.659,2.57,2.409,3.78c2.91,4.71,5.061,8.76,6.37,12.13c3.11,8.01,1.471,12.26-6.01,12.86
			c-1.05,0.08-3.11-0.75-6.79-4.46c-1.76-1.77-3.88-4.2-6.439-7.51"/>
		<path style="fill:none;stroke:#000000;stroke-width:7;" d="M451.786,200.78c-8.85,17.39-41.71,42.38-65.84,46.72
			c0,0-24.55,38.64-38.44,49.83c-9.29,7.48-17.02,18.16-26.82,24.75"/>
		<path style="fill:none;stroke:#000000;stroke-width:5;" d="M466.677,200.69c-2.681-4.83-13.841-2.54-10.841,5.65"/>
		<path style="fill:none;stroke:#000000;stroke-width:5;" d="M481.006,191.78c-6.569-6.57-13.88-1.24-11.72,5.12"/>
		<path style="fill:none;stroke:#000000;stroke-width:5;" d="M495.956,181.28c-4.91-1.53-10.95,1.43-10.38,8.67"/>
		<path style="fill:none;stroke:#000000;stroke-width:5;" d="M494.637,154.48h-0.011c-10.22-1.44-6.97,7.76-4.85,11.14
			c0.33,0.52,0.63,0.91,0.85,1.09"/>
		<path style="fill:none;stroke:#000000;stroke-width:6;" d="M469.706,131.09l78.471-78.48c0,0,6.89-9.63,16.06-0.45
			c9.18,9.17,0.92,17.43,0.92,17.43l-77.1,77.1"/>
		<path style="fill:none;stroke:#000000;stroke-width:6;" d="M444.296,191.53l-22.189,22.19c0,0-6.88,9.64-16.06,0.46
			c-9.18-9.18-0.92-17.44-0.92-17.44l21.55-21.54"/>
		<path style="fill:none;stroke:#000000;stroke-width:7;" d="M613.736,173.29c-2.16,5.12-3.65,10.13-4.8,15.18
			c-0.521,2.31-0.971,4.63-1.37,6.98c1,2.27,2.58,3.68,5.58,3.68c2.53,0,4.87-1.85,7.3-4.79c1.31-1.58,2.65-3.47,4.05-5.56
			c4.22-6.27,9.08-14.32,15.76-21.01c4.511-4.51,18.021-8.08,24-2.09c9.79,9.78,13.341,18.51,14.58,19.07"/>
		<path style="fill:none;stroke:#000000;stroke-width:7;" d="M664.826,142.15c1-0.01,2.021,0.01,3.061,0.03
			c-24.171,0-31.091,3.71-39.44,7.31c-6.32,7.73-10.68,14.84-13.79,21.72c-0.31,0.67-0.6,1.33-0.88,1.99"/>
		<path style="fill:none;stroke:#000000;stroke-width:7;" d="M660.316,131.46c-0.93,0-1.84,0.01-2.73,0.01
			c-13.72,0.11-26.43,1.18-36.04,6.95c-13.069,8.24-20.409,20.59-24.14,32.28c-1,3.1-1.729,6.15-2.25,9.06
			c-0.74,4.08-1.05,7.89-1.05,11.2c5.5,2.15,9.45,0.17,13.41-5.73c2-2.98,4.01-6.97,6.22-11.94c0.02-0.03,0.03-0.06,0.04-0.09
			c0.29-0.65,0.58-1.31,0.88-1.99"/>
		<path style="fill:none;stroke:#000000;stroke-width:7;" d="M597.396,170.7c-2.55,3.3-4.681,5.73-6.431,7.51
			c-3.68,3.71-5.75,4.54-6.789,4.46c-7.78-0.62-9.24-5.2-5.62-13.83c3.159-7.54,10.189-18.19,20.279-32
			c6.62-4.32,15.19-12.68,26.04-16.49c2.79-0.98,5.65-1.77,8.511-2.39c13.239-2.91,26.47-2.37,33.029-1.64
			c2.21,0.24,3.67,0.51,4.101,0.67c9.34,3.5,36.989,33.28,40.029,37.62c3.631,5.19,19.03,25.38,22.521,66.63
			c13.229,8.31,29.189,20.05,76.77,46.76"/>
		<path style="fill:none;stroke:#000000;stroke-width:7;" d="M624.496,188.78c8.851,17.39,41.71,42.38,65.84,46.72
			c0,0,24.561,38.64,38.44,49.83c9.29,7.48,17.02,18.16,26.82,24.75"/>
		<path style="fill:none;stroke:#000000;stroke-width:5;" d="M609.606,188.69c2.68-4.83,13.85-2.54,10.84,5.65"/>
		<path style="fill:none;stroke:#000000;stroke-width:5;" d="M595.276,179.78c6.58-6.57,13.89-1.24,11.729,5.12"/>
		<path style="fill:none;stroke:#000000;stroke-width:5;" d="M580.326,169.28c4.91-1.53,10.95,1.43,10.38,8.67"/>
		<path style="fill:none;stroke:#000000;stroke-width:5;" d="M583.187,80.74c-5.021,6.32-13.23,5.84-17.98,5.03"/>
		<path style="fill:none;stroke:#000000;stroke-width:5;" d="M667.427,117.31c-0.33-0.33-0.671-0.66-1.011-0.99
			c-14.89-14.43-42.97-32.32-42.97-32.32c-15.7-2.93-29.17-4.3-40.26-3.26c-6.94,0.66-12.95,2.26-17.98,5.03
			c4.57,8.4,14.931,12,24.28,9.11c6.01,4.23,18.72,6.57,26.38,6.57c5.6,6.74,9.76,12.61,17.521,16.51
			c0.35,0.17,0.699,0.34,1.069,0.51"/>
		<path style="fill:none;stroke:#000000;stroke-width:21.5989;" d="M614.996,721.84c16.57,16.7,17.03,43.101,1.03,58.97l-5.09,5.061
			c-15.99,15.87-42.391,15.229-58.96-1.46L81.036,310.09c-16.57-16.69-17.03-43.09-1.03-58.98l5.07-5.03
			c16-15.9,42.4-15.25,58.97,1.45L614.996,721.84z"/>
	</g>
</g>
<rect style="fill:none;" width="850.394" height="850.394"/>
</svg>
