<?xml version="1.0" encoding="iso-8859-1"?>
<!-- Generator: Adobe Illustrator 12.0.1, SVG Export Plug-In . SVG Version: 6.00 Build 51448)  -->
<!DOCTYPE svg PUBLIC "-//W3C//DTD SVG 1.1//EN" "http://www.w3.org/Graphics/SVG/1.1/DTD/svg11.dtd" [
	<!ENTITY ns_svg "http://www.w3.org/2000/svg">
	<!ENTITY ns_xlink "http://www.w3.org/1999/xlink">
]>
<svg  version="1.1" id="Layer_1" xmlns="&ns_svg;" xmlns:xlink="&ns_xlink;" width="850.394" height="850.394"
	 viewBox="0 0 850.394 850.394" style="overflow:visible;enable-background:new 0 0 850.394 850.394;" xml:space="preserve">
<g id="XMLID_1_">
	<g>
		<path style="fill:#EE947D;" d="M757,637.89c0.5,5.79-0.84,11.13-3.9,15.99c-16.05,25.47-38.689,10.38-71.72,18.87
			c-10.36,2.67-25.06,8.81-42.91,16.4l-0.06-0.131c80.57-34.489,79.439-90.619,78.2-102.649C742.96,606.11,755.74,623.41,757,637.89
			z"/>
		<path style="fill:#FFFFFF;" d="M638.41,689.02l0.06,0.131c-39,16.6-93.02,40.159-149.569,49.64
			c-62.12,10.44-147.541,4.18-207.581-54.72c-46.08-45.221-48.09-92.03-48.12-99.101c8.02-5.33,17.11-11.08,27.17-16.97
			c13.22-7.74,28.09-15.73,44.32-23.34C318.88,538,334.12,531.64,350.2,526c10.99-3.85,22.37-7.37,34.09-10.42
			c-14.46,18.6-25.58,46.13-25.58,70.59c0,58.271,47.62,105.521,106.38,105.521c58.74,0,106.37-47.25,106.37-105.521
			c0-31.22-13.67-59.27-35.38-78.58c29.689,4.95,66.01,14.83,104.74,34c32.35,16.021,57.38,31,75.79,44.78
			C717.85,598.4,718.98,654.53,638.41,689.02z"/>
		<path style="fill:#ABD153;" d="M393.23,513.37c21.83-5.16,44.73-8.601,68.31-9.51c0,0,29.71-3.761,74.54,3.729
			c21.71,19.311,35.38,47.36,35.38,78.58c0,58.271-47.63,105.521-106.37,105.521c-58.76,0-106.38-47.25-106.38-105.521
			c0-24.46,11.12-51.99,25.58-70.59C387.25,514.81,390.23,514.07,393.23,513.37z M493.16,588.72c0-15.05-12.19-27.239-27.23-27.239
			c-15.029,0-27.229,12.189-27.229,27.239c0,15.03,12.2,27.221,27.229,27.221C480.97,615.94,493.16,603.75,493.16,588.72z"/>
		<path style="fill:#231F20;" d="M465.93,561.48c15.04,0,27.23,12.189,27.23,27.239c0,15.03-12.19,27.221-27.23,27.221
			c-15.029,0-27.229-12.19-27.229-27.221C438.7,573.67,450.9,561.48,465.93,561.48z"/>
		<path style="fill:#FFEEC8;" d="M655.47,370.65C684.63,384.72,714.2,401.09,744,420l13.62,217.85l-0.62,0.04
			c-1.26-14.479-14.04-31.779-40.39-51.52c-18.41-13.78-43.44-28.76-75.79-44.78c-38.73-19.17-75.051-29.05-104.74-34
			c-44.83-7.49-74.54-3.729-74.54-3.729c-23.58,0.909-46.48,4.35-68.31,9.51c-3,0.7-5.98,1.439-8.94,2.21
			c-11.72,3.05-23.1,6.57-34.09,10.42c-16.08,5.64-31.32,12-45.51,18.66c-16.23,7.609-31.1,15.6-44.32,23.34
			c-10.06,5.89-19.15,11.64-27.17,16.97c-17.76,11.8-30.22,21.55-35.99,26.25L196,610l-90-230c2.65-2.91,5.5-5.79,8.55-8.6
			c13.08-12.16,29.82-23.52,49.76-33.51c6.21-3.11,12.74-6.09,19.57-8.92c11.42-4.74,23.66-9.05,36.68-12.84
			c12.19-3.57,25.05-6.68,38.52-9.28c23.57-4.55,49.02-7.52,76.05-8.54c10.5-0.4,21.24-0.5,32.2-0.29c11,0.21,22.22,0.74,33.65,1.62
			c8.2,0.62,16.5,1.42,24.91,2.4c10.95,1.28,22.06,2.87,33.34,4.8c8.75,1.48,17.59,3.17,26.52,5.07
			c24.75,5.25,50.16,12.09,76.09,20.69c19.86,6.59,40.03,14.21,60.45,22.95C633.28,360.26,644.35,365.29,655.47,370.65z"/>
	</g>
	<g>
		<path style="fill:none;stroke:#231F20;stroke-width:21;" d="M534.03,505.81c0.689,0.58,1.38,1.181,2.05,1.78
			c21.71,19.311,35.38,47.36,35.38,78.58c0,58.271-47.63,105.521-106.37,105.521c-58.76,0-106.38-47.25-106.38-105.521
			c0-24.46,11.12-51.99,25.58-70.59c1.07-1.38,2.16-2.71,3.27-3.99"/>
		<path style="fill:none;stroke:#231F20;stroke-width:8.8218;" d="M493.16,588.72c0,15.03-12.19,27.221-27.23,27.221
			c-15.029,0-27.229-12.19-27.229-27.221c0-15.05,12.2-27.239,27.229-27.239C480.97,561.48,493.16,573.67,493.16,588.72z"/>
		<path style="fill:none;stroke:#231F20;stroke-width:21;" d="M193.57,614.25c0,0,1.25-1.08,3.64-3.03
			c5.77-4.7,18.23-14.45,35.99-26.25c8.02-5.33,17.11-11.08,27.17-16.97c13.22-7.74,28.09-15.73,44.32-23.34
			C318.88,538,334.12,531.64,350.2,526c10.99-3.85,22.37-7.37,34.09-10.42c2.96-0.771,5.94-1.51,8.94-2.21
			c21.83-5.16,44.73-8.601,68.31-9.51c0,0,29.71-3.761,74.54,3.729c29.689,4.95,66.01,14.83,104.74,34
			c32.35,16.021,57.38,31,75.79,44.78c26.35,19.74,39.13,37.04,40.39,51.52c0.5,5.79-0.84,11.13-3.9,15.99
			c-16.05,25.47-38.689,10.38-71.72,18.87c-10.36,2.67-25.06,8.81-42.91,16.4c-39,16.6-93.02,40.159-149.569,49.64
			c-62.12,10.44-147.541,4.18-207.581-54.72c-46.08-45.221-48.09-92.03-48.12-99.101c0-0.609,0.01-0.92,0.01-0.92"/>
		<path style="fill:none;stroke:#231F20;stroke-width:21;" d="M716.29,584.05c0,0,0.16,0.811,0.32,2.32
			c1.239,12.03,2.37,68.16-78.2,102.649c-0.55,0.24-1.12,0.471-1.68,0.711"/>
		<path style="fill:none;stroke:#231F20;stroke-width:7;stroke-linecap:round;stroke-linejoin:round;" d="M198.93,472.09
			c0,0,35.23,89.83,61.44,95.91c0.92,0.22,1.83,0.33,2.72,0.33"/>
		<path style="fill:none;stroke:#231F20;stroke-width:7;stroke-linecap:round;stroke-linejoin:round;" d="M245.47,449.45
			c0,0,33.27,84.87,59.22,95.21c1.68,0.67,3.33,1.03,4.94,1.03"/>
		<path style="fill:none;stroke:#231F20;stroke-width:7;stroke-linecap:round;stroke-linejoin:round;" d="M302.91,427.89
			c0,0,23.43,80.19,47.29,98.11c2.68,2.01,5.37,3.24,8.03,3.48"/>
		<path style="fill:none;stroke:#231F20;stroke-width:7;stroke-linecap:round;stroke-linejoin:round;" d="M360.66,405.59
			c0,0,9.93,91.93,32.57,107.78c1.29,0.91,2.64,1.57,4.02,1.95"/>
		<path style="fill:none;stroke:#231F20;stroke-width:7;stroke-linecap:round;stroke-linejoin:round;" d="M417.9,416.45
			c0,0-5.27,79.29,15.581,87.78"/>
		<path style="fill:none;stroke:#231F20;stroke-width:7;stroke-linecap:round;stroke-linejoin:round;" d="M458.45,414.9
			c0,0-5.28,79.28,15.58,87.791"/>
		<path style="fill:none;stroke:#231F20;stroke-width:7;stroke-linecap:round;stroke-linejoin:round;" d="M508.13,415.87
			c0,0-13.27,78.54,6.65,88.67"/>
		<path style="fill:none;stroke:#231F20;stroke-width:7;stroke-linecap:round;stroke-linejoin:round;" d="M551.5,419.2
			c0,0-13.27,78.55,6.64,88.67"/>
		<path style="fill:none;stroke:#231F20;stroke-width:28;" d="M710.1,373.41c0,0-19.35-62.04-60.6-112"/>
		<path style="fill:none;stroke:#231F20;stroke-width:28;" d="M772.04,398.56c0,0-19.34-62.04-60.6-112"/>
		<path style="fill:none;stroke:#231F20;stroke-width:28;" d="M654.94,347.12c0,0-25.051-54.3-68.61-94.97"/>
		<path style="fill:none;stroke:#231F20;stroke-width:28;" d="M592.39,334.5c0,0-25.02-54.29-68.59-94.97"/>
		<path style="fill:none;stroke:#231F20;stroke-width:28;" d="M521.03,314.26c0,0-20.54-48.79-54.69-86.07"/>
		<path style="fill:none;stroke:#231F20;stroke-width:28;" d="M464.52,318.25c0,0-1.829-4.33-5.289-11.41
			c-8.171-16.65-25.44-48.48-49.411-74.65"/>
		<path style="fill:none;stroke:#231F20;stroke-width:28;" d="M401.64,300.64c0,0-0.22-0.35-0.66-1
			c-4.51-6.74-31.63-46.15-68.24-74.16"/>
		<path style="fill:none;stroke:#231F20;stroke-width:28;" d="M346.7,314.46c0,0-4.18-6.46-11.57-16.15
			c-12-15.73-32.48-39.99-57.33-59.01"/>
		<path style="fill:none;stroke:#231F20;stroke-width:28;" d="M285.51,301.75c0,0-34.68-28.83-75.15-43.6"/>
		<path style="fill:none;stroke:#231F20;stroke-width:28;" d="M294.33,331.15c0,0-14.3-11.88-35.25-24.3
			c-5.3-3.14-11.03-6.32-17.06-9.35"/>
		<path style="fill:none;stroke:#231F20;stroke-width:28;" d="M383.66,329.53c0,0-5.82-13.77-16.33-31.51
			c-4.17-7.05-9.08-14.73-14.67-22.41"/>
		<path style="fill:none;stroke:#231F20;stroke-width:28;" d="M436.59,323.65c0,0-3.76-8.9-10.7-21.61
			c-5.12-9.38-11.97-20.84-20.3-32.31"/>
		<path style="fill:none;stroke:#231F20;stroke-width:28;" d="M226.7,357.62c0,0-17.82-14.81-42.82-28.65
			c-3.06-1.69-6.23-3.37-9.49-5.01"/>
		<path style="fill:none;stroke:#231F20;stroke-width:28;" d="M706.05,395.11c0,0-9.78-27.52-27.78-55.66"/>
		<path style="fill:none;stroke:#231F20;stroke-width:28;" d="M634.38,383.31c0,0-4.17-11.76-12.09-27.76
			c-4.19-8.48-9.44-18.15-15.68-27.9"/>
		<path style="fill:none;stroke:#231F20;stroke-width:28;" d="M753.17,435.34c0,0-9.78-27.52-27.78-55.65"/>
		<path style="fill:none;stroke:#231F20;stroke-width:28;" d="M681.5,423.54c0,0-9.13-25.74-26.03-52.89
			c-0.58-0.92-1.16-1.85-1.75-2.77"/>
		<path style="fill:none;stroke:#231F20;stroke-width:28;" d="M572.25,356.89c0,0-3.58-10.09-10.41-24.29
			c-4.439-9.26-10.27-20.27-17.37-31.37"/>
		<path style="fill:none;stroke:#231F20;stroke-width:28;" d="M500.58,345.08c0,0-5.14-14.48-14.83-33.17
			c-3.67-7.08-7.99-14.76-12.94-22.49"/>
		<path style="fill:none;stroke:#231F20;stroke-width:28;" d="M228.72,322.44c0,0-2.96-2.46-8.16-6.31
			c-12.6-9.33-38.35-26.84-66.99-37.3"/>
		<path style="fill:none;stroke:#231F20;stroke-width:28;" d="M165.6,338.9c0,0-0.45-0.36-1.29-1.01
			c-5.97-4.56-31.89-23.6-61.47-33.58"/>
		<path style="fill:none;stroke:#231F20;stroke-width:28;" d="M114.7,371.52c0,0-0.05-0.04-0.15-0.12
			c-2.25-1.77-30.23-23.54-62.6-34.47"/>
	</g>
</g>
<line style="fill:none;stroke:#231F20;stroke-width:21;stroke-linejoin:round;" x1="692.966" y1="81.928" x2="577.422" y2="227.999"/>
<polyline style="fill:none;stroke:#231F20;stroke-width:21;stroke-linejoin:round;" points="570.279,133.672 576.791,229.205 
	671.296,213.414 "/>
<rect style="fill:none;" width="850.394" height="850.394"/>
</svg>
