<?xml version="1.0" encoding="iso-8859-1"?>
<!-- Generator: Adobe Illustrator 12.0.1, SVG Export Plug-In . SVG Version: 6.00 Build 51448)  -->
<!DOCTYPE svg PUBLIC "-//W3C//DTD SVG 1.1//EN" "http://www.w3.org/Graphics/SVG/1.1/DTD/svg11.dtd" [
	<!ENTITY ns_svg "http://www.w3.org/2000/svg">
	<!ENTITY ns_xlink "http://www.w3.org/1999/xlink">
]>
<svg  version="1.1" id="Layer_1" xmlns="&ns_svg;" xmlns:xlink="&ns_xlink;" width="850.394" height="850.394"
	 viewBox="0 0 850.394 850.394" style="overflow:visible;enable-background:new 0 0 850.394 850.394;" xml:space="preserve">
<g id="XMLID_4_">
	<g>
		<path style="fill:#FFEEC8;" d="M360.63,331.54c0.38-86.84,0.99-194.02-0.13-227.09h-0.08c0.86-49.36,52.89-46.23,51.54,7.86
			c-0.12,4.59,13.62,229.38,16.97,292.43c2.19,41.39,5.221,71.729,9.33,75c13.76,10.67,33.29-54.95,33.29-54.95
			c1.4-9.19,3.63-16.85,6.431-23.19c19.56-44.39,66.85-23.77,59.789-4.05c-8.079,22.5-15.21,84.521-23.149,119.33
			c-7.91,34.76-37.38,101.4-60.63,125.22C430.75,665.9,426.85,774.75,426.85,774.75l-215.87,3.09
			c-14.4-167.2-35.52-280.22-31.48-319.27l0.08-2.931c12.29-47.66,18.22-78.16,26.9-85.88c10.12-8.99,32.6-6.74,34.85,12.37
			l1.27,0.16c1.48-11.99,2.9-23.42,4.35-36.13c4.5-39.35,6.37-46.51,22.53-51.28c0,0,29.96-7.4,32.87,18.58
			c0.09,0.84,0.18,1.72,0.24,2.64l0.38-0.03c0.96-35.12-1.39-59.8,18.02-68.38c0,0,34.3-10.85,37.56,21.34
			c1.21,11.97,1.1,37.72,1.95,62.51H360.63z"/>
	</g>
	<g>
		<path style="fill:none;stroke:#231F20;stroke-width:14;" d="M428.93,404.74c-3.35-63.05-17.09-287.84-16.97-292.43
			c1.35-54.09-50.68-57.22-51.54-7.86c-0.02,0.89-0.02,1.81,0,2.74"/>
		<path style="fill:none;stroke:#231F20;stroke-width:14;" d="M477.98,401.6c-2.801,6.34-5.03,14-6.431,23.19
			c0,0-19.53,65.62-33.29,54.95c-4.109-3.271-7.14-33.61-9.33-75"/>
		<path style="fill:none;stroke:#231F20;stroke-width:14;" d="M426.85,774.75c0,0,3.9-108.85,27.141-132.65
			c23.25-23.819,52.72-90.46,60.63-125.22c7.939-34.81,15.07-96.83,23.149-119.33c7.061-19.72-40.229-40.34-59.789,4.05"/>
		<path style="fill:none;stroke:#231F20;stroke-width:14;" d="M360.5,104.45c1.12,33.07,0.51,140.25,0.13,227.09
			c-0.2,45.97-0.34,86.24-0.13,106.79"/>
		<path style="fill:none;stroke:#231F20;stroke-width:14;" d="M210.98,777.84c-14.4-167.2-35.52-280.22-31.48-319.27l0.08-2.931
			c12.29-47.66,18.22-78.16,26.9-85.88c10.12-8.99,32.6-6.74,34.85,12.37"/>
		<path style="fill:none;stroke:#231F20;stroke-width:14;" d="M230.82,490.24c4.92-52.05,8.5-81.36,11.78-107.95
			c1.48-11.99,2.9-23.42,4.35-36.13c4.5-39.35,6.37-46.51,22.53-51.28c0,0,29.96-7.4,32.87,18.58c0.09,0.84,0.18,1.72,0.24,2.64
			c2.09,26.94-5.53,85.72-6.76,149.27"/>
		<path style="fill:none;stroke:#231F20;stroke-width:14;" d="M302.97,316.07c0.96-35.12-1.39-59.8,18.02-68.38
			c0,0,34.3-10.85,37.56,21.34c1.21,11.97,1.1,37.72,1.95,62.51"/>
		<line style="fill:none;stroke:#231F20;stroke-width:21;" x1="696.98" y1="147.14" x2="478.24" y2="147.14"/>
		<polyline style="fill:none;stroke:#231F20;stroke-width:21;" points="548.72,82.14 476.87,147.38 548.84,212.6 		"/>
	</g>
</g>
<rect style="fill:none;" width="850.394" height="850.394"/>
</svg>
