<?xml version="1.0" encoding="iso-8859-1"?>
<!-- Generator: Adobe Illustrator 12.0.1, SVG Export Plug-In . SVG Version: 6.00 Build 51448)  -->
<!DOCTYPE svg PUBLIC "-//W3C//DTD SVG 1.1//EN" "http://www.w3.org/Graphics/SVG/1.1/DTD/svg11.dtd" [
	<!ENTITY ns_svg "http://www.w3.org/2000/svg">
	<!ENTITY ns_xlink "http://www.w3.org/1999/xlink">
]>
<svg  version="1.1" id="Layer_1" xmlns="&ns_svg;" xmlns:xlink="&ns_xlink;" width="850.394" height="850.394"
	 viewBox="0 0 850.394 850.394" style="overflow:visible;enable-background:new 0 0 850.394 850.394;" xml:space="preserve">
<g id="XMLID_6_">
	<g>
		<path style="fill:#C8C8C8;" d="M163.58,422.61v95.57V782.7l-39.2-4.23L124,117.38c5.6,2.38,12.1,3.74,19.05,3.74
			c7.57,0,14.61-1.61,20.53-4.4v25.73v111.83V422.61z"/>
		<polygon style="fill:#6EBE44;" points="166,518.18 163.58,518.18 163.58,422.61 164.3,422.61 742.5,422.61 744.8,422.61 
			744.8,519.46 		"/>
		<polygon style="fill:#ED1D31;" points="744.8,142.45 744.8,254.28 168.91,254.28 163.58,254.28 163.58,142.45 166.02,142.45 		"/>
		<polygon style="fill:#FBEE34;" points="521.19,359.46 516.39,364.13 517.53,370.73 511.61,367.62 505.68,370.73 506.81,364.13 
			502.02,359.46 508.65,358.5 511.61,352.5 514.56,358.5 		"/>
		<polygon style="fill:#FBEE34;" points="512.67,321.85 507.87,326.52 509,333.12 503.08,330 497.15,333.12 498.28,326.52 
			493.49,321.85 500.12,320.89 503.08,314.88 506.04,320.89 		"/>
		<polygon style="fill:#FBEE34;" points="486.72,295.04 481.93,299.71 483.06,306.31 477.14,303.2 471.21,306.31 472.34,299.71 
			467.55,295.04 474.18,294.08 477.14,288.07 480.1,294.08 		"/>
		<path style="fill:#FBEE34;" d="M466.92,390.15c0.75,0.61,1.6,0.5,2.7-1.77c1.49-3.07,3.61-2.39,3.61-2.39l0.149,0.05
			c0,0,2.11,0.68,1.54,4.04c-0.43,2.49,0.2,3.07,1.16,3.01c1.34-0.08,4.689,1.19,1.63,3.46c-2.95,2.18-6.34,2.53-8.34,1.79
			c0.06,0.02,0.12,0.04,0.18,0.05l-0.399-0.13c0.069,0.03,0.14,0.06,0.22,0.08c-2.05-0.54-4.64-2.8-5.78-6.32
			C462.42,388.4,465.88,389.31,466.92,390.15z"/>
		<polygon style="fill:#FBEE34;" points="452.14,284.23 447.34,288.91 448.47,295.5 442.56,292.39 436.62,295.5 437.75,288.91 
			432.96,284.23 439.59,283.27 442.56,277.27 445.51,283.27 		"/>
		<path style="fill:#FBEE34;" d="M453.11,335.93c0,0-12.32-2.16-12.32,4.97c0-7.13-12.33-4.97-12.33-4.97
			c0.65-14.7,11.68-15.14,11.68-15.14h1.29C441.43,320.79,452.46,321.23,453.11,335.93z"/>
		<path style="fill:#FBEE34;" d="M449.01,391.47c-2.149,2.99-5.29,4.35-7.41,4.26c0.07,0,0.141,0,0.21-0.01h-0.42
			c0.07,0.01,0.141,0.01,0.21,0.01c-2.119,0.09-5.26-1.27-7.409-4.26c-2.221-3.09,1.35-3.28,2.6-2.8c0.9,0.35,1.67-0.01,2.03-2.51
			c0.479-3.37,2.699-3.37,2.699-3.37h0.16c0,0,2.221,0,2.7,3.37c0.351,2.5,1.13,2.86,2.03,2.51
			C447.66,388.19,451.23,388.38,449.01,391.47z"/>
		<path style="fill:#FFFFFF;" d="M440.79,340.9c0-7.13,12.32-4.97,12.32-4.97c-0.65-14.7-11.681-15.14-11.681-15.14h-1.29
			c0,0-11.029,0.44-11.68,15.14C428.46,335.93,440.79,333.77,440.79,340.9z M744.8,254.28v168.33h-2.3H164.3h-0.72V254.28h5.33
			H744.8z M516.39,364.13l4.801-4.67l-6.631-0.96l-2.949-6l-2.96,6l-6.631,0.96l4.79,4.67l-1.13,6.6l5.931-3.11l5.92,3.11
			L516.39,364.13z M507.87,326.52l4.8-4.67l-6.63-0.96l-2.96-6.01l-2.96,6.01l-6.63,0.96l4.79,4.67l-1.13,6.6l5.93-3.12l5.92,3.12
			L507.87,326.52z M481.93,299.71l4.79-4.67l-6.62-0.96l-2.96-6.01l-2.96,6.01l-6.63,0.96l4.79,4.67l-1.13,6.6l5.93-3.11l5.92,3.11
			L481.93,299.71z M477.71,396.55c3.06-2.27-0.29-3.54-1.63-3.46c-0.96,0.06-1.59-0.52-1.16-3.01c0.57-3.36-1.54-4.04-1.54-4.04
			l-0.149-0.05c0,0-2.12-0.68-3.61,2.39c-1.101,2.27-1.95,2.38-2.7,1.77c-1.04-0.84-4.5-1.75-3.33,1.87
			c1.141,3.52,3.73,5.78,5.78,6.32C471.37,399.08,474.76,398.73,477.71,396.55z M447.34,288.91l4.8-4.68l-6.63-0.96l-2.95-6l-2.97,6
			l-6.63,0.96l4.79,4.68l-1.13,6.59l5.939-3.11l5.91,3.11L447.34,288.91z M449.01,391.47c2.221-3.09-1.35-3.28-2.6-2.8
			c-0.9,0.35-1.68-0.01-2.03-2.51c-0.479-3.37-2.7-3.37-2.7-3.37h-0.16c0,0-2.22,0-2.699,3.37c-0.36,2.5-1.13,2.86-2.03,2.51
			c-1.25-0.48-4.82-0.29-2.6,2.8c2.149,2.99,5.29,4.35,7.409,4.26C443.72,395.82,446.86,394.46,449.01,391.47z M419,392.15
			c1.17-3.62-2.28-2.72-3.33-1.87c-0.75,0.6-1.6,0.5-2.7-1.77c-1.49-3.07-3.6-2.4-3.6-2.4l-0.15,0.05c0,0-2.12,0.68-1.54,4.04
			c0.42,2.49-0.21,3.07-1.17,3.01c-1.34-0.08-4.68,1.2-1.63,3.46c2.92,2.17,6.28,2.52,8.28,1.82
			C415.22,397.96,417.85,395.7,419,392.15z M409.92,299.28l4.79-4.67l-6.63-0.96l-2.96-6.01l-2.96,6.01l-6.62,0.96l4.79,4.67
			l-1.13,6.6l5.92-3.12l5.93,3.12L409.92,299.28z M383.98,326.09l4.79-4.68l-6.63-0.96l-2.96-6l-2.96,6l-6.62,0.96l4.79,4.68
			l-1.13,6.59l5.92-3.11l5.93,3.11L383.98,326.09z M375.45,363.7l4.79-4.67l-6.62-0.96l-2.97-6.01l-2.95,6.01l-6.63,0.96l4.8,4.67
			l-1.14,6.6l5.92-3.11l5.93,3.11L375.45,363.7z"/>
		<polygon style="fill:#FBEE34;" points="414.71,294.61 409.92,299.28 411.05,305.88 405.12,302.76 399.2,305.88 400.33,299.28 
			395.54,294.61 402.16,293.65 405.12,287.64 408.08,293.65 		"/>
		<path style="fill:#FBEE34;" d="M412.97,388.51c1.1,2.27,1.95,2.37,2.7,1.77c1.05-0.85,4.5-1.75,3.33,1.87
			c-1.15,3.55-3.78,5.81-5.84,6.34c0.1-0.03,0.19-0.06,0.28-0.1l-0.4,0.13c0.04-0.01,0.08-0.02,0.12-0.03
			c-2,0.7-5.36,0.35-8.28-1.82c-3.05-2.26,0.29-3.54,1.63-3.46c0.96,0.06,1.59-0.52,1.17-3.01c-0.58-3.36,1.54-4.04,1.54-4.04
			l0.15-0.05C409.37,386.11,411.48,385.44,412.97,388.51z"/>
		<polygon style="fill:#FBEE34;" points="388.77,321.41 383.98,326.09 385.11,332.68 379.18,329.57 373.26,332.68 374.39,326.09 
			369.6,321.41 376.22,320.45 379.18,314.45 382.14,320.45 		"/>
		<polygon style="fill:#FBEE34;" points="380.24,359.03 375.45,363.7 376.58,370.3 370.65,367.19 364.73,370.3 365.87,363.7 
			361.07,359.03 367.7,358.07 370.65,352.06 373.62,358.07 		"/>
		<path style="fill:#C8C8C8;" d="M124,117.38c-11.31-4.78-18.92-13.71-18.92-23.93c0-15.28,17-27.67,37.97-27.67
			c20.97,0,37.97,12.39,37.97,27.67c0,9.77-6.95,18.36-17.44,23.27c-5.92,2.79-12.96,4.4-20.53,4.4
			C136.1,121.12,129.6,119.76,124,117.38z"/>
	</g>
	<g>
		<polyline style="fill:none;stroke:#231F20;stroke-width:21;" points="166.02,142.45 744.8,142.45 744.8,254.28 744.8,422.61 
			744.8,519.46 166,518.18 		"/>
		<path style="fill:none;stroke:#231F20;stroke-width:21;" d="M124,117.38c-11.31-4.78-18.92-13.71-18.92-23.93
			c0-15.28,17-27.67,37.97-27.67c20.97,0,37.97,12.39,37.97,27.67c0,9.77-6.95,18.36-17.44,23.27c-5.92,2.79-12.96,4.4-20.53,4.4
			C136.1,121.12,129.6,119.76,124,117.38z"/>
		<polyline style="fill:none;stroke:#231F20;stroke-width:21;" points="124,116 124,117.38 124.38,778.47 124.38,782.7 		"/>
		<polyline style="fill:none;stroke:#231F20;stroke-width:21;" points="163.58,114.92 163.58,116.72 163.58,142.45 163.58,254.28 
			163.58,422.61 163.58,518.18 163.58,782.7 		"/>
		<polygon style="fill:none;stroke:#231F20;stroke-width:3.4588;" points="442.56,277.27 445.51,283.27 452.14,284.23 
			447.34,288.91 448.47,295.5 442.56,292.39 436.62,295.5 437.75,288.91 432.96,284.23 439.59,283.27 		"/>
		<polygon style="fill:none;stroke:#231F20;stroke-width:3.4588;" points="477.14,288.07 480.1,294.08 486.72,295.04 481.93,299.71 
			483.06,306.31 477.14,303.2 471.21,306.31 472.34,299.71 467.55,295.04 474.18,294.08 		"/>
		<polygon style="fill:none;stroke:#231F20;stroke-width:3.4588;" points="503.08,314.88 506.04,320.89 512.67,321.85 
			507.87,326.52 509,333.12 503.08,330 497.15,333.12 498.28,326.52 493.49,321.85 500.12,320.89 		"/>
		<polygon style="fill:none;stroke:#231F20;stroke-width:3.4588;" points="511.61,352.5 514.56,358.5 521.19,359.46 516.39,364.13 
			517.53,370.73 511.61,367.62 505.68,370.73 506.81,364.13 502.02,359.46 508.65,358.5 		"/>
		<polygon style="fill:none;stroke:#231F20;stroke-width:3.4588;" points="405.12,287.64 402.16,293.65 395.54,294.61 
			400.33,299.28 399.2,305.88 405.12,302.76 411.05,305.88 409.92,299.28 414.71,294.61 408.08,293.65 		"/>
		<polygon style="fill:none;stroke:#231F20;stroke-width:3.4588;" points="379.18,314.45 376.22,320.45 369.6,321.41 374.39,326.09 
			373.26,332.68 379.18,329.57 385.11,332.68 383.98,326.09 388.77,321.41 382.14,320.45 		"/>
		<polygon style="fill:none;stroke:#231F20;stroke-width:3.4588;" points="370.65,352.06 367.7,358.07 361.07,359.03 365.87,363.7 
			364.73,370.3 370.65,367.19 376.58,370.3 375.45,363.7 380.24,359.03 373.62,358.07 		"/>
		<path style="fill:none;stroke:#231F20;stroke-width:10.3765;" d="M440.79,340.9c0-7.13,12.32-4.97,12.32-4.97
			c-0.65-14.7-11.681-15.14-11.681-15.14h-1.29c0,0-11.029,0.44-11.68,15.14C428.46,335.93,440.79,333.77,440.79,340.9z"/>
		<path style="fill:none;stroke:#231F20;stroke-width:10.3765;" d="M440.79,361.22c0,1.09,0,1.73,0-20.32
			C440.79,346.55,440.79,357.08,440.79,361.22"/>
		<path style="fill:none;stroke:#231F20;stroke-width:10.3765;" d="M441,361.65c0,0-0.02,0.23-0.08,0.65
			c-0.49,3.18-3.479,16.91-19.16,17.29c-13.03,0.32-15.56-7.56-15.56-7.56s-0.43,13.83-12.54,15.78
			c-12.11,1.94-19.24-6.05-19.24-6.05"/>
		<path style="fill:none;stroke:#231F20;stroke-width:10.3765;" d="M440.79,361.22c0,0,0.02,0.4,0.13,1.08
			c0.57,3.86,3.61,16.71,18.67,17.08c13.03,0.32,15.57-7.57,15.57-7.57s0.43,13.84,12.54,15.78c12.1,1.95,19.24-6.05,19.24-6.05"/>
		<path style="fill:none;stroke:#231F20;stroke-width:10.3765;" d="M492.56,410.51c0,0-19.779-8-50.04-7.35l-1.3,0.11
			c-30.27-0.65-49.83,7.35-49.83,7.35"/>
		<path style="fill:none;stroke:#231F20;stroke-width:1.7294;" d="M441.6,395.73c2.12,0.09,5.261-1.27,7.41-4.26
			c2.221-3.09-1.35-3.28-2.6-2.8c-0.9,0.35-1.68-0.01-2.03-2.51c-0.479-3.37-2.7-3.37-2.7-3.37h-0.16c0,0-2.22,0-2.699,3.37
			c-0.36,2.5-1.13,2.86-2.03,2.51c-1.25-0.48-4.82-0.29-2.6,2.8C436.34,394.46,439.48,395.82,441.6,395.73z"/>
		<path style="fill:none;stroke:#231F20;stroke-width:1.7294;" d="M441.39,395.72c0.07,0.01,0.141,0.01,0.21,0.01
			c0.07,0,0.141,0,0.21-0.01H441.39z"/>
		<path style="fill:none;stroke:#231F20;stroke-width:1.7294;" d="M469.37,398.34c2,0.74,5.39,0.39,8.34-1.79
			c3.06-2.27-0.29-3.54-1.63-3.46c-0.96,0.06-1.59-0.52-1.16-3.01c0.57-3.36-1.54-4.04-1.54-4.04l-0.149-0.05
			c0,0-2.12-0.68-3.61,2.39c-1.101,2.27-1.95,2.38-2.7,1.77c-1.04-0.84-4.5-1.75-3.33,1.87
			C464.73,395.54,467.32,397.8,469.37,398.34z"/>
		<path style="fill:none;stroke:#231F20;stroke-width:1.7294;" d="M469.15,398.26c0.069,0.03,0.14,0.06,0.22,0.08
			c0.06,0.02,0.12,0.04,0.18,0.05L469.15,398.26z"/>
		<path style="fill:none;stroke:#231F20;stroke-width:1.7294;" d="M413.16,398.49c-2,0.7-5.36,0.35-8.28-1.82
			c-3.05-2.26,0.29-3.54,1.63-3.46c0.96,0.06,1.59-0.52,1.17-3.01c-0.58-3.36,1.54-4.04,1.54-4.04l0.15-0.05c0,0,2.11-0.67,3.6,2.4
			c1.1,2.27,1.95,2.37,2.7,1.77c1.05-0.85,4.5-1.75,3.33,1.87C417.85,395.7,415.22,397.96,413.16,398.49z"/>
		<path style="fill:none;stroke:#231F20;stroke-width:1.7294;" d="M413.16,398.49c-0.04,0.01-0.08,0.02-0.12,0.03l0.4-0.13
			C413.35,398.43,413.26,398.46,413.16,398.49z"/>
		<polyline style="fill:none;stroke:#231F20;stroke-width:7;" points="168.91,254.28 744.8,254.28 747.11,254.28 		"/>
		<line style="fill:none;stroke:#231F20;stroke-width:7;" x1="164.3" y1="422.61" x2="742.5" y2="422.61"/>
	</g>
</g>
<rect style="fill:none;" width="850.394" height="850.394"/>
</svg>
