<?xml version="1.0" encoding="iso-8859-1"?>
<!-- Generator: Adobe Illustrator 12.0.1, SVG Export Plug-In . SVG Version: 6.00 Build 51448)  -->
<!DOCTYPE svg PUBLIC "-//W3C//DTD SVG 1.1//EN" "http://www.w3.org/Graphics/SVG/1.1/DTD/svg11.dtd" [
	<!ENTITY ns_svg "http://www.w3.org/2000/svg">
	<!ENTITY ns_xlink "http://www.w3.org/1999/xlink">
]>
<svg  version="1.1" id="Layer_1" xmlns="&ns_svg;" xmlns:xlink="&ns_xlink;" width="850.394" height="850.394"
	 viewBox="0 0 850.394 850.394" style="overflow:visible;enable-background:new 0 0 850.394 850.394;" xml:space="preserve">
<g id="XMLID_5_">
	<g>
		<path style="fill:#FFFFFF;" d="M458.82,546.402l47.684,220.812c0,0-43.556,19.926-131.975,32.385l-11.003-82.242
			c0,0-3.297-19.927-14.29-19.927h-3.172c-10.993,0-14.29,19.927-14.29,19.927l-11.003,82.242
			c-88.431-12.459-131.964-32.385-131.964-32.385l47.798-221.362l3.203,0.687h218.398L458.82,546.402z"/>
		<polygon style="fill:#FFFFFF;" points="412.509,102.576 406.207,84.782 406.81,83.107 468.606,105.582 556.87,199.753 
			502.988,260.8 458.269,217.578 458.279,219.949 454.046,219.98 		"/>
		<path style="fill:#0071BC;" d="M347.967,468.538v-295.7c23.836,1.549,48.942-16.203,64.542-70.262l41.537,117.404l4.233-0.031
			l1.611,248.642L347.967,468.538z"/>
		<polygon style="fill:#FFFFFF;" points="449.044,501.152 458.82,546.402 458.206,546.538 239.808,546.538 236.605,545.852 
			246.256,501.152 		"/>
		<path style="fill:#ED1E29;" d="M347.967,172.838c-30.534-1.986-58.978-35.63-62.722-65.249l8.643-20.727l-1.269-3.671v-0.01
			l11.918-4.098c-3.983,5.907-6.24,12.688-6.24,19.895c0,22.942,35.172,71.042,64.229,52.364c29.12-18.72,31.2-33.28,38.084-52.364
			c2.247-6.219,1.29-12.313-1.893-17.825l1.248-0.531l6.843,2.486l-0.604,1.674l6.303,17.794
			C396.909,156.635,371.804,174.387,347.967,172.838z"/>
		<path style="fill:#FFFFFF;" d="M237.78,468.486l1.633-250.991l45.832-109.906c3.744,29.619,32.188,63.263,62.722,65.249v295.7
			L237.78,468.486z"/>
		<path style="fill:#FFFFFF;" d="M304.537,79.083c8.684-12.875,25.532-21.622,44.907-21.622c20.103,0,41.444,10.099,49.275,23.691
			c3.183,5.512,4.139,11.606,1.893,17.825c-6.884,19.084-8.964,33.644-38.084,52.364c-29.057,18.678-64.229-29.421-64.229-52.364
			C298.297,91.771,300.554,84.99,304.537,79.083z"/>
		<polygon style="fill:#0071BC;" points="239.413,217.495 194.683,260.707 140.801,199.649 233.568,103.501 292.619,83.19 
			293.888,86.862 285.245,107.589 		"/>
	</g>
	<g>
		<path style="fill:none;stroke:#231F20;stroke-width:14.5599;" d="M398.719,81.152c3.183,5.512,4.139,11.606,1.893,17.825
			c-6.884,19.084-8.964,33.644-38.084,52.364c-29.057,18.678-64.229-29.421-64.229-52.364c0-7.207,2.257-13.988,6.24-19.895
			c8.684-12.875,25.532-21.622,44.907-21.622C369.547,57.461,390.888,67.56,398.719,81.152z"/>
		<polyline style="fill:none;stroke:#231F20;stroke-width:14.5599;" points="399.967,80.622 406.81,83.107 468.606,105.582 
			556.87,199.753 502.988,260.8 458.269,217.578 458.279,219.949 459.891,468.591 347.967,468.538 237.78,468.486 239.413,217.495 
			194.683,260.707 140.801,199.649 233.568,103.501 292.619,83.19 292.619,83.18 304.537,79.083 304.547,79.083 		"/>
		<path style="fill:none;stroke:#231F20;stroke-width:14.5599;" d="M236.605,545.852l9.651-44.699h202.788l9.776,45.25
			l47.684,220.812c0,0-43.556,19.926-131.975,32.385l-11.003-82.242c0,0-3.297-19.927-14.29-19.927h-3.172
			c-10.993,0-14.29,19.927-14.29,19.927l-11.003,82.242c-88.431-12.459-131.964-32.385-131.964-32.385L236.605,545.852z"/>
		<line style="fill:none;stroke:#231F20;stroke-width:14.5599;" x1="239.808" y1="546.538" x2="458.206" y2="546.538"/>
		<polyline style="fill:none;stroke:#231F20;stroke-width:7.2799;" points="293.888,86.862 285.245,107.589 239.413,217.495 		"/>
		<polyline style="fill:none;stroke:#231F20;stroke-width:7.2799;" points="406.207,84.782 412.509,102.576 454.046,219.98 		"/>
		<path style="fill:none;stroke:#231F20;stroke-width:7.2799;" d="M285.568,93.102c-0.884,4.597-0.957,9.485-0.323,14.487
			c3.744,29.619,32.188,63.263,62.722,65.249c23.836,1.549,48.942-16.203,64.542-70.262c0.697-2.392,1.362-4.857,2.018-7.395"/>
		<polyline style="fill:none;stroke:#231F20;stroke-width:7.2799;" points="347.967,172.141 347.967,172.838 347.967,468.538 
			347.967,469.578 		"/>
	</g>
</g>
<rect style="fill:none;" width="850.394" height="850.394"/>
<g id="XMLID_15_">
	<g>
		<path style="fill:#9C5C25;" d="M793.139,173.317l-2.643-8.913l-1.674-0.14c5.352-1.38,9.739-5.811,13.634-4.379
			c3.137,1.158,2.145,6.224,2.934,8.168c1.34,3.313,2.877,4.06,4.351,7.248c2.764,5.967,2.874,15.151-3.164,7.829
			c-2.914-3.533-7.351-9.204-13.372-8.667L793.139,173.317z"/>
		<path style="fill:#FFEEC8;" d="M793.139,173.317l0.065,1.146c-0.268,0.026-0.539,0.063-0.815,0.111c0,0-16.3,5.061-28.551,14.689
			c-9.243,7.262-14.358,9.902-19.804,1.979c-1.748-2.543-3.676-5.537-5.486-8.434l17.284-10.891
			c0.602,1.075,2.221,3.501,4.046,2.327c2.309-1.486,6.27-9.737,17.987-9.409l7.986-0.174c1.023,0,2.013-0.148,2.971-0.396
			l1.674,0.14L793.139,173.317z"/>
		<path style="fill:#FFEEC8;" d="M782.281,120.232c-0.011,0.365-0.146,0.884-0.724,1.246c-0.844,0.511-1.794,1.152-2.258,0.559
			c0.042,0.299,0.085,1.029-0.439,1.434c-0.667,0.519-1.73,0.718-2.287,0.642l-0.128-0.034c-0.154,0.647-0.964,0.929-1.568,0.504
			c-0.573-0.399-1.154-2.198-3.042-4.738c-0.336-0.457-0.716-0.933-1.146-1.432c-1.205-1.394-2.574-2.605-3.427-3.806
			c-0.388-0.544-0.67-1.086-0.778-1.642c-0.453-2.272,0.094-4.066-0.239-7.972c2.295-1.192,4.642-3.513,8.87-4.362
			c1.42,1.271,4.621,3.632,5.482,5.269c0.18,0.345,2.688,7.786,2.632,11.567C783.217,118.236,782.684,119.563,782.281,120.232z"/>
		<path style="fill:#FFFFFF;" d="M766.244,104.993c-0.645,0.331-1.286,0.573-1.962,0.67c-2.631,0.376-6.075-3.162-8.071-4.371
			c-8.713-5.275-13.968-9.848-18.982-10.658c-1.534-0.251-3.048-0.146-4.631,0.402c-11.948-3.709-12.827-21.264-12.827-21.264
			l0.015-0.576c6.891,0.191,14.307,2.138,23.772,6.004c17.506,7.156,25.107,15.242,31.557,25.429
			C770.886,101.48,768.539,103.801,766.244,104.993z"/>
		<path style="fill:#FFEEC8;" d="M768.696,122.87c0.547-2.862-0.068-5.697-1.723-8.057l0.288-0.206
			c0.853,1.201,2.222,2.412,3.427,3.806c0.431,0.499,0.811,0.975,1.146,1.432C771.544,121.396,770.333,123.688,768.696,122.87z"/>
		<path style="fill:#FFFFFF;" d="M755.832,171.917l-17.284,10.891c-3.829-6.124-7.136-11.801-7.136-11.801l-0.146-0.188
			c2.39-1.831,4.938-4.06,7.98-6.974l0.504-0.501c7.105-6.561,14.171-14.355,16.109-18.678c1.719,4.63,2.307,18.447,4.1,24.651
			L755.832,171.917z"/>
		<path style="fill:#FFFFFF;" d="M754.004,128.535c2.899,5.015,4.564,10.067,1.856,16.132c-1.938,4.322-9.004,12.117-16.109,18.678
			l-0.504,0.501c-3.042,2.914-5.591,5.144-7.98,6.974c-0.941,0.718-1.856,1.377-2.769,1.99l-0.146-0.216l-24.79-17.238l-0.129-0.091
			c0,0,6.336-9.714,8.924-14.481l0.24-0.408c0.544,0.293,1.212,0.536,2.044,0.727c5.032,1.143,11.063-1.919,15.533-3.25
			c7.812-2.329,19.496-8.057,19.279-16.437C751.024,123.845,752.652,126.186,754.004,128.535z"/>
		<path style="fill:#FFEEC8;" d="M728.353,172.593l0.146,0.216c-2.809,1.894-5.577,3.359-8.893,4.901
			c-4.521,2.11-10.31,3.949-14.278,6.674c-4.456,3.068-1.442,10.184-2.059,15.111c-1.816,14.524-9.243,20.297-10.563,30.037
			c-0.043,0.319-0.083,0.63-0.117,0.938l-0.456-0.048l-8.251-1.981l-1.172-0.151c0.108-0.807,0.131-1.702,0.063-2.688
			c0,0,0.693-5.808,0.362-13.728c-0.331-7.923,0-29.871,1.651-35.154c1.645-5.28,18.152-20.465,18.152-20.465l0.625-0.898
			L728.353,172.593z"/>
		<path style="fill:#FFFFFF;" d="M686.37,80.844c4.841,0,9.166-2.751,12.028-7.071h0.003v0.003l0.245,0.162
			c7.584-3.298,14.088-4.941,21.139-4.741l-0.015,0.576c0,0,0.879,17.554,12.827,21.264c1.583-0.548,3.097-0.653,4.631-0.402
			l-0.206,1.483c4.933,11.458,10.467,18.361,12.271,27.798c0.097,0.507,0.151,1.009,0.16,1.497c0.003,0.003,0,0.003,0,0.003
			c0.217,8.379-11.468,14.107-19.279,16.437c-4.471,1.332-10.501,4.394-15.533,3.25c-0.832-0.191-1.5-0.434-2.044-0.727
			c-2.142-1.163-2.438-3.165-3.826-6.221c-5.161-11.353-11.51-17.597-20.574-25.415c0.134-0.002,0.269-0.002,0.405-0.002l0.105-0.08
			c-3.872-5.212-8.813-19.564-9.813-26.923c1.328-0.893,2.705-1.369,4.097-1.229l0.031-0.111
			C684.101,80.69,685.221,80.844,686.37,80.844z"/>
		<path style="fill:#9C5C25;" d="M692.132,230.422l0.456,0.048c-1.108,9.531,1.132,14.011-4.53,15.53
			c-2.397,0.644-5.811-1.426-7.849-1.913c-3.476-0.833-4.979-0.017-8.431-0.673c-6.458-1.215-13.999-6.466-4.525-7.122
			c4.354-0.302,14.35,0.45,15.456-8.003l1.172,0.151L692.132,230.422z"/>
		<path style="fill:#FFFFFF;" d="M688.197,108.739c-12.527,0.12-11.598,11.445-20.203,15.596
			c-8.645,4.174-10.492-1.035-14.638-8.123c-0.1-0.171-0.202-0.345-0.305-0.519h0.003c2.335-1.868,6.139-5.719,6.375-9.129
			l0.468,0.006c5.987,2.013,4.875-2.247,7.33-7.407c1.879-3.952,6.409-13.917,11.667-17.429c1.001,7.358,5.941,21.711,9.813,26.923
			l-0.105,0.08C688.466,108.737,688.331,108.737,688.197,108.739z"/>
		<path style="fill:#FFEEC8;" d="M683.022,80.394c-7.02-1.913-12.276-9.728-12.276-19.074c0-10.786,6.996-19.527,15.624-19.527
			c8.63,0,15.621,8.741,15.621,19.527c0,4.733-1.349,9.072-3.59,12.454h-0.003c-2.862,4.319-7.188,7.071-12.028,7.071
			C685.221,80.844,684.101,80.69,683.022,80.394z"/>
		<path style="fill:#FFFFFF;" d="M646.748,203.354c9.934,0,17.987,8.057,17.987,17.99c0,9.937-8.054,17.991-17.987,17.991
			c-9.937,0-17.99-8.054-17.99-17.991C628.758,211.411,636.812,203.354,646.748,203.354z"/>
		<path style="fill:#FFEEC8;" d="M644.324,97.344c0.879-0.778,1.819-0.342,2.021-0.234l0.006-0.014
			c0.456,0.202,1.286,0.644,2.078,1.254c0.234,0.681,0.616,1.249,1.164,1.659c0.18,0.134,0.373,0.231,0.57,0.299
			c0.287,0.61,0.364,1.269,0.073,1.947c-0.854,1.99-2.512,1.352-2.999,1.001c-0.003-0.006-0.006-0.009-0.009-0.006
			c-0.116-0.123-0.242-0.228-0.37-0.319c-1.192-0.855-2.139-2.304-3.473-2.951c-0.234-0.114-0.385-0.24-0.474-0.376l-0.003-0.003
			C642.5,98.952,643.523,98.073,644.324,97.344z"/>
		<path style="fill:#FFEEC8;" d="M643.112,104.885c0.3,0.285,0.579,0.539,0.853,0.747c0.442,1.038,0.105,2.007-0.804,2.575
			c-1.448,0.915-3.684-0.625-4.334-1.292l-0.832,0.168c-0.402-0.636-0.79-1.32-0.955-1.825c-0.325-0.981,0.604-2.518,1.768-2.518
			c0.006,0,0.015,0,0.02,0c1.212,0.014,1.081,0.801,3.636,2.212L643.112,104.885z"/>
		<path style="fill:#FFEEC8;" d="M642.913,99.604c0.089,0.137,0.239,0.262,0.474,0.376c1.334,0.647,2.28,2.095,3.473,2.951
			c0.128,0.091,0.254,0.197,0.37,0.319c0.003-0.003,0.006,0,0.009,0.006c0.77,0.778,1.169,2.042-0.379,2.68
			c-1.292,0.527-2.076,0.313-2.895-0.305c-0.273-0.208-0.553-0.462-0.853-0.747l-0.649,0.068c-2.555-1.411-2.424-2.198-3.636-2.212
			c-0.005,0-0.014,0-0.02,0l1.004-0.801c0.097-0.636,0.661-1.733,1.451-2.295c0.573-0.414,1.3-0.194,1.647-0.043L642.913,99.604z"/>
		<path style="fill:#FFEEC8;" d="M653.055,115.693h-0.003c0.103,0.174,0.205,0.348,0.305,0.519l-0.872,0.051
			c-4.793-1.528-4.784-1.175-9.192-3.496c-1.836-0.972-3.244-2.754-4.425-4.394c-0.236-0.331-0.562-0.795-0.872-1.292l0.832-0.168
			c0.65,0.667,2.886,2.207,4.334,1.292c0.909-0.567,1.246-1.537,0.804-2.575c0.818,0.619,1.603,0.833,2.895,0.305
			c1.548-0.639,1.148-1.902,0.379-2.68c0.487,0.351,2.145,0.989,2.999-1.001c0.291-0.678,0.214-1.337-0.073-1.947
			c-0.354-0.747-1.029-1.417-1.734-1.958c-0.193-0.564-0.285-1.203-0.285-1.896c0-0.642,1.187-0.662,2.446-0.399c0,0,0,0,0.003,0
			c3.639,1.167,5.326,2.708,5.623,3.002c1.647,1.602,1.722,3.561,2.885,5.73l0.068-0.025c0.229,0.576,0.303,1.183,0.26,1.802
			C659.193,109.974,655.39,113.826,653.055,115.693z"/>
	</g>
	<g>
		<path style="fill:none;stroke:#231F20;stroke-width:5.9873;" d="M683.022,80.394c-7.02-1.913-12.276-9.728-12.276-19.074
			c0-10.786,6.996-19.527,15.624-19.527c8.63,0,15.621,8.741,15.621,19.527c0,4.733-1.349,9.072-3.59,12.454h-0.003
			c-2.862,4.319-7.188,7.071-12.028,7.071C685.221,80.844,684.101,80.69,683.022,80.394z"/>
		<path style="fill:none;stroke:#231F20;stroke-width:5.9873;" d="M682.991,80.505c-1.392-0.14-2.769,0.336-4.097,1.229
			c-5.258,3.512-9.788,13.477-11.667,17.429c-2.455,5.161-1.343,9.42-7.33,7.407"/>
		<path style="fill:none;stroke:#231F20;stroke-width:5.9873;" d="M653.052,115.693c0.103,0.174,0.205,0.348,0.305,0.519
			c4.146,7.088,5.993,12.297,14.638,8.123c8.605-4.151,7.676-15.476,20.203-15.596c0.134-0.002,0.269-0.002,0.405-0.002"/>
		<path style="fill:none;stroke:#231F20;stroke-width:5.9873;" d="M749.454,121.413c-0.009-0.487-0.063-0.989-0.16-1.497
			c-1.805-9.438-7.339-16.34-12.271-27.798"/>
		<path style="fill:none;stroke:#231F20;stroke-width:5.9873;" d="M686.78,107.522c0.479,0.411,0.952,0.815,1.417,1.217
			c9.064,7.818,15.413,14.062,20.574,25.415c1.389,3.057,1.685,5.058,3.826,6.221c0.544,0.293,1.212,0.536,2.044,0.727
			c5.032,1.143,11.063-1.919,15.533-3.25c7.812-2.329,19.496-8.057,19.279-16.437"/>
		<path style="fill:none;stroke:#231F20;stroke-width:5.9873;" d="M698.646,73.938c7.584-3.298,14.088-4.941,21.139-4.741
			c6.891,0.191,14.307,2.138,23.772,6.004c17.506,7.156,25.107,15.242,31.557,25.429c-4.229,0.85-6.575,3.17-8.87,4.362
			c-0.645,0.331-1.286,0.573-1.962,0.67c-2.631,0.376-6.075-3.162-8.071-4.371c-8.713-5.275-13.968-9.848-18.982-10.658
			c-1.534-0.251-3.048-0.146-4.631,0.402c-0.419,0.142-0.844,0.316-1.274,0.524"/>
		<path style="fill:none;stroke:#231F20;stroke-width:6.6016;" d="M754.004,128.535c-1.352-2.349-2.979-4.69-4.55-7.119
			c0,0,0.003,0,0-0.003s-0.006-0.003-0.006-0.005"/>
		<path style="fill:none;stroke:#231F20;stroke-width:5.9873;" d="M702.938,156.253c0,0-16.508,15.185-18.152,20.465
			c-1.651,5.283-1.982,27.231-1.651,35.154c0.331,7.92-0.362,13.728-0.362,13.728c0.068,0.986,0.046,1.882-0.063,2.688
			c-1.106,8.454-11.103,7.701-15.456,8.003c-9.474,0.656-1.933,5.907,4.525,7.122c3.452,0.656,4.955-0.16,8.431,0.673
			c2.038,0.487,5.451,2.557,7.849,1.913c5.662-1.52,3.422-5.999,4.53-15.53c0.034-0.308,0.074-0.619,0.117-0.938
			c1.32-9.739,8.747-15.513,10.563-30.037c0.616-4.927-2.397-12.043,2.059-15.111c3.969-2.726,9.757-4.564,14.278-6.674
			c3.315-1.542,6.084-3.008,8.893-4.901c0.912-0.613,1.827-1.271,2.769-1.99c2.39-1.831,4.938-4.06,7.98-6.974l0.504-0.501
			c7.105-6.561,14.171-14.355,16.109-18.678c2.708-6.064,1.043-11.117-1.856-16.132"/>
		<path style="fill:none;stroke:#231F20;stroke-width:5.9873;" d="M755.86,144.667c1.719,4.63,2.307,18.447,4.1,24.651l-4.128,2.6
			l-17.284,10.891l-0.29,0.183"/>
		<path style="fill:none;stroke:#231F20;stroke-width:5.9873;" d="M678.84,81.326c0.018,0.134,0.034,0.271,0.055,0.408
			c1.001,7.358,5.941,21.711,9.813,26.923c0.562,0.755,1.098,1.32,1.6,1.642"/>
		<path style="fill:none;stroke:#231F20;stroke-width:1.9958;" d="M647.229,103.251c-0.014-0.011-0.028-0.02-0.04-0.031"/>
		<path style="fill:none;stroke:#231F20;stroke-width:1.9958;" d="M650.591,96.055c-0.233-0.077-0.479-0.151-0.729-0.222
			c-1.32-0.374-4.191,0.966-3.513,1.26l0.003,0.003c0.456,0.202,1.286,0.644,2.078,1.254c0.705,0.542,1.381,1.211,1.734,1.958
			c0.287,0.61,0.364,1.269,0.073,1.947c-0.854,1.99-2.512,1.352-2.999,1.001"/>
		<path style="fill:none;stroke:#231F20;stroke-width:1.9958;" d="M659.102,104.788c-1.163-2.169-1.237-4.128-2.885-5.73
			c-0.297-0.294-1.984-1.836-5.623-3.002"/>
		<path style="fill:none;stroke:#231F20;stroke-width:1.9958;" d="M642.913,99.604c0.089,0.137,0.239,0.262,0.474,0.376
			c1.334,0.647,2.28,2.095,3.473,2.951c0.128,0.091,0.254,0.197,0.37,0.319c0.003-0.003,0.006,0,0.009,0.006
			c0.77,0.778,1.169,2.042-0.379,2.68c-1.292,0.527-2.076,0.313-2.895-0.305c-0.273-0.208-0.553-0.462-0.853-0.747
			c-0.447-0.425-0.943-0.918-1.559-1.445"/>
		<path style="fill:none;stroke:#231F20;stroke-width:1.9958;" d="M646.386,97.132c0,0-0.014-0.008-0.04-0.022
			c-0.202-0.108-1.143-0.544-2.021,0.234c-0.801,0.729-1.824,1.608-1.414,2.258"/>
		<path style="fill:none;stroke:#231F20;stroke-width:1.9958;" d="M643.115,99.702c0,0-0.076-0.046-0.202-0.097l-0.003-0.003
			c-0.348-0.151-1.074-0.371-1.647,0.043c-0.79,0.562-1.354,1.659-1.451,2.295"/>
		<path style="fill:none;stroke:#231F20;stroke-width:1.9958;" d="M652.484,116.264c-4.793-1.528-4.784-1.175-9.192-3.496
			c-1.836-0.972-3.244-2.754-4.425-4.394c-0.236-0.331-0.562-0.795-0.872-1.292c-0.402-0.636-0.79-1.32-0.955-1.825
			c-0.325-0.981,0.604-2.518,1.768-2.518c0.006,0,0.015,0,0.02,0c1.212,0.014,1.081,0.801,3.636,2.212"/>
		<path style="fill:none;stroke:#231F20;stroke-width:1.9958;" d="M642.656,104.038c0.656,0.519,1.084,1.066,1.309,1.594
			c0.442,1.038,0.105,2.007-0.804,2.575c-1.448,0.915-3.684-0.625-4.334-1.292"/>
		<path style="fill:none;stroke:#231F20;stroke-width:1.9958;stroke-miterlimit:10;" d="M775.114,100.631
			c1.42,1.271,4.621,3.632,5.482,5.269c0.18,0.345,2.688,7.786,2.632,11.567c-0.012,0.77-0.545,2.096-0.947,2.766
			c-0.219,0.374-0.401,0.544-0.431,0.316c-0.094-0.721,0.098-0.893-0.86-4.727c-0.285-1.161-2.219-4.405-2.219-4.405"/>
		<path style="fill:none;stroke:#231F20;stroke-width:1.9958;stroke-miterlimit:10;" d="M779.3,122.034
			c-0.08-0.105-0.146-0.245-0.194-0.433c-0.354-1.434-0.371-2.318-1.742-5.03c-0.863-1.699-2.175-4.385-2.175-4.385"/>
		<path style="fill:none;stroke:#231F20;stroke-width:1.9958;stroke-miterlimit:10;" d="M782.241,119.802
			c0,0,0.049,0.177,0.04,0.431c-0.011,0.365-0.146,0.884-0.724,1.246c-0.844,0.511-1.794,1.152-2.258,0.559"/>
		<path style="fill:none;stroke:#231F20;stroke-width:1.9958;stroke-miterlimit:10;" d="M779.273,121.9c0,0,0.012,0.051,0.026,0.134
			c0,0,0,0,0,0.003c0.042,0.299,0.085,1.029-0.439,1.434c-0.667,0.519-1.73,0.718-2.287,0.642"/>
		<path style="fill:none;stroke:#231F20;stroke-width:1.9958;stroke-miterlimit:10;" d="M766.173,104.257
			c0.028,0.254,0.051,0.499,0.071,0.736c0.333,3.906-0.214,5.699,0.239,7.972c0.108,0.556,0.391,1.098,0.778,1.642
			c0.853,1.201,2.222,2.412,3.427,3.806c0.431,0.499,0.811,0.975,1.146,1.432c1.888,2.54,2.469,4.339,3.042,4.738
			c0.604,0.425,1.414,0.143,1.568-0.504c0.037-0.154,0.037-0.325-0.012-0.516c-0.282-1.152,0.037-1.343-1.69-4.682
			c-0.553-1.061-0.938-2.569-3.689-5.845"/>
		<path style="fill:none;stroke:#231F20;stroke-width:3.9916;stroke-miterlimit:10;" d="M653.055,115.693
			c2.335-1.868,6.139-5.719,6.375-9.129c0.043-0.619-0.031-1.226-0.26-1.802c-0.045-0.125-0.1-0.248-0.162-0.368"/>
		<path style="fill:none;stroke:#231F20;stroke-width:1.9958;" d="M766.817,114.59c0.054,0.074,0.105,0.148,0.156,0.223
			c1.654,2.36,2.27,5.195,1.723,8.057c1.637,0.818,2.848-1.474,3.139-3.025c0.015-0.068,0.025-0.137,0.034-0.203"/>
		<path style="fill:none;stroke:#231F20;stroke-width:1.9958;" d="M653.257,97.11c-0.51-0.417-1.61-0.835-2.663-1.055
			c-0.003,0-0.003,0-0.003,0c-1.26-0.262-2.446-0.242-2.446,0.399c0,0.693,0.092,1.332,0.285,1.896
			c0.234,0.681,0.616,1.249,1.164,1.659c0.18,0.134,0.373,0.231,0.57,0.299c1.294,0.451,2.822-0.273,2.822,0.95
			c0,4.242,1.206,4.986,2.48,6.264"/>
		<path style="fill:none;stroke:#231F20;stroke-width:5.9873;" d="M755.584,171.438c0,0,0.088,0.191,0.248,0.479
			c0.602,1.075,2.221,3.501,4.046,2.327c2.309-1.486,6.27-9.737,17.987-9.409l7.986-0.174c1.023,0,2.013-0.148,2.971-0.396
			c5.352-1.38,9.739-5.811,13.634-4.379c3.137,1.158,2.145,6.224,2.934,8.168c1.34,3.313,2.877,4.06,4.351,7.248
			c2.764,5.967,2.874,15.151-3.164,7.829c-2.914-3.533-7.351-9.204-13.372-8.667c-0.268,0.026-0.539,0.063-0.815,0.111
			c0,0-16.3,5.061-28.551,14.689c-9.243,7.262-14.358,9.902-19.804,1.979c-1.748-2.543-3.676-5.537-5.486-8.434
			c-3.829-6.124-7.136-11.801-7.136-11.801"/>
		<path style="fill:none;stroke:#231F20;stroke-width:5.9873;" d="M728.353,172.593l-24.79-17.238l-0.129-0.091
			c0,0,6.336-9.714,8.924-14.481"/>
		<path style="fill:none;stroke:#231F20;stroke-width:5.9873;" d="M719.771,69.773c0,0,0.879,17.554,12.827,21.264
			c0.741,0.23,1.528,0.408,2.358,0.524"/>
		<line style="fill:none;stroke:#231F20;stroke-width:6.6016;" x1="683.881" y1="228.441" x2="692.132" y2="230.422"/>
		<line style="fill:none;stroke:#231F20;stroke-width:6.6016;" x1="790.496" y1="164.405" x2="793.139" y2="173.317"/>
		<path style="fill:none;stroke:#231F20;stroke-width:5.9873;" d="M664.735,221.344c0,9.937-8.054,17.991-17.987,17.991
			c-9.937,0-17.99-8.054-17.99-17.991c0-9.933,8.054-17.99,17.99-17.99C656.682,203.354,664.735,211.411,664.735,221.344z"/>
	</g>
</g>
</svg>
