<?xml version="1.0" encoding="iso-8859-1"?>
<!-- Generator: Adobe Illustrator 12.0.1, SVG Export Plug-In . SVG Version: 6.00 Build 51448)  -->
<!DOCTYPE svg PUBLIC "-//W3C//DTD SVG 1.1//EN" "http://www.w3.org/Graphics/SVG/1.1/DTD/svg11.dtd" [
	<!ENTITY ns_svg "http://www.w3.org/2000/svg">
	<!ENTITY ns_xlink "http://www.w3.org/1999/xlink">
]>
<svg  version="1.1" id="Layer_1" xmlns="&ns_svg;" xmlns:xlink="&ns_xlink;" width="850.394" height="850.394"
	 viewBox="0 0 850.394 850.394" style="overflow:visible;enable-background:new 0 0 850.394 850.394;" xml:space="preserve">
<g id="XMLID_11_">
	<g>
		<polygon style="fill:#BD2025;" points="557.808,179.273 572.87,195.354 517.952,257.575 503.78,243.87 504.108,243.53 
			557.108,179.931 		"/>
		<path style="fill:#A8D7F4;" d="M557.808,179.273l-0.699,0.657l-53,63.6l-0.328,0.339l-31.407-30.348l-4.039-0.191
			c1.537-5.226,6.095-49.067,6.095-116.08l0.266-0.752l8.215,2.873L557.808,179.273z"/>
		<path style="fill:#FFFFFF;" d="M471.769,543.306l49.767,230.421c0,0-44.393,20.31-134.513,33.008l-11.215-83.824
			c0,0-3.36-20.31-14.564-20.31h-3.233c-11.204,0-14.564,20.31-14.564,20.31l-11.215,83.824
			c-90.131-12.698-134.502-33.008-134.502-33.008l49.024-227.019l219.195-2.141L471.769,543.306z"/>
		<polygon style="fill:#FFFFFF;" points="462.971,502.549 471.769,543.306 465.949,544.567 246.754,546.708 256.283,502.549 		"/>
		<path style="fill:#A8D7F4;" d="M434.182,82.316l-0.032,0.095c-6.359,48.76-21.2,78.439-74.199,95.399
			c-40.279-14.84-72.079-42.665-72.079-95.399l-0.148-0.424l27.962-9.625c-4.06,6.021-6.36,12.932-6.36,20.277
			c0,23.383,35.849,72.408,65.465,53.371c29.68-19.08,31.8-33.92,38.817-53.371c2.3-6.36,1.314-12.571-1.95-18.2L434.182,82.316z"/>
		<path style="fill:#BD2025;" d="M411.657,74.441c3.265,5.628,4.25,11.84,1.95,18.2c-7.017,19.451-9.137,34.291-38.817,53.371
			c-29.616,19.038-65.465-29.987-65.465-53.371c0-7.346,2.3-14.257,6.36-20.277c8.851-13.123,26.023-22.037,45.771-22.037
			C381.935,50.326,403.654,60.597,411.657,74.441z"/>
		<path style="fill:#BD2025;" d="M250.581,213.872C250.973,214.646,251.037,214.243,250.581,213.872
			c-1.431-2.851-7.229-21.74-7.229-116.62l44.371-15.264l0.148,0.424c0,52.735,31.8,80.56,72.079,95.399
			c53-16.96,67.84-46.64,74.199-95.399l0.032-0.095l40.513,14.183l-0.266,0.752c0,67.013-4.558,110.854-6.095,116.08l4.039,0.191
			l1.653,255.829l-226.382-0.096l1.664-255.818C249.913,213.437,250.326,213.649,250.581,213.872z"/>
		<path style="fill:#A8D7F4;" d="M243.352,97.251c0,94.88,5.798,113.769,7.229,116.62c-0.254-0.223-0.668-0.435-1.272-0.435
			l-29.16,28.175l-2.237-2.322l-55.119-57.239l-0.657-0.625L243.352,97.251z"/>
		<polygon style="fill:#BD2025;" points="217.912,239.29 220.148,241.612 203.718,257.479 148.8,195.248 162.135,181.425 
			162.792,182.051 		"/>
	</g>
	<g>
		<path style="fill:none;stroke:#231F20;stroke-width:14.8399;" d="M411.657,74.441c3.265,5.628,4.25,11.84,1.95,18.2
			c-7.017,19.451-9.137,34.291-38.817,53.371c-29.616,19.038-65.465-29.987-65.465-53.371c0-7.346,2.3-14.257,6.36-20.277
			c8.851-13.123,26.023-22.037,45.771-22.037C381.935,50.326,403.654,60.597,411.657,74.441z"/>
		<polyline style="fill:none;stroke:#231F20;stroke-width:14.8399;" points="405.975,72.448 411.657,74.441 434.182,82.316 
			474.694,96.499 482.909,99.372 557.808,179.273 572.87,195.354 517.952,257.575 503.78,243.87 472.373,213.522 474.026,469.351 
			247.645,469.255 249.309,213.437 220.148,241.612 203.718,257.479 148.8,195.248 162.135,181.425 243.352,97.251 287.723,81.988 
			315.685,72.363 315.696,72.363 		"/>
		<path style="fill:none;stroke:#231F20;stroke-width:14.8399;" d="M246.754,546.708l9.529-44.159h206.688l8.798,40.757
			l49.767,230.421c0,0-44.393,20.31-134.513,33.008l-11.215-83.824c0,0-3.36-20.31-14.564-20.31h-3.233
			c-11.204,0-14.564,20.31-14.564,20.31l-11.215,83.824c-90.131-12.698-134.502-33.008-134.502-33.008L246.754,546.708z"/>
		<polyline style="fill:none;stroke:#231F20;stroke-width:14.8399;" points="245.228,546.719 246.754,546.708 465.949,544.567 		"/>
		<path style="fill:none;stroke:#231F20;stroke-width:7.4199;" d="M287.871,82.412c0,52.735,31.8,80.56,72.079,95.399"/>
		<path style="fill:none;stroke:#231F20;stroke-width:7.4199;" d="M434.149,82.412c-6.359,48.76-21.2,78.439-74.199,95.399"/>
		<path style="fill:none;stroke:#231F20;stroke-width:7.4199;" d="M250.581,213.872c-0.254-0.223-0.668-0.435-1.272-0.435"/>
		<path style="fill:none;stroke:#231F20;stroke-width:7.4199;" d="M250.581,213.872
			C250.973,214.646,251.037,214.243,250.581,213.872L250.581,213.872z"/>
		<path style="fill:none;stroke:#231F20;stroke-width:7.4199;" d="M243.352,97.251c0,94.88,5.798,113.769,7.229,116.62"/>
		<path style="fill:none;stroke:#231F20;stroke-width:7.4199;" d="M474.429,97.251c0,67.013-4.558,110.854-6.095,116.08
			c-0.105,0.339-0.19,0.52-0.265,0.52"/>
		<line style="fill:none;stroke:#231F20;stroke-width:7.4199;" x1="162.792" y1="182.051" x2="217.912" y2="239.29"/>
		<line style="fill:none;stroke:#231F20;stroke-width:7.4199;" x1="557.108" y1="179.931" x2="504.108" y2="243.53"/>
	</g>
</g>
<rect style="fill:none;" width="850.394" height="850.394"/>
<g id="XMLID_15_">
	<g>
		<path style="fill:#9C5C25;" d="M793.174,167.575l-2.608-8.794l-1.651-0.138c5.28-1.361,9.61-5.733,13.454-4.321
			c3.095,1.142,2.115,6.142,2.895,8.061c1.322,3.269,2.839,4.006,4.293,7.151c2.729,5.889,2.836,14.951-3.123,7.729
			c-2.875-3.489-7.253-9.084-13.194-8.556L793.174,167.575z"/>
		<path style="fill:#FFEEC8;" d="M793.174,167.575l0.064,1.131c-0.265,0.025-0.532,0.062-0.805,0.11c0,0-16.084,4.994-28.173,14.495
			c-9.121,7.166-14.169,9.771-19.542,1.953c-1.725-2.51-3.627-5.464-5.413-8.322l17.058-10.747c0.594,1.061,2.188,3.455,3.989,2.296
			c2.279-1.466,6.187-9.608,17.75-9.284l7.88-0.172c1.01,0,1.986-0.146,2.932-0.391l1.651,0.138L793.174,167.575z"/>
		<path style="fill:#FFEEC8;" d="M782.457,115.201c-0.011,0.36-0.146,0.87-0.714,1.221c-0.83,0.503-1.768,1.137-2.226,0.551
			c0.045,0.298,0.084,1.016-0.434,1.415c-0.658,0.512-1.708,0.709-2.256,0.633l-0.127-0.034c-0.152,0.641-0.951,0.92-1.547,0.498
			c-0.566-0.394-1.14-2.169-3.002-4.676c-0.332-0.45-0.707-0.92-1.132-1.412c-1.189-1.376-2.54-2.571-3.381-3.756
			c-0.383-0.538-0.661-1.072-0.769-1.621c-0.444-2.242,0.093-4.015-0.239-7.866c2.265-1.173,4.58-3.466,8.756-4.305
			c1.4,1.255,4.561,3.584,5.41,5.199c0.177,0.34,2.652,7.684,2.597,11.414c-0.012,0.762-0.54,2.073-0.938,2.734
			C782.457,115.198,782.46,115.201,782.457,115.201z"/>
		<path style="fill:#FFFFFF;" d="M766.632,100.155c-0.636,0.326-1.266,0.565-1.933,0.661c-2.597,0.372-5.995-3.12-7.962-4.313
			c-8.598-5.205-13.782-9.72-18.731-10.519c-1.517-0.245-3.011-0.144-4.574,0.396c-11.788-3.66-12.655-20.979-12.655-20.979
			l0.015-0.568c6.8,0.188,14.117,2.11,23.458,5.925c17.274,7.062,24.774,15.041,31.139,25.092
			C771.212,96.689,768.896,98.981,766.632,100.155z"/>
		<path style="fill:#FFEEC8;" d="M767.64,109.642c0.841,1.185,2.191,2.38,3.381,3.756c0.425,0.492,0.8,0.962,1.132,1.412
			c-0.287,1.531-1.483,3.792-3.098,2.985c0.54-2.825-0.067-5.621-1.699-7.951L767.64,109.642z"/>
		<path style="fill:#FFFFFF;" d="M756.363,166.193l-17.058,10.747c-3.778-6.043-7.042-11.645-7.042-11.645l-0.144-0.186
			c2.357-1.806,4.873-4.006,7.875-6.882l0.498-0.495c7.011-6.474,13.985-14.165,15.896-18.43c1.696,4.569,2.276,18.203,4.046,24.327
			L756.363,166.193z"/>
		<path style="fill:#FFFFFF;" d="M750.066,116.36c1.551,2.397,3.157,4.707,4.493,7.025c2.858,4.949,4.502,9.934,1.829,15.918
			c-1.91,4.265-8.885,11.957-15.896,18.43l-0.498,0.495c-3.002,2.875-5.518,5.076-7.875,6.882c-0.929,0.709-1.831,1.359-2.731,1.963
			l-0.144-0.213l-24.463-17.01l-0.126-0.09c0,0,6.251-9.585,8.806-14.289l0.236-0.402c0.537,0.29,1.195,0.529,2.018,0.717
			c4.965,1.131,10.913-1.893,15.327-3.207C738.754,130.281,750.283,124.625,750.066,116.36z"/>
		<path style="fill:#FFEEC8;" d="M729.245,166.86l0.144,0.213c-2.771,1.868-5.503,3.314-8.775,4.836
			c-4.462,2.082-10.173,3.896-14.089,6.586c-4.397,3.027-1.424,10.05-2.031,14.911c-1.792,14.332-9.121,20.028-10.424,29.639
			c-0.042,0.315-0.082,0.622-0.115,0.925l-0.45-0.048l-8.142-1.955l-1.157-0.149c0.107-0.796,0.13-1.68,0.063-2.653
			c0,0,0.684-5.731,0.357-13.546c-0.326-7.818,0-29.476,1.629-34.689c1.626-5.21,17.913-20.194,17.913-20.194l0.615-0.886
			L729.245,166.86z"/>
		<path style="fill:#FFEEC8;" d="M703.235,57.057c0,4.673-1.331,8.955-3.545,12.292c-2.827,4.26-7.096,6.975-11.87,6.975
			c-1.134,0-2.239-0.155-3.306-0.445c-6.926-1.891-12.111-9.599-12.111-18.821c0-10.64,6.901-19.269,15.417-19.269
			C696.334,37.788,703.235,46.417,703.235,57.057z"/>
		<path style="fill:#9C5C25;" d="M693.504,223.924l0.45,0.048c-1.095,9.405,1.117,13.825-4.471,15.325
			c-2.366,0.636-5.733-1.407-7.745-1.888c-3.43-0.822-4.912-0.017-8.319-0.664c-6.372-1.196-13.813-6.381-4.465-7.028
			c4.296-0.298,14.16,0.444,15.251-7.897l1.157,0.149L693.504,223.924z"/>
		<path style="fill:#FFFFFF;" d="M709.923,128.93c-5.095-11.2-11.357-17.364-20.302-25.079c0.133-0.003,0.265-0.003,0.399-0.003
			l0.104-0.079c-3.82-5.143-8.696-19.308-9.681-26.57c1.311-0.877,2.667-1.347,4.04-1.209l0.03-0.113
			c1.066,0.29,2.172,0.445,3.306,0.445c4.774,0,9.043-2.715,11.87-6.975l0.242,0.163c7.483-3.255,13.9-4.875,20.858-4.678
			l-0.015,0.568c0,0,0.867,17.319,12.655,20.979c1.563-0.54,3.058-0.641,4.574-0.396l-0.205,1.466
			c4.867,11.307,10.325,18.118,12.108,27.43c0.096,0.501,0.146,0.993,0.157,1.477v0.003c0.217,8.266-11.313,13.921-19.023,16.219
			c-4.414,1.314-10.362,4.338-15.327,3.207c-0.822-0.188-1.48-0.427-2.018-0.717C711.585,133.921,711.29,131.946,709.923,128.93z"/>
		<path style="fill:#FFFFFF;" d="M689.621,103.852c-12.361,0.118-11.444,11.293-19.936,15.389
			c-8.53,4.119-10.354-1.021-14.443-8.015c-0.099-0.169-0.2-0.34-0.302-0.512h0.003c2.305-1.843,6.058-5.644,6.291-9.008
			l0.461,0.005c5.908,1.986,4.812-2.217,7.233-7.309c1.854-3.899,6.324-13.735,11.516-17.201c0.984,7.262,5.86,21.427,9.681,26.57
			l-0.104,0.079C689.886,103.849,689.754,103.849,689.621,103.852z"/>
		<circle style="fill:#FFFFFF;" cx="648.721" cy="214.966" r="17.752"/>
		<path style="fill:#FFEEC8;" d="M646.329,92.606c0.866-0.768,1.795-0.337,1.994-0.23l0.006-0.014c0.45,0.2,1.269,0.636,2.051,1.238
			c0.231,0.672,0.608,1.232,1.148,1.637c0.177,0.132,0.368,0.228,0.563,0.295c0.284,0.602,0.36,1.252,0.073,1.922
			c-0.844,1.963-2.479,1.333-2.96,0.987c-0.003-0.005-0.006-0.008-0.008-0.005c-0.116-0.121-0.239-0.225-0.366-0.315
			c-1.176-0.844-2.11-2.273-3.424-2.912c-0.228-0.11-0.38-0.236-0.467-0.372C644.522,94.199,645.535,93.327,646.329,92.606z"/>
		<path style="fill:#FFEEC8;" d="M644.492,100.115l0.641-0.067c0.296,0.281,0.571,0.532,0.842,0.737
			c0.436,1.024,0.104,1.983-0.794,2.543c-1.429,0.9-3.635-0.619-4.276-1.277l-0.821,0.166c-0.396-0.627-0.779-1.302-0.942-1.8
			c-0.32-0.968,0.597-2.484,1.744-2.484c0.006,0,0.015,0,0.02,0C642.101,97.946,641.971,98.723,644.492,100.115z"/>
		<path style="fill:#FFEEC8;" d="M645.133,100.048l-0.641,0.067c-2.521-1.393-2.392-2.169-3.588-2.183c-0.005,0-0.014,0-0.02,0
			l0.99-0.791c0.096-0.627,0.653-1.71,1.436-2.265c0.565-0.411,1.285-0.188,1.629-0.04c0.087,0.135,0.239,0.262,0.467,0.372
			c1.313,0.639,2.248,2.068,3.424,2.912c0.127,0.09,0.25,0.194,0.366,0.315c0.002-0.003,0.005,0,0.008,0.005
			c0.76,0.768,1.153,2.015-0.374,2.645c-1.274,0.521-2.048,0.31-2.855-0.301C645.704,100.58,645.429,100.329,645.133,100.048z"/>
		<path style="fill:#FFEEC8;" d="M640.904,102.051c0.642,0.658,2.848,2.177,4.276,1.277c0.897-0.56,1.229-1.519,0.794-2.543
			c0.808,0.61,1.581,0.821,2.855,0.301c1.527-0.63,1.134-1.876,0.374-2.645c0.481,0.346,2.116,0.976,2.96-0.987
			c0.287-0.67,0.211-1.32-0.073-1.922c-0.349-0.737-1.016-1.398-1.711-1.933c-0.191-0.557-0.281-1.187-0.281-1.871
			c0-0.633,1.171-0.652,2.414-0.394c0,0,0,0,0.003,0c3.59,1.15,5.256,2.672,5.548,2.962c1.626,1.581,1.699,3.514,2.848,5.655
			l0.067-0.025c0.225,0.568,0.298,1.167,0.256,1.778c-0.233,3.365-3.986,7.166-6.291,9.008h-0.003
			c0.102,0.172,0.203,0.343,0.302,0.512l-0.861,0.05c-4.729-1.508-4.721-1.159-9.07-3.449c-1.812-0.959-3.202-2.718-4.366-4.335
			c-0.233-0.327-0.555-0.785-0.861-1.275L640.904,102.051z"/>
	</g>
	<g>
		<path style="fill:none;stroke:#231F20;stroke-width:5.9081;" d="M684.515,75.878c-6.926-1.891-12.111-9.599-12.111-18.821
			c0-10.64,6.901-19.269,15.417-19.269c8.514,0,15.415,8.629,15.415,19.269c0,4.673-1.331,8.955-3.545,12.292
			c-2.827,4.26-7.096,6.975-11.87,6.975C686.687,76.323,685.581,76.168,684.515,75.878z"/>
		<path style="fill:none;stroke:#231F20;stroke-width:5.9081;" d="M684.484,75.991c-1.373-0.138-2.729,0.332-4.04,1.209
			c-5.191,3.466-9.661,13.302-11.516,17.201c-2.422,5.092-1.325,9.295-7.233,7.309"/>
		<path style="fill:none;stroke:#231F20;stroke-width:5.9081;" d="M654.94,110.713c0.102,0.172,0.203,0.343,0.302,0.512
			c4.09,6.994,5.913,12.134,14.443,8.015c8.491-4.096,7.574-15.271,19.936-15.389c0.133-0.003,0.265-0.003,0.399-0.003"/>
		<path style="fill:none;stroke:#231F20;stroke-width:5.9081;" d="M750.066,116.357c-0.011-0.484-0.062-0.976-0.157-1.477
			c-1.783-9.312-7.241-16.124-12.108-27.43"/>
		<path style="fill:none;stroke:#231F20;stroke-width:5.9081;" d="M688.223,102.65c0.473,0.405,0.94,0.807,1.398,1.201
			c8.944,7.714,15.207,13.878,20.302,25.079c1.367,3.016,1.662,4.991,3.775,6.139c0.537,0.29,1.195,0.529,2.018,0.717
			c4.965,1.131,10.913-1.893,15.327-3.207c7.711-2.298,19.24-7.954,19.023-16.219"/>
		<path style="fill:none;stroke:#231F20;stroke-width:5.9081;" d="M699.933,69.511c7.483-3.255,13.9-4.875,20.858-4.678
			c6.8,0.188,14.117,2.11,23.458,5.925c17.274,7.062,24.774,15.041,31.139,25.092c-4.176,0.839-6.491,3.131-8.756,4.305
			c-0.636,0.326-1.266,0.565-1.933,0.661c-2.597,0.372-5.995-3.12-7.962-4.313c-8.598-5.205-13.782-9.72-18.731-10.519
			c-1.517-0.245-3.011-0.144-4.574,0.396c-0.414,0.144-0.83,0.315-1.255,0.521"/>
		<line style="fill:none;stroke:#231F20;stroke-width:6.5142;" x1="750.066" y1="116.357" x2="750.062" y2="116.352"/>
		<line style="fill:none;stroke:#231F20;stroke-width:5.9081;" x1="750.066" y1="116.36" x2="750.066" y2="116.357"/>
		<path style="fill:none;stroke:#231F20;stroke-width:6.5142;" d="M754.56,123.385c-1.336-2.318-2.942-4.628-4.493-7.025"/>
		<path style="fill:none;stroke:#231F20;stroke-width:5.9081;" d="M704.167,150.737c0,0-16.287,14.984-17.913,20.194
			c-1.629,5.213-1.955,26.871-1.629,34.689c0.326,7.815-0.357,13.546-0.357,13.546c0.067,0.974,0.045,1.857-0.063,2.653
			c-1.091,8.341-10.955,7.599-15.251,7.897c-9.349,0.647-1.907,5.832,4.465,7.028c3.407,0.647,4.89-0.158,8.319,0.664
			c2.012,0.481,5.379,2.523,7.745,1.888c5.588-1.5,3.376-5.919,4.471-15.325c0.033-0.304,0.073-0.61,0.115-0.925
			c1.303-9.611,8.632-15.308,10.424-29.639c0.607-4.861-2.366-11.884,2.031-14.911c3.916-2.689,9.627-4.504,14.089-6.586
			c3.272-1.522,6.004-2.968,8.775-4.836c0.9-0.604,1.803-1.254,2.731-1.963c2.357-1.806,4.873-4.006,7.875-6.882l0.498-0.495
			c7.011-6.474,13.985-14.165,15.896-18.43c2.673-5.984,1.029-10.97-1.829-15.918"/>
		<path style="fill:none;stroke:#231F20;stroke-width:5.9081;" d="M756.389,139.303c1.696,4.569,2.276,18.203,4.046,24.327
			l-4.071,2.563l-17.058,10.747l-0.287,0.18"/>
		<path style="fill:none;stroke:#231F20;stroke-width:5.9081;" d="M680.391,76.801c0.017,0.129,0.034,0.265,0.054,0.399
			c0.984,7.262,5.86,21.427,9.681,26.57c0.554,0.746,1.083,1.303,1.578,1.621"/>
		<path style="fill:none;stroke:#231F20;stroke-width:1.9694;" d="M649.196,98.436c-0.015-0.011-0.028-0.02-0.04-0.031"/>
		<path style="fill:none;stroke:#231F20;stroke-width:1.9694;" d="M652.513,91.335c-0.23-0.076-0.473-0.149-0.72-0.22
			c-1.303-0.368-4.136,0.954-3.467,1.244l0.003,0.003c0.45,0.2,1.269,0.636,2.051,1.238c0.695,0.535,1.362,1.196,1.711,1.933
			c0.284,0.602,0.36,1.252,0.073,1.922c-0.844,1.963-2.479,1.333-2.96,0.987"/>
		<path style="fill:none;stroke:#231F20;stroke-width:1.9694;" d="M660.911,99.952c-1.148-2.141-1.222-4.074-2.848-5.655
			c-0.292-0.29-1.958-1.812-5.548-2.962"/>
		<path style="fill:none;stroke:#231F20;stroke-width:1.9694;" d="M648.363,92.398c0,0-0.015-0.009-0.04-0.022
			c-0.199-0.107-1.128-0.538-1.994,0.23c-0.794,0.72-1.807,1.592-1.39,2.231c0.087,0.135,0.239,0.262,0.467,0.372
			c1.313,0.639,2.248,2.068,3.424,2.912c0.127,0.09,0.25,0.194,0.366,0.315c0.002-0.003,0.005,0,0.008,0.005
			c0.76,0.768,1.153,2.015-0.374,2.645c-1.274,0.521-2.048,0.31-2.855-0.301c-0.271-0.206-0.546-0.456-0.842-0.737
			c-0.441-0.419-0.931-0.906-1.538-1.426"/>
		<path style="fill:none;stroke:#231F20;stroke-width:1.9694;" d="M645.136,94.933c0,0-0.073-0.042-0.196-0.096
			c-0.344-0.149-1.063-0.371-1.629,0.04c-0.782,0.554-1.34,1.637-1.436,2.265"/>
		<path style="fill:none;stroke:#231F20;stroke-width:1.9694;" d="M654.381,111.276c-4.729-1.508-4.721-1.159-9.07-3.449
			c-1.812-0.959-3.202-2.718-4.366-4.335c-0.233-0.327-0.555-0.785-0.861-1.275c-0.396-0.627-0.779-1.302-0.942-1.8
			c-0.32-0.968,0.597-2.484,1.744-2.484c0.006,0,0.015,0,0.02,0c1.196,0.014,1.066,0.791,3.588,2.183"/>
		<path style="fill:none;stroke:#231F20;stroke-width:1.9694;" d="M644.684,99.212c0.646,0.512,1.068,1.052,1.291,1.573
			c0.436,1.024,0.104,1.983-0.794,2.543c-1.429,0.9-3.635-0.619-4.276-1.277"/>
		<path style="fill:none;stroke:#231F20;stroke-width:1.9694;stroke-miterlimit:10;" d="M782.457,115.201
			c-0.216,0.363-0.394,0.529-0.422,0.304c-0.093-0.711,0.096-0.88-0.85-4.665c-0.281-1.145-2.188-4.347-2.188-4.347"/>
		<path style="fill:none;stroke:#231F20;stroke-width:1.9694;stroke-miterlimit:10;" d="M775.388,95.85
			c1.4,1.255,4.561,3.584,5.41,5.199c0.177,0.34,2.652,7.684,2.597,11.414c-0.012,0.762-0.54,2.073-0.938,2.734"/>
		<path style="fill:none;stroke:#231F20;stroke-width:1.9694;stroke-miterlimit:10;" d="M782.421,114.768c0,0,0.048,0.18,0.036,0.43
			c0,0,0.003,0.003,0,0.003c-0.011,0.36-0.146,0.87-0.714,1.221c-0.83,0.503-1.768,1.137-2.226,0.551
			c-0.079-0.104-0.144-0.245-0.191-0.43c-0.349-1.416-0.366-2.288-1.719-4.963c-0.85-1.677-2.146-4.327-2.146-4.327"/>
		<path style="fill:none;stroke:#231F20;stroke-width:1.9694;stroke-miterlimit:10;" d="M779.495,116.838
			c0,0,0.011,0.05,0.022,0.135c0.045,0.298,0.084,1.016-0.434,1.415c-0.658,0.512-1.708,0.709-2.256,0.633"/>
		<path style="fill:none;stroke:#231F20;stroke-width:1.9694;stroke-miterlimit:10;" d="M766.564,99.429
			c0.028,0.25,0.051,0.492,0.067,0.726c0.332,3.852-0.205,5.624,0.239,7.866c0.107,0.549,0.386,1.083,0.769,1.621
			c0.841,1.185,2.191,2.38,3.381,3.756c0.425,0.492,0.8,0.962,1.132,1.412c1.862,2.507,2.436,4.282,3.002,4.676
			c0.596,0.422,1.395,0.144,1.547-0.498c0.036-0.149,0.036-0.321-0.012-0.509c-0.278-1.137,0.037-1.325-1.668-4.62
			c-0.546-1.047-0.926-2.535-3.638-5.768"/>
		<path style="fill:none;stroke:#231F20;stroke-width:3.9387;stroke-miterlimit:10;" d="M654.943,110.713
			c2.305-1.843,6.058-5.644,6.291-9.008c0.042-0.611-0.031-1.21-0.256-1.778c-0.045-0.124-0.099-0.245-0.16-0.363"/>
		<path style="fill:none;stroke:#231F20;stroke-width:1.9694;" d="M767.2,109.625c0.054,0.073,0.104,0.146,0.155,0.22
			c1.632,2.33,2.239,5.126,1.699,7.951c1.614,0.807,2.811-1.455,3.098-2.985c0.014-0.067,0.025-0.135,0.033-0.2"/>
		<path style="fill:none;stroke:#231F20;stroke-width:1.9694;" d="M655.144,92.376c-0.504-0.411-1.59-0.825-2.628-1.041
			c-0.003,0-0.003,0-0.003,0c-1.243-0.259-2.414-0.239-2.414,0.394c0,0.684,0.09,1.314,0.281,1.871
			c0.231,0.672,0.608,1.232,1.148,1.637c0.177,0.132,0.368,0.228,0.563,0.295c1.277,0.445,2.785-0.27,2.785,0.937
			c0,4.187,1.19,4.92,2.447,6.181"/>
		<path style="fill:none;stroke:#231F20;stroke-width:5.9081;" d="M756.118,165.721c0,0,0.088,0.188,0.245,0.473
			c0.594,1.061,2.188,3.455,3.989,2.296c2.279-1.466,6.187-9.608,17.75-9.284l7.88-0.172c1.01,0,1.986-0.146,2.932-0.391
			c5.28-1.361,9.61-5.733,13.454-4.321c3.095,1.142,2.115,6.142,2.895,8.061c1.322,3.269,2.839,4.006,4.293,7.151
			c2.729,5.889,2.836,14.951-3.123,7.729c-2.875-3.489-7.253-9.084-13.194-8.556c-0.265,0.025-0.532,0.062-0.805,0.11
			c0,0-16.084,4.994-28.173,14.495c-9.121,7.166-14.169,9.771-19.542,1.953c-1.725-2.51-3.627-5.464-5.413-8.322
			c-3.778-6.043-7.042-11.645-7.042-11.645"/>
		<path style="fill:none;stroke:#231F20;stroke-width:5.9081;" d="M729.245,166.86l-24.463-17.01l-0.126-0.09
			c0,0,6.251-9.585,8.806-14.289"/>
		<path style="fill:none;stroke:#231F20;stroke-width:5.9081;" d="M720.776,65.401c0,0,0.867,17.319,12.655,20.979
			c0.734,0.231,1.508,0.405,2.329,0.521"/>
		<line style="fill:none;stroke:#231F20;stroke-width:6.5142;" x1="685.362" y1="221.969" x2="693.504" y2="223.924"/>
		<line style="fill:none;stroke:#231F20;stroke-width:6.5142;" x1="790.565" y1="158.78" x2="793.174" y2="167.575"/>
		<circle style="fill:none;stroke:#231F20;stroke-width:5.9081;" cx="648.719" cy="214.966" r="17.751"/>
	</g>
</g>
</svg>
