<?xml version="1.0" encoding="iso-8859-1"?>
<!-- Generator: Adobe Illustrator 12.0.1, SVG Export Plug-In . SVG Version: 6.00 Build 51448)  -->
<!DOCTYPE svg PUBLIC "-//W3C//DTD SVG 1.1//EN" "http://www.w3.org/Graphics/SVG/1.1/DTD/svg11.dtd" [
	<!ENTITY ns_svg "http://www.w3.org/2000/svg">
	<!ENTITY ns_xlink "http://www.w3.org/1999/xlink">
]>
<svg  version="1.1" id="Layer_1" xmlns="&ns_svg;" xmlns:xlink="&ns_xlink;" width="850.394" height="850.394"
	 viewBox="0 0 850.394 850.394" style="overflow:visible;enable-background:new 0 0 850.394 850.394;" xml:space="preserve">
<g id="XMLID_19_">
	<g>
		<path style="fill:#58B947;" d="M382.99,162.62c7.19,4.09,15.32,5.47,23.55,4.49l0.04,0.43c0,0,16.24,14.07,19.43,51.64
			l-50.72,114.11c0,0-26.08-97.36-33.03-130.97c-6.96-33.61-41.15-34.77-41.15-34.77l-0.86-1.18C327.84,146.24,364,140,364,140
			l1.26-0.38C368.27,149.44,374.27,157.65,382.99,162.62z"/>
		<path style="fill:#58B947;" d="M335.8,363.68l-11.51-31.55c0,0-54.54-104.64-56.72-126.28c7.73-13.52,16.32-25.61,25.43-33.67
			c2.32-2.06,4.75-3.99,7.25-5.81l0.86,1.18c0,0,34.19,1.16,41.15,34.77c6.95,33.61,33.03,130.97,33.03,130.97
			s15.65,56.79,22.02,86.92l-1.92,0.54l-13.03,3.66l-13.45,1.02c0,0-0.25,1.12-0.58,2.93l-8.11,2.279L335.8,363.68z"/>
		<path style="fill:#FFEEC8;" d="M365.26,139.62c-4.47-14.5-2.46-32.52,6.84-48.83c15.58-27.37,45.73-39.57,67.34-27.27
			c21.6,12.31,26.489,44.47,10.899,71.83c-10.41,18.26-27.3,29.77-43.8,31.76c-8.23,0.98-16.36-0.4-23.55-4.49
			C374.27,157.65,368.27,149.44,365.26,139.62z"/>
		<path style="fill:#BD2025;" d="M382.24,686.79c0,0,1.74,2.32,13.91,11.01c8.7,6.21-5.79,17.391-19.7,13.33
			c-13.91-4.05-61.43-16.81-61.43-16.81l0.58-13.9l0.38-2.15C339.84,687.21,382.24,686.79,382.24,686.79z"/>
		<path style="fill:#BD2025;" d="M312.12,719.24c14.15,10.609-14.48,19.71-26.08,15.649c-10.62-3.72-56.21-24.92-56.21-24.92
			s0.21-3.1,0.59-8.47l4.63,0.35c0,0,42.88,6.96,69.54-2.31C304.59,699.54,295.9,707.07,312.12,719.24z"/>
		<path style="fill:#9C5C25;" d="M384.56,490.91c0,0,1.16,46.37-0.58,121.13c-1.74,74.75-1.74,74.75-1.74,74.75
			s-42.4,0.42-66.26-8.521c-3.06-1.14-5.81-2.439-8.13-3.92c5.11-40.069,14.91-119.909,19.92-179.96
			c1.15-13.859-30.14-122.86-30.14-122.86l0.39-5.52c12.19,0.86,24.95,0.33,37.78-2.33l24.42,66.959l8.11-2.279
			c-1.1,5.97-3.11,19.409,0.01,24.31c1.12,1.75,3.29,4.26,6.05,6.82l7.06,21.8L384.56,490.91z"/>
		<path style="fill:#9C5C25;" d="M307.85,674.35c-1.99,15.62-3.26,25.19-3.26,25.19c-26.66,9.27-69.54,2.31-69.54,2.31l-4.63-0.35
			c2.03-29.02,8.95-124.18,13.9-152.05c4.63-26.08,5.8-58.54,5.8-58.54c-0.21-0.32-0.38-0.67-0.63-0.98
			c-31.83-39.59-55.49-88.65-44.58-132.31c2.05-8.19,3.84-14.63,5.45-19.81l0.35,0.11c0,0,39.28,24.74,87.31,28.09l-0.39,5.52
			c0,0,31.29,109,30.14,122.86C322.76,554.44,312.96,634.28,307.85,674.35z"/>
		<path style="fill:#FFEEC8;" d="M399.63,423.11l-17.27,1.3l13.03-3.66l20.46-0.54c0,0-0.38,56.09-2.31,57.37
			c-6.96,4.64-13.33,14.5-27.82,2.33l-4.27,1.38l-7.06-21.8c7.24,6.729,18.52,13.859,25.24,8.819
			C408.9,461.36,401.37,445.14,399.63,423.11z"/>
		<path style="fill:#58B947;" d="M375.29,333.29l50.72-114.11c0.11,1.3,0.2,2.64,0.28,4c0.89,15.62-17.39,55.63-17.39,77.65
			s6.95,119.38,6.95,119.38l-20.46,0.54l1.92-0.54C390.94,390.08,375.29,333.29,375.29,333.29z"/>
		<path style="fill:#58B947;" d="M324.29,332.13l11.51,31.55c-12.83,2.66-25.59,3.19-37.78,2.33
			c-48.03-3.35-87.31-28.09-87.31-28.09l-0.35-0.11c8.45-27.09,11.98-19.75,21.21-47.41c4.85-14.55,18.16-53.36,36-84.55
			C269.75,227.49,324.29,332.13,324.29,332.13z"/>
		<path style="fill:#231F20;" d="M622.45,758.21c8.16,0,14.79,6.72,14.79,14.99c0,8.29-6.63,15-14.79,15s-14.78-6.71-14.78-15
			C607.67,764.93,614.29,758.21,622.45,758.21z"/>
		<path style="fill:#231F20;" d="M555.63,749.7l39-17.42c0,0,11.3-3.04,12.61,7.39c1.3,10.43,2.71,31.33-32.16,27.38
			c-23.04-2.609-22.39-3.689-26.73-12.17c-0.89-1.72,5.431-4.35,5.431-4.35L555.63,749.7z"/>
		<path style="fill:#FFEEC8;" d="M374.39,459.49c-2.76-2.561-4.93-5.07-6.05-6.82c-3.12-4.9-1.11-18.34-0.01-24.31l14.03-3.95
			l17.27-1.3c1.74,22.03,9.27,38.25,0,45.2C392.91,473.35,381.63,466.22,374.39,459.49z"/>
		<path style="fill:#FFFFFF;" d="M382.36,424.41l-14.03,3.95c0.33-1.811,0.58-2.93,0.58-2.93L382.36,424.41z"/>
	</g>
	<g>
		<path style="fill:none;stroke:#231F20;stroke-width:14;" d="M365.26,139.62c-4.47-14.5-2.46-32.52,6.84-48.83
			c15.58-27.37,45.73-39.57,67.34-27.27c21.6,12.31,26.489,44.47,10.899,71.83c-10.41,18.26-27.3,29.77-43.8,31.76
			c-8.23,0.98-16.36-0.4-23.55-4.49C374.27,157.65,368.27,149.44,365.26,139.62z"/>
		<path style="fill:none;stroke:#231F20;stroke-width:14;" d="M406.58,167.54c0,0,16.24,14.07,19.43,51.64c0.11,1.3,0.2,2.64,0.28,4
			c0.89,15.62-17.39,55.63-17.39,77.65s6.95,119.38,6.95,119.38l-20.46,0.54l-1.56,0.04"/>
		<path style="fill:none;stroke:#231F20;stroke-width:14;" d="M364,140c0,0-36.16,6.24-63.75,26.37c-2.5,1.82-4.93,3.75-7.25,5.81
			c-9.11,8.06-17.7,20.15-25.43,33.67c-17.84,31.19-31.15,70-36,84.55c-9.23,27.66-12.76,20.32-21.21,47.41
			c-1.61,5.18-3.4,11.62-5.45,19.81c-10.91,43.66,12.75,92.72,44.58,132.31c0.25,0.311,0.42,0.66,0.63,0.98
			c0,0-1.17,32.46-5.8,58.54c-4.95,27.87-11.87,123.03-13.9,152.05c-0.38,5.37-0.59,8.47-0.59,8.47s45.59,21.2,56.21,24.92
			c11.6,4.061,40.23-5.04,26.08-15.649c-16.22-12.17-7.53-19.7-7.53-19.7s1.27-9.57,3.26-25.19
			c5.11-40.069,14.91-119.909,19.92-179.96c1.15-13.859-30.14-122.86-30.14-122.86"/>
		<path style="fill:none;stroke:#231F20;stroke-width:14;" d="M235.05,701.85c0,0,42.88,6.96,69.54-2.31"/>
		<path style="fill:none;stroke:#231F20;stroke-width:14;" d="M305.75,672.88c0.65,0.51,1.35,1,2.1,1.47
			c2.32,1.48,5.07,2.78,8.13,3.92c23.86,8.94,66.26,8.521,66.26,8.521s0,0,1.74-74.75c1.74-74.76,0.58-121.13,0.58-121.13
			l-3.11-9.62l-7.06-21.8"/>
		<path style="fill:none;stroke:#231F20;stroke-width:14;" d="M315.6,680.42l-0.58,13.9c0,0,47.52,12.76,61.43,16.81
			c13.91,4.061,28.4-7.12,19.7-13.33c-12.17-8.689-13.91-11.01-13.91-11.01"/>
		<line style="fill:none;stroke:#231F20;stroke-width:14;" x1="410.64" y1="486.28" x2="555.63" y2="749.7"/>
		<path style="fill:none;stroke:#231F20;stroke-width:14;" d="M415.85,420.21c0,0-0.38,56.09-2.31,57.37
			c-6.96,4.64-13.33,14.5-27.82,2.33"/>
		<path style="fill:none;stroke:#231F20;stroke-width:14;" d="M368.91,425.43c0,0-0.25,1.12-0.58,2.93
			c-1.1,5.97-3.11,19.409,0.01,24.31c1.12,1.75,3.29,4.26,6.05,6.82c7.24,6.729,18.52,13.859,25.24,8.819
			c9.27-6.949,1.74-23.17,0-45.2"/>
		<path style="fill:none;stroke:#231F20;stroke-width:7;" d="M553.78,750.53l1.85-0.83l39-17.42c0,0,11.3-3.04,12.61,7.39
			c1.3,10.43,2.71,31.33-32.16,27.38c-23.04-2.609-22.39-3.689-26.73-12.17C547.46,753.16,553.78,750.53,553.78,750.53z"/>
		<path style="fill:none;stroke:#231F20;stroke-width:14;" d="M210.71,337.92c0,0,39.28,24.74,87.31,28.09
			c12.19,0.86,24.95,0.33,37.78-2.33c0.41-0.08,0.83-0.17,1.24-0.26"/>
		<polyline style="fill:none;stroke:#231F20;stroke-width:14;" points="426.29,218.54 426.01,219.18 375.29,333.29 		"/>
		<path style="fill:none;stroke:#231F20;stroke-width:14;" d="M301.11,167.55c0,0,34.19,1.16,41.15,34.77
			c6.95,33.61,33.03,130.97,33.03,130.97s15.65,56.79,22.02,86.92l-1.92,0.54l-13.03,3.66l-14.03,3.95l-8.11,2.279L335.8,363.68
			l-11.51-31.55c0,0-54.54-104.64-56.72-126.28c-0.05-0.44-0.07-0.85-0.07-1.22"/>
	</g>
</g>
<rect style="fill:none;" width="850.394" height="850.394"/>
</svg>
