<?xml version="1.0" encoding="iso-8859-1"?>
<!-- Generator: Adobe Illustrator 12.0.1, SVG Export Plug-In . SVG Version: 6.00 Build 51448)  -->
<!DOCTYPE svg PUBLIC "-//W3C//DTD SVG 1.1//EN" "http://www.w3.org/Graphics/SVG/1.1/DTD/svg11.dtd" [
	<!ENTITY ns_svg "http://www.w3.org/2000/svg">
	<!ENTITY ns_xlink "http://www.w3.org/1999/xlink">
]>
<svg  version="1.1" id="Layer_1" xmlns="&ns_svg;" xmlns:xlink="&ns_xlink;" width="850.394" height="850.394"
	 viewBox="0 0 850.394 850.394" style="overflow:visible;enable-background:new 0 0 850.394 850.394;" xml:space="preserve">
<g>
	<g id="XMLID_1_">
		<g>
			<path style="fill:#FBEE34;" d="M151.15,510.92c2.24-0.55,4.25-0.88,5.85-0.88c7.79-0.01,15.53,3.24,23.17,2.8
				c-6.36,17.19-17.95,32.521-33.12,42.78c-6.13,4.16-12.44,7.979-19.48,9.74c-2.69,0.68-5.49,1.05-8.43,1.029
				c-6.68-0.05-12.88-3.3-19.47-3.029c6.9-9.66,15.49-20.771,17.01-24.82c2.97-7.89,2.52-15.82,0.98-23.73l0.63-0.119
				c5.23-0.62,21.27-1.44,32.78-4.11L151.15,510.92z"/>
			<path style="fill:#FBEE34;" d="M109.57,490.63c2.66,5.25,4.8,10.771,6.31,16.46c0.14,0.51,0.27,1.021,0.4,1.54
				c0.51,2.061,0.98,4.12,1.38,6.18c1.54,7.91,1.99,15.841-0.98,23.73c-1.52,4.05-10.11,15.16-17.01,24.82
				c-4.45,6.229-8.2,11.87-8.91,14.64c-0.11-18.29-1.34-33.53-1.34-33.53c-10.68-12.069-15.33-18.56-15.34-35.31
				c-0.02-9.28-0.39-16.92,2.87-25.67c2.71-7.29,8.45-13.45,10.68-20.8C96.66,470.47,104.2,480.01,109.57,490.63z"/>
			<path style="fill:#FBEE34;" d="M151.25,442.06c0.17,3.29,0.14,6.58-0.07,9.851c-0.3,4.85-1.01,9.66-2.13,14.38
				c-0.55,2.36-1.21,4.7-1.97,7c-3.2,9.71-7.07,19.11-15.52,25.52c-4.79,3.641-10.83,4.98-15.68,8.28
				c-1.51-5.689-3.65-11.21-6.31-16.46c-2.63-15.87-7.37-25.189,1.49-39.32c4.95-7.89,8.67-14.52,16.1-20.229
				c3.11-2.38,6.72-4.12,10.27-5.9c3.49-1.75,6.94-3.54,9.82-6.03C149.55,426.56,150.9,434.3,151.25,442.06z"/>
			<path style="fill:#FBEE34;" d="M194.18,464.06c-6.37,17.21-17.95,32.54-33.13,42.82c-2.25,1.521-5.82,2.73-9.98,3.7
				c-11.51,2.67-27.55,3.49-32.78,4.11l-0.63,0.119c-0.4-2.06-0.87-4.119-1.38-6.18c-0.13-0.52-0.26-1.03-0.4-1.54
				c4.85-3.3,10.89-4.64,15.68-8.28c8.45-6.409,12.32-15.81,15.52-25.52c0.76-2.3,1.42-4.64,1.97-7c7.33-2.75,13.74-5.04,21.96-5.01
				C178.77,461.26,186.53,464.52,194.18,464.06z"/>
			<path style="fill:#FBEE34;" d="M222.52,401.35c-6.36,17.17-17.95,32.5-33.13,42.79c-8.46,5.74-17.28,10.83-27.89,10.761
				c-5.05-0.04-1.91-3.851-10.32-2.99c0.21-3.271,0.24-6.561,0.07-9.851c2.88-2.409,4.12-2.529,8.63-5.939
				c8.48-6.43,12.33-15.84,15.55-25.54c0.76-2.31,1.42-4.65,1.97-7.02h0.01c7.34-2.73,13.72-5.05,21.94-5.02
				C207.11,398.57,214.88,401.76,222.52,401.35z"/>
			<path style="fill:#FBEE34;" d="M179.69,382.51c0.09,7.08-0.66,14.16-2.28,21.05h-0.01c-0.55,2.37-1.21,4.71-1.97,7.02
				c-3.22,9.7-7.07,19.11-15.55,25.54c-4.51,3.41-5.75,3.53-8.63,5.939c-0.35-7.76-1.7-15.5-4-22.91c-2.88,2.49-6.33,4.28-9.82,6.03
				c-2.65-14.24-6.37-23.29,1.99-36.63c4.92-7.86,8.65-14.51,16.1-20.21c4.92-3.76,11.07-5.91,16.31-9.18
				c1.32-0.82,2.59-1.72,3.76-2.73c1.75,5.65,2.95,11.49,3.58,17.38C179.49,376.7,179.66,379.6,179.69,382.51z"/>
			<path style="fill:#FBEE34;" d="M171.37,358.42c-2.6-15.93-7.39-25.25,1.48-39.45c4.95-7.87,8.66-14.53,16.1-20.22
				c4.9-3.75,11.01-5.9,16.23-9.14c1.36-0.83,2.65-1.74,3.85-2.78c1.89,6.11,3.14,12.42,3.73,18.78c0.26,2.78,0.39,5.57,0.39,8.36
				c0,6.73-0.76,13.46-2.31,20c-0.55,2.36-1.21,4.69-1.97,6.99c-3.21,9.72-7.07,19.13-15.54,25.54c-4.28,3.27-9.6,4.68-14.16,7.31
				c-0.63-5.89-1.83-11.73-3.58-17.38c-1.17,1.01-2.44,1.91-3.76,2.73L171.37,358.42z"/>
			<path style="fill:#FBEE34;" d="M232.8,328.94c7.76,0.01,15.51,3.25,23.17,2.8c-6.38,17.19-17.98,32.52-33.12,42.79
				c-8.49,5.74-17.3,10.83-27.91,10.76c-5.24-0.04-10.18-2.05-15.25-2.78c-0.03-2.91-0.2-5.81-0.52-8.7
				c4.56-2.63,9.88-4.04,14.16-7.31c8.47-6.41,12.33-15.82,15.54-25.54c0.76-2.3,1.42-4.63,1.97-6.99
				C218.17,331.23,224.57,328.92,232.8,328.94z"/>
			<path style="fill:#FBEE34;" d="M228.83,316.89c-7.15-0.04-6.75-3.77-13.87-2.92h-1.81c0-2.79-0.13-5.58-0.39-8.36l1.13-0.1
				c5.15-5.02,7.64-3.09,13.34-7.4c8.45-6.43,12.32-15.83,15.53-25.55c0.76-2.3,1.41-4.63,1.97-6.98
				c5.39-2.03,10.29-3.82,15.77-4.61c1.96-0.28,4-0.44,6.17-0.43c3.76,0.01,8.7,1.14,13.66,2.26c5.31,1.2,10.64,2.38,14.59,2.15
				c-6.38,17.18-23.03,30.91-38.19,41.18C248.24,311.89,239.43,316.96,228.83,316.89z"/>
			<path style="fill:#FBEE34;" d="M243.03,218.79c4.61,15.1,5.31,31.45,1.7,46.79c-0.56,2.35-1.21,4.68-1.97,6.98
				c-3.21,9.72-7.08,19.12-15.53,25.55c-5.7,4.31-8.19,2.38-13.34,7.4l-1.13,0.1c-0.59-6.36-1.84-12.67-3.73-18.78
				c-1.2,1.04-2.49,1.95-3.85,2.78c-2.61-15.69-7.25-24.96,1.57-39.04c4.92-7.87,8.65-14.53,16.09-20.23
				c6.15-4.71,14.27-6.9,20.08-11.91C242.96,218.55,242.99,218.67,243.03,218.79z"/>
			<path style="fill:#FBEE34;" d="M311.24,195.97c0.18,12.81-2.32,25.66-7.6,37.3c-3.98,8.74-13.88,20.39-22.58,26.33l-0.73,3.2
				c-4.96-1.12-9.9-2.25-13.66-2.26c-2.17-0.01-4.21,0.15-6.17,0.43l-0.62-3.87c-0.91-16.12-0.08-36.36,10.28-49.53
				c5.73-7.3,10.16-13.52,18.17-18.39c6.61-4.03,14.91-5.34,21.22-9.72C310.6,184.89,311.18,190.42,311.24,195.97z"/>
			<path style="fill:#FFFFC2;" d="M420.12,610.45c7.74,18.99-0.42,30.99-3.36,43.479c-2.01,8.521-5.05,19.25-5.49,29.13
				c-0.34-7.479-0.56-14.93-0.95-22.27c-0.86-16.18-9.79-37.26-17.29-44.2c-7.12-6.59-19.64-13.74-32.55-12.85
				c-22.68,1.58-30.77,13.17-58.98,23.43c-4.51,1.64-9.61,2.93-15.02,3.82c15.78-4.23,39.95-20.82,49.75-26.45
				c13.04-7.51,21.48-15.66,37.15-18.95C394.38,581.2,411.55,589.5,420.12,610.45z"/>
			<path style="fill:#FFFFC2;" d="M278.99,631.96c-14.65,1.36-30.46-0.15-42.31-5.47c-8.14-3.67-13.48-13.391-8.25-21.811
				c4.54-7.3,14.19-7.72,19.67-15.12c15.75-21.26-16.93-23.359-9.12-44.97c5.66-15.649,36.63-8.229,33.93-28.01
				c-1.08-7.93-10.26-13.14-11.64-21.74c-1.37-8.399-0.08-18.51,8.06-21.81c7.11-2.891,19.99-2.311,26.95-6.34
				c11.46-6.61-0.1-18.69,1.39-28.69c3.05-20.74,30.08,0.57,37.97-15.57c3.9-7.98,0.35-16,10.92-19.72
				c9.24-3.23,18.69,3.71,23.61,11.11c18.28,27.371,16.92,60.85,18.56,92.07c0.81,15.521,2.05,34.54,19.92,50.391
				c5.78,6.729,13.49,10.62,26.27,9.739c22.7-1.579,34.41-16.25,62.61-26.489c18.33-6.66,46.39-7.62,64.83,0.66
				c8.14,3.67,13.47,13.39,8.239,21.81c-4.529,7.29-14.189,7.72-19.67,15.12c-15.729,21.26,16.94,23.36,9.13,44.97
				c-5.659,15.63-36.619,8.22-33.92,28c1.08,7.94,10.23,13.15,11.63,21.74c1.36,8.4,0.08,18.52-8.06,21.83
				c-7.12,2.88-20,2.3-26.97,6.32c-11.44,6.63,0.12,18.699-1.36,28.71c-3.06,20.729-30.09-0.58-37.979,15.56
				c-3.92,7.98-0.351,16.01-10.931,19.72c-9.229,3.24-18.68-3.72-23.609-11.1c-12.17-18.25-15.62-39.21-17.061-60.4
				c-0.21-3.13-0.38-6.27-0.53-9.41c0.44-9.88,3.48-20.609,5.49-29.13c2.94-12.489,11.101-24.489,3.36-43.479
				c-8.57-20.95-25.74-29.25-46.74-24.86c-15.67,3.29-24.11,11.44-37.15,18.95c-9.8,5.63-33.97,22.22-49.75,26.45
				C284.04,631.4,281.53,631.72,278.99,631.96z"/>
			<path style="fill:#FFFFC2;" d="M607.91,358.27c0,2.73-0.13,7.41-0.351,13.38c-1.229,33.13-5.239,106.05-5.239,106.05
				s-4.801,11.75-15.891,18.99c-4.34,2.199-6.79,3.439-6.79,3.439c-3.51,1.33-7.479,2.13-11.92,2.13
				c-28.149,0-58.35-11.029-85.27-18.2c-10.55-2.8-27.58-6.819-37.9-10.869c-21.94-8.62-23.39-33.94-23.74-48.11
				c-0.29-12.43,0.61-25.18,0.27-37.73c-0.72-26.17,0.47-56.57-8.52-81.55c-8.77-24.37-10.31-54.29,6.93-67.04
				c0.01-0.02,0.03-0.03,0.04-0.03c2.49-1.84,5.36-3.32,8.661-4.37c26.229-8.37,102.979-8.65,149.579,37.95
				C604,298.54,607.91,318.08,607.91,358.27z"/>
			<path style="fill:#F6CC4B;" d="M771.99,358.27c0,52.46,2.229,42.96-12.84,50.78c-8.631,4.48-141,71.57-172.721,87.641
				c11.09-7.24,15.891-18.99,15.891-18.99s4.01-72.92,5.239-106.05l0.29,0.01l149.631-70.33
				C757.48,311.38,771.99,294.64,771.99,358.27z"/>
			<path style="fill:#FAA41F;" d="M765.3,261.15c0,32.37-7.819,30.14-7.819,40.18L607.85,371.66l-0.29-0.01
				c0.221-5.97,0.351-10.65,0.351-13.38c0-40.19-3.91-59.73-30.141-85.96c-46.6-46.6-123.35-46.32-149.579-37.95
				c-3.3,1.05-6.17,2.53-8.661,4.37c1.7-1.46,56.51-48.11,116.94-61.29c61.38-13.4,110.5-14.52,150.681,2.23
				C727.34,196.41,765.3,228.78,765.3,261.15z"/>
		</g>
		<g>
			<path style="fill:none;stroke:#231F20;stroke-width:14;" d="M109.59,490.75c-0.01-0.04-0.01-0.08-0.02-0.12
				c-2.63-15.87-7.37-25.189,1.49-39.32c4.95-7.89,8.67-14.52,16.1-20.229c3.11-2.38,6.72-4.12,10.27-5.9
				c3.49-1.75,6.94-3.54,9.82-6.03c2.3,7.41,3.65,15.15,4,22.91c0.17,3.29,0.14,6.58-0.07,9.851c-0.3,4.85-1.01,9.66-2.13,14.38
				c-0.55,2.36-1.21,4.7-1.97,7c-3.2,9.71-7.07,19.11-15.52,25.52c-4.79,3.641-10.83,4.98-15.68,8.28
				c-0.94,0.63-1.82,1.33-2.65,2.141"/>
			<path style="fill:none;stroke:#231F20;stroke-width:14;" d="M149.05,466.29c7.33-2.75,13.74-5.04,21.96-5.01
				c7.76-0.021,15.52,3.239,23.17,2.779c-6.37,17.21-17.95,32.54-33.13,42.82c-2.25,1.521-5.82,2.73-9.98,3.7
				c-11.51,2.67-27.55,3.49-32.78,4.11"/>
			<path style="fill:none;stroke:#231F20;stroke-width:14;" d="M122.66,521.47c5.91-2.21,19.23-8.279,28.49-10.55
				c2.24-0.55,4.25-0.88,5.85-0.88c7.79-0.01,15.53,3.24,23.17,2.8c-6.36,17.19-17.95,32.521-33.12,42.78
				c-6.13,4.16-12.44,7.979-19.48,9.74c-2.69,0.68-5.49,1.05-8.43,1.029c-6.68-0.05-12.88-3.3-19.47-3.029
				c-0.46,0.01-0.93,0.04-1.39,0.1"/>
			<path style="fill:none;stroke:#231F20;stroke-width:14;" d="M177.4,403.56c-0.55,2.37-1.21,4.71-1.97,7.02
				c-3.22,9.7-7.07,19.11-15.55,25.54c-4.51,3.41-5.75,3.53-8.63,5.939c-0.75,0.631-1.61,1.421-2.67,2.46"/>
			<path style="fill:none;stroke:#231F20;stroke-width:14;" d="M137.93,428.02c-0.16-0.97-0.33-1.92-0.5-2.839
				c-2.65-14.24-6.37-23.29,1.99-36.63c4.92-7.86,8.65-14.51,16.1-20.21c4.92-3.76,11.07-5.91,16.31-9.18
				c1.32-0.82,2.59-1.72,3.76-2.73c1.75,5.65,2.95,11.49,3.58,17.38c0.32,2.89,0.49,5.79,0.52,8.7c0.09,7.08-0.66,14.16-2.28,21.05"
				/>
			<path style="fill:none;stroke:#231F20;stroke-width:14;" d="M177.4,403.56h0.01c7.34-2.73,13.72-5.05,21.94-5.02
				c7.76,0.03,15.53,3.22,23.17,2.81c-6.36,17.17-17.95,32.5-33.13,42.79c-8.46,5.74-17.28,10.83-27.89,10.761
				c-5.05-0.04-1.91-3.851-10.32-2.99c-0.18,0.02-0.36,0.04-0.55,0.06"/>
			<path style="fill:none;stroke:#231F20;stroke-width:14;" d="M171.37,358.42c-2.6-15.93-7.39-25.25,1.48-39.45
				c4.95-7.87,8.66-14.53,16.1-20.22c4.9-3.75,11.01-5.9,16.23-9.14c1.36-0.83,2.65-1.74,3.85-2.78c1.89,6.11,3.14,12.42,3.73,18.78
				c0.26,2.78,0.39,5.57,0.39,8.36c0,6.73-0.76,13.46-2.31,20c-0.55,2.36-1.21,4.69-1.97,6.99c-3.21,9.72-7.07,19.13-15.54,25.54
				c-4.28,3.27-9.6,4.68-14.16,7.31c-1.48,0.87-2.89,1.86-4.15,3.09"/>
			<path style="fill:none;stroke:#231F20;stroke-width:14;" d="M210.84,333.97c7.33-2.74,13.73-5.05,21.96-5.03
				c7.76,0.01,15.51,3.25,23.17,2.8c-6.38,17.19-17.98,32.52-33.12,42.79c-8.49,5.74-17.3,10.83-27.91,10.76
				c-5.24-0.04-10.18-2.05-15.25-2.78c-1.85-0.27-3.72-0.37-5.62-0.14"/>
			<path style="fill:none;stroke:#231F20;stroke-width:14;" d="M205.25,290.02c-0.02-0.14-0.05-0.28-0.07-0.41
				c-2.61-15.69-7.25-24.96,1.57-39.04c4.92-7.87,8.65-14.53,16.09-20.23c6.15-4.71,14.27-6.9,20.08-11.91
				c0.04,0.12,0.07,0.24,0.11,0.36c4.61,15.1,5.31,31.45,1.7,46.79c-0.56,2.35-1.21,4.68-1.97,6.98
				c-3.21,9.72-7.08,19.12-15.53,25.55c-5.7,4.31-8.19,2.38-13.34,7.4"/>
			<path style="fill:none;stroke:#231F20;stroke-width:14;" d="M244.72,265.58h0.01c5.39-2.03,10.29-3.82,15.77-4.61
				c1.96-0.28,4-0.44,6.17-0.43c3.76,0.01,8.7,1.14,13.66,2.26c5.31,1.2,10.64,2.38,14.59,2.15c-6.38,17.18-23.03,30.91-38.19,41.18
				c-8.49,5.76-17.3,10.83-27.9,10.76c-7.15-0.04-6.75-3.77-13.87-2.92"/>
			<path style="fill:none;stroke:#231F20;stroke-width:14;" d="M259.88,257.1c-0.91-16.12-0.08-36.36,10.28-49.53
				c5.73-7.3,10.16-13.52,18.17-18.39c6.61-4.03,14.91-5.34,21.22-9.72c1.05,5.43,1.63,10.96,1.69,16.51
				c0.18,12.81-2.32,25.66-7.6,37.3c-3.98,8.74-13.88,20.39-22.58,26.33c-0.59,0.4-1.16,0.77-1.73,1.11"/>
			<path style="fill:none;stroke:#231F20;stroke-width:14;" d="M90.74,578.08c0.01-0.03,0.01-0.05,0.02-0.08
				c0.71-2.77,4.46-8.41,8.91-14.64c6.9-9.66,15.49-20.771,17.01-24.82c2.97-7.89,2.52-15.82,0.98-23.73
				c-0.4-2.06-0.87-4.119-1.38-6.18c-0.13-0.52-0.26-1.03-0.4-1.54c-1.51-5.689-3.65-11.21-6.31-16.46
				c-5.37-10.62-12.91-20.16-21.94-27.939c-2.23,7.35-7.97,13.51-10.68,20.8c-3.26,8.75-2.89,16.39-2.87,25.67
				c0.01,16.75,4.66,23.24,15.34,35.31c0,0,1.23,15.24,1.34,33.53c0.07,12.04-0.34,25.39-1.89,36.62
				c-1.05,7.66-1.79,15.95-2.4,24.27c-1.64,22.44-2.36,45.16-6.01,56.641"/>
			<path style="fill:none;stroke:#231F20;stroke-width:14;" d="M129.24,564.88c-0.56,0.15-1.12,0.311-1.67,0.48
				c-25.1,7.859-37.85,41.68-41.09,73.529"/>
			<line style="fill:none;stroke:#231F20;stroke-width:14;" x1="222.37" y1="405.47" x2="332.48" y2="293.37"/>
			<line style="fill:none;stroke:#231F20;stroke-width:14;" x1="194.25" y1="465.03" x2="307.51" y2="349.79"/>
			<line style="fill:none;stroke:#231F20;stroke-width:14;" x1="181.2" y1="515.93" x2="294.28" y2="400.86"/>
			<line style="fill:none;stroke:#231F20;stroke-width:14;" x1="254.65" y1="337.34" x2="372.24" y2="217.77"/>
			<line style="fill:none;stroke:#231F20;stroke-width:14;" x1="293.11" y1="251.5" x2="403.2" y2="139.41"/>
			<polyline style="fill:none;stroke:#231F20;stroke-width:14;" points="308.38,198.88 311.24,195.97 418.5,86.79 			"/>
			<polyline style="fill:none;stroke:#231F20;stroke-width:14;" points="240.15,221.72 243.03,218.79 350.25,109.64 			"/>
			<path style="fill:none;stroke:#231F20;stroke-width:21;" d="M579.64,500.13c-3.51,1.33-7.479,2.13-11.92,2.13
				c-28.149,0-58.35-11.029-85.27-18.2c-10.55-2.8-27.58-6.819-37.9-10.869c-21.94-8.62-23.39-33.94-23.74-48.11
				c-0.29-12.43,0.61-25.18,0.27-37.73c-0.72-26.17,0.47-56.57-8.52-81.55c-8.77-24.37-10.31-54.29,6.93-67.04
				c0.01-0.02,0.03-0.03,0.04-0.03c2.49-1.84,5.36-3.32,8.661-4.37c26.229-8.37,102.979-8.65,149.579,37.95
				c26.23,26.23,30.141,45.77,30.141,85.96c0,2.73-0.13,7.41-0.351,13.38c-1.229,33.13-5.239,106.05-5.239,106.05
				s-4.801,11.75-15.891,18.99C584.39,498.03,582.13,499.21,579.64,500.13z"/>
			<path style="fill:none;stroke:#231F20;stroke-width:21;" d="M419.49,238.76c0,0,0.01-0.01,0.04-0.03
				c1.7-1.46,56.51-48.11,116.94-61.29c61.38-13.4,110.5-14.52,150.681,2.23c40.189,16.74,78.149,49.11,78.149,81.48
				s-7.819,30.14-7.819,40.18c0,10.05,14.51-6.69,14.51,56.94c0,52.46,2.229,42.96-12.84,50.78
				c-8.631,4.48-141,71.57-172.721,87.641c-4.34,2.199-6.79,3.439-6.79,3.439"/>
			<line style="fill:none;stroke:#231F20;stroke-width:21;" x1="757.48" y1="301.33" x2="607.85" y2="371.66"/>
			<path style="fill:none;stroke:#231F20;stroke-width:21;" d="M411.02,558.29c-0.82-0.66-1.61-1.33-2.37-2.01
				c-17.87-15.851-19.11-34.87-19.92-50.391c-1.64-31.22-0.28-64.699-18.56-92.07c-4.92-7.4-14.37-14.34-23.61-11.11
				c-10.57,3.72-7.02,11.74-10.92,19.72c-7.89,16.14-34.92-5.17-37.97,15.57c-1.49,10,10.07,22.08-1.39,28.69
				c-6.96,4.029-19.84,3.449-26.95,6.34c-8.14,3.3-9.43,13.41-8.06,21.81c1.38,8.601,10.56,13.811,11.64,21.74
				c2.7,19.78-28.27,12.36-33.93,28.01c-7.81,21.61,24.87,23.71,9.12,44.97c-5.48,7.4-15.13,7.82-19.67,15.12
				c-5.23,8.42,0.11,18.141,8.25,21.811c11.85,5.319,27.66,6.83,42.31,5.47c2.54-0.24,5.05-0.56,7.49-0.97
				c5.41-0.891,10.51-2.181,15.02-3.82c28.21-10.26,36.3-21.85,58.98-23.43c12.91-0.891,25.43,6.26,32.55,12.85
				c7.5,6.94,16.43,28.021,17.29,44.2c0.39,7.34,0.61,14.79,0.95,22.27c0.15,3.141,0.32,6.28,0.53,9.41
				c1.44,21.19,4.89,42.15,17.061,60.4c4.93,7.38,14.38,14.34,23.609,11.1c10.58-3.71,7.011-11.739,10.931-19.72
				c7.89-16.14,34.92,5.17,37.979-15.56c1.48-10.011-10.08-22.08,1.36-28.71c6.97-4.021,19.85-3.44,26.97-6.32
				c8.14-3.311,9.42-13.43,8.06-21.83c-1.399-8.59-10.55-13.8-11.63-21.74c-2.699-19.78,28.261-12.37,33.92-28
				c7.811-21.609-24.859-23.71-9.13-44.97c5.48-7.4,15.141-7.83,19.67-15.12c5.23-8.42-0.1-18.14-8.239-21.81
				c-18.44-8.28-46.5-7.32-64.83-0.66c-28.2,10.239-39.91,24.91-62.61,26.489c-12.78,0.881-20.49-3.01-26.27-9.739
				c-0.05-0.05-0.1-0.11-0.15-0.17"/>
			<path style="fill:none;stroke:#231F20;stroke-width:21;" d="M278.88,631.95c0.04,0,0.07,0.01,0.11,0.01
				c2.14,0.16,4.68-0.21,7.49-0.97c15.78-4.23,39.95-20.82,49.75-26.45c13.04-7.51,21.48-15.66,37.15-18.95
				c21-4.39,38.17,3.91,46.74,24.86c7.74,18.99-0.42,30.99-3.36,43.479c-2.01,8.521-5.05,19.25-5.49,29.13
				c-0.15,3.261-0.02,6.44,0.53,9.41"/>
		</g>
	</g>
</g>
<rect style="fill:none;" width="850.394" height="850.394"/>
</svg>
