<?xml version="1.0" encoding="iso-8859-1"?>
<!-- Generator: Adobe Illustrator 12.0.1, SVG Export Plug-In . SVG Version: 6.00 Build 51448)  -->
<!DOCTYPE svg PUBLIC "-//W3C//DTD SVG 1.1//EN" "http://www.w3.org/Graphics/SVG/1.1/DTD/svg11.dtd" [
	<!ENTITY ns_svg "http://www.w3.org/2000/svg">
	<!ENTITY ns_xlink "http://www.w3.org/1999/xlink">
]>
<svg  version="1.1" id="Layer_1" xmlns="&ns_svg;" xmlns:xlink="&ns_xlink;" width="850.394" height="850.394"
	 viewBox="0 0 850.394 850.394" style="overflow:visible;enable-background:new 0 0 850.394 850.394;" xml:space="preserve">
<g id="XMLID_17_">
	<g>
		<path style="fill:#FBED24;" d="M100.75,379.69c-0.46,1.57-19.32,67.12,44.17,111.24c64.25,44.66,189.49,93.66,216.72,105.641
			c27.23,11.979,70.28,52.109,81.57,74.29v0.01c-18.11-9.21-34.94-18.18-49.99-25.29c-59.9-28.311-198.21-87.12-198.21-87.12
			c-118.7-50.1-117.69-117.83-113.26-150.3c4.38-32.06,23.34-39.62,23.94-39.84c-1.83,4.43-3.5,8.23-4.93,11.34
			C100.76,379.66,100.76,379.67,100.75,379.69z"/>
		<path style="fill:#FBED24;" d="M686.19,468.07c0,0,19.06,20.149,35.93,37.02c29.95,29.95,53.36,56.63,45.74,107.82
			c-6.42,43.08-58.811,88.21-142.67,103.46c-62.78,11.41-128.021-18.08-181.98-45.5v-0.01c-11.29-22.181-54.34-62.311-81.57-74.29
			c-27.23-11.98-152.47-60.98-216.72-105.641c-63.49-44.12-44.63-109.67-44.17-111.24c0.01-0.02,0.01-0.03,0.01-0.03
			c1.43-3.11,3.1-6.91,4.93-11.34c0.01-0.01,0.01-0.01,0.01-0.01c5.2-12.58,11.7-30.23,17.44-51.63
			c11.98-44.65,60.23-130.19,130.14-162.81c73.51-34.31,170.98-22.87,218.9-5.45c47.92,17.43,130.141,60.44,173.17,150.3
			C645.35,298.72,686.19,376.58,686.19,468.07z"/>
	</g>
	<g>
		<path style="fill:none;stroke:#000000;stroke-width:21;" d="M100.75,379.69c-2.96,6.47-4.84,9.96-4.84,9.96"/>
		<path style="fill:none;stroke:#000000;stroke-width:21;" d="M105.69,368.32c-1.83,4.43-3.5,8.23-4.93,11.34"/>
		<path style="fill:none;stroke:#000000;stroke-width:21;" d="M105.7,368.31c0,0,0,0-0.01,0.01c-0.6,0.22-19.56,7.78-23.94,39.84
			c-4.43,32.47-5.44,100.2,113.26,150.3c0,0,138.31,58.81,198.21,87.12c15.05,7.11,31.88,16.08,49.99,25.29
			c53.96,27.42,119.2,56.91,181.98,45.5c83.859-15.25,136.25-60.38,142.67-103.46c7.62-51.19-15.79-77.87-45.74-107.82
			c-16.87-16.87-35.93-37.02-35.93-37.02c0-91.49-40.841-169.35-40.841-169.35c-43.029-89.86-125.25-132.87-173.17-150.3
			c-47.92-17.42-145.39-28.86-218.9,5.45c-69.91,32.62-118.16,118.16-130.14,162.81C117.4,338.08,110.9,355.73,105.7,368.31"/>
		<path style="fill:none;stroke:#000000;stroke-width:21;" d="M100.76,379.66c0,0,0,0.01-0.01,0.03
			c-0.46,1.57-19.32,67.12,44.17,111.24c64.25,44.66,189.49,93.66,216.72,105.641c27.23,11.979,70.28,52.109,81.57,74.29"/>
		<path style="fill:none;stroke:#000000;stroke-width:21;" d="M686.19,468.07c0,0,8.109,49.25-72.971,95.83
			c-51.189,29.399-126.33,4.35-126.33,4.35"/>
		<path style="fill:none;stroke:#000000;stroke-width:21;" d="M195.07,196.94c0,0,228.99-62.82,343,102.32
			c31.58,45.74,50.1,102.37,50.1,102.37"/>
	</g>
</g>
<rect style="fill:none;" width="850.394" height="850.394"/>
</svg>
