<?xml version="1.0" encoding="iso-8859-1"?>
<!-- Generator: Adobe Illustrator 12.0.1, SVG Export Plug-In . SVG Version: 6.00 Build 51448)  -->
<!DOCTYPE svg PUBLIC "-//W3C//DTD SVG 1.1//EN" "http://www.w3.org/Graphics/SVG/1.1/DTD/svg11.dtd" [
	<!ENTITY ns_svg "http://www.w3.org/2000/svg">
	<!ENTITY ns_xlink "http://www.w3.org/1999/xlink">
]>
<svg  version="1.1" id="Layer_1" xmlns="&ns_svg;" xmlns:xlink="&ns_xlink;" width="850.394" height="850.394"
	 viewBox="0 0 850.394 850.394" style="overflow:visible;enable-background:new 0 0 850.394 850.394;" xml:space="preserve">
<g id="XMLID_1_">
	<g>
		<polygon style="fill:#FFFFFF;" points="533.02,226.61 533.4,236.05 452.06,304.94 452.06,290.39 		"/>
		<polygon style="fill:#FFFFFF;" points="532.56,215.5 533.02,226.61 452.06,290.39 452.06,277.27 		"/>
		<polygon style="fill:#C8C8C8;" points="533.46,237.39 472.28,288.16 452.06,304.94 533.4,236.05 		"/>
		<path style="fill:#C8C8C8;" d="M674.15,379.89c-3.511,0-6.341,2.84-6.341,6.34s2.83,6.34,6.341,6.34c3.5,0,6.33-2.84,6.33-6.34
			S677.65,379.89,674.15,379.89z M659.84,392.66c3.5,0,6.33-2.84,6.33-6.34c0-3.49-2.83-6.34-6.33-6.34s-6.33,2.85-6.33,6.34
			C653.51,389.82,656.34,392.66,659.84,392.66z M696.52,231.01v155.07c0,8.57-6.949,15.51-15.52,15.51H467.57
			c-8.58,0-15.511-6.94-15.511-15.51v-81.14l20.221-16.78l2.87,3.45v78.97H674.01V237.39H533.46l-0.06-1.34l24.27-20.55h16.271
			h20.939H681C689.57,215.5,696.52,222.45,696.52,231.01z"/>
		<polygon style="fill:#FFFFFF;" points="475.15,291.61 472.28,288.16 533.46,237.39 674.01,237.39 674.01,370.58 475.15,370.58 		
			"/>
		<path style="fill:#A3D9FF;" d="M278.34,412.83c3.51-1.86,7.05-3.1,10.58-3.25l0.35,0.02c-0.07,1.65-0.09,3.29-0.13,4.9
			c-0.71-1.03-1.75-1.68-2.9-1.68c-2.16,0-3.92,2.28-3.92,5.1c0,2.82,1.76,5.11,3.92,5.11c0.91,0,1.76-0.41,2.42-1.1
			c-0.32,2.21-0.88,4.23-1.89,5.94l-0.03-0.021c-3.26,1.25-8.73,0.771-10.48-1.91c-3.02-4.61-1.21-9.31,2.11-13.05L278.34,412.83z"
			/>
		<path style="fill:#FFEEC8;" d="M289.27,409.6l-0.35-0.02c-3.53,0.15-7.07,1.39-10.58,3.25c-10.28,5.45-20.29,16.29-29.13,21.01
			c5.98-0.01,26.15,1.23,32.84-1.8c2.18-0.99,3.68-2.42,4.72-4.17c1.01-1.71,1.57-3.73,1.89-5.94c0.91-0.93,1.5-2.38,1.5-4.01
			c0-1.32-0.38-2.51-1.02-3.42C289.18,412.89,289.2,411.25,289.27,409.6z M177.05,491.89c-7.61,0.73-15.12-9.13-15.52-14.409
			c-0.89-11.82,2.31-17.521-4.67-33.021c-2.86-6.37-4.27-19.14,6.16-20.96c3.95-0.69,7.43,0.24,10.32,2.16l0.78-0.36
			c11.17,0.05,21.74,5.851,30.92-1.07c7.6-5.74,12.26-23.03,17.31-31.25c15.93-25.92,23.07-39.65,80.77-45.99
			c9.05,10.24,10.17,23.7,8.66,38.6c-1.95,19.29,6.24,24.22,20.14,38.12c4.34,4.34,11.78,11.97,12.76,18.26
			c2.21,14.08-13.35,8.48-17.47,17.37c-3.42,7.37,5.21,14.72,0.81,21.37c-1.03,1.56-3.45,2.42-6.4,2.96l5.27,2.29
			c5.79,2.58,3.27,11.07-2.41,11.07c-0.28,0-2.82,4.029-2.59,5.989c0.35,2.82,3.24,7.761,3.97,9.511
			c4.75,11.45-2.42,19.149-8.56,20.569c-10.84,2.5-23.56,5.181-32.69,12.771c-10.97,9.12-11.32,23.01-11.23,36.12L272,582
			l-47.63,3.01c-21.54-16.35-48.07-23.8-72.49-17.63c5.85-11.24,2.66-27.76,4.75-39.96l-2.84-0.3
			C165.79,521.01,174.58,502.33,177.05,491.89z"/>
		<path style="fill:#C8C8C8;" d="M772.7,611.28c1.54,11.91-5.851,13.069-13.061,13.069h-14.81h-6.561H390.7
			c-7.21,0-14.6-1.159-13.06-13.06l12.29-47.61c1.87-9.1,5.84-13.069,13.07-13.069h15.45H730.7h5.26h7.33h4.06
			c7.221,0,11.2,3.97,13.061,13.05L772.7,611.28z"/>
		<polygon style="fill:#787878;" points="772.57,624.35 772.57,650.47 377.92,650.47 377.92,624.35 390.7,624.35 738.27,624.35 
			744.83,624.35 759.64,624.35 		"/>
		<path style="fill:#787878;" d="M730.7,546.2v4.41H418.45v-4.41V441.34h112.34h87.58H730.7V546.2z M703.63,520.28v-17.29h-96.22
			v17.29H703.63z M703.63,481.67v-17.29h-59.92v17.29H703.63z"/>
		<rect x="607.41" y="502.99" style="fill:#FFFFFF;" width="96.22" height="17.29"/>
		<rect x="643.71" y="464.38" style="fill:#FFFFFF;" width="59.92" height="17.29"/>
		<path style="fill:#231F20;" d="M674.15,379.89c3.5,0,6.33,2.84,6.33,6.34s-2.83,6.34-6.33,6.34c-3.511,0-6.341-2.84-6.341-6.34
			S670.64,379.89,674.15,379.89z"/>
		<path style="fill:#231F20;" d="M659.84,379.98c3.5,0,6.33,2.85,6.33,6.34c0,3.5-2.83,6.34-6.33,6.34s-6.33-2.84-6.33-6.34
			C653.51,382.83,656.34,379.98,659.84,379.98z"/>
		<path style="fill:#FF001C;" d="M607.95,200.91v1.53c0,7.21-5.86,13.06-13.07,13.06H573.94v-3.7c3.359,0,6.09-4.44,6.09-9.92
			c0-4.2-1.61-7.8-3.88-9.24l3.88-3.06v-1.73h14.85C602.09,187.85,607.95,193.7,607.95,200.91z"/>
		<path style="fill:#FF001C;" d="M580.03,187.85v1.73l-3.88,3.06c-0.681-0.44-1.431-0.68-2.21-0.68c-2.73,0-5.051,2.95-5.811,7
			L548.4,214.5c-4.73-1.96-8.051-6.63-8.051-12.06v-1.53c0-7.21,5.851-13.06,13.061-13.06H580.03z"/>
		<path style="fill:#231F20;" d="M576.15,192.64c2.27,1.44,3.88,5.04,3.88,9.24c0,5.48-2.73,9.92-6.09,9.92
			c-3.351,0-6.08-4.44-6.08-9.92c0-1.02,0.09-2,0.27-2.92L576.15,192.64z"/>
		<path style="fill:#231F20;" d="M576.15,192.64l-8.021,6.32c0.76-4.05,3.08-7,5.811-7C574.72,191.96,575.47,192.2,576.15,192.64z"
			/>
		<path style="fill:#FFFFFF;" d="M573.94,211.8v3.7H557.67h-4.26c-1.78,0-3.47-0.35-5.01-1l19.729-15.54
			c-0.18,0.92-0.27,1.9-0.27,2.92C567.86,207.36,570.59,211.8,573.94,211.8z"/>
		<path style="fill:#C8C8C8;" d="M532.56,215.5l-80.5,61.77v-46.26c0-8.56,6.931-15.51,15.511-15.51H532.56z M475.15,256.77
			l28.71-19.38h-28.71V256.77z"/>
		<polygon style="fill:#FFFFFF;" points="503.86,237.39 475.15,256.77 475.15,237.39 		"/>
		<path style="fill:#9C5B16;" d="M281.64,298.99c16.41,7.85,37.44,29.63,34.11,49.5c-5.81-0.12-6.93-1.01-13.03-1.95
			c0.14,0.15,0.27,0.3,0.4,0.45c-57.7,6.34-64.84,20.07-80.77,45.99c-5.05,8.22-9.71,25.51-17.31,31.25
			c-9.18,6.92-19.75,1.12-30.92,1.07l-0.78,0.36c-2.89-1.92-6.37-2.85-10.32-2.16c-10.43,1.82-9.02,14.59-6.16,20.96
			c6.98,15.5,3.78,21.2,4.67,33.021c0.4,5.279,7.91,15.14,15.52,14.409c-2.47,10.44-11.26,29.12-23.26,35.23
			c-4.8,2.45-10.12,2.88-15.75-0.03c-13-50.68-75.47-93.47-58.96-152.85c14.73-52.95,30.27-71.81,85.11-85.11
			C193.46,282.03,253.47,285.52,281.64,298.99z"/>
		<path style="fill:#231F20;" d="M289.14,414.5c0.64,0.91,1.02,2.1,1.02,3.42c0,1.63-0.59,3.08-1.5,4.01
			C289.01,419.62,289.09,417.1,289.14,414.5z"/>
		<path style="fill:#231F20;" d="M286.24,412.82c1.15,0,2.19,0.65,2.9,1.68c-0.05,2.6-0.13,5.12-0.48,7.43
			c-0.66,0.69-1.51,1.1-2.42,1.1c-2.16,0-3.92-2.29-3.92-5.11C282.32,415.1,284.08,412.82,286.24,412.82z"/>
		<path style="fill:#FFFFFF;" d="M286.74,427.85l0.03,0.021c-1.04,1.75-2.54,3.18-4.72,4.17c-6.69,3.03-26.86,1.79-32.84,1.8
			c8.84-4.72,18.85-15.56,29.13-21.01l0.03,0.06c-3.32,3.74-5.13,8.44-2.11,13.05C278.01,428.62,283.48,429.1,286.74,427.85z"/>
	</g>
	<g>
		<path style="fill:none;stroke:#231F20;stroke-width:21;" d="M452.06,277.27v-46.26c0-8.56,6.931-15.51,15.511-15.51h64.989"/>
		<path style="fill:none;stroke:#231F20;stroke-width:21;" d="M594.88,215.5H681c8.57,0,15.52,6.95,15.52,15.51v155.07
			c0,8.57-6.949,15.51-15.52,15.51H467.57c-8.58,0-15.511-6.94-15.511-15.51v-81.14"/>
		<polyline style="fill:none;stroke:#231F20;stroke-width:14;" points="533.46,237.39 674.01,237.39 674.01,370.58 475.15,370.58 
			475.15,291.61 		"/>
		<polyline style="fill:none;stroke:#231F20;stroke-width:12.8682;" points="475.15,256.77 475.15,237.39 503.86,237.39 		"/>
		<polyline style="fill:none;stroke:#231F20;stroke-width:21;" points="530.79,441.34 530.79,408.51 618.37,408.51 618.37,441.34 		
			"/>
		<polyline style="fill:none;stroke:#231F20;stroke-width:21;" points="418.45,546.2 418.45,441.34 530.79,441.34 618.37,441.34 
			730.7,441.34 730.7,546.2 		"/>
		<rect x="607.41" y="502.99" style="fill:none;stroke:#231F20;stroke-width:14;" width="96.22" height="17.29"/>
		<rect x="643.71" y="464.38" style="fill:none;stroke:#231F20;stroke-width:14;" width="59.92" height="17.29"/>
		<path style="fill:none;stroke:#231F20;stroke-width:21;" d="M390.7,624.35c-7.21,0-14.6-1.159-13.06-13.06l12.29-47.61
			c1.87-9.1,5.84-13.069,13.07-13.069h15.45H730.7h5.26"/>
		<path style="fill:none;stroke:#231F20;stroke-width:21;" d="M759.64,624.35c7.21,0,14.601-1.159,13.061-13.069l-12.29-47.62
			c-1.86-9.08-5.84-13.05-13.061-13.05h-4.06h-7.33"/>
		
			<line style="fill:none;stroke:#231F20;stroke-width:14;stroke-dasharray:19.3023;" x1="415.76" y1="570.19" x2="734.56" y2="570.19"/>
		
			<line style="fill:none;stroke:#231F20;stroke-width:14;stroke-dasharray:19.3023;" x1="415.76" y1="588.62" x2="734.56" y2="588.62"/>
		
			<line style="fill:none;stroke:#231F20;stroke-width:14;stroke-dasharray:19.3023;" x1="664.45" y1="608.99" x2="743.77" y2="608.99"/>
		<line style="fill:none;stroke:#231F20;stroke-width:14;" x1="490.46" y1="608.99" x2="655.24" y2="608.99"/>
		
			<line style="fill:none;stroke:#231F20;stroke-width:14;stroke-dasharray:19.3023;" x1="415.76" y1="608.99" x2="490.46" y2="608.99"/>
		<polygon style="fill:none;stroke:#231F20;stroke-width:21;" points="759.64,624.35 772.57,624.35 772.57,650.47 377.92,650.47 
			377.92,624.35 390.7,624.35 738.27,624.35 744.83,624.35 		"/>
		<path style="fill:none;stroke:#231F20;stroke-width:21;" d="M580.03,187.85h14.85c7.21,0,13.07,5.85,13.07,13.06v1.53
			c0,7.21-5.86,13.06-13.07,13.06H573.94H557.67h-4.26c-1.78,0-3.47-0.35-5.01-1c-4.73-1.96-8.051-6.63-8.051-12.06v-1.53
			c0-7.21,5.851-13.06,13.061-13.06H580.03z"/>
		<path style="fill:none;stroke:#231F20;stroke-width:14;" d="M576.15,192.64c2.27,1.44,3.88,5.04,3.88,9.24
			c0,5.48-2.73,9.92-6.09,9.92c-3.351,0-6.08-4.44-6.08-9.92c0-1.02,0.09-2,0.27-2.92c0.76-4.05,3.08-7,5.811-7
			C574.72,191.96,575.47,192.2,576.15,192.64z"/>
		<path style="fill:none;stroke:#231F20;stroke-width:14;" d="M182.05,447.45c1.6-7.12-1.87-17.23-8.71-21.79
			c-2.89-1.92-6.37-2.85-10.32-2.16c-10.43,1.82-9.02,14.59-6.16,20.96c6.98,15.5,3.78,21.2,4.67,33.021
			c0.4,5.279,7.91,15.14,15.52,14.409c1.93-0.18,3.87-1.05,5.7-2.85"/>
		<path style="fill:none;stroke:#231F20;stroke-width:14;" d="M302.72,346.54c0.14,0.15,0.27,0.3,0.4,0.45
			c9.05,10.24,10.17,23.7,8.66,38.6c-1.95,19.29,6.24,24.22,20.14,38.12c4.34,4.34,11.78,11.97,12.76,18.26
			c2.21,14.08-13.35,8.48-17.47,17.37c-3.42,7.37,5.21,14.72,0.81,21.37c-1.03,1.56-3.45,2.42-6.4,2.96
			c-5.64,1.04-13.2,0.92-16.72,2.29"/>
		<path style="fill:none;stroke:#231F20;stroke-width:14;" d="M326.89,485.96c5.79,2.58,3.27,11.07-2.41,11.07
			c-0.28,0-2.82,4.029-2.59,5.989c0.35,2.82,3.24,7.761,3.97,9.511c4.75,11.45-2.42,19.149-8.56,20.569
			c-10.84,2.5-23.56,5.181-32.69,12.771c-10.97,9.12-11.32,23.01-11.23,36.12c0.01,1.81,0.03,3.609,0.03,5.37"/>
		<path style="fill:none;stroke:#231F20;stroke-width:7;" d="M288.66,421.93c-0.32,2.21-0.88,4.23-1.89,5.94
			c-1.04,1.75-2.54,3.18-4.72,4.17c-6.69,3.03-26.86,1.79-32.84,1.8c8.84-4.72,18.85-15.56,29.13-21.01
			c3.51-1.86,7.05-3.1,10.58-3.25"/>
		<path style="fill:none;stroke:#231F20;stroke-width:7;" d="M290.25,401.65c-0.62,2.55-0.86,5.25-0.98,7.95
			c-0.07,1.65-0.09,3.29-0.13,4.9"/>
		<path style="fill:none;stroke:#231F20;stroke-width:14;" d="M304.32,346.86c-0.4,0.04-0.8,0.09-1.2,0.13
			c-57.7,6.34-64.84,20.07-80.77,45.99c-5.05,8.22-9.71,25.51-17.31,31.25c-9.18,6.92-19.75,1.12-30.92,1.07"/>
		<path style="fill:none;stroke:#231F20;stroke-width:14;" d="M302.72,346.54c6.1,0.94,7.22,1.83,13.03,1.95
			c3.33-19.87-17.7-41.65-34.11-49.5c-28.17-13.47-88.18-16.96-117.45-9.86c-54.84,13.3-70.38,32.16-85.11,85.11
			c-16.51,59.38,45.96,102.17,58.96,152.85c5.63,2.91,10.95,2.48,15.75,0.03c12-6.11,20.79-24.79,23.26-35.23
			c0.01-0.01,0.01-0.02,0.01-0.029"/>
		<path style="fill:none;stroke:#231F20;stroke-width:7;stroke-linecap:round;stroke-linejoin:round;" d="M289.06,392.22
			c0,0-8.04-4.99-23.85,3.29c-9.21,4.83-14,10.03-17.03,14.08"/>
		<path style="fill:none;stroke:#231F20;stroke-width:14;" d="M156.63,527.42c-2.09,12.2,1.1,28.72-4.75,39.96
			c-0.28,0.561-0.59,1.11-0.93,1.65"/>
		<path style="fill:none;stroke:#231F20;stroke-width:6.4341;" d="M278.37,412.89c-3.32,3.74-5.13,8.44-2.11,13.05
			c1.75,2.68,7.22,3.16,10.48,1.91"/>
		<path style="fill:none;stroke:#231F20;stroke-width:14;" d="M224.37,585.01c-21.54-16.35-48.07-23.8-72.49-17.63
			c-25.01,6.311-47.8,26.9-60.76,66.83"/>
		<polyline style="fill:none;stroke:#231F20;stroke-width:14;stroke-dasharray:12.8682;" points="326.19,389.54 452.06,290.39 
			533.02,226.61 548.4,214.5 568.13,198.96 576.15,192.64 580.03,189.58 		"/>
	</g>
</g>
<rect style="fill:none;" width="850.394" height="850.394"/>
<g id="XMLID_2_">
	<g>
	</g>
	<g>
	</g>
</g>
<line style="fill:none;" x1="442" y1="268" x2="440" y2="312"/>
</svg>
