<?xml version="1.0" encoding="iso-8859-1"?>
<!-- Generator: Adobe Illustrator 12.0.1, SVG Export Plug-In . SVG Version: 6.00 Build 51448)  -->
<!DOCTYPE svg PUBLIC "-//W3C//DTD SVG 1.1//EN" "http://www.w3.org/Graphics/SVG/1.1/DTD/svg11.dtd" [
	<!ENTITY ns_svg "http://www.w3.org/2000/svg">
	<!ENTITY ns_xlink "http://www.w3.org/1999/xlink">
]>
<svg  version="1.1" id="Layer_1" xmlns="&ns_svg;" xmlns:xlink="&ns_xlink;" width="850.394" height="850.394"
	 viewBox="0 0 850.394 850.394" style="overflow:visible;enable-background:new 0 0 850.394 850.394;" xml:space="preserve">
<g id="XMLID_700_">
	<g>
		<path style="fill:#FFFFFF;" d="M549.4,417.02c2.68,0,4.88,19.53,4.88,43.6c0,24.08-2.2,43.62-4.88,43.62
			c-0.69,0-1.311-1.101-1.86-3.16c0.21-1.1,0.34-2.271,0.34-3.521v-75.8c0-0.75-0.07-1.44-0.13-2.13
			C548.23,417.91,548.78,417.02,549.4,417.02z"/>
		<path style="fill:#FFFFFF;" d="M547.88,421.76v75.8c0,1.25-0.13,2.421-0.34,3.521c-1.86-6.47-3.1-22.16-3.1-40.46
			c0-18.84,1.38-34.87,3.31-40.99C547.81,420.32,547.88,421.01,547.88,421.76z"/>
		<path d="M547.75,419.63c-1.93,6.12-3.31,22.15-3.31,40.99c0,18.3,1.239,33.99,3.1,40.46c-1.38,7.42-6.95,13-13.55,13h-28.82
			c-7.63,0-13.83-7.43-13.83-16.521v-75.8c0-9.08,6.2-16.51,13.83-16.51h28.82C541,405.25,546.85,411.51,547.75,419.63z"/>
		<path d="M175.13,422.38v75.8c0,9.15-6.26,16.511-13.89,16.511h-28.82c-7.64,0-13.83-7.36-13.83-16.511V473.49
			c0.75,15.62,2.47,26.62,4.54,26.62c2.68,0,4.95-19.53,4.95-43.61c0-24.01-2.27-43.54-4.95-43.54c-2.07,0-3.79,11-4.54,26.62v-17.2
			c0-9.08,6.19-16.43,13.83-16.43h28.82C168.87,405.95,175.13,413.3,175.13,422.38z"/>
		<path style="fill:#FFFFFF;" d="M123.13,412.96c2.68,0,4.95,19.53,4.95,43.54c0,24.08-2.27,43.61-4.95,43.61
			c-2.07,0-3.79-11-4.54-26.62v-33.91C119.34,423.96,121.06,412.96,123.13,412.96z"/>
		<path style="fill:#FFFFFF;" d="M118.59,439.58v33.91c-0.28-5.23-0.41-10.94-0.41-16.99C118.18,450.51,118.31,444.81,118.59,439.58
			z"/>
	</g>
	<g>
		<path style="fill:none;stroke:#000000;stroke-width:36.7462;stroke-linecap:round;stroke-linejoin:round;" d="M125.26,523.98
			c-22.01-44.36-34.67-96.301-34.67-151.811c0-163.02,109.03-295.16,243.44-295.16c134.47,0,243.43,132.14,243.43,295.16
			c0,55.51-12.66,107.51-34.6,151.88"/>
		<path style="fill:none;stroke:#000000;stroke-width:36.7462;stroke-linecap:round;stroke-linejoin:round;" d="M118.59,439.58
			v-17.2c0-9.08,6.19-16.43,13.83-16.43h28.82c7.63,0,13.89,7.35,13.89,16.43v75.8c0,9.15-6.26,16.511-13.89,16.511h-28.82
			c-7.64,0-13.83-7.36-13.83-16.511V473.49"/>
		<path style="fill:none;stroke:#000000;stroke-width:36.7462;stroke-linecap:round;stroke-linejoin:round;" d="M547.54,501.08
			c-1.38,7.42-6.95,13-13.55,13h-28.82c-7.63,0-13.83-7.43-13.83-16.521v-75.8c0-9.08,6.2-16.51,13.83-16.51h28.82
			c7.01,0,12.859,6.26,13.76,14.38"/>
		<path style="fill:none;stroke:#A3D9FF;stroke-width:14.6985;stroke-linecap:round;stroke-linejoin:round;" d="M547.75,419.63
			c0.48-1.72,1.03-2.61,1.65-2.61c2.68,0,4.88,19.53,4.88,43.6c0,24.08-2.2,43.62-4.88,43.62c-0.69,0-1.311-1.101-1.86-3.16
			c-1.86-6.47-3.1-22.16-3.1-40.46C544.44,441.78,545.82,425.75,547.75,419.63z"/>
		<path style="fill:none;stroke:#A3D9FF;stroke-width:14.6985;stroke-linecap:round;stroke-linejoin:round;" d="M118.59,439.58
			c0.75-15.62,2.47-26.62,4.54-26.62c2.68,0,4.95,19.53,4.95,43.54c0,24.08-2.27,43.61-4.95,43.61c-2.07,0-3.79-11-4.54-26.62
			c-0.28-5.23-0.41-10.94-0.41-16.99C118.18,450.51,118.31,444.81,118.59,439.58z"/>
		<path style="fill:none;stroke:#000000;stroke-width:15;stroke-linecap:round;stroke-linejoin:round;" d="M125.26,535.1
			c0,0,22.86,87.011,151.87,114.011c129.01,27,132.01-57.011,303.03-15c99.53,24.439,133.12,56.59,140.189,81.22
			c5.091,17.689-3.51,31.51-11.18,35.79c-102.01,57-195.02-24-300.03-9c-80.19,11.46-129.01-105.01-234.02-69.01
			c-105.01,36-39.01,102.01-39.01,102.01"/>
		<path style="fill:none;stroke:#000000;stroke-width:15;stroke-linecap:round;stroke-linejoin:round;" d="M544.16,538.1
			c0,0,3,45,51,60c48,15.011,136.34,81.46,125.189,117.23c0,0.01,0,0.01,0,0.02"/>
		<polyline style="fill:none;stroke:#000000;stroke-width:37;stroke-linecap:round;stroke-linejoin:round;" points="139.44,775.82 
			160.69,805.67 177.08,796.07 		"/>
	</g>
</g>
<rect style="fill:none;" width="850.394" height="850.394"/>
</svg>
