<?xml version="1.0" encoding="iso-8859-1"?>
<!-- Generator: Adobe Illustrator 12.0.1, SVG Export Plug-In . SVG Version: 6.00 Build 51448)  -->
<!DOCTYPE svg PUBLIC "-//W3C//DTD SVG 1.1//EN" "http://www.w3.org/Graphics/SVG/1.1/DTD/svg11.dtd" [
	<!ENTITY ns_svg "http://www.w3.org/2000/svg">
	<!ENTITY ns_xlink "http://www.w3.org/1999/xlink">
]>
<svg  version="1.1" id="Layer_1" xmlns="&ns_svg;" xmlns:xlink="&ns_xlink;" width="850.394" height="850.394"
	 viewBox="0 0 850.394 850.394" style="overflow:visible;enable-background:new 0 0 850.394 850.394;" xml:space="preserve">
<g id="XMLID_5_">
	<g>
		<path style="fill:#0B00EA;" d="M229.16,618.91l-3.31,17.29l-2.65-0.51l-31.04-10.5l-28.28-9.58L132.7,605.06l-3.48,10.28
			c4.24-19.06,9.43-44.46,13.81-72.17c13.48-85.13,41.04-241.91,41.04-241.91s16.53-72.27,39.19-85.13
			c13.88-7.88,44.12-18.39,68.65-28.53l0.29-0.43c68.62,46.64,146.02,87.38,149.7,203.57v10.31c-0.221,6.91-0.221,14.07,0,21.47
			v348.86H407.34H223.26l5.91-152.47H229.16z M362.9,658.31v-27.56H237.96v27.56H362.9z"/>
		<path style="fill:#0B00EA;" d="M634.48,614.74h-0.011l4.03,156.64H456.6H441.9V422.52v-14.09c0.109-3.67,0.159-7.28,0.13-10.81
			c4.76-111.98,66.84-161.84,131.279-209.46l0.12,0.17c24.25,9.85,54.91,20.55,68.28,28.14c22.66,12.86,39.19,85.13,39.19,85.13
			s27.56,156.78,41.04,241.919c5.6,35.351,13.56,71.511,18.13,90.95L732.8,613l-31.17,10.55l-28.3,9.57l-31.03,10.5l-2.28,0.43
			L634.48,614.74z M629.31,658.31v-27.56H504.37v27.56H629.31z"/>
		<path style="fill:#F73900;" d="M573.31,188.16c-64.439,47.62-126.52,97.48-131.279,209.46c-0.011-2.32-0.05-4.62-0.13-6.88v-94.38
			c0-25.12,12.859-66.42,25.729-87.85c7.15-11.92,15.83-30.96,20.89-52.24c4.04-17.01,5.761-35.45,2.53-52.83
			c-0.46-2.5-1.43-4.75-2.78-6.76c56.561,22.86,90.181,65.93,107.091,75.19C588.03,177.33,580.66,182.73,573.31,188.16z"/>
		<path style="fill:#F73900;" d="M376.62,154.27c7.58,25.98,21.93,49.42,29.76,62.47c12.86,21.43,35.521,48.38,35.521,73.49v6.13
			v94.38c-3.681-116.19-81.081-156.93-149.7-203.57c-7.58-5.16-15.05-10.38-22.31-15.79c16.96-9.3,50.74-52.62,107.63-75.42
			c-1.68,2.1-2.92,4.47-3.6,7.14C369.66,119.82,371.74,137.57,376.62,154.27z"/>
		<path style="fill:#F73900;" d="M377.52,95.96c13.62-17.15,55.81-16.75,55.81-16.75s42.92-0.43,54.939,17.47
			c1.351,2.01,2.32,4.26,2.78,6.76c3.23,17.38,1.51,35.82-2.53,52.83l-0.68-0.16c-13.03-11.42-32.51-16.43-50.729-17.16
			c-11.18-0.45-22.9,0.9-33.82,3.09c-10.12,2.02-17.7,7-26.15,12.08l-0.52,0.15c-4.88-16.7-6.96-34.45-2.7-51.17
			C374.6,100.43,375.84,98.06,377.52,95.96z"/>
		<path style="fill:#0B00EA;" d="M377.14,154.12c8.45-5.08,16.03-10.06,26.15-12.08c10.92-2.19,22.64-3.54,33.82-3.09
			c18.22,0.73,37.699,5.74,50.729,17.16l0.68,0.16c-5.06,21.28-13.739,40.32-20.89,52.24c-12.87,21.43-25.729,62.73-25.729,87.85
			v-6.13c0-25.11-22.66-52.06-35.521-73.49c-7.83-13.05-22.18-36.49-29.76-62.47L377.14,154.12z"/>
		<polygon style="fill:#F73900;" points="740.07,634.47 744.98,648.97 713.8,659.52 701.63,623.55 732.8,613 		"/>
		<polygon style="fill:#F73900;" points="701.63,623.55 713.8,659.52 685.51,669.09 673.33,633.12 		"/>
		<polygon style="fill:#F73900;" points="685.51,669.09 654.47,679.6 642.3,643.62 673.33,633.12 		"/>
		<rect x="504.37" y="630.75" style="fill:#F73900;" width="124.939" height="27.56"/>
		<rect x="237.96" y="630.75" style="fill:#F73900;" width="124.94" height="27.56"/>
		<polygon style="fill:#F73900;" points="223.2,635.69 211.03,671.66 180,661.16 180,661.15 192.16,625.19 		"/>
		<polygon style="fill:#F73900;" points="163.88,615.61 192.16,625.19 180,661.15 180,661.16 151.71,651.58 		"/>
		<polygon style="fill:#F73900;" points="129.22,615.36 129.22,615.34 132.7,605.06 163.88,615.61 151.71,651.58 120.53,641.03 		
			"/>
	</g>
	<g>
		<polyline style="fill:none;stroke:#000000;stroke-width:22.0479;" points="222.15,655.53 225.85,636.2 229.16,618.91 
			267.36,419.46 		"/>
		<path style="fill:none;stroke:#000000;stroke-width:22.0479;" d="M129.22,615.36c-1.54,6.88-2.95,12.93-4.15,17.97"/>
		<path style="fill:none;stroke:#000000;stroke-width:22.0479;" d="M291.91,187.6c-24.53,10.14-54.77,20.65-68.65,28.53
			c-22.66,12.86-39.19,85.13-39.19,85.13s-27.56,156.78-41.04,241.91c-4.38,27.71-9.57,53.11-13.81,72.17"/>
		<polyline style="fill:none;stroke:#000000;stroke-width:22.0479;" points="643.66,663.3 640.02,644.05 634.48,614.74 
			597.62,419.8 		"/>
		<path style="fill:none;stroke:#000000;stroke-width:22.0479;" d="M573.43,188.33c24.25,9.85,54.91,20.55,68.28,28.14
			c22.66,12.86,39.19,85.13,39.19,85.13s27.56,156.78,41.04,241.919c5.6,35.351,13.56,71.511,18.13,90.95"/>
		<path style="fill:none;stroke:#000000;stroke-width:22.0479;" d="M441.9,296.36c0-25.12,12.859-66.42,25.729-87.85
			c7.15-11.92,15.83-30.96,20.89-52.24c4.04-17.01,5.761-35.45,2.53-52.83c-0.46-2.5-1.43-4.75-2.78-6.76
			c-12.02-17.9-54.939-17.47-54.939-17.47s-42.19-0.4-55.81,16.75c-1.68,2.1-2.92,4.47-3.6,7.14c-4.26,16.72-2.18,34.47,2.7,51.17
			c7.58,25.98,21.93,49.42,29.76,62.47c12.86,21.43,35.521,48.38,35.521,73.49V296.36v94.38v10.31v7.38v14.09v348.86"/>
		<polyline style="fill:none;stroke:#000000;stroke-width:22.0479;" points="407.34,771.38 223.26,771.38 229.17,618.91 		"/>
		<polyline style="fill:none;stroke:#000000;stroke-width:22.0479;" points="407.34,771.38 441.9,771.38 456.6,771.38 638.5,771.38 
			634.47,614.74 		"/>
		<path style="fill:none;stroke:#000000;stroke-width:22.0479;" d="M377.54,95.95c-0.01,0-0.01,0.01-0.02,0.01
			c-56.89,22.8-90.67,66.12-107.63,75.42c7.26,5.41,14.73,10.63,22.31,15.79c68.62,46.64,146.02,87.38,149.7,203.57
			c0.08,2.26,0.119,4.56,0.13,6.88c0.029,3.53-0.021,7.14-0.13,10.81"/>
		<path style="fill:none;stroke:#000000;stroke-width:22.0479;" d="M487.7,96.45c0.189,0.08,0.38,0.15,0.569,0.23
			c56.561,22.86,90.181,65.93,107.091,75.19c-7.33,5.46-14.7,10.86-22.051,16.29c-64.439,47.62-126.52,97.48-131.279,209.46
			c-0.05,1.14-0.101,2.28-0.13,3.43c-0.221,6.91-0.221,14.07,0,21.47"/>
		<rect x="237.96" y="630.75" style="fill:none;stroke:#000000;stroke-width:22.0479;" width="124.94" height="27.56"/>
		<rect x="504.37" y="630.75" style="fill:none;stroke:#000000;stroke-width:22.0479;" width="124.939" height="27.56"/>
		<polygon style="fill:none;stroke:#000000;stroke-width:22.0479;" points="223.2,635.69 211.03,671.66 180,661.16 151.71,651.58 
			120.53,641.03 129.22,615.36 129.22,615.34 132.7,605.06 163.88,615.61 192.16,625.19 		"/>
		<line style="fill:none;stroke:#000000;stroke-width:14.6986;" x1="163.88" y1="615.61" x2="151.71" y2="651.58"/>
		<line style="fill:none;stroke:#000000;stroke-width:14.6986;" x1="192.16" y1="625.19" x2="180" y2="661.15"/>
		<polygon style="fill:none;stroke:#000000;stroke-width:22.0479;" points="642.3,643.62 654.47,679.6 685.51,669.09 713.8,659.52 
			744.98,648.97 740.07,634.47 732.8,613 701.63,623.55 673.33,633.12 		"/>
		<line style="fill:none;stroke:#000000;stroke-width:14.6986;" x1="701.63" y1="623.55" x2="713.8" y2="659.52"/>
		<line style="fill:none;stroke:#000000;stroke-width:14.6986;" x1="673.33" y1="633.12" x2="685.51" y2="669.09"/>
		<path style="fill:none;stroke:#000000;stroke-width:22.0479;" d="M377.14,154.12c8.45-5.08,16.03-10.06,26.15-12.08
			c10.92-2.19,22.64-3.54,33.82-3.09c18.22,0.73,37.699,5.74,50.729,17.16"/>
	</g>
</g>
<rect style="fill:none;" width="850.394" height="850.394"/>
</svg>
