<?xml version="1.0" encoding="iso-8859-1"?>
<!-- Generator: Adobe Illustrator 12.0.1, SVG Export Plug-In . SVG Version: 6.00 Build 51448)  -->
<!DOCTYPE svg PUBLIC "-//W3C//DTD SVG 1.1//EN" "http://www.w3.org/Graphics/SVG/1.1/DTD/svg11.dtd" [
	<!ENTITY ns_svg "http://www.w3.org/2000/svg">
	<!ENTITY ns_xlink "http://www.w3.org/1999/xlink">
]>
<svg  version="1.1" id="Layer_1" xmlns="&ns_svg;" xmlns:xlink="&ns_xlink;" width="850.394" height="850.394"
	 viewBox="0 0 850.394 850.394" style="overflow:visible;enable-background:new 0 0 850.394 850.394;" xml:space="preserve">
<g id="XMLID_7_">
	<g>
		<path style="fill:#33A02C;" d="M413.6,417.61l68.459-72.28l7.521-7.92l104.56-110.46l96.32-101.65l50.33-53.23
			c7.71-6.11,15.33-13.83,23.15-24.45l-0.2-1.61c3.51-0.3,6.319-0.7,8.52-1.3c-36.79,59.74-13.229,125.6-24.66,190.96
			C738.48,287.99,704.8,336.71,665.61,372c-46.32,41.5-130.721,83.9-187.36,109.56c-38.59,17.54-92.82,39.9-125.9,30.28
			c-3.91-1.109-7.62-2.62-10.82-4.72c-2.61-1.7-5.12-3.5-7.42-5.51L413.6,417.61z"/>
		<path style="fill:#FFFFFF;" d="M740.79,72.07l23.15-24.45C756.12,58.24,748.5,65.96,740.79,72.07z"/>
		<path style="fill:#33A02C;" d="M629.72,130.72c27.57-15.94,57.54-28.37,77.88-38.7c12.131-6.11,22.86-11.62,33.19-19.95
			l-50.33,53.23C670.01,122.5,648.97,123.7,629.72,130.72z"/>
		<path style="fill:#33A02C;" d="M594.14,226.95c-28.08,5.51-65.27,8.92-107.67,21.15h-0.09c0,0,0,0,0-0.1
			c29.061-31.68,68.26-66.76,123.89-105.16c6.221-4.3,12.73-8.32,19.45-12.12c19.25-7.02,40.29-8.22,60.74-5.42L594.14,226.95z"/>
		<path style="fill:#33A02C;" d="M408.39,357.56c16.43-27.66,34.98-59.84,66.76-96.73c3.5-4.21,7.21-8.42,11.229-12.73h0.09
			c42.4-12.23,79.59-15.64,107.67-21.15L489.58,337.41c-8.12,2.91-16.84,5.92-25.87,9.23c-0.09,0-0.19,0-0.29,0
			c-19.24,6.91-40.4,15.13-62.55,26.16l-1.11-0.7c1.21-2.01,2.51-4.11,3.82-6.32C405.18,363.08,406.78,360.37,408.39,357.56z"/>
		<path style="fill:#33A02C;" d="M368.89,431.94c14.33-30.771,7.42-20.55,30.87-59.84l1.11,0.7c22.15-11.03,43.31-19.25,62.55-26.16
			c0.1,0,0.2,0,0.29,0c6.12-1.01,12.24-1.41,18.35-1.31L413.6,417.61C398.36,420.81,383.53,425.62,368.89,431.94z"/>
		<path style="fill:#33A02C;" d="M475.15,260.83c-6.32-41.5-3.21-75.78-7.021-99.14c-3.61-22.85,8.32-45.31,4.91-66.46L446.38,81.6
			C549.62,29.57,661.19,51.62,680.64,49.72c36.591-3.51,66.771-2.4,83.101-3.71l0.2,1.61l-23.15,24.45
			c-10.33,8.33-21.06,13.84-33.19,19.95c-20.34,10.33-50.31,22.76-77.88,38.7c-6.72,3.8-13.229,7.82-19.45,12.12
			c-55.63,38.4-94.829,73.48-123.89,105.16c0,0.1,0,0.1,0,0.1C482.36,252.41,478.65,256.62,475.15,260.83z"/>
		<path style="fill:#33A02C;" d="M475.15,260.83c-31.78,36.89-50.331,69.07-66.76,96.73c-6.32-46.81-3.21-85.5-7.52-112.27
			c-4.31-27.26,5.11-79.89-13.74-98.64l-14.53-5.01c15.03-19.24,31.88-35.08,49.42-46.21c8.02-5.11,16.14-9.72,24.36-13.83
			l26.66,13.63c3.41,21.15-8.521,43.61-4.91,66.46C471.94,185.05,468.83,219.33,475.15,260.83z"/>
		<path style="fill:#FFFFFF;" d="M463.71,346.64c9.03-3.31,17.75-6.32,25.87-9.23l-7.521,7.92
			C475.95,345.23,469.83,345.63,463.71,346.64z"/>
		<path style="fill:#33A02C;" d="M413.6,417.61l-79.49,84c4.21-7.82,8.92-16.95,14.33-27.67c9.83-19.45,16.14-32.57,20.45-42
			C383.53,425.62,398.36,420.81,413.6,417.61z"/>
		<path style="fill:#33A02C;" d="M334.11,501.61c-4.32-3.61-8.22-7.82-11.63-12.63c-10.63-15.24-16.24-36.19-16.24-64.26
			c0-39.49-3.71-55.73,8.62-144.44c7.32-52.63,29.17-101.85,57.74-138.64l14.53,5.01c18.85,18.75,9.43,71.38,13.74,98.64
			c4.31,26.77,1.2,65.46,7.52,112.27c-1.61,2.81-3.21,5.52-4.81,8.22c-1.31,2.21-2.61,4.31-3.82,6.32
			c-23.45,39.29-16.54,29.07-30.87,59.84c-4.31,9.43-10.62,22.55-20.45,42C343.03,484.66,338.32,493.79,334.11,501.61z"/>
		<path style="fill:#33A02C;" d="M322.48,488.98c3.41,4.81,7.31,9.02,11.63,12.63c2.3,2.01,4.81,3.81,7.42,5.51
			c3.2,2.1,6.91,3.61,10.82,4.72c0,0-35.79,87.2-104.55,178.521c-53.73,71.279-117.38,125.31-117.38,125.31L76.19,780.48
			c40.39-33.181,40.39-26.471,110.56-96.641C274.36,596.24,288.5,554.24,322.48,488.98z"/>
	</g>
	<g>
		<path style="fill:none;stroke:#000000;stroke-width:24.1538;" d="M322.48,488.98c-10.63-15.24-16.24-36.19-16.24-64.26
			c0-39.49-3.71-55.73,8.62-144.44c7.32-52.63,29.17-101.85,57.74-138.64c15.03-19.24,31.88-35.08,49.42-46.21
			c8.02-5.11,16.14-9.72,24.36-13.83C549.62,29.57,661.19,51.62,680.64,49.72c36.591-3.51,66.771-2.4,83.101-3.71
			c3.51-0.3,6.319-0.7,8.52-1.3c-36.79,59.74-13.229,125.6-24.66,190.96C738.48,287.99,704.8,336.71,665.61,372
			c-46.32,41.5-130.721,83.9-187.36,109.56c-38.59,17.54-92.82,39.9-125.9,30.28c-3.91-1.109-7.62-2.62-10.82-4.72
			c-2.61-1.7-5.12-3.5-7.42-5.51C329.79,498,325.89,493.79,322.48,488.98z"/>
		<path style="fill:none;stroke:#000000;stroke-width:24.1538;" d="M334.11,501.61c4.21-7.82,8.92-16.95,14.33-27.67
			c9.83-19.45,16.14-32.57,20.45-42c14.33-30.771,7.42-20.55,30.87-59.84c1.21-2.01,2.51-4.11,3.82-6.32c1.6-2.7,3.2-5.41,4.81-8.22
			c16.43-27.66,34.98-59.84,66.76-96.73c3.5-4.21,7.21-8.42,11.229-12.73c0,0,0,0,0-0.1c29.061-31.68,68.26-66.76,123.89-105.16
			c6.221-4.3,12.73-8.32,19.45-12.12c27.57-15.94,57.54-28.37,77.88-38.7c12.131-6.11,22.86-11.62,33.19-19.95
			c7.71-6.11,15.33-13.83,23.15-24.45"/>
		<path style="fill:none;stroke:#000000;stroke-width:24.1538;" d="M322.48,488.98c-33.98,65.26-48.12,107.26-135.73,194.859
			c-70.17,70.17-70.17,63.46-110.56,96.641l54.23,35.189c0,0,63.65-54.03,117.38-125.31c68.76-91.32,104.55-178.521,104.55-178.521"
			/>
		<path style="fill:none;stroke:#000000;stroke-width:12.077;stroke-linecap:round;stroke-linejoin:round;" d="M475.34,262.33
			c-0.09-0.5-0.189-1-0.189-1.5c-6.32-41.5-3.21-75.78-7.021-99.14c-3.61-22.85,8.32-45.31,4.91-66.46"/>
		<path style="fill:none;stroke:#000000;stroke-width:12.077;stroke-linecap:round;stroke-linejoin:round;" d="M409.49,365.28
			c-0.4-2.6-0.8-5.21-1.1-7.72c-6.32-46.81-3.21-85.5-7.52-112.27c-4.31-27.26,5.11-79.89-13.74-98.64"/>
		<path style="fill:none;stroke:#000000;stroke-width:12.077;stroke-linecap:round;stroke-linejoin:round;" d="M463.71,346.64
			c9.03-3.31,17.75-6.32,25.87-9.23c15.64-5.41,29.38-10.42,40.59-16.03c28.58-14.34,62.96-7.92,89.32-21.36"/>
		<path style="fill:none;stroke:#000000;stroke-width:12.077;stroke-linecap:round;stroke-linejoin:round;" d="M400.87,372.8
			c22.15-11.03,43.31-19.25,62.55-26.16"/>
		<path style="fill:none;stroke:#000000;stroke-width:12.077;stroke-linecap:round;stroke-linejoin:round;" d="M463.42,346.64
			c0.1,0,0.2,0,0.29,0c6.12-1.01,12.24-1.41,18.35-1.31c23.36,0.21,46.12,6.62,65.36,11.53"/>
		<path style="fill:none;stroke:#000000;stroke-width:12.077;stroke-linecap:round;stroke-linejoin:round;" d="M486.47,248.1
			c42.4-12.23,79.59-15.64,107.67-21.15c6.11-1.21,11.721-2.51,16.83-4.01c27.87-8.22,57.84,3.11,83.601-4.61"/>
		<path style="fill:none;stroke:#000000;stroke-width:12.077;stroke-linecap:round;stroke-linejoin:round;" d="M584.11,153.67
			c2.8-19.24,11.02-58.14,1.3-76.48"/>
		<path style="fill:none;stroke:#000000;stroke-width:12.077;stroke-linecap:round;stroke-linejoin:round;" d="M612.28,138.93
			c5.6-3.4,11.42-6.11,17.439-8.21c19.25-7.02,40.29-8.22,60.74-5.42c3.41,0.4,6.92,0.9,10.33,1.61"/>
		<path style="fill:none;stroke:#000000;stroke-width:12.077;stroke-linecap:round;stroke-linejoin:round;" d="M362.07,434.85
			c2.31-1,4.52-2.01,6.82-2.909c14.64-6.32,29.47-11.13,44.71-14.331c16.54-3.71,33.38-5.52,50.52-5.52"/>
		<path style="fill:none;stroke:#000000;stroke-width:12.077;stroke-linecap:round;stroke-linejoin:round;" d="M361.27,443.57
			c-1.4-21.15-3.81-65.76-26.76-76.48"/>
	</g>
</g>
<rect style="fill:none;" width="850.394" height="850.394"/>
</svg>
