<?xml version="1.0" encoding="iso-8859-1"?>
<!-- Generator: Adobe Illustrator 12.0.1, SVG Export Plug-In . SVG Version: 6.00 Build 51448)  -->
<!DOCTYPE svg PUBLIC "-//W3C//DTD SVG 1.1//EN" "http://www.w3.org/Graphics/SVG/1.1/DTD/svg11.dtd" [
	<!ENTITY ns_svg "http://www.w3.org/2000/svg">
	<!ENTITY ns_xlink "http://www.w3.org/1999/xlink">
]>
<svg  version="1.1" id="Layer_1" xmlns="&ns_svg;" xmlns:xlink="&ns_xlink;" width="850.394" height="850.394"
	 viewBox="0 0 850.394 850.394" style="overflow:visible;enable-background:new 0 0 850.394 850.394;" xml:space="preserve">
<g id="XMLID_12_">
	<g>
		<path style="fill:#F6ED4D;" d="M739.81,607.25c-51.75,13.97-93.18,0.87-103.359-20.46c-10.57-22.15-27.15-10-18.57,9.42
			c8.561,19.43,4.57,30.29-13.14,32.57c-17.7,2.279-175.4,10.85-191.97,8.569c-16.57-2.279-15.71-12.279-15.14-28.279
			c0.03-0.92,0.16-1.78,0.36-2.59l-1.93-0.41c-8.64,3.42-22.46,1.85-31.56-2.141l-1.3-0.06c-4.73,7.52-9.52,13.27-14.13,16.06
			c-22.31,13.48-40.38,10.48-44.37,18.801c-0.41,0.84-0.67,1.8-0.77,2.899c-1.14,12-6.28,23.43-31.42,25.14
			c-25.14,1.721-50.63,4.131-45.13-33.13c1.39-9.39,3.31-16.55,5.94-22.26c7.14-15.49,19.47-20.439,40.33-30.88
			c6.26-3.13,12.28-6.59,17.85-10.08c3.37-1.07,6.04-2.96,8.24-5.38c0-0.01,0-0.01,0.01-0.01c7.39-8.16,9.41-22.34,14.75-31.69
			c8.38-14.67,23.66-21.37,38.29-27.689c18.19-7.841,62.93-34.79,72.84-53.41c7.61-14.32,8.57-65.13,0-87.42l-1.87-0.28
			c0.08-0.57,0.16-1.14,0.23-1.7c4.569,0.3,203.05,13.55,227.31,15.98c45.71,4.57,109.12,60.57,125.69,121.13
			c10.779,39.39,6.81,72.49-7.03,97.58l-1.54-0.46C758.63,601.4,749.06,604.76,739.81,607.25z"/>
		<path style="fill:#F6ED4D;" d="M768.42,597.07l1.54,0.46c-7.43,13.479-17.72,24.66-30.1,33.25
			c-35.42,24.56-143.4,56.569-208.53,57.71c0,0-17.14,2.85-38.86,9.14c-21.71,6.28-55.42-9.14-54.279-22.86
			c1.3-15.529,47.43-22.279,82.279-9.71c14.73,5.32,35.311,2.431,50.12-0.479c84.48-16.62,151.271-46.98,169.22-57.33
			C749.06,604.76,758.63,601.4,768.42,597.07z"/>
		<path style="fill:#F6CC4B;" d="M338.84,374.09c-0.59-1.49-1.48-2.88-2.77-4.12l0.02-1.2c3.39,0.1,7.32-1.04,11.55-3.52
			c5.47-3.21,6.96-13.47,6.61-24.51c13.64-31.47,2.82-84.33,2.82-84.33c-1.71-24.42-25.28-50.99-42.85-53.99
			c-17.57-3-11.57,28.71-30.43,11.14c-8.53-7.94-21.85-12.42-38.99,1.29c-17.14,13.71-24.85,31.21-24.85,64.27
			c0,40.28,17.57,62.99,17.57,62.99c7.28,11.57,14.14,20.14,24.42,27.43c7.19,5.07,14.11,11.78,21.24,18.07
			c-0.09,0.12-0.18,0.25-0.27,0.38c0.06,0.18,0.24,0.08,0.49-0.18c5.62,4.94,11.39,9.62,17.53,13.01c13.27,7.32,32.88,3.6,37.28-12
			C339.66,383.7,340.56,378.44,338.84,374.09z M189.7,196.4c-3.93-2.34-8.07-4.21-10.58-5.13c-5.74-2.11-17.73-2.71-20.85-8.46
			c5.73-1.39,11.73-1.4,17.45-0.93c2.96,0.24,7.03,1.07,9.89-0.05c4.99-1.95,5.06-9.28,8.35-13.56c4.65,2.16,9.46,4.08,14.36,4.52
			c0.24-4.39-1.39-11.62,1.68-15.37c3.06-3.75,10.98-1.05,15.86-0.08c4.38,0.86,9.7,3.55,12.81,0.66
			c4.23-3.95,4.04-11.53,8.75-15.44c7.27-6.02,19.59,5.76,28.76,3.29c5.81-1.57,8.26-6.37,14.47-3.31c5.54,2.74,11.99,10.39,18,7.18
			c12.07-6.45,17.59-13.24,25.61-11.66c62.73,12.32,8.5,11.69,19.95,22.52c8.51,8.04,21.21,0.9,31.42,6.28
			c2.58,1.36,13.71,3.43,13.69,5.57c-0.05,4.3-11.92,8.91-14.71,11.67c-2.94,2.9-3.42,6.59-0.96,9.78
			c3.65,4.73,8.07,4.38,6.86,10.71c-0.67,3.52-1.11,7.35-0.9,11.17c0.28,4.92,2.88,9.23,3.03,14.1c0.19,5.73-1.31,10.78-5.51,14.51
			c-3.02,2.68-8.71,5.52-9.08,9.89c-0.42,5.19,4.97,5.99,8.59,8.14c4.03,2.4,6.45,6.43,9.91,9.31c4.9,4.09,9.31,7.14,13.08,12.6
			c5.42,7.88,7.7,15.73,10.54,24.71c3.18,10.02,5.37,20.5,5.89,30.95c0.19,3.91-0.66,12.74-2.069,22.87
			c-0.07,0.56-0.15,1.13-0.23,1.7c-2.49,17.38-6.48,37.92-9.56,43.99c-0.16-0.24-1.81,3.54-1.81,3.54
			c-6.28,13.14-22.18,29.03-30.18,22.17c-8.01-6.86-18.29-9.71-22.86-2.86c-4.57,6.86,0.57,29.14-5.71,32
			c-6.28,2.851-32.57-12-36.57-14.85c-4-2.86-31.99,9.14-46.84,33.13c-14.86,24-18.29,35.43-29.71,10.29
			c-11.43-25.141-66.85-60.57-78.85-94.84c-5.6-16.02-6.22-37.64-4.12-59.7c0.01,0,0.01-0.01,0.01-0.01
			c2.39-25.15,8.31-50.85,14.4-69.42c1.1-3.36,2.38-6.53,3.8-9.53l-0.38-0.18c0,0-21.85-15.14-18.42-39.56
			C160.21,195.59,186.87,196.27,189.7,196.4z"/>
		<path style="fill:#F6CC4B;" d="M291.5,570.42c-5.57,3.49-11.59,6.95-17.85,10.08c-20.86,10.44-33.19,15.39-40.33,30.88l-0.2-0.09
			c0.24-0.71,1.75-6.88-14.89-17.07c-10.45-6.41-42.2-20.779-67.29-41.939c-17.42-14.69-31.62-32.65-33.26-53.48
			c-3.88-49.33,37.4-155.11,39.87-161.39c-2.1,22.06-1.48,43.68,4.12,59.7c12,34.27,67.42,69.7,78.85,94.84
			c11.42,25.14,14.85,13.71,29.71-10.29c14.85-23.99,42.84-35.99,46.84-33.13c4,2.85,30.29,17.7,36.57,14.85
			c6.28-2.86,1.14-25.14,5.71-32c4.57-6.85,14.85-4,22.86,2.86c8,6.859,23.9-9.03,30.18-22.17c0,0,1.65-3.78,1.81-3.54
			c3.08-6.07,7.07-26.61,9.56-43.99l1.87,0.28c8.57,22.29,7.61,73.1,0,87.42c-9.91,18.62-54.65,45.569-72.84,53.41
			c-14.63,6.319-29.91,13.02-38.29,27.689c-5.34,9.351-7.36,23.53-14.75,31.69c-0.01,0-0.01,0-0.01,0.01
			C297.13,566.81,294.37,568.62,291.5,570.42z"/>
		<path style="fill:#FFF5B4;" d="M330.96,271.97l2.54-0.13c0,0,16.27-6.43,13.71-12c-2.56-5.57-20.14-13.28-18.85,1.29
			C328.64,264.32,329.6,268.04,330.96,271.97z M351.71,319.24l-5.46,0.06c0-1.12-0.71-1.88-2.47-2.04c-9.42-0.86-46.27,0.43-46.7,6
			c-0.43,5.57,4.71,9.86,12.85,13.71c0,0,12.57,4.57,12.57,16.24c0,0.7-0.04,1.43-0.14,2.19c0,0-5.57,7.28-19.28,14.14
			c-12.36,6.18-27.36,9.76-41.14,0c-10.28-7.29-17.14-15.86-24.42-27.43c0,0-17.57-22.71-17.57-62.99
			c0-33.06,7.71-50.56,24.85-64.27c17.14-13.71,30.46-9.23,38.99-1.29c18.86,17.57,12.86-14.14,30.43-11.14
			c17.57,3,41.14,29.57,42.85,53.99c0,0,10.82,52.86-2.82,84.33C354.02,333.28,352.95,325.47,351.71,319.24z"/>
		<path style="fill:#FFF5B4;" d="M354.25,340.74c0.35,11.04-1.14,21.3-6.61,24.51c-4.23,2.48-8.16,3.62-11.55,3.52
			c-6.59-0.18-11.17-5.04-12.02-13.8c-0.05-0.62-0.09-1.22-0.1-1.8c-0.02-0.88,0.01-1.72,0.08-2.52
			c0.89-10.18,8.59-14.54,8.59-14.54s13.61-11.91,13.61-16.81l5.46-0.06C352.95,325.47,354.02,333.28,354.25,340.74z"/>
		<path style="fill:#FFF5B4;" d="M347.21,259.84c2.56,5.57-13.71,12-13.71,12l-2.54,0.13c-1.36-3.93-2.32-7.65-2.6-10.84
			C327.07,246.56,344.65,254.27,347.21,259.84z"/>
		<path style="fill:#231F20;" d="M343.78,317.26c1.76,0.16,2.47,0.92,2.47,2.04c0,4.9-13.61,16.81-13.61,16.81s-7.7,4.36-8.59,14.54
			c-0.07,0.8-0.1,1.64-0.08,2.52l-1.47,0.04c0-11.67-12.57-16.24-12.57-16.24c-8.14-3.85-13.28-8.14-12.85-13.71
			C297.51,317.69,334.36,316.4,343.78,317.26z"/>
		<path style="fill:#FFF5B4;" d="M286.18,384.21c6.34-5.91,16.07-8.81,24.61-10.82c10.09-2.37,22.71,0,28.05,0.7
			c1.72,4.35,0.82,9.61-0.63,14.73c-4.4,15.6-24.01,19.32-37.28,12c-6.14-3.39-11.91-8.07-17.53-13.01c0.73-0.76,2.06-2.9,2.7-3.53
			C286.13,384.26,286.16,384.23,286.18,384.21z"/>
		<path style="fill:#F6ED4D;" d="M72.81,652.77c-0.88-0.81-1.73-1.659-2.55-2.569c-11.41-12.58-5.14-28.561,22.85-51.99
			c19-15.9,53.51-42.58,57.83-45.93c25.09,21.16,56.84,35.529,67.29,41.939c0,0-15.99,4.561-40.56,13.71
			c-24.56,9.15-29.44,24.73-38.85,34.851C117.1,666.12,89.7,668.32,72.81,652.77z"/>
	</g>
	<g>
		<path style="fill:none;stroke:#231F20;stroke-width:13.7119;" d="M239.66,262.84c0,0,6.63-3.39,10.02-4.62
			c6.32-2.3,16.24-4.51,21.26,1.62c7.71,9.43-1.71,13.71-7.71,14.14s-13.29-10.28-13.29-10.28"/>
		<path style="fill:none;stroke:#231F20;stroke-width:21;" d="M189.95,196.42c0,0-0.08-0.01-0.25-0.02
			c-2.83-0.13-29.49-0.81-32.74,22.31c-3.43,24.42,18.42,39.56,18.42,39.56"/>
		<path style="fill:none;stroke:#231F20;stroke-width:13.7119;" d="M272.23,261.56c11.21,19.54,10.77,15.8,18.42,36.85"/>
		<path style="fill:none;stroke:#231F20;stroke-width:14;" d="M261.94,369.54c7.19,5.07,14.11,11.78,21.24,18.07
			c0.07,0.06,0.15,0.13,0.22,0.2c5.62,4.94,11.39,9.62,17.53,13.01c13.27,7.32,32.88,3.6,37.28-12c1.45-5.12,2.35-10.38,0.63-14.73
			c-0.59-1.49-1.48-2.88-2.77-4.12"/>
		<path style="fill:none;stroke:#231F20;stroke-width:14;" d="M286.18,384.21c6.34-5.91,16.07-8.81,24.61-10.82
			c10.09-2.37,22.71,0,28.05,0.7c1.18,0.16,2.01,0.24,2.37,0.16"/>
		<path style="fill:none;stroke:#231F20;stroke-width:14;" d="M286.37,384.11c-0.05,0-0.11,0.04-0.27,0.17c0.03-0.02,0.06-0.05,0,0
			c-0.64,0.63-1.97,2.77-2.7,3.53c-0.25,0.26-0.43,0.36-0.49,0.18c0.09-0.13,0.18-0.26,0.27-0.38c0.85-1.21,1.84-2.32,2.92-3.33"/>
		<path style="fill:none;stroke:#231F20;stroke-width:14;" d="M333.5,271.84c0,0,16.27-6.43,13.71-12
			c-2.56-5.57-20.14-13.28-18.85,1.29c0.28,3.19,1.24,6.91,2.6,10.84c4.86,14.06,14.86,30.84,17.54,35.86
			c0.9,1.68,2.12,5.93,3.21,11.41c1.24,6.23,2.31,14.04,2.54,21.5c0.35,11.04-1.14,21.3-6.61,24.51c-4.23,2.48-8.16,3.62-11.55,3.52
			c-6.59-0.18-11.17-5.04-12.02-13.8c-0.05-0.62-0.09-1.22-0.1-1.8c-0.02-0.88,0.01-1.72,0.08-2.52
			c0.89-10.18,8.59-14.54,8.59-14.54s13.61-11.91,13.61-16.81c0-1.12-0.71-1.88-2.47-2.04c-9.42-0.86-46.27,0.43-46.7,6
			c-0.43,5.57,4.71,9.86,12.85,13.71c0,0,12.57,4.57,12.57,16.24c0,0.7-0.04,1.43-0.14,2.19c0,0-5.57,7.28-19.28,14.14
			c-12.36,6.18-27.36,9.76-41.14,0c-10.28-7.29-17.14-15.86-24.42-27.43c0,0-17.57-22.71-17.57-62.99
			c0-33.06,7.71-50.56,24.85-64.27c17.14-13.71,30.46-9.23,38.99-1.29c18.86,17.57,12.86-14.14,30.43-11.14
			c17.57,3,41.14,29.57,42.85,53.99c0,0,10.82,52.86-2.82,84.33c-0.19,0.46-0.4,0.92-0.61,1.37"/>
		<path style="fill:none;stroke:#231F20;stroke-width:21;" d="M157.55,337.41c-2.1,22.06-1.48,43.68,4.12,59.7
			c12,34.27,67.42,69.7,78.85,94.84c11.42,25.14,14.85,13.71,29.71-10.29c14.85-23.99,42.84-35.99,46.84-33.13
			c4,2.85,30.29,17.7,36.57,14.85c6.28-2.86,1.14-25.14,5.71-32c4.57-6.85,14.85-4,22.86,2.86c8,6.859,23.9-9.03,30.18-22.17
			c0,0,1.65-3.78,1.81-3.54c3.08-6.07,7.07-26.61,9.56-43.99c0.08-0.57,0.16-1.14,0.23-1.7c1.41-10.13,2.26-18.96,2.069-22.87
			c-0.52-10.45-2.709-20.93-5.89-30.95c-2.84-8.98-5.12-16.83-10.54-24.71c-3.77-5.46-8.18-8.51-13.08-12.6
			c-3.46-2.88-5.88-6.91-9.91-9.31c-3.62-2.15-9.01-2.95-8.59-8.14c0.37-4.37,6.06-7.21,9.08-9.89c4.2-3.73,5.7-8.78,5.51-14.51
			c-0.15-4.87-2.75-9.18-3.03-14.1c-0.21-3.82,0.23-7.65,0.9-11.17c1.21-6.33-3.21-5.98-6.86-10.71c-2.46-3.19-1.98-6.88,0.96-9.78
			c2.79-2.76,14.66-7.37,14.71-11.67c0.02-2.14-11.11-4.21-13.69-5.57c-10.21-5.38-22.91,1.76-31.42-6.28
			c-11.45-10.83,42.78-10.2-19.95-22.52c-8.02-1.58-13.54,5.21-25.61,11.66c-6.01,3.21-12.46-4.44-18-7.18
			c-6.21-3.06-8.66,1.74-14.47,3.31c-9.17,2.47-21.49-9.31-28.76-3.29c-4.71,3.91-4.52,11.49-8.75,15.44
			c-3.11,2.89-8.43,0.2-12.81-0.66c-4.88-0.97-12.8-3.67-15.86,0.08c-3.07,3.75-1.44,10.98-1.68,15.37
			c-4.9-0.44-9.71-2.36-14.36-4.52c-3.29,4.28-3.36,11.61-8.35,13.56c-2.86,1.12-6.93,0.29-9.89,0.05
			c-5.72-0.47-11.72-0.46-17.45,0.93c3.12,5.75,15.11,6.35,20.85,8.46c2.51,0.92,6.65,2.79,10.58,5.13
			c4.85,2.88,9.38,6.48,10.11,9.88"/>
		<path style="fill:none;stroke:#231F20;stroke-width:21;" d="M214.23,217.71c0,0-25.19,12.59-38.47,40.74
			c-1.42,3-2.7,6.17-3.8,9.53c-6.09,18.57-12.01,44.27-14.4,69.42"/>
		<path style="fill:none;stroke:#231F20;stroke-width:21;" d="M299.75,565.03c15.44-10.521,25.89-19.95,25.89-19.95"/>
		<path style="fill:none;stroke:#231F20;stroke-width:21;" d="M403.35,505.66c0,0-19.61,65.63-40.15,98.21
			c-4.73,7.52-9.52,13.27-14.13,16.06c-22.31,13.48-40.38,10.48-44.37,18.801c-0.41,0.84-0.67,1.8-0.77,2.899
			c-1.14,12-6.28,23.43-31.42,25.14c-25.14,1.721-50.63,4.131-45.13-33.13c1.39-9.39,3.31-16.55,5.94-22.26
			c7.14-15.49,19.47-20.439,40.33-30.88c6.26-3.13,12.28-6.59,17.85-10.08c2.87-1.8,5.63-3.61,8.24-5.38"/>
		<path style="fill:none;stroke:#231F20;stroke-width:20.5678;stroke-linecap:round;stroke-linejoin:round;" d="M283.37,616.5
			c4.62-1.72,13.35,5.01,16.29,8.68c4.74,5.91,5.33,10.69,5.04,13.551c-0.18,1.789-0.7,2.819-0.77,2.899"/>
		<path style="fill:none;stroke:#231F20;stroke-width:21;" d="M157.67,337.12c0,0-0.04,0.09-0.11,0.28c0,0,0,0.01-0.01,0.01
			c-2.47,6.28-43.75,112.06-39.87,161.39c1.64,20.83,15.84,38.79,33.26,53.48c25.09,21.16,56.84,35.529,67.29,41.939
			c16.64,10.19,15.13,16.36,14.89,17.07c-0.02,0.05-0.03,0.07-0.03,0.07"/>
		<path style="fill:none;stroke:#231F20;stroke-width:21;" d="M151.39,551.94c0,0-0.15,0.119-0.45,0.34
			c-4.32,3.35-38.83,30.029-57.83,45.93c-27.99,23.43-34.26,39.41-22.85,51.99c0.82,0.91,1.67,1.76,2.55,2.569
			c16.89,15.551,44.29,13.351,66.01-9.989c9.41-10.12,14.29-25.7,38.85-34.851c24.57-9.149,40.56-13.71,40.56-13.71"/>
		<path style="fill:none;stroke:#231F20;stroke-width:20.5678;stroke-linecap:round;stroke-linejoin:round;" d="M243.37,662.2
			c1.79-3.65,0.09-4.83,1.02-9.141c0.94-4.359,2.57-9.92,5.27-13.14"/>
		<path style="fill:none;stroke:#231F20;stroke-width:20.5678;stroke-linecap:round;stroke-linejoin:round;" d="M274.22,637.64
			c1.64,7.11,2.86,14.851,1.15,26.851"/>
		<path style="fill:none;stroke:#231F20;stroke-width:20.5678;stroke-linecap:round;" d="M72.55,653.06
			c0.09-0.09,0.17-0.189,0.26-0.29c3.39-4.029,5.87-13.38,10.01-18.56c3.16-3.97,7.11-7.67,10.87-10.85"/>
		<path style="fill:none;stroke:#231F20;stroke-width:20.5678;stroke-linecap:round;" d="M99.11,659.48
			c1.72-3.33,3.7-6.65,5.25-9.83c3.69-7.521,6.53-10.94,12.18-17.16"/>
		<path style="fill:none;stroke:#231F20;stroke-width:21;" d="M423.91,362.83c0,0,0.03,0,0.08,0.01
			c4.569,0.3,203.05,13.55,227.31,15.98c45.71,4.57,109.12,60.57,125.69,121.13c10.779,39.39,6.81,72.49-7.03,97.58
			c-7.43,13.479-17.72,24.66-30.1,33.25c-35.42,24.56-143.4,56.569-208.53,57.71c0,0-17.14,2.85-38.86,9.14
			c-21.71,6.28-55.42-9.14-54.279-22.86c1.3-15.529,47.43-22.279,82.279-9.71c14.73,5.32,35.311,2.431,50.12-0.479
			c84.48-16.62,151.271-46.98,169.22-57.33c0.66-0.37,1.25-0.72,1.771-1.04"/>
		<path style="fill:none;stroke:#231F20;stroke-width:21;" d="M623.88,397.68c0,0-95.979-3.43-116.55,20.57
			c-20.57,23.99-14.85,41.7-3.43,69.12c11.42,27.43,41.71,89.14,34.85,96.56c-6.86,7.431-58.85,13.141-85.7,11.431
			c-25.31-1.62-51.65-2.221-55.06,11.12c-0.2,0.81-0.33,1.67-0.36,2.59c-0.57,16-1.43,26,15.14,28.279
			c16.57,2.28,174.27-6.29,191.97-8.569c17.71-2.28,21.7-13.141,13.14-32.57c-8.58-19.42,8-31.57,18.57-9.42
			c10.18,21.33,51.609,34.43,103.359,20.46c9.25-2.49,18.82-5.85,28.61-10.18"/>
		<path style="fill:none;stroke:#231F20;stroke-width:13.7119;" d="M364.5,603.93c9.1,3.99,22.92,5.561,31.56,2.141"/>
		<path style="fill:none;stroke:#231F20;stroke-width:13.7119;stroke-linecap:round;stroke-linejoin:round;" d="M400.77,627.06
			c6.86-10.71,13.29-12.85,24.86-14.14"/>
		<path style="fill:none;stroke:#231F20;stroke-width:21;" d="M290.22,570.79c0.44-0.11,0.87-0.23,1.28-0.37
			c3.37-1.07,6.04-2.96,8.24-5.38c0-0.01,0-0.01,0.01-0.01c7.39-8.16,9.41-22.34,14.75-31.69c8.38-14.67,23.66-21.37,38.29-27.689
			c18.19-7.841,62.93-34.79,72.84-53.41c7.61-14.32,8.57-65.13,0-87.42"/>
		<path style="fill:none;stroke:#231F20;stroke-width:14;stroke-linecap:round;stroke-linejoin:round;" d="M293.65,215.42
			c0.05-18.14,13.9-38.62,27.42-47.99"/>
		<path style="fill:none;stroke:#231F20;stroke-width:14;stroke-linecap:round;stroke-linejoin:round;" d="M287.94,211.99
			c-0.05-18.14-13.9-38.61-27.42-47.99"/>
	</g>
</g>
<rect style="fill:none;" width="850.394" height="850.394"/>
</svg>
