<?xml version="1.0" encoding="iso-8859-1"?>
<!-- Generator: Adobe Illustrator 12.0.1, SVG Export Plug-In . SVG Version: 6.00 Build 51448)  -->
<!DOCTYPE svg PUBLIC "-//W3C//DTD SVG 1.1//EN" "http://www.w3.org/Graphics/SVG/1.1/DTD/svg11.dtd" [
	<!ENTITY ns_svg "http://www.w3.org/2000/svg">
	<!ENTITY ns_xlink "http://www.w3.org/1999/xlink">
]>
<svg  version="1.1" id="Layer_1" xmlns="&ns_svg;" xmlns:xlink="&ns_xlink;" width="850.394" height="850.394"
	 viewBox="0 0 850.394 850.394" style="overflow:visible;enable-background:new 0 0 850.394 850.394;" xml:space="preserve">
<g id="XMLID_5_">
	<g>
		<path style="fill:#EEDCEB;" d="M728.45,364.32c27.97,13.47,32.939,30.39,23.5,44.58l-71.48,1.37l-96.29,1.84l-19.93,0.38
			c0.92-6.03,1.4-12.2,1.4-18.47c0-6.52-0.511-12.93-1.511-19.19l11.67-2.62l93.971-21.1l9.569-2.15
			C698.69,353.32,716.22,358.43,728.45,364.32z"/>
		<path style="fill:#EEDCEB;" d="M625.44,447.87c-23.391,1.6-47.15,1.31-71.91-0.75c5.21-10.84,8.87-22.47,10.72-34.63l19.93-0.38
			l96.29-1.84l71.48-1.37c-6.8,10.23-21.09,19.05-39.66,24.14C683.12,441.03,654.57,445.91,625.44,447.87z"/>
		<path style="fill:#FFFFFF;" d="M544.2,476.33l-6.21-4.55c5.08-6.351,9.56-13.141,13.34-20.3l21.37,4.449l79.37,16.53
			c23.89,22.83,48.46,48.76,60.37,68.82c27.239,45.939-7.851,62.72-51.511,48.29c-20.25-6.7-56.949-26.78-82.149-40.49
			c-3.09-1.68-6.011-3.271-8.71-4.72l-0.12,0.04c-6.771-21.87-16.09-44.57-28.62-64.16L544.2,476.33z"/>
		<path style="fill:#EEDCEB;" d="M679.35,348.96l-9.569,2.15l-93.971,21.1l-11.67,2.62c-1.84-11.62-5.33-22.73-10.239-33.13
			l15.68-8.37l2.31-1.23c5.67,0.62,12.221,1.38,19.4,2.27C616.79,337.53,650.14,342.38,679.35,348.96z"/>
		<path style="fill:#EEDCEB;" d="M626.45,144.47c41.27-21.72,57.92,2.91,50.39,38.06l-53.8,46.69l-72.73,63.13l-18.84,16.35
			c-8.08-8.66-17.359-16.33-27.6-22.77l14.45-18.85l58.6-76.43l18.54-24.19C606.71,157.03,617.35,149.26,626.45,144.47z"/>
		<path style="fill:#EEDCEB;" d="M623.04,229.22l53.8-46.69c-1.09,5.09-2.689,10.4-4.8,15.83c-16.56,42.68-38.01,79.97-66.24,115.64
			l-33.91,18.1c-13.319-1.46-21.72-2.19-21.72-2.19l-2.28,0.55c-4.68-7.78-10.189-15.06-16.42-21.76l18.84-16.35L623.04,229.22z"/>
		<path style="fill:#FFFFFF;" d="M652.07,472.46l-79.37-16.53l-21.37-4.449c0.77-1.44,1.5-2.891,2.2-4.36
			c24.76,2.06,48.52,2.35,71.91,0.75C633.7,455.26,642.83,463.63,652.07,472.46z"/>
		<path style="fill:#FFFFFF;" d="M595.46,166.46l-18.54,24.19l-58.6,76.43l-14.45,18.85c-5.23-3.29-10.7-6.26-16.4-8.88l1.23-3.12
			l1.78,0.7c0,0,26.529-31.49,58.3-64.09C563.92,195,580.25,179.22,595.46,166.46z"/>
		<path style="fill:#EEDCEB;" d="M576.32,567.56c7.35,30.36,9.779,55.94,9.37,64.45c-1.15,24.04-10.011,35.51-21.74,37.2
			l-27.32-48.61l-47.189-83.97l-12.061-21.46c12.53-4.65,24.17-10.939,34.62-18.57l18.02,19.881L576.32,567.56z"/>
		<path style="fill:#EEDCEB;" d="M576.32,567.56L530.02,516.48L512,496.6c9.8-7.17,18.55-15.52,25.99-24.819l6.21,4.55l-2.87,3.91
			c12.53,19.59,21.85,42.29,28.62,64.16C572.4,552.29,574.51,560.07,576.32,567.56z"/>
		<path style="fill:#8C469B;" d="M564.14,374.83c1,6.26,1.511,12.67,1.511,19.19c0,6.27-0.48,12.44-1.4,18.47l-46.66,0.89
			l-0.04-2.23c0.11,0,0.23,0,0.34-0.02c4.15-0.61,5.94-12.36,4.25-26.86L564.14,374.83z"/>
		<path style="fill:#8C469B;" d="M553.53,447.12c-0.7,1.47-1.431,2.92-2.2,4.36l-56.14-11.7c5.8-3.561,9.52-9.061,9.52-15.23
			c0-4.01-1.58-7.74-4.28-10.84l17.16-0.33l46.66-0.89C562.4,424.65,558.74,436.28,553.53,447.12z"/>
		<path style="fill:#8C469B;" d="M564.14,374.83l-42,9.44c-0.12-1-0.25-2.01-0.399-3.03c-1.13-7.75-3.01-14.65-5.16-19.61
			l37.32-19.93C558.81,352.1,562.3,363.21,564.14,374.83z"/>
		<path style="fill:#EEDCEB;" d="M536.63,620.6l27.32,48.61c-12.3,1.78-27.79-7.19-40.891-23.69
			c-5.13-6.47-25.649-35.689-46.31-68.689c-11.14-17.8-22.32-36.7-31.16-53.73c11.07-1.489,21.72-4.18,31.79-7.93l12.061,21.46
			L536.63,620.6z"/>
		<path style="fill:#8C469B;" d="M553.9,341.7l-37.32,19.93c-2.26-5.2-4.811-8.26-7.09-7.93c-2.851,0.41-4.59,6.09-4.84,14.3
			l-18.11,9.66c-1.92-7.83-5.25-15.11-9.72-21.54l0.05-0.03l54.6-47.39c6.23,6.7,11.74,13.98,16.42,21.76
			C550.08,334.1,552.09,337.85,553.9,341.7z"/>
		<path style="fill:#8C469B;" d="M496.54,441.41l-1.83-1.34c0.16-0.09,0.32-0.19,0.48-0.29l56.14,11.7
			c-3.78,7.159-8.26,13.949-13.34,20.3L496.54,441.41z"/>
		<path style="fill:#FFFFFF;" d="M545.63,208.31l3.15,2.23c-31.771,32.6-58.3,64.09-58.3,64.09l-1.78-0.7l9.49-24.11l35.3-89.61
			l5.58-14.17c2.8,6.77,4.66,14.92,5.38,23.99C545.47,182.97,545.86,195.69,545.63,208.31z"/>
		<path style="fill:#FFFFFF;" d="M456.15,236.35l0.8-5.25l7.38-48.56c6.72-14.22,13.74-27.04,20.62-36.27
			c22.95-30.79,44.28-24.09,54.12-0.23l-5.58,14.17l-35.3,89.61l-9.49,24.11l-1.23,3.12c-11.17-5.14-23.189-8.94-35.8-11.17
			L456.15,236.35z"/>
		<path style="fill:#8C469B;" d="M496.54,441.41l41.45,30.37c-7.44,9.3-16.19,17.649-25.99,24.819l-47.29-52.17l-0.49-0.62
			c0.931-0.739,1.83-1.52,2.71-2.319c3.681,1.63,7.95,2.55,12.49,2.55c5.66,0,10.89-1.43,15.1-3.85L496.54,441.41z"/>
		<path style="fill:#8C469B;" d="M462.94,339.31l14.579-19.01c4.141-0.14,6.891-1.11,7.471-2.92c0.39-1.26-0.29-2.78-1.851-4.42
			l20.73-27.03c10.24,6.44,19.52,14.11,27.6,22.77l-54.6,47.39l-0.05,0.03c-4.11-5.92-9.17-11.12-14.971-15.38L462.94,339.31z"/>
		<path style="fill:#ABD153;" d="M522.14,384.27c1.69,14.5-0.1,26.25-4.25,26.86c-0.109,0.02-0.229,0.02-0.34,0.02
			c-3.979,0-8.68-9.95-11.2-23.33L522.14,384.27z"/>
		<path style="fill:#ABD153;" d="M522.14,384.27l-15.79,3.55c-0.26-1.37-0.5-2.79-0.71-4.23c-0.83-5.67-1.14-11.02-0.989-15.59
			l11.93-6.37c2.15,4.96,4.03,11.86,5.16,19.61C521.89,382.26,522.02,383.27,522.14,384.27z"/>
		<path style="fill:#8C469B;" d="M517.55,411.15l0.04,2.23l-17.16,0.33c-3.14-3.61-7.8-6.36-13.279-7.71
			c0.83-4.14,1.26-8.43,1.26-12.81c0-0.45,0-0.89-0.021-1.34l17.96-4.03C508.87,401.2,513.57,411.15,517.55,411.15z"/>
		<path style="fill:#8C469B;" d="M516.58,361.63L504.65,368c0.25-8.21,1.989-13.89,4.84-14.3
			C511.77,353.37,514.32,356.43,516.58,361.63z"/>
		<path style="fill:#8C469B;" d="M464.71,444.43L512,496.6c-10.45,7.631-22.09,13.92-34.62,18.57l-13.72-24.42
			c7.66-3.66,12.31-8.32,11.47-12.35c-1.05-5.011-10.28-7.53-22.09-6.561l-9.44-16.8c7.591-2.48,14.551-6.32,20.62-11.23
			L464.71,444.43z"/>
		<path style="fill:#8C469B;" d="M503.87,285.93l-20.73,27.03c-1.649-1.75-4.29-3.65-7.649-5.5l11.979-30.41
			C493.17,279.67,498.64,282.64,503.87,285.93z"/>
		<path style="fill:#ABD153;" d="M500.43,413.71c2.7,3.1,4.28,6.83,4.28,10.84c0,6.17-3.72,11.67-9.52,15.23l-1.21-0.25
			l-15.69-11.49c2.88-4.53,5.22-9.43,6.91-14.63l1.75,0.56L500.43,413.71z"/>
		<path style="fill:#ABD153;" d="M500.43,413.71l-13.479,0.26l-1.75-0.56c0.79-2.41,1.439-4.88,1.95-7.41
			C492.63,407.35,497.29,410.1,500.43,413.71z"/>
		<path style="fill:#FFFFFF;" d="M495.19,439.78c-0.16,0.1-0.32,0.2-0.48,0.29l-0.729-0.54L495.19,439.78z"/>
		<path style="fill:#FFFFFF;" d="M493.98,439.53l0.729,0.54c-0.06,0.04-0.12,0.08-0.19,0.12l-1.369-0.83L493.98,439.53z"/>
		<path style="fill:#ABD153;" d="M493.15,439.36l1.369,0.83c-4.21,2.42-9.439,3.85-15.1,3.85c-4.54,0-8.81-0.92-12.49-2.55
			c3.87-3.49,7.32-7.44,10.261-11.771L493.15,439.36z"/>
		<path style="fill:#ABD153;" d="M493.98,439.53l-0.83-0.17l-15.96-9.641c0.38-0.56,0.75-1.12,1.1-1.68L493.98,439.53z"/>
		<path style="fill:#FFFFC2;" d="M423.68,393.8l64.31-8.01c0.229,1.99,0.37,4.01,0.399,6.06c0.021,0.45,0.021,0.89,0.021,1.34
			c0,4.38-0.43,8.67-1.26,12.81c-2.44-0.6-5.03-0.93-7.73-0.93c-10.47,0-19.47,4.91-23.31,11.91l-31.13-18.81l-2.61,0.75l-0.7-2.41
			l-0.49-1.55l-0.2-0.63l0.96-0.31L423.68,393.8z"/>
		<path style="fill:#FFFFC2;" d="M461.85,340.74c5.801,4.26,10.86,9.46,14.971,15.38c4.47,6.43,7.8,13.71,9.72,21.54
			c0.65,2.65,1.14,5.36,1.45,8.13l-64.31,8.01l21.51-61.92C451.2,334.02,456.8,337.03,461.85,340.74z"/>
		<path style="fill:#8C469B;" d="M487.47,277.05l-11.979,30.41c-4.26-2.37-9.681-4.68-15.721-6.59c-4.569-1.45-8.97-2.5-12.939-3.15
			l4.84-31.84C464.28,268.11,476.3,271.91,487.47,277.05z"/>
		<path style="fill:#ABD153;" d="M478.29,428.04c-0.35,0.56-0.72,1.12-1.1,1.68l-21.08-12.74c3.84-7,12.84-11.91,23.31-11.91
			c2.7,0,5.29,0.33,7.73,0.93c-0.511,2.53-1.16,5-1.95,7.41C483.51,418.61,481.17,423.51,478.29,428.04z"/>
		<path style="fill:#231F20;" d="M483.14,312.96c1.561,1.64,2.24,3.16,1.851,4.42c-0.58,1.81-3.33,2.78-7.471,2.92L483.14,312.96z"
			/>
		<path style="fill:#ABD153;" d="M483.14,312.96l-5.62,7.34c-2.01,0.07-4.35-0.05-6.939-0.37l4.91-12.47
			C478.85,309.31,481.49,311.21,483.14,312.96z"/>
		<path style="fill:#8C469B;" d="M477.52,320.3l-14.579,19.01l7.64-19.38C473.17,320.25,475.51,320.37,477.52,320.3z"/>
		<path style="fill:#8C469B;" d="M445.59,523.1c-5.1,0.69-10.29,1.12-15.56,1.28l2.3-27.47c4.88,0.32,10.66-0.101,16.729-1.37
			c5.48-1.14,10.48-2.82,14.601-4.79l13.72,24.42C467.31,518.92,456.66,521.61,445.59,523.1z"/>
		<path style="fill:#ABD153;" d="M456.11,416.98l21.08,12.74c-2.94,4.33-6.391,8.28-10.261,11.771c-7.64-3.34-12.8-9.681-12.8-16.94
			C454.13,421.86,454.84,419.3,456.11,416.98z"/>
		<path style="fill:#FFFFFF;" d="M476.75,576.83l-2.38,1.5c-5.39,37.65-13.67,69.42-15.98,78.53
			c-7.27,28.649-24.89,45.699-42.52,36.76l4.01-47.84l8.03-95.98l2.12-25.42c5.27-0.16,10.46-0.59,15.56-1.28
			C454.43,540.13,465.61,559.03,476.75,576.83z"/>
		<path style="fill:#ABD153;" d="M475.49,307.46l-4.91,12.47c-4.64-0.57-10.061-1.75-15.72-3.54c-1.351-0.43-2.681-0.88-3.96-1.34
			c-2.23-0.81-4.341-1.66-6.311-2.55l2.24-14.78c3.97,0.65,8.37,1.7,12.939,3.15C465.81,302.78,471.23,305.09,475.49,307.46z"/>
		<path style="fill:#ABD153;" d="M475.13,478.4c0.84,4.029-3.81,8.689-11.47,12.35l-10.62-18.91
			C464.85,470.87,474.08,473.39,475.13,478.4z"/>
		<path style="fill:#8C469B;" d="M470.58,319.93l-7.64,19.38l-1.091,1.43c-5.05-3.71-10.649-6.72-16.659-8.86l5.489-15.79
			l0.221-1.04c1.279,0.46,2.609,0.91,3.96,1.34C460.52,318.18,465.94,319.36,470.58,319.93z"/>
		<path style="fill:#FFFFC2;" d="M443.6,455.04c-1.39,0.46-2.8,0.87-4.229,1.229c-7.43-23.619-17.5-55.1-18.53-55.62l-0.34-1.19
			l1.87-0.54l2.61-0.75l31.13,18.81c-1.271,2.32-1.98,4.88-1.98,7.57c0,7.26,5.16,13.601,12.8,16.94
			c-0.88,0.8-1.779,1.58-2.71,2.319C458.15,448.72,451.19,452.56,443.6,455.04z"/>
		<path style="fill:#ABD153;" d="M444.62,473.07c2.899-0.601,5.729-1,8.42-1.23l10.62,18.91c-4.12,1.97-9.12,3.65-14.601,4.79
			c-6.069,1.27-11.85,1.69-16.729,1.37l1.729-20.82c3.131-1.189,6.61-2.2,10.311-2.97C444.45,473.1,444.54,473.09,444.62,473.07z"/>
		<path style="fill:#EEDCEB;" d="M450.36,214.84c2.08,7.05,4,14.21,5.79,21.51l-4.48,29.53c-8.55-1.51-17.38-2.3-26.4-2.3
			c-2.5,0-4.99,0.06-7.46,0.18l-1.6-31.16l-4.92-96.18l-0.8-15.61C427.57,150.76,440.57,181.54,450.36,214.84z"/>
		<path style="fill:#8C469B;" d="M444.59,312.5c1.97,0.89,4.08,1.74,6.311,2.55l-0.221,1.04l-5.489,15.79
			c-3.73-1.33-7.631-2.34-11.641-2.97c-2.46-4.56-7.109-8.24-12.93-10.26l-2.81-54.89c2.47-0.12,4.96-0.18,7.46-0.18
			c9.02,0,17.85,0.79,26.4,2.3l-4.84,31.84c-9.32-1.53-16.24-0.85-17.19,2.16C428.62,303.12,434.86,308.16,444.59,312.5z"/>
		<path style="fill:#ABD153;" d="M446.83,297.72l-2.24,14.78c-9.729-4.34-15.97-9.38-14.95-12.62
			C430.59,296.87,437.51,296.19,446.83,297.72z"/>
		<path style="fill:#FFFFC2;" d="M445.19,331.88l-21.51,61.92l-1.74,0.22l-0.96,0.31l-12.2-38.49c0.47,0.03,0.94,0.04,1.42,0.04
			c13.97,0,25.29-8.72,25.29-19.48c0-2.66-0.69-5.19-1.94-7.49C437.56,329.54,441.46,330.55,445.19,331.88z"/>
		<path style="fill:#FFFFC2;" d="M435.65,457.1c-3.99,0.771-8.11,1.17-12.331,1.17c-4,0-7.92-0.359-11.73-1.06
			c-5.01-0.91-9.82-2.39-14.35-4.39c-2.13-0.92-4.19-1.96-6.18-3.101c-4.69-2.68-9-5.92-12.86-9.63
			c4.13-4.979,8.94-10.77,13.63-16.38c2.99-2.15,5.3-4.86,6.65-7.92c4.67-5.56,8.78-10.37,11.32-13.24l10.7-3.09l0.34,1.19
			c1.03,0.52,11.101,32,18.53,55.62C438.15,456.59,436.9,456.86,435.65,457.1z"/>
		<path style="fill:#8C469B;" d="M412,523.88c-7.02-0.61-13.89-1.7-20.57-3.229l20.16-63.44c3.81,0.7,7.73,1.06,11.73,1.06
			c4.22,0,8.34-0.399,12.331-1.17l-1.591,18.99c-10.149,3.83-16.74,9.43-15.75,14.17c0.79,3.79,6.28,6.15,14.02,6.65l-2.3,27.47
			c-1.58,0.061-3.17,0.08-4.76,0.08C420.79,524.46,416.37,524.27,412,523.88z"/>
		<path style="fill:#ABD153;" d="M434.06,476.09l-1.729,20.82c-7.74-0.5-13.23-2.86-14.02-6.65
			C417.32,485.52,423.91,479.92,434.06,476.09z"/>
		<path style="fill:#ABD153;" d="M421.11,328.15c0.73-0.03,1.47-0.04,2.21-0.04c3.48,0,6.9,0.27,10.23,0.8
			c1.25,2.3,1.94,4.83,1.94,7.49c0,10.76-11.32,19.48-25.29,19.48c-0.48,0-0.95-0.01-1.42-0.04l-7.57-23.88
			c0.66-0.24,1.33-0.47,2.01-0.68C408.88,329.44,414.88,328.35,421.11,328.15z"/>
		<path style="fill:#FFFFFF;" d="M430.03,524.38l-2.12,25.42l-8.03,95.98l-4.01,47.84c-6.92-3.5-13.84-11.01-20.14-23.4
			c-9.29-18.239-17.09-47.729-23.04-75.95l-1.59-1.119c15.13-21.221,28.57-44.101,40.9-69.271c4.37,0.39,8.79,0.58,13.27,0.58
			C426.86,524.46,428.45,524.44,430.03,524.38z"/>
		<path style="fill:#ABD153;" d="M420.62,318.65c5.82,2.02,10.47,5.7,12.93,10.26c-3.33-0.53-6.75-0.8-10.23-0.8
			c-0.74,0-1.48,0.01-2.21,0.04L420.62,318.65z"/>
		<path style="fill:#FFFFC2;" d="M409.8,402.55l-10.48,3.02c-2.36-8.88-12.56-15.56-24.77-15.56c-6.21,0-11.9,1.72-16.29,4.59
			c-0.01-0.47-0.02-0.94-0.02-1.41c0-4.86,0.53-9.6,1.55-14.16c1.08-4.92,2.73-9.62,4.87-14.05l4.5,0.85l49.75,29.85l2.27-0.72
			l0.49,1.55l0.7,2.41l-1.87,0.54L409.8,402.55z"/>
		<path style="fill:#FFFFC2;" d="M370,359.3l-1.4-1.35c4.21-6.53,9.57-12.26,15.78-16.91c0.34-0.25,0.68-0.5,1.03-0.75
			c2.25,8.55,11.76,15.06,23.37,15.55l12.2,38.49l0.2,0.63l-2.27,0.72l-49.75-29.85l-4.5-0.85c1.09-2.27,2.31-4.47,3.65-6.58
			L370,359.3z"/>
		<path style="fill:#ABD153;" d="M420.62,318.65l0.49,9.5c-6.23,0.2-12.23,1.29-17.89,3.13l-4.8-12.12
			c3.52-1.43,7.53-2.24,11.78-2.24C413.91,316.92,417.44,317.54,420.62,318.65z"/>
		<path style="fill:#8C469B;" d="M417.81,263.76l2.81,54.89c-3.18-1.11-6.71-1.73-10.42-1.73c-4.25,0-8.26,0.81-11.78,2.24
			l-19.18-48.41C391.42,266.83,404.36,264.42,417.81,263.76z"/>
		<path style="fill:#EEDCEB;" d="M416.21,232.6l1.6,31.16c-13.45,0.66-26.39,3.07-38.57,6.99l-11.07-27.92l-35.49-89.53l-6.07-15.31
			c-0.25-12,0.16-23,1.51-32.06c7.89-52.82,45.69-43.67,70.42-4.91c4.19,6.57,8.17,13.16,11.95,19.79l0.8,15.61L416.21,232.6z"/>
		<path style="fill:#8C469B;" d="M411.59,457.21l-20.16,63.44c-11.76-2.71-22.92-6.78-33.3-12.04l16.03-28.681
			c8.1,5.82,15.02,8.46,17.26,6.09c2.5-2.67-1.67-10.85-9.63-19.72l1.64-2.939l13.56-9.971l0.25-0.569
			C401.77,454.82,406.58,456.3,411.59,457.21z"/>
		<path style="fill:#ABD153;" d="M401.21,331.96l7.57,23.88c-11.61-0.49-21.12-7-23.37-15.55
			C390.22,336.83,395.53,334.01,401.21,331.96z"/>
		<path style="fill:#ABD153;" d="M398.42,319.16l4.8,12.12c-0.68,0.21-1.35,0.44-2.01,0.68l-3.9-12.32
			C397.67,319.47,398.04,319.31,398.42,319.16z"/>
		<path style="fill:#ABD153;" d="M397.31,319.64l3.9,12.32c-5.68,2.05-10.99,4.87-15.8,8.33c-0.33-1.26-0.5-2.56-0.5-3.89
			C384.91,329.27,389.88,323.03,397.31,319.64z"/>
		<path style="fill:#ABD153;" d="M399.32,405.57c0.33,1.27,0.51,2.59,0.51,3.93c0,2.2-0.47,4.32-1.35,6.29
			c-2.13,2.52-4.38,5.2-6.65,7.92c-4.52,3.271-10.6,5.271-17.28,5.271c-2.05,0-4.04-0.19-5.95-0.551
			c-2.47-3.82-4.54-7.91-6.17-12.22L399.32,405.57z"/>
		<path style="fill:#ABD153;" d="M399.32,405.57l-36.89,10.64c-1.63-4.3-2.81-8.82-3.49-13.5h-0.01c-0.39-2.65-0.62-5.36-0.67-8.11
			c4.39-2.87,10.08-4.59,16.29-4.59C386.76,390.01,396.96,396.69,399.32,405.57z"/>
		<path style="fill:#8C469B;" d="M397.31,319.64c-7.43,3.39-12.4,9.63-12.4,16.76c0,1.33,0.17,2.63,0.5,3.89
			c-0.35,0.25-0.69,0.5-1.03,0.75l-0.65-1.26l-8.87-13.56l-26.89-41.11c9.66-5.92,20.15-10.77,31.27-14.36l19.18,48.41
			C398.04,319.31,397.67,319.47,397.31,319.64z"/>
		<path style="fill:#FFFFFF;" d="M398.48,415.79c-1.35,3.06-3.66,5.77-6.65,7.92C394.1,420.99,396.35,418.31,398.48,415.79z"/>
		<path style="fill:#EEDCEB;" d="M391.43,520.65c6.68,1.529,13.55,2.619,20.57,3.229c-12.33,25.17-25.77,48.05-40.9,69.271
			c-1.59,2.239-3.2,4.46-4.84,6.659l16.37-51.479L391.43,520.65z"/>
		<path style="fill:#ABD153;" d="M381.79,466.3c7.96,8.87,12.13,17.05,9.63,19.72c-2.24,2.37-9.16-0.27-17.26-6.09L381.79,466.3z"/>
		<path style="fill:#EEDCEB;" d="M391.43,520.65l-8.8,27.68l-16.37,51.479c-16.61,22.421-35.23,43.011-56.56,62.561
			c-17.11,15.67-35.49,23.2-48.72,20l38.8-69.36l46.98-84.069l11.37-20.33C368.51,513.87,379.67,517.94,391.43,520.65z"/>
		<path style="fill:#8C469B;" d="M391.06,449.72l-7.63,13.641l-2.59,1.899c-1.54-1.67-3.22-3.359-5.01-5.04
			c-2.83-2.66-5.68-5.04-8.41-7.08c1.35-1.64,5.51-6.68,10.78-13.05C382.06,443.8,386.37,447.04,391.06,449.72z"/>
		<path style="fill:#ABD153;" d="M381.79,466.3l-7.63,13.63c-2.07-1.489-4.22-3.189-6.38-5.069l13.06-9.601
			C381.16,465.61,381.48,465.95,381.79,466.3z"/>
		<path style="fill:#ABD153;" d="M367.42,453.14c2.73,2.04,5.58,4.42,8.41,7.08c1.79,1.681,3.47,3.37,5.01,5.04l-13.06,9.601
			c-1.03-0.88-2.06-1.811-3.09-2.78c-8.6-8.07-14.65-16.47-16.01-21.65l8.3-3.6C360,448.13,363.6,450.3,367.42,453.14z"/>
		<path style="fill:#EEDCEB;" d="M334.8,221.74c-3.91-26.18-7.64-57.39-8.19-83.75l6.07,15.31l35.49,89.53l11.07,27.92
			c-11.12,3.59-21.61,8.44-31.27,14.36l-4.69-7.17l1.12-0.73C344.4,277.21,339.48,253.08,334.8,221.74z"/>
		<path style="fill:#8C469B;" d="M376.48,438.37l-19.5,8.46c-3.74-1.62-6.59-1.92-7.88-0.55c-0.81,0.87-0.92,2.31-0.42,4.149
			l-39.4,17.101c-7.01-9.521-12.69-19.95-16.79-31.05l1.22-0.45l58.81-16.96c3.4,4.63,9.19,8.09,16.08,9.36
			C370.9,432,373.54,435.33,376.48,438.37z"/>
		<path style="fill:#8C469B;" d="M347.97,285.11l26.89,41.11l-1.03,0.68c-0.28-0.43-0.63-0.75-1.04-0.95
			c-3.66-1.8-11.4,6.33-18.07,18.62l-36.39-35.07C326.91,300.14,336.89,291.92,347.97,285.11z"/>
		<path style="fill:#8C469B;" d="M349.73,488.13l18.05-13.27c2.16,1.88,4.31,3.58,6.38,5.069l-16.03,28.681
			c-6.97-3.53-13.57-7.591-19.76-12.13L349.73,488.13z"/>
		<path style="fill:#ABD153;" d="M373.83,326.9c2.45,3.76-0.16,15.77-6.48,28.69c-0.13,0.26-0.26,0.52-0.39,0.78l-12.24-11.8
			c6.67-12.29,14.41-20.42,18.07-18.62C373.2,326.15,373.55,326.47,373.83,326.9z"/>
		<path style="fill:#8C469B;" d="M367.78,474.86l-18.05,13.27c-4.38,2.43-8.75,4.78-13.12,7.04
			c-10.48-7.939-19.69-17.25-27.33-27.64l39.4-17.101c1.36,5.181,7.41,13.58,16.01,21.65C365.72,473.05,366.75,473.98,367.78,474.86
			z"/>
		<path style="fill:#ABD153;" d="M354.72,344.57l12.24,11.8c-0.17,0.35-0.35,0.7-0.53,1.04l-14.34-7.62c0.2-0.45,0.42-0.9,0.64-1.35
			C353.38,347.11,354.05,345.82,354.72,344.57z"/>
		<path style="fill:#ABD153;" d="M352.09,349.79l14.34,7.62c-4.7,9.17-10.11,16.34-14.3,19.36l-6.66-1.96
			C344.73,369.84,347.17,360.19,352.09,349.79z"/>
		<path style="fill:#FFFFFF;" d="M362.43,416.21c1.63,4.31,3.7,8.4,6.17,12.22c-6.89-1.27-12.68-4.729-16.08-9.36L362.43,416.21z"/>
		<path style="fill:#ABD153;" d="M362.43,416.21l-9.91,2.86c-2.08-2.83-3.26-6.09-3.26-9.57c0-2.47,0.6-4.83,1.68-7l6.89,0.37
			l1.1-0.16h0.01C359.62,407.39,360.8,411.91,362.43,416.21z"/>
		<path style="fill:#8C469B;" d="M284.97,389.36c0.4-10.65,2.18-20.98,5.17-30.83l55.33,16.28c0.25,1.65,0.85,2.79,1.82,3.27
			c1.22,0.6,2.9,0.09,4.84-1.31l7.66,2.26c-1.02,4.56-1.55,9.3-1.55,14.16c0,0.47,0.01,0.94,0.02,1.41c-3.23,2.09-5.77,4.8-7.32,7.9
			l-65.96-3.54c-0.07-1.64-0.1-3.29-0.1-4.94C284.88,392.46,284.91,390.91,284.97,389.36z"/>
		<path style="fill:#FFFFFF;" d="M358.93,402.71l-1.1,0.16l-6.89-0.37c1.55-3.1,4.09-5.81,7.32-7.9
			C358.31,397.35,358.54,400.06,358.93,402.71z"/>
		<path style="fill:#EEDCEB;" d="M358.13,508.61l-11.37,20.33l-46.98,84.069l-38.8,69.36c-12.99-3.15-21.03-16.64-18.05-42.92
			c2.83-25.01,16.31-62.28,29.77-94.69l45.94-33.779l19.73-14.5C344.56,501.02,351.16,505.08,358.13,508.61z"/>
		<path style="fill:#231F20;" d="M356.98,446.83l-8.3,3.6c-0.5-1.84-0.39-3.279,0.42-4.149
			C350.39,444.91,353.24,445.21,356.98,446.83z"/>
		<path style="fill:#50264B;" d="M318.33,309.5l36.39,35.07c-0.67,1.25-1.34,2.54-1.99,3.87c-0.22,0.45-0.44,0.9-0.64,1.35
			l-46.16-24.51C309.64,319.73,313.79,314.46,318.33,309.5z"/>
		<path style="fill:#8C469B;" d="M352.52,419.07l-58.81,16.96l-1.22,0.45c-4.39-11.831-6.99-24.431-7.51-37.521l65.96,3.54
			c-1.08,2.17-1.68,4.53-1.68,7C349.26,412.98,350.44,416.24,352.52,419.07z"/>
		<path style="fill:#231F20;" d="M345.47,374.81l6.66,1.96c-1.94,1.4-3.62,1.91-4.84,1.31C346.32,377.6,345.72,376.46,345.47,374.81
			z"/>
		<path style="fill:#8C469B;" d="M305.93,325.28l46.16,24.51c-4.92,10.4-7.36,20.05-6.62,25.02l-55.33-16.28
			C293.74,346.68,299.09,335.51,305.93,325.28z"/>
		<path style="fill:#FFFFFF;" d="M286.97,279.26l-39.72-38.28c-1.14-2.98-2.26-5.99-3.35-9.03c-12.98-36.27-0.4-66,36.58-50.01
			l50.01,76.45l12.79,19.55l4.69,7.17c-11.08,6.81-21.06,15.03-29.64,24.39l-17.57-16.94L286.97,279.26z"/>
		<path style="fill:#FFFFFF;" d="M344.4,277.21l-1.12,0.73l-12.79-19.55l-50.01-76.45c2.53,1.09,5.18,2.4,7.94,3.94
			c13.61,7.58,30.13,21.02,46.38,35.86C339.48,253.08,344.4,277.21,344.4,277.21z"/>
		<path style="fill:#EEDCEB;" d="M283.98,518.57c-27.37,10.149-55.42,17.41-85.3,22.09c-18.68,2.92-35.06,0.87-45.49-5.38
			l48.45-21.03l88.35-38.35l19.29-8.37c7.64,10.39,16.85,19.7,27.33,27.64C319.14,504.23,301.7,512.01,283.98,518.57z"/>
		<path style="fill:#EEDCEB;" d="M300.76,292.56l17.57,16.94c-4.54,4.96-8.69,10.23-12.4,15.78l-16.3-8.66l-85.06-45.16
			l-55.22-29.33c2.89-0.11,5.99-0.07,9.29,0.14c25.99,1.61,65.68,13.93,99.5,26.14c10.35,3.73,20.15,7.46,28.83,10.85L300.76,292.56
			z"/>
		<path style="fill:#EEDCEB;" d="M186.28,456.09c27.01-21.689,61.39-43.87,84.17-57.91l0.08,0.01l14.45,0.77
			c0.52,13.09,3.12,25.69,7.51,37.521c4.1,11.1,9.78,21.529,16.79,31.05l-19.29,8.37l-88.35,38.35l-48.45,21.03
			c-14.95-8.971-17.69-26.601,2.57-50.67C163.22,475.75,173.98,465.97,186.28,456.09z"/>
		<path style="fill:#EEDCEB;" d="M289.63,316.62l16.3,8.66c-6.84,10.23-12.19,21.4-15.79,33.25l-19.12-5.63l-92.39-27.2l-33.6-9.89
			c-1.97-1.87-3.94-3.77-5.89-5.7c-30.71-30.27-33.55-66.36,10.21-67.98l55.22,29.33L289.63,316.62z"/>
		<path style="fill:#EEDCEB;" d="M271.02,352.9l19.12,5.63c-2.99,9.85-4.77,20.18-5.17,30.83c-3.93,2.36-8.87,5.34-14.52,8.82
			l-4.14-0.25c-46.23-21.58-85.23-47.79-121.28-82.12l33.6,9.89L271.02,352.9z"/>
	</g>
	<g>
		<path style="fill:none;stroke:#231F20;stroke-width:14;" d="M490.48,274.63c0,0,26.529-31.49,58.3-64.09
			c15.14-15.54,31.47-31.32,46.68-44.08c11.25-9.43,21.89-17.2,30.99-21.99c41.27-21.72,57.92,2.91,50.39,38.06
			c-1.09,5.09-2.689,10.4-4.8,15.83c-16.56,42.68-38.01,79.97-66.24,115.64c-4.52,5.72-9.229,11.4-14.109,17.05"/>
		<path style="fill:none;stroke:#231F20;stroke-width:14;" d="M449.41,217.24c0.32-0.8,0.63-1.6,0.95-2.4
			c4.38-10.95,9.1-22,13.97-32.3c6.72-14.22,13.74-27.04,20.62-36.27c22.95-30.79,44.28-24.09,54.12-0.23
			c2.8,6.77,4.66,14.92,5.38,23.99c1.02,12.94,1.41,25.66,1.18,38.28"/>
		<path style="fill:none;stroke:#231F20;stroke-width:14;" d="M541.33,480.24c12.53,19.59,21.85,42.29,28.62,64.16
			c2.45,7.89,4.56,15.67,6.37,23.159c7.35,30.36,9.779,55.94,9.37,64.45c-1.15,24.04-10.011,35.51-21.74,37.2
			c-12.3,1.78-27.79-7.19-40.891-23.69c-5.13-6.47-25.649-35.689-46.31-68.689c-11.14-17.8-22.32-36.7-31.16-53.73
			c-0.54-1.04-1.07-2.069-1.59-3.1"/>
		<path style="fill:none;stroke:#231F20;stroke-width:14;" d="M550.17,329.91c0,0,8.4,0.73,21.72,2.19
			c5.67,0.62,12.221,1.38,19.4,2.27c25.5,3.16,58.85,8.01,88.06,14.59c19.341,4.36,36.87,9.47,49.101,15.36
			c27.97,13.47,32.939,30.39,23.5,44.58c-6.8,10.23-21.09,19.05-39.66,24.14c-29.17,7.99-57.72,12.87-86.85,14.83
			c-23.391,1.6-47.15,1.31-71.91-0.75c-5.15-0.43-10.351-0.93-15.59-1.51"/>
		<path style="fill:none;stroke:#231F20;stroke-width:14;" d="M623.8,446.41c0.54,0.479,1.09,0.97,1.641,1.46
			c8.26,7.39,17.39,15.76,26.63,24.59c23.89,22.83,48.46,48.76,60.37,68.82c27.239,45.939-7.851,62.72-51.511,48.29
			c-20.25-6.7-56.949-26.78-82.149-40.49c-3.09-1.68-6.011-3.271-8.71-4.72"/>
		<path style="fill:none;stroke:#231F20;stroke-width:14;" d="M344.4,277.21c0,0-4.92-24.13-9.6-55.47
			c-3.91-26.18-7.64-57.39-8.19-83.75c-0.25-12,0.16-23,1.51-32.06c7.89-52.82,45.69-43.67,70.42-4.91
			c4.19,6.57,8.17,13.16,11.95,19.79c17.08,29.95,30.08,60.73,39.87,94.03c2.08,7.05,4,14.21,5.79,21.51
			c2.21,8.95,4.199,18.1,6.01,27.48"/>
		<polyline style="fill:none;stroke:#231F20;stroke-width:13.2651;" points="494.52,440.19 496.54,441.41 500.43,443.76 		"/>
		<polyline style="fill:none;stroke:#231F20;stroke-width:13.2651;" points="399.32,405.57 409.8,402.55 420.5,399.46 
			422.37,398.92 424.98,398.17 456.11,416.98 		"/>
		<line style="fill:none;stroke:#231F20;stroke-width:13.2651;" x1="293.71" y1="436.03" x2="352.52" y2="419.07"/>
		<line style="fill:none;stroke:#231F20;stroke-width:13.2651;" x1="397.31" y1="319.64" x2="393.2" y2="306.69"/>
		<polyline style="fill:none;stroke:#231F20;stroke-width:13.2651;" points="421.67,396.51 421.18,394.96 420.98,394.33 
			408.78,355.84 		"/>
		<path style="fill:none;stroke:#231F20;stroke-width:13.2651;" d="M483.14,312.96c1.561,1.64,2.24,3.16,1.851,4.42
			c-0.58,1.81-3.33,2.78-7.471,2.92c-2.01,0.07-4.35-0.05-6.939-0.37c-4.64-0.57-10.061-1.75-15.72-3.54
			c-1.351-0.43-2.681-0.88-3.96-1.34c-2.23-0.81-4.341-1.66-6.311-2.55c-9.729-4.34-15.97-9.38-14.95-12.62
			c0.95-3.01,7.87-3.69,17.19-2.16c3.97,0.65,8.37,1.7,12.939,3.15c6.04,1.91,11.461,4.22,15.721,6.59
			C478.85,309.31,481.49,311.21,483.14,312.96z"/>
		<path style="fill:none;stroke:#231F20;stroke-width:13.2651;" d="M522.14,384.27c1.69,14.5-0.1,26.25-4.25,26.86
			c-0.109,0.02-0.229,0.02-0.34,0.02c-3.979,0-8.68-9.95-11.2-23.33c-0.26-1.37-0.5-2.79-0.71-4.23
			c-0.83-5.67-1.14-11.02-0.989-15.59c0.25-8.21,1.989-13.89,4.84-14.3c2.279-0.33,4.83,2.73,7.09,7.93
			c2.15,4.96,4.03,11.86,5.16,19.61C521.89,382.26,522.02,383.27,522.14,384.27z"/>
		<polyline style="fill:none;stroke:#231F20;stroke-width:13.2651;" points="450.68,316.09 445.19,331.88 423.68,393.8 
			423.32,394.85 		"/>
		<polyline style="fill:none;stroke:#231F20;stroke-width:13.2651;" points="421.94,394.02 423.68,393.8 487.99,385.79 
			505.64,383.59 		"/>
		<line style="fill:none;stroke:#231F20;stroke-width:13.2651;" x1="369.16" y1="365.83" x2="418.91" y2="395.68"/>
		<path style="fill:none;stroke:#231F20;stroke-width:13.2651;" d="M398.48,415.79c4.67-5.56,8.78-10.37,11.32-13.24
			c1.84-2.06,2.87-3.12,2.74-2.73"/>
		<path style="fill:none;stroke:#231F20;stroke-width:13.2651;" d="M367.42,453.14c1.35-1.64,5.51-6.68,10.78-13.05
			c4.13-4.979,8.94-10.77,13.63-16.38"/>
		<path style="fill:none;stroke:#231F20;stroke-width:13.2651;" d="M420.84,400.65c1.03,0.52,11.101,32,18.53,55.62
			c2.02,6.45,3.86,12.311,5.25,16.801"/>
		<path style="fill:none;stroke:#231F20;stroke-width:13.2651;" d="M433.55,328.91c4.01,0.63,7.91,1.64,11.641,2.97
			c6.01,2.14,11.609,5.15,16.659,8.86c5.801,4.26,10.86,9.46,14.971,15.38c4.47,6.43,7.8,13.71,9.72,21.54
			c0.65,2.65,1.14,5.36,1.45,8.13c0.229,1.99,0.37,4.01,0.399,6.06c0.021,0.45,0.021,0.89,0.021,1.34c0,4.38-0.43,8.67-1.26,12.81"
			/>
		<path style="fill:none;stroke:#231F20;stroke-width:13.2651;" d="M358.26,394.6c-0.01-0.47-0.02-0.94-0.02-1.41
			c0-4.86,0.53-9.6,1.55-14.16c1.08-4.92,2.73-9.62,4.87-14.05c1.09-2.27,2.31-4.47,3.65-6.58c0.09-0.15,0.19-0.3,0.29-0.45
			c4.21-6.53,9.57-12.26,15.78-16.91c0.34-0.25,0.68-0.5,1.03-0.75"/>
		<path style="fill:none;stroke:#231F20;stroke-width:13.2651;" d="M466.93,441.49c-0.88,0.8-1.779,1.58-2.71,2.319
			c-6.069,4.91-13.029,8.75-20.62,11.23c-1.39,0.46-2.8,0.87-4.229,1.229c-1.22,0.32-2.47,0.591-3.72,0.83
			c-3.99,0.771-8.11,1.17-12.331,1.17c-4,0-7.92-0.359-11.73-1.06c-5.01-0.91-9.82-2.39-14.35-4.39c-2.13-0.92-4.19-1.96-6.18-3.101
			c-4.69-2.68-9-5.92-12.86-9.63c-0.58-0.56-1.16-1.14-1.72-1.72c-2.94-3.04-5.58-6.37-7.88-9.94"/>
		<path style="fill:none;stroke:#231F20;stroke-width:14;" d="M322.76,293.92c0,0-14.62-6.38-35.79-14.66
			c-8.68-3.39-18.48-7.12-28.83-10.85c-33.82-12.21-73.51-24.53-99.5-26.14c-3.3-0.21-6.4-0.25-9.29-0.14
			c-43.76,1.62-40.92,37.71-10.21,67.98c1.95,1.93,3.92,3.83,5.89,5.7c36.05,34.33,75.05,60.54,121.28,82.12
			c0.17,0.08,0.35,0.17,0.53,0.25"/>
		<path style="fill:none;stroke:#231F20;stroke-width:14;" d="M335.18,222.09c-0.13-0.12-0.25-0.23-0.38-0.35
			c-16.25-14.84-32.77-28.28-46.38-35.86c-2.76-1.54-5.41-2.85-7.94-3.94c-36.98-15.99-49.56,13.74-36.58,50.01
			c1.09,3.04,2.21,6.05,3.35,9.03c3.47,9.02,7.22,17.79,11.27,26.36"/>
		<path style="fill:none;stroke:#231F20;stroke-width:14;" d="M372.69,594.27c5.95,28.221,13.75,57.711,23.04,75.95
			c6.3,12.391,13.22,19.9,20.14,23.4c17.63,8.939,35.25-8.11,42.52-36.76c2.311-9.11,10.591-40.88,15.98-78.53"/>
		<path style="fill:none;stroke:#231F20;stroke-width:14;" d="M294.96,383.48c0,0-3.72,2.14-9.99,5.88
			c-3.93,2.36-8.87,5.34-14.52,8.82c-22.78,14.04-57.16,36.22-84.17,57.91c-12.3,9.88-23.06,19.66-30.52,28.521
			c-20.26,24.069-17.52,41.699-2.57,50.67c10.43,6.25,26.81,8.3,45.49,5.38c29.88-4.68,57.93-11.94,85.3-22.09
			c17.72-6.561,35.16-14.34,52.63-23.4c4.37-2.26,8.74-4.61,13.12-7.04c4.36-2.42,8.73-4.92,13.11-7.5"/>
		<path style="fill:none;stroke:#231F20;stroke-width:14;" d="M284.87,516.57c-0.29,0.66-0.59,1.33-0.89,2
			c-3.59,8.069-7.43,16.93-11.28,26.189c-13.46,32.41-26.94,69.681-29.77,94.69c-2.98,26.28,5.06,39.77,18.05,42.92
			c13.23,3.2,31.61-4.33,48.72-20c21.33-19.55,39.95-40.14,56.56-62.561c1.64-2.199,3.25-4.42,4.84-6.659
			c15.13-21.221,28.57-44.101,40.9-69.271c0.4-0.8,0.79-1.6,1.18-2.399"/>
		<path style="fill:none;stroke:#231F20;stroke-width:21;" d="M578,552c0,0,9.75,13.04,19.64,39.07
			c14.78,38.88,29.891,106.75,13.33,203.46"/>
		<polyline style="fill:none;stroke:#231F20;stroke-width:13.2651;" points="416.21,232.6 417.81,263.76 420.62,318.65 		"/>
		<line style="fill:none;stroke:#231F20;stroke-width:13.2651;" x1="411.29" y1="136.42" x2="416.21" y2="232.6"/>
		<polyline style="fill:none;stroke:#231F20;stroke-width:13.2651;" points="407.22,57.04 410.49,120.81 411.29,136.42 		"/>
		<polyline style="fill:none;stroke:#231F20;stroke-width:13.2651;" points="456.95,231.1 456.15,236.35 451.67,265.88 
			446.83,297.72 444.59,312.5 442.35,327.25 		"/>
		<polyline style="fill:none;stroke:#231F20;stroke-width:13.2651;" points="471.42,135.89 464.33,182.54 456.95,231.1 		"/>
		<line style="fill:none;stroke:#231F20;stroke-width:13.2651;" x1="483.35" y1="57.31" x2="471.42" y2="135.89"/>
		<polyline style="fill:none;stroke:#231F20;stroke-width:13.2651;" points="498.19,249.82 488.7,273.93 487.47,277.05 
			475.49,307.46 470.58,319.93 462.94,339.31 462.55,340.31 		"/>
		<line style="fill:none;stroke:#231F20;stroke-width:13.2651;" x1="533.49" y1="160.21" x2="498.19" y2="249.82"/>
		<polyline style="fill:none;stroke:#231F20;stroke-width:13.2651;" points="562.61,86.26 539.07,146.04 533.49,160.21 		"/>
		<polyline style="fill:none;stroke:#231F20;stroke-width:13.2651;" points="518.32,267.08 503.87,285.93 483.14,312.96 
			477.52,320.3 462.94,339.31 461.85,340.74 459.15,344.26 		"/>
		<line style="fill:none;stroke:#231F20;stroke-width:13.2651;" x1="576.92" y1="190.65" x2="518.32" y2="267.08"/>
		<polyline style="fill:none;stroke:#231F20;stroke-width:13.2651;" points="625.27,127.57 595.46,166.46 576.92,190.65 		"/>
		<polyline style="fill:none;stroke:#231F20;stroke-width:13.2651;" points="550.31,292.35 531.47,308.7 476.87,356.09 		"/>
		<line style="fill:none;stroke:#231F20;stroke-width:13.2651;" x1="623.04" y1="229.22" x2="550.31" y2="292.35"/>
		<polyline style="fill:none;stroke:#231F20;stroke-width:13.2651;" points="683.07,177.12 676.84,182.53 623.04,229.22 		"/>
		<polyline style="fill:none;stroke:#231F20;stroke-width:13.2651;" points="569.58,333.33 553.9,341.7 516.58,361.63 504.65,368 
			486.54,377.66 483.79,379.13 		"/>
		<polyline style="fill:none;stroke:#231F20;stroke-width:13.2651;" points="654.54,287.98 605.8,314 571.89,332.1 569.58,333.33 		
			"/>
		<line style="fill:none;stroke:#231F20;stroke-width:13.2651;" x1="724.66" y1="250.54" x2="654.54" y2="287.98"/>
		<polyline style="fill:none;stroke:#231F20;stroke-width:13.2651;" points="575.81,372.21 564.14,374.83 522.14,384.27 
			506.35,387.82 488.39,391.85 480.93,393.53 		"/>
		<line style="fill:none;stroke:#231F20;stroke-width:13.2651;" x1="669.78" y1="351.11" x2="575.81" y2="372.21"/>
		<polyline style="fill:none;stroke:#231F20;stroke-width:13.2651;" points="747.33,333.67 679.35,348.96 669.78,351.11 		"/>
		<polyline style="fill:none;stroke:#231F20;stroke-width:13.2651;" points="584.18,412.11 564.25,412.49 517.59,413.38 
			500.43,413.71 		"/>
		<line style="fill:none;stroke:#231F20;stroke-width:13.2651;" x1="680.47" y1="410.27" x2="584.18" y2="412.11"/>
		<polyline style="fill:none;stroke:#231F20;stroke-width:13.2651;" points="759.94,408.75 751.95,408.9 680.47,410.27 		"/>
		<polyline style="fill:none;stroke:#231F20;stroke-width:13.2651;" points="572.7,455.93 551.33,451.48 495.19,439.78 		"/>
		<polyline style="fill:none;stroke:#231F20;stroke-width:13.2651;" points="666.99,475.57 652.07,472.46 572.7,455.93 		"/>
		<line style="fill:none;stroke:#231F20;stroke-width:13.2651;" x1="744.8" y1="491.77" x2="666.99" y2="475.57"/>
		<polyline style="fill:none;stroke:#231F20;stroke-width:13.2651;" points="554.58,483.94 544.2,476.33 537.99,471.78 
			496.54,441.41 494.71,440.07 		"/>
		<line style="fill:none;stroke:#231F20;stroke-width:13.2651;" x1="632.25" y1="540.89" x2="554.58" y2="483.94"/>
		<line style="fill:none;stroke:#231F20;stroke-width:13.2651;" x1="696.37" y1="587.85" x2="632.25" y2="540.89"/>
		<polyline style="fill:none;stroke:#231F20;stroke-width:13.2651;" points="530.02,516.48 512,496.6 464.71,444.43 		"/>
		<polyline style="fill:none;stroke:#231F20;stroke-width:13.2651;" points="594.7,587.83 576.32,567.56 530.02,516.48 		"/>
		<polyline style="fill:none;stroke:#231F20;stroke-width:13.2651;" points="648.08,646.71 597.64,591.07 594.7,587.83 		"/>
		<polyline style="fill:none;stroke:#231F20;stroke-width:13.2651;" points="453.04,471.84 443.6,455.04 441.81,451.86 		"/>
		<polyline style="fill:none;stroke:#231F20;stroke-width:13.2651;" points="489.44,536.63 477.38,515.17 463.66,490.75 		"/>
		<line style="fill:none;stroke:#231F20;stroke-width:13.2651;" x1="536.63" y1="620.6" x2="489.44" y2="536.63"/>
		<polyline style="fill:none;stroke:#231F20;stroke-width:13.2651;" points="575.57,689.88 563.95,669.21 536.63,620.6 		"/>
		<polyline style="fill:none;stroke:#231F20;stroke-width:13.2651;" points="368.17,242.83 379.24,270.75 398.42,319.16 		"/>
		<line style="fill:none;stroke:#231F20;stroke-width:13.2651;" x1="332.68" y1="153.3" x2="368.17" y2="242.83"/>
		<polyline style="fill:none;stroke:#231F20;stroke-width:13.2651;" points="303.39,79.41 326.61,137.99 332.68,153.3 		"/>
		<polyline style="fill:none;stroke:#231F20;stroke-width:13.2651;" points="330.49,258.39 343.28,277.94 347.97,285.11 
			374.86,326.22 383.73,339.78 		"/>
		<polyline style="fill:none;stroke:#231F20;stroke-width:13.2651;" points="277.77,177.8 280.48,181.94 330.49,258.39 		"/>
		<line style="fill:none;stroke:#231F20;stroke-width:13.2651;" x1="234.26" y1="111.29" x2="277.77" y2="177.8"/>
		<polyline style="fill:none;stroke:#231F20;stroke-width:13.2651;" points="366.96,356.37 368.6,357.95 370,359.3 370.78,360.05 		
			"/>
		<polyline style="fill:none;stroke:#231F20;stroke-width:13.2651;" points="300.76,292.56 318.33,309.5 354.72,344.57 		"/>
		<polyline style="fill:none;stroke:#231F20;stroke-width:13.2651;" points="231.42,225.72 247.25,240.98 286.97,279.26 
			300.76,292.56 		"/>
		<line style="fill:none;stroke:#231F20;stroke-width:13.2651;" x1="174.19" y1="170.56" x2="231.42" y2="225.72"/>
		<polyline style="fill:none;stroke:#231F20;stroke-width:13.2651;" points="366.43,357.41 368.31,358.4 370,359.3 375.52,362.23 		
			"/>
		<polyline style="fill:none;stroke:#231F20;stroke-width:13.2651;" points="289.63,316.62 305.93,325.28 352.09,349.79 		"/>
		<line style="fill:none;stroke:#231F20;stroke-width:13.2651;" x1="204.57" y1="271.46" x2="289.63" y2="316.62"/>
		<polyline style="fill:none;stroke:#231F20;stroke-width:13.2651;" points="134.37,234.17 149.35,242.13 204.57,271.46 		"/>
		<polyline style="fill:none;stroke:#231F20;stroke-width:13.2651;" points="352.13,376.77 359.79,379.03 364.32,380.36 		"/>
		<polyline style="fill:none;stroke:#231F20;stroke-width:13.2651;" points="271.02,352.9 290.14,358.53 345.47,374.81 		"/>
		<line style="fill:none;stroke:#231F20;stroke-width:13.2651;" x1="178.63" y1="325.7" x2="271.02" y2="352.9"/>
		<polyline style="fill:none;stroke:#231F20;stroke-width:13.2651;" points="102.39,303.26 145.03,315.81 178.63,325.7 		"/>
		<polyline style="fill:none;stroke:#231F20;stroke-width:13.2651;" points="270.53,398.19 284.98,398.96 350.94,402.5 		"/>
		<polyline style="fill:none;stroke:#231F20;stroke-width:13.2651;" points="174.4,392.24 266.31,397.93 270.45,398.18 
			270.53,398.19 		"/>
		<line style="fill:none;stroke:#231F20;stroke-width:13.2651;" x1="95.07" y1="387.32" x2="174.4" y2="392.24"/>
		<line style="fill:none;stroke:#231F20;stroke-width:13.2651;" x1="186.78" y1="455.99" x2="281.02" y2="436.14"/>
		<polyline style="fill:none;stroke:#231F20;stroke-width:13.2651;" points="109,472.35 186.28,456.09 186.78,455.99 		"/>
		<polyline style="fill:none;stroke:#231F20;stroke-width:13.2651;" points="356.98,446.83 376.48,438.37 379.19,437.19 		"/>
		<polyline style="fill:none;stroke:#231F20;stroke-width:13.2651;" points="289.99,475.9 309.28,467.53 348.68,450.43 		"/>
		<line style="fill:none;stroke:#231F20;stroke-width:13.2651;" x1="201.64" y1="514.25" x2="289.99" y2="475.9"/>
		<polyline style="fill:none;stroke:#231F20;stroke-width:13.2651;" points="128.73,545.89 153.19,535.28 201.64,514.25 		"/>
		<polyline style="fill:none;stroke:#231F20;stroke-width:13.2651;" points="380.84,465.26 383.43,463.36 396.99,453.39 		"/>
		<polyline style="fill:none;stroke:#231F20;stroke-width:13.2651;" points="318.64,510.98 338.37,496.48 349.73,488.13 
			367.78,474.86 		"/>
		<polyline style="fill:none;stroke:#231F20;stroke-width:13.2651;" points="241.04,568.04 272.7,544.76 318.64,510.98 		"/>
		<line style="fill:none;stroke:#231F20;stroke-width:13.2651;" x1="177" y1="615.12" x2="241.04" y2="568.04"/>
		<polyline style="fill:none;stroke:#231F20;stroke-width:13.2651;" points="381.79,466.3 383.43,463.36 391.06,449.72 
			394.22,444.06 		"/>
		<polyline style="fill:none;stroke:#231F20;stroke-width:13.2651;" points="346.76,528.94 358.13,508.61 374.16,479.93 		"/>
		<line style="fill:none;stroke:#231F20;stroke-width:13.2651;" x1="299.78" y1="613.01" x2="346.76" y2="528.94"/>
		<polyline style="fill:none;stroke:#231F20;stroke-width:13.2651;" points="260.98,682.38 260.98,682.37 299.78,613.01 		"/>
		<polyline style="fill:none;stroke:#231F20;stroke-width:13.2651;" points="382.63,548.33 391.43,520.65 411.59,457.21 
			412.09,455.65 		"/>
		<polyline style="fill:none;stroke:#231F20;stroke-width:13.2651;" points="353.44,640.11 366.26,599.81 382.63,548.33 		"/>
		<line style="fill:none;stroke:#231F20;stroke-width:13.2651;" x1="329.36" y1="715.86" x2="353.44" y2="640.11"/>
		<polyline style="fill:none;stroke:#231F20;stroke-width:13.2651;" points="434.06,476.09 435.65,457.1 436,452.89 		"/>
		<polyline style="fill:none;stroke:#231F20;stroke-width:13.2651;" points="427.91,549.8 430.03,524.38 432.33,496.91 		"/>
		<line style="fill:none;stroke:#231F20;stroke-width:13.2651;" x1="419.88" y1="645.78" x2="427.91" y2="549.8"/>
		<polyline style="fill:none;stroke:#231F20;stroke-width:13.2651;" points="413.25,724.98 415.87,693.62 419.88,645.78 		"/>
		<path style="fill:none;stroke:#231F20;stroke-width:6.6326;" d="M433.55,328.91c1.25,2.3,1.94,4.83,1.94,7.49
			c0,10.76-11.32,19.48-25.29,19.48c-0.48,0-0.95-0.01-1.42-0.04c-11.61-0.49-21.12-7-23.37-15.55c-0.33-1.26-0.5-2.56-0.5-3.89
			c0-7.13,4.97-13.37,12.4-16.76c0.36-0.17,0.73-0.33,1.11-0.48c3.52-1.43,7.53-2.24,11.78-2.24c3.71,0,7.24,0.62,10.42,1.73
			C426.44,320.67,431.09,324.35,433.55,328.91z"/>
		<path style="fill:none;stroke:#231F20;stroke-width:13.2651;" d="M352.13,376.77c-1.94,1.4-3.62,1.91-4.84,1.31
			c-0.97-0.48-1.57-1.62-1.82-3.27c-0.74-4.97,1.7-14.62,6.62-25.02c0.2-0.45,0.42-0.9,0.64-1.35c0.65-1.33,1.32-2.62,1.99-3.87
			c6.67-12.29,14.41-20.42,18.07-18.62c0.41,0.2,0.76,0.52,1.04,0.95c2.45,3.76-0.16,15.77-6.48,28.69
			c-0.13,0.26-0.26,0.52-0.39,0.78c-0.17,0.35-0.35,0.7-0.53,1.04C361.73,366.58,356.32,373.75,352.13,376.77z"/>
		<path style="fill:none;stroke:#231F20;stroke-width:6.6326;" d="M500.43,413.71c2.7,3.1,4.28,6.83,4.28,10.84
			c0,6.17-3.72,11.67-9.52,15.23c-0.16,0.1-0.32,0.2-0.48,0.29c-0.06,0.04-0.12,0.08-0.19,0.12c-4.21,2.42-9.439,3.85-15.1,3.85
			c-4.54,0-8.81-0.92-12.49-2.55c-7.64-3.34-12.8-9.681-12.8-16.94c0-2.69,0.71-5.25,1.98-7.57c3.84-7,12.84-11.91,23.31-11.91
			c2.7,0,5.29,0.33,7.73,0.93C492.63,407.35,497.29,410.1,500.43,413.71z"/>
		<path style="fill:none;stroke:#231F20;stroke-width:13.2651;" d="M453.04,471.84c11.81-0.97,21.04,1.55,22.09,6.561
			c0.84,4.029-3.81,8.689-11.47,12.35c-4.12,1.97-9.12,3.65-14.601,4.79c-6.069,1.27-11.85,1.69-16.729,1.37
			c-7.74-0.5-13.23-2.86-14.02-6.65c-0.99-4.74,5.6-10.34,15.75-14.17c3.131-1.189,6.61-2.2,10.311-2.97
			c0.08-0.021,0.17-0.03,0.25-0.05C447.52,472.47,450.35,472.07,453.04,471.84z"/>
		<path style="fill:none;stroke:#231F20;stroke-width:13.2651;" d="M381.79,466.3c7.96,8.87,12.13,17.05,9.63,19.72
			c-2.24,2.37-9.16-0.27-17.26-6.09c-2.07-1.489-4.22-3.189-6.38-5.069c-1.03-0.88-2.06-1.811-3.09-2.78
			c-8.6-8.07-14.65-16.47-16.01-21.65c-0.5-1.84-0.39-3.279,0.42-4.149c1.29-1.37,4.14-1.07,7.88,0.55
			c3.02,1.3,6.62,3.47,10.44,6.31c2.73,2.04,5.58,4.42,8.41,7.08c1.79,1.681,3.47,3.37,5.01,5.04
			C381.16,465.61,381.48,465.95,381.79,466.3z"/>
		<path style="fill:none;stroke:#231F20;stroke-width:13.2651;" d="M399.32,405.57c0.33,1.27,0.51,2.59,0.51,3.93
			c0,2.2-0.47,4.32-1.35,6.29c-1.35,3.06-3.66,5.77-6.65,7.92c-4.52,3.271-10.6,5.271-17.28,5.271c-2.05,0-4.04-0.19-5.95-0.551
			c-6.89-1.27-12.68-4.729-16.08-9.36c-2.08-2.83-3.26-6.09-3.26-9.57c0-2.47,0.6-4.83,1.68-7c1.55-3.1,4.09-5.81,7.32-7.9
			c4.39-2.87,10.08-4.59,16.29-4.59C386.76,390.01,396.96,396.69,399.32,405.57z"/>
		<path style="fill:none;stroke:#231F20;stroke-width:21;" d="M564.14,374.83c1,6.26,1.511,12.67,1.511,19.19
			c0,6.27-0.48,12.44-1.4,18.47c-1.85,12.16-5.51,23.79-10.72,34.63c-0.7,1.47-1.431,2.92-2.2,4.36
			c-3.78,7.159-8.26,13.949-13.34,20.3c-7.44,9.3-16.19,17.649-25.99,24.819c-10.45,7.631-22.09,13.92-34.62,18.57
			c-10.07,3.75-20.72,6.44-31.79,7.93c-5.1,0.69-10.29,1.12-15.56,1.28c-1.58,0.061-3.17,0.08-4.76,0.08
			c-4.48,0-8.9-0.19-13.27-0.58c-7.02-0.61-13.89-1.7-20.57-3.229c-11.76-2.71-22.92-6.78-33.3-12.04
			c-6.97-3.53-13.57-7.591-19.76-12.13c-0.59-0.431-1.18-0.87-1.76-1.311c-10.48-7.939-19.69-17.25-27.33-27.64
			c-7.01-9.521-12.69-19.95-16.79-31.05c-4.39-11.831-6.99-24.431-7.51-37.521c-0.07-1.64-0.1-3.29-0.1-4.94
			c0-1.56,0.03-3.11,0.09-4.66c0.4-10.65,2.18-20.98,5.17-30.83c3.6-11.85,8.95-23.02,15.79-33.25c3.71-5.55,7.86-10.82,12.4-15.78
			c8.58-9.36,18.56-17.58,29.64-24.39c9.66-5.92,20.15-10.77,31.27-14.36c12.18-3.92,25.12-6.33,38.57-6.99
			c2.47-0.12,4.96-0.18,7.46-0.18c9.02,0,17.85,0.79,26.4,2.3c12.61,2.23,24.63,6.03,35.8,11.17c5.7,2.62,11.17,5.59,16.4,8.88
			c10.24,6.44,19.52,14.11,27.6,22.77c6.23,6.7,11.74,13.98,16.42,21.76c2.19,3.64,4.2,7.39,6.011,11.24
			C558.81,352.1,562.3,363.21,564.14,374.83z"/>
	</g>
</g>
<rect style="fill:none;" width="850.394" height="850.394"/>
</svg>
