<?xml version="1.0" encoding="iso-8859-1"?>
<!-- Generator: Adobe Illustrator 12.0.1, SVG Export Plug-In . SVG Version: 6.00 Build 51448)  -->
<!DOCTYPE svg PUBLIC "-//W3C//DTD SVG 1.1//EN" "http://www.w3.org/Graphics/SVG/1.1/DTD/svg11.dtd" [
	<!ENTITY ns_svg "http://www.w3.org/2000/svg">
	<!ENTITY ns_xlink "http://www.w3.org/1999/xlink">
]>
<svg  version="1.1" id="Layer_1" xmlns="&ns_svg;" xmlns:xlink="&ns_xlink;" width="850.394" height="850.394"
	 viewBox="0 0 850.394 850.394" style="overflow:visible;enable-background:new 0 0 850.394 850.394;" xml:space="preserve">
<g id="XMLID_1_">
	<g>
		<polygon style="fill:#FFFFC2;" points="292.39,701.33 292.39,181.92 560.06,181.92 560.06,322.45 687.2,322.45 687.2,782.26 
			292.39,782.26 		"/>
		<polygon style="fill:#FFFFC2;" points="580.78,204.82 687.2,322.45 560.06,322.45 560.06,181.92 		"/>
		<polygon style="fill:#F6CC4B;" points="560.06,181.92 292.39,181.92 292.39,701.33 160.95,701.33 160.95,100.99 270.5,100.99 
			274.38,100.99 274.38,129.66 468.12,129.66 468.12,100.99 471.9,100.99 582.85,100.99 582.85,202.95 580.78,204.82 		"/>
		<polygon style="fill:#7A7878;" points="468.12,100.99 468.12,129.66 274.38,129.66 274.38,100.99 274.38,77.4 468.12,77.4 		"/>
	</g>
	<g>
		<polygon style="fill:none;stroke:#231F20;stroke-width:21;" points="560.06,181.92 292.39,181.92 292.39,701.33 292.39,782.26 
			687.2,782.26 687.2,322.45 580.78,204.82 		"/>
		<polyline style="fill:none;stroke:#231F20;stroke-width:21;" points="560.06,180.97 560.06,181.92 560.06,322.45 687.2,322.45 		
			"/>
		<line style="fill:none;stroke:#231F20;stroke-width:21;" x1="350.06" y1="399.88" x2="631.76" y2="399.88"/>
		<line style="fill:none;stroke:#231F20;stroke-width:21;" x1="348.79" y1="508.21" x2="630.49" y2="508.21"/>
		<line style="fill:none;stroke:#231F20;stroke-width:21;" x1="348.79" y1="617.84" x2="630.49" y2="617.84"/>
		<polyline style="fill:none;stroke:#231F20;stroke-width:21;" points="293.5,701.33 292.39,701.33 160.95,701.33 160.95,100.99 
			270.5,100.99 		"/>
		<polyline style="fill:none;stroke:#231F20;stroke-width:21;" points="471.9,100.99 582.85,100.99 582.85,202.95 		"/>
		<polygon style="fill:none;stroke:#231F20;stroke-width:21;" points="468.12,100.99 468.12,129.66 274.38,129.66 274.38,100.99 
			274.38,77.4 468.12,77.4 		"/>
	</g>
</g>
<rect style="fill:none;" width="850.394" height="850.394"/>
</svg>
