<?xml version="1.0" encoding="iso-8859-1"?>
<!-- Generator: Adobe Illustrator 12.0.1, SVG Export Plug-In . SVG Version: 6.00 Build 51448)  -->
<!DOCTYPE svg PUBLIC "-//W3C//DTD SVG 1.1//EN" "http://www.w3.org/Graphics/SVG/1.1/DTD/svg11.dtd" [
	<!ENTITY ns_svg "http://www.w3.org/2000/svg">
	<!ENTITY ns_xlink "http://www.w3.org/1999/xlink">
]>
<svg  version="1.1" id="Layer_1" xmlns="&ns_svg;" xmlns:xlink="&ns_xlink;" width="850.394" height="850.394"
	 viewBox="0 0 850.394 850.394" style="overflow:visible;enable-background:new 0 0 850.394 850.394;" xml:space="preserve">
<g id="XMLID_1_">
	<g>
		<path style="fill:#231F20;" d="M509.05,127.29l-0.609,1.91c-43.19-13.96-82.88-15.01-82.88-15.01l-2.3,0.02
			c0,0-34.22,0.9-73.69,12.21c0,0,36.63-43.77,60.5-56.28c6.29-3.3,12.29-3.89,18.581-3.89c0,0,12.71,0.63,18.989,3.93
			C470.02,81.91,504.79,122.29,509.05,127.29z"/>
		<path style="fill:#394EA1;" d="M424.6,786.23c-46.85,1.27-146.12-48.891-236.06-111.761c-88.61-61.939-69.7-99.37-69.7-99.37
			l39.83-39.819c0.06,2.97,0.19,4.3,0.19,4.3s145.09,63.55,268.6,63.55c123.5,0,262.5-63.57,262.5-63.57s0.13-1.329,0.19-4.29
			l39.819,39.811c0,0,18.92,37.439-69.689,99.38C570.58,737.16,471.6,787.21,424.6,786.23z"/>
		<path style="fill:#394EA1;" d="M476.92,274.75c0.78-5.69,2.37-12.12,5.34-18.88c9.891-22.48-2.7-39.56-19.779-39.56
			c-15.57,0-19.94,4.48-30.131,5.27l-1.31-0.18c-8.48-1.26-13.36-4.99-27.57-4.99c-17.08,0-29.67,17.09-19.78,39.57
			c2.97,6.76,4.56,13.19,5.33,18.88c1.8,13.25-0.84,22.49-0.84,22.49l-0.44,3.08l-56.7-8.16l-2.7,62.05l-43.62,43.62l40.92,40.91
			v67.45h62.95l42.46,45.87l46.71-45.97h62.95v-67.45l40.92-40.92l-43.61-43.62l-2.699-62.05l-57.16,7.95l-0.4-2.87
			C477.76,297.24,475.12,288,476.92,274.75z M690.15,535.26v0.01c-0.061,2.961-0.19,4.29-0.19,4.29s-139,63.57-262.5,63.57
			c-123.51,0-268.6-63.55-268.6-63.55s-0.13-1.33-0.19-4.3c0-0.011,0-0.011,0-0.011c-0.26-12.159,0.55-51.689,15.48-139.58
			c23.38-137.6,54.76-187.05,91.73-224.02c23.14-23.13,54.81-36.97,83.69-45.25c39.47-11.31,73.69-12.21,73.69-12.21l2.3-0.02
			c0,0,39.69,1.05,82.88,15.01c26.25,8.49,53.8,21.76,74.5,42.46c36.97,36.96,68.35,86.42,91.729,224.01
			C689.61,483.59,690.41,523.12,690.15,535.26z"/>
		<path style="fill:#C8C8C8;" d="M431.35,341.28c34.511,0,62.5,27.99,62.5,62.51c0,34.52-27.989,62.49-62.5,62.49
			c-34.52,0-62.5-27.971-62.5-62.49C368.85,369.27,396.83,341.28,431.35,341.28z"/>
		<path style="fill:#C8C8C8;" d="M431.35,324.64c43.7,0,79.141,35.43,79.141,79.14c0,43.701-35.44,79.14-79.141,79.14
			c-43.709,0-79.14-35.439-79.14-79.14C352.21,360.07,387.64,324.64,431.35,324.64z M493.85,403.79c0-34.52-27.989-62.51-62.5-62.51
			c-34.52,0-62.5,27.99-62.5,62.51c0,34.52,27.98,62.49,62.5,62.49C465.86,466.28,493.85,438.31,493.85,403.79z"/>
		<path style="fill:#C8C8C8;" d="M538.02,354.21l43.61,43.62l-40.92,40.92v67.45h-62.95l-46.71,45.97l-42.46-45.87h-62.95v-67.45
			l-40.92-40.91l43.62-43.62l2.7-62.05l56.7,8.16l43.31,6.23l47.11-6.55l57.16-7.95L538.02,354.21z M510.49,403.78
			c0-43.71-35.44-79.14-79.141-79.14c-43.709,0-79.14,35.43-79.14,79.14c0,43.701,35.43,79.14,79.14,79.14
			C475.05,482.92,510.49,447.48,510.49,403.78z"/>
		<path style="fill:#C8C8C8;" d="M477.76,297.24l0.4,2.87l-47.11,6.55l-43.31-6.23l0.44-3.08c0,0,2.64-9.24,0.84-22.49
			c2.85-0.55,28.45-5.39,42.03-5.39l1.65-0.11c13.6,0,41.21,4.86,44.22,5.39C475.12,288,477.76,297.24,477.76,297.24z"/>
		<path style="fill:#C8C8C8;" d="M431.04,221.4l1.31,0.18c10.19-0.79,14.561-5.27,30.131-5.27c17.079,0,29.67,17.08,19.779,39.56
			c-2.97,6.76-4.56,13.19-5.34,18.88c-3.01-0.53-30.62-5.39-44.22-5.39l-1.65,0.11c-13.58,0-39.18,4.84-42.03,5.39
			c-0.77-5.69-2.36-12.12-5.33-18.88c-9.89-22.48,2.7-39.57,19.78-39.57C417.68,216.41,422.56,220.14,431.04,221.4z"/>
	</g>
	<g>
		<path style="fill:none;stroke:#231F20;stroke-width:21;" d="M158.67,535.28L118.84,575.1c0,0-18.91,37.431,69.7,99.37
			C278.48,737.34,377.75,787.5,424.6,786.23c1.4-0.04,2.75-0.12,4.05-0.25"/>
		<path style="fill:none;stroke:#231F20;stroke-width:21;" d="M690.15,535.26c0.26-12.14-0.54-51.67-15.48-139.59
			c-23.38-137.59-54.76-187.05-91.729-224.01c-20.7-20.7-48.25-33.97-74.5-42.46c-43.19-13.96-82.88-15.01-82.88-15.01l-2.3,0.02
			c0,0-34.22,0.9-73.69,12.21c-28.88,8.28-60.55,22.12-83.69,45.25c-36.97,36.97-68.35,86.42-91.73,224.02
			c-14.93,87.89-15.74,127.42-15.48,139.58c0,0,0,0,0,0.011c0.06,2.97,0.19,4.3,0.19,4.3s145.09,63.55,268.6,63.55
			c123.5,0,262.5-63.57,262.5-63.57s0.13-1.329,0.19-4.29"/>
		<path style="fill:none;stroke:#231F20;stroke-width:21;" d="M690.14,535.26h0.011v0.01l39.819,39.811
			c0,0,18.92,37.439-69.689,99.38C570.58,737.16,471.6,787.21,424.6,786.23c-1.54-0.03-3.02-0.12-4.44-0.261"/>
		<path style="fill:none;stroke:#231F20;stroke-width:21;" d="M509.48,127.8c0,0-0.15-0.18-0.431-0.51
			c-4.26-5-39.03-45.38-61.41-57.11c-6.279-3.3-18.989-3.93-18.989-3.93c-6.291,0-12.291,0.59-18.581,3.89
			c-23.87,12.51-60.5,56.28-60.5,56.28"/>
		<path style="fill:none;stroke:#231F20;stroke-width:14;" d="M477.76,297.24c0,0-2.64-9.24-0.84-22.49
			c0.78-5.69,2.37-12.12,5.34-18.88c9.891-22.48-2.7-39.56-19.779-39.56c-15.57,0-19.94,4.48-30.131,5.27l-1.31-0.18
			c-8.48-1.26-13.36-4.99-27.57-4.99c-17.08,0-29.67,17.09-19.78,39.57c2.97,6.76,4.56,13.19,5.33,18.88
			c1.8,13.25-0.84,22.49-0.84,22.49"/>
		<path style="fill:none;stroke:#231F20;stroke-width:14;" d="M477.19,274.8c0,0-0.091-0.02-0.271-0.05
			c-3.01-0.53-30.62-5.39-44.22-5.39l-1.65,0.11c-13.58,0-39.18,4.84-42.03,5.39c-0.17,0.03-0.26,0.05-0.26,0.05"/>
		<polygon style="fill:none;stroke:#231F20;stroke-width:14;" points="387.74,300.43 431.05,306.66 478.16,300.11 535.32,292.16 
			538.02,354.21 581.63,397.83 540.71,438.75 540.71,506.2 477.76,506.2 431.05,552.17 388.59,506.3 325.64,506.3 325.64,438.85 
			284.72,397.94 328.34,354.32 331.04,292.27 		"/>
		<path style="fill:none;stroke:#231F20;stroke-width:14;" d="M510.49,403.78c0,43.701-35.44,79.14-79.141,79.14
			c-43.709,0-79.14-35.439-79.14-79.14c0-43.71,35.43-79.14,79.14-79.14C475.05,324.64,510.49,360.07,510.49,403.78z"/>
		<path style="fill:none;stroke:#231F20;stroke-width:7;" d="M493.85,403.79c0,34.52-27.989,62.49-62.5,62.49
			c-34.52,0-62.5-27.971-62.5-62.49c0-34.52,27.98-62.51,62.5-62.51C465.86,341.28,493.85,369.27,493.85,403.79z"/>
		<polyline style="fill:none;stroke:#231F20;stroke-width:14;stroke-linecap:round;stroke-linejoin:round;" points="431.05,201.12 
			431.04,221.4 431.04,223.6 		"/>
	</g>
</g>
<rect style="fill:none;" width="850.394" height="850.394"/>
</svg>
