<?xml version="1.0" encoding="iso-8859-1"?>
<!-- Generator: Adobe Illustrator 12.0.1, SVG Export Plug-In . SVG Version: 6.00 Build 51448)  -->
<!DOCTYPE svg PUBLIC "-//W3C//DTD SVG 1.1//EN" "http://www.w3.org/Graphics/SVG/1.1/DTD/svg11.dtd" [
	<!ENTITY ns_svg "http://www.w3.org/2000/svg">
	<!ENTITY ns_xlink "http://www.w3.org/1999/xlink">
]>
<svg  version="1.1" id="Layer_1" xmlns="&ns_svg;" xmlns:xlink="&ns_xlink;" width="850.394" height="850.394"
	 viewBox="0 0 850.394 850.394" style="overflow:visible;enable-background:new 0 0 850.394 850.394;" xml:space="preserve">
<g id="XMLID_6_">
	<g>
		<path style="fill:#FFFFC2;" d="M714.67,618.97c5.16,6.4,4.37,25.061-1.39,30.78c-7.8,7.77-14.851,0.65-19.75-7.47
			c-6.721-11.13,2.359-19.16,2.359-19.16C700.86,617.12,710.72,614.07,714.67,618.97z"/>
		<path style="fill:#FFFFC2;" d="M629.23,557.79c6.96,6.45,12.489,14.79,3.319,20.86c-6.77,4.47-25.21,1.489-30.43-4.87
			c-4-4.851,0.979-13.891,7.87-17.55C609.99,556.23,619.68,548.96,629.23,557.79z"/>
		<path style="fill:#FFFFC2;" d="M221.95,631.46c6.25,4.67,9.8,14.36,5.11,18.55c-6.14,5.48-24.81,5.63-30.82,0.181
			c-8.14-7.4-1.4-14.801,6.46-20.11C213.48,622.8,221.95,631.46,221.95,631.46z"/>
		<path style="fill:#FFFFC2;" d="M142.85,475.83c0,0,7.74,9.31-0.59,19.29c-6.08,7.28-14.14,13.24-20.66,4.38
			c-4.81-6.53-2.76-25.09,3.31-30.64C129.56,464.62,138.84,469.13,142.85,475.83z"/>
		<path style="fill:#FFFFC2;" d="M494.09,453.81c6.96,6.44,12.49,14.79,3.32,20.851c-6.771,4.479-25.21,1.49-30.43-4.86
			c-4-4.859,0.979-13.89,7.869-17.56C474.85,452.24,484.54,444.98,494.09,453.81z"/>
		<path style="fill:#FFFFC2;" d="M425.78,459.08c6.951,6.45,12.49,14.79,3.32,20.86c-6.77,4.47-25.2,1.489-30.43-4.87
			c-4-4.86,0.98-13.891,7.87-17.561C406.54,457.51,416.23,450.25,425.78,459.08z"/>
		<path style="fill:#FFFFC2;" d="M186.19,332.54c6.95,6.44,12.49,14.78,3.32,20.85c-6.77,4.48-25.2,1.49-30.43-4.86
			c-4.01-4.86,0.97-13.89,7.86-17.56C166.94,330.97,176.63,323.7,186.19,332.54z"/>
		<path style="fill:#FFFFC2;" d="M376.46,180.35c6.95,6.44,12.49,14.78,3.32,20.85c-6.77,4.47-25.2,1.49-30.43-4.87
			c-4-4.85,0.98-13.89,7.87-17.55C357.22,178.78,366.91,171.51,376.46,180.35z"/>
		<path style="fill:#FFFFC2;" d="M755.25,513.22c14.38,35.311,27.56,66.78,4.31,100.58c-26.88,39.04-82.109,66.36-126.22,80.72
			c-113.81,37.07-247.48,72.641-360.25,29.08c-71.39-27.59-111.33-45.699-155.87-86c-25.98-23.51-46.5-71.199-18.64-150.05
			l1.68-1.91c24.84,29.761,61.83,54.261,93.53,70.271c106.84,53.97,233.54,109.479,351.63,83.59
			c74.76-16.39,116.99-28.21,167.14-61.26c17.7-11.66,34.78-32.391,42.07-65.16L755.25,513.22z M713.28,649.75
			c5.76-5.72,6.55-24.38,1.39-30.78c-3.95-4.899-13.81-1.85-18.78,4.15c0,0-9.08,8.03-2.359,19.16
			C698.43,650.4,705.48,657.52,713.28,649.75z M227.06,650.01c4.69-4.189,1.14-13.88-5.11-18.55c0,0-8.47-8.66-19.25-1.38
			c-7.86,5.31-14.6,12.71-6.46,20.11C202.25,655.64,220.92,655.49,227.06,650.01z"/>
		<path style="fill:#FFFFC2;" d="M193.79,555.91c-31.7-16.01-68.69-40.51-93.53-70.271c-7.61-9.12-14.08-18.72-18.91-28.729
			c-17.32-35.87-1.02-64.35,17.88-95.91c7,18.44,17.44,32.86,26.9,43.03c40.91,43.98,87.25,81.24,134.19,95.72
			c115.51,35.67,244.85,29.13,361.42,1.96c44.88-10.45,101.819-32.7,132.1-68.89c6.12,32.42,5.54,58.899,0.79,80.26
			c-7.29,32.77-24.37,53.5-42.07,65.16c-50.149,33.05-92.38,44.87-167.14,61.26C427.33,665.39,300.63,609.88,193.79,555.91z
			 M121.6,499.5c6.52,8.86,14.58,2.9,20.66-4.38c8.33-9.98,0.59-19.29,0.59-19.29c-4.01-6.7-13.29-11.21-17.94-6.97
			C118.84,474.41,116.79,492.97,121.6,499.5z M632.55,578.65c9.17-6.07,3.641-14.41-3.319-20.86c-9.551-8.83-19.24-1.56-19.24-1.56
			c-6.891,3.659-11.87,12.699-7.87,17.55C607.34,580.14,625.78,583.12,632.55,578.65z"/>
		<path style="fill:#FFFFC2;" d="M753.84,432.82c-30.28,36.189-87.22,58.439-132.1,68.89c-116.57,27.17-245.91,33.71-361.42-1.96
			c-46.94-14.48-93.28-51.74-134.19-95.72c-9.46-10.17-19.9-24.59-26.9-43.03c-11.78-31.05-13.82-73.52,14.97-126.39
			c25.34-46.51,76.34-82.13,89.14-89.34c51.44-28.98,101.45-37.54,171.14-24.55c18.57,3.46,36.22,10.71,53.1,18.97
			c20.45,9.99,35.439,26.51,55.58,37.9c28.85,16.31,65.04,18.55,97.13,23.14c39.979,5.72,78.87,12.22,111.81,37.1
			c32.2,24.33,54.74,55.32,66.66,93.72c11.3,36.41,21.721,68.91-4.34,100.57C754.23,432.35,754.03,432.59,753.84,432.82z
			 M497.41,474.66c9.17-6.061,3.64-14.41-3.32-20.851c-9.55-8.829-19.24-1.569-19.24-1.569c-6.89,3.67-11.869,12.7-7.869,17.56
			C472.2,476.15,490.64,479.14,497.41,474.66z M429.1,479.94c9.17-6.07,3.631-14.41-3.32-20.86c-9.55-8.83-19.24-1.57-19.24-1.57
			c-6.89,3.67-11.87,12.7-7.87,17.561C403.9,481.43,422.33,484.41,429.1,479.94z M379.78,201.2c9.17-6.07,3.63-14.41-3.32-20.85
			c-9.55-8.84-19.24-1.57-19.24-1.57c-6.89,3.66-11.87,12.7-7.87,17.55C354.58,202.69,373.01,205.67,379.78,201.2z M189.51,353.39
			c9.17-6.07,3.63-14.41-3.32-20.85c-9.56-8.84-19.25-1.57-19.25-1.57c-6.89,3.67-11.87,12.7-7.86,17.56
			C164.31,354.88,182.74,357.87,189.51,353.39z"/>
	</g>
	<g>
		<path style="fill:none;stroke:#231F20;stroke-width:21;" d="M99.23,361c-11.78-31.05-13.82-73.52,14.97-126.39
			c25.34-46.51,76.34-82.13,89.14-89.34c51.44-28.98,101.45-37.54,171.14-24.55c18.57,3.46,36.22,10.71,53.1,18.97
			c20.45,9.99,35.439,26.51,55.58,37.9c28.85,16.31,65.04,18.55,97.13,23.14c39.979,5.72,78.87,12.22,111.81,37.1
			c32.2,24.33,54.74,55.32,66.66,93.72c11.3,36.41,21.721,68.91-4.34,100.57c-0.189,0.229-0.39,0.47-0.58,0.7
			c-30.28,36.189-87.22,58.439-132.1,68.89c-116.57,27.17-245.91,33.71-361.42-1.96c-46.94-14.48-93.28-51.74-134.19-95.72
			C116.67,393.86,106.23,379.44,99.23,361z"/>
		<path style="fill:none;stroke:#231F20;stroke-width:14;" d="M357.22,178.78c-6.89,3.66-11.87,12.7-7.87,17.55
			c5.23,6.36,23.66,9.34,30.43,4.87c9.17-6.07,3.63-14.41-3.32-20.85C366.91,171.51,357.22,178.78,357.22,178.78z"/>
		<path style="fill:none;stroke:#231F20;stroke-width:14;" d="M166.94,330.97c-6.89,3.67-11.87,12.7-7.86,17.56
			c5.23,6.35,23.66,9.34,30.43,4.86c9.17-6.07,3.63-14.41-3.32-20.85C176.63,323.7,166.94,330.97,166.94,330.97z"/>
		<path style="fill:none;stroke:#231F20;stroke-width:14;" d="M406.54,457.51c-6.89,3.67-11.87,12.7-7.87,17.561
			c5.23,6.359,23.66,9.34,30.43,4.87c9.17-6.07,3.631-14.41-3.32-20.86C416.23,450.25,406.54,457.51,406.54,457.51z"/>
		<path style="fill:none;stroke:#231F20;stroke-width:14;" d="M474.85,452.24c-6.89,3.67-11.869,12.7-7.869,17.56
			c5.22,6.351,23.659,9.34,30.43,4.86c9.17-6.061,3.64-14.41-3.32-20.851C484.54,444.98,474.85,452.24,474.85,452.24z"/>
		<path style="fill:none;stroke:#231F20;stroke-width:21;" d="M100.92,358.17c-0.57,0.95-1.13,1.89-1.69,2.83
			c-18.9,31.56-35.2,60.04-17.88,95.91c4.83,10.01,11.3,19.609,18.91,28.729c24.84,29.761,61.83,54.261,93.53,70.271
			c106.84,53.97,233.54,109.479,351.63,83.59c74.76-16.39,116.99-28.21,167.14-61.26c17.7-11.66,34.78-32.391,42.07-65.16
			c4.75-21.36,5.33-47.84-0.79-80.26c0-0.011-0.01-0.03-0.01-0.04"/>
		<path style="fill:none;stroke:#231F20;stroke-width:14;" d="M142.85,475.83c-4.01-6.7-13.29-11.21-17.94-6.97
			c-6.07,5.55-8.12,24.109-3.31,30.64c6.52,8.86,14.58,2.9,20.66-4.38C150.59,485.14,142.85,475.83,142.85,475.83z"/>
		<path style="fill:none;stroke:#231F20;stroke-width:14;" d="M609.99,556.23c-6.891,3.659-11.87,12.699-7.87,17.55
			c5.22,6.359,23.66,9.34,30.43,4.87c9.17-6.07,3.641-14.41-3.319-20.86C619.68,548.96,609.99,556.23,609.99,556.23z"/>
		<path style="fill:none;stroke:#231F20;stroke-width:21;" d="M755.25,513.22c14.38,35.311,27.56,66.78,4.31,100.58
			c-26.88,39.04-82.109,66.36-126.22,80.72c-113.81,37.07-247.48,72.641-360.25,29.08c-71.39-27.59-111.33-45.699-155.87-86
			c-25.98-23.51-46.5-71.199-18.64-150.05"/>
		<path style="fill:none;stroke:#231F20;stroke-width:14;" d="M695.89,623.12c4.971-6,14.83-9.05,18.78-4.15
			c5.16,6.4,4.37,25.061-1.39,30.78c-7.8,7.77-14.851,0.65-19.75-7.47C686.81,631.15,695.89,623.12,695.89,623.12z"/>
		<path style="fill:none;stroke:#231F20;stroke-width:14;" d="M221.95,631.46c6.25,4.67,9.8,14.36,5.11,18.55
			c-6.14,5.48-24.81,5.63-30.82,0.181c-8.14-7.4-1.4-14.801,6.46-20.11C213.48,622.8,221.95,631.46,221.95,631.46z"/>
		<path style="fill:none;stroke:#231F20;stroke-width:21;" d="M277.24,188.04c-28.31,17.31-45.58,61.2-23.62,92.8"/>
		<path style="fill:none;stroke:#231F20;stroke-width:21;" d="M641.7,420.88c60.74,0,77.05-49.12,67.49-87.74"/>
		<path style="fill:none;stroke:#231F20;stroke-width:21;" d="M478.18,375.54c-19.199-57.63-70.959-57.58-104.58-36.3"/>
	</g>
</g>
<rect style="fill:none;" width="850.394" height="850.394"/>
</svg>
