<?xml version="1.0" encoding="iso-8859-1"?>
<!-- Generator: Adobe Illustrator 12.0.1, SVG Export Plug-In . SVG Version: 6.00 Build 51448)  -->
<!DOCTYPE svg PUBLIC "-//W3C//DTD SVG 1.1//EN" "http://www.w3.org/Graphics/SVG/1.1/DTD/svg11.dtd" [
	<!ENTITY ns_svg "http://www.w3.org/2000/svg">
	<!ENTITY ns_xlink "http://www.w3.org/1999/xlink">
]>
<svg  version="1.1" id="Layer_1" xmlns="&ns_svg;" xmlns:xlink="&ns_xlink;" width="850.394" height="850.394"
	 viewBox="0 0 850.394 850.394" style="overflow:visible;enable-background:new 0 0 850.394 850.394;" xml:space="preserve">
<g id="XMLID_6_">
	<g>
		<path style="fill:#FFFFFF;" d="M588.17,377.46c8.13,1.6,24.63,10.12,20.38,18.48c-4.74,9.36-16.83,7.91-25.399,3.43
			c-15.311-7.4-25.891-3.48-19.7-16.22C566.91,376.04,581.58,376.17,588.17,377.46z"/>
		<path style="fill:#FFFFFF;" d="M443.67,328.36c7.96-2.25,26.53-2.13,26.53,7.25c0,10.48-11.42,14.66-21.09,14.55
			c-17.011,0.33-24.66,8.63-24.91-5.53C424.07,336.72,437.21,330.2,443.67,328.36z"/>
		<path style="fill:#FFFFFF;" d="M556.9,243.44c6.05,5.1,2.319,19.29-0.561,25.37c-3.54,7.48-15.84,21.38-22.899,15.21
			c-7.9-6.89-3.53-18.25,2.909-25.46C547.29,245.53,546.08,234.31,556.9,243.44z"/>
		<path style="fill:#FFFFFF;" d="M369.31,377.03c4.11,5.31,10.82,18.36,6.03,24.65c-8.61,11.26-9.86,0.04-23.36-10.32
			c-7.83-5.65-14.56-15.78-8.34-24.23C349.21,359.58,364.22,370.49,369.31,377.03z"/>
		<path style="fill:#A3D9FF;" d="M422.49,656.8v-0.02c86.16,0,158.41-15.82,211.26-53.88c3.92,5.06,6,10.34,6,15.77
			c0,37.18-97.24,76.67-217.24,76.67c-119.97,0-217.24-39.49-217.24-76.67c0-5.42,2.07-10.7,5.98-15.75
			C264.09,640.98,336.34,656.8,422.49,656.8z"/>
		<path style="fill:#FFFFFF;" d="M396.76,226.01c6.46,1.84,19.6,8.36,19.46,16.27c-0.25,14.17-7.89,5.86-24.91,5.53
			c-9.66,0.12-21.09-4.06-21.09-14.55C370.22,223.89,388.79,223.77,396.76,226.01z"/>
		<path style="fill:#FFFFFF;" d="M515.75,288.21c6.22,8.44-0.5,18.59-8.34,24.24c-13.5,10.35-14.74,21.57-23.351,10.31
			c-4.8-6.29,1.91-19.33,6.021-24.64C495.17,291.57,510.18,280.66,515.75,288.21z"/>
		<path style="fill:#A3D9FF;" d="M211.25,602.92c-45.08-32.47-76.05-81.11-89.49-149.93l-15.67-66.3
			c59.26,38.28,178.4,64.42,315.71,64.42c137.46,0,257.391-27.47,317-66.581l-15.56,68.44c-13.44,68.82-44.41,117.46-89.49,149.931
			c-52.85,38.06-125.1,53.88-211.26,53.88v0.02C336.34,656.8,264.09,640.98,211.25,602.92z"/>
		<path style="fill:#FFFFFF;" d="M595.09,334.59c5.601,6.1,13.82,22.74,5.44,26.96c-9.36,4.71-18.221-3.62-22.471-12.31
			c-7.939-15.04-18.79-18.15-6.239-24.74C578.81,320.83,590.55,329.63,595.09,334.59z"/>
		<path style="fill:#FFFFFF;" d="M552.33,348.4c6.04,5.09,2.31,19.28-0.57,25.36c-3.54,7.48-15.83,21.38-22.899,15.21
			c-7.9-6.89-3.53-18.24,2.909-25.46C542.71,350.48,541.5,339.26,552.33,348.4z"/>
		<path style="fill:#FFFFFF;" d="M661.81,323.42c6.051,5.1,2.32,19.29-0.56,25.36c-3.54,7.48-15.84,21.38-22.9,15.22
			c-7.909-6.9-3.529-18.25,2.9-25.47C652.2,325.5,650.99,314.28,661.81,323.42z"/>
		<path style="fill:#FFFFFF;" d="M587.93,285.54c8.13,1.6,24.63,10.11,20.38,18.47c-4.75,9.35-16.829,7.91-25.399,3.44
			c-15.32-7.41-25.9-3.49-19.7-16.23C566.67,284.12,581.34,284.25,587.93,285.54z"/>
		<path style="fill:#FFFFFF;" d="M513.95,334.08c6.21,8.45-0.51,18.59-8.34,24.24c-13.511,10.35-14.75,21.57-23.36,10.31
			c-4.79-6.28,1.92-19.33,6.03-24.64C493.36,337.45,508.38,326.54,513.95,334.08z"/>
		<path style="fill:#FFFFFF;" d="M490.6,389.31c8.131,1.59,24.62,10.1,20.381,18.47c-4.74,9.35-16.82,7.91-25.4,3.43
			c-15.311-7.4-25.89-3.47-19.7-16.22C469.34,387.88,484.01,388.01,490.6,389.31z"/>
		<path style="fill:#FFFFFF;" d="M401.15,176.77c4.05,6,9.19,17.28,4.83,22.98c-8.6,11.27-9.85,0.04-23.35-10.3
			c-3.81-2.75-7.35-6.56-9.28-10.72c-2.03-4.4-2.25-9.19,0.94-13.53c5.57-7.54,20.58,3.37,25.67,9.92
			C400.34,175.61,400.74,176.16,401.15,176.77z"/>
		<path style="fill:#FFFFFF;" d="M308.66,261.16c6.44,7.22,10.81,18.57,2.91,25.47c-7.07,6.16-19.37-7.74-22.91-15.22
			c-2.88-6.07-6.6-20.26-0.56-25.36C298.92,236.92,297.71,248.14,308.66,261.16z"/>
		<path style="fill:#FFFFFF;" d="M318,308.86c6.2,12.74-4.38,8.82-19.7,16.23c-8.57,4.47-20.65,5.91-25.4-3.44
			c-4.24-8.36,12.25-16.87,20.38-18.47C299.88,301.88,314.54,301.75,318,308.86z"/>
		<path style="fill:#FFFFFF;" d="M148.44,302.12c12.55,6.59,1.7,9.7-6.24,24.75c-4.25,8.68-13.11,17.01-22.47,12.3
			c-8.38-4.21-0.15-20.85,5.44-26.96C129.72,307.26,141.45,298.45,148.44,302.12z"/>
		<path style="fill:#FFFFFF;" d="M305.7,194.32c-0.06,1.03,0.14,2.08,0.67,3.12c4.75,9.34,16.83,7.9,25.41,3.43
			c15.31-7.41,25.89-3.48,19.7-16.22c-0.54-1.1-1.34-2.03-2.35-2.81c5.85-0.01,18.39-3.11,24.22-3.11
			c1.93,4.16,5.47,7.97,9.28,10.72c13.5,10.34,14.75,21.57,23.35,10.3c4.36-5.7-0.78-16.98-4.83-22.98c8.76,0,22.92,0,31.66,0
			c2.091,3.51,6.78,8.1,10.69,15.7c4.18,8.71,12.97,17.12,22.39,12.5c7.641-3.77,1.67-17.89-3.64-25.06
			c12.83,0.01,36.55,10.94,49.39,10.96c-8.47,4.94,0.91,9.46,7.061,23.77c3.56,9,11.74,18.01,21.45,14.04
			c7.279-2.96,3.619-15.53-0.75-23.36c10.359,4.14,23.81,10.72,31.72,18.44c-2.39,4.45,5.42,8.97,11.52,20.53
			c4.25,8.68,13.11,17.02,22.48,12.3c6.14-3.09,3.35-12.86-0.78-20.26c8.76,0,30.4,3.63,38.7,3.63c-6.46,1.84-19.6,8.36-19.46,16.27
			c0.25,14.17,7.9,5.86,24.91,5.53c9.66,0.12,24.34-7.31,24.34-17.8c58.91,18.51,94.21,42.1,103.51,69.87l-0.729,0.24
			c-18.21,60.24-169.67,107.24-353.8,107.24c-181.36,0-331.02-45.59-352.89-104.52l-0.17-0.06c9.88-28.17,47.78-52.72,106.93-71.31
			c1.73,8.57,12.02,12.04,20.83,11.94c17.02,0.33,24.66,8.63,24.91-5.54c0.12-6.61-9.06-12.25-15.84-15
			c7.3-1.42,21.9-8.05,28.62-10.16c3.52,6.99,13.32,8.82,21.47,7.73c16.93-1.77,25.54,5.53,24.05-8.57
			c-0.5-4.77-5.81-8.44-11.39-10.82c12.27-6.45,19.86-16.29,36.8-20.71L305.7,194.32z M563.45,383.15
			c-6.19,12.74,4.39,8.82,19.7,16.22c8.569,4.48,20.659,5.93,25.399-3.43c4.25-8.36-12.25-16.88-20.38-18.48
			C581.58,376.17,566.91,376.04,563.45,383.15z M715.12,348.99c8.38-4.22,0.16-20.86-5.44-26.96
			c-4.55-4.96-16.279-13.76-23.279-10.09c-12.54,6.59-1.69,9.7,6.239,24.74C696.89,345.37,705.75,353.7,715.12,348.99z
			 M673.02,294.99c4.25-8.37-12.25-16.88-20.359-18.48c-6.61-1.29-21.271-1.42-24.73,5.69c-6.199,12.74,4.38,8.81,19.7,16.22
			C656.2,302.89,668.28,304.34,673.02,294.99z M661.25,348.78c2.88-6.07,6.61-20.26,0.56-25.36c-10.819-9.14-9.609,2.08-20.56,15.11
			c-6.43,7.22-10.81,18.57-2.9,25.47C645.41,370.16,657.71,356.26,661.25,348.78z M608.31,304.01c4.25-8.36-12.25-16.87-20.38-18.47
			c-6.59-1.29-21.26-1.42-24.72,5.68c-6.2,12.74,4.38,8.82,19.7,16.23C591.48,311.92,603.56,313.36,608.31,304.01z M600.53,361.55
			c8.38-4.22,0.16-20.86-5.44-26.96c-4.54-4.96-16.28-13.76-23.27-10.09c-12.551,6.59-1.7,9.7,6.239,24.74
			C582.31,357.93,591.17,366.26,600.53,361.55z M556.34,268.81c2.88-6.08,6.61-20.27,0.561-25.37
			c-10.82-9.13-9.61,2.09-20.551,15.12c-6.439,7.21-10.81,18.57-2.909,25.46C540.5,290.19,552.8,276.29,556.34,268.81z
			 M551.76,373.76c2.88-6.08,6.61-20.27,0.57-25.36c-10.83-9.14-9.62,2.08-20.561,15.11c-6.439,7.22-10.81,18.57-2.909,25.46
			C535.93,395.14,548.22,381.24,551.76,373.76z M510.18,253.36c7.84-5.64,14.57-15.78,8.34-24.23
			c-5.56-7.54-20.569,3.37-25.659,9.91c-4.11,5.31-10.83,18.36-6.03,24.64C495.44,274.94,496.69,263.72,510.18,253.36z
			 M507.41,312.45c7.84-5.65,14.56-15.8,8.34-24.24c-5.57-7.55-20.58,3.36-25.67,9.91c-4.11,5.31-10.82,18.35-6.021,24.64
			C492.67,334.02,493.91,322.8,507.41,312.45z M505.61,358.32c7.83-5.65,14.55-15.79,8.34-24.24c-5.57-7.54-20.59,3.37-25.67,9.91
			c-4.11,5.31-10.82,18.36-6.03,24.64C490.86,379.89,492.1,368.67,505.61,358.32z M510.98,407.78
			c4.239-8.37-12.25-16.88-20.381-18.47c-6.59-1.3-21.26-1.43-24.72,5.68c-6.189,12.75,4.39,8.82,19.7,16.22
			C494.16,415.69,506.24,417.13,510.98,407.78z M467.08,307.02c8.68-3.54,1.8-20.78-3.3-27.3c-4.141-5.3-15.13-15-22.41-11.9
			c-13.021,5.57-2.45,9.53,4.27,25.16C449.19,301.97,457.38,310.98,467.08,307.02z M474.78,230.66c0-9.38-18.561-9.5-26.53-7.25
			c-6.47,1.84-19.61,8.36-19.47,16.26c0.25,14.17,7.899,5.87,24.91,5.54C463.36,245.32,474.78,241.14,474.78,230.66z M470.2,335.61
			c0-9.38-18.57-9.5-26.53-7.25c-6.46,1.84-19.6,8.36-19.47,16.27c0.25,14.16,7.899,5.86,24.91,5.53
			C458.78,350.27,470.2,346.09,470.2,335.61z M419.11,389.25c16.52-4.06,26.05,1.98,22.64-11.77c-1.91-7.68-16.28-10.6-23-10.7
			c-8.28-0.14-26.18,4.76-23.77,13.82C397.67,390.73,409.79,391.82,419.11,389.25z M420.8,347.23c0.14-7.91-13-14.43-19.47-16.26
			c-7.96-2.25-26.53-2.13-26.53,7.25c0,10.48,11.42,14.66,21.09,14.54C412.9,353.09,420.55,361.4,420.8,347.23z M416.22,242.28
			c0.14-7.91-13-14.43-19.46-16.27c-7.97-2.24-26.54-2.12-26.54,7.25c0,10.49,11.43,14.67,21.09,14.55
			C408.33,248.14,415.97,256.45,416.22,242.28z M399.37,295.58c6.71-15.63,17.28-19.58,4.26-25.16c-7.27-3.1-18.27,6.6-22.4,11.91
			c-5.1,6.52-11.99,23.75-3.31,27.29C387.63,313.58,395.81,304.58,399.37,295.58z M375.34,401.68c4.79-6.29-1.92-19.34-6.03-24.65
			c-5.09-6.54-20.1-17.45-25.67-9.9c-6.22,8.45,0.51,18.58,8.34,24.23C365.48,401.72,366.73,412.94,375.34,401.68z M360.95,325.36
			c4.79-6.28-1.91-19.32-6.03-24.64c-5.08-6.54-20.1-17.45-25.66-9.91c-6.22,8.45,0.5,18.59,8.33,24.24
			C351.1,325.4,352.34,336.63,360.95,325.36z M358.17,266.28c4.8-6.28-1.91-19.33-6.02-24.64c-5.09-6.54-20.11-17.45-25.67-9.9
			c-6.22,8.44,0.5,18.58,8.34,24.23C348.32,266.33,349.56,277.55,358.17,266.28z M298.3,325.09c15.32-7.41,25.9-3.49,19.7-16.23
			c-3.46-7.11-18.12-6.98-24.72-5.68c-8.13,1.6-24.62,10.11-20.38,18.47C277.65,331,289.73,329.56,298.3,325.09z M316.14,391.58
			c7.9-6.9,3.53-18.25-2.9-25.47c-10.95-13.02-9.74-24.24-20.56-15.11c-6.05,5.1-2.32,19.29,0.56,25.36
			C296.78,383.85,309.08,397.74,316.14,391.58z M311.57,286.63c7.9-6.9,3.53-18.25-2.91-25.47c-10.95-13.02-9.74-24.24-20.56-15.11
			c-6.04,5.1-2.32,19.29,0.56,25.36C292.2,278.89,304.5,292.79,311.57,286.63z M279.96,399.02c4.24-8.36-12.25-16.87-20.38-18.47
			c-6.59-1.3-21.27-1.43-24.72,5.68c-6.2,12.74,4.38,8.81,19.7,16.22C263.13,406.93,275.21,408.37,279.96,399.02z M266.94,351.85
			c7.94-15.05,18.79-18.16,6.24-24.75c-6.99-3.67-18.72,5.14-23.27,10.09c-5.6,6.1-13.82,22.74-5.44,26.96
			C253.83,368.86,262.69,360.53,266.94,351.85z M244.27,301.02c15.32-7.4,25.9-3.47,19.71-16.22c-3.46-7.11-18.13-6.98-24.73-5.69
			c-8.13,1.6-24.62,10.12-20.37,18.48C223.62,306.95,235.71,305.49,244.27,301.02z M206.66,366.6c7.9-6.89,3.53-18.25-2.91-25.46
			c-10.94-13.03-9.73-24.25-20.56-15.12c-6.04,5.1-2.31,19.29,0.56,25.36C187.29,358.87,199.59,372.77,206.66,366.6z M195.14,304.99
			c4.79-6.28-1.92-19.32-6.03-24.63c-5.08-6.55-20.1-17.46-25.66-9.91c-6.22,8.44,0.5,18.59,8.33,24.24
			C185.29,305.04,186.53,316.26,195.14,304.99z M142.2,326.87c7.94-15.05,18.79-18.16,6.24-24.75c-6.99-3.67-18.72,5.14-23.27,10.09
			c-5.59,6.11-13.82,22.75-5.44,26.96C129.09,343.88,137.95,335.55,142.2,326.87z"/>
		<path style="fill:#FFFFFF;" d="M463.78,279.72c5.1,6.52,11.979,23.76,3.3,27.3c-9.7,3.96-17.89-5.05-21.44-14.04
			c-6.72-15.63-17.29-19.59-4.27-25.16C448.65,264.72,459.64,274.42,463.78,279.72z"/>
		<path style="fill:#FFFFFF;" d="M175.68,245.42c-0.17-0.82-0.26-1.69-0.26-2.61c0-9.38,18.57-9.5,26.54-7.25
			c1.06,0.3,2.29,0.73,3.62,1.26c6.78,2.75,15.96,8.39,15.84,15c-0.25,14.17-7.89,5.87-24.91,5.54
			C187.7,257.46,177.41,253.99,175.68,245.42z"/>
		<path style="fill:#FFFFFF;" d="M354.92,300.72c4.12,5.32,10.82,18.36,6.03,24.64c-8.61,11.27-9.85,0.04-23.36-10.31
			c-7.83-5.65-14.55-15.79-8.33-24.24C334.82,283.27,349.84,294.18,354.92,300.72z"/>
		<path style="fill:#FFFFFF;" d="M401.33,330.97c6.47,1.83,19.61,8.35,19.47,16.26c-0.25,14.17-7.9,5.86-24.91,5.53
			c-9.67,0.12-21.09-4.06-21.09-14.54C374.8,328.84,393.37,328.72,401.33,330.97z"/>
		<path style="fill:#FFFFFF;" d="M518.52,229.13c6.23,8.45-0.5,18.59-8.34,24.23c-13.489,10.36-14.739,21.58-23.35,10.32
			c-4.8-6.28,1.92-19.33,6.03-24.64C497.95,232.5,512.96,221.59,518.52,229.13z"/>
		<path style="fill:#FFFFFF;" d="M203.75,341.14c6.44,7.21,10.81,18.57,2.91,25.46c-7.07,6.17-19.37-7.73-22.91-15.22
			c-2.87-6.07-6.6-20.26-0.56-25.36C194.02,316.89,192.81,328.11,203.75,341.14z"/>
		<path style="fill:#FFFFFF;" d="M403.63,270.42c13.02,5.58,2.45,9.53-4.26,25.16c-3.56,9-11.74,18-21.45,14.04
			c-8.68-3.54-1.79-20.77,3.31-27.29C385.36,277.02,396.36,267.32,403.63,270.42z"/>
		<path style="fill:#FFFFFF;" d="M462.25,179.91c5.31,7.17,11.28,21.29,3.64,25.06c-9.42,4.62-18.21-3.79-22.39-12.5
			c-3.91-7.6-8.6-12.19-10.69-15.7c-2.06-3.48-1.59-5.89,4.681-9.11c7.029-3.61,18.68,5.3,23.18,10.3
			C461.18,178.53,461.71,179.18,462.25,179.91z"/>
		<path style="fill:#FFFFFF;" d="M352.15,241.64c4.11,5.31,10.82,18.36,6.02,24.64c-8.61,11.27-9.85,0.05-23.35-10.31
			c-7.84-5.65-14.56-15.79-8.34-24.23C332.04,224.19,347.06,235.1,352.15,241.64z"/>
		<path style="fill:#FFFFFF;" d="M448.25,223.41c7.97-2.25,26.53-2.13,26.53,7.25c0,10.48-11.42,14.66-21.09,14.55
			c-17.011,0.33-24.66,8.63-24.91-5.54C428.64,231.77,441.78,225.25,448.25,223.41z"/>
		<path style="fill:#FFFFFF;" d="M349.13,181.84c1.01,0.78,1.81,1.71,2.35,2.81c6.19,12.74-4.39,8.81-19.7,16.22
			c-8.58,4.47-20.66,5.91-25.41-3.43c-0.53-1.04-0.73-2.09-0.67-3.12c0.42-7.26,13.94-13.96,21.05-15.35
			C332.33,177.87,343.66,177.61,349.13,181.84z"/>
		<path style="fill:#FFFFFF;" d="M268.33,215c5.58,2.38,10.89,6.05,11.39,10.82c1.49,14.1-7.12,6.8-24.05,8.57
			c-8.15,1.09-17.95-0.74-21.47-7.73c-0.63-1.22-1.06-2.59-1.25-4.14c-1.14-9.3,17.26-11.7,25.46-10.45
			C261.01,212.47,264.72,213.47,268.33,215z"/>
		<path style="fill:#FFFFFF;" d="M189.11,280.36c4.11,5.31,10.82,18.35,6.03,24.63c-8.61,11.27-9.85,0.05-23.36-10.3
			c-7.83-5.65-14.55-15.8-8.33-24.24C169.01,262.9,184.03,273.81,189.11,280.36z"/>
		<path style="fill:#FFFFFF;" d="M313.24,366.11c6.43,7.22,10.8,18.57,2.9,25.47c-7.06,6.16-19.36-7.73-22.9-15.22
			c-2.88-6.07-6.61-20.26-0.56-25.36C303.5,341.87,302.29,353.09,313.24,366.11z"/>
		<path style="fill:#FFFFFF;" d="M571.12,223.76c0.71-1.35,2.37-2.69,5.28-4.21c7-3.67,18.72,5.13,23.27,10.08
			c1.49,1.63,3.17,4.01,4.67,6.7c4.13,7.4,6.92,17.17,0.78,20.26c-9.37,4.72-18.23-3.62-22.48-12.3
			C576.54,232.73,568.73,228.21,571.12,223.76z"/>
		<path style="fill:#FFFFFF;" d="M259.58,380.55c8.13,1.6,24.62,10.11,20.38,18.47c-4.75,9.35-16.83,7.91-25.4,3.43
			c-15.32-7.41-25.9-3.48-19.7-16.22C238.31,379.12,252.99,379.25,259.58,380.55z"/>
		<path style="fill:#FFFFFF;" d="M652.66,276.51c8.109,1.6,24.609,10.11,20.359,18.48c-4.739,9.35-16.819,7.9-25.39,3.43
			c-15.32-7.41-25.899-3.48-19.7-16.22C631.39,275.09,646.05,275.22,652.66,276.51z"/>
		<path style="fill:#FFFFFF;" d="M709.68,322.03c5.601,6.1,13.82,22.74,5.44,26.96c-9.37,4.71-18.23-3.62-22.48-12.31
			c-7.93-15.04-18.779-18.15-6.239-24.74C693.4,308.27,705.13,317.07,709.68,322.03z"/>
		<path style="fill:#FFFFFF;" d="M441.75,377.48c3.41,13.75-6.12,7.71-22.64,11.77c-9.32,2.57-21.44,1.48-24.13-8.65
			c-2.41-9.06,15.49-13.96,23.77-13.82C425.47,366.88,439.84,369.8,441.75,377.48z"/>
		<path style="fill:#FFFFFF;" d="M643.04,239.96c7.97-2.24,29.79-5.37,29.79,4c0,10.49-14.68,17.92-24.34,17.8
			c-17.01,0.33-24.66,8.64-24.91-5.53C623.44,248.32,636.58,241.8,643.04,239.96z"/>
		<path style="fill:#FFFFFF;" d="M273.18,327.1c12.55,6.59,1.7,9.7-6.24,24.75c-4.25,8.68-13.11,17.01-22.47,12.3
			c-8.38-4.22-0.16-20.86,5.44-26.96C254.46,332.24,266.19,323.43,273.18,327.1z"/>
		<path style="fill:#FFFFFF;" d="M511.64,190.87c0.78-0.46,1.71-0.91,2.801-1.38c7.27-3.11,18.27,6.59,22.409,11.9
			c0.83,1.06,1.7,2.4,2.551,3.93c4.369,7.83,8.029,20.4,0.75,23.36c-9.71,3.97-17.891-5.04-21.45-14.04
			C512.55,200.33,503.17,195.81,511.64,190.87z"/>
		<path style="fill:#FFFFFF;" d="M263.98,284.8c6.19,12.75-4.39,8.82-19.71,16.22c-8.56,4.47-20.65,5.93-25.39-3.43
			c-4.25-8.36,12.24-16.88,20.37-18.48C245.85,277.82,260.52,277.69,263.98,284.8z"/>
		<path style="fill:#A3D9FF;" d="M738.8,384.53c-59.609,39.11-179.54,66.581-317,66.581c-137.31,0-256.45-26.14-315.71-64.42
			c-25.51-16.47-39.93-35.19-39.93-55.04c0-5.07,0.87-10.05,2.59-14.92l0.17,0.06c21.87,58.93,171.53,104.52,352.89,104.52
			c184.13,0,335.59-47,353.8-107.24l0.729-0.24c1.66,4.94,2.5,10.01,2.5,15.21C778.84,348.84,764.37,367.76,738.8,384.53z"/>
	</g>
	<g>
		<path style="fill:none;stroke:#000000;stroke-width:21.0232;" d="M422.51,656.8c-0.01,0-0.01,0-0.02,0
			c-86.15,0-158.4-15.819-211.24-53.88c-45.08-32.47-76.05-81.11-89.49-149.93l-15.67-66.3"/>
		<path style="fill:none;stroke:#000000;stroke-width:21.0232;" d="M422.49,656.78c86.16,0,158.41-15.82,211.26-53.88
			c45.08-32.471,76.05-81.11,89.49-149.931l15.56-68.44l0.11-0.5"/>
		<path style="fill:none;stroke:#000000;stroke-width:21.0232;" d="M633.72,602.86c0.011,0.01,0.021,0.029,0.03,0.04
			c3.92,5.06,6,10.34,6,15.77c0,37.18-97.24,76.67-217.24,76.67c-119.97,0-217.24-39.49-217.24-76.67c0-5.42,2.07-10.7,5.98-15.75
			c0-0.01,0-0.01,0.01-0.02"/>
		<path style="fill:none;stroke:#000000;stroke-width:14.0155;" d="M313.24,366.11c-10.95-13.02-9.74-24.24-20.56-15.11
			c-6.05,5.1-2.32,19.29,0.56,25.36c3.54,7.49,15.84,21.38,22.9,15.22C324.04,384.68,319.67,373.33,313.24,366.11z"/>
		<path style="fill:none;stroke:#000000;stroke-width:14.0155;" d="M266.94,351.85c7.94-15.05,18.79-18.16,6.24-24.75
			c-6.99-3.67-18.72,5.14-23.27,10.09c-5.6,6.1-13.82,22.74-5.44,26.96C253.83,368.86,262.69,360.53,266.94,351.85z"/>
		<path style="fill:none;stroke:#000000;stroke-width:14.0155;" d="M351.98,391.36c13.5,10.36,14.75,21.58,23.36,10.32
			c4.79-6.29-1.92-19.34-6.03-24.65c-5.09-6.54-20.1-17.45-25.67-9.9C337.42,375.58,344.15,385.71,351.98,391.36z"/>
		<path style="fill:none;stroke:#000000;stroke-width:14.0155;" d="M395.89,352.76c17.01,0.33,24.66,8.64,24.91-5.53
			c0.14-7.91-13-14.43-19.47-16.26c-7.96-2.25-26.53-2.13-26.53,7.25C374.8,348.7,386.22,352.88,395.89,352.76z"/>
		<path style="fill:none;stroke:#000000;stroke-width:14.0155;" d="M298.3,325.09c15.32-7.41,25.9-3.49,19.7-16.23
			c-3.46-7.11-18.12-6.98-24.72-5.68c-8.13,1.6-24.62,10.11-20.38,18.47C277.65,331,289.73,329.56,298.3,325.09z"/>
		<path style="fill:none;stroke:#000000;stroke-width:14.0155;" d="M244.27,301.02c15.32-7.4,25.9-3.47,19.71-16.22
			c-3.46-7.11-18.13-6.98-24.73-5.69c-8.13,1.6-24.62,10.12-20.37,18.48C223.62,306.95,235.71,305.49,244.27,301.02z"/>
		<path style="fill:none;stroke:#000000;stroke-width:14.0155;" d="M308.66,261.16c-10.95-13.02-9.74-24.24-20.56-15.11
			c-6.04,5.1-2.32,19.29,0.56,25.36c3.54,7.48,15.84,21.38,22.91,15.22C319.47,279.73,315.1,268.38,308.66,261.16z"/>
		<path style="fill:none;stroke:#000000;stroke-width:14.0155;" d="M337.59,315.05c13.51,10.35,14.75,21.58,23.36,10.31
			c4.79-6.28-1.91-19.32-6.03-24.64c-5.08-6.54-20.1-17.45-25.66-9.91C323.04,299.26,329.76,309.4,337.59,315.05z"/>
		<path style="fill:none;stroke:#000000;stroke-width:14.0155;" d="M334.82,255.97c13.5,10.36,14.74,21.58,23.35,10.31
			c4.8-6.28-1.91-19.33-6.02-24.64c-5.09-6.54-20.11-17.45-25.67-9.9C320.26,240.18,326.98,250.32,334.82,255.97z"/>
		<path style="fill:none;stroke:#000000;stroke-width:14.0155;" d="M399.37,295.58c6.71-15.63,17.28-19.58,4.26-25.16
			c-7.27-3.1-18.27,6.6-22.4,11.91c-5.1,6.52-11.99,23.75-3.31,27.29C387.63,313.58,395.81,304.58,399.37,295.58z"/>
		<path style="fill:none;stroke:#000000;stroke-width:14.0155;" d="M391.31,247.81c17.02,0.33,24.66,8.64,24.91-5.53
			c0.14-7.91-13-14.43-19.46-16.27c-7.97-2.24-26.54-2.12-26.54,7.25C370.22,243.75,381.65,247.93,391.31,247.81z"/>
		<path style="fill:none;stroke:#000000;stroke-width:14.0155;" d="M331.78,200.87c15.31-7.41,25.89-3.48,19.7-16.22
			c-0.54-1.1-1.34-2.03-2.35-2.81c-5.47-4.23-16.8-3.97-22.38-2.87c-7.11,1.39-20.63,8.09-21.05,15.35
			c-0.06,1.03,0.14,2.08,0.67,3.12C311.12,206.78,323.2,205.34,331.78,200.87"/>
		<path style="fill:none;stroke:#000000;stroke-width:14.0155;" d="M382.63,189.45c13.5,10.34,14.75,21.57,23.35,10.3
			c4.36-5.7-0.78-16.98-4.83-22.98c-0.41-0.61-0.81-1.16-1.19-1.65c-5.09-6.55-20.1-17.46-25.67-9.92
			c-3.19,4.34-2.97,9.13-0.94,13.53C375.28,182.89,378.82,186.7,382.63,189.45"/>
		<path style="fill:none;stroke:#000000;stroke-width:14.0155;" d="M255.67,234.39c16.93-1.77,25.54,5.53,24.05-8.57
			c-0.5-4.77-5.81-8.44-11.39-10.82c-3.61-1.53-7.32-2.53-9.92-2.93c-8.2-1.25-26.6,1.15-25.46,10.45c0.19,1.55,0.62,2.92,1.25,4.14
			C237.72,233.65,247.52,235.48,255.67,234.39"/>
		<path style="fill:none;stroke:#000000;stroke-width:14.0155;" d="M196.51,257.36c17.02,0.33,24.66,8.63,24.91-5.54
			c0.12-6.61-9.06-12.25-15.84-15c-1.33-0.53-2.56-0.96-3.62-1.26c-7.97-2.25-26.54-2.13-26.54,7.25c0,0.92,0.09,1.79,0.26,2.61
			C177.41,253.99,187.7,257.46,196.51,257.36"/>
		<path style="fill:none;stroke:#000000;stroke-width:14.0155;" d="M203.75,341.14c-10.94-13.03-9.73-24.25-20.56-15.12
			c-6.04,5.1-2.31,19.29,0.56,25.36c3.54,7.49,15.84,21.39,22.91,15.22C214.56,359.71,210.19,348.35,203.75,341.14z"/>
		<path style="fill:none;stroke:#000000;stroke-width:14.0155;" d="M142.2,326.87c7.94-15.05,18.79-18.16,6.24-24.75
			c-6.99-3.67-18.72,5.14-23.27,10.09c-5.59,6.11-13.82,22.75-5.44,26.96C129.09,343.88,137.95,335.55,142.2,326.87z"/>
		<path style="fill:none;stroke:#000000;stroke-width:14.0155;" d="M171.78,294.69c13.51,10.35,14.75,21.57,23.36,10.3
			c4.79-6.28-1.92-19.32-6.03-24.63c-5.08-6.55-20.1-17.46-25.66-9.91C157.23,278.89,163.95,289.04,171.78,294.69z"/>
		<path style="fill:none;stroke:#000000;stroke-width:14.0155;" d="M419.11,389.25c16.52-4.06,26.05,1.98,22.64-11.77
			c-1.91-7.68-16.28-10.6-23-10.7c-8.28-0.14-26.18,4.76-23.77,13.82C397.67,390.73,409.79,391.82,419.11,389.25z"/>
		<path style="fill:none;stroke:#000000;stroke-width:21.0232;" d="M672.83,243.96c58.91,18.51,94.21,42.1,103.51,69.87
			c1.66,4.94,2.5,10.01,2.5,15.21c0,19.8-14.47,38.72-40.04,55.49c-59.609,39.11-179.54,66.581-317,66.581
			c-137.31,0-256.45-26.14-315.71-64.42c-25.51-16.47-39.93-35.19-39.93-55.04c0-5.07,0.87-10.05,2.59-14.92
			c9.88-28.17,47.78-52.72,106.93-71.31c0.01,0,0.02-0.01,0.03-0.01"/>
		<path style="fill:none;stroke:#000000;stroke-width:14.0155;" d="M485.58,411.21c-15.311-7.4-25.89-3.47-19.7-16.22
			c3.46-7.11,18.13-6.98,24.72-5.68c8.131,1.59,24.62,10.1,20.381,18.47C506.24,417.13,494.16,415.69,485.58,411.21z"/>
		<path style="fill:none;stroke:#000000;stroke-width:14.0155;" d="M583.15,399.37c-15.311-7.4-25.891-3.48-19.7-16.22
			c3.46-7.11,18.13-6.98,24.72-5.69c8.13,1.6,24.63,10.12,20.38,18.48C603.81,405.3,591.72,403.85,583.15,399.37z"/>
		<path style="fill:none;stroke:#000000;stroke-width:14.0155;" d="M531.77,363.51c10.94-13.03,9.73-24.25,20.561-15.11
			c6.04,5.09,2.31,19.28-0.57,25.36c-3.54,7.48-15.83,21.38-22.899,15.21C520.96,382.08,525.33,370.73,531.77,363.51z"/>
		<path style="fill:none;stroke:#000000;stroke-width:14.0155;" d="M578.06,349.24c-7.939-15.04-18.79-18.15-6.239-24.74
			c6.989-3.67,18.729,5.13,23.27,10.09c5.601,6.1,13.82,22.74,5.44,26.96C591.17,366.26,582.31,357.93,578.06,349.24z"/>
		<path style="fill:none;stroke:#000000;stroke-width:14.0155;" d="M505.61,358.32c-13.511,10.35-14.75,21.57-23.36,10.31
			c-4.79-6.28,1.92-19.33,6.03-24.64c5.08-6.54,20.1-17.45,25.67-9.91C520.16,342.53,513.44,352.67,505.61,358.32z"/>
		<path style="fill:none;stroke:#000000;stroke-width:14.0155;" d="M449.11,350.16c-17.011,0.33-24.66,8.63-24.91-5.53
			c-0.13-7.91,13.01-14.43,19.47-16.27c7.96-2.25,26.53-2.13,26.53,7.25C470.2,346.09,458.78,350.27,449.11,350.16z"/>
		<path style="fill:none;stroke:#000000;stroke-width:14.0155;" d="M582.91,307.45c-15.32-7.41-25.9-3.49-19.7-16.23
			c3.46-7.1,18.13-6.97,24.72-5.68c8.13,1.6,24.63,10.11,20.38,18.47C603.56,313.36,591.48,311.92,582.91,307.45z"/>
		<path style="fill:none;stroke:#000000;stroke-width:14.0155;" d="M647.63,298.42c-15.32-7.41-25.899-3.48-19.7-16.22
			c3.46-7.11,18.12-6.98,24.73-5.69c8.109,1.6,24.609,10.11,20.359,18.48C668.28,304.34,656.2,302.89,647.63,298.42z"/>
		<path style="fill:none;stroke:#000000;stroke-width:14.0155;" d="M536.35,258.56c10.94-13.03,9.73-24.25,20.551-15.12
			c6.05,5.1,2.319,19.29-0.561,25.37c-3.54,7.48-15.84,21.38-22.899,15.21C525.54,277.13,529.91,265.77,536.35,258.56z"/>
		<path style="fill:none;stroke:#000000;stroke-width:14.0155;" d="M582.64,244.29c-6.1-11.56-13.909-16.08-11.52-20.53
			c0.71-1.35,2.37-2.69,5.28-4.21c7-3.67,18.72,5.13,23.27,10.08c1.49,1.63,3.17,4.01,4.67,6.7c4.13,7.4,6.92,17.17,0.78,20.26
			C595.75,261.31,586.89,252.97,582.64,244.29"/>
		<path style="fill:none;stroke:#000000;stroke-width:14.0155;" d="M507.41,312.45c-13.5,10.35-14.74,21.57-23.351,10.31
			c-4.8-6.29,1.91-19.33,6.021-24.64c5.09-6.55,20.1-17.46,25.67-9.91C521.97,296.65,515.25,306.8,507.41,312.45z"/>
		<path style="fill:none;stroke:#000000;stroke-width:14.0155;" d="M510.18,253.36c-13.489,10.36-14.739,21.58-23.35,10.32
			c-4.8-6.28,1.92-19.33,6.03-24.64c5.09-6.54,20.1-17.45,25.659-9.91C524.75,237.58,518.02,247.72,510.18,253.36z"/>
		<path style="fill:none;stroke:#000000;stroke-width:14.0155;" d="M445.64,292.98c-6.72-15.63-17.29-19.59-4.27-25.16
			c7.28-3.1,18.27,6.6,22.41,11.9c5.1,6.52,11.979,23.76,3.3,27.3C457.38,310.98,449.19,301.97,445.64,292.98z"/>
		<path style="fill:none;stroke:#000000;stroke-width:14.0155;" d="M453.69,245.21c-17.011,0.33-24.66,8.63-24.91-5.54
			c-0.141-7.9,13-14.42,19.47-16.26c7.97-2.25,26.53-2.13,26.53,7.25C474.78,241.14,463.36,245.32,453.69,245.21z"/>
		<path style="fill:none;stroke:#000000;stroke-width:14.0155;" d="M443.5,192.47c-3.91-7.6-8.6-12.19-10.69-15.7
			c-2.06-3.48-1.59-5.89,4.681-9.11c7.029-3.61,18.68,5.3,23.18,10.3c0.51,0.57,1.04,1.22,1.58,1.95
			c5.31,7.17,11.28,21.29,3.64,25.06C456.47,209.59,447.68,201.18,443.5,192.47"/>
		<path style="fill:none;stroke:#000000;stroke-width:14.0155;" d="M518.7,214.64c-6.15-14.31-15.53-18.83-7.061-23.77
			c0.78-0.46,1.71-0.91,2.801-1.38c7.27-3.11,18.27,6.59,22.409,11.9c0.83,1.06,1.7,2.4,2.551,3.93
			c4.369,7.83,8.029,20.4,0.75,23.36C530.44,232.65,522.26,223.64,518.7,214.64"/>
		<path style="fill:none;stroke:#000000;stroke-width:14.0155;" d="M648.49,261.76c-17.01,0.33-24.66,8.64-24.91-5.53
			c-0.14-7.91,13-14.43,19.46-16.27c7.97-2.24,29.79-5.37,29.79,4C672.83,254.45,658.15,261.88,648.49,261.76"/>
		<path style="fill:none;stroke:#000000;stroke-width:14.0155;" d="M254.56,402.45c-15.32-7.41-25.9-3.48-19.7-16.22
			c3.45-7.11,18.13-6.98,24.72-5.68c8.13,1.6,24.62,10.11,20.38,18.47C275.21,408.37,263.13,406.93,254.56,402.45z"/>
		<path style="fill:none;stroke:#000000;stroke-width:14.0155;" d="M641.25,338.53c10.95-13.03,9.74-24.25,20.56-15.11
			c6.051,5.1,2.32,19.29-0.56,25.36c-3.54,7.48-15.84,21.38-22.9,15.22C630.44,357.1,634.82,345.75,641.25,338.53z"/>
		<path style="fill:none;stroke:#000000;stroke-width:14.0155;" d="M692.64,336.68c-7.93-15.04-18.779-18.15-6.239-24.74
			c7-3.67,18.729,5.13,23.279,10.09c5.601,6.1,13.82,22.74,5.44,26.96C705.75,353.7,696.89,345.37,692.64,336.68z"/>
		<path style="fill:none;stroke:#000000;stroke-width:21.0232;" d="M775.61,314.07c-18.21,60.24-169.67,107.24-353.8,107.24
			c-181.36,0-331.02-45.59-352.89-104.52"/>
	</g>
</g>
<rect style="fill:none;" width="850.394" height="850.394"/>
</svg>
