<?xml version="1.0" encoding="iso-8859-1"?>
<!-- Generator: Adobe Illustrator 12.0.1, SVG Export Plug-In . SVG Version: 6.00 Build 51448)  -->
<!DOCTYPE svg PUBLIC "-//W3C//DTD SVG 1.1//EN" "http://www.w3.org/Graphics/SVG/1.1/DTD/svg11.dtd" [
	<!ENTITY ns_svg "http://www.w3.org/2000/svg">
	<!ENTITY ns_xlink "http://www.w3.org/1999/xlink">
]>
<svg  version="1.1" id="Layer_1" xmlns="&ns_svg;" xmlns:xlink="&ns_xlink;" width="850.394" height="850.394"
	 viewBox="0 0 850.394 850.394" style="overflow:visible;enable-background:new 0 0 850.394 850.394;" xml:space="preserve">
<path style="fill:none;stroke:#23201F;stroke-width:21;stroke-linecap:round;stroke-linejoin:round;" d="M459.38,191.141
	c-8.13,12.76-30.19,38.029-44.92,38.029c-24.64,0-44.63-23.16-44.63-51.72c0-28.57,19.99-51.72,44.63-51.72v-53.4"/>
<g id="XMLID_3_">
	<g>
		<path style="fill:#EE947D;" d="M394.02,247.01c15.03-24.01,29.25-33.71,43.63-37.68c14.369-3.96,28.739,4.4,31.72,11.28
			c5.18,11.93,0.5,13.01-9.17,30.12s-26.34,43.69-29.811,69.47c-0.159,1.2-0.31,2.33-0.46,3.41v-1.1
			c-0.81,17.97-0.55,14.37,1.03,40.34c1.59,25.96,15.3,52.56,23.7,70.32c8.39,17.771,12.979,19.19,6.95,30.71
			c-3.48,6.65-18.42,13.94-32.46,8.94C415.1,467.81,400.05,458.68,386.8,433.64c-2.43-4.6-4.49-9.38-6.33-14.24
			c-5.34-14.1-10.59-24.19-13.5-63.07c-1.78-23.71,2.83-50.12,3.21-51.81C376.04,278.33,379.66,269.95,394.02,247.01z"/>
		<path style="fill:#EE947D;" d="M568.24,624.48c0.37,1.67,4.979,28.09,3.21,51.81c-2.91,38.87-8.16,48.96-13.51,63.06
			c-1.841,4.86-3.891,9.641-6.32,14.24c-13.25,25.04-28.3,34.16-42.34,39.18c-14.061,5-28.99-2.289-32.471-8.939
			c-6.029-11.51-1.439-12.94,6.95-30.7c8.4-17.77,22.12-44.37,23.69-70.33c1.59-25.97,1.85-22.359,1.04-40.34v1.1
			c-0.15-1.079-0.3-2.21-0.46-3.409c-3.48-25.78-20.141-52.36-29.811-69.471c-9.67-17.1-14.35-18.189-9.18-30.12
			c2.08-4.77,9.6-10.25,18.81-11.84c0.011,0,0.011,0,0.011,0c2.109,0.09,4.29-0.04,6.47-0.43c2.13,0.08,4.29,0.4,6.45,1
			c14.37,3.97,28.59,13.66,43.63,37.68C558.76,589.89,562.39,598.29,568.24,624.48z"/>
		<path style="fill:#EE947D;" d="M557.84,358.79c0.38,1.69,4.98,28.1,3.21,51.81c-2.91,38.88-8.16,48.97-13.5,63.07
			c-1.84,4.86-3.899,9.64-6.33,14.24c-13.239,25.05-28.29,34.17-42.34,39.18c-1.51,0.54-3.03,0.94-4.55,1.2
			c-2.21-0.09-4.38,0.07-6.47,0.43c0,0,0,0-0.011,0c-10.08-0.41-18.88-5.67-21.439-10.569c-6.03-11.521-1.44-12.95,6.96-30.71
			c8.399-17.761,22.1-44.351,23.689-70.32c1.58-25.97,1.841-22.37,1.03-40.34v1.1c-0.149-1.08-0.3-2.21-0.46-3.41
			c-3.47-25.78-20.14-52.36-29.8-69.47c-9.68-17.1-14.36-18.19-9.18-30.12C461.63,268,476,259.64,490.38,263.6
			c14.37,3.97,28.59,13.67,43.63,37.68C548.36,324.22,551.99,332.61,557.84,358.79z"/>
		<path style="fill:#EE947D;" d="M461.31,490.49c5.171,11.92,0.5,13.01-9.17,30.12c-9.67,17.1-26.34,43.689-29.81,69.46
			c-0.16,1.199-0.31,2.34-0.46,3.42v-1.11c-0.81,17.98-0.55,14.37,1.04,40.34c1.57,25.971,15.29,52.57,23.68,70.33
			c8.4,17.76,12.99,19.19,6.96,30.71c-3.479,6.641-18.42,13.931-32.46,8.94c-14.05-5.021-29.11-14.15-42.35-39.19
			c-2.43-4.59-4.49-9.37-6.32-14.229c-5.35-14.11-10.6-24.19-13.52-63.07c-1.77-23.72,2.85-50.13,3.22-51.81
			c5.85-26.19,9.48-34.58,23.84-57.511c15.03-24.01,29.25-33.72,43.62-37.68C443.96,475.24,458.33,483.61,461.31,490.49z"/>
		<path style="fill:#EE947D;" d="M400.12,219.2c3.39,12.55-1.4,12.94-13.43,28.47c-12.04,15.53-32.38,39.43-39.54,64.43
			c-0.33,1.17-0.65,2.27-0.95,3.31l0.16-1.09c-3.41,17.67-2.62,14.14-4.81,40.07c-2.19,25.92,7.54,54.22,13.28,73.01
			c5.74,18.79,10.07,20.859,2.44,31.39c-4.4,6.07-20.24,11.13-33.41,4.15c-13.18-6.98-26.76-18.19-36.24-44.891
			c-1.74-4.9-3.09-9.93-4.2-15c-3.26-14.73-6.99-25.46-4.25-64.36c1.67-23.72,10.05-49.19,10.66-50.8
			c9.58-25.07,14.38-32.85,31.91-53.47c18.34-21.58,33.81-29.12,48.61-30.97C385.15,201.61,398.16,211.96,400.12,219.2z"/>
		<path style="fill:#EE947D;" d="M370.8,482.77c5.17,11.931,0.5,13.021-9.17,30.131c-9.67,17.09-26.34,43.689-29.81,69.46
			c-0.17,1.199-0.31,2.34-0.46,3.409v-1.1c-0.82,17.98-0.55,14.37,1.03,40.34c1.58,25.971,15.29,52.57,23.69,70.33
			s12.99,19.18,6.96,30.7c-3.48,6.65-18.42,13.93-32.47,8.95c-14.05-5.021-29.1-14.15-42.34-39.19c-2.43-4.59-4.49-9.38-6.33-14.24
			c-5.34-14.1-10.6-24.18-13.51-63.069c-1.77-23.71,2.84-50.12,3.22-51.811c5.85-26.18,9.47-34.569,23.83-57.51
			c15.03-24.01,29.25-33.71,43.63-37.68C353.45,467.53,367.82,475.9,370.8,482.77z"/>
	</g>
	<g>
		<path style="fill:none;stroke:#231F20;stroke-width:21;" d="M287.62,418.05c9.48,26.7,23.06,37.91,36.24,44.891
			c13.17,6.979,29.01,1.92,33.41-4.15c7.63-10.53,3.3-12.6-2.44-31.39c-5.74-18.791-15.47-47.09-13.28-73.01
			c2.19-25.93,1.4-22.4,4.81-40.07l-0.16,1.09c0.3-1.04,0.62-2.14,0.95-3.31c7.16-25,27.5-48.9,39.54-64.43
			c12.03-15.53,16.82-15.92,13.43-28.47c-1.96-7.24-14.97-17.59-29.77-15.75c-14.8,1.85-30.27,9.39-48.61,30.97
			c-17.53,20.62-22.33,28.4-31.91,53.47c-0.61,1.61-8.99,27.08-10.66,50.8c-2.74,38.9,0.99,49.63,4.25,64.36
			C284.53,408.12,285.88,413.15,287.62,418.05z"/>
		<path style="fill:none;stroke:#231F20;stroke-width:21;" d="M288.23,695.8c13.24,25.04,28.29,34.17,42.34,39.19
			c14.05,4.979,28.99-2.3,32.47-8.95c6.03-11.521,1.44-12.94-6.96-30.7s-22.11-44.359-23.69-70.33
			c-1.58-25.97-1.85-22.359-1.03-40.34v1.1c0.15-1.069,0.29-2.21,0.46-3.409c3.47-25.771,20.14-52.37,29.81-69.46
			c9.67-17.11,14.34-18.2,9.17-30.131c-2.98-6.869-17.35-15.239-31.73-11.279c-14.38,3.97-28.6,13.67-43.63,37.68
			c-14.36,22.94-17.98,31.33-23.83,57.51c-0.38,1.69-4.99,28.101-3.22,51.811c2.91,38.89,8.17,48.97,13.51,63.069
			C283.74,686.42,285.8,691.21,288.23,695.8z"/>
		<path style="fill:none;stroke:#231F20;stroke-width:21;" d="M386.8,433.64c13.25,25.04,28.3,34.17,42.351,39.181
			c14.04,5,28.979-2.29,32.46-8.94c6.029-11.52,1.439-12.939-6.95-30.71c-8.4-17.76-22.11-44.36-23.7-70.32
			c-1.58-25.97-1.84-22.37-1.03-40.34v1.1c0.15-1.08,0.301-2.21,0.46-3.41c3.471-25.78,20.141-52.36,29.811-69.47
			s14.35-18.19,9.17-30.12c-2.98-6.88-17.351-15.24-31.72-11.28c-14.38,3.97-28.601,13.67-43.63,37.68
			c-14.36,22.94-17.98,31.32-23.84,57.51c-0.38,1.69-4.99,28.1-3.21,51.81c2.91,38.88,8.16,48.97,13.5,63.07
			C382.31,424.26,384.37,429.04,386.8,433.64z"/>
		<path style="fill:none;stroke:#231F20;stroke-width:21;" d="M378.74,703.51c13.24,25.04,28.3,34.17,42.35,39.19
			c14.04,4.99,28.98-2.3,32.46-8.94c6.03-11.52,1.44-12.95-6.96-30.71c-8.39-17.76-22.11-44.359-23.68-70.33
			c-1.59-25.97-1.85-22.359-1.04-40.34v1.11c0.15-1.08,0.3-2.221,0.46-3.42c3.47-25.771,20.14-52.36,29.81-69.46
			c9.67-17.11,14.341-18.2,9.17-30.12c-2.979-6.88-17.35-15.25-31.729-11.28c-14.37,3.96-28.59,13.67-43.62,37.68
			c-14.36,22.931-17.99,31.32-23.84,57.511c-0.37,1.68-4.99,28.09-3.22,51.81c2.92,38.88,8.17,48.96,13.52,63.07
			C374.25,694.14,376.31,698.92,378.74,703.51z"/>
		<path style="fill:none;stroke:#231F20;stroke-width:21;" d="M487.85,528.72c-10.08-0.41-18.88-5.67-21.439-10.569
			c-6.03-11.521-1.44-12.95,6.96-30.71c8.399-17.761,22.1-44.351,23.689-70.32c1.58-25.97,1.841-22.37,1.03-40.34v1.1
			c-0.149-1.08-0.3-2.21-0.46-3.41c-3.47-25.78-20.14-52.36-29.8-69.47c-9.68-17.1-14.36-18.19-9.18-30.12
			C461.63,268,476,259.64,490.38,263.6c14.37,3.97,28.59,13.67,43.63,37.68c14.351,22.94,17.98,31.33,23.83,57.51
			c0.38,1.69,4.98,28.1,3.21,51.81c-2.91,38.88-8.16,48.97-13.5,63.07c-1.84,4.86-3.899,9.64-6.33,14.24
			c-13.239,25.05-28.29,34.17-42.34,39.18c-1.51,0.54-3.03,0.94-4.55,1.2c-2.18,0.39-4.36,0.52-6.47,0.43"/>
		<path style="fill:none;stroke:#231F20;stroke-width:21;" d="M494.33,528.29c2.13,0.08,4.29,0.4,6.45,1
			c14.37,3.97,28.59,13.66,43.63,37.68c14.35,22.92,17.979,31.32,23.83,57.511c0.37,1.67,4.979,28.09,3.21,51.81
			c-2.91,38.87-8.16,48.96-13.51,63.06c-1.841,4.86-3.891,9.641-6.32,14.24c-13.25,25.04-28.3,34.16-42.34,39.18
			c-14.061,5-28.99-2.289-32.471-8.939c-6.029-11.51-1.439-12.94,6.95-30.7c8.4-17.77,22.12-44.37,23.69-70.33
			c1.59-25.97,1.85-22.359,1.04-40.34v1.1c-0.15-1.079-0.3-2.21-0.46-3.409c-3.48-25.78-20.141-52.36-29.811-69.471
			c-9.67-17.1-14.35-18.189-9.18-30.12c2.08-4.77,9.6-10.25,18.81-11.84c0.011,0,0.011,0,0.011,0
			C489.95,528.36,492.12,528.2,494.33,528.29z"/>
	</g>
</g>
<rect style="fill:none;" width="850.394" height="850.394"/>
</svg>
