<?xml version="1.0" encoding="iso-8859-1"?>
<!-- Generator: Adobe Illustrator 12.0.1, SVG Export Plug-In . SVG Version: 6.00 Build 51448)  -->
<!DOCTYPE svg PUBLIC "-//W3C//DTD SVG 1.1//EN" "http://www.w3.org/Graphics/SVG/1.1/DTD/svg11.dtd" [
	<!ENTITY ns_svg "http://www.w3.org/2000/svg">
	<!ENTITY ns_xlink "http://www.w3.org/1999/xlink">
]>
<svg  version="1.1" id="Layer_1" xmlns="&ns_svg;" xmlns:xlink="&ns_xlink;" width="850.89" height="850.89"
	 viewBox="0 0 850.89 850.89" style="overflow:visible;enable-background:new 0 0 850.89 850.89;" xml:space="preserve">
<g>
	<g id="XMLID_1_">
		<g>
			<path style="fill:#A9D7F3;" d="M195.94,586.47c0,16.44,108.11,95.63,212.02,29.96c-14.28,56.63-29.71,117.82-29.71,117.82
				l-0.28,1.43L80.22,677.03C94.52,631.85,146.35,610,195.94,586.47z"/>
			<path style="fill:#ED1E29;" d="M684.77,491.86c6.171,2.109,9.45,8.81,7.33,14.97c-1.67,4.9-6.239,7.97-11.13,7.97
				c-1.27,0-2.56-0.2-3.83-0.64l-16.529-5.66l0.47-1.38l6.9-20.14l0.27-0.78L684.77,491.86z"/>
			<path style="fill:#FFEEC8;" d="M615.61,453.96c8.54-2.94,22.88,3.75,14.64,16.29l-0.9,2.63l-31.25-10.71
				C607.65,457.53,614.13,454.47,615.61,453.96z"/>
			<path style="fill:#FFFFFF;" d="M568.25,476.87c11.12-5.51,21.27-10.521,29.32-14.43c0.18-0.091,0.359-0.181,0.529-0.271
				l31.25,10.71l38.9,13.32l-0.27,0.78l-6.9,20.14l-0.47,1.38l-54.801-18.77L568.25,476.87z"/>
			<path style="fill:#FFFFFF;" d="M563.03,452.18c-8.98,3.811-19.94,8.471-30.601,13.021l-0.3-0.71l-27.03-9.25l-10.76-3.681
				l7.641-22.31l60.81,20.83L563.03,452.18z"/>
			<path style="fill:#FFEEC8;" d="M378.25,734.25c0,0,15.43-61.19,29.71-117.82c9.35-37.06,18.19-72.16,21.9-86.899
				c0.8-3.16,1.35-5.38,1.63-6.49c3.97-15.89,16.24-23.021,54.99-38.84c0,0,1.38-0.41,3.579-0.94c0,0,1.271-0.54,3.511-1.5
				c6.779-2.89,22.47-9.58,38.859-16.56c10.66-4.55,21.62-9.21,30.601-13.021c6.97-2.96,12.75-5.41,16.279-6.899
				c7.65-3.221,20.75,2.6,18.341,16.739c-0.021,0.141-0.051,0.28-0.08,0.421c-8.051,3.909-18.2,8.92-29.32,14.43l37.56,12.86
				l-0.449,1.31c-34.37,20.65-66.4,40.16-75.57,45.76c11.97-5.85,22.28-9.7,25.19-7.399c12.3,9.77,8.939,24.619,4.05,30.75v0.01
				c1.92-0.391,3.42-0.28,4.35,0.47c8.04,6.351,8.59,17.96,5.95,29.38c0,0-6.63,20.431-15.14,12.07c-6.03-5.95-24.04,13.96-27.53,32
				c-3.47,18.06,1.21,20.67-2.88,37.479c-4.101,16.771-20.67,32.79-31.851,45.301C481.53,728.5,466.83,736.77,465.9,753
				l-87.93-17.32L378.25,734.25z"/>
			<path style="fill:#231F20;" d="M440.19,331.03c-0.74,3.56-3.73,5.94-6.71,5.33c-2.94-0.62-4.74-3.99-4.011-7.54
				c0.73-3.55,3.721-5.94,6.67-5.33C439.12,324.11,440.93,327.5,440.19,331.03z"/>
			<path style="fill:#ABD150;" d="M429.47,328.82c-0.729,3.55,1.07,6.92,4.011,7.54c2.979,0.61,5.97-1.77,6.71-5.33
				c0.739-3.53-1.07-6.92-4.051-7.54C433.19,322.88,430.2,325.27,429.47,328.82z M432.01,342.19c-5.46-1.96-7.52-6.17-8.94-9.39
				c-1.42-3.21,3.34-10.57,4.02-11.59c6.93-2.74,11.21-5.36,11.21-5.36s6.4,12.08-0.31,21.71c-3.57,5.13-4.38,4.96-4.38,4.96
				s-0.511,0.24-1.591,0.44L432.01,342.19z"/>
			<path style="fill:#FFFFFF;" d="M427.09,321.21c-0.68,1.02-5.44,8.38-4.02,11.59c1.42,3.22,3.48,7.43,8.94,9.39l0.01,0.77
				c-1.85,0.36-5.38,0.63-10.939-0.52c-8.84-1.82-33.01-8.49-33.01-8.49s-4.39-5.11,15.25-6.91
				C412.59,326.2,420.9,323.66,427.09,321.21z"/>
			<path style="fill:#FFEEC8;" d="M388.07,333.95c0,0,24.17,6.67,33.01,8.49c5.56,1.15,9.09,0.88,10.939,0.52
				c1.08-0.2,1.591-0.44,1.591-0.44s0.81,0.17,4.38-4.96c6.71-9.63,0.31-21.71,0.31-21.71s-4.28,2.62-11.21,5.36
				c-6.19,2.45-14.5,4.99-23.77,5.83C383.68,328.84,388.07,333.95,388.07,333.95z M235.29,317.32c19.39-8.66,27.44,7.86,37.59,28.8
				c0,0,0.93,14.08,11.49-4.52c10.55-18.59,7.85-48.03,12.08-71.71c4.22-23.71,26.39-13.99,68.91-22.86
				c42.53-8.88,56.12-5.15,77.01-20.65c6.09-4.53,11.08-9.76,14.649-15.38l1.431,0.26c7.979,6.13,12.93,11.61,18.17,34.11
				c4.02,17.37,2.01,24.11,0.92,40.44c-1.03,15.07-0.521,25.17,14.6,39.27c17.82,16.62,21.92,19.82,32.07,28.14
				c10.13,8.32,3.82,22.69-3.1,25.15c-10.65,3.76-4.82,1.89-20.011,4.84c-6.29,1.22-6.93,17.9-1.649,22.67
				c5.24,4.74,12.149,8.73,0.89,13.56c-16.31,7.01-25.35,12.9-45.12,26.33c0,0,34.7,12.44,48.34,13.971
				c-0.76,4.34-13.579,13.319-11.31,18.51l1.32,3.51c-2.24,0.96-3.511,1.5-3.511,1.5c-2.199,0.53-3.579,0.94-3.579,0.94
				c-38.75,15.819-51.021,22.95-54.99,38.84c-0.28,1.11-0.83,3.33-1.63,6.49c-3.71,14.739-12.55,49.84-21.9,86.899
				c-103.91,65.67-212.02-13.52-212.02-29.96c14.46-6.859,30.35-11.739,34.29-30.96c4.78-23.25-7.75-49.38-10.45-71.09
				c10.34-3.18,8.05-11.92,12.97-26.87l9.81-33.33c-5.73-19.97-27.69-30.42-33.46-53.19C202.33,344.27,215.89,325.98,235.29,317.32z
				"/>
			<path style="fill:#9C5C25;" d="M211.18,485.72c-20.28,0.99-26.82-8.77-62-42.2C109.81,406.1,101.05,347.99,96.63,320.99
				c-4.42-27.01-5.02-93.19,13.23-121.38c18.26-28.19,36.03-47.6,36.03-47.6s61.48-56.23,105.16-57.65
				c43.68-1.43,83.82-7.06,111.99,5.65c28.18,12.71,73.62,48.97,90.83,67.98c12.2,13.46,11.83,29.36,3.149,43.01
				c-3.569,5.62-8.56,10.85-14.649,15.38c-20.89,15.5-34.48,11.77-77.01,20.65c-42.52,8.87-64.69-0.85-68.91,22.86
				c-4.23,23.68-1.53,53.12-12.08,71.71c-10.56,18.6-11.49,4.52-11.49,4.52c-10.15-20.94-18.2-37.46-37.59-28.8
				c-19.4,8.66-32.96,26.95-26.19,53.71c5.77,22.77,27.73,33.22,33.46,53.19l-9.81,33.33c-4.92,14.95-2.63,23.69-12.97,26.87
				C217.56,485.11,214.76,485.54,211.18,485.72z"/>
		</g>
		<g>
			<path style="fill:none;stroke:#231F20;stroke-width:7;" d="M432.02,342.96c1.08-0.2,1.591-0.44,1.591-0.44s0.81,0.17,4.38-4.96
				c6.71-9.63,0.31-21.71,0.31-21.71s-4.28,2.62-11.21,5.36c-6.19,2.45-14.5,4.99-23.77,5.83c-19.64,1.8-15.25,6.91-15.25,6.91
				s24.17,6.67,33.01,8.49C426.64,343.59,430.17,343.32,432.02,342.96z"/>
			<path style="fill:none;stroke:#231F20;stroke-width:14;stroke-linecap:round;stroke-linejoin:round;" d="M446.67,287.67
				c0,0-14.13-6.51-45.11,4.89c-18.03,6.65-28.08,15.05-34.6,21.74"/>
			<path style="fill:none;stroke:#231F20;stroke-width:6.4948;" d="M427.17,321.09c0,0-0.03,0.04-0.08,0.12
				c-0.68,1.02-5.44,8.38-4.02,11.59c1.42,3.22,3.48,7.43,8.94,9.39"/>
			<path style="fill:none;stroke:#231F20;stroke-width:21;" d="M457.02,211c-3.569,5.62-8.56,10.85-14.649,15.38
				c-20.89,15.5-34.48,11.77-77.01,20.65c-42.52,8.87-64.69-0.85-68.91,22.86c-4.23,23.68-1.53,53.12-12.08,71.71
				c-10.56,18.6-11.49,4.52-11.49,4.52c-10.15-20.94-18.2-37.46-37.59-28.8c-19.4,8.66-32.96,26.95-26.19,53.71
				c5.77,22.77,27.73,33.22,33.46,53.19l-9.81,33.33c-4.92,14.95-2.63,23.69-12.97,26.87c-2.22,0.69-5.02,1.12-8.6,1.3
				c-20.28,0.99-26.82-8.77-62-42.2C109.81,406.1,101.05,347.99,96.63,320.99c-4.42-27.01-5.02-93.19,13.23-121.38
				c18.26-28.19,36.03-47.6,36.03-47.6s61.48-56.23,105.16-57.65c43.68-1.43,83.82-7.06,111.99,5.65
				c28.18,12.71,73.62,48.97,90.83,67.98C466.07,181.45,465.7,197.35,457.02,211z"/>
			<path style="fill:none;stroke:#231F20;stroke-width:21;" d="M219.31,478.58c0.06,1.9,0.23,3.85,0.47,5.84
				c2.7,21.71,15.23,47.84,10.45,71.09c-3.94,19.221-19.83,24.101-34.29,30.96C146.35,610,94.52,631.85,80.22,677.03
				c-0.43,1.35-0.82,2.72-1.18,4.109"/>
			<path style="fill:none;stroke:#231F20;stroke-width:21;" d="M492.25,478.25c-2.27-5.19,10.55-14.17,11.31-18.51
				c-13.64-1.53-48.34-13.971-48.34-13.971c19.771-13.43,28.811-19.319,45.12-26.33c11.26-4.83,4.351-8.82-0.89-13.56
				c-5.28-4.77-4.641-21.45,1.649-22.67c15.19-2.95,9.36-1.08,20.011-4.84c6.92-2.46,13.229-16.83,3.1-25.15
				c-10.15-8.32-14.25-11.52-32.07-28.14c-15.12-14.1-15.63-24.2-14.6-39.27c1.09-16.33,3.1-23.07-0.92-40.44
				c-5.24-22.5-10.19-27.98-18.17-34.11"/>
			<path style="fill:none;stroke:#231F20;stroke-width:21;" d="M365.99,530.08c0,0,31.72,2.33,63.87-0.55
				c0.659-0.05,1.33-0.12,2-0.181"/>
			<path style="fill:none;stroke:#231F20;stroke-width:19.4844;" d="M529.78,536.81c-1.69,1.021-2.601,1.58-2.601,1.58"/>
			<path style="fill:none;stroke:#231F20;stroke-width:19.4844;" d="M605.36,491.04c-34.37,20.65-66.4,40.16-75.57,45.76"/>
			<path style="fill:none;stroke:#231F20;stroke-width:21;" d="M460.2,531.21c5.1-2.81,64.16-32.58,108.05-54.34
				c11.12-5.51,21.27-10.521,29.32-14.43c0.18-0.091,0.359-0.181,0.529-0.271c9.551-4.64,16.03-7.7,17.511-8.21
				c8.54-2.94,22.88,3.75,14.64,16.29"/>
			<path style="fill:none;stroke:#231F20;stroke-width:21;" d="M378.25,734.25c0,0,15.43-61.19,29.71-117.82
				c9.35-37.06,18.19-72.16,21.9-86.899c0.8-3.16,1.35-5.38,1.63-6.49c3.97-15.89,16.24-23.021,54.99-38.84
				c0,0,1.38-0.41,3.579-0.94c0,0,1.271-0.54,3.511-1.5c6.779-2.89,22.47-9.58,38.859-16.56c10.66-4.55,21.62-9.21,30.601-13.021
				c6.97-2.96,12.75-5.41,16.279-6.899c7.65-3.221,20.75,2.6,18.341,16.739c-0.021,0.141-0.051,0.28-0.08,0.421
				c-0.051,0.27-0.11,0.55-0.17,0.829"/>
			<path style="fill:none;stroke:#231F20;stroke-width:21;" d="M493.59,556.8c9.59-5.72,23.78-13.93,36.19-19.99
				c0,0,0-0.01,0.01-0.01c11.97-5.85,22.28-9.7,25.19-7.399c12.3,9.77,8.939,24.619,4.05,30.75"/>
			<path style="fill:none;stroke:#231F20;stroke-width:21;" d="M522,582.21c12.37-9.18,28.68-20.36,37.03-22.05
				c1.92-0.391,3.42-0.28,4.35,0.47c8.04,6.351,8.59,17.96,5.95,29.38c0,0-6.63,20.431-15.14,12.07c-6.03-5.95-24.04,13.96-27.53,32
				c-3.47,18.06,1.21,20.67-2.88,37.479c-4.101,16.771-20.67,32.79-31.851,45.301C481.53,728.5,466.83,736.77,465.9,753
				c-0.101,1.78-0.03,3.66,0.22,5.64"/>
			<polyline style="fill:none;stroke:#231F20;stroke-width:14;" points="532.13,464.49 505.1,455.24 494.34,451.56 501.98,429.25 
				562.79,450.08 			"/>
			<path style="fill:none;stroke:#231F20;stroke-width:14;" d="M595.9,461.42l1.75,0.6l0.449,0.15l31.25,10.71l38.9,13.32
				l16.52,5.66c6.171,2.109,9.45,8.81,7.33,14.97c-1.67,4.9-6.239,7.97-11.13,7.97c-1.27,0-2.56-0.2-3.83-0.64l-16.529-5.66
				l-54.801-18.77l-37.56-12.86l-1.23-0.42"/>
			<line style="fill:none;stroke:#231F20;stroke-width:14;" x1="667.98" y1="486.98" x2="661.08" y2="507.12"/>
			<path style="fill:none;stroke:#231F20;stroke-width:14;stroke-linecap:round;stroke-linejoin:round;" d="M685.1,454.4
				c19.49-34.641-5.1-67.36-7.569-76.851c-6.5-24.9-1.73-42.73,11.91-56.11c15.27-14.98,32.84-17.44,37.85-41.32
				c2.2-10.52,0.03-41.13-20.54-48.7"/>
			<path style="fill:none;stroke:#231F20;stroke-width:14;stroke-linecap:round;stroke-linejoin:round;" d="M763.04,247.65
				c12.51,22.15,14.41,44.38-12.72,63.87c-12.061,8.67-50.061,24.89-30.57,61.7"/>
			<path style="fill:none;stroke:#231F20;stroke-width:21;" d="M195.94,586.47c0,16.44,108.11,95.63,212.02,29.96
				c0.1-0.06,0.19-0.12,0.29-0.18"/>
		</g>
	</g>
</g>
<rect x="0.25" y="0.25" style="fill:none;" width="850.394" height="850.394"/>
</svg>
