<?xml version="1.0" encoding="iso-8859-1"?>
<!-- Generator: Adobe Illustrator 12.0.1, SVG Export Plug-In . SVG Version: 6.00 Build 51448)  -->
<!DOCTYPE svg PUBLIC "-//W3C//DTD SVG 1.1//EN" "http://www.w3.org/Graphics/SVG/1.1/DTD/svg11.dtd" [
	<!ENTITY ns_svg "http://www.w3.org/2000/svg">
	<!ENTITY ns_xlink "http://www.w3.org/1999/xlink">
]>
<svg  version="1.1" id="Layer_1" xmlns="&ns_svg;" xmlns:xlink="&ns_xlink;" width="850.394" height="850.394"
	 viewBox="0 0 850.394 850.394" style="overflow:visible;enable-background:new 0 0 850.394 850.394;" xml:space="preserve">
<g id="XMLID_1_">
	<g>
		<path style="fill:#F73900;" d="M706.35,366.93c-40.85-0.04-83.34-7.56-88.09-23.39c-14.04-46.79,4.971-96.16-38.01-118.88
			c-38-20.08-270.6-21.64-308.6-1.56c-42.98,22.71-23.97,72.08-38.01,118.87c-4.13,13.78-36.89,21.26-72.25,23
			c-38.54,1.89-80.18-3.06-91.25-14.13c-22.1-22.1-5.31-94.03-5.31-94.03c13.26-65.65,43.21-82.42,95.14-109.45
			c68.99-35.91,271.64-37.81,271.64-37.81s191.33,3.46,260.319,39.37c51.931,27.03,81.88,43.81,95.15,109.45
			c0,0,16.78,71.93-5.311,94.04C772.21,361.97,739.83,366.96,706.35,366.93z"/>
		<path style="fill:#F73900;" d="M431.03,731.79H212.5c-39.89,0-72.23-12.66-72.23-59.271l21.12-307.549
			c35.36-1.74,68.12-9.22,72.25-23c14.04-46.79-4.97-96.16,38.01-118.87c38-20.08,270.6-18.52,308.6,1.56
			c42.98,22.72,23.97,72.09,38.01,118.88c4.75,15.83,47.24,23.35,88.09,23.39l21.12,305.62c0,46.61-32.34,59.271-72.22,59.271
			H431.03V731.79z M545.63,268.05V232.2H306.9v35.85v35.84h238.73V268.05z M571.02,432.48V368.44h-62.67v64.041H571.02z
			 M570.11,640.28v-64.04H507.43v64.04H570.11z M570.11,538.49v-64.04H507.43v64.04H570.11z M462.03,432.48V368.44h-62.68v64.041
			H462.03z M461.11,640.28v-64.04h-62.67v64.04H461.11z M461.11,538.49v-64.04h-62.67v64.04H461.11z M353.02,432.48V368.44h-62.68
			v64.041H353.02z M352.11,640.28v-64.04h-62.68v64.04H352.11z M352.11,538.49v-64.04h-62.68v64.04H352.11z"/>
		<rect x="508.35" y="368.44" style="fill:#787878;" width="62.67" height="64.041"/>
		<rect x="507.43" y="576.24" style="fill:#787878;" width="62.681" height="64.04"/>
		<rect x="507.43" y="474.45" style="fill:#787878;" width="62.681" height="64.04"/>
		<rect x="306.9" y="268.05" style="fill:#FFEEC8;" width="238.73" height="35.84"/>
		<rect x="306.9" y="232.2" style="fill:#FFEEC8;" width="238.73" height="35.85"/>
		<rect x="399.35" y="368.44" style="fill:#787878;" width="62.68" height="64.041"/>
		<rect x="398.44" y="576.24" style="fill:#787878;" width="62.67" height="64.04"/>
		<rect x="398.44" y="474.45" style="fill:#787878;" width="62.67" height="64.04"/>
		<rect x="290.34" y="368.44" style="fill:#787878;" width="62.68" height="64.041"/>
		<rect x="289.43" y="576.24" style="fill:#787878;" width="62.68" height="64.04"/>
		<rect x="289.43" y="474.45" style="fill:#787878;" width="62.68" height="64.04"/>
	</g>
	<g>
		<path style="fill:none;stroke:#000000;stroke-width:20.9108;" d="M436.72,731.79h-5.689H212.5c-39.89,0-72.23-12.66-72.23-59.271
			l21.12-307.549v-0.02"/>
		<path style="fill:none;stroke:#000000;stroke-width:20.9108;" d="M431.03,731.82h224.22c39.88,0,72.22-12.66,72.22-59.271
			l-21.12-305.62v-0.02"/>
		<line style="fill:none;stroke:#000000;stroke-width:20.9108;" x1="545.63" y1="268.05" x2="605.7" y2="268.05"/>
		<line style="fill:none;stroke:#000000;stroke-width:20.9108;" x1="245.67" y1="268.05" x2="306.9" y2="268.05"/>
		<rect x="290.34" y="368.44" style="fill:none;stroke:#000000;stroke-width:13.9406;" width="62.68" height="64.041"/>
		<rect x="399.35" y="368.44" style="fill:none;stroke:#000000;stroke-width:13.9406;" width="62.68" height="64.041"/>
		<rect x="508.35" y="368.44" style="fill:none;stroke:#000000;stroke-width:13.9406;" width="62.67" height="64.041"/>
		<rect x="289.43" y="474.45" style="fill:none;stroke:#000000;stroke-width:13.9406;" width="62.68" height="64.04"/>
		<rect x="398.44" y="474.45" style="fill:none;stroke:#000000;stroke-width:13.9406;" width="62.67" height="64.04"/>
		<rect x="507.43" y="474.45" style="fill:none;stroke:#000000;stroke-width:13.9406;" width="62.681" height="64.04"/>
		<rect x="289.43" y="576.24" style="fill:none;stroke:#000000;stroke-width:13.9406;" width="62.68" height="64.04"/>
		<rect x="398.44" y="576.24" style="fill:none;stroke:#000000;stroke-width:13.9406;" width="62.67" height="64.04"/>
		<rect x="507.43" y="576.24" style="fill:none;stroke:#000000;stroke-width:13.9406;" width="62.681" height="64.04"/>
		<polygon style="fill:none;stroke:#000000;stroke-width:20.9108;" points="545.63,268.05 545.63,303.89 306.9,303.89 306.9,268.05 
			306.9,232.2 545.63,232.2 		"/>
		<path style="fill:none;stroke:#000000;stroke-width:20.9108;" d="M161.39,364.97c35.36-1.74,68.12-9.22,72.25-23
			c14.04-46.79-4.97-96.16,38.01-118.87c38-20.08,270.6-18.52,308.6,1.56c42.98,22.72,23.97,72.09,38.01,118.88
			c4.75,15.83,47.24,23.35,88.09,23.39c33.48,0.03,65.86-4.96,75.42-14.52c22.091-22.11,5.311-94.04,5.311-94.04
			c-13.271-65.64-43.22-82.42-95.15-109.45c-68.989-35.91-260.319-39.37-260.319-39.37s-202.65,1.9-271.64,37.81
			c-51.93,27.03-81.88,43.8-95.14,109.45c0,0-16.79,71.93,5.31,94.03C81.21,361.91,122.85,366.86,161.39,364.97z"/>
	</g>
</g>
<rect style="fill:none;" width="850.394" height="850.394"/>
</svg>
