<?xml version="1.0" encoding="iso-8859-1"?>
<!-- Generator: Adobe Illustrator 12.0.1, SVG Export Plug-In . SVG Version: 6.00 Build 51448)  -->
<!DOCTYPE svg PUBLIC "-//W3C//DTD SVG 1.1//EN" "http://www.w3.org/Graphics/SVG/1.1/DTD/svg11.dtd" [
	<!ENTITY ns_svg "http://www.w3.org/2000/svg">
	<!ENTITY ns_xlink "http://www.w3.org/1999/xlink">
]>
<svg  version="1.1" id="Layer_1" xmlns="&ns_svg;" xmlns:xlink="&ns_xlink;" width="850.394" height="850.394"
	 viewBox="0 0 850.394 850.394" style="overflow:visible;enable-background:new 0 0 850.394 850.394;" xml:space="preserve">
<g id="XMLID_13_">
	<g>
		<polygon style="fill:#787878;" points="757.8,521.16 728.68,651.35 423.82,651.35 119.71,651.4 90.59,521.21 90.59,521.2 
			155.13,521.19 423.82,521.16 705.13,521.16 		"/>
		<path style="fill:#C8C8C8;" d="M423.82,207.77v-0.04h215.8c3.39,0,6.66,0.45,9.78,1.29l-10.49,118.64H431.42H222.58l-10.6-119.89
			H423.82z"/>
		<path style="fill:#C8C8C8;" d="M211.98,207.77l10.6,119.89h-2.68l-64.77,193.53l-64.54,0.01c-10.73,0-22.62-5.5-19.42-19.431
			l103.34-274.58c6.76-10.73,19.41-19.42,34.26-19.42H211.98z"/>
		<polygon style="fill:#C8C8C8;" points="638.91,327.66 640.37,327.66 705.13,521.16 423.82,521.16 155.13,521.19 219.9,327.66 
			222.58,327.66 431.42,327.66 		"/>
		<path style="fill:#C8C8C8;" d="M777.22,501.73c3.2,13.93-8.689,19.43-19.42,19.43h-52.67l-64.76-193.5h-1.46l10.49-118.64
			c10.529,2.79,19.26,9.86,24.479,18.13L777.22,501.73z"/>
	</g>
	<g>
		<path style="fill:none;stroke:#231F20;stroke-width:21;" d="M423.82,207.73h215.8c3.39,0,6.66,0.45,9.78,1.29
			c10.529,2.79,19.26,9.86,24.479,18.13L777.22,501.73c3.2,13.93-8.689,19.43-19.42,19.43h-52.67H423.82l-268.69,0.03l-64.54,0.01
			c-10.73,0-22.62-5.5-19.42-19.431l103.34-274.58c6.76-10.73,19.41-19.42,34.26-19.42h3.21h211.84h0.75"/>
		<polyline style="fill:none;stroke:#231F20;stroke-width:21;" points="757.8,521.16 728.68,651.35 423.82,651.35 119.71,651.4 
			90.59,521.21 		"/>
		<polyline style="fill:none;stroke:#231F20;stroke-width:21;" points="705.13,521.16 640.37,327.66 638.91,327.66 431.42,327.66 
			222.58,327.66 219.9,327.66 155.13,521.19 		"/>
		<polyline style="fill:none;stroke:#231F20;stroke-width:21;" points="211.89,206.71 211.98,207.77 222.58,327.66 222.59,327.76 		
			"/>
		<polyline style="fill:none;stroke:#231F20;stroke-width:21;" points="649.6,206.71 649.4,209.02 638.91,327.66 638.9,327.76 		"/>
	</g>
</g>
<rect style="fill:none;" width="850.394" height="850.394"/>
</svg>
