<?xml version="1.0" encoding="iso-8859-1"?>
<!-- Generator: Adobe Illustrator 12.0.1, SVG Export Plug-In . SVG Version: 6.00 Build 51448)  -->
<!DOCTYPE svg PUBLIC "-//W3C//DTD SVG 1.1//EN" "http://www.w3.org/Graphics/SVG/1.1/DTD/svg11.dtd" [
	<!ENTITY ns_svg "http://www.w3.org/2000/svg">
	<!ENTITY ns_xlink "http://www.w3.org/1999/xlink">
]>
<svg  version="1.1" id="Layer_1" xmlns="&ns_svg;" xmlns:xlink="&ns_xlink;" width="850.394" height="850.394"
	 viewBox="0 0 850.394 850.394" style="overflow:visible;enable-background:new 0 0 850.394 850.394;" xml:space="preserve">
<g>
	<g id="XMLID_6_">
		<g>
			<path style="fill:#C8C8C8;" d="M402.619,102.284c127.232,0,195.476,20.617,195.476,46.072c0,25.063-66.122,45.433-189.562,46.058
				c-1.947,0.015-3.923,0.015-5.914,0.015c-1.991,0-3.966,0-5.928-0.015c-1.599-0.015-3.182-0.015-4.766-0.029
				c-0.349-0.015-0.712-0.015-1.061-0.015c-119.706-1.235-183.736-21.358-183.736-46.014
				C207.128,122.901,275.358,102.284,402.619,102.284z"/>
			<path style="fill:#7A7878;" d="M154.169,705.479l-0.566-1.031v-12.074c31.775,33.389,112.18,58.132,249.597,58.132
				c131.853,0,208.451-22.782,245.341-54.121v8.106l-0.843,0.684c3.835,4.91,5.841,10.011,5.841,15.212
				c0,41.655-93.815,75.421-252.649,75.421s-252.663-33.766-252.663-75.421C148.227,715.707,150.93,710.056,154.169,705.479z"/>
			<path style="fill:#7A7878;" d="M207.128,148.356c0,24.656,64.03,44.779,183.736,46.014
				c-126.709-1.104-211.037-19.368-237.262-44.067c-5.754-5.419-8.703-11.144-8.703-17.057c0-33.795,96.372-61.183,258.3-61.183
				c161.942,0,258.301,27.388,258.301,61.183c0,7.308-4.505,14.326-13.222,20.82c-31.093,23.218-115.74,39.883-239.747,40.348
				c123.44-0.625,189.562-20.995,189.562-46.058c0-25.455-68.243-46.072-195.476-46.072
				C275.358,102.284,207.128,122.901,207.128,148.356z"/>
			<path style="fill:#7A7878;" d="M648.541,154.415v49.458c-36.89,24.99-113.488,43.137-245.341,43.137
				c-137.417,0-217.822-19.716-249.597-46.333v-50.373c26.225,24.7,110.553,42.963,237.262,44.067c0.349,0,0.712,0,1.061,0.015
				c1.583,0.014,3.167,0.014,4.766,0.029c1.961,0.015,3.937,0.015,5.928,0.015c1.99,0,3.966,0,5.914-0.015
				c124.006-0.465,208.654-17.13,239.747-40.348L648.541,154.415z"/>
			<path style="fill:#FFFFC2;" d="M648.541,203.872v492.512c-36.89,31.339-113.488,54.121-245.341,54.121
				c-137.417,0-217.822-24.743-249.597-58.132V200.676c31.775,26.618,112.18,46.333,249.597,46.333
				C535.053,247.009,611.651,228.862,648.541,203.872z"/>
		</g>
		<g>
			<path style="fill:none;stroke:#231F20;stroke-width:21;" d="M390.865,194.37c-126.709-1.104-211.037-19.368-237.262-44.067
				c-5.754-5.419-8.703-11.144-8.703-17.057c0-33.795,96.372-61.183,258.3-61.183c161.942,0,258.301,27.388,258.301,61.183
				c0,7.308-4.505,14.326-13.222,20.82c-31.093,23.218-115.74,39.883-239.747,40.348"/>
			<path style="fill:none;stroke:#231F20;stroke-width:21;" d="M396.691,194.414c-1.599-0.015-3.182-0.015-4.766-0.029"/>
			<path style="fill:none;stroke:#231F20;stroke-width:21;" d="M648.541,203.872c-36.89,24.99-113.488,43.137-245.341,43.137
				c-137.417,0-217.822-19.716-249.597-46.333l-0.015-0.015"/>
			<path style="fill:none;stroke:#231F20;stroke-width:21;" d="M648.541,696.384c-36.89,31.339-113.488,54.121-245.341,54.121
				c-137.417,0-217.822-24.743-249.597-58.132l-0.015-0.015"/>
			<polyline style="fill:none;stroke:#231F20;stroke-width:21;" points="153.603,148.08 153.603,150.303 153.603,200.676 
				153.603,692.373 153.603,704.447 			"/>
			<polyline style="fill:none;stroke:#231F20;stroke-width:21;" points="648.541,154.415 648.541,203.872 648.541,696.384 
				648.541,704.49 			"/>
			<path style="fill:none;stroke:#231F20;stroke-width:21;" d="M647.698,705.174c3.835,4.91,5.841,10.011,5.841,15.212
				c0,41.655-93.815,75.421-252.649,75.421s-252.663-33.766-252.663-75.421c0-4.679,2.703-10.33,5.942-14.907
				c0.218-0.305,0.436-0.61,0.654-0.9"/>
			<path style="fill:none;stroke:#231F20;stroke-width:21;" d="M390.865,194.37c-119.706-1.235-183.736-21.358-183.736-46.014
				c0-25.455,68.229-46.072,195.491-46.072c127.232,0,195.476,20.617,195.476,46.072c0,25.063-66.122,45.433-189.562,46.058
				c-1.947,0.015-3.923,0.015-5.914,0.015c-1.991,0-3.966,0-5.928-0.015c-1.599-0.015-3.182-0.015-4.766-0.029
				C391.577,194.37,391.214,194.37,390.865,194.37z"/>
		</g>
	</g>
</g>
<rect style="fill:none;" width="850.394" height="850.394"/>
<g id="XMLID_182_">
	<g>
		<g id="XMLID_183_">
			<g>
				<g id="XMLID_188_">
					<g>
						<path style="fill:#FFFF4B;" d="M443.363,316.609c7.553-5.925,22.81-6.046,36.7-5.083
							c18.947,5.482,32.869,21.961,42.885,39.877l-0.045,0.456c8.794,6.881-1.627,15.352-8.445,17.834
							c-10.509,3.83-25.563,0.525-36.37-0.798c-19.657-2.399-31.255-7.888-46.519-17.518v-0.006
							c0.311-2.716,6.147-21.348,7.356-24.469c1.266-3.26,2.741-6.774,4.399-10.313L443.363,316.609z"/>
						<path style="fill:#FFFFFF;" d="M455.164,297.104c0.127-0.152,0.253-0.304,0.38-0.45
							C455.43,296.807,455.304,296.958,455.164,297.104z"/>
						<path style="fill:#9E5B16;" d="M438.926,326.903c-1.209,3.121-7.046,21.752-7.356,24.469v0.006
							c-1.387-0.874-2.805-1.785-4.261-2.729c-3.166-2.051-6.122-3.918-8.964-5.641c2.412-12.598,2.412-16.485,3.83-21.816
							c1.374-5.16,2.716-9.933,3.583-15.099c0.133-0.798,0.253-1.589,0.36-2.362c1.254-8.831,1.463-15.916,12.408-17.276
							c4.299-0.532,23.931,1,17.018,10.199c-0.127,0.146-0.253,0.297-0.38,0.45c-4.539,5.381-8.553,12.478-11.839,19.486
							C441.667,320.129,440.191,323.643,438.926,326.903z"/>
						<path style="fill:#FFFF4B;" d="M254.459,632.332c50.077,53.869,0.665-147.812,54.458-156.908
							c18.423-3.115,28.653,100.026,53.179,100.026c64.574,0,26.589-179.794,164.6-153.205
							c135.251,26.058-81.034,283.619,12.617,218.685c-14.541,13.402-29.685,25.114-48.493,33.427
							c-4.59,2.032-9.06,3.938-13.453,5.71c-0.69,0.285-1.374,0.557-2.058,0.829c-26.95,10.712-51.115,16.473-82.414,16.473
							c-39.023,0-75.064-14.308-105.895-34.427c-6.761-4.406-19.702-14.764-33.661-29.539L254.459,632.332z"/>
						<path style="fill:#FF6B00;" d="M254.459,632.332c-9.18-9.876-21.702-28.336-38.814-58.148
							c-7.603-13.237-12.693-26.829-15.7-40.504c-17.669-80.49,37.117-163.961,79.863-196.685
							c31.04-16.985,63.865-23.576,102.97-10.37c14.491,4.887,24.139,9.464,35.566,16.384c2.842,1.722,5.799,3.59,8.964,5.641
							c1.456,0.943,2.874,1.855,4.261,2.729c15.264,9.629,26.861,15.118,46.519,17.518c10.807,1.323,25.861,4.628,36.37,0.798
							c6.818-2.482,17.239-10.953,8.445-17.834l0.045-0.456c-10.016-17.916-23.938-34.395-42.885-39.877
							c4.254,0.291,8.382,0.684,12.117,1.044c19.049,1.842,48.582,15.213,63.871,26.495c16.036,11.832,26.538,23.816,34.819,38.257
							c44.626,77.774,21.797,191.879-40.1,252.662c-3.817,3.748-7.616,7.407-11.459,10.946
							c-93.651,64.935,122.634-192.627-12.617-218.685c-138.011-26.589-100.026,153.205-164.6,153.205
							c-24.525,0-34.756-103.142-53.179-100.026C255.124,484.521,304.536,686.201,254.459,632.332z"/>
						<path style="fill:#FFFF4B;" d="M253.338,633.402c-16.846-17.828-35.167-42.106-45.86-70.151
							c-3.185-8.345-6.097-18.714-8.414-29.382l0.88-0.189c3.007,13.675,8.097,27.267,15.7,40.504
							c17.112,29.813,29.634,48.272,38.814,58.148L253.338,633.402z"/>
						<path style="fill:#FFFF4B;" d="M279.808,336.995c-42.746,32.724-97.532,116.195-79.863,196.685l-0.88,0.189
							c-0.956-4.368-1.805-8.787-2.539-13.136c-1.412-8.357-2.38-16.467-2.754-23.494c-0.722-13.561-0.874-27.932,0-42.467
							c0,0,0-0.006,0-0.013c0.089-1.494,0.19-2.994,0.304-4.495c2.526-33.901,10.832-68.353,30.54-95.278
							c40.333-55.122,118.506-81.18,191.019-54.458c2.868,1.057,7.521,2.064,10.483,3.203c-0.107,0.772-0.228,1.564-0.36,2.362
							c-0.868,5.166-2.209,9.939-3.583,15.099c-1.418,5.331-1.418,9.218-3.83,21.816c-11.427-6.919-21.075-11.497-35.566-16.384
							C343.672,313.419,310.848,320.009,279.808,336.995z"/>
					</g>
					<g>
						<path style="fill:none;stroke:#000000;stroke-width:12.7386;" d="M193.772,454.76c0.089-1.494,0.19-2.994,0.304-4.495
							c2.526-33.901,10.832-68.353,30.54-95.278c40.333-55.122,118.506-81.18,191.019-54.458c2.868,1.057,7.521,2.064,10.483,3.203"
							/>
						<path style="fill:none;stroke:#000000;stroke-width:12.7386;" d="M443.363,316.609c7.553-5.925,22.81-6.046,36.7-5.083
							c4.254,0.291,8.382,0.684,12.117,1.044c19.049,1.842,48.582,15.213,63.871,26.495c16.036,11.832,26.538,23.816,34.819,38.257
							c44.626,77.774,21.797,191.879-40.1,252.662c-3.817,3.748-7.616,7.407-11.459,10.946
							c-14.541,13.402-29.685,25.114-48.493,33.427c-4.59,2.032-9.06,3.938-13.453,5.71c-0.69,0.285-1.374,0.557-2.058,0.829
							c-26.95,10.712-51.115,16.473-82.414,16.473c-39.023,0-75.064-14.308-105.895-34.427
							c-6.761-4.406-19.702-14.764-33.661-29.539c-16.846-17.828-35.167-42.106-45.86-70.151
							c-3.185-8.345-6.097-18.714-8.414-29.382c-0.956-4.368-1.805-8.787-2.539-13.136c-1.412-8.357-2.38-16.467-2.754-23.494
							c-0.722-13.561-0.874-27.932,0-42.467"/>
						<path style="fill:none;stroke:#000000;stroke-width:12.7386;stroke-linecap:round;stroke-linejoin:round;" d="
							M279.808,336.995c31.04-16.985,63.865-23.576,102.97-10.37c14.491,4.887,24.139,9.464,35.566,16.384
							c2.842,1.722,5.799,3.59,8.964,5.641c1.456,0.943,2.874,1.855,4.261,2.729c15.264,9.629,26.861,15.118,46.519,17.518
							c10.807,1.323,25.861,4.628,36.37,0.798c6.818-2.482,17.239-10.953,8.445-17.834"/>
						<path style="fill:none;stroke:#000000;stroke-width:12.7386;stroke-linecap:round;stroke-linejoin:round;" d="
							M418.344,343.009c2.412-12.598,2.412-16.485,3.83-21.816c1.374-5.16,2.716-9.933,3.583-15.099
							c0.133-0.798,0.253-1.589,0.36-2.362c1.254-8.831,1.463-15.916,12.408-17.276c4.299-0.532,23.931,1,17.018,10.199
							c-0.114,0.152-0.24,0.304-0.38,0.45c-5.134,5.394-24.336,3.058-22.942-6.205c0.924-0.095,2.171-0.278,3.108-0.082"/>
						<path style="fill:none;stroke:#000000;stroke-width:12.7386;stroke-linecap:round;stroke-linejoin:round;" d="
							M455.544,296.655c-0.127,0.146-0.253,0.297-0.38,0.45c-4.539,5.381-8.553,12.478-11.839,19.486
							c-1.658,3.539-3.134,7.053-4.399,10.313c-1.209,3.121-7.046,21.752-7.356,24.469"/>
						<path style="fill:none;stroke:#000000;stroke-width:12.7386;" d="M193.772,454.76c0,0.007,0,0.013,0,0.013"/>
					</g>
				</g>
			</g>
		</g>
	</g>
</g>
</svg>
