<?xml version="1.0" encoding="iso-8859-1"?>
<!-- Generator: Adobe Illustrator 12.0.1, SVG Export Plug-In . SVG Version: 6.00 Build 51448)  -->
<!DOCTYPE svg PUBLIC "-//W3C//DTD SVG 1.1//EN" "http://www.w3.org/Graphics/SVG/1.1/DTD/svg11.dtd" [
	<!ENTITY ns_svg "http://www.w3.org/2000/svg">
	<!ENTITY ns_xlink "http://www.w3.org/1999/xlink">
]>
<svg  version="1.1" id="Layer_1" xmlns="&ns_svg;" xmlns:xlink="&ns_xlink;" width="850.394" height="850.394"
	 viewBox="0 0 850.394 850.394" style="overflow:visible;enable-background:new 0 0 850.394 850.394;" xml:space="preserve">
<g id="XMLID_7_">
	<g>
		<path style="fill:#FFEEC8;" d="M477.6,721.11l-0.75,0.68l28.83,26.13l-61.84,40.51c14.851-136.949,24.32-203.26,31.34-238.37
			c6.601-32.989,58.54-52.77,71.74-53.6c17.19-1.08,59.75,5.98,73.29,8.33c2.67,0.46,4.21,0.74,4.21,0.74
			c-2.06,14.02-6.5,20.02,0.12,35.279c3.61,8.351,4.42,30.79-14.98,39.11c-15.81,6.79-45.04,5.41-56.729,15.021
			c-17.74,14.56-12.41,36.159-4.08,52.449l39.99,45.971L588,694l-42.12,27.59h-67.84L477.6,721.11z"/>
		<path style="fill:#FFEEC8;" d="M631.02,434.21c-7.42,8.24-4.359,27.57-1.039,38.67l-2.061,6.72
			c-20.5-2.04-79.36-9.529-79.36-9.529s17.601-71.69,28.04-78.33C585.67,385.97,631.02,434.21,631.02,434.21z"/>
		<path style="fill:#EE947D;" d="M652.01,428.02l-20.99,6.19c0,0-45.35-48.24-54.42-42.47c-10.439,6.64-28.04,78.33-28.04,78.33
			s58.86,7.489,79.36,9.529l-7.71,25.19c-13.54-2.35-56.1-9.41-73.29-8.33c-13.2,0.83-65.14,20.61-71.74,53.6
			c-7.02,35.11-16.489,101.421-31.34,238.37l-25.42-0.92c7.58-51.76,32.19-248.6,41.92-272.91
			c4.94-12.369,61.84-40.399,61.84-40.399c12.37-32.16,31.87-110.49,51.12-110.49c27.62,0,78.7,64.29,78.7,64.29L652.01,428.02z"/>
		<path style="fill:#FFEEC8;" d="M652.01,428.02L652,428c0,0-51.08-64.29-78.7-64.29c-19.25,0-38.75,78.33-51.12,110.49
			c0,0-56.899,28.03-61.84,40.399C450.61,538.91,426,735.75,418.42,787.51l-295.49-10.63c14.97-58.01,79.58-85.13,141.31-114.42
			c17.48-8.29,36.68-14.2,41.45-37.43c5.77-28.101-9.36-59.681-12.63-85.92c12.49-3.86,9.72-14.431,15.67-32.49l11.86-40.3
			c-6.93-24.13-33.47-36.75-40.44-64.28c-8.19-32.35,8.2-54.46,31.65-64.93c23.44-10.46,33.18,9.49,45.44,34.82
			c0,0,1.13,17.01,13.9-5.47c12.74-22.48,9.48-58.06,14.59-86.69c5.1-28.65,31.9-16.9,83.3-27.62
			c51.399-10.73,67.83-6.23,93.09-24.97c7.36-5.47,13.38-11.8,17.7-18.59l1.729,0.32c9.65,7.4,15.63,14.03,21.96,41.23
			c4.86,21,4.721,39.28,3.41,59.02c-1.25,18.21-1.07,18.49,15.35,37.33c23.91,27.44,28,33.73,40.261,43.8
			c12.239,10.04,3.79,33.02-4.57,35.979h-0.01L652.01,428.02z"/>
		<path style="fill:#9E5C26;" d="M293.06,539.11c-2.68,0.83-6.07,1.34-10.41,1.56c-24.5,1.19-32.41-10.61-74.93-51.01
			c-47.6-45.23-58.19-115.47-63.53-148.11c-5.34-32.66-6.07-112.64,16-146.72c22.07-34.07,43.55-57.54,43.55-57.54
			s74.32-67.97,127.12-69.69c52.79-1.72,101.31-8.53,135.36,6.83c34.061,15.37,88.99,59.2,109.8,82.17
			c14.74,16.27,14.29,35.5,3.801,51.99c-4.32,6.79-10.34,13.12-17.7,18.59c-25.26,18.74-41.69,14.24-93.09,24.97
			c-51.4,10.72-78.2-1.03-83.3,27.62c-5.11,28.63-1.85,64.21-14.59,86.69c-12.77,22.48-13.9,5.47-13.9,5.47
			c-12.26-25.33-22-45.28-45.44-34.82c-23.45,10.47-39.84,32.58-31.65,64.93c6.97,27.53,33.51,40.15,40.44,64.28l-11.86,40.3
			C302.78,524.68,305.55,535.25,293.06,539.11z"/>
	</g>
	<g>
		<path style="fill:none;stroke:#231F20;stroke-width:14;" d="M579.82,208.59c-4.32,6.79-10.34,13.12-17.7,18.59
			c-25.26,18.74-41.69,14.24-93.09,24.97c-51.4,10.72-78.2-1.03-83.3,27.62c-5.11,28.63-1.85,64.21-14.59,86.69
			c-12.77,22.48-13.9,5.47-13.9,5.47c-12.26-25.33-22-45.28-45.44-34.82c-23.45,10.47-39.84,32.58-31.65,64.93
			c6.97,27.53,33.51,40.15,40.44,64.28l-11.86,40.3c-5.95,18.06-3.18,28.63-15.67,32.49c-2.68,0.83-6.07,1.34-10.41,1.56
			c-24.5,1.19-32.41-10.61-74.93-51.01c-47.6-45.23-58.19-115.47-63.53-148.11c-5.34-32.66-6.07-112.64,16-146.72
			c22.07-34.07,43.55-57.54,43.55-57.54s74.32-67.97,127.12-69.69c52.79-1.72,101.31-8.53,135.36,6.83
			c34.061,15.37,88.99,59.2,109.8,82.17C590.76,172.87,590.31,192.1,579.82,208.59z"/>
		<path style="fill:none;stroke:#231F20;stroke-width:14;" d="M292.48,532.03c0.08,2.31,0.28,4.67,0.58,7.08
			c3.27,26.239,18.4,57.819,12.63,85.92c-4.77,23.229-23.97,29.14-41.45,37.43c-61.73,29.29-126.34,56.41-141.31,114.42"/>
		<path style="fill:none;stroke:#231F20;stroke-width:14;" d="M657.96,426.27c8.36-2.959,16.81-25.939,4.57-35.979
			c-12.261-10.07-16.351-16.36-40.261-43.8c-16.42-18.84-16.6-19.12-15.35-37.33c1.311-19.74,1.45-38.02-3.41-59.02
			c-6.33-27.2-12.31-33.83-21.96-41.23"/>
		<path style="fill:none;stroke:#231F20;stroke-width:14;" d="M647.51,432.14c3.71-2.88,5.141-4,10.44-5.87"/>
		<path style="fill:none;stroke:#231F20;stroke-width:14;" d="M631.85,479.97c0.82-4.95-1.43-5.62-1.869-7.09
			c-3.32-11.1-6.381-30.43,1.039-38.67"/>
		<path style="fill:none;stroke:#231F20;stroke-width:14;" d="M592.21,697.35l-3.47-3.989l-39.99-45.971
			c-8.33-16.29-13.66-37.89,4.08-52.449c11.689-9.61,40.92-8.23,56.729-15.021c19.4-8.32,18.591-30.76,14.98-39.11
			c-6.62-15.26-2.18-21.26-0.12-35.279"/>
		<path style="fill:none;stroke:#231F20;stroke-width:14;" d="M652,428c0,0-51.08-64.29-78.7-64.29
			c-19.25,0-38.75,78.33-51.12,110.49c0,0-56.899,28.03-61.84,40.399C450.61,538.91,426,735.75,418.42,787.51
			c-0.05,0.311-0.1,0.62-0.14,0.92"/>
		<path style="fill:none;stroke:#231F20;stroke-width:14;" d="M631.02,434.21c0,0-45.35-48.24-54.42-42.47
			c-10.439,6.64-28.04,78.33-28.04,78.33s58.86,7.489,79.36,9.529c1.54,0.16,2.86,0.28,3.93,0.37"/>
		<path style="fill:none;stroke:#231F20;stroke-width:14;" d="M624.42,505.53c0,0-1.54-0.28-4.21-0.74
			c-13.54-2.35-56.1-9.41-73.29-8.33c-13.2,0.83-65.14,20.61-71.74,53.6c-7.02,35.11-16.489,101.421-31.34,238.37"/>
		<polyline style="fill:none;stroke:#231F20;stroke-width:21;" points="733.89,721.59 545.88,721.59 478.04,721.59 		"/>
		<polyline style="fill:none;stroke:#231F20;stroke-width:21;" points="539.22,665.16 477.6,721.11 476.85,721.79 505.68,747.92 
			539.32,778.4 		"/>
		<line style="fill:none;stroke:#231F20;stroke-width:14;" x1="657.96" y1="426.27" x2="657.95" y2="426.27"/>
	</g>
</g>
<rect style="fill:none;" width="850.394" height="850.394"/>
</svg>
