<?xml version="1.0" encoding="iso-8859-1"?>
<!-- Generator: Adobe Illustrator 12.0.1, SVG Export Plug-In . SVG Version: 6.00 Build 51448)  -->
<!DOCTYPE svg PUBLIC "-//W3C//DTD SVG 1.1//EN" "http://www.w3.org/Graphics/SVG/1.1/DTD/svg11.dtd" [
	<!ENTITY ns_svg "http://www.w3.org/2000/svg">
	<!ENTITY ns_xlink "http://www.w3.org/1999/xlink">
]>
<svg  version="1.1" id="Layer_1" xmlns="&ns_svg;" xmlns:xlink="&ns_xlink;" width="850.394" height="850.394"
	 viewBox="0 0 850.394 850.394" style="overflow:visible;enable-background:new 0 0 850.394 850.394;" xml:space="preserve">
<g id="XMLID_13_">
	<g>
		<path style="fill:#FFEEC8;" d="M719.777,572.271c3.791,13.131,4.449,28.587,3.042,33.66c-0.886,3.098-4.926,7.523-8.716,7.047
			c-4.21-0.442-5.164-10.384-7.206-13.527c-3.189,0.636-1.555,5.312-3.916,5.312c-2.042-2.031-2.724-7.649-2.724-13.517
			c0-6.922,0.954-14.22,1.771-16.421l15.99-2.542L719.777,572.271z"/>
		<path style="fill:#231F20;" d="M683.792,765.695c5.504,3.144,8.647,8.58,7.013,14.391c-1.385,4.834-12.007,7.535-17.363,4.437
			c-9.34-5.322-3.268-3.507-10.202-6.173c-12.756-4.971-17.283-4.098-19.179-13.119l4.347-0.022l17.408-10.6l0.204-0.182
			C669.811,758.387,677.437,762.075,683.792,765.695z"/>
		<path style="fill:#FFEEC8;" d="M618.311,357.581c15.195,0,27.498,15.956,27.498,35.611c0,11.371-4.108,21.494-10.521,28.02
			c-4.676,4.755-10.577,7.592-16.978,7.592c-6.548,0-12.574-2.961-17.283-7.921c0,0,0,0-0.012,0
			c-6.219-6.537-10.191-16.512-10.191-27.69C590.824,373.537,603.126,357.581,618.311,357.581z"/>
		<path style="fill:#231F20;" d="M559.344,764.277c8.647-4.937,20.064-10.055,20.529-15.752c0.08,1.032,0.125,1.589,0.125,1.589
			l16.206,14.333l2.485,0.862c-2.077,7.434-6.798,6.911-18.805,11.621c-6.934,2.678-0.862,0.874-10.191,6.196
			c-5.391,3.075-16.001,0.352-17.386-4.46C550.662,772.879,553.817,767.409,559.344,764.277z"/>
		<path style="fill:#C8C8C8;" d="M579.873,748.525c-1.191-14.855-10.338-129.555-10.338-155.826c0-9,0.567-17.091,1.361-23.979
			l3.983,0.442h0.012h95.089l1.181-0.192c1.135,7.059,1.94,15.207,1.94,24.093c0,26.68-8.614,144.682-9.487,156.598h0.011
			c0.012,1.634,0.908,3.223,2.395,4.767l-0.204,0.182l-17.408,10.6l-4.347,0.022c-0.477-2.304-0.783-5.243-1.01-9.091l-1.896-12.778
			h-0.034l-15.695-138.27l-7.966-0.046l-16.036,138.86h0.023l-1.374,10.815c-0.283,4.732-0.681,8.103-1.384,10.588l-2.485-0.862
			l-16.206-14.333C579.998,750.114,579.953,749.558,579.873,748.525z"/>
		<path style="fill:#ABD153;" d="M539.552,573.406l-15.218-4.153l-2.225-0.125c1.702-5.901,11.008-38.131,15.025-54.303
			c6.4-25.886,27.565-68.578,27.565-68.578c5.391-5.391,14.47-11.734,22.209-16.729c7.524-4.857,13.777-8.443,14.106-8.636
			c0.012,0,0.012,0,0.012,0c4.709,4.959,10.735,7.921,17.283,7.921c6.4,0,12.302-2.837,16.978-7.592l4.767,0.057
			c0,0,6.378,3.654,14.117,8.647c7.729,4.993,16.808,11.349,22.221,16.739c0,0,21.176,42.682,27.565,68.567
			c4.403,17.84,15.286,55.268,15.286,55.268c0.182,0.59,0.363,1.18,0.533,1.781l-1.759,0.012l-15.99,2.542l-33.342-72.914
			l-3.972,41.581c1.226,3.302,4.381,12.54,6.446,25.478l-1.181,0.192h-95.089h-0.012l-3.983-0.442
			c1.816-15.706,4.789-25.193,4.789-25.193l-3.302-42.013L539.552,573.406z"/>
		<path style="fill:#FBEE34;" d="M505.166,242.734c-10.486-10.497-29.903-31.083-33.773-35.191
			c-0.442-0.477-0.681-0.727-0.681-0.727c-0.034,0.023-0.068,0.045-0.102,0.068c-10.668,7.49-35.601,19.372-40.163,22.731
			c-5.946,4.369-9.589,12.188-9.408,19.644c0.182,6.968,2.497,9.465,2.497,19.951c0,11.519,11.36,24.774,13.607,27.6
			c3.574,4.505,9.033,7.921,13.38,11.609c1.18,0.999,2.462,1.748,3.813,2.292l-0.487,1.146c0,6.809-3.144,13.777-7.706,17.556
			c-3.246,2.667-23.321,19.008-27.361,21.63c-0.113,0.08-0.215,0.136-0.306,0.193c-2.565-10.804-20.711-13.221-14.106-35.26
			c1.725-5.753,3.45-12.767,4.653-15.842c4.653-11.916,0.488-47.868,0.103-53.123c-0.965-13.539,4.063-34.125,11.348-46.007
			c12.313-20.03,32.343-28.666,63.2-25.057c22.913,2.667,43.874,27.747,43.874,59.511c0,11.133-4.403,23.446-3.133,34.545
			c0.704,6.367,5.47,30.675,13.107,38.29c3.779,3.779,5.55,12.62,3.973,17.964c-5.992-5.708-14.401-8.693-26.192-16.364
			c0,0-9.091-9.816-7.989-28.212l-0.307-0.147c0.521-1.089,0.896-2.258,1.078-3.518
			C508.299,276.541,514.948,252.517,505.166,242.734z"/>
		<path style="fill:#FFEEC8;" d="M526.989,612.582c-3.79,0.477-7.842-3.938-8.716-7.036c-1.498-5.312-0.669-21.948,3.563-35.476
			c0,0,0.091-0.329,0.272-0.942l2.225,0.125l15.218,4.153l-0.465,1.021c0.806,2.213,1.759,9.487,1.759,16.41
			c0,5.867-0.692,11.484-2.734,13.516c-2.338,0-0.727-4.652-3.916-5.322C532.164,602.209,531.199,612.139,526.989,612.582z"/>
		<path style="fill:#FFEEC8;" d="M556.428,339.196c-20.678,25.058-51.977,41.025-86.986,41.025
			c-22.913,0-44.237-6.843-62.031-18.589l0.034-0.057l11.337-10.532c4.04-2.622,24.115-18.963,27.361-21.63
			c4.563-3.779,7.706-10.747,7.706-17.556l0.487-1.146c6.594,2.656,14.799,0.477,21.551-0.352
			c10.827-1.316,15.015-12.824,22.562-19.361c3.268-2.837,6.774-5.753,8.557-9.464l0.307,0.147
			c-1.102,18.396,7.989,28.212,7.989,28.212c11.791,7.671,20.2,10.656,26.192,16.364l14.616,12.62L556.428,339.196z"/>
		<path style="fill:#231F20;" d="M477.317,247.864c0.567,0,1.021,0.488,1.021,1.089c0,0.624-0.453,1.112-1.021,1.112
			c-0.557,0-1.011-0.488-1.011-1.112C476.307,248.352,476.761,247.864,477.317,247.864z"/>
		<path style="fill:#231F20;" d="M477.317,246.468c1.555,0,2.825,1.124,2.825,2.485c0,1.384-1.271,2.497-2.825,2.497
			c-1.566,0-2.826-1.112-2.826-2.497C474.491,247.591,475.751,246.468,477.317,246.468z M478.338,248.953
			c0-0.602-0.453-1.089-1.021-1.089c-0.557,0-1.011,0.488-1.011,1.089c0,0.624,0.454,1.112,1.011,1.112
			C477.885,250.065,478.338,249.577,478.338,248.953z"/>
		<path style="fill:#FFFFFF;" d="M477.465,245.685c3.473-0.068,6.457,1.691,8.795,4.142l-0.103,0.091
			c-1.838,1.703-3.938,3.2-6.389,4.074c-1.476,0.522-3.507,0.613-5.051,0.307c-0.658-0.136-1.464-0.307-2.065-0.59
			c-0.511-0.227-0.941-0.771-1.418-0.999c-0.704-0.329-1.51-0.034-2.168-0.443c-0.771-0.488-0.182-1.033,0.25-1.815
			C470.883,247.682,474.241,245.764,477.465,245.685z M480.143,248.953c0-1.362-1.271-2.485-2.825-2.485
			c-1.566,0-2.826,1.124-2.826,2.485c0,1.384,1.26,2.497,2.826,2.497C478.872,251.45,480.143,250.337,480.143,248.953z"/>
		<path style="fill:#EE947D;" d="M466.649,292.962c-4.494,1.975-9.283,1.589-12.972-1.464c-1.361-1.124-3.495-2.462-4.46-3.745
			c3.632,1.067,9.045,0.465,12.688,0.17c3.666-0.295,6.673-0.318,11.859-2.667C471.903,288.287,469.952,291.487,466.649,292.962z"/>
		<path style="fill:#EE947D;" d="M460.748,284.792c1.464-3.654,11.609-1.316,14.322-1.6c-0.443,0.658-0.874,1.362-1.306,2.065
			c-5.187,2.349-8.193,2.372-11.859,2.667c-3.643,0.295-9.056,0.896-12.688-0.17c-0.941-1.237-0.806-2.406,2.168-3.268
			c1.85-0.522,4.063-0.954,5.958-0.511C458.354,284.213,459.84,285.177,460.748,284.792z"/>
		<path style="fill:#FFEEC8;" d="M447.051,250.451c-1.566-2.769-4.926-4.687-8.16-4.767c-3.461-0.068-6.445,1.691-8.783,4.142
			l0.102,0.091c1.827,1.703,3.949,3.2,6.39,4.074c1.476,0.522,3.507,0.613,5.05,0.307c0.658-0.136,1.453-0.307,2.065-0.59
			c0.511-0.227,0.942-0.771,1.419-0.999c0.703-0.329,1.509-0.034,2.167-0.443C448.072,251.779,447.493,251.234,447.051,250.451z
			 M475.07,283.191c-2.713,0.284-12.858-2.054-14.322,1.6c-0.908,0.386-2.395-0.579-3.404-0.817
			c-1.896-0.443-4.108-0.012-5.958,0.511c-2.974,0.862-3.109,2.031-2.168,3.268c0.965,1.283,3.099,2.622,4.46,3.745
			c3.688,3.053,8.478,3.438,12.972,1.464c3.303-1.475,5.254-4.675,7.115-7.706C474.196,284.553,474.627,283.85,475.07,283.191z
			 M498.448,290.999c-7.547,6.537-11.734,18.044-22.562,19.361c-6.752,0.828-14.957,3.007-21.551,0.352
			c-1.351-0.544-2.633-1.293-3.813-2.292c-4.347-3.688-9.806-7.104-13.38-11.609c-2.247-2.826-13.607-16.081-13.607-27.6
			c0-10.486-2.315-12.982-2.497-19.951c-0.181-7.456,3.461-15.275,9.408-19.644c4.563-3.359,29.495-15.241,40.163-22.731
			c0.147,0.34,0.42,0.556,0.782,0.658c3.87,4.108,23.287,24.694,33.773,35.191c9.782,9.783,3.133,33.807,2.917,35.283
			c-0.182,1.26-0.557,2.429-1.078,3.518C505.223,285.246,501.716,288.162,498.448,290.999z M486.26,249.827
			c-2.338-2.451-5.322-4.21-8.795-4.142c-3.224,0.08-6.582,1.998-8.148,4.767c-0.432,0.783-1.021,1.328-0.25,1.815
			c0.658,0.409,1.464,0.114,2.168,0.443c0.477,0.227,0.907,0.771,1.418,0.999c0.602,0.284,1.407,0.454,2.065,0.59
			c1.544,0.306,3.575,0.215,5.051-0.307c2.451-0.874,4.551-2.372,6.389-4.074L486.26,249.827z"/>
		<path style="fill:#231F20;" d="M438.04,248.953c0-0.602,0.442-1.089,1.01-1.089c0.556,0,1.01,0.488,1.01,1.089
			c0,0.624-0.454,1.112-1.01,1.112C438.482,250.065,438.04,249.577,438.04,248.953z"/>
		<path style="fill:#231F20;" d="M439.05,251.45c-1.566,0-2.826-1.112-2.826-2.497c0-1.362,1.26-2.485,2.826-2.485
			s2.826,1.124,2.826,2.485C441.876,250.337,440.616,251.45,439.05,251.45z M439.05,247.864c-0.567,0-1.01,0.488-1.01,1.089
			c0,0.624,0.442,1.112,1.01,1.112c0.556,0,1.01-0.488,1.01-1.112C440.06,248.352,439.605,247.864,439.05,247.864z"/>
		<path style="fill:#FFFFFF;" d="M439.05,246.468c-1.566,0-2.826,1.124-2.826,2.485c0,1.384,1.26,2.497,2.826,2.497
			s2.826-1.112,2.826-2.497C441.876,247.591,440.616,246.468,439.05,246.468z M438.891,245.685c3.234,0.08,6.594,1.998,8.16,4.767
			c0.442,0.783,1.021,1.328,0.249,1.815c-0.658,0.409-1.464,0.114-2.167,0.443c-0.477,0.227-0.908,0.771-1.419,0.999
			c-0.612,0.284-1.407,0.454-2.065,0.59c-1.543,0.306-3.574,0.215-5.05-0.307c-2.44-0.874-4.563-2.372-6.39-4.074l-0.102-0.091
			C432.445,247.375,435.43,245.617,438.891,245.685z"/>
		<path style="fill:#FFFFC2;" d="M527.546,235.459c0-31.764-20.961-56.844-43.874-59.511c-30.856-3.609-50.887,5.027-63.2,25.057
			c-7.286,11.882-12.313,32.468-11.348,46.007c0.386,5.254,4.551,41.207-0.103,53.123c-1.203,3.075-2.928,10.089-4.653,15.842
			c-6.604,22.039,11.542,24.456,14.106,35.26c0.091-0.057,0.193-0.113,0.306-0.193l-11.337,10.532l-0.034,0.057
			c-30.55-20.167-50.705-54.802-50.705-94.147c0-62.258,50.478-112.725,112.736-112.725c62.246,0,112.735,50.467,112.735,112.725
			c0,27.248-9.669,52.226-25.749,71.711l-0.318-0.318l-14.616-12.62c1.577-5.345-0.193-14.186-3.973-17.964
			c-7.638-7.615-12.403-31.923-13.107-38.29C523.143,258.906,527.546,246.592,527.546,235.459z"/>
		<path style="fill:#FFEEC8;" d="M237.716,249.339c2.621,2.587,1.838,7.729,0.556,10.611c-4.04,8.954-2.213,12.245-2.712,19.054
			c-0.284,3.813-7.014,11.802-12.234,6.673c0.727-4.483,1.373-9.998,1.316-15.298c-0.022-3.109-0.306-6.14-0.953-8.863
			c-1.192-5.844,3.393-14.98,11.02-13.652C236.014,248.09,236.99,248.612,237.716,249.339z"/>
		<path style="fill:#FBEE34;" d="M224.631,270.379c-5.243-5.254-3.132-31.571-9.839-38.256
			c-6.695-6.707-11.484-24.887-11.484-24.887c-0.114-0.068-0.227-0.125-0.352-0.17c2.179-5.652,5.754-12.291,9.454-16.388
			l3.495-4.789c15.422,9.771,25.693,30.437,21.812,63.45c-0.727-0.727-1.703-1.249-3.007-1.475
			c-7.626-1.328-12.211,7.808-11.02,13.652c0.647,2.724,0.931,5.754,0.953,8.863H224.631z"/>
		<path style="fill:#FFEEC8;" d="M185.763,331.774c9.987,0,23.9-16.126,31.049-27.248l0.023,0.012
			c-0.08,4.891,9.782,21.982,9.782,21.982c6.514,7.558,23.423,13.209,29.892,20.302l1.067,2.27
			c-20.223,19.281-47.619,31.129-77.771,31.129c-18.294,0-35.555-4.358-50.83-12.098l0.432-0.874
			c11.973-12.597,21.04-32.4,21.766-37.541l0.375-0.579C159.956,334.441,177.138,331.774,185.763,331.774z"/>
		<path style="fill:#231F20;" d="M190.393,254.582c0.669,0,1.226,0.59,1.226,1.328c0,0.726-0.556,1.316-1.226,1.316
			c-0.67,0-1.214-0.59-1.214-1.316C189.179,255.172,189.723,254.582,190.393,254.582z"/>
		<path style="fill:#231F20;" d="M191.619,255.91c0-0.738-0.556-1.328-1.226-1.328c-0.67,0-1.214,0.59-1.214,1.328
			c0,0.726,0.544,1.316,1.214,1.316C191.063,257.226,191.619,256.636,191.619,255.91z M190.393,252.914
			c1.884,0,3.404,1.339,3.404,2.985c0,1.657-1.521,2.984-3.404,2.984c-1.884,0-3.394-1.328-3.394-2.984
			C187,254.253,188.509,252.914,190.393,252.914z"/>
		<path style="fill:#FFFFFF;" d="M193.797,255.898c0-1.646-1.521-2.985-3.404-2.985c-1.884,0-3.394,1.339-3.394,2.985
			c0,1.657,1.509,2.984,3.394,2.984C192.277,258.883,193.797,257.555,193.797,255.898z M190.586,251.983
			c4.153-0.102,7.762,2.02,10.542,4.971l-0.113,0.102c-2.213,2.032-4.744,3.847-7.672,4.892c-1.77,0.635-4.21,0.737-6.071,0.352
			c-0.771-0.159-1.748-0.352-2.462-0.692c-0.625-0.272-1.135-0.931-1.736-1.191c-0.84-0.409-1.782-0.057-2.587-0.545
			c-0.931-0.579-0.227-1.237,0.306-2.179C182.676,254.366,186.693,252.063,190.586,251.983z"/>
		<path style="fill:#FFFFFF;" d="M174.959,317.975l-13.255,1.089C164.927,315.818,170.294,314.445,174.959,317.975z"/>
		<path style="fill:#FFEEC8;" d="M171.18,288.275c0.068,3.178,1.316,10.146,3.484,14.356l-0.057,0.443
			c-0.204-0.023-0.397-0.045-0.601-0.068c-3.484-0.375-5.3,2.065-8.478,0.658c-1.146-0.511-2.247-0.715-3.302-0.692l-0.012-0.442
			c0.885-2.315,2.054-9.953,2.043-12.449c1.838,0.318,3.791,0.204,5.209-0.829c0.431-0.306,0.828-0.556,1.214-0.749
			C170.839,288.412,171.01,288.344,171.18,288.275z"/>
		<path style="fill:#FFEEC8;" d="M201.128,256.954c-2.78-2.951-6.389-5.073-10.542-4.971c-3.893,0.08-7.91,2.383-9.794,5.708
			c-0.533,0.942-1.237,1.6-0.306,2.179c0.806,0.488,1.748,0.136,2.587,0.545c0.601,0.261,1.112,0.919,1.736,1.191
			c0.715,0.341,1.691,0.534,2.462,0.692c1.861,0.386,4.301,0.284,6.071-0.352c2.928-1.044,5.459-2.86,7.672-4.892L201.128,256.954z
			 M161.67,289.399c-5.425-2.848-3.961-9.669-3.178-13.629c-0.409,0.829-4.153,4.494-4.585,5.697
			c-0.624,1.748-0.397,4.267,0.579,5.277c0.817,0.84,3.234,1.77,4.278,1.918C159.82,288.832,160.456,288.934,161.67,289.399z
			 M174.959,317.975c-4.665-3.529-10.032-2.156-13.255,1.089L174.959,317.975z M189.689,305.151
			c-6.242,0.113-11.031-1.532-15.083-2.077l0.057-0.443c-2.168-4.21-3.416-11.178-3.484-14.356c1.498-0.59,2.928-0.454,5.425-0.34
			c0.329,0.023,0.669,0.011,1.01-0.034c-2.19-0.999-5.118-1.646-6.934,0.602c-0.386,0.193-0.783,0.443-1.214,0.749
			c-1.418,1.033-3.371,1.146-5.209,0.829c0.011,2.497-1.158,10.134-2.043,12.449l0.012,0.442c-3.7,0.068-6.968,2.769-10.736,3.836
			c-0.885,0.261-1.805,0.42-2.758,0.431v0.011c2.905,0.988,5.572,2.44,8.591,3.167c4.313,1.033,9.204,0.227,13.562-0.147
			c6.832-0.59,12.994,0.125,18.192-4.54C189.281,305.548,189.485,305.355,189.689,305.151z M131.438,256.886l0.125,0.113
			c2.19,2.02,4.732,3.836,7.661,4.88c1.782,0.636,4.222,0.749,6.071,0.375c0.783-0.182,1.748-0.363,2.474-0.704
			c0.624-0.284,1.135-0.942,1.713-1.203c0.863-0.408,1.805-0.057,2.61-0.544c0.942-0.579,0.215-1.237-0.318-2.179
			c-1.873-3.325-5.901-5.617-9.794-5.708C137.827,251.824,134.218,253.946,131.438,256.886z M224.631,270.379h0.011
			c0.057,5.3-0.59,10.815-1.316,15.298c-0.851,5.209-1.793,9.033-1.873,9.578c-0.238,1.657-1.963,5.118-4.642,9.271
			c-7.149,11.122-21.063,27.248-31.049,27.248c-8.625,0-25.807,2.667-34.216-2.644c-0.477-0.284-0.919-0.613-1.339-0.965
			c-4.834-4.085-13.255-17.431-15.185-20.949c-2.088-3.768-8.091-9.771-9.658-20.575c-0.147-0.988-0.261-2.032-0.317-3.11
			c-0.352-5.924-1.873-11.859-2.656-17.647c-0.306-2.145-0.499-4.267-0.499-6.366c0-5.402,1.055-11.734,1.055-23.616l5.731-9.533
			c24.649-24.638,39.459-5.504,50.83-8.5c4.38-1.158,9.26-2.247,13.278-4.505c2.587-1.453,7.331-7.354,10.168-6.298
			c0.125,0.045,0.238,0.102,0.352,0.17c0,0,4.789,18.18,11.484,24.887C221.499,238.808,219.388,265.125,224.631,270.379z"/>
		<path style="fill:#EE947D;" d="M174.607,303.074c4.052,0.544,8.841,2.19,15.083,2.077c-0.205,0.204-0.409,0.397-0.613,0.579
			c-10.656,0.885-26.442,1.6-37.428,1.6l-0.159-0.522c3.768-1.067,7.036-3.768,10.736-3.836c1.055-0.022,2.156,0.182,3.302,0.692
			c3.178,1.407,4.993-1.033,8.478-0.658C174.21,303.029,174.403,303.051,174.607,303.074z"/>
		<path style="fill:#EE947D;" d="M151.649,307.33c10.985,0,26.771-0.715,37.428-1.6c-5.198,4.664-11.36,3.949-18.192,4.54
			c-4.358,0.375-9.249,1.18-13.562,0.147c-3.019-0.727-5.686-2.179-8.591-3.167v-0.011c0.953-0.011,1.873-0.17,2.758-0.431
			L151.649,307.33z"/>
		<path style="fill:#FFFFC2;" d="M151.172,329.709c-0.726,5.141-9.793,24.944-21.766,37.541l-0.432,0.874
			C92.262,349.558,67.08,311.46,67.08,267.497c0-62.27,50.478-112.736,112.725-112.736c62.258,0,112.725,50.467,112.725,112.736
			c0,32.105-13.414,61.066-34.953,81.596l-1.067-2.27c-6.469-7.093-23.378-12.744-29.892-20.302c0,0-9.862-17.091-9.782-21.982
			l-0.023-0.012c2.678-4.153,4.403-7.615,4.642-9.271c0.08-0.545,1.021-4.369,1.873-9.578c5.22,5.129,11.95-2.86,12.234-6.673
			c0.499-6.809-1.328-10.1,2.712-19.054c1.283-2.882,2.065-8.023-0.556-10.611c3.881-33.013-6.39-53.678-21.812-63.45
			c-5.583-3.541-11.836-5.64-18.339-6.4c-32.979-3.847-56.289-1.997-74.923,24.887c-8.466,12.256-7.773,40.446-6.729,54.916
			c2.508,7.717,0.352,13.312,1.305,18.748c0.488,2.826,3.609,8.262,8.148,8.603c1.566,10.804,7.57,16.807,9.658,20.575
			c1.929,3.518,10.35,16.864,15.185,20.949c0.42,0.352,0.862,0.681,1.339,0.965L151.172,329.709z"/>
		<path style="fill:#231F20;" d="M142.173,254.514c0.67,0,1.203,0.59,1.203,1.316c0,0.738-0.533,1.328-1.203,1.328
			c-0.681,0-1.203-0.59-1.203-1.328C140.97,255.104,141.492,254.514,142.173,254.514z"/>
		<path style="fill:#231F20;" d="M142.173,252.846c1.873,0,3.405,1.339,3.405,2.984c0,1.657-1.532,2.996-3.405,2.996
			c-1.884,0-3.393-1.339-3.393-2.996C138.78,254.185,140.289,252.846,142.173,252.846z M143.376,255.83
			c0-0.726-0.533-1.316-1.203-1.316c-0.681,0-1.203,0.59-1.203,1.316c0,0.738,0.522,1.328,1.203,1.328
			C142.843,257.158,143.376,256.568,143.376,255.83z"/>
		<path style="fill:#FFFFFF;" d="M145.578,255.83c0-1.646-1.532-2.984-3.405-2.984c-1.884,0-3.393,1.339-3.393,2.984
			c0,1.657,1.509,2.996,3.393,2.996C144.045,258.826,145.578,257.487,145.578,255.83z M131.438,256.886
			c2.78-2.939,6.389-5.062,10.542-4.971c3.893,0.091,7.921,2.383,9.794,5.708c0.533,0.942,1.26,1.601,0.318,2.179
			c-0.806,0.488-1.748,0.136-2.61,0.544c-0.579,0.261-1.089,0.919-1.713,1.203c-0.727,0.34-1.691,0.522-2.474,0.704
			c-1.85,0.375-4.29,0.261-6.071-0.375c-2.928-1.044-5.47-2.86-7.661-4.88L131.438,256.886z"/>
		<path style="fill:#FBEE34;" d="M122.949,235.902c0,11.882-1.055,18.214-1.055,23.616c0,2.1,0.193,4.222,0.499,6.366
			c-4.8-4.8-6.48-6.593-6.48-6.593c-1.044-14.469-1.736-42.659,6.729-54.916c18.634-26.884,41.944-28.734,74.923-24.887
			c6.503,0.76,12.756,2.86,18.339,6.4l-3.495,4.789c-3.7,4.097-7.274,10.736-9.454,16.388c-2.837-1.056-7.581,4.846-10.168,6.298
			c-4.018,2.258-8.897,3.348-13.278,4.505c-11.371,2.996-26.181-16.138-50.83,8.5L122.949,235.902z"/>
		<path style="fill:#FFEEC8;" d="M122.393,265.885c0.783,5.788,2.304,11.723,2.656,17.647c0.057,1.078,0.17,2.122,0.317,3.11
			c-4.539-0.341-7.66-5.777-8.148-8.603c-0.953-5.436,1.203-11.031-1.305-18.748C115.913,259.292,117.592,261.084,122.393,265.885z"
			/>
	</g>
	<g>
		<path style="fill:none;stroke:#231F20;stroke-width:14;" d="M601.016,420.883c-6.219-6.537-10.191-16.512-10.191-27.69
			c0-19.656,12.302-35.611,27.486-35.611c15.195,0,27.498,15.956,27.498,35.611c0,11.371-4.108,21.494-10.521,28.02
			c-4.676,4.755-10.577,7.592-16.978,7.592c-6.548,0-12.574-2.961-17.283-7.921"/>
		<path style="fill:none;stroke:#231F20;stroke-width:14;" d="M521.837,570.07c0,0,0.091-0.329,0.272-0.942
			c1.702-5.901,11.008-38.131,15.025-54.303c6.4-25.886,27.565-68.578,27.565-68.578c5.391-5.391,14.47-11.734,22.209-16.729
			c7.524-4.857,13.777-8.443,14.106-8.636c0.012,0,0.012,0,0.012,0"/>
		<path style="fill:none;stroke:#231F20;stroke-width:14;" d="M579.998,750.114c0,0-0.045-0.557-0.125-1.589
			c-1.191-14.855-10.338-129.555-10.338-155.826c0-9,0.567-17.091,1.361-23.979c1.816-15.706,4.789-25.193,4.789-25.193
			l-3.302-42.013l-32.832,71.893l-0.465,1.021c0.806,2.213,1.759,9.487,1.759,16.41c0,5.867-0.692,11.484-2.734,13.516
			c-2.338,0-0.727-4.652-3.916-5.322c-2.031,3.178-2.996,13.107-7.206,13.551c-3.79,0.477-7.842-3.938-8.716-7.036
			c-1.498-5.312-0.669-21.948,3.563-35.476"/>
		<path style="fill:none;stroke:#231F20;stroke-width:14;" d="M719.244,570.49c0,0-10.883-37.428-15.286-55.268
			c-6.39-25.886-27.565-68.567-27.565-68.567c-5.413-5.391-14.492-11.746-22.221-16.739c-7.739-4.993-14.117-8.647-14.117-8.647"/>
		<path style="fill:none;stroke:#231F20;stroke-width:14;" d="M664.567,545.001l0.147-1.509l3.972-41.581l33.342,72.914
			c-0.816,2.201-1.771,9.499-1.771,16.421c0,5.867,0.682,11.485,2.724,13.517c2.361,0,0.727-4.676,3.916-5.312
			c2.042,3.144,2.996,13.085,7.206,13.527c3.79,0.477,7.83-3.949,8.716-7.047c1.407-5.073,0.749-20.529-3.042-33.66
			c-0.17-0.602-0.352-1.191-0.533-1.781"/>
		<path style="fill:none;stroke:#231F20;stroke-width:14;" d="M663.546,750.636c0,0,0.022-0.329,0.068-0.976
			c0.873-11.916,9.487-129.918,9.487-156.598c0-8.886-0.806-17.034-1.94-24.093c-2.065-12.938-5.221-22.176-6.446-25.478
			c-0.318-0.874-0.511-1.328-0.511-1.328"/>
		<path style="fill:none;stroke:#231F20;stroke-width:14;" d="M601.504,743.509l-0.057,0.397l-1.374,10.815
			c-0.283,4.732-0.681,8.103-1.384,10.588c-2.077,7.434-6.798,6.911-18.805,11.621c-6.934,2.678-0.862,0.874-10.191,6.196
			c-5.391,3.075-16.001,0.352-17.386-4.46c-1.646-5.788,1.51-11.258,7.036-14.39c8.647-4.937,20.064-10.055,20.529-15.752
			c0.023-0.113,0.023-0.238,0.023-0.352"/>
		<path style="fill:none;stroke:#231F20;stroke-width:14;" d="M641.155,743.361l1.896,12.778c0.227,3.848,0.533,6.787,1.01,9.091
			c1.896,9.021,6.423,8.148,19.179,13.119c6.935,2.666,0.862,0.851,10.202,6.173c5.356,3.099,15.979,0.397,17.363-4.437
			c1.635-5.811-1.509-11.247-7.013-14.391c-6.355-3.62-13.981-7.309-17.772-11.269c-1.486-1.544-2.383-3.133-2.395-4.767"/>
		<polyline style="fill:none;stroke:#231F20;stroke-width:14;" points="641.224,744.27 641.121,743.361 625.426,605.092 
			617.46,605.046 601.424,743.906 		"/>
		<line style="fill:none;stroke:#231F20;stroke-width:14;" x1="574.892" y1="569.162" x2="669.98" y2="569.162"/>
		<path style="fill:none;stroke:#231F20;stroke-width:14;" d="M407.41,361.632c-30.55-20.167-50.705-54.802-50.705-94.147
			c0-62.258,50.478-112.725,112.736-112.725c62.246,0,112.735,50.467,112.735,112.725c0,27.248-9.669,52.226-25.749,71.711
			c-20.678,25.058-51.977,41.025-86.986,41.025C446.528,380.221,425.205,373.378,407.41,361.632z"/>
		<path style="fill:none;stroke:#231F20;stroke-width:5.6742;" d="M465.254,243.063c3.926-6.525,13.471-7.569,18.929-5.436
			c2.939,1.146,4.71,2.497,5.481,3.268"/>
		<path style="fill:none;stroke:#231F20;stroke-width:5.6742;" d="M444.667,240.657c-5.47-4.869-16.398-3.836-20.484,1.714"/>
		<path style="fill:none;stroke:#231F20;stroke-width:5.6742;" d="M451.147,244.504c5.697,4.244,2.678,18.668,1.248,22.98
			c-0.465,1.374-2.429,3.802-1.044,5.232c0.67,0.681,1.521,0.306,2.36,0.442c0.862,0.136,1.396,0.227,2.395,0.59
			c1.918,0.715,3.325,1.146,5.062-0.102c1.884-1.374,1.736-2.327,4.517-2.19c2.338,0.102,4.914,0.76,4.801-2.837
			c-0.08-2.474-1.93-2.452-3.269-4.188"/>
		<path style="fill:none;stroke:#231F20;stroke-width:3.4045;" d="M460.578,285.438c0.022-0.238,0.079-0.454,0.17-0.647
			c1.464-3.654,11.609-1.316,14.322-1.6c-0.443,0.658-0.874,1.362-1.306,2.065c-1.861,3.03-3.813,6.23-7.115,7.706
			c-4.494,1.975-9.283,1.589-12.972-1.464c-1.361-1.124-3.495-2.462-4.46-3.745c-0.941-1.237-0.806-2.406,2.168-3.268
			c1.85-0.522,4.063-0.954,5.958-0.511c1.01,0.238,2.496,1.203,3.404,0.817c0.147-0.045,0.284-0.147,0.397-0.295"/>
		<path style="fill:none;stroke:#231F20;stroke-width:3.4045;" d="M449.218,287.753c3.632,1.067,9.045,0.465,12.688,0.17
			c3.666-0.295,6.673-0.318,11.859-2.667"/>
		<path style="fill:none;stroke:#231F20;stroke-width:3.4045;stroke-linecap:square;stroke-miterlimit:10;" d="M487.1,250.78
			c-0.272-0.329-0.557-0.647-0.84-0.954c-2.338-2.451-5.322-4.21-8.795-4.142c-3.224,0.08-6.582,1.998-8.148,4.767
			c-0.432,0.783-1.021,1.328-0.25,1.815c0.658,0.409,1.464,0.114,2.168,0.443c0.477,0.227,0.907,0.771,1.418,0.999
			c0.602,0.284,1.407,0.454,2.065,0.59c1.544,0.306,3.575,0.215,5.051-0.307c2.451-0.874,4.551-2.372,6.389-4.074"/>
		<path style="fill:none;stroke:#231F20;stroke-width:1.8526;stroke-linecap:square;stroke-miterlimit:10;" d="M472.732,247.603
			c-0.284,0.567-0.103,0.5-0.103,1.191c0,2.44,2.088,4.426,4.642,4.426s4.63-1.986,4.63-4.426c0-0.919,0.091-1.157-0.396-1.861"/>
		<path style="fill:none;stroke:#231F20;stroke-width:1.8526;" d="M474.491,248.953c0,1.384,1.26,2.497,2.826,2.497
			c1.555,0,2.825-1.112,2.825-2.497c0-1.362-1.271-2.485-2.825-2.485C475.751,246.468,474.491,247.591,474.491,248.953z"/>
		<path style="fill:none;stroke:#231F20;stroke-width:1.8526;" d="M476.307,248.953c0,0.624,0.454,1.112,1.011,1.112
			c0.567,0,1.021-0.488,1.021-1.112c0-0.602-0.453-1.089-1.021-1.089C476.761,247.864,476.307,248.352,476.307,248.953z"/>
		<path style="fill:none;stroke:#231F20;stroke-width:3.4045;stroke-linecap:square;stroke-miterlimit:10;" d="M429.268,250.78
			c0.272-0.329,0.556-0.647,0.84-0.954c2.338-2.451,5.322-4.21,8.783-4.142c3.234,0.08,6.594,1.998,8.16,4.767
			c0.442,0.783,1.021,1.328,0.249,1.815c-0.658,0.409-1.464,0.114-2.167,0.443c-0.477,0.227-0.908,0.771-1.419,0.999
			c-0.612,0.284-1.407,0.454-2.065,0.59c-1.543,0.306-3.574,0.215-5.05-0.307c-2.44-0.874-4.563-2.372-6.39-4.074"/>
		<path style="fill:none;stroke:#231F20;stroke-width:1.8526;stroke-linecap:square;stroke-miterlimit:10;" d="M443.635,247.603
			c0.283,0.567,0.102,0.5,0.102,1.191c0,2.44-2.088,4.426-4.642,4.426c-2.564,0-4.652-1.986-4.652-4.426
			c0-0.919-0.079-1.157,0.408-1.861"/>
		<path style="fill:none;stroke:#231F20;stroke-width:1.8526;" d="M441.876,248.953c0,1.384-1.26,2.497-2.826,2.497
			s-2.826-1.112-2.826-2.497c0-1.362,1.26-2.485,2.826-2.485S441.876,247.591,441.876,248.953z"/>
		<path style="fill:none;stroke:#231F20;stroke-width:1.8526;" d="M440.06,248.953c0,0.624-0.454,1.112-1.01,1.112
			c-0.567,0-1.01-0.488-1.01-1.112c0-0.602,0.442-1.089,1.01-1.089C439.605,247.864,440.06,248.352,440.06,248.953z"/>
		<path style="fill:none;stroke:#231F20;stroke-width:7.9439;" d="M471.393,207.542c3.87,4.108,23.287,24.694,33.773,35.191
			c9.782,9.783,3.133,33.807,2.917,35.283c-0.182,1.26-0.557,2.429-1.078,3.518c-1.782,3.711-5.289,6.627-8.557,9.464
			c-7.547,6.537-11.734,18.044-22.562,19.361c-6.752,0.828-14.957,3.007-21.551,0.352c-1.351-0.544-2.633-1.293-3.813-2.292
			c-4.347-3.688-9.806-7.104-13.38-11.609c-2.247-2.826-13.607-16.081-13.607-27.6c0-10.486-2.315-12.982-2.497-19.951
			c-0.181-7.456,3.461-15.275,9.408-19.644c4.563-3.359,29.495-15.241,40.163-22.731c0.033-0.023,0.067-0.045,0.102-0.068
			C470.712,206.816,470.95,207.066,471.393,207.542z"/>
		<path style="fill:none;stroke:#231F20;stroke-width:7.9439;" d="M507.312,281.682c-1.102,18.396,7.989,28.212,7.989,28.212
			c11.791,7.671,20.2,10.656,26.192,16.364c1.577-5.345-0.193-14.186-3.973-17.964c-7.638-7.615-12.403-31.923-13.107-38.29
			c-1.271-11.099,3.133-23.412,3.133-34.545c0-31.764-20.961-56.844-43.874-59.511c-30.856-3.609-50.887,5.027-63.2,25.057
			c-7.286,11.882-12.313,32.468-11.348,46.007c0.386,5.254,4.551,41.207-0.103,53.123c-1.203,3.075-2.928,10.089-4.653,15.842
			c-6.604,22.039,11.542,24.456,14.106,35.26c0.091-0.057,0.193-0.113,0.306-0.193c4.04-2.622,24.115-18.963,27.361-21.63
			c4.563-3.779,7.706-10.747,7.706-17.556"/>
		<path style="fill:none;stroke:#231F20;stroke-width:7.9439;" d="M471.949,207.622c-0.204,0-0.397-0.022-0.557-0.079
			c-0.362-0.102-0.635-0.318-0.782-0.658c-0.023-0.034-0.046-0.08-0.057-0.125c3.279-3.2,4.891-8.262,5.867-12.563"/>
		<path style="fill:none;stroke:#231F20;stroke-width:5.6742;" d="M155.383,248.681c-2.52-5.3-12.358-7.365-17.341-6.367
			c-4.687,0.931-7.024,1.487-11.904,5.289"/>
		<path style="fill:none;stroke:#231F20;stroke-width:5.6742;" d="M174.948,247.75c2.508-5.289,12.358-7.365,17.352-6.366
			c4.698,0.93,7.014,1.486,11.882,5.288"/>
		<path style="fill:none;stroke:#231F20;stroke-width:3.4045;stroke-linecap:square;stroke-miterlimit:10;" d="M130.416,258.021
			c0.318-0.386,0.658-0.772,1.021-1.135c2.78-2.939,6.389-5.062,10.542-4.971c3.893,0.091,7.921,2.383,9.794,5.708
			c0.533,0.942,1.26,1.601,0.318,2.179c-0.806,0.488-1.748,0.136-2.61,0.544c-0.579,0.261-1.089,0.919-1.713,1.203
			c-0.727,0.34-1.691,0.522-2.474,0.704c-1.85,0.375-4.29,0.261-6.071-0.375c-2.928-1.044-5.47-2.86-7.661-4.88"/>
		<path style="fill:none;stroke:#231F20;stroke-width:3.4045;stroke-linecap:square;stroke-miterlimit:10;" d="M147.677,254.196
			c0.352,0.692,0.125,0.625,0.125,1.441c0,2.928-2.508,5.322-5.583,5.322c-3.053,0-5.572-2.395-5.572-5.322
			c0-1.112-0.091-1.396,0.511-2.247"/>
		<path style="fill:none;stroke:#231F20;stroke-width:3.4045;stroke-linecap:square;stroke-miterlimit:10;" d="M202.15,258.088
			c-0.318-0.386-0.658-0.771-1.021-1.135c-2.78-2.951-6.389-5.073-10.542-4.971c-3.893,0.08-7.91,2.383-9.794,5.708
			c-0.533,0.942-1.237,1.6-0.306,2.179c0.806,0.488,1.748,0.136,2.587,0.545c0.601,0.261,1.112,0.919,1.736,1.191
			c0.715,0.341,1.691,0.534,2.462,0.692c1.861,0.386,4.301,0.284,6.071-0.352c2.928-1.044,5.459-2.86,7.672-4.892"/>
		<path style="fill:none;stroke:#231F20;stroke-width:3.4045;stroke-linecap:square;stroke-miterlimit:10;" d="M184.889,254.264
			c-0.329,0.692-0.125,0.613-0.125,1.43c0,2.939,2.497,5.334,5.572,5.334c3.098,0,5.583-2.395,5.583-5.334
			c0-1.101,0.102-1.384-0.499-2.235"/>
		<path style="fill:none;stroke:#231F20;stroke-width:7.9439;" d="M237.716,249.384c0-0.011,0-0.034,0-0.045
			c3.881-33.013-6.39-53.678-21.812-63.45c-5.583-3.541-11.836-5.64-18.339-6.4c-32.979-3.847-56.289-1.997-74.923,24.887
			c-8.466,12.256-7.773,40.446-6.729,54.916c0,0,1.68,1.793,6.48,6.593"/>
		<path style="fill:none;stroke:#231F20;stroke-width:7.9439;" d="M224.631,270.379c-5.243-5.254-3.132-31.571-9.839-38.256
			c-6.695-6.707-11.484-24.887-11.484-24.887c-0.114-0.068-0.227-0.125-0.352-0.17c-2.837-1.056-7.581,4.846-10.168,6.298
			c-4.018,2.258-8.897,3.348-13.278,4.505c-11.371,2.996-26.181-16.138-50.83,8.5l-5.731,9.533c0,11.882-1.055,18.214-1.055,23.616
			c0,2.1,0.193,4.222,0.499,6.366c0.783,5.788,2.304,11.723,2.656,17.647c0.057,1.078,0.17,2.122,0.317,3.11
			c1.566,10.804,7.57,16.807,9.658,20.575c1.929,3.518,10.35,16.864,15.185,20.949c0.42,0.352,0.862,0.681,1.339,0.965
			c8.409,5.311,25.591,2.644,34.216,2.644c9.987,0,23.9-16.126,31.049-27.248c2.678-4.153,4.403-7.615,4.642-9.271
			c0.08-0.545,1.021-4.369,1.873-9.578c0.727-4.483,1.373-9.998,1.316-15.298c-0.022-3.109-0.306-6.14-0.953-8.863
			c-0.205-0.908-0.465-1.782-0.76-2.61"/>
		<path style="fill:none;stroke:#231F20;stroke-width:7.9439;" d="M202.366,208.677c0.181-0.522,0.375-1.067,0.59-1.611
			c2.179-5.652,5.754-12.291,9.454-16.388"/>
		<path style="fill:none;stroke:#231F20;stroke-width:3.4045;" d="M148.732,307.239c0.953-0.011,1.873-0.17,2.758-0.431
			c3.768-1.067,7.036-3.768,10.736-3.836c1.055-0.022,2.156,0.182,3.302,0.692c3.178,1.407,4.993-1.033,8.478-0.658
			c0.204,0.023,0.397,0.045,0.601,0.068c4.052,0.544,8.841,2.19,15.083,2.077c0.669-0.011,1.362-0.045,2.065-0.102"/>
		<path style="fill:none;stroke:#231F20;stroke-width:3.4045;" d="M146.701,306.66c0.692,0.17,1.373,0.363,2.031,0.59
			c2.905,0.988,5.572,2.44,8.591,3.167c4.313,1.033,9.204,0.227,13.562-0.147c6.832-0.59,12.994,0.125,18.192-4.54
			c0.204-0.182,0.408-0.375,0.613-0.579c0.159-0.159,0.317-0.318,0.477-0.488"/>
		<path style="fill:none;stroke:#231F20;stroke-width:3.4045;" d="M151.649,307.33c10.985,0,26.771-0.715,37.428-1.6"/>
		<path style="fill:none;stroke:#231F20;stroke-width:5.6742;" d="M156.529,251.086c6.968,5.209,3.734,19.361,1.998,24.626
			c-0.011,0.022-0.011,0.034-0.034,0.057c-0.409,0.829-4.153,4.494-4.585,5.697c-0.624,1.748-0.397,4.267,0.579,5.277
			c0.817,0.84,3.234,1.77,4.278,1.918c1.055,0.17,1.691,0.272,2.905,0.737c0.783,0.284,1.668,0.545,2.587,0.681
			c1.838,0.318,3.791,0.204,5.209-0.829c0.431-0.306,0.828-0.556,1.214-0.749c0.159-0.091,0.329-0.159,0.499-0.227
			c1.498-0.59,2.928-0.454,5.425-0.34c0.329,0.023,0.669,0.011,1.01-0.034c2.542-0.306,5.005-2.258,4.88-6.162
			c-0.102-3.03-2.383-1.555-4.017-3.688"/>
		<path style="fill:none;stroke:#231F20;stroke-width:5.6742;" d="M164.257,290.069v0.011c0.011,2.497-1.158,10.134-2.043,12.449"/>
		<path style="fill:none;stroke:#231F20;stroke-width:5.6742;" d="M171.18,288.037c0,0.08,0,0.159,0,0.238
			c0.068,3.178,1.316,10.146,3.484,14.356"/>
		<path style="fill:none;stroke:#231F20;stroke-width:5.6742;" d="M158.572,275.384c-0.023,0.125-0.045,0.25-0.08,0.386
			c-0.783,3.96-2.247,10.781,3.178,13.629"/>
		<path style="fill:none;stroke:#231F20;stroke-width:7.9439;" d="M223.724,261.675c-0.012-0.057-0.023-0.102-0.034-0.159
			c-1.192-5.844,3.393-14.98,11.02-13.652c1.305,0.227,2.281,0.749,3.007,1.475c2.621,2.587,1.838,7.729,0.556,10.611
			c-4.04,8.954-2.213,12.245-2.712,19.054c-0.284,3.813-7.014,11.802-12.234,6.673"/>
		<path style="fill:none;stroke:#231F20;stroke-width:7.9439;" d="M115.913,259.292c2.508,7.717,0.352,13.312,1.305,18.748
			c0.488,2.826,3.609,8.262,8.148,8.603c0.148,0.011,0.295,0.011,0.443,0.011"/>
		<path style="fill:none;stroke:#231F20;stroke-width:7.9439;" d="M216.835,304.538c-0.08,4.891,9.782,21.982,9.782,21.982
			c6.514,7.558,23.423,13.209,29.892,20.302"/>
		<path style="fill:none;stroke:#231F20;stroke-width:7.9439;" d="M151.172,329.709c-0.726,5.141-9.793,24.944-21.766,37.541"/>
		<path style="fill:none;stroke:#231F20;stroke-width:7.4105;" d="M170.181,289.229c0.147-0.272,0.318-0.511,0.5-0.727
			c1.815-2.247,4.744-1.6,6.934-0.602c0.148,0.068,0.295,0.147,0.443,0.216"/>
		<path style="fill:none;stroke:#231F20;stroke-width:3.4045;" d="M161.704,319.064c3.223-3.246,8.591-4.619,13.255-1.089"/>
		<path style="fill:none;stroke:#231F20;stroke-width:14;" d="M128.975,368.124C92.262,349.558,67.08,311.46,67.08,267.497
			c0-62.27,50.478-112.736,112.725-112.736c62.258,0,112.725,50.467,112.725,112.736c0,32.105-13.414,61.066-34.953,81.596
			c-20.223,19.281-47.619,31.129-77.771,31.129C161.511,380.221,144.25,375.863,128.975,368.124z"/>
		<line style="fill:none;stroke:#231F20;stroke-width:14;" x1="508.65" y1="373.503" x2="553.931" y2="467.411"/>
		<line style="fill:none;stroke:#231F20;stroke-width:14;" x1="297.364" y1="269.653" x2="356.705" y2="269.357"/>
		<polyline style="fill:none;stroke:#231F20;stroke-width:14;stroke-linecap:square;stroke-miterlimit:10;" points="
			524.334,569.253 539.552,573.406 540.982,573.792 		"/>
		
			<line style="fill:none;stroke:#231F20;stroke-width:14;stroke-linecap:square;stroke-miterlimit:10;" x1="702.028" y1="574.825" x2="718.019" y2="572.283"/>
		
			<line style="fill:none;stroke:#231F20;stroke-width:15.8879;stroke-linecap:square;stroke-miterlimit:10;" x1="579.998" y1="750.114" x2="596.204" y2="764.447"/>
		
			<line style="fill:none;stroke:#231F20;stroke-width:15.8879;stroke-linecap:square;stroke-miterlimit:10;" x1="648.407" y1="765.208" x2="665.815" y2="754.608"/>
		<polyline style="fill:none;stroke:#231F20;stroke-width:7.9439;" points="423.332,346.822 418.781,351.044 407.444,361.576 		"/>
		<line style="fill:none;stroke:#231F20;stroke-width:7.9439;" x1="541.493" y1="326.259" x2="556.109" y2="338.878"/>
	</g>
</g>
<rect style="fill:none;" width="850.394" height="850.394"/>
</svg>
