<?xml version="1.0" encoding="iso-8859-1"?>
<!-- Generator: Adobe Illustrator 12.0.1, SVG Export Plug-In . SVG Version: 6.00 Build 51448)  -->
<!DOCTYPE svg PUBLIC "-//W3C//DTD SVG 1.1//EN" "http://www.w3.org/Graphics/SVG/1.1/DTD/svg11.dtd" [
	<!ENTITY ns_svg "http://www.w3.org/2000/svg">
	<!ENTITY ns_xlink "http://www.w3.org/1999/xlink">
]>
<svg  version="1.1" id="Layer_1" xmlns="&ns_svg;" xmlns:xlink="&ns_xlink;" width="850.394" height="850.394"
	 viewBox="0 0 850.394 850.394" style="overflow:visible;enable-background:new 0 0 850.394 850.394;" xml:space="preserve">
<g id="XMLID_14_">
	<g>
		<path style="fill:#787878;" d="M738.9,486.58l19.979,0.1l0.89-0.16c0.98,5.62,1.7,12.021,1.7,18.61
			c0,18.03-3.689,26.88-9.479,32.67c-5.8,5.79-28.99,5.79-28.99,5.79l0.76-6.78c0-20.92-10.72-39.38-27.069-50.439L738.9,486.58z"/>
		<path style="fill:#787878;" d="M92.83,467.19l98.3,9.069c-12.03,2.54-22.76,7.94-31.22,15.57
			c-12.05,10.85-19.48,26.22-19.48,44.25c0,0-43.92-7.9-48.26-22.13c-1.99-6.53-3.07-26.71-3.66-46.63L92.83,467.19z"/>
		<path style="fill:#ABDA4D;" d="M406.77,483.2c-0.57,26.27-1.3,49.47-2.02,54.069v2.54c-65.16,0.051-123.43,0.101-130.94,0.101
			c0-36.061-29.89-65.29-66.76-65.29c-5.49,0-10.82,0.56-15.92,1.64l-98.3-9.069l-4.32,0.13c-0.69-23.49-0.69-46.63-0.69-46.63
			s5.14-85.36,12.65-105.51c0,0,4.47-30.3,33.19-33.2c28.72-2.89,162.02-2.37,212.6,2.38c20.16,1.89,38.65,4.11,56.39,7.61
			c0,0,5.26,85.12,5.26,110.94C407.91,416.88,407.45,452.17,406.77,483.2z"/>
		<path style="fill:#ABDA4D;" d="M406.77,483.2c0.68-31.03,1.14-66.32,1.14-80.29c0-25.82-5.26-110.94-5.26-110.94
			c26.791,5.27,51.89,13.43,78.51,27.69c39.42,21.12,88.439,64.8,105.77,77.08l-1.35,0.9c24.01,45.01,15.47,115.919,14.8,121.169
			c-1.17,4.551-1.79,9.37-1.79,14.41v6.42c0,0-103.54,0.091-193.84,0.17v-2.54C405.47,532.67,406.2,509.47,406.77,483.2z
			 M572.3,429.78c0,0,3.17-8.43-5.26-21.61c-8.43-13.17-39.05-35.22-65.87-53.21c-22.96-15.41-58.74-22.92-72.18-20.02
			c-10.3,2.22-6.85,20.55-6.85,20.55l1.58,65.33L572.3,429.78z"/>
		<path style="fill:#ABDA4D;" d="M591.8,399.75c10.01,4.21,104.86,25.82,104.86,25.82s26.43,2.791,46.05,23.71l-1.79,1.05
			c-9.59,4.52-16.92,5.17-12.24,16.39c2.771,6.641,6.261,14.03,10.221,19.86l-42.21-0.21c-10.11-6.83-22.37-10.83-35.58-10.83
			c-29.45,0-54.061,17.26-60.73,43.27c0.67-5.25,9.21-76.159-14.8-121.169l1.35-0.9C589.06,398.25,590.71,399.29,591.8,399.75z"/>
		<path style="fill:#C8C8C8;" d="M660.82,523.18c7.39,0,13.39,6.311,13.39,14.09c0,7.78-6,14.091-13.39,14.091
			c-7.391,0-13.38-6.311-13.38-14.091C647.44,529.49,653.43,523.18,660.82,523.18z"/>
		<path style="fill:#C8C8C8;" d="M208.09,524.63c7.87,0,14.26,6.72,14.26,15.01c0,8.28-6.39,15.011-14.26,15.011
			c-7.88,0-14.27-6.73-14.27-15.011C193.82,531.35,200.21,524.63,208.09,524.63z"/>
		<path style="fill:#C8C8C8;" d="M273.81,539.91l-27.26-0.26c0-21.261-17.22-38.471-38.46-38.471c-21.24,0-38.46,17.21-38.46,38.471
			c0,1.399,0.07,2.779,0.22,4.14L168,544l-27.57-7.92c0-18.03,7.43-33.4,19.48-44.25c8.46-7.63,19.19-13.03,31.22-15.57
			c5.1-1.08,10.43-1.64,15.92-1.64C243.92,474.62,273.81,503.85,273.81,539.91z"/>
		<path style="fill:#C8C8C8;" d="M696.69,486.37c16.35,11.06,27.069,29.52,27.069,50.439l-0.76,6.78L702,546l-5.81-1.45
			c0.479-2.35,0.729-4.78,0.729-7.27c0-19.95-16.16-36.101-36.1-36.101c-19.92,0-36.09,16.15-36.09,36.101l-26.141-4.061
			c0-5.04,0.62-9.859,1.79-14.41c6.67-26.01,31.28-43.27,60.73-43.27C674.32,475.54,686.58,479.54,696.69,486.37z"/>
		<path style="fill:#787878;" d="M208.09,501.18c21.24,0,38.46,17.21,38.46,38.471c0,21.229-17.22,38.449-38.46,38.449
			c-19.84,0-36.17-15.02-38.24-34.31c-0.15-1.36-0.22-2.74-0.22-4.14C169.63,518.39,186.85,501.18,208.09,501.18z M222.35,539.64
			c0-8.29-6.39-15.01-14.26-15.01c-7.88,0-14.27,6.72-14.27,15.01c0,8.28,6.39,15.011,14.27,15.011
			C215.96,554.65,222.35,547.92,222.35,539.64z"/>
		<path style="fill:#787878;" d="M696.92,537.28c0,2.489-0.25,4.92-0.729,7.27c-3.37,16.45-17.921,28.811-35.37,28.811
			c-19.92,0-36.09-16.15-36.09-36.08c0-19.95,16.17-36.101,36.09-36.101C680.76,501.18,696.92,517.33,696.92,537.28z M674.21,537.27
			c0-7.779-6-14.09-13.39-14.09c-7.391,0-13.38,6.311-13.38,14.09c0,7.78,5.989,14.091,13.38,14.091
			C668.21,551.36,674.21,545.05,674.21,537.27z"/>
		<path style="fill:#FFA500;" d="M759.77,486.52l-0.89,0.16l-19.979-0.1c-3.96-5.83-7.45-13.22-10.221-19.86
			c-4.68-11.22,2.65-11.87,12.24-16.39l1.79-1.05c4.521,4.83,8.69,10.62,12.08,17.569C754.79,466.85,757.8,475.06,759.77,486.52z"/>
		<path style="fill:#FFFFFF;" d="M567.04,408.17c8.43,13.18,5.26,21.61,5.26,21.61l-148.58-8.96l-1.58-65.33
			c0,0-3.45-18.33,6.85-20.55c13.439-2.9,49.22,4.61,72.18,20.02C527.99,372.95,558.61,395,567.04,408.17z"/>
	</g>
	<g>
		<path style="fill:none;stroke:#231F20;stroke-width:28;" d="M246.55,539.65c0,21.229-17.22,38.449-38.46,38.449
			c-19.84,0-36.17-15.02-38.24-34.31c-0.15-1.36-0.22-2.74-0.22-4.14c0-21.261,17.22-38.471,38.46-38.471
			C229.33,501.18,246.55,518.39,246.55,539.65z"/>
		<path style="fill:none;stroke:#231F20;stroke-width:7;" d="M222.35,539.64c0,8.28-6.39,15.011-14.26,15.011
			c-7.88,0-14.27-6.73-14.27-15.011c0-8.29,6.39-15.01,14.27-15.01C215.96,524.63,222.35,531.35,222.35,539.64z"/>
		<path style="fill:none;stroke:#231F20;stroke-width:28;" d="M624.73,537.28c0-19.95,16.17-36.101,36.09-36.101
			c19.939,0,36.1,16.15,36.1,36.101c0,2.489-0.25,4.92-0.729,7.27c-3.37,16.45-17.921,28.811-35.37,28.811
			C640.9,573.36,624.73,557.21,624.73,537.28z"/>
		<path style="fill:none;stroke:#231F20;stroke-width:7;" d="M674.21,537.27c0,7.78-6,14.091-13.39,14.091
			c-7.391,0-13.38-6.311-13.38-14.091c0-7.779,5.989-14.09,13.38-14.09C668.21,523.18,674.21,529.49,674.21,537.27z"/>
		<path style="fill:none;stroke:#231F20;stroke-width:21;" d="M273.81,539.91c7.51,0,65.78-0.05,130.94-0.101
			c90.3-0.079,193.84-0.17,193.84-0.17v-6.42c0-5.04,0.62-9.859,1.79-14.41c6.67-26.01,31.28-43.27,60.73-43.27
			c13.21,0,25.47,4,35.58,10.83c16.35,11.06,27.069,29.52,27.069,50.439l-0.76,6.78c0,0,23.19,0,28.99-5.79
			c5.79-5.79,9.479-14.64,9.479-32.67c0-6.59-0.72-12.99-1.7-18.61c-1.97-11.46-4.979-19.67-4.979-19.67
			c-3.39-6.949-7.56-12.739-12.08-17.569c-19.62-20.92-46.05-23.71-46.05-23.71s-94.851-21.61-104.86-25.82
			c-1.09-0.46-2.74-1.5-4.87-3.01c-17.33-12.28-66.35-55.96-105.77-77.08c-26.62-14.26-51.72-22.42-78.51-27.69
			c-17.74-3.5-36.23-5.72-56.39-7.61c-50.58-4.75-183.88-5.27-212.6-2.38c-28.72,2.9-33.19,33.2-33.19,33.2
			c-7.51,20.15-12.65,105.51-12.65,105.51s0,23.14,0.69,46.63c0.59,19.92,1.67,40.1,3.66,46.63c4.34,14.229,48.26,22.13,48.26,22.13
			c0-18.03,7.43-33.4,19.48-44.25c8.46-7.63,19.19-13.03,31.22-15.57c5.1-1.08,10.43-1.64,15.92-1.64
			C243.92,474.62,273.81,503.85,273.81,539.91z"/>
		<polyline style="fill:none;stroke:#231F20;stroke-width:14;" points="92.83,467.19 191.13,476.26 191.19,476.27 		"/>
		<polyline style="fill:none;stroke:#231F20;stroke-width:14;" points="696.67,486.37 696.69,486.37 738.9,486.58 758.88,486.68 		
			"/>
		<path style="fill:none;stroke:#231F20;stroke-width:14;" d="M740.92,450.33c-9.59,4.52-16.92,5.17-12.24,16.39
			c2.771,6.641,6.261,14.03,10.221,19.86c0.14,0.21,0.29,0.42,0.43,0.63"/>
		<path style="fill:none;stroke:#231F20;stroke-width:14;stroke-linecap:round;stroke-linejoin:round;" d="M265.65,476.41
			c0,0,64.9,3.57,141.12,6.79c62.74,2.649,133.16,5.069,181.34,5.069"/>
		<path style="fill:none;stroke:#231F20;stroke-width:14;stroke-linecap:round;stroke-linejoin:round;" d="M402.65,291.97
			c0,0,5.26,85.12,5.26,110.94c0,13.97-0.46,49.26-1.14,80.29c-0.57,26.27-1.3,49.47-2.02,54.069"/>
		<path style="fill:none;stroke:#231F20;stroke-width:14;" d="M600.34,519.12c0,0,0.01-0.101,0.04-0.311
			c0.67-5.25,9.21-76.159-14.8-121.169"/>
		<path style="fill:none;stroke:#231F20;stroke-width:7;stroke-linecap:round;stroke-linejoin:round;" d="M572.3,429.78
			l-148.58-8.96l-1.58-65.33c0,0-3.45-18.33,6.85-20.55c13.439-2.9,49.22,4.61,72.18,20.02c26.82,17.99,57.44,40.04,65.87,53.21
			C575.47,421.35,572.3,429.78,572.3,429.78z"/>
	</g>
</g>
<rect style="fill:none;" width="850.394" height="850.394"/>
</svg>
