<?xml version="1.0" encoding="iso-8859-1"?>
<!-- Generator: Adobe Illustrator 12.0.1, SVG Export Plug-In . SVG Version: 6.00 Build 51448)  -->
<!DOCTYPE svg PUBLIC "-//W3C//DTD SVG 1.1//EN" "http://www.w3.org/Graphics/SVG/1.1/DTD/svg11.dtd" [
	<!ENTITY ns_svg "http://www.w3.org/2000/svg">
	<!ENTITY ns_xlink "http://www.w3.org/1999/xlink">
]>
<svg  version="1.1" id="Layer_1" xmlns="&ns_svg;" xmlns:xlink="&ns_xlink;" width="850.394" height="850.394"
	 viewBox="0 0 850.394 850.394" style="overflow:visible;enable-background:new 0 0 850.394 850.394;" xml:space="preserve">
<g id="XMLID_2_">
	<g>
		<path style="fill:#7A7878;" d="M664.1,191.83c-1.97,0.28-4.18,0.43-6.67,0.39c-3.54-0.05-6.59-0.43-9.22-1.12l-0.97,3.09
			c0,0-4.5,50.07,1.479,89.84c5.96,39.76,8.82,53.4,10.891,46.86C664.26,316.08,664.13,203.27,664.1,191.83z M726.65,111.89
			c0.859-1.75-2.19-4.9-6.851-7.04c-4.649-2.14-9.109-2.45-9.979-0.7c-0.86,1.75,2.189,4.9,6.84,7.03
			C721.31,113.32,725.78,113.63,726.65,111.89z M711.4,181.69c-0.08-0.12-0.16-0.24-0.24-0.36c0,0-8.13-11.9-13.21-12.63
			c-14.15-2.02-13.7,9.29-20.97,16.93l0.06,0.06c6.03,8.8,25.29,8.38,33.56,1.7c-3.64,25.82-17.63,125.95-17.88,138.56
			c-0.14,6.85,7.7-10.63,18.82-49.27c11.15-38.64,13.25-88.86,13.25-88.86l2.39-0.11c0.33,7.25,2.29,47.09,6.051,72.03
			c4.97,32.94-4.95,58.25-19.721,84.04c-5.93,10.36-12.64,20.8-19.479,31.83c-9.011,14.52-20.69,29.04-33.17,42.65
			c-37.4,40.84-81.83,73.51-81.83,73.51l-4.99,1.25c1.4,5.69,2.63,11.08,3.58,15.91c6.1,30.92,4.37,72.7-11.74,77.061
			c-16.11,4.35-25.68-13.07-44.41-33.96c-9-10.061-19.83-23.04-29.109-36.181l-0.45,0.32c0,0-39.5,12.771-132.43,13.94
			c-92.93,1.159-105.7,80.149-105.7,80.149l-0.68,0.3c1.36,2.9,2.07,4.48,2.07,4.48c15,25.21,41.17,27.25,89.08,42.05
			s118.63,38.92,115.99,54.021c-0.021,0.13-0.05,0.27-0.08,0.399c-1.41,7.59-5.26,13.771-12.91,17.42
			c-7.34,3.511-18.17,4.7-33.74,2.59c-18.08-2.439-60.35-8.77-71.95-10.52c0.92,10.37,6.33,18.27,10.32,42.3
			c6.19,37.29-8.15,36.03-8.15,36.03c-40.27-18.521-69.6-65.271-80.61-78.34c-11.01-13.08-49.1-28.03-49.1-28.03
			c-26.78-13.02-48.52-24.47-83.62-45.78c0,0-17.18-10.21-32.28-33.439C59.84,554.85,75.47,474.93,75.47,474.93
			c9.15-52.709,38.33-100.63,68.39-136.35c30.06-35.71,73.18-70.13,139.83-107.15c66.65-37.03,145.93-63.17,178.16-72.31
			c32.23-9.15,76.67-27.01,111.511-60.12c34.85-33.1,57.069-51.4,101.93-45.73c15.96,2.01,31.95,8.4,41.88,21.57
			c9.34,12.39,8.12,26.3,10.3,41.06c1.21,8.22,4.2,13.82,7.601,21.41c7.689,17.21,11.25,36.47-7.61,47.61
			c-0.64,0.38-3.5,1.59-6.85,1.59c-2.341,0-4.92-0.59-7.141-2.49c-0.739-0.62-1.43-1.39-2.069-2.32V181.69z M648.57,114.46
			c4.64-2.13,7.689-5.28,6.84-7.03c-0.87-1.75-5.33-1.44-9.98,0.7c-4.66,2.14-7.71,5.29-6.859,7.04
			C639.45,116.91,643.92,116.6,648.57,114.46z"/>
		<path style="fill:#7A7878;" d="M698.8,442.48c-4.71-2.73-29.31-18.911-34.8-22.48l-3.14-1.74
			c12.479-13.61,24.159-28.13,33.17-42.65c6.84-11.03,13.55-21.47,19.479-31.83l3.45,0.46c15.05,15.94,30.59,40.78,40.85,59.14
			c13.681,24.51,27.04,39.21,17.69,53.04C766.14,470.24,726.06,458.31,698.8,442.48z"/>
		<path style="fill:#FFFFFF;" d="M720.61,186.51l4.18,1.31c0,0-2.1,50.22-13.25,88.86c-11.12,38.64-18.96,56.12-18.82,49.27
			c0.25-12.61,14.24-112.74,17.88-138.56c1.23-0.99,2.21-2.12,2.87-3.37C715.69,185.92,718.27,186.51,720.61,186.51z"/>
		<path style="fill:#7A7878;" d="M711.4,181.69v0.01c-0.11,0.78-0.391,2.76-0.801,5.69c-8.27,6.68-27.529,7.1-33.56-1.7l-0.06-0.06
			c7.27-7.64,6.819-18.95,20.97-16.93c5.08,0.73,13.21,12.63,13.21,12.63C711.24,181.45,711.32,181.57,711.4,181.69z"/>
		<path style="fill:#FFFFFF;" d="M664.1,191.83c0.03,11.44,0.16,124.25-4.489,139.06c-2.07,6.54-4.931-7.1-10.891-46.86
			c-5.979-39.77-1.479-89.84-1.479-89.84l0.97-3.09c2.63,0.69,5.68,1.07,9.22,1.12C659.92,192.26,662.13,192.11,664.1,191.83z"/>
	</g>
	<g>
		<path style="fill:none;stroke:#231F20;stroke-width:21;" d="M727.13,186.56c0,0,0.021,0.4,0.05,1.15
			c0.33,7.25,2.29,47.09,6.051,72.03c4.97,32.94-4.95,58.25-19.721,84.04c-5.93,10.36-12.64,20.8-19.479,31.83
			c-9.011,14.52-20.69,29.04-33.17,42.65c-37.4,40.84-81.83,73.51-81.83,73.51"/>
		<path style="fill:none;stroke:#231F20;stroke-width:7;" d="M647.24,194.19c0,0-4.5,50.07,1.479,89.84
			c5.96,39.76,8.82,53.4,10.891,46.86c4.649-14.81,4.52-127.62,4.489-139.06c0-0.61,0-0.93,0-0.93"/>
		<path style="fill:none;stroke:#231F20;stroke-width:7;" d="M711.4,181.69c0.029-0.24,0.05-0.36,0.05-0.36"/>
		<path style="fill:none;stroke:#231F20;stroke-width:7;" d="M724.79,187.82c0,0-2.1,50.22-13.25,88.86
			c-11.12,38.64-18.96,56.12-18.82,49.27c0.25-12.61,14.24-112.74,17.88-138.56c0.41-2.93,0.69-4.91,0.801-5.69"/>
		<path style="fill:none;stroke:#231F20;stroke-width:21;" d="M459.66,399.24c0,0,7.83,55.71,12.189,77.04
			c2.261,11.069,10.49,25.41,20.511,39.569c9.279,13.141,20.109,26.12,29.109,36.181c18.73,20.89,28.3,38.31,44.41,33.96
			c16.11-4.36,17.84-46.141,11.74-77.061c-0.95-4.83-2.18-10.22-3.58-15.91c-7.58-30.729-20.26-70.439-22.1-80.72
			c-2.171-12.19-2.61-39.18-2.61-39.18"/>
		<path style="fill:none;stroke:#231F20;stroke-width:21;" d="M716.96,344.24c15.05,15.94,30.59,40.78,40.85,59.14
			c13.681,24.51,27.04,39.21,17.69,53.04c-9.36,13.82-49.44,1.89-76.7-13.939c-4.71-2.73-29.31-18.911-34.8-22.48"/>
		<path style="fill:none;stroke:#231F20;stroke-width:21;" d="M711.4,181.7c0.64,0.93,1.33,1.7,2.069,2.32
			c2.221,1.9,4.8,2.49,7.141,2.49c3.35,0,6.21-1.21,6.85-1.59c18.86-11.14,15.3-30.4,7.61-47.61c-3.4-7.59-6.391-13.19-7.601-21.41
			c-2.18-14.76-0.96-28.67-10.3-41.06c-9.93-13.17-25.92-19.56-41.88-21.57C630.43,47.6,608.21,65.9,573.36,99
			c-34.841,33.11-79.28,50.97-111.511,60.12c-32.229,9.14-111.51,35.28-178.16,72.31c-66.65,37.02-109.77,71.44-139.83,107.15
			c-30.06,35.72-59.24,83.64-68.39,136.35c0,0-15.63,79.92,22.65,138.811c15.1,23.229,32.28,33.439,32.28,33.439
			c35.1,21.311,56.84,32.761,83.62,45.78c0,0,38.09,14.95,49.1,28.03c11.01,13.069,40.34,59.819,80.61,78.34
			c0,0,14.34,1.26,8.15-36.03c-3.99-24.03-9.4-31.93-10.32-42.3c-0.28-3.06-0.16-6.34,0.5-10.32"/>
		<line style="fill:none;stroke:#231F20;stroke-width:7;" x1="711.4" y1="181.69" x2="711.4" y2="181.7"/>
		<path style="fill:none;stroke:#231F20;stroke-width:21;" d="M627.38,106.41c3.05,23.09,14.811,10.45,10.021,34.85
			c-4.24,21.6-9.511,44.57,10.81,49.84c2.63,0.69,5.68,1.07,9.22,1.12c2.49,0.04,4.7-0.11,6.67-0.39
			c6.23-0.91,10.11-3.29,12.881-6.2c7.27-7.64,6.819-18.95,20.97-16.93c5.08,0.73,13.21,12.63,13.21,12.63
			c0.08,0.12,0.16,0.24,0.24,0.36"/>
		<path style="fill:none;stroke:#231F20;stroke-width:21;" d="M338.57,720.56c0,0,1.08,0.16,2.99,0.44
			c11.6,1.75,53.87,8.08,71.95,10.52c15.57,2.11,26.4,0.921,33.74-2.59c7.65-3.649,11.5-9.83,12.91-17.42
			c0.03-0.13,0.06-0.27,0.08-0.399c2.64-15.101-68.08-39.221-115.99-54.021s-74.08-16.84-89.08-42.05c0,0-0.71-1.58-2.07-4.48
			c-4.06-8.689-13.94-29.27-27.85-54.729"/>
		<path style="fill:none;stroke:#231F20;stroke-width:14;" d="M449.39,729.84c0,0-0.75-0.32-2.14-0.91
			c-12.48-5.22-76.73-31.449-114.37-33.87"/>
		<path style="fill:none;stroke:#231F20;stroke-width:14;" d="M460.75,711.77c0,0-0.2-0.09-0.59-0.26
			c-7.08-2.99-76.27-31.979-115.92-34.52"/>
		<line style="fill:none;stroke:#231F20;stroke-width:14;" x1="352.51" y1="782.54" x2="294.43" y2="719.44"/>
		<path style="fill:none;stroke:#231F20;stroke-width:21;" d="M253.78,610.26c0,0,12.77-78.99,105.7-80.149
			c92.93-1.17,132.43-13.94,132.43-13.94"/>
		<path style="fill:none;stroke:#231F20;stroke-width:21;" d="M318.83,302.43c0,0,18.58,90.6,66.21,128.94
			C432.66,469.7,468,470,468,470"/>
		<path style="fill:none;stroke:#231F20;stroke-width:21;" d="M311.8,428.33c10.24,21.54,24.01,43.26,41.87,57.64
			c47.63,38.33,126.62,31.891,126.62,31.891"/>
		<path style="fill:none;stroke:#231F20;stroke-width:13.9392;" d="M677.04,185.69c6.03,8.8,25.29,8.38,33.56,1.7
			c1.23-0.99,2.21-2.12,2.87-3.37c0.24-0.45,0.44-0.91,0.59-1.38"/>
		<path style="fill:none;stroke:#231F20;stroke-width:20.9089;" d="M709.82,104.15c-0.86,1.75,2.189,4.9,6.84,7.03
			c4.649,2.14,9.12,2.45,9.99,0.71c0.859-1.75-2.19-4.9-6.851-7.04C715.15,102.71,710.69,102.4,709.82,104.15z"/>
		<path style="fill:none;stroke:#231F20;stroke-width:20.9089;" d="M655.41,107.43c0.85,1.75-2.2,4.9-6.84,7.03
			c-4.65,2.14-9.12,2.45-10,0.71c-0.851-1.75,2.199-4.9,6.859-7.04C650.08,105.99,654.54,105.68,655.41,107.43z"/>
	</g>
</g>
<rect style="fill:none;" width="850.394" height="850.394"/>
</svg>
