<?xml version="1.0" encoding="iso-8859-1"?>
<!-- Generator: Adobe Illustrator 12.0.1, SVG Export Plug-In . SVG Version: 6.00 Build 51448)  -->
<!DOCTYPE svg PUBLIC "-//W3C//DTD SVG 1.1//EN" "http://www.w3.org/Graphics/SVG/1.1/DTD/svg11.dtd" [
	<!ENTITY ns_svg "http://www.w3.org/2000/svg">
	<!ENTITY ns_xlink "http://www.w3.org/1999/xlink">
]>
<svg  version="1.1" id="Layer_1" xmlns="&ns_svg;" xmlns:xlink="&ns_xlink;" width="850.394" height="850.394"
	 viewBox="0 0 850.394 850.394" style="overflow:visible;enable-background:new 0 0 850.394 850.394;" xml:space="preserve">
<g id="XMLID_1_">
	<g>
		<path style="fill:#C8C8C8;" d="M460.03,377.39c17.609,21.19,28.239,48.7,28.239,78.77c0,30-10.579,57.45-28.119,78.64l-0.03-0.02
			c-9.87-12.101-16.89-42.88-16.89-78.95c0-34.97,6.6-64.98,16-77.79L460.03,377.39z"/>
		<path style="fill:#C8C8C8;" d="M460.12,534.78l0.03,0.02c-21.631,26.16-53.88,42.75-89.891,42.75
			c-65.18,0-118.03-54.34-118.03-121.39c0-67.03,52.85-121.37,118.03-121.37c35.94,0,68.13,16.53,89.771,42.6l-0.8,0.65
			c-9.4,12.81-16,42.82-16,77.79C443.23,491.9,450.25,522.68,460.12,534.78z"/>
		<path style="fill:#787878;" d="M370.25,288.06c90.28,0,163.46,75.26,163.46,168.1c0,92.859-73.18,168.12-163.46,168.12
			c-90.27,0-163.46-75.261-163.46-168.12C206.79,363.32,279.98,288.06,370.25,288.06z M488.27,456.16
			c0-30.07-10.63-57.58-28.239-78.77c-21.641-26.07-53.83-42.6-89.771-42.6c-65.18,0-118.03,54.34-118.03,121.37
			c0,67.05,52.85,121.39,118.03,121.39c36.01,0,68.26-16.59,89.891-42.75C477.69,513.61,488.27,486.16,488.27,456.16z"/>
		<polygon style="fill:#A3D9FF;" points="302.87,188.16 302.87,227.01 302.76,229.47 205.03,225.12 205.16,222.11 205.16,183.17 		
			"/>
		<polygon style="fill:#A3D9FF;" points="499.39,164.42 499.25,194.91 452.6,192.53 452.74,162.04 		"/>
		<path style="fill:#FF001C;" d="M369.42,158.21c13.77,0,24.93,11.16,24.93,24.94c0,13.77-11.16,24.93-24.93,24.93
			s-24.94-11.16-24.94-24.93C344.48,169.37,355.65,158.21,369.42,158.21z"/>
		<polygon style="fill:#FFFFFF;" points="677.34,91.26 677.22,94.21 597.26,138.16 593.55,140.2 189.66,119.57 322.69,77.29 		"/>
		<polygon style="fill:#FFFFFF;" points="688.4,91.7 688.4,639.15 597.27,778.07 594.2,776.06 599.74,142.67 597.26,138.16 
			677.22,94.21 677.34,91.26 		"/>
		<path style="fill:#FFFFFF;" d="M302.76,229.47l0.11-2.46v-38.85l-97.71-4.99v38.94l-0.13,3.01L302.76,229.47z M597.26,138.16
			l2.48,4.51l-5.54,633.39l-418.9-49.59l4.43-603.74l9.93-3.16l403.89,20.63L597.26,138.16z M499.25,194.91l0.14-30.49l-46.649-2.38
			l-0.141,30.49L499.25,194.91z M533.71,456.16c0-92.84-73.18-168.1-163.46-168.1c-90.27,0-163.46,75.26-163.46,168.1
			c0,92.859,73.19,168.12,163.46,168.12C460.53,624.28,533.71,549.02,533.71,456.16z M394.35,183.15
			c0-13.78-11.16-24.94-24.93-24.94s-24.94,11.16-24.94,24.94c0,13.77,11.17,24.93,24.94,24.93S394.35,196.92,394.35,183.15z"/>
	</g>
	<g>
		<polyline style="fill:none;stroke:#231F20;stroke-width:21;" points="177.63,118.96 189.66,119.57 593.55,140.2 597.26,138.16 
			677.22,94.21 		"/>
		<polyline style="fill:none;stroke:#231F20;stroke-width:21;" points="180,224 205.03,225.12 302.76,229.47 584,242 		"/>
		<polyline style="fill:none;stroke:#231F20;stroke-width:21;" points="205.16,222.11 205.16,183.17 302.87,188.16 302.87,227.01 		
			"/>
		<polygon style="fill:none;stroke:#231F20;stroke-width:21;" points="499.25,194.91 452.6,192.53 452.74,162.04 499.39,164.42 		
			"/>
		<polyline style="fill:none;stroke:#231F20;stroke-width:21;" points="599.74,142.67 594.2,776.06 175.3,726.47 179.73,122.73 
			189.66,119.57 322.69,77.29 677.34,91.26 688.4,91.7 688.4,639.15 597.27,778.07 596,780 		"/>
		<path style="fill:none;stroke:#231F20;stroke-width:21;" d="M533.71,456.16c0,92.859-73.18,168.12-163.46,168.12
			c-90.27,0-163.46-75.261-163.46-168.12c0-92.84,73.19-168.1,163.46-168.1C460.53,288.06,533.71,363.32,533.71,456.16z"/>
		<path style="fill:none;stroke:#231F20;stroke-width:21;" d="M460.03,377.39c17.609,21.19,28.239,48.7,28.239,78.77
			c0,30-10.579,57.45-28.119,78.64c-21.631,26.16-53.88,42.75-89.891,42.75c-65.18,0-118.03-54.34-118.03-121.39
			c0-67.03,52.85-121.37,118.03-121.37C406.2,334.79,438.39,351.32,460.03,377.39z"/>
		<path style="fill:none;stroke:#231F20;stroke-width:21;" d="M460.12,534.78c-9.87-12.101-16.89-42.88-16.89-78.95
			c0-34.97,6.6-64.98,16-77.79"/>
		<path style="fill:none;stroke:#231F20;stroke-width:21;" d="M394.35,183.15c0,13.77-11.16,24.93-24.93,24.93
			s-24.94-11.16-24.94-24.93c0-13.78,11.17-24.94,24.94-24.94S394.35,169.37,394.35,183.15z"/>
	</g>
</g>
<rect style="fill:none;" width="850.394" height="850.394"/>
</svg>
