<?xml version="1.0" encoding="iso-8859-1"?>
<!-- Generator: Adobe Illustrator 12.0.1, SVG Export Plug-In . SVG Version: 6.00 Build 51448)  -->
<!DOCTYPE svg PUBLIC "-//W3C//DTD SVG 1.1//EN" "http://www.w3.org/Graphics/SVG/1.1/DTD/svg11.dtd" [
	<!ENTITY ns_svg "http://www.w3.org/2000/svg">
	<!ENTITY ns_xlink "http://www.w3.org/1999/xlink">
]>
<svg  version="1.1" id="Layer_1" xmlns="&ns_svg;" xmlns:xlink="&ns_xlink;" width="850.394" height="850.394"
	 viewBox="0 0 850.394 850.394" style="overflow:visible;enable-background:new 0 0 850.394 850.394;" xml:space="preserve">
<rect x="368" y="368.249" style="fill:none;" width="113.386" height="113.386"/>
<g id="XMLID_3_">
	<g>
		<path style="fill:#EEDCEB;" d="M741.82,78.05l1.81,651.91c-172.22,65.19-399.16,35.49-421.79,32.3c1.41-2.84,2.15-5.79,2.15-8.81
			l0.01-0.681V110.58h3.9C327.9,110.58,560.38,146.73,741.82,78.05z M681.81,176.49l3.79-3.69l-5.239-0.76l-2.341-4.74l-2.34,4.74
			l-5.239,0.76l3.8,3.69l-0.9,5.22l4.68-2.47l4.681,2.47L681.81,176.49z M672.45,362.51l3.79-3.7l-5.24-0.76l-2.33-4.74l-2.35,4.74
			l-5.23,0.76l3.78,3.7l-0.89,5.21l4.689-2.47l4.68,2.47L672.45,362.51z M664.53,531.21l3.79-3.69l-5.23-0.77l-2.35-4.73l-2.34,4.73
			l-5.23,0.77l3.78,3.69l-0.891,5.22l4.681-2.47l4.68,2.47L664.53,531.21z M598.74,680.15l3.779-3.69l-5.229-0.76l-2.34-4.75
			l-2.34,4.75l-5.23,0.76l3.78,3.69l-0.891,5.22l4.681-2.47l4.68,2.47L598.74,680.15z M549.12,284.94l3.8-3.69l-5.24-0.76
			l-2.34-4.75l-2.34,4.75l-5.24,0.76l3.79,3.69l-0.89,5.22l4.68-2.47l4.68,2.47L549.12,284.94z M493.83,494.61l3.79-3.7l-5.24-0.75
			l-2.33-4.75l-2.35,4.75l-5.23,0.75l3.79,3.7l-0.89,5.21l4.68-2.46l4.681,2.46L493.83,494.61z M423.94,658.5l3.791-3.7l-5.23-0.76
			l-2.34-4.74l-2.35,4.74l-5.22,0.76l3.78,3.7l-0.9,5.21l4.69-2.47l4.68,2.47L423.94,658.5z M417.5,195.01l3.79-3.69l-5.23-0.76
			l-2.34-4.74l-2.35,4.74l-5.23,0.76l3.79,3.69l-0.9,5.22l4.69-2.46l4.68,2.46L417.5,195.01z M398.64,389.78l3.79-3.69l-5.24-0.77
			l-2.34-4.74l-2.34,4.74l-5.24,0.77l3.79,3.69l-0.89,5.21l4.68-2.46l4.69,2.46L398.64,389.78z"/>
		<path style="fill:#EEDCEB;" d="M321.84,762.26c-9.77,19.71-51.65,34.53-101.82,34.53c-57.43,0-103.97-19.41-103.97-43.34
			l-0.4-650.33c6.14,21.62,50.28,38.4,103.8,38.4c56.68,0,102.83-18.81,104.49-42.27l0.06,0.01v11.32V752.77l-0.01,0.681
			C323.99,756.47,323.25,759.42,321.84,762.26z M267.05,521.49l3.79-3.69l-5.24-0.76l-2.33-4.74l-2.35,4.74l-5.23,0.76l3.79,3.69
			l-0.89,5.22l4.68-2.46l4.68,2.46L267.05,521.49z M259.99,213.87l3.79-3.69l-5.24-0.76l-2.33-4.74l-2.35,4.74l-5.23,0.76l3.79,3.69
			l-0.89,5.22l4.68-2.46l4.68,2.46L259.99,213.87z M187.55,371.67l3.79-3.69l-5.23-0.76l-2.34-4.74l-2.35,4.74l-5.23,0.76l3.79,3.69
			l-0.89,5.22l4.68-2.46l4.68,2.46L187.55,371.67z M175.3,691.48l3.79-3.7l-5.24-0.75l-2.34-4.75l-2.34,4.75l-5.23,0.75l3.78,3.7
			l-0.89,5.21l4.68-2.46l4.68,2.46L175.3,691.48z"/>
		<path style="fill:#FFFFC2;" d="M115.65,103.12c-0.49-1.7-0.74-3.43-0.74-5.18c0-24.07,46.81-43.59,104.54-43.59
			c57.74,0,104.54,19.52,104.54,43.59c0,0.44-0.02,0.88-0.05,1.31c-1.66,23.46-47.81,42.27-104.49,42.27
			C165.93,141.52,121.79,124.74,115.65,103.12z"/>
	</g>
	<g>
		<path style="fill:none;stroke:#231F20;stroke-width:21;" d="M115.65,103.12c-0.49-1.7-0.74-3.43-0.74-5.18
			c0-24.07,46.81-43.59,104.54-43.59c57.74,0,104.54,19.52,104.54,43.59c0,0.44-0.02,0.88-0.05,1.31
			c-1.66,23.46-47.81,42.27-104.49,42.27C165.93,141.52,121.79,124.74,115.65,103.12z"/>
		<path style="fill:none;stroke:#231F20;stroke-width:21;" d="M324,99.26v11.32V752.77l-0.01,0.681c0,3.02-0.74,5.97-2.15,8.81
			c-9.77,19.71-51.65,34.53-101.82,34.53c-57.43,0-103.97-19.41-103.97-43.34l-0.4-650.33v-0.08"/>
		<path style="fill:none;stroke:#231F20;stroke-width:21;" d="M320,762c0,0,0.63,0.09,1.84,0.26
			c22.63,3.19,249.57,32.891,421.79-32.3l-1.81-651.91c-181.44,68.68-413.92,32.53-413.92,32.53"/>
		<polygon style="fill:none;stroke:#231F20;stroke-width:21.69;" points="413.72,185.82 416.06,190.56 421.29,191.32 417.5,195.01 
			418.4,200.23 413.72,197.77 409.03,200.23 409.93,195.01 406.14,191.32 411.37,190.56 		"/>
		<polygon style="fill:none;stroke:#231F20;stroke-width:21.69;" points="545.34,275.74 547.68,280.49 552.92,281.25 549.12,284.94 
			550.02,290.16 545.34,287.69 540.66,290.16 541.55,284.94 537.76,281.25 543,280.49 		"/>
		<polygon style="fill:none;stroke:#231F20;stroke-width:21.69;" points="420.16,649.3 422.5,654.04 427.73,654.8 423.94,658.5 
			424.84,663.71 420.16,661.24 415.47,663.71 416.37,658.5 412.59,654.8 417.81,654.04 		"/>
		<polygon style="fill:none;stroke:#231F20;stroke-width:21.69;" points="594.95,670.95 597.29,675.7 602.52,676.46 598.74,680.15 
			599.63,685.37 594.95,682.9 590.27,685.37 591.16,680.15 587.38,676.46 592.61,675.7 		"/>
		<polygon style="fill:none;stroke:#231F20;stroke-width:21.69;" points="660.74,522.02 663.09,526.75 668.32,527.52 664.53,531.21 
			665.42,536.43 660.74,533.96 656.06,536.43 656.95,531.21 653.17,527.52 658.4,526.75 		"/>
		<polygon style="fill:none;stroke:#231F20;stroke-width:21.69;" points="394.85,380.58 397.19,385.32 402.43,386.09 398.64,389.78 
			399.54,394.99 394.85,392.53 390.17,394.99 391.06,389.78 387.27,386.09 392.51,385.32 		"/>
		<polygon style="fill:none;stroke:#231F20;stroke-width:21.69;" points="490.05,485.41 492.38,490.16 497.62,490.91 493.83,494.61 
			494.73,499.82 490.05,497.36 485.37,499.82 486.26,494.61 482.47,490.91 487.7,490.16 		"/>
		<polygon style="fill:none;stroke:#231F20;stroke-width:21.69;" points="256.21,204.68 258.54,209.42 263.78,210.18 259.99,213.87 
			260.89,219.09 256.21,216.63 251.53,219.09 252.42,213.87 248.63,210.18 253.86,209.42 		"/>
		<polygon style="fill:none;stroke:#231F20;stroke-width:21.69;" points="183.77,362.48 186.11,367.22 191.34,367.98 187.55,371.67 
			188.45,376.89 183.77,374.43 179.09,376.89 179.98,371.67 176.19,367.98 181.42,367.22 		"/>
		<polygon style="fill:none;stroke:#231F20;stroke-width:21.69;" points="263.27,512.3 265.6,517.04 270.84,517.8 267.05,521.49 
			267.95,526.71 263.27,524.25 258.59,526.71 259.48,521.49 255.69,517.8 260.92,517.04 		"/>
		<polygon style="fill:none;stroke:#231F20;stroke-width:21.69;" points="171.51,682.28 173.85,687.03 179.09,687.78 175.3,691.48 
			176.19,696.69 171.51,694.23 166.83,696.69 167.72,691.48 163.94,687.78 169.17,687.03 		"/>
		<polygon style="fill:none;stroke:#231F20;stroke-width:21.69;" points="668.67,353.31 671,358.05 676.24,358.81 672.45,362.51 
			673.35,367.72 668.67,365.25 663.98,367.72 664.87,362.51 661.09,358.81 666.32,358.05 		"/>
		<polygon style="fill:none;stroke:#231F20;stroke-width:21.69;" points="678.02,167.3 680.36,172.04 685.6,172.8 681.81,176.49 
			682.7,181.71 678.02,179.24 673.34,181.71 674.24,176.49 670.44,172.8 675.68,172.04 		"/>
	</g>
</g>
<rect style="fill:none;" width="850.394" height="850.394"/>
</svg>
